<svg width="24" height="24" viewBox="0 0 24 24" fill="none" xmlns="http://www.w3.org/2000/svg">
<rect x="0.5" y="0.5" width="23" height="23" rx="3.5" fill="url(#paint0_linear_7552_6515)"/>
<rect x="0.5" y="0.5" width="23" height="23" rx="3.5" stroke="url(#paint1_linear_7552_6515)" style="mix-blend-mode:overlay"/>
<path d="M18.6894 11.6571C18.8433 11.9956 18.9409 12.3575 18.9809 12.7266C19.0193 13.0957 19.0001 13.4692 18.9202 13.8325C18.8418 14.1957 18.7057 14.5444 18.5164 14.8654C18.3921 15.0798 18.2457 15.2811 18.0771 15.4664C17.9099 15.6502 17.7235 15.8166 17.5209 15.9625C17.3167 16.1084 17.0993 16.2309 16.8685 16.3316C16.6393 16.4308 16.3996 16.5067 16.1541 16.5563C16.0387 16.9093 15.8671 17.2434 15.6452 17.5439C15.4248 17.8445 15.157 18.1086 14.8523 18.326C14.5476 18.5448 14.2103 18.714 13.8523 18.8278C13.4944 18.9431 13.1202 18.9999 12.7429 18.9999C12.4929 19.0014 12.2415 18.9752 11.9959 18.9256C11.7519 18.8745 11.5122 18.7972 11.2829 18.6965C11.0536 18.5958 10.8362 18.4704 10.6335 18.3245C10.4324 18.1786 10.246 18.0108 10.0803 17.8255C9.71049 17.9043 9.33182 17.9233 8.95758 17.8853C8.58334 17.8459 8.21647 17.7497 7.87179 17.5979C7.52863 17.4476 7.21058 17.2434 6.93101 16.994C6.65143 16.7445 6.41327 16.4527 6.22541 16.1317C6.09968 15.9172 5.99613 15.6911 5.91773 15.4562C5.83933 15.2213 5.78756 14.9792 5.76093 14.7326C5.7343 14.4875 5.73578 14.2395 5.76241 13.9929C5.78904 13.7478 5.84377 13.5056 5.92217 13.2707C5.6707 12.995 5.4636 12.6813 5.30976 12.3429C5.1574 12.003 5.05829 11.6426 5.01983 11.2735C4.97989 10.9044 5.0006 10.5309 5.079 10.1676C5.1574 9.80434 5.29349 9.45562 5.48283 9.13467C5.60709 8.92021 5.75353 8.71739 5.92069 8.53362C6.08784 8.34979 6.2757 8.18343 6.47836 8.03758C6.68101 7.89167 6.89994 7.76766 7.12923 7.66847C7.35997 7.56776 7.59961 7.49338 7.84515 7.44375C7.96053 7.08925 8.13216 6.75661 8.35253 6.45607C8.57446 6.15553 8.8422 5.89147 9.14692 5.67263C9.45163 5.45525 9.78889 5.28601 10.1469 5.17075C10.5048 5.05696 10.8791 4.9986 11.2563 5.00006C11.5063 4.9986 11.7578 5.02341 12.0033 5.07447C12.2489 5.12553 12.4885 5.20139 12.7178 5.30206C12.9471 5.40418 13.1645 5.52819 13.3672 5.67409C13.5698 5.82144 13.7562 5.98776 13.9219 6.17304C14.2902 6.09572 14.6689 6.07675 15.0432 6.11469C15.4174 6.15262 15.7828 6.25037 16.1274 6.40063C16.4706 6.55236 16.7886 6.75515 17.0682 7.00463C17.3478 7.25264 17.5859 7.543 17.7738 7.8654C17.8995 8.07841 18.0031 8.30453 18.0815 8.5409C18.1599 8.77575 18.2131 9.01795 18.2383 9.26451C18.2649 9.51107 18.2649 9.75909 18.2368 10.0056C18.2102 10.2522 18.1555 10.4944 18.0771 10.7293C18.33 11.005 18.5356 11.3172 18.6894 11.6571ZM13.7606 17.8853C14.0831 17.754 14.376 17.56 14.623 17.3164C14.8701 17.0727 15.0668 16.7839 15.2 16.4644C15.333 16.1463 15.4026 15.8049 15.4026 15.4606V12.2072C15.4016 12.2043 15.4006 12.2008 15.3996 12.197C15.3986 12.1941 15.3972 12.1912 15.3952 12.1882C15.3932 12.1853 15.3908 12.1829 15.3878 12.1809C15.3849 12.178 15.3819 12.176 15.3789 12.1751L14.1852 11.4952V15.4256C14.1852 15.465 14.1793 15.5058 14.1689 15.5438C14.1586 15.5831 14.1438 15.6196 14.1231 15.6546C14.1024 15.6897 14.0787 15.7218 14.0491 15.7494C14.0203 15.7777 13.988 15.8023 13.9529 15.8224L11.1261 17.4316C11.1025 17.4462 11.0625 17.4666 11.0418 17.4783C11.1587 17.576 11.2859 17.6621 11.419 17.738C11.5536 17.8138 11.6927 17.878 11.8376 17.9306C11.9826 17.9817 12.132 18.021 12.2829 18.0473C12.4352 18.0735 12.5891 18.0867 12.7429 18.0867C13.092 18.0867 13.4381 18.0181 13.7606 17.8853ZM7.02863 15.6765C7.20466 15.9756 7.43691 16.2353 7.71353 16.4454C7.99161 16.6555 8.30672 16.8087 8.64398 16.8977C8.98124 16.9866 9.33328 17.01 9.67941 16.9648C10.0256 16.9195 10.3584 16.8087 10.6616 16.6365L13.5195 15.0098L13.5269 15.0025C13.5289 15.0006 13.5304 14.9977 13.5314 14.9937C13.5333 14.9908 13.5348 14.9879 13.5358 14.985V13.6136L10.0862 15.5817C10.0507 15.6021 10.0137 15.6167 9.97525 15.6284C9.93535 15.6386 9.89539 15.643 9.85397 15.643C9.81401 15.643 9.77411 15.6386 9.73415 15.6284C9.69571 15.6167 9.65721 15.6021 9.62175 15.5817L6.79491 13.971C6.76977 13.9565 6.73279 13.9346 6.71208 13.9214C6.68545 14.0717 6.67214 14.2234 6.67214 14.3751C6.67214 14.5269 6.68693 14.6786 6.71356 14.8289C6.74019 14.9777 6.78161 15.125 6.83338 15.268C6.88663 15.411 6.95172 15.5481 7.02863 15.6794V15.6765ZM6.28606 9.59279C6.11151 9.89183 5.99908 10.2216 5.95323 10.563C5.90737 10.9044 5.93104 11.2501 6.02128 11.5842C6.11151 11.9169 6.26683 12.2276 6.47984 12.5019C6.69285 12.7747 6.95763 13.0038 7.25937 13.1759L10.1158 14.8041C10.1188 14.805 10.1222 14.806 10.1261 14.807H10.1365C10.1405 14.807 10.1439 14.806 10.1469 14.8041C10.1498 14.8031 10.1528 14.8017 10.1558 14.7997L11.3539 14.1169L7.90433 12.1532C7.87033 12.1328 7.83779 12.108 7.80817 12.0803C7.77951 12.0519 7.75467 12.02 7.73421 11.9854C7.71499 11.9504 7.69875 11.914 7.68835 11.8745C7.67801 11.8366 7.67211 11.7972 7.67357 11.7564V8.44316C7.52863 8.49564 7.38807 8.55983 7.25494 8.63573C7.12183 8.71302 6.99609 8.80057 6.87775 8.89831C6.7609 8.99605 6.65143 9.10404 6.55232 9.22076C6.45321 9.33598 6.36594 9.4615 6.28902 9.59279H6.28606ZM16.0978 11.8453C16.1333 11.8658 16.1659 11.8891 16.1955 11.9183C16.2236 11.946 16.2487 11.9781 16.2695 12.0131C16.2887 12.0482 16.3049 12.0861 16.3153 12.124C16.3241 12.1634 16.3301 12.2028 16.3286 12.2436V15.5569C16.8034 15.3848 17.2176 15.0827 17.5238 14.6859C17.8315 14.2891 18.0164 13.8149 18.0593 13.3189C18.1022 12.8228 18.0016 12.3239 17.7679 11.8819C17.5342 11.4398 17.1777 11.0722 16.7399 10.8241L13.8834 9.19595C13.8804 9.195 13.877 9.19399 13.8731 9.19304H13.8627C13.8598 9.19399 13.8563 9.195 13.8523 9.19595C13.8494 9.1969 13.8464 9.19836 13.8435 9.20032L12.6512 9.88018L16.1008 11.8453H16.0978ZM17.2886 10.08H17.2871V10.0815L17.2886 10.08ZM17.2871 10.0786C17.3729 9.58842 17.3152 9.08359 17.12 8.62402C16.9262 8.1645 16.6023 7.76912 16.1881 7.48318C15.7739 7.19867 15.2857 7.03527 14.7813 7.01339C14.2754 6.99296 13.7755 7.11405 13.3376 7.36208L10.4812 8.98876C10.4782 8.99073 10.4758 8.99313 10.4738 8.99605L10.4678 9.00484C10.4669 9.00775 10.4659 9.01117 10.4649 9.01503C10.4639 9.01795 10.4634 9.02136 10.4634 9.02523V10.385L13.913 8.4198C13.9485 8.39936 13.987 8.38479 14.0254 8.37309C14.0654 8.36289 14.1053 8.35853 14.1453 8.35853C14.1867 8.35853 14.2266 8.36289 14.2665 8.37309C14.305 8.38479 14.342 8.39936 14.3775 8.4198L17.2043 10.0305C17.2295 10.045 17.2664 10.0655 17.2871 10.0786ZM9.81255 8.57299C9.81255 8.53362 9.81845 8.49418 9.82885 8.45481C9.83919 8.41689 9.85397 8.37897 9.87471 8.34391C9.89539 8.31036 9.91905 8.27826 9.94867 8.24908C9.97677 8.22135 10.0093 8.1966 10.0448 8.17761L12.8716 6.56841C12.8982 6.55236 12.9352 6.53194 12.9559 6.52172C12.5684 6.20222 12.095 5.99797 11.5935 5.93524C11.0921 5.87104 10.5832 5.94983 10.1261 6.16137C9.66761 6.37291 9.28005 6.70993 9.00934 7.1301C8.73862 7.55174 8.59514 8.03904 8.59514 8.53799V11.7914C8.59615 11.7953 8.59711 11.7987 8.59812 11.8016C8.59908 11.8045 8.60059 11.8074 8.60256 11.8103C8.60453 11.8132 8.607 11.8162 8.60992 11.8191C8.61189 11.821 8.61487 11.823 8.6188 11.825L9.81255 12.5048V8.57299ZM10.4605 12.8725L11.9974 13.7478L13.5343 12.8725V11.1232L11.9989 10.2478L10.4619 11.1232L10.4605 12.8725Z" fill="url(#paint2_linear_7552_6515)"/>
<defs>
<linearGradient id="paint0_linear_7552_6515" x1="20.9704" y1="1.01515" x2="7.83214" y2="17.5143" gradientUnits="userSpaceOnUse">
<stop stop-color="#272A35"/>
<stop offset="1" stop-color="#16181D"/>
</linearGradient>
<linearGradient id="paint1_linear_7552_6515" x1="22.8036" y1="1.758e-06" x2="-6.796e-07" y2="24" gradientUnits="userSpaceOnUse">
<stop stop-color="white"/>
<stop offset="1" stop-color="white" stop-opacity="0"/>
</linearGradient>
<linearGradient id="paint2_linear_7552_6515" x1="12.0288" y1="3.08991" x2="12.0288" y2="21.8531" gradientUnits="userSpaceOnUse">
<stop offset="0.295137" stop-color="#E5E5E5"/>
<stop offset="1" stop-color="#E5E5E5" stop-opacity="0.4"/>
</linearGradient>
</defs>
</svg>
