<svg width="16" height="16" viewBox="0 0 16 16" fill="none" xmlns="http://www.w3.org/2000/svg">
<path d="M14.6894 7.65714C14.8433 7.99562 14.9409 8.35745 14.9809 8.72657C15.0193 9.09568 15.0001 9.46916 14.9202 9.83245C14.8418 10.1957 14.7057 10.5444 14.5164 10.8654C14.3921 11.0798 14.2457 11.2811 14.0771 11.4664C13.9099 11.6502 13.7235 11.8166 13.5209 11.9625C13.3167 12.1084 13.0993 12.2309 12.8685 12.3316C12.6393 12.4308 12.3996 12.5067 12.1541 12.5563C12.0387 12.9093 11.8671 13.2434 11.6452 13.5439C11.4248 13.8445 11.157 14.1086 10.8523 14.326C10.5476 14.5448 10.2103 14.714 9.85234 14.8278C9.4944 14.9431 9.12016 14.9999 8.74295 14.9999C8.49291 15.0014 8.24147 14.9752 7.99593 14.9256C7.75185 14.8745 7.51222 14.7972 7.28292 14.6965C7.05362 14.5958 6.83618 14.4704 6.63352 14.3245C6.43238 14.1786 6.24597 14.0108 6.08029 13.8255C5.71049 13.9043 5.33182 13.9233 4.95758 13.8853C4.58334 13.8459 4.21647 13.7497 3.87179 13.5979C3.52863 13.4476 3.21058 13.2434 2.93101 12.994C2.65143 12.7445 2.41327 12.4527 2.22541 12.1317C2.09968 11.9172 1.99613 11.6911 1.91773 11.4562C1.83933 11.2213 1.78756 10.9792 1.76093 10.7326C1.7343 10.4875 1.73578 10.2395 1.76241 9.99293C1.78904 9.74782 1.84377 9.50563 1.92217 9.27072C1.6707 8.99503 1.4636 8.68131 1.30976 8.34289C1.1574 8.00296 1.05829 7.64258 1.01983 7.27347C0.979893 6.90435 1.0006 6.53087 1.079 6.16758C1.1574 5.80434 1.29349 5.45562 1.48283 5.13467C1.60709 4.92021 1.75353 4.71739 1.92069 4.53362C2.08784 4.34979 2.2757 4.18343 2.47836 4.03758C2.68101 3.89167 2.89994 3.76766 3.12923 3.66847C3.35997 3.56776 3.59961 3.49338 3.84515 3.44375C3.96053 3.08925 4.13216 2.75661 4.35253 2.45607C4.57446 2.15553 4.8422 1.89147 5.14692 1.67263C5.45163 1.45525 5.78889 1.28601 6.14689 1.17075C6.50483 1.05696 6.87906 0.998604 7.25628 1.00006C7.50626 0.998604 7.75775 1.02341 8.00329 1.07447C8.24889 1.12553 8.48853 1.20139 8.71777 1.30206C8.94706 1.40418 9.1645 1.52819 9.36716 1.67409C9.56982 1.82144 9.75618 1.98776 9.92186 2.17304C10.2902 2.09572 10.6689 2.07675 11.0432 2.11469C11.4174 2.15262 11.7828 2.25037 12.1274 2.40063C12.4706 2.55236 12.7886 2.75515 13.0682 3.00463C13.3478 3.25264 13.5859 3.543 13.7738 3.8654C13.8995 4.07841 14.0031 4.30453 14.0815 4.5409C14.1599 4.77575 14.2131 5.01795 14.2383 5.26451C14.2649 5.51107 14.2649 5.75909 14.2368 6.00565C14.2102 6.25221 14.1555 6.4944 14.0771 6.72926C14.33 7.005 14.5356 7.31721 14.6894 7.65714ZM9.76062 13.8853C10.0831 13.754 10.376 13.56 10.623 13.3164C10.8701 13.0727 11.0668 12.7839 11.2 12.4644C11.333 12.1463 11.4026 11.8049 11.4026 11.4606V8.20717C11.4016 8.20426 11.4006 8.20084 11.3996 8.19698C11.3986 8.19407 11.3972 8.19115 11.3952 8.18824C11.3932 8.18527 11.3908 8.18286 11.3878 8.1809C11.3849 8.17799 11.3819 8.17603 11.3789 8.17508L10.1852 7.49521V11.4256C10.1852 11.465 10.1793 11.5058 10.1689 11.5438C10.1586 11.5831 10.1438 11.6196 10.1231 11.6546C10.1024 11.6897 10.0787 11.7218 10.0491 11.7494C10.0203 11.7777 9.988 11.8023 9.95294 11.8224L7.12612 13.4316C7.10246 13.4462 7.0625 13.4666 7.04182 13.4783C7.15866 13.576 7.2859 13.6621 7.41903 13.738C7.55363 13.8138 7.69267 13.878 7.83762 13.9306C7.98261 13.9817 8.13199 14.021 8.28289 14.0473C8.43525 14.0735 8.58907 14.0867 8.74295 14.0867C9.092 14.0867 9.43814 14.0181 9.76062 13.8853ZM3.02863 11.6765C3.20466 11.9756 3.43691 12.2353 3.71353 12.4454C3.99161 12.6555 4.30672 12.8087 4.64398 12.8977C4.98124 12.9866 5.33328 13.01 5.67941 12.9648C6.02555 12.9195 6.35842 12.8087 6.66162 12.6365L9.51952 11.0098L9.52694 11.0025C9.5289 11.0006 9.53037 10.9977 9.53138 10.9937C9.53334 10.9908 9.53481 10.9879 9.53582 10.985V9.61362L6.08619 11.5817C6.05073 11.6021 6.01375 11.6167 5.97525 11.6284C5.93535 11.6386 5.89539 11.643 5.85397 11.643C5.81401 11.643 5.77411 11.6386 5.73415 11.6284C5.69571 11.6167 5.65721 11.6021 5.62175 11.5817L2.79491 9.97102C2.76977 9.95646 2.73279 9.93456 2.71208 9.9214C2.68545 10.0717 2.67214 10.2234 2.67214 10.3751C2.67214 10.5269 2.68693 10.6786 2.71356 10.8289C2.74019 10.9777 2.78161 11.125 2.83338 11.268C2.88663 11.411 2.95172 11.5481 3.02863 11.6794V11.6765ZM2.28606 5.59279C2.11151 5.89183 1.99908 6.22157 1.95323 6.56296C1.90737 6.90435 1.93104 7.25011 2.02128 7.58422C2.11151 7.91687 2.26683 8.22762 2.47984 8.5019C2.69285 8.77468 2.95763 9.00377 3.25937 9.17589L6.11581 10.8041C6.11879 10.805 6.12222 10.806 6.12615 10.807H6.13649C6.14048 10.807 6.14391 10.806 6.14689 10.8041C6.14981 10.8031 6.15279 10.8017 6.15577 10.7997L7.3539 10.1169L3.90433 8.15318C3.87033 8.13279 3.83779 8.10798 3.80817 8.08025C3.77951 8.05191 3.75467 8.02004 3.73421 7.98542C3.71499 7.95042 3.69875 7.91395 3.68835 7.87452C3.67801 7.8366 3.67211 7.79723 3.67357 7.75639V4.44316C3.52863 4.49564 3.38807 4.55983 3.25494 4.63573C3.12183 4.71302 2.99609 4.80057 2.87775 4.89831C2.7609 4.99605 2.65143 5.10404 2.55232 5.22076C2.45321 5.33598 2.36594 5.4615 2.28902 5.59279H2.28606ZM12.0978 7.84534C12.1333 7.86578 12.1659 7.88914 12.1955 7.91832C12.2236 7.94605 12.2487 7.97814 12.2695 8.01315C12.2887 8.04816 12.3049 8.08608 12.3153 8.124C12.3241 8.16343 12.3301 8.2028 12.3286 8.24364V11.5569C12.8034 11.3848 13.2176 11.0827 13.5238 10.6859C13.8315 10.2891 14.0164 9.81492 14.0593 9.31889C14.1022 8.82285 14.0016 8.3239 13.7679 7.88186C13.5342 7.43976 13.1777 7.07216 12.7399 6.82409L9.88342 5.19595C9.88044 5.195 9.87701 5.19399 9.87307 5.19304H9.86273C9.85976 5.19399 9.85633 5.195 9.85234 5.19595C9.84941 5.1969 9.84644 5.19836 9.84346 5.20032L8.65123 5.88018L12.1008 7.84534H12.0978ZM13.2886 6.08003H13.2871V6.08154L13.2886 6.08003ZM13.2871 6.07858C13.3729 5.58842 13.3152 5.08359 13.12 4.62402C12.9262 4.1645 12.6023 3.76912 12.1881 3.48318C11.7739 3.19867 11.2857 3.03527 10.7813 3.01339C10.2754 2.99296 9.77546 3.11405 9.3376 3.36208L6.48117 4.98876C6.47824 4.99073 6.47577 4.99313 6.4738 4.99605L6.46785 5.00484C6.46689 5.00775 6.46588 5.01117 6.46492 5.01503C6.46391 5.01795 6.46341 5.02136 6.46341 5.02523V6.38496L9.91298 4.4198C9.9485 4.39936 9.98699 4.38479 10.0254 4.37309C10.0654 4.36289 10.1053 4.35853 10.1453 4.35853C10.1867 4.35853 10.2266 4.36289 10.2665 4.37309C10.305 4.38479 10.342 4.39936 10.3775 4.4198L13.2043 6.03046C13.2295 6.04502 13.2664 6.06547 13.2871 6.07858ZM5.81255 4.57299C5.81255 4.53362 5.81845 4.49418 5.82885 4.45481C5.83919 4.41689 5.85397 4.37897 5.87471 4.34391C5.89539 4.31036 5.91905 4.27826 5.94867 4.24908C5.97677 4.22135 6.00931 4.1966 6.04483 4.17761L8.87164 2.56841C8.89823 2.55236 8.93521 2.53194 8.95594 2.52172C8.56839 2.20222 8.09501 1.99797 7.59354 1.93524C7.09212 1.87104 6.58323 1.94983 6.12615 2.16137C5.66761 2.37291 5.28005 2.70993 5.00934 3.1301C4.73862 3.55174 4.59514 4.03904 4.59514 4.53799V7.7914C4.59615 7.79527 4.59711 7.79868 4.59812 7.8016C4.59908 7.80451 4.60059 7.80742 4.60256 7.81033C4.60453 7.81325 4.607 7.81621 4.60992 7.81913C4.61189 7.82103 4.61487 7.82299 4.6188 7.82495L5.81255 8.50482V4.57299ZM6.46048 8.87248L7.99739 9.74782L9.5343 8.87248V7.12319L7.99885 6.24784L6.46195 7.12319L6.46048 8.87248Z" fill="url(#paint0_linear_7587_18117)"/>
<defs>
<linearGradient id="paint0_linear_7587_18117" x1="8.02885" y1="-0.91009" x2="8.02885" y2="17.8531" gradientUnits="userSpaceOnUse">
<stop offset="0.295137" stop-color="#E5E5E5"/>
<stop offset="1" stop-color="#E5E5E5" stop-opacity="0.4"/>
</linearGradient>
</defs>
</svg>
