<svg width="24" height="24" viewBox="0 0 24 24" fill="none" xmlns="http://www.w3.org/2000/svg">
<rect x="0.5" y="0.5" width="23" height="23" rx="3.5" fill="url(#paint0_linear_7552_6529)"/>
<rect x="0.5" y="0.5" width="23" height="23" rx="3.5" stroke="url(#paint1_linear_7552_6529)" style="mix-blend-mode:overlay"/>
<g clip-path="url(#clip0_7552_6529)">
<path fill-rule="evenodd" clip-rule="evenodd" d="M12.3831 7.50183H15.7914L12.7988 10.4944C12.6036 10.6897 12.6036 11.0062 12.7988 11.2015C12.9941 11.3968 13.3107 11.3968 13.5059 11.2015L16.4985 8.20893V11.6172C16.4985 11.8933 16.7224 12.1172 16.9985 12.1172C17.2747 12.1172 17.4985 11.8933 17.4985 11.6172V7.00202V7.00183C17.4985 6.93404 17.485 6.86939 17.4606 6.81044C17.4362 6.75147 17.4 6.69622 17.3521 6.64828C17.2616 6.5578 17.1366 6.50183 16.9985 6.50183H16.9983H12.3831C12.107 6.50183 11.8831 6.72569 11.8831 7.00183C11.8831 7.27797 12.107 7.50183 12.3831 7.50183ZM10.4926 12.8006C10.6879 12.6054 11.0045 12.6054 11.1997 12.8006C11.395 12.9959 11.395 13.3125 11.1997 13.5077L8.20745 16.5H11.6157C11.8919 16.5 12.1157 16.7239 12.1157 17C12.1157 17.2761 11.8919 17.5 11.6157 17.5H7.01755C6.88381 17.5047 6.74856 17.4559 6.64647 17.3539C6.54445 17.2518 6.49573 17.1167 6.50032 16.983V12.3846C6.50032 12.1085 6.72418 11.8846 7.00032 11.8846C7.27646 11.8846 7.50032 12.1085 7.50032 12.3846V15.7929L10.4926 12.8006Z" fill="url(#paint2_linear_7552_6529)"/>
</g>
<defs>
<linearGradient id="paint0_linear_7552_6529" x1="20.9704" y1="1.01515" x2="7.83214" y2="17.5143" gradientUnits="userSpaceOnUse">
<stop stop-color="#272A35"/>
<stop offset="1" stop-color="#16181D"/>
</linearGradient>
<linearGradient id="paint1_linear_7552_6529" x1="22.8036" y1="1.758e-06" x2="-6.796e-07" y2="24" gradientUnits="userSpaceOnUse">
<stop stop-color="white"/>
<stop offset="1" stop-color="white" stop-opacity="0"/>
</linearGradient>
<linearGradient id="paint2_linear_7552_6529" x1="11.9766" y1="5.00125" x2="11.9766" y2="19.7417" gradientUnits="userSpaceOnUse">
<stop offset="0.295137" stop-color="#E5E5E5"/>
<stop offset="1" stop-color="#E5E5E5" stop-opacity="0.4"/>
</linearGradient>
<clipPath id="clip0_7552_6529">
<rect width="16" height="16" fill="white" transform="translate(4 4)"/>
</clipPath>
</defs>
</svg>
