<svg width="16" height="16" viewBox="0 0 16 16" fill="none" xmlns="http://www.w3.org/2000/svg">
<g clip-path="url(#clip0_7587_18131)">
<path fill-rule="evenodd" clip-rule="evenodd" d="M8.38313 3.50183H11.7914L8.79882 6.4944C8.60355 6.68967 8.60355 7.00625 8.79881 7.20151C8.99407 7.39677 9.31066 7.39678 9.50592 7.20151L12.4985 4.20893V7.61719C12.4985 7.89333 12.7224 8.11719 12.9985 8.11719C13.2747 8.11719 13.4985 7.89333 13.4985 7.61719V3.00202V3.00183C13.4985 2.93404 13.485 2.86939 13.4606 2.81044C13.4362 2.75147 13.4 2.69622 13.3521 2.64828C13.2616 2.5578 13.1366 2.50183 12.9985 2.50183H12.9983H8.38313C8.10699 2.50183 7.88313 2.72569 7.88313 3.00183C7.88313 3.27797 8.10699 3.50183 8.38313 3.50183ZM6.49264 8.80062C6.6879 8.60536 7.00449 8.60536 7.19975 8.80062C7.39501 8.99589 7.39501 9.31247 7.19974 9.50773L4.20745 12.5H7.61572C7.89187 12.5 8.11572 12.7239 8.11572 13C8.11572 13.2761 7.89187 13.5 7.61572 13.5H3.01755C2.88381 13.5047 2.74856 13.4559 2.64647 13.3539C2.54445 13.2518 2.49573 13.1167 2.50032 12.983V8.38464C2.50032 8.1085 2.72418 7.88464 3.00032 7.88464C3.27646 7.88464 3.50032 8.1085 3.50032 8.38464V11.7929L6.49264 8.80062Z" fill="url(#paint0_linear_7587_18131)"/>
</g>
<defs>
<linearGradient id="paint0_linear_7587_18131" x1="7.97662" y1="1.00125" x2="7.97662" y2="15.7417" gradientUnits="userSpaceOnUse">
<stop offset="0.295137" stop-color="#E5E5E5"/>
<stop offset="1" stop-color="#E5E5E5" stop-opacity="0.4"/>
</linearGradient>
<clipPath id="clip0_7587_18131">
<rect width="16" height="16" fill="white"/>
</clipPath>
</defs>
</svg>
