<svg width="16" height="16" viewBox="0 0 16 16" fill="none" xmlns="http://www.w3.org/2000/svg">
<g clip-path="url(#clip0_7587_18140)">
<path fill-rule="evenodd" clip-rule="evenodd" d="M8.49998 2.00183C8.49998 1.72569 8.27612 1.50183 7.99998 1.50183C7.72384 1.50183 7.49998 1.72569 7.49998 2.00183V2.933C7.37807 2.94047 7.25714 2.9512 7.13777 2.9654C6.43894 3.04856 5.73793 3.25683 5.20098 3.67753C4.64254 4.11508 4.29685 4.7567 4.29685 5.6026C4.29685 6.5549 4.86254 7.14673 5.5545 7.53019C6.11633 7.84154 6.82534 8.05282 7.49998 8.24201V12.1286C6.54402 12.0893 5.61034 11.8652 5.02941 11.56C4.78495 11.4315 4.48266 11.5256 4.35423 11.77C4.22579 12.0145 4.31984 12.3168 4.5643 12.4452C5.30076 12.8322 6.39752 13.0894 7.49998 13.1291V14.0018C7.49998 14.278 7.72384 14.5018 7.99998 14.5018C8.27612 14.5018 8.49998 14.278 8.49998 14.0018V13.1023C8.58318 13.0945 8.66577 13.0852 8.74757 13.0744C9.48139 12.9774 10.2061 12.7524 10.7588 12.3269C11.3316 11.8859 11.6969 11.2442 11.6969 10.4026C11.6969 9.39022 11.1696 8.7245 10.4641 8.27828C9.89505 7.91834 9.18217 7.68214 8.49998 7.48462V3.94285C9.32484 4.00953 10.1025 4.21256 10.5718 4.4491C10.8184 4.57338 11.1191 4.47423 11.2434 4.22764C11.3676 3.98104 11.2685 3.68039 11.0219 3.5561C10.4119 3.24866 9.47466 3.0092 8.49998 2.94011V2.00183ZM7.49998 3.93515C7.41797 3.94109 7.33653 3.94881 7.25594 3.9584C6.65476 4.02994 6.15578 4.19983 5.81773 4.46469C5.50116 4.71273 5.29685 5.06411 5.29685 5.6026C5.29685 6.0603 5.53117 6.37398 6.03921 6.65551C6.43406 6.87433 6.9344 7.03847 7.49998 7.20198V3.93515ZM8.49998 8.52815V12.0972C8.539 12.0928 8.57786 12.0881 8.61653 12.083C9.25432 11.9987 9.787 11.813 10.1488 11.5345C10.4905 11.2715 10.6969 10.9158 10.6969 10.4026C10.6969 9.81698 10.4241 9.4362 9.92958 9.12342C9.54463 8.87994 9.0536 8.69753 8.49998 8.52815Z" fill="url(#paint0_linear_7587_18140)"/>
</g>
<defs>
<linearGradient id="paint0_linear_7587_18140" x1="8.01205" y1="-0.271824" x2="8.01205" y2="17.1512" gradientUnits="userSpaceOnUse">
<stop offset="0.295137" stop-color="#E5E5E5"/>
<stop offset="1" stop-color="#E5E5E5" stop-opacity="0.4"/>
</linearGradient>
<clipPath id="clip0_7587_18140">
<rect width="14" height="14" fill="white" transform="translate(1 1.00183)"/>
</clipPath>
</defs>
</svg>
