<svg width="24" height="24" viewBox="0 0 24 24" fill="none" xmlns="http://www.w3.org/2000/svg">
<rect x="0.5" y="0.5" width="23" height="23" rx="3.5" fill="url(#paint0_linear_7552_6538)"/>
<rect x="0.5" y="0.5" width="23" height="23" rx="3.5" stroke="url(#paint1_linear_7552_6538)" style="mix-blend-mode:overlay"/>
<g clip-path="url(#clip0_7552_6538)">
<path fill-rule="evenodd" clip-rule="evenodd" d="M12.5 6.00183C12.5 5.72569 12.2761 5.50183 12 5.50183C11.7238 5.50183 11.5 5.72569 11.5 6.00183V6.933C11.3781 6.94047 11.2571 6.9512 11.1378 6.9654C10.4389 7.04856 9.73793 7.25683 9.20098 7.67753C8.64254 8.11508 8.29685 8.7567 8.29685 9.6026C8.29685 10.5549 8.86254 11.1467 9.5545 11.5302C10.1163 11.8415 10.8253 12.0528 11.5 12.242V16.1286C10.544 16.0893 9.61034 15.8652 9.02941 15.56C8.78495 15.4315 8.48266 15.5256 8.35423 15.77C8.22579 16.0145 8.31984 16.3168 8.5643 16.4452C9.30076 16.8322 10.3975 17.0894 11.5 17.1291V18.0018C11.5 18.278 11.7238 18.5018 12 18.5018C12.2761 18.5018 12.5 18.278 12.5 18.0018V17.1023C12.5832 17.0945 12.6658 17.0852 12.7476 17.0744C13.4814 16.9774 14.2061 16.7524 14.7588 16.3269C15.3316 15.8859 15.6969 15.2442 15.6969 14.4026C15.6969 13.3902 15.1696 12.7245 14.4641 12.2783C13.895 11.9183 13.1822 11.6821 12.5 11.4846V7.94285C13.3248 8.00953 14.1025 8.21256 14.5718 8.4491C14.8184 8.57338 15.1191 8.47423 15.2434 8.22764C15.3676 7.98104 15.2685 7.68039 15.0219 7.5561C14.4119 7.24866 13.4747 7.0092 12.5 6.94011V6.00183ZM11.5 7.93515C11.418 7.94109 11.3365 7.94881 11.2559 7.9584C10.6548 8.02994 10.1558 8.19983 9.81773 8.46469C9.50116 8.71273 9.29685 9.06411 9.29685 9.6026C9.29685 10.0603 9.53117 10.374 10.0392 10.6555C10.4341 10.8743 10.9344 11.0385 11.5 11.202V7.93515ZM12.5 12.5282V16.0972C12.539 16.0928 12.5779 16.0881 12.6165 16.083C13.2543 15.9987 13.787 15.813 14.1488 15.5345C14.4905 15.2715 14.6969 14.9158 14.6969 14.4026C14.6969 13.817 14.4241 13.4362 13.9296 13.1234C13.5446 12.8799 13.0536 12.6975 12.5 12.5282Z" fill="url(#paint2_linear_7552_6538)"/>
</g>
<defs>
<linearGradient id="paint0_linear_7552_6538" x1="20.9704" y1="1.01515" x2="7.83214" y2="17.5143" gradientUnits="userSpaceOnUse">
<stop stop-color="#272A35"/>
<stop offset="1" stop-color="#16181D"/>
</linearGradient>
<linearGradient id="paint1_linear_7552_6538" x1="22.8036" y1="1.758e-06" x2="-6.796e-07" y2="24" gradientUnits="userSpaceOnUse">
<stop stop-color="white"/>
<stop offset="1" stop-color="white" stop-opacity="0"/>
</linearGradient>
<linearGradient id="paint2_linear_7552_6538" x1="12.0121" y1="3.72818" x2="12.0121" y2="21.1512" gradientUnits="userSpaceOnUse">
<stop offset="0.295137" stop-color="#E5E5E5"/>
<stop offset="1" stop-color="#E5E5E5" stop-opacity="0.4"/>
</linearGradient>
<clipPath id="clip0_7552_6538">
<rect width="14" height="14" fill="white" transform="translate(5 5.00183)"/>
</clipPath>
</defs>
</svg>
