<svg width="24" height="24" viewBox="0 0 24 24" fill="none" xmlns="http://www.w3.org/2000/svg">
<rect x="0.5" y="0.5" width="23" height="23" rx="3.5" fill="url(#paint0_linear_7552_6568)"/>
<rect x="0.5" y="0.5" width="23" height="23" rx="3.5" stroke="url(#paint1_linear_7552_6568)" style="mix-blend-mode:overlay"/>
<path fill-rule="evenodd" clip-rule="evenodd" d="M7.47206 7.05137C7.26338 7.21583 7.25 7.31709 7.25 7.33984C7.25 7.3626 7.26338 7.46386 7.47206 7.62832C7.6751 7.78833 7.99989 7.9543 8.4458 8.10294C9.33241 8.39847 10.589 8.58984 12 8.58984C13.411 8.58984 14.6676 8.39847 15.5542 8.10294C16.0001 7.9543 16.3249 7.78833 16.5279 7.62832C16.7366 7.46386 16.75 7.3626 16.75 7.33984C16.75 7.31709 16.7366 7.21583 16.5279 7.05137C16.3249 6.89136 16.0001 6.72539 15.5542 6.57675C14.6676 6.28121 13.411 6.08984 12 6.08984C10.589 6.08984 9.33241 6.28121 8.4458 6.57675C7.99989 6.72539 7.6751 6.89136 7.47206 7.05137ZM6.85308 6.26596C6.53043 6.52024 6.25 6.87935 6.25 7.33984V12.0156V16.6732C6.25 17.1349 6.52351 17.4971 6.84863 17.7561C7.17679 18.0175 7.62068 18.2282 8.12423 18.3948C9.13644 18.7296 10.5049 18.9232 12 18.9232C13.4951 18.9232 14.8636 18.7296 15.8758 18.3948C16.3793 18.2282 16.8232 18.0175 17.1514 17.7561C17.4765 17.4971 17.75 17.1349 17.75 16.6732V12.0156V7.33984C17.75 6.87935 17.4696 6.52024 17.1469 6.26596C16.8186 6.00724 16.3746 5.79611 15.8704 5.62807C14.8569 5.29022 13.4885 5.08984 12 5.08984C10.5115 5.08984 9.1431 5.29022 8.12958 5.62807C7.62543 5.79611 7.18137 6.00724 6.85308 6.26596ZM16.75 12.0156V8.67482C16.4912 8.81886 16.1931 8.94406 15.8704 9.05162C14.8569 9.38946 13.4885 9.58984 12 9.58984C10.5115 9.58984 9.1431 9.38946 8.12958 9.05162C7.8069 8.94406 7.50884 8.81886 7.25 8.67483V12.0156C7.25 12.0497 7.26815 12.1542 7.47168 12.3163C7.67217 12.476 7.9939 12.6408 8.43827 12.7878C9.32189 13.0801 10.5785 13.2656 12 13.2656C13.4215 13.2656 14.6781 13.0801 15.5617 12.7878C16.0061 12.6408 16.3278 12.476 16.5283 12.3163C16.7318 12.1542 16.75 12.0497 16.75 12.0156ZM7.25 13.364C7.50763 13.5074 7.80386 13.6312 8.12423 13.7372C9.13644 14.072 10.5049 14.2656 12 14.2656C13.4951 14.2656 14.8636 14.072 15.8758 13.7372C16.1961 13.6312 16.4924 13.5074 16.75 13.364V16.6732C16.75 16.7073 16.7318 16.8118 16.5283 16.9739C16.3278 17.1336 16.0061 17.2984 15.5617 17.4453C14.6781 17.7376 13.4215 17.9232 12 17.9232C10.5785 17.9232 9.32189 17.7376 8.43827 17.4453C7.9939 17.2984 7.67217 17.1336 7.47168 16.9739C7.26815 16.8118 7.25 16.7073 7.25 16.6732V13.364Z" fill="url(#paint2_linear_7552_6568)"/>
<defs>
<linearGradient id="paint0_linear_7552_6568" x1="20.9704" y1="1.01515" x2="7.83214" y2="17.5143" gradientUnits="userSpaceOnUse">
<stop stop-color="#272A35"/>
<stop offset="1" stop-color="#16181D"/>
</linearGradient>
<linearGradient id="paint1_linear_7552_6568" x1="22.8036" y1="1.758e-06" x2="-6.796e-07" y2="24" gradientUnits="userSpaceOnUse">
<stop stop-color="white"/>
<stop offset="1" stop-color="white" stop-opacity="0"/>
</linearGradient>
<linearGradient id="paint2_linear_7552_6568" x1="12.0237" y1="3.20249" x2="12.0237" y2="21.7424" gradientUnits="userSpaceOnUse">
<stop offset="0.295137" stop-color="#E5E5E5"/>
<stop offset="1" stop-color="#E5E5E5" stop-opacity="0.4"/>
</linearGradient>
</defs>
</svg>
