<svg width="16" height="16" viewBox="0 0 16 16" fill="none" xmlns="http://www.w3.org/2000/svg">
<path fill-rule="evenodd" clip-rule="evenodd" d="M3.47206 3.05137C3.26338 3.21583 3.25 3.31709 3.25 3.33984C3.25 3.3626 3.26338 3.46386 3.47206 3.62832C3.6751 3.78833 3.99989 3.9543 4.4458 4.10294C5.33241 4.39847 6.58904 4.58984 8 4.58984C9.41096 4.58984 10.6676 4.39847 11.5542 4.10294C12.0001 3.9543 12.3249 3.78833 12.5279 3.62832C12.7366 3.46386 12.75 3.3626 12.75 3.33984C12.75 3.31709 12.7366 3.21583 12.5279 3.05137C12.3249 2.89136 12.0001 2.72539 11.5542 2.57675C10.6676 2.28121 9.41096 2.08984 8 2.08984C6.58904 2.08984 5.33241 2.28121 4.4458 2.57675C3.99989 2.72539 3.6751 2.89136 3.47206 3.05137ZM2.85308 2.26596C2.53043 2.52024 2.25 2.87935 2.25 3.33984V8.01562V12.6732C2.25 13.1349 2.52351 13.4971 2.84863 13.7561C3.17679 14.0175 3.62068 14.2282 4.12423 14.3948C5.13644 14.7296 6.50487 14.9232 8 14.9232C9.49513 14.9232 10.8636 14.7296 11.8758 14.3948C12.3793 14.2282 12.8232 14.0175 13.1514 13.7561C13.4765 13.4971 13.75 13.1349 13.75 12.6732V8.01562V3.33984C13.75 2.87935 13.4696 2.52024 13.1469 2.26596C12.8186 2.00724 12.3746 1.79611 11.8704 1.62807C10.8569 1.29022 9.48853 1.08984 8 1.08984C6.51147 1.08984 5.1431 1.29022 4.12958 1.62807C3.62543 1.79611 3.18137 2.00724 2.85308 2.26596ZM12.75 8.01562V4.67482C12.4912 4.81886 12.1931 4.94406 11.8704 5.05162C10.8569 5.38946 9.48853 5.58984 8 5.58984C6.51147 5.58984 5.1431 5.38946 4.12958 5.05162C3.8069 4.94406 3.50884 4.81886 3.25 4.67483V8.01562C3.25 8.04975 3.26815 8.15421 3.47168 8.31633C3.67217 8.47603 3.9939 8.64081 4.43827 8.78779C5.32189 9.08007 6.57846 9.26562 8 9.26562C9.42154 9.26562 10.6781 9.08007 11.5617 8.78779C12.0061 8.64081 12.3278 8.47603 12.5283 8.31633C12.7318 8.15421 12.75 8.04975 12.75 8.01562ZM3.25 9.36398C3.50763 9.50738 3.80386 9.63124 4.12423 9.73721C5.13644 10.072 6.50487 10.2656 8 10.2656C9.49513 10.2656 10.8636 10.072 11.8758 9.73721C12.1961 9.63124 12.4924 9.50738 12.75 9.36398V12.6732C12.75 12.7073 12.7318 12.8118 12.5283 12.9739C12.3278 13.1336 12.0061 13.2984 11.5617 13.4453C10.6781 13.7376 9.42154 13.9232 8 13.9232C6.57846 13.9232 5.32189 13.7376 4.43827 13.4453C3.9939 13.2984 3.67217 13.1336 3.47168 12.9739C3.26815 12.8118 3.25 12.7073 3.25 12.6732V9.36398Z" fill="url(#paint0_linear_7587_18170)"/>
<defs>
<linearGradient id="paint0_linear_7587_18170" x1="8.0237" y1="-0.797508" x2="8.0237" y2="17.7424" gradientUnits="userSpaceOnUse">
<stop offset="0.295137" stop-color="#E5E5E5"/>
<stop offset="1" stop-color="#E5E5E5" stop-opacity="0.4"/>
</linearGradient>
</defs>
</svg>
