<svg width="24" height="24" viewBox="0 0 24 24" fill="none" xmlns="http://www.w3.org/2000/svg">
<rect x="0.5" y="0.5" width="23" height="23" rx="3.5" fill="url(#paint0_linear_7552_6507)"/>
<rect x="0.5" y="0.5" width="23" height="23" rx="3.5" stroke="url(#paint1_linear_7552_6507)" style="mix-blend-mode:overlay"/>
<path fill-rule="evenodd" clip-rule="evenodd" d="M5.43249 15.9308L6.76863 9.24973C6.92121 8.48687 7.59121 7.93753 8.36904 7.93753C8.8017 7.93753 9.21692 8.10953 9.52308 8.41564L10.2371 9.13001C10.3443 9.23723 10.4897 9.29747 10.6413 9.29747H13.3605C13.512 9.29747 13.6574 9.23727 13.7645 9.1301L14.4786 8.41598C14.7848 8.10981 15.2 7.93787 15.6327 7.93787C16.4106 7.93787 17.0805 8.48699 17.2331 9.24973L18.5692 15.9304C18.5759 15.9637 18.5705 15.983 18.5646 15.9957C18.5572 16.0116 18.5429 16.0295 18.5208 16.0434C18.4987 16.0573 18.4764 16.0626 18.4589 16.0623C18.445 16.0622 18.4252 16.0586 18.3981 16.0384L16.363 14.5089C16.5491 14.212 16.6567 13.8609 16.6567 13.4846C16.6567 12.4182 15.7922 11.5536 14.7257 11.5536C13.8574 11.5536 13.123 12.1267 12.88 12.9152H11.125C10.882 12.1267 10.1476 11.5536 9.27929 11.5536C8.21282 11.5536 7.34827 12.4182 7.34827 13.4846C7.34827 13.8612 7.45605 14.2126 7.64245 14.5096L5.60387 16.0385C5.57668 16.0589 5.5569 16.0623 5.54288 16.0625C5.5253 16.0628 5.50297 16.0575 5.48089 16.0436C5.4588 16.0297 5.44443 16.0118 5.4371 15.9959C5.43127 15.9833 5.42584 15.964 5.43249 15.9308ZM12.8813 14.0581H11.1237C10.8795 14.8445 10.1461 15.4157 9.27929 15.4157C9.01608 15.4157 8.76517 15.363 8.53651 15.2676L6.28943 16.9529C5.37084 17.6414 4.08653 16.8332 4.31182 15.7067L5.64797 9.0256C5.90735 7.72867 7.0463 6.79468 8.36904 6.79468C9.1049 6.79468 9.81073 7.08705 10.3312 7.60751L10.878 8.15461H13.1238L13.6705 7.60785C14.191 7.08739 14.8968 6.79502 15.6327 6.79502C16.9553 6.79502 18.0943 7.72854 18.3538 9.02559L19.6899 15.7063C19.9151 16.8322 18.6314 17.6421 17.7122 16.9526L15.4696 15.2672C15.2407 15.3628 14.9894 15.4157 14.7257 15.4157C13.8589 15.4157 13.1255 14.8445 12.8813 14.0581ZM15.229 14.0912C15.1969 14.1097 15.1663 14.1316 15.1378 14.1566C15.0179 14.2303 14.8768 14.2728 14.7257 14.2728C14.2904 14.2728 13.9376 13.9199 13.9376 13.4846C13.9376 13.0493 14.2904 12.6965 14.7257 12.6965C15.161 12.6965 15.5139 13.0493 15.5139 13.4846C15.5139 13.7286 15.4031 13.9466 15.229 14.0912ZM9.27929 14.2728C9.12075 14.2728 8.97315 14.226 8.84954 14.1454C8.83136 14.1306 8.81241 14.1171 8.79282 14.1048C8.60912 13.9605 8.49112 13.7363 8.49112 13.4846C8.49112 13.0493 8.844 12.6965 9.27929 12.6965C9.70921 12.6965 10.0587 13.0407 10.0673 13.4685L10.067 13.4866L10.0672 13.5031C10.0575 13.9298 9.70843 14.2728 9.27929 14.2728Z" fill="url(#paint2_linear_7552_6507)"/>
<defs>
<linearGradient id="paint0_linear_7552_6507" x1="20.9704" y1="1.01515" x2="7.83214" y2="17.5143" gradientUnits="userSpaceOnUse">
<stop stop-color="#272A35"/>
<stop offset="1" stop-color="#16181D"/>
</linearGradient>
<linearGradient id="paint1_linear_7552_6507" x1="22.8036" y1="1.758e-06" x2="-6.796e-07" y2="24" gradientUnits="userSpaceOnUse">
<stop stop-color="white"/>
<stop offset="1" stop-color="white" stop-opacity="0"/>
</linearGradient>
<linearGradient id="paint2_linear_7552_6507" x1="12.0326" y1="5.37405" x2="12.0326" y2="19.3292" gradientUnits="userSpaceOnUse">
<stop offset="0.295137" stop-color="#E5E5E5"/>
<stop offset="1" stop-color="#E5E5E5" stop-opacity="0.4"/>
</linearGradient>
</defs>
</svg>
