<svg width="16" height="16" viewBox="0 0 16 16" fill="none" xmlns="http://www.w3.org/2000/svg">
<path fill-rule="evenodd" clip-rule="evenodd" d="M1.43249 11.9307L2.76863 5.2497C2.92121 4.48684 3.59121 3.9375 4.36904 3.9375C4.8017 3.9375 5.21692 4.1095 5.52308 4.41561L6.23711 5.12998C6.34428 5.2372 6.48967 5.29744 6.64126 5.29744H9.36046C9.51201 5.29744 9.65735 5.23724 9.76452 5.13007L10.4786 4.41595C10.7848 4.10978 11.2 3.93784 11.6327 3.93784C12.4106 3.93784 13.0805 4.48696 13.2331 5.2497L14.5692 11.9304C14.5759 11.9637 14.5705 11.983 14.5646 11.9957C14.5572 12.0116 14.5429 12.0295 14.5208 12.0434C14.4987 12.0573 14.4764 12.0626 14.4589 12.0623C14.445 12.0621 14.4252 12.0586 14.3981 12.0383L12.363 10.5089C12.5491 10.212 12.6567 9.86087 12.6567 9.4846C12.6567 8.41813 11.7922 7.55358 10.7257 7.55358C9.85744 7.55358 9.12301 8.12664 8.88002 8.91518H7.12499C6.882 8.12664 6.14757 7.55358 5.27929 7.55358C4.21282 7.55358 3.34827 8.41813 3.34827 9.4846C3.34827 9.86116 3.45605 10.2125 3.64245 10.5096L1.60387 12.0385C1.57668 12.0589 1.5569 12.0623 1.54288 12.0625C1.5253 12.0628 1.50297 12.0575 1.48089 12.0435C1.4588 12.0296 1.44443 12.0118 1.4371 11.9959C1.43127 11.9833 1.42584 11.964 1.43249 11.9307ZM8.88126 10.058H7.12375C6.8795 10.8445 6.14609 11.4156 5.27929 11.4156C5.01608 11.4156 4.76517 11.363 4.53651 11.2676L2.28943 12.9529C1.37084 13.6414 0.086527 12.8331 0.311823 11.7066L1.64797 5.02557C1.90735 3.72864 3.0463 2.79465 4.36904 2.79465C5.1049 2.79465 5.81073 3.08702 6.3312 3.60748L6.87804 4.15458H9.12376L9.67052 3.60782C10.191 3.08736 10.8968 2.79499 11.6327 2.79499C12.9553 2.79499 14.0943 3.72851 14.3538 5.02556L15.6899 11.7063C15.9151 12.8322 14.6314 13.6421 13.7122 12.9525L11.4696 11.2671C11.2407 11.3628 10.9894 11.4156 10.7257 11.4156C9.85892 11.4156 9.12551 10.8445 8.88126 10.058ZM11.229 10.0912C11.1969 10.1097 11.1663 10.1315 11.1378 10.1566C11.0179 10.2303 10.8768 10.2728 10.7257 10.2728C10.2904 10.2728 9.93755 9.91989 9.93755 9.4846C9.93755 9.04931 10.2904 8.69643 10.7257 8.69643C11.161 8.69643 11.5139 9.04931 11.5139 9.4846C11.5139 9.72854 11.4031 9.9466 11.229 10.0912ZM5.27929 10.2728C5.12075 10.2728 4.97315 10.226 4.84954 10.1454C4.83136 10.1306 4.81241 10.1171 4.79282 10.1048C4.60912 9.96047 4.49112 9.73632 4.49112 9.4846C4.49112 9.04931 4.844 8.69643 5.27929 8.69643C5.70921 8.69643 6.05873 9.04064 6.0673 9.4685L6.06702 9.48661L6.06725 9.50303C6.05746 9.92981 5.70843 10.2728 5.27929 10.2728Z" fill="url(#paint0_linear_7587_18109)"/>
<defs>
<linearGradient id="paint0_linear_7587_18109" x1="8.03265" y1="1.37402" x2="8.03265" y2="15.3292" gradientUnits="userSpaceOnUse">
<stop offset="0.295137" stop-color="#E5E5E5"/>
<stop offset="1" stop-color="#E5E5E5" stop-opacity="0.4"/>
</linearGradient>
</defs>
</svg>
