<svg width="16" height="16" viewBox="0 0 16 16" fill="none" xmlns="http://www.w3.org/2000/svg">
<path fill-rule="evenodd" clip-rule="evenodd" d="M1.71216 1.78394C1.43602 1.78394 1.21216 2.00779 1.21216 2.28394V12.5755C1.21216 13.0114 1.38531 13.4294 1.69353 13.7377C2.00175 14.0459 2.41978 14.219 2.85567 14.219H13.1473C13.5831 14.219 14.0012 14.0459 14.3094 13.7377C14.6176 13.4294 14.7908 13.0114 14.7908 12.5755V4.57096C14.7908 4.29481 14.5669 4.07096 14.2908 4.07096H8.25146L6.6862 1.98394C6.59177 1.85803 6.44358 1.78394 6.2862 1.78394H1.71216ZM2.21216 12.5755V2.78394H6.0362L7.60146 4.87096C7.69589 4.99686 7.84408 5.07096 8.00146 5.07096H13.7908V12.5755C13.7908 12.7462 13.723 12.9099 13.6023 13.0306C13.4816 13.1512 13.3179 13.219 13.1473 13.219H2.85567C2.685 13.219 2.52132 13.1512 2.40064 13.0306C2.27996 12.9099 2.21216 12.7462 2.21216 12.5755ZM6.63877 7.07874C6.83403 7.274 6.83403 7.59058 6.63877 7.78585L5.27705 9.14756L6.63877 10.5093C6.83403 10.7045 6.83403 11.0211 6.63877 11.2164C6.4435 11.4116 6.12692 11.4116 5.93166 11.2164L4.21639 9.50111C4.02113 9.30585 4.02113 8.98927 4.21639 8.794L5.93166 7.07874C6.12692 6.88348 6.4435 6.88348 6.63877 7.07874ZM9.36475 7.07874C9.56001 6.88348 9.8766 6.88348 10.0719 7.07874L11.7871 8.794C11.8809 8.88777 11.9336 9.01495 11.9336 9.14756C11.9336 9.28017 11.8809 9.40734 11.7871 9.50111L10.0719 11.2164C9.8766 11.4116 9.56001 11.4116 9.36475 11.2164C9.16949 11.0211 9.16949 10.7045 9.36475 10.5093L10.7265 9.14756L9.36475 7.78585C9.16949 7.59058 9.16949 7.274 9.36475 7.07874Z" fill="url(#paint0_linear_7587_18177)"/>
<defs>
<linearGradient id="paint0_linear_7587_18177" x1="8.02944" y1="0.0873522" x2="8.02944" y2="16.7533" gradientUnits="userSpaceOnUse">
<stop offset="0.295137" stop-color="#E5E5E5"/>
<stop offset="1" stop-color="#E5E5E5" stop-opacity="0.4"/>
</linearGradient>
</defs>
</svg>
