<svg width="24" height="24" viewBox="0 0 24 24" fill="none" xmlns="http://www.w3.org/2000/svg">
<rect x="0.5" y="0.5" width="23" height="23" rx="3.5" fill="url(#paint0_linear_7552_6575)"/>
<rect x="0.5" y="0.5" width="23" height="23" rx="3.5" stroke="url(#paint1_linear_7552_6575)" style="mix-blend-mode:overlay"/>
<path fill-rule="evenodd" clip-rule="evenodd" d="M5.71216 5.78397C5.43602 5.78397 5.21216 6.00782 5.21216 6.28397V16.5756C5.21216 17.0114 5.38531 17.4295 5.69353 17.7377C6.00175 18.0459 6.41978 18.2191 6.85567 18.2191H17.1473C17.5831 18.2191 18.0012 18.0459 18.3094 17.7377C18.6176 17.4295 18.7908 17.0114 18.7908 16.5756V8.57099C18.7908 8.29484 18.5669 8.07099 18.2908 8.07099H12.2515L10.6862 5.98397C10.5918 5.85806 10.4436 5.78397 10.2862 5.78397H5.71216ZM6.21216 16.5756V6.78397H10.0362L11.6015 8.87099C11.6959 8.99689 11.8441 9.07099 12.0015 9.07099H17.7908V16.5756C17.7908 16.7462 17.723 16.9099 17.6023 17.0306C17.4816 17.1513 17.3179 17.2191 17.1473 17.2191H6.85567C6.685 17.2191 6.52132 17.1513 6.40064 17.0306C6.27996 16.9099 6.21216 16.7462 6.21216 16.5756ZM10.6388 11.0788C10.834 11.274 10.834 11.5906 10.6388 11.7859L9.27705 13.1476L10.6388 14.5093C10.834 14.7046 10.834 15.0211 10.6388 15.2164C10.4435 15.4117 10.1269 15.4117 9.93166 15.2164L8.21639 13.5011C8.02113 13.3059 8.02113 12.9893 8.21639 12.794L9.93166 11.0788C10.1269 10.8835 10.4435 10.8835 10.6388 11.0788ZM13.3648 11.0788C13.56 10.8835 13.8766 10.8835 14.0719 11.0788L15.7871 12.794C15.8809 12.8878 15.9336 13.015 15.9336 13.1476C15.9336 13.2802 15.8809 13.4074 15.7871 13.5011L14.0719 15.2164C13.8766 15.4117 13.56 15.4117 13.3648 15.2164C13.1695 15.0211 13.1695 14.7046 13.3648 14.5093L14.7265 13.1476L13.3648 11.7859C13.1695 11.5906 13.1695 11.274 13.3648 11.0788Z" fill="url(#paint2_linear_7552_6575)"/>
<defs>
<linearGradient id="paint0_linear_7552_6575" x1="20.9704" y1="1.01515" x2="7.83214" y2="17.5143" gradientUnits="userSpaceOnUse">
<stop stop-color="#272A35"/>
<stop offset="1" stop-color="#16181D"/>
</linearGradient>
<linearGradient id="paint1_linear_7552_6575" x1="22.8036" y1="1.758e-06" x2="-6.796e-07" y2="24" gradientUnits="userSpaceOnUse">
<stop stop-color="white"/>
<stop offset="1" stop-color="white" stop-opacity="0"/>
</linearGradient>
<linearGradient id="paint2_linear_7552_6575" x1="12.0294" y1="4.08738" x2="12.0294" y2="20.7533" gradientUnits="userSpaceOnUse">
<stop offset="0.295137" stop-color="#E5E5E5"/>
<stop offset="1" stop-color="#E5E5E5" stop-opacity="0.4"/>
</linearGradient>
</defs>
</svg>
