<svg width="16" height="16" viewBox="0 0 16 16" fill="none" xmlns="http://www.w3.org/2000/svg">
<g clip-path="url(#clip0_7587_18148)">
<path d="M4.81859 13.0014C5.82297 13.0014 6.63718 12.1872 6.63718 11.1828C6.63718 10.1785 5.82297 9.36426 4.81859 9.36426C3.81421 9.36426 3 10.1785 3 11.1828C3 12.1872 3.81421 13.0014 4.81859 13.0014Z" stroke="#C9CBCF" stroke-linecap="round" stroke-linejoin="round"/>
<path d="M4.8125 5.7269V2.99902C6.98294 2.99902 9.06448 3.86123 10.5992 5.39596C12.1339 6.93069 12.9961 9.01223 12.9961 11.1827H10.2683" stroke="#C9CBCF" stroke-linecap="round" stroke-linejoin="round"/>
<path d="M6.10938 9.89636L8.46081 7.54492" stroke="#C9CBCF" stroke-linecap="round" stroke-linejoin="round"/>
<path fill-rule="evenodd" clip-rule="evenodd" d="M4.45895 2.64645C4.55271 2.55268 4.67989 2.5 4.8125 2.5C7.11555 2.5 9.32427 3.41488 10.9528 5.04338C12.5813 6.67188 13.4961 8.8806 13.4961 11.1836C13.4961 11.4598 13.2723 11.6836 12.9961 11.6836H10.2683C9.99212 11.6836 9.76826 11.4598 9.76826 11.1836C9.76826 10.9075 9.99212 10.6836 10.2683 10.6836H12.4799C12.359 8.82836 11.5683 7.07314 10.2457 5.75049C8.923 4.42783 7.16778 3.63718 5.3125 3.51627V5.72788C5.3125 6.00402 5.08864 6.22788 4.8125 6.22788C4.53636 6.22788 4.3125 6.00402 4.3125 5.72788V3C4.3125 2.86739 4.36518 2.74021 4.45895 2.64645ZM4.81859 9.86328C4.09035 9.86328 3.5 10.4536 3.5 11.1819C3.5 11.9101 4.09035 12.5005 4.81859 12.5005C5.54682 12.5005 6.13718 11.9101 6.13718 11.1819C6.13718 10.4536 5.54682 9.86328 4.81859 9.86328ZM2.5 11.1819C2.5 9.90135 3.53807 8.86328 4.81859 8.86328C5.27974 8.86328 5.70946 8.99791 6.07056 9.23002L8.10726 7.19332C8.30252 6.99806 8.6191 6.99806 8.81436 7.19332C9.00962 7.38858 9.00962 7.70517 8.81436 7.90043L6.77608 9.93871C7.00472 10.298 7.13718 10.7245 7.13718 11.1819C7.13718 12.4624 6.09911 13.5005 4.81859 13.5005C3.53807 13.5005 2.5 12.4624 2.5 11.1819Z" fill="url(#paint0_linear_7587_18148)"/>
</g>
<defs>
<linearGradient id="paint0_linear_7587_18148" x1="8.02073" y1="0.999152" x2="8.02073" y2="15.7423" gradientUnits="userSpaceOnUse">
<stop offset="0.295137" stop-color="#E5E5E5"/>
<stop offset="1" stop-color="#E5E5E5" stop-opacity="0.4"/>
</linearGradient>
<clipPath id="clip0_7587_18148">
<rect width="16" height="16" fill="white"/>
</clipPath>
</defs>
</svg>
