<svg width="24" height="24" viewBox="0 0 24 24" fill="none" xmlns="http://www.w3.org/2000/svg">
<rect x="0.5" y="0.5" width="23" height="23" rx="3.5" fill="url(#paint0_linear_7552_6546)"/>
<rect x="0.5" y="0.5" width="23" height="23" rx="3.5" stroke="url(#paint1_linear_7552_6546)" style="mix-blend-mode:overlay"/>
<g clip-path="url(#clip0_7552_6546)">
<path d="M8.81859 17.0014C9.82297 17.0014 10.6372 16.1872 10.6372 15.1828C10.6372 14.1785 9.82297 13.3643 8.81859 13.3643C7.81421 13.3643 7 14.1785 7 15.1828C7 16.1872 7.81421 17.0014 8.81859 17.0014Z" stroke="#C9CBCF" stroke-linecap="round" stroke-linejoin="round"/>
<path d="M8.8125 9.7269V6.99902C10.9829 6.99902 13.0645 7.86123 14.5992 9.39596C16.1339 10.9307 16.9961 13.0122 16.9961 15.1827H14.2683" stroke="#C9CBCF" stroke-linecap="round" stroke-linejoin="round"/>
<path d="M10.1094 13.8964L12.4608 11.5449" stroke="#C9CBCF" stroke-linecap="round" stroke-linejoin="round"/>
<path fill-rule="evenodd" clip-rule="evenodd" d="M8.45895 6.64645C8.55271 6.55268 8.67989 6.5 8.8125 6.5C11.1155 6.5 13.3243 7.41488 14.9528 9.04338C16.5813 10.6719 17.4961 12.8806 17.4961 15.1836C17.4961 15.4598 17.2723 15.6836 16.9961 15.6836H14.2683C13.9921 15.6836 13.7683 15.4598 13.7683 15.1836C13.7683 14.9075 13.9921 14.6836 14.2683 14.6836H16.4799C16.359 12.8284 15.5683 11.0731 14.2457 9.75049C12.923 8.42783 11.1678 7.63718 9.3125 7.51627V9.72788C9.3125 10.004 9.08864 10.2279 8.8125 10.2279C8.53636 10.2279 8.3125 10.004 8.3125 9.72788V7C8.3125 6.86739 8.36518 6.74021 8.45895 6.64645ZM8.81859 13.8633C8.09035 13.8633 7.5 14.4536 7.5 15.1819C7.5 15.9101 8.09035 16.5005 8.81859 16.5005C9.54682 16.5005 10.1372 15.9101 10.1372 15.1819C10.1372 14.4536 9.54682 13.8633 8.81859 13.8633ZM6.5 15.1819C6.5 13.9013 7.53807 12.8633 8.81859 12.8633C9.27974 12.8633 9.70946 12.9979 10.0706 13.23L12.1073 11.1933C12.3025 10.9981 12.6191 10.9981 12.8144 11.1933C13.0096 11.3886 13.0096 11.7052 12.8144 11.9004L10.7761 13.9387C11.0047 14.298 11.1372 14.7245 11.1372 15.1819C11.1372 16.4624 10.0991 17.5005 8.81859 17.5005C7.53807 17.5005 6.5 16.4624 6.5 15.1819Z" fill="url(#paint2_linear_7552_6546)"/>
</g>
<defs>
<linearGradient id="paint0_linear_7552_6546" x1="20.9704" y1="1.01515" x2="7.83214" y2="17.5143" gradientUnits="userSpaceOnUse">
<stop stop-color="#272A35"/>
<stop offset="1" stop-color="#16181D"/>
</linearGradient>
<linearGradient id="paint1_linear_7552_6546" x1="22.8036" y1="1.758e-06" x2="-6.796e-07" y2="24" gradientUnits="userSpaceOnUse">
<stop stop-color="white"/>
<stop offset="1" stop-color="white" stop-opacity="0"/>
</linearGradient>
<linearGradient id="paint2_linear_7552_6546" x1="12.0207" y1="4.99915" x2="12.0207" y2="19.7423" gradientUnits="userSpaceOnUse">
<stop offset="0.295137" stop-color="#E5E5E5"/>
<stop offset="1" stop-color="#E5E5E5" stop-opacity="0.4"/>
</linearGradient>
<clipPath id="clip0_7552_6546">
<rect width="16" height="16" fill="white" transform="translate(4 4)"/>
</clipPath>
</defs>
</svg>
