<svg width="24" height="24" viewBox="0 0 24 24" fill="none" xmlns="http://www.w3.org/2000/svg">
<rect x="0.5" y="0.5" width="23" height="23" rx="3.5" fill="url(#paint0_linear_7552_6519)"/>
<rect x="0.5" y="0.5" width="23" height="23" rx="3.5" stroke="url(#paint1_linear_7552_6519)" style="mix-blend-mode:overlay"/>
<g clip-path="url(#clip0_7552_6519)">
<path fill-rule="evenodd" clip-rule="evenodd" d="M12 6.09973C8.74138 6.09973 6.09973 8.74138 6.09973 12C6.09973 15.2586 8.74138 17.9003 12 17.9003C15.2586 17.9003 17.9003 15.2586 17.9003 12C17.9003 8.74138 15.2586 6.09973 12 6.09973ZM5.09973 12C5.09973 8.18909 8.18909 5.09973 12 5.09973C15.8109 5.09973 18.9003 8.18909 18.9003 12C18.9003 15.8109 15.8109 18.9003 12 18.9003C8.18909 18.9003 5.09973 15.8109 5.09973 12ZM11.9957 8.14565C11.4667 8.14565 10.9346 8.25965 10.4813 8.44854C10.2264 8.55475 9.93362 8.43421 9.82741 8.17931C9.7212 7.92441 9.84174 7.63167 10.0966 7.52546C10.6673 7.28767 11.3299 7.14565 11.9957 7.14565C14.6613 7.14565 16.8479 9.33226 16.8479 11.9978C16.8479 12.274 16.624 12.4978 16.3479 12.4978C16.0717 12.4978 15.8479 12.274 15.8479 11.9978C15.8479 9.88455 14.109 8.14565 11.9957 8.14565ZM8.17947 9.82741C8.43437 9.93362 8.55491 10.2264 8.4487 10.4813C8.25971 10.9348 8.14565 11.4673 8.14565 11.9965C8.14565 12.2726 7.92179 12.4965 7.64565 12.4965C7.36951 12.4965 7.14565 12.2726 7.14565 11.9965C7.14565 11.3304 7.28773 10.6676 7.52562 10.0966C7.63183 9.84174 7.92457 9.7212 8.17947 9.82741ZM9.10416 8.39705C8.9089 8.20179 8.59231 8.20179 8.39705 8.39705C8.20179 8.59231 8.20179 8.9089 8.39705 9.10416L10.4328 11.1399C10.2936 11.3936 10.2145 11.6848 10.2145 11.9946C10.2145 12.9777 11.0115 13.7746 11.9946 13.7746C12.9777 13.7746 13.7746 12.9777 13.7746 11.9946C13.7746 11.0115 12.9777 10.2145 11.9946 10.2145C11.6848 10.2145 11.3936 10.2936 11.1399 10.4328L9.10416 8.39705ZM11.3876 11.5046C11.4098 11.4888 11.431 11.4709 11.4509 11.4509C11.4709 11.431 11.4888 11.4098 11.5046 11.3876C11.6386 11.2793 11.809 11.2145 11.9946 11.2145C12.4254 11.2145 12.7746 11.5638 12.7746 11.9946C12.7746 12.4254 12.4254 12.7746 11.9946 12.7746C11.5638 12.7746 11.2145 12.4254 11.2145 11.9946C11.2145 11.809 11.2793 11.6386 11.3876 11.5046Z" fill="url(#paint2_linear_7552_6519)"/>
</g>
<defs>
<linearGradient id="paint0_linear_7552_6519" x1="20.9704" y1="1.01515" x2="7.83214" y2="17.5143" gradientUnits="userSpaceOnUse">
<stop stop-color="#272A35"/>
<stop offset="1" stop-color="#16181D"/>
</linearGradient>
<linearGradient id="paint1_linear_7552_6519" x1="22.8036" y1="1.758e-06" x2="-6.796e-07" y2="24" gradientUnits="userSpaceOnUse">
<stop stop-color="white"/>
<stop offset="1" stop-color="white" stop-opacity="0"/>
</linearGradient>
<linearGradient id="paint2_linear_7552_6519" x1="12.0285" y1="3.21685" x2="12.0284" y2="21.7128" gradientUnits="userSpaceOnUse">
<stop offset="0.295137" stop-color="#E5E5E5"/>
<stop offset="1" stop-color="#E5E5E5" stop-opacity="0.4"/>
</linearGradient>
<clipPath id="clip0_7552_6519">
<rect width="14" height="14" fill="white" transform="translate(5 5)"/>
</clipPath>
</defs>
</svg>
