<svg width="16" height="16" viewBox="0 0 16 16" fill="none" xmlns="http://www.w3.org/2000/svg">
<g clip-path="url(#clip0_7587_18121)">
<path fill-rule="evenodd" clip-rule="evenodd" d="M8.00001 2.09973C4.74138 2.09973 2.09973 4.74138 2.09973 8.00001C2.09973 11.2586 4.74138 13.9003 8.00001 13.9003C11.2586 13.9003 13.9003 11.2586 13.9003 8.00001C13.9003 4.74138 11.2586 2.09973 8.00001 2.09973ZM1.09973 8.00001C1.09973 4.18909 4.18909 1.09973 8.00001 1.09973C11.8109 1.09973 14.9003 4.18909 14.9003 8.00001C14.9003 11.8109 11.8109 14.9003 8.00001 14.9003C4.18909 14.9003 1.09973 11.8109 1.09973 8.00001ZM7.99569 4.14565C7.46674 4.14565 6.9346 4.25965 6.48126 4.44854C6.22636 4.55475 5.93362 4.43421 5.82741 4.17931C5.7212 3.92441 5.84174 3.63167 6.09664 3.52546C6.66735 3.28767 7.32992 3.14565 7.99569 3.14565C10.6613 3.14565 12.8479 5.33226 12.8479 7.99784C12.8479 8.27398 12.624 8.49784 12.3479 8.49784C12.0717 8.49784 11.8479 8.27398 11.8479 7.99784C11.8479 5.88455 10.109 4.14565 7.99569 4.14565ZM4.17947 5.82741C4.43437 5.93362 4.55491 6.22636 4.4487 6.48126C4.25971 6.93484 4.14565 7.46726 4.14565 7.99649C4.14565 8.27263 3.92179 8.49649 3.64565 8.49649C3.36951 8.49649 3.14565 8.27263 3.14565 7.99649C3.14565 7.33044 3.28773 6.66759 3.52562 6.09664C3.63183 5.84174 3.92457 5.7212 4.17947 5.82741ZM5.10416 4.39705C4.9089 4.20179 4.59231 4.20179 4.39705 4.39705C4.20179 4.59231 4.20179 4.9089 4.39705 5.10416L6.43278 7.13988C6.29365 7.39357 6.21453 7.68484 6.21453 7.99459C6.21453 8.97769 7.01149 9.77464 7.99459 9.77464C8.97769 9.77464 9.77464 8.97769 9.77464 7.99459C9.77464 7.01149 8.97769 6.21453 7.99459 6.21453C7.68484 6.21453 7.39357 6.29365 7.13988 6.43278L5.10416 4.39705ZM7.38757 7.50464C7.40978 7.48877 7.43099 7.47087 7.45093 7.45093C7.47087 7.43099 7.48877 7.40978 7.50464 7.38757C7.63856 7.27935 7.809 7.21453 7.99459 7.21453C8.4254 7.21453 8.77465 7.56378 8.77465 7.99459C8.77465 8.4254 8.4254 8.77465 7.99459 8.77465C7.56378 8.77465 7.21453 8.4254 7.21453 7.99459C7.21453 7.809 7.27935 7.63856 7.38757 7.50464Z" fill="url(#paint0_linear_7587_18121)"/>
</g>
<defs>
<linearGradient id="paint0_linear_7587_18121" x1="8.02845" y1="-0.783148" x2="8.02845" y2="17.7128" gradientUnits="userSpaceOnUse">
<stop offset="0.295137" stop-color="#E5E5E5"/>
<stop offset="1" stop-color="#E5E5E5" stop-opacity="0.4"/>
</linearGradient>
<clipPath id="clip0_7587_18121">
<rect width="14" height="14" fill="white" transform="translate(1 1)"/>
</clipPath>
</defs>
</svg>
