<svg width="16" height="16" viewBox="0 0 16 16" fill="none" xmlns="http://www.w3.org/2000/svg">
<path fill-rule="evenodd" clip-rule="evenodd" d="M2.5 2.8C2.5 2.63431 2.63431 2.5 2.8 2.5H13.2C13.3657 2.5 13.5 2.63431 13.5 2.8V13.2C13.5 13.3657 13.3657 13.5 13.2 13.5H7.3V9.19922C7.3 8.92308 7.07614 8.69922 6.8 8.69922H2.5V2.8ZM1.5 9.19922V2.8C1.5 2.08203 2.08203 1.5 2.8 1.5H13.2C13.918 1.5 14.5 2.08203 14.5 2.8V13.2C14.5 13.918 13.918 14.5 13.2 14.5H2.8C2.08203 14.5 1.5 13.918 1.5 13.2V9.19922ZM2.5 9.69922H6.3V13.5H2.8C2.63431 13.5 2.5 13.3657 2.5 13.2V9.69922ZM8.39844 4.89844C8.12229 4.89844 7.89844 4.67458 7.89844 4.39844C7.89844 4.1223 8.12229 3.89844 8.39844 3.89844H11.5984C11.6662 3.89844 11.7309 3.91193 11.7898 3.93638C11.8488 3.96078 11.9041 3.99695 11.952 4.04488C11.9999 4.09282 12.0361 4.14807 12.0605 4.20705C12.0846 4.26513 12.098 4.32874 12.0984 4.39544C12.0984 4.39644 12.0984 4.39744 12.0984 4.39844V4.39893V7.59844C12.0984 7.87458 11.8746 8.09844 11.5984 8.09844C11.3223 8.09844 11.0984 7.87458 11.0984 7.59844V5.60554L8.75199 7.95199C8.55673 8.14725 8.24015 8.14725 8.04488 7.95199C7.84962 7.75673 7.84962 7.44015 8.04488 7.24488L10.3913 4.89844H8.39844Z" fill="url(#paint0_linear_7587_18162)"/>
<defs>
<linearGradient id="paint0_linear_7587_18162" x1="8.02679" y1="-0.273655" x2="8.02679" y2="17.1493" gradientUnits="userSpaceOnUse">
<stop offset="0.295137" stop-color="#E5E5E5"/>
<stop offset="1" stop-color="#E5E5E5" stop-opacity="0.4"/>
</linearGradient>
</defs>
</svg>
