<svg width="24" height="24" viewBox="0 0 24 24" fill="none" xmlns="http://www.w3.org/2000/svg">
<rect x="0.5" y="0.5" width="23" height="23" rx="3.5" fill="url(#paint0_linear_7552_6582)"/>
<rect x="0.5" y="0.5" width="23" height="23" rx="3.5" stroke="url(#paint1_linear_7552_6582)" style="mix-blend-mode:overlay"/>
<path fill-rule="evenodd" clip-rule="evenodd" d="M5.62329 6.25977C5.62329 5.98362 5.84715 5.75977 6.12329 5.75977H8.0372C8.28603 5.75977 8.49699 5.94274 8.53218 6.18906L8.74424 7.67368H17.8802C18.0292 7.67368 18.1704 7.74012 18.2654 7.85492C18.3604 7.96971 18.3992 8.12088 18.3713 8.26724L17.4469 13.1197C17.3039 13.8716 16.6465 14.4154 15.8815 14.4154H10.0793C9.28604 14.4154 8.614 13.8321 8.50166 13.0473L8.50164 13.0472L7.81648 8.25048L7.81492 8.23953L7.60355 6.75977H6.12329C5.84715 6.75977 5.62329 6.53591 5.62329 6.25977ZM8.88708 8.67368L9.49157 12.9056L9.49159 12.9058C9.53353 13.1982 9.78395 13.4154 10.0793 13.4154H15.8815C16.1664 13.4154 16.4113 13.2128 16.4646 12.9328L16.4646 12.9327L17.2759 8.67368H8.88708ZM9.67843 16.0563C9.35056 16.0563 9.08477 16.3221 9.08477 16.6499C9.08477 16.9778 9.35056 17.2436 9.67843 17.2436C10.0063 17.2436 10.2721 16.9778 10.2721 16.6499C10.2721 16.3221 10.0063 16.0563 9.67843 16.0563ZM8.08477 16.6499C8.08477 15.7698 8.79828 15.0563 9.67843 15.0563C10.5586 15.0563 11.2721 15.7698 11.2721 16.6499C11.2721 17.5301 10.5586 18.2436 9.67843 18.2436C8.79828 18.2436 8.08477 17.5301 8.08477 16.6499ZM15.9162 16.6499C15.9162 16.3221 16.182 16.0563 16.5098 16.0563C16.8377 16.0563 17.1035 16.3221 17.1035 16.6499C17.1035 16.9778 16.8377 17.2436 16.5098 17.2436C16.182 17.2436 15.9162 16.9778 15.9162 16.6499ZM16.5098 15.0563C15.6297 15.0563 14.9162 15.7698 14.9162 16.6499C14.9162 17.5301 15.6297 18.2436 16.5098 18.2436C17.39 18.2436 18.1035 17.5301 18.1035 16.6499C18.1035 15.7698 17.39 15.0563 16.5098 15.0563Z" fill="url(#paint2_linear_7552_6582)"/>
<defs>
<linearGradient id="paint0_linear_7552_6582" x1="20.9704" y1="1.01515" x2="7.83214" y2="17.5143" gradientUnits="userSpaceOnUse">
<stop stop-color="#272A35"/>
<stop offset="1" stop-color="#16181D"/>
</linearGradient>
<linearGradient id="paint1_linear_7552_6582" x1="22.8036" y1="1.758e-06" x2="-6.796e-07" y2="24" gradientUnits="userSpaceOnUse">
<stop stop-color="white"/>
<stop offset="1" stop-color="white" stop-opacity="0"/>
</linearGradient>
<linearGradient id="paint2_linear_7552_6582" x1="12.028" y1="4.05653" x2="12.028" y2="20.7877" gradientUnits="userSpaceOnUse">
<stop offset="0.295137" stop-color="#E5E5E5"/>
<stop offset="1" stop-color="#E5E5E5" stop-opacity="0.4"/>
</linearGradient>
</defs>
</svg>
