<svg width="16" height="16" viewBox="0 0 16 16" fill="none" xmlns="http://www.w3.org/2000/svg">
<path fill-rule="evenodd" clip-rule="evenodd" d="M1.62329 2.2598C1.62329 1.98365 1.84715 1.7598 2.12329 1.7598H4.0372C4.28603 1.7598 4.49699 1.94277 4.53218 2.18909L4.74424 3.67371H13.8802C14.0292 3.67371 14.1704 3.74015 14.2654 3.85495C14.3604 3.96974 14.3992 4.12091 14.3713 4.26727L13.4469 9.11974C13.3039 9.87161 12.6465 10.4154 11.8815 10.4154H6.07934C5.28604 10.4154 4.614 9.83211 4.50166 9.04738L4.50164 9.04723L3.81648 4.25051L3.81492 4.23956L3.60355 2.7598H2.12329C1.84715 2.7598 1.62329 2.53594 1.62329 2.2598ZM4.88708 4.67371L5.49157 8.90568L5.49159 8.90583C5.53353 9.19828 5.78395 9.41544 6.07934 9.41544H11.8815C12.1664 9.41544 12.4113 9.21284 12.4646 8.93284L12.4646 8.93272L13.2759 4.67371H4.88708ZM5.67843 12.0563C5.35056 12.0563 5.08477 12.3221 5.08477 12.65C5.08477 12.9778 5.35056 13.2436 5.67843 13.2436C6.0063 13.2436 6.2721 12.9778 6.2721 12.65C6.2721 12.3221 6.0063 12.0563 5.67843 12.0563ZM4.08477 12.65C4.08477 11.7698 4.79828 11.0563 5.67843 11.0563C6.55859 11.0563 7.2721 11.7698 7.2721 12.65C7.2721 13.5301 6.55859 14.2436 5.67843 14.2436C4.79828 14.2436 4.08477 13.5301 4.08477 12.65ZM11.9162 12.65C11.9162 12.3221 12.182 12.0563 12.5098 12.0563C12.8377 12.0563 13.1035 12.3221 13.1035 12.65C13.1035 12.9778 12.8377 13.2436 12.5098 13.2436C12.182 13.2436 11.9162 12.9778 11.9162 12.65ZM12.5098 11.0563C11.6297 11.0563 10.9162 11.7698 10.9162 12.65C10.9162 13.5301 11.6297 14.2436 12.5098 14.2436C13.39 14.2436 14.1035 13.5301 14.1035 12.65C14.1035 11.7698 13.39 11.0563 12.5098 11.0563Z" fill="url(#paint0_linear_7587_18184)"/>
<defs>
<linearGradient id="paint0_linear_7587_18184" x1="8.02802" y1="0.0565641" x2="8.02802" y2="16.7878" gradientUnits="userSpaceOnUse">
<stop offset="0.295137" stop-color="#E5E5E5"/>
<stop offset="1" stop-color="#E5E5E5" stop-opacity="0.4"/>
</linearGradient>
</defs>
</svg>
