<svg width="14" height="14" viewBox="0 0 14 14" fill="none" xmlns="http://www.w3.org/2000/svg">
<path fill-rule="evenodd" clip-rule="evenodd" d="M7 14C10.866 14 14 10.866 14 7C14 3.13401 10.866 0 7 0C3.13401 0 0 3.13401 0 7C0 10.866 3.13401 14 7 14ZM10.2511 4.68805C10.424 4.34226 10.2838 3.92179 9.93805 3.7489C9.59226 3.57601 9.17179 3.71617 8.9989 4.06195L6.37073 9.31828L4.86997 7.81752C4.59661 7.54416 4.15339 7.54416 3.88003 7.81752C3.60666 8.09089 3.60666 8.53411 3.88003 8.80747L6.06753 10.995C6.22663 11.1541 6.45252 11.227 6.67463 11.191C6.89673 11.1549 7.08797 11.0143 7.1886 10.813L10.2511 4.68805Z" fill="#E4E5E7"/>
</svg>
