<svg width="16" height="16" viewBox="0 0 16 16" fill="none" xmlns="http://www.w3.org/2000/svg">
<path d="M5.53125 4.93848C5.85855 4.93848 6.12402 5.20395 6.12402 5.53125C6.12402 6.68384 6.58149 7.78948 7.39648 8.60449C8.21148 9.41949 9.31715 9.87694 10.4697 9.87695C10.797 9.87695 11.0625 10.1424 11.0625 10.4697C11.0625 10.797 10.797 11.0625 10.4697 11.0625C9.31715 11.0625 8.21148 11.52 7.39648 12.335C6.6325 13.0989 6.18228 14.1184 6.12891 15.1924L6.12402 15.4082L6.1123 15.5273C6.05721 15.7976 5.81779 16.001 5.53125 16.001C5.20397 16.001 4.93848 15.7355 4.93848 15.4082C4.93847 14.8375 4.82581 14.2724 4.60742 13.7451C4.38902 13.2179 4.06952 12.7385 3.66602 12.335C3.2625 11.9315 2.78307 11.6119 2.25586 11.3936C1.72859 11.1752 1.16348 11.0625 0.592773 11.0625C0.265478 11.0625 0 10.797 0 10.4697C1.80983e-05 10.1424 0.265489 9.87695 0.592773 9.87695C1.16348 9.87695 1.72859 9.7643 2.25586 9.5459C2.78307 9.3275 3.2625 9.00801 3.66602 8.60449C4.06953 8.20097 4.38902 7.72155 4.60742 7.19434C4.82582 6.66707 4.93848 6.10196 4.93848 5.53125C4.93848 5.20397 5.20397 4.93849 5.53125 4.93848ZM5.53125 8.01855C5.26666 8.54389 4.92106 9.02523 4.50391 9.44238C4.08675 9.85954 3.60541 10.2051 3.08008 10.4697C3.60541 10.7343 4.08675 11.0799 4.50391 11.4971C4.92074 11.9139 5.26576 12.3951 5.53027 12.9199C5.79281 12.3987 6.13821 11.9175 6.55859 11.4971C6.97887 11.0768 7.46042 10.7322 7.98145 10.4697C7.46043 10.2072 6.97886 9.86265 6.55859 9.44238C6.13811 9.02189 5.79381 8.53989 5.53125 8.01855ZM12.4443 0C12.7716 0 13.0371 0.265478 13.0371 0.592773C13.0371 1.22136 13.287 1.82402 13.7314 2.26855C14.1759 2.71301 14.7787 2.96278 15.4072 2.96289C15.7345 2.96289 15.9999 3.22847 16 3.55566C16 3.88296 15.7345 4.14844 15.4072 4.14844C14.7787 4.14855 14.1759 4.39832 13.7314 4.84277C13.287 5.28722 13.0372 5.89002 13.0371 6.51855C13.0371 6.84585 12.7716 7.11133 12.4443 7.11133C12.1171 7.11121 11.8516 6.84578 11.8516 6.51855C11.8514 5.89002 11.6017 5.28722 11.1572 4.84277C10.7127 4.39836 10.11 4.14844 9.48145 4.14844C9.15415 4.14844 8.88867 3.88296 8.88867 3.55566C8.88879 3.22847 9.15422 2.96289 9.48145 2.96289C10.1101 2.96289 10.7127 2.71311 11.1572 2.26855C11.6018 1.824 11.8516 1.22147 11.8516 0.592773C11.8516 0.26555 12.1171 0.000116261 12.4443 0ZM12.4443 2.55762C12.3143 2.75374 12.165 2.93854 11.9961 3.10742C11.8272 3.2763 11.6424 3.42561 11.4463 3.55566C11.6425 3.68575 11.8272 3.83595 11.9961 4.00488C12.1646 4.17341 12.3145 4.35708 12.4443 4.55273C12.5743 4.3569 12.7249 4.17354 12.8936 4.00488C13.0622 3.83623 13.2456 3.6856 13.4414 3.55566C13.2458 3.42583 13.0621 3.27591 12.8936 3.10742C12.7246 2.93848 12.5744 2.75382 12.4443 2.55762Z" fill="url(#paint0_linear_3329_20685)"/>
<defs>
<linearGradient id="paint0_linear_3329_20685" x1="4" y1="3.00018" x2="11.0006" y2="13.5004" gradientUnits="userSpaceOnUse">
<stop stop-color="#CBFEED"/>
<stop offset="1" stop-color="#00E599"/>
</linearGradient>
</defs>
</svg>
