<svg width="28" height="28" viewBox="0 0 28 28" fill="none" xmlns="http://www.w3.org/2000/svg">
<circle cx="14" cy="14" r="14" fill="#00E599" fill-opacity="0.12"/>
<g clip-path="url(#clip0_982_21226)">
<path d="M6.5 16.5C7.15661 16.5 7.80679 16.3707 8.41342 16.1194C9.02005 15.8681 9.57124 15.4998 10.0355 15.0355C10.4998 14.5712 10.8681 14.02 11.1194 13.4134C11.3707 12.8068 11.5 12.1566 11.5 11.5C11.5 12.8261 12.0268 14.0979 12.9645 15.0355C13.9021 15.9732 15.1739 16.5 16.5 16.5C15.1739 16.5 13.9021 17.0268 12.9645 17.9645C12.0268 18.9021 11.5 20.1739 11.5 21.5C11.5 20.8434 11.3707 20.1932 11.1194 19.5866C10.8681 18.98 10.4998 18.4288 10.0355 17.9645C9.57124 17.5002 9.02005 17.1319 8.41342 16.8806C7.80679 16.6293 7.15661 16.5 6.5 16.5Z" stroke="#00E599" stroke-linecap="round" stroke-linejoin="round"/>
<path d="M15.5 9.5C16.2956 9.5 17.0587 9.18393 17.6213 8.62132C18.1839 8.05871 18.5 7.29565 18.5 6.5C18.5 7.29565 18.8161 8.05871 19.3787 8.62132C19.9413 9.18393 20.7044 9.5 21.5 9.5C20.7044 9.5 19.9413 9.81607 19.3787 10.3787C18.8161 10.9413 18.5 11.7044 18.5 12.5C18.5 11.7044 18.1839 10.9413 17.6213 10.3787C17.0587 9.81607 16.2956 9.5 15.5 9.5Z" stroke="#00E599" stroke-linecap="round" stroke-linejoin="round"/>
</g>
<defs>
<clipPath id="clip0_982_21226">
<rect width="16" height="16" fill="white" transform="translate(6 6)"/>
</clipPath>
</defs>
</svg>
