<svg width="100" height="28" viewBox="0 0 100 28" fill="none" xmlns="http://www.w3.org/2000/svg">
<path d="M49.971 23.1236L39.2252 13.6132V22.9371H35.8453V6.20068L46.5911 15.7111V6.38716H49.971V23.1236ZM53.6918 22.9371V6.38716H63.8083V9.72047H57.0718V12.9838H62.4097V16.2472H57.0718V19.6038H63.8083V22.9371H53.6918ZM74.272 23.1236C69.5868 23.1236 65.8106 19.3474 65.8106 14.6621C65.8106 9.97687 69.5868 6.20068 74.272 6.20068C78.9573 6.20068 82.7335 9.97687 82.7335 14.6621C82.7335 19.3474 78.9573 23.1236 74.272 23.1236ZM74.272 19.8602C77.1625 19.8602 79.3303 17.5293 79.3303 14.6621C79.3303 11.795 77.1625 9.46406 74.272 9.46406C71.3816 9.46406 69.2138 11.795 69.2138 14.6621C69.2138 17.5293 71.3816 19.8602 74.272 19.8602ZM99.1602 23.1236L88.4144 13.6132V22.9371H85.0344V6.20068L95.7803 15.7111V6.38716H99.1602V23.1236Z" fill="#BDC2C7"/>
<path d="M28 0.00783833V28L17.0746 18.6145V28H0V0L28 0.00783833ZM3.43223 24.6015H13.6423V11.1571L24.5679 20.7282V3.40534L3.43223 3.39933V24.6015Z" fill="#BDC2C7"/>
</svg>
