<svg width="128" height="36" viewBox="0 0 128 36" fill="none" xmlns="http://www.w3.org/2000/svg">
<g clip-path="url(#clip0_58_12)">
<path fill-rule="evenodd" clip-rule="evenodd" d="M0 6.207C0 4.5608 0.65395 2.98203 1.81799 1.81799C2.98203 0.65395 4.5608 0 6.207 0L29.793 0C31.4392 0 33.018 0.65395 34.182 1.81799C35.346 2.98203 36 4.5608 36 6.207V26.267C36 29.813 31.512 31.352 29.336 28.553L22.531 19.799V30.414C22.531 31.8955 21.9425 33.3163 20.8949 34.3639C19.8473 35.4115 18.4265 36 16.945 36H6.207C4.5608 36 2.98203 35.346 1.81799 34.182C0.65395 33.018 0 31.4392 0 29.793L0 6.207ZM6.207 4.966C5.521 4.966 4.966 5.521 4.966 6.206V29.793C4.966 30.479 5.521 31.035 6.206 31.035H17.131C17.474 31.035 17.565 30.757 17.565 30.414V16.18C17.565 12.633 22.053 11.094 24.23 13.894L31.035 22.647V6.207C31.035 5.521 31.099 4.966 30.414 4.966H6.207Z" fill="#12FFF7"/>
<path fill-rule="evenodd" clip-rule="evenodd" d="M0 6.207C0 4.5608 0.65395 2.98203 1.81799 1.81799C2.98203 0.65395 4.5608 0 6.207 0L29.793 0C31.4392 0 33.018 0.65395 34.182 1.81799C35.346 2.98203 36 4.5608 36 6.207V26.267C36 29.813 31.512 31.352 29.336 28.553L22.531 19.799V30.414C22.531 31.8955 21.9425 33.3163 20.8949 34.3639C19.8473 35.4115 18.4265 36 16.945 36H6.207C4.5608 36 2.98203 35.346 1.81799 34.182C0.65395 33.018 0 31.4392 0 29.793L0 6.207ZM6.207 4.966C5.521 4.966 4.966 5.521 4.966 6.206V29.793C4.966 30.479 5.521 31.035 6.206 31.035H17.131C17.474 31.035 17.565 30.757 17.565 30.414V16.18C17.565 12.633 22.053 11.094 24.23 13.894L31.035 22.647V6.207C31.035 5.521 31.099 4.966 30.414 4.966H6.207Z" fill="url(#paint0_linear_58_12)"/>
<path fill-rule="evenodd" clip-rule="evenodd" d="M0 6.207C0 4.5608 0.65395 2.98203 1.81799 1.81799C2.98203 0.65395 4.5608 0 6.207 0L29.793 0C31.4392 0 33.018 0.65395 34.182 1.81799C35.346 2.98203 36 4.5608 36 6.207V26.267C36 29.813 31.512 31.352 29.336 28.553L22.531 19.799V30.414C22.531 31.8955 21.9425 33.3163 20.8949 34.3639C19.8473 35.4115 18.4265 36 16.945 36H6.207C4.5608 36 2.98203 35.346 1.81799 34.182C0.65395 33.018 0 31.4392 0 29.793L0 6.207ZM6.207 4.966C5.521 4.966 4.966 5.521 4.966 6.206V29.793C4.966 30.479 5.521 31.035 6.206 31.035H17.131C17.474 31.035 17.565 30.757 17.565 30.414V16.18C17.565 12.633 22.053 11.094 24.23 13.894L31.035 22.647V6.207C31.035 5.521 31.099 4.966 30.414 4.966H6.207Z" fill="url(#paint1_linear_58_12)"/>
<path d="M29.7933 0C31.4395 0 33.0183 0.65395 34.1823 1.81799C35.3464 2.98203 36.0003 4.5608 36.0003 6.207V26.267C36.0003 29.813 31.5123 31.352 29.3363 28.553L22.5313 19.799V30.414C22.5313 31.8955 21.9428 33.3163 20.8952 34.3639C19.8476 35.4115 18.4268 36 16.9453 36C17.0267 36 17.1074 35.984 17.1826 35.9528C17.2578 35.9216 17.3261 35.876 17.3837 35.8184C17.4413 35.7608 17.487 35.6925 17.5181 35.6173C17.5493 35.542 17.5653 35.4614 17.5653 35.38V16.18C17.5653 12.633 22.0533 11.094 24.2303 13.894L31.0353 22.647V1.241C31.0353 0.556 30.4793 0 29.7933 0Z" fill="#B9FFB3"/>
<path d="M60.6857 10.6002V20.0162L51.5557 10.6002H46.8037V26.0002H51.1377V15.8802L61.0817 26.0002H65.0197V10.6002H60.6857ZM73.0537 22.5682V19.8402H82.7557V16.5622H73.0537V14.0322H84.8237V10.6002H68.6317V26.0002H85.0657V22.5682H73.0537ZM96.5827 26.5062C102.677 26.5062 106.637 23.5142 106.637 18.3002C106.637 13.0862 102.677 10.0942 96.5827 10.0942C90.4887 10.0942 86.5507 13.0862 86.5507 18.3002C86.5507 23.5142 90.4887 26.5062 96.5827 26.5062ZM96.5827 22.8542C93.1947 22.8542 91.1047 21.2042 91.1047 18.3002C91.1047 15.3962 93.2167 13.7462 96.5827 13.7462C99.9707 13.7462 102.061 15.3962 102.061 18.3002C102.061 21.2042 99.9707 22.8542 96.5827 22.8542ZM123.249 10.6002V20.0162L114.119 10.6002H109.367V26.0002H113.701V15.8802L123.645 26.0002H127.583V10.6002H123.249Z" fill="white"/>
</g>
<defs>
<linearGradient id="paint0_linear_58_12" x1="36" y1="36" x2="4.345" y2="-1.3837e-06" gradientUnits="userSpaceOnUse">
<stop stop-color="#B9FFB3"/>
<stop offset="1" stop-color="#B9FFB3" stop-opacity="0"/>
</linearGradient>
<linearGradient id="paint1_linear_58_12" x1="36" y1="36" x2="14.617" y2="27.683" gradientUnits="userSpaceOnUse">
<stop stop-color="#1A1A1A" stop-opacity="0.9"/>
<stop offset="1" stop-color="#1A1A1A" stop-opacity="0"/>
</linearGradient>
<clipPath id="clip0_58_12">
<rect width="128" height="36" fill="white"/>
</clipPath>
</defs>
</svg>
