<svg width="200" height="44" viewBox="0 0 200 44" fill="none" xmlns="http://www.w3.org/2000/svg">
<path fill-rule="evenodd" clip-rule="evenodd" d="M14.6767 26.1438L27.7538 18.7816V15.7583L14.6767 23.1205L0 14.8905V13.9947L14.6767 5.76465L25.7894 12.0072V12.707L24.8914 13.2109L14.6767 7.47224L2.24499 14.4426L14.6767 21.3849L28.5956 13.5748L29.3252 13.9947V19.6214L14.6767 27.8514L1.57149 20.5172V23.5405L14.6767 30.8747L28.6517 23.0366L29.3252 23.4005V29.1111L14.6767 37.3412L0 29.1111V28.1314L0.673499 27.7674L14.6767 35.6336L27.7538 28.2714V25.2481L14.6767 32.5823L0 24.3523V18.6416L0.673499 18.2777L14.6767 26.1438ZM56.7418 7.53327V32.6712H52.8692V30.7958C52.8692 30.6558 52.785 30.5438 52.6447 30.4878C52.5324 30.4599 52.3641 30.4878 52.2798 30.5997C50.9329 32.1955 48.8844 33.1191 46.6674 33.1191C44.3382 33.1191 42.1775 32.1955 40.5779 30.4878C38.9782 28.7802 38.1084 26.4567 38.1084 23.9373C38.1084 18.7866 41.8687 14.7556 46.6674 14.7556C48.9124 14.7556 50.9609 15.6234 52.2798 17.163C52.3641 17.247 52.5044 17.3029 52.6447 17.247C52.785 17.191 52.8692 17.079 52.8692 16.939V7.53327H56.7418ZM42.009 23.9373C42.009 27.1285 44.4224 29.62 47.5092 29.62C50.5961 29.62 53.0095 27.1285 53.0095 23.9373C53.0095 20.7461 50.5961 18.2547 47.5092 18.2547C44.4224 18.2547 42.009 20.7461 42.009 23.9373ZM77.4518 15.1784H73.6073V16.9419C73.6073 17.0819 73.523 17.1939 73.3827 17.2499C73.2424 17.3059 73.1021 17.2499 73.0179 17.1379C71.7271 15.5983 69.7065 14.7305 67.4055 14.7305C62.6067 14.7305 58.8464 18.7615 58.8464 23.9123C58.8464 29.063 62.6067 33.094 67.4055 33.094C69.6225 33.094 71.6709 32.1703 73.0179 30.5468C73.1021 30.4348 73.2705 30.4068 73.3827 30.4348C73.523 30.4907 73.6073 30.6027 73.6073 30.7427V32.6462H77.4518V15.1784ZM68.2753 29.623C65.1885 29.623 62.7752 27.1315 62.7752 23.9403C62.7752 20.7491 65.1885 18.2576 68.2753 18.2576C71.3623 18.2576 73.7756 20.7491 73.7756 23.9403C73.7756 27.1315 71.3623 29.623 68.2753 29.623ZM110.367 15.1784V32.6742H106.523V30.7707C106.523 30.6307 106.439 30.5187 106.298 30.4627C106.186 30.4348 106.018 30.4627 105.933 30.5747C104.586 32.1983 102.538 33.1221 100.321 33.1221C95.5222 33.1221 91.762 29.1191 91.762 23.9403C91.762 18.7615 95.4942 14.7305 100.321 14.7305C102.622 14.7305 104.643 15.5983 105.933 17.1379C106.018 17.2499 106.158 17.3059 106.298 17.2499C106.439 17.1939 106.523 17.0819 106.523 16.9419V15.1784H110.367ZM95.6907 23.9403C95.6907 27.1315 98.1041 29.623 101.191 29.623C104.278 29.623 106.691 27.1315 106.691 23.9403C106.691 20.7491 104.278 18.2576 101.191 18.2576C98.1041 18.2576 95.6907 20.7491 95.6907 23.9403ZM117.415 30.5997C117.429 30.5997 117.45 30.5928 117.471 30.5858C117.492 30.5788 117.513 30.5719 117.527 30.5719C117.611 30.5719 117.724 30.6278 117.78 30.6838C119.099 32.2234 121.147 33.0912 123.392 33.0912C128.191 33.0912 131.951 29.0602 131.951 23.9093C131.951 21.3899 131.081 19.0665 129.482 17.3589C127.882 15.6513 125.721 14.7276 123.392 14.7276C121.175 14.7276 119.127 15.6513 117.78 17.247C117.696 17.3589 117.555 17.3869 117.415 17.3589C117.275 17.3029 117.19 17.191 117.19 17.051V7.53327H113.318V32.6712H117.19V30.9078C117.19 30.7678 117.275 30.6558 117.415 30.5997ZM117.022 23.9373C117.022 20.7461 119.435 18.2547 122.522 18.2547C125.609 18.2547 128.022 20.7461 128.022 23.9373C128.022 27.1285 125.609 29.6201 122.522 29.6201C119.435 29.6201 117.022 27.1007 117.022 23.9373ZM144.071 18.8445C143.847 18.7885 143.51 18.7606 143.145 18.7606C139.946 18.7606 137.982 21.14 137.982 24.9751V32.7013H134.109V15.1774H137.954V17.3329C137.954 17.4728 138.066 17.6128 138.206 17.6408C138.347 17.6968 138.487 17.6408 138.571 17.5008C139.553 15.8492 141.405 14.8135 143.426 14.8135C143.678 14.8135 143.931 14.8415 144.071 14.8695V18.8445ZM150.441 15.1795H146.513V32.7033H150.441V15.1795ZM146.034 9.94291C146.034 8.62721 147.1 7.56348 148.419 7.56348C149.738 7.56348 150.805 8.62721 150.805 9.94291C150.805 11.2586 149.738 12.3224 148.419 12.3224C147.1 12.3224 146.034 11.2586 146.034 9.94291ZM161.946 14.7305C156.558 14.7305 152.656 18.5935 152.656 23.9403C152.656 26.5436 153.584 28.8671 155.238 30.5468C156.923 32.2263 159.279 33.1501 161.917 33.1501C164.106 33.1501 165.79 32.7303 168.99 30.3787L166.773 28.0553C165.2 29.091 163.741 29.595 162.311 29.595C159.055 29.595 156.614 27.1595 156.614 23.9403C156.614 20.7211 159.055 18.2856 162.311 18.2856C163.853 18.2856 165.285 18.7895 166.717 19.8252L169.185 17.5018C166.296 15.0384 163.685 14.7305 161.946 14.7305ZM176.04 24.8914C175.955 24.8914 175.87 24.9193 175.814 24.9753L175.085 25.6191C175 25.6752 174.973 25.7872 174.973 25.8711V32.7015H171.1V7.56348H175V21.3363C175 21.4761 175.085 21.5881 175.197 21.6441C175.338 21.6722 175.478 21.6441 175.562 21.5602L181.932 15.1777H186.675L179.294 22.5399C179.153 22.6519 179.153 22.8478 179.267 22.9878L187.293 32.6735H182.521L176.32 25.0034L176.316 25.0009C176.233 24.9457 176.151 24.8914 176.067 24.8914H176.04ZM193.601 33.1207C196.772 33.1207 199.999 31.1892 199.999 27.5221C199.999 25.1147 198.484 23.4631 195.398 22.4553L193.292 21.7555C191.862 21.2796 191.187 20.6078 191.187 19.684C191.187 18.6202 192.142 17.8924 193.489 17.8924C194.78 17.8924 195.93 18.7322 196.66 20.1879L199.775 18.5083C198.625 16.1568 196.239 14.7012 193.489 14.7012C190.009 14.7012 187.484 16.9406 187.484 19.9919C187.484 22.4273 188.943 24.0509 191.945 25.0028L194.107 25.7026C195.622 26.1785 196.268 26.7943 196.268 27.7741C196.268 29.2577 194.892 29.7895 193.713 29.7895C192.142 29.7895 190.739 28.7818 190.066 27.1302L186.895 28.8099C187.933 31.4692 190.486 33.1207 193.601 33.1207ZM91.1757 32.7598C90.5584 32.8439 89.4639 32.9558 88.2292 32.9558C86.6857 32.9558 82.5886 32.9558 82.5886 26.8253V18.6792C82.5886 18.4832 82.4483 18.3432 82.2519 18.3432H79.5578V15.18H82.2519C82.4483 15.18 82.5886 15.04 82.5886 14.8441V9.77728H86.4613V14.8161C86.4613 15.012 86.6016 15.152 86.798 15.152H90.5864V18.3153H86.798C86.6016 18.3153 86.4613 18.4552 86.4613 18.6512V25.8454C86.4613 29.2327 87.668 29.5125 89.2395 29.5125C89.7727 29.5125 90.6707 29.4566 91.1757 29.4006V32.7598Z" fill="url(#paint0_linear_8683_32028)"/>
<defs>
<linearGradient id="paint0_linear_8683_32028" x1="99.9997" y1="5.76465" x2="99.9997" y2="37.3412" gradientUnits="userSpaceOnUse">
<stop stop-color="#C9CBCF"/>
<stop offset="1" stop-color="#94979E"/>
</linearGradient>
</defs>
</svg>
