<svg width="304" height="44" viewBox="0 0 304 44" fill="none" xmlns="http://www.w3.org/2000/svg">
<g clip-path="url(#clip0_8683_32008)">
<path d="M30.1636 7H-0.0078125V14.5429H30.1636V7Z" fill="white"/>
<path d="M30.1636 14.5547H-0.0078125V22.0975H30.1636V14.5547Z" fill="#DFDFDF"/>
<path d="M30.1636 22.082H-0.0078125V29.6249H30.1636V22.082Z" fill="#BEBEBE"/>
<path d="M30.1636 29.625H-0.0078125V37.1679H30.1636V29.625Z" fill="#A4A4A4"/>
<path fill-rule="evenodd" clip-rule="evenodd" d="M125.714 30.553H128.685V13.4102H125.942V26.2102H125.485L118.857 14.3244C118.399 13.8673 118.171 13.6387 117.485 13.6387H114.285V30.553H117.028V17.2959H117.485L124.342 29.8673C124.799 30.3244 125.028 30.553 125.714 30.553ZM57.1413 20.951V15.9224H65.827V13.6367H54.3984V30.551H57.1413V23.2367H63.9984V20.951H57.1413ZM84.1183 14.3224C83.4326 13.8653 82.7469 13.6367 81.1469 13.6367H76.1183C74.2897 13.6367 73.8326 13.8653 73.1469 14.3224C72.2326 15.2367 71.5469 16.3796 71.5469 22.0939C71.5469 27.8081 72.2326 28.951 73.1469 29.8653C73.8326 30.3224 74.5183 30.551 76.1183 30.551H81.1469C82.9754 30.551 83.4326 30.3224 84.1183 29.8653C85.0326 28.951 85.7183 27.8081 85.7183 22.0939C85.7183 16.3796 85.0326 15.2367 84.1183 14.3224ZM76.3469 28.2653C75.4326 28.2653 75.204 28.2653 74.9754 28.0367C74.7469 27.8081 74.5183 26.8939 74.2897 22.0939C74.2897 17.0653 74.7469 16.3796 74.9754 16.151C75.204 15.9224 75.4326 15.9224 76.3469 15.9224H80.9183C81.8326 15.9224 82.0612 15.9224 82.2897 16.151C82.5183 16.3796 82.9754 17.2939 82.9754 22.0939C82.9754 27.1224 82.5183 27.8081 82.2897 28.0367C82.0612 28.2653 81.8326 28.2653 80.9183 28.2653H76.3469ZM106.751 23.4653C106.751 27.8081 106.294 28.4939 105.38 29.4081C104.466 30.0939 103.323 30.3224 101.037 30.3224H98.5229C96.2372 30.3224 95.0943 30.0939 94.18 29.4081C93.2657 28.4939 92.8086 27.5796 92.8086 23.4653V13.6367H95.5514V24.151C95.5514 27.1224 95.78 27.5796 96.2372 27.8081C96.4657 28.0367 96.9229 28.2653 98.98 28.2653H100.58C102.409 28.2653 102.866 28.2653 103.323 27.8081C103.78 27.351 103.78 27.351 103.78 24.1511V24.151V13.6367H106.523V23.4653H106.751ZM144.232 13.6367C146.29 13.6367 147.661 13.8653 148.575 14.7796C149.718 15.6939 150.404 17.9796 150.404 22.0939C150.404 26.2081 149.947 28.2653 148.575 29.4081C147.661 30.3224 146.518 30.551 144.232 30.551H136.461V13.6367H144.232ZM146.29 16.3796C145.832 15.9224 145.147 15.9224 144.232 15.9224H139.432V28.2653H144.232C145.375 28.2653 145.832 28.2653 146.29 27.8081C146.975 27.1224 147.204 25.9796 147.204 22.3224C147.432 18.2081 146.975 17.0653 146.29 16.3796ZM157.25 30.551H169.364V28.0367H159.993V22.7796H167.764V20.4939H159.993V15.9224H169.364V13.6367H157.25V30.551ZM186.061 23.9126C185.832 23.684 185.147 23.684 184.232 23.684H179.204V30.7697H176.461V13.8555H186.061C187.204 13.8555 188.118 14.084 188.575 14.5412C189.261 15.2269 189.718 16.1412 189.718 18.6555C189.718 21.6269 188.804 22.5412 186.747 22.7698C188.575 22.9983 189.261 23.4555 189.49 25.9697C189.49 27.3697 189.575 28.5123 189.642 29.3978V29.3981V29.3983C189.684 29.9584 189.718 30.4155 189.718 30.7697H186.975C186.747 29.627 186.747 28.0271 186.747 26.1987V26.1983C186.518 24.5983 186.29 24.1412 186.061 23.9126ZM185.147 21.3983C185.581 21.3983 185.832 21.3065 186.016 21.2392C186.122 21.2004 186.206 21.1698 186.29 21.1698C186.518 20.9412 186.747 20.484 186.747 18.6555C186.747 16.8269 186.518 16.3698 186.29 16.1412C186.061 15.9126 185.832 15.9126 185.147 15.9126H179.204V21.3983H185.147ZM206.178 30.5412C207.55 30.5412 208.464 30.3126 208.921 29.8555C209.835 28.9412 210.064 28.0269 210.064 26.1983C210.064 23.684 209.835 22.9983 209.15 22.3126C208.692 21.6269 207.778 21.3983 206.635 21.3983L201.15 20.9412C200.464 20.9412 200.235 20.9412 200.007 20.7126C199.778 20.484 199.778 20.0269 199.778 18.884C199.778 17.5126 199.778 16.8269 200.007 16.5983C200.235 16.3698 200.464 16.3698 201.15 16.3698H205.721C206.407 16.3698 206.635 16.3698 206.864 16.5983C206.864 16.5983 207.092 17.0555 207.092 19.1126H209.835C209.835 15.9126 209.607 15.2269 208.921 14.5412C208.464 14.084 207.55 13.8555 206.178 13.8555H200.692C199.321 13.8555 198.407 14.084 197.95 14.5412C197.035 15.4555 196.807 16.3698 196.807 18.6555C196.807 20.9412 197.035 21.6269 197.721 22.3126C198.178 22.7698 198.864 22.9983 200.235 23.2269L205.721 23.684C206.407 23.684 206.635 23.684 206.864 23.9126C207.092 24.1412 207.092 24.5983 207.092 25.7412C207.092 27.1126 207.092 27.7983 206.864 28.0269C206.635 28.2555 206.407 28.2555 205.721 28.2555H200.692C200.007 28.2555 199.778 28.2555 199.55 28.0269C199.55 27.9698 199.535 27.8983 199.514 27.7912C199.45 27.4698 199.321 26.8269 199.321 25.284H196.578C196.578 28.2555 196.807 29.1698 197.492 29.8555C197.95 30.3126 198.864 30.5412 200.235 30.5412H206.178ZM229.255 15.9224V20.951H236.112V23.2367H229.255V30.551H226.512V13.6367H237.94V15.9224H229.255ZM256.907 29.4081C257.822 28.4939 258.279 27.8081 258.279 23.4653H258.05V13.6367H255.307V24.151C255.307 26.7239 255.307 27.2281 255.07 27.5645C255.012 27.6465 254.94 27.7185 254.85 27.808L254.85 27.8081C254.393 28.2653 253.936 28.2653 252.107 28.2653H250.507C248.45 28.2653 247.993 28.0367 247.765 27.8081C247.307 27.5796 247.079 27.1224 247.079 24.151V13.6367H244.336V23.4653C244.336 27.5796 244.793 28.4939 245.707 29.4081C246.622 30.0939 247.765 30.3224 250.05 30.3224H252.564C254.85 30.3224 255.993 30.0939 256.907 29.4081ZM280.236 30.553H277.265C276.579 30.553 276.35 30.3244 275.893 29.8673L269.036 17.2959H268.579V30.553H265.836V13.6387H269.036C269.722 13.6387 269.95 13.8673 270.407 14.3244L277.036 26.2102H277.493V13.4102H280.236V30.553ZM300.103 14.7796C299.188 13.8653 297.817 13.6367 295.76 13.6367H287.988V30.551H295.76C298.045 30.551 299.188 30.3224 300.103 29.4081C301.474 28.2653 301.931 26.2081 301.931 22.0939C301.931 17.9796 301.245 15.6939 300.103 14.7796ZM295.76 15.9224C296.674 15.9224 297.36 15.9224 297.817 16.3796C298.503 17.0653 298.731 18.2081 298.731 22.3224C298.731 25.9796 298.503 27.1224 297.817 27.8081C297.36 28.2653 296.903 28.2653 295.76 28.2653H290.96V15.9224H295.76Z" fill="url(#paint0_linear_8683_32008)"/>
</g>
<defs>
<linearGradient id="paint0_linear_8683_32008" x1="178.165" y1="13.4102" x2="178.165" y2="30.7697" gradientUnits="userSpaceOnUse">
<stop stop-color="#C9CBCF"/>
<stop offset="1" stop-color="#94979E"/>
</linearGradient>
<clipPath id="clip0_8683_32008">
<rect width="304" height="44" fill="white"/>
</clipPath>
</defs>
</svg>
