<svg width="303" height="44" viewBox="0 0 303 44" fill="none" xmlns="http://www.w3.org/2000/svg">
<g clip-path="url(#clip0_8683_31973)">
<path fill-rule="evenodd" clip-rule="evenodd" d="M172.155 22C172.155 33.5973 162.752 43 151.155 43C139.558 43 130.16 33.5973 130.16 22C130.16 10.4028 139.563 1 151.16 1C157.981 1 164.041 4.25052 167.873 9.28859L164.593 11.672C164.148 11.0955 163.663 10.5432 163.14 10.0201C159.938 6.818 155.685 5.0595 151.16 5.0595C146.636 5.0595 142.377 6.82285 139.18 10.0201C135.978 13.2222 134.22 17.4754 134.22 22C134.22 26.5246 135.983 30.7827 139.18 33.98C142.382 37.1819 146.636 38.9406 151.16 38.9406C155.685 38.9406 159.943 37.1772 163.14 33.98C165.872 31.2477 167.553 27.7502 167.989 23.9716H147.74L153.301 19.917H172.058C172.126 20.6049 172.16 21.2976 172.16 22H172.155ZM158.456 27.755C156.751 29.9156 154.11 31.301 151.155 31.301C146.025 31.301 141.85 27.1253 141.85 21.9951C141.85 16.865 146.025 12.6893 151.155 12.6893C154.077 12.6893 156.687 14.0457 158.398 16.1578L161.687 13.7696C159.24 10.6402 155.433 8.62975 151.155 8.62975C143.777 8.62975 137.795 14.6125 137.795 21.9903C137.795 29.3682 143.777 35.351 151.155 35.351C155.467 35.351 159.303 33.3067 161.745 30.1336L158.456 27.7453V27.755ZM6.38915 28.7691C4.28402 28.7691 2.65967 28.2103 1.51613 27.0928C0.385586 25.9622 -0.179688 24.2144 -0.179688 21.8494C-0.179688 20.277 0.0932037 18.984 0.638983 17.9705C1.18476 16.9439 1.97744 16.1837 3.01702 15.6899C4.05659 15.1831 5.30409 14.9297 6.7595 14.9297C7.63014 14.9297 8.44883 15.0271 9.2155 15.2221C9.9822 15.417 10.6579 15.7159 11.2427 16.1187C11.8404 16.5215 12.3018 17.0283 12.6266 17.6391C12.9645 18.2368 13.1334 18.9515 13.1334 19.7832H10.1901C10.1901 19.3804 10.0991 19.023 9.91721 18.7111C9.74831 18.3993 9.50788 18.1394 9.19603 17.9314C8.88414 17.7235 8.52679 17.5676 8.12397 17.4637C7.72111 17.3597 7.29878 17.3077 6.85697 17.3077C6.18123 17.3077 5.58997 17.3987 5.0832 17.5806C4.5764 17.7495 4.15407 18.0159 3.8162 18.3798C3.49134 18.7306 3.24444 19.1725 3.07551 19.7052C2.90657 20.238 2.82211 20.8553 2.82211 21.557V22.1417C2.82211 23.1164 2.96503 23.9155 3.25091 24.5393C3.53682 25.163 3.96563 25.6308 4.53742 25.9427C5.10918 26.2416 5.81739 26.391 6.66206 26.391C7.36377 26.391 7.98101 26.2871 8.51379 26.0792C9.05957 25.8582 9.48191 25.5464 9.78079 25.1435C10.0926 24.7407 10.2486 24.2469 10.2486 23.6621V23.5257H6.2527V21.3036H13.1334V28.5352H11.2232L10.9698 27.0928C10.58 27.4696 10.1576 27.7815 9.70283 28.0284C9.26099 28.2753 8.76719 28.4572 8.22141 28.5741C7.67563 28.7041 7.06488 28.7691 6.38915 28.7691ZM18.3721 28.5352V15.1636H29.0538V17.5416H21.2959V20.5239H28.1571V22.8825H21.2959V26.1377H29.1707V28.5352H18.3721ZM34.1142 28.5352V15.1636H36.7847L42.1645 22.3757C42.2426 22.4666 42.3399 22.5966 42.4569 22.7655C42.5739 22.9214 42.6843 23.0774 42.7882 23.2333C42.8922 23.3892 42.9637 23.5127 43.0026 23.6037H43.1V22.9604V22.3757V15.1636H45.8487V28.5352H43.1781L37.6814 21.1476C37.5513 20.9657 37.415 20.7643 37.2719 20.5434C37.1291 20.3225 37.0252 20.1536 36.9602 20.0366H36.8625V20.6214V21.1476V28.5352H34.1142ZM51.2461 28.5352V15.1636H61.9278V17.5416H54.1699V20.5239H61.0312V22.8825H54.1699V26.1377H62.0445V28.5352H51.2461ZM66.988 28.5352V15.1636H74.3172C75.3046 15.1636 76.1235 15.339 76.7731 15.6899C77.4361 16.0407 77.9298 16.5345 78.2546 17.1713C78.5794 17.795 78.7418 18.5162 78.7418 19.3349C78.7418 20.2055 78.5471 20.9787 78.1572 21.6544C77.7674 22.3172 77.2021 22.824 76.4614 23.1748L79.1901 28.5352H75.9742L73.6153 23.6621H69.8926V28.5352H66.988ZM69.8926 21.3621H73.9274C74.5123 21.3621 74.9668 21.1866 75.2919 20.8358C75.6167 20.4719 75.7791 19.9846 75.7791 19.3739C75.7791 18.984 75.7075 18.6527 75.5647 18.3798C75.4216 18.0939 75.2138 17.8795 74.941 17.7365C74.6681 17.5936 74.3302 17.5221 73.9274 17.5221H69.8926V21.3621ZM82.2987 28.5352L87.4445 15.1636H91.031L96.1771 28.5352H93.0386L92.0835 25.9037H86.2554L85.3003 28.5352H82.2987ZM87.0936 23.5647H91.2454L90.0566 20.2705C90.0043 20.1276 89.9396 19.9586 89.8615 19.7637C89.7965 19.5558 89.725 19.3284 89.6472 19.0815C89.5691 18.8346 89.4913 18.5942 89.4132 18.3603C89.3482 18.1134 89.2832 17.8925 89.2182 17.6975H89.1015C89.0365 17.9444 88.9519 18.2368 88.8479 18.5747C88.744 18.8996 88.6401 19.2179 88.5362 19.5298C88.432 19.8287 88.3477 20.0756 88.2827 20.2705L87.0936 23.5647ZM100.205 28.5352V15.1636H103.109V26.0597H109.853V28.5352H100.205ZM190.682 28.0479C191.669 28.5287 192.858 28.7691 194.249 28.7691C195.418 28.7691 196.458 28.5807 197.367 28.2038C198.277 27.8139 198.985 27.2292 199.492 26.4495C200.012 25.6698 200.272 24.6887 200.272 23.5062H197.465C197.465 24.13 197.335 24.6562 197.075 25.0851C196.815 25.5139 196.445 25.8388 195.964 26.0597C195.483 26.2806 194.918 26.391 194.268 26.391C193.437 26.391 192.754 26.2351 192.221 25.9232C191.701 25.5983 191.312 25.1241 191.052 24.5003C190.792 23.8636 190.662 23.0774 190.662 22.1417V21.5375C190.662 20.6279 190.786 19.8612 191.032 19.2374C191.292 18.6007 191.689 18.1199 192.221 17.795C192.767 17.4702 193.456 17.3077 194.287 17.3077C194.898 17.3077 195.431 17.4247 195.886 17.6586C196.354 17.8795 196.711 18.2043 196.958 18.6332C197.218 19.062 197.348 19.5883 197.348 20.212H200.272C200.272 19.0295 200.005 18.0484 199.472 17.2687C198.953 16.489 198.238 15.9043 197.328 15.5144C196.419 15.1246 195.392 14.9297 194.249 14.9297C192.156 14.9297 190.532 15.5014 189.376 16.645C188.232 17.7755 187.66 19.5103 187.66 21.8494C187.66 23.4347 187.914 24.7407 188.421 25.7673C188.94 26.7939 189.694 27.5541 190.682 28.0479ZM208.702 15.1636L203.556 28.5352H206.558L207.513 25.9037H213.341L214.296 28.5352H217.434L212.288 15.1636H208.702ZM212.503 23.5647H208.351L209.54 20.2705C209.605 20.0756 209.689 19.8287 209.794 19.5298C209.897 19.2179 210.001 18.8996 210.105 18.5747C210.209 18.2368 210.294 17.9444 210.359 17.6975H210.475C210.541 17.8925 210.606 18.1134 210.671 18.3603C210.749 18.5942 210.826 18.8346 210.905 19.0815C210.982 19.3284 211.054 19.5558 211.119 19.7637C211.197 19.9586 211.262 20.1276 211.314 20.2705L212.503 23.5647ZM223.119 17.6001V28.5352H226.043V17.6001H230.351V15.1636H218.831V17.6001H223.119ZM236.893 15.1636L231.747 28.5352H234.749L235.704 25.9037H241.532L242.487 28.5352H245.625L240.48 15.1636H236.893ZM240.694 23.5647H236.542L237.731 20.2705C237.796 20.0756 237.881 19.8287 237.985 19.5298C238.088 19.2179 238.193 18.8996 238.297 18.5747C238.401 18.2368 238.485 17.9444 238.55 17.6975H238.667C238.732 17.8925 238.797 18.1134 238.862 18.3603C238.94 18.5942 239.018 18.8346 239.096 19.0815C239.174 19.3284 239.245 19.5558 239.31 19.7637C239.388 19.9586 239.453 20.1276 239.505 20.2705L240.694 23.5647ZM249.653 15.1636V28.5352H259.302V26.0597H252.558V15.1636H249.653ZM264.991 23.1553V28.5352H267.915V23.1553L273.061 15.1636H269.884L266.59 20.5434H266.492L263.179 15.1636H259.807L264.991 23.1553ZM279.304 28.5352C280.006 28.6911 280.746 28.7691 281.526 28.7691C282.631 28.7691 283.612 28.6261 284.469 28.3403C285.327 28.0544 286.003 27.5995 286.496 26.9758C286.99 26.352 287.237 25.5269 287.237 24.5003C287.237 23.9025 287.12 23.3892 286.886 22.9604C286.653 22.5316 286.341 22.1743 285.951 21.8884C285.561 21.5895 285.119 21.3426 284.625 21.1476C284.132 20.9527 283.625 20.7838 283.105 20.6408C282.585 20.4979 282.078 20.368 281.585 20.251C281.091 20.1341 280.643 20.0041 280.24 19.8612C279.85 19.7052 279.538 19.5298 279.304 19.3349C279.083 19.127 278.973 18.8671 278.973 18.5552C278.973 18.2823 279.07 18.0484 279.265 17.8535C279.473 17.6456 279.765 17.4896 280.142 17.3857C280.532 17.2817 281 17.2297 281.546 17.2297C282.052 17.2297 282.494 17.3012 282.871 17.4441C283.248 17.5871 283.54 17.782 283.748 18.0289C283.956 18.2758 284.06 18.5747 284.06 18.9256V19.0815H286.886V18.8476C286.886 18.1719 286.743 17.5871 286.458 17.0933C286.185 16.5995 285.801 16.1902 285.308 15.8653C284.814 15.5404 284.242 15.3065 283.592 15.1636C282.943 15.0077 282.254 14.9297 281.526 14.9297C280.746 14.9297 280.025 15.0077 279.362 15.1636C278.7 15.3065 278.115 15.5339 277.608 15.8458C277.102 16.1577 276.705 16.554 276.419 17.0348C276.146 17.5156 276.01 18.0874 276.01 18.7501C276.01 19.3739 276.127 19.9067 276.361 20.3485C276.595 20.7903 276.906 21.1541 277.296 21.44C277.686 21.7259 278.128 21.9728 278.622 22.1808C279.116 22.3757 279.622 22.5446 280.142 22.6875C280.662 22.8175 281.169 22.9474 281.662 23.0774C282.156 23.2073 282.598 23.3503 282.988 23.5062C283.391 23.6621 283.703 23.8505 283.924 24.0715C284.158 24.2924 284.274 24.5783 284.274 24.9291C284.274 25.1241 284.236 25.2995 284.158 25.4554C284.092 25.6113 283.982 25.7478 283.826 25.8647C283.683 25.9817 283.495 26.0857 283.261 26.1766C283.04 26.2546 282.78 26.3196 282.481 26.3715C282.195 26.4105 281.864 26.43 281.487 26.43C280.902 26.43 280.389 26.3585 279.947 26.2156C279.505 26.0727 279.168 25.8582 278.934 25.5724C278.713 25.2865 278.602 24.9356 278.602 24.5198V24.3444C278.602 24.2794 278.609 24.2274 278.622 24.1884H275.737C275.724 24.2274 275.717 24.2859 275.717 24.3639V24.5588C275.717 25.3125 275.867 25.9557 276.166 26.4885C276.478 27.0083 276.9 27.4436 277.433 27.7945C277.979 28.1323 278.602 28.3792 279.304 28.5352ZM295.282 17.6001V28.5352H298.206V17.6001H302.513V15.1636H290.994V17.6001H295.282Z" fill="url(#paint0_linear_8683_31973)"/>
</g>
<defs>
<linearGradient id="paint0_linear_8683_31973" x1="151.167" y1="1" x2="151.167" y2="43" gradientUnits="userSpaceOnUse">
<stop stop-color="#C9CBCF"/>
<stop offset="1" stop-color="#94979E"/>
</linearGradient>
<clipPath id="clip0_8683_31973">
<rect width="303" height="44" fill="white"/>
</clipPath>
</defs>
</svg>
