<svg width="256" height="44" viewBox="0 0 256 44" fill="none" xmlns="http://www.w3.org/2000/svg">
<path fill-rule="evenodd" clip-rule="evenodd" d="M0 36.5878V7H3.45515V24.8279H3.53862L10.0283 15.8929H14.2413L7.16404 24.7858L15.5065 36.5878H11.1233L3.53862 24.9903H3.45515V36.5878H0ZM29.8411 22.5714V36.5878H33.2964V21.9156C33.2964 17.2468 31.2734 15.4838 27.6513 15.4838C24.8705 15.4838 23.268 16.1396 21.8793 18.5585H21.709V7H18.2539V36.5878H21.709V24.4156C21.709 20.9318 22.5937 18.2273 26.0488 18.2273C28.9966 18.2273 29.8411 20.0292 29.8411 22.5714ZM38.3555 26.5571C38.3555 20.4922 39.07 15.4922 46.4444 15.4922C53.8187 15.4922 54.5364 20.4922 54.5364 26.5571C54.5364 35.6967 50.9544 37.0052 46.4444 37.0052C41.9343 37.0052 38.3555 35.6935 38.3555 26.5571ZM50.911 25.122C50.911 19.4662 49.0983 18.2389 46.4444 18.2389C43.7902 18.2389 41.9775 19.4695 41.9775 25.122C41.9775 31.8429 42.8622 34.2616 46.4444 34.2616C50.0264 34.2616 50.911 31.8429 50.911 25.122ZM58.5392 30.2799C58.4125 35.0326 61.2759 37.0001 65.8686 37.0006C70.0807 37.0002 73.2814 35.2371 73.2814 30.689C73.2814 27.1029 69.8533 25.5805 66.8926 24.2656C64.6424 23.2663 62.6621 22.3868 62.6621 20.8123C62.6621 19.0104 64.0975 18.0266 65.9504 18.0266C68.1403 18.0266 69.3221 19.1727 69.2787 21.3448H73.1144C73.4114 17.2474 70.1667 15.4844 66.3743 15.4844C60.392 15.4844 59.0434 18.9682 59.0434 21.1402C59.0434 24.6325 62.4253 26.1799 65.372 27.5281C67.6469 28.569 69.6625 29.4912 69.6625 31.098C69.6625 33.2312 68.0635 34.2539 65.997 34.2539C62.5018 34.2539 62.4584 31.4681 62.4584 30.2799H58.5392ZM81.2637 7H77.8086V36.5878H81.2637V7ZM97.6901 33.6058H97.7736V33.609V36.5993H101.566C101.312 35.0019 101.145 33.3201 101.145 31.6805V21.7227C101.145 18.2389 99.713 15.4922 94.2348 15.4922C89.7281 15.4922 87.1977 17.0928 87.0308 21.7227H90.7797C90.5694 19.5506 91.7913 18.0344 94.1081 18.0344C97.817 18.0344 97.7736 21.0279 97.6901 23.7714C92.8428 23.6513 86.5234 23.937 86.5234 30.2065C86.5234 34.1804 87.8286 37.0084 92.3389 37.0084C94.9928 37.0084 96.6386 35.9824 97.6901 33.6058ZM93.3068 34.2616C90.9901 34.2616 89.9786 32.4565 89.9786 30.45C89.9786 26.3577 93.8315 26.3348 97.0157 26.3159H97.016H97.0162C97.2449 26.3145 97.4701 26.3132 97.6901 26.3104C98.0272 32.9923 95.4133 34.2616 93.3068 34.2616ZM113.961 15.8906H117.837L122.597 33.4297H122.684L127.825 15.8906H131.447L124.79 36.5855H120.28L113.961 15.8906ZM142.36 34.2616C139.666 34.2616 138.064 33.1156 138.064 27.3364H150.028V25.5734C150.028 18.7292 148.509 15.4922 142.444 15.4922C135.069 15.4922 134.352 20.4922 134.352 26.5571C134.352 35.6967 137.974 37.0084 142.444 37.0084C146.914 37.0084 149.818 34.9175 149.861 30.3267H146.069C145.942 32.4175 144.72 34.2616 142.36 34.2616ZM142.106 18.0311C144.637 18.0311 146.363 18.7714 146.363 24.7941H146.359H138.06C138.104 19.0571 139.917 18.0311 142.106 18.0311ZM166.887 36.5916V22.2474C166.887 20.0363 166.086 18.2311 163.138 18.2311C159.346 18.2311 158.798 21.5104 158.798 24.3383V36.5916H155.343V20.1987C155.343 18.7636 155.26 17.3318 155.133 15.8967H158.798V18.5591H158.969C160.317 16.2246 161.916 15.4844 164.657 15.4844C169.207 15.4844 170.346 18.1467 170.346 22.2441V36.5884H166.891L166.887 36.5916ZM176.37 11.9225V15.8965H172.875V18.4387H176.37V33.1466C176.37 35.5231 177.845 36.8348 181.131 36.8348C181.813 36.8348 182.494 36.7465 183.175 36.6581C183.632 36.5988 184.089 36.5395 184.546 36.507V33.9257C184.299 33.9532 184.074 33.9804 183.875 34.0045L183.874 34.0047L183.872 34.0049L183.871 34.005C183.46 34.0547 183.157 34.0914 182.986 34.0914C179.825 34.0914 179.825 32.4128 179.825 31.1011V18.4387H184.46V15.8965H179.825V10.4062L176.37 11.9225ZM198.668 15.8906H202.123V32.2835C202.123 33.7185 202.208 35.1504 202.333 36.5855H198.668V34.0854H198.541C197.403 35.9717 195.38 36.9945 193.15 36.9945C189.442 36.9945 187.418 35.1926 187.418 31.6665V15.8906H190.873V30.2348C190.873 32.7347 192.056 34.4133 194.5 34.4133C196.351 34.4133 198.668 33.0594 198.668 29.6179V15.8906ZM211.602 19.0149H211.518V15.9013H208.062V36.5961H211.518V24.3851C211.518 21.5993 212.487 18.7714 216.323 18.7714C216.657 18.7714 216.953 18.8104 217.248 18.8526C217.392 18.8732 217.546 18.893 217.7 18.9127C217.862 18.9335 218.024 18.9543 218.174 18.9759V15.4922C214.804 15.4922 213.034 15.8591 211.602 19.0149ZM224.92 27.3364C224.92 33.1156 226.522 34.2616 229.215 34.2616C231.576 34.2616 232.798 32.4175 232.925 30.3267H236.717C236.673 34.9175 233.77 37.0084 229.3 37.0084C224.83 37.0084 221.207 35.6967 221.207 26.5571C221.207 20.4922 221.925 15.4922 229.3 15.4922C235.365 15.4922 236.885 18.7292 236.885 25.5734V27.3364H224.92ZM233.219 24.7941C233.219 18.7714 231.492 18.0311 228.963 18.0311C226.773 18.0311 224.959 19.0571 224.916 24.7941H233.216H233.219ZM241.149 30.2799C241.022 35.0331 243.887 37.0006 248.479 37.0006H248.474C252.69 37.0006 255.891 35.2377 255.891 30.689C255.891 27.1029 252.463 25.5805 249.503 24.2656C247.253 23.2663 245.273 22.3868 245.273 20.8123C245.273 19.0104 246.707 18.0266 248.56 18.0266C250.75 18.0266 251.933 19.1727 251.889 21.3448H255.723C256.022 17.2474 252.776 15.4844 248.984 15.4844C243.002 15.4844 241.653 18.9682 241.653 21.1402C241.653 24.6325 245.035 26.1799 247.981 27.5281C250.256 28.569 252.272 29.4912 252.272 31.098C252.272 33.2312 250.669 34.2539 248.606 34.2539C245.112 34.2539 245.068 31.4681 245.068 30.2799H241.149Z" fill="url(#paint0_linear_8683_31992)"/>
<defs>
<linearGradient id="paint0_linear_8683_31992" x1="127.945" y1="7" x2="127.945" y2="37.0084" gradientUnits="userSpaceOnUse">
<stop stop-color="#C9CBCF"/>
<stop offset="1" stop-color="#94979E"/>
</linearGradient>
</defs>
</svg>
