<svg width="92" height="44" viewBox="0 0 92 44" fill="none" xmlns="http://www.w3.org/2000/svg">
<path fill-rule="evenodd" clip-rule="evenodd" d="M37.1458 4.4225V8.0944H37.1443H28.0776V11.8969H36.2321V15.4106H28.0776V19.2407H37.135V22.8865H24.0135V4.4225H37.1458ZM52.8821 16.3078V4.4225H56.9462V22.8865H52.8821L44.2059 11.3161V22.8865H40.1434V4.4225H43.9466L52.8821 16.3078ZM64.5805 4.4225V19.2131H72.3444V22.885H60.5163V4.4225H64.5805ZM10.2653 16.2648L16.3792 4.4225H20.4433V22.8865H16.3792V13.3073L11.4337 22.8865H9.0969L4.13287 13.2735V22.8865H0.0703125V4.4225H4.1514L10.2653 16.2648ZM76.0241 13.5362C76.0241 16.8102 78.642 19.465 81.8726 19.465C85.1016 19.465 87.721 16.8102 87.721 13.5362C87.721 10.2622 85.1032 7.60737 81.8726 7.60737C78.642 7.60737 76.0241 10.2622 76.0241 13.5362ZM72.4663 13.5362C72.4663 8.26955 76.6771 4 81.8726 4C87.0666 4 91.2777 8.26955 91.2777 13.5362C91.2777 18.8028 87.0681 23.0724 81.8726 23.0724C76.6771 23.0724 72.4663 18.8028 72.4663 13.5362ZM4.05164 38.5403L6.71268 31.6328H7.84408L4.57798 39.8432H3.37094L0.117188 31.6328H1.26248L4.0007 38.5403H4.05164ZM18.99 39.8432H13.2188V31.6328H18.8758V32.5715H14.2992V35.1511H17.9374V36.0776H14.2992V38.9045H18.99V39.8432ZM30.2876 31.6328V37.915L25.853 31.6328H24.6953V39.8432H25.7372V33.249L30.4419 39.8432H31.3294V31.6328H30.2876ZM39.7638 39.8432V32.5715H36.8203V31.6328H43.8634V32.5715H40.869V39.8432H39.7638ZM49 31.6328V36.7028C49 39.1011 50.4539 39.9998 52.2784 39.9998C54.1029 39.9998 55.5692 39.1011 55.5692 36.7028V31.6328H54.4764V36.7289C54.4764 38.2791 53.6939 39.0488 52.2784 39.0488C50.863 39.0488 50.1051 38.2791 50.1051 36.7151V31.6328H49ZM64.6791 35.632C66.0544 35.632 66.6718 35.1111 66.6718 34.094C66.6718 33.1553 66.0544 32.5562 64.6791 32.5562H62.5444V35.632H64.6791ZM66.749 39.8416C66.5946 39.6204 66.4788 39.0212 66.414 38.0564C66.3631 37.1438 65.9386 36.5323 64.8334 36.5323H62.5459V39.8432H61.4531V31.6328H64.7439C66.8015 31.6328 67.7908 32.5977 67.7908 34.0572C67.7908 35.3216 66.9419 35.9853 65.9525 36.1037C66.9419 36.2988 67.4173 36.9118 67.4945 37.8766L67.4967 37.9023C67.5984 39.0833 67.6384 39.5472 67.9066 39.8447H66.749V39.8416ZM73.5898 39.8432H79.3626V38.9045H74.6703V36.0776H78.3085V35.1511H74.6703V32.5715H79.2469V31.6328H73.5898V39.8432ZM85.1743 36.85C85.2392 38.3495 86.2534 39.1177 87.6162 39.1177C88.8248 39.1177 89.5827 38.5969 89.5827 37.6966C89.5827 36.9407 89.0949 36.575 88.0408 36.3676L86.4339 36.0542C85.2392 35.8191 84.415 35.1677 84.415 33.891C84.415 32.4576 85.534 31.4805 87.3075 31.4805C89.3388 31.4805 90.5084 32.5759 90.521 34.4256L89.5055 34.4779C89.4669 33.1228 88.6566 32.3531 87.3199 32.3531C86.1499 32.3531 85.4939 32.9139 85.4939 33.825C85.4939 34.6331 86.0203 34.8943 86.9587 35.0755L88.4235 35.3628C89.9022 35.6502 90.6479 36.3016 90.6479 37.6182C90.6479 39.13 89.362 40.0027 87.6132 40.0027C85.6205 40.0027 84.168 38.8949 84.168 36.9146L85.1713 36.85H85.1743ZM0 26.9023H90.7299V27.6044H0V26.9023Z" fill="url(#paint0_linear_8683_31978)"/>
<defs>
<linearGradient id="paint0_linear_8683_31978" x1="45.6388" y1="4" x2="45.6388" y2="40.0027" gradientUnits="userSpaceOnUse">
<stop stop-color="#C9CBCF"/>
<stop offset="1" stop-color="#94979E"/>
</linearGradient>
</defs>
</svg>
