<svg width="135" height="44" viewBox="0 0 135 44" fill="none" xmlns="http://www.w3.org/2000/svg">
<path d="M34.5255 14.7987C26.3053 14.7987 24.3616 21.661 24.3616 26.1606C24.3616 32.4606 27.6114 36.9964 34.1131 36.9964C42.3333 36.9964 44.2769 30.098 44.2769 25.5984C44.2769 19.3001 41.0272 14.8005 34.5255 14.8005V14.7987ZM34.376 34.3336C30.2649 34.3336 28.8833 31.1084 28.8833 25.9347C28.8833 20.3848 30.4523 17.4598 34.2643 17.4598C38.3375 17.4598 39.757 20.6469 39.757 25.8207C39.757 31.4068 38.188 34.3318 34.376 34.3318V34.3336ZM57.2062 33.2471C57.2062 33.8852 56.7576 36.8843 52.0504 36.8843C49.6599 36.8843 48.388 36.0219 47.6781 34.8977C47.0424 33.9232 46.819 32.6108 46.819 29.8737C46.819 24.6294 46.8567 19.8135 46.8891 17.8376H44.5021C44.5778 17.7996 45.8479 16.7132 47.1918 14.5764C48.6114 12.4396 49.359 10.677 49.359 10.677H51.0398V15.3646H53.4304C56.4947 15.3646 57.0927 14.9524 57.0927 14.9524C57.0927 14.9524 57.0549 15.4766 57.0549 16.6029C57.0549 17.7291 57.0927 18.2154 57.0927 18.2154C57.0927 18.2154 56.5325 17.8412 53.4304 17.8412H51.0398V30.0273C51.0398 31.714 51.1514 32.3522 51.4883 33.0264C51.8991 33.8509 52.6845 34.377 54.1041 34.377C56.1974 34.377 57.2062 33.2525 57.2062 33.2525V33.2471ZM19.8038 9.84904C21.8214 9.84904 22.6807 9.77312 22.6807 9.77312L22.3439 10.4113C21.6342 11.7617 21.4467 12.0979 21.4467 23.3477L21.409 36.5842C21.409 36.5842 21.2702 36.5679 21.0108 36.5462L18.195 29.5195V22.9735C18.195 12.0618 18.0455 11.9117 17.2601 10.4131L16.9232 9.77493C16.9232 9.77493 17.8582 9.85087 19.8002 9.85087H19.8038V9.84904ZM16.6962 29.2916L19.575 36.4775C19.3786 36.4739 19.1696 36.4703 18.9445 36.4703C17.1502 36.4703 16.0675 36.5823 16.0675 36.5823L5.49275 16.1492C4.93247 15.0627 4.52174 13.6743 4.4839 13.4122V23.3477C4.4839 34.2593 4.5956 34.4095 5.38104 35.9081L5.71793 36.5462C5.71793 36.5462 4.78296 36.4721 2.80312 36.4721C0.823281 36.4721 0 36.5462 0 36.5462L0.336878 35.9081C1.00883 34.5577 1.27185 34.2214 1.27185 22.9717C1.27185 11.7219 1.12053 11.9117 0.336878 10.4113L0 9.77312C0 9.77312 0.934974 9.84904 3.47507 9.84904C5.60443 9.84904 6.61327 9.77312 6.61327 9.77312L16.6962 29.2898V29.2916ZM89.5484 14.8367C86.2986 14.8367 84.2431 16.2233 83.2343 19.1121C83.2343 19.1121 83.4215 17.9497 83.4215 15.737V14.7626C83.4215 11.0512 83.5332 7.00181 83.5332 7.00181L78.0405 7.93823L78.3773 8.57638C78.9755 9.66284 79.3124 10.7132 79.3124 17.2013V26.6505C79.3124 34.7113 78.9755 37 78.9755 37L82.8235 34.8631C82.8235 34.8631 84.4305 36.9639 88.3901 36.9639C93.0974 36.9639 97.8443 34.4149 97.8443 25.452C97.8443 15.4025 91.4165 14.8403 89.5484 14.8403V14.8367ZM87.2695 34.3336C84.6159 34.3336 83.4215 33.2471 83.4215 33.2471L83.2361 19.2603C83.6539 19.0362 84.0828 18.8337 84.5187 18.6601C84.551 18.6366 84.5854 18.6168 84.6177 18.5951C84.6539 18.5716 84.6898 18.5481 84.7258 18.5264C84.7601 18.5047 84.7961 18.4848 84.8302 18.4631C84.8754 18.4378 84.9204 18.4125 84.9654 18.389C85.0122 18.3637 85.0608 18.3402 85.1096 18.3167C85.1546 18.295 85.1996 18.2751 85.2446 18.2534C85.279 18.2389 85.3149 18.2227 85.3509 18.2082C85.3995 18.1883 85.4501 18.1702 85.4987 18.1503C85.5347 18.1377 85.5689 18.125 85.605 18.1124C85.6735 18.0889 85.7418 18.0672 85.8121 18.0473C85.8464 18.0383 85.8806 18.0292 85.9148 18.0184C85.9724 18.0039 86.0301 17.9895 86.0895 17.975C86.1202 17.9678 86.149 17.9605 86.1797 17.9533C86.2643 17.9352 86.3508 17.919 86.439 17.9045C86.4679 17.8991 86.4985 17.8955 86.5292 17.89C86.5993 17.8792 86.6696 17.8701 86.7418 17.8611C86.7723 17.8575 86.8012 17.8539 86.8317 17.8503C86.929 17.8394 87.03 17.8304 87.1327 17.8231C87.1525 17.8231 87.174 17.8231 87.1939 17.8195C87.2821 17.8141 87.3741 17.8087 87.4659 17.8051C87.4964 17.8051 87.5272 17.8051 87.5595 17.8014C87.6712 17.7978 87.7865 17.796 87.9036 17.796C88.0207 17.796 88.1451 17.7996 88.2622 17.8069C88.3775 17.8141 88.491 17.8231 88.6027 17.8358C88.6135 17.8358 88.6261 17.8358 88.6386 17.8394C88.7125 17.8485 88.7828 17.8611 88.8549 17.8719C88.8963 17.8792 88.9395 17.8846 88.9791 17.8918C89.044 17.9045 89.1089 17.919 89.1719 17.9334C89.2169 17.9443 89.2619 17.9515 89.3053 17.9642C89.3666 17.9804 89.4258 17.9985 89.4853 18.0148C89.5287 18.0274 89.5737 18.0401 89.6169 18.0545C89.6745 18.0726 89.7304 18.0943 89.7862 18.116C89.8294 18.1323 89.871 18.1467 89.9142 18.1648C89.9682 18.1865 90.0222 18.21 90.0745 18.2353C90.1158 18.2534 90.1574 18.2733 90.197 18.2913C90.2474 18.3167 90.2978 18.3438 90.3483 18.3691C90.3878 18.3908 90.4276 18.4125 90.4654 18.4342C90.514 18.4631 90.5608 18.492 90.6078 18.5209C90.6455 18.5444 90.6833 18.5698 90.7195 18.5932C90.7645 18.624 90.8113 18.6565 90.8545 18.6891C90.8906 18.7162 90.9248 18.7415 90.9607 18.7686C91.0041 18.803 91.0473 18.8373 91.0887 18.8716C91.123 18.9006 91.1554 18.9295 91.1895 18.9584C91.2311 18.9946 91.2707 19.0325 91.3102 19.0705C91.3428 19.1012 91.3733 19.132 91.404 19.1645C91.4418 19.2043 91.4814 19.2422 91.5175 19.2838C91.5481 19.3164 91.577 19.3507 91.6057 19.3832C91.6417 19.4248 91.6778 19.4664 91.7138 19.5098C91.7409 19.5441 91.7678 19.5803 91.7949 19.6146C91.8291 19.6598 91.8633 19.7032 91.8976 19.7484C91.9227 19.7846 91.948 19.8207 91.9733 19.8569C92.0057 19.9039 92.038 19.9509 92.0705 19.9997C92.0939 20.0358 92.1137 20.072 92.1354 20.1082C92.2489 20.2926 92.3534 20.4878 92.4488 20.6885C92.4687 20.7318 92.4902 20.7734 92.5101 20.8168C92.5336 20.8674 92.5551 20.9217 92.5767 20.9723C92.5966 21.0193 92.6163 21.0663 92.6362 21.1133C92.6577 21.1657 92.6758 21.2181 92.6957 21.2706C92.7137 21.3212 92.7334 21.37 92.7515 21.4206C92.7694 21.473 92.7875 21.5255 92.8055 21.5797C92.8236 21.6321 92.8397 21.6827 92.8578 21.737C92.874 21.7894 92.8901 21.8436 92.9064 21.8979C92.9226 21.9521 92.9387 22.0063 92.9532 22.0606C92.9677 22.1148 92.9821 22.169 92.9964 22.2233C93.0108 22.2793 93.0253 22.3354 93.0379 22.3914C93.0506 22.4456 93.0631 22.4998 93.0757 22.5559L93.1135 22.7294C93.1243 22.7837 93.1352 22.8397 93.146 22.8958C93.1569 22.9554 93.1675 23.0151 93.1784 23.0747C93.1874 23.1308 93.1983 23.185 93.2073 23.241C93.2181 23.3025 93.227 23.364 93.236 23.4272C93.2451 23.4815 93.2523 23.5375 93.2595 23.5936C93.2686 23.6568 93.2758 23.7219 93.2828 23.7852C93.2901 23.8394 93.2955 23.8955 93.3027 23.9497C93.3099 24.0148 93.3172 24.0817 93.3226 24.1485C93.328 24.2028 93.3334 24.257 93.3369 24.3112C93.3423 24.3799 93.3477 24.4486 93.3531 24.5173C93.3568 24.5698 93.3604 24.6222 93.364 24.6746C93.3694 24.7487 93.3712 24.821 93.3766 24.8951C93.3784 24.944 93.382 24.9928 93.3839 25.0416C93.3875 25.1247 93.3893 25.206 93.3909 25.2892C93.3909 25.3291 93.3945 25.3707 93.3945 25.4104C93.3963 25.5333 93.3981 25.658 93.3981 25.7809C93.3981 31.1807 91.6796 34.33 87.2695 34.33V34.3336ZM105.69 35.9099L106.027 36.548C106.027 36.548 105.092 36.4739 102.701 36.4739C100.311 36.4739 99.3755 36.548 99.3755 36.548L99.7124 35.9099C100.422 34.5975 100.646 33.8473 100.646 26.3486V17.9497C100.646 11.1253 100.422 10.0009 99.7124 8.61253L99.3755 7.97439L104.868 7C104.868 7 104.757 11.0494 104.757 14.7608V26.3467C104.757 33.5833 104.944 34.5216 105.692 35.9081L105.69 35.9099ZM76.0211 28.5794L76.0139 22.8451C76.0139 19.1862 76.1201 15.2416 76.1201 15.2416L70.8671 16.1383L71.1246 16.6246C70.3608 16.2215 69.1213 15.784 67.3289 15.784C62.8612 15.784 58.3214 18.2227 58.3214 26.759C58.3214 36.3709 64.4339 36.9096 66.2552 36.9096C69.5429 36.9096 71.4381 35.4398 72.3676 32.6776L72.2254 36.8374L77.2298 35.9406L76.9073 35.3314C76.3849 34.3806 76.0715 33.4586 76.0211 28.5794ZM67.7937 34.1111C63.8268 34.1111 62.5404 30.3817 62.5404 26.4714C62.5404 21.2706 64.1852 18.295 68.4025 18.295C70.9408 18.295 72.0848 19.3001 72.0848 19.3001V32.2835C70.9769 33.6104 69.8689 34.113 67.7955 34.113H67.7937V34.1111ZM117.535 14.7987C112.379 14.7987 108.118 18.1738 108.118 26.0106C108.118 33.3971 112.08 36.9223 117.758 36.9223C123.436 36.9223 125.418 34.1852 125.418 31.4484C125.418 31.4484 124.072 34.0352 118.916 34.0352C113.76 34.0352 112.49 29.9858 112.49 26.0486H126.241V25.7104C126.241 21.473 125.531 14.7987 117.535 14.7987ZM116.465 17.2663C116.785 17.2175 117.108 17.1995 117.423 17.1995C117.909 17.1995 118.342 17.2519 118.729 17.3495C118.884 17.3893 119.03 17.4345 119.17 17.4869C119.241 17.514 119.309 17.5411 119.374 17.57C121.673 18.5914 121.869 21.4893 121.869 23.3477L112.49 24.06C112.582 19.2459 114.301 17.7255 116.144 17.3242C116.25 17.3007 116.356 17.2808 116.465 17.2663ZM135 33.9973C135 35.6334 133.678 36.9602 132.047 36.9602C130.417 36.9602 129.095 35.6334 129.095 33.9973C129.095 32.3612 130.417 31.0343 132.047 31.0343C133.678 31.0343 135 32.3612 135 33.9973Z" fill="url(#paint0_linear_8683_31971)"/>
<defs>
<linearGradient id="paint0_linear_8683_31971" x1="67.5" y1="7" x2="67.5" y2="37" gradientUnits="userSpaceOnUse">
<stop stop-color="#C9CBCF"/>
<stop offset="1" stop-color="#94979E"/>
</linearGradient>
</defs>
</svg>
