<svg width="180" height="44" viewBox="0 0 180 44" fill="none" xmlns="http://www.w3.org/2000/svg">
<path fill-rule="evenodd" clip-rule="evenodd" d="M177.567 13.96H177.093V14.5358H177.567C177.789 14.5358 177.931 14.4371 177.931 14.2536C177.931 14.0587 177.798 13.96 177.567 13.96ZM176.508 13.4259H177.58C178.163 13.4259 178.551 13.741 178.551 14.2334C178.552 14.3703 178.517 14.5052 178.449 14.6241C178.381 14.7429 178.283 14.8414 178.163 14.9092L178.582 15.5091V15.6281H177.975L177.567 15.0509H177.093V15.6281H176.508V13.4259ZM179.497 14.5675C179.497 13.3905 178.704 12.4982 177.488 12.4982C176.295 12.4982 175.502 13.3474 175.502 14.5675C175.502 15.7318 176.295 16.638 177.488 16.638C178.704 16.638 179.497 15.7445 179.497 14.5675ZM179.996 14.5675C179.996 15.9508 179.058 17.1075 177.491 17.1075C175.936 17.1075 175.007 15.9432 175.007 14.5675C175.007 13.1854 175.934 12.0287 177.491 12.0287C179.058 12.0312 179.996 13.1842 179.996 14.5675ZM39.5694 19.4919L34.7323 22.2522L39.5694 25.0049C39.8585 25.1674 40.1124 25.3859 40.3162 25.6475C40.52 25.9092 40.6696 26.2088 40.7563 26.5289C40.843 26.849 40.8651 27.1832 40.8212 27.5119C40.7774 27.8407 40.6685 28.1574 40.5009 28.4436C40.1566 29.0213 39.5996 29.441 38.9493 29.6125C38.2991 29.7841 37.6075 29.6938 37.023 29.3611L28.3599 24.4253C27.8047 24.1122 27.3906 23.5981 27.2032 22.9888C27.1184 22.7249 27.0794 22.4483 27.088 22.1712C27.0943 21.9725 27.1234 21.7751 27.1766 21.5764C27.35 20.9626 27.755 20.412 28.3561 20.0653L37.0167 15.1357C37.6017 14.8019 38.2946 14.7116 38.9456 14.8845C39.5967 15.0574 40.1535 15.4795 40.4958 16.0596C41.2059 17.262 40.7907 18.7959 39.5694 19.4919ZM34.9892 32.8681L26.3324 27.9411C25.8855 27.6838 25.3707 27.5689 24.8567 27.6121C24.2199 27.6543 23.6226 27.9363 23.1854 28.4013C22.7481 28.8663 22.5033 29.4797 22.5002 30.118V39.9847C22.5002 41.3768 23.6354 42.5007 25.0466 42.5007C26.4565 42.5007 27.5955 41.3743 27.5955 39.9847V34.4666L32.4428 37.2269C33.0268 37.5626 33.7195 37.6546 34.3709 37.4828C35.0222 37.311 35.5795 36.8894 35.9219 36.3093C36.6244 35.107 36.2105 33.5642 34.9892 32.8681ZM24.9985 23.2179L21.3991 26.7641C21.2755 26.8786 21.1155 26.9458 20.9473 26.954H19.8905C19.723 26.9443 19.5639 26.8773 19.4399 26.7641L15.8406 23.2179C15.7287 23.0965 15.6629 22.9398 15.6545 22.7749V21.7295C15.663 21.5632 15.7287 21.4049 15.8406 21.2815L19.4374 17.734C19.5617 17.6221 19.7209 17.5564 19.888 17.548H20.9473C21.1149 17.5555 21.2747 17.6213 21.3991 17.734L24.9985 21.2815C25.1104 21.4049 25.1761 21.5632 25.1845 21.7295V22.7749C25.1845 22.9142 25.1023 23.1166 24.9985 23.2179ZM22.1218 22.2333C22.1102 22.0667 22.0429 21.9089 21.9307 21.7852L20.8891 20.7601C20.764 20.6485 20.6046 20.5828 20.4372 20.574H20.3955C20.2293 20.5831 20.0712 20.6487 19.9475 20.7601L18.9059 21.7852C18.7961 21.9096 18.7318 22.0676 18.7236 22.2333V22.2738C18.7236 22.4168 18.8033 22.6155 18.9059 22.7167L19.9475 23.7444C20.0512 23.8456 20.2512 23.9317 20.3955 23.9317H20.4372C20.6047 23.9221 20.7639 23.856 20.8891 23.7444L21.9307 22.7167C22.0434 22.5954 22.1109 22.439 22.1218 22.2738V22.2333ZM5.84986 11.6262L14.5091 16.5595C14.9762 16.8253 15.4925 16.9291 15.9874 16.8886C16.6245 16.8449 17.2215 16.5619 17.6588 16.0965C18.0961 15.631 18.3413 15.0175 18.3452 14.3789V4.51349C18.3452 3.12639 17.2036 2 15.7988 2C14.3889 2 13.2499 3.12639 13.2499 4.51349V10.0341L8.39879 7.26746C7.81422 6.93328 7.12166 6.84246 6.47069 7.01462C5.81972 7.18678 5.26259 7.60808 4.91964 8.18755C4.75197 8.47376 4.64298 8.7905 4.59903 9.11928C4.55507 9.44807 4.57703 9.78231 4.66362 10.1025C4.75021 10.4227 4.8997 10.7225 5.10336 10.9843C5.30703 11.2461 5.5608 11.4635 5.84986 11.6262ZM24.8567 16.8886C25.3529 16.9291 25.8692 16.8253 26.3324 16.5595L34.9892 11.6275C35.2781 11.4646 35.5317 11.2459 35.7354 10.9842C35.939 10.7224 36.0885 10.4228 36.1753 10.1027C36.2621 9.7826 36.2844 9.44845 36.2409 9.11967C36.1974 8.7909 36.089 8.47405 35.9219 8.18755C35.5788 7.60834 35.0216 7.18724 34.3708 7.01511C33.7199 6.84298 33.0274 6.93362 32.4428 7.26746L27.5955 10.0341V4.51349C27.5955 3.12639 26.4565 2 25.0466 2C23.6354 2 22.5002 3.12639 22.5002 4.51349V14.3776C22.4964 15.7027 23.5354 16.7911 24.8567 16.8873V16.8886ZM15.9874 27.6108C15.4726 27.5672 14.9568 27.682 14.5091 27.9399L5.84986 32.8669C5.561 33.0301 5.30744 33.2491 5.10388 33.5111C4.90032 33.7731 4.75081 34.0729 4.66404 34.3932C4.57727 34.7134 4.55496 35.0477 4.5984 35.3766C4.64184 35.7056 4.75017 36.0226 4.91711 36.3093C5.26092 36.8879 5.81832 37.3082 6.46914 37.4796C7.11996 37.651 7.81207 37.5598 8.39626 37.2256L13.2473 34.4653V39.9834C13.2473 41.3756 14.3864 42.4994 15.7963 42.4994C17.2011 42.4994 18.3427 41.373 18.3427 39.9834V30.118C18.3405 29.4797 18.0964 28.866 17.6595 28.4007C17.2226 27.9354 16.6255 27.6531 15.9886 27.6108H15.9874ZM13.6397 22.9888C13.7226 22.7245 13.7611 22.4482 13.7536 22.1712C13.7394 21.74 13.6144 21.3196 13.3905 20.9507C13.1666 20.5818 12.8514 20.2769 12.4753 20.0653L3.82362 15.137C2.60231 14.4434 1.04435 14.8548 0.344471 16.0609C-0.363003 17.2632 0.0559133 18.7971 1.27722 19.4932L6.11311 22.2535L1.27469 25.0062C0.985462 25.1686 0.731478 25.3869 0.527571 25.6485C0.323665 25.9102 0.173923 26.2098 0.087088 26.5299C0.00025338 26.85 -0.0219332 27.1842 0.0218239 27.513C0.0655809 27.8418 0.174404 28.1586 0.34194 28.4449C0.68577 29.0234 1.24307 29.4437 1.89381 29.6154C2.54456 29.787 3.23667 29.6961 3.82109 29.3624L12.4753 24.4265C13.0626 24.0975 13.4574 23.5748 13.6397 22.9888ZM121.049 8.24577H120.81C120.778 8.24577 120.748 8.24957 120.716 8.2521C120.686 8.24957 120.657 8.24577 120.624 8.24577C120.01 8.24577 119.411 8.31664 118.853 8.49889C118.295 8.67174 117.794 8.99433 117.405 9.43164L117.403 9.42785V9.43417C116.995 9.87967 116.73 10.4125 116.564 11.0187C116.402 11.6262 116.335 12.3109 116.328 13.0918V14.6004H114.644C114.369 14.598 114.104 14.7044 113.907 14.8965C113.711 15.0885 113.598 15.3506 113.593 15.6255C113.591 15.9145 113.701 16.1933 113.9 16.4026C114.1 16.6065 114.37 16.7283 114.655 16.7443H116.328V29.0144L116.326 29.0435C116.326 29.332 116.446 29.5966 116.644 29.7864C116.839 29.9724 117.113 30.0825 117.411 30.0825C117.686 30.0812 117.95 29.9709 118.144 29.7757C118.338 29.5805 118.447 29.3163 118.447 29.041V16.738H120.258C120.542 16.7253 120.811 16.6065 121.011 16.4051C121.112 16.3049 121.192 16.1855 121.247 16.0541C121.301 15.9227 121.329 15.7817 121.329 15.6394V15.5989C121.324 15.0459 120.854 14.5941 120.271 14.5941H118.446V13.0918C118.458 12.4273 118.528 11.9299 118.628 11.5693C118.726 11.2048 118.861 10.9769 118.98 10.8352C119.123 10.6877 119.302 10.5792 119.499 10.5201C119.749 10.4391 120.097 10.3897 120.567 10.3897H120.623C120.649 10.3897 120.68 10.3834 120.706 10.3834C120.738 10.3834 120.769 10.3897 120.804 10.3897H121.04C121.641 10.3897 122.125 9.90878 122.125 9.31774C122.126 9.17631 122.099 9.03607 122.045 8.90523C121.992 8.77439 121.912 8.65557 121.812 8.55574C121.712 8.45591 121.593 8.37708 121.462 8.32385C121.331 8.27063 121.191 8.24408 121.049 8.24577ZM158.404 16.2039C158.506 16.1059 158.587 15.9885 158.644 15.8585C158.7 15.7286 158.73 15.5887 158.731 15.4471C158.73 15.3085 158.7 15.1716 158.644 15.0452C158.587 14.9188 158.504 14.8057 158.401 14.713H158.404C158.401 14.708 158.397 14.708 158.397 14.708C158.397 14.7016 158.392 14.7016 158.392 14.7016H158.388C158.191 14.5049 157.924 14.3939 157.645 14.3928C157.364 14.3958 157.095 14.509 156.896 14.708L148.557 22.7268V9.25193C148.557 8.67228 148.065 8.19768 147.46 8.19768C147.321 8.19751 147.183 8.22494 147.054 8.27838C146.925 8.33182 146.809 8.41021 146.711 8.50902C146.512 8.7054 146.398 8.97231 146.394 9.25193V28.9827C146.396 29.1209 146.424 29.2574 146.479 29.3844C146.533 29.5115 146.612 29.6266 146.711 29.7231C146.91 29.9204 147.179 30.032 147.46 30.0345C148.065 30.0345 148.557 29.5662 148.557 28.9865V25.7276L151.272 23.0521L156.808 29.6421C156.91 29.794 157.052 29.8978 157.194 29.9535C157.353 30.0117 157.51 30.0345 157.648 30.0345C157.898 30.0394 158.143 29.9605 158.344 29.8104L158.357 29.8016L158.371 29.7877C158.479 29.6849 158.566 29.5616 158.626 29.4249C158.686 29.2882 158.718 29.1409 158.72 28.9916C158.717 28.735 158.624 28.4875 158.457 28.293V28.2904L152.821 21.5321L158.397 16.209H158.404V16.2052V16.2039ZM143.347 14.8472C143.544 15.037 143.666 15.3079 143.666 15.6015V28.9827C143.665 29.1204 143.637 29.2566 143.583 29.3834C143.529 29.5103 143.451 29.6253 143.353 29.7218C143.152 29.9194 142.882 30.0311 142.6 30.0332C142.318 30.031 142.049 29.9194 141.848 29.7218C141.749 29.626 141.67 29.5112 141.615 29.3843C141.561 29.2574 141.532 29.1208 141.532 28.9827V27.6779C140.19 29.108 138.304 30.0332 136.219 30.0332C135.228 30.0323 134.248 29.8286 133.339 29.4347C132.43 29.0407 131.612 28.4648 130.934 27.7424C129.537 26.2729 128.761 24.3212 128.768 22.294C128.768 20.1817 129.591 18.2453 130.934 16.8418C131.612 16.1206 132.431 15.5458 133.34 15.1527C134.249 14.7596 135.229 14.5566 136.219 14.5561C138.304 14.5561 140.19 15.4534 141.532 16.8772V15.604C141.531 15.4646 141.559 15.3265 141.613 15.1978C141.667 15.0692 141.746 14.9526 141.845 14.855C141.945 14.7573 142.063 14.6806 142.192 14.6293C142.322 14.5779 142.461 14.553 142.6 14.5561C142.883 14.5561 143.152 14.6637 143.347 14.8472ZM141.532 22.294C141.532 20.712 140.927 19.2945 139.96 18.2694C138.994 17.2493 137.667 16.6291 136.219 16.6266C134.781 16.6266 133.46 17.2493 132.483 18.2694C131.46 19.3591 130.894 20.7995 130.901 22.294C130.901 23.8747 131.514 25.2808 132.483 26.2971C133.453 27.3134 134.778 27.9247 136.219 27.9247C136.921 27.9234 137.615 27.7785 138.259 27.4991C138.902 27.2196 139.482 26.8114 139.962 26.2996C140.98 25.2153 141.542 23.7811 141.532 22.294ZM55.7059 21.9181C54.844 21.5157 53.867 21.222 52.8937 20.9018C51.9964 20.6019 51.0877 20.3488 50.4385 20.0134C50.1119 19.8413 49.8575 19.659 49.6917 19.454C49.5246 19.261 49.4345 19.0132 49.4386 18.7579C49.4412 18.3706 49.5525 18.0593 49.7449 17.7796C50.0373 17.367 50.527 17.043 51.0611 16.8367C51.5889 16.6266 52.1622 16.5279 52.5723 16.5279C53.7822 16.5304 54.5466 16.9266 55.1339 17.3404C55.4224 17.5467 55.6679 17.7593 55.9008 17.9315C56.0185 18.0213 56.1299 18.1036 56.2602 18.1643C56.3817 18.2225 56.526 18.2719 56.683 18.2719C56.7829 18.2719 56.8804 18.2542 56.9715 18.2162C57.0663 18.1779 57.154 18.124 57.231 18.0568C57.3097 17.9831 57.3749 17.8962 57.4233 17.7998C57.4636 17.7041 57.4847 17.6013 57.4854 17.4974C57.4804 17.3123 57.4295 17.1314 57.3373 16.9709C57.1753 16.6823 56.9272 16.4051 56.6121 16.1254C56.0839 15.6739 55.492 15.3029 54.8554 15.0244C54.1859 14.7282 53.4696 14.527 52.7874 14.527C51.2029 14.527 49.8816 14.8813 48.9223 15.5344C48.4211 15.8761 47.9806 16.2482 47.6718 16.7633C47.3554 17.2797 47.1783 17.9163 47.1555 18.7465V18.8579C47.1517 19.6615 47.4149 20.326 47.8275 20.8461C48.4527 21.6296 49.3829 22.0953 50.2954 22.4282C51.2029 22.7597 52.1154 22.9572 52.6874 23.147C53.4962 23.4115 54.3542 23.7001 54.9832 24.081C55.2959 24.2759 55.5464 24.486 55.7173 24.7164C55.8818 24.9518 55.9767 25.1973 55.9831 25.5048V25.5289C55.9805 25.9769 55.8477 26.3262 55.6262 26.6262C55.2921 27.0755 54.7403 27.4007 54.1543 27.6108C53.6443 27.7889 53.1097 27.8862 52.5697 27.8994C51.1877 27.8994 50.2651 27.5703 49.5918 27.2413C49.2551 27.0755 48.9843 26.9122 48.7362 26.773C48.6214 26.7062 48.5022 26.6475 48.3793 26.5971C48.2577 26.5465 48.1275 26.5198 47.9958 26.5186C47.904 26.5187 47.813 26.5359 47.7275 26.5692C47.6403 26.605 47.5602 26.656 47.4909 26.7198C47.397 26.8069 47.3191 26.9097 47.2605 27.0236C47.2058 27.1355 47.1777 27.2585 47.1782 27.383C47.1782 27.5906 47.2542 27.7766 47.3681 27.9487C47.5415 28.1955 47.7984 28.4145 48.1161 28.636C48.4477 28.8536 48.84 29.0663 49.2906 29.2789C50.2967 29.7472 51.5838 29.9927 52.5634 30.0066H52.5659C54.0885 30.0066 55.4009 29.6611 56.5083 28.8574V28.8536H56.5108C57.5942 28.05 58.2662 26.854 58.2662 25.5023C58.2662 24.7594 58.0891 24.1304 57.7828 23.6166C57.317 22.8382 56.5615 22.3231 55.7059 21.9181ZM125.448 8.19641C125.309 8.1964 125.171 8.22389 125.042 8.27731C124.913 8.33073 124.795 8.40903 124.697 8.50775C124.597 8.60455 124.518 8.72003 124.464 8.84755C124.41 8.97506 124.381 9.11207 124.38 9.25066V28.9815C124.38 29.1198 124.408 29.2568 124.463 29.384C124.517 29.5113 124.597 29.6262 124.697 29.7218C124.898 29.9189 125.167 30.0305 125.448 30.0332C126.053 30.0332 126.543 29.5649 126.546 28.9853V9.25066C126.543 8.66848 126.056 8.19641 125.448 8.19641ZM174.544 21.7954V21.9004C174.544 22.1915 174.411 22.4535 174.21 22.6256C174.004 22.8014 173.742 22.8968 173.472 22.8939H161.504C161.808 25.7757 164.143 27.9057 166.925 27.9247H167.63C168.551 27.9285 169.447 27.6133 170.238 27.0957C171.032 26.5723 171.7 25.88 172.195 25.0682C172.289 24.9084 172.426 24.7781 172.59 24.6923C172.751 24.6078 172.931 24.5653 173.113 24.5689C173.295 24.5724 173.473 24.6218 173.631 24.7126L173.644 24.7189L173.655 24.7278C173.803 24.8298 173.925 24.9658 174.01 25.1243C174.094 25.2828 174.14 25.4593 174.143 25.639C174.143 25.825 174.092 26.0124 173.992 26.1832L173.988 26.1895L173.986 26.1921C173.301 27.2723 172.393 28.193 171.322 28.8916C170.236 29.5877 168.979 30.0269 167.63 30.0269H166.914C165.912 30.0198 164.921 29.8136 164 29.4203C163.078 29.0271 162.244 28.4546 161.546 27.7361C160.128 26.2889 159.336 24.3427 159.339 22.3168C159.339 20.1728 160.186 18.2314 161.564 16.8241C162.268 16.1036 163.109 15.5313 164.038 15.141C164.967 14.7506 165.964 14.55 166.972 14.551C168.993 14.551 170.81 15.3458 172.157 16.6443C173.502 17.9428 174.381 19.7489 174.538 21.7776L174.544 21.7954ZM172.206 20.7993C171.599 18.3706 169.438 16.6418 166.972 16.6443C164.443 16.6443 162.313 18.3365 161.652 20.7993H172.206ZM67.0774 14.5827C65.4767 14.5834 63.9331 15.1777 62.7452 16.2507V15.6394C62.7463 15.3649 62.6406 15.1008 62.4503 14.9029C62.3544 14.8032 62.2394 14.7239 62.1122 14.6695C61.9851 14.6152 61.8483 14.5869 61.7099 14.5865C61.5676 14.5848 61.4264 14.6117 61.2946 14.6656C61.1629 14.7195 61.0433 14.7993 60.943 14.9003C60.7498 15.0979 60.6417 15.3632 60.6418 15.6394V29.2991L60.6861 29.3434L60.6899 29.3485C60.7064 29.3991 60.7298 29.4472 60.7595 29.4915C60.905 29.7446 61.143 29.937 61.4391 30.0218L61.4796 30.0345H61.7099C61.8673 30.0339 62.0227 29.9993 62.1656 29.9332C62.2938 29.8698 62.4056 29.7776 62.4921 29.6636H62.4946C62.5073 29.651 62.5098 29.6383 62.5212 29.6257C62.5792 29.5565 62.6277 29.4799 62.6655 29.3979C62.6959 29.3169 62.7161 29.2384 62.7313 29.1802L62.7402 29.1422V20.9398C62.7667 19.8064 63.2344 18.728 64.0437 17.934C64.8481 17.1342 65.9367 16.6859 67.0711 16.6874C68.2721 16.6874 69.3428 17.1658 70.1199 17.934C70.8983 18.7035 71.3703 19.7603 71.3703 20.9271V28.9827C71.3703 29.2764 71.4969 29.5497 71.6893 29.7358C71.8919 29.9258 72.1594 30.0316 72.4372 30.0316C72.7151 30.0316 72.9825 29.9258 73.1852 29.7358C73.2866 29.6384 73.3671 29.5214 73.422 29.392C73.4768 29.2625 73.5048 29.1233 73.5041 28.9827V20.9271C73.513 17.4531 70.635 14.589 67.0774 14.5827ZM88.2864 16.8506C89.6816 18.3186 90.458 20.2675 90.4544 22.2927C90.4563 24.3173 89.6802 26.2652 88.2864 27.7336C86.9499 29.1422 85.0819 30.0307 83.0038 30.0307C80.9446 30.0307 79.0741 29.1397 77.7313 27.7323C76.336 26.2644 75.558 24.3167 75.558 22.2915C75.558 20.2663 76.336 18.3185 77.7313 16.8506C79.0741 15.4445 80.9459 14.5536 83.0038 14.5536C85.0819 14.5561 86.9499 15.4445 88.2864 16.8506ZM88.3155 22.2927C88.3155 20.7272 87.7042 19.3059 86.7335 18.2808C85.7577 17.2531 84.439 16.6266 83.0012 16.6266C81.5673 16.6266 80.2422 17.2556 79.269 18.2808C78.2484 19.3668 77.6823 20.8024 77.687 22.2927C77.6809 23.7777 78.2476 25.2078 79.269 26.2857C80.2435 27.3083 81.5673 27.9247 83.0025 27.9247C84.4352 27.9247 85.7628 27.3071 86.7335 26.2857C87.7546 25.2081 88.3212 23.7773 88.3155 22.2927ZM111.342 14.6738L111.336 14.67L111.331 14.6675C111.21 14.6147 111.079 14.5867 110.947 14.5852C110.74 14.5884 110.538 14.6479 110.362 14.7573C110.179 14.8706 110.033 15.037 109.946 15.2344V15.2408L105.871 26.2414L102.732 18.8693L102.726 18.8655C102.636 18.667 102.488 18.5005 102.302 18.3883C102.122 18.2749 101.914 18.2149 101.702 18.2153C101.49 18.2158 101.282 18.2767 101.103 18.3909C100.919 18.5032 100.773 18.6686 100.684 18.8655L100.682 18.8693L97.5355 26.2478L93.4438 15.2496H93.4412C93.3708 15.0468 93.2333 14.874 93.0514 14.7598C92.8733 14.6483 92.668 14.5879 92.4579 14.5852C92.3199 14.5852 92.1835 14.6132 92.0567 14.6675H92.0503L92.0453 14.6725C91.8613 14.7577 91.7055 14.8938 91.5962 15.0647C91.487 15.2356 91.429 15.4341 91.4289 15.6369C91.4289 15.7647 91.4542 15.8926 91.5049 16.0204L96.542 29.3687V29.3751C96.5835 29.4829 96.6435 29.5826 96.7192 29.67C96.7856 29.7429 96.8655 29.8022 96.9546 29.8446C96.9723 29.8585 96.9963 29.8826 97.0381 29.9054C97.0841 29.932 97.1348 29.9496 97.1874 29.9573C97.276 29.9864 97.3975 30.0307 97.557 30.0307C97.7595 30.0307 97.9493 29.9573 98.1202 29.8497C98.2916 29.7386 98.424 29.5766 98.4986 29.3865L98.51 29.3776L101.697 21.8624L104.886 29.346H104.889C104.962 29.5472 105.092 29.7003 105.24 29.8117C105.399 29.9281 105.576 30.0015 105.762 30.0307H105.895C106.021 30.0307 106.145 30.0066 106.249 29.9674C106.346 29.9301 106.438 29.879 106.52 29.8155C106.692 29.6847 106.825 29.5103 106.907 29.3105V29.3055L111.912 16.0153C112.013 15.7619 112.01 15.4784 111.904 15.227C111.797 14.9755 111.595 14.7766 111.342 14.6738Z" fill="url(#paint0_linear_8683_31990)"/>
<defs>
<linearGradient id="paint0_linear_8683_31990" x1="89.998" y1="2" x2="89.998" y2="42.5007" gradientUnits="userSpaceOnUse">
<stop stop-color="#C9CBCF"/>
<stop offset="1" stop-color="#94979E"/>
</linearGradient>
</defs>
</svg>
