<svg width="346" height="3330" viewBox="0 0 346 3330" fill="none" xmlns="http://www.w3.org/2000/svg">
<mask id="mask0_10834_22348" style="mask-type:alpha" maskUnits="userSpaceOnUse" x="0" y="0" width="346" height="3330">
<g opacity="0.02">
<path d="M139 0V3330" stroke="white" stroke-width="6"/>
<path d="M105 0V3330" stroke="white" stroke-width="6"/>
<path d="M71 0V3330" stroke="white" stroke-width="6"/>
<path d="M37 0V3330" stroke="white" stroke-width="6"/>
<path d="M3 0V3330" stroke="white" stroke-width="6"/>
<path d="M343 0V3330" stroke="white" stroke-width="6"/>
<path d="M309 0V3330" stroke="white" stroke-width="6"/>
<path d="M275 0V3330" stroke="white" stroke-width="6"/>
<path d="M241 0V3330" stroke="white" stroke-width="6"/>
<path d="M207 0V3330" stroke="white" stroke-width="6"/>
<path d="M172 0V3330" stroke="white" stroke-width="6"/>
</g>
</mask>
<g mask="url(#mask0_10834_22348)">
<g filter="url(#filter0_f_10834_22348)">
<circle cx="172" cy="916" r="195" fill="white"/>
</g>
<g filter="url(#filter1_f_10834_22348)">
<circle cx="172" cy="1919" r="195" fill="white"/>
</g>
<g filter="url(#filter2_f_10834_22348)">
<circle cx="172" cy="2949" r="195" fill="white"/>
</g>
</g>
<defs>
<filter id="filter0_f_10834_22348" x="-237" y="507" width="818" height="818" filterUnits="userSpaceOnUse" color-interpolation-filters="sRGB">
<feFlood flood-opacity="0" result="BackgroundImageFix"/>
<feBlend mode="normal" in="SourceGraphic" in2="BackgroundImageFix" result="shape"/>
<feGaussianBlur stdDeviation="107" result="effect1_foregroundBlur_10834_22348"/>
</filter>
<filter id="filter1_f_10834_22348" x="-237" y="1510" width="818" height="818" filterUnits="userSpaceOnUse" color-interpolation-filters="sRGB">
<feFlood flood-opacity="0" result="BackgroundImageFix"/>
<feBlend mode="normal" in="SourceGraphic" in2="BackgroundImageFix" result="shape"/>
<feGaussianBlur stdDeviation="107" result="effect1_foregroundBlur_10834_22348"/>
</filter>
<filter id="filter2_f_10834_22348" x="-237" y="2540" width="818" height="818" filterUnits="userSpaceOnUse" color-interpolation-filters="sRGB">
<feFlood flood-opacity="0" result="BackgroundImageFix"/>
<feBlend mode="normal" in="SourceGraphic" in2="BackgroundImageFix" result="shape"/>
<feGaussianBlur stdDeviation="107" result="effect1_foregroundBlur_10834_22348"/>
</filter>
</defs>
</svg>
