<svg width="16" height="16" viewBox="0 0 16 16" fill="none" xmlns="http://www.w3.org/2000/svg">
<path fill-rule="evenodd" clip-rule="evenodd" d="M15.212 3.09098C15.367 2.98298 15.566 2.96998 15.73 3.05698C15.896 3.14298 16 3.31298 16 3.49998V12.5C16 12.686 15.896 12.857 15.73 12.943C15.658 12.981 15.579 13 15.5 13C15.4 13 15.299 12.97 15.213 12.91L11 9.96098V12C11 13.103 10.103 14 9 14H2C0.897 14 0 13.103 0 12V3.99998C0 2.89698 0.897 1.99998 2 2.00098H8.999C10.102 2.00098 10.999 2.89798 10.999 4.00098V6.03998L15.212 3.09098ZM3 6C3.55228 6 4 5.55229 4 5C4 4.44772 3.55228 4 3 4C2.44772 4 2 4.44772 2 5C2 5.55229 2.44772 6 3 6Z" fill="currentColor"/>
</svg>
