<svg viewBox="0 0 36 36" fill="none" xmlns="http://www.w3.org/2000/svg">
  <path
    fill-rule="evenodd"
    clip-rule="evenodd"
    d="M18 0.450195C8.1 0.450195 0 8.55019 0 18.4502C0 26.4377 5.175 33.1877 12.2625 35.5502C13.1625 35.6627 13.5 35.2127 13.5 34.6502C13.5 34.2002 13.5 33.0752 13.5 31.6127C8.4375 32.7377 7.425 29.2502 7.425 29.2502C6.6375 27.2252 5.4 26.6627 5.4 26.6627C3.7125 25.5377 5.5125 25.5377 5.5125 25.5377C7.3125 25.6502 8.325 27.3377 8.325 27.3377C9.9 30.0377 12.4875 29.2502 13.6125 28.8002C13.725 27.6752 14.2875 26.8877 14.7375 26.4377C10.6875 25.9877 6.525 24.4127 6.525 17.5502C6.525 15.6377 7.2 13.9502 8.325 12.7127C8.1 12.2627 7.5375 10.4627 8.55 7.9877C8.55 7.9877 10.0125 7.5377 13.5 9.7877C14.9625 9.3377 16.425 9.22519 18 9.22519C19.575 9.22519 21.0375 9.4502 22.5 9.7877C25.9875 7.4252 27.45 7.8752 27.45 7.8752C28.4625 10.3502 27.7875 12.1502 27.675 12.6002C28.8 13.8377 29.475 15.4127 29.475 17.4377C29.475 24.3002 25.3125 25.8752 21.2625 26.3252C21.9375 26.8877 22.5 28.0127 22.5 29.7002C22.5 32.0627 22.5 34.0877 22.5 34.6502C22.5 35.1002 22.8375 35.6627 23.7375 35.5502C30.825 33.1877 36 26.4377 36 18.4502C36 8.55019 27.9 0.450195 18 0.450195Z"
    fill="currentColor"
  />
</svg>
