<svg width="44" height="44" viewBox="0 0 44 44" fill="none" xmlns="http://www.w3.org/2000/svg">
<rect width="44" height="44" rx="6.75" fill="#F0F075"/>
<path d="M22 8C14.279 8 8 13.5113 8 20.2897C8 27.068 14.279 32.577 22 32.577C22.8093 32.5773 23.6174 32.5157 24.4173 32.3927L30.7757 35.8577C30.9469 35.9505 31.1385 35.9994 31.3333 36C31.6428 36 31.9395 35.8771 32.1583 35.6583C32.3771 35.4395 32.5 35.1428 32.5 34.8333V28.3257C33.584 27.2828 34.4513 26.036 35.0519 24.6569C35.6525 23.2778 35.9747 21.7937 36 20.2897C36 13.5113 29.721 8 22 8Z" fill="#1A1A1A"/>
<path d="M20.6813 22.4719V19.7497C21.612 19.7148 22.3158 19.5403 22.7928 19.2262C23.2814 18.9005 23.5257 18.4003 23.5257 17.7255V17.4812C23.5257 16.9926 23.3803 16.6146 23.0894 16.347C22.7986 16.0794 22.4089 15.9456 21.9203 15.9456C21.3968 15.9456 20.9722 16.1027 20.6464 16.4168C20.3324 16.7193 20.1113 17.1148 19.9834 17.6034L18.1162 16.8356C18.2209 16.475 18.3721 16.126 18.5699 15.7886C18.7677 15.4512 19.0236 15.1546 19.3377 14.8986C19.6518 14.6311 20.0299 14.4217 20.472 14.2705C20.914 14.1076 21.4259 14.0262 22.0075 14.0262C22.6008 14.0262 23.136 14.1134 23.6129 14.2879C24.0899 14.4508 24.4971 14.6893 24.8344 15.0033C25.1718 15.3058 25.4335 15.6723 25.6197 16.1027C25.8058 16.5331 25.8989 17.0101 25.8989 17.5336C25.8989 18.0455 25.8116 18.505 25.6371 18.9121C25.4743 19.3077 25.2474 19.6567 24.9566 19.9591C24.6657 20.25 24.3342 20.4884 23.9619 20.6746C23.5897 20.8491 23.2058 20.9712 22.8102 21.041V22.4719H20.6813ZM21.7632 26.625C21.2746 26.625 20.9198 26.5087 20.6988 26.276C20.4778 26.0433 20.3673 25.7467 20.3673 25.3861V25.0371C20.3673 24.6764 20.4778 24.3798 20.6988 24.1471C20.9198 23.9144 21.2746 23.7981 21.7632 23.7981C22.2635 23.7981 22.6241 23.9144 22.8451 24.1471C23.0662 24.3798 23.1767 24.6764 23.1767 25.0371V25.3861C23.1767 25.7467 23.0662 26.0433 22.8451 26.276C22.6241 26.5087 22.2635 26.625 21.7632 26.625Z" fill="#F0F075"/>
</svg>
