<svg width="29" height="28" viewBox="0 0 29 28" xmlns="http://www.w3.org/2000/svg">
<path fill-rule="evenodd" clip-rule="evenodd" d="M14.5184 0.0527737C11.0718 0.0493134 7.73662 1.2584 5.1105 3.46336C2.48438 5.66832 0.738989 8.72503 0.187145 12.0857C-0.364699 15.4464 0.313067 18.8913 2.09897 21.8032C3.88487 24.7151 6.66218 26.9036 9.93318 27.9765C10.6544 28.1084 10.9215 27.6598 10.9215 27.2817C10.9215 26.9035 10.9215 26.0416 10.9215 24.8455C6.88822 25.725 6.03348 22.9282 6.03348 22.9282C5.76473 22.0614 5.19379 21.3167 4.42197 20.8262C3.11317 19.9467 4.52881 19.9467 4.52881 19.9467C4.9876 20.0108 5.42562 20.1771 5.80972 20.4331C6.19381 20.689 6.51391 21.028 6.74576 21.4243C6.94276 21.7771 7.20834 22.0881 7.52729 22.3393C7.84624 22.5905 8.21228 22.777 8.60438 22.8881C8.99648 22.9993 9.40694 23.0328 9.8122 22.9869C10.2175 22.9409 10.6095 22.8164 10.966 22.6204C11.0218 21.8969 11.3376 21.2169 11.8563 20.7031C8.63327 20.3425 5.24998 19.1112 5.24998 13.6232C5.22785 12.2011 5.76021 10.825 6.73685 9.77989C6.301 8.54348 6.35185 7.19038 6.8793 5.9893C6.8793 5.9893 8.09907 5.60233 10.868 7.45804C13.2458 6.81317 15.7555 6.81317 18.1332 7.45804C20.9022 5.60233 22.113 5.9893 22.113 5.9893C22.646 7.18867 22.7001 8.54278 22.2644 9.77989C23.241 10.825 23.7734 12.2011 23.7513 13.6232C23.7513 19.1288 20.3591 20.3337 17.1271 20.6591C17.4737 21.0032 17.7413 21.4169 17.9118 21.8722C18.0823 22.3274 18.1517 22.8135 18.1154 23.2976C18.1154 25.2149 18.1154 26.7628 18.1154 27.2289C18.1154 27.695 18.3736 28.0556 19.1126 27.9237C22.3733 26.8407 25.1385 24.6487 26.915 21.7388C28.6916 18.8288 29.3639 15.3901 28.812 12.0359C28.2602 8.6818 26.5201 5.63036 23.9021 3.42588C21.2841 1.22141 17.9585 0.00726302 14.5184 0V0.0527737Z" fill="currentColor" />
</svg>
