<svg width="44" height="44" viewBox="0 0 44 44" fill="none" xmlns="http://www.w3.org/2000/svg">
<rect width="44" height="44" rx="6.75" fill="#AA99FF"/>
<path d="M24.625 16.3125C24.625 18.4869 26.3881 21.125 28.5625 21.125C30.7369 21.125 32.5 18.4869 32.5 16.3125C32.5 14.1381 30.7369 12.375 28.5625 12.375C26.3881 12.375 24.625 14.1381 24.625 16.3125Z" fill="#212121"/>
<path d="M22 16.3125C22 18.9707 19.8457 22 17.1875 22C14.5292 22 12.375 18.9707 12.375 16.3125C12.375 13.6542 14.5292 11.5 17.1875 11.5C19.8457 11.5 22 13.6542 22 16.3125Z" fill="#212121"/>
<path d="M33.8117 23.862C32.682 23.4114 30.855 22.875 28.5625 22.875C26.8729 22.875 25.4388 23.1673 24.3477 23.5006C26.8799 24.6565 28.125 26.8816 28.125 29.1619V29.875H36V27.1082C36 25.6654 35.1417 24.3914 33.8117 23.862Z" fill="#212121"/>
<path d="M23.9294 25.2331C22.5407 24.5567 20.2439 23.75 17.1875 23.75C14.1311 23.75 11.8342 24.5567 10.4456 25.2331C8.95988 25.9567 8 27.4994 8 29.1619V32.5H26.375V29.1619C26.375 27.4994 25.4151 25.9567 23.9294 25.2331Z" fill="#212121"/>
</svg>
