<svg xmlns="http://www.w3.org/2000/svg" width="44" height="44" fill="none"><g stroke="#fff" stroke-linecap="square" stroke-miterlimit="10" stroke-width="2" clip-path="url(#a)"><path d="M14.75 5.125V1M28.5 5.125V1M21.625 5.125V1M5.125 28.5H1M5.125 14.75H1M5.125 21.625H1M42.25 28.5h-4.125M42.25 14.75h-4.125M42.25 21.625h-4.125M14.75 42.25v-4.125M28.5 42.25v-4.125M21.625 42.25v-4.125M35.375 5.125h-27.5a2.75 2.75 0 0 0-2.75 2.75v27.5a2.75 2.75 0 0 0 2.75 2.75h27.5a2.75 2.75 0 0 0 2.75-2.75v-27.5a2.75 2.75 0 0 0-2.75-2.75Z"/><path d="M31.25 12H12v19.25h19.25V12Z"/></g><defs><clipPath id="a"><path fill="#fff" d="M0 0h44v44H0z"/></clipPath></defs></svg>