<svg xmlns="http://www.w3.org/2000/svg" width="39" height="41" fill="none"><path stroke="#fff" stroke-linecap="square" stroke-miterlimit="10" stroke-width="2" d="M7.543 11.292v4.583l6.417 6.417v17.416M3.875 26.875v4.583l4.583 4.584v3.666M35.04 26.875v4.583l-4.583 4.584v3.666M31.374 11.292v4.583l-6.417 6.417v17.416M3.875 26.875a2.75 2.75 0 1 0 0-5.5 2.75 2.75 0 0 0 0 5.5ZM35.043 26.875a2.75 2.75 0 1 0 0-5.5 2.75 2.75 0 0 0 0 5.5ZM7.543 11.292a2.75 2.75 0 1 0 0-5.5 2.75 2.75 0 0 0 0 5.5ZM31.375 11.292a2.75 2.75 0 1 0 0-5.5 2.75 2.75 0 0 0 0 5.5ZM19.457 6.708v33M19.457 6.708a2.75 2.75 0 1 0 0-5.5 2.75 2.75 0 0 0 0 5.5Z"/></svg>