<svg width="16" height="16" viewBox="0 0 16 16" fill="none" xmlns="http://www.w3.org/2000/svg">
<rect x="5.93945" y="5.93457" width="8.99489" height="9.00191" rx="1" stroke="currentColor"/>
<path fill-rule="evenodd" clip-rule="evenodd" d="M2.43359 0.93457C1.60517 0.93457 0.933594 1.60614 0.933594 2.43457V9.43648C0.933594 10.2649 1.60517 10.9365 2.4336 10.9365H3.93262C4.20876 10.9365 4.43262 10.7126 4.43262 10.4365C4.43262 10.1603 4.20876 9.93648 3.93262 9.93648H2.4336C2.15745 9.93648 1.93359 9.71262 1.93359 9.43648V2.43457C1.93359 2.15843 2.15745 1.93457 2.43359 1.93457H9.42848C9.70462 1.93457 9.92848 2.15843 9.92848 2.43457V3.93457C9.92848 4.21071 10.1523 4.43457 10.4285 4.43457C10.7046 4.43457 10.9285 4.21071 10.9285 3.93457V2.43457C10.9285 1.60614 10.2569 0.93457 9.42848 0.93457H2.43359Z" fill="currentColor"/>
</svg>
