<svg xmlns="http://www.w3.org/2000/svg" width="640" height="228" viewBox="0 0 640 228" fill="none"><g filter="url(#a)" opacity=".5"><path fill="url(#b)" d="M48.78 74.728C44.38 59.33 55.941 44 71.957 44h476.084c16.016 0 27.578 15.329 23.178 30.728C552.741 139.408 493.623 184 426.356 184H193.644c-67.267 0-126.385-44.592-144.865-109.272Z"/></g><path stroke="#080808" d="M0 13.5h640M0 17.5h640M0 15.5h640M0 19.5h640M0 21.5h640M0 23.5h640M0 27.5h640M0 25.5h640M0 29.5h640M0 31.5h640M0 33.5h640M0 37.5h640M0 35.5h640M0 39.5h640M0 41.5h640M0 43.5h640M0 47.5h640M0 45.5h640M0 49.5h640M0 51.5h640M0 53.5h640M0 57.5h640M0 55.5h640M0 59.5h640M0 61.5h640M0 63.5h640M0 67.5h640M0 65.5h640M0 69.5h640M0 71.5h640M0 73.5h640M0 77.5h640M0 75.5h640M0 79.5h640M0 81.5h640M0 83.5h640M0 87.5h640M0 85.5h640M0 89.5h640M0 91.5h640M0 93.5h640M0 97.5h640M0 95.5h640M0 99.5h640M0 101.5h640M0 103.5h640M0 107.5h640M0 105.5h640M0 109.5h640M0 111.5h640M0 113.5h640M0 117.5h640M0 115.5h640M0 119.5h640M0 121.5h640M0 123.5h640M0 127.5h640M0 125.5h640M0 129.5h640M0 131.5h640M0 133.5h640M0 137.5h640M0 135.5h640M0 139.5h640M0 141.5h640M0 143.5h640M0 147.5h640M0 145.5h640M0 149.5h640M0 151.5h640M0 153.5h640M0 157.5h640M0 155.5h640M0 159.5h640M0 161.5h640M0 163.5h640M0 167.5h640M0 165.5h640M0 169.5h640M0 171.5h640M0 173.5h640M0 177.5h640M0 175.5h640M0 179.5h640M0 181.5h640M0 183.5h640M0 187.5h640M0 185.5h640M0 189.5h640M0 191.5h640"/><defs><linearGradient id="b" x1="320" x2="320" y1="44" y2="184" gradientUnits="userSpaceOnUse"><stop offset=".414" stop-color="#00E599"/><stop offset=".871" stop-color="#00E599" stop-opacity="0"/></linearGradient><filter id="a" width="612.328" height="228" x="3.836" y="0" color-interpolation-filters="sRGB" filterUnits="userSpaceOnUse"><feFlood flood-opacity="0" result="BackgroundImageFix"/><feBlend in="SourceGraphic" in2="BackgroundImageFix" result="shape"/><feGaussianBlur result="effect1_foregroundBlur_12055_42618" stdDeviation="22"/></filter></defs></svg>
