<svg xmlns="http://www.w3.org/2000/svg" width="375" height="228" viewBox="0 0 375 228" fill="none"><g filter="url(#a)" opacity=".5"><path fill="url(#b)" d="M48.78 74.728C44.38 59.33 55.941 44 71.957 44h231.084c16.016 0 27.578 15.329 23.178 30.728l-1.687 5.908C307.052 141.82 251.131 184 187.5 184c-63.631 0-119.552-42.181-137.032-103.364l-1.689-5.908Z"/></g><path stroke="#000" d="M0 13.5h375M0 17.5h375M0 15.5h375M0 19.5h375M0 21.5h375M0 23.5h375M0 27.5h375M0 25.5h375M0 29.5h375M0 31.5h375M0 33.5h375M0 37.5h375M0 35.5h375M0 39.5h375M0 41.5h375M0 43.5h375M0 47.5h375M0 45.5h375M0 49.5h375M0 51.5h375M0 53.5h375M0 57.5h375M0 55.5h375M0 59.5h375M0 61.5h375M0 63.5h375M0 67.5h375M0 65.5h375M0 69.5h375M0 71.5h375M0 73.5h375M0 77.5h375M0 75.5h375M0 79.5h375M0 81.5h375M0 83.5h375M0 87.5h375M0 85.5h375M0 89.5h375M0 91.5h375M0 93.5h375M0 97.5h375M0 95.5h375M0 99.5h375M0 101.5h375M0 103.5h375M0 107.5h375M0 105.5h375M0 109.5h375M0 111.5h375M0 113.5h375M0 117.5h375M0 115.5h375M0 119.5h375M0 121.5h375M0 123.5h375M0 127.5h375M0 125.5h375M0 129.5h375M0 131.5h375M0 133.5h375M0 137.5h375M0 135.5h375M0 139.5h375M0 141.5h375M0 143.5h375M0 147.5h375M0 145.5h375M0 149.5h375M0 151.5h375M0 153.5h375M0 157.5h375M0 155.5h375M0 159.5h375M0 161.5h375M0 163.5h375M0 167.5h375M0 165.5h375M0 169.5h375M0 171.5h375M0 173.5h375M0 177.5h375M0 175.5h375M0 179.5h375M0 181.5h375M0 183.5h375M0 187.5h375M0 185.5h375M0 189.5h375M0 191.5h375"/><defs><linearGradient id="b" x1="320" x2="320" y1="44" y2="184" gradientUnits="userSpaceOnUse"><stop offset=".414" stop-color="#00E599"/><stop offset=".907" stop-color="#00E599" stop-opacity="0"/></linearGradient><filter id="a" width="367.328" height="228" x="3.836" y="0" color-interpolation-filters="sRGB" filterUnits="userSpaceOnUse"><feFlood flood-opacity="0" result="BackgroundImageFix"/><feBlend in="SourceGraphic" in2="BackgroundImageFix" result="shape"/><feGaussianBlur result="effect1_foregroundBlur_12055_42620" stdDeviation="22"/></filter></defs></svg>
