<svg width="24" height="24" viewBox="0 0 24 24" fill="none" xmlns="http://www.w3.org/2000/svg">
<rect width="24" height="24" rx="4" fill="url(#paint0_linear_20100_26492)"/>
<rect x="0.5" y="0.5" width="23" height="23" rx="3.5" stroke="url(#paint1_linear_20100_26492)" stroke-opacity="0.1"/>
<path d="M10.6289 12.7879V8.88538L13.1161 7.44935C14.194 6.82748 15.5724 7.19625 16.1944 8.27402C16.6106 8.99504 16.5835 9.85049 16.1967 10.5234" stroke="#C9CBCF" stroke-linecap="round" stroke-linejoin="round"/>
<path d="M11.9952 10.4243L15.3755 12.3755V15.2468C15.3755 16.4913 14.3667 17.5 13.1219 17.5C12.2896 17.5 11.5625 17.0486 11.1719 16.3772" stroke="#C9CBCF" stroke-linecap="round" stroke-linejoin="round"/>
<path d="M13.362 12.7878L9.98168 14.7391L7.49451 13.3031C6.41656 12.6812 6.04698 11.303 6.66971 10.2252C7.08586 9.50421 7.8408 9.10013 8.61678 9.09863" stroke="#C9CBCF" stroke-linecap="round" stroke-linejoin="round"/>
<path d="M11.9975 13.5757L8.61719 11.6245V8.75318C8.61719 7.50867 9.62603 6.5 10.8707 6.5C11.7031 6.5 12.4302 6.95139 12.8208 7.62284" stroke="#C9CBCF" stroke-linecap="round" stroke-linejoin="round"/>
<path d="M10.6289 11.2121L14.0092 9.26086L16.4964 10.6969C17.5744 11.3188 17.9439 12.697 17.3212 13.7747C16.9051 14.4958 16.1501 14.8998 15.3741 14.9013" stroke="#C9CBCF" stroke-linecap="round" stroke-linejoin="round"/>
<path d="M13.36 11.2122V15.1147L10.8729 16.5507C9.79492 17.1726 8.4165 16.8038 7.79452 15.726C7.37836 15.005 7.4054 14.1496 7.79226 13.4766" stroke="#C9CBCF" stroke-linecap="round" stroke-linejoin="round"/>
<defs>
<linearGradient id="paint0_linear_20100_26492" x1="12" y1="0" x2="12" y2="24" gradientUnits="userSpaceOnUse">
<stop offset="0.3125" stop-color="#242628"/>
<stop offset="1" stop-color="#1D1E20"/>
</linearGradient>
<linearGradient id="paint1_linear_20100_26492" x1="12" y1="0" x2="12" y2="24" gradientUnits="userSpaceOnUse">
<stop stop-color="white"/>
<stop offset="1" stop-color="white" stop-opacity="0.05"/>
</linearGradient>
</defs>
</svg>
