<svg width="24" height="24" viewBox="0 0 24 24" fill="none" xmlns="http://www.w3.org/2000/svg">
<rect width="24" height="24" rx="4" fill="url(#paint0_linear_20058_25232)"/>
<rect x="0.5" y="0.5" width="23" height="23" rx="3.5" stroke="url(#paint1_linear_20058_25232)" stroke-opacity="0.1"/>
<path d="M8.81859 17.0014C9.82297 17.0014 10.6372 16.1872 10.6372 15.1828C10.6372 14.1785 9.82297 13.3643 8.81859 13.3643C7.81421 13.3643 7 14.1785 7 15.1828C7 16.1872 7.81421 17.0014 8.81859 17.0014Z" stroke="#C9CBCF" stroke-linecap="round" stroke-linejoin="round"/>
<path d="M8.81641 9.7269V6.99902C10.9868 6.99902 13.0684 7.86123 14.6031 9.39596C16.1378 10.9307 17.0001 13.0122 17.0001 15.1827H14.2722" stroke="#C9CBCF" stroke-linecap="round" stroke-linejoin="round"/>
<path d="M10.1055 13.8964L12.4569 11.5449" stroke="#C9CBCF" stroke-linecap="round" stroke-linejoin="round"/>
<defs>
<linearGradient id="paint0_linear_20058_25232" x1="12" y1="0" x2="12" y2="24" gradientUnits="userSpaceOnUse">
<stop offset="0.3125" stop-color="#242628"/>
<stop offset="1" stop-color="#1D1E20"/>
</linearGradient>
<linearGradient id="paint1_linear_20058_25232" x1="12" y1="0" x2="12" y2="24" gradientUnits="userSpaceOnUse">
<stop stop-color="white"/>
<stop offset="1" stop-color="white" stop-opacity="0.05"/>
</linearGradient>
</defs>
</svg>
