<svg width="24" height="24" viewBox="0 0 24 24" fill="none" xmlns="http://www.w3.org/2000/svg">
<rect width="24" height="24" rx="4" fill="url(#paint0_linear_20058_25256)"/>
<rect x="0.5" y="0.5" width="23" height="23" rx="3.5" stroke="url(#paint1_linear_20058_25256)" stroke-opacity="0.1"/>
<path d="M16.9349 11V8.08699C16.9349 7.94861 16.88 7.8159 16.7821 7.71806C16.6843 7.62021 16.5516 7.56524 16.4132 7.56524H11.2573C11.1604 7.56519 11.0655 7.53817 10.9831 7.48721C10.9007 7.43625 10.8341 7.36337 10.7908 7.27671L10.2962 6.28853C10.2529 6.20187 10.1864 6.12899 10.104 6.07803C10.0216 6.02707 9.92665 6.00005 9.82979 6H7.02175C6.88337 6 6.75066 6.05497 6.65282 6.15282C6.55497 6.25066 6.5 6.38337 6.5 6.52175V14.3479C6.5 14.4863 6.55497 14.619 6.65282 14.7169C6.75066 14.8147 6.88337 14.8697 7.02175 14.8697H10.9831" stroke="#C9CBCF" stroke-linecap="round" stroke-linejoin="round"/>
<path d="M15.1247 16.9867C16.4298 16.9867 17.4877 15.9288 17.4877 14.6237C17.4877 13.3187 16.4298 12.2607 15.1247 12.2607C13.8197 12.2607 12.7617 13.3187 12.7617 14.6237C12.7617 15.9288 13.8197 16.9867 15.1247 16.9867Z" stroke="#C9CBCF" stroke-linecap="round" stroke-linejoin="round"/>
<path d="M18.4993 18.0003L16.8047 16.3057" stroke="#C9CBCF" stroke-linecap="round" stroke-linejoin="round"/>
<defs>
<linearGradient id="paint0_linear_20058_25256" x1="12" y1="0" x2="12" y2="24" gradientUnits="userSpaceOnUse">
<stop offset="0.3125" stop-color="#242628"/>
<stop offset="1" stop-color="#1D1E20"/>
</linearGradient>
<linearGradient id="paint1_linear_20058_25256" x1="12" y1="0" x2="12" y2="24" gradientUnits="userSpaceOnUse">
<stop stop-color="white"/>
<stop offset="1" stop-color="white" stop-opacity="0.05"/>
</linearGradient>
</defs>
</svg>
