<svg width="265" height="340" viewBox="0 0 265 340" fill="none" xmlns="http://www.w3.org/2000/svg">
<path d="M183.973 112.817C188.443 113.531 192.675 115.099 196.49 117.58C205.331 123.314 210.039 132.681 211.927 144.428L224.423 151.532C224.423 151.532 229.688 127.819 209.642 118.314C189.596 108.809 183.973 112.817 183.973 112.817Z" fill="url(#paint0_linear)"/>
<path d="M141.318 245.888C141.318 245.888 153.675 254.044 184.113 239.221C214.55 224.398 215.464 193.819 215.464 193.819L205.728 188.302C198 206.142 184.252 223.862 166.887 232.891L141.318 245.888Z" fill="url(#paint1_linear)"/>
<path d="M240.516 128.811L252.278 122.044L264 128.632L252.357 135.161L242.106 140.916C241.827 136.729 241.311 132.681 240.516 128.811Z" fill="url(#paint2_linear)"/>
<path d="M169.212 220.806V229.2C169.212 230.787 168.258 232.335 166.351 233.427L92.4235 276.15C88.7679 278.273 81.3772 278.452 77.1454 276.011L42.3573 255.949C40.2116 254.719 39.2182 253.25 39.258 251.861L39.2778 243.864C39.4169 245.154 40.4103 246.464 42.3772 247.595L77.1653 267.677C81.397 270.117 88.7878 269.919 92.4434 267.816L166.351 225.072C168.258 223.961 169.271 222.394 169.212 220.806Z" fill="url(#paint3_linear)"/>
<path d="M42.0795 239.777L50.702 234.796V242.257C50.702 244.162 52.2516 245.71 54.1589 245.71C56.0662 245.71 57.6159 244.162 57.6159 242.257V238.546L76.4702 249.44C80.702 251.881 88.0927 251.683 91.7483 249.579L153.775 213.742V219.675C153.775 221.58 155.324 223.128 157.232 223.128C159.139 223.128 160.689 221.58 160.689 219.675V213.603L166.113 216.718C170.344 219.159 169.967 222.969 166.311 225.072L92.4238 267.796C88.7682 269.919 81.3775 270.098 77.1457 267.657L42.3576 247.575C38.1457 245.134 38.404 241.88 42.0795 239.777Z" fill="url(#paint4_linear)"/>
<path d="M50.7021 234.558V242.257C50.7021 244.162 52.2518 245.71 54.1591 245.71C56.0664 245.71 57.6161 244.162 57.6161 242.257V238.546L50.7021 234.558Z" fill="url(#paint5_linear)"/>
<path d="M160.729 211.321C160.729 210.805 160.61 210.329 160.411 209.892L153.795 213.722V219.655C153.795 221.56 155.345 223.108 157.252 223.108C159.159 223.108 160.709 221.56 160.709 219.655V211.321H160.729Z" fill="url(#paint6_linear)"/>
<path d="M168.556 194.216V202.609C168.556 204.197 167.603 205.745 165.695 206.836L91.7683 249.579C88.1126 251.703 80.7219 251.881 76.4901 249.44L41.702 229.359C39.5563 228.128 38.563 226.66 38.6027 225.271L38.6226 217.274C38.7616 218.564 39.755 219.873 41.7219 221.004L76.4901 241.066C80.7219 243.507 88.1126 243.309 91.7683 241.205L165.695 198.482C167.603 197.391 168.616 195.803 168.556 194.216Z" fill="url(#paint7_linear)"/>
<path d="M41.404 213.186L49.4702 208.523L75.0596 223.286C79.2914 225.727 86.6821 225.529 90.3378 223.425L154.073 186.596V193.005C154.073 194.91 155.623 196.458 157.53 196.458C159.437 196.458 160.987 194.91 160.987 193.005V187.568L165.457 190.148C169.689 192.588 169.311 196.398 165.656 198.522L91.7682 241.205C88.1126 243.329 80.7219 243.507 76.4901 241.066L41.702 221.004C37.4702 218.564 37.7484 215.309 41.404 213.186Z" fill="url(#paint8_linear)"/>
<path d="M51 209.396V215.587C51 217.492 52.5497 219.04 54.457 219.04C56.3642 219.04 57.9139 217.492 57.9139 215.587V213.385L51 209.396Z" fill="url(#paint9_linear)"/>
<path d="M161.026 184.651C161.026 183.996 160.847 183.381 160.529 182.865L154.092 186.576V192.985C154.092 194.89 155.642 196.438 157.549 196.438C159.457 196.438 161.006 194.89 161.006 192.985V184.651H161.026Z" fill="url(#paint10_linear)"/>
<path d="M167.126 168.082V176.475C167.126 178.063 166.172 179.611 164.265 180.702L90.3576 223.425C86.702 225.549 79.3113 225.727 75.0795 223.286L40.2914 203.225C38.1457 201.994 37.1523 200.526 37.1921 199.137L37.2119 191.14C37.351 192.43 38.3444 193.739 40.3113 194.87L75.0993 214.952C79.3311 217.393 86.7219 217.194 90.3775 215.091L164.305 172.368C166.192 171.237 167.205 169.669 167.126 168.082Z" fill="url(#paint11_linear)"/>
<path d="M39.9933 187.032L97.5496 153.814C93.5761 163.24 90.6755 172.745 88.8675 182.012L100.311 188.263L101.642 183.401C101.265 185.048 100.907 186.675 100.589 188.302L120.457 176.852C122.901 168.836 126.457 160.759 131.166 152.941C132.358 150.957 133.609 149.032 134.881 147.186L164.046 163.974C168.278 166.415 167.901 170.225 164.245 172.328L90.3576 215.051C86.702 217.175 79.3112 217.353 75.0794 214.912L40.2914 194.851C36.0596 192.41 36.3377 189.155 39.9933 187.032Z" fill="url(#paint12_linear)"/>
<path d="M53.0664 290.497L77.3843 276.487" stroke="url(#paint13_linear)" stroke-width="1.5077" stroke-miterlimit="10"/>
<path d="M0.754883 263.529L50.1059 235.074" stroke="url(#paint14_linear)" stroke-width="1.5077" stroke-miterlimit="10"/>
<path d="M26.7217 260.751L39.4568 253.409" stroke="url(#paint15_linear)" stroke-width="1.5077" stroke-miterlimit="10"/>
<path d="M97.2508 227.136L89.7012 223.763C89.9396 223.664 90.1581 223.544 90.3767 223.406L97.6681 219.199L97.2508 227.136Z" fill="url(#paint16_linear)"/>
<path d="M118.729 214.575L119.186 206.757L97.8082 219.119L97.252 227.136L118.729 214.575Z" fill="url(#paint17_linear)"/>
<path d="M126.239 237.891L121.669 232.673L100.391 244.599L105.934 249.718L126.239 237.891Z" fill="url(#paint18_linear)"/>
<path d="M189.576 157.366L212.007 144.428L223.927 151.155L201.099 163.875L189.576 157.366Z" fill="url(#paint19_linear)"/>
<path d="M101.663 183.381L100.331 188.243L88.8877 181.992C91.8281 166.931 97.6095 151.294 106.252 136.411C125.365 103.451 153.735 84.8971 178.768 82.2579C189.437 81.1467 200.225 83.7462 208.709 88.5484L208.649 88.5285H208.629C180.119 79.4997 141.974 101.347 117.954 142.721C110.245 155.977 104.841 169.848 101.663 183.341V183.381Z" fill="url(#paint20_linear)"/>
<path d="M183.914 112.817C165.516 115.099 145.152 129.764 131.166 152.941C126.457 160.759 122.881 168.836 120.457 176.852L100.589 188.302C103.53 173.241 109.311 157.604 117.954 142.721C145.252 95.6921 190.828 73.8641 219.735 93.9855C233.344 103.471 240.834 120.556 242.106 140.896L264.02 128.573L236.026 183.163L201.139 163.914L223.927 151.115C222.894 136.709 217.311 124.624 207.238 117.877C200.424 113.333 192.377 111.765 183.914 112.817Z" fill="url(#paint21_linear)"/>
<path d="M145.808 245.313C166.55 248.786 192.616 233.228 209.424 205.348C211.709 201.558 213.735 197.708 215.484 193.819L229.788 201.716C227.682 206.38 225.358 211.043 222.656 215.567C204.278 246.404 159.795 283.194 118.947 260.672L145.808 245.313Z" fill="url(#paint22_linear)"/>
<defs>
<linearGradient id="paint0_linear" x1="183.976" y1="131.75" x2="225.043" y2="131.75" gradientUnits="userSpaceOnUse">
<stop stop-color="#7637E4"/>
<stop offset="1" stop-color="#FBA3C9"/>
</linearGradient>
<linearGradient id="paint1_linear" x1="123.672" y1="239.781" x2="203.292" y2="211.064" gradientUnits="userSpaceOnUse">
<stop stop-color="#7637E4"/>
<stop offset="1" stop-color="#FBA3C9"/>
</linearGradient>
<linearGradient id="paint2_linear" x1="225.857" y1="123.253" x2="253.22" y2="133.816" gradientUnits="userSpaceOnUse">
<stop offset="1" stop-color="#FBA3C9"/>
</linearGradient>
<linearGradient id="paint3_linear" x1="69.3669" y1="249.302" x2="199.328" y2="249.302" gradientUnits="userSpaceOnUse">
<stop stop-color="#7637E4"/>
<stop offset="1" stop-color="#FBA3C9"/>
</linearGradient>
<linearGradient id="paint4_linear" x1="39.2593" y1="241.509" x2="169.211" y2="241.509" gradientUnits="userSpaceOnUse">
<stop stop-color="#7637E4"/>
<stop offset="1" stop-color="#FBA3C9"/>
</linearGradient>
<linearGradient id="paint5_linear" x1="50.6968" y1="240.138" x2="57.628" y2="240.138" gradientUnits="userSpaceOnUse">
<stop stop-color="#7637E4"/>
<stop offset="1" stop-color="#FBA3C9"/>
</linearGradient>
<linearGradient id="paint6_linear" x1="153.794" y1="216.509" x2="160.725" y2="216.509" gradientUnits="userSpaceOnUse">
<stop stop-color="#7637E4"/>
<stop offset="1" stop-color="#FBA3C9"/>
</linearGradient>
<linearGradient id="paint7_linear" x1="71.1479" y1="222.719" x2="201.109" y2="222.719" gradientUnits="userSpaceOnUse">
<stop stop-color="#7637E4"/>
<stop offset="1" stop-color="#FBA3C9"/>
</linearGradient>
<linearGradient id="paint8_linear" x1="38.5995" y1="214.72" x2="168.551" y2="214.72" gradientUnits="userSpaceOnUse">
<stop stop-color="#7637E4"/>
<stop offset="1" stop-color="#FBA3C9"/>
</linearGradient>
<linearGradient id="paint9_linear" x1="50.9962" y1="214.225" x2="57.9268" y2="214.225" gradientUnits="userSpaceOnUse">
<stop stop-color="#7637E4"/>
<stop offset="1" stop-color="#FBA3C9"/>
</linearGradient>
<linearGradient id="paint10_linear" x1="154.093" y1="189.662" x2="161.023" y2="189.662" gradientUnits="userSpaceOnUse">
<stop stop-color="#7637E4"/>
<stop offset="1" stop-color="#FBA3C9"/>
</linearGradient>
<linearGradient id="paint11_linear" x1="82.9434" y1="196.571" x2="212.904" y2="196.571" gradientUnits="userSpaceOnUse">
<stop stop-color="#7637E4"/>
<stop offset="1" stop-color="#FBA3C9"/>
</linearGradient>
<linearGradient id="paint12_linear" x1="37.1843" y1="181.942" x2="167.136" y2="181.942" gradientUnits="userSpaceOnUse">
<stop stop-color="#7637E4"/>
<stop offset="1" stop-color="#FBA3C9"/>
</linearGradient>
<linearGradient id="paint13_linear" x1="52.31" y1="283.49" x2="78.124" y2="283.49" gradientUnits="userSpaceOnUse">
<stop stop-color="#FFCCC8"/>
<stop offset="1" stop-color="#FFCCC8" stop-opacity="0.2"/>
</linearGradient>
<linearGradient id="paint14_linear" x1="-8.39471e-05" y1="249.297" x2="50.8594" y2="249.297" gradientUnits="userSpaceOnUse">
<stop stop-color="#FFCCC8"/>
<stop offset="1" stop-color="#FFCCC8" stop-opacity="0.2"/>
</linearGradient>
<linearGradient id="paint15_linear" x1="25.9794" y1="257.073" x2="40.208" y2="257.073" gradientUnits="userSpaceOnUse">
<stop stop-color="#FFCCC8"/>
<stop offset="1" stop-color="#FFCCC8" stop-opacity="0.2"/>
</linearGradient>
<linearGradient id="paint16_linear" x1="89.1884" y1="258.842" x2="96.4263" y2="202.186" gradientUnits="userSpaceOnUse">
<stop stop-color="#7637E4"/>
<stop offset="1" stop-color="#FBA3C9"/>
</linearGradient>
<linearGradient id="paint17_linear" x1="82.4572" y1="224.75" x2="227.201" y2="180.845" gradientUnits="userSpaceOnUse">
<stop stop-color="#7637E4"/>
<stop offset="1" stop-color="#FBA3C9"/>
</linearGradient>
<linearGradient id="paint18_linear" x1="89.6593" y1="248.494" x2="234.403" y2="204.589" gradientUnits="userSpaceOnUse">
<stop stop-color="#7637E4"/>
<stop offset="1" stop-color="#FBA3C9"/>
</linearGradient>
<linearGradient id="paint19_linear" x1="183.833" y1="145.412" x2="211.196" y2="155.974" gradientUnits="userSpaceOnUse">
<stop stop-color="#7637E4"/>
<stop offset="1" stop-color="#FBA3C9"/>
</linearGradient>
<linearGradient id="paint20_linear" x1="86.858" y1="138.677" x2="162.541" y2="133.724" gradientUnits="userSpaceOnUse">
<stop stop-color="#7637E4"/>
<stop offset="1" stop-color="#FBA3C9"/>
</linearGradient>
<linearGradient id="paint21_linear" x1="100.603" y1="137.403" x2="263.998" y2="137.403" gradientUnits="userSpaceOnUse">
<stop stop-color="#7637E4"/>
<stop offset="1" stop-color="#FBA3C9"/>
</linearGradient>
<linearGradient id="paint22_linear" x1="130.185" y1="226.338" x2="240.494" y2="236.243" gradientUnits="userSpaceOnUse">
<stop stop-color="#7637E4"/>
<stop offset="1" stop-color="#FBA3C9"/>
</linearGradient>
</defs>
</svg>
