<svg width="298" height="341" viewBox="0 0 298 341" fill="none" xmlns="http://www.w3.org/2000/svg">
<path d="M46.8843 213.745V172.749L119.32 214.566V277.514L79.3212 254.092" fill="url(#paint0_linear)"/>
<path d="M81.8186 162.901V114.485L194.116 179.279V276.899L151.654 252.417" fill="url(#paint1_linear)"/>
<path d="M91.7063 155.721V131.854L183.542 184.853V259.119L147.684 238.877" fill="url(#paint2_linear)"/>
<path d="M55.198 205.573V187.212L110.833 219.284V263.017L85.2398 248.451" fill="url(#paint3_linear)"/>
<path d="M138.446 81.2154L250.607 146.489L194.116 179.279L81.8528 114.45L138.446 81.2154Z" fill="url(#paint4_linear)"/>
<path d="M134.374 1L1 217.575" stroke="url(#paint5_linear)" stroke-miterlimit="10"/>
<path d="M250.745 244.211V146.591L194.117 179.279V276.899L250.745 244.211Z" fill="url(#paint6_linear)"/>
<path d="M201.679 194.29L244.825 169.398V162.183L201.679 187.075V194.29Z" fill="#FFCCC8"/>
<path d="M201.679 207.18L244.825 182.288V175.108L201.679 200V207.18Z" fill="#FFCCC8"/>
<path d="M201.679 220.105L244.825 195.213V187.998L201.679 212.925V220.105Z" fill="#FFCCC8"/>
<path d="M201.679 232.996L244.825 208.104V200.923L201.679 225.815V232.996Z" fill="#FFCCC8"/>
<path d="M155.828 256.452V193.503L119.32 214.566V277.514L155.828 256.452Z" fill="url(#paint7_linear)"/>
<path d="M83.4271 151.652L155.76 193.401L119.32 214.566L46.8843 172.749L83.4271 151.652Z" fill="url(#paint8_linear)"/>
<path d="M124.178 224.242L152.03 208.172V203.556L124.178 219.592V224.242Z" fill="#FFCCC8"/>
<path d="M124.178 234.09L152.03 218.019V213.369L124.178 229.44V234.09Z" fill="#FFCCC8"/>
<path d="M124.178 244.245L152.03 228.209V223.558L124.178 239.595V244.245Z" fill="#FFCCC8"/>
<path d="M67.2762 272.932L25.9773 249.1V213.198L67.2762 237.03V272.932Z" fill="url(#paint9_linear)"/>
<path d="M25.9773 213.198L46.8149 201.197L88.0454 224.96L67.2762 237.03L25.9773 213.198Z" fill="url(#paint10_linear)"/>
<path d="M67.2769 272.932L88.0803 260.897V225.029L67.2769 237.03V272.932Z" fill="url(#paint11_linear)"/>
<path d="M71.7581 250.4L83.5968 243.595V234.329L71.7581 241.133V250.4Z" fill="#FFCCC8"/>
<path d="M297.927 289.96H37.8164" stroke="url(#paint12_linear)" stroke-miterlimit="10"/>
<path d="M204.963 54.5453L162.604 94.995" stroke="url(#paint13_linear)" stroke-miterlimit="10"/>
<path d="M291.255 191.623L250.948 203.043" stroke="url(#paint14_linear)" stroke-miterlimit="10"/>
<path d="M227.648 132.367L255.226 116.468" stroke="url(#paint15_linear)" stroke-miterlimit="10"/>
<path d="M60.2974 261.375L31.6243 244.826V224.345L60.2974 240.86V261.375Z" fill="url(#paint16_linear)"/>
<path d="M261.829 152.643L201.369 187.212L201.917 232.654L261.076 255.426L261.829 152.643Z" fill="url(#paint17_linear)"/>
<path d="M155.04 201.949L124.245 220.413L124.519 244.758L154.663 256.93L155.04 201.949Z" fill="url(#paint18_linear)"/>
<defs>
<linearGradient id="paint0_linear" x1="46.8713" y1="225.145" x2="119.316" y2="225.145" gradientUnits="userSpaceOnUse">
<stop stop-color="#7637E4"/>
<stop offset="1" stop-color="#FBA3C9"/>
</linearGradient>
<linearGradient id="paint1_linear" x1="81.8148" y1="195.678" x2="194.125" y2="195.678" gradientUnits="userSpaceOnUse">
<stop stop-color="#7637E4"/>
<stop offset="1" stop-color="#FBA3C9"/>
</linearGradient>
<linearGradient id="paint2_linear" x1="171.817" y1="215.882" x2="59.609" y2="142.783" gradientUnits="userSpaceOnUse">
<stop stop-color="#7637E4"/>
<stop offset="1" stop-color="#FBA3C9"/>
</linearGradient>
<linearGradient id="paint3_linear" x1="118.411" y1="248.707" x2="43.4852" y2="194.076" gradientUnits="userSpaceOnUse">
<stop stop-color="#7637E4"/>
<stop offset="1" stop-color="#FBA3C9"/>
</linearGradient>
<linearGradient id="paint4_linear" x1="81.836" y1="130.245" x2="250.618" y2="130.245" gradientUnits="userSpaceOnUse">
<stop stop-color="#7637E4"/>
<stop offset="1" stop-color="#FBA3C9"/>
</linearGradient>
<linearGradient id="paint5_linear" x1="-0.471294" y1="109.294" x2="135.837" y2="109.294" gradientUnits="userSpaceOnUse">
<stop stop-color="#FFCCC8"/>
<stop offset="1" stop-color="#FFCCC8" stop-opacity="0.2"/>
</linearGradient>
<linearGradient id="paint6_linear" x1="194.126" y1="211.743" x2="250.75" y2="211.743" gradientUnits="userSpaceOnUse">
<stop stop-color="#7637E4"/>
<stop offset="1" stop-color="#FBA3C9"/>
</linearGradient>
<linearGradient id="paint7_linear" x1="119.316" y1="235.508" x2="155.842" y2="235.508" gradientUnits="userSpaceOnUse">
<stop stop-color="#7637E4"/>
<stop offset="1" stop-color="#FBA3C9"/>
</linearGradient>
<linearGradient id="paint8_linear" x1="46.885" y1="183.116" x2="155.758" y2="183.116" gradientUnits="userSpaceOnUse">
<stop stop-color="#7637E4"/>
<stop offset="1" stop-color="#FBA3C9"/>
</linearGradient>
<linearGradient id="paint9_linear" x1="25.9739" y1="243.066" x2="67.2704" y2="243.066" gradientUnits="userSpaceOnUse">
<stop stop-color="#7637E4"/>
<stop offset="1" stop-color="#FBA3C9"/>
</linearGradient>
<linearGradient id="paint10_linear" x1="25.9814" y1="219.108" x2="88.044" y2="219.108" gradientUnits="userSpaceOnUse">
<stop stop-color="#7637E4"/>
<stop offset="1" stop-color="#FBA3C9"/>
</linearGradient>
<linearGradient id="paint11_linear" x1="67.271" y1="248.973" x2="88.0922" y2="248.973" gradientUnits="userSpaceOnUse">
<stop stop-color="#7637E4"/>
<stop offset="1" stop-color="#FBA3C9"/>
</linearGradient>
<linearGradient id="paint12_linear" x1="-nan" y1="-nan" x2="-nan" y2="-nan" gradientUnits="userSpaceOnUse">
<stop stop-color="#FFCCC8"/>
<stop offset="1" stop-color="#FFCCC8" stop-opacity="0.2"/>
</linearGradient>
<linearGradient id="paint13_linear" x1="161.438" y1="74.7678" x2="206.136" y2="74.7678" gradientUnits="userSpaceOnUse">
<stop stop-color="#FFCCC8"/>
<stop offset="1" stop-color="#FFCCC8" stop-opacity="0.2"/>
</linearGradient>
<linearGradient id="paint14_linear" x1="250.482" y1="197.345" x2="291.717" y2="197.345" gradientUnits="userSpaceOnUse">
<stop stop-color="#FFCCC8"/>
<stop offset="1" stop-color="#FFCCC8" stop-opacity="0.2"/>
</linearGradient>
<linearGradient id="paint15_linear" x1="226.809" y1="124.433" x2="256.073" y2="124.433" gradientUnits="userSpaceOnUse">
<stop stop-color="#FFCCC8"/>
<stop offset="1" stop-color="#FFCCC8" stop-opacity="0.2"/>
</linearGradient>
<linearGradient id="paint16_linear" x1="68.7067" y1="262.013" x2="18.2591" y2="219.442" gradientUnits="userSpaceOnUse">
<stop stop-color="#FFCCC8"/>
<stop offset="1" stop-color="#FFCCC8" stop-opacity="0"/>
</linearGradient>
<linearGradient id="paint17_linear" x1="185.099" y1="204.041" x2="245.558" y2="204.041" gradientUnits="userSpaceOnUse">
<stop stop-color="#FFCCC8"/>
<stop offset="1" stop-color="#FFCCC8" stop-opacity="0"/>
</linearGradient>
<linearGradient id="paint18_linear" x1="115.058" y1="229.44" x2="145.853" y2="229.44" gradientUnits="userSpaceOnUse">
<stop stop-color="#FFCCC8"/>
<stop offset="1" stop-color="#FFCCC8" stop-opacity="0"/>
</linearGradient>
</defs>
</svg>
