<svg width="195" height="40" viewBox="0 0 195 40" fill="none" xmlns="http://www.w3.org/2000/svg">
<path d="M15.0042 15.4024C10.1577 15.683 5.57678 15.9472 0.0498047 22.7487C0.647315 27.0904 2.63902 30.9864 5.56018 33.9744C5.74275 33.7598 5.92532 33.5617 6.1079 33.3636L21.2282 14.61C19.1203 15.1548 17.0457 15.2868 15.0042 15.4024Z" fill="url(#paint0_radial)"/>
<path d="M16.0664 26.6776C18.556 25.9348 20.9627 25.7532 23.2365 25.5716C28.9793 25.1424 33.9419 24.7461 39.5353 15.5344C38.6058 11.4568 36.415 7.8745 33.3942 5.16711L16.0664 26.6776Z" fill="url(#paint1_radial)"/>
<path d="M14.7884 11.8366C20.0166 11.5394 24.5809 11.2588 29.9751 2.69088C27.0207 0.990508 23.6017 0 19.9336 0C9.67635 0 1.22822 7.64342 0 17.5155C5.42739 12.3813 10.3568 12.1007 14.7884 11.8366Z" fill="url(#paint2_radial)"/>
<path d="M23.5022 29.1374C18.6391 29.5006 14.0084 29.8638 8.82995 35.6582L8.31543 36.3021C11.6017 38.6298 15.6017 40 19.9503 40C30.6557 40 39.4026 31.6632 40.0001 21.1638C34.3569 28.2955 28.8466 28.7247 23.5022 29.1374Z" fill="url(#paint3_radial)"/>
<path d="M98.9069 20.8414C98.8498 20.0878 98.5757 19.3941 98.1074 18.7481C97.6391 18.1022 97.011 17.5998 96.2458 17.217C95.4805 16.8343 94.6582 16.6548 93.7788 16.6548C92.7737 16.6548 91.8486 16.8941 91.0034 17.3725C90.1583 17.851 89.4844 18.5807 88.9819 19.5615C88.4679 20.5424 88.2166 21.7505 88.2166 23.1979C88.2166 24.5496 88.4565 25.7218 88.9476 26.7146C89.4387 27.7074 90.0897 28.473 90.9235 29.0113C91.7572 29.5376 92.6823 29.8007 93.7102 29.8007C94.464 29.8007 95.1379 29.6931 95.7204 29.4778C96.3029 29.2624 96.794 28.9514 97.1823 28.5447C97.582 28.1381 97.8904 27.6357 98.096 27.0615H103.098C102.767 28.3175 102.173 29.4778 101.294 30.5543C100.426 31.6309 99.3409 32.4801 98.0503 33.1261C96.7597 33.772 95.3435 34.083 93.7902 34.083C91.8829 34.083 90.1583 33.5926 88.6164 32.6237C87.0745 31.6548 85.8753 30.339 84.9959 28.7003C84.1279 27.0495 83.6938 25.2433 83.6938 23.2697C83.6938 21.3079 84.1279 19.5017 84.9959 17.8391C85.8639 16.1764 87.0745 14.8845 88.6164 13.9156C90.1468 12.9467 91.8829 12.4683 93.8016 12.4683C95.6975 12.4683 97.3879 12.9467 98.8841 13.8917C100.38 14.8367 101.545 16.1166 102.379 17.7194C103.213 19.3223 103.624 21.0567 103.624 22.9228C103.624 23.162 103.612 23.4132 103.59 23.6644C103.567 23.9275 103.544 24.2146 103.532 24.5496H87.4514L87.657 20.8414H98.9069Z" fill="white"/>
<path d="M110.333 13.0784H114.684V16.2483C115.061 15.5066 115.587 14.8488 116.249 14.2746C116.912 13.7004 117.677 13.2579 118.556 12.9349C119.424 12.6119 120.361 12.4564 121.343 12.4564C123.068 12.4564 124.518 12.8392 125.683 13.6167C126.848 14.3942 127.716 15.5186 128.299 17.0138C128.881 18.4971 129.167 20.3272 129.167 22.4803V33.4731H124.587V22.576C124.587 20.6143 124.198 19.1789 123.41 18.2578C122.622 17.3368 121.514 16.8822 120.075 16.8822C119.162 16.8822 118.316 17.1215 117.528 17.6119C116.74 18.1023 116.112 18.8081 115.632 19.7411C115.164 20.6741 114.924 21.7746 114.924 23.0425V33.4611H110.344V13.0784H110.333Z" fill="white"/>
<path d="M138.619 12.9587C139.144 12.9587 139.681 12.9587 140.206 12.9587C140.732 12.9587 141.246 12.9587 141.748 12.9587C142.251 12.9587 142.742 12.9587 143.21 12.9587V33.473H138.63V12.9587H138.619Z" fill="white"/>
<path d="M138.619 5.54248C139.144 5.54248 139.681 5.54248 140.206 5.54248C140.732 5.54248 141.246 5.54248 141.748 5.54248C142.251 5.54248 142.742 5.54248 143.21 5.54248V9.83672H138.63V5.54248H138.619Z" fill="white"/>
<path d="M175.178 5.54248H179.758V13.8558L179.643 16.1405C180.043 15.3989 180.569 14.753 181.22 14.2027C181.859 13.6525 182.602 13.2219 183.447 12.9228C184.28 12.6238 185.194 12.4802 186.188 12.4802C187.912 12.4802 189.363 12.863 190.528 13.6405C191.693 14.418 192.561 15.5424 193.143 17.0376C193.726 18.5209 194.011 20.351 194.011 22.5041V33.4969H189.431V22.5998C189.431 20.6381 189.043 19.2027 188.255 18.2817C187.467 17.3606 186.359 16.9061 184.92 16.9061C184.018 16.9061 183.173 17.1692 182.385 17.6836C181.585 18.2099 180.957 18.9395 180.477 19.8726C180.009 20.8175 179.769 21.8821 179.769 23.0663V33.4849H175.189V5.54248H175.178Z" fill="white"/>
<path d="M161.941 29.1788C161.529 28.9754 161.198 28.6046 160.936 28.0783C160.673 27.552 160.547 26.8343 160.547 25.9132V20.1238H155.967V25.7218C155.967 27.8151 156.287 29.43 156.915 30.5663C157.543 31.7027 158.331 32.4802 159.268 32.8749C160.205 33.2697 161.255 33.473 162.432 33.473H166.395V29.4898H163.38C162.831 29.4898 162.352 29.3821 161.941 29.1788Z" fill="white"/>
<path d="M160.547 13.0784V7.07361L155.967 7.10949V13.0784H151.936V17.1453H166.166V17.2051H166.383V13.0784H160.547Z" fill="white"/>
<path d="M71.0737 17.1453H76.5331L77.3326 17.1573V13.0784H61.5142V17.1334H71.0966L71.0737 17.1453Z" fill="white"/>
<path d="M67.3045 29.43L74.3057 20.1238H68.8349L61 30.4945V33.473H77.7778V29.43H67.3045Z" fill="white"/>
<defs>
<radialGradient id="paint0_radial" cx="0" cy="0" r="1" gradientUnits="userSpaceOnUse" gradientTransform="translate(25.5849 12.032) scale(33.3841 33.205)">
<stop stop-color="#EC4036"/>
<stop offset="1" stop-color="#F8AD40"/>
</radialGradient>
<radialGradient id="paint1_radial" cx="0" cy="0" r="1" gradientUnits="userSpaceOnUse" gradientTransform="translate(25.5849 12.032) scale(33.3841 33.205)">
<stop stop-color="#EC4036"/>
<stop offset="1" stop-color="#F8AD40"/>
</radialGradient>
<radialGradient id="paint2_radial" cx="0" cy="0" r="1" gradientUnits="userSpaceOnUse" gradientTransform="translate(25.5849 12.032) scale(33.3841 33.205)">
<stop stop-color="#EC4036"/>
<stop offset="1" stop-color="#F8AD40"/>
</radialGradient>
<radialGradient id="paint3_radial" cx="0" cy="0" r="1" gradientUnits="userSpaceOnUse" gradientTransform="translate(25.585 12.032) scale(33.3841 33.205)">
<stop stop-color="#EC4036"/>
<stop offset="1" stop-color="#F8AD40"/>
</radialGradient>
</defs>
</svg>
