<svg width="82" height="100" viewBox="0 0 82 100" fill="none" xmlns="http://www.w3.org/2000/svg">
<path d="M55.9677 50.2509L70.5131 43.6822L73.4315 53.1599L60.1101 61.6054L55.9677 50.2509Z" fill="url(#paint0_linear)"/>
<path d="M54.6498 20.4568L62.0402 27.6824L47.589 35.7525L40.8576 27.1193L54.6498 20.4568Z" fill="url(#paint1_linear)"/>
<path d="M15.5793 7.31943L22.7814 19.7531L28.6184 20.41L32.3842 6.94408L28.336 0L15.5793 7.31943Z" fill="url(#paint2_linear)"/>
<path d="M9.22547 20.2225L0.23465 25.3836L10.0728 31.0609L13.462 26.0405L9.22547 20.2225Z" fill="url(#paint3_linear)"/>
<path d="M55.8291 30.0752L65.6201 46.9662L78.3767 39.6468L68.5386 22.7089L55.8291 30.0752Z" fill="url(#paint4_linear)"/>
<path d="M41.846 85.9562V97.2638L50.8839 92.0557L47.683 86.613L41.846 85.9562Z" fill="url(#paint5_linear)"/>
<path d="M58.0395 80.6546L65.2415 93.0413L77.9981 85.7219L69.7605 63.9982L57.8983 73.5228L58.0395 80.6546Z" fill="url(#paint6_linear)"/>
<path d="M69.0548 81.5461L69.2431 65.0774L81.9997 57.7111L81.7643 74.2267L69.0548 81.5461Z" fill="url(#paint7_linear)"/>
<path d="M69.2438 65.0772L60.5825 60.1038L73.3391 52.7374L82.0004 57.7109L69.2438 65.0772Z" fill="url(#paint8_linear)"/>
<path d="M27.4897 9.75931L41.8938 17.8295L54.6504 10.51L40.1992 2.43988L27.4897 9.75931Z" fill="url(#paint9_linear)"/>
<path d="M41.8958 17.8293V27.7762L54.6524 20.4568V10.5099L41.8958 17.8293Z" fill="url(#paint10_linear)"/>
<path d="M69.0551 81.5462L69.2905 65.0775L60.6292 60.104C60.0643 57.2419 59.217 54.3329 58.0873 51.3301L65.6188 46.9666L55.8278 30.0286L48.2962 34.3922C46.2721 31.9054 44.1068 29.7002 41.9414 27.8234V17.8296L27.4902 9.75945V20.0817C25.8427 19.7533 24.2893 19.6595 22.783 19.7533L15.5809 7.31964L5.22503 13.2784L12.4271 25.7121C11.3915 27.2604 10.5913 29.0433 10.0735 31.0609L0.235362 25.3836L0 41.8993L10.2147 47.7642C10.7325 50.1571 11.4857 52.5969 12.4271 55.0367L4.89552 59.4002L14.6866 76.3381L22.2181 71.9746C23.8657 73.9922 25.6074 75.8689 27.3961 77.5111V89.241L41.8002 97.3111V86.0035C43.8243 86.5196 45.8014 86.7542 47.6372 86.6135L54.8393 99.0471L65.1952 93.0884L57.9931 80.6547C58.8404 79.3879 59.4994 77.9803 60.0172 76.432L69.0551 81.5462ZM45.7543 61.6054C42.3651 60.4324 38.6935 57.2419 36.0574 52.6907C33.4684 48.1865 32.4799 43.4007 33.186 39.8817C36.5752 41.0547 40.2468 44.2452 42.8829 48.7495C45.5189 53.3007 46.4604 58.0865 45.7543 61.6054Z" fill="url(#paint11_linear)"/>
<path d="M45.6573 56.0685C45.7985 56.7723 45.8926 57.4761 45.9397 58.133C45.8455 57.4761 45.7985 56.7723 45.6573 56.0685Z" fill="url(#paint12_linear)"/>
<path d="M42.88 48.7963C42.268 47.7171 41.609 46.7787 40.95 45.8873C41.609 46.7787 42.268 47.7171 42.88 48.7963Z" fill="url(#paint13_linear)"/>
<path d="M44.7649 52.8782C45.0473 53.6289 45.2356 54.3327 45.4239 55.0365C45.2356 54.3327 45.0003 53.582 44.7649 52.8782Z" fill="url(#paint14_linear)"/>
<path d="M45.7533 61.558C45.8945 60.7604 45.9887 59.8689 45.9416 58.9305C45.9887 59.8689 45.9416 60.7604 45.7533 61.558Z" fill="url(#paint15_linear)"/>
<path d="M42.8806 48.7963C43.4925 49.8285 43.9632 50.8607 44.3869 51.9399C43.9632 50.8607 43.4925 49.8285 42.8806 48.7963Z" fill="url(#paint16_linear)"/>
<path d="M40.292 45.1365C39.7742 44.5265 39.2564 43.9635 38.7386 43.4474C39.2564 43.9635 39.7742 44.5265 40.292 45.1365Z" fill="url(#paint17_linear)"/>
<path d="M36.0557 52.6905C33.4667 48.1862 32.4782 43.4004 33.1843 39.8815C31.2072 39.2246 29.2773 39.2246 27.6768 40.163C23.4403 42.6028 23.3932 50.3914 27.5827 57.617C31.7721 64.7957 38.5505 68.69 42.787 66.2502C44.3404 65.3587 45.3289 63.7165 45.7526 61.6521C42.3634 60.4322 38.6917 57.2416 36.0557 52.6905Z" fill="url(#paint18_linear)"/>
<path d="M33.2315 39.8815C34.0317 40.163 34.7849 40.5383 35.5851 41.0075C34.7849 40.5383 33.9846 40.163 33.2315 39.8815Z" fill="url(#paint19_linear)"/>
<path d="M36.2428 41.4766C36.8077 41.852 37.3725 42.2743 37.9374 42.7434C37.3725 42.2743 36.8077 41.852 36.2428 41.4766Z" fill="url(#paint20_linear)"/>
<defs>
<linearGradient id="paint0_linear" x1="55.9738" y1="52.6377" x2="73.4315" y2="52.6377" gradientUnits="userSpaceOnUse">
<stop stop-color="#FFCCC8"/>
<stop offset="1" stop-color="#FFF0F1"/>
</linearGradient>
<linearGradient id="paint1_linear" x1="40.8807" y1="28.1009" x2="62.0633" y2="28.1009" gradientUnits="userSpaceOnUse">
<stop stop-color="#FFCCC8"/>
<stop offset="1" stop-color="#FFF0F1"/>
</linearGradient>
<linearGradient id="paint2_linear" x1="15.5982" y1="10.2012" x2="32.3625" y2="10.2012" gradientUnits="userSpaceOnUse">
<stop stop-color="#FFCCC8"/>
<stop offset="1" stop-color="#FFF0F1"/>
</linearGradient>
<linearGradient id="paint3_linear" x1="0.211584" y1="25.6304" x2="13.4799" y2="25.6304" gradientUnits="userSpaceOnUse">
<stop stop-color="#FFCCC8"/>
<stop offset="1" stop-color="#FFF0F1"/>
</linearGradient>
<linearGradient id="paint4_linear" x1="55.8202" y1="34.8521" x2="78.3603" y2="34.8521" gradientUnits="userSpaceOnUse">
<stop stop-color="#FFCCC8"/>
<stop offset="1" stop-color="#FFF0F1"/>
</linearGradient>
<linearGradient id="paint5_linear" x1="41.8338" y1="91.6194" x2="50.8688" y2="91.6194" gradientUnits="userSpaceOnUse">
<stop stop-color="#FFCCC8"/>
<stop offset="1" stop-color="#FFF0F1"/>
</linearGradient>
<linearGradient id="paint6_linear" x1="57.918" y1="78.523" x2="77.9925" y2="78.523" gradientUnits="userSpaceOnUse">
<stop stop-color="#FFCCC8"/>
<stop offset="1" stop-color="#FFF0F1"/>
</linearGradient>
<linearGradient id="paint7_linear" x1="69.0473" y1="69.6408" x2="81.9945" y2="69.6408" gradientUnits="userSpaceOnUse">
<stop stop-color="#FFCCC8"/>
<stop offset="1" stop-color="#FFF0F1"/>
</linearGradient>
<linearGradient id="paint8_linear" x1="60.599" y1="58.9116" x2="81.9953" y2="58.9116" gradientUnits="userSpaceOnUse">
<stop stop-color="#FFCCC8"/>
<stop offset="1" stop-color="#FFF0F1"/>
</linearGradient>
<linearGradient id="paint9_linear" x1="27.4718" y1="10.1361" x2="54.6363" y2="10.1361" gradientUnits="userSpaceOnUse">
<stop stop-color="#FFCCC8"/>
<stop offset="1" stop-color="#FFF0F1"/>
</linearGradient>
<linearGradient id="paint10_linear" x1="41.8944" y1="19.1473" x2="54.6383" y2="19.1473" gradientUnits="userSpaceOnUse">
<stop stop-color="#FFCCC8"/>
<stop offset="1" stop-color="#FFF0F1"/>
</linearGradient>
<linearGradient id="paint11_linear" x1="0" y1="53.1754" x2="69.2599" y2="53.1754" gradientUnits="userSpaceOnUse">
<stop stop-color="#FFCCC8"/>
<stop offset="1" stop-color="#FFF0F1"/>
</linearGradient>
<linearGradient id="paint12_linear" x1="45.6389" y1="57.0951" x2="45.9049" y2="57.0951" gradientUnits="userSpaceOnUse">
<stop stop-color="#FFCCC8"/>
<stop offset="1" stop-color="#FFF0F1"/>
</linearGradient>
<linearGradient id="paint13_linear" x1="40.9298" y1="47.339" x2="42.8917" y2="47.339" gradientUnits="userSpaceOnUse">
<stop stop-color="#FFCCC8"/>
<stop offset="1" stop-color="#FFF0F1"/>
</linearGradient>
<linearGradient id="paint14_linear" x1="44.7536" y1="53.9471" x2="45.415" y2="53.9471" gradientUnits="userSpaceOnUse">
<stop stop-color="#FFCCC8"/>
<stop offset="0.9999" stop-color="#FFF0F1"/>
<stop offset="1" stop-color="#FBA3C9"/>
</linearGradient>
<linearGradient id="paint15_linear" x1="45.7693" y1="60.2584" x2="45.9698" y2="60.2584" gradientUnits="userSpaceOnUse">
<stop stop-color="#FFCCC8"/>
<stop offset="1" stop-color="#FFF0F1"/>
</linearGradient>
<linearGradient id="paint16_linear" x1="42.8923" y1="50.3399" x2="44.4071" y2="50.3399" gradientUnits="userSpaceOnUse">
<stop stop-color="#FFCCC8"/>
<stop offset="1" stop-color="#FFF0F1"/>
</linearGradient>
<linearGradient id="paint17_linear" x1="38.7179" y1="44.298" x2="40.2704" y2="44.298" gradientUnits="userSpaceOnUse">
<stop stop-color="#FFCCC8"/>
<stop offset="1" stop-color="#FFF0F1"/>
</linearGradient>
<linearGradient id="paint18_linear" x1="24.5027" y1="53.178" x2="45.7592" y2="53.178" gradientUnits="userSpaceOnUse">
<stop stop-color="#FFCCC8"/>
<stop offset="1" stop-color="#FFF0F1"/>
</linearGradient>
<linearGradient id="paint19_linear" x1="33.2188" y1="40.4656" x2="35.586" y2="40.4656" gradientUnits="userSpaceOnUse">
<stop stop-color="#FFCCC8"/>
<stop offset="1" stop-color="#FFF0F1"/>
</linearGradient>
<linearGradient id="paint20_linear" x1="36.2612" y1="42.1283" x2="37.9435" y2="42.1283" gradientUnits="userSpaceOnUse">
<stop stop-color="#FFCCC8"/>
<stop offset="1" stop-color="#F0FFF6"/>
</linearGradient>
</defs>
</svg>
