<svg width="120" height="100" viewBox="0 0 120 100" fill="none" xmlns="http://www.w3.org/2000/svg">
<path d="M101.116 84.3079C101.508 83.7597 101.822 83.329 102.057 83.0158C107.471 75.9681 105.98 60.3457 92.4059 51.6143V51.5752L81.2246 58.0356C95.4661 67.1976 96.4077 83.9555 90.0127 90.4159L89.9735 90.7683L101.116 84.3079Z" fill="url(#paint0_linear)"/>
<path d="M42.3451 14.3791C45.4445 12.578 51.6825 8.70179 54.8211 7.3314C71.6912 -0.0295372 95.7802 24.011 92.4061 51.5753L81.2248 58.0357L29.5552 30.4714L42.3451 14.3791Z" fill="url(#paint1_linear)"/>
<path d="M73.3003 88.8107C74.5558 89.5155 75.8112 90.2594 77.0667 90.9642C94.5645 101.027 102.058 71.3872 81.2646 58.0357C85.4232 24.3634 48.466 -4.10155 33.9106 23.5803C13.8234 20.722 7.07539 50.6356 27.0056 62.1077C28.6926 63.0866 30.3797 64.0654 32.0667 65.0443L73.3003 88.8107Z" fill="url(#paint2_linear)"/>
<defs>
<linearGradient id="paint0_linear" x1="81.2426" y1="71.1619" x2="105.005" y2="71.1619" gradientUnits="userSpaceOnUse">
<stop stop-color="#7637E4"/>
<stop offset="1" stop-color="#FBA3C9"/>
</linearGradient>
<linearGradient id="paint1_linear" x1="59.7335" y1="44.7516" x2="70.0907" y2="13.9319" gradientUnits="userSpaceOnUse">
<stop stop-color="#7637E4"/>
<stop offset="1" stop-color="#FBA3C9"/>
</linearGradient>
<linearGradient id="paint2_linear" x1="15.0004" y1="52.71" x2="93.821" y2="52.71" gradientUnits="userSpaceOnUse">
<stop stop-color="#7637E4"/>
<stop offset="1" stop-color="#FBA3C9"/>
</linearGradient>
</defs>
</svg>
