<svg width="270" height="271" viewBox="0 0 270 271" fill="none" xmlns="http://www.w3.org/2000/svg">
<g clip-path="url(#clip0)">
<circle cx="134.5" cy="135.5" r="122.5" fill="url(#paint0_linear)" fill-opacity="0.8"/>
<path d="M100.281 104.351C67.5671 106.252 36.6459 108.042 -0.661133 154.122C3.37206 183.537 16.816 209.932 36.5339 230.176C37.7663 228.722 38.9986 227.38 40.231 226.038L142.293 98.9824C128.065 102.673 114.061 103.568 100.281 104.351Z" fill="url(#paint1_radial)"/>
<path d="M107.445 180.741C124.25 175.708 140.495 174.478 155.843 173.248C194.607 170.34 228.105 167.655 265.86 105.246C259.586 77.6203 244.798 53.35 224.407 35.0074L107.445 180.741Z" fill="url(#paint2_radial)"/>
<path d="M98.8216 80.1927C134.112 78.1795 164.921 76.2782 201.332 18.2307C181.39 6.71069 158.311 0 133.552 0C64.3154 0 7.29046 51.7842 -1 118.667C35.6349 83.8836 68.9087 81.9823 98.8216 80.1927Z" fill="url(#paint3_radial)"/>
<path d="M157.637 197.406C124.811 199.866 93.5536 202.327 58.5992 241.584L55.1262 245.946C77.3088 261.716 104.309 270.999 133.661 270.999C205.923 270.999 264.964 214.518 268.998 143.385C230.906 191.701 193.711 194.609 157.637 197.406Z" fill="url(#paint4_radial)"/>
</g>
<defs>
<linearGradient id="paint0_linear" x1="12" y1="-20.9821" x2="174.785" y2="149.202" gradientUnits="userSpaceOnUse">
<stop stop-color="#BB6BB3"/>
<stop offset="1" stop-color="#452284"/>
</linearGradient>
<radialGradient id="paint1_radial" cx="0" cy="0" r="1" gradientUnits="userSpaceOnUse" gradientTransform="translate(178.484 99.3716) scale(216.492 216.128)">
<stop stop-color="#25A7DE"/>
<stop offset="0.1398" stop-color="#2C9FD9"/>
<stop offset="0.3606" stop-color="#3E88CA"/>
<stop offset="0.6347" stop-color="#5D63B2"/>
<stop offset="0.9489" stop-color="#873092"/>
<stop offset="1" stop-color="#8E278C"/>
</radialGradient>
<radialGradient id="paint2_radial" cx="0" cy="0" r="1" gradientUnits="userSpaceOnUse" gradientTransform="translate(178.478 99.3719) scale(216.492 216.128)">
<stop stop-color="#25A7DE"/>
<stop offset="0.1398" stop-color="#2C9FD9"/>
<stop offset="0.3606" stop-color="#3E88CA"/>
<stop offset="0.6347" stop-color="#5D63B2"/>
<stop offset="0.9489" stop-color="#873092"/>
<stop offset="1" stop-color="#8E278C"/>
</radialGradient>
<radialGradient id="paint3_radial" cx="0" cy="0" r="1" gradientUnits="userSpaceOnUse" gradientTransform="translate(178.482 99.3719) scale(216.492 216.128)">
<stop stop-color="#25A7DE"/>
<stop offset="0.1398" stop-color="#2C9FD9"/>
<stop offset="0.3606" stop-color="#3E88CA"/>
<stop offset="0.6347" stop-color="#5D63B2"/>
<stop offset="0.9489" stop-color="#873092"/>
<stop offset="1" stop-color="#8E278C"/>
</radialGradient>
<radialGradient id="paint4_radial" cx="0" cy="0" r="1" gradientUnits="userSpaceOnUse" gradientTransform="translate(178.479 99.3714) scale(216.492 216.128)">
<stop stop-color="#25A7DE"/>
<stop offset="0.1398" stop-color="#2C9FD9"/>
<stop offset="0.3606" stop-color="#3E88CA"/>
<stop offset="0.6347" stop-color="#5D63B2"/>
<stop offset="0.9489" stop-color="#873092"/>
<stop offset="1" stop-color="#8E278C"/>
</radialGradient>
<clipPath id="clip0">
<rect width="270" height="271" fill="white"/>
</clipPath>
</defs>
</svg>
