<svg width="1178" height="884" viewBox="0 0 1178 884" fill="none" xmlns="http://www.w3.org/2000/svg">
<g clip-path="url(#clip0)">
<path d="M272.413 403.131L301.425 347.568L301.333 229.721L224.326 276.45" fill="url(#paint0_linear)"/>
<path d="M144.65 296.467L191.275 270.33C199.857 265.372 214.295 270.33 223.774 275.806L245.551 288.483C258.792 296.122 272.55 312.86 272.55 344.853L272.309 435.308L251.935 435.009L227.559 449.078L179.369 421.94L128.97 332.049L144.65 296.467Z" fill="url(#paint1_linear)"/>
<path d="M227.559 449.089L227.628 371.496C226.742 347.199 221.013 329.909 209.67 320.717L179.081 302.415L178.725 302.633L179.369 421.963L227.559 449.089Z" fill="url(#paint2_linear)"/>
<path d="M272.286 510.198C272.297 517.066 272.32 525.487 272.332 536.646H272.378C272.378 541.799 272.815 546.194 274.138 549.484C275.116 551.946 276.738 554.017 279.28 555.593L279.752 555.846L297.192 565.923C297.698 566.222 298.135 566.521 298.503 566.843L298.434 566.797L288.046 584.79C288.357 584.974 287.448 584.801 286.562 584.283L269.122 574.206L268.467 573.792C261.53 569.604 257.135 564.025 254.443 557.284C251.947 551.014 251.107 544.135 251.107 536.634H251.153C251.13 513.281 251.107 510.336 251.073 500.075" fill="url(#paint3_linear)"/>
<path d="M451.989 187.03L457.395 196.406L461.801 196.901L464.608 186.743L461.571 181.486L451.989 187.03Z" fill="url(#paint4_linear)"/>
<path d="M447.203 196.751L440.393 200.686L447.813 204.954L450.389 201.146L447.203 196.751Z" fill="url(#paint5_linear)"/>
<path d="M471.81 184.063V156.879L611.617 237.728V358.519L471.81 277.808V253.949" fill="url(#paint6_linear)"/>
<path d="M558.031 327.585L611.617 358.519L681.342 318.267V300.413L712.207 318.233L611.617 376.304L443.05 278.981L471.81 262.381V277.808L506.114 297.618" fill="url(#paint7_linear)"/>
<path d="M914.492 309.444C922.13 305.015 937.626 295.374 945.449 291.958C987.208 273.701 1046.97 333.383 1038.61 401.808L1010.88 417.822L866.014 337.64L914.492 309.444Z" fill="url(#paint8_linear)"/>
<path d="M611.617 358.519L665.444 327.447L640.342 312.952C640.227 312.883 640.112 312.814 640.008 312.734C640.446 311.388 641.009 310.088 641.803 308.707C642.597 307.338 643.575 306.015 644.598 304.911L644.886 305.072L674.532 322.19L681.342 318.256V197.476L611.617 237.728V358.519Z" fill="url(#paint9_linear)"/>
<path d="M991.176 494.219C994.283 496.014 997.377 497.797 1000.48 499.592C1043.82 524.613 1062.37 450.976 1010.88 417.822C1021.19 334.177 929.642 263.508 893.554 332.267C843.777 325.215 827.062 399.473 876.402 427.957C880.589 430.373 884.765 432.788 888.953 435.204" fill="url(#paint10_linear)"/>
<path d="M1060.13 483.072C1061.07 481.761 1061.87 480.656 1062.5 479.839C1075.96 462.388 1072.19 423.539 1038.6 401.9L1038.61 401.797L1010.88 417.81C1046.14 440.519 1048.55 482.198 1032.65 498.188L1032.51 499.016L1060.13 483.072Z" fill="url(#paint11_linear)"/>
<path d="M852.98 352.422L810.588 328.16L821.034 322.132L859.204 343.76C856.8 346.337 854.717 349.247 852.98 352.422Z" fill="url(#paint12_linear)"/>
<path d="M731.108 282.662L711.586 271.492C709.354 270.204 706.547 269.663 703.682 269.744C700.806 269.824 697.597 270.825 694.387 272.194C694.261 269.26 692.984 266.281 691.062 264.187C695.388 262.116 699.863 260.483 704.672 260.345C709.02 260.218 713.392 261.116 717.027 263.221L731.131 271.205L731.108 282.662Z" fill="url(#paint13_linear)"/>
<path d="M681.319 278.981L681.261 279.004V269.283L681.319 269.26V278.981Z" fill="url(#paint14_linear)"/>
<path d="M620.521 256.33L673.968 225.477V216.561L620.521 247.415V256.33Z" fill="#FFCCC8"/>
<path d="M620.521 272.332L673.968 241.479V232.563L620.521 263.416V272.332Z" fill="#FFCCC8"/>
<path d="M620.521 288.334L673.968 257.48V248.565L620.521 279.418V288.334Z" fill="#FFCCC8"/>
<path d="M620.521 304.336L673.968 273.482V264.567L620.521 295.42V304.336Z" fill="#FFCCC8"/>
<path d="M635.959 468.128L593.049 492.896C595.235 494.898 596.742 497.993 597.018 501.11L637.604 477.677L635.959 476.733V468.128Z" fill="url(#paint15_linear)"/>
<path d="M272.194 448.135L329.345 476.124L272.343 412.427" fill="url(#paint16_linear)"/>
<path d="M272.194 448.135L329.345 476.124L272.079 434.537C272.171 436.55 272.205 438.621 272.205 440.761V448.135H272.194Z" fill="url(#paint17_linear)"/>
<path d="M128.982 332.06C125.358 295.213 152.899 286.102 178.621 302.357L128.982 332.06Z" fill="url(#paint18_linear)"/>
<path d="M194.393 332.601L195.256 356.472L210.982 365.663C212.949 353.63 206.185 337.95 194.393 332.601Z" fill="#FFCCC8"/>
<path d="M118.513 362.994L179.012 302.461L178.92 466.575L149.654 494.53L118.456 460.352L118.513 362.994Z" fill="url(#paint19_linear)"/>
<path d="M92.5488 450.689L118.456 460.352L118.513 363.006L92.6409 353.342L92.5488 450.689Z" fill="url(#paint20_linear)"/>
<path d="M137.103 489.848L149.654 494.53L118.456 460.352L92.5718 450.7L137.103 489.848Z" fill="url(#paint21_linear)"/>
<path d="M224.591 276.278L301.333 229.722L276.888 219.713L224.591 276.278Z" fill="url(#paint22_linear)"/>
<path d="M251.027 486.155C251.027 483.992 251.015 482.094 251.015 480.955C250.969 467.266 250.935 455.589 250.935 442.877C250.935 435.768 249.727 427.209 243.572 422.63C234.438 415.843 247.334 399.37 256.986 405.467C270.629 413.347 272.217 425.61 272.217 440.749C272.217 480.702 272.24 485.775 272.252 491.688C272.263 495.703 272.275 499.879 272.298 504.883" fill="url(#paint23_linear)"/>
<path d="M283.675 515.295L209.44 449.814L209.544 422.573L195.003 430.971L194.899 458.58L283.629 515.26L283.675 515.295Z" fill="url(#paint24_linear)"/>
<path d="M283.675 515.294L194.899 458.58L195.003 430.971L179.381 421.952L179.266 466.61L283.675 515.294Z" fill="url(#paint25_linear)"/>
<path d="M909.89 421.549C885.72 418.121 877.61 454.174 901.561 468.013L905.127 470.073V469.555C905.127 467.852 905.507 465.931 906.289 464.252C907.026 462.687 908.118 461.318 909.614 460.444L915.953 456.786C918.15 455.233 920.405 459.305 918.311 460.858L911.972 464.516H911.961C911.374 464.861 910.902 465.483 910.546 466.242C910.074 467.254 909.844 468.462 909.844 469.543V472.788L915.849 476.25V475.894C915.849 474.191 916.229 472.27 917.011 470.59C917.747 469.026 918.84 467.657 920.336 466.783L926.674 463.124C928.871 461.571 931.126 465.644 929.033 467.197L922.694 470.855H922.682C922.096 471.2 921.624 471.821 921.267 472.58C920.796 473.593 920.566 474.801 920.566 475.882V478.965L926.571 482.428V482.232C926.571 480.53 926.95 478.609 927.733 476.929C928.469 475.364 929.562 473.995 931.057 473.121L937.396 469.463C939.593 467.91 941.848 471.982 939.754 473.535L933.415 477.194H933.404C932.817 477.539 932.346 478.16 931.989 478.919C931.517 479.931 931.287 481.139 931.287 482.221V485.143L961.807 502.767C982.848 514.915 991.855 479.161 966.857 463.067C971.873 422.481 927.422 388.165 909.89 421.549Z" fill="url(#paint26_linear)"/>
<path d="M914.929 414.451L898.145 423.355C901.435 421.641 905.392 420.905 909.902 421.538C910.166 421.031 910.442 420.537 910.718 420.065L910.753 419.996C911.017 419.547 911.282 419.11 911.558 418.685L911.662 418.524C911.903 418.155 912.156 417.787 912.409 417.442L912.651 417.109C912.847 416.844 913.054 416.579 913.261 416.326C913.422 416.119 913.594 415.924 913.755 415.728L914.135 415.279C914.365 415.026 914.595 414.773 914.825 414.532L914.929 414.451Z" fill="url(#paint27_linear)"/>
<path d="M990.774 494.772C991.234 494.139 991.614 493.598 991.924 493.195C998.459 484.717 996.629 465.862 980.317 455.359V455.313L966.857 463.09C983.975 474.11 985.149 494.346 977.43 502.111L977.36 502.514L990.774 494.772Z" fill="url(#paint28_linear)"/>
<path d="M980.328 455.313C984.389 422.09 955.376 393.1 935.095 401.969C935.003 402.016 934.842 402.039 934.646 402.039L923.05 408.768C924.258 408.63 925.616 408.412 927.134 408.101C946.725 405.961 970.446 432.719 966.719 462.986L966.869 463.078L980.328 455.313Z" fill="url(#paint29_linear)"/>
<path d="M890.494 398.748L895.74 395.7C905.841 389.867 893.29 364.386 880.267 371.979L875.815 374.567C880.302 372.646 886.664 376.051 890.402 382.528C893.992 388.729 893.934 395.596 890.494 398.748Z" fill="url(#paint30_linear)"/>
<path d="M875.148 374.901C879.646 372.301 886.479 375.718 890.414 382.528C894.348 389.338 893.888 396.965 889.378 399.565C885.778 401.647 880.681 399.876 876.782 395.596L883.949 391.455C887.986 388.464 883.626 380.595 879.393 383.586L872.249 387.705C870.546 382.217 871.57 376.971 875.148 374.901Z" fill="url(#paint31_linear)"/>
<path d="M803.824 556.133L812.107 551.348H812.13C813.499 550.554 814.638 549.151 815.489 547.482C816.501 545.481 817.042 543.18 817.042 541.063V432.167C817.042 428.877 817.778 425.173 819.285 421.94C820.7 418.915 822.817 416.257 825.704 414.589V414.578L879.382 383.586C883.615 380.595 887.975 388.464 883.937 391.455L830.26 422.446H830.237C829.098 423.102 828.189 424.322 827.499 425.783C826.579 427.738 826.142 430.062 826.142 432.167V541.063C826.142 544.514 825.256 548.288 823.588 551.566C822 554.707 819.653 557.456 816.651 559.205V559.216L807.885 564.278C807.586 561.161 806.033 558.089 803.824 556.133Z" fill="url(#paint32_linear)"/>
<path d="M957.93 477.309C960.588 475.767 964.626 477.792 966.949 481.818C969.273 485.844 968.997 490.354 966.34 491.884C963.682 493.414 959.644 491.401 957.321 487.375C954.997 483.348 955.273 478.85 957.93 477.309Z" fill="url(#paint33_linear)"/>
<path d="M1055.82 507.61L1054.03 504.55L1080.14 489.399C1083.45 487.478 1085.36 484.821 1085.35 482.129C1085.35 479.368 1083.33 476.699 1079.71 474.605L1051.91 458.626L1053.68 455.555L1081.48 471.534C1086.26 474.272 1088.89 478.033 1088.9 482.117C1088.91 486.109 1086.37 489.882 1081.93 492.459L1055.82 507.61Z" fill="url(#paint34_linear)"/>
<path d="M1041.16 516.123L1039.38 513.051L1046.86 508.714L1048.64 511.786L1041.16 516.123Z" fill="url(#paint35_linear)"/>
<path d="M1000.98 533.367C994.8 533.367 988.427 532.125 983.572 529.318L949.935 509.865C943.734 506.275 942.434 502.364 942.423 499.718C942.423 496.094 944.862 492.689 949.302 490.124L965.672 480.645L967.444 483.716L951.074 493.195C947.784 495.105 945.966 497.429 945.966 499.73C945.966 502.157 948.002 504.665 951.707 506.805L985.344 526.258C994.167 531.365 1009.16 530.606 1016.15 526.545L1026.75 520.391L1028.53 523.451L1017.93 529.605C1013.83 531.987 1007.51 533.367 1000.98 533.367Z" fill="url(#paint36_linear)"/>
<path d="M579.67 324.456L584.26 321.787C593.084 316.691 582.121 294.442 570.743 301.08L566.855 303.347C570.766 301.667 576.323 304.646 579.59 310.295C582.73 315.702 582.673 321.707 579.67 324.456Z" fill="url(#paint37_linear)"/>
<path d="M534.667 301.138L534.678 301.126L534.667 301.138Z" fill="url(#paint38_linear)"/>
<path d="M536.726 299.941L541.316 297.272C550.14 292.176 539.177 269.928 527.799 276.565L523.911 278.832C527.822 277.152 533.379 280.132 536.646 285.78C539.775 291.198 539.717 297.203 536.726 299.941Z" fill="url(#paint39_linear)"/>
<path d="M566.28 303.634C570.214 301.368 576.173 304.347 579.613 310.295C583.041 316.242 582.638 322.903 578.716 325.169C575.632 326.952 571.284 325.491 567.89 321.902L574.091 318.325C578.336 315.69 573.608 308.098 568.857 310.847L563.507 313.93C562.38 309.467 563.346 305.325 566.28 303.634Z" fill="url(#paint40_linear)"/>
<path d="M523.324 279.131C527.258 276.865 533.217 279.844 536.657 285.792C540.085 291.739 539.683 298.4 535.76 300.666C532.642 302.461 528.259 300.965 524.854 297.307L530.664 293.959C534.909 291.325 530.18 283.732 525.429 286.482L520.529 289.312C519.436 284.883 520.414 280.799 523.324 279.131Z" fill="url(#paint41_linear)"/>
<path d="M569.248 311.399L505.562 346.498L514.558 351.927L574.332 318.992C578.623 316.438 574.056 308.753 569.248 311.399Z" fill="url(#paint42_linear)"/>
<path d="M436.297 387.371L361.982 430.281C361.165 430.752 360.44 430.971 359.842 430.971L359.831 430.959C359.405 430.959 359.025 430.856 358.726 430.683C358.427 430.511 358.163 430.235 357.967 429.889L357.956 429.878C357.725 429.475 357.587 428.946 357.587 428.348V295.88C357.587 293.982 357.081 292.257 356.23 290.773C355.241 289.059 353.78 287.701 352.1 286.769C350.455 285.861 348.557 285.366 346.67 285.366V285.377C344.876 285.377 343.046 285.826 341.39 286.781V286.769L301.414 309.846L301.425 320.338L345.922 294.65L345.934 294.638C346.152 294.512 346.406 294.454 346.67 294.454L346.682 294.465C347.038 294.465 347.406 294.558 347.717 294.73C347.993 294.88 348.212 295.087 348.35 295.317C348.442 295.478 348.499 295.673 348.499 295.903V428.371C348.499 430.58 349.074 432.65 350.098 434.434H350.087C351.065 436.125 352.445 437.528 354.125 438.517C355.804 439.507 357.748 440.07 359.842 440.059V440.047C361.993 440.047 364.271 439.461 366.514 438.172L436.297 397.886V387.371Z" fill="url(#paint43_linear)"/>
<path d="M525.418 286.47L463.216 322.385V332.889L530.652 293.948C534.897 291.313 530.181 283.721 525.418 286.47Z" fill="url(#paint44_linear)"/>
<path d="M374.567 373.566L357.576 383.379V393.882L383.874 378.697L374.567 373.566Z" fill="url(#paint45_linear)"/>
<path d="M348.476 388.625L333.429 397.31C332.612 397.782 331.888 398.001 331.29 398.001L331.278 397.989C330.852 397.989 330.473 397.886 330.174 397.713C329.875 397.541 329.61 397.264 329.414 396.919L329.403 396.908C329.173 396.505 329.035 395.976 329.035 395.378V361.729C329.035 359.831 328.529 358.105 327.677 356.621C326.688 354.907 325.227 353.55 323.547 352.618C321.902 351.709 320.004 351.214 318.118 351.214V351.226C316.323 351.226 314.494 351.674 312.837 352.629V352.618L292.74 364.214L284.894 379.249L317.37 360.498L317.381 360.486C317.6 360.36 317.853 360.302 318.118 360.302L318.129 360.314C318.486 360.314 318.854 360.406 319.164 360.578C319.441 360.728 319.659 360.935 319.797 361.165C319.889 361.326 319.947 361.522 319.947 361.752V395.401C319.947 397.61 320.522 399.68 321.546 401.463H321.534C322.512 403.154 323.893 404.558 325.572 405.547C327.252 406.537 329.196 407.1 331.29 407.089V407.077C333.441 407.077 335.719 406.491 337.962 405.202L348.476 399.128V388.625Z" fill="url(#paint46_linear)"/>
<path d="M659.933 313.666C661.44 308.351 660.37 303.347 656.896 301.345C652.398 298.745 645.565 302.162 641.63 308.972C637.696 315.782 638.156 323.409 642.666 326.009C646.243 328.08 651.317 326.331 655.216 322.098" fill="url(#paint47_linear)"/>
<path d="M905.139 481.197V469.555C905.139 467.852 905.518 465.931 906.301 464.252C907.037 462.687 908.13 461.318 909.625 460.444L915.964 456.786C918.161 455.233 920.416 459.305 918.322 460.858L911.984 464.516H911.972C911.385 464.861 910.914 465.483 910.557 466.242C910.085 467.254 909.855 468.462 909.855 469.543V483.463C909.855 485.223 905.093 485.603 905.139 481.197Z" fill="url(#paint48_linear)"/>
<path d="M915.86 487.547V475.905C915.86 474.202 916.24 472.281 917.022 470.602C917.759 469.037 918.851 467.668 920.347 466.794L926.686 463.136C928.883 461.583 931.138 465.655 929.044 467.208L922.705 470.866H922.694C922.107 471.211 921.635 471.833 921.279 472.592C920.807 473.604 920.577 474.812 920.577 475.894V489.813C920.577 491.573 915.814 491.953 915.86 487.547Z" fill="url(#paint49_linear)"/>
<path d="M926.582 493.897V482.255C926.582 480.553 926.962 478.632 927.744 476.952C928.48 475.387 929.573 474.018 931.069 473.144L937.407 469.486C939.604 467.933 941.859 472.005 939.766 473.558L933.427 477.217H933.415C932.829 477.562 932.357 478.183 932 478.942C931.529 479.954 931.299 481.162 931.299 482.244V496.163C931.299 497.924 926.525 498.303 926.582 493.897Z" fill="url(#paint50_linear)"/>
<path d="M773.603 567.58L794.517 555.501C803.766 548.966 813.28 566.142 804.468 572.687L793.459 579.038" fill="url(#paint51_linear)"/>
<path d="M491.205 674.647L470.763 662.844C456.901 654.837 443.257 679.386 456.694 687.14L477.378 699.081" fill="url(#paint52_linear)"/>
<path d="M298.434 566.809C295.156 564.911 290.163 567.407 287.299 572.377C284.434 577.346 284.768 582.914 288.046 584.813C290.393 586.17 293.614 585.284 296.306 582.845L294.063 581.545C290.025 578.554 294.385 570.686 298.618 573.677L300.862 574.977C301.621 571.422 300.781 568.166 298.434 566.809Z" fill="url(#paint53_linear)"/>
<path d="M456.694 664.949L416.568 641.78L406.767 647.095L451.908 672.691C452.828 669.78 454.519 667.031 456.694 664.949Z" fill="url(#paint54_linear)"/>
<path d="M327.309 590.254L298.607 573.688C294.373 570.697 290.013 578.566 294.051 581.557L327.309 600.757V590.254Z" fill="url(#paint55_linear)"/>
<path d="M384.23 610.259L338.18 583.685L327.309 589.955L384.23 622.81V610.259Z" fill="url(#paint56_linear)"/>
<path d="M384.23 659.91V645.162L327.309 611.858V589.955L384.23 622.81V608.626L406.698 646.968L384.23 659.91Z" fill="url(#paint57_linear)"/>
<path d="M406.698 646.968L384.219 608.626L395.09 602.356L417.557 640.687L406.698 646.968Z" fill="url(#paint58_linear)"/>
<path d="M681.319 262.508C690.453 256.675 699.599 273.482 690.902 279.936L681.319 285.469" fill="url(#paint59_linear)"/>
<path d="M562.127 504.55L583.616 492.149C592.865 485.614 602.379 502.79 593.567 509.335L581.983 516.019" fill="url(#paint60_linear)"/>
<path d="M579.36 769.542L477.389 710.665V682.63L579.36 741.496V769.542Z" fill="url(#paint61_linear)"/>
<path d="M579.36 769.542L681.331 710.665V682.63L579.36 741.496V769.542Z" fill="url(#paint62_linear)"/>
<path d="M477.389 682.63L579.36 623.753L681.33 682.63L579.36 741.496L477.389 682.63Z" fill="url(#paint63_linear)"/>
<path d="M579.348 721.49L649.326 681.089V672.449L579.348 712.851V721.49Z" fill="url(#paint64_linear)"/>
<path d="M509.393 672.438L579.36 632.036L649.326 672.438L579.36 712.828L509.393 672.438Z" fill="url(#paint65_linear)"/>
<path d="M579.348 721.49L509.381 681.089V672.449L579.348 712.851V721.49Z" fill="url(#paint66_linear)"/>
<path d="M625.962 667.813L632.048 671.322L577.427 702.854L571.342 699.345L625.962 667.813Z" fill="#FFCCC8"/>
<path d="M611.076 659.208L617.15 662.717L562.53 694.261L556.456 690.752L611.076 659.208Z" fill="#FFCCC8"/>
<path d="M596.178 650.615L602.264 654.124L547.632 685.656L541.558 682.147L596.178 650.615Z" fill="#FFCCC8"/>
<path d="M581.292 642.01L587.366 645.519L532.746 677.062L526.66 673.554L581.292 642.01Z" fill="#FFCCC8"/>
<path d="M586.86 755.554L620.498 736.123V727.357L586.86 746.776V755.554Z" fill="#FFCCC8"/>
<path d="M626.48 732.672L635.614 727.404V718.626L626.48 723.895V732.672Z" fill="#FFCCC8"/>
<path d="M510.003 720.731L500.88 715.462V704.936L510.003 710.205V720.731Z" fill="#FFCCC8"/>
<path d="M495.933 712.598L486.811 707.329V696.815L495.933 702.083V712.598Z" fill="#FFCCC8"/>
<path d="M723.676 684.839L686.196 663.2L692.489 659.484C695.952 656.908 691.465 650.903 687.83 653.468L678.592 658.806L621.706 625.962V597.916L723.676 656.793V684.839Z" fill="url(#paint67_linear)"/>
<path d="M723.676 684.839L825.647 625.974V597.927L723.676 656.804V684.839Z" fill="url(#paint68_linear)"/>
<path d="M621.706 597.927L723.676 539.062L825.647 597.927L723.676 656.804L621.706 597.927Z" fill="url(#paint69_linear)"/>
<path d="M723.676 636.787L793.643 596.397V587.758L723.676 628.159V636.787Z" fill="url(#paint70_linear)"/>
<path d="M653.709 587.735L723.676 547.344L793.643 587.735L723.676 628.136L653.709 587.735Z" fill="url(#paint71_linear)"/>
<path d="M723.676 636.787L653.709 596.397V587.758L723.676 628.159V636.787Z" fill="url(#paint72_linear)"/>
<path d="M770.29 583.11L776.364 586.619L721.744 618.162L715.669 614.654L770.29 583.11Z" fill="#FFCCC8"/>
<path d="M755.393 574.517L761.478 578.025L706.858 609.557L700.772 606.049L755.393 574.517Z" fill="#FFCCC8"/>
<path d="M740.507 565.912L746.581 569.42L691.96 600.964L685.875 597.455L740.507 565.912Z" fill="#FFCCC8"/>
<path d="M725.609 557.318L731.694 560.827L677.062 592.359L670.988 588.85L725.609 557.318Z" fill="#FFCCC8"/>
<path d="M731.177 670.85L764.826 651.432V642.654L731.177 662.084V670.85Z" fill="#FFCCC8"/>
<path d="M770.808 647.969L779.93 642.712V633.934L770.808 639.203V647.969Z" fill="#FFCCC8"/>
<path d="M654.319 636.028L645.197 630.759V620.245L654.319 625.513V636.028Z" fill="#FFCCC8"/>
<path d="M640.25 627.906L631.127 622.637V612.123L640.25 617.392V627.906Z" fill="#FFCCC8"/>
<path d="M529.502 631.507L484.2 605.359C484.648 604.53 485.212 603.863 485.891 603.472H485.902L495.473 597.95C498.315 595.845 495.243 590.3 492.264 592.405L482.693 597.927C480.967 598.928 479.632 600.423 478.655 602.16L470.337 597.363C470.763 596.627 471.304 596.017 471.925 595.661H471.936L481.508 590.127C484.349 588.022 481.278 582.477 478.298 584.582L468.727 590.104C467.059 591.071 465.759 592.497 464.792 594.142L427.508 572.618V544.595L529.479 603.472V631.507H529.502Z" fill="url(#paint73_linear)"/>
<path d="M529.502 631.507L620.636 578.888L614.815 575.529C611.467 573.044 615.079 566.51 618.6 568.995L628.194 574.528L631.484 572.63V544.595L529.513 603.472L529.502 631.507Z" fill="url(#paint74_linear)"/>
<path d="M427.531 544.595L529.502 485.718L631.472 544.595L529.502 603.46L427.531 544.595Z" fill="url(#paint75_linear)"/>
<path d="M529.502 583.455L599.469 543.053V534.414L529.502 574.816V583.455Z" fill="url(#paint76_linear)"/>
<path d="M459.535 534.402L529.502 494.001L599.469 534.402L529.502 574.793L459.535 534.402Z" fill="url(#paint77_linear)"/>
<path d="M529.502 583.455L459.535 543.053V534.414L529.502 574.816V583.455Z" fill="url(#paint78_linear)"/>
<path d="M576.116 529.778L582.19 533.287L527.569 564.819L521.495 561.31L576.116 529.778Z" fill="#FFCCC8"/>
<path d="M561.23 521.173L567.304 524.682L512.683 556.225L506.598 552.717L561.23 521.173Z" fill="#FFCCC8"/>
<path d="M546.332 512.58L552.406 516.088L497.785 547.62L491.711 544.112L546.332 512.58Z" fill="#FFCCC8"/>
<path d="M531.435 503.975L537.52 507.483L482.888 539.027L476.814 535.518L531.435 503.975Z" fill="#FFCCC8"/>
<path d="M537.002 617.518L570.651 598.088V589.322L537.002 608.741V617.518Z" fill="url(#paint79_linear)"/>
<path d="M576.633 594.637L585.756 589.368V580.602L576.633 585.871V594.637Z" fill="url(#paint80_linear)"/>
<path d="M460.145 582.696L451.022 577.427V566.901L460.145 572.17V582.696Z" fill="#FFCCC8"/>
<path d="M446.076 574.574L436.953 569.305V558.779L446.076 564.048V574.574Z" fill="#FFCCC8"/>
<path d="M697.24 662.153L700.335 660.359C706.282 656.931 698.897 641.93 691.235 646.405L688.612 647.935C691.247 646.807 694.997 648.809 697.194 652.617C699.299 656.252 699.265 660.301 697.24 662.153Z" fill="url(#paint81_linear)"/>
<path d="M688.21 648.119C690.856 646.589 694.882 648.602 697.194 652.605C699.507 656.608 699.231 661.095 696.585 662.625C694.686 663.718 692.075 662.993 689.901 661.014L692.501 659.484C695.963 656.908 691.477 650.902 687.842 653.468L686.208 654.411C685.679 651.662 686.369 649.188 688.21 648.119Z" fill="url(#paint82_linear)"/>
<path d="M659.346 669.93L687.83 653.479C691.465 650.903 695.963 656.919 692.489 659.496L667.146 674.44" fill="url(#paint83_linear)"/>
<path d="M462.641 611.053V602.494C462.641 600.182 463.159 597.57 464.228 595.293C465.229 593.164 466.713 591.301 468.749 590.116L478.321 584.594C481.3 582.489 484.372 588.022 481.53 590.139L471.959 595.672H471.948C471.154 596.132 470.498 596.995 470.026 598.019C469.382 599.4 469.072 601.033 469.072 602.517V614.171C469.06 616.529 462.572 617.046 462.641 611.053Z" fill="url(#paint84_linear)"/>
<path d="M476.595 618.864V610.305C476.595 607.993 477.113 605.382 478.183 603.104C479.184 600.976 480.668 599.112 482.704 597.927L492.275 592.405C495.255 590.3 498.326 595.833 495.485 597.95L485.914 603.472H485.902C485.108 603.932 484.453 604.795 483.981 605.819C483.337 607.199 483.026 608.833 483.026 610.317V621.97C483.015 624.34 476.538 624.858 476.595 618.864Z" fill="url(#paint85_linear)"/>
<path d="M610.271 578.025L607.176 576.231C601.229 572.802 608.614 557.801 616.276 562.276L618.899 563.806C616.264 562.679 612.514 564.681 610.317 568.489C608.212 572.135 608.246 576.185 610.271 578.025Z" fill="url(#paint86_linear)"/>
<path d="M619.301 564.002C616.656 562.472 612.629 564.485 610.317 568.489C608.005 572.492 608.281 576.978 610.927 578.508C612.779 579.578 615.309 578.911 617.449 577.047L614.815 575.529C611.467 573.044 615.079 566.51 618.6 568.995L621.269 570.536C621.867 567.683 621.188 565.095 619.301 564.002Z" fill="url(#paint87_linear)"/>
<path d="M645.105 584.295L618.599 568.995C615.079 566.51 611.467 573.044 614.815 575.529L637.558 588.655" fill="url(#paint88_linear)"/>
<path d="M788.018 291.52L741.968 264.935L731.108 271.205L788.018 304.071V291.52Z" fill="url(#paint89_linear)"/>
<path d="M788.018 341.16V326.412L731.108 293.108V271.205L788.018 304.071V289.875L810.485 328.218L788.018 341.16Z" fill="url(#paint90_linear)"/>
<path d="M810.485 328.218L788.018 289.887L798.877 283.606L821.356 321.937L810.485 328.218Z" fill="url(#paint91_linear)"/>
<path d="M703.809 413.634V428.233L646.888 461.123V483.026L703.809 450.159V464.919L726.276 426.576L703.809 413.634Z" fill="url(#paint92_linear)"/>
<path d="M692.938 421.952L703.809 428.233L646.888 461.123L636.017 454.841L692.938 421.952Z" fill="url(#paint93_linear)"/>
<path d="M635.959 454.83L646.888 461.123V483.026L635.959 476.733V454.83Z" fill="url(#paint94_linear)"/>
<path d="M692.88 407.342L703.809 413.634V428.233L692.88 421.94V407.342Z" fill="url(#paint95_linear)"/>
<path d="M504.136 346.199V360.797L447.214 393.687V415.59L504.136 382.723V397.483L526.603 359.14L504.136 346.199Z" fill="url(#paint96_linear)"/>
<path d="M493.264 354.527L504.136 360.797L447.214 393.687L436.343 387.406L493.264 354.527Z" fill="url(#paint97_linear)"/>
<path d="M436.297 387.394L447.214 393.687V415.59L436.297 409.298V387.394Z" fill="url(#paint98_linear)"/>
<path d="M493.207 339.906L504.136 346.199V360.797L493.207 354.516V339.906Z" fill="url(#paint99_linear)"/>
<path d="M406.295 391.777V377.167L463.216 344.289V322.385L406.295 355.241V340.493L383.828 378.824L406.295 391.777Z" fill="url(#paint100_linear)"/>
<path d="M406.295 342.713L452.345 316.104L463.216 322.385L406.295 355.241V342.713Z" fill="url(#paint101_linear)"/>
<path d="M383.828 378.824L372.911 372.542L395.378 334.2L406.295 340.493L383.828 378.824Z" fill="url(#paint102_linear)"/>
<path d="M910.603 508.565V523.163L853.693 556.053V577.956L910.603 545.101V559.849L933.07 521.507L910.603 508.565Z" fill="url(#paint103_linear)"/>
<path d="M899.732 516.893L910.603 523.163L853.693 556.053L842.822 549.772L899.732 516.893Z" fill="url(#paint104_linear)"/>
<path d="M842.765 549.76L853.693 556.053V577.956L842.765 571.664V549.76Z" fill="url(#paint105_linear)"/>
<path d="M899.686 502.272L910.603 508.565V523.163L899.686 516.882V502.272Z" fill="url(#paint106_linear)"/>
<path d="M611.617 388.613L531.964 342.632L542.628 336.478L611.617 376.304V388.613Z" fill="url(#paint107_linear)"/>
<path d="M522.876 337.375L489.146 317.91L499.81 311.756L533.54 331.22L522.876 337.375Z" fill="url(#paint108_linear)"/>
<path d="M480.058 312.665L443.05 291.29V278.981L490.722 306.499L480.058 312.665Z" fill="url(#paint109_linear)"/>
<path d="M611.617 388.613L691.5 342.494L680.836 336.34L611.617 376.304V388.613Z" fill="url(#paint110_linear)"/>
<path d="M700.588 337.249L712.207 330.542V318.233L689.935 331.094L700.588 337.249Z" fill="url(#paint111_linear)"/>
<path d="M589.874 225.177L611.617 237.728L681.342 197.476L541.535 116.753L471.81 157.005L502.375 174.652" fill="url(#paint112_linear)"/>
<path d="M482.267 204.194L489.652 216.987L499.246 211.442L491.861 198.661L482.267 204.194Z" fill="url(#paint113_linear)"/>
<path d="M471.752 246.448L471.741 254.973L478.54 251.05L476.158 246.92L471.752 246.448Z" fill="url(#paint114_linear)"/>
<path d="M495.957 241.041L498.971 246.264L489.376 251.798L483.958 242.41" fill="url(#paint115_linear)"/>
<path d="M492.229 243.101L492.39 230.642L501.984 225.108L501.823 237.567L492.229 243.101Z" fill="url(#paint116_linear)"/>
<path d="M492.39 230.642L485.867 226.892L495.462 221.347L501.984 225.108L492.39 230.642Z" fill="url(#paint117_linear)"/>
<path d="M460.927 188.871L471.787 194.957L481.381 189.423L470.51 183.338L460.927 188.871Z" fill="url(#paint118_linear)"/>
<path d="M471.787 194.957V202.492L481.369 196.947L481.381 189.423L471.787 194.957Z" fill="url(#paint119_linear)"/>
<path d="M460.881 248.887L471.741 254.973L471.752 246.448C473.271 246.851 474.755 247.012 476.17 246.92L481.588 256.307L489.388 251.809L483.969 242.422C484.602 241.479 485.108 240.397 485.499 239.224L492.241 243.112L492.402 230.653L485.879 226.892C485.465 224.74 484.832 222.52 483.981 220.265L489.664 216.987L482.278 204.194L476.595 207.473C475.077 205.609 473.455 203.941 471.798 202.503L471.81 194.957L460.95 188.871L460.939 196.671C459.731 196.429 458.557 196.337 457.418 196.406L452 187.019L444.2 191.517L449.619 200.904C448.837 202.078 448.238 203.435 447.824 204.942L440.416 200.674L440.255 213.133L447.939 217.562C448.342 219.356 448.906 221.197 449.607 223.061L443.924 226.339L451.31 239.132L456.993 235.853C458.247 237.383 459.558 238.787 460.904 240.029L460.881 248.887Z" fill="url(#paint120_linear)"/>
<path d="M461.019 224.993C457.879 219.552 457.913 213.662 461.088 211.821C464.263 209.981 469.394 212.903 472.534 218.344C475.675 223.785 475.641 229.675 472.465 231.516C469.279 233.345 464.16 230.423 461.019 224.993Z" fill="url(#paint121_linear)"/>
<path d="M467.392 221.312C465.414 217.895 464.7 214.283 465.23 211.626C467.795 212.5 470.556 214.916 472.535 218.344C474.513 221.772 475.227 225.373 474.697 228.03C472.132 227.156 469.371 224.729 467.392 221.312Z" fill="url(#paint122_linear)"/>
<path d="M179.242 422.239L194.358 413.508L209.486 422.239L194.358 430.971L179.242 422.239Z" fill="url(#paint123_linear)"/>
<path d="M517.124 642.24C517.124 644 526.66 673.554 526.66 673.554C526.66 673.554 575.08 704.35 577.416 702.854C579.751 701.359 632.036 671.31 632.036 671.31L644.725 637.547L517.124 642.24Z" fill="url(#paint124_linear)"/>
<path d="M661.129 557.353C661.129 559.113 670.666 588.666 670.666 588.666C670.666 588.666 719.086 619.462 721.421 617.967C723.757 616.471 776.042 586.423 776.042 586.423L788.731 552.659L661.129 557.353Z" fill="url(#paint125_linear)"/>
<path d="M467.358 503.503C467.358 505.263 476.894 534.817 476.894 534.817C476.894 534.817 525.314 565.612 527.65 564.117C529.985 562.621 582.27 532.573 582.27 532.573L594.959 498.809L467.358 503.503Z" fill="url(#paint126_linear)"/>
<path d="M640.342 312.952L768.139 386.738C768.956 387.21 769.508 387.728 769.807 388.245V388.268C770.014 388.636 770.117 389.016 770.117 389.361C770.117 389.706 770.014 390.074 769.818 390.408V390.431C769.588 390.834 769.197 391.213 768.679 391.512L717.119 421.285L726.219 426.53L773.235 399.381C775.145 398.277 776.652 396.735 777.687 394.964H777.699C778.676 393.273 779.194 391.374 779.217 389.43C779.229 387.486 778.745 385.519 777.699 383.701H777.687C776.606 381.838 774.972 380.158 772.717 378.858L644.909 305.072L644.621 304.911C643.597 306.015 642.62 307.338 641.826 308.707C641.032 310.076 640.468 311.388 640.031 312.734C640.112 312.814 640.227 312.895 640.342 312.952Z" fill="url(#paint127_linear)"/>
<path d="M542.225 219.725C552.047 219.725 560.01 211.242 560.01 200.778C560.01 190.314 552.047 181.831 542.225 181.831C532.403 181.831 524.44 190.314 524.44 200.778C524.44 211.242 532.403 219.725 542.225 219.725Z" fill="url(#paint128_linear)"/>
<path d="M502.341 174.721L512.039 169.119L516.974 175.101L513.166 182.417L502.341 174.721Z" fill="url(#paint129_linear)"/>
<path d="M536.841 154.866L532.516 147.377L518.849 155.268L526.488 169.683H532.631L536.841 154.866Z" fill="url(#paint130_linear)"/>
<path d="M562 179.725L572.515 197.936L586.17 190.056L575.655 171.834L562 179.725Z" fill="url(#paint131_linear)"/>
<path d="M547.011 239.902L546.999 252.062L556.685 246.46L553.292 240.581L547.011 239.902Z" fill="url(#paint132_linear)"/>
<path d="M576.415 217.401L567.119 212.051L580.786 204.16L590.07 209.509L576.415 217.401Z" fill="url(#paint133_linear)"/>
<path d="M531.584 157.891L547.068 166.565L560.723 158.685L545.251 150.011L531.584 157.891Z" fill="url(#paint134_linear)"/>
<path d="M547.068 166.565L547.057 177.287L560.723 169.407V158.685L547.068 166.565Z" fill="url(#paint135_linear)"/>
<path d="M540.81 204.102C537.991 199.225 536.967 194.094 537.727 190.309C541.385 191.552 545.319 195.003 548.138 199.88C550.956 204.758 551.98 209.889 551.221 213.674C547.551 212.431 543.617 208.98 540.81 204.102Z" fill="url(#paint136_linear)"/>
<path d="M572.124 247.53L585.606 238.315L581.028 227.685L566.59 229.146L564.405 234.162L572.124 247.53Z" fill="url(#paint137_linear)"/>
<path d="M576.184 235.14L576.415 217.401L567.119 212.051C566.533 208.991 565.624 205.816 564.416 202.618L572.515 197.948L562 179.737L553.901 184.408C551.727 181.739 549.426 179.369 547.057 177.321L547.068 166.577L531.595 157.903L531.584 169.015C529.858 168.67 528.19 168.532 526.568 168.636L518.849 155.268L507.736 161.687L515.455 175.055C514.339 176.723 513.488 178.656 512.902 180.807L502.341 174.721L502.111 192.46L513.063 198.776C513.638 201.341 514.432 203.964 515.432 206.61L507.334 211.281L517.848 229.503L525.947 224.832C527.73 227.018 529.594 229.008 531.515 230.78L531.503 243.4L546.976 252.074L546.988 239.925C549.15 240.489 551.267 240.731 553.269 240.604L560.988 253.972L572.101 247.553L564.381 234.185C565.279 232.839 566.015 231.309 566.567 229.629L576.184 235.14ZM548.023 218.632C543.49 221.243 536.197 217.09 531.722 209.337C527.247 201.594 527.293 193.197 531.825 190.574C536.358 187.962 543.651 192.115 548.126 199.857C552.601 207.622 552.555 216.02 548.023 218.632Z" fill="url(#paint138_linear)"/>
<path d="M576.185 235.14L576.415 217.401L590.07 209.509L589.851 227.26L576.185 235.14Z" fill="url(#paint139_linear)"/>
<path d="M91.5479 352.767L118.513 363.006L178.31 302.541L92.8133 353.25" fill="url(#paint140_linear)"/>
<path d="M72 337.5L28 311.5C14.4028 303.877 8.00001 291.5 8.00001 275.5L8 201" stroke="#7C5BEC" stroke-miterlimit="22.9256" stroke-linecap="round" stroke-linejoin="round"/>
<path d="M71 329.5C66.8579 329.5 63.5 332.858 63.5 337C63.5 341.142 66.8579 344.5 71 344.5C75.1421 344.5 78.5 341.142 78.5 337C78.5 332.858 75.1421 329.5 71 329.5Z" fill="white" stroke="#7C5BEC"/>
<circle r="5" transform="matrix(-4.37114e-08 -1 -1 4.37114e-08 8 188)" fill="#7C5BEC"/>
<circle cx="71" cy="337" r="3" fill="#7C5BEC"/>
<path d="M225.5 795.624C231 795.624 322.5 795.639 322.5 795.639C346.5 795.639 358.5 790.474 373.5 780.865C388.5 771.257 448 726.67 448 726.67" stroke="#7C5BEC" stroke-miterlimit="22.9256" stroke-linecap="round" stroke-linejoin="round"/>
<path d="M451 718.595C446.858 718.595 443.5 721.953 443.5 726.095C443.5 730.237 446.858 733.595 451 733.595C455.142 733.595 458.5 730.237 458.5 726.095C458.5 721.953 455.142 718.595 451 718.595Z" fill="white" stroke="#7C5BEC"/>
<circle r="5" transform="matrix(-4.37114e-08 -1 -1 4.37114e-08 211 795.095)" fill="#7C5BEC"/>
<circle cx="451" cy="726.095" r="3" fill="#7C5BEC"/>
<path d="M779 78.832L720.331 78.4145C706.179 78.3138 699.12 81.3605 690.306 87.059C681.493 92.7574 653 112.169 653 112.169" stroke="#7C5BEC" stroke-miterlimit="22.9256" stroke-linecap="round" stroke-linejoin="round"/>
<circle cx="793" cy="79.1688" r="5" transform="rotate(-90 793 79.1688)" fill="#7C5BEC"/>
<path d="M656 102.669C651.858 102.669 648.5 106.027 648.5 110.169C648.5 114.311 651.858 117.669 656 117.669C660.142 117.669 663.5 114.311 663.5 110.169C663.5 106.027 660.142 102.669 656 102.669Z" fill="white" stroke="#7C5BEC"/>
<circle cx="656" cy="110.169" r="3" fill="#7C5BEC"/>
<path d="M1097.59 650.472C1097.59 644.59 1097.59 635.411 1097.59 635.411C1097.82 614.288 1088.27 598.054 1072.05 587.212L1033.09 559" stroke="#7C5BEC" stroke-miterlimit="22.9256" stroke-linecap="round" stroke-linejoin="round"/>
<circle cx="1097.59" cy="651" r="5" fill="#7C5BEC"/>
<path d="M1032.59 549.5C1028.44 549.5 1025.09 552.858 1025.09 557C1025.09 561.142 1028.44 564.5 1032.59 564.5C1036.73 564.5 1040.09 561.142 1040.09 557C1040.09 552.858 1036.73 549.5 1032.59 549.5Z" fill="white" stroke="#7C5BEC"/>
<circle cx="1032.59" cy="557" r="3" fill="#7C5BEC"/>
</g>
<defs>
<linearGradient id="paint0_linear" x1="249.385" y1="313.427" x2="337.194" y2="320.452" gradientUnits="userSpaceOnUse">
<stop stop-color="#7637E4"/>
<stop offset="1" stop-color="#FBA3C9"/>
</linearGradient>
<linearGradient id="paint1_linear" x1="128.97" y1="358.684" x2="272.55" y2="358.684" gradientUnits="userSpaceOnUse">
<stop stop-color="#7637E4"/>
<stop offset="1" stop-color="#FBA3C9"/>
</linearGradient>
<linearGradient id="paint2_linear" x1="178.725" y1="375.752" x2="227.628" y2="375.752" gradientUnits="userSpaceOnUse">
<stop stop-color="#7637E4"/>
<stop offset="1" stop-color="#FBA3C9"/>
</linearGradient>
<linearGradient id="paint3_linear" x1="251.073" y1="542.468" x2="298.503" y2="542.468" gradientUnits="userSpaceOnUse">
<stop stop-color="#7637E4"/>
<stop offset="1" stop-color="#FBA3C9"/>
</linearGradient>
<linearGradient id="paint4_linear" x1="451.989" y1="189.193" x2="464.608" y2="189.193" gradientUnits="userSpaceOnUse">
<stop stop-color="#7637E4"/>
<stop offset="1" stop-color="#FBA3C9"/>
</linearGradient>
<linearGradient id="paint5_linear" x1="440.393" y1="200.852" x2="450.389" y2="200.852" gradientUnits="userSpaceOnUse">
<stop stop-color="#7637E4"/>
<stop offset="1" stop-color="#FBA3C9"/>
</linearGradient>
<linearGradient id="paint6_linear" x1="491.966" y1="346.096" x2="568.066" y2="210.871" gradientUnits="userSpaceOnUse">
<stop stop-color="#7637E4"/>
<stop offset="1" stop-color="#FBA3C9"/>
</linearGradient>
<linearGradient id="paint7_linear" x1="443.05" y1="319.343" x2="712.207" y2="319.343" gradientUnits="userSpaceOnUse">
<stop stop-color="#7637E4"/>
<stop offset="1" stop-color="#FBA3C9"/>
</linearGradient>
<linearGradient id="paint8_linear" x1="948.278" y1="381.701" x2="974.035" y2="305.21" gradientUnits="userSpaceOnUse">
<stop stop-color="#7637E4"/>
<stop offset="1" stop-color="#FBA3C9"/>
</linearGradient>
<linearGradient id="paint9_linear" x1="611.617" y1="277.998" x2="681.342" y2="277.998" gradientUnits="userSpaceOnUse">
<stop stop-color="#7637E4"/>
<stop offset="1" stop-color="#FBA3C9"/>
</linearGradient>
<linearGradient id="paint10_linear" x1="846.744" y1="404.603" x2="1042.05" y2="404.603" gradientUnits="userSpaceOnUse">
<stop stop-color="#7637E4"/>
<stop offset="1" stop-color="#FBA3C9"/>
</linearGradient>
<linearGradient id="paint11_linear" x1="1010.88" y1="450.407" x2="1069.76" y2="450.407" gradientUnits="userSpaceOnUse">
<stop stop-color="#7637E4"/>
<stop offset="1" stop-color="#FBA3C9"/>
</linearGradient>
<linearGradient id="paint12_linear" x1="810.588" y1="337.277" x2="859.204" y2="337.277" gradientUnits="userSpaceOnUse">
<stop stop-color="#FFCCC8"/>
<stop offset="1" stop-color="#FFCCC8" stop-opacity="0.2"/>
</linearGradient>
<linearGradient id="paint13_linear" x1="691.063" y1="271.498" x2="731.131" y2="271.498" gradientUnits="userSpaceOnUse">
<stop stop-color="#FFCCC8"/>
<stop offset="1" stop-color="#FFCCC8" stop-opacity="0.2"/>
</linearGradient>
<linearGradient id="paint14_linear" x1="681.266" y1="274.132" x2="681.315" y2="274.132" gradientUnits="userSpaceOnUse">
<stop stop-color="#7637E4"/>
<stop offset="1" stop-color="#FBA3C9"/>
</linearGradient>
<linearGradient id="paint15_linear" x1="593.049" y1="484.619" x2="637.604" y2="484.619" gradientUnits="userSpaceOnUse">
<stop stop-color="#FFCCC8"/>
<stop offset="1" stop-color="#FFCCC8" stop-opacity="0.2"/>
</linearGradient>
<linearGradient id="paint16_linear" x1="272.194" y1="444.275" x2="329.345" y2="444.275" gradientUnits="userSpaceOnUse">
<stop stop-color="#7637E4"/>
<stop offset="1" stop-color="#FBA3C9"/>
</linearGradient>
<linearGradient id="paint17_linear" x1="272.079" y1="455.33" x2="329.345" y2="455.33" gradientUnits="userSpaceOnUse">
<stop stop-color="#7637E4"/>
<stop offset="1" stop-color="#FBA3C9"/>
</linearGradient>
<linearGradient id="paint18_linear" x1="128.659" y1="313.341" x2="178.621" y2="313.341" gradientUnits="userSpaceOnUse">
<stop stop-color="#7637E4"/>
<stop offset="1" stop-color="#FBA3C9"/>
</linearGradient>
<linearGradient id="paint19_linear" x1="118.456" y1="398.495" x2="179.012" y2="398.495" gradientUnits="userSpaceOnUse">
<stop stop-color="#7637E4"/>
<stop offset="1" stop-color="#FBA3C9"/>
</linearGradient>
<linearGradient id="paint20_linear" x1="92.5488" y1="406.847" x2="118.513" y2="406.847" gradientUnits="userSpaceOnUse">
<stop stop-color="#7637E4"/>
<stop offset="1" stop-color="#FBA3C9"/>
</linearGradient>
<linearGradient id="paint21_linear" x1="92.5718" y1="472.615" x2="149.654" y2="472.615" gradientUnits="userSpaceOnUse">
<stop stop-color="#7637E4"/>
<stop offset="1" stop-color="#FBA3C9"/>
</linearGradient>
<linearGradient id="paint22_linear" x1="224.591" y1="247.995" x2="301.333" y2="247.995" gradientUnits="userSpaceOnUse">
<stop stop-color="#7637E4"/>
<stop offset="1" stop-color="#FBA3C9"/>
</linearGradient>
<linearGradient id="paint23_linear" x1="240.453" y1="454.51" x2="272.298" y2="454.51" gradientUnits="userSpaceOnUse">
<stop stop-color="#7637E4"/>
<stop offset="1" stop-color="#FBA3C9"/>
</linearGradient>
<linearGradient id="paint24_linear" x1="194.899" y1="468.934" x2="283.675" y2="468.934" gradientUnits="userSpaceOnUse">
<stop stop-color="#7637E4"/>
<stop offset="1" stop-color="#FBA3C9"/>
</linearGradient>
<linearGradient id="paint25_linear" x1="179.266" y1="468.623" x2="283.675" y2="468.623" gradientUnits="userSpaceOnUse">
<stop stop-color="#7637E4"/>
<stop offset="1" stop-color="#FBA3C9"/>
</linearGradient>
<linearGradient id="paint26_linear" x1="887.163" y1="456.659" x2="981.99" y2="456.659" gradientUnits="userSpaceOnUse">
<stop stop-color="#7637E4"/>
<stop offset="1" stop-color="#FBA3C9"/>
</linearGradient>
<linearGradient id="paint27_linear" x1="898.145" y1="418.903" x2="914.929" y2="418.903" gradientUnits="userSpaceOnUse">
<stop stop-color="#7637E4"/>
<stop offset="1" stop-color="#FBA3C9"/>
</linearGradient>
<linearGradient id="paint28_linear" x1="966.857" y1="478.913" x2="995.45" y2="478.913" gradientUnits="userSpaceOnUse">
<stop stop-color="#7637E4"/>
<stop offset="1" stop-color="#FBA3C9"/>
</linearGradient>
<linearGradient id="paint29_linear" x1="923.05" y1="431.715" x2="980.712" y2="431.715" gradientUnits="userSpaceOnUse">
<stop stop-color="#7637E4"/>
<stop offset="1" stop-color="#FBA3C9"/>
</linearGradient>
<linearGradient id="paint30_linear" x1="875.815" y1="384.663" x2="899.416" y2="384.663" gradientUnits="userSpaceOnUse">
<stop stop-color="#7637E4"/>
<stop offset="1" stop-color="#FBA3C9"/>
</linearGradient>
<linearGradient id="paint31_linear" x1="871.446" y1="387.234" x2="893.087" y2="387.234" gradientUnits="userSpaceOnUse">
<stop stop-color="#7637E4"/>
<stop offset="1" stop-color="#FBA3C9"/>
</linearGradient>
<linearGradient id="paint32_linear" x1="803.824" y1="473.599" x2="885.541" y2="473.599" gradientUnits="userSpaceOnUse">
<stop stop-color="#FFCCC8"/>
<stop offset="1" stop-color="#FFCCC8" stop-opacity="0.2"/>
</linearGradient>
<linearGradient id="paint33_linear" x1="955.743" y1="484.594" x2="968.527" y2="484.594" gradientUnits="userSpaceOnUse">
<stop stop-color="#7637E4"/>
<stop offset="1" stop-color="#FBA3C9"/>
</linearGradient>
<linearGradient id="paint34_linear" x1="1051.91" y1="481.582" x2="1088.9" y2="481.582" gradientUnits="userSpaceOnUse">
<stop stop-color="#FFCCC8"/>
<stop offset="1" stop-color="#FFCCC8" stop-opacity="0.2"/>
</linearGradient>
<linearGradient id="paint35_linear" x1="1039.38" y1="512.419" x2="1048.64" y2="512.419" gradientUnits="userSpaceOnUse">
<stop stop-color="#FFCCC8"/>
<stop offset="1" stop-color="#FFCCC8" stop-opacity="0.2"/>
</linearGradient>
<linearGradient id="paint36_linear" x1="942.423" y1="507.006" x2="1028.53" y2="507.006" gradientUnits="userSpaceOnUse">
<stop stop-color="#FFCCC8"/>
<stop offset="1" stop-color="#FFCCC8" stop-opacity="0.2"/>
</linearGradient>
<linearGradient id="paint37_linear" x1="566.855" y1="312.155" x2="587.472" y2="312.155" gradientUnits="userSpaceOnUse">
<stop stop-color="#7637E4"/>
<stop offset="1" stop-color="#FBA3C9"/>
</linearGradient>
<linearGradient id="paint38_linear" x1="534.667" y1="301.132" x2="534.674" y2="301.132" gradientUnits="userSpaceOnUse">
<stop stop-color="#7637E4"/>
<stop offset="1" stop-color="#FBA3C9"/>
</linearGradient>
<linearGradient id="paint39_linear" x1="523.911" y1="287.641" x2="544.528" y2="287.641" gradientUnits="userSpaceOnUse">
<stop stop-color="#7637E4"/>
<stop offset="1" stop-color="#FBA3C9"/>
</linearGradient>
<linearGradient id="paint40_linear" x1="563.05" y1="314.402" x2="581.942" y2="314.402" gradientUnits="userSpaceOnUse">
<stop stop-color="#7637E4"/>
<stop offset="1" stop-color="#FBA3C9"/>
</linearGradient>
<linearGradient id="paint41_linear" x1="520.093" y1="289.898" x2="538.987" y2="289.898" gradientUnits="userSpaceOnUse">
<stop stop-color="#7637E4"/>
<stop offset="1" stop-color="#FBA3C9"/>
</linearGradient>
<linearGradient id="paint42_linear" x1="505.877" y1="330.652" x2="575.724" y2="332.043" gradientUnits="userSpaceOnUse">
<stop stop-color="#FFCCC8"/>
<stop offset="1" stop-color="#FFCCC8" stop-opacity="0.2"/>
</linearGradient>
<linearGradient id="paint43_linear" x1="301.414" y1="362.713" x2="436.297" y2="362.713" gradientUnits="userSpaceOnUse">
<stop stop-color="#FFCCC8"/>
<stop offset="1" stop-color="#FFCCC8" stop-opacity="0.2"/>
</linearGradient>
<linearGradient id="paint44_linear" x1="463.216" y1="309.384" x2="532.307" y2="309.384" gradientUnits="userSpaceOnUse">
<stop stop-color="#FFCCC8"/>
<stop offset="1" stop-color="#FFCCC8" stop-opacity="0.2"/>
</linearGradient>
<linearGradient id="paint45_linear" x1="357.576" y1="383.724" x2="383.874" y2="383.724" gradientUnits="userSpaceOnUse">
<stop stop-color="#FFCCC8"/>
<stop offset="1" stop-color="#FFCCC8" stop-opacity="0.2"/>
</linearGradient>
<linearGradient id="paint46_linear" x1="284.894" y1="379.152" x2="348.476" y2="379.152" gradientUnits="userSpaceOnUse">
<stop stop-color="#FFCCC8"/>
<stop offset="1" stop-color="#FFCCC8" stop-opacity="0.2"/>
</linearGradient>
<linearGradient id="paint47_linear" x1="638.957" y1="313.677" x2="660.598" y2="313.677" gradientUnits="userSpaceOnUse">
<stop stop-color="#7637E4"/>
<stop offset="1" stop-color="#FBA3C9"/>
</linearGradient>
<linearGradient id="paint48_linear" x1="905.138" y1="470.568" x2="919.155" y2="470.568" gradientUnits="userSpaceOnUse">
<stop stop-color="#7637E4"/>
<stop offset="1" stop-color="#FBA3C9"/>
</linearGradient>
<linearGradient id="paint49_linear" x1="915.86" y1="476.918" x2="929.877" y2="476.918" gradientUnits="userSpaceOnUse">
<stop stop-color="#7637E4"/>
<stop offset="1" stop-color="#FBA3C9"/>
</linearGradient>
<linearGradient id="paint50_linear" x1="926.582" y1="483.269" x2="940.598" y2="483.269" gradientUnits="userSpaceOnUse">
<stop stop-color="#7637E4"/>
<stop offset="1" stop-color="#FBA3C9"/>
</linearGradient>
<linearGradient id="paint51_linear" x1="773.603" y1="566.54" x2="807.968" y2="566.54" gradientUnits="userSpaceOnUse">
<stop stop-color="#FFCCC8"/>
<stop offset="1" stop-color="#FFCCC8" stop-opacity="0.2"/>
</linearGradient>
<linearGradient id="paint52_linear" x1="451.181" y1="680.17" x2="491.205" y2="680.17" gradientUnits="userSpaceOnUse">
<stop stop-color="#FFCCC8"/>
<stop offset="1" stop-color="#FFCCC8" stop-opacity="0.2"/>
</linearGradient>
<linearGradient id="paint53_linear" x1="285.351" y1="575.811" x2="301.133" y2="575.811" gradientUnits="userSpaceOnUse">
<stop stop-color="#7637E4"/>
<stop offset="1" stop-color="#FBA3C9"/>
</linearGradient>
<linearGradient id="paint54_linear" x1="406.767" y1="657.235" x2="456.694" y2="657.235" gradientUnits="userSpaceOnUse">
<stop stop-color="#FFCCC8"/>
<stop offset="1" stop-color="#FFCCC8" stop-opacity="0.2"/>
</linearGradient>
<linearGradient id="paint55_linear" x1="292.448" y1="586.889" x2="327.309" y2="586.889" gradientUnits="userSpaceOnUse">
<stop stop-color="#FFCCC8"/>
<stop offset="1" stop-color="#FFCCC8" stop-opacity="0.2"/>
</linearGradient>
<linearGradient id="paint56_linear" x1="327.309" y1="603.248" x2="384.23" y2="603.248" gradientUnits="userSpaceOnUse">
<stop stop-color="#F7B0B9"/>
<stop offset="1" stop-color="#FEE9DF"/>
</linearGradient>
<linearGradient id="paint57_linear" x1="327.309" y1="624.932" x2="406.698" y2="624.932" gradientUnits="userSpaceOnUse">
<stop stop-color="#F7B0B9"/>
<stop offset="1" stop-color="#FEE9DF"/>
</linearGradient>
<linearGradient id="paint58_linear" x1="384.219" y1="624.662" x2="417.557" y2="624.662" gradientUnits="userSpaceOnUse">
<stop stop-color="#F7B0B9"/>
<stop offset="1" stop-color="#FEE9DF"/>
</linearGradient>
<linearGradient id="paint59_linear" x1="681.319" y1="273.384" x2="694.403" y2="273.384" gradientUnits="userSpaceOnUse">
<stop stop-color="#7637E4"/>
<stop offset="1" stop-color="#FBA3C9"/>
</linearGradient>
<linearGradient id="paint60_linear" x1="562.127" y1="503.355" x2="597.067" y2="503.355" gradientUnits="userSpaceOnUse">
<stop stop-color="#FFCCC8"/>
<stop offset="1" stop-color="#FFCCC8" stop-opacity="0.2"/>
</linearGradient>
<linearGradient id="paint61_linear" x1="477.389" y1="726.086" x2="579.36" y2="726.086" gradientUnits="userSpaceOnUse">
<stop stop-color="#7637E4"/>
<stop offset="1" stop-color="#FBA3C9"/>
</linearGradient>
<linearGradient id="paint62_linear" x1="579.36" y1="726.086" x2="681.331" y2="726.086" gradientUnits="userSpaceOnUse">
<stop stop-color="#7637E4"/>
<stop offset="1" stop-color="#FBA3C9"/>
</linearGradient>
<linearGradient id="paint63_linear" x1="477.389" y1="682.625" x2="681.33" y2="682.625" gradientUnits="userSpaceOnUse">
<stop stop-color="#7637E4"/>
<stop offset="1" stop-color="#FBA3C9"/>
</linearGradient>
<linearGradient id="paint64_linear" x1="579.348" y1="696.97" x2="649.326" y2="696.97" gradientUnits="userSpaceOnUse">
<stop stop-color="#7637E4"/>
<stop offset="1" stop-color="#FBA3C9"/>
</linearGradient>
<linearGradient id="paint65_linear" x1="509.393" y1="672.432" x2="649.326" y2="672.432" gradientUnits="userSpaceOnUse">
<stop stop-color="#7637E4"/>
<stop offset="1" stop-color="#FBA3C9"/>
</linearGradient>
<linearGradient id="paint66_linear" x1="509.381" y1="696.97" x2="579.348" y2="696.97" gradientUnits="userSpaceOnUse">
<stop stop-color="#7637E4"/>
<stop offset="1" stop-color="#FBA3C9"/>
</linearGradient>
<linearGradient id="paint67_linear" x1="621.705" y1="641.377" x2="723.676" y2="641.377" gradientUnits="userSpaceOnUse">
<stop stop-color="#7637E4"/>
<stop offset="1" stop-color="#FBA3C9"/>
</linearGradient>
<linearGradient id="paint68_linear" x1="723.676" y1="641.383" x2="825.647" y2="641.383" gradientUnits="userSpaceOnUse">
<stop stop-color="#7637E4"/>
<stop offset="1" stop-color="#FBA3C9"/>
</linearGradient>
<linearGradient id="paint69_linear" x1="621.706" y1="597.933" x2="825.647" y2="597.933" gradientUnits="userSpaceOnUse">
<stop stop-color="#7637E4"/>
<stop offset="1" stop-color="#FBA3C9"/>
</linearGradient>
<linearGradient id="paint70_linear" x1="723.676" y1="612.272" x2="793.643" y2="612.272" gradientUnits="userSpaceOnUse">
<stop stop-color="#7637E4"/>
<stop offset="1" stop-color="#FBA3C9"/>
</linearGradient>
<linearGradient id="paint71_linear" x1="653.709" y1="587.74" x2="793.643" y2="587.74" gradientUnits="userSpaceOnUse">
<stop stop-color="#7637E4"/>
<stop offset="1" stop-color="#FBA3C9"/>
</linearGradient>
<linearGradient id="paint72_linear" x1="653.709" y1="612.272" x2="723.676" y2="612.272" gradientUnits="userSpaceOnUse">
<stop stop-color="#7637E4"/>
<stop offset="1" stop-color="#FBA3C9"/>
</linearGradient>
<linearGradient id="paint73_linear" x1="427.508" y1="588.051" x2="529.502" y2="588.051" gradientUnits="userSpaceOnUse">
<stop stop-color="#7637E4"/>
<stop offset="1" stop-color="#FBA3C9"/>
</linearGradient>
<linearGradient id="paint74_linear" x1="529.502" y1="588.051" x2="631.484" y2="588.051" gradientUnits="userSpaceOnUse">
<stop stop-color="#7637E4"/>
<stop offset="1" stop-color="#FBA3C9"/>
</linearGradient>
<linearGradient id="paint75_linear" x1="427.531" y1="544.589" x2="631.472" y2="544.589" gradientUnits="userSpaceOnUse">
<stop stop-color="#7637E4"/>
<stop offset="1" stop-color="#FBA3C9"/>
</linearGradient>
<linearGradient id="paint76_linear" x1="529.502" y1="558.935" x2="599.469" y2="558.935" gradientUnits="userSpaceOnUse">
<stop stop-color="#7637E4"/>
<stop offset="1" stop-color="#FBA3C9"/>
</linearGradient>
<linearGradient id="paint77_linear" x1="459.535" y1="534.397" x2="599.469" y2="534.397" gradientUnits="userSpaceOnUse">
<stop stop-color="#7637E4"/>
<stop offset="1" stop-color="#FBA3C9"/>
</linearGradient>
<linearGradient id="paint78_linear" x1="459.535" y1="558.935" x2="529.502" y2="558.935" gradientUnits="userSpaceOnUse">
<stop stop-color="#7637E4"/>
<stop offset="1" stop-color="#FBA3C9"/>
</linearGradient>
<linearGradient id="paint79_linear" x1="537.002" y1="603.42" x2="570.651" y2="603.42" gradientUnits="userSpaceOnUse">
<stop stop-color="#7637E4"/>
<stop offset="1" stop-color="#FBA3C9"/>
</linearGradient>
<linearGradient id="paint80_linear" x1="576.633" y1="587.62" x2="585.756" y2="587.62" gradientUnits="userSpaceOnUse">
<stop stop-color="#7637E4"/>
<stop offset="1" stop-color="#FBA3C9"/>
</linearGradient>
<linearGradient id="paint81_linear" x1="688.612" y1="653.866" x2="702.5" y2="653.866" gradientUnits="userSpaceOnUse">
<stop stop-color="#7637E4"/>
<stop offset="1" stop-color="#FBA3C9"/>
</linearGradient>
<linearGradient id="paint82_linear" x1="686.035" y1="655.37" x2="698.764" y2="655.37" gradientUnits="userSpaceOnUse">
<stop stop-color="#7637E4"/>
<stop offset="1" stop-color="#FBA3C9"/>
</linearGradient>
<linearGradient id="paint83_linear" x1="659.346" y1="663.645" x2="693.738" y2="663.645" gradientUnits="userSpaceOnUse">
<stop stop-color="#FFCCC8"/>
<stop offset="1" stop-color="#FFCCC8" stop-opacity="0.2"/>
</linearGradient>
<linearGradient id="paint84_linear" x1="462.64" y1="599.973" x2="482.658" y2="599.973" gradientUnits="userSpaceOnUse">
<stop stop-color="#FFCCC8"/>
<stop offset="1" stop-color="#FFCCC8" stop-opacity="0.2"/>
</linearGradient>
<linearGradient id="paint85_linear" x1="476.595" y1="607.783" x2="496.613" y2="607.783" gradientUnits="userSpaceOnUse">
<stop stop-color="#FFCCC8"/>
<stop offset="1" stop-color="#FFCCC8" stop-opacity="0.2"/>
</linearGradient>
<linearGradient id="paint86_linear" x1="605.011" y1="569.738" x2="618.899" y2="569.738" gradientUnits="userSpaceOnUse">
<stop stop-color="#7637E4"/>
<stop offset="1" stop-color="#FBA3C9"/>
</linearGradient>
<linearGradient id="paint87_linear" x1="608.748" y1="571.255" x2="621.48" y2="571.255" gradientUnits="userSpaceOnUse">
<stop stop-color="#7637E4"/>
<stop offset="1" stop-color="#FBA3C9"/>
</linearGradient>
<linearGradient id="paint88_linear" x1="613.485" y1="578.548" x2="645.105" y2="578.548" gradientUnits="userSpaceOnUse">
<stop stop-color="#FFCCC8"/>
<stop offset="1" stop-color="#FFCCC8" stop-opacity="0.2"/>
</linearGradient>
<linearGradient id="paint89_linear" x1="731.108" y1="284.503" x2="788.018" y2="284.503" gradientUnits="userSpaceOnUse">
<stop stop-color="#F7B0B9"/>
<stop offset="1" stop-color="#FEE9DF"/>
</linearGradient>
<linearGradient id="paint90_linear" x1="731.108" y1="306.182" x2="810.485" y2="306.182" gradientUnits="userSpaceOnUse">
<stop stop-color="#F7B0B9"/>
<stop offset="1" stop-color="#FEE9DF"/>
</linearGradient>
<linearGradient id="paint91_linear" x1="788.018" y1="305.912" x2="821.356" y2="305.912" gradientUnits="userSpaceOnUse">
<stop stop-color="#F7B0B9"/>
<stop offset="1" stop-color="#FEE9DF"/>
</linearGradient>
<linearGradient id="paint92_linear" x1="646.888" y1="448.33" x2="726.276" y2="448.33" gradientUnits="userSpaceOnUse">
<stop stop-color="#F7B0B9"/>
<stop offset="1" stop-color="#FEE9DF"/>
</linearGradient>
<linearGradient id="paint93_linear" x1="636.017" y1="441.537" x2="703.809" y2="441.537" gradientUnits="userSpaceOnUse">
<stop stop-color="#F7B0B9"/>
<stop offset="1" stop-color="#FEE9DF"/>
</linearGradient>
<linearGradient id="paint94_linear" x1="635.959" y1="468.928" x2="646.888" y2="468.928" gradientUnits="userSpaceOnUse">
<stop stop-color="#F7B0B9"/>
<stop offset="1" stop-color="#FEE9DF"/>
</linearGradient>
<linearGradient id="paint95_linear" x1="692.88" y1="417.787" x2="703.809" y2="417.787" gradientUnits="userSpaceOnUse">
<stop stop-color="#F7B0B9"/>
<stop offset="1" stop-color="#FEE9DF"/>
</linearGradient>
<linearGradient id="paint96_linear" x1="447.214" y1="380.894" x2="526.603" y2="380.894" gradientUnits="userSpaceOnUse">
<stop stop-color="#F7B0B9"/>
<stop offset="1" stop-color="#FEE9DF"/>
</linearGradient>
<linearGradient id="paint97_linear" x1="436.343" y1="374.107" x2="504.136" y2="374.107" gradientUnits="userSpaceOnUse">
<stop stop-color="#F7B0B9"/>
<stop offset="1" stop-color="#FEE9DF"/>
</linearGradient>
<linearGradient id="paint98_linear" x1="436.297" y1="401.492" x2="447.214" y2="401.492" gradientUnits="userSpaceOnUse">
<stop stop-color="#F7B0B9"/>
<stop offset="1" stop-color="#FEE9DF"/>
</linearGradient>
<linearGradient id="paint99_linear" x1="493.207" y1="350.351" x2="504.136" y2="350.351" gradientUnits="userSpaceOnUse">
<stop stop-color="#F7B0B9"/>
<stop offset="1" stop-color="#FEE9DF"/>
</linearGradient>
<linearGradient id="paint100_linear" x1="383.828" y1="357.081" x2="463.216" y2="357.081" gradientUnits="userSpaceOnUse">
<stop stop-color="#F7B0B9"/>
<stop offset="1" stop-color="#FEE9DF"/>
</linearGradient>
<linearGradient id="paint101_linear" x1="406.295" y1="335.673" x2="463.216" y2="335.673" gradientUnits="userSpaceOnUse">
<stop stop-color="#F7B0B9"/>
<stop offset="1" stop-color="#FEE9DF"/>
</linearGradient>
<linearGradient id="paint102_linear" x1="372.911" y1="356.512" x2="406.295" y2="356.512" gradientUnits="userSpaceOnUse">
<stop stop-color="#F7B0B9"/>
<stop offset="1" stop-color="#FEE9DF"/>
</linearGradient>
<linearGradient id="paint103_linear" x1="853.693" y1="543.261" x2="933.07" y2="543.261" gradientUnits="userSpaceOnUse">
<stop stop-color="#F7B0B9"/>
<stop offset="1" stop-color="#FEE9DF"/>
</linearGradient>
<linearGradient id="paint104_linear" x1="842.822" y1="536.473" x2="910.603" y2="536.473" gradientUnits="userSpaceOnUse">
<stop stop-color="#F7B0B9"/>
<stop offset="1" stop-color="#FEE9DF"/>
</linearGradient>
<linearGradient id="paint105_linear" x1="842.765" y1="563.858" x2="853.693" y2="563.858" gradientUnits="userSpaceOnUse">
<stop stop-color="#F7B0B9"/>
<stop offset="1" stop-color="#FEE9DF"/>
</linearGradient>
<linearGradient id="paint106_linear" x1="899.686" y1="512.718" x2="910.603" y2="512.718" gradientUnits="userSpaceOnUse">
<stop stop-color="#F7B0B9"/>
<stop offset="1" stop-color="#FEE9DF"/>
</linearGradient>
<linearGradient id="paint107_linear" x1="531.964" y1="362.546" x2="611.617" y2="362.546" gradientUnits="userSpaceOnUse">
<stop stop-color="#7637E4"/>
<stop offset="1" stop-color="#FBA3C9"/>
</linearGradient>
<linearGradient id="paint108_linear" x1="489.146" y1="324.565" x2="533.54" y2="324.565" gradientUnits="userSpaceOnUse">
<stop stop-color="#7637E4"/>
<stop offset="1" stop-color="#FBA3C9"/>
</linearGradient>
<linearGradient id="paint109_linear" x1="443.05" y1="295.823" x2="490.722" y2="295.823" gradientUnits="userSpaceOnUse">
<stop stop-color="#7637E4"/>
<stop offset="1" stop-color="#FBA3C9"/>
</linearGradient>
<linearGradient id="paint110_linear" x1="611.617" y1="362.477" x2="691.5" y2="362.477" gradientUnits="userSpaceOnUse">
<stop stop-color="#7637E4"/>
<stop offset="1" stop-color="#FBA3C9"/>
</linearGradient>
<linearGradient id="paint111_linear" x1="689.935" y1="327.741" x2="712.207" y2="327.741" gradientUnits="userSpaceOnUse">
<stop stop-color="#7637E4"/>
<stop offset="1" stop-color="#FBA3C9"/>
</linearGradient>
<linearGradient id="paint112_linear" x1="471.81" y1="177.241" x2="681.342" y2="177.241" gradientUnits="userSpaceOnUse">
<stop stop-color="#7637E4"/>
<stop offset="1" stop-color="#FBA3C9"/>
</linearGradient>
<linearGradient id="paint113_linear" x1="482.267" y1="207.824" x2="499.246" y2="207.824" gradientUnits="userSpaceOnUse">
<stop stop-color="#7637E4"/>
<stop offset="1" stop-color="#FBA3C9"/>
</linearGradient>
<linearGradient id="paint114_linear" x1="471.741" y1="250.71" x2="478.54" y2="250.71" gradientUnits="userSpaceOnUse">
<stop stop-color="#7637E4"/>
<stop offset="1" stop-color="#FBA3C9"/>
</linearGradient>
<linearGradient id="paint115_linear" x1="483.958" y1="246.419" x2="498.971" y2="246.419" gradientUnits="userSpaceOnUse">
<stop stop-color="#7637E4"/>
<stop offset="1" stop-color="#FBA3C9"/>
</linearGradient>
<linearGradient id="paint116_linear" x1="492.229" y1="234.104" x2="501.984" y2="234.104" gradientUnits="userSpaceOnUse">
<stop stop-color="#7637E4"/>
<stop offset="1" stop-color="#FBA3C9"/>
</linearGradient>
<linearGradient id="paint117_linear" x1="485.867" y1="225.994" x2="501.984" y2="225.994" gradientUnits="userSpaceOnUse">
<stop stop-color="#7637E4"/>
<stop offset="1" stop-color="#FBA3C9"/>
</linearGradient>
<linearGradient id="paint118_linear" x1="460.927" y1="189.147" x2="481.381" y2="189.147" gradientUnits="userSpaceOnUse">
<stop stop-color="#7637E4"/>
<stop offset="1" stop-color="#FBA3C9"/>
</linearGradient>
<linearGradient id="paint119_linear" x1="471.787" y1="195.958" x2="481.381" y2="195.958" gradientUnits="userSpaceOnUse">
<stop stop-color="#7637E4"/>
<stop offset="1" stop-color="#FBA3C9"/>
</linearGradient>
<linearGradient id="paint120_linear" x1="440.255" y1="221.663" x2="492.402" y2="221.663" gradientUnits="userSpaceOnUse">
<stop stop-color="#7637E4"/>
<stop offset="1" stop-color="#FBA3C9"/>
</linearGradient>
<linearGradient id="paint121_linear" x1="458.685" y1="221.666" x2="474.869" y2="221.666" gradientUnits="userSpaceOnUse">
<stop stop-color="#7637E4"/>
<stop offset="1" stop-color="#FBA3C9"/>
</linearGradient>
<linearGradient id="paint122_linear" x1="465.061" y1="219.828" x2="474.866" y2="219.828" gradientUnits="userSpaceOnUse">
<stop stop-color="#7637E4"/>
<stop offset="1" stop-color="#FBA3C9"/>
</linearGradient>
<linearGradient id="paint123_linear" x1="179.242" y1="422.239" x2="209.486" y2="422.239" gradientUnits="userSpaceOnUse">
<stop stop-color="#7637E4"/>
<stop offset="1" stop-color="#FBA3C9"/>
</linearGradient>
<linearGradient id="paint124_linear" x1="580.924" y1="702.907" x2="580.924" y2="637.547" gradientUnits="userSpaceOnUse">
<stop stop-color="#FFCCC8"/>
<stop offset="1" stop-color="#FFCCC8" stop-opacity="0"/>
</linearGradient>
<linearGradient id="paint125_linear" x1="724.93" y1="618.02" x2="724.93" y2="552.659" gradientUnits="userSpaceOnUse">
<stop stop-color="#FFCCC8"/>
<stop offset="1" stop-color="#FFCCC8" stop-opacity="0"/>
</linearGradient>
<linearGradient id="paint126_linear" x1="531.158" y1="564.17" x2="531.158" y2="498.809" gradientUnits="userSpaceOnUse">
<stop stop-color="#FFCCC8"/>
<stop offset="1" stop-color="#FFCCC8" stop-opacity="0"/>
</linearGradient>
<linearGradient id="paint127_linear" x1="640.031" y1="365.721" x2="779.217" y2="365.721" gradientUnits="userSpaceOnUse">
<stop stop-color="#FFCCC8"/>
<stop offset="1" stop-color="#FFCCC8" stop-opacity="0.2"/>
</linearGradient>
<linearGradient id="paint128_linear" x1="524.879" y1="231.601" x2="551.41" y2="184.457" gradientUnits="userSpaceOnUse">
<stop stop-color="#7637E4"/>
<stop offset="1" stop-color="#FBA3C9"/>
</linearGradient>
<linearGradient id="paint129_linear" x1="502.341" y1="175.768" x2="516.974" y2="175.768" gradientUnits="userSpaceOnUse">
<stop stop-color="#7637E4"/>
<stop offset="1" stop-color="#FBA3C9"/>
</linearGradient>
<linearGradient id="paint130_linear" x1="518.849" y1="158.53" x2="536.841" y2="158.53" gradientUnits="userSpaceOnUse">
<stop stop-color="#7637E4"/>
<stop offset="1" stop-color="#FBA3C9"/>
</linearGradient>
<linearGradient id="paint131_linear" x1="562" y1="184.885" x2="586.17" y2="184.885" gradientUnits="userSpaceOnUse">
<stop stop-color="#7637E4"/>
<stop offset="1" stop-color="#FBA3C9"/>
</linearGradient>
<linearGradient id="paint132_linear" x1="546.999" y1="245.982" x2="556.685" y2="245.982" gradientUnits="userSpaceOnUse">
<stop stop-color="#7637E4"/>
<stop offset="1" stop-color="#FBA3C9"/>
</linearGradient>
<linearGradient id="paint133_linear" x1="567.119" y1="210.78" x2="590.07" y2="210.78" gradientUnits="userSpaceOnUse">
<stop stop-color="#7637E4"/>
<stop offset="1" stop-color="#FBA3C9"/>
</linearGradient>
<linearGradient id="paint134_linear" x1="531.584" y1="158.288" x2="560.723" y2="158.288" gradientUnits="userSpaceOnUse">
<stop stop-color="#7637E4"/>
<stop offset="1" stop-color="#FBA3C9"/>
</linearGradient>
<linearGradient id="paint135_linear" x1="547.057" y1="167.986" x2="560.723" y2="167.986" gradientUnits="userSpaceOnUse">
<stop stop-color="#7637E4"/>
<stop offset="1" stop-color="#FBA3C9"/>
</linearGradient>
<linearGradient id="paint136_linear" x1="537.484" y1="201.991" x2="551.463" y2="201.991" gradientUnits="userSpaceOnUse">
<stop stop-color="#7637E4"/>
<stop offset="1" stop-color="#FBA3C9"/>
</linearGradient>
<linearGradient id="paint137_linear" x1="564.405" y1="237.607" x2="585.606" y2="237.607" gradientUnits="userSpaceOnUse">
<stop stop-color="#7637E4"/>
<stop offset="1" stop-color="#FBA3C9"/>
</linearGradient>
<linearGradient id="paint138_linear" x1="502.111" y1="204.62" x2="576.415" y2="204.62" gradientUnits="userSpaceOnUse">
<stop stop-color="#7637E4"/>
<stop offset="1" stop-color="#FBA3C9"/>
</linearGradient>
<linearGradient id="paint139_linear" x1="576.185" y1="222.325" x2="590.07" y2="222.325" gradientUnits="userSpaceOnUse">
<stop stop-color="#7637E4"/>
<stop offset="1" stop-color="#FBA3C9"/>
</linearGradient>
<linearGradient id="paint140_linear" x1="91.5479" y1="332.774" x2="178.31" y2="332.774" gradientUnits="userSpaceOnUse">
<stop stop-color="#7637E4"/>
<stop offset="1" stop-color="#FBA3C9"/>
</linearGradient>
<clipPath id="clip0">
<rect width="1178" height="883.5" fill="white"/>
</clipPath>
</defs>
</svg>
