<svg viewBox="0 0 96 96" fill="none" xmlns="http://www.w3.org/2000/svg">
<rect y="-0.000488281" width="96" height="96" rx="6" fill="#F0F075"/>
<circle cx="45" cy="50.9995" r="37" fill="#FFA64C"/>
<circle cx="51" cy="44.9995" r="36" fill="white" stroke="#1A1A1A" stroke-width="2"/>
<rect x="14" y="43.9995" width="74" height="2" fill="#1A1A1A"/>
<rect x="20" y="61.9995" width="62" height="2" fill="#1A1A1A"/>
<rect x="20" y="25.9995" width="62" height="2" fill="#1A1A1A"/>
<path d="M64 44.9995C64 55.1277 62.4449 64.2524 59.9642 70.8086C58.7225 74.0902 57.2682 76.6768 55.7041 78.4251C54.1395 80.1741 52.5479 80.9995 51 80.9995C49.4521 80.9995 47.8605 80.1741 46.2959 78.4251C44.7318 76.6768 43.2775 74.0902 42.0358 70.8086C39.5551 64.2524 38 55.1277 38 44.9995C38 34.8713 39.5551 25.7467 42.0358 19.1905C43.2775 15.9088 44.7318 13.3223 46.2959 11.5739C47.8605 9.8249 49.4521 8.99951 51 8.99951C52.5479 8.99951 54.1395 9.8249 55.7041 11.5739C57.2682 13.3223 58.7225 15.9088 59.9642 19.1905C62.4449 25.7467 64 34.8713 64 44.9995Z" stroke="#1A1A1A" stroke-width="2"/>
<circle cx="40" cy="61.9995" r="5" fill="white" stroke="#1A1A1A" stroke-width="2"/>
<circle cx="40" cy="27.9995" r="4" fill="#1A1A1A"/>
<circle cx="64" cy="43.9995" r="11" fill="#F0F075" stroke="#1A1A1A" stroke-width="2"/>
<circle cx="64" cy="43.9995" r="4" fill="#1A1A1A"/>
</svg>
