<svg width="96" height="96" viewBox="0 0 96 96" fill="none" xmlns="http://www.w3.org/2000/svg">
<rect x="0.000610352" y="-0.000488281" width="96" height="96" rx="6" fill="#D9EEF2"/>
<path d="M39.9991 9.99951C39.9991 11.1041 39.1037 11.9995 37.9991 11.9995L-0.000854492 11.9995L-0.000854142 7.99951L37.9991 7.99951C39.1037 7.99951 39.9991 8.89494 39.9991 9.99951Z" fill="#1A1A1A"/>
<rect x="8.00061" y="25.9995" width="62" height="56" rx="4" fill="#00E699"/>
<rect x="14.9996" y="20.9995" width="60" height="54" rx="3" fill="white" stroke="#1A1A1A" stroke-width="2"/>
<path d="M56.0006 45.9995L64.0006 52.9995L56.0006 59.9995" stroke="#1A1A1A" stroke-width="4" stroke-linecap="round" stroke-linejoin="round"/>
<rect x="47.2089" y="37.0269" width="4" height="32" rx="2" transform="rotate(15 47.2089 37.0269)" fill="#1A1A1A"/>
<path d="M33.9996 59.9995L25.9996 52.9995L33.9996 45.9995" stroke="#1A1A1A" stroke-width="4" stroke-linecap="round" stroke-linejoin="round"/>
<path d="M13.9996 23.9995C13.9996 21.7904 15.7905 19.9995 17.9996 19.9995H71.9996C74.2088 19.9995 75.9996 21.7904 75.9996 23.9995V31.9995H13.9996V23.9995Z" fill="#1A1A1A"/>
<path d="M22.0006 25.9995C22.0006 27.1041 21.1052 27.9995 20.0006 27.9995C18.896 27.9995 18.0006 27.1041 18.0006 25.9995C18.0006 24.8949 18.896 23.9995 20.0006 23.9995C21.1052 23.9995 22.0006 24.8949 22.0006 25.9995Z" fill="white"/>
<path d="M29.0006 25.9995C29.0006 27.1041 28.1052 27.9995 27.0006 27.9995C25.896 27.9995 25.0006 27.1041 25.0006 25.9995C25.0006 24.8949 25.896 23.9995 27.0006 23.9995C28.1052 23.9995 29.0006 24.8949 29.0006 25.9995Z" fill="white"/>
<path d="M34.0006 27.9995C35.1052 27.9995 36.0006 27.1041 36.0006 25.9995C36.0006 24.8949 35.1052 23.9995 34.0006 23.9995C32.896 23.9995 32.0006 24.8949 32.0006 25.9995C32.0006 27.1041 32.896 27.9995 34.0006 27.9995Z" fill="white"/>
<circle cx="76.0006" cy="75.9995" r="11" fill="#D9EEF2" stroke="#1A1A1A" stroke-width="2"/>
<circle cx="76.0006" cy="75.9995" r="4" fill="#1A1A1A"/>
</svg>
