<svg width="96" height="96" viewBox="0 0 96 96" fill="none" xmlns="http://www.w3.org/2000/svg">
<rect y="-0.000488281" width="96" height="96" rx="6" fill="#F0F075"/>
<path d="M44 9.99951C44 8.89494 44.8954 7.99951 46 7.99951H96V11.9995H46C44.8954 11.9995 44 11.1041 44 9.99951Z" fill="#1A1A1A"/>
<path d="M61 19.9995C61 18.8949 61.8954 17.9995 63 17.9995H96V21.9995H63C61.8954 21.9995 61 21.1041 61 19.9995Z" fill="#1A1A1A"/>
<path d="M8 39.9995C8 37.7904 9.79086 35.9995 12 35.9995H66C68.2091 35.9995 70 37.7904 70 39.9995V77.9995C70 80.2086 68.2091 81.9995 66 81.9995H12C9.79086 81.9995 8 80.2086 8 77.9995V39.9995Z" fill="#FFA64C"/>
<path d="M15 33.9995C15 32.3427 16.3431 30.9995 18 30.9995H72C73.6569 30.9995 75 32.3427 75 33.9995V71.9995C75 73.6564 73.6569 74.9995 72 74.9995H18C16.3431 74.9995 15 73.6564 15 71.9995V33.9995Z" fill="white" stroke="#1A1A1A" stroke-width="2"/>
<circle cx="38" cy="61.9995" r="4" fill="#1A1A1A"/>
<circle cx="26" cy="61.9995" r="4" fill="#1A1A1A"/>
<rect x="16" y="37.9995" width="58" height="12" fill="#1A1A1A"/>
<rect x="22" y="41.9995" width="32" height="4" rx="2" fill="white"/>
<circle cx="76" cy="75.9995" r="11" fill="#F0F075" stroke="#1A1A1A" stroke-width="2"/>
<circle cx="76" cy="75.9995" r="4" fill="#1A1A1A"/>
</svg>
