<svg width="22" height="22" viewBox="0 0 22 22" fill="none" xmlns="http://www.w3.org/2000/svg">
<path d="M6.72121 4.17969C4.90781 5.1792 3.50361 6.78455 2.75432 8.71484C2.00502 10.6451 1.95835 12.7774 2.62246 14.7387" stroke="#00E599" stroke-miterlimit="10" stroke-linecap="round"/>
<path d="M3.34183 18.1172C4.31913 18.1172 5.11139 17.325 5.11139 16.3477C5.11139 15.3704 4.31913 14.5781 3.34183 14.5781C2.36453 14.5781 1.57227 15.3704 1.57227 16.3477C1.57227 17.325 2.36453 18.1172 3.34183 18.1172Z" stroke="#00E599" stroke-miterlimit="10" stroke-linecap="square"/>
<path d="M17.6313 17.7734C16.2663 19.3281 14.3979 20.3532 12.3532 20.6691C10.3085 20.985 8.21788 20.5717 6.44727 19.5014" stroke="#00E599" stroke-miterlimit="10" stroke-linecap="round"/>
<path d="M19.8518 12.0823C19.8518 12.0288 19.854 11.9748 19.854 11.9209C19.8535 9.87837 19.1463 7.89897 17.8526 6.31851C16.5588 4.73806 14.758 3.6539 12.7559 3.25" stroke="#00E599" stroke-miterlimit="10" stroke-linecap="round"/>
<path d="M18.6641 18.1172C19.6414 18.1172 20.4337 17.325 20.4337 16.3477C20.4337 15.3704 19.6414 14.5781 18.6641 14.5781C17.6868 14.5781 16.8945 15.3704 16.8945 16.3477C16.8945 17.325 17.6868 18.1172 18.6641 18.1172Z" stroke="#00E599" stroke-miterlimit="10" stroke-linecap="square"/>
<path d="M11.002 4.84381C11.9793 4.84381 12.7715 4.05155 12.7715 3.07425C12.7715 2.09695 11.9793 1.30469 11.002 1.30469C10.0247 1.30469 9.23242 2.09695 9.23242 3.07425C9.23242 4.05155 10.0247 4.84381 11.002 4.84381Z" stroke="#00E599" stroke-miterlimit="10" stroke-linecap="square"/>
</svg>
