<svg width="22" height="22" viewBox="0 0 22 22" fill="none" xmlns="http://www.w3.org/2000/svg">
<g clip-path="url(#clip0_1926_5869)">
<path d="M8.26298 4.29785L3.88086 9.27673" stroke="#00E599" stroke-miterlimit="10"/>
<path d="M17.3495 6.07245L11.5195 3.56445" stroke="#00E599" stroke-miterlimit="10"/>
<path d="M17.7644 8.30469L9.73438 16.4447" stroke="#00E599" stroke-miterlimit="10"/>
<path d="M18.9732 8.91699L18.0918 17.2" stroke="#00E599" stroke-miterlimit="10"/>
<path d="M4.75586 10.5215L17.2436 7.35352" stroke="#00E599" stroke-miterlimit="10"/>
<path d="M2.75 13.0625C3.88909 13.0625 4.8125 12.1391 4.8125 11C4.8125 9.86091 3.88909 8.9375 2.75 8.9375C1.61091 8.9375 0.6875 9.86091 0.6875 11C0.6875 12.1391 1.61091 13.0625 2.75 13.0625Z" stroke="#00E599" stroke-miterlimit="10"/>
<path d="M19.25 8.9375C20.3891 8.9375 21.3125 8.01409 21.3125 6.875C21.3125 5.73591 20.3891 4.8125 19.25 4.8125C18.1109 4.8125 17.1875 5.73591 17.1875 6.875C17.1875 8.01409 18.1109 8.9375 19.25 8.9375Z" stroke="#00E599" stroke-miterlimit="10"/>
<path d="M9.625 4.8125C10.7641 4.8125 11.6875 3.88909 11.6875 2.75C11.6875 1.61091 10.7641 0.6875 9.625 0.6875C8.48591 0.6875 7.5625 1.61091 7.5625 2.75C7.5625 3.88909 8.48591 4.8125 9.625 4.8125Z" stroke="#00E599" stroke-miterlimit="10"/>
<path d="M8.25 19.9375C9.38909 19.9375 10.3125 19.0141 10.3125 17.875C10.3125 16.7359 9.38909 15.8125 8.25 15.8125C7.11091 15.8125 6.1875 16.7359 6.1875 17.875C6.1875 19.0141 7.11091 19.9375 8.25 19.9375Z" stroke="#00E599" stroke-miterlimit="10"/>
<path d="M17.875 21.3125C19.0141 21.3125 19.9375 20.3891 19.9375 19.25C19.9375 18.1109 19.0141 17.1875 17.875 17.1875C16.7359 17.1875 15.8125 18.1109 15.8125 19.25C15.8125 20.3891 16.7359 21.3125 17.875 21.3125Z" stroke="#00E599" stroke-miterlimit="10"/>
</g>
<defs>
<clipPath id="clip0_1926_5869">
<rect width="22" height="22" fill="white"/>
</clipPath>
</defs>
</svg>
