<svg width="22" height="22" viewBox="0 0 22 22" fill="none" xmlns="http://www.w3.org/2000/svg">
<path d="M12.168 9.82628L14.6613 7.33294H19.0246C20.0569 7.33294 20.8946 6.49518 20.8946 5.46294V2.96961C20.8946 1.93737 20.0569 1.09961 19.0246 1.09961H14.038C13.0057 1.09961 12.168 1.93737 12.168 2.96961V9.82628Z" stroke="#00E599" stroke-miterlimit="10" stroke-linecap="round" stroke-linejoin="round"/>
<path d="M9.67922 9.82617H4.06922C3.03698 9.82617 2.19922 10.6639 2.19922 11.6962V17.9295C2.19922 18.9617 3.03698 19.7995 4.06922 19.7995H16.5359C17.5681 19.7995 18.4059 18.9617 18.4059 17.9295V11.6962C18.4059 10.6639 17.5681 9.82617 16.5359 9.82617H15.9126" stroke="#00E599" stroke-miterlimit="10" stroke-linecap="round" stroke-linejoin="round"/>
<path d="M7.18359 7.33318V4.83984" stroke="#00E599" stroke-miterlimit="10" stroke-linecap="round" stroke-linejoin="round"/>
<path d="M7.18779 4.83944C7.53204 4.83944 7.81112 4.56036 7.81112 4.21611C7.81112 3.87185 7.53204 3.59277 7.18779 3.59277C6.84353 3.59277 6.56445 3.87185 6.56445 4.21611C6.56445 4.56036 6.84353 4.83944 7.18779 4.83944Z" stroke="#00E599" stroke-miterlimit="10" stroke-linecap="square" stroke-linejoin="round"/>
<path d="M6.55721 15.4367C7.24573 15.4367 7.80388 14.8785 7.80388 14.19C7.80388 13.5015 7.24573 12.9434 6.55721 12.9434C5.8687 12.9434 5.31055 13.5015 5.31055 14.19C5.31055 14.8785 5.8687 15.4367 6.55721 15.4367Z" fill="#00E599"/>
<path d="M14.0416 15.4367C14.7301 15.4367 15.2883 14.8785 15.2883 14.19C15.2883 13.5015 14.7301 12.9434 14.0416 12.9434C13.3531 12.9434 12.7949 13.5015 12.7949 14.19C12.7949 14.8785 13.3531 15.4367 14.0416 15.4367Z" fill="#00E599"/>
</svg>
