<svg width="24" height="24" viewBox="0 0 24 24" fill="none" xmlns="http://www.w3.org/2000/svg">
<rect width="24" height="24" rx="4" fill="url(#paint0_linear_19250_317)"/>
<rect x="0.5" y="0.5" width="23" height="23" rx="3.5" stroke="url(#paint1_linear_19250_317)" stroke-opacity="0.1"/>
<path d="M17.2 6H6.8C6.35817 6 6 6.35817 6 6.8V17.2C6 17.6418 6.35817 18 6.8 18H17.2C17.6418 18 18 17.6418 18 17.2V6.8C18 6.35817 17.6418 6 17.2 6Z" stroke="#C9CBCF" stroke-linecap="round" stroke-linejoin="round"/>
<path d="M10.8 18.0002V13.2002H6" stroke="#C9CBCF" stroke-linecap="round" stroke-linejoin="round"/>
<path d="M12.3984 8.39941H15.5984V11.5994" stroke="#C9CBCF" stroke-linecap="round" stroke-linejoin="round"/>
<path d="M15.5984 8.39941L12.3984 11.5994" stroke="#C9CBCF" stroke-linecap="round" stroke-linejoin="round"/>
<defs>
<linearGradient id="paint0_linear_19250_317" x1="12" y1="0" x2="12" y2="24" gradientUnits="userSpaceOnUse">
<stop offset="0.3125" stop-color="#242628"/>
<stop offset="1" stop-color="#1D1E20"/>
</linearGradient>
<linearGradient id="paint1_linear_19250_317" x1="12" y1="0" x2="12" y2="24" gradientUnits="userSpaceOnUse">
<stop stop-color="white"/>
<stop offset="1" stop-color="white" stop-opacity="0.05"/>
</linearGradient>
</defs>
</svg>
