<svg width="22" height="22" viewBox="0 0 22 22" fill="none" xmlns="http://www.w3.org/2000/svg">
<path d="M17.6782 9.49314V5.10713C17.6782 4.89879 17.5955 4.69897 17.4482 4.55165C17.3008 4.40433 17.101 4.32156 16.8927 4.32156H9.12964C8.98379 4.32148 8.84084 4.2808 8.7168 4.20408C8.59277 4.12735 8.49254 4.01761 8.42734 3.88714L7.68262 2.39927C7.61742 2.2688 7.5172 2.15905 7.39316 2.08233C7.26912 2.0056 7.12617 1.96492 6.98032 1.96484H2.75237C2.54402 1.96484 2.34421 2.04761 2.19689 2.19493C2.04956 2.34226 1.9668 2.54207 1.9668 2.75042V14.534C1.9668 14.7423 2.04956 14.9422 2.19689 15.0895C2.34421 15.2368 2.54402 15.3196 2.75237 15.3196H8.7168" stroke="#00E599" stroke-linecap="round" stroke-linejoin="round"/>
<path d="M14.9582 18.5063C16.9232 18.5063 18.5161 16.9134 18.5161 14.9485C18.5161 12.9835 16.9232 11.3906 14.9582 11.3906C12.9933 11.3906 11.4004 12.9835 11.4004 14.9485C11.4004 16.9134 12.9933 18.5063 14.9582 18.5063Z" stroke="#00E599" stroke-linecap="round" stroke-linejoin="round"/>
<path d="M20.034 20.0359L17.4824 17.4844" stroke="#00E599" stroke-linecap="round" stroke-linejoin="round"/>
</svg>
