<svg width="24" height="24" viewBox="0 0 24 24" fill="none" xmlns="http://www.w3.org/2000/svg">
<path d="M16.5781 5.38281H21.8145" stroke="#00E599" stroke-linecap="round" stroke-linejoin="round"/>
<path d="M11.3447 2.76562H16.5811V8.00199H11.3447C10.6504 8.00199 9.98441 7.72615 9.49341 7.23514C9.00241 6.74414 8.72656 6.07819 8.72656 5.38381C8.72656 4.68942 9.00241 4.02348 9.49341 3.53247C9.98441 3.04147 10.6504 2.76563 11.3447 2.76562Z" stroke="#00E599" stroke-linecap="round" stroke-linejoin="round"/>
<path d="M7.41605 21.0919H17.8888C18.9304 21.0919 19.9293 20.6781 20.6658 19.9416C21.4023 19.2051 21.8161 18.2062 21.8161 17.1646C21.8161 16.1231 21.4023 15.1241 20.6658 14.3876C19.9293 13.6511 18.9304 13.2374 17.8888 13.2374H6.10696C5.06538 13.2374 4.06647 12.8236 3.32996 12.0871C2.59345 11.3506 2.17969 10.3517 2.17969 9.31009C2.17969 8.26851 2.59345 7.26959 3.32996 6.53308C4.06647 5.79658 5.06538 5.38281 6.10696 5.38281" stroke="#00E599" stroke-linecap="round" stroke-linejoin="round"/>
</svg>
