<svg width="24" height="24" viewBox="0 0 24 24" fill="none" xmlns="http://www.w3.org/2000/svg">
<path d="M16.5781 5.3811H21.8145" stroke="#00E599" stroke-linecap="round" stroke-linejoin="round"/>
<path d="M11.3447 2.76367H16.5811V8.00004H11.3447C10.6504 8.00004 9.98441 7.72419 9.49341 7.23319C9.00241 6.74218 8.72656 6.07624 8.72656 5.38185C8.72656 4.68747 9.00241 4.02152 9.49341 3.53052C9.98441 3.03952 10.6504 2.76367 11.3447 2.76367Z" stroke="#00E599" stroke-linecap="round" stroke-linejoin="round"/>
<path d="M7.41605 21.0902H17.8888C18.9304 21.0902 19.9293 20.6764 20.6658 19.9399C21.4023 19.2034 21.8161 18.2045 21.8161 17.1629C21.8161 16.1213 21.4023 15.1224 20.6658 14.3859C19.9293 13.6494 18.9304 13.2357 17.8888 13.2357H6.10696C5.06538 13.2357 4.06647 12.8219 3.32996 12.0854C2.59345 11.3489 2.17969 10.35 2.17969 9.30838C2.17969 8.2668 2.59345 7.26788 3.32996 6.53138C4.06647 5.79487 5.06538 5.3811 6.10696 5.3811" stroke="#00E599" stroke-linecap="round" stroke-linejoin="round"/>
</svg>
