<svg width="24" height="24" viewBox="0 0 24 24" fill="none" xmlns="http://www.w3.org/2000/svg">
<path d="M9 3H4C3.44772 3 3 3.44772 3 4V9C3 9.55228 3.44772 10 4 10H9C9.55228 10 10 9.55228 10 9V4C10 3.44772 9.55228 3 9 3Z" stroke="#00E599" stroke-miterlimit="10" stroke-linecap="square"/>
<path d="M17.0453 2.36287L13.8634 5.54485C13.4728 5.93537 13.4728 6.56854 13.8634 6.95906L17.0453 10.141C17.4359 10.5316 18.069 10.5316 18.4596 10.141L21.6415 6.95906C22.0321 6.56854 22.0321 5.93537 21.6415 5.54485L18.4596 2.36287C18.069 1.97234 17.4359 1.97234 17.0453 2.36287Z" stroke="#00E599" stroke-miterlimit="10" stroke-linecap="square"/>
<path d="M20 14H15C14.4477 14 14 14.4477 14 15V20C14 20.5523 14.4477 21 15 21H20C20.5523 21 21 20.5523 21 20V15C21 14.4477 20.5523 14 20 14Z" stroke="#00E599" stroke-miterlimit="10" stroke-linecap="square"/>
<path d="M9 14H4C3.44772 14 3 14.4477 3 15V20C3 20.5523 3.44772 21 4 21H9C9.55228 21 10 20.5523 10 20V15C10 14.4477 9.55228 14 9 14Z" stroke="#00E599" stroke-miterlimit="10" stroke-linecap="square"/>
</svg>
