<svg width="24" height="24" viewBox="0 0 24 24" fill="none" xmlns="http://www.w3.org/2000/svg">
<path d="M22.9864 21.5888H16.111C15.9484 21.5888 15.791 21.5311 15.6669 21.426C15.5428 21.3208 15.4599 21.1751 15.4331 21.0147L14.6328 16.2116L15.9893 15.9854L16.6934 20.2137H22.9864V21.5888Z" fill="#34D59A"/>
<path d="M1.00781 6.99227L2.36089 6.73926L4.00068 15.5467L2.64897 15.7983L1.00781 6.99227Z" fill="#34D59A"/>
<path d="M20.9765 2.97307C20.9429 2.79373 20.8395 2.63503 20.6892 2.53166C20.6149 2.48047 20.5312 2.44452 20.4429 2.42587C20.3546 2.40723 20.2635 2.40626 20.1749 2.42303L4.15516 5.40628C3.9761 5.44 3.81769 5.54329 3.7146 5.69354C3.61152 5.84378 3.57215 6.02875 3.60513 6.20795L5.34048 15.5276C5.37403 15.7069 5.47738 15.8655 5.62783 15.9686C5.77828 16.0718 5.96351 16.111 6.14284 16.0776L22.1619 13.0951C22.5352 13.0256 22.7813 12.6667 22.7126 12.2934L20.9765 2.97307ZM8.89576 9.90142C8.76028 9.90138 8.62613 9.87465 8.50099 9.82276C8.37584 9.77087 8.26213 9.69484 8.16637 9.59901C7.97296 9.40548 7.86435 9.14303 7.86444 8.86942C7.86449 8.73394 7.89122 8.5998 7.94311 8.47465C7.99499 8.3495 8.07102 8.2358 8.16685 8.14003C8.36039 7.94662 8.62283 7.83802 8.89644 7.83811C9.17006 7.8382 9.43243 7.94698 9.62583 8.14052C9.81924 8.33405 9.92785 8.5965 9.92776 8.87011C9.92767 9.14372 9.81889 9.40609 9.62535 9.5995C9.43181 9.79291 9.16937 9.90151 8.89576 9.90142Z" fill="#34D59A"/>
</svg>
