<svg width="24" height="24" viewBox="0 0 24 24" fill="none" xmlns="http://www.w3.org/2000/svg">
<path d="M11.999 8.47624C17.0596 8.47624 21.162 6.89838 21.162 4.95199C21.162 3.0056 17.0596 1.42773 11.999 1.42773C6.93838 1.42773 2.83594 3.0056 2.83594 4.95199C2.83594 6.89838 6.93838 8.47624 11.999 8.47624Z" fill="#34D59A"/>
<path d="M11.999 15.5245C16.5523 15.5245 21.162 14.3143 21.162 12.0002V7.65625C19.1687 9.25908 15.3886 9.88569 11.999 9.88569C8.60937 9.88569 4.82925 9.25908 2.83594 7.65625V12.0002C2.83594 14.3143 7.44566 15.5245 11.999 15.5245Z" fill="#34D59A"/>
<path d="M11.999 16.9346C8.60937 16.9346 4.82925 16.308 2.83594 14.7051V19.0491C2.83594 21.3632 7.44566 22.5734 11.999 22.5734C16.5523 22.5734 21.162 21.3632 21.162 19.0491V14.7051C19.1687 16.308 15.3886 16.9346 11.999 16.9346Z" fill="#34D59A"/>
</svg>
