<svg width="169" height="12" viewBox="0 0 169 12" fill="none" xmlns="http://www.w3.org/2000/svg">
<path d="M0.5 0V12" stroke="#61646B"/>
<path d="M8.5 0V12" stroke="#61646B"/>
<path d="M16.5 0V12" stroke="#61646B"/>
<path d="M24.5 0V12" stroke="#61646B"/>
<path d="M32.5 0V12" stroke="#61646B"/>
<path d="M40.5 0V12" stroke="#61646B"/>
<path d="M48.5 0V12" stroke="#61646B"/>
<path d="M56.5 0V12" stroke="#61646B"/>
<path d="M64.5 0V12" stroke="#61646B"/>
<path d="M72.5 0V12" stroke="#61646B"/>
<path d="M80.5 0V12" stroke="#61646B"/>
<path d="M88.5 0V12" stroke="#61646B"/>
<path d="M96.5 0V12" stroke="#61646B"/>
<path d="M104.5 0V12" stroke="#61646B"/>
<path d="M112.5 0V12" stroke="#61646B"/>
<path d="M120.5 0V12" stroke="#61646B"/>
<path d="M128.5 0V12" stroke="#61646B"/>
<path d="M136.5 0V12" stroke="#61646B"/>
<path d="M144.5 0V12" stroke="#61646B"/>
<path d="M152.5 0V12" stroke="#61646B"/>
<path d="M160.5 0V12" stroke="#61646B"/>
<path d="M168.5 0V12" stroke="#61646B"/>
</svg>
