<svg width="80" height="32" viewBox="0 0 80 32" fill="none" xmlns="http://www.w3.org/2000/svg">
<g clip-path="url(#clip0_32214_59496)">
<path fill-rule="evenodd" clip-rule="evenodd" d="M10.3261 1.76961C10.4991 1.38228 10.8034 1.07597 11.2236 1.15242C11.4121 1.18323 11.5831 1.28192 11.7041 1.42977C11.825 1.57773 11.8881 1.76516 11.8808 1.95614C11.905 2.42459 12.1844 2.92413 11.5146 3.17586C11.4848 3.1886 11.5146 3.36651 11.5146 3.46883C11.5015 3.91979 11.5679 4.39082 11.4541 4.81551C11.3053 5.36469 11.3421 5.49139 11.913 5.47176C12.3487 5.46738 12.8047 5.47371 13.3476 5.47371C13.5369 5.3927 13.7345 5.33177 13.9365 5.29207C14.7354 5.17828 15.5868 5.22207 16.3222 4.94637C16.7468 4.7866 17.1456 4.56578 17.5986 4.60067C17.8044 4.61599 17.9953 4.81956 18.1923 4.92684C18.0458 5.10403 17.9298 5.38839 17.7548 5.44344C17.085 5.64045 16.3929 5.76311 15.7099 5.91414C14.4665 6.18559 13.2338 6.5096 11.9882 6.71102C11.0994 6.85332 10.4557 7.22382 10.1054 8.05575C9.80776 8.77587 9.55568 9.51336 9.25582 10.2335C8.95592 10.9537 8.57048 11.6608 8.29683 12.3985C8.0446 13.0973 7.84145 13.8132 7.68843 14.5401C7.45858 15.5887 7.27662 16.6505 7.09273 17.71C6.98765 18.3099 6.89817 18.9142 6.83687 19.5206C6.7296 20.5802 6.65218 21.6397 6.55367 22.6993C6.40699 24.2909 6.25234 25.8804 6.10347 27.4698C5.97869 28.7833 5.84066 30.0973 5.74214 31.4239C5.71142 31.8374 5.56005 32.028 5.14644 32.004C4.73267 31.9799 4.60818 31.7449 4.62789 31.3858C4.7001 30.1295 4.68873 28.86 4.87691 27.6212C5.03891 26.5397 5.31504 25.4862 5.29097 24.3741C5.27784 23.8751 5.47891 23.3738 5.54683 22.8682C5.6344 22.194 5.67801 21.5145 5.76558 20.838C5.87722 19.8879 5.98513 18.9357 6.13179 17.9923C6.24346 17.2961 6.58526 16.5996 6.54586 15.921C6.46712 14.5856 6.91794 13.3444 7.05367 12.0528C7.13251 11.3129 7.56111 10.6165 7.79097 9.88973C7.9427 9.43146 8.04851 8.95882 8.1064 8.47957C8.15863 8.00042 7.69695 7.73151 7.26363 7.95028C7.21778 7.97211 7.18483 8.06326 7.15425 8.0616C6.28949 7.9609 5.63211 8.55857 4.85054 8.73153C4.78266 8.74684 4.67333 8.76432 4.63179 8.73153C4.16119 8.21081 3.78231 8.70148 3.36422 8.82625C2.88922 8.96852 2.40534 9.08427 1.92379 9.20028C1.58451 9.28345 1.24521 9.36649 0.899371 9.41903C0.511975 9.47155 0.102558 9.4761 0.0126526 8.97078C-0.0770907 8.46516 0.327726 8.26335 0.684528 8.1495C1.31488 7.94813 1.97388 7.71144 2.61519 7.72664C3.1231 7.73759 3.45452 7.44685 3.84859 7.37899C4.34538 7.29344 4.83748 6.80144 5.41304 7.20614C5.50499 7.27181 5.73982 7.14199 5.90621 7.09383C6.48399 6.92748 7.05088 6.68901 7.63961 6.6036C8.26776 6.51605 8.56343 6.31919 8.76265 5.69344C8.98158 5.02134 9.22748 4.3617 9.49019 3.70711C9.75287 3.05264 10.0416 2.41315 10.3261 1.76961ZM34.8925 0.242268C34.9785 0.0740462 35.4391 -0.0548626 35.6406 0.0235181C36.0783 0.196427 36.1753 0.638779 36.0791 1.08309C35.9674 1.58881 35.9408 2.17801 35.6562 2.56551C35.26 3.10624 35.4531 3.60337 35.4619 4.13973C35.4424 4.50079 35.397 4.86036 35.3261 5.21492C35.6878 5.20265 36.0498 5.21796 36.4091 5.26082C37.2107 5.41858 38.0422 5.29565 38.7646 4.91414C39.0996 4.74776 39.5493 4.82064 39.9433 4.75496C40.2579 4.66256 40.5778 4.5895 40.9013 4.53621C41.059 4.53621 41.3744 4.75475 41.3613 4.82918C41.3219 5.04811 41.1993 5.33947 41.0263 5.4161C40.5297 5.62076 40.0173 5.78467 39.4941 5.90633C38.0382 6.28069 36.5732 6.62625 35.1152 7.01375C34.9998 7.04655 34.8923 7.10269 34.7988 7.17781C34.7052 7.25303 34.6272 7.34649 34.5703 7.45223C34.1785 8.32774 33.7998 9.23607 33.4912 10.1554C33.1602 11.2026 33.0037 12.2975 33.0273 13.3956C33.0273 14.2953 32.8908 15.1931 32.8252 16.0929C32.7485 17.1546 32.6896 18.2188 32.6064 19.2784C32.5123 20.535 32.3641 21.7874 32.3203 23.044C32.2853 24.0575 32.3614 25.0753 32.4052 26.0909C32.4271 26.5857 32.0875 26.7635 31.7197 26.8292C31.6101 26.846 31.346 26.5337 31.3173 26.3477C31.2084 25.6378 31.1394 24.9219 31.1113 24.2042C31.0982 23.8933 31.2495 23.58 31.2714 23.2647C31.3108 22.7044 31.3067 22.1397 31.3242 21.5772C31.3483 20.7016 31.105 19.8061 31.6171 18.9786C31.7157 18.821 31.6438 18.5537 31.6503 18.337C31.6788 17.4789 31.7049 16.6208 31.7421 15.7628C31.7553 15.4344 31.6299 15.3131 31.3037 15.335C30.0035 15.4204 28.7012 15.463 27.4033 15.5811C27.2717 15.6189 27.1487 15.6827 27.0429 15.7696C26.9373 15.8565 26.8506 15.9644 26.788 16.086C26.1772 17.2222 25.1234 17.8029 24.042 18.3546C23.8751 18.4335 23.6848 18.4488 23.5078 18.3966C22.9605 18.2084 22.3214 18.3281 21.8486 17.8311C21.7171 17.6933 21.2814 17.7523 21.0253 17.8311C20.2766 18.0895 19.5473 18.6307 18.8095 18.6329C18.1531 18.6331 18.0082 19.1124 17.6054 19.3116C17.4466 19.4426 17.3392 19.6257 17.3017 19.8282C17.0301 20.8916 16.3671 21.8135 15.4453 22.4093C15.0074 22.6873 14.6633 22.5862 14.4072 22.0958C14.3413 21.9689 14.0571 21.9183 13.8711 21.9073C13.7835 21.9073 13.6764 22.07 13.5976 22.1729C13.5188 22.2758 13.4829 22.4445 13.3779 22.5255C12.7209 23.0505 11.2568 23.1575 10.5673 22.711C10.4135 22.5875 10.3109 22.4107 10.2802 22.2159C10.0613 21.036 9.7902 19.8579 9.71578 18.6671C9.67215 17.9777 9.93501 17.2556 10.1211 16.5684C10.2725 16.0436 10.4772 15.5353 10.7334 15.0528C10.8946 14.7623 11.1195 14.5116 11.3906 14.3194C11.5197 14.2234 11.7821 14.3193 11.9834 14.3194C11.9461 14.5252 11.9841 14.8037 11.8593 14.922C11.2682 15.4977 11.0776 16.2358 10.9375 16.9932C10.898 17.212 10.7946 17.4307 10.7334 17.6495C10.3634 18.963 10.7342 20.183 11.1611 21.3936C11.38 22.0279 11.7298 22.1176 12.1543 21.6124C12.6627 20.9908 13.1375 20.342 13.5771 19.67C13.8573 19.2606 14.0613 18.7945 14.3525 18.4005C14.422 18.3295 14.5064 18.2748 14.5996 18.2403C14.6927 18.2059 14.7927 18.1926 14.8916 18.2013C14.9922 18.2151 15.1335 18.4922 15.125 18.6388C15.1031 19.0503 14.9697 19.4579 14.9609 19.8673C14.9808 20.2178 15.0322 20.5659 15.1142 20.9073C15.2541 20.8701 15.477 20.8763 15.5234 20.7891C15.7423 20.3513 16.0232 19.9132 16.0976 19.4513C16.229 18.615 16.8878 18.3169 17.4658 17.9688C17.9779 17.6603 18.5842 17.5094 19.1445 17.2774C19.4049 17.168 19.6461 16.9954 19.913 16.9122C20.121 16.8487 20.3886 16.9363 20.5703 16.8487C20.8921 16.6977 21.1497 16.4568 20.8652 16.043C20.8157 15.9665 20.7948 15.8749 20.8046 15.7843C20.8813 15.0728 20.8638 14.3258 21.0849 13.6602C21.306 12.9948 21.6631 12.2292 22.1796 11.752C22.6043 11.3603 23.3502 11.3138 23.9609 11.13C24.2134 11.0547 24.4769 11.0213 24.7402 11.0313C24.8693 11.0401 24.9836 11.1999 25.1084 11.294C26.4218 10.4184 27.3308 11.3748 27.749 12.419C27.9066 12.8108 27.8405 13.3255 27.7705 13.7677C27.6917 14.2821 27.8014 14.4708 28.3115 14.4884C28.8631 14.5081 29.4059 14.5649 29.9619 14.6065C29.9794 14.6065 30.0105 14.6236 30.0127 14.6192C30.4131 14.0224 30.9841 14.5341 31.4218 14.3858C31.6604 14.3048 31.9149 13.8667 31.9238 13.5821C31.9888 12.3869 32.205 11.2044 32.5673 10.0636C32.7709 9.36961 32.7378 8.60525 32.8056 7.8741C32.8339 7.54597 32.6696 7.40378 32.3457 7.4366C31.2171 7.51111 30.108 7.76891 29.0625 8.20028C28.4582 8.46737 27.7882 8.58184 27.1533 8.7745C26.9895 8.82759 26.8311 8.89596 26.6806 8.97957C26.4792 9.09123 26.299 9.28829 26.0888 9.32332C25.8217 9.36707 25.3794 9.38498 25.2832 9.23836C24.9703 8.75242 25.1155 8.28774 25.5839 8.11043C26.096 7.91584 26.7107 7.90494 27.1484 7.61629C27.9322 7.10181 28.872 7.15876 29.6777 6.75594C30.0828 6.54818 30.5369 6.45428 30.9912 6.48446C31.4071 6.51058 31.8515 6.08812 32.2871 5.86922C32.5804 5.72254 32.7597 5.35006 33.2216 4.64949C33.6835 3.94894 33.7517 3.12767 34.0166 2.3702C34.2614 1.64257 34.5543 0.931453 34.8925 0.242268ZM58.8173 6.84285C58.9925 6.366 59.3672 6.49534 59.6211 6.59383C59.947 6.72305 60.0429 7.03138 59.8613 7.4034C59.6424 7.8302 59.4016 8.26601 59.3359 8.71688C59.2702 9.1678 59.4042 9.68034 59.5224 10.1554C59.9076 9.82485 60.1555 9.53426 60.6787 9.78817C60.9414 9.91509 61.3157 10.063 61.6132 9.64071C61.7154 9.54596 61.8402 9.47934 61.9755 9.44637C62.1111 9.41343 62.2532 9.41578 62.3877 9.45321C63.2327 9.89106 64.0983 9.52085 64.9433 9.5909C65.2387 9.61475 65.552 9.40297 65.8496 9.4161C66.0683 9.41628 66.2871 9.61697 66.5058 9.7286C66.3551 9.86529 66.1867 9.98105 66.0048 10.0723C65.7318 10.1613 65.4486 10.2158 65.1621 10.2345C63.8224 10.3352 62.4803 10.4138 61.1406 10.5167C60.5101 10.5648 59.881 10.6435 59.2548 10.7354C58.6925 10.81 58.4149 11.1913 58.1982 11.6837C57.8195 12.5484 57.3877 13.3892 56.9892 14.2452C56.8967 14.4183 56.839 14.6084 56.8203 14.8038C56.8048 15.6945 56.2361 16.3905 55.9931 17.2003C55.8027 17.8417 55.4653 18.4397 55.2793 19.0811C55.0735 19.7838 54.9623 20.515 54.8222 21.2374C54.7456 21.6182 54.7785 22.0521 54.6035 22.3761C54.4875 22.5949 54.0888 22.6474 53.8173 22.7764C53.7451 22.5729 53.5979 22.3582 53.6132 22.17C53.7336 21.2944 53.7729 20.3572 54.1035 19.5538C54.3224 19.0197 54.5195 18.5556 54.456 17.9317C53.6461 18.398 52.9019 18.9104 52.0898 19.2716C51.2141 19.6569 51.1001 20.3465 50.9775 21.1456C50.9206 21.5133 50.507 21.8153 50.3886 22.1895C50.1479 22.9643 49.533 22.9802 48.9267 23.002C47.981 23.0349 47.3934 22.4179 47.0869 21.6583C46.8242 21.019 46.8115 20.2762 46.6933 19.6173C46.4065 19.8909 46.1324 20.3139 45.5566 20.1388C45.4964 20.1211 45.4331 20.1161 45.3711 20.1251C45.3087 20.1341 45.2482 20.1573 45.1953 20.1915C44.8648 20.5347 44.4362 20.5043 44.0293 20.6114C43.7425 20.6858 43.4835 21.0735 43.3193 21.38C42.8509 22.2555 42.4571 23.188 41.9843 24.0723C41.853 24.3175 41.546 24.4774 41.3271 24.67C41.305 24.6862 41.2798 24.6979 41.2529 24.7032C41.2261 24.7085 41.1983 24.7079 41.1718 24.7013C40.6793 24.5371 40.1891 24.3636 39.6396 24.171C39.1295 24.7489 38.3254 25.0466 37.5175 25.3399C37.4125 25.3547 37.3056 25.3344 37.2138 25.2813C36.1652 24.7975 36.1412 24.8017 35.9003 23.6524C35.528 21.8766 35.513 20.0444 35.8564 18.2628C36.0455 17.077 36.2938 15.9012 36.6005 14.7403C36.7669 14.1602 37.1782 13.6449 37.5263 13.1261C37.5595 13.0677 37.6086 13.0197 37.667 12.9864C37.7252 12.9532 37.7913 12.9365 37.8584 12.9376C37.9255 12.9387 37.9916 12.9571 38.0488 12.9923C38.106 13.0275 38.1523 13.0783 38.1836 13.1378C38.2797 13.3087 38.2795 13.6956 38.1591 13.794C37.4587 14.3939 37.4501 15.2656 37.1787 16.0362C36.8088 17.0826 36.7404 18.1553 36.7295 19.252C36.7294 20.2021 36.5521 21.1521 36.5849 22.0977C36.6281 22.6654 36.79 23.2178 37.0586 23.7198C37.3147 24.2387 37.886 24.1577 38.2451 23.7198C39.0571 22.7194 39.5166 21.546 40.042 20.3946C40.1361 20.1867 40.4799 20.0949 40.7207 19.9571C40.7885 20.2022 40.9263 20.4537 40.9111 20.6944C40.8804 21.2045 40.7236 21.711 40.7148 22.2276C40.715 22.4858 40.9337 22.7459 41.041 23.004C41.2861 22.7853 41.625 22.6211 41.7607 22.3477C42.0409 21.7982 42.1441 21.1544 42.4462 20.6202C42.7111 20.154 43.1512 19.7864 43.5146 19.377C43.5474 19.3398 43.6111 19.2801 43.6396 19.2911C44.5456 19.6257 45.1124 18.7794 45.8828 18.6544C46.408 18.569 46.9403 18.5249 47.4677 18.4571C47.587 18.4558 47.7048 18.4274 47.8115 18.3741C48.1705 18.1202 48.4819 17.759 48.8759 17.6036C49.2247 17.4955 49.6005 17.5129 49.9375 17.6534C50.305 17.8318 50.6309 18.0868 50.8925 18.4005C51.1398 18.6739 51.2948 18.7457 51.6318 18.5225C52.4462 17.9862 53.3356 17.5617 54.1171 16.9903C54.8986 16.419 55.5748 15.8166 55.8681 14.8009C56.2315 13.5816 56.7859 12.4085 57.2675 11.1739C56.8044 11.1476 56.3395 11.1515 55.8769 11.1866C55.4064 11.2479 54.9556 11.4624 54.4873 11.5216C54.1698 11.561 53.8301 11.4017 53.5039 11.4171C52.8668 11.4455 52.2317 11.5479 51.5947 11.5938C51.23 11.6169 50.8637 11.611 50.5 11.5763C50.4447 11.5599 50.3943 11.5301 50.3535 11.4893C50.3125 11.4484 50.2829 11.3974 50.2666 11.3419C50.2557 11.2171 50.3101 11.0026 50.3955 10.9698C50.8312 10.7959 51.2756 10.6441 51.7265 10.5147C51.8845 10.5073 52.043 10.5217 52.1972 10.5567L51.6699 10.8077C51.7136 10.8449 51.7528 10.9061 51.7812 10.8995C52.0745 10.8338 52.3683 10.7617 52.6572 10.6807C52.8935 10.6216 53.1257 10.5302 53.3642 10.4952C54.2398 10.3617 55.1156 10.2278 55.9912 10.1358C56.3611 10.0965 56.7401 10.1663 57.1123 10.1641C57.1613 10.1623 57.2091 10.1489 57.2519 10.1251C57.2949 10.1011 57.332 10.0674 57.3593 10.0264C57.5169 9.51648 58.0162 9.21878 58.0908 8.61922C58.1652 8.01936 58.594 7.4449 58.8173 6.84285ZM47.79 19.5128C47.6217 19.9006 47.9408 21.2424 48.2275 21.4395C48.4129 21.5607 48.6253 21.6348 48.8457 21.6573C49.0658 21.6797 49.2882 21.6496 49.4941 21.5684C49.7001 21.4872 49.8836 21.3573 50.0293 21.1905C50.1749 21.0237 50.2792 20.8245 50.332 20.6095C50.3911 20.3905 50.4167 20.158 50.4912 19.9522C50.5488 19.8205 50.6231 19.696 50.7109 19.5821C50.5449 19.5327 50.3709 19.5141 50.1982 19.5274C49.3597 19.7836 48.7464 19.4798 48.2275 18.6173C48.0524 18.9762 47.9148 19.2414 47.79 19.5128ZM69.6171 15.3946C69.9368 15.2326 71.327 15.6678 71.5 16.0772C71.778 16.7339 72.3755 16.6031 72.8593 16.7345C73.4899 16.9097 74.1405 17.0044 74.7949 17.0167C75.5872 17.0168 76.3466 17.4541 77.1543 17.1632C77.2265 17.1369 77.345 17.2676 77.4414 17.2677C77.7894 17.2677 78.227 17.5789 78.4218 16.9835C78.4459 16.9134 78.7114 16.8874 78.8603 16.9093C78.9325 16.9206 79.0224 17.0821 79.0312 17.1827C79.0706 17.5986 78.6566 17.9528 78.0439 17.9464C77.4309 17.9398 76.8236 17.8332 76.2128 17.7872C75.0768 17.6996 73.9387 17.6354 72.8027 17.5391C72.4196 17.5085 72.2509 17.5987 72.2421 18.0255C72.2421 18.5027 72.2423 19.035 72.0234 19.4444C71.7081 20.0749 71.2629 20.5829 70.4003 20.6573C69.538 20.7316 68.9444 20.4031 68.3359 19.8888C67.7274 19.3743 67.2915 18.8242 67.1865 18.0274C67.1749 17.94 66.9688 17.792 66.9179 17.8087C66.2875 18.0538 65.6677 18.3278 65.0439 18.5948C64.7266 18.7339 64.474 18.9886 64.3369 19.3067C63.9348 20.0479 63.3362 20.6639 62.6074 21.088C62.2418 21.2784 61.6701 20.9481 61.3242 20.2891C61.0505 20.6416 60.8861 21.0186 60.5839 21.2003C60.2818 21.3819 59.8765 21.4079 59.5087 21.4386C59.2791 21.4559 59.0408 21.3161 58.8046 21.3116C58.0014 21.2941 57.9414 20.6028 57.8408 20.1124C57.6656 19.263 57.6551 18.3609 58.0732 17.5597C58.3228 17.0736 58.7496 16.9028 59.3867 17.1524C59.2632 17.2823 59.1332 17.406 58.997 17.5225C58.0098 18.2735 58.2573 19.7482 58.9687 20.4268C59.378 20.8186 59.8307 20.4274 60.1328 20.1231C60.4716 19.7399 60.7823 19.332 61.0615 18.9034C61.3045 18.5772 61.5386 18.2462 61.8056 17.9376C61.8404 17.8654 61.9014 17.8088 61.9755 17.7784C62.0498 17.7481 62.1326 17.7463 62.208 17.7735C62.2834 17.8008 62.346 17.8551 62.3837 17.9259C62.4215 17.9967 62.4316 18.0794 62.4121 18.1573C62.412 18.5206 62.3659 18.8843 62.3681 19.252C62.3891 19.411 62.4318 19.5666 62.4951 19.7139C62.6547 19.633 62.8778 19.5931 62.9589 19.462C63.1647 19.1337 63.2398 18.709 63.4892 18.4288C63.7736 18.1365 64.1151 17.9055 64.4921 17.7501C64.9999 17.5312 65.5426 17.3736 66.0722 17.1964C66.1799 17.1455 66.297 17.1159 66.416 17.1104C66.8867 17.1455 67.3405 17.1763 67.4697 16.5567C67.4828 16.4976 67.6031 16.427 67.6884 16.4161C68.4633 16.3219 68.967 15.723 69.6171 15.3946ZM68.5244 17.2286C68.4616 17.232 68.4 17.2494 68.3447 17.2794C68.0384 18.1945 68.4854 19.4773 69.5537 19.5977C70.3985 19.648 70.7754 19.3349 71.1191 18.2843C71.149 18.1403 71.1614 17.9927 71.1562 17.8458C71.011 17.8254 70.863 17.8254 70.7177 17.8458C70.3641 17.9749 69.9785 17.9883 69.6171 17.8829C69.2556 17.7774 68.9367 17.5591 68.708 17.2598C68.6498 17.2361 68.5871 17.2252 68.5244 17.2286ZM24.1337 13.085C23.9679 13.1304 23.8076 13.1938 23.6552 13.2735C22.9885 13.7166 22.4474 14.3253 22.0869 15.0401C21.7544 15.7187 21.9232 16.9265 22.5664 17.2989C23.4968 17.8375 24.2327 17.5049 24.791 17.0977C25.0799 16.8788 25.3496 16.6599 25.6298 16.4278C25.7589 16.3251 25.8922 16.2266 26.0234 16.1261C25.8964 16.0122 25.7912 15.8478 25.6445 15.793C24.0839 15.213 23.8536 14.7661 24.1337 13.085ZM25.5 13.1925C25.3317 13.4328 25.242 13.5422 25.1699 13.6602C24.9072 14.098 25.1389 14.4643 25.8261 14.6876C26.0156 14.7381 26.2083 14.7775 26.4023 14.8057C26.3811 14.5996 26.3298 14.3977 26.2509 14.2061C26.0627 13.8887 25.824 13.6062 25.5 13.1925Z" fill="white"/>
</g>
<defs>
<clipPath id="clip0_32214_59496">
<rect width="79.2" height="32" fill="white"/>
</clipPath>
</defs>
</svg>
