<svg width="36" height="32" viewBox="0 0 36 32" fill="none" xmlns="http://www.w3.org/2000/svg">
<path fill-rule="evenodd" clip-rule="evenodd" d="M17.4835 0.0047605C17.2599 -0.000766697 17.0308 -0.0064299 16.8183 0.0185245C16.201 0.0319821 15.582 0.0287229 14.9635 0.0254661C14.6472 0.0238005 14.3308 0.0221357 14.015 0.0227077L7.73214 0.0261237L4.30831 0.0399629C4.1114 0.0416173 3.91434 0.0451253 3.71722 0.0486349C3.15204 0.0586981 2.58633 0.0687701 2.02223 0.0351701L2.02313 21.8402L2.0104 28.2718L2.02412 30.6862C2.02408 30.7894 2.02515 30.8932 2.02622 30.9973C2.02966 31.3321 2.03312 31.6698 2 32C8.12795 31.9413 14.256 31.9292 20.3841 31.9638C20.8202 31.9933 21.2624 31.9834 21.7018 31.9735C21.8324 31.9706 21.9626 31.9677 22.0924 31.9658C22.5104 31.9599 22.9288 31.9602 23.3471 31.9606C23.5312 31.9608 23.716 31.961 23.9001 31.9606L30.8976 31.9423C31.1904 31.9426 31.4834 31.9414 31.7765 31.9403H31.7775H31.7784C32.8372 31.9364 33.8977 31.9324 34.954 31.9904C34.975 31.4825 34.9641 30.9716 34.9532 30.461C34.9457 30.1142 34.9383 29.7675 34.9409 29.4221C34.9672 26.1612 34.9605 22.9003 34.921 19.6396L34.9209 19.6249C34.9147 18.8943 34.9084 18.1602 34.9236 17.43C34.9311 17.077 34.9422 16.7242 34.9533 16.3715C34.9697 15.851 34.986 15.3297 34.9908 14.8089L34.9902 7.05921C34.9905 6.50062 34.9814 5.94216 34.9723 5.3837C34.9657 4.97786 34.9591 4.57204 34.956 4.16618C34.9513 3.5378 34.9585 2.91039 34.9657 2.28274C34.9686 2.02682 34.9716 1.77086 34.9736 1.51478L34.9747 1.40049C34.9772 1.13616 34.9796 0.87097 34.9738 0.606906C34.9724 0.541386 34.9692 0.475506 34.9661 0.40953C34.96 0.282346 34.9539 0.154506 34.96 0.0284421C34.4751 0.0657381 33.9763 0.0513277 33.4833 0.0370853C33.31 0.0320781 33.1375 0.0270925 32.9664 0.0243805C32.3138 0.0140413 31.6595 0.0129197 31.006 0.0117989C30.808 0.0114597 30.61 0.0111197 30.412 0.0105245L24.9055 0.0276925C24.3461 0.0274165 23.7867 0.0238069 23.2272 0.0201965C22.1961 0.0135437 21.165 0.00689011 20.1345 0.0211037C19.6648 0.0275845 19.195 0.0221493 18.7252 0.0167141C18.404 0.0129981 18.0828 0.00928128 17.7616 0.00937328C17.6709 0.00939408 17.5777 0.0070893 17.4835 0.0047605ZM3.44154 20.7047L3.41853 1.44114L26.0666 1.44021L31.7436 1.44034C32.074 1.44194 32.4045 1.44074 32.735 1.43675C32.8095 1.43528 32.8892 1.43078 32.9711 1.42615C33.1924 1.41365 33.43 1.40024 33.6248 1.44342C33.6424 1.48984 33.6287 1.77719 33.621 1.9387C33.619 1.97963 33.6175 2.01287 33.6169 2.03155C33.5966 2.67904 33.5993 3.32689 33.6021 3.97471C33.6044 4.51504 33.6068 5.05535 33.5956 5.59545C33.5809 6.31606 33.5832 7.03781 33.5854 7.75929C33.5864 8.09929 33.5875 8.43921 33.5868 8.77889L33.5409 14.3201L33.5081 16.3513C33.5063 16.4307 33.5074 16.513 33.5085 16.5962C33.5111 16.7801 33.5137 16.9687 33.4837 17.1406C33.416 17.1445 33.2844 17.1438 33.1271 17.143C32.7173 17.141 32.1331 17.138 32.0486 17.211C31.9348 17.4152 31.9814 17.7797 32.0166 18.055C32.0237 18.1108 32.0304 18.163 32.0352 18.2094C32.101 18.213 32.1668 18.215 32.2326 18.2172C32.3515 18.221 32.4704 18.2249 32.5891 18.2366C32.8836 18.2661 33.1752 18.321 33.466 18.3758C33.5197 18.3858 33.5734 18.3959 33.627 18.4059C33.6098 18.6229 33.6208 18.8575 33.6356 19.0749C33.6384 19.1184 33.6481 19.1786 33.6586 19.2442C33.679 19.3719 33.7025 19.5195 33.6857 19.6016L33.6842 19.6081L33.6832 19.6121L33.6584 19.6326L33.6609 19.6326L33.6579 19.635C33.5735 19.6491 33.4812 19.669 33.4192 19.7332C33.3608 19.7938 33.3392 19.879 33.3377 19.9614C33.3344 20.1311 33.3723 20.3106 33.4088 20.4837C33.4223 20.5473 33.4355 20.6102 33.4464 20.6713C33.5029 20.9848 33.5421 21.3197 33.5404 21.6382C33.5396 21.8022 33.5282 21.9654 33.5168 22.1286C33.5044 22.3074 33.492 22.4864 33.4933 22.6662C33.4971 23.1497 33.5187 23.6334 33.5403 24.1169C33.5531 24.4028 33.5659 24.6892 33.5749 24.9749C33.6058 26.1682 33.6214 27.3618 33.6216 28.5557C33.6241 28.8149 33.6311 29.0741 33.6381 29.3334C33.6492 29.7458 33.6603 30.1586 33.6533 30.5713C33.5012 30.5761 33.349 30.5716 33.1968 30.567C33.1077 30.5644 33.0184 30.5618 32.9293 30.561L31.0288 30.5432L24.4249 30.5231L3.39094 30.592C3.42876 30.1609 3.42684 29.7221 3.42493 29.2874C3.42455 29.1992 3.42416 29.1112 3.42411 29.0235L3.42357 26.8833L3.44154 20.7047ZM31.8889 2.82034C31.8956 2.81901 31.8989 2.81835 31.902 2.819C31.905 2.81965 31.9078 2.8216 31.9133 2.82548C31.9174 2.82836 31.923 2.8323 31.9313 2.83755C31.9474 2.94148 31.9407 3.05278 31.9342 3.1618C31.9313 3.20864 31.9286 3.25506 31.9276 3.30028C31.9241 3.57408 31.9221 3.8479 31.9216 4.12172C31.764 4.1374 31.5996 4.1366 31.4374 4.1358C31.3686 4.13547 31.3 4.13513 31.2327 4.13607C30.8321 4.14158 30.4312 4.14123 30.0304 4.14089C29.8767 4.14075 29.723 4.14062 29.5694 4.14082L27.8583 4.12813C27.749 4.12812 27.6393 4.12869 27.5295 4.12925C26.988 4.13202 26.441 4.13483 25.9058 4.0695L25.9006 4.06793L25.8938 4.066C25.8785 4.06174 25.8653 4.05807 25.853 4.04474C25.748 3.93208 25.766 3.31332 25.7753 2.98812C25.7772 2.92434 25.7787 2.87184 25.7789 2.83668C25.9127 2.84705 26.049 2.84206 26.1849 2.83707C26.2575 2.83441 26.33 2.83175 26.4018 2.83145L27.7556 2.83053C28.1403 2.83054 28.525 2.83147 28.9097 2.83242C29.896 2.83483 30.8824 2.83723 31.868 2.82399C31.8775 2.82259 31.884 2.82129 31.8889 2.82034ZM18.9748 2.78982C18.848 2.78671 18.7147 2.78343 18.5987 2.80368C18.2692 2.81535 17.9389 2.81248 17.6087 2.80962C17.3594 2.80746 17.1101 2.8053 16.8612 2.80939C14.0867 2.83674 11.3121 2.84302 8.5374 2.82823L6.32842 2.82861C6.20819 2.82861 6.08732 2.82722 5.9662 2.82582C5.68066 2.82251 5.39378 2.8192 5.11082 2.83414C5.10995 2.96119 5.10739 3.08931 5.10483 3.21784C5.09872 3.52453 5.09254 3.83356 5.10906 4.13589C5.29891 4.14886 5.4906 4.1487 5.68164 4.14853C5.74802 4.14847 5.81444 4.14842 5.88056 4.1489C6.28955 4.15462 6.69856 4.15724 7.10759 4.15675L10.7716 4.16026L15.7052 4.12424C17.842 4.13626 19.9788 4.13627 22.1156 4.1243C22.3508 4.12115 22.5861 4.10996 22.8213 4.09877C22.9952 4.09051 23.169 4.08224 23.3428 4.07722C23.463 4.07374 23.5836 4.07408 23.7043 4.07442C23.8544 4.07485 24.0044 4.07527 24.1537 4.06835L24.1752 4.06757C24.2194 4.06619 24.2685 4.06466 24.3026 4.03997C24.3718 3.79063 24.3313 3.08556 24.2967 2.80731L20.1595 2.79154L19.1118 2.79203C19.0678 2.79212 19.0217 2.79099 18.9748 2.78982ZM15.2506 27.7159C15.4517 27.6991 15.6578 27.7017 15.8621 27.7042C15.9392 27.7051 16.016 27.7061 16.0922 27.706L17.5804 27.7046L22.6167 27.7054L28.5903 27.702C29.3161 27.6972 30.042 27.701 30.7678 27.7133C30.8651 27.7147 30.9628 27.7148 31.0607 27.7148C31.3356 27.7149 31.6116 27.715 31.8836 27.7458C31.8695 27.9617 31.8745 28.1778 31.8795 28.3939C31.884 28.5912 31.8885 28.7886 31.8786 28.9857L21.5692 28.9991L15.6648 29.0007C14.3256 29.0226 12.9865 29.0327 11.6472 29.0314C11.2674 29.0276 10.8875 29.023 10.5074 29.0183C9.05631 29.0005 7.60308 28.9826 6.15382 29.0173C6.03929 29.02 5.92065 29.0166 5.8008 29.0131C5.54372 29.0058 5.28104 28.9982 5.0414 29.0506C5.06833 28.7852 5.06461 28.5115 5.06091 28.2391C5.05868 28.0754 5.05646 27.9122 5.06089 27.7515C5.26968 27.7563 5.47765 27.751 5.68547 27.7457C5.86456 27.741 6.04384 27.7365 6.22308 27.7384C6.3382 27.7397 6.45321 27.744 6.56826 27.7484C6.69248 27.7531 6.81708 27.7578 6.94152 27.7586C8.03129 27.762 9.121 27.7555 10.2106 27.7391L15.2506 27.7159ZM29.5569 5.74262C29.3452 5.74539 29.1336 5.74818 28.922 5.74767C28.7872 5.75106 28.6546 5.7551 28.5208 5.77326C28.0339 6.13142 27.688 6.52981 27.3006 6.97598L27.2416 7.0439C27.1703 7.12601 27.098 7.20708 27.0258 7.28817C26.9314 7.39417 26.8369 7.50025 26.7444 7.60865C26.6996 7.66129 26.6522 7.71185 26.6048 7.76249C26.5188 7.85425 26.4328 7.94593 26.362 8.04985L26.348 8.07041L26.3397 8.08297C26.3448 8.15585 26.3508 8.22881 26.3567 8.30177C26.3732 8.50473 26.3897 8.70785 26.3876 8.91137C26.3854 9.13161 26.3727 9.35161 26.36 9.57153C26.3456 9.82281 26.3311 10.0741 26.332 10.3258L26.3539 10.3174C26.539 10.2435 26.7169 10.1297 26.8799 10.0157C26.9214 9.98673 27.0041 9.91985 27.1047 9.83841C27.3684 9.62497 27.7549 9.31241 27.8413 9.32513C27.8432 9.32841 27.8454 9.33161 27.8475 9.33481C27.8517 9.34121 27.856 9.34761 27.8586 9.35481C27.8704 9.38785 27.8566 9.58025 27.8465 9.72081C27.8421 9.78233 27.8384 9.83401 27.8378 9.85801C27.8297 10.205 27.8319 10.5532 27.8341 10.901C27.835 11.052 27.836 11.2036 27.8361 11.3543L27.8372 20.3484L27.8364 23.284C27.8364 23.432 27.8356 23.5802 27.8347 23.7286V23.7294C27.832 24.1831 27.8294 24.6378 27.85 25.0901C27.8504 25.1747 27.8515 25.2597 27.8526 25.3448C27.8556 25.5805 27.8587 25.8171 27.8464 26.0513C28.356 26.0351 28.8659 26.029 29.3759 26.0328C29.4494 26.0327 29.5243 26.0334 29.6 26.0342C29.9023 26.0373 30.2168 26.0404 30.506 25.9872C30.5164 25.6011 30.5097 25.2142 30.5031 24.8272C30.4988 24.5742 30.4944 24.3211 30.4948 24.0685C30.5097 22.6512 30.5144 21.2338 30.5088 19.8165L30.5281 9.68881L30.5093 6.73705C30.5087 6.60565 30.5052 6.47384 30.5017 6.34197C30.4964 6.14137 30.4912 5.94046 30.4959 5.7409C30.1831 5.73439 29.87 5.7385 29.5569 5.74262ZM28.79 22.1929C28.8331 22.1287 28.9012 22.107 28.9732 22.0954C28.9944 22.0954 29.018 22.0947 29.0433 22.0939C29.1767 22.0899 29.3538 22.0846 29.4334 22.1806C29.4801 22.2371 29.4803 22.3204 29.4646 22.3884C29.444 22.477 29.3938 22.5204 29.3182 22.5643L29.3015 22.565C29.1612 22.5706 29.0307 22.5758 28.9049 22.5015C28.8434 22.4653 28.7721 22.395 28.7611 22.3208C28.754 22.2713 28.7621 22.2343 28.79 22.1929ZM28.8511 23.3606C28.8939 23.2957 28.9713 23.274 29.0424 23.2573C29.1297 23.2545 29.2183 23.262 29.2992 23.2978C29.372 23.33 29.4473 23.3905 29.475 23.4674C29.4912 23.5125 29.489 23.5576 29.467 23.6003C29.4264 23.6796 29.3496 23.717 29.27 23.7467C29.2092 23.7499 29.1477 23.7474 29.0866 23.7449C29.0683 23.7441 29.0499 23.7434 29.0316 23.7427C28.9345 23.688 28.8524 23.6317 28.824 23.5177C28.8094 23.4593 28.8174 23.4115 28.8511 23.3606ZM28.956 21.0522C28.9172 20.9785 28.9035 20.9342 28.9276 20.8541C28.9849 20.8464 29.0543 20.8375 29.1099 20.857C29.1702 20.8783 29.2258 20.9255 29.249 20.986C29.2808 21.0686 29.2603 21.1612 29.226 21.2391C29.2008 21.2436 29.1764 21.248 29.1508 21.2426C29.0701 21.2251 28.9916 21.1202 28.956 21.0522ZM11.4794 5.7197C11.5884 5.71664 11.6973 5.71426 11.8063 5.71256C12.3069 5.70666 12.7246 6.11838 13.0637 6.45277L13.0832 6.4719C13.4374 6.82098 13.9736 7.44665 14.1034 7.93137C14.1654 8.16273 14.1402 8.88425 14.1227 9.38841C14.1171 9.54929 14.1122 9.68809 14.1112 9.78169L14.1091 12.6461C14.1096 12.8671 14.1215 13.0875 14.1334 13.3078C14.1447 13.5159 14.1559 13.724 14.1575 13.9326C13.9 14.3589 12.9716 15.1273 12.5661 15.461C12.7443 15.6104 12.9135 15.7762 13.0812 15.9405C13.1365 15.9947 13.1917 16.0488 13.247 16.1021C13.4914 16.3375 13.9703 16.8261 14.0716 17.1506C14.136 17.3573 14.1201 18.4215 14.1101 19.0851C14.1073 19.2741 14.1049 19.4306 14.1051 19.5254L14.1332 23.8389C14.1364 24.1768 14.0138 24.3072 13.7826 24.5361C13.7369 24.5813 13.6864 24.6318 13.6319 24.6863C13.1953 25.123 12.5077 25.8106 12.0546 26.0188C12.0111 26.0387 11.9682 26.0488 11.9205 26.0526C11.7488 26.0658 11.5731 26.0624 11.398 26.059C11.286 26.0568 11.1741 26.0546 11.0637 26.0568C10.1887 26.0726 9.31357 26.0788 8.43838 26.0753H8.38985C8.2777 26.0756 8.15005 26.0759 8.04755 26.0425C7.94985 26.0106 7.85128 25.9439 7.76197 25.8834C7.74475 25.8718 7.72787 25.8603 7.71141 25.8494C7.26238 25.5517 6.86383 25.2247 6.4845 24.8423L6.46755 24.8252C6.24476 24.6009 5.99624 24.3507 5.89084 24.047C5.81119 23.8174 5.82533 23.2694 5.83554 22.8741C5.83841 22.7629 5.84097 22.6638 5.84104 22.5872L5.85486 20.1958C6.35583 20.1754 6.86943 20.1806 7.38237 20.1857C7.76365 20.1894 8.14464 20.1933 8.51974 20.1866C8.51278 20.5031 8.51351 20.8199 8.51423 21.1367C8.5155 21.6932 8.51677 22.2497 8.47644 22.8049C8.47491 22.8289 8.47299 22.8533 8.47104 22.8778C8.46159 22.9974 8.45171 23.1223 8.4845 23.2358C8.50025 23.2905 8.52694 23.3482 8.58026 23.3733C8.65664 23.409 8.75911 23.4141 8.84313 23.4155C9.14161 23.4204 9.44061 23.4136 9.73973 23.4068C10.0445 23.3998 10.3495 23.393 10.6541 23.3984C10.7037 23.3993 10.7767 23.4055 10.8588 23.4126C11.0574 23.4295 11.3086 23.4509 11.4061 23.4122L11.4076 23.4105C11.4402 23.375 11.4621 23.3512 11.4657 23.2996C11.4737 23.1884 11.4629 23.0671 11.4524 22.9471C11.4453 22.867 11.4383 22.7876 11.4369 22.712L11.4205 21.2263C11.4154 20.9192 11.4205 20.613 11.4255 20.3067C11.4285 20.1263 11.4315 19.9459 11.4324 19.7653L11.4329 19.6566C11.4371 18.8058 11.4413 17.9511 11.5034 17.1027C11.4143 17.0951 11.3228 17.0958 11.2318 17.0964C11.1813 17.0968 11.1308 17.0971 11.0809 17.0961C10.726 17.0886 10.3723 17.0813 10.0172 17.0801C9.78925 17.0793 9.56165 17.0754 9.33397 17.0715C9.02826 17.0663 8.72256 17.0611 8.41636 17.0635C8.43141 16.8222 8.43263 16.5816 8.43384 16.3406C8.43446 16.2186 8.43507 16.0964 8.43749 15.9742C8.4553 15.3583 8.46537 14.7424 8.46769 14.1264C8.57989 14.1314 8.69193 14.1394 8.80399 14.1474C8.93439 14.1568 9.06479 14.1662 9.1955 14.1707C9.42501 14.1787 9.65549 14.1774 9.88573 14.1762C10.0112 14.1754 10.1369 14.1747 10.2621 14.1755C10.3752 14.1762 10.4881 14.1802 10.6011 14.1842C10.7187 14.1884 10.8365 14.1926 10.9542 14.193L10.9748 14.1816C11.1573 14.079 11.393 13.8978 11.4595 13.6934C11.5057 13.5514 11.4809 13.3244 11.4584 13.1194C11.4473 13.019 11.4369 12.924 11.4357 12.8467C11.4209 11.6582 11.4246 10.4696 11.4471 9.28113C11.4497 9.18617 11.4487 9.08905 11.4477 8.99113C11.445 8.72001 11.4422 8.44289 11.5153 8.18769C11.2061 8.29049 10.5407 8.27673 10.0591 8.26681C9.93621 8.26433 9.82525 8.26201 9.73525 8.26193C9.62661 8.26193 9.51717 8.26393 9.40757 8.26593C9.21599 8.26945 9.02387 8.27305 8.83477 8.26561C8.78305 8.26353 8.73201 8.25537 8.68097 8.24721C8.6211 8.23769 8.56123 8.22809 8.50031 8.22841C8.47728 8.27177 8.49285 8.47377 8.50496 8.63089C8.51046 8.70217 8.51524 8.76425 8.51538 8.79801C8.51655 9.07521 8.52076 9.35321 8.52499 9.63145C8.53363 10.1998 8.54228 10.7693 8.5249 11.335C8.0033 11.3679 7.4812 11.3819 6.9586 11.377C6.85244 11.3762 6.74263 11.3708 6.63147 11.3654C6.3544 11.3518 6.06884 11.3377 5.81016 11.3922C5.87479 10.8001 5.86814 10.1952 5.86155 9.59521C5.85953 9.41193 5.85752 9.22905 5.85755 9.04721C5.85756 8.97953 5.85556 8.89489 5.85335 8.80073C5.84515 8.45225 5.8339 7.97433 5.90979 7.75073C6.01157 7.45081 6.38182 6.99521 6.60065 6.75806C6.89574 6.43829 7.53577 5.92496 7.96233 5.79418C8.2384 5.70956 8.81551 5.72372 9.24216 5.73418C9.36069 5.7371 9.46765 5.73971 9.55325 5.73986C10.1955 5.74717 10.8376 5.74045 11.4794 5.7197ZM9.87045 6.70485L9.85861 6.71021C9.79661 6.73811 9.72829 6.7689 9.69765 6.8328C9.68717 6.85452 9.69109 6.86953 9.69605 6.88874C9.69741 6.89403 9.69885 6.89965 9.70013 6.90581C9.75325 6.97192 9.84621 7.02048 9.93069 7.03127C9.98973 7.03882 10.0516 7.03711 10.1113 7.03546L10.1237 7.03513C10.1761 7.01818 10.2359 6.99321 10.2665 6.94376C10.2873 6.91031 10.291 6.87878 10.2742 6.84207C10.2468 6.78208 10.1451 6.72289 10.0831 6.70751C10.0173 6.69119 9.93981 6.6984 9.87253 6.70465L9.87045 6.70485ZM9.80181 24.6307C9.78493 24.631 9.76637 24.6307 9.74693 24.6305C9.65605 24.6291 9.54461 24.6275 9.48237 24.6826C9.46285 24.7 9.46285 24.7002 9.46301 24.7159C9.46309 24.7206 9.46309 24.7269 9.46269 24.7354C9.56661 24.8194 10.0071 24.8166 10.1495 24.8139C10.185 24.8037 10.2207 24.7938 10.2565 24.7838C10.3408 24.7604 10.4252 24.7369 10.5082 24.7102C10.275 24.6375 10.0445 24.6284 9.80181 24.6307ZM23.1238 6.30877C22.4956 5.73694 22.3599 5.66046 21.5264 5.69425C21.0912 5.71279 20.6532 5.7301 20.2174 5.73214C20.1238 5.73258 19.9798 5.73018 19.81 5.72734C19.239 5.71782 18.3755 5.70341 18.1495 5.77573C17.6689 5.9295 17.0107 6.48659 16.6692 6.85769C16.5156 7.02462 16.0552 7.73401 16.018 7.94081C15.9915 8.08769 15.9941 8.24297 15.9967 8.39465C15.9974 8.43745 15.9981 8.48001 15.9982 8.52201C15.9986 8.80777 15.9974 9.09353 15.9947 9.37921C15.9707 10.7589 15.9475 12.1346 15.9493 13.5148L15.966 21.1771C15.9689 21.4773 15.9674 21.778 15.9659 22.0789C15.9632 22.6034 15.9606 23.1284 15.9814 23.6511C16.0033 24.2028 16.4208 24.653 16.8087 25.0063C17.1154 25.2857 17.8648 25.9358 18.2616 26.031C18.3818 26.0599 18.5189 26.0552 18.6484 26.0508C18.6846 26.0496 18.7202 26.0484 18.7547 26.0479C19.5991 26.0489 20.4435 26.0448 21.2877 26.0358C21.3866 26.0339 21.487 26.0357 21.5876 26.0375C21.7543 26.0405 21.9216 26.0434 22.0841 26.03C22.1584 26.0237 22.229 25.9963 22.2966 25.9666C22.7466 25.7673 23.7318 24.802 24.0988 24.4326C24.1666 24.3643 24.2304 24.2936 24.2944 24.2227C24.3299 24.1834 24.3654 24.1442 24.4016 24.1052C24.5031 23.996 24.4888 23.7089 24.4811 23.5508C24.4805 23.541 24.4801 23.5318 24.4797 23.523C24.4146 22.1513 24.4301 20.7722 24.4457 19.3965C24.4501 19.0086 24.4544 18.621 24.457 18.2339L24.4632 13.0437L24.4975 9.33241C24.4975 9.25897 24.4996 9.16241 24.5018 9.05353C24.51 8.66137 24.5216 8.10897 24.456 7.89825C24.3436 7.53801 23.426 6.5839 23.1238 6.30877ZM18.6992 10.4907C18.7238 9.71713 18.7486 8.93801 18.6497 8.17833C18.6604 8.18257 18.6712 8.18665 18.6819 8.19065C18.6937 8.19521 18.7056 8.19969 18.7174 8.20433C18.9987 8.31577 21.0488 8.28057 21.4708 8.25377C21.5213 8.25049 21.5709 8.24137 21.6205 8.23225C21.6599 8.22505 21.6993 8.21777 21.7394 8.21345L21.7523 8.22897C21.688 8.43049 21.6944 9.37305 21.698 9.89777C21.6988 10.0194 21.6995 10.1186 21.6991 10.1808L21.6949 15.3482L21.6841 23.3224C21.632 23.366 21.5713 23.399 21.5032 23.408C21.3711 23.4257 21.2244 23.4126 21.0813 23.3998C21.0063 23.3931 20.9323 23.3865 20.862 23.3845C20.3812 23.3705 19.8853 23.3626 19.406 23.4005C19.3729 23.4031 19.335 23.4078 19.2944 23.4129C19.1314 23.4332 18.9259 23.4589 18.82 23.3726C18.7096 23.2823 18.6868 23.1216 18.6712 22.9862C18.6398 22.7134 18.6456 22.4229 18.6512 22.1384C18.6534 22.0251 18.6556 21.9127 18.6555 21.8029L18.6583 19.4275L18.6775 11.4426C18.6788 11.1274 18.689 10.8096 18.6992 10.4907ZM22.5956 15.8534C22.6703 15.7306 22.7172 15.6864 22.8488 15.6267C22.854 15.6262 22.8592 15.6258 22.8644 15.6252C22.9706 15.6147 23.0776 15.6042 23.1832 15.6267C23.2984 15.6515 23.4071 15.7125 23.4668 15.8173C23.5627 15.9851 23.51 16.2455 23.4565 16.4224C23.4173 16.5516 23.3724 16.6574 23.2496 16.7221C23.1359 16.7461 23.0266 16.7402 22.9113 16.7339C22.9057 16.7304 22.9 16.7269 22.8943 16.7234C22.8452 16.6933 22.7944 16.6621 22.7568 16.6187C22.5807 16.4156 22.5808 16.1062 22.5956 15.8534ZM22.6027 14.1458C22.6466 14.0172 22.7572 13.9531 22.8723 13.8974C22.9929 13.8845 23.1263 13.8743 23.2412 13.9211C23.328 13.9565 23.3992 14.017 23.4346 14.1053C23.4729 14.201 23.4667 14.318 23.4243 14.4114C23.37 14.531 23.2908 14.609 23.1684 14.6511C23.0872 14.6514 23.0123 14.6453 22.9344 14.6213C22.8082 14.5825 22.6825 14.4994 22.6224 14.3786C22.5863 14.3063 22.5762 14.2229 22.6027 14.1458ZM16.9504 13.8477C16.9751 13.7435 17.0155 13.6926 17.1044 13.6358C17.1641 13.628 17.2271 13.6262 17.2872 13.63C17.4196 13.6384 17.5618 13.7082 17.6473 13.8099C17.7052 13.8788 17.7394 13.9669 17.726 14.0574C17.7092 14.1721 17.642 14.2505 17.554 14.3198C17.4724 14.3488 17.3886 14.361 17.3028 14.3439C17.2954 14.3425 17.288 14.3409 17.2805 14.339C17.2732 14.3373 17.2658 14.3353 17.2585 14.3331C17.2512 14.331 17.244 14.3286 17.2368 14.3261C17.2296 14.3236 17.2224 14.3209 17.2154 14.318C17.2084 14.3151 17.2014 14.3121 17.1945 14.3089C17.1876 14.3057 17.1808 14.3022 17.174 14.2987C17.1673 14.2951 17.1608 14.2914 17.1542 14.2874C17.1476 14.2836 17.1412 14.2795 17.1348 14.2753C17.1285 14.271 17.1223 14.2667 17.1162 14.2622C17.1101 14.2576 17.1041 14.253 17.0982 14.2481C17.0923 14.2433 17.0866 14.2383 17.0809 14.2332C17.0753 14.2281 17.0698 14.2228 17.0645 14.2174C17.0613 14.2142 17.0582 14.211 17.0552 14.2078C17.053 14.2055 17.0508 14.2032 17.0488 14.2008C17.0436 14.1951 17.0387 14.1894 17.0339 14.1834C17.0291 14.1775 17.0244 14.1715 17.02 14.1654C17.0155 14.1592 17.0111 14.153 17.0069 14.1466C16.9492 14.0576 16.9256 13.9516 16.9504 13.8477ZM19.8376 6.80674C19.885 6.6709 19.9307 6.62105 20.058 6.56311C20.2183 6.54673 20.3966 6.5386 20.5461 6.60662C20.6284 6.64403 20.7094 6.71187 20.7385 6.80021C20.7555 6.85121 20.7499 6.89965 20.722 6.94524C20.6836 7.00808 20.6068 7.03211 20.5388 7.04118C20.3985 7.05981 20.2613 7.06995 20.12 7.05577C20.0305 7.04681 19.8974 7.0284 19.8442 6.9453C19.8165 6.90209 19.8214 6.85309 19.8376 6.80674ZM20.1742 24.5898C20.1932 24.5885 20.2112 24.5872 20.2276 24.5855C20.2946 24.5714 20.3816 24.5798 20.4497 24.5864C20.5128 24.5926 20.5887 24.6142 20.6268 24.6686C20.6404 24.6878 20.6372 24.6971 20.6316 24.7127C20.63 24.7173 20.6281 24.7223 20.6264 24.7283C20.5417 24.7938 20.4479 24.7936 20.3477 24.7934C20.3339 24.7934 20.32 24.7934 20.306 24.7935C20.2887 24.7937 20.2712 24.7942 20.2534 24.7947C20.1295 24.7982 19.9967 24.8018 19.9001 24.7152C19.8996 24.7096 19.8988 24.705 19.898 24.7007C19.8956 24.6862 19.8942 24.6784 19.9097 24.6631C19.9698 24.6042 20.0828 24.5962 20.1742 24.5898Z" fill="white"/>
</svg>
