<svg width="116" height="32" viewBox="0 0 116 32" fill="none" xmlns="http://www.w3.org/2000/svg">
<path fill-rule="evenodd" clip-rule="evenodd" d="M8.68766 28.0349C8.81819 26.1624 12.3052 24.8824 16.4738 25.1765C20.6415 25.4708 23.9144 27.227 23.7843 29.0993C23.6539 30.9718 20.1685 32.2518 16.0002 31.9577C11.8323 31.6635 8.55813 29.9072 8.68766 28.0349ZM24.091 17.2966C25.0712 12.9467 27.9066 9.88534 30.424 10.4597C32.9414 11.0346 34.1874 15.0277 33.2072 19.3776C32.2271 23.7272 29.3924 26.7882 26.8752 26.2146C24.3578 25.6398 23.1108 21.6466 24.091 17.2966ZM74.8205 10.9255C77.9885 10.9255 80.5568 13.4938 80.5568 16.6618V19.0915C80.5565 22.2592 77.9883 24.8269 74.8205 24.8269H74.1466C70.9789 24.8269 68.4106 22.2592 68.4103 19.0915V16.6618C68.4103 13.494 70.9779 10.9257 74.1457 10.9255H74.8205ZM110.079 10.9157C110.717 10.9157 111.28 10.966 111.767 11.0661C112.27 11.1495 112.723 11.283 113.126 11.4665C113.529 11.6333 113.898 11.8501 114.234 12.1169C114.57 12.3672 114.898 12.6514 115.217 12.9685L113.327 14.8454C112.941 14.445 112.48 14.1114 111.943 13.8444C111.405 13.5775 110.818 13.444 110.18 13.444C109.475 13.4441 108.963 13.5688 108.644 13.819C108.342 14.0693 108.191 14.3952 108.191 14.7956C108.191 15.2294 108.317 15.563 108.569 15.7966C108.837 16.0134 109.282 16.1721 109.903 16.2722L111.237 16.447C114.074 16.8474 115.493 18.1332 115.493 20.3024C115.493 20.9364 115.359 21.5205 115.09 22.0544C114.838 22.5715 114.478 23.0222 114.008 23.406C113.538 23.773 112.967 24.0651 112.295 24.2819C111.641 24.4821 110.902 24.5817 110.079 24.5817C108.82 24.5817 107.763 24.3738 106.906 23.9567C106.05 23.5229 105.295 22.9303 104.64 22.1794L106.604 20.2771C107.091 20.8277 107.62 21.2618 108.191 21.5788C108.778 21.8958 109.45 22.0544 110.205 22.0544C110.977 22.0544 111.531 21.9209 111.867 21.654C112.22 21.3871 112.396 21.0196 112.396 20.5524C112.396 20.1687 112.27 19.868 112.019 19.6511C111.783 19.4175 111.372 19.2589 110.784 19.1755L109.475 19.0007C108.048 18.8171 106.957 18.4159 106.201 17.7985C105.463 17.1645 105.093 16.247 105.093 15.0456C105.093 14.4116 105.21 13.844 105.445 13.3435C105.68 12.8262 106.017 12.3921 106.453 12.0417C106.89 11.6749 107.41 11.4 108.014 11.2165C108.635 11.0163 109.324 10.9157 110.079 10.9157ZM63.8371 11.2155H66.5324V13.7692H63.8371V21.7282H66.3302V24.2819H64.0138C62.9058 24.2819 62.0575 23.9977 61.4699 23.4304C60.8993 22.8464 60.6145 22.0205 60.6144 20.9528V13.7692H58.675V11.2155H59.6828C60.1693 11.2155 60.4964 11.1071 60.6642 10.8903C60.8489 10.6567 60.9416 10.3145 60.9416 9.86397V7.63643H63.8371V11.2155ZM98.175 10.9157C99.4675 10.9157 100.458 11.3578 101.147 12.2419C101.852 13.1263 102.204 14.3869 102.204 16.0222V24.2819H98.9816V16.3474C98.9816 14.4786 98.2763 13.5439 96.8664 13.5437C96.5474 13.5437 96.2359 13.5939 95.9338 13.694C95.6485 13.7775 95.3884 13.911 95.1535 14.0944C94.9354 14.2612 94.7594 14.4781 94.6252 14.7448C94.4909 14.9951 94.423 15.2958 94.423 15.6462V24.2819H91.2004V16.3474C91.2004 14.4786 90.4949 13.5439 89.0851 13.5437C88.7829 13.5437 88.4801 13.5939 88.1779 13.694C87.8926 13.7774 87.6326 13.911 87.3976 14.0944C87.1795 14.2613 86.994 14.4779 86.8429 14.7448C86.7087 14.9951 86.6418 15.2958 86.6418 15.6462V24.2819H83.4191V11.2165H86.6418V13.3933H86.7677C87.0196 12.7093 87.4228 12.1251 87.9767 11.6413C88.5307 11.1576 89.3029 10.9158 90.2931 10.9157C91.1994 10.9157 91.9803 11.1325 92.6349 11.5661C93.2896 11.9999 93.7769 12.6594 94.0959 13.5437H94.1466C94.3817 12.8096 94.8433 12.1926 95.5314 11.6921C96.2364 11.1749 97.1175 10.9158 98.175 10.9157ZM57.8888 24.281H54.4386L53.0285 19.8259H46.7834L45.3976 24.281H42.0236L47.9162 6.81026H52.0461L57.8888 24.281ZM2.74333 8.59151C5.71634 2.47228 11.4603 -0.848743 15.5715 1.17452C19.6823 3.19836 20.6039 9.80131 17.631 15.9206C14.6579 22.0391 8.91571 25.3595 4.80485 23.3366C0.693881 21.313 -0.229681 14.7109 2.74333 8.59151ZM74.4836 13.4216C72.9182 13.4216 71.6486 14.6912 71.6486 16.2565V19.4958C71.6487 21.0611 72.9183 22.3298 74.4836 22.3298C76.0488 22.3298 77.3184 21.0611 77.3185 19.4958V16.2565C77.3185 14.6912 76.0489 13.4216 74.4836 13.4216ZM47.589 16.9978H52.2228L49.9562 9.81416H49.8302L47.589 16.9978ZM20.0646 0.405961C20.6995 -0.548297 23.5258 0.237243 26.3781 2.15987C29.2293 4.08184 31.0274 6.41196 30.3947 7.3669C29.7598 8.32112 26.9324 7.53723 24.0802 5.61495C21.2286 3.69263 19.4308 1.36057 20.0646 0.405961Z" fill="white"/>
</svg>
