<svg width="110" height="32" viewBox="0 0 110 32" fill="none" xmlns="http://www.w3.org/2000/svg">
<path fill-rule="evenodd" clip-rule="evenodd" d="M57.5254 2.00178C57.7917 2.0063 58.1843 2.02668 58.3978 2.04479C58.6113 2.06516 58.9075 2.09685 59.0522 2.11723C59.1968 2.1376 59.4402 2.17835 59.5917 2.20778C59.7432 2.23721 59.9292 2.27569 60.005 2.2938C60.0807 2.30965 60.2254 2.34587 60.3264 2.3753C60.4274 2.40246 60.6294 2.46358 60.7741 2.51112C60.9187 2.55866 61.0909 2.61752 61.1529 2.64242C61.2172 2.66506 61.3343 2.7126 61.4169 2.74882C61.4996 2.78277 61.6534 2.85295 61.7613 2.90502C61.8692 2.95708 62.0184 3.03405 62.0942 3.07706C62.17 3.11781 62.2985 3.19252 62.3812 3.24232C62.4638 3.29212 62.5924 3.37362 62.6682 3.42342C62.7439 3.47322 62.8105 3.52076 62.8174 3.52982C62.8243 3.53661 62.8748 3.57509 62.9322 3.61358C62.9896 3.6498 63.0516 3.69507 63.07 3.71318C63.0883 3.73129 63.2031 3.82863 63.3225 3.9305C63.4419 4.03237 63.6095 4.18404 63.6921 4.27007C63.7748 4.35383 63.9057 4.49644 63.9814 4.58247C64.0572 4.66849 64.1812 4.82243 64.2569 4.92203C64.3327 5.02164 64.4544 5.19595 64.5301 5.30687C64.6036 5.4178 64.6771 5.53098 64.6909 5.55588C64.7046 5.58079 64.7735 5.70303 64.8447 5.82754C64.9136 5.95204 64.9916 6.09919 65.0169 6.15578C65.0398 6.21238 65.088 6.31425 65.1179 6.38216C65.15 6.45007 65.2028 6.57231 65.235 6.65381C65.2671 6.73531 65.3452 6.95489 65.4072 7.14052C65.4692 7.32841 65.5403 7.56158 65.5679 7.66118C65.5931 7.76079 65.6299 7.90794 65.6482 7.98943C65.6666 8.07093 65.6987 8.21807 65.7194 8.31768C65.7378 8.41728 65.7699 8.59612 65.7883 8.71383C65.8067 8.83155 65.8319 9.01491 65.8457 9.12131C65.8572 9.22771 65.8847 9.61934 65.9054 9.99286C65.9398 10.6063 65.9398 10.7444 65.9077 11.419C65.8893 11.8288 65.8686 12.1842 65.8618 12.2068C65.848 12.243 65.5174 12.2453 52.7844 12.2453L52.7982 12.3766C52.8051 12.4468 52.828 12.5622 52.8464 12.6301C52.8648 12.6981 52.9015 12.8248 52.9268 12.9131C52.952 13.0014 52.9818 13.0829 52.9933 13.0942C53.0048 13.1055 53.014 13.1304 53.014 13.1463C53.014 13.1599 53.0668 13.2776 53.1311 13.4066C53.1954 13.5334 53.3171 13.7394 53.3997 13.8639C53.5053 14.0201 53.6477 14.1831 53.852 14.3846C54.0701 14.5974 54.2239 14.7264 54.4145 14.8509C54.5591 14.946 54.752 15.0614 54.8392 15.1067C54.9265 15.1542 55.0619 15.2176 55.1377 15.2493C55.2134 15.281 55.3282 15.3286 55.3902 15.3512C55.4545 15.3738 55.5463 15.4078 55.5969 15.4259C55.6474 15.4417 55.7668 15.4757 55.8609 15.5006C55.955 15.5278 56.0997 15.564 56.1823 15.5821C56.265 15.6002 56.4188 15.6319 56.5267 15.65C56.6346 15.6704 56.9032 15.6998 57.1236 15.7202C57.344 15.7383 57.6195 15.7541 57.732 15.7541C57.8445 15.7541 58.1086 15.7383 58.3175 15.7202C58.5264 15.7021 58.7904 15.6726 58.9029 15.6523C59.0154 15.6342 59.1876 15.6025 59.2817 15.5821C59.3759 15.5617 59.5159 15.5323 59.5917 15.5142C59.6675 15.4961 59.7868 15.4644 59.8557 15.444C59.9246 15.4259 60.0348 15.3942 60.0968 15.3761C60.1611 15.3557 60.2368 15.3308 60.269 15.3195C60.3011 15.3082 60.3884 15.2765 60.4641 15.2516C60.5399 15.2267 60.6432 15.1882 60.6937 15.1656C60.7442 15.1452 60.8728 15.0863 60.9807 15.0411C61.0886 14.9935 61.2746 14.8984 61.394 14.8305C61.5133 14.7626 61.6488 14.6811 61.6924 14.6472C61.736 14.6155 61.8118 14.5634 61.8577 14.5317C61.9059 14.5 62.0047 14.4163 62.0827 14.3461C62.1585 14.2736 62.2365 14.217 62.2549 14.2216C62.2733 14.2238 62.8771 14.8056 64.9112 16.8068L64.8011 16.9087C64.7391 16.9653 64.6013 17.0898 64.4934 17.1848C64.3855 17.2799 64.211 17.4225 64.1031 17.5018C63.9952 17.581 63.885 17.6602 63.8574 17.6783C63.8322 17.6964 63.7335 17.7621 63.6393 17.8232C63.5475 17.8843 63.435 17.9568 63.3914 17.9839C63.3478 18.0111 63.2858 18.0496 63.2536 18.0677C63.2215 18.0881 63.0263 18.1899 62.8174 18.2941C62.6085 18.4005 62.3445 18.525 62.232 18.5725C62.1195 18.6178 62.0047 18.6653 61.9794 18.6744C61.9542 18.6857 61.883 18.7151 61.8187 18.7423C61.7567 18.7672 61.6878 18.7876 61.6695 18.7876C61.6488 18.7876 61.6236 18.7966 61.6121 18.808C61.5983 18.817 61.5019 18.8555 61.394 18.8895C61.2861 18.9211 61.0955 18.98 60.9692 19.0162C60.843 19.0524 60.6822 19.0977 60.6134 19.1158C60.5445 19.1317 60.4205 19.1634 60.3379 19.1815C60.2552 19.1996 60.1152 19.2313 60.0279 19.2494C59.9407 19.2675 59.7685 19.2969 59.6491 19.3173C59.5297 19.3354 59.3185 19.3671 59.1784 19.3852C59.0384 19.4033 58.7721 19.4328 58.5815 19.4486C58.3932 19.4644 57.98 19.478 57.6631 19.478C57.3486 19.478 56.9239 19.4644 56.7218 19.4486C56.5198 19.4328 56.2351 19.4033 56.0905 19.3852C55.9458 19.3671 55.7277 19.3354 55.6083 19.3173C55.4889 19.2969 55.3168 19.2675 55.2295 19.2494C55.1423 19.2313 55.0114 19.2019 54.9425 19.1837C54.8736 19.1656 54.729 19.1294 54.6211 19.1045C54.5132 19.0773 54.2859 19.0094 54.116 18.9528C53.9461 18.8985 53.7142 18.817 53.5994 18.7717C53.4846 18.7265 53.3767 18.6812 53.3584 18.6721C53.34 18.6631 53.2619 18.6269 53.1862 18.5952C53.1104 18.5612 52.9704 18.4956 52.8762 18.448C52.7821 18.4005 52.6581 18.3348 52.6007 18.3031C52.5433 18.2714 52.4813 18.2375 52.463 18.2284C52.4446 18.2194 52.378 18.1809 52.3137 18.1424C52.2518 18.1039 52.1416 18.036 52.0727 17.9907C52.0038 17.9432 51.8982 17.873 51.8408 17.8323C51.7811 17.7915 51.6479 17.6919 51.5423 17.6104C51.4367 17.5289 51.2875 17.4067 51.2117 17.3388C51.136 17.2709 50.9913 17.1328 50.8903 17.0332C50.7893 16.9336 50.6446 16.7864 50.5689 16.7049C50.4931 16.6234 50.3714 16.4785 50.2934 16.3812C50.2176 16.2816 50.0959 16.1186 50.0225 16.019C49.9513 15.9171 49.8273 15.727 49.7469 15.5957C49.6689 15.4644 49.5816 15.3172 49.5541 15.2674C49.5265 15.2176 49.4737 15.1158 49.4347 15.0411C49.398 14.9663 49.336 14.8396 49.2993 14.7581C49.2625 14.6766 49.1936 14.5136 49.1477 14.3959C49.0995 14.2782 49.0536 14.1604 49.0421 14.1355C49.0329 14.1106 49.0077 14.045 48.9893 13.9884C48.9709 13.9318 48.9388 13.8345 48.9204 13.7733C48.9021 13.71 48.863 13.5787 48.8355 13.4791C48.8079 13.3795 48.7735 13.2414 48.7551 13.1734C48.7391 13.1055 48.7092 12.972 48.6908 12.8792C48.6702 12.7863 48.6403 12.6188 48.6197 12.5056C48.6013 12.3925 48.5692 12.1751 48.5508 12.0189C48.5301 11.8627 48.5049 11.5571 48.4911 11.3398C48.4773 11.1225 48.4681 10.8169 48.4681 10.6607C48.4681 10.5045 48.4842 10.1694 48.5003 9.91363C48.5187 9.65782 48.5439 9.37938 48.56 9.29109C48.5738 9.20281 48.6013 9.03529 48.6197 8.91757C48.638 8.79986 48.6702 8.63234 48.6885 8.54405C48.7092 8.45577 48.7391 8.32899 48.7551 8.26108C48.7735 8.19317 48.824 8.0098 48.8699 7.8536C48.9158 7.6974 49.0031 7.43707 49.0651 7.27634C49.1248 7.11562 49.2074 6.91188 49.2487 6.82359C49.2878 6.73531 49.3819 6.54741 49.4531 6.4048C49.5265 6.26218 49.6528 6.03807 49.7309 5.90677C49.8112 5.77547 49.9237 5.60342 49.9811 5.52193C50.0385 5.44043 50.1372 5.30913 50.1992 5.22764C50.2612 5.14614 50.3852 4.99447 50.4725 4.88807C50.562 4.78168 50.7548 4.57794 50.8995 4.43306C51.0464 4.29044 51.2576 4.09576 51.3724 4.00294C51.4872 3.91013 51.6571 3.77657 51.7513 3.70865C51.8454 3.63848 52.0153 3.52076 52.1301 3.44606C52.2449 3.37135 52.4561 3.24232 52.6007 3.16309C52.7454 3.08159 52.9635 2.97067 53.0829 2.91407C53.2022 2.85748 53.3584 2.7873 53.4272 2.76014C53.4961 2.73297 53.5742 2.70128 53.5994 2.68996C53.6247 2.68091 53.6867 2.656 53.7372 2.63563C53.7877 2.61526 53.953 2.5564 54.1045 2.5066C54.2561 2.45679 54.5132 2.38209 54.6785 2.33908C54.8438 2.29833 55.1055 2.23947 55.264 2.20778C55.4224 2.17835 55.6588 2.1376 55.792 2.11949C55.9252 2.09912 56.1571 2.07195 56.3086 2.05611C56.4601 2.04026 56.6874 2.02215 56.8137 2.01083C56.9399 2.00178 57.2591 1.99725 57.5254 2.00178ZM56.4923 5.7234C56.4165 5.73699 56.2764 5.76642 56.1823 5.78453C56.0882 5.8049 55.9642 5.83433 55.9068 5.85244C55.8494 5.86828 55.7369 5.9045 55.6543 5.93167C55.5716 5.95883 55.4637 5.99505 55.4132 6.01316C55.3627 6.03127 55.1974 6.10824 55.0458 6.18295C54.8943 6.25765 54.7497 6.33236 54.7267 6.35047C54.7015 6.36858 54.6762 6.38216 54.6693 6.38216C54.6624 6.38216 54.5798 6.43649 54.4834 6.5044C54.3892 6.57231 54.2492 6.68098 54.1734 6.74662C54.0976 6.81454 53.9943 6.90962 53.9438 6.95942C53.8933 7.00922 53.8107 7.09751 53.7602 7.15184C53.7073 7.20843 53.6178 7.31483 53.5604 7.38953C53.503 7.46424 53.4227 7.57516 53.3836 7.63855C53.3446 7.69967 53.2436 7.88983 53.1609 8.05734C53.076 8.22486 52.9979 8.38333 52.9887 8.40823C52.9773 8.43313 52.9428 8.53273 52.9107 8.62781C52.8785 8.72515 52.8533 8.81344 52.8533 8.82702C52.8533 8.84287 54.3686 8.84966 57.3532 8.84966H61.8531C61.8325 8.64818 61.8003 8.49199 61.7682 8.37427C61.7383 8.25655 61.6993 8.11846 61.6809 8.06866C61.6649 8.01886 61.6373 7.94642 61.6236 7.9102C61.6075 7.87398 61.5478 7.74494 61.4881 7.62723C61.4307 7.50951 61.3389 7.34652 61.2815 7.26503C61.2264 7.18353 61.1345 7.06129 61.0748 6.99337C61.0174 6.92546 60.9233 6.82359 60.8659 6.76926C60.8085 6.71493 60.6891 6.61306 60.6019 6.54289C60.5146 6.47497 60.3379 6.35499 60.2116 6.28029C60.0853 6.20559 59.8787 6.10145 59.7524 6.04939C59.6261 5.99958 59.4769 5.94072 59.4195 5.92035C59.3621 5.90224 59.2129 5.85923 59.0866 5.8298C58.9603 5.79811 58.7376 5.75283 58.593 5.72793C58.4483 5.70303 58.1453 5.6736 57.9226 5.66002C57.6976 5.64644 57.4864 5.63738 57.4519 5.63738C57.4152 5.63964 57.2178 5.65323 57.0088 5.66907C56.7999 5.68492 56.568 5.70982 56.4923 5.7234ZM92.4343 2.04026C92.6042 2.038 93.0289 2.05158 93.3756 2.06969C93.7223 2.08554 94.023 2.10591 94.0414 2.1127C94.0598 2.11949 94.1792 2.13534 94.3054 2.14892C94.4317 2.16024 94.6475 2.18967 94.7876 2.21457C94.9276 2.23721 95.21 2.29833 95.4189 2.3504C95.6279 2.4002 95.8965 2.47264 96.0159 2.51339C96.1353 2.55187 96.3235 2.61752 96.436 2.66053C96.5462 2.70354 96.7414 2.78504 96.8722 2.84163C97.0008 2.89823 97.2304 3.01368 97.3819 3.09517C97.5335 3.17441 97.7768 3.31929 97.9215 3.41436C98.0661 3.50718 98.2888 3.66111 98.4151 3.75167C98.5414 3.84448 98.6538 3.9305 98.6676 3.94635C98.6814 3.95993 98.7595 4.02784 98.8467 4.09576C98.9316 4.16367 99.0005 4.22479 99.0005 4.23158C99.0005 4.23837 98.9408 4.30855 98.8674 4.38778C98.7962 4.46701 98.6699 4.6119 98.5873 4.70924C98.5046 4.80658 98.3347 5.00353 98.2084 5.15067C98.0822 5.29555 97.9054 5.49703 97.8181 5.60116C97.7309 5.70303 97.5771 5.88413 97.4761 5.99958C97.3773 6.1173 97.2579 6.25312 97.212 6.30293C97.1661 6.35273 97.0651 6.47044 96.9847 6.56326C96.9067 6.65607 96.8103 6.77153 96.7689 6.82133C96.7138 6.88471 96.684 6.90282 96.6587 6.88924C96.6404 6.88019 96.5302 6.79416 96.4177 6.69908C96.3052 6.60401 96.1031 6.4546 95.97 6.36631C95.8368 6.27803 95.6003 6.13994 95.4419 6.0607C95.2835 5.98147 95.0975 5.89545 95.0286 5.86828C94.9598 5.84112 94.8082 5.78905 94.6957 5.75283C94.5832 5.71661 94.4271 5.66907 94.3514 5.65096C94.2756 5.63059 94.1401 5.5989 94.0529 5.58079C93.9657 5.56268 93.7636 5.52872 93.6052 5.50608C93.371 5.47213 93.1736 5.46533 92.5376 5.46533C91.8925 5.46533 91.7134 5.47213 91.5045 5.50608C91.3644 5.52872 91.1853 5.56268 91.1027 5.58079C91.02 5.5989 90.896 5.63059 90.8272 5.65096C90.7583 5.67134 90.6802 5.69397 90.655 5.70529C90.6297 5.71435 90.5425 5.75057 90.4598 5.78453C90.3772 5.81622 90.2234 5.89998 90.1178 5.97015C90.0121 6.04259 89.8744 6.15578 89.8101 6.2237C89.7481 6.29161 89.6586 6.4297 89.6104 6.5293C89.553 6.64702 89.5139 6.77379 89.4956 6.89151C89.4749 7.03186 89.4749 7.11562 89.4956 7.26503C89.5093 7.37142 89.5415 7.51178 89.5667 7.57516C89.5897 7.64081 89.6494 7.754 89.6953 7.82418C89.7412 7.89662 89.8262 8.00075 89.8836 8.05734C89.941 8.11394 90.0512 8.20222 90.1269 8.25203C90.2027 8.30183 90.3382 8.3788 90.4254 8.42407C90.5126 8.46708 90.6688 8.53047 90.7698 8.56669C90.8708 8.60065 90.9902 8.63687 91.0338 8.64592C91.0774 8.65498 91.2129 8.68667 91.3323 8.71157C91.4517 8.73874 91.695 8.77948 91.8718 8.80212C92.0486 8.82702 92.4205 8.86324 92.6983 8.88135C92.9761 8.90173 93.3595 8.93568 93.5478 8.95379C93.7383 8.97417 94.0621 9.01492 94.271 9.04434C94.4799 9.07377 94.7325 9.11226 94.8335 9.13263C94.9345 9.15074 95.1205 9.18696 95.2468 9.21413C95.373 9.24129 95.5842 9.29109 95.7174 9.32505C95.8506 9.36127 96.0457 9.4156 96.1536 9.44729C96.2615 9.47899 96.3694 9.51521 96.3947 9.52653C96.42 9.53558 96.5279 9.57859 96.6358 9.61934C96.7437 9.66009 96.9296 9.73932 97.049 9.79591C97.1684 9.85024 97.3406 9.93627 97.4278 9.98607C97.5151 10.0336 97.6092 10.0857 97.6345 10.1015C97.6597 10.1174 97.747 10.174 97.8296 10.2306C97.9123 10.2849 98.073 10.4026 98.1855 10.4932C98.298 10.5814 98.461 10.7241 98.5436 10.8101C98.6263 10.8961 98.7503 11.0365 98.8191 11.1247C98.888 11.2108 98.9867 11.3489 99.0418 11.4304C99.0947 11.5118 99.1911 11.6748 99.2531 11.7926C99.3128 11.9103 99.3977 12.0936 99.4367 12.2C99.4781 12.3064 99.5286 12.4536 99.5492 12.5283C99.5722 12.603 99.6066 12.7343 99.6273 12.8226C99.648 12.9086 99.6801 13.0671 99.7008 13.1734C99.7191 13.2798 99.7467 13.5447 99.7605 13.762C99.7788 14.0541 99.7788 14.2533 99.7605 14.5204C99.7467 14.7196 99.7168 14.9845 99.6916 15.109C99.6686 15.2335 99.6273 15.4146 99.5997 15.5097C99.5745 15.607 99.5286 15.7496 99.5033 15.8266C99.4758 15.9058 99.439 16.0054 99.4207 16.0484C99.4023 16.0914 99.3449 16.2137 99.2944 16.3201C99.2439 16.4265 99.1452 16.6098 99.0763 16.7276C99.0051 16.8453 98.9408 16.9471 98.9339 16.9539C98.927 16.9607 98.8949 17.0015 98.8651 17.0445C98.8352 17.0875 98.7342 17.2143 98.6424 17.3275C98.5505 17.4406 98.3852 17.6172 98.2727 17.7236C98.1625 17.83 98.0202 17.9568 97.9559 18.0066C97.8939 18.0541 97.8319 18.1062 97.8181 18.1198C97.8044 18.1334 97.7493 18.1741 97.6919 18.2126C97.6345 18.2511 97.522 18.328 97.4393 18.3846C97.3567 18.439 97.1776 18.5476 97.0375 18.6223C96.8975 18.6993 96.6863 18.8034 96.5669 18.8555C96.4475 18.9076 96.3189 18.9642 96.2799 18.98C96.2409 18.9958 96.1376 19.0343 96.0503 19.066C95.9631 19.1 95.8161 19.1475 95.7289 19.1747C95.6416 19.2019 95.5223 19.2358 95.4649 19.2517C95.4075 19.2675 95.2996 19.2947 95.2238 19.315C95.148 19.3331 95.0126 19.3648 94.9253 19.3852C94.8381 19.4033 94.6705 19.435 94.558 19.4531C94.4455 19.4712 94.2435 19.5029 94.1103 19.521C93.9771 19.5414 93.6167 19.5731 93.3067 19.5935C92.9095 19.6184 92.595 19.6252 92.2392 19.6161C91.9613 19.6093 91.5687 19.5912 91.3667 19.5799C91.1647 19.5686 90.8662 19.5414 90.7009 19.5233C90.5356 19.5029 90.3037 19.4712 90.1843 19.4531C90.0649 19.435 89.8836 19.4056 89.7826 19.3852C89.6815 19.3671 89.5323 19.3354 89.4496 19.3173C89.367 19.2992 89.2384 19.2675 89.1627 19.2471C89.0869 19.229 88.8757 19.1656 88.692 19.109C88.5083 19.0524 88.2351 18.9551 88.0836 18.8962C87.9321 18.8351 87.6795 18.7219 87.5211 18.6472C87.3627 18.5703 87.1515 18.4639 87.0505 18.4073C86.9494 18.3529 86.83 18.285 86.7864 18.2579C86.7428 18.2284 86.6188 18.1492 86.5109 18.079C86.403 18.0111 86.2216 17.8866 86.1091 17.8028C85.9967 17.7191 85.8612 17.6172 85.8107 17.5765C85.7602 17.5357 85.6568 17.452 85.5811 17.3908C85.5053 17.3275 85.301 17.1441 85.1288 16.9811C84.9543 16.8158 84.812 16.671 84.812 16.6596C84.812 16.6483 84.8533 16.5781 84.9061 16.5057C84.9566 16.4355 85.0347 16.3246 85.0783 16.2635C85.1196 16.2001 85.1908 16.1028 85.2298 16.0439C85.2711 15.985 85.3469 15.8786 85.3974 15.8062C85.4479 15.7338 85.5627 15.573 85.6477 15.4485C85.7349 15.324 85.8612 15.1452 85.9255 15.0524C85.9898 14.9596 86.1045 14.7966 86.178 14.6902C86.2515 14.5838 86.3571 14.4344 86.4122 14.3551C86.4673 14.2782 86.5591 14.1469 86.6188 14.0608C86.6785 13.9771 86.752 13.873 86.7818 13.8299C86.8117 13.7869 86.8369 13.7484 86.8392 13.7439C86.8415 13.7417 86.9311 13.8209 87.039 13.9228C87.1469 14.0246 87.3604 14.1989 87.5142 14.3144C87.6703 14.4276 87.9114 14.5906 88.0538 14.6743C88.1961 14.7581 88.49 14.9143 88.7035 15.0184C88.917 15.1226 89.1305 15.2222 89.1741 15.2425C89.2178 15.2606 89.3119 15.2969 89.3808 15.3263C89.4496 15.3535 89.5598 15.3942 89.6218 15.4191C89.6861 15.444 89.8583 15.5029 90.0075 15.5527C90.1545 15.6002 90.4438 15.6862 90.6504 15.7406C90.8547 15.7949 91.1004 15.8537 91.1945 15.8741C91.2887 15.8945 91.4654 15.9262 91.5848 15.9443C91.7042 15.9647 91.9246 15.9964 92.0738 16.0145C92.2208 16.0326 92.5055 16.0484 92.7052 16.0484C92.9164 16.0484 93.1621 16.0348 93.2952 16.0122C93.4215 15.9941 93.5914 15.9624 93.6741 15.9443C93.7567 15.9239 93.9174 15.8786 94.0299 15.8402C94.1424 15.8039 94.3445 15.7202 94.4776 15.6545C94.6108 15.5911 94.7968 15.4802 94.8909 15.4123C94.985 15.3421 95.1251 15.2199 95.2008 15.1407C95.2766 15.0592 95.3799 14.9233 95.4304 14.8373C95.4809 14.7513 95.536 14.6449 95.5521 14.5996C95.5682 14.5566 95.5957 14.4525 95.6141 14.3665C95.6325 14.2827 95.6485 14.1514 95.6485 14.0722C95.6485 13.9952 95.6348 13.8594 95.6164 13.7733C95.6003 13.6851 95.5521 13.5424 95.5131 13.4564C95.458 13.3387 95.3937 13.2527 95.2628 13.1236C95.1205 12.981 95.0424 12.9267 94.8565 12.8361C94.7302 12.7728 94.5442 12.6958 94.4432 12.6641C94.3422 12.6324 94.1723 12.5871 94.0644 12.5622C93.9565 12.5396 93.782 12.5056 93.6741 12.4853C93.5662 12.4672 93.3458 12.4355 93.1805 12.4174C93.0152 12.397 92.7833 12.3766 92.6639 12.3698C92.5445 12.3653 92.3218 12.3472 92.1703 12.3359C92.0187 12.3223 91.7662 12.2951 91.6078 12.277C91.4494 12.2566 91.1922 12.2227 91.0338 12.1978C90.8754 12.1729 90.6688 12.1389 90.5746 12.1185C90.4805 12.1004 90.2624 12.0529 90.0925 12.0167C89.9226 11.9782 89.6792 11.9171 89.553 11.8808C89.4267 11.8446 89.2729 11.7993 89.2086 11.779C89.1466 11.7586 89.0364 11.7224 88.9675 11.6975C88.8986 11.6703 88.8206 11.6431 88.7953 11.6318C88.7701 11.6228 88.6461 11.5707 88.5198 11.5186C88.3935 11.4666 88.203 11.3805 88.0951 11.3285C87.9872 11.2742 87.8632 11.213 87.8196 11.1904C87.776 11.17 87.6726 11.1089 87.59 11.0568C87.5073 11.0048 87.4155 10.9459 87.3833 10.9255C87.3512 10.9052 87.2777 10.8554 87.2203 10.8146C87.1629 10.7739 87.0642 10.6992 87.0022 10.6494C86.9403 10.5995 86.7979 10.4728 86.6877 10.3664C86.5752 10.26 86.4237 10.1015 86.3525 10.0155C86.2813 9.92721 86.1757 9.79139 86.1206 9.70989C86.0632 9.6284 86.0035 9.54237 85.9898 9.51747C85.9737 9.49257 85.914 9.38391 85.8566 9.27298C85.7992 9.16432 85.7165 8.98096 85.6729 8.86551C85.6293 8.75232 85.5627 8.535 85.5237 8.38559C85.487 8.23618 85.4388 7.9849 85.4204 7.82418C85.402 7.66571 85.3859 7.3918 85.3859 7.21296C85.3859 7.03639 85.402 6.76473 85.4204 6.60853C85.4365 6.45234 85.4732 6.23954 85.4984 6.13314C85.5237 6.02675 85.5765 5.84791 85.6132 5.73699C85.65 5.6238 85.6959 5.49703 85.7142 5.45402C85.7303 5.411 85.7579 5.34309 85.7762 5.30687C85.7923 5.26839 85.8267 5.19821 85.8497 5.14841C85.875 5.0986 85.9163 5.01711 85.9438 4.96731C85.9737 4.9175 86.054 4.79073 86.1275 4.68434C86.201 4.57794 86.3548 4.38099 86.4719 4.24517C86.5867 4.10934 86.7864 3.91013 86.9127 3.806C87.039 3.70186 87.1951 3.57736 87.2571 3.52982C87.3214 3.48454 87.4384 3.40078 87.5211 3.34645C87.6038 3.28986 87.7645 3.19252 87.877 3.13139C87.9895 3.06801 88.1823 2.97067 88.3017 2.91181C88.4211 2.85521 88.6071 2.77372 88.715 2.73071C88.8229 2.6877 88.9974 2.62205 89.1053 2.58583C89.2132 2.54961 89.3578 2.50207 89.4267 2.48169C89.4956 2.46132 89.6058 2.42963 89.6678 2.41152C89.732 2.39341 89.8905 2.35266 90.0236 2.32097C90.1568 2.28927 90.4047 2.23947 90.5746 2.21004C90.7445 2.17835 91.0246 2.1376 91.1945 2.11723C91.3644 2.09685 91.6445 2.07195 91.8144 2.06063C91.9843 2.05158 92.2644 2.04026 92.4343 2.04026ZM18.0592 2.10817C18.2497 2.10591 18.578 2.11949 18.7939 2.1376C19.0097 2.15571 19.299 2.18967 19.4367 2.21457C19.5768 2.23721 19.8293 2.2938 19.9992 2.33681C20.1691 2.38209 20.3757 2.43868 20.4584 2.46585C20.541 2.49301 20.642 2.52923 20.6834 2.54734C20.7224 2.56545 20.7614 2.57904 20.7683 2.57904C20.7752 2.57904 20.8188 2.59488 20.867 2.61526C20.913 2.63563 20.9841 2.66506 21.0209 2.68091C21.0576 2.69675 21.1885 2.76014 21.3078 2.81899C21.4272 2.87785 21.5673 2.94803 21.6178 2.97293C21.6683 3.0001 21.8015 3.08159 21.9163 3.1563C22.0311 3.22874 22.2055 3.35098 22.3066 3.42568C22.4076 3.50039 22.6303 3.6996 22.8025 3.86712C22.9724 4.0369 23.1698 4.25196 23.2387 4.34477C23.3076 4.43759 23.3948 4.56209 23.4315 4.62095C23.4706 4.68207 23.5073 4.72961 23.5188 4.72961C23.528 4.72961 23.5349 4.67528 23.5349 4.60963C23.5349 4.54625 23.5509 4.23611 23.5693 3.92598C23.59 3.61358 23.6175 3.17214 23.6611 2.52244L27.6445 2.51112V19.0592L23.73 19.0479L23.7025 18.7536C23.6864 18.5906 23.6588 18.2556 23.6382 18.0066C23.6175 17.7576 23.5854 17.3999 23.567 17.2143C23.5509 17.0264 23.5349 16.8362 23.5349 16.7887C23.5349 16.7434 23.528 16.7049 23.5188 16.7049C23.5073 16.7049 23.482 16.7434 23.4568 16.7887C23.4338 16.8362 23.3466 16.9766 23.2616 17.0988C23.179 17.2233 23.0252 17.418 22.9242 17.5289C22.8208 17.6421 22.6509 17.8119 22.5453 17.9047C22.4397 17.9998 22.2905 18.122 22.2147 18.1786C22.139 18.2352 21.9989 18.3303 21.9048 18.3892C21.8106 18.448 21.7073 18.5159 21.6752 18.5363C21.643 18.5567 21.4732 18.6472 21.2964 18.7355C21.1196 18.8238 20.9084 18.9234 20.8257 18.9574C20.7431 18.9913 20.6099 19.0434 20.5273 19.0751C20.4446 19.1045 20.316 19.1498 20.2403 19.1747C20.1645 19.1996 20.0566 19.2335 19.9992 19.2517C19.9418 19.2698 19.7604 19.3128 19.5974 19.3513C19.4344 19.3875 19.2071 19.435 19.0923 19.4531C18.9798 19.4712 18.7204 19.5052 18.5184 19.5256C18.2474 19.5527 18.0477 19.5595 17.7607 19.5505C17.5449 19.5414 17.2464 19.5256 17.0949 19.512C16.9434 19.4984 16.7 19.4735 16.5554 19.4554C16.4107 19.435 16.2041 19.4056 16.0962 19.3852C15.9883 19.3671 15.7656 19.3196 15.6026 19.2833C15.4396 19.2449 15.1847 19.1792 15.0401 19.1362C14.8954 19.0932 14.6934 19.0275 14.5924 18.9891C14.4914 18.9506 14.3215 18.8849 14.2136 18.8396C14.1057 18.7966 13.899 18.7016 13.7544 18.6314C13.6098 18.5589 13.3572 18.4209 13.1919 18.3235C13.0289 18.2239 12.7488 18.0383 12.572 17.907C12.347 17.7395 12.1266 17.547 11.8373 17.2618C11.5412 16.9675 11.3552 16.7615 11.183 16.5306C11.0498 16.354 10.8845 16.1209 10.8157 16.0122C10.7468 15.9035 10.6733 15.7858 10.655 15.7519C10.6366 15.7179 10.5516 15.5595 10.469 15.3987C10.3863 15.2403 10.2807 15.0229 10.2348 14.9165C10.1912 14.8102 10.1269 14.6585 10.0948 14.577C10.0649 14.4955 10.0006 14.3166 9.95701 14.1808C9.91109 14.0427 9.82384 13.7235 9.76186 13.4677C9.69757 13.2119 9.63099 12.9018 9.61262 12.7773C9.59196 12.6528 9.56211 12.4332 9.54375 12.2906C9.52538 12.148 9.49553 11.8627 9.47946 11.6567C9.46339 11.4507 9.44962 11.0478 9.45191 10.7625C9.45191 10.475 9.46339 10.0834 9.47946 9.89099C9.49553 9.69857 9.52538 9.42239 9.54375 9.27978C9.56211 9.13716 9.59426 8.9221 9.61492 8.80439C9.63558 8.68667 9.68609 8.44218 9.72971 8.26108C9.77104 8.07998 9.85369 7.78569 9.91109 7.60459C9.96849 7.42349 10.0259 7.25597 10.0351 7.23107C10.0465 7.20617 10.0925 7.08845 10.1384 6.97074C10.1866 6.85302 10.2922 6.61759 10.3749 6.45007C10.4575 6.28255 10.6021 6.01769 10.6963 5.86149C10.7927 5.70529 10.8914 5.54683 10.919 5.51061C10.9465 5.47213 11.0292 5.3612 11.1027 5.2616C11.1784 5.16199 11.3162 4.98994 11.4126 4.87676C11.5067 4.76583 11.6468 4.60963 11.7225 4.52814C11.7983 4.4489 12.0003 4.26554 12.1702 4.12066C12.3401 3.97578 12.5261 3.82411 12.5835 3.78336C12.6409 3.74487 12.7488 3.66791 12.8246 3.61358C12.9003 3.55925 13.0128 3.4868 13.0725 3.44832C13.1345 3.4121 13.2126 3.36456 13.2447 3.34419C13.2791 3.32381 13.3687 3.27175 13.4445 3.22874C13.5202 3.18799 13.7223 3.08612 13.8921 3.00462C14.062 2.92313 14.3008 2.81899 14.4202 2.77372C14.5396 2.72618 14.659 2.68091 14.6842 2.66959C14.7095 2.65827 14.8243 2.61978 14.9368 2.58356C15.0516 2.54734 15.2077 2.50207 15.288 2.47943C15.3661 2.45906 15.4901 2.42963 15.5636 2.41152C15.6347 2.39341 15.761 2.36398 15.8436 2.3436C15.9263 2.32549 16.0755 2.2938 16.1766 2.27569C16.2776 2.25758 16.4842 2.22589 16.6357 2.20325C16.7873 2.18288 17.0926 2.15345 17.313 2.1376C17.5334 2.12402 17.8709 2.10817 18.0592 2.10817ZM17.5311 5.87055C17.4301 5.89092 17.2648 5.92714 17.1638 5.95204C17.0628 5.97921 16.948 6.00864 16.9112 6.01996C16.8745 6.03128 16.7964 6.05618 16.739 6.07655C16.6816 6.09692 16.5944 6.13088 16.5439 6.15125C16.4934 6.17163 16.3327 6.24633 16.188 6.31651C16.0434 6.38669 15.8253 6.50893 15.7059 6.5859C15.5865 6.66513 15.4005 6.80322 15.2926 6.89151C15.1847 6.98206 15.0263 7.13146 14.9368 7.22428C14.8472 7.31483 14.7347 7.4416 14.6842 7.50272C14.6337 7.56384 14.5258 7.71099 14.4455 7.83097C14.3674 7.94868 14.2365 8.17732 14.1562 8.34031C14.0781 8.50104 14.0001 8.66403 13.984 8.70252C13.9679 8.73874 13.9266 8.86098 13.8899 8.97417C13.8508 9.08509 13.8072 9.24356 13.7865 9.32505C13.7682 9.40655 13.7314 9.57407 13.7085 9.69857C13.6832 9.82308 13.6534 10.0562 13.6396 10.2192C13.6281 10.38 13.6166 10.6245 13.6166 10.7625C13.6166 10.8984 13.6258 11.1429 13.6396 11.3058C13.6534 11.4666 13.6786 11.6816 13.6993 11.7812C13.7177 11.8808 13.7544 12.0484 13.7774 12.1548C13.8026 12.2612 13.8531 12.4445 13.8921 12.5622C13.9312 12.6799 13.9702 12.7977 13.9817 12.8226C13.9932 12.8475 14.0299 12.9335 14.0643 13.015C14.0988 13.0965 14.1677 13.2391 14.2205 13.3319C14.271 13.4247 14.3582 13.5719 14.4156 13.6602C14.473 13.7462 14.5832 13.9001 14.659 13.9997C14.737 14.0993 14.9023 14.2827 15.0286 14.4072C15.1549 14.534 15.3409 14.697 15.4419 14.7717C15.5429 14.8464 15.6715 14.9392 15.7289 14.9754C15.7863 15.0116 15.9263 15.0954 16.0388 15.1588C16.1536 15.2244 16.3235 15.3082 16.4176 15.3467C16.5118 15.3874 16.6105 15.4282 16.6357 15.4395C16.661 15.4485 16.7482 15.4802 16.8309 15.5074C16.9135 15.5323 17.0788 15.5798 17.1982 15.6115C17.3176 15.641 17.5403 15.6885 17.6918 15.7157C17.9237 15.7541 18.0638 15.7632 18.5643 15.7632C19.0372 15.7632 19.2117 15.7564 19.4023 15.7247C19.5354 15.7021 19.7214 15.6636 19.8155 15.641C19.9097 15.6183 20.0451 15.5844 20.114 15.5662C20.1829 15.5481 20.339 15.4961 20.4584 15.4485C20.5778 15.4033 20.7798 15.3127 20.9061 15.2493C21.0323 15.1837 21.2344 15.066 21.3538 14.9867C21.4732 14.9075 21.666 14.7603 21.7831 14.6585C21.9002 14.5566 22.0816 14.3778 22.1872 14.2601C22.2928 14.1423 22.4466 13.9454 22.5316 13.8231C22.6165 13.7032 22.7221 13.5357 22.768 13.4496C22.8117 13.3659 22.8576 13.2821 22.869 13.264C22.8805 13.2459 22.9196 13.1644 22.9563 13.0829C22.993 13.0014 23.0389 12.895 23.0596 12.8452C23.0803 12.7954 23.117 12.6981 23.14 12.6301C23.1652 12.5622 23.2111 12.4128 23.2433 12.3019C23.2754 12.1887 23.3236 11.9963 23.3489 11.8718C23.3741 11.7473 23.4063 11.5277 23.4247 11.3851C23.4407 11.2425 23.4545 10.9663 23.4545 10.7739C23.4545 10.5814 23.4407 10.3098 23.4247 10.174C23.4063 10.0359 23.3696 9.80271 23.3397 9.6533C23.3099 9.50389 23.2571 9.29562 23.2249 9.18923C23.1928 9.08283 23.1446 8.93568 23.117 8.86098C23.0895 8.78628 23.0596 8.71383 23.0481 8.70252C23.0389 8.68893 23.0298 8.66403 23.0298 8.64592C23.0275 8.62781 22.9609 8.4784 22.8782 8.31768C22.7956 8.15469 22.6693 7.93736 22.5981 7.83097C22.5293 7.72457 22.3961 7.54573 22.3043 7.43481C22.2147 7.32162 22.0586 7.1541 21.9599 7.05902C21.8589 6.96394 21.7073 6.83038 21.6178 6.76247C21.5283 6.69456 21.3859 6.59043 21.2964 6.53157C21.2068 6.47045 20.991 6.35273 20.8142 6.26897C20.6375 6.18295 20.4148 6.08787 20.3206 6.05844C20.2265 6.02675 20.0658 5.97694 19.9648 5.94978C19.8637 5.92488 19.703 5.88639 19.6089 5.87055C19.5148 5.85244 19.2714 5.82301 19.0694 5.8049C18.8673 5.78679 18.624 5.77321 18.5298 5.77547C18.4357 5.77547 18.213 5.79132 18.0362 5.80716C17.8594 5.82301 17.6321 5.85017 17.5311 5.87055ZM62.0942 23.3174C62.1815 23.3174 62.3628 23.331 62.496 23.3491C62.6291 23.3672 62.799 23.3989 62.8748 23.4215C62.9506 23.4419 63.0745 23.4781 63.1503 23.5007C63.2261 23.5234 63.3087 23.5528 63.334 23.5619C63.3592 23.5732 63.4419 23.6094 63.5177 23.6434C63.5934 23.6773 63.7381 23.7498 63.8391 23.8086C63.9401 23.8652 64.0962 23.9648 64.1835 24.0305C64.2707 24.0938 64.3878 24.1844 64.5393 24.3112L64.3166 24.6326C64.1949 24.8115 64.0664 24.9993 64.0296 25.0514C63.9952 25.1057 63.9608 25.1488 63.9539 25.1488C63.947 25.1488 63.8735 25.0944 63.7886 25.031C63.7013 24.9654 63.6279 24.9065 63.621 24.8975C63.6141 24.8884 63.5429 24.8409 63.4603 24.7888C63.3776 24.7345 63.2375 24.6575 63.1503 24.6168C63.0631 24.5738 62.9276 24.5172 62.8518 24.4923C62.7761 24.4651 62.62 24.4244 62.5075 24.3995C62.395 24.3746 62.2159 24.3564 62.1126 24.3564C62.007 24.3564 61.8256 24.3768 61.7108 24.4017C61.5937 24.4266 61.4146 24.4809 61.3136 24.5194C61.2126 24.5579 61.0588 24.6326 60.9715 24.6824C60.8866 24.7345 60.7419 24.8364 60.6501 24.9133C60.5606 24.988 60.4389 25.1057 60.3815 25.1737C60.3241 25.2416 60.246 25.3412 60.207 25.3978C60.168 25.4544 60.1083 25.5562 60.0738 25.6241C60.0394 25.6921 59.9843 25.8143 59.9544 25.8958C59.9246 25.9773 59.8787 26.1493 59.8557 26.2806C59.8305 26.4119 59.8098 26.584 59.8098 26.6655C59.8098 26.747 59.8259 26.9032 59.8442 27.0164C59.8649 27.1296 59.897 27.2699 59.9177 27.3333C59.9361 27.3944 59.9728 27.4918 59.9981 27.5483C60.0233 27.6049 60.0601 27.6864 60.0807 27.7294C60.1014 27.7725 60.1243 27.8132 60.1312 27.82C60.1381 27.8268 60.1748 27.8811 60.2116 27.9445C60.2483 28.0056 60.3769 28.155 60.4986 28.2728C60.657 28.429 60.7787 28.524 60.9417 28.6191C61.0634 28.6893 61.1781 28.7481 61.1942 28.7481C61.208 28.7481 61.2309 28.7572 61.2447 28.7685C61.2585 28.7798 61.3205 28.8047 61.3825 28.8251C61.4468 28.8455 61.5822 28.8817 61.6878 28.9066C61.8325 28.9406 61.9542 28.9519 62.2159 28.9519C62.4409 28.9519 62.6062 28.9383 62.7141 28.9157C62.8013 28.8953 62.9368 28.8591 63.0126 28.8342C63.0883 28.8093 63.2169 28.7549 63.2995 28.7119C63.3822 28.6712 63.5131 28.5829 63.5911 28.5172C63.6715 28.4516 63.7817 28.3407 63.8391 28.2728C63.8965 28.2048 63.9745 28.0826 64.0159 28.0011C64.0549 27.9196 64.1077 27.7815 64.1307 27.6955C64.1536 27.6095 64.172 27.4827 64.172 27.2993H62.1516V26.3486H63.7013C65.0582 26.3486 65.2533 26.3531 65.2625 26.3825C65.2694 26.4006 65.2809 26.541 65.2878 26.6926C65.297 26.8579 65.2924 27.073 65.2763 27.2201C65.2602 27.3559 65.2327 27.5416 65.2143 27.6276C65.1936 27.7136 65.1592 27.8472 65.1363 27.9219C65.1133 27.9966 65.0628 28.1301 65.026 28.2162C64.987 28.3022 64.925 28.4289 64.886 28.4923C64.847 28.558 64.8148 28.6168 64.8148 28.6236C64.8148 28.6304 64.8033 28.6485 64.7919 28.6621C64.7781 28.678 64.7184 28.7572 64.6564 28.8387C64.5944 28.9202 64.459 29.0673 64.3534 29.1692C64.2477 29.2688 64.0824 29.4024 63.9883 29.4658C63.8942 29.5269 63.7335 29.6197 63.6324 29.6695C63.5314 29.717 63.3868 29.7782 63.311 29.8031C63.2353 29.8302 63.1365 29.8619 63.0929 29.8755C63.0493 29.8891 62.8886 29.923 62.7371 29.9502C62.5488 29.9842 62.372 30 62.1746 30C61.9817 30 61.8003 29.9842 61.6236 29.9502C61.4789 29.9253 61.3021 29.8891 61.2332 29.871C61.1644 29.8551 61.0335 29.8121 60.9463 29.7782C60.859 29.7442 60.6914 29.6695 60.5789 29.6129C60.4664 29.554 60.285 29.4476 60.1771 29.3729C60.0692 29.2982 59.8741 29.1307 59.7409 28.9994C59.5986 28.8591 59.4379 28.6712 59.3529 28.5444C59.2726 28.4267 59.1693 28.2524 59.121 28.1596C59.0751 28.0667 59.0062 27.9173 58.9718 27.8313C58.9374 27.7453 58.8915 27.5959 58.8685 27.5031C58.8455 27.4103 58.8111 27.2314 58.7904 27.1069C58.7698 26.9824 58.7537 26.79 58.7537 26.6768C58.7537 26.5636 58.7698 26.3667 58.7881 26.2354C58.8065 26.1041 58.8386 25.9365 58.8616 25.8618C58.8823 25.7871 58.9167 25.6694 58.9397 25.6015C58.9626 25.5336 58.9948 25.4408 59.0131 25.3978C59.0292 25.3548 59.0705 25.2619 59.1073 25.194C59.1417 25.1261 59.1991 25.0243 59.2312 24.9677C59.2657 24.9111 59.3391 24.8001 59.3942 24.7186C59.4516 24.6371 59.6169 24.4538 59.7639 24.3089C59.9085 24.1663 60.0945 24.0033 60.1771 23.9467C60.2598 23.8901 60.3838 23.8131 60.4526 23.7747C60.5215 23.7362 60.6363 23.675 60.7052 23.6434C60.7741 23.6094 60.8521 23.5732 60.8774 23.5619C60.9026 23.5505 60.9761 23.5256 61.0381 23.5053C61.1024 23.4872 61.2103 23.4555 61.2792 23.4351C61.348 23.417 61.5248 23.3808 61.6695 23.3604C61.8141 23.3377 62.007 23.3196 62.0942 23.3174ZM75.7318 2.038C75.8971 2.038 76.2529 2.04705 76.5238 2.05837C76.7947 2.07195 77.1736 2.09685 77.3618 2.11723C77.5524 2.1376 77.8256 2.17382 77.9702 2.19646C78.1149 2.22136 78.3123 2.25758 78.4065 2.27569C78.5006 2.29154 78.6406 2.32323 78.7164 2.34134C78.7922 2.36171 78.907 2.39114 78.9689 2.40925C79.0332 2.42736 79.187 2.47264 79.3133 2.51112C79.4396 2.54961 79.5842 2.59715 79.6347 2.61752C79.6853 2.63563 79.7679 2.66732 79.8184 2.6877C79.8689 2.70581 79.9562 2.74203 80.0136 2.76693C80.071 2.79183 80.25 2.87559 80.4154 2.95482C80.5807 3.03632 80.7299 3.11102 80.7482 3.12234C80.7666 3.13366 80.8768 3.19931 80.9893 3.26496C81.1018 3.33287 81.2832 3.44606 81.3911 3.5185C81.499 3.59094 81.6689 3.71318 81.7699 3.78789C81.8709 3.86259 82.0316 3.99162 82.1258 4.07312C82.2199 4.15235 82.2934 4.22932 82.2911 4.2429C82.2865 4.25422 82.2612 4.29044 82.236 4.32213C82.2107 4.35383 82.1533 4.41948 82.1074 4.46928C82.0592 4.51908 81.9513 4.64585 81.8618 4.75225C81.7745 4.85865 81.6873 4.96052 81.6666 4.97863C81.6482 4.999 81.5288 5.13482 81.4026 5.28197C81.2763 5.42911 81.0995 5.63285 81.0123 5.73699C80.925 5.84112 80.7483 6.04486 80.622 6.192C80.4957 6.33688 80.3488 6.50893 80.2937 6.57231C80.2386 6.6357 80.149 6.7421 79.9906 6.92546L79.8804 6.82812C79.8207 6.77605 79.7243 6.69229 79.6692 6.64475C79.6118 6.59722 79.5245 6.5293 79.474 6.49761C79.4235 6.46592 79.3776 6.43196 79.3707 6.42517C79.3638 6.41611 79.2605 6.3482 79.1411 6.27576C79.0217 6.20106 78.8404 6.09919 78.7394 6.04939C78.6383 5.99732 78.4891 5.92941 78.4065 5.89545C78.3238 5.86376 78.1539 5.80264 78.0276 5.76189C77.9014 5.71888 77.7361 5.66907 77.6603 5.65096C77.5845 5.63059 77.4491 5.5989 77.3618 5.58079C77.2746 5.56268 77.0771 5.53098 76.9256 5.50608C76.6983 5.47213 76.5124 5.46533 75.858 5.46533C75.206 5.46533 75.0223 5.47213 74.8134 5.50608C74.6733 5.52872 74.4874 5.56268 74.4001 5.58305C74.3129 5.60342 74.1453 5.6487 74.0328 5.68718C73.9203 5.7234 73.7527 5.78905 73.6655 5.83206C73.5782 5.87508 73.4588 5.94299 73.4014 5.98147C73.344 6.01996 73.2522 6.0924 73.1971 6.14446C73.142 6.19427 73.0593 6.29161 73.0134 6.35952C72.9652 6.42743 72.9055 6.54062 72.8803 6.60853C72.855 6.67645 72.8183 6.81001 72.8022 6.90282C72.7792 7.04318 72.7792 7.10656 72.8022 7.26503C72.8206 7.37142 72.855 7.51404 72.8803 7.58195C72.9055 7.64987 72.9514 7.74721 72.9836 7.79701C73.0134 7.84681 73.103 7.95321 73.181 8.03018C73.2568 8.10941 73.3785 8.21128 73.4473 8.25882C73.5162 8.30409 73.6402 8.37653 73.7229 8.41728C73.8055 8.45803 73.9662 8.52142 74.0787 8.5599C74.1912 8.59838 74.3427 8.64366 74.4116 8.66177C74.4805 8.67761 74.6366 8.71157 74.756 8.73647C74.8754 8.75911 75.0981 8.79307 75.2496 8.81344C75.4011 8.83155 75.7478 8.86324 76.0187 8.88362C76.2896 8.90399 76.6616 8.93342 76.8453 8.95379C77.0289 8.9719 77.3274 9.00812 77.5111 9.03303C77.6947 9.05793 77.9266 9.09188 78.0276 9.10999C78.1286 9.1281 78.294 9.1598 78.395 9.18017C78.496 9.20054 78.7187 9.25261 78.8886 9.29336C79.0585 9.33411 79.2651 9.38844 79.3478 9.41334C79.4304 9.43598 79.5429 9.4722 79.6003 9.49257C79.6577 9.51294 79.745 9.54464 79.7955 9.56275C79.846 9.57859 79.924 9.60802 79.9677 9.62613C80.0113 9.64424 80.0939 9.6782 80.1513 9.70084C80.2087 9.72347 80.3625 9.79365 80.4957 9.8593C80.6289 9.92268 80.7827 10.0042 80.8401 10.0404C80.8975 10.0744 80.9709 10.1196 81.0054 10.14C81.0421 10.1581 81.1707 10.2464 81.2924 10.337C81.4164 10.4275 81.6 10.5746 81.6988 10.6652C81.7998 10.7557 81.9536 10.9165 82.0454 11.0229C82.135 11.1293 82.2635 11.2968 82.3301 11.3964C82.3967 11.496 82.5115 11.6975 82.5873 11.8424C82.6607 11.9895 82.7686 12.2498 82.8237 12.4196C82.8788 12.5917 82.9408 12.8135 82.9615 12.9131C82.9821 13.0127 83.0143 13.2006 83.035 13.3319C83.0625 13.5062 83.074 13.7235 83.074 14.1355C83.074 14.5747 83.0648 14.7558 83.035 14.9392C83.012 15.0705 82.973 15.2629 82.9477 15.3693C82.9225 15.4757 82.8674 15.6636 82.826 15.7881C82.7847 15.9126 82.7227 16.0756 82.6883 16.1503C82.6561 16.225 82.5964 16.3472 82.5574 16.4219C82.5207 16.4967 82.4311 16.6483 82.3623 16.7615C82.2934 16.8747 82.1992 17.0173 82.1533 17.0807C82.1074 17.1441 82.0225 17.2528 81.9651 17.3184C81.9077 17.3863 81.7906 17.5153 81.701 17.6082C81.6138 17.6987 81.4462 17.8526 81.3337 17.9477C81.2212 18.0451 81.0812 18.156 81.0238 18.1945C80.9664 18.2352 80.8171 18.3348 80.6909 18.4186C80.5646 18.5023 80.3166 18.6427 80.1398 18.7287C79.9631 18.817 79.7312 18.9234 79.6233 18.9664C79.5154 19.0072 79.3156 19.0796 79.1756 19.1271C79.0355 19.1724 78.8564 19.229 78.7738 19.2517C78.6911 19.272 78.5786 19.3037 78.5212 19.3196C78.4639 19.3354 78.333 19.3648 78.2297 19.3852C78.1241 19.4056 77.9588 19.435 77.8623 19.4531C77.7636 19.4712 77.5639 19.5029 77.4192 19.5233C77.2746 19.5414 76.9187 19.5731 76.6271 19.5912C76.3356 19.6093 75.9797 19.6252 75.8351 19.6252C75.6904 19.6252 75.2818 19.6093 74.9282 19.5912C74.5746 19.5731 74.1614 19.5414 74.0098 19.5233C73.8583 19.5029 73.631 19.4735 73.5047 19.4531C73.3785 19.435 73.1925 19.4033 73.0915 19.3852C72.9905 19.3648 72.7792 19.3196 72.6208 19.2811C72.4624 19.2449 72.2879 19.1996 72.2305 19.1837C72.1731 19.1656 72.0147 19.1136 71.8747 19.0683C71.7346 19.023 71.5349 18.9506 71.427 18.9076C71.3191 18.8645 71.1859 18.8102 71.1285 18.7853C71.0711 18.7582 70.9839 18.7197 70.9334 18.697C70.8828 18.6744 70.7956 18.6336 70.7382 18.6065C70.6808 18.5793 70.5775 18.5273 70.5086 18.4888C70.4397 18.4525 70.2951 18.3688 70.1872 18.3054C70.0793 18.2443 69.8795 18.1175 69.7395 18.027C69.5994 17.9364 69.3469 17.7508 69.1747 17.6172C69.0025 17.4837 68.8028 17.3161 68.727 17.2482C68.6535 17.1803 68.4836 17.0196 68.1094 16.6642L68.1944 16.5419C68.2403 16.4763 68.3413 16.3314 68.4217 16.2182C68.4997 16.105 68.6398 15.9081 68.7293 15.7768C68.8188 15.6455 68.9336 15.4825 68.9818 15.4146C69.0301 15.3467 69.1449 15.1859 69.2321 15.0569C69.3216 14.9279 69.4296 14.7762 69.4709 14.7173C69.5099 14.6585 69.5811 14.5589 69.6247 14.4978C69.6683 14.4344 69.7372 14.337 69.7785 14.2782C69.8198 14.2193 69.9163 14.0835 69.9897 13.9726C70.0655 13.8639 70.1344 13.762 70.1459 13.7507C70.1573 13.7371 70.2469 13.8073 70.3778 13.9341C70.4925 14.0473 70.6556 14.1899 70.7382 14.251C70.8209 14.3121 70.954 14.4095 71.0367 14.4661C71.1193 14.5227 71.2892 14.6313 71.4155 14.706C71.5418 14.7807 71.7897 14.912 71.9665 14.998C72.1433 15.0841 72.3499 15.1814 72.4257 15.2131C72.5014 15.2471 72.6415 15.3036 72.7356 15.3421C72.8298 15.3806 72.9606 15.4282 73.0226 15.4485C73.0869 15.4712 73.1581 15.4961 73.1833 15.5074C73.2086 15.5187 73.3119 15.5527 73.4129 15.5866C73.5139 15.6183 73.6701 15.6636 73.7573 15.6885C73.8445 15.7134 73.9754 15.7473 74.0443 15.7655C74.1132 15.7836 74.283 15.8243 74.4231 15.8537C74.5631 15.8832 74.7744 15.9262 74.8938 15.9443C75.0131 15.9647 75.2336 15.9964 75.3828 16.0145C75.5297 16.0326 75.8121 16.0484 76.0073 16.0484C76.2139 16.0484 76.4618 16.0326 76.5996 16.0122C76.7282 15.9941 76.9004 15.9624 76.983 15.942C77.0657 15.9239 77.1942 15.89 77.27 15.8673C77.3458 15.8447 77.4491 15.8085 77.4996 15.7881C77.5501 15.7677 77.6855 15.7043 77.798 15.6477C77.9105 15.5911 78.0621 15.5097 78.1309 15.4621C78.1998 15.4168 78.3215 15.3195 78.4019 15.2448C78.4845 15.1701 78.5924 15.0478 78.6475 14.9731C78.7003 14.8984 78.7715 14.7852 78.8013 14.7241C78.8335 14.6607 78.8794 14.5543 78.9024 14.4864C78.9368 14.3891 78.9437 14.2963 78.9437 14.0563C78.9437 13.7892 78.9368 13.7326 78.8886 13.6036C78.8564 13.5221 78.8105 13.4157 78.7807 13.3659C78.7531 13.3161 78.6705 13.2165 78.597 13.1418C78.5235 13.0693 78.4064 12.9742 78.3376 12.929C78.2687 12.886 78.1493 12.8203 78.0735 12.7863C77.9978 12.7501 77.8577 12.6981 77.7636 12.6686C77.6695 12.6369 77.5042 12.5917 77.3963 12.5668C77.2884 12.5419 77.107 12.5056 76.9945 12.4853C76.882 12.4672 76.6478 12.4355 76.4779 12.4174C76.308 12.3992 75.9453 12.3675 75.6743 12.3472C75.4034 12.3268 75.0613 12.2951 74.9167 12.277C74.7721 12.2589 74.5195 12.2227 74.3542 12.1978C74.1889 12.1729 73.9892 12.1389 73.9065 12.1231C73.8239 12.105 73.6746 12.0755 73.5736 12.0529C73.4726 12.0325 73.266 11.985 73.1144 11.9465C72.9629 11.908 72.7012 11.8333 72.5359 11.779C72.3683 11.7246 72.1341 11.6431 72.0193 11.5979C71.9022 11.5526 71.6405 11.4371 71.4384 11.3375C71.2364 11.2402 71.0504 11.1474 71.0252 11.1315C70.9999 11.1157 70.876 11.0365 70.7497 10.955C70.6234 10.8735 70.4214 10.7308 70.302 10.6358C70.1826 10.5407 69.9943 10.3709 69.8864 10.2622C69.7785 10.1513 69.6293 9.97928 69.5535 9.87967C69.4778 9.78007 69.3745 9.63292 69.3216 9.55143C69.2711 9.46993 69.1816 9.30694 69.1242 9.18923C69.0668 9.07151 68.9796 8.85192 68.9291 8.70252C68.8785 8.55311 68.8211 8.34937 68.8028 8.24976C68.7821 8.15016 68.7546 8.00301 68.7408 7.92152C68.7247 7.84002 68.7086 7.57516 68.7018 7.33294C68.6903 6.98658 68.6972 6.83038 68.727 6.60853C68.75 6.45234 68.7821 6.25312 68.8028 6.1671C68.8211 6.07881 68.851 5.95657 68.8694 5.89545C68.8877 5.83206 68.9199 5.73019 68.9405 5.66907C68.9612 5.60569 68.9956 5.51514 69.0163 5.46533C69.0392 5.41553 69.0875 5.30913 69.1242 5.22764C69.1609 5.14614 69.2574 4.9741 69.3377 4.8428C69.4158 4.7115 69.5558 4.51229 69.6454 4.40137C69.7372 4.28818 69.8979 4.1116 70.0058 4.00973C70.1114 3.9056 70.2721 3.76072 70.3594 3.69054C70.4466 3.6181 70.6326 3.48454 70.7726 3.39173C70.9127 3.29891 71.1078 3.17667 71.2089 3.11781C71.3099 3.06122 71.4913 2.9684 71.6106 2.91407C71.73 2.85748 71.8861 2.7873 71.955 2.76014C72.0239 2.73297 72.102 2.70128 72.1272 2.68996C72.1525 2.67864 72.2604 2.63789 72.3683 2.59941C72.4762 2.56093 72.6162 2.51339 72.6782 2.49528C72.7425 2.47943 72.8504 2.44774 72.9193 2.42963C72.9882 2.40925 73.1236 2.3753 73.2178 2.35266C73.3119 2.32776 73.4565 2.2938 73.5392 2.27569C73.6218 2.25758 73.8078 2.22136 73.9524 2.19646C74.0971 2.17156 74.3037 2.13987 74.4116 2.12402C74.5195 2.11044 74.7927 2.08554 75.02 2.06969C75.2473 2.05384 75.5664 2.04026 75.7318 2.038ZM30.2618 2.51112H35.2439L35.2852 2.59488C35.3081 2.64242 35.4092 2.81899 35.5102 2.98651C35.6112 3.15403 35.7007 3.30797 35.7099 3.32608C35.7191 3.34419 35.7558 3.40531 35.7903 3.4619C35.8247 3.52076 35.9556 3.74261 36.0819 3.95767C36.2081 4.17273 36.3367 4.39005 36.3688 4.44438C36.401 4.49644 36.4928 4.65491 36.5755 4.79526C36.6581 4.93561 36.7454 5.08729 36.7729 5.13256C36.7982 5.17784 36.9176 5.37931 37.0369 5.57852C37.1563 5.77773 37.2619 5.95657 37.2711 5.97468C37.2803 5.99279 37.3102 6.04486 37.3354 6.08787C37.363 6.13088 37.4686 6.30972 37.5719 6.48403C37.6729 6.65834 37.7693 6.82133 37.7854 6.84623C37.8015 6.87113 37.8221 6.90735 37.8313 6.92546C37.8405 6.94357 37.9415 7.11788 38.0563 7.3103C38.1711 7.50272 38.2721 7.67703 38.2813 7.69514C38.2905 7.71325 38.3226 7.76985 38.3548 7.81965C38.3869 7.86945 38.4328 7.94868 38.4581 7.99396C38.4833 8.0415 38.5109 8.07998 38.5224 8.07998C38.5316 8.07772 38.6188 7.93963 38.7152 7.76758C38.814 7.5978 38.9907 7.29445 39.1101 7.09524C39.2295 6.89603 39.3466 6.69682 39.3696 6.65381C39.3948 6.6108 39.4361 6.53383 39.466 6.48403C39.4935 6.43423 39.5372 6.36178 39.5601 6.32556C39.5831 6.28708 39.6497 6.17616 39.7094 6.07655C39.7667 5.97694 39.8241 5.8796 39.8356 5.86149C39.8471 5.84338 39.9045 5.74604 39.9619 5.64644C40.0216 5.54683 40.079 5.44949 40.0882 5.43138C40.0996 5.41327 40.18 5.27518 40.2672 5.12577C40.3545 4.97636 40.5542 4.63906 40.7081 4.37873C40.8619 4.11613 41.0616 3.78109 41.1489 3.63169C41.2361 3.48228 41.3165 3.34419 41.3279 3.32608C41.3394 3.30797 41.3922 3.21515 41.4496 3.12234C41.5047 3.02952 41.608 2.85295 41.8101 2.51112L46.7807 2.52244L46.7876 2.60167C46.7921 2.65449 46.7799 2.696 46.7508 2.72618C46.7279 2.75108 46.6452 2.86201 46.5694 2.97519C46.4937 3.08612 46.3559 3.28986 46.2595 3.42795C46.1654 3.56377 45.9496 3.8807 45.7774 4.12971C45.6075 4.37873 45.3802 4.70924 45.2723 4.86544C45.1667 5.02164 44.9761 5.29555 44.8521 5.47665C44.7281 5.65775 44.4963 5.99279 44.3379 6.2237C44.1794 6.4546 43.9498 6.78964 43.8259 6.97074C43.6996 7.15184 43.5297 7.40085 43.4425 7.52536C43.3575 7.64987 43.1899 7.89435 43.0705 8.06866C42.9511 8.24297 42.7514 8.53273 42.6251 8.71383C42.5011 8.89494 42.2624 9.24129 42.0971 9.48351C41.9295 9.72574 41.7274 10.0223 41.6448 10.14C41.5644 10.2577 41.4473 10.423 41.282 10.6607L41.429 10.8689C41.5116 10.9844 41.5966 11.1044 41.6195 11.1361C41.6448 11.1678 41.7251 11.2787 41.7986 11.3851C41.8721 11.4915 41.98 11.6431 42.0374 11.7246C42.0925 11.8061 42.1705 11.9171 42.2096 11.9714C42.2486 12.0257 42.3152 12.1163 42.3542 12.1751C42.3955 12.2317 42.4644 12.3291 42.508 12.3924C42.5517 12.4536 42.6596 12.6075 42.7491 12.732C42.8363 12.8565 42.9879 13.0716 43.0843 13.2074C43.1784 13.3432 43.3345 13.5628 43.4264 13.6941C43.5205 13.8254 43.6697 14.0337 43.757 14.1582C43.8442 14.2827 43.9866 14.4864 44.0715 14.6109C44.1588 14.7354 44.2391 14.8486 44.2483 14.86C44.2598 14.8713 44.3057 14.9369 44.3539 15.0026C44.3998 15.066 44.4825 15.1837 44.5376 15.2629C44.5927 15.3399 44.8613 15.7247 45.1391 16.1163C45.4146 16.508 45.6741 16.8747 45.7131 16.9313C45.7521 16.9879 45.8348 17.1033 45.8968 17.1916C45.9587 17.2777 46.0437 17.3999 46.085 17.4588C46.1263 17.5176 46.186 17.6014 46.2182 17.6444C46.2503 17.6874 46.31 17.7712 46.3513 17.83C46.3927 17.8889 46.5603 18.1266 46.7256 18.3575C46.8886 18.5884 47.0493 18.8147 47.0791 18.86C47.1113 18.9076 47.1365 18.9709 47.1365 19.0592H42.1545L42.0695 18.9279C42.0236 18.8578 41.9111 18.6857 41.8216 18.5499C41.7297 18.4141 41.6057 18.2239 41.5438 18.1311C41.4818 18.0383 41.4267 17.95 41.4198 17.9387C41.4129 17.9274 41.3463 17.8255 41.2728 17.7123C41.1994 17.5991 41.0593 17.3908 40.9629 17.2482C40.8665 17.1056 40.7838 16.9766 40.7792 16.9653C40.7723 16.9539 40.7104 16.8566 40.6392 16.7502C40.568 16.6438 40.428 16.4333 40.3269 16.2793C40.2282 16.1277 40.0721 15.8922 39.9849 15.7587C39.8976 15.6228 39.7667 15.4282 39.6979 15.324C39.629 15.2199 39.567 15.1225 39.5601 15.109C39.5532 15.0976 39.4706 14.9686 39.3742 14.826C39.2777 14.6834 39.14 14.4751 39.0665 14.3619C38.9907 14.2487 38.9196 14.1401 38.9058 14.1197C38.8943 14.0993 38.8185 13.9816 38.7382 13.8594C38.6601 13.7371 38.5752 13.6126 38.5086 13.5243L38.4811 13.5809C38.465 13.6126 38.3777 13.7507 38.2859 13.8865C38.1941 14.0224 38.0586 14.2261 37.9851 14.3393C37.9117 14.4525 37.8451 14.5543 37.8382 14.5657C37.8313 14.577 37.7647 14.6789 37.6913 14.792C37.6178 14.9052 37.4915 15.0931 37.4135 15.2108C37.3354 15.3286 37.216 15.5119 37.1448 15.6183C37.076 15.7247 36.9015 15.9896 36.7591 16.2069C36.6168 16.4242 36.4331 16.7049 36.3505 16.8294C36.2678 16.9539 36.153 17.126 36.0933 17.2143C36.0336 17.3003 35.9831 17.384 35.9762 17.3954C35.9717 17.409 35.889 17.5357 35.7926 17.6783C35.6961 17.821 35.5676 18.0156 35.5079 18.1085C35.4459 18.2013 35.3242 18.3914 35.2324 18.5272C35.1428 18.6631 35.028 18.8396 34.888 19.0592H29.9174V18.9845C29.9174 18.9415 29.9427 18.8804 29.9817 18.8329C30.0161 18.7898 30.1034 18.6676 30.1768 18.5612C30.2503 18.4548 30.3376 18.328 30.372 18.2782C30.4064 18.2307 30.5396 18.0405 30.6682 17.8594C30.7967 17.6783 30.9368 17.4814 30.9781 17.4225C31.0194 17.3614 31.0883 17.2663 31.1296 17.2075C31.171 17.1486 31.3018 16.963 31.4212 16.7955C31.5406 16.628 31.6784 16.4333 31.7266 16.3654C31.7748 16.2974 31.8804 16.1435 31.963 16.0258C32.0457 15.9081 32.1834 15.7134 32.2661 15.5957C32.351 15.478 32.4268 15.3693 32.4383 15.358C32.4475 15.3467 32.5232 15.238 32.6059 15.1203C32.6885 15.0026 32.7919 14.8532 32.8355 14.792C32.8791 14.7287 32.9663 14.6064 33.0283 14.5204C33.0903 14.4321 33.1707 14.3212 33.2051 14.2714C33.2418 14.2216 33.3061 14.1288 33.3498 14.0676C33.3911 14.0043 33.499 13.8526 33.5885 13.7281C33.6758 13.6036 33.8296 13.3862 33.9283 13.2459C34.027 13.1055 34.1418 12.9425 34.1832 12.8837C34.2245 12.8248 34.2934 12.7252 34.337 12.6641C34.3806 12.6007 34.4449 12.5102 34.4816 12.4604C34.5184 12.4106 34.5964 12.2974 34.6584 12.2113C34.7204 12.1231 34.8053 12.0008 34.8513 11.9397C34.8949 11.8763 34.9615 11.7858 34.9959 11.736C35.0326 11.6862 35.0969 11.5933 35.1405 11.5322C35.1819 11.4688 35.2898 11.3172 35.3793 11.1927C35.4689 11.0681 35.5882 10.8984 35.6456 10.8123C35.7421 10.672 35.7467 10.6561 35.7168 10.6086C35.6984 10.5814 35.5836 10.4162 35.462 10.2419C35.3426 10.0676 35.1015 9.71668 34.927 9.46314C34.7548 9.2096 34.5459 8.90399 34.4633 8.78401C34.3806 8.66403 34.2153 8.42634 34.0959 8.25203C33.9765 8.07998 33.8503 7.89662 33.8158 7.84455C33.7814 7.79475 33.7423 7.73589 33.7286 7.71778C33.7148 7.69967 33.6758 7.64081 33.6413 7.59101C33.6069 7.53894 33.4852 7.3601 33.3704 7.19485C33.2556 7.02733 33.088 6.78511 32.9962 6.65381C32.9067 6.52251 32.7643 6.31425 32.6794 6.18974C32.5967 6.06523 32.5186 5.95204 32.5072 5.94072C32.4957 5.92714 32.4222 5.82075 32.3419 5.70303C32.2638 5.58531 32.1031 5.34988 31.986 5.18236C31.8689 5.01485 31.7082 4.77941 31.6278 4.6617C31.5475 4.54398 31.3087 4.19763 31.0998 3.89202C30.8909 3.58641 30.6498 3.23779 30.5648 3.11555C30.4799 2.9933 30.3789 2.8439 30.3376 2.7873C30.2893 2.71486 30.2641 2.65374 30.2641 2.59488L30.2618 2.51112ZM16.6748 23.3151C16.6908 23.3151 16.7666 23.3808 16.8424 23.4577C16.9181 23.5347 17.1707 23.7973 17.4026 24.0418C17.6367 24.284 18.0707 24.7322 18.3691 25.0356C18.6653 25.3412 19.012 25.6989 19.1382 25.8279C19.2622 25.9592 19.6181 26.3259 19.928 26.6428C20.2403 26.962 20.5709 27.2993 20.665 27.3967C20.7591 27.494 20.8441 27.5732 20.8533 27.5732C20.8624 27.5732 20.8716 26.6338 20.8716 23.4057H21.9048V26.6994C21.9048 29.3209 21.8979 29.9955 21.8749 29.9955C21.8589 29.9955 21.6959 29.8461 21.5122 29.6604C21.3285 29.4771 20.991 29.133 20.766 28.8953C20.5387 28.6599 20.1875 28.2977 19.9854 28.0917C19.7811 27.8879 19.416 27.5099 19.1704 27.2541C18.927 27.0005 18.5 26.5591 18.2199 26.2761C17.9421 25.9931 17.7056 25.7622 17.6964 25.7622C17.6872 25.7622 17.6804 26.6926 17.6804 29.9027H16.6472V26.6089C16.6472 23.9897 16.6518 23.3151 16.6748 23.3151ZM75.9682 23.3196C75.9889 23.3242 76.1106 23.4351 76.2345 23.5641C76.3585 23.6954 76.6226 23.9671 76.82 24.164C77.0174 24.3632 77.3687 24.7254 77.6006 24.9677C77.8325 25.2121 78.1838 25.5743 78.3812 25.7713C78.5786 25.9705 78.9253 26.3282 79.1503 26.5636C79.3776 26.8013 79.6945 27.1273 80.149 27.5823L80.1513 23.4057H81.2074V26.6994C81.2074 29.8234 81.2051 29.9932 81.1661 29.9932C81.1431 29.9932 80.909 29.7691 80.6381 29.4907C80.3694 29.2145 79.8046 28.6304 79.3822 28.1935C78.9575 27.7589 78.2664 27.0458 77.8463 26.6089C77.4261 26.1742 77.0588 25.7962 76.9807 25.726L76.983 29.9027H75.9269V26.6089C75.9292 23.5256 75.9315 23.3128 75.9682 23.3196ZM87.8425 23.3196C87.9619 23.3174 88.1777 23.3355 88.3247 23.3604C88.4693 23.3853 88.6851 23.4351 88.8068 23.4736C88.9262 23.5121 89.1076 23.5845 89.2086 23.632C89.3096 23.6818 89.4887 23.786 89.6104 23.8629C89.7297 23.9422 89.8629 24.0372 89.9065 24.0735C89.9502 24.112 90.0259 24.1776 90.166 24.2998L90.1223 24.3678C90.0994 24.4062 89.9846 24.5647 89.8675 24.7186C89.7481 24.8748 89.631 25.031 89.553 25.1284L89.4152 24.9971C89.3394 24.9224 89.204 24.816 89.1167 24.7594C89.0272 24.7051 88.9032 24.6326 88.8412 24.6009C88.777 24.5692 88.669 24.5217 88.6002 24.4968C88.529 24.4696 88.3752 24.4289 88.2558 24.404C88.1341 24.3791 87.9596 24.3587 87.8655 24.3587C87.7691 24.3587 87.5946 24.3791 87.4752 24.404C87.3535 24.4289 87.1997 24.4696 87.1308 24.4945C87.0596 24.5217 86.9517 24.5692 86.8897 24.6009C86.8254 24.6349 86.7015 24.7096 86.6142 24.7662C86.5247 24.825 86.3502 24.979 86.2239 25.108C86.0908 25.2416 85.953 25.4114 85.9002 25.5019C85.8474 25.5879 85.7739 25.7351 85.7349 25.8279C85.6959 25.923 85.6431 26.086 85.6155 26.1901C85.5811 26.335 85.5696 26.4595 85.5696 26.6768C85.5696 26.9213 85.5788 27.0096 85.627 27.1861C85.6591 27.3061 85.7395 27.5144 85.8084 27.6502C85.8864 27.8064 85.9898 27.9671 86.0862 28.0803C86.1688 28.1822 86.3066 28.3225 86.3915 28.3927C86.4742 28.4652 86.628 28.5738 86.729 28.6327C86.8301 28.6938 86.9839 28.7708 87.0734 28.8047C87.1606 28.841 87.3099 28.8885 87.4063 28.9111C87.528 28.9406 87.6612 28.9519 87.877 28.9519C88.0974 28.9519 88.2168 28.9406 88.3361 28.9089C88.4234 28.8862 88.5382 28.8523 88.5887 28.8342C88.6392 28.8161 88.7012 28.7911 88.7264 28.7776C88.7517 28.7662 88.8183 28.7323 88.8757 28.7029C88.9308 28.6734 89.0456 28.6055 89.1282 28.5489C89.2086 28.4923 89.3394 28.3927 89.4152 28.3271C89.491 28.2592 89.5621 28.2094 89.5759 28.2116C89.5874 28.2162 89.6333 28.2728 89.6792 28.3361C89.7229 28.3973 89.8009 28.5082 89.856 28.5829C89.9088 28.6553 89.9938 28.7708 90.0443 28.8387C90.0948 28.9089 90.1453 28.979 90.1522 28.9972C90.1637 29.0221 90.1315 29.0651 90.0535 29.133C89.9915 29.1896 89.8537 29.3005 89.7458 29.3775C89.6402 29.4567 89.5392 29.5291 89.5231 29.5427C89.507 29.554 89.3923 29.6152 89.266 29.6763C89.1397 29.7397 89.0272 29.7895 89.018 29.7895C89.0088 29.7895 88.9698 29.8053 88.9331 29.8234C88.894 29.8438 88.8458 29.8574 88.8229 29.8574C88.7999 29.8574 88.7586 29.871 88.731 29.8845C88.7035 29.8981 88.5611 29.9276 88.4165 29.9525C88.2696 29.9751 88.0377 29.9932 87.8999 29.9932C87.7507 29.9932 87.5372 29.9751 87.3833 29.9502C87.2364 29.9253 87.0619 29.8913 86.9931 29.8732C86.9219 29.8551 86.7841 29.8098 86.6831 29.7691C86.5821 29.7306 86.4099 29.6514 86.3043 29.5948C86.1964 29.5382 86.0471 29.4476 85.9714 29.3956C85.8956 29.3458 85.7969 29.2733 85.7533 29.2348C85.7074 29.1986 85.5994 29.0968 85.5099 29.0107C85.4204 28.9225 85.3148 28.8115 85.2711 28.7595C85.2298 28.7097 85.1288 28.5738 85.0507 28.4538C84.9704 28.3361 84.8694 28.1641 84.8257 28.069C84.7821 27.9762 84.7247 27.8381 84.7018 27.7634C84.6765 27.691 84.6398 27.5732 84.6191 27.5031C84.6007 27.4352 84.5709 27.3242 84.5571 27.2541C84.5411 27.1861 84.525 26.962 84.5181 26.756C84.5089 26.4663 84.5158 26.335 84.5456 26.1561C84.5686 26.0316 84.6168 25.8279 84.6558 25.7034C84.6949 25.5789 84.7706 25.3865 84.8234 25.2733C84.8785 25.1623 84.952 25.0243 84.9865 24.9654C85.0232 24.9065 85.0921 24.8001 85.1426 24.7277C85.1931 24.6553 85.3584 24.4719 85.5099 24.3225C85.6614 24.1731 85.8543 24.0033 85.9369 23.949C86.0173 23.8924 86.1413 23.8154 86.2124 23.7747C86.2813 23.7362 86.3938 23.6773 86.465 23.6434C86.5339 23.6117 86.6211 23.5709 86.6601 23.5528C86.6969 23.537 86.7635 23.5121 86.8094 23.4985C86.853 23.4826 86.9448 23.4555 87.016 23.4374C87.0849 23.4192 87.2502 23.3853 87.3833 23.3626C87.5142 23.34 87.7209 23.3196 87.8425 23.3196ZM11.9866 23.4283H13.0197V29.88H11.9866V23.4283ZM25.0961 23.4283H29.6189V24.447H27.897V29.88H26.8409L26.8294 24.4583L25.0961 24.447V23.4283ZM32.8102 23.4283H36.7017V24.4357L33.8434 24.447V26.0769H36.3229V27.1182H33.8434L33.8548 28.8727L36.7132 28.884V29.88H32.8102V23.4283ZM40.1341 23.4283H41.1902V28.884H44.106V29.88H40.1341V23.4283ZM47.2743 23.4283H48.3051L48.3189 28.8727L51.2232 28.884V29.88H47.2743V23.4283ZM54.4145 23.4283H55.4476V29.88H54.4145V23.4283ZM68.603 23.4283H72.4946V24.4357L69.6362 24.447V26.0769H72.1157L72.1043 27.1069L69.6362 27.1182V28.884H72.506V29.88H68.603V23.4283ZM93.3297 23.4283L97.2442 23.4396V24.4357L94.3858 24.447V26.0769H96.8653V27.1182H94.3858V28.884H97.2556V29.88H93.3297V23.4283Z" fill="white"/>
</svg>
