<svg width="111" height="32" viewBox="0 0 111 32" fill="none" xmlns="http://www.w3.org/2000/svg">
<g clip-path="url(#clip0_32214_59553)">
<path d="M49.5752 12.3906C52.0381 12.3906 53.6932 13.8145 53.6934 16.6621V22.8203H52.1924L52.1348 21.2617C51.6921 22.1852 50.4991 23.0122 48.9023 23.0508C46.8818 23.0123 45.2266 21.9345 45.2266 20.1064C45.2267 17.9516 46.8239 17.4324 49.0752 17.0283L52.0381 16.4893C52.0188 14.796 51.057 13.9688 49.5752 13.9688C48.3438 13.9688 47.4397 14.7189 47.1895 15.7578L45.3994 15.623C45.8035 13.6797 47.4587 12.3907 49.5752 12.3906ZM60.0732 12.3906C62.209 12.3908 63.8447 13.6803 64.1719 15.6621L62.5166 15.7773C62.2857 14.642 61.1887 13.9688 59.8994 13.9688C58.8604 13.9688 57.8789 14.4883 57.8789 15.5273C57.8791 16.6431 59.2067 16.8744 60.2842 17.1631C62.1892 17.6441 64.2295 18.26 64.2295 20.2227C64.2292 22.2236 62.2472 23.0508 60.2461 23.0508C57.8985 23.0508 55.9742 21.723 55.8203 19.6064L57.5332 19.4912C57.7449 20.7034 58.8415 21.4727 60.2461 21.4727C61.3237 21.4726 62.4971 21.2035 62.4971 20.126C62.497 19.01 61.0736 18.8556 59.9961 18.6055C58.1489 18.1628 56.1475 17.5089 56.1475 15.623C56.1476 13.5451 57.9951 12.3906 60.0732 12.3906ZM70.4336 12.3906C72.6657 12.3906 74.6862 13.8342 74.8594 17.4902L74.8789 17.5283V18.2402H67.5088C67.6627 20.2798 68.7019 21.4726 70.4336 21.4727C71.5112 21.4727 72.4923 20.8572 72.9541 19.7988L74.7246 19.9336C74.128 21.8578 72.3964 23.0508 70.4336 23.0508C67.6051 23.0507 65.7578 20.9727 65.7578 17.7207C65.7578 14.4688 67.6051 12.3907 70.4336 12.3906ZM101.421 9.15625V13.9287C101.998 12.9281 103.037 12.3887 104.538 12.3887C107.501 12.3889 108.849 14.9289 108.849 17.7188C108.849 20.5088 107.501 23.0486 104.538 23.0488C102.96 23.0488 101.882 22.4336 101.324 21.3945L101.267 22.8184H99.7656V9.15625H101.421ZM90.8584 18.6982C90.8585 20.5837 91.4742 21.584 92.9365 21.584C94.4948 21.5838 95.5526 20.5835 95.5527 18.6982V12.6172H97.208V22.8154H95.6299V21.1416C95.0911 22.45 93.9175 23.0469 92.5898 23.0469C90.3192 23.0469 89.2031 21.3339 89.2031 19.1787V12.6172H90.8584V18.6982ZM37.877 9.15625C40.8595 9.15625 42.7266 10.6189 42.7266 12.9473C42.7264 14.3325 41.6874 15.4681 40.2637 15.7568C42.072 16.0071 43.3035 17.2572 43.3037 18.9502C43.3037 21.2208 41.379 22.8184 38.6465 22.8184H34.125V9.15625H37.877ZM78.584 15.1211H84.8184V9.15625H86.5117V22.8184H84.8184V16.7764H78.584V22.8184H76.8906V9.15625H78.584V15.1211ZM49.6904 18.375C48.1897 18.6635 46.9582 18.6446 46.958 20.1064C46.958 20.8954 47.6318 21.7419 49.1133 21.665C50.7681 21.5881 52.0771 20.4912 52.0771 18.6055V17.9326L49.6904 18.375ZM104.191 13.8896C102.094 13.8897 101.267 15.7562 101.267 17.7188C101.267 19.6046 102.094 21.4717 104.191 21.4717C106.308 21.4717 107.116 19.6238 107.116 17.7188C107.116 15.7369 106.308 13.8896 104.191 13.8896ZM35.8184 21.1631H38.6465C40.3399 21.1631 41.5332 20.3164 41.5332 18.9502C41.5329 17.565 40.3397 16.6992 38.6465 16.6992H35.8184V21.1631ZM70.4336 13.9688C68.8366 13.9688 67.8172 15.0081 67.5479 16.7783H73.0703C72.7817 14.6617 71.6459 13.9688 70.4336 13.9688ZM35.8184 15.0449H37.877C39.7625 15.0449 40.9559 14.2363 40.9561 12.9473C40.9561 11.6388 39.7627 10.8115 37.877 10.8115H35.8184V15.0449Z" fill="white"/>
<mask id="mask0_32214_59553" style="mask-type:luminance" maskUnits="userSpaceOnUse" x="0" y="0" width="25" height="32">
<path d="M19.6845 0H5.11117C2.29698 0 0.015625 2.28135 0.015625 5.09554V26.9045C0.015625 29.7187 2.29698 32 5.11117 32H19.6845C22.4987 32 24.78 29.7187 24.78 26.9045V5.09554C24.78 2.28135 22.4987 0 19.6845 0Z" fill="white"/>
</mask>
<g mask="url(#mask0_32214_59553)">
<path d="M19.6845 -0.0078125H5.11117C2.29698 -0.0078125 0.015625 2.27354 0.015625 5.08773V26.8966C0.015625 29.7108 2.29698 31.9922 5.11117 31.9922H19.6845C22.4987 31.9922 24.78 29.7108 24.78 26.8966V5.08773C24.78 2.27354 22.4987 -0.0078125 19.6845 -0.0078125Z" fill="black"/>
<path d="M43.0952 5.05334L8.78906 39.3594L10.6139 41.1842L44.92 6.87813L43.0952 5.05334Z" fill="white" fill-opacity="0.6"/>
<path opacity="0.5" d="M43.0952 1.43615L8.78906 35.7422L10.6139 37.567L44.92 3.26095L43.0952 1.43615Z" fill="white"/>
<path opacity="0.4" d="M39.4859 1.43615L5.17969 35.7422L7.00449 37.567L41.3107 3.26095L39.4859 1.43615Z" fill="white"/>
<path opacity="0.35" d="M35.8765 1.43615L1.57031 35.7422L3.39511 37.567L37.7013 3.26095L35.8765 1.43615Z" fill="white"/>
<path opacity="0.3" d="M34.8374 -1.14197L0.53125 33.1641L2.35605 34.9889L36.6622 0.682822L34.8374 -1.14197Z" fill="white"/>
<path opacity="0.25" d="M34.3218 -4.24353L0.015625 30.0625L1.84043 31.8873L36.1466 -2.41874L34.3218 -4.24353Z" fill="white"/>
<path opacity="0.2" d="M32.7749 -6.30603L-1.53125 28L0.293551 29.8248L34.5997 -4.48124L32.7749 -6.30603Z" fill="white"/>
<path opacity="0.15" d="M29.1577 -6.30603L-5.14844 28L-3.32364 29.8248L30.9825 -4.48124L29.1577 -6.30603Z" fill="white"/>
<path opacity="0.1" d="M25.5484 -6.30603L-8.75781 28L-6.93301 29.8248L27.3732 -4.48124L25.5484 -6.30603Z" fill="white"/>
</g>
<path d="M19.6759 0.773438H5.10259C2.71598 0.773438 0.78125 2.70817 0.78125 5.09478V26.9037C0.78125 29.2903 2.71598 31.225 5.10259 31.225H19.6759C22.0625 31.225 23.9972 29.2903 23.9972 26.9037V5.09478C23.9972 2.70817 22.0625 0.773438 19.6759 0.773438Z" stroke="white" stroke-width="1.54839"/>
</g>
<defs>
<clipPath id="clip0_32214_59553">
<rect width="110.4" height="32" fill="white"/>
</clipPath>
</defs>
</svg>
