<?xml version="1.0" encoding="UTF-8"?>
<svg xmlns="http://www.w3.org/2000/svg" width="173" height="40" viewBox="0 0 173 40" fill="none">
  <g clip-path="url(#clip0_11423_17158)">
    <path d="M129.894 10.9536H131.445L132.995 11.1984L134.301 11.6064L135.607 12.2591L136.504 12.8302L137.565 13.7278L138.381 14.6253L139.116 15.686L139.768 16.9914L140.258 18.4601L140.421 19.3576L140.503 20.2551V28.5776L140.34 29.9646L140.013 31.1885L139.524 32.4124L138.789 33.7179L137.892 34.7786L136.994 35.6761L135.688 36.5736L134.138 37.3079L132.751 37.7159L130.792 37.9607H130.71V33.7179L132.098 33.4731L133.159 33.0651L133.975 32.5756L134.791 31.8413L135.443 30.9437L135.852 30.0462L136.178 28.9039L134.464 29.8015L133.24 30.2094L131.935 30.4542L130.384 30.5358L128.915 30.3726L127.365 29.9646L126.059 29.3935L124.917 28.6592L124.019 27.9248L123.203 27.1089L122.305 25.885L121.652 24.5795L121.244 23.4372L120.918 21.8054V19.6024L121.244 17.9706L121.734 16.6651L122.468 15.3596L123.284 14.2989L123.856 13.6462L124.753 12.9118L125.896 12.1775L127.038 11.6064L128.344 11.1984L129.894 10.9536ZM129.731 15.278L128.589 15.6044L127.528 16.1755L126.549 17.073L125.977 17.8074L125.406 18.9497L125.161 20.0104V21.5606L125.488 22.7845L125.977 23.7636L126.549 24.4979L127.12 25.0691L128.262 25.8034L129.486 26.2114L129.894 26.293H131.445L132.506 26.0482L133.811 25.3955L134.627 24.7427L135.362 23.8452L135.933 22.7029L136.178 21.8054L136.26 21.2343V20.3367L136.015 19.1129L135.607 18.1337L134.872 17.073L134.301 16.5019L133.159 15.7676L132.016 15.3596L131.608 15.278H129.731Z" fill="url(#paint0_linear_11423_17158)"></path>
    <path d="M159.516 10.9536H161.067L162.617 11.1984L163.923 11.6064L165.229 12.2591L166.126 12.8302L167.024 13.5646L167.758 14.2989L168.656 15.5228L169.309 16.7467L169.799 18.1337L170.125 19.7656V29.0671L169.799 30.699L169.391 31.9229L168.575 33.4731L167.758 34.5338L166.616 35.6761L165.31 36.5736L163.76 37.3079L162.373 37.7159L160.414 37.9607L160.333 33.7995L160.822 33.6363L162.046 33.3915L163.352 32.7388L164.086 32.1676L164.821 31.3517L165.31 30.4542L165.637 29.5567L165.8 28.9039L164.658 29.5567L163.433 30.0462L162.046 30.3726L160.577 30.5358L159.027 30.4542L157.476 30.1278L155.844 29.4751L154.62 28.7407L153.478 27.7616L152.907 27.1905L152.091 26.1298L151.438 24.9875L150.866 23.4372L150.622 22.3765L150.54 21.7238V19.684L150.866 18.0521L151.356 16.7467L152.091 15.3596L152.907 14.2989L154.049 13.1566L155.355 12.2591L156.905 11.5248L158.374 11.1168L159.516 10.9536ZM159.353 15.278L158.048 15.686L157.15 16.1755L156.171 17.073L155.599 17.8074L155.11 18.7865L154.783 20.0104V21.479L155.11 22.7845L155.599 23.7636L156.252 24.5795L157.068 25.3139L157.884 25.8034L159.108 26.2114L159.516 26.293H161.149L162.128 26.0482L163.433 25.3955L164.331 24.6611L164.984 23.8452L165.555 22.7029L165.8 21.887L165.882 21.2343V20.2551L165.637 19.1129L165.229 18.1337L164.658 17.2362L163.923 16.5019L162.781 15.7676L161.638 15.3596L161.23 15.278H159.353Z" fill="url(#paint1_linear_11423_17158)"></path>
    <path d="M44.9449 3.12085H49.0251L49.1067 6.62932V12.2592L49.0251 12.6672L50.494 11.8512L51.718 11.3617L53.1869 11.0353L53.8397 10.9537H55.4718L57.0223 11.1985L58.4911 11.688L59.7968 12.3408L61.1025 13.3199L62.2449 14.4622L63.061 15.6045L63.7138 16.91L64.1218 18.0523L64.4482 19.6841V21.7239L64.2034 23.111L63.7138 24.5796L63.061 25.8851L62.0817 27.1906L61.1025 28.1697L59.8784 29.0672L58.5728 29.72L57.5119 30.1279L55.8798 30.4543L54.4109 30.5359L52.8605 30.3727L51.31 29.9647L49.5963 29.1488L48.6987 28.4961L47.6378 27.5986L46.7402 26.5379L46.0873 25.4772L45.5977 24.498L45.1081 23.0294L44.8633 21.3975V3.20244L44.9449 3.12085ZM54.5742 15.1149L53.3501 15.2781L52.2076 15.6861L51.31 16.2572L50.494 16.9916L49.7595 18.0523L49.3515 19.0314L49.1883 19.6025L49.1067 20.2552V21.1528L49.3515 22.3766L49.8411 23.5189L50.4124 24.2533L51.31 25.1508L52.4525 25.8035L53.4317 26.1299L53.9213 26.2115H55.4718L56.6959 25.8851L57.6751 25.3956L58.4911 24.7428L59.2256 23.9269L59.7968 22.9478L60.1232 21.8871L60.2048 21.3975V20.0105L59.8784 18.705L59.3072 17.5627L58.4095 16.5836L57.5935 15.9309L56.5327 15.4413L55.635 15.1965L54.5742 15.1149Z" fill="url(#paint2_linear_11423_17158)"></path>
    <path d="M75.0565 10.9536H76.6886L78.2391 11.1984L79.7079 11.6879L81.2584 12.5039L82.3193 13.3198L83.4617 14.4621L84.2778 15.6044L84.9306 16.9099L85.3386 18.0521L85.5834 19.1129L85.665 19.7656V21.7238L85.5834 22.2134H70.5683L71.0579 23.4372L71.6292 24.2532L72.1188 24.8243L73.1796 25.5586L74.0773 25.9666L75.1381 26.2114H76.6886L77.9127 25.885L79.1367 25.2323L80.116 24.3348L80.3608 24.0084H84.7674L85.0938 24.1716L84.3594 25.7218L83.5433 26.8641L82.6457 27.8432L81.9113 28.496L80.7688 29.2303L79.6263 29.8015L78.4023 30.2094L77.0966 30.4542L75.5461 30.5358L74.0773 30.3726L72.7716 30.0462L71.3843 29.4751L70.0787 28.6592L69.2626 27.9248L68.773 27.5169L68.0386 26.6193L67.4673 25.8034L66.8145 24.4979L66.3249 23.0293L66.0801 21.479V20.0104L66.3249 18.4601L66.7329 17.1546L67.3857 15.8492L67.957 14.9516L68.6914 14.0541L69.5074 13.2382L70.8947 12.2591L72.282 11.6064L73.5876 11.1984L75.0565 10.9536ZM74.9749 15.278L73.9957 15.5228L72.8532 16.0939L71.9556 16.8283L71.2211 17.7258L70.8947 18.3785H80.8504L80.4424 17.5626L79.5447 16.5835L78.8919 16.0939L77.7495 15.5228L76.7702 15.278H74.9749Z" fill="url(#paint3_linear_11423_17158)"></path>
    <path d="M3 23.0293H8.38586L9.28351 24.09L10.0995 24.6611L10.9972 25.0691L11.9764 25.3139H13.2821L14.5062 24.9875L15.4038 24.498L16.1382 23.9268L16.8727 23.0293H22.2585L22.9114 23.8452L23.6458 24.498L24.9515 25.1507L25.6859 25.3139H27.318L28.6237 24.9059L29.5213 24.3348L30.1741 23.7636L30.7454 23.0293H36.0496V28.9039L35.8048 30.3726L35.3152 31.8413L34.6624 33.1468L33.8463 34.289L32.8671 35.3497L31.5614 36.3289L30.2557 37.0632L28.9501 37.5527L27.3996 37.8791L26.6652 37.9607H25.5227L25.4411 37.7975V32.9836L25.5227 32.902L26.9916 32.8204L28.0524 32.494L28.9501 32.0045L29.8477 31.1885L30.4189 30.291L30.6638 29.6383L29.2765 30.1278L27.6444 30.4542H25.2779L23.9722 30.2094L22.7482 29.8015L21.4425 29.1487L20.5449 28.5776L19.5656 27.7617L19.2392 27.9248L18.1783 28.7408L16.8727 29.4751L15.3222 30.0462L14.0981 30.291L13.4453 30.3726H11.7316L10.2628 30.1278L8.54907 29.5567L7.32501 28.9039L6.42737 28.2512L5.61133 27.5169L4.87689 26.7825L4.14246 25.7218L3.57123 24.7427L3 23.2741V23.0293Z" fill="url(#paint4_linear_11423_17158)"></path>
    <path d="M3.0816 3.20239H8.46747L8.54907 11.28L9.93634 10.7905L11.0788 10.5457L11.7316 10.4641H13.5269L14.9958 10.7089L16.3015 11.1169L17.6071 11.7696L18.5048 12.3407L19.3208 12.9935L19.6472 13.2383L20.6265 12.4223L21.6873 11.7696L22.9114 11.1984L24.217 10.7905L26.0123 10.5457H26.91L28.3788 10.7089L29.6029 11.0353L30.827 11.5248L32.1326 12.2591L33.0303 12.9935L33.8463 13.7278L34.8256 14.9517L35.56 16.2572L36.1312 17.7258V17.889H30.6638L30.0925 17.1547L29.3581 16.5019L28.0524 15.8492L27.4812 15.686L26.1755 15.6044L25.1963 15.7676L24.1354 16.1756L23.3194 16.7467L23.0746 16.9915H22.9114L22.7482 17.3179L22.3401 17.889H16.7911L16.3015 17.2363L15.6486 16.5835L14.5062 15.9308L13.2005 15.6044H11.9764L10.9972 15.8492L9.69153 16.5019L8.95709 17.1547L8.38586 17.889H3.0816L3 3.44717L3.0816 3.20239Z" fill="url(#paint5_linear_11423_17158)"></path>
    <path d="M96.2733 10.9536H97.8238L99.3743 11.1984L100.68 11.6064L102.067 12.2591L103.21 13.075L104.026 13.8093L104.597 14.3805L105.413 15.5228L106.147 16.9099L106.637 18.3785L106.882 19.9288V30.4542H102.72V28.8223L100.843 29.8015L99.6191 30.2094L98.3134 30.4542L96.8445 30.5358L95.2941 30.3726L93.7436 29.9646L92.5195 29.3935L91.6219 28.9039L90.8058 28.2512L89.8266 27.3537L88.929 26.2114L88.2761 25.0691L87.7865 23.9268L87.4601 22.7029L87.2969 21.6422V19.8472L87.5417 18.3785L88.0313 16.9099L88.8474 15.3596L89.745 14.2173L90.7242 13.2382L91.8667 12.4223L93.254 11.6879L94.7228 11.1984L96.2733 10.9536ZM96.1917 15.278L94.9677 15.6044L94.07 16.0939L93.3356 16.6651L92.7643 17.2362L92.1931 18.1337L91.7851 19.0313L91.5403 20.1736V21.3974L91.7851 22.5397L92.4379 23.8452L93.0092 24.5795L93.8252 25.3139L95.0493 25.9666L96.2733 26.293H97.8238L99.1295 25.9666L100.354 25.3139L101.333 24.4164L101.904 23.6004L102.394 22.5397L102.638 21.3974V20.1736L102.394 19.0313L101.741 17.7258L101.17 16.9914L100.354 16.2571L99.2111 15.6044L97.987 15.278H96.1917Z" fill="url(#paint6_linear_11423_17158)"></path>
    <path d="M109.412 4.18164H113.573V10.6274H119.367V14.2175L113.655 14.2991V21.0713L113.9 22.3767L114.308 23.3558L114.879 24.2534L115.695 25.0693L116.756 25.722L117.898 26.13L119.123 26.2932V30.536L117.817 30.4544L116.348 30.128L115.042 29.6385L113.818 28.9857L112.676 28.0882L111.533 26.9459L110.799 25.8852L110.065 24.4981L109.656 23.2743L109.412 21.9688L109.33 20.8265V4.42642L109.412 4.18164Z" fill="url(#paint7_linear_11423_17158)"></path>
    <path d="M143.359 11.0354H145.725L147.521 11.117V30.4544H143.277V11.117L143.359 11.0354Z" fill="url(#paint8_linear_11423_17158)"></path>
    <path d="M3 23.0293H8.38586L9.28351 24.09L10.0995 24.6611L10.9972 25.0691L11.9764 25.3139H13.2821L14.5062 24.9875L15.4038 24.498L16.1382 23.9268L16.7911 23.1109L16.9543 23.3557L17.6071 24.9059L18.0967 25.8034L18.7496 26.701L19.484 27.5169L19.3208 27.8432L18.1783 28.7408L16.8727 29.4751L15.3222 30.0462L14.0981 30.291L13.4453 30.3726H11.7316L10.2628 30.1278L8.54907 29.5567L7.32501 28.9039L6.42737 28.2512L5.61133 27.5169L4.87689 26.7825L4.14246 25.7218L3.57123 24.7427L3 23.2741V23.0293Z" fill="url(#paint9_linear_11423_17158)"></path>
    <path d="M26.0126 10.5457H26.9102L28.3791 10.7088L29.6031 11.0352L30.8272 11.5248L32.1329 12.2591L33.0305 12.9934L33.8466 13.7278L34.8258 14.9516L35.5602 16.2571L36.1315 17.7258V17.889H30.664L30.0928 17.1546L29.3583 16.5019L28.0527 15.8492L27.4814 15.686L26.1758 15.6044L25.1965 15.7676L24.1357 16.1755L23.3196 16.7467L23.0748 16.9915H22.9116L22.7484 17.3178L22.3404 17.889L22.1772 17.6442L21.6876 16.3387L21.1163 15.1964L19.6475 13.2382L20.6267 12.4223L21.6876 11.7695L22.9116 11.1984L24.2173 10.7904L26.0126 10.5457Z" fill="url(#paint10_linear_11423_17158)"></path>
    <path d="M144.828 3.28394H145.97L146.705 3.61031L147.357 4.09986L147.765 4.7526L147.929 5.24215V6.30285L147.684 7.03718L146.949 7.85311L146.133 8.26107L145.807 8.34266H144.909L144.175 8.09789L143.44 7.52674L143.032 6.874L142.869 6.38445V5.24215L143.196 4.42623L143.685 3.85508L144.501 3.36553L144.828 3.28394Z" fill="#FEFEFE"></path>
  </g>
  <defs>
    <linearGradient id="paint0_linear_11423_17158" x1="130.71" y1="10.9536" x2="130.71" y2="37.9607" gradientUnits="userSpaceOnUse">
      <stop stop-color="#C9CBCF"></stop>
      <stop offset="1" stop-color="#94979E"></stop>
    </linearGradient>
    <linearGradient id="paint1_linear_11423_17158" x1="160.333" y1="10.9536" x2="160.333" y2="37.9607" gradientUnits="userSpaceOnUse">
      <stop stop-color="#C9CBCF"></stop>
      <stop offset="1" stop-color="#94979E"></stop>
    </linearGradient>
    <linearGradient id="paint2_linear_11423_17158" x1="54.6558" y1="3.12085" x2="54.6558" y2="30.5359" gradientUnits="userSpaceOnUse">
      <stop stop-color="#C9CBCF"></stop>
      <stop offset="1" stop-color="#94979E"></stop>
    </linearGradient>
    <linearGradient id="paint3_linear_11423_17158" x1="75.8726" y1="10.9536" x2="75.8726" y2="30.5358" gradientUnits="userSpaceOnUse">
      <stop stop-color="#C9CBCF"></stop>
      <stop offset="1" stop-color="#94979E"></stop>
    </linearGradient>
    <linearGradient id="paint4_linear_11423_17158" x1="19.5248" y1="23.0293" x2="19.5248" y2="37.9607" gradientUnits="userSpaceOnUse">
      <stop stop-color="#C9CBCF"></stop>
      <stop offset="1" stop-color="#94979E"></stop>
    </linearGradient>
    <linearGradient id="paint5_linear_11423_17158" x1="19.5656" y1="3.20239" x2="19.5656" y2="17.889" gradientUnits="userSpaceOnUse">
      <stop stop-color="#C9CBCF"></stop>
      <stop offset="1" stop-color="#94979E"></stop>
    </linearGradient>
    <linearGradient id="paint6_linear_11423_17158" x1="97.0894" y1="10.9536" x2="97.0894" y2="30.5358" gradientUnits="userSpaceOnUse">
      <stop stop-color="#C9CBCF"></stop>
      <stop offset="1" stop-color="#94979E"></stop>
    </linearGradient>
    <linearGradient id="paint7_linear_11423_17158" x1="114.349" y1="4.18164" x2="114.349" y2="30.536" gradientUnits="userSpaceOnUse">
      <stop stop-color="#C9CBCF"></stop>
      <stop offset="1" stop-color="#94979E"></stop>
    </linearGradient>
    <linearGradient id="paint8_linear_11423_17158" x1="145.399" y1="11.0354" x2="145.399" y2="30.4544" gradientUnits="userSpaceOnUse">
      <stop stop-color="#C9CBCF"></stop>
      <stop offset="1" stop-color="#94979E"></stop>
    </linearGradient>
    <linearGradient id="paint9_linear_11423_17158" x1="11.242" y1="23.0293" x2="11.242" y2="30.3726" gradientUnits="userSpaceOnUse">
      <stop stop-color="#C9CBCF"></stop>
      <stop offset="1" stop-color="#94979E"></stop>
    </linearGradient>
    <linearGradient id="paint10_linear_11423_17158" x1="27.8895" y1="10.5457" x2="27.8895" y2="17.889" gradientUnits="userSpaceOnUse">
      <stop stop-color="#C9CBCF"></stop>
      <stop offset="1" stop-color="#94979E"></stop>
    </linearGradient>
    <clipPath id="clip0_11423_17158">
      <rect width="167.125" height="35" fill="white" transform="translate(3 3)"></rect>
    </clipPath>
  </defs>
</svg>
