<svg width="105" height="32" viewBox="0 0 105 32" fill="none" xmlns="http://www.w3.org/2000/svg">
<g clip-path="url(#clip0_32214_60276)">
<path d="M6.43848 4C6.62217 4.00015 6.77037 4.14666 6.77051 4.32812V15.8174C6.77058 18.7275 9.04521 21.0869 11.9912 21.0869H14.8535C15.0364 21.0869 15.1865 21.2352 15.1865 21.417V27.3047C15.1865 27.4614 15.0733 27.5973 14.917 27.6279C13.6581 27.875 12.7299 28 12.1553 28C5.88057 27.9998 5.7625e-05 22.676 0 15.9922V4.32812C0.000139014 4.14669 0.148381 4.00021 0.332031 4H6.43848ZM77.2705 9.33203C82.0191 9.33203 84.5534 11.5182 85.4102 14.1982L80.9473 15.2207C80.3316 13.6398 79.0012 12.9678 77.1279 12.9678C75.5436 12.9678 74.4153 13.5467 74.415 14.5146C74.415 15.572 75.2717 15.9952 76.5215 16.2773L80.2334 17.0527L80.2324 17.0557C83.6593 17.7609 85.5517 19.2071 85.5518 21.957C85.5518 25.1664 83.0519 27.7401 78.0557 27.7402C73.059 27.7402 70.4531 25.1651 69.6318 22.1328L73.9863 21.1807C74.6248 23.1838 76.1191 24.1035 78.1982 24.1035C80.0145 24.1035 81.1973 23.4285 81.1973 22.2031C81.1972 21.1096 80.304 20.5805 78.7334 20.2285L75.7354 19.5586C72.2022 18.7833 70.0959 17.7244 70.0957 14.7275C70.0957 11.5182 72.9868 9.33206 77.2705 9.33203ZM95.9014 9.33203C100.864 9.33209 104.889 13.4524 104.889 18.5361C104.888 23.6196 100.864 27.7392 95.9014 27.7393C90.9379 27.7393 86.9133 23.6196 86.9131 18.5361C86.9131 13.4524 90.9378 9.33203 95.9014 9.33203ZM34.9053 4.26172V10.9795C36.3607 9.94018 38.5863 9.33008 40.4951 9.33008L40.4941 9.33105C45.4571 9.33131 49.4813 13.4508 49.4814 18.5342C49.4814 23.6178 45.4572 27.738 40.4941 27.7383C38.414 27.7383 36.3027 27.1074 34.917 25.4883L34.8818 25.4414L34.5312 25.4463V27.2734H30.0869V4.26172H34.9053ZM63.7842 9.31738H67.7109V13.1611H63.7842V21.4541C63.7842 22.6524 64.4629 23.2871 65.6406 23.2871H67.7109V27.2725H65.1045C61.2141 27.2724 59.3693 25.2974 59.3691 21.4893V4.27539H63.7842V9.31738ZM56.1182 27.2695H51.2637V11.2715H56.1182V27.2695ZM12.1562 4C18.9209 4 24.0691 9.19521 24.0693 15.8789C24.0693 19.9276 21.8034 24.2692 18.0361 26.5791C17.8214 26.7112 17.5439 26.554 17.5439 26.3047L17.541 15.9492C17.541 12.8471 15.11 10.457 11.9697 10.457H9.46094C9.27821 10.457 9.12896 10.3104 9.12891 10.1299V4.32715C9.12896 4.14664 9.27804 4 9.46191 4H12.1562ZM40.0371 13.3105C37.3492 13.3105 35.169 15.6489 35.1689 18.5332C35.1689 21.4176 37.3491 23.7559 40.0371 23.7559C42.7248 23.7556 45.1387 21.4174 45.1387 18.5332C45.1386 15.6491 42.7247 13.3108 40.0371 13.3105ZM95.9014 13.4795C93.2135 13.4795 91.0344 15.7425 91.0342 18.5342C91.0342 21.3259 93.2134 23.5898 95.9014 23.5898C98.5893 23.5898 100.768 21.3259 100.768 18.5342C100.767 15.7426 98.5892 13.4795 95.9014 13.4795ZM56.1895 8.50684H51.1914V4.27539H56.1895V8.50684Z" fill="white"/>
</g>
<defs>
<clipPath id="clip0_32214_60276">
<rect width="105" height="32" fill="white"/>
</clipPath>
</defs>
</svg>
