<svg width="105" height="32" viewBox="0 0 105 32" fill="none" xmlns="http://www.w3.org/2000/svg">
<g clip-path="url(#clip0_33958_23982)">
<path d="M6.43848 4C6.62217 4.00015 6.77037 4.14666 6.77051 4.32812V15.8174C6.77058 18.7275 9.04521 21.0869 11.9912 21.0869H14.8535C15.0364 21.0869 15.1865 21.2352 15.1865 21.417V27.3047C15.1865 27.4614 15.0733 27.5973 14.917 27.6279C13.6581 27.875 12.7299 28 12.1553 28C5.88057 27.9998 5.7625e-05 22.676 0 15.9922V4.32812C0.000139014 4.14669 0.148381 4.00021 0.332031 4H6.43848ZM77.2715 9.33203C82.0201 9.33203 84.5543 11.5182 85.4111 14.1982L80.9482 15.2207C80.3326 13.6398 79.0022 12.9678 77.1289 12.9678C75.5446 12.9678 74.4163 13.5467 74.416 14.5146C74.416 15.572 75.2727 15.9952 76.5225 16.2773L80.2344 17.0527L80.2334 17.0557C83.6603 17.7609 85.5527 19.2071 85.5527 21.957C85.5527 25.1664 83.0529 27.7401 78.0566 27.7402C73.06 27.7402 70.4541 25.1651 69.6328 22.1328L73.9873 21.1807C74.6258 23.1838 76.1201 24.1035 78.1992 24.1035C80.0154 24.1035 81.1982 23.4285 81.1982 22.2031C81.1982 21.1096 80.305 20.5805 78.7344 20.2285L75.7363 19.5586C72.2031 18.7833 70.0968 17.7244 70.0967 14.7275C70.0967 11.5182 72.9878 9.33206 77.2715 9.33203ZM95.9023 9.33203C100.865 9.33209 104.89 13.4524 104.89 18.5361C104.889 23.6196 100.865 27.7392 95.9023 27.7393C90.9389 27.7393 86.9143 23.6196 86.9141 18.5361C86.9141 13.4524 90.9388 9.33203 95.9023 9.33203ZM34.9043 4.26172V10.9795C36.3597 9.94018 38.5853 9.33008 40.4941 9.33008L40.4932 9.33105C45.4562 9.33131 49.4804 13.4508 49.4805 18.5342C49.4805 23.6178 45.4562 27.738 40.4932 27.7383C38.413 27.7383 36.3017 27.1074 34.916 25.4883L34.8809 25.4414L34.5303 25.4463V27.2734H30.0859V4.26172H34.9043ZM56.1172 27.2715H51.2617V11.2734H56.1172V27.2715ZM63.7822 9.31543H67.709V13.1592H63.7822V21.4521C63.7823 22.6504 64.4609 23.2852 65.6387 23.2852H67.709V27.2705H65.1025C61.2121 27.2704 59.3673 25.2955 59.3672 21.4873V4.27344H63.7822V9.31543ZM12.1562 4C18.9209 4.00007 24.0691 9.19525 24.0693 15.8789C24.0693 19.9276 21.8033 24.2692 18.0361 26.5791C17.8214 26.7112 17.543 26.554 17.543 26.3047L17.541 15.9492C17.541 12.8471 15.11 10.457 11.9697 10.457H9.45996C9.27734 10.4569 9.12896 10.3103 9.12891 10.1299V4.32715C9.12896 4.14678 9.27725 4.00022 9.46094 4H12.1562ZM40.0361 13.3105C37.3482 13.3105 35.168 15.6489 35.168 18.5332C35.168 21.4176 37.3481 23.7559 40.0361 23.7559C42.7238 23.7556 45.1377 21.4174 45.1377 18.5332C45.1376 15.6491 42.7237 13.3108 40.0361 13.3105ZM95.9023 13.4795C93.2145 13.4795 91.0354 15.7425 91.0352 18.5342C91.0352 21.3259 93.2143 23.5898 95.9023 23.5898C98.5903 23.5898 100.769 21.3259 100.769 18.5342C100.768 15.7426 98.5902 13.4795 95.9023 13.4795ZM56.1895 8.50488H51.1914V4.27344H56.1895V8.50488Z" fill="black"/>
</g>
<defs>
<clipPath id="clip0_33958_23982">
<rect width="105" height="32" fill="white"/>
</clipPath>
</defs>
</svg>
