<svg width="91" height="32" viewBox="0 0 91 32" fill="none" xmlns="http://www.w3.org/2000/svg">
<g clip-path="url(#clip0_32214_59355)">
<path d="M68.9297 15.2969C69.7069 15.2969 70.4836 15.3805 71.2607 15.5469C71.9342 15.6919 72.4829 15.8581 72.9053 16.0469C73.0098 16.0936 73.0625 16.2115 73.0234 16.3193L72.4121 18.0029C72.3713 18.1168 72.246 18.1727 72.1328 18.1309C71.6485 17.9499 71.1265 17.7964 70.5674 17.6719C69.928 17.5298 69.3624 17.459 68.8701 17.459C65.5851 17.459 63.9425 19.5463 63.9424 23.7227C63.9424 25.7039 64.344 27.2235 65.1455 28.2822C65.9475 29.3407 67.1343 29.8701 68.708 29.8701C69.9614 29.8701 71.2447 29.6202 72.5576 29.1191C72.7003 29.0648 72.8535 29.1676 72.8535 29.3193V31.0293C72.8534 31.1118 72.8075 31.1886 72.7334 31.2246C71.6715 31.7433 70.3493 32.002 68.7676 32.002C66.4273 32.002 64.6159 31.2838 63.332 29.8477C62.0481 28.4113 61.4062 26.4474 61.4062 23.752C61.4063 21.0567 62.0574 18.9733 63.3604 17.5029C64.663 16.0326 66.5204 15.2969 68.9297 15.2969ZM3.23242 6.88281C3.35244 6.88281 3.44911 6.97905 3.44922 7.09863V17.6299C4.58953 16.0223 6.28185 15.3262 8.52441 15.3262L8.52344 15.3252C10.6476 15.3252 12.2972 16.0484 13.4727 17.4941C14.6481 18.9402 15.2363 20.987 15.2363 23.6338C15.2363 26.2803 14.6439 28.3363 13.459 29.8018C12.2737 31.2673 10.6283 32 8.52344 32C7.47117 32 6.51041 31.8071 5.63965 31.4199C4.76976 31.0326 4.0389 30.4366 3.44727 29.6328V31.4902C3.44727 31.6099 3.34958 31.7061 3.23047 31.7061H1.2168C1.09671 31.7061 1 31.6099 1 31.4902V7.09863C1.00011 6.97905 1.09678 6.88281 1.2168 6.88281H3.23242ZM36.0986 14.8906C38.0254 14.8907 39.4544 15.3177 40.3838 16.1699V16.168C41.3132 17.0214 41.7783 18.4969 41.7783 20.3789V31.4854C41.7783 31.605 41.6816 31.7021 41.5615 31.7021H39.6045C39.4844 31.7021 39.3877 31.605 39.3877 31.4854V30.2988C38.7717 30.8807 38.03 31.3566 37.1553 31.667C36.5393 31.8848 35.8893 31.9961 35.2227 31.9961C33.977 31.9961 32.7399 31.6008 31.7402 30.8838C30.392 29.9165 29.5595 28.6727 29.3955 26.9883C29.2246 25.2231 29.8207 23.474 31.0303 22.1885C31.7722 21.4004 32.7016 20.7875 33.792 20.3662C34.9439 19.9206 36.0795 19.8535 37.0381 19.8457L39.3018 19.8281C39.2657 19.0701 38.9413 18.2193 38.5693 17.8086C38.0236 17.2064 37.1508 16.9053 35.9512 16.9053C34.6585 16.9053 33.2037 17.284 31.5859 18.041C31.4737 18.0945 31.3389 18.0434 31.292 17.9277L30.6982 16.4541C30.6565 16.351 30.6994 16.2322 30.7979 16.1807C31.5475 15.7935 32.3627 15.4865 33.2432 15.2588C34.1921 15.0135 35.1448 14.8906 36.0986 14.8906ZM25.6436 15.4766C26.4332 15.4766 26.9397 15.5324 27.3896 15.5938V15.5918C27.5098 15.6083 27.5917 15.7192 27.5742 15.8379L27.3018 17.6602C27.2832 17.7826 27.1639 17.863 27.042 17.8389C26.466 17.723 25.9501 17.666 25.4971 17.666C24.1889 17.666 23.07 18.1953 22.1406 19.2539C21.2112 20.3126 20.7461 21.6316 20.7461 23.21V31.6406C20.7461 31.7603 20.6494 31.8564 20.5293 31.8564H18.5137C18.3936 31.8564 18.2969 31.7603 18.2969 31.6406V15.9561C18.297 15.8364 18.3937 15.7402 18.5137 15.7402H20.5254C20.6454 15.7402 20.7421 15.8384 20.7422 15.957C20.7432 16.5224 20.7461 17.0217 20.7461 17.6104C20.7406 17.4225 22.7683 15.5797 25.6436 15.4766ZM52.5498 15.2969C54.4973 15.2969 55.9632 15.7651 56.9463 16.7012C57.9293 17.6383 58.4209 19.1364 58.4209 21.1943V31.4922C58.4209 31.6118 58.3242 31.708 58.2041 31.708H56.1885C56.0684 31.708 55.9717 31.6118 55.9717 31.4922V21.2822C55.9717 19.9696 55.6709 18.9889 55.0713 18.3418C54.4717 17.6947 53.5319 17.3711 52.2539 17.3711C50.5619 17.3711 49.323 18.0433 48.5361 18.9551C47.7493 19.8669 47.3555 21.371 47.3555 23.4688V31.4922C47.3554 31.6118 47.2587 31.708 47.1387 31.708H45.123C45.003 31.708 44.9063 31.6118 44.9062 31.4922V15.8076C44.9063 15.688 45.003 15.5918 45.123 15.5918H47.1387C47.2587 15.5918 47.3554 15.688 47.3555 15.8076V17.582C47.8505 16.6566 49.6179 15.2979 52.5488 15.2979L52.5498 15.2969ZM77.3086 0C78.4771 0.000159769 79.4286 0.94774 79.4287 2.11328C79.4287 3.01033 78.8647 3.77638 78.0723 4.08301L78.1768 7.10156L79.9619 6.00098C79.705 4.95983 80.2004 3.84295 81.2061 3.35449C82.3629 2.79212 83.763 3.27368 84.3271 4.42773C84.8912 5.58177 84.4078 6.97763 83.251 7.53906C82.4377 7.93413 81.5055 7.81261 80.8271 7.30566L78.2383 8.88477L78.3711 12.665L80.2266 11.5205C80.2098 11.4184 80.1992 11.3141 80.1992 11.207C80.1993 10.1174 81.0894 9.22971 82.1826 9.22949C83.276 9.22949 84.1669 10.1172 84.167 11.207C84.167 12.2969 83.277 13.1846 82.1826 13.1846C81.7668 13.1845 81.3814 13.0558 81.0625 12.8369L78.4326 14.4443L78.543 17.5791C79.0378 16.6537 80.8048 15.2949 83.7354 15.2949C85.6833 15.2949 87.1487 15.7631 88.1318 16.6992H88.1338C89.1168 17.6363 89.6084 19.1344 89.6084 21.1924L89.6064 29.251V31.4902C89.6064 31.6098 89.5106 31.7059 89.3906 31.7061H87.3604C87.2403 31.706 87.1436 31.6099 87.1436 31.4902V29.251H87.1455V21.2803C87.1454 19.9678 86.8447 18.9869 86.2451 18.3398C85.6465 17.6939 84.7085 17.3711 83.4336 17.3701H83.3945C83.2813 17.3711 83.1737 17.377 83.0645 17.3818C81.5661 17.4744 80.4507 18.1095 79.7246 18.9521C78.9376 19.8639 78.545 21.3683 78.5449 23.4658V31.4893C78.5449 31.6089 78.4481 31.7049 78.3281 31.7051H76.2979C76.1778 31.7049 76.0811 31.6089 76.0811 31.4893V19.1475L76.1562 16.7139L76.2969 12.1367L73.5938 10.4316C73.1675 10.7867 72.6185 11.0009 72.0215 11.001C70.6662 11.001 69.5626 9.9023 69.5625 8.55176C69.5625 7.20109 70.6662 6.10254 72.0215 6.10254C73.3761 6.10278 74.4795 7.20124 74.4795 8.55176C74.4795 8.74242 74.4564 8.92741 74.4141 9.10547L76.3525 10.3369L76.5449 4.08301C75.752 3.7764 75.1875 3.00939 75.1875 2.11328C75.1877 0.947642 76.1405 0 77.3086 0ZM37.0146 22.0068C36.1507 22.0136 35.3044 22.0715 34.4941 22.3848C33.7542 22.6709 33.0632 23.0989 32.5176 23.6777C31.0181 25.2696 31.0586 27.9743 32.8994 29.2959C33.8591 29.9849 35.1624 30.19 36.2803 29.793C38.384 29.0456 39.4297 26.7463 39.4375 24.6523V24.6533C39.4376 24.6166 39.4473 22.0262 39.4473 22.0127L37.0146 22.0068ZM8.40039 17.7959C6.75547 17.7959 5.57014 18.2416 4.84473 19.1328C4.11934 20.0242 3.75586 21.5251 3.75586 23.6367C3.75587 25.7481 4.12922 27.2581 4.87402 28.167C5.61892 29.0768 6.81392 29.5312 8.45898 29.5312C9.93902 29.5312 11.0422 29.0218 11.7676 28.0029V28.002C12.493 26.9831 12.8564 25.5643 12.8564 23.6084C12.8564 21.6525 12.493 20.1948 11.7676 19.2354C11.0412 18.2759 9.91948 17.7959 8.40039 17.7959Z" fill="white"/>
</g>
<defs>
<clipPath id="clip0_32214_59355">
<rect width="91" height="32" fill="white"/>
</clipPath>
</defs>
</svg>
