<svg width="163" height="32" viewBox="0 0 163 32" fill="none" xmlns="http://www.w3.org/2000/svg">
<path fill-rule="evenodd" clip-rule="evenodd" d="M103.118 30.6698H99.6516L110.439 8.91194H114.054L103.118 30.6698ZM116.105 14.0506C119.547 14.0506 120.703 16.1597 120.851 17.4158L118.121 18.0086C118.023 17.3214 117.507 16.4444 116.13 16.4442C115.27 16.4442 114.581 16.9419 114.58 17.6053C114.58 18.174 115.023 18.5297 115.687 18.6483L117.408 19.0037C119.793 19.4778 120.998 20.8764 120.998 22.5828C120.998 24.4789 119.474 26.4226 116.302 26.4227C112.663 26.4227 111.409 24.1474 111.261 22.8201L114.064 22.2274C114.138 23.1517 114.851 24.0047 116.278 24.0047C117.359 24.0046 117.875 23.4597 117.875 22.8436C117.875 22.3223 117.507 21.8955 116.573 21.7059L114.974 21.3504C112.638 20.8526 111.58 19.5014 111.58 17.866C111.581 15.7806 113.499 14.0508 116.105 14.0506ZM142.56 14.0506C146.297 14.0507 148.534 16.3499 148.534 20.0946C148.534 20.5448 148.486 21.0188 148.486 21.0662H139.83C139.904 22.6068 141.256 23.7205 142.879 23.7205C144.404 23.7205 145.24 22.986 145.633 21.9432L148.363 22.7254C147.748 24.7399 145.83 26.4226 142.855 26.4227C139.535 26.4227 136.61 24.1236 136.61 20.1893C136.61 16.4682 139.462 14.0506 142.56 14.0506ZM59.9358 21.1473C59.9359 22.4507 60.6242 23.493 62.1487 23.493C63.5994 23.493 64.4358 22.5451 64.4358 21.1942V14.4158H67.7053V23.9676C67.7054 24.8681 67.7792 25.6741 67.8284 26.077H64.7063C64.6571 25.84 64.6077 25.2942 64.6077 24.8201C63.9438 25.9104 62.5418 26.3846 61.263 26.3846C58.3372 26.3844 56.6653 24.3228 56.6653 21.7869V14.4158H59.9358V21.1473ZM45.2444 15.6903C45.7854 14.8609 47.1129 14.1025 48.9075 14.1024C52.4483 14.1024 54.4894 16.7331 54.4895 20.1932C54.4895 23.7245 52.2275 26.3561 48.7854 26.3563C47.1135 26.3563 46.4249 26.1935 45.1956 24.9198V26.0711H42.0237V8.91194H45.2444V15.6903ZM74.2132 15.1219C75.2244 14.1092 76.9298 14.3262 77.6692 14.3504C79.7183 14.4177 81.9837 16.1717 81.9837 18.7313V26.078H78.7132V19.2762C78.7132 17.9727 78.0492 16.9531 76.4759 16.953C75.0497 16.953 74.2132 18.02 74.2132 19.3709V26.078H70.9436V14.4168H74.2132V15.1219ZM88.305 15.1219C89.3161 14.1095 91.0205 14.3261 91.76 14.3504C93.8092 14.4176 96.0745 16.1716 96.0745 18.7313V26.078H92.804V19.2762C92.804 17.9726 92.1403 16.953 90.5667 16.953C89.1406 16.953 88.305 18.02 88.305 19.3709V26.078H85.0344V14.4168H88.305V15.1219ZM126.67 15.3826C127.457 14.482 128.785 14.1024 129.941 14.1024C133.014 14.1024 134.441 16.1648 134.441 18.7244V26.0711H131.17V19.2694C131.17 17.9659 130.506 16.9463 128.933 16.9461C127.556 16.9461 126.744 17.9418 126.67 19.2215V26.0711H123.401V8.91194H126.67V15.3826ZM154.125 26.0711H150.855V8.91194H154.125V26.0711ZM160.646 26.0711H157.376V8.91194H160.646V26.0711ZM16.593 20.1893C17.4709 20.1895 18.1536 20.8792 18.1536 21.6942C18.1536 22.509 17.4384 23.1988 16.593 23.1991C12.2675 23.1991 8.10422 23.983 4.20144 25.5819C4.00631 25.6446 3.81093 25.7069 3.58328 25.7069C2.96536 25.7069 2.37961 25.3622 2.11941 24.7664C1.79418 23.9828 2.15205 23.1043 2.96511 22.7908C7.29071 21.0667 11.8446 20.1893 16.593 20.1893ZM48.219 16.9227C46.5718 16.9229 44.8881 18.1356 44.888 20.2684C44.888 22.3775 46.5717 23.5348 48.219 23.535C49.891 23.535 51.5471 22.4014 51.5471 20.2684C51.547 18.1355 49.891 16.9227 48.219 16.9227ZM101.344 15.8074L102.149 17.5145L102.954 19.2205L100.906 23.2127L100.33 21.911L99.178 19.3074L96.8753 14.1014H100.538L101.344 15.8074ZM16.5598 14.1424C19.0641 14.1424 21.6013 14.3936 24.1057 14.9266C24.951 15.1148 25.5037 15.8979 25.3089 16.7127C25.1138 17.5277 24.3009 18.0607 23.4553 17.8729C21.1464 17.4027 18.837 17.1522 16.593 17.1522C12.2676 17.1522 8.10412 17.9353 4.20144 19.534C4.00631 19.5967 3.81092 19.66 3.58328 19.66C2.96534 19.66 2.3796 19.3152 2.11941 18.7196C1.79418 17.9358 2.15204 17.0575 2.96511 16.744C7.25813 15.0198 11.8115 14.1424 16.5598 14.1424ZM142.609 16.6102C140.912 16.6102 139.977 17.8425 139.904 18.909H145.314C145.264 17.7478 144.477 16.6102 142.609 16.6102ZM16.5598 8.05257C21.2757 8.05257 25.862 8.93078 30.1878 10.6864C31.0004 11 31.3576 11.9087 31.0325 12.661C30.7723 13.2564 30.1875 13.6013 29.5696 13.6014C29.3745 13.6014 29.1465 13.5704 28.9514 13.4764C25.0161 11.8776 20.8529 11.0936 16.5598 11.0936C12.2343 11.0936 8.07097 11.8767 4.16824 13.4442C3.35522 13.7575 2.44463 13.4134 2.11941 12.6297C1.79418 11.846 2.15205 10.9676 2.96511 10.6541C7.25813 8.92995 11.8115 8.05259 16.5598 8.05257ZM16.5657 2.00081C21.2814 1.96951 25.8672 2.84686 30.1927 4.60237C31.0058 4.91589 31.3635 5.82559 31.0384 6.57796C30.7781 7.17347 30.1923 7.51839 29.5745 7.51839C29.3794 7.51837 29.1514 7.48643 28.9563 7.39241C25.0213 5.79376 20.826 5.01062 16.5657 5.01057C15.6877 5.01057 15.0043 4.32066 15.0042 3.50569C15.0042 2.69061 15.7201 2.00081 16.5657 2.00081Z" fill="white"/>
</svg>
