<svg width="123" height="32" viewBox="0 0 123 32" fill="none" xmlns="http://www.w3.org/2000/svg">
<g clip-path="url(#clip0_32214_59490)">
<path fill-rule="evenodd" clip-rule="evenodd" d="M0.994984 6.19134C5.16357 -1.04847 23.2771 -0.857298 27.7626 6.54095C32.2159 13.9392 23.7231 29.3939 15.1346 29.2363C6.51423 29.0462 -3.13998 13.4303 0.994984 6.19134ZM25.0604 8.0468C21.7 2.50722 7.02039 2.57876 3.89928 7.99993C0.802513 13.4236 10.1808 26.2292 15.41 26.038C21.0365 26.0703 28.3938 13.5882 25.0604 8.0468ZM9.26159 7.63079C15.6028 5.714 21.857 7.72137 22.8573 9.25188C23.4848 10.2181 23.0475 11.8992 22.7899 13.1386C22.6588 13.7691 22.3724 14.359 22.1297 14.9521L19.16 13.6181C19.2911 13.203 19.3733 12.7802 19.4833 12.373C19.8993 10.8159 19.5368 10.6692 18.2186 10.414C16.155 10.0136 13.8186 10.0798 12.1678 10.4404C9.57318 10.925 9.42332 11.2016 10.3778 13.3368C11.1044 15.2146 12.4251 17.2189 13.954 18.5605C14.9944 19.4736 15.4332 19.5032 16.3495 18.5019C16.7474 18.0665 17.1124 17.6028 17.4432 17.1152L20.3973 18.4413C19.9205 19.2466 19.4031 20.0281 18.8475 20.7812C18.3473 21.4569 17.7674 22.0691 17.119 22.6044C15.9053 23.6073 14.7701 23.6317 13.4471 22.7802C13.0446 22.5328 12.6709 22.2431 12.3299 21.9169C9.7217 19.3086 7.83578 16.2316 6.44811 12.8437C6.34977 12.3855 6.22754 11.945 6.16588 11.497C5.93646 9.87842 6.43085 8.92299 7.90416 8.16595C8.34046 7.94741 8.79603 7.76816 9.26354 7.63079H9.26159ZM112.399 8.6386C113.756 8.6386 114.99 8.94788 116.099 9.56829C117.205 10.1521 118.123 11.036 118.745 12.12C119.374 13.2174 119.688 14.4407 119.688 15.787C119.703 17.067 119.378 18.3284 118.745 19.4413C118.128 20.5277 117.215 21.4164 116.112 22.0048C114.993 22.6229 113.722 22.9335 112.301 22.9335C109.754 22.953 107.388 21.6206 106.085 19.4345C105.443 18.3583 105.11 17.1265 105.122 15.874C105.124 14.453 105.432 13.203 106.052 12.1191C106.676 11.0342 107.593 10.1456 108.697 9.55559C109.808 8.94454 111.042 8.63865 112.399 8.6386ZM43.7323 8.6386C44.7608 8.6269 45.781 8.8262 46.7284 9.22649C47.6306 9.61596 48.4313 10.2102 49.0643 10.9618C49.7135 11.7258 50.1912 12.653 50.4979 13.7431H47.9149C47.5247 12.9013 46.969 12.2625 46.245 11.8271C45.5308 11.3962 44.7114 11.1712 43.8778 11.1767C43.0968 11.1752 42.3265 11.3667 41.6376 11.7333C40.9313 12.1025 40.3389 12.6571 39.9237 13.3368C39.4882 14.0377 39.2714 14.8603 39.2714 15.8085C39.2651 17.4225 40.0996 18.9246 41.4755 19.7714C42.1372 20.1803 42.9016 20.3951 43.6796 20.3906C44.6552 20.3913 45.5011 20.1739 46.2137 19.7392C46.9239 19.3084 47.4837 18.6541 47.8895 17.7792H50.5253C50.2185 18.8766 49.7359 19.8128 49.078 20.5839C48.4396 21.3418 47.6337 21.9411 46.7245 22.3368C45.7794 22.7395 44.7601 22.9415 43.7323 22.9306C42.4617 22.9446 41.2093 22.6235 40.1034 21.9999C39.025 21.3951 38.1347 20.503 37.5331 19.4238C36.9103 18.3124 36.5889 17.0578 36.6014 15.7841C36.589 14.5121 36.9054 13.2579 37.5204 12.1435C38.1252 11.0618 39.0215 10.17 40.1063 9.56829C41.2123 8.94547 42.4624 8.62456 43.7323 8.6386ZM80.746 4.04485V22.6464H78.1756V21.1474C77.5505 21.7257 76.818 22.1772 76.0204 22.4784C75.1876 22.786 74.3062 22.9392 73.4188 22.9306C70.901 22.9586 68.5682 21.6093 67.3397 19.413C66.7208 18.3133 66.4016 17.0708 66.4149 15.8095C66.4149 14.3907 66.7101 13.1359 67.3016 12.0488C67.8854 10.9609 68.7624 10.0593 69.8338 9.44427C70.9187 8.81676 72.1358 8.50287 73.4852 8.50286C74.3374 8.49818 75.1843 8.6405 75.9881 8.92376C76.7662 9.19612 77.489 9.60775 78.1219 10.1376V4.04485H80.746ZM58.4237 8.6386C59.7472 8.63864 60.9475 8.95673 62.0253 9.5927C63.0819 10.2162 63.9387 11.1281 64.496 12.2206C65.0586 13.3109 65.3406 14.5207 65.3407 15.8505C65.3407 16.1057 65.3197 16.4407 65.2792 16.8534H54.1014C54.2201 17.5247 54.4948 18.1596 54.9022 18.706C55.2979 19.2327 55.8158 19.6557 56.412 19.9374C57.041 20.2317 57.7291 20.3796 58.4237 20.371C59.3179 20.371 60.0609 20.2141 60.6532 19.8974C61.244 19.5821 61.7481 19.0647 62.161 18.3466H64.9178C64.256 19.9146 63.3887 21.0698 62.3163 21.8144C61.244 22.5573 59.9463 22.9296 58.4237 22.9296C57.1734 22.9452 55.9426 22.6235 54.8592 21.9999C53.7986 21.388 52.9264 20.4977 52.3387 19.4238C51.7253 18.31 51.4104 17.0574 51.4237 15.7861C51.4229 14.4484 51.7251 13.2387 52.3299 12.1562C52.9169 11.076 53.7933 10.1802 54.8602 9.56829C55.9435 8.94476 57.1742 8.62377 58.4237 8.6386ZM88.7879 8.63958C90.711 8.63958 92.3184 9.27123 93.6092 10.5331V8.92376H96.2821V22.6415H93.4989V21.0556C92.9018 21.6534 92.1926 22.1288 91.4129 22.455C90.6036 22.7789 89.739 22.9405 88.868 22.9296C87.5982 22.9444 86.347 22.6228 85.2411 21.9999C84.1734 21.3896 83.2932 20.4984 82.6962 19.4238C82.0741 18.3194 81.7628 17.07 81.7596 15.6738C81.7432 13.1645 83.0752 10.8384 85.2489 9.58099C86.3219 8.95438 87.5448 8.6295 88.7879 8.63958ZM100.094 4.03118V22.6337H97.5975V4.03118H100.094ZM104.021 8.56438V22.6337H101.524V8.56438H104.021ZM116.525 13.4199C115.187 11.1759 112.3 10.4119 110.025 11.6982C109.31 12.0985 108.713 12.6788 108.293 13.3818C107.867 14.0873 107.646 14.8984 107.653 15.7226C107.653 17.0196 108.129 18.1381 109.081 19.08C110.067 20.061 111.194 20.5526 112.459 20.5527C113.291 20.5589 114.107 20.3329 114.818 19.9013C115.531 19.4767 116.121 18.8758 116.532 18.1562L116.534 18.1552C116.952 17.4365 117.171 16.6188 117.166 15.787C117.173 14.9543 116.951 14.1355 116.525 13.4199ZM91.3446 11.7851C89.9046 10.9749 88.1457 10.9749 86.7049 11.7851C85.2884 12.5937 84.4194 14.1049 84.4335 15.7353C84.4335 17.0707 84.8676 18.1856 85.7362 19.08C86.6127 19.9542 87.7277 20.3915 89.078 20.3915C90.7044 20.4079 92.2116 19.5373 93.0077 18.12V18.1181H93.0096C93.8127 16.6656 93.8108 14.901 93.0038 13.4501C92.6104 12.7571 92.0369 12.1816 91.3446 11.7851ZM74.8534 11.2177C73.6703 10.8993 72.4093 11.0667 71.3495 11.6816C70.658 12.0757 70.0842 12.6479 69.6893 13.3378C69.282 14.0457 69.0723 14.8497 69.0809 15.6659C69.0809 17.0255 69.5169 18.1524 70.3856 19.0468C71.2628 19.9294 72.3721 20.3719 73.7128 20.372C74.5212 20.3782 75.3168 20.1623 76.0106 19.748C76.699 19.3421 77.2674 18.7604 77.6561 18.0634L77.659 18.0712C78.4643 16.6094 78.4615 14.8371 77.6522 13.3769C77.0442 12.3131 76.0374 11.5361 74.8534 11.2177ZM58.4237 11.1386C57.3646 11.1394 56.453 11.4341 55.6913 12.0195C54.9305 12.6064 54.4215 13.3987 54.1639 14.3984L62.6581 14.3964C62.3982 13.3974 61.8921 12.6037 61.1366 12.0175C60.3819 11.4315 59.478 11.1386 58.4237 11.1386ZM104.021 4.09466V7.06634H101.524V4.09466H104.021Z" fill="white"/>
</g>
<defs>
<clipPath id="clip0_32214_59490">
<rect width="122.4" height="32" fill="white"/>
</clipPath>
</defs>
</svg>
