<svg width="103" height="32" viewBox="0 0 103 32" fill="none" xmlns="http://www.w3.org/2000/svg">
<g clip-path="url(#clip0_32214_59509)">
<path fill-rule="evenodd" clip-rule="evenodd" d="M65.4143 3.00054C65.2076 2.80199 64.9632 2.64693 64.6957 2.54454C64.4296 2.44187 64.146 2.39243 63.861 2.39905C63.5754 2.39226 63.2912 2.4417 63.0247 2.54454C62.7582 2.64724 62.5149 2.80229 62.3092 3.00054C62.104 3.1915 61.9415 3.42375 61.8323 3.68206C61.7218 3.94019 61.6663 4.21848 61.669 4.49926C61.6664 4.78002 61.722 5.05827 61.8323 5.31645C61.9415 5.57475 62.104 5.80701 62.3092 5.99797C62.5149 6.19622 62.7582 6.35127 63.0247 6.45397C63.2908 6.55829 63.5752 6.60778 63.861 6.59945C64.1462 6.60783 64.4301 6.55833 64.6957 6.45397C64.963 6.35095 65.2072 6.19596 65.4143 5.99797C65.6186 5.8065 65.7805 5.57435 65.8896 5.31645C65.9976 5.05792 66.0494 4.77935 66.0416 4.49926C66.0467 4.21825 65.991 3.93947 65.8782 3.68206C65.7732 3.42475 65.6152 3.19251 65.4143 3.00054ZM65.7051 8.33193H62.0136V23.8406H65.7051V8.33193ZM26.9282 8.61617C27.9093 9.02319 28.8007 9.61964 29.5514 10.3715C30.3022 11.1221 30.8978 12.0135 31.304 12.9947C31.7111 13.9765 31.9209 15.0289 31.9214 16.0918C31.92 18.2375 31.0675 20.2949 29.5514 21.8122C28.0346 23.3286 25.9787 24.1815 23.8345 24.1837C21.6905 24.1806 19.635 23.3279 18.1177 21.8122C16.6021 20.2945 15.7498 18.2374 15.7476 16.0918C15.7491 13.9462 16.6015 11.8888 18.1177 10.3715C18.8681 9.61971 19.7592 9.02333 20.7402 8.61641C21.7212 8.20949 22.7726 8.00003 23.8345 8C24.8962 7.99999 25.9475 8.20938 26.9282 8.61617ZM23.8345 20.696C25.0555 20.6936 26.2259 20.2076 27.0899 19.3443C27.9523 18.4797 28.4374 17.3085 28.4391 16.0869C28.4375 14.8653 27.9524 13.6942 27.0899 12.8296C26.2258 11.9667 25.0553 11.4813 23.8345 11.4796C22.6137 11.4812 21.4432 11.9665 20.5792 12.8296C19.7153 13.6934 19.2294 14.8649 19.2284 16.0869C19.2293 17.309 19.7151 18.4807 20.5792 19.3443C21.4424 20.2087 22.6133 20.6948 23.8345 20.696ZM99.8424 10.3715C99.0919 9.61985 98.2007 9.02355 97.2199 8.61664C96.2391 8.20974 95.1875 8.0002 94.1262 8C93.0642 8.00003 92.0126 8.20949 91.0318 8.61641C90.0503 9.02333 89.1591 9.61971 88.4093 10.3715C87.6574 11.1224 87.0616 12.0141 86.6549 12.9957C86.2481 13.9772 86.0388 15.0293 86.0388 16.0918C86.0409 18.2375 86.8929 20.2947 88.4093 21.8122C89.9264 23.3279 91.9818 24.1806 94.1262 24.1837C96.2699 24.1808 98.3253 23.3281 99.8424 21.8122C101.359 20.2949 102.212 18.2375 102.213 16.0918C102.212 13.9462 101.359 11.8888 99.8424 10.3715ZM97.3928 19.3377C96.9637 19.7674 96.4547 20.1089 95.8946 20.3429C95.3339 20.576 94.7332 20.696 94.1262 20.696C92.9046 20.6948 91.734 20.2087 90.8708 19.3443C90.0062 18.4807 89.5203 17.309 89.5196 16.0869C89.521 14.8649 90.0069 13.6934 90.8708 12.8296C91.734 11.9656 92.9046 11.4801 94.1262 11.4796C94.7318 11.4767 95.3325 11.594 95.8932 11.8245C96.454 12.0555 96.9637 12.3948 97.3928 12.823C98.256 13.6872 98.7419 14.8585 98.7433 16.0804C98.7419 17.3023 98.256 18.4737 97.3928 19.3377ZM11.3505 19.3428C11.5295 19.1609 11.6934 18.9646 11.8405 18.756V18.7724L14.7038 20.7336C14.4346 21.1173 14.1335 21.4776 13.8038 21.8106C12.2862 23.3259 10.2309 24.1785 8.08693 24.1821C5.94258 24.1806 3.88646 23.3277 2.37006 21.8106C1.61874 21.0598 1.0227 20.1681 0.616032 19.1866C0.20936 18.205 2.43176e-05 17.1529 1.14839e-10 16.0903C-5.66036e-06 15.0275 0.209245 13.975 0.615793 12.9932C1.02261 12.0119 1.61872 11.1205 2.37006 10.3699C3.11776 9.61908 4.00575 9.02263 4.98349 8.61464C5.96734 8.20679 7.02203 7.99739 8.08693 7.99847C9.14883 7.99867 10.2002 8.20821 11.1812 8.61511C12.1621 9.02202 13.0533 9.61831 13.8038 10.3699C14.1202 10.6882 14.4098 11.032 14.6695 11.398L11.8405 13.3315V13.4165C11.6934 13.2073 11.5295 13.0105 11.3505 12.8281C10.4863 11.9652 9.31594 11.4798 8.09512 11.4781C6.87427 11.4796 5.70373 11.965 4.83973 12.8281C4.41198 13.2557 4.07269 13.7635 3.84119 14.3224C3.60968 14.8813 3.49055 15.4804 3.49059 16.0854C3.49087 17.3072 3.97615 18.4789 4.83973 19.3428C5.70296 20.2071 6.87386 20.6933 8.09512 20.6944C9.31629 20.6928 10.4869 20.2067 11.3505 19.3428ZM80.5214 9.93041C79.1674 8.68828 77.8407 7.99856 75.9148 7.99693C74.8535 7.99695 73.8019 8.20641 72.8211 8.61333C71.8396 9.02025 70.9484 9.61663 70.1986 10.3684C68.6821 11.8858 67.8297 13.9431 67.8281 16.0887C67.83 18.2344 68.6824 20.2916 70.1986 21.8091C71.7157 23.3249 73.7711 24.1775 75.9148 24.1806C77.8456 24.1806 79.1737 23.4844 80.5312 22.2373C80.5641 23.656 80.492 25.3998 79.4103 26.2579C77.7574 27.8236 73.4309 27.7795 72.6027 25.2234H68.6122C69.5612 30.4224 76.3629 31.3687 80.5032 29.5447L80.5473 29.5267C81.6464 29.0246 82.5782 28.216 83.2293 27.1977C83.8783 26.1786 84.2186 24.9934 84.2094 23.7851V8.33034H80.5151C80.5193 8.78634 80.5214 9.33223 80.5214 9.93041ZM79.1702 19.3412C78.3063 20.2046 77.1365 20.6905 75.9148 20.6929C74.6938 20.6918 73.5233 20.2056 72.6601 19.3412C71.7955 18.4776 71.3096 17.3059 71.3089 16.0838C71.3103 14.8618 71.7962 13.6903 72.6601 12.8265C73.5233 11.9626 74.6938 11.477 75.9148 11.4766C77.1365 11.4768 78.307 11.9624 79.1702 12.8265C80.0327 13.6911 80.5179 14.8623 80.52 16.0838C80.5207 17.3054 80.039 18.4777 79.1786 19.3445L79.1702 19.3412ZM46.0144 8.7666C46.6759 9.22928 47.272 9.77905 47.7866 10.401C51.096 8.966 54.1553 9.39585 56.4175 11.6317C59.0783 14.2483 60.1907 19.1826 59.4557 23.8536H55.9422C56.674 20.1289 55.9455 16.0168 53.9936 14.098C52.8764 13.0062 51.4961 12.7561 49.7729 13.3445C52.0596 17.3161 52.677 22.721 50.7529 25.3687C50.3343 25.9302 49.8007 26.3957 49.1877 26.7339C48.5747 27.0721 47.8966 27.2754 47.1986 27.3299C47.0418 27.3512 46.8932 27.3512 46.7299 27.3512C45.5275 27.367 44.365 26.9199 43.4826 26.1025C41.6108 24.3145 41.6386 21.2484 41.8232 19.5748C42.1074 16.9745 43.0792 14.4428 44.4905 12.6254C44.5884 12.4995 44.6914 12.377 44.7959 12.256C44.5627 12.0205 44.3092 11.806 44.038 11.6154C43.4509 11.2105 42.7499 11.0038 42.0372 11.0253C41.3234 11.0471 40.6357 11.2994 40.0771 11.7445L40.0624 11.7576C38.1398 13.2448 36.3447 18.5271 37.7348 23.8519H34.2001C33.7721 21.7932 33.6811 19.6787 33.9306 17.5907C34.3781 13.8316 35.8743 10.6315 37.934 9.02648C39.0752 8.12171 40.4758 7.60624 41.931 7.55554C43.3863 7.51358 44.817 7.93788 46.0144 8.7666ZM47.4806 23.7106C47.6651 23.616 47.8278 23.4838 47.9582 23.3225C48.4057 22.7046 48.6703 21.0081 48.1819 18.7478C47.9203 17.5126 47.4801 16.3224 46.8752 15.2143C44.9511 18.1317 44.7877 22.5576 45.8642 23.584C46.0056 23.6998 46.1694 23.7852 46.3454 23.8347C46.5213 23.8842 46.7056 23.8968 46.8867 23.8716C47.0937 23.86 47.296 23.8052 47.4806 23.7106Z" fill="white"/>
</g>
<defs>
<clipPath id="clip0_32214_59509">
<rect width="102.4" height="32" fill="white"/>
</clipPath>
</defs>
</svg>
