<svg width="117" height="32" viewBox="0 0 117 32" fill="none" xmlns="http://www.w3.org/2000/svg">
<path d="M51.3223 5.43164C51.6005 5.43176 51.8622 5.51883 52.0742 5.71387C52.2785 5.90199 52.4065 6.16238 52.4824 6.45703C52.6318 7.03724 52.6102 7.8689 52.4395 8.94434C51.8728 12.5026 49.1246 17.1177 45.2266 21.957C43.2219 24.4554 41.3082 26.7046 39.4512 28.3291C37.6014 29.9472 35.7474 30.9998 33.8623 31C33.3583 31 32.9346 30.8725 32.6494 30.5957C32.3545 30.3093 32.2691 29.9233 32.3281 29.5508L32.3662 29.3672C32.6009 28.4627 33.4675 27.7726 34.4014 27.7725C34.9848 27.7726 35.3475 27.9783 35.6387 28.1465C35.9151 28.3061 36.1082 28.417 36.4424 28.417C36.6122 28.4168 36.8107 28.339 37.0605 28.127C37.3116 27.9139 37.5788 27.5962 37.8809 27.1855C39.2455 25.3312 40.2313 23.219 40.8359 20.9893L41.1143 19.9971C41.4118 18.9647 41.7618 17.823 42.1143 16.6631C42.5852 15.1132 43.0622 13.5285 43.4365 12.1113C43.8126 10.6872 44.0766 9.45915 44.1328 8.61328C44.1615 8.18111 44.1313 7.90398 44.0732 7.75781C44.0571 7.71721 44.0429 7.69809 44.0361 7.69043C44.0201 7.70542 43.997 7.72854 43.9688 7.7627C43.8857 7.86331 43.7822 8.01932 43.6611 8.23145C43.4201 8.6537 43.1377 9.24579 42.8301 9.93164C42.2286 11.2727 41.5115 13.0255 40.9014 14.3555C40.8995 14.3598 40.8966 14.3659 40.8936 14.373C40.8859 14.3908 40.875 14.4173 40.8604 14.4512C40.8307 14.5195 40.7866 14.6201 40.7305 14.7471C40.6182 15.0011 40.456 15.3642 40.2549 15.7988C39.8526 16.6681 39.2938 17.8288 38.6709 18.9912C38.0496 20.1507 37.3569 21.3257 36.6855 22.2148C36.3506 22.6584 36.0107 23.0452 35.6777 23.3242C35.3554 23.5943 34.9828 23.8113 34.5908 23.8115C33.9276 23.8115 33.4094 23.605 33.0674 23.1963C32.7362 22.8004 32.623 22.2759 32.623 21.7451C32.6231 21.0778 32.9255 20.2938 33.1836 19.6094C34.0154 17.2938 34.9773 14.8989 35.7139 12.9141C36.0852 11.9135 36.4018 11.0112 36.625 10.2539C36.8513 9.48627 36.9707 8.90389 36.9707 8.5293C36.9707 8.1446 36.917 7.93251 36.8555 7.82715C36.8296 7.78297 36.8054 7.76296 36.7852 7.75195C36.7628 7.73995 36.7207 7.72565 36.6445 7.72559C36.4537 7.72559 36.0802 7.87354 35.5195 8.41016C34.9762 8.93031 34.3144 9.76079 33.5498 10.9805C32.0215 13.4184 30.1123 17.3638 27.9297 23.3613L27.8359 23.6172H25.335L25.4961 23.1104L29.6943 9.89355C29.828 9.47531 29.9747 9.0064 30.0879 8.5957C30.2066 8.1648 30.2715 7.85455 30.2715 7.72363C30.2715 7.62466 30.2621 7.56034 30.252 7.52148C30.2499 7.51355 30.247 7.50718 30.2451 7.50195C30.2374 7.50117 30.2263 7.49907 30.2129 7.49902C30.0865 7.49914 29.8858 7.57047 29.6104 7.77832C29.3434 7.97986 29.0488 8.2776 28.7432 8.64746C28.1328 9.3863 27.5137 10.3698 27.0156 11.3203L26.9072 11.5283H25.4297L25.6963 10.9717C26.3175 9.67538 27.1482 8.33563 28.0732 7.31348C28.9817 6.30974 30.056 5.53044 31.167 5.53027C31.6838 5.53042 32.09 5.76281 32.3535 6.125C32.6075 6.47425 32.7177 6.9241 32.7178 7.36914C32.7178 7.75953 32.6327 8.18607 32.5107 8.63574C32.3885 9.08627 32.221 9.58964 32.0449 10.1318L32.043 10.1357L31.5488 11.6074C32.3964 9.99736 33.1803 8.75347 33.9131 7.82129C35.1715 6.22049 36.3431 5.46488 37.5078 5.46484C38.1571 5.46496 38.6985 5.69792 39.0693 6.14648C39.4314 6.5846 39.5947 7.18297 39.5947 7.85254C39.5947 9.25797 38.9383 11.2666 38.1201 13.3867C37.707 14.4573 37.2449 15.5754 36.7891 16.6807C36.3358 17.7796 35.8883 18.8666 35.498 19.8936L35.2354 20.7188C35.1496 21.0094 35.0986 21.2433 35.0986 21.3906C35.0987 21.6183 35.1304 21.7242 35.1572 21.7666C35.165 21.7788 35.1707 21.7837 35.1797 21.7881C35.1919 21.7939 35.2243 21.803 35.2891 21.8047C35.2957 21.8016 35.3069 21.7971 35.3213 21.7881C35.3674 21.759 35.4317 21.7068 35.5127 21.624C35.6748 21.4582 35.868 21.2084 36.082 20.8896C36.5084 20.2546 36.9852 19.3985 37.4346 18.5312C37.8828 17.6662 38.2986 16.7992 38.6025 16.1484C38.7543 15.8235 38.8782 15.5526 38.9639 15.3633C39.0067 15.2687 39.0399 15.194 39.0625 15.1436C39.0737 15.1184 39.0822 15.0988 39.0879 15.0859C39.0907 15.0796 39.0933 15.0745 39.0947 15.0713C39.0953 15.07 39.0964 15.0691 39.0967 15.0684V15.0674L39.1045 15.0498C39.4348 14.3888 39.8128 13.4825 40.2227 12.4795C40.6301 11.4824 41.067 10.3948 41.5117 9.39258C41.9551 8.39329 42.4154 7.45784 42.8711 6.76758C43.0984 6.42322 43.3355 6.12238 43.582 5.9043C43.8238 5.69044 44.1181 5.51759 44.4521 5.51758C44.8301 5.51765 45.1869 5.60223 45.4922 5.80762C45.7984 6.01373 46.0212 6.31945 46.168 6.7041C46.4539 7.45358 46.4738 8.55608 46.2529 10.0361L46.252 10.04C46.0317 11.4204 45.4922 13.4343 44.8467 15.7412C44.3334 17.5755 43.7512 19.605 43.1973 21.6797C44.9435 19.5914 46.4632 17.5577 47.6387 15.7061C49.0621 13.4639 49.9597 11.529 50.1855 10.1123V10.1113C50.3089 9.33864 50.2243 8.76219 50.1201 8.25391C50.0206 7.76814 49.8695 7.23762 49.9551 6.69629C50.0343 6.19287 50.4037 5.58155 51.0732 5.45801L51.0869 5.43164H51.3223ZM105.026 5.62109C105.661 5.62116 106.265 5.70977 106.831 5.88867H106.832C107.393 6.06738 107.91 6.31846 108.377 6.64453C108.837 6.96526 109.249 7.33552 109.611 7.75586C109.671 7.8248 109.726 7.89645 109.781 7.9668V5.62207H112.511V22.0693C112.511 22.6779 112.477 23.0742 112.406 23.4473C112.338 23.8079 112.234 24.1483 112.11 24.6094L112.102 24.6426L112.098 24.6504C111.826 25.6401 111.399 26.4929 110.807 27.1992C110.203 27.9195 109.419 28.4672 108.469 28.8428H108.468C107.512 29.2191 106.36 29.4013 105.026 29.4014C104.191 29.4014 103.375 29.3034 102.58 29.1074V29.1084C101.778 28.9107 101.051 28.6027 100.402 28.1816C99.7472 27.756 99.2025 27.2104 98.7705 26.5527V26.5537C98.3243 25.8749 98.0757 25.0732 98.0098 24.1641L97.9795 23.748H100.678L100.733 24.0703C100.829 24.6268 101.01 25.0731 101.267 25.4219C101.536 25.788 101.857 26.079 102.233 26.2998L102.235 26.3008C102.62 26.5276 103.052 26.696 103.53 26.8018L103.898 26.873C104.268 26.9336 104.645 26.9639 105.026 26.9639C106.77 26.9637 107.946 26.4653 108.652 25.5527C109.049 25.0394 109.322 24.637 109.502 24.1406C109.682 23.6436 109.781 23.0235 109.781 22.0703V21.2051C109.38 21.7492 108.897 22.2186 108.33 22.6094C107.381 23.2635 106.275 23.5829 105.028 23.583C103.706 23.583 102.552 23.3633 101.579 22.9053V22.9043C100.619 22.4537 99.8205 21.8273 99.1934 21.0283C98.5694 20.2335 98.1192 19.3027 97.8369 18.248V18.2471C97.5564 17.1878 97.4209 15.2914 97.4209 14.1348C97.4209 12.9499 97.5875 11.9054 97.9209 10.874L98.0527 10.4932C98.3783 9.61787 98.8206 8.83567 99.3838 8.15332L99.6338 7.86621C100.233 7.21563 100.949 6.69447 101.777 6.2998H101.778C102.736 5.84541 103.823 5.62109 105.026 5.62109ZM58.8906 5.90137H61.7559V6.29004H62.1416V8.32227H58.8887V19.5732C58.8887 20.1104 58.9533 20.5081 59.0635 20.791L59.1133 20.9053L59.1143 20.9072C59.1918 21.0667 59.431 21.2483 60.0908 21.29C60.6312 21.2896 61.1696 21.2612 61.71 21.2012L62.1416 21.1533V23.6201H61.7529C61.473 23.6201 61.191 23.6286 60.9131 23.6484C60.6156 23.6697 60.3154 23.6797 60.0186 23.6797C58.7735 23.6797 57.7789 23.4573 57.1426 22.9219L57.0205 22.8105C56.3824 22.1864 56.1402 21.1069 56.1611 19.7227V8.32227H53.374V5.90137H56.1611V1.09961H58.8906V5.90137ZM90.3115 5.4375C91.4777 5.43754 92.4437 5.58647 93.2549 5.89648C94.0602 6.20436 94.72 6.64849 95.2227 7.22949L95.2236 7.23047C95.7229 7.80896 96.0689 8.51347 96.2666 9.3291L96.335 9.63379C96.4838 10.3534 96.5557 11.1412 96.5557 11.9922V23.6182H93.8271V12.3008C93.8271 11.8084 93.7932 11.3429 93.7266 10.9053L93.6484 10.4766C93.5477 10.0015 93.3845 9.58945 93.1611 9.23633L93.0615 9.08887C92.7949 8.71468 92.4302 8.41465 91.959 8.19336C91.499 7.97743 90.9032 7.85845 90.1572 7.8584C89.5115 7.8584 88.9401 7.95838 88.4385 8.15234L88.2275 8.24121C87.6669 8.49831 87.1958 8.84854 86.8105 9.29004L86.8096 9.29102C86.4213 9.73461 86.115 10.2697 85.8916 10.9004C85.6686 11.5299 85.5455 12.2166 85.5273 12.9639V23.6201H82.7979V5.90137H85.5283V7.6709C85.9121 7.17025 86.3965 6.73927 86.9785 6.37891C87.9915 5.7524 89.1054 5.43754 90.3115 5.4375ZM23.6641 1.41016L22.6221 20.6787L22.6143 20.8145C22.6 21.1613 22.6075 21.4169 22.6455 21.6104C22.686 21.8168 22.7547 21.9249 22.8418 21.998C22.9387 22.0794 23.1047 22.1559 23.4121 22.207C23.7183 22.2579 24.1261 22.2783 24.6719 22.2783H25.2871L25.0225 22.834L24.7549 23.3955L24.6494 23.6172H16.6406L16.8359 23.0928L17.0449 22.5312L17.1387 22.2783H17.4092C18.0282 22.2783 18.4953 22.2549 18.8516 22.1992C19.209 22.1433 19.4239 22.0593 19.5605 21.9609C19.8079 21.7828 19.9239 21.4679 19.9688 20.6396V20.6338L20.2383 16.6602H12.5166L9.12012 21.3174C8.86305 21.6743 8.67967 21.9158 8.57129 22.1045C8.55814 22.1274 8.54783 22.1477 8.53906 22.165C8.61253 22.186 8.71992 22.2086 8.87402 22.2256C9.22706 22.2644 9.75146 22.2783 10.5039 22.2783H11.0615L10.8682 22.8018L10.6611 23.3633L10.5674 23.6172H3.63086L3.79297 23.1104L3.97168 22.5488L4.05859 22.2783H4.34277C4.95671 22.2783 5.44311 22.2371 5.88965 22.0508C6.32786 21.8678 6.76592 21.5279 7.24121 20.8623L7.24512 20.8574L21.7725 1.1582L21.8896 1H23.6865L23.6641 1.41016ZM65.6416 7.66992C66.0255 7.16897 66.5095 6.73748 67.0918 6.37695C68.1048 5.75031 69.2185 5.4356 70.4248 5.43555C71.5914 5.43555 72.5561 5.58546 73.3682 5.89551C74.1735 6.20336 74.8347 6.64688 75.3369 7.22852C75.8363 7.80701 76.1822 8.51141 76.3799 9.32715L76.4482 9.63184C76.5974 10.3515 76.6699 11.1398 76.6699 11.9912V23.6162H73.9404V12.2998C73.9404 11.6426 73.881 11.0337 73.7627 10.4756C73.6476 9.93261 73.4495 9.47155 73.1748 9.08691C72.9416 8.75951 72.6335 8.48874 72.2441 8.27734L72.0723 8.19043C71.6121 7.97451 71.0165 7.85547 70.2705 7.85547C69.6245 7.85548 69.0535 7.95628 68.5518 8.15039L68.3408 8.23926C67.7798 8.49655 67.308 8.8468 66.9238 9.28809H66.9229C66.5343 9.73177 66.2283 10.2674 66.0049 10.8975C65.7819 11.527 65.6587 12.2137 65.6406 12.9609V23.6172H62.9111V1.09961H65.6416V7.66992ZM81.0977 23.6152H78.3682V5.89941H81.0977V23.6152ZM105.025 8.06055C104.15 8.06055 103.425 8.24172 102.835 8.58594C102.222 8.94316 101.718 9.40918 101.316 9.9873C100.962 10.4975 100.69 11.0742 100.504 11.7188L100.43 11.999C100.241 12.7713 100.146 13.558 100.146 14.3584C100.146 15.1817 100.25 16.6912 100.442 17.4111C100.637 18.1391 100.937 18.777 101.341 19.3291H101.34C101.74 19.8755 102.244 20.3189 102.857 20.6572C103.448 20.9841 104.166 21.1543 105.022 21.1543C105.812 21.1542 106.488 20.9849 107.062 20.6592L107.081 20.6484H107.079C107.664 20.3112 108.156 19.8743 108.553 19.3291L108.554 19.3281C108.958 18.776 109.264 18.1353 109.469 17.4053V17.4043C109.671 16.6869 109.779 15.1606 109.779 14.3564C109.779 13.5757 109.69 12.835 109.51 12.0723V12.0713C109.333 11.32 109.05 10.642 108.663 10.0361V10.0371C108.282 9.44178 107.793 8.96229 107.193 8.59766L107.192 8.59668C106.616 8.24584 105.898 8.06065 105.025 8.06055ZM13.7109 15.0518H20.3203L20.9746 5.08789L13.7109 15.0518ZM79.7344 1.67773C80.5435 1.67773 81.1992 2.3353 81.1992 3.14355C81.1992 3.95165 80.5446 4.60938 79.7344 4.60938C78.9247 4.60935 78.2686 3.95202 78.2686 3.14355C78.2686 2.33493 78.9258 1.67776 79.7344 1.67773Z" fill="white"/>
</svg>
