<svg width="100" height="32" viewBox="0 0 100 32" fill="none" xmlns="http://www.w3.org/2000/svg">
<path d="M91.6309 21.8799L96.8652 7.50195H99.9707L92.4336 27.3926C91.0716 30.9536 89.3606 32 87.0586 32C85.4186 32 83.9888 31.4067 83.2207 30.2197L85 28.1953C85.558 29.0332 86.3603 29.4862 87.1982 29.4863C88.5583 29.4863 89.2579 28.3002 90.1299 25.9961L90.793 24.2529H89.502L83.1504 7.50195H86.2568L91.6309 21.8799ZM19.374 16.9258C19.4795 16.9258 19.5807 16.9675 19.6553 17.042C19.7298 17.1166 19.7724 17.2178 19.7725 17.3232V23.9307C19.7725 24.9416 18.9523 25.7616 17.9414 25.7617H17.6016C17.1015 25.7617 16.6963 26.167 16.6963 26.667V27.416C16.6963 28.0614 16.4397 28.6803 15.9834 29.1367C15.5269 29.5932 14.9073 29.8496 14.2617 29.8496C13.9424 29.8496 13.6261 29.7872 13.3311 29.665C13.0357 29.5427 12.767 29.3627 12.541 29.1367C12.3151 28.9108 12.136 28.6428 12.0137 28.3477C11.8914 28.0524 11.8281 27.7356 11.8281 27.416V26.667C11.8281 26.167 11.4229 25.7627 10.9229 25.7627H5.5498C4.58969 25.7627 3.66914 25.3811 2.99023 24.7021C2.31137 24.0233 1.92969 23.1027 1.92969 22.1426V21.9287C1.92969 21.8694 1.9412 21.8106 1.96387 21.7559C1.98658 21.701 2.02053 21.6513 2.0625 21.6094C2.10446 21.5674 2.15418 21.5334 2.20898 21.5107C2.26372 21.4881 2.32261 21.4766 2.38184 21.4766H10.5273C11.5272 21.4768 12.3369 22.2872 12.3369 23.2871C12.3371 24.286 13.1475 25.0977 14.1475 25.0977H14.377C15.3769 25.0977 16.1873 24.288 16.1875 23.2881V20.1123C16.1876 19.2672 16.5235 18.457 17.1211 17.8594C17.7187 17.2618 18.5289 16.9258 19.374 16.9258ZM44.168 24.2539H41.2715V21.5664C40.0145 23.3814 38.0259 24.6728 35.1299 24.6729C30.6629 24.6729 27.3478 20.7289 27.3477 15.8789C27.3477 10.9927 30.6627 7.08398 35.1299 7.08398C38.0258 7.08403 40.0145 8.37539 41.2715 10.1543V0H44.168V24.2539ZM54.0029 7.08398C58.0149 7.08398 60.8074 9.42215 60.8076 13.749V24.2539H57.9111V22.0908C57.3324 22.8911 56.572 23.5423 55.6924 23.9912C54.8127 24.4401 53.8391 24.6739 52.8516 24.6729C49.1174 24.6729 46.4297 22.6483 46.4297 19.3682C46.43 16.4363 49.1177 14.0635 52.8506 14.0635C55.1205 14.0636 56.8301 15.0407 57.9111 16.0537V13.8545C57.9111 11.2025 56.4456 9.59783 53.9688 9.59766C51.2468 9.59766 49.7804 10.9573 49.1523 13.5752L46.5352 12.8428C47.4072 9.28279 50.164 7.08415 54.0029 7.08398ZM76.4736 7.08398C80.5918 7.08398 82.7561 9.17848 83.2441 11.9346L80.627 12.6338C80.2769 11.0277 79.0572 9.4922 76.3701 9.49219C74.0661 9.49219 72.7052 10.3643 72.7051 11.8652C72.7051 13.3653 73.578 13.9597 75.915 14.3438L77.9053 14.6924C80.6973 15.1804 83.3496 16.0879 83.3496 19.543C83.3494 22.8578 80.4522 24.6728 76.6143 24.6729C72.6011 24.6729 69.111 22.8224 69.041 18.7402L71.7275 18.252C72.0077 21.2528 74.0316 22.2646 76.6846 22.2646C78.7784 22.2645 80.3486 21.3921 80.3486 19.5771C80.3484 18.1475 79.5448 17.6232 77.417 17.2393L75.4619 16.9258C72.6009 16.4018 69.8789 15.4955 69.8789 11.9004C69.8789 8.9694 72.3918 7.08412 76.4736 7.08398ZM66.9297 24.2539H64.0322V7.50293H66.9297V24.2539ZM53.1309 16.5068C50.9313 16.507 49.5012 17.6935 49.501 19.3682C49.501 21.0781 50.9311 22.2645 53.1309 22.2646C55.1539 22.2646 56.7941 21.0786 57.9111 19.4727V18.8447C56.8641 17.6237 55.1539 16.5068 53.1309 16.5068ZM35.7578 9.59766C32.4077 9.59766 30.3838 12.0048 30.3838 15.8779C30.3839 19.7178 32.4078 22.1602 35.7578 22.1602C38.8638 22.1601 41.2713 19.4378 41.2715 15.8789C41.2715 12.3188 38.8639 9.59769 35.7578 9.59766ZM9.21875 1.9209C11.6217 1.94606 13.9181 2.91785 15.6084 4.62598C17.2986 6.33402 18.247 8.64003 18.2471 11.043C18.2471 13.4461 17.2987 15.7528 15.6084 17.4609C13.9181 19.169 11.6217 20.1409 9.21875 20.166C8.01271 20.1786 6.81613 19.9518 5.69824 19.499C4.58043 19.0463 3.56332 18.3766 2.70605 17.5283C1.84879 16.68 1.16858 15.6697 0.704102 14.5566C0.239622 13.4435 0 12.2491 0 11.043C3.30657e-05 9.837 0.239711 8.64324 0.704102 7.53027C1.16857 6.4172 1.84878 5.40696 2.70605 4.55859C3.56337 3.71021 4.58034 3.03971 5.69824 2.58691C6.8161 2.13415 8.01275 1.90828 9.21875 1.9209ZM9.18262 6.16699C8.54693 6.16702 7.91737 6.29189 7.33008 6.53516C6.74277 6.77845 6.20928 7.13545 5.75977 7.58496C5.31029 8.03447 4.95323 8.56798 4.70996 9.15527C4.46673 9.74256 4.3418 10.3721 4.3418 11.0078C4.34181 11.6435 4.4667 12.273 4.70996 12.8604C4.95324 13.4477 5.31025 13.9811 5.75977 14.4307C6.2093 14.8802 6.74274 15.2372 7.33008 15.4805C7.91737 15.7237 8.54693 15.8486 9.18262 15.8486C10.4666 15.8486 11.6986 15.3386 12.6064 14.4307C13.5141 13.5228 14.0244 12.2916 14.0244 11.0078C14.0244 9.72406 13.5141 8.49281 12.6064 7.58496C11.6986 6.67707 10.4666 6.16699 9.18262 6.16699ZM65.4639 0.244141C66.5808 0.244213 67.4541 1.08208 67.4541 2.16406C67.4541 3.24505 66.5808 4.08294 65.4639 4.08301C64.3468 4.08301 63.4736 3.24511 63.4736 2.16309C63.4736 1.08205 64.3468 0.244141 65.4639 0.244141Z" fill="white"/>
</svg>
