<svg width="157" height="32" viewBox="0 0 157 32" fill="none" xmlns="http://www.w3.org/2000/svg">
<path d="M63.2744 12.8438L65.0029 14.0068L65.6162 15.543V21.7988L66.5352 23.1377L64.6533 24.498L63.6904 23.0713L63.4277 23.3564L61.4141 24.3887H60.0137L58.5254 23.9277L57.4531 23.291L56.1846 21.4473V20.1084L56.5127 18.5938L58.1533 16.9258L60.2979 16.377H61.7422L63.1865 16.8604L63.2744 16.9258V15.9824L63.0996 15.543L62.3555 15.0391L61.3926 14.7969H59.9922L59.2695 15.0605L58.6787 15.4561L58.0664 16.0479L56.4463 14.3584L57.3223 13.5459L58.3066 12.9092L59.7734 12.4707H61.8086L63.2744 12.8438ZM83.9609 12.8438L85.6904 14.0068L86.3027 15.543V21.7988L87.2217 23.1377L85.3398 24.498L84.377 23.0713L84.1143 23.3564L82.1016 24.3887H80.7012L79.2129 23.9277L78.1406 23.291L76.8711 21.4473V20.1084L77.1992 18.5938L78.8408 16.9258L80.9854 16.377H82.4297L83.874 16.8604L83.9609 16.9258V15.9824L83.7861 15.543L83.042 15.0391L82.0791 14.7969H80.6787L79.957 15.0605L79.3662 15.4561L78.7529 16.0479L77.1338 14.3584L78.0088 13.5459L78.9941 12.9092L80.46 12.4707H82.4951L83.9609 12.8438ZM53.083 24.2148H50.7637V23.5781L49.4287 24.3906H47.3711L45.0957 23.3154L43.6289 21.3174L43.1475 19.7158V17.1914L43.6289 15.5459L45.0957 13.5703L47.3271 12.4727H49.2529L50.5664 12.9561L50.7412 13.0869V7.66602H53.083V24.2148ZM92.3965 13.2852L93.709 12.4727H95.7666L98.042 13.5479L99.5078 15.5459L99.9893 17.1475V19.6719L99.5078 21.3174L98.042 23.293L95.8105 24.3906H93.8623L92.5713 23.9072L92.3965 23.7754V24.2148H90.0547V7.66602H92.3965V13.2852ZM105.061 21.1201L105.564 21.8008L106.615 22.0859H107.621L108.979 21.1641L109.525 20.4404V12.6484H111.867V24.2148H109.548V23.5127L108.015 24.3906H106.265L104.186 23.8418L102.72 21.9326V12.6484H105.061V21.1201ZM71.8486 12.9336H74.7148V15.2598H71.8486V21.2734L72.2422 21.7998L72.833 22.0635H73.293L75.0654 21.6025L75.6562 23.8848L73.4238 24.3896H72.373L70.7539 23.7754L69.5068 21.998V15.2598H67.5371V12.9336H69.5068V8.89453H71.8486V12.9336ZM118.564 12.9336H121.431V15.2598H118.564V21.2734L118.958 21.7998L119.549 22.0635H120.009L121.781 21.6025L122.373 23.8848L120.14 24.3896H119.09L117.471 23.7754L116.223 21.998V15.2598H114.254V12.9336H116.223V8.89453H118.564V12.9336ZM127.198 12.9336H130.065V15.2598H127.198V21.2734L127.592 21.7998L128.183 22.0635H128.643L130.415 21.6025L131.006 23.8848L128.774 24.3896H127.724L126.104 23.7754L124.857 21.998V15.2598H122.887V12.9336H124.857V8.89453H127.198V12.9336ZM140.581 13.5684L141.741 15.2578L142.135 17.1455V19.7354L141.741 21.623L140.581 23.3125L138.348 24.3887H136.028L133.818 23.3125L132.658 21.623L132.243 19.7354V17.1455L132.658 15.2578L133.818 13.5684L136.028 12.4707H138.348L140.581 13.5684ZM19.4336 10.875C26.9036 10.875 32.9716 16.9053 32.9717 24.3584H31.1221C31.122 17.9424 25.8954 12.7295 19.4336 12.7295C12.9721 12.7297 7.74618 17.9426 7.74609 24.3584H5.89648C5.89657 16.9054 11.9639 10.8752 19.4336 10.875ZM19.4316 7.5C28.7605 7.5 36.3328 15.0418 36.333 24.3564H34.4834C34.4832 16.0762 27.7496 9.35449 19.4316 9.35449C11.114 9.3547 4.38008 16.0763 4.37988 24.3564H2.53125C2.53145 15.0419 10.103 7.50021 19.4316 7.5ZM19.4307 14.2461C25.0406 14.2461 29.6045 18.7639 29.6045 24.3564H27.7559C27.7559 19.8058 24.0372 16.1006 19.4307 16.1006C14.8241 16.1007 11.1055 19.8058 11.1055 24.3564H9.25684C9.25684 18.7639 13.8207 14.2462 19.4307 14.2461ZM153.09 13.0195L154.469 14.8848V24.2129H152.127V15.7412L151.711 15.1484L150.617 14.7969H149.457L148.101 15.6973L147.575 16.4434V24.2129H145.233V12.6465H147.575V13.3486L149.085 12.4707H151.055L153.09 13.0195ZM92.9434 15.6328L92.3965 16.4229V20.9443L92.7461 21.3838L93.4463 21.8223L94.168 22.0859H95.416L96.5098 21.4717L97.4297 20.2207L97.6475 19.3867V17.4326L97.4297 16.6426L96.5312 15.3701L95.3281 14.7988H94.1465L92.9434 15.6328ZM135.395 15.3457L134.848 16.1143L134.585 17.4092V19.4277L134.848 20.7891L135.351 21.5137L136.467 22.084H137.91L139.049 21.5137L139.53 20.7666L139.814 19.4277V17.4092L139.53 16.1357L139.005 15.3457L137.933 14.7969H136.423L135.395 15.3457ZM46.627 15.3916L45.708 16.6426L45.4893 17.4766V19.4521L45.708 20.2207L46.6055 21.4932L47.8086 22.0645H48.9902L50.1943 21.2295L50.7412 20.4395V15.9189L50.3916 15.4795L49.6914 15.041L48.9688 14.7773H47.7217L46.627 15.3916ZM59.3789 19.0332L58.6787 19.7578L58.5254 20.3281V20.7666L59.0723 21.5566L59.4668 21.7764L60.3203 22.0615H60.9326L62.3555 21.5137L63.0996 20.7227L63.2744 20.2402V19.626L62.9238 19.2529L62.4209 19.0107L61.4141 18.7041H60.5605L59.3789 19.0332ZM80.0664 19.0332L79.3662 19.7578L79.2129 20.3281V20.7666L79.7598 21.5566L80.1533 21.7764L81.0068 22.0615H81.6201L83.042 21.5137L83.7861 20.7227L83.9609 20.2402V19.626L83.6113 19.2529L83.1074 19.0107L82.1016 18.7041H81.248L80.0664 19.0332Z" fill="white"/>
</svg>
