<?xml version="1.0" encoding="UTF-8"?>
<svg xmlns="http://www.w3.org/2000/svg" width="165" height="40" viewBox="0 0 165 40" fill="none">
  <path d="M44.6135 12.3581C43.5898 10.0028 42.0811 7.96144 40.1953 6.23414C38.3094 4.55923 35.9925 3.25069 33.2985 2.36088C30.7122 1.41873 27.8026 1 24.5698 1H10.0218V15.7603L0 18.9532L18.9661 24.3967V13.5096V9.63635H24.5698C26.7789 9.63635 28.7186 9.89808 30.3351 10.4738C31.8437 10.9972 33.1368 11.6777 34.1606 12.5675C35.1305 13.4573 35.8848 14.4518 36.3697 15.6033C36.9085 16.8595 37.1779 18.2203 37.1779 19.7906V19.8953C37.1779 21.4656 36.9085 22.8264 36.3697 24.135C35.8309 25.3912 35.0766 26.3857 34.1067 27.2755C33.0829 28.1652 31.7898 28.9504 30.2273 29.4739C28.6108 30.0496 26.6172 30.3113 24.4081 30.3113H19.5588V39H24.4081C27.641 39 30.6045 38.5289 33.1907 37.6391C35.8848 36.697 38.2017 35.3884 40.0875 33.6612C42.0272 31.9339 43.5359 29.8402 44.5596 27.4849C45.5834 25.1294 46.0683 22.617 46.0683 19.8953V19.843C46.1222 17.1736 45.6373 14.6612 44.6135 12.3581Z" fill="#FFF"></path>
  <path d="M44.6135 12.3581C43.5898 10.0028 42.0811 7.96144 40.1953 6.23414C38.3094 4.55923 35.9925 3.25069 33.2985 2.36088C30.7122 1.41873 27.8026 1 24.5698 1H10.0218V15.7603L0 18.9532L18.9661 24.3967V13.5096V9.63635H24.5698C26.7789 9.63635 28.7186 9.89808 30.3351 10.4738C31.8437 10.9972 33.1368 11.6777 34.1606 12.5675C35.1305 13.4573 35.8848 14.4518 36.3697 15.6033C36.9085 16.8595 37.1779 18.2203 37.1779 19.7906V19.8953C37.1779 21.4656 36.9085 22.8264 36.3697 24.135C35.8309 25.3912 35.0766 26.3857 34.1067 27.2755C33.0829 28.1652 31.7898 28.9504 30.2273 29.4739C28.6108 30.0496 26.6172 30.3113 24.4081 30.3113H19.5588V39H24.4081C27.641 39 30.6045 38.5289 33.1907 37.6391C35.8848 36.697 38.2017 35.3884 40.0875 33.6612C42.0272 31.9339 43.5359 29.8402 44.5596 27.4849C45.5834 25.1294 46.0683 22.617 46.0683 19.8953V19.843C46.1222 17.1736 45.6373 14.6612 44.6135 12.3581Z" fill="url(#paint0_linear_11060_110739)"></path>
  <path d="M63.6338 10.5347H56.791V28.4354H63.6338C66.6515 28.4354 69.0221 27.6503 70.6385 26.0801C72.3086 24.5098 73.1173 22.2592 73.1173 19.485C73.1173 16.6585 72.2549 14.4603 70.6385 12.89C69.0221 11.3197 66.6515 10.5347 63.6338 10.5347ZM63.4723 25.609H60.3473V13.3611H63.4187C67.5671 13.3611 69.6147 15.35 69.6147 19.485C69.6688 23.62 67.6212 25.609 63.4723 25.609Z" fill="#FFF"></path>
  <path d="M63.6338 10.5347H56.791V28.4354H63.6338C66.6515 28.4354 69.0221 27.6503 70.6385 26.0801C72.3086 24.5098 73.1173 22.2592 73.1173 19.485C73.1173 16.6585 72.2549 14.4603 70.6385 12.89C69.0221 11.3197 66.6515 10.5347 63.6338 10.5347ZM63.4723 25.609H60.3473V13.3611H63.4187C67.5671 13.3611 69.6147 15.35 69.6147 19.485C69.6688 23.62 67.6212 25.609 63.4723 25.609Z" fill="url(#paint1_linear_11060_110739)"></path>
  <path d="M74.9453 15.9711H78.3937V28.4807H74.9453V15.9711ZM74.8916 14.6102H78.3401V11.8884H74.8916V14.6102Z" fill="#FFF"></path>
  <path d="M74.9453 15.9711H78.3937V28.4807H74.9453V15.9711ZM74.8916 14.6102H78.3401V11.8884H74.8916V14.6102Z" fill="url(#paint2_linear_11060_110739)"></path>
  <path d="M102.157 16.498C101.296 15.9746 100.272 15.6606 99.1942 15.6606C98.2778 15.6606 97.4164 15.8699 96.7159 16.2363C96.0692 16.5504 95.5843 17.0215 95.2068 17.5972V15.9746H91.8125V33.195H95.261V26.8093C95.638 27.3328 96.1233 27.8038 96.7696 28.1179C97.47 28.4843 98.3319 28.6937 99.2479 28.6937C100.38 28.6937 101.35 28.432 102.211 27.9085C103.074 27.3852 103.72 26.5999 104.205 25.6578C104.69 24.7157 104.905 23.5641 104.905 22.2556C104.905 20.9471 104.637 19.7956 104.205 18.8534C103.72 17.8066 103.02 17.0215 102.157 16.498ZM100.541 25.1344C100.002 25.7626 99.2479 26.0765 98.2778 26.0765C97.3086 26.0765 96.554 25.7626 96.0155 25.0821C95.4765 24.454 95.2068 23.5118 95.2068 22.3079C95.2068 21.1041 95.4765 20.1619 96.0155 19.4815C96.554 18.8534 97.3086 18.4871 98.2778 18.4871C99.2479 18.4871 100.002 18.801 100.541 19.4815C101.08 20.1619 101.35 21.1041 101.35 22.3079C101.35 23.5641 101.08 24.454 100.541 25.1344Z" fill="#FFF"></path>
  <path d="M102.157 16.498C101.296 15.9746 100.272 15.6606 99.1942 15.6606C98.2778 15.6606 97.4164 15.8699 96.7159 16.2363C96.0692 16.5504 95.5843 17.0215 95.2068 17.5972V15.9746H91.8125V33.195H95.261V26.8093C95.638 27.3328 96.1233 27.8038 96.7696 28.1179C97.47 28.4843 98.3319 28.6937 99.2479 28.6937C100.38 28.6937 101.35 28.432 102.211 27.9085C103.074 27.3852 103.72 26.5999 104.205 25.6578C104.69 24.7157 104.905 23.5641 104.905 22.2556C104.905 20.9471 104.637 19.7956 104.205 18.8534C103.72 17.8066 103.02 17.0215 102.157 16.498ZM100.541 25.1344C100.002 25.7626 99.2479 26.0765 98.2778 26.0765C97.3086 26.0765 96.554 25.7626 96.0155 25.0821C95.4765 24.454 95.2068 23.5118 95.2068 22.3079C95.2068 21.1041 95.4765 20.1619 96.0155 19.4815C96.554 18.8534 97.3086 18.4871 98.2778 18.4871C99.2479 18.4871 100.002 18.801 100.541 19.4815C101.08 20.1619 101.35 21.1041 101.35 22.3079C101.35 23.5641 101.08 24.454 100.541 25.1344Z" fill="url(#paint3_linear_11060_110739)"></path>
  <path d="M127.487 26.0294C127.056 26.0817 126.679 26.0817 126.301 26.0817C124.794 26.0817 124.039 25.2965 124.039 23.7263V18.4922H127.218L128.888 15.9274H123.985V11.8447H120.536V15.9274H118.112V18.4922H120.536V23.7786C120.536 25.3489 120.968 26.605 121.83 27.3903C122.692 28.1753 124.039 28.5941 125.816 28.5941C126.248 28.5941 127.003 28.5417 127.487 28.4894V26.0294Z" fill="#FFF"></path>
  <path d="M127.487 26.0294C127.056 26.0817 126.679 26.0817 126.301 26.0817C124.794 26.0817 124.039 25.2965 124.039 23.7263V18.4922H127.218L128.888 15.9274H123.985V11.8447H120.536V15.9274H118.112V18.4922H120.536V23.7786C120.536 25.3489 120.968 26.605 121.83 27.3903C122.692 28.1753 124.039 28.5941 125.816 28.5941C126.248 28.5941 127.003 28.5417 127.487 28.4894V26.0294Z" fill="url(#paint4_linear_11060_110739)"></path>
  <path d="M151.515 16.9656C150.76 16.1282 149.575 15.657 148.066 15.657C147.151 15.657 146.342 15.8141 145.642 16.1805C144.995 16.4945 144.456 16.9132 144.025 17.489V11.8884H140.631V28.4284H144.079V21.3623C144.079 20.4202 144.349 19.6873 144.888 19.1117C145.426 18.5358 146.181 18.2741 147.043 18.2741C147.797 18.2741 148.39 18.4835 148.713 18.9023C149.09 19.3209 149.251 20.0014 149.251 20.9435V28.4284H152.7V20.7865C152.647 19.1117 152.269 17.803 151.515 16.9656Z" fill="#FFF"></path>
  <path d="M151.515 16.9656C150.76 16.1282 149.575 15.657 148.066 15.657C147.151 15.657 146.342 15.8141 145.642 16.1805C144.995 16.4945 144.456 16.9132 144.025 17.489V11.8884H140.631V28.4284H144.079V21.3623C144.079 20.4202 144.349 19.6873 144.888 19.1117C145.426 18.5358 146.181 18.2741 147.043 18.2741C147.797 18.2741 148.39 18.4835 148.713 18.9023C149.09 19.3209 149.251 20.0014 149.251 20.9435V28.4284H152.7V20.7865C152.647 19.1117 152.269 17.803 151.515 16.9656Z" fill="url(#paint5_linear_11060_110739)"></path>
  <path d="M159.41 5.75C160.321 5.75 161.147 5.95817 161.885 6.37445C162.634 6.79079 163.221 7.36214 163.65 8.08846C164.079 8.80592 164.293 9.60756 164.293 10.4934C164.293 11.3791 164.079 12.1852 163.65 12.9116C163.221 13.629 162.634 14.2003 161.885 14.6255C161.138 15.0418 160.313 15.25 159.41 15.25C158.499 15.25 157.669 15.0418 156.921 14.6255C156.182 14.2003 155.594 13.629 155.156 12.9116C154.728 12.1852 154.514 11.3791 154.514 10.4934C154.514 9.60756 154.728 8.80592 155.156 8.08846C155.586 7.36214 156.173 6.79079 156.921 6.37445C157.669 5.95817 158.499 5.75 159.41 5.75ZM159.41 14.5856C160.195 14.5856 160.901 14.4085 161.531 14.0542C162.169 13.6911 162.67 13.1994 163.034 12.5793C163.399 11.9505 163.582 11.2552 163.582 10.4934C163.582 9.73159 163.399 9.04068 163.034 8.42061C162.67 7.79173 162.169 7.30012 161.531 6.94581C160.901 6.59149 160.195 6.41435 159.41 6.41435C158.626 6.41435 157.915 6.59149 157.276 6.94581C156.638 7.30012 156.137 7.79173 155.772 8.42061C155.407 9.04068 155.224 9.73159 155.224 10.4934C155.224 11.2552 155.407 11.9505 155.772 12.5793C156.137 13.1994 156.638 13.6911 157.276 14.0542C157.915 14.4085 158.626 14.5856 159.41 14.5856ZM160.395 11.0116C160.76 11.1001 161.034 11.3127 161.216 11.6493L162.2 13.2969H160.819L159.78 11.5031C159.688 11.3615 159.592 11.264 159.492 11.2109C159.391 11.1489 159.259 11.1178 159.095 11.1178H158.508V13.2969H157.263V7.68986H159.78C160.436 7.68986 160.942 7.84044 161.298 8.14161C161.654 8.44278 161.831 8.85911 161.831 9.39057C161.831 9.81572 161.703 10.1745 161.448 10.4668C161.202 10.7502 160.851 10.9318 160.395 11.0116ZM159.629 10.2276C159.967 10.2276 160.217 10.1656 160.381 10.0416C160.545 9.90872 160.628 9.70499 160.628 9.43042C160.628 9.1558 160.545 8.9565 160.381 8.83252C160.226 8.69966 159.975 8.63322 159.629 8.63322H158.494V10.2276H159.629Z" fill="#FFF"></path>
  <path d="M159.41 5.75C160.321 5.75 161.147 5.95817 161.885 6.37445C162.634 6.79079 163.221 7.36214 163.65 8.08846C164.079 8.80592 164.293 9.60756 164.293 10.4934C164.293 11.3791 164.079 12.1852 163.65 12.9116C163.221 13.629 162.634 14.2003 161.885 14.6255C161.138 15.0418 160.313 15.25 159.41 15.25C158.499 15.25 157.669 15.0418 156.921 14.6255C156.182 14.2003 155.594 13.629 155.156 12.9116C154.728 12.1852 154.514 11.3791 154.514 10.4934C154.514 9.60756 154.728 8.80592 155.156 8.08846C155.586 7.36214 156.173 6.79079 156.921 6.37445C157.669 5.95817 158.499 5.75 159.41 5.75ZM159.41 14.5856C160.195 14.5856 160.901 14.4085 161.531 14.0542C162.169 13.6911 162.67 13.1994 163.034 12.5793C163.399 11.9505 163.582 11.2552 163.582 10.4934C163.582 9.73159 163.399 9.04068 163.034 8.42061C162.67 7.79173 162.169 7.30012 161.531 6.94581C160.901 6.59149 160.195 6.41435 159.41 6.41435C158.626 6.41435 157.915 6.59149 157.276 6.94581C156.638 7.30012 156.137 7.79173 155.772 8.42061C155.407 9.04068 155.224 9.73159 155.224 10.4934C155.224 11.2552 155.407 11.9505 155.772 12.5793C156.137 13.1994 156.638 13.6911 157.276 14.0542C157.915 14.4085 158.626 14.5856 159.41 14.5856ZM160.395 11.0116C160.76 11.1001 161.034 11.3127 161.216 11.6493L162.2 13.2969H160.819L159.78 11.5031C159.688 11.3615 159.592 11.264 159.492 11.2109C159.391 11.1489 159.259 11.1178 159.095 11.1178H158.508V13.2969H157.263V7.68986H159.78C160.436 7.68986 160.942 7.84044 161.298 8.14161C161.654 8.44278 161.831 8.85911 161.831 9.39057C161.831 9.81572 161.703 10.1745 161.448 10.4668C161.202 10.7502 160.851 10.9318 160.395 11.0116ZM159.629 10.2276C159.967 10.2276 160.217 10.1656 160.381 10.0416C160.545 9.90872 160.628 9.70499 160.628 9.43042C160.628 9.1558 160.545 8.9565 160.381 8.83252C160.226 8.69966 159.975 8.63322 159.629 8.63322H158.494V10.2276H159.629Z" fill="url(#paint6_linear_11060_110739)"></path>
  <path d="M138.747 24.7155C138.208 25.1342 137.67 25.4482 137.077 25.6576C136.484 25.867 135.892 25.9717 135.353 25.9717C134.867 25.9717 134.383 25.9193 134.006 25.7623C133.736 25.6576 133.467 25.5529 133.251 25.3958C133.09 25.2912 132.928 25.1342 132.766 24.9771C132.174 24.2967 131.851 23.3546 131.851 22.1507C131.851 20.8945 132.174 19.9524 132.766 19.2719C132.874 19.1672 132.982 19.0102 133.144 18.9056C133.413 18.6962 133.736 18.5915 134.006 18.4344C134.383 18.3298 134.814 18.2251 135.299 18.2251C135.892 18.2251 136.484 18.3298 137.023 18.5392C137.616 18.7485 138.154 19.0625 138.693 19.4813L138.747 19.5336V16.4454C138.423 16.2884 138.047 16.1314 137.615 15.9744C136.753 15.7127 135.838 15.5557 134.975 15.5557C133.629 15.5557 132.443 15.8174 131.473 16.3931C130.449 16.9165 129.642 17.7016 129.103 18.6962C128.564 19.6906 128.294 20.8421 128.294 22.0983C128.294 23.4069 128.564 24.5061 129.103 25.5006C129.642 26.495 130.396 27.2278 131.366 27.7513C132.335 28.2746 133.521 28.5364 134.867 28.5364C135.784 28.5364 136.699 28.3793 137.615 28.1176C138.047 27.9606 138.423 27.8036 138.801 27.6466V24.6108L138.747 24.7155Z" fill="#FFF"></path>
  <path d="M138.747 24.7155C138.208 25.1342 137.67 25.4482 137.077 25.6576C136.484 25.867 135.892 25.9717 135.353 25.9717C134.867 25.9717 134.383 25.9193 134.006 25.7623C133.736 25.6576 133.467 25.5529 133.251 25.3958C133.09 25.2912 132.928 25.1342 132.766 24.9771C132.174 24.2967 131.851 23.3546 131.851 22.1507C131.851 20.8945 132.174 19.9524 132.766 19.2719C132.874 19.1672 132.982 19.0102 133.144 18.9056C133.413 18.6962 133.736 18.5915 134.006 18.4344C134.383 18.3298 134.814 18.2251 135.299 18.2251C135.892 18.2251 136.484 18.3298 137.023 18.5392C137.616 18.7485 138.154 19.0625 138.693 19.4813L138.747 19.5336V16.4454C138.423 16.2884 138.047 16.1314 137.615 15.9744C136.753 15.7127 135.838 15.5557 134.975 15.5557C133.629 15.5557 132.443 15.8174 131.473 16.3931C130.449 16.9165 129.642 17.7016 129.103 18.6962C128.564 19.6906 128.294 20.8421 128.294 22.0983C128.294 23.4069 128.564 24.5061 129.103 25.5006C129.642 26.495 130.396 27.2278 131.366 27.7513C132.335 28.2746 133.521 28.5364 134.867 28.5364C135.784 28.5364 136.699 28.3793 137.615 28.1176C138.047 27.9606 138.423 27.8036 138.801 27.6466V24.6108L138.747 24.7155Z" fill="url(#paint7_linear_11060_110739)"></path>
  <path d="M116.11 16.9253C115.247 16.0878 113.901 15.6167 112.069 15.6167C111.153 15.6167 110.183 15.7737 109.212 16.0355C108.566 16.2448 107.758 16.5589 107.058 16.873L107.003 19.7518C107.704 19.333 109.051 18.7049 109.805 18.4956C110.506 18.2862 111.206 18.1815 111.906 18.1815C112.716 18.1815 113.362 18.3386 113.684 18.7049C114.062 19.0713 114.223 19.6471 114.223 20.4322V20.9032H113.684C111.799 20.9032 110.29 21.008 109.212 21.2696C108.135 21.5313 107.327 21.8977 106.842 22.4212C106.357 22.9445 106.088 23.6774 106.088 24.6194C106.088 25.3523 106.303 26.0327 106.681 26.6085C107.058 27.1843 107.651 27.7076 108.351 28.0217C109.051 28.3881 109.86 28.5451 110.721 28.5451C111.584 28.5451 112.338 28.3358 112.984 27.9694C113.523 27.6553 113.954 27.2366 114.223 26.7132V28.3358H117.51V20.9032C117.402 19.1236 116.971 17.8151 116.11 16.9253ZM114.062 23.5203C114.062 24.4101 113.793 24.9859 113.254 25.5617C112.716 26.1374 112.014 26.3991 111.153 26.3991C110.56 26.3991 110.075 26.242 109.697 25.8756C109.321 25.5617 109.158 25.1429 109.158 24.5671C109.158 24.1485 109.321 23.8344 109.536 23.5726C109.805 23.311 110.29 23.1539 110.938 23.0492C111.584 22.9445 112.553 22.8923 113.739 22.8923H114.116V23.5203H114.062Z" fill="#FFF"></path>
  <path d="M116.11 16.9253C115.247 16.0878 113.901 15.6167 112.069 15.6167C111.153 15.6167 110.183 15.7737 109.212 16.0355C108.566 16.2448 107.758 16.5589 107.058 16.873L107.003 19.7518C107.704 19.333 109.051 18.7049 109.805 18.4956C110.506 18.2862 111.206 18.1815 111.906 18.1815C112.716 18.1815 113.362 18.3386 113.684 18.7049C114.062 19.0713 114.223 19.6471 114.223 20.4322V20.9032H113.684C111.799 20.9032 110.29 21.008 109.212 21.2696C108.135 21.5313 107.327 21.8977 106.842 22.4212C106.357 22.9445 106.088 23.6774 106.088 24.6194C106.088 25.3523 106.303 26.0327 106.681 26.6085C107.058 27.1843 107.651 27.7076 108.351 28.0217C109.051 28.3881 109.86 28.5451 110.721 28.5451C111.584 28.5451 112.338 28.3358 112.984 27.9694C113.523 27.6553 113.954 27.2366 114.223 26.7132V28.3358H117.51V20.9032C117.402 19.1236 116.971 17.8151 116.11 16.9253ZM114.062 23.5203C114.062 24.4101 113.793 24.9859 113.254 25.5617C112.716 26.1374 112.014 26.3991 111.153 26.3991C110.56 26.3991 110.075 26.242 109.697 25.8756C109.321 25.5617 109.158 25.1429 109.158 24.5671C109.158 24.1485 109.321 23.8344 109.536 23.5726C109.805 23.311 110.29 23.1539 110.938 23.0492C111.584 22.9445 112.553 22.8923 113.739 22.8923H114.116V23.5203H114.062Z" fill="url(#paint8_linear_11060_110739)"></path>
  <path d="M88.0437 16.088C87.1818 15.8263 86.3195 15.6692 85.4035 15.6692C84.3797 15.6692 83.41 15.8263 82.6554 16.1403C81.8472 16.4544 81.2009 16.9254 80.7698 17.5012C80.3386 18.077 80.0693 18.8097 80.0693 19.5426C80.0693 20.4847 80.3927 21.2174 80.9312 21.8455C81.5243 22.4213 82.3862 22.84 83.5714 23.1017L85.6191 23.5728C86.3195 23.7298 86.7507 23.9392 87.0199 24.0962C87.2896 24.3055 87.3974 24.5149 87.3974 24.8814C87.3974 25.3001 87.2355 25.6141 86.8584 25.8235C86.4809 26.0328 85.9424 26.1376 85.1879 26.1376C83.4637 26.1376 81.955 25.6664 80.6083 24.7243L80.5005 24.672V27.6554C80.9312 27.9172 81.4702 28.0742 82.0091 28.2312C82.9788 28.4929 84.0026 28.6499 85.1342 28.6499C86.7507 28.6499 88.0974 28.2836 89.0675 27.6031C90.0372 26.9227 90.5225 25.9805 90.5225 24.829C90.5225 23.8869 90.1991 23.1017 89.6065 22.4737C89.0138 21.8979 88.0437 21.4268 86.8043 21.1651L84.6494 20.694C84.1104 20.5893 83.7334 20.4323 83.4637 20.2229C83.2481 20.0135 83.1407 19.7518 83.1407 19.4379C83.1407 19.0191 83.3022 18.705 83.6792 18.4433C84.0568 18.1816 84.5953 18.077 85.2957 18.077C86.5887 18.077 88.1515 18.705 89.4446 19.6471L89.5523 19.6995V16.7684C89.1212 16.5067 88.5827 16.245 88.0437 16.088Z" fill="#FFF"></path>
  <path d="M88.0437 16.088C87.1818 15.8263 86.3195 15.6692 85.4035 15.6692C84.3797 15.6692 83.41 15.8263 82.6554 16.1403C81.8472 16.4544 81.2009 16.9254 80.7698 17.5012C80.3386 18.077 80.0693 18.8097 80.0693 19.5426C80.0693 20.4847 80.3927 21.2174 80.9312 21.8455C81.5243 22.4213 82.3862 22.84 83.5714 23.1017L85.6191 23.5728C86.3195 23.7298 86.7507 23.9392 87.0199 24.0962C87.2896 24.3055 87.3974 24.5149 87.3974 24.8814C87.3974 25.3001 87.2355 25.6141 86.8584 25.8235C86.4809 26.0328 85.9424 26.1376 85.1879 26.1376C83.4637 26.1376 81.955 25.6664 80.6083 24.7243L80.5005 24.672V27.6554C80.9312 27.9172 81.4702 28.0742 82.0091 28.2312C82.9788 28.4929 84.0026 28.6499 85.1342 28.6499C86.7507 28.6499 88.0974 28.2836 89.0675 27.6031C90.0372 26.9227 90.5225 25.9805 90.5225 24.829C90.5225 23.8869 90.1991 23.1017 89.6065 22.4737C89.0138 21.8979 88.0437 21.4268 86.8043 21.1651L84.6494 20.694C84.1104 20.5893 83.7334 20.4323 83.4637 20.2229C83.2481 20.0135 83.1407 19.7518 83.1407 19.4379C83.1407 19.0191 83.3022 18.705 83.6792 18.4433C84.0568 18.1816 84.5953 18.077 85.2957 18.077C86.5887 18.077 88.1515 18.705 89.4446 19.6471L89.5523 19.6995V16.7684C89.1212 16.5067 88.5827 16.245 88.0437 16.088Z" fill="url(#paint9_linear_11060_110739)"></path>
  <defs>
    <linearGradient id="paint0_linear_11060_110739" x1="23.0362" y1="1" x2="23.0362" y2="39" gradientUnits="userSpaceOnUse">
      <stop stop-color="#FFF"></stop>
      <stop offset="1" stop-color="#FFF"></stop>
    </linearGradient>
    <linearGradient id="paint1_linear_11060_110739" x1="64.9541" y1="10.5347" x2="64.9541" y2="28.4354" gradientUnits="userSpaceOnUse">
      <stop stop-color="#FFF"></stop>
      <stop offset="1" stop-color="#FFF"></stop>
    </linearGradient>
    <linearGradient id="paint2_linear_11060_110739" x1="76.6427" y1="11.8884" x2="76.6427" y2="28.4807" gradientUnits="userSpaceOnUse">
      <stop stop-color="#FFF"></stop>
      <stop offset="1" stop-color="#FFF"></stop>
    </linearGradient>
    <linearGradient id="paint3_linear_11060_110739" x1="98.359" y1="15.6606" x2="98.359" y2="33.195" gradientUnits="userSpaceOnUse">
      <stop stop-color="#FFF"></stop>
      <stop offset="1" stop-color="#FFF"></stop>
    </linearGradient>
    <linearGradient id="paint4_linear_11060_110739" x1="123.5" y1="11.8447" x2="123.5" y2="28.5941" gradientUnits="userSpaceOnUse">
      <stop stop-color="#FFF"></stop>
      <stop offset="1" stop-color="#FFF"></stop>
    </linearGradient>
    <linearGradient id="paint5_linear_11060_110739" x1="146.666" y1="11.8884" x2="146.666" y2="28.4284" gradientUnits="userSpaceOnUse">
      <stop stop-color="#FFF"></stop>
      <stop offset="1" stop-color="#FFF"></stop>
    </linearGradient>
    <linearGradient id="paint6_linear_11060_110739" x1="159.403" y1="5.75" x2="159.403" y2="15.25" gradientUnits="userSpaceOnUse">
      <stop stop-color="#FFF"></stop>
      <stop offset="1" stop-color="#FFF"></stop>
    </linearGradient>
    <linearGradient id="paint7_linear_11060_110739" x1="133.547" y1="15.5557" x2="133.547" y2="28.5364" gradientUnits="userSpaceOnUse">
      <stop stop-color="#FFF"></stop>
      <stop offset="1" stop-color="#FFF"></stop>
    </linearGradient>
    <linearGradient id="paint8_linear_11060_110739" x1="111.799" y1="15.6167" x2="111.799" y2="28.5451" gradientUnits="userSpaceOnUse">
      <stop stop-color="#FFF"></stop>
      <stop offset="1" stop-color="#FFF"></stop>
    </linearGradient>
    <linearGradient id="paint9_linear_11060_110739" x1="85.2959" y1="15.6692" x2="85.2959" y2="28.6499" gradientUnits="userSpaceOnUse">
      <stop stop-color="#FFF"></stop>
      <stop offset="1" stop-color="#FFF"></stop>
    </linearGradient>
  </defs>
</svg>
