<svg width="104" height="33" viewBox="0 0 104 33" fill="none" xmlns="http://www.w3.org/2000/svg">
<path d="M61.9443 22.043H62.1152L65.9043 9.66211H70.0137L63.4492 28.041C63.1433 28.9091 62.7376 29.6534 62.2324 30.2725C61.7272 30.8985 61.1078 31.3749 60.375 31.7021C59.6494 32.0365 58.7816 32.204 57.7715 32.2041C57.2449 32.2041 56.7569 32.1616 56.3086 32.0762C55.8675 31.9979 55.5152 31.9056 55.252 31.7988L56.1484 28.7891C56.7104 28.9527 57.2122 29.0305 57.6533 29.0234C58.0945 29.0163 58.483 28.8778 58.8174 28.6074C59.1589 28.3441 59.4469 27.9022 59.6816 27.2832L60.0127 26.3975L54.0674 9.66211H58.166L61.9443 22.043ZM23.9873 0.203125C25.6594 0.203125 27.0154 1.55847 27.0156 3.23047V18.5273L27.0107 18.5264C27.0129 18.6178 27.0146 18.7098 27.0146 18.8018C27.0145 25.3818 21.3462 30.7157 14.3535 30.7158C7.36071 30.7158 1.6916 25.3819 1.69141 18.8018C1.69141 12.2215 7.36058 6.88672 14.3535 6.88672C16.7745 6.88677 19.0367 7.52657 20.96 8.63574V3.23047C20.9602 1.55863 22.3155 0.203386 23.9873 0.203125ZM78.0293 9.44727C78.819 9.4473 79.6051 9.53964 80.3877 9.72461C81.1704 9.90961 81.8857 10.2157 82.5332 10.6426C83.1806 11.0624 83.6995 11.6356 84.0908 12.3613C84.4893 13.0871 84.6885 13.9944 84.6885 15.083V26.0547H80.9746V23.8027H80.8467C80.6119 24.2581 80.2804 24.6855 79.8535 25.084C79.4338 25.4751 78.9038 25.7914 78.2637 26.0332C77.6305 26.268 76.8869 26.3857 76.0332 26.3857C74.9943 26.3857 74.0581 26.2011 73.2256 25.8311C72.4003 25.454 71.7455 24.8988 71.2617 24.166C70.785 23.4332 70.5469 22.5293 70.5469 21.4551C70.5469 20.5301 70.718 19.765 71.0596 19.1602C71.4011 18.5554 71.8665 18.0709 72.457 17.708C73.0476 17.3451 73.7132 17.0717 74.4531 16.8867C75.2003 16.6946 75.9726 16.5561 76.7695 16.4707C77.7299 16.3711 78.5088 16.2814 79.1064 16.2031C79.7041 16.1177 80.1388 15.9901 80.4092 15.8193C80.6866 15.6414 80.8252 15.367 80.8252 14.9971V14.9336C80.8252 14.1296 80.587 13.5066 80.1104 13.0654C79.6336 12.6243 78.9464 12.4033 78.0498 12.4033C77.1036 12.4034 76.3528 12.6098 75.7979 13.0225C75.25 13.4352 74.8806 13.9232 74.6885 14.4854L71.0801 13.9727C71.3647 12.9766 71.8348 12.1444 72.4893 11.4756C73.1438 10.7997 73.9444 10.2944 74.8906 9.95996C75.837 9.61842 76.8837 9.44727 78.0293 9.44727ZM102.487 26.0537H98.6875V23.4717H98.4521C98.2529 23.87 97.9648 24.2931 97.5879 24.7412C97.2108 25.1824 96.7128 25.56 96.0938 25.873C95.4747 26.1861 94.6951 26.3428 93.7559 26.3428C92.4681 26.3427 91.3153 26.0113 90.2979 25.3496C89.2804 24.6879 88.4763 23.7271 87.8857 22.4678C87.2953 21.2085 87.0001 19.6788 87 17.8789C87 16.0574 87.2988 14.5199 87.8965 13.2676C88.5013 12.0081 89.3162 11.0584 90.3408 10.418C91.3654 9.7705 92.5073 9.44633 93.7666 9.44629C94.7272 9.44629 95.5177 9.61019 96.1367 9.9375C96.7556 10.2576 97.2466 10.6453 97.6094 11.1006C97.9723 11.5488 98.2529 11.9726 98.4521 12.3711H98.6123V4.19531H102.487V26.0537ZM42.2197 4.19531C44.3899 4.19531 46.2542 4.63266 47.8125 5.50781C49.3779 6.3759 50.5803 7.62543 51.4199 9.25488C52.2595 10.8843 52.6797 12.8338 52.6797 15.1035C52.6797 17.3804 52.2559 19.3371 51.4092 20.9736C50.5696 22.6102 49.3563 23.866 47.7695 24.7412C46.1899 25.6163 44.2903 26.0537 42.0703 26.0537H34.6631V4.19531H42.2197ZM14.3926 12.707C10.7224 12.707 7.74707 15.4183 7.74707 18.7627C7.74708 22.1071 10.7224 24.8184 14.3926 24.8184C18.0628 24.8184 21.0381 22.1071 21.0381 18.7627C21.0381 15.4183 18.0628 12.707 14.3926 12.707ZM80.8359 18.2422C80.715 18.3418 80.5085 18.4342 80.2168 18.5195C79.9322 18.6049 79.6116 18.6801 79.2559 18.7441C78.9002 18.8081 78.5477 18.8643 78.1992 18.9141C77.8507 18.9639 77.5481 19.0074 77.292 19.043C76.7159 19.1212 76.2003 19.249 75.7451 19.4268C75.2898 19.6046 74.9303 19.8537 74.667 20.1738C74.4037 20.4869 74.2715 20.8925 74.2715 21.3906C74.2715 22.102 74.5315 22.6391 75.0508 23.002C75.5702 23.3648 76.2321 23.5469 77.0361 23.5469C77.8117 23.5469 78.4845 23.3939 79.0537 23.0879C79.6229 22.7748 80.0603 22.3619 80.3662 21.8496C80.6793 21.3373 80.8359 20.7786 80.8359 20.1738V18.2422ZM94.834 12.6162C93.9731 12.6162 93.2541 12.8408 92.6777 13.2891C92.1015 13.7373 91.6677 14.3568 91.376 15.1465C91.0843 15.9362 90.9385 16.8401 90.9385 17.8574C90.9385 18.8819 91.0843 19.7966 91.376 20.6006C91.6748 21.3972 92.1123 22.0268 92.6885 22.4893C93.2719 22.9446 93.9873 23.1718 94.834 23.1719C95.6521 23.1719 96.3495 22.9518 96.9258 22.5107C97.5021 22.0625 97.9404 21.4395 98.2393 20.6426C98.538 19.8458 98.6875 18.9174 98.6875 17.8574C98.6875 16.7973 98.5381 15.8754 98.2393 15.0928C97.9475 14.3101 97.5129 13.7016 96.9365 13.2676C96.3673 12.8336 95.6664 12.6162 94.834 12.6162ZM38.623 22.6279H41.8779C43.4005 22.6279 44.671 22.3508 45.6885 21.7959C46.706 21.2338 47.4711 20.3971 47.9834 19.2871C48.4956 18.17 48.7519 16.7755 48.752 15.1035C48.752 13.4314 48.4957 12.0433 47.9834 10.9404C47.4711 9.83059 46.7131 9.00195 45.71 8.4541C44.7139 7.89915 43.4759 7.62115 41.9961 7.62109H38.623V22.6279Z" fill="white"/>
</svg>
