<svg width="112" height="32" viewBox="0 0 112 32" fill="none" xmlns="http://www.w3.org/2000/svg">
<path d="M102.654 12.6132C100.476 12.5924 99.1359 13.925 99.471 17.2149C101.377 16.4653 103.324 15.57 105.272 14.4872C104.706 12.8006 103.24 12.6132 102.654 12.6132ZM103.492 26.46C97.9841 26.4183 94.5707 22.9202 94.5707 17.2982C94.5707 11.7387 97.7538 8.28219 102.884 8.28219C107.198 8.28219 109.9 10.9683 110.716 16.0489C107.743 18.0061 104.434 19.7344 100.958 21.067C100.958 21.067 101.858 21.7125 103.722 21.6917H110.507V26.46H103.492ZM50.7616 26.46V16.1738C50.7616 13.8625 50.1334 13.1962 47.9764 13.1962H45.6729V26.46H40.8354V8.49041H48.5209C53.2745 8.49041 55.5781 10.6559 55.5781 15.1327V26.46H50.7616ZM65.4833 26.46C59.9548 26.46 56.5204 23.0659 56.5204 17.5272C56.5204 11.9469 59.9339 8.51124 65.4414 8.51124H67.5355V13.4253H65.7765C63.0541 13.4669 61.5045 14.9661 61.5045 17.5481C61.5045 20.0467 63.0541 21.5043 65.7765 21.5251H67.6193V26.46H65.4833ZM85.189 26.46V15.1327C85.189 10.6559 87.4926 8.49041 92.2462 8.49041H94.4869V13.1962H92.8116C90.6547 13.1962 90.0264 13.8625 90.0264 16.1738V26.46H85.189ZM31.9145 12.6132C29.7366 12.5924 28.3963 13.925 28.7314 17.2149C30.6371 16.4653 32.5846 15.57 34.5321 14.4872C33.9667 12.8006 32.5008 12.6132 31.9145 12.6132ZM32.7521 26.46C27.2446 26.4183 23.8311 22.9202 23.8311 17.2982C23.8311 11.7387 27.0142 8.28219 32.1448 8.28219C36.4587 8.28219 39.1601 10.9683 39.9769 16.0489C37.0032 18.0061 33.6945 19.7344 30.2182 21.067C30.2182 21.067 31.1187 21.7125 32.9825 21.6917H39.7674V26.46H32.7521ZM19.0356 21.6709V26.46H0V12.0094C3.01554 11.3639 6.01014 10.531 8.92097 9.5107C12.3972 8.30301 15.7688 6.86628 19.0356 5.17969V10.5102C16.2714 11.8428 13.4024 13.0088 10.4916 14.0291C7.20379 15.1743 3.83225 16.0905 0.418825 16.7985V16.8401C6.72214 16.2571 12.9208 15.2368 19.0356 13.8209V18.7141C12.9208 20.0884 6.7012 21.067 0.418825 21.6292V21.6709H19.0356ZM67.9963 17.4648C67.9963 23.2325 71.0537 26.8139 76.1215 26.8139C81.1892 26.8139 84.2467 23.2325 84.2467 17.4648C84.2676 14.4039 83.4509 12.0302 81.8384 10.4269C80.4353 9.01097 78.4041 8.24055 76.1215 8.24055C73.8389 8.24055 71.8076 9.01097 70.4045 10.4269C68.792 12.051 67.9753 14.4247 67.9963 17.4648ZM72.6452 17.5481C72.6452 14.8204 74.0483 12.9672 76.1215 12.9672C78.1946 12.9672 79.5977 14.7995 79.5977 17.5481C79.5977 20.2758 78.2156 22.0457 76.1215 22.0457C74.0273 22.0457 72.6452 20.2758 72.6452 17.5481Z" fill="white"/>
</svg>
