<svg width="150" height="32" viewBox="0 0 150 32" fill="none" xmlns="http://www.w3.org/2000/svg">
<g clip-path="url(#clip0_32214_59949)">
<path fill-rule="evenodd" clip-rule="evenodd" d="M7.73631 25.7383H1.09862C0.864484 25.7382 0.704191 25.5016 0.791001 25.2842L2.98534 19.7969H10.1123L7.73631 25.7383ZM27.7392 23.2393C27.1359 24.7482 25.6749 25.7383 24.0498 25.7383H8.92381L11.2998 19.7969H29.1162L27.7392 23.2393ZM47.0556 10.4092C48.3923 10.4092 49.5439 10.6682 50.5098 11.1855C51.4755 11.6943 52.222 12.4358 52.748 13.4102C53.274 14.3845 53.537 15.575 53.5371 16.9805V18.8955H44.2099C44.2531 20.0079 44.5852 20.8834 45.206 21.5215C45.8356 22.151 46.7069 22.4658 47.8193 22.4658C48.742 22.4658 49.587 22.3704 50.3545 22.1807C51.1219 21.991 51.911 21.7066 52.7217 21.3271V24.3799C52.0059 24.7334 51.2554 24.9924 50.4707 25.1562C49.6946 25.3201 48.75 25.4023 47.6377 25.4023C46.1891 25.4023 44.9042 25.1342 43.7832 24.5996C42.6708 24.0649 41.7953 23.2504 41.1572 22.1553C40.5276 21.06 40.2129 19.68 40.2129 18.0156C40.2129 16.3255 40.4974 14.9199 41.0664 13.7988C41.6441 12.6693 42.4466 11.8242 43.4726 11.2637C44.4987 10.6945 45.6932 10.4092 47.0556 10.4092ZM86.2646 25.1436H83.2383L82.4746 23.2676H82.3056C82.056 23.6642 81.7411 24.0268 81.3623 24.3545C80.9914 24.6735 80.5465 24.9275 80.0293 25.1172C79.5122 25.3068 78.9045 25.4023 78.206 25.4023C76.5935 25.4023 75.278 24.7725 74.2607 23.5137C73.2514 22.246 72.7471 20.3874 72.7471 17.9385C72.7471 15.4635 73.2596 13.5919 74.2861 12.3242C75.3119 11.048 76.653 10.4093 78.3086 10.4092C78.9987 10.4092 79.6069 10.5046 80.1328 10.6943C80.6586 10.884 81.1117 11.1381 81.4912 11.457C81.8793 11.7761 82.2077 12.1346 82.4746 12.5312H82.6045C82.5522 12.2554 82.4876 11.8499 82.4101 11.3154C82.3406 10.7722 82.3057 10.2156 82.3056 9.64648V5.01562H86.2646V25.1436ZM106.303 10.4092C107.656 10.4092 108.855 10.6986 109.898 11.2764C110.951 11.8541 111.774 12.6992 112.369 13.8115C112.972 14.924 113.274 16.2827 113.274 17.8867C113.274 19.0939 113.111 20.1635 112.783 21.0947C112.464 22.026 111.994 22.8153 111.373 23.4619C110.761 24.0998 110.02 24.5825 109.148 24.9102C108.286 25.2379 107.311 25.4023 106.225 25.4023C105.207 25.4023 104.272 25.2378 103.418 24.9102C102.573 24.5825 101.836 24.0999 101.206 23.4619C100.586 22.8152 100.102 22.026 99.7568 21.0947C99.4204 20.1635 99.2529 19.0939 99.2529 17.8867C99.2529 16.2827 99.5375 14.924 100.106 13.8115C100.676 12.6992 101.486 11.8541 102.538 11.2764C103.59 10.6986 104.845 10.4092 106.303 10.4092ZM64.6943 10.4092C66.2378 10.4092 67.4801 10.8317 68.4199 11.6768C69.3597 12.5132 69.829 13.8589 69.8291 15.7129V25.1436H65.8838V16.6963C65.8838 15.6614 65.6948 14.8806 65.3154 14.3545C64.9446 13.8285 64.3576 13.5654 63.5556 13.5654C62.3484 13.5654 61.5248 13.9757 61.0849 14.7949C60.6453 15.6141 60.4248 16.7954 60.4248 18.3389V25.1436H56.4795V10.6816H59.4941L60.0244 12.5312H60.2441C60.5546 12.0311 60.9385 11.6258 61.3955 11.3154C61.8611 11.005 62.3742 10.7765 62.9346 10.6299C63.5037 10.4833 64.0906 10.4092 64.6943 10.4092ZM95.8691 4.87305C96.6367 4.87305 97.3356 4.93803 97.9648 5.06738C98.5947 5.18811 99.1081 5.32621 99.5049 5.48145L98.4951 8.37891C98.1932 8.28408 97.8662 8.1977 97.5127 8.12012C97.1591 8.04252 96.7537 8.00392 96.2969 8.00391C95.7447 8.00391 95.3393 8.1717 95.081 8.50781C94.8307 8.83546 94.7051 9.25808 94.7051 9.77539V10.6816H98.1201V13.6436H94.7051V25.1436H90.7598V13.6436H88.5869V11.7422L90.7598 10.6816V9.62012C90.7598 8.38723 90.967 7.43023 91.3808 6.74902C91.8034 6.05913 92.3943 5.57577 93.1533 5.2998C93.9208 5.01526 94.8261 4.87307 95.8691 4.87305ZM124.341 10.4092C124.539 10.4092 124.768 10.4224 125.026 10.4482C125.294 10.4655 125.51 10.4919 125.674 10.5264L125.376 14.2256C125.247 14.1826 125.062 14.152 124.82 14.1348C124.587 14.1089 124.384 14.0957 124.212 14.0957C123.703 14.0957 123.207 14.1607 122.725 14.29C122.25 14.4194 121.823 14.6306 121.443 14.9238C121.064 15.2084 120.763 15.5882 120.538 16.0625C120.323 16.5281 120.215 17.102 120.215 17.7832V25.1436H116.27V10.6816H119.258L119.84 13.1133H120.033C120.318 12.6218 120.672 12.1729 121.095 11.7676C121.526 11.3537 122.014 11.0256 122.557 10.7842C123.108 10.5343 123.703 10.4092 124.341 10.4092ZM145.02 10.4092C146.658 10.4092 147.896 10.8317 148.732 11.6768C149.577 12.5132 150 13.8589 150 15.7129V25.1436H146.041V16.6963C146.041 15.6614 145.865 14.8806 145.512 14.3545C145.158 13.8285 144.61 13.5655 143.868 13.5654C142.825 13.5654 142.083 13.9411 141.644 14.6914C141.204 15.433 140.983 16.4983 140.983 17.8867V25.1436H137.038V16.6963C137.038 16.0064 136.961 15.4285 136.806 14.9629C136.651 14.4972 136.413 14.1478 136.094 13.915C135.775 13.6822 135.365 13.5654 134.864 13.5654C134.132 13.5655 133.554 13.7515 133.132 14.1221C132.718 14.4842 132.42 15.0235 132.239 15.7393C132.066 16.4463 131.98 17.3128 131.98 18.3389V25.1436H128.035V10.6816H131.049L131.579 12.5312H131.799C132.092 12.0311 132.46 11.6259 132.899 11.3154C133.348 11.0051 133.839 10.7765 134.373 10.6299C134.907 10.4833 135.451 10.4092 136.003 10.4092C137.064 10.4092 137.961 10.5818 138.694 10.9268C139.435 11.2717 140.005 11.8069 140.401 12.5312H140.751C141.182 11.7897 141.79 11.2504 142.574 10.9141C143.368 10.5777 144.183 10.4092 145.02 10.4092ZM79.5254 13.6172C78.6544 13.6172 77.9729 13.9929 77.4814 14.7432C76.99 15.4934 76.7441 16.5759 76.7441 17.9902C76.7442 19.4043 76.9901 20.4689 77.4814 21.1846C77.9815 21.9004 78.6845 22.2588 79.5898 22.2588C80.6672 22.2588 81.4264 21.9398 81.8662 21.3018C82.3146 20.655 82.5513 19.6842 82.5771 18.3906V17.9639C82.5771 16.5585 82.3626 15.4848 81.9316 14.7432C81.5005 13.993 80.6981 13.6173 79.5254 13.6172ZM106.25 13.5918C105.207 13.5919 104.448 13.9494 103.974 14.665C103.508 15.3808 103.275 16.4551 103.275 17.8867C103.275 18.8351 103.379 19.6327 103.586 20.2793C103.793 20.9261 104.117 21.4135 104.557 21.7412C104.996 22.0688 105.57 22.2324 106.277 22.2324C106.975 22.2323 107.54 22.0687 107.971 21.7412C108.41 21.4135 108.73 20.9261 108.928 20.2793C109.135 19.6326 109.238 18.8352 109.238 17.8867C109.238 16.9295 109.135 16.1354 108.928 15.5059C108.73 14.8679 108.41 14.3893 107.971 14.0703C107.531 13.7514 106.957 13.5918 106.25 13.5918ZM22.9404 18.6113H3.16307L5.53905 12.6699H25.3154L22.9404 18.6113ZM47.082 13.2168C46.3145 13.2168 45.6758 13.4625 45.167 13.9541C44.667 14.4457 44.3783 15.2176 44.3008 16.2695H49.8369C49.8283 15.6831 49.7206 15.1612 49.5137 14.7041C49.3154 14.2471 49.0136 13.8845 48.6084 13.6172C48.2117 13.3499 47.7028 13.2168 47.082 13.2168ZM33.7353 5.53711C33.9693 5.53743 34.1289 5.77384 34.042 5.99121L31.8486 11.4785H5.71678L7.09374 8.03516C7.69719 6.52651 9.15832 5.53718 10.7832 5.53711H33.7353Z" fill="white"/>
</g>
<defs>
<clipPath id="clip0_32214_59949">
<rect width="150" height="32" fill="white"/>
</clipPath>
</defs>
</svg>
