<svg width="130" height="33" viewBox="0 0 130 33" fill="none" xmlns="http://www.w3.org/2000/svg">
<path d="M103.61 25.3906C103.905 25.3906 104.133 25.4199 104.296 25.4775H105.734V25.7627L104.805 25.8203C105.053 26.1288 105.177 26.4683 105.177 26.8369C105.177 27.269 105.034 27.6202 104.745 27.8887C104.457 28.1572 104.07 28.291 103.586 28.291C103.382 28.291 103.239 28.2831 103.156 28.2666C102.994 28.3525 102.87 28.4521 102.784 28.5674C102.698 28.6828 102.655 28.806 102.655 28.9355C102.655 29.0791 102.71 29.1841 102.818 29.25C102.928 29.3158 103.11 29.3486 103.365 29.3486H104.151C104.639 29.3487 105.012 29.4479 105.271 29.6445C105.53 29.8411 105.66 30.1329 105.66 30.5176C105.66 30.9908 105.468 31.3573 105.083 31.6152C104.699 31.8731 104.151 32.0019 103.441 32.002C102.876 32.002 102.439 31.8936 102.129 31.6758C101.819 31.458 101.664 31.1551 101.664 30.7666C101.664 30.4582 101.759 30.2015 101.951 29.999C102.142 29.7953 102.403 29.6562 102.731 29.582C102.596 29.5244 102.487 29.4418 102.406 29.3359C102.325 29.23 102.283 29.1073 102.283 28.9707C102.283 28.6704 102.476 28.4052 102.858 28.1768C102.597 28.0696 102.393 27.9004 102.247 27.6709C102.101 27.4413 102.028 27.1768 102.028 26.8789C102.028 26.4304 102.17 26.0698 102.455 25.7979C102.74 25.5271 103.125 25.3907 103.61 25.3906ZM103.334 29.7598C102.511 29.7598 102.099 30.0838 102.099 30.7314L102.098 30.7295C102.098 31.3465 102.555 31.6552 103.474 31.6553C104.652 31.6553 105.243 31.2798 105.243 30.5273C105.243 30.2577 105.149 30.0627 104.966 29.9414C104.781 29.8202 104.483 29.7598 104.07 29.7598H103.334ZM28.6738 1.75781C31.4811 1.75795 33.7578 4.03445 33.7578 6.8418V24.0479C33.7577 27.4404 31.0077 30.1903 27.6152 30.1904H7.91895C4.31326 30.1902 1.39062 27.2669 1.39062 23.6611V9.79785C2.33621 10.4231 3.47052 10.7891 4.69043 10.7891C5.71019 10.789 6.66899 10.5338 7.50977 10.084C7.50037 10.178 7.49317 10.272 7.49316 10.3672V21.5361C7.49333 22.9208 8.6153 24.0429 10 24.043H25.3252C26.71 24.043 27.8328 22.9209 27.833 21.5361V10.3672C27.8329 8.98239 26.71 7.86035 25.3252 7.86035H10C9.94363 7.86036 9.88724 7.86464 9.83203 7.86816C10.3677 6.97089 10.6758 5.91427 10.6758 4.80273C10.6757 3.69125 10.3724 2.65032 9.84375 1.75781H28.6738ZM44.0176 25.3906C44.5462 25.3907 44.9646 25.5758 45.2695 25.9443C45.5755 26.3129 45.7275 26.8149 45.7275 27.4482V27.7793H42.4922C42.4981 28.3961 42.6423 28.8674 42.9248 29.1924C43.2074 29.5171 43.6115 29.6797 44.1377 29.6797C44.3943 29.6797 44.6192 29.6615 44.8135 29.625C45.0078 29.5897 45.2541 29.5123 45.5508 29.3945V29.7666C45.2976 29.8773 45.063 29.9512 44.8486 29.9912C44.6344 30.0312 44.3967 30.0517 44.1377 30.0518L44.1367 30.0508C43.4843 30.0508 42.9742 29.8488 42.6104 29.4473C42.2453 29.0446 42.0625 28.482 42.0625 27.7578C42.0625 27.0337 42.2388 26.4681 42.5908 26.0371C42.9429 25.6061 43.4193 25.3906 44.0176 25.3906ZM49.3428 25.3906C49.7313 25.3906 50.1036 25.4574 50.458 25.5928L50.3457 25.957C49.9572 25.8276 49.6203 25.7627 49.333 25.7627C48.782 25.7628 48.3648 25.9322 48.0811 26.2725C47.7973 26.6128 47.6562 27.103 47.6562 27.7412C47.6563 28.3794 47.7973 28.8224 48.0811 29.165C48.3649 29.5077 48.7626 29.6797 49.2725 29.6797C49.6796 29.6796 50.0587 29.6068 50.4082 29.4609V29.8408C50.1221 29.9809 49.7453 30.0518 49.2803 30.0518C48.6385 30.0517 48.1354 29.8494 47.7715 29.4443C47.4077 29.0393 47.2266 28.475 47.2266 27.751C47.2266 27.0268 47.4151 26.4284 47.793 26.0127C48.1698 25.5982 48.6868 25.3906 49.3428 25.3906ZM53.6055 25.3906C54.2249 25.3906 54.7067 25.5982 55.0576 26.0127C55.4084 26.4272 55.584 26.9963 55.584 27.7168H55.585C55.5849 28.4491 55.4073 29.0215 55.0518 29.4336C54.6962 29.8457 54.2062 30.0517 53.5811 30.0518C53.1867 30.0518 52.8403 29.9561 52.54 29.7666C52.2398 29.5758 52.0098 29.3039 51.8496 28.9482C51.6895 28.5926 51.6094 28.1829 51.6094 27.7178C51.6094 26.9853 51.7869 26.4137 52.1426 26.0039C52.4982 25.5953 52.9861 25.3906 53.6055 25.3906ZM74.8926 25.3906C75.4212 25.3907 75.8396 25.5758 76.1445 25.9443C76.4505 26.3129 76.6025 26.8149 76.6025 27.4482V27.7793H73.3672C73.3731 28.3961 73.5173 28.8674 73.7998 29.1924C74.0824 29.5171 74.4865 29.6797 75.0127 29.6797C75.2693 29.6797 75.4942 29.6615 75.6885 29.625C75.8828 29.5897 76.1291 29.5123 76.4258 29.3945V29.7666C76.1726 29.8773 75.938 29.9512 75.7236 29.9912C75.5094 30.0312 75.2717 30.0517 75.0127 30.0518L75.0117 30.0508C74.3593 30.0508 73.8492 29.8488 73.4854 29.4473C73.1203 29.0446 72.9375 28.482 72.9375 27.7578C72.9375 27.0337 73.1138 26.4681 73.4658 26.0371C73.8179 25.6061 74.2943 25.3906 74.8926 25.3906ZM83.7881 25.3906C84.1767 25.3906 84.5489 25.4574 84.9033 25.5928L84.791 25.957C84.4025 25.8276 84.0656 25.7627 83.7783 25.7627C83.2273 25.7628 82.8101 25.9322 82.5264 26.2725C82.2426 26.6128 82.1016 27.103 82.1016 27.7412C82.1016 28.3794 82.2426 28.8224 82.5264 29.165C82.8102 29.5077 83.2079 29.6797 83.7178 29.6797C84.1249 29.6796 84.504 29.6068 84.8535 29.4609V29.8408C84.5674 29.9809 84.1906 30.0518 83.7256 30.0518C83.0838 30.0517 82.5807 29.8494 82.2168 29.4443C81.853 29.0393 81.6719 28.475 81.6719 27.751C81.6719 27.0268 81.8604 26.4284 82.2383 26.0127C82.6151 25.5982 83.1322 25.3906 83.7881 25.3906ZM88.0254 25.3906C88.554 25.3907 88.9712 25.5758 89.2773 25.9443C89.5833 26.3129 89.7363 26.8149 89.7363 27.4482V27.7793H86.501C86.5069 28.3961 86.651 28.8674 86.9336 29.1924C87.2162 29.5172 87.6202 29.6797 88.1465 29.6797C88.4032 29.6797 88.628 29.6615 88.8223 29.625C89.0166 29.5897 89.2628 29.5123 89.5596 29.3945V29.7666C89.3064 29.8773 89.0717 29.9512 88.8574 29.9912C88.6432 30.0312 88.4055 30.0518 88.1465 30.0518L88.1445 30.0508C87.4921 30.0508 86.982 29.8488 86.6182 29.4473C86.2531 29.0446 86.0703 28.482 86.0703 27.7578C86.0703 27.0337 86.2466 26.4681 86.5986 26.0371C86.9507 25.6061 87.4272 25.3906 88.0254 25.3906ZM98.543 25.3906C99.1624 25.3906 99.6442 25.5982 99.9951 26.0127C100.346 26.4272 100.521 26.9962 100.521 27.7168H100.522C100.522 28.4491 100.345 29.0215 99.9893 29.4336C99.6337 29.8457 99.1437 30.0517 98.5186 30.0518C98.1242 30.0518 97.7778 29.9561 97.4775 29.7666C97.1773 29.5758 96.9473 29.3039 96.7871 28.9482C96.627 28.5926 96.5469 28.1829 96.5469 27.7178C96.5469 26.9853 96.7244 26.4137 97.0801 26.0039C97.4357 25.5953 97.9236 25.3906 98.543 25.3906ZM114.668 25.4775H115.986V25.833H114.668V28.6758C114.668 29.0196 114.728 29.2756 114.85 29.4404C114.971 29.6052 115.161 29.6885 115.42 29.6885L115.421 29.6875C115.68 29.6875 115.906 29.6656 116.098 29.6221V29.9521C115.9 30.0181 115.67 30.0518 115.412 30.0518C115.015 30.0517 114.724 29.9452 114.534 29.7334C114.346 29.5214 114.251 29.188 114.251 28.7334V25.833H113.586V25.5928L114.251 25.4072L114.457 24.3906H114.668V25.4775ZM121.835 25.3906C122.224 25.3906 122.596 25.4574 122.95 25.5928L122.838 25.957C122.449 25.8276 122.112 25.7627 121.825 25.7627C121.274 25.7628 120.857 25.9322 120.573 26.2725C120.289 26.6128 120.148 27.103 120.148 27.7412C120.148 28.3794 120.29 28.8224 120.573 29.165C120.857 29.5077 121.255 29.6797 121.765 29.6797C122.172 29.6796 122.551 29.6068 122.9 29.4609V29.8408C122.614 29.9809 122.239 30.0518 121.772 30.0518C121.131 30.0518 120.628 29.8494 120.264 29.4443C119.9 29.0393 119.719 28.475 119.719 27.751C119.719 27.0268 119.907 26.4284 120.285 26.0127C120.662 25.5982 121.179 25.3906 121.835 25.3906ZM110.893 25.3906C111.399 25.3906 111.837 25.4816 112.272 25.6641L112.119 26.0361C111.679 25.8549 111.269 25.7627 110.893 25.7627C110.516 25.7627 110.235 25.823 110.021 25.9443C109.806 26.0656 109.698 26.2341 109.698 26.4482C109.698 26.6825 109.782 26.8697 109.948 27.0098C110.114 27.1499 110.441 27.3074 110.926 27.4805C111.331 27.6264 111.625 27.7585 111.81 27.875C111.994 27.9916 112.133 28.1249 112.226 28.2744C112.317 28.4228 112.364 28.5984 112.364 28.7998L112.362 28.7988C112.362 29.2015 112.208 29.5099 111.902 29.7266C111.597 29.9431 111.163 30.0508 110.602 30.0508C110.001 30.0508 109.524 29.9583 109.172 29.7734V29.332C109.624 29.5581 110.1 29.6709 110.602 29.6709C111.045 29.6709 111.383 29.5974 111.612 29.4502C111.842 29.3031 111.957 29.1061 111.957 28.8613C111.957 28.6352 111.865 28.4453 111.683 28.291C111.499 28.1368 111.198 27.9853 110.779 27.8369C110.331 27.6744 110.015 27.5336 109.834 27.417C109.653 27.3004 109.515 27.1677 109.423 27.0205C109.331 26.8734 109.285 26.6933 109.285 26.4814C109.285 26.1458 109.426 25.8791 109.709 25.6836C109.992 25.4882 110.386 25.3906 110.893 25.3906ZM125.986 25.3906C126.493 25.3906 126.931 25.4816 127.366 25.6641L127.213 26.0361C126.773 25.8549 126.363 25.7627 125.986 25.7627C125.609 25.7627 125.329 25.823 125.114 25.9443C124.9 26.0656 124.792 26.2341 124.792 26.4482C124.792 26.6825 124.876 26.8697 125.042 27.0098C125.208 27.1499 125.535 27.3074 126.02 27.4805C126.424 27.6264 126.718 27.7585 126.903 27.875C127.088 27.9916 127.226 28.1249 127.319 28.2744C127.411 28.4228 127.458 28.5984 127.458 28.7998L127.456 28.7988C127.456 29.2015 127.302 29.5099 126.996 29.7266C126.691 29.9431 126.257 30.0508 125.695 30.0508C125.095 30.0508 124.618 29.9583 124.266 29.7734V29.332C124.718 29.5581 125.194 29.6709 125.695 29.6709C126.139 29.6709 126.476 29.5974 126.706 29.4502C126.936 29.3031 127.051 29.1061 127.051 28.8613C127.051 28.6352 126.959 28.4453 126.776 28.291C126.593 28.1368 126.292 27.9853 125.873 27.8369C125.424 27.6744 125.109 27.5336 124.928 27.417C124.746 27.3004 124.608 27.1677 124.517 27.0205C124.425 26.8734 124.379 26.6933 124.379 26.4814C124.379 26.1458 124.52 25.8791 124.803 25.6836C125.085 25.4882 125.48 25.3906 125.986 25.3906ZM94.8145 29.9688H94.4062V23.5391H94.8145V29.9688ZM61.8506 25.3906C62.3403 25.3907 62.7092 25.5218 62.9541 25.7832C63.1988 26.0447 63.3213 26.4606 63.3213 27.0303V29.9678H62.917V27.0215C62.917 26.5835 62.8308 26.2648 62.6602 26.0635C62.4894 25.8621 62.2283 25.7617 61.875 25.7617C61.4148 25.7617 61.0747 25.8887 60.8545 26.1416C60.6343 26.3948 60.5235 26.7931 60.5234 27.3359V29.9678H60.1064V26.8984C60.1064 26.1413 59.7589 25.7618 59.0654 25.7617C58.5944 25.7617 58.2516 25.8985 58.0361 26.1729C57.8219 26.4472 57.7129 26.8852 57.7129 27.4893V29.9678H57.3047V25.4766H57.6436L57.7314 26.0928H57.7559C57.8795 25.8703 58.0558 25.6967 58.2842 25.5742C58.5125 25.4518 58.7647 25.3907 59.04 25.3906C59.7477 25.3906 60.2029 25.6566 60.4043 26.1875H60.4209C60.5669 25.9321 60.7638 25.7344 61.0098 25.5967C61.2558 25.459 61.5363 25.3906 61.8506 25.3906ZM69.7881 25.3906C70.2778 25.3907 70.6467 25.5218 70.8916 25.7832C71.1363 26.0447 71.2588 26.4606 71.2588 27.0303V29.9678H70.8545V27.0215C70.8545 26.5836 70.7683 26.2648 70.5977 26.0635C70.4269 25.8621 70.1658 25.7617 69.8125 25.7617C69.3523 25.7617 69.0122 25.8887 68.792 26.1416C68.5718 26.3948 68.461 26.7931 68.4609 27.3359V29.9678H68.0439V26.8984C68.0439 26.1413 67.6964 25.7618 67.0029 25.7617C66.5319 25.7617 66.1891 25.8985 65.9736 26.1729C65.7594 26.4472 65.6504 26.8852 65.6504 27.4893V29.9678H65.2422V25.4766H65.5811L65.6689 26.0928H65.6934C65.817 25.8703 65.9933 25.6967 66.2217 25.5742C66.45 25.4518 66.7022 25.3907 66.9775 25.3906C67.6852 25.3906 68.1404 25.6566 68.3418 26.1875H68.3584C68.5044 25.9321 68.7013 25.7344 68.9473 25.5967C69.1933 25.459 69.4738 25.3906 69.7881 25.3906ZM80.0654 25.3906C80.255 25.3906 80.4601 25.4094 80.6768 25.4482L80.5977 25.8408C80.4105 25.7937 80.216 25.7695 80.0146 25.7695C79.6321 25.7696 79.3181 25.9329 79.0732 26.2578C78.8284 26.5828 78.7051 26.9936 78.7051 27.4893V29.9678H78.2969V25.4766H78.6445L78.6855 26.2871H78.7148C78.8996 25.9564 79.0962 25.7239 79.3057 25.5908C79.515 25.458 79.7681 25.3908 80.0654 25.3906ZM107.615 29.9648H107.206V25.4736H107.615V29.9648ZM118.014 29.9648H117.604V25.4736H118.014V29.9648ZM53.5889 25.7617C53.0932 25.7617 52.7109 25.9313 52.4424 26.2715C52.1739 26.6117 52.0391 27.0933 52.0391 27.7148V27.7168C52.0391 28.3336 52.1744 28.8152 52.4463 29.1602C52.7171 29.5064 53.1019 29.6787 53.5977 29.6787C54.0932 29.6786 54.4773 29.5051 54.748 29.1602C55.0188 28.8152 55.1552 28.3336 55.1553 27.7168C55.1553 27.0997 55.0185 26.6149 54.7441 26.2734C54.4698 25.9321 54.0845 25.7617 53.5889 25.7617ZM98.5264 25.7617C98.0307 25.7617 97.6484 25.9313 97.3799 26.2715C97.1114 26.6117 96.9766 27.0933 96.9766 27.7148V27.7168C96.9766 28.3336 97.1119 28.8152 97.3838 29.1602C97.6546 29.5064 98.0394 29.6787 98.5352 29.6787C99.0307 29.6786 99.4148 29.5051 99.6855 29.1602C99.9563 28.8152 100.093 28.3336 100.093 27.7168C100.093 27.0997 99.956 26.6149 99.6816 26.2734C99.4073 25.9321 99.022 25.7617 98.5264 25.7617ZM103.594 25.7129C103.226 25.713 102.955 25.8159 102.749 26.0205C102.544 26.2254 102.441 26.5117 102.441 26.8779L102.44 26.8789C102.44 27.2262 102.546 27.4946 102.757 27.6865C102.968 27.8773 103.249 27.9746 103.602 27.9746C103.976 27.9746 104.263 27.8788 104.463 27.6895C104.663 27.4999 104.764 27.2238 104.764 26.8623C104.764 26.4799 104.661 26.1929 104.455 26.001C104.25 25.809 103.962 25.7129 103.594 25.7129ZM44.0166 25.7529C43.5846 25.7529 43.237 25.8959 42.9756 26.1807C42.7142 26.4656 42.5602 26.8771 42.5166 27.4141H45.2939C45.2939 26.8936 45.1812 26.4856 44.9551 26.1924C44.729 25.8992 44.4167 25.752 44.0176 25.752L44.0166 25.7529ZM74.8916 25.7529C74.4596 25.7529 74.112 25.8959 73.8506 26.1807C73.5892 26.4656 73.4352 26.8771 73.3916 27.4141H76.1689C76.1689 26.8936 76.0562 26.4856 75.8301 26.1924C75.604 25.8992 75.2917 25.752 74.8926 25.752L74.8916 25.7529ZM88.0244 25.7529C87.5924 25.7529 87.2448 25.8959 86.9834 26.1807C86.722 26.4656 86.5682 26.8771 86.5234 27.4141H89.3008C89.3008 26.8936 89.187 26.4856 88.9609 26.1924C88.7349 25.8995 88.4233 25.7521 88.0244 25.752V25.7529ZM107.409 23.8281C107.494 23.8283 107.56 23.8625 107.608 23.9316C107.657 23.9999 107.681 24.0988 107.681 24.2246C107.681 24.3506 107.657 24.4467 107.608 24.5186C107.56 24.5899 107.494 24.6249 107.409 24.625C107.235 24.625 107.148 24.4919 107.148 24.2246C107.149 23.9599 107.236 23.8281 107.409 23.8281ZM117.808 23.8281C117.892 23.8283 117.959 23.8625 118.007 23.9316C118.055 23.9999 118.079 24.0988 118.079 24.2246C118.079 24.3506 118.055 24.4467 118.007 24.5186C117.959 24.5899 117.892 24.6249 117.808 24.625C117.633 24.625 117.547 24.4919 117.547 24.2246C117.547 23.9599 117.635 23.8281 117.808 23.8281ZM108.444 5.3125C113.802 5.3125 114.751 10.0068 114.751 10.0068H111.005L111.006 10.0039C110.35 8.72768 109.665 8.48929 108.384 8.48926C107.103 8.48926 105.434 9.41417 105.434 12.96C105.434 16.5057 107.28 17.3096 108.682 17.3096C110.083 17.3095 110.679 16.6242 111.096 16.1768C111.513 15.7307 112.048 15.7412 112.704 15.7412H114.94C113.707 20.0089 110.01 20.4355 108.729 20.4355C108.113 20.4356 105.6 20.6727 103.609 18.3496C101.618 16.0263 101.855 12.7553 101.997 10.8594C102.174 8.496 104.604 5.31275 108.444 5.3125ZM80.6777 5.33594C85.6906 5.33594 87.1483 9.49486 87.1484 11.9844V13.8682H77.6191C77.6193 16.0735 78.6866 17.4238 80.6777 17.4238C82.6691 17.4238 83.4512 15.7178 83.4512 15.7178H86.9004C86.9004 15.7178 86.1535 20.376 80.5352 20.376C74.0644 20.3759 73.9219 14.4022 73.9219 13.585V11.8066C73.922 8.21626 76.873 5.33599 80.6777 5.33594ZM122.174 5.29688C128.569 5.29688 128.818 11.4358 128.818 12.918C128.818 14.2934 128.473 20.374 122.174 20.374C115.875 20.3739 115.555 14.6726 115.555 12.918C115.555 11.1628 115.779 5.29701 122.174 5.29688ZM67.1309 15.8408L69.8076 6.95605C70.0313 6.21186 70.717 5.7032 71.4941 5.70312H74.1064L69.0459 20.2285H65.2627L60.1562 5.70312H64.1221L67.1309 15.8408ZM44.9521 5.55469C45.5231 5.55486 45.9873 6.01881 45.9873 6.58984V20.2266H42.0938V5.55469H44.9521ZM53.7891 5.32812C59.4781 5.32812 60.1562 9.70206 60.1562 10.2002V20.2188H58.4492C57.307 20.2188 56.381 19.2936 56.3809 18.1514V10.5557C56.3809 9.45348 55.5156 8.25209 53.8447 8.25195C52.5647 8.25195 51.1934 9.16881 51.1934 10.8398L51.2646 20.2188H47.5312V11.5508C47.5312 9.31096 48.1 5.32814 53.7891 5.32812ZM94.3516 5.32812C100.041 5.32812 100.719 9.70206 100.719 10.2002V20.2188H99.0117C97.8695 20.2188 96.9435 19.2936 96.9434 18.1514V10.5557C96.9434 9.45348 96.0781 8.25209 94.4072 8.25195C93.1272 8.25195 91.7559 9.16881 91.7559 10.8398L91.8271 20.2188H88.0938V11.5508C88.0938 9.31096 88.6625 5.32814 94.3516 5.32812ZM122.197 8.53613C120.641 8.53623 119.146 9.21534 119.146 12.9775C119.146 16.7395 120.672 17.3329 122.197 17.333V17.334C123.785 17.334 125.303 16.1687 125.303 12.7764C125.303 9.38366 123.672 8.53613 122.197 8.53613ZM80.4648 8.53516C77.2994 8.53516 77.6191 11.5586 77.6191 11.5586H83.2734C83.2734 11.5586 83.6301 8.53525 80.4648 8.53516ZM4.68945 0.117188C7.27917 0.117293 9.37891 2.2169 9.37891 4.80664C9.3788 7.39629 7.2791 9.49599 4.68945 9.49609C2.09971 9.49609 0.000105397 7.39636 0 4.80664C0 2.21683 2.09965 0.117188 4.68945 0.117188ZM43.8135 0C45.0179 0 45.995 0.976291 45.9951 2.18066C45.9951 3.38516 45.018 4.3623 43.8135 4.3623C42.6091 4.36216 41.6328 3.38507 41.6328 2.18066C41.633 0.976383 42.6092 0.000148669 43.8135 0Z" fill="white"/>
</svg>
