<svg width="114" height="32" viewBox="0 0 114 32" fill="none" xmlns="http://www.w3.org/2000/svg">
<path d="M102.603 26.7955C102.176 26.9643 101.801 27.1415 101.409 27.2621C100.064 27.6766 98.6871 27.8804 97.2763 27.8034C94.0325 27.6273 91.247 26.4473 89.0557 24.0046C88.0056 22.8343 87.2812 21.4765 86.7901 19.9816C86.1773 18.1165 86.0878 16.2072 86.4271 14.3047C86.9113 11.5874 88.2118 9.30494 90.372 7.53323C91.4413 6.65615 92.629 5.99877 93.921 5.54296C95.1081 5.12452 96.3445 4.93993 97.6121 4.94276C98.6837 4.94503 99.7508 4.99882 100.786 5.26608C103.508 5.96876 105.742 7.41376 107.357 9.74376C108.125 10.8502 108.667 12.0613 109.004 13.3704C109.308 14.5527 109.452 15.7491 109.373 16.9637C109.258 18.7212 108.806 20.3893 107.926 21.9277C107.885 21.9985 107.83 22.0608 107.767 22.1457C107.689 22.0982 107.622 22.0716 107.575 22.0257C106.708 21.186 105.847 20.3395 104.973 19.506C104.821 19.3605 104.8 19.2212 104.865 19.0445C105.203 18.1272 105.318 17.1715 105.299 16.2032C105.261 14.3047 104.686 12.5902 103.46 11.1202C102.476 9.94024 101.234 9.14923 99.7491 8.75514C98.7936 8.50147 97.8228 8.44089 96.8356 8.56432C94.634 8.83951 92.9275 9.91137 91.6945 11.738C91.0029 12.7623 90.5606 13.8908 90.4247 15.1274C90.3759 15.5702 90.2995 16.0158 90.3091 16.4586C90.3538 18.4625 90.9582 20.2732 92.3017 21.7879C93.4582 23.0919 94.9229 23.892 96.6425 24.1462C97.5515 24.2804 98.4849 24.2894 99.3951 24.0698C99.637 24.0114 99.8125 24.0811 99.9791 24.2396C100.8 25.0182 101.623 25.7945 102.444 26.573C102.485 26.6115 102.511 26.6653 102.603 26.7955H102.603Z" fill="white"/>
<path d="M5.55713 4.37937C5.73837 4.37144 5.86638 4.36125 5.99495 4.36068C6.96121 4.35955 7.92747 4.35842 8.89429 4.36068C9.40008 4.36182 9.40461 4.36521 9.40461 4.86576C9.40574 7.33109 9.40461 9.79642 9.40461 12.2617C9.40461 14.0063 9.40461 15.7508 9.40461 17.4953V18.0423C9.55413 17.9211 9.63513 17.8696 9.698 17.8028C11.8152 15.5385 13.9312 13.273 16.0466 11.0064C16.2324 10.8071 16.4409 10.7131 16.7297 10.7171C17.9554 10.7335 19.1816 10.7228 20.4078 10.7256C20.5415 10.7256 20.6746 10.7488 20.8083 10.7613L20.8389 10.8586C18.6804 13.0697 16.5224 15.2808 14.3226 17.535C16.5717 20.8208 18.8622 24.0697 21.1453 27.3991C20.9555 27.4139 20.8304 27.4314 20.7058 27.4314C19.5084 27.4337 18.3116 27.4263 17.1143 27.4376C16.8379 27.4405 16.6804 27.3363 16.523 27.1092C14.979 24.8817 13.4214 22.6638 11.8667 20.4437C11.8276 20.3882 11.7783 20.34 11.7132 20.2647C11.3247 20.6543 10.9503 21.0229 10.5838 21.3983C10.2734 21.716 9.98459 22.0551 9.66175 22.3592C9.46408 22.5455 9.39951 22.7476 9.40121 23.0086C9.40914 24.2917 9.40461 25.5748 9.40461 26.8578C9.40461 27.0152 9.40461 27.1726 9.40461 27.3674C8.96226 27.4892 8.53124 27.4178 8.10871 27.4303C7.69071 27.4422 7.27215 27.4331 6.85416 27.4331H5.55713V4.37937Z" fill="white"/>
<path d="M70.6081 20.4442C70.8335 21.9328 71.4384 23.1089 72.6374 23.8942C73.9373 24.7458 75.3708 24.8647 76.8684 24.5159C77.9094 24.2736 78.751 23.6932 79.5519 23.029C79.6176 22.9741 79.6805 22.9164 79.7467 22.862C79.7898 22.8263 79.8362 22.7952 79.9161 22.7363C80.6881 23.328 81.3728 24.016 82.1233 24.6524C81.8662 25.0856 81.5037 25.3941 81.1502 25.701C80.4321 26.3256 79.638 26.8397 78.755 27.2038C77.9235 27.5464 77.0468 27.7168 76.1558 27.7904C74.7886 27.9036 73.4434 27.7474 72.1622 27.2587C70.3515 26.5679 68.9163 25.4089 67.9398 23.7096C67.1706 22.3711 66.7668 20.9363 66.7923 19.3933C66.8048 18.6606 66.8064 17.9143 66.9469 17.2003C67.3321 15.2446 68.2575 13.5714 69.7885 12.2657C70.5939 11.5789 71.5046 11.0568 72.5168 10.7528C73.0769 10.5846 73.6677 10.4821 74.2511 10.4374C75.274 10.3598 76.298 10.404 77.2926 10.699C78.1104 10.9419 78.8717 11.3088 79.561 11.8133C80.841 12.7498 81.6996 13.9972 82.2372 15.4773C82.7645 16.9297 82.9752 18.4296 82.9026 19.9714C82.8811 20.4278 82.8709 20.4431 82.3895 20.4437C80.6014 20.4454 78.8133 20.4442 77.0252 20.4442C75.0786 20.4442 73.1319 20.4442 71.1852 20.4442C71.0153 20.4442 70.8459 20.4442 70.6081 20.4442ZM70.548 17.9098H79.0875C79.0807 17.7728 79.092 17.659 79.0665 17.5531C78.9674 17.1352 78.8881 16.7094 78.7448 16.3068C78.4407 15.453 77.9399 14.7316 77.1742 14.2198C76.541 13.7968 75.8534 13.5516 75.0803 13.5318C74.3768 13.5137 73.7017 13.6037 73.0747 13.9259C71.7578 14.6025 71.051 15.7367 70.7083 17.1341C70.6483 17.3781 70.6064 17.6261 70.5486 17.9093L70.548 17.9098Z" fill="white"/>
<path d="M35.4127 22.738C36.1303 23.3705 36.8473 24.0035 37.6097 24.6756C37.4069 24.8942 37.2308 25.0935 37.045 25.2843C36.2135 26.1376 35.236 26.7831 34.14 27.2349C33.3244 27.5713 32.4561 27.7247 31.5782 27.7932C30.2251 27.8985 28.8958 27.7428 27.6288 27.2615C25.7082 26.5317 24.2271 25.2764 23.25 23.4475C22.4191 21.8921 22.1427 20.2291 22.2453 18.4879C22.3704 16.3652 23.1175 14.4983 24.5601 12.9242C25.5122 11.8858 26.6727 11.1412 28.0111 10.7363C29.4678 10.2958 30.958 10.2862 32.4499 10.6401C34.0126 11.011 35.2966 11.819 36.3234 13.0409C36.9668 13.8064 37.4228 14.6812 37.7513 15.6228C38.231 16.9982 38.4145 18.4166 38.3562 19.8689C38.3528 19.9556 38.3443 20.0416 38.3437 20.1283C38.3432 20.3383 38.2514 20.4516 38.0299 20.4437C37.9002 20.4386 37.7705 20.4442 37.6408 20.4442C33.9786 20.4442 30.3169 20.4442 26.6546 20.4442H26.082C26.1007 21.0127 26.2762 21.4844 26.475 21.9391C26.9684 23.0658 27.784 23.8812 28.9343 24.3347C29.823 24.6852 30.7456 24.7634 31.6932 24.6411C32.9817 24.4746 34.0488 23.8687 35.0043 23.0262C35.0904 22.9503 35.1776 22.8745 35.266 22.8014C35.2869 22.7839 35.3175 22.7782 35.4121 22.738H35.4127ZM34.4895 17.9064C34.5144 17.8402 34.545 17.7988 34.541 17.7609C34.4515 16.9076 34.2232 16.0945 33.7463 15.3765C32.9217 14.1359 31.7634 13.5108 30.2568 13.5324C29.0997 13.5488 28.138 13.9689 27.3535 14.8171C26.7639 15.4541 26.3986 16.2111 26.1805 17.0367C26.108 17.3108 25.9704 17.6052 26.0939 17.907H34.4895V17.9064Z" fill="white"/>
<path d="M51.2622 23.8014C51.2809 23.9554 51.3046 24.0641 51.3046 24.1728C51.308 24.9508 51.2961 25.7293 51.3114 26.5073C51.3177 26.8029 51.1846 26.9331 50.9314 27.052C49.5273 27.7111 48.07 27.8425 46.5509 27.5894C45.7059 27.4484 44.9509 27.1551 44.3143 26.5747C43.7065 26.0209 43.3854 25.3132 43.1911 24.5324C43.0405 23.9254 43.0201 23.3093 43.0206 22.6887C43.0235 19.9941 43.0218 17.2989 43.0218 14.6042C43.0218 14.4343 43.0218 14.2645 43.0218 14.0561C42.8451 14.0414 42.7069 14.0216 42.5687 14.0204C42.1359 14.0159 41.7038 14.0238 41.2711 14.0165C40.9522 14.0108 40.9046 13.9729 40.9023 13.6767C40.895 12.8121 40.895 11.9475 40.9023 11.0829C40.9046 10.7743 40.9511 10.7324 41.2563 10.7267C41.6885 10.7182 42.1212 10.7267 42.5539 10.7228C42.6938 10.7216 42.8332 10.7063 43.0206 10.695V6.24734C43.3956 6.14598 46.3714 6.1307 46.8687 6.22752C46.8851 6.95681 46.8738 7.7014 46.876 8.44598C46.8777 9.17867 46.876 9.91136 46.876 10.6905C47.0658 10.7035 47.2181 10.7222 47.3705 10.7228C48.5237 10.725 49.6774 10.7233 50.8306 10.725C50.9852 10.725 51.1404 10.738 51.3216 10.746V14.0165H46.9078C46.8953 14.222 46.8777 14.3749 46.8772 14.5278C46.8755 17.0356 46.8749 19.5428 46.8777 22.0506C46.8777 22.4962 46.8862 22.943 47.0884 23.358C47.3031 23.7985 47.6531 24.0635 48.1232 24.1892C48.9949 24.4214 49.8349 24.2685 50.6675 23.9961C50.8532 23.9356 51.039 23.8744 51.261 23.8019L51.2622 23.8014Z" fill="white"/>
<path d="M59.8349 10.7284H64.3168C64.3264 11.8359 64.3202 12.8936 64.3207 14.0148H59.8281C59.8281 14.2316 59.8281 14.3851 59.8281 14.5391C59.8281 17.0327 59.8281 19.5264 59.8281 22.0195C59.8281 22.4815 59.8536 22.9396 60.0581 23.3676C60.2705 23.8121 60.6284 24.0658 61.098 24.1915C61.9714 24.4259 62.8096 24.26 63.6411 23.9888C63.8155 23.9321 63.99 23.8755 64.1961 23.8087C64.2193 23.931 64.2516 24.0233 64.2522 24.1156C64.2562 24.9225 64.246 25.7299 64.2601 26.5368C64.2647 26.8154 64.1355 26.9365 63.8993 27.0481C62.4964 27.71 61.0385 27.8425 59.5189 27.5911C58.8239 27.4761 58.1822 27.2615 57.6119 26.8533C56.8138 26.282 56.3856 25.4791 56.1562 24.5403C56.0005 23.9016 55.9869 23.2578 55.9863 22.61C55.9835 19.9437 55.9852 17.2773 55.9852 14.6104C55.9852 14.4406 55.9852 14.2707 55.9852 14.0578C55.7926 14.0425 55.6408 14.0216 55.489 14.0199C55.0563 14.0148 54.6236 14.025 54.1914 14.0148C53.9048 14.008 53.859 13.9649 53.8567 13.6852C53.8499 12.8059 53.8493 11.9265 53.8567 11.0478C53.859 10.7828 53.9184 10.7324 54.2022 10.7262C54.6202 10.7171 55.0388 10.7233 55.4567 10.7233C55.6119 10.7233 55.7671 10.7233 55.9773 10.7233V6.25752C56.3477 6.14258 59.319 6.1256 59.8196 6.23205C59.84 7.69346 59.8157 9.17074 59.8338 10.7278L59.8349 10.7284Z" fill="white"/>
<path d="M97.7211 19.9273C98.5758 19.0241 99.4265 18.1261 100.31 17.193C103.297 20.0841 106.238 22.9322 109.207 25.8063C109.12 25.9145 109.049 26.0158 108.965 26.1042C108.31 26.7865 107.653 27.4676 106.995 28.1465C106.719 28.4302 106.707 28.4285 106.415 28.1522C104.496 26.342 102.577 24.5318 100.659 22.721C99.7323 21.8468 98.8063 20.9725 97.8803 20.0971C97.8395 20.0586 97.8032 20.015 97.7217 19.9273H97.7211Z" fill="white"/>
</svg>
