<svg width="111" height="32" viewBox="0 0 111 32" fill="none" xmlns="http://www.w3.org/2000/svg">
<g clip-path="url(#clip0_32214_59440)">
<path d="M45.1602 16.8972L50.748 9.64106H47.3178L42.1406 16.236V9.64038H39.1631V24.5796H42.1406V17.5809L47.534 24.5809H50.9641L45.1608 16.8979L45.1602 16.8972ZM62.6849 23.2571C63.7848 22.169 64.3463 20.8248 64.3463 19.2448C64.3463 17.6662 63.7848 16.3424 62.6849 15.2543C61.5843 14.1655 60.2255 13.6106 58.6293 13.6106C57.0325 13.6106 55.6736 14.1662 54.5731 15.2543C53.4732 16.3424 52.9335 17.6662 52.9335 19.2448C52.9335 20.8241 53.4732 22.169 54.5731 23.2571C55.6736 24.3458 57.0325 24.879 58.6293 24.879C60.2255 24.879 61.5843 24.3458 62.6849 23.2571ZM56.5363 21.358C55.9972 20.8024 55.7165 20.0985 55.7165 19.2448C55.7165 18.3912 55.9972 17.6865 56.5363 17.1323C57.0971 16.5768 57.7871 16.2997 58.6293 16.2997C59.4702 16.2997 60.1609 16.5775 60.7217 17.1323C61.2825 17.6872 61.5633 18.3912 61.5633 19.2448C61.5633 20.0985 61.2825 20.8031 60.7217 21.358C60.1609 21.9129 59.4709 22.19 58.6293 22.19C57.7878 22.19 57.0971 21.9122 56.5363 21.358ZM72.6777 21.0802L69.8736 13.9094H66.8316L71.2542 24.2388C70.7362 25.69 69.9164 26.3093 68.4277 26.2876V28.8486C71.1896 28.9976 73.0013 27.6535 74.1236 24.5802L78.0493 13.9094H75.0725L72.6777 21.0802ZM91.5939 20.3756C91.6592 19.9704 91.702 19.608 91.702 19.2448C91.702 17.6445 91.1847 16.3214 90.1487 15.2326C89.1352 14.1445 87.8191 13.6106 86.2447 13.6106C84.5833 13.6106 83.2027 14.1445 82.1456 15.2326C81.0886 16.2997 80.5488 17.6445 80.5488 19.2448C80.5488 20.8668 81.0886 22.2117 82.1674 23.2787C83.2455 24.3458 84.6697 24.879 86.4602 24.879C88.5315 24.879 90.1059 24.1107 91.1629 22.5958L88.9197 21.3153C88.3799 22.0199 87.5601 22.3824 86.503 22.3824C84.8423 22.3824 83.8281 21.7205 83.4617 20.3763L91.5939 20.3756ZM83.4182 18.2414C83.7418 16.8762 84.756 16.0869 86.2447 16.0869C87.5173 16.0869 88.5961 16.7909 88.9197 18.2414H83.4182ZM102.081 13.6106C100.57 13.6106 99.4053 14.1228 98.5854 15.1689V9.64038H95.8031V24.5796H98.5854V23.3208C99.4053 24.3662 100.57 24.879 102.081 24.879C103.526 24.879 104.778 24.3451 105.791 23.2564C106.826 22.1683 107.344 20.8241 107.344 19.2441C107.344 17.6655 106.826 16.3417 105.791 15.2536C104.778 14.1648 103.526 13.6106 102.081 13.6106ZM99.427 21.4224C98.8662 20.8458 98.5854 20.1202 98.5854 19.2448C98.5854 18.3702 98.8662 17.6445 99.427 17.0897C99.9878 16.5138 100.7 16.236 101.563 16.236C102.426 16.236 103.138 16.5138 103.699 17.0897C104.281 17.6445 104.561 18.3702 104.561 19.2448C104.561 20.1202 104.281 20.8458 103.699 21.4217C103.138 21.9772 102.426 22.2543 101.563 22.2543C100.7 22.2543 99.9878 21.9766 99.427 21.4217V21.4224ZM14.5204 7.93101L29.0507 16.2082V9.30162L14.5109 1.01562L0.0078125 9.31111V16.2272L14.5204 7.93169V7.93101Z" fill="white"/>
<path d="M26.7266 24.5334L29.0514 23.1818V18.9412L14.5109 10.6464L0.0078125 18.9412V23.2L2.33266 24.5334L14.5109 17.5618L26.7266 24.5334Z" fill="white"/>
<path d="M14.5213 27.3652L18.2118 29.4716L24.2734 26.0224L14.5118 20.4492L4.78752 26.0231L10.8491 29.4716L14.5213 27.3652Z" fill="white"/>
</g>
<defs>
<clipPath id="clip0_32214_59440">
<rect width="110.4" height="32" fill="white"/>
</clipPath>
</defs>
</svg>
