<svg width="86" height="32" viewBox="0 0 86 32" fill="none" xmlns="http://www.w3.org/2000/svg">
<g clip-path="url(#clip0_32214_59882)">
<path fill-rule="evenodd" clip-rule="evenodd" d="M67.0614 0.0773618C70.529 0.179235 73.8798 1.26481 76.1562 2.59689L76.1698 2.56955C76.3334 2.25712 76.5841 1.81954 77.1689 1.65549C77.1824 1.65172 77.1961 1.64719 77.2099 1.64377L77.2958 1.62619C77.3103 1.62351 77.3249 1.62065 77.3398 1.61838C77.3546 1.61609 77.3697 1.61441 77.3847 1.61252C77.3996 1.61064 77.4146 1.60911 77.4296 1.60764C77.4447 1.60616 77.4604 1.60481 77.4755 1.60373C77.4907 1.60266 77.5061 1.60147 77.5214 1.6008C77.5366 1.60015 77.5519 1.59911 77.5673 1.59885C77.5825 1.59859 77.5979 1.5987 77.6132 1.59885C77.6286 1.599 77.6448 1.59926 77.6601 1.59982L77.7519 1.60568C77.7669 1.60705 77.7819 1.6088 77.7968 1.61056C77.8119 1.61235 77.8269 1.61423 77.8417 1.61642C77.8565 1.6186 77.8711 1.62166 77.8857 1.62424C78.8845 1.79996 81.1975 3.76776 81.7646 4.28928C82.1591 4.65504 82.5238 5.02937 82.8573 5.41135C88.3414 11.6297 85.6006 18.9033 81.2509 25.0627C80.0568 26.7537 78.5964 29.0085 75.9345 30.216C75.144 30.5746 74.2409 30.8195 73.3456 31.094C72.7386 31.28 72.15 31.4926 71.5107 31.6467C70.9593 31.7587 70.4029 31.8362 69.8144 31.8723C68.5779 31.9482 67.3464 31.8252 66.1571 31.6535C65.1859 31.5134 64.1683 31.3752 63.2597 31.1438C61.6596 30.736 60.3049 30.0565 58.9384 29.468C58.2538 29.1734 57.5413 28.8981 56.8466 28.6106C55.7134 28.1411 54.8624 27.5004 54.2812 26.8127C53.1927 25.5245 52.8692 24.0866 52.3007 22.7209C52.0148 22.0342 51.6496 21.3564 51.3564 20.6701C51.1838 20.2633 51.0313 19.8546 50.9003 19.4436C50.7692 19.0326 50.6596 18.6195 50.5702 18.2053C50.5231 17.9989 50.4818 17.7922 50.4472 17.5852C50.4125 17.378 50.3843 17.1706 50.3622 16.9631C50.3402 16.7555 50.3247 16.5478 50.3153 16.3401C50.3059 16.1322 50.3024 15.9239 50.3056 15.716C50.3088 15.5082 50.319 15.3005 50.3349 15.093C50.3506 14.8852 50.3728 14.6773 50.4013 14.4699C50.4296 14.2626 50.4638 14.0555 50.5048 13.8488C50.5458 13.642 50.5929 13.4348 50.6464 13.2287C51.5044 10.0845 55.3357 4.68156 59.1122 2.19064C60.9699 0.96523 63.0331 0.257074 66.0302 0.0754087C66.3748 0.0693305 66.7171 0.0672463 67.0614 0.0773618ZM66.0077 3.1965C63.5453 3.37946 62.059 3.95234 60.581 4.97971C57.4865 7.13077 54.1048 11.8511 53.5331 14.509C53.2789 15.6904 53.4017 16.8818 53.7245 18.0559C53.7985 18.3366 53.8855 18.6163 53.9853 18.8947C54.085 19.1734 54.1978 19.4509 54.3232 19.7268C54.6033 20.3378 54.9462 20.9438 55.2021 21.5578C55.5837 22.4735 55.7999 23.4282 56.3261 24.3244C56.523 24.6597 56.7831 24.9929 57.1767 25.2795C57.8459 25.7667 59.0012 26.1158 59.8837 26.4924C60.7377 26.8567 61.5575 27.2497 62.4384 27.5959C62.9443 27.7947 63.4699 27.9895 64.0419 28.133C65.2947 28.4471 68.36 28.8786 69.6884 28.7785C70.3184 28.731 70.8581 28.6171 71.4023 28.4475C72.6292 28.0042 74.124 27.7157 75.1327 27.1291C75.7404 26.7757 76.2249 26.353 76.6366 25.9309C77.3458 25.2039 77.8724 24.4273 78.4198 23.6643C78.9189 22.9851 79.3865 22.2994 79.8232 21.6086C80.2597 20.918 80.6649 20.2225 81.038 19.5217C81.4474 18.7122 81.7959 17.8954 82.0829 17.0715C83.4766 13.0912 83.0396 9.04032 78.5058 5.62521C78.3671 5.52171 78.2259 5.41905 78.0819 5.3176C77.8855 5.64775 77.685 6.04956 77.0653 6.23166C76.9181 6.27491 76.7567 6.29766 76.5927 6.31564C76.4439 6.29551 76.2816 6.27687 76.1493 6.23459C75.5768 6.05133 75.0539 5.53252 74.5722 5.26193C72.4115 4.04826 69.2472 3.10121 66.0077 3.1965ZM28.8066 14.799C29.4854 14.7808 30.1089 14.931 30.5966 15.1701C31.5123 15.619 32.1833 16.3738 32.2265 17.0295C32.2561 17.4841 32.036 18.0883 31.4003 18.424C31.2145 18.5222 30.9538 18.5954 30.6825 18.5862C30.0164 18.5631 29.7301 17.9282 29.3241 17.7063C29.2065 17.6421 29.1178 17.6174 28.9452 17.6135C28.7813 17.6416 28.694 17.6808 28.5888 17.7522C27.5322 18.4713 27.4065 19.8534 27.5966 20.7346C27.6824 21.1325 27.9634 22.0459 28.6269 22.3029C28.746 22.3489 28.8879 22.3668 29.0341 22.3508C29.5251 22.2967 29.6828 21.9223 29.9452 21.7326C30.0948 21.6248 30.2834 21.5511 30.5419 21.5373C30.7893 21.5243 31.0147 21.5753 31.1972 21.6604C31.8053 21.9442 32.0466 22.4611 32.078 22.8694C32.0886 23.2399 31.9672 23.5801 31.6884 23.9221C31.3058 24.3909 30.6137 24.9294 29.665 25.1184C29.1574 25.2194 28.6258 25.1991 28.1366 25.0803C26.9222 24.7854 26.193 24.0432 25.7558 23.4192C24.2896 21.3261 24.3296 18.1891 26.1493 16.1643C26.6606 15.5954 27.3515 15.0354 28.5282 14.8127C28.6206 14.806 28.7136 14.8019 28.8066 14.799ZM10.1952 14.8C10.9315 14.8467 11.5442 15.1036 11.9931 15.3977C12.8739 15.9746 13.3981 16.7121 13.2236 17.4533C13.136 17.8252 12.82 18.2647 12.2196 18.4924C12.0476 18.5577 11.8435 18.5995 11.6298 18.5764C10.9895 18.5075 10.7878 18.0162 10.4472 17.7746C10.3489 17.7049 10.2068 17.6253 10.0282 17.6223C9.90147 17.6203 9.79812 17.6576 9.71086 17.7014C8.80847 18.1544 8.57354 19.2976 8.55656 19.9104C8.53896 20.5489 8.67743 21.7909 9.62101 22.2688C9.72736 22.3226 9.86499 22.3728 10.0214 22.3625C10.4415 22.3349 10.7574 21.8777 11.0175 21.716C11.1694 21.6216 11.3777 21.5282 11.6259 21.5237C11.8471 21.5196 12.0472 21.588 12.203 21.6633C12.9258 22.0123 13.0975 22.5552 13.122 23.0432C13.0426 23.5559 12.712 24.0193 12.1562 24.4436C11.7007 24.7912 11.0885 25.1009 10.2597 25.1711C9.69004 25.2193 9.15714 25.124 8.70304 24.9455C6.9656 24.2628 6.25228 22.8093 5.96379 21.7248C5.4749 19.8869 5.75001 16.9606 7.97258 15.4406C8.44917 15.1147 9.02515 14.8466 9.82707 14.7893C9.94909 14.7913 10.074 14.7923 10.1952 14.8ZM17.956 15.0754C18.5341 14.9093 20.8016 15.0016 21.4706 15.1106C22.4328 15.2676 23.1098 15.7193 23.5497 16.1711C24.8226 17.4782 24.7403 19.4651 23.8739 20.8381C23.7072 21.1025 23.4949 21.3715 23.204 21.6057L23.9208 22.5988C24.3915 23.2557 24.772 23.8404 24.1894 24.5188C24.018 24.7181 23.761 24.9171 23.3583 25.0012C23.3445 25.0041 23.3305 25.0074 23.3163 25.01C23.3022 25.0126 23.2877 25.0145 23.2734 25.0168C23.259 25.0189 23.2441 25.0208 23.2294 25.0227C23.2149 25.0245 23.2003 25.026 23.1855 25.0276C23.1708 25.0289 23.1555 25.0304 23.1405 25.0315C23.126 25.0325 23.1113 25.0338 23.0966 25.0344C23.0818 25.0351 23.0665 25.0351 23.0517 25.0354C23.0367 25.0355 23.0208 25.0354 23.0058 25.0354C22.9908 25.0352 22.9757 25.0348 22.9609 25.0344C22.9459 25.0338 22.9307 25.0333 22.9159 25.0324C22.9012 25.0317 22.8866 25.0308 22.872 25.0295C22.8571 25.0283 22.8418 25.0263 22.8271 25.0246C22.8125 25.023 22.7976 25.0217 22.7831 25.0197C22.7688 25.0176 22.7545 25.0153 22.7402 25.0129C22.7261 25.0105 22.7121 25.0078 22.6982 25.0051C22.6842 25.0024 22.6699 24.9995 22.6562 24.9963C21.8867 24.8205 21.538 24.1198 21.2782 23.7395C21.0086 23.3448 20.7717 22.9356 20.4589 22.55L19.7236 22.5969C19.745 23.2262 20.0097 24.3161 19.0937 24.8059C18.875 24.9227 18.5706 24.9939 18.2558 24.9914C17.955 24.9891 17.7127 24.8996 17.5185 24.7863C17.4447 24.7435 17.3801 24.6987 17.3193 24.6506C17.1023 24.432 16.997 24.1919 16.9599 23.9475C16.8928 23.5048 16.9237 23.0526 16.9237 22.6086L16.9267 20.4006C16.9263 19.3861 16.9383 18.3712 16.9628 17.3567C16.9758 16.868 16.8971 16.3041 17.0995 15.8274C17.2423 15.543 17.4296 15.2267 17.956 15.0754ZM14.7616 15.0432C15.0259 15.0119 15.3313 15.045 15.5585 15.1213C16.0586 15.2893 16.2274 15.6978 16.3427 15.9817C16.4289 16.4408 16.3759 16.9186 16.3691 17.3801L16.3359 19.7414L16.3349 22.3996C16.3355 22.8843 16.3802 23.3812 16.3105 23.8645C16.274 24.1166 16.1657 24.358 15.9677 24.5891C15.7883 24.7648 15.5734 24.9079 15.1952 24.969C15.1804 24.9714 15.1653 24.9738 15.1503 24.9758C15.1352 24.9778 15.1197 24.98 15.1044 24.9817C15.0892 24.9832 15.0738 24.9844 15.0585 24.9856C15.0431 24.9868 15.0272 24.9876 15.0116 24.9885C14.9961 24.9893 14.9804 24.99 14.9648 24.9904C14.9492 24.9909 14.9335 24.9914 14.9179 24.9914C14.9023 24.9914 14.8866 24.9909 14.871 24.9904C14.8555 24.9901 14.8396 24.9894 14.8241 24.9885C14.8088 24.9877 14.7935 24.9868 14.7782 24.9856C14.7628 24.9843 14.7467 24.9832 14.7314 24.9817C14.7163 24.98 14.7013 24.9787 14.6864 24.9768C14.6713 24.9748 14.6555 24.9722 14.6405 24.9699C14.6258 24.9675 14.6111 24.9648 14.5966 24.9621C14.5819 24.9594 14.5671 24.9565 14.5527 24.9533C14.5382 24.9501 14.5238 24.9471 14.5097 24.9436C14.4956 24.9401 14.4814 24.9357 14.4677 24.9319C14.0399 24.8102 13.8117 24.5614 13.6903 24.3254C13.397 23.7545 13.5231 23.0784 13.5234 22.4904L13.5263 20.3938C13.5194 19.3939 13.5304 18.3937 13.5595 17.3938C13.5738 16.9659 13.546 16.5252 13.622 16.0998C13.6684 15.8402 13.76 15.5863 14.0185 15.3596C14.1863 15.2124 14.4323 15.0823 14.7616 15.0432ZM33.953 15.0393C34.2485 15.037 34.5156 15.0828 34.7255 15.1945C35.1191 15.4038 35.2759 15.7367 35.3476 16.0197C35.4875 16.5728 35.3771 17.455 35.3681 18.0393L35.3007 22.134C35.9274 22.1308 37.3645 22.0765 37.8827 22.1535C38.2269 22.205 38.4828 22.3717 38.6425 22.5305C39.1439 23.0288 39.1751 23.7171 38.8671 24.2483C38.7026 24.5323 38.4485 24.7833 37.9335 24.9289C37.2524 24.9813 34.2824 24.9986 33.6825 24.9182C33.2996 24.8668 33.0723 24.729 32.8837 24.5529C32.6345 24.3203 32.5324 24.0641 32.4911 23.801C32.4336 23.4354 32.4651 23.0603 32.4706 22.6936L32.5009 20.8889L32.5478 17.8205C32.564 17.1618 32.4304 16.2466 32.79 15.635C32.9412 15.3776 33.1499 15.1874 33.6132 15.0578C33.7256 15.0489 33.8391 15.0402 33.953 15.0393ZM42.1171 14.9397C43.0076 14.9392 43.9154 14.9157 44.8036 14.9475L44.832 14.9572C45.0612 15.0372 45.2219 15.1141 45.3681 15.2375C45.9311 15.7136 45.9538 16.4706 45.6894 16.9992C45.5363 17.3053 45.259 17.5675 44.7245 17.7307C43.8499 17.7599 42.9587 17.7407 42.082 17.7375L42.081 18.4182C42.418 18.4145 42.7758 18.3988 43.1112 18.4182C43.4432 18.4374 43.6861 18.5197 43.8896 18.6574C44.4693 19.0499 44.5427 19.6978 44.4023 20.1692C44.2871 20.5552 44.0587 20.9632 43.4345 21.2043C42.9845 21.2379 42.5307 21.2332 42.0771 21.2346L42.0751 22.1311C42.782 22.1352 43.9615 22.0668 44.5995 22.1301C45.0519 22.1749 45.2571 22.2878 45.5068 22.4768C45.9162 22.9565 45.9879 23.4975 45.8271 24.0139C45.7419 24.2872 45.5324 24.6649 45.0761 24.8283C44.8981 24.8921 44.6899 24.9232 44.4775 24.9367C44.1695 24.9562 40.7672 24.9607 40.5448 24.9377C40.2135 24.9027 40.0274 24.8114 39.8427 24.6672C39.5437 24.4338 39.392 24.144 39.33 23.8674C39.2085 23.3249 39.2448 22.7514 39.2372 22.2053L39.2226 19.4817C39.2212 18.7062 39.2279 17.9308 39.2421 17.1555C39.2515 16.7111 39.1954 16.2237 39.37 15.7883C39.5091 15.4419 39.7524 15.1466 40.3349 14.9455C40.9091 14.9133 41.5367 14.9401 42.1171 14.9397ZM19.7421 19.7834C20.3098 19.7622 20.7288 19.7285 21.1513 19.507C21.526 19.2409 21.739 18.9313 21.6523 18.5969C21.5864 18.343 21.3424 18.0916 20.9413 17.9387C20.5909 17.8052 20.1929 17.7632 19.7665 17.761L19.7421 19.7834ZM34.6816 2.35764C35.4676 2.42726 36.0839 2.7031 36.539 3.03049C37.3486 3.61313 37.8446 4.32253 37.623 5.04611C37.5207 5.37949 37.189 5.85818 36.6347 6.05588C36.4596 6.11827 36.2489 6.14037 36.0419 6.11349C35.4556 6.03734 35.2302 5.63174 34.9628 5.38596C34.8478 5.28036 34.7353 5.19868 34.5028 5.16721C34.3314 5.17763 34.2355 5.20439 34.1112 5.26779C33.1285 5.7703 32.9623 7.03195 32.9843 7.70236C33.0033 8.28798 33.1182 9.3693 34.0195 9.79904C34.1378 9.85546 34.3073 9.92385 34.4775 9.90939C34.9521 9.86872 35.1359 9.41833 35.4423 9.24631C35.6047 9.15527 35.8451 9.0737 36.0907 9.07248C36.3191 9.07141 36.5144 9.13806 36.6689 9.22092C37.2829 9.55059 37.5769 10.0906 37.5556 10.5403C37.5218 10.9697 37.2823 11.3726 36.8866 11.7483C36.4598 12.1534 35.7885 12.5796 34.9003 12.7063C34.3796 12.7805 33.8528 12.73 33.3915 12.5881C31.8794 12.1227 31.1685 11.054 30.7724 10.2151C30.7266 10.119 30.6831 10.0227 30.6425 9.92599C30.6017 9.82912 30.564 9.73143 30.5282 9.634C30.4925 9.53661 30.4594 9.43888 30.4286 9.34103C30.3981 9.24325 30.3693 9.14527 30.3437 9.04709C30.3181 8.94877 30.2948 8.84983 30.2743 8.75119C30.2539 8.65269 30.2361 8.55403 30.2206 8.45529C30.2052 8.3564 30.1928 8.25652 30.1825 8.15744C30.1723 8.05852 30.1641 7.95959 30.1591 7.86057C30.0854 6.43387 30.5909 4.50041 32.0204 3.27853C32.5145 2.85631 33.1377 2.47516 34.0907 2.35275C34.2916 2.34081 34.4811 2.33992 34.6816 2.35764ZM14.0722 2.47775C14.438 2.41487 14.8777 2.44816 15.2157 2.53928C16.2773 2.82549 16.8612 3.714 17.1757 4.26877C17.678 5.15501 17.8785 6.08873 18.0595 7.0051C18.2663 8.01662 18.4081 9.03058 18.4843 10.0471C18.5227 10.537 18.6216 11.0554 18.5448 11.5442C18.502 11.8165 18.3952 12.118 18.1435 12.3606C17.9919 12.5066 17.7599 12.6284 17.4472 12.6731C17.1612 12.7139 16.8422 12.6928 16.5907 12.6096C16.1397 12.4601 15.9125 12.1177 15.8153 11.8537C15.7483 11.6714 15.7256 11.488 15.7099 11.3029L15.1747 11.3C14.5621 11.3 14.268 11.3003 14.0644 11.301C13.7671 11.3067 13.5176 11.3119 13.4833 11.3029C13.3663 11.4417 13.3677 11.6389 13.3153 11.7903C13.2194 12.0668 12.9252 12.5168 12.3925 12.6311C12.1711 12.6786 11.9069 12.6711 11.6894 12.6213C11.2443 12.5194 10.9742 12.2606 10.8183 12.0315C10.4457 11.4836 10.6232 10.7724 10.6611 10.1985C10.7768 8.44344 10.9986 6.64154 11.6728 4.91916C11.8838 4.38012 12.1711 3.84562 12.6259 3.34787C12.9226 3.02321 13.3779 2.5973 14.0722 2.47775ZM8.3964 2.4465C8.65591 2.44086 8.85401 2.45475 9.07414 2.53244C9.55798 2.70319 9.88874 3.09366 9.98429 3.38986C10.1541 3.91642 10.0795 4.48963 10.078 5.02267L10.0536 7.72678L10.04 10.0178C10.0407 10.4948 10.0865 10.9865 9.99406 11.4612C9.94247 11.7258 9.84284 11.9784 9.5341 12.1975C9.32853 12.3433 9.03866 12.4574 8.68547 12.4768C8.41141 12.4918 8.15066 12.4447 7.94816 12.3479C7.62428 12.193 7.44906 11.953 7.35636 11.7326C7.20503 11.3726 7.23162 10.9912 7.22453 10.6242C7.21243 9.99739 7.24482 9.36768 7.20109 8.74142C6.87138 9.19526 6.2742 10.5078 5.49504 10.7121C5.30297 10.7624 5.08852 10.7655 4.88664 10.7297C3.92891 10.5596 3.45968 9.16557 3.03312 8.68967C3.02579 8.6815 3.01818 8.67337 3.01066 8.66525C2.93194 9.57518 3.12458 10.4995 2.99992 11.4065C2.95872 11.5953 2.90596 11.7785 2.78312 11.9582C2.63274 12.1781 2.37609 12.403 1.95109 12.5012C1.72274 12.5539 1.46006 12.5704 1.22453 12.5207C0.874278 12.4468 0.649265 12.2643 0.502849 12.091C0.321864 11.8767 0.264768 11.6559 0.234294 11.424C0.178811 11.0016 0.213941 10.5684 0.21574 10.1447L0.226482 7.91135L0.243084 5.29611C0.246526 4.81099 0.218988 4.31845 0.271404 3.8342C0.297701 3.59118 0.336289 3.33774 0.513591 3.11056C0.66746 2.91342 0.930621 2.68915 1.33097 2.61056C1.54957 2.56771 1.7929 2.58069 1.99894 2.63596C2.30577 2.71824 2.51686 2.87556 2.67277 3.03146C3.04539 3.40412 3.26281 3.85958 3.52531 4.259C4.0682 5.08471 4.60293 5.91172 5.12883 6.74045C5.40276 6.39195 5.61614 6.02437 5.85148 5.66818L7.13078 3.74045C7.3589 3.39693 7.55021 2.96108 7.91398 2.65256C8.03057 2.5539 8.20198 2.49645 8.3964 2.4465ZM22.8407 2.24338C23.5854 2.25742 24.2441 2.47781 24.7284 2.76096C25.6579 3.30459 26.2032 4.04709 26.1093 4.77658C26.0546 5.20249 25.7807 5.643 25.1347 5.92502C24.9816 5.99187 24.7825 6.05242 24.5741 6.03244C23.9296 5.9706 23.6065 5.39806 23.3036 5.14865C23.2054 5.06771 23.0546 4.95665 22.8564 4.94357C22.7545 4.93688 22.6555 4.95754 22.5732 4.98752C22.1536 5.1401 21.9503 5.65571 21.8495 5.90256C21.4925 6.77824 21.2437 8.91666 22.2265 9.67404C22.3589 9.77586 22.5382 9.86787 22.7812 9.88498C22.9625 9.89774 23.2304 9.85876 23.371 9.79709C23.5772 9.70654 23.5281 9.2109 23.5361 9.0676C23.4995 9.06356 23.463 9.0586 23.4267 9.05392C23.0414 9.0036 22.7898 8.88487 22.5927 8.70627C22.0629 8.22552 22.0402 7.46442 22.2948 6.93869C22.3897 6.74329 22.5538 6.49789 22.915 6.39767C23.2522 6.30418 24.4023 6.50529 24.789 6.56369C25.401 6.65611 25.7333 6.8195 26.0341 7.10373C26.0811 7.18025 26.1275 7.25711 26.1562 7.33615C26.2195 7.51039 26.2398 7.69129 26.2382 7.86838C26.2343 8.31609 26.1344 8.76703 26.0995 9.21506C26.0557 9.78322 26.1242 10.4647 25.9198 11.01C25.9067 11.0467 25.8916 11.084 25.8749 11.1203C25.8582 11.1565 25.8393 11.1921 25.8193 11.2278C25.7989 11.2636 25.7777 11.2999 25.7538 11.3352C25.7301 11.3704 25.7039 11.4052 25.6767 11.4397C25.6495 11.4741 25.6203 11.5085 25.5898 11.5422C25.5594 11.5757 25.5276 11.6091 25.4941 11.6418C25.4603 11.6747 25.4246 11.7075 25.3876 11.7395C25.3505 11.7714 25.3114 11.8023 25.2714 11.8332C24.8475 12.1551 24.1604 12.4519 23.4081 12.5188C22.7304 12.579 21.9776 12.5024 21.415 12.2951C19.9234 11.7454 19.2627 10.4015 18.957 9.50314C18.3037 7.58426 18.5162 4.61801 20.7304 2.98068C21.257 2.59134 21.8214 2.32581 22.7431 2.2424C22.7755 2.24222 22.8083 2.2428 22.8407 2.24338ZM27.9941 2.59103C28.2131 2.57961 28.424 2.58667 28.6288 2.63303C29.0242 2.72265 29.2539 2.92035 29.412 3.12033C29.5816 3.33496 29.6367 3.58657 29.6562 3.8176C29.6917 4.23643 29.6393 4.66522 29.6318 5.08517L29.6005 7.67404L29.5927 10.0197C29.5941 10.4688 29.6401 10.9286 29.58 11.3762C29.547 11.6228 29.4693 11.8657 29.2753 12.093C29.1014 12.297 28.8938 12.4372 28.4921 12.5197C28.2507 12.5306 28.0238 12.5365 27.7939 12.4895C27.4246 12.4139 27.1859 12.229 27.0409 12.0432C26.8818 11.8387 26.8346 11.5655 26.8105 11.3459C26.7593 10.8828 26.7904 10.41 26.79 9.94553L26.7958 7.41135L26.8202 5.14572C26.8253 4.66685 26.7972 4.17952 26.8691 3.70236C26.9049 3.46449 26.9927 3.22363 27.1825 3.0051C27.3615 2.79908 27.5936 2.67444 27.9941 2.59103ZM14.5009 5.47971C14.1532 6.15244 13.9678 6.85107 13.83 7.54318C13.7672 7.85836 13.739 8.18132 13.6503 8.49435L14.7382 8.49533L15.5321 8.49435C15.4118 7.84322 15.1324 6.00357 14.5722 5.49728L14.5009 5.47971Z" fill="white"/>
</g>
<defs>
<clipPath id="clip0_32214_59882">
<rect width="86" height="32" fill="white"/>
</clipPath>
</defs>
</svg>
