<svg width="169" height="32" viewBox="0 0 169 32" fill="none" xmlns="http://www.w3.org/2000/svg">
<path d="M66 32H34V0H66V32ZM94.1807 13.6748C94.9155 13.6748 95.5454 13.8074 96.0703 14.0723C96.6003 14.3322 96.9809 14.7269 97.2109 15.2568C97.3259 15.5067 97.3987 15.7794 97.4287 16.0742C97.4587 16.3641 97.4736 16.6694 97.4736 16.9893V22H96.2881V20.7363C96.0177 21.1493 95.6833 21.478 95.2832 21.7217C94.7382 22.0567 94.0731 22.2246 93.2881 22.2246C92.6832 22.2246 92.1756 22.1145 91.7656 21.8945C91.3608 21.6696 91.0537 21.3746 90.8438 21.0098C90.6387 20.6448 90.5361 20.2446 90.5361 19.8096C90.5361 19.3846 90.6154 19.017 90.7754 18.707C90.9404 18.392 91.1708 18.1318 91.4658 17.9268C91.7608 17.7168 92.1135 17.5516 92.5234 17.4316C92.9084 17.3267 93.3386 17.2371 93.8135 17.1621C94.2934 17.0821 94.7786 17.0093 95.2686 16.9443C95.5785 16.9032 95.8752 16.8614 96.1592 16.8223C96.1436 16.2091 95.9997 15.7477 95.7256 15.4375C95.4256 15.0925 94.9059 14.92 94.166 14.9199C93.6761 14.9199 93.2459 15.0319 92.876 15.2568C92.511 15.4768 92.2535 15.837 92.1035 16.3369L90.8359 15.9551C91.0309 15.2451 91.4087 14.6872 91.9688 14.2822C92.5287 13.8774 93.2659 13.6748 94.1807 13.6748ZM110.854 14.6338C110.997 14.4851 111.151 14.3493 111.319 14.2295C111.844 13.8596 112.487 13.6748 113.247 13.6748C113.997 13.6749 114.642 13.8624 115.182 14.2373C115.727 14.6073 116.145 15.1148 116.435 15.7598C116.724 16.4047 116.869 17.1325 116.869 17.9424C116.869 18.7523 116.725 19.4801 116.435 20.125C116.145 20.7699 115.727 21.2821 115.182 21.6621C114.642 22.0371 113.994 22.2246 113.239 22.2246C112.479 22.2246 111.839 22.037 111.319 21.6621C111.089 21.4939 110.885 21.2982 110.704 21.0781V22H109.512V11.1992H110.854V14.6338ZM130.198 13.6748C131.013 13.6748 131.706 13.8623 132.276 14.2373C132.851 14.6123 133.281 15.147 133.566 15.8418C133.856 16.5367 133.981 17.3644 133.941 18.3242H127.728C127.778 19.1003 127.989 19.7157 128.361 20.1699C128.791 20.6946 129.404 20.957 130.198 20.957C130.733 20.957 131.199 20.8348 131.594 20.5898C131.989 20.3449 132.298 19.9921 132.523 19.5322L133.806 19.9746C133.491 20.6896 133.016 21.2447 132.381 21.6396C131.751 22.0296 131.044 22.2246 130.259 22.2246C129.464 22.2246 128.769 22.0492 128.174 21.6992C127.584 21.3442 127.124 20.8517 126.794 20.2217C126.464 19.5867 126.299 18.8469 126.299 18.002C126.299 17.117 126.461 16.352 126.786 15.707C127.111 15.0571 127.564 14.557 128.144 14.207C128.728 13.8521 129.413 13.6748 130.198 13.6748ZM81.3457 19.8018L85.4023 11.1992H86.6328V21.9922H85.3652V14.1318L81.6982 22H80.9854L77.3174 14.1318V22H76.0508V11.1992H77.2656L81.3457 19.8018ZM105.078 13.8467C105.353 13.8267 105.611 13.8445 105.851 13.8994V15.1523C105.571 15.0774 105.263 15.0569 104.929 15.0918C104.594 15.1268 104.283 15.25 103.998 15.46C103.738 15.6449 103.536 15.8699 103.391 16.1348C103.251 16.3997 103.154 16.6872 103.099 16.9971C103.044 17.3021 103.016 17.6146 103.016 17.9346V22H101.673V13.8994H102.866V15.1855C102.919 15.0912 102.976 14.9996 103.038 14.9121C103.193 14.7021 103.366 14.5295 103.556 14.3945C103.766 14.2245 104.004 14.0949 104.269 14.0049C104.533 13.9149 104.803 13.8617 105.078 13.8467ZM122.248 22H120.913V10.9746H122.248V22ZM55.1562 10.748C55.0818 10.748 55.0281 10.7531 54.9961 10.7637C54.8041 10.8064 54.6704 10.8866 54.5957 11.0039C53.9984 11.8786 53.4436 12.7057 52.9316 13.4844C52.8036 13.6658 52.5747 14.0713 52.2441 14.7002C51.9561 15.2549 51.7154 15.6976 51.5234 16.0283C51.3315 16.3482 51.1233 16.6308 50.8994 16.876L50.3877 15.8037C49.8011 14.5452 49.3047 13.5216 48.8994 12.7324C48.4945 11.9333 48.2337 11.5221 48.1162 11.5C47.9457 11.4787 47.8228 11.4678 47.748 11.4678C47.3213 11.4678 46.9796 11.655 46.7236 12.0283C46.3823 12.5296 45.876 13.2233 45.2041 14.1084L44.708 14.7637C43.8227 15.9477 43.156 17.2017 42.708 18.5244C42.6441 18.695 42.6123 18.8655 42.6123 19.0361C42.6123 19.3561 42.756 19.6444 43.0439 19.9004C43.4172 20.2629 43.7056 20.4443 43.9082 20.4443C44.036 20.4442 44.1482 20.3689 44.2441 20.2197C44.34 20.0598 44.4413 19.7987 44.5479 19.4365C45.1025 17.7086 46.1586 15.8095 47.7158 13.7402L47.9238 14.1562C47.9666 14.2417 48.0627 14.4498 48.2119 14.7803C48.3719 15.1109 48.4789 15.3725 48.5322 15.5645C48.8309 16.5883 49.0815 17.5753 49.2842 18.5244C49.4123 19.1429 49.764 19.6285 50.3398 19.9805C50.5424 20.0977 50.708 20.1562 50.8359 20.1562C50.9746 20.1562 51.0915 20.0918 51.1875 19.9639C51.2942 19.8359 51.4011 19.6388 51.5078 19.3721C51.6251 19.0308 51.8708 18.5453 52.2441 17.916C52.6174 17.2869 52.996 16.6843 53.3799 16.1084C53.7746 15.5217 54.0202 15.1849 54.1162 15.0996L54.084 16.3643L54.0674 17.2441C54.0461 18.0546 54.0361 18.6571 54.0361 19.0518C54.0361 19.4358 54.0411 19.7191 54.0518 19.9004C54.0731 20.2522 54.1742 20.5298 54.3555 20.7324C54.5367 20.9244 54.7985 21.0571 55.1396 21.1318C55.2676 21.1638 55.3637 21.1797 55.4277 21.1797C55.513 21.1797 55.5715 21.1529 55.6035 21.0996C55.6354 21.0463 55.6513 20.9508 55.6514 20.8125C55.6514 20.6739 55.6573 20.551 55.668 20.4443L55.7002 19.9316C55.7002 19.5585 55.721 19.2224 55.7637 18.9238C55.913 17.6226 56.1587 15.6708 56.5 13.0684C56.5213 12.8765 56.5422 12.7109 56.5635 12.5723C56.5955 12.423 56.6223 12.3001 56.6436 12.2041C56.6543 12.1508 56.6602 12.0706 56.6602 11.9639C56.6601 11.8467 56.6492 11.7663 56.6279 11.7236C56.5319 11.4998 56.3236 11.2815 56.0039 11.0684C55.6948 10.8552 55.4121 10.7482 55.1562 10.748ZM95.3281 18.0693C94.9082 18.1243 94.5107 18.185 94.1357 18.25C93.7608 18.31 93.423 18.3818 93.123 18.4668C92.9031 18.5368 92.6959 18.6273 92.501 18.7373C92.311 18.8473 92.1561 18.99 92.0361 19.165C91.9212 19.3349 91.8633 19.547 91.8633 19.8018C91.8633 20.0216 91.9184 20.2317 92.0283 20.4316C92.1433 20.6316 92.3187 20.7949 92.5537 20.9199C92.7937 21.0448 93.1065 21.1074 93.4912 21.1074C93.9708 21.1074 94.3856 21.0223 94.7354 20.8525C95.0903 20.6776 95.3758 20.4498 95.5908 20.1699C95.8058 19.8849 95.9457 19.5743 96.0107 19.2393C96.0857 18.9894 96.1259 18.7121 96.1309 18.4072C96.1364 18.2361 96.1372 18.0869 96.1396 17.96C95.8661 17.997 95.5956 18.0343 95.3281 18.0693ZM113.036 14.8975C112.511 14.8975 112.076 15.0272 111.731 15.2871C111.387 15.5421 111.129 15.8995 110.959 16.3594C110.789 16.8144 110.704 17.3424 110.704 17.9424C110.704 18.5321 110.786 19.0596 110.951 19.5244C111.121 19.9844 111.381 20.3473 111.731 20.6123C112.081 20.8723 112.529 21.002 113.074 21.002C113.609 21.0019 114.051 20.8667 114.401 20.5967C114.751 20.3267 115.014 19.9619 115.189 19.502C115.364 19.0371 115.451 18.5172 115.451 17.9424C115.451 17.3726 115.364 16.8574 115.189 16.3975C115.019 15.9375 114.754 15.5717 114.395 15.3018C114.04 15.0318 113.586 14.8975 113.036 14.8975ZM130.243 14.875C129.418 14.8751 128.791 15.14 128.361 15.6699C128.039 16.0678 127.836 16.5949 127.756 17.252H132.555C132.481 16.5494 132.292 16.0044 131.983 15.6172C131.593 15.1222 131.013 14.875 130.243 14.875Z" fill="white"/>
</svg>
