<svg width="150" height="32" viewBox="0 0 150 32" fill="none" xmlns="http://www.w3.org/2000/svg">
<g clip-path="url(#clip0_32214_60526)">
<path d="M4.80454 10.833V23.5767H1.6001V5.80588H4.7126L10.1372 12.8219L15.6973 5.8294H18.6956V23.5767H15.4912V10.7644L10.2504 17.2298H9.87882L4.80454 10.833ZM30.7904 23.5767H27.4031V10.2559H30.2639L30.5611 13.0355C31.3856 11.1358 33.0783 9.88464 35.5967 9.88464C39.1659 9.88464 41.1345 12.1782 41.1345 15.7465V23.5767H37.7471V16.5812C37.7471 14.2004 36.9225 12.7347 34.4972 12.7347C31.9567 12.7347 30.7847 14.3337 30.7847 17.0427L30.7895 23.5757L30.7904 23.5767ZM54.6665 20.8902C53.8439 22.7449 52.127 23.897 49.5167 23.897C45.81 23.897 43.1553 21.673 43.1553 16.9937V16.8086C43.1553 12.3594 45.7403 9.90424 49.631 9.90424C51.9431 9.90424 53.6135 10.8536 54.5281 12.4986V5.8294H57.8012V23.5767H54.9598L54.6655 20.8892L54.6665 20.8902ZM54.6403 16.98V16.8409C54.6403 14.269 53.1074 12.6701 50.6123 12.6701C47.9121 12.6701 46.3849 14.222 46.3849 16.8409V17.0035C46.3849 19.737 48.0031 21.0578 50.5203 21.0578C53.1528 21.0528 54.6403 19.547 54.6403 16.98ZM65.2912 23.5767L59.3411 10.2559H62.9297L66.89 19.8252L70.9868 10.2559H74.6248L68.3795 23.5767H65.2912ZM91.0009 23.5777V5.8294H94.3665V23.5767L91.0009 23.5777ZM97.0145 23.5777V5.8294H100.379V23.5767L97.0145 23.5777ZM109.861 23.9715C104.758 23.9715 102.493 21.2841 102.493 17.2063V16.9986C102.493 12.8748 105.238 9.8856 110.022 9.8856C114.919 9.8856 117.344 12.9209 117.344 16.7438V18.1567H105.748C106.068 20.172 107.464 21.239 110.049 21.239C111.949 21.239 113.002 20.6825 113.528 19.64H117.191C116.136 22.5587 113.643 23.9715 109.861 23.9715ZM105.789 15.6074H114.031C113.734 13.592 112.475 12.527 110.095 12.527C107.646 12.527 106.206 13.6616 105.794 15.6074H105.789ZM118.311 28.9516V26.0104H119.981C121.949 26.0104 122.543 25.501 123.414 23.7863L123.734 23.0907L117.601 10.2559H121.217L125.268 19.1756L125.405 19.7076L125.564 19.1982L129.57 10.2559H133.139L126.48 24.3713C124.559 28.3804 123.711 28.9575 119.889 28.9575L118.311 28.9516ZM23.0992 10.4656C22.5069 10.4813 21.9155 10.4078 21.3446 10.2471V23.5767H24.7774V10.2363C24.2331 10.4001 23.6669 10.4774 23.0992 10.4656ZM23.1176 9.04104C24.3293 9.04104 24.9835 8.59232 24.9835 7.24906C24.9835 5.96363 24.3487 5.4375 23.1176 5.4375H23.1234C21.8855 5.4375 21.2575 5.96363 21.2575 7.24906C21.2575 8.59232 21.9107 9.04104 23.1234 9.04104H23.1176ZM132.987 5.78531L134.775 5.99988L137.321 6.49073C138.115 6.68864 138.953 6.90125 139.673 7.30589C140.927 8.01032 141.182 9.48288 141.182 10.8252V13.5528C135.46 10.591 132.987 5.78531 132.987 5.78531ZM150.4 5.78531L148.611 5.99889L146.066 6.48976C145.271 6.68766 144.435 6.90027 143.715 7.30491C142.459 8.00936 142.205 9.48192 142.205 10.8242V13.5518C147.927 10.59 150.4 5.78531 150.4 5.78531ZM85.4969 20.8784C84.5369 22.7576 82.5001 24.1205 79.3643 24.1205C76.2063 24.1205 74.5377 22.7772 74.5377 20.461C74.5377 18.9581 75.1784 17.8197 76.394 17.1475C77.6067 16.4538 78.6771 16.2814 81.8505 15.8944L85.3433 15.5672V14.368C85.3433 13.349 84.5433 12.5838 82.1857 12.5838C79.553 12.5838 78.5232 13.4607 78.3858 15.089H74.9259C75.223 11.8676 77.6938 10.0374 81.9513 10.0374C86.5513 10.0374 88.5641 11.5894 88.5641 15.0186V23.7295H85.8417L85.4985 20.8765L85.4969 20.8784ZM85.3297 17.6864L82.4081 17.9823C80.4395 18.191 79.5704 18.3585 78.9519 18.7239C78.3799 19.0708 78.0499 19.4754 78.0499 20.076V20.0995C78.0499 21.0734 79.0313 21.6025 80.4395 21.5966C83.3689 21.5731 85.3297 19.6332 85.3297 17.6864Z" fill="white"/>
</g>
<defs>
<clipPath id="clip0_32214_60526">
<rect width="150" height="32" fill="white"/>
</clipPath>
</defs>
</svg>
