<svg width="105" height="32" viewBox="0 0 105 32" fill="none" xmlns="http://www.w3.org/2000/svg">
<g clip-path="url(#clip0_32214_59487)">
<path fill-rule="evenodd" clip-rule="evenodd" d="M0 6.87476V24.9746V24.9802C0.0175704 25.4427 0.205295 25.8799 0.523845 26.2006C0.842398 26.5212 1.26705 26.7004 1.70885 26.7004C2.15065 26.7004 2.57531 26.5212 2.89386 26.2006C3.2124 25.8799 3.40014 25.4427 3.4177 24.9802V11.1177L5.94513 14.8023C6.0354 14.9219 6.14537 15.0236 6.26985 15.1027C6.45276 15.2236 6.65709 15.3045 6.87059 15.3407C6.96011 15.3556 7.05057 15.3631 7.14119 15.3634C7.26687 15.3628 7.39211 15.3475 7.51462 15.3182C7.72547 15.2627 7.92458 15.1665 8.10183 15.0347C8.27757 14.9 8.42648 14.7305 8.54018 14.5359C8.65607 14.3436 8.73345 14.1284 8.76754 13.9038C8.80222 13.6796 8.79481 13.4505 8.74589 13.2292C8.69655 13.0448 8.61789 12.8704 8.51316 12.7134L3.5963 5.65317C3.34934 5.29821 3.00157 5.03409 2.6027 4.89855C2.20382 4.76301 1.77426 4.76298 1.37536 4.89848C0.976474 5.03397 0.628683 5.29805 0.381674 5.65298C0.134664 6.00792 0.00107322 6.43554 0 6.87476ZM17.444 24.6167V6.51692C17.4263 6.05454 17.2387 5.61722 16.9201 5.29659C16.6014 4.97595 16.1768 4.79688 15.735 4.79688C15.2932 4.79688 14.8685 4.97595 14.5501 5.29659C14.2315 5.61722 14.0437 6.05454 14.0262 6.51692V20.3851L11.4987 16.7005C11.4085 16.5809 11.2986 16.4792 11.1741 16.4001C10.9911 16.2792 10.7869 16.1983 10.5733 16.1621C10.4838 16.1473 10.3933 16.1397 10.3027 16.1394C10.177 16.14 10.0519 16.1553 9.92934 16.1847C9.71847 16.2403 9.51932 16.3363 9.34207 16.4682C9.16635 16.6029 9.01739 16.7724 8.90371 16.967C8.78781 17.1593 8.71043 17.3744 8.67644 17.599C8.64176 17.8232 8.64908 18.0523 8.69808 18.2736C8.74734 18.458 8.82599 18.6324 8.93072 18.7894L13.8476 25.8497C14.0952 26.2054 14.4438 26.4698 14.8438 26.6052C15.2437 26.7404 15.6743 26.7395 16.0738 26.6026C16.4732 26.4657 16.8208 26.1998 17.067 25.8429C17.3132 25.4862 17.4451 25.0569 17.444 24.6167ZM28.432 27.1966C23.8318 27.1966 20.728 24.0789 20.728 19.4137C20.728 14.6322 23.9265 11.163 28.3292 11.163C32.6805 11.163 35.4893 14.1333 35.4893 18.7306C35.4893 19.0624 35.3638 19.3805 35.14 19.6154C34.9162 19.8503 34.6127 19.9826 34.296 19.9833H24.1917L24.2107 20.2837C24.2619 21.4469 24.7473 22.5423 25.5621 23.3342C26.377 24.1262 27.4562 24.5514 28.5673 24.5182C30.3128 24.5182 31.5114 23.8719 32.2285 22.5342C32.3319 22.3502 32.4794 22.198 32.6567 22.0925C32.8337 21.987 33.0343 21.9322 33.2379 21.9333C33.2811 21.9305 33.3246 21.9305 33.3678 21.9333L33.744 21.9702C33.9385 21.992 34.1251 22.0631 34.2877 22.177C34.4503 22.2912 34.584 22.4449 34.6775 22.6248C34.7708 22.8061 34.8197 23.0086 34.8197 23.2144C34.8197 23.4202 34.7708 23.6228 34.6775 23.804C33.5086 25.9949 31.2923 27.1966 28.432 27.1966ZM28.2968 13.7451C26.1617 13.7451 24.7789 15.0573 24.281 17.5401L24.2134 17.8802H32.0608L32.0365 17.5742C31.9174 15.8084 30.8485 13.7451 28.2968 13.7451ZM37.906 19.1985C37.906 23.9062 41.0476 27.1969 45.545 27.1969C50.0614 27.1969 53.2139 23.9431 53.2139 19.2125C53.2139 14.4821 50.0425 11.1774 45.545 11.1774C41.0476 11.1774 37.906 14.4907 37.906 19.1985ZM41.486 19.1985C41.486 15.8454 43.0041 13.8445 45.545 13.8445C48.0671 13.8445 49.6311 15.8653 49.6311 19.1985C49.6311 22.5316 48.086 24.5156 45.545 24.5156C43.0041 24.5156 41.486 22.5514 41.486 19.1985ZM57.8952 26.7657C57.6309 26.7658 57.3691 26.7113 57.1249 26.6053C56.8805 26.4993 56.6588 26.3438 56.4719 26.148C56.0963 25.7511 55.8844 25.2157 55.882 24.6571C55.882 24.0978 56.0941 23.5615 56.4717 23.1659C56.8492 22.7704 57.3613 22.5483 57.8952 22.5483C58.4292 22.5483 58.9412 22.7704 59.3189 23.1659C59.6964 23.5615 59.9086 24.0978 59.9086 24.6571C59.9075 25.2161 59.6954 25.752 59.3186 26.148C59.1321 26.3442 58.9102 26.4998 58.6659 26.6059C58.4216 26.7121 58.1598 26.7663 57.8952 26.7657ZM64.7345 26.195C65.083 26.5599 65.5555 26.7653 66.0483 26.7661C66.2925 26.7665 66.5344 26.7163 66.7602 26.6186C66.9858 26.521 67.1909 26.3775 67.3636 26.1966C67.5364 26.0157 67.6733 25.8009 67.7665 25.5645C67.8598 25.3281 67.9078 25.0747 67.9074 24.8189V11.7641C67.9074 11.2477 67.7115 10.7524 67.3628 10.3873C67.0142 10.0221 66.5414 9.81697 66.0483 9.81697C65.5553 9.81697 65.0824 10.0221 64.7338 10.3873C64.3851 10.7524 64.1892 11.2477 64.1892 11.7641V24.8189C64.1899 25.335 64.3861 25.8299 64.7345 26.195ZM57.5703 7.86413C57.7631 7.94898 57.9701 7.99236 58.1791 7.99167H74.0121C74.4334 7.98944 74.837 7.81314 75.1349 7.50108C75.4328 7.18902 75.6012 6.76642 75.6032 6.3251C75.603 6.13019 75.5661 5.93725 75.4946 5.7573C75.4231 5.57735 75.3184 5.41394 75.1866 5.27641C75.0549 5.14024 74.8998 5.03154 74.7292 4.95614C74.5574 4.88283 74.3736 4.84529 74.188 4.8456H58.0032C57.6282 4.84687 57.2685 5.00263 57.0021 5.27925C56.8709 5.41615 56.767 5.57896 56.6964 5.75824C56.6261 5.93824 56.5892 6.13065 56.5881 6.3251C56.5892 6.76693 56.7564 7.1905 57.0536 7.50418C57.2021 7.65786 57.3775 7.78007 57.5703 7.86413ZM78.3312 27.1629C75.3546 27.1629 73.5578 25.6409 73.5578 23.09C73.5578 20.6127 75.2058 19.2098 79.0672 18.4048L83.3969 17.5092V16.9197C83.3969 14.9357 82.3414 13.8019 80.5014 13.8019C79.2404 13.8019 78.2744 14.3688 77.7034 15.4261C77.5604 15.7058 77.342 15.9353 77.0756 16.0864C76.8475 16.2143 76.5929 16.2815 76.3341 16.2819C76.2918 16.2849 76.2493 16.2849 76.2069 16.2819C75.8056 16.25 75.4323 16.0536 75.1684 15.7351C74.9044 15.4167 74.771 15.0021 74.7971 14.5814C74.8141 14.3025 74.9018 14.0334 75.0515 13.8019C76.1908 12.0844 78.1283 11.1774 80.6502 11.1774C84.6308 11.1774 86.8223 13.2322 86.8223 16.9621V25.0966C86.8299 25.4983 86.7038 25.8899 86.4652 26.2048C86.2606 26.4628 85.9854 26.6489 85.677 26.7376C85.3684 26.8263 85.0411 26.8135 84.7397 26.7009C84.4382 26.5883 84.1769 26.3813 83.9914 26.108C83.8059 25.8349 83.7051 25.5084 83.7027 25.1732V24.2718C83.7027 24.1727 83.5511 24.1387 83.4915 24.2718C82.6527 25.9809 80.4743 27.1629 78.3312 27.1629ZM80.2254 20.2046C78.5558 20.5759 76.9782 20.9274 76.9782 22.7554C76.9782 23.9798 77.8793 24.7395 79.3297 24.7395C81.6839 24.7395 83.3888 22.832 83.3888 20.2046V19.4763L80.2254 20.2046ZM90.4295 26.5408C90.6545 26.6881 90.9144 26.7662 91.1794 26.7663C91.3993 26.7679 91.6166 26.7163 91.8152 26.6155C92.0129 26.5147 92.1867 26.3676 92.3213 26.1853L95.8391 21.3386L99.3567 26.1568C99.4901 26.3398 99.6625 26.4874 99.8602 26.5877C100.057 26.6889 100.274 26.7412 100.493 26.7408H100.848C101.113 26.7417 101.373 26.6642 101.597 26.5173C101.822 26.3703 102.002 26.16 102.117 25.9103C102.235 25.6609 102.281 25.3817 102.252 25.1054C102.225 24.8299 102.125 24.5678 101.963 24.3486L97.8169 18.7905L101.365 13.9524C101.521 13.7327 101.614 13.4714 101.636 13.1985C101.661 12.9247 101.612 12.649 101.497 12.402C101.379 12.1507 101.196 11.9395 100.969 11.793C100.742 11.6464 100.48 11.5707 100.212 11.5744C99.9917 11.5736 99.7735 11.6274 99.5768 11.7313C99.3801 11.8352 99.2086 11.9864 99.0781 12.1724L96.0581 16.4239L93.0815 12.1895C92.9503 12.0042 92.7798 11.8529 92.5838 11.7473C92.3852 11.6426 92.167 11.5882 91.9447 11.5886H91.5739C91.3132 11.5891 91.0584 11.6646 90.8351 11.8068C90.6094 11.9509 90.4278 12.1593 90.3102 12.4077C90.1926 12.6551 90.1424 12.9323 90.167 13.2078C90.1918 13.4833 90.289 13.7461 90.4483 13.9666L94.0938 18.9861L90.064 24.3713C89.9011 24.5901 89.7998 24.8527 89.7725 25.1289C89.7443 25.4051 89.7913 25.6839 89.9072 25.9335C90.0239 26.1832 90.2045 26.3937 90.4295 26.5408Z" fill="white"/>
</g>
<defs>
<clipPath id="clip0_32214_59487">
<rect width="104.8" height="32" fill="white"/>
</clipPath>
</defs>
</svg>
