<svg width="154" height="32" viewBox="0 0 154 32" fill="none" xmlns="http://www.w3.org/2000/svg">
<path d="M75.334 9.56348C77.0638 7.03067 80.3825 6.63855 82.7402 8.68164C84.1127 9.87149 84.8586 11.4138 85.1973 13.1602C85.6579 15.5361 85.5888 17.889 84.6475 20.1533C83.9273 21.8868 82.7676 23.2277 80.9434 23.8564C78.3364 24.7544 75.7096 23.4508 74.7285 20.8076C74.6507 20.5975 74.5362 20.3341 74.4629 20.1182V23.3193C74.4633 24.2865 74.4625 25.2536 74.4541 26.2207C74.447 27.0147 74.7627 27.61 75.3984 28.0635C75.9122 28.43 76.5444 28.7265 77.1172 28.9756H68.9883C69.3431 28.7706 69.7379 28.5198 70.0596 28.2617C70.7003 27.7473 71.0137 27.0842 71.0137 26.2637C71.0117 20.8065 71.0121 15.3498 71.0186 9.89258C71.0185 9.68909 70.9409 9.58226 70.7803 9.48438C70.1479 9.09846 69.5204 8.70308 68.8174 8.26465C69.4018 8.18227 69.9052 8.1075 70.4092 8.04004C71.6073 7.87981 72.8087 7.73697 74.0029 7.55273L74.3262 7.49902V7.85449C74.3158 9.07546 74.3203 10.2966 74.3223 11.5176V11.9375C74.5163 11.0843 74.8571 10.2622 75.334 9.56348ZM101.691 7.82715C101.682 11.2302 101.685 14.6335 101.688 18.0371C101.688 18.6198 101.712 19.2015 101.846 19.7744C102.132 21.0051 102.909 21.6591 104.169 21.7246C105.433 21.7901 106.465 21.3864 107.122 20.251C107.487 19.619 107.606 18.9145 107.608 18.1963C107.616 15.4304 107.61 12.6646 107.616 9.89941V9.63477L107.375 9.50195C106.709 9.14969 106.054 8.77569 105.397 8.40527C105.339 8.37221 105.246 8.36511 105.238 8.24512L108.818 7.77539C109.45 7.69234 110 7.62592 110.712 7.52148L111.058 7.48242C111.047 11.7392 111.09 16.3366 111.029 20.5928C111.009 22.0402 111.603 22.9702 112.835 23.5918C112.927 23.6385 113.017 23.6918 113.198 23.793H112.835C111.256 23.793 109.332 23.7891 107.742 23.7891V23.4268C107.757 22.3413 107.748 21.2557 107.726 20.165C107.446 20.8553 107.131 21.521 106.691 22.1211C105.06 24.3471 102.49 24.567 100.654 23.5898C99.4682 22.9585 98.8843 21.8652 98.5469 20.6182C98.314 19.7579 98.2487 18.8752 98.248 17.9883C98.2455 15.3088 98.2432 12.6297 98.2529 9.9502V9.6416L97.9854 9.46094C97.4215 9.12355 96.865 8.7716 96.3076 8.42383L96.0479 8.25195C97.7929 8.01127 99.6211 7.77287 101.351 7.52246L101.691 7.4707V7.82715ZM61.4473 7.40234C64.3596 7.14239 66.831 8.7788 67.8574 11.5303C68.3225 12.7778 68.4327 14.0665 68.3652 15.3828L68.3506 15.7646H67.9385C64.825 15.7517 61.7101 15.761 58.5967 15.75H58.2305L58.2676 16.1074C58.4071 17.4809 58.808 18.7471 59.7383 19.7988C60.984 21.2059 62.578 21.7098 64.4062 21.4893C65.7995 21.3204 67.0019 20.7228 67.9795 19.7012L67.9805 19.6982C67.9913 19.6553 68.014 19.6175 68.0518 19.6064C68.1716 19.4499 68.1446 19.512 68.0869 19.9199C67.9111 21.1642 67.2269 22.1146 66.2461 22.8574C64.6995 24.0284 62.937 24.3288 61.0596 24.0176C57.6812 23.4576 55.4962 20.9375 54.9355 17.709C54.5645 15.5725 54.7162 13.4815 55.6719 11.5156C56.8404 9.11193 58.7457 7.64371 61.4473 7.40234ZM138.341 7.40234C141.253 7.14217 143.725 8.77865 144.751 11.5303C145.216 12.7778 145.326 14.0665 145.259 15.3828L145.244 15.7646H144.832C141.718 15.7517 138.604 15.761 135.49 15.75H135.124L135.161 16.1074C135.301 17.4809 135.702 18.7471 136.632 19.7988C137.878 21.2061 139.471 21.7099 141.3 21.4893C142.693 21.3205 143.895 20.7229 144.873 19.7012C145.073 19.4381 145.048 19.4445 144.98 19.9199C144.805 21.1643 144.121 22.1145 143.14 22.8574C141.593 24.0285 139.831 24.3289 137.953 24.0176C134.575 23.4576 132.39 20.9375 131.829 17.709C131.458 15.5725 131.61 13.4815 132.565 11.5156C133.734 9.11182 135.639 7.64372 138.341 7.40234ZM91.3809 3.33789C91.3848 4.67687 91.3951 6.01649 91.375 7.35547L91.3779 7.70215H95.3682V9.22363H91.3779V9.50781C91.3864 12.8128 91.3835 16.1178 91.3848 19.4229C91.3848 19.8121 91.4135 20.1989 91.5283 20.5752C91.7431 21.2764 92.2064 21.6483 92.9336 21.7139C93.7762 21.7897 94.5623 21.614 95.2998 21.2061C95.3932 21.1541 95.4875 21.1039 95.6387 21.0215L95.6377 21.0225C95.4301 22.0961 94.9039 22.8907 94.0146 23.3916C92.6644 24.1527 91.2475 24.1866 89.8525 23.5293C88.7309 23.0012 88.2366 21.9985 88.0264 20.8281C87.9401 20.3474 87.9316 19.8612 87.9316 19.376C87.9284 16.1033 87.9258 12.8303 87.9375 9.55762V9.20312H85.2578C86.0058 8.76845 86.7972 8.26744 87.5557 7.85156C87.9436 7.63941 88.2476 7.37013 88.502 7.00488C89.3649 5.76627 90.2533 4.54529 91.1318 3.31836C91.2254 3.21054 91.2992 3.12796 91.3809 3.02539V3.33789ZM40.2695 3.4082C43.5986 8.20225 46.9343 12.9924 50.2686 17.7832C50.2971 17.8241 50.3282 17.8631 50.4033 17.9648C50.4033 17.5517 50.4053 17.2123 50.4033 16.873C50.3813 13.3949 50.348 9.91667 50.3428 6.43848C50.3415 5.66509 50.0425 5.08929 49.4404 4.6416C48.6898 4.08302 47.831 3.73243 46.9805 3.36523C46.8669 3.31593 46.7539 3.26565 46.5645 3.18262H54.5752C53.918 3.53747 53.3473 3.87449 52.873 4.35449C52.2988 4.93649 52.0107 5.61416 52.0127 6.44336C52.0231 12.1483 52.016 17.8526 52.0264 23.5576V23.9248H50.2041L49.8701 23.4541C46.4093 18.4744 42.9331 13.5061 39.4619 8.53418C39.0609 7.95997 38.6077 7.33527 38.2061 6.75781V7.04297C38.2262 11.5477 38.2549 16.0529 38.2666 20.5576C38.2687 21.3496 38.5866 21.9466 39.2119 22.4033C39.9769 22.9626 40.8513 23.3039 41.7207 23.6543C41.7895 23.6822 41.8596 23.7082 42.0107 23.7666H34.1133C34.2481 23.683 34.3622 23.6068 34.4814 23.54C35.1945 23.1378 35.8442 22.6684 36.2666 21.9404C36.4775 21.5771 36.5928 21.1926 36.5928 20.7715C36.5921 15.8555 36.5899 10.9394 36.5938 6.02344C36.5937 5.26769 36.274 4.67405 35.7285 4.18164C35.2867 3.78201 34.769 3.49592 34.2441 3.1709H34.5098C36.2718 3.1709 38.0339 3.1751 39.7959 3.16602H40.0918L40.2695 3.4082ZM27.5547 17.8184C27.7974 17.5421 28.1214 17.0645 27.6318 17.9609C26.7721 19.7864 25.4715 21.2303 23.7607 22.2812C18.6857 25.3994 12.1671 23.7104 9.22656 18.5342C9.12086 18.3481 9.03738 18.1487 8.94336 17.9561C8.90119 17.873 8.53859 17.1442 9.01953 17.8184C10.9484 20.0637 13.4551 21.2268 16.335 21.6064C19.8438 22.0684 23.1167 21.4269 26.0156 19.291C26.591 18.8674 27.0844 18.3536 27.5547 17.8184ZM122.298 7.84473C124.26 6.84503 127.461 7.2729 128.586 10.5029C128.942 11.5261 129.071 12.5811 129.075 13.6543C129.083 15.988 129.13 18.3236 129.059 20.6553C129.015 22.0866 129.661 22.98 130.86 23.5918C130.954 23.6398 131.049 23.6882 131.204 23.7686H123.663C123.925 23.5992 124.161 23.4558 124.387 23.2988C125.159 22.761 125.636 22.0487 125.632 21.0801C125.62 18.2713 125.718 15.4601 125.578 12.6533C125.522 11.5219 125.127 10.5005 123.982 10.001C122.128 9.19254 120.085 10.274 119.691 12.251C119.609 12.6648 119.567 13.0829 119.567 13.5059C119.569 15.9154 119.601 18.3255 119.555 20.7344C119.529 22.0463 120.095 22.936 121.196 23.5537C121.305 23.6147 121.408 23.682 121.569 23.7793L113.996 23.7881C114.413 23.5506 114.784 23.3455 115.111 23.0898C115.794 22.5559 116.137 21.8752 116.135 20.9961C116.124 17.2895 116.129 13.5835 116.135 9.87695V9.64258L115.919 9.49512C115.337 9.14475 114.764 8.77839 114.189 8.41699C114.129 8.37877 114.073 8.33384 113.968 8.25684C114.851 8.13488 115.677 8.01881 116.504 7.90723C117.392 7.78722 118.281 7.68181 119.167 7.54688L119.438 7.51758V7.77148C119.428 8.96005 119.433 10.2493 119.433 11.4561C119.52 11.2685 119.535 11.2268 119.562 11.1543C120.09 9.73402 120.912 8.55065 122.298 7.84473ZM80.6406 10.9727C79.2385 8.97839 76.6237 9.01177 75.2852 11.0449C74.7236 11.8979 74.4707 12.8449 74.4629 13.8574C74.4525 15.1207 74.4512 16.3852 74.4629 17.6484C74.4727 18.7299 74.7558 19.7342 75.3916 20.623C76.4213 22.0619 78.1916 22.4336 79.6455 21.5098C80.3414 21.0673 80.8082 20.4234 81.1455 19.6865C81.7129 18.447 81.8824 17.1281 81.8779 15.5703C81.8812 15.2829 81.8637 14.7867 81.8008 14.293C81.649 13.1038 81.3419 11.9704 80.6406 10.9727ZM11.0645 16.3262C13.0641 18.4096 15.5298 19.1592 18.2432 19.1689C20.9513 19.1787 23.4199 18.448 25.4053 16.4697C24.7792 18.5057 22.283 21.044 18.791 21.2529C14.7503 21.4948 11.9163 18.7715 11.0645 16.3262ZM17.1426 3.1709C21.6311 2.68234 25.7153 4.96906 27.6729 9.04102C28.4625 10.6832 28.8225 12.4282 28.6045 14.2559C28.4131 15.857 27.6163 17.1565 26.4766 18.2549C25.5033 19.1931 24.3752 19.8997 23.0996 20.3604C22.3189 20.7278 22.8031 20.4402 23.0195 20.2832C24.3508 19.3172 25.3543 18.0907 25.9785 16.5635C27.5396 12.7451 25.9646 8.25975 22.3584 6.25293C17.3645 3.4748 11.1391 6.35901 10.1416 11.9795C9.57388 15.1808 10.641 17.8604 13.1357 19.96C13.2706 20.0735 13.4039 20.1906 13.5498 20.3164C14.2064 20.7769 13.4103 20.3577 13.3408 20.3281C11.4625 19.5314 9.85898 18.3982 8.79102 16.6113C8.41806 15.9866 8.15121 15.3203 8.01758 14.6016C8 14.5074 7.92681 13.8333 7.92676 13.4189C7.92676 13.3198 7.93605 12.6318 7.96973 12.3525C8.00324 12.0749 8.02805 11.796 8.02832 11.793C8.28266 10.3902 8.75303 9.06788 9.54395 7.87793C11.3548 5.15235 13.8765 3.52649 17.1426 3.1709ZM23.1777 15.125C23.2523 16.4498 20.9219 18.4131 18.9561 18.6514C16.0488 19.0037 13.9172 17.0412 13.3584 15.1377C16.064 17.2105 21.0405 16.9637 23.1777 15.125ZM17.3828 5.70898C21.39 5.21198 25.2115 8.01583 25.9492 11.9834C26.1976 13.321 26.1687 14.6005 25.3066 15.748C24.7376 16.5052 24.018 17.0777 23.1914 17.5234C22.7677 17.7518 22.4451 17.9006 21.8652 18.0879C21.7696 18.1467 21.0015 18.4978 21.7305 18.0322H21.7295C22.8597 17.1343 23.5866 15.9927 23.8916 14.5713C24.5547 11.4804 22.3194 8.26571 19.1865 7.83008C16.0345 7.39277 13.2779 9.30038 12.6777 12.4238C12.2879 14.4545 12.9137 16.2143 14.4072 17.6553C14.5604 17.8032 14.8296 18.0485 15.043 18.2744C14.4222 18.0727 13.7629 17.746 13.2646 17.46C12.1539 16.8222 11.2239 16.0082 10.7373 14.7852C10.3092 13.7088 10.4479 12.6118 10.7236 11.54C11.5386 8.37459 14.1453 6.11063 17.3828 5.70898ZM18.3711 8.2334C21.1856 8.29192 23.4443 10.537 23.5215 13.3535C23.5325 13.7467 23.4132 14.1007 23.166 14.4023C22.4335 15.2938 21.4119 15.6366 20.333 15.8799C20.9785 15.272 21.3612 14.548 21.4111 13.6611C21.4611 12.7763 21.2063 11.9925 20.5947 11.3516C19.4119 10.111 17.5777 9.97889 16.2988 11.041C15.5541 11.6593 15.1634 12.4624 15.1523 13.4395C15.1421 14.3987 15.5283 15.1871 16.1992 15.8652C15.1068 15.6174 14.0817 15.2657 13.3613 14.3477C12.9786 13.8598 13.0296 13.2959 13.1035 12.7354C13.4448 10.1576 15.7622 8.1789 18.3711 8.2334ZM64.2812 10.7246C63.5968 9.47787 62.3992 8.94704 61.0967 9.3418C60.1515 9.62854 59.5385 10.3094 59.0947 11.1611C58.5777 12.1538 58.3879 13.2297 58.2705 14.3281L58.2402 14.6465H58.6553C60.7765 14.5154 62.8457 14.3863 64.915 14.2656L65.1436 14.2549L65.1289 14.0469C65.0381 12.8903 64.8495 11.7586 64.2812 10.7246ZM141.175 10.7246C140.49 9.47773 139.293 8.94678 137.99 9.3418C137.045 9.62856 136.432 10.3093 135.988 11.1611C135.471 12.1538 135.282 13.2297 135.164 14.3281L135.134 14.6465H135.549C137.67 14.5154 139.739 14.3863 141.809 14.2656L142.037 14.2549L142.022 14.0469C141.932 12.8902 141.743 11.7587 141.175 10.7246Z" fill="white"/>
</svg>
