<svg width="144" height="32" viewBox="0 0 144 32" fill="none" xmlns="http://www.w3.org/2000/svg">
<g clip-path="url(#clip0_32214_59922)">
<path d="M35.0246 22.73V10.0952L41.5278 22.73H44.1291V7.86549H42.271V20.5932L35.7678 7.86549H33.1665V22.73H35.0246Z" fill="white"/>
<path d="M82.1265 7.86549H73.3936V22.73H82.2194V20.8719H75.3446V15.8552H81.662V14.1829H75.3446V9.53775H82.1265V7.86549Z" fill="white"/>
<path d="M89.6517 21.1507C87.3291 21.1507 86.493 20.5003 86.493 18.4565V12.139C86.493 10.0952 87.2362 9.44485 89.6517 9.44485C90.4878 9.44485 91.9742 9.53775 93.0891 9.72356L93.2749 8.0513C92.253 7.86549 90.6736 7.67969 89.5588 7.67969C85.9355 7.67969 84.542 9.25904 84.542 12.0461V18.5494C84.542 21.3365 85.9355 22.9158 89.5588 22.9158C90.6736 22.9158 92.253 22.8229 93.2749 22.5442L93.0891 20.8719C91.9742 21.0578 90.5807 21.1507 89.6517 21.1507Z" fill="white"/>
<path d="M122.725 7.86549V22.73H124.676V16.2268H131.087V14.4616H124.676V9.53775H131.551V7.86549H122.725Z" fill="white"/>
<path d="M133.223 9.53775H137.59V22.73H139.541V9.53775H144V7.86549H133.223V9.53775Z" fill="white"/>
<path fill-rule="evenodd" clip-rule="evenodd" d="M57.7859 18.3636C57.7859 20.779 56.2994 22.8229 52.4904 22.8229C48.6813 22.8229 47.1949 20.779 47.1949 18.3636V12.139C47.1949 9.72356 48.6813 7.67969 52.4904 7.67969C56.2994 7.67969 57.7859 9.72356 57.7859 12.139V18.3636ZM52.3975 21.1507C50.0749 21.1507 48.9601 20.2216 48.9601 18.3636V12.2319C48.9601 10.4668 50.0749 9.44485 52.3975 9.44485C54.7201 9.44485 55.8349 10.3739 55.8349 12.2319V18.3636C55.8349 20.1287 54.7201 21.1507 52.3975 21.1507Z" fill="white"/>
<path fill-rule="evenodd" clip-rule="evenodd" d="M65.8684 7.86549C69.4917 7.86549 70.6065 9.72356 70.6065 12.139V18.4565C70.6065 20.779 69.4917 22.73 65.8684 22.73H60.6659V7.86549H65.8684ZM65.8684 20.9648H62.6168V9.53775H65.8684C68.0981 9.53775 68.7484 10.4668 68.7484 12.2319V18.2707C68.7484 20.0358 68.0981 20.9648 65.8684 20.9648Z" fill="white"/>
<path fill-rule="evenodd" clip-rule="evenodd" d="M101.357 17.3416H97.7342V22.73H95.7833V7.86549H101.45C104.609 7.86549 105.724 9.25904 105.724 11.4887V13.6255C105.724 15.3907 105.074 16.5984 103.401 17.0629L107.21 22.6371H104.981L101.357 17.3416ZM97.7342 9.53775H101.45C103.216 9.53775 103.866 10.0952 103.866 11.5816V13.6255C103.866 15.019 103.308 15.5765 101.45 15.5765H97.7342V9.53775Z" fill="white"/>
<path fill-rule="evenodd" clip-rule="evenodd" d="M120.774 22.73H118.823L117.616 19.1997H111.298L110.09 22.73H108.139L113.156 7.86549H115.757L120.774 22.73ZM111.763 17.5274L114.457 9.25904L117.058 17.5274H111.763Z" fill="white"/>
<path d="M25.8271 7.86523V22.7305L12.9131 30.1621L0 22.7305V7.86523L12.9131 0.433594L25.8271 7.86523ZM9.94141 24.7734L12.9141 26.5391L15.7939 24.8672L12.9141 23.1016L9.94141 24.7734ZM9.75488 21.4297V24.4023L12.9141 22.6367L15.9795 24.4023V21.4297L12.9141 19.5713L9.75488 21.4297ZM3.4375 21.0576L6.31836 22.7295L12.9141 18.9209L19.5098 22.7295L22.3906 21.0576L12.9141 15.5762L3.4375 21.0576ZM9.75488 5.91406V13.5322L3.15918 17.3418V20.5928L12.6357 15.2051V4.24219L9.75488 5.91406ZM13.0996 15.2051L22.5762 20.5928V17.3418L16.0723 13.5322V5.91406L13.0996 4.24219V15.2051ZM6.59668 11.6748L3.4375 13.4395L6.03906 15.0186L9.19824 13.1611V9.63086L6.59668 8.05078V11.6748ZM16.6299 9.63086V13.1611L19.6963 15.0186L22.3906 13.4395L19.2314 11.6748V8.05078L16.6299 9.63086ZM3.15918 9.72363V13.0684L6.13184 11.3955V8.05078L3.15918 9.72363ZM19.6963 11.3955L22.5762 13.0684V9.72363L19.6963 8.05078V11.3955Z" fill="white"/>
</g>
<defs>
<clipPath id="clip0_32214_59922">
<rect width="144" height="32" fill="white"/>
</clipPath>
</defs>
</svg>
