<svg width="115" height="32" viewBox="0 0 115 32" fill="none" xmlns="http://www.w3.org/2000/svg">
<g clip-path="url(#clip0_32214_59394)">
<path d="M72.0368 7.90707V5.41211H63.1911C61.7033 5.41211 60.5024 6.61507 60.5024 8.10548V23.1518H63.308V15.745H71.0776V13.2485H63.308V7.91645H72.0368V7.90707Z" fill="white"/>
<path d="M85.6212 12.2768C85.8442 12.2627 86.0672 12.2658 86.3011 12.2877C86.337 12.2908 86.3744 12.2971 86.4103 12.3018L86.5273 12.3174C86.5834 12.3252 86.6396 12.3315 86.6941 12.3424C86.7503 12.3533 86.8049 12.3658 86.8579 12.3799L86.9593 12.4049C86.9983 12.4143 87.0372 12.4221 87.0747 12.433C87.1511 12.4549 87.2259 12.4814 87.3055 12.5096L87.346 12.5236C87.3772 12.5346 87.4084 12.5455 87.4396 12.5564C87.5223 12.5877 87.6018 12.6236 87.7047 12.6705L87.7921 12.7111C87.881 12.7548 87.9683 12.8017 88.0525 12.8517L88.1164 12.8892C88.21 12.9454 88.3005 13.0048 88.3987 13.0767L88.4143 13.0876C88.9399 13.4704 89.3781 13.9781 89.6853 14.5577L89.7883 14.753L91.3712 12.4033L91.3119 12.3268C91.1887 12.1721 91.0718 12.0331 90.9532 11.9034L90.8675 11.8081C90.8347 11.7706 90.802 11.7331 90.7661 11.6972C90.7365 11.6675 90.7068 11.6409 90.6756 11.6144C90.6554 11.5972 90.6351 11.58 90.6164 11.5612L90.5852 11.5331C90.3887 11.3503 90.1781 11.1754 89.9567 11.0113L89.8725 10.9488C89.7649 10.8723 89.6541 10.7973 89.5419 10.7286C89.5076 10.7067 89.4732 10.6879 89.4389 10.6676L89.3921 10.6395C89.2268 10.5426 89.0615 10.4536 88.9009 10.3739C88.8042 10.327 88.706 10.2802 88.6061 10.2364C88.5905 10.2302 88.575 10.2224 88.5594 10.2146C88.536 10.2036 88.5126 10.1911 88.4876 10.1818C88.4627 10.1724 88.4377 10.163 88.4128 10.1552C88.3956 10.1489 88.3784 10.1443 88.3629 10.138C88.2443 10.0927 88.1242 10.0505 88.0026 10.0115L87.9371 9.98959C87.8997 9.9771 87.8607 9.9646 87.8233 9.9521C87.6548 9.90211 87.477 9.85992 87.2837 9.8193C87.24 9.80993 87.1963 9.80212 87.1511 9.79587L87.0965 9.7865C86.9577 9.7615 86.8174 9.74119 86.677 9.72557L86.6364 9.72088C86.5881 9.71619 86.5413 9.70995 86.493 9.70526C86.0891 9.67089 85.7865 9.66933 85.459 9.6912C83.4269 9.82087 81.4962 10.9629 80.2969 12.7439L76.1423 18.9118V5.41211H73.5566V23.1518H76.4059L82.4382 14.1937C83.193 13.072 84.3829 12.3565 85.6212 12.2768Z" fill="white"/>
<path d="M115.228 9.91016H112.372L109.395 18.9058L106.471 10.1429L106.393 9.91016H104.1L104.022 10.1429L101.075 18.9058L98.1991 10.1429L98.1227 9.91016H95.3982L95.3467 9.98671L89.3581 18.8792C88.6033 20.0009 87.4134 20.718 86.1751 20.7961C86.0846 20.8024 85.9957 20.8055 85.9037 20.8055C85.7727 20.7977 85.6324 20.7993 85.4936 20.7868C85.4608 20.7836 85.4281 20.7789 85.3969 20.7743L85.2877 20.7586C85.2253 20.7508 85.163 20.743 85.1006 20.7305C85.0491 20.7211 84.9992 20.7086 84.9477 20.6961L84.8417 20.6712C84.7996 20.6618 84.759 20.6524 84.7169 20.6399C84.6436 20.6196 84.5734 20.5946 84.4924 20.5649L84.4502 20.5509C84.4175 20.5399 84.3832 20.529 84.3504 20.5149C84.2693 20.4837 84.1914 20.4493 84.1134 20.4134L84.0838 20.3993C84.0557 20.3868 84.0261 20.3728 83.998 20.3603C83.9122 20.3165 83.8264 20.2712 83.7422 20.2212L83.672 20.179C83.5816 20.1228 83.4927 20.065 83.4054 20.0041L83.3726 19.9806C82.8486 19.5979 82.4119 19.0901 82.1063 18.5136L82.0033 18.3184L80.4204 20.668L80.4797 20.7446C80.6013 20.8977 80.7183 21.0352 80.8384 21.168L80.9241 21.2633C80.9569 21.3008 80.9896 21.3382 81.0255 21.3742C81.0551 21.4039 81.0863 21.4304 81.1175 21.4585C81.1378 21.4757 81.1581 21.4945 81.1768 21.5117L81.1986 21.532C81.3967 21.7163 81.6088 21.8929 81.8302 22.0569L81.9207 22.1241C82.0283 22.2006 82.1359 22.2725 82.2466 22.3428C82.2809 22.3647 82.3168 22.385 82.3527 22.4068L82.4041 22.4365C82.5663 22.5318 82.7285 22.6193 82.8876 22.6974C82.9858 22.7459 83.0841 22.7927 83.1839 22.8349C83.1995 22.8412 83.2151 22.849 83.2307 22.8568C83.2541 22.8693 83.279 22.8802 83.3024 22.8896C83.3274 22.9005 83.3539 22.9083 83.3788 22.9177L83.4287 22.9349C83.5473 22.9802 83.6674 23.0224 83.789 23.0614L83.8545 23.0833C83.8919 23.0958 83.9294 23.1083 83.9668 23.1192C84.1337 23.1677 84.3115 23.2114 84.508 23.252C84.5516 23.2614 84.5953 23.2677 84.6405 23.2755L84.692 23.2849C84.8323 23.3098 84.9742 23.3302 85.1162 23.3458L85.1536 23.3505C85.2004 23.3552 85.2487 23.3614 85.2955 23.3661C85.5201 23.3848 85.7088 23.3942 85.8913 23.3942C86.0379 23.3942 86.1845 23.3895 86.331 23.3801C88.3631 23.2505 90.2923 22.1085 91.4931 20.3275L96.3557 13.1066L99.1566 21.2664L99.8054 23.1552H102.167L102.209 23.0255L102.588 21.8835L102.597 21.8569L105.251 13.858L107.956 22.071L108.313 23.1552H110.649L110.694 23.0255H110.696L110.976 22.2116L114.019 13.3909L114.036 13.3394L115.139 10.1429L115.22 9.91016H115.228Z" fill="white"/>
<path d="M12.4357 19.926C13.398 19.3402 14.1528 18.5481 14.7017 17.5482C15.2507 16.5484 15.5283 15.422 15.5283 14.18C15.5283 12.938 15.2491 11.7928 14.7017 10.8023C14.1528 9.81183 13.398 9.01819 12.4451 8.43389C11.4922 7.84804 10.3943 7.56058 9.15446 7.56058C7.91463 7.56058 6.84323 7.84804 5.89036 8.43389C4.93748 9.01975 4.18267 9.80245 3.63371 10.8023C3.08476 11.8022 2.81496 12.9286 2.81496 14.18C2.81496 15.4314 3.08476 16.5484 3.63371 17.5482C4.18267 18.5481 4.93748 19.3402 5.89036 19.926C6.84323 20.5119 7.93179 20.7994 9.15446 20.7994C10.3771 20.7994 11.475 20.5103 12.4357 19.926ZM5.55662 22.7007C4.44155 22.2507 3.46996 21.6024 2.64341 20.7728C1.81686 19.9448 1.16809 18.9715 0.70179 17.8451C0.23393 16.7187 0 15.5032 0 14.1784C0 12.8536 0.23393 11.6381 0.70179 10.5117C1.16965 9.38532 1.81686 8.4214 2.64341 7.59339C3.46996 6.77319 4.44155 6.13422 5.55662 5.68428C6.67169 5.23434 7.86785 5 9.1529 5C10.438 5 11.6435 5.22497 12.7492 5.68428C13.8643 6.13422 14.8358 6.78256 15.6718 7.61213C16.5077 8.44014 17.1549 9.41345 17.6134 10.5305C18.0719 11.6475 18.3058 12.863 18.3058 14.1878C18.3058 15.5126 18.0719 16.728 17.604 17.8451C17.1362 18.9621 16.4889 19.9354 15.6624 20.7634C14.8358 21.5914 13.8643 22.2413 12.7492 22.7007C11.6341 23.16 10.438 23.3943 9.1529 23.3943C7.87564 23.3756 6.67169 23.1506 5.55662 22.7007Z" fill="white"/>
<path d="M29.1134 20.32C29.6982 19.9513 30.1661 19.4467 30.5076 18.8062C30.8491 18.1578 31.0207 17.4376 31.0207 16.6174C31.0207 15.7972 30.8491 15.077 30.5076 14.4458C30.1661 13.8069 29.6982 13.3101 29.1134 12.9414C28.5286 12.5727 27.8455 12.3914 27.0907 12.3914C26.3358 12.3914 25.6699 12.5711 25.0757 12.9414C24.4816 13.3101 24.0153 13.8069 23.6737 14.4458C23.3322 15.0848 23.1606 15.8066 23.1606 16.6174C23.1606 17.4282 23.3322 18.1578 23.6737 18.8062C24.0153 19.4545 24.4831 19.9591 25.0757 20.32C25.6699 20.6887 26.3436 20.8699 27.0907 20.8699C27.8455 20.8699 28.5208 20.6903 29.1134 20.32ZM20.4548 10.1683H23.0265V11.79C23.5037 11.1869 24.1151 10.7182 24.8512 10.3855C25.5888 10.0527 26.4247 9.88086 27.3417 9.88086C28.5644 9.88086 29.6701 10.1777 30.6417 10.7635C31.6211 11.3494 32.3868 12.1602 32.9529 13.1773C33.5191 14.1959 33.7982 15.3395 33.7982 16.619C33.7982 17.8985 33.5191 19.0421 32.9529 20.0607C32.3868 21.0793 31.6227 21.8886 30.6511 22.4838C29.6795 23.079 28.5738 23.3758 27.3324 23.3758C26.4778 23.3758 25.6777 23.2227 24.9494 22.9072C24.2211 22.601 23.6098 22.151 23.1326 21.5823V25.1678C23.1326 26.6629 21.927 27.8705 20.4346 27.8705V10.1699H20.4533L20.4548 10.1683Z" fill="white"/>
<path d="M37.9333 22.7217C37.205 22.2796 36.6295 21.6671 36.2256 20.8844C35.8217 20.1002 35.6143 19.1816 35.6143 18.1458V10.1641H38.3122V17.902C38.3122 18.7941 38.582 19.5143 39.1123 20.0549C39.6425 20.5954 40.3256 20.8657 41.1537 20.8657C41.9818 20.8657 42.6914 20.586 43.231 20.0283C43.7706 19.4706 44.0404 18.7222 44.0404 17.7849V10.1641H46.7103V23.0904H44.1574V21.4875C43.7893 22.0905 43.2934 22.5592 42.6556 22.8842C42.0177 23.2091 41.2972 23.37 40.4878 23.37C39.5162 23.37 38.6631 23.1544 37.9348 22.7217" fill="white"/>
<path d="M50.3435 22.4025C49.3454 21.7542 48.653 20.8715 48.2568 19.7717L50.3341 18.789C50.685 19.5186 51.1607 20.1044 51.7736 20.5372C52.3849 20.9699 53.068 21.1855 53.815 21.1855C54.4529 21.1855 54.9659 21.0418 55.3621 20.7528C55.7582 20.4638 55.9563 20.0779 55.9563 19.5811C55.9563 19.1218 55.7769 18.7702 55.4073 18.5453C55.0392 18.3109 54.6525 18.1406 54.2376 18.0313L52.2149 17.4548C51.0999 17.1392 50.2733 16.6627 49.7244 16.0222C49.1754 15.3832 48.8978 14.6255 48.8978 13.7522C48.8978 12.9679 49.0959 12.293 49.492 11.7259C49.8881 11.1494 50.4355 10.6995 51.1373 10.3745C51.8391 10.0496 52.6204 9.88867 53.5015 9.88867C54.679 9.88867 55.7317 10.1761 56.6487 10.762C57.575 11.3478 58.2223 12.1493 58.5997 13.1851L56.5224 14.1662C56.2713 13.5444 55.8658 13.0492 55.3168 12.6883C54.7679 12.3196 54.1472 12.1384 53.4641 12.1384C52.8793 12.1384 52.4036 12.2727 52.0621 12.543C51.7112 12.8133 51.5412 13.182 51.5412 13.6413C51.5412 14.1006 51.7128 14.4255 52.0621 14.6411C52.413 14.8661 52.781 15.038 53.1865 15.1629L55.281 15.7847C56.3415 16.0909 57.1696 16.5596 57.7357 17.208C58.3111 17.8563 58.5903 18.6218 58.5903 19.5139C58.5903 20.2794 58.3922 20.9543 57.9961 21.5324C57.6 22.1182 57.0339 22.5681 56.3149 22.8931C55.596 23.2181 54.7507 23.379 53.7979 23.379C52.4941 23.3696 51.3338 23.0462 50.3451 22.3979" fill="white"/>
</g>
<defs>
<clipPath id="clip0_32214_59394">
<rect width="115" height="32" fill="white"/>
</clipPath>
</defs>
</svg>
