<svg width="149" height="32" viewBox="0 0 149 32" fill="none" xmlns="http://www.w3.org/2000/svg">
<path fill-rule="evenodd" clip-rule="evenodd" d="M28.5863 13.0336C28.2385 12.9801 27.8907 12.9538 27.5697 12.9538C25.1621 12.9538 24.0653 14.3458 24.0653 16.7828V22.9946H20.9632V9.95449H23.9856V12.0433C24.6008 10.624 26.0449 9.79381 27.757 9.79381C28.1315 9.79381 28.4525 9.84737 28.5863 9.87415V13.0336Z" fill="white"/>
<path fill-rule="evenodd" clip-rule="evenodd" d="M40.4873 16.4604C40.4873 13.7561 38.7752 12.3641 36.8496 12.3641C34.9502 12.3641 33.2114 13.7561 33.2114 16.4604C33.2114 19.1651 34.9502 20.6112 36.8496 20.6112C38.7752 20.6112 40.4873 19.1924 40.4873 16.4604ZM43.6167 16.4604C43.6167 20.4773 40.7548 23.3958 36.8496 23.3958C32.9706 23.3958 30.1088 20.4773 30.1088 16.4604C30.1088 12.4707 32.9706 9.55226 36.8496 9.55226C40.7548 9.55226 43.6167 12.4707 43.6167 16.4604Z" fill="white"/>
<path fill-rule="evenodd" clip-rule="evenodd" d="M53.249 12.4179C51.2164 12.4179 49.7451 14.0242 49.7451 16.4606C49.7451 18.9511 51.2164 20.5579 53.249 20.5579C55.3089 20.5579 56.7534 18.9511 56.7534 16.4606C56.7534 14.0242 55.3356 12.4179 53.249 12.4179ZM46.6959 28.082V9.95419H49.6916V11.7216C50.3336 10.5969 51.8317 9.65961 53.8375 9.65961C57.6892 9.65961 59.8561 12.6054 59.8561 16.4606C59.8561 20.3704 57.4752 23.3157 53.7305 23.3157C51.8579 23.3157 50.4406 22.5123 49.7718 21.522V28.082H46.6959Z" fill="white"/>
<path fill-rule="evenodd" clip-rule="evenodd" d="M72.2908 16.4604C72.2908 13.7561 70.5787 12.3641 68.6531 12.3641C66.7538 12.3641 65.0155 13.7561 65.0155 16.4604C65.0155 19.1651 66.7538 20.6112 68.6531 20.6112C70.5787 20.6112 72.2908 19.1924 72.2908 16.4604ZM75.4202 16.4604C75.4202 20.4773 72.5583 23.3958 68.6531 23.3958C64.7747 23.3958 61.9128 20.4773 61.9128 16.4604C61.9128 12.4707 64.7747 9.55226 68.6531 9.55226C72.5583 9.55226 75.4202 12.4707 75.4202 16.4604Z" fill="white"/>
<path fill-rule="evenodd" clip-rule="evenodd" d="M98.0532 17.5856V16.9965L94.6558 17.5053C93.6933 17.6655 92.9175 18.2016 92.9175 19.2722C92.9175 20.156 93.5863 20.9594 94.8168 20.9594C96.5552 20.9594 98.0532 20.1292 98.0532 17.5856ZM93.7463 15.5236L97.0897 15.0148C97.8392 14.9077 98.0532 14.5328 98.0532 14.0775C98.0532 12.9795 97.3042 12.0963 95.5926 12.0963C93.9603 12.0963 93.0507 13.1407 92.9175 14.4524L90.0823 13.8097C90.3226 11.5607 92.3557 9.55226 95.5654 9.55226C99.5776 9.55226 101.102 11.8285 101.102 14.4256V20.9058C101.102 22.0836 101.236 22.8607 101.263 22.9941H98.3737C98.3475 22.9138 98.2405 22.3782 98.2405 21.3343C97.6252 22.3251 96.3411 23.3958 94.2283 23.3958C91.4997 23.3958 89.8143 21.5217 89.8143 19.4597C89.8143 17.1304 91.5264 15.845 93.7463 15.5236Z" fill="white"/>
<path fill-rule="evenodd" clip-rule="evenodd" d="M104.93 22.995H108.033V4.91573H104.93V22.995Z" fill="white"/>
<path fill-rule="evenodd" clip-rule="evenodd" d="M120.684 15.0416C120.63 13.5151 119.614 12.1499 117.474 12.1499C115.522 12.1499 114.398 13.6495 114.291 15.0416H120.684ZM123.653 19.2722C122.958 21.5485 120.898 23.3958 117.768 23.3958C114.238 23.3958 111.108 20.8255 111.108 16.4068C111.108 12.2833 114.158 9.55226 117.447 9.55226C121.46 9.55226 123.814 12.2034 123.814 16.327C123.814 16.8358 123.76 17.2638 123.734 17.3178H114.211C114.291 19.2995 115.843 20.7183 117.768 20.7183C119.641 20.7183 120.604 19.7275 121.032 18.4421L123.653 19.2722Z" fill="white"/>
<path fill-rule="evenodd" clip-rule="evenodd" d="M12.3919 4.52466L11.0775 4.5191L11.0649 7.41787L11.9694 7.4214C13.6341 7.42898 14.6435 8.37536 14.637 9.89725C14.6304 11.3706 13.6129 12.3322 11.9477 12.3246L11.0437 12.3211L11.0311 15.1951L12.3454 15.2012C15.7232 15.2158 17.9774 13.0032 17.991 9.88765C18.0041 6.79587 15.7701 4.53982 12.3919 4.52466Z" fill="white"/>
<path fill-rule="evenodd" clip-rule="evenodd" d="M5.16571 4.50195L5.1319 12.3039L5.10212 12.3034L5.0895 15.1779H5.09505L5.07385 20.0811H5.06779L5.05518 22.9799L8.41474 22.9945L8.4955 4.51661L5.16571 4.50195Z" fill="white"/>
<path fill-rule="evenodd" clip-rule="evenodd" d="M134.151 4.91573L134.148 7.81803C135.177 7.87462 136.243 8.79018 136.249 10.2166L139.603 10.2257C139.59 7.16976 137.421 4.98445 134.151 4.91573Z" fill="white"/>
<path fill-rule="evenodd" clip-rule="evenodd" d="M129.364 10.2905C129.357 8.91315 130.184 8.0077 131.574 7.84247L131.572 4.91946C128.215 4.95028 125.996 7.20027 126.01 10.2809C126.023 13.3737 128.244 15.5752 131.581 15.5934L131.578 12.6921C130.196 12.5299 129.37 11.6184 129.364 10.2905Z" fill="white"/>
<path fill-rule="evenodd" clip-rule="evenodd" d="M131.57 23.3962L131.572 20.4939C130.543 20.4373 129.477 19.5217 129.471 18.0953L126.117 18.0857C126.13 21.1421 128.299 23.3275 131.57 23.3962Z" fill="white"/>
<path fill-rule="evenodd" clip-rule="evenodd" d="M136.364 18.0207C136.371 19.3976 135.545 20.3035 134.154 20.4688L134.156 23.3918C137.514 23.3609 139.732 21.111 139.719 18.0303C139.705 14.9375 137.484 12.736 134.148 12.7178L134.15 15.6191C135.532 15.7813 136.359 16.6928 136.364 18.0207Z" fill="white"/>
<path fill-rule="evenodd" clip-rule="evenodd" d="M82.3936 23.3958C79.2173 23.3958 77.4451 21.4823 77.4335 18.8877L80.2808 18.8963C80.2863 20.1064 81.3665 20.9321 82.435 20.9321L82.702 20.9326C83.9861 20.9326 84.6544 20.2363 84.6544 19.4329C84.6544 18.7366 84.1728 18.2016 83.1295 17.9873L81.2039 17.5583C78.9033 17.05 77.7 15.5504 77.7 13.7561C77.7 11.4804 79.7861 9.55226 82.488 9.55226H82.9927C85.7224 9.60986 87.5329 11.4339 87.544 13.9845L84.7447 13.9764C84.7391 12.786 83.8119 12.0225 82.6949 11.9847L82.488 11.9892C81.3912 11.9892 80.6154 12.685 80.6154 13.4884C80.6154 14.1846 81.1237 14.6934 81.9262 14.8541L83.9058 15.2558C86.3664 15.7914 87.65 17.2911 87.65 19.2187C87.65 21.1999 86.0454 23.3958 82.7283 23.3958H82.3936Z" fill="white"/>
<path fill-rule="evenodd" clip-rule="evenodd" d="M143.018 21.4831C143.179 21.4831 143.272 21.3983 143.272 21.2608C143.272 21.1193 143.179 21.0345 143.018 21.0345H142.82V21.4831H143.018ZM142.937 21.7782H142.82V22.3598H142.473V20.7394H143.074C143.389 20.7394 143.627 20.9698 143.627 21.2568C143.627 21.4791 143.494 21.657 143.296 21.7333L143.639 22.3598H143.244L142.937 21.7782ZM142.99 22.7478C143.631 22.7478 144.135 22.2304 144.135 21.5594C144.135 20.8935 143.631 20.3761 142.99 20.3761C142.344 20.3761 141.843 20.8935 141.843 21.5594C141.843 22.2304 142.344 22.7478 142.99 22.7478ZM142.99 20.0689C143.809 20.0689 144.474 20.7394 144.474 21.5594C144.474 22.384 143.809 23.0545 142.99 23.0545C142.17 23.0545 141.512 22.384 141.512 21.5594C141.512 20.7394 142.17 20.0689 142.99 20.0689Z" fill="white"/>
</svg>
