<svg width="156" height="42" viewBox="0 0 156 42" fill="none" xmlns="http://www.w3.org/2000/svg">
<path fill-rule="evenodd" clip-rule="evenodd" d="M24.8842 1.44922C24.8842 1.42445 25.1242 1.45796 25.227 1.49512C25.3034 1.51952 25.3814 1.53903 25.4604 1.55371C25.5477 1.56932 25.7001 1.60413 25.8031 1.62891C26.292 1.74687 27.1117 1.98757 27.308 2.06836C27.3638 2.09307 27.435 2.1122 27.4633 2.11231C27.4942 2.11231 27.5317 2.12444 27.5473 2.13965C27.5659 2.15526 27.6287 2.18361 27.6879 2.19922C27.7469 2.21782 27.8749 2.26069 27.9682 2.29785C28.0449 2.32881 28.1227 2.35705 28.2016 2.38184C28.2545 2.39743 28.307 2.41595 28.3578 2.4375C28.4105 2.45929 28.4852 2.49316 28.5287 2.50879C28.7633 2.60672 28.9973 2.7071 29.2299 2.80957C29.3829 2.87811 29.9398 3.14185 30.0082 3.17578C30.122 3.23565 30.2363 3.29448 30.351 3.35254C30.577 3.47124 30.8007 3.5946 31.0209 3.72364C31.0458 3.73924 31.1234 3.78316 31.1918 3.82032C31.2605 3.85427 31.376 3.92602 31.4506 3.97559C31.5254 4.02532 31.5879 4.06543 31.5942 4.06543C31.6063 4.06936 31.819 4.20408 32.0678 4.36914C32.5816 4.70723 33.4635 5.36093 33.8246 5.6709C33.9522 5.77897 34.1073 5.91216 34.1664 5.96192C34.562 6.29673 35.8053 7.52783 36.0824 7.85645C36.1016 7.87858 36.2194 8.02116 36.3471 8.17285C36.4747 8.32774 36.6591 8.54778 36.7524 8.66895C36.8458 8.78656 36.9332 8.89842 36.9487 8.91699C37.1392 9.15954 37.805 10.1073 37.9203 10.3027C37.9363 10.3343 38.058 10.5292 38.1821 10.7363C38.3099 10.9471 38.4345 11.1517 38.4594 11.1953C38.7088 11.6478 38.9447 12.1076 39.1664 12.5742C39.3035 12.8748 39.3407 12.9563 39.4496 13.2041C39.4745 13.2661 39.5186 13.3588 39.5434 13.4053C39.5682 13.4548 39.5863 13.5078 39.5863 13.5264C39.5866 13.5424 39.6056 13.6008 39.6303 13.6533C39.6522 13.709 39.6957 13.8141 39.727 13.8916C39.7559 13.9699 39.7875 14.0475 39.8207 14.124C39.8462 14.1861 39.8654 14.2508 39.8793 14.3164C39.8918 14.3722 39.9174 14.4254 39.933 14.4346C39.9485 14.4472 39.9604 14.4817 39.9604 14.5186C39.9605 14.5529 39.9799 14.6232 40.0014 14.6758C40.0544 14.7965 40.2321 15.3579 40.2602 15.4883C40.2704 15.5306 40.2836 15.5721 40.3002 15.6123C40.3192 15.6406 40.3596 15.8114 40.4281 16.124C40.4449 16.197 40.4641 16.2695 40.4867 16.3408C40.5116 16.4152 40.5681 16.6633 40.6615 17.1309C40.8334 17.9847 40.9437 18.8502 40.9916 19.7197C41.0322 20.3923 41.0071 22.6399 40.9604 22.8662C40.9417 22.95 40.9135 23.1668 40.8979 23.3467C40.87 23.6691 40.8416 23.8548 40.7543 24.3691C40.7294 24.5151 40.7052 24.6735 40.6957 24.7266C40.6865 24.7762 40.6646 24.888 40.6459 24.9746C40.6272 25.0585 40.59 25.2347 40.5619 25.3613C40.5371 25.4885 40.496 25.6623 40.4711 25.7461C40.4463 25.8266 40.4282 25.9163 40.4281 25.9414C40.4281 25.9692 40.4065 26.0595 40.3783 26.1494C40.3505 26.236 40.3094 26.3687 40.2875 26.4463C40.2035 26.7467 40.1383 26.964 40.101 27.0664C40.0791 27.1253 40.0445 27.2242 40.0258 27.2832C40.0039 27.3419 39.9758 27.4326 39.9604 27.4854C39.9446 27.5351 39.9049 27.6563 39.8676 27.749C39.8303 27.8419 39.7895 27.9537 39.7738 27.9971C39.7614 28.0405 39.7358 28.1081 39.7172 28.1514C39.7018 28.1947 39.6613 28.2907 39.6332 28.3682C39.6021 28.4455 39.5614 28.5488 39.5365 28.6016C39.5146 28.6513 39.4745 28.7505 39.4467 28.8184C39.2847 29.209 38.8115 30.1848 38.603 30.5537C38.547 30.6555 38.4879 30.7607 38.475 30.7861C38.4626 30.8109 38.4001 30.9228 38.3315 31.0313C38.2663 31.1428 38.2006 31.2545 38.1879 31.2793C38.1415 31.3907 37.1943 32.8098 37.1293 32.8633C37.1201 32.8727 37.0694 32.9347 37.0229 33.0059C36.9761 33.0742 36.9143 33.1582 36.8832 33.1924C36.8553 33.2267 36.7175 33.3911 36.5805 33.5615C35.8641 34.4445 34.9954 35.3401 34.058 36.1553C33.8933 36.2978 32.9858 37.0183 32.8901 37.0791C32.853 37.1024 32.8171 37.129 32.7836 37.1572C32.6828 37.2418 31.8525 37.7984 31.5815 37.9629C31.4701 38.0275 31.3766 38.0953 31.3696 38.1084C31.3634 38.1204 31.3451 38.1326 31.3266 38.1328C31.3077 38.1328 31.1921 38.1923 31.0707 38.2666C30.9498 38.3409 30.8287 38.4091 30.8031 38.4219C30.7783 38.4343 30.6589 38.4993 30.5375 38.5645C30.1796 38.7567 29.8161 38.939 29.4477 39.1104C29.1458 39.2465 29.0647 39.2833 28.8158 39.3916C28.7536 39.4164 28.6595 39.4606 28.6127 39.4854C28.5632 39.51 28.5103 39.5283 28.4916 39.5283C28.476 39.5283 28.4166 39.5466 28.3637 39.5713C28.3077 39.5931 28.2016 39.637 28.1235 39.668C28.0456 39.696 27.94 39.7392 27.8901 39.7607C27.8371 39.7825 27.7496 39.8102 27.6967 39.8193C27.6411 39.8317 27.5883 39.8565 27.5785 39.8721C27.5661 39.8874 27.5321 39.9004 27.4946 39.9004C27.4605 39.9004 27.3892 39.9187 27.3363 39.9404C27.1701 40.0064 26.9986 40.0602 26.8246 40.1016C26.7687 40.114 26.7157 40.1358 26.7065 40.1514C26.694 40.1667 26.6568 40.1797 26.6196 40.1797C26.5822 40.1797 26.4884 40.1979 26.4106 40.2227C26.283 40.263 26.1951 40.2882 25.7094 40.4121C25.563 40.4493 25.3138 40.5055 24.9154 40.5859C24.6112 40.6475 24.3044 40.6977 23.9965 40.7373C23.8658 40.7517 23.7356 40.7729 23.6069 40.7998C23.5289 40.8152 23.3142 40.8428 23.1244 40.8613C22.6981 40.8985 21.2737 40.9667 21.2524 40.9482C21.2461 40.9391 21.237 40.4459 21.2338 39.8506L21.2309 38.7686L21.7729 38.7314C22.8069 38.6633 23.2028 38.6296 23.2807 38.5986C23.3276 38.5801 23.4237 38.5674 23.5014 38.5674C23.5789 38.5674 23.7349 38.5492 23.85 38.5244C23.9651 38.4994 24.1492 38.4652 24.2612 38.4434C24.3731 38.4248 24.5636 38.3871 24.6821 38.3623C24.8034 38.3375 24.9655 38.3034 25.0463 38.2881C25.1274 38.2725 25.221 38.2481 25.2553 38.2295C25.2896 38.2109 25.3488 38.1953 25.3891 38.1953C25.4297 38.1953 25.5232 38.1764 25.601 38.1514C25.9337 38.0495 26.0583 38.0128 26.1518 37.9941C26.2078 37.9818 26.2615 37.9597 26.2709 37.9443C26.2835 37.9288 26.3242 37.916 26.3676 37.916C26.4111 37.9159 26.4759 37.9004 26.5131 37.8789C26.5506 37.8603 26.6222 37.8327 26.6752 37.8203C26.8092 37.7864 27.0394 37.7052 27.102 37.668C27.1295 37.6512 27.1608 37.6414 27.1928 37.6377C27.2116 37.6376 27.2708 37.6185 27.3237 37.5938C27.3797 37.5722 27.5008 37.5225 27.5942 37.4854C27.8353 37.3906 28.0744 37.2902 28.311 37.1846C28.5571 37.076 29.4684 36.6176 29.6186 36.5244C29.6778 36.4902 29.7499 36.4496 29.7748 36.4404C29.8502 36.4058 30.3448 36.1112 30.3666 36.0879C30.3847 36.0699 30.4059 36.0546 30.4291 36.0439C30.5974 35.9633 31.1359 35.5972 31.6528 35.21C33.0128 34.1939 34.2221 32.9916 35.2446 31.6387C35.559 31.2233 35.8799 30.7646 36.0199 30.5352C36.0387 30.504 36.1451 30.3305 36.2572 30.1445C36.3691 29.9618 36.4724 29.7884 36.4848 29.7637C36.4941 29.7385 36.5464 29.6452 36.5961 29.5615C36.6837 29.4184 37.1692 28.4488 37.269 28.2227C37.3249 28.0927 37.3967 27.9317 37.4496 27.8047C37.4745 27.7491 37.5091 27.6684 37.5278 27.625C37.6115 27.4243 37.7784 26.9832 37.7797 26.9522C37.7797 26.9336 37.8017 26.8774 37.8266 26.8311C37.8515 26.7812 37.8735 26.7192 37.8735 26.6914C37.8736 26.6633 37.8955 26.598 37.9203 26.5518C37.9451 26.5023 37.9671 26.4344 37.9672 26.4004C37.9704 26.3662 37.9892 26.3041 38.0141 26.2607C38.04 26.2117 38.0551 26.1578 38.06 26.1025C38.06 26.0593 38.0727 26.0129 38.0883 25.9941C38.1037 25.9788 38.1322 25.9043 38.1479 25.8272C38.1852 25.669 38.2351 25.4822 38.2944 25.2529C38.3294 25.1198 38.36 24.9855 38.3871 24.8506C38.415 24.714 38.4528 24.5521 38.4682 24.4932C38.4807 24.4308 38.5091 24.2919 38.5278 24.1836C38.5434 24.0721 38.5717 23.9204 38.5873 23.8428C38.6065 23.7489 38.6179 23.6534 38.6215 23.5576C38.6215 23.4771 38.6341 23.3774 38.6528 23.334C38.6685 23.2896 38.6996 23.0608 38.7182 22.8291C38.7368 22.5934 38.7643 22.2675 38.7768 22.1064C38.8108 21.6966 38.8109 20.299 38.7768 19.9053C38.7611 19.7255 38.7336 19.3967 38.7182 19.1738C38.6996 18.9513 38.6714 18.7288 38.6528 18.6846C38.6371 18.6383 38.6215 18.5358 38.6215 18.4551C38.6183 18.3746 38.606 18.2473 38.5873 18.1699C38.5717 18.0924 38.5434 17.9399 38.5278 17.8281C38.5091 17.7199 38.4806 17.5804 38.4682 17.5186C38.4527 17.4593 38.4149 17.2982 38.3871 17.1621C38.3731 17.0939 38.3558 17.0155 38.3383 16.9443L38.2602 16.6514C38.2523 16.6165 38.2475 16.5886 38.2475 16.5762C38.2474 16.5512 38.2254 16.4615 38.2006 16.3809C38.1755 16.3003 38.132 16.1544 38.1039 16.0615C37.9888 15.6712 37.9579 15.5746 37.9174 15.4785C37.8926 15.4229 37.8735 15.3552 37.8735 15.3242C37.8735 15.2962 37.8554 15.2338 37.8305 15.1875C37.8054 15.1409 37.7775 15.0635 37.7651 15.0107C37.7526 14.9582 37.73 14.9088 37.7143 14.8994C37.6989 14.887 37.6869 14.859 37.6869 14.8311C37.6869 14.8062 37.6681 14.741 37.643 14.6885C37.6213 14.6327 37.5709 14.5118 37.5336 14.4189C37.4653 14.2483 37.437 14.1826 37.353 13.9844C37.2504 13.7494 37.2159 13.6713 36.9731 13.1787C36.836 12.8967 36.6739 12.5838 36.6117 12.4814C36.5525 12.3793 36.4907 12.2674 36.475 12.2334C36.4439 12.162 36.1288 11.6411 36.0385 11.5107C36.007 11.4638 35.8796 11.2723 35.7553 11.0869C35.4065 10.566 34.781 9.75631 34.4008 9.33496C34.3448 9.27598 34.232 9.14885 34.1479 9.05567C33.905 8.78626 33.1769 8.06777 32.9057 7.83203C32.7687 7.71119 32.6284 7.58973 32.5942 7.55567C32.5598 7.5247 32.4352 7.41911 32.3139 7.32324C32.1959 7.22747 32.0777 7.13169 32.0522 7.10938C31.8903 6.95458 30.58 6.03494 30.3979 5.94727C30.3451 5.91926 30.2858 5.88457 30.102 5.7666C30.0336 5.72325 29.9552 5.67739 29.9301 5.66797C29.9051 5.6555 29.8432 5.62143 29.7904 5.59082C29.5413 5.43872 28.7507 5.03557 28.4203 4.88672C28.3706 4.86491 28.2764 4.82459 28.2172 4.79981C28.1579 4.77178 28.0149 4.70674 27.8969 4.65723C27.7815 4.60469 27.6753 4.56055 27.6596 4.56055C27.6436 4.56036 27.5909 4.54224 27.5414 4.51758C27.4947 4.4928 27.3918 4.44963 27.3139 4.42188C27.236 4.39387 27.1269 4.34997 27.0707 4.3252C27.0149 4.30055 26.9437 4.28233 26.9154 4.28223C26.8843 4.28198 26.854 4.27183 26.8285 4.25391C26.8129 4.24153 26.6945 4.19857 26.5668 4.15821C26.4394 4.11812 26.2773 4.07166 26.2084 4.04981C26.14 4.02825 26.0242 3.99056 25.9526 3.96875C25.8779 3.94722 25.8188 3.92249 25.8188 3.91309C25.8033 3.62169 25.7811 3.42943 25.7563 3.36426C25.7377 3.32086 25.726 3.24671 25.726 3.19727C25.726 2.91202 25.373 2.1122 25.0678 1.70899C24.9664 1.57765 24.8862 1.46092 24.8842 1.44922ZM12.5043 14.4121C13.3047 14.3068 14.4915 14.3868 15.1518 14.5947C15.2295 14.6195 15.3133 14.6386 15.3412 14.6387C15.3696 14.6387 15.4351 14.6598 15.4819 14.6846C15.5316 14.7094 15.6001 14.7314 15.6342 14.7314C15.6782 14.7353 15.72 14.7518 15.7553 14.7783C15.7896 14.8031 15.8369 14.8242 15.8617 14.8242C15.9253 14.825 16.6937 15.2128 16.9301 15.3613C17.7804 15.9043 18.6238 16.7454 19.1596 17.583C19.3397 17.8683 19.6975 18.592 19.6987 18.6777C19.6987 18.6963 19.7168 18.7529 19.7387 18.8057C19.7742 18.894 19.8057 18.9839 19.8324 19.0752C19.8573 19.1684 19.8978 19.302 19.9164 19.3701C19.9756 19.5718 20.0413 19.9658 20.0727 20.3164C20.113 20.7755 20.1129 40.6489 20.0727 40.6865C20.0291 40.7113 19.5649 40.6489 19.3559 40.5869C19.1942 40.5404 19.0231 40.4756 18.9203 40.4199C18.5653 40.2306 18.4557 40.1527 18.185 39.8799C17.8516 39.5478 17.6592 39.2276 17.4692 38.6846C17.413 38.5203 17.4093 38.3479 17.3998 33.1338C17.3936 28.3182 17.3876 27.7461 17.3442 27.6982C17.3006 27.6487 17.1137 27.6423 14.8774 27.6299C13.1239 27.6205 12.4263 27.6081 12.3422 27.5801C12.2398 27.5522 12.1357 27.5302 12.0307 27.5147C11.7503 27.4745 11.2986 27.3572 11.0932 27.2734C11.0432 27.2516 10.9872 27.2354 10.9623 27.2354C10.9377 27.2353 10.9133 27.2232 10.9037 27.208C10.8945 27.1924 10.847 27.1706 10.8002 27.1582C10.7212 27.1419 10.1895 26.888 10.0278 26.792C9.16838 26.2862 8.46112 25.6568 7.85393 24.8564C7.72307 24.6827 7.61467 24.53 7.61467 24.5176C7.61457 24.5051 7.59554 24.471 7.57072 24.4463C7.54876 24.4182 7.47754 24.3031 7.41838 24.1885C7.35621 24.0735 7.29049 23.9558 7.27482 23.9248C7.20635 23.8034 7.05412 23.4436 7.05412 23.4063C7.05384 23.3846 7.03193 23.3416 7.00725 23.3076C6.98245 23.2767 6.96051 23.2241 6.96037 23.1963C6.96037 23.1681 6.94481 23.1061 6.92326 23.0566C6.88596 22.9635 6.83611 22.7678 6.75529 22.4111C6.69311 22.1225 6.61178 21.3253 6.61174 21.0147C6.61472 20.5216 6.72643 19.6559 6.83537 19.2773C6.93837 18.9205 6.97342 18.8148 7.08537 18.5322C7.12042 18.45 7.45267 17.7748 7.50236 17.6943C7.92582 16.9836 8.64888 16.1926 9.35881 15.665C9.45592 15.5929 9.55475 15.5223 9.65471 15.4541C10.1933 15.1284 10.3926 15.0227 10.7446 14.874C11.2645 14.6505 11.8222 14.5053 12.5043 14.4121ZM50.0278 14.3691C50.8281 14.2636 52.0149 14.3436 52.6752 14.5518C52.7528 14.5764 52.8367 14.5955 52.8647 14.5957C52.893 14.5957 52.9588 14.6168 53.0053 14.6416C53.055 14.6663 53.1235 14.6884 53.1576 14.6885C53.2017 14.6923 53.2443 14.7079 53.2797 14.7344C53.3138 14.7594 53.3605 14.7812 53.3852 14.7813C53.4476 14.7813 54.2166 15.1696 54.4535 15.3184C55.3036 15.8613 56.1479 16.7024 56.683 17.54C56.8637 17.8253 57.2213 18.5498 57.2221 18.6348C57.2221 18.6533 57.2415 18.709 57.2631 18.7617C57.2985 18.8501 57.3291 18.9408 57.3559 19.0322C57.381 19.1254 57.4222 19.259 57.4408 19.3272C57.4998 19.529 57.565 19.9232 57.5961 20.2734C57.6363 20.7397 57.6362 40.5496 57.5961 40.6426C57.5524 40.6676 57.0892 40.6059 56.8803 40.5439C56.7181 40.4974 56.546 40.4317 56.4438 40.376C56.0888 40.1868 55.9795 40.109 55.7084 39.8359C55.3755 39.5042 55.1826 39.1844 54.9926 38.6416C54.9367 38.4771 54.9334 38.3056 54.9242 33.0908C54.9183 28.2695 54.9109 27.7017 54.8676 27.6553C54.8238 27.6055 54.6371 27.5993 52.4018 27.5869C50.6481 27.5777 49.95 27.5651 49.8656 27.5371C49.8037 27.5185 49.6633 27.4873 49.5541 27.4717C49.2737 27.4312 48.8223 27.3132 48.6166 27.2295C48.5671 27.2081 48.5115 27.1925 48.4867 27.1924C48.4614 27.1924 48.4366 27.1797 48.4272 27.1641C48.4177 27.1487 48.3705 27.1276 48.3237 27.1152C48.2452 27.0994 47.7139 26.8452 47.5522 26.749C46.6924 26.2432 45.9856 25.613 45.3783 24.8125C45.2474 24.639 45.1384 24.4873 45.1381 24.4746C45.1381 24.4622 45.1193 24.4281 45.0942 24.4033C45.0722 24.3752 45.0007 24.2601 44.9418 24.1455C44.8792 24.0306 44.8139 23.913 44.7983 23.8818C44.7298 23.7609 44.5776 23.4005 44.5776 23.3633C44.5774 23.3416 44.5552 23.2987 44.5307 23.2647C44.5053 23.2337 44.4838 23.1803 44.4838 23.1523C44.4837 23.1242 44.4683 23.0621 44.4467 23.0127C44.4094 22.9194 44.3597 22.7243 44.2787 22.3682C44.2165 22.0797 44.1352 21.2821 44.1352 20.9717C44.1384 20.4783 44.2506 19.6121 44.3598 19.2334C44.4624 18.8771 44.4969 18.7716 44.6088 18.4893C44.6429 18.4087 44.976 17.7322 45.0258 17.6514C45.4497 16.9409 46.1722 16.1494 46.8822 15.6221C47.0133 15.526 47.1438 15.4327 47.1781 15.4111C47.7166 15.0853 47.9163 14.98 48.268 14.8311C48.7881 14.6078 49.3456 14.4623 50.0278 14.3691ZM19.851 1.07617C20.8333 1.03906 20.8101 1.03894 20.8285 1.10059C20.8504 1.16552 20.8377 3.24707 20.8158 3.24707C20.8015 3.24731 20.5886 3.25633 20.3334 3.26563C20.0782 3.2748 19.798 3.29396 19.7172 3.30957C19.6363 3.32815 19.4742 3.33985 19.3588 3.33985C19.2439 3.33986 19.0596 3.35545 18.9477 3.37403C18.803 3.39663 18.6578 3.41612 18.5121 3.43067C18.2295 3.46439 17.9487 3.51282 17.6713 3.57617C17.5594 3.60088 17.4384 3.61906 17.4037 3.61914C17.3665 3.61914 17.2668 3.63835 17.186 3.66309C17.102 3.68784 16.9647 3.72135 16.8774 3.74317C16.6129 3.79918 16.3848 3.85835 16.2074 3.91114C16.1139 3.94208 15.9863 3.97587 15.9272 3.99121C15.868 4.00363 15.7777 4.03222 15.725 4.05078C15.6749 4.06948 15.4853 4.13133 15.3051 4.19043C15.1381 4.24573 14.9713 4.30294 14.8061 4.36328C14.7128 4.40044 14.5979 4.44143 14.5541 4.45703C14.5059 4.47127 14.4592 4.48995 14.4145 4.5127C14.3834 4.53126 14.2772 4.57419 14.184 4.61133C13.9795 4.69442 13.7769 4.7833 13.5766 4.87598C13.1313 5.07447 12.5056 5.39674 11.9887 5.69434C11.4812 5.98281 10.0543 6.96914 9.82072 7.18946C9.79559 7.21442 9.70539 7.28944 9.6215 7.35742C9.31591 7.59967 8.4731 8.37769 8.18986 8.68164C7.52337 9.39191 7.1556 9.82009 6.67619 10.459C6.39905 10.8251 5.88488 11.5872 5.7758 11.792C5.75717 11.8261 5.71733 11.8945 5.68303 11.9473C5.64871 11.9968 5.60795 12.0683 5.58928 12.1025C5.57386 12.1365 5.5115 12.2483 5.45256 12.3506C5.34334 12.5367 4.77658 13.6598 4.69572 13.8457C4.64896 13.9542 4.58669 14.1066 4.51506 14.2647C4.49316 14.3206 4.45007 14.4164 4.42522 14.4814C4.39721 14.5434 4.37558 14.6052 4.37541 14.624C4.37541 14.6396 4.35338 14.6956 4.32854 14.7422C4.30366 14.7918 4.28166 14.857 4.28166 14.8848C4.28164 14.9128 4.26875 14.9437 4.25334 14.9561C4.23766 14.9657 4.213 15.0187 4.20061 15.0742C4.19112 15.127 4.1629 15.2139 4.14104 15.2666C4.11938 15.3163 4.07632 15.4429 4.04826 15.5449C4.0225 15.6339 3.99264 15.7228 3.96037 15.8096C3.94469 15.8531 3.92007 15.9364 3.90471 15.9951C3.89227 16.0541 3.85793 16.1815 3.82658 16.2744C3.7644 16.4794 3.69628 16.7586 3.65275 16.9727C3.63708 17.0564 3.6089 17.1737 3.59025 17.2295C3.57459 17.2885 3.54611 17.4064 3.53068 17.4932C3.51296 17.6093 3.49383 17.7254 3.47209 17.8408C3.36313 18.4175 3.34709 18.5204 3.34709 18.626C3.34464 18.7011 3.33406 18.7757 3.31584 18.8486C3.17582 19.3203 3.17586 22.6875 3.31584 23.1602C3.33417 23.2332 3.34458 23.3085 3.34709 23.3838C3.34714 23.4892 3.36628 23.6043 3.47209 24.168C3.49437 24.2875 3.5135 24.408 3.53068 24.5283C3.54611 24.6212 3.5716 24.7484 3.59025 24.8076C3.61645 24.8933 3.63929 24.9799 3.65861 25.0674C3.67727 25.1511 3.71186 25.3006 3.73674 25.3936C3.75837 25.4864 3.7962 25.6321 3.81486 25.7188C3.83651 25.8025 3.86462 25.8867 3.88029 25.9023C3.89558 25.9212 3.90764 25.9677 3.90764 26.0107C3.90768 26.0573 3.92966 26.1319 3.95451 26.1816C3.97934 26.228 4.00139 26.2959 4.00139 26.3301C4.00401 26.3746 4.01662 26.4181 4.0385 26.457C4.06344 26.5087 4.08368 26.5627 4.09807 26.6182C4.13215 26.7515 4.21309 26.9817 4.25041 27.0439C4.26896 27.0749 4.28166 27.1244 4.28166 27.1553C4.28176 27.1865 4.30371 27.2393 4.32854 27.2734C4.35324 27.3044 4.37535 27.3506 4.37541 27.3721C4.37541 27.4187 4.44012 27.5806 4.51799 27.7295C4.54277 27.7789 4.56188 27.8313 4.56193 27.8467C4.56193 27.8841 4.96967 28.7684 5.05998 28.9297C5.11539 29.0317 5.16877 29.1347 5.21916 29.2393C5.34188 29.4831 5.4757 29.7217 5.62053 29.9531C5.63634 29.9784 5.68009 30.0553 5.71721 30.123C5.90404 30.4673 6.91308 31.9066 7.11857 32.127C7.17657 32.1915 7.23244 32.2584 7.28654 32.3262C7.35479 32.4124 7.42254 32.4955 7.44182 32.5147C7.52365 32.6086 7.60683 32.7019 7.69084 32.7939C8.34457 33.5321 9.33801 34.4598 10.101 35.043C10.5961 35.4214 11.3905 35.9707 11.4438 35.9707C11.4562 35.9708 11.4744 35.9828 11.4809 35.9951C11.4911 36.0204 12.1164 36.3987 12.2221 36.4482C12.2479 36.4581 12.3532 36.5165 12.4555 36.5752C12.7047 36.7209 13.7031 37.2072 13.9809 37.3223C14.0339 37.3409 14.1092 37.375 14.1528 37.3906C14.1963 37.4092 14.3085 37.456 14.4018 37.4932C14.4951 37.5303 14.6162 37.5799 14.6723 37.6016C14.7253 37.6264 14.788 37.6455 14.8129 37.6455C14.8392 37.6464 14.8644 37.6557 14.8842 37.6729C14.9029 37.6885 14.9659 37.7168 15.0248 37.7324C15.1306 37.7634 15.2244 37.7943 15.4604 37.8779C15.5582 37.9122 15.6569 37.9439 15.7563 37.9736C15.859 38.0016 16.015 38.0514 16.099 38.0762L16.2543 38.1289L16.2758 38.3272C16.3101 38.6493 16.3537 38.9043 16.391 38.9727C16.4115 39.0154 16.424 39.062 16.4262 39.1094C16.4294 39.1581 16.4447 39.2056 16.4721 39.2461C16.4969 39.277 16.5188 39.3228 16.519 39.3477C16.519 39.388 16.6874 39.7416 16.7778 39.8936C16.9008 40.0974 17.0421 40.2899 17.2006 40.4678C17.284 40.5599 17.3491 40.64 17.3471 40.6475C17.3405 40.6503 17.2412 40.6321 17.1235 40.6074C17.0051 40.5794 16.8029 40.5355 16.6752 40.5107C16.5476 40.4827 16.3791 40.4428 16.3012 40.418C16.2234 40.393 16.1364 40.375 16.102 40.375C16.0709 40.375 15.9744 40.3532 15.8842 40.3252C15.7969 40.2972 15.663 40.2565 15.5854 40.2314C15.5074 40.2067 15.4141 40.1886 15.3764 40.1885C15.3394 40.1885 15.3023 40.1763 15.2895 40.1611C15.2803 40.1456 15.2271 40.1237 15.1713 40.1113C15.0438 40.0836 14.7916 40.0059 14.6606 39.9502C14.6076 39.9284 14.5355 39.9092 14.5014 39.9092C14.4641 39.9092 14.43 39.8973 14.4174 39.8818C14.408 39.8665 14.3551 39.8415 14.2992 39.8291C14.2462 39.8197 14.1589 39.7911 14.1059 39.7695C14.0561 39.7477 13.9503 39.7047 13.8725 39.6768C13.7946 39.6458 13.6882 39.6029 13.6322 39.5811C13.6059 39.5688 13.5783 39.5575 13.5551 39.5498L13.4555 39.5244C13.4338 39.5167 13.408 39.5065 13.3832 39.4941C13.3364 39.4694 13.2459 39.4284 13.1869 39.4004C12.4832 39.0967 11.9481 38.8392 11.4438 38.5664C11.3319 38.5042 11.2071 38.4359 11.1635 38.4141C11.12 38.3893 10.8832 38.2496 10.6342 38.0977C10.3852 37.9487 10.1539 37.8096 10.1196 37.791C10.0854 37.7691 10.0078 37.7164 9.94572 37.667C9.88363 37.6205 9.8213 37.5831 9.81193 37.583C9.79949 37.583 9.77426 37.5674 9.75236 37.5518C9.7008 37.5072 9.23836 37.1763 9.13908 37.1143C9.09556 37.0865 9.02722 37.0342 8.98674 36.9971C8.94619 36.9629 8.90244 36.9316 8.89299 36.9316C8.88349 36.9313 8.84053 36.9005 8.79729 36.8604C8.7535 36.8232 8.62182 36.7143 8.50041 36.6211C8.26724 36.4385 8.25799 36.4287 7.87834 36.1064C7.18409 35.511 6.25897 34.581 5.68303 33.8926C5.60516 33.8026 5.52683 33.7122 5.51115 33.6934C5.49219 33.6743 5.41489 33.5755 5.33439 33.4736C5.25662 33.3714 5.16638 33.2564 5.13518 33.2158C4.95133 32.9925 4.56153 32.4526 4.3217 32.0928C4.21622 31.9325 4.11728 31.7842 4.101 31.7676C4.08856 31.749 4.06656 31.7142 4.05412 31.6895C4.04154 31.6645 4.0072 31.6057 3.976 31.5625C3.94805 31.5158 3.87399 31.3981 3.81486 31.2988C3.75565 31.1965 3.69002 31.0877 3.66838 31.0537C3.6465 31.0195 3.61767 30.9641 3.59904 30.9268C3.58348 30.8926 3.51496 30.7715 3.44963 30.6631C3.38434 30.5543 3.21672 30.2353 3.07658 29.9531C2.82457 29.4414 2.73654 29.2549 2.52482 28.7588C2.49672 28.6968 2.45686 28.6036 2.43498 28.5479C2.40985 28.4951 2.36672 28.3862 2.33537 28.3086C2.30755 28.2312 2.26356 28.1232 2.23869 28.0674C2.21389 28.0118 2.19486 27.9495 2.19475 27.9277C2.19475 27.9059 2.17663 27.853 2.15178 27.8066C2.12694 27.7601 2.09882 27.6827 2.08635 27.6299C2.07398 27.5777 2.05195 27.5282 2.03654 27.5186C2.0209 27.5062 2.00827 27.4717 2.00822 27.4346C2.00822 27.4004 1.99003 27.3289 1.96818 27.2764C1.94335 27.2205 1.89966 27.0935 1.86857 26.9912C1.84052 26.8891 1.80033 26.7617 1.78459 26.7119C1.70051 26.4545 1.60685 26.0974 1.54143 25.7998C1.5228 25.7224 1.49753 25.6171 1.48186 25.5674C1.41344 25.3443 1.21443 24.3103 1.1801 24.0127C1.1738 23.9441 1.14535 23.743 1.12053 23.5635C0.927494 22.1865 0.922036 19.628 1.10881 18.5547C1.13025 18.4154 1.1494 18.2755 1.1674 18.1357C1.19974 17.839 1.24704 17.5432 1.30803 17.251C1.42636 16.6683 1.45375 16.5313 1.48186 16.4414C1.49753 16.3917 1.5228 16.2864 1.54143 16.209C1.59738 15.9578 1.65951 15.7003 1.69084 15.6074C1.70629 15.5543 1.74381 15.4366 1.77189 15.3438C1.86846 15.0242 2.10825 14.3042 2.15178 14.2051C2.17658 14.1524 2.19475 14.0967 2.19475 14.0781C2.19488 14.0626 2.21691 14.0071 2.24162 13.9609C2.2665 13.9111 2.2885 13.8483 2.2885 13.8203C2.2902 13.793 2.29928 13.7663 2.31389 13.7432C2.32667 13.7265 2.3703 13.6312 2.41057 13.5293C2.45106 13.4273 2.49991 13.2968 2.52482 13.2441L2.61564 13.042C2.77427 12.6762 2.84925 12.5148 3.06389 12.0869C3.28501 11.6466 3.38188 11.4671 3.58732 11.1104C3.62464 11.042 3.66864 10.9642 3.68107 10.9395C3.6903 10.9147 3.73619 10.8367 3.77971 10.7686C3.82324 10.7002 3.86791 10.6289 3.87736 10.6133C3.95963 10.4564 4.76991 9.25219 4.87932 9.12793C4.92927 9.0684 4.97658 9.00587 5.01994 8.94141C5.06958 8.87023 5.12506 8.796 5.14397 8.77442C5.16558 8.75264 5.24973 8.64743 5.33049 8.54199C5.41159 8.43667 5.49317 8.33373 5.51506 8.31836C5.53433 8.29904 5.62082 8.19976 5.70744 8.09473C6.22442 7.46202 7.28063 6.40441 7.92522 5.8711C8.0868 5.73486 8.23533 5.61068 8.25139 5.5918C8.27002 5.57324 8.3824 5.48076 8.50041 5.3877C8.62182 5.29452 8.73474 5.20771 8.75041 5.19531C8.7691 5.17968 8.85312 5.11761 8.93693 5.05567C9.0236 4.99098 9.10691 4.92925 9.12346 4.91309C9.21053 4.84494 9.59441 4.57778 9.85588 4.4043C10.0177 4.29879 10.1673 4.19989 10.186 4.1875C10.2232 4.15952 10.2388 4.14699 10.6342 3.91114C10.796 3.81213 10.9635 3.71242 11.0072 3.6875C11.051 3.66571 11.1472 3.60973 11.225 3.56934C11.3464 3.50119 11.8551 3.22865 12.0014 3.1543C12.2415 3.03326 12.9072 2.72603 13.1967 2.61133C13.4923 2.48726 13.539 2.46843 13.6322 2.42188C13.6818 2.3973 13.7314 2.37922 13.7475 2.37891C13.7631 2.37891 13.8131 2.36351 13.8627 2.3418C14.1385 2.23814 14.4173 2.14058 14.6977 2.04981C14.8347 2.00645 14.9749 1.95965 15.0092 1.94727C15.1275 1.90092 15.3827 1.82623 15.4916 1.80469C15.5508 1.7923 15.6163 1.77411 15.6322 1.76172C15.6509 1.75251 15.7348 1.72685 15.8188 1.70508C15.9061 1.68649 16.0644 1.65003 16.1762 1.62207C16.2884 1.59432 16.4446 1.55638 16.5287 1.54102C16.6126 1.52565 16.6959 1.50632 16.7778 1.48242C16.8681 1.45442 17.0953 1.40756 17.3442 1.36719C17.3972 1.36099 17.5563 1.33338 17.7026 1.3086C18.4093 1.18742 19.2283 1.10096 19.851 1.07617ZM124.345 14.0459C124.762 14.0459 125.085 14.1841 125.317 14.4609C125.548 14.7145 125.663 15.0953 125.663 15.6025V26.7725C125.663 27.2334 125.536 27.5447 125.282 27.7061C125.051 27.8673 124.738 27.9482 124.345 27.9482C124.091 27.9482 123.871 27.8672 123.686 27.7061C123.524 27.5447 123.42 27.1872 123.373 26.6338C122.425 27.5331 121.129 27.9824 119.487 27.9824C117.034 27.9824 115.53 27.0836 114.975 25.2852C114.883 24.9394 114.814 24.524 114.767 24.04C114.721 23.5328 114.698 22.9104 114.698 22.1729V15.6025C114.698 15.0952 114.802 14.7145 115.01 14.4609C115.241 14.1842 115.565 14.0459 115.982 14.0459C116.398 14.046 116.71 14.1842 116.918 14.4609C117.149 14.7145 117.265 15.0952 117.265 15.6025V21.9648C117.265 23.1866 117.381 24.0404 117.613 24.5244C117.821 24.9624 118.11 25.2736 118.48 25.458C118.873 25.6424 119.36 25.7344 119.938 25.7344C121.118 25.7343 121.962 25.4121 122.471 24.7666C122.679 24.4667 122.83 24.0862 122.922 23.625C123.015 23.1408 123.061 22.4953 123.061 21.6885V15.6025C123.061 15.0952 123.165 14.7145 123.373 14.4609C123.605 14.1841 123.929 14.0459 124.345 14.0459ZM152.662 5.84961C153.078 5.84972 153.39 5.98818 153.598 6.26465C153.83 6.51843 153.945 6.91025 153.945 7.44043V26.8066C153.945 27.2217 153.817 27.5096 153.563 27.6709C153.332 27.8552 153.043 27.9482 152.696 27.9482C152.395 27.9482 152.164 27.8441 152.001 27.6367C151.84 27.4524 151.724 27.0027 151.655 26.2881C151.077 26.8876 150.463 27.3257 149.815 27.6025C149.19 27.8559 148.415 27.9824 147.49 27.9824C145.778 27.9823 144.494 27.452 143.638 26.3916C142.805 25.3309 142.388 23.717 142.388 21.5498V20.374C142.388 18.2761 142.84 16.6853 143.742 15.6016C144.667 14.5181 145.998 13.9766 147.733 13.9766C149.399 13.9766 150.613 14.5071 151.376 15.5674V7.44043C151.376 6.91038 151.481 6.51844 151.689 6.26465C151.921 5.98808 152.245 5.84961 152.662 5.84961ZM130.917 14.0459C131.334 14.0459 131.657 14.1841 131.889 14.4609C132.12 14.7145 132.236 15.0952 132.236 15.6025V26.3574C132.236 26.8647 132.12 27.2564 131.889 27.5332C131.657 27.8098 131.334 27.9482 130.917 27.9482C130.501 27.9482 130.177 27.8097 129.946 27.5332C129.738 27.2564 129.633 26.8646 129.633 26.3574V15.6025C129.633 15.0953 129.738 14.7145 129.946 14.4609C130.177 14.1842 130.501 14.046 130.917 14.0459ZM137.644 5.84961C138.06 5.84965 138.385 5.98812 138.616 6.26465C138.847 6.51844 138.962 6.91034 138.962 7.44043V21.3428C138.962 22.4031 138.997 23.2326 139.067 23.832C139.16 24.4085 139.321 24.8357 139.552 25.1123C139.784 25.3891 140.097 25.5847 140.49 25.7002C140.767 25.7924 140.975 25.942 141.114 26.1494C141.252 26.3337 141.311 26.5874 141.288 26.9102C141.288 27.2098 141.172 27.4523 140.941 27.6367C140.733 27.8441 140.455 27.9482 140.108 27.9482C138.835 27.9482 137.898 27.4866 137.296 26.5645C136.949 26.0344 136.707 25.3542 136.568 24.5244C136.429 23.6945 136.36 22.5419 136.36 21.0664V7.44043C136.36 6.91014 136.464 6.51843 136.672 6.26465C136.904 5.98808 137.228 5.84961 137.644 5.84961ZM76.308 14.0029C76.6313 14.003 76.9085 14.1183 77.1401 14.3486C77.3943 14.5791 77.5229 14.8328 77.5229 15.1094C77.5229 15.2245 77.5108 15.3512 77.4877 15.4893C77.4638 15.63 77.4285 15.7689 77.3832 15.9043L73.7738 26.6602C73.4962 27.4899 73.0216 27.9053 72.351 27.9053C71.6571 27.9051 71.1833 27.4778 70.9291 26.625L68.0824 18.1182L65.2719 26.625C64.9943 27.478 64.508 27.9053 63.8139 27.9053C63.12 27.9051 62.6345 27.4779 62.3569 26.625L58.8862 15.9736C58.8405 15.8383 58.8053 15.6994 58.7817 15.5586C58.7608 15.4446 58.7496 15.3288 58.7475 15.2129C58.7475 14.867 58.8749 14.5793 59.1293 14.3486C59.3836 14.1182 59.6846 14.0029 60.0317 14.0029C60.6793 14.003 61.1184 14.4062 61.35 15.2129L63.9877 23.7549L66.8686 15.1436C67.1462 14.383 67.5975 14.0029 68.2221 14.0029C68.8232 14.0031 69.2509 14.395 69.5053 15.1787L72.351 23.7549L75.0238 15.1094C75.2781 14.3716 75.7062 14.0029 76.308 14.0029ZM81.3705 14.002C81.787 14.002 82.1111 14.1414 82.3422 14.418C82.5732 14.6715 82.6889 15.0515 82.6889 15.5586V26.3135C82.6889 26.8208 82.5733 27.2137 82.3422 27.4902C82.1111 27.7666 81.7868 27.9053 81.3705 27.9053C80.9542 27.9053 80.6302 27.7666 80.3988 27.4902C80.1906 27.2137 80.0863 26.8208 80.0863 26.3135V15.5586C80.0864 15.0516 80.1908 14.6715 80.3988 14.418C80.6302 14.1414 80.9541 14.002 81.3705 14.002ZM87.9926 5.80664C88.4091 5.80664 88.7219 5.94511 88.9301 6.22168C89.1611 6.47521 89.2768 6.86722 89.2768 7.39746V19.1895L94.7602 14.4863C95.0605 14.233 95.3499 14.1066 95.6274 14.1064C95.905 14.1064 96.1486 14.2105 96.3569 14.418C96.5649 14.6256 96.6693 14.8671 96.6694 15.1436C96.6694 15.4203 96.4958 15.7201 96.1488 16.043L91.6371 19.8125L96.9125 25.7607C97.19 26.0832 97.3285 26.3946 97.3285 26.6943C97.3285 26.994 97.201 27.2598 96.9467 27.4902C96.6922 27.7206 96.4144 27.8359 96.1137 27.8359C95.8821 27.8359 95.6735 27.7783 95.4887 27.6631C95.3036 27.5478 95.107 27.3631 94.8988 27.1094L89.2768 20.6084V26.3145C89.2767 26.8214 89.1612 27.2137 88.9301 27.4902C88.7219 27.7669 88.4089 27.9053 87.9926 27.9053C87.5763 27.9052 87.2522 27.7669 87.0209 27.4902C86.8127 27.2137 86.7094 26.8214 86.7094 26.3145V7.39746C86.7094 6.86731 86.8128 6.47522 87.0209 6.22168C87.2522 5.94518 87.5763 5.80672 87.9926 5.80664ZM22.1039 1.1836C22.138 1.18979 22.2716 1.21161 22.3988 1.2334C22.9245 1.31394 23.3913 1.55195 23.8266 1.95508C24.007 2.12559 24.2183 2.39 24.3149 2.56348C24.3427 2.61667 24.3738 2.66818 24.4076 2.71778C24.4308 2.75096 24.4494 2.78754 24.4613 2.82617C24.4706 2.86036 24.5138 2.98457 24.5571 3.10547C24.61 3.25441 24.6412 3.42217 24.6567 3.64844C24.6691 3.83167 24.6821 6.30434 24.6821 9.14551C24.6853 13.7061 24.6916 14.3199 24.7319 14.3447C24.7664 14.3632 25.6477 14.376 26.9701 14.376C28.3165 14.376 29.2374 14.3877 29.3588 14.4063C29.5034 14.4299 29.6489 14.4512 29.7944 14.4688C30.183 14.5154 30.8295 14.6763 31.1528 14.8096C31.2055 14.8314 31.2959 14.8688 31.3549 14.8936C31.731 15.0487 32.3622 15.4047 32.6762 15.6436C32.7785 15.7207 32.8689 15.7921 32.8783 15.8018C32.8878 15.8112 32.9497 15.8575 33.018 15.9102C33.2075 16.0494 33.839 16.6887 34.0473 16.9492C34.1762 17.1156 34.2998 17.2864 34.4174 17.4609C34.6165 17.7587 34.9771 18.4562 35.0082 18.5986C35.0207 18.6452 35.0426 18.6918 35.058 18.7012C35.0736 18.7136 35.0863 18.7502 35.0863 18.7871C35.0863 18.8243 35.1084 18.8958 35.1332 18.9453C35.1581 18.9918 35.179 19.0571 35.1791 19.085C35.1791 19.113 35.1982 19.1971 35.2231 19.2744C35.3412 19.6467 35.4594 20.5052 35.4594 20.998C35.4594 21.2894 35.375 22.1325 35.3315 22.2725C35.3128 22.328 35.2883 22.44 35.2729 22.5205C35.2232 22.7899 35.133 23.0906 35.0336 23.3262C35.0121 23.3784 34.9928 23.4313 34.9926 23.4473C34.9926 23.472 34.828 23.8289 34.7504 23.9717C34.7223 24.0212 34.6698 24.1201 34.6293 24.1885C34.592 24.2566 34.548 24.3346 34.5356 24.3594C34.5228 24.3847 34.4516 24.4955 34.3774 24.6064C33.8674 25.3477 33.093 26.108 32.3686 26.5762C31.9736 26.8333 31.4204 27.1245 31.2524 27.168C31.2056 27.1774 31.1593 27.1992 31.1498 27.2148C31.1406 27.2302 31.1151 27.2422 31.0903 27.2422C31.0653 27.2423 31.0098 27.2577 30.9604 27.2793C30.5996 27.428 29.943 27.5646 29.3178 27.6172C28.8761 27.6543 27.872 27.6329 27.6762 27.5801C27.614 27.5647 27.4742 27.5371 27.3656 27.5215C27.089 27.4813 26.6373 27.3628 26.4321 27.2793C26.3827 27.2577 26.3272 27.2424 26.3022 27.2422C26.2774 27.2422 26.2519 27.2301 26.2426 27.2148C26.2331 27.1992 26.1865 27.1774 26.143 27.168C26.052 27.1428 25.4819 26.8678 25.3383 26.7744C25.2885 26.7434 25.2226 26.7058 25.1977 26.6934C25.1726 26.6808 25.1014 26.6379 25.0395 26.5947C24.9773 26.5514 24.8932 26.4926 24.8559 26.4678C24.691 26.3593 24.1726 25.9314 23.9858 25.748C23.8146 25.5808 23.587 25.3328 23.2885 24.9795C23.2201 24.899 22.875 24.3928 22.8158 24.2813C22.7286 24.126 22.4652 23.587 22.4184 23.46C22.3873 23.3824 22.3433 23.2767 22.3217 23.2236C22.2969 23.1681 22.2684 23.0755 22.2592 23.0137C22.2468 22.9517 22.2248 22.892 22.2094 22.8828C22.1939 22.8728 22.1821 22.8301 22.1821 22.7871C22.182 22.7406 22.16 22.6355 22.1381 22.5488C22.1132 22.4619 22.0667 22.2635 22.0356 22.1113C21.9826 21.8449 21.9796 21.3175 21.9701 11.5264C21.9639 3.25447 21.9703 1.2139 22.0014 1.19532C22.0234 1.1799 22.0698 1.17719 22.1039 1.1836ZM99.6244 1.1836C99.6594 1.18989 99.7923 1.21169 99.9194 1.2334C100.445 1.31392 100.911 1.55209 101.346 1.95508C101.527 2.12559 101.739 2.39 101.835 2.56348C101.863 2.61669 101.894 2.66827 101.928 2.71778C101.951 2.75095 101.969 2.78766 101.981 2.82617C102.011 2.91992 102.043 3.01329 102.078 3.10547C102.13 3.25441 102.161 3.42217 102.177 3.64844C102.19 3.8318 102.203 6.30442 102.203 9.14551C102.206 13.6992 102.211 14.3182 102.251 14.3447C102.28 14.3633 103.163 14.376 104.491 14.376C105.836 14.376 106.756 14.3877 106.878 14.4063C107.023 14.4299 107.168 14.4511 107.314 14.4688C107.702 14.5153 108.349 14.6763 108.672 14.8096C108.725 14.8314 108.815 14.8688 108.874 14.8936C109.251 15.0487 109.883 15.4047 110.197 15.6436C110.265 15.6946 110.333 15.7475 110.399 15.8018C110.408 15.8112 110.47 15.8574 110.538 15.9102C110.728 16.0494 111.359 16.6888 111.568 16.9492C111.697 17.1157 111.82 17.2865 111.938 17.4609C112.136 17.7587 112.497 18.4562 112.529 18.5986C112.541 18.6452 112.563 18.6918 112.579 18.7012C112.594 18.7139 112.607 18.7504 112.607 18.7871C112.607 18.8242 112.628 18.8958 112.653 18.9453C112.678 18.9918 112.7 19.0571 112.7 19.085C112.7 19.113 112.719 19.1971 112.744 19.2744C112.862 19.6468 112.98 20.5053 112.98 20.998C112.98 21.2894 112.895 22.1323 112.852 22.2725C112.833 22.328 112.808 22.44 112.792 22.5205C112.74 22.7965 112.66 23.0663 112.553 23.3262C112.532 23.3784 112.513 23.4313 112.513 23.4473C112.513 23.472 112.349 23.8289 112.271 23.9717C112.243 24.0213 112.189 24.1201 112.149 24.1885C112.112 24.2566 112.069 24.3346 112.056 24.3594C112.043 24.3845 111.972 24.4954 111.898 24.6064C111.388 25.3477 110.613 26.108 109.888 26.5762C109.494 26.8332 108.941 27.1243 108.773 27.168C108.726 27.1774 108.679 27.1992 108.669 27.2148C108.66 27.23 108.635 27.2422 108.611 27.2422C108.586 27.2422 108.53 27.2575 108.48 27.2793C108.119 27.428 107.463 27.5646 106.838 27.6172C106.397 27.6543 105.394 27.6328 105.197 27.5801C105.135 27.5647 104.994 27.5371 104.885 27.5215C104.609 27.4813 104.157 27.3628 103.953 27.2793C103.903 27.2575 103.846 27.2422 103.822 27.2422C103.797 27.2421 103.772 27.23 103.763 27.2148C103.753 27.1992 103.707 27.1774 103.663 27.168C103.573 27.1432 103.001 26.8676 102.858 26.7744C102.808 26.7435 102.743 26.7058 102.718 26.6934C102.694 26.681 102.622 26.638 102.56 26.5947C102.498 26.5515 102.414 26.4927 102.376 26.4678C102.212 26.3592 101.692 25.9312 101.505 25.748C101.334 25.5808 101.107 25.3327 100.809 24.9795C100.741 24.899 100.395 24.3928 100.336 24.2813C100.249 24.1261 99.9847 23.5868 99.9379 23.46C99.9071 23.3824 99.8638 23.2766 99.8422 23.2236C99.8174 23.1682 99.7889 23.0755 99.7797 23.0137C99.7673 22.9517 99.7453 22.892 99.7299 22.8828C99.7144 22.873 99.7016 22.8302 99.7016 22.7871C99.7016 22.7406 99.6802 22.6355 99.6586 22.5488C99.634 22.4619 99.5869 22.2635 99.5561 22.1113C99.5033 21.8449 99.4999 21.3175 99.4906 11.5264C99.4847 3.25447 99.4905 1.2139 99.5219 1.19532C99.5437 1.17989 99.5903 1.17718 99.6244 1.1836ZM148.15 16.2246C147.063 16.2246 146.265 16.5821 145.755 17.2969C145.269 17.9886 145.026 19.0835 145.026 20.582V21.6191C145.026 23.0486 145.269 24.098 145.755 24.7666C146.265 25.412 147.051 25.7344 148.115 25.7344C149.225 25.7344 150.047 25.4001 150.579 24.7314C151.111 24.0628 151.376 23.0143 151.376 21.585L151.342 20.4092C151.319 19.6025 151.261 18.9799 151.168 18.542C151.076 18.1039 150.915 17.723 150.683 17.4004C150.174 16.6166 149.33 16.2247 148.15 16.2246ZM24.7377 16.9492L24.7035 17.0479C24.66 17.1782 24.66 20.5889 24.7035 21.2432C24.7533 22.0029 24.9122 22.5333 25.2699 23.1191C25.5498 23.5779 25.9601 24.0244 26.3862 24.3311C26.6906 24.5511 26.6998 24.5573 26.9701 24.6875C27.3525 24.8734 27.406 24.892 27.8881 25.0127C28.1497 25.0778 29.1103 25.0873 29.3901 25.0283C30.3068 24.8299 30.823 24.5543 31.4633 23.9131C31.8549 23.5161 32.0601 23.2392 32.2748 22.8145C32.4519 22.4673 32.6053 21.9718 32.6488 21.5996C32.7078 21.1409 32.6578 20.1545 32.5707 19.9902C32.5521 19.9561 32.5366 19.8978 32.5365 19.8574C32.5365 19.8173 32.5145 19.7451 32.4897 19.6953C32.465 19.6493 32.4431 19.5943 32.4428 19.5723C32.4428 19.5383 32.1691 18.9764 32.0912 18.8555C31.8705 18.5053 31.398 17.987 31.0746 17.7393C30.8631 17.5812 30.3819 17.2903 30.3256 17.29C30.3007 17.29 30.2542 17.2679 30.2231 17.2432C30.189 17.2184 30.1325 17.1973 30.0951 17.1973C30.0579 17.1972 30.0181 17.1842 29.9994 17.1689C29.9559 17.1253 29.6851 17.0603 29.2065 16.9766C29.1102 16.9612 28.099 16.9492 26.8862 16.9492H24.7377ZM102.258 16.9492L102.224 17.0479C102.18 17.1782 102.18 20.5889 102.224 21.2432C102.274 22.0029 102.432 22.5333 102.789 23.1191C103.069 23.5779 103.48 24.0243 103.906 24.3311C104.21 24.5514 104.22 24.5571 104.491 24.6875C104.873 24.8733 104.926 24.8921 105.408 25.0127C105.669 25.0779 106.629 25.0873 106.91 25.0283C107.827 24.8298 108.343 24.5546 108.984 23.9131C109.376 23.5161 109.58 23.2392 109.795 22.8145C109.972 22.4673 110.125 21.9717 110.168 21.5996C110.227 21.1409 110.178 20.1546 110.091 19.9902C110.073 19.9561 110.056 19.8978 110.056 19.8574C110.056 19.8173 110.035 19.7451 110.01 19.6953C109.985 19.6493 109.964 19.5943 109.963 19.5723C109.963 19.5383 109.689 18.9764 109.612 18.8555C109.391 18.5053 108.919 17.987 108.595 17.7393C108.384 17.5814 107.904 17.2911 107.846 17.29C107.821 17.29 107.774 17.2679 107.743 17.2432C107.708 17.2186 107.653 17.1974 107.616 17.1973C107.579 17.1973 107.538 17.1843 107.519 17.1689C107.475 17.1253 107.204 17.0602 106.726 16.9766C106.628 16.9612 105.618 16.9492 104.407 16.9492H102.258ZM13.9115 16.9688C13.6497 16.9284 13.0277 16.9316 12.8002 16.9717C12.3317 17.0554 12.0979 17.111 12.0531 17.1543C12.0375 17.1699 11.9992 17.1826 11.9711 17.1826C11.861 17.1835 11.2647 17.5085 11.0063 17.707C10.7572 17.9023 10.2144 18.4707 10.0619 18.7002C9.88752 18.9611 9.60783 19.498 9.60783 19.5723C9.6076 19.6004 9.59731 19.6276 9.57951 19.6494C9.52024 19.7155 9.37755 20.4249 9.34318 20.8281C9.3213 21.0887 9.40236 21.8546 9.47697 22.0879C9.60485 22.4757 9.64155 22.5881 9.66643 22.6377C9.707 22.7151 9.81888 22.9357 9.86564 23.0225C10.1555 23.5716 10.9187 24.3192 11.4916 24.6201C11.7969 24.7815 11.9751 24.8465 12.5356 25.0049C12.738 25.0606 17.2846 25.0821 17.35 25.0293C17.3905 24.9979 17.3937 24.6817 17.3813 22.833C17.3688 20.7634 17.3534 20.307 17.2787 20.0684C17.2601 20.0091 17.219 19.8758 17.1879 19.7734C17.1009 19.4695 17.008 19.2552 16.8363 18.9668C16.7774 18.8649 16.7154 18.7754 16.7026 18.7715C16.6901 18.7653 16.6772 18.7461 16.6772 18.7275C16.6758 18.6891 16.4963 18.4667 16.2885 18.2412C15.8868 17.8099 15.5474 17.5455 15.1303 17.3408C15.0492 17.3004 14.9427 17.2484 14.8959 17.2266C14.8525 17.2019 14.7875 17.1827 14.7563 17.1826C14.7241 17.1823 14.6921 17.1723 14.6654 17.1543C14.6233 17.1108 14.2502 17.0182 13.9115 16.9688ZM51.436 16.9248C51.1742 16.8847 50.551 16.8883 50.3237 16.9287C49.8546 17.0125 49.6208 17.0678 49.5766 17.1113C49.5612 17.1269 49.5239 17.1396 49.4955 17.1397C49.3868 17.1397 48.7882 17.4656 48.5297 17.6641C48.2806 17.8597 47.7391 18.4275 47.5863 18.6572C47.4122 18.9173 47.1322 19.4526 47.1313 19.5283C47.131 19.5566 47.1218 19.5845 47.1039 19.6064C47.045 19.6716 46.9007 20.3819 46.8666 20.7852C46.8447 21.0458 46.9258 21.8117 47.0004 22.0449C47.1285 22.4328 47.1662 22.5452 47.1908 22.5947C47.2313 22.6724 47.3433 22.8917 47.3901 22.9785C47.6794 23.5277 48.4428 24.276 49.016 24.5772C49.321 24.7383 49.499 24.8039 50.059 24.9619C50.2634 25.0179 54.809 25.0391 54.8744 24.9863C54.9147 24.9543 54.9183 24.6344 54.9057 22.79C54.893 20.7209 54.8768 20.2643 54.8022 20.0254C54.7835 19.9664 54.7437 19.8328 54.7123 19.7305C54.6253 19.4264 54.5311 19.2125 54.3598 18.9238C54.3008 18.8215 54.2382 18.7315 54.226 18.7285C54.2134 18.722 54.2016 18.7033 54.2016 18.6846C54.2015 18.6473 54.0206 18.424 53.8119 18.1973C53.4103 17.7663 53.071 17.5025 52.6537 17.2979C52.5727 17.2575 52.4669 17.2042 52.4203 17.1826C52.3765 17.1578 52.3106 17.1397 52.2797 17.1397C52.2475 17.1394 52.2156 17.1292 52.1889 17.1113C52.1467 17.0676 51.774 16.9742 51.436 16.9248ZM130.953 8.06348C131.415 8.06355 131.774 8.22404 132.029 8.54688C132.306 8.8465 132.445 9.27377 132.445 9.82715C132.445 10.3801 132.306 10.8178 132.029 11.1406C131.774 11.4632 131.415 11.6249 130.953 11.625C130.49 11.625 130.119 11.4633 129.841 11.1406C129.587 10.8178 129.46 10.3801 129.46 9.82715C129.46 9.27376 129.587 8.8465 129.841 8.54688C130.119 8.22396 130.49 8.06348 130.953 8.06348ZM81.4057 8.01953C81.8682 8.0196 82.2262 8.18114 82.4809 8.50391C82.7585 8.80374 82.8978 9.22992 82.8979 9.78321C82.8979 10.3366 82.7585 10.7747 82.4809 11.0977C82.2262 11.4202 81.8682 11.582 81.4057 11.582C80.9427 11.582 80.572 11.4206 80.2944 11.0977C80.0397 10.7748 79.9125 10.3365 79.9125 9.78321C79.9126 9.23007 80.0398 8.80348 80.2944 8.50391C80.572 8.18099 80.9427 8.01953 81.4057 8.01953Z" fill="url(#paint0_linear_21962_18059)"/>
<defs>
<linearGradient id="paint0_linear_21962_18059" x1="77.4575" y1="1.05078" x2="77.4575" y2="40.9511" gradientUnits="userSpaceOnUse">
<stop stop-color="#C9CBCF"/>
<stop offset="1" stop-color="#94979E"/>
</linearGradient>
</defs>
</svg>
