<svg width="123" height="32" viewBox="0 0 123 32" fill="none" xmlns="http://www.w3.org/2000/svg">
<g clip-path="url(#clip0_32214_59406)">
<path opacity="0.6" d="M0.0078125 22.8428V13.7728L7.72768 0.672769C7.94839 0.302769 8.42493 0.177769 8.79613 0.397769L16.0595 4.70777V13.6878L0.0078125 22.8428Z" fill="white"/>
<path opacity="0.9" d="M32.1064 22.8428V13.7728L24.3865 0.672769C24.1658 0.302769 23.6893 0.177769 23.3181 0.397769L16.0547 4.70777V13.6878L32.1064 22.8428Z" fill="white"/>
<path opacity="0.1" d="M8.14844 9.61719L16.0589 13.6822L11.9958 15.9972L8.14844 9.61719Z" fill="black"/>
<path opacity="0.2" d="M23.9652 9.61719L16.0547 13.6822L20.1178 15.9972L23.9652 9.61719Z" fill="black"/>
<path d="M0.0078125 22.8378V13.7678L7.55713 9.63776C7.87315 9.46276 8.27445 9.57276 8.45503 9.88776L16.0595 23.0028V31.9977L0.0078125 22.8378Z" fill="white"/>
<path d="M32.1064 22.8378V13.7678L24.5571 9.63776C24.2411 9.46276 23.8398 9.57276 23.6592 9.88776L16.0547 23.0028V31.9977L32.1064 22.8378Z" fill="#8C8F93"/>
<path d="M47.0372 9.02844C48.6875 9.02844 49.9415 9.41344 50.7993 10.1834C51.6571 10.9534 52.1035 12.0234 52.1035 13.3884C52.1336 14.2634 51.9079 15.1234 51.4514 15.8684C50.9799 16.5734 50.2977 17.1084 49.5001 17.3884L52.2289 22.3084C52.269 22.3734 52.2891 22.4484 52.2891 22.5284C52.2891 22.6434 52.244 22.7534 52.1587 22.8334C52.0784 22.9184 51.9681 22.9634 51.8527 22.9634H50.1673C49.9566 22.9834 49.7459 22.9134 49.5854 22.7734C49.48 22.6734 49.3847 22.5534 49.3145 22.4234L46.7111 17.7834H44.0827V22.4234C44.0776 22.7184 43.8419 22.9584 43.5509 22.9634H41.9458C41.6498 22.9584 41.4141 22.7184 41.4141 22.4234V9.56344C41.4191 9.26844 41.6548 9.02844 41.9458 9.02344H47.0372V9.02844ZM44.0827 15.2984H46.9519C47.5789 15.3284 48.1959 15.1934 48.7527 14.8984C49.2042 14.6334 49.4249 14.1284 49.4249 13.3884C49.4249 12.6484 49.1991 12.1484 48.7527 11.8934C48.1959 11.6184 47.5739 11.4884 46.9519 11.5134H44.0827V15.2984Z" fill="white"/>
<path d="M53.306 17.7896C53.296 17.0746 53.4064 16.3646 53.6321 15.6896C53.8428 15.0596 54.1738 14.4796 54.6102 13.9796C55.0366 13.4946 55.5583 13.1046 56.1452 12.8346C56.7772 12.5496 57.4594 12.4046 58.1517 12.4146C58.8439 12.4046 59.5261 12.5446 60.1581 12.8246C60.735 13.0846 61.2567 13.4546 61.6931 13.9196C62.1194 14.3896 62.4505 14.9346 62.6712 15.5346C62.902 16.1546 63.0223 16.8146 63.0173 17.4746V18.3746C63.0123 18.6696 62.7766 18.9096 62.4806 18.9096H55.8743C55.8693 19.1896 55.9345 19.4696 56.0649 19.7146C56.1903 19.9446 56.3609 20.1446 56.5716 20.3046C56.7923 20.4696 57.0381 20.5896 57.3039 20.6646C57.5798 20.7446 57.8707 20.7846 58.1567 20.7846C58.5028 20.7946 58.8489 20.7496 59.185 20.6596C59.4207 20.5896 59.6364 20.4796 59.8371 20.3346C59.9474 20.2496 60.0678 20.1746 60.1932 20.1146C60.3136 20.0696 60.444 20.0496 60.5694 20.0546H62.1495C62.295 20.0546 62.4355 20.1096 62.5358 20.2146C62.6411 20.3096 62.6963 20.4496 62.6812 20.5896C62.6411 20.8496 62.5358 21.0946 62.3753 21.3096C62.1395 21.6446 61.8486 21.9346 61.5125 22.1646C61.0761 22.4696 60.6046 22.7096 60.0979 22.8796C59.4709 23.0896 58.8088 23.1896 58.1466 23.1796C57.4594 23.1896 56.7722 23.0546 56.1402 22.7896C55.5533 22.5396 55.0266 22.1646 54.6052 21.6846C54.1688 21.1896 53.8378 20.6096 53.6271 19.9796C53.4014 19.2646 53.291 18.5296 53.306 17.7896ZM58.1567 14.7996C57.8256 14.7896 57.4895 14.8496 57.1785 14.9696C56.9227 15.0696 56.692 15.2196 56.4963 15.4096C56.3157 15.5796 56.1703 15.7796 56.0699 16.0046C55.9797 16.2046 55.9144 16.4146 55.8793 16.6346H60.3537C60.3237 16.4196 60.2735 16.2096 60.2033 16.0046C60.133 15.7796 60.0076 15.5746 59.8471 15.3996C59.6665 15.2096 59.4408 15.0596 59.195 14.9596C58.8639 14.8396 58.5078 14.7846 58.1567 14.7996Z" fill="white"/>
<path d="M66.7775 17.0911C66.7273 17.5511 66.7273 18.0211 66.7775 18.4811C66.8026 18.8461 66.8979 19.2061 67.0534 19.5361C67.1838 19.8061 67.3694 20.0511 67.5951 20.2461C67.8108 20.4211 68.0566 20.5561 68.3174 20.6461C68.5783 20.7311 68.8542 20.7761 69.1301 20.7711C69.411 20.7761 69.6919 20.7511 69.9627 20.6911C70.339 20.6111 70.6801 20.4111 70.9409 20.1211C71.0613 19.9861 71.1666 19.8461 71.2669 19.6911C71.3522 19.5661 71.4425 19.4461 71.5428 19.3311C71.6381 19.2211 71.7736 19.1561 71.919 19.1561H73.4239C73.5694 19.1561 73.7098 19.2111 73.8101 19.3111C73.9155 19.4061 73.9706 19.5461 73.9556 19.6911C73.9205 20.0461 73.8202 20.3911 73.6596 20.7061C73.449 21.1411 73.158 21.5261 72.7969 21.8511C72.3605 22.2511 71.8538 22.5611 71.3021 22.7811C70.6098 23.0511 69.8674 23.1761 69.125 23.1611C68.4579 23.1711 67.7907 23.0461 67.1738 22.7911C66.6119 22.5611 66.1003 22.2311 65.6589 21.8111C65.2325 21.3961 64.8914 20.9011 64.6506 20.3561C64.4048 19.8061 64.2544 19.2161 64.2042 18.6161C64.1791 18.3511 64.1641 18.0861 64.1641 17.8211C64.1641 17.5461 64.1741 17.2761 64.2042 17.0061C64.2443 16.4011 64.3898 15.8061 64.6406 15.2561C64.8814 14.7111 65.2275 14.2111 65.6488 13.7911C66.0853 13.3611 66.5969 13.0211 67.1587 12.7861C67.7857 12.5311 68.4529 12.4061 69.1301 12.4161C69.8724 12.3961 70.6148 12.5211 71.3071 12.7861C71.8588 13.0011 72.3655 13.3161 72.8019 13.7161C73.163 14.0361 73.454 14.4261 73.6647 14.8611C73.8252 15.1761 73.9255 15.5211 73.9606 15.8761C73.9757 16.0211 73.9205 16.1611 73.8151 16.2561C73.7098 16.3561 73.5744 16.4111 73.4289 16.4111H71.9241C71.7786 16.4111 71.6381 16.3461 71.5478 16.2361C71.4475 16.1211 71.3572 16.0011 71.272 15.8761C71.1767 15.7261 71.0663 15.5811 70.9459 15.4461C70.6901 15.1561 70.349 14.9611 69.9678 14.8761C69.6919 14.8211 69.416 14.7911 69.1351 14.7961C68.8592 14.7961 68.5883 14.8411 68.3225 14.9211C68.0616 15.0061 67.8158 15.1411 67.6001 15.3211C67.3694 15.5211 67.1788 15.7711 67.0534 16.0511C66.9029 16.3811 66.8076 16.7311 66.7775 17.0911Z" fill="white"/>
<path d="M80.4227 15.0021C79.6351 15.0021 79.0633 15.1771 78.7122 15.5271C78.361 15.8771 78.1855 16.4521 78.1905 17.2471V22.4221C78.1905 22.7171 77.9497 22.9571 77.6588 22.9621H76.1539C76.0135 22.9621 75.878 22.9071 75.7777 22.8021C75.6724 22.7021 75.6172 22.5671 75.6172 22.4221V13.1521C75.6222 12.8571 75.858 12.6171 76.1489 12.6121H77.6538C77.9497 12.6171 78.1855 12.8571 78.1855 13.1521V13.6071C78.5065 13.3021 78.8777 13.0521 79.284 12.8721C79.7706 12.6821 80.2923 12.5921 80.819 12.6121H81.7118C81.8523 12.6121 81.9877 12.6721 82.088 12.7721C82.1934 12.8721 82.2486 13.0071 82.2486 13.1521V14.4571C82.2486 14.6021 82.1934 14.7371 82.088 14.8371C81.9927 14.9421 81.8573 14.9971 81.7118 14.9971L80.4227 15.0021Z" fill="white"/>
<path d="M87.7695 12.4069C88.4367 12.3969 89.0988 12.5069 89.7208 12.7319C90.8495 13.1419 91.7724 13.9819 92.2891 15.0669C92.55 15.6019 92.7004 16.1819 92.7356 16.7769C92.7506 16.9269 92.7556 17.0819 92.7556 17.2319V18.3369C92.7556 18.4869 92.7506 18.6369 92.7356 18.7819C92.6854 19.3769 92.5349 19.9569 92.2791 20.4919C92.0383 21.0169 91.6972 21.4919 91.2758 21.8819C90.8294 22.2819 90.3127 22.5969 89.7509 22.8069C88.4768 23.2619 87.0874 23.2619 85.8132 22.8069C85.2514 22.5969 84.7348 22.2869 84.2883 21.8819C83.862 21.4919 83.5158 21.0219 83.27 20.4969C83.0142 19.9569 82.8637 19.3769 82.8136 18.7869C82.8136 18.6669 82.7885 18.5169 82.7835 18.3419C82.7785 18.1619 82.7835 17.9769 82.7835 17.7919C82.7835 17.6069 82.7835 17.4219 82.7835 17.2319C82.7835 17.0419 82.7985 16.9069 82.8136 16.7769C82.8437 16.1819 82.9891 15.5969 83.245 15.0569C83.7616 13.9769 84.6796 13.1419 85.7982 12.7269C86.4353 12.5119 87.1024 12.3969 87.7695 12.4069ZM90.1623 16.8919C90.1372 16.5319 90.0419 16.1819 89.8763 15.8669C89.7409 15.6069 89.5503 15.3869 89.3145 15.2119C89.0938 15.0569 88.848 14.9419 88.5822 14.8869C88.0454 14.7669 87.4886 14.7669 86.9569 14.8869C86.6911 14.9469 86.4453 15.0569 86.2246 15.2119C85.9888 15.3819 85.7982 15.6069 85.6628 15.8669C85.4972 16.1869 85.3969 16.5319 85.3768 16.8919C85.3768 16.9969 85.3518 17.1319 85.3467 17.2919C85.3417 17.4519 85.3467 17.6169 85.3467 17.7869C85.3467 17.9569 85.3467 18.1119 85.3467 18.2919C85.3467 18.4719 85.3618 18.5869 85.3768 18.6819C85.4019 19.0419 85.4972 19.3919 85.6628 19.7069C85.7982 19.9669 85.9888 20.1869 86.2246 20.3619C86.4453 20.5169 86.6911 20.6319 86.9569 20.6869C87.4937 20.8069 88.0505 20.8069 88.5822 20.6869C88.848 20.6269 89.0938 20.5169 89.3145 20.3619C89.5503 20.1919 89.7459 19.9669 89.8763 19.7069C90.0419 19.3869 90.1422 19.0419 90.1623 18.6819C90.1773 18.5519 90.1823 18.4219 90.1823 18.2919V17.2869C90.1873 17.1569 90.1773 17.0219 90.1623 16.8919Z" fill="white"/>
<path d="M104.287 18.7838L106.068 13.0888C106.108 12.9738 106.168 12.8638 106.238 12.7638C106.334 12.6488 106.474 12.5888 106.624 12.6038H108.129C108.27 12.6038 108.41 12.6588 108.506 12.7638C108.606 12.8638 108.666 12.9988 108.666 13.1438C108.666 13.1888 108.661 13.2388 108.646 13.2788L105.656 22.4588C105.616 22.5788 105.556 22.6888 105.481 22.7838C105.38 22.8988 105.235 22.9588 105.085 22.9438H103.58C103.434 22.9588 103.284 22.8988 103.193 22.7838C103.123 22.6788 103.058 22.5738 103.008 22.4588L101.082 17.1438L99.1604 22.4588C99.1103 22.5738 99.0451 22.6838 98.9698 22.7838C98.8795 22.8988 98.7341 22.9588 98.5836 22.9438H97.0787C96.9283 22.9588 96.7828 22.8988 96.6825 22.7838C96.6022 22.6838 96.542 22.5738 96.5019 22.4588L93.5123 13.2788C93.4972 13.2338 93.4922 13.1888 93.4922 13.1438C93.4922 12.8488 93.733 12.6088 94.0239 12.6038H95.5287C95.6742 12.5888 95.8197 12.6488 95.915 12.7638C95.9852 12.8638 96.0404 12.9738 96.0805 13.0888L97.8663 18.7838L99.7624 13.0888C99.7975 12.9638 99.8627 12.8538 99.953 12.7638C100.048 12.6588 100.179 12.6038 100.319 12.6038H101.824C101.964 12.6038 102.095 12.6588 102.19 12.7638C102.281 12.8538 102.346 12.9688 102.381 13.0888L104.287 18.7838Z" fill="white"/>
<path d="M113.83 12.4103C114.201 12.4053 114.567 12.4453 114.928 12.5303C115.224 12.6003 115.51 12.7003 115.781 12.8253C116.002 12.9303 116.213 13.0603 116.403 13.2153C116.554 13.3353 116.689 13.4653 116.82 13.6053V9.36031C116.82 9.21531 116.875 9.08031 116.98 8.98031C117.075 8.87531 117.211 8.82031 117.356 8.82031H118.861C119.002 8.82031 119.142 8.87531 119.237 8.98031C119.338 9.08031 119.393 9.21531 119.393 9.36031V22.4253C119.393 22.7203 119.152 22.9603 118.861 22.9653H117.356C117.216 22.9653 117.08 22.9103 116.98 22.8053C116.875 22.7053 116.82 22.5703 116.82 22.4253V21.9703C116.689 22.1103 116.554 22.2403 116.403 22.3603C116.213 22.5153 116.002 22.6453 115.781 22.7503C115.51 22.8803 115.224 22.9803 114.928 23.0453C114.567 23.1303 114.201 23.1703 113.83 23.1653C113.208 23.1753 112.596 23.0403 112.034 22.7753C111.512 22.5253 111.051 22.1753 110.67 21.7403C110.289 21.3003 109.983 20.7953 109.777 20.2453C109.561 19.6803 109.436 19.0853 109.411 18.4803C109.396 18.2803 109.391 18.0503 109.391 17.7853C109.391 17.5203 109.396 17.2853 109.411 17.0903C109.436 16.4853 109.556 15.8903 109.777 15.3253C109.983 14.7803 110.289 14.2753 110.67 13.8303C111.046 13.3903 111.512 13.0353 112.034 12.7803C112.596 12.5303 113.208 12.4003 113.83 12.4103ZM111.984 17.2303C111.944 17.6003 111.944 17.9753 111.984 18.3453C112.064 19.2153 112.33 19.8353 112.777 20.2053C113.238 20.5853 113.825 20.7853 114.422 20.7703C115.019 20.7853 115.596 20.5803 116.047 20.1953C116.509 19.7703 116.784 19.1753 116.81 18.5403C116.86 18.0353 116.86 17.5303 116.81 17.0253C116.774 16.4003 116.504 15.8153 116.047 15.3903C115.601 14.9903 115.019 14.7753 114.422 14.7903C113.825 14.7753 113.238 14.9753 112.777 15.3603C112.34 15.7453 112.074 16.3653 111.984 17.2303Z" fill="white"/>
</g>
<defs>
<clipPath id="clip0_32214_59406">
<rect width="122.4" height="32" fill="white"/>
</clipPath>
</defs>
</svg>
