<svg width="120" height="32" viewBox="0 0 120 32" fill="none" xmlns="http://www.w3.org/2000/svg">
<path d="M1.76373 2.39844C0.794146 2.39844 0.0078125 3.15679 0.0078125 4.09187V9.7314C0.0078125 10.6665 0.794146 11.4248 1.76373 11.4248H11.7077V20.449H1.76373C0.794146 20.449 0.0078125 21.2073 0.0078125 22.1424V27.7819C0.0078125 28.717 0.794146 29.4754 1.76373 29.4754H9.95181C10.9214 29.4754 11.7077 28.717 11.7077 27.7819V20.4534H21.6517C22.6213 20.4534 23.4076 19.6951 23.4076 18.76V13.1182C23.4076 12.1832 22.6213 11.4248 21.6517 11.4248H11.71V4.09187C11.71 3.15679 10.9237 2.39844 9.95412 2.39844H1.76373Z" fill="white"/>
<path d="M112.38 6.44495C112.38 6.1698 112.143 5.95728 111.839 5.95728H109.612C109.309 5.95728 109.072 6.18546 109.072 6.44495V9.57007H105.611C105.307 9.57007 105.071 9.79825 105.071 10.0577V11.6684C105.071 11.9436 105.307 12.1561 105.611 12.1561H109.072V16.9433C109.072 20.6053 110.86 22.2987 114.711 22.2987H117.849C118.153 22.2987 118.39 22.0706 118.39 21.8111V20.2004C118.39 19.9253 118.153 19.7127 117.849 19.7127H115.216C113.122 19.7127 112.38 18.9141 112.38 16.9276V12.174H118.237C118.54 12.1561 118.777 11.9279 118.777 11.6684V10.0577C118.777 9.78259 118.54 9.57007 118.237 9.57007H112.38V6.44495Z" fill="white"/>
<path d="M101.575 10.06C101.575 9.78483 101.339 9.57231 101.035 9.57231V9.57455H94.2313C93.9275 9.57455 93.6909 9.80272 93.6909 10.0622V11.6729C93.6909 11.948 93.9275 12.1605 94.2313 12.1605H98.2651V19.715H94.2313C93.9275 19.715 93.6909 19.9431 93.6909 20.2026V21.8133C93.6909 22.0885 93.9275 22.301 94.2313 22.301H105.711C106.015 22.301 106.251 22.0728 106.251 21.8133V20.2026C106.251 19.9275 106.015 19.715 105.711 19.715H101.575V10.06Z" fill="white"/>
<path d="M101.71 5.143C101.693 4.86785 101.457 4.65533 101.169 4.65533H98.1306C97.8267 4.65533 97.5901 4.88351 97.5901 5.143V7.21001C97.5901 7.48517 97.8267 7.69768 98.1306 7.69768H101.169C101.473 7.69768 101.71 7.46951 101.71 7.21001V5.143Z" fill="white"/>
<path d="M87.6971 19.715H91.1417C91.4455 19.715 91.6821 19.9253 91.6821 20.2026V21.8133C91.6821 22.0728 91.4455 22.301 91.1417 22.301H79.915C79.6111 22.301 79.3745 22.0907 79.3745 21.8133V20.2026C79.3745 19.9431 79.6111 19.715 79.915 19.715H84.3894V7.24357H80.4044C80.1005 7.24357 79.8639 7.03329 79.8639 6.7559V5.143C79.8639 4.88351 80.1005 4.65533 80.4044 4.65533H87.1567C87.4605 4.65533 87.6971 4.86561 87.6971 5.143V19.715Z" fill="white"/>
<path fill-rule="evenodd" clip-rule="evenodd" d="M70.1913 10.1562C70.8315 9.57007 71.6596 9.32624 72.8078 9.32624C76.1689 9.32624 78.1266 11.5096 78.1405 15.9523C78.1405 20.3973 76.1665 22.5784 72.8913 22.5784C71.7617 22.5784 71.0009 22.301 70.3769 21.7484L69.5836 21.0169L68.8414 21.1802L69.129 23.1175V26.7325C69.129 26.992 68.8924 27.2202 68.5885 27.2202H66.3594C66.0555 27.2202 65.819 27.0099 65.819 26.7325V10.06C65.819 9.80049 66.0555 9.57231 66.3594 9.57231H67.8787C68.1339 9.57231 68.3357 9.73338 68.403 9.94589L68.672 10.8899H69.398L70.1913 10.1562ZM69.1104 17.5003C69.1104 19.0797 70.0383 19.9096 71.7107 19.9096C73.7542 19.9096 74.6658 18.6725 74.682 15.9232C74.682 13.203 73.7542 11.9659 71.7107 11.9659C70.022 11.9659 69.1104 12.7959 69.1104 14.3752V17.5003Z" fill="white"/>
<path fill-rule="evenodd" clip-rule="evenodd" d="M49.8487 15.9366C49.8487 11.5073 52.1289 9.32624 56.383 9.32624C60.7553 9.32624 62.8661 11.5252 62.3582 16.4265H53.124C53.2585 19.0483 54.2721 20.1713 56.3992 20.1713C57.7677 20.1713 58.7791 19.715 59.134 18.7553C59.2175 18.5584 59.4193 18.4287 59.6396 18.4287H61.6646C62.0033 18.4287 62.2723 18.7217 62.1888 19.0304C61.6321 21.2608 59.5376 22.5627 56.2971 22.5627C52.1103 22.5627 49.8487 20.3816 49.8487 15.9366ZM56.3667 11.6237C54.5435 11.6237 53.5461 12.5185 53.226 14.4401H59.2708C59.2198 12.6169 58.3082 11.6237 56.3667 11.6237Z" fill="white"/>
<path d="M42.505 10.8743L43.2658 10.1405C43.9246 9.55441 44.9196 9.32624 46.1838 9.34413H47.9049C48.2088 9.34413 48.4454 9.55441 48.4454 9.8318V11.6058C48.4454 11.8653 48.2088 12.0934 47.9049 12.0934H45.0008C43.2124 12.0934 42.3009 12.8742 42.3009 14.373V19.7127H46.1676C46.4714 19.7127 46.708 19.923 46.708 20.2004V21.8111C46.708 22.0706 46.4714 22.2987 46.1676 22.2987H35.6507C35.3468 22.2987 35.1102 22.0885 35.1102 21.8111V20.2004C35.1102 19.9409 35.3468 19.7127 35.6507 19.7127H38.9931V12.1583H36.1238C35.82 12.1583 35.5834 11.948 35.5834 11.6706V10.06C35.5834 9.80049 35.82 9.57231 36.1238 9.57231H40.9857C41.2408 9.57231 41.4589 9.71772 41.5099 9.94589L41.7465 10.8743H42.505Z" fill="white"/>
</svg>
