<svg width="130" height="32" viewBox="0 0 130 32" fill="none" xmlns="http://www.w3.org/2000/svg">
<path d="M21.6182 20.4375H12.7695V29.2012H4V11.5879H21.6182V20.4375ZM63.5498 20.1631C63.5498 20.792 63.6697 21.3472 63.9102 21.8281C64.1691 22.2904 64.5299 22.6601 64.9922 22.9375C65.4731 23.1965 66.0097 23.3262 66.6016 23.3262C67.1935 23.3262 67.7211 23.1965 68.1836 22.9375C68.6458 22.66 69.0067 22.2806 69.2656 21.7998C69.5244 21.319 69.6543 20.7457 69.6543 20.0801V11.2285H73.2891V26.3232H69.8477V24.5293C69.4973 25.1373 69.0164 25.6146 68.4053 25.9619C67.6099 26.4244 66.6754 26.6562 65.6025 26.6562C64.4373 26.6562 63.4201 26.3968 62.5508 25.8789C61.6999 25.361 61.0425 24.6398 60.5801 23.7148C60.1362 22.7901 59.9151 21.7079 59.915 20.4688V11.2285H63.5498V20.1631ZM119.954 10.8906C121.027 10.8906 122.025 11.0853 122.95 11.4736C123.875 11.8436 124.671 12.3614 125.337 13.0273C126.021 13.6748 126.512 14.452 126.808 15.3584L123.616 16.7451C123.339 15.9868 122.867 15.3765 122.201 14.9141C121.554 14.4517 120.805 14.2207 119.954 14.2207C119.159 14.2207 118.446 14.4143 117.817 14.8027C117.207 15.1911 116.726 15.7279 116.375 16.4121C116.024 17.0964 115.848 17.8827 115.848 18.7705C115.848 19.6584 116.024 20.4454 116.375 21.1299C116.726 21.814 117.207 22.3499 117.817 22.7383C118.446 23.1267 119.159 23.3213 119.954 23.3213C120.823 23.3213 121.582 23.0904 122.229 22.6279C122.877 22.1655 123.339 21.5454 123.616 20.7686L126.808 22.2119C126.512 23.0627 126.03 23.8303 125.364 24.5146C124.698 25.1805 123.903 25.7083 122.979 26.0967C122.054 26.4666 121.045 26.6513 119.954 26.6514C118.456 26.6514 117.106 26.3084 115.903 25.624C114.719 24.9211 113.785 23.9778 113.101 22.7939C112.416 21.5916 112.074 20.2415 112.074 18.7432C112.074 17.2448 112.416 15.9036 113.101 14.7197C113.785 13.5359 114.719 12.6014 115.903 11.917C117.106 11.2327 118.456 10.8906 119.954 10.8906ZM80.3037 12.749C80.7366 12.2755 81.2532 11.8861 81.8574 11.584C82.7453 11.1215 83.7721 10.8896 84.9375 10.8896C86.3617 10.8897 87.6471 11.2415 88.7939 11.9443C89.9408 12.6473 90.8477 13.5905 91.5137 14.7744C92.1981 15.9583 92.54 17.2907 92.54 18.7705C92.54 20.2317 92.2069 21.5634 91.541 22.7656C90.8751 23.968 89.9691 24.9211 88.8223 25.624C87.6754 26.3085 86.3705 26.6504 84.9092 26.6504C83.818 26.6503 82.8095 26.4371 81.8848 26.0117C81.1672 25.6602 80.5677 25.1909 80.082 24.6074V26.3174H76.6689V5.3125H80.3037V12.749ZM49.8682 5.64453C51.274 5.64454 52.5131 5.90395 53.5859 6.42188C54.6773 6.92133 55.5282 7.66119 56.1387 8.6416C56.749 9.60346 57.0547 10.7778 57.0547 12.165C57.0547 13.5892 56.7126 14.801 56.0283 15.7998C55.3624 16.7987 54.4555 17.5386 53.3086 18.0195L58.0537 26.3164H53.7803L49.5098 18.6855H45.9561V26.3164H42.1826V5.64453H49.8682ZM109.326 26.3164H105.691V11.2217H109.326V26.3164ZM103.691 14.2734H102.388C101.352 14.2734 100.52 14.597 99.8906 15.2441C99.2617 15.8731 98.9473 16.7614 98.9473 17.9082V26.3154H95.3125V11.2207H98.7246V13.3496C99.0638 12.6049 99.5167 12.0617 100.085 11.7207C100.843 11.2769 101.749 11.0547 102.804 11.0547H103.691V14.2734ZM84.4932 14.2197C83.6979 14.2198 82.9764 14.4134 82.3291 14.8018C81.7002 15.1902 81.201 15.7365 80.8311 16.4395C80.4796 17.1239 80.3037 17.9011 80.3037 18.7705C80.3038 19.6583 80.4796 20.4446 80.8311 21.1289C81.201 21.8132 81.7003 22.3499 82.3291 22.7383C82.9764 23.1267 83.6979 23.3203 84.4932 23.3203C85.3254 23.3203 86.0655 23.1266 86.7129 22.7383C87.3603 22.3498 87.8605 21.8133 88.2119 21.1289C88.5818 20.4446 88.7665 19.6583 88.7666 18.7705C88.7666 17.8827 88.5818 17.1053 88.2119 16.4395C87.8605 15.755 87.3603 15.2185 86.7129 14.8301C86.0655 14.4232 85.3255 14.2197 84.4932 14.2197ZM45.9561 15.3564H49.9238C50.6081 15.3564 51.1999 15.2267 51.6992 14.9678C52.1987 14.6903 52.5878 14.311 52.8652 13.8301C53.1426 13.3492 53.2812 12.7939 53.2812 12.165C53.2812 11.5177 53.1427 10.9624 52.8652 10.5C52.5878 10.0191 52.1987 9.64959 51.6992 9.39062C51.1998 9.1132 50.6081 8.97464 49.9238 8.97461H45.9561V15.3564ZM12.7695 11.582H4V2.8125H12.7695V11.582ZM30.3896 11.582H21.6201V2.8125H30.3896V11.582ZM109.326 9.5293H105.691V5.64453H109.326V9.5293Z" fill="white"/>
</svg>
