<svg width="149" height="32" viewBox="0 0 149 32" fill="none" xmlns="http://www.w3.org/2000/svg">
<path d="M0 5.5C0 3.567 1.567 2 3.5 2H24.5C26.433 2 28 3.567 28 5.5V26.5C28 28.433 26.433 30 24.5 30H17.014H3.5C1.567 30 0 28.433 0 26.5V13.6672V5.5Z" fill="white"/>
<path d="M4.65229 11.466L4.6656 11.4538C4.74408 11.3805 4.8208 11.2638 4.898 11.1829C5.97538 10.0536 7.63995 9.71746 9.1426 9.76626C10.5366 9.81153 11.9817 10.1803 12.9681 11.2227C13.1884 11.458 13.377 11.721 13.5293 12.005C13.8501 12.6245 13.9746 13.1962 14.0083 13.8848L9.70803 13.8843C9.6896 13.6025 9.62772 13.3003 9.42 13.0947C9.17945 12.85 8.65639 12.7722 8.41384 13.051C8.13752 13.3685 8.23232 13.8131 8.53649 14.0701C8.82638 14.3173 9.19552 14.4825 9.54756 14.6255C10.7538 15.1153 12.0501 15.4827 13.0569 16.3476C13.7297 16.9255 14.1214 17.6769 14.1652 18.5683C14.2147 19.573 13.9165 20.5823 13.2377 21.3393C12.373 22.3132 11.0934 22.7422 9.82331 22.8182C8.25039 22.9124 6.48547 22.6198 5.27065 21.5398C4.42152 20.785 4.0003 19.7484 3.9375 18.6287L8.18553 18.6273C8.2135 19.3312 8.60087 19.8224 9.34315 19.7065C9.91342 19.6386 10.1177 19.013 9.71788 18.6066C9.30664 18.1886 8.57944 17.9627 8.03753 17.7712C7.69442 17.6531 7.3535 17.5288 7.01496 17.3983C5.65892 16.8661 4.32709 16.0617 4.04367 14.5037C3.84079 13.3886 4.01739 12.4101 4.65229 11.466Z" fill="black"/>
<path d="M15.5665 9.98888C15.6173 9.97366 16.085 9.9799 16.1849 9.97992L17.7543 9.98064L21.9493 9.98044C22.6359 9.9804 23.3723 9.96699 24.0559 9.98097L24.0567 12.1181C24.0568 12.3356 24.0726 12.9495 24.0508 13.1432L24.0335 13.1589C23.9604 13.2786 23.6811 13.5435 23.5727 13.6513L22.8211 14.399C22.7475 14.4723 22.558 14.6501 22.5142 14.7297L23.5174 14.7302C23.5174 15.0097 23.5297 17.6738 23.5053 17.7206L23.4982 17.7256C23.444 17.8127 23.2218 18.0257 23.1418 18.1056L22.2289 19.0152C22.1189 19.1248 21.8191 19.409 21.749 19.5212L24.0575 19.5227L24.0577 22.7105L18.8027 22.7118C17.9582 22.7118 17.0952 22.7022 16.252 22.712L15.5646 22.7108V13.8027C15.5644 12.538 15.5522 11.2523 15.5665 9.98888Z" fill="black"/>
<path d="M19.564 13.1623L22.4466 13.1621C22.9591 13.1623 23.5294 13.1752 24.0344 13.1582C23.9614 13.2779 23.682 13.5427 23.5736 13.6506L22.8221 14.3983C22.7485 14.4716 22.559 14.6494 22.5152 14.729C21.5639 14.7477 20.519 14.7369 19.5643 14.7286C19.5477 14.2572 19.5559 13.6383 19.564 13.1623Z" fill="white"/>
<path d="M19.5609 17.7276C19.9964 17.7175 20.4657 17.7261 20.9034 17.7261L23.4984 17.7251C23.4441 17.8122 23.2219 18.0252 23.1419 18.1051L22.229 19.0147C22.1191 19.1243 21.8192 19.4085 21.7491 19.5207C21.0362 19.5365 20.2812 19.519 19.5619 19.5236C19.555 18.9299 19.5611 18.3224 19.5609 17.7276Z" fill="white"/>
<path fill-rule="evenodd" clip-rule="evenodd" d="M86.5352 13.5245C87.9361 13.46 88.3225 13.5097 89.3096 14.5333L89.3164 13.5714L92.4072 13.5675L92.4121 18.9063C92.4145 19.8233 92.4369 20.7421 92.3926 21.6671C92.2417 24.8041 89.827 25.7398 87.0869 25.2647C86.1588 25.1034 85.6238 24.7691 84.9512 24.1427C84.3637 23.4718 84.2228 22.8858 84.0049 22.0577L87.0898 22.0509C87.5097 22.6604 88.2303 23.0886 88.8496 22.4454C89.3891 21.8833 89.3195 21.2488 89.3154 20.5343C86.9413 23.2291 83.6766 20.6284 83.8496 17.5655C83.9613 15.59 84.416 14.0859 86.5352 13.5245ZM56.2227 13.5196C57.5001 13.4551 57.8532 13.5989 58.8584 14.3868L58.9209 14.2735C58.9133 14.0253 58.8725 13.8222 58.998 13.6183C59.5829 13.4941 61.3554 13.565 62.0537 13.5763L62.0518 21.5001H59.1279L58.9678 21.4493C58.859 21.2228 58.8986 20.8614 58.9043 20.5929C57.9105 21.604 56.5042 22.0442 55.2705 21.2403C52.5736 19.4823 52.8066 14.3353 56.2227 13.5196ZM127.205 13.5284C130.383 13.3494 132.083 14.8293 131.933 18.0987C131.147 18.1422 127.459 18.0311 126.999 18.1593C126.954 18.3969 126.978 18.5302 127.104 18.7735C127.193 18.946 127.359 19.0651 127.551 19.0958C127.95 19.1562 128.255 18.9223 128.514 18.6603C129.282 18.6562 131 18.597 131.674 18.6905C131.76 18.9161 131.683 18.9884 131.604 19.2794C129.912 22.7397 124.625 22.3161 123.933 18.4396C123.504 16.0325 124.649 13.9601 127.205 13.5284ZM135.978 13.4864C137.898 13.5308 139.521 14.1342 139.826 16.2843C139.396 16.3794 137.661 16.3445 137.136 16.3429C136.798 15.8365 136.602 15.5755 135.951 15.7569C135.72 15.9624 135.773 15.8415 135.742 16.1095C136.027 16.5433 137.805 16.7195 138.467 17.0646C139.759 17.6339 140.228 18.8145 139.548 20.1144C138.595 21.9346 135.612 21.9508 134.022 21.004C133.059 20.4299 132.701 19.7664 132.459 18.7481L135.414 18.7442C135.76 19.2039 136.015 19.5829 136.674 19.3321C136.873 19.1068 136.832 19.2315 136.835 18.9562C136.327 18.1795 133.211 18.7402 132.848 16.4015C132.749 15.7782 132.92 15.1419 133.318 14.6524C134.005 13.7954 134.951 13.5719 135.978 13.4864ZM118.666 13.5274C121.232 13.3388 122.611 14.2602 123.341 16.7472L120.078 16.7638C119.808 16.396 119.388 15.9242 118.918 16.2862C117.915 17.0584 118.764 20.3043 120.044 18.3136C120.64 18.3071 122.909 18.2078 123.239 18.4103L123.263 18.631C123.122 19.035 123.012 19.3352 122.804 19.7198C121.912 21.6253 118.66 22.2094 117.019 20.9776C114.116 18.7985 114.904 14.1718 118.666 13.5274ZM38.1406 11.4298C40.7053 11.2443 42.4754 11.8418 42.9609 14.629C42.3872 14.6314 39.9668 14.7352 39.5889 14.5411C39.3781 14.0581 39.118 13.5279 38.5244 14.005C38.0331 15.2058 41.0168 15.5378 41.9062 16.3185C44.3076 18.4265 42.7935 21.2199 39.6982 21.5997C37.2005 21.7569 35.5323 20.9063 35 18.3321C35.5774 18.3087 37.882 18.2346 38.334 18.3556C38.4797 18.7191 38.5508 18.9883 38.9014 19.1544C39.3712 19.1947 39.616 19.114 39.7148 18.6397C39.3381 17.465 35.3001 17.4608 35.0947 14.9464C34.9099 12.6828 36.1237 11.8153 38.1406 11.4298ZM143.114 13.6075C145.551 13.1124 147.332 13.8808 147.996 16.3292L145.238 16.3429C144.906 15.8179 144.56 15.5836 143.907 15.669C143.739 15.8372 143.801 15.7336 143.791 16.0343C144.139 16.6803 148.928 16.8075 147.882 19.6349C147.557 20.5147 147.288 20.6733 146.591 21.1935C145.272 21.7757 143.52 21.7709 142.237 21.0733C141.207 20.5121 140.865 19.8081 140.548 18.7452L143.551 18.7442C143.88 19.2837 144.488 19.7641 144.985 19.1036L144.958 18.9249C143.992 17.9491 140.038 18.7502 141.139 15.13C141.598 14.3624 142.226 13.7873 143.114 13.6075ZM109.134 13.5665C109.579 14.1649 110.033 14.7562 110.496 15.3409L111.484 13.5685H114.942L112.194 17.6407C112.913 18.7359 114.16 20.2951 114.974 21.3839C114.742 21.5797 112.065 21.5027 111.557 21.5011L110.227 19.7364L109.262 21.4962L105.806 21.4933C106.658 20.1103 107.568 18.7096 108.439 17.3331C107.566 16.1009 106.56 14.7998 105.657 13.5772L109.134 13.5665ZM69.0449 13.5392C69.2453 13.8868 69.1516 16.2767 69.1445 16.8751C66.3383 16.8017 66.4569 17.4855 66.5283 20.0587C66.5411 20.5158 66.5453 21.0217 66.5537 21.4845C65.9212 21.4877 64.0337 21.5337 63.5029 21.4386C63.405 21.2193 63.4334 20.8527 63.4336 20.5948L63.4375 13.5626L66.5488 13.5655C66.5448 14.0106 66.5597 14.4872 66.5654 14.9347C67.3637 14.0951 67.705 13.8032 68.834 13.504L69.0449 13.5392ZM73.1045 21.4913L69.9639 21.4981L69.9609 13.5694L73.1016 13.5665L73.1045 21.4913ZM79.6943 13.5284C81.2471 13.4099 82.5983 14.3039 82.8164 15.8312C83.0651 17.5746 82.9488 19.724 82.9414 21.4981H79.832C79.8303 20.6974 79.8575 19.9511 79.8564 19.0851C79.8552 18.0439 80.1185 15.685 78.3271 16.1544C77.9724 16.2472 77.8339 16.5294 77.6748 16.8438C77.5635 18.131 77.626 20.1566 77.627 21.4952H74.4932L74.4873 13.5753L77.627 13.5743C77.6268 13.946 77.6322 14.2503 77.6582 14.6212C78.414 13.9083 78.6685 13.7139 79.6943 13.5284ZM47.2461 14.6993L47.3018 14.6378C48.0863 13.7733 49.057 13.3189 50.2207 13.5567C52.8428 14.0922 52.5673 16.7716 52.5547 18.7579V21.4884L49.4521 21.4952L49.4512 20.379C49.4429 19.7024 50.0341 14.8792 47.6826 16.3155C46.9866 16.7411 47.2366 20.5107 47.2412 21.4913L44.1133 21.4903C44.1101 18.0515 44.0783 14.5687 44.1191 11.1339L47.2402 11.1271L47.2461 14.6993ZM105.214 14.0685H101.722L101.713 15.2638L104.794 15.2667L104.792 17.6212C104.073 17.6212 102.424 17.5624 101.804 17.6583C101.68 17.889 101.712 18.2352 101.711 18.5118C101.717 18.6528 101.734 18.7768 101.749 18.9161C101.997 19.087 104.693 19.0133 105.213 19.0108V21.4942L98.5664 21.4952L98.5684 11.5509H105.209L105.214 14.0685ZM57.375 16.2501C56.0714 17.2226 56.5659 19.0829 58.1416 18.8438C59.4777 18.0075 59.1576 16.067 57.375 16.2501ZM87.7852 16.2481C86.4492 17.0563 86.8871 19.1262 88.5459 18.8253C89.8341 18.0019 89.4981 16.0885 87.7852 16.2481ZM127.603 15.9337C127.293 16.1126 127.23 16.1264 127.023 16.4044L127.039 16.5685C127.438 16.7916 127.821 16.7225 128.282 16.7071C128.637 16.6878 128.573 16.7492 128.748 16.5567C128.58 16.0164 128.102 15.9313 127.603 15.9337ZM71.001 9.88779C73.5981 9.67514 74.2618 12.1734 72.0361 12.9356C71.1841 13.0276 70.3187 12.8752 69.8867 12.0421C69.7106 11.7098 69.682 11.319 69.8076 10.9649C70.0183 10.3652 70.4637 10.1281 71.001 9.88779Z" fill="white"/>
</svg>
