<svg width="128" height="32" viewBox="0 0 128 32" fill="none" xmlns="http://www.w3.org/2000/svg">
<g clip-path="url(#clip0_32214_59503)">
<path d="M34.6406 20.5563H34.9642L36.4205 21.9433C37.877 23.3303 38.7091 23.9775 40.2348 23.9775C42.1533 23.9775 43.286 23.0297 43.286 21.3656C43.286 20.0709 42.6849 19.3542 41.4136 18.6608C40.1653 17.9905 38.2698 17.5051 36.9754 16.6958C35.704 15.8868 35.0335 14.6847 35.0335 12.9741C35.0335 10.4544 36.9754 8.42023 40.2348 8.42023C41.1825 8.42023 42.0608 8.58204 43.1703 8.58204H44.3724L45.4589 12.0497H45.1122L43.6327 10.6396C42.1303 9.20617 41.3674 8.90591 40.2117 8.90591C38.6398 8.90591 37.5764 9.80723 37.5764 11.2173C37.5764 12.2807 38.1542 13.0205 39.287 13.5985C40.4197 14.1993 42.3382 14.7311 43.7022 15.517C45.0661 16.326 45.8056 17.4125 45.8056 19.3311C45.8056 22.1743 43.5865 24.4629 40.1422 24.4629C38.9401 24.4629 37.8536 24.3011 36.6748 24.3011H35.704L34.6406 20.5563ZM58.3807 24.3577V24.4734H53.7114V24.358L54.3817 23.3177V17.0763C54.3817 15.6662 53.5032 15.1808 52.4167 15.1808C51.7464 15.1808 51.238 15.3657 50.9143 15.5737V23.3177L51.5846 24.3577V24.4734H46.9382V24.358L47.6319 23.3177V10.257L46.7995 8.75433V8.63894L50.9143 7.94531V15.2501C51.6772 14.2098 52.9486 13.1697 54.6361 13.1697C56.5547 13.1697 57.6873 14.4641 57.6873 16.3827V23.3179L58.3807 24.3577ZM69.4302 21.6071C68.8525 23.1325 67.3499 24.7044 64.6454 24.7044C61.409 24.7044 59.3056 22.4161 59.3056 19.1798C59.3056 15.7586 61.5939 13.1697 64.7146 13.1697C67.3268 13.1697 69.1066 14.8339 69.3379 17.3304H62.1719C62.195 20.2201 63.4432 22.3235 66.4252 22.3235C67.6966 22.3235 68.6674 21.9307 69.2454 21.445L69.4302 21.6071ZM62.1719 16.8684H65.9167C65.8011 14.649 65.2695 13.6782 64.1135 13.6782C62.9578 13.6782 62.2411 14.6029 62.1719 16.8681M81.5663 18.001C81.5663 21.6532 78.7692 24.4734 75.6255 24.4734H74.1459V28.2644L74.8857 29.3047V29.4201H70.17V29.3047L70.8634 28.2644V14.9726L70.1931 13.5164V13.401H74.1459V15.2734C74.8164 14.1867 75.926 13.1697 77.6133 13.1697C79.9944 13.1697 81.5663 15.2731 81.5663 18.001ZM78.4687 19.8965C78.4687 16.9607 77.6366 15.227 75.5329 15.227C74.8857 15.227 74.4464 15.3888 74.1459 15.5967V22.832L77.1048 23.8031C77.9371 23.2713 78.4687 21.9538 78.4687 19.8965ZM94.0026 24.3577V24.4734H89.3331V24.358L90.0037 23.3177V17.0763C90.0037 15.6662 89.1252 15.1808 88.0387 15.1808C87.3684 15.1808 86.8597 15.3657 86.5361 15.5737V23.3177L87.2066 24.3577V24.4734H82.5602V24.358L83.2536 23.3177V10.257L82.4215 8.75433V8.63894L86.5361 7.94531V15.2501C87.2989 14.2098 88.5703 13.1697 90.2578 13.1697C92.1764 13.1697 93.3093 14.4641 93.3093 16.3827V23.3179L94.0026 24.3577ZM105.052 21.6071C104.474 23.1325 102.972 24.7044 100.267 24.7044C97.031 24.7044 94.9273 22.4161 94.9273 19.1798C94.9273 15.7586 97.2159 13.1697 100.337 13.1697C102.949 13.1697 104.729 14.8339 104.96 17.3304H97.7939C97.8169 20.2201 99.0652 22.3235 102.047 22.3235C103.319 22.3235 104.289 21.9307 104.867 21.445L105.052 21.6071ZM97.7939 16.8684H101.539C101.423 14.649 100.891 13.6782 99.7355 13.6782C98.5798 13.6782 97.8631 14.6029 97.7939 16.8681M113.513 13.3087V16.6837H110.6C110.276 16.6837 109.999 16.7296 109.791 16.8222V23.3179L110.531 24.358V24.4734H105.792V24.358L106.485 23.3179V14.9729L105.838 13.5166V13.4013H109.791V16.4755C110.461 14.9498 111.594 13.3087 113.259 13.3087H113.513ZM125.256 24.3577V24.4734H121.857L121.442 22.4161C120.794 23.7567 119.661 24.7047 118.043 24.7047C115.663 24.7047 113.975 22.6702 113.975 19.827C113.975 16.0822 116.795 13.4933 120.147 13.3084L121.372 13.2389V10.2572L120.563 8.75459V8.63894L124.678 7.94531V22.2081L125.256 24.3577ZM121.372 22.1848V15.019L118.298 14.1867C117.512 14.8108 117.096 16.1517 117.096 17.9315C117.096 21.006 118.043 22.624 119.939 22.624C120.517 22.624 121.025 22.4622 121.372 22.1848Z" fill="white"/>
<path d="M17.4104 3.19531L8.70312 11.9025H17.4104V20.61L26.1176 11.9025V3.19531H17.4104Z" fill="white"/>
<path d="M8.70724 29.3131L17.4147 20.6057H8.70724V11.8984L0 20.6057V29.3131H8.70724Z" fill="white"/>
</g>
<defs>
<clipPath id="clip0_32214_59503">
<rect width="127.2" height="32" fill="white"/>
</clipPath>
</defs>
</svg>
