<svg width="135" height="32" viewBox="0 0 135 32" fill="none" xmlns="http://www.w3.org/2000/svg">
<path d="M20.4878 2.5C27.946 2.50015 33.9917 8.54424 33.9917 16C33.9917 23.4558 27.946 29.4998 20.4878 29.5C13.0294 29.5 6.98291 23.4559 6.98291 16C6.98295 8.54415 13.0294 2.5 20.4878 2.5ZM42.353 7.48633C45.033 7.48633 46.3608 9.08925 46.3608 11.8936V12.6191H43.7554V11.7178C43.7554 10.466 43.2549 9.99034 42.3784 9.99023C41.5018 9.99023 41.0005 10.4661 41.0005 11.668C41.0006 12.9448 41.5771 13.8709 43.3804 15.4482C45.6846 17.4763 46.4106 18.8793 46.4106 21.0576C46.4105 23.9117 44.9574 25.5137 42.2524 25.5137C39.5477 25.5135 38.1959 23.9115 38.1958 21.1074V20.1055H40.8003V21.3076C40.8003 22.5595 41.3514 23.0098 42.228 23.0098C43.1045 23.0097 43.6557 22.5595 43.6558 21.2578C43.6558 19.8057 43.1044 18.879 41.3013 17.3018C38.997 15.2736 38.2456 13.8459 38.2456 11.8428C38.2457 9.08872 39.6731 7.48635 42.353 7.48633ZM75.1294 7.48633C77.8093 7.4864 79.1362 9.08931 79.1362 11.8936V12.6191H76.5317V11.7178C76.5317 10.4659 76.0304 9.99023 75.1538 9.99023C74.2774 9.9904 73.7769 10.4663 73.7769 11.668C73.7769 12.9447 74.3528 13.8711 76.1558 15.4482C78.4601 17.4764 79.187 18.8793 79.187 21.0576C79.1869 23.9117 77.7337 25.5137 75.0288 25.5137C72.3239 25.5136 70.9712 23.9116 70.9712 21.1074V20.1055H73.5767V21.3076C73.5767 22.5595 74.1278 23.0098 75.0044 23.0098C75.8807 23.0096 76.432 22.5594 76.4321 21.2578C76.4321 19.8057 75.8807 18.879 74.0776 17.3018C71.7733 15.2736 71.022 13.8459 71.022 11.8428C71.0221 9.08869 72.4495 7.48633 75.1294 7.48633ZM95.4526 7.48633C98.1327 7.48633 99.4604 9.08925 99.4604 11.8936V12.6191H96.855V11.7178C96.855 10.466 96.3545 9.99034 95.478 9.99023C94.6014 9.99023 94.1001 10.4661 94.1001 11.668C94.1002 12.9448 94.6767 13.8709 96.48 15.4482C98.7843 17.4763 99.5103 18.8793 99.5103 21.0576C99.5101 23.9117 98.057 25.5137 95.3521 25.5137C92.6473 25.5135 91.2955 23.9115 91.2954 21.1074V20.1055H93.8999V21.3076C93.8999 22.5595 94.451 23.0098 95.3276 23.0098C96.2041 23.0097 96.7553 22.5595 96.7554 21.2578C96.7554 19.8056 96.2041 18.879 94.4009 17.3018C92.0966 15.2736 91.3452 13.8459 91.3452 11.8428C91.3453 9.08872 92.7728 7.48636 95.4526 7.48633ZM53.6763 20.2812H53.7261L55.479 7.73633H59.4116V25.2637H56.8071V11.9932H56.7563L54.7534 25.2637H52.4487L50.4448 11.9932H50.395V25.2637H47.9907V7.73633H51.9224L53.6763 20.2812ZM70.1841 25.2637H67.4292L66.9282 21.7832V21.833H63.7974L63.2964 25.2637H60.7417L63.5972 7.73633H67.3286L70.1841 25.2637ZM83.522 14.873H86.4771V7.73633H89.2329V25.2637H86.4771V17.377H83.522V25.2637H80.7671V7.73633H83.522V14.873ZM108.604 10.2402H103.845V14.873H107.627V17.377H103.845V22.7598H108.604V25.2637H101.09V7.73633H108.604V10.2402ZM116.326 18.2275H116.375V7.73633H118.831V25.2637H116L112.694 12.4688H112.644V25.2637H110.189V7.73633H113.645L116.326 18.2275ZM125.085 7.73633C127.841 7.73633 129.194 9.26406 129.194 12.0684V20.9316C129.194 23.7359 127.841 25.2637 125.085 25.2637H120.878V7.73633H125.085ZM24.938 19.6387C24.4332 19.6388 23.9894 19.7459 23.6069 19.96C23.2246 20.1588 22.9256 20.4416 22.7114 20.8086C22.5126 21.1758 22.4126 21.6124 22.4126 22.1172C22.4126 22.6066 22.5198 23.0352 22.7339 23.4023C22.9481 23.7694 23.2469 24.0531 23.6294 24.252C24.0118 24.4661 24.4485 24.5731 24.938 24.5732C25.4276 24.5732 25.8569 24.4661 26.2241 24.252C26.6067 24.0532 26.8972 23.7694 27.0962 23.4023C27.3105 23.0351 27.4184 22.6068 27.4185 22.1172C27.4184 21.6123 27.3105 21.1758 27.0962 20.8086C26.8972 20.4416 26.6066 20.1588 26.2241 19.96C25.8568 19.7458 25.4277 19.6387 24.938 19.6387ZM123.633 22.7598H125.036C125.912 22.7598 126.438 22.3092 126.438 21.0576V11.9434C126.438 10.6914 125.912 10.2402 125.036 10.2402H123.633V22.7598ZM16.2642 14.0615L15.0015 11.2812L12.9351 12.4746L14.4868 14.8105L11.7183 14.6094V16.9502L14.479 16.7656L12.9116 19.1074L14.978 20.2783L16.2612 17.4766L17.5269 20.3018L19.5933 19.1074L18.0249 16.7646L20.8101 16.9502V14.6094L18.0337 14.8105L19.5933 12.498L17.5269 11.2812L16.2642 14.0615ZM64.1226 19.4551H66.6021L65.3755 10.791H65.3247L64.1226 19.4551ZM23.1479 18.4678H26.6831L27.3726 7.91016H22.4585L23.1479 18.4678Z" fill="white"/>
</svg>
