<svg width="124" height="32" viewBox="0 0 124 32" fill="none" xmlns="http://www.w3.org/2000/svg">
<path fill-rule="evenodd" clip-rule="evenodd" d="M116.828 5.73576C117.316 6.2255 117.893 6.47037 118.557 6.47037C119.242 6.47037 119.829 6.2255 120.317 5.73576C120.805 5.24601 121.049 4.66771 121.049 4.00082C121.049 3.33393 120.805 2.75041 120.317 2.25025C119.829 1.75008 119.242 1.5 118.557 1.5C117.893 1.5 117.316 1.75008 116.828 2.25025C116.34 2.75041 116.096 3.33393 116.096 4.00082C116.096 4.66771 116.34 5.24601 116.828 5.73576ZM64.2691 12.1301C64.2691 12.1813 64.2276 12.2229 64.1764 12.2229H60.7487V18.7249C60.7487 19.2667 60.8837 19.6628 61.1537 19.9128C61.4236 20.1629 61.8183 20.3036 62.3375 20.3349C62.8126 20.3634 63.3919 20.3615 64.0755 20.3291L64.1715 20.3243C64.2246 20.3215 64.2691 20.3638 64.2691 20.4169V23.8937C64.2691 23.941 64.2336 23.9806 64.1866 23.9858L64.1238 23.9926C61.4384 24.2799 59.5396 24.0141 58.4276 23.1952C57.2957 22.3615 56.7298 20.8715 56.7298 18.7249V12.2229H54.112C54.0608 12.2229 54.0193 12.1813 54.0193 12.1301V8.43925C54.0193 8.38805 54.0608 8.34654 54.112 8.34654H56.7298V5.76484C56.7298 5.69141 56.7731 5.62489 56.8402 5.59523L60.6185 3.92668C60.6798 3.89961 60.7487 3.94449 60.7487 4.01149V8.34654H64.1764C64.2276 8.34654 64.2691 8.38805 64.2691 8.43925V12.1301ZM71.5569 11.0342C71.9307 10.0339 72.5486 9.28362 73.4105 8.78345C74.1993 8.32572 75.0708 8.07743 76.0248 8.0386C76.071 8.03673 76.1416 8.03534 76.1987 8.03444C76.2503 8.03363 76.2924 8.07529 76.2924 8.12685V12.3687C76.2924 12.4572 76.2154 12.5254 76.1272 12.5174C74.9683 12.4122 73.9277 12.668 73.0055 13.2849C72.0397 13.931 71.5569 15.0042 71.5569 16.5047V23.8832C71.5569 23.9344 71.5154 23.9759 71.4642 23.9759H67.6306C67.5794 23.9759 67.5379 23.9344 67.5379 23.8832V8.43851C67.5379 8.38731 67.5794 8.3458 67.6306 8.3458H71.4642C71.5154 8.3458 71.5569 8.38731 71.5569 8.43851V11.0342ZM90.5598 8.34606C90.5086 8.34606 90.4671 8.38756 90.4671 8.43877V10.1904C89.2624 8.66908 87.5697 7.90842 85.3888 7.90842C83.3119 7.90842 81.5309 8.70554 80.0459 10.2998C78.5608 11.8941 77.8183 13.8479 77.8183 16.1611C77.8183 18.4744 78.5608 20.4281 80.0459 22.0224C81.5309 23.6167 83.3119 24.4138 85.3888 24.4138C87.5697 24.4138 89.2624 23.6531 90.4671 22.1318V23.8835C90.4671 23.9347 90.5086 23.9762 90.5598 23.9762H94.3933C94.4441 23.9762 94.4858 23.9347 94.4858 23.8835V8.43877C94.4858 8.38756 94.4441 8.34606 94.3933 8.34606H90.5598ZM83.0518 19.35C83.8618 20.1629 84.8898 20.5692 86.136 20.5692C87.3822 20.5692 88.4156 20.1576 89.2359 19.3344C90.0563 18.5112 90.4665 17.4536 90.4665 16.1615C90.4665 14.8694 90.0563 13.8118 89.2359 12.9886C88.4156 12.1654 87.3822 11.7539 86.136 11.7539C84.8898 11.7539 83.8618 12.1654 83.0518 12.9886C82.2418 13.8118 81.8368 14.8694 81.8368 16.1615C81.8368 17.4536 82.2418 18.5165 83.0518 19.35ZM111.941 10.2998C110.456 8.70554 108.665 7.90842 106.567 7.90842C104.387 7.90842 102.704 8.66908 101.52 10.1904V8.43877C101.52 8.38756 101.478 8.34606 101.428 8.34606H97.5942C97.5426 8.34606 97.5009 8.38756 97.5009 8.43877V30.1355C97.5009 30.1867 97.5426 30.2282 97.5942 30.2282H101.428C101.478 30.2282 101.52 30.1867 101.52 30.1355V22.1318C102.704 23.6531 104.387 24.4138 106.567 24.4138C108.665 24.4138 110.456 23.6167 111.941 22.0224C113.427 20.4281 114.169 18.4744 114.169 16.1611C114.169 13.8479 113.427 11.8941 111.941 10.2998ZM102.735 19.35C103.545 20.1629 104.573 20.5692 105.819 20.5692C107.066 20.5692 108.099 20.1576 108.919 19.3344C109.74 18.5112 110.15 17.4536 110.15 16.1615C110.15 14.8694 109.74 13.8118 108.919 12.9886C108.099 12.1654 107.066 11.7539 105.819 11.7539C104.573 11.7539 103.545 12.1654 102.735 12.9886C101.925 13.8118 101.52 14.8694 101.52 16.1615C101.52 17.4536 101.925 18.5165 102.735 19.35ZM116.656 23.9766C116.605 23.9766 116.563 23.9351 116.563 23.8839V8.43921C116.563 8.38801 116.605 8.3465 116.656 8.3465H120.489C120.541 8.3465 120.582 8.38801 120.582 8.43921V23.8839C120.582 23.9351 120.541 23.9766 120.489 23.9766H116.656ZM44.9162 13.801C44.3659 13.5405 44.0906 13.2018 44.0906 12.785C44.0906 12.3891 44.262 12.0765 44.6047 11.8472C44.9474 11.6179 45.3783 11.5034 45.8976 11.5034C46.8932 11.5034 47.6454 11.8928 48.154 12.6716C48.1895 12.726 48.2585 12.748 48.3179 12.7217L51.7086 11.2165C51.7591 11.1941 51.779 11.1328 51.7509 11.0852C51.7135 11.0221 51.6643 10.9396 51.6316 10.888C51.0503 9.97131 50.2986 9.28838 49.3557 8.76808C48.3172 8.19497 47.1646 7.90842 45.8976 7.90842C44.2152 7.90842 42.8081 8.35127 41.6762 9.23697C40.5443 10.1227 39.9782 11.3366 39.9782 12.8788C39.9782 13.9 40.2534 14.7492 40.8038 15.4265C41.3543 16.1038 42.0241 16.5987 42.8133 16.9114C43.6025 17.2239 44.3918 17.4845 45.181 17.6928C45.9703 17.9013 46.6401 18.1357 47.1905 18.3962C47.7409 18.6567 48.0161 18.9954 48.0161 19.4122C48.0161 20.3083 47.2996 20.7564 45.8664 20.7564C44.5023 20.7564 43.5569 20.2505 43.0305 19.2388C42.9853 19.1519 42.8818 19.1121 42.7922 19.1519L39.411 20.6552C39.3633 20.6763 39.3425 20.7327 39.3651 20.7797C39.3788 20.808 39.3932 20.8377 39.4038 20.8589C40.5854 23.2288 42.7397 24.4138 45.8664 24.4138C47.6527 24.4138 49.1428 23.9814 50.3371 23.1165C51.5314 22.2517 52.1285 21.0169 52.1285 19.4122C52.1285 18.3493 51.8533 17.4637 51.3029 16.755C50.7525 16.0465 50.0827 15.5411 49.2935 15.239C48.5042 14.9367 47.7149 14.6867 46.9257 14.4887C46.1364 14.2908 45.4666 14.0615 44.9162 13.801Z" fill="white"/>
<path d="M25.6562 1.77148H7.17445C4.345 1.77148 2.05127 4.06521 2.05127 6.89466V25.3764C2.05127 28.2059 4.345 30.4996 7.17445 30.4996H25.6562C28.4857 30.4996 30.7794 28.2059 30.7794 25.3764V6.89466C30.7794 4.06521 28.4857 1.77148 25.6562 1.77148Z" fill="white"/>
<path fill-rule="evenodd" clip-rule="evenodd" d="M21.9703 10.4355H12.167V15.3323H17.0736C17.1526 15.3323 17.2168 15.3965 17.2168 15.4755V20.3818H22.1135V10.5787C22.1135 10.4997 22.0494 10.4355 21.9703 10.4355Z" fill="black"/>
<path opacity="0.42" fill-rule="evenodd" clip-rule="evenodd" d="M12.1677 10.4355V15.3322H7.44381C7.38002 15.3322 7.34808 15.255 7.39319 15.2099L12.1677 10.4355Z" fill="black"/>
<path opacity="0.42" fill-rule="evenodd" clip-rule="evenodd" d="M17.3394 25.1592C17.2944 25.2043 17.2173 25.1723 17.2173 25.1085V20.3848H22.114L17.3394 25.1592Z" fill="black"/>
<path opacity="0.42" d="M12.1685 15.3359H17.1466C17.1861 15.3359 17.2182 15.368 17.2182 15.4075V20.3856H12.3116C12.2325 20.3856 12.1685 20.3214 12.1685 20.2423V15.3359Z" fill="black"/>
</svg>
