<svg width="141" height="32" viewBox="0 0 141 32" fill="none" xmlns="http://www.w3.org/2000/svg">
<path fill-rule="evenodd" clip-rule="evenodd" d="M6.78954 2.01228C7.21358 0.423706 8.94762 -0.424554 10.4663 0.213452L12.5327 1.08162C15.1592 2.1854 18.1211 2.18962 20.7505 1.09236L22.7925 0.240796C24.341 -0.405301 26.101 0.491381 26.4829 2.12165L31.7046 24.4244L32.4683 27.2867C32.764 28.3972 31.625 29.4049 30.3579 29.1373C28.4708 28.7387 25.712 28.8061 22.1802 30.6295C18.6417 32.4561 13.8778 32.4576 10.3364 30.6295C6.80407 28.806 4.04519 28.7387 2.1577 29.1373C0.890572 29.4044 -0.248728 28.3962 0.047351 27.2857L0.707507 24.8131L6.78954 2.01228ZM16.0483 6.04646C12.7791 6.04657 8.49266 7.49638 8.49266 11.6265C8.49283 15.6841 12.5256 16.9159 15.9038 17.1695C18.4464 17.3145 19.4633 17.8217 19.4634 19.0533C19.4634 20.3575 17.9009 21.2272 16.23 21.191C14.2321 21.1546 11.3264 20.1037 10.0552 18.691L7.87548 21.8433C10.4907 24.56 13.3246 25.0308 16.1577 25.0308C21.2794 25.0307 23.8589 22.3135 23.8589 19.1617C23.8588 14.4155 19.5721 13.6545 16.1938 13.4371C13.9053 13.2921 12.8521 12.6402 12.852 11.481C12.852 10.3581 14.0139 9.70572 16.1206 9.70564C17.8282 9.70564 19.2819 10.104 20.5532 11.2994L23.0229 8.40193C20.9524 6.59056 18.8452 6.04646 16.0483 6.04646Z" fill="white"/>
<mask id="mask0_32214_59393" style="mask-type:luminance" maskUnits="userSpaceOnUse" x="40" y="5" width="101" height="22">
<path d="M140.235 5.42188H40.7031V26.6338H140.235V5.42188Z" fill="white"/>
</mask>
<g mask="url(#mask0_32214_59393)">
<path d="M-60.3457 -63.524H1083.89V-65.0391H-60.3457V-63.524ZM1084.65 -62.7662V414.501H1086.16V-62.7662H1084.65ZM1083.89 415.258H-60.3457V416.773H1083.89V415.258ZM-61.1054 414.501V-62.7662H-62.625V414.501H-61.1054ZM-60.3457 415.258C-60.765 415.258 -61.1054 414.919 -61.1054 414.501H-62.625C-62.625 415.756 -61.6045 416.773 -60.3457 416.773V415.258ZM1084.65 414.501C1084.65 414.919 1084.3 415.258 1083.89 415.258V416.773C1085.15 416.773 1086.16 415.756 1086.16 414.501H1084.65ZM1083.89 -63.524C1084.3 -63.524 1084.65 -63.1849 1084.65 -62.7662H1086.16C1086.16 -64.0217 1085.15 -65.0391 1083.89 -65.0391V-63.524ZM-60.3457 -65.0391C-61.6045 -65.0391 -62.625 -64.0217 -62.625 -62.7662H-61.1054C-61.1054 -63.1849 -60.765 -63.524 -60.3457 -63.524V-65.0391Z" fill="black" fill-opacity="0.1"/>
<path d="M48.0862 13.0499C47.3908 12.3967 46.597 12.1785 45.6637 12.1785C44.5118 12.1785 43.8763 12.5352 43.8763 13.1486C43.8763 13.7822 44.4522 14.1382 45.7029 14.2179C47.5494 14.3367 49.8922 14.7522 49.8922 17.3461C49.8922 19.0686 48.4827 20.5534 45.6833 20.5534C44.1345 20.5534 42.5857 20.296 41.1562 18.8112L42.3473 17.0888C43.0424 17.8609 44.6304 18.435 45.7225 18.4546C46.6357 18.4742 47.4892 17.9993 47.4892 17.2867C47.4892 16.6138 46.9333 16.3362 45.5438 16.2572C43.6968 16.1187 41.493 15.4453 41.493 13.2282C41.493 10.9714 43.8357 10.1797 45.6227 10.1797C47.152 10.1797 48.3036 10.4769 49.4351 11.4665L48.0862 13.0499Z" fill="white"/>
<path d="M53.9142 10.4531V15.5606C53.9142 17.0454 54.7286 18.1741 56.2771 18.1741C57.7663 18.1741 58.7794 16.9271 58.7794 15.4423V10.4531H61.1814V20.233H59.0172L58.8586 18.9063C57.8456 19.8959 56.9128 20.3714 55.5429 20.3714C53.2002 20.3714 51.4922 18.6098 51.4922 15.5808V10.4531H53.9142Z" fill="white"/>
<path d="M63.3203 24.298V10.4597H65.5838L65.7424 11.806C66.497 10.7171 67.8076 10.2422 68.9191 10.2422C71.9372 10.2422 73.9428 12.4794 73.9428 15.3496C73.9428 18.2003 72.1359 20.4571 68.9984 20.4571C67.9662 20.4571 66.4369 20.1403 65.7424 19.071V24.2974L63.3203 24.298ZM71.5207 15.3496C71.5207 13.8251 70.4881 12.5781 68.7409 12.5781C66.9937 12.5781 65.9611 13.8251 65.9611 15.3496C65.9611 16.8742 67.0936 18.1213 68.7409 18.1213C70.3887 18.1213 71.5207 16.8742 71.5207 15.3496Z" fill="white"/>
<path d="M77.7904 16.2017C77.949 17.4095 79.0017 18.2803 80.7087 18.2803C81.6024 18.2803 82.774 17.9438 83.3299 17.3696L84.8789 18.8942C83.8463 19.9636 82.1588 20.4783 80.6695 20.4783C77.2946 20.4783 75.2891 18.3998 75.2891 15.2716C75.2891 12.302 77.3142 10.1641 80.4914 10.1641C83.7674 10.1641 85.8122 12.1831 85.4358 16.2024L77.7904 16.2017ZM83.1112 14.2023C82.9526 12.935 81.9596 12.3014 80.5702 12.3014C79.2596 12.3014 78.1873 12.935 77.8305 14.2023H83.1112Z" fill="white"/>
<path d="M89.5486 10.4605L89.7272 11.5892C90.4823 10.3815 91.4944 10.2031 92.4874 10.2031C93.5 10.2031 94.4729 10.599 95.0088 11.1333L93.917 13.2321C93.4202 12.8166 92.9636 12.5984 92.1698 12.5984C90.8988 12.5984 89.7272 13.2713 89.7272 15.0728V20.2201H87.3047V10.4605H89.5486Z" fill="white"/>
<path d="M116.608 15.3535C116.608 18.1649 114.681 20.4414 111.505 20.4414C108.328 20.4414 106.422 18.1649 106.422 15.3535C106.422 12.5623 108.368 10.2656 111.485 10.2656C114.602 10.2656 116.608 12.5623 116.608 15.3535ZM108.844 15.3535C108.844 16.8383 109.737 18.2244 111.504 18.2244C113.271 18.2244 114.165 16.8383 114.165 15.3535C114.165 13.8884 113.132 12.4631 111.504 12.4631C109.758 12.4631 108.844 13.8884 108.844 15.3535Z" fill="white"/>
<path d="M128.006 15.3535C128.006 18.1649 126.08 20.4414 122.903 20.4414C119.727 20.4414 117.82 18.1649 117.82 15.3535C117.82 12.5623 119.766 10.2656 122.883 10.2656C126 10.2656 128.006 12.5623 128.006 15.3535ZM120.242 15.3535C120.242 16.8383 121.136 18.2244 122.902 18.2244C124.67 18.2244 125.563 16.8383 125.563 15.3535C125.563 13.8884 124.531 12.4631 122.902 12.4631C121.157 12.4631 120.242 13.8884 120.242 15.3535Z" fill="white"/>
<path d="M139.834 6.375V20.2133H137.57L137.411 18.867C136.657 20.0349 135.446 20.4308 134.255 20.4308C131.375 20.4308 129.211 18.53 129.211 15.3233C129.211 11.958 131.335 10.2159 134.195 10.2159C135.227 10.2159 136.836 10.7704 137.411 11.7797V6.375H139.834ZM131.633 15.3233C131.633 17.0256 132.864 18.1942 134.413 18.1942C135.942 18.1942 137.252 17.0856 137.252 15.3233C137.252 13.6211 135.942 12.4727 134.413 12.4727C132.864 12.4727 131.633 13.5616 131.633 15.3233Z" fill="white"/>
<path d="M105.306 15.0906C105.259 13.8019 104.726 12.4854 103.861 11.6146C101.78 9.52025 98.0482 9.67329 96.309 12.1281C95.6985 12.9906 95.4219 14.0416 95.4219 15.09C95.4219 18.1385 97.3286 19.9995 100.386 19.9995C101.597 19.9995 102.868 20.6135 102.868 21.9592C102.868 23.3054 101.775 24.0579 100.386 24.0579C98.9964 24.0579 97.8243 23.2264 97.8243 21.9592H95.4219C95.4219 24.5923 97.5464 26.3148 100.386 26.3148C103.225 26.3148 105.29 24.6517 105.29 21.9592C105.29 20.7122 104.893 19.5437 103.265 18.7323C104.762 18.0506 105.362 16.5893 105.306 15.0906ZM100.386 17.8014C98.9768 17.8014 97.8248 16.7916 97.8248 15.0894C97.8248 13.387 98.9768 12.3374 100.386 12.3374C101.777 12.3374 102.928 13.4067 102.928 15.0894C102.928 16.772 101.777 17.8014 100.386 17.8014Z" fill="white"/>
<path d="M101.648 10.2734C101.773 10.3101 102.127 10.4246 102.561 10.6547C102.274 10.472 101.966 10.3512 101.648 10.2734Z" fill="white"/>
</g>
</svg>
