<svg width="112" height="32" viewBox="0 0 112 32" fill="none" xmlns="http://www.w3.org/2000/svg">
<path d="M103.637 10.2383C104.784 10.2383 105.823 10.4763 106.72 10.9492C107.229 11.2171 107.679 11.5217 108.062 11.8623V10.4697H111.816V32.002L111.812 31.998H108.059V23.9277C107.668 24.2684 107.205 24.5764 106.673 24.8477C105.754 25.3172 104.695 25.5556 103.531 25.5557C102.251 25.5557 101.07 25.2217 100.015 24.5635C98.9629 23.9086 98.1162 22.9785 97.501 21.8076C96.8859 20.6402 96.5752 19.3037 96.5752 17.832C96.5752 16.3603 96.8864 15.0336 97.5049 13.8926C98.1234 12.7451 98.9803 11.8394 100.052 11.2012C101.123 10.5629 102.33 10.2383 103.637 10.2383ZM28.0469 10.2383C29.2144 10.2383 30.2501 10.4735 31.1299 10.9365C31.6424 11.2077 32.1022 11.5183 32.499 11.8721V10.4697H36.2529V25.3301H32.499V23.8887C32.0955 24.2524 31.6223 24.5728 31.0898 24.8506C30.1836 25.3202 29.1418 25.5586 27.9941 25.5586V25.5557C26.7175 25.5557 25.5298 25.2217 24.4648 24.5635C23.4031 23.9086 22.5531 22.9785 21.9346 21.8076C21.3195 20.6402 21.0088 19.3037 21.0088 17.832C21.0088 16.3603 21.32 15.0336 21.9385 13.8926C22.557 12.7451 23.4139 11.8394 24.4854 11.2012C25.5569 10.5629 26.7538 10.2383 28.0469 10.2383ZM46.3311 25.5557H46.3242L46.3271 25.5547C46.3284 25.5547 46.3298 25.5557 46.3311 25.5557ZM46.3281 10.2383C48.1074 10.2383 49.6054 10.6718 50.7861 11.5283C51.9734 12.3882 52.7838 13.6282 53.1973 15.209L53.333 15.7285H49.377L49.2783 15.457C49.0502 14.8389 48.6996 14.3693 48.207 14.0254C47.7209 13.6848 47.0888 13.5127 46.3281 13.5127C45.2566 13.5127 44.4331 13.8767 43.8047 14.624C43.1664 15.3847 42.8448 16.4793 42.8447 17.8848C42.8447 19.2903 43.1694 20.3919 43.8076 21.1592C44.436 21.9166 45.2598 22.2842 46.3281 22.2842C47.8294 22.2841 48.7948 21.6492 49.2744 20.3398L49.374 20.0684H53.3428L53.1914 20.5938C52.7614 22.102 51.9374 23.3199 50.75 24.2129C49.5632 25.1054 48.0756 25.5543 46.3271 25.5547C44.9198 25.5541 43.6513 25.2301 42.5576 24.5957C41.4597 23.9574 40.5896 23.0451 39.9678 21.8877C39.3526 20.7367 39.042 19.3897 39.042 17.8848C39.0421 16.38 39.3526 15.0337 39.9678 13.8828C40.5896 12.722 41.4596 11.8162 42.5576 11.1846C43.6524 10.5562 44.9191 10.2383 46.3281 10.2383ZM62.4258 10.2383C63.8313 10.2383 65.1213 10.5556 66.2656 11.1807C67.4166 11.8091 68.3356 12.7192 68.9971 13.8867C69.6585 15.0475 69.9931 16.3933 69.9932 17.8848C69.9932 19.3764 69.6491 20.7268 68.9678 21.8877C68.2865 23.0518 67.3469 23.9642 66.1729 24.6025C65.0057 25.2341 63.6997 25.5545 62.2979 25.5547C60.9094 25.5544 59.6332 25.2344 58.5059 24.5996C57.3747 23.9613 56.4721 23.0511 55.8271 21.8936C55.1856 20.7426 54.8584 19.3929 54.8584 17.8848C54.8585 16.3768 55.1922 15.0475 55.8535 13.8867C56.5183 12.7225 57.4382 11.8091 58.5859 11.1807C59.7302 10.5557 61.0203 10.2383 62.4258 10.2383ZM5.41113 10.4697H8.82422V13.665H5.41113V21.0176C5.41114 21.2954 5.45099 21.6658 5.64941 21.8477C5.76192 21.9535 6.02638 22.0791 6.62793 22.0791H8.82422V25.3271H6.11914C4.71346 25.3271 3.61147 24.9833 2.84082 24.3086C2.05372 23.6173 1.65725 22.5124 1.65723 21.0176V13.665H0V10.4697H1.65723V6.98047H5.41113V10.4697ZM19.3652 14.0713H18.2139C17.1953 14.0713 16.4217 14.3233 15.9189 14.8193C15.4195 15.3121 15.1641 16.2248 15.1641 17.5312V25.3271H11.4336V10.4668H15.1641V11.71C15.4816 11.3891 15.8424 11.1146 16.2393 10.8896C17.0032 10.4564 17.9161 10.2383 18.9512 10.2383H19.3652V14.0713ZM93.7803 25.3271H90.0498V10.4668H93.7803V25.3271ZM80.2559 10.2344C81.4201 10.2344 82.4856 10.4825 83.415 10.9688C84.3575 11.4649 85.1047 12.2058 85.6338 13.1748C86.1564 14.134 86.4248 15.2952 86.4248 16.6348V25.3232L86.4209 25.3262H82.7168V17.0674C82.7168 15.9265 82.439 15.05 81.8867 14.458C81.3344 13.8693 80.5929 13.582 79.6172 13.582C78.6417 13.5821 77.8942 13.8694 77.332 14.458C76.7731 15.0467 76.4922 15.9234 76.4922 17.0645V25.3232H72.7617V10.4658H76.4922V11.498C76.8592 11.2038 77.2758 10.9556 77.7354 10.7539C78.5225 10.4099 79.3728 10.2344 80.2559 10.2344ZM62.376 13.5859C61.7046 13.5859 61.0728 13.7476 60.5039 14.0684C59.9416 14.3826 59.4854 14.8624 59.1514 15.4941C58.8108 16.1357 58.6387 16.939 58.6387 17.8848C58.6387 19.2805 58.9887 20.3659 59.6865 21.1035C60.3843 21.8476 61.2379 22.2079 62.3027 22.208C62.9775 22.208 63.6163 22.0464 64.2051 21.7256C64.7871 21.4081 65.2696 20.9217 65.6367 20.2803C66.0071 19.632 66.1963 18.8279 66.1963 17.8887C66.1963 16.9494 66.0173 16.1455 65.6602 15.5039C65.3096 14.8722 64.8398 14.3894 64.2676 14.0752C63.6888 13.7544 63.0503 13.5918 62.3789 13.5918L62.376 13.5859ZM28.6553 13.5859C27.9841 13.586 27.3492 13.7508 26.7705 14.0781C26.195 14.4056 25.7185 14.8923 25.3613 15.5273C25.001 16.1656 24.8155 16.9393 24.8154 17.832C24.8154 18.7251 25.0014 19.5159 25.3652 20.1807C25.7257 20.8386 26.2048 21.3478 26.79 21.6885C27.9774 22.3831 29.397 22.3603 30.5381 21.7021C31.1135 21.3681 31.5897 20.8683 31.9502 20.2168C32.3139 19.562 32.4961 18.7747 32.4961 17.8818C32.4961 16.9889 32.3106 16.2117 31.9502 15.5635C31.5897 14.9186 31.1135 14.4219 30.5381 14.0879C29.9593 13.7538 29.3267 13.582 28.6553 13.582V13.5859ZM104.219 13.5859C103.548 13.5859 102.913 13.7508 102.334 14.0781C101.758 14.4056 101.282 14.8923 100.925 15.5273C100.564 16.1656 100.379 16.9392 100.379 17.832C100.379 18.725 100.564 19.5159 100.928 20.1807C101.288 20.8388 101.768 21.3478 102.354 21.6885C103.541 22.383 104.96 22.3602 106.101 21.7021C106.676 21.3681 107.152 20.8684 107.513 20.2168C107.877 19.5586 108.059 18.7749 108.059 17.8818C108.059 16.9888 107.873 16.2117 107.513 15.5635C107.152 14.9185 106.676 14.4219 106.101 14.0879C105.522 13.7539 104.89 13.582 104.219 13.582V13.5859ZM92.0215 0.00390625C94.1645 0.00413055 95.9042 1.74699 95.9043 3.88672C95.9043 6.25488 92.4805 9.08601 92.335 9.20508C92.2425 9.28102 92.1338 9.31729 92.0215 9.31738C91.9123 9.31738 91.8026 9.28173 91.71 9.20898C91.5644 9.09322 88.1348 6.31111 88.1348 3.88672C88.1349 1.74355 89.8783 0.00390625 92.0215 0.00390625ZM92.0215 0.993164C90.4273 0.993164 89.127 2.28958 89.127 3.88379C89.1271 5.33575 90.9923 7.2707 92.0176 8.16699C93.0429 7.25417 94.9119 5.29938 94.9121 3.88379C94.9121 2.28972 93.6155 0.993388 92.0215 0.993164ZM92.0215 2.32227C92.8415 2.32242 93.5059 2.98754 93.5059 3.80762C93.5057 4.62757 92.8414 5.29184 92.0215 5.29199C91.2014 5.29199 90.5363 4.62766 90.5361 3.80762C90.5361 2.98744 91.2013 2.32227 92.0215 2.32227Z" fill="white"/>
</svg>
