<svg width="99" height="32" viewBox="0 0 99 32" fill="none" xmlns="http://www.w3.org/2000/svg">
<path fill-rule="evenodd" clip-rule="evenodd" d="M21.1933 6.64501C22.3463 4.29979 25.183 3.33376 27.5283 4.4868C29.8731 5.64 30.8394 8.47573 29.6865 10.8208L22.0488 26.355C21.251 27.9776 19.5981 29.0041 17.79 28.9995C15.9821 28.9948 14.3343 27.96 13.5449 26.3335L6.00583 10.7993C4.86475 8.4483 5.8453 5.6172 8.19626 4.47606C10.5473 3.33497 13.3784 4.31546 14.5195 6.66649L17.83 13.4868L21.1933 6.64501ZM42.0185 4.00048C43.8264 4.00525 45.4732 5.04015 46.2627 6.66649L53.8027 22.2016C54.5144 23.668 54.4217 25.3973 53.5566 26.7788C52.6915 28.1603 51.1758 28.9995 49.5459 28.9995H34.3681C32.7339 28.9995 31.2154 28.1562 30.3515 26.769C29.4876 25.3817 29.401 23.6468 30.122 22.1802L37.7597 6.64501C38.5574 5.02244 40.2105 3.99588 42.0185 4.00048ZM70.705 4.00048C70.8364 4.00048 70.9686 4.00614 71.0996 4.01708L72.9814 4.1743C73.5467 4.22151 74.5472 4.35625 75.5996 4.91259C81.0803 7.81005 81.0802 15.7259 75.5996 18.6235C74.5472 19.1798 73.5468 19.3146 72.9814 19.3618L71.0996 19.519C70.9686 19.53 70.8364 19.5356 70.705 19.5356H68.7412V24.2681C68.7409 26.8811 66.6228 28.9993 64.0097 28.9995C61.3965 28.9995 59.2775 26.8812 59.2773 24.2681V8.7329C59.2773 6.11956 61.3963 4.00048 64.0097 4.00048H70.705ZM89.0078 4.00048C91.6212 4.00048 93.7402 6.11956 93.7402 8.7329V24.2681C93.74 26.8812 91.621 28.9995 89.0078 28.9995C86.3947 28.9994 84.2766 26.8811 84.2763 24.2681V8.7329C84.2763 6.11963 86.3946 4.00059 89.0078 4.00048ZM41.9677 19.5356H41.9892L41.9785 19.5132L41.9677 19.5356Z" fill="white"/>
</svg>
