<svg width="124" height="32" viewBox="0 0 124 32" fill="none" xmlns="http://www.w3.org/2000/svg">
<path d="M86.4399 10.9199C88.5298 10.926 90.538 11.7334 92.0503 13.1758C92.7806 13.9154 93.3562 14.7939 93.7427 15.7588C94.1706 16.8348 94.3822 17.9847 94.3657 19.1426C94.3757 21.3085 93.5457 23.3941 92.0503 24.9609C91.3274 25.7195 90.4566 26.322 89.4917 26.7305C88.5267 27.1389 87.4878 27.345 86.4399 27.3359C84.8629 27.3511 83.319 26.8838 82.0142 25.998C80.7093 25.1122 79.7052 23.8493 79.1372 22.3779C78.7172 21.3515 78.5055 20.2516 78.5142 19.1426C78.4824 16.9552 79.3145 14.8437 80.8296 13.2656C81.5583 12.5166 82.4309 11.9225 83.395 11.5195C84.3592 11.1165 85.395 10.9122 86.4399 10.9199ZM23.355 11.6855C25.058 10.8286 27.0201 10.6397 28.855 11.1572C30.0812 11.4668 31.2197 12.0571 32.1802 12.8799C32.655 13.2954 33.0707 13.7705 33.4565 14.3047L26.0356 23.2393C26.1769 23.2972 26.3283 23.3274 26.481 23.3281C27.018 23.381 27.5601 23.3414 28.0835 23.21C28.4384 23.0946 28.7772 22.9343 29.0923 22.7344C29.7212 22.3334 30.218 21.7551 30.5181 21.0723L33.4263 23.9814C32.31 25.519 30.694 26.6212 28.855 27.0986C27.1935 27.4969 25.449 27.3611 23.8687 26.7119C22.9108 26.3261 22.042 25.748 21.3169 25.0127C20.5918 24.2774 20.0253 23.4007 19.6528 22.4375C19.2304 21.391 19.0188 20.2711 19.0298 19.1426C19.0298 17.9256 19.2373 16.7973 19.6528 15.7881C20.3306 14.006 21.6518 12.5426 23.355 11.6855ZM112.06 11.6855C113.763 10.8284 115.726 10.6395 117.561 11.1572C118.787 11.4668 119.925 12.0571 120.885 12.8799C121.36 13.2954 121.776 13.7704 122.162 14.3047L114.741 23.2393C114.882 23.2973 115.033 23.3274 115.186 23.3281C115.723 23.3811 116.265 23.3414 116.789 23.21C117.144 23.0946 117.483 22.9344 117.798 22.7344C118.427 22.3334 118.923 21.7551 119.223 21.0723L122.132 23.9814C121.016 25.519 119.4 26.6212 117.561 27.0986C115.899 27.497 114.154 27.3612 112.574 26.7119C111.616 26.3261 110.748 25.7478 110.023 25.0127C109.298 24.2774 108.731 23.4007 108.359 22.4375C107.936 21.3909 107.724 20.2711 107.735 19.1426C107.735 17.9256 107.943 16.7973 108.359 15.7881C109.037 14.0061 110.357 12.5426 112.06 11.6855ZM39.3032 11.5723C40.8743 10.8881 42.6278 10.7426 44.2905 11.1572C44.9126 11.33 45.5111 11.5793 46.0718 11.8994C47.2404 12.5259 48.216 13.46 48.8921 14.6006L45.9829 17.5098C45.7142 16.7453 45.2167 16.0814 44.5581 15.6094C44.2433 15.3829 43.8917 15.2119 43.519 15.1045C42.6522 14.813 41.7062 14.8663 40.8774 15.2529C40.3922 15.4656 39.9643 15.7917 39.6304 16.2031C39.2522 16.6166 38.9591 17.1008 38.769 17.6279C38.5745 18.2118 38.4743 18.8231 38.4722 19.4385C38.4722 19.9728 38.5909 20.4782 38.769 20.9531C38.9768 21.428 39.2742 21.8431 39.6304 22.1992C39.9848 22.5733 40.413 22.87 40.8882 23.0693C41.3635 23.2687 41.8758 23.3668 42.3911 23.3574C42.7717 23.3539 43.1505 23.304 43.519 23.209C43.874 23.0936 44.2127 22.9334 44.5278 22.7334C45.1568 22.3324 45.6526 21.7542 45.9526 21.0713L48.8618 23.9805C47.7455 25.5181 46.1296 26.6202 44.2905 27.0977C42.629 27.496 40.8837 27.3612 39.3032 26.7119C37.882 26.0945 36.6693 25.0791 35.811 23.7891C34.9528 22.4989 34.4857 20.9879 34.4653 19.4385C34.4476 17.2095 35.275 15.0567 36.7808 13.4131C37.5007 12.649 38.3557 12.0244 39.3032 11.5723ZM10.7144 20.1201L14.8696 6.25781H19.6196L12.7915 27.0371H8.63623L1.83838 6.25781H6.55811L10.7144 20.1201ZM63.229 15.4893H55.2134C55.0848 15.4846 54.9564 15.5092 54.8384 15.5605C54.7204 15.6119 54.615 15.6888 54.5308 15.7861C54.4334 15.8704 54.3566 15.9757 54.3052 16.0938C54.2539 16.2118 54.2292 16.3402 54.2339 16.4688C54.2339 16.7358 54.3231 17.0035 54.5308 17.1816C54.7088 17.3893 54.9464 17.4784 55.2134 17.4785H59.3403C59.9905 17.4738 60.6355 17.595 61.2397 17.835C61.8275 18.032 62.3649 18.3558 62.813 18.7842C63.2783 19.2028 63.649 19.7167 63.8999 20.29C64.1507 20.8633 64.2754 21.4837 64.2671 22.1094C64.2796 22.7575 64.1571 23.4011 63.9067 23.999C63.6563 24.597 63.2836 25.1362 62.813 25.582C62.371 26.0467 61.8346 26.4118 61.2397 26.6514C60.6418 26.9151 59.9938 27.0466 59.3403 27.0371H50.2866V23.0889H59.3403C59.469 23.0936 59.5973 23.0699 59.7153 23.0186C59.8335 22.9672 59.9386 22.8894 60.0229 22.792C60.1203 22.7077 60.1972 22.6025 60.2485 22.4844C60.2999 22.3662 60.3246 22.2381 60.3198 22.1094C60.3198 21.8423 60.2307 21.634 60.0229 21.5449C59.8071 21.4551 59.5738 21.4152 59.3403 21.4268H55.2134C54.5653 21.4392 53.9216 21.3158 53.3237 21.0654C52.7258 20.815 52.1866 20.4423 51.7407 19.9717C51.2918 19.5167 50.9299 18.9834 50.6724 18.3984C50.422 17.7858 50.2912 17.1306 50.2866 16.4688C50.2867 15.7862 50.435 15.1335 50.6724 14.54C51.1816 13.3704 52.115 12.437 53.2847 11.9277C53.8929 11.6634 54.5503 11.5319 55.2134 11.542H63.229V15.4893ZM98.8198 13.3525C100.094 12.1718 101.772 11.5231 103.509 11.541H107.012V15.4893H103.36C103.012 15.4981 102.668 15.5782 102.352 15.7266C101.99 15.8618 101.659 16.0718 101.383 16.3428C101.107 16.6138 100.891 16.9399 100.749 17.2998C100.596 17.6772 100.516 18.0803 100.511 18.4873V27.0371H96.564V11.5117H97.5132L98.8198 13.3525ZM71.1519 11.54H77.1479V15.4883H71.1519V20.0889C71.1496 20.4794 71.224 20.867 71.3716 21.2285C71.5193 21.5902 71.7371 21.9199 72.0122 22.1973C72.2793 22.494 72.6062 22.7012 72.9624 22.8496C73.3354 23.0166 73.7413 23.0986 74.1499 23.0879H77.1479V27.0352H74.1499C72.7785 27.0535 71.4332 26.6585 70.2896 25.9014C69.146 25.1443 68.2565 24.0606 67.7378 22.791C67.3781 21.9362 67.1964 21.0162 67.2036 20.0889V15.4883H65.2739V11.54H67.2036V5.33594H71.1519V11.54ZM86.4546 14.9189C85.9299 14.919 85.4106 15.023 84.9263 15.2246C84.4407 15.3938 84.0095 15.6909 83.6792 16.085C83.3027 16.4657 83.009 16.9207 82.8179 17.4209C82.4332 18.5159 82.4334 19.7096 82.8179 20.8047C83.0229 21.2976 83.315 21.7502 83.6792 22.1406C84.0167 22.5339 84.4448 22.8395 84.9263 23.0312C85.4087 23.2376 85.927 23.3465 86.4517 23.3516C86.9764 23.3567 87.4975 23.2585 87.9839 23.0615C88.462 22.8571 88.8931 22.5565 89.2505 22.1787C89.6079 21.8009 89.8835 21.3531 90.061 20.8643C90.2771 20.316 90.3885 19.7319 90.3882 19.1426C90.4039 18.0135 89.9896 16.9204 89.23 16.085C88.8878 15.7045 88.4609 15.4098 87.9839 15.2246C87.4994 15.0229 86.9793 14.9189 86.4546 14.9189ZM26.9556 14.9277C26.4358 14.9195 25.9201 15.0208 25.4419 15.2246C24.9644 15.3951 24.5358 15.6804 24.1948 16.0557C23.8306 16.4461 23.5386 16.8986 23.3335 17.3916C23.0148 18.286 22.9438 19.2499 23.1265 20.1816L23.2749 20.7461C23.3034 20.905 23.3637 21.0567 23.4526 21.1914L28.0542 15.0762C27.8836 15.0084 27.7023 14.9679 27.519 14.957L26.9556 14.9277ZM115.661 14.9277C115.141 14.9196 114.625 15.0207 114.147 15.2246C113.67 15.3951 113.241 15.6805 112.9 16.0557C112.536 16.446 112.245 16.8987 112.04 17.3916C111.721 18.286 111.649 19.2499 111.832 20.1816L111.98 20.7461C112.008 20.905 112.07 21.0567 112.159 21.1914L116.759 15.0762C116.589 15.0084 116.408 14.9679 116.225 14.957L115.661 14.9277Z" fill="white"/>
</svg>
