<svg width="164" height="32" viewBox="0 0 164 32" fill="none" xmlns="http://www.w3.org/2000/svg">
<path d="M56.1986 22.8444L51.7812 9.62665L53.4843 9.62866L57.3243 21.1126L61.2374 9.64072L62.9411 9.64406L58.4822 22.8478L56.1986 22.8444ZM67.9886 22.8625L68.0093 9.65143L76.3892 9.66483L76.3866 11.2152L69.6461 11.2045L69.6394 15.3425L75.2749 15.3512L75.2722 16.9016L69.6374 16.8929L69.63 21.3149L76.3705 21.3256L76.3685 22.8759L67.9886 22.8625ZM82.4487 22.8853L82.4701 9.6742L84.1088 9.67688L84.0907 21.3376L90.2412 21.347L90.2392 22.898L82.4487 22.8853ZM100.571 23.1893C99.2511 23.1867 98.1311 22.8942 97.2114 22.312C96.2917 21.7298 95.5901 20.9215 95.1066 19.8871C94.6298 18.8526 94.3922 17.6565 94.394 16.2988C94.3963 14.9407 94.6376 13.7453 95.118 12.7126C95.6046 11.6799 96.3087 10.8736 97.2302 10.2937C98.1517 9.71371 99.2725 9.42507 100.593 9.42775C101.919 9.42999 103.042 9.7222 103.961 10.3044C104.881 10.8866 105.58 11.6949 106.057 12.7294C106.535 13.7638 106.772 14.9601 106.769 16.3183C106.767 17.6755 106.526 18.8707 106.046 19.9038C105.565 20.9369 104.864 21.7432 103.943 22.3228C103.021 22.9023 101.897 23.1911 100.571 23.1893ZM100.573 21.629C101.562 21.637 102.385 21.4182 103.042 20.9726C103.706 20.5208 104.201 19.8949 104.528 19.0948C104.86 18.2939 105.028 17.3674 105.029 16.3156C105.031 15.2575 104.867 14.3306 104.537 13.535C104.212 12.739 103.719 12.1173 103.057 11.6699C102.401 11.2225 101.579 10.9948 100.59 10.9868C99.6016 10.9797 98.7788 11.1987 98.1216 11.6438C97.4697 12.0893 96.9775 12.7126 96.6449 13.5136C96.3123 14.3145 96.1422 15.2438 96.1346 16.3015C96.1265 17.3529 96.2877 18.2767 96.6181 19.0727C96.9485 19.8688 97.4416 20.4934 98.0975 20.9465C98.7596 21.3939 99.5848 21.6209 100.573 21.629ZM117.743 23.2168C116.423 23.2146 115.303 22.9221 114.383 22.3395C113.463 21.7569 112.762 20.9485 112.278 19.9145C111.801 18.8801 111.563 17.684 111.566 16.3263C111.567 14.9681 111.809 13.7727 112.29 12.7401C112.776 11.7074 113.48 10.9013 114.402 10.3218C115.323 9.74229 116.444 9.45342 117.764 9.45521C119.299 9.45744 120.56 9.84765 121.547 10.6258C122.541 11.4045 123.224 12.4514 123.595 13.7667L121.928 14.2047C121.66 13.2198 121.179 12.4423 120.486 11.8721C119.794 11.3025 118.885 11.0167 117.762 11.0149C116.774 11.0131 115.951 11.235 115.293 11.6806C114.635 12.1262 114.14 12.7492 113.808 13.5497C113.475 14.3444 113.305 15.2709 113.297 16.329C113.289 17.3808 113.45 18.3077 113.78 19.1096C114.111 19.9047 114.607 20.5293 115.269 20.9834C115.932 21.4312 116.757 21.6557 117.745 21.6571C118.869 21.6589 119.778 21.376 120.472 20.8086C121.167 20.2344 121.65 19.4582 121.921 18.48L123.587 18.9227C123.211 20.2313 122.525 21.276 121.529 22.0569C120.539 22.8324 119.277 23.219 117.743 23.2168ZM129.468 22.9596L129.489 9.74854L131.128 9.75122L131.107 22.9623L129.468 22.9596ZM140.969 22.9777L140.987 11.317L136.466 11.3103L136.469 9.75925L147.15 9.77666L147.148 11.327L142.627 11.3196L142.608 22.9804L140.969 22.9777ZM156.013 23.0012L156.021 17.5056L151.568 9.78336L153.474 9.78604L156.853 15.6358L160.242 9.79609L162.149 9.8001L157.679 17.5083L157.671 23.0038L156.013 23.0012Z" fill="white"/>
<path d="M22.0686 20.4146L1 15.7655L22.0686 11.1172L25.5551 15.7649L22.0686 20.4146Z" fill="white"/>
<path d="M25.4619 7.79316L25.4124 7.73557H16.2241L17.0077 6.35599L17.1302 6.12629L18.3062 4H33.1561L39.7968 13.0523H29.3093L25.4619 7.79316ZM25.4619 23.6931L25.4124 23.7507H16.2241L17.0077 25.1303L17.1302 25.36L18.3062 27.4862H33.1561L39.7968 18.4346H29.3093L25.4619 23.6931Z" fill="white"/>
</svg>
