<svg width="120" height="32" viewBox="0 0 120 32" fill="none" xmlns="http://www.w3.org/2000/svg">
<path d="M59.2111 9.60313C54.5763 9.60313 51.2346 12.4831 51.2346 16.8031C51.2346 21.1231 54.9961 24.0031 59.6309 24.0031C62.4311 24.0031 64.8997 22.9471 66.4278 21.1671L63.2162 19.3991C62.3681 20.2831 61.0793 20.7991 59.6309 20.7991C57.62 20.7991 55.9113 19.7991 55.2774 18.1991H67.0407C67.1331 17.7511 67.1877 17.2871 67.1877 16.7991C67.1877 12.4831 63.8459 9.60313 59.2111 9.60313ZM55.2396 15.4031C55.7644 13.8071 57.2002 12.8031 59.2069 12.8031C61.2178 12.8031 62.6536 13.8071 63.1742 15.4031H55.2396ZM104.417 9.60313C99.7823 9.60313 96.4406 12.4831 96.4406 16.8031C96.4406 21.1231 100.202 24.0031 104.837 24.0031C107.637 24.0031 110.106 22.9471 111.634 21.1671L108.422 19.3991C107.574 20.2831 106.285 20.7991 104.837 20.7991C102.826 20.7991 101.117 19.7991 100.483 18.1991H112.247C112.339 17.7511 112.394 17.2871 112.394 16.7991C112.394 12.4831 109.052 9.60313 104.417 9.60313ZM100.45 15.4031C100.975 13.8071 102.41 12.8031 104.417 12.8031C106.428 12.8031 107.864 13.8071 108.384 15.4031H100.45ZM84.0643 16.8031C84.0643 19.2031 85.71 20.8031 88.2625 20.8031C89.9922 20.8031 91.2894 20.0551 91.9569 18.8351L95.1811 20.6071C93.8461 22.7271 91.344 24.0031 88.2625 24.0031C83.6235 24.0031 80.286 21.1231 80.286 16.8031C80.286 12.4831 83.6277 9.60313 88.2625 9.60313C91.344 9.60313 93.8419 10.8791 95.1811 12.9991L91.9569 14.7711C91.2894 13.5511 89.9922 12.8031 88.2625 12.8031C85.7142 12.8031 84.0643 14.4031 84.0643 16.8031ZM118.691 5.20312V23.6031H114.913V5.20312H118.691ZM15.5123 3.20312L31.0245 28.8031H0L15.5123 3.20312ZM54.295 5.20312L42.6619 24.4031L31.0287 5.20312H35.3907L42.6619 17.2031L49.9331 5.20312H54.295ZM79.0265 10.0031V13.8791C78.6067 13.7631 78.1617 13.6831 77.6831 13.6831C75.244 13.6831 73.4849 15.2831 73.4849 17.6831V23.6031H69.7066V10.0031H73.4849V13.6831C73.4849 11.6511 75.966 10.0031 79.0265 10.0031Z" fill="white"/>
</svg>
