<svg width="144" height="32" viewBox="0 0 144 32" fill="none" xmlns="http://www.w3.org/2000/svg">
<path fill-rule="evenodd" clip-rule="evenodd" d="M21.5869 20.5724C21.5869 20.8404 21.4402 21.0837 21.2129 21.2218L11.3008 26.9503C10.9922 27.1288 10.6103 27.1289 10.3018 26.9503L0.374023 21.2218C0.146545 21.0918 5.17477e-06 20.8405 0 20.5724V17.2657L6.23145 20.8644C6.38577 20.9537 6.57223 20.9537 6.72656 20.8644L10.5459 18.6554C10.7002 18.5661 10.8868 18.5661 11.041 18.6554L14.8594 20.8644C15.0138 20.9538 15.201 20.9538 15.3555 20.8644L21.5869 17.2657V20.5724ZM120.648 11.6876C121.138 11.6876 121.608 11.7669 122.061 11.9249C122.524 12.0708 122.946 12.2832 123.325 12.5626V11.9786C123.325 11.8986 123.39 11.8333 123.47 11.8331H125.288C125.368 11.8331 125.433 11.8985 125.433 11.9786V21.298C125.433 22.5259 125.048 23.4687 124.278 24.1251C123.508 24.7936 122.401 25.1281 120.96 25.1281C120.251 25.128 119.567 25.0487 118.907 24.8907C118.298 24.7447 117.739 24.5468 117.234 24.297C117.165 24.2625 117.136 24.1788 117.169 24.1085L117.817 22.7101C117.852 22.6359 117.941 22.6055 118.015 22.6407C118.504 22.8746 118.973 23.0469 119.42 23.1583C119.922 23.292 120.417 23.3585 120.905 23.3585C121.7 23.3585 122.298 23.1826 122.701 22.8302C123.104 22.4898 123.307 21.9732 123.307 21.2804V20.3683C122.5 20.9761 121.589 21.2804 120.575 21.2804C119.707 21.2803 118.914 21.0672 118.192 20.6417C117.472 20.2163 116.898 19.6387 116.47 18.9093C116.042 18.1798 115.828 17.3709 115.828 16.4835C115.828 15.584 116.042 14.7759 116.47 14.0587C116.898 13.3292 117.472 12.7518 118.192 12.3263C118.926 11.9008 119.745 11.6876 120.648 11.6876ZM73.7451 11.6876C74.6373 11.6876 75.426 11.9062 76.1104 12.3439C76.8067 12.7815 77.3566 13.3773 77.7598 14.131C78.1631 14.8726 78.3643 15.7179 78.3643 16.6661V17.0861C78.3643 17.1662 78.2998 17.2314 78.2197 17.2316H71.124C71.234 17.6935 71.4236 18.1007 71.6924 18.4532C71.9612 18.8057 72.2971 19.0855 72.7002 19.2921C73.1156 19.4987 73.5679 19.6026 74.0566 19.6027C74.4966 19.6027 74.9126 19.5353 75.3037 19.4015C75.6575 19.2736 75.9597 19.1082 76.21 18.9054C76.2689 18.8578 76.3541 18.8584 76.4092 18.9103L77.5625 19.9962C77.6273 20.0574 77.6234 20.1629 77.5518 20.2159C77.032 20.6017 76.4962 20.8891 75.9453 21.0792C75.3587 21.2859 74.6981 21.3898 73.9648 21.3898C73.024 21.3897 72.1745 21.1765 71.417 20.7511C70.6717 20.3256 70.0732 19.748 69.6211 19.0187C69.1811 18.2771 68.9609 17.4501 68.9609 16.5382C68.961 15.6265 69.1749 14.8057 69.6025 14.0763C70.0302 13.3471 70.6044 12.7694 71.3252 12.3439C72.0462 11.9062 72.8531 11.6876 73.7451 11.6876ZM131.869 11.6876C132.762 11.6876 133.55 11.9063 134.234 12.3439C134.931 12.7814 135.481 13.3774 135.884 14.131C136.287 14.8726 136.489 15.7179 136.489 16.6661V17.0861C136.489 17.1663 136.424 17.2316 136.344 17.2316H129.249C129.359 17.6935 129.549 18.1007 129.817 18.4532C130.086 18.8058 130.422 19.0855 130.825 19.2921C131.241 19.4987 131.693 19.6027 132.182 19.6027C132.622 19.6026 133.037 19.5352 133.428 19.4015C133.782 19.2735 134.084 19.1082 134.334 18.9054C134.393 18.8577 134.479 18.8584 134.534 18.9103L135.688 19.9962C135.752 20.0574 135.748 20.1629 135.676 20.2159C135.156 20.6016 134.62 20.8891 134.069 21.0792C133.483 21.2859 132.822 21.3898 132.09 21.3898C131.149 21.3898 130.299 21.1766 129.542 20.7511C128.796 20.3256 128.197 19.7479 127.746 19.0187C127.306 18.2771 127.086 17.4501 127.086 16.5382C127.086 15.6265 127.3 14.8057 127.728 14.0763C128.155 13.347 128.73 12.7694 129.45 12.3439C130.171 11.9064 130.978 11.6877 131.869 11.6876ZM65.2871 8.9884C65.3781 8.96732 65.4658 9.03653 65.4658 9.13001V11.8282H68.0693C68.1496 11.8282 68.2148 11.8935 68.2148 11.9738V13.4698C68.2148 13.5501 68.1496 13.6154 68.0693 13.6154H65.4658V18.3019C65.4658 18.7517 65.5696 19.0741 65.7773 19.2687C65.9851 19.4632 66.3335 19.5607 66.8223 19.5607C67.0663 19.5607 67.2861 19.5488 67.4814 19.5245C67.633 19.4979 67.7948 19.4579 67.9658 19.4054C68.0613 19.3762 68.16 19.4462 68.1602 19.546V21.006C68.1601 21.0686 68.1196 21.1248 68.0596 21.1427C67.8248 21.2129 67.5524 21.2692 67.2432 21.3116C66.9013 21.3602 66.5958 21.3839 66.3271 21.3839C65.3495 21.3839 64.604 21.159 64.0908 20.7091C63.5899 20.2593 63.3389 19.6089 63.3389 18.7579V13.6154H61.5049C61.4246 13.6154 61.3594 13.5501 61.3594 13.4698V11.9738C61.3594 11.8935 61.4246 11.8282 61.5049 11.8282H63.3389V9.55481C63.3389 9.48737 63.3855 9.42857 63.4512 9.41321L65.2871 8.9884ZM141.068 8.9884C141.16 8.96733 141.247 9.03654 141.247 9.13001V11.8282H143.851C143.931 11.8282 143.997 11.8935 143.997 11.9738V13.4698C143.997 13.5501 143.931 13.6154 143.851 13.6154H141.247V18.3019C141.247 18.7516 141.35 19.0741 141.558 19.2687C141.766 19.4632 142.114 19.5607 142.604 19.5607C142.847 19.5607 143.067 19.5488 143.263 19.5245C143.415 19.4979 143.576 19.4579 143.747 19.4054C143.842 19.3761 143.941 19.4462 143.941 19.546V21.006C143.941 21.0686 143.901 21.1248 143.842 21.1427C143.607 21.213 143.334 21.2692 143.025 21.3116C142.683 21.3603 142.376 21.3839 142.107 21.3839C141.131 21.3839 140.385 21.159 139.872 20.7091C139.371 20.2593 139.12 19.6088 139.12 18.7579V13.6154H137.286C137.205 13.6153 137.141 13.55 137.141 13.4698V11.9738C137.141 11.8936 137.205 11.8283 137.286 11.8282H139.12V9.55481C139.12 9.48734 139.167 9.42853 139.232 9.41321L141.068 8.9884ZM113.999 8.10364C114.088 8.08759 114.171 8.15666 114.171 8.24719V21.0763C114.171 21.1565 114.105 21.2217 114.025 21.2218H112.208C112.128 21.2218 112.062 21.1565 112.062 21.0763V20.3829C111.281 21.0395 110.352 21.3673 109.276 21.3673C108.396 21.3673 107.59 21.155 106.857 20.7296C106.136 20.2919 105.562 19.7081 105.134 18.9786C104.706 18.2492 104.492 17.4286 104.492 16.5167C104.492 15.6172 104.706 14.8028 105.134 14.0734C105.562 13.344 106.142 12.7665 106.875 12.3409C107.609 11.9155 108.427 11.7023 109.331 11.7023C109.82 11.7023 110.297 11.7751 110.762 11.921C111.225 12.0669 111.653 12.2737 112.044 12.5411V8.57727C112.044 8.50712 112.095 8.44714 112.164 8.43469L113.999 8.10364ZM49.2148 8.01965C49.3055 7.99942 49.3916 8.06828 49.3916 8.16126V12.7032C50.1248 11.9981 51.0481 11.6456 52.1602 11.6456C52.881 11.6457 53.5166 11.8032 54.0664 12.1193C54.6286 12.4354 55.0626 12.8735 55.3682 13.4327C55.6857 13.9797 55.8447 14.624 55.8447 15.3654V21.0743C55.8447 21.1545 55.7794 21.2198 55.6992 21.2199H53.8633C53.7831 21.2199 53.7178 21.1545 53.7178 21.0743V15.6935C53.7177 15.0129 53.5227 14.478 53.1318 14.089C52.7409 13.6879 52.209 13.4875 51.5371 13.4874C51.0727 13.4874 50.6566 13.5849 50.29 13.7794C49.9489 13.9667 49.6591 14.2217 49.4199 14.5441C49.4019 14.5684 49.3916 14.5977 49.3916 14.6281V21.0743C49.3915 21.1544 49.3271 21.2197 49.2471 21.2199H47.4111C47.3309 21.2199 47.2657 21.1545 47.2656 21.0743V8.57044C47.2656 8.5025 47.3127 8.44377 47.3789 8.42883L49.2148 8.01965ZM32.0068 8.45325C32.0759 8.45325 32.1356 8.50182 32.1494 8.56946L34.0137 17.6993L36.6963 8.55774C36.7144 8.49602 36.7706 8.45345 36.835 8.45325H38.7627C38.8272 8.45331 38.8842 8.49596 38.9023 8.55774L41.584 17.6808L43.4482 8.56946C43.4621 8.50188 43.5218 8.45328 43.5908 8.45325H45.5098C45.6025 8.45329 45.6713 8.5394 45.6514 8.63001L42.9111 21.1046C42.8966 21.1712 42.8367 21.2189 42.7686 21.2189H40.6484C40.584 21.2189 40.5269 21.1763 40.5088 21.1144L37.7715 11.6993L35.0156 21.1144C34.9975 21.1762 34.9405 21.2189 34.876 21.2189H32.7559C32.6876 21.2189 32.6281 21.1711 32.6133 21.1046L29.8555 8.63001C29.8354 8.53932 29.9042 8.45325 29.9971 8.45325H32.0068ZM85.4521 8.45325C85.5212 8.45325 85.581 8.50182 85.5947 8.56946L87.459 17.6993L90.1416 8.55774C90.1597 8.49601 90.216 8.45344 90.2803 8.45325H92.208C92.2724 8.45328 92.3294 8.49593 92.3477 8.55774L95.0293 17.6808L96.8936 8.56946C96.9074 8.50187 96.9672 8.45327 97.0361 8.45325H98.9551C99.0479 8.45331 99.1166 8.53941 99.0967 8.63001L96.3564 21.1046C96.3419 21.1712 96.2821 21.2189 96.2139 21.2189H94.0938C94.0292 21.2189 93.9722 21.1763 93.9541 21.1144L91.2168 11.6993L88.4609 21.1144C88.4427 21.1762 88.3858 21.2189 88.3213 21.2189H86.2012C86.133 21.2189 86.0733 21.1711 86.0586 21.1046L83.3008 8.63001C83.2808 8.53932 83.3495 8.45325 83.4424 8.45325H85.4521ZM59.8545 11.8243C59.9347 11.8243 60 11.8896 60 11.9698V21.0714C59.9998 21.1515 59.9346 21.2159 59.8545 21.2159H58.0186C57.9385 21.2158 57.8742 21.1514 57.874 21.0714V11.9698C57.874 11.8897 57.9384 11.8245 58.0186 11.8243H59.8545ZM102.698 11.8243C102.778 11.8243 102.844 11.8896 102.844 11.9698V21.0714C102.844 21.1515 102.778 21.2159 102.698 21.2159H100.862C100.782 21.2158 100.718 21.1514 100.718 21.0714V11.9698C100.718 11.8897 100.782 11.8245 100.862 11.8243H102.698ZM109.588 13.5255C109.027 13.5255 108.519 13.6596 108.067 13.9269C107.615 14.1821 107.254 14.5348 106.985 14.9845C106.728 15.4343 106.6 15.9453 106.6 16.5167C106.6 17.076 106.728 17.5869 106.985 18.049C107.254 18.5109 107.615 18.8753 108.067 19.1427C108.519 19.3979 109.027 19.5255 109.588 19.5255C110.089 19.5255 110.547 19.4408 110.963 19.2706C111.391 19.0883 111.752 18.8323 112.044 18.504V14.5294C111.752 14.2134 111.391 13.9692 110.963 13.799C110.547 13.6167 110.089 13.5256 109.588 13.5255ZM120.905 13.5294C120.343 13.5294 119.836 13.6634 119.385 13.9308C118.945 14.1861 118.589 14.5386 118.32 14.9884C118.064 15.426 117.936 15.9244 117.936 16.4835C117.936 17.0426 118.064 17.5474 118.32 17.9972C118.589 18.447 118.945 18.8059 119.385 19.0734C119.836 19.3407 120.338 19.4747 120.888 19.4747C121.388 19.4747 121.846 19.3891 122.262 19.2189C122.677 19.0366 123.026 18.7877 123.307 18.4718V14.5138C123.026 14.2101 122.671 13.973 122.244 13.8029C121.829 13.6206 121.382 13.5295 120.905 13.5294ZM21.5869 14.7755L15.3711 18.3751C15.2169 18.4642 15.0301 18.4642 14.876 18.3751L11.0576 16.1652C10.9033 16.0758 10.7159 16.0758 10.5615 16.1652L6.74316 18.3751C6.5727 18.4643 6.3857 18.4643 6.23145 18.3751L0 14.7755V12.2814L6.23145 15.88C6.38578 15.9694 6.57223 15.9693 6.72656 15.88L10.5459 13.671C10.7002 13.5817 10.8867 13.5817 11.041 13.671L14.8594 15.88C15.0138 15.9694 15.201 15.9694 15.3555 15.88L21.5869 12.2814V14.7755ZM73.709 13.4562C73.2814 13.4562 72.8841 13.5538 72.5176 13.7482C72.1633 13.9305 71.8635 14.1858 71.6191 14.5138C71.3747 14.842 71.2095 15.2319 71.124 15.6818H76.2568C76.1713 15.2442 75.9999 14.8606 75.7432 14.5323C75.4988 14.2042 75.1991 13.9427 74.8447 13.7482C74.5028 13.5538 74.1242 13.4562 73.709 13.4562ZM131.833 13.4562C131.405 13.4562 131.009 13.5538 130.642 13.7482C130.288 13.9306 129.987 14.1857 129.743 14.5138C129.499 14.842 129.334 15.2319 129.249 15.6818H134.381C134.296 15.2442 134.125 14.8606 133.868 14.5323C133.624 14.2042 133.325 13.9427 132.97 13.7482C132.628 13.5536 132.249 13.4562 131.833 13.4562ZM10.3018 2.59485C10.6104 2.41628 10.9922 2.41632 11.3008 2.59485L21.2295 8.32239C21.465 8.45241 21.6025 8.70474 21.6025 8.97278V9.78528L15.3711 13.3839C15.2167 13.4733 15.0303 13.4733 14.876 13.3839L11.0576 11.1749C10.9033 11.0856 10.7159 11.0856 10.5615 11.1749L6.74316 13.3839C6.57255 13.4733 6.38581 13.4733 6.23145 13.3839L0 9.78528V8.97278C0 8.70467 0.146541 8.4605 0.374023 8.32239L10.3018 2.59485ZM58.9365 7.97669C59.2908 7.97669 59.5906 8.09795 59.835 8.34094C60.0794 8.5841 60.2012 8.88291 60.2012 9.23547C60.2011 9.58784 60.0793 9.88598 59.835 10.129C59.5906 10.372 59.2908 10.4933 58.9365 10.4933C58.5945 10.4933 58.2948 10.3721 58.0381 10.129C57.7938 9.88598 57.672 9.58784 57.6719 9.23547C57.6719 8.88291 57.7937 8.5841 58.0381 8.34094C58.2948 8.09785 58.5945 7.97672 58.9365 7.97669ZM101.78 7.97669C102.135 7.97669 102.434 8.09799 102.679 8.34094C102.923 8.5841 103.045 8.88291 103.045 9.23547C103.045 9.58784 102.923 9.88598 102.679 10.129C102.434 10.372 102.135 10.4933 101.78 10.4933C101.438 10.4933 101.139 10.3721 100.882 10.129C100.638 9.88598 100.516 9.58784 100.516 9.23547C100.516 8.88291 100.637 8.5841 100.882 8.34094C101.139 8.09784 101.438 7.97672 101.78 7.97669Z" fill="white"/>
</svg>
