<svg width="138" height="32" viewBox="0 0 138 32" fill="none" xmlns="http://www.w3.org/2000/svg">
<path d="M37.2375 11.8419C36.0296 11.1493 34.6651 10.8008 33.144 10.8008C31.6229 10.8008 30.2539 11.1493 29.037 11.8419C27.8202 12.5346 26.8538 13.4864 26.1425 14.6884C25.4312 15.8949 25.0732 17.2757 25.0732 18.8307C25.0732 20.3857 25.4357 21.7441 26.156 22.9595C26.8763 24.175 27.847 25.1357 29.0639 25.8372C30.2808 26.5388 31.6408 26.8919 33.1395 26.8919C34.6382 26.8919 35.9714 26.5477 37.1883 25.8506C38.4052 25.1581 39.376 24.2018 40.0963 22.9908C40.8166 21.7754 41.1789 20.3901 41.1789 18.8351C41.1789 17.2801 40.821 15.8993 40.1096 14.6928C39.3984 13.4864 38.4365 12.539 37.2286 11.8464L37.2375 11.8419ZM37.2107 21.4403C36.8035 22.2088 36.2443 22.812 35.5419 23.25C34.8396 23.688 34.0388 23.9069 33.1484 23.9069C32.2582 23.9069 31.4529 23.688 30.737 23.25C30.0258 22.812 29.462 22.2088 29.055 21.4403C28.6478 20.6717 28.4421 19.8048 28.4421 18.8351C28.4421 17.8655 28.6478 17.0075 29.055 16.2568C29.462 15.5061 30.0258 14.9073 30.737 14.465C31.4484 14.0181 32.2537 13.7947 33.1484 13.7947C34.0432 13.7947 34.8396 14.0181 35.5419 14.465C36.2443 14.9118 36.7991 15.5106 37.2107 16.2568C37.6177 17.0075 37.8236 17.8655 37.8236 18.8351C37.8236 19.8048 37.6177 20.6717 37.2107 21.4403Z" fill="white"/>
<path d="M47.8995 11.6175C47.7071 11.7293 47.5327 11.8588 47.3672 12.0063C47.045 12.2968 46.5306 12.0823 46.5306 11.6443C46.5306 11.3673 46.3069 11.1483 46.034 11.1483H43.9536C43.6762 11.1483 43.457 11.3718 43.457 11.6443V26.0553C43.457 26.3323 43.6807 26.5513 43.9536 26.5513H46.1772C46.4545 26.5513 46.6736 26.3278 46.6736 26.0553V17.6679C46.6736 16.4703 47.0003 15.5409 47.6579 14.8751C48.3155 14.2093 49.1746 13.8786 50.2392 13.8786H51.0803C51.3578 13.8786 51.5769 13.6552 51.5769 13.3826V11.4433C51.5769 11.1662 51.3533 10.9473 51.0803 10.9473H50.6375C49.5727 10.9473 48.66 11.1707 47.8995 11.6175Z" fill="white"/>
<path d="M65.0456 11.6134C65.0456 12.0826 64.5132 12.3507 64.1374 12.0736C63.878 11.8815 63.5961 11.7027 63.2919 11.5508C62.33 11.0593 61.2429 10.809 60.026 10.809C58.5631 10.809 57.2478 11.1621 56.0757 11.8636C54.908 12.5652 53.9864 13.5259 53.3108 14.7413C52.6353 15.9567 52.2998 17.3241 52.2998 18.8434C52.2998 20.3627 52.6353 21.7301 53.3108 22.9455C53.9864 24.1609 54.908 25.1261 56.0757 25.8366C57.2433 26.547 58.5587 26.9046 60.026 26.9046C61.225 26.9046 62.3122 26.6588 63.2919 26.1628C63.6408 25.9885 63.9585 25.783 64.2493 25.5506C64.6295 25.2467 65.1888 25.5014 65.1888 25.9885C65.1888 26.3057 65.4437 26.5605 65.7614 26.5605H67.6941C68.0118 26.5605 68.2667 26.3057 68.2667 25.9885V5.57197C68.2667 5.2547 68.0118 5 67.6941 5H65.6183C65.3007 5 65.0456 5.2547 65.0456 5.57197V11.6134ZM64.4327 21.4485C64.0257 22.2171 63.4664 22.8204 62.7639 23.2582C62.0616 23.6962 61.2608 23.9151 60.3705 23.9151C59.4803 23.9151 58.6436 23.6962 57.9323 23.2582C57.221 22.8204 56.6617 22.2171 56.2636 21.4485C55.8654 20.6799 55.6641 19.8131 55.6641 18.8434C55.6641 17.8737 55.8654 17.0158 56.2636 16.2651C56.6617 15.5144 57.2255 14.9156 57.9458 14.4732C58.666 14.0264 59.4758 13.8029 60.3705 13.8029C61.2652 13.8029 62.0616 14.0219 62.7639 14.4598C63.4664 14.8977 64.0211 15.501 64.4327 16.2695C64.8399 17.0381 65.0456 17.896 65.0456 18.8478C65.0456 19.7996 64.8399 20.6845 64.4327 21.453V21.4485Z" fill="white"/>
<path d="M85.6901 19.3665L83.1222 11.6852C83.0149 11.3635 82.7107 11.1445 82.3707 11.1445H80.5722C80.2322 11.1445 79.928 11.3635 79.8206 11.6852L77.2302 19.3711C76.9887 20.0905 75.9641 20.0905 75.727 19.3665L73.1949 11.6897C73.0875 11.3635 72.7833 11.1445 72.4433 11.1445H70.703C70.1571 11.1445 69.777 11.6807 69.9558 12.1946L74.716 26.0201C74.8279 26.3374 75.1275 26.5519 75.4631 26.5519H77.2616C77.6016 26.5519 77.9058 26.333 78.0132 26.0112L80.7153 17.8741C80.9569 17.1502 81.9769 17.1502 82.2186 17.8741L84.9207 26.0112C85.028 26.333 85.3323 26.5519 85.6723 26.5519H87.4439C87.7794 26.5519 88.0837 26.3374 88.1911 26.0201L92.9735 12.1946C93.1524 11.6807 92.7677 11.1445 92.2264 11.1445H90.4906C90.1506 11.1445 89.8463 11.3635 89.7389 11.6852L87.1888 19.3665C86.9473 20.0905 85.9273 20.0905 85.6857 19.3665H85.6901Z" fill="white"/>
<path d="M16.779 19.3665L14.2111 11.6852C14.1037 11.3635 13.7994 11.1445 13.4594 11.1445H11.661C11.321 11.1445 11.0168 11.3635 10.9094 11.6852L8.31909 19.3711C8.07751 20.0905 7.05301 20.0905 6.8159 19.3665L4.28374 11.6897C4.17637 11.3635 3.87215 11.1445 3.53214 11.1445H1.79184C1.24603 11.1445 0.865763 11.6807 1.04472 12.1946L5.80483 26.0201C5.91667 26.3374 6.21642 26.5519 6.55196 26.5519H8.35041C8.69042 26.5519 8.99464 26.333 9.10201 26.0112L11.8042 17.8741C12.0458 17.1502 13.0658 17.1502 13.3074 17.8741L16.0095 26.0112C16.1169 26.333 16.4211 26.5519 16.7612 26.5519H18.5327C18.8683 26.5519 19.1725 26.3374 19.2799 26.0201L24.0624 12.1946C24.2413 11.6807 23.8565 11.1445 23.3152 11.1445H21.5794C21.2394 11.1445 20.9352 11.3635 20.8278 11.6852L18.2777 19.3665C18.0362 20.0905 17.0162 20.0905 16.7745 19.3665H16.779Z" fill="white"/>
<path d="M117.438 11.6175C117.245 11.7293 117.071 11.8588 116.905 12.0063C116.583 12.2968 116.069 12.0823 116.069 11.6443C116.069 11.3673 115.845 11.1483 115.572 11.1483H113.492C113.214 11.1483 112.995 11.3718 112.995 11.6443V26.0553C112.995 26.3323 113.219 26.5513 113.492 26.5513H115.715C115.993 26.5513 116.212 26.3278 116.212 26.0553V17.6679C116.212 16.4703 116.538 15.5409 117.196 14.8751C117.854 14.2093 118.713 13.8786 119.777 13.8786H120.619C120.896 13.8786 121.115 13.6552 121.115 13.3826V11.4433C121.115 11.1662 120.891 10.9473 120.619 10.9473H120.176C119.111 10.9473 118.198 11.1707 117.438 11.6175Z" fill="white"/>
<path d="M137.094 15.4123C136.763 14.5186 136.28 13.7277 135.654 13.035C135.027 12.3424 134.257 11.7973 133.345 11.3996C132.432 11.0019 131.385 10.8008 130.209 10.8008C128.782 10.8008 127.493 11.1493 126.343 11.8419C125.194 12.5346 124.286 13.4774 123.619 14.675C122.953 15.8725 122.622 17.2489 122.622 18.8039C122.622 20.3589 122.953 21.6949 123.619 22.9194C124.286 24.1437 125.207 25.1133 126.384 25.8239C127.56 26.5344 128.921 26.8918 130.459 26.8918C131.524 26.8918 132.499 26.7265 133.381 26.3913C134.267 26.0607 135.023 25.6093 135.662 25.0374C136.052 24.6888 136.378 24.3135 136.642 23.9114C136.911 23.5003 136.768 22.9507 136.329 22.7316L135.081 22.106C134.732 21.9318 134.316 22.0346 134.074 22.3429C133.739 22.7629 133.345 23.1205 132.884 23.4154C132.24 23.8309 131.439 24.041 130.491 24.041C129.597 24.041 128.795 23.8219 128.079 23.3841C127.368 22.9461 126.814 22.3384 126.424 21.5609C126.303 21.324 126.209 21.0693 126.133 20.8057C125.99 20.283 126.375 19.7646 126.916 19.7646H136.746C137.161 19.7646 137.524 19.4474 137.555 19.0317C137.555 19.0317 137.555 19.0272 137.555 19.0228C137.573 18.7592 137.581 18.5 137.581 18.2542C137.581 17.2489 137.416 16.297 137.081 15.4078L137.094 15.4123ZM126.419 15.9798C126.782 15.1844 127.293 14.5722 127.958 14.1432C128.625 13.7142 129.372 13.5042 130.209 13.5042C131.046 13.5042 131.815 13.7187 132.459 14.1432C133.104 14.5677 133.583 15.1486 133.887 15.8815C133.926 15.9753 133.963 16.0736 133.99 16.1719C134.151 16.6858 133.748 17.2041 133.207 17.2041H127.122C126.545 17.2041 126.142 16.6143 126.367 16.0825C126.38 16.0468 126.397 16.011 126.411 15.9798H126.419Z" fill="white"/>
<path d="M106.48 11.7086C106.48 12.1778 105.948 12.4459 105.572 12.1689C105.313 11.9767 105.031 11.798 104.726 11.6461C103.765 11.1545 102.678 10.9043 101.461 10.9043C99.9977 10.9043 98.6824 11.2573 97.5102 11.9589C96.3426 12.6604 95.421 13.6211 94.7455 14.8366C94.07 16.052 93.7344 17.4193 93.7344 18.9387C93.7344 20.4579 94.07 21.8253 94.7455 23.0407C95.421 24.2561 96.3426 25.2214 97.5102 25.9319C98.6779 26.6423 99.9932 26.9998 101.461 26.9998C102.66 26.9998 103.747 26.754 104.726 26.2581C105.075 26.0837 105.393 25.8782 105.684 25.6459C106.064 25.3419 106.623 25.5967 106.623 26.0837C106.623 26.401 106.878 26.6557 107.196 26.6557H109.129C109.446 26.6557 109.701 26.401 109.701 26.0837V11.6997C109.701 11.3824 109.446 11.1277 109.129 11.1277H107.053C106.735 11.1277 106.48 11.3824 106.48 11.6997V11.7086ZM105.867 21.5393C105.46 22.3079 104.901 22.9111 104.199 23.3491C103.496 23.7869 102.695 24.006 101.805 24.006C100.915 24.006 100.078 23.7869 99.3669 23.3491C98.6555 22.9111 98.0964 22.3079 97.6981 21.5393C97.3 20.7707 97.0987 19.9038 97.0987 18.9342C97.0987 17.9645 97.3 17.1066 97.6981 16.3559C98.0964 15.6051 98.66 15.0064 99.3803 14.564C100.101 14.1171 100.91 13.8937 101.805 13.8937C102.7 13.8937 103.496 14.1127 104.199 14.5506C104.901 14.9885 105.456 15.5917 105.867 16.3603C106.274 17.1289 106.48 17.9869 106.48 18.9387C106.48 19.8905 106.274 20.7752 105.867 21.5437V21.5393Z" fill="white"/>
</svg>
