<svg width="143" height="32" viewBox="0 0 143 32" fill="none" xmlns="http://www.w3.org/2000/svg">
<g clip-path="url(#clip0_32214_59328)">
<path fill-rule="evenodd" clip-rule="evenodd" d="M12.8642 3.62342C11.1878 4.11321 9.62992 4.92298 8.28254 6.00493C7.71808 5.07405 6.81999 4.37596 5.75863 4.04303C7.43413 2.58512 9.40414 1.47932 11.5441 0.795461C13.684 0.11164 15.9474 -0.13534 18.1911 0.0702081C20.4348 0.275717 22.61 0.929221 24.5792 1.98945C25.0774 2.25771 25.5597 2.55054 26.0244 2.86644C26.0402 2.85977 26.0562 2.85323 26.0722 2.8468C26.6753 2.60522 27.3389 2.54203 27.9791 2.66522C28.6193 2.78846 29.2074 3.09252 29.6689 3.53898C30.1305 3.98544 30.4447 4.55426 30.5721 5.17351C30.6993 5.79276 30.6339 6.43463 30.3841 7.01789C30.1342 7.60118 29.7111 8.09967 29.1683 8.45038C28.6255 8.80112 27.9874 8.98825 27.3346 8.98817C26.9013 8.98817 26.4721 8.90559 26.0718 8.74518C25.6714 8.58473 25.3076 8.34961 25.0011 8.05319C24.6947 7.75674 24.4516 7.40486 24.2858 7.01757C24.12 6.63028 24.0347 6.21521 24.0348 5.79603C24.0348 5.63231 24.0478 5.46953 24.0734 5.30908C23.7279 5.07953 23.3706 4.86574 23.0025 4.66863C21.4705 3.84809 19.7841 3.3328 18.0427 3.15331C16.3014 2.97378 14.5406 3.13364 12.8642 3.62342ZM7.66335 8.22208C7.66335 8.82307 7.48793 9.41122 7.15818 9.91917L7.83468 11.0511C7.17839 11.806 6.27814 12.3249 5.27939 12.5238L4.61047 11.4048C4.31409 11.4263 4.0145 11.4091 3.71987 11.3525C3.07977 11.2294 2.49178 10.9254 2.03027 10.4791C1.56875 10.0328 1.25444 9.46408 1.12708 8.84499C0.999681 8.2259 1.06497 7.58415 1.31468 7.00093C1.56435 6.41772 1.98723 5.91922 2.52985 5.56844C3.07247 5.2177 3.71042 5.03045 4.36304 5.03033C4.79643 5.03029 5.22555 5.1128 5.62597 5.27317C6.0264 5.43354 6.39022 5.66865 6.69666 5.96503C7.00314 6.26141 7.24625 6.61329 7.41213 7.00054C7.57796 7.38782 7.66335 7.8029 7.66335 8.22208ZM5.27939 12.5238L10.969 22.0423L12.6846 24.9163L14.4004 22.0423L16.5395 18.459L18.6727 22.0294L20.3873 24.9026L22.1028 22.029L24.9805 17.2064H29.6803C29.7362 16.7293 29.7642 16.2495 29.7643 15.7693C29.7644 15.2892 29.7362 14.8094 29.6798 14.3323H23.2645L22.9663 14.8318L20.3865 19.1536L18.2532 15.5828L16.5377 12.7087L14.8249 15.5832L12.6846 19.1665L7.83468 11.0511C7.17839 11.806 6.27814 12.3249 5.27939 12.5238ZM29.7643 15.7693C29.7642 16.2495 29.7362 16.7293 29.6803 17.2064L32.8356 17.2061V14.332L29.6798 14.3323C29.7362 14.8094 29.7644 15.2892 29.7643 15.7693ZM32.8367 14.3323H32.8847C32.9286 14.8056 32.9526 15.2849 32.9526 15.7693C32.9526 24.4774 25.656 31.5379 16.6515 31.5379C7.647 31.5379 0.348162 24.4783 0.348162 15.7702C0.345799 14.2267 0.578839 12.6914 1.0397 11.2136C1.7947 11.9999 2.82186 12.4908 3.92626 12.5931C3.68405 13.6071 3.53651 14.7858 3.53651 15.7693C3.53651 22.773 9.40646 28.4536 16.652 28.4536C23.3939 28.4536 28.9435 23.5347 29.6812 17.2064H32.8367V14.3323Z" fill="white"/>
<path d="M42.7239 21.376L40.131 10.5694H42.2437L43.3481 15.756L44.0364 19.0692H44.0844L44.8847 15.756L46.1652 10.5694H48.502L49.7825 15.756L50.5668 19.0692H50.6148L51.3191 15.756L52.4555 10.5694H54.4722L51.7992 21.376H49.4144L47.9898 15.6631L47.3016 12.8144H47.2696L46.5493 15.6631L45.1248 21.376H42.7239Z" fill="white"/>
<path d="M61.008 20.0291H60.9279C60.8532 20.2355 60.7519 20.4316 60.6238 20.6174C60.5064 20.7929 60.3517 20.9528 60.1596 21.0973C59.9782 21.2418 59.7542 21.3554 59.4874 21.438C59.2313 21.5205 58.9325 21.5618 58.5911 21.5618C57.7268 21.5618 57.0652 21.2883 56.6064 20.7413C56.1475 20.1942 55.9181 19.4149 55.9181 18.4034V13.2943H57.9669V18.2022C57.9669 18.7595 58.0789 19.1879 58.303 19.4872C58.5271 19.7762 58.8845 19.9207 59.3754 19.9207C59.5781 19.9207 59.7755 19.8949 59.9676 19.8433C60.1703 19.7917 60.3464 19.7143 60.4958 19.611C60.6452 19.4975 60.7679 19.3633 60.8639 19.2085C60.9599 19.0434 61.008 18.8524 61.008 18.6357V13.2943H63.0567V21.376H61.008V20.0291Z" fill="white"/>
<path d="M65.4238 21.376V13.2943H67.4726V14.6413H67.5526C67.7233 14.2078 67.9901 13.8465 68.3529 13.5575C68.7264 13.2582 69.2385 13.1085 69.8895 13.1085C70.7538 13.1085 71.4153 13.382 71.8742 13.9291C72.333 14.4761 72.5624 15.2554 72.5624 16.2669V21.376H70.5137V16.4682C70.5137 15.8902 70.407 15.4566 70.1936 15.1676C69.9802 14.8786 69.628 14.7341 69.1372 14.7341C68.9238 14.7341 68.7157 14.7651 68.5129 14.827C68.3209 14.8786 68.1448 14.9612 67.9848 15.0748C67.8354 15.178 67.7127 15.3122 67.6166 15.4773C67.5206 15.6321 67.4726 15.8179 67.4726 16.0347V21.376H65.4238Z" fill="white"/>
<path d="M80.0194 20.0291H79.9394C79.79 20.4935 79.5072 20.8651 79.0911 21.1438C78.6749 21.4225 78.1894 21.5618 77.6345 21.5618C76.5781 21.5618 75.7672 21.1954 75.2016 20.4626C74.6468 19.7297 74.3693 18.6821 74.3693 17.3197C74.3693 15.9676 74.6468 14.9303 75.2016 14.2078C75.7672 13.4749 76.5781 13.1085 77.6345 13.1085C78.1894 13.1085 78.6749 13.2479 79.0911 13.5265C79.5072 13.7949 79.79 14.1613 79.9394 14.6258H80.0194V9.91917H82.0681V21.376H80.0194V20.0291ZM78.2908 19.9207C78.7816 19.9207 79.1924 19.8072 79.5232 19.5801C79.854 19.353 80.0194 19.0279 80.0194 18.6047V16.0347C80.0194 15.6424 79.854 15.3276 79.5232 15.0902C79.1924 14.8528 78.7816 14.7341 78.2908 14.7341C77.7572 14.7341 77.3251 14.9096 76.9943 15.2605C76.6742 15.6012 76.5141 16.0605 76.5141 16.6385V18.0319C76.5141 18.6099 76.6742 19.0692 76.9943 19.4098C77.3251 19.7504 77.7572 19.9207 78.2908 19.9207Z" fill="white"/>
<path d="M87.808 21.5618C87.1891 21.5618 86.6342 21.4638 86.1434 21.2677C85.6632 21.0612 85.2524 20.7774 84.9109 20.4161C84.5801 20.0446 84.3241 19.6007 84.1427 19.0847C83.9613 18.5583 83.8706 17.9699 83.8706 17.3197C83.8706 16.6797 83.9559 16.1017 84.1266 15.5857C84.308 15.0696 84.5641 14.6309 84.8949 14.2697C85.2257 13.8981 85.6312 13.6143 86.1114 13.4182C86.5915 13.2117 87.1357 13.1085 87.744 13.1085C88.3949 13.1085 88.9604 13.2169 89.4406 13.4336C89.9208 13.6504 90.3156 13.9446 90.625 14.3161C90.9345 14.6877 91.1639 15.1212 91.3133 15.6166C91.4733 16.1017 91.5534 16.623 91.5534 17.1803V17.8306H85.9993V18.0319C85.9993 18.6202 86.1701 19.095 86.5115 19.4562C86.853 19.8072 87.3598 19.9826 88.0321 19.9826C88.5443 19.9826 88.9604 19.8794 89.2805 19.673C89.6113 19.4665 89.9048 19.2034 90.1609 18.8834L91.2652 20.0755C90.9238 20.54 90.4543 20.9064 89.8567 21.1748C89.2698 21.4328 88.5869 21.5618 87.808 21.5618ZM87.776 14.5948C87.2318 14.5948 86.7996 14.7703 86.4795 15.1212C86.1594 15.4721 85.9993 15.9263 85.9993 16.4836V16.6075H89.4246V16.4682C89.4246 15.9108 89.2805 15.4618 88.9924 15.1212C88.715 14.7703 88.3095 14.5948 87.776 14.5948Z" fill="white"/>
<path d="M93.3559 21.376V13.2943H95.4046V14.9664H95.4847C95.538 14.7496 95.618 14.5432 95.7248 14.3471C95.8421 14.1407 95.9915 13.96 96.1729 13.8052C96.3543 13.6504 96.5677 13.5265 96.8131 13.4336C97.0692 13.3407 97.3627 13.2943 97.6935 13.2943H98.1416V15.1676H97.5014C96.8078 15.1676 96.2849 15.2657 95.9328 15.4618C95.5807 15.6579 95.4046 15.9779 95.4046 16.4217V21.376H93.3559Z" fill="white"/>
<path d="M107.046 19.7039H106.982C106.886 20.2303 106.582 20.6742 106.07 21.0354C105.569 21.3863 104.896 21.5618 104.053 21.5618C103.392 21.5618 102.778 21.4431 102.213 21.2057C101.658 20.9683 101.172 20.6174 100.756 20.1529C100.351 19.6781 100.03 19.095 99.7957 18.4034C99.561 17.7119 99.4436 16.912 99.4436 16.0037C99.4436 15.0954 99.561 14.2955 99.7957 13.6039C100.041 12.9021 100.383 12.3138 100.82 11.839C101.258 11.3642 101.78 11.0029 102.389 10.7552C102.997 10.5075 103.674 10.3836 104.421 10.3836C105.424 10.3836 106.278 10.5952 106.982 11.0184C107.687 11.4416 108.241 12.0506 108.647 12.8453L106.934 13.8207C106.732 13.3562 106.427 12.9692 106.022 12.6595C105.627 12.3499 105.094 12.1951 104.421 12.1951C103.589 12.1951 102.922 12.4428 102.421 12.9382C101.93 13.4233 101.684 14.1458 101.684 15.1057V16.8397C101.684 17.7893 101.935 18.5118 102.437 19.0072C102.938 19.5027 103.61 19.7504 104.453 19.7504C104.784 19.7504 105.094 19.7143 105.382 19.642C105.67 19.5594 105.921 19.4407 106.134 19.2859C106.347 19.1311 106.518 18.9402 106.646 18.7131C106.774 18.486 106.838 18.2176 106.838 17.908V17.2113H104.645V15.4928H108.871V21.376H107.046V19.7039Z" fill="white"/>
<path d="M111.191 21.376V13.2943H113.239V14.9664H113.319C113.373 14.7496 113.453 14.5432 113.559 14.3471C113.677 14.1407 113.826 13.96 114.008 13.8052C114.189 13.6504 114.402 13.5265 114.648 13.4336C114.904 13.3407 115.197 13.2943 115.528 13.2943H115.976V15.1676H115.336C114.642 15.1676 114.12 15.2657 113.767 15.4618C113.415 15.6579 113.239 15.9779 113.239 16.4217V21.376H111.191Z" fill="white"/>
<path d="M123.448 21.376C123 21.376 122.643 21.2522 122.376 21.0045C122.12 20.7464 121.96 20.4058 121.896 19.9826H121.8C121.661 20.509 121.378 20.9064 120.951 21.1748C120.525 21.4328 119.996 21.5618 119.367 21.5618C118.513 21.5618 117.857 21.3451 117.398 20.9116C116.939 20.4781 116.71 19.9001 116.71 19.1775C116.71 18.3415 117.019 17.7222 117.638 17.3197C118.257 16.9068 119.137 16.7004 120.279 16.7004H121.704V16.1121C121.704 15.6579 121.581 15.307 121.336 15.0593C121.09 14.8116 120.695 14.6877 120.151 14.6877C119.671 14.6877 119.281 14.7909 118.983 14.9973C118.695 15.1935 118.449 15.4308 118.246 15.7095L117.03 14.6567C117.339 14.1923 117.75 13.8207 118.262 13.542C118.775 13.253 119.452 13.1085 120.295 13.1085C121.426 13.1085 122.285 13.3562 122.872 13.8517C123.459 14.3471 123.752 15.0593 123.752 15.9882V19.7968H124.585V21.376H123.448ZM120.055 20.122C120.514 20.122 120.903 20.0239 121.224 19.8278C121.544 19.6317 121.704 19.3427 121.704 18.9608V17.8925H120.391C119.324 17.8925 118.791 18.2228 118.791 18.8834V19.1466C118.791 19.4769 118.897 19.7246 119.111 19.8897C119.335 20.0446 119.65 20.122 120.055 20.122Z" fill="white"/>
<path d="M126.243 13.2943H128.292V14.6258H128.356C128.505 14.1613 128.788 13.7949 129.204 13.5265C129.62 13.2479 130.106 13.1085 130.66 13.1085C131.728 13.1085 132.538 13.4749 133.093 14.2078C133.659 14.9303 133.942 15.9676 133.942 17.3197C133.942 18.6821 133.659 19.7297 133.093 20.4626C132.538 21.1954 131.728 21.5618 130.66 21.5618C130.106 21.5618 129.62 21.4225 129.204 21.1438C128.798 20.8651 128.516 20.4935 128.356 20.0291H128.292V24.4725H126.243V13.2943ZM130.004 19.9207C130.538 19.9207 130.97 19.7504 131.301 19.4098C131.632 19.0692 131.797 18.6099 131.797 18.0319V16.6385C131.797 16.0605 131.632 15.6012 131.301 15.2605C130.97 14.9096 130.538 14.7341 130.004 14.7341C129.513 14.7341 129.103 14.8528 128.772 15.0902C128.452 15.3276 128.292 15.6424 128.292 16.0347V18.6047C128.292 19.0279 128.452 19.353 128.772 19.5801C129.103 19.8072 129.513 19.9207 130.004 19.9207Z" fill="white"/>
<path d="M135.84 9.91917H137.889V14.6413H137.969C138.14 14.2078 138.406 13.8465 138.769 13.5575C139.143 13.2582 139.655 13.1085 140.306 13.1085C141.17 13.1085 141.832 13.382 142.29 13.9291C142.749 14.4761 142.979 15.2554 142.979 16.2669V21.376H140.93V16.4682C140.93 15.8902 140.823 15.4566 140.61 15.1676C140.396 14.8786 140.044 14.7341 139.553 14.7341C139.34 14.7341 139.132 14.7651 138.929 14.827C138.737 14.8786 138.561 14.9612 138.401 15.0748C138.252 15.178 138.129 15.3122 138.033 15.4773C137.937 15.6321 137.889 15.8179 137.889 16.0347V21.376H135.84V9.91917Z" fill="white"/>
</g>
<defs>
<clipPath id="clip0_32214_59328">
<rect width="143" height="32" fill="white"/>
</clipPath>
</defs>
</svg>
