<svg width="163" height="32" viewBox="0 0 163 32" fill="none" xmlns="http://www.w3.org/2000/svg">
<path d="M13.1245 17.5137V22.3037L5.81494 28.002H2.63623V24.8223L8.3335 17.5137H13.1245ZM26.6362 24.8223V28.002H23.4565L16.1479 22.3037V17.5137H20.938L26.6362 24.8223ZM59.687 8.81641C63.554 8.81641 65.7651 12.1042 65.7651 15.9482C65.765 19.7922 63.5539 23.1084 59.687 23.1084C58.2644 23.1083 56.5562 22.5009 55.6353 20.9492H55.5552V28.001H52.0298V9.18262H55.5552V11H55.6353C56.5562 9.44832 58.2678 8.81746 59.687 8.81738V8.81641ZM109.724 22.792H106.199V20.9502H106.12C105.2 22.502 103.486 23.1094 102.091 23.1094V23.1045C98.1958 23.1043 95.9849 19.8167 95.9849 15.9453C95.985 12.074 98.1959 8.81363 102.091 8.81348C103.486 8.81348 105.2 9.44441 106.12 10.9961H106.199V4.00195H109.724V22.792ZM73.5679 8.8125C76.9091 8.8125 79.5179 10.3116 79.5181 13.9453L79.5171 13.9482V20.1309H80.7271V22.7881H78.0942C77.0695 22.7881 76.2251 22.0231 76.2251 20.998V20.7607H76.145C75.0159 22.2885 73.4076 23.1045 71.4858 23.1045C68.7237 23.1044 66.8277 21.5001 66.8276 18.8389C66.8276 16.4426 68.7481 15.1807 72.0132 14.9189C74.9587 14.6813 75.9878 14.3923 75.9878 13.3389C75.9878 12.1527 75.0144 11.5215 73.5679 11.5215C71.9348 11.5215 70.8828 12.1003 70.8306 13.6807H67.437C67.437 11.0765 69.8336 8.81253 73.5679 8.8125ZM118.096 8.8125C122.357 8.81252 124.753 11.6272 124.753 15.9443C124.753 16.1011 124.754 16.655 124.725 16.8926H114.908C115.168 19.0751 116.33 20.285 118.276 20.2852C119.699 20.2852 120.724 19.5502 121.146 18.3115H124.596C123.936 21.4951 121.435 23.0996 118.28 23.0996V23.1045C113.857 23.1045 111.385 20.0775 111.385 15.9443C111.385 11.8112 113.834 8.8125 118.095 8.8125H118.096ZM147.927 8.8125C151.267 8.81264 153.876 10.3118 153.876 13.9453L153.875 13.9482V20.1309H155.085V22.7881H152.453C151.426 22.7879 150.583 22.0229 150.583 20.998V20.7607H150.503C149.37 22.2874 147.766 23.1045 145.845 23.1045C143.086 23.1033 141.189 21.4989 141.189 18.8389C141.189 16.4426 143.111 15.1807 146.375 14.9189C149.322 14.6813 150.35 14.3924 150.35 13.3389C150.35 12.1528 149.378 11.5216 147.93 11.5215C146.299 11.5215 145.245 12.1003 145.192 13.6807H141.796C141.796 11.0764 144.192 8.8125 147.927 8.8125ZM138.842 22.791H135.316V19.2656H138.842V22.791ZM89.7778 8.81641C93.2229 8.81641 94.4614 10.8186 94.4614 13.6846V22.7891H90.9351V14.1826C90.9351 12.736 90.1712 11.7344 88.7007 11.7344C86.5408 11.7344 85.4361 13.5002 85.436 15.6826V22.79H81.9106V9.18262H85.3032V11.5264H85.3833C86.3319 9.63315 87.8553 8.8174 89.7769 8.81738L89.7778 8.81641ZM129.964 12.0254H130.069C130.965 10.2085 132.332 9.18359 133.989 9.18359H135.359V12.4482H133.489C131.411 12.4483 130.068 13.7387 130.068 16.3154V22.7871H126.514V9.18359H129.964V12.0254ZM159.899 22.7871H156.373V9.18359H159.899V22.7871ZM43.9731 13.4209L46.6304 9.18359H50.7876L46.1284 15.7363L51.1528 22.7861H47.021L43.9692 17.8389L40.8901 22.7861H36.7397L41.7905 15.7119L37.1304 9.18359H41.2876L43.9731 13.4209ZM76.0132 16.1855C75.2488 16.7647 74.0109 16.9499 72.7241 17.1064C71.1967 17.2904 70.437 17.8415 70.437 18.8711H70.4321C70.4324 19.8718 71.2756 20.4228 72.4058 20.4229C74.1151 20.4229 76.0122 19.2375 76.0122 16.7646H76.0132V16.1855ZM150.375 16.1855C149.612 16.7648 148.375 16.9499 147.088 17.1064C145.56 17.2904 144.795 17.87 144.795 18.8711C144.796 19.8719 145.64 20.4229 146.77 20.4229C148.482 20.4228 150.375 19.2375 150.375 16.7646V16.1855ZM102.958 11.6602C100.615 11.6602 99.6421 13.715 99.6421 15.9502C99.6421 18.1853 100.615 20.2675 102.958 20.2676C105.303 20.2676 106.276 18.1899 106.276 15.9502C106.276 13.7105 105.302 11.6602 102.958 11.6602ZM58.7944 11.6592C56.451 11.6594 55.479 13.7382 55.479 15.9492C55.479 18.1602 56.4796 20.2664 58.7944 20.2666C61.1095 20.2666 62.1108 18.1603 62.1108 15.9492C62.1108 13.738 61.1381 11.6592 58.7944 11.6592ZM118.122 11.5264C116.546 11.5265 115.36 12.6035 114.99 14.5254H121.173C120.936 12.4994 119.698 11.5264 118.122 11.5264ZM13.1245 9.69922V14.4902H8.3335L2.63623 7.18066V4.00195H5.81494L13.1245 9.69922ZM26.6362 7.18066L20.938 14.4902H16.1479V9.69922L23.4565 4.00195H26.6362V7.18066ZM160.035 7.31836H156.245V4.00195H160.035V7.31836Z" fill="white"/>
</svg>
