<svg width="123" height="32" viewBox="0 0 123 32" fill="none" xmlns="http://www.w3.org/2000/svg">
<g clip-path="url(#clip0_6301_802)">
<path d="M51.8733 17.86L58.1671 9.7H54.3034L48.4713 17.116V9.7H45.1178V26.5H48.4713V18.628L54.5464 26.5H58.4101L51.8733 17.86ZM71.6128 25.012C72.8521 23.788 73.4839 22.276 73.4839 20.5C73.4839 18.724 72.8521 17.236 71.6128 16.012C70.3735 14.788 68.8426 14.164 67.0443 14.164C65.2461 14.164 63.7152 14.788 62.4759 16.012C61.2366 17.236 60.6291 18.724 60.6291 20.5C60.6291 22.276 61.2366 23.788 62.4759 25.012C63.7152 26.236 65.2461 26.836 67.0443 26.836C68.8426 26.836 70.3735 26.236 71.6128 25.012ZM64.6872 22.876C64.0797 22.252 63.7638 21.46 63.7638 20.5C63.7638 19.54 64.0797 18.748 64.6872 18.124C65.319 17.5 66.0966 17.188 67.0443 17.188C67.9921 17.188 68.7697 17.5 69.4015 18.124C70.0333 18.748 70.3492 19.54 70.3492 20.5C70.3492 21.46 70.0333 22.252 69.4015 22.876C68.7697 23.5 67.9921 23.812 67.0443 23.812C66.0966 23.812 65.319 23.5 64.6872 22.876ZM82.8691 22.564L79.7101 14.5H76.2837L81.2653 26.116C80.6821 27.748 79.7587 28.444 78.082 28.42V31.3C81.1924 31.468 83.2336 29.956 84.4973 26.5L88.9199 14.5H85.5665L82.8691 22.564ZM104.177 21.772C104.25 21.316 104.298 20.908 104.298 20.5C104.298 18.7 103.715 17.212 102.549 15.988C101.407 14.764 99.9247 14.164 98.1507 14.164C96.2796 14.164 94.7244 14.764 93.5337 15.988C92.3429 17.188 91.7354 18.7 91.7354 20.5C91.7354 22.324 92.3429 23.836 93.558 25.036C94.773 26.236 96.3768 26.836 98.3937 26.836C100.727 26.836 102.5 25.972 103.691 24.268L101.164 22.828C100.556 23.62 99.633 24.028 98.4423 24.028C96.5712 24.028 95.4291 23.284 95.016 21.772H104.177ZM94.9674 19.372C95.3319 17.836 96.474 16.948 98.1507 16.948C99.5844 16.948 100.799 17.74 101.164 19.372H94.9674ZM115.989 14.164C114.288 14.164 112.976 14.74 112.052 15.916V9.7H108.917V26.5H112.052V25.084C112.976 26.26 114.288 26.836 115.989 26.836C117.617 26.836 119.026 26.236 120.168 25.012C121.335 23.788 121.918 22.276 121.918 20.5C121.918 18.724 121.335 17.236 120.168 16.012C119.026 14.788 117.617 14.164 115.989 14.164ZM113 22.948C112.368 22.3 112.052 21.484 112.052 20.5C112.052 19.516 112.368 18.7 113 18.076C113.632 17.428 114.434 17.116 115.406 17.116C116.378 17.116 117.18 17.428 117.811 18.076C118.467 18.7 118.783 19.516 118.783 20.5C118.783 21.484 118.467 22.3 117.811 22.948C117.18 23.572 116.378 23.884 115.406 23.884C114.434 23.884 113.632 23.572 113 22.948ZM17.3594 7.77773L33.7272 17.0856V9.31827L17.349 0L1.0127 9.3286V17.1063L17.3594 7.77773Z" fill="white"/>
<path d="M31.1092 26.446L33.7272 24.9253V20.1572L17.349 10.8286L1.0127 20.1572V24.946L3.63072 26.446L17.349 18.6063L31.1092 26.446Z" fill="white"/>
<path d="M17.3597 29.6315L21.5166 32L28.3448 28.1211L17.3492 21.8538L6.39551 28.1211L13.2228 32L17.3597 29.6315Z" fill="white"/>
</g>
<defs>
<clipPath id="clip0_6301_802">
<rect width="123" height="32" fill="white"/>
</clipPath>
</defs>
</svg>
