<svg viewBox="0 0 140 28" fill="none" xmlns="http://www.w3.org/2000/svg">
<mask id="mask0_1591_969" style="mask-type:luminance" maskUnits="userSpaceOnUse" x="0" y="0" width="140" height="28">
<path d="M140 0H0V28H140V0Z" fill="white"/>
</mask>
<g mask="url(#mask0_1591_969)">
<path d="M59.6195 27.4128H54.5161L43.3646 15.6644H41.2855V27.4128H37.5052V0H50.169C55.499 0 58.6746 2.93708 58.6746 7.83224C58.6746 12.7274 55.499 15.6644 50.169 15.6644H48.2789L59.6195 27.4128ZM54.8943 7.83224C54.8943 5.05178 53.3821 3.32869 50.169 3.32869H41.2855V12.3357H50.169C53.3821 12.3357 54.8943 10.6126 54.8943 7.83224Z" fill="white"/>
<path d="M69.2973 28.0028C63.249 28.0028 59.4688 23.3426 59.4688 17.2335C59.4688 11.1243 63.249 6.46419 69.1087 6.46419C73.8339 6.46419 76.6693 9.20546 77.9165 13.2782C78.37 14.8055 78.5591 16.4894 78.5591 18.2125V18.6041H63.0978C63.2116 21.8936 65.555 25.0657 69.2973 25.0657C72.5108 25.0657 73.9851 23.1468 74.2874 21.737H78.181C77.2739 25.0657 74.2495 28.0028 69.2973 28.0028ZM63.0978 15.667H74.93C74.741 12.1426 72.9264 9.4013 69.1087 9.4013C65.2906 9.4013 63.2116 12.3384 63.0978 15.667Z" fill="white"/>
<path d="M78.401 10.6321V7.49927H83.1262V2.79991H86.7553V7.49927H91.8587V10.6321H86.7553V22.9678C86.7553 24.3385 87.133 24.8084 88.4561 24.8084H91.8587V27.863H87.7003C84.2603 27.863 83.1262 26.1007 83.1262 22.9678V10.6321H78.401Z" fill="white"/>
<path d="M102.636 6.46419C108.685 6.46419 112.653 11.1243 112.653 17.2335C112.653 23.3426 108.685 28.0028 102.636 28.0028C96.5874 28.0028 92.618 23.3426 92.618 17.2335C92.618 11.1243 96.5874 6.46419 102.636 6.46419ZM102.636 9.59709C98.5157 9.59709 96.2471 13.1216 96.2471 17.2335C96.2471 21.3454 98.5157 24.8699 102.636 24.8699C106.756 24.8699 109.024 21.3454 109.024 17.2335C109.024 13.1216 106.756 9.59709 102.636 9.59709Z" fill="white"/>
<path d="M124.283 6.46419C130.332 6.46419 134.3 11.1243 134.3 17.2335C134.3 23.3426 130.332 28.0028 124.283 28.0028C118.234 28.0028 114.266 23.3426 114.266 17.2335C114.266 11.1243 118.234 6.46419 124.283 6.46419ZM124.283 9.59709C120.163 9.59709 117.894 13.1216 117.894 17.2335C117.894 21.3454 120.163 24.8699 124.283 24.8699C128.403 24.8699 130.672 21.3454 130.672 17.2335C130.672 13.1216 128.403 9.59709 124.283 9.59709Z" fill="white"/>
<path d="M140.03 0V27.4128H136.401V0H140.03Z" fill="white"/>
<path d="M16.6234 1.28489C16.6234 0.575269 16.0652 0 15.3766 0H1.24675C0.558192 0 0 0.575269 0 1.28489V7.28107C0 7.99071 0.558192 8.56597 1.24675 8.56597H15.3766C16.0652 8.56597 16.6234 9.14122 16.6234 9.85086V11.5641C16.6234 12.2737 16.0652 12.8489 15.3766 12.8489H6.23377C5.54519 12.8489 4.98701 13.4242 4.98701 14.1338V20.13C4.98701 20.8397 5.54519 21.4149 6.23377 21.4149H15.3766C16.0652 21.4149 16.6234 21.9902 16.6234 22.6998V26.1262C16.6234 26.8358 17.1816 27.4111 17.8701 27.4111H23.6883C24.3769 27.4111 24.9351 26.8358 24.9351 26.1262V20.13C24.9351 19.4204 24.3769 18.8451 23.6883 18.8451H17.8701C17.1816 18.8451 16.6234 18.2699 16.6234 17.5602V15.847C16.6234 15.1374 17.1816 14.5621 17.8701 14.5621H23.6883C24.3769 14.5621 24.9351 13.9869 24.9351 13.2772V7.28107C24.9351 6.57143 24.3769 5.99618 23.6883 5.99618H17.8701C17.1816 5.99618 16.6234 5.42092 16.6234 4.71128V1.28489Z" fill="white"/>
</g>
</svg>
