<svg width="112" height="32" viewBox="0 0 112 32" fill="none" xmlns="http://www.w3.org/2000/svg">
<g clip-path="url(#clip0_6301_845)">
<path d="M0 6C0 4.89543 0.895431 4 2 4H10C11.1046 4 12 4.89543 12 6V8C12 8.55228 11.5523 9 11 9H1C0.447715 9 0 8.55228 0 8V6Z" fill="white"/>
<path d="M12 24C12 23.4477 12.4477 23 13 23H23C23.5523 23 24 23.4477 24 24V26C24 27.1046 23.1046 28 22 28H14C12.8954 28 12 27.1046 12 26V24Z" fill="white"/>
<path d="M0 12.5C0 11.9477 0.447715 11.5 1 11.5H22C23.1046 11.5 24 12.3954 24 13.5V19.5C24 20.0523 23.5523 20.5 23 20.5H2C0.89543 20.5 0 19.6046 0 18.5V12.5Z" fill="white"/>
<path d="M37.326 18.741H39.6376L43.9745 26H49.2305L44.4257 18.2456C47.0675 17.3375 48.6085 15.3012 48.6085 12.3567C48.6085 8.22898 45.7191 6 41.0685 6H32.7305V26H37.326V18.741ZM37.326 14.9985V9.88008H40.8208C42.9948 9.88008 44.0955 10.8157 44.0955 12.4393C44.0955 14.0353 42.9948 14.9985 40.8208 14.9985H37.326Z" fill="white"/>
<path d="M57.0935 26.0608C59.9829 26.0608 62.6247 24.6024 63.6979 21.823L60.0104 20.6397C59.5976 21.9056 58.5244 22.566 57.1485 22.566C55.4699 22.566 54.2866 21.4378 53.9839 19.4564H63.8079V18.3007C63.8079 14.2004 61.4138 10.9532 57.0109 10.9532C52.8281 10.9532 49.7461 14.2004 49.7461 18.4933C49.7461 23.0063 52.7181 26.0608 57.0935 26.0608ZM56.9559 14.3656C58.5795 14.3656 59.4325 15.4663 59.4601 16.7596H54.1215C54.5618 15.1636 55.6075 14.3656 56.9559 14.3656Z" fill="white"/>
<path d="M66.3037 22C66.3037 24.972 67.8722 26.0177 71.0093 26.0177C72.055 26.0177 72.8806 25.9351 73.6511 25.825V22.2201C73.1557 22.2752 72.9081 22.3027 72.3852 22.3027C71.2845 22.3027 70.6516 22.0826 70.6516 20.7498V14.8884H73.486V11.256H70.6516V7.23828H66.3037V11.256H64.46V14.8884H66.3037V22Z" fill="white"/>
<path d="M89.3754 18.46C89.3754 13.947 86.3759 10.8925 82.1106 10.8925C77.8177 10.8925 74.8457 13.947 74.8457 18.46C74.8457 22.973 77.8177 26 82.1106 26C86.3759 26 89.3754 22.973 89.3754 18.46ZM79.2211 18.46C79.2211 15.9283 80.3494 14.4974 82.1106 14.4974C83.8717 14.4974 85 15.9283 85 18.46C85 20.9917 83.8717 22.4226 82.1106 22.4226C80.3494 22.4226 79.2211 20.9917 79.2211 18.46Z" fill="white"/>
<path d="M105.23 18.46C105.23 13.947 102.231 10.8925 97.966 10.8925C93.6731 10.8925 90.7012 13.947 90.7012 18.46C90.7012 22.973 93.6731 26 97.966 26C102.231 26 105.23 22.973 105.23 18.46ZM95.0766 18.46C95.0766 15.9283 96.2048 14.4974 97.966 14.4974C99.7272 14.4974 100.855 15.9283 100.855 18.46C100.855 20.9917 99.7272 22.4226 97.966 22.4226C96.2048 22.4226 95.0766 20.9917 95.0766 18.46Z" fill="white"/>
<path d="M111.73 6H107.328V26H111.73V6Z" fill="white"/>
</g>
<defs>
<clipPath id="clip0_6301_845">
<rect width="112" height="24" fill="white" transform="translate(0 4)"/>
</clipPath>
</defs>
</svg>
