<svg width="124" height="32" viewBox="0 0 124 32" fill="none" xmlns="http://www.w3.org/2000/svg">
<g clip-path="url(#clip0_6301_797)">
<g clip-path="url(#clip1_6301_797)">
<path d="M-51.0585 -53.5969H947.573V-54.9226H-51.0585V-53.5969ZM948.237 -52.9341V364.648H949.563V-52.9341H948.237ZM947.573 365.311H-51.0585V366.637H947.573V365.311ZM-51.7216 364.648V-52.9341H-53.0479V364.648H-51.7216ZM-51.0585 365.311C-51.4246 365.311 -51.7216 365.014 -51.7216 364.648H-53.0479C-53.0479 365.747 -52.1573 366.637 -51.0585 366.637V365.311ZM948.237 364.648C948.237 365.014 947.938 365.311 947.573 365.311V366.637C948.674 366.637 949.563 365.747 949.563 364.648H948.237ZM947.573 -53.5969C947.938 -53.5969 948.237 -53.3002 948.237 -52.9341H949.563C949.563 -54.0323 948.674 -54.9226 947.573 -54.9226V-53.5969ZM-51.0585 -54.9226C-52.1573 -54.9226 -53.0479 -54.0324 -53.0479 -52.9341H-51.7216C-51.7216 -53.3002 -51.4246 -53.5969 -51.0585 -53.5969V-54.9226Z" fill="black" fill-opacity="0.1"/>
<path d="M43.5656 13.4031C42.959 12.8316 42.266 12.6407 41.4513 12.6407C40.4461 12.6407 39.8915 12.9528 39.8915 13.4894C39.8915 14.0438 40.3941 14.3553 41.4856 14.425C43.0974 14.529 45.142 14.8925 45.142 17.162C45.142 18.6692 43.9116 19.9683 41.4684 19.9683C40.1168 19.9683 38.7652 19.743 37.5176 18.4439L38.557 16.9369C39.1637 17.6124 40.5496 18.1148 41.5028 18.132C42.2998 18.1491 43.0448 17.7336 43.0448 17.1101C43.0448 16.5213 42.5594 16.2785 41.3467 16.2093C39.7349 16.0881 37.8115 15.4989 37.8115 13.5592C37.8115 11.5845 39.8561 10.8918 41.4159 10.8918C42.7503 10.8918 43.7555 11.1519 44.7429 12.0177L43.5656 13.4031Z" fill="white"/>
<path d="M48.6597 11.1326V15.6013C48.6597 16.9004 49.3704 17.888 50.722 17.888C52.0216 17.888 52.9056 16.7969 52.9056 15.4979V11.1326H55.0022V19.6894H53.1131L52.9747 18.5287C52.0908 19.3945 51.2766 19.8106 50.081 19.8106C48.0364 19.8106 46.5459 18.2692 46.5459 15.619V11.1326H48.6597Z" fill="white"/>
<path d="M56.8721 23.2417V11.1339H58.8475L58.9859 12.3118C59.6446 11.3591 60.7881 10.9436 61.7583 10.9436C64.3924 10.9436 66.1426 12.9011 66.1426 15.4123C66.1426 17.9065 64.5657 19.8811 61.8276 19.8811C60.9265 19.8811 59.592 19.6039 58.9859 18.6684V23.2412L56.8721 23.2417ZM64.0288 15.4123C64.0288 14.0785 63.1277 12.9874 61.6028 12.9874C60.078 12.9874 59.1769 14.0785 59.1769 15.4123C59.1769 16.7463 60.1648 17.8374 61.6028 17.8374C63.0408 17.8374 64.0288 16.7463 64.0288 15.4123Z" fill="white"/>
<path d="M69.5043 16.1564C69.6427 17.2131 70.5615 17.975 72.0515 17.975C72.8314 17.975 73.8537 17.6806 74.3391 17.1783L75.6908 18.5122C74.7897 19.4478 73.3168 19.8982 72.0172 19.8982C69.0715 19.8982 67.3213 18.0796 67.3213 15.3426C67.3213 12.7444 69.0887 10.8738 71.8616 10.8738C74.721 10.8738 76.5055 12.6404 76.1767 16.157L69.5043 16.1564ZM74.1481 14.407C74.0097 13.2982 73.143 12.7438 71.9302 12.7438C70.7867 12.7438 69.8508 13.2982 69.5392 14.407H74.1481Z" fill="white"/>
<path d="M79.761 11.1324L79.9171 12.12C80.5758 11.0632 81.4591 10.9072 82.3259 10.9072C83.2098 10.9072 84.0589 11.2536 84.5266 11.7211L83.5734 13.5574C83.1401 13.1939 82.7416 13.003 82.0486 13.003C80.9394 13.003 79.9171 13.5917 79.9171 15.168V19.6715H77.8027V11.1324H79.761Z" fill="white"/>
<path d="M103.38 15.4106C103.38 17.8704 101.699 19.8622 98.9265 19.8622C96.154 19.8622 94.4902 17.8704 94.4902 15.4106C94.4902 12.9685 96.1884 10.959 98.9088 10.959C101.63 10.959 103.38 12.9685 103.38 15.4106ZM96.604 15.4106C96.604 16.7097 97.3839 17.9225 98.9259 17.9225C100.468 17.9225 101.248 16.7097 101.248 15.4106C101.248 14.1287 100.347 12.8816 98.9259 12.8816C97.4017 12.8816 96.604 14.1287 96.604 15.4106Z" fill="white"/>
<path d="M113.325 15.4106C113.325 17.8704 111.644 19.8622 108.872 19.8622C106.099 19.8622 104.436 17.8704 104.436 15.4106C104.436 12.9685 106.134 10.959 108.854 10.959C111.575 10.959 113.325 12.9685 113.325 15.4106ZM106.55 15.4106C106.55 16.7097 107.329 17.9225 108.871 17.9225C110.413 17.9225 111.193 16.7097 111.193 15.4106C111.193 14.1287 110.292 12.8816 108.871 12.8816C107.347 12.8816 106.55 14.1287 106.55 15.4106Z" fill="white"/>
<path d="M123.651 7.5647V19.6724H121.675L121.537 18.4945C120.878 19.5164 119.821 19.8627 118.782 19.8627C116.268 19.8627 114.38 18.1996 114.38 15.394C114.38 12.4495 116.234 10.9253 118.729 10.9253C119.63 10.9253 121.034 11.4105 121.537 12.2935V7.5647H123.651ZM116.494 15.394C116.494 16.8834 117.568 17.9059 118.919 17.9059C120.254 17.9059 121.397 16.936 121.397 15.394C121.397 13.9046 120.254 12.8999 118.919 12.8999C117.568 12.8999 116.494 13.8526 116.494 15.394Z" fill="white"/>
<path d="M93.5164 15.1884C93.4749 14.0608 93.01 12.9089 92.255 12.1471C90.439 10.3146 87.1817 10.4485 85.664 12.5963C85.131 13.351 84.8896 14.2705 84.8896 15.1878C84.8896 17.8551 86.5534 19.4834 89.2218 19.4834C90.279 19.4834 91.3877 20.0206 91.3877 21.198C91.3877 22.3759 90.4346 23.0343 89.2218 23.0343C88.0091 23.0343 86.9863 22.3067 86.9863 21.198H84.8896C84.8896 23.5018 86.7439 25.0089 89.2218 25.0089C91.6998 25.0089 93.502 23.5538 93.502 21.198C93.502 20.1069 93.1555 19.0845 91.7347 18.3746C93.041 17.7782 93.5646 16.4996 93.5164 15.1884ZM89.2224 17.5602C87.992 17.5602 86.9868 16.6767 86.9868 15.1873C86.9868 13.6979 87.992 12.7794 89.2224 12.7794C90.4357 12.7794 91.4403 13.715 91.4403 15.1873C91.4403 16.6595 90.4357 17.5602 89.2224 17.5602Z" fill="white"/>
<path d="M90.3262 10.9722C90.4352 11.0043 90.7435 11.1045 91.1226 11.3059C90.8719 11.146 90.6035 11.0402 90.3262 10.9722Z" fill="white"/>
</g>
<path fill-rule="evenodd" clip-rule="evenodd" d="M29.4462 23.3954L30.1149 25.9083C30.3743 26.8835 29.3762 27.7685 28.266 27.5334C26.6128 27.1835 24.196 27.2426 21.1019 28.8436C18.0021 30.4474 13.829 30.4487 10.7267 28.8436C7.63225 27.2426 5.21581 27.1835 3.5623 27.5334C2.45211 27.7683 1.45396 26.8831 1.71336 25.908L2.29137 23.7372L7.61985 3.7177C7.99132 2.32289 9.51015 1.5784 10.8406 2.13868L12.6507 2.90098C14.9516 3.87009 17.546 3.87359 19.8494 2.91021L21.6386 2.16222C22.9951 1.59494 24.5366 2.3827 24.8711 3.8141L29.4462 23.3954ZM15.7959 10.4715C17.2918 10.4715 18.5647 10.8214 19.6784 11.871L21.8424 9.32668C20.0285 7.73622 18.1828 7.25899 15.7325 7.25899C12.8686 7.25899 9.11337 8.53129 9.11337 12.1577C9.11337 15.7204 12.6458 16.8018 15.6052 17.0245C17.8329 17.1518 18.7238 17.5972 18.7238 18.6786C18.7238 19.8237 17.3555 20.5873 15.8917 20.5555C14.1414 20.5237 11.5954 19.601 10.4818 18.3605L8.57228 21.1278C10.8634 23.5134 13.3457 23.927 15.8277 23.927C20.3146 23.927 22.5742 21.5411 22.5742 18.7738C22.5742 14.6065 18.819 13.9387 15.8595 13.7478C13.8546 13.6206 12.9319 13.0479 12.9319 12.0301C12.9319 11.0441 13.9501 10.4715 15.7959 10.4715Z" fill="white"/>
</g>
<defs>
<clipPath id="clip0_6301_797">
<rect width="124" height="32" fill="white"/>
</clipPath>
<clipPath id="clip1_6301_797">
<rect width="86.8664" height="18.5592" fill="white" transform="translate(37.1338 6.72046)"/>
</clipPath>
</defs>
</svg>
