<svg width="109" height="32" viewBox="0 0 109 32" fill="none" xmlns="http://www.w3.org/2000/svg">
<g clip-path="url(#clip0_6301_824)">
<mask id="mask0_6301_824" style="mask-type:luminance" maskUnits="userSpaceOnUse" x="0" y="0" width="109" height="32">
<path d="M109 0H0V31.9483H109V0Z" fill="white"/>
</mask>
<g mask="url(#mask0_6301_824)">
<path d="M39.8749 9.46691V18.379C39.8749 20.5245 39.9123 20.7084 41.8888 20.7084H45.1477V24.8501H40.9005C37.0191 24.8501 35.1889 23.5565 35.1889 18.8599V9.46691H31.6748V5.32524H35.1889V0H39.8749V5.32524H45.1477V9.46691H39.8749Z" fill="white"/>
<path d="M65.9456 15.0874C65.9456 20.6343 62.321 25.1454 56.2794 25.1454C50.2379 25.1454 46.6133 20.6343 46.6133 15.0874C46.6133 9.54059 50.2379 5.02954 56.2794 5.02954C62.321 5.02954 65.9456 9.54059 65.9456 15.0874ZM61.2596 15.0874C61.2596 11.9077 59.4652 9.31897 56.281 9.31897C53.0968 9.31897 51.3009 11.9077 51.3009 15.0874C51.3009 18.2672 53.0953 20.8559 56.281 20.8559C59.4667 20.8559 61.2596 18.2672 61.2596 15.0874Z" fill="white"/>
<path d="M72.9727 6.06413C72.9727 6.8406 72.7891 7.43159 72.4607 8.09803C72.3144 8.4674 72.0576 8.91222 72.4234 9.09612C72.7891 9.28159 73.0101 8.80063 73.0817 8.65288C74.2536 6.58282 76.1943 5.02832 79.1964 5.02832C84.2123 5.02832 87.6175 9.46549 87.6175 15.0862C87.6175 20.7069 84.2123 25.1441 79.1964 25.1441C76.2674 25.1441 74.2536 23.6273 73.0817 21.4834C73.0085 21.3718 72.8622 21.0024 72.5323 21.114C72.1292 21.2618 72.2755 21.6311 72.4591 22.0021C72.7891 22.6685 72.9712 23.2595 72.9712 23.9983V31.9484H68.2852V5.32539H72.9712V6.0657L72.9727 6.06413ZM82.9315 15.0862C82.9315 11.9804 81.3939 9.31775 78.0992 9.31775C75.0239 9.31775 72.9727 11.9804 72.9727 15.0862C72.9727 18.1921 75.0224 20.8547 78.0992 20.8547C81.3939 20.8547 82.9315 18.1921 82.9315 15.0862Z" fill="white"/>
<path d="M108.999 15.0874C108.999 20.6343 105.375 25.1454 99.3332 25.1454C93.2916 25.1454 89.667 20.6343 89.667 15.0874C89.667 9.54059 93.2916 5.02954 99.3332 5.02954C105.375 5.02954 108.999 9.54059 108.999 15.0874ZM104.313 15.0874C104.313 11.9077 102.519 9.31897 99.3332 9.31897C96.1474 9.31897 94.3546 11.9077 94.3546 15.0874C94.3546 18.2672 96.149 20.8559 99.3332 20.8559C102.517 20.8559 104.313 18.2672 104.313 15.0874Z" fill="white"/>
<path d="M9.4138 5.5907C9.4138 5.5907 9.4138 5.59408 9.4138 5.59576C9.4138 5.60083 9.4138 5.60421 9.4138 5.60759C9.4138 5.60421 9.4138 5.59914 9.41211 5.5907H9.4138Z" fill="white"/>
<path d="M23.9099 7.29158C23.6983 4.94489 22.3521 3.19234 20.2542 2.37972L18.1376 1.46337C17.3797 1.13487 16.5393 0.938395 15.6382 0.880238C14.0679 0.778072 12.4945 0.768641 10.9631 0.848802C9.26052 0.939966 7.57039 1.1443 5.93627 1.45866C2.82056 2.05908 0.68532 4.23444 0.364722 7.13283C-0.0741531 11.1236 -0.116173 14.9824 0.240219 18.9291C0.430087 21.0385 1.69225 22.8445 3.53179 23.6398L5.87558 24.6552C6.40783 24.8831 6.9821 25.0277 7.58595 25.0686C8.62089 25.1362 9.66205 25.1707 10.6985 25.1707C11.5218 25.1707 12.342 25.1487 13.1544 25.1063C14.9924 25.0088 16.8677 24.7982 18.729 24.4776C21.3514 24.0265 23.4788 21.6735 23.787 18.8804C24.2243 14.9069 24.2648 11.2242 23.9099 7.29158ZM3.63606 8.25194C3.96289 5.2954 6.33935 3.80691 8.45436 3.39982C8.69248 3.35423 8.93215 3.31022 9.17182 3.27093C9.17182 3.77076 9.21384 4.26745 9.28543 4.75627C9.31811 4.9889 9.36324 5.21681 9.39592 5.44786C9.40215 5.48873 9.40682 5.5296 9.41304 5.57046C9.41304 5.57361 9.41304 5.58618 9.41771 5.61133C9.41771 5.6239 9.42082 5.63805 9.42082 5.65063C9.43016 5.74336 9.43794 5.83453 9.44572 5.92726C9.46751 6.27148 9.46596 6.61885 9.43016 6.96464C9.42705 6.99608 9.42394 7.02909 9.41927 7.06052C9.41927 7.06052 9.41927 7.06838 9.41615 7.07939V7.08724C9.41304 7.09982 9.41149 7.11397 9.40993 7.12182C9.39748 7.20513 9.38192 7.28686 9.36324 7.37017C9.33056 7.51163 9.29165 7.65309 9.24496 7.79141C9.23407 7.82127 9.22317 7.85114 9.21228 7.87943C9.20605 7.89829 9.19827 7.91558 9.19049 7.93287C9.16092 7.99731 9.13135 8.06333 9.09867 8.1262C9.06599 8.18907 9.03019 8.25037 8.9944 8.3101C8.97728 8.33525 8.96016 8.3604 8.94304 8.39026C8.93681 8.39969 8.92592 8.41384 8.91658 8.42641C8.83099 8.53644 8.74072 8.64018 8.64112 8.73448C8.624 8.75177 8.60532 8.76906 8.60065 8.77221C8.60065 8.77221 8.55708 8.80836 8.54618 8.81779C8.48704 8.86337 8.42635 8.90738 8.36254 8.94982C8.30807 8.98597 8.25204 9.02055 8.1929 9.05199C8.18045 9.05827 8.1291 9.08342 8.1291 9.08499C8.1042 9.096 8.07929 9.107 8.05284 9.118C7.91121 9.18087 7.76492 9.2296 7.61707 9.26732C7.57817 9.27832 7.53926 9.28776 7.50035 9.29719C7.48946 9.29876 7.44899 9.30662 7.43966 9.30976C7.35406 9.32391 7.27002 9.33648 7.18598 9.34591C7.10038 9.35534 7.01634 9.36163 6.9323 9.36635C6.8327 9.37106 6.73465 9.37263 6.63505 9.37263C6.09968 9.36792 5.57054 9.28776 5.03984 9.23746C4.54494 9.18873 4.04848 9.14629 3.54424 9.14472C3.57226 8.84765 3.60338 8.55058 3.63606 8.25194ZM3.47577 9.90547C4.4718 9.90547 5.44604 10.0862 6.43896 10.1287C6.60081 10.135 6.76267 10.135 6.92608 10.1287C7.48634 10.0988 8.04661 9.96834 8.55863 9.68385C9.75076 9.01898 10.185 7.58707 10.171 6.27463C10.1663 5.82038 10.1149 5.36613 10.0387 4.92288C9.93907 4.34132 9.88304 3.75504 9.8846 3.15776C10.5756 3.05402 11.2744 2.97072 11.9763 2.90627C11.9405 4.51422 12.2455 6.09859 12.6081 7.6248C12.6906 7.96902 12.7762 8.31167 12.8634 8.65275C12.8991 8.79578 12.9334 8.94039 12.9614 9.08657C12.9739 9.15101 12.9847 9.21545 12.9956 9.28147C13.0003 9.31919 13.0065 9.36006 13.0112 9.39778C13.0143 9.41664 13.0159 9.4355 13.019 9.45279C13.019 9.45279 13.0205 9.46694 13.0221 9.49366C13.0501 9.77501 13.0579 10.0611 13.0439 10.3487C13.0361 10.4839 13.0252 10.6222 13.0081 10.7542C13.0065 10.7542 12.9879 10.869 12.9847 10.8926C12.9723 10.9664 12.9567 11.0387 12.9396 11.1126C12.9116 11.2462 12.8758 11.3782 12.8353 11.5087C12.8136 11.5731 12.7918 11.636 12.7684 11.7005C12.7606 11.7225 12.7529 11.7445 12.7451 11.7665C12.7435 11.7665 12.7077 11.8514 12.7046 11.8608C12.6533 11.9771 12.5957 12.0903 12.535 12.2003C12.5023 12.2569 12.4696 12.3135 12.4354 12.37C12.4183 12.3936 12.4027 12.4188 12.3856 12.4439C12.3778 12.4565 12.3685 12.4706 12.3513 12.4942C12.2766 12.5995 12.1941 12.6985 12.107 12.7944C12.0665 12.8369 12.0261 12.8793 11.984 12.9202C11.9591 12.9453 11.9327 12.9689 11.8595 13.0333C11.7631 13.1119 11.6619 13.1858 11.5576 13.2534C11.4985 13.2911 11.4362 13.3273 11.374 13.3618C11.3569 13.3713 11.3397 13.3807 11.3242 13.3886C11.3226 13.3886 11.2401 13.4279 11.2308 13.4326C10.8557 13.5976 10.4776 13.6809 10.0916 13.7014C9.90639 13.7108 9.71808 13.7061 9.52665 13.6903C8.859 13.6306 8.21469 13.4216 7.5875 13.2047C6.86849 12.9563 6.15727 12.6781 5.40557 12.5319C4.99471 12.4518 4.58696 12.4219 4.17766 12.4439C3.8913 12.4581 3.60649 12.4989 3.31858 12.5649C3.34971 11.6816 3.40262 10.7967 3.47577 9.90704V9.90547ZM3.29523 13.3367C3.58937 13.2597 3.88196 13.2141 4.17299 13.1984C4.50448 13.1811 4.83441 13.2031 5.16435 13.2644C5.85534 13.3949 6.51521 13.6385 7.17353 13.8711C8.10575 14.1996 9.10023 14.5077 10.1056 14.4558C10.4589 14.437 10.8153 14.3725 11.1685 14.2483C12.2829 13.8617 13.1061 12.9092 13.4952 11.7445C13.6835 11.1833 13.766 10.5813 13.7629 9.99978C13.7598 9.3412 13.6275 8.72348 13.4719 8.09948C13.0454 6.40037 12.647 4.64625 12.6875 2.84655C12.91 2.83083 13.1326 2.81825 13.3551 2.80568C13.7971 2.7821 14.2438 2.76638 14.692 2.75853C14.5286 3.71889 14.5488 4.67769 14.72 5.61762C14.8834 6.51983 15.1713 7.3796 15.4748 8.22837C16.0662 9.88661 16.7961 11.6219 16.6825 13.4797C16.5829 15.1223 15.6491 16.7616 14.1162 17.3762C13.668 17.5554 13.2166 17.6434 12.7653 17.667C11.4642 17.7361 10.1647 17.2772 8.93526 16.9707C8.0684 16.7538 7.16886 16.5872 6.26154 16.6343C6.23041 16.6359 6.20084 16.6375 6.17127 16.6406C5.19859 16.7082 4.24146 17.0508 3.42596 17.6796C3.40418 17.6969 3.38239 17.7141 3.3606 17.7314C3.28123 16.2634 3.25944 14.8032 3.29523 13.3367ZM4.41733 22.3069C3.91931 21.62 3.59716 20.7807 3.51312 19.8581C3.47577 19.4478 3.44308 19.0392 3.41507 18.6305C4.08739 17.9923 4.91378 17.568 5.78687 17.4406C5.93783 17.4186 6.09035 17.4045 6.24131 17.3966C7.01012 17.3558 7.77115 17.4831 8.51195 17.6591C9.91106 17.9892 11.3257 18.4969 12.7824 18.4199C13.1575 18.3994 13.5372 18.3413 13.9185 18.2297C15.6398 17.7314 16.9253 16.1313 17.2863 14.2955C17.6552 12.4062 17.0856 10.5656 16.4802 8.87123C15.8608 7.14069 15.1402 5.36613 15.3099 3.42182C15.3301 3.19706 15.3628 2.97386 15.4063 2.75224C15.9137 2.75224 16.4226 2.76324 16.9315 2.78525C16.7058 5.08164 17.7019 7.11554 18.6605 9.02998C19.1492 10.0061 19.6566 10.9837 20.0005 12.0337C20.3289 13.0365 20.4643 14.0299 20.3756 15.1144C20.2044 17.1609 19.1383 19.1885 17.3922 20.2777C16.5393 20.8106 15.632 21.0228 14.7091 21.0715C13.3536 21.1438 11.9638 20.8624 10.6565 20.7226C9.97798 20.6503 9.29788 20.611 8.61466 20.6471C8.25204 20.666 7.88787 20.7068 7.52525 20.7744C6.51366 20.9615 5.50207 21.3183 4.68501 22.046C4.59163 22.1277 4.50292 22.2158 4.41733 22.3069ZM22.8594 18.7751C22.5964 21.1595 20.7927 23.1667 18.5718 23.5486C16.7463 23.8614 14.9068 24.0689 13.1061 24.1648C11.3039 24.2591 9.46596 24.2465 7.64664 24.1271C6.57591 24.0563 5.61256 23.5879 4.88421 22.857C5.47561 22.1985 6.26932 21.8432 7.10661 21.6279C7.59684 21.5006 8.10886 21.4314 8.624 21.4047C9.10489 21.378 9.59046 21.3906 10.062 21.4283C11.5919 21.5509 13.1746 21.914 14.7356 21.8307C15.5168 21.7898 16.2934 21.6358 17.0529 21.2853C19.0761 20.3532 20.5156 18.3036 20.9545 16.0433C21.1646 14.9525 21.1646 13.8397 20.9514 12.7771C20.7289 11.669 20.2697 10.6364 19.7904 9.64612C18.8629 7.72696 17.61 5.7355 17.6007 3.47369C17.6007 3.26307 17.6085 3.0273 17.6318 2.81983C17.7283 2.82297 17.8248 2.82926 17.9213 2.83554C20.8502 3.0273 22.7411 4.72484 22.9808 7.37645C23.3279 11.2446 23.289 14.8661 22.8594 18.7751Z" fill="white"/>
</g>
</g>
<defs>
<clipPath id="clip0_6301_824">
<rect width="109" height="32" fill="white"/>
</clipPath>
</defs>
</svg>
