<svg width="111" height="36" viewBox="0 0 111 36" fill="none" xmlns="http://www.w3.org/2000/svg">
<g opacity="0.6" filter="url(#filter0_f_100_64020)">
<path d="M55.3925 13C51.6828 13 49.0081 15.25 49.0081 18.625C49.0081 22 52.0188 24.25 55.7285 24.25C57.9698 24.25 59.9456 23.425 61.1687 22.0344L58.5981 20.6531C57.9194 21.3438 56.8878 21.7469 55.7285 21.7469C54.119 21.7469 52.7513 20.9656 52.244 19.7156H61.6593C61.7332 19.3656 61.7769 19.0031 61.7769 18.6219C61.7769 15.25 59.1022 13 55.3925 13ZM52.2137 17.5312C52.6337 16.2844 53.7829 15.5 55.3891 15.5C56.9987 15.5 58.1479 16.2844 58.5645 17.5312H52.2137ZM91.5753 13C87.8656 13 85.1909 15.25 85.1909 18.625C85.1909 22 88.2016 24.25 91.9113 24.25C94.1526 24.25 96.1284 23.425 97.3515 22.0344L94.7809 20.6531C94.1022 21.3438 93.0706 21.7469 91.9113 21.7469C90.3018 21.7469 88.9342 20.9656 88.4268 19.7156H97.8421C97.916 19.3656 97.9597 19.0031 97.9597 18.6219C97.9597 15.25 95.285 13 91.5753 13ZM88.3999 17.5312C88.8199 16.2844 89.9691 15.5 91.5753 15.5C93.1848 15.5 94.334 16.2844 94.7507 17.5312H88.3999ZM75.285 18.625C75.285 20.5 76.6022 21.75 78.6452 21.75C80.0296 21.75 81.0679 21.1656 81.6022 20.2125L84.1828 21.5969C83.1143 23.2531 81.1116 24.25 78.6452 24.25C74.9321 24.25 72.2608 22 72.2608 18.625C72.2608 15.25 74.9355 13 78.6452 13C81.1116 13 83.1109 13.9969 84.1828 15.6531L81.6022 17.0375C81.0679 16.0844 80.0296 15.5 78.6452 15.5C76.6055 15.5 75.285 16.75 75.285 18.625ZM103 9.5625V23.9375H99.9758V9.5625H103ZM20.416 8L32.832 28H8L20.416 8ZM51.4577 9.5625L42.1465 24.5625L32.8354 9.5625H36.3266L42.1465 18.9375L47.9664 9.5625H51.4577ZM71.2527 13.3125V16.3406C70.9167 16.25 70.5605 16.1875 70.1774 16.1875C68.2251 16.1875 66.8172 17.4375 66.8172 19.3125V23.9375H63.793V13.3125H66.8172V16.1875C66.8172 14.6 68.8031 13.3125 71.2527 13.3125Z" fill="url(#paint0_linear_100_64020)"/>
</g>
<path d="M55.3925 13C51.6828 13 49.0081 15.25 49.0081 18.625C49.0081 22 52.0188 24.25 55.7285 24.25C57.9698 24.25 59.9456 23.425 61.1687 22.0344L58.5981 20.6531C57.9194 21.3438 56.8878 21.7469 55.7285 21.7469C54.119 21.7469 52.7513 20.9656 52.244 19.7156H61.6593C61.7332 19.3656 61.7769 19.0031 61.7769 18.6219C61.7769 15.25 59.1022 13 55.3925 13ZM52.2137 17.5312C52.6337 16.2844 53.7829 15.5 55.3891 15.5C56.9987 15.5 58.1479 16.2844 58.5645 17.5312H52.2137ZM91.5753 13C87.8656 13 85.1909 15.25 85.1909 18.625C85.1909 22 88.2016 24.25 91.9113 24.25C94.1526 24.25 96.1284 23.425 97.3515 22.0344L94.7809 20.6531C94.1022 21.3438 93.0706 21.7469 91.9113 21.7469C90.3018 21.7469 88.9342 20.9656 88.4268 19.7156H97.8421C97.916 19.3656 97.9597 19.0031 97.9597 18.6219C97.9597 15.25 95.285 13 91.5753 13ZM88.3999 17.5312C88.8199 16.2844 89.9691 15.5 91.5753 15.5C93.1848 15.5 94.334 16.2844 94.7507 17.5312H88.3999ZM75.285 18.625C75.285 20.5 76.6022 21.75 78.6452 21.75C80.0296 21.75 81.0679 21.1656 81.6022 20.2125L84.1828 21.5969C83.1143 23.2531 81.1116 24.25 78.6452 24.25C74.9321 24.25 72.2608 22 72.2608 18.625C72.2608 15.25 74.9355 13 78.6452 13C81.1116 13 83.1109 13.9969 84.1828 15.6531L81.6022 17.0375C81.0679 16.0844 80.0296 15.5 78.6452 15.5C76.6055 15.5 75.285 16.75 75.285 18.625ZM103 9.5625V23.9375H99.9758V9.5625H103ZM20.416 8L32.832 28H8L20.416 8ZM51.4577 9.5625L42.1465 24.5625L32.8354 9.5625H36.3266L42.1465 18.9375L47.9664 9.5625H51.4577ZM71.2527 13.3125V16.3406C70.9167 16.25 70.5605 16.1875 70.1774 16.1875C68.2251 16.1875 66.8172 17.4375 66.8172 19.3125V23.9375H63.793V13.3125H66.8172V16.1875C66.8172 14.6 68.8031 13.3125 71.2527 13.3125Z" fill="url(#paint1_linear_100_64020)"/>
<defs>
<filter id="filter0_f_100_64020" x="0" y="0" width="111" height="36" filterUnits="userSpaceOnUse" color-interpolation-filters="sRGB">
<feFlood flood-opacity="0" result="BackgroundImageFix"/>
<feBlend mode="normal" in="SourceGraphic" in2="BackgroundImageFix" result="shape"/>
<feGaussianBlur stdDeviation="4" result="effect1_foregroundBlur_100_64020"/>
</filter>
<linearGradient id="paint0_linear_100_64020" x1="8" y1="7.8463" x2="103.552" y2="25.0931" gradientUnits="userSpaceOnUse">
<stop stop-color="white" stop-opacity="0.9"/>
<stop offset="1" stop-color="white" stop-opacity="0"/>
</linearGradient>
<linearGradient id="paint1_linear_100_64020" x1="8" y1="7.8463" x2="103.552" y2="25.0931" gradientUnits="userSpaceOnUse">
<stop stop-color="white" stop-opacity="0.9"/>
<stop offset="1" stop-color="white" stop-opacity="0.5"/>
</linearGradient>
</defs>
</svg>
