<svg width="24" height="24" viewBox="0 0 24 24" fill="none" xmlns="http://www.w3.org/2000/svg">
<path fill-rule="evenodd" clip-rule="evenodd" d="M12 23C18.0751 23 23 18.0751 23 12C23 5.92487 18.0751 1 12 1C5.92487 1 1 5.92487 1 12C1 18.0751 5.92487 23 12 23ZM17.9269 9.33864C18.3901 8.82672 18.3506 8.03625 17.8386 7.57308C17.3267 7.10991 16.5363 7.14943 16.0731 7.66136L10.6011 13.7093L7.8631 11.0958C7.36373 10.6191 6.57249 10.6375 6.09581 11.1369C5.61913 11.6363 5.63753 12.4275 6.1369 12.9042L9.80353 16.4042C10.0475 16.6371 10.3753 16.7615 10.7124 16.7492C11.0494 16.7368 11.3672 16.5888 11.5935 16.3386L17.9269 9.33864Z" fill="#00DB92"/>
</svg>
