<svg width="32" height="32" viewBox="0 0 32 32" fill="none" xmlns="http://www.w3.org/2000/svg">
<rect width="32" height="32" rx="4" fill="url(#paint0_linear_22072_4476)"/>
<rect x="0.5" y="0.5" width="31" height="31" rx="3.5" stroke="url(#paint1_linear_22072_4476)" stroke-opacity="0.1"/>
<path d="M17.7031 14.2999L20.1874 11.8157" stroke="#C9CBCF" stroke-linecap="round" stroke-linejoin="round"/>
<path d="M9.76667 24.5001C11.0185 24.5001 12.0333 23.4853 12.0333 22.2335C12.0333 20.9816 11.0185 19.9668 9.76667 19.9668C8.51482 19.9668 7.5 20.9816 7.5 22.2335C7.5 23.4853 8.51482 24.5001 9.76667 24.5001Z" stroke="#C9CBCF" stroke-linecap="round" stroke-linejoin="round"/>
<path d="M14.298 17.7002L11.3672 20.631" stroke="#C9CBCF" stroke-linecap="round" stroke-linejoin="round"/>
<path d="M9.76562 10.9V7.5C17.903 7.5 24.499 14.096 24.499 22.2333H21.099" stroke="#C9CBCF" stroke-linecap="round" stroke-linejoin="round"/>
<defs>
<linearGradient id="paint0_linear_22072_4476" x1="16" y1="0" x2="16" y2="32" gradientUnits="userSpaceOnUse">
<stop offset="0.3125" stop-color="#242628"/>
<stop offset="1" stop-color="#1D1E20"/>
</linearGradient>
<linearGradient id="paint1_linear_22072_4476" x1="16" y1="0" x2="16" y2="32" gradientUnits="userSpaceOnUse">
<stop stop-color="white"/>
<stop offset="1" stop-color="white" stop-opacity="0.05"/>
</linearGradient>
</defs>
</svg>
