<svg width="14" height="14" viewBox="0 0 14 14" fill="none" xmlns="http://www.w3.org/2000/svg">
<path d="M7 14C10.866 14 14 10.866 14 7C14 3.13401 10.866 0 7 0C3.13401 0 0 3.13401 0 7C0 10.866 3.13401 14 7 14Z" fill="#595959"/>
<path fill-rule="evenodd" clip-rule="evenodd" d="M7.70078 3.7C7.70078 4.0866 7.38738 4.4 7.00078 4.4C6.61418 4.4 6.30078 4.0866 6.30078 3.7C6.30078 3.3134 6.61418 3 7.00078 3C7.38738 3 7.70078 3.3134 7.70078 3.7ZM7.5 6.5C7.5 6.22386 7.27614 6 7 6C6.72386 6 6.5 6.22386 6.5 6.5V10.5C6.5 10.7761 6.72386 11 7 11C7.27614 11 7.5 10.7761 7.5 10.5V6.5Z" fill="white"/>
</svg>
