<svg width="32" height="32" viewBox="0 0 32 32" fill="none" xmlns="http://www.w3.org/2000/svg">
<rect width="32" height="32" rx="4" fill="url(#paint0_linear_22072_4486)"/>
<rect x="0.5" y="0.5" width="31" height="31" rx="3.5" stroke="url(#paint1_linear_22072_4486)" stroke-opacity="0.1"/>
<g clip-path="url(#clip0_22072_4486)">
<path d="M13 9.4V7" stroke="#C9CBCF" stroke-linecap="round" stroke-linejoin="round"/>
<path d="M19 9.4V7" stroke="#C9CBCF" stroke-linecap="round" stroke-linejoin="round"/>
<path d="M25.0016 19H22.6016" stroke="#C9CBCF" stroke-linecap="round" stroke-linejoin="round"/>
<path d="M25.0016 13H22.6016" stroke="#C9CBCF" stroke-linecap="round" stroke-linejoin="round"/>
<path d="M9.4 19H7" stroke="#C9CBCF" stroke-linecap="round" stroke-linejoin="round"/>
<path d="M9.4 13H7" stroke="#C9CBCF" stroke-linecap="round" stroke-linejoin="round"/>
<path d="M13 25.0001V22.6001" stroke="#C9CBCF" stroke-linecap="round" stroke-linejoin="round"/>
<path d="M19 25.0001V22.6001" stroke="#C9CBCF" stroke-linecap="round" stroke-linejoin="round"/>
<path d="M21.2784 9.3999H10.7184C9.98942 9.3999 9.39844 9.99089 9.39844 10.7199V21.2799C9.39844 22.0089 9.98942 22.5999 10.7184 22.5999H21.2784C22.0075 22.5999 22.5984 22.0089 22.5984 21.2799V10.7199C22.5984 9.99089 22.0075 9.3999 21.2784 9.3999Z" stroke="#C9CBCF" stroke-linecap="round" stroke-linejoin="round"/>
<path d="M20.2008 11.8H11.8008V20.2H20.2008V11.8Z" stroke="#C9CBCF" stroke-linecap="round" stroke-linejoin="round"/>
</g>
<defs>
<linearGradient id="paint0_linear_22072_4486" x1="16" y1="0" x2="16" y2="32" gradientUnits="userSpaceOnUse">
<stop offset="0.3125" stop-color="#242628"/>
<stop offset="1" stop-color="#1D1E20"/>
</linearGradient>
<linearGradient id="paint1_linear_22072_4486" x1="16" y1="0" x2="16" y2="32" gradientUnits="userSpaceOnUse">
<stop stop-color="white"/>
<stop offset="1" stop-color="white" stop-opacity="0.05"/>
</linearGradient>
<clipPath id="clip0_22072_4486">
<rect width="20" height="20" fill="white" transform="translate(6 6)"/>
</clipPath>
</defs>
</svg>
