<svg width="32" height="32" viewBox="0 0 32 32" fill="none" xmlns="http://www.w3.org/2000/svg">
<rect width="32" height="32" rx="4" fill="url(#paint0_linear_22072_4502)"/>
<rect x="0.5" y="0.5" width="31" height="31" rx="3.5" stroke="url(#paint1_linear_22072_4502)" stroke-opacity="0.1"/>
<path d="M24.5 7.5H7.5V14.3H24.5V7.5Z" stroke="#C9CBCF" stroke-linecap="round" stroke-linejoin="round"/>
<path d="M14.2984 10.8999H10.8984" stroke="#C9CBCF" stroke-linecap="round" stroke-linejoin="round"/>
<path d="M21.0979 11.4668C21.4109 11.4668 21.6646 11.2131 21.6646 10.9002C21.6646 10.5872 21.4109 10.3335 21.0979 10.3335C20.785 10.3335 20.5312 10.5872 20.5312 10.9002C20.5312 11.2131 20.785 11.4668 21.0979 11.4668Z" fill="#C9CBCF"/>
<path d="M24.5 17.7002H7.5V24.5002H24.5V17.7002Z" stroke="#C9CBCF" stroke-linecap="round" stroke-linejoin="round"/>
<path d="M14.2984 21.1001H10.8984" stroke="#C9CBCF" stroke-linecap="round" stroke-linejoin="round"/>
<path d="M21.0979 21.6665C21.4109 21.6665 21.6646 21.4128 21.6646 21.0999C21.6646 20.7869 21.4109 20.5332 21.0979 20.5332C20.785 20.5332 20.5312 20.7869 20.5312 21.0999C20.5312 21.4128 20.785 21.6665 21.0979 21.6665Z" fill="#C9CBCF"/>
<defs>
<linearGradient id="paint0_linear_22072_4502" x1="16" y1="0" x2="16" y2="32" gradientUnits="userSpaceOnUse">
<stop offset="0.3125" stop-color="#242628"/>
<stop offset="1" stop-color="#1D1E20"/>
</linearGradient>
<linearGradient id="paint1_linear_22072_4502" x1="16" y1="0" x2="16" y2="32" gradientUnits="userSpaceOnUse">
<stop stop-color="white"/>
<stop offset="1" stop-color="white" stop-opacity="0.05"/>
</linearGradient>
</defs>
</svg>
