<svg width="96" height="96" viewBox="0 0 96 96" fill="none" xmlns="http://www.w3.org/2000/svg">
<rect width="96" height="96" rx="6" fill="#F0F075"/>
<path d="M75.0866 28C74.2163 28 73.4483 27.4473 73.1088 26.6459C69.4625 18.0384 60.9364 12 51 12C41.0636 12 32.5375 18.0384 28.8912 26.6459C28.5517 27.4473 27.7837 28 26.9134 28C25.5396 28 24.5545 26.6746 25.0747 25.4032C29.2524 15.1931 39.2862 8 51 8C62.7138 8 72.7476 15.1931 76.9253 25.4032C77.4455 26.6746 76.4604 28 75.0866 28Z" fill="#1A1A1A"/>
<path d="M8.00006 44C8.00006 41.7909 9.79092 40 12.0001 40H78.0001C80.2092 40 82.0001 41.7909 82.0001 44V84C82.0001 86.2091 80.2092 88 78.0001 88H12.0001C9.79092 88 8.00006 86.2091 8.00006 84V44Z" fill="#FFA64C"/>
<path d="M15.0001 38C15.0001 36.3431 16.3432 35 18.0001 35H84.0001C85.6569 35 87.0001 36.3431 87.0001 38V78C87.0001 79.6569 85.6569 81 84.0001 81H18.0001C16.3432 81 15.0001 79.6569 15.0001 78V38Z" fill="white" stroke="#1A1A1A" stroke-width="2"/>
<circle cx="51.0005" cy="34" r="11" fill="#F0F075" stroke="#1A1A1A" stroke-width="2"/>
<circle cx="51.0005" cy="34" r="4" fill="#1A1A1A"/>
<circle cx="39.0002" cy="69" r="4" fill="#1A1A1A"/>
<circle cx="27.0002" cy="69" r="4" fill="#1A1A1A"/>
<circle cx="63.0002" cy="69" r="4" fill="#1A1A1A"/>
<circle cx="75.0002" cy="69" r="4" fill="#1A1A1A"/>
<circle cx="51.0002" cy="69" r="4" fill="#1A1A1A"/>
<circle cx="45.0002" cy="57" r="4" fill="#1A1A1A"/>
<circle cx="33.0002" cy="57" r="4" fill="#1A1A1A"/>
<circle cx="69.0002" cy="57" r="4" fill="#1A1A1A"/>
<circle cx="57.0002" cy="57" r="4" fill="#1A1A1A"/>
</svg>
