<svg width="56" height="56" viewBox="0 0 56 56" fill="none" xmlns="http://www.w3.org/2000/svg">
<g clip-path="url(#clip0_34_2909)">
<rect x="46.8398" y="48.0938" width="1.77623" height="1.77623" rx="0.888113" transform="rotate(-45 46.8398 48.0938)" fill="white"/>
<rect x="53.4883" y="28" width="1.77623" height="1.77623" rx="0.888113" transform="rotate(-45 53.4883 28)" fill="white"/>
<rect x="39.3047" y="41.8123" width="3.55245" height="3.55245" rx="1.77623" transform="rotate(-45 39.3047 41.8123)" fill="white"/>
<rect x="26.7422" y="54.7422" width="1.77623" height="1.77623" rx="0.888113" transform="rotate(-45 26.7422 54.7422)" fill="white"/>
<rect x="39.3047" y="28" width="3.55245" height="3.55245" rx="1.77623" transform="rotate(-45 39.3047 28)" fill="white"/>
<rect x="30.5117" y="34.9062" width="6.21679" height="6.2168" rx="3.1084" transform="rotate(-45 30.5117 34.9062)" fill="white"/>
<rect x="25.4883" y="41.8125" width="3.55245" height="3.55245" rx="1.77623" transform="rotate(-45 25.4883 41.8125)" fill="white"/>
<rect x="46.8398" y="7.90625" width="1.77623" height="1.77623" rx="0.888113" transform="rotate(-45 46.8398 7.90625)" fill="white"/>
<rect x="39.3047" y="14.1873" width="3.55245" height="3.55245" rx="1.77623" transform="rotate(-45 39.3047 14.1873)" fill="white"/>
<rect x="30.5117" y="21.0938" width="6.21679" height="6.2168" rx="3.1084" transform="rotate(-45 30.5117 21.0938)" fill="white"/>
<rect x="23.6055" y="28" width="6.21679" height="6.2168" rx="3.1084" transform="rotate(-45 23.6055 28)" fill="white"/>
<rect x="16.6953" y="34.9062" width="6.21679" height="6.2168" rx="3.1084" transform="rotate(-45 16.6953 34.9062)" fill="white"/>
<rect x="11.6719" y="41.8125" width="3.55245" height="3.55245" rx="1.77623" transform="rotate(-45 11.6719 41.8125)" fill="white"/>
<rect x="25.4883" y="14.1875" width="3.55245" height="3.55245" rx="1.77623" transform="rotate(-45 25.4883 14.1875)" fill="white"/>
<rect x="16.6953" y="21.0935" width="6.21679" height="6.2168" rx="3.1084" transform="rotate(-45 16.6953 21.0935)" fill="white"/>
<rect x="11.6719" y="28" width="3.55245" height="3.55245" rx="1.77623" transform="rotate(-45 11.6719 28)" fill="white"/>
<rect x="26.7422" y="1.25781" width="1.77623" height="1.77623" rx="0.888113" transform="rotate(-45 26.7422 1.25781)" fill="white"/>
<rect x="11.6719" y="14.1797" width="3.55245" height="3.55245" rx="1.77623" transform="rotate(-45 11.6719 14.1797)" fill="white"/>
<rect y="28" width="1.77623" height="1.77623" rx="0.888113" transform="rotate(-45 0 28)" fill="white"/>
<rect x="6.64844" y="7.90625" width="1.77623" height="1.77623" rx="0.888113" transform="rotate(-45 6.64844 7.90625)" fill="white"/>
<rect x="6.64844" y="48.0935" width="1.77623" height="1.77623" rx="0.888113" transform="rotate(-45 6.64844 48.0935)" fill="white"/>
</g>
<defs>
<clipPath id="clip0_34_2909">
<rect width="56" height="56" fill="white"/>
</clipPath>
</defs>
</svg>
