<svg width="56" height="56" viewBox="0 0 56 56" fill="none" xmlns="http://www.w3.org/2000/svg">
<rect x="15.5195" y="6.04785" width="3.44355" height="3.44355" rx="1.72177" transform="rotate(180 15.5195 6.04785)" fill="white"/>
<rect x="26.2812" y="7.33984" width="6.02621" height="6.02621" rx="3.0131" transform="rotate(180 26.2812 7.33984)" fill="white"/>
<rect x="35.75" y="7.33984" width="6.02621" height="6.02621" rx="3.0131" transform="rotate(180 35.75 7.33984)" fill="white"/>
<rect x="43.9297" y="6.04785" width="3.44355" height="3.44355" rx="1.72177" transform="rotate(180 43.9297 6.04785)" fill="white"/>
<rect x="6.05078" y="15.5176" width="3.44355" height="3.44355" rx="1.72177" transform="rotate(180 6.05078 15.5176)" fill="white"/>
<rect x="16.8125" y="16.8096" width="6.02621" height="6.02621" rx="3.0131" transform="rotate(180 16.8125 16.8096)" fill="white"/>
<rect x="24.9883" y="15.5176" width="3.44355" height="3.44355" rx="1.72177" transform="rotate(180 24.9883 15.5176)" fill="white"/>
<rect x="34.457" y="15.5176" width="3.44355" height="3.44355" rx="1.72177" transform="rotate(180 34.457 15.5176)" fill="white"/>
<rect x="45.2188" y="16.8096" width="6.02621" height="6.02621" rx="3.0131" transform="rotate(180 45.2188 16.8096)" fill="white"/>
<rect x="53.3984" y="15.5176" width="3.44355" height="3.44355" rx="1.72177" transform="rotate(180 53.3984 15.5176)" fill="white"/>
<rect x="7.33984" y="26.2793" width="6.02621" height="6.02621" rx="3.0131" transform="rotate(180 7.33984 26.2793)" fill="white"/>
<rect x="15.5195" y="24.9873" width="3.44355" height="3.44355" rx="1.72177" transform="rotate(180 15.5195 24.9873)" fill="white"/>
<rect x="24.1289" y="24.127" width="1.72177" height="1.72177" rx="0.860887" transform="rotate(180 24.1289 24.127)" fill="white"/>
<rect x="33.5977" y="24.127" width="1.72177" height="1.72177" rx="0.860887" transform="rotate(180 33.5977 24.127)" fill="white"/>
<rect x="43.9297" y="24.9873" width="3.44355" height="3.44355" rx="1.72177" transform="rotate(180 43.9297 24.9873)" fill="white"/>
<rect x="54.6875" y="26.2793" width="6.02621" height="6.02621" rx="3.0131" transform="rotate(180 54.6875 26.2793)" fill="white"/>
<rect x="7.33984" y="35.748" width="6.02621" height="6.02621" rx="3.0131" transform="rotate(180 7.33984 35.748)" fill="white"/>
<rect x="15.5195" y="34.4561" width="3.44355" height="3.44355" rx="1.72177" transform="rotate(180 15.5195 34.4561)" fill="white"/>
<rect x="24.1289" y="33.5967" width="1.72177" height="1.72177" rx="0.860887" transform="rotate(180 24.1289 33.5967)" fill="white"/>
<rect x="33.5977" y="33.5967" width="1.72177" height="1.72177" rx="0.860887" transform="rotate(180 33.5977 33.5967)" fill="white"/>
<rect x="43.9297" y="34.4561" width="3.44355" height="3.44355" rx="1.72177" transform="rotate(180 43.9297 34.4561)" fill="white"/>
<rect x="54.6875" y="35.748" width="6.02621" height="6.02621" rx="3.0131" transform="rotate(180 54.6875 35.748)" fill="white"/>
<rect x="6.05078" y="43.9277" width="3.44355" height="3.44355" rx="1.72177" transform="rotate(180 6.05078 43.9277)" fill="white"/>
<rect x="16.8125" y="45.2178" width="6.02621" height="6.02621" rx="3.0131" transform="rotate(180 16.8125 45.2178)" fill="white"/>
<rect x="24.9883" y="43.9277" width="3.44355" height="3.44355" rx="1.72177" transform="rotate(180 24.9883 43.9277)" fill="white"/>
<rect x="34.457" y="43.9277" width="3.44355" height="3.44355" rx="1.72177" transform="rotate(180 34.457 43.9277)" fill="white"/>
<rect x="45.2188" y="45.2178" width="6.02621" height="6.02621" rx="3.0131" transform="rotate(180 45.2188 45.2178)" fill="white"/>
<rect x="53.3984" y="43.9277" width="3.44355" height="3.44355" rx="1.72177" transform="rotate(180 53.3984 43.9277)" fill="white"/>
<rect x="15.5195" y="53.3975" width="3.44355" height="3.44355" rx="1.72177" transform="rotate(180 15.5195 53.3975)" fill="white"/>
<rect x="26.2812" y="54.6875" width="6.02621" height="6.02621" rx="3.0131" transform="rotate(180 26.2812 54.6875)" fill="white"/>
<rect x="35.75" y="54.6875" width="6.02621" height="6.02621" rx="3.0131" transform="rotate(180 35.75 54.6875)" fill="white"/>
<rect x="43.9297" y="53.3975" width="3.44355" height="3.44355" rx="1.72177" transform="rotate(180 43.9297 53.3975)" fill="white"/>
</svg>
