<svg width="136" height="36" viewBox="0 0 136 36" fill="none" xmlns="http://www.w3.org/2000/svg">
<g clip-path="url(#clip0_20319_13220)">
<mask id="mask0_20319_13220" style="mask-type:luminance" maskUnits="userSpaceOnUse" x="0" y="0" width="139" height="36">
<path d="M138.008 0H0.5V35.8954H138.008V0Z" fill="white"/>
</mask>
<g mask="url(#mask0_20319_13220)">
<path d="M22.7049 23.6466L23.9809 0.0644531H22.524L4.74413 24.1733C3.50463 25.9093 2.33891 26.1054 0.809236 26.1054L0.589844 26.7929H8.09569L8.34945 26.1054C4.67033 26.1054 5.06969 25.8426 6.2718 24.1733L10.5717 18.2781H20.7729L20.4079 23.6496C20.2998 25.6484 19.8609 26.1054 16.8006 26.1054L16.5448 26.7929H25.3609L25.6885 26.1054C22.9931 26.1054 22.5907 25.7131 22.702 23.6496L22.704 23.6476L22.7049 23.6466ZM20.8103 17.2619H11.338L21.4655 3.37253H21.7213L20.8093 17.2599V17.2619H20.8103Z" fill="white" stroke="white" stroke-width="0.131433" stroke-miterlimit="10"/>
<path d="M58.303 5.49226C57.6105 5.49226 57.1878 6.0827 57.101 6.63673C56.926 7.7428 57.7106 8.76697 57.3831 10.8173C56.7987 14.4853 52.8092 20.5606 47.3728 26.7935C49.0208 20.323 51.1005 13.8938 51.6293 10.5797C52.1651 6.9906 51.4635 5.59539 49.8964 5.59539C47.9643 5.59539 45.4327 13.6866 43.7777 16.9987C43.7777 16.9987 40.0105 25.5308 38.7024 25.5308C38.118 25.5308 37.9734 25.1365 37.9734 24.545C37.9734 24.0324 38.3009 23.165 38.483 22.5735C40.415 17.483 43.4754 11.2116 43.4754 7.97736C43.4754 6.47902 42.7464 5.53068 41.3978 5.53068C38.9925 5.53068 36.1516 8.64666 32.1448 17.7994H31.8536L34.2589 10.6202C34.6946 9.27854 35.0597 8.21495 35.0597 7.38591C35.0597 6.4396 34.5865 5.61055 33.6381 5.61055C31.3441 5.61055 28.8651 8.88424 27.3718 12.0002H28.1361C29.3757 9.63442 31.2339 7.06945 32.4704 7.06945C32.7979 7.06945 33.0173 7.22617 33.0173 7.81963C33.0173 8.29279 32.616 9.59499 32.2884 10.6202L27.1504 26.7946H29.228C34.5824 12.0811 38.6285 7.34648 40.3411 7.34648C40.96 7.34648 41.2158 7.81963 41.2158 8.80539C41.2158 10.9356 38.5911 16.8521 36.5509 22.533C36.2233 23.4015 35.8957 24.269 35.8957 24.9797C35.8957 26.1637 36.4063 27.0321 37.8278 27.0321C40.3038 27.0321 45.1183 15.7369 45.1183 15.7369C46.6277 12.4471 48.5133 7.41017 49.2726 7.30705C51.6313 6.9815 47.6033 18.0178 45.9301 24.179C45.1759 26.9603 43.9455 29.5992 42.2379 31.9194C41.4877 32.9395 40.8234 33.621 40.0935 33.621C38.9996 33.621 38.762 32.8314 37.5963 32.8314C36.6125 32.8314 35.6855 33.621 35.5287 34.6067C35.4226 35.2759 35.8452 35.83 36.936 35.83C41.1985 35.83 45.5662 31.056 50.4727 24.9414C55.2387 19.0248 58.5295 13.4611 59.2018 9.23911C59.6153 6.63573 59.2524 5.49023 58.3041 5.49023L58.303 5.49226Z" fill="white" stroke="white" stroke-width="0.131433" stroke-miterlimit="10"/>
<path d="M71.0697 6.06458V8.07551H67.0883V22.3199C67.0883 23.1044 67.1944 23.7161 67.4118 24.1599C67.6262 24.6027 68.1639 24.8474 69.0224 24.899C69.7058 24.899 70.3863 24.8616 71.0697 24.7857V26.7966C70.7169 26.7966 70.361 26.8078 70.0081 26.8331C69.6553 26.8583 69.2994 26.8705 68.9465 26.8705C67.3541 26.8705 66.2411 26.5611 65.6111 25.9423C64.9782 25.3235 64.677 24.1791 64.7023 22.5099V8.07551H61.291V6.06458H64.7023V0.1875H67.0913V6.06458H71.0727H71.0707H71.0697Z" fill="white" stroke="white" stroke-width="0.131433" stroke-miterlimit="10"/>
<path d="M75.3529 0.1875V9.43735H75.4288C75.8837 8.24839 76.6916 7.295 77.8543 6.57515C79.018 5.8553 80.2939 5.49436 81.683 5.49436C83.0722 5.49436 84.1913 5.67231 85.1154 6.02515C86.0384 6.378 86.7776 6.87946 87.3336 7.52348C87.8897 8.16751 88.282 8.95914 88.5084 9.89434C88.7369 10.8295 88.8501 11.88 88.8501 13.0407V26.7926H86.4611V13.4188C86.4611 12.5857 86.3852 11.8071 86.2326 11.0873C86.08 10.3675 85.815 9.74167 85.4359 9.21088C85.0578 8.6801 84.5452 8.26255 83.9012 7.95924C83.2571 7.65694 82.4544 7.50428 81.494 7.50428C80.5335 7.50428 79.6801 7.67515 78.9341 8.01687C78.1889 8.35859 77.556 8.8267 77.0394 9.42017C76.5197 10.0136 76.1163 10.7224 75.8252 11.5433C75.534 12.3653 75.3752 13.256 75.352 14.2164V26.7936H72.9629V0.1875H75.352H75.3529Z" fill="white" stroke="white" stroke-width="0.131433" stroke-miterlimit="10"/>
<path d="M94.2692 6.06281V26.7929H91.8801V6.06281H94.2692ZM94.3935 2.21486C94.3935 1.48793 93.8031 0.896484 93.0761 0.896484C92.3493 0.896484 91.7578 1.48793 91.7578 2.21486C91.7578 2.94178 92.3482 3.53323 93.0761 3.53323C93.8041 3.53323 94.3935 2.94178 94.3935 2.21486Z" fill="white" stroke="white" stroke-width="0.131433" stroke-miterlimit="10"/>
<path d="M99.6908 6.06429V9.43909H99.7666C100.222 8.25013 101.029 7.29673 102.192 6.57688C103.356 5.85704 104.632 5.49609 106.021 5.49609C107.41 5.49609 108.53 5.67404 109.453 6.02689C110.376 6.37973 111.114 6.8812 111.671 7.52522C112.227 8.16924 112.62 8.96088 112.846 9.89607C113.075 10.8313 113.187 11.8817 113.187 13.0424V26.7943H110.799V13.4205C110.799 12.5874 110.722 11.809 110.57 11.0891C110.418 10.3692 110.153 9.74341 109.774 9.21262C109.396 8.68183 108.883 8.26428 108.239 7.96199C107.595 7.65968 106.792 7.50702 105.832 7.50702C104.871 7.50702 104.018 7.67788 103.272 8.01961C102.527 8.36134 101.895 8.82945 101.377 9.42291C100.858 10.0164 100.454 10.7251 100.163 11.5471C99.8718 12.369 99.713 13.2597 99.6898 14.2203V26.7974H97.3008V6.06429H99.6898H99.6908Z" fill="white" stroke="white" stroke-width="0.131433" stroke-miterlimit="10"/>
<path d="M132.237 28.3626C131.921 29.5364 131.423 30.5303 130.739 31.3452C130.056 32.1601 129.165 32.7859 128.067 33.2196C126.968 33.6523 125.621 33.8696 124.029 33.8696C123.044 33.8696 122.084 33.7554 121.149 33.5249C120.214 33.2945 119.375 32.9385 118.629 32.4543C117.884 31.97 117.265 31.3502 116.771 30.5991C116.277 29.8468 115.993 28.948 115.917 27.9026H118.306C118.433 28.6407 118.677 29.2594 119.045 29.7578C119.412 30.2563 119.852 30.6567 120.371 30.961C120.888 31.2663 121.465 31.4897 122.096 31.6293C122.727 31.7688 123.372 31.8385 124.029 31.8385C126.252 31.8385 127.858 31.2006 128.844 29.9266C129.83 28.6508 130.324 27.7691 130.324 25.3741V22.6969H130.247C129.691 23.9212 128.877 24.9019 127.803 25.6419C126.728 26.382 125.473 26.75 124.031 26.75C122.464 26.75 121.125 26.4892 120.014 25.9655C118.902 25.4439 117.985 24.722 117.265 23.805C116.545 22.888 116.021 21.8092 115.691 20.5737C115.363 19.3372 115.197 17.0645 115.197 15.6621C115.197 14.2599 115.393 13.0314 115.786 11.8183C116.178 10.6081 116.745 9.5485 117.491 8.64464C118.236 7.73877 119.159 7.02701 120.258 6.5033C121.357 5.98161 122.615 5.71875 124.029 5.71875C124.762 5.71875 125.451 5.82086 126.095 6.02408C126.739 6.22931 127.328 6.51544 127.858 6.88547C128.389 7.2555 128.863 7.68215 129.28 8.16643C129.698 8.65071 130.019 9.16027 130.247 9.69611H130.324V5.71975H132.713V25.373C132.713 26.8259 132.553 27.1858 132.239 28.3586L132.237 28.3636V28.3626ZM126.76 24.0588C127.542 23.6119 128.2 23.0275 128.73 22.2985C129.261 21.5726 129.659 20.7365 129.924 19.7932C130.189 18.85 130.321 16.9279 130.321 15.9341C130.321 14.9403 130.208 13.997 129.979 13.0285C129.751 12.0599 129.385 11.1803 128.881 10.3907C128.376 9.60107 127.725 8.96312 126.928 8.47884C126.132 7.99456 125.165 7.75293 124.028 7.75293C122.89 7.75293 121.917 7.9885 121.108 8.46064C120.298 8.93278 119.629 9.55052 119.098 10.3159C118.567 11.0812 118.181 11.9547 117.941 12.9355C117.701 13.9182 117.581 14.919 117.581 15.9361C117.581 16.9532 117.708 18.852 117.959 19.7952C118.211 20.7385 118.603 21.5736 119.134 22.3005C119.665 23.0264 120.335 23.6139 121.144 24.0608C121.952 24.5076 122.912 24.7291 124.024 24.7291C125.061 24.7291 125.971 24.5056 126.756 24.0608L126.76 24.0588Z" fill="white" stroke="white" stroke-width="0.131433" stroke-miterlimit="10"/>
</g>
</g>
<defs>
<clipPath id="clip0_20319_13220">
<rect width="135" height="36" fill="white" transform="translate(0.5)"/>
</clipPath>
</defs>
</svg>
