<svg width="136" height="36" viewBox="0 0 136 36" fill="none" xmlns="http://www.w3.org/2000/svg">
<path fill-rule="evenodd" clip-rule="evenodd" d="M37.3908 22.1808L35.3565 23.068L35.3292 23.0884L25.5509 27.3966L24.3751 27.9219L24.136 28.0283L24.1327 28.0297L24.1322 28.0404L23.8332 34.8817L16.918 31.2317C13.1051 29.164 8.65435 26.6974 6.17657 25.0686C1.26751 21.844 -0.532698 16.8843 4.80815 13.9656L6.71464 13.1013L6.90064 13.0215L6.86743 13.0481L6.86089 13.0531C5.53642 14.0672 4.79777 14.6327 6.5685 16.02L12.6201 19.3841L17.5225 22.1033L17.5259 22.1052L17.5264 22.0978L29.6097 16.6992L29.7285 16.7665L29.5921 16.6891L24.6968 13.9236L24.6965 13.9277L12.6265 19.3794L6.57488 16.0153C4.80258 14.6268 5.55075 14.0548 6.87082 13.0457L6.87381 13.0434L6.90702 13.0168L6.85518 13.0391L18.157 7.99413L18.5052 1.125C18.5052 1.125 21.5508 2.72793 25.2336 4.74658L25.2346 4.74609L25.2346 4.74713C29.0744 6.85186 33.6067 9.40837 36.1021 11.0711C40.9846 14.3356 42.745 19.2953 37.3908 22.1808ZM6.85518 13.0391L6.80074 13.0634L6.72102 13.0966L6.85518 13.0391ZM117.847 14.5302V11.5051H114.579V7.5293H110.673H110.666V11.5051H108.328V14.5302H110.666V23.7516C110.66 24.7888 110.886 25.6531 111.337 26.3445C111.796 27.036 112.42 27.5479 113.204 27.8803C113.988 28.2061 114.871 28.3524 115.848 28.3258C116.399 28.3125 116.871 28.2593 117.249 28.1729C117.641 28.0864 117.94 28.0067 118.146 27.9335L117.489 24.8752C117.382 24.9085 117.223 24.9417 117.017 24.9749C116.811 25.0082 116.592 25.0281 116.346 25.0281C116.021 25.0281 115.728 24.9749 115.463 24.8752C115.197 24.7755 114.984 24.5893 114.818 24.3167C114.659 24.0375 114.579 23.632 114.579 23.1067V14.5302H117.847ZM66.4336 28.0969V11.5089H70.22V14.2747H70.3927C70.6917 13.3173 71.2098 12.5793 71.9472 12.0607C72.6845 11.5355 73.5348 11.2695 74.4781 11.2695C74.6906 11.2695 74.9364 11.2828 75.2021 11.3028C75.4745 11.3161 75.7004 11.3427 75.8797 11.3759V14.9727C75.7136 14.9129 75.4546 14.8664 75.0892 14.8198C74.7372 14.7666 74.3984 14.7467 74.0662 14.7467C73.3554 14.7467 72.7177 14.8996 72.1464 15.2121C71.5884 15.5179 71.1434 15.9368 70.8179 16.4753C70.4924 17.0138 70.3329 17.6388 70.3329 18.3435V28.0969H66.4336ZM57.3444 28.4175C55.6904 28.4175 54.2688 28.0519 53.0864 27.3272C51.9106 26.6025 51.0005 25.5919 50.3562 24.3154C49.7251 23.0256 49.4062 21.543 49.4062 19.8676C49.4062 18.1855 49.7318 16.6962 50.3761 15.4064C51.0205 14.11 51.9372 13.0994 53.113 12.3814C54.302 11.6567 55.7037 11.291 57.3179 11.291C58.6597 11.291 59.8488 11.537 60.8851 12.0356C61.928 12.5276 62.7584 13.2191 63.3761 14.1233C63.9939 15.0142 64.346 16.058 64.4324 17.2547H60.6991C60.5463 16.4569 60.1876 15.792 59.6229 15.2535C59.0649 14.715 58.3143 14.4424 57.371 14.4424C56.5739 14.4424 55.8697 14.6552 55.2652 15.0873C54.6607 15.5128 54.1891 16.1245 53.8503 16.9223C53.5182 17.7201 53.3521 18.6775 53.3521 19.7944C53.3521 20.9247 53.5182 21.8954 53.8503 22.7131C54.1825 23.5176 54.6474 24.1426 55.2387 24.5814C55.8432 25.0135 56.5473 25.2263 57.3644 25.2263C57.9423 25.2263 58.4538 25.1199 58.9055 24.9005C59.3639 24.6744 59.7492 24.3553 60.0614 23.9365C60.3736 23.5176 60.5795 23.0123 60.6991 22.4139H64.4324C64.3394 23.5907 63.9939 24.6279 63.3961 25.5387C62.7982 26.4363 61.9878 27.1477 60.9581 27.653C59.9418 28.1649 58.7328 28.4175 57.3444 28.4175ZM79.6071 27.387C80.8161 28.0785 82.251 28.4242 83.9117 28.4242C85.2004 28.4242 86.3429 28.2314 87.3394 27.8258C88.3358 27.4336 89.1595 26.8751 89.7972 26.1637C90.4416 25.4457 90.88 24.6013 91.1125 23.6373L87.4656 23.2251C87.2929 23.6905 87.0404 24.0827 86.7017 24.4018C86.3629 24.721 85.9643 24.9603 85.506 25.1265C85.0476 25.2861 84.5361 25.3659 83.9648 25.3659C83.1212 25.3659 82.3772 25.1864 81.7461 24.8274C81.115 24.4617 80.6235 23.9365 80.2714 23.2517C79.9315 22.5842 79.7526 21.7866 79.7406 20.8648H91.2786V19.6681C91.2786 18.2187 91.0793 16.9622 90.6741 15.9117C90.2689 14.8546 89.7175 13.9837 89.0134 13.2989C88.3159 12.6207 87.5054 12.1154 86.5954 11.7897C85.6919 11.4572 84.7287 11.291 83.7057 11.291C82.1247 11.291 80.743 11.6567 79.5739 12.3814C78.4048 13.0994 77.488 14.11 76.837 15.4064C76.1927 16.6962 75.8672 18.1922 75.8672 19.9008C75.8672 21.6361 76.1927 23.1453 76.837 24.4284C77.4814 25.705 78.4048 26.6889 79.6071 27.387ZM79.7475 18.232C79.7837 17.5824 79.9479 16.9765 80.2448 16.4237C80.5836 15.7987 81.0552 15.2934 81.6597 14.9144C82.2576 14.5222 82.9617 14.3294 83.7589 14.3294C84.5029 14.3294 85.1605 14.4956 85.7185 14.8347C86.2898 15.1737 86.7282 15.6391 87.0471 16.2308C87.3659 16.8159 87.5254 17.4808 87.532 18.232H79.7475ZM98.1249 28.4242C97.0753 28.4242 96.132 28.238 95.2884 27.8657C94.4514 27.4868 93.7938 26.9216 93.3022 26.1836C92.8173 25.439 92.5781 24.5282 92.5781 23.4378C92.5781 22.5004 92.7508 21.7292 93.0963 21.1175C93.4417 20.5058 93.9133 20.0138 94.5112 19.6482C95.1091 19.2825 95.78 19.0033 96.5306 18.8171C97.2879 18.6243 98.0651 18.4847 98.8689 18.3983C99.8388 18.2985 100.629 18.2055 101.227 18.1257C101.832 18.0392 102.27 17.9063 102.542 17.7401C102.821 17.5605 102.961 17.2813 102.961 16.909V16.8425C102.961 16.0314 102.722 15.3998 102.237 14.9543C101.752 14.5089 101.061 14.2828 100.158 14.2828C99.201 14.2828 98.4438 14.4889 97.8858 14.9078C97.3344 15.3267 96.9558 15.8186 96.7631 16.3904L93.1162 15.8718C93.4018 14.8613 93.8801 14.0235 94.5378 13.3454C95.202 12.6606 96.0058 12.1487 96.9624 11.8096C97.919 11.4639 98.9752 11.291 100.131 11.291C100.928 11.291 101.725 11.3841 102.516 11.5703C103.306 11.7564 104.03 12.0689 104.681 12.501C105.332 12.9265 105.857 13.505 106.256 14.2429C106.661 14.9743 106.86 15.8984 106.86 16.9954V28.0984H103.107V25.818H102.981C102.742 26.2767 102.41 26.7089 101.978 27.1144C101.553 27.5133 101.015 27.8325 100.37 28.0785C99.7391 28.3045 98.9818 28.4242 98.1249 28.4242ZM99.1346 25.552C99.9185 25.552 100.596 25.3991 101.174 25.0866C101.752 24.7675 102.19 24.3553 102.503 23.8367C102.821 23.3181 102.974 22.753 102.974 22.1414V20.1801C102.855 20.2798 102.642 20.3729 102.35 20.4593C102.064 20.5457 101.739 20.6189 101.38 20.6853C101.046 20.7471 100.713 20.7975 100.385 20.847L100.385 20.847L100.31 20.8582C99.9583 20.9114 99.6528 20.9513 99.3937 20.9845C98.8091 21.0643 98.291 21.1906 97.8326 21.3701C97.3743 21.5496 97.0089 21.8023 96.7432 22.1281C96.4775 22.4472 96.3446 22.8527 96.3446 23.358C96.3446 24.0761 96.6037 24.6212 97.1285 24.9869C97.6533 25.3659 98.3242 25.552 99.1346 25.552ZM127.037 28.4242C125.376 28.4242 123.941 28.0785 122.732 27.387C121.53 26.6889 120.606 25.705 119.962 24.4284C119.318 23.1453 118.992 21.6361 118.992 19.9008C118.992 18.1922 119.318 16.6962 119.962 15.4064C120.62 14.11 121.53 13.0994 122.699 12.3814C123.868 11.6567 125.25 11.291 126.831 11.291C127.854 11.291 128.817 11.4572 129.72 11.7897C130.63 12.1154 131.441 12.6207 132.138 13.2989C132.842 13.9837 133.394 14.8546 133.799 15.9117C134.204 16.9622 134.404 18.2187 134.404 19.6681V20.8648H122.866C122.878 21.7866 123.057 22.5842 123.396 23.2517C123.748 23.9365 124.24 24.4617 124.871 24.8274C125.502 25.1864 126.246 25.3659 127.09 25.3659C127.654 25.3659 128.173 25.2861 128.631 25.1265C129.089 24.9603 129.488 24.721 129.827 24.4018C130.165 24.0827 130.418 23.6905 130.591 23.2251L134.238 23.6373C134.005 24.6013 133.567 25.4457 132.922 26.1637C132.285 26.8751 131.461 27.4336 130.464 27.8258C129.468 28.2314 128.325 28.4242 127.037 28.4242ZM123.37 16.4237C123.073 16.9765 122.909 17.5824 122.872 18.232H130.657C130.65 17.4808 130.491 16.8159 130.172 16.2308C129.853 15.6391 129.415 15.1737 128.844 14.8347C128.286 14.4956 127.628 14.3294 126.884 14.3294C126.087 14.3294 125.383 14.5222 124.785 14.9144C124.18 15.2934 123.709 15.7987 123.37 16.4237Z" fill="white"/>
</svg>
