<svg width="152" height="36" viewBox="0 0 152 36" fill="none" xmlns="http://www.w3.org/2000/svg">
<path fill-rule="evenodd" clip-rule="evenodd" d="M2.23343 1.27832C0.995861 1.27832 -0.0078125 2.21575 -0.0078125 3.37163V10.3429C-0.0078125 11.4987 0.995861 12.4362 2.23343 12.4362H14.9259V23.5912H2.23343C0.995861 23.5912 -0.0078125 24.5287 -0.0078125 25.6845V32.6558C-0.0078125 33.8116 0.995861 34.7491 2.23343 34.7491H12.6847C13.9222 34.7491 14.9259 33.8116 14.9259 32.6558V23.5968H27.6184C28.8559 23.5968 29.8596 22.6593 29.8596 21.5035V14.5295C29.8596 13.3736 28.8559 12.4362 27.6184 12.4362H14.9289V3.37163C14.9289 2.21575 13.9252 1.27832 12.6876 1.27832H2.23343ZM143.423 6.28155C143.423 5.94142 143.121 5.67872 142.734 5.67872H139.891C139.503 5.67872 139.201 5.96078 139.201 6.28155V10.1446H134.784C134.396 10.1446 134.094 10.4267 134.094 10.7475V12.7384C134.094 13.0786 134.396 13.3413 134.784 13.3413H139.201V19.2589C139.201 23.7857 141.484 25.879 146.399 25.879H150.405C150.793 25.879 151.094 25.5969 151.094 25.2761V23.2852C151.094 22.945 150.793 22.6823 150.405 22.6823H147.044C144.371 22.6823 143.423 21.6951 143.423 19.2396V13.3634H150.899C151.287 13.3413 151.589 13.0592 151.589 12.7384V10.7475C151.589 10.4073 151.287 10.1446 150.899 10.1446H143.423V6.28155ZM129.632 10.7502C129.632 10.4101 129.33 10.1474 128.943 10.1474V10.1502H120.259C119.871 10.1502 119.569 10.4322 119.569 10.753V12.744C119.569 13.0841 119.871 13.3468 120.259 13.3468H125.408V22.6851H120.259C119.871 22.6851 119.569 22.9671 119.569 23.2879V25.2789C119.569 25.619 119.871 25.8817 120.259 25.8817H134.911C135.299 25.8817 135.601 25.5997 135.601 25.2789V23.2879C135.601 22.9478 135.299 22.6851 134.911 22.6851H129.632V10.7502ZM129.804 4.67217C129.783 4.33204 129.481 4.06934 129.114 4.06934H125.236C124.848 4.06934 124.546 4.3514 124.546 4.67217V7.22727C124.546 7.56739 124.848 7.8301 125.236 7.8301H129.114C129.502 7.8301 129.804 7.54804 129.804 7.22727V4.67217ZM111.919 22.6851H116.315C116.703 22.6851 117.005 22.945 117.005 23.2879V25.2789C117.005 25.5997 116.703 25.8817 116.315 25.8817H101.986C101.598 25.8817 101.296 25.6218 101.296 25.2789V23.2879C101.296 22.9671 101.598 22.6851 101.986 22.6851H107.697V7.26875H102.61C102.222 7.26875 101.92 7.00881 101.92 6.66592V4.67217C101.92 4.3514 102.222 4.06934 102.61 4.06934H111.229C111.617 4.06934 111.919 4.32927 111.919 4.67217V22.6851ZM89.5743 10.8691C90.3915 10.1446 91.4485 9.84321 92.914 9.84321C97.204 9.84321 99.7029 12.5421 99.7206 18.0339C99.7206 23.5285 97.2011 26.2246 93.0206 26.2246C91.5787 26.2246 90.6076 25.8817 89.8112 25.1987L88.7986 24.2945L87.8512 24.4963L88.2183 26.8911V31.3597C88.2183 31.6805 87.9164 31.9626 87.5285 31.9626H84.6833C84.2954 31.9626 83.9934 31.7026 83.9934 31.3597V10.7502C83.9934 10.4294 84.2954 10.1474 84.6833 10.1474H86.6225C86.9482 10.1474 87.2058 10.3465 87.2916 10.6092L87.6351 11.7761H88.5618L89.5743 10.8691ZM88.1947 19.9475C88.1947 21.8998 89.3789 22.9257 91.5136 22.9257C94.122 22.9257 95.2855 21.3965 95.3062 17.998C95.3062 14.6354 94.122 13.1062 91.5136 13.1062C89.3582 13.1062 88.1947 14.1321 88.1947 16.0844V19.9475ZM63.6091 18.0146C63.6091 12.5393 66.5195 9.84321 71.9494 9.84321C77.5303 9.84321 80.2245 12.5615 79.5761 18.6202H67.7896C67.9613 21.861 69.2551 23.2492 71.9701 23.2492C73.7169 23.2492 75.0077 22.6851 75.4607 21.4988C75.5673 21.2555 75.8249 21.0951 76.1062 21.0951H78.6908C79.1231 21.0951 79.4665 21.4573 79.36 21.8389C78.6494 24.5959 75.9759 26.2053 71.8398 26.2053C66.4958 26.2053 63.6091 23.5091 63.6091 18.0146ZM71.9286 12.6831C69.6015 12.6831 68.3284 13.7892 67.9199 16.1646H75.6354C75.5703 13.9109 74.4067 12.6831 71.9286 12.6831ZM54.2355 11.7568L55.2067 10.8498C56.0475 10.1253 57.3176 9.84321 58.9312 9.86533H61.128C61.5159 9.86533 61.8179 10.1253 61.8179 10.4682V12.661C61.8179 12.9818 61.5159 13.2638 61.128 13.2638H57.4213C55.1386 13.2638 53.975 14.2289 53.975 16.0816V22.6823H58.9105C59.2983 22.6823 59.6003 22.9423 59.6003 23.2852V25.2761C59.6003 25.5969 59.2983 25.879 58.9105 25.879H45.4867C45.0989 25.879 44.7969 25.619 44.7969 25.2761V23.2852C44.7969 22.9644 45.0989 22.6823 45.4867 22.6823H49.7531V13.344H46.0907C45.7028 13.344 45.4009 13.0841 45.4009 12.7412V10.7502C45.4009 10.4294 45.7028 10.1474 46.0907 10.1474H52.2963C52.622 10.1474 52.9003 10.3271 52.9654 10.6092L53.2674 11.7568H54.2355Z" fill="white"/>
</svg>
