<svg width="74" height="74" viewBox="0 0 74 74" fill="none" xmlns="http://www.w3.org/2000/svg">
<g filter="url(#filter0_i_25310_13733)">
<rect x="1" y="1" width="72" height="72" rx="18" fill="url(#paint0_radial_25310_13733)"/>
</g>
<mask id="mask0_25310_13733" style="mask-type:alpha" maskUnits="userSpaceOnUse" x="1" y="1" width="72" height="72">
<rect x="1.5" y="1.5" width="71" height="71" rx="17.5" stroke="white"/>
</mask>
<g mask="url(#mask0_25310_13733)">
<g opacity="0.3" filter="url(#filter1_f_25310_13733)">
<circle cx="37" cy="37" r="40" fill="#00E599"/>
</g>
</g>
<g filter="url(#filter2_f_25310_13733)">
<circle cx="37.0008" cy="37" r="16.2" fill="#00E599" fill-opacity="0.3"/>
</g>
<g filter="url(#filter3_d_25310_13733)">
<path fill-rule="evenodd" clip-rule="evenodd" d="M21.4164 25.9164C22.9635 24.3692 25.062 23.5 27.25 23.5C29.4372 23.5026 31.5342 24.3726 33.0808 25.9192C34.6274 27.4658 35.4974 29.5628 35.5 31.75C35.5 40.3232 30.901 46.9592 27.0437 51.0168C26.9737 51.0905 26.8893 51.1492 26.7958 51.1893C26.7024 51.2294 26.6017 51.25 26.5 51.25H25C24.8661 51.25 24.7347 51.2142 24.6193 51.1462C24.504 51.0783 24.4089 50.9807 24.344 50.8636C24.2791 50.7465 24.2467 50.6141 24.2503 50.4803C24.2538 50.3465 24.293 50.216 24.364 50.1025C26.3168 47.0404 27.5445 43.5727 27.9535 39.964C27.721 39.9842 27.4877 40 27.25 40C25.062 40 22.9635 39.1308 21.4164 37.5836C19.8692 36.0365 19 33.938 19 31.75C19 29.562 19.8692 27.4635 21.4164 25.9164ZM40.9164 25.9164C42.4635 24.3692 44.562 23.5 46.75 23.5C48.9372 23.5026 51.0342 24.3726 52.5808 25.9192C54.1274 27.4658 54.9974 29.5628 55 31.75C55 40.3232 50.401 46.9592 46.5437 51.0168C46.4737 51.0905 46.3893 51.1492 46.2958 51.1893C46.2024 51.2294 46.1017 51.25 46 51.25H44.5C44.3661 51.25 44.2347 51.2142 44.1193 51.1462C44.004 51.0783 43.9089 50.9807 43.844 50.8636C43.7791 50.7465 43.7467 50.6141 43.7503 50.4803C43.7538 50.3465 43.793 50.216 43.864 50.1025C45.8168 47.0404 47.0445 43.5727 47.4535 39.964C47.221 39.9842 46.9877 40 46.75 40C44.562 40 42.4635 39.1308 40.9164 37.5836C39.3692 36.0365 38.5 33.938 38.5 31.75C38.5 29.562 39.3692 27.4635 40.9164 25.9164Z" fill="#00E599"/>
<path fill-rule="evenodd" clip-rule="evenodd" d="M21.4164 25.9164C22.9635 24.3692 25.062 23.5 27.25 23.5C29.4372 23.5026 31.5342 24.3726 33.0808 25.9192C34.6274 27.4658 35.4974 29.5628 35.5 31.75C35.5 40.3232 30.901 46.9592 27.0437 51.0168C26.9737 51.0905 26.8893 51.1492 26.7958 51.1893C26.7024 51.2294 26.6017 51.25 26.5 51.25H25C24.8661 51.25 24.7347 51.2142 24.6193 51.1462C24.504 51.0783 24.4089 50.9807 24.344 50.8636C24.2791 50.7465 24.2467 50.6141 24.2503 50.4803C24.2538 50.3465 24.293 50.216 24.364 50.1025C26.3168 47.0404 27.5445 43.5727 27.9535 39.964C27.721 39.9842 27.4877 40 27.25 40C25.062 40 22.9635 39.1308 21.4164 37.5836C19.8692 36.0365 19 33.938 19 31.75C19 29.562 19.8692 27.4635 21.4164 25.9164ZM40.9164 25.9164C42.4635 24.3692 44.562 23.5 46.75 23.5C48.9372 23.5026 51.0342 24.3726 52.5808 25.9192C54.1274 27.4658 54.9974 29.5628 55 31.75C55 40.3232 50.401 46.9592 46.5437 51.0168C46.4737 51.0905 46.3893 51.1492 46.2958 51.1893C46.2024 51.2294 46.1017 51.25 46 51.25H44.5C44.3661 51.25 44.2347 51.2142 44.1193 51.1462C44.004 51.0783 43.9089 50.9807 43.844 50.8636C43.7791 50.7465 43.7467 50.6141 43.7503 50.4803C43.7538 50.3465 43.793 50.216 43.864 50.1025C45.8168 47.0404 47.0445 43.5727 47.4535 39.964C47.221 39.9842 46.9877 40 46.75 40C44.562 40 42.4635 39.1308 40.9164 37.5836C39.3692 36.0365 38.5 33.938 38.5 31.75C38.5 29.562 39.3692 27.4635 40.9164 25.9164Z" fill="url(#paint1_radial_25310_13733)"/>
</g>
<defs>
<filter id="filter0_i_25310_13733" x="-3" y="-3" width="76" height="76" filterUnits="userSpaceOnUse" color-interpolation-filters="sRGB">
<feFlood flood-opacity="0" result="BackgroundImageFix"/>
<feBlend mode="normal" in="SourceGraphic" in2="BackgroundImageFix" result="shape"/>
<feColorMatrix in="SourceAlpha" type="matrix" values="0 0 0 0 0 0 0 0 0 0 0 0 0 0 0 0 0 0 127 0" result="hardAlpha"/>
<feOffset dx="-4" dy="-4"/>
<feGaussianBlur stdDeviation="5"/>
<feComposite in2="hardAlpha" operator="arithmetic" k2="-1" k3="1"/>
<feColorMatrix type="matrix" values="0 0 0 0 0 0 0 0 0 0 0 0 0 0 0 0 0 0 0.08 0"/>
<feBlend mode="normal" in2="shape" result="effect1_innerShadow_25310_13733"/>
</filter>
<filter id="filter1_f_25310_13733" x="-17" y="-17" width="108" height="108" filterUnits="userSpaceOnUse" color-interpolation-filters="sRGB">
<feFlood flood-opacity="0" result="BackgroundImageFix"/>
<feBlend mode="normal" in="SourceGraphic" in2="BackgroundImageFix" result="shape"/>
<feGaussianBlur stdDeviation="7" result="effect1_foregroundBlur_25310_13733"/>
</filter>
<filter id="filter2_f_25310_13733" x="0.800781" y="0.800049" width="72.3984" height="72.4" filterUnits="userSpaceOnUse" color-interpolation-filters="sRGB">
<feFlood flood-opacity="0" result="BackgroundImageFix"/>
<feBlend mode="normal" in="SourceGraphic" in2="BackgroundImageFix" result="shape"/>
<feGaussianBlur stdDeviation="10" result="effect1_foregroundBlur_25310_13733"/>
</filter>
<filter id="filter3_d_25310_13733" x="13" y="21.5" width="48" height="39.75" filterUnits="userSpaceOnUse" color-interpolation-filters="sRGB">
<feFlood flood-opacity="0" result="BackgroundImageFix"/>
<feColorMatrix in="SourceAlpha" type="matrix" values="0 0 0 0 0 0 0 0 0 0 0 0 0 0 0 0 0 0 127 0" result="hardAlpha"/>
<feOffset dy="4"/>
<feGaussianBlur stdDeviation="3"/>
<feComposite in2="hardAlpha" operator="out"/>
<feColorMatrix type="matrix" values="0 0 0 0 0.0475 0 0 0 0 0.0491667 0 0 0 0 0.0525 0 0 0 0.6 0"/>
<feBlend mode="normal" in2="BackgroundImageFix" result="effect1_dropShadow_25310_13733"/>
<feBlend mode="normal" in="SourceGraphic" in2="effect1_dropShadow_25310_13733" result="shape"/>
</filter>
<radialGradient id="paint0_radial_25310_13733" cx="0" cy="0" r="1" gradientUnits="userSpaceOnUse" gradientTransform="translate(37 1) rotate(90) scale(72)">
<stop offset="0.549694" stop-color="#18191B"/>
<stop offset="1" stop-color="#131415"/>
</radialGradient>
<radialGradient id="paint1_radial_25310_13733" cx="0" cy="0" r="1" gradientUnits="userSpaceOnUse" gradientTransform="translate(37 23.5) rotate(90) scale(27.75 36)">
<stop stop-color="white" stop-opacity="0.6"/>
<stop offset="0.746322" stop-color="white" stop-opacity="0"/>
</radialGradient>
</defs>
</svg>
