<svg width="225" height="218" viewBox="0 0 225 218" fill="none" xmlns="http://www.w3.org/2000/svg">
<path d="M52.326 1.27273L54.576 4.90341H54.6442L56.8942 1.27273L58.1385 1.27273L55.3942 5.63636L58.1385 10L56.8942 10L54.6442 6.4375H54.576L52.326 10H51.0817L53.8942 5.63636L51.0817 1.27273H52.326ZM62.4627 0.863636L59.6502 11.3125H58.7298L61.5423 0.863636H62.4627ZM63.6378 10V9.23295L66.5185 6.07955C66.8565 5.71023 67.1349 5.3892 67.3537 5.11648C67.5724 4.84091 67.7344 4.58239 67.8395 4.34091C67.9474 4.09659 68.0014 3.84091 68.0014 3.57386C68.0014 3.26705 67.9276 3.00142 67.7798 2.77699C67.6349 2.55256 67.4361 2.37926 67.1832 2.2571C66.9304 2.13494 66.6463 2.07386 66.331 2.07386C65.9957 2.07386 65.7031 2.14347 65.4531 2.28267C65.206 2.41903 65.0142 2.6108 64.8778 2.85795C64.7443 3.10511 64.6776 3.39489 64.6776 3.72727L63.6719 3.72727C63.6719 3.21591 63.7898 2.76705 64.0256 2.38068C64.2614 1.99432 64.5824 1.69318 64.9886 1.47727C65.3977 1.26136 65.8565 1.15341 66.3651 1.15341C66.8764 1.15341 67.3295 1.26136 67.7244 1.47727C68.1193 1.69318 68.429 1.98437 68.6534 2.35085C68.8778 2.71733 68.9901 3.125 68.9901 3.57386C68.9901 3.89489 68.9318 4.20881 68.8153 4.51563C68.7017 4.8196 68.5028 5.15909 68.2188 5.53409C67.9375 5.90625 67.5469 6.3608 67.0469 6.89773L65.0866 8.99432V9.0625H69.1435V10H63.6378Z" fill="#61646B"/>
<path d="M2.32599 46.2727L4.57599 49.9034H4.64418L6.89418 46.2727H8.13849L5.39418 50.6364L8.13849 55H6.89418L4.64418 51.4375H4.57599L2.32599 55H1.08168L3.89418 50.6364L1.08168 46.2727H2.32599ZM12.4627 45.8636L9.65021 56.3125H8.72976L11.5423 45.8636H12.4627ZM13.6378 55V54.233L16.5185 51.0795C16.8565 50.7102 17.1349 50.3892 17.3537 50.1165C17.5724 49.8409 17.7344 49.5824 17.8395 49.3409C17.9474 49.0966 18.0014 48.8409 18.0014 48.5739C18.0014 48.267 17.9276 48.0014 17.7798 47.777C17.6349 47.5526 17.4361 47.3793 17.1832 47.2571C16.9304 47.1349 16.6463 47.0739 16.331 47.0739C15.9957 47.0739 15.7031 47.1435 15.4531 47.2827C15.206 47.419 15.0142 47.6108 14.8778 47.858C14.7443 48.1051 14.6776 48.3949 14.6776 48.7273H13.6719C13.6719 48.2159 13.7898 47.767 14.0256 47.3807C14.2614 46.9943 14.5824 46.6932 14.9886 46.4773C15.3977 46.2614 15.8565 46.1534 16.3651 46.1534C16.8764 46.1534 17.3295 46.2614 17.7244 46.4773C18.1193 46.6932 18.429 46.9844 18.6534 47.3509C18.8778 47.7173 18.9901 48.125 18.9901 48.5739C18.9901 48.8949 18.9318 49.2088 18.8153 49.5156C18.7017 49.8196 18.5028 50.1591 18.2188 50.5341C17.9375 50.9062 17.5469 51.3608 17.0469 51.8977L15.0866 53.9943V54.0625H19.1435V55H13.6378Z" fill="#61646B"/>
<path d="M2.32599 189.273L4.57599 192.903H4.64418L6.89418 189.273H8.13849L5.39418 193.636L8.13849 198H6.89418L4.64418 194.438H4.57599L2.32599 198H1.08168L3.89418 193.636L1.08168 189.273H2.32599ZM12.4627 188.864L9.65021 199.312H8.72976L11.5423 188.864H12.4627ZM13.6378 198V197.233L16.5185 194.08C16.8565 193.71 17.1349 193.389 17.3537 193.116C17.5724 192.841 17.7344 192.582 17.8395 192.341C17.9474 192.097 18.0014 191.841 18.0014 191.574C18.0014 191.267 17.9276 191.001 17.7798 190.777C17.6349 190.553 17.4361 190.379 17.1832 190.257C16.9304 190.135 16.6463 190.074 16.331 190.074C15.9957 190.074 15.7031 190.143 15.4531 190.283C15.206 190.419 15.0142 190.611 14.8778 190.858C14.7443 191.105 14.6776 191.395 14.6776 191.727H13.6719C13.6719 191.216 13.7898 190.767 14.0256 190.381C14.2614 189.994 14.5824 189.693 14.9886 189.477C15.3977 189.261 15.8565 189.153 16.3651 189.153C16.8764 189.153 17.3295 189.261 17.7244 189.477C18.1193 189.693 18.429 189.984 18.6534 190.351C18.8778 190.717 18.9901 191.125 18.9901 191.574C18.9901 191.895 18.9318 192.209 18.8153 192.516C18.7017 192.82 18.5028 193.159 18.2188 193.534C17.9375 193.906 17.5469 194.361 17.0469 194.898L15.0866 196.994V197.062H19.1435V198H13.6378Z" fill="#61646B"/>
<path d="M13.869 118.273L16.119 121.903H16.1871L18.4371 118.273H19.6815L16.9371 122.636L19.6815 127H18.4371L16.1871 123.438H16.119L13.869 127H12.6246L15.4371 122.636L12.6246 118.273H13.869Z" fill="#61646B"/>
<path fill-rule="evenodd" clip-rule="evenodd" d="M83 91.3793C83 82.3333 90.3333 75 99.3793 75H161.621C170.667 75 178 82.3333 178 91.3793V144.315C178 153.674 166.157 157.736 160.413 150.347L142.457 127.248V155.259C142.457 163.4 135.857 170 127.716 170H99.3793C90.3333 170 83 162.667 83 153.621V91.3793ZM99.3793 88.1034C97.5701 88.1034 96.1034 89.5701 96.1034 91.3793V153.621C96.1034 155.43 97.5701 156.897 99.3793 156.897H128.207C129.111 156.897 129.353 156.163 129.353 155.259V117.696C129.353 108.338 141.196 104.276 146.94 111.665L164.897 134.764V91.3793C164.897 89.5701 165.068 88.1034 163.259 88.1034H99.3793Z" fill="#12FFF7"/>
<path fill-rule="evenodd" clip-rule="evenodd" d="M83 91.3793C83 82.3333 90.3333 75 99.3793 75H161.621C170.667 75 178 82.3333 178 91.3793V144.315C178 153.674 166.157 157.736 160.413 150.347L142.457 127.248V155.259C142.457 163.4 135.857 170 127.716 170H99.3793C90.3333 170 83 162.667 83 153.621V91.3793ZM99.3793 88.1034C97.5701 88.1034 96.1034 89.5701 96.1034 91.3793V153.621C96.1034 155.43 97.5701 156.897 99.3793 156.897H128.207C129.111 156.897 129.353 156.163 129.353 155.259V117.696C129.353 108.338 141.196 104.276 146.94 111.665L164.897 134.764V91.3793C164.897 89.5701 165.068 88.1034 163.259 88.1034H99.3793Z" fill="url(#paint0_linear_10558_12021)"/>
<path fill-rule="evenodd" clip-rule="evenodd" d="M83 91.3793C83 82.3333 90.3333 75 99.3793 75H161.621C170.667 75 178 82.3333 178 91.3793V144.315C178 153.674 166.157 157.736 160.413 150.347L142.457 127.248V155.259C142.457 163.4 135.857 170 127.716 170H99.3793C90.3333 170 83 162.667 83 153.621V91.3793ZM99.3793 88.1034C97.5701 88.1034 96.1034 89.5701 96.1034 91.3793V153.621C96.1034 155.43 97.5701 156.897 99.3793 156.897H128.207C129.111 156.897 129.353 156.163 129.353 155.259V117.696C129.353 108.338 141.196 104.276 146.94 111.665L164.897 134.764V91.3793C164.897 89.5701 165.068 88.1034 163.259 88.1034H99.3793Z" fill="url(#paint1_linear_10558_12021)"/>
<path d="M161.62 75C170.666 75 177.999 82.3333 177.999 91.3793V144.315C177.999 153.674 166.157 157.736 160.413 150.347L142.456 127.248V155.259C142.456 163.4 135.856 170 127.715 170C128.619 170 129.353 169.267 129.353 168.362V117.696C129.353 108.338 141.196 104.276 146.939 111.665L164.896 134.764V78.2759C164.896 76.4667 163.429 75 161.62 75Z" fill="#B9FFB3"/>
<rect opacity="0.2" x="36" y="28" width="47" height="189" fill="#242628"/>
<rect opacity="0.2" x="178" y="28" width="47" height="189" fill="#242628"/>
<rect opacity="0.2" x="225" y="28" width="47" height="189" transform="rotate(90 225 28)" fill="#242628"/>
<rect opacity="0.2" x="225" y="170" width="47" height="189" transform="rotate(90 225 170)" fill="#242628"/>
<path opacity="0.7" d="M26.2828 27.7172C26.1266 27.5609 25.8734 27.5609 25.7172 27.7172L23.1716 30.2627C23.0154 30.419 23.0154 30.6722 23.1716 30.8284C23.3278 30.9846 23.581 30.9846 23.7373 30.8284L26 28.5657L28.2627 30.8284C28.419 30.9846 28.6722 30.9846 28.8284 30.8284C28.9846 30.6722 28.9846 30.419 28.8284 30.2627L26.2828 27.7172ZM25.7172 74.2828C25.8734 74.4391 26.1266 74.4391 26.2828 74.2828L28.8284 71.7373C28.9846 71.581 28.9846 71.3278 28.8284 71.1716C28.6722 71.0154 28.419 71.0154 28.2627 71.1716L26 73.4343L23.7373 71.1716C23.5811 71.0154 23.3278 71.0154 23.1716 71.1716C23.0154 71.3278 23.0154 71.581 23.1716 71.7373L25.7172 74.2828ZM25.6 28L25.6 74L26.4 74L26.4 28L25.6 28Z" fill="#494B50"/>
<path opacity="0.7" d="M26.2828 170.717C26.1266 170.561 25.8734 170.561 25.7172 170.717L23.1716 173.263C23.0154 173.419 23.0154 173.672 23.1716 173.828C23.3278 173.985 23.581 173.985 23.7373 173.828L26 171.566L28.2627 173.828C28.419 173.985 28.6722 173.985 28.8284 173.828C28.9846 173.672 28.9846 173.419 28.8284 173.263L26.2828 170.717ZM25.7172 217.283C25.8734 217.439 26.1266 217.439 26.2828 217.283L28.8284 214.737C28.9846 214.581 28.9846 214.328 28.8284 214.172C28.6722 214.015 28.419 214.015 28.2627 214.172L26 216.434L23.7373 214.172C23.5811 214.015 23.3278 214.015 23.1716 214.172C23.0154 214.328 23.0154 214.581 23.1716 214.737L25.7172 217.283ZM25.6 171L25.6 217L26.4 217L26.4 171L25.6 171Z" fill="#494B50"/>
<path opacity="0.7" d="M26.2828 74.7172C26.1266 74.5609 25.8734 74.5609 25.7172 74.7172L23.1716 77.2627C23.0154 77.419 23.0154 77.6722 23.1716 77.8284C23.3278 77.9846 23.581 77.9846 23.7373 77.8284L26 75.5657L28.2627 77.8284C28.419 77.9846 28.6722 77.9846 28.8284 77.8284C28.9846 77.6722 28.9846 77.419 28.8284 77.2627L26.2828 74.7172ZM25.7172 170.283C25.8734 170.439 26.1266 170.439 26.2828 170.283L28.8284 167.737C28.9846 167.581 28.9846 167.328 28.8284 167.172C28.6722 167.015 28.419 167.015 28.2627 167.172L26 169.434L23.7373 167.172C23.5811 167.015 23.3278 167.015 23.1716 167.172C23.0154 167.328 23.0154 167.581 23.1716 167.737L25.7172 170.283ZM25.6 75L25.6 170L26.4 170L26.4 75L25.6 75Z" fill="#494B50"/>
<path opacity="0.7" d="M83.2828 18.2828C83.4391 18.1266 83.4391 17.8734 83.2828 17.7172L80.7373 15.1716C80.581 15.0154 80.3278 15.0154 80.1716 15.1716C80.0154 15.3278 80.0154 15.581 80.1716 15.7373L82.4343 18L80.1716 20.2627C80.0154 20.419 80.0154 20.6722 80.1716 20.8284C80.3278 20.9846 80.581 20.9846 80.7373 20.8284L83.2828 18.2828ZM35.7172 17.7172C35.5609 17.8734 35.5609 18.1266 35.7172 18.2828L38.2627 20.8284C38.419 20.9846 38.6722 20.9846 38.8284 20.8284C38.9846 20.6722 38.9846 20.4189 38.8284 20.2627L36.5657 18L38.8284 15.7373C38.9846 15.581 38.9846 15.3278 38.8284 15.1716C38.6722 15.0154 38.419 15.0154 38.2627 15.1716L35.7172 17.7172ZM83 17.6L36 17.6L36 18.4L83 18.4L83 17.6Z" fill="#494B50"/>
<defs>
<linearGradient id="paint0_linear_10558_12021" x1="178" y1="170" x2="94.4656" y2="75" gradientUnits="userSpaceOnUse">
<stop stop-color="#B9FFB3"/>
<stop offset="1" stop-color="#B9FFB3" stop-opacity="0"/>
</linearGradient>
<linearGradient id="paint1_linear_10558_12021" x1="178" y1="170" x2="121.573" y2="148.052" gradientUnits="userSpaceOnUse">
<stop stop-color="#1A1A1A" stop-opacity="0.9"/>
<stop offset="1" stop-color="#1A1A1A" stop-opacity="0"/>
</linearGradient>
</defs>
</svg>
