<svg width="20" height="20" viewBox="0 0 20 20" fill="none" xmlns="http://www.w3.org/2000/svg">
<mask id="mask0_16547_6871" style="mask-type:luminance" maskUnits="userSpaceOnUse" x="2" y="2" width="16" height="16">
<path d="M2 2H18V18H2V2Z" fill="white"/>
</mask>
<g mask="url(#mask0_16547_6871)">
<path d="M13.0625 5.75H16.5625M9.5625 4H13.0625V7.5H9.5625C9.09837 7.5 8.65325 7.31563 8.32506 6.98744C7.99687 6.65925 7.8125 6.21413 7.8125 5.75C7.8125 5.28587 7.99687 4.84075 8.32506 4.51256C8.65325 4.18437 9.09837 4 9.5625 4Z" stroke="currentColor" stroke-width="1.5" stroke-linecap="round" stroke-linejoin="round"/>
<path d="M6.9375 16.25H13.9375C14.6337 16.25 15.3014 15.9734 15.7937 15.4812C16.2859 14.9889 16.5625 14.3212 16.5625 13.625C16.5625 12.9288 16.2859 12.2611 15.7937 11.7688C15.3014 11.2766 14.6337 11 13.9375 11H6.0625C5.36631 11 4.69863 10.7234 4.20634 10.2312C3.71406 9.73887 3.4375 9.07119 3.4375 8.375C3.4375 7.67881 3.71406 7.01113 4.20634 6.51884C4.69863 6.02656 5.36631 5.75 6.0625 5.75" stroke="currentColor" stroke-width="1.5" stroke-linecap="round" stroke-linejoin="round"/>
</g>
</svg>
