<svg xmlns="http://www.w3.org/2000/svg" width="28" height="28" viewBox="0 0 28 28" fill="none"><path fill="#fff" d="M16.962 2.555 11.456 8.06a5.993 5.993 0 0 0 2.054 9.826l.492-.492c.433-.435.68-1.022.688-1.637a3.601 3.601 0 0 1-1.537-6l5.506-5.505a3.6 3.6 0 0 1 5.091 5.09l-4.5 4.5a7.243 7.243 0 0 1 .12 3.202c.202-.154.394-.32.575-.499l5.506-5.505a6.002 6.002 0 0 0-8.489-8.485Z"/><path fill="#fff" d="m11.04 25.445 5.507-5.505a5.994 5.994 0 0 0-2.054-9.826l-.492.492a2.365 2.365 0 0 0-.689 1.637 3.6 3.6 0 0 1 1.537 6l-5.506 5.505a3.6 3.6 0 0 1-5.091-5.09l4.5-4.5a7.241 7.241 0 0 1-.12-3.202c-.202.154-.394.32-.575.499L2.555 16.96a6 6 0 0 0 8.485 8.485Z"/></svg>
