<svg viewBox="240.9868 241 18.0263 18" xmlns="http://www.w3.org/2000/svg">
  <path fill="currentColor" fill-rule="evenodd" d="M 242.206 254.5 C 238.742 248.5 243.072 241 250 241 C 253.215 241 256.186 242.715 257.794 245.5 C 261.258 251.5 256.928 259 250 259 C 246.784 259 243.813 257.285 242.206 254.5 Z M 246.638 247.648 L 248.99 250 L 246.638 252.352 C 246.365 252.625 246.365 253.068 246.638 253.342 L 246.658 253.362 C 246.932 253.635 247.375 253.635 247.648 253.362 L 250 251.01 L 252.352 253.362 C 252.626 253.635 253.068 253.635 253.342 253.362 L 253.362 253.342 C 253.635 253.068 253.635 252.625 253.362 252.352 L 251.01 250 L 253.362 247.648 C 253.635 247.375 253.635 246.932 253.362 246.658 L 253.342 246.638 C 253.068 246.365 252.626 246.365 252.352 246.638 L 250 248.99 L 247.648 246.638 C 247.375 246.365 246.932 246.365 246.658 246.638 L 246.638 246.658 C 246.365 246.932 246.365 247.375 246.638 247.648 Z" clip-rule="evenodd" transform="matrix(0.9999999999999999, 0, 0, 0.9999999999999999, 2.842170943040401e-14, 2.842170943040401e-14)"/>
</svg>