<svg width="20" height="10" viewBox="0 0 20 10" fill="none" xmlns="http://www.w3.org/2000/svg">
<g clip-path="url(#clip0_11303_11797)">
<path d="M6.70999 3.84766H3.67969V6.85842H6.70999V3.84766Z" stroke="currentColor" stroke-miterlimit="10" stroke-linecap="square"/>
<path d="M1.40625 2.71888C1.40625 2.09791 1.91761 1.58984 2.54261 1.58984C3.16761 1.58984 3.67898 2.09791 3.67898 2.71888C3.67898 3.00114 3.67898 3.84791 3.67898 3.84791C3.67898 3.84791 2.88352 3.84791 2.54261 3.84791C1.91761 3.84791 1.40625 3.33985 1.40625 2.71888Z" stroke="currentColor" stroke-miterlimit="10" stroke-linecap="square"/>
<path d="M8.97585 2.71888C8.97585 2.09791 8.46449 1.58984 7.83949 1.58984C7.21449 1.58984 6.70312 2.09791 6.70312 2.71888C6.70312 3.00114 6.70312 3.84791 6.70312 3.84791C6.70312 3.84791 7.49858 3.84791 7.83949 3.84791C8.46449 3.84791 8.97585 3.33985 8.97585 2.71888Z" stroke="currentColor" stroke-miterlimit="10" stroke-linecap="square"/>
<path d="M8.97585 7.98841C8.97585 8.60938 8.46449 9.11745 7.83949 9.11745C7.21449 9.11745 6.70312 8.60938 6.70312 7.98841C6.70312 7.70615 6.70312 6.85938 6.70312 6.85938C6.70312 6.85938 7.49858 6.85938 7.83949 6.85938C8.46449 6.85938 8.97585 7.36744 8.97585 7.98841Z" stroke="currentColor" stroke-miterlimit="10" stroke-linecap="square"/>
<path d="M1.40625 7.98841C1.40625 8.60938 1.91761 9.11745 2.54261 9.11745C3.16761 9.11745 3.67898 8.60938 3.67898 7.98841C3.67898 7.70615 3.67898 6.85938 3.67898 6.85938C3.67898 6.85938 2.88352 6.85938 2.54261 6.85938C1.91761 6.85938 1.40625 7.36744 1.40625 7.98841Z" stroke="currentColor" stroke-miterlimit="10" stroke-linecap="square"/>
</g>
<path d="M13.6406 8.69928V1.04297H14.704V4.69916H14.79L17.7462 1.04297H19.0848L16.2423 4.4898L19.0952 8.69928H17.815L15.5368 5.27861L14.704 6.3179V8.69928H13.6406Z" fill="currentColor"/>
<defs>
<clipPath id="clip0_11303_11797">
<rect width="9.09091" height="9.03228" fill="white" transform="translate(0.453125 0.640625)"/>
</clipPath>
</defs>
</svg>
