<svg width="24" height="24" viewBox="0 0 24 24" fill="none" xmlns="http://www.w3.org/2000/svg">
  <path
    d="M12.1048 0C5.89677 0 0.666016 5.13021 0.666016 11.4635C0.666016 11.6667 0.671079 23.3333 0.671079 23.3333L12.1048 23.3229C18.3179 23.3229 23.3512 17.9948 23.3512 11.6615C23.3512 5.32812 18.3179 0 12.1048 0ZM12.0086 18.3333C11.0263 18.3333 10.0895 18.1094 9.25398 17.7031L5.14735 18.75L6.30693 14.8438C5.81069 13.901 5.52713 12.8177 5.52713 11.6667C5.52713 7.98438 8.4286 5 12.0086 5C15.5886 5 18.4901 7.98438 18.4901 11.6667C18.4901 15.349 15.5886 18.3333 12.0086 18.3333Z"
    fill="currentColor"
  />
</svg>
