<svg width="18" height="16" viewBox="0 0 18 16" fill="none" xmlns="http://www.w3.org/2000/svg">
<path d="M15.2352 2.1319C14.0705 1.60736 12.8299 1.22086 11.5231 1C11.3621 1.27607 11.1727 1.65337 11.0496 1.95705C9.66704 1.7546 8.29393 1.7546 6.93976 1.95705C6.80719 1.65337 6.61779 1.27607 6.45681 1C5.14998 1.22086 3.90945 1.60736 2.74467 2.1319C0.396175 5.57361 -0.238298 8.93253 0.0742038 12.2362C1.63671 13.3681 3.1424 14.0491 4.62915 14.5C4.99847 14.0123 5.32044 13.4877 5.60453 12.9448C5.06475 12.7515 4.55339 12.5031 4.07043 12.2178C4.20301 12.1258 4.32612 12.0245 4.44922 11.9325C7.41324 13.2761 10.6235 13.2761 13.5496 11.9325C13.6727 12.0337 13.7958 12.1258 13.9284 12.2178C13.4455 12.5031 12.9246 12.7423 12.3943 12.9448C12.6784 13.4877 13.0004 14.0123 13.3697 14.5C14.8565 14.0491 16.3716 13.3681 17.9246 12.2362C18.294 8.39879 17.2902 5.07668 15.2542 2.1319H15.2352ZM6.00226 10.2117C5.1121 10.2117 4.38293 9.41105 4.38293 8.42639C4.38293 7.44173 5.09316 6.64112 6.00226 6.64112C6.91135 6.64112 7.63105 7.44173 7.62158 8.42639C7.62158 9.40185 6.91135 10.2117 6.00226 10.2117ZM11.9777 10.2117C11.0875 10.2117 10.3583 9.41105 10.3583 8.42639C10.3583 7.44173 11.0686 6.64112 11.9777 6.64112C12.8867 6.64112 13.6064 7.44173 13.597 8.42639C13.597 9.40185 12.8867 10.2117 11.9777 10.2117Z" fill="currentColor"/>
</svg>
