<svg xmlns="http://www.w3.org/2000/svg" width="208" height="56" fill="none"><g clip-path="url(#a)"><path fill="#000" d="M63.213 11.965a3.188 3.188 0 0 1 2.354.99c.641.635.996 1.505.98 2.407a3.262 3.262 0 0 1-.97 2.38 3.15 3.15 0 0 1-2.32.986 3.2 3.2 0 0 1-2.37-1.002 3.356 3.356 0 0 1-.98-2.434c0-1.83 1.481-3.316 3.312-3.322l-.006-.005Zm-2.606 11.334h5.213v21.733h-5.213V23.299Zm22.67 3.441-3.231 3.23C78.732 28.658 77.536 28 76.46 28a2.246 2.246 0 0 0-1.373.372 1.12 1.12 0 0 0-.496.926c.002.289.114.566.312.775.464.407.99.737 1.557.98l1.911.953c2.01.995 3.392 2.007 4.146 3.037a6.321 6.321 0 0 1-.904 8.25c-1.357 1.234-3.176 1.852-5.455 1.852a8.666 8.666 0 0 1-7.237-3.549l3.23-3.494a7.422 7.422 0 0 0 2.155 1.728 4.76 4.76 0 0 0 2.154.662 2.606 2.606 0 0 0 1.663-.495c.382-.26.616-.685.63-1.147 0-.804-.757-1.587-2.272-2.348l-1.755-.877c-3.36-1.695-5.04-3.814-5.04-6.36a5.518 5.518 0 0 1 1.9-4.21 6.899 6.899 0 0 1 4.847-1.75 8.432 8.432 0 0 1 6.838 3.435h.005Zm24.284 1.298-4.34 2.385a7.375 7.375 0 0 0-2.418-1.777 7.272 7.272 0 0 0-2.8-.495 6.526 6.526 0 0 0-4.733 1.744 5.923 5.923 0 0 0-1.809 4.47 5.745 5.745 0 0 0 1.74 4.307 6.305 6.305 0 0 0 4.57 1.713c2.334 0 4.151-.796 5.45-2.386l4.114 2.816c-2.229 2.897-5.374 4.346-9.434 4.346-3.654 0-6.515-1.077-8.583-3.231a10.796 10.796 0 0 1 2.613-17.16 12.574 12.574 0 0 1 6.068-1.47 12.248 12.248 0 0 1 5.557 1.232 10.55 10.55 0 0 1 4.006 3.506h-.001Zm12.842-4.739a11.014 11.014 0 0 1 5.53 1.47 10.77 10.77 0 0 1 5.493 9.434 10.903 10.903 0 0 1-1.46 5.498 10.54 10.54 0 0 1-3.968 4.006 11 11 0 0 1-5.557 1.443 10.365 10.365 0 0 1-7.63-3.182 10.554 10.554 0 0 1-3.161-7.727c-.027-5.988 4.783-10.872 10.77-10.942h-.017Zm.087 4.911a5.385 5.385 0 0 0-4.044 1.69 6 6 0 0 0-1.616 4.309 6.108 6.108 0 0 0 1.616 4.393 5.336 5.336 0 0 0 4.044 1.68 5.386 5.386 0 0 0 4.076-1.701 6.068 6.068 0 0 0 1.615-4.373 6.025 6.025 0 0 0-1.615-4.345 5.387 5.387 0 0 0-4.076-1.653Zm14.123-4.372h5.272v10.004a13.911 13.911 0 0 0 .398 4.06c.234.71.686 1.329 1.293 1.767a3.693 3.693 0 0 0 2.191.63 3.816 3.816 0 0 0 2.213-.62 3.642 3.642 0 0 0 1.352-1.825c.215-.6.323-1.88.323-3.84V23.839h5.212v8.803c0 3.63-.287 6.112-.861 7.448a8.134 8.134 0 0 1-3.096 3.769 9.484 9.484 0 0 1-5.197 1.308c-2.279 0-4.123-.51-5.53-1.53a8.085 8.085 0 0 1-2.967-4.258c-.402-1.271-.603-3.569-.603-6.893v-8.647Zm21.706 0h4.469v2.617a5.586 5.586 0 0 1 1.928-2.348 4.658 4.658 0 0 1 2.633-.802c.739.015 1.464.2 2.121.538l-1.615 4.49a3.583 3.583 0 0 0-1.508-.457c-.804 0-1.482.497-2.035 1.492-.553.994-.829 2.941-.829 5.842v9.407h-5.175l.011-20.78Zm25.911 2.902-3.231 3.23c-1.31-1.313-2.5-1.97-3.57-1.97a2.244 2.244 0 0 0-1.373.372 1.122 1.122 0 0 0-.496.926c.002.289.114.566.313.775.465.4.99.726 1.556.964l1.911.953c2.01.994 3.393 2.007 4.146 3.037a6.326 6.326 0 0 1-.904 8.25c-1.357 1.234-3.175 1.852-5.455 1.852a8.669 8.669 0 0 1-7.258-3.554l3.231-3.495a7.406 7.406 0 0 0 2.153 1.729 4.77 4.77 0 0 0 2.187.656 2.604 2.604 0 0 0 1.663-.495c.359-.263.575-.676.587-1.12 0-.804-.757-1.587-2.272-2.348l-1.755-.877c-3.36-1.695-5.04-3.814-5.04-6.36a5.517 5.517 0 0 1 1.9-4.21 6.905 6.905 0 0 1 4.847-1.75 8.433 8.433 0 0 1 6.838 3.435h.022Zm24.763 8.992h-16.746a5.574 5.574 0 0 0 1.939 3.522 6.086 6.086 0 0 0 4.022 1.308 6.947 6.947 0 0 0 5.024-2.04l4.394 2.062a10.372 10.372 0 0 1-3.936 3.446 12.304 12.304 0 0 1-5.444 1.115c-3.26 0-5.913-1.029-7.964-3.086a10.495 10.495 0 0 1-3.053-7.716 10.85 10.85 0 0 1 3.064-7.9 10.295 10.295 0 0 1 7.689-3.138c3.27 0 5.934 1.046 7.985 3.139 2.052 2.093 3.079 4.858 3.075 8.298l-.049.99Zm-5.212-4.108a5.229 5.229 0 0 0-2.014-2.822 5.922 5.922 0 0 0-3.527-1.077 6.24 6.24 0 0 0-3.828 1.223 6.806 6.806 0 0 0-1.912 2.692l11.281-.016ZM27.911 0C12.75 0-.018 12.293-.018 27.462v28.436l27.925-.027c15.164 0 27.462-12.767 27.462-27.93S43.058 0 27.912 0Z"/><path fill="#FFF9AE" d="M28.199 10.63a17.026 17.026 0 0 0-14.964 25.13l-3.08 9.907 11.06-2.498A17.02 17.02 0 0 0 43.998 21.3a17.012 17.012 0 0 0-15.782-10.672l-.017.001Z"/><path fill="#00AEEF" d="M41.51 38.182a17.013 17.013 0 0 1-20.295 4.958l-11.06 2.53 11.26-1.33c7.462 4.373 17.02 2.449 22.21-4.471 5.192-6.92 4.364-16.633-1.922-22.578a17.013 17.013 0 0 1-.195 20.887l.002.005Z"/><path fill="#00A94F" d="M40.557 34.952A17.017 17.017 0 0 1 20.892 42l-10.737 3.672 11.06-2.503c7.878 3.558 17.172.645 21.609-6.774 4.436-7.42 2.608-16.983-4.253-22.239a17.013 17.013 0 0 1 1.987 20.796h-.001Z"/><path fill="#F15D22" d="M14.253 36.136a17.021 17.021 0 0 1 27.462-18.848c-5.396-7.081-15.33-8.81-22.8-3.965-7.468 4.843-9.945 14.62-5.68 22.432l-3.08 9.908 4.098-9.527Z"/><path fill="#D0232B" d="M13.235 35.76a17.02 17.02 0 0 1 3.924-21.055 17.015 17.015 0 0 1 21.41-.548c-6.112-6.434-16.144-7.097-23.047-1.513-6.903 5.584-8.357 15.53-3.34 22.852l-2.024 10.177 3.077-9.914Z"/></g><defs><clipPath id="a"><path fill="#fff" d="M0 0h207.308v56H0z"/></clipPath></defs></svg>