<svg width="16" height="16" viewBox="0 0 16 16" fill="none" xmlns="http://www.w3.org/2000/svg">
<path d="M13.5424 3.00613C12.5071 2.53988 11.4044 2.19632 10.2428 2C10.0997 2.2454 9.93131 2.58078 9.82188 2.85071C8.59292 2.67076 7.37238 2.67076 6.16868 2.85071C6.05083 2.58078 5.88248 2.2454 5.73938 2C4.57776 2.19632 3.47506 2.53988 2.43971 3.00613C0.352156 6.06543 -0.21182 9.05114 0.0659589 11.9877C1.45485 12.9939 2.79324 13.5992 4.1148 14C4.44308 13.5665 4.72928 13.1002 4.9818 12.6176C4.502 12.4458 4.04746 12.225 3.61816 11.9714C3.73601 11.8896 3.84544 11.7996 3.95486 11.7178C6.58955 12.9121 9.4431 12.9121 12.0441 11.7178C12.1535 11.8078 12.263 11.8896 12.3808 11.9714C11.9515 12.225 11.4886 12.4376 11.0172 12.6176C11.2697 13.1002 11.5559 13.5665 11.8842 14C13.2057 13.5992 14.5525 12.9939 15.933 11.9877C16.2613 8.5767 15.369 5.62371 13.5593 3.00613H13.5424ZM5.33534 10.1881C4.54409 10.1881 3.89594 9.47649 3.89594 8.60124C3.89594 7.72598 4.52726 7.01433 5.33534 7.01433C6.14343 7.01433 6.78315 7.72598 6.77473 8.60124C6.77473 9.46831 6.14343 10.1881 5.33534 10.1881ZM10.6468 10.1881C9.85555 10.1881 9.2074 9.47649 9.2074 8.60124C9.2074 7.72598 9.83872 7.01433 10.6468 7.01433C11.4549 7.01433 12.0946 7.72598 12.0862 8.60124C12.0862 9.46831 11.4549 10.1881 10.6468 10.1881Z" fill="currentColor"/>
</svg>
