<svg viewBox="0 0 36 36" fill="none" xmlns="http://www.w3.org/2000/svg">
  <g clip-path="url(#clip0_2469:4870)">
    <path
      d="M30.4755 6.27364C28.181 5.22082 25.7205 4.44515 23.1478 4.00089C23.101 3.99231 23.0542 4.01374 23.0301 4.0566C22.7136 4.61942 22.3631 5.35367 22.1176 5.93078C19.3506 5.51653 16.5978 5.51653 13.8875 5.93078C13.642 5.34084 13.2787 4.61942 12.9609 4.0566C12.9367 4.01517 12.8899 3.99374 12.8431 4.00089C10.2719 4.44373 7.81134 5.2194 5.5154 6.27364C5.49553 6.28221 5.47849 6.29651 5.46718 6.31507C0.800088 13.2876 -0.478425 20.0888 0.14877 26.8056C0.151608 26.8385 0.170055 26.8699 0.195597 26.8899C3.27481 29.1512 6.25756 30.524 9.18492 31.4339C9.23177 31.4482 9.28141 31.4311 9.31122 31.3925C10.0037 30.4469 10.621 29.4498 11.1502 28.4012C11.1814 28.3398 11.1516 28.267 11.0878 28.2427C10.1087 27.8713 9.1764 27.4184 8.27959 26.9042C8.20866 26.8628 8.20298 26.7613 8.26824 26.7127C8.45696 26.5713 8.64573 26.4242 8.82593 26.2756C8.85853 26.2485 8.90397 26.2427 8.9423 26.2599C14.8339 28.9498 21.2123 28.9498 27.0344 26.2599C27.0728 26.2413 27.1182 26.2471 27.1522 26.2742C27.3325 26.4227 27.5212 26.5713 27.7113 26.7127C27.7766 26.7613 27.7723 26.8628 27.7014 26.9042C26.8046 27.4284 25.8723 27.8713 24.8918 28.2412C24.8279 28.2655 24.7995 28.3398 24.8308 28.4012C25.3714 29.4483 25.9887 30.4454 26.6683 31.3911C26.6967 31.4311 26.7478 31.4482 26.7946 31.4339C29.7362 30.524 32.7189 29.1512 35.7981 26.8899C35.8251 26.8699 35.8422 26.8399 35.845 26.807C36.5956 19.0416 34.5877 12.2962 30.5223 6.31649C30.5124 6.29651 30.4954 6.28221 30.4755 6.27364ZM12.03 22.7158C10.2562 22.7158 8.7947 21.0873 8.7947 19.0874C8.7947 17.0874 10.2279 15.459 12.03 15.459C13.8463 15.459 15.2937 17.1017 15.2653 19.0874C15.2653 21.0873 13.8321 22.7158 12.03 22.7158ZM23.9921 22.7158C22.2184 22.7158 20.7568 21.0873 20.7568 19.0874C20.7568 17.0874 22.19 15.459 23.9921 15.459C25.8084 15.459 27.2558 17.1017 27.2275 19.0874C27.2275 21.0873 25.8084 22.7158 23.9921 22.7158Z"
      fill="currentColor"
    />
  </g>
  <defs>
    <clipPath id="clip0_2469:4870">
      <rect width="36" height="36" fill="white" />
    </clipPath>
  </defs>
</svg>
