<svg width="32" height="32" viewBox="0 0 32 32" fill="none" xmlns="http://www.w3.org/2000/svg">
<mask id="mask0_19321_495583" style="mask-type:luminance" maskUnits="userSpaceOnUse" x="0" y="3" width="32" height="26">
<path d="M32 3.60938H0V28.3981H32V3.60938Z" fill="white"/>
</mask>
<g mask="url(#mask0_19321_495583)">
<path d="M27.0894 5.81876C25.0498 4.88292 22.8626 4.19343 20.5759 3.79853C20.5342 3.79091 20.4926 3.80996 20.4712 3.84805C20.1899 4.34834 19.8783 5.001 19.6601 5.51399C17.2005 5.14577 14.7536 5.14577 12.3444 5.51399C12.1262 4.9896 11.8033 4.34834 11.5208 3.84805C11.4993 3.81123 11.4577 3.79218 11.4161 3.79853C9.13055 4.19217 6.94341 4.88165 4.90258 5.81876C4.88491 5.82638 4.86977 5.83909 4.85972 5.85558C0.711189 12.0534 -0.425267 18.0989 0.13224 24.0694C0.134763 24.0986 0.15116 24.1265 0.173864 24.1443C2.91095 26.1544 5.56228 27.3746 8.16437 28.1835C8.20602 28.1962 8.25014 28.1809 8.27664 28.1466C8.89217 27.3061 9.44086 26.4198 9.9113 25.4877C9.93906 25.4331 9.91256 25.3684 9.85582 25.3468C8.98551 25.0166 8.1568 24.6141 7.35964 24.157C7.29659 24.1202 7.29154 24.03 7.34954 23.9868C7.5173 23.8611 7.68509 23.7303 7.84527 23.5983C7.87425 23.5742 7.91464 23.5691 7.94871 23.5843C13.1857 25.9753 18.8554 25.9753 24.0306 23.5843C24.0647 23.5678 24.1051 23.5729 24.1353 23.597C24.2955 23.7291 24.4633 23.8611 24.6323 23.9868C24.6903 24.03 24.6865 24.1202 24.6235 24.157C23.8263 24.623 22.9976 25.0166 22.126 25.3455C22.0693 25.3671 22.044 25.4331 22.0718 25.4877C22.5523 26.4185 23.101 27.3048 23.7052 28.1454C23.7304 28.1809 23.7758 28.1962 23.8175 28.1835C26.4322 27.3746 29.0835 26.1544 31.8206 24.1443C31.8446 24.1265 31.8597 24.0999 31.8622 24.0707C32.5294 17.1681 30.7447 11.1722 27.131 5.85684C27.1221 5.83909 27.107 5.82638 27.0894 5.81876ZM10.6934 20.434C9.11666 20.434 7.81751 18.9864 7.81751 17.2087C7.81751 15.431 9.09147 13.9835 10.6934 13.9835C12.3078 13.9835 13.5944 15.4437 13.5692 17.2087C13.5692 18.9864 12.2952 20.434 10.6934 20.434ZM21.3263 20.434C19.7497 20.434 18.4505 18.9864 18.4505 17.2087C18.4505 15.431 19.7244 13.9835 21.3263 13.9835C22.9408 13.9835 24.2274 15.4437 24.2022 17.2087C24.2022 18.9864 22.9408 20.434 21.3263 20.434Z" fill="url(#paint0_linear_19321_495583)"/>
<path d="M27.0894 5.81876C25.0498 4.88292 22.8626 4.19343 20.5759 3.79853C20.5342 3.79091 20.4926 3.80996 20.4712 3.84805C20.1899 4.34834 19.8783 5.001 19.6601 5.51399C17.2005 5.14577 14.7536 5.14577 12.3444 5.51399C12.1262 4.9896 11.8033 4.34834 11.5208 3.84805C11.4993 3.81123 11.4577 3.79218 11.4161 3.79853C9.13055 4.19217 6.94341 4.88165 4.90258 5.81876C4.88491 5.82638 4.86977 5.83909 4.85972 5.85558C0.711189 12.0534 -0.425267 18.0989 0.13224 24.0694C0.134763 24.0986 0.15116 24.1265 0.173864 24.1443C2.91095 26.1544 5.56228 27.3746 8.16437 28.1835C8.20602 28.1962 8.25014 28.1809 8.27664 28.1466C8.89217 27.3061 9.44086 26.4198 9.9113 25.4877C9.93906 25.4331 9.91256 25.3684 9.85582 25.3468C8.98551 25.0166 8.1568 24.6141 7.35964 24.157C7.29659 24.1202 7.29154 24.03 7.34954 23.9868C7.5173 23.8611 7.68509 23.7303 7.84527 23.5983C7.87425 23.5742 7.91464 23.5691 7.94871 23.5843C13.1857 25.9753 18.8554 25.9753 24.0306 23.5843C24.0647 23.5678 24.1051 23.5729 24.1353 23.597C24.2955 23.7291 24.4633 23.8611 24.6323 23.9868C24.6903 24.03 24.6865 24.1202 24.6235 24.157C23.8263 24.623 22.9976 25.0166 22.126 25.3455C22.0693 25.3671 22.044 25.4331 22.0718 25.4877C22.5523 26.4185 23.101 27.3048 23.7052 28.1454C23.7304 28.1809 23.7758 28.1962 23.8175 28.1835C26.4322 27.3746 29.0835 26.1544 31.8206 24.1443C31.8446 24.1265 31.8597 24.0999 31.8622 24.0707C32.5294 17.1681 30.7447 11.1722 27.131 5.85684C27.1221 5.83909 27.107 5.82638 27.0894 5.81876ZM10.6934 20.434C9.11666 20.434 7.81751 18.9864 7.81751 17.2087C7.81751 15.431 9.09147 13.9835 10.6934 13.9835C12.3078 13.9835 13.5944 15.4437 13.5692 17.2087C13.5692 18.9864 12.2952 20.434 10.6934 20.434ZM21.3263 20.434C19.7497 20.434 18.4505 18.9864 18.4505 17.2087C18.4505 15.431 19.7244 13.9835 21.3263 13.9835C22.9408 13.9835 24.2274 15.4437 24.2022 17.2087C24.2022 18.9864 22.9408 20.434 21.3263 20.434Z" fill="url(#paint1_radial_19321_495583)" fill-opacity="0.4" style="mix-blend-mode:plus-lighter"/>
</g>
<defs>
<linearGradient id="paint0_linear_19321_495583" x1="16" y1="3.79687" x2="16" y2="28.1879" gradientUnits="userSpaceOnUse">
<stop stop-color="#B4AAF9"/>
<stop offset="1" stop-color="#968CDB" stop-opacity="0.6"/>
</linearGradient>
<radialGradient id="paint1_radial_19321_495583" cx="0" cy="0" r="1" gradientUnits="userSpaceOnUse" gradientTransform="translate(16 6.5) rotate(90) scale(21.6879 29.4047)">
<stop stop-color="#8780BC"/>
<stop offset="1" stop-color="#8780BC" stop-opacity="0"/>
</radialGradient>
</defs>
</svg>
