<svg width="10" height="17" viewBox="0 0 10 17" fill="none" xmlns="http://www.w3.org/2000/svg">
<path d="M9.79542 5.39523C9.76403 5.3601 9.72546 5.33185 9.68223 5.31232C9.63901 5.2928 9.59208 5.28243 9.54451 5.2819H6.98796V4.3419C6.98796 4.15523 7.02864 3.9419 7.3338 3.9419H9.3682C9.41285 3.94377 9.45736 3.93576 9.49845 3.91845C9.53953 3.90114 9.57613 3.87498 9.60555 3.8419C9.66533 3.78094 9.69927 3.6999 9.70048 3.61523V0.948568C9.70048 0.860162 9.66476 0.775378 9.60117 0.712865C9.53759 0.650353 9.45134 0.615234 9.36142 0.615234H6.42511C3.17007 0.615234 2.91916 3.34857 2.91916 4.1819V5.2819H1.22383C1.13391 5.2819 1.04766 5.31702 0.984076 5.37953C0.920489 5.44204 0.884766 5.52683 0.884766 5.61523V8.2819C0.884766 8.37031 0.920489 8.45509 0.984076 8.5176C1.04766 8.58012 1.13391 8.61523 1.22383 8.61523H2.91916V16.2819C2.91916 16.3703 2.95488 16.4551 3.01847 16.5176C3.08206 16.5801 3.1683 16.6152 3.25823 16.6152H6.64889C6.73881 16.6152 6.82506 16.5801 6.88865 16.5176C6.95223 16.4551 6.98796 16.3703 6.98796 16.2819V8.61523H9.2597C9.34405 8.61565 9.42552 8.58514 9.48822 8.52967C9.55092 8.4742 9.59033 8.39774 9.59876 8.31523L9.88358 5.64857C9.8875 5.60264 9.88169 5.55642 9.86651 5.51282C9.85134 5.46921 9.82713 5.42918 9.79542 5.39523Z" fill="#1A1A1A"/>
</svg>
