<svg xmlns="http://www.w3.org/2000/svg" width="16" height="17" viewBox="0 0 16 17" fill="none"><path stroke="currentColor" stroke-linecap="round" stroke-linejoin="round" stroke-miterlimit="10" d="M8 10.667a2.167 2.167 0 1 0 0-4.333 2.167 2.167 0 0 0 0 4.333Z"/><path stroke="currentColor" stroke-linecap="round" stroke-linejoin="round" stroke-miterlimit="10" d="M12.767 8.5c0-.403-.056-.791-.15-1.165l1.662-.96-1.3-2.25-1.66.958A4.745 4.745 0 0 0 9.3 3.918V2H6.7v1.917c-.77.218-1.46.623-2.02 1.166l-1.659-.959-1.3 2.252 1.662.96c-.094.373-.15.761-.15 1.164 0 .402.056.791.15 1.165l-1.662.96 1.3 2.25 1.66-.958a4.747 4.747 0 0 0 2.02 1.165V15h2.6v-1.917a4.769 4.769 0 0 0 2.02-1.165l1.66.959 1.3-2.252-1.662-.96c.092-.374.148-.763.148-1.165Z"/></svg>
