<svg width="16" height="16" viewBox="0 0 16 16" fill="none" xmlns="http://www.w3.org/2000/svg">
<g clip-path="url(#clip0_16391_63170)">
<path fill-rule="evenodd" clip-rule="evenodd" d="M8 0.200012C3.6 0.200012 0 3.80001 0 8.20001C0 11.7 2.3 14.7 5.5 15.8C5.9 15.9 6 15.6 6 15.4C6 15.2 6 14.7 6 14C3.8 14.5 3.3 13 3.3 13C2.9 12.1 2.4 11.8 2.4 11.8C1.7 11.3 2.5 11.3 2.5 11.3C3.3 11.4 3.7 12.1 3.7 12.1C4.4 13.4 5.6 13 6 12.8C6.1 12.3 6.3 11.9 6.5 11.7C4.7 11.5 2.9 10.8 2.9 7.70001C2.9 6.80001 3.2 6.10001 3.7 5.60001C3.6 5.40001 3.3 4.60001 3.8 3.50001C3.8 3.50001 4.5 3.30001 6 4.30001C6.6 4.10001 7.3 4.00001 8 4.00001C8.7 4.00001 9.4 4.10001 10 4.30001C11.5 3.30001 12.2 3.50001 12.2 3.50001C12.6 4.60001 12.4 5.40001 12.3 5.60001C12.8 6.20001 13.1 6.90001 13.1 7.70001C13.1 10.8 11.2 11.4 9.4 11.6C9.7 12 10 12.5 10 13.2C10 14.3 10 15.1 10 15.4C10 15.6 10.1 15.9 10.6 15.8C13.8 14.7 16.1 11.7 16.1 8.20001C16 3.80001 12.4 0.200012 8 0.200012Z" fill="currentColor"/>
</g>
<defs>
<clipPath id="clip0_16391_63170">
<rect width="16" height="16" fill="white"/>
</clipPath>
</defs>
</svg>
