<svg width="36" height="36" viewBox="0 0 36 36" fill="none" xmlns="http://www.w3.org/2000/svg">
<path fill-rule="evenodd" clip-rule="evenodd" d="M18 0.452148C8.1 0.452148 0 8.55215 0 18.4521C0 26.4396 5.175 33.1896 12.2625 35.5522C13.1625 35.6646 13.5 35.2146 13.5 34.6521C13.5 34.2021 13.5 33.0771 13.5 31.6146C8.4375 32.7397 7.425 29.2521 7.425 29.2521C6.6375 27.2271 5.4 26.6646 5.4 26.6646C3.7125 25.5396 5.5125 25.5396 5.5125 25.5396C7.3125 25.6521 8.325 27.3396 8.325 27.3396C9.9 30.0396 12.4875 29.2521 13.6125 28.8021C13.725 27.6771 14.2875 26.8896 14.7375 26.4396C10.6875 25.9896 6.525 24.4146 6.525 17.5521C6.525 15.6396 7.2 13.9521 8.325 12.7146C8.1 12.2646 7.5375 10.4646 8.55 7.98965C8.55 7.98965 10.0125 7.53965 13.5 9.78965C14.9625 9.33965 16.425 9.22715 18 9.22715C19.575 9.22715 21.0375 9.45215 22.5 9.78965C25.9875 7.42715 27.45 7.87715 27.45 7.87715C28.4625 10.3521 27.7875 12.1521 27.675 12.6021C28.8 13.8396 29.475 15.4146 29.475 17.4396C29.475 24.3021 25.3125 25.8771 21.2625 26.3271C21.9375 26.8896 22.5 28.0146 22.5 29.7021C22.5 32.0646 22.5 34.0896 22.5 34.6521C22.5 35.1021 22.8375 35.6646 23.7375 35.5522C30.825 33.1896 36 26.4396 36 18.4521C36 8.55215 27.9 0.452148 18 0.452148Z" fill="#18191B"/>
</svg>
