<svg width="16" height="16" viewBox="0 0 16 16" fill="none" xmlns="http://www.w3.org/2000/svg">
<g clip-path="url(#clip0_24561_7115)">
<path fill-rule="evenodd" clip-rule="evenodd" d="M8 0.199219C3.6 0.199219 0 3.79922 0 8.19922C0 11.6992 2.3 14.6992 5.5 15.7992C5.9 15.8992 6 15.5992 6 15.3992C6 15.1992 6 14.6992 6 13.9992C3.8 14.4992 3.3 12.9992 3.3 12.9992C2.9 12.0992 2.4 11.7992 2.4 11.7992C1.7 11.2992 2.5 11.2992 2.5 11.2992C3.3 11.3992 3.7 12.0992 3.7 12.0992C4.4 13.3992 5.6 12.9992 6 12.7992C6.1 12.2992 6.3 11.8992 6.5 11.6992C4.7 11.4992 2.9 10.7992 2.9 7.69922C2.9 6.79922 3.2 6.09922 3.7 5.59922C3.6 5.39922 3.3 4.59922 3.8 3.49922C3.8 3.49922 4.5 3.29922 6 4.29922C6.6 4.09922 7.3 3.99922 8 3.99922C8.7 3.99922 9.4 4.09922 10 4.29922C11.5 3.29922 12.2 3.49922 12.2 3.49922C12.6 4.59922 12.4 5.39922 12.3 5.59922C12.8 6.19922 13.1 6.89922 13.1 7.69922C13.1 10.7992 11.2 11.3992 9.4 11.5992C9.7 11.9992 10 12.4992 10 13.1992C10 14.2992 10 15.0992 10 15.3992C10 15.5992 10.1 15.8992 10.6 15.7992C13.8 14.6992 16.1 11.6992 16.1 8.19922C16 3.79922 12.4 0.199219 8 0.199219Z" fill="currentColor"/>
</g>
<defs>
<clipPath id="clip0_24561_7115">
<rect width="16" height="16" fill="white"/>
</clipPath>
</defs>
</svg>
