<svg width="12" height="12" viewBox="0 0 12 12" fill="none" xmlns="http://www.w3.org/2000/svg">
<path d="M6.00031 10.4599C6.12542 10.4599 6.2498 10.4268 6.36388 10.3613C6.8371 10.0882 7.63856 9.73792 8.67554 9.73939C9.33717 9.74013 9.90239 9.88437 10.3462 10.0595C10.8231 10.2472 11.3353 9.8829 11.3353 9.36994V2.68518C11.3353 2.42465 11.2021 2.18472 10.9776 2.05225C10.5088 1.77553 9.70736 1.41711 8.6667 1.41711C7.27573 1.41711 6.31309 2.05887 5.99957 2.28702" stroke="currentColor" stroke-width="0.883156" stroke-linecap="round" stroke-linejoin="round"/>
<path d="M6.00016 10.4598C5.87505 10.4598 5.75067 10.4267 5.63659 10.3612C5.16337 10.0881 4.36191 9.73779 3.32493 9.73926C2.6633 9.74 2.09808 9.88425 1.6543 10.0594C1.17739 10.2471 0.665161 9.88498 0.665161 9.37275C0.665161 7.4644 0.665161 3.87363 0.665161 2.68285C0.665161 2.42231 0.79837 2.18533 1.02284 2.05286C1.49165 1.77614 2.29311 1.41772 3.33376 1.41772C4.72474 1.41772 5.68738 2.05948 6.0009 2.28763V10.4598H6.00016Z" stroke="currentColor" stroke-width="0.883156" stroke-linecap="round" stroke-linejoin="round"/>
</svg>
