<svg width="44" height="44" viewBox="0 0 44 44" fill="none" xmlns="http://www.w3.org/2000/svg">
<rect width="44" height="44" rx="6.75" fill="#FBD0D7"/>
<path d="M14.4167 17.125C16.2117 17.125 17.6667 15.6699 17.6667 13.875C17.6667 12.0801 16.2117 10.625 14.4167 10.625C12.6218 10.625 11.1667 12.0801 11.1667 13.875C11.1667 15.6699 12.6218 17.125 14.4167 17.125Z" fill="#212121"/>
<path d="M29.5833 17.125C31.3782 17.125 32.8333 15.6699 32.8333 13.875C32.8333 12.0801 31.3782 10.625 29.5833 10.625C27.7883 10.625 26.3333 12.0801 26.3333 13.875C26.3333 15.6699 27.7883 17.125 29.5833 17.125Z" fill="#212121"/>
<path d="M30.6667 18.75C27.5521 18.75 25.9445 20.9871 24.9792 22.351C24.4243 23.2103 23.7543 23.9896 22.988 24.6672C23.4104 24.936 23.7394 25.3286 23.9302 25.7915C24.121 26.2543 24.1642 26.7647 24.054 27.2531C24.9205 26.647 25.6891 25.9119 26.3334 25.0734V32.8333C26.3334 33.1207 26.4475 33.3962 26.6507 33.5994C26.8538 33.8025 27.1294 33.9167 27.4167 33.9167H33.9167C34.204 33.9167 34.4796 33.8025 34.6827 33.5994C34.8859 33.3962 35 33.1207 35 32.8333V23.0833C35 21.9341 34.5435 20.8319 33.7308 20.0192C32.9182 19.2065 31.816 18.75 30.6667 18.75Z" fill="#212121"/>
<path d="M22.2903 25.5003C20.9369 24.7639 19.8073 23.6759 19.0208 22.351C18.0556 20.9871 16.4479 18.75 13.3333 18.75C12.1841 18.75 11.0819 19.2065 10.2692 20.0192C9.45655 20.8319 9 21.9341 9 23.0833V32.8333C9 33.1207 9.11414 33.3962 9.3173 33.5994C9.52047 33.8025 9.79602 33.9167 10.0833 33.9167H16.5833C16.8707 33.9167 17.1462 33.8025 17.3494 33.5994C17.5525 33.3962 17.6667 33.1207 17.6667 32.8333V25.0734C18.5727 26.2702 19.7393 27.2449 21.0781 27.9237C21.3982 28.0742 21.7645 28.0936 22.0987 27.9778C22.433 27.8619 22.7087 27.6199 22.8669 27.3036C23.0252 26.9872 23.0535 26.6215 22.9457 26.2845C22.838 25.9476 22.6028 25.6661 22.2903 25.5003Z" fill="#212121"/>
</svg>
