<svg width="32" height="32" viewBox="0 0 32 32" fill="none" xmlns="http://www.w3.org/2000/svg">
<g clip-path="url(#clip0_19321_495571)">
<path d="M30.4099 0.0996094H1.3913C0.596273 0.0996094 0 0.695883 0 1.49091V30.7083C0 31.3046 0.596273 31.9009 1.3913 31.9009H30.6087C31.4037 31.9009 32 31.3046 32 30.5095V1.49091C31.8012 0.695883 31.205 0.0996094 30.4099 0.0996094ZM9.34161 27.1307H4.77019V12.0251H9.54037V27.1307H9.34161ZM7.15528 10.0375C5.56522 10.0375 4.37267 8.64619 4.37267 7.25489C4.37267 5.66483 5.56522 4.47228 7.15528 4.47228C8.74534 4.47228 9.93789 5.66483 9.93789 7.25489C9.73913 8.64619 8.54658 10.0375 7.15528 10.0375ZM27.0311 27.1307H22.2609V19.7766C22.2609 17.9878 22.2609 15.8015 19.8758 15.8015C17.4907 15.8015 17.0932 17.789 17.0932 19.7766V27.3294H12.323V12.0251H16.8944V14.0127C17.4907 12.8201 19.0807 11.6276 21.2671 11.6276C26.0373 11.6276 26.8323 14.8077 26.8323 18.7828V27.1307H27.0311Z" fill="url(#paint0_linear_19321_495571)"/>
<path d="M30.4099 0.0996094H1.3913C0.596273 0.0996094 0 0.695883 0 1.49091V30.7083C0 31.3046 0.596273 31.9009 1.3913 31.9009H30.6087C31.4037 31.9009 32 31.3046 32 30.5095V1.49091C31.8012 0.695883 31.205 0.0996094 30.4099 0.0996094ZM9.34161 27.1307H4.77019V12.0251H9.54037V27.1307H9.34161ZM7.15528 10.0375C5.56522 10.0375 4.37267 8.64619 4.37267 7.25489C4.37267 5.66483 5.56522 4.47228 7.15528 4.47228C8.74534 4.47228 9.93789 5.66483 9.93789 7.25489C9.73913 8.64619 8.54658 10.0375 7.15528 10.0375ZM27.0311 27.1307H22.2609V19.7766C22.2609 17.9878 22.2609 15.8015 19.8758 15.8015C17.4907 15.8015 17.0932 17.789 17.0932 19.7766V27.3294H12.323V12.0251H16.8944V14.0127C17.4907 12.8201 19.0807 11.6276 21.2671 11.6276C26.0373 11.6276 26.8323 14.8077 26.8323 18.7828V27.1307H27.0311Z" fill="url(#paint1_radial_19321_495571)" fill-opacity="0.4" style="mix-blend-mode:plus-lighter"/>
</g>
<defs>
<linearGradient id="paint0_linear_19321_495571" x1="16" y1="0.0996094" x2="16" y2="31.9009" gradientUnits="userSpaceOnUse">
<stop stop-color="#2884E0"/>
<stop offset="1" stop-color="#0A66C2" stop-opacity="0.6"/>
</linearGradient>
<radialGradient id="paint1_radial_19321_495571" cx="0" cy="0" r="1" gradientUnits="userSpaceOnUse" gradientTransform="translate(16 1.00195) rotate(90) scale(30.8989 32.1313)">
<stop stop-color="#539FEF"/>
<stop offset="1" stop-color="#539FEF" stop-opacity="0"/>
</radialGradient>
<clipPath id="clip0_19321_495571">
<rect width="32" height="32" fill="white"/>
</clipPath>
</defs>
</svg>
