<svg viewBox="0 0 36 36" fill="none" xmlns="http://www.w3.org/2000/svg">
  <path
    d="M4.52621 10.625H11.1597V31.9997H4.52621V10.625ZM7.84314 0C9.96329 0 11.6863 1.72608 11.6863 3.85357C11.6863 5.97893 9.96329 7.70501 7.84314 7.70501C5.71802 7.70501 4 5.97893 4 3.85357C4 1.72608 5.71802 0 7.84314 0Z"
    fill="currentColor"
  />
  <path
    d="M15.3196 10.6255H21.6804V13.5483H21.7711C22.6564 11.8671 24.8203 10.0962 28.0455 10.0962C34.7608 10.0962 36.0003 14.5218 36.0003 20.277V32.0001H29.3717V21.6056C29.3717 19.1262 29.3287 15.938 25.9257 15.938C22.4747 15.938 21.9481 18.6404 21.9481 21.4275V32.0001H15.3196V10.6255Z"
    fill="currentColor"
  />
</svg>
