<svg width="24" height="24" viewBox="0 0 24 24" fill="none" xmlns="http://www.w3.org/2000/svg">
  <rect width="24" height="24" rx="4" fill="url(#paint0_linear_6101_25035)" />
  <rect x="0.5" y="0.5" width="23" height="23" rx="3.5" stroke="url(#paint1_linear_6101_25035)" stroke-opacity="0.1" />
  <path d="M11.4935 8.30268C11.4817 8.33629 11.4272 8.33116 11.3961 8.34096C11.3684 8.35543 11.3458 8.38063 11.3139 8.38063C11.2847 8.38063 11.2377 8.36896 11.2339 8.34096C11.2283 8.30268 11.2856 8.26348 11.3219 8.26348C11.3454 8.25228 11.3726 8.24621 11.4013 8.24621C11.4276 8.24621 11.4526 8.25134 11.4751 8.26114L11.4737 8.26068C11.4841 8.26488 11.4916 8.27468 11.4916 8.28635C11.4916 8.28775 11.4916 8.28868 11.4911 8.29008V8.30175H11.493L11.4935 8.30268ZM11.817 8.30268V8.29008C11.8132 8.27841 11.8245 8.26581 11.8339 8.26114C11.8555 8.25181 11.8809 8.24621 11.9077 8.24621C11.9364 8.24621 11.9637 8.25274 11.9877 8.26394L11.9867 8.26348C12.0239 8.26348 12.0808 8.30268 12.0746 8.34236C12.0714 8.37083 12.0248 8.38063 11.9952 8.38063C11.9627 8.38063 11.9411 8.35543 11.9124 8.34096C11.8819 8.33022 11.8268 8.33629 11.8165 8.30315L11.817 8.30268ZM12.4527 9.2259C12.2025 9.3832 11.9068 9.49382 11.5899 9.53676L11.5786 9.53816C11.2936 9.52182 11.0346 9.4224 10.823 9.26371L10.8263 9.26604C10.736 9.1881 10.6617 9.10969 10.6071 9.07048C10.5108 8.99253 10.5225 8.87631 10.5639 8.87631C10.6278 8.88565 10.6396 8.95426 10.681 8.993C10.7374 9.03127 10.8075 9.10969 10.8926 9.18716C11.0792 9.34026 11.3153 9.43967 11.5743 9.45928L11.5786 9.45974C11.8861 9.43314 12.1659 9.33512 12.4075 9.18343L12.4 9.1881C12.5148 9.10922 12.6615 8.99347 12.7809 8.91552C12.8726 8.83617 12.8683 8.75963 12.945 8.75963C13.0202 8.76896 12.9652 8.83757 12.8585 8.95333C12.7428 9.04107 12.6107 9.13116 12.4738 9.2147L12.4532 9.22637L12.4527 9.2259ZM8.24626 14.5183H8.2519C8.28435 14.5183 8.31632 14.5216 8.34735 14.5272L8.34406 14.5267C8.59985 14.5921 8.8105 14.7498 8.94263 14.9613L8.94498 14.9655L9.4796 15.9358L9.48148 15.9377C9.69636 16.2985 9.92723 16.6107 10.1854 16.8987L10.1802 16.8926C10.4106 17.1354 10.5658 17.4509 10.6076 17.8009L10.6086 17.8084V17.8121C10.6029 18.1935 10.3203 18.5081 9.95215 18.5664L9.94792 18.5669C9.85388 18.5813 9.74479 18.5893 9.6343 18.5893C9.23133 18.5893 8.85423 18.4805 8.53073 18.2905L8.54061 18.2961C8.04548 18.0903 7.4709 17.9629 6.86904 17.9452H6.86199C6.68707 17.9335 6.53473 17.8448 6.43833 17.7137L6.43739 17.7123C6.412 17.631 6.39743 17.5377 6.39743 17.4406C6.39743 17.2772 6.4388 17.1237 6.51216 16.9897L6.50981 16.9949V16.9925L6.51122 16.9907C6.53049 16.9029 6.54178 16.8016 6.54178 16.698C6.54178 16.5701 6.52485 16.4464 6.49288 16.3288L6.49523 16.3386C6.47595 16.2686 6.46467 16.1879 6.46467 16.1043C6.46467 15.9914 6.48488 15.8835 6.5225 15.7837L6.52062 15.7902C6.61466 15.5956 6.75337 15.5568 6.92593 15.4793C7.13188 15.4173 7.31103 15.3235 7.46714 15.2026L7.46337 15.2054H7.46432V15.204C7.61478 15.0476 7.72575 14.8534 7.85693 14.7153C7.94862 14.5991 8.08827 14.5239 8.24579 14.5193H8.24673L8.24626 14.5183ZM14.6006 14.4898C14.6001 14.4978 14.6001 14.5076 14.6001 14.5174C14.6001 14.8642 14.8112 15.162 15.1131 15.2912L15.1187 15.2936C15.1413 15.295 15.1676 15.2959 15.194 15.2959C15.5847 15.2959 15.9345 15.1228 16.1696 14.8492L16.171 14.8474L16.2952 14.8418C16.3201 14.838 16.3488 14.8362 16.3779 14.8362C16.5383 14.8362 16.6845 14.8978 16.7931 14.9986L16.7926 14.9981L16.7945 15C16.9116 15.1405 16.993 15.3141 17.0235 15.505L17.0245 15.5111C17.0503 15.7468 17.1364 15.9592 17.2676 16.1365L17.2652 16.1328C17.4608 16.299 17.5967 16.5295 17.6381 16.7914L17.639 16.7974L17.6409 16.7932V16.8035L17.639 16.7965C17.6301 16.9491 17.5304 17.0275 17.3465 17.1438C16.7898 17.3757 16.3116 17.6842 15.8997 18.0623L15.903 18.0595C15.6171 18.4292 15.1973 18.6845 14.7167 18.7531L14.7068 18.754C14.672 18.7587 14.6316 18.7615 14.5907 18.7615C14.2296 18.7615 13.9192 18.5449 13.7838 18.2359L13.7815 18.2303L13.7787 18.2285C13.7349 18.095 13.71 17.9414 13.71 17.7823C13.71 17.5881 13.7472 17.4028 13.8153 17.2324L13.8116 17.2427C13.9216 16.9309 14.0161 16.5585 14.0786 16.1748L14.0838 16.1361C14.0913 15.7571 14.1327 15.3925 14.2051 15.0392L14.1985 15.0779C14.2385 14.8362 14.3777 14.6327 14.5719 14.5062L14.5752 14.5043L14.6015 14.4917L14.6006 14.4898ZM13.3164 9.26511C13.5986 10.2672 13.946 11.133 14.373 11.9522L14.3358 11.8742C14.6241 12.383 14.8484 12.9734 14.9767 13.5988L14.9833 13.638C14.9875 13.638 14.9927 13.638 14.9979 13.638C15.0999 13.638 15.1987 13.6516 15.2927 13.6772L15.2847 13.6754C15.3364 13.491 15.3661 13.2796 15.3661 13.0611C15.3661 12.3956 15.09 11.7935 14.6452 11.3627L14.6448 11.3622C14.5155 11.2455 14.5084 11.1666 14.5724 11.1666C15.0289 11.5914 15.3665 12.1365 15.5339 12.7508L15.5396 12.7746C15.5814 12.9281 15.6054 13.1046 15.6054 13.2866C15.6054 13.4504 15.5861 13.61 15.5494 13.7627L15.5523 13.7487C15.5871 13.7664 15.6275 13.7799 15.6703 13.7874L15.6731 13.7879C16.2797 14.0992 16.5035 14.3349 16.3958 14.6845V14.6593C16.3605 14.6574 16.3253 14.6593 16.29 14.6593H16.2806C16.3695 14.3867 16.1739 14.1781 15.6548 13.9452C15.1173 13.7118 14.6876 13.7491 14.6147 14.2163C14.6095 14.2392 14.6057 14.2658 14.6043 14.2933V14.2947C14.57 14.3088 14.5291 14.3218 14.4868 14.3312L14.4816 14.3321C14.2427 14.4889 14.0725 14.733 14.0166 15.0177L14.0156 15.0243C13.946 15.3487 13.9023 15.7244 13.8953 16.1085V16.1141V16.116C13.8525 16.4133 13.7871 16.6793 13.6987 16.9342L13.7081 16.9034C13.2459 17.2786 12.6497 17.5055 11.9994 17.5055C11.4681 17.5055 10.9725 17.3538 10.5545 17.0915L10.5658 17.098C10.4971 16.9799 10.4186 16.8777 10.3293 16.7867L10.3297 16.7872C10.2841 16.7125 10.2305 16.6485 10.1689 16.5935L10.168 16.593C10.2653 16.593 10.3593 16.5785 10.4482 16.5519L10.4412 16.5538C10.5258 16.5141 10.5907 16.4455 10.625 16.3615L10.626 16.3592C10.6344 16.3158 10.6396 16.2663 10.6396 16.2154C10.6396 16.0077 10.5573 15.8196 10.4228 15.6805L10.4233 15.681C10.1322 15.3258 9.78429 15.0299 9.39073 14.8035L9.37286 14.7942C9.05736 14.6131 8.8185 14.3298 8.70048 13.9904L8.69718 13.9802C8.65346 13.8317 8.62806 13.6609 8.62806 13.4845C8.62806 13.3197 8.65016 13.1601 8.69107 13.0079L8.68825 13.0205C8.86552 12.4072 9.12131 11.8719 9.44998 11.3888L9.43681 11.4089C9.49982 11.3711 9.45844 11.4877 9.19701 11.9769C8.97413 12.3097 8.84107 12.719 8.84107 13.1592C8.84107 13.5512 8.94639 13.9186 9.13071 14.2355L9.12507 14.2252C9.14952 13.6142 9.28729 13.0411 9.51722 12.5174L9.50546 12.5477C10.0015 11.66 10.3772 10.6289 10.5752 9.53629L10.5846 9.47515C10.6128 9.49615 10.712 9.55403 10.7543 9.59277C10.8822 9.67025 10.9777 9.78693 11.1009 9.86394C11.2264 9.9853 11.3985 10.06 11.5875 10.06C11.5974 10.06 11.6073 10.06 11.6171 10.0595H11.6157C11.6388 10.0614 11.6599 10.0632 11.6801 10.0632C11.896 10.059 12.0972 10.0016 12.2721 9.90362L12.266 9.90688C12.4362 9.82894 12.5716 9.71225 12.701 9.67351H12.7038C12.9553 9.60583 13.166 9.46161 13.315 9.26791L13.3169 9.26511H13.3164ZM11.6712 8.01564C11.6726 8.01564 11.674 8.01564 11.6754 8.01564C11.943 8.01564 12.1898 8.10292 12.3887 8.25041L12.3854 8.24807C12.5632 8.35729 12.7682 8.45018 12.985 8.51599L13.0038 8.52065H13.0056C13.1213 8.572 13.2168 8.65181 13.2849 8.75123L13.2864 8.75356V8.67701C13.308 8.71995 13.3211 8.77083 13.3211 8.8245C13.3211 8.87025 13.3117 8.91365 13.2953 8.95333L13.2962 8.95099C13.1608 9.18763 12.9412 9.36359 12.6789 9.44014L12.6713 9.44201V9.44294C12.5138 9.52182 12.377 9.63711 12.2162 9.71412C12.0516 9.81214 11.8536 9.87001 11.6416 9.87001C11.6345 9.87001 11.6275 9.87001 11.6204 9.87001H11.6214C11.611 9.87048 11.5988 9.87094 11.5866 9.87094C11.5048 9.87094 11.4258 9.85648 11.3534 9.8294L11.3581 9.83081C11.2833 9.7902 11.2217 9.75193 11.162 9.71085L11.1686 9.71552C11.0618 9.62264 10.9443 9.53349 10.8211 9.45181L10.8089 9.44434V9.44154H10.806C10.6297 9.34866 10.491 9.2063 10.4054 9.03267L10.4031 9.02707C10.3904 8.9958 10.3833 8.95939 10.3833 8.92159C10.3833 8.81984 10.436 8.73022 10.5155 8.67795L10.5164 8.67748C10.6481 8.5986 10.7397 8.51925 10.8004 8.48145C10.8615 8.43851 10.8846 8.42217 10.9038 8.4049H10.9048V8.40303C11.0308 8.24481 11.1977 8.12345 11.39 8.05484L11.3976 8.05251C11.4794 8.02917 11.5734 8.01564 11.6707 8.0147L11.6712 8.01564ZM10.8662 7.02054H10.8874C10.9758 7.0224 11.0571 7.05181 11.123 7.09988L11.122 7.09895C11.2062 7.17316 11.2748 7.26324 11.3219 7.36499L11.3237 7.37013C11.3769 7.48448 11.4098 7.6175 11.4135 7.75753V7.75893V7.76126C11.4154 7.78273 11.4164 7.80747 11.4164 7.83221C11.4164 7.86161 11.415 7.89102 11.4121 7.91995L11.4126 7.91622V7.96289C11.3952 7.96709 11.3797 7.97316 11.3637 7.9769C11.2739 8.01377 11.1982 8.05298 11.1262 8.09732L11.1328 8.09358C11.1366 8.06791 11.1385 8.03851 11.1385 8.00863C11.1385 7.9839 11.1371 7.95916 11.1342 7.93489L11.1347 7.93769V7.92882C11.1262 7.85694 11.1093 7.79113 11.0844 7.72905L11.0863 7.73419C11.067 7.67258 11.0331 7.6203 10.9889 7.57876C10.9631 7.55543 10.9288 7.54096 10.8907 7.54096C10.8874 7.54096 10.8841 7.54096 10.8808 7.54142H10.8813H10.869C10.8206 7.54656 10.7802 7.57643 10.76 7.6175L10.7595 7.61844C10.7233 7.66184 10.6984 7.71552 10.689 7.77433V7.7762C10.6781 7.81634 10.6725 7.86254 10.6725 7.91015C10.6725 7.93069 10.6734 7.95123 10.6758 7.9713V7.96896V7.97783C10.6833 8.04971 10.7002 8.11599 10.7247 8.1776L10.7228 8.17246C10.7426 8.23407 10.7759 8.28681 10.8201 8.32882C10.8258 8.33442 10.8324 8.33909 10.8399 8.34282H10.8404C10.8013 8.36756 10.7675 8.3937 10.7364 8.42264L10.7369 8.42217C10.7158 8.44084 10.6899 8.45484 10.6612 8.46138L10.6598 8.46184C10.602 8.39323 10.5484 8.31622 10.5023 8.23501L10.4985 8.22754C10.4454 8.11319 10.4125 7.98063 10.4073 7.84014V7.83827C10.4054 7.81587 10.4045 7.78973 10.4045 7.76313C10.4045 7.65064 10.4228 7.54236 10.4562 7.44107L10.4543 7.44854C10.4891 7.32812 10.546 7.22404 10.6217 7.13536L10.6208 7.13676C10.6805 7.06674 10.768 7.0224 10.8662 7.02007H10.8667L10.8662 7.02054ZM12.6069 6.986H12.6144C12.6149 6.986 12.6154 6.986 12.6163 6.986C12.7456 6.986 12.8641 7.0294 12.9591 7.10222L12.9577 7.10128C13.0654 7.1839 13.1519 7.28798 13.2125 7.407L13.2149 7.41214C13.2718 7.53629 13.307 7.68051 13.3122 7.83267V7.83454C13.3122 7.82287 13.3155 7.8112 13.3155 7.79953V7.86068L13.3132 7.84854L13.3108 7.83454C13.3094 7.9839 13.2774 8.12485 13.2201 8.25321L13.2229 8.24667C13.1937 8.32275 13.1514 8.3881 13.0978 8.44224C13.0837 8.43384 13.0663 8.4259 13.0489 8.4189L13.0461 8.41797C12.9826 8.39837 12.9271 8.37176 12.8768 8.33909L12.8792 8.34049C12.843 8.32555 12.7997 8.31249 12.755 8.30268L12.7499 8.30175C12.7879 8.26628 12.8232 8.22847 12.8556 8.18833L12.8575 8.186C12.8872 8.11692 12.9055 8.03711 12.9093 7.95309V7.95169V7.94002C12.9093 7.93629 12.9093 7.93256 12.9093 7.92835C12.9093 7.84901 12.8961 7.77293 12.8716 7.70198L12.873 7.70712C12.8434 7.63291 12.8072 7.56896 12.764 7.51062L12.7658 7.51295C12.7249 7.47188 12.6709 7.44387 12.6102 7.43594H12.6088H12.5994C12.5989 7.43594 12.598 7.43594 12.5975 7.43594C12.5354 7.43594 12.48 7.46628 12.4461 7.51249L12.4456 7.51295C12.3911 7.56569 12.3497 7.63104 12.3262 7.70432L12.3253 7.70758C12.2956 7.7762 12.2764 7.85601 12.2726 7.93909V7.94049V7.95169C12.2735 8.0077 12.2778 8.06184 12.2853 8.11459L12.2844 8.10758C12.171 8.06838 12.0272 8.0287 11.9275 7.98996C11.9218 7.95589 11.9181 7.91575 11.9171 7.87468V7.87328V7.86161C11.9167 7.85228 11.9167 7.84154 11.9167 7.8308C11.9167 7.67958 11.9491 7.53629 12.0079 7.407L12.0051 7.41354C12.0549 7.28331 12.1428 7.17643 12.2552 7.10408L12.2576 7.10268C12.3535 7.02987 12.4753 6.986 12.6069 6.986ZM12.2961 5C12.2049 5 12.1108 5.00467 12.014 5.01214C9.53085 5.2063 10.1896 7.81587 10.1515 8.68541C10.128 9.35099 9.90043 9.95916 9.5285 10.4553L9.53461 10.4469C8.87304 11.1946 8.33325 12.0684 7.95897 13.0247L7.93875 13.084C7.81744 13.4037 7.74691 13.7729 7.74691 14.1585C7.74691 14.2915 7.75537 14.4226 7.77136 14.551L7.76995 14.5356C7.74361 14.5571 7.72152 14.5832 7.706 14.6131L7.70553 14.6145C7.55271 14.7708 7.44128 14.9645 7.31573 15.1036C7.18266 15.2049 7.02656 15.2847 6.85728 15.3342L6.84741 15.3365C6.62924 15.4014 6.4515 15.5428 6.34194 15.7291L6.33959 15.7333C6.29069 15.8322 6.26201 15.9484 6.26201 16.0716C6.26201 16.0763 6.26201 16.0805 6.26201 16.0852C6.26295 16.1963 6.27423 16.3036 6.29633 16.4082L6.29445 16.3974C6.32078 16.4997 6.33583 16.6173 6.33583 16.7382C6.33583 16.8175 6.32925 16.8954 6.31655 16.9715L6.31749 16.9631C6.23897 17.1092 6.19336 17.2828 6.19336 17.4672C6.19336 17.597 6.21593 17.7211 6.25778 17.8364L6.25543 17.8289C6.38379 18.01 6.57798 18.1379 6.80274 18.1785L6.80791 18.1795C7.40695 18.2294 7.96038 18.3536 8.4823 18.5435L8.4381 18.5295C8.7663 18.7232 9.16174 18.8376 9.58351 18.8376C9.72175 18.8376 9.85717 18.8254 9.98883 18.8016L9.97519 18.8035C10.2888 18.733 10.5446 18.53 10.6824 18.2579L10.6852 18.2518C11.0303 18.2499 11.4079 18.095 12.013 18.0572C12.4235 18.0236 12.9379 18.2131 13.5271 18.1739C13.5445 18.2481 13.5675 18.313 13.5967 18.3741L13.5939 18.368L13.5957 18.3699C13.7763 18.7452 14.1553 19 14.5945 19C14.6325 19 14.6702 18.9981 14.7073 18.9944L14.7026 18.9949C15.2438 18.9155 15.7084 18.6364 16.0253 18.2373L16.0286 18.2331C16.425 17.8747 16.8876 17.5792 17.3945 17.3683L17.426 17.3566C17.6291 17.2674 17.7749 17.0835 17.8069 16.8623L17.8073 16.859C17.7796 16.5351 17.623 16.2527 17.3898 16.0581L17.3879 16.0567V16.0002L17.386 15.9984C17.2854 15.8443 17.2149 15.6614 17.1881 15.4653L17.1871 15.4583C17.1622 15.2189 17.0564 15.0075 16.898 14.8483H16.8961C16.8613 14.817 16.8237 14.8091 16.7856 14.7694C16.7546 14.7475 16.716 14.734 16.6742 14.7321C16.7658 14.4511 16.8185 14.1281 16.8185 13.7925C16.8185 13.3538 16.7278 12.9361 16.5641 12.5571L16.5721 12.5776C16.2411 11.7972 15.8109 11.1256 15.2875 10.5384L15.2941 10.5463C14.7745 10.0413 14.4346 9.35566 14.3782 8.59207L14.3777 8.58226C14.3932 7.32719 14.5164 5.00513 12.2952 5.00187L12.2961 5Z" fill="currentColor" />
  <defs>
    <linearGradient id="paint0_linear_6101_25035" x1="12" y1="0" x2="12" y2="24" gradientUnits="userSpaceOnUse">
      <stop offset="0.3125" stop-color="#242628" />
      <stop offset="1" stop-color="#1D1E20" />
    </linearGradient>
    <linearGradient id="paint1_linear_6101_25035" x1="12" y1="0" x2="12" y2="24" gradientUnits="userSpaceOnUse">
      <stop stop-color="white" />
      <stop offset="1" stop-color="white" stop-opacity="0.05" />
    </linearGradient>
  </defs>
</svg>