<svg width="24" height="24" viewBox="0 0 24 24" fill="none" xmlns="http://www.w3.org/2000/svg">
  <rect width="24" height="24" rx="4" fill="url(#paint0_linear_6101_25011)" />
  <rect x="0.5" y="0.5" width="23" height="23" rx="3.5" stroke="url(#paint1_linear_6101_25011)" stroke-opacity="0.1" />
  <path d="M16.7245 9.22618C16.3192 9.4743 15.9835 9.82119 15.7488 10.2344C15.5141 10.6476 15.3881 11.1135 15.3825 11.5887C15.3841 12.1235 15.5426 12.6461 15.8382 13.0917C16.1339 13.5373 16.5538 13.8864 17.0459 14.0958C16.8519 14.7218 16.5647 15.315 16.1941 15.8556C15.6638 16.619 15.1093 17.3823 14.2656 17.3823C13.4219 17.3823 13.2049 16.8922 12.2325 16.8922C11.2843 16.8922 10.9468 17.3984 10.1754 17.3984C9.40396 17.3984 8.86563 16.6913 8.24686 15.8234C7.4295 14.6077 6.98029 13.1819 6.95312 11.7172C6.95312 9.30655 8.52011 8.02892 10.0629 8.02892C10.8826 8.02892 11.5656 8.56725 12.0799 8.56725C12.5701 8.56725 13.3335 7.99671 14.2656 7.99671C14.7448 7.98435 15.2198 8.09002 15.6485 8.30442C16.0773 8.51881 16.4468 8.83536 16.7245 9.22618ZM13.8236 6.97623C14.2345 6.49288 14.4671 5.88318 14.4826 5.24897C14.4833 5.16537 14.4752 5.08192 14.4584 5C13.7526 5.06895 13.1 5.40534 12.6343 5.94019C12.2195 6.40428 11.9781 6.9977 11.9513 7.6196C11.9516 7.69523 11.9597 7.77063 11.9754 7.84461C12.031 7.85512 12.0875 7.86051 12.1442 7.86071C12.4694 7.83483 12.7861 7.74307 13.0748 7.59102C13.3635 7.43897 13.6183 7.22981 13.8236 6.97623Z" fill="currentColor" />
  <defs>
    <linearGradient id="paint0_linear_6101_25011" x1="12" y1="0" x2="12" y2="24" gradientUnits="userSpaceOnUse">
      <stop offset="0.3125" stop-color="#242628" />
      <stop offset="1" stop-color="#1D1E20" />
    </linearGradient>
    <linearGradient id="paint1_linear_6101_25011" x1="12" y1="0" x2="12" y2="24" gradientUnits="userSpaceOnUse">
      <stop stop-color="white" />
      <stop offset="1" stop-color="white" stop-opacity="0.05" />
    </linearGradient>
  </defs>
</svg>