<svg width="21" height="20" viewBox="0 0 21 20" fill="none" xmlns="http://www.w3.org/2000/svg">
<mask id="mask0_16547_7364" style="mask-type:luminance" maskUnits="userSpaceOnUse" x="2" y="2" width="17" height="16">
<path d="M2.33301 2H18.333V18H2.33301V2Z" fill="white"/>
</mask>
<g mask="url(#mask0_16547_7364)">
<path d="M2.83301 17.5L4.85781 15.4744M4.85781 15.4744C4.20134 14.8179 3.83255 13.9284 3.83255 13C3.83255 12.0716 4.20134 11.1813 4.85781 10.5248L5.83301 9.5L10.8082 14.4752L9.80821 15.4752C9.15174 16.1317 8.26139 16.5005 7.33301 16.5005C6.40463 16.5005 5.51427 16.1309 4.85781 15.4744ZM8.83221 9.5L7.33301 11M10.833 11.5L9.33301 13M17.833 2.5L15.8082 4.5264M15.8082 9.4752C16.4647 8.81874 16.8335 7.92838 16.8335 7C16.8335 6.07162 16.4647 5.18126 15.8082 4.5248C15.1517 3.86834 14.2614 3.49954 13.333 3.49954C12.4046 3.49954 11.5143 3.86834 10.8578 4.5248L9.85781 5.5248L14.833 10.5L15.8082 9.4752Z" stroke="currentColor" stroke-width="1.5" stroke-linecap="round" stroke-linejoin="round"/>
</g>
</svg>
