<svg width="12" height="14" viewBox="0 0 12 14" fill="none" xmlns="http://www.w3.org/2000/svg">
<path d="M11.25 11.7396C11.25 11.933 11.171 12.1184 11.0303 12.2552C10.8897 12.3919 10.6989 12.4687 10.5 12.4687H1.5C1.30109 12.4687 1.11032 12.3919 0.96967 12.2552C0.829018 12.1184 0.75 11.933 0.75 11.7396V2.26042C0.75 2.06703 0.829018 1.88156 0.96967 1.74482C1.11032 1.60807 1.30109 1.53125 1.5 1.53125H9.0225C9.21827 1.53114 9.40633 1.60546 9.5465 1.73833L11.0235 3.13979C11.0952 3.20772 11.1521 3.2889 11.191 3.37857C11.2299 3.46823 11.25 3.56456 11.25 3.66188V11.7396Z" stroke="currentColor" stroke-linecap="round" stroke-linejoin="round"/>
<path d="M3.02246 5.17706H9.02246" stroke="currentColor" stroke-linecap="round" stroke-linejoin="round"/>
<path d="M3.02246 7.36456H9.02246" stroke="currentColor" stroke-linecap="round" stroke-linejoin="round"/>
<path d="M3.02246 9.55206H6.02246" stroke="currentColor" stroke-linecap="round" stroke-linejoin="round"/>
</svg>
