<svg width="21" height="20" viewBox="0 0 21 20" fill="none" xmlns="http://www.w3.org/2000/svg">
<mask id="mask0_16547_7358" style="mask-type:luminance" maskUnits="userSpaceOnUse" x="2" y="2" width="17" height="16">
<path d="M2.33301 2H18.333V18H2.33301V2Z" fill="white"/>
</mask>
<g mask="url(#mask0_16547_7358)">
<path d="M15.3327 8.49927C15.1648 8.49973 14.9973 8.51661 14.8327 8.54967V5.49847H11.7823C11.856 5.13538 11.8481 4.76044 11.7592 4.40078C11.6702 4.04111 11.5025 3.70572 11.268 3.41885C11.0335 3.13198 10.7382 2.90081 10.4034 2.74207C10.0687 2.58333 9.7028 2.50098 9.3323 2.50098C8.9618 2.50098 8.59593 2.58333 8.26116 2.74207C7.92639 2.90081 7.63109 3.13198 7.39661 3.41885C7.16214 3.70572 6.99436 4.04111 6.90541 4.40078C6.81646 4.76044 6.80857 5.13538 6.8823 5.49847H3.8335V8.54887C4.39755 8.6648 4.90432 8.97183 5.26822 9.41813C5.63212 9.86442 5.83085 10.4226 5.83085 10.9985C5.83085 11.5743 5.63212 12.1325 5.26822 12.5788C4.90432 13.0251 4.39755 13.3321 3.8335 13.4481V16.4985H6.8839C6.99944 15.934 7.30637 15.4267 7.75278 15.0624C8.19919 14.6981 8.75771 14.4992 9.3339 14.4992C9.91009 14.4992 10.4686 14.6981 10.915 15.0624C11.3614 15.4267 11.6683 15.934 11.7839 16.4985H14.8335V13.4481C15.1966 13.5215 15.5716 13.5133 15.9312 13.4243C16.2908 13.3353 16.6262 13.1676 16.9132 12.9332C17.2002 12.6989 17.4316 12.4038 17.5907 12.0693C17.7499 11.7347 17.8328 11.369 17.8335 10.9985C17.8335 10.3354 17.5701 9.69954 17.1013 9.2307C16.6324 8.76186 15.9965 8.49847 15.3335 8.49847L15.3327 8.49927Z" stroke="currentColor" stroke-width="1.5" stroke-linecap="round" stroke-linejoin="round"/>
</g>
</svg>
