<svg width="74" height="74" viewBox="0 0 74 74" fill="none" xmlns="http://www.w3.org/2000/svg">
<g filter="url(#filter0_i_18197_8156)">
<rect x="1" y="1" width="72" height="72" rx="18" fill="url(#paint0_radial_18197_8156)"/>
</g>
<mask id="mask0_18197_8156" style="mask-type:alpha" maskUnits="userSpaceOnUse" x="1" y="1" width="72" height="72">
<rect x="1.5" y="1.5" width="71" height="71" rx="17.5" stroke="white"/>
</mask>
<g mask="url(#mask0_18197_8156)">
<g opacity="0.3" filter="url(#filter1_f_18197_8156)">
<circle cx="37" cy="37" r="40" fill="#00E599"/>
</g>
</g>
<g filter="url(#filter2_f_18197_8156)">
<circle cx="37.0008" cy="37" r="16.2" fill="#00E599" fill-opacity="0.3"/>
</g>
<g filter="url(#filter3_d_18197_8156)">
<path fill-rule="evenodd" clip-rule="evenodd" d="M21.4164 25.9164C22.9635 24.3692 25.062 23.5 27.25 23.5C29.4372 23.5026 31.5342 24.3726 33.0808 25.9192C34.6274 27.4658 35.4974 29.5628 35.5 31.75C35.5 40.3232 30.901 46.9592 27.0437 51.0168C26.9737 51.0905 26.8893 51.1492 26.7958 51.1893C26.7024 51.2294 26.6017 51.25 26.5 51.25H25C24.8661 51.25 24.7347 51.2142 24.6193 51.1462C24.504 51.0783 24.4089 50.9807 24.344 50.8636C24.2791 50.7465 24.2467 50.6141 24.2503 50.4803C24.2538 50.3465 24.293 50.216 24.364 50.1025C26.3168 47.0404 27.5445 43.5727 27.9535 39.964C27.721 39.9842 27.4877 40 27.25 40C25.062 40 22.9635 39.1308 21.4164 37.5836C19.8692 36.0365 19 33.938 19 31.75C19 29.562 19.8692 27.4635 21.4164 25.9164ZM40.9144 25.9164C42.4616 24.3692 44.56 23.5 46.748 23.5C48.9353 23.5026 51.0322 24.3726 52.5788 25.9192C54.1254 27.4658 54.9955 29.5628 54.998 31.75C54.998 40.3232 50.399 46.9592 46.5418 51.0168C46.4717 51.0905 46.3874 51.1492 46.2939 51.1893C46.2004 51.2294 46.0998 51.25 45.998 51.25H44.498C44.3642 51.25 44.2327 51.2142 44.1174 51.1462C44.002 51.0783 43.907 50.9807 43.8421 50.8636C43.7772 50.7465 43.7448 50.6141 43.7483 50.4803C43.7518 50.3465 43.7911 50.216 43.862 50.1025C45.8149 47.0404 47.0426 43.5727 47.4515 39.964C47.219 39.9842 46.9858 40 46.748 40C44.56 40 42.4616 39.1308 40.9144 37.5836C39.3672 36.0365 38.498 33.938 38.498 31.75C38.498 29.562 39.3672 27.4635 40.9144 25.9164Z" fill="#00E599"/>
<path fill-rule="evenodd" clip-rule="evenodd" d="M21.4164 25.9164C22.9635 24.3692 25.062 23.5 27.25 23.5C29.4372 23.5026 31.5342 24.3726 33.0808 25.9192C34.6274 27.4658 35.4974 29.5628 35.5 31.75C35.5 40.3232 30.901 46.9592 27.0437 51.0168C26.9737 51.0905 26.8893 51.1492 26.7958 51.1893C26.7024 51.2294 26.6017 51.25 26.5 51.25H25C24.8661 51.25 24.7347 51.2142 24.6193 51.1462C24.504 51.0783 24.4089 50.9807 24.344 50.8636C24.2791 50.7465 24.2467 50.6141 24.2503 50.4803C24.2538 50.3465 24.293 50.216 24.364 50.1025C26.3168 47.0404 27.5445 43.5727 27.9535 39.964C27.721 39.9842 27.4877 40 27.25 40C25.062 40 22.9635 39.1308 21.4164 37.5836C19.8692 36.0365 19 33.938 19 31.75C19 29.562 19.8692 27.4635 21.4164 25.9164ZM40.9144 25.9164C42.4616 24.3692 44.56 23.5 46.748 23.5C48.9353 23.5026 51.0322 24.3726 52.5788 25.9192C54.1254 27.4658 54.9955 29.5628 54.998 31.75C54.998 40.3232 50.399 46.9592 46.5418 51.0168C46.4717 51.0905 46.3874 51.1492 46.2939 51.1893C46.2004 51.2294 46.0998 51.25 45.998 51.25H44.498C44.3642 51.25 44.2327 51.2142 44.1174 51.1462C44.002 51.0783 43.907 50.9807 43.8421 50.8636C43.7772 50.7465 43.7448 50.6141 43.7483 50.4803C43.7518 50.3465 43.7911 50.216 43.862 50.1025C45.8149 47.0404 47.0426 43.5727 47.4515 39.964C47.219 39.9842 46.9858 40 46.748 40C44.56 40 42.4616 39.1308 40.9144 37.5836C39.3672 36.0365 38.498 33.938 38.498 31.75C38.498 29.562 39.3672 27.4635 40.9144 25.9164Z" fill="url(#paint1_radial_18197_8156)"/>
</g>
<defs>
<filter id="filter0_i_18197_8156" x="-3" y="-3" width="76" height="76" filterUnits="userSpaceOnUse" color-interpolation-filters="sRGB">
<feFlood flood-opacity="0" result="BackgroundImageFix"/>
<feBlend mode="normal" in="SourceGraphic" in2="BackgroundImageFix" result="shape"/>
<feColorMatrix in="SourceAlpha" type="matrix" values="0 0 0 0 0 0 0 0 0 0 0 0 0 0 0 0 0 0 127 0" result="hardAlpha"/>
<feOffset dx="-4" dy="-4"/>
<feGaussianBlur stdDeviation="5"/>
<feComposite in2="hardAlpha" operator="arithmetic" k2="-1" k3="1"/>
<feColorMatrix type="matrix" values="0 0 0 0 0 0 0 0 0 0 0 0 0 0 0 0 0 0 0.08 0"/>
<feBlend mode="normal" in2="shape" result="effect1_innerShadow_18197_8156"/>
</filter>
<filter id="filter1_f_18197_8156" x="-17" y="-17" width="108" height="108" filterUnits="userSpaceOnUse" color-interpolation-filters="sRGB">
<feFlood flood-opacity="0" result="BackgroundImageFix"/>
<feBlend mode="normal" in="SourceGraphic" in2="BackgroundImageFix" result="shape"/>
<feGaussianBlur stdDeviation="7" result="effect1_foregroundBlur_18197_8156"/>
</filter>
<filter id="filter2_f_18197_8156" x="0.800781" y="0.800049" width="72.3984" height="72.4" filterUnits="userSpaceOnUse" color-interpolation-filters="sRGB">
<feFlood flood-opacity="0" result="BackgroundImageFix"/>
<feBlend mode="normal" in="SourceGraphic" in2="BackgroundImageFix" result="shape"/>
<feGaussianBlur stdDeviation="10" result="effect1_foregroundBlur_18197_8156"/>
</filter>
<filter id="filter3_d_18197_8156" x="13" y="21.5" width="48" height="39.75" filterUnits="userSpaceOnUse" color-interpolation-filters="sRGB">
<feFlood flood-opacity="0" result="BackgroundImageFix"/>
<feColorMatrix in="SourceAlpha" type="matrix" values="0 0 0 0 0 0 0 0 0 0 0 0 0 0 0 0 0 0 127 0" result="hardAlpha"/>
<feOffset dy="4"/>
<feGaussianBlur stdDeviation="3"/>
<feComposite in2="hardAlpha" operator="out"/>
<feColorMatrix type="matrix" values="0 0 0 0 0.0475 0 0 0 0 0.0491667 0 0 0 0 0.0525 0 0 0 0.6 0"/>
<feBlend mode="normal" in2="BackgroundImageFix" result="effect1_dropShadow_18197_8156"/>
<feBlend mode="normal" in="SourceGraphic" in2="effect1_dropShadow_18197_8156" result="shape"/>
</filter>
<radialGradient id="paint0_radial_18197_8156" cx="0" cy="0" r="1" gradientUnits="userSpaceOnUse" gradientTransform="translate(37 1) rotate(90) scale(72)">
<stop offset="0.549694" stop-color="#18191B"/>
<stop offset="1" stop-color="#131415"/>
</radialGradient>
<radialGradient id="paint1_radial_18197_8156" cx="0" cy="0" r="1" gradientUnits="userSpaceOnUse" gradientTransform="translate(36.999 23.5) rotate(90) scale(27.75 35.998)">
<stop stop-color="white" stop-opacity="0.6"/>
<stop offset="0.746322" stop-color="white" stop-opacity="0"/>
</radialGradient>
</defs>
</svg>
