<svg xmlns="http://www.w3.org/2000/svg" width="252" height="208" fill="none" viewBox="0 0 252 208"><mask id="c" fill="white"><path fill-rule="evenodd" d="M211.056 166.274a44.964 44.964 0 0 1-31.797 13.171 45.021 45.021 0 0 1-44.968-44.968c0-46.73 25.067-82.9 46.092-105.016a4.083 4.083 0 0 1 2.964-1.272h8.176a4.085 4.085 0 0 1 4.086 4.196 4.084 4.084 0 0 1-.62 2.059 130 130 0 0 0-19.565 55.261c1.267-.11 2.539-.196 3.835-.196a44.968 44.968 0 0 1 31.797 76.765Zm-106.285 0a44.966 44.966 0 0 1-31.798 13.171 45.021 45.021 0 0 1-44.968-44.968c0-46.73 25.068-82.9 46.093-105.016a4.089 4.089 0 0 1 2.963-1.272h8.176a4.089 4.089 0 0 1 3.467 6.255 129.998 129.998 0 0 0-19.565 55.261c1.267-.11 2.538-.196 3.834-.196a44.97 44.97 0 0 1 44.968 44.968 44.966 44.966 0 0 1-13.17 31.797Z" clip-rule="evenodd"/></mask><path fill="url(#a)" fill-rule="evenodd" d="M211.056 166.274a44.964 44.964 0 0 1-31.797 13.171 45.021 45.021 0 0 1-44.968-44.968c0-46.73 25.067-82.9 46.092-105.016a4.083 4.083 0 0 1 2.964-1.272h8.176a4.085 4.085 0 0 1 4.086 4.196 4.084 4.084 0 0 1-.62 2.059 130 130 0 0 0-19.565 55.261c1.267-.11 2.539-.196 3.835-.196a44.968 44.968 0 0 1 31.797 76.765Zm-106.285 0a44.966 44.966 0 0 1-31.798 13.171 45.021 45.021 0 0 1-44.968-44.968c0-46.73 25.068-82.9 46.093-105.016a4.089 4.089 0 0 1 2.963-1.272h8.176a4.089 4.089 0 0 1 3.467 6.255 129.998 129.998 0 0 0-19.565 55.261c1.267-.11 2.538-.196 3.834-.196a44.97 44.97 0 0 1 44.968 44.968 44.966 44.966 0 0 1-13.17 31.797Z" clip-rule="evenodd"/><path fill="url(#b)" d="m179.259 179.445-.003 1.792h.003v-1.792Zm-31.782-13.186 1.267-1.267-1.267 1.267Zm-13.186-31.782h-1.792v.002l1.792-.002Zm46.092-105.016-1.299-1.235 1.299 1.235Zm1.351-.94.706 1.646-.706-1.647Zm1.613-.332-.001 1.792h.001V28.19Zm10.25.566-.909 1.544.909-1.544Zm1.501 1.54-1.567.87 1.567-.87Zm-.109 4.149 1.511.963.004-.006.005-.007-1.52-.95Zm-19.565 55.261-1.781-.201-.246 2.177 2.182-.19-.155-1.785Zm35.632 12.975-1.267 1.267 1.267-1.267ZM72.973 179.445l-.002 1.792h.002v-1.792Zm-31.781-13.186-1.267 1.267 1.267-1.267Zm-13.187-31.782h-1.792v.002l1.792-.002ZM74.098 29.461l-1.3-1.235 1.3 1.235Zm1.35-.94.707 1.646-.706-1.647Zm1.613-.332v1.792-1.792Zm10.251.566-.91 1.544.91-1.544Zm1.5 1.54-1.566.87 1.567-.87Zm.512 2.09-1.791-.047 1.791.047Zm-.62 2.059 1.51.963.005-.006.005-.007-1.52-.95ZM69.139 89.705l-1.78-.201-.247 2.177 2.182-.19-.155-1.785Zm35.632 12.975-1.268 1.267 1.268-1.267Zm74.488 78.557a46.76 46.76 0 0 0 33.064-13.695l-2.534-2.535a43.176 43.176 0 0 1-30.53 12.646v3.584Zm-33.049-13.711a46.807 46.807 0 0 0 33.046 13.711l.005-3.584a43.23 43.23 0 0 1-30.517-12.661l-2.534 2.534Zm-13.711-33.047a46.81 46.81 0 0 0 13.711 33.047l2.534-2.534a43.225 43.225 0 0 1-12.661-30.517l-3.584.004Zm46.585-106.253c-21.171 22.27-46.585 58.863-46.585 106.251h3.584c0-46.071 24.72-81.82 45.599-103.782l-2.598-2.47Zm1.944-1.353a5.877 5.877 0 0 0-1.944 1.353l2.598 2.47c.214-.226.472-.406.758-.529l-1.412-3.294Zm2.319-.476c-.797 0-1.587.162-2.319.476l1.412 3.294c.287-.123.595-.186.906-.186l.001-3.584Zm8.176 0h-8.176v3.584h8.176v-3.584Zm2.984.814a5.88 5.88 0 0 0-2.984-.814v3.584c.409 0 .812.11 1.165.318l1.819-3.088Zm2.158 2.216a5.876 5.876 0 0 0-2.158-2.216l-1.819 3.088a2.3 2.3 0 0 1 .843.865l3.134-1.737Zm.736 3.005a5.884 5.884 0 0 0-.736-3.005l-3.134 1.737a2.3 2.3 0 0 1 .287 1.173l3.583.095Zm-.892 2.962c.556-.89.864-1.913.892-2.962l-3.583-.095a2.3 2.3 0 0 1-.348 1.157l3.039 1.9Zm-19.304 54.513a128.208 128.208 0 0 1 19.295-54.5l-3.022-1.927a131.792 131.792 0 0 0-19.835 56.024l3.562.403Zm2.054-2.19c-1.373 0-2.703.091-3.99.203l.31 3.57c1.248-.108 2.46-.189 3.68-.189v-3.584Zm33.064 13.696a46.76 46.76 0 0 0-33.064-13.696v3.584a43.177 43.177 0 0 1 30.53 12.646l2.534-2.534Zm13.696 33.064a46.761 46.761 0 0 0-13.696-33.064l-2.534 2.534a43.176 43.176 0 0 1 12.646 30.53h3.584Zm-13.696 33.065a46.763 46.763 0 0 0 13.696-33.065h-3.584a43.176 43.176 0 0 1-12.646 30.53l2.534 2.535Zm-139.35 13.695a46.761 46.761 0 0 0 33.065-13.695l-2.535-2.535a43.174 43.174 0 0 1-30.53 12.646v3.584Zm-33.048-13.711a46.809 46.809 0 0 0 33.046 13.711l.004-3.584a43.229 43.229 0 0 1-30.516-12.661l-2.534 2.534Zm-13.712-33.047a46.814 46.814 0 0 0 13.712 33.047l2.534-2.534a43.23 43.23 0 0 1-12.662-30.517l-3.584.004ZM72.8 28.226c-21.171 22.27-46.586 58.863-46.586 106.251h3.584c0-46.071 24.721-81.82 45.6-103.782l-2.598-2.47Zm1.943-1.353a5.882 5.882 0 0 0-1.943 1.353l2.597 2.47c.215-.226.473-.406.76-.529l-1.414-3.294Zm2.32-.476a5.88 5.88 0 0 0-2.32.476l1.413 3.294c.287-.123.595-.186.906-.186v-3.584Zm8.175 0h-8.176v3.584h8.176v-3.584Zm2.985.814a5.88 5.88 0 0 0-2.985-.814v3.584c.41 0 .813.11 1.166.318l1.819-3.088Zm2.158 2.216a5.88 5.88 0 0 0-2.158-2.216l-1.82 3.088c.354.208.645.507.844.865l3.134-1.737Zm.735 3.005a5.88 5.88 0 0 0-.735-3.005l-3.134 1.737c.198.359.297.764.287 1.173l3.582.095Zm-.891 2.962a5.88 5.88 0 0 0 .891-2.962l-3.582-.095c-.011.41-.131.81-.349 1.157l3.04 1.9ZM70.919 89.907a128.206 128.206 0 0 1 19.296-54.5l-3.022-1.927a131.792 131.792 0 0 0-19.835 56.024l3.561.403Zm2.054-2.19c-1.372 0-2.702.091-3.99.203l.311 3.57c1.248-.108 2.46-.189 3.68-.189v-3.584Zm33.065 13.696a46.76 46.76 0 0 0-33.065-13.696v3.584a43.175 43.175 0 0 1 30.53 12.646l2.535-2.534Zm13.695 33.064a46.76 46.76 0 0 0-13.695-33.064l-2.535 2.534a43.172 43.172 0 0 1 12.646 30.53h3.584Zm-13.695 33.065a46.762 46.762 0 0 0 13.695-33.065h-3.584a43.172 43.172 0 0 1-12.646 30.53l2.535 2.535Z" mask="url(#c)"/><path fill="url(#d)" d="m179.259 179.445-.003 1.792h.003v-1.792Zm-31.782-13.186 1.267-1.267-1.267 1.267Zm-13.186-31.782h-1.792v.002l1.792-.002Zm46.092-105.016-1.299-1.235 1.299 1.235Zm1.351-.94.706 1.646-.706-1.647Zm1.613-.332-.001 1.792h.001V28.19Zm10.25.566-.909 1.544.909-1.544Zm1.501 1.54-1.567.87 1.567-.87Zm-.109 4.149 1.511.963.004-.006.005-.007-1.52-.95Zm-19.565 55.261-1.781-.201-.246 2.177 2.182-.19-.155-1.785Zm35.632 12.975-1.267 1.267 1.267-1.267ZM72.973 179.445l-.002 1.792h.002v-1.792Zm-31.781-13.186-1.267 1.267 1.267-1.267Zm-13.187-31.782h-1.792v.002l1.792-.002ZM74.098 29.461l-1.3-1.235 1.3 1.235Zm1.35-.94.707 1.646-.706-1.647Zm1.613-.332v1.792-1.792Zm10.251.566-.91 1.544.91-1.544Zm1.5 1.54-1.566.87 1.567-.87Zm.512 2.09-1.791-.047 1.791.047Zm-.62 2.059 1.51.963.005-.006.005-.007-1.52-.95ZM69.139 89.705l-1.78-.201-.247 2.177 2.182-.19-.155-1.785Zm35.632 12.975-1.268 1.267 1.268-1.267Zm74.488 78.557a46.76 46.76 0 0 0 33.064-13.695l-2.534-2.535a43.176 43.176 0 0 1-30.53 12.646v3.584Zm-33.049-13.711a46.807 46.807 0 0 0 33.046 13.711l.005-3.584a43.23 43.23 0 0 1-30.517-12.661l-2.534 2.534Zm-13.711-33.047a46.81 46.81 0 0 0 13.711 33.047l2.534-2.534a43.225 43.225 0 0 1-12.661-30.517l-3.584.004Zm46.585-106.253c-21.171 22.27-46.585 58.863-46.585 106.251h3.584c0-46.071 24.72-81.82 45.599-103.782l-2.598-2.47Zm1.944-1.353a5.877 5.877 0 0 0-1.944 1.353l2.598 2.47c.214-.226.472-.406.758-.529l-1.412-3.294Zm2.319-.476c-.797 0-1.587.162-2.319.476l1.412 3.294c.287-.123.595-.186.906-.186l.001-3.584Zm8.176 0h-8.176v3.584h8.176v-3.584Zm2.984.814a5.88 5.88 0 0 0-2.984-.814v3.584c.409 0 .812.11 1.165.318l1.819-3.088Zm2.158 2.216a5.876 5.876 0 0 0-2.158-2.216l-1.819 3.088a2.3 2.3 0 0 1 .843.865l3.134-1.737Zm.736 3.005a5.884 5.884 0 0 0-.736-3.005l-3.134 1.737a2.3 2.3 0 0 1 .287 1.173l3.583.095Zm-.892 2.962c.556-.89.864-1.913.892-2.962l-3.583-.095a2.3 2.3 0 0 1-.348 1.157l3.039 1.9Zm-19.304 54.513a128.208 128.208 0 0 1 19.295-54.5l-3.022-1.927a131.792 131.792 0 0 0-19.835 56.024l3.562.403Zm2.054-2.19c-1.373 0-2.703.091-3.99.203l.31 3.57c1.248-.108 2.46-.189 3.68-.189v-3.584Zm33.064 13.696a46.76 46.76 0 0 0-33.064-13.696v3.584a43.177 43.177 0 0 1 30.53 12.646l2.534-2.534Zm13.696 33.064a46.761 46.761 0 0 0-13.696-33.064l-2.534 2.534a43.176 43.176 0 0 1 12.646 30.53h3.584Zm-13.696 33.065a46.763 46.763 0 0 0 13.696-33.065h-3.584a43.176 43.176 0 0 1-12.646 30.53l2.534 2.535Zm-139.35 13.695a46.761 46.761 0 0 0 33.065-13.695l-2.535-2.535a43.174 43.174 0 0 1-30.53 12.646v3.584Zm-33.048-13.711a46.809 46.809 0 0 0 33.046 13.711l.004-3.584a43.229 43.229 0 0 1-30.516-12.661l-2.534 2.534Zm-13.712-33.047a46.814 46.814 0 0 0 13.712 33.047l2.534-2.534a43.23 43.23 0 0 1-12.662-30.517l-3.584.004ZM72.8 28.226c-21.171 22.27-46.586 58.863-46.586 106.251h3.584c0-46.071 24.721-81.82 45.6-103.782l-2.598-2.47Zm1.943-1.353a5.882 5.882 0 0 0-1.943 1.353l2.597 2.47c.215-.226.473-.406.76-.529l-1.414-3.294Zm2.32-.476a5.88 5.88 0 0 0-2.32.476l1.413 3.294c.287-.123.595-.186.906-.186v-3.584Zm8.175 0h-8.176v3.584h8.176v-3.584Zm2.985.814a5.88 5.88 0 0 0-2.985-.814v3.584c.41 0 .813.11 1.166.318l1.819-3.088Zm2.158 2.216a5.88 5.88 0 0 0-2.158-2.216l-1.82 3.088c.354.208.645.507.844.865l3.134-1.737Zm.735 3.005a5.88 5.88 0 0 0-.735-3.005l-3.134 1.737c.198.359.297.764.287 1.173l3.582.095Zm-.891 2.962a5.88 5.88 0 0 0 .891-2.962l-3.582-.095c-.011.41-.131.81-.349 1.157l3.04 1.9ZM70.919 89.907a128.206 128.206 0 0 1 19.296-54.5l-3.022-1.927a131.792 131.792 0 0 0-19.835 56.024l3.561.403Zm2.054-2.19c-1.372 0-2.702.091-3.99.203l.311 3.57c1.248-.108 2.46-.189 3.68-.189v-3.584Zm33.065 13.696a46.76 46.76 0 0 0-33.065-13.696v3.584a43.175 43.175 0 0 1 30.53 12.646l2.535-2.534Zm13.695 33.064a46.76 46.76 0 0 0-13.695-33.064l-2.535 2.534a43.172 43.172 0 0 1 12.646 30.53h3.584Zm-13.695 33.065a46.762 46.762 0 0 0 13.695-33.065h-3.584a43.172 43.172 0 0 1-12.646 30.53l2.535 2.535Z" mask="url(#c)"/><g filter="url(#e)"><path fill="url(#f)" d="m179.255 179.445-.001.448h.001v-.448Zm-31.782-13.186.317-.317-.317.317Zm-13.186-31.782h-.448v.001l.448-.001Zm46.092-105.016-.325-.31.325.31Zm1.351-.94.177.411-.177-.412Zm1.613-.332v.448-.448Zm10.251.566-.228.386.228-.386Zm1.5 1.54-.392.218.392-.218Zm-.109 4.149.378.24.002-.003-.38-.237ZM175.42 89.705l-.445-.05-.062.544.546-.047-.039-.447Zm35.632 12.975-.317.317.317-.317ZM72.97 179.445l-.001.448v-.448Zm-31.782-13.186-.317.317.317-.317ZM28 134.477h-.448v.001l.448-.001ZM74.095 29.461l-.325-.31.325.31Zm1.35-.94.177.411-.176-.412Zm1.614-.332v.448-.448Zm10.25.566-.227.386.227-.386Zm1.501 1.54-.392.218.392-.218Zm.511 2.09-.448-.012.448.012Zm-.62 2.059.378.24.002-.003-.38-.237ZM69.135 89.705l-.445-.05-.062.544.546-.047-.04-.447Zm35.632 12.975-.317.317.317-.317Zm74.488 77.213a45.418 45.418 0 0 0 32.114-13.302l-.634-.633a44.52 44.52 0 0 1-31.48 13.039v.896Zm-32.099-13.317a45.469 45.469 0 0 0 32.098 13.317l.001-.896a44.573 44.573 0 0 1-31.465-13.055l-.634.634Zm-13.317-32.098a45.469 45.469 0 0 0 13.317 32.098l.634-.634a44.573 44.573 0 0 1-13.055-31.465l-.896.001Zm46.215-105.326c-21.061 22.154-46.215 58.43-46.215 105.325h.896c0-46.565 24.981-82.63 45.969-104.708l-.65-.617Zm1.499-1.043a4.54 4.54 0 0 0-1.499 1.043l.65.617c.34-.357.749-.642 1.203-.837l-.354-.823Zm1.79-.368c-.615 0-1.224.125-1.79.368l.354.823a3.638 3.638 0 0 1 1.436-.295v-.896Zm8.176 0h-8.176v.896h8.176v-.896Zm2.302.628a4.538 4.538 0 0 0-2.302-.628v.896a3.64 3.64 0 0 1 1.847.504l.455-.772Zm1.665 1.71a4.53 4.53 0 0 0-1.665-1.71l-.455.772c.56.33 1.021.803 1.336 1.372l.784-.435Zm.567 2.317a4.534 4.534 0 0 0-.567-2.318l-.784.435a3.64 3.64 0 0 1 .455 1.86l.896.023Zm-.688 2.285a4.535 4.535 0 0 0 .688-2.285l-.896-.023a3.633 3.633 0 0 1-.552 1.833l.76.475Zm-19.5 55.075a129.552 129.552 0 0 1 19.498-55.071l-.755-.482a130.448 130.448 0 0 0-19.633 55.452l.89.1Zm3.39-.695c-1.315 0-2.602.087-3.874.198l.078.893c1.262-.11 2.519-.195 3.796-.195v-.896Zm32.114 13.302a45.418 45.418 0 0 0-32.114-13.302v.896a44.52 44.52 0 0 1 31.48 13.04l.634-.634Zm13.302 32.114a45.417 45.417 0 0 0-13.302-32.114l-.634.634a44.52 44.52 0 0 1 13.04 31.48h.896Zm-13.302 32.114a45.417 45.417 0 0 0 13.302-32.114h-.896a44.521 44.521 0 0 1-13.04 31.481l.634.633Zm-138.4 13.302a45.415 45.415 0 0 0 32.114-13.302l-.633-.633a44.52 44.52 0 0 1-31.48 13.039v.896Zm-32.098-13.317a45.468 45.468 0 0 0 32.098 13.317l.001-.896a44.574 44.574 0 0 1-31.465-13.055l-.634.634Zm-13.318-32.098a45.47 45.47 0 0 0 13.318 32.098l.634-.634a44.572 44.572 0 0 1-13.056-31.465l-.896.001ZM73.77 29.152c-21.061 22.154-46.216 58.43-46.216 105.325h.896c0-46.565 24.981-82.63 45.97-104.708l-.65-.617Zm1.5-1.043a4.536 4.536 0 0 0-1.5 1.043l.65.617a3.64 3.64 0 0 1 1.203-.837l-.354-.823Zm1.789-.368c-.616 0-1.224.125-1.79.368l.354.823a3.64 3.64 0 0 1 1.435-.295v-.896Zm8.175 0h-8.175v.896h8.175v-.896Zm2.303.628a4.537 4.537 0 0 0-2.302-.628v.896c.65 0 1.287.174 1.847.504l.455-.772Zm1.665 1.71a4.536 4.536 0 0 0-1.665-1.71l-.455.772a3.64 3.64 0 0 1 1.336 1.372l.784-.435Zm.567 2.317a4.536 4.536 0 0 0-.567-2.318l-.784.435a3.64 3.64 0 0 1 .455 1.86l.896.023Zm-.688 2.285c.43-.686.667-1.475.688-2.285l-.896-.023a3.64 3.64 0 0 1-.552 1.833l.76.475Zm-19.5 55.075a129.549 129.549 0 0 1 19.498-55.071l-.756-.482A130.446 130.446 0 0 0 68.69 89.655l.89.1Zm3.39-.695c-1.316 0-2.602.087-3.874.198l.078.893c1.262-.11 2.519-.195 3.795-.195v-.896Zm32.113 13.302a45.415 45.415 0 0 0-32.114-13.302v.896a44.52 44.52 0 0 1 31.481 13.04l.633-.634Zm13.302 32.114a45.412 45.412 0 0 0-13.302-32.114l-.633.634a44.52 44.52 0 0 1 13.04 31.48h.895Zm-13.302 32.114a45.412 45.412 0 0 0 13.302-32.114h-.895a44.521 44.521 0 0 1-13.04 31.481l.633.633Z"/></g><g filter="url(#g)"><mask id="i" fill="white"><path fill-rule="evenodd" d="M211.048 166.274a44.964 44.964 0 0 1-31.797 13.171 45.021 45.021 0 0 1-44.968-44.968c0-46.73 25.067-82.9 46.092-105.016a4.093 4.093 0 0 1 2.964-1.272h8.176a4.092 4.092 0 0 1 3.575 2.107 4.087 4.087 0 0 1-.109 4.148 130 130 0 0 0-19.565 55.261c1.267-.11 2.539-.196 3.835-.196a44.968 44.968 0 0 1 31.797 76.765Zm-106.285 0a44.966 44.966 0 0 1-31.797 13.171 45.02 45.02 0 0 1-44.968-44.968c0-46.73 25.067-82.9 46.092-105.016a4.089 4.089 0 0 1 2.964-1.272h8.176a4.089 4.089 0 0 1 3.466 6.255 129.999 129.999 0 0 0-19.565 55.261c1.267-.11 2.539-.196 3.835-.196a44.97 44.97 0 0 1 31.797 76.765Z" clip-rule="evenodd"/></mask><path fill="url(#h)" d="m179.251 179.445-.001.896h.001v-.896Zm-31.782-13.186.634-.634-.634.634Zm-13.186-31.782h-.896v.001l.896-.001Zm46.092-105.016-.649-.618.649.618Zm1.351-.94.353.823-.353-.824Zm1.613-.332v.896-.896Zm10.251.566-.455.772.455-.772Zm1.5 1.54-.783.435.783-.434Zm-.109 4.149.756.482.004-.007-.76-.475Zm-19.565 55.261-.89-.1-.123 1.088 1.091-.095-.078-.892Zm35.632 12.975-.634.634.634-.634ZM72.966 179.445l-.001.896v-.896Zm-31.782-13.186-.634.634.634-.634Zm-13.186-31.782h-.896v.001l.896-.001ZM74.09 29.461l-.65-.618.65.618Zm1.351-.94.353.823-.353-.824Zm1.613-.332v.896-.896Zm10.25.566-.454.772.455-.772Zm1.501 1.54-.784.435.784-.434Zm.511 2.09-.895-.024.895.024Zm-.62 2.059.756.482.004-.007-.76-.475ZM69.131 89.705l-.89-.1-.124 1.088 1.092-.095-.078-.892Zm35.632 12.975-.634.634.634-.634Zm74.488 77.661a45.862 45.862 0 0 0 32.43-13.433l-1.267-1.267a44.072 44.072 0 0 1-31.163 12.908v1.792Zm-32.415-13.448a45.915 45.915 0 0 0 32.414 13.448l.002-1.792a44.118 44.118 0 0 1-31.149-12.924l-1.267 1.268Zm-13.449-32.415a45.916 45.916 0 0 0 13.449 32.415l1.267-1.268a44.122 44.122 0 0 1-12.924-31.149l-1.792.002Zm46.339-105.635c-21.098 22.193-46.339 58.575-46.339 105.634h1.792c0-46.4 24.894-82.36 45.845-104.4l-1.298-1.234Zm1.647-1.146a4.977 4.977 0 0 0-1.647 1.146l1.298 1.235a3.206 3.206 0 0 1 1.055-.734l-.706-1.647Zm1.966-.404c-.676 0-1.345.137-1.966.404l.706 1.647c.398-.17.827-.259 1.26-.259v-1.792Zm8.176 0h-8.176v1.792h8.176v-1.792Zm2.529.69a4.982 4.982 0 0 0-2.529-.69v1.792c.57 0 1.129.153 1.62.442l.909-1.544Zm1.83 1.878a4.98 4.98 0 0 0-1.83-1.878l-.909 1.544c.491.29.895.704 1.172 1.203l1.567-.869Zm.623 2.547a4.99 4.99 0 0 0-.623-2.547l-1.567.869c.276.498.414 1.061.399 1.631l1.791.047Zm-.756 2.51a4.976 4.976 0 0 0 .756-2.51l-1.791-.047a3.192 3.192 0 0 1-.484 1.608l1.519.95Zm-19.435 54.888a129.105 129.105 0 0 1 19.431-54.88l-1.511-.964a130.882 130.882 0 0 0-19.7 55.643l1.78.201Zm2.945-1.193c-1.334 0-2.635.089-3.913.2l.156 1.785c1.257-.11 2.499-.193 3.757-.193v-1.792Zm32.43 13.434a45.86 45.86 0 0 0-32.43-13.434v1.792a44.07 44.07 0 0 1 31.163 12.909l1.267-1.267Zm13.434 32.43a45.859 45.859 0 0 0-13.434-32.43l-1.267 1.267a44.073 44.073 0 0 1 12.909 31.163h1.792Zm-13.434 32.431a45.861 45.861 0 0 0 13.434-32.431h-1.792a44.073 44.073 0 0 1-12.909 31.164l1.267 1.267ZM72.966 180.341a45.863 45.863 0 0 0 32.43-13.433l-1.267-1.267a44.071 44.071 0 0 1-31.163 12.908v1.792ZM40.55 166.893a45.918 45.918 0 0 0 32.415 13.448l.002-1.792a44.119 44.119 0 0 1-31.15-12.924l-1.267 1.268Zm-13.448-32.415a45.918 45.918 0 0 0 13.448 32.415l1.268-1.268a44.123 44.123 0 0 1-12.924-31.149l-1.792.002ZM73.44 28.843C52.343 51.036 27.102 87.418 27.102 134.477h1.792c0-46.4 24.894-82.36 45.845-104.4l-1.299-1.234Zm1.648-1.146a4.984 4.984 0 0 0-1.648 1.146l1.3 1.235a3.19 3.19 0 0 1 1.054-.734l-.706-1.647Zm1.966-.404c-.676 0-1.345.137-1.966.404l.706 1.647c.398-.17.827-.259 1.26-.259v-1.792Zm8.176 0h-8.176v1.792h8.176v-1.792Zm2.53.69a4.985 4.985 0 0 0-2.53-.69v1.792c.57 0 1.129.153 1.62.442l.91-1.544Zm1.829 1.878a4.985 4.985 0 0 0-1.83-1.878l-.91 1.544c.492.29.896.704 1.172 1.203l1.568-.869Zm.623 2.547a4.985 4.985 0 0 0-.623-2.547l-1.567.869c.276.498.413 1.061.398 1.631l1.792.047Zm-.756 2.51a4.984 4.984 0 0 0 .756-2.51l-1.791-.047a3.192 3.192 0 0 1-.485 1.608l1.52.95ZM70.021 89.807a129.103 129.103 0 0 1 19.43-54.88l-1.51-.964a130.894 130.894 0 0 0-19.7 55.643l1.78.201Zm2.945-1.193c-1.334 0-2.635.089-3.913.2l.156 1.785c1.257-.11 2.499-.193 3.757-.193v-1.792Zm32.43 13.434a45.861 45.861 0 0 0-32.43-13.434v1.792a44.07 44.07 0 0 1 31.163 12.909l1.267-1.267Zm13.434 32.43a45.859 45.859 0 0 0-13.434-32.43l-1.267 1.267a44.073 44.073 0 0 1 12.909 31.163h1.792Zm-13.434 32.431a45.861 45.861 0 0 0 13.434-32.431h-1.792a44.073 44.073 0 0 1-12.909 31.164l1.267 1.267Z" mask="url(#i)"/></g><g filter="url(#j)"><path fill="url(#k)" d="m179.255 179.445-.001.896h.001v-.896Zm-31.782-13.186.634-.634-.634.634Zm-13.186-31.782h-.896v.001l.896-.001Zm46.092-105.016-.65-.618.65.618Zm1.351-.94.353.823-.353-.824Zm1.613-.332-.001.896h.001v-.896Zm10.251.566-.455.772.455-.772Zm1.5 1.54-.783.435.783-.434Zm-.109 4.149.756.482.004-.007-.76-.475ZM175.42 89.705l-.89-.1-.124 1.088 1.092-.095-.078-.892Zm35.632 12.975-.634.634.634-.634ZM72.97 179.445l-.002.896h.001v-.896Zm-31.782-13.186-.634.634.634-.634ZM28 134.477h-.896v.001l.896-.001ZM74.095 29.461l-.65-.618.65.618Zm1.35-.94.354.823-.353-.824Zm1.614-.332v.896-.896Zm10.25.566-.454.772.454-.772Zm1.501 1.54-.784.435.784-.434Zm.511 2.09-.896-.024.896.024Zm-.62 2.059.756.482.004-.007-.76-.475ZM69.135 89.705l-.89-.1-.124 1.088 1.092-.095-.078-.892Zm35.632 12.975-.634.634.634-.634Zm74.488 77.661a45.862 45.862 0 0 0 32.43-13.433l-1.267-1.267a44.072 44.072 0 0 1-31.163 12.908v1.792Zm-32.416-13.448a45.92 45.92 0 0 0 32.415 13.448l.002-1.792a44.118 44.118 0 0 1-31.149-12.924l-1.268 1.268Zm-13.448-32.415a45.92 45.92 0 0 0 13.448 32.415l1.268-1.268a44.118 44.118 0 0 1-12.924-31.149l-1.792.002Zm46.338-105.635c-21.097 22.193-46.338 58.575-46.338 105.634h1.792c0-46.4 24.894-82.36 45.845-104.4l-1.299-1.234Zm1.648-1.146a4.991 4.991 0 0 0-1.648 1.146l1.299 1.235a3.186 3.186 0 0 1 1.055-.734l-.706-1.647Zm1.966-.404c-.676 0-1.345.137-1.966.404l.706 1.647c.398-.17.827-.259 1.259-.259l.001-1.792Zm8.176 0h-8.176v1.792h8.176v-1.792Zm2.529.69a4.982 4.982 0 0 0-2.529-.69v1.792c.569 0 1.129.153 1.62.442l.909-1.544Zm1.83 1.878a4.98 4.98 0 0 0-1.83-1.878l-.909 1.544c.491.29.895.704 1.172 1.203l1.567-.869Zm.623 2.547a4.99 4.99 0 0 0-.623-2.547l-1.567.869c.276.498.414 1.061.399 1.631l1.791.047Zm-.756 2.51a4.976 4.976 0 0 0 .756-2.51l-1.791-.047a3.193 3.193 0 0 1-.485 1.608l1.52.95ZM176.31 89.807a129.105 129.105 0 0 1 19.431-54.88l-1.511-.964a130.882 130.882 0 0 0-19.7 55.643l1.78.201Zm2.945-1.193c-1.334 0-2.635.089-3.913.2l.156 1.785c1.257-.11 2.499-.193 3.757-.193v-1.792Zm32.43 13.434a45.86 45.86 0 0 0-32.43-13.434v1.792a44.07 44.07 0 0 1 31.163 12.909l1.267-1.267Zm13.434 32.43a45.859 45.859 0 0 0-13.434-32.43l-1.267 1.267a44.073 44.073 0 0 1 12.909 31.163h1.792Zm-13.434 32.431a45.861 45.861 0 0 0 13.434-32.431h-1.792a44.073 44.073 0 0 1-12.909 31.164l1.267 1.267ZM72.969 180.341a45.863 45.863 0 0 0 32.431-13.433l-1.267-1.267a44.072 44.072 0 0 1-31.163 12.908v1.792Zm-32.415-13.448a45.918 45.918 0 0 0 32.414 13.448l.002-1.792a44.119 44.119 0 0 1-31.149-12.924l-1.267 1.268Zm-13.449-32.415a45.918 45.918 0 0 0 13.45 32.415l1.266-1.268a44.124 44.124 0 0 1-12.923-31.149l-1.793.002Zm46.34-105.635c-21.098 22.193-46.34 58.575-46.34 105.634h1.793c0-46.4 24.894-82.36 45.845-104.4l-1.299-1.234Zm1.647-1.146a4.984 4.984 0 0 0-1.648 1.146l1.3 1.235a3.19 3.19 0 0 1 1.054-.734l-.706-1.647Zm1.966-.404c-.676 0-1.345.137-1.966.404l.706 1.647c.398-.17.826-.259 1.26-.259v-1.792Zm8.175 0h-8.175v1.792h8.175v-1.792Zm2.53.69a4.985 4.985 0 0 0-2.53-.69v1.792c.57 0 1.13.153 1.62.442l.91-1.544Zm1.83 1.878a4.985 4.985 0 0 0-1.83-1.878l-.91 1.544c.492.29.896.704 1.172 1.203l1.568-.869Zm.623 2.547a4.985 4.985 0 0 0-.623-2.547l-1.568.869c.277.498.414 1.061.4 1.631l1.79.047Zm-.756 2.51a4.984 4.984 0 0 0 .756-2.51l-1.792-.047a3.192 3.192 0 0 1-.484 1.608l1.52.95ZM70.025 89.807a129.101 129.101 0 0 1 19.43-54.88l-1.51-.964a130.894 130.894 0 0 0-19.7 55.643l1.78.201Zm2.944-1.193c-1.334 0-2.635.089-3.912.2l.156 1.785c1.257-.11 2.499-.193 3.757-.193v-1.792Zm32.431 13.434a45.862 45.862 0 0 0-32.43-13.434v1.792a44.07 44.07 0 0 1 31.163 12.909l1.267-1.267Zm13.434 32.43a45.863 45.863 0 0 0-13.434-32.43l-1.267 1.267a44.072 44.072 0 0 1 12.908 31.163h1.793ZM105.4 166.908a45.866 45.866 0 0 0 13.434-32.431h-1.793a44.072 44.072 0 0 1-12.908 31.164l1.267 1.267Z"/></g><g filter="url(#l)"><path fill="url(#m)" fill-opacity=".8" d="m179.255 179.445-.001.896h.001v-.896Zm-31.782-13.186.634-.634-.634.634Zm-13.186-31.782h-.896v.001l.896-.001Zm46.092-105.016-.65-.618.65.618Zm1.351-.94.353.823-.353-.824Zm1.613-.332-.001.896h.001v-.896Zm10.251.566-.455.772.455-.772Zm1.5 1.54-.783.435.783-.434Zm-.109 4.149.756.482.004-.007-.76-.475ZM175.42 89.705l-.89-.1-.124 1.088 1.092-.095-.078-.892Zm35.632 12.975-.634.634.634-.634ZM72.97 179.445l-.002.896h.001v-.896Zm-31.782-13.186-.634.634.634-.634ZM28 134.477h-.896v.001l.896-.001ZM74.095 29.461l-.65-.618.65.618Zm1.35-.94.354.823-.353-.824Zm1.614-.332v.896-.896Zm10.25.566-.454.772.454-.772Zm1.501 1.54-.784.435.784-.434Zm.511 2.09-.896-.024.896.024Zm-.62 2.059.756.482.004-.007-.76-.475ZM69.135 89.705l-.89-.1-.124 1.088 1.092-.095-.078-.892Zm35.632 12.975-.634.634.634-.634Zm74.488 77.661a45.862 45.862 0 0 0 32.43-13.433l-1.267-1.267a44.072 44.072 0 0 1-31.163 12.908v1.792Zm-32.416-13.448a45.92 45.92 0 0 0 32.415 13.448l.002-1.792a44.118 44.118 0 0 1-31.149-12.924l-1.268 1.268Zm-13.448-32.415a45.92 45.92 0 0 0 13.448 32.415l1.268-1.268a44.118 44.118 0 0 1-12.924-31.149l-1.792.002Zm46.338-105.635c-21.097 22.193-46.338 58.575-46.338 105.634h1.792c0-46.4 24.894-82.36 45.845-104.4l-1.299-1.234Zm1.648-1.146a4.991 4.991 0 0 0-1.648 1.146l1.299 1.235a3.186 3.186 0 0 1 1.055-.734l-.706-1.647Zm1.966-.404c-.676 0-1.345.137-1.966.404l.706 1.647c.398-.17.827-.259 1.259-.259l.001-1.792Zm8.176 0h-8.176v1.792h8.176v-1.792Zm2.529.69a4.982 4.982 0 0 0-2.529-.69v1.792c.569 0 1.129.153 1.62.442l.909-1.544Zm1.83 1.878a4.98 4.98 0 0 0-1.83-1.878l-.909 1.544c.491.29.895.704 1.172 1.203l1.567-.869Zm.623 2.547a4.99 4.99 0 0 0-.623-2.547l-1.567.869c.276.498.414 1.061.399 1.631l1.791.047Zm-.756 2.51a4.976 4.976 0 0 0 .756-2.51l-1.791-.047a3.193 3.193 0 0 1-.485 1.608l1.52.95ZM176.31 89.807a129.105 129.105 0 0 1 19.431-54.88l-1.511-.964a130.882 130.882 0 0 0-19.7 55.643l1.78.201Zm2.945-1.193c-1.334 0-2.635.089-3.913.2l.156 1.785c1.257-.11 2.499-.193 3.757-.193v-1.792Zm32.43 13.434a45.86 45.86 0 0 0-32.43-13.434v1.792a44.07 44.07 0 0 1 31.163 12.909l1.267-1.267Zm13.434 32.43a45.859 45.859 0 0 0-13.434-32.43l-1.267 1.267a44.073 44.073 0 0 1 12.909 31.163h1.792Zm-13.434 32.431a45.861 45.861 0 0 0 13.434-32.431h-1.792a44.073 44.073 0 0 1-12.909 31.164l1.267 1.267ZM72.969 180.341a45.863 45.863 0 0 0 32.431-13.433l-1.267-1.267a44.072 44.072 0 0 1-31.163 12.908v1.792Zm-32.415-13.448a45.918 45.918 0 0 0 32.414 13.448l.002-1.792a44.119 44.119 0 0 1-31.149-12.924l-1.267 1.268Zm-13.449-32.415a45.918 45.918 0 0 0 13.45 32.415l1.266-1.268a44.124 44.124 0 0 1-12.923-31.149l-1.793.002Zm46.34-105.635c-21.098 22.193-46.34 58.575-46.34 105.634h1.793c0-46.4 24.894-82.36 45.845-104.4l-1.299-1.234Zm1.647-1.146a4.984 4.984 0 0 0-1.648 1.146l1.3 1.235a3.19 3.19 0 0 1 1.054-.734l-.706-1.647Zm1.966-.404c-.676 0-1.345.137-1.966.404l.706 1.647c.398-.17.826-.259 1.26-.259v-1.792Zm8.175 0h-8.175v1.792h8.175v-1.792Zm2.53.69a4.985 4.985 0 0 0-2.53-.69v1.792c.57 0 1.13.153 1.62.442l.91-1.544Zm1.83 1.878a4.985 4.985 0 0 0-1.83-1.878l-.91 1.544c.492.29.896.704 1.172 1.203l1.568-.869Zm.623 2.547a4.985 4.985 0 0 0-.623-2.547l-1.568.869c.277.498.414 1.061.4 1.631l1.79.047Zm-.756 2.51a4.984 4.984 0 0 0 .756-2.51l-1.792-.047a3.192 3.192 0 0 1-.484 1.608l1.52.95ZM70.025 89.807a129.101 129.101 0 0 1 19.43-54.88l-1.51-.964a130.894 130.894 0 0 0-19.7 55.643l1.78.201Zm2.944-1.193c-1.334 0-2.635.089-3.912.2l.156 1.785c1.257-.11 2.499-.193 3.757-.193v-1.792Zm32.431 13.434a45.862 45.862 0 0 0-32.43-13.434v1.792a44.07 44.07 0 0 1 31.163 12.909l1.267-1.267Zm13.434 32.43a45.863 45.863 0 0 0-13.434-32.43l-1.267 1.267a44.072 44.072 0 0 1 12.908 31.163h1.793ZM105.4 166.908a45.866 45.866 0 0 0 13.434-32.431h-1.793a44.072 44.072 0 0 1-12.908 31.164l1.267 1.267Z"/></g><g filter="url(#n)"><path fill="url(#o)" d="m179.255 179.445-.001.896h.001v-.896Zm-31.782-13.186.634-.634-.634.634Zm-13.186-31.782h-.896v.001l.896-.001Zm46.092-105.016-.65-.618.65.618Zm1.351-.94.353.823-.353-.824Zm1.613-.332-.001.896h.001v-.896Zm10.251.566-.455.772.455-.772Zm1.5 1.54-.783.435.783-.434Zm-.109 4.149.756.482.004-.007-.76-.475ZM175.42 89.705l-.89-.1-.124 1.088 1.092-.095-.078-.892Zm35.632 12.975-.634.634.634-.634ZM72.97 179.445l-.002.896h.001v-.896Zm-31.782-13.186-.634.634.634-.634ZM28 134.477h-.896v.001l.896-.001ZM74.095 29.461l-.65-.618.65.618Zm1.35-.94.354.823-.353-.824Zm1.614-.332v.896-.896Zm10.25.566-.454.772.454-.772Zm1.501 1.54-.784.435.784-.434Zm.511 2.09-.896-.024.896.024Zm-.62 2.059.756.482.004-.007-.76-.475ZM69.135 89.705l-.89-.1-.124 1.088 1.092-.095-.078-.892Zm35.632 12.975-.634.634.634-.634Zm74.488 77.661a45.862 45.862 0 0 0 32.43-13.433l-1.267-1.267a44.072 44.072 0 0 1-31.163 12.908v1.792Zm-32.416-13.448a45.92 45.92 0 0 0 32.415 13.448l.002-1.792a44.118 44.118 0 0 1-31.149-12.924l-1.268 1.268Zm-13.448-32.415a45.92 45.92 0 0 0 13.448 32.415l1.268-1.268a44.118 44.118 0 0 1-12.924-31.149l-1.792.002Zm46.338-105.635c-21.097 22.193-46.338 58.575-46.338 105.634h1.792c0-46.4 24.894-82.36 45.845-104.4l-1.299-1.234Zm1.648-1.146a4.991 4.991 0 0 0-1.648 1.146l1.299 1.235a3.186 3.186 0 0 1 1.055-.734l-.706-1.647Zm1.966-.404c-.676 0-1.345.137-1.966.404l.706 1.647c.398-.17.827-.259 1.259-.259l.001-1.792Zm8.176 0h-8.176v1.792h8.176v-1.792Zm2.529.69a4.982 4.982 0 0 0-2.529-.69v1.792c.569 0 1.129.153 1.62.442l.909-1.544Zm1.83 1.878a4.98 4.98 0 0 0-1.83-1.878l-.909 1.544c.491.29.895.704 1.172 1.203l1.567-.869Zm.623 2.547a4.99 4.99 0 0 0-.623-2.547l-1.567.869c.276.498.414 1.061.399 1.631l1.791.047Zm-.756 2.51a4.976 4.976 0 0 0 .756-2.51l-1.791-.047a3.193 3.193 0 0 1-.485 1.608l1.52.95ZM176.31 89.807a129.105 129.105 0 0 1 19.431-54.88l-1.511-.964a130.882 130.882 0 0 0-19.7 55.643l1.78.201Zm2.945-1.193c-1.334 0-2.635.089-3.913.2l.156 1.785c1.257-.11 2.499-.193 3.757-.193v-1.792Zm32.43 13.434a45.86 45.86 0 0 0-32.43-13.434v1.792a44.07 44.07 0 0 1 31.163 12.909l1.267-1.267Zm13.434 32.43a45.859 45.859 0 0 0-13.434-32.43l-1.267 1.267a44.073 44.073 0 0 1 12.909 31.163h1.792Zm-13.434 32.431a45.861 45.861 0 0 0 13.434-32.431h-1.792a44.073 44.073 0 0 1-12.909 31.164l1.267 1.267ZM72.969 180.341a45.863 45.863 0 0 0 32.431-13.433l-1.267-1.267a44.072 44.072 0 0 1-31.163 12.908v1.792Zm-32.415-13.448a45.918 45.918 0 0 0 32.414 13.448l.002-1.792a44.119 44.119 0 0 1-31.149-12.924l-1.267 1.268Zm-13.449-32.415a45.918 45.918 0 0 0 13.45 32.415l1.266-1.268a44.124 44.124 0 0 1-12.923-31.149l-1.793.002Zm46.34-105.635c-21.098 22.193-46.34 58.575-46.34 105.634h1.793c0-46.4 24.894-82.36 45.845-104.4l-1.299-1.234Zm1.647-1.146a4.984 4.984 0 0 0-1.648 1.146l1.3 1.235a3.19 3.19 0 0 1 1.054-.734l-.706-1.647Zm1.966-.404c-.676 0-1.345.137-1.966.404l.706 1.647c.398-.17.826-.259 1.26-.259v-1.792Zm8.175 0h-8.175v1.792h8.175v-1.792Zm2.53.69a4.985 4.985 0 0 0-2.53-.69v1.792c.57 0 1.13.153 1.62.442l.91-1.544Zm1.83 1.878a4.985 4.985 0 0 0-1.83-1.878l-.91 1.544c.492.29.896.704 1.172 1.203l1.568-.869Zm.623 2.547a4.985 4.985 0 0 0-.623-2.547l-1.568.869c.277.498.414 1.061.4 1.631l1.79.047Zm-.756 2.51a4.984 4.984 0 0 0 .756-2.51l-1.792-.047a3.192 3.192 0 0 1-.484 1.608l1.52.95ZM70.025 89.807a129.101 129.101 0 0 1 19.43-54.88l-1.51-.964a130.894 130.894 0 0 0-19.7 55.643l1.78.201Zm2.944-1.193c-1.334 0-2.635.089-3.912.2l.156 1.785c1.257-.11 2.499-.193 3.757-.193v-1.792Zm32.431 13.434a45.862 45.862 0 0 0-32.43-13.434v1.792a44.07 44.07 0 0 1 31.163 12.909l1.267-1.267Zm13.434 32.43a45.863 45.863 0 0 0-13.434-32.43l-1.267 1.267a44.072 44.072 0 0 1 12.908 31.163h1.793ZM105.4 166.908a45.866 45.866 0 0 0 13.434-32.431h-1.793a44.072 44.072 0 0 1-12.908 31.164l1.267 1.267Z"/></g><g filter="url(#p)"><path fill="url(#q)" d="m179.255 179.445-.001.896h.001v-.896Zm-31.782-13.186.634-.634-.634.634Zm-13.186-31.782h-.896v.001l.896-.001Zm46.092-105.016-.65-.618.65.618Zm1.351-.94.353.823-.353-.824Zm1.613-.332-.001.896h.001v-.896Zm10.251.566-.455.772.455-.772Zm1.5 1.54-.783.435.783-.434Zm-.109 4.149.756.482.004-.007-.76-.475ZM175.42 89.705l-.89-.1-.124 1.088 1.092-.095-.078-.892Zm35.632 12.975-.634.634.634-.634ZM72.97 179.445l-.002.896h.001v-.896Zm-31.782-13.186-.634.634.634-.634ZM28 134.477h-.896v.001l.896-.001ZM74.095 29.461l-.65-.618.65.618Zm1.35-.94.354.823-.353-.824Zm1.614-.332v.896-.896Zm10.25.566-.454.772.454-.772Zm1.501 1.54-.784.435.784-.434Zm.511 2.09-.896-.024.896.024Zm-.62 2.059.756.482.004-.007-.76-.475ZM69.135 89.705l-.89-.1-.124 1.088 1.092-.095-.078-.892Zm35.632 12.975-.634.634.634-.634Zm74.488 77.661a45.862 45.862 0 0 0 32.43-13.433l-1.267-1.267a44.072 44.072 0 0 1-31.163 12.908v1.792Zm-32.416-13.448a45.92 45.92 0 0 0 32.415 13.448l.002-1.792a44.118 44.118 0 0 1-31.149-12.924l-1.268 1.268Zm-13.448-32.415a45.92 45.92 0 0 0 13.448 32.415l1.268-1.268a44.118 44.118 0 0 1-12.924-31.149l-1.792.002Zm46.338-105.635c-21.097 22.193-46.338 58.575-46.338 105.634h1.792c0-46.4 24.894-82.36 45.845-104.4l-1.299-1.234Zm1.648-1.146a4.991 4.991 0 0 0-1.648 1.146l1.299 1.235a3.186 3.186 0 0 1 1.055-.734l-.706-1.647Zm1.966-.404c-.676 0-1.345.137-1.966.404l.706 1.647c.398-.17.827-.259 1.259-.259l.001-1.792Zm8.176 0h-8.176v1.792h8.176v-1.792Zm2.529.69a4.982 4.982 0 0 0-2.529-.69v1.792c.569 0 1.129.153 1.62.442l.909-1.544Zm1.83 1.878a4.98 4.98 0 0 0-1.83-1.878l-.909 1.544c.491.29.895.704 1.172 1.203l1.567-.869Zm.623 2.547a4.99 4.99 0 0 0-.623-2.547l-1.567.869c.276.498.414 1.061.399 1.631l1.791.047Zm-.756 2.51a4.976 4.976 0 0 0 .756-2.51l-1.791-.047a3.193 3.193 0 0 1-.485 1.608l1.52.95ZM176.31 89.807a129.105 129.105 0 0 1 19.431-54.88l-1.511-.964a130.882 130.882 0 0 0-19.7 55.643l1.78.201Zm2.945-1.193c-1.334 0-2.635.089-3.913.2l.156 1.785c1.257-.11 2.499-.193 3.757-.193v-1.792Zm32.43 13.434a45.86 45.86 0 0 0-32.43-13.434v1.792a44.07 44.07 0 0 1 31.163 12.909l1.267-1.267Zm13.434 32.43a45.859 45.859 0 0 0-13.434-32.43l-1.267 1.267a44.073 44.073 0 0 1 12.909 31.163h1.792Zm-13.434 32.431a45.861 45.861 0 0 0 13.434-32.431h-1.792a44.073 44.073 0 0 1-12.909 31.164l1.267 1.267ZM72.969 180.341a45.863 45.863 0 0 0 32.431-13.433l-1.267-1.267a44.072 44.072 0 0 1-31.163 12.908v1.792Zm-32.415-13.448a45.918 45.918 0 0 0 32.414 13.448l.002-1.792a44.119 44.119 0 0 1-31.149-12.924l-1.267 1.268Zm-13.449-32.415a45.918 45.918 0 0 0 13.45 32.415l1.266-1.268a44.124 44.124 0 0 1-12.923-31.149l-1.793.002Zm46.34-105.635c-21.098 22.193-46.34 58.575-46.34 105.634h1.793c0-46.4 24.894-82.36 45.845-104.4l-1.299-1.234Zm1.647-1.146a4.984 4.984 0 0 0-1.648 1.146l1.3 1.235a3.19 3.19 0 0 1 1.054-.734l-.706-1.647Zm1.966-.404c-.676 0-1.345.137-1.966.404l.706 1.647c.398-.17.826-.259 1.26-.259v-1.792Zm8.175 0h-8.175v1.792h8.175v-1.792Zm2.53.69a4.985 4.985 0 0 0-2.53-.69v1.792c.57 0 1.13.153 1.62.442l.91-1.544Zm1.83 1.878a4.985 4.985 0 0 0-1.83-1.878l-.91 1.544c.492.29.896.704 1.172 1.203l1.568-.869Zm.623 2.547a4.985 4.985 0 0 0-.623-2.547l-1.568.869c.277.498.414 1.061.4 1.631l1.79.047Zm-.756 2.51a4.984 4.984 0 0 0 .756-2.51l-1.792-.047a3.192 3.192 0 0 1-.484 1.608l1.52.95ZM70.025 89.807a129.101 129.101 0 0 1 19.43-54.88l-1.51-.964a130.894 130.894 0 0 0-19.7 55.643l1.78.201Zm2.944-1.193c-1.334 0-2.635.089-3.912.2l.156 1.785c1.257-.11 2.499-.193 3.757-.193v-1.792Zm32.431 13.434a45.862 45.862 0 0 0-32.43-13.434v1.792a44.07 44.07 0 0 1 31.163 12.909l1.267-1.267Zm13.434 32.43a45.863 45.863 0 0 0-13.434-32.43l-1.267 1.267a44.072 44.072 0 0 1 12.908 31.163h1.793ZM105.4 166.908a45.866 45.866 0 0 0 13.434-32.431h-1.793a44.072 44.072 0 0 1-12.908 31.164l1.267 1.267Z"/></g><g filter="url(#r)"><mask id="t" fill="white"><path fill-rule="evenodd" d="M211.052 166.274a44.964 44.964 0 0 1-31.797 13.171 45.021 45.021 0 0 1-44.968-44.968c0-46.73 25.067-82.9 46.092-105.016a4.093 4.093 0 0 1 2.964-1.272h8.176a4.092 4.092 0 0 1 3.575 2.107 4.087 4.087 0 0 1-.109 4.148 130 130 0 0 0-19.565 55.261c1.267-.11 2.539-.196 3.835-.196a44.968 44.968 0 0 1 31.797 76.765Zm-106.285 0a44.966 44.966 0 0 1-31.797 13.171 45.02 45.02 0 0 1-44.968-44.968c0-46.73 25.067-82.9 46.092-105.016a4.089 4.089 0 0 1 2.964-1.272h8.175a4.089 4.089 0 0 1 3.467 6.255 129.999 129.999 0 0 0-19.565 55.261c1.267-.11 2.539-.196 3.834-.196a44.97 44.97 0 0 1 31.798 76.765Z" clip-rule="evenodd"/></mask><path fill="url(#s)" d="m179.255 179.445-.001.896h.001v-.896Zm-31.782-13.186.634-.634-.634.634Zm-13.186-31.782h-.896v.001l.896-.001Zm46.092-105.016-.65-.618.65.618Zm1.351-.94.353.823-.353-.824Zm1.613-.332-.001.896h.001v-.896Zm10.251.566-.455.772.455-.772Zm1.5 1.54-.783.435.783-.434Zm-.109 4.149.756.482.004-.007-.76-.475ZM175.42 89.705l-.89-.1-.124 1.088 1.092-.095-.078-.892Zm35.632 12.975-.634.634.634-.634ZM72.97 179.445l-.002.896h.001v-.896Zm-31.782-13.186-.634.634.634-.634ZM28 134.477h-.896v.001l.896-.001ZM74.095 29.461l-.65-.618.65.618Zm1.35-.94.354.823-.353-.824Zm1.614-.332v.896-.896Zm10.25.566-.454.772.454-.772Zm1.501 1.54-.784.435.784-.434Zm.511 2.09-.896-.024.896.024Zm-.62 2.059.756.482.004-.007-.76-.475ZM69.135 89.705l-.89-.1-.124 1.088 1.092-.095-.078-.892Zm35.632 12.975-.634.634.634-.634Zm74.488 77.661a45.862 45.862 0 0 0 32.43-13.433l-1.267-1.267a44.072 44.072 0 0 1-31.163 12.908v1.792Zm-32.416-13.448a45.92 45.92 0 0 0 32.415 13.448l.002-1.792a44.118 44.118 0 0 1-31.149-12.924l-1.268 1.268Zm-13.448-32.415a45.92 45.92 0 0 0 13.448 32.415l1.268-1.268a44.118 44.118 0 0 1-12.924-31.149l-1.792.002Zm46.338-105.635c-21.097 22.193-46.338 58.575-46.338 105.634h1.792c0-46.4 24.894-82.36 45.845-104.4l-1.299-1.234Zm1.648-1.146a4.991 4.991 0 0 0-1.648 1.146l1.299 1.235a3.186 3.186 0 0 1 1.055-.734l-.706-1.647Zm1.966-.404c-.676 0-1.345.137-1.966.404l.706 1.647c.398-.17.827-.259 1.259-.259l.001-1.792Zm8.176 0h-8.176v1.792h8.176v-1.792Zm2.529.69a4.982 4.982 0 0 0-2.529-.69v1.792c.569 0 1.129.153 1.62.442l.909-1.544Zm1.83 1.878a4.98 4.98 0 0 0-1.83-1.878l-.909 1.544c.491.29.895.704 1.172 1.203l1.567-.869Zm.623 2.547a4.99 4.99 0 0 0-.623-2.547l-1.567.869c.276.498.414 1.061.399 1.631l1.791.047Zm-.756 2.51a4.976 4.976 0 0 0 .756-2.51l-1.791-.047a3.193 3.193 0 0 1-.485 1.608l1.52.95ZM176.31 89.807a129.105 129.105 0 0 1 19.431-54.88l-1.511-.964a130.882 130.882 0 0 0-19.7 55.643l1.78.201Zm2.945-1.193c-1.334 0-2.635.089-3.913.2l.156 1.785c1.257-.11 2.499-.193 3.757-.193v-1.792Zm32.43 13.434a45.86 45.86 0 0 0-32.43-13.434v1.792a44.07 44.07 0 0 1 31.163 12.909l1.267-1.267Zm13.434 32.43a45.859 45.859 0 0 0-13.434-32.43l-1.267 1.267a44.073 44.073 0 0 1 12.909 31.163h1.792Zm-13.434 32.431a45.861 45.861 0 0 0 13.434-32.431h-1.792a44.073 44.073 0 0 1-12.909 31.164l1.267 1.267ZM72.969 180.341a45.863 45.863 0 0 0 32.431-13.433l-1.267-1.267a44.072 44.072 0 0 1-31.163 12.908v1.792Zm-32.415-13.448a45.918 45.918 0 0 0 32.414 13.448l.002-1.792a44.119 44.119 0 0 1-31.149-12.924l-1.267 1.268Zm-13.449-32.415a45.918 45.918 0 0 0 13.45 32.415l1.266-1.268a44.124 44.124 0 0 1-12.923-31.149l-1.793.002Zm46.34-105.635c-21.098 22.193-46.34 58.575-46.34 105.634h1.793c0-46.4 24.894-82.36 45.845-104.4l-1.299-1.234Zm1.647-1.146a4.984 4.984 0 0 0-1.648 1.146l1.3 1.235a3.19 3.19 0 0 1 1.054-.734l-.706-1.647Zm1.966-.404c-.676 0-1.345.137-1.966.404l.706 1.647c.398-.17.826-.259 1.26-.259v-1.792Zm8.175 0h-8.175v1.792h8.175v-1.792Zm2.53.69a4.985 4.985 0 0 0-2.53-.69v1.792c.57 0 1.13.153 1.62.442l.91-1.544Zm1.83 1.878a4.985 4.985 0 0 0-1.83-1.878l-.91 1.544c.492.29.896.704 1.172 1.203l1.568-.869Zm.623 2.547a4.985 4.985 0 0 0-.623-2.547l-1.568.869c.277.498.414 1.061.4 1.631l1.79.047Zm-.756 2.51a4.984 4.984 0 0 0 .756-2.51l-1.792-.047a3.192 3.192 0 0 1-.484 1.608l1.52.95ZM70.025 89.807a129.101 129.101 0 0 1 19.43-54.88l-1.51-.964a130.894 130.894 0 0 0-19.7 55.643l1.78.201Zm2.944-1.193c-1.334 0-2.635.089-3.912.2l.156 1.785c1.257-.11 2.499-.193 3.757-.193v-1.792Zm32.431 13.434a45.862 45.862 0 0 0-32.43-13.434v1.792a44.07 44.07 0 0 1 31.163 12.909l1.267-1.267Zm13.434 32.43a45.863 45.863 0 0 0-13.434-32.43l-1.267 1.267a44.072 44.072 0 0 1 12.908 31.163h1.793ZM105.4 166.908a45.866 45.866 0 0 0 13.434-32.431h-1.793a44.072 44.072 0 0 1-12.908 31.164l1.267 1.267Z" mask="url(#t)"/></g><g filter="url(#u)"><mask id="w" fill="white"><path fill-rule="evenodd" d="M211.052 166.274a44.964 44.964 0 0 1-31.797 13.171 45.021 45.021 0 0 1-44.968-44.968c0-46.73 25.067-82.9 46.092-105.016a4.093 4.093 0 0 1 2.964-1.272h8.176a4.092 4.092 0 0 1 3.575 2.107 4.087 4.087 0 0 1-.109 4.148 130 130 0 0 0-19.565 55.261c1.267-.11 2.539-.196 3.835-.196a44.968 44.968 0 0 1 31.797 76.765Zm-106.285 0a44.966 44.966 0 0 1-31.797 13.171 45.02 45.02 0 0 1-44.968-44.968c0-46.73 25.067-82.9 46.092-105.016a4.089 4.089 0 0 1 2.964-1.272h8.175a4.089 4.089 0 0 1 3.467 6.255 129.999 129.999 0 0 0-19.565 55.261c1.267-.11 2.539-.196 3.834-.196a44.97 44.97 0 0 1 31.798 76.765Z" clip-rule="evenodd"/></mask><path fill="url(#v)" d="m179.255 179.445-.001.896h.001v-.896Zm-31.782-13.186.634-.634-.634.634Zm-13.186-31.782h-.896v.001l.896-.001Zm46.092-105.016-.65-.618.65.618Zm1.351-.94.353.823-.353-.824Zm1.613-.332-.001.896h.001v-.896Zm10.251.566-.455.772.455-.772Zm1.5 1.54-.783.435.783-.434Zm-.109 4.149.756.482.004-.007-.76-.475ZM175.42 89.705l-.89-.1-.124 1.088 1.092-.095-.078-.892Zm35.632 12.975-.634.634.634-.634ZM72.97 179.445l-.002.896h.001v-.896Zm-31.782-13.186-.634.634.634-.634ZM28 134.477h-.896v.001l.896-.001ZM74.095 29.461l-.65-.618.65.618Zm1.35-.94.354.823-.353-.824Zm1.614-.332v.896-.896Zm10.25.566-.454.772.454-.772Zm1.501 1.54-.784.435.784-.434Zm.511 2.09-.896-.024.896.024Zm-.62 2.059.756.482.004-.007-.76-.475ZM69.135 89.705l-.89-.1-.124 1.088 1.092-.095-.078-.892Zm35.632 12.975-.634.634.634-.634Zm74.488 77.661a45.862 45.862 0 0 0 32.43-13.433l-1.267-1.267a44.072 44.072 0 0 1-31.163 12.908v1.792Zm-32.416-13.448a45.92 45.92 0 0 0 32.415 13.448l.002-1.792a44.118 44.118 0 0 1-31.149-12.924l-1.268 1.268Zm-13.448-32.415a45.92 45.92 0 0 0 13.448 32.415l1.268-1.268a44.118 44.118 0 0 1-12.924-31.149l-1.792.002Zm46.338-105.635c-21.097 22.193-46.338 58.575-46.338 105.634h1.792c0-46.4 24.894-82.36 45.845-104.4l-1.299-1.234Zm1.648-1.146a4.991 4.991 0 0 0-1.648 1.146l1.299 1.235a3.186 3.186 0 0 1 1.055-.734l-.706-1.647Zm1.966-.404c-.676 0-1.345.137-1.966.404l.706 1.647c.398-.17.827-.259 1.259-.259l.001-1.792Zm8.176 0h-8.176v1.792h8.176v-1.792Zm2.529.69a4.982 4.982 0 0 0-2.529-.69v1.792c.569 0 1.129.153 1.62.442l.909-1.544Zm1.83 1.878a4.98 4.98 0 0 0-1.83-1.878l-.909 1.544c.491.29.895.704 1.172 1.203l1.567-.869Zm.623 2.547a4.99 4.99 0 0 0-.623-2.547l-1.567.869c.276.498.414 1.061.399 1.631l1.791.047Zm-.756 2.51a4.976 4.976 0 0 0 .756-2.51l-1.791-.047a3.193 3.193 0 0 1-.485 1.608l1.52.95ZM176.31 89.807a129.105 129.105 0 0 1 19.431-54.88l-1.511-.964a130.882 130.882 0 0 0-19.7 55.643l1.78.201Zm2.945-1.193c-1.334 0-2.635.089-3.913.2l.156 1.785c1.257-.11 2.499-.193 3.757-.193v-1.792Zm32.43 13.434a45.86 45.86 0 0 0-32.43-13.434v1.792a44.07 44.07 0 0 1 31.163 12.909l1.267-1.267Zm13.434 32.43a45.859 45.859 0 0 0-13.434-32.43l-1.267 1.267a44.073 44.073 0 0 1 12.909 31.163h1.792Zm-13.434 32.431a45.861 45.861 0 0 0 13.434-32.431h-1.792a44.073 44.073 0 0 1-12.909 31.164l1.267 1.267ZM72.969 180.341a45.863 45.863 0 0 0 32.431-13.433l-1.267-1.267a44.072 44.072 0 0 1-31.163 12.908v1.792Zm-32.415-13.448a45.918 45.918 0 0 0 32.414 13.448l.002-1.792a44.119 44.119 0 0 1-31.149-12.924l-1.267 1.268Zm-13.449-32.415a45.918 45.918 0 0 0 13.45 32.415l1.266-1.268a44.124 44.124 0 0 1-12.923-31.149l-1.793.002Zm46.34-105.635c-21.098 22.193-46.34 58.575-46.34 105.634h1.793c0-46.4 24.894-82.36 45.845-104.4l-1.299-1.234Zm1.647-1.146a4.984 4.984 0 0 0-1.648 1.146l1.3 1.235a3.19 3.19 0 0 1 1.054-.734l-.706-1.647Zm1.966-.404c-.676 0-1.345.137-1.966.404l.706 1.647c.398-.17.826-.259 1.26-.259v-1.792Zm8.175 0h-8.175v1.792h8.175v-1.792Zm2.53.69a4.985 4.985 0 0 0-2.53-.69v1.792c.57 0 1.13.153 1.62.442l.91-1.544Zm1.83 1.878a4.985 4.985 0 0 0-1.83-1.878l-.91 1.544c.492.29.896.704 1.172 1.203l1.568-.869Zm.623 2.547a4.985 4.985 0 0 0-.623-2.547l-1.568.869c.277.498.414 1.061.4 1.631l1.79.047Zm-.756 2.51a4.984 4.984 0 0 0 .756-2.51l-1.792-.047a3.192 3.192 0 0 1-.484 1.608l1.52.95ZM70.025 89.807a129.101 129.101 0 0 1 19.43-54.88l-1.51-.964a130.894 130.894 0 0 0-19.7 55.643l1.78.201Zm2.944-1.193c-1.334 0-2.635.089-3.912.2l.156 1.785c1.257-.11 2.499-.193 3.757-.193v-1.792Zm32.431 13.434a45.862 45.862 0 0 0-32.43-13.434v1.792a44.07 44.07 0 0 1 31.163 12.909l1.267-1.267Zm13.434 32.43a45.863 45.863 0 0 0-13.434-32.43l-1.267 1.267a44.072 44.072 0 0 1 12.908 31.163h1.793ZM105.4 166.908a45.866 45.866 0 0 0 13.434-32.431h-1.793a44.072 44.072 0 0 1-12.908 31.164l1.267 1.267Z" mask="url(#w)"/></g><mask id="y" fill="white"><path fill-rule="evenodd" d="M211.056 166.274a44.964 44.964 0 0 1-31.797 13.171 45.021 45.021 0 0 1-44.968-44.968c0-46.73 25.067-82.9 46.092-105.016a4.083 4.083 0 0 1 2.964-1.272h8.176a4.085 4.085 0 0 1 4.086 4.196 4.084 4.084 0 0 1-.62 2.059 130 130 0 0 0-19.565 55.261c1.267-.11 2.539-.196 3.835-.196a44.968 44.968 0 0 1 31.797 76.765Zm-106.285 0a44.966 44.966 0 0 1-31.798 13.171 45.021 45.021 0 0 1-44.968-44.968c0-46.73 25.068-82.9 46.093-105.016a4.089 4.089 0 0 1 2.963-1.272h8.176a4.089 4.089 0 0 1 3.467 6.255 129.998 129.998 0 0 0-19.565 55.261c1.267-.11 2.538-.196 3.834-.196a44.97 44.97 0 0 1 44.968 44.968 44.966 44.966 0 0 1-13.17 31.797Z" clip-rule="evenodd"/></mask><path fill="url(#x)" d="m179.259 179.445-.003 1.792h.003v-1.792Zm-31.782-13.186 1.267-1.267-1.267 1.267Zm-13.186-31.782h-1.792v.002l1.792-.002Zm46.092-105.016-1.299-1.235 1.299 1.235Zm1.351-.94.706 1.646-.706-1.647Zm1.613-.332-.001 1.792h.001V28.19Zm10.25.566-.909 1.544.909-1.544Zm1.501 1.54-1.567.87 1.567-.87Zm-.109 4.149 1.511.963.004-.006.005-.007-1.52-.95Zm-19.565 55.261-1.781-.201-.246 2.177 2.182-.19-.155-1.785Zm35.632 12.975-1.267 1.267 1.267-1.267ZM72.973 179.445l-.002 1.792h.002v-1.792Zm-31.781-13.186-1.267 1.267 1.267-1.267Zm-13.187-31.782h-1.792v.002l1.792-.002ZM74.098 29.461l-1.3-1.235 1.3 1.235Zm1.35-.94.707 1.646-.706-1.647Zm1.613-.332v1.792-1.792Zm10.251.566-.91 1.544.91-1.544Zm1.5 1.54-1.566.87 1.567-.87Zm.512 2.09-1.791-.047 1.791.047Zm-.62 2.059 1.51.963.005-.006.005-.007-1.52-.95ZM69.139 89.705l-1.78-.201-.247 2.177 2.182-.19-.155-1.785Zm35.632 12.975-1.268 1.267 1.268-1.267Zm74.488 78.557a46.76 46.76 0 0 0 33.064-13.695l-2.534-2.535a43.176 43.176 0 0 1-30.53 12.646v3.584Zm-33.049-13.711a46.807 46.807 0 0 0 33.046 13.711l.005-3.584a43.23 43.23 0 0 1-30.517-12.661l-2.534 2.534Zm-13.711-33.047a46.81 46.81 0 0 0 13.711 33.047l2.534-2.534a43.225 43.225 0 0 1-12.661-30.517l-3.584.004Zm46.585-106.253c-21.171 22.27-46.585 58.863-46.585 106.251h3.584c0-46.071 24.72-81.82 45.599-103.782l-2.598-2.47Zm1.944-1.353a5.877 5.877 0 0 0-1.944 1.353l2.598 2.47c.214-.226.472-.406.758-.529l-1.412-3.294Zm2.319-.476c-.797 0-1.587.162-2.319.476l1.412 3.294c.287-.123.595-.186.906-.186l.001-3.584Zm8.176 0h-8.176v3.584h8.176v-3.584Zm2.984.814a5.88 5.88 0 0 0-2.984-.814v3.584c.409 0 .812.11 1.165.318l1.819-3.088Zm2.158 2.216a5.876 5.876 0 0 0-2.158-2.216l-1.819 3.088a2.3 2.3 0 0 1 .843.865l3.134-1.737Zm.736 3.005a5.884 5.884 0 0 0-.736-3.005l-3.134 1.737a2.3 2.3 0 0 1 .287 1.173l3.583.095Zm-.892 2.962c.556-.89.864-1.913.892-2.962l-3.583-.095a2.3 2.3 0 0 1-.348 1.157l3.039 1.9Zm-19.304 54.513a128.208 128.208 0 0 1 19.295-54.5l-3.022-1.927a131.792 131.792 0 0 0-19.835 56.024l3.562.403Zm2.054-2.19c-1.373 0-2.703.091-3.99.203l.31 3.57c1.248-.108 2.46-.189 3.68-.189v-3.584Zm33.064 13.696a46.76 46.76 0 0 0-33.064-13.696v3.584a43.177 43.177 0 0 1 30.53 12.646l2.534-2.534Zm13.696 33.064a46.761 46.761 0 0 0-13.696-33.064l-2.534 2.534a43.176 43.176 0 0 1 12.646 30.53h3.584Zm-13.696 33.065a46.763 46.763 0 0 0 13.696-33.065h-3.584a43.176 43.176 0 0 1-12.646 30.53l2.534 2.535Zm-139.35 13.695a46.761 46.761 0 0 0 33.065-13.695l-2.535-2.535a43.174 43.174 0 0 1-30.53 12.646v3.584Zm-33.048-13.711a46.809 46.809 0 0 0 33.046 13.711l.004-3.584a43.229 43.229 0 0 1-30.516-12.661l-2.534 2.534Zm-13.712-33.047a46.814 46.814 0 0 0 13.712 33.047l2.534-2.534a43.23 43.23 0 0 1-12.662-30.517l-3.584.004ZM72.8 28.226c-21.171 22.27-46.586 58.863-46.586 106.251h3.584c0-46.071 24.721-81.82 45.6-103.782l-2.598-2.47Zm1.943-1.353a5.882 5.882 0 0 0-1.943 1.353l2.597 2.47c.215-.226.473-.406.76-.529l-1.414-3.294Zm2.32-.476a5.88 5.88 0 0 0-2.32.476l1.413 3.294c.287-.123.595-.186.906-.186v-3.584Zm8.175 0h-8.176v3.584h8.176v-3.584Zm2.985.814a5.88 5.88 0 0 0-2.985-.814v3.584c.41 0 .813.11 1.166.318l1.819-3.088Zm2.158 2.216a5.88 5.88 0 0 0-2.158-2.216l-1.82 3.088c.354.208.645.507.844.865l3.134-1.737Zm.735 3.005a5.88 5.88 0 0 0-.735-3.005l-3.134 1.737c.198.359.297.764.287 1.173l3.582.095Zm-.891 2.962a5.88 5.88 0 0 0 .891-2.962l-3.582-.095c-.011.41-.131.81-.349 1.157l3.04 1.9ZM70.919 89.907a128.206 128.206 0 0 1 19.296-54.5l-3.022-1.927a131.792 131.792 0 0 0-19.835 56.024l3.561.403Zm2.054-2.19c-1.372 0-2.702.091-3.99.203l.311 3.57c1.248-.108 2.46-.189 3.68-.189v-3.584Zm33.065 13.696a46.76 46.76 0 0 0-33.065-13.696v3.584a43.175 43.175 0 0 1 30.53 12.646l2.535-2.534Zm13.695 33.064a46.76 46.76 0 0 0-13.695-33.064l-2.535 2.534a43.172 43.172 0 0 1 12.646 30.53h3.584Zm-13.695 33.065a46.762 46.762 0 0 0 13.695-33.065h-3.584a43.172 43.172 0 0 1-12.646 30.53l2.535 2.535Z" mask="url(#y)"/><defs><linearGradient id="a" x1="126.116" x2="181.166" y1="28.189" y2="162.261" gradientUnits="userSpaceOnUse"><stop offset=".037" stop-color="#092A25"/><stop offset=".797"/></linearGradient><linearGradient id="b" x1="126.116" x2="181.166" y1="28.189" y2="162.261" gradientUnits="userSpaceOnUse"><stop stop-color="#82E0D6"/><stop offset=".317" stop-color="#82E0D6" stop-opacity=".5"/><stop offset=".57" stop-color="#82E0D6" stop-opacity=".1"/><stop offset=".873" stop-color="#82E0D6" stop-opacity="0"/></linearGradient><linearGradient id="d" x1="79" x2="95" y1="31.5" y2="63" gradientUnits="userSpaceOnUse"><stop stop-color="#DBF2EF"/><stop offset="1" stop-color="#DBF2EF" stop-opacity="0"/></linearGradient><linearGradient id="f" x1="63.839" x2="112.224" y1="34.507" y2="158.602" gradientUnits="userSpaceOnUse"><stop stop-color="#82E0D6"/><stop offset=".29" stop-color="#82E0D6" stop-opacity="0"/></linearGradient><linearGradient id="h" x1="63.835" x2="112.22" y1="34.507" y2="158.602" gradientUnits="userSpaceOnUse"><stop stop-color="#82E0D6"/><stop offset=".29" stop-color="#82E0D6" stop-opacity="0"/></linearGradient><linearGradient id="k" x1="63.839" x2="112.224" y1="34.507" y2="158.602" gradientUnits="userSpaceOnUse"><stop stop-color="#60F5E5"/><stop offset=".29" stop-color="#60F5E5" stop-opacity="0"/></linearGradient><linearGradient id="m" x1="63.839" x2="112.224" y1="34.507" y2="158.602" gradientUnits="userSpaceOnUse"><stop stop-color="#82E0D6"/><stop offset=".29" stop-color="#82E0D6" stop-opacity="0"/></linearGradient><linearGradient id="o" x1="63.839" x2="112.224" y1="34.507" y2="158.602" gradientUnits="userSpaceOnUse"><stop stop-color="#82E0D6"/><stop offset=".29" stop-color="#82E0D6" stop-opacity="0"/></linearGradient><linearGradient id="q" x1="63.839" x2="112.224" y1="34.507" y2="158.602" gradientUnits="userSpaceOnUse"><stop stop-color="#A6FCF3"/><stop offset=".29" stop-color="#A6FCF3" stop-opacity="0"/></linearGradient><linearGradient id="s" x1="63.839" x2="112.224" y1="34.507" y2="158.602" gradientUnits="userSpaceOnUse"><stop stop-color="#E0FFFC"/><stop offset=".29" stop-color="#E0FFFC" stop-opacity="0"/></linearGradient><linearGradient id="v" x1="63.839" x2="112.224" y1="34.507" y2="158.602" gradientUnits="userSpaceOnUse"><stop stop-color="#E0FFFC"/><stop offset=".29" stop-color="#E0FFFC" stop-opacity="0"/></linearGradient><linearGradient id="x" x1="79" x2="89" y1="31.5" y2="58.5" gradientUnits="userSpaceOnUse"><stop stop-color="#DBF2EF"/><stop offset="1" stop-color="#DBF2EF" stop-opacity="0"/></linearGradient><filter id="e" width="202.493" height="157.528" x="24.866" y="25.053" color-interpolation-filters="sRGB" filterUnits="userSpaceOnUse"><feFlood flood-opacity="0" result="BackgroundImageFix"/><feBlend in="SourceGraphic" in2="BackgroundImageFix" mode="normal" result="shape"/><feGaussianBlur result="effect1_foregroundBlur_14062_47340" stdDeviation="1.344"/></filter><filter id="g" width="199.805" height="154.84" x="26.206" y="26.397" color-interpolation-filters="sRGB" filterUnits="userSpaceOnUse"><feFlood flood-opacity="0" result="BackgroundImageFix"/><feBlend in="SourceGraphic" in2="BackgroundImageFix" mode="normal" result="shape"/><feGaussianBlur result="effect1_foregroundBlur_14062_47340" stdDeviation=".896"/></filter><filter id="j" width="214.142" height="169.176" x="19.041" y="19.229" color-interpolation-filters="sRGB" filterUnits="userSpaceOnUse"><feFlood flood-opacity="0" result="BackgroundImageFix"/><feBlend in="SourceGraphic" in2="BackgroundImageFix" mode="normal" result="shape"/><feGaussianBlur result="effect1_foregroundBlur_14062_47340" stdDeviation="4.032"/></filter><filter id="l" width="233.854" height="188.888" x="9.185" y="9.373" color-interpolation-filters="sRGB" filterUnits="userSpaceOnUse"><feFlood flood-opacity="0" result="BackgroundImageFix"/><feBlend in="SourceGraphic" in2="BackgroundImageFix" mode="normal" result="shape"/><feGaussianBlur result="effect1_foregroundBlur_14062_47340" stdDeviation="8.96"/></filter><filter id="n" width="226.014" height="181.048" x="13.105" y="13.293" color-interpolation-filters="sRGB" filterUnits="userSpaceOnUse"><feFlood flood-opacity="0" result="BackgroundImageFix"/><feBlend in="SourceGraphic" in2="BackgroundImageFix" mode="normal" result="shape"/><feGaussianBlur result="effect1_foregroundBlur_14062_47340" stdDeviation="7"/></filter><filter id="p" width="251.774" height="206.808" x=".225" y=".413" color-interpolation-filters="sRGB" filterUnits="userSpaceOnUse"><feFlood flood-opacity="0" result="BackgroundImageFix"/><feBlend in="SourceGraphic" in2="BackgroundImageFix" mode="normal" result="shape"/><feGaussianBlur result="effect1_foregroundBlur_14062_47340" stdDeviation="13.44"/></filter><filter id="r" width="197.601" height="152.636" x="27.312" y="27.499" color-interpolation-filters="sRGB" filterUnits="userSpaceOnUse"><feFlood flood-opacity="0" result="BackgroundImageFix"/><feBlend in="SourceGraphic" in2="BackgroundImageFix" mode="normal" result="shape"/><feGaussianBlur result="effect1_foregroundBlur_14062_47340" stdDeviation=".345"/></filter><filter id="u" width="204.221" height="159.256" x="24.002" y="24.189" color-interpolation-filters="sRGB" filterUnits="userSpaceOnUse"><feFlood flood-opacity="0" result="BackgroundImageFix"/><feBlend in="SourceGraphic" in2="BackgroundImageFix" mode="normal" result="shape"/><feGaussianBlur result="effect1_foregroundBlur_14062_47340" stdDeviation="2"/></filter></defs></svg>