<svg width="104" height="89" viewBox="0 0 104 89" fill="none" xmlns="http://www.w3.org/2000/svg">
<mask id="path-1-inside-1_14447_258016" fill="white">
<path fill-rule="evenodd" clip-rule="evenodd" d="M89.7774 75.4962C87.0238 78.2499 83.289 79.7969 79.3947 79.7969C75.5018 79.7923 71.7697 78.2438 69.017 75.4911C66.2643 72.7384 64.7159 69.0063 64.7113 65.1134C64.7113 49.8547 72.8966 38.0439 79.7618 30.8223C79.8865 30.6911 80.0366 30.5866 80.203 30.5152C80.3694 30.4439 80.5485 30.4071 80.7295 30.4071H83.3993C83.6375 30.4071 83.8715 30.4709 84.0768 30.5919C84.2821 30.7128 84.4513 30.8865 84.5668 31.0949C84.6823 31.3033 84.7399 31.5388 84.7337 31.777C84.7274 32.0152 84.6575 32.2474 84.5312 32.4495C81.0556 37.8995 78.8705 44.0712 78.1426 50.4941C78.5564 50.458 78.9715 50.43 79.3947 50.43C83.289 50.43 87.0238 51.977 89.7774 54.7307C92.5311 57.4844 94.0781 61.2192 94.0781 65.1134C94.0781 69.0077 92.5311 72.7425 89.7774 75.4962ZM55.0665 75.4962C52.3128 78.2499 48.578 79.7969 44.6838 79.7969C40.7909 79.7923 37.0588 78.2438 34.3061 75.4911C31.5534 72.7384 30.0049 69.0063 30.0003 65.1134C30.0003 49.8547 38.1857 38.0439 45.0508 30.8223C45.1756 30.6911 45.3257 30.5866 45.4921 30.5152C45.6584 30.4439 45.8376 30.4071 46.0186 30.4071H48.6883C48.9266 30.4071 49.1605 30.4709 49.3658 30.5919C49.5712 30.7128 49.7403 30.8865 49.8559 31.0949C49.9714 31.3033 50.029 31.5388 50.0227 31.777C50.0165 32.0152 49.9466 32.2474 49.8203 32.4495C46.3446 37.8995 44.1595 44.0712 43.4317 50.4941C43.8455 50.458 44.2606 50.43 44.6838 50.43C48.578 50.43 52.3128 51.977 55.0665 54.7307C57.8202 57.4844 59.3672 61.2192 59.3672 65.1134C59.3672 69.0077 57.8202 72.7425 55.0665 75.4962Z"/>
</mask>
<path fill-rule="evenodd" clip-rule="evenodd" d="M89.7774 75.4962C87.0238 78.2499 83.289 79.7969 79.3947 79.7969C75.5018 79.7923 71.7697 78.2438 69.017 75.4911C66.2643 72.7384 64.7159 69.0063 64.7113 65.1134C64.7113 49.8547 72.8966 38.0439 79.7618 30.8223C79.8865 30.6911 80.0366 30.5866 80.203 30.5152C80.3694 30.4439 80.5485 30.4071 80.7295 30.4071H83.3993C83.6375 30.4071 83.8715 30.4709 84.0768 30.5919C84.2821 30.7128 84.4513 30.8865 84.5668 31.0949C84.6823 31.3033 84.7399 31.5388 84.7337 31.777C84.7274 32.0152 84.6575 32.2474 84.5312 32.4495C81.0556 37.8995 78.8705 44.0712 78.1426 50.4941C78.5564 50.458 78.9715 50.43 79.3947 50.43C83.289 50.43 87.0238 51.977 89.7774 54.7307C92.5311 57.4844 94.0781 61.2192 94.0781 65.1134C94.0781 69.0077 92.5311 72.7425 89.7774 75.4962ZM55.0665 75.4962C52.3128 78.2499 48.578 79.7969 44.6838 79.7969C40.7909 79.7923 37.0588 78.2438 34.3061 75.4911C31.5534 72.7384 30.0049 69.0063 30.0003 65.1134C30.0003 49.8547 38.1857 38.0439 45.0508 30.8223C45.1756 30.6911 45.3257 30.5866 45.4921 30.5152C45.6584 30.4439 45.8376 30.4071 46.0186 30.4071H48.6883C48.9266 30.4071 49.1605 30.4709 49.3658 30.5919C49.5712 30.7128 49.7403 30.8865 49.8559 31.0949C49.9714 31.3033 50.029 31.5388 50.0227 31.777C50.0165 32.0152 49.9466 32.2474 49.8203 32.4495C46.3446 37.8995 44.1595 44.0712 43.4317 50.4941C43.8455 50.458 44.2606 50.43 44.6838 50.43C48.578 50.43 52.3128 51.977 55.0665 54.7307C57.8202 57.4844 59.3672 61.2192 59.3672 65.1134C59.3672 69.0077 57.8202 72.7425 55.0665 75.4962Z" fill="url(#paint0_radial_14447_258016)"/>
<path d="M79.3947 79.7969L79.394 80.382H79.3947V79.7969ZM89.7774 75.4962L90.1912 75.91L89.7774 75.4962ZM69.017 75.4911L69.4308 75.0774L69.017 75.4911ZM64.7113 65.1134H64.1261L64.1261 65.1141L64.7113 65.1134ZM79.7618 30.8223L79.3377 30.4191L79.7618 30.8223ZM80.203 30.5152L79.9723 29.9775L79.9723 29.9775L80.203 30.5152ZM80.7295 30.4071L80.7294 30.9923H80.7295V30.4071ZM84.0768 30.5919L84.3738 30.0877L84.3738 30.0877L84.0768 30.5919ZM84.7337 31.777L84.1487 31.7617V31.7617L84.7337 31.777ZM84.5312 32.4495L85.0246 32.7641L85.0274 32.7596L84.5312 32.4495ZM78.1426 50.4941L77.5612 50.4282L77.4806 51.1391L78.1934 51.077L78.1426 50.4941ZM89.7774 54.7307L90.1912 54.3169L89.7774 54.7307ZM44.6838 79.7969L44.6831 80.382H44.6838V79.7969ZM55.0665 75.4962L54.6528 75.0824L55.0665 75.4962ZM34.3061 75.4911L33.8923 75.9049V75.9049L34.3061 75.4911ZM30.0003 65.1134H29.4152V65.1141L30.0003 65.1134ZM45.0508 30.8223L45.4749 31.2254L45.4749 31.2254L45.0508 30.8223ZM45.4921 30.5152L45.2614 29.9775L45.2614 29.9775L45.4921 30.5152ZM46.0186 30.4071L46.0185 30.9923H46.0186V30.4071ZM49.3658 30.5919L49.6628 30.0877L49.6628 30.0877L49.3658 30.5919ZM50.0227 31.777L50.6077 31.7924V31.7924L50.0227 31.777ZM49.8203 32.4495L50.3137 32.7641L50.3165 32.7596L49.8203 32.4495ZM43.4317 50.4941L42.8502 50.4282L42.7697 51.1391L43.4824 51.077L43.4317 50.4941ZM55.0665 54.7307L55.4803 54.3169L55.0665 54.7307ZM79.3947 80.382C83.4442 80.382 87.3278 78.7734 90.1912 75.91L89.3637 75.0824C86.7197 77.7264 83.1338 79.2117 79.3947 79.2117V80.382ZM68.6033 75.9049C71.4655 78.7671 75.3462 80.3772 79.394 80.382L79.3954 79.2117C75.6575 79.2073 72.0739 77.7205 69.4308 75.0774L68.6033 75.9049ZM64.1261 65.1141C64.1309 69.162 65.741 73.0426 68.6033 75.9049L69.4308 75.0774C66.7877 72.4342 65.3008 68.8507 65.2964 65.1127L64.1261 65.1141ZM79.3377 30.4191C72.4248 37.6909 64.1261 49.6397 64.1261 65.1134H65.2964C65.2964 50.0697 73.3685 38.3968 80.1859 31.2254L79.3377 30.4191ZM79.9723 29.9775C79.733 30.0801 79.5171 30.2304 79.3377 30.4191L80.1859 31.2254C80.2559 31.1518 80.3402 31.0931 80.4337 31.053L79.9723 29.9775ZM80.7297 29.822C80.4693 29.8219 80.2116 29.8748 79.9723 29.9775L80.4337 31.053C80.5271 31.0129 80.6277 30.9923 80.7294 30.9923L80.7297 29.822ZM83.3993 29.822H80.7295V30.9923H83.3993V29.822ZM84.3738 30.0877C84.0785 29.9137 83.742 29.822 83.3993 29.822V30.9923C83.5331 30.9923 83.6645 31.0281 83.7798 31.096L84.3738 30.0877ZM85.0786 30.8112C84.9124 30.5115 84.6691 30.2616 84.3738 30.0877L83.7798 31.096C83.8951 31.1639 83.9901 31.2615 84.055 31.3786L85.0786 30.8112ZM85.3186 31.7924C85.3276 31.4498 85.2447 31.111 85.0786 30.8112L84.055 31.3786C84.1199 31.4956 84.1522 31.6279 84.1487 31.7617L85.3186 31.7924ZM85.0274 32.7596C85.2091 32.469 85.3096 32.135 85.3186 31.7924L84.1487 31.7617C84.1452 31.8955 84.106 32.0259 84.035 32.1393L85.0274 32.7596ZM78.724 50.56C79.4419 44.2257 81.5968 38.139 85.0246 32.7641L84.0379 32.1348C80.5143 37.66 78.2991 43.9168 77.5612 50.4282L78.724 50.56ZM79.3947 49.8449C78.9467 49.8449 78.5121 49.8745 78.0918 49.9111L78.1934 51.077C78.6007 51.0415 78.9964 51.0151 79.3947 51.0151V49.8449ZM90.1912 54.3169C87.3278 51.4535 83.4442 49.8449 79.3947 49.8449V51.0151C83.1338 51.0151 86.7197 52.5005 89.3637 55.1444L90.1912 54.3169ZM94.6633 65.1134C94.6633 61.064 93.0546 57.1803 90.1912 54.3169L89.3637 55.1444C92.0076 57.7884 93.493 61.3743 93.493 65.1134H94.6633ZM90.1912 75.91C93.0546 73.0465 94.6633 69.1629 94.6633 65.1134H93.493C93.493 68.8525 92.0076 72.4385 89.3637 75.0824L90.1912 75.91ZM44.6838 80.382C48.7332 80.382 52.6169 78.7734 55.4803 75.91L54.6528 75.0824C52.0088 77.7264 48.4229 79.2117 44.6838 79.2117V80.382ZM33.8923 75.9049C36.7546 78.7671 40.6352 80.3772 44.6831 80.382L44.6844 79.2117C40.9465 79.2073 37.3629 77.7205 34.7198 75.0774L33.8923 75.9049ZM29.4152 65.1141C29.42 69.162 31.0301 73.0426 33.8923 75.9049L34.7198 75.0774C32.0767 72.4342 30.5899 68.8507 30.5855 65.1127L29.4152 65.1141ZM44.6268 30.4191C37.7138 37.6909 29.4152 49.6397 29.4152 65.1134H30.5855C30.5855 50.0697 38.6575 38.3968 45.4749 31.2254L44.6268 30.4191ZM45.2614 29.9775C45.0221 30.0801 44.8062 30.2304 44.6267 30.4191L45.4749 31.2254C45.545 31.1517 45.6293 31.0931 45.7227 31.053L45.2614 29.9775ZM46.0187 29.822C45.7584 29.8219 45.5007 29.8748 45.2614 29.9775L45.7227 31.053C45.8162 31.0129 45.9168 30.9923 46.0185 30.9923L46.0187 29.822ZM48.6883 29.822H46.0186V30.9923H48.6883V29.822ZM49.6628 30.0877C49.3675 29.9137 49.0311 29.822 48.6883 29.822V30.9923C48.8222 30.9923 48.9535 31.0281 49.0689 31.096L49.6628 30.0877ZM50.3676 30.8112C50.2015 30.5115 49.9581 30.2616 49.6628 30.0877L49.0689 31.096C49.1842 31.1639 49.2792 31.2615 49.3441 31.3786L50.3676 30.8112ZM50.6077 31.7924C50.6167 31.4498 50.5338 31.111 50.3676 30.8112L49.3441 31.3786C49.4089 31.4956 49.4413 31.6279 49.4378 31.7617L50.6077 31.7924ZM50.3165 32.7596C50.4981 32.469 50.5987 32.135 50.6077 31.7924L49.4378 31.7617C49.4343 31.8955 49.395 32.0259 49.3241 32.1393L50.3165 32.7596ZM44.0131 50.56C44.7309 44.2257 46.8859 38.139 50.3136 32.7641L49.3269 32.1348C45.8034 37.66 43.5881 43.9168 42.8502 50.4282L44.0131 50.56ZM44.6838 49.8449C44.2357 49.8449 43.8012 49.8745 43.3809 49.9111L43.4824 51.077C43.8897 51.0415 44.2855 51.0151 44.6838 51.0151V49.8449ZM55.4803 54.3169C52.6169 51.4535 48.7332 49.8449 44.6838 49.8449V51.0151C48.4229 51.0151 52.0088 52.5005 54.6528 55.1444L55.4803 54.3169ZM59.9523 65.1134C59.9523 61.064 58.3437 57.1803 55.4803 54.3169L54.6528 55.1444C57.2967 57.7884 58.782 61.3743 58.782 65.1134H59.9523ZM55.4803 75.91C58.3437 73.0465 59.9523 69.1629 59.9523 65.1134H58.782C58.782 68.8525 57.2967 72.4385 54.6528 75.0824L55.4803 75.91Z" fill="url(#paint1_linear_14447_258016)" mask="url(#path-1-inside-1_14447_258016)"/>
<path d="M79.3947 79.7969L79.394 80.382H79.3947V79.7969ZM89.7774 75.4962L90.1912 75.91L89.7774 75.4962ZM69.017 75.4911L69.4308 75.0774L69.017 75.4911ZM64.7113 65.1134H64.1261L64.1261 65.1141L64.7113 65.1134ZM79.7618 30.8223L79.3377 30.4191L79.7618 30.8223ZM80.203 30.5152L79.9723 29.9775L79.9723 29.9775L80.203 30.5152ZM80.7295 30.4071L80.7294 30.9923H80.7295V30.4071ZM84.0768 30.5919L84.3738 30.0877L84.3738 30.0877L84.0768 30.5919ZM84.7337 31.777L84.1487 31.7617V31.7617L84.7337 31.777ZM84.5312 32.4495L85.0246 32.7641L85.0274 32.7596L84.5312 32.4495ZM78.1426 50.4941L77.5612 50.4282L77.4806 51.1391L78.1934 51.077L78.1426 50.4941ZM89.7774 54.7307L90.1912 54.3169L89.7774 54.7307ZM44.6838 79.7969L44.6831 80.382H44.6838V79.7969ZM55.0665 75.4962L54.6528 75.0824L55.0665 75.4962ZM34.3061 75.4911L33.8923 75.9049V75.9049L34.3061 75.4911ZM30.0003 65.1134H29.4152V65.1141L30.0003 65.1134ZM45.0508 30.8223L45.4749 31.2254L45.4749 31.2254L45.0508 30.8223ZM45.4921 30.5152L45.2614 29.9775L45.2614 29.9775L45.4921 30.5152ZM46.0186 30.4071L46.0185 30.9923H46.0186V30.4071ZM49.3658 30.5919L49.6628 30.0877L49.6628 30.0877L49.3658 30.5919ZM50.0227 31.777L50.6077 31.7924V31.7924L50.0227 31.777ZM49.8203 32.4495L50.3137 32.7641L50.3165 32.7596L49.8203 32.4495ZM43.4317 50.4941L42.8502 50.4282L42.7697 51.1391L43.4824 51.077L43.4317 50.4941ZM55.0665 54.7307L55.4803 54.3169L55.0665 54.7307ZM79.3947 80.382C83.4442 80.382 87.3278 78.7734 90.1912 75.91L89.3637 75.0824C86.7197 77.7264 83.1338 79.2117 79.3947 79.2117V80.382ZM68.6033 75.9049C71.4655 78.7671 75.3462 80.3772 79.394 80.382L79.3954 79.2117C75.6575 79.2073 72.0739 77.7205 69.4308 75.0774L68.6033 75.9049ZM64.1261 65.1141C64.1309 69.162 65.741 73.0426 68.6033 75.9049L69.4308 75.0774C66.7877 72.4342 65.3008 68.8507 65.2964 65.1127L64.1261 65.1141ZM79.3377 30.4191C72.4248 37.6909 64.1261 49.6397 64.1261 65.1134H65.2964C65.2964 50.0697 73.3685 38.3968 80.1859 31.2254L79.3377 30.4191ZM79.9723 29.9775C79.733 30.0801 79.5171 30.2304 79.3377 30.4191L80.1859 31.2254C80.2559 31.1518 80.3402 31.0931 80.4337 31.053L79.9723 29.9775ZM80.7297 29.822C80.4693 29.8219 80.2116 29.8748 79.9723 29.9775L80.4337 31.053C80.5271 31.0129 80.6277 30.9923 80.7294 30.9923L80.7297 29.822ZM83.3993 29.822H80.7295V30.9923H83.3993V29.822ZM84.3738 30.0877C84.0785 29.9137 83.742 29.822 83.3993 29.822V30.9923C83.5331 30.9923 83.6645 31.0281 83.7798 31.096L84.3738 30.0877ZM85.0786 30.8112C84.9124 30.5115 84.6691 30.2616 84.3738 30.0877L83.7798 31.096C83.8951 31.1639 83.9901 31.2615 84.055 31.3786L85.0786 30.8112ZM85.3186 31.7924C85.3276 31.4498 85.2447 31.111 85.0786 30.8112L84.055 31.3786C84.1199 31.4956 84.1522 31.6279 84.1487 31.7617L85.3186 31.7924ZM85.0274 32.7596C85.2091 32.469 85.3096 32.135 85.3186 31.7924L84.1487 31.7617C84.1452 31.8955 84.106 32.0259 84.035 32.1393L85.0274 32.7596ZM78.724 50.56C79.4419 44.2257 81.5968 38.139 85.0246 32.7641L84.0379 32.1348C80.5143 37.66 78.2991 43.9168 77.5612 50.4282L78.724 50.56ZM79.3947 49.8449C78.9467 49.8449 78.5121 49.8745 78.0918 49.9111L78.1934 51.077C78.6007 51.0415 78.9964 51.0151 79.3947 51.0151V49.8449ZM90.1912 54.3169C87.3278 51.4535 83.4442 49.8449 79.3947 49.8449V51.0151C83.1338 51.0151 86.7197 52.5005 89.3637 55.1444L90.1912 54.3169ZM94.6633 65.1134C94.6633 61.064 93.0546 57.1803 90.1912 54.3169L89.3637 55.1444C92.0076 57.7884 93.493 61.3743 93.493 65.1134H94.6633ZM90.1912 75.91C93.0546 73.0465 94.6633 69.1629 94.6633 65.1134H93.493C93.493 68.8525 92.0076 72.4385 89.3637 75.0824L90.1912 75.91ZM44.6838 80.382C48.7332 80.382 52.6169 78.7734 55.4803 75.91L54.6528 75.0824C52.0088 77.7264 48.4229 79.2117 44.6838 79.2117V80.382ZM33.8923 75.9049C36.7546 78.7671 40.6352 80.3772 44.6831 80.382L44.6844 79.2117C40.9465 79.2073 37.3629 77.7205 34.7198 75.0774L33.8923 75.9049ZM29.4152 65.1141C29.42 69.162 31.0301 73.0426 33.8923 75.9049L34.7198 75.0774C32.0767 72.4342 30.5899 68.8507 30.5855 65.1127L29.4152 65.1141ZM44.6268 30.4191C37.7138 37.6909 29.4152 49.6397 29.4152 65.1134H30.5855C30.5855 50.0697 38.6575 38.3968 45.4749 31.2254L44.6268 30.4191ZM45.2614 29.9775C45.0221 30.0801 44.8062 30.2304 44.6267 30.4191L45.4749 31.2254C45.545 31.1517 45.6293 31.0931 45.7227 31.053L45.2614 29.9775ZM46.0187 29.822C45.7584 29.8219 45.5007 29.8748 45.2614 29.9775L45.7227 31.053C45.8162 31.0129 45.9168 30.9923 46.0185 30.9923L46.0187 29.822ZM48.6883 29.822H46.0186V30.9923H48.6883V29.822ZM49.6628 30.0877C49.3675 29.9137 49.0311 29.822 48.6883 29.822V30.9923C48.8222 30.9923 48.9535 31.0281 49.0689 31.096L49.6628 30.0877ZM50.3676 30.8112C50.2015 30.5115 49.9581 30.2616 49.6628 30.0877L49.0689 31.096C49.1842 31.1639 49.2792 31.2615 49.3441 31.3786L50.3676 30.8112ZM50.6077 31.7924C50.6167 31.4498 50.5338 31.111 50.3676 30.8112L49.3441 31.3786C49.4089 31.4956 49.4413 31.6279 49.4378 31.7617L50.6077 31.7924ZM50.3165 32.7596C50.4981 32.469 50.5987 32.135 50.6077 31.7924L49.4378 31.7617C49.4343 31.8955 49.395 32.0259 49.3241 32.1393L50.3165 32.7596ZM44.0131 50.56C44.7309 44.2257 46.8859 38.139 50.3136 32.7641L49.3269 32.1348C45.8034 37.66 43.5881 43.9168 42.8502 50.4282L44.0131 50.56ZM44.6838 49.8449C44.2357 49.8449 43.8012 49.8745 43.3809 49.9111L43.4824 51.077C43.8897 51.0415 44.2855 51.0151 44.6838 51.0151V49.8449ZM55.4803 54.3169C52.6169 51.4535 48.7332 49.8449 44.6838 49.8449V51.0151C48.4229 51.0151 52.0088 52.5005 54.6528 55.1444L55.4803 54.3169ZM59.9523 65.1134C59.9523 61.064 58.3437 57.1803 55.4803 54.3169L54.6528 55.1444C57.2967 57.7884 58.782 61.3743 58.782 65.1134H59.9523ZM55.4803 75.91C58.3437 73.0465 59.9523 69.1629 59.9523 65.1134H58.782C58.782 68.8525 57.2967 72.4385 54.6528 75.0824L55.4803 75.91Z" fill="url(#paint2_linear_14447_258016)" mask="url(#path-1-inside-1_14447_258016)"/>
<g filter="url(#filter0_f_14447_258016)">
<circle cx="42" cy="42" r="12" fill="#24645D"/>
</g>
<g filter="url(#filter1_f_14447_258016)">
<path d="M79.3947 79.7969L79.3945 79.9432H79.3947V79.7969ZM89.7774 75.4962L89.8809 75.5996L89.7774 75.4962ZM69.017 75.4911L69.1204 75.3877L69.017 75.4911ZM64.7113 65.1134H64.565V65.1136L64.7113 65.1134ZM79.7618 30.8223L79.6558 30.7215L79.7618 30.8223ZM80.203 30.5152L80.1453 30.3808H80.1453L80.203 30.5152ZM80.7295 30.4071L80.7295 30.5534H80.7295V30.4071ZM84.0768 30.5919L84.151 30.4658H84.151L84.0768 30.5919ZM84.7337 31.777L84.5874 31.7732L84.7337 31.777ZM84.5312 32.4495L84.6546 32.5281L84.6553 32.527L84.5312 32.4495ZM78.1426 50.4941L77.9972 50.4776L77.9771 50.6553L78.1553 50.6398L78.1426 50.4941ZM89.7774 54.7307L89.8809 54.6272L89.7774 54.7307ZM44.6838 79.7969L44.6836 79.9432H44.6838V79.7969ZM55.0665 75.4962L54.9631 75.3928L55.0665 75.4962ZM34.3061 75.4911L34.2026 75.5946L34.3061 75.4911ZM30.0003 65.1134H29.854V65.1136L30.0003 65.1134ZM45.0508 30.8223L45.1569 30.9231V30.9231L45.0508 30.8223ZM45.4921 30.5152L45.4344 30.3808H45.4344L45.4921 30.5152ZM46.0186 30.4071L46.0186 30.5534H46.0186V30.4071ZM49.3658 30.5919L49.4401 30.4658L49.4401 30.4658L49.3658 30.5919ZM50.0227 31.777L50.169 31.7809V31.7809L50.0227 31.777ZM49.8203 32.4495L49.9436 32.5281L49.9443 32.527L49.8203 32.4495ZM43.4317 50.4941L43.2863 50.4776L43.2662 50.6553L43.4444 50.6398L43.4317 50.4941ZM55.0665 54.7307L55.1699 54.6272L55.0665 54.7307ZM79.3947 79.9432C83.3278 79.9432 87.0998 78.3807 89.8809 75.5996L89.674 75.3928C86.9478 78.119 83.2502 79.6506 79.3947 79.6506V79.9432ZM68.9136 75.5946C71.6936 78.3746 75.4629 79.9385 79.3945 79.9432L79.3949 79.6506C75.5407 79.646 71.8457 78.113 69.1204 75.3877L68.9136 75.5946ZM64.565 65.1136C64.5696 69.0452 66.1335 72.8145 68.9136 75.5946L69.1204 75.3877C66.3952 72.6624 64.8621 68.9674 64.8575 65.1133L64.565 65.1136ZM79.6558 30.7215C72.7786 37.9556 64.565 49.8009 64.565 65.1134H64.8575C64.8575 49.9084 73.0146 38.1321 79.8678 30.9231L79.6558 30.7215ZM80.1453 30.3808C79.9607 30.46 79.7942 30.5759 79.6558 30.7215L79.8678 30.9231C79.9789 30.8062 80.1125 30.7132 80.2607 30.6497L80.1453 30.3808ZM80.7296 30.2608C80.5287 30.2608 80.3299 30.3016 80.1453 30.3808L80.2607 30.6497C80.4088 30.5861 80.5683 30.5534 80.7295 30.5534L80.7296 30.2608ZM83.3993 30.2608H80.7295V30.5534H83.3993V30.2608ZM84.151 30.4658C83.9232 30.3316 83.6637 30.2608 83.3993 30.2608V30.5534C83.6114 30.5534 83.8197 30.6102 84.0025 30.7179L84.151 30.4658ZM84.6947 31.024C84.5666 30.7927 84.3788 30.6 84.151 30.4658L84.0025 30.7179C84.1853 30.8256 84.336 30.9802 84.4388 31.1658L84.6947 31.024ZM84.8799 31.7809C84.8868 31.5166 84.8229 31.2552 84.6947 31.024L84.4388 31.1658C84.5417 31.3514 84.593 31.5611 84.5874 31.7732L84.8799 31.7809ZM84.6553 32.527C84.7954 32.3028 84.873 32.0452 84.8799 31.7809L84.5874 31.7732C84.5819 31.9853 84.5196 32.192 84.4072 32.3719L84.6553 32.527ZM78.288 50.5105C79.0133 44.1098 81.1909 37.9593 84.6546 32.5281L84.4079 32.3708C80.9202 37.8396 78.7276 44.0326 77.9972 50.4776L78.288 50.5105ZM79.3947 50.2837C78.9653 50.2837 78.5453 50.3122 78.1299 50.3483L78.1553 50.6398C78.5675 50.6039 78.9778 50.5763 79.3947 50.5763V50.2837ZM89.8809 54.6272C87.0998 51.8461 83.3278 50.2837 79.3947 50.2837V50.5763C83.2502 50.5763 86.9478 52.1079 89.674 54.8341L89.8809 54.6272ZM94.2244 65.1134C94.2244 61.1804 92.662 57.4084 89.8809 54.6272L89.674 54.8341C92.4003 57.5604 93.9318 61.2579 93.9318 65.1134H94.2244ZM89.8809 75.5996C92.662 72.8185 94.2244 69.0465 94.2244 65.1134H93.9318C93.9318 68.9689 92.4003 72.6665 89.674 75.3928L89.8809 75.5996ZM44.6838 79.9432C48.6168 79.9432 52.3888 78.3807 55.1699 75.5996L54.9631 75.3928C52.2368 78.119 48.5392 79.6506 44.6838 79.6506V79.9432ZM34.2026 75.5946C36.9827 78.3746 40.752 79.9385 44.6836 79.9432L44.6839 79.6506C40.8298 79.646 37.1348 78.113 34.4095 75.3877L34.2026 75.5946ZM29.854 65.1136C29.8587 69.0452 31.4226 72.8145 34.2026 75.5946L34.4095 75.3877C31.6842 72.6624 30.1512 68.9674 30.1466 65.1133L29.854 65.1136ZM44.9448 30.7215C38.0677 37.9556 29.854 49.8009 29.854 65.1134H30.1466C30.1466 49.9084 38.3036 38.1321 45.1569 30.9231L44.9448 30.7215ZM45.4344 30.3808C45.2498 30.46 45.0832 30.5759 44.9448 30.7215L45.1569 30.9231C45.2679 30.8062 45.4016 30.7132 45.5497 30.6497L45.4344 30.3808ZM46.0186 30.2608C45.8178 30.2608 45.619 30.3016 45.4344 30.3808L45.5497 30.6497C45.6979 30.5861 45.8574 30.5534 46.0186 30.5534L46.0186 30.2608ZM48.6883 30.2608H46.0186V30.5534H48.6883V30.2608ZM49.4401 30.4658C49.2123 30.3316 48.9527 30.2608 48.6883 30.2608V30.5534C48.9005 30.5534 49.1088 30.6102 49.2916 30.7179L49.4401 30.4658ZM49.9838 31.024C49.8556 30.7927 49.6679 30.6 49.4401 30.4658L49.2916 30.7179C49.4744 30.8256 49.6251 30.9802 49.7279 31.1658L49.9838 31.024ZM50.169 31.7809C50.1759 31.5166 50.112 31.2552 49.9838 31.024L49.7279 31.1658C49.8308 31.3514 49.8821 31.5611 49.8765 31.7732L50.169 31.7809ZM49.9443 32.527C50.0845 32.3028 50.162 32.0452 50.169 31.7809L49.8765 31.7732C49.8709 31.9853 49.8087 32.192 49.6962 32.3719L49.9443 32.527ZM43.577 50.5105C44.3024 44.1098 46.4799 37.9593 49.9436 32.5281L49.6969 32.3708C46.2093 37.8396 44.0167 44.0326 43.2863 50.4776L43.577 50.5105ZM44.6838 50.2837C44.2544 50.2837 43.8344 50.3122 43.419 50.3483L43.4444 50.6398C43.8565 50.6039 44.2668 50.5763 44.6838 50.5763V50.2837ZM55.1699 54.6272C52.3888 51.8461 48.6168 50.2837 44.6838 50.2837V50.5763C48.5392 50.5763 52.2368 52.1079 54.9631 54.8341L55.1699 54.6272ZM59.5135 65.1134C59.5135 61.1804 57.9511 57.4084 55.1699 54.6272L54.9631 54.8341C57.6893 57.5604 59.2209 61.2579 59.2209 65.1134H59.5135ZM55.1699 75.5996C57.9511 72.8185 59.5135 69.0465 59.5135 65.1134H59.2209C59.2209 68.9689 57.6893 72.6665 54.9631 75.3928L55.1699 75.5996Z" fill="url(#paint3_linear_14447_258016)"/>
</g>
<g filter="url(#filter2_f_14447_258016)">
<mask id="path-5-inside-2_14447_258016" fill="white">
<path fill-rule="evenodd" clip-rule="evenodd" d="M89.7774 75.4962C87.0238 78.2499 83.289 79.7969 79.3947 79.7969C75.5018 79.7923 71.7697 78.2438 69.017 75.4911C66.2643 72.7384 64.7159 69.0063 64.7113 65.1134C64.7113 49.8547 72.8966 38.0439 79.7618 30.8223C79.8865 30.6911 80.0366 30.5866 80.203 30.5152C80.3694 30.4439 80.5485 30.4071 80.7295 30.4071H83.3993C83.6375 30.4071 83.8715 30.4709 84.0768 30.5919C84.2821 30.7128 84.4513 30.8865 84.5668 31.0949C84.6823 31.3033 84.7399 31.5388 84.7337 31.777C84.7274 32.0152 84.6575 32.2474 84.5312 32.4495C81.0556 37.8995 78.8705 44.0712 78.1426 50.4941C78.5564 50.458 78.9715 50.43 79.3947 50.43C83.289 50.43 87.0238 51.977 89.7774 54.7307C92.5311 57.4844 94.0781 61.2192 94.0781 65.1134C94.0781 69.0077 92.5311 72.7425 89.7774 75.4962ZM55.0665 75.4962C52.3128 78.2499 48.578 79.7969 44.6838 79.7969C40.7909 79.7923 37.0588 78.2438 34.3061 75.4911C31.5534 72.7384 30.0049 69.0063 30.0003 65.1134C30.0003 49.8547 38.1857 38.0439 45.0508 30.8223C45.1756 30.6911 45.3257 30.5866 45.4921 30.5152C45.6584 30.4439 45.8376 30.4071 46.0186 30.4071H48.6883C48.9266 30.4071 49.1605 30.4709 49.3658 30.5919C49.5712 30.7128 49.7403 30.8865 49.8559 31.0949C49.9714 31.3033 50.029 31.5388 50.0227 31.777C50.0165 32.0152 49.9466 32.2474 49.8203 32.4495C46.3446 37.8995 44.1595 44.0712 43.4317 50.4941C43.8455 50.458 44.2606 50.43 44.6838 50.43C48.578 50.43 52.3128 51.977 55.0665 54.7307C57.8202 57.4844 59.3672 61.2192 59.3672 65.1134C59.3672 69.0077 57.8202 72.7425 55.0665 75.4962Z"/>
</mask>
<path d="M79.3947 79.7969L79.3943 80.0894H79.3947V79.7969ZM89.7774 75.4962L89.9843 75.7031L89.7774 75.4962ZM69.017 75.4911L69.2239 75.2842L69.017 75.4911ZM64.7113 65.1134H64.4187V65.1138L64.7113 65.1134ZM79.7618 30.8223L79.5497 30.6207L79.7618 30.8223ZM80.203 30.5152L80.0877 30.2464L80.0877 30.2464L80.203 30.5152ZM80.7295 30.4071L80.7295 30.6997H80.7295V30.4071ZM84.0768 30.5919L84.2253 30.3398L84.2253 30.3398L84.0768 30.5919ZM84.7337 31.777L84.4412 31.7694L84.7337 31.777ZM84.5312 32.4495L84.7779 32.6068L84.7793 32.6045L84.5312 32.4495ZM78.1426 50.4941L77.8519 50.4611L77.8116 50.8166L78.168 50.7855L78.1426 50.4941ZM89.7774 54.7307L89.9843 54.5238L89.7774 54.7307ZM44.6838 79.7969L44.6834 80.0894H44.6838V79.7969ZM55.0665 75.4962L54.8596 75.2893L55.0665 75.4962ZM34.3061 75.4911L34.0992 75.698L34.3061 75.4911ZM30.0003 65.1134H29.7077V65.1138L30.0003 65.1134ZM45.0508 30.8223L45.2629 31.0239H45.2629L45.0508 30.8223ZM45.4921 30.5152L45.3767 30.2464L45.3767 30.2464L45.4921 30.5152ZM46.0186 30.4071L46.0185 30.6997H46.0186V30.4071ZM49.3658 30.5919L49.5143 30.3398L49.5143 30.3398L49.3658 30.5919ZM50.0227 31.777L50.3152 31.7847V31.7847L50.0227 31.777ZM49.8203 32.4495L50.067 32.6068L50.0684 32.6045L49.8203 32.4495ZM43.4317 50.4941L43.1409 50.4611L43.1007 50.8166L43.457 50.7855L43.4317 50.4941ZM55.0665 54.7307L55.2734 54.5238L55.0665 54.7307ZM79.3947 80.0894C83.3666 80.0894 87.1758 78.5116 89.9843 75.7031L89.5706 75.2893C86.8718 77.9881 83.2114 79.5043 79.3947 79.5043V80.0894ZM68.8101 75.698C71.6176 78.5055 75.424 80.0848 79.3943 80.0894L79.395 79.5043C75.5796 79.4998 71.9218 77.9821 69.2239 75.2842L68.8101 75.698ZM64.4187 65.1138C64.4234 69.0841 66.0027 72.8905 68.8101 75.698L69.2239 75.2842C66.526 72.5863 65.0083 68.9285 65.0038 65.1131L64.4187 65.1138ZM79.5497 30.6207C72.6607 37.8674 64.4187 49.7472 64.4187 65.1134H65.0038C65.0038 49.9622 73.1325 38.2203 79.9738 31.0239L79.5497 30.6207ZM80.0877 30.2464C79.8848 30.3334 79.7018 30.4607 79.5497 30.6207L79.9738 31.0239C80.0712 30.9214 80.1884 30.8398 80.3183 30.7841L80.0877 30.2464ZM80.7296 30.1146C80.5089 30.1145 80.2905 30.1594 80.0877 30.2464L80.3183 30.7841C80.4482 30.7284 80.5881 30.6997 80.7295 30.6997L80.7296 30.1146ZM83.3993 30.1146H80.7295V30.6997H83.3993V30.1146ZM84.2253 30.3398C83.975 30.1923 83.6898 30.1146 83.3993 30.1146V30.6997C83.5853 30.6997 83.768 30.7495 83.9283 30.8439L84.2253 30.3398ZM84.8227 30.9531C84.6819 30.699 84.4756 30.4872 84.2253 30.3398L83.9283 30.8439C84.0886 30.9384 84.2207 31.074 84.3109 31.2367L84.8227 30.9531ZM85.0261 31.7847C85.0338 31.4943 84.9635 31.2072 84.8227 30.9531L84.3109 31.2367C84.4011 31.3995 84.4461 31.5834 84.4412 31.7694L85.0261 31.7847ZM84.7793 32.6045C84.9333 32.3582 85.0185 32.0751 85.0261 31.7847L84.4412 31.7694C84.4363 31.9553 84.3817 32.1366 84.2831 32.2944L84.7793 32.6045ZM78.4333 50.527C79.1562 44.1485 81.3262 38.0192 84.7779 32.6068L84.2845 32.2922C80.7849 37.7797 78.5848 43.994 77.8519 50.4611L78.4333 50.527ZM79.3947 50.1374C78.9591 50.1374 78.5343 50.1663 78.1172 50.2026L78.168 50.7855C78.5785 50.7498 78.984 50.7226 79.3947 50.7226V50.1374ZM89.9843 54.5238C87.1758 51.7153 83.3666 50.1374 79.3947 50.1374V50.7226C83.2114 50.7226 86.8718 52.2388 89.5706 54.9376L89.9843 54.5238ZM94.3707 65.1134C94.3707 61.1416 92.7929 57.3323 89.9843 54.5238L89.5706 54.9376C92.2694 57.6364 93.7856 61.2967 93.7856 65.1134H94.3707ZM89.9843 75.7031C92.7929 72.8945 94.3707 69.0853 94.3707 65.1134H93.7856C93.7856 68.9301 92.2694 72.5905 89.5706 75.2893L89.9843 75.7031ZM44.6838 80.0894C48.6556 80.0894 52.4648 78.5116 55.2734 75.7031L54.8596 75.2893C52.1608 77.9881 48.5004 79.5043 44.6838 79.5043V80.0894ZM34.0992 75.698C36.9067 78.5055 40.7131 80.0848 44.6834 80.0894L44.6841 79.5043C40.8687 79.4998 37.2108 77.9821 34.5129 75.2842L34.0992 75.698ZM29.7077 65.1138C29.7124 69.0841 31.2917 72.8905 34.0992 75.698L34.5129 75.2842C31.815 72.5863 30.2974 68.9285 30.2929 65.1131L29.7077 65.1138ZM44.8388 30.6207C37.9497 37.8674 29.7077 49.7472 29.7077 65.1134H30.2929C30.2929 49.9622 38.4216 38.2203 45.2629 31.0239L44.8388 30.6207ZM45.3767 30.2464C45.1739 30.3334 44.9909 30.4607 44.8388 30.6207L45.2629 31.0239C45.3603 30.9214 45.4775 30.8398 45.6074 30.7841L45.3767 30.2464ZM46.0187 30.1146C45.798 30.1145 45.5796 30.1594 45.3767 30.2464L45.6074 30.7841C45.7373 30.7284 45.8772 30.6997 46.0185 30.6997L46.0187 30.1146ZM48.6883 30.1146H46.0186V30.6997H48.6883V30.1146ZM49.5143 30.3398C49.264 30.1923 48.9788 30.1146 48.6883 30.1146V30.6997C48.8744 30.6997 49.057 30.7495 49.2174 30.8439L49.5143 30.3398ZM50.1118 30.9531C49.9709 30.699 49.7646 30.4872 49.5143 30.3398L49.2174 30.8439C49.3777 30.9384 49.5098 31.074 49.6 31.2367L50.1118 30.9531ZM50.3152 31.7847C50.3228 31.4943 50.2526 31.2072 50.1118 30.9531L49.6 31.2367C49.6902 31.3995 49.7351 31.5834 49.7303 31.7694L50.3152 31.7847ZM50.0684 32.6045C50.2224 32.3582 50.3076 32.0751 50.3152 31.7847L49.7303 31.7693C49.7254 31.9553 49.6708 32.1366 49.5722 32.2944L50.0684 32.6045ZM43.7224 50.527C44.4452 44.1485 46.6153 38.0192 50.067 32.6068L49.5736 32.2922C46.074 37.7797 43.8738 43.994 43.1409 50.4611L43.7224 50.527ZM44.6838 50.1374C44.2482 50.1374 43.8233 50.1663 43.4063 50.2026L43.457 50.7855C43.8676 50.7498 44.273 50.7226 44.6838 50.7226V50.1374ZM55.2734 54.5238C52.4648 51.7153 48.6556 50.1374 44.6838 50.1374V50.7226C48.5004 50.7226 52.1608 52.2388 54.8596 54.9376L55.2734 54.5238ZM59.6598 65.1134C59.6598 61.1416 58.0819 57.3323 55.2734 54.5238L54.8596 54.9376C57.5584 57.6364 59.0746 61.2967 59.0746 65.1134H59.6598ZM55.2734 75.7031C58.0819 72.8945 59.6598 69.0853 59.6598 65.1134H59.0746C59.0746 68.9301 57.5584 72.5905 54.8596 75.2893L55.2734 75.7031Z" fill="url(#paint4_linear_14447_258016)" mask="url(#path-5-inside-2_14447_258016)"/>
</g>
<g filter="url(#filter3_f_14447_258016)">
<path d="M79.3947 79.7969L79.3943 80.0894H79.3947V79.7969ZM89.7774 75.4962L89.9843 75.7031L89.7774 75.4962ZM69.017 75.4911L69.2239 75.2842L69.017 75.4911ZM64.7113 65.1134H64.4187V65.1138L64.7113 65.1134ZM79.7618 30.8223L79.5497 30.6207L79.7618 30.8223ZM80.203 30.5152L80.0877 30.2464L80.0877 30.2464L80.203 30.5152ZM80.7295 30.4071L80.7295 30.6997H80.7295V30.4071ZM84.0768 30.5919L84.2253 30.3398L84.2253 30.3398L84.0768 30.5919ZM84.7337 31.777L84.4412 31.7694L84.7337 31.777ZM84.5312 32.4495L84.7779 32.6068L84.7793 32.6045L84.5312 32.4495ZM78.1426 50.4941L77.8519 50.4611L77.8116 50.8166L78.168 50.7855L78.1426 50.4941ZM89.7774 54.7307L89.9843 54.5238L89.7774 54.7307ZM44.6838 79.7969L44.6834 80.0894H44.6838V79.7969ZM55.0665 75.4962L54.8596 75.2893L55.0665 75.4962ZM34.3061 75.4911L34.0992 75.698L34.3061 75.4911ZM30.0003 65.1134H29.7077V65.1138L30.0003 65.1134ZM45.0508 30.8223L45.2629 31.0239H45.2629L45.0508 30.8223ZM45.4921 30.5152L45.3767 30.2464L45.3767 30.2464L45.4921 30.5152ZM46.0186 30.4071L46.0185 30.6997H46.0186V30.4071ZM49.3658 30.5919L49.5143 30.3398L49.5143 30.3398L49.3658 30.5919ZM50.0227 31.777L50.3152 31.7847V31.7847L50.0227 31.777ZM49.8203 32.4495L50.067 32.6068L50.0684 32.6045L49.8203 32.4495ZM43.4317 50.4941L43.1409 50.4611L43.1007 50.8166L43.457 50.7855L43.4317 50.4941ZM55.0665 54.7307L55.2734 54.5238L55.0665 54.7307ZM79.3947 80.0894C83.3666 80.0894 87.1758 78.5116 89.9843 75.7031L89.5706 75.2893C86.8718 77.9881 83.2114 79.5043 79.3947 79.5043V80.0894ZM68.8101 75.698C71.6176 78.5055 75.424 80.0848 79.3943 80.0894L79.395 79.5043C75.5796 79.4998 71.9218 77.9821 69.2239 75.2842L68.8101 75.698ZM64.4187 65.1138C64.4234 69.0841 66.0027 72.8905 68.8101 75.698L69.2239 75.2842C66.526 72.5863 65.0083 68.9285 65.0038 65.1131L64.4187 65.1138ZM79.5497 30.6207C72.6607 37.8674 64.4187 49.7472 64.4187 65.1134H65.0038C65.0038 49.9622 73.1325 38.2203 79.9738 31.0239L79.5497 30.6207ZM80.0877 30.2464C79.8848 30.3334 79.7018 30.4607 79.5497 30.6207L79.9738 31.0239C80.0712 30.9214 80.1884 30.8398 80.3183 30.7841L80.0877 30.2464ZM80.7296 30.1146C80.5089 30.1145 80.2905 30.1594 80.0877 30.2464L80.3183 30.7841C80.4482 30.7284 80.5881 30.6997 80.7295 30.6997L80.7296 30.1146ZM83.3993 30.1146H80.7295V30.6997H83.3993V30.1146ZM84.2253 30.3398C83.975 30.1923 83.6898 30.1146 83.3993 30.1146V30.6997C83.5853 30.6997 83.768 30.7495 83.9283 30.8439L84.2253 30.3398ZM84.8227 30.9531C84.6819 30.699 84.4756 30.4872 84.2253 30.3398L83.9283 30.8439C84.0886 30.9384 84.2207 31.074 84.3109 31.2367L84.8227 30.9531ZM85.0261 31.7847C85.0338 31.4943 84.9635 31.2072 84.8227 30.9531L84.3109 31.2367C84.4011 31.3995 84.4461 31.5834 84.4412 31.7694L85.0261 31.7847ZM84.7793 32.6045C84.9333 32.3582 85.0185 32.0751 85.0261 31.7847L84.4412 31.7694C84.4363 31.9553 84.3817 32.1366 84.2831 32.2944L84.7793 32.6045ZM78.4333 50.527C79.1562 44.1485 81.3262 38.0192 84.7779 32.6068L84.2845 32.2922C80.7849 37.7797 78.5848 43.994 77.8519 50.4611L78.4333 50.527ZM79.3947 50.1374C78.9591 50.1374 78.5343 50.1663 78.1172 50.2026L78.168 50.7855C78.5785 50.7498 78.984 50.7226 79.3947 50.7226V50.1374ZM89.9843 54.5238C87.1758 51.7153 83.3666 50.1374 79.3947 50.1374V50.7226C83.2114 50.7226 86.8718 52.2388 89.5706 54.9376L89.9843 54.5238ZM94.3707 65.1134C94.3707 61.1416 92.7929 57.3323 89.9843 54.5238L89.5706 54.9376C92.2694 57.6364 93.7856 61.2967 93.7856 65.1134H94.3707ZM89.9843 75.7031C92.7929 72.8945 94.3707 69.0853 94.3707 65.1134H93.7856C93.7856 68.9301 92.2694 72.5905 89.5706 75.2893L89.9843 75.7031ZM44.6838 80.0894C48.6556 80.0894 52.4648 78.5116 55.2734 75.7031L54.8596 75.2893C52.1608 77.9881 48.5004 79.5043 44.6838 79.5043V80.0894ZM34.0992 75.698C36.9067 78.5055 40.7131 80.0848 44.6834 80.0894L44.6841 79.5043C40.8687 79.4998 37.2108 77.9821 34.5129 75.2842L34.0992 75.698ZM29.7077 65.1138C29.7124 69.0841 31.2917 72.8905 34.0992 75.698L34.5129 75.2842C31.815 72.5863 30.2974 68.9285 30.2929 65.1131L29.7077 65.1138ZM44.8388 30.6207C37.9497 37.8674 29.7077 49.7472 29.7077 65.1134H30.2929C30.2929 49.9622 38.4216 38.2203 45.2629 31.0239L44.8388 30.6207ZM45.3767 30.2464C45.1739 30.3334 44.9909 30.4607 44.8388 30.6207L45.2629 31.0239C45.3603 30.9214 45.4775 30.8398 45.6074 30.7841L45.3767 30.2464ZM46.0187 30.1146C45.798 30.1145 45.5796 30.1594 45.3767 30.2464L45.6074 30.7841C45.7373 30.7284 45.8772 30.6997 46.0185 30.6997L46.0187 30.1146ZM48.6883 30.1146H46.0186V30.6997H48.6883V30.1146ZM49.5143 30.3398C49.264 30.1923 48.9788 30.1146 48.6883 30.1146V30.6997C48.8744 30.6997 49.057 30.7495 49.2174 30.8439L49.5143 30.3398ZM50.1118 30.9531C49.9709 30.699 49.7646 30.4872 49.5143 30.3398L49.2174 30.8439C49.3777 30.9384 49.5098 31.074 49.6 31.2367L50.1118 30.9531ZM50.3152 31.7847C50.3228 31.4943 50.2526 31.2072 50.1118 30.9531L49.6 31.2367C49.6902 31.3995 49.7351 31.5834 49.7303 31.7694L50.3152 31.7847ZM50.0684 32.6045C50.2224 32.3582 50.3076 32.0751 50.3152 31.7847L49.7303 31.7693C49.7254 31.9553 49.6708 32.1366 49.5722 32.2944L50.0684 32.6045ZM43.7224 50.527C44.4452 44.1485 46.6153 38.0192 50.067 32.6068L49.5736 32.2922C46.074 37.7797 43.8738 43.994 43.1409 50.4611L43.7224 50.527ZM44.6838 50.1374C44.2482 50.1374 43.8233 50.1663 43.4063 50.2026L43.457 50.7855C43.8676 50.7498 44.273 50.7226 44.6838 50.7226V50.1374ZM55.2734 54.5238C52.4648 51.7153 48.6556 50.1374 44.6838 50.1374V50.7226C48.5004 50.7226 52.1608 52.2388 54.8596 54.9376L55.2734 54.5238ZM59.6598 65.1134C59.6598 61.1416 58.0819 57.3323 55.2734 54.5238L54.8596 54.9376C57.5584 57.6364 59.0746 61.2967 59.0746 65.1134H59.6598ZM55.2734 75.7031C58.0819 72.8945 59.6598 69.0853 59.6598 65.1134H59.0746C59.0746 68.9301 57.5584 72.5905 54.8596 75.2893L55.2734 75.7031Z" fill="url(#paint5_linear_14447_258016)"/>
</g>
<g filter="url(#filter4_f_14447_258016)">
<path d="M79.3947 79.7969L79.3943 80.0894H79.3947V79.7969ZM89.7774 75.4962L89.9843 75.7031L89.7774 75.4962ZM69.017 75.4911L69.2239 75.2842L69.017 75.4911ZM64.7113 65.1134H64.4187V65.1138L64.7113 65.1134ZM79.7618 30.8223L79.5497 30.6207L79.7618 30.8223ZM80.203 30.5152L80.0877 30.2464L80.0877 30.2464L80.203 30.5152ZM80.7295 30.4071L80.7295 30.6997H80.7295V30.4071ZM84.0768 30.5919L84.2253 30.3398L84.2253 30.3398L84.0768 30.5919ZM84.7337 31.777L84.4412 31.7694L84.7337 31.777ZM84.5312 32.4495L84.7779 32.6068L84.7793 32.6045L84.5312 32.4495ZM78.1426 50.4941L77.8519 50.4611L77.8116 50.8166L78.168 50.7855L78.1426 50.4941ZM89.7774 54.7307L89.9843 54.5238L89.7774 54.7307ZM44.6838 79.7969L44.6834 80.0894H44.6838V79.7969ZM55.0665 75.4962L54.8596 75.2893L55.0665 75.4962ZM34.3061 75.4911L34.0992 75.698L34.3061 75.4911ZM30.0003 65.1134H29.7077V65.1138L30.0003 65.1134ZM45.0508 30.8223L45.2629 31.0239H45.2629L45.0508 30.8223ZM45.4921 30.5152L45.3767 30.2464L45.3767 30.2464L45.4921 30.5152ZM46.0186 30.4071L46.0185 30.6997H46.0186V30.4071ZM49.3658 30.5919L49.5143 30.3398L49.5143 30.3398L49.3658 30.5919ZM50.0227 31.777L50.3152 31.7847V31.7847L50.0227 31.777ZM49.8203 32.4495L50.067 32.6068L50.0684 32.6045L49.8203 32.4495ZM43.4317 50.4941L43.1409 50.4611L43.1007 50.8166L43.457 50.7855L43.4317 50.4941ZM55.0665 54.7307L55.2734 54.5238L55.0665 54.7307ZM79.3947 80.0894C83.3666 80.0894 87.1758 78.5116 89.9843 75.7031L89.5706 75.2893C86.8718 77.9881 83.2114 79.5043 79.3947 79.5043V80.0894ZM68.8101 75.698C71.6176 78.5055 75.424 80.0848 79.3943 80.0894L79.395 79.5043C75.5796 79.4998 71.9218 77.9821 69.2239 75.2842L68.8101 75.698ZM64.4187 65.1138C64.4234 69.0841 66.0027 72.8905 68.8101 75.698L69.2239 75.2842C66.526 72.5863 65.0083 68.9285 65.0038 65.1131L64.4187 65.1138ZM79.5497 30.6207C72.6607 37.8674 64.4187 49.7472 64.4187 65.1134H65.0038C65.0038 49.9622 73.1325 38.2203 79.9738 31.0239L79.5497 30.6207ZM80.0877 30.2464C79.8848 30.3334 79.7018 30.4607 79.5497 30.6207L79.9738 31.0239C80.0712 30.9214 80.1884 30.8398 80.3183 30.7841L80.0877 30.2464ZM80.7296 30.1146C80.5089 30.1145 80.2905 30.1594 80.0877 30.2464L80.3183 30.7841C80.4482 30.7284 80.5881 30.6997 80.7295 30.6997L80.7296 30.1146ZM83.3993 30.1146H80.7295V30.6997H83.3993V30.1146ZM84.2253 30.3398C83.975 30.1923 83.6898 30.1146 83.3993 30.1146V30.6997C83.5853 30.6997 83.768 30.7495 83.9283 30.8439L84.2253 30.3398ZM84.8227 30.9531C84.6819 30.699 84.4756 30.4872 84.2253 30.3398L83.9283 30.8439C84.0886 30.9384 84.2207 31.074 84.3109 31.2367L84.8227 30.9531ZM85.0261 31.7847C85.0338 31.4943 84.9635 31.2072 84.8227 30.9531L84.3109 31.2367C84.4011 31.3995 84.4461 31.5834 84.4412 31.7694L85.0261 31.7847ZM84.7793 32.6045C84.9333 32.3582 85.0185 32.0751 85.0261 31.7847L84.4412 31.7694C84.4363 31.9553 84.3817 32.1366 84.2831 32.2944L84.7793 32.6045ZM78.4333 50.527C79.1562 44.1485 81.3262 38.0192 84.7779 32.6068L84.2845 32.2922C80.7849 37.7797 78.5848 43.994 77.8519 50.4611L78.4333 50.527ZM79.3947 50.1374C78.9591 50.1374 78.5343 50.1663 78.1172 50.2026L78.168 50.7855C78.5785 50.7498 78.984 50.7226 79.3947 50.7226V50.1374ZM89.9843 54.5238C87.1758 51.7153 83.3666 50.1374 79.3947 50.1374V50.7226C83.2114 50.7226 86.8718 52.2388 89.5706 54.9376L89.9843 54.5238ZM94.3707 65.1134C94.3707 61.1416 92.7929 57.3323 89.9843 54.5238L89.5706 54.9376C92.2694 57.6364 93.7856 61.2967 93.7856 65.1134H94.3707ZM89.9843 75.7031C92.7929 72.8945 94.3707 69.0853 94.3707 65.1134H93.7856C93.7856 68.9301 92.2694 72.5905 89.5706 75.2893L89.9843 75.7031ZM44.6838 80.0894C48.6556 80.0894 52.4648 78.5116 55.2734 75.7031L54.8596 75.2893C52.1608 77.9881 48.5004 79.5043 44.6838 79.5043V80.0894ZM34.0992 75.698C36.9067 78.5055 40.7131 80.0848 44.6834 80.0894L44.6841 79.5043C40.8687 79.4998 37.2108 77.9821 34.5129 75.2842L34.0992 75.698ZM29.7077 65.1138C29.7124 69.0841 31.2917 72.8905 34.0992 75.698L34.5129 75.2842C31.815 72.5863 30.2974 68.9285 30.2929 65.1131L29.7077 65.1138ZM44.8388 30.6207C37.9497 37.8674 29.7077 49.7472 29.7077 65.1134H30.2929C30.2929 49.9622 38.4216 38.2203 45.2629 31.0239L44.8388 30.6207ZM45.3767 30.2464C45.1739 30.3334 44.9909 30.4607 44.8388 30.6207L45.2629 31.0239C45.3603 30.9214 45.4775 30.8398 45.6074 30.7841L45.3767 30.2464ZM46.0187 30.1146C45.798 30.1145 45.5796 30.1594 45.3767 30.2464L45.6074 30.7841C45.7373 30.7284 45.8772 30.6997 46.0185 30.6997L46.0187 30.1146ZM48.6883 30.1146H46.0186V30.6997H48.6883V30.1146ZM49.5143 30.3398C49.264 30.1923 48.9788 30.1146 48.6883 30.1146V30.6997C48.8744 30.6997 49.057 30.7495 49.2174 30.8439L49.5143 30.3398ZM50.1118 30.9531C49.9709 30.699 49.7646 30.4872 49.5143 30.3398L49.2174 30.8439C49.3777 30.9384 49.5098 31.074 49.6 31.2367L50.1118 30.9531ZM50.3152 31.7847C50.3228 31.4943 50.2526 31.2072 50.1118 30.9531L49.6 31.2367C49.6902 31.3995 49.7351 31.5834 49.7303 31.7694L50.3152 31.7847ZM50.0684 32.6045C50.2224 32.3582 50.3076 32.0751 50.3152 31.7847L49.7303 31.7693C49.7254 31.9553 49.6708 32.1366 49.5722 32.2944L50.0684 32.6045ZM43.7224 50.527C44.4452 44.1485 46.6153 38.0192 50.067 32.6068L49.5736 32.2922C46.074 37.7797 43.8738 43.994 43.1409 50.4611L43.7224 50.527ZM44.6838 50.1374C44.2482 50.1374 43.8233 50.1663 43.4063 50.2026L43.457 50.7855C43.8676 50.7498 44.273 50.7226 44.6838 50.7226V50.1374ZM55.2734 54.5238C52.4648 51.7153 48.6556 50.1374 44.6838 50.1374V50.7226C48.5004 50.7226 52.1608 52.2388 54.8596 54.9376L55.2734 54.5238ZM59.6598 65.1134C59.6598 61.1416 58.0819 57.3323 55.2734 54.5238L54.8596 54.9376C57.5584 57.6364 59.0746 61.2967 59.0746 65.1134H59.6598ZM55.2734 75.7031C58.0819 72.8945 59.6598 69.0853 59.6598 65.1134H59.0746C59.0746 68.9301 57.5584 72.5905 54.8596 75.2893L55.2734 75.7031Z" fill="url(#paint6_linear_14447_258016)" fill-opacity="0.8"/>
</g>
<g filter="url(#filter5_f_14447_258016)">
<path d="M79.3947 79.7969L79.3943 80.0894H79.3947V79.7969ZM89.7774 75.4962L89.9843 75.7031L89.7774 75.4962ZM69.017 75.4911L69.2239 75.2842L69.017 75.4911ZM64.7113 65.1134H64.4187V65.1138L64.7113 65.1134ZM79.7618 30.8223L79.5497 30.6207L79.7618 30.8223ZM80.203 30.5152L80.0877 30.2464L80.0877 30.2464L80.203 30.5152ZM80.7295 30.4071L80.7295 30.6997H80.7295V30.4071ZM84.0768 30.5919L84.2253 30.3398L84.2253 30.3398L84.0768 30.5919ZM84.7337 31.777L84.4412 31.7694L84.7337 31.777ZM84.5312 32.4495L84.7779 32.6068L84.7793 32.6045L84.5312 32.4495ZM78.1426 50.4941L77.8519 50.4611L77.8116 50.8166L78.168 50.7855L78.1426 50.4941ZM89.7774 54.7307L89.9843 54.5238L89.7774 54.7307ZM44.6838 79.7969L44.6834 80.0894H44.6838V79.7969ZM55.0665 75.4962L54.8596 75.2893L55.0665 75.4962ZM34.3061 75.4911L34.0992 75.698L34.3061 75.4911ZM30.0003 65.1134H29.7077V65.1138L30.0003 65.1134ZM45.0508 30.8223L45.2629 31.0239H45.2629L45.0508 30.8223ZM45.4921 30.5152L45.3767 30.2464L45.3767 30.2464L45.4921 30.5152ZM46.0186 30.4071L46.0185 30.6997H46.0186V30.4071ZM49.3658 30.5919L49.5143 30.3398L49.5143 30.3398L49.3658 30.5919ZM50.0227 31.777L50.3152 31.7847V31.7847L50.0227 31.777ZM49.8203 32.4495L50.067 32.6068L50.0684 32.6045L49.8203 32.4495ZM43.4317 50.4941L43.1409 50.4611L43.1007 50.8166L43.457 50.7855L43.4317 50.4941ZM55.0665 54.7307L55.2734 54.5238L55.0665 54.7307ZM79.3947 80.0894C83.3666 80.0894 87.1758 78.5116 89.9843 75.7031L89.5706 75.2893C86.8718 77.9881 83.2114 79.5043 79.3947 79.5043V80.0894ZM68.8101 75.698C71.6176 78.5055 75.424 80.0848 79.3943 80.0894L79.395 79.5043C75.5796 79.4998 71.9218 77.9821 69.2239 75.2842L68.8101 75.698ZM64.4187 65.1138C64.4234 69.0841 66.0027 72.8905 68.8101 75.698L69.2239 75.2842C66.526 72.5863 65.0083 68.9285 65.0038 65.1131L64.4187 65.1138ZM79.5497 30.6207C72.6607 37.8674 64.4187 49.7472 64.4187 65.1134H65.0038C65.0038 49.9622 73.1325 38.2203 79.9738 31.0239L79.5497 30.6207ZM80.0877 30.2464C79.8848 30.3334 79.7018 30.4607 79.5497 30.6207L79.9738 31.0239C80.0712 30.9214 80.1884 30.8398 80.3183 30.7841L80.0877 30.2464ZM80.7296 30.1146C80.5089 30.1145 80.2905 30.1594 80.0877 30.2464L80.3183 30.7841C80.4482 30.7284 80.5881 30.6997 80.7295 30.6997L80.7296 30.1146ZM83.3993 30.1146H80.7295V30.6997H83.3993V30.1146ZM84.2253 30.3398C83.975 30.1923 83.6898 30.1146 83.3993 30.1146V30.6997C83.5853 30.6997 83.768 30.7495 83.9283 30.8439L84.2253 30.3398ZM84.8227 30.9531C84.6819 30.699 84.4756 30.4872 84.2253 30.3398L83.9283 30.8439C84.0886 30.9384 84.2207 31.074 84.3109 31.2367L84.8227 30.9531ZM85.0261 31.7847C85.0338 31.4943 84.9635 31.2072 84.8227 30.9531L84.3109 31.2367C84.4011 31.3995 84.4461 31.5834 84.4412 31.7694L85.0261 31.7847ZM84.7793 32.6045C84.9333 32.3582 85.0185 32.0751 85.0261 31.7847L84.4412 31.7694C84.4363 31.9553 84.3817 32.1366 84.2831 32.2944L84.7793 32.6045ZM78.4333 50.527C79.1562 44.1485 81.3262 38.0192 84.7779 32.6068L84.2845 32.2922C80.7849 37.7797 78.5848 43.994 77.8519 50.4611L78.4333 50.527ZM79.3947 50.1374C78.9591 50.1374 78.5343 50.1663 78.1172 50.2026L78.168 50.7855C78.5785 50.7498 78.984 50.7226 79.3947 50.7226V50.1374ZM89.9843 54.5238C87.1758 51.7153 83.3666 50.1374 79.3947 50.1374V50.7226C83.2114 50.7226 86.8718 52.2388 89.5706 54.9376L89.9843 54.5238ZM94.3707 65.1134C94.3707 61.1416 92.7929 57.3323 89.9843 54.5238L89.5706 54.9376C92.2694 57.6364 93.7856 61.2967 93.7856 65.1134H94.3707ZM89.9843 75.7031C92.7929 72.8945 94.3707 69.0853 94.3707 65.1134H93.7856C93.7856 68.9301 92.2694 72.5905 89.5706 75.2893L89.9843 75.7031ZM44.6838 80.0894C48.6556 80.0894 52.4648 78.5116 55.2734 75.7031L54.8596 75.2893C52.1608 77.9881 48.5004 79.5043 44.6838 79.5043V80.0894ZM34.0992 75.698C36.9067 78.5055 40.7131 80.0848 44.6834 80.0894L44.6841 79.5043C40.8687 79.4998 37.2108 77.9821 34.5129 75.2842L34.0992 75.698ZM29.7077 65.1138C29.7124 69.0841 31.2917 72.8905 34.0992 75.698L34.5129 75.2842C31.815 72.5863 30.2974 68.9285 30.2929 65.1131L29.7077 65.1138ZM44.8388 30.6207C37.9497 37.8674 29.7077 49.7472 29.7077 65.1134H30.2929C30.2929 49.9622 38.4216 38.2203 45.2629 31.0239L44.8388 30.6207ZM45.3767 30.2464C45.1739 30.3334 44.9909 30.4607 44.8388 30.6207L45.2629 31.0239C45.3603 30.9214 45.4775 30.8398 45.6074 30.7841L45.3767 30.2464ZM46.0187 30.1146C45.798 30.1145 45.5796 30.1594 45.3767 30.2464L45.6074 30.7841C45.7373 30.7284 45.8772 30.6997 46.0185 30.6997L46.0187 30.1146ZM48.6883 30.1146H46.0186V30.6997H48.6883V30.1146ZM49.5143 30.3398C49.264 30.1923 48.9788 30.1146 48.6883 30.1146V30.6997C48.8744 30.6997 49.057 30.7495 49.2174 30.8439L49.5143 30.3398ZM50.1118 30.9531C49.9709 30.699 49.7646 30.4872 49.5143 30.3398L49.2174 30.8439C49.3777 30.9384 49.5098 31.074 49.6 31.2367L50.1118 30.9531ZM50.3152 31.7847C50.3228 31.4943 50.2526 31.2072 50.1118 30.9531L49.6 31.2367C49.6902 31.3995 49.7351 31.5834 49.7303 31.7694L50.3152 31.7847ZM50.0684 32.6045C50.2224 32.3582 50.3076 32.0751 50.3152 31.7847L49.7303 31.7693C49.7254 31.9553 49.6708 32.1366 49.5722 32.2944L50.0684 32.6045ZM43.7224 50.527C44.4452 44.1485 46.6153 38.0192 50.067 32.6068L49.5736 32.2922C46.074 37.7797 43.8738 43.994 43.1409 50.4611L43.7224 50.527ZM44.6838 50.1374C44.2482 50.1374 43.8233 50.1663 43.4063 50.2026L43.457 50.7855C43.8676 50.7498 44.273 50.7226 44.6838 50.7226V50.1374ZM55.2734 54.5238C52.4648 51.7153 48.6556 50.1374 44.6838 50.1374V50.7226C48.5004 50.7226 52.1608 52.2388 54.8596 54.9376L55.2734 54.5238ZM59.6598 65.1134C59.6598 61.1416 58.0819 57.3323 55.2734 54.5238L54.8596 54.9376C57.5584 57.6364 59.0746 61.2967 59.0746 65.1134H59.6598ZM55.2734 75.7031C58.0819 72.8945 59.6598 69.0853 59.6598 65.1134H59.0746C59.0746 68.9301 57.5584 72.5905 54.8596 75.2893L55.2734 75.7031Z" fill="url(#paint7_linear_14447_258016)"/>
</g>
<g filter="url(#filter6_f_14447_258016)">
<path d="M79.3947 79.7969L79.3943 80.0894H79.3947V79.7969ZM89.7774 75.4962L89.9843 75.7031L89.7774 75.4962ZM69.017 75.4911L69.2239 75.2842L69.017 75.4911ZM64.7113 65.1134H64.4187V65.1138L64.7113 65.1134ZM79.7618 30.8223L79.5497 30.6207L79.7618 30.8223ZM80.203 30.5152L80.0877 30.2464L80.0877 30.2464L80.203 30.5152ZM80.7295 30.4071L80.7295 30.6997H80.7295V30.4071ZM84.0768 30.5919L84.2253 30.3398L84.2253 30.3398L84.0768 30.5919ZM84.7337 31.777L84.4412 31.7694L84.7337 31.777ZM84.5312 32.4495L84.7779 32.6068L84.7793 32.6045L84.5312 32.4495ZM78.1426 50.4941L77.8519 50.4611L77.8116 50.8166L78.168 50.7855L78.1426 50.4941ZM89.7774 54.7307L89.9843 54.5238L89.7774 54.7307ZM44.6838 79.7969L44.6834 80.0894H44.6838V79.7969ZM55.0665 75.4962L54.8596 75.2893L55.0665 75.4962ZM34.3061 75.4911L34.0992 75.698L34.3061 75.4911ZM30.0003 65.1134H29.7077V65.1138L30.0003 65.1134ZM45.0508 30.8223L45.2629 31.0239H45.2629L45.0508 30.8223ZM45.4921 30.5152L45.3767 30.2464L45.3767 30.2464L45.4921 30.5152ZM46.0186 30.4071L46.0185 30.6997H46.0186V30.4071ZM49.3658 30.5919L49.5143 30.3398L49.5143 30.3398L49.3658 30.5919ZM50.0227 31.777L50.3152 31.7847V31.7847L50.0227 31.777ZM49.8203 32.4495L50.067 32.6068L50.0684 32.6045L49.8203 32.4495ZM43.4317 50.4941L43.1409 50.4611L43.1007 50.8166L43.457 50.7855L43.4317 50.4941ZM55.0665 54.7307L55.2734 54.5238L55.0665 54.7307ZM79.3947 80.0894C83.3666 80.0894 87.1758 78.5116 89.9843 75.7031L89.5706 75.2893C86.8718 77.9881 83.2114 79.5043 79.3947 79.5043V80.0894ZM68.8101 75.698C71.6176 78.5055 75.424 80.0848 79.3943 80.0894L79.395 79.5043C75.5796 79.4998 71.9218 77.9821 69.2239 75.2842L68.8101 75.698ZM64.4187 65.1138C64.4234 69.0841 66.0027 72.8905 68.8101 75.698L69.2239 75.2842C66.526 72.5863 65.0083 68.9285 65.0038 65.1131L64.4187 65.1138ZM79.5497 30.6207C72.6607 37.8674 64.4187 49.7472 64.4187 65.1134H65.0038C65.0038 49.9622 73.1325 38.2203 79.9738 31.0239L79.5497 30.6207ZM80.0877 30.2464C79.8848 30.3334 79.7018 30.4607 79.5497 30.6207L79.9738 31.0239C80.0712 30.9214 80.1884 30.8398 80.3183 30.7841L80.0877 30.2464ZM80.7296 30.1146C80.5089 30.1145 80.2905 30.1594 80.0877 30.2464L80.3183 30.7841C80.4482 30.7284 80.5881 30.6997 80.7295 30.6997L80.7296 30.1146ZM83.3993 30.1146H80.7295V30.6997H83.3993V30.1146ZM84.2253 30.3398C83.975 30.1923 83.6898 30.1146 83.3993 30.1146V30.6997C83.5853 30.6997 83.768 30.7495 83.9283 30.8439L84.2253 30.3398ZM84.8227 30.9531C84.6819 30.699 84.4756 30.4872 84.2253 30.3398L83.9283 30.8439C84.0886 30.9384 84.2207 31.074 84.3109 31.2367L84.8227 30.9531ZM85.0261 31.7847C85.0338 31.4943 84.9635 31.2072 84.8227 30.9531L84.3109 31.2367C84.4011 31.3995 84.4461 31.5834 84.4412 31.7694L85.0261 31.7847ZM84.7793 32.6045C84.9333 32.3582 85.0185 32.0751 85.0261 31.7847L84.4412 31.7694C84.4363 31.9553 84.3817 32.1366 84.2831 32.2944L84.7793 32.6045ZM78.4333 50.527C79.1562 44.1485 81.3262 38.0192 84.7779 32.6068L84.2845 32.2922C80.7849 37.7797 78.5848 43.994 77.8519 50.4611L78.4333 50.527ZM79.3947 50.1374C78.9591 50.1374 78.5343 50.1663 78.1172 50.2026L78.168 50.7855C78.5785 50.7498 78.984 50.7226 79.3947 50.7226V50.1374ZM89.9843 54.5238C87.1758 51.7153 83.3666 50.1374 79.3947 50.1374V50.7226C83.2114 50.7226 86.8718 52.2388 89.5706 54.9376L89.9843 54.5238ZM94.3707 65.1134C94.3707 61.1416 92.7929 57.3323 89.9843 54.5238L89.5706 54.9376C92.2694 57.6364 93.7856 61.2967 93.7856 65.1134H94.3707ZM89.9843 75.7031C92.7929 72.8945 94.3707 69.0853 94.3707 65.1134H93.7856C93.7856 68.9301 92.2694 72.5905 89.5706 75.2893L89.9843 75.7031ZM44.6838 80.0894C48.6556 80.0894 52.4648 78.5116 55.2734 75.7031L54.8596 75.2893C52.1608 77.9881 48.5004 79.5043 44.6838 79.5043V80.0894ZM34.0992 75.698C36.9067 78.5055 40.7131 80.0848 44.6834 80.0894L44.6841 79.5043C40.8687 79.4998 37.2108 77.9821 34.5129 75.2842L34.0992 75.698ZM29.7077 65.1138C29.7124 69.0841 31.2917 72.8905 34.0992 75.698L34.5129 75.2842C31.815 72.5863 30.2974 68.9285 30.2929 65.1131L29.7077 65.1138ZM44.8388 30.6207C37.9497 37.8674 29.7077 49.7472 29.7077 65.1134H30.2929C30.2929 49.9622 38.4216 38.2203 45.2629 31.0239L44.8388 30.6207ZM45.3767 30.2464C45.1739 30.3334 44.9909 30.4607 44.8388 30.6207L45.2629 31.0239C45.3603 30.9214 45.4775 30.8398 45.6074 30.7841L45.3767 30.2464ZM46.0187 30.1146C45.798 30.1145 45.5796 30.1594 45.3767 30.2464L45.6074 30.7841C45.7373 30.7284 45.8772 30.6997 46.0185 30.6997L46.0187 30.1146ZM48.6883 30.1146H46.0186V30.6997H48.6883V30.1146ZM49.5143 30.3398C49.264 30.1923 48.9788 30.1146 48.6883 30.1146V30.6997C48.8744 30.6997 49.057 30.7495 49.2174 30.8439L49.5143 30.3398ZM50.1118 30.9531C49.9709 30.699 49.7646 30.4872 49.5143 30.3398L49.2174 30.8439C49.3777 30.9384 49.5098 31.074 49.6 31.2367L50.1118 30.9531ZM50.3152 31.7847C50.3228 31.4943 50.2526 31.2072 50.1118 30.9531L49.6 31.2367C49.6902 31.3995 49.7351 31.5834 49.7303 31.7694L50.3152 31.7847ZM50.0684 32.6045C50.2224 32.3582 50.3076 32.0751 50.3152 31.7847L49.7303 31.7693C49.7254 31.9553 49.6708 32.1366 49.5722 32.2944L50.0684 32.6045ZM43.7224 50.527C44.4452 44.1485 46.6153 38.0192 50.067 32.6068L49.5736 32.2922C46.074 37.7797 43.8738 43.994 43.1409 50.4611L43.7224 50.527ZM44.6838 50.1374C44.2482 50.1374 43.8233 50.1663 43.4063 50.2026L43.457 50.7855C43.8676 50.7498 44.273 50.7226 44.6838 50.7226V50.1374ZM55.2734 54.5238C52.4648 51.7153 48.6556 50.1374 44.6838 50.1374V50.7226C48.5004 50.7226 52.1608 52.2388 54.8596 54.9376L55.2734 54.5238ZM59.6598 65.1134C59.6598 61.1416 58.0819 57.3323 55.2734 54.5238L54.8596 54.9376C57.5584 57.6364 59.0746 61.2967 59.0746 65.1134H59.6598ZM55.2734 75.7031C58.0819 72.8945 59.6598 69.0853 59.6598 65.1134H59.0746C59.0746 68.9301 57.5584 72.5905 54.8596 75.2893L55.2734 75.7031Z" fill="url(#paint8_linear_14447_258016)"/>
</g>
<g filter="url(#filter7_f_14447_258016)">
<mask id="path-11-inside-3_14447_258016" fill="white">
<path fill-rule="evenodd" clip-rule="evenodd" d="M89.7774 75.4962C87.0238 78.2499 83.289 79.7969 79.3947 79.7969C75.5018 79.7923 71.7697 78.2438 69.017 75.4911C66.2643 72.7384 64.7159 69.0063 64.7113 65.1134C64.7113 49.8547 72.8966 38.0439 79.7618 30.8223C79.8865 30.6911 80.0366 30.5866 80.203 30.5152C80.3694 30.4439 80.5485 30.4071 80.7295 30.4071H83.3993C83.6375 30.4071 83.8715 30.4709 84.0768 30.5919C84.2821 30.7128 84.4513 30.8865 84.5668 31.0949C84.6823 31.3033 84.7399 31.5388 84.7337 31.777C84.7274 32.0152 84.6575 32.2474 84.5312 32.4495C81.0556 37.8995 78.8705 44.0712 78.1426 50.4941C78.5564 50.458 78.9715 50.43 79.3947 50.43C83.289 50.43 87.0238 51.977 89.7774 54.7307C92.5311 57.4844 94.0781 61.2192 94.0781 65.1134C94.0781 69.0077 92.5311 72.7425 89.7774 75.4962ZM55.0665 75.4962C52.3128 78.2499 48.578 79.7969 44.6838 79.7969C40.7909 79.7923 37.0588 78.2438 34.3061 75.4911C31.5534 72.7384 30.0049 69.0063 30.0003 65.1134C30.0003 49.8547 38.1857 38.0439 45.0508 30.8223C45.1756 30.6911 45.3257 30.5866 45.4921 30.5152C45.6584 30.4439 45.8376 30.4071 46.0186 30.4071H48.6883C48.9266 30.4071 49.1605 30.4709 49.3658 30.5919C49.5712 30.7128 49.7403 30.8865 49.8559 31.0949C49.9714 31.3033 50.029 31.5388 50.0227 31.777C50.0165 32.0152 49.9466 32.2474 49.8203 32.4495C46.3446 37.8995 44.1595 44.0712 43.4317 50.4941C43.8455 50.458 44.2606 50.43 44.6838 50.43C48.578 50.43 52.3128 51.977 55.0665 54.7307C57.8202 57.4844 59.3672 61.2192 59.3672 65.1134C59.3672 69.0077 57.8202 72.7425 55.0665 75.4962Z"/>
</mask>
<path d="M79.3947 79.7969L79.3943 80.0894H79.3947V79.7969ZM89.7774 75.4962L89.9843 75.7031L89.7774 75.4962ZM69.017 75.4911L69.2239 75.2842L69.017 75.4911ZM64.7113 65.1134H64.4187V65.1138L64.7113 65.1134ZM79.7618 30.8223L79.5497 30.6207L79.7618 30.8223ZM80.203 30.5152L80.0877 30.2464L80.0877 30.2464L80.203 30.5152ZM80.7295 30.4071L80.7295 30.6997H80.7295V30.4071ZM84.0768 30.5919L84.2253 30.3398L84.2253 30.3398L84.0768 30.5919ZM84.7337 31.777L84.4412 31.7694L84.7337 31.777ZM84.5312 32.4495L84.7779 32.6068L84.7793 32.6045L84.5312 32.4495ZM78.1426 50.4941L77.8519 50.4611L77.8116 50.8166L78.168 50.7855L78.1426 50.4941ZM89.7774 54.7307L89.9843 54.5238L89.7774 54.7307ZM44.6838 79.7969L44.6834 80.0894H44.6838V79.7969ZM55.0665 75.4962L54.8596 75.2893L55.0665 75.4962ZM34.3061 75.4911L34.0992 75.698L34.3061 75.4911ZM30.0003 65.1134H29.7077V65.1138L30.0003 65.1134ZM45.0508 30.8223L45.2629 31.0239H45.2629L45.0508 30.8223ZM45.4921 30.5152L45.3767 30.2464L45.3767 30.2464L45.4921 30.5152ZM46.0186 30.4071L46.0185 30.6997H46.0186V30.4071ZM49.3658 30.5919L49.5143 30.3398L49.5143 30.3398L49.3658 30.5919ZM50.0227 31.777L50.3152 31.7847V31.7847L50.0227 31.777ZM49.8203 32.4495L50.067 32.6068L50.0684 32.6045L49.8203 32.4495ZM43.4317 50.4941L43.1409 50.4611L43.1007 50.8166L43.457 50.7855L43.4317 50.4941ZM55.0665 54.7307L55.2734 54.5238L55.0665 54.7307ZM79.3947 80.0894C83.3666 80.0894 87.1758 78.5116 89.9843 75.7031L89.5706 75.2893C86.8718 77.9881 83.2114 79.5043 79.3947 79.5043V80.0894ZM68.8101 75.698C71.6176 78.5055 75.424 80.0848 79.3943 80.0894L79.395 79.5043C75.5796 79.4998 71.9218 77.9821 69.2239 75.2842L68.8101 75.698ZM64.4187 65.1138C64.4234 69.0841 66.0027 72.8905 68.8101 75.698L69.2239 75.2842C66.526 72.5863 65.0083 68.9285 65.0038 65.1131L64.4187 65.1138ZM79.5497 30.6207C72.6607 37.8674 64.4187 49.7472 64.4187 65.1134H65.0038C65.0038 49.9622 73.1325 38.2203 79.9738 31.0239L79.5497 30.6207ZM80.0877 30.2464C79.8848 30.3334 79.7018 30.4607 79.5497 30.6207L79.9738 31.0239C80.0712 30.9214 80.1884 30.8398 80.3183 30.7841L80.0877 30.2464ZM80.7296 30.1146C80.5089 30.1145 80.2905 30.1594 80.0877 30.2464L80.3183 30.7841C80.4482 30.7284 80.5881 30.6997 80.7295 30.6997L80.7296 30.1146ZM83.3993 30.1146H80.7295V30.6997H83.3993V30.1146ZM84.2253 30.3398C83.975 30.1923 83.6898 30.1146 83.3993 30.1146V30.6997C83.5853 30.6997 83.768 30.7495 83.9283 30.8439L84.2253 30.3398ZM84.8227 30.9531C84.6819 30.699 84.4756 30.4872 84.2253 30.3398L83.9283 30.8439C84.0886 30.9384 84.2207 31.074 84.3109 31.2367L84.8227 30.9531ZM85.0261 31.7847C85.0338 31.4943 84.9635 31.2072 84.8227 30.9531L84.3109 31.2367C84.4011 31.3995 84.4461 31.5834 84.4412 31.7694L85.0261 31.7847ZM84.7793 32.6045C84.9333 32.3582 85.0185 32.0751 85.0261 31.7847L84.4412 31.7694C84.4363 31.9553 84.3817 32.1366 84.2831 32.2944L84.7793 32.6045ZM78.4333 50.527C79.1562 44.1485 81.3262 38.0192 84.7779 32.6068L84.2845 32.2922C80.7849 37.7797 78.5848 43.994 77.8519 50.4611L78.4333 50.527ZM79.3947 50.1374C78.9591 50.1374 78.5343 50.1663 78.1172 50.2026L78.168 50.7855C78.5785 50.7498 78.984 50.7226 79.3947 50.7226V50.1374ZM89.9843 54.5238C87.1758 51.7153 83.3666 50.1374 79.3947 50.1374V50.7226C83.2114 50.7226 86.8718 52.2388 89.5706 54.9376L89.9843 54.5238ZM94.3707 65.1134C94.3707 61.1416 92.7929 57.3323 89.9843 54.5238L89.5706 54.9376C92.2694 57.6364 93.7856 61.2967 93.7856 65.1134H94.3707ZM89.9843 75.7031C92.7929 72.8945 94.3707 69.0853 94.3707 65.1134H93.7856C93.7856 68.9301 92.2694 72.5905 89.5706 75.2893L89.9843 75.7031ZM44.6838 80.0894C48.6556 80.0894 52.4648 78.5116 55.2734 75.7031L54.8596 75.2893C52.1608 77.9881 48.5004 79.5043 44.6838 79.5043V80.0894ZM34.0992 75.698C36.9067 78.5055 40.7131 80.0848 44.6834 80.0894L44.6841 79.5043C40.8687 79.4998 37.2108 77.9821 34.5129 75.2842L34.0992 75.698ZM29.7077 65.1138C29.7124 69.0841 31.2917 72.8905 34.0992 75.698L34.5129 75.2842C31.815 72.5863 30.2974 68.9285 30.2929 65.1131L29.7077 65.1138ZM44.8388 30.6207C37.9497 37.8674 29.7077 49.7472 29.7077 65.1134H30.2929C30.2929 49.9622 38.4216 38.2203 45.2629 31.0239L44.8388 30.6207ZM45.3767 30.2464C45.1739 30.3334 44.9909 30.4607 44.8388 30.6207L45.2629 31.0239C45.3603 30.9214 45.4775 30.8398 45.6074 30.7841L45.3767 30.2464ZM46.0187 30.1146C45.798 30.1145 45.5796 30.1594 45.3767 30.2464L45.6074 30.7841C45.7373 30.7284 45.8772 30.6997 46.0185 30.6997L46.0187 30.1146ZM48.6883 30.1146H46.0186V30.6997H48.6883V30.1146ZM49.5143 30.3398C49.264 30.1923 48.9788 30.1146 48.6883 30.1146V30.6997C48.8744 30.6997 49.057 30.7495 49.2174 30.8439L49.5143 30.3398ZM50.1118 30.9531C49.9709 30.699 49.7646 30.4872 49.5143 30.3398L49.2174 30.8439C49.3777 30.9384 49.5098 31.074 49.6 31.2367L50.1118 30.9531ZM50.3152 31.7847C50.3228 31.4943 50.2526 31.2072 50.1118 30.9531L49.6 31.2367C49.6902 31.3995 49.7351 31.5834 49.7303 31.7694L50.3152 31.7847ZM50.0684 32.6045C50.2224 32.3582 50.3076 32.0751 50.3152 31.7847L49.7303 31.7693C49.7254 31.9553 49.6708 32.1366 49.5722 32.2944L50.0684 32.6045ZM43.7224 50.527C44.4452 44.1485 46.6153 38.0192 50.067 32.6068L49.5736 32.2922C46.074 37.7797 43.8738 43.994 43.1409 50.4611L43.7224 50.527ZM44.6838 50.1374C44.2482 50.1374 43.8233 50.1663 43.4063 50.2026L43.457 50.7855C43.8676 50.7498 44.273 50.7226 44.6838 50.7226V50.1374ZM55.2734 54.5238C52.4648 51.7153 48.6556 50.1374 44.6838 50.1374V50.7226C48.5004 50.7226 52.1608 52.2388 54.8596 54.9376L55.2734 54.5238ZM59.6598 65.1134C59.6598 61.1416 58.0819 57.3323 55.2734 54.5238L54.8596 54.9376C57.5584 57.6364 59.0746 61.2967 59.0746 65.1134H59.6598ZM55.2734 75.7031C58.0819 72.8945 59.6598 69.0853 59.6598 65.1134H59.0746C59.0746 68.9301 57.5584 72.5905 54.8596 75.2893L55.2734 75.7031Z" fill="url(#paint9_linear_14447_258016)" mask="url(#path-11-inside-3_14447_258016)"/>
</g>
<g filter="url(#filter8_f_14447_258016)">
<mask id="path-13-inside-4_14447_258016" fill="white">
<path fill-rule="evenodd" clip-rule="evenodd" d="M89.7774 75.4962C87.0238 78.2499 83.289 79.7969 79.3947 79.7969C75.5018 79.7923 71.7697 78.2438 69.017 75.4911C66.2643 72.7384 64.7159 69.0063 64.7113 65.1134C64.7113 49.8547 72.8966 38.0439 79.7618 30.8223C79.8865 30.6911 80.0366 30.5866 80.203 30.5152C80.3694 30.4439 80.5485 30.4071 80.7295 30.4071H83.3993C83.6375 30.4071 83.8715 30.4709 84.0768 30.5919C84.2821 30.7128 84.4513 30.8865 84.5668 31.0949C84.6823 31.3033 84.7399 31.5388 84.7337 31.777C84.7274 32.0152 84.6575 32.2474 84.5312 32.4495C81.0556 37.8995 78.8705 44.0712 78.1426 50.4941C78.5564 50.458 78.9715 50.43 79.3947 50.43C83.289 50.43 87.0238 51.977 89.7774 54.7307C92.5311 57.4844 94.0781 61.2192 94.0781 65.1134C94.0781 69.0077 92.5311 72.7425 89.7774 75.4962ZM55.0665 75.4962C52.3128 78.2499 48.578 79.7969 44.6838 79.7969C40.7909 79.7923 37.0588 78.2438 34.3061 75.4911C31.5534 72.7384 30.0049 69.0063 30.0003 65.1134C30.0003 49.8547 38.1857 38.0439 45.0508 30.8223C45.1756 30.6911 45.3257 30.5866 45.4921 30.5152C45.6584 30.4439 45.8376 30.4071 46.0186 30.4071H48.6883C48.9266 30.4071 49.1605 30.4709 49.3658 30.5919C49.5712 30.7128 49.7403 30.8865 49.8559 31.0949C49.9714 31.3033 50.029 31.5388 50.0227 31.777C50.0165 32.0152 49.9466 32.2474 49.8203 32.4495C46.3446 37.8995 44.1595 44.0712 43.4317 50.4941C43.8455 50.458 44.2606 50.43 44.6838 50.43C48.578 50.43 52.3128 51.977 55.0665 54.7307C57.8202 57.4844 59.3672 61.2192 59.3672 65.1134C59.3672 69.0077 57.8202 72.7425 55.0665 75.4962Z"/>
</mask>
<path d="M79.3947 79.7969L79.3943 80.0894H79.3947V79.7969ZM89.7774 75.4962L89.9843 75.7031L89.7774 75.4962ZM69.017 75.4911L69.2239 75.2842L69.017 75.4911ZM64.7113 65.1134H64.4187V65.1138L64.7113 65.1134ZM79.7618 30.8223L79.5497 30.6207L79.7618 30.8223ZM80.203 30.5152L80.0877 30.2464L80.0877 30.2464L80.203 30.5152ZM80.7295 30.4071L80.7295 30.6997H80.7295V30.4071ZM84.0768 30.5919L84.2253 30.3398L84.2253 30.3398L84.0768 30.5919ZM84.7337 31.777L84.4412 31.7694L84.7337 31.777ZM84.5312 32.4495L84.7779 32.6068L84.7793 32.6045L84.5312 32.4495ZM78.1426 50.4941L77.8519 50.4611L77.8116 50.8166L78.168 50.7855L78.1426 50.4941ZM89.7774 54.7307L89.9843 54.5238L89.7774 54.7307ZM44.6838 79.7969L44.6834 80.0894H44.6838V79.7969ZM55.0665 75.4962L54.8596 75.2893L55.0665 75.4962ZM34.3061 75.4911L34.0992 75.698L34.3061 75.4911ZM30.0003 65.1134H29.7077V65.1138L30.0003 65.1134ZM45.0508 30.8223L45.2629 31.0239H45.2629L45.0508 30.8223ZM45.4921 30.5152L45.3767 30.2464L45.3767 30.2464L45.4921 30.5152ZM46.0186 30.4071L46.0185 30.6997H46.0186V30.4071ZM49.3658 30.5919L49.5143 30.3398L49.5143 30.3398L49.3658 30.5919ZM50.0227 31.777L50.3152 31.7847V31.7847L50.0227 31.777ZM49.8203 32.4495L50.067 32.6068L50.0684 32.6045L49.8203 32.4495ZM43.4317 50.4941L43.1409 50.4611L43.1007 50.8166L43.457 50.7855L43.4317 50.4941ZM55.0665 54.7307L55.2734 54.5238L55.0665 54.7307ZM79.3947 80.0894C83.3666 80.0894 87.1758 78.5116 89.9843 75.7031L89.5706 75.2893C86.8718 77.9881 83.2114 79.5043 79.3947 79.5043V80.0894ZM68.8101 75.698C71.6176 78.5055 75.424 80.0848 79.3943 80.0894L79.395 79.5043C75.5796 79.4998 71.9218 77.9821 69.2239 75.2842L68.8101 75.698ZM64.4187 65.1138C64.4234 69.0841 66.0027 72.8905 68.8101 75.698L69.2239 75.2842C66.526 72.5863 65.0083 68.9285 65.0038 65.1131L64.4187 65.1138ZM79.5497 30.6207C72.6607 37.8674 64.4187 49.7472 64.4187 65.1134H65.0038C65.0038 49.9622 73.1325 38.2203 79.9738 31.0239L79.5497 30.6207ZM80.0877 30.2464C79.8848 30.3334 79.7018 30.4607 79.5497 30.6207L79.9738 31.0239C80.0712 30.9214 80.1884 30.8398 80.3183 30.7841L80.0877 30.2464ZM80.7296 30.1146C80.5089 30.1145 80.2905 30.1594 80.0877 30.2464L80.3183 30.7841C80.4482 30.7284 80.5881 30.6997 80.7295 30.6997L80.7296 30.1146ZM83.3993 30.1146H80.7295V30.6997H83.3993V30.1146ZM84.2253 30.3398C83.975 30.1923 83.6898 30.1146 83.3993 30.1146V30.6997C83.5853 30.6997 83.768 30.7495 83.9283 30.8439L84.2253 30.3398ZM84.8227 30.9531C84.6819 30.699 84.4756 30.4872 84.2253 30.3398L83.9283 30.8439C84.0886 30.9384 84.2207 31.074 84.3109 31.2367L84.8227 30.9531ZM85.0261 31.7847C85.0338 31.4943 84.9635 31.2072 84.8227 30.9531L84.3109 31.2367C84.4011 31.3995 84.4461 31.5834 84.4412 31.7694L85.0261 31.7847ZM84.7793 32.6045C84.9333 32.3582 85.0185 32.0751 85.0261 31.7847L84.4412 31.7694C84.4363 31.9553 84.3817 32.1366 84.2831 32.2944L84.7793 32.6045ZM78.4333 50.527C79.1562 44.1485 81.3262 38.0192 84.7779 32.6068L84.2845 32.2922C80.7849 37.7797 78.5848 43.994 77.8519 50.4611L78.4333 50.527ZM79.3947 50.1374C78.9591 50.1374 78.5343 50.1663 78.1172 50.2026L78.168 50.7855C78.5785 50.7498 78.984 50.7226 79.3947 50.7226V50.1374ZM89.9843 54.5238C87.1758 51.7153 83.3666 50.1374 79.3947 50.1374V50.7226C83.2114 50.7226 86.8718 52.2388 89.5706 54.9376L89.9843 54.5238ZM94.3707 65.1134C94.3707 61.1416 92.7929 57.3323 89.9843 54.5238L89.5706 54.9376C92.2694 57.6364 93.7856 61.2967 93.7856 65.1134H94.3707ZM89.9843 75.7031C92.7929 72.8945 94.3707 69.0853 94.3707 65.1134H93.7856C93.7856 68.9301 92.2694 72.5905 89.5706 75.2893L89.9843 75.7031ZM44.6838 80.0894C48.6556 80.0894 52.4648 78.5116 55.2734 75.7031L54.8596 75.2893C52.1608 77.9881 48.5004 79.5043 44.6838 79.5043V80.0894ZM34.0992 75.698C36.9067 78.5055 40.7131 80.0848 44.6834 80.0894L44.6841 79.5043C40.8687 79.4998 37.2108 77.9821 34.5129 75.2842L34.0992 75.698ZM29.7077 65.1138C29.7124 69.0841 31.2917 72.8905 34.0992 75.698L34.5129 75.2842C31.815 72.5863 30.2974 68.9285 30.2929 65.1131L29.7077 65.1138ZM44.8388 30.6207C37.9497 37.8674 29.7077 49.7472 29.7077 65.1134H30.2929C30.2929 49.9622 38.4216 38.2203 45.2629 31.0239L44.8388 30.6207ZM45.3767 30.2464C45.1739 30.3334 44.9909 30.4607 44.8388 30.6207L45.2629 31.0239C45.3603 30.9214 45.4775 30.8398 45.6074 30.7841L45.3767 30.2464ZM46.0187 30.1146C45.798 30.1145 45.5796 30.1594 45.3767 30.2464L45.6074 30.7841C45.7373 30.7284 45.8772 30.6997 46.0185 30.6997L46.0187 30.1146ZM48.6883 30.1146H46.0186V30.6997H48.6883V30.1146ZM49.5143 30.3398C49.264 30.1923 48.9788 30.1146 48.6883 30.1146V30.6997C48.8744 30.6997 49.057 30.7495 49.2174 30.8439L49.5143 30.3398ZM50.1118 30.9531C49.9709 30.699 49.7646 30.4872 49.5143 30.3398L49.2174 30.8439C49.3777 30.9384 49.5098 31.074 49.6 31.2367L50.1118 30.9531ZM50.3152 31.7847C50.3228 31.4943 50.2526 31.2072 50.1118 30.9531L49.6 31.2367C49.6902 31.3995 49.7351 31.5834 49.7303 31.7694L50.3152 31.7847ZM50.0684 32.6045C50.2224 32.3582 50.3076 32.0751 50.3152 31.7847L49.7303 31.7693C49.7254 31.9553 49.6708 32.1366 49.5722 32.2944L50.0684 32.6045ZM43.7224 50.527C44.4452 44.1485 46.6153 38.0192 50.067 32.6068L49.5736 32.2922C46.074 37.7797 43.8738 43.994 43.1409 50.4611L43.7224 50.527ZM44.6838 50.1374C44.2482 50.1374 43.8233 50.1663 43.4063 50.2026L43.457 50.7855C43.8676 50.7498 44.273 50.7226 44.6838 50.7226V50.1374ZM55.2734 54.5238C52.4648 51.7153 48.6556 50.1374 44.6838 50.1374V50.7226C48.5004 50.7226 52.1608 52.2388 54.8596 54.9376L55.2734 54.5238ZM59.6598 65.1134C59.6598 61.1416 58.0819 57.3323 55.2734 54.5238L54.8596 54.9376C57.5584 57.6364 59.0746 61.2967 59.0746 65.1134H59.6598ZM55.2734 75.7031C58.0819 72.8945 59.6598 69.0853 59.6598 65.1134H59.0746C59.0746 68.9301 57.5584 72.5905 54.8596 75.2893L55.2734 75.7031Z" fill="url(#paint10_linear_14447_258016)" mask="url(#path-13-inside-4_14447_258016)"/>
</g>
<mask id="path-15-inside-5_14447_258016" fill="white">
<path fill-rule="evenodd" clip-rule="evenodd" d="M89.7774 75.4962C87.0238 78.2499 83.289 79.7969 79.3947 79.7969C75.5018 79.7923 71.7697 78.2438 69.017 75.4911C66.2643 72.7384 64.7159 69.0063 64.7113 65.1134C64.7113 49.8547 72.8966 38.0439 79.7618 30.8223C79.8865 30.6911 80.0366 30.5866 80.203 30.5152C80.3694 30.4439 80.5485 30.4071 80.7295 30.4071H83.3993C83.6375 30.4071 83.8715 30.4709 84.0768 30.5919C84.2821 30.7128 84.4513 30.8865 84.5668 31.0949C84.6823 31.3033 84.7399 31.5388 84.7337 31.777C84.7274 32.0152 84.6575 32.2474 84.5312 32.4495C81.0556 37.8995 78.8705 44.0712 78.1426 50.4941C78.5564 50.458 78.9715 50.43 79.3947 50.43C83.289 50.43 87.0238 51.977 89.7774 54.7307C92.5311 57.4844 94.0781 61.2192 94.0781 65.1134C94.0781 69.0077 92.5311 72.7425 89.7774 75.4962ZM55.0665 75.4962C52.3128 78.2499 48.578 79.7969 44.6838 79.7969C40.7909 79.7923 37.0588 78.2438 34.3061 75.4911C31.5534 72.7384 30.0049 69.0063 30.0003 65.1134C30.0003 49.8547 38.1857 38.0439 45.0508 30.8223C45.1756 30.6911 45.3257 30.5866 45.4921 30.5152C45.6584 30.4439 45.8376 30.4071 46.0186 30.4071H48.6883C48.9266 30.4071 49.1605 30.4709 49.3658 30.5919C49.5712 30.7128 49.7403 30.8865 49.8559 31.0949C49.9714 31.3033 50.029 31.5388 50.0227 31.777C50.0165 32.0152 49.9466 32.2474 49.8203 32.4495C46.3446 37.8995 44.1595 44.0712 43.4317 50.4941C43.8455 50.458 44.2606 50.43 44.6838 50.43C48.578 50.43 52.3128 51.977 55.0665 54.7307C57.8202 57.4844 59.3672 61.2192 59.3672 65.1134C59.3672 69.0077 57.8202 72.7425 55.0665 75.4962Z"/>
</mask>
<path d="M79.3947 79.7969L79.394 80.382H79.3947V79.7969ZM89.7774 75.4962L90.1912 75.91L89.7774 75.4962ZM69.017 75.4911L69.4308 75.0774L69.017 75.4911ZM64.7113 65.1134H64.1261L64.1261 65.1141L64.7113 65.1134ZM79.7618 30.8223L79.3377 30.4191L79.7618 30.8223ZM80.203 30.5152L79.9723 29.9775L79.9723 29.9775L80.203 30.5152ZM80.7295 30.4071L80.7294 30.9923H80.7295V30.4071ZM84.0768 30.5919L84.3738 30.0877L84.3738 30.0877L84.0768 30.5919ZM84.7337 31.777L84.1487 31.7617V31.7617L84.7337 31.777ZM84.5312 32.4495L85.0246 32.7641L85.0274 32.7596L84.5312 32.4495ZM78.1426 50.4941L77.5612 50.4282L77.4806 51.1391L78.1934 51.077L78.1426 50.4941ZM89.7774 54.7307L90.1912 54.3169L89.7774 54.7307ZM44.6838 79.7969L44.6831 80.382H44.6838V79.7969ZM55.0665 75.4962L54.6528 75.0824L55.0665 75.4962ZM34.3061 75.4911L33.8923 75.9049V75.9049L34.3061 75.4911ZM30.0003 65.1134H29.4152V65.1141L30.0003 65.1134ZM45.0508 30.8223L45.4749 31.2254L45.4749 31.2254L45.0508 30.8223ZM45.4921 30.5152L45.2614 29.9775L45.2614 29.9775L45.4921 30.5152ZM46.0186 30.4071L46.0185 30.9923H46.0186V30.4071ZM49.3658 30.5919L49.6628 30.0877L49.6628 30.0877L49.3658 30.5919ZM50.0227 31.777L50.6077 31.7924V31.7924L50.0227 31.777ZM49.8203 32.4495L50.3137 32.7641L50.3165 32.7596L49.8203 32.4495ZM43.4317 50.4941L42.8502 50.4282L42.7697 51.1391L43.4824 51.077L43.4317 50.4941ZM55.0665 54.7307L55.4803 54.3169L55.0665 54.7307ZM79.3947 80.382C83.4442 80.382 87.3278 78.7734 90.1912 75.91L89.3637 75.0824C86.7197 77.7264 83.1338 79.2117 79.3947 79.2117V80.382ZM68.6033 75.9049C71.4655 78.7671 75.3462 80.3772 79.394 80.382L79.3954 79.2117C75.6575 79.2073 72.0739 77.7205 69.4308 75.0774L68.6033 75.9049ZM64.1261 65.1141C64.1309 69.162 65.741 73.0426 68.6033 75.9049L69.4308 75.0774C66.7877 72.4342 65.3008 68.8507 65.2964 65.1127L64.1261 65.1141ZM79.3377 30.4191C72.4248 37.6909 64.1261 49.6397 64.1261 65.1134H65.2964C65.2964 50.0697 73.3685 38.3968 80.1859 31.2254L79.3377 30.4191ZM79.9723 29.9775C79.733 30.0801 79.5171 30.2304 79.3377 30.4191L80.1859 31.2254C80.2559 31.1518 80.3402 31.0931 80.4337 31.053L79.9723 29.9775ZM80.7297 29.822C80.4693 29.8219 80.2116 29.8748 79.9723 29.9775L80.4337 31.053C80.5271 31.0129 80.6277 30.9923 80.7294 30.9923L80.7297 29.822ZM83.3993 29.822H80.7295V30.9923H83.3993V29.822ZM84.3738 30.0877C84.0785 29.9137 83.742 29.822 83.3993 29.822V30.9923C83.5331 30.9923 83.6645 31.0281 83.7798 31.096L84.3738 30.0877ZM85.0786 30.8112C84.9124 30.5115 84.6691 30.2616 84.3738 30.0877L83.7798 31.096C83.8951 31.1639 83.9901 31.2615 84.055 31.3786L85.0786 30.8112ZM85.3186 31.7924C85.3276 31.4498 85.2447 31.111 85.0786 30.8112L84.055 31.3786C84.1199 31.4956 84.1522 31.6279 84.1487 31.7617L85.3186 31.7924ZM85.0274 32.7596C85.2091 32.469 85.3096 32.135 85.3186 31.7924L84.1487 31.7617C84.1452 31.8955 84.106 32.0259 84.035 32.1393L85.0274 32.7596ZM78.724 50.56C79.4419 44.2257 81.5968 38.139 85.0246 32.7641L84.0379 32.1348C80.5143 37.66 78.2991 43.9168 77.5612 50.4282L78.724 50.56ZM79.3947 49.8449C78.9467 49.8449 78.5121 49.8745 78.0918 49.9111L78.1934 51.077C78.6007 51.0415 78.9964 51.0151 79.3947 51.0151V49.8449ZM90.1912 54.3169C87.3278 51.4535 83.4442 49.8449 79.3947 49.8449V51.0151C83.1338 51.0151 86.7197 52.5005 89.3637 55.1444L90.1912 54.3169ZM94.6633 65.1134C94.6633 61.064 93.0546 57.1803 90.1912 54.3169L89.3637 55.1444C92.0076 57.7884 93.493 61.3743 93.493 65.1134H94.6633ZM90.1912 75.91C93.0546 73.0465 94.6633 69.1629 94.6633 65.1134H93.493C93.493 68.8525 92.0076 72.4385 89.3637 75.0824L90.1912 75.91ZM44.6838 80.382C48.7332 80.382 52.6169 78.7734 55.4803 75.91L54.6528 75.0824C52.0088 77.7264 48.4229 79.2117 44.6838 79.2117V80.382ZM33.8923 75.9049C36.7546 78.7671 40.6352 80.3772 44.6831 80.382L44.6844 79.2117C40.9465 79.2073 37.3629 77.7205 34.7198 75.0774L33.8923 75.9049ZM29.4152 65.1141C29.42 69.162 31.0301 73.0426 33.8923 75.9049L34.7198 75.0774C32.0767 72.4342 30.5899 68.8507 30.5855 65.1127L29.4152 65.1141ZM44.6268 30.4191C37.7138 37.6909 29.4152 49.6397 29.4152 65.1134H30.5855C30.5855 50.0697 38.6575 38.3968 45.4749 31.2254L44.6268 30.4191ZM45.2614 29.9775C45.0221 30.0801 44.8062 30.2304 44.6267 30.4191L45.4749 31.2254C45.545 31.1517 45.6293 31.0931 45.7227 31.053L45.2614 29.9775ZM46.0187 29.822C45.7584 29.8219 45.5007 29.8748 45.2614 29.9775L45.7227 31.053C45.8162 31.0129 45.9168 30.9923 46.0185 30.9923L46.0187 29.822ZM48.6883 29.822H46.0186V30.9923H48.6883V29.822ZM49.6628 30.0877C49.3675 29.9137 49.0311 29.822 48.6883 29.822V30.9923C48.8222 30.9923 48.9535 31.0281 49.0689 31.096L49.6628 30.0877ZM50.3676 30.8112C50.2015 30.5115 49.9581 30.2616 49.6628 30.0877L49.0689 31.096C49.1842 31.1639 49.2792 31.2615 49.3441 31.3786L50.3676 30.8112ZM50.6077 31.7924C50.6167 31.4498 50.5338 31.111 50.3676 30.8112L49.3441 31.3786C49.4089 31.4956 49.4413 31.6279 49.4378 31.7617L50.6077 31.7924ZM50.3165 32.7596C50.4981 32.469 50.5987 32.135 50.6077 31.7924L49.4378 31.7617C49.4343 31.8955 49.395 32.0259 49.3241 32.1393L50.3165 32.7596ZM44.0131 50.56C44.7309 44.2257 46.8859 38.139 50.3136 32.7641L49.3269 32.1348C45.8034 37.66 43.5881 43.9168 42.8502 50.4282L44.0131 50.56ZM44.6838 49.8449C44.2357 49.8449 43.8012 49.8745 43.3809 49.9111L43.4824 51.077C43.8897 51.0415 44.2855 51.0151 44.6838 51.0151V49.8449ZM55.4803 54.3169C52.6169 51.4535 48.7332 49.8449 44.6838 49.8449V51.0151C48.4229 51.0151 52.0088 52.5005 54.6528 55.1444L55.4803 54.3169ZM59.9523 65.1134C59.9523 61.064 58.3437 57.1803 55.4803 54.3169L54.6528 55.1444C57.2967 57.7884 58.782 61.3743 58.782 65.1134H59.9523ZM55.4803 75.91C58.3437 73.0465 59.9523 69.1629 59.9523 65.1134H58.782C58.782 68.8525 57.2967 72.4385 54.6528 75.0824L55.4803 75.91Z" fill="url(#paint11_linear_14447_258016)" mask="url(#path-15-inside-5_14447_258016)"/>
<defs>
<filter id="filter0_f_14447_258016" x="0" y="0" width="84" height="84" filterUnits="userSpaceOnUse" color-interpolation-filters="sRGB">
<feFlood flood-opacity="0" result="BackgroundImageFix"/>
<feBlend mode="normal" in="SourceGraphic" in2="BackgroundImageFix" result="shape"/>
<feGaussianBlur stdDeviation="15" result="effect1_foregroundBlur_14447_258016"/>
</filter>
<filter id="filter1_f_14447_258016" x="28.9738" y="29.384" width="66.1304" height="51.4351" filterUnits="userSpaceOnUse" color-interpolation-filters="sRGB">
<feFlood flood-opacity="0" result="BackgroundImageFix"/>
<feBlend mode="normal" in="SourceGraphic" in2="BackgroundImageFix" result="shape"/>
<feGaussianBlur stdDeviation="0.438857" result="effect1_foregroundBlur_14447_258016"/>
</filter>
<filter id="filter2_f_14447_258016" x="29.4149" y="29.8211" width="65.2484" height="50.5609" filterUnits="userSpaceOnUse" color-interpolation-filters="sRGB">
<feFlood flood-opacity="0" result="BackgroundImageFix"/>
<feBlend mode="normal" in="SourceGraphic" in2="BackgroundImageFix" result="shape"/>
<feGaussianBlur stdDeviation="0.292571" result="effect1_foregroundBlur_14447_258016"/>
</filter>
<filter id="filter3_f_14447_258016" x="27.0778" y="27.4801" width="69.9225" height="55.2428" filterUnits="userSpaceOnUse" color-interpolation-filters="sRGB">
<feFlood flood-opacity="0" result="BackgroundImageFix"/>
<feBlend mode="normal" in="SourceGraphic" in2="BackgroundImageFix" result="shape"/>
<feGaussianBlur stdDeviation="1.31657" result="effect1_foregroundBlur_14447_258016"/>
</filter>
<filter id="filter4_f_14447_258016" x="23.8595" y="24.2619" width="76.3591" height="61.6794" filterUnits="userSpaceOnUse" color-interpolation-filters="sRGB">
<feFlood flood-opacity="0" result="BackgroundImageFix"/>
<feBlend mode="normal" in="SourceGraphic" in2="BackgroundImageFix" result="shape"/>
<feGaussianBlur stdDeviation="2.92571" result="effect1_foregroundBlur_14447_258016"/>
</filter>
<filter id="filter5_f_14447_258016" x="25.1395" y="25.5419" width="73.7991" height="59.1194" filterUnits="userSpaceOnUse" color-interpolation-filters="sRGB">
<feFlood flood-opacity="0" result="BackgroundImageFix"/>
<feBlend mode="normal" in="SourceGraphic" in2="BackgroundImageFix" result="shape"/>
<feGaussianBlur stdDeviation="2.28571" result="effect1_foregroundBlur_14447_258016"/>
</filter>
<filter id="filter6_f_14447_258016" x="20.9338" y="21.3361" width="82.2105" height="67.5308" filterUnits="userSpaceOnUse" color-interpolation-filters="sRGB">
<feFlood flood-opacity="0" result="BackgroundImageFix"/>
<feBlend mode="normal" in="SourceGraphic" in2="BackgroundImageFix" result="shape"/>
<feGaussianBlur stdDeviation="4.38857" result="effect1_foregroundBlur_14447_258016"/>
</filter>
<filter id="filter7_f_14447_258016" x="29.7747" y="30.1809" width="64.5287" height="49.8412" filterUnits="userSpaceOnUse" color-interpolation-filters="sRGB">
<feFlood flood-opacity="0" result="BackgroundImageFix"/>
<feBlend mode="normal" in="SourceGraphic" in2="BackgroundImageFix" result="shape"/>
<feGaussianBlur stdDeviation="0.112653" result="effect1_foregroundBlur_14447_258016"/>
</filter>
<filter id="filter8_f_14447_258016" x="28.6939" y="29.1001" width="66.6904" height="52.0029" filterUnits="userSpaceOnUse" color-interpolation-filters="sRGB">
<feFlood flood-opacity="0" result="BackgroundImageFix"/>
<feBlend mode="normal" in="SourceGraphic" in2="BackgroundImageFix" result="shape"/>
<feGaussianBlur stdDeviation="0.653061" result="effect1_foregroundBlur_14447_258016"/>
</filter>
<radialGradient id="paint0_radial_14447_258016" cx="0" cy="0" r="1" gradientUnits="userSpaceOnUse" gradientTransform="translate(49 30) rotate(58.2764) scale(64.6607 69.803)">
<stop stop-color="#0D3B34"/>
<stop offset="0.729288" stop-color="#041512"/>
</radialGradient>
<linearGradient id="paint1_linear_14447_258016" x1="62" y1="30" x2="84.4962" y2="105.501" gradientUnits="userSpaceOnUse">
<stop stop-color="#82E0D6"/>
<stop offset="0.317357" stop-color="#82E0D6" stop-opacity="0.5"/>
<stop offset="0.570084" stop-color="#82E0D6" stop-opacity="0.1"/>
<stop offset="0.872516" stop-color="#82E0D6" stop-opacity="0"/>
</linearGradient>
<linearGradient id="paint2_linear_14447_258016" x1="46.6531" y1="31.4882" x2="51.8773" y2="41.7743" gradientUnits="userSpaceOnUse">
<stop stop-color="#DBF2EF"/>
<stop offset="1" stop-color="#DBF2EF" stop-opacity="0"/>
</linearGradient>
<linearGradient id="paint3_linear_14447_258016" x1="41.7034" y1="32.47" x2="57.5016" y2="72.9919" gradientUnits="userSpaceOnUse">
<stop stop-color="#82E0D6"/>
<stop offset="0.290155" stop-color="#82E0D6" stop-opacity="0"/>
</linearGradient>
<linearGradient id="paint4_linear_14447_258016" x1="41.7034" y1="32.47" x2="57.5016" y2="72.9919" gradientUnits="userSpaceOnUse">
<stop stop-color="#82E0D6"/>
<stop offset="0.290155" stop-color="#82E0D6" stop-opacity="0"/>
</linearGradient>
<linearGradient id="paint5_linear_14447_258016" x1="41.7034" y1="32.47" x2="57.5016" y2="72.9919" gradientUnits="userSpaceOnUse">
<stop stop-color="#60F5E5"/>
<stop offset="0.290155" stop-color="#60F5E5" stop-opacity="0"/>
</linearGradient>
<linearGradient id="paint6_linear_14447_258016" x1="41.7034" y1="32.47" x2="57.5016" y2="72.9919" gradientUnits="userSpaceOnUse">
<stop stop-color="#82E0D6"/>
<stop offset="0.290155" stop-color="#82E0D6" stop-opacity="0"/>
</linearGradient>
<linearGradient id="paint7_linear_14447_258016" x1="41.7034" y1="32.47" x2="57.5016" y2="72.9919" gradientUnits="userSpaceOnUse">
<stop stop-color="#82E0D6"/>
<stop offset="0.290155" stop-color="#82E0D6" stop-opacity="0"/>
</linearGradient>
<linearGradient id="paint8_linear_14447_258016" x1="41.7034" y1="32.47" x2="57.5016" y2="72.9919" gradientUnits="userSpaceOnUse">
<stop stop-color="#A6FCF3"/>
<stop offset="0.290155" stop-color="#A6FCF3" stop-opacity="0"/>
</linearGradient>
<linearGradient id="paint9_linear_14447_258016" x1="41.7034" y1="32.47" x2="57.5016" y2="72.9919" gradientUnits="userSpaceOnUse">
<stop stop-color="#E0FFFC"/>
<stop offset="0.290155" stop-color="#E0FFFC" stop-opacity="0"/>
</linearGradient>
<linearGradient id="paint10_linear_14447_258016" x1="41.7034" y1="32.47" x2="57.5016" y2="72.9919" gradientUnits="userSpaceOnUse">
<stop stop-color="#E0FFFC"/>
<stop offset="0.290155" stop-color="#E0FFFC" stop-opacity="0"/>
</linearGradient>
<linearGradient id="paint11_linear_14447_258016" x1="46.6531" y1="31.4882" x2="49.9182" y2="40.3047" gradientUnits="userSpaceOnUse">
<stop stop-color="#DBF2EF"/>
<stop offset="1" stop-color="#DBF2EF" stop-opacity="0"/>
</linearGradient>
</defs>
</svg>
