<svg width="16" height="16" viewBox="0 0 16 16" fill="none" xmlns="http://www.w3.org/2000/svg">
<path d="M1.50586 5.11914C5.98651 5.37612 9.62883 9.01835 9.88574 13.499L9.8916 13.6045H8.08984L8.08301 13.5117C7.96416 11.8031 7.23156 10.1955 6.02051 8.98438C4.80945 7.77332 3.20173 7.04076 1.49316 6.92188L1.40039 6.91504V5.11328L1.50586 5.11914ZM3 10.3975C3.42435 10.3975 3.83178 10.5662 4.13184 10.8662C4.43182 11.1663 4.59961 11.5738 4.59961 11.998C4.59955 12.4221 4.43161 12.8289 4.13184 13.1289C3.83178 13.429 3.42435 13.5977 3 13.5977C2.57565 13.5977 2.16822 13.429 1.86816 13.1289C1.56839 12.8289 1.40045 12.4221 1.40039 11.998C1.40039 11.5738 1.56818 11.1663 1.86816 10.8662C2.16822 10.5662 2.57565 10.3975 3 10.3975ZM1.50391 0.408203C8.58513 0.66825 14.3299 6.41187 14.5898 13.4941L14.5938 13.5977H12.6943L12.6904 13.502C12.4326 7.47199 7.525 2.56458 1.49609 2.30762L1.40039 2.30371V0.404297L1.50391 0.408203Z" fill="currentColor"/>
</svg>
