<svg width="16" height="16" viewBox="0 0 16 16" fill="none" xmlns="http://www.w3.org/2000/svg">
    <path
        d="M4.5 12C4.5 12.8284 3.82843 13.5 3 13.5C2.17157 13.5 1.5 12.8284 1.5 12C1.5 11.1716 2.17157 10.5 3 10.5C3.82843 10.5 4.5 11.1716 4.5 12Z"
        fill="currentColor" stroke="currentColor" />
    <path
        d="M1.5 0.509211C8.52879 0.768534 14.2315 6.47121 14.4908 13.5H12.7894C12.5309 7.41793 7.58207 2.46905 1.5 2.21061V0.509211Z"
        fill="currentColor" stroke="currentColor" />
    <path
        d="M1.5 5.21449C5.93001 5.46825 9.53194 9.07018 9.78571 13.5002H8.18291C7.93744 9.92246 5.07773 7.06275 1.5 6.81729V5.21449Z"
        fill="currentColor" stroke="currentColor" />
</svg>