<svg width="18" height="18" viewBox="0 0 18 18" fill="none" xmlns="http://www.w3.org/2000/svg">
<path d="M16.3451 1.65406C16.0011 1.31006 15.5001 1.19106 15.0401 1.33906L2.11712 5.49306C1.62612 5.65106 1.28612 6.06706 1.23012 6.58006C1.17412 7.09206 1.41712 7.57206 1.86212 7.83106L6.43812 10.5001L10.3911 6.54606C10.6841 6.25306 11.1591 6.25306 11.4521 6.54606C11.7451 6.83906 11.7451 7.31406 11.4521 7.60706L7.49812 11.5611L10.1671 16.1371C10.4021 16.5391 10.8171 16.7761 11.2741 16.7761C11.3221 16.7761 11.3711 16.7731 11.4201 16.7681C11.9321 16.7121 12.3491 16.3721 12.5061 15.8821L16.6611 2.96006C16.8091 2.49706 16.6881 1.99706 16.3451 1.65406Z" fill="#0C0D0D"/>
</svg>
