<svg xmlns="http://www.w3.org/2000/svg" width="16" height="17" viewBox="0 0 16 17" fill="none"><path stroke="currentColor" stroke-linecap="round" stroke-linejoin="round" d="M2.083 15a1.083 1.083 0 1 0 0-2.167 1.083 1.083 0 0 0 0 2.167ZM7.5 15a1.083 1.083 0 1 0 0-2.167A1.083 1.083 0 0 0 7.5 15ZM12.917 15a1.083 1.083 0 1 0 0-2.167 1.083 1.083 0 0 0 0 2.167ZM7.5 12.833V9.8"/><path stroke="currentColor" stroke-linecap="round" stroke-linejoin="round" d="m12.151 13.151-1.184-1.185V9.8M2.85 13.15l1.183-1.184V9.8"/><path stroke="currentColor" stroke-linecap="round" stroke-linejoin="round" d="M11.4 4.6c-.076 0-.15.005-.223.011a3.895 3.895 0 0 0-7.354 0A2.6 2.6 0 1 0 3.6 9.8h7.8a2.6 2.6 0 1 0 0-5.2Z"/></svg>
