<svg width="14" height="14" viewBox="0 0 14 14" fill="none" xmlns="http://www.w3.org/2000/svg">
<path d="M4.83105 4.33691C5.10475 4.33691 5.32715 4.55833 5.32715 4.83203C5.32715 5.85065 5.73188 6.82758 6.45215 7.54785C7.17241 8.26803 8.14942 8.67285 9.16797 8.67285C9.44142 8.67301 9.6629 8.89452 9.66309 9.16797C9.66309 9.44157 9.44154 9.66391 9.16797 9.66406C8.14935 9.66406 7.17242 10.0688 6.45215 10.7891C5.77682 11.4644 5.37906 12.3651 5.33203 13.3145L5.32715 13.5049L5.31738 13.6045C5.2712 13.8304 5.07057 14 4.83105 14C4.55761 13.9998 4.33609 13.7783 4.33594 13.5049C4.33594 13.0007 4.23684 12.501 4.04395 12.0352C3.85096 11.5692 3.56751 11.1457 3.21094 10.7891C2.85429 10.4324 2.43082 10.1491 1.96484 9.95605C1.4989 9.76307 0.999447 9.66406 0.495117 9.66406C0.221419 9.66406 0 9.44167 0 9.16797C0.000163606 8.92853 0.169645 8.72869 0.395508 8.68262L0.495117 8.67285L0.683594 8.66797C1.1235 8.64635 1.55706 8.54974 1.96484 8.38086C2.43082 8.18785 2.85429 7.90449 3.21094 7.54785C3.56758 7.19121 3.85093 6.76773 4.04395 6.30176C4.2369 5.83584 4.33594 5.33632 4.33594 4.83203C4.33594 4.55845 4.55752 4.3371 4.83105 4.33691ZM4.83105 6.96094C4.59731 7.43701 4.28812 7.87301 3.91211 8.24902C3.5361 8.62504 3.1001 8.93422 2.62402 9.16797C3.10021 9.40173 3.53602 9.71181 3.91211 10.0879C4.28791 10.4637 4.59737 10.8992 4.83105 11.375C5.06294 10.9028 5.37194 10.4669 5.75098 10.0879C6.13023 9.70864 6.56653 9.3999 7.03906 9.16797C6.56669 8.93608 6.13012 8.62813 5.75098 8.24902C5.37179 7.86984 5.06297 7.43338 4.83105 6.96094ZM10.9023 0.000976562C11.176 0.000976562 11.3984 0.222395 11.3984 0.496094C11.3984 1.05459 11.6198 1.59038 12.0146 1.98535C12.4095 2.38024 12.9455 2.60243 13.5039 2.60254C13.7775 2.60254 13.9999 2.82405 14 3.09766C14 3.37135 13.7776 3.59375 13.5039 3.59375C12.9455 3.59386 12.4095 3.81507 12.0146 4.20996C11.6691 4.55552 11.4561 5.00914 11.4082 5.49121L11.3984 5.69922L11.3877 5.7998C11.3413 6.02545 11.1417 6.19531 10.9023 6.19531C10.6287 6.1952 10.4072 5.97285 10.4072 5.69922C10.4071 5.14077 10.1849 4.60485 9.79004 4.20996C9.39507 3.8151 8.85928 3.59375 8.30078 3.59375C8.02708 3.59375 7.80566 3.37135 7.80566 3.09766C7.80576 2.85817 7.97528 2.6584 8.20117 2.6123L8.30078 2.60254L8.50879 2.5918C8.991 2.54395 9.44439 2.331 9.79004 1.98535C10.185 1.59036 10.4072 1.05469 10.4072 0.496094C10.4072 0.222464 10.6287 0.00108873 10.9023 0.000976562ZM10.9023 2.17285C10.7841 2.35638 10.648 2.52974 10.4912 2.68652C10.3344 2.84331 10.1611 2.97937 9.97754 3.09766C10.1611 3.21597 10.3344 3.35293 10.4912 3.50977C10.6478 3.66639 10.7842 3.83915 10.9023 4.02246C11.0206 3.83897 11.1577 3.66652 11.3145 3.50977C11.4712 3.35301 11.6437 3.21592 11.8271 3.09766C11.6438 2.97949 11.4711 2.84311 11.3145 2.68652C11.1576 2.52969 11.0207 2.35645 10.9023 2.17285Z" fill="currentColor"/>
</svg>
