<svg width="14" height="14" viewBox="0 0 14 14" fill="none" xmlns="http://www.w3.org/2000/svg">
<path opacity="0.2" d="M7 14C10.866 14 14 10.866 14 7C14 3.13401 10.866 0 7 0C3.13401 0 0 3.13401 0 7C0 10.866 3.13401 14 7 14Z" fill="#00E599"/>
<path d="M7.00925 4.30021C7.51325 4.30021 7.72605 4.03141 7.72605 3.66181V3.47141C7.72605 3.10181 7.51325 2.83301 7.00925 2.83301C6.50525 2.83301 6.28125 3.10181 6.28125 3.47141V3.66181C6.28125 4.03141 6.50525 4.30021 7.00925 4.30021ZM6.39325 11.1658H7.61405V5.34181H6.39325V11.1658Z" fill="#00CC88"/>
</svg>
