<svg width="12" height="12" viewBox="0 0 12 12" fill="none" xmlns="http://www.w3.org/2000/svg">
<g clip-path="url(#clip0_16969_7044)">
<path d="M6 3.5C6.82843 3.5 7.5 2.82843 7.5 2C7.5 1.17157 6.82843 0.5 6 0.5C5.17157 0.5 4.5 1.17157 4.5 2C4.5 2.82843 5.17157 3.5 6 3.5Z" stroke="currentColor" stroke-linecap="round" stroke-linejoin="round"/>
<path d="M2 10.5C2.82843 10.5 3.5 9.82843 3.5 9C3.5 8.17157 2.82843 7.5 2 7.5C1.17157 7.5 0.5 8.17157 0.5 9C0.5 9.82843 1.17157 10.5 2 10.5Z" stroke="currentColor" stroke-linecap="round" stroke-linejoin="round"/>
<path d="M10 10.5C10.8284 10.5 11.5 9.82843 11.5 9C11.5 8.17157 10.8284 7.5 10 7.5C9.17157 7.5 8.5 8.17157 8.5 9C8.5 9.82843 9.17157 10.5 10 10.5Z" stroke="currentColor" stroke-linecap="round" stroke-linejoin="round"/>
<path d="M1.623 7.54984C1.54124 7.20583 1.49996 6.85344 1.5 6.49984C1.49846 5.32709 1.95612 4.20035 2.775 3.36084" stroke="currentColor" stroke-linecap="round" stroke-linejoin="round"/>
<path d="M8.86215 9.97217C8.32489 10.4153 7.69211 10.7277 7.01363 10.8847C6.33514 11.0417 5.62947 11.0392 4.95215 10.8772" stroke="currentColor" stroke-linecap="round" stroke-linejoin="round"/>
<path d="M7.47754 2.24805C8.20183 2.50087 8.8497 2.93419 9.35993 3.50706C9.87017 4.07993 10.2259 4.77344 10.3935 5.52205" stroke="currentColor" stroke-linecap="round" stroke-linejoin="round"/>
</g>
<defs>
<clipPath id="clip0_16969_7044">
<rect width="12" height="12" fill="white"/>
</clipPath>
</defs>
</svg>
