<svg viewBox="0 0 36 36" fill="none" xmlns="http://www.w3.org/2000/svg">
  <path
    d="M31.5192 10.8767C31.5399 11.1765 31.5399 11.4762 31.5399 11.7787C31.5399 20.9959 24.5231 31.6262 11.6924 31.6262V31.6207C7.90222 31.6262 4.19074 30.5405 1 28.4935C1.55113 28.5598 2.10502 28.5929 2.66029 28.5943C5.8013 28.5971 8.85253 27.5432 11.3236 25.6025C8.3387 25.5458 5.72119 23.5996 4.80678 20.7584C5.85241 20.96 6.9298 20.9186 7.95608 20.6382C4.70181 19.9807 2.36055 17.1215 2.36055 13.8009C2.36055 13.7705 2.36055 13.7415 2.36055 13.7125C3.33021 14.2526 4.41588 14.5523 5.52643 14.5855C2.46139 12.537 1.5166 8.45951 3.3675 5.27154C6.90908 9.62945 12.1344 12.2787 17.7438 12.5591C17.1816 10.1364 17.9496 7.5976 19.7618 5.89449C22.5713 3.2535 26.99 3.38886 29.631 6.19699C31.1932 5.88897 32.6905 5.31574 34.0607 4.50355C33.54 6.11826 32.4502 7.48986 30.9943 8.36144C32.377 8.19845 33.7278 7.82827 35 7.26333C34.0635 8.6667 32.8839 9.88913 31.5192 10.8767Z"
    fill="currentColor"
  />
</svg>
