<svg width="32" height="32" viewBox="0 0 32 32" fill="none" xmlns="http://www.w3.org/2000/svg">
<g clip-path="url(#clip0_19321_495559)">
<path d="M19.044 13.4953L30.9572 -0.352539H28.1346L17.7899 11.6714L9.5283 -0.352539H0L12.4931 17.8299L0 32.3519H2.82264L13.7459 19.6538L22.4704 32.3519H32L19.044 13.4953ZM15.1774 17.9896L13.912 16.1795L3.84025 1.77325H8.1761L16.3044 13.3997L17.5698 15.2097L28.1359 30.3229H23.8L15.1786 17.9909L15.1774 17.9896Z" fill="url(#paint0_linear_19321_495559)"/>
<path d="M19.044 13.4953L30.9572 -0.352539H28.1346L17.7899 11.6714L9.5283 -0.352539H0L12.4931 17.8299L0 32.3519H2.82264L13.7459 19.6538L22.4704 32.3519H32L19.044 13.4953ZM15.1774 17.9896L13.912 16.1795L3.84025 1.77325H8.1761L16.3044 13.3997L17.5698 15.2097L28.1359 30.3229H23.8L15.1786 17.9909L15.1774 17.9896Z" fill="url(#paint1_radial_19321_495559)" fill-opacity="0.4" style="mix-blend-mode:plus-lighter"/>
</g>
<defs>
<linearGradient id="paint0_linear_19321_495559" x1="16" y1="-0.352539" x2="16" y2="32.3519" gradientUnits="userSpaceOnUse">
<stop offset="0.136862" stop-color="white"/>
<stop offset="0.932472" stop-color="white" stop-opacity="0.4"/>
</linearGradient>
<radialGradient id="paint1_radial_19321_495559" cx="0" cy="0" r="1" gradientUnits="userSpaceOnUse" gradientTransform="translate(16 0.575432) rotate(90) scale(31.7764 32.1313)">
<stop stop-color="white"/>
<stop offset="1" stop-color="white" stop-opacity="0"/>
</radialGradient>
<clipPath id="clip0_19321_495559">
<rect width="32" height="32" fill="white"/>
</clipPath>
</defs>
</svg>
