<svg width="18" height="16" viewBox="0 0 18 16" fill="none" xmlns="http://www.w3.org/2000/svg">
<path d="M17.775 4.65C17.55 3.1875 16.875 2.175 15.3 1.95C12.825 1.5 9 1.5 9 1.5C9 1.5 5.175 1.5 2.7 1.95C1.125 2.175 0.3375 3.1875 0.225 4.65C0 6.1125 0 8.25 0 8.25C0 8.25 0 10.3875 0.225 11.85C0.45 13.3125 1.125 14.325 2.7 14.55C5.175 15 9 15 9 15C9 15 12.825 15 15.3 14.55C16.875 14.2125 17.55 13.3125 17.775 11.85C18 10.3875 18 8.25 18 8.25C18 8.25 18 6.1125 17.775 4.65ZM6.75 11.625V4.875L12.375 8.25L6.75 11.625Z" fill="currentColor"/>
</svg>
