<svg width="1920" height="848" viewBox="0 0 1920 848" fill="none" xmlns="http://www.w3.org/2000/svg">
<rect width="103" height="19" transform="translate(771 445)" fill="#757575"/>
<path d="M781.128 460.192C780.403 460.192 779.773 460.016 779.24 459.664C778.707 459.301 778.296 458.789 778.008 458.128C777.72 457.456 777.576 456.661 777.576 455.744C777.576 454.827 777.72 454.037 778.008 453.376C778.296 452.704 778.707 452.192 779.24 451.84C779.773 451.477 780.403 451.296 781.128 451.296C781.725 451.296 782.248 451.435 782.696 451.712C783.144 451.989 783.469 452.315 783.672 452.688V448.64H785.288V460H783.784L783.736 458.688C783.501 459.147 783.16 459.515 782.712 459.792C782.264 460.059 781.736 460.192 781.128 460.192ZM781.4 458.704C781.869 458.704 782.269 458.587 782.6 458.352C782.941 458.107 783.203 457.765 783.384 457.328C783.576 456.88 783.672 456.352 783.672 455.744C783.672 455.115 783.576 454.581 783.384 454.144C783.203 453.707 782.941 453.371 782.6 453.136C782.259 452.901 781.848 452.784 781.368 452.784C780.717 452.784 780.205 453.045 779.832 453.568C779.459 454.091 779.272 454.816 779.272 455.744C779.272 456.661 779.459 457.387 779.832 457.92C780.205 458.443 780.728 458.704 781.4 458.704ZM790.866 460.192C790.066 460.192 789.367 460.011 788.77 459.648C788.183 459.285 787.724 458.768 787.394 458.096C787.074 457.424 786.914 456.64 786.914 455.744C786.914 454.848 787.074 454.069 787.394 453.408C787.724 452.747 788.178 452.229 788.754 451.856C789.34 451.483 790.028 451.296 790.818 451.296C791.575 451.296 792.242 451.477 792.818 451.84C793.394 452.192 793.842 452.704 794.162 453.376C794.492 454.037 794.658 454.837 794.658 455.776V456.224H788.61C788.663 457.035 788.887 457.653 789.282 458.08C789.687 458.496 790.22 458.704 790.882 458.704C791.383 458.704 791.799 458.587 792.13 458.352C792.46 458.107 792.69 457.792 792.818 457.408L794.514 457.52C794.268 458.331 793.826 458.981 793.186 459.472C792.556 459.952 791.783 460.192 790.866 460.192ZM788.61 454.928H792.914C792.85 454.203 792.626 453.664 792.242 453.312C791.868 452.96 791.394 452.784 790.818 452.784C790.22 452.784 789.73 452.965 789.346 453.328C788.962 453.691 788.716 454.224 788.61 454.928ZM798.699 460L795.627 451.488H797.371L799.707 458.288L802.043 451.488H803.787L800.715 460H798.699ZM806.069 456.08V454.592H811.253V456.08H806.069ZM818.287 460.192C817.69 460.192 817.167 460.059 816.719 459.792C816.271 459.515 815.924 459.147 815.679 458.688L815.631 460H814.127V448.64H815.743V452.688C815.956 452.315 816.282 451.989 816.719 451.712C817.167 451.435 817.69 451.296 818.287 451.296C819.012 451.296 819.642 451.477 820.175 451.84C820.708 452.192 821.119 452.704 821.407 453.376C821.695 454.037 821.839 454.827 821.839 455.744C821.839 456.661 821.695 457.456 821.407 458.128C821.119 458.789 820.708 459.301 820.175 459.664C819.642 460.016 819.012 460.192 818.287 460.192ZM818.015 458.704C818.687 458.704 819.21 458.443 819.583 457.92C819.956 457.387 820.143 456.661 820.143 455.744C820.143 454.816 819.956 454.091 819.583 453.568C819.21 453.045 818.698 452.784 818.047 452.784C817.567 452.784 817.156 452.901 816.815 453.136C816.474 453.371 816.207 453.707 816.015 454.144C815.834 454.581 815.743 455.115 815.743 455.744C815.743 456.352 815.834 456.88 816.015 457.328C816.207 457.765 816.468 458.107 816.799 458.352C817.14 458.587 817.546 458.704 818.015 458.704ZM825.273 460V451.488H826.553L826.697 453.664L826.553 453.648C826.659 452.912 826.889 452.368 827.241 452.016C827.593 451.664 828.078 451.488 828.697 451.488H830.505V452.896H828.761C828.355 452.896 828.014 452.976 827.737 453.136C827.459 453.285 827.246 453.515 827.097 453.824C826.958 454.123 826.889 454.496 826.889 454.944V460H825.273ZM823.113 460V458.64H829.545V460H823.113ZM823.113 452.848V451.488H826.185V452.848H823.113ZM834.371 460.192C833.837 460.192 833.357 460.096 832.931 459.904C832.504 459.712 832.162 459.44 831.906 459.088C831.661 458.736 831.538 458.325 831.538 457.856C831.538 457.131 831.757 456.565 832.194 456.16C832.642 455.755 833.314 455.467 834.211 455.296L836.963 454.72C836.963 454.059 836.819 453.563 836.53 453.232C836.243 452.901 835.811 452.736 835.234 452.736C834.701 452.736 834.285 452.859 833.987 453.104C833.688 453.349 833.485 453.691 833.378 454.128L831.682 454.016C831.842 453.205 832.232 452.549 832.85 452.048C833.469 451.547 834.264 451.296 835.234 451.296C836.322 451.296 837.149 451.605 837.714 452.224C838.291 452.843 838.579 453.696 838.579 454.784V458.144C838.579 458.336 838.621 458.475 838.707 458.56C838.792 458.635 838.915 458.672 839.075 458.672H839.555V460C839.491 460.011 839.384 460.021 839.234 460.032C839.096 460.043 838.957 460.048 838.819 460.048C838.435 460.048 838.109 459.984 837.843 459.856C837.576 459.728 837.373 459.531 837.234 459.264C837.106 458.987 837.032 458.64 837.01 458.224H837.266C837.203 458.597 837.037 458.933 836.771 459.232C836.504 459.531 836.163 459.765 835.747 459.936C835.33 460.107 834.872 460.192 834.371 460.192ZM834.611 458.864C835.123 458.864 835.554 458.773 835.906 458.592C836.259 458.411 836.52 458.155 836.691 457.824C836.872 457.493 836.963 457.104 836.963 456.656V456L834.595 456.48C834.082 456.576 833.725 456.725 833.523 456.928C833.32 457.131 833.218 457.397 833.218 457.728C833.218 458.08 833.341 458.357 833.586 458.56C833.832 458.763 834.173 458.864 834.611 458.864ZM840.956 460V451.488H842.444L842.492 453.712L842.316 453.584C842.423 453.061 842.61 452.635 842.876 452.304C843.154 451.963 843.49 451.712 843.884 451.552C844.279 451.381 844.7 451.296 845.148 451.296C845.788 451.296 846.316 451.44 846.732 451.728C847.148 452.005 847.463 452.389 847.676 452.88C847.89 453.36 847.996 453.904 847.996 454.512V460H846.38V454.928C846.38 454.192 846.236 453.637 845.948 453.264C845.671 452.891 845.25 452.704 844.684 452.704C844.29 452.704 843.932 452.789 843.612 452.96C843.303 453.131 843.052 453.387 842.86 453.728C842.668 454.059 842.572 454.469 842.572 454.96V460H840.956ZM853.622 460.192C852.833 460.192 852.134 460.011 851.526 459.648C850.929 459.275 850.465 458.757 850.134 458.096C849.814 457.424 849.654 456.64 849.654 455.744C849.654 454.848 849.814 454.069 850.134 453.408C850.465 452.747 850.929 452.229 851.526 451.856C852.134 451.483 852.833 451.296 853.622 451.296C854.273 451.296 854.854 451.419 855.366 451.664C855.878 451.899 856.299 452.245 856.63 452.704C856.961 453.163 857.179 453.712 857.286 454.352L855.638 454.464C855.51 453.92 855.27 453.504 854.918 453.216C854.566 452.928 854.139 452.784 853.638 452.784C852.923 452.784 852.358 453.051 851.942 453.584C851.537 454.107 851.334 454.827 851.334 455.744C851.334 456.661 851.537 457.387 851.942 457.92C852.358 458.443 852.923 458.704 853.638 458.704C854.15 458.704 854.587 458.555 854.95 458.256C855.323 457.947 855.569 457.493 855.686 456.896L857.334 456.992C857.227 457.643 857.003 458.208 856.662 458.688C856.321 459.157 855.889 459.525 855.366 459.792C854.854 460.059 854.273 460.192 853.622 460.192ZM859.072 460V448.64H860.688V453.344L860.528 453.28C860.634 452.821 860.816 452.448 861.072 452.16C861.328 451.861 861.637 451.643 862 451.504C862.362 451.365 862.762 451.296 863.2 451.296C863.797 451.296 864.298 451.435 864.704 451.712C865.12 451.979 865.429 452.357 865.632 452.848C865.845 453.328 865.952 453.883 865.952 454.512V460H864.336V454.928C864.336 454.16 864.197 453.6 863.92 453.248C863.653 452.885 863.253 452.704 862.72 452.704C862.112 452.704 861.621 452.896 861.248 453.28C860.874 453.664 860.688 454.229 860.688 454.976V460H859.072Z" fill="black"/>
<rect x="771" y="464" width="1" height="275" fill="#757575"/>
<rect width="138" height="19" transform="translate(1514 159)" fill="#757575"/>
<path d="M1521.15 176.4V165.488H1522.69L1522.72 167.424L1522.53 167.328C1522.74 166.667 1523.09 166.165 1523.57 165.824C1524.06 165.472 1524.63 165.296 1525.3 165.296C1526.12 165.296 1526.79 165.504 1527.31 165.92C1527.83 166.325 1528.22 166.864 1528.48 167.536C1528.74 168.208 1528.86 168.944 1528.86 169.744C1528.86 170.544 1528.74 171.28 1528.48 171.952C1528.22 172.624 1527.83 173.168 1527.31 173.584C1526.79 173.989 1526.12 174.192 1525.3 174.192C1524.86 174.192 1524.45 174.123 1524.08 173.984C1523.71 173.835 1523.39 173.627 1523.12 173.36C1522.86 173.083 1522.68 172.752 1522.56 172.368L1522.77 172.144V176.4H1521.15ZM1524.99 172.704C1525.67 172.704 1526.21 172.448 1526.59 171.936C1526.98 171.424 1527.17 170.693 1527.17 169.744C1527.17 168.795 1526.98 168.064 1526.59 167.552C1526.21 167.04 1525.67 166.784 1524.99 166.784C1524.54 166.784 1524.15 166.896 1523.82 167.12C1523.49 167.333 1523.23 167.659 1523.04 168.096C1522.86 168.533 1522.77 169.083 1522.77 169.744C1522.77 170.405 1522.86 170.955 1523.04 171.392C1523.22 171.829 1523.48 172.16 1523.81 172.384C1524.15 172.597 1524.54 172.704 1524.99 172.704ZM1532.46 174V165.488H1533.74L1533.88 167.664L1533.74 167.648C1533.84 166.912 1534.07 166.368 1534.43 166.016C1534.78 165.664 1535.26 165.488 1535.88 165.488H1537.69V166.896H1535.95C1535.54 166.896 1535.2 166.976 1534.92 167.136C1534.64 167.285 1534.43 167.515 1534.28 167.824C1534.14 168.123 1534.07 168.496 1534.07 168.944V174H1532.46ZM1530.3 174V172.64H1536.73V174H1530.3ZM1530.3 166.848V165.488H1533.37V166.848H1530.3ZM1542.82 174.192C1542.02 174.192 1541.32 174.011 1540.72 173.648C1540.14 173.285 1539.68 172.768 1539.35 172.096C1539.03 171.424 1538.87 170.64 1538.87 169.744C1538.87 168.848 1539.03 168.069 1539.35 167.408C1539.68 166.747 1540.13 166.229 1540.71 165.856C1541.29 165.483 1541.98 165.296 1542.77 165.296C1543.53 165.296 1544.2 165.477 1544.77 165.84C1545.35 166.192 1545.8 166.704 1546.12 167.376C1546.45 168.037 1546.61 168.837 1546.61 169.776V170.224H1540.56C1540.62 171.035 1540.84 171.653 1541.24 172.08C1541.64 172.496 1542.17 172.704 1542.84 172.704C1543.34 172.704 1543.75 172.587 1544.08 172.352C1544.41 172.107 1544.64 171.792 1544.77 171.408L1546.47 171.52C1546.22 172.331 1545.78 172.981 1545.14 173.472C1544.51 173.952 1543.74 174.192 1542.82 174.192ZM1540.56 168.928H1544.87C1544.8 168.203 1544.58 167.664 1544.2 167.312C1543.82 166.96 1543.35 166.784 1542.77 166.784C1542.17 166.784 1541.68 166.965 1541.3 167.328C1540.92 167.691 1540.67 168.224 1540.56 168.928ZM1550.65 174L1547.58 165.488H1549.33L1551.66 172.288L1554 165.488H1555.74L1552.67 174H1550.65ZM1560.36 174V165.488H1561.99V174H1560.36ZM1557.03 174V172.64H1564.84V174H1557.03ZM1557.19 166.848V165.488H1561.85V166.848H1557.19ZM1560.26 164.256V162.576H1561.93V164.256H1560.26ZM1569.68 174.192C1568.88 174.192 1568.18 174.011 1567.58 173.648C1567 173.285 1566.54 172.768 1566.21 172.096C1565.89 171.424 1565.73 170.64 1565.73 169.744C1565.73 168.848 1565.89 168.069 1566.21 167.408C1566.54 166.747 1566.99 166.229 1567.57 165.856C1568.16 165.483 1568.84 165.296 1569.63 165.296C1570.39 165.296 1571.06 165.477 1571.63 165.84C1572.21 166.192 1572.66 166.704 1572.98 167.376C1573.31 168.037 1573.47 168.837 1573.47 169.776V170.224H1567.42C1567.48 171.035 1567.7 171.653 1568.1 172.08C1568.5 172.496 1569.04 172.704 1569.7 172.704C1570.2 172.704 1570.61 172.587 1570.94 172.352C1571.28 172.107 1571.5 171.792 1571.63 171.408L1573.33 171.52C1573.08 172.331 1572.64 172.981 1572 173.472C1571.37 173.952 1570.6 174.192 1569.68 174.192ZM1567.42 168.928H1571.73C1571.66 168.203 1571.44 167.664 1571.06 167.312C1570.68 166.96 1570.21 166.784 1569.63 166.784C1569.04 166.784 1568.54 166.965 1568.16 167.328C1567.78 167.691 1567.53 168.224 1567.42 168.928ZM1575.66 174L1574.01 165.488H1575.71L1576.71 172.064L1577.83 166.688H1579.21L1580.33 172.064L1581.34 165.488H1583.03L1581.4 174H1579.58L1578.52 169.024L1577.47 174H1575.66ZM1584.88 170.08V168.592H1590.07V170.08H1584.88ZM1597.1 174.192C1596.5 174.192 1595.98 174.059 1595.53 173.792C1595.09 173.515 1594.74 173.147 1594.49 172.688L1594.45 174H1592.94V162.64H1594.56V166.688C1594.77 166.315 1595.1 165.989 1595.53 165.712C1595.98 165.435 1596.5 165.296 1597.1 165.296C1597.83 165.296 1598.46 165.477 1598.99 165.84C1599.52 166.192 1599.93 166.704 1600.22 167.376C1600.51 168.037 1600.65 168.827 1600.65 169.744C1600.65 170.661 1600.51 171.456 1600.22 172.128C1599.93 172.789 1599.52 173.301 1598.99 173.664C1598.46 174.016 1597.83 174.192 1597.1 174.192ZM1596.83 172.704C1597.5 172.704 1598.02 172.443 1598.4 171.92C1598.77 171.387 1598.96 170.661 1598.96 169.744C1598.96 168.816 1598.77 168.091 1598.4 167.568C1598.02 167.045 1597.51 166.784 1596.86 166.784C1596.38 166.784 1595.97 166.901 1595.63 167.136C1595.29 167.371 1595.02 167.707 1594.83 168.144C1594.65 168.581 1594.56 169.115 1594.56 169.744C1594.56 170.352 1594.65 170.88 1594.83 171.328C1595.02 171.765 1595.28 172.107 1595.61 172.352C1595.96 172.587 1596.36 172.704 1596.83 172.704ZM1604.09 174V165.488H1605.37L1605.51 167.664L1605.37 167.648C1605.47 166.912 1605.7 166.368 1606.06 166.016C1606.41 165.664 1606.89 165.488 1607.51 165.488H1609.32V166.896H1607.58C1607.17 166.896 1606.83 166.976 1606.55 167.136C1606.27 167.285 1606.06 167.515 1605.91 167.824C1605.77 168.123 1605.7 168.496 1605.7 168.944V174H1604.09ZM1601.93 174V172.64H1608.36V174H1601.93ZM1601.93 166.848V165.488H1605V166.848H1601.93ZM1613.19 174.192C1612.65 174.192 1612.17 174.096 1611.75 173.904C1611.32 173.712 1610.98 173.44 1610.72 173.088C1610.48 172.736 1610.35 172.325 1610.35 171.856C1610.35 171.131 1610.57 170.565 1611.01 170.16C1611.46 169.755 1612.13 169.467 1613.03 169.296L1615.78 168.72C1615.78 168.059 1615.63 167.563 1615.35 167.232C1615.06 166.901 1614.63 166.736 1614.05 166.736C1613.52 166.736 1613.1 166.859 1612.8 167.104C1612.5 167.349 1612.3 167.691 1612.19 168.128L1610.5 168.016C1610.66 167.205 1611.05 166.549 1611.67 166.048C1612.28 165.547 1613.08 165.296 1614.05 165.296C1615.14 165.296 1615.96 165.605 1616.53 166.224C1617.11 166.843 1617.39 167.696 1617.39 168.784V172.144C1617.39 172.336 1617.44 172.475 1617.52 172.56C1617.61 172.635 1617.73 172.672 1617.89 172.672H1618.37V174C1618.31 174.011 1618.2 174.021 1618.05 174.032C1617.91 174.043 1617.77 174.048 1617.63 174.048C1617.25 174.048 1616.92 173.984 1616.66 173.856C1616.39 173.728 1616.19 173.531 1616.05 173.264C1615.92 172.987 1615.85 172.64 1615.83 172.224H1616.08C1616.02 172.597 1615.85 172.933 1615.59 173.232C1615.32 173.531 1614.98 173.765 1614.56 173.936C1614.15 174.107 1613.69 174.192 1613.19 174.192ZM1613.43 172.864C1613.94 172.864 1614.37 172.773 1614.72 172.592C1615.07 172.411 1615.33 172.155 1615.51 171.824C1615.69 171.493 1615.78 171.104 1615.78 170.656V170L1613.41 170.48C1612.9 170.576 1612.54 170.725 1612.34 170.928C1612.13 171.131 1612.03 171.397 1612.03 171.728C1612.03 172.08 1612.16 172.357 1612.4 172.56C1612.65 172.763 1612.99 172.864 1613.43 172.864ZM1619.77 174V165.488H1621.26L1621.31 167.712L1621.13 167.584C1621.24 167.061 1621.42 166.635 1621.69 166.304C1621.97 165.963 1622.3 165.712 1622.7 165.552C1623.09 165.381 1623.52 165.296 1623.96 165.296C1624.6 165.296 1625.13 165.44 1625.55 165.728C1625.96 166.005 1626.28 166.389 1626.49 166.88C1626.7 167.36 1626.81 167.904 1626.81 168.512V174H1625.2V168.928C1625.2 168.192 1625.05 167.637 1624.76 167.264C1624.49 166.891 1624.06 166.704 1623.5 166.704C1623.1 166.704 1622.75 166.789 1622.43 166.96C1622.12 167.131 1621.87 167.387 1621.68 167.728C1621.48 168.059 1621.39 168.469 1621.39 168.96V174H1619.77ZM1632.44 174.192C1631.65 174.192 1630.95 174.011 1630.34 173.648C1629.74 173.275 1629.28 172.757 1628.95 172.096C1628.63 171.424 1628.47 170.64 1628.47 169.744C1628.47 168.848 1628.63 168.069 1628.95 167.408C1629.28 166.747 1629.74 166.229 1630.34 165.856C1630.95 165.483 1631.65 165.296 1632.44 165.296C1633.09 165.296 1633.67 165.419 1634.18 165.664C1634.69 165.899 1635.11 166.245 1635.44 166.704C1635.78 167.163 1635.99 167.712 1636.1 168.352L1634.45 168.464C1634.33 167.92 1634.09 167.504 1633.73 167.216C1633.38 166.928 1632.95 166.784 1632.45 166.784C1631.74 166.784 1631.17 167.051 1630.76 167.584C1630.35 168.107 1630.15 168.827 1630.15 169.744C1630.15 170.661 1630.35 171.387 1630.76 171.92C1631.17 172.443 1631.74 172.704 1632.45 172.704C1632.97 172.704 1633.4 172.555 1633.76 172.256C1634.14 171.947 1634.38 171.493 1634.5 170.896L1636.15 170.992C1636.04 171.643 1635.82 172.208 1635.48 172.688C1635.14 173.157 1634.7 173.525 1634.18 173.792C1633.67 174.059 1633.09 174.192 1632.44 174.192ZM1637.89 174V162.64H1639.5V167.344L1639.34 167.28C1639.45 166.821 1639.63 166.448 1639.89 166.16C1640.14 165.861 1640.45 165.643 1640.81 165.504C1641.18 165.365 1641.58 165.296 1642.01 165.296C1642.61 165.296 1643.11 165.435 1643.52 165.712C1643.93 165.979 1644.24 166.357 1644.45 166.848C1644.66 167.328 1644.77 167.883 1644.77 168.512V174H1643.15V168.928C1643.15 168.16 1643.01 167.6 1642.73 167.248C1642.47 166.885 1642.07 166.704 1641.53 166.704C1640.93 166.704 1640.44 166.896 1640.06 167.28C1639.69 167.664 1639.5 168.229 1639.5 168.976V174H1637.89Z" fill="black"/>
<rect x="1514" y="178" width="1" height="202" fill="#757575"/>
<rect width="103" height="19" transform="translate(1514 601)" fill="#757575"/>
<path d="M1521.15 618.4V607.488H1522.69L1522.72 609.424L1522.53 609.328C1522.74 608.667 1523.09 608.165 1523.57 607.824C1524.06 607.472 1524.63 607.296 1525.3 607.296C1526.12 607.296 1526.79 607.504 1527.31 607.92C1527.83 608.325 1528.22 608.864 1528.48 609.536C1528.74 610.208 1528.86 610.944 1528.86 611.744C1528.86 612.544 1528.74 613.28 1528.48 613.952C1528.22 614.624 1527.83 615.168 1527.31 615.584C1526.79 615.989 1526.12 616.192 1525.3 616.192C1524.86 616.192 1524.45 616.123 1524.08 615.984C1523.71 615.835 1523.39 615.627 1523.12 615.36C1522.86 615.083 1522.68 614.752 1522.56 614.368L1522.77 614.144V618.4H1521.15ZM1524.99 614.704C1525.67 614.704 1526.21 614.448 1526.59 613.936C1526.98 613.424 1527.17 612.693 1527.17 611.744C1527.17 610.795 1526.98 610.064 1526.59 609.552C1526.21 609.04 1525.67 608.784 1524.99 608.784C1524.54 608.784 1524.15 608.896 1523.82 609.12C1523.49 609.333 1523.23 609.659 1523.04 610.096C1522.86 610.533 1522.77 611.083 1522.77 611.744C1522.77 612.405 1522.86 612.955 1523.04 613.392C1523.22 613.829 1523.48 614.16 1523.81 614.384C1524.15 614.597 1524.54 614.704 1524.99 614.704ZM1532.46 616V607.488H1533.74L1533.88 609.664L1533.74 609.648C1533.84 608.912 1534.07 608.368 1534.43 608.016C1534.78 607.664 1535.26 607.488 1535.88 607.488H1537.69V608.896H1535.95C1535.54 608.896 1535.2 608.976 1534.92 609.136C1534.64 609.285 1534.43 609.515 1534.28 609.824C1534.14 610.123 1534.07 610.496 1534.07 610.944V616H1532.46ZM1530.3 616V614.64H1536.73V616H1530.3ZM1530.3 608.848V607.488H1533.37V608.848H1530.3ZM1542.71 616.192C1541.92 616.192 1541.22 616.011 1540.63 615.648C1540.04 615.285 1539.58 614.768 1539.25 614.096C1538.93 613.424 1538.77 612.64 1538.77 611.744C1538.77 610.837 1538.93 610.053 1539.25 609.392C1539.58 608.72 1540.04 608.203 1540.63 607.84C1541.22 607.477 1541.92 607.296 1542.71 607.296C1543.5 607.296 1544.18 607.477 1544.77 607.84C1545.37 608.203 1545.83 608.72 1546.15 609.392C1546.48 610.053 1546.64 610.837 1546.64 611.744C1546.64 612.64 1546.48 613.424 1546.15 614.096C1545.83 614.768 1545.37 615.285 1544.77 615.648C1544.18 616.011 1543.5 616.192 1542.71 616.192ZM1542.71 614.704C1543.42 614.704 1543.97 614.443 1544.36 613.92C1544.75 613.397 1544.95 612.672 1544.95 611.744C1544.95 610.816 1544.75 610.091 1544.36 609.568C1543.97 609.045 1543.42 608.784 1542.71 608.784C1541.99 608.784 1541.44 609.045 1541.04 609.568C1540.66 610.091 1540.47 610.816 1540.47 611.744C1540.47 612.672 1540.66 613.397 1541.04 613.92C1541.44 614.443 1541.99 614.704 1542.71 614.704ZM1550.99 616.192C1550.26 616.192 1549.63 616.016 1549.1 615.664C1548.57 615.301 1548.16 614.789 1547.87 614.128C1547.58 613.456 1547.44 612.661 1547.44 611.744C1547.44 610.827 1547.58 610.037 1547.87 609.376C1548.16 608.704 1548.57 608.192 1549.1 607.84C1549.63 607.477 1550.26 607.296 1550.99 607.296C1551.59 607.296 1552.11 607.435 1552.56 607.712C1553.01 607.989 1553.33 608.315 1553.53 608.688V604.64H1555.15V616H1553.65L1553.6 614.688C1553.36 615.147 1553.02 615.515 1552.57 615.792C1552.13 616.059 1551.6 616.192 1550.99 616.192ZM1551.26 614.704C1551.73 614.704 1552.13 614.587 1552.46 614.352C1552.8 614.107 1553.06 613.765 1553.25 613.328C1553.44 612.88 1553.53 612.352 1553.53 611.744C1553.53 611.115 1553.44 610.581 1553.25 610.144C1553.06 609.707 1552.8 609.371 1552.46 609.136C1552.12 608.901 1551.71 608.784 1551.23 608.784C1550.58 608.784 1550.07 609.045 1549.69 609.568C1549.32 610.091 1549.13 610.816 1549.13 611.744C1549.13 612.661 1549.32 613.387 1549.69 613.92C1550.07 614.443 1550.59 614.704 1551.26 614.704ZM1559.88 616.192C1559.06 616.192 1558.4 615.915 1557.91 615.36C1557.42 614.795 1557.17 614.005 1557.17 612.992V607.488H1558.79V612.576C1558.79 613.344 1558.92 613.904 1559.19 614.256C1559.46 614.608 1559.86 614.784 1560.41 614.784C1560.99 614.784 1561.46 614.587 1561.81 614.192C1562.18 613.797 1562.36 613.237 1562.36 612.512V607.488H1563.97V616H1562.45L1562.44 613.776L1562.66 613.872C1562.51 614.608 1562.2 615.179 1561.72 615.584C1561.24 615.989 1560.63 616.192 1559.88 616.192ZM1569.76 616.192C1568.97 616.192 1568.27 616.011 1567.66 615.648C1567.07 615.275 1566.6 614.757 1566.27 614.096C1565.95 613.424 1565.79 612.64 1565.79 611.744C1565.79 610.848 1565.95 610.069 1566.27 609.408C1566.6 608.747 1567.07 608.229 1567.66 607.856C1568.27 607.483 1568.97 607.296 1569.76 607.296C1570.41 607.296 1570.99 607.419 1571.5 607.664C1572.02 607.899 1572.44 608.245 1572.77 608.704C1573.1 609.163 1573.32 609.712 1573.42 610.352L1571.78 610.464C1571.65 609.92 1571.41 609.504 1571.06 609.216C1570.7 608.928 1570.28 608.784 1569.78 608.784C1569.06 608.784 1568.5 609.051 1568.08 609.584C1567.68 610.107 1567.47 610.827 1567.47 611.744C1567.47 612.661 1567.68 613.387 1568.08 613.92C1568.5 614.443 1569.06 614.704 1569.78 614.704C1570.29 614.704 1570.73 614.555 1571.09 614.256C1571.46 613.947 1571.71 613.493 1571.82 612.896L1573.47 612.992C1573.37 613.643 1573.14 614.208 1572.8 614.688C1572.46 615.157 1572.03 615.525 1571.5 615.792C1570.99 616.059 1570.41 616.192 1569.76 616.192ZM1579.74 616C1578.87 616 1578.23 615.803 1577.8 615.408C1577.39 615.003 1577.18 614.384 1577.18 613.552V605.488H1578.79V613.472C1578.79 613.867 1578.89 614.16 1579.07 614.352C1579.26 614.544 1579.54 614.64 1579.91 614.64H1582.11V616H1579.74ZM1574.49 608.848V607.488H1582.11V608.848H1574.49ZM1587.22 616V607.488H1588.85V616H1587.22ZM1583.89 616V614.64H1591.7V616H1583.89ZM1584.05 608.848V607.488H1588.71V608.848H1584.05ZM1587.12 606.256V604.576H1588.79V606.256H1587.12ZM1596.43 616.192C1595.64 616.192 1594.95 616.011 1594.35 615.648C1593.76 615.285 1593.3 614.768 1592.97 614.096C1592.65 613.424 1592.49 612.64 1592.49 611.744C1592.49 610.837 1592.65 610.053 1592.97 609.392C1593.3 608.72 1593.76 608.203 1594.35 607.84C1594.95 607.477 1595.64 607.296 1596.43 607.296C1597.22 607.296 1597.91 607.477 1598.49 607.84C1599.09 608.203 1599.55 608.72 1599.87 609.392C1600.2 610.053 1600.37 610.837 1600.37 611.744C1600.37 612.64 1600.2 613.424 1599.87 614.096C1599.55 614.768 1599.09 615.285 1598.49 615.648C1597.91 616.011 1597.22 616.192 1596.43 616.192ZM1596.43 614.704C1597.14 614.704 1597.69 614.443 1598.08 613.92C1598.47 613.397 1598.67 612.672 1598.67 611.744C1598.67 610.816 1598.47 610.091 1598.08 609.568C1597.69 609.045 1597.14 608.784 1596.43 608.784C1595.72 608.784 1595.16 609.045 1594.77 609.568C1594.38 610.091 1594.19 610.816 1594.19 611.744C1594.19 612.672 1594.38 613.397 1594.77 613.92C1595.16 614.443 1595.72 614.704 1596.43 614.704ZM1601.86 616V607.488H1603.35L1603.4 609.712L1603.22 609.584C1603.33 609.061 1603.52 608.635 1603.78 608.304C1604.06 607.963 1604.4 607.712 1604.79 607.552C1605.19 607.381 1605.61 607.296 1606.06 607.296C1606.7 607.296 1607.22 607.44 1607.64 607.728C1608.06 608.005 1608.37 608.389 1608.58 608.88C1608.8 609.36 1608.9 609.904 1608.9 610.512V616H1607.29V610.928C1607.29 610.192 1607.14 609.637 1606.86 609.264C1606.58 608.891 1606.16 608.704 1605.59 608.704C1605.2 608.704 1604.84 608.789 1604.52 608.96C1604.21 609.131 1603.96 609.387 1603.77 609.728C1603.58 610.059 1603.48 610.469 1603.48 610.96V616H1601.86Z" fill="black"/>
<rect x="1514" y="620" width="1" height="111" fill="#757575"/>
<path d="M356 453L356 694" stroke="#757575" stroke-dasharray="4.62 4.62"/>
<path d="M364.128 467.192C363.403 467.192 362.773 467.016 362.24 466.664C361.707 466.301 361.296 465.789 361.008 465.128C360.72 464.456 360.576 463.661 360.576 462.744C360.576 461.827 360.72 461.037 361.008 460.376C361.296 459.704 361.707 459.192 362.24 458.84C362.773 458.477 363.403 458.296 364.128 458.296C364.725 458.296 365.248 458.435 365.696 458.712C366.144 458.989 366.469 459.315 366.672 459.688V455.64H368.288V467H366.784L366.736 465.688C366.501 466.147 366.16 466.515 365.712 466.792C365.264 467.059 364.736 467.192 364.128 467.192ZM364.4 465.704C364.869 465.704 365.269 465.587 365.6 465.352C365.941 465.107 366.203 464.765 366.384 464.328C366.576 463.88 366.672 463.352 366.672 462.744C366.672 462.115 366.576 461.581 366.384 461.144C366.203 460.707 365.941 460.371 365.6 460.136C365.259 459.901 364.848 459.784 364.368 459.784C363.717 459.784 363.205 460.045 362.832 460.568C362.459 461.091 362.272 461.816 362.272 462.744C362.272 463.661 362.459 464.387 362.832 464.92C363.205 465.443 363.728 465.704 364.4 465.704ZM373.866 467.192C373.066 467.192 372.367 467.011 371.77 466.648C371.183 466.285 370.724 465.768 370.394 465.096C370.074 464.424 369.914 463.64 369.914 462.744C369.914 461.848 370.074 461.069 370.394 460.408C370.724 459.747 371.178 459.229 371.754 458.856C372.34 458.483 373.028 458.296 373.818 458.296C374.575 458.296 375.242 458.477 375.818 458.84C376.394 459.192 376.842 459.704 377.162 460.376C377.492 461.037 377.658 461.837 377.658 462.776V463.224H371.61C371.663 464.035 371.887 464.653 372.282 465.08C372.687 465.496 373.22 465.704 373.882 465.704C374.383 465.704 374.799 465.587 375.13 465.352C375.46 465.107 375.69 464.792 375.818 464.408L377.514 464.52C377.268 465.331 376.826 465.981 376.186 466.472C375.556 466.952 374.783 467.192 373.866 467.192ZM371.61 461.928H375.914C375.85 461.203 375.626 460.664 375.242 460.312C374.868 459.96 374.394 459.784 373.818 459.784C373.22 459.784 372.73 459.965 372.346 460.328C371.962 460.691 371.716 461.224 371.61 461.928ZM381.699 467L378.627 458.488H380.371L382.707 465.288L385.043 458.488H386.787L383.715 467H381.699ZM400.359 467V458.488H401.991V467H400.359ZM397.031 467V465.64H404.839V467H397.031ZM397.191 459.848V458.488H401.847V459.848H397.191ZM400.263 457.256V455.576H401.927V457.256H400.263ZM406.049 467V458.488H407.537L407.585 460.712L407.409 460.584C407.515 460.061 407.702 459.635 407.969 459.304C408.246 458.963 408.582 458.712 408.977 458.552C409.371 458.381 409.793 458.296 410.241 458.296C410.881 458.296 411.409 458.44 411.825 458.728C412.241 459.005 412.555 459.389 412.769 459.88C412.982 460.36 413.089 460.904 413.089 461.512V467H411.473V461.928C411.473 461.192 411.329 460.637 411.041 460.264C410.763 459.891 410.342 459.704 409.777 459.704C409.382 459.704 409.025 459.789 408.705 459.96C408.395 460.131 408.145 460.387 407.953 460.728C407.761 461.059 407.665 461.469 407.665 461.96V467H406.049ZM423.828 469.4V458.488H425.364L425.396 460.424L425.204 460.328C425.418 459.667 425.764 459.165 426.244 458.824C426.735 458.472 427.311 458.296 427.972 458.296C428.794 458.296 429.466 458.504 429.988 458.92C430.511 459.325 430.9 459.864 431.156 460.536C431.412 461.208 431.54 461.944 431.54 462.744C431.54 463.544 431.412 464.28 431.156 464.952C430.9 465.624 430.511 466.168 429.988 466.584C429.466 466.989 428.794 467.192 427.972 467.192C427.535 467.192 427.13 467.123 426.756 466.984C426.383 466.835 426.063 466.627 425.796 466.36C425.54 466.083 425.354 465.752 425.236 465.368L425.444 465.144V469.4H423.828ZM427.668 465.704C428.351 465.704 428.884 465.448 429.268 464.936C429.652 464.424 429.844 463.693 429.844 462.744C429.844 461.795 429.652 461.064 429.268 460.552C428.884 460.04 428.351 459.784 427.668 459.784C427.22 459.784 426.831 459.896 426.5 460.12C426.17 460.333 425.908 460.659 425.716 461.096C425.535 461.533 425.444 462.083 425.444 462.744C425.444 463.405 425.535 463.955 425.716 464.392C425.898 464.829 426.154 465.16 426.484 465.384C426.826 465.597 427.22 465.704 427.668 465.704ZM435.134 467V458.488H436.414L436.558 460.664L436.414 460.648C436.521 459.912 436.75 459.368 437.102 459.016C437.454 458.664 437.939 458.488 438.558 458.488H440.366V459.896H438.622C438.217 459.896 437.875 459.976 437.598 460.136C437.321 460.285 437.107 460.515 436.958 460.824C436.819 461.123 436.75 461.496 436.75 461.944V467H435.134ZM432.974 467V465.64H439.406V467H432.974ZM432.974 459.848V458.488H436.046V459.848H432.974ZM445.384 467.192C444.594 467.192 443.901 467.011 443.304 466.648C442.717 466.285 442.258 465.768 441.928 465.096C441.608 464.424 441.448 463.64 441.448 462.744C441.448 461.837 441.608 461.053 441.928 460.392C442.258 459.72 442.717 459.203 443.304 458.84C443.901 458.477 444.594 458.296 445.384 458.296C446.173 458.296 446.861 458.477 447.448 458.84C448.045 459.203 448.504 459.72 448.824 460.392C449.154 461.053 449.32 461.837 449.32 462.744C449.32 463.64 449.154 464.424 448.824 465.096C448.504 465.768 448.045 466.285 447.448 466.648C446.861 467.011 446.173 467.192 445.384 467.192ZM445.384 465.704C446.098 465.704 446.648 465.443 447.032 464.92C447.426 464.397 447.624 463.672 447.624 462.744C447.624 461.816 447.426 461.091 447.032 460.568C446.648 460.045 446.098 459.784 445.384 459.784C444.669 459.784 444.114 460.045 443.72 460.568C443.336 461.091 443.144 461.816 443.144 462.744C443.144 463.672 443.336 464.397 443.72 464.92C444.114 465.443 444.669 465.704 445.384 465.704ZM454.289 469.592C453.649 469.592 453.079 469.491 452.577 469.288C452.076 469.085 451.66 468.797 451.329 468.424C451.009 468.051 450.785 467.619 450.657 467.128L452.353 467.016C452.471 467.368 452.679 467.645 452.977 467.848C453.276 468.051 453.713 468.152 454.289 468.152C455.004 468.152 455.548 468.003 455.921 467.704C456.305 467.405 456.497 466.963 456.497 466.376V465.128C456.295 465.565 455.975 465.912 455.537 466.168C455.111 466.424 454.615 466.552 454.049 466.552C453.345 466.552 452.716 466.376 452.161 466.024C451.607 465.672 451.175 465.192 450.865 464.584C450.556 463.965 450.401 463.256 450.401 462.456C450.401 461.624 450.551 460.899 450.849 460.28C451.159 459.661 451.585 459.176 452.129 458.824C452.673 458.472 453.292 458.296 453.985 458.296C454.583 458.296 455.105 458.435 455.553 458.712C456.012 458.979 456.343 459.347 456.545 459.816L456.561 458.488H458.113V466.264C458.113 466.979 457.959 467.581 457.649 468.072C457.34 468.573 456.897 468.952 456.321 469.208C455.756 469.464 455.079 469.592 454.289 469.592ZM454.273 465.112C454.935 465.112 455.468 464.877 455.873 464.408C456.279 463.939 456.487 463.283 456.497 462.44C456.508 461.864 456.417 461.379 456.225 460.984C456.044 460.579 455.783 460.269 455.441 460.056C455.111 459.843 454.721 459.736 454.273 459.736C453.58 459.736 453.041 459.976 452.657 460.456C452.284 460.925 452.097 461.587 452.097 462.44C452.097 463.283 452.289 463.939 452.673 464.408C453.068 464.877 453.601 465.112 454.273 465.112ZM461.995 467V458.488H463.275L463.419 460.664L463.275 460.648C463.382 459.912 463.611 459.368 463.963 459.016C464.315 458.664 464.801 458.488 465.419 458.488H467.227V459.896H465.483C465.078 459.896 464.737 459.976 464.459 460.136C464.182 460.285 463.969 460.515 463.819 460.824C463.681 461.123 463.611 461.496 463.611 461.944V467H461.995ZM459.835 467V465.64H466.267V467H459.835ZM459.835 459.848V458.488H462.907V459.848H459.835ZM472.357 467.192C471.557 467.192 470.858 467.011 470.261 466.648C469.674 466.285 469.216 465.768 468.885 465.096C468.565 464.424 468.405 463.64 468.405 462.744C468.405 461.848 468.565 461.069 468.885 460.408C469.216 459.747 469.669 459.229 470.245 458.856C470.832 458.483 471.52 458.296 472.309 458.296C473.066 458.296 473.733 458.477 474.309 458.84C474.885 459.192 475.333 459.704 475.653 460.376C475.984 461.037 476.149 461.837 476.149 462.776V463.224H470.101C470.154 464.035 470.378 464.653 470.773 465.08C471.178 465.496 471.712 465.704 472.373 465.704C472.874 465.704 473.29 465.587 473.621 465.352C473.952 465.107 474.181 464.792 474.309 464.408L476.005 464.52C475.76 465.331 475.317 465.981 474.677 466.472C474.048 466.952 473.274 467.192 472.357 467.192ZM470.101 461.928H474.405C474.341 461.203 474.117 460.664 473.733 460.312C473.36 459.96 472.885 459.784 472.309 459.784C471.712 459.784 471.221 459.965 470.837 460.328C470.453 460.691 470.208 461.224 470.101 461.928ZM481.327 467.192C480.569 467.192 479.919 467.064 479.375 466.808C478.831 466.552 478.409 466.211 478.111 465.784C477.812 465.347 477.641 464.861 477.599 464.328L479.247 464.232C479.332 464.691 479.545 465.059 479.887 465.336C480.228 465.603 480.713 465.736 481.343 465.736C481.929 465.736 482.377 465.656 482.687 465.496C482.996 465.336 483.151 465.085 483.151 464.744C483.151 464.531 483.097 464.355 482.991 464.216C482.884 464.067 482.681 463.944 482.383 463.848C482.095 463.741 481.668 463.635 481.103 463.528C480.26 463.368 479.599 463.181 479.119 462.968C478.649 462.744 478.313 462.467 478.111 462.136C477.908 461.795 477.807 461.384 477.807 460.904C477.807 460.413 477.929 459.971 478.175 459.576C478.431 459.181 478.804 458.872 479.295 458.648C479.785 458.413 480.393 458.296 481.119 458.296C481.876 458.296 482.5 458.429 482.991 458.696C483.481 458.952 483.865 459.288 484.143 459.704C484.42 460.12 484.596 460.573 484.671 461.064L483.023 461.16C482.959 460.883 482.847 460.643 482.687 460.44C482.527 460.227 482.313 460.061 482.047 459.944C481.78 459.816 481.471 459.752 481.119 459.752C480.553 459.752 480.137 459.864 479.871 460.088C479.604 460.312 479.471 460.584 479.471 460.904C479.471 461.16 479.535 461.368 479.663 461.528C479.791 461.677 480.004 461.805 480.303 461.912C480.601 462.008 481.007 462.104 481.519 462.2C482.383 462.339 483.049 462.52 483.519 462.744C483.988 462.957 484.319 463.224 484.511 463.544C484.703 463.864 484.799 464.259 484.799 464.728C484.799 465.24 484.649 465.683 484.351 466.056C484.063 466.419 483.657 466.701 483.135 466.904C482.623 467.096 482.02 467.192 481.327 467.192ZM490.281 467.192C489.523 467.192 488.873 467.064 488.329 466.808C487.785 466.552 487.363 466.211 487.065 465.784C486.766 465.347 486.595 464.861 486.553 464.328L488.201 464.232C488.286 464.691 488.499 465.059 488.841 465.336C489.182 465.603 489.667 465.736 490.297 465.736C490.883 465.736 491.331 465.656 491.641 465.496C491.95 465.336 492.105 465.085 492.105 464.744C492.105 464.531 492.051 464.355 491.945 464.216C491.838 464.067 491.635 463.944 491.337 463.848C491.049 463.741 490.622 463.635 490.057 463.528C489.214 463.368 488.553 463.181 488.073 462.968C487.603 462.744 487.267 462.467 487.065 462.136C486.862 461.795 486.761 461.384 486.761 460.904C486.761 460.413 486.883 459.971 487.129 459.576C487.385 459.181 487.758 458.872 488.249 458.648C488.739 458.413 489.347 458.296 490.073 458.296C490.83 458.296 491.454 458.429 491.945 458.696C492.435 458.952 492.819 459.288 493.097 459.704C493.374 460.12 493.55 460.573 493.625 461.064L491.977 461.16C491.913 460.883 491.801 460.643 491.641 460.44C491.481 460.227 491.267 460.061 491.001 459.944C490.734 459.816 490.425 459.752 490.073 459.752C489.507 459.752 489.091 459.864 488.825 460.088C488.558 460.312 488.425 460.584 488.425 460.904C488.425 461.16 488.489 461.368 488.617 461.528C488.745 461.677 488.958 461.805 489.257 461.912C489.555 462.008 489.961 462.104 490.473 462.2C491.337 462.339 492.003 462.52 492.473 462.744C492.942 462.957 493.273 463.224 493.465 463.544C493.657 463.864 493.753 464.259 493.753 464.728C493.753 465.24 493.603 465.683 493.305 466.056C493.017 466.419 492.611 466.701 492.089 466.904C491.577 467.096 490.974 467.192 490.281 467.192Z" fill="#757575"/>
<path d="M1220 254L1220 538" stroke="#757575" stroke-dasharray="4.62 4.62"/>
<path d="M1225.38 268V256.64H1228.9C1229.69 256.64 1230.37 256.784 1230.96 257.072C1231.56 257.36 1232.02 257.771 1232.34 258.304C1232.67 258.827 1232.83 259.451 1232.83 260.176C1232.83 260.901 1232.67 261.531 1232.34 262.064C1232.02 262.587 1231.56 262.992 1230.96 263.28C1230.37 263.557 1229.69 263.696 1228.9 263.696H1227.06V268H1225.38ZM1227.06 262.112H1228.72C1229.53 262.112 1230.13 261.947 1230.51 261.616C1230.9 261.285 1231.09 260.805 1231.09 260.176C1231.09 259.536 1230.9 259.051 1230.51 258.72C1230.13 258.389 1229.53 258.224 1228.72 258.224H1227.06V262.112ZM1234.03 268V256.64H1237.56C1238.77 256.64 1239.71 256.944 1240.39 257.552C1241.09 258.16 1241.43 258.987 1241.43 260.032C1241.43 260.576 1241.31 261.056 1241.07 261.472C1240.83 261.888 1240.52 262.213 1240.12 262.448C1239.74 262.683 1239.33 262.816 1238.89 262.848L1238.83 262.656C1239.62 262.688 1240.2 262.869 1240.59 263.2C1240.98 263.52 1241.21 264.043 1241.27 264.768L1241.56 268H1239.88L1239.63 265.088C1239.59 264.715 1239.51 264.416 1239.39 264.192C1239.26 263.968 1239.06 263.808 1238.79 263.712C1238.53 263.616 1238.16 263.568 1237.69 263.568H1235.71V268H1234.03ZM1235.71 262H1237.53C1238.23 262 1238.77 261.835 1239.15 261.504C1239.52 261.173 1239.71 260.709 1239.71 260.112C1239.71 259.504 1239.52 259.04 1239.15 258.72C1238.77 258.389 1238.23 258.224 1237.53 258.224H1235.71V262ZM1251.44 268V259.488H1252.85L1252.91 261.408L1252.73 261.36C1252.84 260.709 1253.05 260.203 1253.36 259.84C1253.68 259.477 1254.08 259.296 1254.56 259.296C1255.07 259.296 1255.45 259.477 1255.71 259.84C1255.98 260.203 1256.14 260.741 1256.21 261.456H1256.03C1256.13 260.773 1256.34 260.245 1256.69 259.872C1257.03 259.488 1257.45 259.296 1257.97 259.296C1258.64 259.296 1259.12 259.531 1259.42 260C1259.73 260.459 1259.89 261.211 1259.89 262.256V268H1258.32V262.528C1258.32 261.845 1258.24 261.371 1258.09 261.104C1257.95 260.837 1257.74 260.704 1257.44 260.704C1257.25 260.704 1257.07 260.768 1256.91 260.896C1256.76 261.024 1256.64 261.227 1256.56 261.504C1256.47 261.771 1256.43 262.123 1256.43 262.56V268H1254.89V262.528C1254.89 261.867 1254.82 261.397 1254.69 261.12C1254.56 260.843 1254.34 260.704 1254.03 260.704C1253.83 260.704 1253.65 260.768 1253.5 260.896C1253.35 261.024 1253.23 261.227 1253.13 261.504C1253.05 261.771 1253.01 262.123 1253.01 262.56V268H1251.44ZM1264.73 268.192C1263.93 268.192 1263.23 268.011 1262.63 267.648C1262.04 267.285 1261.59 266.768 1261.26 266.096C1260.94 265.424 1260.78 264.64 1260.78 263.744C1260.78 262.848 1260.94 262.069 1261.26 261.408C1261.59 260.747 1262.04 260.229 1262.62 259.856C1263.2 259.483 1263.89 259.296 1264.68 259.296C1265.44 259.296 1266.1 259.477 1266.68 259.84C1267.26 260.192 1267.7 260.704 1268.02 261.376C1268.35 262.037 1268.52 262.837 1268.52 263.776V264.224H1262.47C1262.52 265.035 1262.75 265.653 1263.14 266.08C1263.55 266.496 1264.08 266.704 1264.74 266.704C1265.24 266.704 1265.66 266.587 1265.99 266.352C1266.32 266.107 1266.55 265.792 1266.68 265.408L1268.38 265.52C1268.13 266.331 1267.69 266.981 1267.05 267.472C1266.42 267.952 1265.64 268.192 1264.73 268.192ZM1262.47 262.928H1266.78C1266.71 262.203 1266.49 261.664 1266.1 261.312C1265.73 260.96 1265.26 260.784 1264.68 260.784C1264.08 260.784 1263.59 260.965 1263.21 261.328C1262.82 261.691 1262.58 262.224 1262.47 262.928ZM1272.27 268V259.488H1273.55L1273.7 261.664L1273.55 261.648C1273.66 260.912 1273.89 260.368 1274.24 260.016C1274.59 259.664 1275.08 259.488 1275.7 259.488H1277.5V260.896H1275.76C1275.36 260.896 1275.01 260.976 1274.74 261.136C1274.46 261.285 1274.25 261.515 1274.1 261.824C1273.96 262.123 1273.89 262.496 1273.89 262.944V268H1272.27ZM1270.11 268V266.64H1276.54V268H1270.11ZM1270.11 260.848V259.488H1273.18V260.848H1270.11ZM1282.47 270.592C1281.83 270.592 1281.26 270.491 1280.76 270.288C1280.26 270.085 1279.85 269.797 1279.51 269.424C1279.19 269.051 1278.97 268.619 1278.84 268.128L1280.54 268.016C1280.66 268.368 1280.86 268.645 1281.16 268.848C1281.46 269.051 1281.9 269.152 1282.47 269.152C1283.19 269.152 1283.73 269.003 1284.11 268.704C1284.49 268.405 1284.68 267.963 1284.68 267.376V266.128C1284.48 266.565 1284.16 266.912 1283.72 267.168C1283.3 267.424 1282.8 267.552 1282.23 267.552C1281.53 267.552 1280.9 267.376 1280.35 267.024C1279.79 266.672 1279.36 266.192 1279.05 265.584C1278.74 264.965 1278.59 264.256 1278.59 263.456C1278.59 262.624 1278.74 261.899 1279.03 261.28C1279.34 260.661 1279.77 260.176 1280.31 259.824C1280.86 259.472 1281.48 259.296 1282.17 259.296C1282.77 259.296 1283.29 259.435 1283.74 259.712C1284.2 259.979 1284.53 260.347 1284.73 260.816L1284.75 259.488H1286.3V267.264C1286.3 267.979 1286.14 268.581 1285.83 269.072C1285.53 269.573 1285.08 269.952 1284.51 270.208C1283.94 270.464 1283.26 270.592 1282.47 270.592ZM1282.46 266.112C1283.12 266.112 1283.65 265.877 1284.06 265.408C1284.46 264.939 1284.67 264.283 1284.68 263.44C1284.69 262.864 1284.6 262.379 1284.41 261.984C1284.23 261.579 1283.97 261.269 1283.63 261.056C1283.3 260.843 1282.91 260.736 1282.46 260.736C1281.77 260.736 1281.23 260.976 1280.84 261.456C1280.47 261.925 1280.28 262.587 1280.28 263.44C1280.28 264.283 1280.47 264.939 1280.86 265.408C1281.25 265.877 1281.79 266.112 1282.46 266.112ZM1291.59 268.192C1290.79 268.192 1290.09 268.011 1289.49 267.648C1288.91 267.285 1288.45 266.768 1288.12 266.096C1287.8 265.424 1287.64 264.64 1287.64 263.744C1287.64 262.848 1287.8 262.069 1288.12 261.408C1288.45 260.747 1288.9 260.229 1289.48 259.856C1290.06 259.483 1290.75 259.296 1291.54 259.296C1292.3 259.296 1292.96 259.477 1293.54 259.84C1294.12 260.192 1294.56 260.704 1294.88 261.376C1295.22 262.037 1295.38 262.837 1295.38 263.776V264.224H1289.33C1289.39 265.035 1289.61 265.653 1290 266.08C1290.41 266.496 1290.94 266.704 1291.6 266.704C1292.11 266.704 1292.52 266.587 1292.85 266.352C1293.18 266.107 1293.41 265.792 1293.54 265.408L1295.24 265.52C1294.99 266.331 1294.55 266.981 1293.91 267.472C1293.28 267.952 1292.51 268.192 1291.59 268.192ZM1289.33 262.928H1293.64C1293.57 262.203 1293.35 261.664 1292.96 261.312C1292.59 260.96 1292.12 260.784 1291.54 260.784C1290.94 260.784 1290.45 260.965 1290.07 261.328C1289.68 261.691 1289.44 262.224 1289.33 262.928ZM1299.76 268.192C1299.03 268.192 1298.4 268.016 1297.87 267.664C1297.34 267.301 1296.93 266.789 1296.64 266.128C1296.35 265.456 1296.21 264.661 1296.21 263.744C1296.21 262.827 1296.35 262.037 1296.64 261.376C1296.93 260.704 1297.34 260.192 1297.87 259.84C1298.4 259.477 1299.03 259.296 1299.76 259.296C1300.36 259.296 1300.88 259.435 1301.33 259.712C1301.77 259.989 1302.1 260.315 1302.3 260.688V256.64H1303.92V268H1302.41L1302.37 266.688C1302.13 267.147 1301.79 267.515 1301.34 267.792C1300.89 268.059 1300.37 268.192 1299.76 268.192ZM1300.03 266.704C1300.5 266.704 1300.9 266.587 1301.23 266.352C1301.57 266.107 1301.83 265.765 1302.01 265.328C1302.21 264.88 1302.3 264.352 1302.3 263.744C1302.3 263.115 1302.21 262.581 1302.01 262.144C1301.83 261.707 1301.57 261.371 1301.23 261.136C1300.89 260.901 1300.48 260.784 1300 260.784C1299.35 260.784 1298.84 261.045 1298.46 261.568C1298.09 262.091 1297.9 262.816 1297.9 263.744C1297.9 264.661 1298.09 265.387 1298.46 265.92C1298.84 266.443 1299.36 266.704 1300.03 266.704Z" fill="#757575"/>
<rect x="924.5" y="599.5" width="227" height="162" stroke="#424242"/>
<rect width="138" height="19" transform="translate(924 580.781)" fill="#424242"/>
<path d="M935.472 595.973C934.875 595.973 934.352 595.84 933.904 595.573C933.456 595.296 933.109 594.928 932.864 594.469L932.816 595.781H931.312V584.421H932.928V588.469C933.141 588.096 933.467 587.771 933.904 587.493C934.352 587.216 934.875 587.077 935.472 587.077C936.197 587.077 936.827 587.259 937.36 587.621C937.893 587.973 938.304 588.485 938.592 589.157C938.88 589.819 939.024 590.608 939.024 591.525C939.024 592.443 938.88 593.237 938.592 593.909C938.304 594.571 937.893 595.083 937.36 595.445C936.827 595.797 936.197 595.973 935.472 595.973ZM935.2 594.485C935.872 594.485 936.395 594.224 936.768 593.701C937.141 593.168 937.328 592.443 937.328 591.525C937.328 590.597 937.141 589.872 936.768 589.349C936.395 588.827 935.883 588.565 935.232 588.565C934.752 588.565 934.341 588.683 934 588.917C933.659 589.152 933.392 589.488 933.2 589.925C933.019 590.363 932.928 590.896 932.928 591.525C932.928 592.133 933.019 592.661 933.2 593.109C933.392 593.547 933.653 593.888 933.984 594.133C934.325 594.368 934.731 594.485 935.2 594.485ZM942.458 595.781V587.269H943.738L943.882 589.445L943.738 589.429C943.844 588.693 944.074 588.149 944.426 587.797C944.778 587.445 945.263 587.269 945.882 587.269H947.69V588.677H945.946C945.54 588.677 945.199 588.757 944.922 588.917C944.644 589.067 944.431 589.296 944.282 589.605C944.143 589.904 944.074 590.277 944.074 590.725V595.781H942.458ZM940.298 595.781V594.421H946.73V595.781H940.298ZM940.298 588.629V587.269H943.37V588.629H940.298ZM951.555 595.973C951.022 595.973 950.542 595.877 950.115 595.685C949.689 595.493 949.347 595.221 949.091 594.869C948.846 594.517 948.723 594.107 948.723 593.637C948.723 592.912 948.942 592.347 949.379 591.941C949.827 591.536 950.499 591.248 951.395 591.077L954.147 590.501C954.147 589.84 954.003 589.344 953.715 589.013C953.427 588.683 952.995 588.517 952.419 588.517C951.886 588.517 951.47 588.64 951.171 588.885C950.873 589.131 950.67 589.472 950.563 589.909L948.867 589.797C949.027 588.987 949.417 588.331 950.035 587.829C950.654 587.328 951.449 587.077 952.419 587.077C953.507 587.077 954.334 587.387 954.899 588.005C955.475 588.624 955.763 589.477 955.763 590.565V593.925C955.763 594.117 955.806 594.256 955.891 594.341C955.977 594.416 956.099 594.453 956.259 594.453H956.74V595.781C956.675 595.792 956.569 595.803 956.419 595.813C956.281 595.824 956.142 595.829 956.003 595.829C955.619 595.829 955.294 595.765 955.027 595.637C954.761 595.509 954.558 595.312 954.419 595.045C954.291 594.768 954.217 594.421 954.195 594.005H954.451C954.387 594.379 954.222 594.715 953.955 595.013C953.689 595.312 953.347 595.547 952.931 595.717C952.515 595.888 952.057 595.973 951.555 595.973ZM951.795 594.645C952.307 594.645 952.739 594.555 953.091 594.373C953.443 594.192 953.705 593.936 953.875 593.605C954.057 593.275 954.147 592.885 954.147 592.437V591.781L951.779 592.261C951.267 592.357 950.91 592.507 950.707 592.709C950.505 592.912 950.403 593.179 950.403 593.509C950.403 593.861 950.526 594.139 950.771 594.341C951.017 594.544 951.358 594.645 951.795 594.645ZM958.141 595.781V587.269H959.629L959.677 589.493L959.501 589.365C959.608 588.843 959.795 588.416 960.061 588.085C960.339 587.744 960.675 587.493 961.069 587.333C961.464 587.163 961.885 587.077 962.333 587.077C962.973 587.077 963.501 587.221 963.917 587.509C964.333 587.787 964.648 588.171 964.861 588.661C965.075 589.141 965.181 589.685 965.181 590.293V595.781H963.565V590.709C963.565 589.973 963.421 589.419 963.133 589.045C962.856 588.672 962.435 588.485 961.869 588.485C961.475 588.485 961.117 588.571 960.797 588.741C960.488 588.912 960.237 589.168 960.045 589.509C959.853 589.84 959.757 590.251 959.757 590.741V595.781H958.141ZM970.807 595.973C970.018 595.973 969.319 595.792 968.711 595.429C968.114 595.056 967.65 594.539 967.319 593.877C966.999 593.205 966.839 592.421 966.839 591.525C966.839 590.629 966.999 589.851 967.319 589.189C967.65 588.528 968.114 588.011 968.711 587.637C969.319 587.264 970.018 587.077 970.807 587.077C971.458 587.077 972.039 587.2 972.551 587.445C973.063 587.68 973.484 588.027 973.815 588.485C974.146 588.944 974.364 589.493 974.471 590.133L972.823 590.245C972.695 589.701 972.455 589.285 972.103 588.997C971.751 588.709 971.324 588.565 970.823 588.565C970.108 588.565 969.543 588.832 969.127 589.365C968.722 589.888 968.519 590.608 968.519 591.525C968.519 592.443 968.722 593.168 969.127 593.701C969.543 594.224 970.108 594.485 970.823 594.485C971.335 594.485 971.772 594.336 972.135 594.037C972.508 593.728 972.754 593.275 972.871 592.677L974.519 592.773C974.412 593.424 974.188 593.989 973.847 594.469C973.506 594.939 973.074 595.307 972.551 595.573C972.039 595.84 971.458 595.973 970.807 595.973ZM976.257 595.781V584.421H977.873V589.125L977.713 589.061C977.819 588.603 978.001 588.229 978.257 587.941C978.513 587.643 978.822 587.424 979.185 587.285C979.547 587.147 979.947 587.077 980.385 587.077C980.982 587.077 981.483 587.216 981.889 587.493C982.305 587.76 982.614 588.139 982.817 588.629C983.03 589.109 983.137 589.664 983.137 590.293V595.781H981.521V590.709C981.521 589.941 981.382 589.381 981.105 589.029C980.838 588.667 980.438 588.485 979.905 588.485C979.297 588.485 978.806 588.677 978.433 589.061C978.059 589.445 977.873 590.011 977.873 590.757V595.781H976.257ZM996.804 595.973C996.079 595.973 995.45 595.797 994.916 595.445C994.383 595.083 993.972 594.571 993.684 593.909C993.396 593.237 993.252 592.443 993.252 591.525C993.252 590.608 993.396 589.819 993.684 589.157C993.972 588.485 994.383 587.973 994.916 587.621C995.45 587.259 996.079 587.077 996.804 587.077C997.402 587.077 997.924 587.216 998.372 587.493C998.82 587.771 999.146 588.096 999.348 588.469V584.421H1000.96V595.781H999.46L999.412 594.469C999.178 594.928 998.836 595.296 998.388 595.573C997.94 595.84 997.412 595.973 996.804 595.973ZM997.076 594.485C997.546 594.485 997.946 594.368 998.276 594.133C998.618 593.888 998.879 593.547 999.06 593.109C999.252 592.661 999.348 592.133 999.348 591.525C999.348 590.896 999.252 590.363 999.06 589.925C998.879 589.488 998.618 589.152 998.276 588.917C997.935 588.683 997.524 588.565 997.044 588.565C996.394 588.565 995.882 588.827 995.508 589.349C995.135 589.872 994.948 590.597 994.948 591.525C994.948 592.443 995.135 593.168 995.508 593.701C995.882 594.224 996.404 594.485 997.076 594.485ZM1006.54 595.973C1005.74 595.973 1005.04 595.792 1004.45 595.429C1003.86 595.067 1003.4 594.549 1003.07 593.877C1002.75 593.205 1002.59 592.421 1002.59 591.525C1002.59 590.629 1002.75 589.851 1003.07 589.189C1003.4 588.528 1003.85 588.011 1004.43 587.637C1005.02 587.264 1005.7 587.077 1006.49 587.077C1007.25 587.077 1007.92 587.259 1008.49 587.621C1009.07 587.973 1009.52 588.485 1009.84 589.157C1010.17 589.819 1010.33 590.619 1010.33 591.557V592.005H1004.29C1004.34 592.816 1004.56 593.435 1004.96 593.861C1005.36 594.277 1005.9 594.485 1006.56 594.485C1007.06 594.485 1007.48 594.368 1007.81 594.133C1008.14 593.888 1008.37 593.573 1008.49 593.189L1010.19 593.301C1009.94 594.112 1009.5 594.763 1008.86 595.253C1008.23 595.733 1007.46 595.973 1006.54 595.973ZM1004.29 590.709H1008.59C1008.53 589.984 1008.3 589.445 1007.92 589.093C1007.54 588.741 1007.07 588.565 1006.49 588.565C1005.9 588.565 1005.41 588.747 1005.02 589.109C1004.64 589.472 1004.39 590.005 1004.29 590.709ZM1014.81 595.781V586.837C1014.81 586.507 1014.71 586.251 1014.52 586.069C1014.34 585.877 1014.08 585.781 1013.75 585.781H1011.8V584.421H1013.93C1014.75 584.421 1015.37 584.635 1015.78 585.061C1016.21 585.477 1016.42 586.096 1016.42 586.917V595.781H1014.81ZM1011.48 595.781V594.421H1019.29V595.781H1011.48ZM1024.45 595.973C1023.65 595.973 1022.95 595.792 1022.35 595.429C1021.77 595.067 1021.31 594.549 1020.98 593.877C1020.66 593.205 1020.5 592.421 1020.5 591.525C1020.5 590.629 1020.66 589.851 1020.98 589.189C1021.31 588.528 1021.76 588.011 1022.34 587.637C1022.92 587.264 1023.61 587.077 1024.4 587.077C1025.16 587.077 1025.83 587.259 1026.4 587.621C1026.98 587.973 1027.43 588.485 1027.75 589.157C1028.08 589.819 1028.24 590.619 1028.24 591.557V592.005H1022.19C1022.25 592.816 1022.47 593.435 1022.87 593.861C1023.27 594.277 1023.8 594.485 1024.47 594.485C1024.97 594.485 1025.38 594.368 1025.71 594.133C1026.04 593.888 1026.27 593.573 1026.4 593.189L1028.1 593.301C1027.85 594.112 1027.41 594.763 1026.77 595.253C1026.14 595.733 1025.37 595.973 1024.45 595.973ZM1022.19 590.709H1026.5C1026.43 589.984 1026.21 589.445 1025.83 589.093C1025.45 588.741 1024.98 588.565 1024.4 588.565C1023.8 588.565 1023.31 588.747 1022.93 589.109C1022.55 589.472 1022.3 590.005 1022.19 590.709ZM1034.51 595.781C1033.64 595.781 1033 595.584 1032.57 595.189C1032.16 594.784 1031.95 594.165 1031.95 593.333V585.269H1033.56V593.253C1033.56 593.648 1033.65 593.941 1033.84 594.133C1034.03 594.325 1034.31 594.421 1034.68 594.421H1036.88V595.781H1034.51ZM1029.26 588.629V587.269H1036.88V588.629H1029.26ZM1042.36 595.973C1041.56 595.973 1040.86 595.792 1040.26 595.429C1039.67 595.067 1039.22 594.549 1038.88 593.877C1038.56 593.205 1038.4 592.421 1038.4 591.525C1038.4 590.629 1038.56 589.851 1038.88 589.189C1039.22 588.528 1039.67 588.011 1040.24 587.637C1040.83 587.264 1041.52 587.077 1042.31 587.077C1043.07 587.077 1043.73 587.259 1044.31 587.621C1044.88 587.973 1045.33 588.485 1045.65 589.157C1045.98 589.819 1046.15 590.619 1046.15 591.557V592.005H1040.1C1040.15 592.816 1040.38 593.435 1040.77 593.861C1041.18 594.277 1041.71 594.485 1042.37 594.485C1042.87 594.485 1043.29 594.368 1043.62 594.133C1043.95 593.888 1044.18 593.573 1044.31 593.189L1046.01 593.301C1045.76 594.112 1045.32 594.763 1044.68 595.253C1044.05 595.733 1043.27 595.973 1042.36 595.973ZM1040.1 590.709H1044.41C1044.34 589.984 1044.12 589.445 1043.73 589.093C1043.36 588.741 1042.88 588.565 1042.31 588.565C1041.71 588.565 1041.22 588.747 1040.84 589.109C1040.45 589.472 1040.21 590.005 1040.1 590.709ZM1050.53 595.973C1049.8 595.973 1049.17 595.797 1048.64 595.445C1048.11 595.083 1047.69 594.571 1047.41 593.909C1047.12 593.237 1046.97 592.443 1046.97 591.525C1046.97 590.608 1047.12 589.819 1047.41 589.157C1047.69 588.485 1048.11 587.973 1048.64 587.621C1049.17 587.259 1049.8 587.077 1050.53 587.077C1051.12 587.077 1051.65 587.216 1052.09 587.493C1052.54 587.771 1052.87 588.096 1053.07 588.469V584.421H1054.69V595.781H1053.18L1053.13 594.469C1052.9 594.928 1052.56 595.296 1052.11 595.573C1051.66 595.84 1051.13 595.973 1050.53 595.973ZM1050.8 594.485C1051.27 594.485 1051.67 594.368 1052 594.133C1052.34 593.888 1052.6 593.547 1052.78 593.109C1052.97 592.661 1053.07 592.133 1053.07 591.525C1053.07 590.896 1052.97 590.363 1052.78 589.925C1052.6 589.488 1052.34 589.152 1052 588.917C1051.66 588.683 1051.25 588.565 1050.77 588.565C1050.12 588.565 1049.6 588.827 1049.23 589.349C1048.86 589.872 1048.67 590.597 1048.67 591.525C1048.67 592.443 1048.86 593.168 1049.23 593.701C1049.6 594.224 1050.13 594.485 1050.8 594.485Z" fill="#757575"/>
<path d="M1373 0L1373 660" stroke="#18191B"/>
<path d="M1725 0L1725 610" stroke="#18191B"/>
<path d="M1684 713.008L1684 1437" stroke="#18191B"/>
<path d="M1696 706.008L1696 1430" stroke="#18191B"/>
<path d="M1708 710.008L1708 1434" stroke="#18191B"/>
<path d="M1754 694.008L1754 1418" stroke="#18191B"/>
<path d="M1338 -1L1338 635" stroke="#18191B"/>
<path d="M1328 -1L1328 631" stroke="#18191B"/>
<path d="M285.798 -3.35156L285.798 1251.79" stroke="#18191B"/>
<path d="M274.798 -3.35156L274.798 1251.79" stroke="#18191B"/>
<path d="M214.798 -3.35156L214.798 1251.79" stroke="#18191B"/>
</svg>
