<svg width="14" height="14" viewBox="0 0 14 14" fill="none" xmlns="http://www.w3.org/2000/svg">
<path d="M7 14C10.866 14 14 10.866 14 7C14 3.13401 10.866 0 7 0C3.13401 0 0 3.13401 0 7C0 10.866 3.13401 14 7 14Z" fill="#303236"/>
<path d="M7.00534 4.30118C7.50934 4.30118 7.72214 4.03238 7.72214 3.66278V3.47238C7.72214 3.10278 7.50934 2.83398 7.00534 2.83398C6.50134 2.83398 6.27734 3.10278 6.27734 3.47238V3.66278C6.27734 4.03238 6.50134 4.30118 7.00534 4.30118ZM6.38934 11.1668H7.61014V5.34278H6.38934V11.1668Z" fill="#C9CBCF"/>
</svg>
