<?xml version="1.0" standalone="no"?>
<!DOCTYPE svg PUBLIC "-//W3C//DTD SVG 20010904//EN"
 "http://www.w3.org/TR/2001/REC-SVG-20010904/DTD/svg10.dtd">
<svg version="1.0" xmlns="http://www.w3.org/2000/svg"
 width="1024.000000pt" height="1024.000000pt" viewBox="0 0 1024.000000 1024.000000"
 preserveAspectRatio="xMidYMid meet">
<metadata>
Created by potrace 1.14, written by Peter Selinger 2001-2017
</metadata>
<g transform="translate(0.000000,1024.000000) scale(0.100000,-0.100000)"
fill="#000000" stroke="none">
<path d="M1609 10236 c-2 -2 -31 -7 -64 -11 -189 -21 -356 -72 -550 -165 -401
-193 -708 -524 -876 -947 -17 -43 -32 -85 -34 -94 -2 -8 -10 -40 -19 -70 -23
-75 -45 -182 -54 -259 -9 -84 -9 -7044 0 -7130 35 -317 177 -655 377 -900 57
-70 224 -237 276 -275 22 -17 42 -32 45 -36 15 -16 185 -121 250 -154 73 -37
200 -92 230 -100 8 -2 56 -16 105 -30 50 -14 106 -28 125 -31 19 -3 71 -12
115 -19 65 -11 404 -13 1780 -11 935 1 1716 5 1735 10 19 4 64 14 100 22 36 8
74 17 85 20 11 3 30 7 42 10 36 7 235 90 288 119 203 113 371 254 506 427 27
35 54 68 59 75 6 7 10 17 10 23 0 5 5 10 10 10 6 0 10 5 10 12 0 6 6 19 14 27
45 53 160 319 180 417 3 10 11 48 20 84 14 60 22 119 31 225 2 22 4 733 4
1580 l1 1540 20 -25 c31 -39 199 -255 515 -661 160 -206 296 -381 302 -389 7
-8 48 -60 90 -116 43 -55 90 -116 105 -135 46 -58 296 -380 360 -464 34 -44
64 -82 67 -85 3 -3 35 -43 71 -90 35 -47 70 -92 77 -100 20 -25 274 -351 319
-410 102 -134 236 -246 379 -318 67 -33 197 -76 265 -87 25 -4 54 -9 65 -12
21 -4 201 -4 245 1 101 10 227 45 325 90 39 18 72 33 75 33 13 2 143 93 190
133 43 36 137 139 178 195 53 71 128 240 151 340 6 28 15 61 19 75 4 14 7
1380 8 3035 2 3269 5 3072 -52 3299 -43 170 -139 387 -234 531 -140 211 -359
420 -570 545 -184 109 -417 195 -610 225 -25 4 -54 10 -65 14 -21 6 -7089 14
-7096 7z m7105 -1418 c52 -13 90 -55 103 -112 7 -32 10 -799 10 -2477 0 -1336
-1 -2428 -2 -2427 -2 2 -119 152 -259 333 -141 182 -262 337 -269 345 -6 8
-90 116 -186 240 -96 124 -198 254 -226 290 -28 36 -109 139 -179 230 -70 91
-139 180 -154 199 -15 19 -78 100 -140 180 -62 80 -118 153 -125 161 -7 8
-106 137 -221 285 -115 149 -242 302 -283 342 -146 143 -322 234 -538 278 -76
16 -272 13 -370 -5 -136 -25 -164 -35 -300 -101 -312 -153 -535 -467 -571
-807 -4 -37 -8 -1010 -8 -2162 -2 -1936 -3 -2098 -19 -2133 -11 -25 -27 -42
-49 -51 -28 -12 -298 -14 -1638 -13 l-1605 2 -65 31 c-82 40 -134 92 -174 174
l-31 65 0 3435 0 3435 27 57 c51 108 148 188 252 207 66 12 6974 11 7020 -1z"/>
</g>
</svg>
