<svg width="24" height="24" viewBox="0 0 24 24" fill="none" xmlns="http://www.w3.org/2000/svg">
<path d="M21 13.9453C21 16.3323 20.0518 18.6214 18.364 20.3093C16.6761 21.9971 14.3869 22.9453 12 22.9453C9.61305 22.9453 7.32387 21.9971 5.63604 20.3093C3.94821 18.6214 3 16.3323 3 13.9453V3.94531L12 1.94531L21 3.94531V13.9453Z" stroke="#00E599" stroke-miterlimit="10" stroke-linecap="square"/>
<path d="M12.0033 13.655C12.5387 13.655 13.0522 13.4423 13.4309 13.0637C13.8095 12.685 14.0222 12.1715 14.0222 11.6361C14.0222 11.1006 13.8095 10.5871 13.4309 10.2085C13.0522 9.82989 12.5387 9.61719 12.0033 9.61719C11.4678 9.61719 10.9543 9.82989 10.5757 10.2085C10.1971 10.5871 9.98438 11.1006 9.98438 11.6361C9.98438 12.1715 10.1971 12.685 10.5757 13.0637C10.9543 13.4423 11.4678 13.655 12.0033 13.655Z" stroke="#00E599" stroke-miterlimit="10" stroke-linecap="square"/>
<path d="M12 13.6562V16.1799" stroke="#00E599" stroke-miterlimit="10" stroke-linecap="round"/>
</svg>
