<svg width="24" height="24" viewBox="0 0 24 24" fill="none" xmlns="http://www.w3.org/2000/svg">
<path d="M2.45312 12.9131H6.27302" stroke="#00E599" stroke-linecap="round" stroke-linejoin="round"/>
<path d="M9.08594 3.36515C9.33344 2.79694 9.74143 2.31335 10.2599 1.9737C10.7783 1.63405 11.3846 1.45312 12.0043 1.45312C12.6241 1.45312 13.2304 1.63405 13.7488 1.9737C14.2672 2.31335 14.6752 2.79694 14.9227 3.36515" stroke="#00E599" stroke-linecap="round" stroke-linejoin="round"/>
<path d="M6.59898 9.09333H6.27302C5.25992 9.09333 4.28832 8.69088 3.57195 7.97451C2.85558 7.25814 2.45313 6.28654 2.45312 5.27344" stroke="#00E599" stroke-linecap="round" stroke-linejoin="round"/>
<path d="M6.59898 16.7324H6.27302C5.25992 16.7324 4.28832 17.1349 3.57195 17.8512C2.85558 18.5676 2.45312 19.5392 2.45312 20.5523" stroke="#00E599" stroke-linecap="round" stroke-linejoin="round"/>
<path d="M21.5543 12.9131H17.7344" stroke="#00E599" stroke-linecap="round" stroke-linejoin="round"/>
<path d="M17.4062 9.09333H17.7322C18.7453 9.09333 19.7169 8.69088 20.4333 7.97451C21.1497 7.25814 21.5521 6.28654 21.5521 5.27344" stroke="#00E599" stroke-linecap="round" stroke-linejoin="round"/>
<path d="M17.4062 16.7324H17.7322C18.7453 16.7324 19.7169 17.1349 20.4333 17.8512C21.1497 18.5676 21.5521 19.5392 21.5521 20.5523" stroke="#00E599" stroke-linecap="round" stroke-linejoin="round"/>
<path d="M17.7331 11.0033C17.7331 7.83878 15.1678 5.27344 12.0033 5.27344C8.83878 5.27344 6.27344 7.83878 6.27344 11.0033V14.8232C6.27344 17.9877 8.83878 20.553 12.0033 20.553C15.1678 20.553 17.7331 17.9877 17.7331 14.8232V11.0033Z" stroke="#00E599" stroke-linecap="round" stroke-linejoin="round"/>
</svg>
