<svg width="22" height="23" viewBox="0 0 22 23" fill="none" xmlns="http://www.w3.org/2000/svg">
<path d="M11.4557 17.9193H4.9474C2.71965 17.9193 0.914062 16.1846 0.914062 14.0443C0.914062 12.3561 2.04004 10.9236 3.60833 10.3928C3.66412 6.69405 6.79801 3.71094 10.6613 3.71094C14.2696 3.71094 17.2455 6.31216 17.6682 9.66927" stroke="#00E599" stroke-width="0.846154" stroke-miterlimit="10" stroke-linecap="round"/>
<path d="M20.6224 11.9609V13.7943H18.7891" stroke="#00E599" stroke-width="0.846154" stroke-miterlimit="10" stroke-linecap="square"/>
<path d="M14.2109 19.2943V17.4609H16.0443" stroke="#00E599" stroke-width="0.846154" stroke-miterlimit="10" stroke-linecap="square"/>
<path d="M20.6092 13.8178L20.6496 13.8908C20.0304 12.7418 18.8162 11.9609 17.4195 11.9609C15.5497 11.9609 14.0068 13.3606 13.7812 15.1693M14.2485 17.4698L14.1895 17.3645C14.8087 18.5134 16.0229 19.2943 17.4195 19.2943C19.2894 19.2943 20.8323 17.8947 21.0578 16.0859" stroke="#00E599" stroke-width="0.846154" stroke-miterlimit="10" stroke-linecap="round"/>
</svg>
