<svg width="24" height="24" viewBox="0 0 24 24" fill="none" xmlns="http://www.w3.org/2000/svg">
<path d="M3.75781 4.67188V19.327C3.75781 20.7767 6.93367 21.9088 11.0678 22.0581M20.2448 4.67188V11.9994V12.9368" stroke="#00E599" stroke-linecap="round" stroke-linejoin="round"/>
<path d="M3.75781 12.0312C3.75781 13.481 6.93367 14.6131 11.0678 14.7624" stroke="#00E599" stroke-linecap="round" stroke-linejoin="round"/>
<path d="M12.0013 7.42535C16.5541 7.42535 20.2448 6.19511 20.2448 4.67752C20.2448 3.15993 16.5541 1.92969 12.0013 1.92969C7.44855 1.92969 3.75781 3.15993 3.75781 4.67752C3.75781 6.19511 7.44855 7.42535 12.0013 7.42535Z" stroke="#00E599" stroke-linecap="round" stroke-linejoin="round"/>
<path d="M20.1406 18.8516L22.0156 20.7266L20.1406 22.6016" stroke="#00E599" stroke-linecap="round" stroke-linejoin="round"/>
<path d="M13.7656 20.7266H22.0156" stroke="#00E599" stroke-linecap="round" stroke-linejoin="round"/>
<path d="M15.6406 17.5625L13.7656 15.6875L15.6406 13.8125" stroke="#00E599" stroke-linecap="round" stroke-linejoin="round"/>
<path d="M13.7656 15.6875H22.0156" stroke="#00E599" stroke-linecap="round" stroke-linejoin="round"/>
</svg>
