<svg width="24" height="24" viewBox="0 0 24 24" fill="none" xmlns="http://www.w3.org/2000/svg">
<path d="M3.75781 4.67188V19.327C3.75781 20.7064 6.63305 21.7983 10.4732 22.0295M20.2448 4.67188V8.33565V9.9399" stroke="#00E599" stroke-linecap="round" stroke-linejoin="round"/>
<path d="M12.0013 7.42535C16.5541 7.42535 20.2448 6.19511 20.2448 4.67752C20.2448 3.15993 16.5541 1.92969 12.0013 1.92969C7.44855 1.92969 3.75781 3.15993 3.75781 4.67752C3.75781 6.19511 7.44855 7.42535 12.0013 7.42535Z" stroke="#00E599" stroke-linecap="round" stroke-linejoin="round"/>
<path d="M3.75781 12.0156C3.75781 13.5727 7.42159 14.7635 12.0013 14.7635C12.1963 14.7635 12.3896 14.7613 12.5811 14.757" stroke="#00E599" stroke-linecap="round" stroke-linejoin="round"/>
<path d="M22.3102 17.5156H14.0469V23.0245H22.3102V17.5156Z" stroke="#00E599" stroke-linecap="round" stroke-linejoin="round"/>
<path d="M15.4219 17.5167V14.7623C15.4219 13.2404 16.6545 12.0078 18.1763 12.0078C19.6981 12.0078 20.9307 13.2404 20.9307 14.7623V17.5167" stroke="#00E599" stroke-linecap="round" stroke-linejoin="round"/>
</svg>
