<svg width="24" height="24" viewBox="0 0 24 24" fill="none" xmlns="http://www.w3.org/2000/svg">
<path d="M3.75781 4.67188V19.327C3.75781 20.6788 6.51935 21.7545 10.2443 22.0146M20.2448 4.67188V11.2763" stroke="#00E599" stroke-linecap="round" stroke-linejoin="round"/>
<path d="M12.0013 7.4234C16.5541 7.4234 20.2448 6.19315 20.2448 4.67557C20.2448 3.15798 16.5541 1.92773 12.0013 1.92773C7.44855 1.92773 3.75781 3.15798 3.75781 4.67557C3.75781 6.19315 7.44855 7.4234 12.0013 7.4234Z" stroke="#00E599" stroke-linecap="round" stroke-linejoin="round"/>
<path d="M3.75781 12.0156C3.75781 13.4758 6.97974 14.6138 11.1575 14.7498" stroke="#00E599" stroke-linecap="round" stroke-linejoin="round"/>
<path d="M13.2266 17.0839C13.4107 16.0838 13.9272 15.1753 14.6924 14.5056C15.4576 13.8358 16.4266 13.4442 17.4422 13.3941C18.4579 13.3441 19.4606 13.6386 20.288 14.2298C21.1153 14.8211 21.7186 15.6744 22.0002 16.6515" stroke="#00E599" stroke-linecap="round" stroke-linejoin="round"/>
<path d="M22.1703 13.3887V16.6704L18.9141 16.2659" stroke="#00E599" stroke-linecap="round" stroke-linejoin="round"/>
<path d="M22.094 18.7217C21.9098 19.7217 21.3933 20.6303 20.6281 21.3C19.8629 21.9697 18.894 22.3614 17.8783 22.4114C16.8627 22.4615 15.8599 22.167 15.0326 21.5758C14.2053 20.9845 13.6019 20.1312 13.3203 19.154" stroke="#00E599" stroke-linecap="round" stroke-linejoin="round"/>
<path d="M13.1484 22.4175V19.1357L16.4047 19.5402" stroke="#00E599" stroke-linecap="round" stroke-linejoin="round"/>
</svg>
