<svg width="24" height="24" viewBox="0 0 24 24" fill="none" xmlns="http://www.w3.org/2000/svg">
<g clip-path="url(#clip0_1789_545)">
<path d="M12 15.75C14.0711 15.75 15.75 14.0711 15.75 12C15.75 9.92893 14.0711 8.25 12 8.25C9.92893 8.25 8.25 9.92893 8.25 12C8.25 14.0711 9.92893 15.75 12 15.75Z" stroke="#00E599" stroke-miterlimit="10" stroke-linecap="round" stroke-linejoin="round"/>
<path d="M20.2503 12C20.2503 11.3025 20.1543 10.6305 19.9923 9.984L22.8678 8.3235L20.6178 4.4265L17.7453 6.0855C16.7793 5.1465 15.5838 4.446 14.2503 4.0695V0.75H9.75031V4.068C8.41831 4.446 7.22281 5.1465 6.25531 6.0855L3.38281 4.4265L1.13281 8.3235L4.00831 9.984C3.84631 10.6305 3.75031 11.3025 3.75031 12C3.75031 12.696 3.84631 13.3695 4.00831 14.016L1.13281 15.6765L3.38281 19.5735L6.25681 17.9145C7.22281 18.8535 8.41831 19.554 9.75181 19.9305V23.25H14.2518V19.932C15.5853 19.554 16.7793 18.8535 17.7468 17.916L20.6208 19.575L22.8708 15.678L19.9953 14.0175C20.1543 13.3695 20.2503 12.696 20.2503 12Z" stroke="#00E599" stroke-miterlimit="10" stroke-linecap="round" stroke-linejoin="round"/>
</g>
<defs>
<clipPath id="clip0_1789_545">
<rect width="24" height="24" fill="white"/>
</clipPath>
</defs>
</svg>
