<svg width="24" height="24" viewBox="0 0 24 24" fill="none" xmlns="http://www.w3.org/2000/svg">
<path d="M11.3814 0.959411L2.72237 5.4175C1.88408 5.84963 1.88408 7.04757 2.72237 7.4797L11.3814 11.9378C11.7753 12.1402 12.2416 12.1402 12.6341 11.9378L21.2932 7.4797C22.1314 7.04757 22.1314 5.84963 21.2932 5.4175L12.6341 0.959411C12.2402 0.757019 11.7739 0.757019 11.3814 0.959411Z" stroke="#00E599" stroke-width="0.877731" stroke-linecap="round" stroke-linejoin="round"/>
<path d="M2.08442 6.44824C2.31827 7.4602 2.51929 8.80309 2.46869 10.3798C2.43177 11.5203 2.27177 12.5159 2.08442 13.3282" stroke="#00E599" stroke-width="0.877731" stroke-linecap="round" stroke-linejoin="round"/>
<path d="M5.50751 11.4268V17.3545C5.50751 18.7593 8.02582 19.9178 11.2656 20.0721" stroke="#00E599" stroke-width="0.877731" stroke-linecap="round" stroke-linejoin="round"/>
<path d="M22.3102 17.5156H14.0469V23.0245H22.3102V17.5156Z" stroke="#00E599" stroke-linecap="round" stroke-linejoin="round"/>
<path d="M15.4219 17.5167V14.7623C15.4219 13.2404 16.6545 12.0078 18.1763 12.0078C19.6981 12.0078 20.9307 13.2404 20.9307 14.7623V17.5167" stroke="#00E599" stroke-linecap="round" stroke-linejoin="round"/>
</svg>
