<svg width="24" height="24" viewBox="0 0 24 24" fill="none" xmlns="http://www.w3.org/2000/svg">
<path d="M7.96797 18.0375C9.08074 18.0375 9.98281 17.1354 9.98281 16.0227C9.98281 14.9099 9.08074 14.0078 7.96797 14.0078C6.8552 14.0078 5.95312 14.9099 5.95312 16.0227C5.95312 17.1354 6.8552 18.0375 7.96797 18.0375Z" stroke="#00E599" stroke-miterlimit="10" stroke-linecap="round" stroke-linejoin="round"/>
<path d="M22.0703 1.92188H18.0406L9.69917 10.2633C9.1471 10.0981 8.5722 9.98125 7.96641 9.98125C4.62848 9.98125 1.92188 12.6879 1.92188 16.0258C1.92188 19.3637 4.62848 22.0703 7.96641 22.0703C11.3043 22.0703 14.0109 19.3637 14.0109 16.0258C14.0109 15.42 13.8941 14.8451 13.7289 14.293L16.6974 11.3245V7.29479H20.7271L22.0703 5.95156V1.92188Z" stroke="#00E599" stroke-miterlimit="10" stroke-linecap="round" stroke-linejoin="round"/>
</svg>
