<svg width="24" height="24" viewBox="0 0 24 24" fill="none" xmlns="http://www.w3.org/2000/svg">
<path d="M16.6728 7.42436V5.55513C16.6697 4.31691 16.1764 3.13029 15.3009 2.25473C14.4253 1.37917 13.2387 0.885914 12.0004 0.882812C10.7622 0.885914 9.5756 1.37917 8.70004 2.25473C7.82448 3.13029 7.33123 4.31691 7.32812 5.55513V7.42436" stroke="#00E599" stroke-miterlimit="10" stroke-linecap="round"/>
<path d="M18.5446 9.76562H5.4615C4.43071 9.76562 3.59375 10.6026 3.59375 11.6348V19.5787C3.59375 20.6095 4.43071 21.4464 5.46297 21.4464H18.5446C19.5768 21.4464 20.4123 20.6095 20.4123 19.5772V11.6348C20.4123 10.6026 19.5754 9.76562 18.5446 9.76562Z" stroke="#00E599" stroke-miterlimit="10" stroke-linecap="square"/>
<path d="M11.9996 16.1555C12.389 16.1555 12.7625 16.0008 13.0379 15.7254C13.3133 15.45 13.468 15.0765 13.468 14.6871C13.468 14.2977 13.3133 13.9242 13.0379 13.6488C12.7625 13.3735 12.389 13.2188 11.9996 13.2188C11.6102 13.2188 11.2367 13.3735 10.9613 13.6488C10.686 13.9242 10.5312 14.2977 10.5312 14.6871C10.5312 15.0765 10.686 15.45 10.9613 15.7254C11.2367 16.0008 11.6102 16.1555 11.9996 16.1555Z" stroke="#00E599" stroke-miterlimit="10" stroke-linecap="square"/>
<path d="M12 16.1562V17.9917" stroke="#00E599" stroke-miterlimit="10" stroke-linecap="round"/>
</svg>
