<svg width="24" height="24" viewBox="0 0 24 24" fill="none" xmlns="http://www.w3.org/2000/svg">
<path d="M7.30451 8.69271H16.7541M7.30451 12.6611H11.7544M7.30451 16.6296H11.7544M12.5639 21.9219H4.90757C4.74868 21.9205 4.59193 21.8851 4.4479 21.818C4.30386 21.7509 4.17589 21.6537 4.07261 21.533C3.96066 21.4087 3.87435 21.2636 3.81863 21.106C3.75735 20.9436 3.72616 20.7715 3.72657 20.598V3.40041C3.72657 3.05118 3.85038 2.71466 4.07261 2.46703C4.17589 2.34628 4.30386 2.24908 4.4479 2.18199C4.59193 2.1149 4.74868 2.07948 4.90757 2.07812H16.7573C17.0653 2.07812 17.3605 2.21305 17.5827 2.45433L19.9082 4.9973C20.0204 5.12112 20.1077 5.26504 20.1702 5.42907C20.2321 5.59098 20.2638 5.76718 20.2654 5.94338V10.8224" stroke="#00E599" stroke-linecap="round" stroke-linejoin="round"/>
<path d="M22.4326 18.3847C22.4326 21.4796 18.3061 22.8551 18.3061 22.8551C18.3061 22.8551 14.1796 21.4796 14.1796 18.3847V14.2582L18.3061 13.2266L22.4326 14.2582V18.3847Z" stroke="#00E599" stroke-linecap="round" stroke-linejoin="round"/>
</svg>
