<svg width="24" height="24" viewBox="0 0 24 24" fill="none" xmlns="http://www.w3.org/2000/svg">
<path d="M21 13.9453C21 16.3323 20.0518 18.6214 18.364 20.3093C16.6761 21.9971 14.3869 22.9453 12 22.9453C9.61305 22.9453 7.32387 21.9971 5.63604 20.3093C3.94821 18.6214 3 16.3323 3 13.9453V3.94531L12 1.94531L21 3.94531V13.9453Z" stroke="#00E599" stroke-miterlimit="10" stroke-linecap="square"/>
<path d="M8.19531 11.7426C8.35301 10.8862 8.79535 10.1081 9.45063 9.53459C10.1059 8.96106 10.9357 8.62567 11.8055 8.58281C12.6752 8.53995 13.534 8.79212 14.2425 9.29845C14.951 9.80478 15.4677 10.5356 15.7088 11.3723" stroke="#00E599" stroke-linecap="round" stroke-linejoin="round"/>
<path d="M15.8589 8.57812V11.3885L13.0703 11.0421" stroke="#00E599" stroke-linecap="round" stroke-linejoin="round"/>
<path d="M15.7947 13.1475C15.637 14.0039 15.1947 14.7819 14.5394 15.3555C13.8841 15.929 13.0544 16.2644 12.1846 16.3073C11.3148 16.3501 10.4561 16.0979 9.74758 15.5916C9.03909 15.0853 8.52239 14.3545 8.28125 13.5177" stroke="#00E599" stroke-linecap="round" stroke-linejoin="round"/>
<path d="M8.13281 16.3123V13.502L10.9214 13.8483" stroke="#00E599" stroke-linecap="round" stroke-linejoin="round"/>
</svg>
