<svg width="24" height="24" viewBox="0 0 24 24" fill="none" xmlns="http://www.w3.org/2000/svg">
<g clip-path="url(#clip0_1789_621)">
<path d="M12 14.25C13.2426 14.25 14.25 13.2426 14.25 12C14.25 10.7574 13.2426 9.75 12 9.75C10.7574 9.75 9.75 10.7574 9.75 12C9.75 13.2426 10.7574 14.25 12 14.25Z" stroke="#00E599" stroke-miterlimit="10" stroke-linecap="square"/>
<path d="M16.7726 16.773C15.5509 17.9944 13.8641 18.75 12 18.75C8.27212 18.75 5.25 15.7279 5.25 12C5.25 8.27213 8.27212 5.25 12 5.25C13.8637 5.25 15.5509 6.006 16.7726 7.227" stroke="#00E599" stroke-miterlimit="10"/>
<path d="M13.5938 13.5908L19.9579 19.9549" stroke="#00E599" stroke-miterlimit="10"/>
<path d="M19.9579 4.04492L13.5938 10.409" stroke="#00E599" stroke-miterlimit="10"/>
<path d="M12 23.25C18.2132 23.25 23.25 18.2132 23.25 12C23.25 5.7868 18.2132 0.75 12 0.75C5.7868 0.75 0.75 5.7868 0.75 12C0.75 18.2132 5.7868 23.25 12 23.25Z" stroke="#00E599" stroke-miterlimit="10" stroke-linecap="square"/>
</g>
<defs>
<clipPath id="clip0_1789_621">
<rect width="24" height="24" fill="white"/>
</clipPath>
</defs>
</svg>
