<svg width="24" height="24" viewBox="0 0 24 24" fill="none" xmlns="http://www.w3.org/2000/svg">
<path d="M12 7.43555V12.0059L15.6562 15.6621" stroke="#00E599" stroke-miterlimit="10" stroke-linecap="round"/>
<path d="M3.07601 7.36759C4.20871 5.18553 6.10163 3.49409 8.39689 2.61307C10.6922 1.73205 13.2307 1.72252 15.5325 2.58628C17.8343 3.45003 19.7399 5.12721 20.8889 7.3007C22.038 9.4742 22.3509 11.9934 21.7684 14.3819C21.186 16.7705 19.7486 18.8629 17.7281 20.2635C15.7075 21.6641 13.2438 22.2759 10.8028 21.9831C8.36171 21.6904 6.11251 20.5134 4.48041 18.6748C2.84832 16.8361 1.94645 14.4632 1.94531 12.0046" stroke="#00E599" stroke-miterlimit="10" stroke-linecap="round"/>
<path d="M2.70076 3.20996V7.43255L6.89062 6.91212" stroke="#00E599" stroke-linecap="round" stroke-linejoin="round"/>
</svg>
