<svg width="24" height="25" viewBox="0 0 24 25" fill="none" xmlns="http://www.w3.org/2000/svg">
<path d="M12 9.84375V15.6521" stroke="#00E599" stroke-linecap="round" stroke-linejoin="round"/>
<path d="M3.77344 15.6542V12.75H20.2306V15.6542" stroke="#00E599" stroke-linecap="round" stroke-linejoin="round"/>
<path d="M11.9983 6.93408C13.3349 6.93408 14.4185 5.85053 14.4185 4.51391C14.4185 3.17729 13.3349 2.09375 11.9983 2.09375C10.6617 2.09375 9.57812 3.17729 9.57812 4.51391C9.57812 5.85053 10.6617 6.93408 11.9983 6.93408Z" stroke="#00E599" stroke-linecap="round" stroke-linejoin="round"/>
<path d="M3.77173 23.3872C5.10835 23.3872 6.19189 22.3037 6.19189 20.967C6.19189 19.6304 5.10835 18.5469 3.77173 18.5469C2.43511 18.5469 1.35156 19.6304 1.35156 20.967C1.35156 22.3037 2.43511 23.3872 3.77173 23.3872Z" stroke="#00E599" stroke-linecap="round" stroke-linejoin="round"/>
<path d="M11.9983 23.3872C13.3349 23.3872 14.4185 22.3037 14.4185 20.967C14.4185 19.6304 13.3349 18.5469 11.9983 18.5469C10.6617 18.5469 9.57812 19.6304 9.57812 20.967C9.57812 22.3037 10.6617 23.3872 11.9983 23.3872Z" stroke="#00E599" stroke-linecap="round" stroke-linejoin="round"/>
<path d="M20.2327 23.3872C21.5693 23.3872 22.6528 22.3037 22.6528 20.967C22.6528 19.6304 21.5693 18.5469 20.2327 18.5469C18.896 18.5469 17.8125 19.6304 17.8125 20.967C17.8125 22.3037 18.896 23.3872 20.2327 23.3872Z" stroke="#00E599" stroke-linecap="round" stroke-linejoin="round"/>
</svg>
