<svg width="24" height="24" viewBox="0 0 24 24" fill="none" xmlns="http://www.w3.org/2000/svg">
<path d="M21.9016 3H2.10156V10.2H21.9016V3Z" stroke="#00E599" stroke-miterlimit="10" stroke-linecap="square"/>
<path d="M21.9016 13.7969H2.10156V20.9969H21.9016V13.7969Z" stroke="#00E599" stroke-miterlimit="10" stroke-linecap="square"/>
<path d="M9.30312 6.59375H5.70312" stroke="#00E599" stroke-miterlimit="10" stroke-linecap="square"/>
<path d="M9.30312 17.4062H5.70312" stroke="#00E599" stroke-miterlimit="10" stroke-linecap="square"/>
<path d="M18.7062 6.60312C18.7062 6.82404 18.5272 7.00312 18.3062 7.00312C18.0853 7.00312 17.9062 6.82404 17.9062 6.60312C17.9062 6.38221 18.0853 6.20312 18.3062 6.20312C18.5272 6.20312 18.7062 6.38221 18.7062 6.60312Z" fill="#212121" stroke="#00E599"/>
<path d="M18.7062 17.4C18.7062 17.6209 18.5272 17.8 18.3062 17.8C18.0853 17.8 17.9062 17.6209 17.9062 17.4C17.9062 17.1791 18.0853 17 18.3062 17C18.5272 17 18.7062 17.1791 18.7062 17.4Z" fill="#212121" stroke="#00E599"/>
</svg>
