<svg width="22" height="23" viewBox="0 0 22 23" fill="none" xmlns="http://www.w3.org/2000/svg">
<path d="M1.85156 7.20801H19.4627" stroke="#00E599" stroke-width="0.846154" stroke-miterlimit="10"/>
<path d="M6.03906 2.39551V20.0088" stroke="#00E599" stroke-width="0.846154" stroke-miterlimit="10"/>
<path d="M19.4627 10.2512V3.91172C19.4627 3.41121 19.2639 3.30215 18.9101 2.94824C18.5562 2.59433 18.0763 2.39551 17.5758 2.39551H3.73847C3.23803 2.39551 2.75809 2.59433 2.40423 2.94824C2.05036 3.30215 1.85156 3.78215 1.85156 4.28265V18.1217C1.85156 18.6222 2.05036 19.1022 2.40423 19.4561C2.75809 19.81 3.23803 20.0088 3.73847 20.0088H9.42479" stroke="#00E599" stroke-width="0.846154" stroke-miterlimit="10" stroke-linecap="round"/>
<path d="M15.3993 16.6222C15.978 16.6222 16.4471 16.153 16.4471 15.5743C16.4471 14.9955 15.978 14.5264 15.3993 14.5264C14.8207 14.5264 14.3516 14.9955 14.3516 15.5743C14.3516 16.153 14.8207 16.6222 15.3993 16.6222Z" stroke="#00E599" stroke-width="0.846154" stroke-miterlimit="10" stroke-linecap="square" stroke-linejoin="round"/>
<path d="M18.8855 15.5714C18.8846 15.4039 18.8717 15.2366 18.8468 15.0709L20.1477 13.7257L19.3736 12.3848L17.5598 12.8389C17.296 12.6298 17.0032 12.4603 16.6905 12.3356L16.1761 10.5391H14.6279L14.1146 12.3364C13.802 12.4611 13.5091 12.6306 13.2453 12.8396L11.4315 12.3856L10.6574 13.7265L11.9572 15.0709C11.904 15.4025 11.904 15.7404 11.9572 16.072L10.6562 17.4172L11.4304 18.7581L13.2441 18.304C13.5079 18.5131 13.8008 18.6826 14.1135 18.8073L14.6279 20.6038H16.1761L16.6893 18.8065C17.002 18.6818 17.2949 18.5123 17.5587 18.3032L19.3724 18.7573L20.1465 17.4164L18.8468 16.072C18.8717 15.9063 18.8846 15.739 18.8855 15.5714Z" stroke="#00E599" stroke-width="0.846154" stroke-miterlimit="10" stroke-linecap="square" stroke-linejoin="round"/>
</svg>
