<svg width="24" height="24" viewBox="0 0 24 24" fill="none" xmlns="http://www.w3.org/2000/svg">
<path d="M21 13.9453C21 16.3323 20.0518 18.6214 18.364 20.3093C16.6761 21.9971 14.3869 22.9453 12 22.9453C9.61305 22.9453 7.32387 21.9971 5.63604 20.3093C3.94821 18.6214 3 16.3323 3 13.9453V3.94531L12 1.94531L21 3.94531V13.9453Z" stroke="#00E599" stroke-miterlimit="10" stroke-linecap="square"/>
<path d="M5.84375 20.3265V19.2273C6.12802 16.0779 8.7718 13.6094 11.9953 13.6094C15.2189 13.6094 17.8627 16.0779 18.1469 19.2273V20.3265" stroke="#00E599" stroke-linecap="round" stroke-linejoin="round"/>
<path d="M11.9957 13.6087C13.8573 13.6087 15.3665 12.0995 15.3665 10.2379C15.3665 8.37632 13.8573 6.86719 11.9957 6.86719C10.1341 6.86719 8.625 8.37632 8.625 10.2379C8.625 12.0995 10.1341 13.6087 11.9957 13.6087Z" stroke="#00E599" stroke-linecap="round" stroke-linejoin="round"/>
</svg>
