<svg width="24" height="24" viewBox="0 0 24 24" fill="none" xmlns="http://www.w3.org/2000/svg">
<path d="M22.3102 16.8203H14.0469V22.3292H22.3102V16.8203Z" stroke="#00E599" stroke-linecap="round" stroke-linejoin="round"/>
<path d="M15.4219 16.8214V14.067C15.4219 12.5451 16.6545 11.3125 18.1763 11.3125C19.6981 11.3125 20.9307 12.5451 20.9307 14.067V16.8214" stroke="#00E599" stroke-linecap="round" stroke-linejoin="round"/>
<path d="M10.601 10.6239C13.073 10.6239 15.0769 8.6199 15.0769 6.14787C15.0769 3.67585 13.073 1.67188 10.601 1.67188C8.12895 1.67188 6.125 3.67585 6.125 6.14787C6.125 8.6199 8.12895 10.6239 10.601 10.6239Z" stroke="#00E599" stroke-linecap="round" stroke-linejoin="round"/>
<path d="M11.9822 14.1764C11.5332 14.1075 11.0732 14.0703 10.605 14.0703C5.89352 14.0703 2.04007 17.7131 1.6875 22.3337H9.91637" stroke="#00E599" stroke-linecap="round" stroke-linejoin="round"/>
</svg>
