<svg width="24" height="24" viewBox="0 0 24 24" fill="none" xmlns="http://www.w3.org/2000/svg">
<path d="M12.0073 17.3036C12.5161 17.3036 12.9286 16.8911 12.9286 16.3823C12.9286 15.8734 12.5161 15.4609 12.0073 15.4609C11.4984 15.4609 11.0859 15.8734 11.0859 16.3823C11.0859 16.8911 11.4984 17.3036 12.0073 17.3036Z" fill="#00E599"/>
<path d="M12 6.82812V13.6845" stroke="#00E599" stroke-linecap="round" stroke-linejoin="round"/>
<path d="M2.05063 18.175L10.5923 2.31211C10.7297 2.05714 10.9335 1.84412 11.1822 1.69563C11.4308 1.54715 11.7151 1.46875 12.0047 1.46875C12.2943 1.46875 12.5785 1.54715 12.8272 1.69563C13.0759 1.84412 13.2797 2.05714 13.4171 2.31211L21.9588 18.175C22.0901 18.4194 22.1559 18.6936 22.1496 18.971C22.1433 19.2484 22.0652 19.5194 21.9229 19.7575C21.7806 19.9957 21.579 20.1929 21.3377 20.3299C21.0965 20.4669 20.8238 20.5389 20.5464 20.5391H3.46304C3.1856 20.5389 2.91293 20.4669 2.67166 20.3299C2.43039 20.1929 2.22876 19.9957 2.08646 19.7575C1.94417 19.5194 1.86607 19.2484 1.85979 18.971C1.85351 18.6936 1.91926 18.4194 2.05063 18.175Z" stroke="#00E599" stroke-linecap="round" stroke-linejoin="round"/>
</svg>
