<svg xmlns="http://www.w3.org/2000/svg" width="590" height="387" fill="none" viewBox="0 0 590 387"><rect width="590" height="387" fill="url(#a)" rx="16"/><path fill="#C9CBCF" d="M35.548 38V25.436h8.046v1.8h-6.012v3.492h5.454v1.8h-5.454V36.2h6.012V38h-8.046Zm12.164 0c-.672 0-1.176-.168-1.512-.504-.324-.348-.486-.828-.486-1.44V24.68h1.962v11.718h1.296V38h-1.26Zm9.633 0c-.516 0-.912-.144-1.188-.432-.276-.3-.444-.678-.504-1.134h-.09c-.18.588-.51 1.032-.99 1.332-.48.3-1.062.45-1.746.45-.972 0-1.722-.252-2.25-.756-.516-.504-.774-1.182-.774-2.034 0-.936.336-1.638 1.008-2.106.684-.468 1.68-.702 2.988-.702h1.692v-.792c0-.576-.156-1.02-.468-1.332-.312-.312-.798-.468-1.458-.468-.552 0-1.002.12-1.35.36-.348.24-.642.546-.882.918l-1.17-1.062c.312-.528.75-.96 1.314-1.296.564-.348 1.302-.522 2.214-.522 1.212 0 2.142.282 2.79.846.648.564.972 1.374.972 2.43v4.698h.99V38h-1.098Zm-3.96-1.278c.612 0 1.116-.132 1.512-.396.396-.276.594-.642.594-1.098v-1.35h-1.656c-1.356 0-2.034.42-2.034 1.26v.324c0 .42.138.738.414.954.288.204.678.306 1.17.306Zm9.59 1.494c-.887 0-1.631-.156-2.231-.468a4.896 4.896 0 0 1-1.566-1.296l1.26-1.152c.348.42.732.75 1.152.99.432.228.93.342 1.494.342.576 0 1.002-.108 1.278-.324.288-.228.432-.54.432-.936 0-.3-.102-.552-.306-.756-.192-.216-.534-.354-1.026-.414l-.864-.108c-.96-.12-1.716-.396-2.268-.828-.54-.444-.81-1.098-.81-1.962 0-.456.084-.858.252-1.206.168-.36.402-.66.702-.9a3.303 3.303 0 0 1 1.098-.576 4.849 4.849 0 0 1 1.422-.198c.84 0 1.524.132 2.052.396.54.264 1.02.63 1.44 1.098L65.28 31.07a3.02 3.02 0 0 0-.954-.738c-.384-.216-.828-.324-1.332-.324-.54 0-.942.108-1.206.324a1.061 1.061 0 0 0-.378.846c0 .36.114.63.342.81.228.18.594.312 1.098.396l.864.108c1.032.156 1.782.462 2.25.918.48.444.72 1.044.72 1.8 0 .456-.09.87-.27 1.242-.168.36-.414.672-.738.936a3.497 3.497 0 0 1-1.17.612 5.068 5.068 0 0 1-1.53.216ZM71.01 38c-.684 0-1.2-.174-1.548-.522-.348-.36-.522-.864-.522-1.512v-5.724h-1.458V28.64h.792c.324 0 .546-.072.666-.216.132-.144.198-.378.198-.702v-1.638h1.764v2.556h1.962v1.602h-1.962v6.156h1.818V38h-1.71Zm4.612-11.034c-.408 0-.708-.096-.9-.288-.18-.192-.27-.438-.27-.738v-.306c0-.3.09-.546.27-.738.192-.192.492-.288.9-.288.408 0 .702.096.882.288.18.192.27.438.27.738v.306c0 .3-.09.546-.27.738-.18.192-.474.288-.882.288Zm-.99 1.674h1.962V38h-1.962v-9.36Zm8.022 9.576c-.672 0-1.272-.114-1.8-.342a3.614 3.614 0 0 1-1.332-.972 4.557 4.557 0 0 1-.828-1.548 6.773 6.773 0 0 1-.288-2.034c0-.744.096-1.416.288-2.016.192-.612.468-1.128.828-1.548.36-.432.804-.762 1.332-.99.528-.228 1.128-.342 1.8-.342.936 0 1.704.21 2.304.63.6.42 1.038.978 1.314 1.674l-1.62.756a1.958 1.958 0 0 0-.702-1.026c-.324-.264-.756-.396-1.296-.396-.72 0-1.266.228-1.638.684-.36.444-.54 1.026-.54 1.746v1.674c0 .72.18 1.308.54 1.764.372.444.918.666 1.638.666.576 0 1.032-.138 1.368-.414.348-.288.624-.666.828-1.134l1.494.792c-.312.768-.78 1.356-1.404 1.764-.624.408-1.386.612-2.286.612Zm6.188-11.25c-.408 0-.708-.096-.9-.288-.18-.192-.27-.438-.27-.738v-.306c0-.3.09-.546.27-.738.192-.192.492-.288.9-.288.408 0 .702.096.882.288.18.192.27.438.27.738v.306c0 .3-.09.546-.27.738-.18.192-.474.288-.882.288Zm-.99 1.674h1.962V38H87.85v-9.36ZM94.847 38c-.684 0-1.2-.174-1.548-.522-.349-.36-.523-.864-.523-1.512v-5.724H91.32V28.64h.791c.325 0 .546-.072.666-.216.133-.144.199-.378.199-.702v-1.638h1.764v2.556H96.7v1.602h-1.962v6.156h1.817V38h-1.71Zm9.364-9.36h1.89l-3.942 11.214a3.478 3.478 0 0 1-.378.792 1.636 1.636 0 0 1-.486.54c-.18.144-.402.246-.666.306a3.585 3.585 0 0 1-.936.108h-1.134v-1.602h1.584l.54-1.584-3.402-9.774h1.962l1.872 5.508.54 2.034h.09l.594-2.034 1.872-5.508Zm6.102 0h1.908l.954 3.924.846 3.546h.054l.972-3.546 1.134-3.924h1.764l1.152 3.924.99 3.546h.054l.828-3.546.972-3.924h1.818l-2.52 9.36h-2.214l-1.224-4.266-.756-2.628h-.036l-.738 2.628L115.029 38h-2.16l-2.556-9.36Zm15.945-1.674c-.408 0-.708-.096-.9-.288-.18-.192-.27-.438-.27-.738v-.306c0-.3.09-.546.27-.738.192-.192.492-.288.9-.288.408 0 .702.096.882.288.18.192.27.438.27.738v.306c0 .3-.09.546-.27.738-.18.192-.474.288-.882.288Zm-.99 1.674h1.962V38h-1.962v-9.36Zm6.995 9.36c-.684 0-1.2-.174-1.548-.522-.348-.36-.522-.864-.522-1.512v-5.724h-1.458V28.64h.792c.324 0 .546-.072.666-.216.132-.144.198-.378.198-.702v-1.638h1.764v2.556h1.962v1.602h-1.962v6.156h1.818V38h-1.71Zm3.622-13.32h1.962v5.508h.09a3.12 3.12 0 0 1 .918-1.26c.42-.336.99-.504 1.71-.504.96 0 1.704.318 2.232.954.54.624.81 1.518.81 2.682V38h-1.962v-5.706c0-1.452-.588-2.178-1.764-2.178a2.74 2.74 0 0 0-.756.108 1.98 1.98 0 0 0-.648.288c-.192.132-.348.3-.468.504a1.478 1.478 0 0 0-.162.702V38h-1.962V24.68ZM42.262 61c-.516 0-.912-.144-1.188-.432-.276-.3-.444-.678-.504-1.134h-.09c-.18.588-.51 1.032-.99 1.332-.48.3-1.062.45-1.746.45-.972 0-1.722-.252-2.25-.756-.516-.504-.774-1.182-.774-2.034 0-.936.336-1.638 1.008-2.106.684-.468 1.68-.702 2.988-.702h1.692v-.792c0-.576-.156-1.02-.468-1.332-.312-.312-.798-.468-1.458-.468-.552 0-1.002.12-1.35.36-.348.24-.642.546-.882.918l-1.17-1.062c.312-.528.75-.96 1.314-1.296.564-.348 1.302-.522 2.214-.522 1.212 0 2.142.282 2.79.846.648.564.972 1.374.972 2.43v4.698h.99V61h-1.098Zm-3.96-1.278c.612 0 1.116-.132 1.512-.396.396-.276.594-.642.594-1.098v-1.35h-1.656c-1.356 0-2.034.42-2.034 1.26v.324c0 .42.138.738.414.954.288.204.678.306 1.17.306Zm12.29-.27h-.071c-.084.228-.198.45-.342.666a2.149 2.149 0 0 1-.522.576 2.477 2.477 0 0 1-.756.378 3.191 3.191 0 0 1-1.008.144c-.972 0-1.728-.312-2.268-.936-.528-.624-.792-1.518-.792-2.682V51.64h1.962v5.706c0 1.452.6 2.178 1.8 2.178.252 0 .498-.03.738-.09.24-.072.45-.174.63-.306.192-.132.342-.3.45-.504.12-.204.18-.444.18-.72V51.64h1.962V61h-1.962v-1.548ZM57.597 61c-.684 0-1.2-.174-1.548-.522-.348-.36-.522-.864-.522-1.512v-5.724h-1.458V51.64h.792c.324 0 .546-.072.666-.216.132-.144.198-.378.198-.702v-1.638h1.764v2.556h1.962v1.602h-1.962v6.156h1.818V61h-1.71Zm7.224.216a4.536 4.536 0 0 1-1.782-.342 3.781 3.781 0 0 1-1.35-.972 4.623 4.623 0 0 1-.864-1.548 6.404 6.404 0 0 1-.306-2.034c0-.744.102-1.416.306-2.016.204-.612.492-1.128.864-1.548a3.687 3.687 0 0 1 1.35-.99 4.536 4.536 0 0 1 1.782-.342c.648 0 1.236.114 1.764.342.54.228.996.558 1.368.99.372.42.66.936.864 1.548.204.6.306 1.272.306 2.016s-.102 1.422-.306 2.034a4.623 4.623 0 0 1-.864 1.548c-.372.42-.828.744-1.368.972a4.405 4.405 0 0 1-1.764.342Zm0-1.62c.672 0 1.212-.204 1.62-.612.408-.42.612-1.044.612-1.872v-1.584c0-.828-.204-1.446-.612-1.854-.408-.42-.948-.63-1.62-.63-.672 0-1.212.21-1.62.63-.408.408-.612 1.026-.612 1.854v1.584c0 .828.204 1.452.612 1.872.408.408.948.612 1.62.612Zm9.098 1.62c-.888 0-1.632-.156-2.232-.468a4.896 4.896 0 0 1-1.566-1.296l1.26-1.152c.348.42.732.75 1.152.99.432.228.93.342 1.494.342.576 0 1.002-.108 1.278-.324.288-.228.432-.54.432-.936 0-.3-.102-.552-.306-.756-.192-.216-.534-.354-1.026-.414l-.864-.108c-.96-.12-1.716-.396-2.268-.828-.54-.444-.81-1.098-.81-1.962 0-.456.084-.858.252-1.206.168-.36.402-.66.702-.9a3.303 3.303 0 0 1 1.098-.576 4.849 4.849 0 0 1 1.422-.198c.84 0 1.524.132 2.052.396.54.264 1.02.63 1.44 1.098l-1.206 1.152a3.02 3.02 0 0 0-.954-.738c-.384-.216-.828-.324-1.332-.324-.54 0-.942.108-1.206.324a1.061 1.061 0 0 0-.378.846c0 .36.114.63.342.81.228.18.594.312 1.098.396l.864.108c1.032.156 1.782.462 2.25.918.48.444.72 1.044.72 1.8 0 .456-.09.87-.27 1.242-.168.36-.414.672-.738.936a3.497 3.497 0 0 1-1.17.612 5.068 5.068 0 0 1-1.53.216Zm9.183 0c-.672 0-1.272-.114-1.8-.342a3.614 3.614 0 0 1-1.332-.972 4.557 4.557 0 0 1-.828-1.548 6.773 6.773 0 0 1-.288-2.034c0-.744.096-1.416.288-2.016.192-.612.468-1.128.828-1.548.36-.432.804-.762 1.332-.99.528-.228 1.128-.342 1.8-.342.936 0 1.704.21 2.304.63.6.42 1.038.978 1.314 1.674l-1.62.756a1.958 1.958 0 0 0-.702-1.026c-.324-.264-.756-.396-1.296-.396-.72 0-1.266.228-1.638.684-.36.444-.54 1.026-.54 1.746v1.674c0 .72.18 1.308.54 1.764.372.444.918.666 1.638.666.576 0 1.032-.138 1.368-.414.348-.288.624-.666.828-1.134l1.494.792c-.312.768-.78 1.356-1.404 1.764-.624.408-1.386.612-2.286.612ZM95.157 61c-.516 0-.912-.144-1.188-.432-.276-.3-.444-.678-.504-1.134h-.09c-.18.588-.51 1.032-.99 1.332-.48.3-1.062.45-1.746.45-.972 0-1.722-.252-2.25-.756-.516-.504-.774-1.182-.774-2.034 0-.936.336-1.638 1.008-2.106.684-.468 1.68-.702 2.988-.702h1.692v-.792c0-.576-.156-1.02-.468-1.332-.312-.312-.798-.468-1.458-.468-.552 0-1.002.12-1.35.36-.348.24-.642.546-.882.918l-1.17-1.062c.312-.528.75-.96 1.314-1.296.564-.348 1.302-.522 2.214-.522 1.212 0 2.142.282 2.79.846.648.564.972 1.374.972 2.43v4.698h.99V61h-1.098Zm-3.96-1.278c.612 0 1.116-.132 1.512-.396.396-.276.594-.642.594-1.098v-1.35h-1.656c-1.356 0-2.034.42-2.034 1.26v.324c0 .42.138.738.414.954.288.204.678.306 1.17.306ZM99.816 61c-.672 0-1.176-.168-1.512-.504-.324-.348-.486-.828-.486-1.44V47.68h1.962v11.718h1.296V61h-1.26Zm3.764-11.034c-.408 0-.708-.096-.9-.288-.18-.192-.27-.438-.27-.738v-.306c0-.3.09-.546.27-.738.192-.192.492-.288.9-.288.408 0 .702.096.882.288.18.192.27.438.27.738v.306c0 .3-.09.546-.27.738-.18.192-.474.288-.882.288Zm-.99 1.674h1.962V61h-1.962v-9.36Zm4.404 9.36v-9.36h1.962v1.548h.09a3.12 3.12 0 0 1 .918-1.26c.42-.336.99-.504 1.71-.504.96 0 1.704.318 2.232.954.54.624.81 1.518.81 2.682V61h-1.962v-5.688c0-1.464-.588-2.196-1.764-2.196a2.74 2.74 0 0 0-.756.108 1.98 1.98 0 0 0-.648.288c-.192.132-.348.3-.468.504a1.518 1.518 0 0 0-.162.72V61h-1.962Zm18.289.882c0 .972-.372 1.704-1.116 2.196-.744.492-1.956.738-3.636.738-.768 0-1.422-.054-1.962-.162-.528-.096-.966-.24-1.314-.432-.336-.192-.582-.426-.738-.702a1.905 1.905 0 0 1-.234-.954c0-.516.138-.918.414-1.206.288-.288.684-.486 1.188-.594v-.198c-.708-.228-1.062-.708-1.062-1.44 0-.48.162-.846.486-1.098.324-.264.714-.45 1.17-.558V57.4c-.552-.264-.978-.63-1.278-1.098-.288-.48-.432-1.038-.432-1.674 0-.96.318-1.734.954-2.322.648-.588 1.572-.882 2.772-.882.66 0 1.224.096 1.692.288v-.252c0-.42.096-.744.288-.972.204-.24.516-.36.936-.36h1.44v1.584h-1.908v.378c.42.276.744.636.972 1.08.228.432.342.918.342 1.458 0 .948-.324 1.716-.972 2.304-.648.576-1.572.864-2.772.864-.456 0-.864-.048-1.224-.144-.24.084-.45.204-.63.36a.7.7 0 0 0-.27.576c0 .252.114.432.342.54.228.108.552.162.972.162h2.304c1.152 0 1.986.234 2.502.702.516.456.774 1.086.774 1.89Zm-1.836.216a.923.923 0 0 0-.378-.774c-.24-.192-.684-.288-1.332-.288h-3.168c-.432.252-.648.612-.648 1.08 0 .384.15.69.45.918.312.24.834.36 1.566.36h1.224c1.524 0 2.286-.432 2.286-1.296Zm-2.934-5.724c.576 0 1.02-.126 1.332-.378.324-.264.486-.666.486-1.206v-.36c0-.54-.162-.936-.486-1.188-.312-.264-.756-.396-1.332-.396-.576 0-1.026.132-1.35.396-.312.252-.468.648-.468 1.188v.36c0 .54.156.942.468 1.206.324.252.774.378 1.35.378Z"/><path fill="#94979E" d="M331.624 40.192c-.907 0-1.68-.17-2.32-.512a5.01 5.01 0 0 1-1.632-1.44l.992-.832c.395.523.832.923 1.312 1.2.48.267 1.045.4 1.696.4.8 0 1.408-.192 1.824-.576.427-.384.64-.896.64-1.536 0-.533-.16-.944-.48-1.232-.32-.288-.848-.517-1.584-.688l-.912-.208c-1.024-.235-1.808-.587-2.352-1.056-.533-.48-.8-1.152-.8-2.016 0-.49.091-.928.272-1.312.181-.384.432-.704.752-.96.331-.256.72-.448 1.168-.576.459-.139.96-.208 1.504-.208.843 0 1.563.155 2.16.464.608.31 1.12.763 1.536 1.36l-1.008.736a3.474 3.474 0 0 0-1.12-1.008c-.437-.245-.981-.368-1.632-.368-.715 0-1.28.155-1.696.464-.405.299-.608.752-.608 1.36 0 .533.171.939.512 1.216.352.267.88.48 1.584.64l.912.208c1.099.245 1.893.619 2.384 1.12.491.501.736 1.168.736 2 0 .512-.091.976-.272 1.392a2.777 2.777 0 0 1-.752 1.056 3.525 3.525 0 0 1-1.216.672c-.469.16-1.003.24-1.6.24Zm8.785 0a3.802 3.802 0 0 1-1.552-.304 3.242 3.242 0 0 1-1.168-.864 4.042 4.042 0 0 1-.72-1.36 6.227 6.227 0 0 1-.24-1.792c0-.661.08-1.259.24-1.792.171-.533.411-.987.72-1.36.32-.373.709-.661 1.168-.864a3.802 3.802 0 0 1 1.552-.304c.821 0 1.477.181 1.968.544.501.352.875.816 1.12 1.392l-1.072.544a1.943 1.943 0 0 0-.736-.992c-.341-.235-.768-.352-1.28-.352-.384 0-.72.064-1.008.192a1.851 1.851 0 0 0-.72.512 2.07 2.07 0 0 0-.432.784 3.23 3.23 0 0 0-.144.992v1.408c0 .725.192 1.323.576 1.792.395.459.971.688 1.728.688 1.035 0 1.781-.48 2.24-1.44l.928.624a3.265 3.265 0 0 1-1.2 1.424c-.523.352-1.179.528-1.968.528ZM351.064 40c-.48 0-.827-.128-1.04-.384-.203-.256-.331-.576-.384-.96h-.08c-.182.512-.48.896-.896 1.152-.416.256-.912.384-1.488.384-.875 0-1.558-.224-2.048-.672-.48-.448-.72-1.056-.72-1.824 0-.779.282-1.376.848-1.792.576-.416 1.466-.624 2.672-.624h1.632v-.816c0-.587-.16-1.035-.48-1.344-.32-.31-.811-.464-1.472-.464-.502 0-.923.112-1.264.336a2.801 2.801 0 0 0-.832.896l-.768-.72c.224-.448.581-.827 1.072-1.136.49-.32 1.109-.48 1.856-.48 1.002 0 1.781.245 2.336.736.554.49.832 1.173.832 2.048v4.544h.944V40h-.72Zm-3.68-.896c.32 0 .613-.037.88-.112.266-.075.496-.181.688-.32.192-.139.341-.299.448-.48.106-.181.16-.379.16-.592v-1.36h-1.696c-.736 0-1.275.107-1.616.32-.331.213-.496.523-.496.928v.336c0 .405.144.72.432.944.298.224.698.336 1.2.336Zm7.267.896c-.448 0-.79-.123-1.024-.368-.224-.256-.336-.576-.336-.96V28.16h1.28v10.72h1.216V40h-1.136Zm5.783.192a3.762 3.762 0 0 1-1.536-.304 3.442 3.442 0 0 1-1.168-.864 4.297 4.297 0 0 1-.752-1.36 5.854 5.854 0 0 1-.256-1.792c0-.65.085-1.243.256-1.776.181-.533.432-.987.752-1.36.331-.384.72-.677 1.168-.88a3.762 3.762 0 0 1 1.536-.304c.555 0 1.051.101 1.488.304a3.25 3.25 0 0 1 1.12.848c.309.352.544.773.704 1.264.171.49.256 1.03.256 1.616v.608h-5.936v.384c0 .352.053.683.16.992.117.299.277.56.48.784.213.224.469.4.768.528.309.128.656.192 1.04.192.523 0 .976-.123 1.36-.368.395-.245.699-.597.912-1.056l.912.656a3.227 3.227 0 0 1-1.248 1.376c-.565.341-1.237.512-2.016.512Zm0-7.568c-.352 0-.672.064-.96.192a2.14 2.14 0 0 0-.752.512c-.203.224-.363.49-.48.8-.117.299-.176.63-.176.992v.112h4.56v-.176c0-.736-.203-1.323-.608-1.76-.395-.448-.923-.672-1.584-.672Zm13.907 6.032h-.064a3.947 3.947 0 0 1-.32.576 2.195 2.195 0 0 1-.448.496c-.182.139-.4.25-.656.336a2.839 2.839 0 0 1-.896.128c-.854 0-1.531-.272-2.032-.816-.502-.555-.752-1.333-.752-2.336v-5.296h1.28v5.072c0 1.483.629 2.224 1.888 2.224.256 0 .501-.032.736-.096.245-.064.458-.16.64-.288a1.378 1.378 0 0 0 .624-1.2v-5.712h1.28V40h-1.28v-1.344Zm3.685-6.912h1.28v1.344h.064c.214-.523.523-.907.928-1.152.416-.256.912-.384 1.488-.384.512 0 .976.101 1.392.304.416.203.768.49 1.056.864.299.373.523.827.672 1.36.16.533.24 1.13.24 1.792 0 .661-.08 1.259-.24 1.792a3.768 3.768 0 0 1-.672 1.36c-.288.373-.64.661-1.056.864-.416.203-.88.304-1.392.304-1.12 0-1.925-.512-2.416-1.536h-.064V43.2h-1.28V31.744Zm3.408 7.296c.726 0 1.296-.224 1.712-.672.416-.459.624-1.056.624-1.792v-1.408c0-.736-.208-1.328-.624-1.776-.416-.459-.986-.688-1.712-.688-.288 0-.565.043-.832.128-.256.075-.48.181-.672.32-.192.139-.346.31-.464.512-.106.192-.16.4-.16.624v3.072c0 .267.054.507.16.72.118.203.272.379.464.528.192.139.416.245.672.32.267.075.544.112.832.112ZM331.48 58.192a3.72 3.72 0 0 1-1.52-.304 3.398 3.398 0 0 1-1.184-.864 4.297 4.297 0 0 1-.752-1.36 5.554 5.554 0 0 1-.272-1.792 5.5 5.5 0 0 1 .272-1.776c.181-.533.432-.987.752-1.36a3.311 3.311 0 0 1 1.184-.88 3.72 3.72 0 0 1 1.52-.304c.555 0 1.056.101 1.504.304.459.203.853.496 1.184.88.331.373.587.827.768 1.36a5.5 5.5 0 0 1 .272 1.776c0 .661-.091 1.259-.272 1.792a4.125 4.125 0 0 1-.768 1.36 3.398 3.398 0 0 1-1.184.864 3.607 3.607 0 0 1-1.504.304Zm0-1.136c.693 0 1.259-.213 1.696-.64.437-.427.656-1.077.656-1.952V53.28c0-.875-.219-1.525-.656-1.952-.437-.427-1.003-.64-1.696-.64-.693 0-1.259.213-1.696.64-.437.427-.656 1.077-.656 1.952v1.184c0 .875.219 1.525.656 1.952.437.427 1.003.64 1.696.64Zm5.513.944v-8.256h1.28v1.344h.064c.203-.47.485-.843.848-1.12.373-.277.869-.416 1.488-.416.853 0 1.525.277 2.016.832.501.544.752 1.317.752 2.32V58h-1.28v-5.072c0-1.483-.624-2.224-1.872-2.224-.256 0-.507.032-.752.096-.235.064-.448.16-.64.288a1.473 1.473 0 0 0-.464.496c-.107.192-.16.421-.16.688V58h-1.28Zm17.515-1.344h-.064c-.501 1.024-1.307 1.536-2.416 1.536-.512 0-.976-.101-1.392-.304a3.102 3.102 0 0 1-1.072-.864 4.16 4.16 0 0 1-.672-1.36 6.657 6.657 0 0 1-.224-1.792c0-.661.075-1.259.224-1.792a4.16 4.16 0 0 1 .672-1.36 3.102 3.102 0 0 1 1.072-.864c.416-.203.88-.304 1.392-.304.576 0 1.067.128 1.472.384.416.245.731.63.944 1.152h.064V46.16h1.28V58h-1.28v-1.344Zm-2.128.384a2.9 2.9 0 0 0 .816-.112c.267-.075.496-.181.688-.32.192-.15.341-.325.448-.528.117-.213.176-.453.176-.72v-3.072c0-.224-.059-.432-.176-.624a1.474 1.474 0 0 0-.448-.512 2.154 2.154 0 0 0-.688-.32 2.565 2.565 0 0 0-.816-.128c-.725 0-1.296.23-1.712.688-.416.448-.624 1.04-.624 1.776v1.408c0 .736.208 1.333.624 1.792.416.448.987.672 1.712.672Zm8.913 1.152a3.762 3.762 0 0 1-1.536-.304 3.442 3.442 0 0 1-1.168-.864 4.317 4.317 0 0 1-.752-1.36 5.884 5.884 0 0 1-.256-1.792c0-.65.086-1.243.256-1.776.182-.533.432-.987.752-1.36.331-.384.72-.677 1.168-.88a3.762 3.762 0 0 1 1.536-.304c.555 0 1.051.101 1.488.304a3.24 3.24 0 0 1 1.12.848c.31.352.544.773.704 1.264.171.49.256 1.03.256 1.616v.608h-5.936v.384c0 .352.054.683.16.992.118.299.278.56.48.784.214.224.47.4.768.528a2.7 2.7 0 0 0 1.04.192c.523 0 .976-.123 1.36-.368.395-.245.699-.597.912-1.056l.912.656a3.215 3.215 0 0 1-1.248 1.376c-.565.341-1.237.512-2.016.512Zm0-7.568c-.352 0-.672.064-.96.192a2.15 2.15 0 0 0-.752.512c-.202.224-.362.49-.48.8-.117.299-.176.63-.176.992v.112h4.56v-.176c0-.736-.202-1.323-.608-1.76-.394-.448-.922-.672-1.584-.672ZM366.651 58v-8.256h1.28v1.344h.064c.096-.213.202-.41.32-.592.128-.192.277-.357.448-.496.181-.139.389-.245.624-.32.234-.085.512-.128.832-.128a2.94 2.94 0 0 1 1.504.4c.458.256.8.683 1.024 1.28h.032c.149-.448.426-.837.832-1.168.416-.341.976-.512 1.68-.512.842 0 1.498.277 1.968.832.48.544.72 1.317.72 2.32V58h-1.28v-5.072c0-.736-.144-1.29-.432-1.664-.288-.373-.747-.56-1.376-.56-.256 0-.502.032-.736.096-.224.064-.427.16-.608.288a1.376 1.376 0 0 0-.432.496c-.107.192-.16.421-.16.688V58h-1.28v-5.072c0-.736-.144-1.29-.432-1.664-.288-.373-.736-.56-1.344-.56-.256 0-.502.032-.736.096-.235.064-.443.16-.624.288a1.533 1.533 0 0 0-.448.496c-.107.192-.16.421-.16.688V58h-1.28Zm19.648 0c-.48 0-.826-.128-1.04-.384-.202-.256-.33-.576-.384-.96h-.08c-.181.512-.48.896-.896 1.152-.416.256-.912.384-1.488.384-.874 0-1.557-.224-2.048-.672-.48-.448-.72-1.056-.72-1.824 0-.779.283-1.376.848-1.792.576-.416 1.467-.624 2.672-.624h1.632v-.816c0-.587-.16-1.035-.48-1.344-.32-.31-.81-.464-1.472-.464-.501 0-.922.112-1.264.336-.33.224-.608.523-.832.896l-.768-.72c.224-.448.582-.827 1.072-1.136.491-.32 1.11-.48 1.856-.48 1.003 0 1.782.245 2.336.736.555.49.832 1.173.832 2.048v4.544h.944V58h-.72Zm-3.68-.896c.32 0 .614-.037.88-.112.267-.075.496-.181.688-.32.192-.139.342-.299.448-.48.107-.181.16-.379.16-.592v-1.36h-1.696c-.736 0-1.274.107-1.616.32-.33.213-.496.523-.496.928v.336c0 .405.144.72.432.944.299.224.699.336 1.2.336Zm5.907.896v-8.256h1.28v1.344h.064c.203-.47.486-.843.848-1.12.374-.277.87-.416 1.488-.416.854 0 1.526.277 2.016.832.502.544.752 1.317.752 2.32V58h-1.28v-5.072c0-1.483-.624-2.224-1.872-2.224a2.97 2.97 0 0 0-.752.096c-.234.064-.448.16-.64.288a1.483 1.483 0 0 0-.464.496c-.106.192-.16.421-.16.688V58h-1.28Zm14.054-1.344h-.064c-.501 1.024-1.307 1.536-2.416 1.536-.512 0-.976-.101-1.392-.304a3.102 3.102 0 0 1-1.072-.864 4.16 4.16 0 0 1-.672-1.36 6.657 6.657 0 0 1-.224-1.792c0-.661.075-1.259.224-1.792a4.16 4.16 0 0 1 .672-1.36 3.102 3.102 0 0 1 1.072-.864c.416-.203.88-.304 1.392-.304.576 0 1.067.128 1.472.384.416.245.731.63.944 1.152h.064V46.16h1.28V58h-1.28v-1.344Zm-2.128.384a2.9 2.9 0 0 0 .816-.112c.267-.075.496-.181.688-.32.192-.15.341-.325.448-.528.117-.213.176-.453.176-.72v-3.072c0-.224-.059-.432-.176-.624a1.474 1.474 0 0 0-.448-.512 2.154 2.154 0 0 0-.688-.32 2.565 2.565 0 0 0-.816-.128c-.725 0-1.296.23-1.712.688-.416.448-.624 1.04-.624 1.776v1.408c0 .736.208 1.333.624 1.792.416.448.987.672 1.712.672Z"/><rect width="36.002" height="36" x="281" y="25" fill="url(#b)" rx="5.28"/><rect width="35.402" height="35.4" x="281.3" y="25.3" stroke="url(#c)" stroke-opacity=".1" stroke-width=".6" rx="4.98"/><g clip-path="url(#d)"><path fill="#C9CBCF" d="M288.878 53.797a.683.683 0 0 1-.234-.043l-.02-.007a.679.679 0 0 1-.421-.625v-6.075a.676.676 0 0 1 1.35 0v4.445l6.949-6.948a.669.669 0 0 1 .477-.198.673.673 0 0 1 .477 1.152l-6.949 6.948h4.446a.676.676 0 1 1 0 1.35h-6.075ZM301.042 41.648c-.18 0-.35-.07-.477-.198a.668.668 0 0 1-.198-.477c0-.18.07-.35.198-.477l6.949-6.948h-4.447a.676.676 0 0 1 0-1.35h6.076c.08 0 .158.015.235.043l.028.011a.672.672 0 0 1 .36.364c.003.007.007.015.009.023a.663.663 0 0 1 .043.234v6.075a.676.676 0 0 1-1.35 0v-4.445l-6.949 6.948a.671.671 0 0 1-.477.197Z"/></g><path fill="#94979E" d="M480.616 40.192c-.906 0-1.68-.17-2.32-.512a5.01 5.01 0 0 1-1.632-1.44l.992-.832c.395.523.832.923 1.312 1.2.48.267 1.046.4 1.696.4.8 0 1.408-.192 1.824-.576.427-.384.64-.896.64-1.536 0-.533-.16-.944-.48-1.232-.32-.288-.848-.517-1.584-.688l-.912-.208c-1.024-.235-1.808-.587-2.352-1.056-.533-.48-.8-1.152-.8-2.016 0-.49.091-.928.272-1.312.182-.384.432-.704.752-.96.331-.256.72-.448 1.168-.576.459-.139.96-.208 1.504-.208.843 0 1.563.155 2.16.464.608.31 1.12.763 1.536 1.36l-1.008.736a3.463 3.463 0 0 0-1.12-1.008c-.437-.245-.981-.368-1.632-.368-.714 0-1.28.155-1.696.464-.405.299-.608.752-.608 1.36 0 .533.171.939.512 1.216.352.267.88.48 1.584.64l.912.208c1.099.245 1.894.619 2.384 1.12.491.501.736 1.168.736 2 0 .512-.09.976-.272 1.392-.17.416-.421.768-.752 1.056-.33.288-.736.512-1.216.672-.469.16-1.002.24-1.6.24Zm8.785 0a3.802 3.802 0 0 1-1.552-.304 3.242 3.242 0 0 1-1.168-.864 4.042 4.042 0 0 1-.72-1.36 6.227 6.227 0 0 1-.24-1.792c0-.661.08-1.259.24-1.792.171-.533.411-.987.72-1.36.32-.373.709-.661 1.168-.864a3.802 3.802 0 0 1 1.552-.304c.821 0 1.477.181 1.968.544.501.352.875.816 1.12 1.392l-1.072.544a1.943 1.943 0 0 0-.736-.992c-.341-.235-.768-.352-1.28-.352-.384 0-.72.064-1.008.192a1.851 1.851 0 0 0-.72.512 2.07 2.07 0 0 0-.432.784 3.23 3.23 0 0 0-.144.992v1.408c0 .725.192 1.323.576 1.792.395.459.971.688 1.728.688 1.035 0 1.781-.48 2.24-1.44l.928.624a3.265 3.265 0 0 1-1.2 1.424c-.523.352-1.179.528-1.968.528ZM500.056 40c-.48 0-.827-.128-1.04-.384-.203-.256-.331-.576-.384-.96h-.08c-.181.512-.48.896-.896 1.152-.416.256-.912.384-1.488.384-.875 0-1.557-.224-2.048-.672-.48-.448-.72-1.056-.72-1.824 0-.779.283-1.376.848-1.792.576-.416 1.467-.624 2.672-.624h1.632v-.816c0-.587-.16-1.035-.48-1.344-.32-.31-.811-.464-1.472-.464-.501 0-.923.112-1.264.336a2.801 2.801 0 0 0-.832.896l-.768-.72c.224-.448.581-.827 1.072-1.136.491-.32 1.109-.48 1.856-.48 1.003 0 1.781.245 2.336.736.555.49.832 1.173.832 2.048v4.544h.944V40h-.72Zm-3.68-.896c.32 0 .613-.037.88-.112.267-.075.496-.181.688-.32.192-.139.341-.299.448-.48.107-.181.16-.379.16-.592v-1.36h-1.696c-.736 0-1.275.107-1.616.32-.331.213-.496.523-.496.928v.336c0 .405.144.72.432.944.299.224.699.336 1.2.336Zm7.267.896c-.448 0-.79-.123-1.024-.368-.224-.256-.336-.576-.336-.96V28.16h1.28v10.72h1.216V40h-1.136Zm5.783.192a3.762 3.762 0 0 1-1.536-.304 3.442 3.442 0 0 1-1.168-.864 4.317 4.317 0 0 1-.752-1.36 5.884 5.884 0 0 1-.256-1.792c0-.65.086-1.243.256-1.776.182-.533.432-.987.752-1.36.331-.384.72-.677 1.168-.88a3.762 3.762 0 0 1 1.536-.304c.555 0 1.051.101 1.488.304a3.24 3.24 0 0 1 1.12.848c.31.352.544.773.704 1.264.171.49.256 1.03.256 1.616v.608h-5.936v.384c0 .352.054.683.16.992.118.299.278.56.48.784.214.224.47.4.768.528a2.7 2.7 0 0 0 1.04.192c.523 0 .976-.123 1.36-.368.395-.245.699-.597.912-1.056l.912.656a3.215 3.215 0 0 1-1.248 1.376c-.565.341-1.237.512-2.016.512Zm0-7.568c-.352 0-.672.064-.96.192a2.15 2.15 0 0 0-.752.512c-.202.224-.362.49-.48.8-.117.299-.176.63-.176.992v.112h4.56v-.176c0-.736-.202-1.323-.608-1.76-.394-.448-.922-.672-1.584-.672Zm14.099 6.032h-.064c-.502 1.024-1.307 1.536-2.416 1.536-.512 0-.976-.101-1.392-.304a3.093 3.093 0 0 1-1.072-.864 4.16 4.16 0 0 1-.672-1.36 6.618 6.618 0 0 1-.224-1.792c0-.661.074-1.259.224-1.792a4.16 4.16 0 0 1 .672-1.36 3.093 3.093 0 0 1 1.072-.864c.416-.203.88-.304 1.392-.304.576 0 1.066.128 1.472.384.416.245.73.63.944 1.152h.064V28.16h1.28V40h-1.28v-1.344Zm-2.128.384a2.9 2.9 0 0 0 .816-.112c.266-.075.496-.181.688-.32.192-.15.341-.325.448-.528.117-.213.176-.453.176-.72v-3.072c0-.224-.059-.432-.176-.624a1.474 1.474 0 0 0-.448-.512 2.164 2.164 0 0 0-.688-.32 2.565 2.565 0 0 0-.816-.128c-.726 0-1.296.23-1.712.688-.416.448-.624 1.04-.624 1.776v1.408c0 .736.208 1.333.624 1.792.416.448.986.672 1.712.672Zm8.929 1.152a3.72 3.72 0 0 1-1.52-.304 3.398 3.398 0 0 1-1.184-.864 4.297 4.297 0 0 1-.752-1.36 5.554 5.554 0 0 1-.272-1.792 5.5 5.5 0 0 1 .272-1.776c.181-.533.432-.987.752-1.36a3.311 3.311 0 0 1 1.184-.88 3.72 3.72 0 0 1 1.52-.304c.555 0 1.056.101 1.504.304.459.203.853.496 1.184.88.331.373.587.827.768 1.36a5.5 5.5 0 0 1 .272 1.776c0 .661-.091 1.259-.272 1.792a4.125 4.125 0 0 1-.768 1.36 3.398 3.398 0 0 1-1.184.864 3.607 3.607 0 0 1-1.504.304Zm0-1.136c.693 0 1.259-.213 1.696-.64.437-.427.656-1.077.656-1.952V35.28c0-.875-.219-1.525-.656-1.952-.437-.427-1.003-.64-1.696-.64-.693 0-1.259.213-1.696.64-.437.427-.656 1.077-.656 1.952v1.184c0 .875.219 1.525.656 1.952.437.427 1.003.64 1.696.64Zm4.571-7.312h1.248l.88 3.568.88 3.616h.032l1.008-3.616 1.04-3.568h1.136l1.072 3.568 1.024 3.616h.032l.848-3.616.896-3.568h1.2L544.001 40h-1.584l-1.152-3.968-.72-2.512h-.032l-.704 2.512L538.657 40h-1.552l-2.208-8.256ZM547.722 40v-8.256h1.28v1.344h.064c.203-.47.486-.843.848-1.12.374-.277.87-.416 1.488-.416.854 0 1.526.277 2.016.832.502.544.752 1.317.752 2.32V40h-1.28v-5.072c0-1.483-.624-2.224-1.872-2.224a2.97 2.97 0 0 0-.752.096c-.234.064-.448.16-.64.288a1.483 1.483 0 0 0-.464.496c-.106.192-.16.421-.16.688V40h-1.28Zm-68.546 18c-.448 0-.789-.123-1.024-.368-.224-.256-.336-.587-.336-.992v-5.776h-1.36v-1.12h.768c.278 0 .464-.053.56-.16.107-.117.16-.315.16-.592v-1.536h1.152v2.288h1.808v1.12h-1.808v6.016h1.68V58h-1.6Zm6.523.192a3.72 3.72 0 0 1-1.52-.304 3.398 3.398 0 0 1-1.184-.864 4.297 4.297 0 0 1-.752-1.36 5.554 5.554 0 0 1-.272-1.792 5.5 5.5 0 0 1 .272-1.776c.181-.533.432-.987.752-1.36a3.311 3.311 0 0 1 1.184-.88 3.72 3.72 0 0 1 1.52-.304c.555 0 1.056.101 1.504.304.459.203.853.496 1.184.88.331.373.587.827.768 1.36a5.5 5.5 0 0 1 .272 1.776c0 .661-.091 1.259-.272 1.792a4.125 4.125 0 0 1-.768 1.36 3.398 3.398 0 0 1-1.184.864 3.607 3.607 0 0 1-1.504.304Zm0-1.136c.693 0 1.259-.213 1.696-.64.437-.427.656-1.077.656-1.952V53.28c0-.875-.219-1.525-.656-1.952-.437-.427-1.003-.64-1.696-.64-.693 0-1.259.213-1.696.64-.437.427-.656 1.077-.656 1.952v1.184c0 .875.219 1.525.656 1.952.437.427 1.003.64 1.696.64Zm8.142.944v-1.072l4.688-6.064h-4.544v-1.12h6.096v.96l-4.784 6.176h4.912V58h-6.368Zm10.882.192a3.762 3.762 0 0 1-1.536-.304 3.442 3.442 0 0 1-1.168-.864 4.297 4.297 0 0 1-.752-1.36 5.854 5.854 0 0 1-.256-1.792c0-.65.085-1.243.256-1.776.181-.533.432-.987.752-1.36.331-.384.72-.677 1.168-.88a3.762 3.762 0 0 1 1.536-.304c.555 0 1.051.101 1.488.304a3.25 3.25 0 0 1 1.12.848c.309.352.544.773.704 1.264.171.49.256 1.03.256 1.616v.608h-5.936v.384c0 .352.053.683.16.992.117.299.277.56.48.784.213.224.469.4.768.528.309.128.656.192 1.04.192.523 0 .976-.123 1.36-.368.395-.245.699-.597.912-1.056l.912.656a3.227 3.227 0 0 1-1.248 1.376c-.565.341-1.237.512-2.016.512Zm0-7.568c-.352 0-.672.064-.96.192a2.14 2.14 0 0 0-.752.512c-.203.224-.363.49-.48.8-.117.299-.176.63-.176.992v.112h4.56v-.176c0-.736-.203-1.323-.608-1.76-.395-.448-.923-.672-1.584-.672ZM510.08 58v-8.256h1.28v1.52h.08c.15-.395.416-.747.8-1.056.384-.31.912-.464 1.584-.464h.496v1.28h-.752c-.693 0-1.237.133-1.632.4-.384.256-.576.581-.576.976V58h-1.28Zm8.597.192a3.723 3.723 0 0 1-1.52-.304 3.407 3.407 0 0 1-1.184-.864 4.317 4.317 0 0 1-.752-1.36 5.554 5.554 0 0 1-.272-1.792 5.5 5.5 0 0 1 .272-1.776c.182-.533.432-.987.752-1.36a3.32 3.32 0 0 1 1.184-.88 3.723 3.723 0 0 1 1.52-.304c.555 0 1.056.101 1.504.304.459.203.854.496 1.184.88.331.373.587.827.768 1.36.182.533.272 1.125.272 1.776 0 .661-.09 1.259-.272 1.792a4.125 4.125 0 0 1-.768 1.36c-.33.373-.725.661-1.184.864a3.607 3.607 0 0 1-1.504.304Zm0-1.136c.694 0 1.259-.213 1.696-.64.438-.427.656-1.077.656-1.952V53.28c0-.875-.218-1.525-.656-1.952-.437-.427-1.002-.64-1.696-.64-.693 0-1.258.213-1.696.64-.437.427-.656 1.077-.656 1.952v1.184c0 .875.219 1.525.656 1.952.438.427 1.003.64 1.696.64Z"/><rect width="36.002" height="36" x="430" y="25" fill="url(#e)" rx="5.28"/><rect width="35.402" height="35.4" x="430.3" y="25.3" stroke="url(#f)" stroke-opacity=".1" stroke-width=".6" rx="4.98"/><path fill="#C9CBCF" d="M434.391 55.569a.574.574 0 0 0 .812.811l-.812-.811Zm6.662-5.276a.574.574 0 0 0-.574-.574h-5.166a.574.574 0 0 0 0 1.148h4.592v4.591a.574.574 0 0 0 1.148 0v-5.165Zm-5.85 6.087 5.682-5.681-.812-.812-5.682 5.682.812.811ZM461.5 30.209a.574.574 0 0 0-.812-.812l.812.812Zm-6.662 5.275c0 .317.257.574.574.574h5.165a.574.574 0 1 0 0-1.148h-4.591V30.32a.574.574 0 0 0-1.148 0v5.165Zm5.85-6.087-5.682 5.681.812.812 5.682-5.681-.812-.812Z"/><path fill="#ADE0EB" d="M447.916 50.486c-.885 0-1.654-.165-2.308-.496a4.358 4.358 0 0 1-1.613-1.467c-.422-.634-.735-1.412-.939-2.335-.204-.924-.306-1.978-.306-3.163 0-1.17.102-2.218.306-3.141.204-.937.517-1.722.939-2.356a4.19 4.19 0 0 1 1.613-1.447c.654-.344 1.423-.517 2.308-.517 1.769 0 3.069.655 3.899 1.964.844 1.309 1.266 3.141 1.266 5.497 0 2.357-.422 4.19-1.266 5.498-.83 1.309-2.13 1.963-3.899 1.963Zm0-1.984c.49 0 .905-.096 1.245-.289.354-.207.64-.496.858-.868a4.1 4.1 0 0 0 .469-1.323 9.75 9.75 0 0 0 .143-1.736v-2.521c0-.634-.048-1.206-.143-1.716-.095-.523-.252-.971-.469-1.343a2.214 2.214 0 0 0-.858-.847c-.34-.207-.755-.31-1.245-.31-.49 0-.912.103-1.266.31-.341.192-.62.475-.837.847-.218.372-.375.82-.47 1.343a9.405 9.405 0 0 0-.143 1.716v2.521c0 .634.048 1.213.143 1.736.095.51.252.95.47 1.323.217.372.496.661.837.868.354.193.776.29 1.266.29Z"/><mask id="h" width="522" height="298" x="34" y="87" maskUnits="userSpaceOnUse" style="mask-type:alpha"><path fill="url(#g)" d="M34 87h522v298H34z"/></mask><g mask="url(#h)"><path fill="#0C0D0D" fill-opacity=".3" stroke="url(#i)" d="M34.5 95a7.5 7.5 0 0 1 7.5-7.5h506a7.5 7.5 0 0 1 7.5 7.5v338.5h-521V95Z"/><path fill="#303236" d="M34 95a8 8 0 0 1 8-8h506a8 8 0 0 1 8 8v13H34V95Z" opacity=".3"/><path stroke="#303236" d="M34 108h522"/><mask id="k" width="120" height="235" x="400" y="147" maskUnits="userSpaceOnUse" style="mask-type:alpha"><path fill="url(#j)" d="M400 147h120v235H400z"/></mask><g mask="url(#k)"><ellipse cx="415.991" cy="180.666" fill="#94979E" rx="9.6" ry="5.333"/><circle cx="416.063" cy="166.464" r="5.454" fill="#94979E"/><circle cx="416" cy="170" r="14.695" stroke="#0F1010" stroke-width="2.61"/><circle cx="416" cy="170" r="15.478" stroke="#61646B" stroke-width="1.044"/><ellipse cx="459.998" cy="180.666" fill="#94979E" rx="9.6" ry="5.333"/><circle cx="460.071" cy="166.464" r="5.454" fill="#94979E"/><circle cx="460" cy="170" r="14.695" stroke="#0F1010" stroke-width="2.61"/><circle cx="460" cy="170" r="15.478" stroke="#61646B" stroke-width="1.044"/><ellipse cx="503.998" cy="180.666" fill="#94979E" rx="9.6" ry="5.333"/><circle cx="504.071" cy="166.464" r="5.454" fill="#94979E"/><circle cx="504" cy="170" r="14.695" stroke="#0F1010" stroke-width="2.61"/><circle cx="504" cy="170" r="15.478" stroke="#61646B" stroke-width="1.044"/><ellipse cx="415.991" cy="224.666" fill="#94979E" rx="9.6" ry="5.333"/><circle cx="416.063" cy="210.464" r="5.454" fill="#94979E"/><circle cx="416" cy="214" r="14.695" stroke="#0F1010" stroke-width="2.61"/><circle cx="416" cy="214" r="15.478" stroke="#61646B" stroke-width="1.044"/><ellipse cx="459.998" cy="224.666" fill="#94979E" rx="9.6" ry="5.333"/><circle cx="460.071" cy="210.464" r="5.454" fill="#94979E"/><circle cx="460" cy="214" r="14.695" stroke="#0F1010" stroke-width="2.61"/><circle cx="460" cy="214" r="15.478" stroke="#61646B" stroke-width="1.044"/><ellipse cx="503.998" cy="224.666" fill="#94979E" rx="9.6" ry="5.333"/><circle cx="504.071" cy="210.464" r="5.454" fill="#94979E"/><circle cx="504" cy="214" r="14.695" stroke="#0F1010" stroke-width="2.61"/><circle cx="504" cy="214" r="15.478" stroke="#61646B" stroke-width="1.044"/><ellipse cx="415.991" cy="268.666" fill="#94979E" rx="9.6" ry="5.333"/><circle cx="416.063" cy="254.464" r="5.454" fill="#94979E"/><circle cx="416" cy="258" r="14.695" stroke="#0F1010" stroke-width="2.61"/><circle cx="416" cy="258" r="15.478" stroke="#61646B" stroke-width="1.044"/><ellipse cx="459.998" cy="268.666" fill="#94979E" rx="9.6" ry="5.333"/><circle cx="460.071" cy="254.464" r="5.454" fill="#94979E"/><circle cx="460" cy="258" r="14.695" stroke="#0F1010" stroke-width="2.61"/><circle cx="460" cy="258" r="15.478" stroke="#61646B" stroke-width="1.044"/><g opacity=".4"><ellipse cx="503.998" cy="268.666" fill="#94979E" rx="9.6" ry="5.333"/><circle cx="504.071" cy="254.464" r="5.454" fill="#94979E"/><circle cx="504" cy="258" r="14.695" stroke="#0F1010" stroke-width="2.61"/><circle cx="504" cy="258" r="15.478" stroke="#61646B" stroke-width="1.044"/></g><g opacity=".4"><ellipse cx="415.991" cy="312.666" fill="#94979E" rx="9.6" ry="5.333"/><circle cx="416.063" cy="298.464" r="5.454" fill="#94979E"/><circle cx="416" cy="302" r="14.695" stroke="#0F1010" stroke-width="2.61"/><circle cx="416" cy="302" r="15.478" stroke="#61646B" stroke-width="1.044"/></g><g opacity=".4"><ellipse cx="459.998" cy="312.666" fill="#94979E" rx="9.6" ry="5.333"/><circle cx="460.071" cy="298.464" r="5.454" fill="#94979E"/><circle cx="460" cy="302" r="14.695" stroke="#0F1010" stroke-width="2.61"/><circle cx="460" cy="302" r="15.478" stroke="#61646B" stroke-width="1.044"/></g><g opacity=".4"><ellipse cx="503.998" cy="312.666" fill="#94979E" rx="9.6" ry="5.333"/><circle cx="504.071" cy="298.464" r="5.454" fill="#94979E"/><circle cx="504" cy="302" r="14.695" stroke="#0F1010" stroke-width="2.61"/><circle cx="504" cy="302" r="15.478" stroke="#61646B" stroke-width="1.044"/></g><g opacity=".4"><ellipse cx="415.991" cy="356.666" fill="#94979E" rx="9.6" ry="5.333"/><circle cx="416.063" cy="342.464" r="5.454" fill="#94979E"/><circle cx="416" cy="346" r="14.695" stroke="#0F1010" stroke-width="2.61"/><circle cx="416" cy="346" r="15.478" stroke="#61646B" stroke-width="1.044"/></g><g opacity=".4"><ellipse cx="459.998" cy="356.666" fill="#94979E" rx="9.6" ry="5.333"/><circle cx="460.071" cy="342.464" r="5.454" fill="#94979E"/><circle cx="460" cy="346" r="14.695" stroke="#0F1010" stroke-width="2.61"/><circle cx="460" cy="346" r="15.478" stroke="#61646B" stroke-width="1.044"/></g><g opacity=".4"><ellipse cx="503.998" cy="356.666" fill="#94979E" rx="9.6" ry="5.333"/><circle cx="504.071" cy="342.464" r="5.454" fill="#94979E"/><circle cx="504" cy="346" r="14.695" stroke="#0F1010" stroke-width="2.61"/><circle cx="504" cy="346" r="15.478" stroke="#61646B" stroke-width="1.044"/></g><g opacity=".4"><circle cx="416.063" cy="386.464" r="5.454" fill="#94979E"/><circle cx="416" cy="390" r="14.695" stroke="#0F1010" stroke-width="2.61"/><circle cx="416" cy="390" r="15.478" stroke="#61646B" stroke-width="1.044"/></g><g opacity=".4"><circle cx="460.071" cy="386.464" r="5.454" fill="#94979E"/><circle cx="460" cy="390" r="14.695" stroke="#0F1010" stroke-width="2.61"/><circle cx="460" cy="390" r="15.478" stroke="#61646B" stroke-width="1.044"/></g><g opacity=".4"><circle cx="504.071" cy="386.464" r="5.454" fill="#94979E"/><circle cx="504" cy="390" r="14.695" stroke="#0F1010" stroke-width="2.61"/><circle cx="504" cy="390" r="15.478" stroke="#61646B" stroke-width="1.044"/></g></g><path fill="#94979E" d="M402.236 128.926v5.616c0 .867.16 1.525.481 1.976.321.442.884.663 1.69.663.806 0 1.369-.221 1.69-.663.321-.451.481-1.109.481-1.976v-5.616h1.092v5.356c0 .659-.061 1.231-.182 1.716-.113.485-.299.888-.559 1.209-.26.321-.602.559-1.027.715-.416.156-.927.234-1.534.234s-1.118-.078-1.534-.234a2.244 2.244 0 0 1-.988-.715c-.251-.321-.433-.724-.546-1.209a8.274 8.274 0 0 1-.156-1.716v-5.356h1.092Zm9.435 9.23c-.624 0-1.149-.117-1.573-.351a3.67 3.67 0 0 1-1.079-.962l.741-.598c.26.329.55.585.871.767.32.173.693.26 1.118.26.442 0 .784-.095 1.027-.286.251-.191.377-.459.377-.806a.927.927 0 0 0-.26-.663c-.165-.191-.468-.321-.91-.39l-.533-.078a4.746 4.746 0 0 1-.858-.195 2.73 2.73 0 0 1-.689-.364 1.72 1.72 0 0 1-.455-.572 1.91 1.91 0 0 1-.156-.806c0-.329.06-.615.182-.858.121-.251.286-.459.494-.624.216-.165.472-.286.767-.364.294-.087.611-.13.949-.13.546 0 1.001.095 1.365.286.372.191.697.455.975.793l-.689.624a2.013 2.013 0 0 0-.65-.559c-.286-.173-.646-.26-1.079-.26-.434 0-.763.095-.988.286-.217.182-.325.433-.325.754 0 .329.108.568.325.715.225.147.546.256.962.325l.52.078c.745.113 1.274.329 1.586.65.312.312.468.724.468 1.235 0 .65-.221 1.161-.663 1.534-.442.373-1.049.559-1.82.559Zm6.582 0c-.46 0-.876-.082-1.248-.247a2.796 2.796 0 0 1-.949-.702 3.487 3.487 0 0 1-.611-1.105 4.754 4.754 0 0 1-.208-1.456c0-.529.069-1.01.208-1.443.147-.433.351-.802.611-1.105a2.72 2.72 0 0 1 .949-.715 3.045 3.045 0 0 1 1.248-.247c.45 0 .853.082 1.209.247.355.165.658.394.91.689.251.286.442.628.572 1.027.138.399.208.836.208 1.313v.494h-4.823v.312c0 .286.043.555.13.806.095.243.225.455.39.637.173.182.381.325.624.429.251.104.533.156.845.156.424 0 .793-.1 1.105-.299.32-.199.567-.485.741-.858l.741.533a2.625 2.625 0 0 1-1.014 1.118c-.46.277-1.006.416-1.638.416Zm0-6.149a1.9 1.9 0 0 0-.78.156 1.734 1.734 0 0 0-.611.416 2.022 2.022 0 0 0-.39.65 2.173 2.173 0 0 0-.143.806v.091h3.705v-.143c0-.598-.165-1.075-.494-1.43-.321-.364-.75-.546-1.287-.546Zm4.352 5.993v-6.708h1.04v1.235h.065c.122-.321.338-.607.65-.858s.741-.377 1.287-.377h.403v1.04h-.611c-.563 0-1.005.108-1.326.325-.312.208-.468.472-.468.793V138h-1.04Zm6.529.156c-.624 0-1.149-.117-1.573-.351a3.67 3.67 0 0 1-1.079-.962l.741-.598c.26.329.55.585.871.767.32.173.693.26 1.118.26.442 0 .784-.095 1.027-.286.251-.191.377-.459.377-.806a.927.927 0 0 0-.26-.663c-.165-.191-.468-.321-.91-.39l-.533-.078a4.746 4.746 0 0 1-.858-.195 2.73 2.73 0 0 1-.689-.364 1.72 1.72 0 0 1-.455-.572 1.91 1.91 0 0 1-.156-.806c0-.329.06-.615.182-.858.121-.251.286-.459.494-.624.216-.165.472-.286.767-.364.294-.087.611-.13.949-.13.546 0 1.001.095 1.365.286.372.191.697.455.975.793l-.689.624a2.013 2.013 0 0 0-.65-.559c-.286-.173-.646-.26-1.079-.26-.434 0-.763.095-.988.286-.217.182-.325.433-.325.754 0 .329.108.568.325.715.225.147.546.256.962.325l.52.078c.745.113 1.274.329 1.586.65.312.312.468.724.468 1.235 0 .65-.221 1.161-.663 1.534-.442.373-1.049.559-1.82.559ZM73.47 138l-2.21-9.074h1.157l.975 4.368.754 3.393h.026l.845-3.393 1.144-4.368h1.248l1.105 4.368.845 3.38h.039l.78-3.38 1.027-4.368h1.118L79.996 138h-1.209l-1.183-4.524-.832-3.328h-.026l-.858 3.328L74.679 138H73.47Zm12.285.156a3.05 3.05 0 0 1-1.248-.247 2.802 2.802 0 0 1-.95-.702 3.493 3.493 0 0 1-.61-1.105 4.763 4.763 0 0 1-.208-1.456c0-.529.069-1.01.208-1.443.147-.433.35-.802.61-1.105.27-.312.586-.55.95-.715a3.05 3.05 0 0 1 1.248-.247c.45 0 .853.082 1.209.247.355.165.658.394.91.689.251.286.442.628.572 1.027.138.399.208.836.208 1.313v.494H83.83v.312c0 .286.043.555.13.806.095.243.225.455.39.637.173.182.381.325.624.429.251.104.533.156.845.156.424 0 .793-.1 1.105-.299.32-.199.567-.485.74-.858l.742.533a2.62 2.62 0 0 1-1.014 1.118c-.46.277-1.006.416-1.638.416Zm0-6.149a1.9 1.9 0 0 0-.78.156 1.737 1.737 0 0 0-.611.416 2.187 2.187 0 0 0-.533 1.456v.091h3.705v-.143c0-.598-.165-1.075-.494-1.43-.321-.364-.75-.546-1.287-.546Zm6.874 6.149a3.05 3.05 0 0 1-1.248-.247 2.801 2.801 0 0 1-.948-.702 3.493 3.493 0 0 1-.612-1.105 4.763 4.763 0 0 1-.207-1.456c0-.529.069-1.01.207-1.443.148-.433.352-.802.612-1.105.268-.312.584-.55.948-.715a3.05 3.05 0 0 1 1.248-.247c.451 0 .854.082 1.21.247.355.165.658.394.91.689.25.286.442.628.572 1.027.138.399.207.836.207 1.313v.494h-4.823v.312c0 .286.044.555.13.806.096.243.226.455.39.637.174.182.382.325.625.429.25.104.532.156.845.156.424 0 .793-.1 1.105-.299.32-.199.567-.485.74-.858l.741.533a2.62 2.62 0 0 1-1.014 1.118c-.459.277-1.005.416-1.638.416Zm0-6.149a1.9 1.9 0 0 0-.78.156 1.737 1.737 0 0 0-.61.416 2.185 2.185 0 0 0-.533 1.456v.091h3.704v-.143c0-.598-.164-1.075-.493-1.43-.321-.364-.75-.546-1.288-.546Zm4.353-3.627h1.04v6.097h.052l1.027-1.144 1.898-2.041h1.261l-2.483 2.652 2.73 4.056h-1.261l-2.223-3.419-1 1.027V138h-1.04v-9.62Zm7.701 9.62c-.364 0-.642-.1-.832-.299a1.142 1.142 0 0 1-.273-.78v-8.541h1.04v8.71h.988v.91h-.923Zm6.184-6.708h1.027l-3.003 8.268a3.353 3.353 0 0 1-.234.494.96.96 0 0 1-.286.325 1.15 1.15 0 0 1-.429.169 3.01 3.01 0 0 1-.611.052h-.533v-.91h1.053l.507-1.43-2.509-6.968h1.04l1.612 4.563.312 1.092h.065l.364-1.092 1.625-4.563Zm6.01 6.708c-.364 0-.641-.1-.832-.299a1.142 1.142 0 0 1-.273-.78v-8.541h1.04v8.71h.988v.91h-.923Zm4.712.156a3.02 3.02 0 0 1-1.235-.247 2.778 2.778 0 0 1-.962-.702 3.507 3.507 0 0 1-.611-1.105 4.515 4.515 0 0 1-.221-1.456c0-.529.074-1.01.221-1.443.148-.433.351-.802.611-1.105.269-.312.59-.55.962-.715a3.02 3.02 0 0 1 1.235-.247c.451 0 .858.082 1.222.247.373.165.694.403.962.715.269.303.477.672.624 1.105.148.433.221.914.221 1.443 0 .537-.073 1.023-.221 1.456a3.346 3.346 0 0 1-.624 1.105 2.76 2.76 0 0 1-.962.702 2.926 2.926 0 0 1-1.222.247Zm0-.923c.564 0 1.023-.173 1.378-.52.356-.347.533-.875.533-1.586v-.962c0-.711-.177-1.239-.533-1.586-.355-.347-.814-.52-1.378-.52-.563 0-1.022.173-1.378.52-.355.347-.533.875-.533 1.586v.962c0 .711.178 1.239.533 1.586.356.347.815.52 1.378.52Zm9.355.767c-.39 0-.672-.104-.845-.312a1.574 1.574 0 0 1-.312-.78h-.065c-.148.416-.39.728-.728.936-.338.208-.741.312-1.209.312-.711 0-1.266-.182-1.664-.546-.39-.364-.585-.858-.585-1.482 0-.633.229-1.118.689-1.456.468-.338 1.191-.507 2.171-.507h1.326v-.663c0-.477-.13-.841-.39-1.092-.26-.251-.659-.377-1.196-.377-.408 0-.75.091-1.027.273a2.278 2.278 0 0 0-.676.728l-.624-.585c.182-.364.472-.672.871-.923.398-.26.901-.39 1.508-.39.814 0 1.447.199 1.898.598.45.399.676.953.676 1.664v3.692h.767v.91h-.585Zm-2.99-.728c.26 0 .498-.03.715-.091a1.76 1.76 0 0 0 .559-.26 1.3 1.3 0 0 0 .364-.39.938.938 0 0 0 .13-.481v-1.105h-1.378c-.598 0-1.036.087-1.313.26a.842.842 0 0 0-.403.754v.273c0 .329.117.585.351.767.242.182.567.273.975.273Zm9.089-.364h-.052c-.407.832-1.062 1.248-1.963 1.248-.416 0-.793-.082-1.131-.247a2.528 2.528 0 0 1-.871-.702 3.38 3.38 0 0 1-.546-1.105 5.412 5.412 0 0 1-.182-1.456c0-.537.061-1.023.182-1.456a3.38 3.38 0 0 1 .546-1.105c.243-.303.533-.537.871-.702a2.544 2.544 0 0 1 1.131-.247c.468 0 .867.104 1.196.312.338.199.594.511.767.936h.052v-4.004h1.04V138h-1.04v-1.092Zm-1.729.312c.234 0 .455-.03.663-.091a1.75 1.75 0 0 0 .559-.26c.156-.121.277-.264.364-.429.095-.173.143-.368.143-.585v-2.496a.958.958 0 0 0-.143-.507 1.198 1.198 0 0 0-.364-.416 1.75 1.75 0 0 0-.559-.26 2.092 2.092 0 0 0-.663-.104c-.589 0-1.053.186-1.391.559-.338.364-.507.845-.507 1.443v1.144c0 .598.169 1.083.507 1.456.338.364.802.546 1.391.546Z" opacity=".75"/><path stroke="url(#l)" d="M74 151v190" opacity=".7"/><path stroke="url(#m)" d="M121.891 151v190" opacity=".7"/><path stroke="url(#n)" d="M169.102 151v190" opacity=".7"/><path stroke="url(#o)" d="M216.992 151v190" opacity=".7"/><path stroke="url(#p)" d="M264.883 151v190" opacity=".7"/><path stroke="url(#q)" d="M312.094 151v190" opacity=".7"/><path stroke="url(#r)" d="M359.992 151v190" opacity=".7"/><path stroke="url(#s)" stroke-width="2" d="m74 273.359 47.5 41.141L169 272l48 23.5L312.186 167 360 250.163"/><g filter="url(#t)" opacity=".5"><circle cx="312" cy="167" r="7" fill="#ADE0EB"/></g><g filter="url(#u)" opacity=".5"><circle cx="312" cy="167" r="7" fill="#ADE0EB"/></g><circle cx="312" cy="167" r="6" fill="#1C1D1F" stroke="#ADE0EB" stroke-width="2"/><circle cx="122" cy="314" r="3" fill="#ADE0EB"/><circle cx="169" cy="272" r="3" fill="#ADE0EB"/><circle cx="217" cy="295" r="3" fill="#ADE0EB"/><path fill="#61646B" d="M73.98 361.156c-.737 0-1.365-.139-1.885-.416a4.07 4.07 0 0 1-1.326-1.17l.806-.676c.32.425.676.75 1.066.975.39.217.85.325 1.378.325.65 0 1.144-.156 1.482-.468.347-.312.52-.728.52-1.248 0-.433-.13-.767-.39-1.001-.26-.234-.689-.42-1.287-.559l-.74-.169c-.833-.191-1.47-.477-1.912-.858-.433-.39-.65-.936-.65-1.638 0-.399.074-.754.221-1.066a2.17 2.17 0 0 1 .611-.78 2.78 2.78 0 0 1 .95-.468c.372-.113.78-.169 1.221-.169.685 0 1.27.126 1.755.377.494.251.91.62 1.248 1.105l-.819.598a2.814 2.814 0 0 0-.91-.819c-.355-.199-.797-.299-1.326-.299-.58 0-1.04.126-1.378.377-.33.243-.494.611-.494 1.105 0 .433.139.763.416.988.286.217.715.39 1.287.52l.741.169c.893.199 1.538.503 1.937.91.399.407.598.949.598 1.625a2.8 2.8 0 0 1-.22 1.131 2.255 2.255 0 0 1-.612.858 2.86 2.86 0 0 1-.988.546c-.381.13-.814.195-1.3.195ZM124.506 353.356h-.065l-.767 1.521-2.171 3.952-2.171-3.952-.767-1.521h-.065V361h-1.066v-9.074h1.456l2.6 4.888h.065l2.613-4.888h1.404V361h-1.066v-7.644ZM169.544 352.888V361h-1.092v-8.112h-2.886v-.962h6.864v.962h-2.886ZM213.681 361l-2.21-9.074h1.157l.975 4.368.754 3.393h.026l.845-3.393 1.144-4.368h1.248l1.105 4.368.845 3.38h.039l.78-3.38 1.027-4.368h1.118L220.207 361h-1.209l-1.183-4.524-.832-3.328h-.026l-.858 3.328L214.89 361h-1.209ZM265.544 352.888V361h-1.092v-8.112h-2.886v-.962h6.864v.962h-2.886ZM309.578 361v-9.074h5.408v.962h-4.316v3.042h3.939v.962h-3.939V361h-1.092ZM359.98 361.156c-.737 0-1.365-.139-1.885-.416a4.07 4.07 0 0 1-1.326-1.17l.806-.676c.321.425.676.75 1.066.975.39.217.849.325 1.378.325.65 0 1.144-.156 1.482-.468.347-.312.52-.728.52-1.248 0-.433-.13-.767-.39-1.001-.26-.234-.689-.42-1.287-.559l-.741-.169c-.832-.191-1.469-.477-1.911-.858-.433-.39-.65-.936-.65-1.638 0-.399.074-.754.221-1.066.147-.312.351-.572.611-.78.269-.208.585-.364.949-.468.373-.113.78-.169 1.222-.169.685 0 1.27.126 1.755.377.494.251.91.62 1.248 1.105l-.819.598a2.815 2.815 0 0 0-.91-.819c-.355-.199-.797-.299-1.326-.299-.581 0-1.04.126-1.378.377-.329.243-.494.611-.494 1.105 0 .433.139.763.416.988.286.217.715.39 1.287.52l.741.169c.893.199 1.538.503 1.937.91.399.407.598.949.598 1.625 0 .416-.074.793-.221 1.131a2.256 2.256 0 0 1-.611.858 2.864 2.864 0 0 1-.988.546c-.381.13-.815.195-1.3.195Z"/><path stroke="url(#v)" stroke-dasharray="5 5" d="M312 177v152"/><circle cx="48" cy="98" r="3" fill="white" opacity=".2"/><circle cx="58" cy="98" r="3" fill="white" opacity=".2"/><circle cx="68" cy="98" r="3" fill="white" opacity=".2"/></g><defs><linearGradient id="a" x1="295" x2="295" y1="0" y2="387" gradientUnits="userSpaceOnUse"><stop offset=".381" stop-color="#131415"/><stop offset="1" stop-color="#131415" stop-opacity=".5"/></linearGradient><linearGradient id="b" x1="299.001" x2="299.001" y1="25" y2="61" gradientUnits="userSpaceOnUse"><stop offset=".313" stop-color="#242628"/><stop offset="1" stop-color="#1D1E20"/></linearGradient><linearGradient id="c" x1="299.001" x2="299.001" y1="25" y2="61" gradientUnits="userSpaceOnUse"><stop stop-color="white"/><stop offset="1" stop-color="white" stop-opacity=".05"/></linearGradient><linearGradient id="e" x1="448.001" x2="448.001" y1="25" y2="61" gradientUnits="userSpaceOnUse"><stop offset=".313" stop-color="#242628"/><stop offset="1" stop-color="#1D1E20"/></linearGradient><linearGradient id="f" x1="448.001" x2="448.001" y1="25" y2="61" gradientUnits="userSpaceOnUse"><stop stop-color="white"/><stop offset="1" stop-color="white" stop-opacity=".05"/></linearGradient><linearGradient id="g" x1="295" x2="295" y1="87" y2="385" gradientUnits="userSpaceOnUse"><stop offset=".799" stop-color="#D9D9D9"/><stop offset="1" stop-color="#D9D9D9" stop-opacity="0"/></linearGradient><linearGradient id="i" x1="295" x2="295" y1="87" y2="434" gradientUnits="userSpaceOnUse"><stop offset=".441" stop-color="#303236"/><stop offset=".828" stop-color="#303236" stop-opacity="0"/></linearGradient><linearGradient id="j" x1="460" x2="460" y1="147" y2="382" gradientUnits="userSpaceOnUse"><stop offset=".352" stop-color="#D9D9D9"/><stop offset=".983" stop-color="#D9D9D9" stop-opacity="0"/></linearGradient><linearGradient id="l" x1="74.5" x2="74.5" y1="151" y2="341" gradientUnits="userSpaceOnUse"><stop stop-color="#262626" stop-opacity="0"/><stop offset=".205" stop-color="#373737"/><stop offset=".79" stop-color="#262626"/><stop offset="1" stop-color="#262626" stop-opacity="0"/></linearGradient><linearGradient id="m" x1="122.391" x2="122.391" y1="151" y2="341" gradientUnits="userSpaceOnUse"><stop stop-color="#262626" stop-opacity="0"/><stop offset=".205" stop-color="#373737"/><stop offset=".79" stop-color="#262626"/><stop offset="1" stop-color="#262626" stop-opacity="0"/></linearGradient><linearGradient id="n" x1="169.602" x2="169.602" y1="151" y2="341" gradientUnits="userSpaceOnUse"><stop stop-color="#262626" stop-opacity="0"/><stop offset=".205" stop-color="#373737"/><stop offset=".79" stop-color="#262626"/><stop offset="1" stop-color="#262626" stop-opacity="0"/></linearGradient><linearGradient id="o" x1="217.492" x2="217.492" y1="151" y2="341" gradientUnits="userSpaceOnUse"><stop stop-color="#262626" stop-opacity="0"/><stop offset=".205" stop-color="#373737"/><stop offset=".79" stop-color="#262626"/><stop offset="1" stop-color="#262626" stop-opacity="0"/></linearGradient><linearGradient id="p" x1="265.383" x2="265.383" y1="151" y2="341" gradientUnits="userSpaceOnUse"><stop stop-color="#262626" stop-opacity="0"/><stop offset=".205" stop-color="#373737"/><stop offset=".79" stop-color="#262626"/><stop offset="1" stop-color="#262626" stop-opacity="0"/></linearGradient><linearGradient id="q" x1="312.594" x2="312.594" y1="151" y2="341" gradientUnits="userSpaceOnUse"><stop stop-color="#262626" stop-opacity="0"/><stop offset=".205" stop-color="#373737"/><stop offset=".79" stop-color="#262626"/><stop offset="1" stop-color="#262626" stop-opacity="0"/></linearGradient><linearGradient id="r" x1="360.492" x2="360.492" y1="151" y2="341" gradientUnits="userSpaceOnUse"><stop stop-color="#262626" stop-opacity="0"/><stop offset=".205" stop-color="#373737"/><stop offset=".79" stop-color="#262626"/><stop offset="1" stop-color="#262626" stop-opacity="0"/></linearGradient><linearGradient id="v" x1="312.5" x2="312.5" y1="177" y2="329" gradientUnits="userSpaceOnUse"><stop offset=".663" stop-color="#C9CBCF" stop-opacity=".8"/><stop offset=".967" stop-color="#C9CBCF" stop-opacity="0"/></linearGradient><filter id="t" width="54" height="54" x="285" y="140" color-interpolation-filters="sRGB" filterUnits="userSpaceOnUse"><feFlood flood-opacity="0" result="BackgroundImageFix"/><feBlend in="SourceGraphic" in2="BackgroundImageFix" mode="normal" result="shape"/><feGaussianBlur result="effect1_foregroundBlur_25710_5681" stdDeviation="10"/></filter><filter id="u" width="26" height="26" x="299" y="154" color-interpolation-filters="sRGB" filterUnits="userSpaceOnUse"><feFlood flood-opacity="0" result="BackgroundImageFix"/><feBlend in="SourceGraphic" in2="BackgroundImageFix" mode="normal" result="shape"/><feGaussianBlur result="effect1_foregroundBlur_25710_5681" stdDeviation="3"/></filter><radialGradient id="s" cx="0" cy="0" r="1" gradientTransform="matrix(0 267.5 -143 0 217 238)" gradientUnits="userSpaceOnUse"><stop offset=".738" stop-color="#ADE0EB"/><stop offset="1" stop-color="#ADE0EB" stop-opacity="0"/></radialGradient><clipPath id="d"><path fill="white" d="M288.172 32.198h21.601v21.6h-21.601z"/></clipPath></defs></svg>