<svg width="56" height="56" viewBox="0 0 56 56" fill="none" xmlns="http://www.w3.org/2000/svg">
<path d="M15 45C13.9 45 12.958 44.608 12.174 43.824C11.39 43.04 10.9987 42.0987 11 41C11 39.9 11.392 38.958 12.176 38.174C12.96 37.39 13.9013 36.9987 15 37C16.1 37 17.042 37.392 17.826 38.176C18.61 38.96 19.0013 39.9013 19 41C19 42.1 18.608 43.042 17.824 43.826C17.04 44.61 16.0987 45.0013 15 45ZM39 45C39 41.1333 38.2667 37.508 36.8 34.124C35.3333 30.74 33.3247 27.7733 30.774 25.224C28.226 22.6747 25.26 20.6667 21.876 19.2C18.492 17.7333 14.8667 17 11 17V11C15.7 11 20.1167 11.892 24.25 13.676C28.3833 15.46 31.9833 17.8847 35.05 20.95C38.1167 24.0167 40.542 27.6167 42.326 31.75C44.11 35.8833 45.0013 40.3 45 45H39ZM27 45C27 40.5667 25.442 36.7913 22.326 33.674C19.21 30.5567 15.4347 28.9987 11 29V23C14.0667 23 16.9333 23.5753 19.6 24.726C22.2667 25.8767 24.592 27.4433 26.576 29.426C28.5587 31.4087 30.1253 33.7333 31.276 36.4C32.4267 39.0667 33.0013 41.9333 33 45H27Z" fill="#F0F075"/>
</svg>
