<svg width="56" height="56" viewBox="0 0 56 56" fill="none" xmlns="http://www.w3.org/2000/svg">
<path d="M46 16.375C44.65 17.05 43.3 17.275 41.725 17.5C43.3 16.6 44.425 15.25 44.875 13.45C43.525 14.35 41.95 14.8 40.15 15.25C38.8 13.9 36.775 13 34.75 13C30.925 13 27.55 16.375 27.55 20.425C27.55 21.1 27.55 21.55 27.775 22C21.7 21.775 16.075 18.85 12.475 14.35C11.8 15.475 11.575 16.6 11.575 18.175C11.575 20.65 12.925 22.9 14.95 24.25C13.825 24.25 12.7 23.8 11.575 23.35C11.575 26.95 14.05 29.875 17.425 30.55C16.75 30.775 16.075 30.775 15.4 30.775C14.95 30.775 14.5 30.775 14.05 30.55C14.95 33.475 17.65 35.725 21.025 35.725C18.55 37.75 15.4 38.875 11.8 38.875C11.125 38.875 10.675 38.875 10 38.875C13.375 40.9 17.2 42.25 21.25 42.25C34.75 42.25 42.175 31 42.175 21.325C42.175 21.1 42.175 20.65 42.175 20.425C43.75 19.3 45.1 17.95 46 16.375Z" fill="#ADE0EB"/>
</svg>
