<svg width="56" height="56" viewBox="0 0 56 56" fill="none" xmlns="http://www.w3.org/2000/svg">
<path d="M55.5333 16.8C55.5333 16.8 55.0667 12.8334 53.2 11.2C51.1 8.86669 48.7667 8.86669 47.6 8.86669C39.6667 8.40002 28 8.40002 28 8.40002C28 8.40002 16.3333 8.40002 8.4 8.86669C7.23333 9.10002 4.9 9.10003 2.8 11.2C1.16667 12.8334 0.466667 16.8 0.466667 16.8C0.466667 16.8 0 21.2334 0 25.9V30.1C0 34.5334 0.466667 39.2 0.466667 39.2C0.466667 39.2 0.933333 43.1667 2.8 44.8C4.9 47.1334 7.7 46.9 8.86667 47.1334C13.3 47.6 28 47.6 28 47.6C28 47.6 39.6667 47.6 47.6 46.9C48.7667 46.6667 51.1 46.6667 53.2 44.5667C54.8333 42.9334 55.5333 38.9667 55.5333 38.9667C55.5333 38.9667 56 34.5334 56 29.8667V25.6667C56 21.2334 55.5333 16.8 55.5333 16.8ZM22.1667 35.2334V19.6L37.3333 27.5334L22.1667 35.2334Z" fill="#FFCCE6"/>
</svg>
