<svg width="18" height="18" viewBox="0 0 18 18" fill="none" xmlns="http://www.w3.org/2000/svg">
<g clip-path="url(#clip0_18231_145129)">
<path d="M4.10938 10.1777C4.40295 10.1777 4.64062 10.4154 4.64062 10.709V13.2578H7.19043L7.29688 13.2686C7.53922 13.318 7.72168 13.5321 7.72168 13.7891C7.72168 14.046 7.53923 14.2601 7.29688 14.3096L7.19043 14.3203H4.64062V16.8682C4.64043 17.1616 4.40283 17.3994 4.10938 17.3994C3.81592 17.3994 3.57832 17.1616 3.57812 16.8682V14.3203H1.03125C0.737675 14.3203 0.5 14.0826 0.5 13.7891C0.500002 13.4955 0.737676 13.2578 1.03125 13.2578H3.57812V10.709C3.57812 10.4154 3.8158 10.1777 4.10938 10.1777ZM13.7822 10.6191C13.9713 10.6191 14.1459 10.7195 14.2412 10.8828L17.3213 16.1611C17.4172 16.3255 17.418 16.5293 17.3232 16.6943C17.2285 16.8593 17.0525 16.9608 16.8623 16.9609H10.7031C10.5129 16.9609 10.337 16.8593 10.2422 16.6943C10.1474 16.5293 10.1482 16.3255 10.2441 16.1611L13.3232 10.8828L13.3623 10.8242C13.4621 10.6956 13.6168 10.6192 13.7822 10.6191ZM11.6289 15.8975H15.9355L13.7822 12.2041L11.6289 15.8975ZM4.11035 0.5C6.10454 0.5 7.72152 2.1162 7.72168 4.11035C7.72168 6.10464 6.10464 7.72168 4.11035 7.72168C2.1162 7.72152 0.5 6.10454 0.5 4.11035C0.500164 2.11631 2.11631 0.500164 4.11035 0.5ZM16.5342 0.950195C16.7766 0.999645 16.959 1.21372 16.959 1.4707V6.75C16.9588 7.04332 16.7211 7.28108 16.4277 7.28125H11.1484C10.855 7.28125 10.6174 7.04343 10.6172 6.75V1.4707L10.6279 1.36328C10.6776 1.12122 10.8917 0.939453 11.1484 0.939453H16.4277L16.5342 0.950195ZM4.11035 1.5625C2.70346 1.56266 1.56266 2.70346 1.5625 4.11035C1.5625 5.51739 2.70335 6.65804 4.11035 6.6582C5.51749 6.6582 6.6582 5.51749 6.6582 4.11035C6.65804 2.70335 5.51739 1.5625 4.11035 1.5625ZM11.6797 6.21777H15.8955V2.00195H11.6797V6.21777Z" fill="#00E599"/>
</g>
<defs>
<clipPath id="clip0_18231_145129">
<rect width="18" height="18" fill="white"/>
</clipPath>
</defs>
</svg>
