<svg xmlns="http://www.w3.org/2000/svg" width="832" height="460" fill="none" viewBox="0 0 832 460">
  <mask id="b" width="832" height="460" x="0" y="0" maskUnits="userSpaceOnUse" style="mask-type:alpha">
    <path fill="url(#a)" d="M0 0h832v460H0z"/>
  </mask>
  <g mask="url(#b)">
    <path fill="#AFB1B6" d="M19.024 113.64h2.16l1.616 8.288 1.616-8.288h2.16V125h-1.344v-9.904l-1.84 9.104h-1.184l-1.84-9.12V125h-1.344v-11.36Zm13.05 11.552c-2.352 0-3.872-1.744-3.872-4.432 0-2.688 1.52-4.432 3.872-4.432s3.872 1.744 3.872 4.432c0 2.688-1.52 4.432-3.872 4.432Zm-2.496-4.432c0 1.984.928 3.184 2.496 3.184 1.584 0 2.496-1.2 2.496-3.184 0-1.984-.912-3.184-2.496-3.184-1.568 0-2.496 1.2-2.496 3.184Zm8.506-4.24h1.2l.032 1.488c.431-1.168 1.44-1.68 2.623-1.68 1.92 0 2.864 1.424 2.864 3.216V125h-1.311v-5.072c0-1.568-.528-2.432-1.825-2.432-1.376 0-2.272.864-2.272 2.432V125h-1.312v-8.48Zm16.041-2.88V125h-1.184l-.048-1.248c-.48.896-1.392 1.44-2.704 1.44-2.448 0-3.584-2.08-3.584-4.432 0-2.352 1.136-4.432 3.584-4.432 1.248 0 2.144.48 2.624 1.344v-4.032h1.312Zm-6.144 7.12c0 1.648.704 3.184 2.48 3.184 1.728 0 2.464-1.568 2.464-3.184 0-1.68-.736-3.232-2.464-3.232-1.776 0-2.48 1.536-2.48 3.232Zm8.314-1.744c.304-1.6 1.68-2.688 3.44-2.688 2.048 0 3.408 1.184 3.408 3.552v3.408c0 .384.16.544.528.544h.352V125h-.432c-.992 0-1.6-.528-1.744-1.328-.336.8-1.312 1.52-2.672 1.52-1.68 0-3.024-.896-3.024-2.4 0-1.744 1.312-2.192 3.168-2.56l2.512-.48c-.016-1.472-.832-2.176-2.096-2.176-1.056 0-1.824.64-2.032 1.552l-1.408-.112Zm1.232 3.776c0 .688.576 1.248 1.824 1.232 1.408 0 2.512-.992 2.512-2.656v-.448l-2.032.352c-1.248.224-2.304.32-2.304 1.52Zm7.77-6.272h1.392l2.576 7.072 2.496-7.072h1.392l-3.44 9.552c-.32.912-.928 1.328-1.888 1.328h-1.008v-1.168h.864c.432 0 .704-.16.864-.608l.304-.784H68.4l-3.104-8.32Z"/>
    <path fill="#65FDBE" d="M20 149h2v2h-2zM29 149h2v2h-2zM38 149h2v2h-2zM47 149h2v2h-2zM56 149h2v2h-2zM65 149h2v2h-2zM20 158h2v2h-2zM29 158h2v2h-2zM38 158h2v2h-2zM47 158h2v2h-2zM56 158h2v2h-2zM65 158h2v2h-2zM20 167h2v2h-2zM29 167h2v2h-2zM38 167h2v2h-2zM47 167h2v2h-2zM56 167h2v2h-2zM65 167h2v2h-2zM20 176h2v2h-2zM29 176h2v2h-2zM38 176h2v2h-2zM47 176h2v2h-2zM56 176h2v2h-2zM65 176h2v2h-2zM20 185h2v2h-2zM29 185h2v2h-2zM38 185h2v2h-2zM47 185h2v2h-2zM56 185h2v2h-2zM65 185h2v2h-2zM20 194h2v2h-2zM29 194h2v2h-2zM38 194h2v2h-2zM47 194h2v2h-2zM56 194h2v2h-2zM65 194h2v2h-2zM20 203h2v2h-2zM29 203h2v2h-2zM38 203h2v2h-2zM47 203h2v2h-2zM56 203h2v2h-2zM65 203h2v2h-2zM20 212h2v2h-2zM29 212h2v2h-2zM38 212h2v2h-2zM47 212h2v2h-2zM56 212h2v2h-2zM65 212h2v2h-2zM20 221h2v2h-2zM29 221h2v2h-2zM38 221h2v2h-2zM47 221h2v2h-2zM56 221h2v2h-2zM65 221h2v2h-2zM20 230h2v2h-2zM29 230h2v2h-2zM38 230h2v2h-2zM47 230h2v2h-2zM56 230h2v2h-2zM65 230h2v2h-2zM79 149h2v2h-2zM88 149h2v2h-2zM97 149h2v2h-2zM106 149h2v2h-2zM115 149h2v2h-2zM124 149h2v2h-2zM79 158h2v2h-2zM86 156h6v6h-6zM97 158h2v2h-2zM106 158h2v2h-2zM115 158h2v2h-2zM124 158h2v2h-2zM79 167h2v2h-2zM88 167h2v2h-2zM97 167h2v2h-2zM106 167h2v2h-2zM115 167h2v2h-2zM124 167h2v2h-2zM79 176h2v2h-2zM88 176h2v2h-2zM97 176h2v2h-2zM104 174h6v6h-6zM115 176h2v2h-2z"/>
    <path fill="#68E1A4" fill-opacity=".9" d="M122 174h6v6h-6z"/>
    <path fill="#65FDBE" d="M77 183h6v6h-6zM88 185h2v2h-2zM97 185h2v2h-2zM104 183h6v6h-6zM115 185h2v2h-2zM124 185h2v2h-2zM79 194h2v2h-2zM88 194h2v2h-2zM97 194h2v2h-2zM106 194h2v2h-2zM115 194h2v2h-2zM122 192h6v6h-6zM79 203h2v2h-2zM88 203h2v2h-2zM97 203h2v2h-2zM104 201h6v6h-6z"/>
    <path fill="#68E1A4" fill-opacity=".9" d="M113 201h6v6h-6z"/>
    <path fill="#65FDBE" d="M122 201h6v6h-6zM79 212h2v2h-2zM88 212h2v2h-2zM97 212h2v2h-2zM106 212h2v2h-2zM113 210h6v6h-6zM122 210h6v6h-6zM79 221h2v2h-2zM88 221h2v2h-2zM95 219h6v6h-6zM106 221h2v2h-2zM115 221h2v2h-2zM124 221h2v2h-2zM79 230h2v2h-2zM88 230h2v2h-2zM97 230h2v2h-2zM106 230h2v2h-2zM115 230h2v2h-2zM124 230h2v2h-2zM138 149h2v2h-2zM145 147h6v6h-6zM156 149h2v2h-2zM163 147h6v6h-6zM172 147h6v6h-6zM183 149h2v2h-2zM136 156h6v6h-6zM147 158h2v2h-2zM154 156h6v6h-6z"/>
    <path fill="#187C4A" d="M163 156h6v6h-6z"/>
    <path fill="#65FDBE" d="M172 156h6v6h-6zM181 156h6v6h-6zM138 167h2v2h-2zM145 165h6v6h-6zM154 165h6v6h-6zM163 165h6v6h-6zM174 167h2v2h-2zM181 165h6v6h-6zM138 176h2v2h-2zM145 174h6v6h-6zM156 176h2v2h-2zM165 176h2v2h-2zM174 176h2v2h-2zM181 174h6v6h-6zM136 183h6v6h-6zM145 183h6v6h-6zM154 183h6v6h-6zM165 185h2v2h-2zM172 183h6v6h-6zM181 183h6v6h-6zM138 194h2v2h-2zM147 194h2v2h-2zM154 192h6v6h-6z"/>
    <path fill="#187C4A" d="M163 192h6v6h-6z"/>
    <path fill="#65FDBE" d="M172 192h6v6h-6zM181 192h6v6h-6zM136 201h6v6h-6zM145 201h6v6h-6zM156 203h2v2h-2zM163 201h6v6h-6zM172 201h6v6h-6zM183 203h2v2h-2z"/>
    <path fill="#187C4A" d="M136 210h6v6h-6z"/>
    <path fill="#65FDBE" d="M147 212h2v2h-2zM154 210h6v6h-6zM165 212h2v2h-2zM172 210h6v6h-6zM181 210h6v6h-6zM136 219h6v6h-6zM145 219h6v6h-6zM156 221h2v2h-2zM165 221h2v2h-2zM172 219h6v6h-6zM183 221h2v2h-2zM136 228h6v6h-6zM147 230h2v2h-2zM154 228h6v6h-6zM163 228h6v6h-6zM172 228h6v6h-6zM181 228h6v6h-6z"/>
    <path fill="#68E1A4" fill-opacity=".9" d="M195 147h6v6h-6z"/>
    <path fill="#65FDBE" fill-opacity=".9" d="M204 147h6v6h-6z"/>
    <path fill="#65FDBE" d="M213 147h6v6h-6zM222 147h6v6h-6zM231 147h6v6h-6zM242 149h2v2h-2zM195 156h6v6h-6zM204 156h6v6h-6zM215 158h2v2h-2zM222 156h6v6h-6z"/>
    <path fill="#187C4A" d="M231 156h6v6h-6z"/>
    <path fill="#65FDBE" d="M240 156h6v6h-6zM195 165h6v6h-6zM206 167h2v2h-2zM213 165h6v6h-6zM222 165h6v6h-6zM231 165h6v6h-6zM240 165h6v6h-6zM195 174h6v6h-6zM204 174h6v6h-6z"/>
    <path fill="#2AAB6B" d="M213 174h6v6h-6z"/>
    <path fill="#187C4A" d="M222 174h6v6h-6z"/>
    <path fill="#2AAB6B" d="M231 174h6v6h-6z"/>
    <path fill="#65FDBE" d="M240 174h6v6h-6z"/>
    <path fill="#187C4A" d="M195 183h6v6h-6z"/>
    <path fill="#65FDBE" d="M204 183h6v6h-6zM213 183h6v6h-6zM224 185h2v2h-2zM231 183h6v6h-6zM240 183h6v6h-6zM195 192h6v6h-6zM204 192h6v6h-6z"/>
    <path fill="#2AAB6B" d="M213 192h6v6h-6z"/>
    <path fill="#65FDBE" d="M222 192h6v6h-6z"/>
    <path fill="#68E1A4" fill-opacity=".9" d="M231 192h6v6h-6z"/>
    <path fill="#65FDBE" d="M240 192h6v6h-6zM195 201h6v6h-6zM206 203h2v2h-2zM213 201h6v6h-6z"/>
    <path fill="#187C4A" d="M222 201h6v6h-6z"/>
    <path fill="#65FDBE" d="M231 201h6v6h-6zM240 201h6v6h-6zM195 210h6v6h-6zM204 210h6v6h-6z"/>
    <path fill="#65FDBE" fill-opacity=".9" d="M213 210h6v6h-6z"/>
    <path fill="#65FDBE" d="M222 210h6v6h-6zM233 212h2v2h-2zM240 210h6v6h-6zM195 219h6v6h-6zM204 219h6v6h-6zM215 221h2v2h-2zM222 219h6v6h-6z"/>
    <path fill="#187C4A" d="M231 219h6v6h-6z"/>
    <path fill="#65FDBE" d="M242 221h2v2h-2zM195 228h6v6h-6zM204 228h6v6h-6zM213 228h6v6h-6zM222 228h6v6h-6zM231 228h6v6h-6zM240 228h6v6h-6zM254 147h6v6h-6zM263 147h6v6h-6z"/>
    <path fill="#187C4A" d="M272 147h6v6h-6z"/>
    <path fill="#65FDBE" d="M281 147h6v6h-6zM292 149h2v2h-2zM299 147h6v6h-6zM254 156h6v6h-6zM265 158h2v2h-2z"/>
    <path fill="#2AAB6B" d="M272 156h6v6h-6zM281 156h6v6h-6z"/>
    <path fill="#65FDBE" d="M290 156h6v6h-6zM299 156h6v6h-6z"/>
    <path fill="#2AAB6B" d="M254 165h6v6h-6z"/>
    <path fill="#65FDBE" d="M263 165h6v6h-6zM272 165h6v6h-6zM281 165h6v6h-6zM291 166h4v4h-4zM299 165h6v6h-6zM254 174h6v6h-6zM263 174h6v6h-6z"/>
    <path fill="#2AAB6B" d="M272 174h6v6h-6z"/>
    <path fill="#65FDBE" d="M281 174h6v6h-6z"/>
    <path fill="#187C4A" d="M290 174h6v6h-6z"/>
    <path fill="#65FDBE" d="M299 174h6v6h-6zM254 183h6v6h-6zM263 183h6v6h-6zM274 185h2v2h-2zM281 183h6v6h-6zM290 183h6v6h-6zM299 183h6v6h-6z"/>
    <path fill="#187C4A" d="M254 192h6v6h-6z"/>
    <path fill="#65FDBE" d="M263 192h6v6h-6zM272 192h6v6h-6z"/>
    <path fill="#2AAB6B" d="M281 192h6v6h-6z"/>
    <path fill="#65FDBE" fill-opacity=".9" d="M291 193h4v4h-4z"/>
    <path fill="#65FDBE" d="M299 192h6v6h-6zM255 202h4v4h-4zM263 201h6v6h-6zM272 201h6v6h-6zM281 201h6v6h-6zM290 201h6v6h-6zM299 201h6v6h-6zM254 210h6v6h-6zM263 210h6v6h-6z"/>
    <path fill="#187C4A" d="M272 210h6v6h-6z"/>
    <path fill="#65FDBE" d="M281 210h6v6h-6zM292 212h2v2h-2zM299 210h6v6h-6z"/>
    <path fill="#2AAB6B" d="M254 219h6v6h-6z"/>
    <path fill="#65FDBE" d="M265 221h2v2h-2z"/>
    <path fill="#2AAB6B" d="M272 219h6v6h-6z"/>
    <path fill="#65FDBE" d="M281 219h6v6h-6zM290 219h6v6h-6zM299 219h6v6h-6zM254 228h6v6h-6zM263 228h6v6h-6zM272 228h6v6h-6z"/>
    <path fill="#2AAB6B" d="M281 228h6v6h-6z"/>
    <path fill="#65FDBE" d="M290 228h6v6h-6zM299 228h6v6h-6zM313 147h6v6h-6zM322 147h6v6h-6zM331 147h6v6h-6zM341 148h4v4h-4zM349 147h6v6h-6z"/>
    <path fill="#2AAB6B" d="M358 147h6v6h-6z"/>
    <path fill="#65FDBE" d="M313 156h6v6h-6zM324 158h2v2h-2z"/>
    <path fill="#2AAB6B" d="M331 156h6v6h-6z"/>
    <path fill="#65FDBE" d="M340 156h6v6h-6zM349 156h6v6h-6zM358 156h6v6h-6z"/>
    <path fill="#2AAB6B" d="M313 165h6v6h-6z"/>
    <path fill="#65FDBE" d="M322 165h6v6h-6zM331 165h6v6h-6zM342 167h2v2h-2zM349 165h6v6h-6zM358 165h6v6h-6zM313 174h6v6h-6zM324 176h2v2h-2zM331 174h6v6h-6z"/>
    <path fill="#2AAB6B" d="M340 174h6v6h-6z"/>
    <path fill="#65FDBE" d="M349 174h6v6h-6zM358 174h6v6h-6z"/>
    <path fill="#68E1A4" fill-opacity=".9" d="M313 183h6v6h-6z"/>
    <path fill="#65FDBE" d="M324 185h2v2h-2zM331 183h6v6h-6zM340 183h6v6h-6z"/>
    <path fill="#187C4A" d="M349 183h6v6h-6z"/>
    <path fill="#65FDBE" d="M358 183h6v6h-6zM313 192h6v6h-6zM322 192h6v6h-6zM331 192h6v6h-6z"/>
    <path fill="#65FDBE" fill-opacity=".9" d="M341 193h4v4h-4z"/>
    <path fill="#2AAB6B" d="M349 192h6v6h-6z"/>
    <path fill="#65FDBE" d="M360 194h2v2h-2zM313 201h6v6h-6z"/>
    <path fill="#2AAB6B" d="M322 201h6v6h-6zM331 201h6v6h-6z"/>
    <path fill="#187C4A" d="M340 201h6v6h-6z"/>
    <path fill="#65FDBE" d="M349 201h6v6h-6zM358 201h6v6h-6zM314 211h4v4h-4zM322 210h6v6h-6z"/>
    <path fill="#2AAB6B" d="M331 210h6v6h-6z"/>
    <path fill="#65FDBE" d="M340 210h6v6h-6zM351 212h2v2h-2zM358 210h6v6h-6z"/>
    <path fill="#65FDBE" fill-opacity=".9" d="M313 219h6v6h-6z"/>
    <path fill="#65FDBE" d="M322 219h6v6h-6zM331 219h6v6h-6zM340 219h6v6h-6zM349 219h6v6h-6zM359 220h4v4h-4zM315 230h2v2h-2zM322 228h6v6h-6zM331 228h6v6h-6z"/>
    <path fill="#187C4A" d="M340 228h6v6h-6z"/>
    <path fill="#2AAB6B" d="M349 228h6v6h-6z"/>
    <path fill="#65FDBE" d="M358 228h6v6h-6zM372 147h6v6h-6zM381 147h6v6h-6zM392 149h2v2h-2zM399 147h6v6h-6z"/>
    <path fill="#65FDBE" fill-opacity=".9" d="M408 147h6v6h-6z"/>
    <path fill="#65FDBE" d="M417 147h6v6h-6zM372 156h6v6h-6zM383 158h2v2h-2zM390 156h6v6h-6zM401 158h2v2h-2zM408 156h6v6h-6zM419 158h2v2h-2zM374 167h2v2h-2z"/>
    <path fill="#2AAB6B" d="M381 165h6v6h-6z"/>
    <path fill="#65FDBE" d="M390 165h6v6h-6z"/>
    <path fill="#187C4A" d="M399 165h6v6h-6z"/>
    <path fill="#2AAB6B" d="M408 165h6v6h-6z"/>
    <path fill="#65FDBE" d="M417 165h6v6h-6zM372 174h6v6h-6zM383 176h2v2h-2zM390 174h6v6h-6z"/>
    <path fill="#2AAB6B" d="M399 174h6v6h-6zM408 174h6v6h-6zM417 174h6v6h-6z"/>
    <path fill="#65FDBE" d="M372 183h6v6h-6zM383 185h2v2h-2zM390 183h6v6h-6zM401 185h2v2h-2zM408 183h6v6h-6zM419 185h2v2h-2zM374 194h2v2h-2zM381 192h6v6h-6zM392 194h2v2h-2zM399 192h6v6h-6zM410 194h2v2h-2zM417 192h6v6h-6zM372 201h6v6h-6z"/>
    <path fill="#2AAB6B" d="M381 201h6v6h-6z"/>
    <path fill="#65FDBE" d="M390 201h6v6h-6zM401 203h2v2h-2zM410 203h2v2h-2zM417 201h6v6h-6z"/>
    <path fill="#68E1A4" fill-opacity=".9" d="M372 210h6v6h-6z"/>
    <path fill="#65FDBE" d="M381 210h6v6h-6zM392 212h2v2h-2z"/>
    <path fill="#2AAB6B" d="M399 210h6v6h-6z"/>
    <path fill="#65FDBE" d="M408 210h6v6h-6zM417 210h6v6h-6zM372 219h6v6h-6zM383 221h2v2h-2zM390 219h6v6h-6zM399 219h6v6h-6zM410 221h2v2h-2zM419 221h2v2h-2zM374 230h2v2h-2zM381 228h6v6h-6z"/>
    <path fill="#2AAB6B" d="M390 228h6v6h-6z"/>
    <path fill="#65FDBE" d="M399 228h6v6h-6zM410 230h2v2h-2zM417 228h6v6h-6zM482 147h-6v6h6zM471 149h-2v2h2zM462 149h-2v2h2zM453 149h-2v2h2zM446 147h-6v6h6zM435 149h-2v2h2zM480 158h-2v2h2zM472 157h-4v4h4z"/>
    <path fill="#68E1A4" fill-opacity=".9" d="M464 156h-6v6h6z"/>
    <path fill="#65FDBE" d="M454 157h-4v4h4zM444 158h-2v2h2zM435 158h-2v2h2zM482 165h-6v6h6zM471 167h-2v2h2zM462 167h-2v2h2zM453 167h-2v2h2zM445 166h-4v4h4zM435 167h-2v2h2zM480 176h-2v2h2zM473 174h-6v6h6zM462 176h-2v2h2zM455 174h-6v6h6zM444 176h-2v2h2zM437 174h-6v6h6zM482 183h-6v6h6zM471 185h-2v2h2zM462 185h-2v2h2zM455 183h-6v6h6z"/>
    <path fill="#187C4A" d="M446 183h-6v6h6z"/>
    <path fill="#65FDBE" d="M435 185h-2v2h2zM480 194h-2v2h2zM471 194h-2v2h2z"/>
    <path fill="#68E1A4" fill-opacity=".9" d="M464 192h-6v6h6v-6Z"/>
    <path fill="#65FDBE" d="M453 194h-2v2h2zM444 194h-2v2h2zM437 192h-6v6h6zM480 203h-2v2h2zM473 201h-6v6h6zM462 203h-2v2h2z"/>
    <path fill="#68E1A4" fill-opacity=".9" d="M455 201h-6v6h6z"/>
    <path fill="#187C4A" d="M446 201h-6v6h6z"/>
    <path fill="#65FDBE" d="M435 203h-2v2h2zM482 210h-6v6h6zM472 211h-4v4h4zM462 212h-2v2h2zM453 212h-2v2h2zM446 210h-6v6h6zM437 210h-6v6h6zM480 221h-2v2h2zM471 221h-2v2h2zM464 219h-6v6h6zM453 221h-2v2h2zM444 221h-2v2h2zM435 221h-2v2h2z"/>
    <path fill="#68E1A4" fill-opacity=".9" d="M482 228h-6v6h6v-6Z"/>
    <path fill="#65FDBE" d="M471 230h-2v2h2zM462 230h-2v2h2zM453 230h-2v2h2zM446 228h-6v6h6zM435 230h-2v2h2zM492 149h2v2h-2zM499 147h6v6h-6zM510 149h2v2h-2zM519 149h2v2h-2zM526 147h6v6h-6zM535 147h6v6h-6zM490 156h6v6h-6zM499 156h6v6h-6zM509 157h4v4h-4zM517 156h6v6h-6z"/>
    <path fill="#65FDBE" fill-opacity=".9" d="M527 157h4v4h-4z"/>
    <path fill="#187C4A" d="M535 156h6v6h-6z"/>
    <path fill="#65FDBE" d="M490 165h6v6h-6zM501 167h2v2h-2zM508 165h6v6h-6z"/>
    <path fill="#2AAB6B" d="M517 165h6v6h-6z"/>
    <path fill="#65FDBE" d="M528 167h2v2h-2zM535 165h6v6h-6z"/>
    <path fill="#65FDBE" fill-opacity=".9" d="M491 175h4v4h-4z"/>
    <path fill="#68E1A4" fill-opacity=".9" d="M499 174h6v6h-6z"/>
    <path fill="#65FDBE" d="M508 174h6v6h-6z"/>
    <path fill="#187C4A" d="M517 174h6v6h-6z"/>
    <path fill="#2AAB6B" d="M526 174h6v6h-6z"/>
    <path fill="#65FDBE" d="M535 174h6v6h-6zM490 183h6v6h-6z"/>
    <path fill="#65FDBE" fill-opacity=".9" d="M500 184h4v4h-4z"/>
    <path fill="#65FDBE" d="M508 183h6v6h-6zM517 183h6v6h-6zM528 185h2v2h-2zM535 183h6v6h-6zM492 194h2v2h-2zM499 192h6v6h-6z"/>
    <path fill="#65FDBE" fill-opacity=".9" d="M508 192h6v6h-6z"/>
    <path fill="#65FDBE" d="M519 194h2v2h-2zM526 192h6v6h-6zM535 192h6v6h-6zM490 201h6v6h-6zM501 203h2v2h-2zM508 201h6v6h-6zM518 202h4v4h-4zM526 201h6v6h-6zM537 203h2v2h-2zM490 210h6v6h-6zM499 210h6v6h-6zM508 210h6v6h-6zM519 212h2v2h-2zM526 210h6v6h-6zM537 212h2v2h-2zM491 220h4v4h-4z"/>
    <path fill="#2AAB6B" d="M499 219h6v6h-6z"/>
    <path fill="#65FDBE" d="M510 221h2v2h-2zM517 219h6v6h-6zM527 220h4v4h-4zM535 219h6v6h-6zM490 228h6v6h-6zM499 228h6v6h-6zM510 230h2v2h-2zM517 228h6v6h-6z"/>
    <path fill="#65FDBE" fill-opacity=".9" d="M526 228h6v6h-6z"/>
    <path fill="#65FDBE" d="M537 230h2v2h-2zM549 147h6v6h-6zM558 147h6v6h-6z"/>
    <path fill="#2AAB6B" d="M567 147h6v6h-6z"/>
    <path fill="#65FDBE" fill-opacity=".9" d="M576 147h6v6h-6z"/>
    <path fill="#65FDBE" d="M585 147h6v6h-6zM594 147h6v6h-6zM549 156h6v6h-6z"/>
    <path fill="#2AAB6B" d="M558 156h6v6h-6z"/>
    <path fill="#65FDBE" d="M567 156h6v6h-6zM578 158h2v2h-2zM585 156h6v6h-6z"/>
    <path fill="#187C4A" d="M594 156h6v6h-6z"/>
    <path fill="#65FDBE" d="M549 165h6v6h-6zM558 165h6v6h-6zM569 167h2v2h-2z"/>
    <path fill="#2AAB6B" d="M576 165h6v6h-6z"/>
    <path fill="#65FDBE" d="M585 165h6v6h-6zM594 165h6v6h-6zM551 176h2v2h-2zM558 174h6v6h-6z"/>
    <path fill="#68E1A4" fill-opacity=".9" d="M567 174h6v6h-6z"/>
    <path fill="#2AAB6B" d="M576 174h6v6h-6z"/>
    <path fill="#187C4A" d="M585 174h6v6h-6z"/>
    <path fill="#65FDBE" d="M594 174h6v6h-6zM551 185h2v2h-2z"/>
    <path fill="#187C4A" d="M558 183h6v6h-6z"/>
    <path fill="#65FDBE" d="M569 185h2v2h-2z"/>
    <path fill="#187C4A" d="M576 183h6v6h-6z"/>
    <path fill="#65FDBE" d="M585 183h6v6h-6zM594 183h6v6h-6zM549 192h6v6h-6zM558 192h6v6h-6z"/>
    <path fill="#187C4A" d="M567 192h6v6h-6z"/>
    <path fill="#65FDBE" d="M576 192h6v6h-6zM587 194h2v2h-2zM594 192h6v6h-6zM549 201h6v6h-6zM560 203h2v2h-2zM567 201h6v6h-6zM576 201h6v6h-6z"/>
    <path fill="#68E1A4" fill-opacity=".9" d="M585 201h6v6h-6z"/>
    <path fill="#65FDBE" d="M594 201h6v6h-6z"/>
    <path fill="#65FDBE" fill-opacity=".9" d="M549 210h6v6h-6z"/>
    <path fill="#65FDBE" d="M558 210h6v6h-6zM567 210h6v6h-6zM576 210h6v6h-6zM585 210h6v6h-6zM596 212h2v2h-2zM549 219h6v6h-6zM560 221h2v2h-2zM567 219h6v6h-6z"/>
    <path fill="#187C4A" d="M576 219h6v6h-6z"/>
    <path fill="#65FDBE" d="M587 221h2v2h-2zM594 219h6v6h-6zM549 228h6v6h-6zM558 228h6v6h-6z"/>
    <path fill="#187C4A" d="M567 228h6v6h-6z"/>
    <path fill="#65FDBE" d="M576 228h6v6h-6zM585 228h6v6h-6zM594 228h6v6h-6zM608 147h6v6h-6zM617 147h6v6h-6zM626 147h6v6h-6z"/>
    <path fill="#68E1A4" fill-opacity=".9" d="M635 147h6v6h-6z"/>
    <path fill="#65FDBE" d="M644 147h6v6h-6zM655 149h2v2h-2zM608 156h6v6h-6z"/>
    <path fill="#187C4A" d="M617 156h6v6h-6z"/>
    <path fill="#65FDBE" d="M628 158h2v2h-2zM635 156h6v6h-6zM646 158h2v2h-2zM653 156h6v6h-6zM610 167h2v2h-2zM617 165h6v6h-6zM626 165h6v6h-6z"/>
    <path fill="#68E1A4" fill-opacity=".9" d="M635 165h6v6h-6z"/>
    <path fill="#65FDBE" d="M644 165h6v6h-6zM653 165h6v6h-6zM608 174h6v6h-6z"/>
    <path fill="#187C4A" d="M617 174h6v6h-6z"/>
    <path fill="#65FDBE" d="M628 176h2v2h-2zM635 174h6v6h-6zM644 174h6v6h-6zM655 176h2v2h-2zM610 185h2v2h-2z"/>
    <path fill="#187C4A" d="M617 183h6v6h-6z"/>
    <path fill="#65FDBE" d="M626 183h6v6h-6z"/>
    <path fill="#65FDBE" fill-opacity=".9" d="M636 184h4v4h-4z"/>
    <path fill="#187C4A" d="M644 183h6v6h-6z"/>
    <path fill="#65FDBE" d="M653 183h6v6h-6zM608 192h6v6h-6zM619 194h2v2h-2zM628 194h2v2h-2zM635 192h6v6h-6zM644 192h6v6h-6zM653 192h6v6h-6z"/>
    <path fill="#187C4A" d="M608 201h6v6h-6z"/>
    <path fill="#65FDBE" d="M617 201h6v6h-6zM626 201h6v6h-6zM637 203h2v2h-2z"/>
    <path fill="#187C4A" d="M644 201h6v6h-6z"/>
    <path fill="#65FDBE" d="M655 203h2v2h-2zM608 210h6v6h-6zM619 212h2v2h-2zM628 212h2v2h-2zM635 210h6v6h-6z"/>
    <path fill="#187C4A" d="M644 210h6v6h-6z"/>
    <path fill="#65FDBE" d="M653 210h6v6h-6zM608 219h6v6h-6zM619 221h2v2h-2zM626 219h6v6h-6zM637 221h2v2h-2z"/>
    <path fill="#65FDBE" fill-opacity=".9" d="M645 220h4v4h-4z"/>
    <path fill="#65FDBE" d="M655 221h2v2h-2zM610 230h2v2h-2zM617 228h6v6h-6zM626 228h6v6h-6zM637 230h2v2h-2zM644 228h6v6h-6zM653 228h6v6h-6zM667 147h6v6h-6zM676 147h6v6h-6zM685 147h6v6h-6z"/>
    <path fill="#65FDBE" fill-opacity=".9" d="M694 147h6v6h-6zM704 148h4v4h-4z"/>
    <path fill="#65FDBE" d="M712 147h6v6h-6zM667 156h6v6h-6zM676 156h6v6h-6z"/>
    <path fill="#187C4A" d="M685 156h6v6h-6z"/>
    <path fill="#65FDBE" d="M694 156h6v6h-6zM703 156h6v6h-6z"/>
    <path fill="#187C4A" d="M712 156h6v6h-6z"/>
    <path fill="#65FDBE" d="M667 165h6v6h-6z"/>
    <path fill="#65FDBE" fill-opacity=".9" d="M677 166h4v4h-4z"/>
    <path fill="#65FDBE" d="M685 165h6v6h-6zM694 165h6v6h-6zM703 165h6v6h-6zM712 165h6v6h-6z"/>
    <path fill="#187C4A" d="M667 174h6v6h-6z"/>
    <path fill="#65FDBE" fill-opacity=".9" d="M676 174h6v6h-6z"/>
    <path fill="#65FDBE" d="M685 174h6v6h-6zM696 176h2v2h-2zM703 174h6v6h-6z"/>
    <path fill="#65FDBE" fill-opacity=".9" d="M713 175h4v4h-4z"/>
    <path fill="#65FDBE" d="M667 183h6v6h-6zM676 183h6v6h-6z"/>
    <path fill="#65FDBE" fill-opacity=".9" d="M685 183h6v6h-6z"/>
    <path fill="#65FDBE" d="M694 183h6v6h-6zM703 183h6v6h-6zM712 183h6v6h-6zM667 192h6v6h-6zM678 194h2v2h-2zM685 192h6v6h-6zM694 192h6v6h-6z"/>
    <path fill="#187C4A" d="M703 192h6v6h-6z"/>
    <path fill="#65FDBE" d="M714 194h2v2h-2zM667 201h6v6h-6zM676 201h6v6h-6z"/>
    <path fill="#187C4A" d="M685 201h6v6h-6z"/>
    <path fill="#65FDBE" d="M694 201h6v6h-6zM703 201h6v6h-6zM712 201h6v6h-6z"/>
    <path fill="#68E1A4" fill-opacity=".9" d="M667 210h6v6h-6z"/>
    <path fill="#65FDBE" fill-opacity=".9" d="M676 210h6v6h-6z"/>
    <path fill="#65FDBE" d="M685 210h6v6h-6zM694 210h6v6h-6zM703 210h6v6h-6z"/>
    <path fill="#187C4A" d="M712 210h6v6h-6z"/>
    <path fill="#65FDBE" d="M667 219h6v6h-6zM677 220h4v4h-4zM687 221h2v2h-2zM694 219h6v6h-6z"/>
    <path fill="#65FDBE" fill-opacity=".9" d="M703 219h6v6h-6zM712 219h6v6h-6z"/>
    <path fill="#65FDBE" d="M667 228h6v6h-6z"/>
    <path fill="#65FDBE" fill-opacity=".9" d="M676 228h6v6h-6z"/>
    <path fill="#65FDBE" d="M685 228h6v6h-6zM694 228h6v6h-6z"/>
    <path fill="#68E1A4" fill-opacity=".9" d="M703 228h6v6h-6z"/>
    <path fill="#65FDBE" d="M713 229h4v4h-4z"/>
    <path fill="#68E1A4" fill-opacity=".9" d="M726 147h6v6h-6z"/>
    <path fill="#65FDBE" d="M735 147h6v6h-6zM746 149h2v2h-2z"/>
    <path fill="#187C4A" d="M753 147h6v6h-6z"/>
    <path fill="#65FDBE" d="M762 147h6v6h-6zM771 147h6v6h-6zM726 156h6v6h-6z"/>
    <path fill="#65FDBE" fill-opacity=".9" d="M736 157h4v4h-4z"/>
    <path fill="#65FDBE" d="M744 156h6v6h-6zM753 156h6v6h-6zM764 158h2v2h-2zM772 157h4v4h-4z"/>
    <path fill="#68E1A4" fill-opacity=".9" d="M726 165h6v6h-6z"/>
    <path fill="#187C4A" d="M735 165h6v6h-6z"/>
    <path fill="#65FDBE" d="M746 167h2v2h-2zM753 165h6v6h-6zM762 165h6v6h-6zM771 165h6v6h-6zM726 174h6v6h-6zM735 174h6v6h-6zM744 174h6v6h-6zM753 174h6v6h-6zM764 176h2v2h-2zM771 174h6v6h-6zM727 184h4v4h-4zM735 183h6v6h-6z"/>
    <path fill="#68E1A4" fill-opacity=".9" d="M744 183h6v6h-6z"/>
    <path fill="#65FDBE" d="M753 183h6v6h-6zM762 183h6v6h-6zM771 183h6v6h-6zM726 192h6v6h-6z"/>
    <path fill="#187C4A" d="M735 192h6v6h-6z"/>
    <path fill="#65FDBE" d="M744 192h6v6h-6zM755 194h2v2h-2z"/>
    <path fill="#187C4A" d="M762 192h6v6h-6z"/>
    <path fill="#65FDBE" d="M771 192h6v6h-6zM726 201h6v6h-6zM735 201h6v6h-6zM746 203h2v2h-2zM753 201h6v6h-6zM762 201h6v6h-6zM772 202h4v4h-4zM728 212h2v2h-2zM735 210h6v6h-6zM744 210h6v6h-6zM753 210h6v6h-6zM763 211h4v4h-4zM771 210h6v6h-6zM726 219h6v6h-6zM737 221h2v2h-2zM746 221h2v2h-2zM753 219h6v6h-6zM764 221h2v2h-2zM771 219h6v6h-6zM726 228h6v6h-6zM735 228h6v6h-6zM744 228h6v6h-6zM755 230h2v2h-2zM762 228h6v6h-6zM771 228h6v6h-6zM825 149h-2v2h2zM818 147h-6v6h6zM807 149h-2v2h2zM800 147h-6v6h6zM789 149h-2v2h2zM827 156h-6v6h6zM816 158h-2v2h2zM807 158h-2v2h2z"/>
    <path fill="#187C4A" d="M800 156h-6v6h6z"/>
    <path fill="#65FDBE" d="M791 156h-6v6h6zM825 167h-2v2h2zM816 167h-2v2h2zM809 165h-6v6h6zM798 167h-2v2h2zM789 167h-2v2h2zM825 176h-2v2h2zM818 174h-6v6h6zM809 174h-6v6h6zM798 176h-2v2h2z"/>
    <path fill="#68E1A4" fill-opacity=".9" d="M791 174h-6v6h6z"/>
    <path fill="#65FDBE" d="M827 183h-6v6h6zM816 185h-2v2h2zM807 185h-2v2h2z"/>
    <path fill="#187C4A" d="M800 183h-6v6h6z"/>
    <path fill="#65FDBE" d="M789 185h-2v2h2zM825 194h-2v2h2zM818 192h-6v6h6zM807 194h-2v2h2zM798 194h-2v2h2zM791 192h-6v6h6zM827 201h-6v6h6zM818 201h-6v6h6zM807 203h-2v2h2z"/>
    <path fill="#68E1A4" fill-opacity=".9" d="M800 201h-6v6h6z"/>
    <path fill="#65FDBE" d="M791 201h-6v6h6zM825 212h-2v2h2zM816 212h-2v2h2zM807 212h-2v2h2zM798 212h-2v2h2zM791 210h-6v6h6zM836 219h-6v6h6zM825 221h-2v2h2z"/>
    <path fill="#187C4A" d="M818 219h-6v6h6z"/>
    <path fill="#65FDBE" d="M807 221h-2v2h2zM800 219h-6v6h6zM789 221h-2v2h2zM827 228h-6v6h6zM816 230h-2v2h2zM809 228h-6v6h6zM798 230h-2v2h2zM789 230h-2v2h2z"/>
    <path fill="#797D86" d="M29.592 256.192c-1.848 0-3.012-1.728-3.012-4.44 0-2.736 1.164-4.464 3.012-4.464s3.012 1.728 3.012 4.464c0 2.712-1.164 4.44-3.012 4.44Zm-1.968-4.44c0 2.112.768 3.456 1.968 3.456s1.968-1.344 1.968-3.456c0-2.136-.768-3.48-1.968-3.48s-1.968 1.344-1.968 3.48Zm6.967 2.352c.252.696.852 1.104 1.644 1.104 1.284 0 2.064-1.116 2.232-3.144-.468.78-1.248 1.212-2.16 1.212-1.68 0-2.82-1.212-2.82-2.964 0-1.848 1.248-3.024 2.988-3.024.744 0 1.5.276 2.124.9.6.648.9 1.704.9 3.048 0 2.544-.816 4.956-3.264 4.956-1.272 0-2.316-.708-2.7-2.016l1.056-.072Zm-.048-3.792c0 1.164.768 1.98 1.836 1.98 1.164 0 2.004-.816 2.016-1.98.024-1.188-.78-2.04-1.944-2.04-1.116 0-1.908.852-1.908 2.04Zm8.263 4.332h1.392V256h-1.392v-1.356Zm0-2.892v-1.356h1.392v1.356h-1.392Zm7.652 4.44c-1.848 0-3.012-1.728-3.012-4.44 0-2.736 1.164-4.464 3.012-4.464s3.012 1.728 3.012 4.464c0 2.712-1.164 4.44-3.012 4.44Zm-1.968-4.44c0 2.112.768 3.456 1.968 3.456s1.968-1.344 1.968-3.456c0-2.136-.768-3.48-1.968-3.48s-1.968 1.344-1.968 3.48Zm8.923 4.44c-1.848 0-3.012-1.728-3.012-4.44 0-2.736 1.164-4.464 3.012-4.464s3.012 1.728 3.012 4.464c0 2.712-1.164 4.44-3.012 4.44Zm-1.968-4.44c0 2.112.768 3.456 1.968 3.456s1.968-1.344 1.968-3.456c0-2.136-.768-3.48-1.968-3.48s-1.968 1.344-1.968 3.48ZM85.688 255.016h2.592v-5.352h-2.1v-.852h1.008c.912 0 1.308-.408 1.308-1.332h.792v7.536h2.388V256h-5.988v-.984Zm9.859 1.176c-1.848 0-3.012-1.728-3.012-4.44 0-2.736 1.164-4.464 3.012-4.464s3.012 1.728 3.012 4.464c0 2.712-1.164 4.44-3.012 4.44Zm-1.968-4.44c0 2.112.768 3.456 1.968 3.456s1.968-1.344 1.968-3.456c0-2.136-.768-3.48-1.968-3.48s-1.968 1.344-1.968 3.48Zm8.227 2.892h1.392V256h-1.392v-1.356Zm0-2.892v-1.356h1.392v1.356h-1.392Zm7.652 4.44c-1.848 0-3.012-1.728-3.012-4.44 0-2.736 1.164-4.464 3.012-4.464s3.012 1.728 3.012 4.464c0 2.712-1.164 4.44-3.012 4.44Zm-1.968-4.44c0 2.112.768 3.456 1.968 3.456s1.968-1.344 1.968-3.456c0-2.136-.768-3.48-1.968-3.48s-1.968 1.344-1.968 3.48Zm8.923 4.44c-1.848 0-3.012-1.728-3.012-4.44 0-2.736 1.164-4.464 3.012-4.464s3.012 1.728 3.012 4.464c0 2.712-1.164 4.44-3.012 4.44Zm-1.968-4.44c0 2.112.768 3.456 1.968 3.456s1.968-1.344 1.968-3.456c0-2.136-.768-3.48-1.968-3.48s-1.968 1.344-1.968 3.48ZM144.688 255.016h2.592v-5.352h-2.1v-.852h1.008c.912 0 1.308-.408 1.308-1.332h.792v7.536h2.388V256h-5.988v-.984Zm6.955 0h2.592v-5.352h-2.1v-.852h1.008c.912 0 1.308-.408 1.308-1.332h.792v7.536h2.388V256h-5.988v-.984Zm9.163-.372h1.392V256h-1.392v-1.356Zm0-2.892v-1.356h1.392v1.356h-1.392Zm7.652 4.44c-1.848 0-3.012-1.728-3.012-4.44 0-2.736 1.164-4.464 3.012-4.464s3.012 1.728 3.012 4.464c0 2.712-1.164 4.44-3.012 4.44Zm-1.968-4.44c0 2.112.768 3.456 1.968 3.456s1.968-1.344 1.968-3.456c0-2.136-.768-3.48-1.968-3.48s-1.968 1.344-1.968 3.48Zm8.923 4.44c-1.848 0-3.012-1.728-3.012-4.44 0-2.736 1.164-4.464 3.012-4.464s3.012 1.728 3.012 4.464c0 2.712-1.164 4.44-3.012 4.44Zm-1.968-4.44c0 2.112.768 3.456 1.968 3.456s1.968-1.344 1.968-3.456c0-2.136-.768-3.48-1.968-3.48s-1.968 1.344-1.968 3.48ZM203.688 255.016h2.592v-5.352h-2.1v-.852h1.008c.912 0 1.308-.408 1.308-1.332h.792v7.536h2.388V256h-5.988v-.984Zm7.039-4.992c.228-1.584 1.344-2.736 3.048-2.736 1.548 0 2.7 1.032 2.7 2.424 0 1.224-.972 2.076-2.268 2.868-.72.42-2.352 1.572-2.388 2.436h4.716V256h-5.964c0-2.496 1.788-3.444 3.276-4.368.924-.588 1.572-1.248 1.572-1.92 0-.84-.672-1.44-1.644-1.44-1.056 0-1.764.648-1.992 1.824l-1.056-.072Zm9.079 4.62h1.392V256h-1.392v-1.356Zm0-2.892v-1.356h1.392v1.356h-1.392Zm7.652 4.44c-1.848 0-3.012-1.728-3.012-4.44 0-2.736 1.164-4.464 3.012-4.464s3.012 1.728 3.012 4.464c0 2.712-1.164 4.44-3.012 4.44Zm-1.968-4.44c0 2.112.768 3.456 1.968 3.456s1.968-1.344 1.968-3.456c0-2.136-.768-3.48-1.968-3.48s-1.968 1.344-1.968 3.48Zm8.923 4.44c-1.848 0-3.012-1.728-3.012-4.44 0-2.736 1.164-4.464 3.012-4.464s3.012 1.728 3.012 4.464c0 2.712-1.164 4.44-3.012 4.44Zm-1.968-4.44c0 2.112.768 3.456 1.968 3.456s1.968-1.344 1.968-3.456c0-2.136-.768-3.48-1.968-3.48s-1.968 1.344-1.968 3.48ZM262.688 255.016h2.592v-5.352h-2.1v-.852h1.008c.912 0 1.308-.408 1.308-1.332h.792v7.536h2.388V256h-5.988v-.984Zm9.787-4.032c.828.012 1.728-.384 1.728-1.476 0-.756-.636-1.236-1.728-1.236-.876 0-1.524.444-1.632 1.128l-1.056-.072c.156-1.188 1.284-2.04 2.688-2.04 1.632 0 2.784.912 2.784 2.22 0 .948-.504 1.596-1.512 1.884 1.176.348 1.8 1.176 1.8 2.268 0 1.488-1.236 2.532-3.072 2.532-1.692 0-2.916-.984-2.988-2.376l1.032-.072c.096 1.044 1.092 1.464 1.956 1.464 1.236 0 2.028-.636 2.028-1.632 0-1.02-.792-1.644-2.028-1.62l-.648.012v-.996l.648.012Zm6.331 3.66h1.392V256h-1.392v-1.356Zm0-2.892v-1.356h1.392v1.356h-1.392Zm7.652 4.44c-1.848 0-3.012-1.728-3.012-4.44 0-2.736 1.164-4.464 3.012-4.464s3.012 1.728 3.012 4.464c0 2.712-1.164 4.44-3.012 4.44Zm-1.968-4.44c0 2.112.768 3.456 1.968 3.456s1.968-1.344 1.968-3.456c0-2.136-.768-3.48-1.968-3.48s-1.968 1.344-1.968 3.48Zm8.923 4.44c-1.848 0-3.012-1.728-3.012-4.44 0-2.736 1.164-4.464 3.012-4.464s3.012 1.728 3.012 4.464c0 2.712-1.164 4.44-3.012 4.44Zm-1.968-4.44c0 2.112.768 3.456 1.968 3.456s1.968-1.344 1.968-3.456c0-2.136-.768-3.48-1.968-3.48s-1.968 1.344-1.968 3.48ZM321.688 255.016h2.592v-5.352h-2.1v-.852h1.008c.912 0 1.308-.408 1.308-1.332h.792v7.536h2.388V256h-5.988v-.984Zm12.079-7.536v5.784h.984v.984h-.984V256h-1.008v-1.752h-4.416v-.984l4.356-5.784h1.068Zm-4.176 5.784h3.168v-4.236l-3.168 4.236Zm8.215 1.38h1.392V256h-1.392v-1.356Zm0-2.892v-1.356h1.392v1.356h-1.392Zm7.652 4.44c-1.848 0-3.012-1.728-3.012-4.44 0-2.736 1.164-4.464 3.012-4.464s3.012 1.728 3.012 4.464c0 2.712-1.164 4.44-3.012 4.44Zm-1.968-4.44c0 2.112.768 3.456 1.968 3.456s1.968-1.344 1.968-3.456c0-2.136-.768-3.48-1.968-3.48s-1.968 1.344-1.968 3.48Zm8.923 4.44c-1.848 0-3.012-1.728-3.012-4.44 0-2.736 1.164-4.464 3.012-4.464s3.012 1.728 3.012 4.464c0 2.712-1.164 4.44-3.012 4.44Zm-1.968-4.44c0 2.112.768 3.456 1.968 3.456s1.968-1.344 1.968-3.456c0-2.136-.768-3.48-1.968-3.48s-1.968 1.344-1.968 3.48ZM380.688 255.016h2.592v-5.352h-2.1v-.852h1.008c.912 0 1.308-.408 1.308-1.332h.792v7.536h2.388V256h-5.988v-.984Zm12.355-7.536v.984h-3.696l-.36 2.664c.396-.504 1.152-.78 1.812-.78 1.524 0 2.688 1.212 2.688 2.916 0 1.716-1.212 2.928-2.904 2.928-1.512 0-2.772-1.044-2.904-2.376l1.056-.072c.144.912.9 1.464 1.956 1.464 1.02 0 1.74-.804 1.74-1.944 0-1.176-.792-1.944-1.884-1.944-.684 0-1.392.372-1.632.948h-1.092l.66-4.788h4.56Zm3.763 7.164h1.392V256h-1.392v-1.356Zm0-2.892v-1.356h1.392v1.356h-1.392Zm7.652 4.44c-1.848 0-3.012-1.728-3.012-4.44 0-2.736 1.164-4.464 3.012-4.464s3.012 1.728 3.012 4.464c0 2.712-1.164 4.44-3.012 4.44Zm-1.968-4.44c0 2.112.768 3.456 1.968 3.456s1.968-1.344 1.968-3.456c0-2.136-.768-3.48-1.968-3.48s-1.968 1.344-1.968 3.48Zm8.923 4.44c-1.848 0-3.012-1.728-3.012-4.44 0-2.736 1.164-4.464 3.012-4.464s3.012 1.728 3.012 4.464c0 2.712-1.164 4.44-3.012 4.44Zm-1.968-4.44c0 2.112.768 3.456 1.968 3.456s1.968-1.344 1.968-3.456c0-2.136-.768-3.48-1.968-3.48s-1.968 1.344-1.968 3.48ZM439.688 255.016h2.592v-5.352h-2.1v-.852h1.008c.912 0 1.308-.408 1.308-1.332h.792v7.536h2.388V256h-5.988v-.984Zm11.815-5.64c-.252-.696-.852-1.104-1.644-1.104-1.284 0-2.064 1.116-2.232 3.144.468-.78 1.248-1.212 2.16-1.212 1.68 0 2.82 1.212 2.82 2.964 0 1.848-1.248 3.024-2.988 3.024-.744 0-1.5-.276-2.124-.9-.6-.648-.9-1.704-.9-3.048 0-2.544.816-4.956 3.264-4.956 1.272 0 2.316.708 2.7 2.016l-1.056.072Zm-3.804 3.792c-.024 1.188.78 2.04 1.944 2.04 1.116 0 1.908-.852 1.908-2.04 0-1.164-.768-1.98-1.836-1.98-1.164 0-2.004.816-2.016 1.98Zm8.107 1.476h1.392V256h-1.392v-1.356Zm0-2.892v-1.356h1.392v1.356h-1.392Zm7.652 4.44c-1.848 0-3.012-1.728-3.012-4.44 0-2.736 1.164-4.464 3.012-4.464s3.012 1.728 3.012 4.464c0 2.712-1.164 4.44-3.012 4.44Zm-1.968-4.44c0 2.112.768 3.456 1.968 3.456s1.968-1.344 1.968-3.456c0-2.136-.768-3.48-1.968-3.48s-1.968 1.344-1.968 3.48Zm8.923 4.44c-1.848 0-3.012-1.728-3.012-4.44 0-2.736 1.164-4.464 3.012-4.464s3.012 1.728 3.012 4.464c0 2.712-1.164 4.44-3.012 4.44Zm-1.968-4.44c0 2.112.768 3.456 1.968 3.456s1.968-1.344 1.968-3.456c0-2.136-.768-3.48-1.968-3.48s-1.968 1.344-1.968 3.48ZM498.688 255.016h2.592v-5.352h-2.1v-.852h1.008c.912 0 1.308-.408 1.308-1.332h.792v7.536h2.388V256h-5.988v-.984Zm6.991-7.536h6.036v.948c-1.716 2.184-2.928 4.776-2.928 7.572h-1.056c0-2.796 1.14-5.364 2.868-7.536h-4.92v-.984Zm9.127 7.164h1.392V256h-1.392v-1.356Zm0-2.892v-1.356h1.392v1.356h-1.392Zm7.652 4.44c-1.848 0-3.012-1.728-3.012-4.44 0-2.736 1.164-4.464 3.012-4.464s3.012 1.728 3.012 4.464c0 2.712-1.164 4.44-3.012 4.44Zm-1.968-4.44c0 2.112.768 3.456 1.968 3.456s1.968-1.344 1.968-3.456c0-2.136-.768-3.48-1.968-3.48s-1.968 1.344-1.968 3.48Zm8.923 4.44c-1.848 0-3.012-1.728-3.012-4.44 0-2.736 1.164-4.464 3.012-4.464s3.012 1.728 3.012 4.464c0 2.712-1.164 4.44-3.012 4.44Zm-1.968-4.44c0 2.112.768 3.456 1.968 3.456s1.968-1.344 1.968-3.456c0-2.136-.768-3.48-1.968-3.48s-1.968 1.344-1.968 3.48ZM557.688 255.016h2.592v-5.352h-2.1v-.852h1.008c.912 0 1.308-.408 1.308-1.332h.792v7.536h2.388V256h-5.988v-.984Zm9.859 1.176c-1.716 0-3.012-.972-3.012-2.532 0-1.056.624-1.872 1.644-2.28-.78-.336-1.236-.9-1.236-1.752 0-1.344 1.14-2.34 2.604-2.34 1.476 0 2.604.996 2.604 2.34 0 .852-.456 1.416-1.236 1.752 1.032.42 1.644 1.236 1.644 2.28 0 1.56-1.296 2.532-3.012 2.532Zm-1.956-2.616c0 .972.804 1.632 1.956 1.632s1.956-.66 1.956-1.632c0-.948-.804-1.608-1.956-1.608s-1.956.66-1.956 1.608Zm.408-3.948c0 .78.636 1.32 1.548 1.32s1.548-.54 1.548-1.32c0-.804-.636-1.356-1.548-1.356s-1.548.552-1.548 1.356Zm7.807 5.016h1.392V256h-1.392v-1.356Zm0-2.892v-1.356h1.392v1.356h-1.392Zm7.652 4.44c-1.848 0-3.012-1.728-3.012-4.44 0-2.736 1.164-4.464 3.012-4.464s3.012 1.728 3.012 4.464c0 2.712-1.164 4.44-3.012 4.44Zm-1.968-4.44c0 2.112.768 3.456 1.968 3.456s1.968-1.344 1.968-3.456c0-2.136-.768-3.48-1.968-3.48s-1.968 1.344-1.968 3.48Zm8.923 4.44c-1.848 0-3.012-1.728-3.012-4.44 0-2.736 1.164-4.464 3.012-4.464s3.012 1.728 3.012 4.464c0 2.712-1.164 4.44-3.012 4.44Zm-1.968-4.44c0 2.112.768 3.456 1.968 3.456s1.968-1.344 1.968-3.456c0-2.136-.768-3.48-1.968-3.48s-1.968 1.344-1.968 3.48ZM616.688 255.016h2.592v-5.352h-2.1v-.852h1.008c.912 0 1.308-.408 1.308-1.332h.792v7.536h2.388V256h-5.988v-.984Zm7.903-.912c.252.696.852 1.104 1.644 1.104 1.284 0 2.064-1.116 2.232-3.144-.468.78-1.248 1.212-2.16 1.212-1.68 0-2.82-1.212-2.82-2.964 0-1.848 1.248-3.024 2.988-3.024.744 0 1.5.276 2.124.9.6.648.9 1.704.9 3.048 0 2.544-.816 4.956-3.264 4.956-1.272 0-2.316-.708-2.7-2.016l1.056-.072Zm-.048-3.792c0 1.164.768 1.98 1.836 1.98 1.164 0 2.004-.816 2.016-1.98.024-1.188-.78-2.04-1.944-2.04-1.116 0-1.908.852-1.908 2.04Zm8.263 4.332h1.392V256h-1.392v-1.356Zm0-2.892v-1.356h1.392v1.356h-1.392Zm7.652 4.44c-1.848 0-3.012-1.728-3.012-4.44 0-2.736 1.164-4.464 3.012-4.464s3.012 1.728 3.012 4.464c0 2.712-1.164 4.44-3.012 4.44Zm-1.968-4.44c0 2.112.768 3.456 1.968 3.456s1.968-1.344 1.968-3.456c0-2.136-.768-3.48-1.968-3.48s-1.968 1.344-1.968 3.48Zm8.923 4.44c-1.848 0-3.012-1.728-3.012-4.44 0-2.736 1.164-4.464 3.012-4.464s3.012 1.728 3.012 4.464c0 2.712-1.164 4.44-3.012 4.44Zm-1.968-4.44c0 2.112.768 3.456 1.968 3.456s1.968-1.344 1.968-3.456c0-2.136-.768-3.48-1.968-3.48s-1.968 1.344-1.968 3.48ZM675.772 250.024c.228-1.584 1.344-2.736 3.048-2.736 1.548 0 2.7 1.032 2.7 2.424 0 1.224-.972 2.076-2.268 2.868-.72.42-2.352 1.572-2.388 2.436h4.716V256h-5.964c0-2.496 1.788-3.444 3.276-4.368.924-.588 1.572-1.248 1.572-1.92 0-.84-.672-1.44-1.644-1.44-1.056 0-1.764.648-1.992 1.824l-1.056-.072Zm9.775 6.168c-1.848 0-3.012-1.728-3.012-4.44 0-2.736 1.164-4.464 3.012-4.464s3.012 1.728 3.012 4.464c0 2.712-1.164 4.44-3.012 4.44Zm-1.968-4.44c0 2.112.768 3.456 1.968 3.456s1.968-1.344 1.968-3.456c0-2.136-.768-3.48-1.968-3.48s-1.968 1.344-1.968 3.48Zm8.227 2.892h1.392V256h-1.392v-1.356Zm0-2.892v-1.356h1.392v1.356h-1.392Zm7.652 4.44c-1.848 0-3.012-1.728-3.012-4.44 0-2.736 1.164-4.464 3.012-4.464s3.012 1.728 3.012 4.464c0 2.712-1.164 4.44-3.012 4.44Zm-1.968-4.44c0 2.112.768 3.456 1.968 3.456s1.968-1.344 1.968-3.456c0-2.136-.768-3.48-1.968-3.48s-1.968 1.344-1.968 3.48Zm8.923 4.44c-1.848 0-3.012-1.728-3.012-4.44 0-2.736 1.164-4.464 3.012-4.464s3.012 1.728 3.012 4.464c0 2.712-1.164 4.44-3.012 4.44Zm-1.968-4.44c0 2.112.768 3.456 1.968 3.456s1.968-1.344 1.968-3.456c0-2.136-.768-3.48-1.968-3.48s-1.968 1.344-1.968 3.48ZM734.772 250.024c.228-1.584 1.344-2.736 3.048-2.736 1.548 0 2.7 1.032 2.7 2.424 0 1.224-.972 2.076-2.268 2.868-.72.42-2.352 1.572-2.388 2.436h4.716V256h-5.964c0-2.496 1.788-3.444 3.276-4.368.924-.588 1.572-1.248 1.572-1.92 0-.84-.672-1.44-1.644-1.44-1.056 0-1.764.648-1.992 1.824l-1.056-.072Zm6.871 4.992h2.592v-5.352h-2.1v-.852h1.008c.912 0 1.308-.408 1.308-1.332h.792v7.536h2.388V256h-5.988v-.984Zm9.163-.372h1.392V256h-1.392v-1.356Zm0-2.892v-1.356h1.392v1.356h-1.392Zm7.652 4.44c-1.848 0-3.012-1.728-3.012-4.44 0-2.736 1.164-4.464 3.012-4.464s3.012 1.728 3.012 4.464c0 2.712-1.164 4.44-3.012 4.44Zm-1.968-4.44c0 2.112.768 3.456 1.968 3.456s1.968-1.344 1.968-3.456c0-2.136-.768-3.48-1.968-3.48s-1.968 1.344-1.968 3.48Zm8.923 4.44c-1.848 0-3.012-1.728-3.012-4.44 0-2.736 1.164-4.464 3.012-4.464s3.012 1.728 3.012 4.464c0 2.712-1.164 4.44-3.012 4.44Zm-1.968-4.44c0 2.112.768 3.456 1.968 3.456s1.968-1.344 1.968-3.456c0-2.136-.768-3.48-1.968-3.48s-1.968 1.344-1.968 3.48ZM793.772 250.024c.228-1.584 1.344-2.736 3.048-2.736 1.548 0 2.7 1.032 2.7 2.424 0 1.224-.972 2.076-2.268 2.868-.72.42-2.352 1.572-2.388 2.436h4.716V256h-5.964c0-2.496 1.788-3.444 3.276-4.368.924-.588 1.572-1.248 1.572-1.92 0-.84-.672-1.44-1.644-1.44-1.056 0-1.764.648-1.992 1.824l-1.056-.072Zm6.955 0c.228-1.584 1.344-2.736 3.048-2.736 1.548 0 2.7 1.032 2.7 2.424 0 1.224-.972 2.076-2.268 2.868-.72.42-2.352 1.572-2.388 2.436h4.716V256h-5.964c0-2.496 1.788-3.444 3.276-4.368.924-.588 1.572-1.248 1.572-1.92 0-.84-.672-1.44-1.644-1.44-1.056 0-1.764.648-1.992 1.824l-1.056-.072Zm9.079 4.62h1.392V256h-1.392v-1.356Zm0-2.892v-1.356h1.392v1.356h-1.392Zm7.652 4.44c-1.848 0-3.012-1.728-3.012-4.44 0-2.736 1.164-4.464 3.012-4.464s3.012 1.728 3.012 4.464c0 2.712-1.164 4.44-3.012 4.44Zm-1.968-4.44c0 2.112.768 3.456 1.968 3.456s1.968-1.344 1.968-3.456c0-2.136-.768-3.48-1.968-3.48s-1.968 1.344-1.968 3.48Zm8.923 4.44c-1.848 0-3.012-1.728-3.012-4.44 0-2.736 1.164-4.464 3.012-4.464s3.012 1.728 3.012 4.464c0 2.712-1.164 4.44-3.012 4.44Zm-1.968-4.44c0 2.112.768 3.456 1.968 3.456s1.968-1.344 1.968-3.456c0-2.136-.768-3.48-1.968-3.48s-1.968 1.344-1.968 3.48Z"/>
    <path fill="#AFB1B6" d="M26.944 296.64v1.312h-3.472V308h-1.344v-10.048h-3.472v-1.312h8.288ZM35.338 308H34.09l-.016-1.424c-.432 1.104-1.424 1.616-2.544 1.616-1.888 0-2.816-1.424-2.816-3.216v-5.456h1.312v5.056c0 1.584.528 2.448 1.776 2.448 1.328 0 2.224-.864 2.224-2.448v-5.056h1.312V308Zm2.282-4.24c0-2.688 1.52-4.432 3.872-4.432 1.888 0 3.536 1.264 3.664 4.256l.016.592h-6.16c.111 1.744 1.008 2.768 2.48 2.768.912 0 1.76-.544 2.144-1.44l1.407.096c-.495 1.6-1.935 2.592-3.551 2.592-2.352 0-3.872-1.744-3.872-4.432Zm1.424-.752h4.704c-.24-1.792-1.2-2.432-2.256-2.432-1.36 0-2.24.896-2.448 2.432Zm13.673-.88c-.192-.976-1.12-1.552-2.208-1.552-.912 0-1.728.464-1.728 1.344 0 .928 1.072 1.136 2.048 1.408 1.616.4 3.264.912 3.264 2.512 0 1.648-1.616 2.352-3.296 2.352-1.952 0-3.536-1.104-3.664-2.848l1.36-.096c.16 1.024 1.104 1.696 2.304 1.696.944 0 1.92-.256 1.92-1.168 0-.96-1.216-1.088-2.128-1.312-1.568-.384-3.184-.928-3.184-2.464 0-1.712 1.504-2.672 3.248-2.672 1.76 0 3.104 1.072 3.376 2.704l-1.312.096ZM63.4 296.64V308h-1.184l-.048-1.248c-.48.896-1.392 1.44-2.704 1.44-2.448 0-3.584-2.08-3.584-4.432 0-2.352 1.136-4.432 3.584-4.432 1.248 0 2.144.48 2.624 1.344v-4.032h1.312Zm-6.144 7.12c0 1.648.704 3.184 2.48 3.184 1.728 0 2.464-1.568 2.464-3.184 0-1.68-.736-3.232-2.464-3.232-1.776 0-2.48 1.536-2.48 3.232Zm8.314-1.744c.304-1.6 1.68-2.688 3.44-2.688 2.048 0 3.408 1.184 3.408 3.552v3.408c0 .384.16.544.528.544h.352V308h-.432c-.992 0-1.6-.528-1.744-1.328-.336.8-1.312 1.52-2.672 1.52-1.68 0-3.024-.896-3.024-2.4 0-1.744 1.312-2.192 3.168-2.56l2.512-.48c-.016-1.472-.832-2.176-2.096-2.176-1.056 0-1.824.64-2.032 1.552l-1.408-.112Zm1.232 3.776c0 .688.576 1.248 1.824 1.232 1.408 0 2.512-.992 2.512-2.656v-.448l-2.032.352c-1.248.224-2.304.32-2.304 1.52Zm7.77-6.272h1.392l2.576 7.072 2.495-7.072h1.392l-3.44 9.552c-.32.912-.928 1.328-1.888 1.328h-1.007v-1.168h.864c.431 0 .704-.16.864-.608l.303-.784h-.448l-3.104-8.32Z"/>
    <path fill="#65FDBE" d="M20 332h2v2h-2zM29 332h2v2h-2zM38 332h2v2h-2zM47 332h2v2h-2zM56 332h2v2h-2zM65 332h2v2h-2zM20 341h2v2h-2zM29 341h2v2h-2zM38 341h2v2h-2zM47 341h2v2h-2zM56 341h2v2h-2zM65 341h2v2h-2zM20 350h2v2h-2zM29 350h2v2h-2zM38 350h2v2h-2zM47 350h2v2h-2zM56 350h2v2h-2zM65 350h2v2h-2zM20 359h2v2h-2zM29 359h2v2h-2zM38 359h2v2h-2zM47 359h2v2h-2zM56 359h2v2h-2zM65 359h2v2h-2zM20 368h2v2h-2zM29 368h2v2h-2zM38 368h2v2h-2zM47 368h2v2h-2zM56 368h2v2h-2zM65 368h2v2h-2zM20 377h2v2h-2zM29 377h2v2h-2zM38 377h2v2h-2zM47 377h2v2h-2zM56 377h2v2h-2zM65 377h2v2h-2zM20 386h2v2h-2zM29 386h2v2h-2zM38 386h2v2h-2zM47 386h2v2h-2zM56 386h2v2h-2zM65 386h2v2h-2zM20 395h2v2h-2zM29 395h2v2h-2zM38 395h2v2h-2zM47 395h2v2h-2zM56 395h2v2h-2zM65 395h2v2h-2zM20 404h2v2h-2zM29 404h2v2h-2zM38 404h2v2h-2zM47 404h2v2h-2zM56 404h2v2h-2zM65 404h2v2h-2zM20 413h2v2h-2zM29 413h2v2h-2zM38 413h2v2h-2zM47 413h2v2h-2zM56 413h2v2h-2zM65 413h2v2h-2zM79 332h2v2h-2zM88 332h2v2h-2zM97 332h2v2h-2zM106 332h2v2h-2zM115 332h2v2h-2zM124 332h2v2h-2zM79 341h2v2h-2zM86 339h6v6h-6zM97 341h2v2h-2zM106 341h2v2h-2zM115 341h2v2h-2zM124 341h2v2h-2zM79 350h2v2h-2zM88 350h2v2h-2zM97 350h2v2h-2zM106 350h2v2h-2zM115 350h2v2h-2zM124 350h2v2h-2zM79 359h2v2h-2zM88 359h2v2h-2zM97 359h2v2h-2zM104 357h6v6h-6zM115 359h2v2h-2z"/>
    <path fill="#68E1A4" fill-opacity=".9" d="M122 357h6v6h-6z"/>
    <path fill="#65FDBE" d="M77 366h6v6h-6zM88 368h2v2h-2zM97 368h2v2h-2zM104 366h6v6h-6zM115 368h2v2h-2zM124 368h2v2h-2zM79 377h2v2h-2zM88 377h2v2h-2zM97 377h2v2h-2zM106 377h2v2h-2zM115 377h2v2h-2zM122 375h6v6h-6zM79 386h2v2h-2zM88 386h2v2h-2zM97 386h2v2h-2zM104 384h6v6h-6z"/>
    <path fill="#68E1A4" fill-opacity=".9" d="M113 384h6v6h-6z"/>
    <path fill="#65FDBE" d="M122 384h6v6h-6zM79 395h2v2h-2zM88 395h2v2h-2zM97 395h2v2h-2zM106 395h2v2h-2zM113 393h6v6h-6zM122 393h6v6h-6zM79 404h2v2h-2zM88 404h2v2h-2zM95 402h6v6h-6zM106 404h2v2h-2zM115 404h2v2h-2zM124 404h2v2h-2zM79 413h2v2h-2zM88 413h2v2h-2zM97 413h2v2h-2zM106 413h2v2h-2zM115 413h2v2h-2zM124 413h2v2h-2zM138 332h2v2h-2zM145 330h6v6h-6zM156 332h2v2h-2zM163 330h6v6h-6zM172 330h6v6h-6zM183 332h2v2h-2zM136 339h6v6h-6zM147 341h2v2h-2zM154 339h6v6h-6z"/>
    <path fill="#187C4A" d="M163 339h6v6h-6z"/>
    <path fill="#65FDBE" d="M172 339h6v6h-6zM181 339h6v6h-6zM138 350h2v2h-2zM145 348h6v6h-6zM154 348h6v6h-6zM163 348h6v6h-6zM174 350h2v2h-2zM181 348h6v6h-6zM138 359h2v2h-2zM145 357h6v6h-6zM156 359h2v2h-2zM165 359h2v2h-2zM174 359h2v2h-2zM181 357h6v6h-6zM136 366h6v6h-6zM145 366h6v6h-6zM154 366h6v6h-6zM165 368h2v2h-2zM172 366h6v6h-6zM181 366h6v6h-6zM138 377h2v2h-2zM147 377h2v2h-2zM154 375h6v6h-6z"/>
    <path fill="#187C4A" d="M163 375h6v6h-6z"/>
    <path fill="#65FDBE" d="M172 375h6v6h-6zM181 375h6v6h-6zM136 384h6v6h-6zM145 384h6v6h-6zM156 386h2v2h-2zM163 384h6v6h-6zM172 384h6v6h-6zM183 386h2v2h-2z"/>
    <path fill="#187C4A" d="M136 393h6v6h-6z"/>
    <path fill="#65FDBE" d="M147 395h2v2h-2zM154 393h6v6h-6zM165 395h2v2h-2zM172 393h6v6h-6zM181 393h6v6h-6zM136 402h6v6h-6zM145 402h6v6h-6zM156 404h2v2h-2zM165 404h2v2h-2zM172 402h6v6h-6zM183 404h2v2h-2zM136 411h6v6h-6zM147 413h2v2h-2zM154 411h6v6h-6zM163 411h6v6h-6zM172 411h6v6h-6zM181 411h6v6h-6z"/>
    <path fill="#68E1A4" fill-opacity=".9" d="M195 330h6v6h-6z"/>
    <path fill="#65FDBE" d="M204 330h6v6h-6zM213 330h6v6h-6zM222 330h6v6h-6zM231 330h6v6h-6zM242 332h2v2h-2zM195 339h6v6h-6zM204 339h6v6h-6zM215 341h2v2h-2zM222 339h6v6h-6z"/>
    <path fill="#187C4A" d="M231 339h6v6h-6z"/>
    <path fill="#65FDBE" d="M240 339h6v6h-6zM195 348h6v6h-6zM206 350h2v2h-2zM213 348h6v6h-6zM222 348h6v6h-6zM231 348h6v6h-6zM240 348h6v6h-6zM195 357h6v6h-6zM204 357h6v6h-6z"/>
    <path fill="#2AAB6B" d="M213 357h6v6h-6z"/>
    <path fill="#187C4A" d="M222 357h6v6h-6z"/>
    <path fill="#2AAB6B" d="M231 357h6v6h-6z"/>
    <path fill="#65FDBE" d="M240 357h6v6h-6z"/>
    <path fill="#187C4A" d="M195 366h6v6h-6z"/>
    <path fill="#65FDBE" d="M204 366h6v6h-6zM213 366h6v6h-6zM224 368h2v2h-2zM231 366h6v6h-6zM240 366h6v6h-6zM195 375h6v6h-6zM204 375h6v6h-6z"/>
    <path fill="#2AAB6B" d="M213 375h6v6h-6z"/>
    <path fill="#65FDBE" d="M222 375h6v6h-6z"/>
    <path fill="#68E1A4" fill-opacity=".9" d="M231 375h6v6h-6z"/>
    <path fill="#65FDBE" d="M240 375h6v6h-6zM195 384h6v6h-6zM206 386h2v2h-2zM213 384h6v6h-6z"/>
    <path fill="#187C4A" d="M222 384h6v6h-6z"/>
    <path fill="#65FDBE" d="M231 384h6v6h-6zM240 384h6v6h-6zM195 393h6v6h-6zM204 393h6v6h-6zM213 393h6v6h-6zM222 393h6v6h-6zM233 395h2v2h-2zM240 393h6v6h-6zM195 402h6v6h-6zM204 402h6v6h-6zM215 404h2v2h-2zM222 402h6v6h-6z"/>
    <path fill="#187C4A" d="M231 402h6v6h-6z"/>
    <path fill="#65FDBE" d="M242 404h2v2h-2zM195 411h6v6h-6zM204 411h6v6h-6zM213 411h6v6h-6zM222 411h6v6h-6zM231 411h6v6h-6zM240 411h6v6h-6zM254 330h6v6h-6zM263 330h6v6h-6z"/>
    <path fill="#187C4A" d="M272 330h6v6h-6z"/>
    <path fill="#65FDBE" d="M281 330h6v6h-6zM292 332h2v2h-2zM299 330h6v6h-6zM256 341h2v2h-2zM263 339h6v6h-6z"/>
    <path fill="#2AAB6B" d="M272 339h6v6h-6zM281 339h6v6h-6z"/>
    <path fill="#65FDBE" d="M290 339h6v6h-6zM299 339h6v6h-6z"/>
    <path fill="#2AAB6B" d="M254 348h6v6h-6z"/>
    <path fill="#65FDBE" d="M263 348h6v6h-6zM272 348h6v6h-6zM281 348h6v6h-6zM290 348h6v6h-6zM301 350h2v2h-2zM254 357h6v6h-6zM263 357h6v6h-6z"/>
    <path fill="#2AAB6B" d="M272 357h6v6h-6z"/>
    <path fill="#65FDBE" d="M281 357h6v6h-6z"/>
    <path fill="#187C4A" d="M290 357h6v6h-6z"/>
    <path fill="#65FDBE" d="M299 357h6v6h-6zM254 366h6v6h-6zM263 366h6v6h-6zM274 368h2v2h-2zM281 366h6v6h-6zM290 366h6v6h-6zM299 366h6v6h-6z"/>
    <path fill="#187C4A" d="M254 375h6v6h-6z"/>
    <path fill="#65FDBE" d="M263 375h6v6h-6zM272 375h6v6h-6z"/>
    <path fill="#2AAB6B" d="M281 375h6v6h-6z"/>
    <path fill="#65FDBE" fill-opacity=".9" d="M291 376h4v4h-4z"/>
    <path fill="#65FDBE" d="M299 375h6v6h-6zM254 384h6v6h-6zM263 384h6v6h-6zM272 384h6v6h-6zM281 384h6v6h-6zM290 384h6v6h-6zM299 384h6v6h-6zM256 395h2v2h-2zM263 393h6v6h-6z"/>
    <path fill="#187C4A" d="M272 393h6v6h-6z"/>
    <path fill="#65FDBE" d="M281 393h6v6h-6zM292 395h2v2h-2zM299 393h6v6h-6z"/>
    <path fill="#2AAB6B" d="M254 402h6v6h-6z"/>
    <path fill="#65FDBE" d="M263 402h6v6h-6z"/>
    <path fill="#2AAB6B" d="M272 402h6v6h-6z"/>
    <path fill="#65FDBE" d="M281 402h6v6h-6zM290 402h6v6h-6zM299 402h6v6h-6zM254 411h6v6h-6zM263 411h6v6h-6zM272 411h6v6h-6z"/>
    <path fill="#2AAB6B" d="M281 411h6v6h-6z"/>
    <path fill="#65FDBE" d="M290 411h6v6h-6zM299 411h6v6h-6zM313 330h6v6h-6zM322 330h6v6h-6zM331 330h6v6h-6zM340 330h6v6h-6zM349 330h6v6h-6z"/>
    <path fill="#2AAB6B" d="M358 330h6v6h-6z"/>
    <path fill="#65FDBE" d="M313 339h6v6h-6zM324 341h2v2h-2z"/>
    <path fill="#2AAB6B" d="M331 339h6v6h-6z"/>
    <path fill="#65FDBE" d="M340 339h6v6h-6zM349 339h6v6h-6zM358 339h6v6h-6z"/>
    <path fill="#2AAB6B" d="M313 348h6v6h-6z"/>
    <path fill="#65FDBE" d="M322 348h6v6h-6zM331 348h6v6h-6zM342 350h2v2h-2zM349 348h6v6h-6zM358 348h6v6h-6zM313 357h6v6h-6zM324 359h2v2h-2zM331 357h6v6h-6z"/>
    <path fill="#2AAB6B" d="M340 357h6v6h-6z"/>
    <path fill="#65FDBE" d="M349 357h6v6h-6zM358 357h6v6h-6z"/>
    <path fill="#68E1A4" fill-opacity=".9" d="M313 366h6v6h-6z"/>
    <path fill="#65FDBE" d="M324 368h2v2h-2zM331 366h6v6h-6zM340 366h6v6h-6z"/>
    <path fill="#187C4A" d="M349 366h6v6h-6z"/>
    <path fill="#65FDBE" d="M358 366h6v6h-6zM313 375h6v6h-6zM322 375h6v6h-6zM331 375h6v6h-6z"/>
    <path fill="#65FDBE" fill-opacity=".9" d="M341 376h4v4h-4z"/>
    <path fill="#2AAB6B" d="M349 375h6v6h-6z"/>
    <path fill="#65FDBE" d="M360 377h2v2h-2zM313 384h6v6h-6z"/>
    <path fill="#2AAB6B" d="M322 384h6v6h-6zM331 384h6v6h-6z"/>
    <path fill="#187C4A" d="M340 384h6v6h-6z"/>
    <path fill="#65FDBE" d="M349 384h6v6h-6zM358 384h6v6h-6zM313 393h6v6h-6zM322 393h6v6h-6z"/>
    <path fill="#2AAB6B" d="M331 393h6v6h-6z"/>
    <path fill="#65FDBE" d="M340 393h6v6h-6zM351 395h2v2h-2zM358 393h6v6h-6zM313 402h6v6h-6zM322 402h6v6h-6zM331 402h6v6h-6zM340 402h6v6h-6zM349 402h6v6h-6zM358 402h6v6h-6zM315 413h2v2h-2zM322 411h6v6h-6zM331 411h6v6h-6z"/>
    <path fill="#187C4A" d="M340 411h6v6h-6z"/>
    <path fill="#2AAB6B" d="M349 411h6v6h-6z"/>
    <path fill="#65FDBE" d="M358 411h6v6h-6zM372 330h6v6h-6zM381 330h6v6h-6zM392 332h2v2h-2zM401 332h2v2h-2zM408 330h6v6h-6zM417 330h6v6h-6zM372 339h6v6h-6zM381 339h6v6h-6zM390 339h6v6h-6zM399 339h6v6h-6z"/>
    <path fill="#65FDBE" fill-opacity=".9" d="M409 340h4v4h-4z"/>
    <path fill="#187C4A" d="M417 339h6v6h-6z"/>
    <path fill="#65FDBE" d="M372 348h6v6h-6zM383 350h2v2h-2zM390 348h6v6h-6z"/>
    <path fill="#2AAB6B" d="M399 348h6v6h-6z"/>
    <path fill="#65FDBE" d="M410 350h2v2h-2zM417 348h6v6h-6zM372 357h6v6h-6z"/>
    <path fill="#68E1A4" fill-opacity=".9" d="M381 357h6v6h-6z"/>
    <path fill="#65FDBE" d="M390 357h6v6h-6z"/>
    <path fill="#187C4A" d="M399 357h6v6h-6z"/>
    <path fill="#2AAB6B" d="M408 357h6v6h-6z"/>
    <path fill="#65FDBE" d="M417 357h6v6h-6zM372 366h6v6h-6z"/>
    <path fill="#65FDBE" fill-opacity=".9" d="M382 367h4v4h-4z"/>
    <path fill="#65FDBE" d="M390 366h6v6h-6zM399 366h6v6h-6zM410 368h2v2h-2zM417 366h6v6h-6zM374 377h2v2h-2zM381 375h6v6h-6zM390 375h6v6h-6zM401 377h2v2h-2zM408 375h6v6h-6zM417 375h6v6h-6zM372 384h6v6h-6zM383 386h2v2h-2zM390 384h6v6h-6zM399 384h6v6h-6zM408 384h6v6h-6zM419 386h2v2h-2zM372 393h6v6h-6zM381 393h6v6h-6zM390 393h6v6h-6zM401 395h2v2h-2zM408 393h6v6h-6zM417 393h6v6h-6zM372 402h6v6h-6z"/>
    <path fill="#2AAB6B" d="M381 402h6v6h-6z"/>
    <path fill="#65FDBE" d="M392 404h2v2h-2zM399 402h6v6h-6zM408 402h6v6h-6zM417 402h6v6h-6zM372 411h6v6h-6zM381 411h6v6h-6zM392 413h2v2h-2zM399 411h6v6h-6zM408 411h6v6h-6zM417 411h6v6h-6zM431 330h6v6h-6zM440 330h6v6h-6zM449 330h6v6h-6z"/>
    <path fill="#68E1A4" fill-opacity=".9" d="M458 330h6v6h-6z"/>
    <path fill="#65FDBE" d="M467 330h6v6h-6zM476 330h6v6h-6zM431 339h6v6h-6z"/>
    <path fill="#187C4A" d="M440 339h6v6h-6z"/>
    <path fill="#65FDBE" d="M449 339h6v6h-6zM458 339h6v6h-6zM469 341h2v2h-2zM476 339h6v6h-6zM431 348h6v6h-6zM440 348h6v6h-6zM449 348h6v6h-6z"/>
    <path fill="#68E1A4" fill-opacity=".9" d="M458 348h6v6h-6z"/>
    <path fill="#65FDBE" d="M467 348h6v6h-6zM476 348h6v6h-6zM431 357h6v6h-6z"/>
    <path fill="#187C4A" d="M440 357h6v6h-6z"/>
    <path fill="#65FDBE" d="M449 357h6v6h-6zM458 357h6v6h-6zM467 357h6v6h-6zM476 357h6v6h-6zM431 366h6v6h-6z"/>
    <path fill="#187C4A" d="M440 366h6v6h-6z"/>
    <path fill="#65FDBE" d="M449 366h6v6h-6z"/>
    <path fill="#65FDBE" fill-opacity=".9" d="M459 367h4v4h-4z"/>
    <path fill="#187C4A" d="M467 366h6v6h-6z"/>
    <path fill="#65FDBE" d="M476 366h6v6h-6zM431 375h6v6h-6zM440 375h6v6h-6zM449 375h6v6h-6zM458 375h6v6h-6zM467 375h6v6h-6zM476 375h6v6h-6z"/>
    <path fill="#187C4A" d="M431 384h6v6h-6z"/>
    <path fill="#65FDBE" d="M440 384h6v6h-6zM449 384h6v6h-6zM458 384h6v6h-6z"/>
    <path fill="#187C4A" d="M467 384h6v6h-6z"/>
    <path fill="#65FDBE" d="M476 384h6v6h-6zM431 393h6v6h-6zM440 393h6v6h-6zM451 395h2v2h-2zM458 393h6v6h-6z"/>
    <path fill="#187C4A" d="M467 393h6v6h-6z"/>
    <path fill="#65FDBE" d="M476 393h6v6h-6zM431 402h6v6h-6zM440 402h6v6h-6zM449 402h6v6h-6zM458 402h6v6h-6z"/>
    <path fill="#65FDBE" fill-opacity=".9" d="M468 403h4v4h-4z"/>
    <path fill="#65FDBE" d="M476 402h6v6h-6zM431 411h6v6h-6zM440 411h6v6h-6zM449 411h6v6h-6zM458 411h6v6h-6zM467 411h6v6h-6zM476 411h6v6h-6zM490 330h6v6h-6zM499 330h6v6h-6z"/>
    <path fill="#2AAB6B" d="M508 330h6v6h-6z"/>
    <path fill="#65FDBE" d="M517 330h6v6h-6zM526 330h6v6h-6zM535 330h6v6h-6zM490 339h6v6h-6z"/>
    <path fill="#2AAB6B" d="M499 339h6v6h-6z"/>
    <path fill="#65FDBE" d="M508 339h6v6h-6zM519 341h2v2h-2zM526 339h6v6h-6z"/>
    <path fill="#187C4A" d="M535 339h6v6h-6z"/>
    <path fill="#65FDBE" d="M490 348h6v6h-6zM499 348h6v6h-6zM510 350h2v2h-2z"/>
    <path fill="#2AAB6B" d="M517 348h6v6h-6z"/>
    <path fill="#65FDBE" d="M526 348h6v6h-6zM535 348h6v6h-6zM492 359h2v2h-2zM499 357h6v6h-6z"/>
    <path fill="#68E1A4" fill-opacity=".9" d="M508 357h6v6h-6z"/>
    <path fill="#2AAB6B" d="M517 357h6v6h-6z"/>
    <path fill="#187C4A" d="M526 357h6v6h-6z"/>
    <path fill="#65FDBE" d="M535 357h6v6h-6zM492 368h2v2h-2z"/>
    <path fill="#187C4A" d="M499 366h6v6h-6z"/>
    <path fill="#65FDBE" d="M510 368h2v2h-2z"/>
    <path fill="#187C4A" d="M517 366h6v6h-6z"/>
    <path fill="#65FDBE" d="M526 366h6v6h-6zM535 366h6v6h-6zM490 375h6v6h-6zM499 375h6v6h-6z"/>
    <path fill="#187C4A" d="M508 375h6v6h-6z"/>
    <path fill="#65FDBE" d="M517 375h6v6h-6zM528 377h2v2h-2zM535 375h6v6h-6zM490 384h6v6h-6zM501 386h2v2h-2zM508 384h6v6h-6zM517 384h6v6h-6z"/>
    <path fill="#68E1A4" fill-opacity=".9" d="M526 384h6v6h-6z"/>
    <path fill="#65FDBE" d="M535 384h6v6h-6zM490 393h6v6h-6zM499 393h6v6h-6zM508 393h6v6h-6zM517 393h6v6h-6zM526 393h6v6h-6zM537 395h2v2h-2zM490 402h6v6h-6zM501 404h2v2h-2zM508 402h6v6h-6z"/>
    <path fill="#187C4A" d="M517 402h6v6h-6z"/>
    <path fill="#65FDBE" d="M528 404h2v2h-2zM535 402h6v6h-6zM490 411h6v6h-6zM499 411h6v6h-6z"/>
    <path fill="#187C4A" d="M508 411h6v6h-6z"/>
    <path fill="#65FDBE" d="M517 411h6v6h-6zM526 411h6v6h-6zM535 411h6v6h-6zM598 332h-2v2h2zM589 332h-2v2h2zM580 332h-2v2h2zM571 332h-2v2h2zM562 332h-2v2h2zM553 332h-2v2h2zM598 341h-2v2h2zM591 339h-6v6h6z"/>
    <path fill="#68E1A4" fill-opacity=".9" d="M582 339h-6v6h6z"/>
    <path fill="#65FDBE" d="M571 341h-2v2h2zM562 341h-2v2h2zM553 341h-2v2h2zM598 350h-2v2h2zM589 350h-2v2h2zM580 350h-2v2h2zM571 350h-2v2h2zM562 350h-2v2h2zM553 350h-2v2h2zM598 359h-2v2h2zM591 357h-6v6h6zM580 359h-2v2h2zM573 357h-6v6h6zM562 359h-2v2h2zM555 357h-6v6h6zM600 366h-6v6h6zM589 368h-2v2h2zM580 368h-2v2h2zM573 366h-6v6h6zM562 368h-2v2h2zM553 368h-2v2h2zM598 377h-2v2h2zM589 377h-2v2h2zM580 377h-2v2h2zM571 377h-2v2h2zM562 377h-2v2h2zM555 375h-6v6h6zM598 386h-2v2h2zM589 386h-2v2h2zM580 386h-2v2h2z"/>
    <path fill="#68E1A4" fill-opacity=".9" d="M573 384h-6v6h6z"/>
    <path fill="#65FDBE" d="M564 384h-6v6h6zM553 386h-2v2h2zM600 393h-6v6h6zM589 395h-2v2h2zM580 395h-2v2h2zM571 395h-2v2h2zM564 393h-6v6h6zM555 393h-6v6h6zM598 404h-2v2h2zM589 404h-2v2h2zM582 402h-6v6h6zM571 404h-2v2h2zM562 404h-2v2h2zM553 404h-2v2h2zM598 413h-2v2h2zM589 413h-2v2h2zM580 413h-2v2h2zM571 413h-2v2h2zM564 411h-6v6h6zM553 413h-2v2h2zM608 330h6v6h-6zM617 330h6v6h-6zM628 332h2v2h-2zM635 330h6v6h-6zM644 330h6v6h-6zM653 330h6v6h-6zM608 339h6v6h-6zM619 341h2v2h-2zM626 339h6v6h-6zM637 341h2v2h-2zM644 339h6v6h-6zM655 341h2v2h-2zM610 350h2v2h-2z"/>
    <path fill="#2AAB6B" d="M617 348h6v6h-6z"/>
    <path fill="#65FDBE" d="M626 348h6v6h-6z"/>
    <path fill="#187C4A" d="M635 348h6v6h-6z"/>
    <path fill="#2AAB6B" d="M644 348h6v6h-6z"/>
    <path fill="#65FDBE" d="M653 348h6v6h-6zM608 357h6v6h-6zM619 359h2v2h-2zM626 357h6v6h-6z"/>
    <path fill="#2AAB6B" d="M635 357h6v6h-6zM644 357h6v6h-6zM653 357h6v6h-6z"/>
    <path fill="#65FDBE" d="M608 366h6v6h-6zM619 368h2v2h-2zM626 366h6v6h-6zM637 368h2v2h-2zM644 366h6v6h-6zM655 368h2v2h-2zM608 375h6v6h-6zM617 375h6v6h-6zM628 377h2v2h-2zM635 375h6v6h-6zM646 377h2v2h-2zM653 375h6v6h-6zM608 384h6v6h-6z"/>
    <path fill="#2AAB6B" d="M617 384h6v6h-6z"/>
    <path fill="#65FDBE" d="M626 384h6v6h-6zM637 386h2v2h-2zM646 386h2v2h-2zM653 384h6v6h-6z"/>
    <path fill="#68E1A4" fill-opacity=".9" d="M608 393h6v6h-6z"/>
    <path fill="#65FDBE" d="M617 393h6v6h-6zM626 393h6v6h-6z"/>
    <path fill="#2AAB6B" d="M635 393h6v6h-6z"/>
    <path fill="#65FDBE" d="M644 393h6v6h-6zM653 393h6v6h-6zM608 402h6v6h-6zM619 404h2v2h-2zM626 402h6v6h-6zM635 402h6v6h-6zM644 402h6v6h-6zM655 404h2v2h-2zM608 411h6v6h-6zM617 411h6v6h-6z"/>
    <path fill="#2AAB6B" d="M626 411h6v6h-6z"/>
    <path fill="#65FDBE" d="M635 411h6v6h-6zM646 413h2v2h-2zM653 411h6v6h-6zM667 330h6v6h-6zM676 330h6v6h-6zM685 330h6v6h-6zM694 330h6v6h-6zM703 330h6v6h-6zM712 330h6v6h-6zM667 339h6v6h-6zM676 339h6v6h-6z"/>
    <path fill="#187C4A" d="M685 339h6v6h-6z"/>
    <path fill="#65FDBE" d="M694 339h6v6h-6zM703 339h6v6h-6z"/>
    <path fill="#187C4A" d="M712 339h6v6h-6z"/>
    <path fill="#65FDBE" d="M667 348h6v6h-6z"/>
    <path fill="#65FDBE" fill-opacity=".9" d="M677 349h4v4h-4z"/>
    <path fill="#65FDBE" d="M685 348h6v6h-6zM694 348h6v6h-6zM703 348h6v6h-6zM712 348h6v6h-6z"/>
    <path fill="#187C4A" d="M667 357h6v6h-6z"/>
    <path fill="#65FDBE" d="M676 357h6v6h-6zM685 357h6v6h-6zM696 359h2v2h-2zM703 357h6v6h-6z"/>
    <path fill="#65FDBE" fill-opacity=".9" d="M713 358h4v4h-4z"/>
    <path fill="#65FDBE" d="M667 366h6v6h-6zM676 366h6v6h-6zM685 366h6v6h-6zM694 366h6v6h-6zM703 366h6v6h-6zM712 366h6v6h-6zM667 375h6v6h-6zM676 375h6v6h-6zM685 375h6v6h-6zM694 375h6v6h-6z"/>
    <path fill="#187C4A" d="M703 375h6v6h-6z"/>
    <path fill="#65FDBE" d="M714 377h2v2h-2zM667 384h6v6h-6zM676 384h6v6h-6z"/>
    <path fill="#187C4A" d="M685 384h6v6h-6z"/>
    <path fill="#65FDBE" d="M694 384h6v6h-6zM703 384h6v6h-6zM712 384h6v6h-6z"/>
    <path fill="#68E1A4" fill-opacity=".9" d="M667 393h6v6h-6z"/>
    <path fill="#65FDBE" d="M676 393h6v6h-6zM685 393h6v6h-6zM694 393h6v6h-6zM703 393h6v6h-6z"/>
    <path fill="#187C4A" d="M712 393h6v6h-6z"/>
    <path fill="#65FDBE" d="M667 402h6v6h-6zM676 402h6v6h-6zM687 404h2v2h-2zM694 402h6v6h-6zM703 402h6v6h-6zM712 402h6v6h-6zM667 411h6v6h-6zM676 411h6v6h-6zM685 411h6v6h-6zM694 411h6v6h-6z"/>
    <path fill="#68E1A4" fill-opacity=".9" d="M703 411h6v6h-6z"/>
    <path fill="#65FDBE" d="M712 411h6v6h-6z"/>
    <path fill="#68E1A4" fill-opacity=".9" d="M726 330h6v6h-6z"/>
    <path fill="#65FDBE" d="M735 330h6v6h-6zM744 330h6v6h-6z"/>
    <path fill="#187C4A" d="M753 330h6v6h-6z"/>
    <path fill="#65FDBE" d="M762 330h6v6h-6zM771 330h6v6h-6zM726 339h6v6h-6zM735 339h6v6h-6zM744 339h6v6h-6zM753 339h6v6h-6zM762 339h6v6h-6zM771 339h6v6h-6z"/>
    <path fill="#68E1A4" fill-opacity=".9" d="M726 348h6v6h-6z"/>
    <path fill="#187C4A" d="M735 348h6v6h-6z"/>
    <path fill="#65FDBE" d="M746 350h2v2h-2zM753 348h6v6h-6zM762 348h6v6h-6zM771 348h6v6h-6zM726 357h6v6h-6zM735 357h6v6h-6zM744 357h6v6h-6zM753 357h6v6h-6zM764 359h2v2h-2zM771 357h6v6h-6zM726 366h6v6h-6zM735 366h6v6h-6z"/>
    <path fill="#68E1A4" fill-opacity=".9" d="M744 366h6v6h-6z"/>
    <path fill="#65FDBE" d="M753 366h6v6h-6zM762 366h6v6h-6zM771 366h6v6h-6zM726 375h6v6h-6z"/>
    <path fill="#187C4A" d="M735 375h6v6h-6z"/>
    <path fill="#65FDBE" d="M744 375h6v6h-6zM755 377h2v2h-2z"/>
    <path fill="#187C4A" d="M762 375h6v6h-6z"/>
    <path fill="#65FDBE" d="M771 375h6v6h-6zM726 384h6v6h-6zM735 384h6v6h-6zM746 386h2v2h-2zM753 384h6v6h-6zM762 384h6v6h-6zM771 384h6v6h-6zM726 393h6v6h-6zM735 393h6v6h-6zM744 393h6v6h-6zM753 393h6v6h-6zM762 393h6v6h-6zM771 393h6v6h-6zM726 402h6v6h-6zM737 404h2v2h-2zM746 404h2v2h-2zM753 402h6v6h-6zM764 404h2v2h-2zM771 402h6v6h-6zM726 411h6v6h-6zM735 411h6v6h-6zM744 411h6v6h-6zM755 413h2v2h-2zM762 411h6v6h-6zM771 411h6v6h-6zM785 330h6v6h-6zM796 332h2v2h-2zM803 330h6v6h-6zM812 330h6v6h-6zM821 330h6v6h-6zM830 330h6v6h-6zM785 339h6v6h-6zM794 339h6v6h-6zM803 339h6v6h-6zM812 339h6v6h-6z"/>
    <path fill="#187C4A" d="M821 339h6v6h-6z"/>
    <path fill="#65FDBE" d="M830 339h6v6h-6zM785 348h6v6h-6z"/>
    <path fill="#187C4A" d="M794 348h6v6h-6z"/>
    <path fill="#65FDBE" d="M803 348h6v6h-6zM812 348h6v6h-6zM821 348h6v6h-6zM830 348h6v6h-6zM785 357h6v6h-6zM794 357h6v6h-6zM803 357h6v6h-6zM814 359h2v2h-2zM821 357h6v6h-6zM830 357h6v6h-6zM785 366h6v6h-6zM796 368h2v2h-2zM803 366h6v6h-6zM812 366h6v6h-6zM821 366h6v6h-6zM785 375h6v6h-6zM794 375h6v6h-6zM803 375h6v6h-6zM812 375h6v6h-6zM821 375h6v6h-6zM830 375h6v6h-6zM785 384h6v6h-6zM794 384h6v6h-6zM803 384h6v6h-6z"/>
    <path fill="#187C4A" d="M812 384h6v6h-6z"/>
    <path fill="#65FDBE" d="M821 384h6v6h-6zM830 384h6v6h-6zM785 393h6v6h-6zM794 393h6v6h-6zM803 393h6v6h-6zM812 393h6v6h-6zM821 393h6v6h-6zM830 393h6v6h-6zM785 402h6v6h-6z"/>
    <path fill="#187C4A" d="M794 402h6v6h-6z"/>
    <path fill="#65FDBE" d="M803 402h6v6h-6zM812 402h6v6h-6zM821 402h6v6h-6zM830 402h6v6h-6zM785 411h6v6h-6zM794 411h6v6h-6zM803 411h6v6h-6zM814 413h2v2h-2zM821 411h6v6h-6zM830 411h6v6h-6z"/>
    <path fill="#797D86" d="M29.592 439.192c-1.848 0-3.012-1.728-3.012-4.44 0-2.736 1.164-4.464 3.012-4.464s3.012 1.728 3.012 4.464c0 2.712-1.164 4.44-3.012 4.44Zm-1.968-4.44c0 2.112.768 3.456 1.968 3.456s1.968-1.344 1.968-3.456c0-2.136-.768-3.48-1.968-3.48s-1.968 1.344-1.968 3.48Zm6.967 2.352c.252.696.852 1.104 1.644 1.104 1.284 0 2.064-1.116 2.232-3.144-.468.78-1.248 1.212-2.16 1.212-1.68 0-2.82-1.212-2.82-2.964 0-1.848 1.248-3.024 2.988-3.024.744 0 1.5.276 2.124.9.6.648.9 1.704.9 3.048 0 2.544-.816 4.956-3.264 4.956-1.272 0-2.316-.708-2.7-2.016l1.056-.072Zm-.048-3.792c0 1.164.768 1.98 1.836 1.98 1.164 0 2.004-.816 2.016-1.98.024-1.188-.78-2.04-1.944-2.04-1.116 0-1.908.852-1.908 2.04Zm8.263 4.332h1.392V439h-1.392v-1.356Zm0-2.892v-1.356h1.392v1.356h-1.392Zm7.652 4.44c-1.848 0-3.012-1.728-3.012-4.44 0-2.736 1.164-4.464 3.012-4.464s3.012 1.728 3.012 4.464c0 2.712-1.164 4.44-3.012 4.44Zm-1.968-4.44c0 2.112.768 3.456 1.968 3.456s1.968-1.344 1.968-3.456c0-2.136-.768-3.48-1.968-3.48s-1.968 1.344-1.968 3.48Zm8.923 4.44c-1.848 0-3.012-1.728-3.012-4.44 0-2.736 1.164-4.464 3.012-4.464s3.012 1.728 3.012 4.464c0 2.712-1.164 4.44-3.012 4.44Zm-1.968-4.44c0 2.112.768 3.456 1.968 3.456s1.968-1.344 1.968-3.456c0-2.136-.768-3.48-1.968-3.48s-1.968 1.344-1.968 3.48ZM85.688 438.016h2.592v-5.352h-2.1v-.852h1.008c.912 0 1.308-.408 1.308-1.332h.792v7.536h2.388V439h-5.988v-.984Zm9.859 1.176c-1.848 0-3.012-1.728-3.012-4.44 0-2.736 1.164-4.464 3.012-4.464s3.012 1.728 3.012 4.464c0 2.712-1.164 4.44-3.012 4.44Zm-1.968-4.44c0 2.112.768 3.456 1.968 3.456s1.968-1.344 1.968-3.456c0-2.136-.768-3.48-1.968-3.48s-1.968 1.344-1.968 3.48Zm8.227 2.892h1.392V439h-1.392v-1.356Zm0-2.892v-1.356h1.392v1.356h-1.392Zm7.652 4.44c-1.848 0-3.012-1.728-3.012-4.44 0-2.736 1.164-4.464 3.012-4.464s3.012 1.728 3.012 4.464c0 2.712-1.164 4.44-3.012 4.44Zm-1.968-4.44c0 2.112.768 3.456 1.968 3.456s1.968-1.344 1.968-3.456c0-2.136-.768-3.48-1.968-3.48s-1.968 1.344-1.968 3.48Zm8.923 4.44c-1.848 0-3.012-1.728-3.012-4.44 0-2.736 1.164-4.464 3.012-4.464s3.012 1.728 3.012 4.464c0 2.712-1.164 4.44-3.012 4.44Zm-1.968-4.44c0 2.112.768 3.456 1.968 3.456s1.968-1.344 1.968-3.456c0-2.136-.768-3.48-1.968-3.48s-1.968 1.344-1.968 3.48ZM144.688 438.016h2.592v-5.352h-2.1v-.852h1.008c.912 0 1.308-.408 1.308-1.332h.792v7.536h2.388V439h-5.988v-.984Zm6.955 0h2.592v-5.352h-2.1v-.852h1.008c.912 0 1.308-.408 1.308-1.332h.792v7.536h2.388V439h-5.988v-.984Zm9.163-.372h1.392V439h-1.392v-1.356Zm0-2.892v-1.356h1.392v1.356h-1.392Zm7.652 4.44c-1.848 0-3.012-1.728-3.012-4.44 0-2.736 1.164-4.464 3.012-4.464s3.012 1.728 3.012 4.464c0 2.712-1.164 4.44-3.012 4.44Zm-1.968-4.44c0 2.112.768 3.456 1.968 3.456s1.968-1.344 1.968-3.456c0-2.136-.768-3.48-1.968-3.48s-1.968 1.344-1.968 3.48Zm8.923 4.44c-1.848 0-3.012-1.728-3.012-4.44 0-2.736 1.164-4.464 3.012-4.464s3.012 1.728 3.012 4.464c0 2.712-1.164 4.44-3.012 4.44Zm-1.968-4.44c0 2.112.768 3.456 1.968 3.456s1.968-1.344 1.968-3.456c0-2.136-.768-3.48-1.968-3.48s-1.968 1.344-1.968 3.48ZM203.688 438.016h2.592v-5.352h-2.1v-.852h1.008c.912 0 1.308-.408 1.308-1.332h.792v7.536h2.388V439h-5.988v-.984Zm7.039-4.992c.228-1.584 1.344-2.736 3.048-2.736 1.548 0 2.7 1.032 2.7 2.424 0 1.224-.972 2.076-2.268 2.868-.72.42-2.352 1.572-2.388 2.436h4.716V439h-5.964c0-2.496 1.788-3.444 3.276-4.368.924-.588 1.572-1.248 1.572-1.92 0-.84-.672-1.44-1.644-1.44-1.056 0-1.764.648-1.992 1.824l-1.056-.072Zm9.079 4.62h1.392V439h-1.392v-1.356Zm0-2.892v-1.356h1.392v1.356h-1.392Zm7.652 4.44c-1.848 0-3.012-1.728-3.012-4.44 0-2.736 1.164-4.464 3.012-4.464s3.012 1.728 3.012 4.464c0 2.712-1.164 4.44-3.012 4.44Zm-1.968-4.44c0 2.112.768 3.456 1.968 3.456s1.968-1.344 1.968-3.456c0-2.136-.768-3.48-1.968-3.48s-1.968 1.344-1.968 3.48Zm8.923 4.44c-1.848 0-3.012-1.728-3.012-4.44 0-2.736 1.164-4.464 3.012-4.464s3.012 1.728 3.012 4.464c0 2.712-1.164 4.44-3.012 4.44Zm-1.968-4.44c0 2.112.768 3.456 1.968 3.456s1.968-1.344 1.968-3.456c0-2.136-.768-3.48-1.968-3.48s-1.968 1.344-1.968 3.48ZM262.688 438.016h2.592v-5.352h-2.1v-.852h1.008c.912 0 1.308-.408 1.308-1.332h.792v7.536h2.388V439h-5.988v-.984Zm9.787-4.032c.828.012 1.728-.384 1.728-1.476 0-.756-.636-1.236-1.728-1.236-.876 0-1.524.444-1.632 1.128l-1.056-.072c.156-1.188 1.284-2.04 2.688-2.04 1.632 0 2.784.912 2.784 2.22 0 .948-.504 1.596-1.512 1.884 1.176.348 1.8 1.176 1.8 2.268 0 1.488-1.236 2.532-3.072 2.532-1.692 0-2.916-.984-2.988-2.376l1.032-.072c.096 1.044 1.092 1.464 1.956 1.464 1.236 0 2.028-.636 2.028-1.632 0-1.02-.792-1.644-2.028-1.62l-.648.012v-.996l.648.012Zm6.331 3.66h1.392V439h-1.392v-1.356Zm0-2.892v-1.356h1.392v1.356h-1.392Zm7.652 4.44c-1.848 0-3.012-1.728-3.012-4.44 0-2.736 1.164-4.464 3.012-4.464s3.012 1.728 3.012 4.464c0 2.712-1.164 4.44-3.012 4.44Zm-1.968-4.44c0 2.112.768 3.456 1.968 3.456s1.968-1.344 1.968-3.456c0-2.136-.768-3.48-1.968-3.48s-1.968 1.344-1.968 3.48Zm8.923 4.44c-1.848 0-3.012-1.728-3.012-4.44 0-2.736 1.164-4.464 3.012-4.464s3.012 1.728 3.012 4.464c0 2.712-1.164 4.44-3.012 4.44Zm-1.968-4.44c0 2.112.768 3.456 1.968 3.456s1.968-1.344 1.968-3.456c0-2.136-.768-3.48-1.968-3.48s-1.968 1.344-1.968 3.48ZM321.688 438.016h2.592v-5.352h-2.1v-.852h1.008c.912 0 1.308-.408 1.308-1.332h.792v7.536h2.388V439h-5.988v-.984Zm12.079-7.536v5.784h.984v.984h-.984V439h-1.008v-1.752h-4.416v-.984l4.356-5.784h1.068Zm-4.176 5.784h3.168v-4.236l-3.168 4.236Zm8.215 1.38h1.392V439h-1.392v-1.356Zm0-2.892v-1.356h1.392v1.356h-1.392Zm7.652 4.44c-1.848 0-3.012-1.728-3.012-4.44 0-2.736 1.164-4.464 3.012-4.464s3.012 1.728 3.012 4.464c0 2.712-1.164 4.44-3.012 4.44Zm-1.968-4.44c0 2.112.768 3.456 1.968 3.456s1.968-1.344 1.968-3.456c0-2.136-.768-3.48-1.968-3.48s-1.968 1.344-1.968 3.48Zm8.923 4.44c-1.848 0-3.012-1.728-3.012-4.44 0-2.736 1.164-4.464 3.012-4.464s3.012 1.728 3.012 4.464c0 2.712-1.164 4.44-3.012 4.44Zm-1.968-4.44c0 2.112.768 3.456 1.968 3.456s1.968-1.344 1.968-3.456c0-2.136-.768-3.48-1.968-3.48s-1.968 1.344-1.968 3.48ZM380.688 438.016h2.592v-5.352h-2.1v-.852h1.008c.912 0 1.308-.408 1.308-1.332h.792v7.536h2.388V439h-5.988v-.984Zm12.355-7.536v.984h-3.696l-.36 2.664c.396-.504 1.152-.78 1.812-.78 1.524 0 2.688 1.212 2.688 2.916 0 1.716-1.212 2.928-2.904 2.928-1.512 0-2.772-1.044-2.904-2.376l1.056-.072c.144.912.9 1.464 1.956 1.464 1.02 0 1.74-.804 1.74-1.944 0-1.176-.792-1.944-1.884-1.944-.684 0-1.392.372-1.632.948h-1.092l.66-4.788h4.56Zm3.763 7.164h1.392V439h-1.392v-1.356Zm0-2.892v-1.356h1.392v1.356h-1.392Zm7.652 4.44c-1.848 0-3.012-1.728-3.012-4.44 0-2.736 1.164-4.464 3.012-4.464s3.012 1.728 3.012 4.464c0 2.712-1.164 4.44-3.012 4.44Zm-1.968-4.44c0 2.112.768 3.456 1.968 3.456s1.968-1.344 1.968-3.456c0-2.136-.768-3.48-1.968-3.48s-1.968 1.344-1.968 3.48Zm8.923 4.44c-1.848 0-3.012-1.728-3.012-4.44 0-2.736 1.164-4.464 3.012-4.464s3.012 1.728 3.012 4.464c0 2.712-1.164 4.44-3.012 4.44Zm-1.968-4.44c0 2.112.768 3.456 1.968 3.456s1.968-1.344 1.968-3.456c0-2.136-.768-3.48-1.968-3.48s-1.968 1.344-1.968 3.48ZM439.688 438.016h2.592v-5.352h-2.1v-.852h1.008c.912 0 1.308-.408 1.308-1.332h.792v7.536h2.388V439h-5.988v-.984Zm11.815-5.64c-.252-.696-.852-1.104-1.644-1.104-1.284 0-2.064 1.116-2.232 3.144.468-.78 1.248-1.212 2.16-1.212 1.68 0 2.82 1.212 2.82 2.964 0 1.848-1.248 3.024-2.988 3.024-.744 0-1.5-.276-2.124-.9-.6-.648-.9-1.704-.9-3.048 0-2.544.816-4.956 3.264-4.956 1.272 0 2.316.708 2.7 2.016l-1.056.072Zm-3.804 3.792c-.024 1.188.78 2.04 1.944 2.04 1.116 0 1.908-.852 1.908-2.04 0-1.164-.768-1.98-1.836-1.98-1.164 0-2.004.816-2.016 1.98Zm8.107 1.476h1.392V439h-1.392v-1.356Zm0-2.892v-1.356h1.392v1.356h-1.392Zm7.652 4.44c-1.848 0-3.012-1.728-3.012-4.44 0-2.736 1.164-4.464 3.012-4.464s3.012 1.728 3.012 4.464c0 2.712-1.164 4.44-3.012 4.44Zm-1.968-4.44c0 2.112.768 3.456 1.968 3.456s1.968-1.344 1.968-3.456c0-2.136-.768-3.48-1.968-3.48s-1.968 1.344-1.968 3.48Zm8.923 4.44c-1.848 0-3.012-1.728-3.012-4.44 0-2.736 1.164-4.464 3.012-4.464s3.012 1.728 3.012 4.464c0 2.712-1.164 4.44-3.012 4.44Zm-1.968-4.44c0 2.112.768 3.456 1.968 3.456s1.968-1.344 1.968-3.456c0-2.136-.768-3.48-1.968-3.48s-1.968 1.344-1.968 3.48ZM498.688 438.016h2.592v-5.352h-2.1v-.852h1.008c.912 0 1.308-.408 1.308-1.332h.792v7.536h2.388V439h-5.988v-.984Zm6.991-7.536h6.036v.948c-1.716 2.184-2.928 4.776-2.928 7.572h-1.056c0-2.796 1.14-5.364 2.868-7.536h-4.92v-.984Zm9.127 7.164h1.392V439h-1.392v-1.356Zm0-2.892v-1.356h1.392v1.356h-1.392Zm7.652 4.44c-1.848 0-3.012-1.728-3.012-4.44 0-2.736 1.164-4.464 3.012-4.464s3.012 1.728 3.012 4.464c0 2.712-1.164 4.44-3.012 4.44Zm-1.968-4.44c0 2.112.768 3.456 1.968 3.456s1.968-1.344 1.968-3.456c0-2.136-.768-3.48-1.968-3.48s-1.968 1.344-1.968 3.48Zm8.923 4.44c-1.848 0-3.012-1.728-3.012-4.44 0-2.736 1.164-4.464 3.012-4.464s3.012 1.728 3.012 4.464c0 2.712-1.164 4.44-3.012 4.44Zm-1.968-4.44c0 2.112.768 3.456 1.968 3.456s1.968-1.344 1.968-3.456c0-2.136-.768-3.48-1.968-3.48s-1.968 1.344-1.968 3.48ZM557.688 438.016h2.592v-5.352h-2.1v-.852h1.008c.912 0 1.308-.408 1.308-1.332h.792v7.536h2.388V439h-5.988v-.984Zm9.859 1.176c-1.716 0-3.012-.972-3.012-2.532 0-1.056.624-1.872 1.644-2.28-.78-.336-1.236-.9-1.236-1.752 0-1.344 1.14-2.34 2.604-2.34 1.476 0 2.604.996 2.604 2.34 0 .852-.456 1.416-1.236 1.752 1.032.42 1.644 1.236 1.644 2.28 0 1.56-1.296 2.532-3.012 2.532Zm-1.956-2.616c0 .972.804 1.632 1.956 1.632s1.956-.66 1.956-1.632c0-.948-.804-1.608-1.956-1.608s-1.956.66-1.956 1.608Zm.408-3.948c0 .78.636 1.32 1.548 1.32s1.548-.54 1.548-1.32c0-.804-.636-1.356-1.548-1.356s-1.548.552-1.548 1.356Zm7.807 5.016h1.392V439h-1.392v-1.356Zm0-2.892v-1.356h1.392v1.356h-1.392Zm7.652 4.44c-1.848 0-3.012-1.728-3.012-4.44 0-2.736 1.164-4.464 3.012-4.464s3.012 1.728 3.012 4.464c0 2.712-1.164 4.44-3.012 4.44Zm-1.968-4.44c0 2.112.768 3.456 1.968 3.456s1.968-1.344 1.968-3.456c0-2.136-.768-3.48-1.968-3.48s-1.968 1.344-1.968 3.48Zm8.923 4.44c-1.848 0-3.012-1.728-3.012-4.44 0-2.736 1.164-4.464 3.012-4.464s3.012 1.728 3.012 4.464c0 2.712-1.164 4.44-3.012 4.44Zm-1.968-4.44c0 2.112.768 3.456 1.968 3.456s1.968-1.344 1.968-3.456c0-2.136-.768-3.48-1.968-3.48s-1.968 1.344-1.968 3.48ZM616.688 438.016h2.592v-5.352h-2.1v-.852h1.008c.912 0 1.308-.408 1.308-1.332h.792v7.536h2.388V439h-5.988v-.984Zm7.903-.912c.252.696.852 1.104 1.644 1.104 1.284 0 2.064-1.116 2.232-3.144-.468.78-1.248 1.212-2.16 1.212-1.68 0-2.82-1.212-2.82-2.964 0-1.848 1.248-3.024 2.988-3.024.744 0 1.5.276 2.124.9.6.648.9 1.704.9 3.048 0 2.544-.816 4.956-3.264 4.956-1.272 0-2.316-.708-2.7-2.016l1.056-.072Zm-.048-3.792c0 1.164.768 1.98 1.836 1.98 1.164 0 2.004-.816 2.016-1.98.024-1.188-.78-2.04-1.944-2.04-1.116 0-1.908.852-1.908 2.04Zm8.263 4.332h1.392V439h-1.392v-1.356Zm0-2.892v-1.356h1.392v1.356h-1.392Zm7.652 4.44c-1.848 0-3.012-1.728-3.012-4.44 0-2.736 1.164-4.464 3.012-4.464s3.012 1.728 3.012 4.464c0 2.712-1.164 4.44-3.012 4.44Zm-1.968-4.44c0 2.112.768 3.456 1.968 3.456s1.968-1.344 1.968-3.456c0-2.136-.768-3.48-1.968-3.48s-1.968 1.344-1.968 3.48Zm8.923 4.44c-1.848 0-3.012-1.728-3.012-4.44 0-2.736 1.164-4.464 3.012-4.464s3.012 1.728 3.012 4.464c0 2.712-1.164 4.44-3.012 4.44Zm-1.968-4.44c0 2.112.768 3.456 1.968 3.456s1.968-1.344 1.968-3.456c0-2.136-.768-3.48-1.968-3.48s-1.968 1.344-1.968 3.48ZM675.772 433.024c.228-1.584 1.344-2.736 3.048-2.736 1.548 0 2.7 1.032 2.7 2.424 0 1.224-.972 2.076-2.268 2.868-.72.42-2.352 1.572-2.388 2.436h4.716V439h-5.964c0-2.496 1.788-3.444 3.276-4.368.924-.588 1.572-1.248 1.572-1.92 0-.84-.672-1.44-1.644-1.44-1.056 0-1.764.648-1.992 1.824l-1.056-.072Zm9.775 6.168c-1.848 0-3.012-1.728-3.012-4.44 0-2.736 1.164-4.464 3.012-4.464s3.012 1.728 3.012 4.464c0 2.712-1.164 4.44-3.012 4.44Zm-1.968-4.44c0 2.112.768 3.456 1.968 3.456s1.968-1.344 1.968-3.456c0-2.136-.768-3.48-1.968-3.48s-1.968 1.344-1.968 3.48Zm8.227 2.892h1.392V439h-1.392v-1.356Zm0-2.892v-1.356h1.392v1.356h-1.392Zm7.652 4.44c-1.848 0-3.012-1.728-3.012-4.44 0-2.736 1.164-4.464 3.012-4.464s3.012 1.728 3.012 4.464c0 2.712-1.164 4.44-3.012 4.44Zm-1.968-4.44c0 2.112.768 3.456 1.968 3.456s1.968-1.344 1.968-3.456c0-2.136-.768-3.48-1.968-3.48s-1.968 1.344-1.968 3.48Zm8.923 4.44c-1.848 0-3.012-1.728-3.012-4.44 0-2.736 1.164-4.464 3.012-4.464s3.012 1.728 3.012 4.464c0 2.712-1.164 4.44-3.012 4.44Zm-1.968-4.44c0 2.112.768 3.456 1.968 3.456s1.968-1.344 1.968-3.456c0-2.136-.768-3.48-1.968-3.48s-1.968 1.344-1.968 3.48ZM734.772 433.024c.228-1.584 1.344-2.736 3.048-2.736 1.548 0 2.7 1.032 2.7 2.424 0 1.224-.972 2.076-2.268 2.868-.72.42-2.352 1.572-2.388 2.436h4.716V439h-5.964c0-2.496 1.788-3.444 3.276-4.368.924-.588 1.572-1.248 1.572-1.92 0-.84-.672-1.44-1.644-1.44-1.056 0-1.764.648-1.992 1.824l-1.056-.072Zm6.871 4.992h2.592v-5.352h-2.1v-.852h1.008c.912 0 1.308-.408 1.308-1.332h.792v7.536h2.388V439h-5.988v-.984Zm9.163-.372h1.392V439h-1.392v-1.356Zm0-2.892v-1.356h1.392v1.356h-1.392Zm7.652 4.44c-1.848 0-3.012-1.728-3.012-4.44 0-2.736 1.164-4.464 3.012-4.464s3.012 1.728 3.012 4.464c0 2.712-1.164 4.44-3.012 4.44Zm-1.968-4.44c0 2.112.768 3.456 1.968 3.456s1.968-1.344 1.968-3.456c0-2.136-.768-3.48-1.968-3.48s-1.968 1.344-1.968 3.48Zm8.923 4.44c-1.848 0-3.012-1.728-3.012-4.44 0-2.736 1.164-4.464 3.012-4.464s3.012 1.728 3.012 4.464c0 2.712-1.164 4.44-3.012 4.44Zm-1.968-4.44c0 2.112.768 3.456 1.968 3.456s1.968-1.344 1.968-3.456c0-2.136-.768-3.48-1.968-3.48s-1.968 1.344-1.968 3.48ZM793.772 433.024c.228-1.584 1.344-2.736 3.048-2.736 1.548 0 2.7 1.032 2.7 2.424 0 1.224-.972 2.076-2.268 2.868-.72.42-2.352 1.572-2.388 2.436h4.716V439h-5.964c0-2.496 1.788-3.444 3.276-4.368.924-.588 1.572-1.248 1.572-1.92 0-.84-.672-1.44-1.644-1.44-1.056 0-1.764.648-1.992 1.824l-1.056-.072Zm6.955 0c.228-1.584 1.344-2.736 3.048-2.736 1.548 0 2.7 1.032 2.7 2.424 0 1.224-.972 2.076-2.268 2.868-.72.42-2.352 1.572-2.388 2.436h4.716V439h-5.964c0-2.496 1.788-3.444 3.276-4.368.924-.588 1.572-1.248 1.572-1.92 0-.84-.672-1.44-1.644-1.44-1.056 0-1.764.648-1.992 1.824l-1.056-.072Zm9.079 4.62h1.392V439h-1.392v-1.356Zm0-2.892v-1.356h1.392v1.356h-1.392Zm7.652 4.44c-1.848 0-3.012-1.728-3.012-4.44 0-2.736 1.164-4.464 3.012-4.464s3.012 1.728 3.012 4.464c0 2.712-1.164 4.44-3.012 4.44Zm-1.968-4.44c0 2.112.768 3.456 1.968 3.456s1.968-1.344 1.968-3.456c0-2.136-.768-3.48-1.968-3.48s-1.968 1.344-1.968 3.48Zm8.923 4.44c-1.848 0-3.012-1.728-3.012-4.44 0-2.736 1.164-4.464 3.012-4.464s3.012 1.728 3.012 4.464c0 2.712-1.164 4.44-3.012 4.44Zm-1.968-4.44c0 2.112.768 3.456 1.968 3.456s1.968-1.344 1.968-3.456c0-2.136-.768-3.48-1.968-3.48s-1.968 1.344-1.968 3.48Z"/>
    <path fill="#000" d="M.5 1.5h296v85H.5z"/>
    <path stroke="#797D86" d="M.5 1.5h296v85H.5z"/>
    <path fill="#fff" d="M24.207 21.64c3.184 0 5.152 2.048 5.152 5.696 0 3.632-1.92 5.664-5.056 5.664h-2.848V21.64h2.752ZM22.8 31.688h1.408c2.384 0 3.744-1.456 3.744-4.352 0-2.928-1.36-4.384-3.744-4.384H22.8v8.736Zm7.914-4.672c.304-1.6 1.68-2.688 3.44-2.688 2.048 0 3.408 1.184 3.408 3.552v3.408c0 .384.16.544.528.544h.352V33h-.432c-.992 0-1.6-.528-1.744-1.328-.336.8-1.312 1.52-2.672 1.52-1.68 0-3.024-.896-3.024-2.4 0-1.744 1.312-2.192 3.168-2.56l2.512-.48c-.016-1.472-.832-2.176-2.096-2.176-1.056 0-1.824.64-2.032 1.552l-1.408-.112Zm1.232 3.776c0 .688.576 1.248 1.824 1.232 1.408 0 2.512-.992 2.512-2.656v-.448l-2.032.352c-1.248.224-2.304.32-2.304 1.52Zm10.298-8.512h1.312v2.24h3.248v1.168h-3.248v5.008c0 .704.4 1.136 1.104 1.136h2.112V33h-2.112c-1.696 0-2.416-.912-2.416-2.32v-4.992H39.97V24.52h2.272v-2.24Zm7.018 4.736c.304-1.6 1.68-2.688 3.44-2.688 2.048 0 3.408 1.184 3.408 3.552v3.408c0 .384.16.544.528.544h.352V33h-.432c-.992 0-1.6-.528-1.744-1.328-.336.8-1.312 1.52-2.672 1.52-1.68 0-3.024-.896-3.024-2.4 0-1.744 1.312-2.192 3.168-2.56l2.512-.48c-.016-1.472-.832-2.176-2.096-2.176-1.056 0-1.824.64-2.032 1.552l-1.408-.112Zm1.232 3.776c0 .688.576 1.248 1.824 1.232 1.408 0 2.512-.992 2.512-2.656v-.448l-2.032.352c-1.248.224-2.304.32-2.304 1.52Zm8.137-9.152h1.312v4.032c.48-.864 1.376-1.344 2.624-1.344 2.448 0 3.584 2.08 3.584 4.432 0 2.352-1.136 4.432-3.584 4.432-1.312 0-2.224-.544-2.704-1.44L59.814 33H58.63V21.64Zm1.2 7.12c0 1.616.736 3.184 2.464 3.184 1.776 0 2.48-1.536 2.48-3.184 0-1.696-.704-3.232-2.48-3.232-1.728 0-2.464 1.552-2.464 3.232Zm7.978-1.744c.304-1.6 1.68-2.688 3.44-2.688 2.048 0 3.408 1.184 3.408 3.552v3.408c0 .384.16.544.528.544h.352V33h-.432c-.992 0-1.6-.528-1.744-1.328-.336.8-1.312 1.52-2.672 1.52-1.68 0-3.024-.896-3.024-2.4 0-1.744 1.312-2.192 3.168-2.56l2.512-.48c-.016-1.472-.832-2.176-2.096-2.176-1.056 0-1.824.64-2.032 1.552l-1.408-.112Zm1.232 3.776c0 .688.576 1.248 1.824 1.232 1.408 0 2.512-.992 2.512-2.656v-.448l-2.032.352c-1.248.224-2.304.32-2.304 1.52Zm13.738-3.664c-.192-.976-1.12-1.552-2.208-1.552-.912 0-1.728.464-1.728 1.344 0 .928 1.072 1.136 2.048 1.408 1.616.4 3.264.912 3.264 2.512 0 1.648-1.616 2.352-3.296 2.352-1.952 0-3.536-1.104-3.664-2.848l1.36-.096c.16 1.024 1.104 1.696 2.304 1.696.944 0 1.92-.256 1.92-1.168 0-.96-1.216-1.088-2.128-1.312-1.568-.384-3.184-.928-3.184-2.464 0-1.712 1.504-2.672 3.248-2.672 1.76 0 3.104 1.072 3.376 2.704l-1.312.096Zm3.45 1.632c0-2.688 1.52-4.432 3.872-4.432 1.888 0 3.536 1.264 3.664 4.256l.016.592h-6.16c.112 1.744 1.008 2.768 2.48 2.768.912 0 1.76-.544 2.144-1.44l1.408.096c-.496 1.6-1.936 2.592-3.552 2.592-2.352 0-3.872-1.744-3.872-4.432Zm1.424-.752h4.704c-.24-1.792-1.2-2.432-2.256-2.432-1.36 0-2.24.896-2.448 2.432Zm13.673-.88c-.192-.976-1.12-1.552-2.208-1.552-.912 0-1.728.464-1.728 1.344 0 .928 1.072 1.136 2.048 1.408 1.616.4 3.264.912 3.264 2.512 0 1.648-1.616 2.352-3.296 2.352-1.952 0-3.536-1.104-3.664-2.848l1.36-.096c.16 1.024 1.104 1.696 2.304 1.696.944 0 1.92-.256 1.92-1.168 0-.96-1.216-1.088-2.128-1.312-1.568-.384-3.184-.928-3.184-2.464 0-1.712 1.504-2.672 3.248-2.672 1.76 0 3.104 1.072 3.376 2.704l-1.312.096Zm19.956-5.488V33h-1.184l-.048-1.248c-.48.896-1.392 1.44-2.704 1.44-2.448 0-3.584-2.08-3.584-4.432 0-2.352 1.136-4.432 3.584-4.432 1.248 0 2.144.48 2.624 1.344V21.64h1.312Zm-6.144 7.12c0 1.648.704 3.184 2.48 3.184 1.728 0 2.464-1.568 2.464-3.184 0-1.68-.736-3.232-2.464-3.232-1.776 0-2.48 1.536-2.48 3.232Zm8.186 0c0-2.688 1.52-4.432 3.872-4.432 1.888 0 3.536 1.264 3.664 4.256l.016.592h-6.16c.112 1.744 1.008 2.768 2.48 2.768.912 0 1.76-.544 2.144-1.44l1.408.096c-.496 1.6-1.936 2.592-3.552 2.592-2.352 0-3.872-1.744-3.872-4.432Zm1.424-.752h4.704c-.24-1.792-1.2-2.432-2.256-2.432-1.36 0-2.24.896-2.448 2.432Zm8.073 7.392V24.52h1.184l.048 1.296c.464-.96 1.376-1.488 2.624-1.488 2.512 0 3.648 2.08 3.648 4.432 0 2.352-1.136 4.432-3.648 4.432-1.184 0-2.08-.48-2.544-1.376V35.4h-1.312Zm1.152-6.64c0 1.616.752 3.168 2.48 3.168 1.744 0 2.464-1.52 2.464-3.168 0-1.648-.72-3.184-2.464-3.184-1.728 0-2.48 1.568-2.48 3.184Zm8.474 3.072h2.976v-8.048c0-.688-.288-.992-.944-.992h-2.016V21.64h2.016c1.44 0 2.256.768 2.256 2.144v8.048h2.672V33h-6.96v-1.168Zm12.426 1.36c-2.352 0-3.872-1.744-3.872-4.432 0-2.688 1.52-4.432 3.872-4.432s3.872 1.744 3.872 4.432c0 2.688-1.52 4.432-3.872 4.432Zm-2.496-4.432c0 1.984.928 3.184 2.496 3.184 1.584 0 2.496-1.2 2.496-3.184 0-1.984-.912-3.184-2.496-3.184-1.568 0-2.496 1.2-2.496 3.184Zm7.898-4.24h1.392l2.576 7.072 2.496-7.072h1.392l-3.44 9.552c-.32.912-.928 1.328-1.888 1.328h-1.008v-1.168h.864c.432 0 .704-.16.864-.608l.304-.784h-.448l-3.104-8.32Zm9.417 4.24c0-2.688 1.52-4.432 3.872-4.432 1.888 0 3.536 1.264 3.664 4.256l.016.592h-6.16c.112 1.744 1.008 2.768 2.48 2.768.912 0 1.76-.544 2.144-1.44l1.408.096c-.496 1.6-1.936 2.592-3.552 2.592-2.352 0-3.872-1.744-3.872-4.432Zm1.424-.752h4.704c-.24-1.792-1.2-2.432-2.256-2.432-1.36 0-2.24.896-2.448 2.432Zm15.082-6.368V33h-1.184l-.048-1.248c-.48.896-1.392 1.44-2.704 1.44-2.448 0-3.584-2.08-3.584-4.432 0-2.352 1.136-4.432 3.584-4.432 1.248 0 2.144.48 2.624 1.344V21.64h1.312Zm-6.144 7.12c0 1.648.704 3.184 2.48 3.184 1.728 0 2.464-1.568 2.464-3.184 0-1.68-.736-3.232-2.464-3.232-1.776 0-2.48 1.536-2.48 3.232Zm10.986 2.432h1.856V33h-1.856v-1.808Zm0-3.856v-1.808h1.856v1.808h-1.856Z"/>
    <path fill="#34D59A" d="M221.947 31.688h3.456v-7.136h-2.8v-1.136h1.344c1.216 0 1.744-.544 1.744-1.776h1.056v10.048h3.184V33h-7.984v-1.312Zm16.105-10.048v7.712h1.313v1.312h-1.313V33h-1.344v-2.336h-5.888v-1.312l5.808-7.712h1.424Zm-5.568 7.712h4.224v-5.648l-4.224 5.648ZM245.31 33l-1.104 2.544h-.8l.8-2.544h-.768v-1.808h1.856V33h.016Zm4.57-7.968c.304-2.112 1.792-3.648 4.064-3.648 2.064 0 3.6 1.376 3.6 3.232 0 1.632-1.296 2.768-3.024 3.824-.96.56-3.136 2.096-3.184 3.248h6.288V33h-7.952c0-3.328 2.384-4.592 4.368-5.824 1.232-.784 2.096-1.664 2.096-2.56 0-1.12-.896-1.92-2.192-1.92-1.408 0-2.352.864-2.656 2.432l-1.408-.096Zm13.034 8.224c-2.288 0-4.016-1.296-4.016-3.376 0-1.408.832-2.496 2.192-3.04-1.04-.448-1.648-1.2-1.648-2.336 0-1.792 1.52-3.12 3.472-3.12 1.968 0 3.472 1.328 3.472 3.12 0 1.136-.608 1.888-1.648 2.336 1.376.56 2.192 1.648 2.192 3.04 0 2.08-1.728 3.376-4.016 3.376Zm-2.608-3.488c0 1.296 1.072 2.176 2.608 2.176s2.608-.88 2.608-2.176c0-1.264-1.072-2.144-2.608-2.144s-2.608.88-2.608 2.144Zm.544-5.264c0 1.04.848 1.76 2.064 1.76 1.216 0 2.064-.72 2.064-1.76 0-1.072-.848-1.808-2.064-1.808-1.216 0-2.064.736-2.064 1.808Zm7.514-2.864h8.048v1.264c-2.288 2.912-3.904 6.368-3.904 10.096H271.1c0-3.728 1.52-7.152 3.824-10.048h-6.56V21.64Z"/>
    <path fill="#fff" d="M23.981 55.64c3.184 0 5.152 2.048 5.152 5.696 0 3.632-1.92 5.664-5.056 5.664H21.23V55.64h2.752Zm-1.408 10.048h1.408c2.384 0 3.744-1.456 3.744-4.352 0-2.928-1.36-4.384-3.744-4.384h-1.408v8.736Zm7.914-4.672c.304-1.6 1.68-2.688 3.44-2.688 2.048 0 3.408 1.184 3.408 3.552v3.408c0 .384.16.544.528.544h.352V67h-.432c-.992 0-1.6-.528-1.744-1.328-.336.8-1.312 1.52-2.672 1.52-1.68 0-3.024-.896-3.024-2.4 0-1.744 1.312-2.192 3.168-2.56l2.512-.48c-.016-1.472-.832-2.176-2.096-2.176-1.056 0-1.824.64-2.032 1.552l-1.408-.112Zm1.232 3.776c0 .688.576 1.248 1.824 1.232 1.408 0 2.512-.992 2.512-2.656v-.448l-2.032.352c-1.248.224-2.304.32-2.304 1.52Zm10.298-8.512h1.312v2.24h3.248v1.168h-3.248v5.008c0 .704.4 1.136 1.104 1.136h2.112V67h-2.112c-1.696 0-2.416-.912-2.416-2.32v-4.992h-2.272V58.52h2.272v-2.24Zm7.017 4.736c.304-1.6 1.68-2.688 3.44-2.688 2.048 0 3.408 1.184 3.408 3.552v3.408c0 .384.16.544.528.544h.352V67h-.432c-.992 0-1.6-.528-1.744-1.328-.336.8-1.312 1.52-2.672 1.52-1.68 0-3.024-.896-3.024-2.4 0-1.744 1.312-2.192 3.168-2.56l2.512-.48c-.016-1.472-.832-2.176-2.096-2.176-1.056 0-1.824.64-2.032 1.552l-1.408-.112Zm1.232 3.776c0 .688.576 1.248 1.824 1.232 1.408 0 2.512-.992 2.512-2.656v-.448l-2.032.352c-1.248.224-2.304.32-2.304 1.52Zm8.138-9.152h1.312v4.032c.48-.864 1.376-1.344 2.624-1.344 2.448 0 3.584 2.08 3.584 4.432 0 2.352-1.136 4.432-3.584 4.432-1.312 0-2.224-.544-2.704-1.44L59.588 67h-1.184V55.64Zm1.2 7.12c0 1.616.736 3.184 2.464 3.184 1.776 0 2.48-1.536 2.48-3.184 0-1.696-.704-3.232-2.48-3.232-1.728 0-2.464 1.552-2.464 3.232Zm7.978-1.744c.304-1.6 1.68-2.688 3.44-2.688 2.048 0 3.408 1.184 3.408 3.552v3.408c0 .384.16.544.528.544h.352V67h-.432c-.992 0-1.6-.528-1.744-1.328-.336.8-1.312 1.52-2.672 1.52-1.68 0-3.024-.896-3.024-2.4 0-1.744 1.312-2.192 3.168-2.56l2.512-.48c-.016-1.472-.832-2.176-2.096-2.176-1.056 0-1.824.64-2.032 1.552l-1.408-.112Zm1.232 3.776c0 .688.576 1.248 1.824 1.232 1.408 0 2.512-.992 2.512-2.656v-.448l-2.032.352c-1.248.224-2.304.32-2.304 1.52Zm13.738-3.664c-.192-.976-1.12-1.552-2.208-1.552-.912 0-1.728.464-1.728 1.344 0 .928 1.072 1.136 2.048 1.408 1.616.4 3.264.912 3.264 2.512 0 1.648-1.616 2.352-3.296 2.352-1.952 0-3.536-1.104-3.664-2.848l1.36-.096c.16 1.024 1.104 1.696 2.304 1.696.944 0 1.92-.256 1.92-1.168 0-.96-1.216-1.088-2.128-1.312-1.568-.384-3.184-.928-3.184-2.464 0-1.712 1.504-2.672 3.248-2.672 1.76 0 3.104 1.072 3.376 2.704l-1.312.096Zm3.45 1.632c0-2.688 1.52-4.432 3.871-4.432 1.888 0 3.536 1.264 3.664 4.256l.016.592h-6.16c.112 1.744 1.008 2.768 2.48 2.768.912 0 1.76-.544 2.144-1.44l1.408.096c-.496 1.6-1.936 2.592-3.552 2.592-2.352 0-3.872-1.744-3.872-4.432Zm1.423-.752h4.704c-.24-1.792-1.2-2.432-2.256-2.432-1.36 0-2.24.896-2.448 2.432Zm13.674-.88c-.192-.976-1.12-1.552-2.208-1.552-.912 0-1.728.464-1.728 1.344 0 .928 1.072 1.136 2.048 1.408 1.616.4 3.264.912 3.264 2.512 0 1.648-1.616 2.352-3.296 2.352-1.952 0-3.536-1.104-3.664-2.848l1.36-.096c.16 1.024 1.104 1.696 2.304 1.696.944 0 1.92-.256 1.92-1.168 0-.96-1.216-1.088-2.128-1.312-1.568-.384-3.184-.928-3.184-2.464 0-1.712 1.504-2.672 3.248-2.672 1.76 0 3.104 1.072 3.376 2.704l-1.312.096Zm12.852-.112c.304-1.6 1.68-2.688 3.44-2.688 2.048 0 3.408 1.184 3.408 3.552v3.408c0 .384.16.544.528.544h.352V67h-.432c-.992 0-1.6-.528-1.744-1.328-.336.8-1.312 1.52-2.672 1.52-1.68 0-3.024-.896-3.024-2.4 0-1.744 1.312-2.192 3.168-2.56l2.512-.48c-.016-1.472-.832-2.176-2.096-2.176-1.056 0-1.824.64-2.032 1.552l-1.408-.112Zm1.232 3.776c0 .688.576 1.248 1.824 1.232 1.408 0 2.512-.992 2.512-2.656v-.448l-2.032.352c-1.248.224-2.304.32-2.304 1.52Zm14.009-3.44c-.192-1.12-1.12-1.776-2.16-1.776-1.568 0-2.496 1.2-2.496 3.184 0 1.984.928 3.184 2.496 3.184 1.088 0 2.016-.72 2.224-1.936l1.376.08c-.272 1.92-1.792 3.104-3.6 3.104-2.352 0-3.872-1.744-3.872-4.432 0-2.688 1.52-4.432 3.872-4.432 1.744 0 3.296 1.12 3.536 2.928l-1.376.096Zm5.562-5.072h1.312v2.24h3.248v1.168h-3.248v5.008c0 .704.4 1.136 1.104 1.136h2.112V67h-2.112c-1.696 0-2.416-.912-2.416-2.32v-4.992h-2.272V58.52h2.272v-2.24Zm11.834 2.24v7.312h2.592V67h-6.96v-1.168h3.056v-6.144h-3.056V58.52h4.368Zm-1.488-1.28v-1.6h1.488v1.6H145.1Zm13.466 1.28L155.462 67h-1.632l-3.104-8.48h1.408l2.512 7.104 2.512-7.104h1.408Zm1.625 4.24c0-2.688 1.52-4.432 3.872-4.432 1.888 0 3.536 1.264 3.664 4.256l.016.592h-6.16c.112 1.744 1.008 2.768 2.48 2.768.912 0 1.76-.544 2.144-1.44l1.408.096c-.496 1.6-1.936 2.592-3.552 2.592-2.352 0-3.872-1.744-3.872-4.432Zm1.424-.752h4.704c-.24-1.792-1.2-2.432-2.256-2.432-1.36 0-2.24.896-2.448 2.432Zm10.65 3.184h1.856V67h-1.856v-1.808Zm0-3.856v-1.808h1.856v1.808h-1.856Z"/>
    <path fill="#34D59A" d="M231.084 65.688h3.456v-7.136h-2.8v-1.136h1.344c1.216 0 1.744-.544 1.744-1.776h1.056v10.048h3.184V67h-7.984v-1.312ZM245.173 67l-1.104 2.544h-.8l.8-2.544h-.768v-1.808h1.856V67h.016Zm8.234-6.688c1.104.016 2.304-.512 2.304-1.968 0-1.008-.848-1.648-2.304-1.648-1.168 0-2.032.592-2.176 1.504l-1.408-.096c.208-1.584 1.712-2.72 3.584-2.72 2.176 0 3.712 1.216 3.712 2.96 0 1.264-.672 2.128-2.016 2.512 1.568.464 2.4 1.568 2.4 3.024 0 1.984-1.648 3.376-4.096 3.376-2.256 0-3.888-1.312-3.984-3.168l1.376-.096c.128 1.392 1.456 1.952 2.608 1.952 1.648 0 2.704-.848 2.704-2.176 0-1.36-1.056-2.192-2.704-2.16l-.864.016v-1.328l.864.016Zm5.61-1.28c.304-2.112 1.792-3.648 4.064-3.648 2.064 0 3.6 1.376 3.6 3.232 0 1.632-1.296 2.768-3.024 3.824-.96.56-3.136 2.096-3.184 3.248h6.288V67h-7.952c0-3.328 2.384-4.592 4.368-5.824 1.232-.784 2.096-1.664 2.096-2.56 0-1.12-.896-1.92-2.192-1.92-1.408 0-2.352.864-2.656 2.432l-1.408-.096Zm13.034 8.224c-2.288 0-4.016-1.296-4.016-3.376 0-1.408.832-2.496 2.192-3.04-1.04-.448-1.648-1.2-1.648-2.336 0-1.792 1.52-3.12 3.472-3.12 1.968 0 3.472 1.328 3.472 3.12 0 1.136-.608 1.888-1.648 2.336 1.376.56 2.192 1.648 2.192 3.04 0 2.08-1.728 3.376-4.016 3.376Zm-2.608-3.488c0 1.296 1.072 2.176 2.608 2.176s2.608-.88 2.608-2.176c0-1.264-1.072-2.144-2.608-2.144s-2.608.88-2.608 2.144Zm.544-5.264c0 1.04.848 1.76 2.064 1.76 1.216 0 2.064-.72 2.064-1.76 0-1.072-.848-1.808-2.064-1.808-1.216 0-2.064.736-2.064 1.808Z"/>
    <path stroke="#797D86" d="M.5 83v376M0 459h928"/>
  </g>
  <defs>
    <linearGradient id="a" x1="832" x2="0" y1="230" y2="230" gradientUnits="userSpaceOnUse">
      <stop stop-color="#D9D9D9" stop-opacity="0"/>
      <stop offset=".3" stop-color="#737373"/>
    </linearGradient>
  </defs>
</svg>
