<svg width="457" height="93" viewBox="0 0 457 93" fill="none" xmlns="http://www.w3.org/2000/svg">
<mask id="mask0_16141_14758" style="mask-type:alpha" maskUnits="userSpaceOnUse" x="-1" y="0" width="458" height="93">
<ellipse cx="0.699144" cy="0.704595" rx="0.699388" ry="0.704595" fill="#0C0D0D"/>
<ellipse cx="6.69402" cy="0.704595" rx="0.699388" ry="0.704595" fill="#0C0D0D"/>
<ellipse cx="12.6886" cy="0.704595" rx="0.699388" ry="0.704595" fill="#0C0D0D"/>
<ellipse cx="18.6835" cy="0.704595" rx="0.699388" ry="0.704595" fill="#0C0D0D"/>
<ellipse cx="24.6781" cy="0.704595" rx="0.699388" ry="0.704595" fill="#0C0D0D"/>
<ellipse cx="30.673" cy="0.704595" rx="0.699388" ry="0.704595" fill="#0C0D0D"/>
<ellipse cx="36.6676" cy="0.704595" rx="0.699388" ry="0.704595" fill="#0C0D0D"/>
<ellipse cx="42.6625" cy="0.704595" rx="0.699388" ry="0.704595" fill="#0C0D0D"/>
<ellipse cx="48.6572" cy="0.704595" rx="0.699388" ry="0.704595" fill="#0C0D0D"/>
<ellipse cx="54.652" cy="0.704595" rx="0.699388" ry="0.704595" fill="#0C0D0D"/>
<ellipse cx="60.6467" cy="0.704595" rx="0.699388" ry="0.704595" fill="#0C0D0D"/>
<ellipse cx="66.6415" cy="0.704595" rx="0.699388" ry="0.704595" fill="#0C0D0D"/>
<ellipse cx="72.6362" cy="0.704595" rx="0.699388" ry="0.704595" fill="#0C0D0D"/>
<ellipse cx="78.631" cy="0.704595" rx="0.699388" ry="0.704595" fill="#0C0D0D"/>
<ellipse cx="84.6257" cy="0.704595" rx="0.699388" ry="0.704595" fill="#0C0D0D"/>
<ellipse cx="90.6205" cy="0.704595" rx="0.699388" ry="0.704595" fill="#0C0D0D"/>
<ellipse cx="96.6152" cy="0.704595" rx="0.699388" ry="0.704595" fill="#0C0D0D"/>
<ellipse cx="102.61" cy="0.704595" rx="0.699388" ry="0.704595" fill="#0C0D0D"/>
<ellipse cx="108.605" cy="0.704595" rx="0.699388" ry="0.704595" fill="#0C0D0D"/>
<ellipse cx="114.6" cy="0.704595" rx="0.699388" ry="0.704595" fill="#0C0D0D"/>
<ellipse cx="120.594" cy="0.704595" rx="0.699388" ry="0.704595" fill="#0C0D0D"/>
<ellipse cx="126.589" cy="0.704595" rx="0.699388" ry="0.704595" fill="#0C0D0D"/>
<ellipse cx="132.584" cy="0.704595" rx="0.699388" ry="0.704595" fill="#0C0D0D"/>
<ellipse cx="138.579" cy="0.704595" rx="0.699388" ry="0.704595" fill="#0C0D0D"/>
<ellipse cx="144.573" cy="0.704595" rx="0.699388" ry="0.704595" fill="#0C0D0D"/>
<ellipse cx="150.568" cy="0.704595" rx="0.699388" ry="0.704595" fill="#0C0D0D"/>
<ellipse cx="156.563" cy="0.704595" rx="0.699388" ry="0.704595" fill="#0C0D0D"/>
<ellipse cx="162.558" cy="0.704595" rx="0.699388" ry="0.704595" fill="#0C0D0D"/>
<ellipse cx="168.552" cy="0.704595" rx="0.699388" ry="0.704595" fill="#0C0D0D"/>
<ellipse cx="174.547" cy="0.704595" rx="0.699388" ry="0.704595" fill="#0C0D0D"/>
<ellipse cx="180.542" cy="0.704595" rx="0.699388" ry="0.704595" fill="#0C0D0D"/>
<ellipse cx="186.537" cy="0.704595" rx="0.699388" ry="0.704595" fill="#0C0D0D"/>
<ellipse cx="192.531" cy="0.704595" rx="0.699388" ry="0.704595" fill="#0C0D0D"/>
<ellipse cx="198.526" cy="0.704595" rx="0.699388" ry="0.704595" fill="#0C0D0D"/>
<ellipse cx="204.521" cy="0.704595" rx="0.699388" ry="0.704595" fill="#0C0D0D"/>
<ellipse cx="210.516" cy="0.704595" rx="0.699388" ry="0.704595" fill="#0C0D0D"/>
<ellipse cx="216.51" cy="0.704595" rx="0.699388" ry="0.704595" fill="#0C0D0D"/>
<ellipse cx="222.505" cy="0.704595" rx="0.699388" ry="0.704595" fill="#0C0D0D"/>
<ellipse cx="228.5" cy="0.704595" rx="0.699388" ry="0.704595" fill="#0C0D0D"/>
<ellipse cx="234.495" cy="0.704595" rx="0.699388" ry="0.704595" fill="#0C0D0D"/>
<ellipse cx="240.489" cy="0.704595" rx="0.699388" ry="0.704595" fill="#0C0D0D"/>
<ellipse cx="246.484" cy="0.704595" rx="0.699388" ry="0.704595" fill="#0C0D0D"/>
<ellipse cx="252.479" cy="0.704595" rx="0.699388" ry="0.704595" fill="#0C0D0D"/>
<ellipse cx="258.474" cy="0.704595" rx="0.699388" ry="0.704595" fill="#0C0D0D"/>
<ellipse cx="264.468" cy="0.704595" rx="0.699388" ry="0.704595" fill="#0C0D0D"/>
<ellipse cx="270.463" cy="0.704595" rx="0.699388" ry="0.704595" fill="#0C0D0D"/>
<ellipse cx="276.458" cy="0.704595" rx="0.699388" ry="0.704595" fill="#0C0D0D"/>
<ellipse cx="282.453" cy="0.704595" rx="0.699388" ry="0.704595" fill="#0C0D0D"/>
<ellipse cx="288.447" cy="0.704595" rx="0.699388" ry="0.704595" fill="#0C0D0D"/>
<ellipse cx="294.442" cy="0.704595" rx="0.699388" ry="0.704595" fill="#0C0D0D"/>
<ellipse cx="300.437" cy="0.704595" rx="0.699388" ry="0.704595" fill="#0C0D0D"/>
<ellipse cx="306.432" cy="0.704595" rx="0.699388" ry="0.704595" fill="#0C0D0D"/>
<ellipse cx="312.426" cy="0.704595" rx="0.699388" ry="0.704595" fill="#0C0D0D"/>
<ellipse cx="318.421" cy="0.704595" rx="0.699388" ry="0.704595" fill="#0C0D0D"/>
<ellipse cx="324.416" cy="0.704595" rx="0.699388" ry="0.704595" fill="#0C0D0D"/>
<ellipse cx="330.411" cy="0.704595" rx="0.699388" ry="0.704595" fill="#0C0D0D"/>
<ellipse cx="336.405" cy="0.704595" rx="0.699388" ry="0.704595" fill="#0C0D0D"/>
<ellipse cx="342.4" cy="0.704595" rx="0.699388" ry="0.704595" fill="#0C0D0D"/>
<ellipse cx="348.395" cy="0.704595" rx="0.699388" ry="0.704595" fill="#0C0D0D"/>
<ellipse cx="354.39" cy="0.704595" rx="0.699388" ry="0.704595" fill="#0C0D0D"/>
<ellipse cx="360.384" cy="0.704595" rx="0.699388" ry="0.704595" fill="#0C0D0D"/>
<ellipse cx="366.379" cy="0.704595" rx="0.699388" ry="0.704595" fill="#0C0D0D"/>
<ellipse cx="372.374" cy="0.704595" rx="0.699388" ry="0.704595" fill="#0C0D0D"/>
<ellipse cx="378.369" cy="0.704595" rx="0.699388" ry="0.704595" fill="#0C0D0D"/>
<ellipse cx="384.363" cy="0.704595" rx="0.699388" ry="0.704595" fill="#0C0D0D"/>
<ellipse cx="390.358" cy="0.704595" rx="0.699388" ry="0.704595" fill="#0C0D0D"/>
<ellipse cx="396.353" cy="0.704595" rx="0.699388" ry="0.704595" fill="#0C0D0D"/>
<ellipse cx="402.348" cy="0.704595" rx="0.699388" ry="0.704595" fill="#0C0D0D"/>
<ellipse cx="408.342" cy="0.704595" rx="0.699388" ry="0.704595" fill="#0C0D0D"/>
<ellipse cx="414.337" cy="0.704595" rx="0.699388" ry="0.704595" fill="#0C0D0D"/>
<ellipse cx="420.332" cy="0.704595" rx="0.699388" ry="0.704595" fill="#0C0D0D"/>
<ellipse cx="426.327" cy="0.704595" rx="0.699388" ry="0.704595" fill="#0C0D0D"/>
<ellipse cx="432.321" cy="0.704595" rx="0.699388" ry="0.704595" fill="#0C0D0D"/>
<ellipse cx="438.316" cy="0.704595" rx="0.699388" ry="0.704595" fill="#0C0D0D"/>
<ellipse cx="444.311" cy="0.704595" rx="0.699388" ry="0.704595" fill="#0C0D0D"/>
<ellipse cx="450.306" cy="0.704595" rx="0.699388" ry="0.704595" fill="#0C0D0D"/>
<ellipse cx="456.3" cy="0.704595" rx="0.699388" ry="0.704595" fill="#0C0D0D"/>
<ellipse cx="0.699144" cy="6.74366" rx="0.699388" ry="0.704595" fill="#0C0D0D"/>
<ellipse cx="6.69402" cy="6.74366" rx="0.699388" ry="0.704595" fill="#0C0D0D"/>
<ellipse cx="12.6886" cy="6.74366" rx="0.699388" ry="0.704595" fill="#0C0D0D"/>
<ellipse cx="18.6835" cy="6.74366" rx="0.699388" ry="0.704595" fill="#0C0D0D"/>
<ellipse cx="24.6781" cy="6.74366" rx="0.699388" ry="0.704595" fill="#0C0D0D"/>
<ellipse cx="30.673" cy="6.74366" rx="0.699388" ry="0.704595" fill="#0C0D0D"/>
<ellipse cx="36.6676" cy="6.74366" rx="0.699388" ry="0.704595" fill="#0C0D0D"/>
<ellipse cx="42.6625" cy="6.74366" rx="0.699388" ry="0.704595" fill="#0C0D0D"/>
<ellipse cx="48.6572" cy="6.74366" rx="0.699388" ry="0.704595" fill="#0C0D0D"/>
<ellipse cx="54.652" cy="6.74366" rx="0.699388" ry="0.704595" fill="#0C0D0D"/>
<ellipse cx="60.6467" cy="6.74366" rx="0.699388" ry="0.704595" fill="#0C0D0D"/>
<ellipse cx="66.6415" cy="6.74366" rx="0.699388" ry="0.704595" fill="#0C0D0D"/>
<ellipse cx="72.6362" cy="6.74366" rx="0.699388" ry="0.704595" fill="#0C0D0D"/>
<ellipse cx="78.631" cy="6.74366" rx="0.699388" ry="0.704595" fill="#0C0D0D"/>
<ellipse cx="84.6257" cy="6.74366" rx="0.699388" ry="0.704595" fill="#0C0D0D"/>
<ellipse cx="90.6205" cy="6.74366" rx="0.699388" ry="0.704595" fill="#0C0D0D"/>
<ellipse cx="96.6152" cy="6.74366" rx="0.699388" ry="0.704595" fill="#0C0D0D"/>
<ellipse cx="102.61" cy="6.74366" rx="0.699388" ry="0.704595" fill="#0C0D0D"/>
<ellipse cx="108.605" cy="6.74366" rx="0.699388" ry="0.704595" fill="#0C0D0D"/>
<ellipse cx="114.6" cy="6.74366" rx="0.699388" ry="0.704595" fill="#0C0D0D"/>
<ellipse cx="120.594" cy="6.74366" rx="0.699388" ry="0.704595" fill="#0C0D0D"/>
<ellipse cx="126.589" cy="6.74366" rx="0.699388" ry="0.704595" fill="#0C0D0D"/>
<ellipse cx="132.584" cy="6.74366" rx="0.699388" ry="0.704595" fill="#0C0D0D"/>
<ellipse cx="138.579" cy="6.74366" rx="0.699388" ry="0.704595" fill="#0C0D0D"/>
<ellipse cx="144.573" cy="6.74366" rx="0.699388" ry="0.704595" fill="#0C0D0D"/>
<ellipse cx="150.568" cy="6.74366" rx="0.699388" ry="0.704595" fill="#0C0D0D"/>
<ellipse cx="156.563" cy="6.74366" rx="0.699388" ry="0.704595" fill="#0C0D0D"/>
<ellipse cx="162.558" cy="6.74366" rx="0.699388" ry="0.704595" fill="#0C0D0D"/>
<ellipse cx="168.552" cy="6.74366" rx="0.699388" ry="0.704595" fill="#0C0D0D"/>
<ellipse cx="174.547" cy="6.74366" rx="0.699388" ry="0.704595" fill="#0C0D0D"/>
<ellipse cx="180.542" cy="6.74366" rx="0.699388" ry="0.704595" fill="#0C0D0D"/>
<ellipse cx="186.537" cy="6.74366" rx="0.699388" ry="0.704595" fill="#0C0D0D"/>
<ellipse cx="192.531" cy="6.74366" rx="0.699388" ry="0.704595" fill="#0C0D0D"/>
<ellipse cx="198.526" cy="6.74366" rx="0.699388" ry="0.704595" fill="#0C0D0D"/>
<ellipse cx="204.521" cy="6.74366" rx="0.699388" ry="0.704595" fill="#0C0D0D"/>
<ellipse cx="210.516" cy="6.74366" rx="0.699388" ry="0.704595" fill="#0C0D0D"/>
<ellipse cx="216.51" cy="6.74366" rx="0.699388" ry="0.704595" fill="#0C0D0D"/>
<ellipse cx="222.505" cy="6.74366" rx="0.699388" ry="0.704595" fill="#0C0D0D"/>
<ellipse cx="228.5" cy="6.74366" rx="0.699388" ry="0.704595" fill="#0C0D0D"/>
<ellipse cx="234.495" cy="6.74366" rx="0.699388" ry="0.704595" fill="#0C0D0D"/>
<ellipse cx="240.489" cy="6.74366" rx="0.699388" ry="0.704595" fill="#0C0D0D"/>
<ellipse cx="246.484" cy="6.74366" rx="0.699388" ry="0.704595" fill="#0C0D0D"/>
<ellipse cx="252.479" cy="6.74366" rx="0.699388" ry="0.704595" fill="#0C0D0D"/>
<ellipse cx="258.474" cy="6.74366" rx="0.699388" ry="0.704595" fill="#0C0D0D"/>
<ellipse cx="264.468" cy="6.74366" rx="0.699388" ry="0.704595" fill="#0C0D0D"/>
<ellipse cx="270.463" cy="6.74366" rx="0.699388" ry="0.704595" fill="#0C0D0D"/>
<ellipse cx="276.458" cy="6.74366" rx="0.699388" ry="0.704595" fill="#0C0D0D"/>
<ellipse cx="282.453" cy="6.74366" rx="0.699388" ry="0.704595" fill="#0C0D0D"/>
<ellipse cx="288.447" cy="6.74366" rx="0.699388" ry="0.704595" fill="#0C0D0D"/>
<ellipse cx="294.442" cy="6.74366" rx="0.699388" ry="0.704595" fill="#0C0D0D"/>
<ellipse cx="300.437" cy="6.74366" rx="0.699388" ry="0.704595" fill="#0C0D0D"/>
<ellipse cx="306.432" cy="6.74366" rx="0.699388" ry="0.704595" fill="#0C0D0D"/>
<ellipse cx="312.426" cy="6.74366" rx="0.699388" ry="0.704595" fill="#0C0D0D"/>
<ellipse cx="318.421" cy="6.74366" rx="0.699388" ry="0.704595" fill="#0C0D0D"/>
<ellipse cx="324.416" cy="6.74366" rx="0.699388" ry="0.704595" fill="#0C0D0D"/>
<ellipse cx="330.411" cy="6.74366" rx="0.699388" ry="0.704595" fill="#0C0D0D"/>
<ellipse cx="336.405" cy="6.74366" rx="0.699388" ry="0.704595" fill="#0C0D0D"/>
<ellipse cx="342.4" cy="6.74366" rx="0.699388" ry="0.704595" fill="#0C0D0D"/>
<ellipse cx="348.395" cy="6.74366" rx="0.699388" ry="0.704595" fill="#0C0D0D"/>
<ellipse cx="354.39" cy="6.74366" rx="0.699388" ry="0.704595" fill="#0C0D0D"/>
<ellipse cx="360.384" cy="6.74366" rx="0.699388" ry="0.704595" fill="#0C0D0D"/>
<ellipse cx="366.379" cy="6.74366" rx="0.699388" ry="0.704595" fill="#0C0D0D"/>
<ellipse cx="372.374" cy="6.74366" rx="0.699388" ry="0.704595" fill="#0C0D0D"/>
<ellipse cx="378.369" cy="6.74366" rx="0.699388" ry="0.704595" fill="#0C0D0D"/>
<ellipse cx="384.363" cy="6.74366" rx="0.699388" ry="0.704595" fill="#0C0D0D"/>
<ellipse cx="390.358" cy="6.74366" rx="0.699388" ry="0.704595" fill="#0C0D0D"/>
<ellipse cx="396.353" cy="6.74366" rx="0.699388" ry="0.704595" fill="#0C0D0D"/>
<ellipse cx="402.348" cy="6.74366" rx="0.699388" ry="0.704595" fill="#0C0D0D"/>
<ellipse cx="408.342" cy="6.74366" rx="0.699388" ry="0.704595" fill="#0C0D0D"/>
<ellipse cx="414.337" cy="6.74366" rx="0.699388" ry="0.704595" fill="#0C0D0D"/>
<ellipse cx="420.332" cy="6.74366" rx="0.699388" ry="0.704595" fill="#0C0D0D"/>
<ellipse cx="426.327" cy="6.74366" rx="0.699388" ry="0.704595" fill="#0C0D0D"/>
<ellipse cx="432.321" cy="6.74366" rx="0.699388" ry="0.704595" fill="#0C0D0D"/>
<ellipse cx="438.316" cy="6.74366" rx="0.699388" ry="0.704595" fill="#0C0D0D"/>
<ellipse cx="444.311" cy="6.74366" rx="0.699388" ry="0.704595" fill="#0C0D0D"/>
<ellipse cx="450.306" cy="6.74366" rx="0.699388" ry="0.704595" fill="#0C0D0D"/>
<ellipse cx="456.3" cy="6.74366" rx="0.699388" ry="0.704595" fill="#0C0D0D"/>
<ellipse cx="0.699144" cy="12.7827" rx="0.699388" ry="0.704595" fill="#0C0D0D"/>
<ellipse cx="6.69402" cy="12.7827" rx="0.699388" ry="0.704595" fill="#0C0D0D"/>
<ellipse cx="12.6886" cy="12.7827" rx="0.699388" ry="0.704595" fill="#0C0D0D"/>
<ellipse cx="18.6835" cy="12.7827" rx="0.699388" ry="0.704595" fill="#0C0D0D"/>
<ellipse cx="24.6781" cy="12.7827" rx="0.699388" ry="0.704595" fill="#0C0D0D"/>
<ellipse cx="30.673" cy="12.7827" rx="0.699388" ry="0.704595" fill="#0C0D0D"/>
<ellipse cx="36.6676" cy="12.7827" rx="0.699388" ry="0.704595" fill="#0C0D0D"/>
<ellipse cx="42.6625" cy="12.7827" rx="0.699388" ry="0.704595" fill="#0C0D0D"/>
<ellipse cx="48.6572" cy="12.7827" rx="0.699388" ry="0.704595" fill="#0C0D0D"/>
<ellipse cx="54.652" cy="12.7827" rx="0.699388" ry="0.704595" fill="#0C0D0D"/>
<ellipse cx="60.6467" cy="12.7827" rx="0.699388" ry="0.704595" fill="#0C0D0D"/>
<ellipse cx="66.6415" cy="12.7827" rx="0.699388" ry="0.704595" fill="#0C0D0D"/>
<ellipse cx="72.6362" cy="12.7827" rx="0.699388" ry="0.704595" fill="#0C0D0D"/>
<ellipse cx="78.631" cy="12.7827" rx="0.699388" ry="0.704595" fill="#0C0D0D"/>
<ellipse cx="84.6257" cy="12.7827" rx="0.699388" ry="0.704595" fill="#0C0D0D"/>
<ellipse cx="90.6205" cy="12.7827" rx="0.699388" ry="0.704595" fill="#0C0D0D"/>
<ellipse cx="96.6152" cy="12.7827" rx="0.699388" ry="0.704595" fill="#0C0D0D"/>
<ellipse cx="102.61" cy="12.7827" rx="0.699388" ry="0.704595" fill="#0C0D0D"/>
<ellipse cx="108.605" cy="12.7827" rx="0.699388" ry="0.704595" fill="#0C0D0D"/>
<ellipse cx="114.6" cy="12.7827" rx="0.699388" ry="0.704595" fill="#0C0D0D"/>
<ellipse cx="120.594" cy="12.7827" rx="0.699388" ry="0.704595" fill="#0C0D0D"/>
<ellipse cx="126.589" cy="12.7827" rx="0.699388" ry="0.704595" fill="#0C0D0D"/>
<ellipse cx="132.584" cy="12.7827" rx="0.699388" ry="0.704595" fill="#0C0D0D"/>
<ellipse cx="138.579" cy="12.7827" rx="0.699388" ry="0.704595" fill="#0C0D0D"/>
<ellipse cx="144.573" cy="12.7827" rx="0.699388" ry="0.704595" fill="#0C0D0D"/>
<ellipse cx="150.568" cy="12.7827" rx="0.699388" ry="0.704595" fill="#0C0D0D"/>
<ellipse cx="156.563" cy="12.7827" rx="0.699388" ry="0.704595" fill="#0C0D0D"/>
<ellipse cx="162.558" cy="12.7827" rx="0.699388" ry="0.704595" fill="#0C0D0D"/>
<ellipse cx="168.552" cy="12.7827" rx="0.699388" ry="0.704595" fill="#0C0D0D"/>
<ellipse cx="174.547" cy="12.7827" rx="0.699388" ry="0.704595" fill="#0C0D0D"/>
<ellipse cx="180.542" cy="12.7827" rx="0.699388" ry="0.704595" fill="#0C0D0D"/>
<ellipse cx="186.537" cy="12.7827" rx="0.699388" ry="0.704595" fill="#0C0D0D"/>
<ellipse cx="192.531" cy="12.7827" rx="0.699388" ry="0.704595" fill="#0C0D0D"/>
<ellipse cx="198.526" cy="12.7827" rx="0.699388" ry="0.704595" fill="#0C0D0D"/>
<ellipse cx="204.521" cy="12.7827" rx="0.699388" ry="0.704595" fill="#0C0D0D"/>
<ellipse cx="210.516" cy="12.7827" rx="0.699388" ry="0.704595" fill="#0C0D0D"/>
<ellipse cx="216.51" cy="12.7827" rx="0.699388" ry="0.704595" fill="#0C0D0D"/>
<ellipse cx="222.505" cy="12.7827" rx="0.699388" ry="0.704595" fill="#0C0D0D"/>
<ellipse cx="228.5" cy="12.7827" rx="0.699388" ry="0.704595" fill="#0C0D0D"/>
<ellipse cx="234.495" cy="12.7827" rx="0.699388" ry="0.704595" fill="#0C0D0D"/>
<ellipse cx="240.489" cy="12.7827" rx="0.699388" ry="0.704595" fill="#0C0D0D"/>
<ellipse cx="246.484" cy="12.7827" rx="0.699388" ry="0.704595" fill="#0C0D0D"/>
<ellipse cx="252.479" cy="12.7827" rx="0.699388" ry="0.704595" fill="#0C0D0D"/>
<ellipse cx="258.474" cy="12.7827" rx="0.699388" ry="0.704595" fill="#0C0D0D"/>
<ellipse cx="264.468" cy="12.7827" rx="0.699388" ry="0.704595" fill="#0C0D0D"/>
<ellipse cx="270.463" cy="12.7827" rx="0.699388" ry="0.704595" fill="#0C0D0D"/>
<ellipse cx="276.458" cy="12.7827" rx="0.699388" ry="0.704595" fill="#0C0D0D"/>
<ellipse cx="282.453" cy="12.7827" rx="0.699388" ry="0.704595" fill="#0C0D0D"/>
<ellipse cx="288.447" cy="12.7827" rx="0.699388" ry="0.704595" fill="#0C0D0D"/>
<ellipse cx="294.442" cy="12.7827" rx="0.699388" ry="0.704595" fill="#0C0D0D"/>
<ellipse cx="300.437" cy="12.7827" rx="0.699388" ry="0.704595" fill="#0C0D0D"/>
<ellipse cx="306.432" cy="12.7827" rx="0.699388" ry="0.704595" fill="#0C0D0D"/>
<ellipse cx="312.426" cy="12.7827" rx="0.699388" ry="0.704595" fill="#0C0D0D"/>
<ellipse cx="318.421" cy="12.7827" rx="0.699388" ry="0.704595" fill="#0C0D0D"/>
<ellipse cx="324.416" cy="12.7827" rx="0.699388" ry="0.704595" fill="#0C0D0D"/>
<ellipse cx="330.411" cy="12.7827" rx="0.699388" ry="0.704595" fill="#0C0D0D"/>
<ellipse cx="336.405" cy="12.7827" rx="0.699388" ry="0.704595" fill="#0C0D0D"/>
<ellipse cx="342.4" cy="12.7827" rx="0.699388" ry="0.704595" fill="#0C0D0D"/>
<ellipse cx="348.395" cy="12.7827" rx="0.699388" ry="0.704595" fill="#0C0D0D"/>
<ellipse cx="354.39" cy="12.7827" rx="0.699388" ry="0.704595" fill="#0C0D0D"/>
<ellipse cx="360.384" cy="12.7827" rx="0.699388" ry="0.704595" fill="#0C0D0D"/>
<ellipse cx="366.379" cy="12.7827" rx="0.699388" ry="0.704595" fill="#0C0D0D"/>
<ellipse cx="372.374" cy="12.7827" rx="0.699388" ry="0.704595" fill="#0C0D0D"/>
<ellipse cx="378.369" cy="12.7827" rx="0.699388" ry="0.704595" fill="#0C0D0D"/>
<ellipse cx="384.363" cy="12.7827" rx="0.699388" ry="0.704595" fill="#0C0D0D"/>
<ellipse cx="390.358" cy="12.7827" rx="0.699388" ry="0.704595" fill="#0C0D0D"/>
<ellipse cx="396.353" cy="12.7827" rx="0.699388" ry="0.704595" fill="#0C0D0D"/>
<ellipse cx="402.348" cy="12.7827" rx="0.699388" ry="0.704595" fill="#0C0D0D"/>
<ellipse cx="408.342" cy="12.7827" rx="0.699388" ry="0.704595" fill="#0C0D0D"/>
<ellipse cx="414.337" cy="12.7827" rx="0.699388" ry="0.704595" fill="#0C0D0D"/>
<ellipse cx="420.332" cy="12.7827" rx="0.699388" ry="0.704595" fill="#0C0D0D"/>
<ellipse cx="426.327" cy="12.7827" rx="0.699388" ry="0.704595" fill="#0C0D0D"/>
<ellipse cx="432.321" cy="12.7827" rx="0.699388" ry="0.704595" fill="#0C0D0D"/>
<ellipse cx="438.316" cy="12.7827" rx="0.699388" ry="0.704595" fill="#0C0D0D"/>
<ellipse cx="444.311" cy="12.7827" rx="0.699388" ry="0.704595" fill="#0C0D0D"/>
<ellipse cx="450.306" cy="12.7827" rx="0.699388" ry="0.704595" fill="#0C0D0D"/>
<ellipse cx="456.3" cy="12.7827" rx="0.699388" ry="0.704595" fill="#0C0D0D"/>
<ellipse cx="0.699144" cy="18.8218" rx="0.699388" ry="0.704595" fill="#0C0D0D"/>
<ellipse cx="6.69402" cy="18.8218" rx="0.699388" ry="0.704595" fill="#0C0D0D"/>
<ellipse cx="12.6886" cy="18.8218" rx="0.699388" ry="0.704595" fill="#0C0D0D"/>
<ellipse cx="18.6835" cy="18.8218" rx="0.699388" ry="0.704595" fill="#0C0D0D"/>
<ellipse cx="24.6781" cy="18.8218" rx="0.699388" ry="0.704595" fill="#0C0D0D"/>
<ellipse cx="30.673" cy="18.8218" rx="0.699388" ry="0.704595" fill="#0C0D0D"/>
<ellipse cx="36.6676" cy="18.8218" rx="0.699388" ry="0.704595" fill="#0C0D0D"/>
<ellipse cx="42.6625" cy="18.8218" rx="0.699388" ry="0.704595" fill="#0C0D0D"/>
<ellipse cx="48.6572" cy="18.8218" rx="0.699388" ry="0.704595" fill="#0C0D0D"/>
<ellipse cx="54.652" cy="18.8218" rx="0.699388" ry="0.704595" fill="#0C0D0D"/>
<ellipse cx="60.6467" cy="18.8218" rx="0.699388" ry="0.704595" fill="#0C0D0D"/>
<ellipse cx="66.6415" cy="18.8218" rx="0.699388" ry="0.704595" fill="#0C0D0D"/>
<ellipse cx="72.6362" cy="18.8218" rx="0.699388" ry="0.704595" fill="#0C0D0D"/>
<ellipse cx="78.631" cy="18.8218" rx="0.699388" ry="0.704595" fill="#0C0D0D"/>
<ellipse cx="84.6257" cy="18.8218" rx="0.699388" ry="0.704595" fill="#0C0D0D"/>
<ellipse cx="90.6205" cy="18.8218" rx="0.699388" ry="0.704595" fill="#0C0D0D"/>
<ellipse cx="96.6152" cy="18.8218" rx="0.699388" ry="0.704595" fill="#0C0D0D"/>
<ellipse cx="102.61" cy="18.8218" rx="0.699388" ry="0.704595" fill="#0C0D0D"/>
<ellipse cx="108.605" cy="18.8218" rx="0.699388" ry="0.704595" fill="#0C0D0D"/>
<ellipse cx="114.6" cy="18.8218" rx="0.699388" ry="0.704595" fill="#0C0D0D"/>
<ellipse cx="120.594" cy="18.8218" rx="0.699388" ry="0.704595" fill="#0C0D0D"/>
<ellipse cx="126.589" cy="18.8218" rx="0.699388" ry="0.704595" fill="#0C0D0D"/>
<ellipse cx="132.584" cy="18.8218" rx="0.699388" ry="0.704595" fill="#0C0D0D"/>
<ellipse cx="138.579" cy="18.8218" rx="0.699388" ry="0.704595" fill="#0C0D0D"/>
<ellipse cx="144.573" cy="18.8218" rx="0.699388" ry="0.704595" fill="#0C0D0D"/>
<ellipse cx="150.568" cy="18.8218" rx="0.699388" ry="0.704595" fill="#0C0D0D"/>
<ellipse cx="156.563" cy="18.8218" rx="0.699388" ry="0.704595" fill="#0C0D0D"/>
<ellipse cx="162.558" cy="18.8218" rx="0.699388" ry="0.704595" fill="#0C0D0D"/>
<ellipse cx="168.552" cy="18.8218" rx="0.699388" ry="0.704595" fill="#0C0D0D"/>
<ellipse cx="174.547" cy="18.8218" rx="0.699388" ry="0.704595" fill="#0C0D0D"/>
<ellipse cx="180.542" cy="18.8218" rx="0.699388" ry="0.704595" fill="#0C0D0D"/>
<ellipse cx="186.537" cy="18.8218" rx="0.699388" ry="0.704595" fill="#0C0D0D"/>
<ellipse cx="192.531" cy="18.8218" rx="0.699388" ry="0.704595" fill="#0C0D0D"/>
<ellipse cx="198.526" cy="18.8218" rx="0.699388" ry="0.704595" fill="#0C0D0D"/>
<ellipse cx="204.521" cy="18.8218" rx="0.699388" ry="0.704595" fill="#0C0D0D"/>
<ellipse cx="210.516" cy="18.8218" rx="0.699388" ry="0.704595" fill="#0C0D0D"/>
<ellipse cx="216.51" cy="18.8218" rx="0.699388" ry="0.704595" fill="#0C0D0D"/>
<ellipse cx="222.505" cy="18.8218" rx="0.699388" ry="0.704595" fill="#0C0D0D"/>
<ellipse cx="228.5" cy="18.8218" rx="0.699388" ry="0.704595" fill="#0C0D0D"/>
<ellipse cx="234.495" cy="18.8218" rx="0.699388" ry="0.704595" fill="#0C0D0D"/>
<ellipse cx="240.489" cy="18.8218" rx="0.699388" ry="0.704595" fill="#0C0D0D"/>
<ellipse cx="246.484" cy="18.8218" rx="0.699388" ry="0.704595" fill="#0C0D0D"/>
<ellipse cx="252.479" cy="18.8218" rx="0.699388" ry="0.704595" fill="#0C0D0D"/>
<ellipse cx="258.474" cy="18.8218" rx="0.699388" ry="0.704595" fill="#0C0D0D"/>
<ellipse cx="264.468" cy="18.8218" rx="0.699388" ry="0.704595" fill="#0C0D0D"/>
<ellipse cx="270.463" cy="18.8218" rx="0.699388" ry="0.704595" fill="#0C0D0D"/>
<ellipse cx="276.458" cy="18.8218" rx="0.699388" ry="0.704595" fill="#0C0D0D"/>
<ellipse cx="282.453" cy="18.8218" rx="0.699388" ry="0.704595" fill="#0C0D0D"/>
<ellipse cx="288.447" cy="18.8218" rx="0.699388" ry="0.704595" fill="#0C0D0D"/>
<ellipse cx="294.442" cy="18.8218" rx="0.699388" ry="0.704595" fill="#0C0D0D"/>
<ellipse cx="300.437" cy="18.8218" rx="0.699388" ry="0.704595" fill="#0C0D0D"/>
<ellipse cx="306.432" cy="18.8218" rx="0.699388" ry="0.704595" fill="#0C0D0D"/>
<ellipse cx="312.426" cy="18.8218" rx="0.699388" ry="0.704595" fill="#0C0D0D"/>
<ellipse cx="318.421" cy="18.8218" rx="0.699388" ry="0.704595" fill="#0C0D0D"/>
<ellipse cx="324.416" cy="18.8218" rx="0.699388" ry="0.704595" fill="#0C0D0D"/>
<ellipse cx="330.411" cy="18.8218" rx="0.699388" ry="0.704595" fill="#0C0D0D"/>
<ellipse cx="336.405" cy="18.8218" rx="0.699388" ry="0.704595" fill="#0C0D0D"/>
<ellipse cx="342.4" cy="18.8218" rx="0.699388" ry="0.704595" fill="#0C0D0D"/>
<ellipse cx="348.395" cy="18.8218" rx="0.699388" ry="0.704595" fill="#0C0D0D"/>
<ellipse cx="354.39" cy="18.8218" rx="0.699388" ry="0.704595" fill="#0C0D0D"/>
<ellipse cx="360.384" cy="18.8218" rx="0.699388" ry="0.704595" fill="#0C0D0D"/>
<ellipse cx="366.379" cy="18.8218" rx="0.699388" ry="0.704595" fill="#0C0D0D"/>
<ellipse cx="372.374" cy="18.8218" rx="0.699388" ry="0.704595" fill="#0C0D0D"/>
<ellipse cx="378.369" cy="18.8218" rx="0.699388" ry="0.704595" fill="#0C0D0D"/>
<ellipse cx="384.363" cy="18.8218" rx="0.699388" ry="0.704595" fill="#0C0D0D"/>
<ellipse cx="390.358" cy="18.8218" rx="0.699388" ry="0.704595" fill="#0C0D0D"/>
<ellipse cx="396.353" cy="18.8218" rx="0.699388" ry="0.704595" fill="#0C0D0D"/>
<ellipse cx="402.348" cy="18.8218" rx="0.699388" ry="0.704595" fill="#0C0D0D"/>
<ellipse cx="408.342" cy="18.8218" rx="0.699388" ry="0.704595" fill="#0C0D0D"/>
<ellipse cx="414.337" cy="18.8218" rx="0.699388" ry="0.704595" fill="#0C0D0D"/>
<ellipse cx="420.332" cy="18.8218" rx="0.699388" ry="0.704595" fill="#0C0D0D"/>
<ellipse cx="426.327" cy="18.8218" rx="0.699388" ry="0.704595" fill="#0C0D0D"/>
<ellipse cx="432.321" cy="18.8218" rx="0.699388" ry="0.704595" fill="#0C0D0D"/>
<ellipse cx="438.316" cy="18.8218" rx="0.699388" ry="0.704595" fill="#0C0D0D"/>
<path d="M445.01 18.8218C445.01 19.2109 444.697 19.5264 444.311 19.5264C443.925 19.5264 443.612 19.2109 443.612 18.8218C443.612 18.4326 443.925 18.1172 444.311 18.1172C444.697 18.1172 445.01 18.4326 445.01 18.8218Z" fill="#0C0D0D"/>
<ellipse cx="450.306" cy="18.8218" rx="0.699388" ry="0.704595" fill="#0C0D0D"/>
<ellipse cx="456.3" cy="18.8218" rx="0.699388" ry="0.704595" fill="#0C0D0D"/>
<ellipse cx="0.699144" cy="24.8608" rx="0.699388" ry="0.704595" fill="#0C0D0D"/>
<ellipse cx="6.69402" cy="24.8608" rx="0.699388" ry="0.704595" fill="#0C0D0D"/>
<ellipse cx="12.6886" cy="24.8608" rx="0.699388" ry="0.704595" fill="#0C0D0D"/>
<ellipse cx="18.6835" cy="24.8608" rx="0.699388" ry="0.704595" fill="#0C0D0D"/>
<ellipse cx="24.6781" cy="24.8608" rx="0.699388" ry="0.704595" fill="#0C0D0D"/>
<ellipse cx="30.673" cy="24.8608" rx="0.699388" ry="0.704595" fill="#0C0D0D"/>
<ellipse cx="36.6676" cy="24.8608" rx="0.699388" ry="0.704595" fill="#0C0D0D"/>
<ellipse cx="42.6625" cy="24.8608" rx="0.699388" ry="0.704595" fill="#0C0D0D"/>
<ellipse cx="48.6572" cy="24.8608" rx="0.699388" ry="0.704595" fill="#0C0D0D"/>
<ellipse cx="54.652" cy="24.8608" rx="0.699388" ry="0.704595" fill="#0C0D0D"/>
<ellipse cx="60.6467" cy="24.8608" rx="0.699388" ry="0.704595" fill="#0C0D0D"/>
<ellipse cx="66.6415" cy="24.8608" rx="0.699388" ry="0.704595" fill="#0C0D0D"/>
<ellipse cx="72.6362" cy="24.8608" rx="0.699388" ry="0.704595" fill="#0C0D0D"/>
<ellipse cx="78.631" cy="24.8608" rx="0.699388" ry="0.704595" fill="#0C0D0D"/>
<ellipse cx="84.6257" cy="24.8608" rx="0.699388" ry="0.704595" fill="#0C0D0D"/>
<ellipse cx="90.6205" cy="24.8608" rx="0.699388" ry="0.704595" fill="#0C0D0D"/>
<ellipse cx="96.6152" cy="24.8608" rx="0.699388" ry="0.704595" fill="#0C0D0D"/>
<ellipse cx="102.61" cy="24.8608" rx="0.699388" ry="0.704595" fill="#0C0D0D"/>
<ellipse cx="108.605" cy="24.8608" rx="0.699388" ry="0.704595" fill="#0C0D0D"/>
<ellipse cx="114.6" cy="24.8608" rx="0.699388" ry="0.704595" fill="#0C0D0D"/>
<ellipse cx="120.594" cy="24.8608" rx="0.699388" ry="0.704595" fill="#0C0D0D"/>
<ellipse cx="126.589" cy="24.8608" rx="0.699388" ry="0.704595" fill="#0C0D0D"/>
<ellipse cx="132.584" cy="24.8608" rx="0.699388" ry="0.704595" fill="#0C0D0D"/>
<ellipse cx="138.579" cy="24.8608" rx="0.699388" ry="0.704595" fill="#0C0D0D"/>
<ellipse cx="144.573" cy="24.8608" rx="0.699388" ry="0.704595" fill="#0C0D0D"/>
<ellipse cx="150.568" cy="24.8608" rx="0.699388" ry="0.704595" fill="#0C0D0D"/>
<ellipse cx="156.563" cy="24.8608" rx="0.699388" ry="0.704595" fill="#0C0D0D"/>
<ellipse cx="162.558" cy="24.8608" rx="0.699388" ry="0.704595" fill="#0C0D0D"/>
<ellipse cx="168.552" cy="24.8608" rx="0.699388" ry="0.704595" fill="#0C0D0D"/>
<ellipse cx="174.547" cy="24.8608" rx="0.699388" ry="0.704595" fill="#0C0D0D"/>
<ellipse cx="180.542" cy="24.8608" rx="0.699388" ry="0.704595" fill="#0C0D0D"/>
<ellipse cx="186.537" cy="24.8608" rx="0.699388" ry="0.704595" fill="#0C0D0D"/>
<ellipse cx="192.531" cy="24.8608" rx="0.699388" ry="0.704595" fill="#0C0D0D"/>
<ellipse cx="198.526" cy="24.8608" rx="0.699388" ry="0.704595" fill="#0C0D0D"/>
<ellipse cx="204.521" cy="24.8608" rx="0.699388" ry="0.704595" fill="#0C0D0D"/>
<ellipse cx="210.516" cy="24.8608" rx="0.699388" ry="0.704595" fill="#0C0D0D"/>
<ellipse cx="216.51" cy="24.8608" rx="0.699388" ry="0.704595" fill="#0C0D0D"/>
<ellipse cx="222.505" cy="24.8608" rx="0.699388" ry="0.704595" fill="#0C0D0D"/>
<ellipse cx="228.5" cy="24.8608" rx="0.699388" ry="0.704595" fill="#0C0D0D"/>
<ellipse cx="234.495" cy="24.8608" rx="0.699388" ry="0.704595" fill="#0C0D0D"/>
<ellipse cx="240.489" cy="24.8608" rx="0.699388" ry="0.704595" fill="#0C0D0D"/>
<ellipse cx="246.484" cy="24.8608" rx="0.699388" ry="0.704595" fill="#0C0D0D"/>
<ellipse cx="252.479" cy="24.8608" rx="0.699388" ry="0.704595" fill="#0C0D0D"/>
<ellipse cx="258.474" cy="24.8608" rx="0.699388" ry="0.704595" fill="#0C0D0D"/>
<ellipse cx="264.468" cy="24.8608" rx="0.699388" ry="0.704595" fill="#0C0D0D"/>
<ellipse cx="270.463" cy="24.8608" rx="0.699388" ry="0.704595" fill="#0C0D0D"/>
<ellipse cx="276.458" cy="24.8608" rx="0.699388" ry="0.704595" fill="#0C0D0D"/>
<ellipse cx="282.453" cy="24.8608" rx="0.699388" ry="0.704595" fill="#0C0D0D"/>
<ellipse cx="288.447" cy="24.8608" rx="0.699388" ry="0.704595" fill="#0C0D0D"/>
<ellipse cx="294.442" cy="24.8608" rx="0.699388" ry="0.704595" fill="#0C0D0D"/>
<ellipse cx="300.437" cy="24.8608" rx="0.699388" ry="0.704595" fill="#0C0D0D"/>
<ellipse cx="306.432" cy="24.8608" rx="0.699388" ry="0.704595" fill="#0C0D0D"/>
<ellipse cx="312.426" cy="24.8608" rx="0.699388" ry="0.704595" fill="#0C0D0D"/>
<ellipse cx="318.421" cy="24.8608" rx="0.699388" ry="0.704595" fill="#0C0D0D"/>
<ellipse cx="324.416" cy="24.8608" rx="0.699388" ry="0.704595" fill="#0C0D0D"/>
<ellipse cx="330.411" cy="24.8608" rx="0.699388" ry="0.704595" fill="#0C0D0D"/>
<ellipse cx="336.405" cy="24.8608" rx="0.699388" ry="0.704595" fill="#0C0D0D"/>
<ellipse cx="342.4" cy="24.8608" rx="0.699388" ry="0.704595" fill="#0C0D0D"/>
<ellipse cx="348.395" cy="24.8608" rx="0.699388" ry="0.704595" fill="#0C0D0D"/>
<ellipse cx="354.39" cy="24.8608" rx="0.699388" ry="0.704595" fill="#0C0D0D"/>
<ellipse cx="360.384" cy="24.8608" rx="0.699388" ry="0.704595" fill="#0C0D0D"/>
<ellipse cx="366.379" cy="24.8608" rx="0.699388" ry="0.704595" fill="#0C0D0D"/>
<ellipse cx="372.374" cy="24.8608" rx="0.699388" ry="0.704595" fill="#0C0D0D"/>
<ellipse cx="378.369" cy="24.8608" rx="0.699388" ry="0.704595" fill="#0C0D0D"/>
<ellipse cx="384.363" cy="24.8608" rx="0.699388" ry="0.704595" fill="#0C0D0D"/>
<ellipse cx="390.358" cy="24.8608" rx="0.699388" ry="0.704595" fill="#0C0D0D"/>
<ellipse cx="396.353" cy="24.8608" rx="0.699388" ry="0.704595" fill="#0C0D0D"/>
<ellipse cx="402.348" cy="24.8608" rx="0.699388" ry="0.704595" fill="#0C0D0D"/>
<ellipse cx="408.342" cy="24.8608" rx="0.699388" ry="0.704595" fill="#0C0D0D"/>
<ellipse cx="414.337" cy="24.8608" rx="0.699388" ry="0.704595" fill="#0C0D0D"/>
<ellipse cx="420.332" cy="24.8608" rx="0.699388" ry="0.704595" fill="#0C0D0D"/>
<ellipse cx="426.327" cy="24.8608" rx="0.699388" ry="0.704595" fill="#0C0D0D"/>
<ellipse cx="432.321" cy="24.8608" rx="0.699388" ry="0.704595" fill="#0C0D0D"/>
<ellipse cx="438.316" cy="24.8608" rx="0.699388" ry="0.704595" fill="#0C0D0D"/>
<ellipse cx="444.311" cy="24.8608" rx="0.699388" ry="0.704595" fill="#0C0D0D"/>
<ellipse cx="450.306" cy="24.8608" rx="0.699388" ry="0.704595" fill="#0C0D0D"/>
<ellipse cx="456.3" cy="24.8608" rx="0.699388" ry="0.704595" fill="#0C0D0D"/>
<ellipse cx="0.699144" cy="30.8999" rx="0.699388" ry="0.704595" fill="#0C0D0D"/>
<ellipse cx="6.69402" cy="30.8999" rx="0.699388" ry="0.704595" fill="#0C0D0D"/>
<ellipse cx="12.6886" cy="30.8999" rx="0.699388" ry="0.704595" fill="#0C0D0D"/>
<ellipse cx="18.6835" cy="30.8999" rx="0.699388" ry="0.704595" fill="#0C0D0D"/>
<ellipse cx="24.6781" cy="30.8999" rx="0.699388" ry="0.704595" fill="#0C0D0D"/>
<ellipse cx="30.673" cy="30.8999" rx="0.699388" ry="0.704595" fill="#0C0D0D"/>
<ellipse cx="36.6676" cy="30.8999" rx="0.699388" ry="0.704595" fill="#0C0D0D"/>
<ellipse cx="42.6625" cy="30.8999" rx="0.699388" ry="0.704595" fill="#0C0D0D"/>
<ellipse cx="48.6572" cy="30.8999" rx="0.699388" ry="0.704595" fill="#0C0D0D"/>
<ellipse cx="54.652" cy="30.8999" rx="0.699388" ry="0.704595" fill="#0C0D0D"/>
<ellipse cx="60.6467" cy="30.8999" rx="0.699388" ry="0.704595" fill="#0C0D0D"/>
<ellipse cx="66.6415" cy="30.8999" rx="0.699388" ry="0.704595" fill="#0C0D0D"/>
<ellipse cx="72.6362" cy="30.8999" rx="0.699388" ry="0.704595" fill="#0C0D0D"/>
<ellipse cx="78.631" cy="30.8999" rx="0.699388" ry="0.704595" fill="#0C0D0D"/>
<ellipse cx="84.6257" cy="30.8999" rx="0.699388" ry="0.704595" fill="#0C0D0D"/>
<ellipse cx="90.6205" cy="30.8999" rx="0.699388" ry="0.704595" fill="#0C0D0D"/>
<ellipse cx="96.6152" cy="30.8999" rx="0.699388" ry="0.704595" fill="#0C0D0D"/>
<ellipse cx="102.61" cy="30.8999" rx="0.699388" ry="0.704595" fill="#0C0D0D"/>
<ellipse cx="108.605" cy="30.8999" rx="0.699388" ry="0.704595" fill="#0C0D0D"/>
<ellipse cx="114.6" cy="30.8999" rx="0.699388" ry="0.704595" fill="#0C0D0D"/>
<ellipse cx="120.594" cy="30.8999" rx="0.699388" ry="0.704595" fill="#0C0D0D"/>
<ellipse cx="126.589" cy="30.8999" rx="0.699388" ry="0.704595" fill="#0C0D0D"/>
<ellipse cx="132.584" cy="30.8999" rx="0.699388" ry="0.704595" fill="#0C0D0D"/>
<ellipse cx="138.579" cy="30.8999" rx="0.699388" ry="0.704595" fill="#0C0D0D"/>
<ellipse cx="144.573" cy="30.8999" rx="0.699388" ry="0.704595" fill="#0C0D0D"/>
<ellipse cx="150.568" cy="30.8999" rx="0.699388" ry="0.704595" fill="#0C0D0D"/>
<ellipse cx="156.563" cy="30.8999" rx="0.699388" ry="0.704595" fill="#0C0D0D"/>
<ellipse cx="162.558" cy="30.8999" rx="0.699388" ry="0.704595" fill="#0C0D0D"/>
<ellipse cx="168.552" cy="30.8999" rx="0.699388" ry="0.704595" fill="#0C0D0D"/>
<ellipse cx="174.547" cy="30.8999" rx="0.699388" ry="0.704595" fill="#0C0D0D"/>
<ellipse cx="180.542" cy="30.8999" rx="0.699388" ry="0.704595" fill="#0C0D0D"/>
<ellipse cx="186.537" cy="30.8999" rx="0.699388" ry="0.704595" fill="#0C0D0D"/>
<ellipse cx="192.531" cy="30.8999" rx="0.699388" ry="0.704595" fill="#0C0D0D"/>
<ellipse cx="198.526" cy="30.8999" rx="0.699388" ry="0.704595" fill="#0C0D0D"/>
<ellipse cx="204.521" cy="30.8999" rx="0.699388" ry="0.704595" fill="#0C0D0D"/>
<ellipse cx="210.516" cy="30.8999" rx="0.699388" ry="0.704595" fill="#0C0D0D"/>
<ellipse cx="216.51" cy="30.8999" rx="0.699388" ry="0.704595" fill="#0C0D0D"/>
<ellipse cx="222.505" cy="30.8999" rx="0.699388" ry="0.704595" fill="#0C0D0D"/>
<ellipse cx="228.5" cy="30.8999" rx="0.699388" ry="0.704595" fill="#0C0D0D"/>
<ellipse cx="234.495" cy="30.8999" rx="0.699388" ry="0.704595" fill="#0C0D0D"/>
<ellipse cx="240.489" cy="30.8999" rx="0.699388" ry="0.704595" fill="#0C0D0D"/>
<ellipse cx="246.484" cy="30.8999" rx="0.699388" ry="0.704595" fill="#0C0D0D"/>
<ellipse cx="252.479" cy="30.8999" rx="0.699388" ry="0.704595" fill="#0C0D0D"/>
<ellipse cx="258.474" cy="30.8999" rx="0.699388" ry="0.704595" fill="#0C0D0D"/>
<ellipse cx="264.468" cy="30.8999" rx="0.699388" ry="0.704595" fill="#0C0D0D"/>
<ellipse cx="270.463" cy="30.8999" rx="0.699388" ry="0.704595" fill="#0C0D0D"/>
<ellipse cx="276.458" cy="30.8999" rx="0.699388" ry="0.704595" fill="#0C0D0D"/>
<ellipse cx="282.453" cy="30.8999" rx="0.699388" ry="0.704595" fill="#0C0D0D"/>
<ellipse cx="288.447" cy="30.8999" rx="0.699388" ry="0.704595" fill="#0C0D0D"/>
<ellipse cx="294.442" cy="30.8999" rx="0.699388" ry="0.704595" fill="#0C0D0D"/>
<ellipse cx="300.437" cy="30.8999" rx="0.699388" ry="0.704595" fill="#0C0D0D"/>
<ellipse cx="306.432" cy="30.8999" rx="0.699388" ry="0.704595" fill="#0C0D0D"/>
<ellipse cx="312.426" cy="30.8999" rx="0.699388" ry="0.704595" fill="#0C0D0D"/>
<ellipse cx="318.421" cy="30.8999" rx="0.699388" ry="0.704595" fill="#0C0D0D"/>
<ellipse cx="324.416" cy="30.8999" rx="0.699388" ry="0.704595" fill="#0C0D0D"/>
<ellipse cx="330.411" cy="30.8999" rx="0.699388" ry="0.704595" fill="#0C0D0D"/>
<ellipse cx="336.405" cy="30.8999" rx="0.699388" ry="0.704595" fill="#0C0D0D"/>
<ellipse cx="342.4" cy="30.8999" rx="0.699388" ry="0.704595" fill="#0C0D0D"/>
<ellipse cx="348.395" cy="30.8999" rx="0.699388" ry="0.704595" fill="#0C0D0D"/>
<ellipse cx="354.39" cy="30.8999" rx="0.699388" ry="0.704595" fill="#0C0D0D"/>
<ellipse cx="360.384" cy="30.8999" rx="0.699388" ry="0.704595" fill="#0C0D0D"/>
<ellipse cx="366.379" cy="30.8999" rx="0.699388" ry="0.704595" fill="#0C0D0D"/>
<ellipse cx="372.374" cy="30.8999" rx="0.699388" ry="0.704595" fill="#0C0D0D"/>
<ellipse cx="378.369" cy="30.8999" rx="0.699388" ry="0.704595" fill="#0C0D0D"/>
<ellipse cx="384.363" cy="30.8999" rx="0.699388" ry="0.704595" fill="#0C0D0D"/>
<ellipse cx="390.358" cy="30.8999" rx="0.699388" ry="0.704595" fill="#0C0D0D"/>
<ellipse cx="396.353" cy="30.8999" rx="0.699388" ry="0.704595" fill="#0C0D0D"/>
<ellipse cx="402.348" cy="30.8999" rx="0.699388" ry="0.704595" fill="#0C0D0D"/>
<ellipse cx="408.342" cy="30.8999" rx="0.699388" ry="0.704595" fill="#0C0D0D"/>
<ellipse cx="414.337" cy="30.8999" rx="0.699388" ry="0.704595" fill="#0C0D0D"/>
<ellipse cx="420.332" cy="30.8999" rx="0.699388" ry="0.704595" fill="#0C0D0D"/>
<ellipse cx="426.327" cy="30.8999" rx="0.699388" ry="0.704595" fill="#0C0D0D"/>
<ellipse cx="432.321" cy="30.8999" rx="0.699388" ry="0.704595" fill="#0C0D0D"/>
<ellipse cx="438.316" cy="30.8999" rx="0.699388" ry="0.704595" fill="#0C0D0D"/>
<ellipse cx="444.311" cy="30.8999" rx="0.699388" ry="0.704595" fill="#0C0D0D"/>
<ellipse cx="450.306" cy="30.8999" rx="0.699388" ry="0.704595" fill="#0C0D0D"/>
<ellipse cx="456.3" cy="30.8999" rx="0.699388" ry="0.704595" fill="#0C0D0D"/>
<ellipse cx="0.699144" cy="36.939" rx="0.699388" ry="0.704595" fill="#0C0D0D"/>
<ellipse cx="6.69402" cy="36.939" rx="0.699388" ry="0.704595" fill="#0C0D0D"/>
<ellipse cx="12.6886" cy="36.939" rx="0.699388" ry="0.704595" fill="#0C0D0D"/>
<ellipse cx="18.6835" cy="36.939" rx="0.699388" ry="0.704595" fill="#0C0D0D"/>
<ellipse cx="24.6781" cy="36.939" rx="0.699388" ry="0.704595" fill="#0C0D0D"/>
<ellipse cx="30.673" cy="36.939" rx="0.699388" ry="0.704595" fill="#0C0D0D"/>
<ellipse cx="36.6676" cy="36.939" rx="0.699388" ry="0.704595" fill="#0C0D0D"/>
<ellipse cx="42.6625" cy="36.939" rx="0.699388" ry="0.704595" fill="#0C0D0D"/>
<ellipse cx="48.6572" cy="36.939" rx="0.699388" ry="0.704595" fill="#0C0D0D"/>
<ellipse cx="54.652" cy="36.939" rx="0.699388" ry="0.704595" fill="#0C0D0D"/>
<ellipse cx="60.6467" cy="36.939" rx="0.699388" ry="0.704595" fill="#0C0D0D"/>
<ellipse cx="66.6415" cy="36.939" rx="0.699388" ry="0.704595" fill="#0C0D0D"/>
<ellipse cx="72.6362" cy="36.939" rx="0.699388" ry="0.704595" fill="#0C0D0D"/>
<ellipse cx="78.631" cy="36.939" rx="0.699388" ry="0.704595" fill="#0C0D0D"/>
<ellipse cx="84.6257" cy="36.939" rx="0.699388" ry="0.704595" fill="#0C0D0D"/>
<ellipse cx="90.6205" cy="36.939" rx="0.699388" ry="0.704595" fill="#0C0D0D"/>
<ellipse cx="96.6152" cy="36.939" rx="0.699388" ry="0.704595" fill="#0C0D0D"/>
<ellipse cx="102.61" cy="36.939" rx="0.699388" ry="0.704595" fill="#0C0D0D"/>
<ellipse cx="108.605" cy="36.939" rx="0.699388" ry="0.704595" fill="#0C0D0D"/>
<ellipse cx="114.6" cy="36.939" rx="0.699388" ry="0.704595" fill="#0C0D0D"/>
<ellipse cx="120.594" cy="36.939" rx="0.699388" ry="0.704595" fill="#0C0D0D"/>
<ellipse cx="126.589" cy="36.939" rx="0.699388" ry="0.704595" fill="#0C0D0D"/>
<ellipse cx="132.584" cy="36.939" rx="0.699388" ry="0.704595" fill="#0C0D0D"/>
<ellipse cx="138.579" cy="36.939" rx="0.699388" ry="0.704595" fill="#0C0D0D"/>
<ellipse cx="144.573" cy="36.939" rx="0.699388" ry="0.704595" fill="#0C0D0D"/>
<ellipse cx="150.568" cy="36.939" rx="0.699388" ry="0.704595" fill="#0C0D0D"/>
<ellipse cx="156.563" cy="36.939" rx="0.699388" ry="0.704595" fill="#0C0D0D"/>
<ellipse cx="162.558" cy="36.939" rx="0.699388" ry="0.704595" fill="#0C0D0D"/>
<ellipse cx="168.552" cy="36.939" rx="0.699388" ry="0.704595" fill="#0C0D0D"/>
<ellipse cx="174.547" cy="36.939" rx="0.699388" ry="0.704595" fill="#0C0D0D"/>
<ellipse cx="180.542" cy="36.939" rx="0.699388" ry="0.704595" fill="#0C0D0D"/>
<ellipse cx="186.537" cy="36.939" rx="0.699388" ry="0.704595" fill="#0C0D0D"/>
<ellipse cx="192.531" cy="36.939" rx="0.699388" ry="0.704595" fill="#0C0D0D"/>
<ellipse cx="198.526" cy="36.939" rx="0.699388" ry="0.704595" fill="#0C0D0D"/>
<ellipse cx="204.521" cy="36.939" rx="0.699388" ry="0.704595" fill="#0C0D0D"/>
<ellipse cx="210.516" cy="36.939" rx="0.699388" ry="0.704595" fill="#0C0D0D"/>
<ellipse cx="216.51" cy="36.939" rx="0.699388" ry="0.704595" fill="#0C0D0D"/>
<ellipse cx="222.505" cy="36.939" rx="0.699388" ry="0.704595" fill="#0C0D0D"/>
<ellipse cx="228.5" cy="36.939" rx="0.699388" ry="0.704595" fill="#0C0D0D"/>
<ellipse cx="234.495" cy="36.939" rx="0.699388" ry="0.704595" fill="#0C0D0D"/>
<ellipse cx="240.489" cy="36.939" rx="0.699388" ry="0.704595" fill="#0C0D0D"/>
<ellipse cx="246.484" cy="36.939" rx="0.699388" ry="0.704595" fill="#0C0D0D"/>
<ellipse cx="252.479" cy="36.939" rx="0.699388" ry="0.704595" fill="#0C0D0D"/>
<ellipse cx="258.474" cy="36.939" rx="0.699388" ry="0.704595" fill="#0C0D0D"/>
<ellipse cx="264.468" cy="36.939" rx="0.699388" ry="0.704595" fill="#0C0D0D"/>
<ellipse cx="270.463" cy="36.939" rx="0.699388" ry="0.704595" fill="#0C0D0D"/>
<ellipse cx="276.458" cy="36.939" rx="0.699388" ry="0.704595" fill="#0C0D0D"/>
<ellipse cx="282.453" cy="36.939" rx="0.699388" ry="0.704595" fill="#0C0D0D"/>
<ellipse cx="288.447" cy="36.939" rx="0.699388" ry="0.704595" fill="#0C0D0D"/>
<ellipse cx="294.442" cy="36.939" rx="0.699388" ry="0.704595" fill="#0C0D0D"/>
<ellipse cx="300.437" cy="36.939" rx="0.699388" ry="0.704595" fill="#0C0D0D"/>
<ellipse cx="306.432" cy="36.939" rx="0.699388" ry="0.704595" fill="#0C0D0D"/>
<ellipse cx="312.426" cy="36.939" rx="0.699388" ry="0.704595" fill="#0C0D0D"/>
<ellipse cx="318.421" cy="36.939" rx="0.699388" ry="0.704595" fill="#0C0D0D"/>
<ellipse cx="324.416" cy="36.939" rx="0.699388" ry="0.704595" fill="#0C0D0D"/>
<ellipse cx="330.411" cy="36.939" rx="0.699388" ry="0.704595" fill="#0C0D0D"/>
<ellipse cx="336.405" cy="36.939" rx="0.699388" ry="0.704595" fill="#0C0D0D"/>
<ellipse cx="342.4" cy="36.939" rx="0.699388" ry="0.704595" fill="#0C0D0D"/>
<ellipse cx="348.395" cy="36.939" rx="0.699388" ry="0.704595" fill="#0C0D0D"/>
<ellipse cx="354.39" cy="36.939" rx="0.699388" ry="0.704595" fill="#0C0D0D"/>
<ellipse cx="360.384" cy="36.939" rx="0.699388" ry="0.704595" fill="#0C0D0D"/>
<ellipse cx="366.379" cy="36.939" rx="0.699388" ry="0.704595" fill="#0C0D0D"/>
<ellipse cx="372.374" cy="36.939" rx="0.699388" ry="0.704595" fill="#0C0D0D"/>
<ellipse cx="378.369" cy="36.939" rx="0.699388" ry="0.704595" fill="#0C0D0D"/>
<ellipse cx="384.363" cy="36.939" rx="0.699388" ry="0.704595" fill="#0C0D0D"/>
<ellipse cx="390.358" cy="36.939" rx="0.699388" ry="0.704595" fill="#0C0D0D"/>
<ellipse cx="396.353" cy="36.939" rx="0.699388" ry="0.704595" fill="#0C0D0D"/>
<ellipse cx="402.348" cy="36.939" rx="0.699388" ry="0.704595" fill="#0C0D0D"/>
<ellipse cx="408.342" cy="36.939" rx="0.699388" ry="0.704595" fill="#0C0D0D"/>
<ellipse cx="414.337" cy="36.939" rx="0.699388" ry="0.704595" fill="#0C0D0D"/>
<ellipse cx="420.332" cy="36.939" rx="0.699388" ry="0.704595" fill="#0C0D0D"/>
<ellipse cx="426.327" cy="36.939" rx="0.699388" ry="0.704595" fill="#0C0D0D"/>
<ellipse cx="432.321" cy="36.939" rx="0.699388" ry="0.704595" fill="#0C0D0D"/>
<ellipse cx="438.316" cy="36.939" rx="0.699388" ry="0.704595" fill="#0C0D0D"/>
<ellipse cx="444.311" cy="36.939" rx="0.699388" ry="0.704595" fill="#0C0D0D"/>
<ellipse cx="450.306" cy="36.939" rx="0.699388" ry="0.704595" fill="#0C0D0D"/>
<ellipse cx="456.3" cy="36.939" rx="0.699388" ry="0.704595" fill="#0C0D0D"/>
<ellipse cx="0.699144" cy="42.978" rx="0.699388" ry="0.704595" fill="#0C0D0D"/>
<ellipse cx="6.69402" cy="42.978" rx="0.699388" ry="0.704595" fill="#0C0D0D"/>
<ellipse cx="12.6886" cy="42.978" rx="0.699388" ry="0.704595" fill="#0C0D0D"/>
<ellipse cx="18.6835" cy="42.978" rx="0.699388" ry="0.704595" fill="#0C0D0D"/>
<ellipse cx="24.6781" cy="42.978" rx="0.699388" ry="0.704595" fill="#0C0D0D"/>
<ellipse cx="30.673" cy="42.978" rx="0.699388" ry="0.704595" fill="#0C0D0D"/>
<ellipse cx="36.6676" cy="42.978" rx="0.699388" ry="0.704595" fill="#0C0D0D"/>
<ellipse cx="42.6625" cy="42.978" rx="0.699388" ry="0.704595" fill="#0C0D0D"/>
<ellipse cx="48.6572" cy="42.978" rx="0.699388" ry="0.704595" fill="#0C0D0D"/>
<ellipse cx="54.652" cy="42.978" rx="0.699388" ry="0.704595" fill="#0C0D0D"/>
<ellipse cx="60.6467" cy="42.978" rx="0.699388" ry="0.704595" fill="#0C0D0D"/>
<ellipse cx="66.6415" cy="42.978" rx="0.699388" ry="0.704595" fill="#0C0D0D"/>
<ellipse cx="72.6362" cy="42.978" rx="0.699388" ry="0.704595" fill="#0C0D0D"/>
<ellipse cx="78.631" cy="42.978" rx="0.699388" ry="0.704595" fill="#0C0D0D"/>
<ellipse cx="84.6257" cy="42.978" rx="0.699388" ry="0.704595" fill="#0C0D0D"/>
<ellipse cx="90.6205" cy="42.978" rx="0.699388" ry="0.704595" fill="#0C0D0D"/>
<ellipse cx="96.6152" cy="42.978" rx="0.699388" ry="0.704595" fill="#0C0D0D"/>
<ellipse cx="102.61" cy="42.978" rx="0.699388" ry="0.704595" fill="#0C0D0D"/>
<ellipse cx="108.605" cy="42.978" rx="0.699388" ry="0.704595" fill="#0C0D0D"/>
<ellipse cx="114.6" cy="42.978" rx="0.699388" ry="0.704595" fill="#0C0D0D"/>
<ellipse cx="120.594" cy="42.978" rx="0.699388" ry="0.704595" fill="#0C0D0D"/>
<ellipse cx="126.589" cy="42.978" rx="0.699388" ry="0.704595" fill="#0C0D0D"/>
<ellipse cx="132.584" cy="42.978" rx="0.699388" ry="0.704595" fill="#0C0D0D"/>
<ellipse cx="138.579" cy="42.978" rx="0.699388" ry="0.704595" fill="#0C0D0D"/>
<ellipse cx="144.573" cy="42.978" rx="0.699388" ry="0.704595" fill="#0C0D0D"/>
<ellipse cx="150.568" cy="42.978" rx="0.699388" ry="0.704595" fill="#0C0D0D"/>
<ellipse cx="156.563" cy="42.978" rx="0.699388" ry="0.704595" fill="#0C0D0D"/>
<ellipse cx="162.558" cy="42.978" rx="0.699388" ry="0.704595" fill="#0C0D0D"/>
<ellipse cx="168.552" cy="42.978" rx="0.699388" ry="0.704595" fill="#0C0D0D"/>
<ellipse cx="174.547" cy="42.978" rx="0.699388" ry="0.704595" fill="#0C0D0D"/>
<ellipse cx="180.542" cy="42.978" rx="0.699388" ry="0.704595" fill="#0C0D0D"/>
<ellipse cx="186.537" cy="42.978" rx="0.699388" ry="0.704595" fill="#0C0D0D"/>
<ellipse cx="192.531" cy="42.978" rx="0.699388" ry="0.704595" fill="#0C0D0D"/>
<ellipse cx="198.526" cy="42.978" rx="0.699388" ry="0.704595" fill="#0C0D0D"/>
<ellipse cx="204.521" cy="42.978" rx="0.699388" ry="0.704595" fill="#0C0D0D"/>
<ellipse cx="210.516" cy="42.978" rx="0.699388" ry="0.704595" fill="#0C0D0D"/>
<ellipse cx="216.51" cy="42.978" rx="0.699388" ry="0.704595" fill="#0C0D0D"/>
<ellipse cx="222.505" cy="42.978" rx="0.699388" ry="0.704595" fill="#0C0D0D"/>
<ellipse cx="228.5" cy="42.978" rx="0.699388" ry="0.704595" fill="#0C0D0D"/>
<ellipse cx="234.495" cy="42.978" rx="0.699388" ry="0.704595" fill="#0C0D0D"/>
<ellipse cx="240.489" cy="42.978" rx="0.699388" ry="0.704595" fill="#0C0D0D"/>
<ellipse cx="246.484" cy="42.978" rx="0.699388" ry="0.704595" fill="#0C0D0D"/>
<ellipse cx="252.479" cy="42.978" rx="0.699388" ry="0.704595" fill="#0C0D0D"/>
<ellipse cx="258.474" cy="42.978" rx="0.699388" ry="0.704595" fill="#0C0D0D"/>
<ellipse cx="264.468" cy="42.978" rx="0.699388" ry="0.704595" fill="#0C0D0D"/>
<ellipse cx="270.463" cy="42.978" rx="0.699388" ry="0.704595" fill="#0C0D0D"/>
<ellipse cx="276.458" cy="42.978" rx="0.699388" ry="0.704595" fill="#0C0D0D"/>
<ellipse cx="282.453" cy="42.978" rx="0.699388" ry="0.704595" fill="#0C0D0D"/>
<ellipse cx="288.447" cy="42.978" rx="0.699388" ry="0.704595" fill="#0C0D0D"/>
<ellipse cx="294.442" cy="42.978" rx="0.699388" ry="0.704595" fill="#0C0D0D"/>
<ellipse cx="300.437" cy="42.978" rx="0.699388" ry="0.704595" fill="#0C0D0D"/>
<ellipse cx="306.432" cy="42.978" rx="0.699388" ry="0.704595" fill="#0C0D0D"/>
<ellipse cx="312.426" cy="42.978" rx="0.699388" ry="0.704595" fill="#0C0D0D"/>
<ellipse cx="318.421" cy="42.978" rx="0.699388" ry="0.704595" fill="#0C0D0D"/>
<ellipse cx="324.416" cy="42.978" rx="0.699388" ry="0.704595" fill="#0C0D0D"/>
<ellipse cx="330.411" cy="42.978" rx="0.699388" ry="0.704595" fill="#0C0D0D"/>
<ellipse cx="336.405" cy="42.978" rx="0.699388" ry="0.704595" fill="#0C0D0D"/>
<ellipse cx="342.4" cy="42.978" rx="0.699388" ry="0.704595" fill="#0C0D0D"/>
<ellipse cx="348.395" cy="42.978" rx="0.699388" ry="0.704595" fill="#0C0D0D"/>
<ellipse cx="354.39" cy="42.978" rx="0.699388" ry="0.704595" fill="#0C0D0D"/>
<ellipse cx="360.384" cy="42.978" rx="0.699388" ry="0.704595" fill="#0C0D0D"/>
<ellipse cx="366.379" cy="42.978" rx="0.699388" ry="0.704595" fill="#0C0D0D"/>
<ellipse cx="372.374" cy="42.978" rx="0.699388" ry="0.704595" fill="#0C0D0D"/>
<ellipse cx="378.369" cy="42.978" rx="0.699388" ry="0.704595" fill="#0C0D0D"/>
<ellipse cx="384.363" cy="42.978" rx="0.699388" ry="0.704595" fill="#0C0D0D"/>
<ellipse cx="390.358" cy="42.978" rx="0.699388" ry="0.704595" fill="#0C0D0D"/>
<ellipse cx="396.353" cy="42.978" rx="0.699388" ry="0.704595" fill="#0C0D0D"/>
<ellipse cx="402.348" cy="42.978" rx="0.699388" ry="0.704595" fill="#0C0D0D"/>
<ellipse cx="408.342" cy="42.978" rx="0.699388" ry="0.704595" fill="#0C0D0D"/>
<ellipse cx="414.337" cy="42.978" rx="0.699388" ry="0.704595" fill="#0C0D0D"/>
<ellipse cx="420.332" cy="42.978" rx="0.699388" ry="0.704595" fill="#0C0D0D"/>
<ellipse cx="426.327" cy="42.978" rx="0.699388" ry="0.704595" fill="#0C0D0D"/>
<ellipse cx="432.321" cy="42.978" rx="0.699388" ry="0.704595" fill="#0C0D0D"/>
<ellipse cx="438.316" cy="42.978" rx="0.699388" ry="0.704595" fill="#0C0D0D"/>
<ellipse cx="444.311" cy="42.978" rx="0.699388" ry="0.704595" fill="#0C0D0D"/>
<ellipse cx="450.306" cy="42.978" rx="0.699388" ry="0.704595" fill="#0C0D0D"/>
<ellipse cx="456.3" cy="42.978" rx="0.699388" ry="0.704595" fill="#0C0D0D"/>
<ellipse cx="0.699144" cy="49.0171" rx="0.699388" ry="0.704595" fill="#0C0D0D"/>
<ellipse cx="6.69402" cy="49.0171" rx="0.699388" ry="0.704595" fill="#0C0D0D"/>
<ellipse cx="12.6886" cy="49.0171" rx="0.699388" ry="0.704595" fill="#0C0D0D"/>
<ellipse cx="18.6835" cy="49.0171" rx="0.699388" ry="0.704595" fill="#0C0D0D"/>
<ellipse cx="24.6781" cy="49.0171" rx="0.699388" ry="0.704595" fill="#0C0D0D"/>
<ellipse cx="30.673" cy="49.0171" rx="0.699388" ry="0.704595" fill="#0C0D0D"/>
<ellipse cx="36.6676" cy="49.0171" rx="0.699388" ry="0.704595" fill="#0C0D0D"/>
<ellipse cx="42.6625" cy="49.0171" rx="0.699388" ry="0.704595" fill="#0C0D0D"/>
<ellipse cx="48.6572" cy="49.0171" rx="0.699388" ry="0.704595" fill="#0C0D0D"/>
<ellipse cx="54.652" cy="49.0171" rx="0.699388" ry="0.704595" fill="#0C0D0D"/>
<ellipse cx="60.6467" cy="49.0171" rx="0.699388" ry="0.704595" fill="#0C0D0D"/>
<ellipse cx="66.6415" cy="49.0171" rx="0.699388" ry="0.704595" fill="#0C0D0D"/>
<ellipse cx="72.6362" cy="49.0171" rx="0.699388" ry="0.704595" fill="#0C0D0D"/>
<ellipse cx="78.631" cy="49.0171" rx="0.699388" ry="0.704595" fill="#0C0D0D"/>
<ellipse cx="84.6257" cy="49.0171" rx="0.699388" ry="0.704595" fill="#0C0D0D"/>
<ellipse cx="90.6205" cy="49.0171" rx="0.699388" ry="0.704595" fill="#0C0D0D"/>
<ellipse cx="96.6152" cy="49.0171" rx="0.699388" ry="0.704595" fill="#0C0D0D"/>
<ellipse cx="102.61" cy="49.0171" rx="0.699388" ry="0.704595" fill="#0C0D0D"/>
<ellipse cx="108.605" cy="49.0171" rx="0.699388" ry="0.704595" fill="#0C0D0D"/>
<ellipse cx="114.6" cy="49.0171" rx="0.699388" ry="0.704595" fill="#0C0D0D"/>
<ellipse cx="120.594" cy="49.0171" rx="0.699388" ry="0.704595" fill="#0C0D0D"/>
<ellipse cx="126.589" cy="49.0171" rx="0.699388" ry="0.704595" fill="#0C0D0D"/>
<ellipse cx="132.584" cy="49.0171" rx="0.699388" ry="0.704595" fill="#0C0D0D"/>
<ellipse cx="138.579" cy="49.0171" rx="0.699388" ry="0.704595" fill="#0C0D0D"/>
<ellipse cx="144.573" cy="49.0171" rx="0.699388" ry="0.704595" fill="#0C0D0D"/>
<ellipse cx="150.568" cy="49.0171" rx="0.699388" ry="0.704595" fill="#0C0D0D"/>
<ellipse cx="156.563" cy="49.0171" rx="0.699388" ry="0.704595" fill="#0C0D0D"/>
<ellipse cx="162.558" cy="49.0171" rx="0.699388" ry="0.704595" fill="#0C0D0D"/>
<ellipse cx="168.552" cy="49.0171" rx="0.699388" ry="0.704595" fill="#0C0D0D"/>
<ellipse cx="174.547" cy="49.0171" rx="0.699388" ry="0.704595" fill="#0C0D0D"/>
<ellipse cx="180.542" cy="49.0171" rx="0.699388" ry="0.704595" fill="#0C0D0D"/>
<ellipse cx="186.537" cy="49.0171" rx="0.699388" ry="0.704595" fill="#0C0D0D"/>
<ellipse cx="192.531" cy="49.0171" rx="0.699388" ry="0.704595" fill="#0C0D0D"/>
<ellipse cx="198.526" cy="49.0171" rx="0.699388" ry="0.704595" fill="#0C0D0D"/>
<ellipse cx="204.521" cy="49.0171" rx="0.699388" ry="0.704595" fill="#0C0D0D"/>
<ellipse cx="210.516" cy="49.0171" rx="0.699388" ry="0.704595" fill="#0C0D0D"/>
<ellipse cx="216.51" cy="49.0171" rx="0.699388" ry="0.704595" fill="#0C0D0D"/>
<ellipse cx="222.505" cy="49.0171" rx="0.699388" ry="0.704595" fill="#0C0D0D"/>
<ellipse cx="228.5" cy="49.0171" rx="0.699388" ry="0.704595" fill="#0C0D0D"/>
<ellipse cx="234.495" cy="49.0171" rx="0.699388" ry="0.704595" fill="#0C0D0D"/>
<ellipse cx="240.489" cy="49.0171" rx="0.699388" ry="0.704595" fill="#0C0D0D"/>
<ellipse cx="246.484" cy="49.0171" rx="0.699388" ry="0.704595" fill="#0C0D0D"/>
<ellipse cx="252.479" cy="49.0171" rx="0.699388" ry="0.704595" fill="#0C0D0D"/>
<ellipse cx="258.474" cy="49.0171" rx="0.699388" ry="0.704595" fill="#0C0D0D"/>
<ellipse cx="264.468" cy="49.0171" rx="0.699388" ry="0.704595" fill="#0C0D0D"/>
<ellipse cx="270.463" cy="49.0171" rx="0.699388" ry="0.704595" fill="#0C0D0D"/>
<ellipse cx="276.458" cy="49.0171" rx="0.699388" ry="0.704595" fill="#0C0D0D"/>
<ellipse cx="282.453" cy="49.0171" rx="0.699388" ry="0.704595" fill="#0C0D0D"/>
<ellipse cx="288.447" cy="49.0171" rx="0.699388" ry="0.704595" fill="#0C0D0D"/>
<ellipse cx="294.442" cy="49.0171" rx="0.699388" ry="0.704595" fill="#0C0D0D"/>
<ellipse cx="300.437" cy="49.0171" rx="0.699388" ry="0.704595" fill="#0C0D0D"/>
<ellipse cx="306.432" cy="49.0171" rx="0.699388" ry="0.704595" fill="#0C0D0D"/>
<ellipse cx="312.426" cy="49.0171" rx="0.699388" ry="0.704595" fill="#0C0D0D"/>
<ellipse cx="318.421" cy="49.0171" rx="0.699388" ry="0.704595" fill="#0C0D0D"/>
<ellipse cx="324.416" cy="49.0171" rx="0.699388" ry="0.704595" fill="#0C0D0D"/>
<ellipse cx="330.411" cy="49.0171" rx="0.699388" ry="0.704595" fill="#0C0D0D"/>
<ellipse cx="336.405" cy="49.0171" rx="0.699388" ry="0.704595" fill="#0C0D0D"/>
<ellipse cx="342.4" cy="49.0171" rx="0.699388" ry="0.704595" fill="#0C0D0D"/>
<ellipse cx="348.395" cy="49.0171" rx="0.699388" ry="0.704595" fill="#0C0D0D"/>
<ellipse cx="354.39" cy="49.0171" rx="0.699388" ry="0.704595" fill="#0C0D0D"/>
<ellipse cx="360.384" cy="49.0171" rx="0.699388" ry="0.704595" fill="#0C0D0D"/>
<ellipse cx="366.379" cy="49.0171" rx="0.699388" ry="0.704595" fill="#0C0D0D"/>
<ellipse cx="372.374" cy="49.0171" rx="0.699388" ry="0.704595" fill="#0C0D0D"/>
<ellipse cx="378.369" cy="49.0171" rx="0.699388" ry="0.704595" fill="#0C0D0D"/>
<ellipse cx="384.363" cy="49.0171" rx="0.699388" ry="0.704595" fill="#0C0D0D"/>
<ellipse cx="390.358" cy="49.0171" rx="0.699388" ry="0.704595" fill="#0C0D0D"/>
<ellipse cx="396.353" cy="49.0171" rx="0.699388" ry="0.704595" fill="#0C0D0D"/>
<ellipse cx="402.348" cy="49.0171" rx="0.699388" ry="0.704595" fill="#0C0D0D"/>
<ellipse cx="408.342" cy="49.0171" rx="0.699388" ry="0.704595" fill="#0C0D0D"/>
<ellipse cx="414.337" cy="49.0171" rx="0.699388" ry="0.704595" fill="#0C0D0D"/>
<ellipse cx="420.332" cy="49.0171" rx="0.699388" ry="0.704595" fill="#0C0D0D"/>
<ellipse cx="426.327" cy="49.0171" rx="0.699388" ry="0.704595" fill="#0C0D0D"/>
<ellipse cx="432.321" cy="49.0171" rx="0.699388" ry="0.704595" fill="#0C0D0D"/>
<ellipse cx="438.316" cy="49.0171" rx="0.699388" ry="0.704595" fill="#0C0D0D"/>
<ellipse cx="444.311" cy="49.0171" rx="0.699388" ry="0.704595" fill="#0C0D0D"/>
<ellipse cx="450.306" cy="49.0171" rx="0.699388" ry="0.704595" fill="#0C0D0D"/>
<ellipse cx="456.3" cy="49.0171" rx="0.699388" ry="0.704595" fill="#0C0D0D"/>
<ellipse cx="0.699144" cy="55.0562" rx="0.699388" ry="0.704595" fill="#0C0D0D"/>
<ellipse cx="6.69402" cy="55.0562" rx="0.699388" ry="0.704595" fill="#0C0D0D"/>
<ellipse cx="12.6886" cy="55.0562" rx="0.699388" ry="0.704595" fill="#0C0D0D"/>
<ellipse cx="18.6835" cy="55.0562" rx="0.699388" ry="0.704595" fill="#0C0D0D"/>
<ellipse cx="24.6781" cy="55.0562" rx="0.699388" ry="0.704595" fill="#0C0D0D"/>
<ellipse cx="30.673" cy="55.0562" rx="0.699388" ry="0.704595" fill="#0C0D0D"/>
<ellipse cx="36.6676" cy="55.0562" rx="0.699388" ry="0.704595" fill="#0C0D0D"/>
<ellipse cx="42.6625" cy="55.0562" rx="0.699388" ry="0.704595" fill="#0C0D0D"/>
<ellipse cx="48.6572" cy="55.0562" rx="0.699388" ry="0.704595" fill="#0C0D0D"/>
<ellipse cx="54.652" cy="55.0562" rx="0.699388" ry="0.704595" fill="#0C0D0D"/>
<ellipse cx="60.6467" cy="55.0562" rx="0.699388" ry="0.704595" fill="#0C0D0D"/>
<ellipse cx="66.6415" cy="55.0562" rx="0.699388" ry="0.704595" fill="#0C0D0D"/>
<ellipse cx="72.6362" cy="55.0562" rx="0.699388" ry="0.704595" fill="#0C0D0D"/>
<ellipse cx="78.631" cy="55.0562" rx="0.699388" ry="0.704595" fill="#0C0D0D"/>
<ellipse cx="84.6257" cy="55.0562" rx="0.699388" ry="0.704595" fill="#0C0D0D"/>
<ellipse cx="90.6205" cy="55.0562" rx="0.699388" ry="0.704595" fill="#0C0D0D"/>
<ellipse cx="96.6152" cy="55.0562" rx="0.699388" ry="0.704595" fill="#0C0D0D"/>
<ellipse cx="102.61" cy="55.0562" rx="0.699388" ry="0.704595" fill="#0C0D0D"/>
<ellipse cx="108.605" cy="55.0562" rx="0.699388" ry="0.704595" fill="#0C0D0D"/>
<ellipse cx="114.6" cy="55.0562" rx="0.699388" ry="0.704595" fill="#0C0D0D"/>
<ellipse cx="120.594" cy="55.0562" rx="0.699388" ry="0.704595" fill="#0C0D0D"/>
<ellipse cx="126.589" cy="55.0562" rx="0.699388" ry="0.704595" fill="#0C0D0D"/>
<ellipse cx="132.584" cy="55.0562" rx="0.699388" ry="0.704595" fill="#0C0D0D"/>
<ellipse cx="138.579" cy="55.0562" rx="0.699388" ry="0.704595" fill="#0C0D0D"/>
<ellipse cx="144.573" cy="55.0562" rx="0.699388" ry="0.704595" fill="#0C0D0D"/>
<ellipse cx="150.568" cy="55.0562" rx="0.699388" ry="0.704595" fill="#0C0D0D"/>
<ellipse cx="156.563" cy="55.0562" rx="0.699388" ry="0.704595" fill="#0C0D0D"/>
<ellipse cx="162.558" cy="55.0562" rx="0.699388" ry="0.704595" fill="#0C0D0D"/>
<ellipse cx="168.552" cy="55.0562" rx="0.699388" ry="0.704595" fill="#0C0D0D"/>
<ellipse cx="174.547" cy="55.0562" rx="0.699388" ry="0.704595" fill="#0C0D0D"/>
<ellipse cx="180.542" cy="55.0562" rx="0.699388" ry="0.704595" fill="#0C0D0D"/>
<ellipse cx="186.537" cy="55.0562" rx="0.699388" ry="0.704595" fill="#0C0D0D"/>
<ellipse cx="192.531" cy="55.0562" rx="0.699388" ry="0.704595" fill="#0C0D0D"/>
<ellipse cx="198.526" cy="55.0562" rx="0.699388" ry="0.704595" fill="#0C0D0D"/>
<ellipse cx="204.521" cy="55.0562" rx="0.699388" ry="0.704595" fill="#0C0D0D"/>
<ellipse cx="210.516" cy="55.0562" rx="0.699388" ry="0.704595" fill="#0C0D0D"/>
<ellipse cx="216.51" cy="55.0562" rx="0.699388" ry="0.704595" fill="#0C0D0D"/>
<ellipse cx="222.505" cy="55.0562" rx="0.699388" ry="0.704595" fill="#0C0D0D"/>
<ellipse cx="228.5" cy="55.0562" rx="0.699388" ry="0.704595" fill="#0C0D0D"/>
<ellipse cx="234.495" cy="55.0562" rx="0.699388" ry="0.704595" fill="#0C0D0D"/>
<ellipse cx="240.489" cy="55.0562" rx="0.699388" ry="0.704595" fill="#0C0D0D"/>
<ellipse cx="246.484" cy="55.0562" rx="0.699388" ry="0.704595" fill="#0C0D0D"/>
<ellipse cx="252.479" cy="55.0562" rx="0.699388" ry="0.704595" fill="#0C0D0D"/>
<ellipse cx="258.474" cy="55.0562" rx="0.699388" ry="0.704595" fill="#0C0D0D"/>
<ellipse cx="264.468" cy="55.0562" rx="0.699388" ry="0.704595" fill="#0C0D0D"/>
<ellipse cx="270.463" cy="55.0562" rx="0.699388" ry="0.704595" fill="#0C0D0D"/>
<ellipse cx="276.458" cy="55.0562" rx="0.699388" ry="0.704595" fill="#0C0D0D"/>
<ellipse cx="282.453" cy="55.0562" rx="0.699388" ry="0.704595" fill="#0C0D0D"/>
<ellipse cx="288.447" cy="55.0562" rx="0.699388" ry="0.704595" fill="#0C0D0D"/>
<ellipse cx="294.442" cy="55.0562" rx="0.699388" ry="0.704595" fill="#0C0D0D"/>
<ellipse cx="300.437" cy="55.0562" rx="0.699388" ry="0.704595" fill="#0C0D0D"/>
<ellipse cx="306.432" cy="55.0562" rx="0.699388" ry="0.704595" fill="#0C0D0D"/>
<ellipse cx="312.426" cy="55.0562" rx="0.699388" ry="0.704595" fill="#0C0D0D"/>
<ellipse cx="318.421" cy="55.0562" rx="0.699388" ry="0.704595" fill="#0C0D0D"/>
<ellipse cx="324.416" cy="55.0562" rx="0.699388" ry="0.704595" fill="#0C0D0D"/>
<ellipse cx="330.411" cy="55.0562" rx="0.699388" ry="0.704595" fill="#0C0D0D"/>
<ellipse cx="336.405" cy="55.0562" rx="0.699388" ry="0.704595" fill="#0C0D0D"/>
<ellipse cx="342.4" cy="55.0562" rx="0.699388" ry="0.704595" fill="#0C0D0D"/>
<ellipse cx="348.395" cy="55.0562" rx="0.699388" ry="0.704595" fill="#0C0D0D"/>
<ellipse cx="354.39" cy="55.0562" rx="0.699388" ry="0.704595" fill="#0C0D0D"/>
<ellipse cx="360.384" cy="55.0562" rx="0.699388" ry="0.704595" fill="#0C0D0D"/>
<ellipse cx="366.379" cy="55.0562" rx="0.699388" ry="0.704595" fill="#0C0D0D"/>
<ellipse cx="372.374" cy="55.0562" rx="0.699388" ry="0.704595" fill="#0C0D0D"/>
<ellipse cx="378.369" cy="55.0562" rx="0.699388" ry="0.704595" fill="#0C0D0D"/>
<ellipse cx="384.363" cy="55.0562" rx="0.699388" ry="0.704595" fill="#0C0D0D"/>
<ellipse cx="390.358" cy="55.0562" rx="0.699388" ry="0.704595" fill="#0C0D0D"/>
<ellipse cx="396.353" cy="55.0562" rx="0.699388" ry="0.704595" fill="#0C0D0D"/>
<ellipse cx="402.348" cy="55.0562" rx="0.699388" ry="0.704595" fill="#0C0D0D"/>
<ellipse cx="408.342" cy="55.0562" rx="0.699388" ry="0.704595" fill="#0C0D0D"/>
<ellipse cx="414.337" cy="55.0562" rx="0.699388" ry="0.704595" fill="#0C0D0D"/>
<ellipse cx="420.332" cy="55.0562" rx="0.699388" ry="0.704595" fill="#0C0D0D"/>
<ellipse cx="426.327" cy="55.0562" rx="0.699388" ry="0.704595" fill="#0C0D0D"/>
<ellipse cx="432.321" cy="55.0562" rx="0.699388" ry="0.704595" fill="#0C0D0D"/>
<ellipse cx="438.316" cy="55.0562" rx="0.699388" ry="0.704595" fill="#0C0D0D"/>
<ellipse cx="444.311" cy="55.0562" rx="0.699388" ry="0.704595" fill="#0C0D0D"/>
<ellipse cx="450.306" cy="55.0562" rx="0.699388" ry="0.704595" fill="#0C0D0D"/>
<ellipse cx="456.3" cy="55.0562" rx="0.699388" ry="0.704595" fill="#0C0D0D"/>
<ellipse cx="0.699144" cy="61.0952" rx="0.699388" ry="0.704595" fill="#0C0D0D"/>
<ellipse cx="6.69402" cy="61.0952" rx="0.699388" ry="0.704595" fill="#0C0D0D"/>
<ellipse cx="12.6886" cy="61.0952" rx="0.699388" ry="0.704595" fill="#0C0D0D"/>
<ellipse cx="18.6835" cy="61.0952" rx="0.699388" ry="0.704595" fill="#0C0D0D"/>
<ellipse cx="24.6781" cy="61.0952" rx="0.699388" ry="0.704595" fill="#0C0D0D"/>
<ellipse cx="30.673" cy="61.0952" rx="0.699388" ry="0.704595" fill="#0C0D0D"/>
<ellipse cx="36.6676" cy="61.0952" rx="0.699388" ry="0.704595" fill="#0C0D0D"/>
<ellipse cx="42.6625" cy="61.0952" rx="0.699388" ry="0.704595" fill="#0C0D0D"/>
<ellipse cx="48.6572" cy="61.0952" rx="0.699388" ry="0.704595" fill="#0C0D0D"/>
<ellipse cx="54.652" cy="61.0952" rx="0.699388" ry="0.704595" fill="#0C0D0D"/>
<ellipse cx="60.6467" cy="61.0952" rx="0.699388" ry="0.704595" fill="#0C0D0D"/>
<ellipse cx="66.6415" cy="61.0952" rx="0.699388" ry="0.704595" fill="#0C0D0D"/>
<ellipse cx="72.6362" cy="61.0952" rx="0.699388" ry="0.704595" fill="#0C0D0D"/>
<ellipse cx="78.631" cy="61.0952" rx="0.699388" ry="0.704595" fill="#0C0D0D"/>
<ellipse cx="84.6257" cy="61.0952" rx="0.699388" ry="0.704595" fill="#0C0D0D"/>
<ellipse cx="90.6205" cy="61.0952" rx="0.699388" ry="0.704595" fill="#0C0D0D"/>
<ellipse cx="96.6152" cy="61.0952" rx="0.699388" ry="0.704595" fill="#0C0D0D"/>
<ellipse cx="102.61" cy="61.0952" rx="0.699388" ry="0.704595" fill="#0C0D0D"/>
<ellipse cx="108.605" cy="61.0952" rx="0.699388" ry="0.704595" fill="#0C0D0D"/>
<ellipse cx="114.6" cy="61.0952" rx="0.699388" ry="0.704595" fill="#0C0D0D"/>
<ellipse cx="120.594" cy="61.0952" rx="0.699388" ry="0.704595" fill="#0C0D0D"/>
<ellipse cx="126.589" cy="61.0952" rx="0.699388" ry="0.704595" fill="#0C0D0D"/>
<ellipse cx="132.584" cy="61.0952" rx="0.699388" ry="0.704595" fill="#0C0D0D"/>
<ellipse cx="138.579" cy="61.0952" rx="0.699388" ry="0.704595" fill="#0C0D0D"/>
<ellipse cx="144.573" cy="61.0952" rx="0.699388" ry="0.704595" fill="#0C0D0D"/>
<ellipse cx="150.568" cy="61.0952" rx="0.699388" ry="0.704595" fill="#0C0D0D"/>
<ellipse cx="156.563" cy="61.0952" rx="0.699388" ry="0.704595" fill="#0C0D0D"/>
<ellipse cx="162.558" cy="61.0952" rx="0.699388" ry="0.704595" fill="#0C0D0D"/>
<ellipse cx="168.552" cy="61.0952" rx="0.699388" ry="0.704595" fill="#0C0D0D"/>
<ellipse cx="174.547" cy="61.0952" rx="0.699388" ry="0.704595" fill="#0C0D0D"/>
<ellipse cx="180.542" cy="61.0952" rx="0.699388" ry="0.704595" fill="#0C0D0D"/>
<ellipse cx="186.537" cy="61.0952" rx="0.699388" ry="0.704595" fill="#0C0D0D"/>
<ellipse cx="192.531" cy="61.0952" rx="0.699388" ry="0.704595" fill="#0C0D0D"/>
<ellipse cx="198.526" cy="61.0952" rx="0.699388" ry="0.704595" fill="#0C0D0D"/>
<ellipse cx="204.521" cy="61.0952" rx="0.699388" ry="0.704595" fill="#0C0D0D"/>
<ellipse cx="210.516" cy="61.0952" rx="0.699388" ry="0.704595" fill="#0C0D0D"/>
<ellipse cx="216.51" cy="61.0952" rx="0.699388" ry="0.704595" fill="#0C0D0D"/>
<ellipse cx="222.505" cy="61.0952" rx="0.699388" ry="0.704595" fill="#0C0D0D"/>
<ellipse cx="228.5" cy="61.0952" rx="0.699388" ry="0.704595" fill="#0C0D0D"/>
<ellipse cx="234.495" cy="61.0952" rx="0.699388" ry="0.704595" fill="#0C0D0D"/>
<ellipse cx="240.489" cy="61.0952" rx="0.699388" ry="0.704595" fill="#0C0D0D"/>
<ellipse cx="246.484" cy="61.0952" rx="0.699388" ry="0.704595" fill="#0C0D0D"/>
<ellipse cx="252.479" cy="61.0952" rx="0.699388" ry="0.704595" fill="#0C0D0D"/>
<ellipse cx="258.474" cy="61.0952" rx="0.699388" ry="0.704595" fill="#0C0D0D"/>
<ellipse cx="264.468" cy="61.0952" rx="0.699388" ry="0.704595" fill="#0C0D0D"/>
<ellipse cx="270.463" cy="61.0952" rx="0.699388" ry="0.704595" fill="#0C0D0D"/>
<ellipse cx="276.458" cy="61.0952" rx="0.699388" ry="0.704595" fill="#0C0D0D"/>
<ellipse cx="282.453" cy="61.0952" rx="0.699388" ry="0.704595" fill="#0C0D0D"/>
<ellipse cx="288.447" cy="61.0952" rx="0.699388" ry="0.704595" fill="#0C0D0D"/>
<ellipse cx="294.442" cy="61.0952" rx="0.699388" ry="0.704595" fill="#0C0D0D"/>
<ellipse cx="300.437" cy="61.0952" rx="0.699388" ry="0.704595" fill="#0C0D0D"/>
<ellipse cx="306.432" cy="61.0952" rx="0.699388" ry="0.704595" fill="#0C0D0D"/>
<ellipse cx="312.426" cy="61.0952" rx="0.699388" ry="0.704595" fill="#0C0D0D"/>
<ellipse cx="318.421" cy="61.0952" rx="0.699388" ry="0.704595" fill="#0C0D0D"/>
<ellipse cx="324.416" cy="61.0952" rx="0.699388" ry="0.704595" fill="#0C0D0D"/>
<ellipse cx="330.411" cy="61.0952" rx="0.699388" ry="0.704595" fill="#0C0D0D"/>
<ellipse cx="336.405" cy="61.0952" rx="0.699388" ry="0.704595" fill="#0C0D0D"/>
<ellipse cx="342.4" cy="61.0952" rx="0.699388" ry="0.704595" fill="#0C0D0D"/>
<ellipse cx="348.395" cy="61.0952" rx="0.699388" ry="0.704595" fill="#0C0D0D"/>
<ellipse cx="354.39" cy="61.0952" rx="0.699388" ry="0.704595" fill="#0C0D0D"/>
<ellipse cx="360.384" cy="61.0952" rx="0.699388" ry="0.704595" fill="#0C0D0D"/>
<ellipse cx="366.379" cy="61.0952" rx="0.699388" ry="0.704595" fill="#0C0D0D"/>
<ellipse cx="372.374" cy="61.0952" rx="0.699388" ry="0.704595" fill="#0C0D0D"/>
<ellipse cx="378.369" cy="61.0952" rx="0.699388" ry="0.704595" fill="#0C0D0D"/>
<ellipse cx="384.363" cy="61.0952" rx="0.699388" ry="0.704595" fill="#0C0D0D"/>
<ellipse cx="390.358" cy="61.0952" rx="0.699388" ry="0.704595" fill="#0C0D0D"/>
<ellipse cx="396.353" cy="61.0952" rx="0.699388" ry="0.704595" fill="#0C0D0D"/>
<ellipse cx="402.348" cy="61.0952" rx="0.699388" ry="0.704595" fill="#0C0D0D"/>
<ellipse cx="408.342" cy="61.0952" rx="0.699388" ry="0.704595" fill="#0C0D0D"/>
<ellipse cx="414.337" cy="61.0952" rx="0.699388" ry="0.704595" fill="#0C0D0D"/>
<ellipse cx="420.332" cy="61.0952" rx="0.699388" ry="0.704595" fill="#0C0D0D"/>
<ellipse cx="426.327" cy="61.0952" rx="0.699388" ry="0.704595" fill="#0C0D0D"/>
<ellipse cx="432.321" cy="61.0952" rx="0.699388" ry="0.704595" fill="#0C0D0D"/>
<ellipse cx="438.316" cy="61.0952" rx="0.699388" ry="0.704595" fill="#0C0D0D"/>
<ellipse cx="444.311" cy="61.0952" rx="0.699388" ry="0.704595" fill="#0C0D0D"/>
<ellipse cx="450.306" cy="61.0952" rx="0.699388" ry="0.704595" fill="#0C0D0D"/>
<ellipse cx="456.3" cy="61.0952" rx="0.699388" ry="0.704595" fill="#0C0D0D"/>
<ellipse cx="0.699144" cy="67.1343" rx="0.699388" ry="0.704595" fill="#0C0D0D"/>
<ellipse cx="6.69402" cy="67.1343" rx="0.699388" ry="0.704595" fill="#0C0D0D"/>
<ellipse cx="12.6886" cy="67.1343" rx="0.699388" ry="0.704595" fill="#0C0D0D"/>
<ellipse cx="18.6835" cy="67.1343" rx="0.699388" ry="0.704595" fill="#0C0D0D"/>
<ellipse cx="24.6781" cy="67.1343" rx="0.699388" ry="0.704595" fill="#0C0D0D"/>
<ellipse cx="30.673" cy="67.1343" rx="0.699388" ry="0.704595" fill="#0C0D0D"/>
<ellipse cx="36.6676" cy="67.1343" rx="0.699388" ry="0.704595" fill="#0C0D0D"/>
<ellipse cx="42.6625" cy="67.1343" rx="0.699388" ry="0.704595" fill="#0C0D0D"/>
<ellipse cx="48.6572" cy="67.1343" rx="0.699388" ry="0.704595" fill="#0C0D0D"/>
<ellipse cx="54.652" cy="67.1343" rx="0.699388" ry="0.704595" fill="#0C0D0D"/>
<ellipse cx="60.6467" cy="67.1343" rx="0.699388" ry="0.704595" fill="#0C0D0D"/>
<ellipse cx="66.6415" cy="67.1343" rx="0.699388" ry="0.704595" fill="#0C0D0D"/>
<ellipse cx="72.6362" cy="67.1343" rx="0.699388" ry="0.704595" fill="#0C0D0D"/>
<ellipse cx="78.631" cy="67.1343" rx="0.699388" ry="0.704595" fill="#0C0D0D"/>
<ellipse cx="84.6257" cy="67.1343" rx="0.699388" ry="0.704595" fill="#0C0D0D"/>
<ellipse cx="90.6205" cy="67.1343" rx="0.699388" ry="0.704595" fill="#0C0D0D"/>
<ellipse cx="96.6152" cy="67.1343" rx="0.699388" ry="0.704595" fill="#0C0D0D"/>
<ellipse cx="102.61" cy="67.1343" rx="0.699388" ry="0.704595" fill="#0C0D0D"/>
<ellipse cx="108.605" cy="67.1343" rx="0.699388" ry="0.704595" fill="#0C0D0D"/>
<ellipse cx="114.6" cy="67.1343" rx="0.699388" ry="0.704595" fill="#0C0D0D"/>
<ellipse cx="120.594" cy="67.1343" rx="0.699388" ry="0.704595" fill="#0C0D0D"/>
<ellipse cx="126.589" cy="67.1343" rx="0.699388" ry="0.704595" fill="#0C0D0D"/>
<ellipse cx="132.584" cy="67.1343" rx="0.699388" ry="0.704595" fill="#0C0D0D"/>
<ellipse cx="138.579" cy="67.1343" rx="0.699388" ry="0.704595" fill="#0C0D0D"/>
<ellipse cx="144.573" cy="67.1343" rx="0.699388" ry="0.704595" fill="#0C0D0D"/>
<ellipse cx="150.568" cy="67.1343" rx="0.699388" ry="0.704595" fill="#0C0D0D"/>
<ellipse cx="156.563" cy="67.1343" rx="0.699388" ry="0.704595" fill="#0C0D0D"/>
<ellipse cx="162.558" cy="67.1343" rx="0.699388" ry="0.704595" fill="#0C0D0D"/>
<ellipse cx="168.552" cy="67.1343" rx="0.699388" ry="0.704595" fill="#0C0D0D"/>
<ellipse cx="174.547" cy="67.1343" rx="0.699388" ry="0.704595" fill="#0C0D0D"/>
<ellipse cx="180.542" cy="67.1343" rx="0.699388" ry="0.704595" fill="#0C0D0D"/>
<ellipse cx="186.537" cy="67.1343" rx="0.699388" ry="0.704595" fill="#0C0D0D"/>
<ellipse cx="192.531" cy="67.1343" rx="0.699388" ry="0.704595" fill="#0C0D0D"/>
<ellipse cx="198.526" cy="67.1343" rx="0.699388" ry="0.704595" fill="#0C0D0D"/>
<ellipse cx="204.521" cy="67.1343" rx="0.699388" ry="0.704595" fill="#0C0D0D"/>
<ellipse cx="210.516" cy="67.1343" rx="0.699388" ry="0.704595" fill="#0C0D0D"/>
<ellipse cx="216.51" cy="67.1343" rx="0.699388" ry="0.704595" fill="#0C0D0D"/>
<ellipse cx="222.505" cy="67.1343" rx="0.699388" ry="0.704595" fill="#0C0D0D"/>
<ellipse cx="228.5" cy="67.1343" rx="0.699388" ry="0.704595" fill="#0C0D0D"/>
<ellipse cx="234.495" cy="67.1343" rx="0.699388" ry="0.704595" fill="#0C0D0D"/>
<ellipse cx="240.489" cy="67.1343" rx="0.699388" ry="0.704595" fill="#0C0D0D"/>
<ellipse cx="246.484" cy="67.1343" rx="0.699388" ry="0.704595" fill="#0C0D0D"/>
<ellipse cx="252.479" cy="67.1343" rx="0.699388" ry="0.704595" fill="#0C0D0D"/>
<ellipse cx="258.474" cy="67.1343" rx="0.699388" ry="0.704595" fill="#0C0D0D"/>
<ellipse cx="264.468" cy="67.1343" rx="0.699388" ry="0.704595" fill="#0C0D0D"/>
<ellipse cx="270.463" cy="67.1343" rx="0.699388" ry="0.704595" fill="#0C0D0D"/>
<ellipse cx="276.458" cy="67.1343" rx="0.699388" ry="0.704595" fill="#0C0D0D"/>
<ellipse cx="282.453" cy="67.1343" rx="0.699388" ry="0.704595" fill="#0C0D0D"/>
<ellipse cx="288.447" cy="67.1343" rx="0.699388" ry="0.704595" fill="#0C0D0D"/>
<ellipse cx="294.442" cy="67.1343" rx="0.699388" ry="0.704595" fill="#0C0D0D"/>
<ellipse cx="300.437" cy="67.1343" rx="0.699388" ry="0.704595" fill="#0C0D0D"/>
<ellipse cx="306.432" cy="67.1343" rx="0.699388" ry="0.704595" fill="#0C0D0D"/>
<ellipse cx="312.426" cy="67.1343" rx="0.699388" ry="0.704595" fill="#0C0D0D"/>
<ellipse cx="318.421" cy="67.1343" rx="0.699388" ry="0.704595" fill="#0C0D0D"/>
<ellipse cx="324.416" cy="67.1343" rx="0.699388" ry="0.704595" fill="#0C0D0D"/>
<ellipse cx="330.411" cy="67.1343" rx="0.699388" ry="0.704595" fill="#0C0D0D"/>
<ellipse cx="336.405" cy="67.1343" rx="0.699388" ry="0.704595" fill="#0C0D0D"/>
<ellipse cx="342.4" cy="67.1343" rx="0.699388" ry="0.704595" fill="#0C0D0D"/>
<ellipse cx="348.395" cy="67.1343" rx="0.699388" ry="0.704595" fill="#0C0D0D"/>
<ellipse cx="354.39" cy="67.1343" rx="0.699388" ry="0.704595" fill="#0C0D0D"/>
<ellipse cx="360.384" cy="67.1343" rx="0.699388" ry="0.704595" fill="#0C0D0D"/>
<ellipse cx="366.379" cy="67.1343" rx="0.699388" ry="0.704595" fill="#0C0D0D"/>
<ellipse cx="372.374" cy="67.1343" rx="0.699388" ry="0.704595" fill="#0C0D0D"/>
<ellipse cx="378.369" cy="67.1343" rx="0.699388" ry="0.704595" fill="#0C0D0D"/>
<ellipse cx="384.363" cy="67.1343" rx="0.699388" ry="0.704595" fill="#0C0D0D"/>
<ellipse cx="390.358" cy="67.1343" rx="0.699388" ry="0.704595" fill="#0C0D0D"/>
<ellipse cx="396.353" cy="67.1343" rx="0.699388" ry="0.704595" fill="#0C0D0D"/>
<ellipse cx="402.348" cy="67.1343" rx="0.699388" ry="0.704595" fill="#0C0D0D"/>
<ellipse cx="408.342" cy="67.1343" rx="0.699388" ry="0.704595" fill="#0C0D0D"/>
<ellipse cx="414.337" cy="67.1343" rx="0.699388" ry="0.704595" fill="#0C0D0D"/>
<ellipse cx="420.332" cy="67.1343" rx="0.699388" ry="0.704595" fill="#0C0D0D"/>
<ellipse cx="426.327" cy="67.1343" rx="0.699388" ry="0.704595" fill="#0C0D0D"/>
<ellipse cx="432.321" cy="67.1343" rx="0.699388" ry="0.704595" fill="#0C0D0D"/>
<ellipse cx="438.316" cy="67.1343" rx="0.699388" ry="0.704595" fill="#0C0D0D"/>
<ellipse cx="444.311" cy="67.1343" rx="0.699388" ry="0.704595" fill="#0C0D0D"/>
<ellipse cx="450.306" cy="67.1343" rx="0.699388" ry="0.704595" fill="#0C0D0D"/>
<ellipse cx="456.3" cy="67.1343" rx="0.699388" ry="0.704595" fill="#0C0D0D"/>
<ellipse cx="0.699144" cy="73.1733" rx="0.699388" ry="0.704595" fill="#0C0D0D"/>
<ellipse cx="6.69402" cy="73.1733" rx="0.699388" ry="0.704595" fill="#0C0D0D"/>
<ellipse cx="12.6886" cy="73.1733" rx="0.699388" ry="0.704595" fill="#0C0D0D"/>
<ellipse cx="18.6835" cy="73.1733" rx="0.699388" ry="0.704595" fill="#0C0D0D"/>
<ellipse cx="24.6781" cy="73.1733" rx="0.699388" ry="0.704595" fill="#0C0D0D"/>
<ellipse cx="30.673" cy="73.1733" rx="0.699388" ry="0.704595" fill="#0C0D0D"/>
<ellipse cx="36.6676" cy="73.1733" rx="0.699388" ry="0.704595" fill="#0C0D0D"/>
<ellipse cx="42.6625" cy="73.1733" rx="0.699388" ry="0.704595" fill="#0C0D0D"/>
<ellipse cx="48.6572" cy="73.1733" rx="0.699388" ry="0.704595" fill="#0C0D0D"/>
<ellipse cx="54.652" cy="73.1733" rx="0.699388" ry="0.704595" fill="#0C0D0D"/>
<ellipse cx="60.6467" cy="73.1733" rx="0.699388" ry="0.704595" fill="#0C0D0D"/>
<ellipse cx="66.6415" cy="73.1733" rx="0.699388" ry="0.704595" fill="#0C0D0D"/>
<ellipse cx="72.6362" cy="73.1733" rx="0.699388" ry="0.704595" fill="#0C0D0D"/>
<ellipse cx="78.631" cy="73.1733" rx="0.699388" ry="0.704595" fill="#0C0D0D"/>
<ellipse cx="84.6257" cy="73.1733" rx="0.699388" ry="0.704595" fill="#0C0D0D"/>
<ellipse cx="90.6205" cy="73.1733" rx="0.699388" ry="0.704595" fill="#0C0D0D"/>
<ellipse cx="96.6152" cy="73.1733" rx="0.699388" ry="0.704595" fill="#0C0D0D"/>
<ellipse cx="102.61" cy="73.1733" rx="0.699388" ry="0.704595" fill="#0C0D0D"/>
<ellipse cx="108.605" cy="73.1733" rx="0.699388" ry="0.704595" fill="#0C0D0D"/>
<ellipse cx="114.6" cy="73.1733" rx="0.699388" ry="0.704595" fill="#0C0D0D"/>
<ellipse cx="120.594" cy="73.1733" rx="0.699388" ry="0.704595" fill="#0C0D0D"/>
<ellipse cx="126.589" cy="73.1733" rx="0.699388" ry="0.704595" fill="#0C0D0D"/>
<ellipse cx="132.584" cy="73.1733" rx="0.699388" ry="0.704595" fill="#0C0D0D"/>
<ellipse cx="138.579" cy="73.1733" rx="0.699388" ry="0.704595" fill="#0C0D0D"/>
<ellipse cx="144.573" cy="73.1733" rx="0.699388" ry="0.704595" fill="#0C0D0D"/>
<ellipse cx="150.568" cy="73.1733" rx="0.699388" ry="0.704595" fill="#0C0D0D"/>
<ellipse cx="156.563" cy="73.1733" rx="0.699388" ry="0.704595" fill="#0C0D0D"/>
<ellipse cx="162.558" cy="73.1733" rx="0.699388" ry="0.704595" fill="#0C0D0D"/>
<ellipse cx="168.552" cy="73.1733" rx="0.699388" ry="0.704595" fill="#0C0D0D"/>
<ellipse cx="174.547" cy="73.1733" rx="0.699388" ry="0.704595" fill="#0C0D0D"/>
<ellipse cx="180.542" cy="73.1733" rx="0.699388" ry="0.704595" fill="#0C0D0D"/>
<ellipse cx="186.537" cy="73.1733" rx="0.699388" ry="0.704595" fill="#0C0D0D"/>
<ellipse cx="192.531" cy="73.1733" rx="0.699388" ry="0.704595" fill="#0C0D0D"/>
<ellipse cx="198.526" cy="73.1733" rx="0.699388" ry="0.704595" fill="#0C0D0D"/>
<ellipse cx="204.521" cy="73.1733" rx="0.699388" ry="0.704595" fill="#0C0D0D"/>
<ellipse cx="210.516" cy="73.1733" rx="0.699388" ry="0.704595" fill="#0C0D0D"/>
<ellipse cx="216.51" cy="73.1733" rx="0.699388" ry="0.704595" fill="#0C0D0D"/>
<ellipse cx="222.505" cy="73.1733" rx="0.699388" ry="0.704595" fill="#0C0D0D"/>
<ellipse cx="228.5" cy="73.1733" rx="0.699388" ry="0.704595" fill="#0C0D0D"/>
<ellipse cx="234.495" cy="73.1733" rx="0.699388" ry="0.704595" fill="#0C0D0D"/>
<ellipse cx="240.489" cy="73.1733" rx="0.699388" ry="0.704595" fill="#0C0D0D"/>
<ellipse cx="246.484" cy="73.1733" rx="0.699388" ry="0.704595" fill="#0C0D0D"/>
<ellipse cx="252.479" cy="73.1733" rx="0.699388" ry="0.704595" fill="#0C0D0D"/>
<ellipse cx="258.474" cy="73.1733" rx="0.699388" ry="0.704595" fill="#0C0D0D"/>
<ellipse cx="264.468" cy="73.1733" rx="0.699388" ry="0.704595" fill="#0C0D0D"/>
<ellipse cx="270.463" cy="73.1733" rx="0.699388" ry="0.704595" fill="#0C0D0D"/>
<ellipse cx="276.458" cy="73.1733" rx="0.699388" ry="0.704595" fill="#0C0D0D"/>
<ellipse cx="282.453" cy="73.1733" rx="0.699388" ry="0.704595" fill="#0C0D0D"/>
<ellipse cx="288.447" cy="73.1733" rx="0.699388" ry="0.704595" fill="#0C0D0D"/>
<ellipse cx="294.442" cy="73.1733" rx="0.699388" ry="0.704595" fill="#0C0D0D"/>
<ellipse cx="300.437" cy="73.1733" rx="0.699388" ry="0.704595" fill="#0C0D0D"/>
<ellipse cx="306.432" cy="73.1733" rx="0.699388" ry="0.704595" fill="#0C0D0D"/>
<ellipse cx="312.426" cy="73.1733" rx="0.699388" ry="0.704595" fill="#0C0D0D"/>
<ellipse cx="318.421" cy="73.1733" rx="0.699388" ry="0.704595" fill="#0C0D0D"/>
<ellipse cx="324.416" cy="73.1733" rx="0.699388" ry="0.704595" fill="#0C0D0D"/>
<ellipse cx="330.411" cy="73.1733" rx="0.699388" ry="0.704595" fill="#0C0D0D"/>
<ellipse cx="336.405" cy="73.1733" rx="0.699388" ry="0.704595" fill="#0C0D0D"/>
<ellipse cx="342.4" cy="73.1733" rx="0.699388" ry="0.704595" fill="#0C0D0D"/>
<ellipse cx="348.395" cy="73.1733" rx="0.699388" ry="0.704595" fill="#0C0D0D"/>
<ellipse cx="354.39" cy="73.1733" rx="0.699388" ry="0.704595" fill="#0C0D0D"/>
<ellipse cx="360.384" cy="73.1733" rx="0.699388" ry="0.704595" fill="#0C0D0D"/>
<ellipse cx="366.379" cy="73.1733" rx="0.699388" ry="0.704595" fill="#0C0D0D"/>
<ellipse cx="372.374" cy="73.1733" rx="0.699388" ry="0.704595" fill="#0C0D0D"/>
<ellipse cx="378.369" cy="73.1733" rx="0.699388" ry="0.704595" fill="#0C0D0D"/>
<ellipse cx="384.363" cy="73.1733" rx="0.699388" ry="0.704595" fill="#0C0D0D"/>
<ellipse cx="390.358" cy="73.1733" rx="0.699388" ry="0.704595" fill="#0C0D0D"/>
<ellipse cx="396.353" cy="73.1733" rx="0.699388" ry="0.704595" fill="#0C0D0D"/>
<ellipse cx="402.348" cy="73.1733" rx="0.699388" ry="0.704595" fill="#0C0D0D"/>
<ellipse cx="408.342" cy="73.1733" rx="0.699388" ry="0.704595" fill="#0C0D0D"/>
<ellipse cx="414.337" cy="73.1733" rx="0.699388" ry="0.704595" fill="#0C0D0D"/>
<ellipse cx="420.332" cy="73.1733" rx="0.699388" ry="0.704595" fill="#0C0D0D"/>
<ellipse cx="426.327" cy="73.1733" rx="0.699388" ry="0.704595" fill="#0C0D0D"/>
<ellipse cx="432.321" cy="73.1733" rx="0.699388" ry="0.704595" fill="#0C0D0D"/>
<ellipse cx="438.316" cy="73.1733" rx="0.699388" ry="0.704595" fill="#0C0D0D"/>
<ellipse cx="444.311" cy="73.1733" rx="0.699388" ry="0.704595" fill="#0C0D0D"/>
<ellipse cx="450.306" cy="73.1733" rx="0.699388" ry="0.704595" fill="#0C0D0D"/>
<ellipse cx="456.3" cy="73.1733" rx="0.699388" ry="0.704595" fill="#0C0D0D"/>
<ellipse cx="0.699144" cy="79.2202" rx="0.699388" ry="0.704595" fill="#0C0D0D"/>
<ellipse cx="6.69402" cy="79.2202" rx="0.699388" ry="0.704595" fill="#0C0D0D"/>
<ellipse cx="12.6886" cy="79.2202" rx="0.699388" ry="0.704595" fill="#0C0D0D"/>
<ellipse cx="18.6835" cy="79.2202" rx="0.699388" ry="0.704595" fill="#0C0D0D"/>
<ellipse cx="24.6781" cy="79.2202" rx="0.699388" ry="0.704595" fill="#0C0D0D"/>
<ellipse cx="30.673" cy="79.2202" rx="0.699388" ry="0.704595" fill="#0C0D0D"/>
<ellipse cx="36.6676" cy="79.2202" rx="0.699388" ry="0.704595" fill="#0C0D0D"/>
<ellipse cx="42.6625" cy="79.2202" rx="0.699388" ry="0.704595" fill="#0C0D0D"/>
<ellipse cx="48.6572" cy="79.2202" rx="0.699388" ry="0.704595" fill="#0C0D0D"/>
<ellipse cx="54.652" cy="79.2202" rx="0.699388" ry="0.704595" fill="#0C0D0D"/>
<ellipse cx="60.6467" cy="79.2202" rx="0.699388" ry="0.704595" fill="#0C0D0D"/>
<ellipse cx="66.6415" cy="79.2202" rx="0.699388" ry="0.704595" fill="#0C0D0D"/>
<ellipse cx="72.6362" cy="79.2202" rx="0.699388" ry="0.704595" fill="#0C0D0D"/>
<ellipse cx="78.631" cy="79.2202" rx="0.699388" ry="0.704595" fill="#0C0D0D"/>
<ellipse cx="84.6257" cy="79.2202" rx="0.699388" ry="0.704595" fill="#0C0D0D"/>
<ellipse cx="90.6205" cy="79.2202" rx="0.699388" ry="0.704595" fill="#0C0D0D"/>
<ellipse cx="96.6152" cy="79.2202" rx="0.699388" ry="0.704595" fill="#0C0D0D"/>
<ellipse cx="102.61" cy="79.2202" rx="0.699388" ry="0.704595" fill="#0C0D0D"/>
<ellipse cx="108.605" cy="79.2202" rx="0.699388" ry="0.704595" fill="#0C0D0D"/>
<ellipse cx="114.6" cy="79.2202" rx="0.699388" ry="0.704595" fill="#0C0D0D"/>
<ellipse cx="120.594" cy="79.2202" rx="0.699388" ry="0.704595" fill="#0C0D0D"/>
<ellipse cx="126.589" cy="79.2202" rx="0.699388" ry="0.704595" fill="#0C0D0D"/>
<ellipse cx="132.584" cy="79.2202" rx="0.699388" ry="0.704595" fill="#0C0D0D"/>
<ellipse cx="138.579" cy="79.2202" rx="0.699388" ry="0.704595" fill="#0C0D0D"/>
<ellipse cx="144.573" cy="79.2202" rx="0.699388" ry="0.704595" fill="#0C0D0D"/>
<ellipse cx="150.568" cy="79.2202" rx="0.699388" ry="0.704595" fill="#0C0D0D"/>
<ellipse cx="156.563" cy="79.2202" rx="0.699388" ry="0.704595" fill="#0C0D0D"/>
<ellipse cx="162.558" cy="79.2202" rx="0.699388" ry="0.704595" fill="#0C0D0D"/>
<ellipse cx="168.552" cy="79.2202" rx="0.699388" ry="0.704595" fill="#0C0D0D"/>
<ellipse cx="174.547" cy="79.2202" rx="0.699388" ry="0.704595" fill="#0C0D0D"/>
<ellipse cx="180.542" cy="79.2202" rx="0.699388" ry="0.704595" fill="#0C0D0D"/>
<ellipse cx="186.537" cy="79.2202" rx="0.699388" ry="0.704595" fill="#0C0D0D"/>
<ellipse cx="192.531" cy="79.2202" rx="0.699388" ry="0.704595" fill="#0C0D0D"/>
<ellipse cx="198.526" cy="79.2202" rx="0.699388" ry="0.704595" fill="#0C0D0D"/>
<ellipse cx="204.521" cy="79.2202" rx="0.699388" ry="0.704595" fill="#0C0D0D"/>
<ellipse cx="210.516" cy="79.2202" rx="0.699388" ry="0.704595" fill="#0C0D0D"/>
<ellipse cx="216.51" cy="79.2202" rx="0.699388" ry="0.704595" fill="#0C0D0D"/>
<ellipse cx="222.505" cy="79.2202" rx="0.699388" ry="0.704595" fill="#0C0D0D"/>
<ellipse cx="228.5" cy="79.2202" rx="0.699388" ry="0.704595" fill="#0C0D0D"/>
<ellipse cx="234.495" cy="79.2202" rx="0.699388" ry="0.704595" fill="#0C0D0D"/>
<ellipse cx="240.489" cy="79.2202" rx="0.699388" ry="0.704595" fill="#0C0D0D"/>
<ellipse cx="246.484" cy="79.2202" rx="0.699388" ry="0.704595" fill="#0C0D0D"/>
<ellipse cx="252.479" cy="79.2202" rx="0.699388" ry="0.704595" fill="#0C0D0D"/>
<ellipse cx="258.474" cy="79.2202" rx="0.699388" ry="0.704595" fill="#0C0D0D"/>
<ellipse cx="264.468" cy="79.2202" rx="0.699388" ry="0.704595" fill="#0C0D0D"/>
<ellipse cx="270.463" cy="79.2202" rx="0.699388" ry="0.704595" fill="#0C0D0D"/>
<ellipse cx="276.458" cy="79.2202" rx="0.699388" ry="0.704595" fill="#0C0D0D"/>
<ellipse cx="282.453" cy="79.2202" rx="0.699388" ry="0.704595" fill="#0C0D0D"/>
<ellipse cx="288.447" cy="79.2202" rx="0.699388" ry="0.704595" fill="#0C0D0D"/>
<ellipse cx="294.442" cy="79.2202" rx="0.699388" ry="0.704595" fill="#0C0D0D"/>
<ellipse cx="300.437" cy="79.2202" rx="0.699388" ry="0.704595" fill="#0C0D0D"/>
<ellipse cx="306.432" cy="79.2202" rx="0.699388" ry="0.704595" fill="#0C0D0D"/>
<ellipse cx="312.426" cy="79.2202" rx="0.699388" ry="0.704595" fill="#0C0D0D"/>
<ellipse cx="318.421" cy="79.2202" rx="0.699388" ry="0.704595" fill="#0C0D0D"/>
<ellipse cx="324.416" cy="79.2202" rx="0.699388" ry="0.704595" fill="#0C0D0D"/>
<ellipse cx="330.411" cy="79.2202" rx="0.699388" ry="0.704595" fill="#0C0D0D"/>
<ellipse cx="336.405" cy="79.2202" rx="0.699388" ry="0.704595" fill="#0C0D0D"/>
<ellipse cx="342.4" cy="79.2202" rx="0.699388" ry="0.704595" fill="#0C0D0D"/>
<ellipse cx="348.395" cy="79.2202" rx="0.699388" ry="0.704595" fill="#0C0D0D"/>
<ellipse cx="354.39" cy="79.2202" rx="0.699388" ry="0.704595" fill="#0C0D0D"/>
<ellipse cx="360.384" cy="79.2202" rx="0.699388" ry="0.704595" fill="#0C0D0D"/>
<ellipse cx="366.379" cy="79.2202" rx="0.699388" ry="0.704595" fill="#0C0D0D"/>
<ellipse cx="372.374" cy="79.2202" rx="0.699388" ry="0.704595" fill="#0C0D0D"/>
<ellipse cx="378.369" cy="79.2202" rx="0.699388" ry="0.704595" fill="#0C0D0D"/>
<ellipse cx="384.363" cy="79.2202" rx="0.699388" ry="0.704595" fill="#0C0D0D"/>
<ellipse cx="390.358" cy="79.2202" rx="0.699388" ry="0.704595" fill="#0C0D0D"/>
<ellipse cx="396.353" cy="79.2202" rx="0.699388" ry="0.704595" fill="#0C0D0D"/>
<ellipse cx="402.348" cy="79.2202" rx="0.699388" ry="0.704595" fill="#0C0D0D"/>
<ellipse cx="408.342" cy="79.2202" rx="0.699388" ry="0.704595" fill="#0C0D0D"/>
<ellipse cx="414.337" cy="79.2202" rx="0.699388" ry="0.704595" fill="#0C0D0D"/>
<ellipse cx="420.332" cy="79.2202" rx="0.699388" ry="0.704595" fill="#0C0D0D"/>
<ellipse cx="426.327" cy="79.2202" rx="0.699388" ry="0.704595" fill="#0C0D0D"/>
<ellipse cx="432.321" cy="79.2202" rx="0.699388" ry="0.704595" fill="#0C0D0D"/>
<ellipse cx="438.316" cy="79.2202" rx="0.699388" ry="0.704595" fill="#0C0D0D"/>
<ellipse cx="444.311" cy="79.2202" rx="0.699388" ry="0.704595" fill="#0C0D0D"/>
<ellipse cx="450.306" cy="79.2202" rx="0.699388" ry="0.704595" fill="#0C0D0D"/>
<ellipse cx="456.3" cy="79.2202" rx="0.699388" ry="0.704595" fill="#0C0D0D"/>
<ellipse cx="0.699144" cy="85.2593" rx="0.699388" ry="0.704595" fill="#0C0D0D"/>
<ellipse cx="6.69402" cy="85.2593" rx="0.699388" ry="0.704595" fill="#0C0D0D"/>
<ellipse cx="12.6886" cy="85.2593" rx="0.699388" ry="0.704595" fill="#0C0D0D"/>
<ellipse cx="18.6835" cy="85.2593" rx="0.699388" ry="0.704595" fill="#0C0D0D"/>
<ellipse cx="24.6781" cy="85.2593" rx="0.699388" ry="0.704595" fill="#0C0D0D"/>
<ellipse cx="30.673" cy="85.2593" rx="0.699388" ry="0.704595" fill="#0C0D0D"/>
<ellipse cx="36.6676" cy="85.2593" rx="0.699388" ry="0.704595" fill="#0C0D0D"/>
<ellipse cx="42.6625" cy="85.2593" rx="0.699388" ry="0.704595" fill="#0C0D0D"/>
<ellipse cx="48.6572" cy="85.2593" rx="0.699388" ry="0.704595" fill="#0C0D0D"/>
<ellipse cx="54.652" cy="85.2593" rx="0.699388" ry="0.704595" fill="#0C0D0D"/>
<ellipse cx="60.6467" cy="85.2593" rx="0.699388" ry="0.704595" fill="#0C0D0D"/>
<ellipse cx="66.6415" cy="85.2593" rx="0.699388" ry="0.704595" fill="#0C0D0D"/>
<ellipse cx="72.6362" cy="85.2593" rx="0.699388" ry="0.704595" fill="#0C0D0D"/>
<ellipse cx="78.631" cy="85.2593" rx="0.699388" ry="0.704595" fill="#0C0D0D"/>
<ellipse cx="84.6257" cy="85.2593" rx="0.699388" ry="0.704595" fill="#0C0D0D"/>
<ellipse cx="90.6205" cy="85.2593" rx="0.699388" ry="0.704595" fill="#0C0D0D"/>
<ellipse cx="96.6152" cy="85.2593" rx="0.699388" ry="0.704595" fill="#0C0D0D"/>
<ellipse cx="102.61" cy="85.2593" rx="0.699388" ry="0.704595" fill="#0C0D0D"/>
<ellipse cx="108.605" cy="85.2593" rx="0.699388" ry="0.704595" fill="#0C0D0D"/>
<ellipse cx="114.6" cy="85.2593" rx="0.699388" ry="0.704595" fill="#0C0D0D"/>
<ellipse cx="120.594" cy="85.2593" rx="0.699388" ry="0.704595" fill="#0C0D0D"/>
<ellipse cx="126.589" cy="85.2593" rx="0.699388" ry="0.704595" fill="#0C0D0D"/>
<ellipse cx="132.584" cy="85.2593" rx="0.699388" ry="0.704595" fill="#0C0D0D"/>
<ellipse cx="138.579" cy="85.2593" rx="0.699388" ry="0.704595" fill="#0C0D0D"/>
<ellipse cx="144.573" cy="85.2593" rx="0.699388" ry="0.704595" fill="#0C0D0D"/>
<ellipse cx="150.568" cy="85.2593" rx="0.699388" ry="0.704595" fill="#0C0D0D"/>
<ellipse cx="156.563" cy="85.2593" rx="0.699388" ry="0.704595" fill="#0C0D0D"/>
<ellipse cx="162.558" cy="85.2593" rx="0.699388" ry="0.704595" fill="#0C0D0D"/>
<ellipse cx="168.552" cy="85.2593" rx="0.699388" ry="0.704595" fill="#0C0D0D"/>
<ellipse cx="174.547" cy="85.2593" rx="0.699388" ry="0.704595" fill="#0C0D0D"/>
<ellipse cx="180.542" cy="85.2593" rx="0.699388" ry="0.704595" fill="#0C0D0D"/>
<ellipse cx="186.537" cy="85.2593" rx="0.699388" ry="0.704595" fill="#0C0D0D"/>
<ellipse cx="192.531" cy="85.2593" rx="0.699388" ry="0.704595" fill="#0C0D0D"/>
<ellipse cx="198.526" cy="85.2593" rx="0.699388" ry="0.704595" fill="#0C0D0D"/>
<ellipse cx="204.521" cy="85.2593" rx="0.699388" ry="0.704595" fill="#0C0D0D"/>
<ellipse cx="210.516" cy="85.2593" rx="0.699388" ry="0.704595" fill="#0C0D0D"/>
<ellipse cx="216.51" cy="85.2593" rx="0.699388" ry="0.704595" fill="#0C0D0D"/>
<ellipse cx="222.505" cy="85.2593" rx="0.699388" ry="0.704595" fill="#0C0D0D"/>
<ellipse cx="228.5" cy="85.2593" rx="0.699388" ry="0.704595" fill="#0C0D0D"/>
<ellipse cx="234.495" cy="85.2593" rx="0.699388" ry="0.704595" fill="#0C0D0D"/>
<ellipse cx="240.489" cy="85.2593" rx="0.699388" ry="0.704595" fill="#0C0D0D"/>
<ellipse cx="246.484" cy="85.2593" rx="0.699388" ry="0.704595" fill="#0C0D0D"/>
<ellipse cx="252.479" cy="85.2593" rx="0.699388" ry="0.704595" fill="#0C0D0D"/>
<ellipse cx="258.474" cy="85.2593" rx="0.699388" ry="0.704595" fill="#0C0D0D"/>
<ellipse cx="264.468" cy="85.2593" rx="0.699388" ry="0.704595" fill="#0C0D0D"/>
<ellipse cx="270.463" cy="85.2593" rx="0.699388" ry="0.704595" fill="#0C0D0D"/>
<ellipse cx="276.458" cy="85.2593" rx="0.699388" ry="0.704595" fill="#0C0D0D"/>
<ellipse cx="282.453" cy="85.2593" rx="0.699388" ry="0.704595" fill="#0C0D0D"/>
<ellipse cx="288.447" cy="85.2593" rx="0.699388" ry="0.704595" fill="#0C0D0D"/>
<ellipse cx="294.442" cy="85.2593" rx="0.699388" ry="0.704595" fill="#0C0D0D"/>
<ellipse cx="300.437" cy="85.2593" rx="0.699388" ry="0.704595" fill="#0C0D0D"/>
<ellipse cx="306.432" cy="85.2593" rx="0.699388" ry="0.704595" fill="#0C0D0D"/>
<ellipse cx="312.426" cy="85.2593" rx="0.699388" ry="0.704595" fill="#0C0D0D"/>
<ellipse cx="318.421" cy="85.2593" rx="0.699388" ry="0.704595" fill="#0C0D0D"/>
<ellipse cx="324.416" cy="85.2593" rx="0.699388" ry="0.704595" fill="#0C0D0D"/>
<ellipse cx="330.411" cy="85.2593" rx="0.699388" ry="0.704595" fill="#0C0D0D"/>
<ellipse cx="336.405" cy="85.2593" rx="0.699388" ry="0.704595" fill="#0C0D0D"/>
<ellipse cx="342.4" cy="85.2593" rx="0.699388" ry="0.704595" fill="#0C0D0D"/>
<ellipse cx="348.395" cy="85.2593" rx="0.699388" ry="0.704595" fill="#0C0D0D"/>
<ellipse cx="354.39" cy="85.2593" rx="0.699388" ry="0.704595" fill="#0C0D0D"/>
<ellipse cx="360.384" cy="85.2593" rx="0.699388" ry="0.704595" fill="#0C0D0D"/>
<ellipse cx="366.379" cy="85.2593" rx="0.699388" ry="0.704595" fill="#0C0D0D"/>
<ellipse cx="372.374" cy="85.2593" rx="0.699388" ry="0.704595" fill="#0C0D0D"/>
<ellipse cx="378.369" cy="85.2593" rx="0.699388" ry="0.704595" fill="#0C0D0D"/>
<ellipse cx="384.363" cy="85.2593" rx="0.699388" ry="0.704595" fill="#0C0D0D"/>
<ellipse cx="390.358" cy="85.2593" rx="0.699388" ry="0.704595" fill="#0C0D0D"/>
<ellipse cx="396.353" cy="85.2593" rx="0.699388" ry="0.704595" fill="#0C0D0D"/>
<ellipse cx="402.348" cy="85.2593" rx="0.699388" ry="0.704595" fill="#0C0D0D"/>
<ellipse cx="408.342" cy="85.2593" rx="0.699388" ry="0.704595" fill="#0C0D0D"/>
<ellipse cx="414.337" cy="85.2593" rx="0.699388" ry="0.704595" fill="#0C0D0D"/>
<ellipse cx="420.332" cy="85.2593" rx="0.699388" ry="0.704595" fill="#0C0D0D"/>
<ellipse cx="426.327" cy="85.2593" rx="0.699388" ry="0.704595" fill="#0C0D0D"/>
<ellipse cx="432.321" cy="85.2593" rx="0.699388" ry="0.704595" fill="#0C0D0D"/>
<ellipse cx="438.316" cy="85.2593" rx="0.699388" ry="0.704595" fill="#0C0D0D"/>
<ellipse cx="444.311" cy="85.2593" rx="0.699388" ry="0.704595" fill="#0C0D0D"/>
<ellipse cx="450.306" cy="85.2593" rx="0.699388" ry="0.704595" fill="#0C0D0D"/>
<ellipse cx="456.3" cy="85.2593" rx="0.699388" ry="0.704595" fill="#0C0D0D"/>
<ellipse cx="0.699144" cy="91.2983" rx="0.699388" ry="0.704595" fill="#0C0D0D"/>
<ellipse cx="6.69402" cy="91.2983" rx="0.699388" ry="0.704595" fill="#0C0D0D"/>
<ellipse cx="12.6886" cy="91.2983" rx="0.699388" ry="0.704595" fill="#0C0D0D"/>
<ellipse cx="18.6835" cy="91.2983" rx="0.699388" ry="0.704595" fill="#0C0D0D"/>
<ellipse cx="24.6781" cy="91.2983" rx="0.699388" ry="0.704595" fill="#0C0D0D"/>
<ellipse cx="30.673" cy="91.2983" rx="0.699388" ry="0.704595" fill="#0C0D0D"/>
<ellipse cx="36.6676" cy="91.2983" rx="0.699388" ry="0.704595" fill="#0C0D0D"/>
<ellipse cx="42.6625" cy="91.2983" rx="0.699388" ry="0.704595" fill="#0C0D0D"/>
<ellipse cx="48.6572" cy="91.2983" rx="0.699388" ry="0.704595" fill="#0C0D0D"/>
<ellipse cx="54.652" cy="91.2983" rx="0.699388" ry="0.704595" fill="#0C0D0D"/>
<ellipse cx="60.6467" cy="91.2983" rx="0.699388" ry="0.704595" fill="#0C0D0D"/>
<ellipse cx="66.6415" cy="91.2983" rx="0.699388" ry="0.704595" fill="#0C0D0D"/>
<ellipse cx="72.6362" cy="91.2983" rx="0.699388" ry="0.704595" fill="#0C0D0D"/>
<ellipse cx="78.631" cy="91.2983" rx="0.699388" ry="0.704595" fill="#0C0D0D"/>
<ellipse cx="84.6257" cy="91.2983" rx="0.699388" ry="0.704595" fill="#0C0D0D"/>
<ellipse cx="90.6205" cy="91.2983" rx="0.699388" ry="0.704595" fill="#0C0D0D"/>
<ellipse cx="96.6152" cy="91.2983" rx="0.699388" ry="0.704595" fill="#0C0D0D"/>
<ellipse cx="102.61" cy="91.2983" rx="0.699388" ry="0.704595" fill="#0C0D0D"/>
<ellipse cx="108.605" cy="91.2983" rx="0.699388" ry="0.704595" fill="#0C0D0D"/>
<ellipse cx="114.6" cy="91.2983" rx="0.699388" ry="0.704595" fill="#0C0D0D"/>
<ellipse cx="120.594" cy="91.2983" rx="0.699388" ry="0.704595" fill="#0C0D0D"/>
<ellipse cx="126.589" cy="91.2983" rx="0.699388" ry="0.704595" fill="#0C0D0D"/>
<ellipse cx="132.584" cy="91.2983" rx="0.699388" ry="0.704595" fill="#0C0D0D"/>
<ellipse cx="138.579" cy="91.2983" rx="0.699388" ry="0.704595" fill="#0C0D0D"/>
<ellipse cx="144.573" cy="91.2983" rx="0.699388" ry="0.704595" fill="#0C0D0D"/>
<ellipse cx="150.568" cy="91.2983" rx="0.699388" ry="0.704595" fill="#0C0D0D"/>
<ellipse cx="156.563" cy="91.2983" rx="0.699388" ry="0.704595" fill="#0C0D0D"/>
<ellipse cx="162.558" cy="91.2983" rx="0.699388" ry="0.704595" fill="#0C0D0D"/>
<ellipse cx="168.552" cy="91.2983" rx="0.699388" ry="0.704595" fill="#0C0D0D"/>
<ellipse cx="174.547" cy="91.2983" rx="0.699388" ry="0.704595" fill="#0C0D0D"/>
<ellipse cx="180.542" cy="91.2983" rx="0.699388" ry="0.704595" fill="#0C0D0D"/>
<ellipse cx="186.537" cy="91.2983" rx="0.699388" ry="0.704595" fill="#0C0D0D"/>
<ellipse cx="192.531" cy="91.2983" rx="0.699388" ry="0.704595" fill="#0C0D0D"/>
<ellipse cx="198.526" cy="91.2983" rx="0.699388" ry="0.704595" fill="#0C0D0D"/>
<ellipse cx="204.521" cy="91.2983" rx="0.699388" ry="0.704595" fill="#0C0D0D"/>
<ellipse cx="210.516" cy="91.2983" rx="0.699388" ry="0.704595" fill="#0C0D0D"/>
<ellipse cx="216.51" cy="91.2983" rx="0.699388" ry="0.704595" fill="#0C0D0D"/>
<ellipse cx="222.505" cy="91.2983" rx="0.699388" ry="0.704595" fill="#0C0D0D"/>
<ellipse cx="228.5" cy="91.2983" rx="0.699388" ry="0.704595" fill="#0C0D0D"/>
<ellipse cx="234.495" cy="91.2983" rx="0.699388" ry="0.704595" fill="#0C0D0D"/>
<ellipse cx="240.489" cy="91.2983" rx="0.699388" ry="0.704595" fill="#0C0D0D"/>
<ellipse cx="246.484" cy="91.2983" rx="0.699388" ry="0.704595" fill="#0C0D0D"/>
<ellipse cx="252.479" cy="91.2983" rx="0.699388" ry="0.704595" fill="#0C0D0D"/>
<ellipse cx="258.474" cy="91.2983" rx="0.699388" ry="0.704595" fill="#0C0D0D"/>
<ellipse cx="264.468" cy="91.2983" rx="0.699388" ry="0.704595" fill="#0C0D0D"/>
<ellipse cx="270.463" cy="91.2983" rx="0.699388" ry="0.704595" fill="#0C0D0D"/>
<ellipse cx="276.458" cy="91.2983" rx="0.699388" ry="0.704595" fill="#0C0D0D"/>
<ellipse cx="282.453" cy="91.2983" rx="0.699388" ry="0.704595" fill="#0C0D0D"/>
<ellipse cx="288.447" cy="91.2983" rx="0.699388" ry="0.704595" fill="#0C0D0D"/>
<ellipse cx="294.442" cy="91.2983" rx="0.699388" ry="0.704595" fill="#0C0D0D"/>
<ellipse cx="300.437" cy="91.2983" rx="0.699388" ry="0.704595" fill="#0C0D0D"/>
<ellipse cx="306.432" cy="91.2983" rx="0.699388" ry="0.704595" fill="#0C0D0D"/>
<ellipse cx="312.426" cy="91.2983" rx="0.699388" ry="0.704595" fill="#0C0D0D"/>
<ellipse cx="318.421" cy="91.2983" rx="0.699388" ry="0.704595" fill="#0C0D0D"/>
<ellipse cx="324.416" cy="91.2983" rx="0.699388" ry="0.704595" fill="#0C0D0D"/>
<ellipse cx="330.411" cy="91.2983" rx="0.699388" ry="0.704595" fill="#0C0D0D"/>
<ellipse cx="336.405" cy="91.2983" rx="0.699388" ry="0.704595" fill="#0C0D0D"/>
<ellipse cx="342.4" cy="91.2983" rx="0.699388" ry="0.704595" fill="#0C0D0D"/>
<ellipse cx="348.395" cy="91.2983" rx="0.699388" ry="0.704595" fill="#0C0D0D"/>
<ellipse cx="354.39" cy="91.2983" rx="0.699388" ry="0.704595" fill="#0C0D0D"/>
<ellipse cx="360.384" cy="91.2983" rx="0.699388" ry="0.704595" fill="#0C0D0D"/>
<ellipse cx="366.379" cy="91.2983" rx="0.699388" ry="0.704595" fill="#0C0D0D"/>
<ellipse cx="372.374" cy="91.2983" rx="0.699388" ry="0.704595" fill="#0C0D0D"/>
<ellipse cx="378.369" cy="91.2983" rx="0.699388" ry="0.704595" fill="#0C0D0D"/>
<ellipse cx="384.363" cy="91.2983" rx="0.699388" ry="0.704595" fill="#0C0D0D"/>
<ellipse cx="390.358" cy="91.2983" rx="0.699388" ry="0.704595" fill="#0C0D0D"/>
<ellipse cx="396.353" cy="91.2983" rx="0.699388" ry="0.704595" fill="#0C0D0D"/>
<ellipse cx="402.348" cy="91.2983" rx="0.699388" ry="0.704595" fill="#0C0D0D"/>
<ellipse cx="408.342" cy="91.2983" rx="0.699388" ry="0.704595" fill="#0C0D0D"/>
<ellipse cx="414.337" cy="91.2983" rx="0.699388" ry="0.704595" fill="#0C0D0D"/>
<ellipse cx="420.332" cy="91.2983" rx="0.699388" ry="0.704595" fill="#0C0D0D"/>
<ellipse cx="426.327" cy="91.2983" rx="0.699388" ry="0.704595" fill="#0C0D0D"/>
<ellipse cx="432.321" cy="91.2983" rx="0.699388" ry="0.704595" fill="#0C0D0D"/>
<ellipse cx="438.316" cy="91.2983" rx="0.699388" ry="0.704595" fill="#0C0D0D"/>
<ellipse cx="444.311" cy="91.2983" rx="0.699388" ry="0.704595" fill="#0C0D0D"/>
<ellipse cx="450.306" cy="91.2983" rx="0.699388" ry="0.704595" fill="#0C0D0D"/>
<ellipse cx="456.3" cy="91.2983" rx="0.699388" ry="0.704595" fill="#0C0D0D"/>
</mask>
<g mask="url(#mask0_16141_14758)">
<g filter="url(#filter0_f_16141_14758)">
<ellipse cx="106.45" cy="35.0509" rx="106.45" ry="35.0509" transform="matrix(-0.555892 -0.831254 0.827413 -0.561594 463.048 247.547)" fill="#ADE0EB"/>
</g>
<g opacity="0.2" filter="url(#filter1_f_16141_14758)">
<ellipse cx="277.757" cy="3.01882" rx="105.907" ry="35.2298" fill="#ADE0EB"/>
</g>
</g>
<defs>
<filter id="filter0_f_16141_14758" x="302.96" y="-15.293" width="259.829" height="309.34" filterUnits="userSpaceOnUse" color-interpolation-filters="sRGB">
<feFlood flood-opacity="0" result="BackgroundImageFix"/>
<feBlend mode="normal" in="SourceGraphic" in2="BackgroundImageFix" result="shape"/>
<feGaussianBlur stdDeviation="32" result="effect1_foregroundBlur_16141_14758"/>
</filter>
<filter id="filter1_f_16141_14758" x="107.849" y="-96.2109" width="339.815" height="198.461" filterUnits="userSpaceOnUse" color-interpolation-filters="sRGB">
<feFlood flood-opacity="0" result="BackgroundImageFix"/>
<feBlend mode="normal" in="SourceGraphic" in2="BackgroundImageFix" result="shape"/>
<feGaussianBlur stdDeviation="32" result="effect1_foregroundBlur_16141_14758"/>
</filter>
</defs>
</svg>
