<svg width="32" height="32" viewBox="0 0 32 32" fill="none" xmlns="http://www.w3.org/2000/svg">
<g clip-path="url(#clip0_16141_17304)">
<path d="M24.6664 28C26.6113 28 28.4766 27.2274 29.8519 25.8521C31.2271 24.4768 31.9998 22.6116 31.9998 20.6667C31.9998 18.7217 31.2271 16.8565 29.8519 15.4812C28.4766 14.106 26.6113 13.3333 24.6664 13.3333C24.4551 13.3333 24.2478 13.3473 24.0411 13.3653C24.4046 10.1576 25.4959 7.07522 27.2318 4.35333C27.2948 4.25242 27.3297 4.13646 27.3329 4.0175C27.336 3.89854 27.3072 3.78091 27.2495 3.67682C27.1918 3.57274 27.1073 3.48599 27.0048 3.42559C26.9023 3.36519 26.7854 3.33333 26.6664 3.33333H25.3331C25.2427 3.33331 25.1532 3.35168 25.0701 3.38733C24.987 3.42297 24.912 3.47514 24.8498 3.54067C21.4211 7.14734 17.3331 13.046 17.3331 20.6667C17.3354 22.6109 18.1087 24.4748 19.4835 25.8496C20.8583 27.2244 22.7222 27.9977 24.6664 28Z" fill="#00E599"/>
<path d="M7.33048 28C9.27541 28 11.1407 27.2274 12.5159 25.8521C13.8912 24.4768 14.6638 22.6116 14.6638 20.6667C14.6638 18.7217 13.8912 16.8565 12.5159 15.4812C11.1407 14.106 9.27541 13.3333 7.33048 13.3333C7.11915 13.3333 6.91182 13.3473 6.70515 13.3653C7.06867 10.1576 8.15997 7.07522 9.89582 4.35333C9.95889 4.25242 9.9938 4.13646 9.99692 4.0175C10 3.89854 9.97127 3.78091 9.91358 3.67682C9.85589 3.57274 9.77139 3.48599 9.66886 3.42559C9.56632 3.36519 9.44949 3.33333 9.33048 3.33333H7.99715C7.90674 3.33331 7.81727 3.35168 7.73418 3.38733C7.65109 3.42297 7.57611 3.47514 7.51382 3.54067C4.08515 7.14734 -0.00284863 13.046 -0.00284863 20.6667C-0.000555038 22.6109 0.772798 24.4748 2.14757 25.8496C3.52234 27.2244 5.38627 27.9977 7.33048 28Z" fill="#00E599"/>
</g>
<defs>
<clipPath id="clip0_16141_17304">
<rect width="32" height="32" fill="white" transform="matrix(-1 0 0 -1 31.9998 32)"/>
</clipPath>
</defs>
</svg>
