<svg xmlns="http://www.w3.org/2000/svg" width="390" height="140" viewBox="0 0 390 140" fill="none">
  <g opacity="0.6" filter="url(#filter0_f_15394_23211)">
    <path d="M34 43.931C34 38.4463 38.4463 34 43.931 34H346.069C351.554 34 356 38.4463 356 43.931V43.931C356 78.2108 328.211 106 293.931 106H96.069C61.7892 106 34 78.2108 34 43.931V43.931Z" fill="url(#paint0_linear_15394_23211)"/>
    <path d="M43.931 34.5H346.069C351.278 34.5 355.5 38.7224 355.5 43.931C355.5 77.9346 327.935 105.5 293.931 105.5H96.069C62.0654 105.5 34.5 77.9346 34.5 43.931C34.5 38.7224 38.7224 34.5 43.931 34.5Z" stroke="#0C0D0D"/>
  </g>
  <defs>
    <filter id="filter0_f_15394_23211" x="0" y="0" width="390" height="140" filterUnits="userSpaceOnUse" color-interpolation-filters="sRGB">
      <feFlood flood-opacity="0" result="BackgroundImageFix"/>
      <feBlend mode="normal" in="SourceGraphic" in2="BackgroundImageFix" result="shape"/>
      <feGaussianBlur stdDeviation="17" result="effect1_foregroundBlur_15394_23211"/>
    </filter>
    <linearGradient id="paint0_linear_15394_23211" x1="200.963" y1="34" x2="200.963" y2="126" gradientUnits="userSpaceOnUse">
      <stop offset="0.789474"/>
      <stop offset="1" stop-opacity="0"/>
    </linearGradient>
  </defs>
</svg>