<svg width="464" height="298" viewBox="0 0 464 298" fill="none" xmlns="http://www.w3.org/2000/svg">
<path d="M0.5 10C0.5 4.7533 4.7533 0.5 10 0.5H454C459.247 0.5 463.5 4.75329 463.5 10V288C463.5 293.247 459.247 297.5 454 297.5H10C4.7533 297.5 0.5 293.247 0.5 288V10Z" fill="black" stroke="#464444"/>
<path d="M25.0771 72.7939H26.376L21.0029 84.2988H19.6973L25.0771 72.7939ZM33.9327 72.7939H35.2315L29.8585 84.2988H28.5528L33.9327 72.7939ZM50.4817 80.2314C50.4817 80.7965 50.5842 81.2227 50.7893 81.5098C50.9989 81.7969 51.3065 81.9404 51.7121 81.9404H53.1819V83H51.5891C50.8371 83 50.2538 82.7607 49.8391 82.2822C49.4289 81.7992 49.2239 81.1156 49.2239 80.2314V73.3066H47.2073V72.3223H50.4817V80.2314ZM59.221 79.1514H58.804C58.0703 79.1514 57.5166 79.2812 57.1429 79.541C56.7738 79.7962 56.5892 80.179 56.5892 80.6895C56.5892 81.1497 56.7282 81.5075 57.0062 81.7627C57.2842 82.0179 57.6693 82.1455 58.1614 82.1455C58.8542 82.1455 59.3988 81.9062 59.7952 81.4277C60.1917 80.9447 60.3922 80.2793 60.3968 79.4316V79.1514H59.221ZM61.6614 78.6318V83H60.3968V81.8652C60.1279 82.321 59.7884 82.6582 59.3782 82.877C58.9726 83.0911 58.4782 83.1982 57.8948 83.1982C57.1155 83.1982 56.4935 82.9795 56.0286 82.542C55.5638 82.0999 55.3314 81.5098 55.3314 80.7715C55.3314 79.9193 55.6162 79.2721 56.1859 78.8301C56.7601 78.388 57.6009 78.167 58.7083 78.167H60.3968V77.9688C60.3922 77.3581 60.2373 76.916 59.932 76.6426C59.6266 76.3646 59.139 76.2256 58.4691 76.2256C58.0407 76.2256 57.6077 76.2871 57.1702 76.4102C56.7327 76.5332 56.3066 76.7132 55.8919 76.9502V75.6924C56.3568 75.5146 56.8011 75.3825 57.2249 75.2959C57.6533 75.2048 58.068 75.1592 58.4691 75.1592C59.1025 75.1592 59.6426 75.2526 60.0892 75.4395C60.5404 75.6263 60.9049 75.9066 61.1829 76.2803C61.3561 76.5081 61.4792 76.7907 61.5521 77.1279C61.625 77.4606 61.6614 77.9619 61.6614 78.6318ZM64.6107 80.1016V75.3574H65.8686V80.1016C65.8686 80.7897 65.9893 81.2956 66.2309 81.6191C66.477 81.9427 66.8552 82.1045 67.3656 82.1045C67.9581 82.1045 68.4115 81.8971 68.726 81.4824C69.0404 81.0632 69.1977 80.4639 69.1977 79.6846V75.3574H70.4623V83H69.1977V81.8516C68.9743 82.2936 68.669 82.6286 68.2816 82.8564C67.8988 83.0843 67.4499 83.1982 66.935 83.1982C66.1511 83.1982 65.5678 82.943 65.185 82.4326C64.8021 81.9176 64.6107 81.1406 64.6107 80.1016ZM79.3862 82.6104C79.049 82.8063 78.7003 82.9521 78.3403 83.0479C77.9848 83.1481 77.6203 83.1982 77.2466 83.1982C76.0617 83.1982 75.1343 82.8428 74.4643 82.1318C73.799 81.4209 73.4663 80.4365 73.4663 79.1787C73.4663 77.9209 73.799 76.9365 74.4643 76.2256C75.1343 75.5146 76.0617 75.1592 77.2466 75.1592C77.6157 75.1592 77.9757 75.207 78.3266 75.3027C78.6776 75.3984 79.0307 75.5465 79.3862 75.7471V77.0664C79.0535 76.7702 78.7186 76.556 78.3813 76.4238C78.0486 76.2917 77.6704 76.2256 77.2466 76.2256C76.4582 76.2256 75.852 76.4808 75.4282 76.9912C75.0044 77.5016 74.7925 78.2308 74.7925 79.1787C74.7925 80.1221 75.0044 80.8512 75.4282 81.3662C75.8566 81.8766 76.4627 82.1318 77.2466 82.1318C77.6841 82.1318 78.076 82.0658 78.4223 81.9336C78.7687 81.7969 79.09 81.5872 79.3862 81.3047V82.6104ZM88.1734 78.2559V83H86.9087V78.2559C86.9087 77.5677 86.788 77.0618 86.5464 76.7383C86.3049 76.4147 85.9267 76.2529 85.4117 76.2529C84.8238 76.2529 84.3703 76.4626 84.0513 76.8818C83.7369 77.2965 83.5796 77.8936 83.5796 78.6729V83H82.3218V72.3633H83.5796V76.4922C83.803 76.0547 84.106 75.7243 84.4888 75.501C84.8716 75.2731 85.3251 75.1592 85.8492 75.1592C86.6285 75.1592 87.2095 75.4167 87.5923 75.9316C87.9797 76.4421 88.1734 77.2168 88.1734 78.2559ZM103.499 79.1514H103.082C102.348 79.1514 101.794 79.2812 101.421 79.541C101.051 79.7962 100.867 80.179 100.867 80.6895C100.867 81.1497 101.006 81.5075 101.284 81.7627C101.562 82.0179 101.947 82.1455 102.439 82.1455C103.132 82.1455 103.676 81.9062 104.073 81.4277C104.469 80.9447 104.67 80.2793 104.675 79.4316V79.1514H103.499ZM105.939 78.6318V83H104.675V81.8652C104.406 82.321 104.066 82.6582 103.656 82.877C103.25 83.0911 102.756 83.1982 102.173 83.1982C101.393 83.1982 100.771 82.9795 100.306 82.542C99.8415 82.0999 99.6091 81.5098 99.6091 80.7715C99.6091 79.9193 99.8939 79.2721 100.464 78.8301C101.038 78.388 101.879 78.167 102.986 78.167H104.675V77.9688C104.67 77.3581 104.515 76.916 104.21 76.6426C103.904 76.3646 103.417 76.2256 102.747 76.2256C102.318 76.2256 101.885 76.2871 101.448 76.4102C101.01 76.5332 100.584 76.7132 100.17 76.9502V75.6924C100.634 75.5146 101.079 75.3825 101.503 75.2959C101.931 75.2048 102.346 75.1592 102.747 75.1592C103.38 75.1592 103.92 75.2526 104.367 75.4395C104.818 75.6263 105.183 75.9066 105.461 76.2803C105.634 76.5081 105.757 76.7907 105.83 77.1279C105.903 77.4606 105.939 77.9619 105.939 78.6318ZM122.276 76.3213V72.3633H123.534V83H122.276V82.0361C122.067 82.4144 121.786 82.7038 121.435 82.9043C121.089 83.1003 120.688 83.1982 120.232 83.1982C119.307 83.1982 118.578 82.8405 118.045 82.125C117.516 81.4049 117.252 80.4137 117.252 79.1514C117.252 77.9072 117.518 76.932 118.052 76.2256C118.585 75.5146 119.312 75.1592 120.232 75.1592C120.693 75.1592 121.098 75.2594 121.449 75.46C121.8 75.6559 122.076 75.943 122.276 76.3213ZM118.578 79.1787C118.578 80.154 118.733 80.89 119.043 81.3867C119.353 81.8835 119.811 82.1318 120.417 82.1318C121.023 82.1318 121.483 81.8812 121.798 81.3799C122.117 80.8786 122.276 80.1449 122.276 79.1787C122.276 78.208 122.117 77.4743 121.798 76.9775C121.483 76.4762 121.023 76.2256 120.417 76.2256C119.811 76.2256 119.353 76.474 119.043 76.9707C118.733 77.4674 118.578 78.2035 118.578 79.1787ZM132.923 78.543V79.1582H127.475V79.1992C127.438 80.2428 127.636 80.9925 128.069 81.4482C128.507 81.904 129.122 82.1318 129.915 82.1318C130.316 82.1318 130.735 82.068 131.173 81.9404C131.61 81.8128 132.077 81.6191 132.574 81.3594V82.6104C132.096 82.8063 131.633 82.9521 131.186 83.0479C130.744 83.1481 130.316 83.1982 129.901 83.1982C128.712 83.1982 127.782 82.8428 127.112 82.1318C126.442 81.4163 126.107 80.432 126.107 79.1787C126.107 77.9574 126.436 76.9821 127.092 76.2529C127.748 75.5238 128.623 75.1592 129.717 75.1592C130.692 75.1592 131.46 75.4896 132.02 76.1504C132.586 76.8112 132.886 77.6087 132.923 78.543ZM131.665 78.1738C131.61 77.6452 131.417 77.1895 131.084 76.8066C130.756 76.4193 130.282 76.2256 129.662 76.2256C129.056 76.2256 128.557 76.4261 128.165 76.8271C127.773 77.2282 127.559 77.6794 127.522 78.1807L131.665 78.1738ZM138.743 76.123C138.898 75.7949 139.094 75.5534 139.331 75.3984C139.573 75.2389 139.862 75.1592 140.199 75.1592C140.814 75.1592 141.247 75.3984 141.498 75.877C141.753 76.3509 141.881 77.2464 141.881 78.5635V83H140.732V78.6182C140.732 77.5381 140.671 76.8682 140.548 76.6084C140.429 76.3441 140.211 76.2119 139.892 76.2119C139.527 76.2119 139.276 76.3532 139.14 76.6357C139.008 76.9137 138.941 77.5745 138.941 78.6182V83H137.793V78.6182C137.793 77.5244 137.727 76.8499 137.595 76.5947C137.467 76.3395 137.235 76.2119 136.897 76.2119C136.565 76.2119 136.332 76.3532 136.2 76.6357C136.073 76.9137 136.009 77.5745 136.009 78.6182V83H134.867V75.3438H136.009V76C136.159 75.7266 136.346 75.5192 136.569 75.3779C136.797 75.2321 137.055 75.1592 137.342 75.1592C137.688 75.1592 137.975 75.2389 138.203 75.3984C138.436 75.5579 138.616 75.7995 138.743 76.123ZM147.189 76.2256C146.551 76.2256 146.067 76.474 145.739 76.9707C145.411 77.4674 145.247 78.2035 145.247 79.1787C145.247 80.1494 145.411 80.8854 145.739 81.3867C146.067 81.8835 146.551 82.1318 147.189 82.1318C147.831 82.1318 148.317 81.8835 148.645 81.3867C148.973 80.8854 149.137 80.1494 149.137 79.1787C149.137 78.2035 148.973 77.4674 148.645 76.9707C148.317 76.474 147.831 76.2256 147.189 76.2256ZM147.189 75.1592C148.25 75.1592 149.062 75.5033 149.622 76.1914C150.187 76.8796 150.47 77.8753 150.47 79.1787C150.47 80.4867 150.19 81.4847 149.629 82.1729C149.068 82.8564 148.255 83.1982 147.189 83.1982C146.127 83.1982 145.316 82.8564 144.755 82.1729C144.194 81.4847 143.914 80.4867 143.914 79.1787C143.914 77.8753 144.194 76.8796 144.755 76.1914C145.316 75.5033 146.127 75.1592 147.189 75.1592ZM163.252 82.0361V85.9121H161.988V75.3438H163.252V76.3213C163.462 75.943 163.74 75.6559 164.086 75.46C164.437 75.2594 164.84 75.1592 165.296 75.1592C166.221 75.1592 166.946 75.5169 167.47 76.2324C167.999 76.9479 168.263 77.9391 168.263 79.2061C168.263 80.4502 167.999 81.4277 167.47 82.1387C166.941 82.8451 166.217 83.1982 165.296 83.1982C164.831 83.1982 164.423 83.1003 164.073 82.9043C163.726 82.7038 163.453 82.4144 163.252 82.0361ZM166.944 79.1787C166.944 78.2035 166.789 77.4674 166.479 76.9707C166.173 76.474 165.718 76.2256 165.112 76.2256C164.501 76.2256 164.038 76.4762 163.724 76.9775C163.409 77.4743 163.252 78.208 163.252 79.1787C163.252 80.1449 163.409 80.8786 163.724 81.3799C164.038 81.8812 164.501 82.1318 165.112 82.1318C165.718 82.1318 166.173 81.8835 166.479 81.3867C166.789 80.89 166.944 80.154 166.944 79.1787ZM173.755 76.2256C173.117 76.2256 172.634 76.474 172.306 76.9707C171.978 77.4674 171.814 78.2035 171.814 79.1787C171.814 80.1494 171.978 80.8854 172.306 81.3867C172.634 81.8835 173.117 82.1318 173.755 82.1318C174.398 82.1318 174.883 81.8835 175.211 81.3867C175.539 80.8854 175.703 80.1494 175.703 79.1787C175.703 78.2035 175.539 77.4674 175.211 76.9707C174.883 76.474 174.398 76.2256 173.755 76.2256ZM173.755 75.1592C174.817 75.1592 175.628 75.5033 176.189 76.1914C176.754 76.8796 177.036 77.8753 177.036 79.1787C177.036 80.4867 176.756 81.4847 176.196 82.1729C175.635 82.8564 174.822 83.1982 173.755 83.1982C172.693 83.1982 171.882 82.8564 171.322 82.1729C170.761 81.4847 170.481 80.4867 170.481 79.1787C170.481 77.8753 170.761 76.8796 171.322 76.1914C171.882 75.5033 172.693 75.1592 173.755 75.1592ZM185.051 75.6104V76.8408C184.691 76.6312 184.329 76.474 183.964 76.3691C183.6 76.2643 183.228 76.2119 182.85 76.2119C182.28 76.2119 181.854 76.3053 181.572 76.4922C181.294 76.6745 181.155 76.9548 181.155 77.333C181.155 77.6748 181.26 77.93 181.469 78.0986C181.679 78.2673 182.201 78.4313 183.035 78.5908L183.54 78.6865C184.165 78.805 184.636 79.042 184.956 79.3975C185.279 79.7529 185.441 80.2155 185.441 80.7852C185.441 81.5417 185.172 82.1341 184.634 82.5625C184.096 82.9863 183.349 83.1982 182.392 83.1982C182.014 83.1982 181.617 83.1572 181.203 83.0752C180.788 82.9977 180.339 82.8792 179.856 82.7197V81.4209C180.325 81.6624 180.774 81.8447 181.203 81.9678C181.631 82.0863 182.037 82.1455 182.419 82.1455C182.975 82.1455 183.406 82.0339 183.711 81.8105C184.017 81.5827 184.169 81.266 184.169 80.8604C184.169 80.277 183.611 79.8737 182.495 79.6504L182.44 79.6367L181.968 79.541C181.244 79.3997 180.715 79.1628 180.382 78.8301C180.05 78.4928 179.883 78.0348 179.883 77.4561C179.883 76.7223 180.132 76.1572 180.628 75.7607C181.125 75.3597 181.834 75.1592 182.754 75.1592C183.164 75.1592 183.559 75.1979 183.937 75.2754C184.315 75.3483 184.687 75.46 185.051 75.6104ZM191.453 73.1699V75.3438H194.31V76.3213H191.453V80.4775C191.453 81.0426 191.56 81.4368 191.774 81.6602C191.988 81.8835 192.362 81.9951 192.895 81.9951H194.31V83H192.772C191.829 83 191.163 82.8109 190.776 82.4326C190.389 82.0544 190.195 81.4027 190.195 80.4775V76.3213H188.151V75.3438H190.195V73.1699H191.453ZM201.976 79.1104C201.976 78.167 201.821 77.4515 201.511 76.9639C201.206 76.4717 200.759 76.2256 200.171 76.2256C199.556 76.2256 199.087 76.4717 198.763 76.9639C198.44 77.4515 198.278 78.167 198.278 79.1104C198.278 80.0537 198.44 80.7738 198.763 81.2705C199.091 81.7627 199.565 82.0088 200.185 82.0088C200.764 82.0088 201.206 81.7604 201.511 81.2637C201.821 80.7669 201.976 80.0492 201.976 79.1104ZM203.234 82.5078C203.234 83.6562 202.963 84.5267 202.421 85.1191C201.878 85.7116 201.081 86.0078 200.028 86.0078C199.682 86.0078 199.319 85.9759 198.941 85.9121C198.563 85.8483 198.184 85.7549 197.806 85.6318V84.3877C198.253 84.5973 198.658 84.7523 199.023 84.8525C199.388 84.9528 199.723 85.0029 200.028 85.0029C200.707 85.0029 201.201 84.8184 201.511 84.4492C201.821 84.0801 201.976 83.4945 201.976 82.6924V82.6377V81.7832C201.776 82.2116 201.502 82.5306 201.156 82.7402C200.809 82.9499 200.388 83.0547 199.891 83.0547C198.998 83.0547 198.285 82.6969 197.752 81.9814C197.218 81.266 196.952 80.3089 196.952 79.1104C196.952 77.9072 197.218 76.9479 197.752 76.2324C198.285 75.5169 198.998 75.1592 199.891 75.1592C200.383 75.1592 200.8 75.2572 201.142 75.4531C201.484 75.6491 201.762 75.9521 201.976 76.3623V75.3711H203.234V82.5078ZM212.862 76.9229C212.593 76.7132 212.32 76.5605 212.042 76.4648C211.764 76.3691 211.458 76.3213 211.126 76.3213C210.342 76.3213 209.743 76.5674 209.328 77.0596C208.913 77.5518 208.706 78.2627 208.706 79.1924V83H207.441V75.3438H208.706V76.8408C208.915 76.2985 209.237 75.8838 209.67 75.5967C210.107 75.305 210.624 75.1592 211.221 75.1592C211.531 75.1592 211.821 75.1979 212.09 75.2754C212.358 75.3529 212.616 75.4736 212.862 75.6377V76.9229ZM221.478 78.543V79.1582H216.03V79.1992C215.994 80.2428 216.192 80.9925 216.625 81.4482C217.062 81.904 217.678 82.1318 218.47 82.1318C218.872 82.1318 219.291 82.068 219.728 81.9404C220.166 81.8128 220.633 81.6191 221.13 81.3594V82.6104C220.651 82.8063 220.189 82.9521 219.742 83.0479C219.3 83.1481 218.872 83.1982 218.457 83.1982C217.267 83.1982 216.338 82.8428 215.668 82.1318C214.998 81.4163 214.663 80.432 214.663 79.1787C214.663 77.9574 214.991 76.9821 215.647 76.2529C216.303 75.5238 217.178 75.1592 218.272 75.1592C219.247 75.1592 220.015 75.4896 220.576 76.1504C221.141 76.8112 221.442 77.6087 221.478 78.543ZM220.22 78.1738C220.166 77.6452 219.972 77.1895 219.639 76.8066C219.311 76.4193 218.837 76.2256 218.218 76.2256C217.611 76.2256 217.112 76.4261 216.72 76.8271C216.329 77.2282 216.114 77.6794 216.078 78.1807L220.22 78.1738ZM229.329 75.6104V76.8408C228.969 76.6312 228.607 76.474 228.242 76.3691C227.877 76.2643 227.506 76.2119 227.128 76.2119C226.558 76.2119 226.132 76.3053 225.849 76.4922C225.571 76.6745 225.432 76.9548 225.432 77.333C225.432 77.6748 225.537 77.93 225.747 78.0986C225.957 78.2673 226.478 78.4313 227.312 78.5908L227.818 78.6865C228.443 78.805 228.914 79.042 229.233 79.3975C229.557 79.7529 229.719 80.2155 229.719 80.7852C229.719 81.5417 229.45 82.1341 228.912 82.5625C228.374 82.9863 227.627 83.1982 226.67 83.1982C226.292 83.1982 225.895 83.1572 225.48 83.0752C225.066 82.9977 224.617 82.8792 224.134 82.7197V81.4209C224.603 81.6624 225.052 81.8447 225.48 81.9678C225.909 82.0863 226.314 82.1455 226.697 82.1455C227.253 82.1455 227.684 82.0339 227.989 81.8105C228.294 81.5827 228.447 81.266 228.447 80.8604C228.447 80.277 227.889 79.8737 226.772 79.6504L226.718 79.6367L226.246 79.541C225.521 79.3997 224.993 79.1628 224.66 78.8301C224.327 78.4928 224.161 78.0348 224.161 77.4561C224.161 76.7223 224.409 76.1572 224.906 75.7607C225.403 75.3597 226.112 75.1592 227.032 75.1592C227.442 75.1592 227.836 75.1979 228.215 75.2754C228.593 75.3483 228.964 75.46 229.329 75.6104ZM246.254 76.3213V72.3633H247.512V83H246.254V82.0361C246.044 82.4144 245.764 82.7038 245.413 82.9043C245.067 83.1003 244.666 83.1982 244.21 83.1982C243.285 83.1982 242.556 82.8405 242.022 82.125C241.494 81.4049 241.229 80.4137 241.229 79.1514C241.229 77.9072 241.496 76.932 242.029 76.2256C242.562 75.5146 243.289 75.1592 244.21 75.1592C244.67 75.1592 245.076 75.2594 245.427 75.46C245.778 75.6559 246.053 75.943 246.254 76.3213ZM242.556 79.1787C242.556 80.154 242.711 80.89 243.021 81.3867C243.33 81.8835 243.788 82.1318 244.395 82.1318C245.001 82.1318 245.461 81.8812 245.775 81.3799C246.094 80.8786 246.254 80.1449 246.254 79.1787C246.254 78.208 246.094 77.4743 245.775 76.9775C245.461 76.4762 245.001 76.2256 244.395 76.2256C243.788 76.2256 243.33 76.474 243.021 76.9707C242.711 77.4674 242.556 78.2035 242.556 79.1787ZM254.043 79.1514H253.626C252.892 79.1514 252.339 79.2812 251.965 79.541C251.596 79.7962 251.411 80.179 251.411 80.6895C251.411 81.1497 251.55 81.5075 251.828 81.7627C252.106 82.0179 252.491 82.1455 252.983 82.1455C253.676 82.1455 254.221 81.9062 254.617 81.4277C255.014 80.9447 255.214 80.2793 255.219 79.4316V79.1514H254.043ZM256.483 78.6318V83H255.219V81.8652C254.95 82.321 254.61 82.6582 254.2 82.877C253.795 83.0911 253.3 83.1982 252.717 83.1982C251.938 83.1982 251.316 82.9795 250.851 82.542C250.386 82.0999 250.153 81.5098 250.153 80.7715C250.153 79.9193 250.438 79.2721 251.008 78.8301C251.582 78.388 252.423 78.167 253.53 78.167H255.219V77.9688C255.214 77.3581 255.059 76.916 254.754 76.6426C254.449 76.3646 253.961 76.2256 253.291 76.2256C252.863 76.2256 252.43 76.2871 251.992 76.4102C251.555 76.5332 251.129 76.7132 250.714 76.9502V75.6924C251.179 75.5146 251.623 75.3825 252.047 75.2959C252.475 75.2048 252.89 75.1592 253.291 75.1592C253.925 75.1592 254.465 75.2526 254.911 75.4395C255.362 75.6263 255.727 75.9066 256.005 76.2803C256.178 76.5081 256.301 76.7907 256.374 77.1279C256.447 77.4606 256.483 77.9619 256.483 78.6318ZM262.297 73.1699V75.3438H265.154V76.3213H262.297V80.4775C262.297 81.0426 262.404 81.4368 262.618 81.6602C262.833 81.8835 263.206 81.9951 263.739 81.9951H265.154V83H263.616C262.673 83 262.008 82.8109 261.62 82.4326C261.233 82.0544 261.039 81.4027 261.039 80.4775V76.3213H258.995V75.3438H261.039V73.1699H262.297ZM271.754 79.1514H271.337C270.603 79.1514 270.05 79.2812 269.676 79.541C269.307 79.7962 269.122 80.179 269.122 80.6895C269.122 81.1497 269.261 81.5075 269.539 81.7627C269.817 82.0179 270.202 82.1455 270.695 82.1455C271.387 82.1455 271.932 81.9062 272.328 81.4277C272.725 80.9447 272.925 80.2793 272.93 79.4316V79.1514H271.754ZM274.195 78.6318V83H272.93V81.8652C272.661 82.321 272.322 82.6582 271.911 82.877C271.506 83.0911 271.011 83.1982 270.428 83.1982C269.649 83.1982 269.027 82.9795 268.562 82.542C268.097 82.0999 267.864 81.5098 267.864 80.7715C267.864 79.9193 268.149 79.2721 268.719 78.8301C269.293 78.388 270.134 78.167 271.241 78.167H272.93V77.9688C272.925 77.3581 272.77 76.916 272.465 76.6426C272.16 76.3646 271.672 76.2256 271.002 76.2256C270.574 76.2256 270.141 76.2871 269.703 76.4102C269.266 76.5332 268.84 76.7132 268.425 76.9502V75.6924C268.89 75.5146 269.334 75.3825 269.758 75.2959C270.186 75.2048 270.601 75.1592 271.002 75.1592C271.636 75.1592 272.176 75.2526 272.622 75.4395C273.073 75.6263 273.438 75.9066 273.716 76.2803C273.889 76.5081 274.012 76.7907 274.085 77.1279C274.158 77.4606 274.195 77.9619 274.195 78.6318ZM282.086 79.1787C282.086 78.2035 281.931 77.4674 281.621 76.9707C281.312 76.474 280.853 76.2256 280.247 76.2256C279.637 76.2256 279.174 76.4762 278.86 76.9775C278.545 77.4743 278.388 78.208 278.388 79.1787C278.388 80.1449 278.545 80.8786 278.86 81.3799C279.174 81.8812 279.637 82.1318 280.247 82.1318C280.853 82.1318 281.312 81.8835 281.621 81.3867C281.931 80.89 282.086 80.154 282.086 79.1787ZM278.388 76.3213C278.589 75.9476 278.864 75.6605 279.215 75.46C279.571 75.2594 279.981 75.1592 280.446 75.1592C281.366 75.1592 282.091 75.5146 282.619 76.2256C283.148 76.932 283.412 77.9072 283.412 79.1514C283.412 80.4137 283.146 81.4049 282.613 82.125C282.084 82.8405 281.357 83.1982 280.432 83.1982C279.976 83.1982 279.573 83.1003 279.222 82.9043C278.876 82.7038 278.598 82.4144 278.388 82.0361V83H277.13V72.3633H278.388V76.3213ZM289.465 79.1514H289.048C288.315 79.1514 287.761 79.2812 287.387 79.541C287.018 79.7962 286.833 80.179 286.833 80.6895C286.833 81.1497 286.972 81.5075 287.25 81.7627C287.528 82.0179 287.913 82.1455 288.406 82.1455C289.098 82.1455 289.643 81.9062 290.039 81.4277C290.436 80.9447 290.636 80.2793 290.641 79.4316V79.1514H289.465ZM291.906 78.6318V83H290.641V81.8652C290.372 82.321 290.033 82.6582 289.622 82.877C289.217 83.0911 288.722 83.1982 288.139 83.1982C287.36 83.1982 286.738 82.9795 286.273 82.542C285.808 82.0999 285.576 81.5098 285.576 80.7715C285.576 79.9193 285.86 79.2721 286.43 78.8301C287.004 78.388 287.845 78.167 288.953 78.167H290.641V77.9688C290.636 77.3581 290.482 76.916 290.176 76.6426C289.871 76.3646 289.383 76.2256 288.713 76.2256C288.285 76.2256 287.852 76.2871 287.414 76.4102C286.977 76.5332 286.551 76.7132 286.136 76.9502V75.6924C286.601 75.5146 287.045 75.3825 287.469 75.2959C287.898 75.2048 288.312 75.1592 288.713 75.1592C289.347 75.1592 289.887 75.2526 290.333 75.4395C290.785 75.6263 291.149 75.9066 291.427 76.2803C291.6 76.5081 291.723 76.7907 291.796 77.1279C291.869 77.4606 291.906 77.9619 291.906 78.6318ZM300.173 75.6104V76.8408C299.813 76.6312 299.451 76.474 299.086 76.3691C298.722 76.2643 298.35 76.2119 297.972 76.2119C297.402 76.2119 296.976 76.3053 296.694 76.4922C296.416 76.6745 296.277 76.9548 296.277 77.333C296.277 77.6748 296.382 77.93 296.591 78.0986C296.801 78.2673 297.323 78.4313 298.157 78.5908L298.663 78.6865C299.287 78.805 299.759 79.042 300.078 79.3975C300.401 79.7529 300.563 80.2155 300.563 80.7852C300.563 81.5417 300.294 82.1341 299.756 82.5625C299.219 82.9863 298.471 83.1982 297.514 83.1982C297.136 83.1982 296.739 83.1572 296.325 83.0752C295.91 82.9977 295.461 82.8792 294.978 82.7197V81.4209C295.447 81.6624 295.896 81.8447 296.325 81.9678C296.753 82.0863 297.159 82.1455 297.541 82.1455C298.097 82.1455 298.528 82.0339 298.833 81.8105C299.139 81.5827 299.291 81.266 299.291 80.8604C299.291 80.277 298.733 79.8737 297.617 79.6504L297.562 79.6367L297.09 79.541C296.366 79.3997 295.837 79.1628 295.504 78.8301C295.172 78.4928 295.005 78.0348 295.005 77.4561C295.005 76.7223 295.254 76.1572 295.75 75.7607C296.247 75.3597 296.956 75.1592 297.876 75.1592C298.287 75.1592 298.681 75.1979 299.059 75.2754C299.437 75.3483 299.809 75.46 300.173 75.6104ZM310.034 78.543V79.1582H304.586V79.1992C304.549 80.2428 304.747 80.9925 305.18 81.4482C305.618 81.904 306.233 82.1318 307.026 82.1318C307.427 82.1318 307.846 82.068 308.284 81.9404C308.721 81.8128 309.188 81.6191 309.685 81.3594V82.6104C309.207 82.8063 308.744 82.9521 308.297 83.0479C307.855 83.1481 307.427 83.1982 307.012 83.1982C305.823 83.1982 304.893 82.8428 304.223 82.1318C303.553 81.4163 303.218 80.432 303.218 79.1787C303.218 77.9574 303.546 76.9821 304.203 76.2529C304.859 75.5238 305.734 75.1592 306.828 75.1592C307.803 75.1592 308.571 75.4896 309.131 76.1504C309.697 76.8112 309.997 77.6087 310.034 78.543ZM308.776 78.1738C308.721 77.6452 308.528 77.1895 308.195 76.8066C307.867 76.4193 307.393 76.2256 306.773 76.2256C306.167 76.2256 305.668 76.4261 305.276 76.8271C304.884 77.2282 304.67 77.6794 304.633 78.1807L308.776 78.1738ZM20.5518 100.33H26.1094V101.479L21.7139 106.975H26.1094V108H20.3877V106.838L24.7832 101.335H20.5518V100.33ZM35.5118 103.543V104.158H30.0636V104.199C30.0271 105.243 30.2253 105.993 30.6583 106.448C31.0958 106.904 31.711 107.132 32.504 107.132C32.905 107.132 33.3243 107.068 33.7618 106.94C34.1993 106.813 34.6664 106.619 35.1632 106.359V107.61C34.6846 107.806 34.2221 107.952 33.7755 108.048C33.3334 108.148 32.905 108.198 32.4903 108.198C31.3009 108.198 30.3712 107.843 29.7013 107.132C29.0313 106.416 28.6964 105.432 28.6964 104.179C28.6964 102.957 29.0245 101.982 29.6807 101.253C30.337 100.524 31.212 100.159 32.3057 100.159C33.281 100.159 34.0489 100.49 34.6095 101.15C35.1746 101.811 35.4753 102.609 35.5118 103.543ZM34.254 103.174C34.1993 102.645 34.0056 102.189 33.6729 101.807C33.3448 101.419 32.8708 101.226 32.2511 101.226C31.6449 101.226 31.1459 101.426 30.754 101.827C30.3621 102.228 30.1479 102.679 30.1114 103.181L34.254 103.174ZM43.8957 103.256V108H42.631V103.256C42.631 102.568 42.5102 102.062 42.2687 101.738C42.0272 101.415 41.6489 101.253 41.1339 101.253C40.5461 101.253 40.0926 101.463 39.7736 101.882C39.4591 102.297 39.3019 102.894 39.3019 103.673V108H38.0441V100.344H39.3019V101.492C39.5252 101.055 39.8283 100.724 40.2111 100.501C40.5939 100.273 41.0474 100.159 41.5714 100.159C42.3507 100.159 42.9318 100.417 43.3146 100.932C43.702 101.442 43.8957 102.217 43.8957 103.256ZM47.7268 100.371H50.9465V107.022H53.4416V108H47.1936V107.022H49.6887V101.349H47.7268V100.371ZM49.6887 97.3975H50.9465V98.9834H49.6887V97.3975ZM58.6195 98.1699V100.344H61.4769V101.321H58.6195V105.478C58.6195 106.043 58.7265 106.437 58.9407 106.66C59.1549 106.883 59.5286 106.995 60.0618 106.995H61.4769V108H59.9388C58.9954 108 58.3301 107.811 57.9427 107.433C57.5553 107.054 57.3616 106.403 57.3616 105.478V101.321H55.3177V100.344H57.3616V98.1699H58.6195ZM70.4623 103.256V108H69.1977V103.256C69.1977 102.568 69.0769 102.062 68.8354 101.738C68.5938 101.415 68.2156 101.253 67.7006 101.253C67.1127 101.253 66.6592 101.463 66.3402 101.882C66.0258 102.297 65.8686 102.894 65.8686 103.673V108H64.6107V97.3633H65.8686V101.492C66.0919 101.055 66.3949 100.724 66.7777 100.501C67.1605 100.273 67.614 100.159 68.1381 100.159C68.9174 100.159 69.4984 100.417 69.8812 100.932C70.2686 101.442 70.4623 102.217 70.4623 103.256ZM88.4195 102.641L89.3082 103.242C88.9162 104.135 88.5311 104.746 88.1529 105.074C87.7746 105.398 87.385 105.56 86.9839 105.56C86.3459 105.523 85.7694 105.193 85.2545 104.568C84.744 103.939 84.384 103.495 84.1744 103.235C83.9647 102.971 83.6936 102.841 83.3609 102.846C83.01 102.846 82.7434 103.012 82.5611 103.345C82.3788 103.673 82.1874 104.092 81.9869 104.603L81.0777 104.083C81.342 103.24 81.6838 102.618 82.1031 102.217C82.5224 101.816 82.9439 101.615 83.3677 101.615C84.1379 101.606 84.8261 102.062 85.4322 102.982C86.0429 103.903 86.5601 104.363 86.9839 104.363C87.344 104.363 87.6379 104.167 87.8658 103.775C88.0936 103.379 88.2782 103.001 88.4195 102.641Z" fill="#2C2B2B"/>
<path d="M101.263 107.036V110.912H99.9987V100.344H101.263V101.321C101.473 100.943 101.751 100.656 102.097 100.46C102.448 100.259 102.852 100.159 103.307 100.159C104.232 100.159 104.957 100.517 105.481 101.232C106.01 101.948 106.274 102.939 106.274 104.206C106.274 105.45 106.01 106.428 105.481 107.139C104.953 107.845 104.228 108.198 103.307 108.198C102.842 108.198 102.435 108.1 102.084 107.904C101.737 107.704 101.464 107.414 101.263 107.036ZM104.955 104.179C104.955 103.203 104.8 102.467 104.49 101.971C104.185 101.474 103.729 101.226 103.123 101.226C102.512 101.226 102.05 101.476 101.735 101.978C101.421 102.474 101.263 103.208 101.263 104.179C101.263 105.145 101.421 105.879 101.735 106.38C102.05 106.881 102.512 107.132 103.123 107.132C103.729 107.132 104.185 106.883 104.49 106.387C104.8 105.89 104.955 105.154 104.955 104.179ZM114.207 100.61V101.841C113.847 101.631 113.485 101.474 113.12 101.369C112.755 101.264 112.384 101.212 112.006 101.212C111.436 101.212 111.01 101.305 110.727 101.492C110.449 101.674 110.31 101.955 110.31 102.333C110.31 102.675 110.415 102.93 110.625 103.099C110.834 103.267 111.356 103.431 112.19 103.591L112.696 103.687C113.32 103.805 113.792 104.042 114.111 104.397C114.435 104.753 114.596 105.215 114.596 105.785C114.596 106.542 114.328 107.134 113.79 107.562C113.252 107.986 112.505 108.198 111.548 108.198C111.169 108.198 110.773 108.157 110.358 108.075C109.943 107.998 109.495 107.879 109.012 107.72V106.421C109.481 106.662 109.93 106.845 110.358 106.968C110.787 107.086 111.192 107.146 111.575 107.146C112.131 107.146 112.562 107.034 112.867 106.811C113.172 106.583 113.325 106.266 113.325 105.86C113.325 105.277 112.767 104.874 111.65 104.65L111.596 104.637L111.124 104.541C110.399 104.4 109.871 104.163 109.538 103.83C109.205 103.493 109.039 103.035 109.039 102.456C109.039 101.722 109.287 101.157 109.784 100.761C110.281 100.36 110.989 100.159 111.91 100.159C112.32 100.159 112.714 100.198 113.093 100.275C113.471 100.348 113.842 100.46 114.207 100.61ZM118.681 104.206C118.681 105.181 118.833 105.917 119.139 106.414C119.448 106.911 119.906 107.159 120.513 107.159C121.119 107.159 121.577 106.911 121.887 106.414C122.201 105.913 122.358 105.177 122.358 104.206C122.358 103.235 122.201 102.502 121.887 102.005C121.577 101.504 121.119 101.253 120.513 101.253C119.906 101.253 119.448 101.501 119.139 101.998C118.833 102.495 118.681 103.231 118.681 104.206ZM122.358 107.05C122.153 107.428 121.875 107.72 121.524 107.925C121.178 108.125 120.775 108.226 120.314 108.226C119.398 108.226 118.674 107.872 118.141 107.166C117.612 106.455 117.348 105.478 117.348 104.233C117.348 102.966 117.612 101.975 118.141 101.26C118.669 100.544 119.394 100.187 120.314 100.187C120.77 100.187 121.171 100.287 121.517 100.487C121.868 100.683 122.149 100.97 122.358 101.349V100.371H123.623V110.939H122.358V107.05ZM130.182 105.231C130.182 105.797 130.284 106.223 130.489 106.51C130.699 106.797 131.006 106.94 131.412 106.94H132.882V108H131.289C130.537 108 129.954 107.761 129.539 107.282C129.129 106.799 128.924 106.116 128.924 105.231V98.3066H126.907V97.3223H130.182V105.231ZM143.675 103.051H150.921V104.206H143.675V103.051ZM159.018 103.256V108H157.753V103.256C157.753 102.568 157.632 102.062 157.391 101.738C157.149 101.415 156.771 101.253 156.256 101.253C155.668 101.253 155.215 101.463 154.896 101.882C154.581 102.297 154.424 102.894 154.424 103.673V108H153.166V97.3633H154.424V101.492C154.647 101.055 154.95 100.724 155.333 100.501C155.716 100.273 156.169 100.159 156.694 100.159C157.473 100.159 158.054 100.417 158.437 100.932C158.824 101.442 159.018 102.217 159.018 103.256ZM176.797 107.61C176.46 107.806 176.111 107.952 175.751 108.048C175.396 108.148 175.031 108.198 174.658 108.198C173.473 108.198 172.545 107.843 171.875 107.132C171.21 106.421 170.877 105.437 170.877 104.179C170.877 102.921 171.21 101.937 171.875 101.226C172.545 100.515 173.473 100.159 174.658 100.159C175.027 100.159 175.387 100.207 175.738 100.303C176.089 100.398 176.442 100.547 176.797 100.747V102.066C176.465 101.77 176.13 101.556 175.792 101.424C175.46 101.292 175.081 101.226 174.658 101.226C173.869 101.226 173.263 101.481 172.839 101.991C172.415 102.502 172.203 103.231 172.203 104.179C172.203 105.122 172.415 105.851 172.839 106.366C173.268 106.877 173.874 107.132 174.658 107.132C175.095 107.132 175.487 107.066 175.833 106.934C176.18 106.797 176.501 106.587 176.797 106.305V107.61ZM182.611 101.226C181.973 101.226 181.49 101.474 181.162 101.971C180.833 102.467 180.669 103.203 180.669 104.179C180.669 105.149 180.833 105.885 181.162 106.387C181.49 106.883 181.973 107.132 182.611 107.132C183.253 107.132 183.739 106.883 184.067 106.387C184.395 105.885 184.559 105.149 184.559 104.179C184.559 103.203 184.395 102.467 184.067 101.971C183.739 101.474 183.253 101.226 182.611 101.226ZM182.611 100.159C183.673 100.159 184.484 100.503 185.044 101.191C185.609 101.88 185.892 102.875 185.892 104.179C185.892 105.487 185.612 106.485 185.051 107.173C184.491 107.856 183.677 108.198 182.611 108.198C181.549 108.198 180.738 107.856 180.177 107.173C179.617 106.485 179.336 105.487 179.336 104.179C179.336 102.875 179.617 101.88 180.177 101.191C180.738 100.503 181.549 100.159 182.611 100.159ZM194.44 103.256V108H193.175V103.256C193.175 102.568 193.055 102.062 192.813 101.738C192.571 101.415 192.193 101.253 191.678 101.253C191.09 101.253 190.637 101.463 190.318 101.882C190.003 102.297 189.846 102.894 189.846 103.673V108H188.588V100.344H189.846V101.492C190.07 101.055 190.373 100.724 190.755 100.501C191.138 100.273 191.592 100.159 192.116 100.159C192.895 100.159 193.476 100.417 193.859 100.932C194.246 101.442 194.44 102.217 194.44 103.256ZM202.762 100.61V101.841C202.402 101.631 202.04 101.474 201.675 101.369C201.311 101.264 200.939 101.212 200.561 101.212C199.991 101.212 199.565 101.305 199.283 101.492C199.005 101.674 198.866 101.955 198.866 102.333C198.866 102.675 198.971 102.93 199.18 103.099C199.39 103.267 199.912 103.431 200.746 103.591L201.252 103.687C201.876 103.805 202.348 104.042 202.667 104.397C202.99 104.753 203.152 105.215 203.152 105.785C203.152 106.542 202.883 107.134 202.345 107.562C201.808 107.986 201.06 108.198 200.103 108.198C199.725 108.198 199.328 108.157 198.914 108.075C198.499 107.998 198.05 107.879 197.567 107.72V106.421C198.036 106.662 198.485 106.845 198.914 106.968C199.342 107.086 199.748 107.146 200.13 107.146C200.686 107.146 201.117 107.034 201.422 106.811C201.728 106.583 201.88 106.266 201.88 105.86C201.88 105.277 201.322 104.874 200.206 104.65L200.151 104.637L199.679 104.541C198.955 104.4 198.426 104.163 198.093 103.83C197.761 103.493 197.594 103.035 197.594 102.456C197.594 101.722 197.843 101.157 198.339 100.761C198.836 100.36 199.545 100.159 200.465 100.159C200.876 100.159 201.27 100.198 201.648 100.275C202.026 100.348 202.398 100.46 202.762 100.61ZM209.177 101.226C208.539 101.226 208.056 101.474 207.728 101.971C207.4 102.467 207.236 103.203 207.236 104.179C207.236 105.149 207.4 105.885 207.728 106.387C208.056 106.883 208.539 107.132 209.177 107.132C209.82 107.132 210.305 106.883 210.633 106.387C210.962 105.885 211.126 105.149 211.126 104.179C211.126 103.203 210.962 102.467 210.633 101.971C210.305 101.474 209.82 101.226 209.177 101.226ZM209.177 100.159C210.239 100.159 211.05 100.503 211.611 101.191C212.176 101.88 212.459 102.875 212.459 104.179C212.459 105.487 212.178 106.485 211.618 107.173C211.057 107.856 210.244 108.198 209.177 108.198C208.116 108.198 207.304 107.856 206.744 107.173C206.183 106.485 205.903 105.487 205.903 104.179C205.903 102.875 206.183 101.88 206.744 101.191C207.304 100.503 208.116 100.159 209.177 100.159ZM218.737 105.231C218.737 105.797 218.84 106.223 219.045 106.51C219.254 106.797 219.562 106.94 219.968 106.94H221.437V108H219.844C219.093 108 218.509 107.761 218.094 107.282C217.684 106.799 217.479 106.116 217.479 105.231V98.3066H215.463V97.3223H218.737V105.231ZM230.334 103.543V104.158H224.886V104.199C224.849 105.243 225.047 105.993 225.48 106.448C225.918 106.904 226.533 107.132 227.326 107.132C227.727 107.132 228.146 107.068 228.584 106.94C229.021 106.813 229.488 106.619 229.985 106.359V107.61C229.507 107.806 229.044 107.952 228.598 108.048C228.155 108.148 227.727 108.198 227.312 108.198C226.123 108.198 225.193 107.843 224.523 107.132C223.853 106.416 223.518 105.432 223.518 104.179C223.518 102.957 223.847 101.982 224.503 101.253C225.159 100.524 226.034 100.159 227.128 100.159C228.103 100.159 228.871 100.49 229.431 101.15C229.997 101.811 230.297 102.609 230.334 103.543ZM229.076 103.174C229.021 102.645 228.828 102.189 228.495 101.807C228.167 101.419 227.693 101.226 227.073 101.226C226.467 101.226 225.968 101.426 225.576 101.827C225.184 102.228 224.97 102.679 224.933 103.181L229.076 103.174ZM234.192 105.238H236.599V108H234.192V105.238ZM241.94 100.33H247.498V101.479L243.103 106.975H247.498V108H241.776V106.838L246.172 101.335H241.94V100.33ZM256.9 103.543V104.158H251.452V104.199C251.416 105.243 251.614 105.993 252.047 106.448C252.484 106.904 253.1 107.132 253.893 107.132C254.294 107.132 254.713 107.068 255.15 106.94C255.588 106.813 256.055 106.619 256.552 106.359V107.61C256.073 107.806 255.611 107.952 255.164 108.048C254.722 108.148 254.294 108.198 253.879 108.198C252.69 108.198 251.76 107.843 251.09 107.132C250.42 106.416 250.085 105.432 250.085 104.179C250.085 102.957 250.413 101.982 251.069 101.253C251.726 100.524 252.601 100.159 253.694 100.159C254.67 100.159 255.438 100.49 255.998 101.15C256.563 101.811 256.864 102.609 256.9 103.543ZM255.643 103.174C255.588 102.645 255.394 102.189 255.062 101.807C254.733 101.419 254.26 101.226 253.64 101.226C253.034 101.226 252.535 101.426 252.143 101.827C251.751 102.228 251.537 102.679 251.5 103.181L255.643 103.174ZM265.284 103.256V108H264.02V103.256C264.02 102.568 263.899 102.062 263.657 101.738C263.416 101.415 263.038 101.253 262.523 101.253C261.935 101.253 261.481 101.463 261.162 101.882C260.848 102.297 260.691 102.894 260.691 103.673V108H259.433V100.344H260.691V101.492C260.914 101.055 261.217 100.724 261.6 100.501C261.983 100.273 262.436 100.159 262.96 100.159C263.739 100.159 264.32 100.417 264.703 100.932C265.091 101.442 265.284 102.217 265.284 103.256ZM269.115 100.371H272.335V107.022H274.83V108H268.582V107.022H271.077V101.349H269.115V100.371ZM271.077 97.3975H272.335V98.9834H271.077V97.3975ZM280.008 98.1699V100.344H282.866V101.321H280.008V105.478C280.008 106.043 280.115 106.437 280.329 106.66C280.544 106.883 280.917 106.995 281.451 106.995H282.866V108H281.327C280.384 108 279.719 107.811 279.331 107.433C278.944 107.054 278.75 106.403 278.75 105.478V101.321H276.706V100.344H278.75V98.1699H280.008ZM291.851 103.256V108H290.586V103.256C290.586 102.568 290.466 102.062 290.224 101.738C289.982 101.415 289.604 101.253 289.089 101.253C288.501 101.253 288.048 101.463 287.729 101.882C287.414 102.297 287.257 102.894 287.257 103.673V108H285.999V97.3633H287.257V101.492C287.481 101.055 287.784 100.724 288.166 100.501C288.549 100.273 289.003 100.159 289.527 100.159C290.306 100.159 290.887 100.417 291.27 100.932C291.657 101.442 291.851 102.217 291.851 103.256ZM296.181 105.238H298.587V108H296.181V105.238ZM306.575 98.1699V100.344H309.432V101.321H306.575V105.478C306.575 106.043 306.682 106.437 306.896 106.66C307.11 106.883 307.484 106.995 308.017 106.995H309.432V108H307.894C306.951 108 306.285 107.811 305.898 107.433C305.511 107.054 305.317 106.403 305.317 105.478V101.321H303.273V100.344H305.317V98.1699H306.575ZM318.889 103.543V104.158H313.441V104.199C313.405 105.243 313.603 105.993 314.036 106.448C314.473 106.904 315.089 107.132 315.881 107.132C316.283 107.132 316.702 107.068 317.139 106.94C317.577 106.813 318.044 106.619 318.541 106.359V107.61C318.062 107.806 317.6 107.952 317.153 108.048C316.711 108.148 316.283 108.198 315.868 108.198C314.678 108.198 313.749 107.843 313.079 107.132C312.409 106.416 312.074 105.432 312.074 104.179C312.074 102.957 312.402 101.982 313.058 101.253C313.714 100.524 314.589 100.159 315.683 100.159C316.658 100.159 317.426 100.49 317.987 101.15C318.552 101.811 318.853 102.609 318.889 103.543ZM317.631 103.174C317.577 102.645 317.383 102.189 317.05 101.807C316.722 101.419 316.248 101.226 315.629 101.226C315.022 101.226 314.523 101.426 314.131 101.827C313.74 102.228 313.525 102.679 313.489 103.181L317.631 103.174ZM327.342 107.61C327.004 107.806 326.656 107.952 326.296 108.048C325.94 108.148 325.576 108.198 325.202 108.198C324.017 108.198 323.09 107.843 322.42 107.132C321.754 106.421 321.422 105.437 321.422 104.179C321.422 102.921 321.754 101.937 322.42 101.226C323.09 100.515 324.017 100.159 325.202 100.159C325.571 100.159 325.931 100.207 326.282 100.303C326.633 100.398 326.986 100.547 327.342 100.747V102.066C327.009 101.77 326.674 101.556 326.337 101.424C326.004 101.292 325.626 101.226 325.202 101.226C324.413 101.226 323.807 101.481 323.384 101.991C322.96 102.502 322.748 103.231 322.748 104.179C322.748 105.122 322.96 105.851 323.384 106.366C323.812 106.877 324.418 107.132 325.202 107.132C325.639 107.132 326.031 107.066 326.378 106.934C326.724 106.797 327.045 106.587 327.342 106.305V107.61ZM336.129 103.256V108H334.864V103.256C334.864 102.568 334.743 102.062 334.502 101.738C334.26 101.415 333.882 101.253 333.367 101.253C332.779 101.253 332.326 101.463 332.007 101.882C331.692 102.297 331.535 102.894 331.535 103.673V108H330.277V97.3633H331.535V101.492C331.758 101.055 332.061 100.724 332.444 100.501C332.827 100.273 333.28 100.159 333.805 100.159C334.584 100.159 335.165 100.417 335.548 100.932C335.935 101.442 336.129 102.217 336.129 103.256Z" fill="white"/>
<line y1="43.5" x2="464" y2="43.5" stroke="#2C2B2B"/>
<ellipse cx="20.5" cy="25" rx="5.5" ry="6" fill="#ED6A5D"/>
<circle cx="40" cy="25" r="6" fill="#F5C050"/>
<circle cx="60" cy="25" r="6" fill="#62C654"/>
</svg>
