<svg width="16" height="18" viewBox="0 0 16 18" fill="none" xmlns="http://www.w3.org/2000/svg">
<path fill-rule="evenodd" clip-rule="evenodd" d="M1.85557 0H9.72818C10.0826 0 10.4255 0.112012 10.6961 0.316151L15.4556 3.90706C15.7923 4.16106 15.9865 4.53442 15.9865 4.92774V16.1162C15.9865 17.712 15.966 17.8244 14.1309 17.8244H1.85557C0.0204305 17.8244 0 17.712 0 16.1162V1.70817C0 0.112405 0.0204305 0 1.85557 0ZM9.99155 8.02098H2.99747C2.44565 8.02098 1.99831 8.41999 1.99831 8.9122C1.99831 9.40441 2.44565 9.80342 2.99747 9.80342H9.99155C10.5434 9.80342 10.9907 9.40441 10.9907 8.9122C10.9907 8.41999 10.5434 8.02098 9.99155 8.02098ZM2.99747 11.5859H5.99493C6.54675 11.5859 6.99409 11.9849 6.99409 12.4771C6.99409 12.9693 6.54675 13.3683 5.99493 13.3683H2.99747C2.44565 13.3683 1.99831 12.9693 1.99831 12.4771C1.99831 11.9849 2.44565 11.5859 2.99747 11.5859Z" fill="white"/>
</svg>
