<svg width="26" height="26" viewBox="0 0 26 26" fill="none" xmlns="http://www.w3.org/2000/svg">
<path fill-rule="evenodd" clip-rule="evenodd" d="M13 0C5.80667 0 0 5.80667 0 13C0 18.72 3.72667 23.5733 8.92667 25.3067C9.62 25.3933 9.79333 25.0467 9.79333 24.7V22.4467C6.15333 23.2267 5.37333 20.7133 5.37333 20.7133C4.76667 19.24 3.9 18.8067 3.9 18.8067C2.68667 18.0267 3.98667 18.0267 3.98667 18.0267C5.28667 18.1133 5.98 19.3267 5.98 19.3267C7.10667 21.32 9.01333 20.7133 9.79333 20.3667C9.88 19.5 10.2267 18.98 10.66 18.6333C7.8 18.2867 4.76667 17.16 4.76667 12.22C4.76667 10.8333 5.28667 9.62 6.06667 8.75333C5.89333 8.40667 5.46 7.10667 6.15333 5.28667C6.15333 5.28667 7.28 4.94 9.70667 6.58667C10.7467 6.32667 11.8733 6.15333 13 6.15333C14.1267 6.15333 15.2533 6.32667 16.2933 6.58667C18.8067 4.94 19.8467 5.28667 19.8467 5.28667C20.54 7.10667 20.1067 8.40667 19.9333 8.75333C20.8 9.62 21.2333 10.8333 21.2333 12.22C21.2333 17.2467 18.2 18.2867 15.34 18.6333C15.7733 19.0667 16.2067 19.8467 16.2067 21.06V24.6133C16.2067 24.96 16.4667 25.3933 17.0733 25.22C22.2733 23.4867 25.9133 18.6333 25.9133 12.9133C26 5.80667 20.1933 0 13 0Z" fill="white"/>
</svg>
