<svg width="26" height="26" viewBox="0 0 26 26" fill="none" xmlns="http://www.w3.org/2000/svg">
<path d="M5.41683 2.16665C5.41683 1.57081 4.92933 1.08331 4.3335 1.08331C3.73766 1.08331 3.25016 1.57081 3.25016 2.16665V6.49998H1.0835V13H7.5835V6.49998H5.41683V2.16665ZM9.75016 17.3333C9.75016 18.7416 10.6602 19.9333 11.9168 20.3883V24.9166H14.0835V20.3883C15.3402 19.9441 16.2502 18.7525 16.2502 17.3333V15.1666H9.75016V17.3333ZM1.0835 17.3333C1.0835 18.7416 1.9935 19.9333 3.25016 20.3883V24.9166H5.41683V20.3883C6.6735 19.9333 7.5835 18.7416 7.5835 17.3333V15.1666H1.0835V17.3333ZM22.7502 6.49998V2.16665C22.7502 1.57081 22.2627 1.08331 21.6668 1.08331C21.071 1.08331 20.5835 1.57081 20.5835 2.16665V6.49998H18.4168V13H24.9168V6.49998H22.7502ZM14.0835 2.16665C14.0835 1.57081 13.596 1.08331 13.0002 1.08331C12.4043 1.08331 11.9168 1.57081 11.9168 2.16665V6.49998H9.75016V13H16.2502V6.49998H14.0835V2.16665ZM18.4168 17.3333C18.4168 18.7416 19.3268 19.9333 20.5835 20.3883V24.9166H22.7502V20.3883C24.0068 19.9441 24.9168 18.7525 24.9168 17.3333V15.1666H18.4168V17.3333Z" fill="white"/>
</svg>
