<svg width="25" height="26" viewBox="0 0 25 26" fill="none" xmlns="http://www.w3.org/2000/svg">
<path d="M18.552 4.84252C18.4686 4.84252 18.3853 4.82085 18.3124 4.77752C16.3124 3.70502 14.5832 3.25002 12.5103 3.25002C10.4478 3.25002 8.48946 3.75919 6.70821 4.77752C6.45821 4.91835 6.14571 4.82085 5.99987 4.56085C5.86446 4.30085 5.95821 3.96502 6.20821 3.82419C8.14571 2.73002 10.2707 2.16669 12.5103 2.16669C14.729 2.16669 16.6665 2.67585 18.7915 3.81335C19.052 3.95419 19.1457 4.27919 19.0103 4.53919C18.9165 4.73419 18.7395 4.84252 18.552 4.84252ZM3.64571 10.53C3.54154 10.53 3.43737 10.4975 3.34362 10.4325C3.10404 10.2592 3.05196 9.92335 3.21862 9.67419C4.24987 8.15752 5.56237 6.96585 7.12487 6.13169C10.3957 4.37669 14.5832 4.36585 17.8645 6.12085C19.427 6.95502 20.7395 8.13585 21.7707 9.64169C21.9374 9.88002 21.8853 10.2267 21.6457 10.4C21.4061 10.5734 21.0832 10.5192 20.9165 10.27C19.979 8.90502 18.7915 7.83252 17.3853 7.08502C14.3957 5.49252 10.5728 5.49252 7.59362 7.09585C6.17696 7.85419 4.98946 8.93752 4.05196 10.3025C3.96862 10.4542 3.81237 10.53 3.64571 10.53ZM10.1561 23.6059C10.0207 23.6059 9.88529 23.5517 9.79154 23.4434C8.88529 22.5009 8.39571 21.8942 7.69779 20.5834C6.97904 19.2509 6.60404 17.6259 6.60404 15.8817C6.60404 12.6642 9.24987 10.0425 12.4999 10.0425C15.7499 10.0425 18.3957 12.6642 18.3957 15.8817C18.3957 16.185 18.1665 16.4234 17.8749 16.4234C17.5832 16.4234 17.354 16.185 17.354 15.8817C17.354 13.26 15.177 11.1259 12.4999 11.1259C9.82279 11.1259 7.64571 13.26 7.64571 15.8817C7.64571 17.4417 7.97904 18.8825 8.61446 20.0525C9.28112 21.2984 9.73946 21.8292 10.5415 22.6742C10.7395 22.8909 10.7395 23.2267 10.5415 23.4434C10.427 23.5517 10.2915 23.6059 10.1561 23.6059ZM17.6249 21.6017C16.3853 21.6017 15.2915 21.2767 14.3957 20.6375C12.8436 19.5434 11.9165 17.7667 11.9165 15.8817C11.9165 15.5784 12.1457 15.34 12.4374 15.34C12.729 15.34 12.9582 15.5784 12.9582 15.8817C12.9582 17.4092 13.7082 18.85 14.979 19.7384C15.7186 20.2584 16.5832 20.5075 17.6249 20.5075C17.8749 20.5075 18.2915 20.475 18.7082 20.3992C18.9895 20.345 19.2603 20.54 19.3124 20.8434C19.3645 21.1359 19.177 21.4175 18.8853 21.4717C18.2915 21.5909 17.7707 21.6017 17.6249 21.6017ZM15.5311 23.8334C15.4895 23.8334 15.4374 23.8225 15.3957 23.8117C13.7395 23.335 12.6561 22.6959 11.5207 21.5367C10.0624 20.0309 9.26029 18.0267 9.26029 15.8817C9.26029 14.1267 10.6978 12.6967 12.4686 12.6967C14.2395 12.6967 15.677 14.1267 15.677 15.8817C15.677 17.0409 16.6457 17.9834 17.8436 17.9834C19.0415 17.9834 20.0103 17.0409 20.0103 15.8817C20.0103 11.7975 16.6249 8.48252 12.4582 8.48252C9.49987 8.48252 6.79154 10.1942 5.57279 12.8484C5.16654 13.7259 4.95821 14.755 4.95821 15.8817C4.95821 16.7267 5.03112 18.0592 5.65612 19.7925C5.76029 20.0742 5.62487 20.3884 5.35404 20.4859C5.08321 20.5942 4.78112 20.4425 4.68737 20.1717C4.17696 18.7525 3.92696 17.3442 3.92696 15.8817C3.92696 14.5817 4.16654 13.4009 4.63529 12.3717C6.02071 9.34919 9.09362 7.38835 12.4582 7.38835C17.1978 7.38835 21.052 11.1909 21.052 15.8709C21.052 17.6259 19.6145 19.0559 17.8436 19.0559C16.0728 19.0559 14.6353 17.6259 14.6353 15.8709C14.6353 14.7117 13.6665 13.7692 12.4686 13.7692C11.2707 13.7692 10.302 14.7117 10.302 15.8709C10.302 17.7234 10.9895 19.4567 12.2499 20.7567C13.2395 21.775 14.1874 22.3384 15.6561 22.7609C15.9374 22.8367 16.0936 23.14 16.0207 23.4217C15.9686 23.6709 15.7499 23.8334 15.5311 23.8334Z" fill="#D3D3D3"/>
</svg>
