<svg width="24" height="24" viewBox="0 0 24 24" fill="none" xmlns="http://www.w3.org/2000/svg">
<path fill-rule="evenodd" clip-rule="evenodd" d="M12 0C5.36 0 0 5.36 0 12C0 17.28 3.44 21.76 8.24 23.36C8.88 23.44 9.04 23.12 9.04 22.8V20.72C5.68 21.44 4.96 19.12 4.96 19.12C4.4 17.76 3.6 17.36 3.6 17.36C2.48 16.64 3.68 16.64 3.68 16.64C4.88 16.72 5.52 17.84 5.52 17.84C6.56 19.68 8.32 19.12 9.04 18.8C9.12 18 9.44 17.52 9.84 17.2C7.2 16.88 4.4 15.84 4.4 11.28C4.4 10 4.88 8.88 5.6 8.08C5.44 7.76 5.04 6.56 5.68 4.88C5.68 4.88 6.72 4.56 8.96 6.08C9.92 5.84 10.96 5.68 12 5.68C13.04 5.68 14.08 5.84 15.04 6.08C17.36 4.56 18.32 4.88 18.32 4.88C18.96 6.56 18.56 7.76 18.4 8.08C19.2 8.88 19.6 10 19.6 11.28C19.6 15.92 16.8 16.88 14.16 17.2C14.56 17.6 14.96 18.32 14.96 19.44V22.72C14.96 23.04 15.2 23.44 15.76 23.28C20.56 21.68 23.92 17.2 23.92 11.92C24 5.36 18.64 0 12 0Z" fill="black"/>
</svg>
