<svg width="50" height="50" viewBox="0 0 50 50" fill="none" xmlns="http://www.w3.org/2000/svg">
<path fill-rule="evenodd" clip-rule="evenodd" d="M25 0C11.1667 0 0 11.1667 0 25C0 36 7.16667 45.3333 17.1667 48.6667C18.5 48.8333 18.8333 48.1667 18.8333 47.5V43.1667C11.8333 44.6667 10.3333 39.8333 10.3333 39.8333C9.16667 37 7.5 36.1667 7.5 36.1667C5.16667 34.6667 7.66667 34.6667 7.66667 34.6667C10.1667 34.8333 11.5 37.1667 11.5 37.1667C13.6667 41 17.3333 39.8333 18.8333 39.1667C19 37.5 19.6667 36.5 20.5 35.8333C15 35.1667 9.16667 33 9.16667 23.5C9.16667 20.8333 10.1667 18.5 11.6667 16.8333C11.3333 16.1667 10.5 13.6667 11.8333 10.1667C11.8333 10.1667 14 9.5 18.6667 12.6667C20.6667 12.1667 22.8333 11.8333 25 11.8333C27.1667 11.8333 29.3333 12.1667 31.3333 12.6667C36.1667 9.5 38.1667 10.1667 38.1667 10.1667C39.5 13.6667 38.6667 16.1667 38.3333 16.8333C40 18.5 40.8333 20.8333 40.8333 23.5C40.8333 33.1667 35 35.1667 29.5 35.8333C30.3333 36.6667 31.1667 38.1667 31.1667 40.5V47.3333C31.1667 48 31.6667 48.8333 32.8333 48.5C42.8333 45.1667 49.8333 35.8333 49.8333 24.8333C50 11.1667 38.8333 0 25 0Z" fill="white"/>
</svg>
