<svg width="464" height="289" viewBox="0 0 464 289" fill="none" xmlns="http://www.w3.org/2000/svg">
<path d="M0.5 9.99999C0.5 4.75329 4.75329 0.5 10 0.5H454C459.247 0.5 463.5 4.75329 463.5 10V279C463.5 284.247 459.247 288.5 454 288.5H10C4.7533 288.5 0.5 284.247 0.5 279V9.99999Z" fill="black" stroke="#464444"/>
<path d="M34.0771 65.7939H35.376L30.0029 77.2988H28.6973L34.0771 65.7939ZM42.9327 65.7939H44.2315L38.8585 77.2988H37.5528L42.9327 65.7939ZM54.8879 65.7939H62.6741V66.9561H59.4817V76H58.094V66.9561H54.8879V65.7939ZM69.6087 70.9072C69.6087 69.4079 69.4538 68.3369 69.1439 67.6943C68.8385 67.0518 68.3349 66.7305 67.6331 66.7305C66.9359 66.7305 66.4323 67.0518 66.1224 67.6943C65.817 68.3369 65.6644 69.4079 65.6644 70.9072C65.6644 72.402 65.817 73.4707 66.1224 74.1133C66.4323 74.7559 66.9359 75.0771 67.6331 75.0771C68.3349 75.0771 68.8385 74.7581 69.1439 74.1201C69.4538 73.4775 69.6087 72.4066 69.6087 70.9072ZM71.0511 70.9072C71.0511 72.6846 70.7685 74.0107 70.2034 74.8857C69.6429 75.7607 68.7861 76.1982 67.6331 76.1982C66.4801 76.1982 65.6234 75.763 65.0628 74.8926C64.5023 74.0221 64.222 72.6937 64.222 70.9072C64.222 69.1253 64.5023 67.7969 65.0628 66.9219C65.6279 66.0469 66.4847 65.6094 67.6331 65.6094C68.7861 65.6094 69.6429 66.0469 70.2034 66.9219C70.7685 67.7969 71.0511 69.1253 71.0511 70.9072ZM75.2582 74.8652C76.4203 74.8652 77.2315 74.5804 77.6918 74.0107C78.1521 73.4365 78.3822 72.402 78.3822 70.9072C78.3822 69.3988 78.1521 68.3597 77.6918 67.79C77.2361 67.2158 76.4249 66.9287 75.2582 66.9287H74.602V74.8652H75.2582ZM75.2855 65.7939C76.8441 65.7939 77.9926 66.2087 78.7309 67.0381C79.4691 67.8675 79.8383 69.1572 79.8383 70.9072C79.8383 72.6481 79.4691 73.9333 78.7309 74.7627C77.9926 75.5876 76.8441 76 75.2855 76H73.2143V65.7939H75.2855ZM87.3198 70.9072C87.3198 69.4079 87.1649 68.3369 86.855 67.6943C86.5496 67.0518 86.046 66.7305 85.3442 66.7305C84.647 66.7305 84.1434 67.0518 83.8335 67.6943C83.5281 68.3369 83.3755 69.4079 83.3755 70.9072C83.3755 72.402 83.5281 73.4707 83.8335 74.1133C84.1434 74.7559 84.647 75.0771 85.3442 75.0771C86.046 75.0771 86.5496 74.7581 86.855 74.1201C87.1649 73.4775 87.3198 72.4066 87.3198 70.9072ZM88.7622 70.9072C88.7622 72.6846 88.4796 74.0107 87.9145 74.8857C87.354 75.7607 86.4972 76.1982 85.3442 76.1982C84.1912 76.1982 83.3345 75.763 82.7739 74.8926C82.2134 74.0221 81.9331 72.6937 81.9331 70.9072C81.9331 69.1253 82.2134 67.7969 82.7739 66.9219C83.339 66.0469 84.1958 65.6094 85.3442 65.6094C86.4972 65.6094 87.354 66.0469 87.9145 66.9219C88.4796 67.7969 88.7622 69.1253 88.7622 70.9072ZM35.4307 95.6406L36.3193 96.2422C35.9274 97.1354 35.5423 97.7461 35.1641 98.0742C34.7858 98.3978 34.3962 98.5596 33.9951 98.5596C33.3571 98.5231 32.7806 98.1927 32.2656 97.5684C31.7552 96.9395 31.3952 96.4951 31.1855 96.2354C30.9759 95.971 30.7048 95.8411 30.3721 95.8457C30.0212 95.8457 29.7546 96.012 29.5723 96.3447C29.39 96.6729 29.1986 97.0921 28.998 97.6025L28.0889 97.083C28.3532 96.2399 28.695 95.6178 29.1143 95.2168C29.5335 94.8158 29.9551 94.6152 30.3789 94.6152C31.1491 94.6061 31.8372 95.0618 32.4434 95.9824C33.054 96.903 33.5713 97.3633 33.9951 97.3633C34.3551 97.3633 34.6491 97.1673 34.877 96.7754C35.1048 96.3789 35.2894 96.0007 35.4307 95.6406Z" fill="#2C2B2B"/>
<path d="M48.3703 98.2383H50.7765V101H48.3703V98.2383ZM60.6438 90.7939H61.9426L56.5696 102.299H55.2639L60.6438 90.7939ZM64.9739 93.3301H70.5316V94.4785L66.1361 99.9746H70.5316V101H64.8099V99.8379L69.2054 94.335H64.9739V93.3301ZM79.934 96.543V97.1582H74.4857V97.1992C74.4493 98.2428 74.6475 98.9925 75.0805 99.4482C75.518 99.904 76.1332 100.132 76.9262 100.132C77.3272 100.132 77.7465 100.068 78.184 99.9404C78.6215 99.8128 79.0886 99.6191 79.5854 99.3594V100.61C79.1068 100.806 78.6443 100.952 78.1977 101.048C77.7556 101.148 77.3272 101.198 76.9125 101.198C75.723 101.198 74.7934 100.843 74.1234 100.132C73.4535 99.4163 73.1186 98.432 73.1186 97.1787C73.1186 95.9574 73.4467 94.9821 74.1029 94.2529C74.7592 93.5238 75.6342 93.1592 76.7279 93.1592C77.7032 93.1592 78.4711 93.4896 79.0316 94.1504C79.5967 94.8112 79.8975 95.6087 79.934 96.543ZM78.6762 96.1738C78.6215 95.6452 78.4278 95.1895 78.0951 94.8066C77.767 94.4193 77.293 94.2256 76.6732 94.2256C76.0671 94.2256 75.5681 94.4261 75.1762 94.8271C74.7842 95.2282 74.5701 95.6794 74.5336 96.1807L78.6762 96.1738ZM88.3179 96.2559V101H87.0532V96.2559C87.0532 95.5677 86.9324 95.0618 86.6909 94.7383C86.4494 94.4147 86.0711 94.2529 85.5561 94.2529C84.9682 94.2529 84.5148 94.4626 84.1958 94.8818C83.8813 95.2965 83.7241 95.8936 83.7241 96.6729V101H82.4663V93.3438H83.7241V94.4922C83.9474 94.0547 84.2505 93.7243 84.6333 93.501C85.0161 93.2731 85.4695 93.1592 85.9936 93.1592C86.7729 93.1592 87.354 93.4167 87.7368 93.9316C88.1242 94.4421 88.3179 95.2168 88.3179 96.2559ZM92.149 93.3711H95.3687V100.022H97.8638V101H91.6158V100.022H94.1109V94.3486H92.149V93.3711ZM94.1109 90.3975H95.3687V91.9834H94.1109V90.3975ZM103.042 91.1699V93.3438H105.899V94.3213H103.042V98.4775C103.042 99.0426 103.149 99.4368 103.363 99.6602C103.577 99.8835 103.951 99.9951 104.484 99.9951H105.899V101H104.361C103.418 101 102.752 100.811 102.365 100.433C101.978 100.054 101.784 99.4027 101.784 98.4775V94.3213H99.7399V93.3438H101.784V91.1699H103.042ZM114.884 96.2559V101H113.62V96.2559C113.62 95.5677 113.499 95.0618 113.258 94.7383C113.016 94.4147 112.638 94.2529 112.123 94.2529C111.535 94.2529 111.081 94.4626 110.762 94.8818C110.448 95.2965 110.291 95.8936 110.291 96.6729V101H109.033V90.3633H110.291V94.4922C110.514 94.0547 110.817 93.7243 111.2 93.501C111.583 93.2731 112.036 93.1592 112.56 93.1592C113.34 93.1592 113.921 93.4167 114.303 93.9316C114.691 94.4421 114.884 95.2168 114.884 96.2559ZM125.732 90.7939H133.518V91.9561H130.326V101H128.938V91.9561H125.732V90.7939ZM140.453 95.9072C140.453 94.4079 140.298 93.3369 139.988 92.6943C139.683 92.0518 139.179 91.7305 138.478 91.7305C137.78 91.7305 137.277 92.0518 136.967 92.6943C136.661 93.3369 136.509 94.4079 136.509 95.9072C136.509 97.402 136.661 98.4707 136.967 99.1133C137.277 99.7559 137.78 100.077 138.478 100.077C139.179 100.077 139.683 99.7581 139.988 99.1201C140.298 98.4775 140.453 97.4066 140.453 95.9072ZM141.895 95.9072C141.895 97.6846 141.613 99.0107 141.048 99.8857C140.487 100.761 139.63 101.198 138.478 101.198C137.325 101.198 136.468 100.763 135.907 99.8926C135.347 99.0221 135.066 97.6937 135.066 95.9072C135.066 94.1253 135.347 92.7969 135.907 91.9219C136.472 91.0469 137.329 90.6094 138.478 90.6094C139.63 90.6094 140.487 91.0469 141.048 91.9219C141.613 92.7969 141.895 94.1253 141.895 95.9072ZM146.103 99.8652C147.265 99.8652 148.076 99.5804 148.536 99.0107C148.996 98.4365 149.227 97.402 149.227 95.9072C149.227 94.3988 148.996 93.3597 148.536 92.79C148.08 92.2158 147.269 91.9287 146.103 91.9287H145.446V99.8652H146.103ZM146.13 90.7939C147.689 90.7939 148.837 91.2087 149.575 92.0381C150.314 92.8675 150.683 94.1572 150.683 95.9072C150.683 97.6481 150.314 98.9333 149.575 99.7627C148.837 100.588 147.689 101 146.13 101H144.059V90.7939H146.13ZM158.164 95.9072C158.164 94.4079 158.009 93.3369 157.699 92.6943C157.394 92.0518 156.89 91.7305 156.189 91.7305C155.491 91.7305 154.988 92.0518 154.678 92.6943C154.373 93.3369 154.22 94.4079 154.22 95.9072C154.22 97.402 154.373 98.4707 154.678 99.1133C154.988 99.7559 155.491 100.077 156.189 100.077C156.89 100.077 157.394 99.7581 157.699 99.1201C158.009 98.4775 158.164 97.4066 158.164 95.9072ZM159.607 95.9072C159.607 97.6846 159.324 99.0107 158.759 99.8857C158.198 100.761 157.342 101.198 156.189 101.198C155.036 101.198 154.179 100.763 153.618 99.8926C153.058 99.0221 152.777 97.6937 152.777 95.9072C152.777 94.1253 153.058 92.7969 153.618 91.9219C154.183 91.0469 155.04 90.6094 156.189 90.6094C157.342 90.6094 158.198 91.0469 158.759 91.9219C159.324 92.7969 159.607 94.1253 159.607 95.9072Z" fill="white"/>
<line y1="37.5" x2="464" y2="37.5" stroke="#2C2B2B"/>
<circle cx="20.5" cy="19.5" r="5.5" fill="#ED6A5D"/>
<ellipse cx="40" cy="19.5" rx="6" ry="5.5" fill="#F5C050"/>
<ellipse cx="60" cy="19.5" rx="6" ry="5.5" fill="#62C654"/>
</svg>
