<svg width="464" height="298" viewBox="0 0 464 298" fill="none" xmlns="http://www.w3.org/2000/svg">
<path d="M0.5 10C0.5 4.7533 4.7533 0.5 10 0.5H454C459.247 0.5 463.5 4.75329 463.5 10V288C463.5 293.247 459.247 297.5 454 297.5H10C4.7533 297.5 0.5 293.247 0.5 288V10Z" fill="black" stroke="#464444"/>
<path d="M34.0771 66.7939H35.376L30.0029 78.2988H28.6973L34.0771 66.7939ZM42.9327 66.7939H44.2315L38.8585 78.2988H37.5528L42.9327 66.7939ZM61.8196 76.6104C61.4823 76.8063 61.1337 76.9521 60.7737 77.0479C60.4182 77.1481 60.0536 77.1982 59.6799 77.1982C58.495 77.1982 57.5676 76.8428 56.8977 76.1318C56.2323 75.4209 55.8996 74.4365 55.8996 73.1787C55.8996 71.9209 56.2323 70.9365 56.8977 70.2256C57.5676 69.5146 58.495 69.1592 59.6799 69.1592C60.0491 69.1592 60.4091 69.207 60.76 69.3027C61.1109 69.3984 61.4641 69.5465 61.8196 69.7471V71.0664C61.4869 70.7702 61.1519 70.556 60.8147 70.4238C60.482 70.2917 60.1038 70.2256 59.6799 70.2256C58.8915 70.2256 58.2854 70.4808 57.8616 70.9912C57.4377 71.5016 57.2258 72.2308 57.2258 73.1787C57.2258 74.1221 57.4377 74.8512 57.8616 75.3662C58.2899 75.8766 58.8961 76.1318 59.6799 76.1318C60.1174 76.1318 60.5093 76.0658 60.8557 75.9336C61.2021 75.7969 61.5233 75.5872 61.8196 75.3047V76.6104ZM71.3177 70.9229C71.0488 70.7132 70.7754 70.5605 70.4974 70.4648C70.2194 70.3691 69.914 70.3213 69.5814 70.3213C68.7975 70.3213 68.1982 70.5674 67.7835 71.0596C67.3688 71.5518 67.1614 72.2627 67.1614 73.1924V77H65.8968V69.3438H67.1614V70.8408C67.3711 70.2985 67.6924 69.8838 68.1253 69.5967C68.5628 69.305 69.0801 69.1592 69.6771 69.1592C69.987 69.1592 70.2764 69.1979 70.5452 69.2754C70.8141 69.3529 71.0716 69.4736 71.3177 69.6377V70.9229ZM79.934 72.543V73.1582H74.4857V73.1992C74.4493 74.2428 74.6475 74.9925 75.0805 75.4482C75.518 75.904 76.1332 76.1318 76.9262 76.1318C77.3272 76.1318 77.7465 76.068 78.184 75.9404C78.6215 75.8128 79.0886 75.6191 79.5854 75.3594V76.6104C79.1068 76.8063 78.6443 76.9521 78.1977 77.0479C77.7556 77.1481 77.3272 77.1982 76.9125 77.1982C75.723 77.1982 74.7934 76.8428 74.1234 76.1318C73.4535 75.4163 73.1186 74.432 73.1186 73.1787C73.1186 71.9574 73.4467 70.9821 74.1029 70.2529C74.7592 69.5238 75.6342 69.1592 76.7279 69.1592C77.7032 69.1592 78.4711 69.4896 79.0316 70.1504C79.5967 70.8112 79.8975 71.6087 79.934 72.543ZM78.6762 72.1738C78.6215 71.6452 78.4278 71.1895 78.0951 70.8066C77.767 70.4193 77.293 70.2256 76.6732 70.2256C76.0671 70.2256 75.5681 70.4261 75.1762 70.8271C74.7842 71.2282 74.5701 71.6794 74.5336 72.1807L78.6762 72.1738ZM85.9321 73.1514H85.5151C84.7814 73.1514 84.2277 73.2812 83.854 73.541C83.4848 73.7962 83.3003 74.179 83.3003 74.6895C83.3003 75.1497 83.4393 75.5075 83.7173 75.7627C83.9953 76.0179 84.3804 76.1455 84.8725 76.1455C85.5652 76.1455 86.1098 75.9062 86.5063 75.4277C86.9028 74.9447 87.1033 74.2793 87.1079 73.4316V73.1514H85.9321ZM88.3725 72.6318V77H87.1079V75.8652C86.839 76.321 86.4995 76.6582 86.0893 76.877C85.6837 77.0911 85.1893 77.1982 84.6059 77.1982C83.8266 77.1982 83.2046 76.9795 82.7397 76.542C82.2749 76.0999 82.0425 75.5098 82.0425 74.7715C82.0425 73.9193 82.3273 73.2721 82.897 72.8301C83.4712 72.388 84.312 72.167 85.4194 72.167H87.1079V71.9688C87.1033 71.3581 86.9484 70.916 86.643 70.6426C86.3377 70.3646 85.8501 70.2256 85.1802 70.2256C84.7518 70.2256 84.3188 70.2871 83.8813 70.4102C83.4438 70.5332 83.0177 70.7132 82.603 70.9502V69.6924C83.0679 69.5146 83.5122 69.3825 83.936 69.2959C84.3644 69.2048 84.7791 69.1592 85.1802 69.1592C85.8136 69.1592 86.3537 69.2526 86.8003 69.4395C87.2514 69.6263 87.616 69.9066 87.894 70.2803C88.0672 70.5081 88.1902 70.7907 88.2632 71.1279C88.3361 71.4606 88.3725 71.9619 88.3725 72.6318ZM94.1861 67.1699V69.3438H97.0435V70.3213H94.1861V74.4775C94.1861 75.0426 94.2932 75.4368 94.5074 75.6602C94.7216 75.8835 95.0953 75.9951 95.6285 75.9951H97.0435V77H95.5054C94.5621 77 93.8967 76.8109 93.5093 76.4326C93.122 76.0544 92.9283 75.4027 92.9283 74.4775V70.3213H90.8843V69.3438H92.9283V67.1699H94.1861ZM106.501 72.543V73.1582H101.052V73.1992C101.016 74.2428 101.214 74.9925 101.647 75.4482C102.085 75.904 102.7 76.1318 103.493 76.1318C103.894 76.1318 104.313 76.068 104.751 75.9404C105.188 75.8128 105.655 75.6191 106.152 75.3594V76.6104C105.673 76.8063 105.211 76.9521 104.764 77.0479C104.322 77.1481 103.894 77.1982 103.479 77.1982C102.29 77.1982 101.36 76.8428 100.69 76.1318C100.02 75.4163 99.6852 74.432 99.6852 73.1787C99.6852 71.9574 100.013 70.9821 100.67 70.2529C101.326 69.5238 102.201 69.1592 103.295 69.1592C104.27 69.1592 105.038 69.4896 105.598 70.1504C106.163 70.8112 106.464 71.6087 106.501 72.543ZM105.243 72.1738C105.188 71.6452 104.994 71.1895 104.662 70.8066C104.334 70.4193 103.86 70.2256 103.24 70.2256C102.634 70.2256 102.135 70.4261 101.743 70.8271C101.351 71.2282 101.137 71.6794 101.1 72.1807L105.243 72.1738ZM121.354 73.1514H120.937C120.204 73.1514 119.65 73.2812 119.276 73.541C118.907 73.7962 118.722 74.179 118.722 74.6895C118.722 75.1497 118.861 75.5075 119.139 75.7627C119.417 76.0179 119.803 76.1455 120.295 76.1455C120.987 76.1455 121.532 75.9062 121.929 75.4277C122.325 74.9447 122.526 74.2793 122.53 73.4316V73.1514H121.354ZM123.795 72.6318V77H122.53V75.8652C122.261 76.321 121.922 76.6582 121.512 76.877C121.106 77.0911 120.611 77.1982 120.028 77.1982C119.249 77.1982 118.627 76.9795 118.162 76.542C117.697 76.0999 117.465 75.5098 117.465 74.7715C117.465 73.9193 117.749 73.2721 118.319 72.8301C118.893 72.388 119.734 72.167 120.842 72.167H122.53V71.9688C122.526 71.3581 122.371 70.916 122.065 70.6426C121.76 70.3646 121.272 70.2256 120.602 70.2256C120.174 70.2256 119.741 70.2871 119.304 70.4102C118.866 70.5332 118.44 70.7132 118.025 70.9502V69.6924C118.49 69.5146 118.934 69.3825 119.358 69.2959C119.787 69.2048 120.201 69.1592 120.602 69.1592C121.236 69.1592 121.776 69.2526 122.222 69.4395C122.674 69.6263 123.038 69.9066 123.316 70.2803C123.489 70.5081 123.612 70.7907 123.685 71.1279C123.758 71.4606 123.795 71.9619 123.795 72.6318ZM140.542 73.1787C140.542 72.2035 140.387 71.4674 140.077 70.9707C139.767 70.474 139.309 70.2256 138.703 70.2256C138.092 70.2256 137.63 70.4762 137.315 70.9775C137.001 71.4743 136.844 72.208 136.844 73.1787C136.844 74.1449 137.001 74.8786 137.315 75.3799C137.63 75.8812 138.092 76.1318 138.703 76.1318C139.309 76.1318 139.767 75.8835 140.077 75.3867C140.387 74.89 140.542 74.154 140.542 73.1787ZM136.844 70.3213C137.044 69.9476 137.32 69.6605 137.671 69.46C138.026 69.2594 138.436 69.1592 138.901 69.1592C139.822 69.1592 140.547 69.5146 141.075 70.2256C141.604 70.932 141.868 71.9072 141.868 73.1514C141.868 74.4137 141.602 75.4049 141.068 76.125C140.54 76.8405 139.813 77.1982 138.888 77.1982C138.432 77.1982 138.029 77.1003 137.678 76.9043C137.331 76.7038 137.053 76.4144 136.844 76.0361V77H135.586V66.3633H136.844V70.3213ZM151.018 70.9229C150.749 70.7132 150.475 70.5605 150.197 70.4648C149.919 70.3691 149.614 70.3213 149.281 70.3213C148.497 70.3213 147.898 70.5674 147.483 71.0596C147.069 71.5518 146.861 72.2627 146.861 73.1924V77H145.597V69.3438H146.861V70.8408C147.071 70.2985 147.392 69.8838 147.825 69.5967C148.263 69.305 148.78 69.1592 149.377 69.1592C149.687 69.1592 149.976 69.1979 150.245 69.2754C150.514 69.3529 150.772 69.4736 151.018 69.6377V70.9229ZM156.776 73.1514H156.359C155.626 73.1514 155.072 73.2812 154.698 73.541C154.329 73.7962 154.145 74.179 154.145 74.6895C154.145 75.1497 154.284 75.5075 154.562 75.7627C154.84 76.0179 155.225 76.1455 155.717 76.1455C156.41 76.1455 156.954 75.9062 157.351 75.4277C157.747 74.9447 157.948 74.2793 157.952 73.4316V73.1514H156.776ZM159.217 72.6318V77H157.952V75.8652C157.683 76.321 157.344 76.6582 156.934 76.877C156.528 77.0911 156.034 77.1982 155.45 77.1982C154.671 77.1982 154.049 76.9795 153.584 76.542C153.119 76.0999 152.887 75.5098 152.887 74.7715C152.887 73.9193 153.172 73.2721 153.741 72.8301C154.316 72.388 155.156 72.167 156.264 72.167H157.952V71.9688C157.948 71.3581 157.793 70.916 157.487 70.6426C157.182 70.3646 156.694 70.2256 156.025 70.2256C155.596 70.2256 155.163 70.2871 154.726 70.4102C154.288 70.5332 153.862 70.7132 153.447 70.9502V69.6924C153.912 69.5146 154.357 69.3825 154.78 69.2959C155.209 69.2048 155.623 69.1592 156.025 69.1592C156.658 69.1592 157.198 69.2526 157.645 69.4395C158.096 69.6263 158.46 69.9066 158.738 70.2803C158.912 70.5081 159.035 70.7907 159.108 71.1279C159.18 71.4606 159.217 71.9619 159.217 72.6318ZM168.018 72.2559V77H166.753V72.2559C166.753 71.5677 166.632 71.0618 166.391 70.7383C166.149 70.4147 165.771 70.2529 165.256 70.2529C164.668 70.2529 164.215 70.4626 163.896 70.8818C163.581 71.2965 163.424 71.8936 163.424 72.6729V77H162.166V69.3438H163.424V70.4922C163.647 70.0547 163.95 69.7243 164.333 69.501C164.716 69.2731 165.169 69.1592 165.694 69.1592C166.473 69.1592 167.054 69.4167 167.437 69.9316C167.824 70.4421 168.018 71.2168 168.018 72.2559ZM176.942 76.6104C176.604 76.8063 176.256 76.9521 175.896 77.0479C175.54 77.1481 175.176 77.1982 174.802 77.1982C173.617 77.1982 172.69 76.8428 172.02 76.1318C171.354 75.4209 171.022 74.4365 171.022 73.1787C171.022 71.9209 171.354 70.9365 172.02 70.2256C172.69 69.5146 173.617 69.1592 174.802 69.1592C175.171 69.1592 175.531 69.207 175.882 69.3027C176.233 69.3984 176.586 69.5465 176.942 69.7471V71.0664C176.609 70.7702 176.274 70.556 175.937 70.4238C175.604 70.2917 175.226 70.2256 174.802 70.2256C174.014 70.2256 173.408 70.4808 172.984 70.9912C172.56 71.5016 172.348 72.2308 172.348 73.1787C172.348 74.1221 172.56 74.8512 172.984 75.3662C173.412 75.8766 174.018 76.1318 174.802 76.1318C175.24 76.1318 175.631 76.0658 175.978 75.9336C176.324 75.7969 176.645 75.5872 176.942 75.3047V76.6104ZM185.729 72.2559V77H184.464V72.2559C184.464 71.5677 184.343 71.0618 184.102 70.7383C183.86 70.4147 183.482 70.2529 182.967 70.2529C182.379 70.2529 181.926 70.4626 181.607 70.8818C181.292 71.2965 181.135 71.8936 181.135 72.6729V77H179.877V66.3633H181.135V70.4922C181.358 70.0547 181.661 69.7243 182.044 69.501C182.427 69.2731 182.881 69.1592 183.405 69.1592C184.184 69.1592 184.765 69.4167 185.148 69.9316C185.535 70.4421 185.729 71.2168 185.729 72.2559ZM35.4307 96.6406L36.3193 97.2422C35.9274 98.1354 35.5423 98.7461 35.1641 99.0742C34.7858 99.3978 34.3962 99.5596 33.9951 99.5596C33.3571 99.5231 32.7806 99.1927 32.2656 98.5684C31.7552 97.9395 31.3952 97.4951 31.1855 97.2354C30.9759 96.971 30.7048 96.8411 30.3721 96.8457C30.0212 96.8457 29.7546 97.012 29.5723 97.3447C29.39 97.6729 29.1986 98.0921 28.998 98.6025L28.0889 98.083C28.3532 97.2399 28.695 96.6178 29.1143 96.2168C29.5335 95.8158 29.9551 95.6152 30.3789 95.6152C31.1491 95.6061 31.8372 96.0618 32.4434 96.9824C33.054 97.903 33.5713 98.3633 33.9951 98.3633C34.3551 98.3633 34.6491 98.1673 34.877 97.7754C35.1048 97.3789 35.2894 97.0007 35.4307 96.6406Z" fill="#2C2B2B"/>
<path d="M48.3703 99.2383H50.7765V102H48.3703V99.2383ZM60.6438 91.7939H61.9426L56.5696 103.299H55.2639L60.6438 91.7939ZM64.9739 94.3301H70.5316V95.4785L66.1361 100.975H70.5316V102H64.8099V100.838L69.2054 95.335H64.9739V94.3301ZM79.934 97.543V98.1582H74.4857V98.1992C74.4493 99.2428 74.6475 99.9925 75.0805 100.448C75.518 100.904 76.1332 101.132 76.9262 101.132C77.3272 101.132 77.7465 101.068 78.184 100.94C78.6215 100.813 79.0886 100.619 79.5854 100.359V101.61C79.1068 101.806 78.6443 101.952 78.1977 102.048C77.7556 102.148 77.3272 102.198 76.9125 102.198C75.723 102.198 74.7934 101.843 74.1234 101.132C73.4535 100.416 73.1186 99.432 73.1186 98.1787C73.1186 96.9574 73.4467 95.9821 74.1029 95.2529C74.7592 94.5238 75.6342 94.1592 76.7279 94.1592C77.7032 94.1592 78.4711 94.4896 79.0316 95.1504C79.5967 95.8112 79.8975 96.6087 79.934 97.543ZM78.6762 97.1738C78.6215 96.6452 78.4278 96.1895 78.0951 95.8066C77.767 95.4193 77.293 95.2256 76.6732 95.2256C76.0671 95.2256 75.5681 95.4261 75.1762 95.8271C74.7842 96.2282 74.5701 96.6794 74.5336 97.1807L78.6762 97.1738ZM88.3179 97.2559V102H87.0532V97.2559C87.0532 96.5677 86.9324 96.0618 86.6909 95.7383C86.4494 95.4147 86.0711 95.2529 85.5561 95.2529C84.9682 95.2529 84.5148 95.4626 84.1958 95.8818C83.8813 96.2965 83.7241 96.8936 83.7241 97.6729V102H82.4663V94.3438H83.7241V95.4922C83.9474 95.0547 84.2505 94.7243 84.6333 94.501C85.0161 94.2731 85.4695 94.1592 85.9936 94.1592C86.7729 94.1592 87.354 94.4167 87.7368 94.9316C88.1242 95.4421 88.3179 96.2168 88.3179 97.2559ZM92.149 94.3711H95.3687V101.022H97.8638V102H91.6158V101.022H94.1109V95.3486H92.149V94.3711ZM94.1109 91.3975H95.3687V92.9834H94.1109V91.3975ZM103.042 92.1699V94.3438H105.899V95.3213H103.042V99.4775C103.042 100.043 103.149 100.437 103.363 100.66C103.577 100.883 103.951 100.995 104.484 100.995H105.899V102H104.361C103.418 102 102.752 101.811 102.365 101.433C101.978 101.054 101.784 100.403 101.784 99.4775V95.3213H99.7399V94.3438H101.784V92.1699H103.042ZM114.884 97.2559V102H113.62V97.2559C113.62 96.5677 113.499 96.0618 113.258 95.7383C113.016 95.4147 112.638 95.2529 112.123 95.2529C111.535 95.2529 111.081 95.4626 110.762 95.8818C110.448 96.2965 110.291 96.8936 110.291 97.6729V102H109.033V91.3633H110.291V95.4922C110.514 95.0547 110.817 94.7243 111.2 94.501C111.583 94.2731 112.036 94.1592 112.56 94.1592C113.34 94.1592 113.921 94.4167 114.303 94.9316C114.691 95.4421 114.884 96.2168 114.884 97.2559ZM131.686 98.1787C131.686 97.2035 131.531 96.4674 131.222 95.9707C130.912 95.474 130.454 95.2256 129.848 95.2256C129.237 95.2256 128.774 95.4762 128.46 95.9775C128.145 96.4743 127.988 97.208 127.988 98.1787C127.988 99.1449 128.145 99.8786 128.46 100.38C128.774 100.881 129.237 101.132 129.848 101.132C130.454 101.132 130.912 100.883 131.222 100.387C131.531 99.89 131.686 99.154 131.686 98.1787ZM127.988 95.3213C128.189 94.9476 128.464 94.6605 128.815 94.46C129.171 94.2594 129.581 94.1592 130.046 94.1592C130.966 94.1592 131.691 94.5146 132.22 95.2256C132.748 95.932 133.013 96.9072 133.013 98.1514C133.013 99.4137 132.746 100.405 132.213 101.125C131.684 101.84 130.957 102.198 130.032 102.198C129.576 102.198 129.173 102.1 128.822 101.904C128.476 101.704 128.198 101.414 127.988 101.036V102H126.73V91.3633H127.988V95.3213ZM142.162 95.9229C141.893 95.7132 141.62 95.5605 141.342 95.4648C141.064 95.3691 140.758 95.3213 140.426 95.3213C139.642 95.3213 139.043 95.5674 138.628 96.0596C138.213 96.5518 138.006 97.2627 138.006 98.1924V102H136.741V94.3438H138.006V95.8408C138.215 95.2985 138.537 94.8838 138.97 94.5967C139.407 94.305 139.924 94.1592 140.521 94.1592C140.831 94.1592 141.121 94.1979 141.39 94.2754C141.658 94.3529 141.916 94.4736 142.162 94.6377V95.9229ZM147.921 98.1514H147.504C146.77 98.1514 146.217 98.2812 145.843 98.541C145.474 98.7962 145.289 99.179 145.289 99.6895C145.289 100.15 145.428 100.507 145.706 100.763C145.984 101.018 146.369 101.146 146.861 101.146C147.554 101.146 148.099 100.906 148.495 100.428C148.892 99.9447 149.092 99.2793 149.097 98.4316V98.1514H147.921ZM150.361 97.6318V102H149.097V100.865C148.828 101.321 148.488 101.658 148.078 101.877C147.673 102.091 147.178 102.198 146.595 102.198C145.815 102.198 145.193 101.979 144.729 101.542C144.264 101.1 144.031 100.51 144.031 99.7715C144.031 98.9193 144.316 98.2721 144.886 97.8301C145.46 97.388 146.301 97.167 147.408 97.167H149.097V96.9688C149.092 96.3581 148.937 95.916 148.632 95.6426C148.327 95.3646 147.839 95.2256 147.169 95.2256C146.741 95.2256 146.308 95.2871 145.87 95.4102C145.433 95.5332 145.007 95.7132 144.592 95.9502V94.6924C145.057 94.5146 145.501 94.3825 145.925 94.2959C146.353 94.2048 146.768 94.1592 147.169 94.1592C147.802 94.1592 148.342 94.2526 148.789 94.4395C149.24 94.6263 149.605 94.9066 149.883 95.2803C150.056 95.5081 150.179 95.7907 150.252 96.1279C150.325 96.4606 150.361 96.9619 150.361 97.6318ZM159.162 97.2559V102H157.898V97.2559C157.898 96.5677 157.777 96.0618 157.535 95.7383C157.294 95.4147 156.915 95.2529 156.401 95.2529C155.813 95.2529 155.359 95.4626 155.04 95.8818C154.726 96.2965 154.568 96.8936 154.568 97.6729V102H153.311V94.3438H154.568V95.4922C154.792 95.0547 155.095 94.7243 155.478 94.501C155.86 94.2731 156.314 94.1592 156.838 94.1592C157.617 94.1592 158.198 94.4167 158.581 94.9316C158.969 95.4421 159.162 96.2168 159.162 97.2559ZM168.086 101.61C167.749 101.806 167.4 101.952 167.04 102.048C166.685 102.148 166.32 102.198 165.946 102.198C164.762 102.198 163.834 101.843 163.164 101.132C162.499 100.421 162.166 99.4365 162.166 98.1787C162.166 96.9209 162.499 95.9365 163.164 95.2256C163.834 94.5146 164.762 94.1592 165.946 94.1592C166.316 94.1592 166.676 94.207 167.027 94.3027C167.377 94.3984 167.731 94.5465 168.086 94.7471V96.0664C167.753 95.7702 167.418 95.556 167.081 95.4238C166.749 95.2917 166.37 95.2256 165.946 95.2256C165.158 95.2256 164.552 95.4808 164.128 95.9912C163.704 96.5016 163.492 97.2308 163.492 98.1787C163.492 99.1221 163.704 99.8512 164.128 100.366C164.557 100.877 165.163 101.132 165.946 101.132C166.384 101.132 166.776 101.066 167.122 100.934C167.469 100.797 167.79 100.587 168.086 100.305V101.61ZM176.873 97.2559V102H175.609V97.2559C175.609 96.5677 175.488 96.0618 175.246 95.7383C175.005 95.4147 174.627 95.2529 174.112 95.2529C173.524 95.2529 173.07 95.4626 172.751 95.8818C172.437 96.2965 172.28 96.8936 172.28 97.6729V102H171.022V91.3633H172.28V95.4922C172.503 95.0547 172.806 94.7243 173.189 94.501C173.572 94.2731 174.025 94.1592 174.549 94.1592C175.328 94.1592 175.909 94.4167 176.292 94.9316C176.68 95.4421 176.873 96.2168 176.873 97.2559ZM193.265 95.3213V91.3633H194.523V102H193.265V101.036C193.055 101.414 192.775 101.704 192.424 101.904C192.078 102.1 191.677 102.198 191.221 102.198C190.296 102.198 189.567 101.84 189.034 101.125C188.505 100.405 188.241 99.4137 188.241 98.1514C188.241 96.9072 188.507 95.932 189.04 95.2256C189.574 94.5146 190.301 94.1592 191.221 94.1592C191.681 94.1592 192.087 94.2594 192.438 94.46C192.789 94.6559 193.065 94.943 193.265 95.3213ZM189.567 98.1787C189.567 99.154 189.722 99.89 190.032 100.387C190.342 100.883 190.8 101.132 191.406 101.132C192.012 101.132 192.472 100.881 192.787 100.38C193.106 99.8786 193.265 99.1449 193.265 98.1787C193.265 97.208 193.106 96.4743 192.787 95.9775C192.472 95.4762 192.012 95.2256 191.406 95.2256C190.8 95.2256 190.342 95.474 190.032 95.9707C189.722 96.4674 189.567 97.2035 189.567 98.1787ZM203.912 97.543V98.1582H198.463V98.1992C198.427 99.2428 198.625 99.9925 199.058 100.448C199.496 100.904 200.111 101.132 200.904 101.132C201.305 101.132 201.724 101.068 202.162 100.94C202.599 100.813 203.066 100.619 203.563 100.359V101.61C203.084 101.806 202.622 101.952 202.175 102.048C201.733 102.148 201.305 102.198 200.89 102.198C199.701 102.198 198.771 101.843 198.101 101.132C197.431 100.416 197.096 99.432 197.096 98.1787C197.096 96.9574 197.424 95.9821 198.081 95.2529C198.737 94.5238 199.612 94.1592 200.706 94.1592C201.681 94.1592 202.449 94.4896 203.009 95.1504C203.574 95.8112 203.875 96.6087 203.912 97.543ZM202.654 97.1738C202.599 96.6452 202.405 96.1895 202.073 95.8066C201.745 95.4193 201.271 95.2256 200.651 95.2256C200.045 95.2256 199.546 95.4261 199.154 95.8271C198.762 96.2282 198.548 96.6794 198.511 97.1807L202.654 97.1738ZM209.732 95.123C209.887 94.7949 210.083 94.5534 210.32 94.3984C210.561 94.2389 210.851 94.1592 211.188 94.1592C211.803 94.1592 212.236 94.3984 212.487 94.877C212.742 95.3509 212.87 96.2464 212.87 97.5635V102H211.721V97.6182C211.721 96.5381 211.66 95.8682 211.537 95.6084C211.418 95.3441 211.199 95.2119 210.88 95.2119C210.516 95.2119 210.265 95.3532 210.129 95.6357C209.996 95.9137 209.93 96.5745 209.93 97.6182V102H208.782V97.6182C208.782 96.5244 208.716 95.8499 208.584 95.5947C208.456 95.3395 208.224 95.2119 207.886 95.2119C207.554 95.2119 207.321 95.3532 207.189 95.6357C207.061 95.9137 206.998 96.5745 206.998 97.6182V102H205.856V94.3438H206.998V95C207.148 94.7266 207.335 94.5192 207.558 94.3779C207.786 94.2321 208.044 94.1592 208.331 94.1592C208.677 94.1592 208.964 94.2389 209.192 94.3984C209.424 94.5579 209.604 94.7995 209.732 95.123ZM218.177 95.2256C217.539 95.2256 217.056 95.474 216.728 95.9707C216.4 96.4674 216.236 97.2035 216.236 98.1787C216.236 99.1494 216.4 99.8854 216.728 100.387C217.056 100.883 217.539 101.132 218.177 101.132C218.82 101.132 219.305 100.883 219.633 100.387C219.962 99.8854 220.126 99.1494 220.126 98.1787C220.126 97.2035 219.962 96.4674 219.633 95.9707C219.305 95.474 218.82 95.2256 218.177 95.2256ZM218.177 94.1592C219.239 94.1592 220.05 94.5033 220.611 95.1914C221.176 95.8796 221.459 96.8753 221.459 98.1787C221.459 99.4867 221.178 100.485 220.618 101.173C220.057 101.856 219.244 102.198 218.177 102.198C217.116 102.198 216.304 101.856 215.744 101.173C215.183 100.485 214.903 99.4867 214.903 98.1787C214.903 96.8753 215.183 95.8796 215.744 95.1914C216.304 94.5033 217.116 94.1592 218.177 94.1592ZM231.189 103.299V104.461H222.822V103.299H231.189ZM237.953 98.1787C237.953 97.2035 237.798 96.4674 237.488 95.9707C237.178 95.474 236.72 95.2256 236.114 95.2256C235.503 95.2256 235.041 95.4762 234.726 95.9775C234.412 96.4743 234.255 97.208 234.255 98.1787C234.255 99.1449 234.412 99.8786 234.726 100.38C235.041 100.881 235.503 101.132 236.114 101.132C236.72 101.132 237.178 100.883 237.488 100.387C237.798 99.89 237.953 99.154 237.953 98.1787ZM234.255 95.3213C234.455 94.9476 234.731 94.6605 235.082 94.46C235.437 94.2594 235.848 94.1592 236.312 94.1592C237.233 94.1592 237.958 94.5146 238.486 95.2256C239.015 95.932 239.279 96.9072 239.279 98.1514C239.279 99.4137 239.013 100.405 238.479 101.125C237.951 101.84 237.224 102.198 236.299 102.198C235.843 102.198 235.44 102.1 235.089 101.904C234.742 101.704 234.464 101.414 234.255 101.036V102H232.997V91.3633H234.255V95.3213ZM248.429 95.9229C248.16 95.7132 247.886 95.5605 247.608 95.4648C247.33 95.3691 247.025 95.3213 246.692 95.3213C245.908 95.3213 245.309 95.5674 244.894 96.0596C244.48 96.5518 244.272 97.2627 244.272 98.1924V102H243.008V94.3438H244.272V95.8408C244.482 95.2985 244.803 94.8838 245.236 94.5967C245.674 94.305 246.191 94.1592 246.788 94.1592C247.098 94.1592 247.387 94.1979 247.656 94.2754C247.925 94.3529 248.183 94.4736 248.429 94.6377V95.9229ZM254.188 98.1514H253.771C253.037 98.1514 252.483 98.2812 252.109 98.541C251.74 98.7962 251.556 99.179 251.556 99.6895C251.556 100.15 251.695 100.507 251.973 100.763C252.251 101.018 252.636 101.146 253.128 101.146C253.821 101.146 254.365 100.906 254.762 100.428C255.158 99.9447 255.359 99.2793 255.363 98.4316V98.1514H254.188ZM256.628 97.6318V102H255.363V100.865C255.094 101.321 254.755 101.658 254.345 101.877C253.939 102.091 253.445 102.198 252.861 102.198C252.082 102.198 251.46 101.979 250.995 101.542C250.53 101.1 250.298 100.51 250.298 99.7715C250.298 98.9193 250.583 98.2721 251.152 97.8301C251.727 97.388 252.567 97.167 253.675 97.167H255.363V96.9688C255.359 96.3581 255.204 95.916 254.898 95.6426C254.593 95.3646 254.105 95.2256 253.436 95.2256C253.007 95.2256 252.574 95.2871 252.137 95.4102C251.699 95.5332 251.273 95.7132 250.858 95.9502V94.6924C251.323 94.5146 251.768 94.3825 252.191 94.2959C252.62 94.2048 253.035 94.1592 253.436 94.1592C254.069 94.1592 254.609 94.2526 255.056 94.4395C255.507 94.6263 255.871 94.9066 256.149 95.2803C256.323 95.5081 256.446 95.7907 256.519 96.1279C256.591 96.4606 256.628 96.9619 256.628 97.6318ZM265.429 97.2559V102H264.164V97.2559C264.164 96.5677 264.043 96.0618 263.802 95.7383C263.56 95.4147 263.182 95.2529 262.667 95.2529C262.079 95.2529 261.626 95.4626 261.307 95.8818C260.992 96.2965 260.835 96.8936 260.835 97.6729V102H259.577V94.3438H260.835V95.4922C261.058 95.0547 261.361 94.7243 261.744 94.501C262.127 94.2731 262.58 94.1592 263.105 94.1592C263.884 94.1592 264.465 94.4167 264.848 94.9316C265.235 95.4421 265.429 96.2168 265.429 97.2559ZM274.353 101.61C274.015 101.806 273.667 101.952 273.307 102.048C272.951 102.148 272.587 102.198 272.213 102.198C271.028 102.198 270.101 101.843 269.431 101.132C268.765 100.421 268.433 99.4365 268.433 98.1787C268.433 96.9209 268.765 95.9365 269.431 95.2256C270.101 94.5146 271.028 94.1592 272.213 94.1592C272.582 94.1592 272.942 94.207 273.293 94.3027C273.644 94.3984 273.997 94.5465 274.353 94.7471V96.0664C274.02 95.7702 273.685 95.556 273.348 95.4238C273.015 95.2917 272.637 95.2256 272.213 95.2256C271.425 95.2256 270.819 95.4808 270.395 95.9912C269.971 96.5016 269.759 97.2308 269.759 98.1787C269.759 99.1221 269.971 99.8512 270.395 100.366C270.823 100.877 271.429 101.132 272.213 101.132C272.651 101.132 273.042 101.066 273.389 100.934C273.735 100.797 274.056 100.587 274.353 100.305V101.61ZM283.14 97.2559V102H281.875V97.2559C281.875 96.5677 281.754 96.0618 281.513 95.7383C281.271 95.4147 280.893 95.2529 280.378 95.2529C279.79 95.2529 279.337 95.4626 279.018 95.8818C278.703 96.2965 278.546 96.8936 278.546 97.6729V102H277.288V91.3633H278.546V95.4922C278.769 95.0547 279.072 94.7243 279.455 94.501C279.838 94.2731 280.292 94.1592 280.816 94.1592C281.595 94.1592 282.176 94.4167 282.559 94.9316C282.946 95.4421 283.14 96.2168 283.14 97.2559ZM298.288 95.123C298.442 94.7949 298.638 94.5534 298.875 94.3984C299.117 94.2389 299.406 94.1592 299.744 94.1592C300.359 94.1592 300.792 94.3984 301.042 94.877C301.298 95.3509 301.425 96.2464 301.425 97.5635V102H300.277V97.6182C300.277 96.5381 300.215 95.8682 300.092 95.6084C299.974 95.3441 299.755 95.2119 299.436 95.2119C299.071 95.2119 298.821 95.3532 298.684 95.6357C298.552 95.9137 298.486 96.5745 298.486 97.6182V102H297.337V97.6182C297.337 96.5244 297.271 95.8499 297.139 95.5947C297.011 95.3395 296.779 95.2119 296.442 95.2119C296.109 95.2119 295.877 95.3532 295.745 95.6357C295.617 95.9137 295.553 96.5745 295.553 97.6182V102H294.412V94.3438H295.553V95C295.704 94.7266 295.89 94.5192 296.114 94.3779C296.342 94.2321 296.599 94.1592 296.886 94.1592C297.232 94.1592 297.52 94.2389 297.747 94.3984C297.98 94.5579 298.16 94.7995 298.288 95.123ZM307.321 98.1514H306.904C306.17 98.1514 305.616 98.2812 305.243 98.541C304.874 98.7962 304.689 99.179 304.689 99.6895C304.689 100.15 304.828 100.507 305.106 100.763C305.384 101.018 305.769 101.146 306.261 101.146C306.954 101.146 307.499 100.906 307.895 100.428C308.291 99.9447 308.492 99.2793 308.497 98.4316V98.1514H307.321ZM309.761 97.6318V102H308.497V100.865C308.228 101.321 307.888 101.658 307.478 101.877C307.072 102.091 306.578 102.198 305.995 102.198C305.215 102.198 304.593 101.979 304.128 101.542C303.664 101.1 303.431 100.51 303.431 99.7715C303.431 98.9193 303.716 98.2721 304.286 97.8301C304.86 97.388 305.701 97.167 306.808 97.167H308.497V96.9688C308.492 96.3581 308.337 95.916 308.032 95.6426C307.726 95.3646 307.239 95.2256 306.569 95.2256C306.14 95.2256 305.707 95.2871 305.27 95.4102C304.832 95.5332 304.406 95.7132 303.992 95.9502V94.6924C304.457 94.5146 304.901 94.3825 305.325 94.2959C305.753 94.2048 306.168 94.1592 306.569 94.1592C307.202 94.1592 307.742 94.2526 308.189 94.4395C308.64 94.6263 309.005 94.9066 309.283 95.2803C309.456 95.5081 309.579 95.7907 309.652 96.1279C309.725 96.4606 309.761 96.9619 309.761 97.6318ZM313.538 94.3711H316.757V101.022H319.253V102H313.004V101.022H315.5V95.3486H313.538V94.3711ZM315.5 91.3975H316.757V92.9834H315.5V91.3975ZM327.418 97.2559V102H326.153V97.2559C326.153 96.5677 326.032 96.0618 325.791 95.7383C325.549 95.4147 325.171 95.2529 324.656 95.2529C324.068 95.2529 323.615 95.4626 323.296 95.8818C322.981 96.2965 322.824 96.8936 322.824 97.6729V102H321.566V94.3438H322.824V95.4922C323.047 95.0547 323.35 94.7243 323.733 94.501C324.116 94.2731 324.569 94.1592 325.093 94.1592C325.873 94.1592 326.454 94.4167 326.837 94.9316C327.224 95.4421 327.418 96.2168 327.418 97.2559Z" fill="white"/>
<line y1="37.5" x2="464" y2="37.5" stroke="#2C2B2B"/>
<ellipse cx="23.5" cy="19" rx="5.5" ry="6" fill="#ED6A5D"/>
<circle cx="43" cy="19" r="6" fill="#F5C050"/>
<circle cx="63" cy="19" r="6" fill="#62C654"/>
</svg>
