<svg xmlns="http://www.w3.org/2000/svg" width="3032" height="48" fill="none">
  <path fill="url(#a)" fill-rule="evenodd" d="M84.2558 7.63124c1.1322.43738 1.6302 1.70576 1.1775 2.75546-.3623.831-1.1775 1.3122-2.0378 1.3122-.2716 0-.5886-.0438-.8602-.175-5.4791-2.23064-11.3205-3.32408-17.2524-3.32408-1.2226 0-2.1735-.96221-2.1735-2.0994 0-1.13719.9962-2.09941 2.1735-2.09941 6.5658-.04374 12.9505 1.18091 18.9729 3.63023Zm-.0114 8.48796c1.1319.4373 1.6299 1.7058 1.1772 2.7555-.3623.831-1.1772 1.3121-2.0378 1.3121-.2716 0-.5886-.0438-.8602-.175-5.4791-2.2306-11.2751-3.324-17.2523-3.324-6.0225 0-11.8185 1.0934-17.2523 3.2803-1.132.4374-2.3999-.0437-2.8527-1.1372-.4528-1.0934.0453-2.3181 1.1773-2.7555 5.9772-2.4056 12.3166-3.6302 18.9277-3.6302 6.5658 0 12.9504 1.2246 18.9731 3.674ZM77.452 24.516c.2717-1.1371-.498-2.2306-1.6752-2.493-3.4869-.7435-7.0188-1.0934-10.5055-1.0934-6.6111 0-12.9505 1.2246-18.9277 3.6302-1.132.4374-1.6301 1.662-1.1773 2.7555.3622.831 1.1773 1.3121 2.0376 1.3121.317 0 .5887-.0875.8604-.175 5.4338-2.2306 11.2298-3.324 17.2523-3.324 3.1244 0 6.3394.3499 9.5544 1.0059 1.1774.2625 2.3094-.4811 2.581-1.6183Zm-12.1354 4.8511c1.2226 0 2.1735.9622 2.1735 2.0995 0 1.137-.9962 2.0992-2.1735 2.0992-6.0225 0-11.8185 1.0936-17.2523 3.3242-.2717.0875-.5434.175-.8604.175-.8603 0-1.6754-.4811-2.0376-1.3123-.4528-1.0933.0453-2.3181 1.1773-2.7555 6.0224-2.4055 12.3619-3.6301 18.973-3.6301Zm39.8104 6.6073v1.6066h-4.416V13.6405h4.485v9.4571c.753-1.1573 2.601-2.2154 5.1-2.2154 4.93 0 7.772 3.6704 7.772 8.4982 0 4.927-3.15 8.5974-7.943 8.5974-2.328 0-3.286-.2261-4.998-2.0034Zm4.211-1.9315c2.328 0 4.633-1.5819 4.633-4.5578 0-2.976-2.305-4.668-4.633-4.668-2.294 0-4.639 1.692-4.639 4.668 0 2.9429 2.345 4.5578 4.639 4.5578Zm22.958 3.5463h4.348c-.068-.5622-.171-1.6864-.171-2.943v-13.326h-4.553v9.4572c0 1.8848-1.164 3.2075-3.184 3.2075-2.123 0-3.081-1.4549-3.081-3.2736v-9.3911h-4.553v10.2839c0 3.5381 2.327 6.4149 6.401 6.4149 1.781 0 3.732-.6613 4.656-2.1824 0 .6614.069 1.4219.137 1.7526Zm16.411-12.7356c-1.986 0-3.15 1.488-3.15 3.3728v9.358h-4.553v-16.269h4.553v.983c1.259-1.2632 3.29-1.1553 4.442-1.0941.136.0072.26.0138.369.0174 2.853.0937 6.007 2.5407 6.007 6.1119v10.2508h-4.553v-9.4902c0-1.8187-.925-3.2406-3.115-3.2406Zm48.422 8.2015c.205 1.8517 1.951 5.0261 7.018 5.0261 4.416 0 6.539-2.7115 6.539-5.3568 0-2.3809-1.678-4.3319-4.998-4.9932l-2.397-.496c-.924-.1654-1.541-.6614-1.541-1.455 0-.9258.959-1.6202 2.157-1.6202 1.918 0 2.636 1.2234 2.773 2.1824l3.8-.8267c-.205-1.7525-1.814-4.6955-6.607-4.6955-3.629 0-6.299 2.4139-6.299 5.3238 0 2.2816 1.472 4.1664 4.724 4.8609l2.226.496c1.301.2646 1.814.8598 1.814 1.5872 0 .8598-.719 1.6203-2.225 1.6203-1.986 0-2.979-1.1904-3.081-2.48l-3.903.8267Zm24.597-8.2049c-1.917 0-3.047 1.3888-3.149 3.1744v9.5564h-4.554V13.6405h4.554v9.0273c1.095-1.2566 2.944-1.7856 4.553-1.7856 4.279 0 6.265 2.8768 6.265 6.448V37.581h-4.554v-9.4902c0-1.8187-.924-3.2406-3.115-3.2406Zm15.268 2.7487c.102-1.488 1.403-3.2075 3.765-3.2075 2.602 0 3.698 1.5872 3.766 3.2075h-7.531Zm7.976 4.2327c-.548 1.4549-1.712 2.48-3.834 2.48-2.26 0-4.142-1.5541-4.245-3.7036h12.05c0-.0162.004-.0681.011-.1465v-.0001c.019-.2417.058-.7349.058-1.2091 0-5.2246-3.116-8.4321-8.319-8.4321-4.314 0-8.285 3.3728-8.285 8.5643 0 5.4892 4.074 8.6967 8.696 8.6967 4.142 0 6.812-2.3477 7.668-5.1584l-3.8-1.0912Zm11.833-18.1911V37.581h-4.553V13.6405h4.553Zm9.078 23.9405V13.6405h-4.553V37.581h4.553Zm-64.856-23.9405L185.8 43.996h-4.827l15.018-30.3555h5.034Zm-18.826 7.2422h-5.101l3.207 7.2637 1.603 3.632.802 1.8157 2.852-5.5689-1.121-2.3809-1.121-2.3808-1.121-2.3808Zm-13.887 3.9709c-1.986 0-3.15 1.488-3.15 3.3728v9.358h-4.553v-16.269h4.553v.983c1.259-1.2632 3.29-1.1553 4.442-1.0941.137.0072.261.0138.37.0174 2.853.0937 6.007 2.5407 6.007 6.1119v10.2508h-4.554v-9.4903c0-1.8186-.924-3.2405-3.115-3.2405Z" clip-rule="evenodd"/>
  <path fill="url(#b)" d="M436.471 15c-6.429 0-11.065 4.05-11.065 10.125s5.218 10.125 11.647 10.125c3.884 0 7.309-1.485 9.428-3.9881l-4.455-2.4863c-1.176 1.2432-2.964 1.9688-4.973 1.9688-2.789 0-5.159-1.4063-6.039-3.6563h16.318c.128-.63.203-1.2825.203-1.9687C447.535 19.05 442.9 15 436.471 15Zm-5.509 8.1562c.728-2.2443 2.719-3.6562 5.503-3.6562 2.789 0 4.781 1.4119 5.503 3.6562h-11.006ZM499.178 15c-6.429 0-11.064 4.05-11.064 10.125s5.218 10.125 11.647 10.125c3.884 0 7.308-1.485 9.428-3.9881l-4.455-2.4863c-1.176 1.2432-2.964 1.9688-4.973 1.9688-2.79 0-5.16-1.4063-6.039-3.6563h16.317c.128-.63.204-1.2825.204-1.9687C510.243 19.05 505.608 15 499.178 15Zm-5.503 8.1562c.728-2.2443 2.72-3.6562 5.503-3.6562 2.79 0 4.781 1.4119 5.504 3.6562h-11.007Zm-22.729 1.9688c0 3.375 2.283 5.625 5.824 5.625 2.399 0 4.198-1.0519 5.124-2.7675l4.473 2.4919c-1.852 2.9812-5.323 4.7756-9.597 4.7756-6.435 0-11.065-4.05-11.065-10.125S470.34 15 476.77 15c4.274 0 7.739 1.7944 9.597 4.7756l-4.473 2.4919c-.926-1.7156-2.725-2.7675-5.124-2.7675-3.535 0-5.824 2.25-5.824 5.625Zm48.032-16.3125v25.875h-5.241V8.8125h5.241ZM375.854 6l21.518 36h-43.036l21.518-36Zm53.797 2.8125-16.137 27-16.136-27h6.05l10.086 16.875 10.087-16.875h6.05Zm34.307 6.75v5.4506c-.583-.1631-1.2-.2756-1.864-.2756-3.383 0-5.823 2.25-5.823 5.625v8.325h-5.241v-19.125h5.241v5.175c0-2.8575 3.441-5.175 7.687-5.175Z"/>
  <path fill="url(#c)" fill-rule="evenodd" d="M610.663 4.00002c-1.429 0-2.589 1.12029-2.589 2.50165v8.33113c0 1.3814 1.16 2.5017 2.589 2.5017h14.664v13.3311h-14.664c-1.429 0-2.589 1.1203-2.589 2.5016v8.3312c0 1.3813 1.16 2.5016 2.589 2.5016h12.074c1.43 0 2.59-1.1203 2.59-2.5016V30.6722h14.663c1.43 0 2.589-1.1203 2.589-2.5017v-8.3344c0-1.3814-1.159-2.5016-2.589-2.5016h-14.66V6.50167c0-1.38136-1.159-2.50165-2.589-2.50165h-12.078Zm163.113 5.97969c0-.40648-.349-.72042-.797-.72042h-3.284c-.448 0-.797.33708-.797.72042v4.61669h-5.103c-.448 0-.797.337-.797.7204v2.3794c0 .4064.349.7204.797.7204h5.103v7.072c0 5.4098 2.637 7.9115 8.315 7.9115h4.628c.448 0 .797-.3371.797-.7205v-2.3793c0-.4065-.349-.7205-.797-.7205h-3.882c-3.089 0-4.183-1.1797-4.183-4.1143V18.443h8.636c.448-.0264.797-.3635.797-.7468v-2.3794c0-.4065-.349-.7204-.797-.7204h-8.636V9.97971Zm-15.932 5.34039c0-.4065-.349-.7204-.797-.7204v.0033h-10.032c-.448 0-.797.3371-.797.7204v2.3794c0 .4065.349.7204.797.7204h5.948v11.16h-5.948c-.448 0-.797.337-.797.7204v2.3793c0 .4065.349.7205.797.7205h16.927c.448 0 .797-.3371.797-.7205v-2.3793c0-.4065-.349-.7204-.797-.7204h-6.098V15.3201Zm.198-7.26372c-.024-.40648-.373-.72042-.797-.72042h-4.481c-.448 0-.797.33708-.797.72042v3.05352c0 .4065.349.7204.797.7204h4.481c.448 0 .797-.337.797-.7204V8.05638ZM737.379 29.5832h5.08c.448 0 .797.3106.797.7204v2.3793c0 .3834-.349.7205-.797.7205h-16.555c-.448 0-.797-.3107-.797-.7205v-2.3793c0-.3834.349-.7204.797-.7204h6.598V11.1595h-5.876c-.448 0-.797-.3107-.797-.7204V8.05638c0-.38334.349-.72042.797-.72042h9.957c.448 0 .796.31064.796.72042V29.5832Zm-25.813-14.121c.944-.8658 2.165-1.226 3.858-1.226 4.956 0 7.843 3.2253 7.863 9.7885 0 6.5664-2.91 9.7885-7.74 9.7885-1.666 0-2.787-.4098-3.708-1.2261l-1.169-1.0806-1.095.2412.424 2.8619V39.95c0 .3833-.349.7204-.797.7204h-3.287c-.448 0-.797-.3106-.797-.7204V15.3201c0-.3833.349-.7204.797-.7204h2.241c.376 0 .674.2379.773.5519l.396 1.3945h1.071l1.17-1.0839Zm-1.594 10.8493c0 2.3331 1.368 3.5592 3.834 3.5592 3.014 0 4.358-1.8275 4.382-5.889 0-4.0185-1.368-5.846-4.382-5.846-2.49 0-3.834 1.226-3.834 3.5591v4.6167Zm-28.403-2.31c0-6.5433 3.362-9.7653 9.635-9.7653 6.448 0 9.56 3.2485 8.811 10.4891h-13.616c.198 3.8731 1.693 5.532 4.829 5.532 2.018 0 3.51-.6742 4.033-2.0919.123-.2908.421-.4824.746-.4824h2.986c.499 0 .896.4329.773.8889-.821 3.2948-3.91 5.2181-8.688 5.2181-6.174 0-9.509-3.2221-9.509-9.7885Zm9.611-6.3714c-2.688 0-4.159 1.3219-4.631 4.1606h8.914c-.076-2.6933-1.42-4.1606-4.283-4.1606Zm-20.44-1.1071 1.122-1.0839c.971-.8659 2.439-1.2029 4.303-1.1765h2.538c.448 0 .797.3106.797.7204v2.6206c0 .3834-.349.7205-.797.7205h-4.283c-2.637 0-3.981 1.1533-3.981 3.3674v7.8883h5.702c.448 0 .797.3107.797.7205v2.3793c0 .3834-.349.7205-.797.7205h-15.508c-.448 0-.797-.3107-.797-.7205v-2.3793c0-.3834.349-.7205.797-.7205h4.929V18.4199h-4.231c-.448 0-.797-.3106-.797-.7204v-2.3794c0-.3833.349-.7204.797-.7204h7.169c.376 0 .698.2148.773.5519l.349 1.3714h1.118Z" clip-rule="evenodd"/>
  <g clip-path="url(#d)">
    <path fill="url(#e)" fill-rule="evenodd" d="M916.571.534913c2.719 3.141987 3.563 11.652587 2.16 15.918587-.466 1.4185-.598 2.9172-.329 4.3731.274 1.4452.548 3.1902.548 4.4051 0 12.4718-10.353 22.5879-23.129 22.5879-12.77 0-23.128-10.1108-23.128-22.5879 0-1.2149.274-2.9599.548-4.4051.274-1.4559.148-2.9546-.318-4.3731-1.403-4.2607-.559-12.77127 2.159-15.918587.356-.406797 1.02-.35327 1.316.101698l3.348 5.133129c.833 1.02234 2.324 1.26325 3.442.546 3.634-2.32304 7.975-3.67191 12.639-3.67191s9.004 1.34887 12.638 3.67191c1.124.71725 2.615.48171 3.442-.546l3.349-5.133129c.296-.454968.959-.513847 1.315-.101698ZM877.916 25.2853c0 9.6454 8.029 17.4924 17.905 17.4924 9.876 0 17.911-7.847 17.917-17.487 0-.3105-.011-.6263-.028-.9367-.356-6.5677-4.445-12.1879-10.227-14.86421-2.324-1.08657-4.916-1.68605-7.656-1.68605-2.741 0-5.339.59948-7.657 1.68074-5.782 2.67632-9.871 8.29112-10.227 14.86412-.016.3105-.027.6209-.027.9367Zm21.089-1.016 4.576 7.7507c.093.1552.093.3479 0 .4978-.088.1552-.258.2515-.444.2515h-3.721c-.181 0-.351-.0963-.444-.2515l-2.445-4.1377-2.723 4.1535c-.094.1447-.258.2304-.433.2304h-3.777c-.191 0-.367-.1019-.455-.2624-.087-.1606-.082-.3585.022-.5137l5.037-7.5045-3.754-6.1608c-.093-.1552-.099-.3479-.006-.5031.094-.1607.263-.257.45-.257h3.749c.18 0 .35.091.444.2462l3.924 6.4606Zm41.275-11.9724h4.774v25.5638h-4.774V26.9683h-5.393v10.898h-4.774V12.2969h4.774v11.1012h5.393V12.2969Zm18.503 20.2621.998 5.3096h4.801l-5.519-25.5639h-6.429l-5.267 25.5639h4.774l.915-5.3096h5.727Zm-.663-3.5275h-4.439l2.159-12.236 2.28 12.236Zm17.094 4.1749v-5.4702c0-.4336-.082-.7226-.246-.8725-.165-.1499-.472-.2248-.916-.2248h-3.359c-2.85 0-4.275-1.3488-4.275-4.0519v-6.2732c0-2.6764 1.49-4.0091 4.477-4.0091h4.566c2.987 0 4.478 1.3381 4.478 4.0091v3.5648h-4.812v-2.9172c0-.4336-.083-.7226-.247-.8725-.164-.1498-.471-.2247-.915-.2247h-1.578c-.472 0-.79.0749-.954.2247-.165.1499-.247.4389-.247.8725v5.1439c0 .4335.082.7225.247.8724.164.1499.482.2248.954.2248h3.277c2.904 0 4.357 1.3221 4.357 3.9717v6.6855c0 2.6761-1.507 4.0089-4.522 4.0089h-4.483c-3.014 0-4.521-1.3381-4.521-4.0089v-3.5275h4.768v2.8742c0 .4335.082.7228.246.8727.165.1496.483.2247.954.2247h1.578c.444 0 .746-.0751.916-.2247.17-.1499.257-.4392.257-.8727Zm22.314-20.9095h-4.768v20.9072c0 .4335-.083.7225-.247.8724-.164.1499-.483.2247-.954.2247h-2.197c-.444 0-.752-.0748-.916-.2247-.164-.1499-.246-.4389-.246-.8724V12.2969h-4.774v21.5548c0 2.6709 1.507 4.009 4.522 4.009h5.058c3.015 0 4.522-1.3328 4.522-4.009V12.2969Zm8.712 15.6028v9.9666h-4.77V12.2969h9.63c3.01 0 4.52 1.3381 4.52 4.0091v7.5792c0 2.216-1.01 3.5113-3.03 3.8913l4.36 10.0898h-5.15l-3.99-9.9666h-1.57Zm0-12.038v8.5909h3.44c.45 0 .75-.0749.92-.2248.16-.1499.24-.4389.24-.8725V16.959c0-.4336-.08-.7226-.24-.8725-.17-.1499-.47-.2248-.92-.2248h-3.44Zm22.82 16.6973 1 5.3096h4.8l-5.52-25.5639h-6.42l-5.27 25.5639h4.77l.91-5.3096h5.73Zm-.66-3.5275h-4.44l2.16-12.236 2.28 12.236Z" clip-rule="evenodd"/>
  </g>
  <path fill="url(#f)" d="M1123.4 7v9.35h9.68V7h-9.68Z"/>
  <path fill="url(#g)" d="M1133.08 19.75h-9.68V41h9.68V19.75Z"/>
  <path fill="url(#h)" d="M1146.28 41h-9.68V7h9.68v34Z"/>
  <path fill="url(#i)" d="M1149.8 7v34h9.68V7h-9.68Z"/>
  <path fill="url(#j)" fill-rule="evenodd" d="M1180.6 7c9.72 0 17.6 7.6111 17.6 17v17h-9.68v-1.8144c-2.38 1.1607-5.07 1.8144-7.92 1.8144-9.72 0-17.6-7.6111-17.6-17s7.88-17 17.6-17Zm0 24.65c4.37 0 7.92-3.425 7.92-7.65 0-4.225-3.55-7.65-7.92-7.65-4.38 0-7.92 3.425-7.92 7.65 0 4.225 3.54 7.65 7.92 7.65Z" clip-rule="evenodd"/>
  <g clip-path="url(#k)">
    <path fill="url(#l)" fill-rule="evenodd" d="m1377.23 10.9601.03 23.2898c0 3.8823 1.48 5.2701 5.39 5.2806 1.11 0 3.13-.283 4.04-.8385v-4.3226h-2.99l-.02-19.3572v-4.8403l-6.45.7882Zm-39.06 14.3651h2.48v8.6661c0 4.3226 2.51 5.7103 6.14 5.7103 2.43 0 4.45-.4759 6.35-1.5869l-.95-3.7733c-1.07.3165-2.02.5555-2.97.5555-1.65 0-2.31-.5954-2.31-2.5784V25.323h5.82l.01-4.2051h-5.82v-5.9304l-6.22.8385v5.094h-2.53v4.2052Zm-9.49-5.1924c-5.98 0-10.34 3.767-10.34 10.3096 0 6.029 3.42 9.2404 9.6 9.2321 4.29 0 7.71-1.0712 9.44-2.6959l-1.39-3.8823c-2.1 1.0716-4.43 1.6424-6.81 1.6645-3.71 0-4.86-2.2556-4.86-5.0311 0-3.6896 2.23-4.8781 4.08-4.8781.87 0 1.61.0796 1.94.3165l.99 2.6183 4.24-.2788c.45-.888.68-1.8669.66-2.8551 0-3.7273-4.04-4.5197-7.55-4.5197Zm25.93 10.4219c0-6.1463 3.46-10.3516 10.51-10.3516 6.18 0 9.36 3.4107 9.36 9.0435 0 6.8989-3.8 10.429-10.64 10.429-5.19 0-9.23-2.8551-9.23-9.1209Zm9.85-5.9892c-2.4 0-3.63 1.7462-3.63 5.2764 0 3.1319.78 5.5908 3.67 5.5908 2.88 0 3.75-1.9831 3.75-5.5132 0-3.1717-.99-5.354-3.79-5.354Zm26.2 1.6297v-5.4986h6.2s-.02.8176-.02 5.18v13.2255h-6.2c.02-.9811.02-11.0831.02-12.9069Zm-.58-11.3808c0-2.0229 1.65-3.1738 3.92-3.1738 1.86 0 3.38.9517 3.38 2.9747 0 2.0963-1.44 3.2912-3.96 3.2912-2.07-.0084-3.34-1.2662-3.34-3.0921Zm17.96 20.3795c-1.94 0-4.54-.5534-6.35-2.0606l-1.49 3.9138c1.49 1.7043 4.79 2.6959 8.04 2.6959 5.12 0 8.58-2.4129 8.58-6.4986 0-4.2581-3.81-4.9662-6.84-5.5281-1.98-.3694-3.63-.6756-3.63-1.8865 0-.9517.99-1.348 2.72-1.348 1.36 0 3.29.237 5.69 1.2285l1.07-3.8865c-2.15-1.5471-5.11-1.8238-6.84-1.8238-5.36 0-8.08 2.6958-8.08 6.0667 0 3.417 2.84 4.528 5.56 5.2407.12.0315.25.0644.38.0988 1.7.445 4.4 1.1488 4.4 2.4 0 .9518-1.52 1.3877-3.21 1.3877ZM1304.58 24.336c1.47 0 2.67-1.1525 2.67-2.5742 0-1.4218-1.2-2.5743-2.67-2.5743-1.48 0-2.68 1.1525-2.68 2.5743 0 1.4217 1.2 2.5742 2.68 2.5742Zm-.9-12.1407c8.41 0 12.94 4.5637 12.94 13.1312 0 7.0834-2.89 11.4877-7.89 13.3283.35.7997.62 1.6313.79 2.482.12.6693.18 1.3451.2 2.0229.02.5952-.19 1.1774-.58 1.6342-.4.4568-.96.7558-1.57.8394-.36.0513-.73.0269-1.08-.0715-.35-.0984-.67-.2685-.94-.4985-.28-.2299-.5-.5143-.64-.8335-.15-.3192-.23-.6657-.22-1.0156.01-.4374-.01-.8755-.08-1.3081-.37-1.7671-.95-2.22-1.79-2.2535h-.29c-.3 0-.6-.0084-.9-.021-.13 1.0453-.35 2.0795-.64 3.0942-.64 2.438-1.75 5.3728-3.25 5.073-1.76-.3501-3.74-1.5827-2.78-4.6496.12-.4014.24-.7885.36-1.1586.6-1.8661 1.06-3.2966.08-3.9123l-.31-.1761c-.86-.5366-1.73-.1991-2.76 1.3102-.23.3765-.42.7739-.57 1.1865-.14.3259-.34.6203-.6.8632-.26.2428-.58.4281-.92.5433-.34.1151-.71.1574-1.07.1237-.36-.0336-.71-.1423-1.03-.3186-.53-.2976-.94-.7761-1.13-1.3429-.19-.5667-.16-1.1817.1-1.726.27-.6228.59-1.2266.96-1.8071.8-1.2291 1.83-2.3004 3.05-3.1569-.95-1.9433-1.46-4.375-1.46-7.3372 0-9.0412 5.61-14.0451 14.02-14.0451Zm-7.2 13.452c0 5.2051 1.71 8.928 6.7 8.928 4.37 0 6.66-2.5616 6.66-8.7268 0-5.6055-2.33-8.5277-6.58-8.5277-4.24 0-6.78 2.8761-6.78 8.3265Z" clip-rule="evenodd"/>
  </g>
  <g clip-path="url(#m)">
    <path fill="url(#n)" fill-rule="evenodd" d="m1564.54 35.9749-.45 1.4878c-.04.152-.14.285-.27.379-.14.0939-.3.1439-.46.1423h-57.91c-.15-.0006-.29-.0525-.4-.146-.11-.0936-.18-.2226-.2-.3633-.28-1.7827-.16-3.6018.34-5.3368.51-1.735 1.39-3.3462 2.59-4.7271s2.69-2.4998 4.37-3.2826c1.68-.7829 3.52-1.2118 5.38-1.2584-.47-1.7937-.35-3.684.34-5.4113.68-1.7273 1.91-3.207 3.5-4.236s3.47-1.5569 5.39-1.5111c1.91.0458 3.77.6629 5.3 1.7667 1.45-4.11086 4.25-7.65195 7.98-10.08412 3.72-2.432159 8.17-3.622135 12.66-3.3887348 4.48.2333998 8.77 1.8773848 12.2 4.6816448 3.44 2.80426 5.83 6.61511 6.81 10.85241.01.0714.02.1438.02.2165.01.1371-.02.2732-.07.4011l-1.8 4.5555c-1.43 3.593-5.51 6.5365-9.25 6.7009l-31.66.401c-.16.011-.32.0678-.45.1633s-.22.2256-.28.3741c-.03.0886-.04.1842-.03.2787.01.0944.04.1849.1.2637.05.0787.13.1435.21.1887.09.0452.19.0695.28.0709l31.36.385c1.66.0762 3.01.7258 3.84 1.8326.89 1.203 1.09 2.8352.56 4.6036Zm9.14-19.451c.31-.016.6-.024.88-.024h.01c2.64.0031 5.25.5975 7.62 1.7367 2.37 1.1392 4.44 2.7923 6.03 4.8301 1.6 2.0378 2.69 4.405 3.19 6.9167.49 2.5116.38 5.0996-.34 7.5616-.03.1367-.12.2575-.23.3428-.12.0852-.26.1298-.41.1264h-23.92c-.06-.0032-.12-.0197-.17-.0482-.05-.0286-.09-.0683-.13-.1159-.03-.0477-.05-.102-.05-.1585-.01-.0565 0-.1136.02-.1666l.5-1.2672c1.43-3.5891 5.49-6.5285 9.26-6.6969l6.95-.401c.16-.011.32-.0678.45-.1633.13-.0956.22-.2256.28-.3741.03-.0903.04-.1874.03-.283-.01-.0956-.05-.187-.1-.2664-.06-.0743-.13-.1355-.21-.1787-.08-.0432-.17-.0671-.27-.0699l-6.69-.401c-.74-.0008-1.47-.1664-2.14-.4842-.66-.3178-1.24-.7792-1.69-1.3485-.9-1.203-1.09-2.8351-.56-4.6036l1.25-4.1144c.02-.0744.06-.1426.11-.1986.06-.0559.13-.0979.2-.1222.04-.0173.09-.0268.13-.0281Zm44.38 7.3979h3.95v10.4504h6.92v3.3484h-10.87V23.9218Zm14.98 6.9203v.0361c0 3.9499 3.28 7.138 7.67 7.138 4.4 0 7.72-3.2121 7.72-7.1741v-.0401c0-3.962-3.28-7.1381-7.68-7.1381-4.39 0-7.71 3.2162-7.71 7.1782Zm11.35 0v.0361c0 1.993-1.47 3.6893-3.64 3.6893-2.16 0-3.65-1.7204-3.65-3.7254v-.0401c0-1.9931 1.43-3.6853 3.61-3.6853 2.19 0 3.68 1.7203 3.68 3.7254Zm8.87.8352v-7.7555h4.03v7.6673c0 2.0051 1.03 2.9394 2.63 2.9394 1.59 0 2.63-.9062 2.63-2.8391v-7.7676h4.02v7.6473c0 4.4552-2.63 6.4162-6.69 6.4162-4.06 0-6.62-2.0051-6.62-6.308Zm24.88-7.7555h-5.51v13.7948h5.43c5.14 0 8.15-2.9555 8.15-6.9375v-.0401c0-3.9781-2.96-6.8172-8.07-6.8172Zm4.01 6.9335c0 2.2296-1.58 3.4928-3.94 3.4928l-1.63-.016v-7.0057h1.63c2.36 0 3.94 1.2832 3.94 3.4928v.0361Zm9.8-6.9335h11.43v3.3524h-7.46v2.3459h6.75v3.1721h-6.75v4.9284h-3.97V23.9218Zm20.9 0h-3.95v13.7988h10.87v-3.3484h-6.92V23.9218Zm17.3-.0938h3.82l6.07 13.8951h-4.25l-1.04-2.4622h-5.51l-1.02 2.4622h-4.15l6.08-13.8951Zm3.47 8.4534-1.59-3.9219-1.63 3.9219h3.22Zm18.26-8.3596h-6.75v13.7988h3.96v-4.1785h1.73l2.88 4.1785h4.57l-3.41-4.8121c.89-.3193 1.65-.9004 2.18-1.6612.53-.7607.79-1.6625.76-2.5776v-.0401c.03-.5902-.06-1.1802-.28-1.7325-.22-.5522-.55-1.0547-.98-1.4756-.96-.9463-2.47-1.4997-4.66-1.4997Zm1.94 4.9886c0 1.0025-.77 1.6361-2.12 1.6361h-2.61v-3.3124h2.59c1.31 0 2.14.5494 2.14 1.6362v.0401Zm9.7-4.9886h11.49v3.2522h-7.57v2.0892h6.86v3.0157h-6.86v2.1895h7.67v3.2522h-11.59V23.9218Zm-155.44 10.073c.58-.3685 1.03-.8965 1.31-1.5164l4.18.0161c-.78 3.1599-3.73 5.5179-7.5 5.5179-4.41 0-7.67-3.176-7.67-7.138v-.0401c0-3.9701 3.3-7.1782 7.71-7.1782 3.88 0 6.86 2.4422 7.51 5.7265h-4.15c-.25-.674-.71-1.2561-1.32-1.6661-.61-.4101-1.34-.628-2.08-.6237-2.16 0-3.61 1.6843-3.61 3.6893v.0401c0 1.9891 1.49 3.7254 3.65 3.7254.7.0083 1.38-.1842 1.97-.5528Z" clip-rule="evenodd"/>
  </g>
  <g fill="#E4E5E7" clip-path="url(#o)">
    <path d="M1952.38 18.8125c-2.26 0-4.12.5096-5.55 1.4948-1.46.9852-2.25 2.378-2.5 4.1445h3.04c.18-.9172.75-1.6646 1.61-2.2081.82-.5436 1.93-.8154 3.22-.8154 1.5 0 2.64.3058 3.5.9852.82.6795 1.22 1.5967 1.22 2.7518v1.223h-5.58c-2.5 0-4.36.5096-5.65 1.4608-1.32.9511-1.97 2.378-1.97 4.1786 0 1.6306.65 2.8876 1.93 3.8388 1.26.9512 2.94 1.4269 5.05 1.4269 2.75 0 4.86-1.0192 6.36-3.0236l.25 2.8197h2.65V25.3691c0-2.0723-.68-3.7029-1.97-4.824-1.32-1.1551-3.22-1.7326-5.61-1.7326Zm4.57 10.905c0 1.5289-.53 2.7518-1.61 3.6691-1.07.9512-2.53 1.4268-4.39 1.4268-1.25 0-2.26-.2718-3.01-.8154-.75-.5436-1.11-1.2569-1.11-2.1402 0-2.0043 1.44-2.9896 4.26-2.9896h5.86v.8493Zm9.43-17.6316c-.57 0-1.04.1699-1.43.5436-.39.3737-.57.8153-.57 1.3589 0 .5435.18.9852.57 1.3589.39.3736.86.5435 1.43.5435s1.04-.1699 1.43-.5435c.39-.3737.57-.8154.57-1.3589 0-.5436-.18-.9852-.57-1.3589-.39-.3737-.89-.5436-1.43-.5436Zm-4.52 9.6186h3v15.3554h3.04V19.0547h-6.04v2.6498Zm36.9-1.7658c-1.36-.7474-2.97-1.0871-4.72-1.0871-2.76 0-4.9 1.0191-6.51 3.0914l-.39-2.8876h-2.65v25.0715h3.04v-9.818c.64.9173 1.5 1.6307 2.57 2.1403 1.08.5436 2.43.8153 3.94.8153 1.75 0 3.32-.3737 4.68-1.1551 1.36-.7813 2.47-1.8684 3.25-3.2612.79-1.3929 1.15-2.9897 1.15-4.7902 0-1.9024-.36-3.567-1.15-4.9599-.78-1.3589-1.86-2.446-3.21-3.1594Zm-.43 12.8754c-1.15 1.2231-2.68 1.8685-4.58 1.8685-1.22 0-2.29-.2718-3.22-.8493-.96-.5776-1.71-1.3928-2.21-2.412-.54-1.0192-.79-2.1402-.79-3.4652 0-1.2569.25-2.412.79-3.4312.53-.9851 1.25-1.7665 2.21-2.344.93-.5436 2-.8154 3.22-.8154 1.9 0 3.43.6115 4.58 1.8345 1.14 1.223 1.71 2.8536 1.71 4.7901 0 2.0044-.57 3.6011-1.71 4.824Zm-26.23-10.2603v14.5061h3.03V21.7045h6.58v-2.6498h-5.93c-2.04 0-3.68 1.5287-3.68 3.4991Zm37.6-10.2257h-3.04v24.7317h3.04V12.3281Zm12.08 6.4844c-2.25 0-4.11.5096-5.54 1.4948-1.46.9852-2.25 2.378-2.5 4.1445h3.04c.18-.9172.75-1.6646 1.61-2.2081.82-.5436 1.93-.8154 3.21-.8154 1.51 0 2.65.3058 3.51.9852.82.6795 1.21 1.5967 1.21 2.7518v1.223h-5.57c-2.51 0-4.37.5096-5.65 1.4608-1.33.9511-1.97 2.378-1.97 4.1786 0 1.6306.64 2.8876 1.93 3.8388 1.25.9512 2.93 1.4269 5.04 1.4269 2.76 0 4.87-1.0192 6.37-3.0236l.25 2.8197h2.64V25.3691c0-2.0723-.68-3.7029-1.96-4.824-1.33-1.1551-3.22-1.7326-5.62-1.7326Zm4.58 10.905c0 1.5289-.54 2.7518-1.61 3.6691-1.07.9512-2.54 1.4268-4.4 1.4268-1.25 0-2.25-.2718-3-.8154-.75-.5436-1.11-1.2569-1.11-2.1402 0-2.0043 1.43-2.9896 4.26-2.9896h5.86v.8493Zm16.2-10.905c-2.72 0-4.79.8833-6.26 2.6498l-.39-2.446h-2.65v18.0053h3.04v-9.0027c0-2.0043.54-3.635 1.54-4.79 1-1.1551 2.43-1.7666 4.18-1.7666 1.68 0 2.93.5096 3.83 1.4608.86.9852 1.29 2.4121 1.29 4.2805v9.8519h3.04V27.0338c0-2.8198-.72-4.926-2.08-6.2169-1.36-1.3249-3.22-2.0044-5.54-2.0044Zm28.82 9.7892c.04-.5776.07-.9853.07-1.2231-.03-1.7327-.42-3.2613-1.21-4.5523-.79-1.2909-1.82-2.3101-3.15-2.9556-1.32-.6794-2.86-1.0191-4.61-1.0191-1.75 0-3.33.3737-4.68 1.1211-1.36.7813-2.43 1.8684-3.15 3.2613-.79 1.3929-1.14 2.9895-1.14 4.824 0 1.8005.39 3.4313 1.18 4.7902.78 1.4267 1.86 2.5138 3.25 3.2612 1.43.7814 3.04 1.1551 4.93 1.1551 2.15 0 3.97-.6116 5.47-1.7666 1.51-1.155 2.44-2.6497 2.79-4.4843h-3.07c-.32 1.1551-.97 2.0384-1.9 2.6839-.96.6794-2.11.9851-3.5.9851-1.75 0-3.18-.5435-4.29-1.5967-1.07-1.0531-1.68-2.48-1.72-4.2465v-.2377h14.73Zm-12.69-5.8773c1.07-.8833 2.32-1.3589 3.79-1.3589 1.61 0 2.93.4077 4 1.257 1.04.8493 1.65 2.0383 1.79 3.5671h-11.44c.14-1.4269.79-2.5819 1.86-3.4652Z"/>
    <path fill-rule="evenodd" d="m1886.51 1.00012 15.43.00461c1.17 0 2.23.64699 2.73 1.65889 3.18 6.52751 14.92 30.55628 19.65 40.24598.44.89.37 1.9311-.18 2.7597-.56.8287-1.51 1.3308-2.54 1.3308h-6.71c-2.23 0-4.37-.893-5.89-2.4623-1.28-1.3262-2.81-2.9046-3.84-3.9724-.76-.7851-1.83-1.2312-2.95-1.2312-2.8 0-13.35-.0038-16.22-.0038-1.12 0-2.18.4462-2.94 1.2311-1.04 1.0679-2.56 2.6455-3.85 3.9717-1.51 1.57-3.65 2.4623-5.89 2.4623h-6.46c-1.02 0-1.98-.5021-2.53-1.3308-.56-.8287-.63-1.8689-.19-2.7597 4.73-9.6897 16.47-33.71846 19.66-40.24598.49-1.01189 1.55-1.6589 2.72-1.6589Zm9.54 4.79195c3.88 8.14423 12.77 26.87203 15.14 32.34393.09.1971.06.4209-.06.5964-.13.1763-.33.2821-.56.2821h-3.02c-1.24 0-2.4-.5411-3.16-1.4672-1.24-1.5125-3.17-3.8575-4.41-5.3708-.76-.926-1.92-1.4664-3.16-1.4664-.61 0-1.6-.0011-2.59-.0023-.99-.0012-1.99-.0024-2.6-.0024-1.23 0-2.4.5413-3.16 1.4674l-4.41 5.3699c-.76.9268-1.92 1.4672-3.15 1.4672h-3.03c-.22 0-.43-.105-.56-.2813-.12-.1763-.14-.4001-.06-.5972 2.38-5.4719 11.26-24.1958 15.14-32.33933.32-.68532 1.04-1.12535 1.82-1.12535.79 0 1.51.44003 1.83 1.12535Z" clip-rule="evenodd"/>
  </g>
  <path fill="#E4E5E7" fill-rule="evenodd" d="M2179.06 5.92347c-2.5.72888-4.82 1.93395-6.83 3.54406-.84-1.3853-2.18-2.42417-3.76-2.91961 2.49-2.16961 5.43-3.81521 8.62-4.8329 3.19-1.017631 6.56-1.385177 9.91-1.079289 3.34.305829 6.58 1.278349 9.52 2.856129.74.39923 1.46.835 2.15 1.3051.02-.00992.05-.01966.07-.02922.9-.35951 1.89-.45355 2.84-.27022.96.18339 1.83.63589 2.52 1.30029s1.16 1.5109 1.35 2.43244c.19.92153.09 1.87675-.28 2.74475-.38.868-1.01 1.6098-1.82 2.1317-.8.522-1.76.8005-2.73.8004-.64 0-1.28-.1229-1.88-.3617-.6-.2387-1.14-.5886-1.6-1.0297-.45-.4412-.81-.9649-1.06-1.5412-.25-.5763-.38-1.19404-.38-1.81785 0-.24364.02-.48587.06-.72465-.51-.34161-1.05-.65976-1.59-.9531-2.29-1.22108-4.8-1.98792-7.4-2.25502-2.59-.26717-5.22-.02928-7.71.69959Zm-7.75 6.84353c0 .8944-.27 1.7696-.76 2.5255l1.01 1.6845c-.98 1.1235-2.32 1.8957-3.81 2.1916l-.99-1.6652c-.45.032-.89.0064-1.33-.0779-.96-.1832-1.83-.6355-2.52-1.2997-.69-.6642-1.16-1.5105-1.35-2.4318-.18-.9213-.09-1.8763.28-2.7443.38-.8679 1.01-1.60971 1.82-2.13173.8-.52196 1.75-.80062 2.73-.8008.64-.00006 1.28.12273 1.88.36139.6.23865 1.14.58854 1.6 1.0296.45.44105.81.96474 1.06 1.54104.25.5763.38 1.194.38 1.8178Zm-3.56 6.4018 8.48 14.1649 2.56 4.277 2.56-4.277 3.18-5.3325 3.18 5.3133 2.56 4.2757 2.55-4.2764 4.29-7.1768h7.01c.08-.71.12-1.4239.12-2.1385 0-.7146-.04-1.4285-.12-2.1385h-9.56l-.45.7433-3.84 6.4316-3.18-5.314-2.56-4.277-2.55 4.2776-3.19 5.3325-7.23-12.0768c-.98 1.1234-2.32 1.8956-3.81 2.1916Zm36.49 4.8293c0 .7145-.04 1.4285-.12 2.1385h4.7v-4.277h-4.7c.08.71.12 1.4239.12 2.1385Zm4.58-2.1381h.07c.07.7043.1 1.4175.1 2.1385 0 12.959-10.87 23.4661-24.29 23.4661s-24.3-10.5058-24.3-23.4649c0-2.2969.35-4.5817 1.03-6.7808 1.13 1.1701 2.66 1.9006 4.31 2.0528-.36 1.5091-.58 3.2631-.58 4.7268 0 10.4226 8.74 18.8762 19.54 18.8762 10.05 0 18.32-7.32 19.42-16.7377h4.7V21.86Z" clip-rule="evenodd"/>
  <path fill="#E4E5E7" d="m2233.91 31.678-3.86-16.0819h3.14l1.65 7.7184 1.03 4.9306h.07l1.19-4.9306 1.91-7.7184h3.48l1.91 7.7184 1.17 4.9306h.07l1.05-4.9306 1.69-7.7184h3.01l-3.98 16.0819h-3.56l-2.12-8.5017-1.03-4.2394h-.05l-1.07 4.2394-2.12 8.5017h-3.58Zm27.25-2.0044h-.12c-.11.3072-.26.599-.45.8755-.18.2611-.41.4992-.7.7142-.27.2151-.6.384-1 .5069-.38.1229-.82.1843-1.33.1843-1.29 0-2.28-.407-2.96-1.2211-.68-.8141-1.03-1.9738-1.03-3.479v-7.6032h3.06v7.3036c0 .8295.16 1.4669.5 1.9124.33.43.86.6451 1.6.6451.3 0 .59-.0384.88-.1152.3-.0768.56-.192.79-.3456.22-.169.4-.3687.54-.5991.15-.2457.22-.5299.22-.8524v-7.9488h3.05V31.678h-3.05v-2.0044Zm6.58 2.0044V19.6512h3.05v2.0044h.12c.26-.6451.65-1.1827 1.19-1.6128.56-.4454 1.32-.6681 2.29-.6681 1.29 0 2.28.407 2.96 1.2211.69.8141 1.03 1.9738 1.03 3.479v7.6032h-3.06v-7.3036c0-.8602-.15-1.5053-.47-1.9354-.32-.4301-.84-.6451-1.58-.6451-.31 0-.62.0461-.93.1382-.28.0768-.55.1997-.78.3687-.23.1536-.41.3532-.55.599-.15.2304-.22.5069-.22.8294v7.9488h-3.05Zm21.75-2.0044h-.12c-.22.6912-.64 1.2441-1.26 1.6588-.62.4148-1.35.6221-2.17.6221-1.58 0-2.79-.5453-3.63-1.6358-.83-1.0906-1.24-2.6496-1.24-4.6771 0-2.0122.41-3.5559 1.24-4.6311.84-1.0905 2.05-1.6358 3.63-1.6358.82 0 1.55.2073 2.17.6221.62.3993 1.04.9446 1.26 1.6358h.12v-7.0042h3.05V31.678h-3.05v-2.0044Zm-2.57-.1613c.73 0 1.34-.169 1.83-.5069s.74-.8218.74-1.4515v-3.8247c0-.5836-.25-1.0521-.74-1.4054-.49-.3533-1.1-.5299-1.83-.5299-.8 0-1.44.2611-1.94.7833-.47.5069-.71 1.1904-.71 2.0506v2.0736c0 .8602.24 1.5437.71 2.0506.5.5068 1.14.7603 1.94.7603Zm14.18 2.4422c-.92 0-1.75-.1459-2.48-.4377-.72-.3072-1.33-.7296-1.84-1.2672-.49-.553-.87-1.2135-1.14-1.9815-.27-.7833-.41-1.6589-.41-2.6265 0-.9524.13-1.8125.38-2.5805.27-.768.65-1.4208 1.15-1.9584.49-.553 1.09-.9754 1.81-1.2672.72-.3072 1.53-.4608 2.43-.4608.97 0 1.82.1613 2.53.4838.72.3226 1.31.7603 1.77 1.3133.46.553.8 1.1981 1.02 1.9354.24.7219.36 1.4976.36 2.327v.9677h-8.28v.2995c0 .8755.26 1.5821.77 2.1197.51.5222 1.26.7833 2.26.7833.77 0 1.39-.1536 1.86-.4608.5-.3072.93-.6988 1.31-1.175l1.65 1.7741c-.51.6912-1.21 1.2365-2.1 1.6358-.87.384-1.89.576-3.05.576Zm-.05-10.368c-.81 0-1.45.2611-1.93.7834-.48.5222-.72 1.1981-.72 2.0275v.1843h5.11v-.2073c0-.8295-.22-1.4976-.65-2.0045-.41-.5223-1.01-.7834-1.81-.7834Zm8.32 10.0915V19.6512h3.05v2.4883h.12c.08-.3226.2-.6298.36-.9216.17-.3072.39-.576.66-.8064.27-.2304.59-.4147.96-.553.38-.1382.82-.2073 1.31-.2073h.67v2.7878h-.96c-1.03 0-1.81.1459-2.33.4378-.53.2918-.79.768-.79 1.4284v7.3728h-3.05Zm20.4-2.4883h-.1c-.14.7834-.59 1.4439-1.36 1.9815-.74.5222-1.75.7833-3 .7833-.99 0-1.9-.1766-2.74-.5299-.83-.3533-1.55-.8755-2.18-1.5667-.6-.7066-1.08-1.5744-1.43-2.6035-.35-1.0292-.52-2.2196-.52-3.5712 0-1.3517.17-2.5421.52-3.5712.37-1.0445.88-1.92 1.53-2.6266.65-.7066 1.43-1.2442 2.34-1.6128.9-.3686 1.91-.553 3.03-.553 1.49 0 2.76.3149 3.81.9447 1.05.6297 1.88 1.536 2.48 2.7187l-2.55 1.4515c-.3-.6912-.75-1.2672-1.36-1.728-.59-.4608-1.38-.6912-2.38-.6912-1.24 0-2.24.3687-2.98 1.1059-.74.722-1.1 1.7972-1.1 3.2256v2.5805c0 1.4131.37 2.4883 1.12 3.2256.75.7373 1.75 1.1059 3 1.1059.5 0 .96-.0537 1.39-.1612.43-.1229.8-.2996 1.12-.53.32-.2304.57-.5145.76-.8524.19-.338.29-.7373.29-1.1981v-1.0368h-3.27v-2.5575h6.3v8.7552h-2.72v-2.4883Zm6.18 2.4883V19.6512h3.05v2.4883h.12c.08-.3226.2-.6298.36-.9216.17-.3072.39-.576.66-.8064.27-.2304.59-.4147.96-.553.38-.1382.82-.2073 1.31-.2073h.67v2.7878h-.96c-1.03 0-1.81.1459-2.33.4378-.53.2918-.79.768-.79 1.4284v7.3728h-3.05Zm18.26 0c-.67 0-1.2-.1843-1.6-.5529-.38-.384-.62-.8909-.71-1.5207h-.14c-.21.7834-.63 1.3748-1.27 1.7741-.63.384-1.42.576-2.36.576-1.27 0-2.25-.3225-2.93-.9677-.69-.6451-1.03-1.5052-1.03-2.5804 0-1.2442.46-2.1658 1.38-2.7648.93-.6144 2.24-.9216 3.94-.9216h2.12v-.8756c0-.6758-.18-1.198-.55-1.5667-.36-.3686-.95-.5529-1.76-.5529-.72 0-1.3.1536-1.74.4608-.43.2918-.8.6451-1.1 1.0598l-1.81-1.5667c.46-.6912 1.07-1.2442 1.83-1.6589.77-.4301 1.78-.6451 3.03-.6451 1.69 0 2.97.3686 3.84 1.1059.88.7373 1.32 1.7971 1.32 3.1795v5.6679h1.24v2.35h-1.7Zm-5.05-1.8662c.68 0 1.26-.1459 1.74-.4378.47-.2918.71-.7219.71-1.2902V26.494h-1.95c-1.59 0-2.39.4916-2.39 1.4746v.3917c0 .4915.16.8601.48 1.1059.33.2304.8.3456 1.41.3456Zm9.22-10.1606h3.05v1.9814h.1c.22-.6912.64-1.2365 1.26-1.6358.62-.4148 1.34-.6221 2.17-.6221 1.59 0 2.8.5453 3.63 1.6358.84 1.0752 1.26 2.6189 1.26 4.6311 0 2.0275-.42 3.5865-1.26 4.6771-.83 1.0905-2.04 1.6358-3.63 1.6358-.83 0-1.55-.2073-2.17-.6221-.6-.4147-1.03-.9676-1.26-1.6588h-.1v6.6124h-3.05V19.6512Zm5.6 9.8611c.8 0 1.44-.2535 1.94-.7603.49-.5069.73-1.1904.73-2.0506v-2.0736c0-.8602-.24-1.5437-.73-2.0506-.5-.5222-1.14-.7833-1.94-.7833-.73 0-1.34.1766-1.83.5299-.48.3533-.72.8218-.72 1.4054v3.8247c0 .6297.24 1.1136.72 1.4515.49.3379 1.1.5069 1.83.5069Zm8.7-14.8839h3.05v7.0272h.12c.26-.6451.65-1.1827 1.2-1.6128.55-.4454 1.32-.6681 2.29-.6681 1.28 0 2.27.407 2.95 1.2211.69.8141 1.03 1.9738 1.03 3.479v7.6032h-3.05v-7.3036c0-.8602-.16-1.5053-.48-1.9354-.32-.4301-.84-.6451-1.58-.6451-.31 0-.62.0461-.93.1382-.28.0768-.54.1997-.78.3687-.23.1536-.41.3532-.55.599-.15.2304-.22.5069-.22.8294v7.9488h-3.05V14.6284Z"/>
  <g fill="#E4E5E7" clip-path="url(#p)">
    <path d="M2508.33 32.2147c0 2.2585-1.89 4.0895-4.23 4.0895-2.33 0-4.22-1.831-4.22-4.0895 0-2.2587 1.89-4.0897 4.22-4.0897 2.34 0 4.23 1.831 4.23 4.0897Zm0-17.4298c0 2.2586-1.89 4.0897-4.23 4.0897-2.33 0-4.22-1.8311-4.22-4.0897 0-2.2586 1.89-4.0896 4.22-4.0896 2.34 0 4.23 1.831 4.23 4.0896Zm8.97 8.7187c0 2.2587-1.89 4.0897-4.23 4.0897-2.33 0-4.22-1.831-4.22-4.0897 0-2.2585 1.89-4.0895 4.22-4.0895 2.34 0 4.23 1.831 4.23 4.0895Zm-7.57 0c0 1.7865 1.5 3.2349 3.34 3.2349 1.85 0 3.35-1.4484 3.35-3.2349 0-1.7864-1.5-3.2347-3.35-3.2347-1.84 0-3.34 1.4483-3.34 3.2347Zm-10.42 17.4063c0 2.2586-1.89 4.0896-4.23 4.0896-2.33 0-4.22-1.831-4.22-4.0896s1.89-4.0896 4.22-4.0896c2.34 0 4.23 1.831 4.23 4.0896Zm-6.64 0c0 1.2901 1.08 2.336 2.41 2.336 1.34 0 2.42-1.0459 2.42-2.336 0-1.2901-1.08-2.3359-2.42-2.3359-1.33 0-2.41 1.0458-2.41 2.3359Zm-2.35-26.125c0 2.2586-1.89 4.0897-4.23 4.0897-2.33 0-4.23-1.8311-4.23-4.0897 0-2.2586 1.9-4.0896 4.23-4.0896 2.34 0 4.23 1.831 4.23 4.0896Zm-6.64 0c0 1.2902 1.08 2.3359 2.41 2.3359 1.34 0 2.42-1.0457 2.42-2.3359 0-1.2901-1.08-2.3359-2.42-2.3359-1.33 0-2.41 1.0458-2.41 2.3359Zm6.64 17.4297c0 2.2586-1.89 4.0896-4.23 4.0896-2.33 0-4.23-1.831-4.23-4.0896 0-2.2587 1.9-4.0896 4.23-4.0896 2.34 0 4.23 1.8309 4.23 4.0896Zm-6.64 0c0 1.2901 1.08 2.336 2.41 2.336 1.34 0 2.42-1.0459 2.42-2.336 0-1.2902-1.08-2.3361-2.42-2.3361-1.33 0-2.41 1.0459-2.41 2.3361Zm15.63-26.12499c0 2.25863-1.89 4.08959-4.23 4.08959-2.33 0-4.22-1.83096-4.22-4.08959S2492.75 2 2495.08 2c2.34 0 4.23 1.83098 4.23 4.08961Zm-6.64 0c0 1.29013 1.08 2.33598 2.41 2.33598 1.34 0 2.42-1.04585 2.42-2.33598 0-1.29013-1.08-2.33599-2.42-2.33599-1.33 0-2.41 1.04586-2.41 2.33599Zm-11.36 17.40619c0 2.2587-1.89 4.0897-4.23 4.0897-2.33 0-4.22-1.831-4.22-4.0897 0-2.2585 1.89-4.0896 4.22-4.0896 2.34 0 4.23 1.8311 4.23 4.0896Zm-6.64 0c0 1.2902 1.08 2.336 2.41 2.336 1.34 0 2.42-1.0458 2.42-2.336 0-1.2901-1.08-2.3359-2.42-2.3359-1.33 0-2.41 1.0458-2.41 2.3359Zm24.64 0c0 2.2587-1.89 4.0897-4.23 4.0897-2.33 0-4.22-1.831-4.22-4.0897 0-2.2585 1.89-4.0896 4.22-4.0896 2.34 0 4.23 1.8311 4.23 4.0896Zm-6.64 0c0 1.2902 1.08 2.336 2.41 2.336 1.34 0 2.42-1.0458 2.42-2.336 0-1.2901-1.08-2.3359-2.42-2.3359-1.33 0-2.41 1.0458-2.41 2.3359Z"/>
    <path fill-rule="evenodd" d="m2484.72 17.5553-4.77 4.6154-1.5-1.446 4.77-4.6153 1.5 1.4459Zm9.05-8.78129-4.7 4.55339-1.5-1.4459 4.71-4.55338 1.49 1.44589Zm-.17 17.60939-4.71 4.557-1.49-1.4458 4.71-4.5571 1.49 1.4459Zm-1.43 13.1705-4.64-4.4986 1.49-1.4459 4.65 4.4986-1.5 1.4459Zm-9.31-9.0035-4.47-4.3233 1.49-1.4459 4.47 4.3233-1.49 1.4459Z" clip-rule="evenodd"/>
    <path d="M2540.62 3.65625v.60055h-7.08v22.8877h-.7V4.2568h-7.08v-.60055h14.86Zm11.63 5.0693c2.19 0 3.98.65615 5.39 1.96845 1.4 1.3123 2.11 3.2919 2.11 5.9388v10.5096h-.66V16.566c0-2.3576-.61-4.1482-1.83-5.3715-1.22-1.2456-2.89-1.8684-5.01-1.8684-2.21 0-3.98.7006-5.32 2.1019-1.34 1.3791-2 3.4253-2 6.139v9.5754h-.69V2.45312h.69V13.8636c.43-1.6682 1.31-2.936 2.62-3.8035 1.31-.8897 2.88-1.33455 4.7-1.33455Zm21.32 18.04825c2.1 0 3.86-.5117 5.29-1.5348 1.42-1.0232 2.29-2.4245 2.59-4.2039h.69c-.32 1.8906-1.24 3.4254-2.76 4.6042-1.5 1.1567-3.44 1.7349-5.81 1.7349-1.72 0-3.27-.367-4.63-1.1009-1.35-.7341-2.43-1.8017-3.21-3.203-.76-1.4013-1.14-3.0472-1.14-4.9379 0-1.8905.38-3.5365 1.14-4.9378.78-1.4013 1.86-2.469 3.21-3.20296 1.36-.73402 2.91-1.10102 4.63-1.10102 1.82 0 3.38.37812 4.67 1.13438 1.29.734 2.25 1.6904 2.9 2.8693.66 1.1789 1 2.4244 1 3.7367 0 .8008-.01 1.4013-.04 1.8017h-16.82c.03 1.8462.42 3.392 1.18 4.6376.78 1.2456 1.79 2.1798 3.04 2.8026 1.24.6006 2.6.9009 4.07.9009Zm0-17.28262c-1.47 0-2.83.31139-4.07.93422-1.25.6005-2.26 1.5236-3.04 2.7692-.76 1.2456-1.15 2.7915-1.18 4.6375h16.24c.11-1.846-.2-3.3919-.94-4.6375-.71-1.2456-1.7-2.1687-2.97-2.7692-1.24-.62283-2.59-.93422-4.04-.93422ZM2690.7 27.243c-.39 0-.71-.1224-.97-.3669-.25-.2447-.38-.5561-.38-.9343s.13-.6895.38-.9341c.26-.2447.58-.3671.97-.3671.37 0 .68.1224.93.3671.26.2446.38.5559.38.9341 0 .3782-.12.6896-.38.9343-.25.2445-.56.3669-.93.3669Zm6.94-23.51644V27.148h-1.56V3.72656h1.56Zm16.52 23.68544c-2.23 0-4.25-.5005-6.04-1.5014-1.8-1.0231-3.2-2.4466-4.22-4.2705-1.01-1.8239-1.52-3.8813-1.52-6.1724 0-2.3132.51-4.3706 1.52-6.1723 1.02-1.82389 2.42-3.2363 4.22-4.23722 1.79-1.02316 3.81-1.53474 6.04-1.53474 2.24 0 4.25.51158 6.05 1.53474 1.79 1.00092 3.2 2.41333 4.21 4.23722 1.02 1.8017 1.52 3.8591 1.52 6.1723 0 2.2911-.5 4.3485-1.52 6.1724-1.01 1.8239-2.42 3.2474-4.21 4.2705-1.8 1.0009-3.81 1.5014-6.05 1.5014Zm0-1.3345c1.91 0 3.64-.4338 5.18-1.3012 1.55-.8675 2.76-2.102 3.63-3.7035.9-1.6014 1.35-3.4697 1.35-5.6051 0-2.1575-.45-4.037-1.35-5.63848-.87-1.60146-2.08-2.83593-3.63-3.70339-1.54-.86746-3.27-1.30119-5.18-1.30119-1.91 0-3.64.43373-5.18 1.30119-1.54.86746-2.76 2.10193-3.66 3.70339-.9 1.60148-1.35 3.48098-1.35 5.63848 0 2.1354.45 4.0037 1.35 5.6051.9 1.6015 2.12 2.836 3.66 3.7035 1.54.8674 3.27 1.3012 5.18 1.3012Zm-184.81 14.4257c0-.7911.18-1.4976.54-2.1196.36-.6298.85-1.1175 1.47-1.463.62-.3534 1.31-.53 2.07-.53.93 0 1.73.215 2.39.6451.67.4224 1.15 1.0214 1.45 1.7972h-.98c-.23-.5454-.6-.9716-1.09-1.2787-.49-.3073-1.08-.4609-1.77-.4609-.61 0-1.16.1382-1.66.4148-.48.2765-.86.6758-1.14 1.198-.28.5146-.42 1.1136-.42 1.7971s.14 1.2826.42 1.7971c.28.5146.66.9101 1.14 1.1865.5.2765 1.05.4147 1.66.4147.69 0 1.28-.1497 1.77-.4492.49-.3072.86-.7296 1.09-1.2672h.98c-.3.768-.78 1.3632-1.45 1.7855-.67.4224-1.47.6336-2.39.6336-.76 0-1.45-.1727-2.07-.5183-.62-.3533-1.11-.8409-1.47-1.463-.36-.6222-.54-1.3287-.54-2.1197Zm26.43 4.1126c-.77 0-1.47-.1728-2.1-.5185-.63-.3532-1.13-.8408-1.49-1.463-.36-.6296-.54-1.3401-.54-2.1311 0-.7911.18-1.4976.54-2.1196.36-.6298.86-1.1175 1.49-1.463.63-.3534 1.33-.53 2.1-.53.78 0 1.48.1766 2.11.53.63.3455 1.12.8332 1.48 1.463.35.622.53 1.3285.53 2.1196 0 .791-.18 1.5015-.53 2.1311-.36.6222-.85 1.1098-1.48 1.463-.63.3457-1.33.5185-2.11.5185Zm0-.7028c.62 0 1.17-.1382 1.67-.4147.49-.2764.88-.6719 1.16-1.1865.29-.5223.43-1.1251.43-1.8086s-.14-1.2825-.43-1.7971c-.28-.5145-.67-.91-1.16-1.1865-.5-.2765-1.05-.4147-1.67-.4147-.62 0-1.18.1382-1.67.4147-.5.2765-.89.672-1.17 1.1865-.29.5146-.43 1.1136-.43 1.7971s.14 1.2863.43 1.8086c.28.5146.67.9101 1.17 1.1865.49.2765 1.05.4147 1.67.4147Zm25.03.6159h-.83l-4.62-6.7736v6.7736h-.83v-8.0523h.83l4.62 6.7622v-6.7622h.83v8.0523Zm17.51.0869c-.55 0-1.04-.0921-1.46-.2765-.41-.1843-.74-.4415-.98-.7718-.24-.3302-.36-.6989-.38-1.106h.88c.04.3917.22.7374.54 1.0368.32.2919.78.4378 1.4.4378.56 0 1.01-.1382 1.33-.4147.34-.2841.5-.6413.5-1.0714 0-.3455-.09-.6221-.27-.8294-.18-.2151-.41-.3725-.68-.4722-.27-.1076-.65-.2228-1.12-.3457-.56-.1459-1-.2879-1.33-.4262-.32-.1382-.6-.3533-.83-.6452-.23-.2917-.35-.6872-.35-1.1865 0-.4147.11-.7833.34-1.1059.22-.3302.53-.5875.94-.7718.4-.1843.87-.2765 1.39-.2765.78 0 1.4.1843 1.87.553.47.3609.75.8294.82 1.4054h-.91c-.05-.3303-.24-.6221-.56-.8755-.32-.2612-.75-.3917-1.29-.3917-.5 0-.92.1305-1.25.3917-.33.2534-.5.6028-.5 1.0483 0 .338.09.6105.27.8179.19.2073.41.3647.68.4723.28.1075.66.2227 1.13.3456.54.146.97.2918 1.31.4377.33.1382.61.3534.84.6452.23.2918.35.6835.35 1.1749 0 .3764-.1.7335-.31 1.0714-.21.338-.51.6105-.92.818-.4.2072-.89.311-1.45.311Zm18.19-8.1392v5.0686c0 .7988.19 1.3902.58 1.7741.4.384.94.576 1.63.576.68 0 1.21-.1881 1.59-.5644.39-.384.59-.9792.59-1.7857v-5.0686h.83v5.0571c0 1.0215-.28 1.7895-.84 2.3041-.56.5145-1.29.7718-2.19.7718-.9 0-1.63-.2573-2.19-.7718-.56-.5146-.84-1.2826-.84-2.3041v-5.0571h.84Zm21 7.3956h2.99v.6567h-3.83v-8.0523h.84v7.3956Zm22.15-7.3956v.6682h-2.31v7.3841h-.84v-7.3841h-2.32v-.6682h5.47Zm15.25 0v8.0523h-.83v-8.0523h.83Zm21.28 8.0523h-.84l-4.61-6.7736v6.7736h-.84v-8.0523h.84l4.61 6.7622v-6.7622h.84v8.0523Zm21.53-5.696c-.24-.53-.6-.9447-1.1-1.2443-.48-.3071-1.05-.4607-1.71-.4607-.62 0-1.18.1382-1.67.4147-.5.2764-.89.6719-1.17 1.1865-.29.507-.43 1.0983-.43 1.7741s.14 1.2711.43 1.7856c.28.5146.67.9101 1.17 1.1866.49.2764 1.05.4147 1.67.4147.58 0 1.1-.1191 1.56-.3572.47-.2458.84-.5913 1.12-1.0368.29-.4531.45-.9791.49-1.5782h-3.51v-.6566h4.39v.5875c-.04.7066-.24 1.3479-.6 1.9238-.35.5683-.83 1.0176-1.44 1.3478-.59.3303-1.27.4954-2.01.4954-.78 0-1.47-.1728-2.1-.5185-.63-.3532-1.13-.8408-1.49-1.463-.36-.6296-.54-1.3401-.54-2.1311 0-.7911.18-1.4976.54-2.1196.36-.6298.86-1.1175 1.49-1.463.63-.3534 1.32-.53 2.1-.53.89 0 1.67.215 2.33.6451.67.4301 1.16 1.0291 1.46 1.7972h-.98ZM2599.55 3.71875v1.26784h-10.95v9.77561h9.57v1.2679h-9.57v11.1101h-1.55V3.71875h12.5Zm3.15 14.34545c0-1.8684.38-3.5031 1.14-4.9044.78-1.4013 1.85-2.4801 3.21-3.23636 1.38-.75625 2.95-1.13438 4.7-1.13438 1.98 0 3.66.4671 5.04 1.40134 1.38.9341 2.35 2.1241 2.9 3.5699V9.02262h1.56V27.1392h-1.56v-4.771c-.55 1.468-1.53 2.6803-2.93 3.6367-1.39.9341-3.06 1.4013-5.01 1.4013-1.75 0-3.32-.3782-4.7-1.1344-1.36-.7785-2.43-1.8684-3.21-3.2697-.76-1.4235-1.14-3.0695-1.14-4.9379Zm16.99 0c0-1.5792-.34-2.9694-1.04-4.1704-.66-1.2234-1.58-2.1576-2.76-2.8026-1.17-.6673-2.49-1.0009-3.94-1.0009-1.52 0-2.85.3225-4 .9675-1.15.6228-2.05 1.5348-2.7 2.7359-.64 1.201-.96 2.6246-.96 4.2705 0 1.646.32 3.0695.96 4.2706.65 1.2012 1.55 2.1242 2.7 2.7693 1.17.645 2.51.9675 4 .9675 1.45 0 2.77-.3225 3.94-.9675 1.2-.6673 2.13-1.6015 2.8-2.8027.67-1.2233 1-2.6357 1-4.2372Zm8.77-4.2675c.58-1.468 1.56-2.6691 2.94-3.6033 1.38-.93415 3.05-1.40125 5.01-1.40125 1.75 0 3.3.37813 4.66 1.13438 1.38.75627 2.45 1.83507 3.21 3.23627.79 1.4014 1.18 3.0361 1.18 4.9045 0 1.8684-.39 3.5144-1.18 4.9379-.76 1.4013-1.83 2.4911-3.21 3.2697-1.36.7562-2.91 1.1343-4.66 1.1343-1.96 0-3.64-.4671-5.05-1.4012-1.38-.9342-2.34-2.1354-2.9-3.6034v4.7377h-1.55V2.453h1.55v11.3437Zm15.41 4.2706c0-1.646-.32-3.0695-.97-4.2706-.64-1.2011-1.55-2.113-2.73-2.7358-1.15-.645-2.48-.9675-4-.9675-1.45 0-2.77.3336-3.94 1.0009-1.18.645-2.1 1.5792-2.77 2.8025-.66 1.2011-1 2.5913-1 4.1705 0 1.6015.34 3.0139 1 4.2372.67 1.2012 1.59 2.1354 2.77 2.8027 1.17.645 2.49.9675 3.94.9675 1.52 0 2.85-.3225 4-.9675 1.18-.6451 2.09-1.5681 2.73-2.7693.65-1.2011.97-2.6246.97-4.2706Zm7.83-5.3073c.46-1.3345 1.28-2.3466 2.45-3.0361 1.18-.71176 2.67-1.06765 4.49-1.06765v1.56815h-.51c-1.85 0-3.38.5115-4.6 1.5347-1.22 1.0009-1.83 2.6469-1.83 4.9379v10.4429h-1.55V9.02326h1.55V12.76Zm11.32-7.77479c-.37 0-.68-.11122-.94-.33364-.25-.24468-.38-.5672-.38-.96756 0-.37812.13-.68952.38-.93419.26-.24467.57-.36701.94-.36701s.68.12234.93.36701.38.55607.38.93419c0 .40036-.13.72288-.38.96756-.25.22242-.56.33364-.93.33364Zm.76 4.03703V27.1389h-1.56V9.02224h1.56Zm4.73 9.04196c0-1.8906.38-3.5365 1.14-4.9378.78-1.4013 1.85-2.469 3.21-3.20296 1.38-.75625 2.96-1.13438 4.73-1.13438 2.35 0 4.27.5672 5.77 1.70154 1.52 1.1344 2.46 2.658 2.83 4.5709h-1.62c-.3-1.557-1.08-2.7803-2.35-3.67-1.24-.8898-2.79-1.3346-4.63-1.3346-1.38 0-2.64.3003-3.76.9008-1.13.5783-2.04 1.4792-2.73 2.7025-.67 1.2011-1.01 2.6691-1.01 4.404 0 1.7572.34 3.2363 1.01 4.4374.69 1.2011 1.6 2.102 2.73 2.7026 1.12.6005 2.38.9008 3.76.9008 1.84 0 3.39-.4449 4.63-1.3346 1.27-.8897 2.05-2.1131 2.35-3.6701h1.62c-.37 1.8907-1.31 3.4143-2.83 4.5709s-3.44 1.735-5.77 1.735c-1.77 0-3.35-.3782-4.73-1.1344-1.36-.7563-2.43-1.835-3.21-3.2363-.76-1.4235-1.14-3.0806-1.14-4.9713Z"/>
  </g>
  <g fill="#E4E5E7" clip-path="url(#q)">
    <path d="M2881.34 31.2876c2 0 3.56-.4255 4.71-1.2765.56-.4118 1.01-.9464 1.3-1.5587.3-.6123.44-1.2844.41-1.9595.03-.6961-.15-1.3849-.51-1.9915-.41-.6076-.99-1.0932-1.67-1.4015-1.01-.4781-2.07-.8406-3.17-1.0798-1.24-.3003-2.18-.5578-2.81-.7723-.47-.1368-.9-.3657-1.28-.6722-.22-.2322-.34-.5387-.33-.8545-.01-.2817.07-.5584.23-.799.15-.2406.37-.4357.63-.5632.69-.3582 1.47-.5138 2.25-.447.84.0034 1.66.2529 2.35.7151.43.2875.76.6946.93 1.1656.05.1428.15.2658.28.347.13.0812.28.1154.44.0964l2.04-.3576c.07-.0098.13-.0332.19-.0688s.12-.0827.16-.1383c.04-.0556.06-.1186.08-.185.01-.0665.01-.135 0-.2014-.27-1.1158-.98-2.0905-1.97-2.7245-1.34-.8502-2.93-1.2767-4.53-1.2192-1.86 0-3.36.416-4.49 1.2478-.54.377-.97.8743-1.27 1.4487-.29.5744-.44 1.2087-.41 1.8479-.03.6623.15 1.3171.49 1.8914.44.5778 1.03 1.0323 1.72 1.3157 1.04.4651 2.12.8316 3.24 1.0941 1.24.317 2.17.5828 2.77.7973.45.1228.86.36 1.18.6865.21.2664.31.5939.3.926.01.303-.06.6038-.2.874-.15.2702-.36.501-.62.6706-.67.4077-1.46.6041-2.25.5613-.93.0313-1.86-.2039-2.65-.6757-.54-.3327-.96-.8176-1.19-1.3873-.05-.1287-.14-.2382-.27-.3108-.12-.0726-.26-.1042-.4-.0896l-2.05.3039c-.08.009-.15.0328-.21.07-.07.0371-.12.0867-.16.1455-.04.0588-.07.1254-.09.1955-.01.0701-.01.142.01.2111.31 1.1771 1.06 2.2063 2.1 2.8961 1.23.8176 2.8 1.2264 4.72 1.2264Zm11.13-.947c0 .1426.06.279.16.3794.11.1005.25.1569.4.1569h1.98c.15 0 .29-.0565.4-.1571.1-.1006.16-.237.16-.3792v-7.3439c-.04-.9804.15-1.9576.55-2.8603.3-.6519.82-1.1957 1.46-1.5553.62-.3195 1.31-.4832 2.01-.4756.72-.0313 1.43.1389 2.05.4899.52.3181.94.7639 1.22 1.2907.29.5468.48 1.1333.57 1.7376.11.598.16 1.203.16 1.8092v6.9077c0 .0707.02.1408.05.2061.02.0653.07.1246.12.1744.05.0499.11.0893.18.116.07.0268.14.0403.22.0398h1.97c.08.0005.15-.013.22-.0398.07-.0267.13-.0661.18-.116.06-.0498.1-.1091.13-.1744.02-.0653.04-.1354.04-.2061v-7.8659c-.01-.5444-.05-1.0878-.13-1.6268-.1-.6453-.27-1.2792-.5-1.8914-.25-.6505-.61-1.2553-1.07-1.7877-.49-.5716-1.1-1.028-1.8-1.3336-.87-.3599-1.81-.532-2.76-.5042-1.05-.0186-2.09.1827-3.05.59-.42.1861-.82.4163-1.19.6864-.08.0637-.19.1043-.3.1176-.1.0133-.21-.0011-.32-.0417-.1-.0406-.19-.106-.25-.1896-.07-.0837-.11-.1825-.12-.2867 0-.1242-.06-.2434-.15-.3312-.09-.0879-.21-.1372-.34-.1372h-1.69c-.15 0-.29.0569-.4.1581-.1.1013-.16.2386-.16.3818v14.0621Zm23.98.9792c1.84 0 3.34-.4636 4.52-1.3908.42-.329 1.18-.0716 1.18.4433 0 .1394.06.2731.16.3717.11.0985.25.1539.39.1539h1.6c.07.0005.14-.0131.21-.0398.07-.0267.13-.0662.19-.116.05-.0499.09-.1091.12-.1744s.04-.1354.04-.2061v-8.8027c0-.6328-.03-1.2263-.08-1.7877-.06-.5457-.22-1.0771-.48-1.5696-.46-.9779-1.28-1.7573-2.31-2.1881-1.16-.4942-2.42-.7383-3.7-.7151-1.82 0-3.29.3837-4.39 1.1512-.95.6472-1.66 1.5535-2.06 2.5994-.02.0663-.03.1367-.03.2067.01.0699.03.1378.07.1994.03.0616.08.1155.14.1582.06.0428.12.0734.19.09l1.8.5291c.15.0386.31.0235.45-.0425.13-.0659.24-.178.3-.315.26-.5574.7-1.021 1.25-1.3229.7-.3759 1.49-.5695 2.28-.5614 1.25 0 2.14.2527 2.67.7581.51.4906.81 1.1369.87 1.8234.01.1327-.03.266-.11.3706-.09.1046-.22.1719-.36.1872-1.12.1466-2.2.3039-3.27.4648-1.09.1497-2.16.3646-3.22.6435-1.08.2879-2.05.8678-2.79 1.6698-.66.8016-.99 1.8003-.95 2.8174-.01.7946.2 1.5778.6 2.274.43.7004 1.05 1.2733 1.8 1.6554.9.4479 1.9.6763 2.92.665Zm.54-2.3991c-.97 0-1.7-.2145-2.17-.6436-.22-.1947-.39-.431-.51-.6938-.12-.2629-.18-.5465-.18-.8329-.01-.2673.03-.5346.14-.7822.11-.2475.27-.469.48-.648.46-.3699.99-.6515 1.57-.8294.77-.209 1.55-.3726 2.34-.4899.75-.1144 1.58-.2336 2.49-.3575.08-.0125.16-.0074.24.0148.08.0222.15.061.21.1135.06.0526.11.1175.14.1899.03.0725.05.1507.04.2288 0 .1752-.02.3576-.04.5506-.03.4006-.12.7958-.25 1.1764-.13.5251-.39 1.0145-.75 1.4301-.4.4828-.91.8716-1.49 1.137-.71.3034-1.48.4477-2.26.4219v.0143Zm13.12 8.1539c0 .1432.06.2805.16.3818.11.1012.25.1581.4.1581h1.95c.15 0 .29-.0569.4-.1581.1-.1013.16-.2386.16-.3818V31.025c.01-.1095.05-.2148.12-.3061.06-.0913.15-.1657.25-.2164.1-.0506.22-.0757.33-.0731.12.0025.23.0328.33.0879.28.1555.58.2871.89.3933.79.2717 1.62.405 2.45.3933 1.36.0359 2.7-.334 3.83-1.0583 1.08-.7199 1.94-1.709 2.48-2.8603.6-1.2813.9-2.6742.88-4.0796.02-1.4055-.28-2.799-.88-4.0795-.54-1.1597-1.41-2.1511-2.51-2.8604-1.13-.7185-2.48-1.0855-3.84-1.0511-.9-.0128-1.8.1502-2.64.4791-.44.1735-.87.398-1.26.6686-.07.0441-.15.0705-.23.0764-.08.006-.16-.0087-.24-.0425-.07-.0338-.14-.0856-.19-.1505-.05-.0648-.08-.1404-.08-.2195 0-.1034-.05-.2025-.12-.2756-.08-.0731-.18-.1142-.29-.1142h-1.75c-.08-.0004-.15.0132-.22.0402-.07.0269-.13.0667-.19.1169-.05.0503-.09.11-.12.1757s-.04.1361-.04.2071l-.03 20.7982Zm7.02-8.4201c-1.5 0-2.59-.5005-3.29-1.5017-.69-1.0011-1.03-2.2858-1.01-3.8542 0-1.5708.34-2.852 1.01-3.8436.68-.9916 1.74-1.4874 3.19-1.4874.89-.035 1.77.2167 2.5.7151.67.4937 1.17 1.1617 1.45 1.9236.33.8616.5 1.7742.49 2.6923.01.9261-.15 1.8471-.47 2.7208-.28.7577-.78 1.4236-1.44 1.92-.7.4967-1.56.749-2.43.7151Zm12.59 1.6871c.01.1425.07.2789.17.3794.11.1005.25.1569.4.1569h1.94c.08.0005.15-.0131.22-.0398.07-.0268.13-.0662.18-.116.05-.0499.09-.1092.12-.1745.03-.0653.05-.1353.05-.206V10.8055c0-.1432-.06-.2805-.17-.3817-.11-.1013-.25-.1582-.4-.1582h-1.94c-.15.001-.29.0582-.4.1592-.1.101-.16.2378-.17.3807v19.5361Zm15.97.9778c1.47.0172 2.92-.3672 4.17-1.1083 1.08-.6373 1.95-1.5403 2.53-2.6137.04-.0665.06-.1395.06-.2136 0-.0742-.01-.1479-.05-.2159-.03-.0681-.07-.1288-.13-.1781-.06-.0494-.13-.086-.2-.1074l-1.94-.5864c-.14-.0368-.28-.03-.4.0194-.13.0493-.23.1383-.3.2523-.83 1.3301-2.12 1.9987-3.89 1.9987-.58.0289-1.16-.0586-1.7-.2569-.54-.1984-1.03-.5031-1.44-.8944-.69-.7457-1.13-1.6781-1.26-2.6708-.01-.0735 0-.1484.02-.2195.02-.071.06-.1366.11-.192.06-.0555.12-.0995.19-.1291.07-.0296.15-.044.23-.0422h10.65c.14.0019.28-.0503.38-.1453.11-.095.17-.2252.17-.3624.07-1.4275-.17-2.8535-.69-4.1904-.5-1.2423-1.39-2.306-2.54-3.0427-1.23-.7418-2.66-1.1153-4.11-1.0726-1.43-.0465-2.84.2838-4.08.9546-1.17.6717-2.12 1.6491-2.73 2.8174-.67 1.3373-1 2.8074-.97 4.2905-.03 1.4306.31 2.8464.99 4.1225.63 1.1491 1.59 2.106 2.77 2.7638 1.26.6874 2.7 1.0403 4.16 1.0225Zm-.03-13.3899c2.2 0 3.53 1.1132 3.98 3.3395.01.0745.01.151-.02.224-.02.0731-.05.1407-.1.1982-.06.0575-.12.1033-.19.1342-.07.0308-.15.0459-.23.0442h-7.32c-.08.0018-.16-.0139-.23-.0459-.07-.0319-.14-.0792-.19-.1384-.05-.0592-.08-.1287-.1-.2033-.02-.0746-.02-.1523-.01-.2274.18-.8798.64-1.6872 1.3-2.3168.76-.6865 1.79-1.0226 3.1-1.0226l.01.0143Zm20.57 13.0286c.12-.0212.24-.0853.32-.1809.09-.0956.13-.2165.13-.3411v-1.4123c0-.0783-.02-.1556-.05-.2268-.04-.0712-.08-.1347-.15-.1864-.06-.0517-.13-.0903-.21-.1134-.08-.0231-.16-.03-.24-.0204-.68.071-1.38.071-2.06 0-.34-.0254-.67-.1294-.97-.303-.29-.1737-.53-.412-.7-.6946-.2-.3481-.3-.7373-.31-1.1334v-7.7336c0-.1432.06-.2805.17-.3818.1-.1012.25-.1581.4-.1581h3.57c.15-.0009.29-.0581.4-.1592.11-.101.17-.2378.17-.3807V16.256c0-.1432-.06-.2805-.17-.3818-.1-.1012-.25-.1581-.4-.1581h-3.57c-.15-.0009-.3-.0581-.4-.1592-.11-.101-.17-.2378-.17-.3807v-3.1285c0-.1429-.06-.2796-.17-.3807-.1-.101-.24-.1582-.39-.1592h-1.95c-.15.001-.3.0582-.4.1592-.11.1011-.17.2378-.17.3807v3.1285c0 .1426-.06.2794-.16.3805-.11.1012-.25.1585-.4.1594h-1.91c-.07 0-.15.014-.21.0412-.07.0271-.14.067-.19.1172-.05.0501-.09.1097-.12.1752-.03.0655-.04.1356-.04.2063v1.2764c0 .1426.06.2794.16.3805.11.1012.25.1585.4.1594h1.91c.07 0 .15.014.22.0412.06.0272.13.067.18.1172.05.0501.09.1097.12.1752.03.0654.04.1356.04.2063v6.2891c0 .8224.01 1.5601.03 2.2132.04.6679.23 1.3198.56 1.9093.37.6843.98 1.2274 1.71 1.541.81.3398 1.68.521 2.57.5327.82.0287 1.64-.018 2.45-.1394Zm-157.22 7.8326c1.28 0 2.51-.4877 3.42-1.3558.91-.8681 1.42-2.0457 1.42-3.2739 0-.6084-.13-1.2107-.37-1.7727-.24-.5619-.6-1.0725-1.05-1.5024-.45-.43-.98-.7709-1.57-1.0034-.59-.2324-1.22-.3518-1.85-.3512-1.29 0-2.52.4877-3.43 1.356-.9.8682-1.41 2.0458-1.41 3.2737 0 1.2275.51 2.4045 1.41 3.2725.91.868 2.14 1.3561 3.43 1.3572Zm24.64-3.9688c.63.0005 1.26-.1189 1.85-.3513.59-.2324 1.12-.5734 1.57-1.0033.45-.43.81-.9406 1.05-1.5025.24-.562.37-1.1643.37-1.7726 0-1.2283-.51-2.4058-1.42-3.274-.91-.8681-2.14-1.3557-3.42-1.3557-1.29.001-2.52.4891-3.43 1.3571-.9.868-1.41 2.045-1.41 3.2726 0 1.2278.51 2.4055 1.41 3.2737.91.8682 2.14 1.356 3.43 1.356Z"/>
    <path d="M2817.08 46.0244c-.15.0006-.31-.0259-.45-.0782-.15-.0553-.29-.1387-.4-.2454-.12-.1068-.22-.2346-.28-.3763-.07-.1417-.1-.2944-.1-.4492-.01-.1548.02-.3087.08-.4528.03-.0781 1.19-3.2584 1.72-14.0337.29-5.8604.3-8.435-.19-14.1899-.48-5.5088.3-8.74761 2.3-9.63449 2.8-1.23068 5.34.75403 7.8 2.67624 2.71 2.12145 5.51 4.29765 9.27 3.77405 2.56-.3672 3.5-2.6606 4.64-6.11821.89-2.69187 1.8-5.46969 4.49-5.86039 1.27-.175809 2.66.29303 4.14 1.39869 7.09 5.30951 15.44 24.12531 16.84 37.99091.02.1535 0 .3084-.04.4559-.05.1475-.13.2847-.23.4038-.1.119-.23.2175-.37.2899-.14.0724-.3.1172-.46.1319-.32.0294-.65-.0652-.9-.263-.25-.1978-.4-.4826-.44-.7919-1.44-14.2563-9.95-31.91562-15.92-36.37343-.91-.67199-1.71-1.0041-2.28-.92205-1.18.168-1.83 2.14492-2.52 4.24294-1.05 3.17244-2.35 7.11844-6.61 7.73174-4.83.6955-8.36-2.0628-11.19-4.2976-2.36-1.84794-3.88-2.94969-5.23-2.34412-.56.25005-1.31 2.45352-.89 7.30982.51 5.8878.5 8.5132.2 14.4908-.56 11.4043-1.83 14.6315-1.88 14.7643-.08.2185-.23.4083-.43.5453-.19.1371-.43.2152-.67.2244Z"/>
    <path d="M2822.8 36.8915c-.12-.001-.24-.035-.34-.0981-.1-.0631-.18-.1525-.23-.2575-.03-.0714-.05-.1485-.05-.2268 0-.0783.01-.1562.04-.229.03-.0729.08-.1392.14-.1951.05-.0559.12-.1003.2-.1305l4.81-1.9769-5.05-.9845c-.08-.0149-.16-.0446-.22-.0873-.07-.0427-.13-.0975-.17-.1615-.05-.0639-.08-.1355-.09-.2108-.02-.0754-.02-.1529 0-.228.01-.0757.04-.1477.09-.2119.04-.0642.1-.1193.17-.1622.06-.0429.14-.0726.22-.0875.08-.015.16-.0148.24.0005l6.98 1.3597c.12.0242.24.0869.33.179.09.0921.14.2086.16.3328.01.1245-.02.2497-.09.3578-.06.108-.16.1934-.28.2438l-6.62 2.7232c-.08.0338-.16.0512-.24.0508Zm37.06-5.7158h-.03l-7.2-.3711c-.12-.0044-.24-.0462-.34-.1197-.1-.0736-.18-.1751-.21-.2906-.04-.1207-.03-.2481.02-.3635.05-.1153.14-.2125.25-.2772l6.06-3.5748c.14-.0801.31-.1049.46-.069.16.0358.3.1293.38.2604.09.1331.11.2923.08.4434-.04.1512-.14.2824-.28.3653l-4.39 2.5864 5.23.2696c.16.0091.32.079.42.1946.11.1156.17.2675.16.4227-.02.144-.09.277-.2.3735-.11.0966-.26.15-.41.15Zm-19.15 4.0284c-1 .041-1.98-.2371-2.8-.7908-.82-.5536-1.42-1.3515-1.72-2.2683-.06-.1943-.04-.4042.06-.5851.09-.1809.26-.3186.46-.3838.21-.0688.43-.0573.63.0321.19.0894.34.2492.41.4445.54 1.5628 1.95 2.2426 3.87 1.9105 1.92-.3321 2.95-1.4612 2.92-3.1021 0-.2073.08-.406.24-.5525.15-.1466.36-.2289.57-.2289.22 0 .43.0823.58.2289.15.1465.24.3452.24.5525.05 2.4145-1.58 4.2038-4.26 4.6688-.39.0587-.79.0835-1.2.0742Zm-13.67-6.9559c-.06.006-.12.006-.18 0-.21-.0457-.4-.1697-.51-.3448-.12-.1751-.16-.3869-.11-.589.41-1.676 2.64-4.2741 5.41-4.6883 2.76-.4141 5.58 1.5628 6.05 3.0826.03.0985.04.2017.03.3037-.01.102-.05.2008-.1.2908s-.12.1694-.2.2336c-.09.0642-.18.1121-.29.1408-.2.0582-.43.0353-.62-.0635-.19-.0989-.33-.2657-.39-.4639-.23-.7501-2.23-2.2856-4.23-1.9808-1.99.3047-3.79 2.2972-4.08 3.5162-.05.1623-.15.3049-.29.4063-.14.1015-.32.1563-.49.1563Zm15.91-2.5996c-.08.001-.15-.0095-.22-.0313-.11-.0279-.2-.0751-.29-.1387-.08-.0636-.15-.1425-.21-.2321-.05-.0896-.08-.1882-.09-.2902-.02-.102-.01-.2053.02-.304.41-1.4183 1.89-3.9343 4.74-4.368 2.6-.3907 5.58 1.2698 6.42 2.9654.04.0938.07.1952.07.2984.01.1032-.01.206-.05.3027-.04.0966-.09.1851-.17.2603-.07.0752-.16.1356-.26.1778-.1.0437-.2.0683-.31.0723-.11.0039-.22-.0127-.32-.0491s-.19-.0917-.27-.1627c-.08-.0711-.15-.1565-.19-.2512-.51-1.0275-2.75-2.3871-4.68-2.0902-2.04.3087-3.13 2.2622-3.43 3.2545-.04.1635-.14.309-.28.4146-.13.1057-.3.1658-.48.1715Z"/>
    <path fill-rule="evenodd" d="M2847.37 28.4397c-1.72-.0021-3.36-.6552-4.58-1.816-1.2-1.1506-1.88-2.7068-1.89-4.3327-.25-.0388-.49-.0587-.74-.0594-.81.0002-1.6.2134-2.29.6102.24.6435.36 1.3253.36 2.0192 0 1.6417-.68 3.2156-1.9 4.3764-1.21 1.1609-2.86 1.814-4.57 1.816-1.72-.002-3.36-.6551-4.58-1.816-1.06-1.02-1.72-2.3588-1.87-3.7824l-1.27.2225c-.06.0149-.12.024-.19.0273-.23-.001-.46-.0821-.65-.2291-.18-.1471-.3-.3508-.35-.5757-.02-.1257-.02-.2547.01-.3797s.08-.2435.16-.3487c.07-.1053.17-.1951.28-.2646.11-.0694.24-.117.37-.14l1.79-.3148c.27-1.1139.86-2.1432 1.72-2.9652 1.22-1.16 2.86-1.8126 4.58-1.8146 1.71.002 3.36.6546 4.57 1.8146.21.1984.4.4089.58.6297.98-.5482 2.1-.8421 3.25-.8425.35-.0005.7.0266 1.05.0809.31-.9284.85-1.782 1.58-2.4844 1.22-1.1608 2.86-1.8139 4.58-1.816 1.72.0021 3.36.6552 4.57 1.816.28.2626.53.5464.74.8473.02-.0039.04-.0075.06-.0106l1.54-.2696c.26-.0456.53.0109.76.1572.22.1464.37.3708.42.6242.05.2544-.01.5169-.16.73-.16.2131-.39.3595-.66.4069l-1.05.1845c.17.5501.25 1.1241.25 1.7066 0 1.6417-.68 3.2156-1.9 4.3765-1.21 1.1608-2.85 1.8139-4.57 1.816Zm0-10.4315c-1.18.001-2.3.448-3.13 1.2427-.83.7947-1.3 1.8724-1.3 2.9963 0 1.1236.47 2.2006 1.3 2.9952.83.7945 1.96 1.2417 3.13 1.2438 1.17-.0021 2.3-.4493 3.13-1.2438.83-.7946 1.3-1.8716 1.3-2.9952 0-1.1239-.47-2.2016-1.3-2.9963-.83-.7947-1.96-1.2417-3.13-1.2427Zm-15.61 2.6137c-1.18.0021-2.3.4494-3.13 1.2439-.83.7945-1.3 1.8715-1.3 2.9952 0 1.1236.47 2.2006 1.3 2.9951.83.7945 1.95 1.2418 3.13 1.2439 1.17-.0021 2.3-.4494 3.13-1.2439.83-.7945 1.3-1.8715 1.3-2.9951 0-1.123-.47-2.199-1.3-2.9927-.83-.7937-1.96-1.2404-3.13-1.2425v-.0039Z" clip-rule="evenodd"/>
  </g>
  <defs>
    <linearGradient id="a" x1="156" x2="156" y1=".0003905" y2="47.4958" gradientUnits="userSpaceOnUse">
      <stop stop-color="#E4E5E7"/>
      <stop offset="1" stop-color="#E4E5E7" stop-opacity=".7"/>
    </linearGradient>
    <linearGradient id="b" x1="437" x2="437" y1="-1.9e-7" y2="48" gradientUnits="userSpaceOnUse">
      <stop stop-color="#E4E5E7"/>
      <stop offset="1" stop-color="#E4E5E7" stop-opacity=".7"/>
    </linearGradient>
    <linearGradient id="c" x1="696" x2="696" y1=".00001932" y2="48" gradientUnits="userSpaceOnUse">
      <stop stop-color="#E4E5E7"/>
      <stop offset="1" stop-color="#E4E5E7" stop-opacity=".7"/>
    </linearGradient>
    <linearGradient id="e" x1="953.559" x2="953.559" y1=".257812" y2="47.8196" gradientUnits="userSpaceOnUse">
      <stop stop-color="#E4E5E7"/>
      <stop offset="1" stop-color="#E4E5E7" stop-opacity=".7"/>
    </linearGradient>
    <linearGradient id="f" x1="1161" x2="1161" y1="-2" y2="46" gradientUnits="userSpaceOnUse">
      <stop stop-color="#E4E5E7"/>
      <stop offset="1" stop-color="#E4E5E7" stop-opacity=".7"/>
    </linearGradient>
    <linearGradient id="g" x1="1161" x2="1161" y1="-2" y2="46" gradientUnits="userSpaceOnUse">
      <stop stop-color="#E4E5E7"/>
      <stop offset="1" stop-color="#E4E5E7" stop-opacity=".7"/>
    </linearGradient>
    <linearGradient id="h" x1="1161" x2="1161" y1="-2" y2="46" gradientUnits="userSpaceOnUse">
      <stop stop-color="#E4E5E7"/>
      <stop offset="1" stop-color="#E4E5E7" stop-opacity=".7"/>
    </linearGradient>
    <linearGradient id="i" x1="1161" x2="1161" y1="-2" y2="46" gradientUnits="userSpaceOnUse">
      <stop stop-color="#E4E5E7"/>
      <stop offset="1" stop-color="#E4E5E7" stop-opacity=".7"/>
    </linearGradient>
    <linearGradient id="j" x1="1161" x2="1161" y1="-2" y2="46" gradientUnits="userSpaceOnUse">
      <stop stop-color="#E4E5E7"/>
      <stop offset="1" stop-color="#E4E5E7" stop-opacity=".7"/>
    </linearGradient>
    <linearGradient id="l" x1="1352.21" x2="1352.21" y1=".206195" y2="48.0031" gradientUnits="userSpaceOnUse">
      <stop stop-color="#E4E5E7"/>
      <stop offset="1" stop-color="#E4E5E7" stop-opacity=".7"/>
    </linearGradient>
    <linearGradient id="n" x1="1640.65" x2="1640.65" y1="0" y2="48" gradientUnits="userSpaceOnUse">
      <stop stop-color="#E4E5E7"/>
      <stop offset="1" stop-color="#E4E5E7" stop-opacity=".7"/>
    </linearGradient>
    <clipPath id="d">
      <path fill="#fff" d="M872 0h162.857v48H872z"/>
    </clipPath>
    <clipPath id="k">
      <path fill="#fff" d="M1286.86 0h130v48h-130z"/>
    </clipPath>
    <clipPath id="m">
      <path fill="#fff" d="M1504.86 0h271v48h-271z"/>
    </clipPath>
    <clipPath id="o">
      <path fill="#fff" d="M1863.86 0h208v48h-208z"/>
    </clipPath>
    <clipPath id="p">
      <path fill="#fff" d="M2472.86 0h255v48h-255z"/>
    </clipPath>
    <clipPath id="q">
      <path fill="#fff" d="M2815.86 0h172v48h-172z"/>
    </clipPath>
  </defs>
</svg>
