<svg width="16" height="16" viewBox="0 0 16 16" fill="none" xmlns="http://www.w3.org/2000/svg">
<path fill-rule="evenodd" clip-rule="evenodd" d="M7.33325 2.66634C4.75592 2.66634 2.66659 4.75568 2.66659 7.33301C2.66659 9.91034 4.75592 11.9997 7.33325 11.9997C9.91058 11.9997 11.9999 9.91034 11.9999 7.33301C11.9999 4.75568 9.91058 2.66634 7.33325 2.66634ZM1.33325 7.33301C1.33325 4.0193 4.01954 1.33301 7.33325 1.33301C10.647 1.33301 13.3333 4.0193 13.3333 7.33301C13.3333 10.6467 10.647 13.333 7.33325 13.333C4.01954 13.333 1.33325 10.6467 1.33325 7.33301Z" fill="#797D86"/>
<path fill-rule="evenodd" clip-rule="evenodd" d="M10.6298 10.6303C10.8902 10.37 11.3123 10.37 11.5726 10.6303L14.4726 13.5303C14.733 13.7907 14.733 14.2128 14.4726 14.4731C14.2123 14.7335 13.7902 14.7335 13.5298 14.4731L10.6298 11.5731C10.3695 11.3128 10.3695 10.8907 10.6298 10.6303Z" fill="#797D86"/>
</svg>
