<svg width="16" height="16" viewBox="0 0 16 16" fill="none" xmlns="http://www.w3.org/2000/svg">
<path fill-rule="evenodd" clip-rule="evenodd" d="M7.33301 2.66634C4.75568 2.66634 2.66634 4.75568 2.66634 7.33301C2.66634 9.91034 4.75568 11.9997 7.33301 11.9997C9.91034 11.9997 11.9997 9.91034 11.9997 7.33301C11.9997 4.75568 9.91034 2.66634 7.33301 2.66634ZM1.33301 7.33301C1.33301 4.0193 4.0193 1.33301 7.33301 1.33301C10.6467 1.33301 13.333 4.0193 13.333 7.33301C13.333 10.6467 10.6467 13.333 7.33301 13.333C4.0193 13.333 1.33301 10.6467 1.33301 7.33301Z" fill="#AFB1B6"/>
<path fill-rule="evenodd" clip-rule="evenodd" d="M10.6298 10.6303C10.8902 10.37 11.3123 10.37 11.5726 10.6303L14.4726 13.5303C14.733 13.7907 14.733 14.2128 14.4726 14.4731C14.2123 14.7335 13.7902 14.7335 13.5298 14.4731L10.6298 11.5731C10.3695 11.3128 10.3695 10.8907 10.6298 10.6303Z" fill="#AFB1B6"/>
</svg>
