<svg width="24" height="24" viewBox="0 0 24 24" fill="none" xmlns="http://www.w3.org/2000/svg">
<path fill-rule="evenodd" clip-rule="evenodd" d="M10.4991 4.20018C7.02009 4.20018 4.19981 7.02045 4.19981 10.4994C4.19981 13.9784 7.02009 16.7987 10.4991 16.7987C13.9781 16.7987 16.7983 13.9784 16.7983 10.4994C16.7983 7.02045 13.9781 4.20018 10.4991 4.20018ZM2.40002 10.4994C2.40002 6.02646 6.02609 2.40039 10.4991 2.40039C14.9721 2.40039 18.5981 6.02646 18.5981 10.4994C18.5981 14.9724 14.9721 18.5985 10.4991 18.5985C6.02609 18.5985 2.40002 14.9724 2.40002 10.4994Z" fill="white"/>
<path fill-rule="evenodd" clip-rule="evenodd" d="M15.3985 14.9501C15.7499 14.5987 16.3197 14.5987 16.6711 14.9501L20.5856 18.8646C20.9371 19.2161 20.9371 19.7859 20.5856 20.1373C20.2342 20.4887 19.6644 20.4887 19.313 20.1373L15.3985 16.2227C15.047 15.8713 15.047 15.3015 15.3985 14.9501Z" fill="white"/>
</svg>
