<svg width="16" height="16" viewBox="0 0 16 16" fill="none" xmlns="http://www.w3.org/2000/svg">
<g clip-path="url(#clip0_32847_77493)">
<path d="M8 0C3.6 0 0 3.6 0 8C0 12.4 3.6 16 8 16C12.4 16 16 12.4 16 8C16 3.6 12.4 0 8 0ZM8 12C7.448 12 7 11.552 7 11C7 10.448 7.448 10 8 10C8.552 10 9 10.448 9 11C9 11.552 8.552 12 8 12ZM9 8.5C9 8.776 8.776 9 8.5 9H7.5C7.224 9 7 8.776 7 8.5V4.5C7 4.224 7.224 4 7.5 4H8.5C8.776 4 9 4.224 9 4.5V8.5Z" fill="#FF3621" fill-opacity="0.2"/>
<path d="M8 10C8.552 10 9 10.448 9 11C9 11.552 8.552 12 8 12C7.448 12 7 11.552 7 11C7 10.448 7.448 10 8 10ZM8.5 4C8.776 4 9 4.224 9 4.5V8.5C9 8.776 8.776 9 8.5 9H7.5C7.224 9 7 8.776 7 8.5V4.5C7 4.224 7.224 4 7.5 4H8.5Z" fill="#FF3621"/>
</g>
<defs>
<clipPath id="clip0_32847_77493">
<rect width="16" height="16" fill="white"/>
</clipPath>
</defs>
</svg>
