<svg width="86" height="15" viewBox="0 0 86 15" fill="none" xmlns="http://www.w3.org/2000/svg">
<path d="M3.38332 13.892C3.31732 14.054 3.23032 14.198 3.12232 14.324C3.02032 14.45 2.90332 14.555 2.77132 14.639C2.64532 14.723 2.50732 14.786 2.35732 14.828C2.21332 14.87 2.06932 14.891 1.92532 14.891H0.73732L5.84932 1.472C5.96932 1.166 6.15232 0.931999 6.39832 0.77C6.64432 0.607999 6.92932 0.526999 7.25332 0.526999H8.44132L3.38332 13.892ZM21.4576 1.985C21.4576 2.141 21.4306 2.294 21.3766 2.444C21.3286 2.594 21.2596 2.735 21.1696 2.867L15.0136 11.66H21.2596V14H11.1436V12.83C11.1436 12.692 11.1676 12.557 11.2156 12.425C11.2636 12.287 11.3296 12.161 11.4136 12.047L17.5876 3.227H11.6476V0.887H21.4576V1.985ZM28.1894 3.227V6.287H32.3114V8.537H28.1894V11.66H33.5714V14H25.1294V0.887H33.5714V3.227H28.1894ZM48.8957 0.887V14H47.3117C47.0777 14 46.8797 13.964 46.7177 13.892C46.5617 13.814 46.4057 13.682 46.2497 13.496L40.0667 5.675C40.0907 5.909 40.1057 6.137 40.1117 6.359C40.1237 6.575 40.1297 6.779 40.1297 6.971V14H37.4477V0.887H39.0497C39.1817 0.887 39.2927 0.893 39.3827 0.905C39.4727 0.916999 39.5537 0.941 39.6257 0.977C39.6977 1.007 39.7667 1.052 39.8327 1.112C39.8987 1.172 39.9737 1.253 40.0577 1.355L46.2947 9.23C46.2647 8.978 46.2437 8.735 46.2317 8.501C46.2197 8.261 46.2137 8.036 46.2137 7.826V0.887H48.8957ZM56.4999 14H53.4399V0.887H56.4999V14ZM70.4527 3.299H66.7627V14H63.7207V3.299H60.0307V0.887H70.4527V3.299ZM85.4465 0.887V14H82.3865V8.456H77.0585V14H73.9985V0.887H77.0585V6.368H82.3865V0.887H85.4465Z" fill="#393A3A"/>
</svg>
