<svg width="144" height="24" viewBox="0 0 144 24" fill="none" xmlns="http://www.w3.org/2000/svg">
<rect width="144" height="24" fill="#1A1A1A"/>
<circle cx="12" cy="12" r="11" fill="#1A1A1A" stroke="#545454" stroke-width="2"/>
<circle cx="12" cy="12" r="4" fill="#545454"/>
<path d="M35.022 7.228H38.06C39.3293 7.228 40.272 7.648 40.888 8.488C41.5133 9.328 41.826 10.5367 41.826 12.114C41.826 13.7007 41.5133 14.914 40.888 15.754C40.272 16.5847 39.3293 17 38.06 17H35.022V7.228ZM37.934 15.53C38.606 15.53 39.1007 15.3107 39.418 14.872C39.7447 14.4333 39.908 13.794 39.908 12.954V11.26C39.908 10.4293 39.7447 9.79467 39.418 9.356C39.1007 8.91733 38.606 8.698 37.934 8.698H36.828V15.53H37.934ZM46.5945 17.168C46.0159 17.168 45.5025 17.098 45.0545 16.958C44.6065 16.8087 44.2285 16.608 43.9205 16.356C43.6125 16.104 43.3792 15.8053 43.2205 15.46C43.0619 15.1147 42.9825 14.7367 42.9825 14.326C42.9825 13.682 43.1599 13.164 43.5145 12.772C43.8785 12.38 44.3545 12.1047 44.9425 11.946V11.834C44.4385 11.6567 44.0325 11.3813 43.7245 11.008C43.4259 10.6347 43.2765 10.1633 43.2765 9.594C43.2765 9.22067 43.3512 8.88 43.5005 8.572C43.6499 8.25467 43.8645 7.984 44.1445 7.76C44.4245 7.536 44.7699 7.36333 45.1805 7.242C45.5912 7.12067 46.0625 7.06 46.5945 7.06C47.1265 7.06 47.5979 7.12067 48.0085 7.242C48.4192 7.36333 48.7645 7.536 49.0445 7.76C49.3245 7.984 49.5392 8.25467 49.6885 8.572C49.8379 8.88 49.9125 9.22067 49.9125 9.594C49.9125 10.1633 49.7585 10.6347 49.4505 11.008C49.1519 11.3813 48.7505 11.6567 48.2465 11.834V11.946C48.8345 12.1047 49.3059 12.38 49.6605 12.772C50.0245 13.164 50.2065 13.682 50.2065 14.326C50.2065 14.7367 50.1272 15.1147 49.9685 15.46C49.8099 15.8053 49.5765 16.104 49.2685 16.356C48.9605 16.608 48.5825 16.8087 48.1345 16.958C47.6865 17.098 47.1732 17.168 46.5945 17.168ZM46.5945 15.74C47.1452 15.74 47.5652 15.6187 47.8545 15.376C48.1532 15.124 48.3025 14.7787 48.3025 14.34V14.06C48.3025 13.612 48.1579 13.2667 47.8685 13.024C47.5792 12.772 47.1545 12.646 46.5945 12.646C46.0345 12.646 45.6099 12.772 45.3205 13.024C45.0312 13.2667 44.8865 13.612 44.8865 14.06V14.34C44.8865 14.7787 45.0312 15.124 45.3205 15.376C45.6192 15.6187 46.0439 15.74 46.5945 15.74ZM46.5945 11.288C47.1079 11.288 47.4999 11.1713 47.7705 10.938C48.0412 10.7047 48.1765 10.3827 48.1765 9.972V9.776C48.1765 9.37467 48.0412 9.062 47.7705 8.838C47.4999 8.60467 47.1079 8.488 46.5945 8.488C46.0812 8.488 45.6892 8.60467 45.4185 8.838C45.1479 9.062 45.0125 9.37467 45.0125 9.776V9.972C45.0125 10.3827 45.1479 10.7047 45.4185 10.938C45.6892 11.1713 46.0812 11.288 46.5945 11.288ZM55.2411 17.168C53.9624 17.168 53.0151 16.7293 52.3991 15.852C51.7924 14.9747 51.4891 13.7287 51.4891 12.114C51.4891 10.5087 51.7924 9.26733 52.3991 8.39C53.0151 7.50333 53.9624 7.06 55.2411 7.06C55.7264 7.06 56.1511 7.12533 56.5151 7.256C56.8884 7.38667 57.2104 7.56867 57.4811 7.802C57.7517 8.026 57.9757 8.30133 58.1531 8.628C58.3304 8.94533 58.4704 9.29533 58.5731 9.678L56.8931 10.154C56.8277 9.93 56.7531 9.72 56.6691 9.524C56.5851 9.328 56.4777 9.16 56.3471 9.02C56.2257 8.87067 56.0717 8.75867 55.8851 8.684C55.6984 8.6 55.4744 8.558 55.2131 8.558C54.5784 8.558 54.1211 8.80067 53.8411 9.286C53.5704 9.77133 53.4351 10.434 53.4351 11.274V12.954C53.4351 13.794 53.5704 14.4567 53.8411 14.942C54.1211 15.4273 54.5784 15.67 55.2131 15.67C55.4744 15.67 55.6984 15.6327 55.8851 15.558C56.0717 15.474 56.2257 15.362 56.3471 15.222C56.4777 15.0727 56.5851 14.9 56.6691 14.704C56.7531 14.508 56.8277 14.298 56.8931 14.074L58.5731 14.55C58.4704 14.9327 58.3304 15.2873 58.1531 15.614C57.9757 15.9313 57.7517 16.2067 57.4811 16.44C57.2104 16.664 56.8884 16.8413 56.5151 16.972C56.1511 17.1027 55.7264 17.168 55.2411 17.168ZM60.3456 17V7.228H66.5196V8.74H62.1796V11.288H66.3656V12.8H62.1796V15.488H66.5196V17H60.3456ZM74.8301 8.824H70.3501L70.1121 12.1H70.2241C70.3361 11.8947 70.4575 11.708 70.5881 11.54C70.7188 11.3627 70.8681 11.2133 71.0361 11.092C71.2135 10.9707 71.4095 10.8773 71.6241 10.812C71.8481 10.7467 72.1048 10.714 72.3941 10.714C72.8048 10.714 73.1921 10.784 73.5561 10.924C73.9201 11.064 74.2375 11.2647 74.5081 11.526C74.7788 11.7873 74.9888 12.1093 75.1381 12.492C75.2968 12.8747 75.3761 13.3087 75.3761 13.794C75.3761 14.2793 75.2921 14.7273 75.1241 15.138C74.9655 15.5487 74.7275 15.908 74.4101 16.216C74.1021 16.5147 73.7195 16.748 73.2621 16.916C72.8141 17.084 72.2961 17.168 71.7081 17.168C71.2508 17.168 70.8401 17.1167 70.4761 17.014C70.1215 16.9207 69.8088 16.79 69.5381 16.622C69.2675 16.454 69.0295 16.2627 68.8241 16.048C68.6188 15.824 68.4415 15.5953 68.2921 15.362L69.6221 14.312C69.7341 14.4987 69.8555 14.676 69.9861 14.844C70.1261 15.0027 70.2801 15.1427 70.4481 15.264C70.6161 15.3853 70.8028 15.4833 71.0081 15.558C71.2228 15.6233 71.4655 15.656 71.7361 15.656C72.2961 15.656 72.7208 15.5067 73.0101 15.208C73.3088 14.9 73.4581 14.48 73.4581 13.948V13.836C73.4581 13.3227 73.3088 12.9213 73.0101 12.632C72.7115 12.3427 72.2915 12.198 71.7501 12.198C71.3395 12.198 71.0035 12.2773 70.7421 12.436C70.4901 12.5853 70.2848 12.7487 70.1261 12.926L68.6281 12.716L68.9921 7.228H74.8301V8.824ZM78.3107 17L81.7967 8.726H78.3107V10.518H76.7427V7.228H83.6167V8.824L80.2427 17H78.3107ZM86.3972 13.612V11.862H90.7372V13.612H86.3972ZM93.9237 17V7.228H100.308V8.74H95.7577V11.288H99.8597V12.8H95.7577V17H93.9237ZM106.07 17V15.11H101.548V13.542L105.538 7.228H107.82V13.682H109.136V15.11H107.82V17H106.07ZM103.046 13.682H106.07V9.02H105.958L103.046 13.682ZM113.359 11.176C113.947 11.176 114.376 11.0593 114.647 10.826C114.927 10.5927 115.067 10.2987 115.067 9.944V9.846C115.067 9.44467 114.931 9.132 114.661 8.908C114.399 8.684 114.035 8.572 113.569 8.572C113.121 8.572 112.729 8.67467 112.393 8.88C112.057 9.08533 111.767 9.37467 111.525 9.748L110.335 8.684C110.503 8.46 110.689 8.25 110.895 8.054C111.109 7.84867 111.347 7.676 111.609 7.536C111.879 7.38667 112.178 7.27 112.505 7.186C112.831 7.102 113.205 7.06 113.625 7.06C114.119 7.06 114.572 7.12067 114.983 7.242C115.403 7.354 115.757 7.522 116.047 7.746C116.345 7.97 116.574 8.24067 116.733 8.558C116.901 8.866 116.985 9.216 116.985 9.608C116.985 9.916 116.933 10.196 116.831 10.448C116.728 10.7 116.588 10.9193 116.411 11.106C116.243 11.2927 116.042 11.4467 115.809 11.568C115.585 11.6893 115.342 11.778 115.081 11.834V11.904C115.37 11.96 115.641 12.0533 115.893 12.184C116.145 12.3053 116.364 12.464 116.551 12.66C116.737 12.856 116.887 13.094 116.999 13.374C117.111 13.6447 117.167 13.9527 117.167 14.298C117.167 14.7273 117.078 15.1193 116.901 15.474C116.723 15.8287 116.471 16.132 116.145 16.384C115.827 16.636 115.44 16.832 114.983 16.972C114.535 17.1027 114.031 17.168 113.471 17.168C113.004 17.168 112.589 17.1167 112.225 17.014C111.861 16.9207 111.539 16.79 111.259 16.622C110.979 16.454 110.736 16.2627 110.531 16.048C110.325 15.824 110.143 15.5953 109.985 15.362L111.343 14.312C111.576 14.704 111.851 15.026 112.169 15.278C112.495 15.53 112.939 15.656 113.499 15.656C114.059 15.656 114.488 15.53 114.787 15.278C115.095 15.0167 115.249 14.6573 115.249 14.2V14.088C115.249 13.64 115.085 13.2993 114.759 13.066C114.432 12.8233 113.97 12.702 113.373 12.702H112.393V11.176H113.359ZM125.197 8.824H120.717L120.479 12.1H120.591C120.703 11.8947 120.825 11.708 120.955 11.54C121.086 11.3627 121.235 11.2133 121.403 11.092C121.581 10.9707 121.777 10.8773 121.991 10.812C122.215 10.7467 122.472 10.714 122.761 10.714C123.172 10.714 123.559 10.784 123.923 10.924C124.287 11.064 124.605 11.2647 124.875 11.526C125.146 11.7873 125.356 12.1093 125.505 12.492C125.664 12.8747 125.743 13.3087 125.743 13.794C125.743 14.2793 125.659 14.7273 125.491 15.138C125.333 15.5487 125.095 15.908 124.777 16.216C124.469 16.5147 124.087 16.748 123.629 16.916C123.181 17.084 122.663 17.168 122.075 17.168C121.618 17.168 121.207 17.1167 120.843 17.014C120.489 16.9207 120.176 16.79 119.905 16.622C119.635 16.454 119.397 16.2627 119.191 16.048C118.986 15.824 118.809 15.5953 118.659 15.362L119.989 14.312C120.101 14.4987 120.223 14.676 120.353 14.844C120.493 15.0027 120.647 15.1427 120.815 15.264C120.983 15.3853 121.17 15.4833 121.375 15.558C121.59 15.6233 121.833 15.656 122.103 15.656C122.663 15.656 123.088 15.5067 123.377 15.208C123.676 14.9 123.825 14.48 123.825 13.948V13.836C123.825 13.3227 123.676 12.9213 123.377 12.632C123.079 12.3427 122.659 12.198 122.117 12.198C121.707 12.198 121.371 12.2773 121.109 12.436C120.857 12.5853 120.652 12.7487 120.493 12.926L118.995 12.716L119.359 7.228H125.197V8.824ZM130.148 11.176C130.736 11.176 131.165 11.0593 131.436 10.826C131.716 10.5927 131.856 10.2987 131.856 9.944V9.846C131.856 9.44467 131.721 9.132 131.45 8.908C131.189 8.684 130.825 8.572 130.358 8.572C129.91 8.572 129.518 8.67467 129.182 8.88C128.846 9.08533 128.557 9.37467 128.314 9.748L127.124 8.684C127.292 8.46 127.479 8.25 127.684 8.054C127.899 7.84867 128.137 7.676 128.398 7.536C128.669 7.38667 128.967 7.27 129.294 7.186C129.621 7.102 129.994 7.06 130.414 7.06C130.909 7.06 131.361 7.12067 131.772 7.242C132.192 7.354 132.547 7.522 132.836 7.746C133.135 7.97 133.363 8.24067 133.522 8.558C133.69 8.866 133.774 9.216 133.774 9.608C133.774 9.916 133.723 10.196 133.62 10.448C133.517 10.7 133.377 10.9193 133.2 11.106C133.032 11.2927 132.831 11.4467 132.598 11.568C132.374 11.6893 132.131 11.778 131.87 11.834V11.904C132.159 11.96 132.43 12.0533 132.682 12.184C132.934 12.3053 133.153 12.464 133.34 12.66C133.527 12.856 133.676 13.094 133.788 13.374C133.9 13.6447 133.956 13.9527 133.956 14.298C133.956 14.7273 133.867 15.1193 133.69 15.474C133.513 15.8287 133.261 16.132 132.934 16.384C132.617 16.636 132.229 16.832 131.772 16.972C131.324 17.1027 130.82 17.168 130.26 17.168C129.793 17.168 129.378 17.1167 129.014 17.014C128.65 16.9207 128.328 16.79 128.048 16.622C127.768 16.454 127.525 16.2627 127.32 16.048C127.115 15.824 126.933 15.5953 126.774 15.362L128.132 14.312C128.365 14.704 128.641 15.026 128.958 15.278C129.285 15.53 129.728 15.656 130.288 15.656C130.848 15.656 131.277 15.53 131.576 15.278C131.884 15.0167 132.038 14.6573 132.038 14.2V14.088C132.038 13.64 131.875 13.2993 131.548 13.066C131.221 12.8233 130.759 12.702 130.162 12.702H129.182V11.176H130.148ZM138.934 17.168C138.356 17.168 137.842 17.098 137.394 16.958C136.946 16.8087 136.568 16.608 136.26 16.356C135.952 16.104 135.719 15.8053 135.56 15.46C135.402 15.1147 135.322 14.7367 135.322 14.326C135.322 13.682 135.5 13.164 135.854 12.772C136.218 12.38 136.694 12.1047 137.282 11.946V11.834C136.778 11.6567 136.372 11.3813 136.064 11.008C135.766 10.6347 135.616 10.1633 135.616 9.594C135.616 9.22067 135.691 8.88 135.84 8.572C135.99 8.25467 136.204 7.984 136.484 7.76C136.764 7.536 137.11 7.36333 137.52 7.242C137.931 7.12067 138.402 7.06 138.934 7.06C139.466 7.06 139.938 7.12067 140.348 7.242C140.759 7.36333 141.104 7.536 141.384 7.76C141.664 7.984 141.879 8.25467 142.028 8.572C142.178 8.88 142.252 9.22067 142.252 9.594C142.252 10.1633 142.098 10.6347 141.79 11.008C141.492 11.3813 141.09 11.6567 140.586 11.834V11.946C141.174 12.1047 141.646 12.38 142 12.772C142.364 13.164 142.546 13.682 142.546 14.326C142.546 14.7367 142.467 15.1147 142.308 15.46C142.15 15.8053 141.916 16.104 141.608 16.356C141.3 16.608 140.922 16.8087 140.474 16.958C140.026 17.098 139.513 17.168 138.934 17.168ZM138.934 15.74C139.485 15.74 139.905 15.6187 140.194 15.376C140.493 15.124 140.642 14.7787 140.642 14.34V14.06C140.642 13.612 140.498 13.2667 140.208 13.024C139.919 12.772 139.494 12.646 138.934 12.646C138.374 12.646 137.95 12.772 137.66 13.024C137.371 13.2667 137.226 13.612 137.226 14.06V14.34C137.226 14.7787 137.371 15.124 137.66 15.376C137.959 15.6187 138.384 15.74 138.934 15.74ZM138.934 11.288C139.448 11.288 139.84 11.1713 140.11 10.938C140.381 10.7047 140.516 10.3827 140.516 9.972V9.776C140.516 9.37467 140.381 9.062 140.11 8.838C139.84 8.60467 139.448 8.488 138.934 8.488C138.421 8.488 138.029 8.60467 137.758 8.838C137.488 9.062 137.352 9.37467 137.352 9.776V9.972C137.352 10.3827 137.488 10.7047 137.758 10.938C138.029 11.1713 138.421 11.288 138.934 11.288Z" fill="#545454"/>
</svg>
