<svg width="622" height="623" viewBox="0 0 622 623" fill="none" xmlns="http://www.w3.org/2000/svg">
<path d="M622 0H0V622H622V0Z" fill="#1A1A1A"/>
<path d="M622 0H0V622H622V0Z" stroke="#262626"/>
<path d="M0 345.445C18.7698 345.445 33.9454 330.269 33.9454 311.499C33.9454 292.729 18.7698 277.554 0 277.554" stroke="#262626" stroke-linejoin="round"/>
<path d="M0 361.419C27.5557 361.419 49.9197 339.055 49.9197 311.499C49.9197 283.943 27.5557 261.579 0 261.579" stroke="#262626" stroke-linejoin="round"/>
<path d="M0 377.394C36.4414 377.394 65.8941 347.941 65.8941 311.5C65.8941 275.058 36.4414 245.605 0 245.605" stroke="#262626" stroke-linejoin="round"/>
<path d="M0 394.366C45.7265 394.366 82.8668 357.226 82.8668 311.499C82.8668 265.773 45.7265 228.632 0 228.632" stroke="#262626" stroke-linejoin="round"/>
<path d="M0 411.339C55.1114 411.339 99.8395 366.611 99.8395 311.499C99.8395 256.388 55.1114 211.66 0 211.66" stroke="#262626" stroke-linejoin="round"/>
<path d="M0 426.315C63.3981 426.315 114.815 374.898 114.815 311.499C114.815 248.101 63.3981 196.684 0 196.684" stroke="#262626" stroke-linejoin="round"/>
<path d="M0 443.288C72.783 443.288 131.788 384.283 131.788 311.5C131.788 238.717 72.783 179.711 0 179.711" stroke="#262626" stroke-linejoin="round"/>
<path d="M0 458.263C81.5689 458.263 147.762 392.569 147.762 311.499C147.762 230.429 81.5689 164.735 0 164.735" stroke="#262626" stroke-linejoin="round"/>
<path d="M0 476.234C90.9538 476.234 164.735 402.453 164.735 311.499C164.735 220.546 90.9538 146.764 0 146.764" stroke="#262626" stroke-linejoin="round"/>
<path d="M0 492.209C99.8395 492.209 180.709 411.339 180.709 311.5C180.709 211.66 99.8395 130.79 0 130.79" stroke="#262626" stroke-linejoin="round"/>
<path d="M0 508.183C108.625 508.183 196.684 420.125 196.684 311.499C196.684 202.874 108.625 114.815 0 114.815" stroke="#262626" stroke-linejoin="round"/>
<path d="M0 525.156C118.01 525.156 213.657 429.51 213.657 311.499C213.657 193.489 118.01 97.8428 0 97.8428" stroke="#262626" stroke-linejoin="round"/>
<path d="M0 542.128C127.395 542.128 230.629 438.894 230.629 311.499C230.629 184.104 127.395 80.8696 0 80.8696" stroke="#262626" stroke-linejoin="round"/>
<path d="M0 559.101C136.78 559.101 247.602 448.279 247.602 311.499C247.602 174.719 136.78 63.897 0 63.897" stroke="#262626" stroke-linejoin="round"/>
<path d="M0 576.074C145.566 576.074 263.576 457.664 263.576 311.499C263.576 165.334 145.566 46.9248 0 46.9248" stroke="#262626" stroke-linejoin="round"/>
<path d="M0 592.048C154.951 592.048 280.549 466.45 280.549 311.499C280.549 156.548 154.951 30.9502 0 30.9502" stroke="#262626" stroke-linejoin="round"/>
<path d="M0 608.022C163.138 608.022 295.525 475.236 295.525 311.499C295.525 147.762 163.138 14.9756 0 14.9756" stroke="#262626" stroke-linejoin="round"/>
<path d="M34.9443 621.001C190.594 603.358 311.5 471.383 311.5 311C311.5 150.616 190.594 18.5415 34.9443 0.998047" stroke="#262626" stroke-linejoin="round"/>
<path d="M110.323 621.5C238.317 576.074 329.97 454.769 329.97 311.499C329.97 168.229 238.417 46.425 110.323 0.998047" stroke="#262626" stroke-linejoin="round"/>
<path d="M153.753 621.5C267.969 564.792 346.443 447.58 346.443 311.499C346.443 175.418 267.869 57.7069 153.753 0.998047" stroke="#262626" stroke-linejoin="round"/>
<path d="M186.7 621.001C292.031 557.603 362.617 443.287 362.617 311.499C362.617 179.711 292.131 64.496 186.9 0.998047" stroke="#262626" stroke-linecap="round" stroke-linejoin="round"/>
<path d="M216.153 621.001C314.495 552.611 378.891 440.092 378.891 311.499C378.891 182.906 314.495 69.3881 216.153 0.998047" stroke="#262626" stroke-linecap="round" stroke-linejoin="round"/>
<path d="M244.606 621.001C336.459 548.618 395.364 437.396 395.364 311.499C395.364 185.601 336.359 73.3817 244.606 0.998047" stroke="#262626" stroke-linejoin="round"/>
<path d="M271.064 621.5C357.925 545.922 412.837 435.3 412.837 311.499C412.837 187.698 357.925 76.5765 271.064 0.998047" stroke="#262626" stroke-linejoin="round"/>
<path d="M295.025 621.5C467.149 458.562 473.938 187.997 310.401 16.4732C305.309 11.1817 300.117 5.99002 294.826 0.998047" stroke="#262626" stroke-linejoin="round"/>
<path d="M318.987 621.5C488.015 448.678 487.915 173.82 318.887 0.998047" stroke="#262626" stroke-linejoin="round"/>
<path d="M339.455 621.5C500.496 445.683 500.496 176.815 339.455 0.998047" stroke="#262626" stroke-linejoin="round"/>
<path d="M362.417 621.5C515.471 442.788 515.172 179.711 362.118 0.998047" stroke="#262626" stroke-linejoin="round"/>
<path d="M382.885 621.5C529.349 440.491 529.349 182.007 382.885 0.998047" stroke="#262626" stroke-linejoin="round"/>
<path d="M405.847 621.5C544.325 438.195 544.225 184.303 405.748 0.998047" stroke="#262626" stroke-linejoin="round"/>
<path d="M425.816 621.5C558.902 436.398 558.802 186.1 425.716 0.998047" stroke="#262626" stroke-linejoin="round"/>
<path d="M445.284 621.5C574.377 434.9 574.377 187.598 445.284 0.998047" stroke="#262626" stroke-linejoin="round"/>
<path d="M465.751 621.5C589.552 433.403 589.652 189.096 465.851 0.998047" stroke="#262626" stroke-linejoin="round"/>
<path d="M486.219 621.5C606.026 432.105 605.926 190.394 486.119 0.998047" stroke="#262626" stroke-linejoin="round"/>
<path d="M505.188 621.5C622.3 431.007 622.1 191.492 504.988 0.998047" stroke="#262626" stroke-linejoin="round"/>
<path d="M523.658 621.5C636.776 430.008 636.676 192.49 523.558 0.998047" stroke="#262626" stroke-linejoin="round"/>
<path d="M543.227 621.601C584.261 550.516 610.619 472.042 621.002 390.772" stroke="#262626" stroke-linejoin="round"/>
<path d="M543.227 1.39844C584.261 72.4841 610.619 150.958 621.002 232.227" stroke="#262626" stroke-linecap="round" stroke-linejoin="round"/>
<path d="M562.595 621.5C587.755 576.273 607.523 528.65 621.001 478.73" stroke="#262626" stroke-linejoin="round"/>
<path d="M562.696 0.998047C587.855 46.2253 607.524 94.348 621.002 144.268" stroke="#262626" stroke-linecap="round" stroke-linejoin="round"/>
<path d="M581.066 621.501C596.641 592.647 609.92 563.194 621.002 532.343" stroke="#262626" stroke-linejoin="round"/>
<path d="M580.866 0.998047C596.441 29.8517 609.92 59.8035 621.002 90.6539" stroke="#262626" stroke-linecap="round" stroke-linejoin="round"/>
<path d="M621.002 581.265C614.912 595.042 608.122 608.122 601.034 621.501" stroke="#262626" stroke-linejoin="round"/>
<path d="M621.001 41.7326C614.911 27.9547 608.222 14.3765 601.133 0.998047" stroke="#262626" stroke-linecap="round" stroke-linejoin="round"/>
<path d="M0 329.471C9.88411 329.471 17.9711 321.384 17.9711 311.499C17.9711 308.205 17.0726 305.01 15.3753 302.214C15.2754 302.115 15.1756 301.915 15.0758 301.715C11.7811 296.623 6.09021 293.528 0 293.528" stroke="#262626" stroke-linejoin="round"/>
<path d="M17.9717 311.5H620.503" stroke="#262626" stroke-linejoin="round"/>
<path d="M17.7705 308.803L621.001 208.165" stroke="#262626" stroke-linejoin="round"/>
<path d="M16.9727 305.509L620.502 106.829" stroke="#262626" stroke-linecap="round" stroke-linejoin="round"/>
<path d="M15.375 302.114L506.186 0.998047" stroke="#262626" stroke-linecap="round" stroke-linejoin="round"/>
<path d="M13.2783 299.518L340.452 0.998047" stroke="#262626" stroke-linecap="round" stroke-linejoin="round"/>
<path d="M10.8828 297.222L236.52 0.998047" stroke="#262626" stroke-linecap="round" stroke-linejoin="round"/>
<path d="M7.8877 295.325L150.958 0.998047" stroke="#262626" stroke-linecap="round" stroke-linejoin="round"/>
<path d="M4.69336 294.127L84.6648 0.998047" stroke="#262626" stroke-linecap="round" stroke-linejoin="round"/>
<path d="M1.39746 293.628L24.8597 0.998047" stroke="#262626" stroke-linecap="round" stroke-linejoin="round"/>
<path d="M17.7705 314.194L621.001 414.833" stroke="#262626" stroke-linejoin="round"/>
<path d="M16.9727 317.489L620.502 516.17" stroke="#262626" stroke-linecap="round" stroke-linejoin="round"/>
<path d="M15.375 320.885L506.186 621.002" stroke="#262626" stroke-linecap="round" stroke-linejoin="round"/>
<path d="M13.2783 323.48L340.951 621.501" stroke="#262626" stroke-linecap="round" stroke-linejoin="round"/>
<path d="M10.8828 325.777L236.62 621.002" stroke="#262626" stroke-linejoin="round"/>
<path d="M7.8877 327.672L150.758 621.002" stroke="#262626" stroke-linejoin="round"/>
<path d="M4.69336 328.872L84.8645 621.002" stroke="#262626" stroke-linejoin="round"/>
<path d="M1.39746 329.371L23.9613 622.001" stroke="#262626" stroke-linejoin="round"/>
<path d="M159.743 323.48C166.36 323.48 171.724 318.116 171.724 311.499C171.724 304.883 166.36 299.519 159.743 299.519C153.127 299.519 147.763 304.883 147.763 311.499C147.763 318.116 153.127 323.48 159.743 323.48Z" stroke="#262626" stroke-linecap="round" stroke-linejoin="round"/>
<path d="M168.729 348.44C189.13 348.44 205.669 331.901 205.669 311.499C205.669 291.097 189.13 274.559 168.729 274.559C148.327 274.559 131.788 291.097 131.788 311.499C131.788 331.901 148.327 348.44 168.729 348.44Z" stroke="#262626" stroke-linecap="round" stroke-linejoin="round"/>
<path d="M177.714 374.398C212.452 374.398 240.613 346.238 240.613 311.499C240.613 276.761 212.452 248.601 177.714 248.601C142.976 248.601 114.815 276.761 114.815 311.499C114.815 346.238 142.976 374.398 177.714 374.398Z" stroke="#262626" stroke-linecap="round" stroke-linejoin="round"/>
<path d="M185.702 397.361C233.122 397.361 271.564 358.919 271.564 311.499C271.564 264.079 233.122 225.637 185.702 225.637C138.282 225.637 99.8398 264.079 99.8398 311.499C99.8398 358.919 138.282 397.361 185.702 397.361Z" stroke="#262626" stroke-linecap="round" stroke-linejoin="round"/>
<path d="M200.677 429.31C265.742 429.31 318.487 376.565 318.487 311.5C318.487 246.435 265.742 193.689 200.677 193.689C135.612 193.689 82.8662 246.435 82.8662 311.5C82.8662 376.565 135.612 429.31 200.677 429.31Z" stroke="white" stroke-linecap="round" stroke-linejoin="round"/>
<path d="M250.597 496.202C352.605 496.202 435.3 413.508 435.3 311.499C435.3 209.49 352.605 126.796 250.597 126.796C148.588 126.796 65.8936 209.49 65.8936 311.499C65.8936 413.508 148.588 496.202 250.597 496.202Z" stroke="#262626" stroke-linecap="round" stroke-linejoin="round"/>
<path d="M317.49 579.069C465.264 579.069 585.06 459.274 585.06 311.5C585.06 163.725 465.264 43.9297 317.49 43.9297C169.715 43.9297 49.9199 163.725 49.9199 311.5C49.9199 459.274 169.715 579.069 317.49 579.069Z" stroke="white" stroke-linecap="round" stroke-linejoin="round"/>
</svg>
