<svg width="130" height="108" viewBox="0 0 130 108" fill="none" xmlns="http://www.w3.org/2000/svg">
<rect width="130" height="108" fill="#F0F075"/>
<path d="M36.6725 31.224C41.7305 31.224 45.5105 28.218 45.5105 23.7C45.5105 19.272 42.5945 17.634 39.9485 16.338C37.7345 15.258 35.7545 14.34 35.7545 12.234C35.7545 10.596 37.1405 9.48 39.2645 9.48C40.0745 9.48 40.7945 9.642 41.4605 9.858C41.6045 11.19 43.0265 12.036 44.3585 12.036C45.9065 12.036 46.7885 10.938 46.7885 9.498C46.7885 8.868 46.5905 8.202 46.1405 7.644C44.8445 5.988 42.0365 5.052 38.8145 5.052C34.6925 5.052 30.1925 7.644 30.1925 12.684C30.1925 17.292 33.2525 19.128 35.9885 20.532C38.0585 21.594 39.9305 22.494 39.9305 24.222C39.9305 25.824 38.4725 26.706 36.6185 26.706C34.9265 26.706 33.7565 25.86 32.8205 23.862C32.1905 22.53 31.3265 21.828 30.1205 21.828C28.6445 21.828 27.8705 22.872 27.8705 24.24C27.8705 24.672 27.9425 25.14 28.1045 25.626C29.3105 29.172 32.8385 31.224 36.6725 31.224ZM52.4368 30.108C54.4888 30.108 56.6488 29.262 58.5748 26.166C58.7008 27.03 58.9528 27.75 59.2948 28.29C59.7448 29.01 60.8248 30.036 62.4448 30.036C64.1008 30.036 65.2168 28.956 65.2168 27.714C65.2168 27.138 64.9648 26.508 64.3888 25.968C63.8848 25.482 63.7048 25.374 63.5968 25.284C63.5248 24.816 63.4708 23.844 63.4708 22.908C63.4708 22.152 63.5248 20.928 63.6148 20.118C64.0648 18.768 64.2808 17.634 64.2808 16.698C64.2808 14.808 63.3628 13.8 61.6528 13.8C61.4548 13.8 61.2568 13.818 61.0768 13.836C60.2848 13.44 59.2048 13.17 58.1248 13.17C52.1308 13.17 47.9008 19.2 47.9008 24.87C47.9008 28.182 49.6108 30.108 52.4368 30.108ZM53.6608 25.194C52.9768 25.194 53.1028 23.934 53.2468 23.088C53.6788 20.64 55.5148 17.598 58.0348 17.598C58.2868 17.598 58.5568 17.634 58.7908 17.688C56.3608 24.312 54.4168 25.194 53.6608 25.194ZM72.3974 31.008C73.9094 31.008 75.1514 30.18 76.3754 28.902C77.2934 27.93 78.2654 26.67 79.3454 25.05C80.7494 22.962 82.6754 19.47 83.6294 16.554C84.0434 15.294 83.8994 13.008 81.3254 13.008C79.6694 13.008 78.8414 13.944 78.1934 15.672C77.3654 17.904 76.2494 20.514 75.1514 22.494C74.8274 23.088 74.3774 23.808 73.8734 24.546C73.7834 23.484 73.6394 22.332 73.4954 21.18C73.2794 19.542 72.8654 17.094 72.4694 15.726C71.8574 13.62 70.7774 13.116 69.2834 13.116C67.3394 13.116 66.4214 14.7 67.0154 16.896C67.3934 18.3 67.8254 19.902 68.3474 22.332C68.7974 24.384 69.2654 26.31 69.6074 28.128C69.7694 30.504 70.9034 31.008 72.3974 31.008ZM93.2954 30.576C96.5174 30.576 98.5514 29.514 99.6674 28.074C100.873 26.526 100.081 24.024 97.7054 24.834C96.4814 25.248 94.9694 25.842 93.2774 25.842C91.5134 25.842 90.1814 24.942 90.1094 22.962C91.4054 23.412 92.9534 23.646 94.4114 23.646C98.1014 23.646 101.845 21.9 102.205 18.336C102.583 14.646 99.5414 12.648 94.9694 12.648C89.1914 12.648 84.7454 17.166 84.7454 22.728C84.7454 27.48 88.2014 30.576 93.2954 30.576ZM93.4754 19.776C92.7734 19.776 91.9454 19.722 91.1354 19.596C92.1434 18.192 93.7274 17.382 95.2754 17.382C96.0854 17.382 96.6254 17.58 96.6254 18.174C96.6254 18.984 95.6354 19.776 93.4754 19.776Z" fill="#1A1A1A"/>
<path d="M11.808 99L29.088 57.528H12.816V66.672H3.672L3.672 48.744H39.816V58.104L23.184 99H11.808ZM64.7719 99.864C58.0519 99.864 53.0839 97.584 49.8679 93.024C46.6999 88.464 45.1159 82.08 45.1159 73.872C45.1159 65.664 46.6999 59.28 49.8679 54.72C53.0839 50.16 58.0519 47.88 64.7719 47.88C71.4919 47.88 76.4359 50.16 79.6039 54.72C82.8199 59.28 84.4279 65.664 84.4279 73.872C84.4279 82.08 82.8199 88.464 79.6039 93.024C76.4359 97.584 71.4919 99.864 64.7719 99.864ZM64.7719 91.368C67.9879 91.368 70.2199 90.24 71.4679 87.984C72.7639 85.728 73.4119 82.584 73.4119 78.552V69.192C73.4119 65.16 72.7639 62.016 71.4679 59.76C70.2199 57.504 67.9879 56.376 64.7719 56.376C61.5559 56.376 59.2999 57.504 58.0039 59.76C56.7559 62.016 56.1319 65.16 56.1319 69.192V78.552C56.1319 82.584 56.7559 85.728 58.0039 87.984C59.2999 90.24 61.5559 91.368 64.7719 91.368ZM64.7719 78.12C63.0919 78.12 61.9159 77.784 61.2439 77.112C60.6199 76.44 60.3079 75.624 60.3079 74.664V73.08C60.3079 72.12 60.6199 71.304 61.2439 70.632C61.9159 69.96 63.0919 69.624 64.7719 69.624C66.4519 69.624 67.6039 69.96 68.2279 70.632C68.8999 71.304 69.2359 72.12 69.2359 73.08V74.664C69.2359 75.624 68.8999 76.44 68.2279 77.112C67.6039 77.784 66.4519 78.12 64.7719 78.12ZM98.2238 74.664C94.6238 74.664 91.8398 73.488 89.8718 71.136C87.9038 68.736 86.9198 65.448 86.9198 61.272C86.9198 57.096 87.9038 53.832 89.8718 51.48C91.8398 49.08 94.6238 47.88 98.2238 47.88C101.824 47.88 104.608 49.08 106.576 51.48C108.544 53.832 109.528 57.096 109.528 61.272C109.528 65.448 108.544 68.736 106.576 71.136C104.608 73.488 101.824 74.664 98.2238 74.664ZM98.2238 68.4C99.6158 68.4 100.576 67.896 101.104 66.888C101.68 65.88 101.968 64.536 101.968 62.856V59.688C101.968 58.008 101.68 56.664 101.104 55.656C100.576 54.648 99.6158 54.144 98.2238 54.144C96.8318 54.144 95.8478 54.648 95.2718 55.656C94.7438 56.664 94.4798 58.008 94.4798 59.688V62.856C94.4798 64.536 94.7438 65.88 95.2718 66.888C95.8478 67.896 96.8318 68.4 98.2238 68.4ZM121.264 48.744H129.4L118.528 70.344H110.392L121.264 48.744ZM97.3598 77.4H105.496L94.6238 99H86.4878L97.3598 77.4ZM117.736 99.864C114.136 99.864 111.352 98.688 109.384 96.336C107.416 93.936 106.432 90.648 106.432 86.472C106.432 82.296 107.416 79.032 109.384 76.68C111.352 74.28 114.136 73.08 117.736 73.08C121.336 73.08 124.12 74.28 126.088 76.68C128.056 79.032 129.04 82.296 129.04 86.472C129.04 90.648 128.056 93.936 126.088 96.336C124.12 98.688 121.336 99.864 117.736 99.864ZM117.736 93.6C119.128 93.6 120.088 93.096 120.616 92.088C121.192 91.08 121.48 89.736 121.48 88.056V84.888C121.48 83.208 121.192 81.864 120.616 80.856C120.088 79.848 119.128 79.344 117.736 79.344C116.344 79.344 115.36 79.848 114.784 80.856C114.256 81.864 113.992 83.208 113.992 84.888V88.056C113.992 89.736 114.256 91.08 114.784 92.088C115.36 93.096 116.344 93.6 117.736 93.6Z" fill="#1A1A1A"/>
</svg>
