<svg width="64" height="64" viewBox="0 0 64 64" fill="none" xmlns="http://www.w3.org/2000/svg">
<mask id="mask0_7552_8359" style="mask-type:alpha" maskUnits="userSpaceOnUse" x="0" y="0" width="64" height="59">
<rect width="64" height="58.3555" fill="url(#paint0_radial_7552_8359)"/>
</mask>
<g mask="url(#mask0_7552_8359)">
<mask id="path-2-inside-1_7552_8359" fill="white">
<path fill-rule="evenodd" clip-rule="evenodd" d="M59.7042 51.7042C56.9537 54.4548 53.2232 56 49.3333 56C45.4449 55.9954 41.717 54.4487 38.9675 51.6992C36.218 48.9496 34.6713 45.2218 34.6667 41.3333C34.6667 26.092 42.8427 14.2947 49.7 7.08133C49.8246 6.95028 49.9745 6.84593 50.1407 6.77465C50.3069 6.70336 50.4858 6.66662 50.6667 6.66666H53.3333C53.5713 6.66666 53.805 6.73037 54.0101 6.85117C54.2152 6.97198 54.3841 7.14547 54.4995 7.35364C54.6149 7.56181 54.6725 7.79707 54.6662 8.035C54.66 8.27292 54.5901 8.50483 54.464 8.70667C50.9923 14.1504 48.8097 20.3152 48.0827 26.7307C48.496 26.6947 48.9107 26.6667 49.3333 26.6667C53.2232 26.6667 56.9537 28.2119 59.7042 30.9624C62.4548 33.713 64 37.4435 64 41.3333C64 45.2232 62.4548 48.9537 59.7042 51.7042ZM25.035 51.7042C22.2845 54.4548 18.5539 56 14.6641 56C10.7757 55.9954 7.04781 54.4487 4.29827 51.6992C1.54873 48.9496 0.0020256 45.2218 -0.00256348 41.3333C-0.00256348 26.092 8.17344 14.2947 15.0308 7.08133C15.1554 6.95028 15.3053 6.84593 15.4715 6.77465C15.6377 6.70336 15.8166 6.66662 15.9974 6.66666H18.6641C18.9021 6.66666 19.1358 6.73037 19.3409 6.85117C19.5459 6.97198 19.7149 7.14547 19.8303 7.35364C19.9457 7.56181 20.0032 7.79707 19.997 8.035C19.9907 8.27292 19.9209 8.50483 19.7948 8.70667C16.3231 14.1504 14.1405 20.3152 13.4134 26.7307C13.8268 26.6947 14.2414 26.6667 14.6641 26.6667C18.5539 26.6667 22.2845 28.2119 25.035 30.9624C27.7855 33.713 29.3308 37.4435 29.3308 41.3333C29.3308 45.2232 27.7855 48.9537 25.035 51.7042Z"/>
</mask>
<path d="M49.3333 56L49.3322 57H49.3333V56ZM59.7042 51.7042L58.9971 50.9971H58.9971L59.7042 51.7042ZM38.9675 51.6992L38.2604 52.4063V52.4063L38.9675 51.6992ZM34.6667 41.3333H33.6667V41.3345L34.6667 41.3333ZM49.7 7.08133L48.9752 6.39233L48.9752 6.39234L49.7 7.08133ZM50.6667 6.66666L50.6664 7.66666H50.6667V6.66666ZM54.0101 6.85117L54.5176 5.98956L54.5176 5.98955L54.0101 6.85117ZM54.6662 8.035L53.6666 8.00875V8.00875L54.6662 8.035ZM54.464 8.70667L55.3072 9.24439L55.312 9.23666L54.464 8.70667ZM48.0827 26.7307L47.089 26.6181L46.9513 27.833L48.1694 27.7269L48.0827 26.7307ZM59.7042 30.9624L58.9971 31.6695H58.9971L59.7042 30.9624ZM14.6641 56L14.6629 57H14.6641V56ZM25.035 51.7042L24.3279 50.9971V50.9971L25.035 51.7042ZM4.29827 51.6992L5.00538 50.9921L4.29827 51.6992ZM-0.00256348 41.3333H-1.00256V41.3345L-0.00256348 41.3333ZM15.0308 7.08133L14.306 6.39233L14.306 6.39234L15.0308 7.08133ZM15.4715 6.77465L15.8657 7.69366L15.8657 7.69366L15.4715 6.77465ZM15.9974 6.66666L15.9972 7.66666H15.9974V6.66666ZM19.3409 6.85117L19.8484 5.98956L19.8484 5.98955L19.3409 6.85117ZM19.8303 7.35364L18.9556 7.8384L18.9557 7.83841L19.8303 7.35364ZM19.997 8.035L18.9973 8.00874L19.997 8.035ZM19.7948 8.70667L20.6379 9.24438L20.6428 9.23666L19.7948 8.70667ZM13.4134 26.7307L12.4198 26.6181L12.2821 27.833L13.5002 27.7269L13.4134 26.7307ZM25.035 30.9624L24.3279 31.6695L25.035 30.9624ZM49.3333 57C53.4884 57 57.4733 55.3494 60.4113 52.4113L58.9971 50.9971C56.4341 53.5601 52.958 55 49.3333 55V57ZM38.2604 52.4063C41.1972 55.3431 45.1789 56.9951 49.3322 57L49.3345 55C45.7109 54.9957 42.2369 53.5544 39.6746 50.9921L38.2604 52.4063ZM33.6667 41.3345C33.6716 45.4878 35.3236 49.4695 38.2604 52.4063L39.6746 50.9921C37.1123 48.4298 35.6709 44.9558 35.6667 41.3322L33.6667 41.3345ZM48.9752 6.39234C42.0363 13.6915 33.6667 25.7246 33.6667 41.3333H35.6667C35.6667 26.4594 43.6491 14.8978 50.4248 7.77033L48.9752 6.39234ZM49.7465 5.85563C49.4557 5.98038 49.1933 6.16299 48.9752 6.39233L50.4248 7.77034C50.4559 7.73756 50.4934 7.71148 50.5349 7.69366L49.7465 5.85563ZM50.6669 5.66666C50.3505 5.66659 50.0373 5.73088 49.7465 5.85563L50.5349 7.69366C50.5765 7.67584 50.6212 7.66665 50.6664 7.66666L50.6669 5.66666ZM53.3333 5.66666H50.6667V7.66666H53.3333V5.66666ZM54.5176 5.98955C54.1588 5.77816 53.7498 5.66666 53.3333 5.66666V7.66666C53.3928 7.66666 53.4513 7.68259 53.5025 7.7128L54.5176 5.98955ZM55.3742 6.86887C55.1723 6.50457 54.8765 6.20096 54.5176 5.98956L53.5025 7.71279C53.5538 7.74299 53.596 7.78637 53.6249 7.83841L55.3742 6.86887ZM55.6659 8.06124C55.6768 7.64488 55.5761 7.23317 55.3742 6.86887L53.6249 7.83841C53.6537 7.89045 53.6681 7.94927 53.6666 8.00875L55.6659 8.06124ZM55.312 9.23666C55.5327 8.88346 55.6549 8.47762 55.6659 8.06124L53.6666 8.00875C53.665 8.06823 53.6475 8.12621 53.616 8.17667L55.312 9.23666ZM49.0763 26.8433C49.7862 20.5791 51.9173 14.5597 55.3071 9.24437L53.6209 8.16896C50.0673 13.7411 47.8332 20.0513 47.089 26.6181L49.0763 26.8433ZM49.3333 25.6667C48.8681 25.6667 48.4204 25.6975 47.9959 25.7344L48.1694 27.7269C48.5716 27.6919 48.9532 27.6667 49.3333 27.6667V25.6667ZM60.4113 30.2553C57.4733 27.3173 53.4884 25.6667 49.3333 25.6667V27.6667C52.958 27.6667 56.4341 29.1065 58.9971 31.6695L60.4113 30.2553ZM65 41.3333C65 37.1783 63.3494 33.1934 60.4113 30.2553L58.9971 31.6695C61.5601 34.2325 63 37.7087 63 41.3333H65ZM60.4113 52.4113C63.3494 49.4733 65 45.4884 65 41.3333H63C63 44.958 61.5601 48.4341 58.9971 50.9971L60.4113 52.4113ZM14.6641 57C18.8192 57 22.804 55.3494 25.7421 52.4113L24.3279 50.9971C21.7649 53.5601 18.2887 55 14.6641 55V57ZM3.59116 52.4063C6.52795 55.3431 10.5097 56.9951 14.6629 57L14.6653 55C11.0417 54.9957 7.56767 53.5544 5.00538 50.9921L3.59116 52.4063ZM-1.00256 41.3345C-0.997658 45.4878 0.654377 49.4695 3.59116 52.4063L5.00538 50.9921C2.44309 48.4298 1.00171 44.9558 0.997437 41.3322L-1.00256 41.3345ZM14.306 6.39234C7.36705 13.6915 -1.00256 25.7246 -1.00256 41.3333H0.997437C0.997437 26.4594 8.97982 14.8978 15.7555 7.77033L14.306 6.39234ZM15.0773 5.85563C14.7864 5.98038 14.524 6.16299 14.306 6.39233L15.7555 7.77034C15.7867 7.73756 15.8242 7.71148 15.8657 7.69366L15.0773 5.85563ZM15.9977 5.66666C15.6812 5.66659 15.3681 5.73088 15.0773 5.85563L15.8657 7.69366C15.9073 7.67584 15.952 7.66665 15.9972 7.66666L15.9977 5.66666ZM18.6641 5.66666H15.9974V7.66666H18.6641V5.66666ZM19.8484 5.98955C19.4895 5.77816 19.0806 5.66666 18.6641 5.66666V7.66666C18.7236 7.66666 18.782 7.68259 18.8333 7.7128L19.8484 5.98955ZM20.7049 6.86889C20.503 6.50457 20.2073 6.20096 19.8484 5.98956L18.8333 7.71279C18.8846 7.74299 18.9268 7.78637 18.9556 7.8384L20.7049 6.86889ZM20.9966 8.06125C21.0076 7.64488 20.9069 7.23317 20.7049 6.86887L18.9557 7.83841C18.9845 7.89045 18.9989 7.94927 18.9973 8.00874L20.9966 8.06125ZM20.6428 9.23666C20.8635 8.88346 20.9857 8.47761 20.9966 8.06125L18.9973 8.00874C18.9958 8.06823 18.9783 8.12621 18.9468 8.17667L20.6428 9.23666ZM14.4071 26.8433C15.117 20.5791 17.2481 14.5597 20.6379 9.24437L18.9516 8.16896C15.3981 13.7411 13.164 20.0513 12.4198 26.6181L14.4071 26.8433ZM14.6641 25.6667C14.1989 25.6667 13.7511 25.6975 13.3267 25.7344L13.5002 27.7269C13.9024 27.6919 14.284 27.6667 14.6641 27.6667V25.6667ZM25.7421 30.2553C22.804 27.3173 18.8192 25.6667 14.6641 25.6667V27.6667C18.2887 27.6667 21.7649 29.1065 24.3279 31.6695L25.7421 30.2553ZM30.3308 41.3333C30.3308 37.1783 28.6802 33.1934 25.7421 30.2553L24.3279 31.6695C26.8909 34.2325 28.3308 37.7087 28.3308 41.3333H30.3308ZM25.7421 52.4113C28.6802 49.4733 30.3308 45.4884 30.3308 41.3333H28.3308C28.3308 44.958 26.8909 48.4341 24.3279 50.9971L25.7421 52.4113Z" fill="url(#paint1_linear_7552_8359)" mask="url(#path-2-inside-1_7552_8359)"/>
</g>
<defs>
<radialGradient id="paint0_radial_7552_8359" cx="0" cy="0" r="1" gradientUnits="userSpaceOnUse" gradientTransform="translate(18.4295 7.39788) rotate(73.9037) scale(53.0368 82.8848)">
<stop stop-color="#D9D9D9"/>
<stop offset="0.744797" stop-color="#737373" stop-opacity="0"/>
</radialGradient>
<linearGradient id="paint1_linear_7552_8359" x1="12.5851" y1="3.95109" x2="31.9987" y2="53.4767" gradientUnits="userSpaceOnUse">
<stop stop-color="#9CFBFA"/>
<stop offset="1" stop-color="#7483F7"/>
</linearGradient>
</defs>
</svg>
