<svg xmlns="http://www.w3.org/2000/svg" width="279" height="152" fill="none"><g filter="url(#a)" opacity=".6"><path fill="url(#b)" d="M30 62c0-17.673 14.327-32 32-32h155c17.673 0 32 14.327 32 32 0 33.137-26.863 60-60 60H90c-33.137 0-60-26.863-60-60Z"/><path stroke="#0C0D0D" d="M30.5 62c0-17.397 14.103-31.5 31.5-31.5h155c17.397 0 31.5 14.103 31.5 31.5 0 32.86-26.639 59.5-59.5 59.5H90c-32.86 0-59.5-26.64-59.5-59.5Z"/></g><path stroke="#0C0D0D" d="M6 13.5h267M6 11.5h267M6 9.5h267M6 7.5h267M6 5.5h267M6 17.5h267M6 15.5h267M6 19.5h267M6 21.5h267M6 23.5h267M6 27.5h267M6 25.5h267M6 29.5h267M6 31.5h267M6 33.5h267M6 37.5h267M6 35.5h267M6 39.5h267M6 41.5h267M6 43.5h267M6 47.5h267M6 45.5h267M6 49.5h267M6 51.5h267M6 53.5h267M6 57.5h267M6 55.5h267M6 59.5h267M6 61.5h267M6 63.5h267M6 67.5h267M6 65.5h267M6 69.5h267M6 71.5h267M6 73.5h267M6 77.5h267M6 75.5h267M6 79.5h267M6 81.5h267M6 83.5h267M6 87.5h267M6 85.5h267M6 89.5h267M6 91.5h267M6 93.5h267M6 97.5h267M6 95.5h267M6 99.5h267M6 101.5h267M6 103.5h267M6 107.5h267M6 105.5h267M6 109.5h267M6 111.5h267M6 113.5h267M6 117.5h267M6 115.5h267M6 119.5h267M6 121.5h267M6 123.5h267M6 127.5h267M6 125.5h267M6 129.5h267M6 131.5h267M6 133.5h267M6 137.5h267M6 135.5h267M6 139.5h267M6 141.5h267M6 143.5h267M6 145.5h267"/><defs><linearGradient id="b" x1="143.556" x2="143.556" y1="30" y2="147.556" gradientUnits="userSpaceOnUse"><stop offset=".789" stop-color="#00E599"/><stop offset="1" stop-color="#00E599" stop-opacity="0"/></linearGradient><filter id="a" width="279" height="152" x="0" y="0" color-interpolation-filters="sRGB" filterUnits="userSpaceOnUse"><feFlood flood-opacity="0" result="BackgroundImageFix"/><feBlend in="SourceGraphic" in2="BackgroundImageFix" result="shape"/><feGaussianBlur result="effect1_foregroundBlur_14543_27724" stdDeviation="15"/></filter></defs></svg>