<svg xmlns="http://www.w3.org/2000/svg" width="390" height="144" fill="none"><g filter="url(#a)" opacity=".6"><path fill="url(#b)" d="M34 43.931C34 38.446 38.446 34 43.931 34h302.138c5.485 0 9.931 4.446 9.931 9.931C356 78.211 328.211 106 293.931 106H96.069C61.789 106 34 78.21 34 43.931Z"/><path stroke="#0C0D0D" d="M34.5 43.931a9.431 9.431 0 0 1 9.431-9.431h302.138a9.43 9.43 0 0 1 9.431 9.431c0 34.004-27.565 61.569-61.569 61.569H96.069C62.065 105.5 34.5 77.935 34.5 43.931Z"/></g><path stroke="#0C0D0D" d="M7 17.5h376M7 15.5h376M7 13.5h376M7 11.5h376M7 9.5h376M7 21.5h376M7 19.5h376M7 23.5h376M7 25.5h376M7 27.5h376M7 31.5h376M7 29.5h376M7 33.5h376M7 35.5h376M7 37.5h376M7 41.5h376M7 39.5h376M7 43.5h376M7 45.5h376M7 47.5h376M7 51.5h376M7 49.5h376M7 53.5h376M7 55.5h376M7 57.5h376M7 61.5h376M7 59.5h376M7 63.5h376M7 65.5h376M7 67.5h376M7 71.5h376M7 69.5h376M7 73.5h376M7 75.5h376M7 77.5h376M7 81.5h376M7 79.5h376M7 83.5h376M7 85.5h376M7 87.5h376M7 91.5h376M7 89.5h376M7 93.5h376M7 95.5h376M7 97.5h376M7 101.5h376M7 99.5h376M7 103.5h376M7 105.5h376M7 107.5h376M7 111.5h376M7 109.5h376M7 113.5h376M7 115.5h376M7 117.5h376M7 121.5h376M7 119.5h376M7 123.5h376M7 125.5h376M7 127.5h376M7 131.5h376M7 129.5h376M7 133.5h376M7 135.5h376M7 137.5h376M7 141.5h376M7 139.5h376M7 143.5h376"/><defs><linearGradient id="b" x1="200.963" x2="200.963" y1="34" y2="126" gradientUnits="userSpaceOnUse"><stop offset=".789" stop-color="#00E599"/><stop offset="1" stop-color="#00E599" stop-opacity="0"/></linearGradient><filter id="a" width="390" height="140" x="0" y="0" color-interpolation-filters="sRGB" filterUnits="userSpaceOnUse"><feFlood flood-opacity="0" result="BackgroundImageFix"/><feBlend in="SourceGraphic" in2="BackgroundImageFix" result="shape"/><feGaussianBlur result="effect1_foregroundBlur_14530_27469" stdDeviation="17"/></filter></defs></svg>