<svg xmlns="http://www.w3.org/2000/svg" width="318" height="140" fill="none"><g filter="url(#a)" opacity=".6"><path fill="url(#b)" d="M34 43.931C34 38.446 38.446 34 43.931 34h230.138c5.485 0 9.931 4.446 9.931 9.931C284 78.211 256.211 106 221.931 106H96.069C61.789 106 34 78.21 34 43.931Z"/><path stroke="#0C0D0D" d="M34.5 43.931a9.431 9.431 0 0 1 9.431-9.431h230.138a9.43 9.43 0 0 1 9.431 9.431c0 34.004-27.565 61.569-61.569 61.569H96.069C62.065 105.5 34.5 77.935 34.5 43.931Z"/></g><path stroke="#0C0D0D" d="M11 13.5h296M11 11.5h296M11 9.5h296M11 7.5h296M11 5.5h296M11 17.5h296M11 15.5h296M11 19.5h296M11 21.5h296M11 23.5h296M11 27.5h296M11 25.5h296M11 29.5h296M11 31.5h296M11 33.5h296M11 37.5h296M11 35.5h296M11 39.5h296M11 41.5h296M11 43.5h296M11 47.5h296M11 45.5h296M11 49.5h296M11 51.5h296M11 53.5h296M11 57.5h296M11 55.5h296M11 59.5h296M11 61.5h296M11 63.5h296M11 67.5h296M11 65.5h296M11 69.5h296M11 71.5h296M11 73.5h296M11 77.5h296M11 75.5h296M11 79.5h296M11 81.5h296M11 83.5h296M11 87.5h296M11 85.5h296M11 89.5h296M11 91.5h296M11 93.5h296M11 97.5h296M11 95.5h296M11 99.5h296M11 101.5h296M11 103.5h296M11 107.5h296M11 105.5h296M11 109.5h296M11 111.5h296M11 113.5h296M11 117.5h296M11 115.5h296M11 119.5h296M11 121.5h296M11 123.5h296M11 127.5h296M11 125.5h296M11 129.5h296M21 131.5h276M21 133.5h276M21 137.5h276M21 135.5h276M21 139.5h276"/><defs><linearGradient id="b" x1="163.63" x2="163.63" y1="34" y2="126" gradientUnits="userSpaceOnUse"><stop offset=".789" stop-color="#F0F075"/><stop offset="1" stop-color="#F0F075" stop-opacity="0"/></linearGradient><filter id="a" width="318" height="140" x="0" y="0" color-interpolation-filters="sRGB" filterUnits="userSpaceOnUse"><feFlood flood-opacity="0" result="BackgroundImageFix"/><feBlend in="SourceGraphic" in2="BackgroundImageFix" result="shape"/><feGaussianBlur result="effect1_foregroundBlur_14530_26434" stdDeviation="17"/></filter></defs></svg>