<svg width="123" height="28" viewBox="0 0 123 28" fill="none" xmlns="http://www.w3.org/2000/svg">
<rect width="123" height="28" fill="white"/>
<path d="M8.85705 25.336C7.13971 25.336 5.68371 25.0467 4.48905 24.468C3.29438 23.8707 2.27705 23.1053 1.43705 22.172L4.23705 19.344C5.56238 20.8373 7.19571 21.584 9.13705 21.584C10.1824 21.584 10.957 21.3693 11.461 20.94C11.965 20.5107 12.217 19.9413 12.217 19.232C12.217 18.6907 12.0677 18.2427 11.769 17.888C11.4704 17.5147 10.8637 17.2627 9.94905 17.132L8.01705 16.88C5.94505 16.6187 4.42371 15.9933 3.45305 15.004C2.50105 14.0147 2.02505 12.6987 2.02505 11.056C2.02505 10.1787 2.19305 9.376 2.52905 8.648C2.86505 7.92 3.34105 7.29467 3.95705 6.772C4.59171 6.24933 5.35705 5.848 6.25305 5.568C7.16771 5.26933 8.20371 5.12 9.36105 5.12C10.8357 5.12 12.133 5.35333 13.253 5.82C14.373 6.28667 15.3344 6.968 16.137 7.864L13.309 10.72C12.8424 10.1787 12.273 9.74 11.601 9.404C10.9477 9.04933 10.117 8.872 9.10905 8.872C8.15705 8.872 7.44771 9.04 6.98105 9.376C6.51438 9.712 6.28105 10.1787 6.28105 10.776C6.28105 11.448 6.45838 11.9333 6.81305 12.232C7.18638 12.5307 7.78371 12.7453 8.60505 12.876L10.537 13.184C12.553 13.5013 14.0464 14.1267 15.017 15.06C15.9877 15.9747 16.473 17.2813 16.473 18.98C16.473 19.9133 16.305 20.772 15.969 21.556C15.633 22.34 15.1384 23.012 14.485 23.572C13.8504 24.132 13.057 24.5707 12.105 24.888C11.153 25.1867 10.0704 25.336 8.85705 25.336ZM27.4935 9.236V25H23.2375V9.236H17.9455V5.456H32.7855V9.236H27.4935ZM45.905 25L44.505 20.352H37.981L36.581 25H32.269L38.709 5.456H43.973L50.329 25H45.905ZM41.285 9.32H41.145L38.989 16.74H43.469L41.285 9.32ZM64.5893 21.892H64.4493C64.3 22.8813 63.796 23.7027 62.9373 24.356C62.0786 25.0093 60.912 25.336 59.4373 25.336C58.3173 25.336 57.272 25.1213 56.3013 24.692C55.3306 24.2627 54.4813 23.628 53.7533 22.788C53.0253 21.948 52.456 20.9027 52.0453 19.652C51.6346 18.4013 51.4293 16.9547 51.4293 15.312C51.4293 13.6693 51.644 12.2133 52.0733 10.944C52.5026 9.67467 53.1 8.61067 53.8653 7.752C54.6493 6.89333 55.5826 6.24 56.6653 5.792C57.748 5.344 58.952 5.12 60.2773 5.12C62.032 5.12 63.544 5.50267 64.8133 6.268C66.0826 7.01467 67.0813 8.144 67.8093 9.656L64.3373 11.644C64.0386 10.8787 63.572 10.2347 62.9373 9.712C62.3026 9.17067 61.416 8.9 60.2773 8.9C58.952 8.9 57.8973 9.28267 57.1133 10.048C56.3293 10.8133 55.9373 12.0173 55.9373 13.66V16.796C55.9373 18.42 56.3293 19.624 57.1133 20.408C57.8973 21.1733 58.952 21.556 60.2773 21.556C60.8 21.556 61.2946 21.5 61.7613 21.388C62.228 21.2573 62.6386 21.0707 62.9933 20.828C63.348 20.5667 63.6186 20.2587 63.8053 19.904C64.0106 19.5493 64.1133 19.1293 64.1133 18.644V17.664H60.4733V14.108H68.1733V25H64.5893V21.892ZM71.5543 25V21.612H74.0743V8.844H71.5543V5.456H80.8503V8.844H78.3303V21.612H80.8503V25H71.5543ZM90.3602 15.76L88.4842 11.84H88.4002V25H84.3962V5.456H89.0442L94.3922 14.696L96.2682 18.616H96.3522V5.456H100.356V25H95.7082L90.3602 15.76ZM117.062 21.892H116.922C116.773 22.8813 116.269 23.7027 115.41 24.356C114.551 25.0093 113.385 25.336 111.91 25.336C110.79 25.336 109.745 25.1213 108.774 24.692C107.803 24.2627 106.954 23.628 106.226 22.788C105.498 21.948 104.929 20.9027 104.518 19.652C104.107 18.4013 103.902 16.9547 103.902 15.312C103.902 13.6693 104.117 12.2133 104.546 10.944C104.975 9.67467 105.573 8.61067 106.338 7.752C107.122 6.89333 108.055 6.24 109.138 5.792C110.221 5.344 111.425 5.12 112.75 5.12C114.505 5.12 116.017 5.50267 117.286 6.268C118.555 7.01467 119.554 8.144 120.282 9.656L116.81 11.644C116.511 10.8787 116.045 10.2347 115.41 9.712C114.775 9.17067 113.889 8.9 112.75 8.9C111.425 8.9 110.37 9.28267 109.586 10.048C108.802 10.8133 108.41 12.0173 108.41 13.66V16.796C108.41 18.42 108.802 19.624 109.586 20.408C110.37 21.1733 111.425 21.556 112.75 21.556C113.273 21.556 113.767 21.5 114.234 21.388C114.701 21.2573 115.111 21.0707 115.466 20.828C115.821 20.5667 116.091 20.2587 116.278 19.904C116.483 19.5493 116.586 19.1293 116.586 18.644V17.664H112.946V14.108H120.646V25H117.062V21.892Z" fill="#1A1A1A"/>
</svg>
