<svg width="110" height="24" viewBox="0 0 110 24" fill="none" xmlns="http://www.w3.org/2000/svg">
<rect width="110" height="24" fill="#D9EEF2"/>
<path d="M8.20522 10.896C8.20522 11.596 8.09789 12.2587 7.88322 12.884C7.66855 13.5 7.38855 14.0693 7.04322 14.592C6.70722 15.1053 6.32922 15.5673 5.90922 15.978C5.48922 16.3887 5.06922 16.7293 4.64922 17H2.15722C2.74522 16.5893 3.26789 16.1973 3.72522 15.824C4.19189 15.4413 4.59322 15.054 4.92922 14.662C5.27455 14.27 5.55922 13.864 5.78322 13.444C6.01655 13.0147 6.18922 12.548 6.30122 12.044L6.18922 12.016C6.09589 12.2027 5.98389 12.3847 5.85322 12.562C5.72255 12.7393 5.56389 12.8933 5.37722 13.024C5.19989 13.1547 4.98989 13.262 4.74722 13.346C4.51389 13.4207 4.23855 13.458 3.92122 13.458C3.51055 13.458 3.12789 13.388 2.77322 13.248C2.41855 13.108 2.11055 12.9073 1.84922 12.646C1.58789 12.3753 1.38255 12.0533 1.23322 11.68C1.09322 11.3067 1.02322 10.8867 1.02322 10.42C1.02322 9.92533 1.10722 9.47267 1.27522 9.062C1.44322 8.65133 1.68122 8.29667 1.98922 7.998C2.30655 7.69933 2.68455 7.47067 3.12322 7.312C3.57122 7.144 4.06589 7.06 4.60722 7.06C5.17655 7.06 5.68055 7.15333 6.11922 7.34C6.56722 7.51733 6.94522 7.774 7.25322 8.11C7.56122 8.43667 7.79455 8.838 7.95322 9.314C8.12122 9.78067 8.20522 10.308 8.20522 10.896ZM4.62122 12.044C5.15322 12.044 5.56855 11.8993 5.86722 11.61C6.16589 11.3207 6.31522 10.9053 6.31522 10.364V10.196C6.31522 9.65467 6.17055 9.23933 5.88122 8.95C5.59189 8.65133 5.17189 8.502 4.62122 8.502C4.06122 8.502 3.63655 8.65133 3.34722 8.95C3.05789 9.23933 2.91322 9.65467 2.91322 10.196V10.364C2.91322 10.9053 3.05789 11.3207 3.34722 11.61C3.64589 11.8993 4.07055 12.044 4.62122 12.044ZM9.96375 7.228H13.3658C14.2898 7.228 14.9991 7.46133 15.4938 7.928C15.9978 8.38533 16.2498 9.01067 16.2498 9.804C16.2498 10.364 16.1098 10.812 15.8298 11.148C15.5591 11.484 15.1718 11.7267 14.6678 11.876V11.946C15.2558 12.086 15.7178 12.3427 16.0538 12.716C16.3991 13.08 16.5718 13.598 16.5718 14.27C16.5718 14.6807 16.5018 15.054 16.3618 15.39C16.2311 15.7167 16.0398 16.0013 15.7878 16.244C15.5451 16.4867 15.2464 16.6733 14.8918 16.804C14.5464 16.9347 14.1544 17 13.7158 17H9.96375V7.228ZM13.1558 15.67C13.6691 15.67 14.0518 15.5767 14.3038 15.39C14.5651 15.194 14.6958 14.8627 14.6958 14.396V13.934C14.6958 13.4767 14.5651 13.1547 14.3038 12.968C14.0518 12.772 13.6691 12.674 13.1558 12.674H11.7558V15.67H13.1558ZM12.9178 11.4C13.4124 11.4 13.7764 11.3113 14.0098 11.134C14.2524 10.9567 14.3738 10.6487 14.3738 10.21V9.748C14.3738 9.30933 14.2524 9.00133 14.0098 8.824C13.7764 8.64667 13.4124 8.558 12.9178 8.558H11.7558V11.4H12.9178ZM24.9383 17H18.0503V15.292L21.1863 12.618C21.7089 12.17 22.0963 11.764 22.3483 11.4C22.6003 11.0267 22.7263 10.63 22.7263 10.21V10.07C22.7263 9.60333 22.5956 9.24867 22.3343 9.006C22.0729 8.76333 21.7089 8.642 21.2423 8.642C20.7289 8.642 20.3369 8.782 20.0663 9.062C19.7956 9.342 19.5996 9.68733 19.4783 10.098L17.8823 9.496C17.9849 9.17867 18.1296 8.87533 18.3163 8.586C18.5123 8.28733 18.7503 8.026 19.0303 7.802C19.3196 7.578 19.6603 7.40067 20.0523 7.27C20.4443 7.13 20.8923 7.06 21.3963 7.06C21.9189 7.06 22.3809 7.13467 22.7823 7.284C23.1929 7.424 23.5383 7.62467 23.8183 7.886C24.0983 8.138 24.3083 8.44133 24.4483 8.796C24.5976 9.15067 24.6723 9.538 24.6723 9.958C24.6723 10.3593 24.6069 10.728 24.4763 11.064C24.3549 11.4 24.1823 11.722 23.9583 12.03C23.7343 12.3287 23.4683 12.618 23.1603 12.898C22.8616 13.178 22.5349 13.458 22.1803 13.738L20.0523 15.46H24.9383V17ZM26.7528 7.228H30.1548C31.0788 7.228 31.7881 7.46133 32.2828 7.928C32.7868 8.38533 33.0388 9.01067 33.0388 9.804C33.0388 10.364 32.8988 10.812 32.6188 11.148C32.3481 11.484 31.9608 11.7267 31.4568 11.876V11.946C32.0448 12.086 32.5068 12.3427 32.8428 12.716C33.1881 13.08 33.3608 13.598 33.3608 14.27C33.3608 14.6807 33.2908 15.054 33.1508 15.39C33.0201 15.7167 32.8288 16.0013 32.5768 16.244C32.3341 16.4867 32.0355 16.6733 31.6808 16.804C31.3355 16.9347 30.9435 17 30.5048 17H26.7528V7.228ZM29.9448 15.67C30.4581 15.67 30.8408 15.5767 31.0928 15.39C31.3541 15.194 31.4848 14.8627 31.4848 14.396V13.934C31.4848 13.4767 31.3541 13.1547 31.0928 12.968C30.8408 12.772 30.4581 12.674 29.9448 12.674H28.5448V15.67H29.9448ZM29.7068 11.4C30.2015 11.4 30.5655 11.3113 30.7988 11.134C31.0415 10.9567 31.1628 10.6487 31.1628 10.21V9.748C31.1628 9.30933 31.0415 9.00133 30.7988 8.824C30.5655 8.64667 30.2015 8.558 29.7068 8.558H28.5448V11.4H29.7068ZM36.0573 13.612V11.862H40.3973V13.612H36.0573ZM50.1779 10.896C50.1779 11.596 50.0705 12.2587 49.8559 12.884C49.6412 13.5 49.3612 14.0693 49.0159 14.592C48.6799 15.1053 48.3019 15.5673 47.8819 15.978C47.4619 16.3887 47.0419 16.7293 46.6219 17H44.1299C44.7179 16.5893 45.2405 16.1973 45.6979 15.824C46.1645 15.4413 46.5659 15.054 46.9019 14.662C47.2472 14.27 47.5319 13.864 47.7559 13.444C47.9892 13.0147 48.1619 12.548 48.2739 12.044L48.1619 12.016C48.0685 12.2027 47.9565 12.3847 47.8259 12.562C47.6952 12.7393 47.5365 12.8933 47.3499 13.024C47.1725 13.1547 46.9625 13.262 46.7199 13.346C46.4865 13.4207 46.2112 13.458 45.8939 13.458C45.4832 13.458 45.1005 13.388 44.7459 13.248C44.3912 13.108 44.0832 12.9073 43.8219 12.646C43.5605 12.3753 43.3552 12.0533 43.2059 11.68C43.0659 11.3067 42.9959 10.8867 42.9959 10.42C42.9959 9.92533 43.0799 9.47267 43.2479 9.062C43.4159 8.65133 43.6539 8.29667 43.9619 7.998C44.2792 7.69933 44.6572 7.47067 45.0959 7.312C45.5439 7.144 46.0385 7.06 46.5799 7.06C47.1492 7.06 47.6532 7.15333 48.0919 7.34C48.5399 7.51733 48.9179 7.774 49.2259 8.11C49.5339 8.43667 49.7672 8.838 49.9259 9.314C50.0939 9.78067 50.1779 10.308 50.1779 10.896ZM46.5939 12.044C47.1259 12.044 47.5412 11.8993 47.8399 11.61C48.1385 11.3207 48.2879 10.9053 48.2879 10.364V10.196C48.2879 9.65467 48.1432 9.23933 47.8539 8.95C47.5645 8.65133 47.1445 8.502 46.5939 8.502C46.0339 8.502 45.6092 8.65133 45.3199 8.95C45.0305 9.23933 44.8859 9.65467 44.8859 10.196V10.364C44.8859 10.9053 45.0305 11.3207 45.3199 11.61C45.6185 11.8993 46.0432 12.044 46.5939 12.044ZM51.9784 17V7.228H58.3624V8.74H53.8124V11.288H57.9144V12.8H53.8124V17H51.9784ZM60.4849 17V15.502H63.1729V8.558H63.0469L60.9189 11.078L59.7709 10.112L62.1929 7.228H65.0069V15.502H67.2189V17H60.4849ZM68.8795 17V15.502H71.5675V8.558H71.4415L69.3135 11.078L68.1655 10.112L70.5875 7.228H73.4015V15.502H75.6135V17H68.8795Z" fill="white"/>
<circle cx="98" cy="12" r="11" fill="#D9EEF2" stroke="white" stroke-width="2"/>
<circle cx="98" cy="12" r="4" fill="white"/>
</svg>
