<svg width="128" height="44" viewBox="0 0 128 44" fill="none" xmlns="http://www.w3.org/2000/svg">
<path d="M39.264 6.00884V37.5743L27.0649 26.9907V37.5743H8V6L39.264 6.00884ZM11.8323 33.7419H23.2326V18.5813L35.4318 29.3742V9.84003L11.8323 9.83327V33.7419Z" fill="#37C38F"/>
<path d="M64.4431 31.6211L52.3059 20.8791V31.4104H48.4883V12.5068L60.6256 23.2487V12.7175H64.4431V31.6211ZM68.6457 31.4104V12.7175H80.0722V16.4824H72.4633V20.1683H78.4924V23.8542H72.4633V27.6455H80.0722V31.4104H68.6457ZM91.8911 31.6211C86.5988 31.6211 82.3334 27.3559 82.3334 22.064C82.3334 16.772 86.5988 12.5068 91.8911 12.5068C97.1826 12.5068 101.448 16.772 101.448 22.064C101.448 27.3559 97.1826 31.6211 91.8911 31.6211ZM91.8911 27.9351C95.1554 27.9351 97.6038 25.3023 97.6038 22.064C97.6038 18.8256 95.1554 16.1927 91.8911 16.1927C88.626 16.1927 86.1775 18.8256 86.1775 22.064C86.1775 25.3023 88.626 27.9351 91.8911 27.9351ZM120.001 31.6211L107.864 20.8791V31.4104H104.046V12.5068L116.184 23.2487V12.7175H120.001V31.6211Z" fill="black"/>
</svg>
