<svg width="158" height="45" viewBox="0 0 158 45" fill="none" xmlns="http://www.w3.org/2000/svg">
<path fill-rule="evenodd" clip-rule="evenodd" d="M0 7.61152C0 3.40779 3.44137 0 7.68651 0H36.8952C41.1404 0 44.5817 3.40779 44.5817 7.61152V32.2111C44.5817 36.5601 39.0241 38.4476 36.3287 35.014L27.902 24.2798V37.2964C27.902 41.0798 24.8048 44.1468 20.9842 44.1468H7.68651C3.44137 44.1468 0 40.739 0 36.5353V7.61152ZM7.68651 6.08921C6.83748 6.08921 6.14921 6.77077 6.14921 7.61152V36.5353C6.14921 37.376 6.83748 38.0576 7.68651 38.0576H21.2148C21.6393 38.0576 21.7528 37.7168 21.7528 37.2964V19.8412C21.7528 15.4922 27.3104 13.6047 30.0059 17.0383L38.4325 27.7725V7.61152C38.4325 6.77077 38.5129 6.08921 37.6639 6.08921H7.68651Z" fill="#00E0D9"/>
<path fill-rule="evenodd" clip-rule="evenodd" d="M0 7.61152C0 3.40779 3.44137 0 7.68651 0H36.8952C41.1404 0 44.5817 3.40779 44.5817 7.61152V32.2111C44.5817 36.5601 39.0241 38.4476 36.3287 35.014L27.902 24.2798V37.2964C27.902 41.0798 24.8048 44.1468 20.9842 44.1468H7.68651C3.44137 44.1468 0 40.739 0 36.5353V7.61152ZM7.68651 6.08921C6.83748 6.08921 6.14921 6.77077 6.14921 7.61152V36.5353C6.14921 37.376 6.83748 38.0576 7.68651 38.0576H21.2148C21.6393 38.0576 21.7528 37.7168 21.7528 37.2964V19.8412C21.7528 15.4922 27.3104 13.6047 30.0059 17.0383L38.4325 27.7725V7.61152C38.4325 6.77077 38.5129 6.08921 37.6639 6.08921H7.68651Z" fill="url(#paint0_linear_10558_11737)"/>
<path fill-rule="evenodd" clip-rule="evenodd" d="M0 7.61152C0 3.40779 3.44137 0 7.68651 0H36.8952C41.1404 0 44.5817 3.40779 44.5817 7.61152V32.2111C44.5817 36.5601 39.0241 38.4476 36.3287 35.014L27.902 24.2798V37.2964C27.902 41.0798 24.8048 44.1468 20.9842 44.1468H7.68651C3.44137 44.1468 0 40.739 0 36.5353V7.61152ZM7.68651 6.08921C6.83748 6.08921 6.14921 6.77077 6.14921 7.61152V36.5353C6.14921 37.376 6.83748 38.0576 7.68651 38.0576H21.2148C21.6393 38.0576 21.7528 37.7168 21.7528 37.2964V19.8412C21.7528 15.4922 27.3104 13.6047 30.0059 17.0383L38.4325 27.7725V7.61152C38.4325 6.77077 38.5129 6.08921 37.6639 6.08921H7.68651Z" fill="url(#paint1_linear_10558_11737)" fill-opacity="0.4"/>
<path d="M36.8954 0C41.1406 0 44.5819 3.40779 44.5819 7.61152V32.2111C44.5819 36.5601 39.0243 38.4476 36.3289 35.014L27.9022 24.2798V37.2964C27.9022 41.0798 24.805 44.1468 20.9844 44.1468C21.4089 44.1468 21.753 43.806 21.753 43.3857V19.8412C21.753 15.4922 27.3106 13.6047 30.0061 17.0383L38.4327 27.7725V1.5223C38.4327 0.681558 37.7445 0 36.8954 0Z" fill="#63F655"/>
<path d="M75.1561 13.0033V24.5502L63.8496 13.0033H57.9648V31.8884H63.332V19.4782L75.6465 31.8884H80.5232V13.0033H75.1561Z" fill="#1A1A1A"/>
<path d="M90.4725 27.6797V24.3343H102.487V20.3145H90.4725V17.212H105.048V13.0033H84.9964V31.8884H105.348V27.6797H90.4725Z" fill="#1A1A1A"/>
<path d="M119.61 32.5089C127.157 32.5089 132.061 28.8398 132.061 22.4458C132.061 16.0519 127.157 12.3828 119.61 12.3828C112.063 12.3828 107.187 16.0519 107.187 22.4458C107.187 28.8398 112.063 32.5089 119.61 32.5089ZM119.61 28.0304C115.415 28.0304 112.826 26.007 112.826 22.4458C112.826 18.8847 115.442 16.8613 119.61 16.8613C123.806 16.8613 126.394 18.8847 126.394 22.4458C126.394 26.007 123.806 28.0304 119.61 28.0304Z" fill="#1A1A1A"/>
<path d="M152.632 13.0033V24.5502L141.326 13.0033H135.441V31.8884H140.808V19.4782L153.123 31.8884H157.999V13.0033H152.632Z" fill="#1A1A1A"/>
<defs>
<linearGradient id="paint0_linear_10558_11737" x1="44.5818" y1="44.1468" x2="5.8135" y2="-0.376947" gradientUnits="userSpaceOnUse">
<stop stop-color="#62F755"/>
<stop offset="1" stop-color="#8FF986" stop-opacity="0"/>
</linearGradient>
<linearGradient id="paint1_linear_10558_11737" x1="44.5817" y1="44.1468" x2="18.1704" y2="33.7724" gradientUnits="userSpaceOnUse">
<stop stop-opacity="0.9"/>
<stop offset="1" stop-color="#1A1A1A" stop-opacity="0"/>
</linearGradient>
</defs>
</svg>
