<svg version="1.2" xmlns="http://www.w3.org/2000/svg" viewBox="0 0 58 57" width="58" height="57">
	<title>Neon Logomark Color, Light Background - https://neon.tech</title>
	<defs>
		<linearGradient id="g1" x2="1" gradientUnits="userSpaceOnUse" gradientTransform="matrix(-50.032,-57.652,62.466,-54.21,57.588,57)">
			<stop offset="0" stop-color="#2ef51c" stop-opacity="1"/>
			<stop offset="1" stop-color="#2ef51c" stop-opacity="0"/>
		</linearGradient>
		<linearGradient id="g2" x2="1" gradientUnits="userSpaceOnUse" gradientTransform="matrix(-34.011,-13.404,13.812,-35.046,57.461,56.966)">
			<stop offset="0" stop-color="#000000" stop-opacity=".9"/>
			<stop offset="1" stop-color="#1a1a1a" stop-opacity="0"/>
		</linearGradient>
	</defs>
	<style>
		.s0 { fill: #32c0ed } 
		.s1 { fill: url(#g1) } 
		.s2 { opacity: .3;fill: url(#g2) } 
		.s3 { fill: #63f655 } 
	</style>
	<path fill-rule="evenodd" class="s0" d="m0 9.8c0-5.4 4.4-9.8 9.9-9.8h37.7c5.4 0 9.9 4.4 9.9 9.8v31.8c0 5.6-7.2 8-10.7 3.6l-10.8-13.9v16.9c0 4.8-4 8.8-9 8.8h-17.1c-5.5 0-9.9-4.4-9.9-9.8zm9.9-2c-1.1 0-2 0.9-2 2v37.3c0 1.1 0.9 2 2 2h17.4c0.6 0 0.7-0.5 0.7-1v-22.5c0-5.7 7.2-8.1 10.7-3.7l10.8 13.9v-26c0-1.1 0.1-2-1-2z"/>
	<path fill-rule="evenodd" class="s1" d="m0 9.8c0-5.4 4.4-9.8 9.9-9.8h37.7c5.4 0 9.9 4.4 9.9 9.8v31.8c0 5.6-7.2 8-10.7 3.6l-10.8-13.9v16.9c0 4.8-4 8.8-9 8.8h-17.1c-5.5 0-9.9-4.4-9.9-9.8zm9.9-2c-1.1 0-2 0.9-2 2v37.3c0 1.1 0.9 2 2 2h17.4c0.6 0 0.7-0.5 0.7-1v-22.5c0-5.7 7.2-8.1 10.7-3.7l10.8 13.9v-26c0-1.1 0.1-2-1-2z"/>
	<path fill-rule="evenodd" class="s2" d="m0 9.8c0-5.4 4.4-9.8 9.9-9.8h37.7c5.4 0 9.9 4.4 9.9 9.8v31.8c0 5.6-7.2 8-10.7 3.6l-10.8-13.9v16.9c0 4.8-4 8.8-9 8.8h-17.1c-5.5 0-9.9-4.4-9.9-9.8zm9.9-2c-1.1 0-2 0.9-2 2v37.3c0 1.1 0.9 2 2 2h17.4c0.6 0 0.7-0.5 0.7-1v-22.5c0-5.7 7.2-8.1 10.7-3.7l10.8 13.9v-26c0-1.1 0.1-2-1-2z"/>
	<path class="s3" d="m47.6 0c5.4 0 9.9 4.4 9.9 9.8v31.8c0 5.6-7.2 8-10.7 3.6l-10.8-13.9v16.9c0 4.8-4 8.8-9 8.8 0.6 0 1-0.4 1-1v-30.4c0-5.6 7.2-8 10.7-3.6l10.8 13.9v-33.9c0-1.1-0.9-2-1.9-2z"/>
</svg>