<svg width="44" height="44" viewBox="0 0 45 44" fill="none" xmlns="http://www.w3.org/2000/svg">
<path fill-rule="evenodd" clip-rule="evenodd" d="M0 7.58621C0 3.39646 3.44137 0 7.68651 0H36.8952C41.1404 0 44.5817 3.39646 44.5817 7.58621V32.104C44.5817 36.4386 39.0241 38.3197 36.3287 34.8976L27.902 24.1991V37.1724C27.902 40.9432 24.8048 44 20.9842 44H7.68651C3.44137 44 0 40.6035 0 36.4138V7.58621ZM7.68651 6.06897C6.83748 6.06897 6.14921 6.74826 6.14921 7.58621V36.4138C6.14921 37.2517 6.83748 37.931 7.68651 37.931H21.2148C21.6393 37.931 21.7528 37.5914 21.7528 37.1724V19.7752C21.7528 15.4407 27.3104 13.5594 30.0059 16.9816L38.4325 27.6801V7.58621C38.4325 6.74826 38.5129 6.06897 37.6639 6.06897H7.68651Z" fill="#32C0ED"/>
<path fill-rule="evenodd" clip-rule="evenodd" d="M0 7.58621C0 3.39646 3.44137 0 7.68651 0H36.8952C41.1404 0 44.5817 3.39646 44.5817 7.58621V32.104C44.5817 36.4386 39.0241 38.3197 36.3287 34.8976L27.902 24.1991V37.1724C27.902 40.9432 24.8048 44 20.9842 44H7.68651C3.44137 44 0 40.6035 0 36.4138V7.58621ZM7.68651 6.06897C6.83748 6.06897 6.14921 6.74826 6.14921 7.58621V36.4138C6.14921 37.2517 6.83748 37.931 7.68651 37.931H21.2148C21.6393 37.931 21.7528 37.5914 21.7528 37.1724V19.7752C21.7528 15.4407 27.3104 13.5594 30.0059 16.9816L38.4325 27.6801V7.58621C38.4325 6.74826 38.5129 6.06897 37.6639 6.06897H7.68651Z" fill="url(#paint0_linear_8138_23)"/>
<path fill-rule="evenodd" clip-rule="evenodd" d="M0 7.58621C0 3.39646 3.44137 0 7.68651 0H36.8952C41.1404 0 44.5817 3.39646 44.5817 7.58621V32.104C44.5817 36.4386 39.0241 38.3197 36.3287 34.8976L27.902 24.1991V37.1724C27.902 40.9432 24.8048 44 20.9842 44H7.68651C3.44137 44 0 40.6035 0 36.4138V7.58621ZM7.68651 6.06897C6.83748 6.06897 6.14921 6.74826 6.14921 7.58621V36.4138C6.14921 37.2517 6.83748 37.931 7.68651 37.931H21.2148C21.6393 37.931 21.7528 37.5914 21.7528 37.1724V19.7752C21.7528 15.4407 27.3104 13.5594 30.0059 16.9816L38.4325 27.6801V7.58621C38.4325 6.74826 38.5129 6.06897 37.6639 6.06897H7.68651Z" fill="url(#paint1_linear_8138_23)" fill-opacity="0.35"/>
<path d="M36.8954 0C41.1406 0 44.5819 3.39646 44.5819 7.58621V32.104C44.5819 36.4386 39.0243 38.3197 36.3289 34.8976L27.9022 24.1991V37.1724C27.9022 40.9432 24.805 44 20.9844 44C21.4089 44 21.753 43.6604 21.753 43.2414V19.7752C21.753 15.4407 27.3106 13.5594 30.0061 16.9816L38.4327 27.6801V1.51724C38.4327 0.679292 37.7445 0 36.8954 0Z" fill="#63F655"/>
<defs>
<linearGradient id="paint0_linear_8138_23" x1="44.5818" y1="44" x2="5.96033" y2="-0.503114" gradientUnits="userSpaceOnUse">
<stop stop-color="#2EF51C"/>
<stop offset="1" stop-color="#2EF51C" stop-opacity="0"/>
</linearGradient>
<linearGradient id="paint1_linear_8138_23" x1="44.5817" y1="44" x2="18.194" y2="33.6003" gradientUnits="userSpaceOnUse">
<stop stop-opacity="0.9"/>
<stop offset="1" stop-color="#1A1A1A" stop-opacity="0"/>
</linearGradient>
</defs>
</svg>
