<svg width="400" height="400" viewBox="0 0 400 400" fill="none" xmlns="http://www.w3.org/2000/svg">
<path d="M112.061 143.031V255.102L68.7496 217.526V255.102H1.06104V143L112.061 143.031ZM14.6674 241.496H55.1433V187.669L98.4555 225.988V156.634L14.6674 156.61V241.496Z" fill="#37C38F"/>
<path d="M112.061 143.031V255.102L68.7496 217.526V255.102H1.06104V143L112.061 143.031ZM14.6674 241.496H55.1433V187.669L98.4555 225.988V156.634L14.6674 156.61V241.496Z" fill="black"/>
<path d="M201.453 234.342L158.36 196.203V233.594H144.806V166.478L187.899 204.616V167.226H201.453V234.342ZM216.374 233.594V167.226H256.942V180.593H229.928V193.68H251.334V206.766H229.928V220.227H256.942V233.594H216.374ZM298.903 234.342C280.115 234.342 264.972 219.198 264.972 200.41C264.972 181.621 280.115 166.478 298.903 166.478C317.692 166.478 332.835 181.621 332.835 200.41C332.835 219.198 317.692 234.342 298.903 234.342ZM298.903 221.255C310.494 221.255 319.188 211.907 319.188 200.41C319.188 188.912 310.494 179.565 298.903 179.565C287.312 179.565 278.619 188.912 278.619 200.41C278.619 211.907 287.312 221.255 298.903 221.255ZM398.708 234.342L355.616 196.203V233.594H342.062V166.478L385.154 204.616V167.226H398.708V234.342Z" fill="black"/>
</svg>
