<svg width="56" height="56" viewBox="0 0 56 56" fill="none" xmlns="http://www.w3.org/2000/svg">
<rect x="54.6875" y="8.19531" width="6.02621" height="6.02621" rx="3.0131" transform="rotate(180 54.6875 8.19531)" fill="black"/>
<rect x="16.8105" y="17.6641" width="6.02621" height="6.02621" rx="3.0131" transform="rotate(180 16.8105 17.6641)" fill="black"/>
<rect x="45.2188" y="17.6641" width="6.02621" height="6.02621" rx="3.0131" transform="rotate(180 45.2188 17.6641)" fill="black"/>
<rect x="54.6875" y="17.6641" width="6.02621" height="6.02621" rx="3.0131" transform="rotate(180 54.6875 17.6641)" fill="black"/>
<rect x="7.33984" y="27.1328" width="6.02621" height="6.02621" rx="3.0131" transform="rotate(180 7.33984 27.1328)" fill="black"/>
<rect x="15.9492" y="26.2734" width="4.30443" height="4.30444" rx="2.15222" transform="rotate(180 15.9492 26.2734)" fill="black"/>
<rect x="26.2793" y="27.1328" width="6.02621" height="6.02621" rx="3.0131" transform="rotate(180 26.2793 27.1328)" fill="black"/>
<rect x="35.75" y="27.1328" width="6.02621" height="6.02621" rx="3.0131" transform="rotate(180 35.75 27.1328)" fill="black"/>
<rect x="44.3574" y="26.2734" width="4.30443" height="4.30444" rx="2.15222" transform="rotate(180 44.3574 26.2734)" fill="black"/>
<rect x="53.8281" y="26.2734" width="4.30443" height="4.30444" rx="2.15222" transform="rotate(180 53.8281 26.2734)" fill="black"/>
<rect x="6.47852" y="35.7422" width="4.30443" height="4.30444" rx="2.15222" transform="rotate(180 6.47852 35.7422)" fill="black"/>
<rect x="15.9492" y="35.7422" width="4.30443" height="4.30444" rx="2.15222" transform="rotate(180 15.9492 35.7422)" fill="black"/>
<rect x="25.418" y="35.7422" width="4.30443" height="4.30444" rx="2.15222" transform="rotate(180 25.418 35.7422)" fill="black"/>
<rect x="34.8887" y="35.7422" width="4.30443" height="4.30444" rx="2.15222" transform="rotate(180 34.8887 35.7422)" fill="black"/>
<rect x="44.3574" y="35.7422" width="4.30443" height="4.30444" rx="2.15222" transform="rotate(180 44.3574 35.7422)" fill="black"/>
<rect x="53.3984" y="35.3125" width="3.44355" height="3.44355" rx="1.72177" transform="rotate(180 53.3984 35.3125)" fill="black"/>
<rect x="5.61719" y="44.3516" width="2.58266" height="2.58266" rx="1.29133" transform="rotate(180 5.61719 44.3516)" fill="black"/>
<rect x="15.0879" y="44.3516" width="2.58266" height="2.58266" rx="1.29133" transform="rotate(180 15.0879 44.3516)" fill="black"/>
<rect x="24.5566" y="44.3516" width="2.58266" height="2.58266" rx="1.29133" transform="rotate(180 24.5566 44.3516)" fill="black"/>
<rect x="34.0273" y="44.3516" width="2.58266" height="2.58266" rx="1.29133" transform="rotate(180 34.0273 44.3516)" fill="black"/>
<rect x="43.498" y="44.3516" width="2.58266" height="2.58266" rx="1.29133" transform="rotate(180 43.498 44.3516)" fill="black"/>
<rect x="52.9668" y="44.3516" width="2.58266" height="2.58266" rx="1.29133" transform="rotate(180 52.9668 44.3516)" fill="black"/>
<rect x="5.1875" y="53.3906" width="1.72177" height="1.72177" rx="0.860887" transform="rotate(180 5.1875 53.3906)" fill="black"/>
<rect x="14.6562" y="53.3906" width="1.72177" height="1.72177" rx="0.860887" transform="rotate(180 14.6562 53.3906)" fill="black"/>
<rect x="24.1289" y="53.3906" width="1.72177" height="1.72177" rx="0.860887" transform="rotate(180 24.1289 53.3906)" fill="black"/>
<rect x="33.5977" y="53.3906" width="1.72177" height="1.72177" rx="0.860887" transform="rotate(180 33.5977 53.3906)" fill="black"/>
<rect x="43.0664" y="53.3906" width="1.72177" height="1.72177" rx="0.860887" transform="rotate(180 43.0664 53.3906)" fill="black"/>
<rect x="52.5371" y="53.3906" width="1.72177" height="1.72177" rx="0.860887" transform="rotate(180 52.5371 53.3906)" fill="black"/>
</svg>
