<svg width="16" height="16" viewBox="0 0 16 16" fill="none" xmlns="http://www.w3.org/2000/svg">
<g clip-path="url(#clip0_9617_29379)">
<path d="M13.6726 2.3435C10.548 -0.781167 5.48263 -0.781167 2.35862 2.3435C-0.765375 5.4675 -0.765375 10.5328 2.35862 13.6568C5.48263 16.7808 10.548 16.7808 13.6726 13.6568C16.784 10.5275 16.784 5.4735 13.6726 2.3435ZM11.144 10.1955C11.4046 10.4562 11.4046 10.8775 11.144 11.1382C11.014 11.2682 10.8433 11.3335 10.6726 11.3335C10.502 11.3335 10.3313 11.2682 10.2013 11.1382L8.00596 8.94283L5.81062 11.1382C5.68062 11.2682 5.50996 11.3335 5.33929 11.3335C5.16862 11.3335 4.99796 11.2682 4.86796 11.1382C4.60729 10.8775 4.60729 10.4562 4.86796 10.1955L7.06329 8.00017L4.86796 5.80483C4.60729 5.54417 4.60729 5.12283 4.86796 4.86217C5.12863 4.6015 5.54996 4.6015 5.81062 4.86217L8.00596 7.0575L10.2013 4.86217C10.462 4.6015 10.8833 4.6015 11.144 4.86217C11.4046 5.12283 11.4046 5.54417 11.144 5.80483L8.94863 8.00017L11.144 10.1955Z" fill="#F67878"/>
</g>
<defs>
<clipPath id="clip0_9617_29379">
<rect width="16" height="16" fill="white"/>
</clipPath>
</defs>
</svg>
