<svg width="16" height="16" viewBox="0 0 16 16" fill="none" xmlns="http://www.w3.org/2000/svg">
<g clip-path="url(#clip0_9617_29367)">
<path d="M7.98438 0C3.56638 0 -0.015625 3.582 -0.015625 8C-0.015625 12.418 3.56638 16 7.98438 16C12.4024 16 15.9844 12.418 15.9844 8C15.9717 3.58733 12.397 0.0126667 7.98438 0ZM12.789 5.138L6.78904 11.138C6.65904 11.268 6.48838 11.3333 6.31771 11.3333C6.14704 11.3333 5.97638 11.268 5.84638 11.138L3.17971 8.47133C2.91904 8.21067 2.91904 7.78933 3.17971 7.52867C3.44038 7.268 3.86171 7.268 4.12238 7.52867L6.31771 9.724L11.8464 4.19533C12.107 3.93467 12.5284 3.93467 12.789 4.19533C13.0497 4.456 13.0497 4.87733 12.789 5.138Z" fill="#00E599"/>
</g>
<defs>
<clipPath id="clip0_9617_29367">
<rect width="16" height="16" fill="white"/>
</clipPath>
</defs>
</svg>
