<svg width="12" height="12" viewBox="0 0 12 12" fill="none" xmlns="http://www.w3.org/2000/svg">
<g clip-path="url(#clip0_9628_23505)">
<path d="M3.5 1H2C1.73478 1 1.48043 1.10536 1.29289 1.29289C1.10536 1.48043 1 1.73478 1 2V5.5C1 5.76522 1.10536 6.01957 1.29289 6.20711C1.48043 6.39464 1.73478 6.5 2 6.5H3.5M7 7.5V9.5C7 9.89782 6.84196 10.2794 6.56066 10.5607C6.27936 10.842 5.89782 11 5.5 11L3.5 6.5V1H9.14C9.38116 0.997274 9.61519 1.0818 9.79895 1.238C9.98272 1.3942 10.1038 1.61155 10.14 1.85L10.83 6.35C10.8518 6.49332 10.8421 6.63966 10.8017 6.77887C10.7613 6.91809 10.6911 7.04685 10.5959 7.15624C10.5008 7.26563 10.383 7.35303 10.2508 7.41239C10.1185 7.47175 9.97495 7.50164 9.83 7.5H7Z" stroke="currentColor" stroke-linecap="round" stroke-linejoin="round"/>
</g>
<defs>
<clipPath id="clip0_9628_23505">
<rect width="12" height="12" fill="white" transform="matrix(1 0 0 -1 0 12)"/>
</clipPath>
</defs>
</svg>
