<svg width="138" height="40" viewBox="0 0 138 40" fill="none" xmlns="http://www.w3.org/2000/svg">
<g clip-path="url(#clip0_4971_16172)">
<path d="M56.4404 21.1225L63.4252 12.0523H59.1375L52.666 20.296V12.0515H48.9442V30.7254H52.666V21.977L59.4077 30.7271H63.6954L56.4413 21.1234L56.4404 21.1225ZM78.3464 29.0723C79.7212 27.7122 80.4231 26.032 80.4231 24.057C80.4231 22.0837 79.7212 20.4289 78.3464 19.0688C76.9707 17.7079 75.2721 17.0142 73.2769 17.0142C71.2809 17.0142 69.5823 17.7087 68.2066 19.0688C66.8317 20.4289 66.1571 22.0837 66.1571 24.057C66.1571 26.0311 66.8317 27.7122 68.2066 29.0723C69.5823 30.4333 71.2809 31.0998 73.2769 31.0998C75.2721 31.0998 76.9707 30.4333 78.3464 29.0723ZM70.6606 26.6985C69.9868 26.004 69.6358 25.1241 69.6358 24.057C69.6358 22.9899 69.9868 22.1092 70.6606 21.4164C71.3616 20.7219 72.2241 20.3756 73.2769 20.3756C74.328 20.3756 75.1913 20.7228 75.8924 21.4164C76.5934 22.11 76.9443 22.9899 76.9443 24.057C76.9443 25.1241 76.5934 26.0049 75.8924 26.6985C75.1913 27.3921 74.3289 27.7384 73.2769 27.7384C72.2249 27.7384 71.3616 27.3912 70.6606 26.6985ZM90.8373 26.3512L87.3322 17.3877H83.5297L89.058 30.2995C88.4105 32.1135 87.3857 32.8876 85.5248 32.8605V36.0617C88.9773 36.248 91.2418 34.5678 92.6447 30.7263L97.5518 17.3877H93.8309L90.8373 26.3512ZM114.483 25.4705C114.564 24.964 114.618 24.5109 114.618 24.057C114.618 22.0566 113.971 20.4027 112.676 19.0417C111.409 17.6816 109.764 17.0142 107.796 17.0142C105.719 17.0142 103.994 17.6816 102.672 19.0417C101.351 20.3756 100.676 22.0566 100.676 24.057C100.676 26.0845 101.351 27.7656 102.699 29.0994C104.047 30.4333 105.827 31.0998 108.065 31.0998C110.655 31.0998 112.623 30.1394 113.944 28.2457L111.14 26.6451C110.465 27.5259 109.44 27.979 108.119 27.979C106.043 27.979 104.775 27.1516 104.317 25.4713L114.483 25.4705ZM104.263 22.8028C104.667 21.0963 105.935 20.1096 107.796 20.1096C109.387 20.1096 110.735 20.9896 111.14 22.8028H104.263ZM127.591 17.0142C125.703 17.0142 124.247 17.6545 123.222 18.9621V12.0515H119.744V30.7254H123.222V29.1519C124.247 30.4587 125.703 31.0998 127.591 31.0998C129.398 31.0998 130.962 30.4324 132.229 29.0715C133.523 27.7113 134.171 26.0311 134.171 24.0562C134.171 22.0829 133.523 20.4281 132.229 19.068C130.962 17.707 129.398 17.0142 127.591 17.0142ZM124.274 26.7789C123.573 26.0582 123.222 25.1512 123.222 24.057C123.222 22.9637 123.573 22.0566 124.274 21.363C124.975 20.6432 125.866 20.296 126.944 20.296C128.022 20.296 128.913 20.6432 129.614 21.363C130.342 22.0566 130.692 22.9637 130.692 24.057C130.692 25.1512 130.342 26.0582 129.614 26.7781C128.913 27.4725 128.022 27.8189 126.944 27.8189C125.866 27.8189 124.975 27.4717 124.274 26.7781V26.7789ZM18.1408 9.91474L36.3037 20.2612V11.628L18.1289 1.27051L0 11.6399V20.2849L18.1408 9.91559V9.91474Z" fill="url(#paint0_linear_4971_16172)"/>
<path d="M33.3984 30.6677L36.3045 28.9782V23.6775L18.1289 13.309L0 23.6775V29.001L2.90606 30.6677L18.1289 21.9532L33.3984 30.6677Z" fill="url(#paint1_linear_4971_16172)"/>
<path d="M18.1418 34.2075L22.755 36.8405L30.332 32.529L18.13 25.5624L5.97463 32.5298L13.5516 36.8405L18.1418 34.2075Z" fill="url(#paint2_linear_4971_16172)"/>
</g>
<defs>
<linearGradient id="paint0_linear_4971_16172" x1="67.0854" y1="1.27051" x2="67.0854" y2="36.8405" gradientUnits="userSpaceOnUse">
<stop stop-color="#C9CBCF"/>
<stop offset="1" stop-color="#94979E"/>
</linearGradient>
<linearGradient id="paint1_linear_4971_16172" x1="67.0854" y1="1.27051" x2="67.0854" y2="36.8405" gradientUnits="userSpaceOnUse">
<stop stop-color="#C9CBCF"/>
<stop offset="1" stop-color="#94979E"/>
</linearGradient>
<linearGradient id="paint2_linear_4971_16172" x1="67.0854" y1="1.27051" x2="67.0854" y2="36.8405" gradientUnits="userSpaceOnUse">
<stop stop-color="#C9CBCF"/>
<stop offset="1" stop-color="#94979E"/>
</linearGradient>
<clipPath id="clip0_4971_16172">
<rect width="138" height="40" fill="white"/>
</clipPath>
</defs>
</svg>
