<svg width="123" height="32" viewBox="0 0 123 32" fill="none" xmlns="http://www.w3.org/2000/svg">
<path d="M48.3822 17.0163L54.3692 9.24169H50.694L45.1469 16.3078V9.24096H41.9567V25.2475H45.1469V17.7487L50.9256 25.2489H54.6008L48.3829 17.017L48.3822 17.0163ZM67.159 23.8305C68.3375 22.6647 68.9391 21.2244 68.9391 19.5316C68.9391 17.8402 68.3375 16.4218 67.159 15.2559C65.9798 14.0894 64.5239 13.4949 62.8137 13.4949C61.1028 13.4949 59.6468 14.0901 58.4676 15.2559C57.2892 16.4218 56.7109 17.8402 56.7109 19.5316C56.7109 21.2237 57.2892 22.6647 58.4676 23.8305C59.6468 24.997 61.1028 25.5683 62.8137 25.5683C64.5239 25.5683 65.9798 24.997 67.159 23.8305ZM60.5711 21.7957C59.9935 21.2005 59.6927 20.4463 59.6927 19.5316C59.6927 18.6169 59.9935 17.862 60.5711 17.2682C61.172 16.6729 61.9113 16.376 62.8137 16.376C63.7147 16.376 64.4547 16.6737 65.0556 17.2682C65.6564 17.8627 65.9572 18.6169 65.9572 19.5316C65.9572 20.4463 65.6564 21.2012 65.0556 21.7957C64.4547 22.3903 63.7154 22.6872 62.8137 22.6872C61.912 22.6872 61.172 22.3895 60.5711 21.7957ZM77.8657 21.4981L74.8613 13.815H71.6019L76.3406 24.8824C75.7856 26.4373 74.9072 27.1008 73.3121 27.0775V29.8215C76.2714 29.9812 78.2124 28.541 79.4149 25.2482L83.6211 13.815H80.4317L77.8657 21.4981ZM98.1335 20.7432C98.2034 20.3091 98.2493 19.9207 98.2493 19.5316C98.2493 17.817 97.695 16.3993 96.585 15.2327C95.499 14.0669 94.0889 13.4949 92.4021 13.4949C90.622 13.4949 89.1427 14.0669 88.0102 15.2327C86.8776 16.376 86.2993 17.817 86.2993 19.5316C86.2993 21.2695 86.8776 22.7104 88.0335 23.8537C89.1886 24.9971 90.7145 25.5683 92.633 25.5683C94.8522 25.5683 96.5391 24.7452 97.6717 23.122L95.2682 21.75C94.6898 22.505 93.8114 22.8933 92.6789 22.8933C90.8995 22.8933 89.8128 22.1841 89.4202 20.7439L98.1335 20.7432ZM89.3736 18.4565C89.7203 16.9938 90.807 16.1481 92.4021 16.1481C93.7656 16.1481 94.9215 16.9023 95.2682 18.4565H89.3736ZM109.37 13.4949C107.751 13.4949 106.503 14.0436 105.625 15.1645V9.24096H102.643V25.2475H105.625V23.8987C106.503 25.0188 107.751 25.5683 109.37 25.5683C110.918 25.5683 112.259 24.9963 113.345 23.8298C114.454 22.6639 115.009 21.2237 115.009 19.5309C115.009 17.8395 114.454 16.421 113.345 15.2552C112.259 14.0887 110.918 13.4949 109.37 13.4949ZM106.526 21.8647C105.925 21.2469 105.625 20.4695 105.625 19.5316C105.625 18.5944 105.925 17.817 106.526 17.2224C107.127 16.6054 107.89 16.3078 108.815 16.3078C109.739 16.3078 110.502 16.6054 111.103 17.2224C111.727 17.817 112.027 18.5944 112.027 19.5316C112.027 20.4695 111.727 21.2469 111.103 21.864C110.502 22.4592 109.739 22.7561 108.815 22.7561C107.89 22.7561 107.127 22.4585 106.526 21.864V21.8647ZM15.5534 7.40946L31.1218 16.278V8.878L15.5432 0L0.00390625 8.88816V16.2984L15.5534 7.41019V7.40946Z" fill="url(#paint0_linear_26399_13200)"/>
<path d="M28.6316 25.198L31.1226 23.7498V19.2063L15.5432 10.3188L0.00390625 19.2063V23.7694L2.49486 25.198L15.5432 17.7283L28.6316 25.198Z" fill="url(#paint1_linear_26399_13200)"/>
<path d="M15.5543 28.2322L19.5085 30.4891L26.0032 26.7934L15.5441 20.822L5.1251 26.7941L11.6198 30.4891L15.5543 28.2322Z" fill="url(#paint2_linear_26399_13200)"/>
<defs>
<linearGradient id="paint0_linear_26399_13200" x1="57.5066" y1="0" x2="57.5066" y2="30.4891" gradientUnits="userSpaceOnUse">
<stop stop-color="#C9CBCF"/>
<stop offset="1" stop-color="#94979E"/>
</linearGradient>
<linearGradient id="paint1_linear_26399_13200" x1="57.5066" y1="0" x2="57.5066" y2="30.4891" gradientUnits="userSpaceOnUse">
<stop stop-color="#C9CBCF"/>
<stop offset="1" stop-color="#94979E"/>
</linearGradient>
<linearGradient id="paint2_linear_26399_13200" x1="57.5066" y1="0" x2="57.5066" y2="30.4891" gradientUnits="userSpaceOnUse">
<stop stop-color="#C9CBCF"/>
<stop offset="1" stop-color="#94979E"/>
</linearGradient>
</defs>
</svg>
