<svg width="141" height="32" viewBox="0 0 141 32" fill="none" xmlns="http://www.w3.org/2000/svg">
<path d="M2.11865 1C1.0329 1 0.152344 1.86823 0.152344 2.93878V9.39541C0.152344 10.466 1.0329 11.3342 2.11865 11.3342H13.2541V21.6658H2.11865C1.0329 21.6658 0.152344 22.534 0.152344 23.6046V30.0612C0.152344 31.1318 1.0329 32 2.11865 32H11.2878C12.3736 32 13.2541 31.1318 13.2541 30.0612V21.6709H24.3896C25.4753 21.6709 26.3559 20.8027 26.3559 19.7322V13.273C26.3559 12.2024 25.4753 11.3342 24.3896 11.3342H13.2567V2.93878C13.2567 1.86823 12.3762 1 11.2904 1H2.11865Z" fill="url(#paint0_linear_26523_2591)"/>
<path d="M125.988 5.6328C125.988 5.31778 125.723 5.07447 125.383 5.07447H122.89C122.549 5.07447 122.284 5.3357 122.284 5.6328V9.21071H118.409C118.069 9.21071 117.804 9.47194 117.804 9.76904V11.6131C117.804 11.9281 118.069 12.1714 118.409 12.1714H122.284V17.6522C122.284 21.8448 124.287 23.7836 128.599 23.7836H132.113C132.454 23.7836 132.719 23.5223 132.719 23.2253V21.3812C132.719 21.0662 132.454 20.8229 132.113 20.8229H129.165C126.82 20.8229 125.988 19.9086 125.988 17.6343V12.1919H132.547C132.887 12.1714 133.152 11.9101 133.152 11.6131V9.76904C133.152 9.45402 132.887 9.21071 132.547 9.21071H125.988V5.6328Z" fill="url(#paint1_linear_26523_2591)"/>
<path d="M113.889 9.7716C113.889 9.45658 113.624 9.21327 113.284 9.21327V9.21583H105.666C105.325 9.21583 105.06 9.47706 105.06 9.77415V11.6182C105.06 11.9332 105.325 12.1765 105.666 12.1765H110.183V20.8255H105.666C105.325 20.8255 105.06 21.0867 105.06 21.3838V23.2278C105.06 23.5428 105.325 23.7861 105.666 23.7861H118.521C118.861 23.7861 119.126 23.5249 119.126 23.2278V21.3838C119.126 21.0688 118.861 20.8255 118.521 20.8255H113.889V9.7716Z" fill="url(#paint2_linear_26523_2591)"/>
<path d="M114.04 4.14222C114.022 3.8272 113.757 3.58389 113.435 3.58389H110.032C109.692 3.58389 109.427 3.84512 109.427 4.14222V6.50871C109.427 6.82372 109.692 7.06704 110.032 7.06704H113.435C113.775 7.06704 114.04 6.8058 114.04 6.50871V4.14222Z" fill="url(#paint3_linear_26523_2591)"/>
<path d="M98.3485 20.8255H102.206C102.546 20.8255 102.811 21.0662 102.811 21.3838V23.2278C102.811 23.5249 102.546 23.7861 102.206 23.7861H89.6339C89.2936 23.7861 89.0287 23.5454 89.0287 23.2278V21.3838C89.0287 21.0867 89.2936 20.8255 89.6339 20.8255H94.6444V6.54712H90.182C89.8417 6.54712 89.5767 6.30638 89.5767 5.98879V4.14222C89.5767 3.84512 89.8417 3.58389 90.182 3.58389H97.7433C98.0835 3.58389 98.3485 3.82464 98.3485 4.14222V20.8255Z" fill="url(#paint4_linear_26523_2591)"/>
<path fill-rule="evenodd" clip-rule="evenodd" d="M78.7452 9.88172C79.4621 9.2107 80.3894 8.93154 81.6752 8.93154C85.4389 8.93154 87.6312 11.4312 87.6468 16.5176C87.6468 21.6066 85.4363 24.1037 81.7687 24.1037C80.5037 24.1037 79.6517 23.7861 78.953 23.1535L78.0646 22.316L77.2334 22.503L77.5555 24.721V28.8598C77.5555 29.1568 77.2906 29.4181 76.9503 29.4181H74.4541C74.1138 29.4181 73.8489 29.1773 73.8489 28.8598V9.7716C73.8489 9.4745 74.1138 9.21327 74.4541 9.21327H76.1555C76.4412 9.21327 76.6672 9.39767 76.7425 9.64098L77.0438 10.7218H77.8568L78.7452 9.88172ZM77.5348 18.2899C77.5348 20.0981 78.5737 21.0483 80.4465 21.0483C82.7349 21.0483 83.7557 19.632 83.7739 16.4843C83.7739 13.37 82.7349 11.9537 80.4465 11.9537C78.5555 11.9537 77.5348 12.9039 77.5348 14.712V18.2899Z" fill="url(#paint5_linear_26523_2591)"/>
<path fill-rule="evenodd" clip-rule="evenodd" d="M55.9651 16.4997C55.9651 11.4287 58.5185 8.93154 63.2823 8.93154C68.1786 8.93154 70.5423 11.4491 69.9734 17.0606H59.6328C59.7834 20.0622 60.9186 21.3479 63.3005 21.3479C64.833 21.3479 65.9655 20.8255 66.3629 19.7267C66.4564 19.5014 66.6824 19.3528 66.9292 19.3528H69.1968C69.576 19.3528 69.8773 19.6883 69.7838 20.0418C69.1604 22.5952 66.8149 24.0858 63.1862 24.0858C58.4977 24.0858 55.9651 21.5887 55.9651 16.4997ZM63.2641 11.5618C61.2225 11.5618 60.1055 12.5863 59.7471 14.7863H66.5162C66.459 12.699 65.4382 11.5618 63.2641 11.5618Z" fill="url(#paint6_linear_26523_2591)"/>
<path d="M47.7415 10.7038L48.5934 9.8638C49.3311 9.19278 50.4455 8.93154 51.8611 8.95203H53.7884C54.1287 8.95203 54.3937 9.19278 54.3937 9.51036V11.5413C54.3937 11.8384 54.1287 12.0997 53.7884 12.0997H50.5364C48.5337 12.0997 47.5129 12.9935 47.5129 14.7095V20.8229H51.8429C52.1832 20.8229 52.4481 21.0637 52.4481 21.3812V23.2253C52.4481 23.5223 52.1832 23.7836 51.8429 23.7836H40.0659C39.7256 23.7836 39.4606 23.5428 39.4606 23.2253V21.3812C39.4606 21.0841 39.7256 20.8229 40.0659 20.8229H43.8088V12.1739H40.5957C40.2555 12.1739 39.9905 11.9332 39.9905 11.6156V9.7716C39.9905 9.4745 40.2555 9.21327 40.5957 9.21327H46.0401C46.3258 9.21327 46.57 9.37974 46.6271 9.64098L46.8921 10.7038H47.7415Z" fill="url(#paint7_linear_26523_2591)"/>
<defs>
<linearGradient id="paint0_linear_26523_2591" x1="66.6523" y1="1" x2="66.6523" y2="32" gradientUnits="userSpaceOnUse">
<stop stop-color="#C9CBCF"/>
<stop offset="1" stop-color="#94979E"/>
</linearGradient>
<linearGradient id="paint1_linear_26523_2591" x1="66.6523" y1="1" x2="66.6523" y2="32" gradientUnits="userSpaceOnUse">
<stop stop-color="#C9CBCF"/>
<stop offset="1" stop-color="#94979E"/>
</linearGradient>
<linearGradient id="paint2_linear_26523_2591" x1="66.6523" y1="1" x2="66.6523" y2="32" gradientUnits="userSpaceOnUse">
<stop stop-color="#C9CBCF"/>
<stop offset="1" stop-color="#94979E"/>
</linearGradient>
<linearGradient id="paint3_linear_26523_2591" x1="66.6523" y1="1" x2="66.6523" y2="32" gradientUnits="userSpaceOnUse">
<stop stop-color="#C9CBCF"/>
<stop offset="1" stop-color="#94979E"/>
</linearGradient>
<linearGradient id="paint4_linear_26523_2591" x1="66.6523" y1="1" x2="66.6523" y2="32" gradientUnits="userSpaceOnUse">
<stop stop-color="#C9CBCF"/>
<stop offset="1" stop-color="#94979E"/>
</linearGradient>
<linearGradient id="paint5_linear_26523_2591" x1="66.6523" y1="1" x2="66.6523" y2="32" gradientUnits="userSpaceOnUse">
<stop stop-color="#C9CBCF"/>
<stop offset="1" stop-color="#94979E"/>
</linearGradient>
<linearGradient id="paint6_linear_26523_2591" x1="66.6523" y1="1" x2="66.6523" y2="32" gradientUnits="userSpaceOnUse">
<stop stop-color="#C9CBCF"/>
<stop offset="1" stop-color="#94979E"/>
</linearGradient>
<linearGradient id="paint7_linear_26523_2591" x1="66.6523" y1="1" x2="66.6523" y2="32" gradientUnits="userSpaceOnUse">
<stop stop-color="#C9CBCF"/>
<stop offset="1" stop-color="#94979E"/>
</linearGradient>
</defs>
</svg>
