<svg width="153" height="40" viewBox="0 0 153 40" fill="none" xmlns="http://www.w3.org/2000/svg">
<path d="M2.19489 3C0.982917 3 0 3.94794 0 5.11678V12.1662C0 13.335 0.982917 14.283 2.19489 14.283H14.6249V25.5632H2.19489C0.982917 25.5632 0 26.5111 0 27.68V34.7294C0 35.8982 0.982917 36.8462 2.19489 36.8462H12.43C13.642 36.8462 14.6249 35.8982 14.6249 34.7294V25.5688H27.0549C28.2668 25.5688 29.2498 24.6208 29.2498 23.452V16.3998C29.2498 15.2309 28.2668 14.283 27.0549 14.283H14.6278V5.11678C14.6278 3.94794 13.6449 3 12.4329 3H2.19489Z" fill="url(#paint0_linear_4971_16130)"/>
<path d="M140.465 8.05814C140.465 7.7142 140.169 7.44855 139.789 7.44855H137.006C136.626 7.44855 136.33 7.73377 136.33 8.05814V11.9645H132.004C131.624 11.9645 131.329 12.2498 131.329 12.5741V14.5875C131.329 14.9314 131.624 15.197 132.004 15.197H136.33V21.1811C136.33 25.7586 138.566 27.8754 143.379 27.8754H147.302C147.682 27.8754 147.977 27.5902 147.977 27.2658V25.2525C147.977 24.9085 147.682 24.6429 147.302 24.6429H144.011C141.393 24.6429 140.465 23.6446 140.465 21.1615V15.2194H147.786C148.166 15.197 148.462 14.9118 148.462 14.5875V12.5741C148.462 12.2302 148.166 11.9645 147.786 11.9645H140.465V8.05814Z" fill="url(#paint1_linear_4971_16130)"/>
<path d="M126.959 12.5769C126.959 12.233 126.663 11.9673 126.284 11.9673V11.9701H117.779C117.4 11.9701 117.104 12.2554 117.104 12.5797V14.593C117.104 14.937 117.4 15.2026 117.779 15.2026H122.822V24.6457H117.779C117.4 24.6457 117.104 24.9309 117.104 25.2553V27.2686C117.104 27.6125 117.4 27.8782 117.779 27.8782H132.129C132.509 27.8782 132.804 27.5929 132.804 27.2686V25.2553C132.804 24.9113 132.509 24.6457 132.129 24.6457H126.959V12.5769Z" fill="url(#paint2_linear_4971_16130)"/>
<path d="M127.127 6.43071C127.107 6.08677 126.811 5.82112 126.452 5.82112H122.653C122.274 5.82112 121.978 6.10634 121.978 6.43071V9.01447C121.978 9.35841 122.274 9.62406 122.653 9.62406H126.452C126.832 9.62406 127.127 9.33884 127.127 9.01447V6.43071Z" fill="url(#paint3_linear_4971_16130)"/>
<path d="M109.612 24.6457H113.917C114.297 24.6457 114.593 24.9085 114.593 25.2553V27.2686C114.593 27.5929 114.297 27.8782 113.917 27.8782H99.884C99.5041 27.8782 99.2084 27.6153 99.2084 27.2686V25.2553C99.2084 24.9309 99.5041 24.6457 99.884 24.6457H105.477V9.05641H100.496C100.116 9.05641 99.8202 8.79356 99.8202 8.44682V6.43071C99.8202 6.10634 100.116 5.82112 100.496 5.82112H108.936C109.316 5.82112 109.612 6.08397 109.612 6.43071V24.6457Z" fill="url(#paint4_linear_4971_16130)"/>
<path fill-rule="evenodd" clip-rule="evenodd" d="M87.7294 12.6972C88.5297 11.9645 89.5648 11.6597 91 11.6597C95.2013 11.6597 97.6485 14.3889 97.6659 19.9423C97.6659 25.4985 95.1984 28.2249 91.1044 28.2249C89.6923 28.2249 88.7413 27.8782 87.9614 27.1875L86.9698 26.2731L86.0419 26.4772L86.4015 28.8988V33.4176C86.4015 33.742 86.1057 34.0272 85.7259 34.0272H82.9395C82.5597 34.0272 82.2639 33.7643 82.2639 33.4176V12.5769C82.2639 12.2526 82.5597 11.9673 82.9395 11.9673H84.8387C85.1576 11.9673 85.4099 12.1687 85.4939 12.4343L85.8303 13.6144H86.7378L87.7294 12.6972ZM86.3783 21.8774C86.3783 23.8515 87.5381 24.8889 89.6286 24.8889C92.183 24.8889 93.3225 23.3426 93.3428 19.906C93.3428 16.5057 92.183 14.9594 89.6286 14.9594C87.5177 14.9594 86.3783 15.9968 86.3783 17.971V21.8774Z" fill="url(#paint5_linear_4971_16130)"/>
<path fill-rule="evenodd" clip-rule="evenodd" d="M62.3011 19.9228C62.3011 14.3861 65.1513 11.6597 70.4689 11.6597C75.9344 11.6597 78.5729 14.4085 77.9379 20.5351H66.3952C66.5633 23.8124 67.8304 25.2161 70.4892 25.2161C72.1999 25.2161 73.4641 24.6457 73.9077 23.4461C74.0121 23.2 74.2643 23.0378 74.5398 23.0378H77.071C77.4943 23.0378 77.8307 23.4041 77.7263 23.79C77.0304 26.5779 74.4122 28.2053 70.3616 28.2053C65.1281 28.2053 62.3011 25.479 62.3011 19.9228ZM70.4486 14.5315C68.1697 14.5315 66.9229 15.65 66.5228 18.052H74.0788C74.015 15.7731 72.8755 14.5315 70.4486 14.5315Z" fill="url(#paint6_linear_4971_16130)"/>
<path d="M53.1215 13.5948L54.0725 12.6776C54.8959 11.945 56.1398 11.6597 57.72 11.6821H59.8714C60.2512 11.6821 60.547 11.945 60.547 12.2917V14.5092C60.547 14.8335 60.2512 15.1187 59.8714 15.1187H56.2413C54.0058 15.1187 52.8663 16.0946 52.8663 17.9682V24.6429H57.6997C58.0795 24.6429 58.3753 24.9057 58.3753 25.2525V27.2658C58.3753 27.5902 58.0795 27.8754 57.6997 27.8754H44.5536C44.1737 27.8754 43.878 27.6125 43.878 27.2658V25.2525C43.878 24.9281 44.1737 24.6429 44.5536 24.6429H48.7317V15.1998H45.145C44.7652 15.1998 44.4695 14.937 44.4695 14.5902V12.5769C44.4695 12.2526 44.7652 11.9673 45.145 11.9673H51.2223C51.5413 11.9673 51.8138 12.1491 51.8776 12.4343L52.1733 13.5948H53.1215Z" fill="url(#paint7_linear_4971_16130)"/>
<defs>
<linearGradient id="paint0_linear_4971_16130" x1="74.2308" y1="3" x2="74.2308" y2="36.8462" gradientUnits="userSpaceOnUse">
<stop stop-color="#C9CBCF"/>
<stop offset="1" stop-color="#94979E"/>
</linearGradient>
<linearGradient id="paint1_linear_4971_16130" x1="74.2308" y1="3" x2="74.2308" y2="36.8462" gradientUnits="userSpaceOnUse">
<stop stop-color="#C9CBCF"/>
<stop offset="1" stop-color="#94979E"/>
</linearGradient>
<linearGradient id="paint2_linear_4971_16130" x1="74.2308" y1="3" x2="74.2308" y2="36.8462" gradientUnits="userSpaceOnUse">
<stop stop-color="#C9CBCF"/>
<stop offset="1" stop-color="#94979E"/>
</linearGradient>
<linearGradient id="paint3_linear_4971_16130" x1="74.2308" y1="3" x2="74.2308" y2="36.8462" gradientUnits="userSpaceOnUse">
<stop stop-color="#C9CBCF"/>
<stop offset="1" stop-color="#94979E"/>
</linearGradient>
<linearGradient id="paint4_linear_4971_16130" x1="74.2308" y1="3" x2="74.2308" y2="36.8462" gradientUnits="userSpaceOnUse">
<stop stop-color="#C9CBCF"/>
<stop offset="1" stop-color="#94979E"/>
</linearGradient>
<linearGradient id="paint5_linear_4971_16130" x1="74.2308" y1="3" x2="74.2308" y2="36.8462" gradientUnits="userSpaceOnUse">
<stop stop-color="#C9CBCF"/>
<stop offset="1" stop-color="#94979E"/>
</linearGradient>
<linearGradient id="paint6_linear_4971_16130" x1="74.2308" y1="3" x2="74.2308" y2="36.8462" gradientUnits="userSpaceOnUse">
<stop stop-color="#C9CBCF"/>
<stop offset="1" stop-color="#94979E"/>
</linearGradient>
<linearGradient id="paint7_linear_4971_16130" x1="74.2308" y1="3" x2="74.2308" y2="36.8462" gradientUnits="userSpaceOnUse">
<stop stop-color="#C9CBCF"/>
<stop offset="1" stop-color="#94979E"/>
</linearGradient>
</defs>
</svg>
