<svg width="141" height="40" viewBox="0 0 141 40" fill="none" xmlns="http://www.w3.org/2000/svg">
<path fill-rule="evenodd" clip-rule="evenodd" d="M0 8.2332C0 6.9335 1.05362 5.87988 2.35332 5.87988H11.7666C13.0663 5.87988 14.1199 6.9335 14.1199 8.2332V10.5865C14.1199 11.2364 13.5931 11.7632 12.9433 11.7632H1.17666C0.526809 11.7632 0 11.2364 0 10.5865V8.2332ZM14.1211 29.4132C14.1211 28.7633 14.6478 28.2365 15.2977 28.2365H27.0643C27.7142 28.2365 28.241 28.7633 28.241 29.4132V31.7665C28.241 33.0663 27.1874 34.1198 25.8877 34.1198H16.4744C15.1746 34.1198 14.1211 33.0663 14.1211 31.7665V29.4132ZM1.17666 14.705C0.526809 14.705 0 15.2318 0 15.8816V22.9416C0 24.2413 1.05362 25.2949 2.35332 25.2949H27.0632C27.7131 25.2949 28.2399 24.7681 28.2399 24.1182V17.0583C28.2399 15.7586 27.1863 14.705 25.8865 14.705H1.17666ZM43.9191 23.2252H46.639L51.7421 31.7666H57.9266L52.273 22.6423C55.3815 21.5738 57.1947 19.1778 57.1947 15.7131C57.1947 10.8562 53.7949 8.2334 48.3227 8.2334H38.5117V31.7666H43.9191V23.2252ZM43.9191 18.8216V12.7989H48.0313C50.5893 12.7989 51.8845 13.8998 51.8845 15.8102C51.8845 17.6882 50.5893 18.8216 48.0313 18.8216H43.9191ZM74.9517 26.8519C73.6889 30.1223 70.5804 31.8383 67.1806 31.8383C62.0322 31.8383 58.5352 28.2442 58.5352 22.9339C58.5352 17.8826 62.1616 14.0619 67.0834 14.0619C72.2641 14.0619 75.0811 17.8826 75.0811 22.7073V24.0672H63.5216C63.8778 26.3986 65.2701 27.7261 67.2453 27.7261C68.8642 27.7261 70.127 26.949 70.6128 25.4595L74.9517 26.8519ZM69.9652 20.8939C69.9328 19.3722 68.9291 18.077 67.0186 18.077C65.432 18.077 64.2016 19.016 63.6835 20.8939H69.9652ZM78.0171 27.0599C78.0171 30.557 79.8627 31.7874 83.554 31.7874C84.7844 31.7874 85.7559 31.6902 86.6625 31.5606V27.3189C86.0796 27.3837 85.7882 27.4161 85.1729 27.4161C83.8778 27.4161 83.1331 27.1571 83.1331 25.5889V18.692H86.4682V14.4179H83.1331V9.69043H78.0171V14.4179H75.8477V18.692H78.0171V27.0599ZM96.6147 13.9902C101.634 13.9902 105.163 17.5844 105.163 22.8947C105.163 28.2049 101.634 31.7667 96.6147 31.7667C91.5634 31.7667 88.0664 28.2049 88.0664 22.8947C88.0664 17.5844 91.5634 13.9902 96.6147 13.9902ZM96.6147 18.232C94.5424 18.232 93.2148 19.9157 93.2148 22.8947C93.2148 25.8736 94.5424 27.5573 96.6147 27.5573C98.6869 27.5573 100.015 25.8736 100.015 22.8947C100.015 19.9157 98.6869 18.232 96.6147 18.232ZM123.819 22.8947C123.819 17.5844 120.29 13.9902 115.271 13.9902C110.22 13.9902 106.723 17.5844 106.723 22.8947C106.723 28.2049 110.22 31.7667 115.271 31.7667C120.29 31.7667 123.819 28.2049 123.819 22.8947ZM111.871 22.8947C111.871 19.9157 113.199 18.232 115.271 18.232C117.343 18.232 118.671 19.9157 118.671 22.8947C118.671 25.8736 117.343 27.5573 115.271 27.5573C113.199 27.5573 111.871 25.8736 111.871 22.8947ZM126.289 8.23328H131.469V31.7665H126.289V8.23328Z" fill="url(#paint0_linear_4971_16152)"/>
<defs>
<linearGradient id="paint0_linear_4971_16152" x1="65.7343" y1="5.87988" x2="65.7343" y2="34.1199" gradientUnits="userSpaceOnUse">
<stop stop-color="#C9CBCF"/>
<stop offset="1" stop-color="#94979E"/>
</linearGradient>
</defs>
</svg>
