<svg viewBox="0 0 111 32" fill="none" xmlns="http://www.w3.org/2000/svg">
<mask id="mask0_12351_71638" style="mask-type:luminance" maskUnits="userSpaceOnUse" x="0" y="5" width="110" height="22">
<path d="M110 5H0V27H110V5Z" fill="white"/>
</mask>
<g mask="url(#mask0_12351_71638)">
<path d="M46.8433 26.5386H42.8335L34.0716 17.3078H32.438V26.5386H29.4678V5H39.4179C43.6057 5 46.1008 7.30771 46.1008 11.1539C46.1008 15.0001 43.6057 17.3078 39.4179 17.3078H37.9328L46.8433 26.5386ZM43.1306 11.1539C43.1306 8.96925 41.9425 7.6154 39.4179 7.6154H32.438V14.6924H39.4179C41.9425 14.6924 43.1306 13.3385 43.1306 11.1539Z" fill="url(#paint0_linear_12351_71638)"/>
<path d="M54.4471 27.0022C49.6948 27.0022 46.7246 23.3406 46.7246 18.5406C46.7246 13.7405 49.6948 10.079 54.2989 10.079C58.0115 10.079 60.2393 12.2328 61.2193 15.4328C61.5756 16.6329 61.7242 17.9559 61.7242 19.3098V19.6175H49.576C49.6654 22.2021 51.5066 24.6945 54.4471 24.6945C56.972 24.6945 58.1303 23.1867 58.3679 22.079H61.4271C60.7144 24.6945 58.3381 27.0022 54.4471 27.0022ZM49.576 17.3098H58.8728C58.7242 14.5406 57.2985 12.3867 54.2989 12.3867C51.2989 12.3867 49.6654 14.6944 49.576 17.3098Z" fill="url(#paint1_linear_12351_71638)"/>
<path d="M61.6006 13.3538V10.8923H65.3132V7.19995H68.1647V10.8923H72.1745V13.3538H68.1647V23.0462C68.1647 24.1231 68.4614 24.4923 69.501 24.4923H72.1745V26.8924H68.9071C66.2043 26.8924 65.3132 25.5077 65.3132 23.0462V13.3538H61.6006Z" fill="url(#paint2_linear_12351_71638)"/>
<path d="M80.6425 10.079C85.3952 10.079 88.5135 13.7405 88.5135 18.5406C88.5135 23.3406 85.3952 27.0022 80.6425 27.0022C75.8903 27.0022 72.7715 23.3406 72.7715 18.5406C72.7715 13.7405 75.8903 10.079 80.6425 10.079ZM80.6425 12.5405C77.4054 12.5405 75.6229 15.3098 75.6229 18.5406C75.6229 21.7714 77.4054 24.5406 80.6425 24.5406C83.8801 24.5406 85.6621 21.7714 85.6621 18.5406C85.6621 15.3098 83.8801 12.5405 80.6425 12.5405Z" fill="url(#paint3_linear_12351_71638)"/>
<path d="M97.6499 10.079C102.403 10.079 105.521 13.7405 105.521 18.5406C105.521 23.3406 102.403 27.0022 97.6499 27.0022C92.8977 27.0022 89.7793 23.3406 89.7793 18.5406C89.7793 13.7405 92.8977 10.079 97.6499 10.079ZM97.6499 12.5405C94.4128 12.5405 92.6303 15.3098 92.6303 18.5406C92.6303 21.7714 94.4128 24.5406 97.6499 24.5406C100.887 24.5406 102.67 21.7714 102.67 18.5406C102.67 15.3098 100.887 12.5405 97.6499 12.5405Z" fill="url(#paint4_linear_12351_71638)"/>
<path d="M110.024 5V26.5386H107.173V5H110.024Z" fill="url(#paint5_linear_12351_71638)"/>
<path d="M13.0612 6.00956C13.0612 5.452 12.6227 5 12.0816 5H0.979592C0.43858 5 0 5.452 0 6.00956V10.7208C0 11.2784 0.43858 11.7304 0.979592 11.7304H12.0816C12.6227 11.7304 13.0612 12.1824 13.0612 12.74V14.086C13.0612 14.6436 12.6227 15.0956 12.0816 15.0956H4.89796C4.35694 15.0956 3.91837 15.5476 3.91837 16.1052V20.8164C3.91837 21.374 4.35694 21.826 4.89796 21.826H12.0816C12.6227 21.826 13.0612 22.278 13.0612 22.8356V25.5277C13.0612 26.0853 13.4998 26.5373 14.0408 26.5373H18.6122C19.1533 26.5373 19.5918 26.0853 19.5918 25.5277V20.8164C19.5918 20.2589 19.1533 19.8069 18.6122 19.8069H14.0408C13.4998 19.8069 13.0612 19.3549 13.0612 18.7973V17.4512C13.0612 16.8937 13.4998 16.4417 14.0408 16.4417H18.6122C19.1533 16.4417 19.5918 15.9897 19.5918 15.4321V10.7208C19.5918 10.1633 19.1533 9.71128 18.6122 9.71128H14.0408C13.4998 9.71128 13.0612 9.25929 13.0612 8.70172V6.00956Z" fill="url(#paint6_linear_12351_71638)"/>
</g>
<defs>
<linearGradient id="paint0_linear_12351_71638" x1="38.1555" y1="5" x2="38.1555" y2="26.5386" gradientUnits="userSpaceOnUse">
<stop stop-color="#C9CBCF"/>
<stop offset="1" stop-color="#94979E"/>
</linearGradient>
<linearGradient id="paint1_linear_12351_71638" x1="54.2244" y1="10.079" x2="54.2244" y2="27.0022" gradientUnits="userSpaceOnUse">
<stop stop-color="#C9CBCF"/>
<stop offset="1" stop-color="#94979E"/>
</linearGradient>
<linearGradient id="paint2_linear_12351_71638" x1="66.8875" y1="7.19995" x2="66.8875" y2="26.8924" gradientUnits="userSpaceOnUse">
<stop stop-color="#C9CBCF"/>
<stop offset="1" stop-color="#94979E"/>
</linearGradient>
<linearGradient id="paint3_linear_12351_71638" x1="80.6425" y1="10.079" x2="80.6425" y2="27.0022" gradientUnits="userSpaceOnUse">
<stop stop-color="#C9CBCF"/>
<stop offset="1" stop-color="#94979E"/>
</linearGradient>
<linearGradient id="paint4_linear_12351_71638" x1="97.6501" y1="10.079" x2="97.6501" y2="27.0022" gradientUnits="userSpaceOnUse">
<stop stop-color="#C9CBCF"/>
<stop offset="1" stop-color="#94979E"/>
</linearGradient>
<linearGradient id="paint5_linear_12351_71638" x1="108.599" y1="5" x2="108.599" y2="26.5386" gradientUnits="userSpaceOnUse">
<stop stop-color="#C9CBCF"/>
<stop offset="1" stop-color="#94979E"/>
</linearGradient>
<linearGradient id="paint6_linear_12351_71638" x1="9.79592" y1="5" x2="9.79592" y2="26.5373" gradientUnits="userSpaceOnUse">
<stop stop-color="#C9CBCF"/>
<stop offset="1" stop-color="#94979E"/>
</linearGradient>
</defs>
</svg>
