<svg width="132" height="32" viewBox="0 0 132 32" fill="none" xmlns="http://www.w3.org/2000/svg">
<g clip-path="url(#clip0_26399_13211)">
<path d="M47.6263 22.5372C48.324 22.5372 48.8175 22.4695 49.1069 22.3341C49.3963 22.1987 49.5409 21.9365 49.5409 21.5472C49.5409 21.2429 49.3537 20.9807 48.9794 20.7607C48.6048 20.5237 48.0349 20.2615 47.269 19.9741C46.6734 19.7541 46.1286 19.5258 45.6352 19.2888C45.1588 19.0521 44.7502 18.7731 44.4099 18.4515C44.0695 18.1132 43.8058 17.7156 43.6187 17.2588C43.4315 16.8021 43.338 16.2522 43.338 15.6093C43.338 14.3575 43.8058 13.3679 44.7418 12.6405C45.6779 11.9129 46.9626 11.5493 48.5964 11.5493C49.4133 11.5493 50.1959 11.6253 50.9447 11.7776C51.6935 11.9129 52.2891 12.0652 52.7317 12.2344L52.0681 15.1779C51.6254 15.0258 51.1406 14.8904 50.6129 14.772C50.1024 14.6536 49.5239 14.5943 48.8772 14.5943C47.6859 14.5943 47.0904 14.9242 47.0904 15.5841C47.0904 15.7364 47.1159 15.8716 47.1668 15.99C47.2179 16.1085 47.3201 16.227 47.473 16.3454C47.6263 16.4467 47.8305 16.5651 48.086 16.7005C48.3581 16.819 48.6986 16.9544 49.1069 17.1067C49.9408 17.4111 50.63 17.7156 51.1747 18.0201C51.7192 18.3078 52.1445 18.6291 52.4509 18.9844C52.7742 19.3227 52.9955 19.7034 53.1146 20.1265C53.2506 20.5492 53.3188 21.0398 53.3188 21.598C53.3188 22.9175 52.8169 23.9157 51.8127 24.5925C50.8258 25.2691 49.4217 25.6074 47.6009 25.6074C46.4097 25.6074 45.414 25.5061 44.6143 25.303C43.8314 25.1 43.2869 24.9308 42.9805 24.7956L43.6187 21.725C44.2654 21.9787 44.9291 22.1818 45.6099 22.3341C46.2906 22.4695 46.9626 22.5372 47.6263 22.5372ZM56.1612 25.2522V6.16957L59.9647 5.56055V11.9552C60.22 11.8706 60.5432 11.7946 60.9348 11.7269C61.3431 11.6423 61.7347 11.5999 62.109 11.5999C63.1981 11.5999 64.1001 11.7523 64.8148 12.0568C65.5466 12.3444 66.1252 12.7588 66.5508 13.3002C66.9931 13.8415 67.2993 14.4844 67.4696 15.2287C67.6568 15.9731 67.7504 16.8021 67.7504 17.7156V25.2522H63.9468V18.1724C63.9468 16.9544 63.7852 16.0916 63.462 15.5841C63.1556 15.0767 62.577 14.8228 61.726 14.8228C61.3858 14.8228 61.0623 14.8565 60.7561 14.9242C60.4668 14.975 60.203 15.0342 59.9647 15.1019V25.2522H56.1612ZM82.6547 24.7956C82.0079 24.9815 81.1741 25.1507 80.1531 25.303C79.1319 25.4722 78.0599 25.5568 76.9365 25.5568C75.7965 25.5568 74.8436 25.4045 74.0778 25.1C73.3289 24.7956 72.7334 24.3725 72.2907 23.8312C71.8483 23.2729 71.5335 22.6132 71.3462 21.8519C71.159 21.0906 71.0655 20.2532 71.0655 19.3396V11.9045H74.869V18.8829C74.869 20.101 75.0306 20.9807 75.354 21.5219C75.6773 22.0633 76.2815 22.3341 77.1665 22.3341C77.4386 22.3341 77.7281 22.3255 78.0343 22.3086C78.3407 22.2747 78.613 22.2409 78.8511 22.2071V11.9045H82.6547V24.7956ZM86.0974 8.58027L89.9008 7.97125V11.9045H94.4702V15.0512H89.9008V19.7458C89.9008 20.5407 90.0371 21.1752 90.3094 21.6488C90.5986 22.1226 91.1688 22.3594 92.0197 22.3594C92.428 22.3594 92.845 22.3255 93.2704 22.2578C93.713 22.1734 94.1127 22.0633 94.4702 21.9279L95.0063 24.8716C94.5466 25.0578 94.0362 25.2184 93.4746 25.3537C92.9131 25.4891 92.2238 25.5568 91.4069 25.5568C90.3689 25.5568 89.5095 25.4214 88.8288 25.1507C88.1481 24.8633 87.6034 24.474 87.195 23.9834C86.7867 23.476 86.4973 22.867 86.327 22.1565C86.1741 21.4459 86.0974 20.6591 86.0974 19.7965V8.58027ZM97.4398 8.58027L101.243 7.97125V11.9045H105.812V15.0512H101.243V19.7458C101.243 20.5407 101.379 21.1752 101.652 21.6488C101.941 22.1226 102.511 22.3594 103.362 22.3594C103.77 22.3594 104.187 22.3255 104.613 22.2578C105.055 22.1734 105.456 22.0633 105.812 21.9279L106.349 24.8716C105.889 25.0578 105.378 25.2184 104.817 25.3537C104.256 25.4891 103.566 25.5568 102.75 25.5568C101.711 25.5568 100.852 25.4214 100.171 25.1507C99.4905 24.8633 98.946 24.474 98.5374 23.9834C98.1291 23.476 97.8397 22.867 97.6697 22.1565C97.5165 21.4459 97.4398 20.6591 97.4398 19.7965V8.58027ZM114.271 25.5061C113.164 25.4891 112.263 25.3707 111.565 25.1507C110.884 24.9308 110.339 24.6263 109.931 24.2371C109.539 23.8312 109.267 23.349 109.114 22.7907C108.978 22.2156 108.91 21.5727 108.91 20.8622V6.16957L112.714 5.56055V20.101C112.714 20.4393 112.739 20.7438 112.79 21.0145C112.841 21.2851 112.935 21.5136 113.071 21.6995C113.224 21.8857 113.436 22.038 113.709 22.1565C113.981 22.2747 114.347 22.351 114.806 22.3849L114.271 25.5061ZM116.348 18.6799C116.348 17.4957 116.528 16.4636 116.884 15.5841C117.26 14.6874 117.744 13.9431 118.34 13.3509C118.935 12.7588 119.616 12.3105 120.382 12.006C121.164 11.7015 121.965 11.5493 122.781 11.5493C124.687 11.5493 126.193 12.1329 127.3 13.3002C128.406 14.4506 128.958 16.1507 128.958 18.4007C128.958 18.6207 128.95 18.866 128.933 19.1367C128.917 19.3904 128.899 19.6187 128.882 19.8218H120.254C120.339 20.6 120.705 21.2174 121.352 21.6743C121.998 22.131 122.867 22.3594 123.955 22.3594C124.654 22.3594 125.334 22.3002 125.997 22.1818C126.678 22.0464 127.232 21.8857 127.657 21.6995L128.167 24.7701C127.964 24.8716 127.691 24.9732 127.351 25.0747C127.01 25.1763 126.627 25.2606 126.202 25.3283C125.793 25.4129 125.351 25.4806 124.875 25.5313C124.398 25.5821 123.922 25.6074 123.445 25.6074C122.237 25.6074 121.182 25.4298 120.28 25.0747C119.395 24.7193 118.655 24.2371 118.059 23.6281C117.481 23.0022 117.046 22.2664 116.757 21.4204C116.485 20.5745 116.348 19.6612 116.348 18.6799ZM125.283 17.2335C125.266 16.912 125.206 16.599 125.104 16.2947C125.02 15.99 124.875 15.7194 124.67 15.4825C124.483 15.2456 124.237 15.0512 123.93 14.8988C123.64 14.7466 123.275 14.6705 122.832 14.6705C122.407 14.6705 122.041 14.7466 121.734 14.8988C121.428 15.0342 121.173 15.2203 120.969 15.457C120.765 15.694 120.603 15.9731 120.484 16.2947C120.382 16.599 120.305 16.912 120.254 17.2335H125.283Z" fill="url(#paint0_linear_26399_13211)"/>
<path fill-rule="evenodd" clip-rule="evenodd" d="M22.4364 1.30298L14.9549 8.65429H7.47358L-0.0078125 16.0054H7.47358V23.356H-0.0078125V30.7073H7.47358V23.356L14.9549 23.3569V30.7081L22.4364 23.3569V16.0054L29.9177 8.65429V1.30298H22.4364Z" fill="url(#paint1_linear_26399_13211)"/>
</g>
<defs>
<linearGradient id="paint0_linear_26399_13211" x1="85.9694" y1="5.56055" x2="85.9694" y2="25.6074" gradientUnits="userSpaceOnUse">
<stop stop-color="#C9CBCF"/>
<stop offset="1" stop-color="#94979E"/>
</linearGradient>
<linearGradient id="paint1_linear_26399_13211" x1="14.955" y1="1.30298" x2="14.955" y2="30.7081" gradientUnits="userSpaceOnUse">
<stop stop-color="#C9CBCF"/>
<stop offset="1" stop-color="#94979E"/>
</linearGradient>
<clipPath id="clip0_26399_13211">
<rect width="132" height="32" fill="white"/>
</clipPath>
</defs>
</svg>
