<svg width="154" height="40" viewBox="0 0 154 40" fill="none" xmlns="http://www.w3.org/2000/svg">
<path d="M74.0139 12C68.2204 12 64.0432 15.6 64.0432 21C64.0432 26.4 68.7452 30 74.5387 30C78.0389 30 81.1246 28.68 83.0347 26.455L79.0202 24.245C77.9602 25.35 76.3491 25.995 74.5387 25.995C72.025 25.995 69.8892 24.745 69.0968 22.745H83.8009C83.9164 22.185 83.9846 21.605 83.9846 20.995C83.9846 15.6 79.8074 12 74.0139 12ZM69.0496 19.25C69.7055 17.255 71.5002 16 74.0087 16C76.5223 16 78.317 17.255 78.9678 19.25H69.0496ZM130.521 12C124.728 12 120.551 15.6 120.551 21C120.551 26.4 125.253 30 131.046 30C134.546 30 137.632 28.68 139.542 26.455L135.528 24.245C134.468 25.35 132.857 25.995 131.046 25.995C128.533 25.995 126.397 24.745 125.604 22.745H140.308C140.424 22.185 140.492 21.605 140.492 20.995C140.492 15.6 136.315 12 130.521 12ZM125.562 19.25C126.218 17.255 128.013 16 130.521 16C133.035 16 134.83 17.255 135.48 19.25H125.562ZM105.08 21C105.08 24 107.138 26 110.328 26C112.49 26 114.112 25.065 114.946 23.54L118.976 25.755C117.308 28.405 114.18 30 110.328 30C104.529 30 100.357 26.4 100.357 21C100.357 15.6 104.535 12 110.328 12C114.18 12 117.302 13.595 118.976 16.245L114.946 18.46C114.112 16.935 112.49 16 110.328 16C107.143 16 105.08 18 105.08 21ZM148.364 6.5V29.5H143.641V6.5H148.364ZM19.3903 4L38.7807 36H0L19.3903 4ZM67.8688 6.5L53.3274 30.5L38.7859 6.5H44.2383L53.3274 21.5L62.4164 6.5H67.8688ZM98.7832 12.5V17.345C98.2584 17.2 97.7021 17.1 97.1039 17.1C94.055 17.1 91.8562 19.1 91.8562 22.1V29.5H87.1332V12.5H91.8562V17.1C91.8562 14.56 94.9576 12.5 98.7832 12.5Z" fill="url(#paint0_linear_4971_16141)"/>
<defs>
<linearGradient id="paint0_linear_4971_16141" x1="74.1818" y1="4" x2="74.1818" y2="36" gradientUnits="userSpaceOnUse">
<stop stop-color="#C9CBCF"/>
<stop offset="1" stop-color="#94979E"/>
</linearGradient>
</defs>
</svg>
