<svg width="123" height="32" viewBox="0 0 123 32" fill="none" xmlns="http://www.w3.org/2000/svg">
<path d="M59.4316 9.96917C54.7798 9.96917 51.4259 12.8531 51.4259 17.1789C51.4259 21.5047 55.2012 24.3886 59.8529 24.3886C62.6634 24.3886 65.1409 23.3312 66.6746 21.5488L63.4513 19.7784C62.6002 20.6636 61.3066 21.1803 59.8529 21.1803C57.8346 21.1803 56.1197 20.1789 55.4835 18.5768H67.2898C67.3825 18.1282 67.4373 17.6635 67.4373 17.1749C67.4373 12.8531 64.0833 9.96917 59.4316 9.96917ZM55.4456 15.777C55.9723 14.1788 57.4133 13.1735 59.4274 13.1735C61.4456 13.1735 62.8867 14.1788 63.4092 15.777H55.4456ZM104.803 9.96917C100.151 9.96917 96.7972 12.8531 96.7972 17.1789C96.7972 21.5047 100.573 24.3886 105.224 24.3886C108.035 24.3886 110.512 23.3312 112.046 21.5488L108.823 19.7784C107.971 20.6636 106.678 21.1803 105.224 21.1803C103.206 21.1803 101.491 20.1789 100.855 18.5768H112.661C112.754 18.1282 112.809 17.6635 112.809 17.1749C112.809 12.8531 109.455 9.96917 104.803 9.96917ZM100.821 15.777C101.348 14.1788 102.789 13.1735 104.803 13.1735C106.821 13.1735 108.262 14.1788 108.785 15.777H100.821ZM84.3757 17.1789C84.3757 19.5821 86.0274 21.1843 88.5892 21.1843C90.3252 21.1843 91.6272 20.4353 92.2971 19.2136L95.5331 20.988C94.1932 23.1109 91.682 24.3886 88.5892 24.3886C83.9333 24.3886 80.5835 21.5047 80.5835 17.1789C80.5835 12.8531 83.9375 9.96917 88.5892 9.96917C91.682 9.96917 94.189 11.2469 95.5331 13.3697L92.2971 15.1441C91.6272 13.9225 90.3252 13.1735 88.5892 13.1735C86.0316 13.1735 84.3757 14.7756 84.3757 17.1789ZM119.129 5.56324V23.988H115.337V5.56324H119.129ZM15.5729 3.56055L31.1419 29.195H0.00390625L15.5729 3.56055ZM54.4975 5.56324L42.8218 24.7891L31.1461 5.56324H35.524L42.8218 17.5794L50.1197 5.56324H54.4975ZM79.3195 10.3697V14.2509C78.8981 14.1348 78.4515 14.0547 77.9711 14.0547C75.5231 14.0547 73.7576 15.6568 73.7576 18.0601V23.988H69.9654V10.3697H73.7576V14.0547C73.7576 12.0199 76.2478 10.3697 79.3195 10.3697Z" fill="url(#paint0_linear_26399_13223)"/>
<defs>
<linearGradient id="paint0_linear_26399_13223" x1="59.5664" y1="3.56055" x2="59.5664" y2="29.195" gradientUnits="userSpaceOnUse">
<stop stop-color="#C9CBCF"/>
<stop offset="1" stop-color="#94979E"/>
</linearGradient>
</defs>
</svg>
