<svg width="229" height="64" viewBox="0 0 229 64" fill="none" xmlns="http://www.w3.org/2000/svg">
<path fill-rule="evenodd" clip-rule="evenodd" d="M0 11.0345C0 4.94031 4.93712 0 11.0274 0H52.9314C59.0217 0 63.9588 4.94031 63.9588 11.0345V46.6967C63.9588 53.0015 55.9856 55.7378 52.1186 50.7601L40.0294 35.1986V54.069C40.0294 59.5537 35.586 64 30.1047 64H11.0274C4.93712 64 0 59.0597 0 52.9655V11.0345ZM11.0274 8.82759C9.80932 8.82759 8.8219 9.81565 8.8219 11.0345V52.9655C8.8219 54.1843 9.80933 55.1724 11.0274 55.1724H30.4356C31.0446 55.1724 31.2075 54.6784 31.2075 54.069V28.7639C31.2075 22.4592 39.1806 19.7228 43.0476 24.7005L55.1369 40.262V11.0345C55.1369 9.81565 55.2522 8.82759 54.0341 8.82759H11.0274Z" fill="#12FFF7"/>
<path fill-rule="evenodd" clip-rule="evenodd" d="M0 11.0345C0 4.94031 4.93712 0 11.0274 0H52.9314C59.0217 0 63.9588 4.94031 63.9588 11.0345V46.6967C63.9588 53.0015 55.9856 55.7378 52.1186 50.7601L40.0294 35.1986V54.069C40.0294 59.5537 35.586 64 30.1047 64H11.0274C4.93712 64 0 59.0597 0 52.9655V11.0345ZM11.0274 8.82759C9.80932 8.82759 8.8219 9.81565 8.8219 11.0345V52.9655C8.8219 54.1843 9.80933 55.1724 11.0274 55.1724H30.4356C31.0446 55.1724 31.2075 54.6784 31.2075 54.069V28.7639C31.2075 22.4592 39.1806 19.7228 43.0476 24.7005L55.1369 40.262V11.0345C55.1369 9.81565 55.2522 8.82759 54.0341 8.82759H11.0274Z" fill="url(#paint0_linear_1950_8993)"/>
<path fill-rule="evenodd" clip-rule="evenodd" d="M0 11.0345C0 4.94031 4.93712 0 11.0274 0H52.9314C59.0217 0 63.9588 4.94031 63.9588 11.0345V46.6967C63.9588 53.0015 55.9856 55.7378 52.1186 50.7601L40.0294 35.1986V54.069C40.0294 59.5537 35.586 64 30.1047 64H11.0274C4.93712 64 0 59.0597 0 52.9655V11.0345ZM11.0274 8.82759C9.80932 8.82759 8.8219 9.81565 8.8219 11.0345V52.9655C8.8219 54.1843 9.80933 55.1724 11.0274 55.1724H30.4356C31.0446 55.1724 31.2075 54.6784 31.2075 54.069V28.7639C31.2075 22.4592 39.1806 19.7228 43.0476 24.7005L55.1369 40.262V11.0345C55.1369 9.81565 55.2522 8.82759 54.0341 8.82759H11.0274Z" fill="url(#paint1_linear_1950_8993)"/>
<path d="M52.9348 0C59.0251 0 63.9622 4.94031 63.9622 11.0345V46.6967C63.9622 53.0015 55.989 55.7378 52.1221 50.7601L40.0328 35.1986V54.069C40.0328 59.5537 35.5894 64 30.1082 64C30.7172 64 31.2109 63.506 31.2109 62.8966V28.7639C31.2109 22.4592 39.184 19.7228 43.051 24.7005L55.1403 40.262V2.2069C55.1403 0.988061 54.1529 0 52.9348 0Z" fill="#B9FFB3"/>
<path d="M87.1614 56.2102C86.1289 56.2102 85.2489 56.0225 84.5214 55.647C83.8057 55.2716 83.1897 54.767 82.6734 54.1334L84.0462 52.8486C84.4804 53.3766 84.9556 53.7756 85.4718 54.0454C85.9998 54.3153 86.5982 54.4502 87.267 54.4502C88.0532 54.4502 88.6457 54.2742 89.0446 53.9222C89.4436 53.5702 89.643 53.095 89.643 52.4966C89.643 52.0156 89.5022 51.6342 89.2206 51.3526C88.939 51.071 88.4404 50.8598 87.7246 50.719L86.6334 50.5254C85.4366 50.3025 84.539 49.9094 83.9406 49.3462C83.3422 48.783 83.043 48.0086 83.043 47.023C83.043 46.4833 83.1428 45.9964 83.3422 45.5622C83.5534 45.1164 83.8409 44.7468 84.2046 44.4534C84.5801 44.1484 85.0318 43.9137 85.5598 43.7494C86.0878 43.5852 86.6804 43.503 87.3374 43.503C88.2644 43.503 89.0681 43.6673 89.7486 43.9958C90.4292 44.3126 91.01 44.7761 91.491 45.3862L90.1006 46.6182C89.7838 46.2076 89.3966 45.879 88.939 45.6326C88.4814 45.3862 87.9124 45.263 87.2318 45.263C86.5278 45.263 85.9822 45.4038 85.595 45.6854C85.2078 45.967 85.0142 46.3777 85.0142 46.9174C85.0142 47.4337 85.1726 47.8209 85.4894 48.079C85.8062 48.3254 86.299 48.5132 86.9678 48.6422L88.059 48.871C89.291 49.1057 90.1886 49.5046 90.7518 50.0678C91.3268 50.631 91.6142 51.4054 91.6142 52.391C91.6142 52.966 91.5145 53.4881 91.315 53.9574C91.1156 54.4268 90.8222 54.8316 90.435 55.1718C90.0596 55.5004 89.5961 55.7585 89.0446 55.9462C88.4932 56.1222 87.8654 56.2102 87.1614 56.2102ZM96.7474 56.2102C96.0903 56.2102 95.5037 56.0988 94.9874 55.8758C94.4711 55.6529 94.0311 55.3361 93.6674 54.9254C93.3037 54.503 93.0221 53.9985 92.8226 53.4118C92.6349 52.8134 92.541 52.1505 92.541 51.423C92.541 50.6956 92.6349 50.0385 92.8226 49.4518C93.0221 48.8534 93.3037 48.3489 93.6674 47.9382C94.0311 47.5158 94.4711 47.1932 94.9874 46.9702C95.5037 46.7473 96.0903 46.6358 96.7474 46.6358C97.4162 46.6358 98.0029 46.7532 98.5074 46.9878C99.0237 47.2225 99.4519 47.551 99.7922 47.9734C100.132 48.3841 100.385 48.8652 100.549 49.4166C100.725 49.9681 100.813 50.5606 100.813 51.1942V51.9158H94.5298V52.215C94.5298 52.919 94.7351 53.4998 95.1458 53.9574C95.5682 54.4033 96.1666 54.6262 96.941 54.6262C97.5042 54.6262 97.9794 54.503 98.3666 54.2566C98.7538 54.0102 99.0823 53.6758 99.3522 53.2534L100.479 54.3622C100.138 54.9254 99.6455 55.3772 99.0002 55.7174C98.3549 56.046 97.6039 56.2102 96.7474 56.2102ZM96.7474 48.1318C96.4189 48.1318 96.1138 48.1905 95.8322 48.3078C95.5623 48.4252 95.3277 48.5894 95.1282 48.8006C94.9405 49.0118 94.7938 49.2641 94.6882 49.5574C94.5826 49.8508 94.5298 50.1734 94.5298 50.5254V50.6486H98.789V50.4726C98.789 49.7686 98.6071 49.2054 98.2434 48.783C97.8797 48.3489 97.381 48.1318 96.7474 48.1318ZM102.233 55.999V46.847H104.151V48.607H104.239C104.368 48.1377 104.638 47.727 105.049 47.375C105.459 47.023 106.028 46.847 106.756 46.847H107.266V48.695H106.509C105.747 48.695 105.16 48.8182 104.749 49.0646C104.351 49.311 104.151 49.6748 104.151 50.1558V55.999H102.233ZM110.41 55.999L107.294 46.847H109.195L110.586 51.0182L111.518 54.2214H111.624L112.557 51.0182L113.982 46.847H115.813L112.662 55.999H110.41ZM120.176 56.2102C119.519 56.2102 118.932 56.0988 118.416 55.8758C117.9 55.6529 117.46 55.3361 117.096 54.9254C116.732 54.503 116.451 53.9985 116.251 53.4118C116.063 52.8134 115.97 52.1505 115.97 51.423C115.97 50.6956 116.063 50.0385 116.251 49.4518C116.451 48.8534 116.732 48.3489 117.096 47.9382C117.46 47.5158 117.9 47.1932 118.416 46.9702C118.932 46.7473 119.519 46.6358 120.176 46.6358C120.845 46.6358 121.431 46.7532 121.936 46.9878C122.452 47.2225 122.881 47.551 123.221 47.9734C123.561 48.3841 123.813 48.8652 123.978 49.4166C124.154 49.9681 124.242 50.5606 124.242 51.1942V51.9158H117.958V52.215C117.958 52.919 118.164 53.4998 118.574 53.9574C118.997 54.4033 119.595 54.6262 120.37 54.6262C120.933 54.6262 121.408 54.503 121.795 54.2566C122.182 54.0102 122.511 53.6758 122.781 53.2534L123.907 54.3622C123.567 54.9254 123.074 55.3772 122.429 55.7174C121.783 56.046 121.033 56.2102 120.176 56.2102ZM120.176 48.1318C119.847 48.1318 119.542 48.1905 119.261 48.3078C118.991 48.4252 118.756 48.5894 118.557 48.8006C118.369 49.0118 118.222 49.2641 118.117 49.5574C118.011 49.8508 117.958 50.1734 117.958 50.5254V50.6486H122.218V50.4726C122.218 49.7686 122.036 49.2054 121.672 48.783C121.308 48.3489 120.81 48.1318 120.176 48.1318ZM125.661 55.999V46.847H127.58V48.607H127.668C127.797 48.1377 128.067 47.727 128.477 47.375C128.888 47.023 129.457 46.847 130.185 46.847H130.695V48.695H129.938C129.175 48.695 128.589 48.8182 128.178 49.0646C127.779 49.311 127.58 49.6748 127.58 50.1558V55.999H125.661ZM133.648 55.999C132.991 55.999 132.499 55.8348 132.17 55.5062C131.853 55.166 131.695 54.6966 131.695 54.0982V42.975H133.613V54.4326H134.88V55.999H133.648ZM139.6 56.2102C138.943 56.2102 138.356 56.0988 137.84 55.8758C137.324 55.6529 136.884 55.3361 136.52 54.9254C136.156 54.503 135.875 53.9985 135.675 53.4118C135.487 52.8134 135.394 52.1505 135.394 51.423C135.394 50.6956 135.487 50.0385 135.675 49.4518C135.875 48.8534 136.156 48.3489 136.52 47.9382C136.884 47.5158 137.324 47.1932 137.84 46.9702C138.356 46.7473 138.943 46.6358 139.6 46.6358C140.269 46.6358 140.855 46.7532 141.36 46.9878C141.876 47.2225 142.304 47.551 142.645 47.9734C142.985 48.3841 143.237 48.8652 143.402 49.4166C143.578 49.9681 143.666 50.5606 143.666 51.1942V51.9158H137.382V52.215C137.382 52.919 137.588 53.4998 137.998 53.9574C138.421 54.4033 139.019 54.6262 139.794 54.6262C140.357 54.6262 140.832 54.503 141.219 54.2566C141.606 54.0102 141.935 53.6758 142.205 53.2534L143.331 54.3622C142.991 54.9254 142.498 55.3772 141.853 55.7174C141.207 56.046 140.456 56.2102 139.6 56.2102ZM139.6 48.1318C139.271 48.1318 138.966 48.1905 138.685 48.3078C138.415 48.4252 138.18 48.5894 137.981 48.8006C137.793 49.0118 137.646 49.2641 137.541 49.5574C137.435 49.8508 137.382 50.1734 137.382 50.5254V50.6486H141.642V50.4726C141.642 49.7686 141.46 49.2054 141.096 48.783C140.732 48.3489 140.234 48.1318 139.6 48.1318ZM147.989 56.2102C147.121 56.2102 146.394 56.0577 145.807 55.7526C145.22 55.4476 144.71 55.0252 144.276 54.4854L145.508 53.359C145.848 53.7697 146.223 54.0924 146.634 54.327C147.056 54.55 147.543 54.6614 148.095 54.6614C148.658 54.6614 149.075 54.5558 149.344 54.3446C149.626 54.1217 149.767 53.8166 149.767 53.4294C149.767 53.1361 149.667 52.8897 149.468 52.6902C149.28 52.479 148.946 52.3441 148.464 52.2854L147.62 52.1798C146.681 52.0625 145.942 51.7926 145.402 51.3702C144.874 50.9361 144.61 50.2966 144.61 49.4518C144.61 49.006 144.692 48.6129 144.856 48.2726C145.021 47.9206 145.25 47.6273 145.543 47.3926C145.848 47.1462 146.206 46.9585 146.616 46.8294C147.039 46.7004 147.502 46.6358 148.007 46.6358C148.828 46.6358 149.497 46.7649 150.013 47.023C150.541 47.2812 151.011 47.639 151.421 48.0966L150.242 49.223C150.007 48.9414 149.696 48.7009 149.309 48.5014C148.934 48.2902 148.5 48.1846 148.007 48.1846C147.479 48.1846 147.086 48.2902 146.828 48.5014C146.581 48.7126 146.458 48.9884 146.458 49.3286C146.458 49.6806 146.57 49.9446 146.792 50.1206C147.015 50.2966 147.373 50.4257 147.866 50.5078L148.711 50.6134C149.72 50.766 150.453 51.0652 150.911 51.511C151.38 51.9452 151.615 52.5318 151.615 53.271C151.615 53.7169 151.527 54.1217 151.351 54.4854C151.187 54.8374 150.946 55.1425 150.629 55.4006C150.312 55.6588 149.931 55.8582 149.485 55.999C149.039 56.1398 148.541 56.2102 147.989 56.2102ZM155.879 56.2102C155.011 56.2102 154.283 56.0577 153.697 55.7526C153.11 55.4476 152.6 55.0252 152.165 54.4854L153.397 53.359C153.738 53.7697 154.113 54.0924 154.524 54.327C154.946 54.55 155.433 54.6614 155.985 54.6614C156.548 54.6614 156.964 54.5558 157.234 54.3446C157.516 54.1217 157.657 53.8166 157.657 53.4294C157.657 53.1361 157.557 52.8897 157.357 52.6902C157.17 52.479 156.835 52.3441 156.354 52.2854L155.509 52.1798C154.571 52.0625 153.832 51.7926 153.292 51.3702C152.764 50.9361 152.5 50.2966 152.5 49.4518C152.5 49.006 152.582 48.6129 152.746 48.2726C152.91 47.9206 153.139 47.6273 153.433 47.3926C153.738 47.1462 154.096 46.9585 154.506 46.8294C154.929 46.7004 155.392 46.6358 155.897 46.6358C156.718 46.6358 157.387 46.7649 157.903 47.023C158.431 47.2812 158.9 47.639 159.311 48.0966L158.132 49.223C157.897 48.9414 157.586 48.7009 157.199 48.5014C156.824 48.2902 156.389 48.1846 155.897 48.1846C155.369 48.1846 154.976 48.2902 154.717 48.5014C154.471 48.7126 154.348 48.9884 154.348 49.3286C154.348 49.6806 154.459 49.9446 154.682 50.1206C154.905 50.2966 155.263 50.4257 155.756 50.5078L156.601 50.6134C157.61 50.766 158.343 51.0652 158.801 51.511C159.27 51.9452 159.505 52.5318 159.505 53.271C159.505 53.7169 159.417 54.1217 159.241 54.4854C159.076 54.8374 158.836 55.1425 158.519 55.4006C158.202 55.6588 157.821 55.8582 157.375 55.999C156.929 56.1398 156.43 56.2102 155.879 56.2102ZM164.564 55.999V43.7142H169.844C170.982 43.7142 171.862 44.0486 172.484 44.7174C173.106 45.3862 173.417 46.2838 173.417 47.4102C173.417 48.5366 173.106 49.4342 172.484 50.103C171.862 50.7718 170.982 51.1062 169.844 51.1062H166.553V55.999H164.564ZM166.553 49.3638H169.721C170.225 49.3638 170.618 49.2348 170.9 48.9766C171.182 48.7068 171.322 48.3254 171.322 47.8326V46.9878C171.322 46.495 171.182 46.1196 170.9 45.8614C170.618 45.5916 170.225 45.4566 169.721 45.4566H166.553V49.3638ZM178 56.2102C177.367 56.2102 176.786 56.0988 176.258 55.8758C175.742 55.6529 175.302 55.3361 174.938 54.9254C174.574 54.503 174.293 53.9985 174.093 53.4118C173.894 52.8134 173.794 52.1505 173.794 51.423C173.794 50.6956 173.894 50.0385 174.093 49.4518C174.293 48.8534 174.574 48.3489 174.938 47.9382C175.302 47.5158 175.742 47.1932 176.258 46.9702C176.786 46.7473 177.367 46.6358 178 46.6358C178.634 46.6358 179.209 46.7473 179.725 46.9702C180.253 47.1932 180.699 47.5158 181.063 47.9382C181.426 48.3489 181.708 48.8534 181.907 49.4518C182.107 50.0385 182.207 50.6956 182.207 51.423C182.207 52.1505 182.107 52.8134 181.907 53.4118C181.708 53.9985 181.426 54.503 181.063 54.9254C180.699 55.3361 180.253 55.6529 179.725 55.8758C179.209 56.0988 178.634 56.2102 178 56.2102ZM178 54.6262C178.657 54.6262 179.185 54.4268 179.584 54.0278C179.983 53.6172 180.183 53.007 180.183 52.1974V50.6486C180.183 49.839 179.983 49.2348 179.584 48.8358C179.185 48.4252 178.657 48.2198 178 48.2198C177.343 48.2198 176.815 48.4252 176.416 48.8358C176.017 49.2348 175.818 49.839 175.818 50.6486V52.1974C175.818 53.007 176.017 53.6172 176.416 54.0278C176.815 54.4268 177.343 54.6262 178 54.6262ZM186.544 56.2102C185.676 56.2102 184.949 56.0577 184.362 55.7526C183.775 55.4476 183.265 55.0252 182.831 54.4854L184.063 53.359C184.403 53.7697 184.778 54.0924 185.189 54.327C185.611 54.55 186.098 54.6614 186.65 54.6614C187.213 54.6614 187.63 54.5558 187.899 54.3446C188.181 54.1217 188.322 53.8166 188.322 53.4294C188.322 53.1361 188.222 52.8897 188.023 52.6902C187.835 52.479 187.501 52.3441 187.019 52.2854L186.175 52.1798C185.236 52.0625 184.497 51.7926 183.957 51.3702C183.429 50.9361 183.165 50.2966 183.165 49.4518C183.165 49.006 183.247 48.6129 183.411 48.2726C183.576 47.9206 183.805 47.6273 184.098 47.3926C184.403 47.1462 184.761 46.9585 185.171 46.8294C185.594 46.7004 186.057 46.6358 186.562 46.6358C187.383 46.6358 188.052 46.7649 188.568 47.023C189.096 47.2812 189.566 47.639 189.976 48.0966L188.797 49.223C188.562 48.9414 188.251 48.7009 187.864 48.5014C187.489 48.2902 187.055 48.1846 186.562 48.1846C186.034 48.1846 185.641 48.2902 185.383 48.5014C185.136 48.7126 185.013 48.9884 185.013 49.3286C185.013 49.6806 185.125 49.9446 185.347 50.1206C185.57 50.2966 185.928 50.4257 186.421 50.5078L187.266 50.6134C188.275 50.766 189.008 51.0652 189.466 51.511C189.935 51.9452 190.17 52.5318 190.17 53.271C190.17 53.7169 190.082 54.1217 189.906 54.4854C189.742 54.8374 189.501 55.1425 189.184 55.4006C188.867 55.6588 188.486 55.8582 188.04 55.999C187.594 56.1398 187.096 56.2102 186.544 56.2102ZM194.047 55.999C193.378 55.999 192.874 55.8289 192.534 55.4886C192.193 55.1366 192.023 54.6438 192.023 54.0102V48.4134H190.598V46.847H191.372C191.689 46.847 191.906 46.7766 192.023 46.6358C192.152 46.495 192.217 46.2662 192.217 45.9494V44.3478H193.942V46.847H195.86V48.4134H193.942V54.4326H195.719V55.999H194.047ZM205.159 56.8614C205.159 57.8118 204.796 58.5276 204.068 59.0086C203.341 59.4897 202.156 59.7302 200.513 59.7302C199.762 59.7302 199.123 59.6774 198.595 59.5718C198.078 59.478 197.65 59.3372 197.31 59.1494C196.981 58.9617 196.741 58.7329 196.588 58.463C196.436 58.1932 196.359 57.8822 196.359 57.5302C196.359 57.0257 196.494 56.6326 196.764 56.351C197.046 56.0694 197.433 55.8758 197.926 55.7702V55.5766C197.234 55.3537 196.887 54.8844 196.887 54.1686C196.887 53.6993 197.046 53.3414 197.363 53.095C197.679 52.8369 198.061 52.655 198.507 52.5494V52.479C197.967 52.2209 197.55 51.863 197.257 51.4054C196.975 50.9361 196.835 50.3905 196.835 49.7686C196.835 48.83 197.146 48.0732 197.767 47.4982C198.401 46.9233 199.304 46.6358 200.478 46.6358C201.123 46.6358 201.675 46.7297 202.132 46.9174V46.671C202.132 46.2604 202.226 45.9436 202.414 45.7206C202.613 45.486 202.918 45.3686 203.329 45.3686H204.737V46.9174H202.871V47.287C203.282 47.5569 203.599 47.9089 203.822 48.343C204.045 48.7654 204.156 49.2406 204.156 49.7686C204.156 50.6956 203.839 51.4465 203.206 52.0214C202.572 52.5846 201.669 52.8662 200.495 52.8662C200.05 52.8662 199.651 52.8193 199.299 52.7254C199.064 52.8076 198.859 52.9249 198.683 53.0774C198.507 53.2182 198.419 53.406 198.419 53.6406C198.419 53.887 198.53 54.063 198.753 54.1686C198.976 54.2742 199.293 54.327 199.703 54.327H201.956C203.083 54.327 203.898 54.5558 204.403 55.0134C204.907 55.4593 205.159 56.0753 205.159 56.8614ZM203.364 57.0726C203.364 56.7558 203.241 56.5036 202.995 56.3158C202.76 56.1281 202.326 56.0342 201.692 56.0342H198.595C198.172 56.2806 197.961 56.6326 197.961 57.0902C197.961 57.4657 198.108 57.7649 198.401 57.9878C198.706 58.2225 199.216 58.3398 199.932 58.3398H201.129C202.619 58.3398 203.364 57.9174 203.364 57.0726ZM200.495 51.4758C201.059 51.4758 201.493 51.3526 201.798 51.1062C202.115 50.8481 202.273 50.455 202.273 49.927V49.575C202.273 49.047 202.115 48.6598 201.798 48.4134C201.493 48.1553 201.059 48.0262 200.495 48.0262C199.932 48.0262 199.492 48.1553 199.175 48.4134C198.87 48.6598 198.718 49.047 198.718 49.575V49.927C198.718 50.455 198.87 50.8481 199.175 51.1062C199.492 51.3526 199.932 51.4758 200.495 51.4758ZM205.883 55.999V46.847H207.801V48.607H207.889C208.018 48.1377 208.288 47.727 208.699 47.375C209.11 47.023 209.679 46.847 210.406 46.847H210.917V48.695H210.16C209.397 48.695 208.81 48.8182 208.4 49.0646C208.001 49.311 207.801 49.6748 207.801 50.1558V55.999H205.883ZM215.421 56.2102C214.764 56.2102 214.177 56.0988 213.661 55.8758C213.145 55.6529 212.705 55.3361 212.341 54.9254C211.977 54.503 211.696 53.9985 211.496 53.4118C211.308 52.8134 211.215 52.1505 211.215 51.423C211.215 50.6956 211.308 50.0385 211.496 49.4518C211.696 48.8534 211.977 48.3489 212.341 47.9382C212.705 47.5158 213.145 47.1932 213.661 46.9702C214.177 46.7473 214.764 46.6358 215.421 46.6358C216.09 46.6358 216.676 46.7532 217.181 46.9878C217.697 47.2225 218.125 47.551 218.466 47.9734C218.806 48.3841 219.058 48.8652 219.223 49.4166C219.399 49.9681 219.487 50.5606 219.487 51.1942V51.9158H213.203V52.215C213.203 52.919 213.409 53.4998 213.819 53.9574C214.242 54.4033 214.84 54.6262 215.615 54.6262C216.178 54.6262 216.653 54.503 217.04 54.2566C217.427 54.0102 217.756 53.6758 218.026 53.2534L219.152 54.3622C218.812 54.9254 218.319 55.3772 217.674 55.7174C217.028 56.046 216.277 56.2102 215.421 56.2102ZM215.421 48.1318C215.092 48.1318 214.787 48.1905 214.506 48.3078C214.236 48.4252 214.001 48.5894 213.802 48.8006C213.614 49.0118 213.467 49.2641 213.362 49.5574C213.256 49.8508 213.203 50.1734 213.203 50.5254V50.6486H217.463V50.4726C217.463 49.7686 217.281 49.2054 216.917 48.783C216.553 48.3489 216.055 48.1318 215.421 48.1318ZM223.81 56.2102C222.942 56.2102 222.214 56.0577 221.628 55.7526C221.041 55.4476 220.531 55.0252 220.097 54.4854L221.329 53.359C221.669 53.7697 222.044 54.0924 222.455 54.327C222.877 54.55 223.364 54.6614 223.916 54.6614C224.479 54.6614 224.896 54.5558 225.165 54.3446C225.447 54.1217 225.588 53.8166 225.588 53.4294C225.588 53.1361 225.488 52.8897 225.289 52.6902C225.101 52.479 224.766 52.3441 224.285 52.2854L223.441 52.1798C222.502 52.0625 221.763 51.7926 221.223 51.3702C220.695 50.9361 220.431 50.2966 220.431 49.4518C220.431 49.006 220.513 48.6129 220.677 48.2726C220.842 47.9206 221.07 47.6273 221.364 47.3926C221.669 47.1462 222.027 46.9585 222.437 46.8294C222.86 46.7004 223.323 46.6358 223.828 46.6358C224.649 46.6358 225.318 46.7649 225.834 47.023C226.362 47.2812 226.832 47.639 227.242 48.0966L226.063 49.223C225.828 48.9414 225.517 48.7009 225.13 48.5014C224.755 48.2902 224.321 48.1846 223.828 48.1846C223.3 48.1846 222.907 48.2902 222.649 48.5014C222.402 48.7126 222.279 48.9884 222.279 49.3286C222.279 49.6806 222.39 49.9446 222.613 50.1206C222.836 50.2966 223.194 50.4257 223.687 50.5078L224.532 50.6134C225.541 50.766 226.274 51.0652 226.732 51.511C227.201 51.9452 227.436 52.5318 227.436 53.271C227.436 53.7169 227.348 54.1217 227.172 54.4854C227.008 54.8374 226.767 55.1425 226.45 55.4006C226.133 55.6588 225.752 55.8582 225.306 55.999C224.86 56.1398 224.362 56.2102 223.81 56.2102Z" fill="white"/>
<path d="M107.863 7.29897V24.0385L91.6425 7.29897H83.2V34.6768H90.8999V16.6856L108.567 34.6768H115.563V7.29897H107.863Z" fill="white"/>
<path d="M129.837 28.5754V23.7256H147.074V17.8981H129.837V13.4003H150.748V7.29897H121.98V34.6768H151.178V28.5754H129.837Z" fill="white"/>
<path d="M171.639 35.5763C182.466 35.5763 189.501 30.2572 189.501 20.9879C189.501 11.7185 182.466 6.39941 171.639 6.39941C160.812 6.39941 153.816 11.7185 153.816 20.9879C153.816 30.2572 160.812 35.5763 171.639 35.5763ZM171.639 29.0839C165.62 29.0839 161.906 26.1505 161.906 20.9879C161.906 15.8252 165.659 12.8919 171.639 12.8919C177.658 12.8919 181.371 15.8252 181.371 20.9879C181.371 26.1505 177.658 29.0839 171.639 29.0839Z" fill="white"/>
<path d="M219.014 7.29897V24.0385L202.793 7.29897H194.35V34.6768H202.05V16.6856L219.717 34.6768H226.714V7.29897H219.014Z" fill="white"/>
<defs>
<linearGradient id="paint0_linear_1950_8993" x1="63.9588" y1="64" x2="7.67831" y2="0.0359881" gradientUnits="userSpaceOnUse">
<stop stop-color="#B9FFB3"/>
<stop offset="1" stop-color="#B9FFB3" stop-opacity="0"/>
</linearGradient>
<linearGradient id="paint1_linear_1950_8993" x1="63.9588" y1="64" x2="25.963" y2="49.2303" gradientUnits="userSpaceOnUse">
<stop stop-color="#1A1A1A" stop-opacity="0.9"/>
<stop offset="1" stop-color="#1A1A1A" stop-opacity="0"/>
</linearGradient>
</defs>
</svg>
