<svg width="108" height="32" viewBox="0 0 108 32" fill="none" xmlns="http://www.w3.org/2000/svg">
<path fill-rule="evenodd" clip-rule="evenodd" d="M29.1121 1.04995C29.3056 0.755715 29.7385 0.717187 29.9715 0.98354C31.7487 3.01603 32.3006 8.52158 31.3836 11.2814C31.0789 12.199 30.9932 13.1687 31.1688 14.1105C31.3478 15.0453 31.5262 16.1741 31.5262 16.9601C31.5262 25.028 24.7587 31.5722 16.4071 31.5724C8.05876 31.5724 1.28695 25.0316 1.28695 16.9601C1.28699 16.1741 1.46622 15.0453 1.64535 14.1105C1.82443 13.1688 1.74186 12.1989 1.43734 11.2814C0.520192 8.52506 1.07137 3.01951 2.84847 0.98354C3.08136 0.720428 3.51536 0.755641 3.70882 1.04995L5.89827 4.37026C6.44293 5.03145 7.41743 5.18773 8.14827 4.72377C10.5237 3.22108 13.361 2.34784 16.41 2.3478C19.4591 2.3478 22.2972 3.22099 24.6727 4.72377C25.4073 5.18753 26.3817 5.035 26.9227 4.37026L29.1121 1.04995ZM16.41 5.68569C14.6187 5.68572 12.9206 6.07418 11.4051 6.77358C7.62516 8.50485 4.95155 12.1368 4.71859 16.3888C4.70783 16.5897 4.70101 16.7909 4.70101 16.9953C4.70112 23.2348 9.95067 28.3107 16.4071 28.3107C22.8634 28.3105 28.1153 23.2342 28.119 16.9982C28.119 16.7975 28.1122 16.5934 28.1014 16.3927C27.8685 12.1441 25.1958 8.50782 21.4159 6.77651C19.8966 6.0736 18.2015 5.68569 16.41 5.68569ZM61.3553 25.1388H58.2166L57.5643 21.7042H53.8201L53.2225 25.1388H50.1014L53.5448 8.6017H57.7469L61.3553 25.1388ZM68.4588 8.6017C70.4111 8.60184 71.3856 9.46772 71.3856 11.1955V13.5011H68.2401V11.6144C68.2401 11.334 68.186 11.147 68.0789 11.0499C67.9714 10.953 67.7706 10.9044 67.4803 10.9044H66.4491C66.1409 10.9044 65.9323 10.953 65.825 11.0499C65.7175 11.1469 65.6639 11.334 65.6639 11.6144V14.9415C65.6639 15.2219 65.7175 15.409 65.825 15.506C65.9323 15.603 66.1409 15.6515 66.4491 15.6515H68.5907C70.4895 15.6515 71.4393 16.5069 71.4393 18.2208V22.546C71.4392 24.2771 70.454 25.1388 68.4832 25.1388H65.5526C63.5823 25.1388 62.5966 24.2736 62.5965 22.546V20.2638H65.7137V22.1232C65.7137 22.4034 65.7674 22.5906 65.8748 22.6876C65.9824 22.7845 66.1907 22.8331 66.4989 22.8331H67.5301C67.8203 22.8331 68.0174 22.7844 68.1287 22.6876C68.2397 22.5907 68.2967 22.4036 68.2967 22.1232V18.5841C68.2967 18.3038 68.2431 18.1166 68.1356 18.0197C68.0279 17.923 67.8276 17.8742 67.5379 17.8742H65.3416C63.4783 17.8742 62.5467 17.0017 62.5467 15.2531V11.1955C62.5467 9.46415 63.5209 8.60174 65.4735 8.6017H68.4588ZM41.9491 15.7755H45.4744V8.59389H48.5955V25.131H45.4744V18.0851H41.9491V25.1349H38.828V8.59389H41.9491V15.7755ZM91.7606 8.59389C93.7311 8.59391 94.7166 9.45979 94.7166 11.1876V16.09C94.7166 17.5235 94.0572 18.3617 92.7352 18.6076L95.5838 25.1349H92.2196L89.6141 18.6876H88.5858V25.1349H85.4686V8.59389H91.7606ZM76.8006 22.1193C76.8007 22.3994 76.8543 22.5858 76.9618 22.6828C77.069 22.7798 77.2701 22.8283 77.5604 22.8283H78.9969C79.3049 22.8282 79.5128 22.7797 79.62 22.6828C79.7273 22.5858 79.781 22.3993 79.7811 22.1193V8.59389H82.8983V22.5382C82.8981 24.2692 81.9126 25.131 79.9422 25.131H76.6356C74.6652 25.131 73.6797 24.2658 73.6795 22.5382V8.59389H76.8006V22.1193ZM107.301 25.131H104.159L103.507 21.6964H99.7625L99.1639 25.131H96.0467L99.4901 8.59389H103.693L107.301 25.131ZM15.6336 12.0001C15.7518 12.0001 15.8627 12.059 15.9237 12.1593L18.4891 16.339L21.4813 21.3527C21.5422 21.4531 21.5423 21.578 21.4813 21.6749C21.4241 21.7753 21.3128 21.8369 21.1912 21.8371H18.7577C18.6395 21.8369 18.5285 21.7753 18.4676 21.6749L16.87 18.9982L15.0887 21.6847C15.0278 21.7783 14.9201 21.8341 14.8055 21.8341H12.3377C12.2123 21.8341 12.0972 21.768 12.0399 21.6642C11.9826 21.5604 11.9865 21.4326 12.0545 21.3322L15.3465 16.4777L12.8924 12.4914C12.8318 12.391 12.8287 12.2664 12.8895 12.1662C12.9503 12.0626 13.0609 12.0003 13.1825 12.0001H15.6336ZM54.2293 19.422H57.1307L55.6405 11.507L54.2293 19.422ZM100.175 19.4142H103.076L101.586 11.4992L100.175 19.4142ZM88.5858 16.4572H90.8358C91.126 16.4572 91.3235 16.4086 91.4344 16.3117C91.5419 16.2147 91.5955 16.0275 91.5955 15.7472V11.6095C91.5955 11.3292 91.542 11.142 91.4344 11.0451C91.3268 10.9482 91.1259 10.8996 90.8358 10.8996H88.5858V16.4572Z" fill="white"/>
</svg>
