<svg width="119" height="26" viewBox="0 0 119 26" fill="none" xmlns="http://www.w3.org/2000/svg">
<path d="M59.2111 6.4C54.5763 6.4 51.2346 9.28 51.2346 13.6C51.2346 17.92 54.9961 20.8 59.6309 20.8C62.4311 20.8 64.8997 19.744 66.4278 17.964L63.2162 16.196C62.3681 17.08 61.0793 17.596 59.6309 17.596C57.62 17.596 55.9113 16.596 55.2774 14.996H67.0407C67.1331 14.548 67.1877 14.084 67.1877 13.596C67.1877 9.28 63.8459 6.4 59.2111 6.4ZM55.2396 12.2C55.7644 10.604 57.2002 9.6 59.2069 9.6C61.2178 9.6 62.6536 10.604 63.1742 12.2H55.2396ZM104.417 6.4C99.7823 6.4 96.4406 9.28 96.4406 13.6C96.4406 17.92 100.202 20.8 104.837 20.8C107.637 20.8 110.106 19.744 111.634 17.964L108.422 16.196C107.574 17.08 106.285 17.596 104.837 17.596C102.826 17.596 101.117 16.596 100.483 14.996H112.247C112.339 14.548 112.394 14.084 112.394 13.596C112.394 9.28 109.052 6.4 104.417 6.4ZM100.45 12.2C100.975 10.604 102.41 9.6 104.417 9.6C106.428 9.6 107.864 10.604 108.384 12.2H100.45ZM84.0643 13.6C84.0643 16 85.71 17.6 88.2625 17.6C89.9922 17.6 91.2894 16.852 91.9569 15.632L95.1811 17.404C93.8461 19.524 91.344 20.8 88.2625 20.8C83.6235 20.8 80.286 17.92 80.286 13.6C80.286 9.28 83.6277 6.4 88.2625 6.4C91.344 6.4 93.8419 7.676 95.1811 9.796L91.9569 11.568C91.2894 10.348 89.9922 9.6 88.2625 9.6C85.7142 9.6 84.0643 11.2 84.0643 13.6ZM118.691 2V20.4H114.913V2H118.691ZM15.5123 0L31.0245 25.6H0L15.5123 0ZM54.295 2L42.6619 21.2L31.0287 2H35.3907L42.6619 14L49.9331 2H54.295ZM79.0265 6.8V10.676C78.6067 10.56 78.1617 10.48 77.6831 10.48C75.244 10.48 73.4849 12.08 73.4849 14.48V20.4H69.7066V6.8H73.4849V10.48C73.4849 8.448 75.966 6.8 79.0265 6.8Z" fill="white"/>
</svg>
