<svg width="24" height="24" viewBox="0 0 24 24" fill="none" xmlns="http://www.w3.org/2000/svg">
<path d="M21.9016 3H2.10156V10.2H21.9016V3Z" stroke="#00E599" stroke-miterlimit="10" stroke-linecap="square"/>
<path d="M21.9016 13.7969H2.10156V20.9969H21.9016V13.7969Z" stroke="#00E599" stroke-miterlimit="10" stroke-linecap="square"/>
<path d="M9.30312 6.59375H5.70312" stroke="#00E599" stroke-miterlimit="10" stroke-linecap="square"/>
<path d="M9.30312 17.4062H5.70312" stroke="#00E599" stroke-miterlimit="10" stroke-linecap="square"/>
<path d="M18.3066 6.20312C18.5274 6.20334 18.7061 6.38273 18.7061 6.60352C18.7058 6.82412 18.5272 7.00272 18.3066 7.00293C18.0859 7.00293 17.9065 6.82425 17.9062 6.60352C17.9062 6.3826 18.0857 6.20312 18.3066 6.20312Z" fill="#212121" stroke="#00E599"/>
<path d="M18.3066 17C18.5274 17.0002 18.7061 17.1796 18.7061 17.4004C18.7058 17.621 18.5272 17.7996 18.3066 17.7998C18.0859 17.7998 17.9065 17.6211 17.9062 17.4004C17.9062 17.1795 18.0857 17 18.3066 17Z" fill="#212121" stroke="#00E599"/>
</svg>
