<svg width="16" height="16" viewBox="0 0 16 16" fill="none" xmlns="http://www.w3.org/2000/svg">
<path d="M11.5 3.5H15.5" stroke="currentColor" stroke-linecap="round" stroke-linejoin="round"/>
<path d="M7.5 1.5H11.5V5.5H7.5C6.96957 5.5 6.46086 5.28929 6.08579 4.91421C5.71071 4.53914 5.5 4.03043 5.5 3.5C5.5 2.96957 5.71071 2.46086 6.08579 2.08579C6.46086 1.71071 6.96957 1.5 7.5 1.5Z" stroke="currentColor" stroke-linecap="round" stroke-linejoin="round"/>
<path d="M4.5 15.5H12.5C13.2956 15.5 14.0587 15.1839 14.6213 14.6213C15.1839 14.0587 15.5 13.2956 15.5 12.5C15.5 11.7044 15.1839 10.9413 14.6213 10.3787C14.0587 9.81607 13.2956 9.5 12.5 9.5H3.5C2.70435 9.5 1.94129 9.18393 1.37868 8.62132C0.81607 8.05871 0.5 7.29565 0.5 6.5C0.5 5.70435 0.81607 4.94129 1.37868 4.37868C1.94129 3.81607 2.70435 3.5 3.5 3.5" stroke="currentColor" stroke-linecap="round" stroke-linejoin="round"/>
</svg>
