<svg width="18" height="18" viewBox="0 0 18 18" fill="none" stroke="#ffffff" xmlns="http://www.w3.org/2000/svg">
<path d="M4.85881 7.54688C4.71335 7.98324 4.64062 8.49233 4.64062 9.00142" stroke-width="0.8" stroke-linecap="round" stroke-linejoin="round"/>
<path d="M13.3651 9.00035C13.3651 6.60035 11.4014 4.63672 9.00142 4.63672C8.49233 4.63672 7.98324 4.70945 7.54688 4.8549" stroke-width="0.8" stroke-linecap="round" stroke-linejoin="round"/>
<path d="M7.98537 7.98146L5.36719 5.36328" stroke-width="0.8" stroke-linecap="round" stroke-linejoin="round"/>
<path d="M9.00142 10.456C9.80474 10.456 10.456 9.80474 10.456 9.00142C10.456 8.1981 9.80474 7.54688 9.00142 7.54688C8.1981 7.54688 7.54688 8.1981 7.54688 9.00142C7.54688 9.80474 8.1981 10.456 9.00142 10.456Z" stroke-width="0.8" stroke-linecap="round" stroke-linejoin="round"/>
<path d="M9 17C13.4183 17 17 13.4183 17 9C17 4.58172 13.4183 1 9 1C4.58172 1 1 4.58172 1 9C1 13.4183 4.58172 17 9 17Z" stroke-width="0.8" stroke-linecap="round" stroke-linejoin="round"/>
</svg>
