<svg width="59" height="28" viewBox="0 0 59 28" fill="none" xmlns="http://www.w3.org/2000/svg">
<g clip-path="url(#clip0_3956_9194)">
<path d="M44.7564 25.3061C44.6335 25.3363 44.5189 25.3929 44.4207 25.4719C43.9067 25.8212 43.2948 26.0016 42.6716 25.9877C42.0204 25.8877 41.4197 25.581 40.9597 25.1138L40.2303 24.503L40.0479 24.3482L38.9315 23.3962C38.6114 23.1467 38.048 22.7567 37.2412 22.2261C37.7718 22.0926 38.2894 21.9126 38.7878 21.6882C39.2434 21.4832 39.6775 21.2342 40.0837 20.9448C41.4252 19.917 42.4578 18.546 43.0698 16.9798C43.7467 15.3489 44.1139 13.6083 44.1528 11.8455C44.1587 11.6598 44.161 11.4771 44.161 11.2848C44.161 8.05445 43.3755 5.42638 41.8045 3.40055C40.2869 1.38471 37.8558 0.248368 35.3192 0.369264C32.7826 0.49016 30.4729 1.85244 29.158 4.00329C27.8014 6.25104 27.1232 8.8363 27.2035 11.4535C27.2035 11.5824 27.2035 11.7121 27.2072 11.8403C27.183 15.0736 28.46 18.1833 30.756 20.4828C30.3914 20.6912 30.0833 20.9843 29.8584 21.3368L29.4483 21.2284C28.5543 20.9407 27.788 20.3564 27.2787 19.5742L21.5311 11.8374L21.0287 11.161C20.8678 10.9787 20.7675 10.7518 20.7414 10.5111C20.7825 10.3231 20.8779 10.1511 21.0161 10.0159L25.1165 5.23234C27.1558 2.86904 28.5365 1.56876 29.2585 1.3315C29.5183 1.32367 29.7466 1.15901 29.8338 0.916657C29.8361 0.828022 29.7987 0.742918 29.7317 0.684101C29.6647 0.625285 29.5749 0.598754 29.4863 0.611604C29.3605 0.621138 29.236 0.642104 29.1141 0.674236C28.7834 0.716074 28.45 0.732088 28.1167 0.72213L27.2146 0.737604L26.1071 0.695604C25.7297 0.697802 25.3525 0.679106 24.9773 0.639604C24.8698 0.623876 24.7614 0.614526 24.6528 0.611604C24.5595 0.590995 24.4618 0.614722 24.3888 0.675743C24.3158 0.736763 24.2757 0.828066 24.2806 0.922552C24.2806 1.10971 24.463 1.23792 24.8254 1.30718C25.3098 1.34101 25.6865 1.73795 25.6903 2.21866C25.545 3.05441 25.1266 3.81985 24.4994 4.3975L19.3518 10.3482L19.1724 10.5339L18.9804 10.7034C18.9097 10.7034 18.8732 10.5951 18.8732 10.377V4.31792C18.8348 3.60544 18.902 2.89122 19.0727 2.19803C19.2671 1.77646 19.6078 1.4379 20.0329 1.24381C20.1908 1.19205 20.3043 1.05446 20.3239 0.890867C20.3378 0.811674 20.3113 0.730779 20.2531 0.674754C20.1949 0.618729 20.1124 0.594815 20.0329 0.610867C19.8394 0.62752 19.6468 0.653834 19.456 0.689709C19.2774 0.703709 19.0705 0.710341 18.8308 0.710341L17.928 0.750131L17.4814 0.770025C16.837 0.784139 16.1925 0.748911 15.5536 0.664657C15.411 0.632251 15.2653 0.614473 15.119 0.611604C15.0303 0.598386 14.9405 0.627137 14.8764 0.689258C14.8124 0.751378 14.7814 0.839665 14.793 0.927709C14.8065 1.09435 14.9383 1.22766 15.1063 1.24455L15.6951 1.39855C16.17 1.50482 16.5641 1.83128 16.7535 2.27539C16.981 3.02708 17.0747 3.81223 17.0303 4.59571V11.844V17.7903C17.0742 18.7208 16.9738 19.6524 16.7326 20.5528C16.6932 20.6647 16.6434 20.7727 16.5838 20.8755C16.457 20.799 16.3437 20.7027 16.2481 20.5903C15.8219 19.8665 15.5073 19.0837 15.3147 18.2678L15.0505 17.4337L13.3498 11.844L9.88428 0.458341C9.87927 0.258734 9.75278 0.0819631 9.56422 0.0110779C9.3688 0.0868548 9.23494 0.267279 9.22036 0.474552L5.23684 11.844L3.05157 18.0711L2.7077 19.0887C2.53056 19.5644 2.30616 20.0215 2.03782 20.4533C1.89152 20.754 1.66859 21.0117 1.39102 21.2012L0.944442 21.3707C0.815787 21.422 0.733786 21.5481 0.739759 21.6853V21.7111C0.730806 21.7961 0.76289 21.8804 0.826326 21.9384C0.889763 21.9964 0.977123 22.0214 1.06204 22.0058C1.10223 22.0058 1.32478 21.9719 1.73192 21.9041C1.9111 21.8849 2.09131 21.8765 2.27154 21.8791C2.7732 21.8791 3.21531 21.8894 3.59565 21.9108L4.74337 21.9903C4.92721 22.0007 5.06342 22.0065 5.1505 22.0065C5.38124 22.0065 5.49139 21.9189 5.48544 21.7435C5.48419 21.7254 5.4817 21.7075 5.478 21.6897C5.43393 21.5191 5.28784 21.3932 5.11106 21.3736C4.69473 21.2939 4.30853 21.1024 3.9946 20.8202C3.77889 20.5156 3.67873 20.1453 3.71176 19.7747C3.77481 18.9833 3.95616 18.2055 4.2499 17.4669L5.04481 15.2062C5.15678 14.7639 5.35197 14.3464 5.62016 13.9757C5.9626 13.8107 6.34573 13.7465 6.72396 13.7908H11.0662C11.3462 13.7557 11.6305 13.8012 11.885 13.9219C12.075 14.222 12.2091 14.5535 12.2809 14.9004L12.8846 16.9349C13.255 17.9875 13.502 19.0788 13.6207 20.1873C13.7113 20.6367 13.4539 21.0835 13.017 21.2351L12.6449 21.3427C12.4754 21.3631 12.3478 21.5052 12.3472 21.6742V21.6897C12.3351 21.7754 12.3638 21.8618 12.4247 21.9237C12.4857 21.9857 12.5722 22.0163 12.659 22.0065C12.7851 21.999 12.9099 21.9778 13.0312 21.9432C13.7222 21.8561 14.4191 21.8243 15.1152 21.8481C15.6898 21.8481 16.2131 21.8415 16.6388 21.843C16.9522 21.8555 20.1207 21.9844 20.373 22.0228C20.6931 22.0626 20.9104 22.0883 21.022 22.1016C21.1053 22.118 21.1912 22.091 21.2497 22.0302C21.3082 21.9694 21.3313 21.8832 21.3108 21.8017C21.3094 21.7635 21.3014 21.7259 21.287 21.6904C21.2185 21.5674 21.0939 21.485 20.9528 21.4694C20.2977 21.4091 19.6898 21.1062 19.2506 20.6213C18.9344 19.8815 18.8066 19.0761 18.8784 18.2759V12.6258C18.8784 12.3893 18.9529 12.2707 19.1017 12.2707C19.2213 12.281 19.3302 12.343 19.3995 12.4401L19.6294 12.7798L26.0662 21.3124L26.2701 21.6006C26.2947 21.6308 26.317 21.6602 26.3401 21.6868C26.4922 21.8825 26.7263 21.9989 26.9757 22.0029C27.1045 22.0029 27.2868 21.9918 27.5258 21.9704C27.7411 21.9498 28.0885 21.9395 28.5678 21.9395C29.0062 21.9395 29.3121 21.9483 29.4952 21.9646L29.4632 22.0323C29.0973 22.7655 28.8894 23.5659 28.8529 24.3829C28.8529 24.4241 28.8529 24.4624 28.8529 24.4986C28.8327 24.5891 28.8543 24.684 28.9118 24.7572C28.9694 24.8304 29.0569 24.8744 29.1506 24.8773C29.3173 24.8277 29.427 24.6704 29.4148 24.4986C29.4267 24.4448 29.4364 24.3851 29.4453 24.3202C29.5127 23.6489 29.7708 23.0103 30.1896 22.4781C30.4906 22.0303 30.9869 21.7489 31.5294 21.7184C32.4993 21.8936 33.407 22.3142 34.1642 22.9394L36.1731 24.3143C36.2257 24.3517 36.3113 24.4133 36.4299 24.4993C36.7673 24.7449 37.3677 25.1927 38.2311 25.8426C39.1752 26.6746 40.3618 27.1886 41.6199 27.3103C42.4002 27.2915 43.1635 27.0813 43.8416 26.6988C44.6123 26.2915 44.9894 25.9017 44.973 25.5294C44.9831 25.4693 44.9639 25.4079 44.9213 25.364C44.8786 25.32 44.8175 25.2986 44.7564 25.3061ZM10.7328 12.3031H7.11026L6.78648 12.2883C6.41731 12.2883 6.23272 12.155 6.23272 11.8882C6.23325 11.8734 6.23475 11.8587 6.23719 11.844C6.27135 11.6653 6.32244 11.4901 6.38977 11.3209L8.72912 4.66571C8.73489 4.54041 8.80823 4.42785 8.92115 4.37097C9.10442 4.47746 9.22154 4.66785 9.23301 4.87792L9.32902 5.20066L11.2121 11.287L11.2724 11.564C11.2959 11.6558 11.3143 11.7488 11.3275 11.8426C11.33 11.867 11.3313 11.8916 11.3312 11.9162C11.3319 12.1749 11.134 12.3031 10.7328 12.3031ZM29.1684 11.844C29.1188 11.2776 29.094 10.6906 29.094 10.083C28.9927 7.8485 29.5625 5.63441 30.7315 3.72034C31.6085 2.2116 33.2313 1.27989 34.9896 1.2755C37.0603 1.2755 38.8191 2.39378 40.266 4.63034C41.6193 6.8023 42.3619 9.29271 42.417 11.844C42.4319 12.152 42.4386 12.4644 42.4386 12.782C42.5418 14.9834 41.9744 17.1647 40.8101 19.043C39.9116 20.5322 38.2855 21.4411 36.5333 21.4333C34.6891 21.371 32.9743 20.4796 31.8755 19.012C30.2323 16.965 29.2848 14.4562 29.1684 11.844ZM58.2983 21.6846C58.2997 21.4842 58.1416 21.3183 57.9395 21.308C57.3734 21.2309 56.8459 20.9799 56.4315 20.5903C56.004 19.8671 55.689 19.0841 55.4974 18.2678L55.2317 17.4337L53.531 11.844L50.0655 0.458341C50.0613 0.258467 49.9345 0.0812921 49.7455 0.0110779C49.5507 0.087042 49.4175 0.267107 49.4031 0.473815L45.4188 11.844L43.2365 18.0711L42.8882 19.0887C42.7111 19.5644 42.4867 20.0215 42.2183 20.4533C42.0724 20.7545 41.8491 21.0124 41.5708 21.2012L41.1242 21.3707C40.996 21.4221 40.9149 21.5485 40.9225 21.6853C40.9225 21.6941 40.9225 21.7022 40.9225 21.7111C40.9135 21.7961 40.9456 21.8804 41.0091 21.9384C41.0725 21.9964 41.1599 22.0214 41.2448 22.0058C41.2842 22.0058 41.5075 21.9719 41.9146 21.9041C42.0931 21.8848 42.2726 21.8764 42.452 21.8791C42.9544 21.8791 43.3951 21.8894 43.7784 21.9108L44.9254 21.9903C45.1099 22.0007 45.2439 22.0065 45.3317 22.0065C45.5632 22.0065 45.6756 21.9189 45.6667 21.7435C45.6665 21.7255 45.6647 21.7075 45.6615 21.6897C45.6172 21.5192 45.4712 21.3934 45.2945 21.3736C44.8784 21.2933 44.4924 21.1019 44.1781 20.8202C43.9634 20.5151 43.8636 20.1451 43.896 19.7747C43.9592 18.9834 44.1403 18.2057 44.4334 17.4669L45.2283 15.2062C45.3401 14.7639 45.5353 14.3464 45.8036 13.9757C46.1461 13.8109 46.5292 13.7467 46.9074 13.7908H51.2504C51.5292 13.7562 51.8121 13.8018 52.0655 13.9219C52.2562 14.2217 52.3903 14.5532 52.4614 14.9004L53.0688 16.9319C53.4389 17.9846 53.6854 19.0759 53.8034 20.1843C53.8942 20.6333 53.6375 21.08 53.2013 21.2321L52.8291 21.3397C52.6595 21.3598 52.5317 21.5021 52.5314 21.6713V21.6868C52.5191 21.7722 52.5474 21.8584 52.6082 21.9203C52.6689 21.9821 52.7552 22.0126 52.8418 22.0029C52.9678 21.9954 53.0926 21.9741 53.2139 21.9395C53.9049 21.8524 54.6018 21.8206 55.298 21.8444C56.3601 21.8444 57.0999 21.8666 57.5145 21.9122C57.746 21.9307 57.8986 21.9402 57.9708 21.9402C58.0499 21.9577 58.1329 21.9397 58.1973 21.8909C58.2618 21.8422 58.3012 21.7677 58.305 21.6875L58.2983 21.6846ZM50.9148 12.3031H47.29L46.967 12.2883C46.5988 12.2883 46.4145 12.155 46.414 11.8882C46.4141 11.8737 46.4154 11.8591 46.4177 11.8448C46.4518 11.6659 46.5032 11.4908 46.571 11.3216L48.9104 4.66645C48.9164 4.54145 48.9893 4.42914 49.1016 4.37171C49.2852 4.47779 49.4023 4.66848 49.4128 4.87866L49.5095 5.20139L51.3919 11.2877L51.4529 11.5648C51.4763 11.6565 51.4944 11.7495 51.5072 11.8433C51.5107 11.8677 51.5127 11.8923 51.5132 11.917C51.5147 12.1744 51.3147 12.3031 50.9148 12.3031Z" fill="white"/>
</g>
<defs>
<clipPath id="clip0_3956_9194">
<rect width="58.8" height="28" fill="white"/>
</clipPath>
</defs>
</svg>
