<svg width="101" height="28" viewBox="0 0 101 28" fill="none" xmlns="http://www.w3.org/2000/svg">
<g clip-path="url(#clip0_5863_1575)">
<path fill-rule="evenodd" clip-rule="evenodd" d="M51.8391 13.1046C51.8558 13.389 51.8725 13.6902 51.8725 13.9914C51.8725 16.8862 50.7514 19.5133 48.9108 21.3874C47.0701 23.295 44.51 24.4663 41.6152 24.4663C39.7411 24.4663 37.9841 24.0145 36.4948 23.2281C34.9889 22.4416 33.7339 21.3205 32.8136 19.9484C31.8431 21.3372 30.5881 22.4583 29.0988 23.2448C27.6096 24.0312 25.8861 24.4663 24.012 24.4663C22.4056 24.4663 20.9163 24.1316 19.5777 23.5293C18.2391 22.9269 17.0677 22.0567 16.0972 20.9858C15.5618 21.8894 14.792 22.6591 13.8215 23.1946C12.851 23.7301 11.6797 24.048 10.3745 24.048H0V13.9914V3.90137H4.70199H9.42072C10.9267 3.90137 12.2653 4.30296 13.3195 5.00575C14.3737 5.6918 15.1434 6.67906 15.5116 7.83364C16.4653 6.52846 17.7203 5.44081 19.1928 4.67109C20.6654 3.90137 22.3554 3.46631 24.1626 3.46631C25.3339 3.46631 26.455 3.6169 27.4757 3.9181C28.4964 4.21929 29.4335 4.67109 30.2701 5.25674L29.1658 6.99699L28.0614 8.73723C27.5259 8.33563 26.9235 8.0177 26.2709 7.81691C25.6183 7.61611 24.9156 7.49898 24.1458 7.48224C22.3052 7.49898 20.6654 8.25196 19.4773 9.44001C18.2893 10.6281 17.553 12.2344 17.553 13.9579C17.553 15.7149 18.2893 17.338 19.4773 18.5261C20.6821 19.7141 22.3219 20.4671 24.1458 20.4671C25.0327 20.4671 25.8526 20.2998 26.6223 19.9818C27.3921 19.6639 28.0781 19.1787 28.714 18.5428C30.0735 17.1982 30.4193 15.5467 30.7994 13.7314C30.845 13.5136 30.8911 13.2934 30.9395 13.0711C31.3745 11.0129 32.0104 8.75396 34.2359 6.52846C35.1729 5.59141 36.294 4.83842 37.549 4.3197C38.804 3.80097 40.2263 3.51651 41.7992 3.51651C42.9705 3.51651 44.0917 3.66711 45.1124 3.98503C46.1498 4.28623 47.0869 4.75475 47.9235 5.34041L46.8359 7.08065L45.7482 8.82089C45.2128 8.4193 44.6104 8.08463 43.9411 7.8671C43.2717 7.63284 42.5522 7.51571 41.7825 7.51571C40.0088 7.51571 38.4024 8.25197 37.2478 9.42328C36.0765 10.5946 35.3737 12.201 35.3737 13.9579C35.3737 15.7484 36.0765 17.3715 37.2311 18.5595C38.3857 19.7476 39.9586 20.4838 41.7323 20.4838C43.1546 20.4838 44.3761 20.0153 45.3466 19.2456C46.3172 18.4759 47.0367 17.3882 47.4048 16.1165H41.1299L42.3682 14.1755L43.6064 12.2344H47.6725H51.7387C51.7493 12.3246 51.7616 12.4165 51.7739 12.5089C51.8006 12.7082 51.8276 12.9103 51.8391 13.1046ZM4.36733 7.66631V12.0671H6.86056H9.33706C9.95618 12.0671 10.5251 11.8328 10.9267 11.4313C11.3283 11.0464 11.5793 10.4942 11.5793 9.85834C11.5793 9.22248 11.3283 8.67029 10.9267 8.28543C10.5251 7.90057 9.97292 7.66631 9.33706 7.66631H4.36733ZM4.36733 15.7484V20.3165V20.3332H7.34582H10.3243C10.9936 20.3332 11.5793 20.0822 12.0144 19.6639C12.4494 19.2456 12.7171 18.6767 12.7171 18.0241C12.7171 17.3715 12.4494 16.8026 12.0144 16.401C11.5793 15.9994 10.9936 15.7484 10.3243 15.7484H4.36733ZM61.8106 21.739C61.8106 21.6888 61.8106 21.6386 61.7939 21.6051L60.0035 21.5549L59.8027 21.8729L59.6019 22.1908H61.1246C61.0576 22.5422 60.9071 22.8601 60.6561 23.0776C60.4051 23.2952 60.0704 23.429 59.6521 23.429C59.2003 23.429 58.8154 23.245 58.5309 22.9438C58.2465 22.6426 58.0792 22.2242 58.0792 21.7557C58.0792 21.2705 58.2632 20.8521 58.5477 20.5677C58.8321 20.2832 59.2337 20.0991 59.6855 20.0991C59.8863 20.0991 60.0704 20.1326 60.2377 20.1828C60.4051 20.233 60.5724 20.3167 60.723 20.4338L60.9071 20.1493L61.0911 19.8649C60.8903 19.7143 60.6728 19.6139 60.4385 19.547C60.2043 19.48 59.9533 19.4466 59.6855 19.4466C59.0329 19.4466 58.4473 19.7143 58.029 20.1326C57.6106 20.5509 57.3429 21.1366 57.3429 21.7892C57.3429 22.4418 57.5939 23.0274 58.0122 23.4458C58.4306 23.8808 59.0162 24.1318 59.6521 24.1318C60.2879 24.1318 60.8401 23.8976 61.225 23.496C61.6098 23.0944 61.8274 22.5422 61.8274 21.9063C61.8274 21.8812 61.8232 21.8519 61.819 21.8227C61.8148 21.7934 61.8106 21.7641 61.8106 21.739ZM71.0306 23.4792C70.5955 23.8976 70.0098 24.1653 69.3573 24.1653C68.7047 24.1653 68.119 23.8976 67.7007 23.4792C67.2824 23.0609 67.0146 22.4752 67.0146 21.8394C67.0146 21.2035 67.2824 20.6179 67.7007 20.1995C68.119 19.7812 68.7047 19.5135 69.3573 19.5135C70.0098 19.5135 70.6122 19.7812 71.0306 20.1995C71.4489 20.6179 71.7166 21.2035 71.7166 21.8394C71.7166 22.4752 71.4489 23.0609 71.0306 23.4792ZM73.4067 22.3414V19.5972H72.6871V22.3414C72.6871 22.8768 72.8879 23.3286 73.2226 23.6466C73.5573 23.9645 74.009 24.1653 74.5445 24.1653C75.08 24.1653 75.5318 23.9645 75.8664 23.6466C76.1843 23.3119 76.3851 22.8601 76.3851 22.3414V19.5972H75.6824V22.3414C75.6824 22.6593 75.5652 22.9605 75.3644 23.1613C75.1636 23.3621 74.8792 23.496 74.5445 23.496C74.2098 23.496 73.9254 23.3621 73.7246 23.1613C73.5238 22.9605 73.4067 22.6593 73.4067 22.3414ZM65.7596 20.0155C65.4919 19.7478 65.107 19.5972 64.6385 19.5972H62.8314V24.0649H63.5509V22.4585H64.4043L64.9063 23.2617L65.4082 24.0649H66.2449L65.7094 23.2115L65.174 22.3581C65.4919 22.2912 65.7429 22.1238 65.9102 21.8896C66.0776 21.6553 66.178 21.3709 66.178 21.0362C66.178 20.6346 66.0274 20.2665 65.7596 20.0155ZM80.5684 20.0155C80.284 19.7645 79.8991 19.5972 79.4306 19.5972H77.6903V24.0649H78.4099V22.5087H79.4306C79.8991 22.5087 80.3007 22.3581 80.5684 22.0904C80.8361 21.8227 80.9867 21.4545 80.9867 21.0529C80.9867 20.6346 80.8361 20.2832 80.5684 20.0155ZM68.2194 23.0107C68.5039 23.3119 68.9055 23.496 69.3573 23.496C69.8258 23.496 70.2274 23.3119 70.5118 23.0107C70.7963 22.7262 70.9804 22.3079 70.9804 21.8394C70.9804 21.3876 70.7963 20.9693 70.5118 20.6681C70.2106 20.3669 69.809 20.1828 69.3573 20.1828C68.9222 20.1828 68.5039 20.3669 68.2194 20.6681C67.9349 20.9693 67.7509 21.3876 67.7509 21.8394C67.7509 22.2912 67.9349 22.7095 68.2194 23.0107ZM80.0162 21.6553C79.8656 21.7892 79.6648 21.8729 79.4306 21.8729H78.4099V20.2665H79.4306C79.6648 20.2665 79.8656 20.3501 80.0162 20.484C80.1668 20.6346 80.2505 20.8187 80.2505 21.0697C80.2505 21.3207 80.1668 21.5215 80.0162 21.6553ZM65.2075 21.6051C65.0569 21.739 64.8728 21.8059 64.6385 21.8059H63.5509V20.2497H64.6385C64.8728 20.2497 65.0736 20.3334 65.2075 20.4673C65.3413 20.6011 65.425 20.8019 65.425 21.0362C65.425 21.2872 65.3413 21.4713 65.2075 21.6051ZM100.38 13.9079C100.38 13.8577 100.38 13.8075 100.364 13.774L98.5732 13.7406L98.3724 14.0585L98.1716 14.3764H99.6943C99.6274 14.7278 99.4768 15.0458 99.2258 15.2633C98.9748 15.4808 98.6401 15.6147 98.2218 15.6147C97.77 15.6147 97.3852 15.4306 97.1007 15.1294C96.8162 14.8282 96.6489 14.4099 96.6489 13.9414C96.6489 13.4729 96.833 13.0545 97.1174 12.7533C97.4019 12.4689 97.8035 12.2848 98.2553 12.2848C98.4561 12.2848 98.6401 12.3183 98.8075 12.3685C98.9748 12.4187 99.1421 12.5023 99.2927 12.6195L99.4768 12.335L99.6609 12.0505C99.4601 11.8999 99.2425 11.7995 99.0083 11.7326C98.774 11.6657 98.523 11.6322 98.2553 11.6322C97.6027 11.6322 97.017 11.8999 96.5987 12.3183C96.1636 12.7366 95.9127 13.3223 95.9127 13.9748C95.9127 14.6274 96.1637 15.2131 96.582 15.6314C97.0003 16.0665 97.5692 16.3175 98.2218 16.3175C98.8577 16.3175 99.4099 16.0665 99.7947 15.6649C100.18 15.2633 100.397 14.7111 100.397 14.0752C100.397 14.0501 100.393 14.0209 100.389 13.9916C100.385 13.9623 100.38 13.933 100.38 13.9079ZM77.2553 14.5103V11.7661H76.5357V14.5103C76.5357 15.0458 76.7365 15.4976 77.0712 15.8155C77.4059 16.1334 77.8577 16.3342 78.3931 16.3342C78.9286 16.3342 79.3804 16.1334 79.715 15.8155C80.033 15.4808 80.2338 15.029 80.2338 14.5103V11.7661H79.531V14.5103C79.531 14.8282 79.4138 15.1294 79.213 15.3302C79.0122 15.531 78.7278 15.6649 78.3931 15.6649C78.0585 15.6649 77.774 15.531 77.5732 15.3302C77.3724 15.1294 77.2553 14.8282 77.2553 14.5103ZM75.08 15.9493C74.8122 16.1836 74.4274 16.3342 73.9254 16.3342C73.574 16.3342 73.2728 16.2673 73.0218 16.1669C72.7541 16.0665 72.5365 15.9326 72.3525 15.7987L72.5365 15.5143L72.7206 15.2298C72.9047 15.347 73.1055 15.4474 73.3063 15.531C73.5071 15.598 73.7079 15.6481 73.9421 15.6481C74.2266 15.6481 74.4441 15.5812 74.578 15.4641C74.7286 15.347 74.7955 15.1796 74.7955 14.9956C74.7955 14.778 74.6951 14.6442 74.5278 14.5438C74.3604 14.4434 74.1095 14.3597 73.825 14.276C73.4736 14.1756 73.1389 14.0585 72.8879 13.8744C72.6369 13.6904 72.4696 13.4227 72.4696 12.9876C72.4696 12.6027 72.6202 12.2681 72.8712 12.0338C73.1222 11.7995 73.5071 11.6657 73.9756 11.6657C74.2433 11.6657 74.4776 11.7159 74.7118 11.7828C74.9294 11.8497 75.1302 11.9501 75.3142 12.084L75.1302 12.3685L74.9461 12.6529C74.7788 12.5358 74.6114 12.4521 74.4441 12.4019C74.2768 12.3517 74.1095 12.3183 73.9421 12.3183C73.6744 12.3183 73.4903 12.3852 73.3565 12.5023C73.2393 12.6195 73.1724 12.7701 73.1724 12.9541C73.1724 13.1717 73.2728 13.3055 73.4401 13.4059C73.5932 13.5131 73.8162 13.5782 74.0709 13.6526C74.0946 13.6595 74.1187 13.6665 74.1429 13.6736C74.1712 13.6831 74.1993 13.6924 74.2273 13.7016C74.5476 13.8076 74.8492 13.9073 75.08 14.092C75.331 14.276 75.4983 14.5605 75.4983 14.9788C75.4983 15.3637 75.3477 15.6984 75.08 15.9493ZM65.8433 15.6481C65.4082 16.0665 64.8226 16.3342 64.17 16.3342C63.5174 16.3342 62.9318 16.0665 62.5134 15.6481C62.0951 15.2298 61.8274 14.6442 61.8274 14.0083C61.8274 13.3557 62.0951 12.7701 62.5134 12.3517C62.9318 11.9334 63.5174 11.6657 64.17 11.6657C64.8226 11.6657 65.4082 11.9334 65.8433 12.3517C66.2616 12.7868 66.5294 13.3725 66.5294 14.0083C66.5294 14.6442 66.2616 15.2298 65.8433 15.6481ZM58.0122 15.6649C57.5939 15.2466 57.3262 14.6609 57.3262 14.0083C57.3262 13.3557 57.5939 12.7701 58.0122 12.3517C58.4473 11.9167 59.0329 11.6657 59.7023 11.6657C60.0202 11.6657 60.2879 11.7159 60.5389 11.7995C60.7899 11.8832 61.0074 12.0171 61.2082 12.1677L61.0242 12.4521L60.8401 12.7366C60.6728 12.6027 60.4887 12.5023 60.3047 12.4354C60.1206 12.3685 59.9198 12.335 59.6855 12.335C59.2505 12.335 58.8489 12.5191 58.5644 12.8203C58.2632 13.1215 58.0959 13.5398 58.0959 14.0083C58.0959 14.4768 58.28 14.8952 58.5644 15.1964C58.8489 15.4976 59.2505 15.6816 59.6855 15.6816C59.9031 15.6816 60.1206 15.6481 60.3047 15.5812C60.4887 15.5143 60.6728 15.4139 60.8401 15.28L61.0242 15.5645L61.2082 15.8489C60.9907 16.0163 60.7899 16.1334 60.5389 16.2171C60.2879 16.3007 60.0202 16.3509 59.7023 16.3509C59.0329 16.3509 58.4473 16.0832 58.0122 15.6649ZM88.9182 16.2338H89.6377V11.7661H88.9182V16.2338ZM91.2274 16.2338H91.8967V12.7868L92.9676 14.5103L94.0385 16.2338H94.8752V11.7661H94.1891V15.1462L93.1517 13.4561L92.1142 11.7661H91.2274V16.2338ZM86.425 12.4354H87.8306V11.7661H84.2999V12.4354H85.6887V16.2338H86.425V12.4354ZM84.4338 15.5645H82.225V11.7661H81.5055V16.2338H84.4338V15.5645ZM67.5501 16.2338H68.2194V12.7868L69.2903 14.5103L70.3612 16.2338H71.1979V11.7661H70.5118V15.1462L69.4744 13.4561L68.4369 11.7661H67.5501V16.2338ZM63.0322 15.1796C63.3166 15.4808 63.7182 15.6649 64.17 15.6649C64.6218 15.6649 65.0234 15.4808 65.3246 15.1796C65.609 14.8952 65.7931 14.4768 65.7931 14.0083C65.7931 13.5565 65.609 13.1382 65.3246 12.837C65.0234 12.5358 64.6218 12.3517 64.17 12.3517C63.7349 12.3517 63.3166 12.5358 63.0322 12.837C62.7477 13.1215 62.5636 13.5398 62.5636 14.0083C62.5636 14.4601 62.7477 14.8784 63.0322 15.1796ZM78.9453 7.80034C78.5102 8.21867 77.9246 8.4864 77.272 8.4864C76.6194 8.4864 76.0338 8.2354 75.6154 7.80034C75.1971 7.38201 74.9294 6.79636 74.9294 6.1605C74.9294 5.50791 75.1971 4.92225 75.6154 4.50392C76.0338 4.0856 76.6194 3.81787 77.272 3.81787C77.9413 3.81787 78.527 4.0856 78.9453 4.50392C79.3636 4.93898 79.6314 5.52464 79.6314 6.1605C79.6314 6.79636 79.3636 7.38201 78.9453 7.80034ZM69.8258 8.10153C69.5581 8.35253 69.1732 8.4864 68.6712 8.4864C68.3198 8.4864 68.0186 8.4362 67.7676 8.31907C67.4999 8.21867 67.2824 8.0848 67.0983 7.95094L67.2824 7.66648L67.4664 7.38201C67.6505 7.49914 67.8513 7.59954 68.0521 7.68321C68.2529 7.75014 68.4537 7.80034 68.6879 7.80034C68.9724 7.80034 69.1899 7.73341 69.3238 7.61627C69.4744 7.49914 69.5413 7.33181 69.5413 7.14775C69.5413 6.93022 69.4409 6.79635 69.2736 6.69596C69.1063 6.59556 68.8553 6.51189 68.5708 6.42823C68.2194 6.32783 67.8847 6.2107 67.6338 6.02663C67.3828 5.84257 67.2154 5.57484 67.2154 5.13978C67.2154 4.75492 67.366 4.42026 67.617 4.186C67.868 3.95173 68.2529 3.81787 68.7214 3.81787C68.9891 3.81787 69.2234 3.86807 69.4577 3.935C69.6752 4.00193 69.876 4.10233 70.06 4.2362L69.876 4.52066L69.6919 4.80512C69.5246 4.68799 69.3573 4.60432 69.1899 4.55413C69.0226 4.50393 68.8553 4.47046 68.6879 4.47046C68.4202 4.47046 68.2361 4.53739 68.1023 4.65452C67.9851 4.77166 67.9182 4.92225 67.9182 5.10631C67.9182 5.32384 68.0186 5.45771 68.1859 5.55811C68.339 5.66525 68.5621 5.73039 68.8167 5.80475C68.8404 5.81169 68.8645 5.8187 68.8887 5.82584C69.2401 5.94297 69.5748 6.0601 69.8258 6.24417C70.0768 6.42823 70.2441 6.71269 70.2441 7.13102C70.2441 7.51588 70.0935 7.85054 69.8258 8.10153ZM65.7094 7.80034C65.2744 8.21867 64.6887 8.4864 64.0361 8.4864C63.3835 8.4864 62.7979 8.2354 62.3796 7.80034C61.9612 7.38201 61.6935 6.79636 61.6935 6.1605C61.6935 5.50791 61.9612 4.92225 62.3796 4.50392C62.7979 4.0856 63.3835 3.81787 64.0361 3.81787C64.7055 3.81787 65.2911 4.0856 65.7094 4.50392C66.1278 4.93898 66.3955 5.52464 66.3955 6.1605C66.3955 6.79636 66.1278 7.38201 65.7094 7.80034ZM82.5764 5.62504L81.5389 3.935L80.6521 3.95173V8.41947H81.3214V4.95572L82.3923 6.67922L83.4632 8.40273H84.2999V3.935H83.6138V7.31508L82.5764 5.62504ZM74.4776 4.60432V3.935H70.9469V4.60432H72.3357V8.40273H73.072V4.60432H74.4776ZM60.3047 4.26966C60.0537 4.06886 59.719 3.935 59.3174 3.935L57.5604 3.90154V8.36926H59.468C59.8863 8.36926 60.2377 8.2354 60.4887 8.00114C60.7397 7.76688 60.8903 7.44895 60.8903 7.08082C60.8903 6.84656 60.8234 6.62902 60.7062 6.44496C60.5891 6.2609 60.4051 6.1103 60.1875 6.0099C60.3549 5.92623 60.472 5.79237 60.5724 5.64177C60.6561 5.49118 60.7062 5.32385 60.7062 5.12305C60.7062 4.78839 60.5557 4.48719 60.3047 4.26966ZM76.1341 7.33182C76.4186 7.63301 76.8202 7.81707 77.272 7.81707C77.7238 7.81707 78.1254 7.64974 78.4266 7.33182C78.711 7.04735 78.8951 6.62903 78.8951 6.1605C78.8951 5.70871 78.711 5.29038 78.4266 4.98919C78.1254 4.68799 77.7238 4.50392 77.272 4.50392C76.8369 4.50392 76.4186 4.68799 76.1341 4.98919C75.8497 5.27365 75.6656 5.70871 75.6656 6.1605C75.6656 6.61229 75.8497 7.03062 76.1341 7.33182ZM62.8983 7.33182C63.1827 7.63301 63.5843 7.81707 64.0361 7.81707C64.4879 7.81707 64.8895 7.64974 65.1907 7.33182C65.4752 7.04735 65.6592 6.62903 65.6592 6.1605C65.6592 5.70871 65.4752 5.29038 65.1907 4.98919C64.8895 4.68799 64.4879 4.50392 64.0361 4.50392C63.6011 4.50392 63.1827 4.68799 62.8983 4.98919C62.6138 5.27365 62.4298 5.70871 62.4298 6.1605C62.4298 6.61229 62.6138 7.03062 62.8983 7.33182ZM59.9365 7.54934C59.8027 7.68321 59.6353 7.75014 59.4345 7.75014L58.28 7.73341V6.42823H59.4345C59.6353 6.42823 59.8027 6.49516 59.9365 6.61229C60.0704 6.72942 60.1373 6.89676 60.1373 7.08082C60.1373 7.26488 60.0537 7.43221 59.9365 7.54934ZM59.7859 5.64177C59.6688 5.75891 59.5015 5.82584 59.3174 5.82584L58.28 5.80911V4.55413H59.3174C59.5015 4.55413 59.6688 4.62106 59.7859 4.73819C59.9031 4.85532 59.97 5.00592 59.97 5.18998C59.97 5.37404 59.9031 5.52464 59.7859 5.64177Z" fill="white"/>
</g>
<defs>
<clipPath id="clip0_5863_1575">
<rect width="101" height="28" fill="white"/>
</clipPath>
</defs>
</svg>
