<svg width="592" height="110" viewBox="30 265 592 110" fill="none" xmlns="http://www.w3.org/2000/svg" fill="white">
	<path class="st0" d="M332,321c0-1.8-0.1-3.6-0.2-5.3c-0.1-1.7-0.4-3.5-0.6-5.2h-24.3h-24.3l-7.4,11.6l-7.4,11.6h37.5
			c-2.2,7.6-6.5,14.1-12.3,18.7c-5.8,4.6-13.1,7.4-21.6,7.4c-10.6,0-20-4.4-26.9-11.5c-6.9-7.1-11.1-16.8-11.1-27.5
			c0-10.5,4.2-20.1,11.2-27.1c6.9-7,16.5-11.4,27.1-11.4c4.6,0,8.9,0.7,12.9,2.1c4,1.3,7.6,3.3,10.8,5.7l6.5-10.4l6.5-10.4
			c-5-3.5-10.6-6.3-16.8-8.1c-6.1-1.9-12.8-2.8-19.8-2.8c-9.4,0-17.9,1.7-25.4,4.8s-14.2,7.6-19.8,13.2
			c-13.3,13.3-17.1,26.8-19.7,39.1c-2.7,12.4-4.2,23.7-13.3,32.7c-3.8,3.8-7.9,6.7-12.5,8.6c-4.6,1.9-9.5,2.9-14.8,2.9
			c-10.9,0-20.7-4.5-27.9-11.6c-7.1-7.1-11.5-16.8-11.5-27.3c0-10.3,4.4-19.9,11.5-27c7.1-7.1,16.9-11.6,27.9-11.7
			c4.6,0.1,8.8,0.8,12.7,2c3.9,1.2,7.5,3.1,10.7,5.5l6.6-10.4l6.6-10.4c-5-3.5-10.6-6.2-16.7-8c-6.1-1.8-12.8-2.7-19.8-2.7
			c-10.8,0-20.9,2.6-29.7,7.2c-8.8,4.6-16.3,11.1-22,18.9c-2.2-6.9-6.8-12.8-13.1-16.9c-6.3-4.2-14.3-6.6-23.3-6.6H50.1H22V321v60.1
			h62c7.8,0,14.8-1.9,20.6-5.1c5.8-3.2,10.4-7.8,13.6-13.2c5.8,6.4,12.8,11.6,20.8,15.2c8,3.6,16.9,5.6,26.5,5.6
			c11.2,0,21.5-2.6,30.4-7.3s16.4-11.4,22.2-19.7c5.5,8.2,13,14.9,22,19.6c8.9,4.7,19.4,7.4,30.6,7.4c17.3,0,32.6-7,43.6-18.4
			C325.3,354,332,338.3,332,321L332,321z M48.1,309.5v-26.3h29.7c3.8,0,7.1,1.4,9.5,3.7c2.4,2.3,3.9,5.6,3.9,9.4s-1.5,7.1-3.9,9.4
			c-2.4,2.4-5.8,3.8-9.5,3.8H63L48.1,309.5L48.1,309.5z M48.1,358.8v-27.3h35.6c4,0,7.5,1.5,10.1,3.9c2.6,2.4,4.2,5.8,4.2,9.7
			c0,3.9-1.6,7.3-4.2,9.8c-2.6,2.5-6.1,4-10.1,4H65.9H48.1L48.1,358.8z"/>
	<path class="st0" d="M391.3,366.5c0.1,0.2,0.1,0.5,0.1,0.8c0,0.3,0.1,0.7,0.1,1c0,3.8-1.3,7.1-3.6,9.5c-2.3,2.4-5.6,3.8-9.4,3.8
			s-7.3-1.5-9.8-4.1c-2.5-2.5-4-6-4-9.9s1.6-7.4,4.1-9.9c2.5-2.5,6-4.1,9.9-4.1c1.6,0,3.1,0.2,4.5,0.6c1.4,0.4,2.7,1,3.9,1.9
			l-1.1,1.7l-1.1,1.7c-0.9-0.7-1.9-1.2-2.9-1.5c-1-0.3-2.1-0.5-3.3-0.5c-2.7,0-5.1,1.1-6.8,2.8s-2.8,4.2-2.8,7.1
			c0,2.8,1,5.3,2.7,7.1c1.7,1.8,4,2.9,6.7,2.9c2.5,0,4.5-0.8,6-2.1c1.5-1.3,2.4-3.2,2.8-5.3h-9.1l1.2-1.9l1.2-1.9L391.3,366.5
			L391.3,366.5z M436.5,381.8c3.9,0,7.4-1.6,10-4.1c2.5-2.5,4.1-6,4.1-9.8c0-3.8-1.6-7.3-4.1-9.8c-2.5-2.5-6.1-4.1-10-4.1
			c-3.9,0-7.4,1.6-9.9,4.1c-2.5,2.5-4.1,6-4.1,9.8c0,3.8,1.6,7.3,4.1,9.8C429.1,380.2,432.6,381.8,436.5,381.8L436.5,381.8z
			 M460.7,354.5v16.4c0,1.9,0.7,3.7,1.9,4.9c1.2,1.2,2.9,2,4.9,2c2,0,3.7-0.8,4.9-2c1.2-1.2,1.9-3,1.9-4.9v-16.4h4.2v16.4
			c0,3.1-1.2,5.8-3.1,7.8c-2,1.9-4.7,3.1-7.9,3.1c-3.2,0-5.9-1.2-7.9-3.1c-2-1.9-3.2-4.6-3.2-7.8v-16.4H460.7L460.7,354.5z
			 M408.3,354.5c2.8,0,5.1,0.9,6.7,2.5c1.6,1.5,2.5,3.7,2.5,6.1c0,2-0.6,3.7-1.6,5.1c-1,1.4-2.5,2.4-4.4,2.8l3.2,5.1l3.2,5.1h-5
			l-3-4.8l-3-4.8h-5.1v9.6h-4.3v-26.7L408.3,354.5L408.3,354.5z M496.7,354.5c2.8,0,5.1,1,6.8,2.5c1.6,1.6,2.5,3.7,2.5,6.2
			c0,2.4-0.9,4.6-2.5,6.2c-1.6,1.6-4,2.5-6.8,2.5h-6.1v9.3h-4.3v-26.7L496.7,354.5L496.7,354.5z M436.5,377.8
			c-2.7,0-5.1-1.1-6.8-2.9c-1.7-1.8-2.8-4.3-2.8-7s1.1-5.2,2.8-7c1.7-1.8,4.2-2.9,6.8-2.9c2.7,0,5.1,1.1,6.9,2.9
			c1.7,1.8,2.8,4.3,2.8,7c0,2.8-1.1,5.3-2.8,7C441.7,376.7,439.3,377.8,436.5,377.8L436.5,377.8z M496.7,368.1
			c1.4,0,2.6-0.5,3.5-1.3c0.9-0.8,1.4-2,1.4-3.5c0-1.5-0.5-2.6-1.4-3.5c-0.9-0.8-2.1-1.3-3.5-1.3h-6.1v9.6L496.7,368.1L496.7,368.1z
			 M408.3,367.7c1.4,0,2.5-0.4,3.4-1.2c0.8-0.8,1.3-1.9,1.3-3.4c0-1.4-0.5-2.6-1.3-3.4c-0.8-0.8-2-1.3-3.4-1.3h-6.5v9.3H408.3
			L408.3,367.7z M621.8,319.7c0.1,0.2,0.1,0.5,0.1,0.8c0,0.3,0.1,0.7,0.1,1c0,3.8-1.3,7.1-3.6,9.5c-2.3,2.4-5.6,3.9-9.4,3.9
			c-3.9,0-7.3-1.5-9.8-4.1c-2.5-2.5-4-6-4-9.9s1.5-7.4,4.1-9.9c2.5-2.5,6-4.1,9.9-4.1c1.6,0,3.1,0.2,4.5,0.6c1.4,0.4,2.7,1,3.9,1.9
			l-1.1,1.7l-1.1,1.7c-0.9-0.7-1.9-1.2-2.9-1.5c-1-0.3-2.1-0.5-3.3-0.5c-2.7,0-5.1,1.1-6.8,2.8c-1.7,1.8-2.8,4.3-2.8,7.1
			c0,2.8,1,5.3,2.7,7.1c1.7,1.8,4,2.9,6.7,2.9c2.5,0,4.5-0.8,6-2.1c1.5-1.3,2.4-3.2,2.8-5.3h-9.1l1.2-1.9l1.2-1.9L621.8,319.7
			L621.8,319.7z M483.7,307.7v16.4c0,1.9,0.7,3.7,1.9,4.9c1.2,1.2,2.9,2,4.9,2c2,0,3.7-0.8,4.9-2c1.2-1.2,1.9-3,1.9-4.9v-16.4h4.2
			v16.4c0,3.1-1.2,5.8-3.1,7.8c-2,1.9-4.7,3.1-7.9,3.1c-3.2,0-5.9-1.2-7.9-3.1c-2-1.9-3.2-4.6-3.2-7.8v-16.4H483.7L483.7,307.7z
			 M463.8,335c3,0,5.3-0.9,6.9-2.3c1.6-1.5,2.5-3.5,2.5-5.8c0-2.5-1-4.2-2.5-5.3c-1.5-1.2-3.5-1.8-5.6-2.5c-1.7-0.5-3.2-0.9-4.2-1.6
			c-1-0.6-1.6-1.4-1.6-2.7c0-1.1,0.4-2,1.1-2.7c0.8-0.7,1.9-1.1,3.5-1.1c1,0,2,0.2,3,0.5c1,0.3,2,0.8,3,1.5l1.1-1.7l1.1-1.7
			c-1.1-0.8-2.3-1.4-3.6-1.8c-1.4-0.4-2.8-0.7-4.4-0.7c-2.8,0-5.1,0.8-6.6,2.2c-1.5,1.4-2.4,3.4-2.4,5.7c0,2.6,1,4.2,2.5,5.3
			c1.5,1.1,3.5,1.8,5.6,2.4c1.7,0.5,3.2,1,4.2,1.6c1,0.6,1.6,1.4,1.6,2.7c0,1.1-0.4,2.1-1.3,2.8c-0.8,0.7-2.1,1.1-3.8,1.1
			c-1.4,0-2.6-0.3-3.8-0.7c-1.2-0.5-2.4-1.1-3.5-1.8l-1.1,1.7l-1.1,1.7c1.1,0.8,2.4,1.6,4,2.2C459.9,334.6,461.7,335,463.8,335
			L463.8,335z M405.5,335c3.9,0,7.4-1.6,10-4.1c2.5-2.5,4.1-6,4.1-9.8c0-3.8-1.6-7.3-4.1-9.9c-2.6-2.5-6.1-4.1-10-4.1
			c-3.9,0-7.4,1.6-9.9,4.1c-2.5,2.5-4.1,6-4.1,9.9c0,3.8,1.6,7.3,4.1,9.8C398.1,333.4,401.6,335,405.5,335L405.5,335z M364.6,321.1
			c0,3.9,1.6,7.4,4.1,9.9c2.6,2.5,6.1,4.1,10.1,4.1c1.9,0,3.5-0.3,5-0.8c1.5-0.5,2.7-1.2,4-2.2l-1.1-1.7l-1.1-1.7
			c-1,0.8-2.1,1.4-3.2,1.8c-1.1,0.4-2.4,0.6-3.7,0.6c-2.6,0-5-1.1-6.7-2.9c-1.7-1.8-2.8-4.3-2.8-7.1c0-2.8,1-5.3,2.8-7.1
			c1.7-1.8,4.1-2.9,6.7-2.9c1.4,0,2.6,0.2,3.7,0.6c1.1,0.4,2.2,1,3.2,1.8l1.1-1.7l1.1-1.7c-1.2-0.9-2.5-1.7-4-2.2
			c-1.5-0.5-3.1-0.8-5-0.8c-4,0-7.5,1.5-10.1,4.1C366.2,313.7,364.6,317.2,364.6,321.1L364.6,321.1z M557.7,334.4h-4.3v-26.7h4.3
			V334.4L557.7,334.4z M571.3,334.4h-4.1v-26.7h5.3l6.2,10.1l6.2,10.1v-20.2h4.1v26.7h-5l-6.4-10.3l-6.4-10.3V334.4L571.3,334.4z
			 M546.9,311.7h-8.4v22.7h-4.4v-22.7h-8.3v-4h21.1V311.7L546.9,311.7z M513.4,330.4h13.2v4h-17.5v-26.7h4.3V330.4L513.4,330.4z
			 M429.8,334.4h-4.1v-26.7h5.3l6.2,10.1l6.2,10.1v-20.2h4.1v26.7h-5l-6.4-10.3l-6.4-10.3V334.4L429.8,334.4z M405.5,331
			c-2.7,0-5.1-1.1-6.8-2.9c-1.7-1.8-2.8-4.3-2.8-7c0-2.8,1.1-5.3,2.8-7c1.7-1.8,4.2-2.9,6.8-2.9c2.7,0,5.1,1.1,6.9,2.9
			c1.7,1.8,2.8,4.3,2.8,7c0,2.8-1.1,5.3-2.8,7C410.6,329.9,408.2,331,405.5,331L405.5,331z M483.8,288.1c3.9,0,7.4-1.6,10-4.1
			c2.5-2.5,4.1-6,4.1-9.8c0-3.8-1.6-7.3-4.1-9.9c-2.5-2.5-6-4.1-10-4.1c-3.9,0-7.4,1.6-9.9,4.1c-2.5,2.5-4.1,6-4.1,9.9
			c0,3.8,1.6,7.3,4.1,9.8C476.4,286.6,479.9,288.1,483.8,288.1L483.8,288.1z M432.4,288.1c3,0,5.3-0.8,6.9-2.3
			c1.6-1.5,2.5-3.5,2.5-5.8c0-2.5-1-4.2-2.5-5.3s-3.5-1.8-5.6-2.5c-1.7-0.5-3.2-0.9-4.2-1.6c-1-0.6-1.6-1.4-1.6-2.7
			c0-1.1,0.4-2,1.1-2.7c0.8-0.7,1.9-1.1,3.5-1.1c1,0,2,0.2,3,0.5c1,0.3,2,0.8,3,1.5l1.1-1.7l1.1-1.7c-1.1-0.8-2.3-1.4-3.6-1.8
			c-1.4-0.4-2.8-0.7-4.4-0.7c-2.8,0-5.1,0.8-6.6,2.2c-1.5,1.4-2.4,3.4-2.4,5.7c0,2.6,1,4.2,2.5,5.3c1.5,1.1,3.5,1.8,5.6,2.4
			c1.7,0.5,3.2,1,4.2,1.6c1,0.6,1.6,1.4,1.6,2.7c0,1.1-0.4,2.1-1.3,2.8c-0.8,0.7-2.1,1.1-3.8,1.1c-1.4,0-2.6-0.3-3.8-0.7
			c-1.2-0.5-2.4-1.1-3.5-1.8l-1.1,1.7l-1.1,1.7c1.1,0.8,2.4,1.6,4,2.2C428.5,287.8,430.3,288.1,432.4,288.1L432.4,288.1z
			 M404.7,288.1c3.9,0,7.4-1.6,10-4.1c2.5-2.5,4.1-6,4.1-9.8c0-3.8-1.6-7.3-4.1-9.9c-2.5-2.5-6-4.1-10-4.1c-3.9,0-7.4,1.6-9.9,4.1
			c-2.5,2.5-4.1,6-4.1,9.9c0,3.8,1.6,7.3,4.1,9.8C397.3,286.6,400.8,288.1,404.7,288.1L404.7,288.1z M509.3,260.9l6.2,10.1l6.2,10.1
			v-20.2h4.1v26.7h-5l-6.4-10.3l-6.4-10.3v20.7H504v-26.7L509.3,260.9L509.3,260.9z M467.1,260.9v4h-8.4v22.7h-4.4v-22.7H446v-4
			H467.1L467.1,260.9z M376.5,260.9c2.4,0,4.4,0.8,5.9,2c1.5,1.3,2.4,3.1,2.4,5.1c0,1.2-0.3,2.2-0.8,3.1c-0.6,0.9-1.3,1.7-2.3,2.2
			c1.3,0.6,2.4,1.5,3.1,2.6c0.7,1.1,1.1,2.4,1.1,3.8c0,2.2-0.9,4.1-2.4,5.5c-1.5,1.4-3.6,2.2-6.1,2.2H366v-26.7L376.5,260.9
			L376.5,260.9z M483.8,284.1c-2.7,0-5.1-1.1-6.8-2.9c-1.7-1.8-2.8-4.3-2.8-7s1.1-5.3,2.8-7c1.7-1.8,4.2-2.9,6.8-2.9
			c2.7,0,5.1,1.1,6.9,2.9c1.7,1.8,2.8,4.3,2.8,7c0,2.8-1.1,5.3-2.8,7C488.9,283.1,486.5,284.1,483.8,284.1L483.8,284.1z
			 M404.7,284.1c-2.7,0-5.1-1.1-6.8-2.9c-1.7-1.8-2.8-4.3-2.8-7s1.1-5.3,2.8-7c1.7-1.8,4.2-2.9,6.8-2.9c2.7,0,5.1,1.1,6.9,2.9
			c1.7,1.8,2.8,4.3,2.8,7c0,2.8-1.1,5.3-2.8,7C409.8,283.1,407.4,284.1,404.7,284.1L404.7,284.1z M377.2,283.7c1.2,0,2.2-0.4,3-1.2
			c0.7-0.7,1.2-1.7,1.2-2.8s-0.4-2.1-1.2-2.8s-1.8-1.1-3-1.1h-6.9v7.8L377.2,283.7L377.2,283.7z M376.5,272.2c1.1,0,2.1-0.4,2.8-1.1
			s1.1-1.6,1.1-2.7s-0.4-2-1.1-2.7c-0.7-0.7-1.7-1.1-2.8-1.1h-6.2v7.5L376.5,272.2L376.5,272.2z"/>
</svg>
