<svg width="161" height="28" viewBox="0 0 161 28" fill="none" xmlns="http://www.w3.org/2000/svg">
<g clip-path="url(#clip0_2654_1496965)">
<path fill-rule="evenodd" clip-rule="evenodd" d="M35.5031 20.9857L35.2396 21.8536C35.2113 21.9422 35.1535 22.0198 35.0749 22.0746C34.9963 22.1294 34.9011 22.1586 34.8036 22.1577H0.443386C0.356154 22.1573 0.27199 22.127 0.206368 22.0725C0.140747 22.0179 0.0980798 21.9426 0.0862122 21.8606C-0.0778212 20.8207 -0.00731531 19.7595 0.29306 18.7474C0.593435 17.7354 1.11682 16.7955 1.82856 15.99C2.54029 15.1844 3.42412 14.5317 4.42151 14.0751C5.4189 13.6184 6.50708 13.3682 7.61397 13.341C7.33517 12.2947 7.40423 11.192 7.81165 10.1844C8.21907 9.17683 8.94489 8.31367 9.88948 7.71342C10.8341 7.11318 11.9511 6.80527 13.0874 6.83197C14.2236 6.85867 15.3232 7.21866 16.2354 7.86254C17.0947 5.46454 18.7556 3.3989 20.9653 1.98014C23.175 0.561378 25.8124 -0.132775 28.4758 0.00337505C31.1393 0.139525 33.683 1.09852 35.7195 2.73434C37.7561 4.37016 39.1739 6.59317 39.7572 9.06491C39.7658 9.10656 39.7707 9.14881 39.772 9.19123C39.773 9.27118 39.758 9.35058 39.7276 9.42515L38.6586 12.0825C37.8137 14.1785 35.3898 15.8955 33.1729 15.9914L14.388 16.2253C14.2917 16.2317 14.1995 16.2649 14.1229 16.3206C14.0462 16.3763 13.9885 16.4522 13.9569 16.5388C13.9358 16.5905 13.9283 16.6463 13.9348 16.7014C13.9414 16.7565 13.9618 16.8092 13.9945 16.8552C14.0272 16.9011 14.071 16.9389 14.1224 16.9653C14.1737 16.9917 14.2311 17.0058 14.2894 17.0066L32.8945 17.2312C33.8774 17.2757 34.6804 17.6546 35.173 18.3002C35.7002 19.002 35.816 19.9541 35.5031 20.9857ZM40.9291 9.64048C41.1097 9.63113 41.2821 9.62645 41.4463 9.62645H41.4513C43.0217 9.62828 44.5704 9.97501 45.9763 10.6395C47.3822 11.3041 48.6072 12.2684 49.5555 13.4571C50.5038 14.6458 51.1498 16.0267 51.443 17.4918C51.7361 18.957 51.6684 20.4666 51.2452 21.9028C51.224 21.9825 51.1749 22.053 51.106 22.1027C51.0371 22.1524 50.9524 22.1785 50.8659 22.1765H36.6701C36.6352 22.1746 36.6013 22.165 36.5712 22.1483C36.541 22.1317 36.5154 22.1085 36.4964 22.0807C36.4775 22.0529 36.4657 22.0212 36.4621 21.9883C36.4584 21.9553 36.463 21.922 36.4755 21.8911L36.7735 21.1519C37.6184 19.0583 40.03 17.3436 42.2691 17.2454L46.3901 17.0114C46.4864 17.005 46.5786 16.9719 46.6552 16.9162C46.7319 16.8605 46.7896 16.7846 46.8212 16.698C46.8417 16.6453 46.8487 16.5887 46.8414 16.5329C46.8341 16.4771 46.8128 16.4238 46.7793 16.3775C46.7477 16.3341 46.7059 16.2984 46.6571 16.2732C46.6083 16.2481 46.554 16.2341 46.4985 16.2325L42.5302 15.9985C42.0899 15.9981 41.6555 15.9015 41.2609 15.7161C40.8662 15.5307 40.5217 15.2616 40.2541 14.9295C39.7245 14.2277 39.6087 13.2757 39.924 12.2441L40.663 9.844C40.6756 9.80059 40.6993 9.7608 40.7319 9.72815C40.7646 9.69551 40.8052 9.67102 40.8502 9.65686C40.8752 9.64676 40.9019 9.64121 40.9291 9.64048ZM67.2564 13.9565H69.6039V20.0526H73.7101V22.0059H67.2564V13.9565ZM76.1441 17.9914V18.0124C76.1441 20.3166 78.0901 22.1763 80.6962 22.1763C83.3024 22.1763 85.273 20.3025 85.273 17.9914V17.968C85.273 15.6568 83.327 13.8041 80.7209 13.8041C78.1147 13.8041 76.1441 15.6802 76.1441 17.9914ZM82.8762 17.9914V18.0124C82.8762 19.175 82.0042 20.1645 80.7209 20.1645C79.4375 20.1645 78.5532 19.161 78.5532 17.9914V17.968C78.5532 16.8054 79.4006 15.8182 80.6962 15.8182C81.9919 15.8182 82.8762 16.8217 82.8762 17.9914ZM88.1457 18.4806V13.9565H90.5326V18.4291C90.5326 19.5987 91.1484 20.1438 92.0943 20.1438C93.0402 20.1438 93.656 19.6151 93.656 18.4876V13.9565H96.0405V18.4174C96.0405 21.0163 94.4788 22.1602 92.0697 22.1602C89.6606 22.1602 88.1457 20.9906 88.1457 18.4806ZM102.905 13.9565H99.6359V22.0035H102.858C105.907 22.0035 107.688 20.2795 107.688 17.9566V17.9332C107.688 15.6127 105.932 13.9565 102.905 13.9565ZM105.279 18.0011C105.279 19.3017 104.346 20.0386 102.942 20.0386L101.978 20.0292V15.9425H102.942C104.346 15.9425 105.279 16.6911 105.279 17.98V18.0011ZM111.099 13.9565H117.878V15.9121H113.449V17.2805H117.457V19.1309H113.449V22.0058H111.099V13.9565ZM123.497 13.9565H121.149V22.0059H127.603V20.0526H123.497V13.9565ZM133.773 13.9H136.037L139.636 22.0055H137.118L136.5 20.5692H133.229L132.625 22.0055H130.162L133.773 13.9ZM135.83 18.8311L134.887 16.5433L133.921 18.8311H135.83ZM146.66 13.9565H142.652V22.0059H145.002V19.5684H146.032L147.741 22.0059H150.451L148.428 19.1988C148.956 19.0125 149.408 18.6735 149.721 18.2298C150.034 17.786 150.192 17.26 150.172 16.7262V16.7028C150.19 16.3585 150.133 16.0143 150.004 15.6922C149.874 15.37 149.676 15.0769 149.421 14.8314C148.852 14.2793 147.958 13.9565 146.66 13.9565ZM147.813 16.8665C147.813 17.4514 147.352 17.821 146.551 17.821H145.002V15.8887H146.539C147.32 15.8887 147.813 16.2092 147.813 16.8432V16.8665ZM153.562 13.9565H160.381V15.8536H155.888V17.0724H159.957V18.8315H155.888V20.1087H160.44V22.0058H153.562V13.9565ZM61.3323 19.8324C61.6781 19.6174 61.9485 19.3094 62.1091 18.9478L64.5896 18.9572C64.129 20.8005 62.38 22.176 60.1434 22.176C57.5274 22.176 55.5913 20.3233 55.5913 18.0121V17.9887C55.5913 15.6729 57.552 13.8015 60.168 13.8015C62.4663 13.8015 64.2373 15.2261 64.6216 17.1419H62.1583C62.0091 16.7488 61.7352 16.4092 61.3744 16.17C61.0135 15.9308 60.5835 15.8037 60.1434 15.8062C58.86 15.8062 58.0003 16.7887 58.0003 17.9583V17.9817C58.0003 19.142 58.8822 20.1549 60.168 20.1549C60.5813 20.1597 60.9866 20.0474 61.3323 19.8324Z" fill="white"/>
</g>
<defs>
<clipPath id="clip0_2654_1496965">
<rect width="161" height="28" fill="white"/>
</clipPath>
</defs>
</svg>
