<svg fill="none"
    xmlns="http://www.w3.org/2000/svg" viewBox="0 0 171 20">
    <g clip-path="url(#a)">
        <path d="M49.606 5.638v8.739h2.177a4.152 4.152 0 0 0 2.962-1.305A4.378 4.378 0 0 0 55.938 10a4.305 4.305 0 0 0-1.177-3.086 4.083 4.083 0 0 0-2.978-1.277h-2.177Zm2.177-2.74c4.059 0 7.129 3.147 7.129 7.102 0 3.956-3.07 7.12-7.129 7.12h-4.802a.348.348 0 0 1-.345-.353V3.266a.35.35 0 0 1 .345-.355l4.802-.013Zm17.59 11.783c1.843.006 3.508-1.129 4.217-2.874a4.764 4.764 0 0 0-.975-5.097 4.47 4.47 0 0 0-4.963-1.024c-1.704.72-2.816 2.423-2.82 4.314 0 2.578 2.03 4.669 4.54 4.681Zm.001-12.105c4.272 0 7.537 3.368 7.537 7.424 0 4.056-3.265 7.424-7.538 7.424-4.272 0-7.51-3.352-7.51-7.424 0-4.072 3.267-7.424 7.511-7.424ZM87.288 14.68c2.513-.006 4.546-2.1 4.544-4.678-.004-2.58-2.041-4.668-4.553-4.67-2.514 0-4.553 2.088-4.556 4.667 0 1.242.48 2.433 1.337 3.311a4.505 4.505 0 0 0 3.228 1.37Zm-.001-12.105c4.258 0 7.524 3.352 7.524 7.424 0 4.072-3.28 7.424-7.524 7.424S79.749 14.072 79.749 10c0-4.072 3.266-7.424 7.538-7.424Zm17.484 3.062h-3.07v3.76h3.07a1.776 1.776 0 0 0 1.319-.502c.355-.345.558-.823.562-1.325a1.903 1.903 0 0 0-.533-1.384 1.793 1.793 0 0 0-1.348-.546v-.003Zm-6.04-2.372a.35.35 0 0 1 .345-.355h5.78c2.756 0 4.751 2.072 4.751 4.675.021 1.76-.94 3.376-2.473 4.164l2.666 4.837a.357.357 0 0 1-.125.512.338.338 0 0 1-.188.039h-2.34a.343.343 0 0 1-.313-.191l-2.569-4.787h-2.575v4.596a.362.362 0 0 1-.099.248.348.348 0 0 1-.246.106h-2.254a.35.35 0 0 1-.344-.354l-.015-13.49h-.001Zm18.617 2.438v8.74h2.177a4.157 4.157 0 0 0 2.962-1.3 4.38 4.38 0 0 0 1.196-3.07 4.309 4.309 0 0 0-1.174-3.09 4.077 4.077 0 0 0-2.983-1.278l-2.178-.002Zm2.177-2.743c4.058 0 7.128 3.15 7.128 7.114 0 3.963-3.07 7.113-7.128 7.113h-4.788a.356.356 0 0 1-.246-.106.35.35 0 0 1-.098-.249v-13.5a.35.35 0 0 1 .344-.355l4.788-.017Zm16.185 3.476-1.685 4.673h3.366l-1.681-4.673Zm-2.673 7.314-1.103 3.111a.345.345 0 0 1-.344.245h-2.392a.34.34 0 0 1-.314-.15.357.357 0 0 1-.03-.352l5.168-13.488a.345.345 0 0 1 .344-.234h2.676a.344.344 0 0 1 .346.234l5.167 13.488a.358.358 0 0 1-.168.47.34.34 0 0 1-.177.03h-2.391a.346.346 0 0 1-.344-.244l-1.103-3.111h-5.335v.001Zm12.291-7.01c0-2.234 1.881-4.165 4.851-4.165a6.058 6.058 0 0 1 4.309 1.665.357.357 0 0 1 .082.402.357.357 0 0 1-.082.118l-1.325 1.35a.344.344 0 0 1-.377.077.344.344 0 0 1-.112-.077 3.437 3.437 0 0 0-2.298-.93c-1.188 0-2.067.708-2.067 1.525 0 2.64 7.021 1.116 7.021 6.196-.003 2.575-1.898 4.522-5.25 4.522a6.94 6.94 0 0 1-5.009-2.064.358.358 0 0 1 0-.52l1.282-1.316a.34.34 0 0 1 .5 0 4.366 4.366 0 0 0 3.028 1.267c1.484 0 2.462-.813 2.462-1.832 0-2.641-7.017-1.117-7.017-6.198m22.736-3.513v5.338h-5.943V3.248A.341.341 0 0 0 162.02 3a.35.35 0 0 0-.245-.106h-2.254a.347.347 0 0 0-.344.354v13.485a.35.35 0 0 0 .344.355h2.254a.35.35 0 0 0 .344-.355v-5.422h5.939v5.422a.35.35 0 0 0 .344.355h2.254a.35.35 0 0 0 .344-.355V3.248a.341.341 0 0 0-.099-.248.35.35 0 0 0-.245-.106h-2.254a.35.35 0 0 0-.34.354ZM33.984 4.694C32.42 1.794 29.36-.01 26.034 0H.864A.866.866 0 0 0 .07.531a.848.848 0 0 0 .187.929l5.483 5.444a2.594 2.594 0 0 0 1.83.753h17.744c1.264-.014 2.298.989 2.311 2.236.014 1.248-1 2.27-2.265 2.283H13.126a.866.866 0 0 0-.797.528.848.848 0 0 0 .185.932l5.487 5.448a2.597 2.597 0 0 0 1.83.752h5.533c7.198 0 12.641-7.6 8.62-15.145" fill="#fff"/>
    </g>
    <defs>
        <clipPath id="a">
            <path fill="#fff" d="M0 0h171v20H0z"/>
        </clipPath>
    </defs>
</svg>