<svg width="97" height="28" viewBox="0 0 97 28" fill="none" xmlns="http://www.w3.org/2000/svg">
<g clip-path="url(#clip0_2654_1496951)">
<path fill-rule="evenodd" clip-rule="evenodd" d="M26.471 0.31423C28.0862 2.14705 28.5876 7.11158 27.7541 9.60007C27.4772 10.4275 27.3991 11.3018 27.5587 12.151C27.7215 12.9941 27.8842 14.012 27.8842 14.7207C27.8842 21.9959 21.7332 27.8969 14.1428 27.8969C6.55565 27.8969 0.401313 21.999 0.401313 14.7207C0.401313 14.012 0.564125 12.9941 0.726941 12.151C0.889754 11.3018 0.81486 10.4275 0.538075 9.60007C-0.295531 7.11468 0.205935 2.15016 1.82105 0.31423C2.0327 0.0769318 2.42672 0.108155 2.60255 0.373554L4.59213 3.36788C5.08709 3.96424 5.97279 4.10478 6.63706 3.68638C8.79597 2.33127 11.3749 1.54443 14.1461 1.54443C16.9172 1.54443 19.496 2.33127 21.6549 3.68638C22.3226 4.10478 23.2083 3.96738 23.7 3.36788L25.6895 0.373554C25.8654 0.108155 26.2593 0.0738094 26.471 0.31423ZM3.50456 14.752C3.50456 20.3784 8.275 24.9559 14.1428 24.9559C20.0106 24.9559 24.7842 20.3784 24.7875 14.7551C24.7875 14.574 24.7811 14.3898 24.7712 14.2087C24.5596 10.3775 22.1304 7.09907 18.6951 5.53791C17.3144 4.90408 15.7742 4.55438 14.1461 4.55438C12.5179 4.55438 10.9744 4.90408 9.59703 5.53481C6.16166 7.09597 3.73247 10.3713 3.52082 14.2055C3.51104 14.3866 3.50456 14.5677 3.50456 14.752ZM16.039 14.1586L18.758 18.6798C18.8134 18.7704 18.8134 18.8828 18.758 18.9702C18.7059 19.0608 18.6049 19.1169 18.4942 19.1169H16.2833C16.1758 19.1169 16.0748 19.0608 16.0195 18.9702L14.5672 16.5566L12.9488 18.9795C12.8935 19.0638 12.7958 19.1138 12.6916 19.1138H10.448C10.334 19.1138 10.2298 19.0544 10.1777 18.9608C10.1256 18.8671 10.1289 18.7517 10.1907 18.6611L13.1833 14.2835L10.9527 10.6897C10.8974 10.5991 10.8941 10.4867 10.9495 10.3962C11.0048 10.3025 11.1057 10.2463 11.2165 10.2463H13.4438C13.5512 10.2463 13.6522 10.2994 13.7075 10.3899L16.039 14.1586ZM40.5594 7.17796H43.3956V22.0902H40.5594V15.7363H37.3552V22.0935H34.5189V7.17796H37.3552V13.6537H40.5594V7.17796ZM51.5452 18.9956L52.1379 22.0929H54.9905L51.7112 7.18058H47.8918L44.7625 22.0929H47.5988L48.1427 18.9956H51.5452ZM51.1513 16.9379H48.5137L49.7967 9.80022L51.1513 16.9379ZM61.3116 19.3732V16.1822C61.3116 15.9293 61.2631 15.7607 61.1653 15.6733C61.0675 15.5859 60.8852 15.5422 60.6214 15.5422H58.6255C56.932 15.5422 56.0856 14.7553 56.0856 13.1785V9.51917C56.0856 7.95797 56.9711 7.18054 58.7457 7.18054H61.4583C63.2329 7.18054 64.1186 7.96111 64.1186 9.51917V11.5986H61.2597V9.89698C61.2597 9.64404 61.2108 9.47544 61.1134 9.38801C61.0156 9.30061 60.8333 9.25691 60.5695 9.25691H59.6318C59.3517 9.25691 59.1626 9.30061 59.0651 9.38801C58.9673 9.47544 58.9185 9.64404 58.9185 9.89698V12.8975C58.9185 13.1504 58.9673 13.319 59.0651 13.4065C59.1626 13.4939 59.3517 13.5376 59.6318 13.5376H61.5788C63.3045 13.5376 64.1675 14.3088 64.1675 15.8544V19.7543C64.1675 21.3154 63.2723 22.0928 61.481 22.0928H58.8176C57.0267 22.0928 56.1311 21.3123 56.1311 19.7543V17.6966H58.9639V19.3732C58.9639 19.6261 59.0128 19.7948 59.1106 19.8823C59.2084 19.9696 59.3972 20.0134 59.6772 20.0134H60.615C60.8788 20.0134 61.0577 19.9696 61.1588 19.8823C61.2597 19.7948 61.3116 19.6261 61.3116 19.3732ZM74.5716 7.17794H71.7388V19.3738C71.7388 19.6267 71.6899 19.7953 71.5921 19.8827C71.4946 19.9702 71.3055 20.0138 71.0254 20.0138H69.7201C69.4563 20.0138 69.2736 19.9702 69.1762 19.8827C69.0784 19.7953 69.0295 19.6267 69.0295 19.3738V7.17794H66.1933V19.7516C66.1933 21.3096 67.0889 22.0902 68.8798 22.0902H71.8854C73.6763 22.0902 74.5716 21.3127 74.5716 19.7516V7.17794ZM79.7459 16.2796V22.0935H76.9127V7.17796H82.631C84.4219 7.17796 85.3172 7.95853 85.3172 9.51659V13.9378C85.3172 15.2305 84.7183 15.9861 83.5168 16.2078L86.1055 22.0935H83.0479L80.6805 16.2796H79.7459ZM79.7459 9.25743V14.2688H81.7907C82.0545 14.2688 82.2338 14.2251 82.3346 14.1377C82.4324 14.0502 82.4809 13.8816 82.4809 13.6287V9.89753C82.4809 9.6446 82.4324 9.476 82.3346 9.38856C82.2368 9.30113 82.0545 9.25743 81.7907 9.25743H79.7459ZM93.3031 18.9956L93.8959 22.0928H96.7515L93.4726 7.18054H89.6528L86.5236 22.0928H89.3564L89.9003 18.9956H93.3031ZM92.9124 16.9378H90.2748L91.5577 9.80017L92.9124 16.9378Z" fill="white"/>
</g>
<defs>
<clipPath id="clip0_2654_1496951">
<rect width="97" height="28" fill="white"/>
</clipPath>
</defs>
</svg>
