<svg width="107" height="28" viewBox="0 0 107 28" fill="none" xmlns="http://www.w3.org/2000/svg">
<g clip-path="url(#clip0_2654_1496982)">
<path d="M45.3042 15.6277L50.801 8.48774H47.4265L42.333 14.9767V8.48774H39.4042V23.1877H42.333V16.2997L47.6388 23.1877H51.0133L45.3042 15.6277ZM62.5441 21.8857C63.6264 20.8147 64.1782 19.4917 64.1782 17.9377C64.1782 16.3837 63.6264 15.0817 62.5441 14.0107C61.4617 12.9397 60.1246 12.3937 58.5541 12.3937C56.9836 12.3937 55.6465 12.9397 54.5641 14.0107C53.4818 15.0817 52.9512 16.3837 52.9512 17.9377C52.9512 19.4917 53.4818 20.8147 54.5641 21.8857C55.6465 22.9567 56.9836 23.4817 58.5541 23.4817C60.1246 23.4817 61.4617 22.9567 62.5441 21.8857ZM56.4955 20.0167C55.9649 19.4707 55.689 18.7777 55.689 17.9377C55.689 17.0977 55.9649 16.4047 56.4955 15.8587C57.0473 15.3127 57.7264 15.0397 58.5541 15.0397C59.3818 15.0397 60.0609 15.3127 60.6127 15.8587C61.1645 16.4047 61.4404 17.0977 61.4404 17.9377C61.4404 18.7777 61.1645 19.4707 60.6127 20.0167C60.0609 20.5627 59.3818 20.8357 58.5541 20.8357C57.7264 20.8357 57.0473 20.5627 56.4955 20.0167ZM72.375 19.7437L69.616 12.6877H66.6235L70.9742 22.8517C70.4649 24.2797 69.6584 24.8887 68.194 24.8677V27.3877C70.9106 27.5347 72.6933 26.2117 73.7969 23.1877L77.6595 12.6877H74.7307L72.375 19.7437ZM90.9844 19.0507C91.048 18.6517 91.0905 18.2947 91.0905 17.9377C91.0905 16.3627 90.5811 15.0607 89.5624 13.9897C88.5649 12.9187 87.2707 12.3937 85.7214 12.3937C84.0872 12.3937 82.7289 12.9187 81.689 13.9897C80.6491 15.0397 80.1185 16.3627 80.1185 17.9377C80.1185 19.5337 80.6491 20.8567 81.7102 21.9067C82.7714 22.9567 84.1721 23.4817 85.9336 23.4817C87.971 23.4817 89.52 22.7257 90.5599 21.2347L88.3531 19.9747C87.8225 20.6677 87.016 21.0247 85.9761 21.0247C84.3419 21.0247 83.3444 20.3737 82.9836 19.0507H90.9844ZM82.9412 16.9507C83.2595 15.6067 84.257 14.8297 85.7214 14.8297C86.9736 14.8297 88.0347 15.5227 88.3531 16.9507H82.9412ZM101.301 12.3937C99.815 12.3937 98.6689 12.8977 97.8624 13.9267V8.48774H95.1247V23.1877H97.8624V21.9487C98.6689 22.9777 99.815 23.4817 101.301 23.4817C102.723 23.4817 103.953 22.9567 104.951 21.8857C105.97 20.8147 106.479 19.4917 106.479 17.9377C106.479 16.3837 105.97 15.0817 104.951 14.0107C103.953 12.9397 102.723 12.3937 101.301 12.3937ZM98.6901 20.0797C98.1383 19.5127 97.8624 18.7987 97.8624 17.9377C97.8624 17.0767 98.1383 16.3627 98.6901 15.8167C99.242 15.2497 99.9423 14.9767 100.791 14.9767C101.64 14.9767 102.341 15.2497 102.892 15.8167C103.465 16.3627 103.741 17.0767 103.741 17.9377C103.741 18.7987 103.465 19.5127 102.892 20.0797C102.341 20.6257 101.64 20.8987 100.791 20.8987C99.9423 20.8987 99.242 20.6257 98.6901 20.0797ZM15.1609 6.80576L29.456 14.9501V8.15373L15.1518 0.000244141L0.884201 8.16277V14.9683L15.1609 6.80576Z" fill="white"/>
<path d="M27.1695 23.1403L29.456 21.8097V17.6376L15.1518 9.4751L0.884201 17.6376V21.8278L3.1707 23.1403L15.1518 16.2806L27.1695 23.1403Z" fill="white"/>
<path d="M15.1613 25.9278L18.7918 28.0002L24.7553 24.6062L15.1521 19.1223L5.58553 24.6062L11.5483 28.0002L15.1613 25.9278Z" fill="white"/>
</g>
<defs>
<clipPath id="clip0_2654_1496982">
<rect width="107" height="28" fill="white"/>
</clipPath>
</defs>
</svg>
