<svg fill="none"
    xmlns="http://www.w3.org/2000/svg" viewBox="0 0 96 20">
    <path d="M35.06 1.156h3.555l6.046 10.935 6.045-10.935h3.478v17.969h-2.9V5.353l-5.301 9.537h-2.721L37.96 5.352v13.772h-2.9V1.155ZM63.543 19.447c-1.344 0-2.524-.298-3.543-.892a6.24 6.24 0 0 1-2.38-2.471c-.57-1.053-.854-2.26-.854-3.62 0-1.377.278-2.597.834-3.658.556-1.06 1.329-1.89 2.317-2.49.988-.599 2.124-.898 3.408-.898 1.275 0 2.372.301 3.292.905.92.603 1.628 1.448 2.124 2.535.496 1.086.744 2.361.745 3.824v.796H59.64c.18 1.096.623 1.958 1.328 2.586.706.63 1.598.944 2.677.944.864 0 1.608-.128 2.233-.385a5.683 5.683 0 0 0 1.758-1.168l1.54 1.886c-1.531 1.404-3.41 2.106-5.634 2.106Zm2.118-10.66c-.608-.62-1.404-.93-2.388-.93-.958 0-1.76.316-2.406.95-.646.633-1.055 1.484-1.226 2.553h7.06c-.086-1.095-.433-1.953-1.04-2.573ZM73.003 8.112h-2.67V5.738h2.67V1.81h2.798v3.928h4.056v2.374h-4.056v6.02c0 1 .172 1.715.514 2.143.342.428.928.642 1.758.642.368 0 .68-.015.937-.045s.54-.07.847-.122v2.349a8.441 8.441 0 0 1-2.323.321c-3.02 0-4.53-1.652-4.53-4.954V8.111ZM94.437 19.126h-2.746v-1.874a4.961 4.961 0 0 1-1.862 1.623c-.753.38-1.608.571-2.567.572-1.18 0-2.227-.302-3.138-.905-.911-.604-1.628-1.434-2.15-2.49-.522-1.057-.783-2.266-.783-3.626 0-1.37.266-2.58.796-3.633.53-1.052 1.264-1.878 2.201-2.477s2.013-.898 3.228-.898c.916 0 1.737.177 2.465.533a4.872 4.872 0 0 1 1.81 1.508v-1.72h2.746v13.387Zm-2.798-8.703a3.817 3.817 0 0 0-1.418-1.803c-.646-.44-1.393-.66-2.24-.66-1.198 0-2.152.401-2.862 1.206-.71.804-1.066 1.89-1.065 3.26 0 1.377.342 2.469 1.026 3.273.685.804 1.613 1.206 2.786 1.206.864 0 1.634-.222 2.31-.667a3.77 3.77 0 0 0 1.463-1.797v-4.018ZM21.045.548c-2.332 0-4.156 1.757-5.806 3.989C12.97 1.649 11.074.548 8.804.548 4.175.548.629 6.571.629 12.946c0 3.99 1.93 6.506 5.163 6.506 2.327 0 4-1.097 6.975-6.297l2.093-3.698c.299.482.614 1.002.944 1.56l1.395 2.347c2.718 4.547 4.232 6.088 6.975 6.088 3.15 0 4.902-2.55 4.902-6.623 0-6.675-3.626-12.28-8.03-12.28ZM10.498 11.747c-2.412 3.78-3.246 4.628-4.589 4.628-1.382 0-2.203-1.213-2.203-3.377 0-4.628 2.308-9.36 5.058-9.36 1.49 0 2.735.86 4.642 3.59-1.81 2.777-2.908 4.519-2.908 4.519Zm9.103-.476-1.668-2.782a57.875 57.875 0 0 0-1.301-2.027c1.503-2.32 2.743-3.476 4.218-3.476 3.063 0 5.514 4.51 5.514 10.052 0 2.112-.692 3.337-2.125 3.337-1.373 0-2.03-.907-4.638-5.104Z" fill="#fff"/>
</svg>