<svg version="1.2" xmlns="http://www.w3.org/2000/svg" viewBox="0 0 514 164" width="514" height="164"><style>.a{fill:#ccc}.b{fill:#fff}.c{fill:#fff}.d{fill:#fff}.e{fill:#fff}.f{fill:#fff}</style><path fill-rule="evenodd" class="a" d="m217.9 28.3h11.1l4.7 16.7 1.5 6.5h0.3l1.6-6.5 4.6-16.7h11.2v47h-9v-14.5-0.8c0.1-5.5 0.9-16.2 1.4-21.1h-0.2l-3.6 12.7-3.7 11.3h-5.2l-3.7-11.3-3.3-12.7h-0.3l0.1 1.1c0.6 5.5 1.3 15.8 1.3 20.8v14.5h-8.8zm44.5 38.2h11v-29.2h-11v-9h32.6v9h-11v29.2h11v8.9h-32.6zm41.6 3l6.1-7.3c3.6 2.9 8 4.9 12.5 4.9 4.6 0 6.7-1.8 6.7-4.1 0-3.4-2.8-4.2-7.3-6l-6.1-2.7c-5.2-1.9-10-5.9-10-12.8 0-7.8 7-14 17.2-14 5.7 0 11.4 2.1 15.7 6.2l-5.4 6.7c-3.3-2.4-6.2-3.7-10.8-3.7-3.5 0-5.9 1.5-5.9 4.2 0 2.8 3.1 3.9 7.6 5.6l5.8 2.4c6.2 2.3 10.1 6.1 10.1 12.8 0 7.8-6.6 14.6-18.3 14.6-6.3 0-12.9-2.3-17.9-6.8zm56.1-32.2h-14.2v-8.9h38.9v8.9h-14.1v38.1h-10.6zm57.2 38.1l-9-16.9h-5.6v16.9h-10.6v-47h17c9.8 0.1 17.9 3.6 17.9 14.6 0 7-3.4 11.3-8.4 13.6l10.6 18.8zm-14.5-25.3h5.1c5.6 0 8.6-2.4 8.6-7.1 0-4.6-3-6.2-8.6-6.2h-5.1zm56.2 14.2h-14.2l-2.9 11.2h-10.9l14.7-47h12.8l14.6 47h-11.3zm-2.1-8.3l-2.2-8.5c-0.9-3.6-1.9-7.4-2.7-11h-0.3l-3.6 15.2-1.1 4.3zm24.6-27.5h10.6v38.1h21v8.9h-31.6zm-239.2 111.3h-14.2l-2.8 11.2h-10.9l14.6-47h12.8l14.7 47h-11.3zm-2.1-8.3l-2.2-8.5c-0.9-3.6-1.9-7.4-2.7-11h-0.3l-3.6 15.2-1.2 4.3zm22.3 10.6h11v-29.2h-11v-8.9h32.6v8.9h-11v29.2h11v8.9h-32.6zm42.1 13.6h34.9v8.1h-34.9zm-180.6-155.5h30.7v30.8h-30.7z"/><path class="b" d="m139.3 0h30.7v30.7h-30.7z"/><path class="a" d="m1 0h30.7v30.7h-30.7zm0 30.8h30.7v30.7h-30.7zm0 30.7h30.7v30.8h-30.7zm0 30.7h30.7v30.7h-30.7z"/><path class="a" d="m1 122.9h30.7v30.8h-30.7z"/><path class="b" d="m16.4 0h30.7v30.7h-30.7z"/><path class="c" d="m139.3 30.7h30.7v30.8h-30.7zm-122.9 0h30.7v30.7h-30.7z"/><path class="a" d="m93.2 30.7h30.7v30.8h-30.7z"/><path class="c" d="m108.6 30.7h30.7v30.8h-30.7zm-61.5 0h30.7v30.7h-30.7z"/><path class="d" d="m108.6 61.5v30.7h-30.8v-30.7zm30.8 0v30.7h-30.8v-30.7zm-61.4 0v30.7h-30.8v-30.7z"/><path class="a" d="m62.5 92.2h30.7v30.7h-30.7z"/><path class="e" d="m77.8 92.2h30.8v30.7h-30.8z"/><path class="d" d="m139.3 61.5h30.7v30.7h-30.7zm-122.9 0h30.7v30.7h-30.7z"/><path class="a" d="m123.9 92.2h30.8v30.7h-30.8z"/><path class="e" d="m139.3 92.2h30.7v30.7h-30.7z"/><path class="a" d="m123.9 122.9h30.8v30.8h-30.8z"/><path class="e" d="m16.4 92.2h30.7v30.7h-30.7z"/><path class="f" d="m139.3 122.9h30.7v30.8h-30.7zm-122.9 0h30.7v30.7h-30.7z"/></svg>