<svg viewBox="0 0 123 28" fill="none" xmlns="http://www.w3.org/2000/svg">
<path d="M114.282 6.42772L112.673 10.0913H108.012V21.6741H104.348V10.1121H100.378V21.6741H96.6732L90.4034 12.6159V21.6741H86.6981V6.44797H90.4034L96.6732 15.2012V6.44797H114.282V6.42772ZM78.0467 6C82.505 6 86.1286 9.58256 86.1286 14.0003C86.1286 18.4174 82.505 22 78.0467 22C73.5891 22 69.9654 18.4174 69.9654 14.0003C69.9654 9.60219 73.5891 6 78.0467 6ZM78.0467 18.2953C80.4283 18.2953 82.3828 16.3617 82.3828 13.9997C82.3828 11.6389 80.4492 9.70467 78.0467 9.70467C75.6651 9.70467 73.7112 11.6389 73.7112 14.0003C73.7112 16.3617 75.6651 18.2953 78.0467 18.2953ZM70.2096 21.6134H65.8735L62.5763 16.7483H60.6218V21.6134H56.9171V10.0508H48.2246V13.0841H55.3492L53.7617 16.7477H48.3265L48.2246 21.6134H44.5199V6.59034L43.0545 10.0514H37.7206V21.6134H34.0159V10.0508H30.2296V14.9773C30.2296 19.5981 27.6037 21.8576 23.4713 21.8576C19.3389 21.8576 16.8149 19.5779 16.8149 15.0791V6.36636H20.5196V14.9975C20.5196 17.2368 21.6598 18.3972 23.5118 18.3972C25.3651 18.3972 26.5249 17.2975 26.5249 15.1202V6.38661H63.9399C65.8944 6.38661 67.4212 6.93645 68.4184 7.93365C69.2732 8.78909 69.7414 9.96978 69.7414 11.4149V11.4555C69.7414 13.9187 68.3981 15.4657 66.4436 16.1782L70.2096 21.6134ZM66.057 11.6794C66.057 10.4988 65.2629 9.88755 63.9804 9.88755H60.6015V13.4713H64.0215C65.304 13.4713 66.0367 12.7583 66.0367 11.6997V11.6794H66.057ZM8.08192 6C12.5402 6 16.1638 9.58256 16.1638 14.0003C16.1638 18.4174 12.5402 22 8.08192 22C3.62367 22 0 18.4174 0 14.0003C0.000613662 9.60219 3.62367 6 8.08192 6ZM8.08192 18.2953C10.4635 18.2953 12.4181 16.3617 12.4181 13.9997C12.4181 11.6389 10.4635 9.70467 8.08192 9.70467C5.7003 9.70467 3.74579 11.6389 3.74579 14.0003C3.74579 16.3617 5.68005 18.2953 8.08192 18.2953Z" fill="white"/>
<mask id="mask0_3956_9200" style="mask-type:luminance" maskUnits="userSpaceOnUse" x="110" y="6" width="13" height="16">
<path d="M117.14 6.44501L110.504 21.6914H115.491L122.127 6.4444H117.14V6.44501Z" fill="white"/>
</mask>
<g mask="url(#mask0_3956_9200)">
<path d="M102.875 14.0727L116.311 0.637848L129.745 14.0727L116.311 27.5082L102.875 14.0727Z" fill="white"/>
</g>
</svg>
