<svg viewBox="0 0 36 36" fill="none" xmlns="http://www.w3.org/2000/svg">
<g clip-path="url(#clip0_21057_147871)">
<path d="M35.669 17.999C35.669 20.3186 35.2122 22.6154 34.3245 24.7584C33.4369 26.9014 32.1359 28.8485 30.4957 30.4887C28.8556 32.1289 26.9085 33.4299 24.7656 34.3176C22.6226 35.2052 20.3259 35.6621 18.0064 35.6621C13.322 35.6621 8.8294 33.8012 5.51701 30.4887C2.20463 27.1762 0.34375 22.6835 0.34375 17.999C0.34375 13.3145 2.20463 8.8218 5.51701 5.50933C8.8294 2.19686 13.322 0.335938 18.0064 0.335938C20.3259 0.335937 22.6226 0.792806 24.7656 1.68046C26.9085 2.56811 28.8556 3.86916 30.4957 5.50933C32.1359 7.1495 33.4369 9.09666 34.3245 11.2396C35.2122 13.3826 35.669 15.6795 35.669 17.999Z" fill="white"/>
<path d="M17.9996 0C8.06219 0 0 8.06239 0 18C0 27.9376 8.06219 36 17.9996 36C27.9369 36 35.9991 27.9376 35.9991 18C35.9991 8.06239 27.9369 0 17.9996 0ZM17.9996 0.675553C20.2746 0.674882 22.5275 1.12248 24.6296 1.99277C26.7316 2.86306 28.6416 4.13899 30.2504 5.74767C31.8592 7.35635 33.1353 9.26624 34.0057 11.3682C34.8762 13.4703 35.324 15.7232 35.3236 17.9983C35.3247 20.2739 34.8774 22.5273 34.0072 24.6299C33.137 26.7325 31.861 28.643 30.2522 30.2522C28.6433 31.8614 26.7331 33.1378 24.6307 34.0084C22.5284 34.8791 20.275 35.3268 17.9996 35.3261C15.7242 35.3268 13.471 34.8791 11.3688 34.0086C9.26649 33.1381 7.35636 31.8619 5.74753 30.2528C4.13869 28.6438 2.86267 26.7335 1.99239 24.6311C1.12212 22.5287 0.674642 20.2754 0.675536 18C0.674866 15.7249 1.12245 13.4719 1.99272 11.3698C2.86299 9.26773 4.13889 7.35771 5.74753 5.74887C7.35616 4.14004 9.26601 2.86392 11.368 1.99342C13.4699 1.12292 15.7228 0.675106 17.9979 0.675553H17.9996Z" fill="black"/>
<path d="M26.719 14.4863C24.6652 14.4863 23.5914 15.3559 23.5914 16.69C23.5914 17.1154 23.8552 17.7246 24.2993 18.0121C25.0769 18.5158 25.7287 18.5907 26.622 18.8085C27.1342 18.9344 27.6906 19.0791 27.6906 19.4058C27.6906 19.678 27.4149 19.8805 26.6867 19.8805C25.2437 19.8805 24.9595 19.1199 24.9595 19.1199L23.1116 19.7989C23.503 21.0428 25.4173 21.4699 26.685 21.4699C28.0411 21.4699 28.8239 21.1806 29.3224 20.7041C29.8721 20.18 29.9265 19.6729 29.9265 19.1914C29.9265 18.766 29.7598 18.201 28.943 17.728C28.3474 17.3859 27.1461 17.1749 26.622 17.0643C26.4246 17.0201 25.7899 16.9282 25.7899 16.5538C25.7899 16.2748 26.1864 16.1233 26.719 16.1233C27.7706 16.1233 27.939 16.8346 27.939 16.8346L29.7938 16.1522C29.5045 14.8505 27.9799 14.4863 26.719 14.4863ZM32.8482 14.5187L30.6242 15.3354V21.2061H32.8499L32.8482 14.5187ZM3.08203 14.6412V21.2044H5.30773V19.9809C6.15887 19.7036 6.99643 19.3862 7.81759 19.0297C9.37286 18.3218 9.43922 17.4353 9.43922 16.6985C9.43922 15.7847 8.75858 14.6412 6.86129 14.6412H5.30773H3.08203ZM10.0756 14.6412V21.2044H15.8611V19.5879H12.3013V18.7183H15.097V17.1035H12.3013V16.2526H15.7981V14.6395L10.0756 14.6412ZM16.8259 14.6412V21.2044H19.0516V19.9809C19.9027 19.7036 20.7403 19.3862 21.5614 19.0297C23.1167 18.3218 23.1831 17.4353 23.1831 16.6985C23.1831 15.7847 22.5024 14.6412 20.6051 14.6412H19.0516H16.8259ZM5.30773 16.2543H6.42058C6.79493 16.2543 7.10632 16.5589 7.10632 16.9452C7.10632 17.4046 6.92935 17.6497 6.26062 17.9288L5.30773 18.3065V16.2543ZM19.0516 16.2543H20.1644C20.5388 16.2543 20.8502 16.5589 20.8502 16.9452C20.8502 17.4046 20.6749 17.6497 20.0045 17.9288L19.0516 18.3065V16.2543Z" fill="black"/>
<path d="M17.9979 1.87891C14.8529 1.88152 11.7774 2.80388 9.15009 4.53241C6.52275 6.26094 4.45829 8.72015 3.21094 11.6072C3.26879 11.6276 6.41335 12.7405 9.58854 12.7405C14.5487 12.7405 20.4958 10.7138 26.904 10.7138C30.149 10.7138 32.55 11.517 32.795 11.6021C31.5462 8.71441 29.4798 6.25518 26.8505 4.52748C24.2213 2.79977 21.144 1.8791 17.9979 1.87891Z" fill="#494B50"/>
<path d="M18.0042 34.1253C21.1492 34.1231 24.2249 33.2012 26.8526 31.4729C29.4802 29.7447 31.5451 27.2857 32.7928 24.3987C32.7349 24.3765 29.5887 23.2637 26.4152 23.2637C21.455 23.2637 15.5079 25.292 9.09798 25.292C5.85473 25.292 3.45376 24.4889 3.20703 24.4038C4.4561 27.2912 6.52257 29.75 9.15184 31.4774C11.7811 33.2048 14.8583 34.1252 18.0042 34.1253Z" fill="#0C0D0D"/>
</g>
<defs>
<clipPath id="clip0_21057_147871">
<rect width="36" height="36" fill="white"/>
</clipPath>
</defs>
</svg>
