<svg width="104" height="28" viewBox="0 0 104 28" fill="none" xmlns="http://www.w3.org/2000/svg">
<path fill-rule="evenodd" clip-rule="evenodd" d="M1.58265 2.3335C0.736126 2.3335 0.0495911 2.987 0.0495911 3.79279V8.65262C0.0495911 9.45841 0.736126 10.1119 1.58265 10.1119H10.2646V17.8884H1.58265C0.736126 17.8884 0.0495911 18.5419 0.0495911 19.3477V24.2075C0.0495911 25.0133 0.736126 25.6668 1.58265 25.6668H8.73153C9.57806 25.6668 10.2646 25.0133 10.2646 24.2075V17.8923H18.9465C19.7931 17.8923 20.4796 17.2388 20.4796 16.433V11.5712C20.4796 10.7654 19.7931 10.1119 18.9465 10.1119H10.2666V3.79279C10.2666 2.987 9.58008 2.3335 8.73355 2.3335H1.58265ZM98.1633 5.82046C98.1633 5.58335 97.9568 5.40021 97.6915 5.40021H95.7473C95.482 5.40021 95.2754 5.59684 95.2754 5.82046V8.51351H92.2539C91.9886 8.51351 91.782 8.71014 91.782 8.93376V10.3217C91.782 10.5588 91.9886 10.742 92.2539 10.742H95.2754V14.8673C95.2754 18.023 96.8368 19.4823 100.199 19.4823H102.939C103.204 19.4823 103.411 19.2857 103.411 19.0621V17.6741C103.411 17.437 103.204 17.2539 102.939 17.2539H100.64C98.8114 17.2539 98.1633 16.5657 98.1633 14.8538V10.7574H103.277C103.542 10.742 103.749 10.5453 103.749 10.3217V8.93376C103.749 8.69664 103.542 8.51351 103.277 8.51351H98.1633V5.82046ZM88.7301 8.93568C88.7301 8.69857 88.5235 8.51544 88.2582 8.51544V8.51736H82.3183C82.053 8.51736 81.8465 8.71399 81.8465 8.93761V10.3256C81.8465 10.5627 82.053 10.7458 82.3183 10.7458H85.8401V17.2558H82.3183C82.053 17.2558 81.8465 17.4524 81.8465 17.676V19.064C81.8465 19.3011 82.053 19.4843 82.3183 19.4843H92.341C92.6062 19.4843 92.8128 19.2876 92.8128 19.064V17.676C92.8128 17.4389 92.6062 17.2558 92.341 17.2558H88.7301V8.93568ZM88.8475 4.69851C88.8333 4.4614 88.6268 4.27827 88.3756 4.27827H85.7227C85.4574 4.27827 85.2508 4.4749 85.2508 4.69851V6.47974C85.2508 6.71686 85.4574 6.89999 85.7227 6.89999H88.3756C88.6409 6.89999 88.8475 6.70336 88.8475 6.47974V4.69851ZM76.6134 17.2558H79.6208C79.8861 17.2558 80.0927 17.437 80.0927 17.676V19.064C80.0927 19.2876 79.8861 19.4843 79.6208 19.4843H69.8189C69.5536 19.4843 69.3471 19.3031 69.3471 19.064V17.676C69.3471 17.4524 69.5536 17.2558 69.8189 17.2558H73.7255V6.50866H70.2463C69.981 6.50866 69.7744 6.32745 69.7744 6.08841V4.69851C69.7744 4.4749 69.981 4.27827 70.2463 4.27827H76.1416C76.4069 4.27827 76.6134 4.45948 76.6134 4.69851V17.2558ZM61.3294 9.01857C61.8884 8.51351 62.6113 8.30338 63.6138 8.30338C66.5483 8.30338 68.2575 10.1849 68.2697 14.0133C68.2697 17.8438 66.5463 19.7233 63.6867 19.7233C62.7005 19.7233 62.0362 19.4843 61.4914 19.0081L60.7988 18.3777L60.1508 18.5185L60.4019 20.1879V23.3031C60.4019 23.5267 60.1953 23.7234 59.93 23.7234H57.9838C57.7185 23.7234 57.5119 23.5422 57.5119 23.3031V8.93568C57.5119 8.71206 57.7185 8.51544 57.9838 8.51544H59.3103C59.5331 8.51544 59.7093 8.65423 59.768 8.83737L60.0029 9.65087H60.6368L61.3294 9.01857ZM60.3857 15.3473C60.3857 16.7083 61.1957 17.4235 62.6559 17.4235C64.4401 17.4235 65.236 16.3575 65.2502 13.9883C65.2502 11.6442 64.4401 10.5781 62.6559 10.5781C61.1816 10.5781 60.3857 11.2933 60.3857 12.6543V15.3473ZM43.5686 13.9999C43.5686 10.1829 45.5594 8.30338 49.2735 8.30338C53.091 8.30338 54.9339 10.1984 54.4904 14.422H46.4282C46.5456 16.6813 47.4306 17.6491 49.2877 17.6491C50.4826 17.6491 51.3655 17.2558 51.6754 16.4288C51.7483 16.2592 51.9245 16.1474 52.1169 16.1474H53.8849C54.1805 16.1474 54.4155 16.3999 54.3425 16.6659C53.8565 18.5879 52.0278 19.7098 49.1986 19.7098C45.5432 19.7098 43.5686 17.8303 43.5686 13.9999ZM49.2593 10.2832C47.6676 10.2832 46.7967 11.0543 46.5173 12.7102H51.7949C51.7503 11.1391 50.9544 10.2832 49.2593 10.2832ZM37.1569 9.63738L37.8212 9.00508C38.3963 8.50001 39.2651 8.30338 40.3688 8.31881H41.8715C42.1368 8.31881 42.3434 8.50001 42.3434 8.73905V10.2678C42.3434 10.4914 42.1368 10.688 41.8715 10.688H39.336C37.7746 10.688 36.9787 11.3608 36.9787 12.6524V17.2539H40.3546C40.6199 17.2539 40.8265 17.4351 40.8265 17.6741V19.0621C40.8265 19.2857 40.6199 19.4823 40.3546 19.4823H31.1725C30.9072 19.4823 30.7006 19.3011 30.7006 19.0621V17.6741C30.7006 17.4505 30.9072 17.2539 31.1725 17.2539H34.0908V10.7439H31.5856C31.3203 10.7439 31.1138 10.5627 31.1138 10.3237V8.93568C31.1138 8.71206 31.3203 8.51544 31.5856 8.51544H35.8304C36.0532 8.51544 36.2435 8.64074 36.2881 8.83737L36.4947 9.63738H37.1569Z" fill="white"/>
</svg>
