<svg  viewBox="0 0 116 28" fill="none" xmlns="http://www.w3.org/2000/svg">
<path fill-rule="evenodd" clip-rule="evenodd" d="M1.71042 1C0.765962 1 0 1.72911 0 2.62813V8.05019C0 8.94921 0.765962 9.67832 1.71042 9.67832H11.3968V18.3545H1.71042C0.765962 18.3545 0 19.0836 0 19.9826V25.4047C0 26.3037 0.765962 27.0328 1.71042 27.0328H9.68637C10.6308 27.0328 11.3968 26.3037 11.3968 25.4047V18.3588H21.0832C22.0276 18.3588 22.7936 17.6297 22.7936 16.7307V11.3064C22.7936 10.4074 22.0276 9.67832 21.0832 9.67832H11.399V2.62813C11.399 1.72911 10.6331 1 9.68862 1H1.71042ZM109.463 4.89041C109.463 4.62586 109.232 4.42154 108.936 4.42154H106.767C106.471 4.42154 106.241 4.64092 106.241 4.89041V7.89502H102.87C102.574 7.89502 102.343 8.1144 102.343 8.36389V9.91244C102.343 10.177 102.574 10.3813 102.87 10.3813H106.241V14.9839C106.241 18.5047 107.983 20.1329 111.734 20.1329H114.791C115.087 20.1329 115.317 19.9135 115.317 19.664V18.1154C115.317 17.8509 115.087 17.6466 114.791 17.6466H112.226C110.186 17.6466 109.463 16.8788 109.463 14.9689V10.3985H115.168C115.464 10.3813 115.695 10.1619 115.695 9.91244V8.36389C115.695 8.09935 115.464 7.89502 115.168 7.89502H109.463V4.89041ZM98.9383 8.36604C98.9383 8.1015 98.7078 7.89717 98.4118 7.89717V7.89932H91.7848C91.4888 7.89932 91.2583 8.1187 91.2583 8.36819V9.91674C91.2583 10.1813 91.4888 10.3856 91.7848 10.3856H95.714V17.6487H91.7848C91.4888 17.6487 91.2583 17.8681 91.2583 18.1176V19.6661C91.2583 19.9307 91.4888 20.135 91.7848 20.135H102.967C103.263 20.135 103.493 19.9156 103.493 19.6661V18.1176C103.493 17.853 103.263 17.6487 102.967 17.6487H98.9383V8.36604ZM99.0693 3.63867C99.0535 3.37412 98.823 3.1698 98.5428 3.1698H95.5829C95.2869 3.1698 95.0565 3.38918 95.0565 3.63867V5.62597C95.0565 5.89051 95.2869 6.09484 95.5829 6.09484H98.5428C98.8388 6.09484 99.0693 5.87546 99.0693 5.62597V3.63867ZM85.4198 17.6487H88.7751C89.0711 17.6487 89.3016 17.8509 89.3016 18.1176V19.6661C89.3016 19.9156 89.0711 20.135 88.7751 20.135H77.8393C77.5433 20.135 77.3128 19.9328 77.3128 19.6661V18.1176C77.3128 17.8681 77.5433 17.6487 77.8393 17.6487H82.1978V5.65823H78.316C78.0201 5.65823 77.7896 5.45606 77.7896 5.18936V3.63867C77.7896 3.38918 78.0201 3.1698 78.316 3.1698H84.8934C85.1894 3.1698 85.4198 3.37197 85.4198 3.63867V17.6487ZM68.3676 8.45852C68.9912 7.89502 69.7978 7.66059 70.9163 7.66059C74.1902 7.66059 76.0972 9.75973 76.1108 14.0311C76.1108 18.3047 74.188 20.4017 70.9976 20.4017C69.8972 20.4017 69.1561 20.135 68.5483 19.6038L67.7756 18.9005L67.0526 19.0575L67.3327 20.92V24.3957C67.3327 24.6451 67.1023 24.8645 66.8063 24.8645H64.6349C64.3389 24.8645 64.1085 24.6624 64.1085 24.3957V8.36604C64.1085 8.11655 64.3389 7.89717 64.6349 7.89717H66.1149C66.3634 7.89717 66.56 8.05203 66.6255 8.25635L66.8876 9.16397H67.5948L68.3676 8.45852ZM67.3147 15.5195C67.3147 17.0379 68.2185 17.8358 69.8475 17.8358C71.8381 17.8358 72.7261 16.6465 72.7419 14.0032C72.7419 11.3879 71.8381 10.1985 69.8475 10.1985C68.2026 10.1985 67.3147 10.9964 67.3147 12.5149V15.5195ZM48.552 14.0161C48.552 9.75758 50.7731 7.66059 54.9169 7.66059C59.176 7.66059 61.2322 9.77479 60.7373 14.4871H51.7424C51.8734 17.0078 52.8608 18.0875 54.9328 18.0875C56.2658 18.0875 57.251 17.6487 57.5967 16.726C57.678 16.5368 57.8746 16.412 58.0892 16.412H60.0618C60.3916 16.412 60.6537 16.6938 60.5724 16.9906C60.0301 19.1349 57.9898 20.3866 54.8333 20.3866C50.755 20.3866 48.552 18.2897 48.552 14.0161ZM54.9011 9.86942C53.1252 9.86942 52.1536 10.7297 51.8418 12.5772H57.73C57.6803 10.8244 56.7923 9.86942 54.9011 9.86942ZM41.3985 9.14892L42.1396 8.44347C42.7813 7.87997 43.7506 7.66059 44.982 7.6778H46.6586C46.9546 7.6778 47.185 7.87997 47.185 8.14666V9.85222C47.185 10.1017 46.9546 10.3211 46.6586 10.3211H43.8297C42.0877 10.3211 41.1997 11.0717 41.1997 12.5127V17.6466H44.9662C45.2622 17.6466 45.4927 17.8487 45.4927 18.1154V19.664C45.4927 19.9135 45.2622 20.1329 44.9662 20.1329H34.7218C34.4258 20.1329 34.1953 19.9307 34.1953 19.664V18.1154C34.1953 17.866 34.4258 17.6466 34.7218 17.6466H37.9777V10.3835H35.1827C34.8867 10.3835 34.6562 10.1813 34.6562 9.91459V8.36604C34.6562 8.11655 34.8867 7.89717 35.1827 7.89717H39.9186C40.1671 7.89717 40.3795 8.03697 40.4292 8.25635L40.6597 9.14892H41.3985Z" fill="white"/>
</svg>
