<svg width="100" height="20" viewBox="0 0 100 20" fill="none" xmlns="http://www.w3.org/2000/svg">
<g clip-path="url(#clip0_21072_147846)">
<mask id="mask0_21072_147846" style="mask-type:luminance" maskUnits="userSpaceOnUse" x="0" y="0" width="100" height="20">
<path d="M100 0H0V20H100V0Z" fill="white"/>
</mask>
<g mask="url(#mask0_21072_147846)">
<path d="M42.5857 19.5807H38.94L30.975 11.1886H29.4893V19.5807H26.7893V0H35.8357C39.6429 0 41.9114 2.09786 41.9114 5.59429C41.9114 9.09071 39.6429 11.1886 35.8357 11.1886H34.4857L42.5857 19.5807ZM39.21 5.595C39.21 3.60857 38.13 2.37786 35.835 2.37786H29.49V8.81143H35.835C38.13 8.81143 39.21 7.58071 39.21 5.59429M49.4979 20.0021C45.1779 20.0021 42.4779 16.6736 42.4779 12.3093C42.4779 7.945 45.1779 4.61714 49.3636 4.61714C52.7386 4.61714 54.7636 6.575 55.655 9.48429C55.9786 10.575 56.1136 11.7779 56.1136 13.0086V13.2886H45.07C45.1514 15.6386 46.825 17.9043 49.4986 17.9043C51.7936 17.9043 52.8464 16.5329 53.0629 15.5264H55.8436C55.1957 17.9043 53.0357 20.0021 49.4979 20.0021ZM45.0693 11.1907H53.5214C53.3864 8.67357 52.09 6.715 49.3636 6.715C46.6364 6.715 45.1507 8.81286 45.0693 11.1907ZM56.0007 7.59429V5.35714H59.3757V2H61.9686V5.35714H65.6136V7.595H61.9678V16.4064C61.9678 17.385 62.2379 17.7207 63.1829 17.7207H65.6136V19.9029H62.6429C60.1857 19.9029 59.3757 18.6443 59.3757 16.4064V7.59429H56.0007ZM73.3114 4.61714C77.6321 4.61714 80.4664 7.94571 80.4664 12.31C80.4664 16.6743 77.6321 20.0021 73.3114 20.0021C68.9907 20.0021 66.1557 16.6736 66.1557 12.3093C66.1557 7.945 68.9914 4.61714 73.3114 4.61714ZM73.3114 6.855C70.3686 6.855 68.7479 9.37286 68.7479 12.31C68.7479 15.2464 70.3686 17.7643 73.3114 17.7643C76.2543 17.7643 77.8743 15.2464 77.8743 12.3093C77.8743 9.37286 76.2543 6.855 73.3114 6.855ZM88.7736 4.61714C93.0943 4.61714 95.9286 7.94571 95.9286 12.31C95.9286 16.6743 93.0943 20.0021 88.7736 20.0021C84.4529 20.0021 81.6186 16.6736 81.6186 12.3093C81.6186 7.945 84.4529 4.61714 88.7736 4.61714ZM88.7736 6.855C85.8307 6.855 84.21 9.37286 84.21 12.31C84.21 15.2464 85.8307 17.7643 88.7736 17.7643C91.7164 17.7643 93.3371 15.2464 93.3371 12.3093C93.3371 9.37286 91.7164 6.855 88.7736 6.855ZM100.021 0V19.5807H97.4293V0H100.021ZM11.8736 0.917857C11.8736 0.410714 11.475 0 10.9836 0H0.890714C0.398571 0 0 0.410714 0 0.917857V5.2C0 5.70714 0.398571 6.11786 0.890714 6.11786H10.9836C11.475 6.11786 11.8736 6.52857 11.8736 7.03571V8.25928C11.8736 8.76643 11.475 9.17714 10.9836 9.17714H4.45286C3.96071 9.17714 3.56214 9.58786 3.56214 10.095V14.3779C3.56214 14.885 3.96071 15.2957 4.45286 15.2957H10.9836C11.475 15.2957 11.8736 15.7064 11.8736 16.2136V18.6607C11.8736 19.1679 12.2729 19.5786 12.7643 19.5786H16.92C17.4121 19.5786 17.8107 19.1679 17.8107 18.6607V14.3786C17.8107 13.8714 17.4121 13.4607 16.92 13.4607H12.7643C12.2729 13.4607 11.8736 13.05 11.8736 12.5429V11.3193C11.8736 10.8121 12.2729 10.4014 12.7643 10.4014H16.92C17.4121 10.4014 17.8107 9.99071 17.8107 9.48357V5.20071C17.8107 4.69357 17.4121 4.28286 16.92 4.28286H12.7643C12.2729 4.28286 11.8736 3.87214 11.8736 3.365V0.917857Z" fill="white"/>
</g>
</g>
<defs>
<clipPath id="clip0_21072_147846">
<rect width="100" height="20" fill="white"/>
</clipPath>
</defs>
</svg>
