<svg width="92" height="28" viewBox="0 0 92 28" fill="none" xmlns="http://www.w3.org/2000/svg">
<g clip-path="url(#clip0_3956_9208)">
<path fill-rule="evenodd" clip-rule="evenodd" d="M0 5.76597C0 4.85647 0.737299 4.11917 1.6468 4.11917H8.23402C9.14355 4.11917 9.88082 4.85647 9.88082 5.76597V7.41278C9.88082 7.86753 9.51218 8.23618 9.05742 8.23618H0.823402C0.368649 8.23618 0 7.86753 0 7.41278V5.76597ZM9.88086 20.5872C9.88086 20.1325 10.2495 19.7638 10.7043 19.7638H18.9383C19.393 19.7638 19.7617 20.1325 19.7617 20.5872V22.234C19.7617 23.1436 19.0244 23.8808 18.1149 23.8808H11.5277C10.6181 23.8808 9.88086 23.1436 9.88086 22.234V20.5872ZM0.823402 10.2947C0.368649 10.2947 0 10.6634 0 11.1181V16.0585C0 16.9681 0.737299 17.7053 1.6468 17.7053H18.9382C19.393 17.7053 19.7616 17.3367 19.7616 16.8819V11.9415C19.7616 11.032 19.0244 10.2947 18.1148 10.2947H0.823402ZM30.7351 16.257H32.6385L36.2095 22.2341H40.5373L36.581 15.8491C38.7563 15.1013 40.0251 13.4246 40.0251 11.0002C40.0251 7.60137 37.646 5.76602 33.8167 5.76602H26.9512V22.2341H30.7351V16.257ZM30.7351 13.1754V8.96089H33.6127C35.4028 8.96089 36.3091 9.73128 36.3091 11.0681C36.3091 12.3823 35.4028 13.1754 33.6127 13.1754H30.7351ZM52.4487 18.7947C51.565 21.0833 49.3897 22.2841 47.0106 22.2841C43.4079 22.2841 40.9607 19.769 40.9607 16.053C40.9607 12.5182 43.4985 9.84457 46.9426 9.84457C50.568 9.84457 52.5393 12.5182 52.5393 15.8944V16.846H44.4502C44.6994 18.4775 45.6737 19.4065 47.0559 19.4065C48.1888 19.4065 49.0725 18.8627 49.4124 17.8204L52.4487 18.7947ZM48.9593 14.6255C48.9365 13.5606 48.2342 12.6543 46.8973 12.6543C45.787 12.6543 44.926 13.3113 44.5635 14.6255H48.9593ZM54.5943 18.9405C54.5943 21.3876 55.8858 22.2486 58.4689 22.2486C59.3299 22.2486 60.0097 22.1806 60.6441 22.09V19.1217C60.2362 19.1671 60.0324 19.1897 59.6018 19.1897C58.6955 19.1897 58.1743 19.0085 58.1743 17.911V13.0848H60.5082V10.0938H58.1743V6.78568H54.5943V10.0938H53.0762V13.0848H54.5943V18.9405ZM67.6089 9.79446C71.1209 9.79446 73.5907 12.3096 73.5907 16.0256C73.5907 19.7416 71.1209 22.234 67.6089 22.234C64.0741 22.234 61.627 19.7416 61.627 16.0256C61.627 12.3096 64.0741 9.79446 67.6089 9.79446ZM67.6089 12.7628C66.1587 12.7628 65.2297 13.941 65.2297 16.0256C65.2297 18.1102 66.1587 19.2884 67.6089 19.2884C69.059 19.2884 69.988 18.1102 69.988 16.0256C69.988 13.941 69.059 12.7628 67.6089 12.7628ZM86.647 16.0256C86.647 12.3096 84.1776 9.79446 80.6654 9.79446C77.1307 9.79446 74.6836 12.3096 74.6836 16.0256C74.6836 19.7416 77.1307 22.234 80.6654 22.234C84.1776 22.234 86.647 19.7416 86.647 16.0256ZM78.2863 16.0256C78.2863 13.941 79.2153 12.7628 80.6654 12.7628C82.1156 12.7628 83.0446 13.941 83.0446 16.0256C83.0446 18.1102 82.1156 19.2884 80.6654 19.2884C79.2153 19.2884 78.2863 18.1102 78.2863 16.0256ZM88.375 5.76602H91.9996V22.2341H88.375V5.76602Z" fill="white"/>
</g>
<defs>
<clipPath id="clip0_3956_9208">
<rect width="92" height="28" fill="white"/>
</clipPath>
</defs>
</svg>
