<svg width="100" height="28" viewBox="0 0 100 28" fill="none" xmlns="http://www.w3.org/2000/svg">
<path d="M49.9878 8.95934C46.0902 8.95934 43.28 11.3782 43.28 15.0066C43.28 18.635 46.4433 21.0539 50.3408 21.0539C52.6955 21.0539 54.7714 20.1669 56.0565 18.6719L53.3557 17.187C52.6426 17.9295 51.5588 18.3628 50.3408 18.3628C48.6497 18.3628 47.2129 17.5229 46.6798 16.1791H56.5719C56.6496 15.8028 56.6955 15.4131 56.6955 15.0032C56.6955 11.3782 53.8853 8.95934 49.9878 8.95934ZM46.648 13.8307C47.0893 12.4903 48.2967 11.647 49.9842 11.647C51.6753 11.647 52.8827 12.4903 53.3204 13.8307H46.648ZM88.0029 8.95934C84.1053 8.95934 81.2951 11.3782 81.2951 15.0066C81.2951 18.635 84.4584 21.0539 88.3559 21.0539C90.7107 21.0539 92.7865 20.1669 94.0716 18.6719L91.3708 17.187C90.6577 17.9295 89.5739 18.3628 88.3559 18.3628C86.6648 18.3628 85.228 17.5229 84.6949 16.1791H94.587C94.6647 15.8028 94.7106 15.4131 94.7106 15.0032C94.7106 11.3782 91.9004 8.95934 88.0029 8.95934ZM84.6666 13.8307C85.1079 12.4903 86.3153 11.647 88.0029 11.647C89.6939 11.647 90.9013 12.4903 91.3391 13.8307H84.6666ZM70.8876 15.0066C70.8876 17.0224 72.2715 18.3662 74.418 18.3662C75.8725 18.3662 76.9634 17.738 77.5247 16.7133L80.236 18.2016C79.1134 19.9822 77.0093 21.0539 74.418 21.0539C70.5169 21.0539 67.7103 18.635 67.7103 15.0066C67.7103 11.3782 70.5204 8.95934 74.418 8.95934C77.0093 8.95934 79.1098 10.031 80.236 11.8116L77.5247 13.2999C76.9634 12.2753 75.8725 11.647 74.418 11.647C72.275 11.647 70.8876 12.9909 70.8876 15.0066ZM100.006 5.26378V20.7179H96.8288V5.26378H100.006ZM13.2401 3.58398L26.2848 25.0854H0.195312L13.2401 3.58398ZM45.8537 5.26378L36.071 21.3898L26.2883 5.26378H29.9564L36.071 15.3426L42.1856 5.26378H45.8537ZM66.6511 9.2953V12.5507C66.2981 12.4533 65.9239 12.3861 65.5214 12.3861C63.4703 12.3861 61.991 13.73 61.991 15.7457V20.7179H58.8137V9.2953H61.991V12.3861C61.991 10.6795 64.0775 9.2953 66.6511 9.2953Z" fill="white"/>
</svg>
