<svg width="100" height="28" viewBox="0 0 100 28" fill="none" xmlns="http://www.w3.org/2000/svg">
<path d="M49.9868 8.95934C46.0892 8.95934 43.2791 11.3782 43.2791 15.0066C43.2791 18.635 46.4423 21.0539 50.3398 21.0539C52.6946 21.0539 54.7704 20.1669 56.0555 18.6719L53.3548 17.187C52.6416 17.9295 51.5578 18.3628 50.3398 18.3628C48.6488 18.3628 47.2119 17.5229 46.6788 16.1791H56.5709C56.6486 15.8028 56.6945 15.4131 56.6945 15.0032C56.6945 11.3782 53.8843 8.95934 49.9868 8.95934ZM46.647 13.8307C47.0883 12.4903 48.2957 11.647 49.9832 11.647C51.6743 11.647 52.8817 12.4903 53.3195 13.8307H46.647ZM88.0019 8.95934C84.1043 8.95934 81.2942 11.3782 81.2942 15.0066C81.2942 18.635 84.4574 21.0539 88.3549 21.0539C90.7097 21.0539 92.7855 20.1669 94.0706 18.6719L91.3699 17.187C90.6567 17.9295 89.5729 18.3628 88.3549 18.3628C86.6639 18.3628 85.227 17.5229 84.6939 16.1791H94.586C94.6637 15.8028 94.7096 15.4131 94.7096 15.0032C94.7096 11.3782 91.8994 8.95934 88.0019 8.95934ZM84.6657 13.8307C85.107 12.4903 86.3144 11.647 88.0019 11.647C89.6929 11.647 90.9003 12.4903 91.3381 13.8307H84.6657ZM70.8866 15.0066C70.8866 17.0224 72.2705 18.3662 74.417 18.3662C75.8715 18.3662 76.9624 17.738 77.5237 16.7133L80.235 18.2016C79.1124 19.9822 77.0083 21.0539 74.417 21.0539C70.5159 21.0539 67.7093 18.635 67.7093 15.0066C67.7093 11.3782 70.5194 8.95934 74.417 8.95934C77.0083 8.95934 79.1089 10.031 80.235 11.8116L77.5237 13.2999C76.9624 12.2753 75.8715 11.647 74.417 11.647C72.274 11.647 70.8866 12.9909 70.8866 15.0066ZM100.005 5.26378V20.7179H96.8278V5.26378H100.005ZM13.2391 3.58398L26.2838 25.0854H0.194336L13.2391 3.58398ZM45.8527 5.26378L36.07 21.3898L26.2874 5.26378H29.9554L36.07 15.3426L42.1846 5.26378H45.8527ZM66.6502 9.2953V12.5507C66.2971 12.4533 65.9229 12.3861 65.5204 12.3861C63.4693 12.3861 61.9901 13.73 61.9901 15.7457V20.7179H58.8127V9.2953H61.9901V12.3861C61.9901 10.6795 64.0765 9.2953 66.6502 9.2953Z" fill="white"/>
</svg>
