<svg width="133" height="28" viewBox="0 0 133 28" fill="none" xmlns="http://www.w3.org/2000/svg">
<g clip-path="url(#clip0_2654_1496986)">
<path fill-rule="evenodd" clip-rule="evenodd" d="M11.3856 3.45674C9.90226 3.88192 8.52376 4.58488 7.33152 5.52411C6.83205 4.71602 6.03736 4.11001 5.09821 3.821C6.58079 2.5554 8.32397 1.59546 10.2175 1.00181C12.1111 0.408193 14.1138 0.193792 16.0992 0.372226C18.0845 0.550627 20.0093 1.11793 21.7517 2.0383C22.1926 2.27118 22.6193 2.52539 23.0305 2.79961C23.0446 2.79382 23.0587 2.78814 23.0729 2.78257C23.6065 2.57285 24.1937 2.51799 24.7602 2.62494C25.3267 2.73192 25.847 2.99587 26.2554 3.38344C26.6638 3.77101 26.9419 4.2648 27.0546 4.80236C27.1672 5.33992 27.1093 5.89713 26.8882 6.40345C26.6671 6.9098 26.2927 7.34254 25.8125 7.64698C25.3322 7.95146 24.7675 8.11391 24.1899 8.11384C23.8064 8.11384 23.4267 8.04214 23.0724 7.90289C22.7182 7.76361 22.3963 7.55951 22.1251 7.30219C21.8539 7.04484 21.6389 6.73937 21.4922 6.40317C21.3455 6.06697 21.27 5.70665 21.27 5.34276C21.27 5.20064 21.2815 5.05934 21.3042 4.92005C20.9985 4.72077 20.6823 4.53519 20.3566 4.36408C19.001 3.65178 17.5087 3.20446 15.9679 3.04864C14.4271 2.8928 12.869 3.03157 11.3856 3.45674ZM6.78361 7.4488C6.78361 7.97052 6.6284 8.48108 6.33661 8.92203L6.93522 9.90465C6.3545 10.56 5.55791 11.0104 4.67415 11.1831L4.08225 10.2117C3.82 10.2304 3.5549 10.2155 3.2942 10.1663C2.7278 10.0594 2.20752 9.79555 1.79914 9.40809C1.39076 9.02066 1.11265 8.52697 0.99995 7.98954C0.887217 7.45212 0.94499 6.89502 1.16595 6.38873C1.38687 5.88245 1.76106 5.44971 2.2412 5.1452C2.72134 4.84072 3.28583 4.67817 3.86331 4.67807C4.2468 4.67803 4.62651 4.74966 4.98083 4.88887C5.33514 5.02809 5.65708 5.23219 5.92824 5.48947C6.19943 5.74676 6.41455 6.05222 6.56132 6.38839C6.70806 6.72459 6.78361 7.08491 6.78361 7.4488ZM4.67415 11.1831L9.70868 19.446L11.2267 21.941L12.745 19.446L14.6378 16.3354L16.5254 19.4348L18.0425 21.929L19.5605 19.4344L22.1068 15.248H26.2655C26.3149 14.8338 26.3397 14.4173 26.3398 14.0005C26.3399 13.5837 26.315 13.1672 26.2651 12.753H20.5885L20.3246 13.1867L18.0418 16.9384L16.1541 13.8386L14.6362 11.3436L13.1206 13.8389L11.2267 16.9496L6.93522 9.90465C6.3545 10.56 5.55791 11.0104 4.67415 11.1831ZM26.3398 14.0005C26.3397 14.4173 26.3149 14.8338 26.2655 15.248L29.0575 15.2477V12.7528L26.2651 12.753C26.315 13.1672 26.3399 13.5837 26.3398 14.0005ZM29.0584 12.753H29.1009C29.1398 13.1639 29.161 13.5799 29.161 14.0005C29.161 21.5599 22.7046 27.689 14.7369 27.689C6.76915 27.689 0.310715 21.5607 0.310715 14.0012C0.308624 12.6614 0.514831 11.3285 0.922631 10.0458C1.5907 10.7283 2.49959 11.1544 3.47682 11.2432C3.2625 12.1235 3.13195 13.1467 3.13195 14.0005C3.13195 20.0804 8.32602 25.0116 14.7373 25.0116C20.7029 25.0116 25.6135 20.7416 26.2663 15.248H29.0584V12.753Z" fill="white"/>
<path d="M43.955 18.4802L41.6606 9.09912H43.5301L44.5074 13.6015L45.1164 16.4777H45.1589L45.867 13.6015L47 9.09912H49.0678L50.2008 13.6015L50.8948 16.4777H50.9373L51.5605 13.6015L52.5661 9.09912H54.3506L51.9854 18.4802H49.8751L48.6146 13.5209L48.0056 11.0479H47.9773L47.3399 13.5209L46.0794 18.4802H43.955Z" fill="white"/>
<path d="M60.1338 17.311H60.063C59.9969 17.4902 59.9072 17.6604 59.7939 17.8217C59.69 17.974 59.5531 18.1129 59.3832 18.2383C59.2226 18.3638 59.0244 18.4623 58.7883 18.534C58.5617 18.6057 58.2973 18.6415 57.9952 18.6415C57.2304 18.6415 56.645 18.4041 56.239 17.9292C55.833 17.4543 55.63 16.7778 55.63 15.8998V11.4646H57.4428V15.725C57.4428 16.2089 57.542 16.5807 57.7403 16.8406C57.9385 17.0914 58.2548 17.2169 58.6892 17.2169C58.8686 17.2169 59.0433 17.1945 59.2132 17.1497C59.3926 17.1049 59.5484 17.0377 59.6806 16.9481C59.8128 16.8495 59.9213 16.733 60.0063 16.5986C60.0913 16.4553 60.1338 16.2895 60.1338 16.1014V11.4646H61.9466V18.4802H60.1338V17.311Z" fill="white"/>
<path d="M64.0412 18.4802V11.4646H65.854V12.6338H65.9249C66.0759 12.2575 66.312 11.9439 66.633 11.693C66.9635 11.4332 67.4167 11.3033 67.9926 11.3033C68.7574 11.3033 69.3428 11.5407 69.7488 12.0156C70.1549 12.4905 70.3578 13.167 70.3578 14.045V18.4802H68.545V14.2198C68.545 13.718 68.4506 13.3417 68.2617 13.0908C68.0729 12.8399 67.7613 12.7145 67.327 12.7145C67.1382 12.7145 66.954 12.7414 66.7746 12.7951C66.6047 12.8399 66.4489 12.9116 66.3073 13.0102C66.1751 13.0998 66.0665 13.2162 65.9815 13.3596C65.8965 13.494 65.854 13.6553 65.854 13.8434V18.4802H64.0412Z" fill="white"/>
<path d="M76.9562 17.311H76.8854C76.7532 17.7142 76.503 18.0367 76.1348 18.2786C75.7665 18.5206 75.3369 18.6415 74.8459 18.6415C73.9112 18.6415 73.1936 18.3234 72.6932 17.6873C72.2022 17.0511 71.9567 16.1417 71.9567 14.959C71.9567 13.7852 72.2022 12.8847 72.6932 12.2575C73.1936 11.6214 73.9112 11.3033 74.8459 11.3033C75.3369 11.3033 75.7665 11.4242 76.1348 11.6662C76.503 11.8991 76.7532 12.2172 76.8854 12.6204H76.9562V8.53464H78.7691V18.4802H76.9562V17.311ZM75.4266 17.2169C75.8609 17.2169 76.2245 17.1183 76.5172 16.9212C76.8099 16.7241 76.9562 16.4418 76.9562 16.0745V13.8434C76.9562 13.503 76.8099 13.2297 76.5172 13.0236C76.2245 12.8175 75.8609 12.7145 75.4266 12.7145C74.9545 12.7145 74.5721 12.8668 74.2794 13.1714C73.9962 13.4671 73.8545 13.8658 73.8545 14.3676V15.5772C73.8545 16.079 73.9962 16.4777 74.2794 16.7734C74.5721 17.069 74.9545 17.2169 75.4266 17.2169Z" fill="white"/>
<path d="M83.848 18.6415C83.3004 18.6415 82.8094 18.5564 82.3751 18.3862C81.9502 18.207 81.5867 17.9606 81.2845 17.647C80.9918 17.3244 80.7652 16.9391 80.6047 16.4911C80.4442 16.0342 80.3639 15.5234 80.3639 14.959C80.3639 14.4034 80.4395 13.9017 80.5905 13.4537C80.7511 13.0057 80.9777 12.6249 81.2704 12.3113C81.563 11.9887 81.9218 11.7423 82.3467 11.5721C82.7716 11.3929 83.2532 11.3033 83.7914 11.3033C84.3673 11.3033 84.8677 11.3974 85.2926 11.5855C85.7175 11.7737 86.0669 12.029 86.3407 12.3516C86.6145 12.6742 86.8175 13.0505 86.9497 13.4806C87.0913 13.9017 87.1621 14.3542 87.1621 14.838V15.4025H82.2476V15.5772C82.2476 16.0879 82.3987 16.5001 82.7008 16.8137C83.003 17.1183 83.4514 17.2706 84.0463 17.2706C84.4995 17.2706 84.8677 17.181 85.151 17.0018C85.4437 16.8226 85.7033 16.5942 85.93 16.3164L86.9072 17.3513C86.605 17.7545 86.1896 18.0726 85.6609 18.3055C85.1415 18.5295 84.5373 18.6415 83.848 18.6415ZM83.8197 12.5935C83.3381 12.5935 82.9557 12.7458 82.6725 13.0505C82.3892 13.3551 82.2476 13.7494 82.2476 14.2332V14.3407H85.2785V14.2198C85.2785 13.7359 85.151 13.3462 84.8961 13.0505C84.6506 12.7458 84.2918 12.5935 83.8197 12.5935Z" fill="white"/>
<path d="M88.7571 18.4802V11.4646H90.57V12.9161H90.6408C90.688 12.7279 90.7588 12.5487 90.8532 12.3785C90.9571 12.1993 91.0893 12.0425 91.2498 11.9081C91.4103 11.7737 91.5991 11.6662 91.8163 11.5855C92.0429 11.5049 92.3026 11.4646 92.5953 11.4646H92.9918V13.0908H92.4253C91.8116 13.0908 91.3489 13.1759 91.0373 13.3462C90.7257 13.5164 90.57 13.7942 90.57 14.1794V18.4802H88.7571Z" fill="white"/>
<path d="M100.871 17.0287H100.815C100.73 17.4857 100.461 17.871 100.007 18.1846C99.5635 18.4892 98.9687 18.6415 98.2228 18.6415C97.6374 18.6415 97.0945 18.5385 96.5941 18.3324C96.1031 18.1263 95.6735 17.8217 95.3052 17.4185C94.9464 17.0063 94.6632 16.5001 94.4555 15.8998C94.2477 15.2994 94.1439 14.605 94.1439 13.8166C94.1439 13.0281 94.2477 12.3337 94.4555 11.7334C94.6726 11.1241 94.9748 10.6134 95.3619 10.2012C95.749 9.78903 96.2117 9.47544 96.7498 9.2604C97.288 9.04536 97.8876 8.93784 98.5485 8.93784C99.4361 8.93784 100.191 9.12152 100.815 9.48888C101.438 9.85624 101.929 10.3849 102.288 11.0748L100.772 11.9215C100.593 11.5183 100.324 11.1823 99.9648 10.9135C99.6155 10.6447 99.1434 10.5103 98.5485 10.5103C97.8121 10.5103 97.2219 10.7254 96.7782 11.1554C96.3438 11.5766 96.1267 12.2038 96.1267 13.037V14.5423C96.1267 15.3666 96.3486 15.9938 96.7923 16.4239C97.2361 16.854 97.8309 17.069 98.5769 17.069C98.8696 17.069 99.1434 17.0377 99.3983 16.975C99.6532 16.9033 99.8751 16.8002 100.064 16.6658C100.253 16.5314 100.404 16.3657 100.517 16.1686C100.63 15.9714 100.687 15.7385 100.687 15.4697V14.8649H98.7468V13.373H102.486V18.4802H100.871V17.0287Z" fill="white"/>
<path d="M104.538 18.4802V11.4646H106.351V12.9161H106.422C106.469 12.7279 106.54 12.5487 106.634 12.3785C106.738 12.1993 106.87 12.0425 107.031 11.9081C107.191 11.7737 107.38 11.6662 107.597 11.5855C107.824 11.5049 108.084 11.4646 108.376 11.4646H108.773V13.0908H108.206C107.593 13.0908 107.13 13.1759 106.818 13.3462C106.507 13.5164 106.351 13.7942 106.351 14.1794V18.4802H104.538Z" fill="white"/>
<path d="M115.385 18.4802C114.988 18.4802 114.672 18.3727 114.436 18.1577C114.209 17.9337 114.068 17.638 114.011 17.2706H113.926C113.803 17.7276 113.553 18.0726 113.175 18.3055C112.798 18.5295 112.33 18.6415 111.773 18.6415C111.018 18.6415 110.437 18.4534 110.031 18.077C109.625 17.7007 109.422 17.199 109.422 16.5718C109.422 15.846 109.696 15.3084 110.244 14.959C110.791 14.6006 111.57 14.4214 112.58 14.4214H113.841V13.9106C113.841 13.5164 113.732 13.2118 113.515 12.9967C113.298 12.7817 112.949 12.6742 112.467 12.6742C112.042 12.6742 111.698 12.7638 111.433 12.943C111.178 13.1132 110.961 13.3193 110.782 13.5612L109.705 12.6473C109.979 12.2441 110.343 11.9215 110.796 11.6796C111.249 11.4287 111.849 11.3033 112.595 11.3033C113.595 11.3033 114.355 11.5183 114.875 11.9484C115.394 12.3785 115.654 12.9967 115.654 13.8031V17.1094H116.39V18.4802H115.385ZM112.382 17.3916C112.788 17.3916 113.133 17.3065 113.416 17.1362C113.699 16.966 113.841 16.7151 113.841 16.3836V15.4562H112.68C111.735 15.4562 111.263 15.743 111.263 16.3164V16.5449C111.263 16.8316 111.358 17.0466 111.547 17.19C111.745 17.3244 112.023 17.3916 112.382 17.3916Z" fill="white"/>
<path d="M117.857 11.4646H119.67V12.6204H119.727C119.859 12.2172 120.109 11.8991 120.478 11.6662C120.846 11.4242 121.275 11.3033 121.766 11.3033C122.711 11.3033 123.428 11.6214 123.919 12.2575C124.42 12.8847 124.67 13.7852 124.67 14.959C124.67 16.1417 124.42 17.0511 123.919 17.6873C123.428 18.3234 122.711 18.6415 121.766 18.6415C121.275 18.6415 120.846 18.5206 120.478 18.2786C120.119 18.0367 119.869 17.7142 119.727 17.311H119.67V21.1682H117.857V11.4646ZM121.186 17.2169C121.658 17.2169 122.04 17.069 122.333 16.7734C122.626 16.4777 122.772 16.079 122.772 15.5772V14.3676C122.772 13.8658 122.626 13.4671 122.333 13.1714C122.04 12.8668 121.658 12.7145 121.186 12.7145C120.751 12.7145 120.388 12.8175 120.095 13.0236C119.812 13.2297 119.67 13.503 119.67 13.8434V16.0745C119.67 16.4418 119.812 16.7241 120.095 16.9212C120.388 17.1183 120.751 17.2169 121.186 17.2169Z" fill="white"/>
<path d="M126.35 8.53464H128.162V12.6338H128.233C128.384 12.2575 128.62 11.9439 128.941 11.693C129.272 11.4332 129.725 11.3033 130.301 11.3033C131.066 11.3033 131.651 11.5407 132.057 12.0156C132.463 12.4905 132.666 13.167 132.666 14.045V18.4802H130.853V14.2198C130.853 13.718 130.759 13.3417 130.57 13.0908C130.381 12.8399 130.07 12.7145 129.635 12.7145C129.447 12.7145 129.262 12.7414 129.083 12.7951C128.913 12.8399 128.757 12.9116 128.616 13.0102C128.484 13.0998 128.375 13.2162 128.29 13.3596C128.205 13.494 128.162 13.6553 128.162 13.8434V18.4802H126.35V8.53464Z" fill="white"/>
</g>
<defs>
<clipPath id="clip0_2654_1496986">
<rect width="133" height="28" fill="white"/>
</clipPath>
</defs>
</svg>
