<svg width="146" height="28" viewBox="0 0 146 28" fill="none" xmlns="http://www.w3.org/2000/svg">
<mask id="mask0_3956_9219" style="mask-type:luminance" maskUnits="userSpaceOnUse" x="0" y="1" width="146" height="27">
<path d="M0 1H145.903V27.39H0V1Z" fill="white"/>
</mask>
<g mask="url(#mask0_3956_9219)">
<path fill-rule="evenodd" clip-rule="evenodd" d="M141.432 9.32033H138.328V8.25468H145.829V9.32033H142.725V18.9357H141.432V9.31907V9.32033ZM130.798 8.26473H137.015V9.32033H132.092V12.9477H136.058V14.0127H132.092V17.8801H137.283V18.9451H130.798V8.26473ZM118.038 8.26473H119.838L123.134 16.5839L126.324 8.26473H128.115V18.9357H126.822V9.95306L123.287 18.9357H122.885L119.225 9.95306V18.9357H118.038V8.26473ZM105.421 13.6766V13.5522C105.421 10.5198 107.538 8.12964 110.67 8.12964C113.803 8.12964 115.872 10.5198 115.872 13.5233V13.6477C115.872 16.6612 113.803 19.0796 110.699 19.0796C107.557 19.0796 105.421 16.6612 105.421 13.6766ZM114.531 13.6288V13.5138C114.531 11.1243 113.132 9.17581 110.67 9.17581C108.199 9.17581 106.762 10.9992 106.762 13.5427V13.6577C106.762 16.2483 108.477 18.0045 110.699 18.0045C113.075 18.0045 114.531 16.21 114.531 13.6288ZM101.895 8.26473H103.188V18.9451H101.895V8.26473ZM92.5448 8.26473H95.7449C97.728 8.26473 99.1744 8.92637 99.1744 11.0281V11.0859C99.1744 12.0649 98.7911 12.9282 97.5652 13.341C99.1172 13.7149 99.7016 14.5116 99.7016 15.9034V15.9606C99.7016 17.9756 98.3312 18.9451 96.1948 18.9451H92.5448V8.26473ZM95.7449 12.9282C97.3158 12.9282 97.9102 12.3621 97.9102 11.0476V10.9898C97.9102 9.77085 97.2108 9.28137 95.716 9.28137H93.8097V12.9282H95.7449ZM96.1666 17.9279C97.7185 17.9279 98.4273 17.2468 98.4273 15.9417V15.8839C98.4273 14.5694 97.6991 13.9455 95.9843 13.9455H93.8097V17.9279H96.1666ZM79.2292 8.2641H82.4381C84.4789 8.2641 86.1647 9.09979 86.1647 11.2393V11.2971C86.1647 13.0627 84.9866 13.926 83.5207 14.2144L86.7874 18.9451H85.341L82.1604 14.3005H80.5223V18.9451H79.2292V8.26473V8.2641ZM82.5242 13.2644C84.0479 13.2644 84.8622 12.6115 84.8622 11.2971V11.2393C84.8622 9.79032 83.9712 9.31028 82.5242 9.31028H80.5223V13.2644H82.5242ZM70.7982 8.26473H77.0162V9.32976H72.0919V12.9571H76.058V14.0127H72.0919V17.8801H77.2839V18.9451H70.7982V8.26473ZM58.0286 8.26473H59.8388L63.1344 16.5839L66.3245 8.26473H68.1159V18.9451H66.8133V9.95369L63.2783 18.9451H62.8756L59.2262 9.95369V18.9451H58.0286V8.26473ZM45.2678 8.26473H47.0786L50.3742 16.5839L53.5643 8.26473H55.355V18.9451H54.0525V9.95369L50.5181 18.9451H50.116L46.4654 9.95369V18.9451H45.2684L45.2678 8.26473ZM41.215 8.26473H42.5182V18.9357H41.2156L41.215 8.26473ZM31.3489 18.734L37.3841 9.32976H31.8849V8.26473H39.1754V8.4658L33.303 17.8418H39.0894V18.9451H31.3477V18.734H31.3489Z" fill="white" stroke="white" stroke-width="0.4"/>
<path fill-rule="evenodd" clip-rule="evenodd" d="M13.1458 27.3227C5.88412 27.3227 0.0117188 21.4503 0.0117188 14.166C0.0117188 6.89245 5.88412 1.01062 13.1458 1.01062C20.4169 1.01062 26.2893 6.89308 26.2893 14.1673C26.2893 21.4509 20.4169 27.3227 13.1458 27.3227ZM4.24606 22.6021L13.1169 5.73129L13.0308 5.72249C8.65256 5.72249 5.0409 9.11927 4.6771 13.4183V5.36686H21.6911C19.4069 3.13547 16.339 1.88846 13.1458 1.89343C5.80684 1.89343 0.893271 6.81642 0.893271 14.1673C0.893271 17.4397 2.1669 20.4048 4.24606 22.6021ZM4.46598 22.8232C5.60022 23.9728 6.95165 24.8855 8.44173 25.5082C9.93181 26.131 11.5308 26.4513 13.1458 26.4506C19.9192 26.4506 25.4083 20.9514 25.4083 14.1667C25.4083 10.8277 24.0668 7.79537 21.911 5.57798L13.1169 22.477C17.3129 22.4286 20.7618 19.2914 21.3173 15.2317V22.822H4.46598V22.8232Z" fill="white"/>
</g>
</svg>
