<svg width="44" height="44" viewBox="0 0 44 44" fill="none" xmlns="http://www.w3.org/2000/svg">
<rect width="44" height="44" rx="6.75" fill="#AA99FF"/>
<path fill-rule="evenodd" clip-rule="evenodd" d="M31.7032 13.2408C29.9186 12.4351 28.0048 11.8414 26.0039 11.5014C25.9674 11.4949 25.931 11.5113 25.9123 11.5441C25.6661 11.9748 25.3935 12.5367 25.2026 12.9784C23.0505 12.6614 20.9094 12.6614 18.8014 12.9784C18.6104 12.5269 18.3279 11.9748 18.0807 11.5441C18.0619 11.5124 18.0255 11.496 17.9891 11.5014C15.9892 11.8403 14.0755 12.434 12.2898 13.2408C12.2743 13.2473 12.261 13.2583 12.2523 13.2725C8.62229 18.6086 7.62789 23.8136 8.11571 28.9541C8.11792 28.9792 8.13226 29.0033 8.15213 29.0186C10.5471 30.7492 12.867 31.7998 15.1438 32.4962C15.1803 32.5071 15.2189 32.494 15.2421 32.4645C15.7806 31.7408 16.2607 30.9777 16.6724 30.1752C16.6967 30.1282 16.6735 30.0725 16.6238 30.0539C15.8623 29.7696 15.1372 29.4231 14.4397 29.0295C14.3845 28.9978 14.3801 28.9202 14.4309 28.883C14.5776 28.7748 14.7245 28.6621 14.8646 28.5484C14.89 28.5277 14.9253 28.5233 14.9551 28.5364C19.5375 30.595 24.4985 30.595 29.0268 28.5364C29.0566 28.5222 29.0919 28.5266 29.1184 28.5474C29.2586 28.6611 29.4054 28.7748 29.5533 28.883C29.604 28.9202 29.6007 28.9978 29.5455 29.0295C28.848 29.4307 28.1229 29.7696 27.3603 30.0528C27.3106 30.0714 27.2885 30.1282 27.3128 30.1752C27.7333 30.9766 28.2134 31.7396 28.742 32.4634C28.7641 32.494 28.8038 32.5071 28.8403 32.4962C31.1282 31.7998 33.4481 30.7492 35.843 29.0186C35.864 29.0033 35.8772 28.9803 35.8794 28.9552C36.4633 23.0122 34.9016 17.8499 31.7396 13.2736C31.7319 13.2583 31.7186 13.2473 31.7032 13.2408ZM19.6671 23.1667C19.6671 24.4553 18.6224 25.5 17.3337 25.5C16.0451 25.5 15.0004 24.4553 15.0004 23.1667C15.0004 21.878 16.0451 20.8333 17.3337 20.8333C18.6224 20.8333 19.6671 21.878 19.6671 23.1667ZM26.6672 25.5C27.9559 25.5 29.0005 24.4553 29.0005 23.1667C29.0005 21.878 27.9559 20.8333 26.6672 20.8333C25.3785 20.8333 24.3339 21.878 24.3339 23.1667C24.3339 24.4553 25.3785 25.5 26.6672 25.5Z" fill="#1A1A1A"/>
</svg>
