<svg width="372" height="218" viewBox="0 0 372 218" fill="none" xmlns="http://www.w3.org/2000/svg">
<path fill-rule="evenodd" clip-rule="evenodd" d="M87 101.862C87 95.8631 91.8355 91 97.8005 91H138.842C144.807 91 149.643 95.8631 149.643 101.862V136.967C149.643 143.173 141.834 145.867 138.046 140.967L126.206 125.649V144.224C126.206 149.623 121.854 154 116.485 154H97.8005C91.8355 154 87 149.137 87 143.138V101.862ZM97.8005 99.6897C96.6075 99.6897 95.6404 100.662 95.6404 101.862V143.138C95.6404 144.338 96.6075 145.31 97.8005 145.31H116.809C117.406 145.31 117.565 144.824 117.565 144.224V119.314C117.565 113.108 125.374 110.415 129.162 115.315L141.002 130.633V101.862C141.002 100.662 141.115 99.6897 139.922 99.6897H97.8005Z" fill="#12FFF7"/>
<path fill-rule="evenodd" clip-rule="evenodd" d="M87 101.862C87 95.8631 91.8355 91 97.8005 91H138.842C144.807 91 149.643 95.8631 149.643 101.862V136.967C149.643 143.173 141.834 145.867 138.046 140.967L126.206 125.649V144.224C126.206 149.623 121.854 154 116.485 154H97.8005C91.8355 154 87 149.137 87 143.138V101.862ZM97.8005 99.6897C96.6075 99.6897 95.6404 100.662 95.6404 101.862V143.138C95.6404 144.338 96.6075 145.31 97.8005 145.31H116.809C117.406 145.31 117.565 144.824 117.565 144.224V119.314C117.565 113.108 125.374 110.415 129.162 115.315L141.002 130.633V101.862C141.002 100.662 141.115 99.6897 139.922 99.6897H97.8005Z" fill="url(#paint0_linear_10558_12020)"/>
<path fill-rule="evenodd" clip-rule="evenodd" d="M87 101.862C87 95.8631 91.8355 91 97.8005 91H138.842C144.807 91 149.643 95.8631 149.643 101.862V136.967C149.643 143.173 141.834 145.867 138.046 140.967L126.206 125.649V144.224C126.206 149.623 121.854 154 116.485 154H97.8005C91.8355 154 87 149.137 87 143.138V101.862ZM97.8005 99.6897C96.6075 99.6897 95.6404 100.662 95.6404 101.862V143.138C95.6404 144.338 96.6075 145.31 97.8005 145.31H116.809C117.406 145.31 117.565 144.824 117.565 144.224V119.314C117.565 113.108 125.374 110.415 129.162 115.315L141.002 130.633V101.862C141.002 100.662 141.115 99.6897 139.922 99.6897H97.8005Z" fill="url(#paint1_linear_10558_12020)"/>
<path d="M138.841 91C144.805 91 149.641 95.8631 149.641 101.862V136.967C149.641 143.173 141.832 145.867 138.045 140.967L126.205 125.649V144.224C126.205 149.623 121.853 154 116.484 154C117.081 154 117.564 153.514 117.564 152.914V119.314C117.564 113.108 125.373 110.415 129.161 115.315L141.001 130.633V93.1724C141.001 91.9726 140.034 91 138.841 91Z" fill="#B9FFB3"/>
<path d="M192.597 109.55V126.028L176.71 109.55H168.441V136.5H175.983V118.79L193.286 136.5H200.139V109.55H192.597Z" fill="white"/>
<path d="M214.119 130.494V125.72H231.001V119.983H214.119V115.556H234.599V109.55H206.424V136.5H235.02V130.494H214.119Z" fill="white"/>
<path d="M255.06 137.385C265.664 137.385 272.555 132.149 272.555 123.025C272.555 113.9 265.664 108.664 255.06 108.664C244.456 108.664 237.604 113.9 237.604 123.025C237.604 132.149 244.456 137.385 255.06 137.385ZM255.06 130.994C249.165 130.994 245.528 128.107 245.528 123.025C245.528 117.943 249.203 115.055 255.06 115.055C260.956 115.055 264.593 117.943 264.593 123.025C264.593 128.107 260.956 130.994 255.06 130.994Z" fill="white"/>
<path d="M301.46 109.55V126.028L285.574 109.55H277.305V136.5H284.846V118.79L302.149 136.5H309.002V109.55H301.46Z" fill="white"/>
<rect opacity="0.2" x="372" y="154" width="63" height="348" transform="rotate(90 372 154)" fill="#242628"/>
<rect opacity="0.2" x="87" y="217" width="63" height="189" transform="rotate(-180 87 217)" fill="#242628"/>
<rect opacity="0.2" x="372" y="217" width="63" height="189" transform="rotate(-180 372 217)" fill="#242628"/>
<rect opacity="0.2" x="372" y="28" width="63" height="348" transform="rotate(90 372 28)" fill="#242628"/>
<path d="M53.869 1.27273L56.119 4.90341H56.1871L58.4371 1.27273L59.6815 1.27273L56.9371 5.63636L59.6815 10H58.4371L56.1871 6.4375H56.119L53.869 10H52.6246L55.4371 5.63636L52.6246 1.27273L53.869 1.27273Z" fill="#61646B"/>
<path d="M1.86896 55.2727L4.11896 58.9034H4.18715L6.43714 55.2727H7.68146L4.93715 59.6364L7.68146 64H6.43714L4.18715 60.4375H4.11896L1.86896 64H0.624645L3.43715 59.6364L0.624645 55.2727H1.86896Z" fill="#61646B"/>
<path d="M1.86896 118.273L4.11896 121.903H4.18715L6.43714 118.273H7.68146L4.93715 122.636L7.68146 127H6.43714L4.18715 123.438H4.11896L1.86896 127H0.624645L3.43715 122.636L0.624645 118.273H1.86896Z" fill="#61646B"/>
<path d="M1.86896 181.273L4.11896 184.903H4.18715L6.43714 181.273H7.68146L4.93715 185.636L7.68146 190H6.43714L4.18715 186.438H4.11896L1.86896 190H0.624645L3.43715 185.636L0.624645 181.273H1.86896Z" fill="#61646B"/>
<path opacity="0.7" d="M14.2828 27.7172C14.1266 27.5609 13.8734 27.5609 13.7172 27.7172L11.1716 30.2627C11.0154 30.419 11.0154 30.6722 11.1716 30.8284C11.3278 30.9846 11.581 30.9846 11.7373 30.8284L14 28.5657L16.2627 30.8284C16.419 30.9846 16.6722 30.9846 16.8284 30.8284C16.9846 30.6722 16.9846 30.419 16.8284 30.2627L14.2828 27.7172ZM13.7172 91.2828C13.8734 91.439 14.1266 91.439 14.2828 91.2828L16.8284 88.7373C16.9846 88.581 16.9846 88.3278 16.8284 88.1716C16.6722 88.0154 16.419 88.0154 16.2627 88.1716L14 90.4343L11.7373 88.1716C11.5811 88.0154 11.3278 88.0154 11.1716 88.1716C11.0154 88.3278 11.0154 88.581 11.1716 88.7373L13.7172 91.2828ZM13.6 28L13.6 91L14.4 91L14.4 28L13.6 28Z" fill="#494B50"/>
<path opacity="0.7" d="M14.2828 154.717C14.1266 154.561 13.8734 154.561 13.7172 154.717L11.1716 157.263C11.0154 157.419 11.0154 157.672 11.1716 157.828C11.3278 157.985 11.581 157.985 11.7373 157.828L14 155.566L16.2627 157.828C16.419 157.985 16.6722 157.985 16.8284 157.828C16.9846 157.672 16.9846 157.419 16.8284 157.263L14.2828 154.717ZM13.7172 217.283C13.8734 217.439 14.1266 217.439 14.2828 217.283L16.8284 214.737C16.9846 214.581 16.9846 214.328 16.8284 214.172C16.6722 214.015 16.419 214.015 16.2627 214.172L14 216.434L11.7373 214.172C11.5811 214.015 11.3278 214.015 11.1716 214.172C11.0154 214.328 11.0154 214.581 11.1716 214.737L13.7172 217.283ZM13.6 155L13.6 217L14.4 217L14.4 155L13.6 155Z" fill="#494B50"/>
<path opacity="0.7" d="M14.2828 91.7172C14.1266 91.5609 13.8734 91.5609 13.7172 91.7172L11.1716 94.2627C11.0154 94.419 11.0154 94.6722 11.1716 94.8284C11.3278 94.9846 11.581 94.9846 11.7373 94.8284L14 92.5657L16.2627 94.8284C16.419 94.9846 16.6722 94.9846 16.8284 94.8284C16.9846 94.6722 16.9846 94.419 16.8284 94.2627L14.2828 91.7172ZM13.7172 154.283C13.8734 154.439 14.1266 154.439 14.2828 154.283L16.8284 151.737C16.9846 151.581 16.9846 151.328 16.8284 151.172C16.6722 151.015 16.419 151.015 16.2627 151.172L14 153.434L11.7373 151.172C11.5811 151.015 11.3278 151.015 11.1716 151.172C11.0154 151.328 11.0154 151.581 11.1716 151.737L13.7172 154.283ZM13.6 92L13.6 154L14.4 154L14.4 92L13.6 92Z" fill="#494B50"/>
<path opacity="0.7" d="M87.2828 18.2828C87.4391 18.1266 87.4391 17.8734 87.2828 17.7172L84.7373 15.1716C84.581 15.0154 84.3278 15.0154 84.1716 15.1716C84.0154 15.3278 84.0154 15.581 84.1716 15.7373L86.4343 18L84.1716 20.2627C84.0154 20.419 84.0154 20.6722 84.1716 20.8284C84.3278 20.9846 84.581 20.9846 84.7373 20.8284L87.2828 18.2828ZM23.7172 17.7172C23.5609 17.8734 23.5609 18.1266 23.7172 18.2828L26.2627 20.8284C26.419 20.9846 26.6722 20.9846 26.8284 20.8284C26.9846 20.6722 26.9846 20.419 26.8284 20.2627L24.5657 18L26.8284 15.7373C26.9846 15.581 26.9846 15.3278 26.8284 15.1716C26.6722 15.0154 26.419 15.0154 26.2627 15.1716L23.7172 17.7172ZM87 17.6L24 17.6V18.4L87 18.4V17.6Z" fill="#494B50"/>
<defs>
<linearGradient id="paint0_linear_10558_12020" x1="149.643" y1="154" x2="94.2066" y2="91.3128" gradientUnits="userSpaceOnUse">
<stop stop-color="#B9FFB3"/>
<stop offset="1" stop-color="#B9FFB3" stop-opacity="0"/>
</linearGradient>
<linearGradient id="paint1_linear_10558_12020" x1="149.643" y1="154" x2="112.38" y2="139.588" gradientUnits="userSpaceOnUse">
<stop stop-color="#1A1A1A" stop-opacity="0.9"/>
<stop offset="1" stop-color="#1A1A1A" stop-opacity="0"/>
</linearGradient>
</defs>
</svg>
