<svg width="20" height="20" viewBox="0 0 20 20" fill="none" xmlns="http://www.w3.org/2000/svg">
<g clip-path="url(#clip0_4135_55643)">
<path fill-rule="evenodd" clip-rule="evenodd" d="M13.75 1.75C12.6454 1.75 11.75 2.64543 11.75 3.75C11.75 4.85457 12.6454 5.75 13.75 5.75C14.8546 5.75 15.75 4.85457 15.75 3.75C15.75 2.64543 14.8546 1.75 13.75 1.75ZM10.75 3.75C10.75 2.09315 12.0931 0.75 13.75 0.75C15.4069 0.75 16.75 2.09315 16.75 3.75C16.75 5.40685 15.4069 6.75 13.75 6.75C12.0931 6.75 10.75 5.40685 10.75 3.75ZM5.08398 8.75C5.08398 7.64543 5.97941 6.75 7.08398 6.75C8.18855 6.75 9.08398 7.64543 9.08398 8.75C9.08398 9.85457 8.18855 10.75 7.08398 10.75C5.97941 10.75 5.08398 9.85457 5.08398 8.75ZM7.08398 5.75C5.42713 5.75 4.08398 7.09315 4.08398 8.75C4.08398 10.4069 5.42713 11.75 7.08398 11.75C8.74084 11.75 10.084 10.4069 10.084 8.75C10.084 7.09315 8.74084 5.75 7.08398 5.75ZM7.08333 13.25C3.58552 13.25 0.75 16.0855 0.75 19.5833C0.75 19.8595 0.973858 20.0833 1.25 20.0833H12.9167C13.1928 20.0833 13.4167 19.8595 13.4167 19.5833C13.4167 16.0855 10.5811 13.25 7.08333 13.25ZM7.08333 14.25C9.86025 14.25 12.1415 16.3723 12.3935 19.0833H1.77313C2.02519 16.3723 4.30642 14.25 7.08333 14.25ZM13.7493 8.25C13.4424 8.25 13.1411 8.27168 12.8449 8.31425C12.5715 8.35354 12.3818 8.60697 12.4211 8.8803C12.4604 9.15364 12.7138 9.34337 12.9872 9.30408C13.2359 9.26832 13.4897 9.25 13.7493 9.25C16.5263 9.25 18.8075 11.3723 19.0596 14.0833H14.5827C14.3065 14.0833 14.0827 14.3072 14.0827 14.5833C14.0827 14.8595 14.3065 15.0833 14.5827 15.0833H19.5827C19.8588 15.0833 20.0827 14.8595 20.0827 14.5833C20.0827 11.0855 17.2472 8.25 13.7493 8.25Z" fill="url(#paint0_linear_4135_55643)"/>
</g>
<defs>
<linearGradient id="paint0_linear_4135_55643" x1="10.4562" y1="-1.88774" x2="10.4562" y2="24.0234" gradientUnits="userSpaceOnUse">
<stop offset="0.295137" stop-color="#E5E5E5"/>
<stop offset="1" stop-color="#E5E5E5" stop-opacity="0.4"/>
</linearGradient>
<clipPath id="clip0_4135_55643">
<rect width="20" height="20" fill="white"/>
</clipPath>
</defs>
</svg>
