<svg width="16" height="16" viewBox="0 0 16 16" fill="none" xmlns="http://www.w3.org/2000/svg">
<path fill-rule="evenodd" clip-rule="evenodd" d="M12.4414 1.4375C12.4414 1.16136 12.2175 0.9375 11.9414 0.9375C11.6653 0.9375 11.4414 1.16136 11.4414 1.4375C11.4414 2.00109 11.2175 2.54159 10.819 2.9401C10.4205 3.33862 9.87999 3.5625 9.31641 3.5625C9.04026 3.5625 8.81641 3.78636 8.81641 4.0625C8.81641 4.33864 9.04026 4.5625 9.31641 4.5625C9.87999 4.5625 10.4205 4.78638 10.819 5.1849C11.2175 5.58341 11.4414 6.12391 11.4414 6.6875C11.4414 6.96364 11.6653 7.1875 11.9414 7.1875C12.2175 7.1875 12.4414 6.96364 12.4414 6.6875C12.4414 6.12391 12.6653 5.58341 13.0638 5.1849C13.4623 4.78638 14.0028 4.5625 14.5664 4.5625C14.8425 4.5625 15.0664 4.33864 15.0664 4.0625C15.0664 3.78636 14.8425 3.5625 14.5664 3.5625C14.0028 3.5625 13.4623 3.33862 13.0638 2.9401C12.6653 2.54159 12.4414 2.00109 12.4414 1.4375ZM11.5261 3.64721C11.6835 3.48978 11.8224 3.31728 11.9414 3.1331C12.0604 3.31728 12.1993 3.48978 12.3567 3.64721C12.5141 3.80464 12.6866 3.94354 12.8708 4.0625C12.6866 4.18146 12.5141 4.32036 12.3567 4.47779C12.1993 4.63522 12.0604 4.80772 11.9414 4.9919C11.8224 4.80772 11.6835 4.63522 11.5261 4.47779C11.3687 4.32036 11.1962 4.18146 11.012 4.0625C11.1962 3.94354 11.3687 3.80464 11.5261 3.64721ZM6.31641 5.8125C6.31641 5.53636 6.09255 5.3125 5.81641 5.3125C5.54026 5.3125 5.31641 5.53636 5.31641 5.8125C5.31641 6.32137 5.21618 6.82526 5.02144 7.2954C4.8267 7.76554 4.54127 8.19271 4.18145 8.55254C3.82162 8.91237 3.39444 9.1978 2.9243 9.39253C2.45417 9.58727 1.95028 9.6875 1.44141 9.6875C1.16526 9.6875 0.941406 9.91136 0.941406 10.1875C0.941406 10.4636 1.16526 10.6875 1.44141 10.6875C1.95028 10.6875 2.45417 10.7877 2.9243 10.9825C3.39444 11.1772 3.82162 11.4626 4.18145 11.8225C4.54127 12.1823 4.8267 12.6095 5.02144 13.0796C5.21618 13.5497 5.31641 14.0536 5.31641 14.5625C5.31641 14.8386 5.54026 15.0625 5.81641 15.0625C6.09255 15.0625 6.31641 14.8386 6.31641 14.5625C6.31641 13.5348 6.72466 12.5492 7.45137 11.8225C8.17807 11.0958 9.16369 10.6875 10.1914 10.6875C10.4675 10.6875 10.6914 10.4636 10.6914 10.1875C10.6914 9.91136 10.4675 9.6875 10.1914 9.6875C9.16369 9.6875 8.17807 9.27924 7.45137 8.55254C6.72466 7.82584 6.31641 6.84021 6.31641 5.8125ZM4.88855 9.25965C5.26739 8.88081 5.58068 8.44262 5.8164 7.96308C6.05027 8.43887 6.3623 8.87768 6.74426 9.25965C7.12622 9.64161 7.56504 9.95364 8.04082 10.1875C7.56504 10.4214 7.12622 10.7334 6.74426 11.1154C6.3623 11.4973 6.05027 11.9361 5.8164 12.4119C5.58068 11.9324 5.26739 11.4942 4.88855 11.1154C4.50971 10.7365 4.07153 10.4232 3.59199 10.1875C4.07153 9.95178 4.50971 9.63849 4.88855 9.25965Z" fill="currentColor"/>
</svg>
