<svg width="20" height="20" viewBox="0 0 20 20" fill="none" xmlns="http://www.w3.org/2000/svg">
<g opacity="0.8">
<path fill-rule="evenodd" clip-rule="evenodd" d="M15.4264 1.79688C15.4264 1.52074 15.2026 1.29688 14.9264 1.29688C14.6503 1.29688 14.4264 1.52074 14.4264 1.79688C14.4264 2.53452 14.1334 3.24194 13.6118 3.76353C13.0902 4.28511 12.3828 4.57813 11.6452 4.57813C11.369 4.57813 11.1452 4.80199 11.1452 5.07813C11.1452 5.35428 11.369 5.57813 11.6452 5.57813C12.3828 5.57813 13.0902 5.87116 13.6118 6.39274C14.1334 6.91433 14.4264 7.62175 14.4264 8.35938C14.4264 8.63553 14.6503 8.85938 14.9264 8.85938C15.2026 8.85938 15.4264 8.63553 15.4264 8.35938C15.4264 7.62175 15.7195 6.91433 16.241 6.39274C16.7626 5.87116 17.4701 5.57813 18.2077 5.57813C18.4838 5.57813 18.7077 5.35428 18.7077 5.07813C18.7077 4.80199 18.4838 4.57813 18.2077 4.57813C17.4701 4.57813 16.7626 4.28511 16.241 3.76353C15.7195 3.24194 15.4264 2.53452 15.4264 1.79688ZM14.3189 4.47063C14.5578 4.23175 14.7614 3.9642 14.9264 3.67607C15.0914 3.9642 15.2951 4.23175 15.5339 4.47063C15.7728 4.70951 16.0404 4.91313 16.3285 5.07813C16.0404 5.24314 15.7728 5.44676 15.5339 5.68564C15.2951 5.92452 15.0914 6.19207 14.9264 6.48021C14.7614 6.19207 14.5578 5.92452 14.3189 5.68564C14.0801 5.44676 13.8125 5.24314 13.5244 5.07813C13.8125 4.91313 14.0801 4.70951 14.3189 4.47063ZM7.77018 7.26563C7.77018 6.98949 7.54633 6.76563 7.27018 6.76563C6.99404 6.76563 6.77018 6.98949 6.77018 7.26563C6.77018 7.91814 6.64166 8.56426 6.39196 9.16709C6.14226 9.76993 5.77626 10.3177 5.31487 10.7791C4.85348 11.2405 4.30573 11.6065 3.70289 11.8562C3.10005 12.1059 2.45394 12.2344 1.80143 12.2344C1.52529 12.2344 1.30143 12.4582 1.30143 12.7344C1.30143 13.0105 1.52529 13.2344 1.80143 13.2344C2.45394 13.2344 3.10005 13.3629 3.70289 13.6126C4.30573 13.8623 4.85348 14.2283 5.31487 14.6897C5.77626 15.1511 6.14226 15.6988 6.39196 16.3017C6.64166 16.9045 6.77018 17.5506 6.77018 18.2031C6.77018 18.4793 6.99404 18.7031 7.27018 18.7031C7.54633 18.7031 7.77018 18.4793 7.77018 18.2031C7.77018 16.8853 8.29367 15.6215 9.2255 14.6897C10.1573 13.7579 11.4211 13.2344 12.7389 13.2344C13.0151 13.2344 13.2389 13.0105 13.2389 12.7344C13.2389 12.4582 13.0151 12.2344 12.7389 12.2344C11.4211 12.2344 10.1573 11.7109 9.2255 10.7791C8.29367 9.84725 7.77018 8.58343 7.77018 7.26563ZM6.02198 11.4862C6.54874 10.9594 6.97199 10.3389 7.27018 9.65702C7.56571 10.3329 7.98672 10.9545 8.51839 11.4862C9.05006 12.0178 9.67171 12.4389 10.3475 12.7344C9.67171 13.0299 9.05006 13.4509 8.51839 13.9826C7.98672 14.5143 7.56571 15.1359 7.27018 15.8117C6.97199 15.1298 6.54874 14.5094 6.02198 13.9826C5.49521 13.4558 4.87475 13.0326 4.19282 12.7344C4.87475 12.4362 5.49521 12.0129 6.02198 11.4862Z" fill="url(#paint0_linear_4135_55511)"/>
</g>
<defs>
<linearGradient id="paint0_linear_4135_55511" x1="10.0046" y1="1.13022" x2="10.0046" y2="18.8698" gradientUnits="userSpaceOnUse">
<stop offset="0.229046" stop-color="#E5E5E5"/>
<stop offset="1" stop-color="#E5E5E5" stop-opacity="0.4"/>
</linearGradient>
</defs>
</svg>
