<svg width="18" height="18" viewBox="0 0 18 18" fill="none" xmlns="http://www.w3.org/2000/svg">
<path fill-rule="evenodd" clip-rule="evenodd" d="M14.034 1.61709C14.034 1.28572 13.7654 1.01709 13.434 1.01709C13.1026 1.01709 12.834 1.28572 12.834 1.61709C12.834 2.24118 12.5861 2.8397 12.1448 3.281C11.7035 3.7223 11.1049 3.97021 10.4809 3.97021C10.1495 3.97021 9.88086 4.23884 9.88086 4.57021C9.88086 4.90159 10.1495 5.17021 10.4809 5.17021C11.1049 5.17022 11.7035 5.41813 12.1448 5.85943C12.5861 6.30073 12.834 6.89925 12.834 7.52334C12.834 7.85471 13.1026 8.12334 13.434 8.12334C13.7654 8.12334 14.034 7.85471 14.034 7.52334C14.034 6.89925 14.2819 6.30073 14.7232 5.85943C15.1645 5.41813 15.763 5.17022 16.3871 5.17021C16.7185 5.17021 16.9871 4.90159 16.9871 4.57021C16.9871 4.23884 16.7185 3.97021 16.3871 3.97021C15.763 3.97021 15.1645 3.7223 14.7232 3.281C14.2819 2.8397 14.034 2.24118 14.034 1.61709ZM12.9933 4.12953C13.1586 3.96425 13.3059 3.78436 13.434 3.59291C13.5621 3.78436 13.7094 3.96425 13.8747 4.12953C14.0399 4.29481 14.2198 4.44212 14.4113 4.57021C14.2198 4.69831 14.0399 4.84562 13.8747 5.0109C13.7094 5.17618 13.5621 5.35606 13.434 5.54752C13.3059 5.35606 13.1586 5.17618 12.9933 5.0109C12.828 4.84562 12.6481 4.69831 12.4567 4.57021C12.6481 4.44212 12.828 4.29481 12.9933 4.12953ZM7.14336 6.53896C7.14336 6.20759 6.87473 5.93896 6.54336 5.93896C6.21199 5.93896 5.94336 6.20759 5.94336 6.53896C5.94336 7.10652 5.83157 7.66852 5.61438 8.19287C5.39718 8.71723 5.07883 9.19367 4.67751 9.59499C4.27619 9.99632 3.79975 10.3147 3.27539 10.5319C2.75104 10.7491 2.18904 10.8608 1.62148 10.8608C1.29011 10.8608 1.02148 11.1295 1.02148 11.4608C1.02148 11.7922 1.29011 12.0608 1.62148 12.0608C2.18904 12.0608 2.75104 12.1726 3.27539 12.3898C3.79975 12.607 4.27619 12.9254 4.67751 13.3267C5.07883 13.728 5.39718 14.2045 5.61438 14.7288C5.83157 15.2532 5.94336 15.8152 5.94336 16.3827C5.94336 16.7141 6.21199 16.9827 6.54336 16.9827C6.87473 16.9827 7.14336 16.7141 7.14336 16.3827C7.14336 15.2365 7.5987 14.1372 8.40921 13.3267C9.21972 12.5162 10.319 12.0608 11.4652 12.0608C11.7966 12.0608 12.0652 11.7922 12.0652 11.4608C12.0652 11.1295 11.7966 10.8608 11.4652 10.8608C10.319 10.8608 9.21972 10.4055 8.40921 9.59499C7.5987 8.78448 7.14336 7.6852 7.14336 6.53896ZM5.52604 10.4435C5.93736 10.0322 6.28046 9.55912 6.54336 9.04222C6.80426 9.55524 7.1461 10.0289 7.56068 10.4435C7.97525 10.8581 8.44896 11.1999 8.96197 11.4608C8.44896 11.7217 7.97525 12.0636 7.56068 12.4782C7.1461 12.8927 6.80426 13.3664 6.54336 13.8795C6.28046 13.3626 5.93736 12.8895 5.52604 12.4782C5.11472 12.0668 4.64163 11.7237 4.12473 11.4608C4.64163 11.1979 5.11472 10.8548 5.52604 10.4435Z" fill="white"/>
</svg>
