<svg width="44" height="44" viewBox="0 0 44 44" fill="none" xmlns="http://www.w3.org/2000/svg">
<rect width="44" height="44" rx="6.75" fill="#AA99FF"/>
<g clip-path="url(#clip0_24713_4630)">
<path d="M33.375 13.0625C32.7285 13.0625 32.1085 12.8057 31.6514 12.3486C31.1943 11.8915 30.9375 11.2715 30.9375 10.625C30.9375 10.4095 30.8519 10.2028 30.6995 10.0505C30.5472 9.8981 30.3405 9.8125 30.125 9.8125C29.9095 9.8125 29.7028 9.8981 29.5505 10.0505C29.3981 10.2028 29.3125 10.4095 29.3125 10.625C29.3125 11.2715 29.0557 11.8915 28.5986 12.3486C28.1415 12.8057 27.5215 13.0625 26.875 13.0625C26.6595 13.0625 26.4528 13.1481 26.3005 13.3005C26.1481 13.4528 26.0625 13.6595 26.0625 13.875C26.0625 14.0905 26.1481 14.2972 26.3005 14.4495C26.4528 14.6019 26.6595 14.6875 26.875 14.6875C27.5215 14.6875 28.1415 14.9443 28.5986 15.4014C29.0557 15.8585 29.3125 16.4785 29.3125 17.125C29.3125 17.3405 29.3981 17.5472 29.5505 17.6995C29.7028 17.8519 29.9095 17.9375 30.125 17.9375C30.3405 17.9375 30.5472 17.8519 30.6995 17.6995C30.8519 17.5472 30.9375 17.3405 30.9375 17.125C30.9375 16.4785 31.1943 15.8585 31.6514 15.4014C32.1085 14.9443 32.7285 14.6875 33.375 14.6875C33.5905 14.6875 33.7972 14.6019 33.9495 14.4495C34.1019 14.2972 34.1875 14.0905 34.1875 13.875C34.1875 13.6595 34.1019 13.4528 33.9495 13.3005C33.7972 13.1481 33.5905 13.0625 33.375 13.0625Z" fill="#212121"/>
<path d="M17.125 29.3125C16.4785 29.3125 15.8585 29.0557 15.4014 28.5986C14.9443 28.1415 14.6875 27.5215 14.6875 26.875C14.6875 26.6595 14.6019 26.4528 14.4495 26.3005C14.2972 26.1481 14.0905 26.0625 13.875 26.0625C13.6595 26.0625 13.4528 26.1481 13.3005 26.3005C13.1481 26.4528 13.0625 26.6595 13.0625 26.875C13.0625 27.5215 12.8057 28.1415 12.3486 28.5986C11.8915 29.0557 11.2715 29.3125 10.625 29.3125C10.4095 29.3125 10.2028 29.3981 10.0505 29.5505C9.8981 29.7028 9.8125 29.9095 9.8125 30.125C9.8125 30.3405 9.8981 30.5472 10.0505 30.6995C10.2028 30.8519 10.4095 30.9375 10.625 30.9375C11.2715 30.9375 11.8915 31.1943 12.3486 31.6514C12.8057 32.1085 13.0625 32.7285 13.0625 33.375C13.0625 33.5905 13.1481 33.7972 13.3005 33.9495C13.4528 34.1019 13.6595 34.1875 13.875 34.1875C14.0905 34.1875 14.2972 34.1019 14.4495 33.9495C14.6019 33.7972 14.6875 33.5905 14.6875 33.375C14.6875 32.7285 14.9443 32.1085 15.4014 31.6514C15.8585 31.1943 16.4785 30.9375 17.125 30.9375C17.3405 30.9375 17.5472 30.8519 17.6995 30.6995C17.8519 30.5472 17.9375 30.3405 17.9375 30.125C17.9375 29.9095 17.8519 29.7028 17.6995 29.5505C17.5472 29.3981 17.3405 29.3125 17.125 29.3125Z" fill="#212121"/>
<path d="M27.6875 34.1875C27.472 34.1875 27.2653 34.1019 27.113 33.9495C26.9606 33.7972 26.875 33.5905 26.875 33.375C26.8737 32.0825 26.3597 30.8432 25.4457 29.9293C24.5318 29.0153 23.2925 28.5013 22 28.5C21.7845 28.5 21.5778 28.4144 21.4255 28.262C21.2731 28.1097 21.1875 27.903 21.1875 27.6875C21.1875 27.472 21.2731 27.2653 21.4255 27.113C21.5778 26.9606 21.7845 26.875 22 26.875C23.2925 26.8737 24.5318 26.3597 25.4457 25.4457C26.3597 24.5318 26.8737 23.2925 26.875 22C26.875 21.7845 26.9606 21.5778 27.113 21.4255C27.2653 21.2731 27.472 21.1875 27.6875 21.1875C27.903 21.1875 28.1097 21.2731 28.262 21.4255C28.4144 21.5778 28.5 21.7845 28.5 22C28.5013 23.2925 29.0153 24.5318 29.9293 25.4457C30.8432 26.3597 32.0825 26.8737 33.375 26.875C33.5905 26.875 33.7972 26.9606 33.9495 27.113C34.1019 27.2653 34.1875 27.472 34.1875 27.6875C34.1875 27.903 34.1019 28.1097 33.9495 28.262C33.7972 28.4144 33.5905 28.5 33.375 28.5C32.0825 28.5013 30.8432 29.0153 29.9293 29.9293C29.0153 30.8432 28.5013 32.0825 28.5 33.375C28.5 33.5905 28.4144 33.7972 28.262 33.9495C28.1097 34.1019 27.903 34.1875 27.6875 34.1875Z" fill="#212121"/>
<path d="M16.3125 22.8125C16.097 22.8125 15.8903 22.7269 15.738 22.5745C15.5856 22.4222 15.5 22.2155 15.5 22C15.4987 20.7075 14.9847 19.4682 14.0707 18.5543C13.1568 17.6403 11.9175 17.1263 10.625 17.125C10.4095 17.125 10.2028 17.0394 10.0505 16.887C9.8981 16.7347 9.8125 16.528 9.8125 16.3125C9.8125 16.097 9.8981 15.8903 10.0505 15.738C10.2028 15.5856 10.4095 15.5 10.625 15.5C11.9175 15.4987 13.1568 14.9847 14.0707 14.0707C14.9847 13.1568 15.4987 11.9175 15.5 10.625C15.5 10.4095 15.5856 10.2028 15.738 10.0505C15.8903 9.8981 16.097 9.8125 16.3125 9.8125C16.528 9.8125 16.7347 9.8981 16.887 10.0505C17.0394 10.2028 17.125 10.4095 17.125 10.625C17.1263 11.9175 17.6403 13.1568 18.5543 14.0707C19.4682 14.9847 20.7075 15.4987 22 15.5C22.2155 15.5 22.4222 15.5856 22.5745 15.738C22.7269 15.8903 22.8125 16.097 22.8125 16.3125C22.8125 16.528 22.7269 16.7347 22.5745 16.887C22.4222 17.0394 22.2155 17.125 22 17.125C20.7075 17.1263 19.4682 17.6403 18.5543 18.5543C17.6403 19.4682 17.1263 20.7075 17.125 22C17.125 22.2155 17.0394 22.4222 16.887 22.5745C16.7347 22.7269 16.528 22.8125 16.3125 22.8125Z" fill="#212121"/>
</g>
<defs>
<clipPath id="clip0_24713_4630">
<rect width="26" height="26" fill="white" transform="translate(9 9)"/>
</clipPath>
</defs>
</svg>
