<svg width="20" height="20" viewBox="0 0 20 20" fill="none" xmlns="http://www.w3.org/2000/svg">
<path fill-rule="evenodd" clip-rule="evenodd" d="M15.4268 1.79688C15.4268 1.52073 15.2029 1.29688 14.9268 1.29688C14.6506 1.29688 14.4268 1.52073 14.4268 1.79688C14.4268 2.53451 14.1337 3.24193 13.6121 3.76352C13.0906 4.2851 12.3831 4.57812 11.6455 4.57812C11.3694 4.57812 11.1455 4.80198 11.1455 5.07812C11.1455 5.35427 11.3694 5.57812 11.6455 5.57812C12.3831 5.57812 13.0906 5.87115 13.6121 6.39273C14.1337 6.91432 14.4268 7.62174 14.4268 8.35938C14.4268 8.63552 14.6506 8.85938 14.9268 8.85938C15.2029 8.85938 15.4268 8.63552 15.4268 8.35938C15.4268 7.62174 15.7198 6.91432 16.2414 6.39273C16.763 5.87115 17.4704 5.57812 18.208 5.57812C18.4841 5.57812 18.708 5.35427 18.708 5.07812C18.708 4.80198 18.4841 4.57812 18.208 4.57812C17.4704 4.57812 16.763 4.2851 16.2414 3.76352C15.7198 3.24193 15.4268 2.53451 15.4268 1.79688ZM14.3193 4.47062C14.5581 4.23174 14.7618 3.96419 14.9268 3.67606C15.0918 3.96419 15.2954 4.23174 15.5343 4.47062C15.7731 4.7095 16.0407 4.91312 16.3288 5.07812C16.0407 5.24313 15.7731 5.44675 15.5343 5.68563C15.2954 5.92451 15.0918 6.19206 14.9268 6.4802C14.7618 6.19206 14.5581 5.92451 14.3193 5.68563C14.0804 5.44675 13.8128 5.24313 13.5247 5.07812C13.8128 4.91312 14.0804 4.7095 14.3193 4.47062ZM7.77051 7.26562C7.77051 6.98948 7.54665 6.76562 7.27051 6.76562C6.99437 6.76562 6.77051 6.98948 6.77051 7.26562C6.77051 7.91813 6.64199 8.56425 6.39228 9.16708C6.14258 9.76992 5.77659 10.3177 5.31519 10.7791C4.8538 11.2405 4.30605 11.6064 3.70322 11.8562C3.10038 12.1059 2.45426 12.2344 1.80176 12.2344C1.52562 12.2344 1.30176 12.4582 1.30176 12.7344C1.30176 13.0105 1.52562 13.2344 1.80176 13.2344C2.45426 13.2344 3.10038 13.3629 3.70322 13.6126C4.30605 13.8623 4.8538 14.2283 5.31519 14.6897C5.77659 15.1511 6.14258 15.6988 6.39228 16.3017C6.64199 16.9045 6.77051 17.5506 6.77051 18.2031C6.77051 18.4793 6.99437 18.7031 7.27051 18.7031C7.54665 18.7031 7.77051 18.4793 7.77051 18.2031C7.77051 16.8853 8.294 15.6215 9.22582 14.6897C10.1576 13.7579 11.4215 13.2344 12.7393 13.2344C13.0154 13.2344 13.2393 13.0105 13.2393 12.7344C13.2393 12.4582 13.0154 12.2344 12.7393 12.2344C11.4215 12.2344 10.1576 11.7109 9.22582 10.7791C8.294 9.84724 7.77051 8.58342 7.77051 7.26562ZM6.0223 11.4862C6.54906 10.9594 6.97231 10.3389 7.27051 9.65701C7.56603 10.3328 7.98704 10.9545 8.51871 11.4862C9.05039 12.0178 9.67203 12.4389 10.3479 12.7344C9.67203 13.0299 9.05039 13.4509 8.51871 13.9826C7.98704 14.5143 7.56603 15.1359 7.27051 15.8117C6.97232 15.1298 6.54906 14.5093 6.0223 13.9826C5.49554 13.4558 4.87507 13.0326 4.19315 12.7344C4.87507 12.4362 5.49554 12.0129 6.0223 11.4862Z" fill="url(#paint0_linear_7811_60842)"/>
<defs>
<linearGradient id="paint0_linear_7811_60842" x1="10.0408" y1="-1.07795" x2="10.0408" y2="22.2504" gradientUnits="userSpaceOnUse">
<stop stop-color="#303236" stop-opacity="0.6"/>
<stop offset="0.608327" stop-color="#303236"/>
</linearGradient>
</defs>
</svg>
