<svg width="17" height="18" viewBox="0 0 17 18" fill="none" xmlns="http://www.w3.org/2000/svg">
<g clip-path="url(#clip0_9797_94115)">
<path fill-rule="evenodd" clip-rule="evenodd" d="M7.33984 2.66157C7.33984 2.02139 7.8588 1.50242 8.49898 1.50242C9.13916 1.50242 9.65813 2.02139 9.65813 2.66157C9.65813 2.68139 9.65763 2.7011 9.65665 2.72069C9.65415 2.72925 9.6519 2.73795 9.64992 2.74678C9.64093 2.78674 9.6379 2.82666 9.64023 2.86561C9.54383 3.40848 9.06954 3.82071 8.49898 3.82071C7.8588 3.82071 7.33984 3.30175 7.33984 2.66157ZM10.383 3.36103C10.099 4.1258 9.36262 4.67071 8.49898 4.67071C7.38936 4.67071 6.48984 3.77119 6.48984 2.66157C6.48984 1.55195 7.38936 0.652423 8.49898 0.652423C9.55811 0.652423 10.4258 1.47194 10.5026 2.51145C12.0354 2.93271 13.3995 3.82818 14.3965 5.07399C15.4678 6.41249 16.0516 8.07569 16.052 9.79007C16.0521 10.0248 15.8619 10.2151 15.6271 10.2152C15.3924 10.2152 15.2021 10.025 15.202 9.79028C15.2017 8.2689 14.6835 6.79293 13.7329 5.60512C12.8711 4.52827 11.7002 3.74639 10.383 3.36103ZM1.9273 12.2656C2.05143 12.2202 2.1855 12.1954 2.32536 12.1954C2.96554 12.1954 3.4845 12.7144 3.4845 13.3546C3.4845 13.9947 2.96554 14.5137 2.32536 14.5137C1.68518 14.5137 1.16621 13.9947 1.16621 13.3546C1.16621 12.9063 1.42063 12.5175 1.79294 12.3246C1.80113 12.3226 1.80931 12.3203 1.81748 12.3178C1.8574 12.3054 1.89419 12.2876 1.9273 12.2656ZM1.98352 11.3744C2.09461 11.3553 2.20883 11.3454 2.32536 11.3454C3.43498 11.3454 4.3345 12.2449 4.3345 13.3546C4.3345 14.4642 3.43498 15.3637 2.32536 15.3637C1.21574 15.3637 0.316211 14.4642 0.316211 13.3546C0.316211 12.667 0.66162 12.06 1.18839 11.6978C0.788328 10.16 0.883241 8.53164 1.46474 7.04636C2.08934 5.45101 3.23813 4.11565 4.72228 3.25977C4.92562 3.14251 5.18551 3.21229 5.30277 3.41562C5.42002 3.61896 5.35025 3.87885 5.14691 3.99611C3.82991 4.75559 2.81049 5.94057 2.25625 7.35624C1.75401 8.63905 1.66081 10.0421 1.98352 11.3744ZM14.6747 12.1954C14.0345 12.1954 13.5155 12.7144 13.5155 13.3546C13.5155 13.7129 13.6781 14.0332 13.9335 14.2458C13.9638 14.2622 13.9925 14.2825 14.019 14.3068C14.0217 14.3092 14.0243 14.3117 14.0269 14.3142C14.0289 14.3161 14.0307 14.3179 14.0326 14.3198C14.2164 14.4423 14.4372 14.5137 14.6747 14.5137C15.3148 14.5137 15.8338 13.9947 15.8338 13.3546C15.8338 12.7144 15.3148 12.1954 14.6747 12.1954ZM12.6655 13.3546C12.6655 13.8404 12.838 14.286 13.125 14.6334C12.1352 15.5851 10.873 16.2111 9.50906 16.4203C8.00626 16.6509 6.46978 16.3617 5.15357 15.6007C4.95037 15.4832 4.6904 15.5527 4.57291 15.7559C4.45542 15.9591 4.5249 16.2191 4.7281 16.3366C6.21184 17.1945 7.94388 17.5204 9.63795 17.2605C11.2148 17.0186 12.6708 16.2826 13.7989 15.1633C14.0636 15.2917 14.3607 15.3637 14.6747 15.3637C15.7843 15.3637 16.6838 14.4642 16.6838 13.3546C16.6838 12.2449 15.7843 11.3454 14.6747 11.3454C13.565 11.3454 12.6655 12.2449 12.6655 13.3546Z" fill="url(#paint0_linear_9797_94115)"/>
</g>
<defs>
<linearGradient id="paint0_linear_9797_94115" x1="8.50001" y1="0.577423" x2="8.50001" y2="17.4226" gradientUnits="userSpaceOnUse">
<stop stop-color="#E5E5E5"/>
<stop offset="1" stop-color="#E5E5E5" stop-opacity="0.4"/>
</linearGradient>
<clipPath id="clip0_9797_94115">
<rect width="17" height="17" fill="white" transform="translate(0 0.5)"/>
</clipPath>
</defs>
</svg>
