<svg width="20" height="20" viewBox="0 0 20 20" fill="none" xmlns="http://www.w3.org/2000/svg">
<g clip-path="url(#clip0_9839_17193)">
<path fill-rule="evenodd" clip-rule="evenodd" d="M8.63516 2.5429C8.63516 1.78975 9.24571 1.1792 9.99886 1.1792C10.752 1.1792 11.3626 1.78975 11.3626 2.5429C11.3626 2.56623 11.362 2.58942 11.3608 2.61245C11.3579 2.62253 11.3552 2.63276 11.3529 2.64314C11.3423 2.69016 11.3388 2.73712 11.3415 2.78294C11.2281 3.42162 10.6701 3.9066 9.99886 3.9066C9.24571 3.9066 8.63516 3.29605 8.63516 2.5429ZM12.2154 3.3658C11.8812 4.26553 11.0149 4.9066 9.99886 4.9066C8.69342 4.9066 7.63516 3.84834 7.63516 2.5429C7.63516 1.23746 8.69342 0.179199 9.99886 0.179199C11.2449 0.179199 12.2657 1.14334 12.3561 2.36629C14.1594 2.86189 15.7641 3.91538 16.9371 5.38105C18.1974 6.95574 18.8843 8.91245 18.8848 10.9294C18.8849 11.2055 18.6611 11.4294 18.3849 11.4295C18.1088 11.4296 17.8849 11.2058 17.8848 10.9296C17.8844 9.13976 17.2748 7.40333 16.1564 6.0059C15.1425 4.73902 13.7651 3.81915 12.2154 3.3658ZM2.26747 13.8417C2.41351 13.7883 2.57124 13.7592 2.73577 13.7592C3.48892 13.7592 4.09947 14.3697 4.09947 15.1229C4.09947 15.876 3.48892 16.4866 2.73577 16.4866C1.98262 16.4866 1.37207 15.876 1.37207 15.1229C1.37207 14.5956 1.67138 14.1381 2.10939 13.9112C2.11903 13.9088 2.12866 13.9062 2.13826 13.9032C2.18524 13.8886 2.22852 13.8677 2.26747 13.8417ZM2.33361 12.7933C2.46431 12.7709 2.59868 12.7592 2.73577 12.7592C4.04121 12.7592 5.09947 13.8174 5.09947 15.1229C5.09947 16.4283 4.04121 17.4866 2.73577 17.4866C1.43034 17.4866 0.37207 16.4283 0.37207 15.1229C0.37207 14.3139 0.778433 13.5999 1.39816 13.1738C0.927502 11.3646 1.03917 9.44887 1.72329 7.70147C2.4581 5.8246 3.80962 4.25358 5.55569 3.24667C5.7949 3.10871 6.10066 3.19081 6.23861 3.43002C6.37656 3.66924 6.29446 3.97499 6.05525 4.11294C4.50583 5.00646 3.30652 6.40054 2.65446 8.06604C2.0636 9.57523 1.95396 11.2259 2.33361 12.7933ZM17.2644 13.7592C16.5112 13.7592 15.9007 14.3697 15.9007 15.1229C15.9007 15.5444 16.0919 15.9213 16.3924 16.1714C16.428 16.1907 16.4618 16.2146 16.493 16.2431C16.4985 16.2481 16.5038 16.2532 16.509 16.2584C16.7252 16.4026 16.985 16.4866 17.2644 16.4866C18.0175 16.4866 18.6281 15.876 18.6281 15.1229C18.6281 14.3697 18.0175 13.7592 17.2644 13.7592ZM14.9007 15.1229C14.9007 15.6945 15.1035 16.2186 15.4412 16.6274C14.2767 17.747 12.7919 18.4835 11.1872 18.7297C9.41918 19.0009 7.61156 18.6608 6.06308 17.7654C5.82402 17.6272 5.51817 17.709 5.37995 17.948C5.24173 18.1871 5.32347 18.4929 5.56253 18.6311C7.3081 19.6404 9.34579 20.0239 11.3388 19.7181C13.1939 19.4335 14.9069 18.5677 16.234 17.2508C16.5455 17.4019 16.895 17.4866 17.2644 17.4866C18.5698 17.4866 19.6281 16.4283 19.6281 15.1229C19.6281 13.8174 18.5698 12.7592 17.2644 12.7592C15.9589 12.7592 14.9007 13.8174 14.9007 15.1229Z" fill="url(#paint0_linear_9839_17193)"/>
</g>
<defs>
<linearGradient id="paint0_linear_9839_17193" x1="10.0398" y1="-2.50057" x2="10.0398" y2="23.8234" gradientUnits="userSpaceOnUse">
<stop stop-color="#303236" stop-opacity="0.6"/>
<stop offset="0.608327" stop-color="#303236"/>
</linearGradient>
<clipPath id="clip0_9839_17193">
<rect width="20" height="20" fill="white"/>
</clipPath>
</defs>
</svg>
