<svg width="16" height="16" viewBox="0 0 16 16" fill="none" xmlns="http://www.w3.org/2000/svg">
<path fill-rule="evenodd" clip-rule="evenodd" d="M7.00798 2.03442C7.00798 1.48713 7.45165 1.04346 7.99894 1.04346C8.54624 1.04346 8.9899 1.48713 8.9899 2.03442C8.9899 2.04776 8.98964 2.06103 8.98912 2.07425C8.98751 2.08034 8.986 2.08648 8.98461 2.09268C8.97502 2.13534 8.97119 2.17795 8.97261 2.2197C8.88585 2.67844 8.48291 3.02538 7.99894 3.02538C7.45165 3.02538 7.00798 2.58171 7.00798 2.03442ZM9.83111 2.81487C9.52758 3.52654 8.82152 4.02538 7.99894 4.02538C6.89936 4.02538 6.00798 3.134 6.00798 2.03442C6.00798 0.93484 6.89936 0.043457 7.99894 0.043457C9.0245 0.043457 9.86895 0.818874 9.97799 1.81541C11.4138 2.2249 12.6905 3.07155 13.6276 4.24245C14.6501 5.51993 15.2073 7.10733 15.2077 8.74357C15.2078 9.01972 14.984 9.24363 14.7078 9.2437C14.4317 9.24377 14.2078 9.01996 14.2077 8.74382C14.2073 7.33463 13.7274 5.96752 12.8469 4.8673C12.0677 3.89365 11.0157 3.18034 9.83111 2.81487ZM1.85849 11.1637C1.96171 11.1273 2.07277 11.1074 2.18847 11.1074C2.73576 11.1074 3.17943 11.5511 3.17943 12.0984C3.17943 12.6457 2.73576 13.0894 2.18847 13.0894C1.64118 13.0894 1.19751 12.6457 1.19751 12.0984C1.19751 11.719 1.4107 11.3894 1.72381 11.2229L1.74015 11.2181C1.7828 11.2049 1.8224 11.1864 1.85849 11.1637ZM1.00457 10.4975C0.51492 10.8602 0.19751 11.4423 0.19751 12.0984C0.19751 13.198 1.08889 14.0894 2.18847 14.0894C3.28805 14.0894 4.17943 13.198 4.17943 12.0984C4.17943 10.9988 3.28805 10.1074 2.18847 10.1074C2.1054 10.1074 2.02352 10.1125 1.94312 10.1224C1.66938 8.915 1.76249 7.64914 2.21654 6.48938C2.72991 5.17813 3.67414 4.08055 4.89401 3.37708C5.13322 3.23913 5.21532 2.93338 5.07737 2.69416C4.93941 2.45494 4.63366 2.37285 4.39445 2.5108C2.97793 3.32767 1.88149 4.60218 1.28536 6.12482C0.738773 7.52093 0.642627 9.04947 1.00457 10.4975ZM13.8114 11.1074C13.2641 11.1074 12.8204 11.5511 12.8204 12.0984C12.8204 12.4014 12.9564 12.6726 13.1707 12.8544C13.2028 12.8727 13.2334 12.8948 13.2619 12.9209L13.2701 12.9286C13.4257 13.0303 13.6116 13.0894 13.8114 13.0894C14.3586 13.0894 14.8023 12.6457 14.8023 12.0984C14.8023 11.5511 14.3586 11.1074 13.8114 11.1074ZM11.8204 12.0984C11.8204 12.5462 11.9683 12.9595 12.2178 13.2922C11.3112 14.1387 10.1678 14.6958 8.93443 14.885C7.54254 15.0985 6.11945 14.8307 4.90037 14.1259C4.66131 13.9877 4.35547 14.0694 4.21724 14.3085C4.07902 14.5475 4.16077 14.8534 4.39983 14.9916C5.81599 15.8104 7.46915 16.1215 9.08607 15.8734C10.568 15.6461 11.9382 14.9615 13.0078 13.9206C13.2536 14.0291 13.5254 14.0894 13.8114 14.0894C14.9109 14.0894 15.8023 13.198 15.8023 12.0984C15.8023 10.9988 14.9109 10.1074 13.8114 10.1074C12.7118 10.1074 11.8204 10.9988 11.8204 12.0984Z" fill="currentColor"/>
</svg>
