<svg width="18" height="18" viewBox="0 0 18 18" fill="none" xmlns="http://www.w3.org/2000/svg">
<path d="M8.54297 1.37105C8.8028 1.28838 9.0797 1.27899 9.34375 1.34078L9.45605 1.37105L9.45703 1.37203L14.707 3.05171H14.708L14.8223 3.09371C15.3795 3.32378 15.75 3.86958 15.75 4.48042V11C15.75 12.7875 14.3769 14.1053 13.0225 14.9814C11.6401 15.8755 10.106 16.4214 9.46191 16.6298L9.46289 16.6308C9.15942 16.7295 8.84058 16.7295 8.53711 16.6308V16.6298C7.89247 16.4212 6.35925 15.8751 4.97754 14.9814C3.62311 14.1053 2.25 12.7875 2.25 11V4.48042C2.25001 3.82827 2.67132 3.24999 3.29297 3.05171L8.54297 1.37203V1.37105ZM9.1543 2.32515C9.0534 2.29321 8.94568 2.2918 8.84668 2.3232L8.84766 2.32417L3.59766 4.00386L3.59668 4.00484C3.3906 4.0707 3.25001 4.26276 3.25 4.48042V11C3.25 12.2423 4.21848 13.2994 5.52051 14.1416C6.79439 14.9655 8.23164 15.481 8.8457 15.6796H8.84668L8.92383 15.6982C9.00032 15.7106 9.07661 15.7046 9.15332 15.6796H9.1543L9.75391 15.4707C10.4768 15.2033 11.5242 14.7594 12.4795 14.1416C13.7815 13.2994 14.75 12.2423 14.75 11V4.48042C14.75 4.29121 14.6425 4.11971 14.4766 4.03511L14.4023 4.00386L9.1543 2.32417V2.32515ZM11.1729 6.37398C11.3473 6.22047 11.612 6.20505 11.8047 6.35054C12.0248 6.51682 12.0683 6.83041 11.9023 7.05074L8.50488 11.5507C8.41958 11.6637 8.29045 11.7357 8.14941 11.748C8.00837 11.7603 7.86822 11.7127 7.76465 11.6162L6.15625 10.1162L6.08887 10.04C5.95402 9.85063 5.96635 9.58589 6.13086 9.40913C6.29574 9.23234 6.55934 9.20165 6.75781 9.3232L6.83789 9.38374L8.04102 10.5048L11.1045 6.44917L11.1729 6.37398Z" fill="url(#paint0_linear_2498_39577)"/>
<defs>
<linearGradient id="paint0_linear_2498_39577" x1="9" y1="1.30072" x2="9" y2="16.7048"  gradientUnits="userSpaceOnUse">
<stop stop-color="currentColor" stop-opacity="0.6" />
<stop offset="0.608327" stop-color="currentColor" />
</linearGradient>
</defs>
</svg>
