<svg width="44" height="44" viewBox="0 0 44 44" fill="none" xmlns="http://www.w3.org/2000/svg">
<rect width="44" height="44" rx="6.75" fill="#AA99FF"/>
<g clip-path="url(#clip0_24525_7331)">
<path d="M20.9144 13.334V15.5007H26.9659L20.1484 22.3181L21.6803 23.8499L28.4977 17.0325V23.084H30.6644V13.334H20.9144Z" fill="#212121"/>
<path d="M33.9167 9H10.0833C9.48533 9 9 9.48533 9 10.0833V33.9167C9 34.5147 9.48533 35 10.0833 35H33.9167C34.5147 35 35 34.5147 35 33.9167V10.0833C35 9.48533 34.5147 9 33.9167 9ZM32.8333 32.8333H18.75V26.3333C18.75 25.7353 18.2647 25.25 17.6667 25.25H11.1667V11.1667H32.8333V32.8333Z" fill="#212121"/>
</g>
<defs>
<clipPath id="clip0_24525_7331">
<rect width="26" height="26" fill="white" transform="translate(9 9)"/>
</clipPath>
</defs>
</svg>
