<svg width="44" height="44" viewBox="0 0 44 44" fill="none" xmlns="http://www.w3.org/2000/svg">
<rect width="44" height="44" rx="6.75" fill="#AA99FF"/>
<g clip-path="url(#clip0_24713_4577)">
<path d="M20.9166 13.3335V15.5002H26.9681L20.1506 22.3176L21.6825 23.8494L28.4999 17.032V23.0835H30.6666V13.3335H20.9166Z" fill="#212121"/>
<path d="M33.9167 9H10.0833C9.48533 9 9 9.48533 9 10.0833V33.9167C9 34.5147 9.48533 35 10.0833 35H33.9167C34.5147 35 35 34.5147 35 33.9167V10.0833C35 9.48533 34.5147 9 33.9167 9ZM32.8333 32.8333H18.75V26.3333C18.75 25.7353 18.2647 25.25 17.6667 25.25H11.1667V11.1667H32.8333V32.8333Z" fill="#212121"/>
</g>
<defs>
<clipPath id="clip0_24713_4577">
<rect width="26" height="26" fill="white" transform="translate(9 9)"/>
</clipPath>
</defs>
</svg>
