<svg width="44" height="44" viewBox="0 0 44 44" fill="none" xmlns="http://www.w3.org/2000/svg">
<rect width="44" height="44" rx="6.75" fill="#AA99FF"/>
<g clip-path="url(#clip0_27184_6553)">
<path d="M32.3245 18.1757L24.1995 10.0507C23.9606 9.81102 23.5982 9.74602 23.2886 9.88577L14.3511 13.9483C14.1131 14.0563 13.9416 14.2716 13.8913 14.5284L10.6892 30.5371L18.1829 23.0434C17.7523 22.1383 17.9026 21.026 18.6517 20.276C19.604 19.3238 21.1469 19.3238 22.0991 20.276C23.0514 21.2283 23.0514 22.7712 22.0991 23.7235C21.35 24.4726 20.2369 24.6229 19.3318 24.1923L11.8381 31.686L27.8468 28.4839C28.1027 28.4327 28.3188 28.2613 28.4269 28.0232L32.4894 19.0857C32.63 18.7778 32.5641 18.4154 32.3245 18.1757Z" fill="#212121"/>
<path d="M34.1875 35H9.8125C9.36319 35 9 34.636 9 34.1875C9 33.739 9.36319 33.375 9.8125 33.375H34.1875C34.6368 33.375 35 33.739 35 34.1875C35 34.636 34.6368 35 34.1875 35Z" fill="#212121"/>
</g>
<defs>
<clipPath id="clip0_27184_6553">
<rect width="26" height="26" fill="white" transform="translate(9 9)"/>
</clipPath>
</defs>
</svg>
