<svg width="20" height="20" viewBox="0 0 20 20" fill="none" xmlns="http://www.w3.org/2000/svg">
<g clip-path="url(#clip0_4436_20804)">
<path fill-rule="evenodd" clip-rule="evenodd" d="M9.52934 0.390343C9.33407 0.195081 9.01749 0.195081 8.82223 0.390343C8.62697 0.585605 8.62697 0.902188 8.82223 1.09745L9.58094 1.85616L3.76754 4.62055C3.61793 4.6917 3.51326 4.83233 3.48807 4.99607L1.75756 16.2444C1.75567 16.2559 1.75419 16.2676 1.7531 16.2792C1.75011 16.3112 1.75023 16.3432 1.75334 16.3747C1.76428 16.4866 1.8128 16.5954 1.89884 16.6808C2.01847 16.7994 2.18298 16.8452 2.33724 16.8183L13.5806 15.0886C13.7443 15.0634 13.8849 14.9587 13.9561 14.8091L16.7205 8.99569L17.4788 9.75406C17.6741 9.94932 17.9907 9.94932 18.1859 9.75406C18.3812 9.5588 18.3812 9.24221 18.1859 9.04695L16.9427 7.80366C16.9325 7.79251 16.9218 7.78177 16.9105 7.7715L10.8051 1.66613C10.7949 1.65488 10.7841 1.64415 10.773 1.63398L9.52934 0.390343ZM10.3314 2.60661L4.43617 5.40991L2.97897 14.8817L7.26759 10.5578C6.74594 9.69921 6.85611 8.56465 7.5981 7.82265C8.46948 6.95128 9.88226 6.95128 10.7536 7.82265C11.625 8.69403 11.625 10.1068 10.7536 10.9782C9.99604 11.7358 8.8292 11.8347 7.96472 11.275L3.67415 15.6009L13.1667 14.1405L15.97 8.24524L10.3314 2.60661ZM8.29638 10.2622L8.3052 10.2711C8.78606 10.7519 9.56568 10.7519 10.0465 10.2711C10.5274 9.79023 10.5274 9.01061 10.0465 8.52975C9.56568 8.0489 8.78606 8.0489 8.3052 8.52975C7.83239 9.00256 7.82448 9.76422 8.28147 10.2467C8.28657 10.2518 8.29154 10.2569 8.29638 10.2622ZM0.0195312 18.9228C0.0195312 18.6466 0.243389 18.4228 0.519531 18.4228H19.5641C19.8402 18.4228 20.0641 18.6466 20.0641 18.9228C20.0641 19.1989 19.8402 19.4228 19.5641 19.4228H0.519531C0.243389 19.4228 0.0195312 19.1989 0.0195312 18.9228Z" fill="url(#paint0_linear_4436_20804)"/>
</g>
<defs>
<linearGradient id="paint0_linear_4436_20804" x1="10.0418" y1="0.243896" x2="10.0418" y2="19.4228" gradientUnits="userSpaceOnUse">
<stop stop-color="#E5E5E5"/>
<stop offset="1" stop-color="#E5E5E5" stop-opacity="0.4"/>
</linearGradient>
<clipPath id="clip0_4436_20804">
<rect width="20" height="20" fill="white"/>
</clipPath>
</defs>
</svg>
