<svg width="16" height="16" viewBox="0 0 16 16" fill="none" xmlns="http://www.w3.org/2000/svg">
<path fill-rule="evenodd" clip-rule="evenodd" d="M7.74925 1.31222C7.55399 1.11696 7.23741 1.11696 7.04214 1.31222C6.84688 1.50748 6.84688 1.82406 7.04214 2.01932L7.41829 2.39547L3.56135 4.22952C3.41174 4.30066 3.30708 4.44129 3.28189 4.60503L2.07533 12.4477C2.0713 12.4739 2.06939 12.5001 2.06951 12.5261C2.06937 12.655 2.11872 12.7838 2.21741 12.8817C2.3484 13.0116 2.53318 13.0542 2.6994 13.0096L10.4882 11.8113C10.6519 11.7861 10.7926 11.6815 10.8637 11.5319L12.6978 7.67494L13.075 8.05213C13.2702 8.24739 13.5868 8.24739 13.7821 8.05213C13.9773 7.85687 13.9773 7.54029 13.7821 7.34502L12.9256 6.48858C12.912 6.47321 12.8975 6.4586 12.8819 6.44487L8.64836 2.21133C8.63462 2.19576 8.62001 2.18117 8.60464 2.16761L7.74925 1.31222ZM8.16874 3.14592L4.22999 5.01887L3.29702 11.0832L5.87847 8.48046C5.54862 7.83865 5.65253 7.0315 6.19018 6.49384C6.85663 5.82739 7.93715 5.82739 8.6036 6.49384C9.27005 7.16029 9.27005 8.24081 8.6036 8.90726C8.05445 9.45641 7.22415 9.55306 6.57603 9.19721L3.99613 11.7983L10.0744 10.8632L11.9473 6.92449L8.16874 3.14592ZM6.89728 8.20016C6.62136 7.92423 6.62136 7.47687 6.89728 7.20094C7.17321 6.92501 7.62057 6.92501 7.8965 7.20094C8.17243 7.47687 8.17243 7.92423 7.8965 8.20016C7.62057 8.47609 7.17321 8.47609 6.89728 8.20016ZM0.863647 14.3355C0.863647 14.0594 1.08751 13.8355 1.36365 13.8355H14.6358C14.912 13.8355 15.1358 14.0594 15.1358 14.3355C15.1358 14.6117 14.912 14.8355 14.6358 14.8355H1.36365C1.08751 14.8355 0.863647 14.6117 0.863647 14.3355Z" fill="currentColor"/>
</svg>
