<svg width="18" height="18" viewBox="0 0 18 18" fill="none" xmlns="http://www.w3.org/2000/svg">
<path fill-rule="evenodd" clip-rule="evenodd" d="M13.5773 5.90332C13.5773 6.62129 12.9953 7.20332 12.2773 7.20332C11.5594 7.20332 10.9773 6.62129 10.9773 5.90332C10.9773 5.18535 11.5594 4.60332 12.2773 4.60332C12.9953 4.60332 13.5773 5.18535 13.5773 5.90332ZM14.7773 5.90332C14.7773 7.28403 13.6581 8.40332 12.2773 8.40332C11.1035 8.40332 10.1186 7.59429 9.84983 6.50341H7.49483C6.90785 6.50341 6.34492 6.73658 5.92987 7.15163C5.51481 7.56669 5.28164 8.12962 5.28164 8.71659V12.0551H12.6643C12.933 10.9642 13.9179 10.1551 15.0918 10.1551C16.4725 10.1551 17.5918 11.2744 17.5918 12.6551C17.5918 14.0358 16.4725 15.1551 15.0918 15.1551C13.9179 15.1551 12.933 14.346 12.6642 13.2551L5.28164 13.2551H4.08164L0.744141 13.2551H0.144141V12.0551H0.744141H4.08164V8.71659C4.08164 7.81136 4.44124 6.9432 5.08134 6.3031C5.72144 5.66301 6.58959 5.30341 7.49483 5.30341H9.84979C10.1185 4.21243 11.1034 3.40332 12.2773 3.40332C13.6581 3.40332 14.7773 4.52261 14.7773 5.90332ZM15.0918 13.9551C15.8098 13.9551 16.3918 13.3731 16.3918 12.6551C16.3918 11.9371 15.8098 11.3551 15.0918 11.3551C14.3738 11.3551 13.7918 11.9371 13.7918 12.6551C13.7918 13.3731 14.3738 13.9551 15.0918 13.9551Z" fill="white"/>
</svg>
