<svg width="20" height="20" viewBox="0 0 20 20" fill="none" xmlns="http://www.w3.org/2000/svg">
  <path fill-rule="evenodd" clip-rule="evenodd" d="M15.4433 6.55927C15.4433 7.54111 14.6473 8.33705 13.6655 8.33705C12.6836 8.33705 11.8877 7.54111 11.8877 6.55927C11.8877 5.57743 12.6836 4.78149 13.6655 4.78149C14.6473 4.78149 15.4433 5.57743 15.4433 6.55927ZM16.4433 6.55927C16.4433 8.0934 15.1996 9.33705 13.6655 9.33705C12.3021 9.33705 11.1681 8.35479 10.9326 7.05933H8.35135C7.65495 7.05933 6.98708 7.33597 6.49465 7.82839C6.00223 8.32082 5.72559 8.98869 5.72559 9.68509V13.5613H14.0595C14.295 12.2658 15.429 11.2834 16.7924 11.2834C18.3265 11.2834 19.5702 12.5271 19.5702 14.0612C19.5702 15.5953 18.3265 16.839 16.7924 16.839C15.429 16.839 14.295 15.8567 14.0595 14.5613H0.850586H0.350586V13.5613H0.850586H4.72559V9.68509C4.72559 8.72348 5.10758 7.80125 5.78755 7.12129C6.46751 6.44133 7.38974 6.05933 8.35135 6.05933H10.9326C11.168 4.76381 12.302 3.78149 13.6655 3.78149C15.1996 3.78149 16.4433 5.02515 16.4433 6.55927ZM16.7924 15.839C17.7743 15.839 18.5702 15.0431 18.5702 14.0612C18.5702 13.0794 17.7743 12.2834 16.7924 12.2834C15.8106 12.2834 15.0146 13.0794 15.0146 14.0612C15.0146 15.0431 15.8106 15.839 16.7924 15.839Z" fill="url(#paint0_linear_7811_60719)" />
  <defs>
    <linearGradient id="paint0_linear_7811_60719" x1="10" y1="2" x2="10" y2="19.5" gradientUnits="userSpaceOnUse">
      <stop stop-color="#303236" stop-opacity="0.6" />
      <stop offset="0.608327" stop-color="#303236" />
    </linearGradient>
  </defs>
</svg>