<svg width="16" height="16" viewBox="0 0 16 16" fill="none" xmlns="http://www.w3.org/2000/svg">
<path d="M5.8125 0.9375C6.08864 0.9375 6.3125 1.16136 6.3125 1.4375C6.3125 1.71364 6.08864 1.9375 5.8125 1.9375H2.64453L7.91602 7.20898C8.00978 7.30275 8.0625 7.42989 8.0625 7.5625V14.5625C8.0625 14.8386 7.83864 15.0625 7.5625 15.0625C7.28636 15.0625 7.0625 14.8386 7.0625 14.5625V7.76953L1.9375 2.64453V5.8125C1.9375 6.08864 1.71364 6.3125 1.4375 6.3125C1.16136 6.3125 0.9375 6.08864 0.9375 5.8125V1.4375L0.938477 1.4209C0.939183 1.40028 0.941095 1.3798 0.944336 1.35938L0.947266 1.33691C0.948691 1.32993 0.951411 1.32328 0.953125 1.31641C0.955501 1.3069 0.957998 1.29746 0.960938 1.28809C0.964525 1.27664 0.967306 1.26498 0.97168 1.25391L0.983398 1.22656C0.987503 1.21774 0.993401 1.20979 0.998047 1.20117C1.00207 1.19372 1.00538 1.18593 1.00977 1.17871L1.02734 1.15234C1.03132 1.14664 1.0358 1.14131 1.04004 1.13574C1.05043 1.12209 1.06152 1.10918 1.07324 1.09668C1.07701 1.09265 1.08005 1.08791 1.08398 1.08398C1.08857 1.0794 1.09391 1.07566 1.09863 1.07129C1.11206 1.05888 1.12589 1.04703 1.14062 1.03613C1.14931 1.02969 1.158 1.02339 1.16699 1.01758C1.179 1.00984 1.19142 1.00281 1.2041 0.996094C1.21887 0.98827 1.2337 0.980853 1.24902 0.974609C1.26148 0.969538 1.27418 0.965011 1.28711 0.960938C1.29966 0.956978 1.31243 0.95412 1.3252 0.951172C1.3387 0.948068 1.35231 0.945345 1.36621 0.943359C1.38374 0.940824 1.40128 0.93915 1.41895 0.938477C1.42511 0.938251 1.43128 0.9375 1.4375 0.9375H5.8125ZM14.5625 0.9375C14.5952 0.9375 14.628 0.939924 14.6602 0.946289L14.6631 0.947266C14.7221 0.959312 14.7767 0.982789 14.8262 1.01367C14.8384 1.02129 14.8497 1.03029 14.8613 1.03906C14.8758 1.04997 14.8901 1.06086 14.9033 1.07324C14.9073 1.07701 14.9121 1.08005 14.916 1.08398C14.9204 1.08841 14.9235 1.09408 14.9277 1.09863C14.9407 1.11259 14.9526 1.12721 14.9639 1.14258C14.9721 1.15382 14.9801 1.16502 14.9873 1.17676C14.9971 1.19278 15.0056 1.20941 15.0137 1.22656C15.018 1.23572 15.0227 1.24456 15.0264 1.25391C15.0331 1.27101 15.0381 1.28867 15.043 1.30664C15.0466 1.32003 15.0512 1.33308 15.0537 1.34668C15.0591 1.37617 15.0625 1.40646 15.0625 1.4375V5.8125C15.0625 6.08864 14.8386 6.3125 14.5625 6.3125C14.2864 6.3125 14.0625 6.08864 14.0625 5.8125V2.64453L9.66602 7.04102C9.47075 7.23628 9.15425 7.23628 8.95898 7.04102C8.76372 6.84575 8.76372 6.52925 8.95898 6.33398L13.3555 1.9375H10.1875C9.91136 1.9375 9.6875 1.71364 9.6875 1.4375C9.6875 1.16136 9.91136 0.9375 10.1875 0.9375H14.5625Z" fill="currentColor" />
</svg>