<svg width="16" height="16" viewBox="0 0 16 16" fill="none" xmlns="http://www.w3.org/2000/svg">
<path fill-rule="evenodd" clip-rule="evenodd" d="M8.70206 1.26548C8.82886 1.17114 8.99281 1.1423 9.1442 1.18772L15.8109 3.18772C16.0224 3.25116 16.1672 3.44583 16.1672 3.66663V15.6666C16.1672 15.9428 15.9433 16.1666 15.6672 16.1666H10.3339H3.6748L3.66667 16.1667H1C0.723858 16.1667 0.5 15.9428 0.5 15.6667V9.00003C0.5 8.72388 0.723858 8.50003 1 8.50003H3.16719V6.3333C3.16719 6.05715 3.39105 5.8333 3.66719 5.8333H10.3339C10.61 5.8333 10.8339 6.05715 10.8339 6.3333V15.1666H15.1672V4.03865L9.50052 2.33865V4.3333C9.50052 4.60944 9.27666 4.8333 9.00052 4.8333C8.72438 4.8333 8.50052 4.60944 8.50052 4.3333V1.66663C8.50052 1.50858 8.57525 1.35983 8.70206 1.26548ZM3.16719 9.50003V15.1667H1.5V9.50003H3.16719ZM9.83385 15.1666V6.8333H4.16719V15.1666H9.83385ZM6.33281 10.5C6.05667 10.5 5.83281 10.7239 5.83281 11C5.83281 11.2762 6.05667 11.5 6.33281 11.5H7.66615C7.94229 11.5 8.16615 11.2762 8.16615 11C8.16615 10.7239 7.94229 10.5 7.66615 10.5H6.33281ZM5.83281 13C5.83281 12.7239 6.05667 12.5 6.33281 12.5H7.66615C7.94229 12.5 8.16615 12.7239 8.16615 13C8.16615 13.2762 7.94229 13.5 7.66615 13.5H6.33281C6.05667 13.5 5.83281 13.2762 5.83281 13ZM6.33281 8.50003C6.05667 8.50003 5.83281 8.72388 5.83281 9.00003C5.83281 9.27617 6.05667 9.50003 6.33281 9.50003H7.66615C7.94229 9.50003 8.16615 9.27617 8.16615 9.00003C8.16615 8.72388 7.94229 8.50003 7.66615 8.50003H6.33281ZM13.5 6.33343C13.5 6.05729 13.2761 5.83343 13 5.83343C12.7239 5.83343 12.5 6.05729 12.5 6.33343V13.0001C12.5 13.2762 12.7239 13.5001 13 13.5001C13.2761 13.5001 13.5 13.2762 13.5 13.0001V6.33343Z" fill="currentColor"/>
</svg>
