<svg width="44" height="44" viewBox="0 0 44 44" fill="none" xmlns="http://www.w3.org/2000/svg">
<rect width="44" height="44" rx="6.75" fill="#F0F075"/>
<g clip-path="url(#clip0_11042_18968)">
<path d="M25.25 29.3125V30.9375H18.75V29.3125H9.8125V33.375C9.8125 33.8235 10.1765 34.1875 10.625 34.1875H33.375C33.8235 34.1875 34.1875 33.8235 34.1875 33.375V29.3125H25.25Z" fill="#212121"/>
<path d="M34.1875 13.875H26.875V10.625C26.875 10.1765 26.511 9.8125 26.0625 9.8125H17.9375C17.489 9.8125 17.125 10.1765 17.125 10.625V13.875H9.8125C9.364 13.875 9 14.239 9 14.6875V26.875C9 27.3235 9.364 27.6875 9.8125 27.6875H18.75V26.0625H25.25V27.6875H34.1875C34.636 27.6875 35 27.3235 35 26.875V14.6875C35 14.239 34.636 13.875 34.1875 13.875ZM25.25 13.875H18.75V11.4375H25.25V13.875Z" fill="#212121"/>
</g>
<defs>
<clipPath id="clip0_11042_18968">
<rect width="26" height="26" fill="white" transform="translate(9 9)"/>
</clipPath>
</defs>
</svg>
