<svg width="16" height="16" viewBox="0 0 16 16" fill="none" xmlns="http://www.w3.org/2000/svg">
<path fill-rule="evenodd" clip-rule="evenodd" d="M5.67251 1.10278C5.39637 1.10278 5.17251 1.32664 5.17251 1.60278V3.43272H1.60059C1.32444 3.43272 1.10059 3.65658 1.10059 3.93272V9.75052C1.10059 10.0267 1.32444 10.2505 1.60059 10.2505H5.755V10.9124C5.755 11.1886 5.97885 11.4124 6.255 11.4124H9.74568C10.0218 11.4124 10.2457 11.1886 10.2457 10.9124V10.2505H14.3997C14.6759 10.2505 14.8997 10.0267 14.8997 9.75052V3.93272C14.8997 3.65658 14.6759 3.43272 14.3997 3.43272H10.8268V1.60278C10.8268 1.32664 10.6029 1.10278 10.3268 1.10278H5.67251ZM9.24568 9.7374C9.24556 9.74176 9.24551 9.74613 9.24551 9.75052C9.24551 9.75491 9.24556 9.75928 9.24568 9.76364V10.4124H6.755V9.08531H9.24568V9.7374ZM10.2457 9.25052H13.8997V4.43272H2.10059V9.25052H5.755V8.58531C5.755 8.30917 5.97885 8.08531 6.255 8.08531H9.74568C10.0218 8.08531 10.2457 8.30917 10.2457 8.58531V9.25052ZM9.82675 3.43272V2.10278H6.17251V3.43272H9.82675ZM2.18216 10.9904C2.4583 10.9904 2.68216 11.2143 2.68216 11.4904V13.8993H13.3178V11.4904C13.3178 11.2143 13.5416 10.9904 13.8178 10.9904C14.0939 10.9904 14.3178 11.2143 14.3178 11.4904V14.3993C14.3178 14.6755 14.0939 14.8993 13.8178 14.8993H2.18216C1.90602 14.8993 1.68216 14.6755 1.68216 14.3993V11.4904C1.68216 11.2143 1.90602 10.9904 2.18216 10.9904Z" fill="currentColor"/>
</svg>
