<svg width="20" height="20" viewBox="0 0 20 20" fill="none" xmlns="http://www.w3.org/2000/svg">
<g clip-path="url(#clip0_7391_4336)">
<path fill-rule="evenodd" clip-rule="evenodd" d="M6.83301 0.75C6.55687 0.75 6.33301 0.973858 6.33301 1.25V4.08301H1C0.723858 4.08301 0.5 4.30687 0.5 4.58301V12.9163C0.5 13.1925 0.723858 13.4163 1 13.4163H7.16699V14.5833C7.16699 14.8595 7.39085 15.0833 7.66699 15.0833H12.667C12.9431 15.0833 13.167 14.8595 13.167 14.5833V13.4163H19.3333C19.6095 13.4163 19.8333 13.1925 19.8333 12.9163V4.58301C19.8333 4.30687 19.6095 4.08301 19.3333 4.08301H13.9997V1.25C13.9997 0.973858 13.7758 0.75 13.4997 0.75H6.83301ZM12.167 12.8981C12.1668 12.9042 12.1667 12.9102 12.1667 12.9163C12.1667 12.9224 12.1668 12.9285 12.167 12.9345V14.0833H8.16699V11.75H12.167V12.8981ZM13.167 12.4163H18.8333V5.08301H13.5179C13.5118 5.08322 13.5058 5.08333 13.4997 5.08333C13.4936 5.08333 13.4875 5.08322 13.4815 5.08301H6.85121C6.84517 5.08322 6.8391 5.08333 6.83301 5.08333C6.82691 5.08333 6.82085 5.08322 6.8148 5.08301H1.5V12.4163H7.16699V11.25C7.16699 10.9739 7.39085 10.75 7.66699 10.75H12.667C12.9431 10.75 13.167 10.9739 13.167 11.25V12.4163ZM12.9997 4.08301V1.75H7.33301V4.08301H12.9997ZM1.83301 14.917C2.10915 14.917 2.33301 15.1409 2.33301 15.417V19.0837H17.9997V15.417C17.9997 15.1409 18.2235 14.917 18.4997 14.917C18.7758 14.917 18.9997 15.1409 18.9997 15.417V19.5837C18.9997 19.8598 18.7758 20.0837 18.4997 20.0837H1.83301C1.55687 20.0837 1.33301 19.8598 1.33301 19.5837V15.417C1.33301 15.1409 1.55687 14.917 1.83301 14.917Z" fill="url(#paint0_linear_7391_4336)"/>
</g>
<defs>
<linearGradient id="paint0_linear_7391_4336" x1="10.2065" y1="-1.88779" x2="10.2065" y2="24.0238" gradientUnits="userSpaceOnUse">
<stop stop-color="#303236" stop-opacity="0.6"/>
<stop offset="0.608327" stop-color="#303236"/>
</linearGradient>
<clipPath id="clip0_7391_4336">
<rect width="20" height="20" fill="white"/>
</clipPath>
</defs>
</svg>
