<svg width="44" height="44" viewBox="0 0 44 44" fill="none" xmlns="http://www.w3.org/2000/svg">
<rect width="44" height="44" rx="6.75" fill="#AA99FF"/>
<path d="M33.9167 14.9583H21.759L19.2094 10.8796C19.1607 10.8017 19.093 10.7374 19.0127 10.6929C18.9323 10.6484 18.842 10.625 18.7501 10.625H10.0834C9.93976 10.625 9.80198 10.6821 9.7004 10.7837C9.59882 10.8852 9.54175 11.023 9.54175 11.1667V30.6667C9.54261 31.3847 9.82823 32.0731 10.336 32.5808C10.8437 33.0885 11.5321 33.3741 12.2501 33.375H31.7501C32.4681 33.3741 33.1565 33.0885 33.6642 32.5808C34.1719 32.0731 34.4576 31.3847 34.4584 30.6667V15.5C34.4584 15.3563 34.4013 15.2186 34.2998 15.117C34.1982 15.0154 34.0604 14.9583 33.9167 14.9583ZM17.6949 23.9955C17.7216 23.9158 17.7663 23.8434 17.8255 23.7837L23.7838 17.8254C23.8854 17.7238 24.0231 17.6668 24.1667 17.6668C24.3104 17.6668 24.4481 17.7238 24.5497 17.8254L26.7164 19.992C26.8179 20.0936 26.875 20.2314 26.875 20.375C26.875 20.5186 26.8179 20.6564 26.7164 20.758L20.758 26.7163C20.6986 26.7758 20.6261 26.8207 20.5462 26.8474L16.5834 27.9583L17.6949 23.9955ZM27.4167 30.6667H16.5834C16.4398 30.6667 16.302 30.6096 16.2004 30.508C16.0988 30.4064 16.0417 30.2687 16.0417 30.125C16.0417 29.9813 16.0988 29.8436 16.2004 29.742C16.302 29.6404 16.4398 29.5833 16.5834 29.5833H27.4167C27.5604 29.5833 27.6982 29.6404 27.7998 29.742C27.9013 29.8436 27.9584 29.9813 27.9584 30.125C27.9584 30.2687 27.9013 30.4064 27.7998 30.508C27.6982 30.6096 27.5604 30.6667 27.4167 30.6667Z" fill="#212121"/>
</svg>
