<svg width="20" height="20" viewBox="0 0 20 20" fill="none" xmlns="http://www.w3.org/2000/svg">
  <g clip-path="url(#clip0_7871_14124)">
    <path fill-rule="evenodd" clip-rule="evenodd" d="M1.97363 2.6106C1.97363 2.25888 2.25876 1.97375 2.61047 1.97375H17.3894C17.7411 1.97375 18.0262 2.25888 18.0262 2.6106V17.3895C18.0262 17.7412 17.7411 18.0264 17.3894 18.0264H8.79467V11.7042C8.79467 11.4281 8.57082 11.2042 8.29467 11.2042H1.97363V2.6106ZM0.973633 11.7042V2.6106C0.973633 1.70659 1.70647 0.973755 2.61047 0.973755H17.3894C18.2934 0.973755 19.0262 1.70659 19.0262 2.6106V17.3895C19.0262 18.2935 18.2934 19.0264 17.3894 19.0264H2.61047C1.70647 19.0264 0.973633 18.2935 0.973633 17.3895V11.7042ZM1.97363 12.2042H7.79467V18.0264H2.61047C2.25876 18.0264 1.97363 17.7412 1.97363 17.3895V12.2042ZM10.5661 5.38204C10.2899 5.38204 10.0661 5.15818 10.0661 4.88204C10.0661 4.6059 10.2899 4.38204 10.5661 4.38204H15.1134C15.1812 4.38204 15.2459 4.39553 15.3048 4.41998C15.3638 4.44438 15.419 4.48055 15.467 4.52849C15.5149 4.57642 15.5511 4.63168 15.5755 4.69065C15.5996 4.74873 15.613 4.81234 15.6134 4.87904C15.6134 4.88004 15.6134 4.88104 15.6134 4.88204V4.88253V9.4294C15.6134 9.70554 15.3896 9.9294 15.1134 9.9294C14.8373 9.9294 14.6134 9.70554 14.6134 9.4294V6.08915L10.9196 9.78295C10.7243 9.97822 10.4078 9.97822 10.2125 9.78295C10.0172 9.58769 10.0172 9.27111 10.2125 9.07585L13.9063 5.38204H10.5661Z" fill="url(#paint0_linear_7871_14124)" />
  </g>
  <defs>
    <linearGradient id="paint0_linear_7871_14124" x1="10.3166" y1="1.92389" x2="10.3166" y2="18.7096" gradientUnits="userSpaceOnUse">
      <stop stop-color="#E5E5E5" />
      <stop offset="1" stop-color="#E5E5E5" stop-opacity="0.4" />
    </linearGradient>
    <clipPath id="clip0_7871_14124">
      <rect width="20" height="20" fill="white" />
    </clipPath>
  </defs>
</svg>