<svg width="20" height="20" viewBox="0 0 20 20" fill="none" xmlns="http://www.w3.org/2000/svg">
  <g clip-path="url(#clip0_7871_14100)">
    <path fill-rule="evenodd" clip-rule="evenodd" d="M9.99992 0C8.71511 0 7.46211 0.399644 6.41456 1.14355C5.46963 1.81458 4.73408 2.73576 4.2883 3.80014C3.15209 3.80322 2.06308 4.25591 1.25943 5.05956C0.453031 5.86596 0 6.95967 0 8.1001C0 9.24052 0.453031 10.3342 1.25943 11.1406C2.06583 11.947 3.15955 12.4001 4.29997 12.4001H4.43326V14.8596L3.16001 16.1328C2.8458 15.9428 2.47733 15.8334 2.08332 15.8334C0.932734 15.8334 0 16.7661 0 17.9167C0 19.0673 0.932734 20 2.08332 20C3.23391 20 4.16664 19.0673 4.16664 17.9167C4.16664 17.5226 4.05723 17.1541 3.86714 16.8399L5.28681 15.4202C5.38058 15.3264 5.43326 15.1993 5.43326 15.0667V12.4001H9.49988V15.8938C8.59081 16.1177 7.91663 16.9385 7.91663 17.9167C7.91663 19.0673 8.84936 20 9.99995 20C11.1505 20 12.0833 19.0673 12.0833 17.9167C12.0833 16.9384 11.409 16.1177 10.4999 15.8937V12.4001H14.5665V15.0667C14.5665 15.1993 14.6192 15.3264 14.713 15.4202L16.1327 16.84C15.9426 17.1542 15.8333 17.5227 15.8333 17.9167C15.8333 19.0673 16.766 20 17.9166 20C19.0672 20 19.9999 19.0673 19.9999 17.9167C19.9999 16.7661 19.0672 15.8334 17.9166 15.8334C17.5225 15.8334 17.154 15.9428 16.8398 16.1328L15.5665 14.8596V12.4001H15.6999C16.8403 12.4001 17.934 11.947 18.7404 11.1406C19.5468 10.3342 19.9998 9.24052 19.9998 8.1001C19.9998 7.3171 19.7863 6.55613 19.3915 5.89509C19.2112 5.59328 18.9931 5.31229 18.7404 5.05956C17.9368 4.25591 16.8478 3.80322 15.7115 3.80015C15.3427 2.9195 14.7755 2.13688 14.0555 1.51287C13.9053 1.38267 13.7484 1.25938 13.5853 1.14355C12.5377 0.399644 11.2847 0 9.99992 0ZM15.0728 11.4001H15.6999C16.5751 11.4001 17.4144 11.0524 18.0333 10.4335C18.6522 9.81466 18.9998 8.9753 18.9998 8.1001C18.9998 7.49922 18.836 6.91524 18.5329 6.40786C18.3946 6.17627 18.2273 5.96066 18.0333 5.76667C17.4144 5.1478 16.5751 4.80013 15.6999 4.80013C15.6119 4.80013 15.5206 4.80624 15.4154 4.81491C15.1883 4.83361 14.9773 4.69645 14.9023 4.48136C14.6025 3.62259 14.0836 2.86048 13.4006 2.26856C13.2746 2.15939 13.1431 2.05601 13.0063 1.95888C12.1279 1.33511 11.0773 1 9.99992 1C8.92259 1 7.87194 1.33511 6.99356 1.95888C6.11518 2.58265 5.45258 3.4642 5.09757 4.48136C5.0225 4.69645 4.81151 4.83361 4.58446 4.81491C4.47925 4.80624 4.38794 4.80013 4.29997 4.80013C3.42476 4.80013 2.5854 5.1478 1.96654 5.76667C1.34767 6.38553 1 7.22489 1 8.1001C1 8.9753 1.34767 9.81466 1.96654 10.4335C2.5854 11.0524 3.42476 11.4001 4.29997 11.4001H4.92694C4.92904 11.4 4.93115 11.4 4.93326 11.4C4.93536 11.4 4.93747 11.4 4.93957 11.4001H9.99356C9.99566 11.4 9.99777 11.4 9.99988 11.4C10.002 11.4 10.0041 11.4 10.0062 11.4001H15.0602C15.0623 11.4 15.0644 11.4 15.0665 11.4C15.0686 11.4 15.0707 11.4 15.0728 11.4001ZM2.08332 16.8334C1.48502 16.8334 1 17.3184 1 17.9167C1 18.515 1.48502 19 2.08332 19C2.68162 19 3.16664 18.515 3.16664 17.9167C3.16664 17.3184 2.68162 16.8334 2.08332 16.8334ZM9.99995 16.8334C9.40164 16.8334 8.91663 17.3184 8.91663 17.9167C8.91663 18.515 9.40164 19 9.99995 19C10.5982 19 11.0833 18.515 11.0833 17.9167C11.0833 17.3184 10.5982 16.8334 9.99995 16.8334ZM17.1651 17.1364C17.3599 16.9487 17.6248 16.8334 17.9166 16.8334C18.5149 16.8334 18.9999 17.3184 18.9999 17.9167C18.9999 18.515 18.5149 19 17.9166 19C17.3183 19 16.8333 18.515 16.8333 17.9167C16.8333 17.6249 16.9486 17.36 17.1362 17.1653L17.1442 17.1577L17.151 17.1511C17.1558 17.1463 17.1605 17.1414 17.1651 17.1364Z" fill="url(#paint0_linear_7871_14100)" />
  </g>
  <defs>
    <linearGradient id="paint0_linear_7871_14100" x1="10.021" y1="-0.0385957" x2="10.021" y2="20" gradientUnits="userSpaceOnUse">
      <stop stop-color="#1A1A1A" stop-opacity="0.6" />
      <stop offset="1" stop-color="#1A1A1A" />
    </linearGradient>
    <clipPath id="clip0_7871_14100">
      <rect width="20" height="20" fill="white" />
    </clipPath>
  </defs>
</svg>