<svg width="20" height="20" viewBox="0 0 20 20" fill="none" xmlns="http://www.w3.org/2000/svg">
  <path fill-rule="evenodd" clip-rule="evenodd" d="M4.23158 1.14693C4.32535 1.05317 4.45253 1.00049 4.58513 1.00049C8.40709 1.00049 12.0725 2.51875 14.775 5.22128C17.4776 7.92381 18.9958 11.5892 18.9958 15.4112C18.9958 15.6873 18.772 15.9112 18.4958 15.9112H13.8589C13.5828 15.9112 13.3589 15.6873 13.3589 15.4112C13.3589 15.135 13.5828 14.9112 13.8589 14.9112H17.9865C17.8607 11.5361 16.4648 8.32528 14.0679 5.92839C11.671 3.53149 8.46024 2.13561 5.08513 2.0098V6.13738C5.08513 6.41353 4.86128 6.63738 4.58513 6.63738C4.30899 6.63738 4.08513 6.41353 4.08513 6.13738V1.50049C4.08513 1.36788 4.13781 1.2407 4.23158 1.14693ZM4.59541 12.8169C3.1643 12.8169 2.00415 13.9771 2.00415 15.4082C2.00415 16.8393 3.1643 17.9995 4.59541 17.9995C6.02653 17.9995 7.18668 16.8393 7.18668 15.4082C7.18668 13.9771 6.02653 12.8169 4.59541 12.8169ZM1.00415 15.4082C1.00415 13.4248 2.61201 11.8169 4.59541 11.8169C5.40997 11.8169 6.16119 12.0881 6.7637 12.5451L10.433 8.87579C10.6283 8.68053 10.9449 8.68053 11.1401 8.87579C11.3354 9.07105 11.3354 9.38763 11.1401 9.5829L7.46908 13.254C7.91968 13.8541 8.18668 14.6 8.18668 15.4082C8.18668 17.3916 6.57881 18.9995 4.59541 18.9995C2.61201 18.9995 1.00415 17.3916 1.00415 15.4082Z" fill="url(#paint0_linear_7871_14163)" />
  <defs>
    <linearGradient id="paint0_linear_7871_14163" x1="10.3156" y1="1.9478" x2="10.3156" y2="18.6837" gradientUnits="userSpaceOnUse">
      <stop stop-color="#1A1A1A" stop-opacity="0.6" />
      <stop offset="1" stop-color="#1A1A1A" />
    </linearGradient>
  </defs>
</svg>