<svg width="20" height="20" viewBox="0 0 20 20" fill="none" xmlns="http://www.w3.org/2000/svg">
<path d="M9.3591 5C9.20438 4.99992 9.05274 4.95676 8.92116 4.87537C8.78958 4.79398 8.68326 4.67757 8.6141 4.53917L7.8241 2.96083C7.75494 2.82243 7.64862 2.70602 7.51704 2.62463C7.38546 2.54324 7.23382 2.50008 7.0791 2.5H1.66243C1.44142 2.5 1.22946 2.5878 1.07318 2.74408C0.916899 2.90036 0.829102 3.11232 0.829102 3.33333V16.6667C0.829102 16.8877 0.916899 17.0996 1.07318 17.2559C1.22946 17.4122 1.44142 17.5 1.66243 17.5H18.3291C18.5501 17.5 18.7621 17.4122 18.9184 17.2559C19.0746 17.0996 19.1624 16.8877 19.1624 16.6667V5.83333C19.1624 5.61232 19.0746 5.40036 18.9184 5.24408C18.7621 5.0878 18.5501 5 18.3291 5H9.3591Z" stroke="url(#paint0_linear_7391_4362)" stroke-linecap="round" stroke-linejoin="round"/>
<defs>
<linearGradient id="paint0_linear_7391_4362" x1="9.91154" y1="-1.18046" x2="9.91154" y2="20.6045" gradientUnits="userSpaceOnUse">
<stop stop-color="#303236" stop-opacity="0.6"/>
<stop offset="0.879715" stop-color="#303236"/>
</linearGradient>
</defs>
</svg>
