<svg width="20" height="20" viewBox="0 0 20 20" fill="none" xmlns="http://www.w3.org/2000/svg">
  <g clip-path="url(#clip0_7871_14151)">
    <path fill-rule="evenodd" clip-rule="evenodd" d="M3.1467 2.47409C2.81032 2.73919 2.72632 2.9511 2.72632 3.09001C2.72632 3.22892 2.81032 3.44083 3.1467 3.70593C3.47745 3.96659 3.98703 4.2232 4.6613 4.44795C6.0046 4.89572 7.89216 5.18125 10 5.18125C12.1079 5.18125 13.9954 4.89572 15.3387 4.44795C16.013 4.2232 16.5226 3.96659 16.8533 3.70593C17.1897 3.44083 17.2737 3.22892 17.2737 3.09001C17.2737 2.9511 17.1897 2.73919 16.8533 2.47409C16.5226 2.21344 16.013 1.95683 15.3387 1.73208C13.9954 1.28431 12.1079 0.998779 10 0.998779C7.89216 0.998779 6.0046 1.28431 4.6613 1.73208C3.98703 1.95683 3.47745 2.21344 3.1467 2.47409ZM1.72632 3.09001V3.08839C1.72698 2.51249 2.07779 2.04327 2.52773 1.68868C2.98372 1.32932 3.61257 1.02756 4.34507 0.783393C5.81529 0.293318 7.81459 -0.0012207 10 -0.0012207C12.1855 -0.0012207 14.1847 0.293318 15.655 0.783393C16.3875 1.02756 17.0163 1.32932 17.4723 1.68868C17.9227 2.0436 18.2737 2.51337 18.2737 3.09001V10.0135V16.9099C18.2737 17.4908 17.9301 17.9652 17.4779 18.3254C17.0227 18.688 16.3948 18.989 15.6634 19.2309C14.1955 19.7164 12.1962 20.0012 10 20.0012C7.80387 20.0012 5.80451 19.7164 4.33663 19.2309C3.60525 18.989 2.97733 18.688 2.52211 18.3254C2.06994 17.9652 1.72632 17.4908 1.72632 16.9099V10.0135V3.09001V3.09001ZM2.72632 11.5797V16.9099C2.72632 17.0632 2.81457 17.2798 3.14516 17.5432C3.47272 17.8041 3.97846 18.0591 4.65067 18.2815C5.98996 18.7245 7.87745 19.0012 10 19.0012C12.1226 19.0012 14.0101 18.7245 15.3494 18.2815C16.0216 18.0591 16.5273 17.8041 16.8549 17.5432C17.1855 17.2798 17.2737 17.0632 17.2737 16.9099V11.5797C16.8423 11.8758 16.2909 12.1269 15.6634 12.3344C14.1955 12.82 12.1962 13.1047 10 13.1047C7.80387 13.1047 5.80451 12.82 4.33663 12.3344C3.70912 12.1269 3.15777 11.8758 2.72632 11.5797ZM17.2737 10.0135C17.2737 10.1668 17.1855 10.3834 16.8549 10.6467C16.5273 10.9076 16.0216 11.1627 15.3494 11.385C14.0101 11.828 12.1226 12.1047 10 12.1047C7.87745 12.1047 5.98996 11.828 4.65067 11.385C3.97846 11.1627 3.47272 10.9076 3.14516 10.6467C2.81457 10.3834 2.72632 10.1668 2.72632 10.0135V4.63691C3.15936 4.93294 3.71371 5.18618 4.34507 5.39663C5.81529 5.88671 7.81459 6.18125 10 6.18125C12.1855 6.18125 14.1847 5.88671 15.655 5.39663C16.2863 5.18618 16.8407 4.93294 17.2737 4.63691V10.0135Z" fill="url(#paint0_linear_7871_14151)" />
  </g>
  <defs>
    <linearGradient id="paint0_linear_7871_14151" x1="10.2903" y1="1.05154" x2="10.2903" y2="19.6502" gradientUnits="userSpaceOnUse">
      <stop stop-color="#1A1A1A" stop-opacity="0.6" />
      <stop offset="1" stop-color="#1A1A1A" />
    </linearGradient>
    <clipPath id="clip0_7871_14151">
      <rect width="20" height="20" fill="white" />
    </clipPath>
  </defs>
</svg>