<svg width="44" height="44" viewBox="0 0 44 44" fill="none" xmlns="http://www.w3.org/2000/svg">
<rect width="44" height="44" rx="6.75" fill="#F0F075"/>
<path d="M33.5841 14.8039H21.8423L19.7813 11.369C19.7137 11.2565 19.6182 11.1633 19.5039 11.0987C19.3897 11.034 19.2606 11 19.1293 11H10.7608C10.559 11 10.3655 11.0802 10.2228 11.2228C10.0802 11.3655 10 11.559 10 11.7608V30.0195C10 30.8266 10.3206 31.6006 10.8913 32.1713C11.462 32.742 12.236 33.0626 13.0431 33.0626H31.3018C32.1089 33.0626 32.8829 32.742 33.4536 32.1713C34.0243 31.6006 34.3449 30.8266 34.3449 30.0195V15.5647C34.3449 15.3629 34.2648 15.1694 34.1221 15.0267C33.9794 14.884 33.7859 14.8039 33.5841 14.8039ZM19.4443 26.2156L18.3686 27.2913L15.0105 23.9332L18.3686 20.5752L19.4443 21.6509L17.162 23.9332L19.4443 26.2156ZM21.1325 29.4603L19.687 28.9787L23.2109 18.4039L24.6564 18.8855L21.1325 29.4603ZM25.9764 27.2913L24.9006 26.2156L27.183 23.9332L24.9006 21.6509L25.9764 20.5752L29.3344 23.9332L25.9764 27.2913Z" fill="#18191B"/>
</svg>
