<svg width="20" height="20" viewBox="0 0 20 20" fill="none" xmlns="http://www.w3.org/2000/svg">
<g clip-path="url(#clip0_4436_20819)">
<path fill-rule="evenodd" clip-rule="evenodd" d="M15.9237 2.47623C13.9811 1.12966 11.6125 0.541499 9.26563 0.822946C6.91878 1.10439 4.75638 2.23594 3.18727 4.00365C1.61816 5.77136 0.751091 8.05272 0.75 10.4164C0.749873 10.6925 0.973627 10.9165 1.24977 10.9166C1.52591 10.9167 1.74987 10.693 1.75 10.4168C1.75098 8.29769 2.52835 6.25234 3.93514 4.6675C5.34193 3.08266 7.28063 2.06816 9.3847 1.81583C11.4888 1.5635 13.6124 2.09082 15.354 3.29808C17.0957 4.50535 18.3346 6.30889 18.8366 8.36772C19.3387 10.4265 19.069 12.598 18.0785 14.4714C17.0881 16.3449 15.4456 17.7905 13.4615 18.535C11.4775 19.2795 9.28937 19.2713 7.31096 18.5119C5.71947 17.901 4.35239 16.8381 3.37031 15.4667L6.89038 16.4475C7.15639 16.5216 7.43212 16.366 7.50624 16.1C7.58036 15.834 7.4248 15.5583 7.15879 15.4842L2.41546 14.1625C2.39998 14.1582 2.3844 14.1547 2.36876 14.1519C2.26394 14.1331 2.15231 14.1475 2.05047 14.2003C1.85217 14.3033 1.75177 14.5205 1.78805 14.7295L2.39266 19.5374C2.42711 19.8114 2.67715 20.0055 2.95114 19.9711C3.22512 19.9366 3.4193 19.6866 3.38484 19.4126L3.03967 16.6678C4.08245 17.8992 5.42482 18.8591 6.95261 19.4455C9.1593 20.2925 11.5999 20.3017 13.8128 19.4713C16.0258 18.6409 17.8579 17.0284 18.9626 14.9388C20.0673 12.8492 20.3681 10.4272 19.8082 8.13082C19.2482 5.83444 17.8663 3.82279 15.9237 2.47623ZM10.417 4.91663C10.6931 4.91663 10.917 5.14048 10.917 5.41663V9.91663H15.417C15.6931 9.91663 15.917 10.1405 15.917 10.4166C15.917 10.6928 15.6931 10.9166 15.417 10.9166H10.417C10.1409 10.9166 9.91699 10.6928 9.91699 10.4166V5.41663C9.91699 5.14048 10.1409 4.91663 10.417 4.91663Z" fill="url(#paint0_linear_4436_20819)"/>
</g>
<defs>
<linearGradient id="paint0_linear_4436_20819" x1="10.4167" y1="0.75415" x2="10.4167" y2="20.0875" gradientUnits="userSpaceOnUse">
<stop stop-color="#E5E5E5"/>
<stop offset="1" stop-color="#E5E5E5" stop-opacity="0.4"/>
</linearGradient>
<clipPath id="clip0_4436_20819">
<rect width="20" height="20" fill="white"/>
</clipPath>
</defs>
</svg>
