<svg width="20" height="20" viewBox="0 0 20 20" fill="none" xmlns="http://www.w3.org/2000/svg">
<g clip-path="url(#clip0_7391_4283)">
<path fill-rule="evenodd" clip-rule="evenodd" d="M15.9237 2.47623C13.9811 1.12966 11.6125 0.541499 9.26563 0.822946C6.91878 1.10439 4.75638 2.23594 3.18727 4.00365C1.61816 5.77136 0.751091 8.05272 0.75 10.4164C0.749873 10.6925 0.973627 10.9165 1.24977 10.9166C1.52591 10.9167 1.74987 10.693 1.75 10.4168C1.75098 8.29769 2.52835 6.25234 3.93514 4.6675C5.34193 3.08266 7.28063 2.06816 9.3847 1.81583C11.4888 1.5635 13.6124 2.09082 15.354 3.29808C17.0957 4.50535 18.3346 6.30889 18.8366 8.36772C19.3387 10.4265 19.069 12.598 18.0785 14.4714C17.0881 16.3449 15.4456 17.7905 13.4615 18.535C11.4775 19.2795 9.28937 19.2713 7.31096 18.5119C5.71954 17.9011 4.3525 16.8382 3.37043 15.4668L6.88989 16.4475C7.1559 16.5216 7.43163 16.366 7.50575 16.1C7.57987 15.834 7.42431 15.5583 7.1583 15.4842L2.42326 14.1648C2.30344 14.1292 2.17019 14.1382 2.05047 14.2003C1.95523 14.2498 1.88257 14.3256 1.83679 14.4142C1.80463 14.4763 1.78566 14.5448 1.78159 14.6153C1.77967 14.648 1.78096 14.6811 1.78562 14.7141L2.39217 19.5374C2.42662 19.8114 2.67666 20.0055 2.95065 19.9711C3.22463 19.9366 3.41881 19.6866 3.38435 19.4126L3.0391 16.6671C4.08195 17.8988 5.42454 18.859 6.95261 19.4455C9.1593 20.2925 11.5999 20.3017 13.8128 19.4713C16.0258 18.6409 17.8579 17.0284 18.9626 14.9388C20.0673 12.8492 20.3681 10.4272 19.8082 8.13082C19.2482 5.83444 17.8663 3.82279 15.9237 2.47623ZM10.4167 4.91663C10.6929 4.91663 10.9167 5.14048 10.9167 5.41663V9.91663H15.4167C15.6929 9.91663 15.9167 10.1405 15.9167 10.4166C15.9167 10.6928 15.6929 10.9166 15.4167 10.9166H10.4167C10.1406 10.9166 9.91675 10.6928 9.91675 10.4166V5.41663C9.91675 5.14048 10.1406 4.91663 10.4167 4.91663Z" fill="url(#paint0_linear_7391_4283)"/>
</g>
<defs>
<linearGradient id="paint0_linear_7391_4283" x1="10.4565" y1="-1.8836" x2="10.4565" y2="24.0276" gradientUnits="userSpaceOnUse">
<stop stop-color="#303236" stop-opacity="0.6"/>
<stop offset="0.608327" stop-color="#303236"/>
</linearGradient>
<clipPath id="clip0_7391_4283">
<rect width="20" height="20" fill="white"/>
</clipPath>
</defs>
</svg>
