<svg width="16" height="16" viewBox="0 0 16 16" fill="none" xmlns="http://www.w3.org/2000/svg">
<path d="M11.6967 4.69995H12.753C13.0331 4.69995 13.3018 4.81124 13.4999 5.00932C13.698 5.20741 13.8092 5.47607 13.8092 5.75621V10.2453C13.8092 10.5255 13.698 10.7941 13.4999 10.9922C13.3018 11.1903 13.0331 11.3016 12.753 11.3016H11.6967V13.4141L8.52794 11.3016H7.47168" stroke="currentColor" stroke-linecap="round" stroke-linejoin="round"/>
<path d="M10.6409 2.58569H3.24706C2.96692 2.58569 2.69825 2.69698 2.50017 2.89506C2.30208 3.09315 2.1908 3.36182 2.1908 3.64195V8.13106C2.1908 8.4112 2.30208 8.67986 2.50017 8.87795C2.69825 9.07603 2.96692 9.18732 3.24706 9.18732H4.30332V11.828L8.00023 9.18732H10.6409C10.921 9.18732 11.1897 9.07603 11.3878 8.87795C11.5859 8.67986 11.6971 8.4112 11.6971 8.13106V3.64195C11.6971 3.36182 11.5859 3.09315 11.3878 2.89506C11.1897 2.69698 10.921 2.58569 10.6409 2.58569Z" stroke="currentColor" stroke-linecap="round" stroke-linejoin="round"/>
</svg>
