<svg width="20" height="20" viewBox="0 0 20 20" fill="none" xmlns="http://www.w3.org/2000/svg">
<g clip-path="url(#clip0_4135_55522)">
<path fill-rule="evenodd" clip-rule="evenodd" d="M0.5 1C0.5 0.723858 0.723858 0.5 1 0.5H19.3333C19.6095 0.5 19.8333 0.723858 19.8333 1V19.3333C19.8333 19.6095 19.6095 19.8333 19.3333 19.8333H1C0.723858 19.8333 0.5 19.6095 0.5 19.3333V1ZM1.5 1.5V18.8333H18.8333V1.5H1.5ZM5.23043 6.14645C5.42569 5.95118 5.74228 5.95118 5.93754 6.14645L9.6042 9.81311C9.79947 10.0084 9.79947 10.325 9.6042 10.5202L5.93754 14.1869C5.74228 14.3821 5.42569 14.3821 5.23043 14.1869C5.03517 13.9916 5.03517 13.675 5.23043 13.4798L8.54354 10.1667L5.23043 6.85355C5.03517 6.65829 5.03517 6.34171 5.23043 6.14645ZM11.084 6C10.8078 6 10.584 6.22386 10.584 6.5C10.584 6.77614 10.8078 7 11.084 7H14.7507C15.0268 7 15.2507 6.77614 15.2507 6.5C15.2507 6.22386 15.0268 6 14.7507 6H11.084ZM10.584 13.8335C10.584 13.5574 10.8078 13.3335 11.084 13.3335H14.7507C15.0268 13.3335 15.2507 13.5574 15.2507 13.8335C15.2507 14.1096 15.0268 14.3335 14.7507 14.3335H11.084C10.8078 14.3335 10.584 14.1096 10.584 13.8335ZM12.916 9.6665C12.6399 9.6665 12.416 9.89036 12.416 10.1665C12.416 10.4426 12.6399 10.6665 12.916 10.6665H14.7493C15.0255 10.6665 15.2493 10.4426 15.2493 10.1665C15.2493 9.89036 15.0255 9.6665 14.7493 9.6665H12.916Z" fill="url(#paint0_linear_4135_55522)"/>
</g>
<defs>
<linearGradient id="paint0_linear_4135_55522" x1="10.1667" y1="0.5" x2="10.1667" y2="19.8333" gradientUnits="userSpaceOnUse">
<stop stop-color="#E5E5E5"/>
<stop offset="1" stop-color="#E5E5E5" stop-opacity="0.4"/>
</linearGradient>
<clipPath id="clip0_4135_55522">
<rect width="20" height="20" fill="white"/>
</clipPath>
</defs>
</svg>
