<svg width="44" height="44" viewBox="0 0 44 44" fill="none" xmlns="http://www.w3.org/2000/svg">
<rect width="44" height="44" rx="6.75" fill="#F0F075"/>
<path d="M35 13.875V11.4375C35 10.989 34.6368 10.625 34.1875 10.625H14.6875V13.875H35Z" fill="#212121"/>
<path d="M13.0625 10.625H9.8125C9.36319 10.625 9 10.989 9 11.4375V13.875H13.0625V10.625Z" fill="#212121"/>
<path d="M9 15.5V32.5625C9 33.011 9.36319 33.375 9.8125 33.375H34.1875C34.6368 33.375 35 33.011 35 32.5625V15.5H9ZM13.875 28.0239L12.7261 26.875L15.9761 23.625L12.7261 20.375L13.875 19.2261L18.2739 23.625L13.875 28.0239ZM25.25 27.6875H18.75V26.0625H25.25V27.6875Z" fill="#212121"/>
</svg>
