<svg width="16" height="16" viewBox="0 0 16 16" fill="none" xmlns="http://www.w3.org/2000/svg">
<path d="M8 1.15039C10.5486 1.15047 12.6305 3.0356 12.9922 5.47656C14.6603 6.06717 15.8651 7.64582 15.8652 9.52344C15.8652 11.9034 13.9355 13.8329 11.5557 13.833H3.68262C1.72324 13.8329 0.134766 12.2445 0.134766 10.2852C0.13503 8.5701 1.35433 7.14968 2.96875 6.82031C2.94348 6.6267 2.92871 6.42687 2.92871 6.22168C2.929 3.42139 5.19967 1.15047 8 1.15039ZM8 2.15039C5.75195 2.15047 3.929 3.97368 3.92871 6.22168C3.92871 6.53006 3.97195 6.83309 4.04199 7.13867C4.07515 7.28326 4.04193 7.43566 3.95215 7.55371C3.86203 7.67184 3.72365 7.74377 3.5752 7.75C2.21718 7.80711 1.13506 8.91861 1.13477 10.2852C1.13477 11.6923 2.27553 12.8329 3.68262 12.833H11.5557C13.3833 12.8329 14.8652 11.3511 14.8652 9.52344C14.8651 7.99593 13.823 6.71788 12.4072 6.33984H12.4053L12.1914 6.28809C11.9779 6.24187 11.7657 6.21391 11.5557 6.21387C10.5755 6.21398 9.69504 6.63955 9.08789 7.31738L8.71582 6.9834L8.34375 6.65039C9.13224 5.77012 10.2789 5.21398 11.5557 5.21387C11.6816 5.21389 11.8056 5.22286 11.9268 5.23535C11.4866 3.46375 9.90217 2.15046 8 2.15039ZM9.08789 7.31738C8.90362 7.52286 8.58745 7.54062 8.38184 7.35645C8.17661 7.17214 8.15966 6.85592 8.34375 6.65039L9.08789 7.31738Z" fill="url(#paint0_linear_2498_39537)"/>
<defs>
<linearGradient id="paint0_linear_2498_39537" x1="8" y1="1.15039" x2="8" y2="13.833" gradientUnits="userSpaceOnUse">
<stop stop-color="currentColor" stop-opacity="0.6" />
<stop offset="0.608327" stop-color="currentColor" />
</linearGradient>
</defs>
</svg>
