<svg width="16" height="16" viewBox="0 0 16 16" fill="none" xmlns="http://www.w3.org/2000/svg">
<path fill-rule="evenodd" clip-rule="evenodd" d="M7.57175 2.50586C7.25015 2.50586 6.94172 2.63362 6.71431 2.86102C6.4869 3.08843 6.35915 3.39686 6.35915 3.71847C6.35915 4.04007 6.4869 4.34851 6.71431 4.57591C6.94172 4.80332 7.25015 4.93108 7.57175 4.93108H10.497V2.50586H7.57175ZM6.0072 2.15392C6.42215 1.73897 6.98493 1.50586 7.57175 1.50586H10.997C11.2731 1.50586 11.497 1.72972 11.497 2.00586V3.2185H14.4222C14.6983 3.2185 14.9222 3.44236 14.9222 3.7185C14.9222 3.99465 14.6983 4.2185 14.4222 4.2185H11.497V5.43108C11.497 5.70722 11.2731 5.93108 10.997 5.93108H7.57175C6.98493 5.93108 6.42215 5.69797 6.0072 5.28302C5.59226 4.86808 5.35915 4.30529 5.35915 3.71847C5.35915 3.13165 5.59226 2.56886 6.0072 2.15392ZM2.68361 4.82448C3.0716 4.43648 3.59784 4.2185 4.14655 4.2185C4.42269 4.2185 4.64655 3.99465 4.64655 3.7185C4.64655 3.44236 4.42269 3.2185 4.14655 3.2185C3.33262 3.2185 2.55203 3.54184 1.9765 4.11737C1.40097 4.6929 1.07764 5.47349 1.07764 6.28742C1.07764 7.10135 1.40097 7.88194 1.9765 8.45747C2.55203 9.033 3.33262 9.35633 4.14655 9.35633H11.8533C12.402 9.35633 12.9282 9.57431 13.3162 9.9623C13.7042 10.3503 13.9222 10.8765 13.9222 11.4252C13.9222 11.974 13.7042 12.5002 13.3162 12.8882C12.9282 13.2762 12.402 13.4942 11.8533 13.4942H5.00286C4.72671 13.4942 4.50286 13.718 4.50286 13.9942C4.50286 14.2703 4.72671 14.4942 5.00286 14.4942H11.8533C12.6672 14.4942 13.4478 14.1708 14.0233 13.5953C14.5989 13.0198 14.9222 12.2392 14.9222 11.4252C14.9222 10.6113 14.5989 9.83073 14.0233 9.2552C13.4478 8.67966 12.6672 8.35633 11.8533 8.35633H4.14655C3.59784 8.35633 3.0716 8.13836 2.68361 7.75036C2.29561 7.36237 2.07764 6.83613 2.07764 6.28742C2.07764 5.73871 2.29561 5.21247 2.68361 4.82448Z" fill="url(#paint0_linear_1282_6238)"/>
<defs>
<linearGradient id="paint0_linear_1282_6238" x1="8.02845" y1="-0.2662" x2="8.02845" y2="17.1411" gradientUnits="userSpaceOnUse">
<stop stop-color="currentColor" stop-opacity="0.6"/>
<stop offset="0.608327" stop-color="currentColor"/>
</linearGradient>
</defs>
</svg>
