<svg width="20" height="20" viewBox="0 0 20 20" fill="none" xmlns="http://www.w3.org/2000/svg">
<path fill-rule="evenodd" clip-rule="evenodd" d="M9.46482 3.00732C9.02966 3.00732 8.61232 3.18019 8.30462 3.48789C7.99692 3.79559 7.82405 4.21293 7.82405 4.64809C7.82405 5.08324 7.99692 5.50058 8.30462 5.80828C8.61232 6.11598 9.02966 6.28885 9.46482 6.28885H13.2463V3.00732H9.46482ZM7.59752 2.78079C8.09275 2.28555 8.76444 2.00732 9.46482 2.00732H13.7463C14.0225 2.00732 14.2463 2.23118 14.2463 2.50732V4.14813H18.0279C18.304 4.14813 18.5279 4.37199 18.5279 4.64813C18.5279 4.92427 18.304 5.14813 18.0279 5.14813H14.2463V6.78885C14.2463 7.06499 14.0225 7.28885 13.7463 7.28885H9.46482C8.76444 7.28885 8.09275 7.01063 7.59752 6.51539C7.10228 6.02015 6.82405 5.34846 6.82405 4.64809C6.82405 3.94771 7.10228 3.27602 7.59752 2.78079ZM3.26624 5.94221C3.77468 5.43377 4.46427 5.14813 5.18331 5.14813C5.45945 5.14813 5.68331 4.92427 5.68331 4.64813C5.68331 4.37199 5.45945 4.14813 5.18331 4.14813C4.19905 4.14813 3.25511 4.53912 2.55914 5.2351C1.86316 5.93107 1.47217 6.87502 1.47217 7.85927C1.47217 8.84353 1.86316 9.78748 2.55914 10.4834C3.25511 11.1794 4.19905 11.5704 5.18331 11.5704H14.8167C15.5358 11.5704 16.2254 11.8561 16.7338 12.3645C17.2422 12.8729 17.5279 13.5625 17.5279 14.2816C17.5279 15.0006 17.2422 15.6902 16.7338 16.1986C16.2254 16.7071 15.5358 16.9927 14.8167 16.9927H6.25369C5.97755 16.9927 5.75369 17.2166 5.75369 17.4927C5.75369 17.7688 5.97755 17.9927 6.25369 17.9927H14.8167C15.801 17.9927 16.7449 17.6017 17.4409 16.9057C18.1369 16.2098 18.5279 15.2658 18.5279 14.2816C18.5279 13.2973 18.1369 12.3534 17.4409 11.6574C16.7449 10.9614 15.801 10.5704 14.8167 10.5704H5.18331C4.46427 10.5704 3.77468 10.2848 3.26624 9.77634C2.75781 9.2679 2.47217 8.57831 2.47217 7.85927C2.47217 7.14023 2.75781 6.45064 3.26624 5.94221Z" fill="url(#paint0_linear_9839_17214)"/>
<defs>
<linearGradient id="paint0_linear_9839_17214" x1="10.0352" y1="-0.173642" x2="10.0352" y2="21.2505" gradientUnits="userSpaceOnUse">
<stop stop-color="#303236" stop-opacity="0.6"/>
<stop offset="0.608327" stop-color="#303236"/>
</linearGradient>
</defs>
</svg>
