<svg width="17" height="18" viewBox="0 0 17 18" fill="none" xmlns="http://www.w3.org/2000/svg">
<path fill-rule="evenodd" clip-rule="evenodd" d="M8.04508 3.0562C7.6752 3.0562 7.32046 3.20313 7.05892 3.46468C6.79737 3.72623 6.65043 4.08096 6.65043 4.45084C6.65043 4.82073 6.79737 5.17546 7.05892 5.43701C7.32046 5.69855 7.6752 5.84549 8.04508 5.84549H11.2594V3.0562H8.04508ZM6.45788 2.86364C6.87883 2.44268 7.44976 2.2062 8.04508 2.2062H11.6844C11.9191 2.2062 12.1094 2.39647 12.1094 2.6312V4.02588H15.3237C15.5584 4.02588 15.7487 4.21616 15.7487 4.45088C15.7487 4.6856 15.5584 4.87588 15.3237 4.87588H12.1094V6.27049C12.1094 6.50521 11.9191 6.69549 11.6844 6.69549H8.04508C7.44976 6.69549 6.87883 6.459 6.45788 6.03805C6.03692 5.6171 5.80043 5.04616 5.80043 4.45084C5.80043 3.85553 6.03692 3.28459 6.45788 2.86364ZM2.77629 5.55084C3.20847 5.11867 3.79462 4.87588 4.4058 4.87588C4.64052 4.87588 4.8308 4.6856 4.8308 4.45088C4.8308 4.21616 4.64052 4.02588 4.4058 4.02588C3.56918 4.02588 2.76683 4.35823 2.17525 4.9498C1.58368 5.54138 1.25133 6.34373 1.25133 7.18035C1.25133 8.01697 1.58368 8.81932 2.17525 9.4109C2.76683 10.0025 3.56918 10.3348 4.4058 10.3348H12.5942C13.2054 10.3348 13.7916 10.5776 14.2237 11.0098C14.6559 11.442 14.8987 12.0281 14.8987 12.6393C14.8987 13.2505 14.6559 13.8366 14.2237 14.2688C13.7916 14.701 13.2054 14.9438 12.5942 14.9438H5.31563C5.0809 14.9438 4.89063 15.134 4.89063 15.3688C4.89063 15.6035 5.0809 15.7938 5.31563 15.7938H12.5942C13.4308 15.7938 14.2332 15.4614 14.8248 14.8698C15.4163 14.2783 15.7487 13.4759 15.7487 12.6393C15.7487 11.8027 15.4163 11.0003 14.8248 10.4087C14.2332 9.81717 13.4308 9.48482 12.5942 9.48482H4.4058C3.79462 9.48482 3.20847 9.24203 2.77629 8.80986C2.34412 8.37769 2.10133 7.79154 2.10133 7.18035C2.10133 6.56917 2.34412 5.98302 2.77629 5.55084Z" fill="url(#paint0_linear_9797_94151)"/>
<defs>
<linearGradient id="paint0_linear_9797_94151" x1="8.50001" y1="2.1312" x2="8.50001" y2="15.8688" gradientUnits="userSpaceOnUse">
<stop stop-color="#E5E5E5"/>
<stop offset="1" stop-color="#E5E5E5" stop-opacity="0.4"/>
</linearGradient>
</defs>
</svg>
