<svg width="17" height="18" viewBox="0 0 17 18" fill="none" xmlns="http://www.w3.org/2000/svg">
<path d="M10.9083 4.66499H15.725M1.27499 4.66499H3.20166M3.20166 4.66499C3.20166 4.02626 3.45539 3.41369 3.90704 2.96204C4.35869 2.51039 4.97126 2.25665 5.60999 2.25665C6.24872 2.25665 6.86129 2.51039 7.31294 2.96204C7.76459 3.41369 8.01833 4.02626 8.01833 4.66499C8.01833 5.30372 7.76459 5.91628 7.31294 6.36793C6.86129 6.81959 6.24872 7.07332 5.60999 7.07332C4.97126 7.07332 4.35869 6.81959 3.90704 6.36793C3.45539 5.91628 3.20166 5.30372 3.20166 4.66499ZM6.09166 13.335H1.27499M15.725 13.335H13.7983M13.7983 13.335C13.7983 13.9737 13.5446 14.5863 13.0929 15.0379C12.6413 15.4896 12.0287 15.7433 11.39 15.7433C10.7513 15.7433 10.1387 15.4896 9.68704 15.0379C9.23539 14.5863 8.98166 13.9737 8.98166 13.335C8.98166 12.6963 9.23539 12.0837 9.68704 11.632C10.1387 11.1804 10.7513 10.9267 11.39 10.9267C12.0287 10.9267 12.6413 11.1804 13.0929 11.632C13.5446 12.0837 13.7983 12.6963 13.7983 13.335Z" stroke="url(#paint0_linear_9797_94143)" stroke-width="0.85" stroke-linecap="round" stroke-linejoin="round"/>
<defs>
<linearGradient id="paint0_linear_9797_94143" x1="8.49999" y1="2.25665" x2="8.49999" y2="15.7433" gradientUnits="userSpaceOnUse">
<stop stop-color="#E5E5E5"/>
<stop offset="1" stop-color="#E5E5E5" stop-opacity="0.4"/>
</linearGradient>
</defs>
</svg>
