<svg width="20" height="20" viewBox="0 0 20 20" fill="none" xmlns="http://www.w3.org/2000/svg">
<path d="M12.8333 4.89998H18.5M1.5 4.89998H3.76667M3.76667 4.89998C3.76667 4.14854 4.06518 3.42787 4.59653 2.89651C5.12788 2.36516 5.84855 2.06665 6.6 2.06665C7.35145 2.06665 8.07212 2.36516 8.60347 2.89651C9.13482 3.42787 9.43333 4.14854 9.43333 4.89998C9.43333 5.65143 9.13482 6.3721 8.60347 6.90345C8.07212 7.43481 7.35145 7.73332 6.6 7.73332C5.84855 7.73332 5.12788 7.43481 4.59653 6.90345C4.06518 6.3721 3.76667 5.65143 3.76667 4.89998ZM7.16667 15.1H1.5M18.5 15.1H16.2333M16.2333 15.1C16.2333 15.8514 15.9348 16.5721 15.4035 17.1035C14.8721 17.6348 14.1514 17.9333 13.4 17.9333C12.6486 17.9333 11.9279 17.6348 11.3965 17.1035C10.8652 16.5721 10.5667 15.8514 10.5667 15.1C10.5667 14.3485 10.8652 13.6279 11.3965 13.0965C11.9279 12.5652 12.6486 12.2667 13.4 12.2667C14.1514 12.2667 14.8721 12.5652 15.4035 13.0965C15.9348 13.6279 16.2333 14.3485 16.2333 15.1Z" stroke="url(#paint0_linear_9839_17232)"/>
<defs>
<linearGradient id="paint0_linear_9839_17232" x1="10.035" y1="-0.0981187" x2="10.035" y2="21.1669" gradientUnits="userSpaceOnUse">
<stop stop-color="#303236" stop-opacity="0.6"/>
<stop offset="0.608327" stop-color="#303236"/>
</linearGradient>
</defs>
</svg>
