<svg width="16" height="16" viewBox="0 0 16 16" fill="none" xmlns="http://www.w3.org/2000/svg">
<path fill-rule="evenodd" clip-rule="evenodd" d="M2.65889 2.83305C2.65986 2.76916 2.69973 2.6359 2.9374 2.4486C3.17284 2.26305 3.54247 2.07553 4.04085 1.90941C5.03273 1.57878 6.4327 1.36627 8.00048 1.36627C9.56826 1.36627 10.9682 1.57878 11.9601 1.90941C12.4585 2.07553 12.8281 2.26305 13.0636 2.4486C13.3043 2.6383 13.3421 2.77256 13.3421 2.83547C13.3421 2.89838 13.3043 3.03263 13.0636 3.22233C12.8281 3.40788 12.4585 3.5954 11.9601 3.76153C10.9682 4.09215 9.56826 4.30466 8.00048 4.30466C6.4327 4.30466 5.03273 4.09215 4.04085 3.76153C3.54247 3.5954 3.17284 3.40788 2.9374 3.22233C2.7007 3.03579 2.66019 2.90286 2.6589 2.83867V2.83667C2.6589 2.83546 2.6589 2.83425 2.65889 2.83305ZM1.72489 2.84411C1.72486 2.84123 1.72485 2.83835 1.72485 2.83547C1.72485 2.36371 2.01211 1.98861 2.35927 1.71501C2.71169 1.43727 3.19271 1.20758 3.74549 1.02332C4.85591 0.653176 6.36025 0.432251 8.00048 0.432251C9.64071 0.432251 11.1451 0.653176 12.2555 1.02332C12.8083 1.20758 13.2893 1.43727 13.6417 1.71501C13.9876 1.98758 14.2739 2.36089 14.2761 2.83015C14.2761 2.83232 14.2761 2.83449 14.2761 2.83667V13.1631C14.2761 13.6371 13.9955 14.0156 13.6463 14.2938C13.2942 14.5742 12.8136 14.8034 12.2616 14.986C11.1528 15.3528 9.64839 15.5663 8.00051 15.5663C6.35264 15.5663 4.84824 15.3528 3.73942 14.986C3.18739 14.8034 2.70679 14.5742 2.35472 14.2938C2.00549 14.0156 1.72489 13.6371 1.72489 13.1631V8.01901C1.72486 8.01608 1.72485 8.01315 1.72485 8.01022C1.72485 8.00837 1.72486 8.00653 1.72489 8.00468V2.84411ZM2.6589 8.01381V4.16266C2.9664 4.34991 3.33629 4.51122 3.74549 4.64761C4.85591 5.01776 6.36025 5.23868 8.00048 5.23868C9.64071 5.23868 11.1451 5.01776 12.2555 4.64761C12.6647 4.51121 13.0346 4.34989 13.3421 4.16262V8.00466C13.3421 8.00651 13.3421 8.00837 13.3421 8.01022C13.3421 8.08483 13.3 8.22262 13.0643 8.41034C12.8315 8.5958 12.465 8.78207 11.9683 8.94639C10.9795 9.27343 9.57962 9.47942 8.00048 9.47942C6.42134 9.47942 5.02143 9.27343 4.0327 8.94639C3.53595 8.78207 3.16946 8.5958 2.93663 8.41034C2.70469 8.22559 2.66025 8.0892 2.6589 8.01381ZM2.6589 9.35212V13.1631C2.6589 13.2377 2.701 13.3755 2.93666 13.5632C3.16949 13.7487 3.53598 13.935 4.03273 14.0993C5.02146 14.4263 6.42137 14.6323 8.00051 14.6323C9.57965 14.6323 10.9796 14.4263 11.9683 14.0993C12.465 13.935 12.8315 13.7487 13.0644 13.5632C13.3 13.3755 13.3421 13.2377 13.3421 13.1631V9.35208C13.0359 9.53895 12.6681 9.69869 12.2616 9.83315C11.1528 10.1999 9.64835 10.4134 8.00048 10.4134C6.35261 10.4134 4.84821 10.1999 3.73939 9.83315C3.3329 9.6987 2.96513 9.53897 2.6589 9.35212Z" fill="url(#paint0_linear_14406_18049)"/>
<defs>
<linearGradient id="paint0_linear_14406_18049" x1="8.02636" y1="-1.63257" x2="8.02636" y2="18.6506" gradientUnits="userSpaceOnUse">
<stop stop-color="currentColor" stop-opacity="0.6"/>
<stop offset="0.608327" stop-color="currentColor"/>
</linearGradient>
</defs>
</svg>
