<svg width="20" height="20" viewBox="0 0 20 20" fill="none" xmlns="http://www.w3.org/2000/svg">
<g clip-path="url(#clip0_7391_4297)">
<path fill-rule="evenodd" clip-rule="evenodd" d="M1.5 2.8C1.5 2.08203 2.08203 1.5 2.8 1.5H17.2C17.918 1.5 18.5 2.08203 18.5 2.8V17.2C18.5 17.918 17.918 18.5 17.2 18.5H2.8C2.08203 18.5 1.5 17.918 1.5 17.2V2.8ZM2.8 0.5C1.52974 0.5 0.5 1.52974 0.5 2.8V17.2C0.5 18.4703 1.52974 19.5 2.8 19.5H17.2C18.4703 19.5 19.5 18.4703 19.5 17.2V2.8C19.5 1.52974 18.4703 0.5 17.2 0.5H2.8ZM8.28673 6.59038C8.134 6.48347 7.93446 6.47041 7.76909 6.55651C7.60373 6.64261 7.5 6.81356 7.5 7V14C7.5 14.1864 7.60373 14.3574 7.76909 14.4435C7.93446 14.5296 8.134 14.5165 8.28673 14.4096L13.2867 10.9096C13.4204 10.8161 13.5 10.6632 13.5 10.5C13.5 10.3368 13.4204 10.1839 13.2867 10.0904L8.28673 6.59038ZM12.1281 10.5L8.5 13.0397V7.96033L12.1281 10.5Z" fill="url(#paint0_linear_7391_4297)"/>
</g>
<defs>
<linearGradient id="paint0_linear_7391_4297" x1="10.0392" y1="-2.09227" x2="10.0392" y2="23.3721" gradientUnits="userSpaceOnUse">
<stop stop-color="#303236" stop-opacity="0.6"/>
<stop offset="0.608327" stop-color="#303236"/>
</linearGradient>
<clipPath id="clip0_7391_4297">
<rect width="20" height="20" fill="white"/>
</clipPath>
</defs>
</svg>
