<svg width="44" height="44" viewBox="0 0 44 44" fill="none" xmlns="http://www.w3.org/2000/svg">
<rect width="44" height="44" rx="6.75" fill="#FBD0D7"/>
<path d="M33.7177 14.8254H21.9093L19.8367 11.3711C19.7687 11.2579 19.6726 11.1643 19.5577 11.0992C19.4428 11.0342 19.3131 11 19.181 11H10.7651C10.5622 11 10.3676 11.0806 10.2241 11.2241C10.0806 11.3676 10 11.5622 10 11.7651V30.1272C10 30.9388 10.3224 31.7172 10.8964 32.2911C11.4703 32.8651 12.2487 33.1875 13.0603 33.1875H31.4224C32.2341 33.1875 33.0125 32.8651 33.5864 32.2911C34.1603 31.7172 34.4828 30.9388 34.4828 30.1272V15.5905C34.4828 15.3876 34.4022 15.193 34.2587 15.0495C34.1152 14.906 33.9206 14.8254 33.7177 14.8254ZM19.181 28.597V19.4159L26.8319 24.0065L19.181 28.597Z" fill="#212121"/>
</svg>
