<svg width="22" height="22" viewBox="0 0 22 22" fill="none" xmlns="http://www.w3.org/2000/svg">
<path d="M6.03281 15.9767C6.55058 16.2134 7.07512 16.4128 7.60413 16.5751M16.1426 15.9767C15.6222 16.2176 15.0937 16.4199 14.5596 16.5836M7.60413 16.5751L7.32545 17.1179C7.01238 17.7339 6.64882 18.3197 6.24488 18.865C4.59777 18.36 2.92137 17.5925 1.18439 16.3302C0.830938 12.6139 1.53785 8.84706 4.15342 4.98935C5.44706 4.39354 6.83059 3.95929 8.28478 3.71692C8.45646 4.02998 8.66855 4.45412 8.80993 4.78739C10.3247 4.5652 11.8497 4.5652 13.3857 4.78739C13.527 4.45412 13.729 4.02998 13.9109 3.71692C15.3549 3.95929 16.7384 4.39354 18.0412 4.98935C20.3033 8.29166 21.4253 12.0282 20.991 16.3302C19.2631 17.5925 17.5766 18.36 15.9306 18.865C15.5266 18.3197 15.163 17.7339 14.8499 17.1179L14.5596 16.5836M7.60413 16.5751C9.9005 17.2792 12.2813 17.2821 14.5596 16.5836M7.77988 14.0378C6.79019 14.0378 5.9823 13.139 5.9823 12.0382C5.9823 10.9375 6.77 10.0387 7.77988 10.0387C8.77964 10.0387 9.59761 10.9375 9.5774 12.0382C9.5774 13.139 8.77964 14.0378 7.77988 14.0378ZM14.4158 14.0378C13.426 14.0378 12.6171 13.139 12.6171 12.0382C12.6171 10.9375 13.4059 10.0387 14.4158 10.0387C15.4155 10.0387 16.2335 10.9375 16.2133 12.0382C16.2133 13.139 15.4257 14.0378 14.4158 14.0378Z" stroke="url(#paint0_linear_4436_20844)" stroke-linecap="round" stroke-linejoin="round"/>
<defs>
<linearGradient id="paint0_linear_4436_20844" x1="11.0913" y1="3.71692" x2="11.0913" y2="18.865" gradientUnits="userSpaceOnUse">
<stop stop-color="#E5E5E5"/>
<stop offset="1" stop-color="#E5E5E5" stop-opacity="0.4"/>
</linearGradient>
</defs>
</svg>
