<svg width="22" height="22" viewBox="0 0 22 22" fill="none" xmlns="http://www.w3.org/2000/svg">
<path d="M6.0333 15.9767C6.55107 16.2134 7.0756 16.4128 7.60462 16.5751M16.1431 15.9767C15.6227 16.2176 15.0942 16.4199 14.5601 16.5836M7.60462 16.5751L7.32594 17.1179C7.01287 17.7339 6.64931 18.3197 6.24537 18.865C4.59826 18.36 2.92186 17.5925 1.18488 16.3302C0.831427 12.6139 1.53834 8.84706 4.15391 4.98935C5.44754 4.39354 6.83108 3.95929 8.28527 3.71692C8.45695 4.02998 8.66903 4.45412 8.81042 4.78739C10.3252 4.5652 11.8502 4.5652 13.3862 4.78739C13.5275 4.45412 13.7295 4.02998 13.9113 3.71692C15.3554 3.95929 16.7389 4.39354 18.0417 4.98935C20.3037 8.29166 21.4257 12.0282 20.9915 16.3302C19.2636 17.5925 17.5771 18.36 15.9311 18.865C15.5271 18.3197 15.1635 17.7339 14.8504 17.1179L14.5601 16.5836M7.60462 16.5751C9.90099 17.2792 12.2818 17.2821 14.5601 16.5836M7.78037 14.0378C6.79068 14.0378 5.98278 13.139 5.98278 12.0382C5.98278 10.9375 6.77048 10.0387 7.78037 10.0387C8.78012 10.0387 9.59809 10.9375 9.57789 12.0382C9.57789 13.139 8.78012 14.0378 7.78037 14.0378ZM14.4162 14.0378C13.4265 14.0378 12.6176 13.139 12.6176 12.0382C12.6176 10.9375 13.4063 10.0387 14.4162 10.0387C15.416 10.0387 16.234 10.9375 16.2138 12.0382C16.2138 13.139 15.4262 14.0378 14.4162 14.0378Z" stroke="url(#paint0_linear_7391_4308)" stroke-linecap="round" stroke-linejoin="round"/>
<defs>
<linearGradient id="paint0_linear_7391_4308" x1="11" y1="0.000122042" x2="11" y2="22.0001" gradientUnits="userSpaceOnUse">
<stop stop-color="#303236" stop-opacity="0.6"/>
<stop offset="0.879715" stop-color="#303236"/>
</linearGradient>
</defs>
</svg>
