<svg width="44" height="44" viewBox="0 0 44 44" fill="none" xmlns="http://www.w3.org/2000/svg">
<rect width="44" height="44" rx="6.75" fill="#AA99FF"/>
<path fill-rule="evenodd" clip-rule="evenodd" d="M31.7032 13.7408C29.9186 12.9351 28.0048 12.3414 26.0039 12.0014C25.9674 11.9949 25.931 12.0113 25.9123 12.0441C25.6661 12.4748 25.3935 13.0367 25.2026 13.4784C23.0505 13.1614 20.9094 13.1614 18.8014 13.4784C18.6104 13.0269 18.3279 12.4748 18.0807 12.0441C18.0619 12.0124 18.0255 11.996 17.9891 12.0014C15.9892 12.3403 14.0755 12.934 12.2898 13.7408C12.2743 13.7473 12.261 13.7583 12.2523 13.7725C8.62229 19.1086 7.62789 24.3136 8.11571 29.4541C8.11792 29.4792 8.13226 29.5033 8.15213 29.5186C10.5471 31.2492 12.867 32.2998 15.1438 32.9962C15.1803 33.0071 15.2189 32.994 15.2421 32.9645C15.7806 32.2408 16.2607 31.4777 16.6724 30.6752C16.6967 30.6282 16.6735 30.5725 16.6238 30.5539C15.8623 30.2696 15.1372 29.9231 14.4397 29.5295C14.3845 29.4978 14.3801 29.4202 14.4309 29.383C14.5776 29.2748 14.7245 29.1621 14.8646 29.0484C14.89 29.0277 14.9253 29.0233 14.9551 29.0364C19.5375 31.095 24.4985 31.095 29.0268 29.0364C29.0566 29.0222 29.0919 29.0266 29.1184 29.0474C29.2586 29.1611 29.4054 29.2748 29.5533 29.383C29.604 29.4202 29.6007 29.4978 29.5455 29.5295C28.848 29.9307 28.1229 30.2696 27.3603 30.5528C27.3106 30.5714 27.2885 30.6282 27.3128 30.6752C27.7333 31.4766 28.2134 32.2396 28.742 32.9634C28.7641 32.994 28.8038 33.0071 28.8403 32.9962C31.1282 32.2998 33.4481 31.2492 35.843 29.5186C35.864 29.5033 35.8772 29.4803 35.8794 29.4552C36.4633 23.5122 34.9016 18.3499 31.7396 13.7736C31.7319 13.7583 31.7186 13.7473 31.7032 13.7408ZM19.6671 23.6667C19.6671 24.9553 18.6224 26 17.3337 26C16.0451 26 15.0004 24.9553 15.0004 23.6667C15.0004 22.378 16.0451 21.3333 17.3337 21.3333C18.6224 21.3333 19.6671 22.378 19.6671 23.6667ZM26.6672 26C27.9559 26 29.0005 24.9553 29.0005 23.6667C29.0005 22.378 27.9559 21.3333 26.6672 21.3333C25.3785 21.3333 24.3339 22.378 24.3339 23.6667C24.3339 24.9553 25.3785 26 26.6672 26Z" fill="#18191B"/>
</svg>
