<svg width="44" height="44" viewBox="0 0 44 44" fill="none" xmlns="http://www.w3.org/2000/svg">
<rect width="44" height="44" rx="6.75" fill="#FBD0D7"/>
<path d="M26.875 9.8125V15.5H32.5625L26.875 9.8125Z" fill="#212121"/>
<path d="M25.25 9H11.4375C10.989 9 10.625 9.364 10.625 9.8125V34.1875C10.625 34.636 10.989 35 11.4375 35H32.5625C33.011 35 33.375 34.636 33.375 34.1875V17.125H25.25V9ZM16.3125 15.5H21.1875C21.636 15.5 22 15.8632 22 16.3125C22 16.7618 21.636 17.125 21.1875 17.125H16.3125C15.864 17.125 15.5 16.7618 15.5 16.3125C15.5 15.8632 15.864 15.5 16.3125 15.5ZM27.6875 28.5H16.3125C15.864 28.5 15.5 28.1368 15.5 27.6875C15.5 27.2382 15.864 26.875 16.3125 26.875H27.6875C28.136 26.875 28.5 27.2382 28.5 27.6875C28.5 28.1368 28.136 28.5 27.6875 28.5ZM27.6875 21.1875C28.136 21.1875 28.5 21.5507 28.5 22C28.5 22.4493 28.136 22.8125 27.6875 22.8125H16.3125C15.864 22.8125 15.5 22.4493 15.5 22C15.5 21.5507 15.864 21.1875 16.3125 21.1875H27.6875Z" fill="#212121"/>
</svg>
