<svg width="20" height="20" viewBox="0 0 20 20" fill="none" xmlns="http://www.w3.org/2000/svg">
<g clip-path="url(#clip0_4436_20788)">
<path fill-rule="evenodd" clip-rule="evenodd" d="M3.82422 0.520454C3.82422 0.244312 4.04808 0.0204544 4.32422 0.0204544H19.0704C19.3466 0.0204544 19.5704 0.244312 19.5704 0.520454V17.8689C19.5704 18.1451 19.3466 18.3689 19.0704 18.3689C18.7943 18.3689 18.5704 18.1451 18.5704 17.8689V1.02045H4.32422C4.04808 1.02045 3.82422 0.796597 3.82422 0.520454ZM1.2627 3.94928C1.2627 3.67314 1.48655 3.44928 1.7627 3.44928H15.6415C15.9176 3.44928 16.1415 3.67314 16.1415 3.94928V19.5629C16.1415 19.8391 15.9176 20.0629 15.6415 20.0629H1.7627C1.48655 20.0629 1.2627 19.8391 1.2627 19.5629V3.94928ZM2.2627 4.44928V19.0629H15.1415V4.44928H2.2627ZM5.23256 7.78636C4.95642 7.78636 4.73256 8.01022 4.73256 8.28636C4.73256 8.56251 4.95642 8.78636 5.23256 8.78636H12.172C12.4481 8.78636 12.672 8.56251 12.672 8.28636C12.672 8.01022 12.4481 7.78636 12.172 7.78636H5.23256ZM4.73256 11.7561C4.73256 11.48 4.95642 11.2561 5.23256 11.2561H12.172C12.4481 11.2561 12.672 11.48 12.672 11.7561C12.672 12.0322 12.4481 12.2561 12.172 12.2561H5.23256C4.95642 12.2561 4.73256 12.0322 4.73256 11.7561ZM5.23256 14.7257C4.95642 14.7257 4.73256 14.9496 4.73256 15.2257C4.73256 15.5019 4.95642 15.7257 5.23256 15.7257H8.70226C8.9784 15.7257 9.20226 15.5019 9.20226 15.2257C9.20226 14.9496 8.9784 14.7257 8.70226 14.7257H5.23256Z" fill="url(#paint0_linear_4436_20788)"/>
</g>
<defs>
<linearGradient id="paint0_linear_4436_20788" x1="10.4358" y1="-0.0182232" x2="10.4358" y2="20.0629" gradientUnits="userSpaceOnUse">
<stop stop-color="#E5E5E5"/>
<stop offset="1" stop-color="#E5E5E5" stop-opacity="0.4"/>
</linearGradient>
<clipPath id="clip0_4436_20788">
<rect width="20" height="20" fill="white"/>
</clipPath>
</defs>
</svg>
