<svg xmlns="http://www.w3.org/2000/svg" width="44" height="44" fill="none" viewBox="0 0 44 44"><rect width="44" height="44" fill="#F0F075" rx="6.75"/><path fill="#212121" d="M24.167 17.666h-9.75a.541.541 0 0 0-.542.542v15.167a.542.542 0 0 0 .542.541h9.75a.542.542 0 0 0 .541-.541V18.208a.541.541 0 0 0-.541-.541Zm-2.709 11.917h-4.333a.542.542 0 0 1 0-1.083h4.333a.541.541 0 1 1 0 1.083Zm0-3.25h-4.333a.542.542 0 0 1 0-1.083h4.333a.541.541 0 1 1 0 1.083Zm0-3.25h-4.333a.542.542 0 0 1 0-1.083h4.333a.541.541 0 1 1 0 1.083Z"/><path fill="#212121" d="m34.059 13.353-11.917-3.25a.542.542 0 0 0-.684.522v5.959h2.709a1.625 1.625 0 0 1 1.625 1.625v15.708h8.125a.542.542 0 0 0 .541-.542v-19.5a.542.542 0 0 0-.399-.522Zm-5.017 15.689a.542.542 0 0 1-1.084 0V17.125a.541.541 0 1 1 1.084 0v11.917Zm3.25 0a.542.542 0 0 1-1.084 0V18.209a.541.541 0 1 1 1.084 0v10.833ZM10.083 22a.542.542 0 0 0-.541.542v10.833a.542.542 0 0 0 .541.542h2.709V22h-2.709Z"/></svg>