<svg width="20" height="20" viewBox="0 0 20 20" fill="none" xmlns="http://www.w3.org/2000/svg">
<g clip-path="url(#clip0_7391_4372)">
<path fill-rule="evenodd" clip-rule="evenodd" d="M10.9522 1.68211C11.079 1.58776 11.2429 1.55893 11.3943 1.60434L19.7277 4.10434C19.9391 4.16779 20.084 4.36245 20.084 4.58326V19.5833C20.084 19.8594 19.8601 20.0833 19.584 20.0833H12.9173H4.59237L4.58333 20.0833H1.25C0.973858 20.0833 0.75 19.8595 0.75 19.5833V11.25C0.75 10.9739 0.973858 10.75 1.25 10.75H4.08398V7.91659C4.08398 7.64045 4.30784 7.41659 4.58398 7.41659H12.9173C13.1935 7.41659 13.4173 7.64045 13.4173 7.91659V19.0833H19.084V4.95527L11.7507 2.75527V5.41659C11.7507 5.69273 11.5268 5.91659 11.2507 5.91659C10.9745 5.91659 10.7507 5.69273 10.7507 5.41659V2.08326C10.7507 1.9252 10.8254 1.77646 10.9522 1.68211ZM4.08398 11.75V19.0833H1.75V11.75H4.08398ZM12.4173 19.0833V8.41659H5.08398V19.0833H12.4173ZM7.91602 13.25C7.63987 13.25 7.41602 13.4739 7.41602 13.75C7.41602 14.0261 7.63987 14.25 7.91602 14.25H9.58268C9.85882 14.25 10.0827 14.0261 10.0827 13.75C10.0827 13.4739 9.85882 13.25 9.58268 13.25H7.91602ZM7.41602 16.25C7.41602 15.9739 7.63987 15.75 7.91602 15.75H9.58268C9.85882 15.75 10.0827 15.9739 10.0827 16.25C10.0827 16.5261 9.85882 16.75 9.58268 16.75H7.91602C7.63987 16.75 7.41602 16.5261 7.41602 16.25ZM7.91602 10.75C7.63987 10.75 7.41602 10.9739 7.41602 11.25C7.41602 11.5261 7.63987 11.75 7.91602 11.75H9.58268C9.85882 11.75 10.0827 11.5261 10.0827 11.25C10.0827 10.9739 9.85882 10.75 9.58268 10.75H7.91602ZM16.75 7.91675C16.75 7.64061 16.5261 7.41675 16.25 7.41675C15.9739 7.41675 15.75 7.64061 15.75 7.91675V16.2501C15.75 16.5262 15.9739 16.7501 16.25 16.7501C16.5261 16.7501 16.75 16.5262 16.75 16.2501V7.91675Z" fill="url(#paint0_linear_7391_4372)"/>
</g>
<defs>
<linearGradient id="paint0_linear_7391_4372" x1="10.4568" y1="-0.940808" x2="10.4568" y2="23.8536" gradientUnits="userSpaceOnUse">
<stop stop-color="#303236" stop-opacity="0.6"/>
<stop offset="0.608327" stop-color="#303236"/>
</linearGradient>
<clipPath id="clip0_7391_4372">
<rect width="20" height="20" fill="white"/>
</clipPath>
</defs>
</svg>
