<svg width="16" height="16" viewBox="0 0 16 16" fill="none" xmlns="http://www.w3.org/2000/svg">
<path fill-rule="evenodd" clip-rule="evenodd" d="M12.1546 5.24743C12.1546 5.92244 11.6073 6.46965 10.9323 6.46965C10.2573 6.46965 9.71011 5.92244 9.71011 5.24743C9.71011 4.57242 10.2573 4.02521 10.9323 4.02521C11.6073 4.02521 12.1546 4.57242 12.1546 5.24743ZM13.1546 5.24743C13.1546 6.47473 12.1596 7.46965 10.9323 7.46965C9.87697 7.46965 8.99344 6.73397 8.76659 5.74747H6.68103C6.15044 5.74747 5.64157 5.95825 5.26639 6.33344C4.8912 6.70863 4.68042 7.21749 4.68042 7.74808V10.749H11.2681C11.495 9.76249 12.3785 9.02677 13.4339 9.02677C14.6612 9.02677 15.6561 10.0217 15.6561 11.249C15.6561 12.4763 14.6612 13.4712 13.4339 13.4712C12.3785 13.4712 11.495 12.7355 11.2682 11.749H0.68042H0.18042V10.749H0.68042H3.68042V7.74808C3.68042 6.95227 3.99655 6.18906 4.55928 5.62633C5.122 5.06361 5.88522 4.74747 6.68103 4.74747H8.76657C8.99339 3.76093 9.87694 3.02521 10.9323 3.02521C12.1596 3.02521 13.1546 4.02013 13.1546 5.24743ZM13.4339 12.4712C14.1089 12.4712 14.6561 11.924 14.6561 11.249C14.6561 10.574 14.1089 10.0268 13.4339 10.0268C12.7589 10.0268 12.2117 10.574 12.2117 11.249C12.2117 11.924 12.7589 12.4712 13.4339 12.4712Z" fill="currentColor"/>
</svg>
