<svg width="16" height="16" viewBox="0 0 16 16" fill="none" xmlns="http://www.w3.org/2000/svg">
<path d="M7.48732 4C7.36354 3.99993 7.24223 3.96541 7.13697 3.9003C7.0317 3.83519 6.94664 3.74205 6.89132 3.63133L6.25932 2.36867C6.20399 2.25795 6.11893 2.16481 6.01367 2.0997C5.9084 2.03459 5.78709 2.00007 5.66332 2H1.32998C1.15317 2 0.983601 2.07024 0.858577 2.19526C0.733553 2.32029 0.663315 2.48986 0.663315 2.66667V13.3333C0.663315 13.5101 0.733553 13.6797 0.858577 13.8047C0.983601 13.9298 1.15317 14 1.32998 14H14.6633C14.8401 14 15.0097 13.9298 15.1347 13.8047C15.2597 13.6797 15.33 13.5101 15.33 13.3333V4.66667C15.33 4.48986 15.2597 4.32029 15.1347 4.19526C15.0097 4.07024 14.8401 4 14.6633 4H7.48732Z" stroke="url(#paint0_linear_1282_7204)" stroke-linecap="round" stroke-linejoin="round"/>
<defs>
<linearGradient id="paint0_linear_1282_7204" x1="8.02687" y1="0.36278" x2="8.02687" y2="16.4455" gradientUnits="userSpaceOnUse">
<stop stop-color="currentColor" stop-opacity="0.6"/>
<stop offset="0.608327" stop-color="currentColor"/>
</linearGradient>
</defs>
</svg>
