<svg width="16" height="16" viewBox="0 0 16 16" fill="none" xmlns="http://www.w3.org/2000/svg">
<path d="M7.99805 0C8.39198 2.82109e-05 8.7723 0.145142 9.06641 0.407227C9.35927 0.668286 9.54658 1.02749 9.59277 1.41699L9.69824 2.2666C10.0974 2.38491 10.4829 2.5452 10.8486 2.74414L11.5264 2.21777C11.8352 1.97711 12.2215 1.8578 12.6123 1.88184C13.0033 1.90594 13.3724 2.07257 13.6494 2.34961C13.9261 2.62653 14.092 2.99501 14.1162 3.38574C14.1403 3.77673 14.0211 4.16375 13.7803 4.47266L13.7793 4.47168L13.2529 5.14941C13.4519 5.51517 13.6121 5.90059 13.7305 6.2998L14.373 6.37988L14.5791 6.40332C14.9702 6.44867 15.3308 6.63676 15.5928 6.93066C15.8548 7.22479 16 7.60513 16 7.99902C16 8.39296 15.8548 8.77324 15.5928 9.06738C15.3308 9.36135 14.9702 9.54938 14.5791 9.59473L14.5781 9.59375L13.7324 9.69922C13.614 10.0988 13.4541 10.4845 13.2549 10.8506L13.7812 11.5273H13.7822C14.0231 11.8363 14.1422 12.2232 14.1182 12.6143C14.094 13.0052 13.9283 13.3744 13.6514 13.6514C13.3744 13.9283 13.0052 14.0941 12.6143 14.1182C12.2233 14.1422 11.8372 14.0221 11.5283 13.7812V13.7822L10.8506 13.2549C10.4848 13.4539 10.0995 13.6141 9.7002 13.7324L9.59473 14.5771L9.5957 14.5781C9.55043 14.9694 9.36238 15.3307 9.06836 15.5928C8.77425 15.8549 8.39393 16 8 16C7.60612 16 7.22573 15.8548 6.93164 15.5928C6.63856 15.3315 6.45124 14.9719 6.40527 14.582V14.583L6.29883 13.7324C5.89965 13.614 5.51416 13.4539 5.14844 13.2549L4.47168 13.7822L4.4707 13.7812C4.16192 14.0219 3.77647 14.1422 3.38574 14.1182C2.99478 14.0941 2.62563 13.9283 2.34863 13.6514C2.07169 13.3744 1.90599 13.0052 1.88184 12.6143C1.85776 12.2232 1.97685 11.8363 2.21777 11.5273L2.74316 10.8516C2.54437 10.4859 2.38484 10.1002 2.2666 9.70117L1.42188 9.5957V9.59668C1.03058 9.55142 0.669287 9.36342 0.407227 9.06934C0.145182 8.7752 2.82187e-05 8.39491 0 8.00098C3.46022e-05 7.60705 0.145192 7.22675 0.407227 6.93262C0.636523 6.67532 0.941567 6.49992 1.27637 6.42969L1.42188 6.40527L2.2666 6.2998C2.38495 5.90062 2.54518 5.51516 2.74414 5.14941L2.21777 4.47168V4.47266C1.97694 4.16376 1.85779 3.77669 1.88184 3.38574C1.906 2.995 2.0719 2.62653 2.34863 2.34961C2.62565 2.07255 2.99469 1.90593 3.38574 1.88184C3.77669 1.85779 4.16281 1.97788 4.47168 2.21875L5.14648 2.74512C5.51231 2.54602 5.89758 2.38502 6.29688 2.2666L6.40332 1.41699C6.44951 1.02746 6.63679 0.668293 6.92969 0.407227C7.22381 0.145134 7.6041 1.54039e-05 7.99805 0ZM7.99805 0.941406C7.83503 0.941422 7.6774 1.00091 7.55566 1.10938C7.43403 1.21777 7.35672 1.36743 7.33789 1.5293L7.33691 1.53418L7.19238 2.69727L7.15137 3.02148L6.83301 3.09668C6.31066 3.22046 5.81198 3.42848 5.35547 3.71094L5.07617 3.88281L4.81836 3.68164L3.89355 2.96094C3.76571 2.86121 3.60517 2.81135 3.44336 2.82129C3.28168 2.83131 3.12924 2.9001 3.01465 3.01465C2.89997 3.12934 2.83126 3.28242 2.82129 3.44434C2.8139 3.56559 2.84006 3.6856 2.89551 3.79199L2.95996 3.89355L2.96094 3.89453L3.68164 4.82129L3.88281 5.0791L3.70996 5.35742C3.42749 5.81405 3.22046 6.31344 3.09668 6.83594L3.02148 7.1543L2.69727 7.19434L1.53418 7.33984L1.5293 7.34082C1.36746 7.35963 1.21778 7.43691 1.10938 7.55859C1.00096 7.68032 0.941441 7.83794 0.941406 8.00098C0.941434 8.16396 1.00104 8.32164 1.10938 8.44336C1.19076 8.53467 1.29567 8.6013 1.41113 8.63672L1.5293 8.66113L1.53418 8.66211L2.69727 8.80762L3.02148 8.84766L3.09668 9.16602C3.22044 9.68851 3.4275 10.1879 3.70996 10.6445L3.88281 10.9229L3.68164 11.1816L2.96094 12.1064H2.95996C2.86034 12.2343 2.81133 12.3948 2.82129 12.5566C2.83138 12.7183 2.90011 12.8708 3.01465 12.9854C3.12924 13.0999 3.28168 13.1687 3.44336 13.1787C3.60515 13.1886 3.76572 13.1397 3.89355 13.04V13.0391L4.82031 12.3184L5.0791 12.1172L5.35742 12.29C5.75681 12.5371 6.18903 12.7262 6.64062 12.8525L6.83594 12.9033L7.15332 12.9785L7.19434 13.3027L7.33887 14.4658L7.33984 14.4707L7.36426 14.5889C7.39967 14.7044 7.46629 14.8092 7.55762 14.8906C7.67932 14.999 7.83705 15.0586 8 15.0586C8.163 15.0586 8.32066 14.9991 8.44238 14.8906C8.56404 14.7822 8.64135 14.6326 8.66016 14.4707L8.66113 14.4658L8.80664 13.3027L8.84668 12.9785L9.16504 12.9033C9.68745 12.7795 10.187 12.5726 10.6436 12.29L10.9209 12.1172L11.1797 12.3184L12.1064 13.0391L12.1074 13.04L12.208 13.1045C12.3146 13.1602 12.4351 13.1862 12.5566 13.1787C12.7184 13.1687 12.8707 13.0999 12.9854 12.9854C13.0999 12.8708 13.1686 12.7183 13.1787 12.5566C13.1887 12.3948 13.1397 12.2343 13.04 12.1064L13.0391 12.1055L12.3184 11.1787L12.1182 10.9209L12.29 10.6426C12.5725 10.1859 12.7795 9.68659 12.9033 9.16406L12.9785 8.8457L13.3027 8.80566L14.4668 8.66016L14.4707 8.65918L14.5889 8.63477C14.7044 8.59935 14.8092 8.53282 14.8906 8.44141C14.999 8.31967 15.0586 8.16207 15.0586 7.99902C15.0586 7.83599 14.999 7.67838 14.8906 7.55664C14.7875 7.44091 14.6468 7.36706 14.4941 7.34375L14.4639 7.33984L13.3008 7.19434L12.9766 7.1543L12.9014 6.83594C12.7776 6.3135 12.5705 5.81401 12.2881 5.35742L12.1162 5.0791L12.3164 4.82129L13.0371 3.89453L13.0381 3.89355L13.1035 3.79199C13.1588 3.68568 13.1841 3.56547 13.1768 3.44434C13.1668 3.28247 13.098 3.12933 12.9834 3.01465C12.8688 2.90014 12.7163 2.8313 12.5547 2.82129C12.4332 2.81381 12.3126 2.83986 12.2061 2.89551L12.1045 2.96094L11.1777 3.68164L10.9189 3.88281L10.6406 3.71094C10.1841 3.4285 9.6854 3.22045 9.16309 3.09668L8.84473 3.02148L8.80469 2.69727L8.65918 1.53418L8.6582 1.5293C8.63937 1.36749 8.56199 1.21776 8.44043 1.10938C8.31872 1.00096 8.16101 0.941434 7.99805 0.941406ZM8 5.52539C9.36711 5.52539 10.4754 6.63389 10.4756 8.00098C10.4756 9.36826 9.36725 10.4775 8 10.4775C6.6328 10.4775 5.52441 9.36822 5.52441 8.00098C5.52465 6.63393 6.63294 5.52545 8 5.52539ZM8 6.4668C7.15286 6.46686 6.46605 7.15361 6.46582 8.00098C6.46582 8.84854 7.15271 9.53607 8 9.53613C8.84734 9.53613 9.53418 8.84858 9.53418 8.00098C9.53395 7.15357 8.84719 6.4668 8 6.4668Z" fill="url(#paint0_linear_2202_9593)"/>
<defs>
<linearGradient id="paint0_linear_2202_9593" x1="8" y1="0" x2="8" y2="16" gradientUnits="userSpaceOnUse">
<stop stop-color="currentColor" stop-opacity="0.6"/>
<stop offset="0.608327" stop-color="currentColor"/>
</linearGradient>
</defs>
</svg>
