<svg width="18" height="18" viewBox="0 0 18 18" fill="none" xmlns="http://www.w3.org/2000/svg">
<path d="M9.00015 11.1319C10.1766 11.1319 11.1304 10.178 11.1304 9.00138C11.1304 7.82472 10.1766 6.87085 9.00015 6.87085C7.82365 6.87085 6.8699 7.82472 6.8699 9.00138C6.8699 10.178 7.82365 11.1319 9.00015 11.1319Z" stroke="currentColor" stroke-miterlimit="10" stroke-linecap="square"/>
<path d="M15.9302 7.80264L14.6941 7.64818C14.5503 7.04067 14.3095 6.4603 13.981 5.92938L14.7469 4.94454C14.9279 4.71246 15.0178 4.42221 14.9997 4.12844C14.9816 3.83466 14.8568 3.55763 14.6487 3.34951C14.4406 3.14139 14.1636 3.01653 13.8699 2.99844C13.5761 2.98035 13.2859 3.07029 13.0539 3.25131L12.0691 4.01723C11.5383 3.68875 10.958 3.44794 10.3506 3.30404L10.1961 2.0678C10.1621 1.7738 10.0213 1.50256 9.80032 1.30567C9.57938 1.10879 9.29379 1 8.99787 1C8.70195 1 8.41636 1.10879 8.19542 1.30567C7.97448 1.50256 7.83361 1.7738 7.79961 2.0678L7.64517 3.30404C7.03773 3.44794 6.45744 3.68875 5.92659 4.01723L4.94402 3.25131C4.71197 3.07029 4.42175 2.98035 4.12802 2.99844C3.83428 3.01653 3.55729 3.14139 3.3492 3.34951C3.1411 3.55763 3.01626 3.83466 2.99818 4.12844C2.98009 4.42221 3.07001 4.71246 3.25101 4.94454L4.01683 5.92938C3.68839 6.4603 3.44761 7.04067 3.30373 7.64818L2.06766 7.80264C1.7737 7.83665 1.50249 7.97754 1.30563 8.19851C1.10878 8.41948 1 8.70511 1 9.00107C1 9.29702 1.10878 9.58266 1.30563 9.80363C1.50249 10.0246 1.7737 10.1655 2.06766 10.1995L3.30373 10.3539C3.44761 10.9615 3.68839 11.5418 4.01683 12.0728L3.25101 13.0555C3.07001 13.2875 2.98009 13.5778 2.99818 13.8716C3.01626 14.1653 3.1411 14.4424 3.3492 14.6505C3.55729 14.8586 3.83428 14.9835 4.12802 15.0016C4.42175 15.0196 4.71197 14.9297 4.94402 14.7487L5.92872 13.9828C6.45957 14.3112 7.03986 14.5521 7.6473 14.696L7.80174 15.9322C7.83574 16.2262 7.97661 16.4974 8.19755 16.6943C8.41849 16.8912 8.70408 17 9 17C9.29592 17 9.58151 16.8912 9.80245 16.6943C10.0234 16.4974 10.1643 16.2262 10.1983 15.9322L10.3527 14.696C10.9601 14.5521 11.5404 14.3112 12.0713 13.9828L13.056 14.7487C13.288 14.9297 13.5782 15.0196 13.872 15.0016C14.1657 14.9835 14.4427 14.8586 14.6508 14.6505C14.8589 14.4424 14.9837 14.1653 15.0018 13.8716C15.0199 13.5778 14.93 13.2875 14.749 13.0555L13.9832 12.0706C14.3116 11.5397 14.5524 10.9593 14.6963 10.3518L15.9323 10.1974C16.2263 10.1634 16.4975 10.0225 16.6944 9.80149C16.8912 9.58053 17 9.29489 17 8.99894C17 8.70298 16.8912 8.41734 16.6944 8.19638C16.4975 7.97541 16.2263 7.83452 15.9323 7.80051L15.9302 7.80264Z" stroke="currentColor" stroke-miterlimit="10" stroke-linecap="square"/>
</svg>
