<svg width="16" height="16" viewBox="0 0 16 16" fill="none" xmlns="http://www.w3.org/2000/svg">
<path fill-rule="evenodd" clip-rule="evenodd" d="M8.00022 7.50002H7.99955H3.52022C3.24407 7.50002 3.02022 7.72388 3.02022 8.00002C3.02022 8.27617 3.24407 8.50002 3.52022 8.50002H6.79279L1.24635 14.0465C1.05108 14.2417 1.05108 14.5583 1.24635 14.7536C1.44161 14.9488 1.75819 14.9488 1.95345 14.7536L7.50022 9.20681V12.48C7.50022 12.7562 7.72407 12.98 8.00022 12.98C8.27636 12.98 8.50022 12.7562 8.50022 12.48V8.00002C8.50022 7.72388 8.27636 7.50002 8.00022 7.50002ZM13.1199 14.9C13.592 14.9 14.0447 14.7125 14.3786 14.3787C14.7124 14.0449 14.8999 13.5921 14.8999 13.12V2.88002C14.8999 2.40794 14.7124 1.95519 14.3786 1.62138C14.0447 1.28756 13.592 1.10003 13.1199 1.10003H2.8799C2.40782 1.10003 1.95507 1.28756 1.62125 1.62138C1.28744 1.95519 1.0999 2.40794 1.0999 2.88002V5.10361C1.0999 5.37975 1.32376 5.60361 1.5999 5.60361C1.87605 5.60361 2.0999 5.37975 2.0999 5.10361V2.88002C2.0999 2.67316 2.18208 2.47476 2.32836 2.32848C2.47464 2.1822 2.67303 2.10003 2.8799 2.10003H13.1199C13.3268 2.10003 13.5252 2.1822 13.6714 2.32848C13.8177 2.47476 13.8999 2.67316 13.8999 2.88002V13.12C13.8999 13.3269 13.8177 13.5253 13.6714 13.6716C13.5252 13.8178 13.3268 13.9 13.1199 13.9H10.909C10.6329 13.9 10.409 14.1239 10.409 14.4C10.409 14.6762 10.6329 14.9 10.909 14.9H13.1199Z" fill="currentColor"/>
</svg>
