<svg width="16" height="16" viewBox="0 0 16 16" fill="none" xmlns="http://www.w3.org/2000/svg">
<g clip-path="url(#clip0_122_1069)">
<path d="M8.00098 0.498047C12.143 0.498113 15.5009 3.856 15.501 7.99805C15.501 12.1401 12.1431 15.498 8.00098 15.498C3.85884 15.498 0.500977 12.1402 0.500977 7.99805C0.501034 7.72195 0.72487 7.49805 1.00098 7.49805C1.27703 7.49811 1.50092 7.72199 1.50098 7.99805C1.50098 11.5879 4.41112 14.498 8.00098 14.498C11.5908 14.498 14.501 11.5879 14.501 7.99805C14.5009 4.40828 11.5907 1.49811 8.00098 1.49805C5.83805 1.49805 3.92216 2.55513 2.74023 4.18164H4.68555C4.96162 4.18164 5.18544 4.40559 5.18555 4.68164C5.18555 4.95778 4.96169 5.18164 4.68555 5.18164H1.73828C1.46215 5.18162 1.23828 4.95777 1.23828 4.68164V1.73438C1.23833 1.45828 1.46218 1.23439 1.73828 1.23438C2.01439 1.23438 2.23823 1.45827 2.23828 1.73438V3.19824C3.61365 1.5489 5.6843 0.498047 8.00098 0.498047ZM8 3.81445C8.27614 3.81445 8.5 4.03831 8.5 4.31445V7.79199L11.3008 10.5928L11.3652 10.6709C11.4933 10.865 11.4716 11.129 11.3008 11.2998C11.1298 11.4706 10.8659 11.4917 10.6719 11.3633L10.5938 11.2998L7.64648 8.35254C7.55282 8.25886 7.5001 8.13148 7.5 7.99902V4.31445C7.5 4.03833 7.72389 3.81449 8 3.81445Z" fill="url(#paint0_linear_122_1069)"/>
</g>
<defs>
<linearGradient id="paint0_linear_122_1069" x1="8.00098" y1="0.498047" x2="8.00098" y2="15.498" gradientUnits="userSpaceOnUse">
<stop stop-color="currentColor" stop-opacity="0.6"/>
<stop offset="0.608327" stop-color="currentColor"/>
</linearGradient>
<clipPath id="clip0_122_1069">
<rect width="16" height="16" fill="white"/>
</clipPath>
</defs>
</svg>
