<svg width="16" height="16" viewBox="0 0 16 16" fill="none" xmlns="http://www.w3.org/2000/svg">
    <g clip-path="url(#clip0_17837_35131)">
        <path d="M6.48535 9.125C6.71317 9.17157 6.88465 9.37368 6.88477 9.61523V15C6.88468 15.276 6.66079 15.4999 6.38477 15.5H1C0.723908 15.5 0.500081 15.2761 0.5 15V9.61523L0.509766 9.51465C0.556383 9.2868 0.758369 9.11523 1 9.11523H6.38477L6.48535 9.125ZM12.3076 9.11523C14.0706 9.11527 15.4999 10.5447 15.5 12.3076C15.5 14.0706 14.0706 15.5 12.3076 15.5C10.5447 15.4999 9.11527 14.0706 9.11523 12.3076C9.11537 10.5447 10.5447 9.11537 12.3076 9.11523ZM1.5 14.5H5.88477V10.1152H1.5V14.5ZM12.3076 10.1152C11.097 10.1154 10.1154 11.097 10.1152 12.3076C10.1153 13.5183 11.097 14.4999 12.3076 14.5C13.5183 14.5 14.5 13.5183 14.5 12.3076C14.4999 11.097 13.5183 10.1153 12.3076 10.1152ZM3.69238 0.5C5.45541 0.500041 6.88477 1.92934 6.88477 3.69238C6.88473 5.45539 5.45539 6.88473 3.69238 6.88477C1.92934 6.88477 0.500041 5.45541 0.5 3.69238C0.5 1.92932 1.92932 0.5 3.69238 0.5ZM15.1006 0.509766C15.3285 0.556347 15.5 0.758337 15.5 1V6.38477C15.4999 6.66079 15.276 6.88468 15 6.88477H9.61523C9.33925 6.88463 9.11532 6.66076 9.11523 6.38477V1L9.125 0.899414C9.17151 0.671524 9.37363 0.500115 9.61523 0.5H15L15.1006 0.509766ZM3.69238 1.5C2.4816 1.5 1.5 2.4816 1.5 3.69238C1.50004 4.90313 2.48163 5.88477 3.69238 5.88477C4.9031 5.88473 5.88473 4.9031 5.88477 3.69238C5.88477 2.48163 4.90313 1.50004 3.69238 1.5ZM10.1152 5.88477H14.5V1.5H10.1152V5.88477Z" fill="url(#paint0_linear_17837_35131)"/>
    </g>
<defs>
    <linearGradient id="paint0_linear_17837_35131" x1="8" y1="0.5" x2="8" y2="15.5" gradientUnits="userSpaceOnUse">
        <stop stop-color="currentColor" stop-opacity="0.6"/>
        <stop offset="0.608327" stop-color="currentColor"/>
    </linearGradient>
    <clipPath id="clip0_17837_35131">
        <rect width="16" height="16" fill="white"/>
    </clipPath>
</defs>
</svg>
