<svg width="16" height="16" viewBox="0 0 16 16" fill="none" xmlns="http://www.w3.org/2000/svg">
<path fill-rule="evenodd" clip-rule="evenodd" d="M10.3273 2.10229C9.63962 2.10229 9.08212 2.65979 9.08212 3.34749C9.08212 4.0352 9.63962 4.59269 10.3273 4.59269C11.015 4.59269 11.5725 4.0352 11.5725 3.34749C11.5725 2.65979 11.015 2.10229 10.3273 2.10229ZM8.08212 3.34749C8.08212 2.1075 9.08733 1.10229 10.3273 1.10229C11.5673 1.10229 12.5725 2.1075 12.5725 3.34749C12.5725 4.58748 11.5673 5.59269 10.3273 5.59269C9.08733 5.59269 8.08212 4.58748 8.08212 3.34749ZM4.42817 6.83841C4.42817 6.15071 4.98567 5.59321 5.67337 5.59321C6.36107 5.59321 6.91857 6.15071 6.91857 6.83841C6.91857 7.52611 6.36107 8.08361 5.67337 8.08361C4.98567 8.08361 4.42817 7.52611 4.42817 6.83841ZM5.67337 4.59321C4.43338 4.59321 3.42817 5.59842 3.42817 6.83841C3.42817 8.0784 4.43338 9.08361 5.67337 9.08361C6.91336 9.08361 7.91857 8.0784 7.91857 6.83841C7.91857 5.59842 6.91336 4.59321 5.67337 4.59321ZM5.67332 9.82777C3.1482 9.82777 1.1012 11.8748 1.1012 14.3999C1.1012 14.676 1.32505 14.8999 1.6012 14.8999H9.74545C10.0216 14.8999 10.2455 14.676 10.2455 14.3999C10.2455 11.8748 8.19845 9.82777 5.67332 9.82777ZM5.67332 10.8278C7.47647 10.8278 8.96757 12.1638 9.21074 13.8999H2.13591C2.37908 12.1638 3.87018 10.8278 5.67332 10.8278ZM10.3269 6.33685C10.1055 6.33685 9.88796 6.35249 9.67402 6.38324C9.40069 6.42253 9.21096 6.67596 9.25024 6.94929C9.28953 7.22262 9.54296 7.41236 9.81629 7.37307C9.98281 7.34914 10.1528 7.33685 10.3269 7.33685C12.13 7.33685 13.6211 8.67286 13.8643 10.409H10.9086C10.6325 10.409 10.4086 10.6328 10.4086 10.909C10.4086 11.1851 10.6325 11.409 10.9086 11.409H14.399C14.6752 11.409 14.899 11.1851 14.899 10.909C14.899 8.38386 12.852 6.33685 10.3269 6.33685Z" fill="currentColor"/>
</svg>
