<svg width="16" height="16" viewBox="0 0 16 16" fill="none" xmlns="http://www.w3.org/2000/svg">
<g clip-path="url(#clip0_1282_6290)">
<path fill-rule="evenodd" clip-rule="evenodd" d="M8.13756 -0.124446C8.06612 -0.140321 7.99207 -0.140321 7.92063 -0.124446L1.37518 1.3301C1.14641 1.38094 0.983643 1.58384 0.983643 1.81819V9.09092C0.983643 10.9595 1.72593 12.7515 3.04721 14.0728C4.36849 15.3941 6.16053 16.1364 8.0291 16.1364C9.89767 16.1364 11.6897 15.3941 13.011 14.0728C14.3323 12.7515 15.0746 10.9595 15.0746 9.09092V1.81819C15.0746 1.58384 14.9118 1.38094 14.683 1.3301L8.13756 -0.124446ZM1.98364 9.09092V2.21928L8.0291 0.875844L14.0746 2.21928V9.09092C14.0746 10.6943 13.4376 12.232 12.3039 13.3657C11.1701 14.4994 9.63245 15.1364 8.0291 15.1364C6.42574 15.1364 4.88806 14.4994 3.75432 13.3657C2.62057 12.232 1.98364 10.6943 1.98364 9.09092ZM8.0276 3.50003L8.03059 3.50002C8.54809 3.50158 9.04396 3.70784 9.40989 4.07377C9.77583 4.43971 9.98209 4.93558 9.98364 5.45308L9.98364 5.45458L9.98364 7.13641H10.9382C11.2143 7.13641 11.4382 7.36027 11.4382 7.63641V11.2728C11.4382 11.5489 11.2143 11.7728 10.9382 11.7728H5.12C4.84386 11.7728 4.62 11.5489 4.62 11.2728V7.63641C4.62 7.36027 4.84386 7.13641 5.12 7.13641H6.07455V5.45458V5.45308C6.0761 4.93558 6.28236 4.43971 6.64829 4.07377C7.01423 3.70784 7.51009 3.50158 8.0276 3.50003ZM8.98364 5.45542V7.13641H7.07455V5.4554C7.07548 5.20232 7.17643 4.95985 7.3554 4.78088C7.53418 4.6021 7.77631 4.50118 8.02909 4.50003C8.28188 4.50118 8.52401 4.6021 8.70279 4.78088C8.88176 4.95986 8.98271 5.20233 8.98364 5.45542ZM5.62 8.13641V10.7728H10.4382V8.13641H5.62Z" fill="url(#paint0_linear_1282_6290)"/>
</g>
<defs>
<linearGradient id="paint0_linear_1282_6290" x1="8.05813" y1="-2.35652" x2="8.05813" y2="19.4527" gradientUnits="userSpaceOnUse">
<stop stop-color="currentColor" stop-opacity="0.6"/>
<stop offset="0.608327" stop-color="currentColor"/>
</linearGradient>
<clipPath id="clip0_1282_6290">
<rect width="16" height="16" fill="white"/>
</clipPath>
</defs>
</svg>
