<svg width="16" height="16" viewBox="0 0 16 16" fill="none" xmlns="http://www.w3.org/2000/svg">
<g clip-path="url(#clip0_2498_39562)">
<path d="M8.00098 0.671875C12.0472 0.672135 15.3271 3.95277 15.3271 7.99902C15.3267 12.0449 12.0469 15.3249 8.00098 15.3252C3.95502 15.325 0.674265 12.0449 0.673828 7.99902C0.673828 7.72301 0.897869 7.49924 1.17383 7.49902C1.44997 7.49902 1.67383 7.72288 1.67383 7.99902C1.67427 11.4926 4.5073 14.325 8.00098 14.3252C11.4946 14.3249 14.3267 11.4926 14.3271 7.99902C14.3271 4.50506 11.4949 1.67214 8.00098 1.67188C5.90463 1.672 4.04622 2.69183 2.89453 4.26367H4.76758L4.86914 4.27441C5.0965 4.32129 5.26741 4.52247 5.26758 4.76367C5.26758 5.00505 5.09664 5.20702 4.86914 5.25391L4.76758 5.26367H1.89355C1.61741 5.26367 1.39356 5.03981 1.39355 4.76367V1.88965C1.39355 1.61351 1.61741 1.38965 1.89355 1.38965C2.16957 1.3898 2.39355 1.6136 2.39355 1.88965V3.28418C3.73701 1.6876 5.74993 0.671995 8.00098 0.671875ZM8 3.90625C8.27611 3.90628 8.5 4.13013 8.5 4.40625V7.79199L11.2275 10.5205L11.292 10.5986C11.4198 10.7927 11.3983 11.0568 11.2275 11.2275C11.0568 11.3978 10.7934 11.4187 10.5996 11.291L10.5205 11.2275L7.64648 8.35254C7.55288 8.25888 7.50011 8.13143 7.5 7.99902V4.40625C7.5 4.13011 7.72386 3.90625 8 3.90625Z" fill="url(#paint0_linear_2498_39562)"/>
</g>
<defs>
<linearGradient id="paint0_linear_2498_39562" x1="8.00049" y1="0.671875" x2="8.00049" y2="15.3252"  gradientUnits="userSpaceOnUse">
<stop stop-color="currentColor" stop-opacity="0.6" />
<stop offset="0.608327" stop-color="currentColor" />
</linearGradient>
</defs>
</svg>
