<svg width="16" height="16" viewBox="0 0 16 16" fill="none" xmlns="http://www.w3.org/2000/svg">
<g clip-path="url(#clip0_18981_333933)">
<path d="M6.8433 3.51711C10.501 0.111646 14.7153 0.527743 15.0523 0.567894C15.2512 0.591824 15.4084 0.748823 15.4322 0.947777C15.4728 1.2884 15.8852 5.49999 12.482 9.15578L12.6714 10.2134C12.893 11.453 12.4248 12.7092 11.4624 13.5005L11.2642 13.6519L8.814 15.3882C8.65791 15.4987 8.44756 15.4947 8.29642 15.3775C8.16426 15.2749 8.10452 15.1068 8.13725 14.9468L8.16068 14.8687C8.16391 14.8597 8.16975 14.8453 8.17631 14.8257C8.18979 14.7853 8.20883 14.7224 8.23197 14.6402C8.2784 14.4752 8.33896 14.2302 8.3892 13.9204C8.47043 13.4194 8.52417 12.751 8.45853 11.9761C7.86286 12.2287 7.38409 12.375 7.10111 12.4527C6.95074 12.4939 6.78959 12.4514 6.67924 12.3413L3.65873 9.32082C3.54862 9.21045 3.50616 9.04932 3.5474 8.89895C3.62501 8.61618 3.76955 8.13697 4.02201 7.54153C3.24795 7.4764 2.58017 7.53067 2.07963 7.61184C1.76981 7.66209 1.5248 7.72166 1.3599 7.76809C1.27786 7.79119 1.2157 7.81125 1.17533 7.82473C1.15555 7.83134 1.14037 7.83616 1.13139 7.83938C1.12697 7.84097 1.12319 7.8427 1.12162 7.84328L1.05326 7.86282C0.893461 7.89548 0.726132 7.83556 0.623573 7.70364C0.506336 7.55255 0.501429 7.34216 0.611854 7.18606L2.34525 4.73977L2.4976 4.53957C3.29058 3.57522 4.54821 3.10607 5.78959 3.32864L6.8433 3.51711ZM2.43217 10.8511C2.65081 10.7524 2.90862 10.8493 3.00736 11.0679C3.106 11.2865 3.00819 11.5434 2.78959 11.6421C2.37808 11.8282 2.09346 12.2428 2.0933 12.7222V13.9077H3.27885C3.75794 13.9076 4.17273 13.6217 4.35892 13.2105C4.45774 12.992 4.71462 12.895 4.93314 12.9937C5.15173 13.0925 5.2488 13.3493 5.14994 13.5679C4.8284 14.2787 4.11183 14.7758 3.27885 14.7759H1.65873C1.41896 14.7758 1.22421 14.5811 1.22416 14.3413V12.7222C1.22432 11.8898 1.72028 11.1729 2.43217 10.8511ZM11.731 9.89211C10.8906 10.6472 10.0426 11.1937 9.29154 11.5845L9.30521 11.6851C9.4062 12.6102 9.34618 13.4112 9.25248 14.0113L10.7613 12.9429C11.5817 12.3618 11.9931 11.3577 11.816 10.3667L11.731 9.89211ZM14.5933 1.40578C13.5087 1.36366 10.2231 1.49322 7.34135 4.23977C5.47136 6.02221 4.72728 7.99325 4.4556 8.88821L7.11088 11.5445C8.00549 11.2729 9.97748 10.5294 11.7603 8.65871C14.5071 5.77642 14.6355 2.48954 14.5933 1.40578ZM10.4273 3.95754C11.3192 3.95777 12.0425 4.68078 12.0425 5.57278C12.0424 6.46463 11.3191 7.18778 10.4273 7.18801C9.5353 7.18801 8.81222 6.46478 8.81205 5.57278C8.81205 4.68064 9.5352 3.95754 10.4273 3.95754ZM5.63627 4.1841C4.7057 4.01726 3.76299 4.36899 3.1685 5.09231L3.05424 5.24172L1.98783 6.7466C2.60942 6.64946 3.4468 6.59099 4.41459 6.70754C4.80543 5.95647 5.35201 5.10847 6.10697 4.26809L5.63627 4.1841Z" fill="url(#paint0_linear_18981_333933)"/>
</g>
<defs>
<linearGradient id="paint0_linear_18981_333933" x1="8.0003" y1="0.531494" x2="8.0003" y2="15.4683" gradientUnits="userSpaceOnUse">
<stop stop-color="currentColor" stop-opacity="0.6"/>
<stop offset="0.608327" stop-color="currentColor"/>
</linearGradient>
<clipPath id="clip0_2202_9549">
<rect width="16" height="16" fill="white"/>
</clipPath>
</defs>
</svg>
