<svg width="16" height="16" viewBox="0 0 16 16" fill="none" xmlns="http://www.w3.org/2000/svg">
<g clip-path="url(#clip0_2202_9549)">
<path d="M7.99983 0.369995C8.98977 0.369995 9.95536 0.677731 10.7625 1.25085L10.9471 1.38953C11.0076 1.43702 11.0669 1.4858 11.1248 1.53601L11.3533 1.74695C11.7811 2.1695 12.1243 2.67085 12.367 3.22351C13.2233 3.24644 14.04 3.59572 14.6473 4.203L14.7899 4.35535C14.9273 4.51103 15.0498 4.678 15.1551 4.85437L15.2635 5.05164C15.5014 5.51856 15.6287 6.03927 15.6287 6.57312C15.6287 7.46199 15.2758 8.3147 14.6473 8.94324C14.0245 9.56602 13.1817 9.91731 12.3016 9.92371V11.5956L13.1541 12.4481C13.3891 12.3241 13.6571 12.2538 13.9412 12.2538C14.8732 12.2542 15.6287 13.0102 15.6287 13.9423C15.6284 14.874 14.873 15.6293 13.9412 15.6298C13.0091 15.6298 12.2531 14.8743 12.2528 13.9423C12.2528 13.6581 12.323 13.3902 12.4471 13.1552L11.4481 12.1561C11.3545 12.0625 11.3017 11.935 11.3016 11.8026V9.92468H8.49983V12.328C9.18803 12.5412 9.68733 13.184 9.68733 13.9423C9.68697 14.8742 8.9318 15.6296 7.99983 15.6298C7.06782 15.6296 6.31171 14.8742 6.31135 13.9423C6.31135 13.184 6.81151 12.5412 7.49983 12.328V9.92468H4.69807V11.8026C4.69796 11.9349 4.64503 12.0625 4.55159 12.1561L3.55159 13.1552C3.67567 13.3902 3.7469 13.658 3.7469 13.9423C3.74654 14.8742 2.99137 15.6296 2.0594 15.6298C1.12728 15.6298 0.371283 14.8743 0.370922 13.9423C0.370922 13.0099 1.12705 12.2538 2.0594 12.2538C2.34323 12.2538 2.61083 12.3233 2.84553 12.4471L3.69807 11.5956V9.92371C2.818 9.9173 1.97515 9.56602 1.35237 8.94324C0.763078 8.35391 0.415844 7.56761 0.374828 6.73914L0.370922 6.57312C0.370962 5.68428 0.72386 4.83151 1.35237 4.203C1.959 3.59641 2.7745 3.24718 3.62971 3.22351C3.97588 2.4348 4.5311 1.75223 5.23713 1.25085C6.0443 0.677714 7.00988 0.370004 7.99983 0.369995ZM2.0594 13.2538C1.67934 13.2538 1.37092 13.5622 1.37092 13.9423C1.37128 14.322 1.67956 14.6298 2.0594 14.6298C2.43909 14.6296 2.74654 14.3219 2.7469 13.9423C2.7469 13.5623 2.43931 13.254 2.0594 13.2538ZM7.99983 13.2538C7.61988 13.2539 7.31135 13.5623 7.31135 13.9423C7.31171 14.3219 7.6201 14.6296 7.99983 14.6298C8.37952 14.6296 8.68697 14.3219 8.68733 13.9423C8.68733 13.5623 8.37974 13.254 7.99983 13.2538ZM13.9412 13.2538C13.5612 13.2538 13.2528 13.5622 13.2528 13.9423C13.2531 14.322 13.5614 14.6298 13.9412 14.6298C14.3207 14.6293 14.6284 14.3217 14.6287 13.9423C14.6287 13.5625 14.3209 13.2542 13.9412 13.2538ZM7.99983 1.37C7.21737 1.37 6.45423 1.61329 5.81623 2.06628C5.17819 2.51938 4.69715 3.16044 4.43928 3.89929C4.36412 4.11422 4.15256 4.25099 3.92561 4.2323L3.72248 4.22156C3.09885 4.22156 2.50039 4.46907 2.0594 4.91003C1.61843 5.35101 1.37096 5.9495 1.37092 6.57312L1.38264 6.80554C1.43606 7.34388 1.67354 7.8503 2.0594 8.23621C2.5004 8.67721 3.09881 8.92468 3.72248 8.92468H12.2772C12.9009 8.92468 13.4993 8.67721 13.9403 8.23621C14.3812 7.7952 14.6287 7.19678 14.6287 6.57312C14.6287 6.19868 14.5397 5.83331 14.3729 5.50574L14.2957 5.36707C14.2218 5.24328 14.1364 5.12575 14.0399 5.01648L13.9403 4.91003C13.4993 4.4691 12.9008 4.22156 12.2772 4.22156L12.074 4.2323C11.8472 4.25098 11.6366 4.11406 11.5614 3.89929C11.3709 3.35352 11.0577 2.86137 10.6502 2.45886L10.4705 2.29187C10.4248 2.25223 10.3776 2.21316 10.3299 2.17566L10.1834 2.06628C9.54543 1.6133 8.78228 1.37 7.99983 1.37Z" fill="url(#paint0_linear_2202_9549)"/>
</g>
<defs>
<linearGradient id="paint0_linear_2202_9549" x1="7.99987" y1="0.369995" x2="7.99987" y2="15.6298" gradientUnits="userSpaceOnUse">
<stop stop-color="currentColor" stop-opacity="0.6"/>
<stop offset="0.608327" stop-color="currentColor"/>
</linearGradient>
<clipPath id="clip0_2202_9549">
<rect width="16" height="16" fill="white"/>
</clipPath>
</defs>
</svg>
