<svg width="16" height="16" viewBox="0 0 16 16" fill="none" xmlns="http://www.w3.org/2000/svg">
<g clip-path="url(#clip0_1282_2504)">
<path fill-rule="evenodd" clip-rule="evenodd" d="M7.99986 0.369873C7.00981 0.369873 6.04428 0.677828 5.23707 1.25106C4.53132 1.75224 3.97715 2.43451 3.63095 3.22282C2.77525 3.24618 1.9595 3.59629 1.35257 4.20323C0.724022 4.83177 0.370911 5.68426 0.370911 6.57315C0.370911 7.46204 0.724022 8.31453 1.35257 8.94307C1.97525 9.56575 2.81771 9.91812 3.69762 9.92464V11.5953L2.8456 12.4474C2.61072 12.3235 2.34309 12.2533 2.05907 12.2533C1.12672 12.2533 0.370911 13.0091 0.370911 13.9415C0.370911 14.8738 1.12672 15.6296 2.05907 15.6296C2.99141 15.6296 3.74723 14.8738 3.74723 13.9415C3.74723 13.6572 3.67696 13.3893 3.55286 13.1543L4.55118 12.156C4.64495 12.0622 4.69762 11.935 4.69762 11.8024V9.92473H7.49972V12.3286C6.8115 12.5417 6.31159 13.1832 6.31159 13.9415C6.31159 14.8738 7.0674 15.6296 7.99974 15.6296C8.93209 15.6296 9.6879 14.8738 9.6879 13.9415C9.6879 13.1832 9.18796 12.5417 8.49972 12.3286V9.92473H11.3013V11.8024C11.3013 11.935 11.354 12.0622 11.4478 12.156L12.4464 13.1547C12.3225 13.3896 12.2523 13.6573 12.2523 13.9415C12.2523 14.8738 13.0081 15.6296 13.9404 15.6296C14.8728 15.6296 15.6286 14.8738 15.6286 13.9415C15.6286 13.0091 14.8728 12.2533 13.9404 12.2533C13.6563 12.2533 13.3885 12.3235 13.1535 12.4475L12.3013 11.5953V9.92464C13.1815 9.91832 14.0243 9.56593 14.6472 8.94307C15.2757 8.31453 15.6288 7.46204 15.6288 6.57315C15.6288 5.96284 15.4623 5.36971 15.1546 4.85448C15.0141 4.61923 14.8441 4.40021 14.6472 4.20323C14.0402 3.59629 13.2245 3.24618 12.3688 3.22282C12.0842 2.5749 11.6592 1.99863 11.125 1.53565C11.0092 1.43532 10.8883 1.34032 10.7626 1.25106C9.95543 0.677828 8.9899 0.369873 7.99986 0.369873ZM5.81607 2.06639C6.45411 1.61329 7.2173 1.36987 7.99986 1.36987C8.78242 1.36987 9.5456 1.61329 10.1836 2.06639C10.283 2.13695 10.3786 2.21204 10.4701 2.29134C10.9662 2.7213 11.3432 3.27489 11.5609 3.89869C11.6359 4.11379 11.8469 4.25094 12.074 4.23224C12.1523 4.22579 12.2166 4.22157 12.2772 4.22157C12.9009 4.22157 13.499 4.46933 13.94 4.91033C14.0783 5.04858 14.1975 5.20222 14.2961 5.36725C14.512 5.72882 14.6288 6.14497 14.6288 6.57315C14.6288 7.19683 14.3811 7.79496 13.94 8.23597C13.499 8.67697 12.9009 8.92473 12.2772 8.92473H3.72249C3.09881 8.92473 2.50068 8.67697 2.05967 8.23597C1.61867 7.79496 1.37091 7.19683 1.37091 6.57315C1.37091 5.94947 1.61867 5.35134 2.05967 4.91033C2.50068 4.46933 3.09881 4.22157 3.72249 4.22157C3.78312 4.22157 3.8474 4.22579 3.92574 4.23224C4.15279 4.25094 4.36378 4.11379 4.43885 3.89869C4.69672 3.15984 5.17803 2.51949 5.81607 2.06639ZM2.05907 13.2533C1.67901 13.2533 1.37091 13.5614 1.37091 13.9415C1.37091 14.3215 1.67901 14.6296 2.05907 14.6296C2.43913 14.6296 2.74723 14.3215 2.74723 13.9415C2.74723 13.5614 2.43913 13.2533 2.05907 13.2533ZM7.99974 13.2533C7.61968 13.2533 7.31159 13.5614 7.31159 13.9415C7.31159 14.3215 7.61968 14.6296 7.99974 14.6296C8.3798 14.6296 8.6879 14.3215 8.6879 13.9415C8.6879 13.5614 8.3798 13.2533 7.99974 13.2533ZM13.2523 13.9415C13.2523 13.5614 13.5604 13.2533 13.9404 13.2533C14.3205 13.2533 14.6286 13.5614 14.6286 13.9415C14.6286 14.3215 14.3205 14.6296 13.9404 14.6296C13.5604 14.6296 13.2523 14.3215 13.2523 13.9415Z" fill="currentColor"/>
</g>
<defs>
<clipPath id="clip0_1282_2504">
<rect width="16" height="16" fill="currentColor"/>
</clipPath>
</defs>
</svg>
