<svg width="17" height="18" viewBox="0 0 17 18" fill="none" xmlns="http://www.w3.org/2000/svg">
<path fill-rule="evenodd" clip-rule="evenodd" d="M11.399 1.32762C11.1642 1.32762 10.974 1.5179 10.974 1.75262C10.974 1.98735 11.1642 2.17762 11.399 2.17762H14.2979C14.8633 2.17762 15.3224 2.63671 15.3224 3.2021V6.10105C15.3224 6.33577 15.5127 6.52605 15.7474 6.52605C15.9821 6.52605 16.1724 6.33577 16.1724 6.10105V3.2021C16.1724 2.16727 15.3327 1.32762 14.2979 1.32762H11.399ZM2.7023 2.1778C2.13691 2.1778 1.67782 2.63688 1.67782 3.20227V6.10122C1.67782 6.33594 1.48754 6.52622 1.25282 6.52622C1.0181 6.52622 0.827821 6.33594 0.827821 6.10122V3.20227C0.827821 2.16744 1.66747 1.3278 2.7023 1.3278H5.60125C5.83597 1.3278 6.02625 1.51808 6.02625 1.7528C6.02625 1.98752 5.83597 2.1778 5.60125 2.1778H2.7023ZM4.69291 5.61791C4.69291 5.38319 4.88319 5.19291 5.11791 5.19291H11.8821C12.1169 5.19291 12.3071 5.38319 12.3071 5.61791V12.3821C12.3071 12.6169 12.1169 12.8071 11.8821 12.8071H5.11791C4.88319 12.8071 4.69291 12.6169 4.69291 12.3821V5.61791ZM5.54291 6.04291V11.9571H11.4571V6.04291H5.54291ZM15.7474 11.474C15.9821 11.474 16.1724 11.6642 16.1724 11.899V14.7979C16.1724 15.8327 15.3327 16.6724 14.2979 16.6724H11.399C11.1642 16.6724 10.974 16.4821 10.974 16.2474C10.974 16.0127 11.1642 15.8224 11.399 15.8224H14.2979C14.8633 15.8224 15.3224 15.3633 15.3224 14.7979V11.899C15.3224 11.6642 15.5127 11.474 15.7474 11.474ZM1.67762 11.899C1.67762 11.6642 1.48735 11.474 1.25262 11.474C1.0179 11.474 0.827624 11.6642 0.827624 11.899V14.7979C0.827624 15.8327 1.66727 16.6724 2.7021 16.6724H5.60105C5.83577 16.6724 6.02605 16.4821 6.02605 16.2474C6.02605 16.0127 5.83577 15.8224 5.60105 15.8224H2.7021C2.13671 15.8224 1.67762 15.3633 1.67762 14.7979V11.899Z" fill="url(#paint0_linear_9797_94103)"/>
<defs>
<linearGradient id="paint0_linear_9797_94103" x1="8.53194" y1="-0.861404" x2="8.53193" y2="19.9052" gradientUnits="userSpaceOnUse">
<stop offset="0.295137" stop-color="#E5E5E5"/>
<stop offset="1" stop-color="#E5E5E5" stop-opacity="0.4"/>
</linearGradient>
</defs>
</svg>
