<svg width="20" height="20" viewBox="0 0 20 20" fill="none" xmlns="http://www.w3.org/2000/svg">
<path fill-rule="evenodd" clip-rule="evenodd" d="M13.4105 0.973633C13.1344 0.973633 12.9105 1.19749 12.9105 1.47363C12.9105 1.74978 13.1344 1.97363 13.4105 1.97363H16.821C17.4862 1.97363 18.0263 2.51373 18.0263 3.1789V6.58943C18.0263 6.86557 18.2502 7.08943 18.5263 7.08943C18.8024 7.08943 19.0263 6.86557 19.0263 6.58943V3.1789C19.0263 1.96145 18.0385 0.973633 16.821 0.973633H13.4105ZM3.17913 1.97384C2.51397 1.97384 1.97386 2.51394 1.97386 3.1791V6.58963C1.97386 6.86577 1.75001 7.08963 1.47386 7.08963C1.19772 7.08963 0.973864 6.86577 0.973864 6.58963V3.1791C0.973864 1.96165 1.96168 0.973835 3.17913 0.973835H6.58966C6.8658 0.973835 7.08966 1.19769 7.08966 1.47384C7.08966 1.74998 6.8658 1.97384 6.58966 1.97384H3.17913ZM5.52103 6.02103C5.52103 5.74489 5.74489 5.52103 6.02103 5.52103H13.9789C14.2551 5.52103 14.4789 5.74489 14.4789 6.02103V13.9789C14.4789 14.2551 14.2551 14.4789 13.9789 14.4789H6.02103C5.74489 14.4789 5.52103 14.2551 5.52103 13.9789V6.02103ZM6.52103 6.52103V13.4789H13.4789V6.52103H6.52103ZM18.5263 12.9105C18.8024 12.9105 19.0263 13.1344 19.0263 13.4105V16.821C19.0263 18.0385 18.0385 19.0263 16.821 19.0263H13.4105C13.1344 19.0263 12.9105 18.8024 12.9105 18.5263C12.9105 18.2502 13.1344 18.0263 13.4105 18.0263H16.821C17.4862 18.0263 18.0263 17.4862 18.0263 16.821V13.4105C18.0263 13.1344 18.2502 12.9105 18.5263 12.9105ZM1.97363 13.4105C1.97363 13.1344 1.74978 12.9105 1.47363 12.9105C1.19749 12.9105 0.973633 13.1344 0.973633 13.4105V16.821C0.973633 18.0385 1.96145 19.0263 3.1789 19.0263H6.58943C6.86557 19.0263 7.08943 18.8024 7.08943 18.5263C7.08943 18.2502 6.86557 18.0263 6.58943 18.0263H3.1789C2.51373 18.0263 1.97363 17.4862 1.97363 16.821V13.4105Z" fill="url(#paint0_linear_9839_17154)"/>
<defs>
<linearGradient id="paint0_linear_9839_17154" x1="10.0372" y1="-1.48938" x2="10.0372" y2="22.7053" gradientUnits="userSpaceOnUse">
<stop stop-color="#303236" stop-opacity="0.6"/>
<stop offset="0.608327" stop-color="#303236"/>
</linearGradient>
</defs>
</svg>
