<svg width="16" height="16" viewBox="0 0 16 16" fill="none" xmlns="http://www.w3.org/2000/svg">
<path d="M6.66669 1.16669C9.70425 1.16669 12.1667 3.62912 12.1667 6.66669C12.1667 8.00541 11.6873 9.2315 10.8923 10.1852L14.6872 13.9802L14.7507 14.0583C14.8789 14.2524 14.8581 14.5163 14.6872 14.6872C14.5163 14.8581 14.2524 14.8789 14.0583 14.7507L13.9802 14.6872L10.1852 10.8923C9.2315 11.6873 8.00541 12.1667 6.66669 12.1667C3.62912 12.1667 1.16669 9.70425 1.16669 6.66669C1.16669 3.62912 3.62912 1.16669 6.66669 1.16669ZM6.66669 2.16669C4.18141 2.16669 2.16669 4.18141 2.16669 6.66669C2.16669 9.15197 4.18141 11.1667 6.66669 11.1667C9.15197 11.1667 11.1667 9.15197 11.1667 6.66669C11.1667 4.18141 9.15197 2.16669 6.66669 2.16669Z" fill="currentColor"/>
</svg>
