<svg width="16" height="16" viewBox="0 0 16 16" fill="none" xmlns="http://www.w3.org/2000/svg">
    <path d="M14.6875 1.6875V9.29688L14.6787 9.62793C14.5968 11.2808 13.9042 12.8496 12.7285 14.0254C11.5527 15.2012 9.98399 15.8937 8.33105 15.9756L8 15.9844C6.22652 15.9844 4.52558 15.2794 3.27148 14.0254C2.09581 12.8496 1.40224 11.2808 1.32031 9.62793L1.3125 9.29688V1.6875L8 0.015625L14.6875 1.6875ZM2.3125 2.46875V9.29688L2.31934 9.5791C2.38917 10.9845 2.97884 12.3186 3.97852 13.3184C5.04507 14.3848 6.49174 14.9844 8 14.9844L8.28223 14.9766C9.68772 14.9067 11.0217 14.3181 12.0215 13.3184C13.0878 12.2519 13.6874 10.805 13.6875 9.29688V2.46875L7.99902 1.04688L2.3125 2.46875ZM8.20215 4.16602C8.67067 4.21254 9.11141 4.42004 9.44727 4.75586C9.83101 5.13963 10.0468 5.66042 10.0469 6.20312V7.25H11.0781V11.8594H4.92188V7.25H5.95312V6.20312C5.95322 5.6604 6.16896 5.13963 6.55273 4.75586C6.93656 4.37217 7.45728 4.15625 8 4.15625L8.20215 4.16602ZM5.92188 10.8594H10.0781V8.25H5.92188V10.8594ZM8 5.15625C7.72249 5.15625 7.45606 5.26674 7.25977 5.46289C7.06353 5.65913 6.95322 5.92561 6.95312 6.20312V7.25H9.04688V6.20312C9.04678 5.92564 8.93644 5.65912 8.74023 5.46289C8.56852 5.29121 8.34304 5.18497 8.10352 5.16113L8 5.15625Z" fill="url(#paint0_linear_17837_35003)"/>
    <defs>
        <linearGradient id="paint0_linear_17837_35003" x1="8" y1="0" x2="8" y2="16" gradientUnits="userSpaceOnUse">
            <stop stop-color="currentColor" stop-opacity="0.6"/>
            <stop offset="0.608327" stop-color="currentColor"/>
        </linearGradient>
    </defs>
</svg>
