<svg width="16" height="16" viewBox="0 0 16 16" fill="none" xmlns="http://www.w3.org/2000/svg">
<path d="M13.5071 1.14673C14.2511 1.14679 14.8537 1.75037 14.8537 2.49438V13.5081C14.8537 14.252 14.251 14.8547 13.5071 14.8547H2.4934C1.74938 14.8547 1.1458 14.2521 1.14574 13.5081V2.49438C1.14574 1.75033 1.74934 1.14673 2.4934 1.14673H13.5071ZM2.14574 13.5081C2.1458 13.6998 2.30167 13.8547 2.4934 13.8547H6.22875V9.76978H2.14574V13.5081ZM2.4934 2.14673C2.30163 2.14673 2.14574 2.30262 2.14574 2.49438V8.76978H6.72875L6.83031 8.77954C7.05784 8.82626 7.22853 9.02848 7.22875 9.26978V13.8547H13.5071C13.6987 13.8547 13.8537 13.6997 13.8537 13.5081V2.49438C13.8537 2.30265 13.6988 2.14679 13.5071 2.14673H2.4934ZM11.8264 3.68774C11.8473 3.68839 11.8682 3.69034 11.8889 3.6936L11.9114 3.69653C11.9179 3.69786 11.9245 3.69983 11.9309 3.70142C11.9395 3.70353 11.9478 3.70665 11.9563 3.70923C11.9761 3.71524 11.9952 3.72238 12.0139 3.73071C12.0212 3.73397 12.0282 3.73783 12.0354 3.74146C12.053 3.75034 12.0699 3.75993 12.0862 3.77075C12.0941 3.77603 12.1019 3.78157 12.1096 3.78735C12.1252 3.79906 12.1404 3.81105 12.1545 3.82446C12.1577 3.82747 12.1612 3.83015 12.1643 3.83325C12.1685 3.83749 12.172 3.84257 12.176 3.84692C12.1874 3.85914 12.1981 3.87171 12.2082 3.88501C12.2177 3.89742 12.2265 3.91005 12.2346 3.9231C12.2403 3.93226 12.2451 3.94186 12.2502 3.95142C12.259 3.96774 12.2668 3.98421 12.2737 4.00122C12.2773 4.01022 12.2804 4.01932 12.2834 4.02856C12.2895 4.0466 12.2942 4.06476 12.2981 4.08325C12.3001 4.09299 12.3025 4.10261 12.3039 4.11255C12.3067 4.13107 12.3081 4.14954 12.3088 4.16821C12.3091 4.17437 12.3108 4.18056 12.3108 4.18677V7.57544C12.3107 7.85155 12.0869 8.07544 11.8108 8.07544C11.5349 8.0752 11.3108 7.8514 11.3108 7.57544V5.3938L8.77562 7.92896C8.58035 8.12408 8.26381 8.12417 8.06859 7.92896C7.87356 7.73372 7.87353 7.41714 8.06859 7.22192L10.6037 4.68677H8.42211C8.14608 4.68666 7.92215 4.46281 7.92211 4.18677C7.92211 3.91069 8.14606 3.68687 8.42211 3.68677H11.8108L11.8264 3.68774Z" fill="url(#paint0_linear_2202_9570)"/>
<defs>
<linearGradient id="paint0_linear_2202_9570" x1="7.99974" y1="1.14673" x2="7.99974" y2="14.8547" gradientUnits="userSpaceOnUse">
<stop stop-color="currentColor" stop-opacity="0.6"/>
<stop offset="0.608327" stop-color="currentColor"/>
</linearGradient>
</defs>
</svg>
