<svg width="20" height="21" viewBox="0 0 20 21" fill="none" xmlns="http://www.w3.org/2000/svg">
<path fill-rule="evenodd" clip-rule="evenodd" d="M6.3883 4.78061C7.4355 3.9277 8.69757 3.46265 9.99992 3.46265C11.3023 3.46265 12.5643 3.9277 13.6115 4.78061C13.7745 4.91331 13.9309 5.05435 14.0805 5.20305C14.8029 5.92104 15.366 6.81801 15.7286 7.82117C16.8822 7.82981 17.9709 8.35962 18.7637 9.26896C19.0141 9.5561 19.2288 9.87389 19.4057 10.2134C19.7927 10.9566 19.9998 11.8073 19.9998 12.6793C19.9998 13.9473 19.5613 15.1749 18.7637 16.0896C17.9643 17.0065 16.8641 17.5375 15.6999 17.5375H4.29997C3.1357 17.5375 2.03555 17.0065 1.23612 16.0896C0.438587 15.1749 0 13.9473 0 12.6793C0 11.4112 0.438587 10.1837 1.23612 9.26896C2.02898 8.35962 3.11764 7.82981 4.27128 7.82116C4.70885 6.61061 5.43872 5.55402 6.3883 4.78061ZM9.99992 4.46265C8.94013 4.46265 7.89854 4.84028 7.01981 5.55598C6.13986 6.27268 5.46642 7.29403 5.10384 8.48551C5.03466 8.71283 4.81505 8.86007 4.57848 8.83773C4.4736 8.82782 4.38477 8.82106 4.29997 8.82106C3.44861 8.82106 2.61568 9.20837 1.98985 9.92614C1.36212 10.6461 1 11.6356 1 12.6793C1 13.723 1.36212 14.7125 1.98985 15.4324C2.61568 16.1502 3.44861 16.5375 4.29997 16.5375H15.6999C16.5512 16.5375 17.3842 16.1502 18.01 15.4324C18.6377 14.7125 18.9998 13.723 18.9998 12.6793C18.9998 11.964 18.8296 11.2722 18.5187 10.6753C18.377 10.4031 18.2064 10.1514 18.01 9.92614C17.3842 9.20837 16.5512 8.82106 15.6999 8.82106C15.6151 8.82106 15.5262 8.82782 15.4214 8.83773C15.1848 8.86007 14.9652 8.71283 14.896 8.48551C14.59 7.47992 14.0623 6.59487 13.3755 5.91229C13.249 5.78646 13.117 5.66753 12.98 5.55598C12.1013 4.84028 11.0597 4.46265 9.99992 4.46265Z" fill="url(#paint0_linear_9839_17175)"/>
<defs>
<linearGradient id="paint0_linear_9839_17175" x1="10.0411" y1="1.54234" x2="10.0411" y2="20.4059" gradientUnits="userSpaceOnUse">
<stop stop-color="#303236" stop-opacity="0.6"/>
<stop offset="0.608327" stop-color="#303236"/>
</linearGradient>
</defs>
</svg>
