<svg width="17" height="18" viewBox="0 0 17 18" fill="none" xmlns="http://www.w3.org/2000/svg">
<path fill-rule="evenodd" clip-rule="evenodd" d="M5.43017 4.13845C6.32028 3.41348 7.39304 3.01818 8.50004 3.01818C9.60704 3.01818 10.6798 3.41348 11.5699 4.13845C11.7084 4.25124 11.8414 4.37113 11.9686 4.49752C12.5825 5.10781 13.0612 5.87024 13.3694 6.72292C14.35 6.73027 15.2753 7.1806 15.9493 7.95354C16.1621 8.19761 16.3446 8.46773 16.4949 8.75635C16.8239 9.38803 17 10.1112 17 10.8523C17 11.9301 16.6272 12.9736 15.9493 13.7511C15.2698 14.5304 14.3346 14.9818 13.345 14.9818H3.65508C2.66546 14.9818 1.73033 14.5304 1.05081 13.7511C0.372909 12.9736 0.000109851 11.9301 0.000109851 10.8523C0.000109851 9.77449 0.372909 8.73104 1.05081 7.95354C1.72474 7.1806 2.65011 6.73026 3.6307 6.72292C4.00263 5.69394 4.62302 4.79584 5.43017 4.13845ZM8.50004 3.86818C7.59922 3.86818 6.71387 4.18917 5.96695 4.79751C5.21899 5.4067 4.64657 6.27485 4.33838 7.28761C4.27957 7.48083 4.0929 7.60599 3.89182 7.58699C3.80267 7.57857 3.72717 7.57282 3.65508 7.57282C2.93143 7.57282 2.22344 7.90204 1.69148 8.51215C1.15791 9.12411 0.85011 9.96516 0.85011 10.8523C0.85011 11.7395 1.15791 12.5805 1.69148 13.1925C2.22344 13.8026 2.93143 14.1318 3.65508 14.1318H13.345C14.0687 14.1318 14.7766 13.8026 15.3086 13.1925C15.8422 12.5805 16.15 11.7395 16.15 10.8523C16.15 10.2444 16.0053 9.65634 15.741 9.14896C15.6205 8.91758 15.4755 8.70358 15.3086 8.51215C14.7766 7.90204 14.0687 7.57282 13.345 7.57282C13.2729 7.57282 13.1974 7.57857 13.1083 7.58699C12.9072 7.60599 12.7205 7.48083 12.6617 7.28761C12.4016 6.43286 11.953 5.68057 11.3693 5.10037C11.2617 4.99342 11.1496 4.89233 11.0331 4.79751C10.2862 4.18917 9.40086 3.86818 8.50004 3.86818Z" fill="url(#paint0_linear_9797_94094)"/>
<defs>
<linearGradient id="paint0_linear_9797_94094" x1="8.51809" y1="2.9198" x2="8.51809" y2="15.0568" gradientUnits="userSpaceOnUse">
<stop stop-color="#E5E5E5"/>
<stop offset="1" stop-color="#E5E5E5" stop-opacity="0.4"/>
</linearGradient>
</defs>
</svg>
