<svg fill="none"
    xmlns="http://www.w3.org/2000/svg" viewBox="0 0 16 16">
    <g clip-path="url(#settings-gradient-a)">
        <path d="M8 0a.5.5 0 0 1 .5.5v1.522c.73.06 1.424.25 2.057.55l.76-1.317a.5.5 0 1 1 .866.5l-.761 1.317a6.033 6.033 0 0 1 1.505 1.505l1.318-.76a.5.5 0 1 1 .5.866l-1.317.76c.299.633.49 1.326.55 2.057H15.5a.5.5 0 0 1 0 1h-1.523a5.958 5.958 0 0 1-.55 2.057l1.318.76a.5.5 0 0 1-.5.866l-1.318-.761a6.032 6.032 0 0 1-1.505 1.505l.76 1.318a.5.5 0 0 1-.865.5l-.76-1.317a5.957 5.957 0 0 1-2.057.549V15.5a.5.5 0 0 1-1 0v-1.523a5.96 5.96 0 0 1-2.058-.55l-.76 1.318a.5.5 0 1 1-.865-.5l.761-1.318a6.031 6.031 0 0 1-1.506-1.505l-1.317.76a.5.5 0 1 1-.5-.865l1.316-.76A5.96 5.96 0 0 1 2.022 8.5H.5a.5.5 0 0 1 0-1h1.522c.06-.73.25-1.425.55-2.058l-1.317-.76a.5.5 0 0 1 .5-.865l1.317.76a6.032 6.032 0 0 1 1.506-1.505l-.76-1.317a.5.5 0 1 1 .865-.5l.76 1.316A5.96 5.96 0 0 1 7.5 2.022V.5A.5.5 0 0 1 8 0ZM5.945 12.558a5 5 0 0 0 7.03-4.058H8.289l-2.343 4.058ZM5.08 3.94A4.993 4.993 0 0 0 3 8c0 1.671.82 3.15 2.08 4.058L7.423 8 5.08 3.941ZM8 3a4.98 4.98 0 0 0-2.055.441L8.288 7.5h4.688A5 5 0 0 0 8 3Z" fill="url(#settings-gradient-b)"/>
    </g>
    <defs>
        <linearGradient id="settings-gradient-b" x1="8" y1="0" x2="8" y2="16" gradientUnits="userSpaceOnUse">
            <stop stop-color="currentColor" stop-opacity="0.6"/>
            <stop offset="1" stop-color="currentColor" />
        </linearGradient>
        <clipPath id="settings-gradient-a">
            <rect width="16" height="16" fill="white"/>
        </clipPath>
    </defs>
</svg>