<svg width="20" height="20" viewBox="0 0 20 20" fill="none" xmlns="http://www.w3.org/2000/svg">
<g clip-path="url(#clip0_4135_55538)">
<path fill-rule="evenodd" clip-rule="evenodd" d="M1.25 1.58325C0.973858 1.58325 0.75 1.80711 0.75 2.08325V8.74992C0.75 9.02606 0.973858 9.24992 1.25 9.24992H19.5833C19.8595 9.24992 20.0833 9.02606 20.0833 8.74992V2.08325C20.0833 1.80711 19.8595 1.58325 19.5833 1.58325H1.25ZM1.75 8.24992V2.58325H19.0833V8.24992H1.75ZM1.25 11.5833C0.973858 11.5833 0.75 11.8071 0.75 12.0833V18.7499C0.75 19.0261 0.973858 19.2499 1.25 19.2499H19.5833C19.8595 19.2499 20.0833 19.0261 20.0833 18.7499V12.0833C20.0833 11.8071 19.8595 11.5833 19.5833 11.5833H1.25ZM1.75 18.2499V12.5833H19.0833V18.2499H1.75ZM4.08301 5.41675C4.08301 5.14061 4.30687 4.91675 4.58301 4.91675H7.91634C8.19248 4.91675 8.41634 5.14061 8.41634 5.41675C8.41634 5.69289 8.19248 5.91675 7.91634 5.91675H4.58301C4.30687 5.91675 4.08301 5.69289 4.08301 5.41675ZM4.58301 14.9167C4.30687 14.9167 4.08301 15.1406 4.08301 15.4167C4.08301 15.6929 4.30687 15.9167 4.58301 15.9167H7.91634C8.19248 15.9167 8.41634 15.6929 8.41634 15.4167C8.41634 15.1406 8.19248 14.9167 7.91634 14.9167H4.58301ZM16.2503 6.24992C16.7106 6.24992 17.0837 5.87682 17.0837 5.41659C17.0837 4.95635 16.7106 4.58325 16.2503 4.58325C15.7901 4.58325 15.417 4.95635 15.417 5.41659C15.417 5.87682 15.7901 6.24992 16.2503 6.24992ZM17.0837 15.4166C17.0837 15.8768 16.7106 16.2499 16.2503 16.2499C15.7901 16.2499 15.417 15.8768 15.417 15.4166C15.417 14.9563 15.7901 14.5833 16.2503 14.5833C16.7106 14.5833 17.0837 14.9563 17.0837 15.4166Z" fill="url(#paint0_linear_4135_55538)"/>
</g>
<defs>
<linearGradient id="paint0_linear_4135_55538" x1="10.4167" y1="1.58325" x2="10.4167" y2="19.2499" gradientUnits="userSpaceOnUse">
<stop stop-color="#E5E5E5"/>
<stop offset="1" stop-color="#E5E5E5" stop-opacity="0.4"/>
</linearGradient>
<clipPath id="clip0_4135_55538">
<rect width="20" height="20" fill="white"/>
</clipPath>
</defs>
</svg>
