<svg width="44" height="44" viewBox="0 0 44 44" fill="none" xmlns="http://www.w3.org/2000/svg">
<rect width="44" height="44" rx="6.75" fill="#F0F075"/>
<g clip-path="url(#clip0_24525_7380)">
<path d="M10.625 9.8125C10.4095 9.8125 10.2028 9.8981 10.0505 10.0505C9.8981 10.2028 9.8125 10.4095 9.8125 10.625V33.375C9.8125 33.5905 9.8981 33.7972 10.0505 33.9495C10.2028 34.1019 10.4095 34.1875 10.625 34.1875H21.1875V9.8125H10.625ZM18.75 23.625H12.25V22H18.75V23.625ZM18.75 19.5625H12.25V17.9375H18.75V19.5625ZM18.75 15.5H12.25V13.875H18.75V15.5Z" fill="#212121"/>
<path d="M33.375 9.8125H22.8125V34.1875H33.375C33.5905 34.1875 33.7972 34.1019 33.9495 33.9495C34.1019 33.7972 34.1875 33.5905 34.1875 33.375V10.625C34.1875 10.4095 34.1019 10.2028 33.9495 10.0505C33.7972 9.8981 33.5905 9.8125 33.375 9.8125ZM31.75 23.625H25.25V22H31.75V23.625ZM31.75 19.5625H25.25V17.9375H31.75V19.5625ZM31.75 15.5H25.25V13.875H31.75V15.5Z" fill="#212121"/>
</g>
<defs>
<clipPath id="clip0_24525_7380">
<rect width="26" height="26" fill="white" transform="translate(9 9)"/>
</clipPath>
</defs>
</svg>
