<svg width="16" height="16" viewBox="0 0 16 16" fill="none" xmlns="http://www.w3.org/2000/svg">
<path fill-rule="evenodd" clip-rule="evenodd" d="M2.14575 2.49396C2.14575 2.30219 2.30121 2.14673 2.49298 2.14673H13.507C13.6987 2.14673 13.8542 2.30219 13.8542 2.49396V13.5079C13.8542 13.6997 13.6987 13.8552 13.507 13.8552H7.22913V9.27025C7.22913 8.99411 7.00527 8.77025 6.72913 8.77025H2.14575V2.49396ZM1.14575 9.27025V2.49396C1.14575 1.7499 1.74893 1.14673 2.49298 1.14673H13.507C14.251 1.14673 14.8542 1.7499 14.8542 2.49396V13.5079C14.8542 14.252 14.251 14.8552 13.507 14.8552H2.49298C1.74893 14.8552 1.14575 14.252 1.14575 13.5079V9.27025ZM2.14575 9.77025H6.22913V13.8552H2.49298C2.30121 13.8552 2.14575 13.6997 2.14575 13.5079V9.77025ZM8.42232 4.68669C8.14617 4.68669 7.92232 4.46283 7.92232 4.18669C7.92232 3.91055 8.14617 3.68669 8.42232 3.68669H11.8112C11.879 3.68669 11.9437 3.70018 12.0026 3.72463C12.0607 3.74867 12.1152 3.78413 12.1627 3.83102C12.1641 3.83243 12.1655 3.83384 12.1669 3.83526C12.2138 3.88271 12.2493 3.9372 12.2733 3.9953C12.2977 4.05425 12.3112 4.11889 12.3112 4.18669V7.57561C12.3112 7.85175 12.0874 8.07561 11.8112 8.07561C11.5351 8.07561 11.3112 7.85175 11.3112 7.57561V5.3938L8.77587 7.92916C8.58061 8.12442 8.26403 8.12442 8.06876 7.92916C7.8735 7.7339 7.8735 7.41732 8.06876 7.22205L10.6041 4.68669H8.42232Z" fill="currentColor"/>
</svg>
