<svg width="28" height="28" viewBox="0 0 28 28" xmlns="http://www.w3.org/2000/svg">
<circle cx="14" cy="14" r="14" fill="currentColor"/>
<path d="M14 4C8.47711 4 4 8.54822 4 14.1587C4 18.8964 7.19267 22.8764 11.5116 24C11.5087 22.826 11.5049 21.386 11.5027 20.9373C8.61689 21.5749 8.008 19.694 8.008 19.694C7.53622 18.476 6.85622 18.152 6.85622 18.152C5.91489 17.498 6.92711 17.5113 6.92711 17.5113C7.96867 17.5856 8.51733 18.5973 8.51733 18.5973C9.44244 20.2082 10.944 19.7424 11.536 19.4733C11.6291 18.7924 11.8978 18.3273 12.1947 18.0642C9.89067 17.7978 7.46844 16.8942 7.46844 12.8564C7.46844 11.706 7.87378 10.766 8.53733 10.028C8.42956 9.76244 8.07444 8.69067 8.63778 7.23911C8.63778 7.23911 9.50889 6.956 11.4911 8.31933C12.3187 8.08578 13.206 7.96867 14.0876 7.96467C14.9691 7.96867 15.8571 8.08578 16.6862 8.31933C18.6662 6.956 19.536 7.23911 19.536 7.23911C20.1007 8.69067 19.7456 9.76244 19.6378 10.028C20.3029 10.766 20.7053 11.706 20.7053 12.8564C20.7053 16.904 18.2787 17.7949 15.9687 18.056C16.3407 18.3831 16.6722 19.0242 16.6722 20.0073C16.6722 20.788 16.6687 22.5853 16.6653 23.9496C20.8936 22.7642 24 18.8311 24 14.1587C24 8.54822 19.5229 4 14 4Z" fill="white"/>
</svg>
