<svg width="28" height="28" viewBox="0 0 28 28" xmlns="http://www.w3.org/2000/svg">
<circle cx="14" cy="14" r="14" fill="currentColor"/>
<path d="M8.21378 11.3165H10.9087V20H8.21378V11.3165ZM9.56129 7C10.4226 7 11.1226 7.70122 11.1226 8.56553C11.1226 9.42896 10.4226 10.1302 9.56129 10.1302C8.69795 10.1302 8 9.42896 8 8.56553C8 7.70122 8.69795 7 9.56129 7Z" fill="white"/>
<path d="M12.5986 11.3165H15.1827V12.5039H15.2196C15.5792 11.8209 16.4583 11.1014 17.7686 11.1014C20.4967 11.1014 21.0002 12.8994 21.0002 15.2374V20H18.3074V15.7772C18.3074 14.7699 18.2899 13.4747 16.9074 13.4747C15.5054 13.4747 15.2915 14.5725 15.2915 15.7048V20H12.5986V11.3165Z" fill="white"/>
</svg>
