<svg width="28" height="28" viewBox="0 0 28 28" fill="none" xmlns="http://www.w3.org/2000/svg">
<circle cx="14" cy="14" r="14" fill="#404040"/>
<path d="M12.0317 21C18.0695 21 21.3719 15.998 21.3719 11.6605C21.3719 11.5185 21.3719 11.377 21.3623 11.2362C22.0048 10.7715 22.5593 10.1962 23 9.53708C22.4009 9.80249 21.7653 9.9767 21.1145 10.0535C21.7998 9.64321 22.3127 8.99809 22.5577 8.23796C21.9132 8.62034 21.2083 8.88983 20.4732 9.03471C19.23 7.71284 17.1505 7.64902 15.8285 8.89214C14.9759 9.69387 14.6143 10.8885 14.8788 12.0285C12.2397 11.896 9.78048 10.6495 8.11361 8.59883C7.24231 10.0986 7.6873 12.0175 9.12998 12.9806C8.60748 12.9651 8.09655 12.8242 7.64001 12.5698C7.64001 12.5833 7.64001 12.5973 7.64001 12.6114C7.64036 14.1739 8.74189 15.5196 10.2736 15.8291C9.79043 15.9609 9.28323 15.9802 8.79131 15.8855C9.22136 17.2226 10.4537 18.1387 11.8582 18.165C10.6957 19.0785 9.25976 19.5743 7.78134 19.5729C7.52018 19.5724 7.25938 19.5565 7 19.5254C8.50117 20.4887 10.248 20.9996 12.0317 20.9973" fill="white"/>
</svg>
