<svg width="143" height="24" viewBox="0 0 143 24" fill="none" xmlns="http://www.w3.org/2000/svg">
<path d="M12 23C18.0751 23 23 18.0751 23 12C23 5.92487 18.0751 1 12 1C5.92487 1 1 5.92487 1 12C1 18.0751 5.92487 23 12 23Z" fill="#1A1A1A" stroke="#545454" stroke-width="2"/>
<path d="M12 16C14.2091 16 16 14.2091 16 12C16 9.79086 14.2091 8 12 8C9.79086 8 8 9.79086 8 12C8 14.2091 9.79086 16 12 16Z" fill="#545454"/>
<path d="M35.0215 7.22811H38.0595C39.3285 7.22811 40.2715 7.64811 40.8875 8.48811C41.5125 9.32811 41.8255 10.5371 41.8255 12.1141C41.8255 13.7011 41.5125 14.9141 40.8875 15.7541C40.2715 16.5851 39.3285 17.0001 38.0595 17.0001H35.0215V7.22811ZM37.9335 15.5301C38.6055 15.5301 39.1005 15.3111 39.4175 14.8721C39.7445 14.4331 39.9075 13.7941 39.9075 12.9541V11.2601C39.9075 10.4291 39.7445 9.79512 39.4175 9.35612C39.1005 8.91712 38.6055 8.69811 37.9335 8.69811H36.8275V15.5301H37.9335V15.5301ZM46.5945 17.1681C46.0155 17.1681 45.5025 17.0981 45.0545 16.9581C44.6429 16.8284 44.2586 16.6244 43.9205 16.3561C43.6212 16.1155 43.3816 15.8088 43.2205 15.4601C43.0593 15.104 42.978 14.717 42.9825 14.3261C42.9825 13.6821 43.1595 13.1641 43.5145 12.7721C43.8785 12.3801 44.3545 12.1051 44.9425 11.9461V11.8341C44.4679 11.6768 44.0462 11.3909 43.7245 11.0081C43.4255 10.6351 43.2765 10.1631 43.2765 9.59411C43.2715 9.24242 43.3472 8.89428 43.4976 8.57637C43.6481 8.25846 43.8694 7.97924 44.1445 7.76012C44.4528 7.52157 44.8047 7.3456 45.1805 7.24211C45.5905 7.12111 46.0625 7.06011 46.5945 7.06011C47.1265 7.06011 47.5975 7.12111 48.0085 7.24211C48.4185 7.36311 48.7645 7.53612 49.0445 7.76012C49.3188 7.97994 49.5396 8.2593 49.6899 8.57705C49.8403 8.8948 49.9165 9.24259 49.9125 9.59411C49.9125 10.1631 49.7585 10.6351 49.4505 11.0081C49.1515 11.3811 48.7505 11.6571 48.2465 11.8341V11.9461C48.8345 12.1051 49.3055 12.3801 49.6605 12.7721C50.0245 13.1641 50.2065 13.6821 50.2065 14.3261C50.2065 14.7371 50.1265 15.1151 49.9685 15.4601C49.8071 15.8086 49.5675 16.1152 49.2685 16.3561C48.9305 16.6244 48.5461 16.8284 48.1345 16.9581C47.6865 17.0981 47.1725 17.1681 46.5945 17.1681ZM46.5945 15.7401C47.1445 15.7401 47.5645 15.6191 47.8545 15.3761C48.1525 15.1241 48.3025 14.7791 48.3025 14.3401V14.0601C48.3025 13.6121 48.1575 13.2671 47.8685 13.0241C47.5785 12.7721 47.1545 12.6461 46.5945 12.6461C46.0345 12.6461 45.6095 12.7721 45.3205 13.0241C45.0305 13.2671 44.8865 13.6121 44.8865 14.0601V14.3401C44.8865 14.7791 45.0305 15.1241 45.3205 15.3761C45.6185 15.6191 46.0435 15.7401 46.5945 15.7401ZM46.5945 11.2881C47.1075 11.2881 47.4995 11.1711 47.7705 10.9381C48.0405 10.7051 48.1765 10.3831 48.1765 9.97211V9.77612C48.1765 9.37512 48.0405 9.06211 47.7705 8.83811C47.4995 8.60511 47.1075 8.48811 46.5945 8.48811C46.0805 8.48811 45.6885 8.60511 45.4185 8.83811C45.1475 9.06211 45.0125 9.37512 45.0125 9.77612V9.97211C45.0125 10.3831 45.1475 10.7051 45.4185 10.9381C45.6885 11.1711 46.0805 11.2881 46.5945 11.2881ZM55.2405 17.1681C53.9615 17.1681 53.0145 16.7291 52.3985 15.8521C51.7915 14.9751 51.4885 13.7291 51.4885 12.1141C51.4885 10.5091 51.7915 9.26711 52.3985 8.39011C53.0145 7.50311 53.9615 7.06011 55.2405 7.06011C55.7255 7.06011 56.1505 7.12511 56.5145 7.25611C56.8875 7.38711 57.2095 7.56912 57.4805 7.80212C57.7515 8.02612 57.9755 8.30111 58.1525 8.62811C58.3295 8.94511 58.4695 9.29511 58.5725 9.67811L56.8925 10.1541C56.8308 9.93975 56.756 9.72935 56.6685 9.52412C56.5914 9.33861 56.4824 9.16804 56.3465 9.02012C56.2241 8.87007 56.065 8.7543 55.8845 8.68411C55.6719 8.59514 55.4429 8.55219 55.2125 8.55811C54.5775 8.55811 54.1205 8.80111 53.8405 9.28611C53.5695 9.77111 53.4345 10.4341 53.4345 11.2741V12.9541C53.4345 13.7941 53.5695 14.4571 53.8405 14.9421C54.1205 15.4271 54.5775 15.6701 55.2125 15.6701C55.4735 15.6701 55.6975 15.6331 55.8845 15.5581C56.0715 15.4741 56.2255 15.3621 56.3465 15.2221C56.4775 15.0731 56.5845 14.9001 56.6685 14.7041C56.7525 14.5081 56.8275 14.2981 56.8925 14.0741L58.5725 14.5501C58.4746 14.92 58.3336 15.2771 58.1525 15.6141C57.9791 15.927 57.7516 16.2067 57.4805 16.4401C57.1926 16.6733 56.8655 16.8535 56.5145 16.9721C56.1505 17.1031 55.7255 17.1681 55.2405 17.1681ZM60.3455 17.0001V7.22811H66.5195V8.74011H62.1795V11.2881H66.3655V12.8001H62.1795V15.4881H66.5195V17.0001H60.3455ZM74.8295 8.82411H70.3495L70.1115 12.1001H70.2235C70.3355 11.8951 70.4565 11.7081 70.5875 11.5401C70.7185 11.3631 70.8675 11.2131 71.0355 11.0921C71.2125 10.9711 71.4085 10.8771 71.6235 10.8121C71.8475 10.7471 72.1045 10.7141 72.3935 10.7141C72.8045 10.7141 73.1915 10.7841 73.5555 10.9241C73.9195 11.0641 74.2365 11.2651 74.5075 11.5261C74.7785 11.7871 74.9885 12.1091 75.1375 12.4921C75.2965 12.8751 75.3755 13.3091 75.3755 13.7941C75.3755 14.2791 75.2915 14.7271 75.1235 15.1381C74.967 15.5452 74.7233 15.9132 74.4095 16.2161C74.0805 16.5278 73.6893 16.7663 73.2615 16.9161C72.8135 17.0841 72.2955 17.1681 71.7075 17.1681C71.2505 17.1681 70.8395 17.1171 70.4755 17.0141C70.145 16.9311 69.8288 16.799 69.5375 16.6221C69.2761 16.462 69.0361 16.2691 68.8235 16.0481C68.6268 15.8351 68.4488 15.6056 68.2915 15.3621L69.6215 14.3121C69.7335 14.4991 69.8545 14.6761 69.9855 14.8441C70.1255 15.0031 70.2795 15.1431 70.4475 15.2641C70.6155 15.3851 70.8025 15.4831 71.0075 15.5581C71.2225 15.6231 71.4645 15.6561 71.7355 15.6561C72.2955 15.6561 72.7205 15.5071 73.0095 15.2081C73.3085 14.9001 73.4575 14.4801 73.4575 13.9481V13.8361C73.4575 13.3231 73.3085 12.9211 73.0095 12.6321C72.7105 12.3431 72.2905 12.1981 71.7495 12.1981C71.3385 12.1981 71.0025 12.2771 70.7415 12.4361C70.5125 12.5672 70.3047 12.7324 70.1255 12.9261L68.6275 12.7161L68.9915 7.22811H74.8295V8.82411V8.82411ZM78.3105 17.0001L81.7965 8.72611H78.3105V10.5181H76.7425V7.22811H83.6165V8.82411L80.2425 17.0001H78.3105ZM86.3965 13.6121V11.8621H90.7365V13.6121H86.3965ZM93.9235 17.0001V7.22811H100.307V8.74011H95.7575V11.2881H99.8595V12.8001H95.7575V17.0001H93.9235V17.0001ZM106.07 17.0001V15.1101H101.547V13.5421L105.538 7.22811H107.82V13.6821H109.135V15.1101H107.82V17.0001H106.07ZM103.046 13.6821H106.07V9.02012H105.958L103.046 13.6821ZM113.359 11.1761C113.947 11.1761 114.375 11.0591 114.646 10.8261C114.78 10.7214 114.887 10.5873 114.96 10.4343C115.033 10.2813 115.069 10.1135 115.067 9.94411V9.84611C115.067 9.44511 114.931 9.13211 114.661 8.90811C114.399 8.68411 114.034 8.57211 113.568 8.57211C113.12 8.57211 112.729 8.67511 112.393 8.88011C112.041 9.10016 111.745 9.39693 111.525 9.74812L110.335 8.68411C110.503 8.46011 110.689 8.25012 110.895 8.05412C111.109 7.84912 111.347 7.67612 111.609 7.53612C111.879 7.38712 112.178 7.27011 112.505 7.18611C112.831 7.10211 113.205 7.06011 113.625 7.06011C114.119 7.06011 114.571 7.12111 114.982 7.24211C115.402 7.35411 115.757 7.52212 116.047 7.74612C116.345 7.97012 116.573 8.24111 116.732 8.55811C116.9 8.86611 116.984 9.21612 116.984 9.60812C116.984 9.91612 116.933 10.1961 116.831 10.4481C116.733 10.6917 116.59 10.9149 116.411 11.1061C116.24 11.2953 116.036 11.4518 115.809 11.5681C115.585 11.6891 115.342 11.7781 115.081 11.8341V11.9041C115.37 11.9601 115.641 12.0531 115.893 12.1841C116.145 12.3051 116.364 12.4641 116.551 12.6601C116.737 12.8561 116.887 13.0941 116.999 13.3741C117.115 13.668 117.172 13.9821 117.167 14.2981C117.167 14.7271 117.078 15.1191 116.901 15.4741C116.721 15.8309 116.462 16.1421 116.145 16.3841C115.797 16.6511 115.403 16.8505 114.982 16.9721C114.49 17.1088 113.981 17.1748 113.471 17.1681C113.004 17.1681 112.588 17.1171 112.224 17.0141C111.885 16.931 111.56 16.799 111.258 16.6221C110.991 16.4644 110.746 16.2713 110.531 16.0481C110.332 15.8332 110.149 15.6039 109.984 15.3621L111.343 14.3121C111.576 14.7041 111.851 15.0261 112.169 15.2781C112.495 15.5301 112.939 15.6561 113.499 15.6561C114.059 15.6561 114.487 15.5301 114.786 15.2781C115.094 15.0171 115.249 14.6571 115.249 14.2001V14.0881C115.249 13.6401 115.084 13.2991 114.758 13.0661C114.431 12.8231 113.969 12.7021 113.372 12.7021H112.393V11.1761H113.359V11.1761ZM125.197 8.82411H120.716L120.479 12.1001H120.591C120.703 11.8951 120.825 11.7081 120.955 11.5401C121.086 11.3631 121.235 11.2131 121.403 11.0921C121.581 10.9711 121.777 10.8771 121.991 10.8121C122.215 10.7471 122.471 10.7141 122.76 10.7141C123.171 10.7141 123.558 10.7841 123.922 10.9241C124.286 11.0641 124.605 11.2651 124.875 11.5261C125.146 11.7871 125.356 12.1091 125.505 12.4921C125.664 12.8751 125.742 13.3091 125.742 13.7941C125.742 14.2791 125.659 14.7271 125.491 15.1381C125.333 15.5491 125.094 15.9081 124.776 16.2161C124.468 16.5151 124.087 16.7481 123.629 16.9161C123.181 17.0841 122.663 17.1681 122.075 17.1681C121.618 17.1681 121.207 17.1171 120.843 17.0141C120.211 16.8559 119.638 16.5208 119.19 16.0481C118.994 15.8349 118.816 15.6054 118.659 15.3621L119.989 14.3121C120.101 14.4991 120.223 14.6761 120.353 14.8441C120.493 15.0031 120.647 15.1431 120.815 15.2641C120.983 15.3851 121.17 15.4831 121.375 15.5581C121.59 15.6231 121.833 15.6561 122.103 15.6561C122.663 15.6561 123.088 15.5071 123.377 15.2081C123.676 14.9001 123.825 14.4801 123.825 13.9481V13.8361C123.825 13.3231 123.676 12.9211 123.377 12.6321C123.079 12.3431 122.659 12.1981 122.117 12.1981C121.707 12.1981 121.371 12.2771 121.109 12.4361C120.879 12.5672 120.672 12.7324 120.492 12.9261L118.995 12.7161L119.359 7.22811H125.197V8.82411V8.82411ZM130.148 11.1761C130.736 11.1761 131.164 11.0591 131.435 10.8261C131.569 10.7214 131.676 10.5873 131.749 10.4343C131.822 10.2813 131.858 10.1135 131.856 9.94411V9.84611C131.856 9.44511 131.721 9.13211 131.45 8.90811C131.189 8.68411 130.824 8.57211 130.357 8.57211C129.909 8.57211 129.518 8.67511 129.182 8.88011C128.831 9.10043 128.534 9.39714 128.314 9.74812L127.124 8.68411C127.292 8.46011 127.479 8.25012 127.684 8.05412C127.899 7.84912 128.137 7.67612 128.398 7.53612C128.669 7.38712 128.967 7.27011 129.294 7.18611C129.621 7.10211 129.994 7.06011 130.414 7.06011C130.909 7.06011 131.36 7.12111 131.771 7.24211C132.191 7.35411 132.547 7.52212 132.836 7.74612C133.135 7.97012 133.362 8.24111 133.521 8.55811C133.689 8.86611 133.773 9.21612 133.773 9.60812C133.778 9.89549 133.725 10.1809 133.62 10.4481C133.522 10.6917 133.379 10.9149 133.2 11.1061C133.029 11.2953 132.825 11.4518 132.598 11.5681C132.374 11.6891 132.131 11.7781 131.87 11.8341V11.9041C132.159 11.9601 132.43 12.0531 132.682 12.1841C132.934 12.3051 133.153 12.4641 133.34 12.6601C133.527 12.8561 133.676 13.0941 133.788 13.3741C133.904 13.668 133.961 13.9821 133.956 14.2981C133.956 14.7271 133.867 15.1191 133.69 15.4741C133.511 15.8314 133.252 16.1427 132.934 16.3841C132.587 16.6513 132.192 16.8508 131.771 16.9721C131.279 17.1088 130.77 17.1748 130.26 17.1681C129.793 17.1681 129.377 17.1171 129.013 17.0141C128.674 16.931 128.349 16.799 128.047 16.6221C127.78 16.4644 127.535 16.2713 127.32 16.0481C127.121 15.8327 126.939 15.6034 126.773 15.3621L128.132 14.3121C128.365 14.7041 128.641 15.0261 128.958 15.2781C129.285 15.5301 129.728 15.6561 130.288 15.6561C130.848 15.6561 131.277 15.5301 131.576 15.2781C131.884 15.0171 132.038 14.6571 132.038 14.2001V14.0881C132.038 13.6401 131.874 13.2991 131.547 13.0661C131.22 12.8231 130.758 12.7021 130.161 12.7021H129.182V11.1761H130.148V11.1761ZM138.934 17.1681C138.356 17.1681 137.841 17.0981 137.393 16.9581C136.982 16.8284 136.598 16.6244 136.26 16.3561C135.96 16.1152 135.721 15.8086 135.56 15.4601C135.399 15.1039 135.318 14.7169 135.322 14.3261C135.322 13.6821 135.5 13.1641 135.854 12.7721C136.218 12.3801 136.693 12.1051 137.281 11.9461V11.8341C136.807 11.6768 136.385 11.3909 136.064 11.0081C135.766 10.6351 135.616 10.1631 135.616 9.59411C135.612 9.24259 135.688 8.8948 135.838 8.57705C135.988 8.2593 136.209 7.97994 136.484 7.76012C136.764 7.53612 137.11 7.36311 137.52 7.24211C137.98 7.11438 138.456 7.05309 138.934 7.06011C139.466 7.06011 139.938 7.12111 140.348 7.24211C140.723 7.3456 141.075 7.52157 141.383 7.76012C141.659 7.97924 141.88 8.25846 142.03 8.57637C142.181 8.89428 142.256 9.24242 142.252 9.59411C142.252 10.1631 142.097 10.6351 141.789 11.0081C141.491 11.3811 141.09 11.6571 140.586 11.8341V11.9461C141.174 12.1051 141.646 12.3801 142 12.7721C142.364 13.1641 142.546 13.6821 142.546 14.3261C142.546 14.7371 142.466 15.1151 142.307 15.4601C142.146 15.8088 141.907 16.1155 141.607 16.3561C141.269 16.6244 140.885 16.8284 140.474 16.9581C140.026 17.0981 139.513 17.1681 138.934 17.1681ZM138.934 15.7401C139.485 15.7401 139.904 15.6191 140.193 15.3761C140.492 15.1241 140.642 14.7791 140.642 14.3401V14.0601C140.642 13.6121 140.498 13.2671 140.208 13.0241C139.919 12.7721 139.494 12.6461 138.934 12.6461C138.374 12.6461 137.949 12.7721 137.659 13.0241C137.37 13.2671 137.226 13.6121 137.226 14.0601V14.3401C137.226 14.7791 137.37 15.1241 137.659 15.3761C137.958 15.6191 138.384 15.7401 138.934 15.7401ZM138.934 11.2881C139.448 11.2881 139.839 11.1711 140.109 10.9381C140.38 10.7051 140.516 10.3831 140.516 9.97211V9.77612C140.516 9.37512 140.38 9.06211 140.109 8.83811C139.839 8.60511 139.448 8.48811 138.934 8.48811C138.421 8.48811 138.029 8.60511 137.758 8.83811C137.488 9.06211 137.352 9.37512 137.352 9.77612V9.97211C137.352 10.3831 137.488 10.7051 137.758 10.9381C138.029 11.1711 138.421 11.2881 138.934 11.2881Z" fill="#545454"/>
</svg>
