<svg width="24" height="24" viewBox="0 0 24 24" fill="none" xmlns="http://www.w3.org/2000/svg">
<path fill-rule="evenodd" clip-rule="evenodd" d="M12 4C7.6 4 4 7.6 4 12C4 15.5 6.3 18.5 9.5 19.6C9.9 19.7 10 19.4 10 19.2C10 19 10 18.5 10 17.8C7.8 18.3 7.3 16.8 7.3 16.8C6.9 15.9 6.4 15.6 6.4 15.6C5.7 15.1 6.5 15.1 6.5 15.1C7.3 15.2 7.7 15.9 7.7 15.9C8.4 17.2 9.6 16.8 10 16.6C10.1 16.1 10.3 15.7 10.5 15.5C8.7 15.3 6.9 14.6 6.9 11.5C6.9 10.6 7.2 9.9 7.7 9.4C7.6 9.2 7.3 8.4 7.8 7.3C7.8 7.3 8.5 7.1 10 8.1C10.6 7.9 11.3 7.8 12 7.8C12.7 7.8 13.4 7.9 14 8.1C15.5 7.1 16.2 7.3 16.2 7.3C16.6 8.4 16.4 9.2 16.3 9.4C16.8 10 17.1 10.7 17.1 11.5C17.1 14.6 15.2 15.2 13.4 15.4C13.7 15.8 14 16.3 14 17C14 18.1 14 18.9 14 19.2C14 19.4 14.1 19.7 14.6 19.6C17.8 18.5 20.1 15.5 20.1 12C20 7.6 16.4 4 12 4Z" fill="currentColor"/>
</svg>
