<svg width="24" height="24" viewBox="0 0 24 24" fill="none" xmlns="http://www.w3.org/2000/svg">
<g id="logosandtypes_com" clip-path="url(#clip0_10093_43233)">
<path id="Vector" d="M7.02574 18.662H6.81134L5.74414 17.5948V17.3804L7.37454 15.75H8.50414L8.65454 15.9004V17.03L7.02414 18.6604L7.02574 18.662Z" fill="currentColor"/>
<path id="Vector_2" d="M5.74414 6.59508V6.38068L6.81134 5.31348H7.02574L8.65614 6.94388V8.07348L8.50574 8.22388H7.37614L5.74574 6.59348L5.74414 6.59508Z" fill="currentColor"/>
<path id="Vector_3" d="M15.1359 15.2221H13.5839L13.4543 15.0925V11.4589C13.4543 10.8125 13.1999 10.3117 12.4207 10.2941C12.0191 10.2829 11.5599 10.2941 11.0703 10.3133L10.9967 10.3885V15.0909L10.8671 15.2205H9.31515L9.18555 15.0909V8.88448L9.31515 8.75488H12.8079C14.1647 8.75488 15.2655 9.85568 15.2655 11.2125V15.0925L15.1359 15.2221Z" fill="currentColor"/>
<path id="Vector_4" d="M7.2458 12.8964H1.0378L0.908203 12.7668V11.2116L1.0378 11.082H7.2458L7.3754 11.2116V12.7668L7.2458 12.8964Z" fill="currentColor"/>
<path id="Vector_5" d="M23.4138 12.8964H17.2058L17.0762 12.7668V11.2116L17.2058 11.082H23.4138L23.5434 11.2116V12.7668L23.4138 12.8964Z" fill="currentColor"/>
<path id="Vector_6" d="M11.332 6.81587V2.15987L11.4616 2.03027H13.0168L13.1464 2.15987V6.81587L13.0168 6.94547H11.4616L11.332 6.81587Z" fill="currentColor"/>
<path id="Vector_7" d="M11.332 21.8178V17.1618L11.4616 17.0322H13.0168L13.1464 17.1618V21.8178L13.0168 21.9474H11.4616L11.332 21.8178Z" fill="currentColor"/>
</g>
<defs>
<clipPath id="clip0_10093_43233">
<rect width="24" height="24" fill="currentColor"/>
</clipPath>
</defs>
</svg>
