<svg width="110" height="24" viewBox="0 0 110 24" fill="none" xmlns="http://www.w3.org/2000/svg">
<rect width="110" height="24" fill="#D9EEF2"/>
<circle cx="12" cy="12" r="11" fill="#D9EEF2" stroke="white" stroke-width="2"/>
<circle cx="12" cy="12" r="4" fill="white"/>
<path d="M38.242 17.168C37.6727 17.168 37.164 17.0793 36.716 16.902C36.2773 16.7153 35.904 16.4587 35.596 16.132C35.288 15.796 35.05 15.3947 34.882 14.928C34.7233 14.452 34.644 13.92 34.644 13.332C34.644 12.632 34.7513 11.974 34.966 11.358C35.1807 10.7327 35.456 10.1633 35.792 9.65C36.1373 9.12733 36.52 8.66067 36.94 8.25C37.36 7.83933 37.78 7.49867 38.2 7.228H40.692C40.104 7.63867 39.5767 8.03533 39.11 8.418C38.6527 8.79133 38.2513 9.174 37.906 9.566C37.57 9.958 37.2853 10.3687 37.052 10.798C36.828 11.218 36.66 11.68 36.548 12.184L36.66 12.212C36.7533 12.0253 36.8653 11.848 36.996 11.68C37.1267 11.5027 37.2807 11.3487 37.458 11.218C37.6447 11.078 37.8547 10.9707 38.088 10.896C38.3307 10.812 38.6107 10.77 38.928 10.77C39.3387 10.77 39.7213 10.84 40.076 10.98C40.4307 11.12 40.734 11.3253 40.986 11.596C41.2473 11.8573 41.4527 12.1747 41.602 12.548C41.7513 12.9213 41.826 13.3413 41.826 13.808C41.826 14.3027 41.742 14.7553 41.574 15.166C41.406 15.5767 41.1633 15.9313 40.846 16.23C40.538 16.5287 40.16 16.762 39.712 16.93C39.2733 17.0887 38.7833 17.168 38.242 17.168ZM38.228 15.726C38.788 15.726 39.2127 15.5813 39.502 15.292C39.7913 14.9933 39.936 14.5733 39.936 14.032V13.864C39.936 13.3227 39.7867 12.9073 39.488 12.618C39.1987 12.3287 38.7787 12.184 38.228 12.184C37.696 12.184 37.2807 12.3287 36.982 12.618C36.6833 12.9073 36.534 13.3227 36.534 13.864V14.032C36.534 14.5733 36.6787 14.9933 36.968 15.292C37.2573 15.5813 37.6773 15.726 38.228 15.726ZM49.6465 8.824H45.1665L44.9285 12.1H45.0405C45.1525 11.8947 45.2739 11.708 45.4045 11.54C45.5352 11.3627 45.6845 11.2133 45.8525 11.092C46.0299 10.9707 46.2259 10.8773 46.4405 10.812C46.6645 10.7467 46.9212 10.714 47.2105 10.714C47.6212 10.714 48.0085 10.784 48.3725 10.924C48.7365 11.064 49.0539 11.2647 49.3245 11.526C49.5952 11.7873 49.8052 12.1093 49.9545 12.492C50.1132 12.8747 50.1925 13.3087 50.1925 13.794C50.1925 14.2793 50.1085 14.7273 49.9405 15.138C49.7819 15.5487 49.5439 15.908 49.2265 16.216C48.9185 16.5147 48.5359 16.748 48.0785 16.916C47.6305 17.084 47.1125 17.168 46.5245 17.168C46.0672 17.168 45.6565 17.1167 45.2925 17.014C44.9379 16.9207 44.6252 16.79 44.3545 16.622C44.0839 16.454 43.8459 16.2627 43.6405 16.048C43.4352 15.824 43.2579 15.5953 43.1085 15.362L44.4385 14.312C44.5505 14.4987 44.6719 14.676 44.8025 14.844C44.9425 15.0027 45.0965 15.1427 45.2645 15.264C45.4325 15.3853 45.6192 15.4833 45.8245 15.558C46.0392 15.6233 46.2819 15.656 46.5525 15.656C47.1125 15.656 47.5372 15.5067 47.8265 15.208C48.1252 14.9 48.2745 14.48 48.2745 13.948V13.836C48.2745 13.3227 48.1252 12.9213 47.8265 12.632C47.5279 12.3427 47.1079 12.198 46.5665 12.198C46.1559 12.198 45.8199 12.2773 45.5585 12.436C45.3065 12.5853 45.1012 12.7487 44.9425 12.926L43.4445 12.716L43.8085 7.228H49.6465V8.824ZM53.1271 17L56.6131 8.726H53.1271V10.518H51.5591V7.228H58.4331V8.824L55.0591 17H53.1271ZM61.5216 17L65.0076 8.726H61.5216V10.518H59.9536V7.228H66.8276V8.824L63.4536 17H61.5216ZM69.6081 13.612V11.862H73.9481V13.612H69.6081ZM80.8867 17V15.11H76.3647V13.542L80.3547 7.228H82.6367V13.682H83.9527V15.11H82.6367V17H80.8867ZM77.8627 13.682H80.8867V9.02H80.7747L77.8627 13.682ZM88.8192 17.168C87.5405 17.168 86.5932 16.7293 85.9772 15.852C85.3705 14.9747 85.0672 13.7287 85.0672 12.114C85.0672 10.5087 85.3705 9.26733 85.9772 8.39C86.5932 7.50333 87.5405 7.06 88.8192 7.06C89.3045 7.06 89.7292 7.12533 90.0932 7.256C90.4665 7.38667 90.7885 7.56867 91.0592 7.802C91.3299 8.026 91.5539 8.30133 91.7312 8.628C91.9085 8.94533 92.0485 9.29533 92.1512 9.678L90.4712 10.154C90.4059 9.93 90.3312 9.72 90.2472 9.524C90.1632 9.328 90.0559 9.16 89.9252 9.02C89.8039 8.87067 89.6499 8.75867 89.4632 8.684C89.2765 8.6 89.0525 8.558 88.7912 8.558C88.1565 8.558 87.6992 8.80067 87.4192 9.286C87.1485 9.77133 87.0132 10.434 87.0132 11.274V12.954C87.0132 13.794 87.1485 14.4567 87.4192 14.942C87.6992 15.4273 88.1565 15.67 88.7912 15.67C89.0525 15.67 89.2765 15.6327 89.4632 15.558C89.6499 15.474 89.8039 15.362 89.9252 15.222C90.0559 15.0727 90.1632 14.9 90.2472 14.704C90.3312 14.508 90.4059 14.298 90.4712 14.074L92.1512 14.55C92.0485 14.9327 91.9085 15.2873 91.7312 15.614C91.5539 15.9313 91.3299 16.2067 91.0592 16.44C90.7885 16.664 90.4665 16.8413 90.0932 16.972C89.7292 17.1027 89.3045 17.168 88.8192 17.168ZM93.8817 7.228H97.2837C98.2077 7.228 98.9171 7.46133 99.4117 7.928C99.9157 8.38533 100.168 9.01067 100.168 9.804C100.168 10.364 100.028 10.812 99.7477 11.148C99.4771 11.484 99.0897 11.7267 98.5857 11.876V11.946C99.1737 12.086 99.6357 12.3427 99.9717 12.716C100.317 13.08 100.49 13.598 100.49 14.27C100.49 14.6807 100.42 15.054 100.28 15.39C100.149 15.7167 99.9577 16.0013 99.7057 16.244C99.4631 16.4867 99.1644 16.6733 98.8097 16.804C98.4644 16.9347 98.0724 17 97.6337 17H93.8817V7.228ZM97.0737 15.67C97.5871 15.67 97.9697 15.5767 98.2217 15.39C98.4831 15.194 98.6137 14.8627 98.6137 14.396V13.934C98.6137 13.4767 98.4831 13.1547 98.2217 12.968C97.9697 12.772 97.5871 12.674 97.0737 12.674H95.6737V15.67H97.0737ZM96.8357 11.4C97.3304 11.4 97.6944 11.3113 97.9277 11.134C98.1704 10.9567 98.2917 10.6487 98.2917 10.21V9.748C98.2917 9.30933 98.1704 9.00133 97.9277 8.824C97.6944 8.64667 97.3304 8.558 96.8357 8.558H95.6737V11.4H96.8357ZM102.318 17V7.228H108.492V8.74H104.152V11.288H108.338V12.8H104.152V15.488H108.492V17H102.318Z" fill="white"/>
</svg>
