<svg width="144" height="24" viewBox="0 0 144 24" fill="none" xmlns="http://www.w3.org/2000/svg">
<rect width="144" height="24" fill="#D9EEF2"/>
<circle cx="12" cy="12" r="11" fill="#D9EEF2" stroke="white" stroke-width="2"/>
<circle cx="12" cy="12" r="4" fill="white"/>
<path d="M38.914 17V15.11H34.392V13.542L38.382 7.228H40.664V13.682H41.98V15.11H40.664V17H38.914ZM35.89 13.682H38.914V9.02H38.802L35.89 13.682ZM46.8465 17.168C45.5679 17.168 44.6205 16.7293 44.0045 15.852C43.3979 14.9747 43.0945 13.7287 43.0945 12.114C43.0945 10.5087 43.3979 9.26733 44.0045 8.39C44.6205 7.50333 45.5679 7.06 46.8465 7.06C47.3319 7.06 47.7565 7.12533 48.1205 7.256C48.4939 7.38667 48.8159 7.56867 49.0865 7.802C49.3572 8.026 49.5812 8.30133 49.7585 8.628C49.9359 8.94533 50.0759 9.29533 50.1785 9.678L48.4985 10.154C48.4332 9.93 48.3585 9.72 48.2745 9.524C48.1905 9.328 48.0832 9.16 47.9525 9.02C47.8312 8.87067 47.6772 8.75867 47.4905 8.684C47.3039 8.6 47.0799 8.558 46.8185 8.558C46.1839 8.558 45.7265 8.80067 45.4465 9.286C45.1759 9.77133 45.0405 10.434 45.0405 11.274V12.954C45.0405 13.794 45.1759 14.4567 45.4465 14.942C45.7265 15.4273 46.1839 15.67 46.8185 15.67C47.0799 15.67 47.3039 15.6327 47.4905 15.558C47.6772 15.474 47.8312 15.362 47.9525 15.222C48.0832 15.0727 48.1905 14.9 48.2745 14.704C48.3585 14.508 48.4332 14.298 48.4985 14.074L50.1785 14.55C50.0759 14.9327 49.9359 15.2873 49.7585 15.614C49.5812 15.9313 49.3572 16.2067 49.0865 16.44C48.8159 16.664 48.4939 16.8413 48.1205 16.972C47.7565 17.1027 47.3319 17.168 46.8465 17.168ZM51.8111 7.228H54.8491C56.1184 7.228 57.0611 7.648 57.6771 8.488C58.3024 9.328 58.6151 10.5367 58.6151 12.114C58.6151 13.7007 58.3024 14.914 57.6771 15.754C57.0611 16.5847 56.1184 17 54.8491 17H51.8111V7.228ZM54.7231 15.53C55.3951 15.53 55.8897 15.3107 56.2071 14.872C56.5337 14.4333 56.6971 13.794 56.6971 12.954V11.26C56.6971 10.4293 56.5337 9.79467 56.2071 9.356C55.8897 8.91733 55.3951 8.698 54.7231 8.698H53.6171V15.53H54.7231ZM66.8836 17H59.9956V15.292L63.1316 12.618C63.6543 12.17 64.0416 11.764 64.2936 11.4C64.5456 11.0267 64.6716 10.63 64.6716 10.21V10.07C64.6716 9.60333 64.5409 9.24867 64.2796 9.006C64.0183 8.76333 63.6543 8.642 63.1876 8.642C62.6743 8.642 62.2823 8.782 62.0116 9.062C61.7409 9.342 61.5449 9.68733 61.4236 10.098L59.8276 9.496C59.9303 9.17867 60.0749 8.87533 60.2616 8.586C60.4576 8.28733 60.6956 8.026 60.9756 7.802C61.2649 7.578 61.6056 7.40067 61.9976 7.27C62.3896 7.13 62.8376 7.06 63.3416 7.06C63.8643 7.06 64.3263 7.13467 64.7276 7.284C65.1383 7.424 65.4836 7.62467 65.7636 7.886C66.0436 8.138 66.2536 8.44133 66.3936 8.796C66.5429 9.15067 66.6176 9.538 66.6176 9.958C66.6176 10.3593 66.5523 10.728 66.4216 11.064C66.3003 11.4 66.1276 11.722 65.9036 12.03C65.6796 12.3287 65.4136 12.618 65.1056 12.898C64.8069 13.178 64.4803 13.458 64.1256 13.738L61.9976 15.46H66.8836V17ZM71.7781 17.168C71.1435 17.168 70.5928 17.056 70.1261 16.832C69.6595 16.5987 69.2721 16.2673 68.9641 15.838C68.6655 15.4087 68.4415 14.8813 68.2921 14.256C68.1521 13.6307 68.0821 12.9167 68.0821 12.114C68.0821 11.3207 68.1521 10.6113 68.2921 9.986C68.4415 9.35133 68.6655 8.81933 68.9641 8.39C69.2721 7.96067 69.6595 7.634 70.1261 7.41C70.5928 7.17667 71.1435 7.06 71.7781 7.06C73.0475 7.06 73.9808 7.50333 74.5781 8.39C75.1755 9.27667 75.4741 10.518 75.4741 12.114C75.4741 13.71 75.1755 14.9513 74.5781 15.838C73.9808 16.7247 73.0475 17.168 71.7781 17.168ZM71.7781 15.698C72.4501 15.698 72.9215 15.46 73.1921 14.984C73.4721 14.4987 73.6121 13.8313 73.6121 12.982V11.246C73.6121 10.3967 73.4721 9.734 73.1921 9.258C72.9215 8.77267 72.4501 8.53 71.7781 8.53C71.1061 8.53 70.6301 8.77267 70.3501 9.258C70.0795 9.734 69.9441 10.3967 69.9441 11.246V12.982C69.9441 13.8313 70.0795 14.4987 70.3501 14.984C70.6301 15.46 71.1061 15.698 71.7781 15.698ZM71.7781 12.94C71.4515 12.94 71.2228 12.8747 71.0921 12.744C70.9708 12.6133 70.9101 12.4547 70.9101 12.268V11.96C70.9101 11.7733 70.9708 11.6147 71.0921 11.484C71.2228 11.3533 71.4515 11.288 71.7781 11.288C72.1048 11.288 72.3288 11.3533 72.4501 11.484C72.5808 11.6147 72.6461 11.7733 72.6461 11.96V12.268C72.6461 12.4547 72.5808 12.6133 72.4501 12.744C72.3288 12.8747 72.1048 12.94 71.7781 12.94ZM83.6727 17H76.7847V15.292L79.9207 12.618C80.4433 12.17 80.8307 11.764 81.0827 11.4C81.3347 11.0267 81.4607 10.63 81.4607 10.21V10.07C81.4607 9.60333 81.33 9.24867 81.0687 9.006C80.8073 8.76333 80.4433 8.642 79.9767 8.642C79.4633 8.642 79.0713 8.782 78.8007 9.062C78.53 9.342 78.334 9.68733 78.2127 10.098L76.6167 9.496C76.7193 9.17867 76.864 8.87533 77.0507 8.586C77.2467 8.28733 77.4847 8.026 77.7647 7.802C78.054 7.578 78.3947 7.40067 78.7867 7.27C79.1787 7.13 79.6267 7.06 80.1307 7.06C80.6533 7.06 81.1153 7.13467 81.5167 7.284C81.9273 7.424 82.2727 7.62467 82.5527 7.886C82.8327 8.138 83.0427 8.44133 83.1827 8.796C83.332 9.15067 83.4067 9.538 83.4067 9.958C83.4067 10.3593 83.3413 10.728 83.2107 11.064C83.0893 11.4 82.9167 11.722 82.6927 12.03C82.4687 12.3287 82.2027 12.618 81.8947 12.898C81.596 13.178 81.2693 13.458 80.9147 13.738L78.7867 15.46H83.6727V17ZM86.3972 13.612V11.862H90.7372V13.612H86.3972ZM94.0357 17V15.502H96.7237V8.558H96.5977L94.4697 11.078L93.3217 10.112L95.7437 7.228H98.5577V15.502H100.77V17H94.0357ZM102.318 17V7.228H108.702V8.74H104.152V11.288H108.254V12.8H104.152V17H102.318ZM117.251 17H110.363V15.292L113.499 12.618C114.021 12.17 114.409 11.764 114.661 11.4C114.913 11.0267 115.039 10.63 115.039 10.21V10.07C115.039 9.60333 114.908 9.24867 114.647 9.006C114.385 8.76333 114.021 8.642 113.555 8.642C113.041 8.642 112.649 8.782 112.379 9.062C112.108 9.342 111.912 9.68733 111.791 10.098L110.195 9.496C110.297 9.17867 110.442 8.87533 110.629 8.586C110.825 8.28733 111.063 8.026 111.343 7.802C111.632 7.578 111.973 7.40067 112.365 7.27C112.757 7.13 113.205 7.06 113.709 7.06C114.231 7.06 114.693 7.13467 115.095 7.284C115.505 7.424 115.851 7.62467 116.131 7.886C116.411 8.138 116.621 8.44133 116.761 8.796C116.91 9.15067 116.985 9.538 116.985 9.958C116.985 10.3593 116.919 10.728 116.789 11.064C116.667 11.4 116.495 11.722 116.271 12.03C116.047 12.3287 115.781 12.618 115.473 12.898C115.174 13.178 114.847 13.458 114.493 13.738L112.365 15.46H117.251V17ZM118.967 7.228H122.005C123.275 7.228 124.217 7.648 124.833 8.488C125.459 9.328 125.771 10.5367 125.771 12.114C125.771 13.7007 125.459 14.914 124.833 15.754C124.217 16.5847 123.275 17 122.005 17H118.967V7.228ZM121.879 15.53C122.551 15.53 123.046 15.3107 123.363 14.872C123.69 14.4333 123.853 13.794 123.853 12.954V11.26C123.853 10.4293 123.69 9.79467 123.363 9.356C123.046 8.91733 122.551 8.698 121.879 8.698H120.773V15.53H121.879ZM130.148 11.176C130.736 11.176 131.165 11.0593 131.436 10.826C131.716 10.5927 131.856 10.2987 131.856 9.944V9.846C131.856 9.44467 131.721 9.132 131.45 8.908C131.189 8.684 130.825 8.572 130.358 8.572C129.91 8.572 129.518 8.67467 129.182 8.88C128.846 9.08533 128.557 9.37467 128.314 9.748L127.124 8.684C127.292 8.46 127.479 8.25 127.684 8.054C127.899 7.84867 128.137 7.676 128.398 7.536C128.669 7.38667 128.967 7.27 129.294 7.186C129.621 7.102 129.994 7.06 130.414 7.06C130.909 7.06 131.361 7.12067 131.772 7.242C132.192 7.354 132.547 7.522 132.836 7.746C133.135 7.97 133.363 8.24067 133.522 8.558C133.69 8.866 133.774 9.216 133.774 9.608C133.774 9.916 133.723 10.196 133.62 10.448C133.517 10.7 133.377 10.9193 133.2 11.106C133.032 11.2927 132.831 11.4467 132.598 11.568C132.374 11.6893 132.131 11.778 131.87 11.834V11.904C132.159 11.96 132.43 12.0533 132.682 12.184C132.934 12.3053 133.153 12.464 133.34 12.66C133.527 12.856 133.676 13.094 133.788 13.374C133.9 13.6447 133.956 13.9527 133.956 14.298C133.956 14.7273 133.867 15.1193 133.69 15.474C133.513 15.8287 133.261 16.132 132.934 16.384C132.617 16.636 132.229 16.832 131.772 16.972C131.324 17.1027 130.82 17.168 130.26 17.168C129.793 17.168 129.378 17.1167 129.014 17.014C128.65 16.9207 128.328 16.79 128.048 16.622C127.768 16.454 127.525 16.2627 127.32 16.048C127.115 15.824 126.933 15.5953 126.774 15.362L128.132 14.312C128.365 14.704 128.641 15.026 128.958 15.278C129.285 15.53 129.728 15.656 130.288 15.656C130.848 15.656 131.277 15.53 131.576 15.278C131.884 15.0167 132.038 14.6573 132.038 14.2V14.088C132.038 13.64 131.875 13.2993 131.548 13.066C131.221 12.8233 130.759 12.702 130.162 12.702H129.182V11.176H130.148ZM136.008 17V15.502H138.696V8.558H138.57L136.442 11.078L135.294 10.112L137.716 7.228H140.53V15.502H142.742V17H136.008Z" fill="white"/>
</svg>
