<svg xmlns="http://www.w3.org/2000/svg" width="14" height="14" viewBox="0 0 14 14" fill="none"><g fill="currentColor" clip-path="url(#a)"><path d="M1.75 0H.583A.583.583 0 0 0 0 .583v12.834c0 .322.261.583.583.583H1.75a.583.583 0 0 0 .583-.583V.583A.583.583 0 0 0 1.75 0ZM13.422 0h-1.167a.583.583 0 0 0-.583.583v12.834c0 .322.261.583.583.583h1.167a.583.583 0 0 0 .583-.583V.583A.583.583 0 0 0 13.422 0ZM8.755 4.667h-3.5a.583.583 0 0 0-.583.583v3.5c0 .322.261.583.583.583h3.5a.583.583 0 0 0 .584-.583v-3.5a.583.583 0 0 0-.584-.583Z"/></g><defs><clipPath id="a"><path fill="currentColor" d="M0 0h14v14H0z"/></clipPath></defs></svg>
