<svg xmlns="http://www.w3.org/2000/svg" width="14" height="14" viewBox="0 0 14 14" fill="none"><g clip-path="url(#a)"><path fill="currentColor" d="m13.495 4.258-.875-1.516a.437.437 0 0 0-.558-.18l-1.873.845a4.792 4.792 0 0 0-1.679-.973L8.308.394A.438.438 0 0 0 7.871 0H6.12a.437.437 0 0 0-.438.394l-.202 2.04a4.792 4.792 0 0 0-1.68.973L1.93 2.562a.437.437 0 0 0-.558.18L.496 4.258a.437.437 0 0 0 .124.574l1.662 1.195a4.837 4.837 0 0 0 0 1.946L.62 9.168a.437.437 0 0 0-.124.574l.875 1.516a.438.438 0 0 0 .558.18l1.873-.845a4.794 4.794 0 0 0 1.679.973l.202 2.04a.438.438 0 0 0 .438.394h1.75a.437.437 0 0 0 .437-.394l.204-2.04a4.795 4.795 0 0 0 1.68-.973l1.872.845a.437.437 0 0 0 .558-.18l.875-1.516a.437.437 0 0 0-.123-.574L11.71 7.973a4.835 4.835 0 0 0 0-1.946l1.662-1.195a.437.437 0 0 0 .122-.574Zm-6.5 4.492a1.75 1.75 0 1 1 0-3.5 1.75 1.75 0 0 1 0 3.5Z"/></g><defs><clipPath id="a"><path fill="currentColor" d="M0 0h14v14H0z"/></clipPath></defs></svg>
