<svg xmlns="http://www.w3.org/2000/svg" width="14" height="14" viewBox="0 0 14 14" fill="none"><g fill="currentColor" clip-path="url(#a)"><path d="M3.411 10.588a1.8 1.8 0 0 0-2.543 0c-.613.612-.829 2.548-.866 2.93a.438.438 0 0 0 .39.482h.086c.382-.037 2.32-.254 2.93-.865a1.802 1.802 0 0 0 .003-2.547ZM13.994.461a.437.437 0 0 0-.46-.46A12.619 12.619 0 0 0 7.39 1.913a5.182 5.182 0 0 0-6.346 2.213.438.438 0 0 0 .069.53L2.925 6.47c-.285.45-.537.92-.756 1.406a.437.437 0 0 0 .097.473l3.378 3.377a.438.438 0 0 0 .475.097c.484-.219.952-.472 1.4-.756l1.82 1.82a.437.437 0 0 0 .524.068 5.186 5.186 0 0 0 2.206-6.38A12.703 12.703 0 0 0 13.994.46ZM7.87 7.438a1.313 1.313 0 1 1 0-2.625 1.313 1.313 0 0 1 0 2.625Z"/></g><defs><clipPath id="a"><path fill="currentColor" d="M0 0h14v14H0z"/></clipPath></defs></svg>
