<svg width="36" height="36" viewBox="0 0 36 36" fill="none" xmlns="http://www.w3.org/2000/svg">
<path fill-rule="evenodd" clip-rule="evenodd" d="M12.8718 4.36777C16.7229 0.0408485 23.1004 -1.22845 28.3435 1.26911C35.3096 4.58784 37.851 13.0419 34.0584 19.5631L25.5264 34.2171C25.0495 35.0359 24.2649 35.6334 23.3449 35.8783C22.4248 36.1231 21.4445 35.9955 20.6192 35.5232L30.9487 17.7786C33.7004 13.0456 31.8599 6.91063 26.8094 4.49513C23.02 2.68282 18.3875 3.58817 15.588 6.70494C14.0438 8.41596 13.1768 10.625 13.1479 12.9225C13.119 15.22 13.9302 17.4498 15.4308 19.1987C15.7004 19.5125 15.9907 19.8083 16.2996 20.0843L10.2692 30.462C10.0334 30.8676 9.71945 31.2233 9.34523 31.5084C8.97103 31.7937 8.54391 32.0029 8.08829 32.1241C7.63266 32.2454 7.15744 32.2764 6.68976 32.2153C6.22208 32.1542 5.7711 32.0023 5.36256 31.768L11.9091 20.5015C10.9687 19.1553 10.2935 17.6444 9.91884 16.0488L5.90721 22.9666C5.43034 23.7854 4.64575 24.3829 3.72569 24.6278C2.80564 24.8726 1.82532 24.745 1 24.2726L11.3741 6.42839C11.8059 5.69559 12.3074 5.00556 12.8718 4.36777ZM24.8455 10.0477C27.3439 11.4805 28.2067 14.6671 26.7611 17.1471L16.8131 34.215C16.3362 35.0339 15.5516 35.6313 14.6316 35.8762C13.7115 36.1211 12.7312 35.9933 11.9058 35.5211L21.1429 19.6308C20.4017 19.4759 19.7033 19.1631 19.0958 18.714C18.4882 18.2649 17.986 17.6902 17.624 17.0296C17.2618 16.369 17.0484 15.6383 16.9984 14.8878C16.9484 14.1373 17.063 13.385 17.3343 12.6828C17.6057 11.9806 18.0272 11.3451 18.5699 10.8205C19.1125 10.2958 19.7634 9.89438 20.4775 9.64385C21.1917 9.39331 21.952 9.29967 22.7061 9.36938C23.4603 9.4391 24.1902 9.67051 24.8455 10.0477ZM21.227 13.2553C21.056 13.3856 20.9125 13.5481 20.8048 13.7335C20.6425 14.0127 20.5668 14.3335 20.588 14.6552C20.6093 14.9768 20.7261 15.2851 20.9238 15.5408C21.1215 15.7965 21.391 15.9883 21.6985 16.0919C22.0059 16.1956 22.3373 16.2063 22.6509 16.1229C22.9645 16.0393 23.2461 15.8655 23.4601 15.6231C23.6741 15.3806 23.811 15.0807 23.8534 14.7611C23.8958 14.4415 23.8418 14.1165 23.6982 13.8274C23.5546 13.5383 23.3279 13.2979 23.0468 13.1367C22.8601 13.0296 22.6541 12.9602 22.4404 12.9322C22.2266 12.9044 22.0095 12.9184 21.8013 12.9739C21.5931 13.0293 21.398 13.1249 21.227 13.2553Z" fill="#615EFF"/>
</svg>
