<svg width="32" height="32" viewBox="0 0 32 32" fill="none" xmlns="http://www.w3.org/2000/svg">
<g clip-path="url(#clip0_7859_10621)">
<path d="M4.01426 22.6449V10.7119L1 9.17625V24.5141L16.0713 31.9996L31.1426 24.5141V9.1748L28.1283 10.7103V22.6449L16.0713 28.6351L4.01426 22.6449Z" fill="#4285F4"/>
<path d="M31.1419 7.48522L16.0713 0L1 7.48558V7.48645L4.34496 9.19053L16.0713 3.36452L27.7962 9.1898L31.1419 7.48522Z" fill="#4285F4"/>
<path d="M8.51902 13.011L5.51562 11.4814V21.7592L8.51902 23.2195V13.011Z" fill="#669DF6"/>
<path d="M23.6123 13.011L26.6157 11.4814V21.7592L23.6123 23.2195V13.011Z" fill="#669DF6"/>
<path d="M23.071 11.5815L26.1431 10.0232L16.0714 5.03711L5.97461 10.0232L9.04655 11.5815L16.0588 8.11347L23.071 11.5815Z" fill="#AECBFA"/>
<path d="M10.0312 12.7617V15.4744L16.0716 18.5511L22.0951 15.4744V12.7869L16.0589 9.79297L10.0312 12.7617Z" fill="#AECBFA"/>
<path d="M10.0449 20.6252L16.0581 23.5973L22.0943 20.6137V17.1748L16.0581 20.2349L10.0449 17.2261V20.6252Z" fill="#669DF6"/>
</g>
<defs>
<clipPath id="clip0_7859_10621">
<rect width="32" height="32" fill="white"/>
</clipPath>
</defs>
</svg>
