<svg width="33" height="32" viewBox="0 0 33 32" fill="none" xmlns="http://www.w3.org/2000/svg">
<g clip-path="url(#clip0_7859_10630)">
<path d="M4.90293 22.6449V10.7119L1.88867 9.17625V24.5141L16.96 31.9996L32.0313 24.5141V9.1748L29.017 10.7103V22.6449L16.96 28.6351L4.90293 22.6449Z" fill="#4285F4"/>
<path d="M32.0306 7.48522L16.96 0L1.88867 7.48558V7.48645L5.23363 9.19053L16.96 3.36452L28.6849 9.1898L32.0306 7.48522Z" fill="#4285F4"/>
<path d="M9.40769 13.011L6.4043 11.4814V21.7592L9.40769 23.2195V13.011Z" fill="#669DF6"/>
<path d="M24.501 13.011L27.5044 11.4814V21.7592L24.501 23.2195V13.011Z" fill="#669DF6"/>
<path d="M23.9596 11.5815L27.0317 10.0232L16.9601 5.03711L6.86328 10.0232L9.93522 11.5815L16.9474 8.11347L23.9596 11.5815Z" fill="#AECBFA"/>
<path d="M10.9199 12.7617V15.4744L16.9603 18.5511L22.9838 15.4744V12.7869L16.9476 9.79297L10.9199 12.7617Z" fill="#AECBFA"/>
<path d="M10.9336 20.6252L16.9468 23.5973L22.983 20.6137V17.1748L16.9468 20.2349L10.9336 17.2261V20.6252Z" fill="#669DF6"/>
</g>
<defs>
<clipPath id="clip0_7859_10630">
<rect width="32" height="32" fill="white" transform="translate(0.888672)"/>
</clipPath>
</defs>
</svg>
