<svg width="29" height="36" viewBox="0 0 29 36" fill="none" xmlns="http://www.w3.org/2000/svg">
<g clip-path="url(#clip0_22179_7350)">
<path d="M8.8827 30.0432C7.11646 28.45 6.60089 25.1024 7.33675 22.6772C8.61265 24.2063 10.3805 24.6906 12.2117 24.9641C15.0387 25.386 17.8149 25.2282 20.441 23.9531C20.7415 23.8071 21.0191 23.613 21.3474 23.4164C21.5938 24.1219 21.6579 24.8341 21.5718 25.559C21.3625 27.3243 20.4723 28.688 19.0563 29.7217C18.49 30.1352 17.8909 30.5048 17.3061 30.8947C15.5095 32.093 15.0234 33.498 15.6985 35.5419C15.7146 35.5916 15.7289 35.6414 15.7652 35.7629C14.8479 35.3579 14.1779 34.768 13.6674 33.9925C13.1281 33.174 12.8716 32.2685 12.8581 31.2888C12.8514 30.812 12.8514 30.331 12.7864 29.861C12.6277 28.715 12.0826 28.202 11.0556 28.1724C10.0017 28.142 9.16792 28.7851 8.94681 29.7977C8.92995 29.8753 8.90548 29.9521 8.88101 30.0424L8.8827 30.0432Z" fill="#18191B"/>
<path d="M0 23.4197C0 23.4197 4.82942 21.0729 9.67233 21.0729L13.3237 9.80061C13.4604 9.25546 13.8596 8.88503 14.3102 8.88503C14.7608 8.88503 15.16 9.25546 15.2967 9.80061L18.948 21.0729C24.6838 21.0729 28.6204 23.4197 28.6204 23.4197C28.6204 23.4197 20.4172 1.12824 20.4012 1.08352C20.1657 0.424462 19.7683 0 19.2324 0H9.3888C8.85295 0 8.47153 0.424462 8.22003 1.08352C8.2023 1.1274 0 23.4197 0 23.4197Z" fill="#18191B"/>
</g>
<defs>
<clipPath id="clip0_22179_7350">
<rect width="28.7089" height="36" fill="white"/>
</clipPath>
</defs>
</svg>
