<svg width="36" height="36" viewBox="0 0 36 36" fill="none" xmlns="http://www.w3.org/2000/svg">
<path d="M12.5719 30.161C10.8057 28.5678 10.2901 25.2202 11.026 22.7949C12.3019 24.324 14.0697 24.8084 15.9009 25.0818C18.7279 25.5037 21.5041 25.3459 24.1302 24.0708C24.4307 23.9249 24.7083 23.7307 25.0366 23.5342C25.283 24.2396 25.3471 24.9518 25.261 25.6767C25.0517 27.4421 24.1615 28.8057 22.7455 29.8395C22.1793 30.2529 21.5801 30.6226 20.9953 31.0124C19.1987 32.2107 18.7126 33.6157 19.3878 35.6596C19.4038 35.7094 19.4181 35.7592 19.4544 35.8806C18.5372 35.4756 17.8671 34.8858 17.3566 34.1102C16.8174 33.2917 16.5608 32.3862 16.5473 31.4065C16.5406 30.9297 16.5406 30.4487 16.4756 29.9787C16.317 28.8328 15.7718 28.3197 14.7448 28.2901C13.6909 28.2598 12.8571 28.9028 12.636 29.9154C12.6192 29.9931 12.5947 30.0698 12.5702 30.1601L12.5719 30.161Z" fill="#18191B"/>
<path d="M3.6897 23.5388C3.6897 23.5388 8.51912 21.192 13.362 21.192L17.0134 9.91975C17.1501 9.3746 17.5493 9.00417 17.9999 9.00417C18.4505 9.00417 18.8497 9.3746 18.9864 9.91975L22.6377 21.192C28.3735 21.192 32.3101 23.5388 32.3101 23.5388C32.3101 23.5388 24.1069 1.24738 24.0909 1.20266C23.8554 0.543603 23.458 0.119141 22.9221 0.119141H13.0785C12.5426 0.119141 12.1612 0.543603 11.9097 1.20266C11.892 1.24654 3.6897 23.5388 3.6897 23.5388Z" fill="#18191B"/>
</svg>
