<svg width="32" height="32" viewBox="0 0 32 32" fill="none" xmlns="http://www.w3.org/2000/svg">
    <g clip-path="url(#clip0_10616_11824)">
        <path
            d="M30 0H2C0.895431 0 0 0.895431 0 2V30C0 31.1046 0.895431 32 2 32H30C31.1046 32 32 31.1046 32 30V2C32 0.895431 31.1046 0 30 0Z"
            fill="url(#paint0_linear_10616_11824)" />
        <path fill-rule="evenodd" clip-rule="evenodd"
            d="M18.0368 7.21825H16.8336V6.41103H18.0368V5.2002H18.839V6.41103H20.0422V7.21825H18.839V8.42908H18.0368V7.21825ZM22.8497 11.658H21.6465V10.8507H22.8497V9.63991H23.6518V10.8507H24.8551V11.658H23.6518V12.8688H22.8497V11.658ZM20.7609 24.4136C19.9949 22.4674 18.2269 20.6883 16.2922 19.917C18.2269 19.1461 19.9949 17.367 20.7609 15.4204C21.527 17.367 23.2949 19.1461 25.2293 19.917C23.2949 20.6883 21.527 22.4674 20.7609 24.4136ZM27.1993 19.5134C24.3782 19.5134 21.162 16.2769 21.162 13.4379C21.162 13.2151 20.9827 13.0343 20.7609 13.0343C20.5391 13.0343 20.3598 13.2151 20.3598 13.4379C20.3598 16.2769 17.1432 19.5134 14.3221 19.5134C14.1007 19.5134 13.921 19.6942 13.921 19.917C13.921 20.1402 14.1007 20.3206 14.3221 20.3206C17.1432 20.3206 20.3598 23.5572 20.3598 26.3966C20.3598 26.6194 20.5391 26.8002 20.7609 26.8002C20.9827 26.8002 21.162 26.6194 21.162 26.3966C21.162 23.5572 24.3782 20.3206 27.1993 20.3206C27.4207 20.3206 27.6004 20.1402 27.6004 19.917C27.6004 19.6942 27.4207 19.5134 27.1993 19.5134ZM5.20253 11.5615C6.37046 12.4163 8.63972 12.8688 10.8175 12.8688C12.9954 12.8688 15.2646 12.4163 16.4325 11.5615V15.4273C15.8546 16.2006 13.7293 16.9626 10.8978 16.9626C7.63824 16.9626 5.20253 15.9374 5.20253 15.0208V11.5615ZM10.8175 8.42908C14.2964 8.42908 16.4325 9.48694 16.4325 10.2453C16.4325 11.0037 14.2964 12.0616 10.8175 12.0616C7.33864 12.0616 5.20253 11.0037 5.20253 10.2453C5.20253 9.48694 7.33864 8.42908 10.8175 8.42908ZM16.4325 23.577C16.4325 24.5073 14.0305 25.5482 10.8155 25.5482C7.60295 25.5482 5.20253 24.5073 5.20253 23.577V20.9979C6.38489 21.9004 8.69948 22.3782 10.9206 22.3782C12.4651 22.3782 13.9587 22.1587 15.1247 21.7599L14.8672 20.9955C13.7819 21.3664 12.3801 21.571 10.9206 21.571C7.64787 21.571 5.20253 20.5459 5.20253 19.6293V16.3919C6.38169 17.2928 8.68624 17.7698 10.8978 17.7698C13.2673 17.7698 15.2995 17.2786 16.4325 16.5009V17.7121H17.2347V10.2453C17.2347 8.54128 13.9287 7.62186 10.8175 7.62186C7.83316 7.62186 4.67713 8.47024 4.42526 10.0435H4.40039V23.577C4.40039 25.3815 7.70562 26.3554 10.8155 26.3554C13.9275 26.3554 17.2347 25.3815 17.2347 23.577V22.1518H16.4325V23.577Z"
            fill="white" />
    </g>
    <defs>
        <linearGradient id="paint0_linear_10616_11824" x1="0" y1="3200" x2="3200" y2="0"
            gradientUnits="userSpaceOnUse">
            <stop stop-color="#2E27AD" />
            <stop offset="1" stop-color="#527FFF" />
        </linearGradient>
        <clipPath id="clip0_10616_11824">
            <rect width="32" height="32" fill="white" />
        </clipPath>
    </defs>
</svg>