<svg width="32" height="32" viewBox="0 0 32 32" fill="none" xmlns="http://www.w3.org/2000/svg">
    <g clip-path="url(#clip0_10616_11814)">
        <path
            d="M30 0H2C0.895431 0 0 0.895431 0 2V30C0 31.1046 0.895431 32 2 32H30C31.1046 32 32 31.1046 32 30V2C32 0.895431 31.1046 0 30 0Z"
            fill="url(#paint0_linear_10616_11814)" />
        <path fill-rule="evenodd" clip-rule="evenodd"
            d="M18.0368 7.218H16.8336V6.41078H18.0368V5.19995H18.839V6.41078H20.0422V7.218H18.839V8.42883H18.0368V7.218ZM22.8497 11.6577H21.6465V10.8505H22.8497V9.63966H23.6518V10.8505H24.8551V11.6577H23.6518V12.8685H22.8497V11.6577ZM20.7609 24.4134C19.9949 22.4672 18.2269 20.6881 16.2922 19.9168C18.2269 19.1459 19.9949 17.3668 20.7609 15.4202C21.527 17.3668 23.2949 19.1459 25.2293 19.9168C23.2949 20.6881 21.527 22.4672 20.7609 24.4134ZM27.1993 19.5132C24.3782 19.5132 21.162 16.2766 21.162 13.4376C21.162 13.2148 20.9827 13.034 20.7609 13.034C20.5391 13.034 20.3598 13.2148 20.3598 13.4376C20.3598 16.2766 17.1432 19.5132 14.3221 19.5132C14.1007 19.5132 13.921 19.694 13.921 19.9168C13.921 20.14 14.1007 20.3204 14.3221 20.3204C17.1432 20.3204 20.3598 23.5569 20.3598 26.3963C20.3598 26.6191 20.5391 26.8 20.7609 26.8C20.9827 26.8 21.162 26.6191 21.162 26.3963C21.162 23.5569 24.3782 20.3204 27.1993 20.3204C27.4207 20.3204 27.6004 20.14 27.6004 19.9168C27.6004 19.694 27.4207 19.5132 27.1993 19.5132ZM5.20253 11.5612C6.37046 12.4161 8.63972 12.8685 10.8175 12.8685C12.9954 12.8685 15.2646 12.4161 16.4325 11.5612V15.427C15.8546 16.2003 13.7293 16.9624 10.8978 16.9624C7.63824 16.9624 5.20253 15.9372 5.20253 15.0206V11.5612ZM10.8175 8.42883C14.2964 8.42883 16.4325 9.48669 16.4325 10.2451C16.4325 11.0035 14.2964 12.0613 10.8175 12.0613C7.33864 12.0613 5.20253 11.0035 5.20253 10.2451C5.20253 9.48669 7.33864 8.42883 10.8175 8.42883ZM16.4325 23.5767C16.4325 24.507 14.0305 25.548 10.8155 25.548C7.60295 25.548 5.20253 24.507 5.20253 23.5767V20.9977C6.38489 21.9001 8.69948 22.378 10.9206 22.378C12.4651 22.378 13.9587 22.1584 15.1247 21.7597L14.8672 20.9952C13.7819 21.3661 12.3801 21.5708 10.9206 21.5708C7.64787 21.5708 5.20253 20.5456 5.20253 19.629V16.3917C6.38169 17.2925 8.68624 17.7696 10.8978 17.7696C13.2673 17.7696 15.2995 17.2784 16.4325 16.5006V17.7119H17.2347V10.2451C17.2347 8.54104 13.9287 7.62161 10.8175 7.62161C7.83316 7.62161 4.67713 8.47 4.42526 10.0433H4.40039V23.5767C4.40039 25.3813 7.70562 26.3552 10.8155 26.3552C13.9275 26.3552 17.2347 25.3813 17.2347 23.5767V22.1516H16.4325V23.5767Z"
            fill="white" />
    </g>
    <defs>
        <linearGradient id="paint0_linear_10616_11814" x1="0" y1="3200" x2="3200" y2="0"
            gradientUnits="userSpaceOnUse">
            <stop stop-color="#2E27AD" />
            <stop offset="1" stop-color="#527FFF" />
        </linearGradient>
        <clipPath id="clip0_10616_11814">
            <rect width="32" height="32" fill="white" />
        </clipPath>
    </defs>
</svg>