<svg width="36" height="36" viewBox="0 0 36 36" fill="none" xmlns="http://www.w3.org/2000/svg">
<g clip-path="url(#clip0_7688_10828)">
<path fill-rule="evenodd" clip-rule="evenodd" d="M30.7434 15.6284C24.8405 14.6562 20.2174 9.77988 19.245 3.87701L19.2413 3.87349L18.916 1.03592C18.8474 0.591285 19.1437 -0.0412643 19.7149 0.00211769C24.1754 0.349125 28.3829 1.82032 30.7253 2.77825C31.8855 3.25533 32.6446 4.38314 32.6446 5.63745V14.8911C32.6446 15.4406 32.1531 15.8598 31.6109 15.7694L30.7434 15.6284ZM16.3996 3.88134C15.4274 9.78043 10.8041 14.6604 4.90133 15.6327V15.6363L4.03382 15.7772C3.4916 15.864 3 15.4483 3 14.8989V5.64529C3 4.39098 3.75906 3.25953 4.91944 2.78609C7.26535 1.82817 11.4693 0.356959 15.9297 0.0099516C16.5008 -0.0334182 16.8045 0.591962 16.725 1.04377L16.3996 3.88134ZM30.7389 18.2211C22.6745 19.8115 18.9297 25.1722 18.9297 35.3222C18.9297 35.832 19.4358 36.1826 19.8587 35.9006C23.5674 33.3992 31.7293 26.8711 32.5716 18.7018C32.5982 17.8589 31.7414 18.03 31.1123 18.1557C30.9725 18.1836 30.844 18.2093 30.7389 18.2211ZM16.7128 35.3223C16.7128 25.1723 12.968 19.8116 4.90353 18.2212C4.79849 18.2094 4.67008 18.1837 4.53043 18.1558C3.90128 18.0301 3.0443 17.8588 3.07092 18.7019C3.91316 26.8711 12.0752 33.3993 15.7838 35.9006C16.2067 36.1825 16.7128 35.8319 16.7128 35.3223Z" fill="#EB5424"/>
</g>
<defs>
<clipPath id="clip0_7688_10828">
<rect width="36" height="36" fill="white"/>
</clipPath>
</defs>
</svg>
