<svg width="36" height="36" viewBox="0 0 36 36" fill="none" xmlns="http://www.w3.org/2000/svg">
<g clip-path="url(#clip0_27514_8046)">
<path fill-rule="evenodd" clip-rule="evenodd" d="M30.7432 15.6284C24.8403 14.6562 20.2172 9.77988 19.2448 3.87701L19.2412 3.87349L18.9158 1.03592C18.8472 0.591285 19.1436 -0.0412643 19.7147 0.00211769C24.1753 0.349125 28.3827 1.82032 30.7251 2.77825C31.8854 3.25533 32.6445 4.38314 32.6445 5.63745V14.8911C32.6445 15.4406 32.1529 15.8598 31.6107 15.7694L30.7432 15.6284ZM16.3996 3.88029C15.4274 9.77938 10.8041 14.6593 4.90133 15.6317V15.6352L4.03382 15.7762C3.4916 15.8629 3 15.4472 3 14.8978V5.64425C3 4.38994 3.75906 3.25848 4.91944 2.78505C7.26535 1.82712 11.4693 0.355911 15.9297 0.00890383C16.5008 -0.034466 16.8045 0.590915 16.725 1.04272L16.3996 3.88029ZM30.7389 18.2205C22.6745 19.8109 18.9296 25.1716 18.9296 35.3216C18.9296 35.8314 19.4358 36.1819 19.8587 35.9C23.5674 33.3986 31.7293 26.8705 32.5715 18.7012C32.5982 17.8583 31.7414 18.0294 31.1122 18.1551C30.9725 18.183 30.844 18.2087 30.7389 18.2205ZM16.713 35.3217C16.713 25.1716 12.9682 19.811 4.90374 18.2206C4.7987 18.2087 4.67028 18.1831 4.53064 18.1552C3.90149 18.0294 3.0445 17.8582 3.07112 18.7013C3.91336 26.8705 12.0754 33.3987 15.784 35.9C16.2069 36.1819 16.713 35.8313 16.713 35.3217Z" fill="#18191B"/>
</g>
<defs>
<clipPath id="clip0_27514_8046">
<rect width="36" height="36" fill="white"/>
</clipPath>
</defs>
</svg>
