<svg width="32" height="32" viewBox="0 0 32 32" fill="none" xmlns="http://www.w3.org/2000/svg">
    <path
        d="M14.8039 27.2329C17.3196 26.7748 19.8349 26.315 22.35 25.8536L22.4209 25.838L18.5393 21.0694C16.4046 18.4468 14.6579 16.2908 14.6579 16.2785C14.6579 16.255 18.6658 4.85549 18.6884 4.81485C18.6959 4.80142 21.4234 9.66501 25.3001 16.6048C28.9294 23.1018 31.9216 28.4586 31.9494 28.5088L32 28.6L19.6646 28.5983L7.32897 28.5966L14.8039 27.2329ZM0 25.7787C0 25.772 1.82891 22.4929 4.06428 18.4918L8.12856 11.217L12.865 7.11172C15.4699 4.85381 17.6084 3.00345 17.617 3.00009C17.6254 2.99673 17.5913 3.08573 17.5407 3.19791C17.4903 3.31025 15.1759 8.43732 12.3977 14.5916L7.34621 25.7812L3.6731 25.7861C1.65299 25.7888 0 25.7854 0 25.7787Z"
        fill="#0089D6" />
</svg>