<?xml version="1.0" encoding="utf-8"?>
<svg version="1.1" id="Layer_1" xmlns="http://www.w3.org/2000/svg" xmlns:xlink="http://www.w3.org/1999/xlink" x="0px" y="0px"
     viewBox="0 0 170 170" xml:space="preserve">
<style type="text/css">
    .st1{fill:#E21E29;}
</style>
<g id="horizontal-red-navy_00000063597653300920132820000005571632928714686102_">
    <g>
        <g>
            <path class="st1" d="M32.68,0c2.15,4.45,4.74,10.99,4.74,18.92c0,30.56-32.96,38.88-32.96,66.7c0,13.76,10.01,29.15,26.04,29.15
                c14.44,0,22.45-8.92,22.45-21.86c0-10.69-5.04-18.98-5.04-26.35c0-11.31,9.66-18.41,9.66-29.77C57.58,19.03,40.23,4.71,32.68,0z
                "/>
        </g>
        <g>
            <path class="st1" d="M103.79,118.9c0,19.73-14.99,28.24-26.14,28.24c-9.38,0-21.25-5.97-21.25-22.42
                c0-13.57,8.39-13.99,8.39-29.04c0-8.35-5.93-18.13-5.93-27.17c0-11.88,12.26-22.47,18.68-25.53c-2.45,2.65-4.78,9.79-4.78,13.68
                C72.75,78.69,103.79,90.9,103.79,118.9z"/>
        </g>
        <g>
            <path class="st1" d="M59.1,153.44c-17.56-9.53-12.57-26.17-14.92-28.12c-2.35-1.96-10.72,3.87-25.64-1.2
                C6.38,119.97,2,108.49,1.25,108.5c-0.87,0-1.25,6.3-1.25,9.91c0,27.54,21.58,53.02,52.12,53.02c24.32,0,40.03-17.45,39.16-18.19
                C90.31,152.41,73.04,161,59.1,153.44z"/>
        </g>
    </g>
</g>
</svg>