<svg width="36" height="36" viewBox="0 0 36 36" fill="none" xmlns="http://www.w3.org/2000/svg">
<g clip-path="url(#clip0_7688_10861)">
<path d="M0 12.4138C0 5.55784 5.55784 0 12.4138 0H23.5862C30.4422 0 36 5.55784 36 12.4138V23.5862C36 30.4422 30.4422 36 23.5862 36H12.4138C5.55784 36 0 30.4422 0 23.5862V12.4138Z" fill="#1E35FE"/>
<path d="M14.6142 18.1046C18.7679 19.9096 17.3254 23.5071 17.673 26.6751C15.1654 26.6751 12.7844 26.7421 10.4084 26.6403C9.4575 26.6006 8.85171 25.8458 8.84675 24.8552C8.82192 20.3068 8.82192 15.7592 8.84675 11.2125C8.84675 10.0729 9.64868 9.33798 10.8702 9.31563C13.0575 9.27343 15.2448 9.31563 17.4172 9.31563C18.4401 13.216 17.6034 15.9148 14.6142 18.1046Z" fill="white"/>
<path d="M18.3394 26.6747C18.3394 24.8449 18.2823 23.1094 18.3568 21.3814C18.4213 19.8595 19.3176 18.8043 20.7328 17.9999C16.8646 15.9318 18.8806 12.3765 18.25 9.37232C20.1841 9.37232 21.9741 9.19108 23.6922 9.42198C25.4103 9.65287 26.6492 10.8173 27.0439 12.6297C27.4635 14.5687 26.7733 16.1056 25.2464 17.2998C24.9286 17.548 24.5711 17.7491 24.1168 18.0446C25.6064 18.8714 26.7733 19.8769 27.0961 21.5974C27.5603 24.1919 25.7926 26.548 23.1808 26.6747C21.6191 26.7392 20.0574 26.6747 18.3394 26.6747Z" fill="white"/>
</g>
<defs>
<clipPath id="clip0_7688_10861">
<rect width="36" height="36" fill="white"/>
</clipPath>
</defs>
</svg>
