<svg width="36" height="36" viewBox="0 0 36 36" fill="none" xmlns="http://www.w3.org/2000/svg">
<g clip-path="url(#clip0_7428_928)">
<path d="M0 12.4138C0 5.55784 5.55784 0 12.4138 0H23.5862C30.4422 0 36 5.55784 36 12.4138V23.5862C36 30.4422 30.4422 36 23.5862 36H12.4138C5.55784 36 0 30.4422 0 23.5862V12.4138Z" fill="#18191B"/>
<path d="M14.6157 18.1044C18.7693 19.9093 17.3268 23.5068 17.6744 26.6748C15.1668 26.6748 12.7859 26.7419 10.4099 26.6401C9.45897 26.6004 8.85318 25.8456 8.84821 24.855C8.82338 20.3066 8.82338 15.759 8.84821 11.2122C8.84821 10.0726 9.65014 9.33773 10.8717 9.31539C13.059 9.27318 15.2463 9.31539 17.4187 9.31539C18.4416 13.2158 17.6049 15.9146 14.6157 18.1044Z" fill="white"/>
<path d="M18.3397 26.6749C18.3397 24.8451 18.2826 23.1097 18.3571 21.3817C18.4217 19.8597 19.318 18.8046 20.7331 18.0002C16.865 15.932 18.881 12.3767 18.2504 9.37257C20.1844 9.37257 21.9745 9.19132 23.6926 9.42222C25.4106 9.65312 26.6495 10.8175 27.0443 12.6299C27.4639 14.569 26.7737 16.1058 25.2468 17.3C24.929 17.5483 24.5715 17.7494 24.1171 18.0448C25.6068 18.8716 26.7737 19.8771 27.0964 21.5977C27.5607 24.1922 25.793 26.5483 23.1811 26.6749C21.6195 26.7395 20.0578 26.6749 18.3397 26.6749Z" fill="white"/>
</g>
<defs>
<clipPath id="clip0_7428_928">
<rect width="36" height="36" fill="white"/>
</clipPath>
</defs>
</svg>
