<svg width="36" height="36" viewBox="0 0 36 36" fill="none" xmlns="http://www.w3.org/2000/svg">
<g clip-path="url(#clip0_7688_10874)">
<path fill-rule="evenodd" clip-rule="evenodd" d="M28.2043 2.41643C25.1304 1.09513 21.826 0.393432 18.4804 0.351562C13.1731 0.36157 9.16011 1.01205 5.44401 3.00687C1.78462 4.97834 -0.260239 8.01393 0.0266412 12.1971C0.623752 20.9402 4.86358 27.7887 11.7721 32.9292C16.9826 36.802 21.8596 36.4918 26.7832 32.262C31.6302 28.0989 34.4956 22.7516 35.6832 16.4836C36.9441 9.82528 34.4389 5.08509 28.2043 2.41643ZM8.0326 5.98242C11.1016 4.38123 14.4274 3.87752 18.3203 3.87752C21.3961 3.82711 24.4441 4.46657 27.2402 5.74891C31.3066 7.66701 32.9845 10.806 32.244 15.2393C31.3889 20.6074 28.7381 25.5267 24.725 29.193C21.129 32.5355 17.8065 32.7524 13.9937 29.7201C9.03668 25.7805 5.52407 20.8035 4.06965 14.5521C3.1523 10.6125 4.44994 7.84714 8.0326 5.98242ZM24.1205 16.1201L27.5006 17.6929C28.0401 16.1201 28.3503 14.9592 28.5004 13.735C28.864 10.9496 28.4004 10.1323 25.7951 9.17492C20.8572 7.3219 15.4149 7.3219 10.477 9.17492C7.84501 10.1626 7.13452 11.6367 7.84505 14.2821C8.84579 17.9381 10.8139 21.1038 13.1824 23.9926C14.3245 25.4168 15.6738 26.6616 17.1853 27.6854C17.9326 28.1791 19.4703 28.3261 20.2676 27.8155C22.2545 26.786 24.6523 23.7591 25.2293 22.6992C23.8882 21.7524 22.0424 20.5997 22.0424 20.5997C22.0424 20.5997 21.171 21.6476 20.2343 22.5716C19.2202 23.5723 18.3162 23.4389 17.3354 22.5716C14.9003 20.4166 13.3091 17.7146 12.2316 14.689C11.7746 13.4081 12.2316 12.7429 13.5893 12.3806C16.1738 11.6911 18.4635 11.5606 20.8381 11.8469L20.9279 11.8633C24.5006 12.5164 24.8407 12.5785 24.1205 16.1201Z" fill="#18191B"/>
</g>
<defs>
<clipPath id="clip0_7688_10874">
<rect width="36" height="36" fill="white"/>
</clipPath>
</defs>
</svg>
