<svg width="36" height="36" viewBox="0 0 36 36" fill="none" xmlns="http://www.w3.org/2000/svg">
<g clip-path="url(#clip0_7688_10834)">
<path d="M17.7052 23.5316C20.7612 23.5316 23.2386 21.0542 23.2386 17.9982C23.2386 14.9422 20.7612 12.4648 17.7052 12.4648C14.6492 12.4648 12.1719 14.9422 12.1719 17.9982C12.1719 21.0542 14.6492 23.5316 17.7052 23.5316Z" fill="#654BF6"/>
<path d="M27.6745 31.1029C28.1453 31.5737 28.0981 32.353 27.5448 32.7236C24.7304 34.6088 21.3453 35.7082 17.7034 35.7082C14.0614 35.7082 10.6763 34.6088 7.86181 32.7236C7.30867 32.353 7.26139 31.5737 7.73218 31.1029L11.7759 27.059C12.1414 26.6937 12.7083 26.6358 13.1684 26.8715C14.5286 27.5684 16.07 27.9615 17.7034 27.9615C19.3367 27.9615 20.8782 27.5684 22.2385 26.8715C22.6985 26.6358 23.2653 26.6937 23.6308 27.059L27.6745 31.1029Z" fill="#654BF6"/>
<path d="M27.5483 3.27767C28.1015 3.6482 28.1488 4.42761 27.6779 4.8984L23.6343 8.94215C23.2687 9.30762 22.7017 9.36534 22.2418 9.12968C20.8815 8.43286 19.3401 8.03971 17.7068 8.03971C12.206 8.03971 7.7467 12.499 7.7467 17.9998C7.7467 19.6331 8.13985 21.1746 8.83667 22.5349C9.07233 22.9949 9.01461 23.5617 8.64914 23.9273L4.60541 27.9711C4.13462 28.4417 3.35521 28.3945 2.98468 27.8415C1.09951 25.0269 0 21.6417 0 17.9998C0 8.22059 7.92759 0.292969 17.7068 0.292969C21.3487 0.292969 24.7339 1.39248 27.5483 3.27767Z" fill="#654BF6" fill-opacity="0.5"/>
</g>
<defs>
<clipPath id="clip0_7688_10834">
<rect width="36" height="36" fill="white"/>
</clipPath>
</defs>
</svg>
