<svg width="36" height="36" viewBox="0 0 36 36" fill="none" xmlns="http://www.w3.org/2000/svg">
<g clip-path="url(#clip0_27514_8062)">
<path d="M18 23.626C21.106 23.626 23.624 21.1072 23.624 18C23.624 14.8929 21.106 12.374 18 12.374C14.8939 12.374 12.376 14.8929 12.376 18C12.376 21.1072 14.8939 23.626 18 23.626Z" fill="#18191B"/>
<path d="M28.1342 31.3181C28.6142 31.7981 28.5662 32.5881 28.0022 32.9661C25.044 34.9492 21.5617 36.0055 18.0002 36.0001C14.4381 36.0059 10.9551 34.9495 7.99623 32.9661C7.86588 32.8762 7.75717 32.7585 7.678 32.6214C7.59883 32.4843 7.5512 32.3312 7.53856 32.1734C7.52592 32.0156 7.54859 31.857 7.60492 31.709C7.66126 31.5611 7.74984 31.4275 7.86423 31.3181L11.9742 27.2081C12.1598 27.0307 12.3967 26.9166 12.6511 26.8821C12.9054 26.8476 13.1642 26.8945 13.3902 27.0161C14.8169 27.7467 16.3973 28.1265 18.0002 28.1241C19.6602 28.1241 21.2282 27.7241 22.6102 27.0161C22.8363 26.8945 23.0951 26.8476 23.3494 26.8821C23.6038 26.9166 23.8407 27.0307 24.0262 27.2081L28.1342 31.3181Z" fill="#18191B"/>
<path opacity="0.5" d="M28.0039 3.03385C28.1342 3.12369 28.2429 3.24144 28.3221 3.37855C28.4013 3.51565 28.4489 3.66867 28.4615 3.82648C28.4742 3.98429 28.4515 4.14294 28.3952 4.2909C28.3388 4.43886 28.2502 4.57241 28.1359 4.68185L24.0259 8.79185C23.8403 8.96921 23.6034 9.0833 23.349 9.11779C23.0947 9.15228 22.8359 9.10539 22.6099 8.98385C20.7035 8.00636 18.5361 7.65883 16.4197 7.99127C14.3032 8.32371 12.3468 9.31899 10.8319 10.8339C9.31699 12.3488 8.32171 14.3052 7.98927 16.4217C7.65683 18.5381 8.00436 20.7055 8.98185 22.6119C9.22185 23.0779 9.16185 23.6539 8.79185 24.0259L4.68185 28.1359C4.57223 28.2499 4.43863 28.3382 4.29072 28.3943C4.1428 28.4504 3.98427 28.473 3.82657 28.4604C3.66888 28.4477 3.51596 28.4002 3.37886 28.3213C3.24177 28.2423 3.12393 28.1339 3.03385 28.0039C0.716808 24.5411 -0.327238 20.3818 0.0797723 16.2353C0.486782 12.0888 2.31964 8.21188 5.26576 5.26576C8.21188 2.31964 12.0888 0.486782 16.2353 0.0797723C20.3818 -0.327238 24.5411 0.716808 28.0039 3.03385Z" fill="#18191B"/>
</g>
<defs>
<clipPath id="clip0_27514_8062">
<rect width="36" height="36" fill="white"/>
</clipPath>
</defs>
</svg>
