<svg width="36" height="36" viewBox="0 0 36 36" fill="none" xmlns="http://www.w3.org/2000/svg">
<g clip-path="url(#clip0_25971_3069)">
<path d="M28.9017 17.1465C28.781 17.1465 28.662 17.1509 28.543 17.1547C28.5237 17.1558 28.5048 17.1602 28.487 17.1679C28.4555 17.1786 28.4272 17.197 28.4046 17.2214C28.382 17.2458 28.3658 17.2755 28.3576 17.3078L27.8474 19.0899C27.6275 19.8562 27.7092 20.5638 28.0789 21.0833C28.4179 21.5638 28.9818 21.8458 29.6664 21.8787L32.4337 22.0465C32.516 22.0509 32.5873 22.0904 32.6306 22.1557C32.6533 22.1905 32.6677 22.2301 32.6725 22.2714C32.6774 22.3127 32.6726 22.3546 32.6586 22.3937C32.6363 22.4574 32.5962 22.5133 32.543 22.5547C32.4898 22.5962 32.4257 22.6214 32.3586 22.6274L29.4832 22.7953C27.9209 22.8677 26.2402 24.1425 25.6506 25.697L25.4432 26.2455C25.4343 26.2683 25.4309 26.2928 25.4334 26.3171C25.4359 26.3414 25.4441 26.3648 25.4574 26.3853C25.4707 26.4057 25.4887 26.4228 25.5099 26.4349C25.5311 26.447 25.5549 26.454 25.5793 26.4551H35.4825C35.54 26.4553 35.5961 26.4366 35.6421 26.402C35.688 26.3673 35.7214 26.3185 35.737 26.2631C35.9129 25.6308 36.0014 24.9775 36.0003 24.3213C36.0003 20.3609 32.8248 17.1509 28.9061 17.1509" fill="currentColor"/>
<path d="M24.579 26.2245L24.7622 25.5799C24.9827 24.8136 24.901 24.106 24.5318 23.5866C24.1918 23.1061 23.6284 22.8241 22.9433 22.7912L9.96231 22.6234C9.92193 22.6226 9.88229 22.6123 9.84664 22.5934C9.81099 22.5744 9.78032 22.5473 9.75715 22.5142C9.73438 22.4794 9.71995 22.4398 9.715 22.3985C9.71006 22.3572 9.71472 22.3153 9.72863 22.2761C9.75111 22.2121 9.79167 22.1559 9.84541 22.1144C9.89915 22.073 9.96376 22.048 10.0314 22.0425L23.1336 21.8746C24.6893 21.8027 26.37 20.5274 26.9596 18.9729L27.7067 16.9982C27.7372 16.9144 27.7447 16.8241 27.7287 16.7365C26.8774 12.8847 23.4721 10 19.4009 10C15.6478 10 12.4636 12.4475 11.321 15.8501C10.5518 15.2651 9.58833 14.9955 8.62718 15.0964C6.828 15.2774 5.37987 16.7431 5.20105 18.562C5.15475 19.0163 5.18817 19.4752 5.29979 19.918C2.35966 20.0058 0.000976562 22.4401 0.000976562 25.4318C0.000976562 25.7023 0.0201752 25.9688 0.0591209 26.2288C0.0668719 26.2898 0.0966191 26.3459 0.142776 26.3865C0.188934 26.4271 0.248326 26.4494 0.3098 26.4494H24.2828C24.3503 26.4482 24.4157 26.4253 24.4691 26.384C24.5224 26.3427 24.561 26.2851 24.579 26.2201" fill="currentColor"/>
</g>
<defs>
<clipPath id="clip0_25971_3069">
<rect width="36" height="36" fill="white"/>
</clipPath>
</defs>
</svg>
