<svg width="36" height="36" viewBox="0 0 36 36" fill="none" xmlns="http://www.w3.org/2000/svg">
<path d="M28.8988 17.1484C28.7781 17.1484 28.6591 17.1528 28.5401 17.1567C28.5208 17.1577 28.5018 17.1622 28.4841 17.1698C28.4526 17.1806 28.4243 17.199 28.4017 17.2234C28.3791 17.2478 28.3629 17.2775 28.3546 17.3097L27.8445 19.0919C27.6246 19.8582 27.7063 20.5658 28.076 21.0852C28.415 21.5658 28.9789 21.8477 29.6634 21.8806L32.4308 22.0485C32.5131 22.0529 32.5844 22.0924 32.6277 22.1576C32.6504 22.1925 32.6647 22.2321 32.6696 22.2734C32.6744 22.3147 32.6697 22.3565 32.6557 22.3957C32.6334 22.4593 32.5933 22.5152 32.54 22.5567C32.4868 22.5981 32.4228 22.6233 32.3556 22.6294L29.4802 22.7972C27.918 22.8696 26.2373 24.1444 25.6476 25.6989L25.4403 26.2475C25.4314 26.2702 25.428 26.2948 25.4305 26.3191C25.4329 26.3434 25.4412 26.3667 25.4545 26.3872C25.4678 26.4077 25.4858 26.4247 25.5069 26.4369C25.5281 26.449 25.5519 26.4559 25.5763 26.457H35.4795C35.5371 26.4572 35.5932 26.4386 35.6391 26.4039C35.6851 26.3692 35.7184 26.3205 35.734 26.265C35.9099 25.6328 35.9985 24.9795 35.9973 24.3232C35.9973 20.3628 32.8219 17.1528 28.9032 17.1528" fill="#FAAE40"/>
<path d="M24.578 26.2245L24.7613 25.5799C24.9818 24.8136 24.9 24.106 24.5309 23.5866C24.1908 23.1061 23.6274 22.8241 22.9423 22.7912L9.96133 22.6234C9.92095 22.6226 9.88132 22.6123 9.84566 22.5934C9.81001 22.5744 9.77935 22.5473 9.75618 22.5142C9.7334 22.4794 9.71898 22.4398 9.71403 22.3985C9.70908 22.3572 9.71374 22.3153 9.72765 22.2761C9.75013 22.2121 9.79069 22.1559 9.84443 22.1144C9.89817 22.073 9.96278 22.048 10.0304 22.0425L23.1327 21.8746C24.6883 21.8027 26.369 20.5274 26.9587 18.9729L27.7058 16.9982C27.7362 16.9144 27.7438 16.8241 27.7277 16.7365C26.8764 12.8847 23.4711 10 19.3999 10C15.6469 10 12.4626 12.4475 11.32 15.8501C10.5508 15.2651 9.58735 14.9955 8.6262 15.0964C6.82702 15.2774 5.3789 16.7431 5.20008 18.562C5.15378 19.0163 5.18719 19.4752 5.29881 19.918C2.35868 20.0058 0 22.4401 0 25.4318C0 25.7023 0.0191986 25.9688 0.0581443 26.2288C0.0658953 26.2898 0.0956425 26.3459 0.1418 26.3865C0.187957 26.4271 0.247349 26.4494 0.308823 26.4494H24.2818C24.3493 26.4482 24.4147 26.4253 24.4681 26.384C24.5215 26.3427 24.56 26.2851 24.578 26.2201" fill="#F38020"/>
</svg>
