<svg width="36" height="36" viewBox="0 0 36 36" fill="none" xmlns="http://www.w3.org/2000/svg">
<g clip-path="url(#clip0_7688_11478)">
<path fill-rule="evenodd" clip-rule="evenodd" d="M25.7843 19.0027C26.7052 18.919 27.6262 18.919 28.5471 18.8353V18.1655C27.6262 18.0818 26.7052 18.0818 25.7843 17.9981L23.0215 17.9143C21.4308 17.8306 19.7564 17.8306 18.1657 17.8306C18.1657 16.2399 18.1657 14.5655 18.082 12.9748L17.9983 10.212C17.9146 9.29108 17.9146 8.37015 17.8308 7.44922H17.0773C16.9936 8.37015 16.9936 9.29108 16.9099 10.212L16.8262 12.9748C16.8262 13.7283 16.8262 14.4818 16.8262 15.2353C16.4913 14.5655 16.2401 13.812 15.9053 13.1422L14.7332 10.6306C14.3146 9.7934 13.9797 8.9562 13.5611 8.11899L12.8913 8.37015C13.2262 9.29108 13.4773 10.1283 13.8122 10.9655L14.8169 13.5608C15.068 14.3143 15.4029 14.9841 15.6541 15.7376C15.068 15.2353 14.5657 14.6492 13.9797 14.1469L11.9704 12.2213C11.3006 11.6353 10.6308 10.9655 9.87734 10.3795L9.2913 10.9655C9.87734 11.6353 10.5471 12.305 11.1332 13.0585L13.0587 15.0678C13.5611 15.6539 14.1471 16.1562 14.6494 16.7422C13.9797 16.4911 13.2262 16.1562 12.4727 15.905L9.87734 14.9004C9.04013 14.5655 8.1192 14.2306 7.28199 13.9795L6.94711 14.7329C7.78432 15.1515 8.62153 15.4864 9.45874 15.905L11.9704 17.0771C12.6401 17.412 13.3936 17.6632 14.0634 17.9981C13.3099 17.9981 12.5564 17.9981 11.8029 17.9981L9.04013 18.0818C8.1192 18.1655 7.19827 18.1655 6.27734 18.2492V19.0027C7.19827 19.0864 8.1192 19.0864 9.04013 19.1701L11.8029 19.2539C13.4773 19.3376 15.068 19.3376 16.6587 19.3376C16.6587 20.9283 16.6587 22.6027 16.7425 24.1934L16.8262 26.9562C16.9099 27.8771 16.9099 28.7981 16.9936 29.719H17.6634C17.7471 28.7981 17.7471 27.8771 17.8308 26.9562L17.9146 24.1934C17.9146 23.4399 17.9146 22.6027 17.9983 21.8492C18.3332 22.6027 18.5843 23.2725 18.9192 24.026L20.0913 26.5376C20.5099 27.3748 20.8448 28.212 21.2634 29.0492L21.9332 28.7981C21.682 27.8771 21.3471 27.0399 21.0122 26.2027L20.175 23.4399C19.9239 22.6864 19.589 22.0167 19.3378 21.2632C19.9239 21.8492 20.4262 22.3515 21.0122 22.8539L23.0215 24.7795C23.6913 25.3655 24.3611 26.0353 25.1146 26.6213L25.6169 26.119C25.0308 25.4492 24.3611 24.7795 23.775 24.026L21.8494 22.0167C21.3471 21.4306 20.7611 20.8446 20.2587 20.3422C21.0122 20.5934 21.682 20.9283 22.4355 21.1795L25.0308 22.1841C25.868 22.519 26.789 22.8539 27.6262 23.105L27.8773 22.4353C27.0401 22.0167 26.2029 21.5981 25.3657 21.2632L22.8541 20.0911C22.1006 19.7562 21.4308 19.4213 20.6773 19.1701C21.4308 19.1701 22.268 19.1701 23.0215 19.0864L25.7843 19.0027Z" fill="#00A5E6"/>
<path fill-rule="evenodd" clip-rule="evenodd" d="M18 36C8.03721 36 0 27.9628 0 18C0 8.03721 8.03721 0 18 0C27.9628 0 36 8.03721 36 18C36 27.9628 27.9628 36 18 36ZM18 1.67442C9.04186 1.67442 1.67442 9.04186 1.67442 18C1.67442 26.9581 9.04186 34.3256 18 34.3256C26.9581 34.3256 34.3256 26.9581 34.3256 18C34.3256 9.04186 26.9581 1.67442 18 1.67442Z" fill="#00A5E6"/>
</g>
<defs>
<clipPath id="clip0_7688_11478">
<rect width="36" height="36" fill="white"/>
</clipPath>
</defs>
</svg>
