<svg width="36" height="36" viewBox="0 0 36 36" fill="none" xmlns="http://www.w3.org/2000/svg">
<g clip-path="url(#clip0_23609_931)">
<path fill-rule="evenodd" clip-rule="evenodd" d="M25.7863 19.0047C26.7072 18.9209 27.6281 18.9209 28.5491 18.8372V18.1675C27.6281 18.0837 26.7072 18.0837 25.7863 18L23.0235 17.9163C21.4328 17.8326 19.7584 17.8326 18.1677 17.8326C18.1677 16.2419 18.1677 14.5675 18.0839 12.9768L18.0002 10.214C17.9165 9.29303 17.9165 8.3721 17.8328 7.45117H17.0793C16.9956 8.3721 16.9956 9.29303 16.9119 10.214L16.8281 12.9768C16.8281 13.7302 16.8281 14.4837 16.8281 15.2372C16.4933 14.5675 16.2421 13.814 15.9072 13.1442L14.7351 10.6326C14.3165 9.79536 13.9816 8.95815 13.563 8.12094L12.8932 8.3721C13.2281 9.29303 13.4793 10.1302 13.8142 10.9675L14.8188 13.5628C15.07 14.3163 15.4049 14.9861 15.656 15.7395C15.07 15.2372 14.5677 14.6512 13.9816 14.1488L11.9723 12.2233C11.3026 11.6372 10.6328 10.9675 9.8793 10.3814L9.29325 10.9675C9.8793 11.6372 10.5491 12.307 11.1351 13.0605L13.0607 15.0698C13.563 15.6558 14.1491 16.1581 14.6514 16.7442C13.9816 16.493 13.2281 16.1581 12.4746 15.907L9.8793 14.9023C9.04209 14.5675 8.12116 14.2326 7.28395 13.9814L6.94906 14.7349C7.78627 15.1535 8.62348 15.4884 9.46069 15.907L11.9723 17.0791C12.6421 17.414 13.3956 17.6651 14.0653 18C13.3119 18 12.5584 18 11.8049 18L9.04209 18.0837C8.12116 18.1675 7.20023 18.1674 6.2793 18.2512V19.0047C7.20023 19.0884 8.12116 19.0884 9.04209 19.1721L11.8049 19.2558C13.4793 19.3395 15.07 19.3395 16.6607 19.3395C16.6607 20.9302 16.6607 22.6047 16.7444 24.1954L16.8281 26.9581C16.9119 27.8791 16.9119 28.8 16.9956 29.7209H17.6653C17.7491 28.8 17.7491 27.8791 17.8328 26.9581L17.9165 24.1954C17.9165 23.4419 17.9165 22.6047 18.0002 21.8512C18.3351 22.6047 18.5863 23.2744 18.9212 24.0279L20.0933 26.5395C20.5119 27.3768 20.8467 28.214 21.2653 29.0512L21.9351 28.8C21.6839 27.8791 21.3491 27.0419 21.0142 26.2047L20.177 23.4419C19.9258 22.6884 19.5909 22.0186 19.3398 21.2651C19.9258 21.8512 20.4281 22.3535 21.0142 22.8558L23.0235 24.7814C23.6933 25.3675 24.363 26.0372 25.1165 26.6233L25.6188 26.1209C25.0328 25.4512 24.363 24.7814 23.777 24.0279L21.8514 22.0186C21.3491 21.4326 20.763 20.8465 20.2607 20.3442C21.0142 20.5954 21.6839 20.9302 22.4374 21.1814L25.0328 22.1861C25.87 22.5209 26.7909 22.8558 27.6281 23.107L27.8793 22.4372C27.0421 22.0186 26.2049 21.6 25.3677 21.2651L22.856 20.093C22.1026 19.7581 21.4328 19.4233 20.6793 19.1721C21.4328 19.1721 22.27 19.1721 23.0235 19.0884L25.7863 19.0047Z" fill="currentColor"/>
<path fill-rule="evenodd" clip-rule="evenodd" d="M18 36C8.03721 36 0 27.9628 0 18C0 8.03721 8.03721 0 18 0C27.9628 0 36 8.03721 36 18C36 27.9628 27.9628 36 18 36ZM18 1.67442C9.04186 1.67442 1.67442 9.04186 1.67442 18C1.67442 26.9581 9.04186 34.3256 18 34.3256C26.9581 34.3256 34.3256 26.9581 34.3256 18C34.3256 9.04186 26.9581 1.67442 18 1.67442Z" fill="currentColor"/>
</g>
<defs>
<clipPath id="clip0_23609_931">
<rect width="36" height="36" fill="white"/>
</clipPath>
</defs>
</svg>
