<svg width="36" height="36" viewBox="0 0 36 36" fill="none" xmlns="http://www.w3.org/2000/svg">
<g clip-path="url(#clip0_14558_48111)">
<path d="M22.7157 28.374C28.0392 27.7929 33.0579 25.0052 35.8213 20.3522C34.5127 31.8607 21.7079 39.1348 11.256 34.6687C10.2929 34.2583 9.46394 33.5756 8.89502 32.6978C6.54618 29.073 5.77407 24.4607 6.88347 20.275C10.0532 25.6513 16.4982 28.947 22.7157 28.374Z" fill="#F3B01C"/>
<path d="M6.68944 16.8981C4.5316 21.7989 4.43814 27.5369 7.08362 32.259C-2.22637 25.375 -2.12478 10.644 6.96984 3.82915C7.81103 3.19927 8.81071 2.82541 9.85915 2.76852C14.1708 2.54501 18.5515 4.1827 21.6236 7.23455C15.3817 7.29551 9.30241 11.2251 6.68944 16.8981Z" fill="#8D2676"/>
<path d="M24.6337 8.74223C21.4843 4.42655 16.555 1.48848 11.1543 1.39908C21.594 -3.25795 34.4354 4.29245 35.8333 15.4555C35.9633 16.4918 35.7927 17.5483 35.3253 18.483C33.3747 22.376 29.758 25.3954 25.5318 26.5129C28.6283 20.8684 28.2463 13.9722 24.6337 8.74223Z" fill="#EE342F"/>
</g>
<defs>
<clipPath id="clip0_14558_48111">
<rect width="36" height="36" fill="white"/>
</clipPath>
</defs>
</svg>
