<svg width="32" height="32" viewBox="0 0 32 32" fill="none" xmlns="http://www.w3.org/2000/svg">
<path fill-rule="evenodd" clip-rule="evenodd" d="M26.2274 22.7211L23.5454 20.965L21.3081 24.6748L18.7059 23.9195L16.4148 27.3908L16.5322 28.4835L28.9895 26.2051L28.2659 18.4788L26.2274 22.7211ZM14.61 19.3899L16.6087 19.1171C16.932 19.2613 17.1572 19.3163 17.5449 19.4142C18.1488 19.5704 18.8479 19.7202 19.8832 19.2023C20.1241 19.0838 20.6259 18.6283 20.8288 18.3686L29.0177 16.8939L29.8531 26.9301L15.8241 29.4398L14.61 19.3899ZM29.8215 15.7736L29.0132 15.9264L27.4603 0L1 3.04567L4.25982 29.3049L7.357 28.8587C7.10966 28.5082 6.72454 28.084 6.06685 27.5411C5.15468 26.7888 5.47731 25.5111 6.01528 24.7043C6.72717 23.341 10.3951 21.6085 10.1873 19.4295C10.1127 18.6372 9.98586 17.6058 9.24498 16.8992C9.21712 17.1925 9.26719 17.475 9.26719 17.475C9.26719 17.475 8.96301 17.0897 8.81129 16.5643C8.6607 16.3629 8.54249 16.2986 8.38249 16.0296C8.26843 16.3408 8.28348 16.7018 8.28348 16.7018C8.28348 16.7018 8.03464 16.1181 7.99436 15.6256C7.84678 15.8461 7.80951 16.265 7.80951 16.265C7.80951 16.265 7.48613 15.3449 7.55992 14.8494C7.41234 14.4182 6.97489 13.5624 7.09875 11.6173C7.90627 12.1789 9.68394 12.0455 10.3766 11.032C10.6067 10.6965 10.764 9.78014 10.2618 7.97479C9.93918 6.81706 9.14032 5.09318 8.82898 4.4392L8.79171 4.46573C8.95585 4.99265 9.2943 6.09731 9.42418 6.63283C9.81721 8.25731 9.92262 8.82272 9.73815 9.57162C9.58116 10.2226 9.2047 10.6486 8.25036 11.1247C7.29601 11.6023 6.02958 10.4401 5.9494 10.3758C5.02216 9.64262 4.30499 8.4464 4.22481 7.8653C4.14161 7.22926 4.59412 6.84733 4.82226 6.32714C4.49586 6.41982 4.13182 6.58425 4.13182 6.58425C4.13182 6.58425 4.56626 6.13805 5.10197 5.75201C5.32371 5.60627 5.45397 5.51359 5.68775 5.32076C5.34931 5.31516 5.07449 5.32487 5.07449 5.32487C5.07449 5.32487 5.63881 5.02217 6.22384 4.80169C5.7958 4.78301 5.3862 4.7987 5.3862 4.7987C5.3862 4.7987 6.64548 4.23964 7.6401 3.82932C8.32414 3.55091 8.99237 3.63313 9.36771 4.172C9.8605 4.87793 10.3781 5.26134 11.4752 5.49902C12.1487 5.20267 12.3535 5.0502 13.1998 4.8215C13.9448 4.00832 14.5298 3.90294 14.5298 3.90294C14.5298 3.90294 14.2396 4.16715 14.162 4.58233C14.5844 4.25198 15.0474 3.97618 15.0474 3.97618C15.0474 3.97618 14.8682 4.19592 14.7011 4.54496L14.7399 4.60213C15.2327 4.30878 15.812 4.07746 15.812 4.07746C15.812 4.07746 15.6464 4.28524 15.4521 4.5543C15.8237 4.55131 16.5774 4.57 16.8699 4.60288C18.5968 4.64063 18.9552 2.77212 19.6177 2.53781C20.4475 2.2437 20.8183 2.06582 22.2323 3.44441C23.4456 4.62792 24.3936 6.74643 23.923 7.22104C23.5285 7.61492 22.7499 7.06744 21.8871 5.99978C21.4312 5.43437 21.0863 4.76619 20.9248 3.91677C20.7886 3.20001 20.2581 2.78408 20.2581 2.78408C20.2581 2.78408 20.5661 3.46347 20.5661 4.06363C20.5661 4.39137 20.6075 5.61673 21.1368 6.30435C21.0845 6.40487 21.06 6.80174 21.002 6.8776C20.3861 6.1388 19.0636 5.61001 18.8479 5.45417C19.5778 6.04799 21.2557 7.412 21.9003 8.7192C22.5098 9.95541 22.1506 11.0885 22.4589 11.3818C22.5466 11.4659 23.7698 12.9787 24.0051 13.7388C24.4154 15.0635 24.0295 16.4556 23.4923 17.3192L21.9921 17.5513C21.7726 17.4907 21.6247 17.4605 21.4278 17.3472C21.5362 17.1566 21.7519 16.6813 21.7542 16.5834L21.6695 16.4358C21.2027 17.0924 20.4204 17.7299 19.7706 18.0961C18.9202 18.5745 17.9398 18.5008 17.3017 18.3047C15.4905 17.7501 13.778 16.5352 13.365 16.216C13.365 16.216 13.3522 16.4709 13.4302 16.5281C13.8868 17.0393 14.933 17.9642 15.9442 18.6088L13.7885 18.8443L14.8076 26.7212C14.3559 26.7854 14.2855 26.8168 13.7908 26.8867C13.3549 25.3579 12.521 24.3597 11.6096 23.7783C10.8058 23.2655 9.69711 23.1501 8.63586 23.3586L8.56772 23.4371C9.30559 23.3608 10.1767 23.467 11.0716 24.0294C11.9499 24.5806 12.6576 26.0044 12.9182 26.8617C13.2517 27.9574 13.4825 29.1293 12.5846 30.3715C11.9457 31.2545 10.0807 31.7426 8.57412 30.6869C8.97656 31.3293 9.52055 31.8547 10.2528 31.9537C11.34 32.1002 12.3719 31.913 13.0823 31.1891C13.6888 30.5703 14.0103 29.2762 13.9256 27.9133L14.8852 27.775L15.2315 30.2212L31.1176 28.3225L29.8215 15.7736ZM20.1565 9.13028C20.112 9.2308 20.0424 9.29657 20.1471 9.62356L20.1535 9.64225L20.17 9.68448L20.2137 9.78239C20.4023 10.1651 20.6094 10.5261 20.9553 10.7103C21.0449 10.6953 21.1375 10.6852 21.2335 10.6804C21.5584 10.6662 21.7636 10.7174 21.8939 10.7869C21.9055 10.7226 21.9082 10.6284 21.901 10.4898C21.8758 10.0051 21.9978 9.18073 21.0592 8.74686C20.705 8.58355 20.208 8.634 20.0424 8.83767C20.0725 8.8414 20.0996 8.84776 20.1207 8.85486C20.371 8.94193 20.2013 9.02751 20.1565 9.13028ZM22.7868 13.6528C22.6637 13.5855 22.0885 13.6121 21.6842 13.6599C20.9139 13.75 20.0823 14.0153 19.9001 14.1566C19.5688 14.4107 19.7194 14.8539 19.9641 15.0359C20.6504 15.5449 21.252 15.8861 21.8871 15.8031C22.2771 15.7523 22.6208 15.1394 22.8644 14.5833C23.0312 14.2003 23.0312 13.787 22.7868 13.6528ZM15.9675 9.73044C16.1848 9.52565 14.8856 9.25659 13.8774 9.93897C13.1339 10.4423 13.1102 11.5216 13.8221 12.1333C13.8932 12.1939 13.9519 12.2369 14.0069 12.272C14.2147 12.1748 14.4515 12.0765 14.7241 11.9887C15.1845 11.8404 15.5673 11.7638 15.8821 11.723C16.0327 11.556 16.2077 11.2619 16.164 10.7293C16.1046 10.007 15.553 10.1217 15.9675 9.73044Z" fill="#632CA6"/>
</svg>
