<svg width="226" height="299" viewBox="0 0 226 299" style="filter: grayscale(100%);" fill="none" xmlns="http://www.w3.org/2000/svg">
<g filter="url(#filter0_d_2_29)">
<path d="M98.5421 256.565C101.895 256.343 105.315 256.749 108.667 256.868C113.037 257.023 117.459 256.959 121.828 256.748C124.011 256.643 131.585 255.879 132.941 256.768L132.875 257.039C131.459 257.624 130.185 257.911 128.685 258.172C121.16 259.761 112.466 259.756 104.798 259.252C103.041 259.137 101.247 259.062 99.5001 258.833C98.1068 258.649 96.5754 258.347 95.1714 258.552L94.7501 258.623L94.4848 258.375L94.7048 257.875C95.9881 257.128 97.0668 256.766 98.5421 256.565Z" fill="#1850C2"/>
<path d="M218 180.38C219.176 177.893 220.029 175.292 221.51 172.972C221.565 176.034 221.537 179.096 221.5 182.157C221.474 184.274 221.538 186.418 221.061 188.494C220.2 192.248 217.907 195.829 215.273 198.589C212.413 201.587 208.627 203.943 205.122 206.118L203.816 206.152L203.572 205.75C204.989 204.062 206.692 202.64 208.075 200.915C212.512 195.376 214.6 189.374 217.575 183.056C218.067 182.011 218.176 181.55 218 180.38Z" fill="#FF915E"/>
<path d="M217.194 71.9927C217.194 71.8361 217.628 71.3141 217.724 71.1767C218.694 69.7887 219.708 68.4501 220.759 67.1221C221.125 69.9814 221.177 72.8881 221.149 75.7687C221.132 77.5434 221.156 79.3541 220.664 81.0747C219.932 83.6347 218.376 86.1781 216.745 88.2654C213.484 92.4394 209.485 95.2814 204.917 97.8761L203.625 97.7654C203.561 97.6354 203.43 97.5201 203.434 97.3747C203.435 97.3554 204.22 96.5267 204.267 96.4747C205.126 95.5321 205.961 94.5614 206.714 93.5314C209.975 89.0641 212.482 83.9394 214.602 78.8507C215.538 76.6074 216.524 74.3321 217.194 71.9927Z" fill="#FDE7E2"/>
<path d="M20.6801 206.206C17.2034 204.457 13.7961 201.907 11.0848 199.132C8.43942 196.424 6.08208 193.105 5.09075 189.403C4.44408 186.988 4.56875 184.439 4.59409 181.961C4.62675 178.844 4.66742 175.727 4.71008 172.609L10.8994 183.7C10.8654 184.57 10.8954 185.181 11.2074 186.002C12.9694 190.638 14.5481 195 17.1261 199.282C17.9754 200.691 18.8534 202.114 19.8041 203.458C20.3094 204.172 21.0354 204.786 21.1554 205.682L20.6801 206.206Z" fill="#FAFAFB"/>
<path d="M4.95942 65.2361L5.11542 65.4521C7.12342 68.2828 8.28809 70.7428 10.9661 73.0961C13.0988 82.0241 16.5181 90.5254 22.9608 97.2414C23.2334 97.5254 23.1274 97.3321 23.1108 97.8801L22.4394 98.2161C17.6681 95.6001 12.7281 91.9428 9.34875 87.6561C7.32475 85.0881 5.22142 81.8441 4.78076 78.5488C4.52742 76.6488 4.70676 74.5234 4.71742 72.6021C4.73142 70.1514 4.66808 67.6714 4.95942 65.2361Z" fill="#FAFAFB"/>
<path d="M217.504 100.699C218.735 98.3368 219.87 95.7935 221.479 93.6635C221.346 97.8101 221.296 101.949 221.277 106.098C221.266 108.657 221.452 111.431 221.122 113.963C220.522 118.557 217.788 122.581 214.449 125.675C211.382 128.516 207.9 130.591 204.306 132.675L203.634 132.401C203.53 131.681 206.545 128.91 207.152 128.148C209.346 125.389 211.05 122.211 212.582 119.046C215.39 113.241 217.575 107.235 217.504 100.699Z" fill="#FDE7E2"/>
<path d="M20.9694 132.684C16.3894 130.124 11.6988 126.863 8.36942 122.767C6.97209 121.048 5.87075 118.981 5.33475 116.825C4.45075 113.267 4.74341 109.396 4.74675 105.75C4.75008 101.861 4.62275 97.9028 5.04475 94.0348L8.89075 101.014C8.42275 102.593 11.2581 113.145 11.9028 115.077C12.7361 117.57 13.7621 119.991 15.1788 122.214C17.2781 125.507 20.0348 128.567 21.8801 131.987C21.5468 132.369 21.4541 132.493 20.9694 132.684Z" fill="#FAFAFB"/>
<path d="M19.0047 177.832L12.7907 172.339C9.02074 168.338 6.41206 163.583 5.2034 158.219C4.50273 155.111 4.56873 151.723 4.54473 148.551C4.5034 143.109 4.6474 137.683 4.80807 132.244L7.41007 137.169C6.70207 142.829 9.09541 149.039 10.8901 154.319C12.8327 160.034 14.7001 165.422 17.6647 170.723C18.7407 172.646 19.8181 174.568 20.8927 176.49C21.2054 177.049 21.7907 177.748 21.7241 178.375C20.8054 178.533 19.9387 177.941 19.0047 177.832Z" fill="#FAFAFB"/>
<path d="M219.582 134.94L221.27 132.413C221.573 136.405 221.477 140.437 221.482 144.438C221.488 148.756 221.596 153.057 220.832 157.327C219.873 162.687 217.323 167.75 213.796 171.875C210.68 175.52 206.421 178.481 202.353 180.988C202.172 180.771 201.786 180.309 201.828 180C201.936 179.217 204.406 176.737 205.007 175.907C212.188 165.981 216.076 153.953 218.48 142.045C218.943 139.751 219.714 137.275 219.582 134.94Z" fill="#FC5D37"/>
<path d="M56.8281 212.622C64.1074 215.824 71.0874 219.7 78.2154 223.212C82.0148 225.085 86.4061 226.623 89.9941 228.843L89.6794 228.871C88.9201 228.896 88.3574 228.654 87.7501 228.25L86.3761 227.563L86.0594 227.399C85.6568 227.198 85.8728 227.287 85.4921 227.192C85.0928 227.092 84.6774 226.784 84.2501 226.626L83.0901 226.02C82.5668 225.738 82.0301 225.526 81.5001 225.25L81.0001 225.126L80.3761 224.813C79.6094 224.422 78.8228 223.9 77.9881 223.692C77.6421 223.605 77.5401 223.438 77.2501 223.25L75.3241 222.266C74.6468 221.901 75.2368 222.177 74.5628 221.999C74.1374 221.887 73.8094 221.54 73.5001 221.25C73.0094 221.603 72.7148 221.89 72.3414 222.367C71.9581 222.857 71.6074 222.91 71.1254 223.25L70.7101 223.671C70.4308 223.95 70.5368 223.837 70.1788 224.124C69.6874 224.518 70.0248 224.212 69.6228 224.75C68.9168 225.696 68.1748 226.641 67.2501 227.375L67.2488 227.749L66.9434 228.039C66.5421 228.44 66.6627 228.254 66.4987 228.749C66.0341 229.098 65.9521 229.128 65.3741 229.188L65.6361 229.317L67.8781 230.399C68.2768 230.565 68.5134 230.804 68.8748 231L74.3741 233.688L76.5001 234.75L77.1081 235.059L76.4821 235.189C75.7601 235.038 74.9454 234.493 74.2814 234.161C72.7348 233.387 71.1881 232.612 69.6401 231.841C62.8961 228.484 55.5961 225.368 49.2048 221.378L49.4148 221.117C49.1688 220.872 49.0028 220.745 48.6814 220.598L47.1054 219.817L46.8127 219.688L47.1227 219.375L47.5627 219.499C48.9627 220.095 47.1808 219.478 48.3748 219.873L48.7487 219.249L48.7501 218.875C49.0741 218.735 49.3541 218.622 49.7027 218.553C51.0721 218.282 51.8307 216.597 52.9567 215.806L54.0001 215.123C54.5554 214.734 54.6921 214.44 54.7487 213.749C54.7954 213.188 54.8554 213.269 55.2501 212.873L55.6254 213.123L56.2501 212.75L56.7901 213.175L56.8281 212.622Z" fill="#FF915E"/>
<path d="M4.74008 47.5368L4.99541 46.3808C6.29408 44.7054 9.66608 43.5161 11.6074 42.5514C17.2914 39.7274 23.0494 37.0581 28.7481 34.2634C39.9994 28.7461 51.2594 23.2681 62.5321 17.7921C72.2388 13.0761 81.9148 8.25408 91.9181 4.18807C95.9335 2.55607 100.359 1.10674 104.678 0.553409C111.664 -0.342592 118.921 -0.28259 125.751 1.62408C135.793 4.42675 145.271 9.57608 154.615 14.1034C158.159 15.8201 161.777 17.3774 165.323 19.0854C173.527 23.0368 181.655 27.1461 189.874 31.0654C197.947 34.9148 206.131 38.5528 214.098 42.6174C216.331 43.7568 218.981 44.7761 220.96 46.3001L220.764 46.8414L220.222 46.9921C215.482 45.1221 211.15 42.6914 206.515 40.6268C188.931 32.7921 171.716 24.2268 154.293 16.0547C143.747 11.1087 132.895 4.70007 121.299 2.6474C114.593 1.46007 107.656 1.38608 101.041 3.11541C95.5288 4.55675 90.3935 6.83608 85.2041 9.14808C79.0101 11.9081 72.8788 14.7761 66.7748 17.7248C53.3974 24.1874 40.0094 30.5934 26.6868 37.1714C22.2841 39.3454 17.8534 41.4921 13.4314 43.6254C11.1061 44.7468 8.50275 45.6588 6.39408 47.1574L4.74008 47.5368Z" fill="#416DCE"/>
<path d="M10.8994 183.7C16.8594 190.755 23.8101 195.052 31.7501 199.497C37.4301 202.677 43.2201 205.709 49.0348 208.637C51.0574 209.655 53.0948 210.643 55.1048 211.686C55.5261 211.904 56.5348 212.276 56.8281 212.622L56.7901 213.175L56.2501 212.75L55.6254 213.123L55.2501 212.873C54.8554 213.269 54.7954 213.188 54.7488 213.749C54.6921 214.44 54.5554 214.734 54.0001 215.123L52.9568 215.806C51.8308 216.597 51.0721 218.282 49.7028 218.553C49.3541 218.622 49.0741 218.735 48.7501 218.875L48.7487 219.249L48.3748 219.873C47.1808 219.478 48.9628 220.095 47.5628 219.499L47.1228 219.375L46.8128 219.688L47.1054 219.817L48.6814 220.598C49.0028 220.745 49.1688 220.872 49.4148 221.117L49.2048 221.378C47.5688 220.744 46.0054 219.79 44.4554 218.965C41.7068 217.502 38.9594 216.04 36.2188 214.561C31.0528 211.773 25.7174 209.214 20.6801 206.206L21.1554 205.682C21.0354 204.786 20.3094 204.172 19.8041 203.458C18.8534 202.114 17.9754 200.691 17.1261 199.282C14.5481 195 12.9694 190.638 11.2074 186.002C10.8954 185.181 10.8654 184.57 10.8994 183.7Z" fill="url(#paint0_linear_2_29)"/>
<path d="M10.9661 73.0961C16.6061 76.7567 22.6541 79.8121 28.5434 83.0474C40.6807 89.7167 52.8747 96.2261 65.2501 102.443C76.3801 108.033 87.4028 114.153 99.0094 118.682L98.9934 119.111C98.4341 118.965 98.6788 119.091 98.2501 118.75L97.9261 118.727C97.4388 118.682 97.3981 118.575 97.0001 118.375C96.0908 117.917 94.7354 117.381 93.7501 117.125C92.8928 116.903 93.6874 117.145 93.0001 116.75L92.5001 116.625C91.8388 116.453 92.2654 116.601 91.7501 116.25C91.2994 115.943 90.9194 115.759 90.3748 115.75L89.7501 115.25L89.3748 115.373C89.0834 115.009 89.0561 114.803 88.5941 114.711C88.1374 114.62 88.1161 114.436 87.7501 114.25C87.0914 113.915 86.3401 113.735 85.7501 113.25L85.3748 113.373L84.8748 112.75L84.6174 112.727C84.1641 112.636 83.9428 112.415 83.5874 112.151C83.2708 111.915 83.4088 112.021 82.9374 111.813L81.2901 111.124C80.9154 110.973 81.0514 111.048 80.7501 110.75L80.5394 110.711C80.0394 110.586 79.6801 110.263 79.2501 110L74.3721 107.601C73.9734 107.435 73.7368 107.197 73.3748 107L71.8241 106.266C70.6901 105.655 72.1341 106.391 71.0628 105.999L70.7501 105.811C70.2074 105.515 70.0681 105.483 69.5001 105.625L69.6227 106.125L69.1227 106.625L69.1788 106.828L69.3727 107.875L68.8748 108.5L68.4987 108.499L68.2728 108.913C68.0768 109.268 67.8401 109.444 67.6227 109.75L67.5068 109.992C67.3414 110.326 67.1414 110.501 66.8727 110.75C66.8727 111.241 66.9574 111.257 66.6381 111.656C66.4101 111.941 66.3247 112.236 66.1254 112.5L65.8727 112.75C65.6547 113.04 65.6621 113.213 65.3748 113.5V113.75L65.1554 114.015C64.6568 114.635 65.0701 114.108 64.6574 114.727C64.3367 115.207 63.9614 115.507 63.5454 115.895C63.0614 116.346 63.5567 115.867 63.1227 116.5C62.8227 116.937 62.2674 117.397 61.7487 117.499L61.4987 118.249C61.0027 118.463 60.8361 118.455 60.3127 118.437L60.6054 118.567L64.4261 120.484C64.9074 120.743 64.6841 120.666 65.1874 120.751L65.5001 121L66.6601 121.59C67.1221 121.799 66.9201 121.701 67.3867 122.012C67.7687 122.267 67.9061 122.203 68.2501 122.375C68.8728 122.687 69.4568 123.122 70.1088 123.395C70.6361 123.615 70.3941 123.488 70.8741 123.847C71.3081 124.172 71.5508 124.158 72.0001 124.375C72.1648 124.455 72.3574 124.629 72.5001 124.75L72.8748 124.627C73.1668 124.991 73.1941 125.197 73.6561 125.289C74.1008 125.378 74.1454 125.518 74.5001 125.75L77.3741 127.187C78.8548 127.872 80.7368 128.675 82.0508 129.613C82.3114 129.799 82.1801 129.729 82.4961 129.809C82.8534 129.898 82.6754 129.825 82.9928 130.063C83.3088 130.299 83.4901 130.321 83.8728 130.375C84.1101 130.611 84.1441 130.708 84.4688 130.789C84.8408 130.882 84.9414 131.051 85.2501 131.25L88.1241 132.687L90.1241 133.687C90.9201 134.055 91.6574 134.595 92.5121 134.809C92.9148 134.909 93.3161 135.219 93.7501 135.375C94.0748 135.492 94.3708 135.685 94.6501 135.882L94.4541 136.134C91.6634 135.378 88.6474 133.495 86.0448 132.181C80.0267 129.143 74.0414 126.031 68.0614 122.919C56.6201 116.965 44.9747 111.335 33.7501 104.977C29.9594 102.829 26.0221 100.705 22.4394 98.2161L23.1107 97.8801C23.1274 97.3321 23.2334 97.5254 22.9607 97.2414C16.5181 90.5254 13.0987 82.0241 10.9661 73.0961Z" fill="url(#paint1_linear_2_29)"/>
<path d="M7.41009 137.169C11.2474 142.09 15.9981 146.567 21.2168 150.008C25.5828 152.887 30.3234 155.154 34.9521 157.571C39.1988 159.79 43.4028 162.085 47.6874 164.229C52.1201 166.448 56.6768 168.535 61.0234 170.911L60.1254 171.105L59.8728 170.875L59.6008 171.108C59.2641 171.377 59.0208 171.487 58.6228 171.625L58.4988 171.999C58.2414 172.404 57.9941 172.537 57.7488 172.999C57.5428 173.387 57.1221 173.668 56.7501 173.875L56.7488 174.249L56.4295 174.479C55.8495 174.903 55.2681 175.339 54.9988 175.999L54.2488 177.499L53.7501 177.625L53.7488 177.999L53.2501 178.125L53.2488 178.499L52.7501 178.625L52.7488 178.999C52.4128 179.335 52.5121 179.371 52.0001 179.375L51.9988 179.749L51.5001 179.875L51.4988 180.249L51.0001 180.375L50.9988 180.749C50.4701 181.297 50.1194 181.609 49.4988 181.999L48.8748 182.623L48.5001 182.625C48.3008 183.021 48.1914 183.306 47.8748 183.623L47.6228 183.375L47.4988 183.749C47.1788 184.315 46.5208 184.704 45.9988 184.999L44.9608 185.842C44.2421 186.417 43.7828 187.027 42.9988 187.499C42.5701 187.757 42.4388 188.087 42.2488 188.499C42.0468 188.938 41.8534 189.086 41.5001 189.375L41.4988 189.749L40.3148 190.563C39.9454 190.79 40.0981 190.681 39.7794 190.953C32.7254 187.513 24.7348 183.283 19.0048 177.832C19.9388 177.941 20.8054 178.533 21.7241 178.375C21.7908 177.748 21.2054 177.049 20.8928 176.49C19.8181 174.568 18.7408 172.646 17.6648 170.723C14.7001 165.422 12.8328 160.034 10.8901 154.319C9.09543 149.039 6.70209 142.829 7.41009 137.169Z" fill="url(#paint2_linear_2_29)"/>
<path d="M82.7821 280.139C77.7487 278.182 72.7288 275.259 67.9008 272.811C58.9121 268.255 49.9247 263.686 40.9287 259.145C32.7501 255.016 24.6167 250.811 16.4527 246.657C12.5974 244.695 8.31005 243.049 4.72671 240.646C4.14804 237.265 4.54071 233.232 4.54605 229.784C4.55338 224.443 4.30938 218.971 4.69872 213.647L4.87471 215.84L5.12538 215.623L6.08538 215.641C8.99605 220.323 11.8954 224.371 16.3307 227.749C18.4247 229.344 20.8641 230.572 23.1867 231.796C27.1167 233.867 31.1147 235.801 35.0494 237.86C54.9594 248.281 75.0201 258.454 95.6754 267.332C94.8061 268.184 95.5461 267.349 95.2501 267.877L94.8774 268.375L94.9388 268.727C95.0188 269.218 94.9994 269.019 95.0014 269.501L94.5014 269.563C94.1908 270.191 94.1968 270.742 94.0001 271.375L93.4228 272.293C93.1434 272.713 93.3181 272.428 93.1274 273L93.0014 273.313L92.8774 273.75L92.7528 274.051C92.5794 274.483 92.5368 274.878 92.4474 275.329C92.3661 275.737 92.3994 275.592 92.1274 276C92.1254 276.589 92.1861 276.535 91.8774 277C91.7721 277.159 91.6768 277.602 91.6274 277.75L91.5014 278.063L91.3774 278.5L91.2514 278.813L91.1274 279.25L90.9987 279.531C90.8261 279.964 90.8308 280.355 90.8128 280.813L90.6028 281.063C90.3521 281.387 90.3234 281.493 90.2501 281.875L90.1794 282.219L90.1254 282.5L89.7514 282.502L89.3748 282.877L89.0001 282.627L88.7574 282.572C88.4221 282.488 88.2614 282.342 88.0001 282.127L87.5001 282.125C87.2368 281.863 87.1414 281.679 86.7807 281.588C86.1047 281.418 85.0221 280.727 84.3748 280.377L84.0001 280.127L83.4987 280.005L82.9174 279.775L82.7821 280.139Z" fill="#FF915E"/>
<path d="M8.89074 101.014C12.6341 106.056 16.9374 110.833 22.0774 114.491C31.2941 121.05 42.2028 125.652 52.2368 130.832C64.9401 137.389 77.6048 144.626 90.7668 150.216C95.9441 152.414 101.506 154.58 107.095 155.398L110.599 155.806L110.803 155.868C111.869 156.166 112.904 156.133 113.999 156.126C112.596 156.502 110.601 156.258 109.125 156.25L108.75 156C108.13 155.982 107.707 156 107.125 155.75L106.75 155.812C105.923 155.87 105.031 155.242 104.375 155.378L104.561 155.75L104.625 156.25L104.873 156.375L104.25 156.875C104.248 157.32 104.248 157.56 104.373 158C104.031 158.344 104.077 158.226 103.999 158.688L103.873 159.126V159.626L103.623 159.875C103.884 160.782 103.885 161.44 103.873 162.375L103.563 162.688L103.873 163L103.563 163.438L103.873 163.75L103.5 164.126L103.561 164.454C103.627 164.859 103.632 165.218 103.623 165.626L103.25 165.875L103.249 166.188L103.124 166.688L103.249 166.938C103.324 167.316 103.261 167.297 103.063 167.563L103.373 168C103.251 168.639 102.997 169.196 102.5 169.626L102.623 170.126L102.25 170.375L102.373 170.875L102 171.126L102.061 171.5L101.313 172.124C101.905 172.295 101.57 172.231 102.128 172.278C102.634 172.32 102.393 172.264 102.875 172.5C103.319 172.718 103.702 172.717 104.179 172.774C104.55 172.818 104.439 172.813 104.875 173L105.375 172.878C105.978 173.476 107.021 173.268 107.875 173.5L108.687 173.563L109.135 173.66C110.641 173.977 112.569 173.762 114.125 173.75L114.055 173.942L114.028 174.196C108.958 174.332 103.879 173.524 99.0695 171.908C91.7381 169.444 84.8195 165.968 77.9374 162.474C69.4894 158.185 61.1321 153.723 52.7054 149.394C45.3254 145.603 37.8888 141.974 30.5734 138.052C27.3481 136.324 24.0194 134.712 20.9694 132.684C21.4541 132.493 21.5468 132.369 21.8801 131.988C20.0348 128.567 17.2781 125.507 15.1788 122.214C13.7621 119.992 12.7361 117.57 11.9027 115.077C11.2581 113.145 8.42274 102.593 8.89074 101.014Z" fill="url(#paint3_linear_2_29)"/>
<path d="M218 180.38C218.176 181.549 218.067 182.011 217.575 183.056C214.6 189.374 212.512 195.376 208.075 200.915C206.692 202.64 204.989 204.061 203.572 205.75L203.816 206.152L205.122 206.118C193.523 213.026 180.978 218.6 168.907 224.652C159.107 229.567 149.397 234.741 139.443 239.337C133.962 241.867 128.371 244.493 122.5 245.977C115.885 247.65 108.835 247.58 102.227 245.906C95.1148 244.104 88.5074 241.09 81.9128 237.934C80.1674 237.098 78.0547 236.304 76.4821 235.189L77.1081 235.059L76.5001 234.75L74.3741 233.687L68.8748 231C68.5134 230.803 68.2767 230.565 67.8781 230.399L65.6361 229.317L65.3741 229.187C65.9521 229.127 66.0341 229.097 66.4987 228.749C66.6627 228.253 66.5421 228.44 66.9434 228.039L67.2487 227.749L67.2501 227.375C68.1747 226.641 68.9167 225.695 69.6227 224.75C70.0247 224.212 69.6874 224.517 70.1788 224.123C70.5368 223.837 70.4308 223.949 70.7101 223.671L71.1254 223.25C71.6074 222.91 71.9581 222.857 72.3414 222.367C72.7147 221.89 73.0094 221.603 73.5001 221.25C73.8094 221.539 74.1374 221.887 74.5627 221.999C75.2367 222.177 74.6467 221.901 75.3241 222.266L77.2501 223.25C77.5401 223.438 77.6421 223.605 77.9881 223.691C78.8228 223.9 79.6094 224.422 80.3761 224.813L81.0001 225.125L81.5001 225.25C82.0301 225.525 82.5668 225.737 83.0901 226.019L84.2501 226.625C84.6774 226.783 85.0928 227.091 85.4921 227.191C85.8728 227.287 85.6568 227.197 86.0594 227.399L86.3761 227.563L87.7501 228.25C88.3574 228.653 88.9201 228.896 89.6794 228.871L89.9941 228.843C90.3028 228.829 90.7914 229.126 91.0894 229.249C92.3701 229.779 93.6474 230.317 94.9354 230.829C103.858 234.377 112.647 235.32 122.011 232.946C133.82 229.952 144.655 223.346 155.556 218.129C165.651 213.297 175.671 208.334 185.668 203.301C191.921 200.153 198.638 197.065 204.486 193.228C209.694 189.811 214.795 185.801 218 180.38Z" fill="#FC5D37"/>
<path d="M4.69874 213.648C4.4854 211.815 4.1654 202.443 4.87473 201.287L5.17206 201.345C7.6034 202.111 9.70007 206.128 11.0021 208.147C12.7647 210.882 14.6267 213.545 16.5834 216.145C18.1154 218.18 19.6674 220.248 21.7114 221.799C25.6707 224.804 30.7607 226.834 35.1741 229.106C42.8181 233.042 50.4101 237.044 58.0888 240.917C71.5114 247.686 84.6854 255.282 98.4308 261.366C100.845 262.435 103.407 263.29 105.995 263.832C111.364 264.955 116.785 264.654 122.031 263.098C130.209 260.672 137.805 256.389 145.418 252.622C158.639 246.082 171.742 239.32 184.796 232.459C189.016 230.24 193.305 228.171 197.514 225.929C200.137 224.531 202.77 223.194 205.101 221.326C209.001 218.201 212.659 213.567 214.814 209.034C215.657 207.262 216.35 205.084 217.57 203.559C218.551 202.332 219.955 201.477 221.25 200.618C221.819 204.291 221.457 208.401 221.119 212.082C218.54 217.61 215.138 222.686 210.306 226.506C206.34 229.642 201.701 231.743 197.239 234.056C191.54 237.01 185.829 239.924 180.109 242.834C170.403 247.773 160.749 252.798 150.981 257.612C143.815 261.145 136.562 264.708 129.04 267.426C124.403 269.102 119.569 270.46 114.625 270.775C108.385 271.173 101.451 269.675 95.6754 267.332C75.0201 258.454 54.9594 248.281 35.0494 237.86C31.1148 235.801 27.1167 233.867 23.1867 231.796C20.8641 230.572 18.4247 229.344 16.3307 227.749C11.8954 224.371 8.99607 220.324 6.08541 215.642L5.1254 215.623L4.87473 215.84L4.69874 213.648Z" fill="#FAFAFB"/>
<path d="M217.504 100.699C217.575 107.235 215.39 113.241 212.582 119.046C211.05 122.211 209.346 125.389 207.152 128.148C206.545 128.91 203.53 131.681 203.634 132.401L204.306 132.675C197.777 137.39 189.79 140.876 182.6 144.453C172.595 149.432 162.656 154.437 152.575 159.263C144.997 162.892 137.547 167.186 129.749 170.29C126.056 171.759 122.391 172.99 118.482 173.717C117.121 173.971 115.407 174.307 114.028 174.195L114.055 173.942L114.125 173.75C112.569 173.762 110.641 173.977 109.135 173.66L108.687 173.563L107.875 173.5C107.021 173.268 105.978 173.476 105.375 172.877L104.875 173C104.439 172.813 104.55 172.817 104.179 172.773C103.702 172.717 103.319 172.717 102.875 172.5C102.393 172.264 102.634 172.319 102.128 172.277C101.57 172.231 101.905 172.295 101.313 172.124L102.061 171.5L102 171.125L102.373 170.875L102.25 170.375L102.623 170.125L102.5 169.625C102.997 169.196 103.251 168.639 103.373 168L103.063 167.563C103.261 167.297 103.324 167.315 103.249 166.937L103.124 166.687L103.249 166.187L103.25 165.875L103.623 165.625C103.632 165.217 103.627 164.859 103.561 164.453L103.5 164.125L103.873 163.75L103.563 163.437L103.873 163L103.563 162.687L103.873 162.375C103.885 161.439 103.884 160.782 103.623 159.875L103.873 159.625V159.125L103.999 158.687C104.077 158.226 104.031 158.343 104.373 158C104.248 157.56 104.248 157.32 104.25 156.875L104.873 156.375L104.625 156.25L104.561 155.75L104.375 155.377C105.031 155.241 105.923 155.87 106.75 155.811L107.125 155.75C107.707 155.999 108.13 155.982 108.75 156L109.125 156.25C110.601 156.258 112.596 156.502 113.999 156.125C112.904 156.133 111.869 156.166 110.803 155.867L110.599 155.805C114.428 155.793 118.029 155.537 121.781 154.709C129.209 153.07 136.504 149.161 143.332 145.881C153.636 140.93 163.784 135.703 173.976 130.533C183.542 125.68 193.89 121.315 202.75 115.257C208.634 111.233 213.648 106.733 217.504 100.699Z" fill="#FC5D37"/>
<path d="M221.119 212.082C221.841 216.208 221.412 221.031 221.434 225.235C221.458 229.901 221.748 234.726 221.467 239.375C221.439 239.844 221.233 240.196 220.954 240.568C220.058 241.764 218.453 242.688 217.155 243.406C212.383 246.045 207.278 248.261 202.357 250.628C197.193 253.112 192.105 255.778 187.02 258.419C173.459 265.464 159.946 272.62 146.205 279.304C141.226 281.726 136.259 284.314 131.171 286.487C126.808 288.35 121.985 289.904 117.25 290.406C106.591 291.534 98.1654 288.058 88.9221 283.336C87.0234 282.366 84.4154 281.452 82.7821 280.14L82.9174 279.775L83.4988 280.006L84.0001 280.128L84.3748 280.378C85.0221 280.727 86.1048 281.418 86.7808 281.588C87.1414 281.679 87.2368 281.863 87.5001 282.126L88.0001 282.128C88.2614 282.342 88.4221 282.488 88.7574 282.572L89.0001 282.628L89.3748 282.878L89.7514 282.502L90.1254 282.5L90.1794 282.219L90.2501 281.875C90.3234 281.494 90.3521 281.387 90.6028 281.063L90.8128 280.813C90.8308 280.355 90.8261 279.964 90.9988 279.532L91.1274 279.25L91.2514 278.813L91.3774 278.5L91.5014 278.063L91.6274 277.75C91.6768 277.602 91.7721 277.159 91.8774 277C92.1861 276.536 92.1254 276.589 92.1274 276C92.3994 275.592 92.3661 275.737 92.4474 275.329C92.5368 274.878 92.5794 274.484 92.7528 274.051L92.8774 273.75L93.0014 273.313L93.1274 273C93.3181 272.428 93.1434 272.713 93.4228 272.293L94.0001 271.375C94.1968 270.742 94.1908 270.192 94.5015 269.563L95.0015 269.502C94.9995 269.02 95.0188 269.218 94.9388 268.727L94.8774 268.375L95.2501 267.878C95.5461 267.35 94.8061 268.184 95.6754 267.332C101.451 269.675 108.385 271.173 114.625 270.775C119.569 270.46 124.403 269.102 129.04 267.426C136.562 264.708 143.815 261.145 150.981 257.612C160.749 252.798 170.403 247.773 180.109 242.834C185.829 239.924 191.54 237.009 197.239 234.056C201.701 231.743 206.34 229.642 210.306 226.506C215.138 222.686 218.54 217.61 221.119 212.082Z" fill="#FC5D37"/>
<path d="M99.0094 118.682C101.735 119.495 104.531 120.242 107.365 120.547C113.869 121.247 119.768 120.525 126 118.489C133.418 116.065 140.463 112.241 147.481 108.855C161.636 102.023 175.587 94.8741 189.495 87.5581C195.553 84.3715 201.533 81.0921 207.511 77.7568C210.865 75.8848 214.189 74.4221 217.194 71.9928C216.524 74.3321 215.538 76.6075 214.602 78.8508C212.482 83.9395 209.975 89.0641 206.713 93.5315C205.961 94.5615 205.126 95.5321 204.267 96.4748C204.219 96.5268 203.435 97.3555 203.434 97.3748C203.43 97.5201 203.561 97.6355 203.625 97.7655L204.917 97.8761C199.188 101.447 193.147 104.515 187.173 107.648C179.129 111.868 171.081 116.041 162.991 120.173C156.544 123.465 150.043 126.629 143.557 129.839C137.075 133.045 130.327 136.702 123.375 138.726C117.196 140.525 110.812 141.093 104.497 139.625C102.794 139.229 95.3274 137.235 94.4541 136.134L94.6501 135.882C94.3708 135.685 94.0748 135.492 93.7501 135.375C93.3161 135.219 92.9148 134.909 92.5121 134.809C91.6574 134.595 90.9201 134.055 90.1241 133.687L88.1241 132.687L85.2501 131.25C84.9414 131.051 84.8408 130.882 84.4688 130.789C84.1441 130.708 84.1101 130.611 83.8728 130.375C83.4901 130.321 83.3088 130.299 82.9928 130.063C82.6754 129.825 82.8534 129.898 82.4961 129.809C82.1801 129.729 82.3114 129.799 82.0508 129.613C80.7367 128.675 78.8548 127.872 77.3741 127.187L74.5001 125.75C74.1454 125.518 74.1008 125.378 73.6561 125.289C73.1941 125.197 73.1668 124.991 72.8748 124.627L72.5001 124.75C72.3574 124.629 72.1648 124.455 72.0001 124.375C71.5508 124.158 71.3081 124.172 70.8741 123.847C70.3941 123.488 70.6361 123.615 70.1087 123.395C69.4567 123.122 68.8728 122.687 68.2501 122.375C67.9061 122.203 67.7687 122.267 67.3867 122.012C66.9201 121.701 67.1221 121.799 66.6601 121.59L65.5001 121L65.1874 120.751C64.6841 120.666 64.9074 120.743 64.4261 120.484L60.6054 118.567L60.3127 118.437C60.8361 118.455 61.0027 118.463 61.4987 118.249L61.7487 117.499C62.2674 117.397 62.8227 116.937 63.1227 116.5C63.5567 115.867 63.0614 116.346 63.5454 115.895C63.9614 115.507 64.3367 115.207 64.6574 114.727C65.0701 114.108 64.6568 114.635 65.1554 114.015L65.3748 113.75V113.5C65.6621 113.213 65.6547 113.04 65.8727 112.75L66.1254 112.5C66.3247 112.236 66.4101 111.941 66.6381 111.656C66.9574 111.257 66.8727 111.241 66.8727 110.75C67.1414 110.501 67.3414 110.326 67.5068 109.992L67.6227 109.75C67.8401 109.444 68.0767 109.268 68.2727 108.913L68.4987 108.499L68.8748 108.5L69.3727 107.875L69.1788 106.828L69.1227 106.625L69.6227 106.125L69.5001 105.625C70.0681 105.483 70.2074 105.515 70.7501 105.811L71.0627 105.999C72.1341 106.391 70.6901 105.655 71.8241 106.266L73.3748 107C73.7368 107.197 73.9734 107.435 74.3721 107.601L79.2501 110C79.6801 110.263 80.0394 110.586 80.5394 110.711L80.7501 110.75C81.0514 111.048 80.9154 110.973 81.2901 111.124L82.9374 111.813C83.4088 112.021 83.2708 111.915 83.5874 112.151C83.9428 112.415 84.1641 112.636 84.6174 112.727L84.8748 112.75L85.3748 113.373L85.7501 113.25C86.3401 113.735 87.0914 113.915 87.7501 114.25C88.1161 114.436 88.1374 114.62 88.5941 114.711C89.0561 114.803 89.0834 115.009 89.3748 115.373L89.7501 115.25L90.3748 115.75C90.9194 115.759 91.2994 115.943 91.7501 116.25C92.2654 116.601 91.8388 116.453 92.5001 116.625L93.0001 116.75C93.6874 117.145 92.8928 116.903 93.7501 117.125C94.7354 117.381 96.0908 117.917 97.0001 118.375C97.3981 118.575 97.4388 118.682 97.9261 118.727L98.2501 118.75C98.6788 119.091 98.4341 118.965 98.9934 119.111L99.0094 118.682Z" fill="#FC5D37"/>
<path d="M220.96 46.3C221.18 46.7627 221.266 46.7314 221.138 47.2507C220.83 48.5001 220.993 50.0621 220.979 51.3594C220.942 54.7654 220.936 58.1721 220.932 61.5781C220.929 63.3174 221.154 65.4434 220.759 67.1221C219.708 68.4501 218.694 69.7887 217.724 71.1767C217.628 71.3141 217.194 71.8361 217.194 71.9927C214.189 74.4221 210.865 75.8847 207.511 77.7567C201.534 81.0921 195.554 84.3714 189.495 87.5581C175.587 94.8741 161.636 102.023 147.481 108.855C140.463 112.241 133.418 116.065 126 118.489C119.768 120.525 113.869 121.247 107.365 120.547C104.531 120.242 101.735 119.495 99.0095 118.682C87.4028 114.153 76.3801 108.033 65.2501 102.443C52.8748 96.2261 40.6808 89.7167 28.5434 83.0474C22.6541 79.8121 16.6061 76.7567 10.9661 73.0961C8.28809 70.7427 7.12342 68.2827 5.11542 65.4521L4.95941 65.2361C5.09475 61.0981 5.03475 56.9534 5.00942 52.814C5.00009 51.2387 5.26742 49.0074 4.74008 47.5367L6.39408 47.1574C8.58275 48.6447 10.9414 49.7341 13.2501 51.0127C17.3414 53.2781 21.4354 55.5361 25.5394 57.7794C40.3021 65.8481 55.0968 73.6747 70.0781 81.3287C74.0568 83.3614 78.0828 85.3321 82.0181 87.4454C87.9848 90.6501 93.9108 94.1554 100.351 96.3381C106.513 98.4261 112.647 99.3314 119.097 98.1147C122.925 97.3934 126.711 96.0534 130.245 94.4268C140.727 89.6014 150.809 84.0501 161.001 78.6561C173.154 72.2234 185.333 65.8787 197.445 59.3627C201.614 57.1194 205.802 54.8001 210.047 52.712C212.988 51.2654 216.106 50.0567 218.983 48.498C219.505 48.2154 219.753 47.9707 220.101 47.5014L220.222 46.9921L220.764 46.8414L220.96 46.3Z" fill="#1850C2"/>
<path d="M69.6628 175.15C73.0274 176.357 76.3621 178.234 79.5934 179.776C91.5081 185.462 104.731 191.638 118.265 189.768C121.866 189.27 125.246 188.296 128.634 186.99C136.941 183.788 145.023 179.396 153.109 175.647C166.233 169.562 179.354 163.497 192.112 156.664C196.76 154.174 201.681 151.738 206.002 148.722C211.587 144.822 215.485 140.318 219.582 134.94C219.714 137.275 218.943 139.752 218.479 142.046C216.076 153.954 212.188 165.981 205.007 175.907C204.406 176.737 201.936 179.218 201.828 180C201.785 180.309 202.172 180.772 202.353 180.988C196.774 184.575 190.819 187.64 184.955 190.732C172.501 197.298 159.842 203.296 147.097 209.262C138.497 213.288 129.993 218.258 120.735 220.582C115.04 222.012 109.196 222.004 103.474 220.74C95.1954 218.911 87.0354 214.572 79.4308 210.871C73.6268 208.046 67.8001 205.266 62.0294 202.373C57.9094 200.308 53.3414 198.415 49.4768 195.95C48.2987 195.549 47.1361 194.822 46.0261 194.253C43.9294 193.178 41.8374 192.103 39.7794 190.954C40.0981 190.681 39.9454 190.79 40.3147 190.563L41.4987 189.749L41.5001 189.375C41.8534 189.086 42.0467 188.938 42.2487 188.499C42.4387 188.087 42.5701 187.757 42.9987 187.499C43.7827 187.028 44.2421 186.417 44.9608 185.842L45.9987 184.999C46.5207 184.704 47.1787 184.315 47.4987 183.749L47.6227 183.375L47.8748 183.623C48.1914 183.306 48.3008 183.022 48.5001 182.626L48.8748 182.623L49.4987 181.999C50.1194 181.61 50.4701 181.298 50.9987 180.749L51.0001 180.375L51.4987 180.249L51.5001 179.875L51.9987 179.749L52.0001 179.375C52.5121 179.372 52.4127 179.335 52.7487 178.999L52.7501 178.626L53.2487 178.499L53.2501 178.126L53.7487 177.999L53.7501 177.626L54.2487 177.499L54.9987 175.999C55.2681 175.339 55.8494 174.904 56.4294 174.48L56.7487 174.249L56.7501 173.875C57.1221 173.668 57.5427 173.388 57.7487 172.999C57.9941 172.538 58.2414 172.404 58.4987 171.999L58.6228 171.626C59.0208 171.488 59.2641 171.377 59.6008 171.108L59.8728 170.875L60.1254 171.106L61.0234 170.911C62.2301 171.459 69.0948 174.495 69.6628 175.15Z" fill="url(#paint4_linear_2_29)"/>
<path d="M61.0234 170.911C62.2301 171.459 69.0948 174.495 69.6628 175.149C70.0108 175.625 70.1794 176.056 70.7501 176.25C70.2861 176.252 70.5381 176.279 70.0001 176.127C69.3434 176.718 68.8014 177.633 68.6254 178.5L68.2528 178.503L68.1694 178.697C67.4088 180.269 65.9188 181.525 64.7354 182.79C63.4554 184.159 62.4354 185.555 60.8748 186.644C60.4701 186.926 60.1481 187.258 60.1254 187.75L59.7514 187.751L59.4614 188.057C58.7847 188.733 59.4801 188.104 58.7514 188.501L58.3774 188.875L58.3748 189.25L58.0014 189.251L57.7114 189.557C57.0374 190.231 57.7274 189.606 57.0014 190.001L56.1274 190.875L56.1254 191.25C55.7334 191.642 55.5761 191.999 55.0014 192.001L54.7114 192.307C54.0701 192.948 54.7001 192.384 54.0014 192.751C53.5394 192.994 53.1974 193.559 53.0014 194.001L51.8774 195.5L51.9374 195.937L49.4768 195.949C48.2987 195.549 47.1361 194.822 46.0261 194.253C43.9294 193.177 41.8374 192.103 39.7794 190.953C40.0981 190.681 39.9454 190.79 40.3147 190.563L41.4987 189.749L41.5001 189.375C41.8534 189.086 42.0467 188.938 42.2487 188.499C42.4387 188.087 42.5701 187.757 42.9987 187.499C43.7827 187.027 44.2421 186.417 44.9608 185.842L45.9987 184.999C46.5207 184.704 47.1787 184.315 47.4987 183.749L47.6227 183.375L47.8748 183.623C48.1914 183.306 48.3008 183.021 48.5001 182.625L48.8748 182.623L49.4987 181.999C50.1194 181.609 50.4701 181.297 50.9987 180.749L51.0001 180.375L51.4987 180.249L51.5001 179.875L51.9987 179.749L52.0001 179.375C52.5121 179.371 52.4127 179.335 52.7487 178.999L52.7501 178.625L53.2487 178.499L53.2501 178.125L53.7487 177.999L53.7501 177.625L54.2487 177.499L54.9987 175.999C55.2681 175.339 55.8494 174.903 56.4294 174.479L56.7487 174.249L56.7501 173.875C57.1221 173.668 57.5427 173.387 57.7487 172.999C57.9941 172.537 58.2414 172.404 58.4987 171.999L58.6228 171.625C59.0208 171.487 59.2641 171.377 59.6008 171.108L59.8728 170.875L60.1254 171.105L61.0234 170.911Z" fill="#FF915E"/>
<path d="M6.39407 47.1574C8.50274 45.6587 11.1061 44.7467 13.4314 43.6254C17.8534 41.4921 22.2841 39.3454 26.6867 37.1714C40.0094 30.5934 53.3974 24.1874 66.7748 17.7247C72.8788 14.776 79.0101 11.908 85.2041 9.14803C90.3935 6.83603 95.5288 4.5567 101.041 3.11536C107.656 1.38603 114.593 1.46002 121.299 2.64736C132.895 4.70002 143.747 11.1087 154.293 16.0547C171.716 24.2267 188.931 32.792 206.515 40.6267C211.15 42.6914 215.482 45.1221 220.222 46.9921L220.101 47.5014C219.753 47.9707 219.505 48.2154 218.983 48.498C216.106 50.0567 212.988 51.2654 210.047 52.712C205.802 54.8 201.614 57.1194 197.445 59.3627C185.333 65.8787 173.154 72.2234 161.001 78.6561C150.809 84.0501 140.727 89.6014 130.245 94.4268C126.711 96.0534 122.925 97.3934 119.097 98.1147C112.647 99.3314 106.513 98.4261 100.351 96.3381C93.9108 94.1554 87.9848 90.6501 82.0181 87.4454C78.0828 85.3321 74.0568 83.3614 70.0781 81.3287C55.0968 73.6747 40.3021 65.8481 25.5394 57.7794C21.4354 55.5361 17.3414 53.278 13.2501 51.0127C10.9414 49.734 8.58274 48.6447 6.39407 47.1574Z" fill="url(#paint5_linear_2_29)"/>
</g>
<defs>
<filter id="filter0_d_2_29" x="0.41095" y="-0.00598145" width="225.177" height="298.626" filterUnits="userSpaceOnUse" color-interpolation-filters="sRGB">
<feFlood flood-opacity="0" result="BackgroundImageFix"/>
<feColorMatrix in="SourceAlpha" type="matrix" values="0 0 0 0 0 0 0 0 0 0 0 0 0 0 0 0 0 0 127 0" result="hardAlpha"/>
<feOffset dy="4"/>
<feGaussianBlur stdDeviation="2"/>
<feComposite in2="hardAlpha" operator="out"/>
<feColorMatrix type="matrix" values="0 0 0 0 0 0 0 0 0 0 0 0 0 0 0 0 0 0 0.25 0"/>
<feBlend mode="normal" in2="BackgroundImageFix" result="effect1_dropShadow_2_29"/>
<feBlend mode="normal" in="SourceGraphic" in2="effect1_dropShadow_2_29" result="shape"/>
</filter>
<linearGradient id="paint0_linear_2_29" x1="48.3748" y1="219.626" x2="19.3114" y2="180.588" gradientUnits="userSpaceOnUse">
<stop stop-color="#FF8A51"/>
<stop offset="1" stop-color="#FFB78A"/>
</linearGradient>
<linearGradient id="paint1_linear_2_29" x1="62.8748" y1="116.625" x2="13.4401" y2="72.8574" gradientUnits="userSpaceOnUse">
<stop stop-color="#FEAA76"/>
<stop offset="1" stop-color="#FECAA5"/>
</linearGradient>
<linearGradient id="paint2_linear_2_29" x1="54.1254" y1="177.375" x2="9.43475" y2="137.142" gradientUnits="userSpaceOnUse">
<stop stop-color="#FE9661"/>
<stop offset="1" stop-color="#FEC098"/>
</linearGradient>
<linearGradient id="paint3_linear_2_29" x1="103.125" y1="168.375" x2="0.0840828" y2="141.06" gradientUnits="userSpaceOnUse">
<stop stop-color="#FF8C55"/>
<stop offset="1" stop-color="#FDCDA8"/>
</linearGradient>
<linearGradient id="paint4_linear_2_29" x1="200.875" y1="181.126" x2="129.272" y2="113.328" gradientUnits="userSpaceOnUse">
<stop stop-color="#F9381B"/>
<stop offset="1" stop-color="#FF844D"/>
</linearGradient>
<linearGradient id="paint5_linear_2_29" x1="112.125" y1="98.3748" x2="112.491" y2="2.36002" gradientUnits="userSpaceOnUse">
<stop stop-color="#043091"/>
<stop offset="1" stop-color="#1951C3"/>
</linearGradient>
</defs>
</svg>
