<svg width="33" height="32" viewBox="0 0 33 32" fill="none" xmlns="http://www.w3.org/2000/svg">
<path d="M27.7473 19.3055C27.8731 19.0394 27.9644 18.761 28.1229 18.5127C28.1288 18.8404 28.1258 19.1681 28.1218 19.4957C28.1191 19.7223 28.1259 19.9517 28.0749 20.1739C27.9827 20.5757 27.7373 20.9589 27.4554 21.2543C27.1493 21.5752 26.7441 21.8273 26.369 22.0601L26.2292 22.0637L26.2031 22.0207C26.3548 21.8401 26.537 21.6879 26.6851 21.5032C27.1599 20.9104 27.3834 20.2681 27.7018 19.5919C27.7544 19.4801 27.7661 19.4307 27.7473 19.3055Z" fill="#FF915E"/>
<path d="M27.6621 7.70584C27.6621 7.68908 27.7086 7.63321 27.7188 7.61851C27.8226 7.46996 27.9312 7.3267 28.0436 7.18457C28.0828 7.49058 28.0884 7.80167 28.0854 8.10996C28.0836 8.29989 28.0861 8.49368 28.0335 8.67782C27.9551 8.9518 27.7886 9.22401 27.6141 9.4474C27.265 9.89411 26.8371 10.1983 26.3482 10.476L26.2099 10.4641C26.2031 10.4502 26.189 10.4379 26.1895 10.4223C26.1896 10.4202 26.2736 10.3316 26.2786 10.326C26.3705 10.2251 26.4599 10.1212 26.5405 10.011C26.8895 9.53288 27.1578 8.98442 27.3847 8.43981C27.4849 8.19972 27.5904 7.95621 27.6621 7.70584Z" fill="#FC5D37"/>
<path d="M6.62967 22.0693C6.25758 21.8821 5.89292 21.6092 5.60275 21.3122C5.31963 21.0224 5.06734 20.6672 4.96124 20.271C4.89203 20.0125 4.90538 19.7397 4.90809 19.4745C4.91158 19.1409 4.91594 18.8073 4.9205 18.4736L5.58291 19.6606C5.57927 19.7537 5.58248 19.8191 5.61587 19.907C5.80444 20.4032 5.9734 20.87 6.24931 21.3283C6.3402 21.4791 6.43417 21.6314 6.53592 21.7752C6.59 21.8516 6.66769 21.9173 6.68054 22.0132L6.62967 22.0693Z" fill="#FFA371"/>
<path d="M4.94762 6.98242L4.96431 7.00554C5.17921 7.30849 5.30386 7.57177 5.59047 7.82363C5.81872 8.77913 6.18467 9.68897 6.87419 10.4077C6.90336 10.4381 6.89202 10.4174 6.89024 10.4761L6.81838 10.5121C6.30774 10.2321 5.77905 9.84066 5.41738 9.38189C5.20076 9.10705 4.97566 8.75987 4.9285 8.40719C4.90138 8.20385 4.92058 7.97638 4.92172 7.77076C4.92321 7.50847 4.91644 7.24306 4.94762 6.98242Z" fill="#FFC7A0"/>
<path d="M27.6947 10.7774C27.8264 10.5246 27.9479 10.2524 28.1201 10.0244C28.1058 10.4682 28.1005 10.9112 28.0985 11.3552C28.0973 11.6291 28.1172 11.926 28.0819 12.1969C28.0177 12.6886 27.7251 13.1193 27.3677 13.4504C27.0395 13.7544 26.6668 13.9765 26.2822 14.1996L26.2102 14.1702C26.1991 14.0932 26.5218 13.7966 26.5867 13.7151C26.8216 13.4198 27.0039 13.0797 27.1679 12.7409C27.4684 12.1197 27.7023 11.4769 27.6947 10.7774Z" fill="#FC5D37"/>
<path d="M6.6604 14.2008C6.17023 13.9268 5.66823 13.5778 5.31191 13.1395C5.16236 12.9555 5.04449 12.7343 4.98713 12.5035C4.89252 12.1227 4.92384 11.7085 4.9242 11.3183C4.92455 10.902 4.91092 10.4784 4.95609 10.0645L5.3677 10.8114C5.31761 10.9804 5.62106 12.1097 5.69006 12.3165C5.77924 12.5833 5.88905 12.8424 6.04067 13.0803C6.26534 13.4327 6.56038 13.7602 6.75787 14.1262C6.72219 14.1671 6.71227 14.1804 6.6604 14.2008Z" fill="#FFC7A0"/>
<path d="M6.45067 19.0333L5.78562 18.4454C5.38215 18.0172 5.10296 17.5083 4.9736 16.9342C4.89862 16.6016 4.90568 16.239 4.90311 15.8995C4.89869 15.3171 4.9141 14.7364 4.93129 14.1543L5.20977 14.6814C5.134 15.2871 5.39014 15.9518 5.58221 16.5168C5.79012 17.1285 5.98997 17.7051 6.30725 18.2725C6.42241 18.4783 6.53772 18.684 6.65273 18.8897C6.68619 18.9495 6.74883 19.0243 6.74171 19.0914C6.64338 19.1083 6.55063 19.0449 6.45067 19.0333Z" fill="#FFC7A0"/>
<path d="M27.917 14.4423L28.0977 14.1719C28.1301 14.5991 28.1198 15.0306 28.1204 15.4588C28.121 15.921 28.1326 16.3813 28.0508 16.8383C27.9482 17.4119 27.6753 17.9538 27.2978 18.3952C26.9643 18.7853 26.5085 19.1022 26.0731 19.3705C26.0538 19.3473 26.0124 19.2979 26.0169 19.2648C26.0285 19.181 26.2928 18.9156 26.3572 18.8268C27.1257 17.7644 27.5418 16.4772 27.7991 15.2027C27.8486 14.9572 27.9312 14.6922 27.917 14.4423Z" fill="#FC5D37"/>
<path d="M10.4986 22.7559C11.2777 23.0985 12.0247 23.5134 12.7876 23.8892C13.1942 24.0897 13.6642 24.2543 14.0482 24.4919L14.0145 24.4949C13.9332 24.4976 13.873 24.4717 13.808 24.4284L13.661 24.3549L13.6271 24.3373C13.584 24.3158 13.6071 24.3254 13.5664 24.3152C13.5236 24.3045 13.4792 24.2715 13.4334 24.2546L13.3093 24.1898C13.2533 24.1596 13.1958 24.1369 13.1391 24.1074L13.0856 24.0941L13.0188 24.0606C12.9368 24.0187 12.8526 23.9629 12.7633 23.9406C12.7262 23.9313 12.7153 23.9134 12.6843 23.8933L12.4781 23.788C12.4057 23.7489 12.4688 23.7785 12.3967 23.7594C12.3511 23.7474 12.316 23.7103 12.2829 23.6793C12.2304 23.717 12.1989 23.7478 12.1589 23.7988C12.1179 23.8512 12.0804 23.8569 12.0288 23.8933L11.9843 23.9384C11.9544 23.9682 11.9658 23.9561 11.9275 23.9868C11.8749 24.029 11.911 23.9963 11.868 24.0538C11.7924 24.1551 11.713 24.2562 11.614 24.3348L11.6139 24.3748L11.5812 24.4058C11.5383 24.4488 11.5512 24.4288 11.5336 24.4818C11.4839 24.5192 11.4751 24.5224 11.4133 24.5288L11.4413 24.5426L11.6812 24.6584C11.7239 24.6762 11.7492 24.7018 11.7879 24.7227L12.3765 25.0104L12.604 25.1241L12.6691 25.1571L12.6021 25.1711C12.5248 25.1549 12.4376 25.0966 12.3666 25.061C12.201 24.9782 12.0355 24.8953 11.8698 24.8127C11.1481 24.4535 10.3668 24.12 9.68277 23.693L9.70524 23.665C9.67892 23.6388 9.66115 23.6252 9.62675 23.6095L9.45808 23.5259L9.42676 23.5121L9.45994 23.4786L9.50703 23.4919C9.65686 23.5556 9.46615 23.4896 9.59394 23.5319L9.63396 23.4651L9.63411 23.4251C9.66878 23.4101 9.69875 23.398 9.73606 23.3906C9.88261 23.3616 9.9638 23.1813 10.0843 23.0966L10.196 23.0235C10.2554 22.9819 10.27 22.9504 10.2761 22.8765C10.2811 22.8164 10.2875 22.8251 10.3298 22.7827L10.3699 22.8095L10.4368 22.7696L10.4946 22.815L10.4986 22.7559Z" fill="#FF915E"/>
<path d="M4.92383 5.08819L4.95115 4.96447C5.09014 4.78516 5.45103 4.65788 5.65879 4.55464C6.26711 4.2524 6.88335 3.96672 7.49325 3.66763C8.6974 3.07715 9.90248 2.49087 11.1089 1.90481C12.1478 1.40009 13.1833 0.88402 14.2539 0.448862C14.6837 0.274199 15.1573 0.119087 15.6195 0.0598679C16.3672 -0.0360252 17.1439 -0.0296036 17.8748 0.174455C18.9496 0.474406 19.9639 1.0255 20.964 1.51003C21.3432 1.69376 21.7305 1.86043 22.11 2.04322C22.988 2.46612 23.8579 2.90591 24.7375 3.32537C25.6015 3.73734 26.4774 4.12669 27.33 4.5617C27.569 4.68364 27.8526 4.79273 28.0644 4.95583L28.0434 5.01377L27.9854 5.02989C27.4781 4.82976 27.0145 4.56962 26.5185 4.34866C24.6366 3.51016 22.7942 2.59348 20.9295 1.71887C19.8008 1.18953 18.6394 0.503658 17.3984 0.283974C16.6807 0.156902 15.9382 0.148983 15.2303 0.334062C14.6403 0.488319 14.0907 0.732261 13.5354 0.979699C12.8725 1.27509 12.2163 1.58203 11.563 1.89761C10.1313 2.58926 8.69847 3.27485 7.27264 3.97885C6.80145 4.21152 6.32726 4.44127 5.854 4.66958C5.60514 4.7896 5.32652 4.8872 5.10084 5.04759L4.92383 5.08819Z" fill="#416DCE"/>
<path d="M5.58321 19.6611C6.22107 20.4162 6.96495 20.8761 7.81472 21.3518C8.42261 21.6921 9.04228 22.0166 9.66459 22.33C9.88105 22.4389 10.0991 22.5447 10.3142 22.6563C10.3593 22.6796 10.4673 22.7194 10.4987 22.7565L10.4946 22.8156L10.4368 22.7702L10.3699 22.8101L10.3298 22.7833C10.2875 22.8257 10.2811 22.817 10.2761 22.8771C10.27 22.951 10.2554 22.9825 10.196 23.0241L10.0843 23.0972C9.96382 23.1819 9.88263 23.3622 9.73608 23.3912C9.69876 23.3986 9.66879 23.4107 9.63412 23.4257L9.63397 23.4657L9.59395 23.5325C9.46617 23.4902 9.65688 23.5562 9.50705 23.4925L9.45996 23.4792L9.42678 23.5127L9.4581 23.5265L9.62676 23.6101C9.66116 23.6258 9.67893 23.6394 9.70526 23.6656L9.68278 23.6936C9.50769 23.6257 9.34037 23.5236 9.17448 23.4353C8.88032 23.2787 8.58628 23.1223 8.29297 22.964C7.74009 22.6656 7.16908 22.3917 6.62997 22.0698L6.68084 22.0137C6.668 21.9178 6.5903 21.8521 6.53622 21.7757C6.43447 21.6319 6.3405 21.4796 6.24961 21.3288C5.9737 20.8705 5.80474 20.4037 5.61617 19.9075C5.58278 19.8196 5.57957 19.7542 5.58321 19.6611Z" fill="url(#paint0_linear_7849_6285)"/>
<path d="M5.58984 7.82324C6.19346 8.21501 6.84073 8.54201 7.47103 8.88826C8.77 9.60204 10.075 10.2987 11.3995 10.964C12.5907 11.5623 13.7704 12.2173 15.0125 12.702L15.0108 12.7479C14.951 12.7323 14.9772 12.7458 14.9313 12.7093L14.8966 12.7068C14.8444 12.702 14.8401 12.6905 14.7975 12.6691C14.7002 12.6201 14.5551 12.5628 14.4497 12.5354C14.3579 12.5116 14.443 12.5375 14.3694 12.4952L14.3159 12.4819C14.2451 12.4634 14.2908 12.4793 14.2356 12.4417C14.1874 12.4089 14.1467 12.3892 14.0884 12.3882L14.0216 12.3347L13.9814 12.3479C13.9502 12.3089 13.9473 12.2869 13.8979 12.277C13.849 12.2673 13.8467 12.2476 13.8075 12.2277C13.737 12.1918 13.6566 12.1726 13.5935 12.1206L13.5533 12.1338L13.4998 12.0671L13.4723 12.0647C13.4237 12.0549 13.4001 12.0313 13.362 12.003C13.3281 11.9778 13.3429 11.9891 13.2925 11.9669L13.1162 11.8931C13.0761 11.877 13.0906 11.885 13.0584 11.8531L13.0358 11.8489C12.9823 11.8355 12.9439 11.801 12.8978 11.7728L12.3758 11.5161C12.3331 11.4983 12.3078 11.4728 12.269 11.4518L12.1031 11.3732C11.9817 11.3078 12.1363 11.3866 12.0216 11.3446L11.9881 11.3245C11.93 11.2928 11.9151 11.2894 11.8544 11.3046L11.8675 11.3581L11.814 11.4116L11.82 11.4333L11.8407 11.5454L11.7874 11.6123L11.7472 11.6122L11.723 11.6565C11.702 11.6945 11.6767 11.7133 11.6534 11.7461L11.641 11.772C11.6233 11.8077 11.6019 11.8264 11.5732 11.8531C11.5732 11.9056 11.5822 11.9074 11.5481 11.9501C11.5236 11.9806 11.5145 12.0121 11.4932 12.0404L11.4661 12.0671C11.4428 12.0982 11.4436 12.1167 11.4128 12.1474V12.1742L11.3894 12.2025C11.336 12.2689 11.3802 12.2125 11.3361 12.2787C11.3017 12.3301 11.2616 12.3622 11.2171 12.4037C11.1653 12.452 11.2183 12.4007 11.1718 12.4685C11.1397 12.5152 11.0803 12.5645 11.0248 12.5754L10.998 12.6557C10.9449 12.6786 10.9271 12.6777 10.8711 12.6758L10.9024 12.6897L11.3113 12.8949C11.3628 12.9226 11.3389 12.9143 11.3928 12.9234L11.4263 12.9501L11.5504 13.0132C11.5999 13.0356 11.5782 13.0251 11.6282 13.0584C11.6691 13.0857 11.6838 13.0788 11.7206 13.0972C11.7872 13.1306 11.8497 13.1772 11.9195 13.2064C11.9759 13.2299 11.95 13.2164 12.0014 13.2548C12.0479 13.2896 12.0738 13.2881 12.1219 13.3113C12.1395 13.3198 12.1602 13.3385 12.1754 13.3514L12.2155 13.3383C12.2468 13.3772 12.2497 13.3993 12.2991 13.4091C12.3467 13.4186 12.3515 13.4336 12.3895 13.4584L12.6971 13.6122C12.8555 13.6855 13.0569 13.7715 13.1976 13.8719C13.2255 13.8918 13.2114 13.8843 13.2452 13.8929C13.2835 13.9024 13.2644 13.8946 13.2984 13.92C13.3322 13.9453 13.3516 13.9476 13.3926 13.9534C13.418 13.9787 13.4216 13.9891 13.4564 13.9977C13.4962 14.0077 13.5069 14.0258 13.54 14.0471L13.8476 14.2009L14.0616 14.3079C14.1468 14.3473 14.2257 14.4051 14.3172 14.428C14.3603 14.4387 14.4032 14.4718 14.4497 14.4885C14.4844 14.5011 14.5161 14.5217 14.546 14.5428L14.525 14.5698C14.2263 14.4889 13.9036 14.2873 13.625 14.1467C12.9809 13.8216 12.3404 13.4885 11.7004 13.1555C10.4759 12.5182 9.22956 11.9157 8.02827 11.2352C7.62257 11.0054 7.20119 10.778 6.81776 10.5117L6.8896 10.4757C6.89139 10.4171 6.90273 10.4377 6.87355 10.4074C6.18404 9.68859 5.81808 8.77875 5.58984 7.82324Z" fill="url(#paint1_linear_7849_6285)"/>
<path d="M5.20992 14.6807C5.6206 15.2073 6.12904 15.6865 6.68756 16.0547C7.15483 16.3629 7.66218 16.6055 8.15756 16.8642C8.61206 17.1016 9.06198 17.3473 9.52054 17.5767C9.99494 17.8142 10.4826 18.0376 10.9478 18.2918L10.8517 18.3126L10.8247 18.288L10.7955 18.3129C10.7595 18.3417 10.7335 18.3535 10.6909 18.3683L10.6776 18.4083C10.6501 18.4516 10.6236 18.4659 10.5973 18.5153C10.5753 18.5568 10.5303 18.5869 10.4905 18.6091L10.4903 18.6491L10.4561 18.6737C10.3941 18.7191 10.3318 18.7657 10.303 18.8364L10.2228 18.9969L10.1694 19.0104L10.1692 19.0504L10.1159 19.0639L10.1157 19.1039L10.0624 19.1174L10.0622 19.1575C10.0263 19.1934 10.0369 19.1973 9.9821 19.1977L9.98196 19.2377L9.92859 19.2512L9.92845 19.2912L9.87507 19.3047L9.87493 19.3447C9.81835 19.4034 9.78082 19.4368 9.7144 19.4785L9.64762 19.5453L9.60751 19.5455C9.58619 19.5879 9.57448 19.6184 9.54059 19.6523L9.51362 19.6258L9.50035 19.6658C9.4661 19.7264 9.39568 19.768 9.33982 19.7996L9.22873 19.8898C9.15181 19.9514 9.10265 20.0166 9.01875 20.0672C8.97287 20.0948 8.95881 20.1301 8.93848 20.1742C8.91686 20.2212 8.89616 20.237 8.85835 20.2679L8.85821 20.308L8.7315 20.3951C8.69196 20.4194 8.7083 20.4077 8.6742 20.4368C7.91925 20.0686 7.06407 19.6159 6.45083 19.0326C6.55079 19.0442 6.64353 19.1076 6.74186 19.0907C6.74899 19.0236 6.68634 18.9488 6.65289 18.8889C6.53787 18.6832 6.42257 18.4775 6.30742 18.2717C5.99012 17.7044 5.79028 17.1278 5.58236 16.5161C5.39029 15.951 5.13415 15.2864 5.20992 14.6807Z" fill="url(#paint2_linear_7849_6285)"/>
<path d="M13.2762 29.9824C12.7375 29.773 12.2003 29.4601 11.6836 29.1981C10.7216 28.7105 9.75971 28.2216 8.79693 27.7356C7.92162 27.2937 7.05116 26.8436 6.17742 26.3991C5.76481 26.1891 5.30597 26.0129 4.92247 25.7557C4.86053 25.3939 4.90256 24.9623 4.90313 24.5932C4.90392 24.0216 4.8778 23.436 4.91947 22.8662L4.93831 23.1009L4.96513 23.0777L5.06788 23.0796C5.37939 23.5807 5.68968 24.0139 6.16436 24.3755C6.38847 24.5462 6.64954 24.6776 6.89812 24.8086C7.31872 25.0302 7.7466 25.2372 8.1677 25.4576C10.2985 26.5729 12.4455 27.6616 14.6561 28.6118C14.5631 28.7029 14.6423 28.6136 14.6106 28.6701L14.5707 28.7234L14.5773 28.7611C14.5858 28.8136 14.5838 28.7923 14.584 28.8439L14.5305 28.8505C14.4972 28.9177 14.4979 28.9767 14.4768 29.0445L14.415 29.1427C14.3851 29.1877 14.4038 29.1572 14.3834 29.2184L14.3699 29.2519L14.3567 29.2986L14.3433 29.3309C14.3248 29.3771 14.3202 29.4194 14.3106 29.4676C14.3019 29.5113 14.3055 29.4958 14.2764 29.5394C14.2762 29.6025 14.2827 29.5967 14.2496 29.6465C14.2384 29.6635 14.2282 29.7109 14.2229 29.7267L14.2094 29.7602L14.1961 29.807L14.1826 29.8405L14.1694 29.8873L14.1556 29.9173C14.1371 29.9637 14.1376 30.0055 14.1357 30.0545L14.1132 30.0813C14.0864 30.116 14.0833 30.1273 14.0755 30.1682L14.0679 30.205L14.0621 30.2351L14.0221 30.2353L13.9818 30.2754L13.9417 30.2487L13.9157 30.2428C13.8798 30.2338 13.8626 30.2182 13.8347 30.1952L13.7812 30.195C13.753 30.1669 13.7428 30.1472 13.7042 30.1375C13.6318 30.1193 13.516 30.0453 13.4467 30.0079L13.4066 29.9811L13.3529 29.9681L13.2907 29.9435L13.2762 29.9824Z" fill="#FF915E"/>
<path d="M5.36786 10.8115C5.76848 11.3511 6.22904 11.8624 6.77914 12.2539C7.76554 12.9558 8.93303 13.4484 10.0069 14.0027C11.3665 14.7045 12.7219 15.479 14.1305 16.0773C14.6846 16.3125 15.2799 16.5443 15.878 16.6319L16.253 16.6756L16.2749 16.6822C16.3889 16.7141 16.4997 16.7105 16.6169 16.7098C16.4667 16.75 16.2532 16.7239 16.0953 16.7231L16.0551 16.6963C15.9888 16.6944 15.9435 16.6963 15.8812 16.6696L15.8411 16.6762C15.7526 16.6824 15.6571 16.6152 15.5869 16.6297L15.6068 16.6696L15.6137 16.7231L15.6402 16.7364L15.5735 16.79C15.5733 16.8376 15.5733 16.8633 15.5867 16.9104C15.5501 16.9472 15.555 16.9345 15.5467 16.984L15.5332 17.0309V17.0844L15.5064 17.111C15.5344 17.2081 15.5345 17.2785 15.5332 17.3786L15.5 17.4121L15.5332 17.4455L15.5 17.4924L15.5332 17.5257L15.4933 17.566L15.4998 17.6011C15.5069 17.6444 15.5074 17.6829 15.5064 17.7265L15.4665 17.7532L15.4664 17.7867L15.453 17.8402L15.4664 17.8669C15.4744 17.9074 15.4677 17.9054 15.4465 17.9338L15.4797 17.9806C15.4666 18.049 15.4394 18.1086 15.3862 18.1546L15.3994 18.2081L15.3595 18.2348L15.3726 18.2883L15.3327 18.3151L15.3393 18.3552L15.2592 18.422C15.3226 18.4403 15.2867 18.4334 15.3464 18.4384C15.4006 18.4429 15.3748 18.4369 15.4264 18.4622C15.4739 18.4855 15.5149 18.4854 15.5659 18.4915C15.6056 18.4962 15.5938 18.4957 15.6404 18.5157L15.6939 18.5027C15.7585 18.5667 15.8701 18.5444 15.9615 18.5692L16.0484 18.576L16.0963 18.5863C16.2575 18.6203 16.4639 18.5973 16.6304 18.596L16.6229 18.6165L16.62 18.6437C16.0774 18.6583 15.5338 18.5718 15.0191 18.3988C14.2345 18.1351 13.494 17.7631 12.7575 17.3892C11.8533 16.9302 10.9589 16.4526 10.0571 15.9893C9.26722 15.5836 8.47133 15.1952 7.68841 14.7755C7.34323 14.5905 6.98698 14.418 6.66056 14.201C6.71243 14.1805 6.72235 14.1672 6.75802 14.1265C6.56053 13.7603 6.2655 13.4328 6.04083 13.0804C5.88921 12.8426 5.7794 12.5834 5.69021 12.3166C5.62122 12.1098 5.31777 10.9805 5.36786 10.8115Z" fill="url(#paint3_linear_7849_6285)"/>
<path d="M27.7476 19.3057C27.7665 19.4308 27.7548 19.4802 27.7021 19.5921C27.3838 20.2682 27.1603 20.9106 26.6854 21.5034C26.5374 21.688 26.3552 21.8401 26.2035 22.0208L26.2296 22.0639L26.3694 22.0602C25.128 22.7995 23.7854 23.3961 22.4935 24.0438C21.4447 24.5698 20.4055 25.1236 19.3402 25.6154C18.7536 25.8862 18.1552 26.1673 17.5269 26.3261C16.8189 26.5051 16.0644 26.4976 15.3572 26.3185C14.596 26.1256 13.8889 25.8031 13.1831 25.4653C12.9963 25.3758 12.7702 25.2908 12.6019 25.1715L12.6689 25.1576L12.6038 25.1245L12.3763 25.0108L11.7877 24.7232C11.7491 24.7021 11.7237 24.6766 11.6811 24.6589L11.4411 24.5431L11.4131 24.5292C11.4749 24.5227 11.4837 24.5195 11.5334 24.4823C11.551 24.4292 11.5381 24.4492 11.581 24.4063L11.6137 24.3753L11.6139 24.3352C11.7128 24.2567 11.7922 24.1554 11.8678 24.0543C11.9108 23.9967 11.8747 24.0294 11.9273 23.9872C11.9656 23.9566 11.9543 23.9686 11.9842 23.9388L12.0286 23.8938C12.0802 23.8574 12.1177 23.8517 12.1588 23.7993C12.1987 23.7482 12.2302 23.7175 12.2828 23.6797C12.3159 23.7106 12.351 23.7479 12.3965 23.7599C12.4686 23.7789 12.4055 23.7494 12.478 23.7884L12.6841 23.8938C12.7151 23.9139 12.726 23.9317 12.7631 23.941C12.8524 23.9633 12.9366 24.0192 13.0187 24.061L13.0854 24.0944L13.1389 24.1078C13.1957 24.1372 13.2531 24.1599 13.3091 24.1901L13.4333 24.255C13.479 24.2719 13.5234 24.3048 13.5662 24.3155C13.6069 24.3258 13.5838 24.3162 13.6269 24.3378L13.6608 24.3553L13.8078 24.4289C13.8728 24.472 13.9331 24.498 14.0143 24.4953L14.048 24.4923C14.081 24.4908 14.1333 24.5226 14.1652 24.5358C14.3023 24.5925 14.439 24.6501 14.5768 24.7049C15.5318 25.0846 16.4724 25.1855 17.4746 24.9315C18.7384 24.611 19.898 23.904 21.0647 23.3457C22.1451 22.8286 23.2174 22.2974 24.2874 21.7587C24.9566 21.4218 25.6754 21.0913 26.3013 20.6807C26.8587 20.315 27.4046 19.8858 27.7476 19.3057Z" fill="#FC5D37"/>
<path d="M4.91943 22.8662C4.8966 22.67 4.86235 21.667 4.93827 21.5433L4.97009 21.5495C5.2303 21.6315 5.45469 22.0614 5.59404 22.2775C5.78268 22.5702 5.98196 22.8552 6.19137 23.1334C6.35533 23.3512 6.52143 23.5725 6.74019 23.7385C7.16392 24.0601 7.70867 24.2774 8.18101 24.5206C8.9991 24.9418 9.81162 25.3701 10.6334 25.7846C12.07 26.5091 13.4799 27.322 14.951 27.9731C15.2093 28.0875 15.4835 28.1791 15.7605 28.2371C16.3351 28.3572 16.9153 28.325 17.4767 28.1585C18.352 27.8989 19.1649 27.4405 19.9797 27.0373C21.3946 26.3374 22.797 25.6137 24.1941 24.8794C24.6457 24.6419 25.1047 24.4205 25.5552 24.1805C25.8359 24.0309 26.1177 23.8878 26.3672 23.6879C26.7846 23.3535 27.176 22.8575 27.4067 22.3724C27.4969 22.1827 27.5711 21.9496 27.7016 21.7864C27.8066 21.6551 27.9569 21.5636 28.0955 21.4717C28.1564 21.8648 28.1176 22.3046 28.0815 22.6986C27.8055 23.2902 27.4414 23.8335 26.9242 24.2423C26.4998 24.5779 26.0033 24.8028 25.5257 25.0503C24.9158 25.3665 24.3046 25.6783 23.6924 25.9898C22.6537 26.5184 21.6205 27.0562 20.5751 27.5714C19.8081 27.9495 19.0319 28.3308 18.2269 28.6217C17.7306 28.8011 17.2132 28.9464 16.6841 28.9801C16.0163 29.0227 15.2742 28.8624 14.6561 28.6116C12.4455 27.6615 10.2985 26.5727 8.16766 25.4574C7.74657 25.2371 7.31868 25.0301 6.89808 24.8085C6.6495 24.6775 6.38843 24.546 6.16433 24.3753C5.68964 24.0138 5.37935 23.5807 5.06784 23.0796L4.9651 23.0776L4.93827 23.1008L4.91943 22.8662Z" fill="#FAFAFB"/>
<path d="M27.6949 10.7773C27.7025 11.4768 27.4687 12.1196 27.1682 12.7409C27.0042 13.0796 26.8218 13.4198 26.587 13.715C26.5221 13.7966 26.1994 14.0931 26.2105 14.1702L26.2824 14.1995C25.5837 14.7041 24.7289 15.0772 23.9594 15.46C22.8886 15.9929 21.8249 16.5286 20.746 17.0451C19.935 17.4335 19.1377 17.893 18.3031 18.2252C17.9078 18.3824 17.5156 18.5142 17.0973 18.592C16.9516 18.6192 16.7682 18.6551 16.6206 18.6431L16.6235 18.6161L16.6309 18.5955C16.4644 18.5968 16.2581 18.6198 16.0969 18.5859L16.049 18.5755L15.9621 18.5688C15.8707 18.5439 15.759 18.5662 15.6945 18.5021L15.641 18.5152C15.5943 18.4952 15.6062 18.4957 15.5665 18.4909C15.5154 18.485 15.4745 18.485 15.4269 18.4617C15.3754 18.4365 15.4011 18.4424 15.347 18.4379C15.2873 18.4329 15.3231 18.4398 15.2598 18.4215L15.3398 18.3547L15.3333 18.3146L15.3732 18.2878L15.36 18.2343L15.4 18.2076L15.3868 18.154C15.44 18.1081 15.4672 18.0485 15.4802 17.9801L15.4471 17.9334C15.4682 17.9049 15.475 17.9068 15.467 17.8664L15.4536 17.8396L15.467 17.7861L15.4671 17.7527L15.507 17.7259C15.508 17.6823 15.5074 17.644 15.5004 17.6005L15.4938 17.5654L15.5337 17.5253L15.5006 17.4918L15.5337 17.445L15.5006 17.4115L15.5337 17.3781C15.535 17.2779 15.5349 17.2076 15.507 17.1106L15.5337 17.0838V17.0303L15.5472 16.9834C15.5556 16.9341 15.5507 16.9466 15.5873 16.9099C15.5739 16.8628 15.5739 16.8371 15.5741 16.7895L15.6408 16.736L15.6142 16.7226L15.6074 16.6691L15.5875 16.6292C15.6577 16.6146 15.7531 16.6819 15.8417 16.6756L15.8818 16.6691C15.9441 16.6957 15.9893 16.6939 16.0557 16.6958L16.0958 16.7226C16.2538 16.7235 16.4673 16.7496 16.6175 16.7092C16.5003 16.7101 16.3895 16.7136 16.2754 16.6816L16.2536 16.675C16.6634 16.6737 17.0488 16.6463 17.4503 16.5577C18.2453 16.3823 19.026 15.9639 19.7568 15.6129C20.8596 15.083 21.9456 14.5236 23.0364 13.9703C24.0602 13.4509 25.1677 12.9837 26.1159 12.3354C26.7456 11.9047 27.2822 11.4231 27.6949 10.7773Z" fill="#FC5D37"/>
<path d="M28.0817 22.6982C28.1589 23.1398 28.113 23.656 28.1154 24.1059C28.1179 24.6053 28.149 25.1217 28.1189 25.6192C28.1159 25.6694 28.0939 25.7071 28.064 25.7469C27.9681 25.8749 27.7963 25.9738 27.6574 26.0506C27.1467 26.3331 26.6003 26.5702 26.0737 26.8236C25.521 27.0894 24.9765 27.3747 24.4323 27.6574C22.9809 28.4114 21.5347 29.1772 20.0641 29.8926C19.5312 30.1518 18.9996 30.4288 18.4551 30.6613C17.9882 30.8607 17.472 31.027 16.9652 31.0807C15.8245 31.2015 14.9227 30.8295 13.9335 30.3241C13.7303 30.2203 13.4512 30.1225 13.2764 29.982L13.2908 29.943L13.3531 29.9677L13.4067 29.9808L13.4468 30.0075C13.5161 30.0449 13.632 30.1188 13.7043 30.137C13.7429 30.1468 13.7531 30.1664 13.7813 30.1946L13.8348 30.1948C13.8628 30.2177 13.88 30.2333 13.9159 30.2423L13.9418 30.2483L13.9819 30.2751L14.0222 30.2348L14.0623 30.2346L14.0681 30.2045L14.0756 30.1677C14.0835 30.127 14.0865 30.1155 14.1134 30.0808L14.1358 30.0541C14.1378 30.0051 14.1373 29.9632 14.1557 29.917L14.1695 29.8868L14.1828 29.84L14.1963 29.8065L14.2095 29.7598L14.223 29.7263C14.2283 29.7104 14.2385 29.663 14.2498 29.646C14.2828 29.5963 14.2763 29.602 14.2765 29.539C14.3056 29.4953 14.3021 29.5108 14.3108 29.4672C14.3203 29.4189 14.3249 29.3767 14.3435 29.3304L14.3568 29.2982L14.3701 29.2514L14.3836 29.2179C14.404 29.1567 14.3853 29.1872 14.4152 29.1422L14.477 29.044C14.498 28.9762 14.4974 28.9174 14.5306 28.8501L14.5841 28.8435C14.5839 28.7919 14.586 28.8131 14.5774 28.7606L14.5708 28.7229L14.6107 28.6697C14.6424 28.6132 14.5632 28.7025 14.6563 28.6113C15.2744 28.862 16.0165 29.0224 16.6843 28.9798C17.2134 28.9461 17.7308 28.8007 18.227 28.6213C19.0321 28.3305 19.8083 27.9491 20.5752 27.571C21.6207 27.0558 22.6539 26.518 23.6926 25.9894C24.3048 25.678 24.916 25.366 25.5259 25.05C26.0035 24.8024 26.5 24.5776 26.9244 24.2419C27.4415 23.8331 27.8056 23.2899 28.0817 22.6982Z" fill="#FC5D37"/>
<path d="M15.0125 12.7019C15.3042 12.7889 15.6035 12.8689 15.9068 12.9015C16.6029 12.9764 17.2342 12.8992 17.9012 12.6813C18.6951 12.4218 19.4491 12.0126 20.2001 11.6502C21.7151 10.919 23.2081 10.1539 24.6966 9.37093C25.345 9.02989 25.985 8.67892 26.6248 8.32196C26.9837 8.12161 27.3395 7.96507 27.6611 7.70508C27.5894 7.95544 27.4838 8.19896 27.3837 8.43904C27.1568 8.98365 26.8885 9.53211 26.5394 10.0102C26.4589 10.1205 26.3695 10.2243 26.2776 10.3252C26.2724 10.3308 26.1885 10.4195 26.1884 10.4215C26.188 10.4371 26.202 10.4494 26.2089 10.4634L26.3471 10.4752C25.734 10.8574 25.0875 11.1857 24.4481 11.521C23.5872 11.9727 22.7259 12.4193 21.8601 12.8615C21.1701 13.2138 20.4743 13.5524 19.7802 13.896C19.0865 14.2391 18.3643 14.6305 17.6202 14.8471C16.9589 15.0396 16.2757 15.1004 15.5998 14.9433C15.4176 14.9009 14.6185 14.6875 14.525 14.5697L14.546 14.5427C14.5161 14.5216 14.4844 14.501 14.4497 14.4885C14.4032 14.4718 14.3603 14.4386 14.3172 14.4279C14.2257 14.405 14.1468 14.3472 14.0616 14.3078L13.8476 14.2008L13.54 14.047C13.5069 14.0257 13.4962 14.0076 13.4564 13.9976C13.4216 13.989 13.418 13.9786 13.3926 13.9533C13.3516 13.9476 13.3322 13.9452 13.2984 13.9199C13.2644 13.8945 13.2835 13.9023 13.2452 13.8928C13.2114 13.8842 13.2255 13.8917 13.1976 13.8718C13.0569 13.7714 12.8555 13.6855 12.6971 13.6121L12.3895 13.4584C12.3515 13.4335 12.3467 13.4185 12.2991 13.409C12.2497 13.3992 12.2468 13.3771 12.2155 13.3382L12.1754 13.3513C12.1602 13.3384 12.1395 13.3198 12.1219 13.3112C12.0738 13.288 12.0479 13.2895 12.0014 13.2547C11.95 13.2163 11.9759 13.2299 11.9195 13.2063C11.8497 13.1771 11.7872 13.1305 11.7206 13.0972C11.6838 13.0787 11.6691 13.0856 11.6282 13.0583C11.5782 13.025 11.5999 13.0355 11.5504 13.0131L11.4263 12.95L11.3928 12.9233C11.3389 12.9143 11.3628 12.9225 11.3113 12.8948L10.9024 12.6896L10.8711 12.6757C10.9271 12.6776 10.9449 12.6785 10.998 12.6556L11.0248 12.5753C11.0803 12.5644 11.1397 12.5152 11.1718 12.4684C11.2183 12.4006 11.1653 12.4519 11.2171 12.4036C11.2616 12.3621 11.3018 12.33 11.3361 12.2786C11.3802 12.2124 11.336 12.2688 11.3894 12.2024L11.4129 12.1741V12.1473C11.4436 12.1166 11.4428 12.0981 11.4661 12.0671L11.4932 12.0403C11.5145 12.012 11.5237 11.9805 11.5481 11.95C11.5822 11.9073 11.5732 11.9056 11.5732 11.853C11.6019 11.8264 11.6233 11.8076 11.641 11.7719L11.6534 11.746C11.6767 11.7132 11.702 11.6944 11.723 11.6564L11.7472 11.6121L11.7874 11.6122L11.8407 11.5453L11.82 11.4333L11.814 11.4115L11.8675 11.358L11.8544 11.3045C11.9152 11.2893 11.9301 11.2927 11.9881 11.3244L12.0216 11.3445C12.1363 11.3865 11.9817 11.3077 12.1031 11.3731L12.269 11.4517C12.3078 11.4728 12.3331 11.4982 12.3758 11.516L12.8978 11.7727C12.9439 11.8009 12.9823 11.8355 13.0358 11.8488L13.0584 11.853C13.0906 11.8849 13.0761 11.8769 13.1162 11.893L13.2925 11.9668C13.3429 11.989 13.3281 11.9777 13.362 12.0029C13.4001 12.0312 13.4238 12.0549 13.4723 12.0646L13.4998 12.0671L13.5533 12.1337L13.5935 12.1206C13.6566 12.1725 13.737 12.1917 13.8075 12.2276C13.8467 12.2475 13.849 12.2672 13.8979 12.2769C13.9473 12.2868 13.9502 12.3088 13.9814 12.3478L14.0216 12.3346L14.0884 12.3881C14.1467 12.3891 14.1874 12.4088 14.2356 12.4416C14.2908 12.4792 14.2451 12.4634 14.3159 12.4818L14.3694 12.4951C14.443 12.5374 14.3579 12.5115 14.4497 12.5353C14.5551 12.5627 14.7002 12.62 14.7975 12.6691C14.8401 12.6905 14.8445 12.7019 14.8966 12.7067L14.9313 12.7092C14.9772 12.7457 14.951 12.7322 15.0108 12.7478L15.0125 12.7019Z" fill="#FC5D37"/>
<path d="M28.0644 4.95605C28.088 5.00557 28.0972 5.00222 28.0835 5.0578C28.0505 5.19152 28.068 5.35869 28.0665 5.49753C28.0625 5.86205 28.0619 6.22665 28.0614 6.59117C28.0611 6.77731 28.0852 7.00485 28.0429 7.18451C27.9304 7.32663 27.8219 7.4699 27.7181 7.61844C27.7078 7.63315 27.6614 7.68902 27.6614 7.70578C27.3398 7.96578 26.984 8.12231 26.6251 8.32266C25.9854 8.67962 25.3454 9.03059 24.6969 9.37164C23.2084 10.1546 21.7154 10.9197 20.2004 11.6509C19.4494 12.0133 18.6954 12.4225 17.9015 12.682C17.2345 12.8999 16.6032 12.9771 15.9071 12.9022C15.6038 12.8696 15.3046 12.7896 15.0129 12.7026C13.7707 12.2179 12.591 11.5629 11.3998 10.9647C10.0754 10.2993 8.77033 9.60266 7.47134 8.88889C6.84105 8.54263 6.19377 8.21563 5.59016 7.82386C5.30355 7.572 5.1789 7.30872 4.964 7.00578L4.9473 6.98266C4.96179 6.5398 4.95536 6.09622 4.95265 5.65321C4.95166 5.48461 4.98027 5.24581 4.92383 5.08841L5.10084 5.04782C5.33508 5.20699 5.58751 5.32358 5.8346 5.46042C6.27246 5.70287 6.71062 5.94453 7.14984 6.18462C8.7298 7.04816 10.3132 7.88579 11.9165 8.70495C12.3423 8.92249 12.7732 9.1334 13.1944 9.35958C13.833 9.70255 14.4672 10.0777 15.1564 10.3113C15.8159 10.5348 16.4724 10.6317 17.1627 10.5014C17.5724 10.4242 17.9776 10.2808 18.3558 10.1067C19.4776 9.59032 20.5566 8.9962 21.6474 8.41891C22.9481 7.73047 24.2515 7.05143 25.5478 6.35407C25.9939 6.11398 26.4422 5.86576 26.8965 5.64229C27.2112 5.48747 27.5449 5.35811 27.8528 5.19129C27.9087 5.16105 27.9352 5.13486 27.9725 5.08463L27.9854 5.03013L28.0434 5.014L28.0644 4.95605Z" fill="#1850C2"/>
<path d="M11.8721 18.7458C12.2321 18.875 12.589 19.0759 12.9349 19.2409C14.21 19.8494 15.6252 20.5104 17.0736 20.3103C17.459 20.257 17.8208 20.1527 18.1834 20.013C19.0724 19.6703 19.9374 19.2002 20.8027 18.799C22.2073 18.1477 23.6116 17.4987 24.977 16.7674C25.4744 16.5009 26.0011 16.2402 26.4635 15.9174C27.0613 15.5 27.4784 15.018 27.9169 14.4424C27.931 14.6923 27.8485 14.9574 27.7989 15.2029C27.5417 16.4773 27.1256 17.7645 26.3571 18.8268C26.2927 18.9156 26.0284 19.1812 26.0168 19.2649C26.0122 19.2979 26.0536 19.3475 26.073 19.3706C25.4759 19.7545 24.8386 20.0825 24.211 20.4134C22.8781 21.1161 21.5233 21.7581 20.1593 22.3966C19.2389 22.8275 18.3288 23.3594 17.338 23.6081C16.7285 23.7611 16.103 23.7603 15.4906 23.625C14.6046 23.4292 13.7313 22.9649 12.9175 22.5688C12.2963 22.2664 11.6727 21.9689 11.0551 21.6593C10.6142 21.4383 10.1253 21.2357 9.71168 20.9719C9.58559 20.929 9.46117 20.8512 9.34237 20.7903C9.11798 20.6752 8.89408 20.5602 8.67383 20.4372C8.70794 20.408 8.69159 20.4196 8.73112 20.3953L8.85783 20.3082L8.85798 20.2682C8.89579 20.2373 8.91648 20.2214 8.9381 20.1744C8.95844 20.1304 8.9725 20.095 9.01837 20.0674C9.10227 20.017 9.15144 19.9516 9.22836 19.8901L9.33944 19.7999C9.39531 19.7683 9.46573 19.7267 9.49997 19.6661L9.51324 19.6261L9.54023 19.6526C9.57411 19.6187 9.58582 19.5883 9.60715 19.5459L9.64725 19.5456L9.71402 19.4788C9.78045 19.4372 9.81798 19.4038 9.87456 19.345L9.87471 19.305L9.92807 19.2915L9.92822 19.2515L9.98158 19.238L9.98173 19.198C10.0365 19.1976 10.0259 19.1937 10.0618 19.1577L10.062 19.1178L10.1154 19.1042L10.1155 19.0643L10.1689 19.0507L10.169 19.0108L10.2224 18.9972L10.3026 18.8367C10.3315 18.766 10.3937 18.7195 10.4558 18.6741L10.4899 18.6494L10.4901 18.6093C10.5299 18.5872 10.5749 18.5572 10.597 18.5156C10.6232 18.4662 10.6497 18.4519 10.6772 18.4086L10.6905 18.3686C10.7331 18.3539 10.7591 18.342 10.7952 18.3132L10.8243 18.2883L10.8513 18.313L10.9474 18.2921C11.0766 18.3508 11.8113 18.6757 11.8721 18.7458Z" fill="url(#paint4_linear_7849_6285)"/>
<path d="M10.9474 18.2919C11.0766 18.3506 11.8113 18.6755 11.8721 18.7455C11.9093 18.7964 11.9273 18.8426 11.9884 18.8633C11.9388 18.8636 11.9657 18.8664 11.9082 18.8502C11.8379 18.9134 11.7799 19.0114 11.761 19.1041L11.7211 19.1045L11.7122 19.1252C11.6308 19.2935 11.4714 19.4279 11.3447 19.5633C11.2077 19.7098 11.0986 19.8592 10.9315 19.9757C10.8882 20.0059 10.8538 20.0415 10.8513 20.0941L10.8113 20.0942L10.7803 20.127C10.7078 20.1993 10.7823 20.132 10.7043 20.1745L10.6642 20.2145L10.664 20.2546L10.624 20.2547L10.593 20.2875C10.5208 20.3596 10.5947 20.2927 10.517 20.335L10.4234 20.4286L10.4232 20.4687C10.3813 20.5106 10.3644 20.5488 10.3029 20.5491L10.2719 20.5818C10.2033 20.6504 10.2707 20.5901 10.1959 20.6293C10.1465 20.6553 10.1099 20.7158 10.0889 20.7631L9.9686 20.9235L9.97502 20.9703L9.71168 20.9716C9.58559 20.9288 9.46117 20.851 9.34237 20.7901C9.11798 20.6749 8.89408 20.56 8.67383 20.4369C8.70794 20.4078 8.69159 20.4195 8.73112 20.3952L8.85783 20.308L8.85798 20.268C8.89579 20.2371 8.91648 20.2212 8.9381 20.1743C8.95844 20.1302 8.9725 20.0949 9.01837 20.0672C9.10227 20.0167 9.15144 19.9514 9.22836 19.8899L9.33944 19.7997C9.3953 19.7681 9.46573 19.7265 9.49997 19.6659L9.51324 19.6259L9.54023 19.6524C9.57411 19.6185 9.58582 19.588 9.60715 19.5456L9.64725 19.5454L9.71402 19.4786C9.78045 19.4369 9.81798 19.4035 9.87456 19.3448L9.87471 19.3048L9.92807 19.2913L9.92822 19.2513L9.98158 19.2378L9.98173 19.1978C10.0365 19.1974 10.0259 19.1935 10.0618 19.1575L10.062 19.1175L10.1154 19.104L10.1155 19.064L10.1689 19.0505L10.169 19.0105L10.2224 18.997L10.3026 18.8365C10.3315 18.7658 10.3937 18.7192 10.4558 18.6738L10.4899 18.6492L10.4901 18.6092C10.5299 18.587 10.5749 18.5569 10.597 18.5154C10.6232 18.466 10.6497 18.4517 10.6772 18.4084L10.6905 18.3684C10.7331 18.3536 10.7591 18.3418 10.7952 18.313L10.8243 18.2881L10.8513 18.3127L10.9474 18.2919Z" fill="#FF915E"/>
<path d="M5.10156 5.04757C5.32724 4.88718 5.60586 4.78957 5.85472 4.66957C6.32798 4.44125 6.80217 4.21151 7.27335 3.97884C8.69919 3.27484 10.132 2.58925 11.5637 1.89759C12.217 1.58201 12.8732 1.27506 13.5361 0.979681C14.0915 0.732243 14.6411 0.488301 15.231 0.334044C15.939 0.148965 16.6814 0.156884 17.3991 0.283957C18.6401 0.503639 19.8015 1.18952 20.9302 1.71886C22.7949 2.59345 24.6373 3.51014 26.5192 4.34864C27.0152 4.56961 27.4789 4.82975 27.9862 5.02988L27.9732 5.08439C27.936 5.13462 27.9094 5.1608 27.8536 5.19105C27.5456 5.35787 27.2119 5.48723 26.8972 5.64205C26.4429 5.86551 25.9947 6.11374 25.5485 6.35383C24.2522 7.05119 22.9488 7.73022 21.6481 8.41867C20.5573 8.99596 19.4783 9.59008 18.3565 10.1065C17.9783 10.2806 17.5731 10.424 17.1634 10.5012C16.4731 10.6314 15.8166 10.5345 15.1572 10.3111C14.4679 10.0775 13.8337 9.70231 13.1951 9.35933C12.7739 9.13316 12.3431 8.92225 11.9172 8.7047C10.3139 7.88555 8.73052 7.04792 7.15056 6.18438C6.71134 5.94429 6.27318 5.70262 5.83532 5.46018C5.58823 5.32333 5.3358 5.20675 5.10156 5.04757Z" fill="url(#paint5_linear_7849_6285)"/>
<defs>
<linearGradient id="paint0_linear_7849_6285" x1="9.59395" y1="23.5061" x2="6.48349" y2="19.3281" gradientUnits="userSpaceOnUse">
<stop stop-color="#FF8A51"/>
<stop offset="1" stop-color="#FFB78A"/>
</linearGradient>
<linearGradient id="paint1_linear_7849_6285" x1="11.1453" y1="12.4819" x2="5.85462" y2="7.7977" gradientUnits="userSpaceOnUse">
<stop stop-color="#FEAA76"/>
<stop offset="1" stop-color="#FECAA5"/>
</linearGradient>
<linearGradient id="paint2_linear_7849_6285" x1="10.2096" y1="18.9836" x2="5.42661" y2="14.6778" gradientUnits="userSpaceOnUse">
<stop stop-color="#FE9661"/>
<stop offset="1" stop-color="#FEC098"/>
</linearGradient>
<linearGradient id="paint3_linear_7849_6285" x1="15.4531" y1="18.0207" x2="4.42534" y2="15.0974" gradientUnits="userSpaceOnUse">
<stop stop-color="#FF8C55"/>
<stop offset="1" stop-color="#FDCDA8"/>
</linearGradient>
<linearGradient id="paint4_linear_7849_6285" x1="25.9148" y1="19.3854" x2="18.2516" y2="12.1294" gradientUnits="userSpaceOnUse">
<stop stop-color="#F9381B"/>
<stop offset="1" stop-color="#FF844D"/>
</linearGradient>
<linearGradient id="paint5_linear_7849_6285" x1="16.4172" y1="10.529" x2="16.4564" y2="0.253205" gradientUnits="userSpaceOnUse">
<stop stop-color="#043091"/>
<stop offset="1" stop-color="#1951C3"/>
</linearGradient>
</defs>
</svg>
