<svg width="32" height="32" viewBox="0 0 32 32" fill="none" xmlns="http://www.w3.org/2000/svg">
<path d="M26.8586 19.3055C26.9844 19.0394 27.0757 18.761 27.2342 18.5127C27.2401 18.8404 27.2371 19.1681 27.2332 19.4957C27.2304 19.7223 27.2372 19.9517 27.1862 20.1739C27.094 20.5757 26.8486 20.9589 26.5667 21.2543C26.2606 21.5752 25.8555 21.8273 25.4803 22.0601L25.3406 22.0637L25.3145 22.0207C25.4661 21.8401 25.6484 21.6879 25.7964 21.5032C26.2712 20.9104 26.4947 20.2681 26.8131 19.5919C26.8658 19.4801 26.8774 19.4307 26.8586 19.3055Z" fill="#FF915E"/>
<path d="M26.7734 7.70584C26.7734 7.68908 26.8199 7.63321 26.8302 7.61851C26.934 7.46996 27.0425 7.3267 27.155 7.18457C27.1941 7.49058 27.1997 7.80167 27.1967 8.10996C27.1949 8.29989 27.1975 8.49368 27.1448 8.67782C27.0665 8.9518 26.8999 9.22401 26.7254 9.4474C26.3764 9.89411 25.9484 10.1983 25.4595 10.476L25.3212 10.4641C25.3144 10.4502 25.3004 10.4379 25.3008 10.4223C25.3009 10.4202 25.3849 10.3316 25.3899 10.326C25.4819 10.2251 25.5712 10.1212 25.6518 10.011C26.0008 9.53288 26.2691 8.98442 26.496 8.43981C26.5962 8.19972 26.7017 7.95621 26.7734 7.70584Z" fill="#FC5D37"/>
<path d="M5.741 22.0693C5.36891 21.8821 5.00425 21.6092 4.71408 21.3122C4.43096 21.0224 4.17867 20.6672 4.07257 20.271C4.00336 20.0125 4.01671 19.7397 4.01942 19.4745C4.02291 19.1409 4.02727 18.8073 4.03183 18.4736L4.69423 19.6606C4.69059 19.7537 4.69381 19.8191 4.7272 19.907C4.91577 20.4032 5.08473 20.87 5.36064 21.3283C5.45153 21.4791 5.5455 21.6314 5.64724 21.7752C5.70132 21.8516 5.77902 21.9173 5.79187 22.0132L5.741 22.0693Z" fill="#FFA371"/>
<path d="M4.05894 6.98242L4.07564 7.00554C4.29054 7.30849 4.41519 7.57177 4.7018 7.82363C4.93005 8.77913 5.29599 9.68897 5.98551 10.4077C6.01469 10.4381 6.00334 10.4174 6.00157 10.4761L5.92971 10.5121C5.41907 10.2321 4.89037 9.84066 4.52871 9.38189C4.31209 9.10705 4.08698 8.75987 4.03982 8.40719C4.01271 8.20385 4.0319 7.97638 4.03304 7.77076C4.03454 7.50847 4.02776 7.24306 4.05894 6.98242Z" fill="#FFC7A0"/>
<path d="M26.806 10.7774C26.9377 10.5246 27.0592 10.2524 27.2314 10.0244C27.2172 10.4682 27.2118 10.9112 27.2098 11.3552C27.2086 11.6291 27.2285 11.926 27.1932 12.1969C27.129 12.6886 26.8364 13.1193 26.479 13.4504C26.1508 13.7544 25.7781 13.9765 25.3935 14.1996L25.3216 14.1702C25.3104 14.0932 25.6331 13.7966 25.6981 13.7151C25.9329 13.4198 26.1153 13.0797 26.2792 12.7409C26.5797 12.1197 26.8136 11.4769 26.806 10.7774Z" fill="#FC5D37"/>
<path d="M5.77173 14.2008C5.28156 13.9268 4.77956 13.5778 4.42323 13.1395C4.27369 12.9555 4.15582 12.7343 4.09845 12.5035C4.00384 12.1227 4.03517 11.7085 4.03552 11.3183C4.03588 10.902 4.02225 10.4784 4.06742 10.0645L4.47903 10.8114C4.42894 10.9804 4.73239 12.1097 4.80139 12.3165C4.89057 12.5833 5.00038 12.8424 5.152 13.0803C5.37667 13.4327 5.6717 13.7602 5.86919 14.1262C5.83352 14.1671 5.8236 14.1804 5.77173 14.2008Z" fill="#FFC7A0"/>
<path d="M5.56199 19.0333L4.89695 18.4454C4.49348 18.0172 4.21429 17.5083 4.08493 16.9342C4.00994 16.6016 4.01701 16.239 4.01444 15.8995C4.01002 15.3171 4.02543 14.7364 4.04262 14.1543L4.3211 14.6814C4.24532 15.2871 4.50147 15.9518 4.69354 16.5168C4.90145 17.1285 5.1013 17.7051 5.41858 18.2725C5.53374 18.4783 5.64905 18.684 5.76405 18.8897C5.79752 18.9495 5.86016 19.0243 5.85303 19.0914C5.75471 19.1083 5.66195 19.0449 5.56199 19.0333Z" fill="#FFC7A0"/>
<path d="M27.0284 14.4423L27.209 14.1719C27.2414 14.5991 27.2312 15.0306 27.2317 15.4588C27.2323 15.921 27.2439 16.3813 27.1621 16.8383C27.0595 17.4119 26.7866 17.9538 26.4091 18.3952C26.0756 18.7853 25.6198 19.1022 25.1845 19.3705C25.1651 19.3473 25.1238 19.2979 25.1283 19.2648C25.1398 19.181 25.4042 18.9156 25.4685 18.8268C26.237 17.7644 26.6531 16.4772 26.9104 15.2027C26.96 14.9572 27.0425 14.6922 27.0284 14.4423Z" fill="#FC5D37"/>
<path d="M9.60997 22.7559C10.389 23.0985 11.136 23.5134 11.8989 23.8892C12.3055 24.0897 12.7755 24.2543 13.1595 24.4919L13.1258 24.4949C13.0446 24.4976 12.9843 24.4717 12.9193 24.4284L12.7723 24.3549L12.7384 24.3373C12.6953 24.3158 12.7184 24.3254 12.6777 24.3152C12.635 24.3045 12.5905 24.2715 12.5448 24.2546L12.4206 24.1898C12.3646 24.1596 12.3072 24.1369 12.2505 24.1074L12.1969 24.0941L12.1302 24.0606C12.0481 24.0187 11.9639 23.9629 11.8746 23.9406C11.8376 23.9313 11.8266 23.9134 11.7956 23.8933L11.5895 23.788C11.517 23.7489 11.5801 23.7785 11.508 23.7594C11.4625 23.7474 11.4274 23.7103 11.3943 23.6793C11.3417 23.717 11.3102 23.7478 11.2703 23.7988C11.2292 23.8512 11.1917 23.8569 11.1401 23.8933L11.0957 23.9384C11.0658 23.9682 11.0771 23.9561 11.0388 23.9868C10.9862 24.029 11.0223 23.9963 10.9793 24.0538C10.9037 24.1551 10.8243 24.2562 10.7254 24.3348L10.7252 24.3748L10.6925 24.4058C10.6496 24.4488 10.6625 24.4288 10.6449 24.4818C10.5952 24.5192 10.5865 24.5224 10.5246 24.5288L10.5526 24.5426L10.7926 24.6584C10.8352 24.6762 10.8606 24.7018 10.8992 24.7227L11.4878 25.0104L11.7153 25.1241L11.7804 25.1571L11.7134 25.1711C11.6361 25.1549 11.5489 25.0966 11.4779 25.061C11.3124 24.9782 11.1468 24.8953 10.9812 24.8127C10.2594 24.4535 9.47812 24.12 8.7941 23.693L8.81657 23.665C8.79024 23.6388 8.77248 23.6252 8.73808 23.6095L8.56941 23.5259L8.53809 23.5121L8.57126 23.4786L8.61835 23.4919C8.76819 23.5556 8.57748 23.4896 8.70527 23.5319L8.74528 23.4651L8.74543 23.4251C8.78011 23.4101 8.81008 23.398 8.84738 23.3906C8.99394 23.3616 9.07513 23.1813 9.19564 23.0966L9.30731 23.0235C9.36674 22.9819 9.38137 22.9504 9.38742 22.8765C9.39242 22.8164 9.39884 22.8251 9.44109 22.7827L9.48125 22.8095L9.54811 22.7696L9.6059 22.815L9.60997 22.7559Z" fill="#FF915E"/>
<path d="M4.03516 5.08819L4.06248 4.96447C4.20147 4.78516 4.56235 4.65788 4.77012 4.55464C5.37844 4.2524 5.99468 3.96672 6.60458 3.66763C7.80873 3.07715 9.01381 2.49087 10.2203 1.90481C11.2591 1.40009 12.2947 0.88402 13.3652 0.448862C13.795 0.274199 14.2686 0.119087 14.7309 0.0598679C15.4785 -0.0360252 16.2552 -0.0296036 16.9862 0.174455C18.0609 0.474406 19.0753 1.0255 20.0753 1.51003C20.4546 1.69376 20.8418 1.86043 21.2213 2.04322C22.0993 2.46612 22.9692 2.90591 23.8488 3.32537C24.7128 3.73734 25.5887 4.12669 26.4414 4.5617C26.6803 4.68364 26.964 4.79273 27.1758 4.95583L27.1548 5.01377L27.0968 5.02989C26.5895 4.82976 26.1258 4.56962 25.6298 4.34866C23.7479 3.51016 21.9055 2.59348 20.0408 1.71887C18.9122 1.18953 17.7507 0.503658 16.5097 0.283974C15.792 0.156902 15.0496 0.148983 14.3416 0.334062C13.7517 0.488319 13.2021 0.732261 12.6467 0.979699C11.9838 1.27509 11.3276 1.58203 10.6743 1.89761C9.24263 2.58926 7.8098 3.27485 6.38397 3.97885C5.91278 4.21152 5.43859 4.44127 4.96533 4.66958C4.71647 4.7896 4.43785 4.8872 4.21217 5.04759L4.03516 5.08819Z" fill="#416DCE"/>
<path d="M4.69453 19.6611C5.33239 20.4162 6.07628 20.8761 6.92605 21.3518C7.53394 21.6921 8.15361 22.0166 8.77591 22.33C8.99238 22.4389 9.21043 22.5447 9.42555 22.6563C9.47064 22.6796 9.57859 22.7194 9.60998 22.7565L9.60591 22.8156L9.54812 22.7702L9.48126 22.8101L9.4411 22.7833C9.39886 22.8257 9.39243 22.817 9.38745 22.8771C9.38138 22.951 9.36675 22.9825 9.30732 23.0241L9.19566 23.0972C9.07515 23.1819 8.99395 23.3622 8.84741 23.3912C8.81009 23.3986 8.78012 23.4107 8.74544 23.4257L8.7453 23.4657L8.70528 23.5325C8.57749 23.4902 8.76821 23.5562 8.61838 23.4925L8.57129 23.4792L8.53811 23.5127L8.56942 23.5265L8.73809 23.6101C8.77249 23.6258 8.79026 23.6394 8.81658 23.6656L8.79411 23.6936C8.61902 23.6257 8.4517 23.5236 8.28581 23.4353C7.99165 23.2787 7.69761 23.1223 7.4043 22.964C6.85142 22.6656 6.28041 22.3917 5.7413 22.0698L5.79217 22.0137C5.77932 21.9178 5.70162 21.8521 5.64755 21.7757C5.5458 21.6319 5.45183 21.4796 5.36094 21.3288C5.08503 20.8705 4.91607 20.4037 4.7275 19.9075C4.69411 19.8196 4.6909 19.7542 4.69453 19.6611Z" fill="url(#paint0_linear_7849_6220)"/>
<path d="M4.70117 7.82324C5.30478 8.21501 5.95206 8.54201 6.58235 8.88826C7.88133 9.60204 9.18637 10.2987 10.5108 10.964C11.702 11.5623 12.8817 12.2173 14.1239 12.702L14.1222 12.7479C14.0623 12.7323 14.0885 12.7458 14.0426 12.7093L14.0079 12.7068C13.9558 12.702 13.9514 12.6905 13.9088 12.6691C13.8115 12.6201 13.6664 12.5628 13.561 12.5354C13.4692 12.5116 13.5543 12.5375 13.4807 12.4952L13.4272 12.4819C13.3564 12.4634 13.4021 12.4793 13.347 12.4417C13.2987 12.4089 13.258 12.3892 13.1998 12.3882L13.1329 12.3347L13.0927 12.3479C13.0616 12.3089 13.0586 12.2869 13.0092 12.277C12.9603 12.2673 12.958 12.2476 12.9189 12.2277C12.8484 12.1918 12.768 12.1726 12.7048 12.1206L12.6646 12.1338L12.6111 12.0671L12.5836 12.0647C12.5351 12.0549 12.5114 12.0313 12.4734 12.003C12.4395 11.9778 12.4542 11.9891 12.4038 11.9669L12.2275 11.8931C12.1874 11.877 12.2019 11.885 12.1697 11.8531L12.1471 11.8489C12.0936 11.8355 12.0552 11.801 12.0092 11.7728L11.4871 11.5161C11.4444 11.4983 11.4191 11.4728 11.3804 11.4518L11.2144 11.3732C11.093 11.3078 11.2476 11.3866 11.1329 11.3446L11.0995 11.3245C11.0414 11.2928 11.0265 11.2894 10.9657 11.3046L10.9788 11.3581L10.9253 11.4116L10.9313 11.4333L10.952 11.5454L10.8988 11.6123L10.8585 11.6122L10.8343 11.6565C10.8134 11.6945 10.788 11.7133 10.7648 11.7461L10.7524 11.772C10.7346 11.8077 10.7132 11.8264 10.6845 11.8531C10.6845 11.9056 10.6936 11.9074 10.6594 11.9501C10.635 11.9806 10.6258 12.0121 10.6045 12.0404L10.5775 12.0671C10.5541 12.0982 10.5549 12.1167 10.5242 12.1474V12.1742L10.5007 12.2025C10.4473 12.2689 10.4916 12.2125 10.4474 12.2787C10.4131 12.3301 10.3729 12.3622 10.3284 12.4037C10.2766 12.452 10.3296 12.4007 10.2831 12.4685C10.251 12.5152 10.1916 12.5645 10.1361 12.5754L10.1093 12.6557C10.0563 12.6786 10.0384 12.6777 9.98241 12.6758L10.0137 12.6897L10.4226 12.8949C10.4742 12.9226 10.4503 12.9143 10.5041 12.9234L10.5376 12.9501L10.6617 13.0132C10.7112 13.0356 10.6896 13.0251 10.7395 13.0584C10.7804 13.0857 10.7951 13.0788 10.8319 13.0972C10.8985 13.1306 10.961 13.1772 11.0308 13.2064C11.0873 13.2299 11.0614 13.2164 11.1127 13.2548C11.1592 13.2896 11.1852 13.2881 11.2332 13.3113C11.2509 13.3198 11.2715 13.3385 11.2868 13.3514L11.3269 13.3383C11.3581 13.3772 11.361 13.3993 11.4105 13.4091C11.4581 13.4186 11.4628 13.4336 11.5008 13.4584L11.8084 13.6122C11.9669 13.6855 12.1683 13.7715 12.3089 13.8719C12.3368 13.8918 12.3227 13.8843 12.3566 13.8929C12.3948 13.9024 12.3757 13.8946 12.4097 13.92C12.4435 13.9453 12.4629 13.9476 12.5039 13.9534C12.5293 13.9787 12.5329 13.9891 12.5677 13.9977C12.6075 14.0077 12.6183 14.0258 12.6513 14.0471L12.9589 14.2009L13.1729 14.3079C13.2581 14.3473 13.337 14.4051 13.4285 14.428C13.4716 14.4387 13.5145 14.4718 13.561 14.4885C13.5957 14.5011 13.6274 14.5217 13.6573 14.5428L13.6363 14.5698C13.3377 14.4889 13.0149 14.2873 12.7364 14.1467C12.0923 13.8216 11.4517 13.4885 10.8117 13.1555C9.58722 12.5182 8.34089 11.9157 7.13959 11.2352C6.7339 11.0054 6.31252 10.778 5.92908 10.5117L6.00093 10.4757C6.00272 10.4171 6.01406 10.4377 5.98487 10.4074C5.29537 9.68859 4.92941 8.77875 4.70117 7.82324Z" fill="url(#paint1_linear_7849_6220)"/>
<path d="M4.32125 14.6807C4.73193 15.2073 5.24037 15.6865 5.79889 16.0547C6.26616 16.3629 6.77351 16.6055 7.26889 16.8642C7.72339 17.1016 8.17331 17.3473 8.63187 17.5767C9.10627 17.8142 9.59394 18.0376 10.0591 18.2918L9.96302 18.3126L9.93599 18.288L9.90688 18.3129C9.87084 18.3417 9.8448 18.3535 9.80221 18.3683L9.78894 18.4083C9.76139 18.4516 9.73492 18.4659 9.70867 18.5153C9.68662 18.5568 9.6416 18.5869 9.60179 18.6091L9.60165 18.6491L9.56747 18.6737C9.5054 18.7191 9.44318 18.7657 9.41436 18.8364L9.33409 18.9969L9.28072 19.0104L9.28058 19.0504L9.2272 19.0639L9.22706 19.1039L9.17369 19.1174L9.17355 19.1575C9.13759 19.1934 9.14822 19.1973 9.09342 19.1977L9.09329 19.2377L9.03991 19.2512L9.03977 19.2912L8.9864 19.3047L8.98626 19.3447C8.92968 19.4034 8.89215 19.4368 8.82573 19.4785L8.75894 19.5453L8.71884 19.5455C8.69751 19.5879 8.68581 19.6184 8.65192 19.6523L8.62495 19.6258L8.61168 19.6658C8.57743 19.7264 8.50701 19.768 8.45115 19.7996L8.34006 19.8898C8.26314 19.9514 8.21398 20.0166 8.13007 20.0672C8.08419 20.0948 8.07014 20.1301 8.04981 20.1742C8.02819 20.2212 8.00749 20.237 7.96968 20.2679L7.96954 20.308L7.84282 20.3951C7.80329 20.4194 7.81963 20.4077 7.78552 20.4368C7.03058 20.0686 6.1754 19.6159 5.56216 19.0326C5.66211 19.0442 5.75486 19.1076 5.85318 19.0907C5.86032 19.0236 5.79767 18.9488 5.76422 18.8889C5.6492 18.6832 5.5339 18.4775 5.41874 18.2717C5.10145 17.7044 4.90161 17.1278 4.69369 16.5161C4.50162 15.951 4.24548 15.2864 4.32125 14.6807Z" fill="url(#paint2_linear_7849_6220)"/>
<path d="M12.3875 29.9824C11.8489 29.773 11.3116 29.4601 10.7949 29.1981C9.8329 28.7105 8.87104 28.2216 7.90825 27.7356C7.03295 27.2937 6.16249 26.8436 5.28875 26.3991C4.87614 26.1891 4.4173 26.0129 4.03379 25.7557C3.97186 25.3939 4.01389 24.9623 4.01446 24.5932C4.01524 24.0216 3.98913 23.436 4.0308 22.8662L4.04963 23.1009L4.07646 23.0777L4.1792 23.0796C4.49071 23.5807 4.80101 24.0139 5.27569 24.3755C5.4998 24.5462 5.76087 24.6776 6.00945 24.8086C6.43005 25.0302 6.85793 25.2372 7.27903 25.4576C9.40987 26.5729 11.5568 27.6616 13.7674 28.6118C13.6744 28.7029 13.7536 28.6136 13.7219 28.6701L13.682 28.7234L13.6886 28.7611C13.6972 28.8136 13.6951 28.7923 13.6953 28.8439L13.6418 28.8505C13.6085 28.9177 13.6092 28.9767 13.5881 29.0445L13.5264 29.1427C13.4964 29.1877 13.5151 29.1572 13.4947 29.2184L13.4813 29.2519L13.468 29.2986L13.4546 29.3309C13.4361 29.3771 13.4315 29.4194 13.422 29.4676C13.4133 29.5113 13.4168 29.4958 13.3877 29.5394C13.3875 29.6025 13.394 29.5967 13.361 29.6465C13.3497 29.6635 13.3395 29.7109 13.3342 29.7267L13.3207 29.7602L13.3074 29.807L13.294 29.8405L13.2807 29.8873L13.2669 29.9173C13.2484 29.9637 13.2489 30.0055 13.247 30.0545L13.2245 30.0813C13.1977 30.116 13.1946 30.1273 13.1868 30.1682L13.1792 30.205L13.1735 30.2351L13.1334 30.2353L13.0931 30.2754L13.053 30.2487L13.027 30.2428C12.9912 30.2338 12.974 30.2182 12.946 30.1952L12.8925 30.195C12.8643 30.1669 12.8541 30.1472 12.8155 30.1375C12.7431 30.1193 12.6273 30.0453 12.558 30.0079L12.5179 29.9811L12.4642 29.9681L12.402 29.9435L12.3875 29.9824Z" fill="#FF915E"/>
<path d="M4.47918 10.8115C4.87981 11.3511 5.34037 11.8624 5.89047 12.2539C6.87687 12.9558 8.04436 13.4484 9.11823 14.0027C10.4778 14.7045 11.8332 15.479 13.2418 16.0773C13.7959 16.3125 14.3912 16.5443 14.9893 16.6319L15.3643 16.6756L15.3862 16.6822C15.5003 16.7141 15.611 16.7105 15.7282 16.7098C15.5781 16.75 15.3646 16.7239 15.2066 16.7231L15.1665 16.6963C15.1001 16.6944 15.0548 16.6963 14.9925 16.6696L14.9524 16.6762C14.8639 16.6824 14.7684 16.6152 14.6982 16.6297L14.7181 16.6696L14.725 16.7231L14.7515 16.7364L14.6849 16.79C14.6846 16.8376 14.6846 16.8633 14.698 16.9104C14.6614 16.9472 14.6663 16.9345 14.658 16.984L14.6445 17.0309V17.0844L14.6178 17.111C14.6457 17.2081 14.6458 17.2785 14.6445 17.3786L14.6113 17.4121L14.6445 17.4455L14.6113 17.4924L14.6445 17.5257L14.6046 17.566L14.6111 17.6011C14.6182 17.6444 14.6187 17.6829 14.6178 17.7265L14.5778 17.7532L14.5777 17.7867L14.5643 17.8402L14.5777 17.8669C14.5858 17.9074 14.579 17.9054 14.5578 17.9338L14.591 17.9806C14.5779 18.049 14.5508 18.1086 14.4976 18.1546L14.5107 18.2081L14.4708 18.2348L14.484 18.2883L14.4441 18.3151L14.4506 18.3552L14.3705 18.422C14.4339 18.4403 14.398 18.4334 14.4578 18.4384C14.5119 18.4429 14.4861 18.4369 14.5377 18.4622C14.5852 18.4855 14.6262 18.4854 14.6773 18.4915C14.717 18.4962 14.7051 18.4957 14.7517 18.5157L14.8053 18.5027C14.8698 18.5667 14.9814 18.5444 15.0728 18.5692L15.1597 18.576L15.2077 18.5863C15.3688 18.6203 15.5752 18.5973 15.7417 18.596L15.7342 18.6165L15.7313 18.6437C15.1887 18.6583 14.6452 18.5718 14.1304 18.3988C13.3458 18.1351 12.6053 17.7631 11.8688 17.3892C10.9647 16.9302 10.0702 16.4526 9.16838 15.9893C8.37855 15.5836 7.58266 15.1952 6.79974 14.7755C6.45455 14.5905 6.09831 14.418 5.77188 14.201C5.82376 14.1805 5.83368 14.1672 5.86935 14.1265C5.67186 13.7603 5.37683 13.4328 5.15215 13.0804C5.00053 12.8426 4.89073 12.5834 4.80154 12.3166C4.73255 12.1098 4.4291 10.9805 4.47918 10.8115Z" fill="url(#paint3_linear_7849_6220)"/>
<path d="M26.859 19.3057C26.8778 19.4308 26.8661 19.4802 26.8135 19.5921C26.4951 20.2682 26.2716 20.9106 25.7968 21.5034C25.6487 21.688 25.4665 21.8401 25.3148 22.0208L25.3409 22.0639L25.4807 22.0602C24.2393 22.7995 22.8967 23.3961 21.6049 24.0438C20.556 24.5698 19.5168 25.1236 18.4515 25.6154C17.8649 25.8862 17.2666 26.1673 16.6382 26.3261C15.9303 26.5051 15.1757 26.4976 14.4685 26.3185C13.7074 26.1256 13.0002 25.8031 12.2944 25.4653C12.1076 25.3758 11.8815 25.2908 11.7132 25.1715L11.7802 25.1576L11.7152 25.1245L11.4876 25.0108L10.8991 24.7232C10.8604 24.7021 10.8351 24.6766 10.7924 24.6589L10.5525 24.5431L10.5244 24.5292C10.5863 24.5227 10.595 24.5195 10.6448 24.4823C10.6623 24.4292 10.6494 24.4492 10.6924 24.4063L10.725 24.3753L10.7252 24.3352C10.8241 24.2567 10.9036 24.1554 10.9791 24.0543C11.0221 23.9967 10.986 24.0294 11.0386 23.9872C11.0769 23.9566 11.0656 23.9686 11.0955 23.9388L11.1399 23.8938C11.1915 23.8574 11.2291 23.8517 11.2701 23.7993C11.31 23.7482 11.3416 23.7175 11.3941 23.6797C11.4272 23.7106 11.4623 23.7479 11.5078 23.7599C11.5799 23.7789 11.5168 23.7494 11.5893 23.7884L11.7954 23.8938C11.8265 23.9139 11.8374 23.9317 11.8744 23.941C11.9637 23.9633 12.0479 24.0192 12.13 24.061L12.1968 24.0944L12.2503 24.1078C12.307 24.1372 12.3644 24.1599 12.4204 24.1901L12.5446 24.255C12.5903 24.2719 12.6348 24.3048 12.6775 24.3155C12.7183 24.3258 12.6951 24.3162 12.7382 24.3378L12.7721 24.3553L12.9192 24.4289C12.9842 24.472 13.0444 24.498 13.1257 24.4953L13.1593 24.4923C13.1924 24.4908 13.2447 24.5226 13.2766 24.5358C13.4136 24.5925 13.5503 24.6501 13.6882 24.7049C14.6431 25.0846 15.5837 25.1855 16.5859 24.9315C17.8497 24.611 19.0093 23.904 20.176 23.3457C21.2564 22.8286 22.3288 22.2974 23.3987 21.7587C24.0679 21.4218 24.7868 21.0913 25.4126 20.6807C25.97 20.315 26.5159 19.8858 26.859 19.3057Z" fill="#FC5D37"/>
<path d="M4.03076 22.8662C4.00793 22.67 3.97368 21.667 4.0496 21.5433L4.08142 21.5495C4.34163 21.6315 4.56602 22.0614 4.70537 22.2775C4.89401 22.5702 5.09329 22.8552 5.3027 23.1334C5.46666 23.3512 5.63276 23.5725 5.85151 23.7385C6.27525 24.0601 6.82 24.2774 7.29234 24.5206C8.11042 24.9418 8.92295 25.3701 9.74475 25.7846C11.1813 26.5091 12.5912 27.322 14.0623 27.9731C14.3207 28.0875 14.5949 28.1791 14.8718 28.2371C15.4464 28.3572 16.0266 28.325 16.5881 28.1585C17.4633 27.8989 18.2762 27.4405 19.091 27.0373C20.506 26.3374 21.9083 25.6137 23.3054 24.8794C23.757 24.6419 24.216 24.4205 24.6665 24.1805C24.9472 24.0309 25.229 23.8878 25.4785 23.6879C25.8959 23.3535 26.2874 22.8575 26.518 22.3724C26.6082 22.1827 26.6824 21.9496 26.813 21.7864C26.918 21.6551 27.0682 21.5636 27.2068 21.4717C27.2677 21.8648 27.229 22.3046 27.1928 22.6986C26.9168 23.2902 26.5527 23.8335 26.0355 24.2423C25.6111 24.5779 25.1146 24.8028 24.6371 25.0503C24.0271 25.3665 23.4159 25.6783 22.8038 25.9898C21.765 26.5184 20.7318 27.0562 19.6864 27.5714C18.9195 27.9495 18.1432 28.3308 17.3382 28.6217C16.8419 28.8011 16.3246 28.9464 15.7954 28.9801C15.1276 29.0227 14.3855 28.8624 13.7674 28.6116C11.5568 27.6615 9.40983 26.5727 7.27899 25.4574C6.8579 25.2371 6.43001 25.0301 6.00941 24.8085C5.76083 24.6775 5.49976 24.546 5.27565 24.3753C4.80097 24.0138 4.49068 23.5807 4.17917 23.0796L4.07642 23.0776L4.0496 23.1008L4.03076 22.8662Z" fill="#FAFAFB"/>
<path d="M26.8062 10.7773C26.8138 11.4768 26.58 12.1196 26.2795 12.7409C26.1155 13.0796 25.9332 13.4198 25.6983 13.715C25.6334 13.7966 25.3107 14.0931 25.3218 14.1702L25.3938 14.1995C24.695 14.7041 23.8402 15.0772 23.0707 15.46C21.9999 15.9929 20.9362 16.5286 19.8573 17.0451C19.0463 17.4335 18.249 17.893 17.4144 18.2252C17.0192 18.3824 16.6269 18.5142 16.2086 18.592C16.0629 18.6192 15.8795 18.6551 15.7319 18.6431L15.7348 18.6161L15.7423 18.5955C15.5757 18.5968 15.3694 18.6198 15.2082 18.5859L15.1603 18.5755L15.0734 18.5688C14.982 18.5439 14.8704 18.5662 14.8058 18.5021L14.7523 18.5152C14.7056 18.4952 14.7175 18.4957 14.6778 18.4909C14.6268 18.485 14.5858 18.485 14.5383 18.4617C14.4867 18.4365 14.5125 18.4424 14.4583 18.4379C14.3986 18.4329 14.4345 18.4398 14.3711 18.4215L14.4511 18.3547L14.4446 18.3146L14.4845 18.2878L14.4714 18.2343L14.5113 18.2076L14.4981 18.154C14.5513 18.1081 14.5785 18.0485 14.5916 17.9801L14.5584 17.9334C14.5796 17.9049 14.5863 17.9068 14.5783 17.8664L14.5649 17.8396L14.5783 17.7861L14.5784 17.7527L14.6183 17.7259C14.6193 17.6823 14.6187 17.644 14.6117 17.6005L14.6052 17.5654L14.6451 17.5253L14.6119 17.4918L14.6451 17.445L14.6119 17.4115L14.6451 17.3781C14.6464 17.2779 14.6463 17.2076 14.6183 17.1106L14.6451 17.0838V17.0303L14.6586 16.9834C14.6669 16.9341 14.662 16.9466 14.6986 16.9099C14.6852 16.8628 14.6852 16.8371 14.6854 16.7895L14.7521 16.736L14.7256 16.7226L14.7187 16.6691L14.6988 16.6292C14.769 16.6146 14.8645 16.6819 14.953 16.6756L14.9931 16.6691C15.0554 16.6957 15.1007 16.6939 15.167 16.6958L15.2072 16.7226C15.3651 16.7235 15.5786 16.7496 15.7288 16.7092C15.6116 16.7101 15.5008 16.7136 15.3867 16.6816L15.3649 16.675C15.7747 16.6737 16.1601 16.6463 16.5616 16.5577C17.3566 16.3823 18.1374 15.9639 18.8681 15.6129C19.9709 15.083 21.057 14.5236 22.1477 13.9703C23.1715 13.4509 24.279 12.9837 25.2272 12.3354C25.857 11.9047 26.3936 11.4231 26.8062 10.7773Z" fill="#FC5D37"/>
<path d="M27.193 22.6982C27.2703 23.1398 27.2243 23.656 27.2267 24.1059C27.2293 24.6053 27.2603 25.1217 27.2302 25.6192C27.2272 25.6694 27.2052 25.7071 27.1753 25.7469C27.0794 25.8749 26.9077 25.9738 26.7687 26.0506C26.258 26.3331 25.7117 26.5702 25.185 26.8236C24.6323 27.0894 24.0878 27.3747 23.5436 27.6574C22.0922 28.4114 20.646 29.1772 19.1754 29.8926C18.6426 30.1518 18.111 30.4288 17.5664 30.6613C17.0995 30.8607 16.5833 31.027 16.0766 31.0807C14.9358 31.2015 14.0341 30.8295 13.0448 30.3241C12.8416 30.2203 12.5625 30.1225 12.3877 29.982L12.4022 29.943L12.4644 29.9677L12.5181 29.9808L12.5582 30.0075C12.6274 30.0449 12.7433 30.1188 12.8157 30.137C12.8542 30.1468 12.8645 30.1664 12.8926 30.1946L12.9461 30.1948C12.9741 30.2177 12.9913 30.2333 13.0272 30.2423L13.0532 30.2483L13.0933 30.2751L13.1336 30.2348L13.1736 30.2346L13.1794 30.2045L13.1869 30.1677C13.1948 30.127 13.1979 30.1155 13.2247 30.0808L13.2472 30.0541C13.2491 30.0051 13.2486 29.9632 13.2671 29.917L13.2808 29.8868L13.2941 29.84L13.3076 29.8065L13.3209 29.7598L13.3344 29.7263C13.3396 29.7104 13.3498 29.663 13.3611 29.646C13.3941 29.5963 13.3876 29.602 13.3879 29.539C13.417 29.4953 13.4134 29.5108 13.4221 29.4672C13.4317 29.4189 13.4362 29.3767 13.4548 29.3304L13.4681 29.2982L13.4814 29.2514L13.4949 29.2179C13.5153 29.1567 13.4966 29.1872 13.5265 29.1422L13.5883 29.044C13.6093 28.9762 13.6087 28.9174 13.6419 28.8501L13.6955 28.8435C13.6952 28.7919 13.6973 28.8131 13.6887 28.7606L13.6822 28.7229L13.7221 28.6697C13.7537 28.6132 13.6745 28.7025 13.7676 28.6113C14.3857 28.862 15.1278 29.0224 15.7956 28.9798C16.3248 28.9461 16.8421 28.8007 17.3384 28.6213C18.1434 28.3305 18.9196 27.9491 19.6866 27.571C20.732 27.0558 21.7652 26.518 22.804 25.9894C23.4161 25.678 24.0273 25.366 24.6373 25.05C25.1148 24.8024 25.6113 24.5776 26.0357 24.2419C26.5529 23.8331 26.917 23.2899 27.193 22.6982Z" fill="#FC5D37"/>
<path d="M14.1239 12.7019C14.4156 12.7889 14.7148 12.8689 15.0181 12.9015C15.7142 12.9764 16.3455 12.8992 17.0125 12.6813C17.8064 12.4218 18.5604 12.0126 19.3115 11.6502C20.8264 10.919 22.3195 10.1539 23.808 9.37093C24.4563 9.02989 25.0963 8.67892 25.7361 8.32196C26.095 8.12161 26.4508 7.96507 26.7724 7.70508C26.7007 7.95544 26.5952 8.19896 26.495 8.43904C26.2681 8.98365 25.9998 9.53211 25.6507 10.0102C25.5702 10.1205 25.4808 10.2243 25.3889 10.3252C25.3838 10.3308 25.2999 10.4195 25.2998 10.4215C25.2993 10.4371 25.3133 10.4494 25.3202 10.4634L25.4585 10.4752C24.8453 10.8574 24.1988 11.1857 23.5594 11.521C22.6985 11.9727 21.8372 12.4193 20.9714 12.8615C20.2814 13.2138 19.5857 13.5524 18.8915 13.896C18.1978 14.2391 17.4756 14.6305 16.7316 14.8471C16.0703 15.0396 15.387 15.1004 14.7112 14.9433C14.5289 14.9009 13.7298 14.6875 13.6364 14.5697L13.6573 14.5427C13.6274 14.5216 13.5958 14.501 13.561 14.4885C13.5146 14.4718 13.4716 14.4386 13.4285 14.4279C13.337 14.405 13.2581 14.3472 13.1729 14.3078L12.9589 14.2008L12.6513 14.047C12.6183 14.0257 12.6075 14.0076 12.5677 13.9976C12.5329 13.989 12.5293 13.9786 12.5039 13.9533C12.4629 13.9476 12.4435 13.9452 12.4097 13.9199C12.3758 13.8945 12.3948 13.9023 12.3566 13.8928C12.3227 13.8842 12.3368 13.8917 12.3089 13.8718C12.1683 13.7714 11.9669 13.6855 11.8084 13.6121L11.5008 13.4584C11.4628 13.4335 11.4581 13.4185 11.4105 13.409C11.361 13.3992 11.3581 13.3771 11.3269 13.3382L11.2868 13.3513C11.2715 13.3384 11.2509 13.3198 11.2332 13.3112C11.1852 13.288 11.1592 13.2895 11.1127 13.2547C11.0614 13.2163 11.0873 13.2299 11.0308 13.2063C10.961 13.1771 10.8986 13.1305 10.8319 13.0972C10.7951 13.0787 10.7804 13.0856 10.7395 13.0583C10.6896 13.025 10.7112 13.0355 10.6617 13.0131L10.5376 12.95L10.5041 12.9233C10.4503 12.9143 10.4742 12.9225 10.4227 12.8948L10.0137 12.6896L9.98242 12.6757C10.0384 12.6776 10.0563 12.6785 10.1094 12.6556L10.1361 12.5753C10.1916 12.5644 10.2511 12.5152 10.2832 12.4684C10.3296 12.4006 10.2766 12.4519 10.3284 12.4036C10.3729 12.3621 10.4131 12.33 10.4474 12.2786C10.4916 12.2124 10.4473 12.2688 10.5007 12.2024L10.5242 12.1741V12.1473C10.5549 12.1166 10.5541 12.0981 10.5775 12.0671L10.6045 12.0403C10.6258 12.012 10.635 11.9805 10.6594 11.95C10.6936 11.9073 10.6845 11.9056 10.6845 11.853C10.7133 11.8264 10.7347 11.8076 10.7524 11.7719L10.7648 11.746C10.788 11.7132 10.8134 11.6944 10.8343 11.6564L10.8585 11.6121L10.8988 11.6122L10.9521 11.5453L10.9313 11.4333L10.9253 11.4115L10.9788 11.358L10.9657 11.3045C11.0265 11.2893 11.0414 11.2927 11.0995 11.3244L11.1329 11.3445C11.2476 11.3865 11.093 11.3077 11.2144 11.3731L11.3804 11.4517C11.4191 11.4728 11.4444 11.4982 11.4871 11.516L12.0092 11.7727C12.0552 11.8009 12.0936 11.8355 12.1472 11.8488L12.1697 11.853C12.2019 11.8849 12.1874 11.8769 12.2275 11.893L12.4038 11.9668C12.4542 11.989 12.4395 11.9777 12.4734 12.0029C12.5114 12.0312 12.5351 12.0549 12.5836 12.0646L12.6111 12.0671L12.6647 12.1337L12.7048 12.1206C12.768 12.1725 12.8484 12.1917 12.9189 12.2276C12.958 12.2475 12.9603 12.2672 13.0092 12.2769C13.0586 12.2868 13.0616 12.3088 13.0927 12.3478L13.1329 12.3346L13.1998 12.3881C13.2581 12.3891 13.2987 12.4088 13.347 12.4416C13.4021 12.4792 13.3565 12.4634 13.4272 12.4818L13.4807 12.4951C13.5543 12.5374 13.4693 12.5115 13.561 12.5353C13.6665 12.5627 13.8115 12.62 13.9088 12.6691C13.9514 12.6905 13.9558 12.7019 14.0079 12.7067L14.0426 12.7092C14.0885 12.7457 14.0623 12.7322 14.1222 12.7478L14.1239 12.7019Z" fill="#FC5D37"/>
<path d="M27.1757 4.95605C27.1993 5.00557 27.2085 5.00222 27.1948 5.0578C27.1618 5.19152 27.1793 5.35869 27.1778 5.49753C27.1738 5.86205 27.1732 6.22665 27.1728 6.59117C27.1724 6.77731 27.1965 7.00485 27.1542 7.18451C27.0418 7.32663 26.9332 7.4699 26.8294 7.61844C26.8191 7.63315 26.7727 7.68902 26.7727 7.70578C26.4511 7.96578 26.0953 8.12231 25.7364 8.32266C25.0967 8.67962 24.4567 9.03059 23.8083 9.37164C22.3198 10.1546 20.8267 10.9197 19.3118 11.6509C18.5607 12.0133 17.8067 12.4225 17.0128 12.682C16.3458 12.8999 15.7145 12.9771 15.0184 12.9022C14.7151 12.8696 14.4159 12.7896 14.1242 12.7026C12.882 12.2179 11.7023 11.5629 10.5111 10.9647C9.1867 10.2993 7.88165 9.60266 6.58267 8.88889C5.95238 8.54263 5.3051 8.21563 4.70149 7.82386C4.41488 7.572 4.29023 7.30872 4.07533 7.00578L4.05863 6.98266C4.07311 6.5398 4.06669 6.09622 4.06398 5.65321C4.06298 5.48461 4.09159 5.24581 4.03516 5.08841L4.21217 5.04782C4.44641 5.20699 4.69884 5.32358 4.94593 5.46042C5.38379 5.70287 5.82195 5.94453 6.26117 6.18462C7.84112 7.04816 9.4245 7.88579 11.0279 8.70495C11.4537 8.92249 11.8845 9.1334 12.3057 9.35958C12.9443 9.70255 13.5785 10.0777 14.2678 10.3113C14.9272 10.5348 15.5837 10.6317 16.274 10.5014C16.6837 10.4242 17.0889 10.2808 17.4671 10.1067C18.5889 9.59032 19.6679 8.9962 20.7587 8.41891C22.0594 7.73047 23.3628 7.05143 24.6591 6.35407C25.1053 6.11398 25.5535 5.86576 26.0078 5.64229C26.3226 5.48747 26.6563 5.35811 26.9642 5.19129C27.02 5.16105 27.0466 5.13486 27.0838 5.08463L27.0968 5.03013L27.1548 5.014L27.1757 4.95605Z" fill="#1850C2"/>
<path d="M10.9834 18.7458C11.3435 18.875 11.7004 19.0759 12.0462 19.2409C13.3213 19.8494 14.7365 20.5104 16.185 20.3103C16.5703 20.257 16.9321 20.1527 17.2947 20.013C18.1837 19.6703 19.0487 19.2002 19.9141 18.799C21.3187 18.1477 22.7229 17.4987 24.0883 16.7674C24.5858 16.5009 25.1124 16.2402 25.5749 15.9174C26.1726 15.5 26.5898 15.018 27.0282 14.4424C27.0424 14.6923 26.9599 14.9574 26.9102 15.2029C26.653 16.4773 26.2369 17.7645 25.4684 18.8268C25.4041 18.9156 25.1397 19.1812 25.1282 19.2649C25.1235 19.2979 25.165 19.3475 25.1843 19.3706C24.5873 19.7545 23.9499 20.0825 23.3223 20.4134C21.9895 21.1161 20.6347 21.7581 19.2707 22.3966C18.3503 22.8275 17.4401 23.3594 16.4493 23.6081C15.8398 23.7611 15.2144 23.7603 14.602 23.625C13.716 23.4292 12.8427 22.9649 12.0288 22.5688C11.4076 22.2664 10.784 21.9689 10.1664 21.6593C9.72549 21.4383 9.23661 21.2357 8.82301 20.9719C8.69692 20.929 8.5725 20.8512 8.4537 20.7903C8.2293 20.6752 8.00541 20.5602 7.78516 20.4372C7.81926 20.408 7.80292 20.4196 7.84245 20.3953L7.96916 20.3082L7.96931 20.2682C8.00712 20.2373 8.02781 20.2214 8.04943 20.1744C8.06976 20.1304 8.08383 20.095 8.1297 20.0674C8.2136 20.017 8.26277 19.9516 8.33969 19.8901L8.45077 19.7999C8.50663 19.7683 8.57705 19.7267 8.6113 19.6661L8.62457 19.6261L8.65155 19.6526C8.68544 19.6187 8.69715 19.5883 8.71848 19.5459L8.75858 19.5456L8.82535 19.4788C8.89178 19.4372 8.92931 19.4038 8.98588 19.345L8.98603 19.305L9.0394 19.2915L9.03955 19.2515L9.09291 19.238L9.09306 19.198C9.14785 19.1976 9.13722 19.1937 9.17317 19.1577L9.17332 19.1178L9.22669 19.1042L9.22684 19.0643L9.2802 19.0507L9.28035 19.0108L9.33371 18.9972L9.41398 18.8367C9.44281 18.766 9.50502 18.7195 9.5671 18.6741L9.60127 18.6494L9.60142 18.6093C9.64123 18.5872 9.68625 18.5572 9.70829 18.5156C9.73456 18.4662 9.76102 18.4519 9.78856 18.4086L9.80184 18.3686C9.84444 18.3539 9.87048 18.342 9.90651 18.3132L9.93562 18.2883L9.96265 18.313L10.0588 18.2921C10.1879 18.3508 10.9226 18.6757 10.9834 18.7458Z" fill="url(#paint4_linear_7849_6220)"/>
<path d="M10.0588 18.2919C10.1879 18.3506 10.9226 18.6755 10.9834 18.7455C11.0206 18.7964 11.0387 18.8426 11.0997 18.8633C11.0501 18.8636 11.0771 18.8664 11.0195 18.8502C10.9492 18.9134 10.8912 19.0114 10.8724 19.1041L10.8325 19.1045L10.8236 19.1252C10.7421 19.2935 10.5827 19.4279 10.456 19.5633C10.319 19.7098 10.2099 19.8592 10.0429 19.9757C9.99955 20.0059 9.96508 20.0415 9.96265 20.0941L9.92263 20.0942L9.89159 20.127C9.81917 20.1993 9.89359 20.132 9.8156 20.1745L9.77558 20.2145L9.7753 20.2546L9.73534 20.2547L9.7043 20.2875C9.63217 20.3596 9.70601 20.2927 9.62831 20.335L9.53477 20.4286L9.53456 20.4687C9.49261 20.5106 9.47577 20.5488 9.41427 20.5491L9.38323 20.5818C9.3146 20.6504 9.38202 20.5901 9.30724 20.6293C9.2578 20.6553 9.2212 20.7158 9.20022 20.7631L9.07993 20.9235L9.08635 20.9703L8.823 20.9716C8.69692 20.9288 8.5725 20.851 8.4537 20.7901C8.2293 20.6749 8.00541 20.56 7.78516 20.4369C7.81926 20.4078 7.80292 20.4195 7.84245 20.3952L7.96916 20.308L7.96931 20.268C8.00712 20.2371 8.02781 20.2212 8.04943 20.1743C8.06976 20.1302 8.08383 20.0949 8.1297 20.0672C8.2136 20.0167 8.26277 19.9514 8.33969 19.8899L8.45077 19.7997C8.50663 19.7681 8.57705 19.7265 8.6113 19.6659L8.62457 19.6259L8.65155 19.6524C8.68544 19.6185 8.69715 19.588 8.71848 19.5456L8.75858 19.5454L8.82535 19.4786C8.89178 19.4369 8.92931 19.4035 8.98588 19.3448L8.98603 19.3048L9.0394 19.2913L9.03955 19.2513L9.09291 19.2378L9.09306 19.1978C9.14785 19.1974 9.13722 19.1935 9.17317 19.1575L9.17332 19.1175L9.22669 19.104L9.22684 19.064L9.2802 19.0505L9.28035 19.0105L9.33371 18.997L9.41398 18.8365C9.44281 18.7658 9.50502 18.7192 9.5671 18.6738L9.60127 18.6492L9.60142 18.6092C9.64123 18.587 9.68625 18.5569 9.70829 18.5154C9.73456 18.466 9.76102 18.4517 9.78856 18.4084L9.80184 18.3684C9.84444 18.3536 9.87048 18.3418 9.90651 18.313L9.93562 18.2881L9.96265 18.3127L10.0588 18.2919Z" fill="#FF915E"/>
<path d="M4.21289 5.04757C4.43857 4.88718 4.71719 4.78957 4.96605 4.66957C5.43931 4.44125 5.9135 4.21151 6.38468 3.97884C7.81052 3.27484 9.24335 2.58925 10.675 1.89759C11.3283 1.58201 11.9845 1.27506 12.6474 0.979681C13.2028 0.732243 13.7524 0.488301 14.3423 0.334044C15.0503 0.148965 15.7927 0.156884 16.5104 0.283957C17.7515 0.503639 18.9129 1.18952 20.0415 1.71886C21.9062 2.59345 23.7486 3.51014 25.6305 4.34864C26.1266 4.56961 26.5902 4.82975 27.0975 5.02988L27.0845 5.08439C27.0473 5.13462 27.0207 5.1608 26.9649 5.19105C26.657 5.35787 26.3233 5.48723 26.0085 5.64205C25.5542 5.86551 25.106 6.11374 24.6598 6.35383C23.3635 7.05119 22.0601 7.73022 20.7595 8.41867C19.6687 8.99596 18.5897 9.59008 17.4678 10.1065C17.0896 10.2806 16.6844 10.424 16.2747 10.5012C15.5844 10.6314 14.928 10.5345 14.2685 10.3111C13.5792 10.0775 12.945 9.70231 12.3064 9.35933C11.8853 9.13316 11.4544 8.92225 11.0286 8.7047C9.42522 7.88555 7.84184 7.04792 6.26189 6.18438C5.82267 5.94429 5.38451 5.70262 4.94665 5.46018C4.69956 5.32333 4.44713 5.20675 4.21289 5.04757Z" fill="url(#paint5_linear_7849_6220)"/>
<defs>
<linearGradient id="paint0_linear_7849_6220" x1="8.70528" y1="23.5061" x2="5.59481" y2="19.3281" gradientUnits="userSpaceOnUse">
<stop stop-color="#FF8A51"/>
<stop offset="1" stop-color="#FFB78A"/>
</linearGradient>
<linearGradient id="paint1_linear_7849_6220" x1="10.2566" y1="12.4819" x2="4.96595" y2="7.7977" gradientUnits="userSpaceOnUse">
<stop stop-color="#FEAA76"/>
<stop offset="1" stop-color="#FECAA5"/>
</linearGradient>
<linearGradient id="paint2_linear_7849_6220" x1="9.32088" y1="18.9836" x2="4.53794" y2="14.6778" gradientUnits="userSpaceOnUse">
<stop stop-color="#FE9661"/>
<stop offset="1" stop-color="#FEC098"/>
</linearGradient>
<linearGradient id="paint3_linear_7849_6220" x1="14.5645" y1="18.0207" x2="3.53667" y2="15.0974" gradientUnits="userSpaceOnUse">
<stop stop-color="#FF8C55"/>
<stop offset="1" stop-color="#FDCDA8"/>
</linearGradient>
<linearGradient id="paint4_linear_7849_6220" x1="25.0262" y1="19.3854" x2="17.363" y2="12.1294" gradientUnits="userSpaceOnUse">
<stop stop-color="#F9381B"/>
<stop offset="1" stop-color="#FF844D"/>
</linearGradient>
<linearGradient id="paint5_linear_7849_6220" x1="15.5286" y1="10.529" x2="15.5677" y2="0.253205" gradientUnits="userSpaceOnUse">
<stop stop-color="#043091"/>
<stop offset="1" stop-color="#1951C3"/>
</linearGradient>
</defs>
</svg>
