<svg width="32" height="32" viewBox="0 0 32 32" fill="none" xmlns="http://www.w3.org/2000/svg">
<path d="M12.788 8.95269C13.8275 8.2531 15.1667 8.52809 14.9426 8.73891C14.5154 9.14093 15.0839 9.02209 15.1452 9.76391C15.1903 10.3103 15.0096 10.6111 14.8541 10.7824C14.5296 10.8243 14.1351 10.9025 13.6601 11.0551C13.379 11.1454 13.1347 11.2456 12.9206 11.3464C12.8642 11.3101 12.8029 11.2656 12.7303 11.2037C11.997 10.5758 12.0216 9.46862 12.788 8.95269ZM18.9974 13.2776C19.186 13.1332 20.0433 12.8612 20.8368 12.7685C21.2535 12.7201 21.8475 12.6919 21.9742 12.762C22.2258 12.8991 22.2258 13.3237 22.0534 13.7159C21.8025 14.2856 21.4478 14.9151 21.046 14.9668C20.3907 15.0523 19.7711 14.702 19.0637 14.1801C18.8111 13.9926 18.656 13.5382 18.9974 13.2776ZM20.1931 7.73028C21.1607 8.17485 21.0341 9.02078 21.0609 9.51773C21.0682 9.66046 21.0659 9.75671 21.0536 9.82284C20.9197 9.75115 20.7079 9.69844 20.3721 9.71317C20.274 9.7171 20.1785 9.72856 20.086 9.74296C19.729 9.55407 19.5155 9.18447 19.3203 8.79162C19.3024 8.75528 19.2885 8.72287 19.2752 8.69145C19.2696 8.67704 19.2636 8.66166 19.258 8.64856C19.2556 8.64136 19.254 8.63579 19.2513 8.62925C19.1443 8.29369 19.2162 8.22658 19.2613 8.12313C19.308 8.01739 19.4827 7.93031 19.2245 7.84225C19.2023 7.83406 19.1748 7.82948 19.1436 7.82359C19.3146 7.61407 19.8268 7.56333 20.1931 7.73028ZM14.9181 17.8444C13.8756 17.1834 12.7969 16.2354 12.3252 15.7106C12.246 15.6517 12.2589 15.3901 12.2589 15.3901C12.6846 15.7168 14.4504 16.9628 16.3177 17.5318C16.9763 17.7328 17.987 17.8087 18.8638 17.318C19.5338 16.9428 20.3403 16.2891 20.8216 15.6153L20.9098 15.7663C20.9065 15.8664 20.685 16.3545 20.5723 16.5506C20.7758 16.6662 20.9277 16.6976 21.1541 16.7588L22.7001 16.5209C23.255 15.6356 23.6528 14.208 23.2289 12.8491C22.9869 12.0696 21.7252 10.5175 21.6347 10.4321C21.3178 10.1312 21.6878 8.96906 21.0596 7.70115C20.3956 6.35991 18.6656 4.96138 17.9141 4.3528C18.1355 4.51256 19.4993 5.05566 20.1351 5.81353C20.1947 5.73529 20.2193 5.32836 20.274 5.22524C19.728 4.5191 19.6856 3.26265 19.6856 2.92677C19.6856 2.31099 19.3687 1.61303 19.3687 1.61303C19.3687 1.61303 19.9146 2.03992 20.0559 2.7752C20.2226 3.646 20.5779 4.33185 21.048 4.91228C21.9377 6.00668 22.7412 6.56812 23.1473 6.16381C23.6333 5.678 22.6544 3.50491 21.404 2.292C19.9445 0.876446 19.5629 1.05879 18.7067 1.36063C18.0235 1.60125 17.6542 3.51702 15.8735 3.47905C15.5718 3.44434 14.7948 3.42568 14.4106 3.42896C14.6108 3.15298 14.7825 2.93987 14.7825 2.93987C14.7825 2.93987 14.1852 3.17721 13.676 3.47806L13.6369 3.42012C13.8086 3.06263 13.9933 2.83674 13.9933 2.83674C13.9933 2.83674 13.5159 3.11992 13.0803 3.45908C13.1596 3.03284 13.4596 2.76276 13.4596 2.76276C13.4596 2.76276 12.8566 2.87014 12.0885 3.7046C11.2157 3.94031 11.0059 4.09516 10.3104 4.39928C9.17939 4.15572 8.64603 3.76255 8.13753 3.03873C7.75035 2.4858 7.06118 2.40199 6.3571 2.68779C5.33048 3.10682 4.03204 3.68071 4.03204 3.68071C4.03204 3.68071 4.45535 3.66368 4.89657 3.68234C4.29259 3.90823 3.71249 4.2189 3.71249 4.2189C3.71249 4.2189 3.99525 4.20908 4.34431 4.21497C4.10331 4.41271 3.97006 4.50699 3.74033 4.65725C3.18808 5.05337 2.74023 5.51104 2.74023 5.51104C2.74023 5.51104 3.11515 5.34244 3.45194 5.24783C3.21658 5.78046 2.74985 6.17265 2.8357 6.82478C2.91824 7.42026 3.65846 8.64692 4.61381 9.39988C4.69635 9.46535 6.00142 10.658 6.98594 10.1682C7.96979 9.67912 8.35797 9.24339 8.51973 8.57523C8.71001 7.80787 8.60161 7.22744 8.1952 5.56178C8.06128 5.01212 7.71223 3.88007 7.54383 3.3386L7.58129 3.31209C7.90316 3.98287 8.72691 5.751 9.05873 6.9387C9.57685 8.79064 9.41508 9.73019 9.17807 10.0746C8.46305 11.1133 6.63091 11.2505 5.79755 10.675C5.66993 12.669 6.12108 13.547 6.2739 13.9893C6.19799 14.4977 6.53147 15.4418 6.53147 15.4418C6.53147 15.4418 6.56892 15.0127 6.72174 14.7864C6.76251 15.2909 7.02008 15.8903 7.02008 15.8903C7.02008 15.8903 7.0045 15.5201 7.12151 15.2002C7.2866 15.4762 7.40759 15.5417 7.56372 15.7489C7.71985 16.2881 8.03278 16.6819 8.03278 16.6819C8.03278 16.6819 7.98206 16.3928 8.0099 16.092C8.77398 16.8168 8.90558 17.8745 8.9815 18.6874C9.19564 20.922 5.41369 22.699 4.68077 24.0969C4.12519 24.9248 3.79238 26.2346 4.73314 27.0069C7.00715 28.8719 6.13368 29.3852 7.27201 30.205C8.83365 31.3291 10.7874 30.8257 11.4524 29.9113C12.3783 28.6372 12.1406 27.4354 11.7965 26.3112C11.5277 25.4322 10.7971 23.9718 9.89342 23.4068C8.96989 22.829 8.07189 22.7209 7.31113 22.7982L7.3814 22.7183C8.47564 22.5036 9.61961 22.6214 10.4473 23.1485C11.3871 23.7449 12.2467 24.768 12.6962 26.3361C13.206 26.2644 13.2779 26.232 13.7446 26.1665L12.6938 18.0883L14.9181 17.8444ZM15.5254 27.97L15.4044 26.8497L17.7676 23.2899L20.4503 24.0638L22.7572 20.2588L25.5224 22.0603L27.6234 17.7089L28.3702 25.6336L15.5254 27.97ZM28.3981 16.0861L19.9544 17.5976C19.7452 17.8637 19.2281 18.3312 18.9795 18.453C17.9131 18.9833 17.1925 18.8298 16.5696 18.67C16.1692 18.5699 15.9371 18.5136 15.6046 18.3659L13.5438 18.6452L14.7948 28.9531L29.2593 26.378L28.3981 16.0861Z" fill="white"/>
</svg>
