<svg width="33" height="32" viewBox="0 0 33 32" fill="none" xmlns="http://www.w3.org/2000/svg">
<g clip-path="url(#clip0_7849_6311)">
<path d="M0.888672 29.8193V23.4001C2.87612 23.4001 4.78218 22.611 6.18752 21.2063C7.59286 19.8017 8.38237 17.8966 8.38237 15.9102C8.38237 13.9238 7.59286 12.0187 6.18752 10.6141C4.78218 9.20948 2.87612 8.42036 0.888672 8.42036V2C4.55773 2.03331 8.06518 3.51345 10.6479 6.11841C13.2306 8.72334 14.6796 12.2423 14.6796 15.9096C14.6796 19.577 13.2306 23.0959 10.6479 25.7009C8.06518 28.3058 4.55773 29.786 0.888672 29.8193Z" fill="#2F74F9"/>
<path d="M28.0175 29.8196L19.2127 21.0192C17.8595 19.6639 17.0996 17.8275 17.0996 15.9128C17.0996 13.9981 17.8595 12.1617 19.2127 10.8063L28.0175 2.00488L32.8889 6.8738L23.843 15.9151L32.8889 24.9552L28.0175 29.8196Z" fill="#2F74F9"/>
</g>
<defs>
<clipPath id="clip0_7849_6311">
<rect width="32" height="32" fill="white" transform="translate(0.888672)"/>
</clipPath>
</defs>
</svg>
