<svg width="100" height="88" viewBox="0 0 100 88" fill="none" xmlns="http://www.w3.org/2000/svg">
<path d="M0 87.403V67.343C6.21079 67.343 12.1672 64.877 16.5589 60.4875C20.9506 56.0981 23.4178 50.1448 23.4178 43.9372C23.4178 37.7296 20.9506 31.7762 16.5589 27.3868C12.1672 22.9974 6.21079 20.5314 0 20.5314V0.467773C11.4658 0.571863 22.4266 5.19732 30.4976 13.3378C38.5686 21.4782 43.0967 32.475 43.0967 43.9354C43.0967 55.3958 38.5686 66.3925 30.4976 74.533C22.4266 82.6734 11.4658 87.2989 0 87.403Z" fill="#06091A"/>
<path d="M84.7768 87.4033L57.2617 59.9023C53.0332 55.667 50.6584 49.928 50.6584 43.9447C50.6584 37.9613 53.0332 32.2224 57.2617 27.987L84.7768 0.482422L100 15.6978L71.7315 43.9518L100 72.2023L84.7768 87.4033Z" fill="#06091A"/>
</svg>
