<svg width="32" height="32" viewBox="0 0 32 32" fill="none" xmlns="http://www.w3.org/2000/svg">
<g clip-path="url(#clip0_7849_6246)">
<path d="M0 29.8193V23.4001C1.98745 23.4001 3.8935 22.611 5.29885 21.2063C6.70419 19.8017 7.4937 17.8966 7.4937 15.9102C7.4937 13.9238 6.70419 12.0187 5.29885 10.6141C3.8935 9.20948 1.98745 8.42036 0 8.42036V2C3.66906 2.03331 7.17651 3.51345 9.75923 6.11841C12.342 8.72334 13.7909 12.2423 13.7909 15.9096C13.7909 19.577 12.342 23.0959 9.75923 25.7009C7.17651 28.3058 3.66906 29.786 0 29.8193Z" fill="#2F74F9"/>
<path d="M27.1288 29.8196L18.324 21.0192C16.9709 19.6639 16.2109 17.8275 16.2109 15.9128C16.2109 13.9981 16.9709 12.1617 18.324 10.8063L27.1288 2.00488L32.0002 6.8738L22.9543 15.9151L32.0002 24.9552L27.1288 29.8196Z" fill="#2F74F9"/>
</g>
<defs>
<clipPath id="clip0_7849_6246">
<rect width="32" height="32" fill="white"/>
</clipPath>
</defs>
</svg>
