<svg width="36" height="36" viewBox="0 0 36 36" fill="none" xmlns="http://www.w3.org/2000/svg">
<g clip-path="url(#clip0_11155_31794)">
<mask id="mask0_11155_31794" style="mask-type:luminance" maskUnits="userSpaceOnUse" x="0" y="0" width="36" height="36">
<path d="M36 0H0V36H36V0Z" fill="white"/>
</mask>
<g mask="url(#mask0_11155_31794)">
<path fill-rule="evenodd" clip-rule="evenodd" d="M3.14454 24.8654C2.17682 22.7771 1.63672 20.4511 1.63672 17.9999C1.63672 17.3655 1.67294 16.7394 1.7433 16.1239C1.81475 15.5017 1.92068 14.8913 2.05889 14.2941C2.83561 10.9446 4.64212 7.9879 7.12629 5.77623C9.21283 3.92107 11.7689 2.59738 14.5709 1.99739C15.6768 1.76122 16.8237 1.63696 17.9996 1.63696C18.4117 1.6374 18.8268 1.65322 19.2444 1.68507C21.2248 1.83627 23.0962 2.3348 24.8035 3.11643C26.1807 3.74761 27.4554 4.56447 28.5956 5.53482C31.4595 7.97448 33.4568 11.3729 34.1211 15.1866C34.2798 16.1006 34.3625 17.0406 34.3625 17.9999C34.3622 18.4126 34.3462 18.8284 34.3143 19.2466C34.1936 20.8272 33.8516 22.3384 33.3211 23.7522C32.5806 25.7214 31.4711 27.5105 30.0771 29.0352C28.2639 30.8865 25.9597 31.7104 24.0353 31.6761C22.6359 31.6511 21.2667 31.0943 20.3206 30.2797C18.969 29.1158 18.4231 27.7853 18.2359 26.3008C18.1894 25.9317 18.2167 24.9261 18.4088 24.2298C18.5519 23.7108 18.915 22.7085 19.4459 22.27C18.8249 22.0025 18.0255 21.42 17.7735 21.1404C17.7115 21.0717 17.7196 20.964 17.775 20.8899C17.8305 20.816 17.9277 20.7867 18.0149 20.8181C18.5489 21.0013 19.1992 21.1821 19.8849 21.2968C20.7867 21.4476 21.9083 21.6374 23.0444 21.6933C25.8147 21.8293 28.7084 20.5859 29.6066 18.1119C30.5046 15.6379 30.1561 13.1908 26.9343 11.723C23.7124 10.2551 22.2241 8.50978 19.6209 7.45718C17.9205 6.76959 16.028 7.1778 14.0851 8.25156C8.85164 11.1437 4.16289 20.2818 6.32427 28.7479C6.35514 28.8638 6.30299 28.9858 6.19794 29.0435C6.09943 29.0975 5.97835 29.0821 5.89675 29.0074C5.26774 28.3162 4.69699 27.5711 4.19245 26.7797C3.80213 26.1672 3.45174 25.5279 3.14454 24.8654Z" fill="black"/>
<path fill-rule="evenodd" clip-rule="evenodd" d="M18.8364 0.0197566C28.76 0.481421 36.4418 8.91279 35.9802 18.8364C35.5186 28.76 27.0871 36.4417 17.1636 35.98C7.24002 35.5185 -0.441798 27.0871 0.0197566 17.1636C0.481421 7.24002 8.91279 -0.441798 18.8364 0.0197566ZM23.0448 21.6933C21.9087 21.6375 20.7871 21.4476 19.8853 21.2969C19.1995 21.1821 18.5493 21.0014 18.0153 20.8181C17.9281 20.7868 17.8309 20.816 17.7754 20.89C17.72 20.9641 17.7119 21.0717 17.7739 21.1404C18.0259 21.42 18.8253 22.0026 19.4463 22.2701C18.9154 22.7085 18.5523 23.7108 18.4092 24.2298C18.2171 24.9262 18.1898 25.9317 18.2363 26.3008C18.4235 27.7854 18.9694 29.1158 20.321 30.2797C21.2671 31.0944 22.6363 31.6512 24.0357 31.6761C25.9668 31.7105 28.2802 30.8809 30.0962 29.016C32.4705 26.413 34.0259 23.0285 34.3147 19.2467C35.0023 10.2418 28.2498 2.37269 19.2448 1.68511C10.2401 0.99752 2.37095 7.75012 1.68336 16.755C1.3273 21.4184 2.96668 25.7773 5.88121 28.9915C5.96237 29.0797 6.09328 29.1012 6.19833 29.0435C6.30338 28.9858 6.35553 28.8638 6.32466 28.748C4.16328 20.2818 8.85203 11.1438 14.0855 8.2516C16.0284 7.17784 17.9209 6.76963 19.6213 7.45722C22.2245 8.50982 23.7128 10.2551 26.9347 11.723C30.1565 13.1908 30.505 15.6379 29.6069 18.1119C28.7088 20.586 25.8151 21.8293 23.0448 21.6933Z" fill="white"/>
<path fill-rule="evenodd" clip-rule="evenodd" d="M17.4141 8.59327C18.2969 8.52411 19.0671 9.27748 19.1998 10.2795C19.377 11.6142 18.8871 12.9929 17.2763 13.0247C15.9002 13.0522 15.4833 11.6645 15.5745 10.8238C15.665 9.98317 16.3579 8.67618 17.4141 8.59327Z" fill="black"/>
</g>
</g>
<defs>
<clipPath id="clip0_11155_31794">
<rect width="36" height="36" fill="white"/>
</clipPath>
</defs>
</svg>
