<svg width="36" height="36" viewBox="0 0 36 36" fill="none" xmlns="http://www.w3.org/2000/svg">
<g clip-path="url(#clip0_7688_11517)">
<mask id="mask0_7688_11517" style="mask-type:luminance" maskUnits="userSpaceOnUse" x="0" y="0" width="36" height="36">
<path d="M36 0H0V36H36V0Z" fill="white"/>
</mask>
<g mask="url(#mask0_7688_11517)">
<path fill-rule="evenodd" clip-rule="evenodd" d="M36 18C36 8.05886 27.9412 0 18 0C8.05886 0 0 8.05886 0 18C0 27.9412 8.05886 36 18 36C27.9412 36 36 27.9412 36 18ZM16.5256 27.4059C16.6607 26.9503 17.1355 26.6831 17.5972 26.8075C17.7148 26.8392 17.8246 26.895 17.9194 26.9713C18.0143 27.0477 18.0922 27.143 18.1482 27.2511L18.1744 27.3801L18.2158 27.5868L18.2441 27.7303L18.2406 27.7637C18.2364 27.797 18.2303 27.8305 18.2221 27.8637L18.2166 27.8852L17.0214 32.3149L17.0154 32.336C16.8803 32.7918 16.4055 33.059 15.9439 32.9343C15.4823 32.8099 15.2063 32.34 15.3189 31.8782L15.3243 31.8569L16.5196 27.4272L16.5256 27.4059ZM9.21287 22.3829C9.22757 22.335 9.24606 22.2891 9.26786 22.2457C9.71301 22.6356 10.2225 22.9824 10.7901 23.283L9.70632 27.2995L9.70042 27.3207C9.56529 27.7765 9.09039 28.0436 8.62886 27.9191C8.16726 27.7945 7.89128 27.3247 8.00378 26.8629L8.00927 26.8415L9.20458 22.4118L9.21287 22.3829ZM5.3459 17.75C5.48097 17.2943 5.95586 17.0271 6.41746 17.1517C6.87906 17.2763 7.15497 17.7461 7.04247 18.2078L7.03698 18.2292L5.84168 22.6589L5.83576 22.6801C5.70063 23.1359 5.22574 23.403 4.76421 23.2784C4.3026 23.1539 4.02663 22.6841 4.13913 22.2223L4.14461 22.2009L5.33992 17.7713L5.3459 17.75ZM32.1478 16.7441C32.2828 16.2883 32.7577 16.0212 33.2194 16.1457C33.6809 16.2703 33.9568 16.7401 33.8443 17.2019L33.8388 17.2232L32.6435 21.6529L32.6376 21.6741C32.5025 22.1299 32.0277 22.397 31.566 22.2725C31.1045 22.1479 30.8285 21.6781 30.9409 21.2163L30.9465 21.195L32.1418 16.7653L32.1478 16.7441ZM1.9375 16.1197C2.17589 14.0537 2.81331 12.0535 3.81435 10.2305C3.88445 10.2325 3.95414 10.2428 4.02184 10.2611C4.48344 10.3856 4.75942 10.8554 4.64692 11.3172L4.64144 11.3386L3.44613 15.7683L3.44015 15.7895C3.30508 16.2452 2.83019 16.5125 2.36859 16.3878C2.20155 16.343 2.05154 16.2497 1.9375 16.1197ZM29.1202 10.8594C29.2553 10.4037 29.7303 10.1365 30.1918 10.2611C30.6533 10.3856 30.9293 10.8554 30.8169 11.3172L30.8113 11.3386L29.616 15.7683L29.6101 15.7895C29.475 16.2452 29.0001 16.5125 28.5385 16.3878C28.0769 16.2633 27.801 15.7934 27.9135 15.3317L27.919 15.3103L29.1143 10.8806L29.1202 10.8594ZM9.0182 6.0477C8.55667 5.92311 8.08177 6.1903 7.94664 6.64607L7.94072 6.66723L6.74542 11.0969L6.73993 11.1183C6.62743 11.5801 6.90341 12.0499 7.36501 12.1745C7.82654 12.299 8.30143 12.0318 8.43658 11.5761L8.44248 11.5549L9.63779 7.12524L9.64327 7.10387C9.75577 6.64206 9.4798 6.17223 9.0182 6.0477ZM24.3767 6.88506C23.9151 6.76047 23.4402 7.02765 23.3051 7.48342L23.2991 7.50457L22.4959 10.4809C23.0163 10.7379 23.5128 11.0404 23.9799 11.385L24.0571 11.4426L24.9963 7.96259L25.0017 7.94122C25.1142 7.47941 24.8383 7.00957 24.3767 6.88506ZM16.5589 1.89062C15.9983 1.94017 15.4404 2.01898 14.8879 2.12672L14.7707 2.15008L13.6566 6.27995L13.6511 6.30132C13.5387 6.76313 13.8147 7.23297 14.2762 7.35749C14.7378 7.48207 15.2127 7.21489 15.3478 6.75912L15.3537 6.73797L16.549 2.30827L16.5545 2.2869C16.5863 2.15689 16.5879 2.02132 16.5589 1.89062ZM27.5579 4.95048L27.3231 5.82095L27.3175 5.84225C27.2051 6.30407 27.4811 6.77389 27.9426 6.89842C28.4041 7.02301 28.8791 6.75582 29.0142 6.30006L29.0201 6.27889L29.0458 6.18447C28.6062 5.77338 28.1441 5.38703 27.6617 5.02718L27.5579 4.95048ZM20.6034 2.03504L20.1795 3.60604L20.1741 3.62741C20.0615 4.08922 20.3375 4.55905 20.7991 4.68358C21.2607 4.80816 21.7355 4.54098 21.8707 4.08521L21.8766 4.06405L22.3228 2.41051C21.7977 2.26533 21.2656 2.14693 20.7285 2.05578L20.6034 2.03504ZM12.7001 28.9524C12.2386 28.828 11.7636 29.0951 11.6285 29.5508L11.6226 29.572L10.832 32.5012C11.3247 32.7452 11.8295 32.9638 12.3446 33.1561L12.4642 33.2002L13.3196 30.03L13.3252 30.0086C13.4376 29.5468 13.1617 29.0768 12.7001 28.9524ZM17.2981 10.1875C12.0638 10.1875 7.99219 13.4827 7.99219 17.5806C7.99219 21.4508 11.7386 23.922 17.5465 23.7982C18.0404 23.7877 18.1832 24.1195 18.3439 24.5666C18.4789 24.9421 18.8053 26.6647 19.1104 28.2745L19.1104 28.2747L19.1107 28.2762C19.1687 28.5824 19.226 28.8846 19.281 29.1726L19.3254 29.4051L19.3254 29.4052C19.619 30.9413 19.9137 32.4829 20.1413 34.03C23.9339 33.5287 27.4407 31.6554 30.0103 28.8298L27.2696 18.6091C26.5865 16.1407 25.788 13.8662 23.6751 12.2138C21.9753 10.8845 19.8158 10.1875 17.2981 10.1875ZM19.5469 14.2734C19.5469 13.6521 19.0432 13.1484 18.4219 13.1484C17.8005 13.1484 17.2969 13.6521 17.2969 14.2734C17.2969 14.8948 17.8005 15.3984 18.4219 15.3984C19.0432 15.3984 19.5469 14.8948 19.5469 14.2734Z" fill="white"/>
</g>
</g>
<defs>
<clipPath id="clip0_7688_11517">
<rect width="36" height="36" fill="white"/>
</clipPath>
</defs>
</svg>
