<svg width="36" height="36" viewBox="0 0 36 36" fill="none" xmlns="http://www.w3.org/2000/svg">
<g clip-path="url(#clip0_11155_31778)">
<mask id="mask0_11155_31778" style="mask-type:luminance" maskUnits="userSpaceOnUse" x="0" y="0" width="36" height="36">
<path d="M36 0H0V36H36V0Z" fill="white"/>
</mask>
<g mask="url(#mask0_11155_31778)">
<path fill-rule="evenodd" clip-rule="evenodd" d="M0 18.9751C0 21.6679 0.594136 24.223 1.65868 26.5171C1.99661 27.2449 2.38206 27.9472 2.81144 28.62C3.36645 29.4894 3.99431 30.3079 4.68624 31.0672C4.77601 31.1493 4.90921 31.1662 5.01757 31.1068C5.13314 31.0435 5.1905 30.9095 5.15654 30.7822C2.77891 21.4819 7.93677 11.4435 13.6938 8.26634C15.8312 7.08678 17.913 6.63835 19.7835 7.39368C21.2117 7.97039 22.3349 8.7364 23.5418 9.55948C24.7546 10.3867 26.0521 11.2715 27.8286 12.0798C31.3728 13.6922 31.7561 16.3804 30.7682 19.0982C29.7802 21.816 26.597 23.1819 23.5495 23.0324C22.3206 22.9721 21.1071 22.7695 20.1238 22.6053L20.0739 22.597C19.3196 22.4709 18.6042 22.2723 18.0168 22.071C17.9209 22.0366 17.814 22.0687 17.7529 22.15C17.692 22.2313 17.6831 22.3496 17.7512 22.4251C18.0284 22.7323 18.9078 23.3722 19.591 23.666C19.0069 24.1477 18.6076 25.2487 18.4501 25.8189C18.2388 26.5838 18.2088 27.6885 18.2599 28.0939C18.4659 29.7248 19.0663 31.1863 20.5532 32.4648C21.594 33.3598 23.1001 33.9714 24.6395 33.9989C26.7565 34.0365 29.2912 33.1315 31.2858 31.0977C32.8193 29.4229 34.0399 27.4574 34.8545 25.2943C35.438 23.7412 35.8142 22.0811 35.947 20.3447C35.9821 19.8853 35.9996 19.4286 36 18.9751C36 17.9214 35.909 16.8887 35.7344 15.8846C35.0037 11.6952 32.8066 7.96195 29.6562 5.28191C28.4019 4.21595 26.9996 3.31861 25.4846 2.62523C23.6066 1.7666 21.5479 1.21894 19.3694 1.05285C18.91 1.01786 18.4534 1.00048 18 1C16.7065 1 15.4448 1.13649 14.2283 1.39594C11.1459 2.05505 8.3341 3.50915 6.0388 5.54711C3.30609 7.97669 1.31884 11.2248 0.464412 14.9042C0.312368 15.5602 0.195845 16.2308 0.117243 16.9143C0.0398411 17.5905 0 18.2783 0 18.9751ZM19.3193 10.4942C19.1732 9.39354 18.326 8.56595 17.3549 8.64192C16.1931 8.733 15.4308 10.1688 15.3312 11.0922C15.2309 12.0157 15.6895 13.5402 17.2033 13.51C18.9752 13.4751 19.5142 11.9605 19.3193 10.4942Z" fill="#18191B"/>
</g>
</g>
<defs>
<clipPath id="clip0_11155_31778">
<rect width="36" height="36" fill="white"/>
</clipPath>
</defs>
</svg>
