<svg xmlns="http://www.w3.org/2000/svg" width="29" height="36" fill="none"><path fill="#1A1A1A" d="M13.424 0h5.883v26.963c-3.013.57-5.231.794-7.632.794C4.49 27.75.75 24.54.75 18.376c0-5.94 3.967-9.795 10.115-9.795.954 0 1.681.075 2.56.3V0Zm.207 13.74c-.69-.226-1.257-.3-1.984-.3-2.976 0-4.694 1.814-4.694 4.995 0 3.097 1.643 4.806 4.656 4.806.651 0 1.181-.036 2.021-.149V13.74Z"/><path fill="#1A1A1A" d="M28.927 9.304v13.5c0 4.65-.348 6.885-1.37 8.813-.954 1.853-2.211 3.021-4.808 4.312l-5.459-2.573c2.597-1.206 3.854-2.273 4.656-3.9.84-1.665 1.106-3.592 1.106-8.662V9.304h5.875ZM22.46 0h5.883v5.978h-5.883V0Z"/></svg>