<svg width="36" height="36" viewBox="0 0 36 36" fill="none" xmlns="http://www.w3.org/2000/svg">
<path d="M16.674 0H22.557V26.963C19.544 27.533 17.326 27.757 14.925 27.757C7.74 27.75 4 24.54 4 18.376C4 12.436 7.967 8.581 14.115 8.581C15.069 8.581 15.796 8.656 16.675 8.881V0H16.674ZM16.881 13.74C16.191 13.514 15.624 13.44 14.897 13.44C11.921 13.44 10.203 15.254 10.203 18.435C10.203 21.532 11.846 23.241 14.859 23.241C15.51 23.241 16.04 23.205 16.88 23.092L16.881 13.74Z" fill="#00825A"/>
<path d="M32.1761 9.304V22.804C32.1761 27.454 31.8281 29.689 30.8061 31.617C29.8521 33.47 28.5951 34.638 25.9981 35.929L20.5391 33.356C23.1361 32.15 24.3931 31.083 25.1951 29.456C26.0351 27.791 26.3011 25.864 26.3011 20.794V9.304H32.1761ZM25.7091 0H31.5921V5.978H25.7091V0Z" fill="#00825A"/>
</svg>
