<svg width="32" height="32" viewBox="0 0 32 32" fill="none" xmlns="http://www.w3.org/2000/svg">
    <path fill-rule="evenodd" clip-rule="evenodd"
        d="M19.0313 10.4462C19.0372 9.55153 18.8042 8.67145 18.3563 7.89659C17.9085 7.12174 17.2619 6.48014 16.4833 6.03784L6 0V3.69892L14.8815 8.81889C15.167 8.98601 15.4037 9.22481 15.5682 9.51153C15.7327 9.79833 15.8193 10.123 15.8193 10.4536C15.8193 10.7842 15.7327 11.1089 15.5682 11.3957C15.4037 11.6824 15.167 11.9212 14.8815 12.0883L6 17.2104V20.9093L16.4833 14.863C17.2632 14.4201 17.9105 13.7771 18.3585 13.0006C18.8064 12.2242 19.0387 11.3424 19.0313 10.4462ZM13.8149 21.5538C13.8095 22.4484 14.0427 23.3283 14.4905 24.1031C14.9383 24.8779 15.5846 25.5196 16.363 25.9622L26.8462 32V28.3095L17.9669 23.1874C17.6819 23.0202 17.4456 22.7815 17.2814 22.495C17.1172 22.2084 17.0308 21.884 17.0308 21.5538C17.0308 21.2236 17.1172 20.8992 17.2814 20.6126C17.4456 20.3261 17.6819 20.0874 17.9669 19.9201L26.8462 14.798V11.0991L16.363 17.1454C15.5846 17.588 14.9383 18.2297 14.4905 19.0045C14.0427 19.7793 13.8095 20.6592 13.8149 21.5538Z"
        fill="white" />
</svg>