<svg width="21" height="32" viewBox="0 0 21 32" fill="none" xmlns="http://www.w3.org/2000/svg">
    <path fill-rule="evenodd" clip-rule="evenodd"
        d="M13.0313 10.4462C13.0372 9.55153 12.8042 8.67145 12.3563 7.89659C11.9085 7.12174 11.2619 6.48014 10.4833 6.03784L0 0V3.69892L8.88145 8.81889C9.16697 8.98601 9.40369 9.22481 9.56825 9.51153C9.73273 9.79833 9.81929 10.123 9.81929 10.4536C9.81929 10.7842 9.73273 11.1089 9.56825 11.3957C9.40369 11.6824 9.16697 11.9212 8.88145 12.0883L0 17.2104V20.9093L10.4833 14.863C11.2632 14.4201 11.9105 13.7771 12.3585 13.0006C12.8064 12.2242 13.0387 11.3424 13.0313 10.4462ZM7.81488 21.5538C7.80948 22.4484 8.04266 23.3283 8.4905 24.1031C8.93833 24.8779 9.58465 25.5196 10.363 25.9622L20.8462 32V28.3095L11.9669 23.1874C11.6819 23.0202 11.4456 22.7815 11.2814 22.495C11.1172 22.2084 11.0308 21.884 11.0308 21.5538C11.0308 21.2236 11.1172 20.8992 11.2814 20.6126C11.4456 20.3261 11.6819 20.0874 11.9669 19.9201L20.8462 14.798V11.0991L10.363 17.1454C9.58465 17.588 8.93833 18.2297 8.4905 19.0045C8.04266 19.7793 7.80948 20.6592 7.81488 21.5538Z"
        fill="white" />
</svg>