<?xml version="1.0" encoding="UTF-8"?>
<svg xmlns="http://www.w3.org/2000/svg" xmlns:xlink="http://www.w3.org/1999/xlink" width="300px" height="300px" viewBox="0 0 300 300" version="1.1">
<g id="surface1">
<path style=" stroke:none;fill-rule:nonzero;fill:rgb(1.960784%,98.039216%,75.294119%);fill-opacity:1;" d="M 270.433594 297.074219 L 31.558594 297.074219 C 16.714844 297.074219 4.640625 285 4.640625 270.15625 L 4.640625 31.28125 C 4.640625 16.441406 16.714844 4.363281 31.558594 4.363281 L 270.433594 4.363281 C 285.273438 4.363281 297.351562 16.441406 297.351562 31.28125 L 297.351562 270.15625 C 297.351562 285 285.273438 297.074219 270.433594 297.074219 Z M 270.433594 297.074219 "/>
<path style=" stroke:none;fill-rule:nonzero;fill:rgb(0%,98.823529%,78.431374%);fill-opacity:1;" d="M 31.558594 7.304688 C 18.339844 7.304688 7.582031 18.0625 7.582031 31.28125 L 7.582031 270.15625 C 7.582031 283.375 18.339844 294.132812 31.558594 294.132812 L 270.433594 294.132812 C 283.652344 294.132812 294.410156 283.375 294.410156 270.15625 L 294.410156 31.28125 C 294.410156 18.0625 283.652344 7.304688 270.433594 7.304688 L 31.558594 7.304688 M 31.558594 1.421875 L 270.433594 1.421875 C 286.921875 1.421875 300.289062 14.792969 300.289062 31.28125 L 300.289062 270.15625 C 300.289062 286.644531 286.921875 300.015625 270.433594 300.015625 L 31.558594 300.015625 C 15.066406 300.015625 1.699219 286.644531 1.699219 270.15625 L 1.699219 31.28125 C 1.699219 14.792969 15.066406 1.421875 31.558594 1.421875 Z M 31.558594 1.421875 "/>
<path style="fill-rule:nonzero;fill:rgb(1.176471%,88.627452%,68.235296%);fill-opacity:1;stroke-width:1;stroke-linecap:butt;stroke-linejoin:miter;stroke:rgb(1.176471%,88.627452%,68.235296%);stroke-opacity:1;stroke-miterlimit:4;" d="M 1059.499935 -2628.271301 C 1073.510325 -2628.271301 1085.928294 -2633.010051 1093.551731 -2640.434934 C 1101.175833 -2647.859817 1104.702669 -2660.57927 1104.642903 -2673.482668 L 1065.465208 -2673.493293 C 1059.44681 -2673.480676 1059.503255 -2668.585208 1059.511224 -2668.559309 Z M 1059.499935 -2628.271301 " transform="matrix(5.882353,0,0,5.882353,-6229.165056,15729.364732)"/>
<path style="fill-rule:nonzero;fill:rgb(0%,81.568629%,62.352943%);fill-opacity:1;stroke-width:1;stroke-linecap:butt;stroke-linejoin:miter;stroke:rgb(0%,81.568629%,62.352943%);stroke-opacity:1;stroke-miterlimit:4;" d="M 1059.521888 -2638.790715 C 1070.885989 -2638.790715 1079.330208 -2641.490793 1085.21181 -2647.236262 C 1091.094075 -2652.981067 1094.984817 -2662.862981 1094.984817 -2673.491301 L 1064.655091 -2673.491301 C 1059.466771 -2673.478684 1059.515247 -2668.874739 1059.521888 -2668.850833 Z M 1059.521888 -2638.790715 " transform="matrix(5.882353,0,0,5.882353,-6229.22388,15729.364732)"/>
</g>
</svg>
