<svg width="36" height="36" viewBox="0 0 36 36" fill="none" xmlns="http://www.w3.org/2000/svg">
<path d="M8.33838 17.3891C8.75722 16.6582 8.50058 15.7327 7.76517 15.3219C7.02976 14.9111 6.09406 15.1706 5.67522 15.9015L0.758713 24.4807C0.339878 25.2116 0.596512 26.1371 1.33192 26.5479C2.06733 26.9587 3.00304 26.6992 3.42187 25.9684L8.33838 17.3891Z" fill="#C5F74F"/>
<path d="M18.936 10.811C19.3549 10.0801 19.0982 9.15461 18.3628 8.74381C17.6274 8.33302 16.6917 8.59248 16.2729 9.32335L11.3564 17.9026C10.9375 18.6335 11.1942 19.559 11.9296 19.9698C12.665 20.3806 13.6007 20.1211 14.0195 19.3902L18.936 10.811Z" fill="#C5F74F"/>
<path d="M35.2407 10.811C35.6596 10.0801 35.4029 9.15461 34.6675 8.74381C33.9321 8.33302 32.9964 8.59248 32.5776 9.32335L27.6611 17.9026C27.2422 18.6335 27.4989 19.559 28.2343 19.9698C28.9697 20.3806 29.9054 20.1211 30.3242 19.3902L35.2407 10.811Z" fill="#C5F74F"/>
<path d="M24.6431 17.3891C25.0619 16.6582 24.8053 15.7327 24.0699 15.3219C23.3344 14.9111 22.3987 15.1706 21.9799 15.9015L17.0634 24.4807C16.6446 25.2116 16.9012 26.1371 17.6366 26.5479C18.372 26.9587 19.3077 26.6992 19.7266 25.9684L24.6431 17.3891Z" fill="#C5F74F"/>
</svg>
