<svg width="36" height="36" viewBox="0 0 36 36" fill="none" xmlns="http://www.w3.org/2000/svg">
<path d="M25.2563 22.4613C25.4813 22.3207 25.7344 22.1801 25.9594 22.0395C27.5344 20.6895 26.9719 18.2426 24.3 14.8113C24.3563 16.527 24.6375 18.2988 24.9188 20.1832C25.0313 20.9145 25.1438 21.6738 25.2563 22.4613ZM10.0406 28.9863C10.9406 32.8395 13.2188 34.9207 15.8063 35.7926C17.2406 36.0457 18.675 35.9895 20.1094 35.6801C20.3344 35.5676 20.5313 35.427 20.7281 35.2863C21.2906 34.9207 21.7688 34.4988 22.2188 34.077C20.3906 33.2895 18.5344 31.7707 16.7906 29.9707C15.4406 29.8863 14.1188 29.7457 12.9656 29.577C11.8406 29.4645 10.8844 29.2676 10.0406 28.9863ZM9.64688 10.8457L9.59063 11.2395C9.19688 13.4613 9.16875 15.4582 9.47813 17.202C9.7875 15.1207 10.2094 12.9832 10.8 10.9301C10.8844 10.6207 10.9688 10.2832 11.0813 9.9457H11.1094C11.5594 8.53945 12.0656 7.18945 12.6563 5.92383C11.5313 7.41445 10.5469 9.07383 9.64688 10.8457Z" fill="#9B5ADB"/>
<path d="M9.45145 32.0246C10.4358 33.2621 11.5608 34.1621 12.7983 34.809C11.2233 33.5152 9.98583 31.5746 9.42333 28.7902C8.35458 28.3965 7.51083 27.8621 6.86395 27.1871C7.31395 28.9871 8.1577 30.6465 9.45145 32.0246ZM9.2827 18.8059C8.77645 17.1465 8.6077 15.234 8.77645 13.0684C8.46708 13.7152 8.18583 14.4184 7.87645 15.1215C6.61083 18.8059 6.04833 22.6309 6.5827 26.0059C7.17333 26.9059 8.0452 27.6371 9.2827 28.1434C8.88895 25.9777 8.86083 22.5465 9.2827 18.8059ZM9.90145 28.3121C9.90145 28.3402 9.90145 28.3402 9.90145 28.3121C10.8015 28.6496 11.814 28.8746 13.0233 29.0152C14.0077 29.184 15.0765 29.2965 16.2015 29.3809C13.8671 26.8215 11.814 23.8121 10.4921 21.3371C10.1827 20.8871 9.92958 20.409 9.70458 19.9309C9.3952 23.3621 9.47958 26.4277 9.90145 28.3121ZM24.3577 20.2402C24.0483 18.1309 23.7108 15.9934 23.7108 13.9684C20.139 10.6496 16.6796 7.10586 16.8202 1.39648C16.7077 1.48086 16.5952 1.56523 16.5108 1.64961C15.8921 2.18398 15.2733 2.77461 14.6827 3.42148C13.4171 5.22148 12.4046 7.52773 11.6171 10.0309C11.1671 13.2934 14.3171 19.6777 18.5077 24.5715C20.5327 24.4871 22.6702 23.8684 24.7233 22.7434C24.6108 21.9277 24.4983 21.084 24.3577 20.2402ZM27.1702 31.4059C26.439 31.2652 25.7077 31.0121 24.9765 30.6746C24.6108 31.8277 24.0202 32.8965 23.1765 33.8809C23.4858 33.9652 23.7671 34.0496 24.0483 34.0777C25.2296 33.3746 26.2983 32.4465 27.1702 31.4059Z" fill="#9B5ADB"/>
<path d="M17.3837 0.976953C17.0743 6.46133 20.2243 9.94883 23.6556 13.127C20.6462 9.1332 18.9024 6.74258 18.9024 0.0488281C18.4243 0.301953 17.9181 0.611328 17.3837 0.976953ZM23.3181 29.7207C21.8274 29.9457 20.2806 30.0301 18.7618 30.0301C18.3681 30.0301 17.9462 30.0301 17.5524 30.002C19.1837 31.6332 20.9274 32.9832 22.6149 33.6582C23.5149 32.6738 24.1056 31.577 24.4712 30.3957C24.0774 30.1988 23.6837 29.9738 23.3181 29.7207ZM22.6431 29.2707C22.0806 28.877 21.5743 28.4551 21.0962 28.0332C20.1118 27.1613 19.1556 26.2051 18.2556 25.1645C16.2587 25.1926 14.4024 24.7145 12.8837 23.7301C12.6587 23.5895 12.4337 23.4207 12.2368 23.252C13.5306 25.3051 15.1899 27.5551 16.9899 29.4395C18.8181 29.5238 20.7868 29.4957 22.6431 29.2707ZM25.3431 29.327C25.2868 29.6082 25.2306 29.8613 25.1462 30.1426C25.9337 30.5363 26.7493 30.8176 27.5649 30.902C28.2681 29.9457 28.8306 28.877 29.1681 27.7238C28.1274 28.427 26.8056 28.9613 25.3431 29.327Z" fill="#9B5ADB"/>
<path d="M13.1923 23.2496C14.5142 24.0934 16.0892 24.5434 17.7767 24.5996C14.3173 20.4934 11.6454 15.4871 11.111 11.9434C10.4642 14.4465 10.2392 15.9934 9.87354 18.5809V18.6371C10.1267 19.284 10.4642 20.0715 10.9142 20.9152C11.5048 21.8715 12.2642 22.659 13.1923 23.2496ZM24.8079 23.3621C22.8954 24.4027 20.8985 24.9934 18.986 25.134C19.8017 26.034 20.6173 26.8777 21.461 27.609C22.0517 28.1434 22.7267 28.6777 23.4579 29.1559C23.936 29.0715 24.386 28.9871 24.836 28.9027C25.1173 27.1309 25.0329 25.2746 24.8079 23.3621ZM25.4267 28.734C27.0017 28.3121 28.3798 27.7215 29.3923 26.8777C29.8142 24.9371 29.6735 22.8277 28.7454 20.5777C27.9298 19.1996 27.1423 17.9902 26.411 16.9215C27.761 19.3965 27.7329 21.1965 26.2985 22.434L26.2704 22.4621C25.961 22.659 25.6517 22.8559 25.3142 23.0527C25.5673 24.9934 25.6798 26.934 25.4267 28.734Z" fill="#9B5ADB"/>
</svg>
