<svg width="24" height="36" viewBox="0 0 24 36" fill="none" xmlns="http://www.w3.org/2000/svg">
<g clip-path="url(#clip0_22179_7604)">
<path d="M19.3407 22.5C19.5657 22.3594 19.8189 22.2188 20.0438 22.0781C21.6189 20.7281 21.0564 18.2813 18.3845 14.85C18.4407 16.5656 18.722 18.3375 19.0032 20.2219C19.1157 20.9531 19.2282 21.7125 19.3407 22.5ZM4.1251 29.025C5.0251 32.8781 7.30323 34.9594 9.89073 35.8313C11.3251 36.0844 12.7595 36.0282 14.1939 35.7188C14.4189 35.6063 14.6157 35.4656 14.8126 35.325C15.3751 34.9594 15.8532 34.5375 16.3032 34.1157C14.4751 33.3282 12.6189 31.8094 10.8751 30.0094C9.5251 29.925 8.20323 29.7844 7.0501 29.6157C5.9251 29.5032 4.96885 29.3063 4.1251 29.025ZM3.73135 10.8844L3.6751 11.2781C3.28135 13.5 3.25323 15.4969 3.5626 17.2406C3.87198 15.1594 4.29385 13.0219 4.88448 10.9688C4.96885 10.6594 5.05323 10.3219 5.16573 9.9844H5.19385C5.64385 8.57815 6.1501 7.22815 6.74073 5.96252C5.61573 7.45315 4.63135 9.11252 3.73135 10.8844Z" fill="#18191B"/>
<path d="M3.53446 32.0625C4.51883 33.3 5.64383 34.2 6.88133 34.8469C5.30633 33.5531 4.06883 31.6125 3.50633 28.8281C2.43758 28.4344 1.59383 27.9 0.946959 27.225C1.39696 29.025 2.24071 30.6844 3.53446 32.0625ZM3.36571 18.8438C2.85946 17.1844 2.69071 15.2719 2.85946 13.1063C2.55008 13.7531 2.26883 14.4563 1.95946 15.1594C0.693833 18.8438 0.131334 22.6688 0.665709 26.0438C1.25633 26.9438 2.12821 27.675 3.36571 28.1813C2.97196 26.0156 2.94383 22.5844 3.36571 18.8438ZM3.98446 28.35C3.98446 28.3781 3.98446 28.3781 3.98446 28.35C4.88446 28.6875 5.89696 28.9125 7.10633 29.0531C8.09071 29.2219 9.15946 29.3344 10.2845 29.4188C7.95008 26.8594 5.89696 23.85 4.57508 21.375C4.26571 20.925 4.01258 20.4469 3.78758 19.9688C3.47821 23.4 3.56258 26.4656 3.98446 28.35ZM18.4407 20.2781C18.1313 18.1688 17.7938 16.0313 17.7938 14.0063C14.222 10.6875 10.7626 7.14376 10.9032 1.43439C10.7907 1.51876 10.6782 1.60314 10.5938 1.68751C9.97508 2.22189 9.35633 2.81251 8.76571 3.45939C7.50008 5.25939 6.48758 7.56564 5.70008 10.0688C5.25008 13.3313 8.40008 19.7156 12.5907 24.6094C14.6157 24.525 16.7532 23.9063 18.8063 22.7813C18.6938 21.9656 18.5813 21.1219 18.4407 20.2781ZM21.2532 31.4438C20.522 31.3031 19.7907 31.05 19.0595 30.7125C18.6938 31.8656 18.1032 32.9344 17.2595 33.9188C17.5688 34.0031 17.8501 34.0875 18.1313 34.1156C19.3126 33.4125 20.3813 32.4844 21.2532 31.4438Z" fill="#18191B"/>
<path d="M11.4657 1.01248C11.1563 6.49685 14.3063 9.98435 17.7376 13.1625C14.7282 9.16873 12.9845 6.7781 12.9845 0.0843506C12.5063 0.337476 12.0001 0.646851 11.4657 1.01248ZM17.4001 29.7562C15.9095 29.9812 14.3626 30.0656 12.8438 30.0656C12.4501 30.0656 12.0282 30.0656 11.6345 30.0375C13.2657 31.6687 15.0095 33.0187 16.697 33.6937C17.597 32.7094 18.1876 31.6125 18.5532 30.4312C18.1595 30.2343 17.7657 30.0093 17.4001 29.7562ZM16.7251 29.3062C16.1626 28.9125 15.6563 28.4906 15.1782 28.0687C14.1938 27.1968 13.2376 26.2406 12.3376 25.2C10.3407 25.2281 8.48447 24.75 6.96572 23.7656C6.74072 23.625 6.51572 23.4562 6.31885 23.2875C7.6126 25.3406 9.27197 27.5906 11.072 29.475C12.9001 29.5594 14.8688 29.5312 16.7251 29.3062ZM19.4251 29.3625C19.3688 29.6437 19.3126 29.8969 19.2282 30.1781C20.0157 30.5718 20.8313 30.8531 21.647 30.9375C22.3501 29.9812 22.9126 28.9125 23.2501 27.7593C22.2095 28.4625 20.8876 28.9969 19.4251 29.3625Z" fill="#18191B"/>
<path d="M7.2748 23.2875C8.59668 24.1313 10.1717 24.5813 11.8592 24.6375C8.3998 20.5313 5.72793 15.525 5.19355 11.9813C4.54668 14.4844 4.32168 16.0313 3.95605 18.6188V18.675C4.20918 19.3219 4.54668 20.1094 4.99668 20.9531C5.5873 21.9094 6.34668 22.6969 7.2748 23.2875ZM18.8904 23.4C16.9779 24.4406 14.9811 25.0313 13.0686 25.1719C13.8842 26.0719 14.6998 26.9156 15.5436 27.6469C16.1342 28.1813 16.8092 28.7156 17.5404 29.1938C18.0186 29.1094 18.4686 29.025 18.9186 28.9406C19.1998 27.1688 19.1154 25.3125 18.8904 23.4ZM19.5092 28.7719C21.0842 28.35 22.4623 27.7594 23.4748 26.9156C23.8967 24.975 23.7561 22.8656 22.8279 20.6156C22.0123 19.2375 21.2248 18.0281 20.4936 16.9594C21.8436 19.4344 21.8154 21.2344 20.3811 22.4719L20.3529 22.5C20.0436 22.6969 19.7342 22.8938 19.3967 23.0906C19.6498 25.0313 19.7623 26.9719 19.5092 28.7719Z" fill="#18191B"/>
</g>
<defs>
<clipPath id="clip0_22179_7604">
<rect width="24" height="36" fill="white"/>
</clipPath>
</defs>
</svg>
