<svg width="36" height="36" viewBox="0 0 36 36" fill="none" xmlns="http://www.w3.org/2000/svg">
<path opacity="0.5" d="M12.5036 13.929C13.8009 17.8965 14.2924 24.9742 18.0863 24.9742C18.3751 24.9742 18.667 24.9458 18.9599 24.8901C15.5111 24.086 15.1023 17.0853 12.9979 13.46C12.83 13.6131 12.6653 13.7694 12.5036 13.929Z" fill="#18191B"/>
<path opacity="0.8" d="M12.9976 13.4599C15.1021 17.0853 15.5108 24.0859 18.9596 24.89C19.2305 24.8403 19.502 24.765 19.7741 24.67C16.6785 23.1535 15.8229 16.3552 13.4329 13.0825C13.2853 13.2056 13.1402 13.3314 12.9976 13.4601" fill="#18191B"/>
<path d="M16.0301 11.3037C15.7419 11.3037 15.4494 11.332 15.156 11.3878C14.3883 11.5325 13.6084 11.8631 12.8223 12.3632C13.037 12.5751 13.2413 12.8176 13.4335 13.0824C14.2331 12.4188 15.0274 11.9286 15.8189 11.6339C16.1078 11.5258 16.4055 11.443 16.7087 11.3865C16.4868 11.3307 16.2589 11.3029 16.0301 11.3037Z" fill="#18191B"/>
<path opacity="0.5" d="M22.1907 23.2723C22.5205 23.0088 22.8381 22.7305 23.1426 22.4381C21.8243 18.489 21.3525 11.3101 17.5319 11.3101C17.2587 11.3101 16.9831 11.3355 16.708 11.3865C20.1881 12.252 20.6339 19.8235 22.1908 23.2723" fill="#18191B"/>
<path d="M16.7083 11.3864C16.4865 11.3307 16.2585 11.3029 16.0298 11.3037L17.5322 11.3093C17.259 11.3093 16.9834 11.3349 16.7083 11.3864Z" fill="#18191B"/>
<path d="M22.1244 24.111C21.975 23.9686 21.8332 23.8123 21.6936 23.6455C21.0509 24.1005 20.4107 24.4456 19.7744 24.6702C20.0015 24.7817 20.242 24.8636 20.49 24.9139C20.6907 24.9546 20.8949 24.9748 21.0996 24.9742C21.8135 24.9742 22.3779 24.8897 22.8586 24.6593C22.5938 24.5163 22.3513 24.3308 22.1244 24.111Z" fill="#18191B"/>
<path opacity="0.8" d="M15.8184 11.6345C18.9353 13.2648 19.2063 20.6477 21.6935 23.6455C21.8627 23.5259 22.0284 23.4014 22.1903 23.272C20.6334 19.8232 20.1882 12.2512 16.7088 11.3862C16.4054 11.4433 16.1075 11.5264 15.8184 11.6345Z" fill="#18191B"/>
<path d="M13.4331 13.0823C15.823 16.355 16.6788 23.1531 19.7744 24.6699C20.4107 24.4454 21.051 24.1002 21.6936 23.6452C19.2064 20.6474 18.9355 13.2645 15.8185 11.6343C15.0271 11.9284 14.2327 12.4187 13.4331 13.0822" fill="#18191B"/>
<path opacity="0.6" d="M10.9743 13.8335C10.5997 14.6805 10.217 15.7938 9.75439 17.247C10.6744 15.9508 11.5915 14.8338 12.5034 13.9292C12.3779 13.5431 12.243 13.187 12.0976 12.8696C11.7061 13.1705 11.3311 13.4923 10.9744 13.8337" fill="#18191B"/>
<path d="M12.4295 12.625C12.3176 12.7047 12.2069 12.7861 12.0977 12.8693C12.243 13.1866 12.3772 13.5426 12.503 13.9288C12.665 13.7696 12.8298 13.6132 12.9973 13.4598C12.8208 13.1564 12.6332 12.8763 12.4295 12.625Z" fill="#18191B"/>
<path d="M12.8216 12.3639C12.6889 12.4482 12.5581 12.5355 12.4292 12.6255C12.6331 12.8768 12.8205 13.157 12.9977 13.4609C13.1401 13.3318 13.2852 13.2057 13.433 13.0829C13.2409 12.8183 13.0367 12.5757 12.8218 12.3638" fill="#18191B"/>
<path opacity="0.3" d="M34.083 11.0016C32.3201 17.8002 28.638 23.2608 25.5509 24.6375H25.5452C25.489 24.663 25.4334 24.6862 25.3784 24.7087C25.3708 24.7134 25.3639 24.714 25.3581 24.7167C25.3419 24.7232 25.3269 24.7283 25.3106 24.7348C25.303 24.7393 25.2962 24.7409 25.2893 24.7436C25.2632 24.7529 25.2377 24.7607 25.2122 24.7709C25.2012 24.7756 25.1909 24.7784 25.1804 24.7821C25.1679 24.7869 25.1551 24.791 25.1422 24.7945C25.1306 24.7991 25.1184 24.8025 25.1051 24.8076C25.094 24.8121 25.0824 24.8141 25.0721 24.8186C25.0494 24.8251 25.0288 24.8306 25.0061 24.8384C24.9968 24.8384 24.9881 24.8435 24.9784 24.8461C24.9644 24.8506 24.9486 24.8538 24.9336 24.8581C24.9233 24.8626 24.9147 24.8642 24.9036 24.8664C24.8881 24.871 24.8706 24.8752 24.8549 24.8789L24.7959 24.8919C24.9373 24.944 25.0869 24.9703 25.2376 24.9695C28.1649 24.9695 31.1162 19.7237 35.9998 11H34.0823L34.083 11.0016Z" fill="#18191B"/>
<path opacity="0.4" d="M9.11877 11.58C9.12061 11.58 9.12302 11.5755 9.12401 11.5755C9.12642 11.5755 9.12996 11.5755 9.13109 11.571H9.13477C9.15091 11.5653 9.16591 11.5589 9.18219 11.5528C9.18644 11.5528 9.18857 11.5528 9.19154 11.5483C9.19564 11.5483 9.19961 11.5436 9.20371 11.5431C9.22098 11.5375 9.2384 11.531 9.25468 11.5251H9.25737C9.29615 11.5135 9.33211 11.499 9.36963 11.4856C9.37501 11.4856 9.3801 11.4811 9.38647 11.4811C9.40205 11.476 9.41832 11.4704 9.4346 11.4668C9.44211 11.4621 9.44961 11.4621 9.45655 11.4597C9.47325 11.4547 9.48953 11.4491 9.5051 11.4454C9.51218 11.4454 9.51841 11.4407 9.52365 11.4403C9.57744 11.4254 9.63081 11.4115 9.68461 11.3987C9.69211 11.3987 9.69848 11.394 9.70655 11.3936C9.72212 11.389 9.7367 11.3865 9.75355 11.3842C9.76049 11.3797 9.76856 11.3797 9.77663 11.3773C9.7922 11.3728 9.80735 11.3722 9.82419 11.3685H9.83509C9.86765 11.3619 9.90064 11.3565 9.93306 11.3504H9.95273C9.96831 11.3459 9.98218 11.3453 9.99789 11.3425C10.0064 11.3425 10.0152 11.3379 10.0234 11.3379C10.0378 11.3379 10.0523 11.3333 10.0667 11.3314C10.0743 11.3314 10.0817 11.3314 10.0905 11.3268C10.1246 11.3222 10.1598 11.3204 10.1958 11.3175C10.0923 11.3071 9.98837 11.3017 9.88436 11.3013C6.58787 11.3013 2.0459 17.4179 0 25.339H0.394259C1.049 24.1714 1.6372 23.0667 2.17515 22.0298C3.60793 16.4191 6.52643 12.5929 9.11892 11.5792" fill="#18191B"/>
<path d="M10.9746 13.8336C11.3313 13.4922 11.7062 13.1704 12.0976 12.8695C12.018 12.6924 11.9288 12.5198 11.8302 12.3525C11.5287 12.7185 11.2531 13.2014 10.9746 13.8336Z" fill="#18191B"/>
<path d="M11.2454 11.6264C11.4606 11.807 11.6535 12.0553 11.83 12.353C11.8857 12.2846 11.9419 12.2215 12.0002 12.1625C11.7553 11.9338 11.4908 11.7463 11.2036 11.605C11.2152 11.6114 11.2268 11.6166 11.2389 11.6217C11.2389 11.6217 11.2434 11.6264 11.2454 11.6264Z" fill="#18191B"/>
<path opacity="0.7" d="M2.1748 22.0303C5.1808 16.2379 6.60494 12.572 9.11871 11.5796C6.5268 12.594 3.60773 16.4203 2.17495 22.0303" fill="#18191B"/>
<path d="M11.9998 12.1621C11.9413 12.2217 11.8858 12.2843 11.8296 12.3527C11.9282 12.52 12.0176 12.6925 12.0976 12.8695C12.2069 12.7863 12.3175 12.7049 12.4294 12.6253C12.2972 12.4611 12.1536 12.3063 11.9998 12.1621Z" fill="#18191B"/>
<path opacity="0.5" d="M3.53977 25.3134C3.52123 25.3181 3.50268 25.3181 3.48527 25.3199H3.47494C3.45922 25.3199 3.44294 25.3246 3.4285 25.3246H3.421C3.38334 25.3291 3.34625 25.3291 3.31044 25.332H3.29883C6.3412 25.2469 7.7318 23.7236 8.42207 21.5144C8.94657 19.8395 9.37721 18.4285 9.75476 17.2446C8.48039 19.0383 7.20036 21.1763 5.91339 23.5715C5.29277 24.7258 4.3491 25.2079 3.53963 25.3113" fill="#18191B"/>
<path opacity="0.8" d="M3.5392 25.3126C4.34853 25.2095 5.2922 24.7279 5.91283 23.5728C7.19979 21.1783 8.48053 19.0397 9.75349 17.2461C10.2167 15.7922 10.5989 14.6795 10.9741 13.8325C8.43651 16.2479 5.88904 20.2641 3.53906 25.3115" fill="#18191B"/>
<path d="M2.17493 22.0303C1.63698 23.0671 1.04878 24.1717 0.394043 25.3395H1.54086C1.68569 24.2249 1.89743 23.12 2.17493 22.0308" fill="#18191B"/>
<path d="M10.0904 11.3292C10.081 11.3292 10.0741 11.3338 10.066 11.3338C10.0521 11.3384 10.0377 11.3384 10.0231 11.3398C10.0146 11.3398 10.0064 11.3398 9.99765 11.3445C9.98207 11.349 9.96763 11.3495 9.95249 11.3524C9.94555 11.3524 9.93861 11.3524 9.93281 11.357C9.89982 11.3625 9.86741 11.3686 9.83513 11.3741H9.82409C9.80724 11.3788 9.79209 11.3812 9.77652 11.3834C9.76845 11.388 9.76038 11.388 9.75274 11.3898C9.73717 11.3945 9.72159 11.3963 9.70645 11.3992C9.69838 11.4037 9.69201 11.4037 9.6845 11.4041C9.63071 11.4171 9.57734 11.431 9.52354 11.4459C9.51788 11.4459 9.51194 11.4504 9.505 11.4514C9.48886 11.4559 9.47315 11.4606 9.4563 11.4657C9.44936 11.4704 9.4413 11.4704 9.43436 11.4722C9.41823 11.4767 9.40218 11.4814 9.38623 11.4865C9.38 11.4865 9.37476 11.491 9.36896 11.491C9.33187 11.5049 9.29534 11.5189 9.25712 11.5304C9.24098 11.5355 9.22357 11.542 9.20616 11.5481C9.19922 11.5526 9.19299 11.5537 9.18492 11.5569C9.16864 11.562 9.15236 11.5685 9.13735 11.5744C9.13169 11.5791 9.12575 11.5795 9.12178 11.5819C6.60801 12.5743 5.18373 16.2401 2.17787 22.0325C1.90013 23.1217 1.68843 24.2266 1.54395 25.3413H1.7049C2.1582 25.3413 2.28617 25.3367 2.8077 25.3367H3.31323C3.34904 25.3321 3.38613 25.3321 3.42365 25.3292H3.43072C3.4463 25.3292 3.46187 25.3246 3.47702 25.3246H3.48806C3.50476 25.3246 3.52387 25.3201 3.54242 25.3181C5.8924 20.2708 8.43972 16.2546 10.9774 13.8392C11.2563 13.2071 11.5314 12.7242 11.8325 12.3588C11.6564 12.0613 11.4636 11.8124 11.2482 11.6317C11.2482 11.6317 11.2424 11.6317 11.242 11.6271C11.2297 11.6221 11.2182 11.616 11.206 11.6101C11.1939 11.6034 11.1834 11.5983 11.1707 11.592C11.1588 11.587 11.1472 11.5814 11.136 11.5753C11.121 11.5706 11.1088 11.5641 11.0955 11.5581C11.0844 11.5535 11.0747 11.5488 11.0636 11.5443C11.0412 11.5356 11.019 11.5263 10.9971 11.5164C10.9872 11.5118 10.978 11.5093 10.9688 11.5058C10.9519 11.4996 10.9353 11.493 10.9188 11.4859C10.9107 11.4813 10.9015 11.4803 10.8922 11.477C10.8686 11.4691 10.8453 11.4607 10.8234 11.4534H10.8176C10.791 11.4446 10.7649 11.4381 10.7377 11.4307C10.7314 11.4261 10.7261 11.4261 10.7198 11.4251C10.696 11.4187 10.6752 11.4123 10.6527 11.4062C10.647 11.4062 10.6416 11.4016 10.6371 11.4016C10.5817 11.3874 10.5259 11.3752 10.4696 11.365C10.464 11.365 10.4582 11.3604 10.4524 11.3604C10.4284 11.3556 10.4043 11.3517 10.38 11.3488C10.3741 11.3442 10.3707 11.3442 10.3656 11.3442C10.3371 11.3399 10.3085 11.3361 10.2798 11.333H10.2648C10.2416 11.3285 10.2202 11.3281 10.1988 11.3257C10.1623 11.3302 10.1276 11.3322 10.0933 11.3355" fill="#18191B"/>
<path opacity="0.8" d="M27.197 14.7654C26.6187 16.6181 26.1502 18.1464 25.7427 19.4039C27.3296 17.2202 28.8928 14.4729 30.3813 11.3027C28.645 11.848 27.7186 13.0964 27.197 14.7654Z" fill="#18191B"/>
<path opacity="0.7" d="M25.7933 24.5216C25.7124 24.563 25.6313 24.6022 25.5513 24.6374C28.6384 23.2607 32.3205 17.8001 34.0834 11.0015H33.7261C29.6759 18.2366 28.3732 23.0801 25.7933 24.5216Z" fill="#18191B"/>
<path opacity="0.8" d="M23.7772 23.9139C24.4488 23.0941 24.996 21.7006 25.7429 19.4038C24.8813 20.5873 24.0141 21.6044 23.1461 22.4342C23.1461 22.4387 23.1461 22.4387 23.1416 22.4415C23.3309 23.0089 23.5387 23.5096 23.7755 23.9138" fill="#18191B"/>
<path opacity="0.8" d="M23.7772 23.9141C23.5486 24.1929 23.3065 24.4056 23.0373 24.563C22.9782 24.5973 22.9186 24.6295 22.8579 24.6593C23.15 24.8174 23.4697 24.9182 23.7997 24.9561C23.8507 24.9612 23.9011 24.9659 23.9538 24.9696H23.9631C23.9868 24.9696 24.0117 24.9696 24.0371 24.9741H24.2884C24.2976 24.9741 24.3073 24.9741 24.3166 24.9696C24.3346 24.9696 24.3535 24.9696 24.3721 24.9649H24.3996C24.4185 24.9649 24.4393 24.9604 24.4597 24.9584H24.4642C24.4703 24.9584 24.4769 24.9539 24.4828 24.9539C24.504 24.9492 24.5264 24.9473 24.5471 24.9441H24.5662C24.5897 24.9396 24.6142 24.9366 24.6384 24.9321H24.6501C24.6987 24.9227 24.7461 24.9137 24.7942 24.9015C24.3959 24.7557 24.0623 24.4117 23.7753 23.9218" fill="#18191B"/>
<path opacity="0.6" d="M18.0864 24.9743C18.3754 24.9743 18.6671 24.946 18.9602 24.8898C19.2311 24.8407 19.5026 24.7653 19.7747 24.6704C20.0017 24.7818 20.2419 24.8638 20.4896 24.9142C20.6905 24.9548 20.895 24.9749 21.0999 24.9743H18.0864Z" fill="#18191B"/>
<path d="M21.0996 24.9747C21.813 24.9747 22.378 24.8901 22.8579 24.6597C23.15 24.818 23.4698 24.9188 23.7998 24.9568C23.8508 24.9618 23.9012 24.9664 23.9539 24.9701H23.9632C23.9869 24.9701 24.0118 24.9701 24.0373 24.9748H24.1239H21.0977L21.0996 24.9747Z" fill="#18191B"/>
<path d="M24.1255 24.9745H24.2906C24.3003 24.9745 24.3095 24.9745 24.3189 24.97C24.3368 24.97 24.3558 24.97 24.3751 24.9653H24.4024C24.4214 24.9653 24.4422 24.9608 24.462 24.959H24.4671C24.4732 24.959 24.4791 24.9544 24.4852 24.9544C24.5064 24.9498 24.5287 24.9479 24.5493 24.9445C24.5564 24.9445 24.5619 24.9445 24.5693 24.94C24.5929 24.9355 24.6174 24.9331 24.6418 24.9285H24.6534C24.7019 24.9192 24.7494 24.91 24.7974 24.8979C24.9387 24.9501 25.0884 24.9763 25.239 24.9755L24.1263 24.9801L24.1255 24.9745Z" fill="#18191B"/>
<path opacity="0.9" d="M23.1434 22.4417V22.437C22.839 22.7294 22.5214 23.0078 22.1917 23.2713C22.0295 23.4004 21.8636 23.525 21.6943 23.6447C21.8338 23.8115 21.9756 23.9678 22.1251 24.1103C22.352 24.3302 22.5945 24.5155 22.8591 24.6585C22.9194 24.6287 22.9795 24.5964 23.0381 24.5623C23.3078 24.4049 23.5498 24.1924 23.7785 23.9134C23.5418 23.5092 23.3339 23.0085 23.1445 22.4411" fill="#18191B"/>
<path d="M32.5948 11.0015H30.7967C30.6996 11.0061 30.6052 11.0094 30.512 11.0153C30.468 11.1098 30.4229 11.2042 30.3794 11.2992C28.891 14.4694 27.3278 17.2166 25.7409 19.4004C24.9945 21.697 24.447 23.0906 23.7754 23.9104C24.0625 24.4002 24.3966 24.7446 24.7937 24.8906C24.8053 24.8859 24.8146 24.8859 24.825 24.8835H24.8315C24.8384 24.8835 24.8459 24.8789 24.8534 24.8789C24.8695 24.8743 24.887 24.8714 24.9032 24.8665C24.9136 24.8618 24.9222 24.8614 24.9327 24.858C24.9478 24.8535 24.9634 24.8502 24.9773 24.8465C24.9866 24.8419 24.9958 24.8404 25.005 24.8386C25.0282 24.8311 25.0491 24.8256 25.0711 24.8186C25.0815 24.8141 25.0925 24.8101 25.1041 24.8075C25.1169 24.8029 25.1296 24.7997 25.1412 24.7942C25.1545 24.7895 25.1678 24.7871 25.1794 24.7821C25.1898 24.7774 25.2007 24.7746 25.2106 24.7705C25.2366 24.7612 25.2621 24.7534 25.2882 24.7432C25.2952 24.7432 25.3022 24.7367 25.3097 24.7353C25.3252 24.7287 25.3415 24.7237 25.3571 24.7167C25.3628 24.712 25.3698 24.7116 25.3773 24.7092C25.4318 24.6866 25.4879 24.6633 25.5441 24.638H25.5499C25.6315 24.6017 25.712 24.5631 25.7914 24.5222C28.3717 23.0806 29.6746 18.2371 33.7247 11.002H32.5935L32.5949 11.0015H32.5948Z" fill="#18191B"/>
<path d="M10.1958 11.3197C10.2022 11.3197 10.208 11.3197 10.2142 11.3243C10.2299 11.3243 10.2456 11.3243 10.2612 11.3294H10.2768C10.3052 11.3339 10.3335 11.3364 10.3626 11.3406C10.3678 11.3406 10.3725 11.3406 10.377 11.3451C10.4008 11.3496 10.4251 11.3536 10.4493 11.3571C10.4546 11.3571 10.4615 11.3618 10.4673 11.3618C10.523 11.3728 10.5797 11.3844 10.6341 11.3987C10.6392 11.3987 10.6446 11.4034 10.6491 11.4034C10.6723 11.4089 10.6931 11.4159 10.7163 11.4224C10.7234 11.4224 10.7284 11.4269 10.7347 11.428C10.7621 11.435 10.7875 11.4419 10.814 11.4507C10.8153 11.4507 10.8168 11.4507 10.82 11.4552C10.8426 11.4622 10.8657 11.4709 10.8893 11.4789C10.8988 11.4834 10.9074 11.4854 10.9161 11.4876C10.9324 11.4947 10.9503 11.5015 10.9659 11.508C10.9751 11.508 10.9843 11.5145 10.9942 11.5179C11.0156 11.5276 11.0381 11.5363 11.0602 11.5455C11.0718 11.5502 11.0816 11.5554 11.0928 11.5596C11.1055 11.5661 11.1187 11.572 11.1325 11.5765C11.1441 11.5822 11.1569 11.5881 11.1679 11.5932C11.1801 11.5999 11.1916 11.6049 11.2033 11.6114C11.4904 11.7526 11.755 11.9408 11.9999 12.169C12.0876 12.0766 12.182 11.9909 12.2823 11.9125C11.7468 11.5325 11.1402 11.3159 10.4401 11.3159C10.359 11.3159 10.2781 11.3206 10.1958 11.3267" fill="#18191B"/>
<path d="M12 12.1619C12.1539 12.3061 12.2974 12.4609 12.4297 12.6251C12.5584 12.5348 12.6892 12.4474 12.8221 12.3632C12.6554 12.1954 12.4748 12.0422 12.282 11.9053C12.1817 11.9836 12.0874 12.0693 12 12.1618" fill="#18191B"/>
<path d="M10.1959 11.3197C10.278 11.3127 10.3591 11.3098 10.4402 11.3098C11.1401 11.3098 11.7468 11.5264 12.2824 11.9058C12.8475 11.4598 13.5306 11.3041 14.4795 11.3041H9.88428C9.99045 11.3041 10.0939 11.3105 10.1959 11.3197Z" fill="#18191B"/>
<path d="M14.4793 11.3038C13.5304 11.3038 12.8474 11.4595 12.2822 11.9055C12.4747 12.0425 12.6553 12.1957 12.8219 12.3633C13.6086 11.8631 14.3879 11.5319 15.1563 11.3872C15.4442 11.3324 15.7366 11.3045 16.0297 11.3038H14.4793Z" fill="#18191B"/>
<path opacity="0.7" d="M25.7425 19.4056C26.1506 18.1471 26.6179 16.6191 27.1974 14.7659C27.7197 13.0961 28.6442 11.848 30.3805 11.3032C30.4263 11.2099 30.4696 11.1138 30.5142 11.0195C27.6838 11.1891 26.3609 12.629 25.6951 14.7612C24.5309 18.4838 23.8256 20.897 23.1465 22.4346C24.0139 21.6056 24.8811 20.5878 25.7425 19.4056Z" fill="#18191B"/>
<path d="M29.8952 23.9825H29.5744V24.9796H29.4436V23.9825H29.1216V23.8639H29.8951L29.8952 23.9825ZM31.2085 24.9793H31.0783V24.2301C31.0783 24.1711 31.0828 24.0988 31.0889 24.0135C31.0755 24.0645 31.0644 24.0999 31.0542 24.1226L30.6744 24.9793H30.6107L30.2299 24.1289C30.2186 24.1053 30.2075 24.0669 30.1955 24.0137H30.191C30.1955 24.0586 30.1971 24.1312 30.1971 24.232V24.9794H30.0719V23.8638H30.2445L30.5866 24.6424C30.6125 24.7008 30.6288 24.746 30.637 24.7762H30.642C30.6646 24.7147 30.6833 24.669 30.6958 24.6388L31.045 23.8638H31.2094V24.9793H31.2085Z" fill="#18191B"/>
</svg>
