<svg width="36" height="36" viewBox="0 0 36 36" fill="none" xmlns="http://www.w3.org/2000/svg">
<g clip-path="url(#clip0_7688_11566)">
<path opacity="0.5" d="M12.504 13.9299C13.8013 17.8974 14.2929 24.9751 18.0868 24.9751C18.3756 24.9751 18.6675 24.9468 18.9604 24.891C15.5116 24.087 15.1028 17.0863 12.9984 13.4609C12.8305 13.614 12.6658 13.7704 12.504 13.9299Z" fill="#369FEB"/>
<path opacity="0.8" d="M12.9961 13.4594C15.1006 17.0848 15.5093 24.0855 18.9581 24.8895C19.2291 24.8399 19.5006 24.7645 19.7727 24.6696C16.6771 23.153 15.8215 16.3547 13.4314 13.082C13.2839 13.2051 13.1387 13.3309 12.9961 13.4596" fill="#369FEB"/>
<path d="M16.0282 11.3047C15.74 11.3047 15.4475 11.333 15.154 11.3888C14.3863 11.5335 13.6064 11.864 12.8203 12.3642C13.0351 12.5761 13.2393 12.8186 13.4316 13.0833C14.2312 12.4198 15.0255 11.9296 15.817 11.6348C16.1058 11.5268 16.4035 11.444 16.7067 11.3875C16.4849 11.3317 16.2569 11.3039 16.0282 11.3047Z" fill="#369FEB"/>
<path opacity="0.5" d="M22.1897 23.2708C22.5195 23.0074 22.8371 22.729 23.1416 22.4366C21.8233 18.4875 21.3515 11.3086 17.5309 11.3086C17.2577 11.3086 16.9821 11.3341 16.707 11.385C20.1871 12.2506 20.6329 19.822 22.1898 23.2708" fill="#369FEB"/>
<path d="M16.7098 11.3874C16.4879 11.3316 16.26 11.3039 16.0312 11.3047L17.5337 11.3102C17.2605 11.3102 16.9848 11.3358 16.7098 11.3874Z" fill="#369FEB"/>
<path d="M22.1234 24.11C21.9741 23.9676 21.8322 23.8113 21.6926 23.6445C21.0499 24.0995 20.4098 24.4447 19.7734 24.6692C20.0006 24.7807 20.2411 24.8627 20.4891 24.913C20.6897 24.9536 20.8939 24.9738 21.0986 24.9733C21.8125 24.9733 22.377 24.8887 22.8576 24.6583C22.5928 24.5153 22.3503 24.3298 22.1234 24.11Z" fill="#369FEB"/>
<path opacity="0.8" d="M15.8203 11.635C18.9373 13.2653 19.2082 20.6482 21.6954 23.646C21.8647 23.5264 22.0304 23.4019 22.1923 23.2725C20.6354 19.8237 20.1901 12.2517 16.7108 11.3867C16.4074 11.4438 16.1095 11.5269 15.8203 11.635Z" fill="#369FEB"/>
<path d="M13.4336 13.0809C15.8235 16.3536 16.6793 23.1517 19.7749 24.6684C20.4112 24.4439 21.0515 24.0987 21.6941 23.6438C19.2069 20.646 18.9359 13.2631 15.819 11.6328C15.0276 11.927 14.2332 12.4172 13.4336 13.0807" fill="#369FEB"/>
<path opacity="0.6" d="M10.9738 13.835C10.5992 14.682 10.2165 15.7953 9.75391 17.2484C10.6739 15.9523 11.591 14.8353 12.503 13.9307C12.3774 13.5445 12.2425 13.1885 12.0971 12.8711C11.7056 13.172 11.3307 13.4938 10.9739 13.8352" fill="#369FEB"/>
<path d="M12.4297 12.625C12.3178 12.7047 12.2072 12.7861 12.0979 12.8693C12.2433 13.1866 12.3775 13.5426 12.5032 13.9288C12.6652 13.7696 12.83 13.6132 12.9975 13.4598C12.821 13.1564 12.6334 12.8763 12.4297 12.625Z" fill="#369FEB"/>
<path d="M12.8221 12.3634C12.6894 12.4478 12.5586 12.535 12.4297 12.625C12.6335 12.8763 12.821 13.1565 12.9982 13.4604C13.1406 13.3313 13.2857 13.2053 13.4335 13.0824C13.2414 12.8178 13.0371 12.5752 12.8222 12.3633" fill="#369FEB"/>
<path opacity="0.3" d="M34.084 11.0016C32.3211 17.8002 28.639 23.2608 25.5518 24.6375H25.5462C25.49 24.663 25.4343 24.6862 25.3794 24.7087C25.3718 24.7134 25.3648 24.714 25.359 24.7167C25.3429 24.7232 25.3279 24.7283 25.3116 24.7348C25.304 24.7393 25.2972 24.7409 25.2902 24.7436C25.2642 24.7529 25.2387 24.7607 25.2132 24.7709C25.2022 24.7756 25.1918 24.7784 25.1814 24.7821C25.1688 24.7869 25.1561 24.791 25.1431 24.7945C25.1315 24.7991 25.1194 24.8025 25.1061 24.8076C25.095 24.8121 25.0834 24.8141 25.0731 24.8186C25.0504 24.8251 25.0297 24.8306 25.0071 24.8384C24.9978 24.8384 24.9891 24.8435 24.9794 24.8461C24.9653 24.8506 24.9496 24.8538 24.9346 24.8581C24.9243 24.8626 24.9156 24.8642 24.9046 24.8664C24.889 24.871 24.8716 24.8752 24.8559 24.8789L24.7969 24.8919C24.9383 24.944 25.0879 24.9703 25.2386 24.9695C28.1658 24.9695 31.1172 19.7237 36.0008 11H34.0833L34.084 11.0016Z" fill="#369FEB"/>
<path opacity="0.4" d="M9.11877 11.5795C9.12061 11.5795 9.12302 11.575 9.12401 11.575C9.12642 11.575 9.12996 11.575 9.13109 11.5705H9.13477C9.15091 11.5648 9.16591 11.5584 9.18219 11.5523C9.18644 11.5523 9.18857 11.5523 9.19154 11.5478C9.19564 11.5478 9.19961 11.5431 9.20371 11.5426C9.22098 11.5371 9.2384 11.5305 9.25468 11.5246H9.25737C9.29615 11.513 9.33211 11.4985 9.36963 11.4851C9.37501 11.4851 9.3801 11.4806 9.38647 11.4806C9.40205 11.4755 9.41832 11.47 9.4346 11.4663C9.44211 11.4616 9.44961 11.4616 9.45655 11.4592C9.47325 11.4542 9.48953 11.4486 9.5051 11.4449C9.51218 11.4449 9.51841 11.4402 9.52365 11.4398C9.57744 11.4249 9.63081 11.4111 9.68461 11.3982C9.69211 11.3982 9.69848 11.3935 9.70655 11.3931C9.72212 11.3886 9.7367 11.386 9.75355 11.3837C9.76049 11.3792 9.76856 11.3792 9.77663 11.3768C9.7922 11.3723 9.80735 11.3717 9.82419 11.368H9.83509C9.86765 11.3614 9.90064 11.356 9.93306 11.3499H9.95273C9.96831 11.3454 9.98218 11.3448 9.99789 11.342C10.0064 11.342 10.0152 11.3374 10.0234 11.3374C10.0378 11.3374 10.0523 11.3328 10.0667 11.3309C10.0743 11.3309 10.0817 11.3309 10.0905 11.3263C10.1246 11.3217 10.1598 11.3199 10.1958 11.3171C10.0923 11.3067 9.98837 11.3012 9.88436 11.3008C6.58787 11.3008 2.0459 17.4174 0 25.3385H0.394259C1.049 24.1709 1.6372 23.0663 2.17515 22.0293C3.60793 16.4186 6.52643 12.5924 9.11892 11.5787" fill="#369FEB"/>
<path d="M10.9727 13.8326C11.3293 13.4913 11.7042 13.1694 12.0957 12.8686C12.0161 12.6915 11.9268 12.5189 11.8283 12.3516C11.5267 12.7175 11.2511 13.2004 10.9727 13.8326Z" fill="#369FEB"/>
<path d="M11.2449 11.6268C11.4601 11.8075 11.653 12.0558 11.8296 12.3535C11.8852 12.2851 11.9414 12.222 11.9997 12.163C11.7548 11.9343 11.4904 11.7468 11.2031 11.6055C11.2147 11.6118 11.2263 11.6171 11.2384 11.6222C11.2384 11.6222 11.2429 11.6268 11.2449 11.6268Z" fill="#369FEB"/>
<path opacity="0.7" d="M2.17578 22.0289C5.18177 16.2365 6.60592 12.5705 9.11969 11.5781C6.52778 12.5926 3.6087 16.4188 2.17592 22.0289" fill="#369FEB"/>
<path d="M11.9983 12.1602C11.9398 12.2198 11.8843 12.2823 11.8281 12.3507C11.9267 12.518 12.0162 12.6906 12.0961 12.8676C12.2054 12.7844 12.316 12.703 12.4279 12.6234C12.2957 12.4591 12.1521 12.3043 11.9983 12.1602Z" fill="#369FEB"/>
<path opacity="0.5" d="M3.53782 25.3149C3.51927 25.3196 3.50073 25.3196 3.48332 25.3214H3.47298C3.45727 25.3214 3.44099 25.3261 3.42655 25.3261H3.41905C3.38139 25.3306 3.3443 25.3306 3.30848 25.3334H3.29688C6.33925 25.2483 7.72984 23.7251 8.42012 21.5158C8.94461 19.841 9.37526 18.43 9.75281 17.2461C8.47844 19.0397 7.19841 21.1778 5.91144 23.5729C5.29082 24.7272 4.34715 25.2094 3.53768 25.3128" fill="#369FEB"/>
<path opacity="0.8" d="M3.5392 25.3121C4.34853 25.2091 5.2922 24.7274 5.91283 23.5723C7.19979 21.1778 8.48053 19.0392 9.75349 17.2456C10.2167 15.7917 10.5989 14.679 10.9741 13.832C8.43651 16.2474 5.88904 20.2636 3.53906 25.311" fill="#369FEB"/>
<path d="M2.17542 22.0312C1.63747 23.0681 1.04927 24.1727 0.394531 25.3405H1.54135C1.68618 24.2259 1.89792 23.121 2.17542 22.0318" fill="#369FEB"/>
<path d="M10.0894 11.3278C10.0801 11.3278 10.0731 11.3323 10.065 11.3323C10.0512 11.337 10.0367 11.337 10.0222 11.3384C10.0137 11.3384 10.0054 11.3384 9.99667 11.343C9.9811 11.3476 9.96666 11.348 9.95151 11.351C9.94457 11.351 9.93764 11.351 9.93183 11.3555C9.89885 11.361 9.86643 11.3671 9.83415 11.3726H9.82311C9.80626 11.3773 9.79112 11.3797 9.77554 11.382C9.76748 11.3865 9.75941 11.3865 9.75176 11.3883C9.73619 11.393 9.72062 11.3949 9.70547 11.3977C9.6974 11.4022 9.69103 11.4022 9.68353 11.4026C9.62973 11.4157 9.57636 11.4295 9.52257 11.4444C9.5169 11.4444 9.51096 11.4489 9.50402 11.4499C9.48788 11.4545 9.47217 11.4591 9.45532 11.4642C9.44839 11.4689 9.44032 11.4689 9.43338 11.4707C9.41725 11.4752 9.4012 11.48 9.38525 11.485C9.37902 11.485 9.37378 11.4896 9.36798 11.4896C9.33089 11.5034 9.29437 11.5175 9.25614 11.5289C9.24 11.534 9.22259 11.5405 9.20518 11.5466C9.19824 11.5511 9.19201 11.5523 9.18394 11.5554C9.16766 11.5605 9.15138 11.567 9.13638 11.5729C9.13072 11.5776 9.12477 11.578 9.12081 11.5805C6.60703 12.5728 5.18275 16.2387 2.1769 22.0311C1.89915 23.1202 1.68746 24.2252 1.54297 25.3399H1.70393C2.15722 25.3399 2.28519 25.3352 2.80672 25.3352H3.31225C3.34807 25.3307 3.38516 25.3307 3.42267 25.3277H3.42975C3.44532 25.3277 3.46089 25.3232 3.47604 25.3232H3.48708C3.50379 25.3232 3.5229 25.3186 3.54144 25.3167C5.89142 20.2693 8.43875 16.2531 10.9764 13.8377C11.2553 13.2056 11.5304 12.7227 11.8315 12.3574C11.6554 12.0598 11.4626 11.8109 11.2473 11.6303C11.2473 11.6303 11.2415 11.6303 11.241 11.6256C11.2287 11.6207 11.2172 11.6146 11.2051 11.6086C11.1929 11.602 11.1824 11.5969 11.1697 11.5905C11.1578 11.5855 11.1463 11.5799 11.135 11.5738C11.12 11.5691 11.1078 11.5626 11.0945 11.5567C11.0835 11.552 11.0737 11.5473 11.0627 11.5428C11.0402 11.5341 11.018 11.5248 10.9961 11.5149C10.9862 11.5104 10.977 11.5078 10.9678 11.5043C10.951 11.4982 10.9343 11.4915 10.9178 11.4845C10.9098 11.4798 10.9006 11.4788 10.8912 11.4756C10.8676 11.4676 10.8444 11.4593 10.8224 11.4519H10.8166C10.79 11.4431 10.764 11.4366 10.7368 11.4293C10.7304 11.4246 10.7252 11.4246 10.7188 11.4236C10.695 11.4172 10.6742 11.4109 10.6517 11.4048C10.646 11.4048 10.6406 11.4001 10.6361 11.4001C10.5808 11.3859 10.5249 11.3737 10.4686 11.3636C10.463 11.3636 10.4572 11.3589 10.4514 11.3589C10.4274 11.3541 10.4033 11.3503 10.379 11.3473C10.3731 11.3428 10.3697 11.3428 10.3646 11.3428C10.3361 11.3384 10.3075 11.3347 10.2788 11.3316H10.2638C10.2406 11.3271 10.2192 11.3266 10.1978 11.3242C10.1613 11.3287 10.1266 11.3307 10.0924 11.334" fill="#369FEB"/>
<path opacity="0.8" d="M27.1965 14.7674C26.6182 16.62 26.1498 18.1484 25.7422 19.4059C27.3291 17.2221 28.8923 14.4749 30.3809 11.3047C28.6446 11.85 27.7182 13.0983 27.1965 14.7674Z" fill="#369FEB"/>
<path opacity="0.7" d="M25.7929 24.5202C25.7119 24.5615 25.6308 24.6007 25.5508 24.636C28.6379 23.2593 32.32 17.7987 34.0829 11H33.7256C29.6754 18.2351 28.3727 23.0786 25.7929 24.5202Z" fill="#369FEB"/>
<path opacity="0.8" d="M23.7763 23.9125C24.4478 23.0927 24.995 21.6991 25.7419 19.4023C24.8803 20.5858 24.0131 21.603 23.1452 22.4327C23.1452 22.4372 23.1452 22.4372 23.1406 22.44C23.3299 23.0074 23.5377 23.5082 23.7746 23.9123" fill="#369FEB"/>
<path opacity="0.8" d="M23.7787 23.9141C23.5501 24.1929 23.308 24.4056 23.0387 24.563C22.9797 24.5973 22.9201 24.6295 22.8594 24.6593C23.1515 24.8174 23.4712 24.9182 23.8012 24.9561C23.8522 24.9612 23.9026 24.9659 23.9552 24.9696H23.9646C23.9882 24.9696 24.0131 24.9696 24.0386 24.9741H24.2899C24.2991 24.9741 24.3087 24.9741 24.3181 24.9696C24.336 24.9696 24.355 24.9696 24.3736 24.9649H24.401C24.42 24.9649 24.4408 24.9604 24.4612 24.9584H24.4657C24.4718 24.9584 24.4783 24.9539 24.4843 24.9539C24.5055 24.9492 24.5279 24.9473 24.5485 24.9441H24.5676C24.5911 24.9396 24.6156 24.9366 24.6398 24.9321H24.6516C24.7001 24.9227 24.7476 24.9137 24.7957 24.9015C24.3973 24.7557 24.0638 24.4117 23.7767 23.9218" fill="#369FEB"/>
<path opacity="0.6" d="M18.0859 24.9758C18.3749 24.9758 18.6666 24.9475 18.9597 24.8913C19.2306 24.8422 19.5022 24.7667 19.7742 24.6719C20.0012 24.7833 20.2414 24.8652 20.4891 24.9157C20.69 24.9562 20.8945 24.9764 21.0994 24.9758H18.0859Z" fill="#369FEB"/>
<path d="M21.0996 24.9751C21.813 24.9751 22.378 24.8906 22.8579 24.6602C23.15 24.8184 23.4698 24.9193 23.7998 24.9573C23.8508 24.9623 23.9012 24.9669 23.9539 24.9706H23.9632C23.9869 24.9706 24.0118 24.9706 24.0373 24.9753H24.1239H21.0977L21.0996 24.9751Z" fill="#369FEB"/>
<path d="M24.125 24.975H24.2901C24.2998 24.975 24.309 24.975 24.3184 24.9705C24.3364 24.9705 24.3553 24.9705 24.3746 24.9658H24.4019C24.4209 24.9658 24.4417 24.9613 24.4615 24.9595H24.4666C24.4727 24.9595 24.4786 24.9549 24.4847 24.9549C24.506 24.9503 24.5282 24.9484 24.5488 24.945C24.5559 24.945 24.5614 24.945 24.5688 24.9405C24.5924 24.936 24.6169 24.9335 24.6413 24.929H24.6529C24.7015 24.9197 24.7489 24.9105 24.7969 24.8984C24.9383 24.9506 25.0879 24.9768 25.2386 24.976L24.1258 24.9805L24.125 24.975Z" fill="#369FEB"/>
<path opacity="0.9" d="M23.1444 22.4422V22.4375C22.84 22.7299 22.5224 23.0083 22.1926 23.2717C22.0304 23.4009 21.8646 23.5254 21.6953 23.6452C21.8348 23.812 21.9766 23.9682 22.1261 24.1108C22.353 24.3306 22.5955 24.516 22.8601 24.6589C22.9204 24.6292 22.9804 24.5969 23.039 24.5628C23.3087 24.4054 23.5508 24.1929 23.7794 23.9139C23.5427 23.5097 23.3349 23.009 23.1455 22.4416" fill="#369FEB"/>
<path d="M32.5928 11H30.7948C30.6977 11.0047 30.6032 11.0079 30.5101 11.0139C30.4661 11.1083 30.4209 11.2027 30.3774 11.2977C28.889 14.4679 27.3259 17.2151 25.7389 19.3989C24.9926 21.6955 24.445 23.0891 23.7734 23.9089C24.0605 24.3987 24.3946 24.7431 24.7917 24.8891C24.8033 24.8844 24.8127 24.8844 24.823 24.882H24.8295C24.8364 24.882 24.844 24.8775 24.8515 24.8775C24.8676 24.8728 24.885 24.87 24.9013 24.865C24.9116 24.8604 24.9203 24.8599 24.9307 24.8565C24.9459 24.852 24.9615 24.8487 24.9753 24.8451C24.9847 24.8404 24.9939 24.839 25.0031 24.8371C25.0263 24.8296 25.0471 24.8241 25.0692 24.8172C25.0795 24.8126 25.0906 24.8087 25.1022 24.806C25.1149 24.8015 25.1276 24.7982 25.1393 24.7927C25.1526 24.788 25.1659 24.7856 25.1775 24.7807C25.1878 24.776 25.1987 24.7732 25.2086 24.769C25.2347 24.7597 25.2602 24.7519 25.2862 24.7417C25.2933 24.7417 25.3002 24.7352 25.3077 24.7338C25.3233 24.7273 25.3396 24.7222 25.3551 24.7152C25.3608 24.7106 25.3679 24.7102 25.3754 24.7077C25.4299 24.6851 25.486 24.6619 25.5422 24.6365H25.548C25.6295 24.6002 25.7101 24.5616 25.7895 24.5207C28.3698 23.0792 29.6726 18.2357 33.7228 11.0006H32.5915L32.5929 11H32.5928Z" fill="#369FEB"/>
<path d="M10.1953 11.3202C10.2017 11.3202 10.2075 11.3202 10.2137 11.3248C10.2294 11.3248 10.2451 11.3248 10.2607 11.3299H10.2763C10.3047 11.3344 10.3331 11.3369 10.3621 11.341C10.3673 11.341 10.372 11.341 10.3765 11.3456C10.4003 11.3501 10.4246 11.3541 10.4489 11.3576C10.4541 11.3576 10.461 11.3623 10.4668 11.3623C10.5225 11.3733 10.5792 11.3849 10.6336 11.3992C10.6387 11.3992 10.6441 11.4039 10.6486 11.4039C10.6718 11.4094 10.6926 11.4164 10.7158 11.4229C10.7229 11.4229 10.7279 11.4274 10.7343 11.4285C10.7616 11.4355 10.7871 11.4424 10.8135 11.4512C10.8148 11.4512 10.8164 11.4512 10.8195 11.4557C10.8421 11.4626 10.8652 11.4714 10.8888 11.4793C10.8983 11.4839 10.907 11.4859 10.9156 11.4881C10.9319 11.4952 10.9499 11.502 10.9654 11.5085C10.9746 11.5085 10.9838 11.515 10.9937 11.5184C11.0151 11.528 11.0376 11.5368 11.0597 11.546C11.0713 11.5507 11.0811 11.5559 11.0923 11.56C11.105 11.5666 11.1182 11.5725 11.132 11.577C11.1437 11.5827 11.1564 11.5886 11.1674 11.5937C11.1796 11.6004 11.1911 11.6053 11.2028 11.6119C11.4899 11.7531 11.7545 11.9413 11.9994 12.1695C12.0871 12.0771 12.1815 11.9914 12.2818 11.913C11.7463 11.533 11.1397 11.3164 10.4397 11.3164C10.3585 11.3164 10.2776 11.3211 10.1953 11.3272" fill="#369FEB"/>
<path d="M12 12.1629C12.1539 12.3071 12.2974 12.4619 12.4297 12.6261C12.5584 12.5357 12.6892 12.4484 12.8221 12.3642C12.6554 12.1964 12.4748 12.0432 12.282 11.9062C12.1817 11.9845 12.0874 12.0703 12 12.1628" fill="#369FEB"/>
<path d="M10.1944 11.3202C10.2765 11.3132 10.3576 11.3103 10.4387 11.3103C11.1386 11.3103 11.7454 11.5269 12.2809 11.9062C12.8461 11.4603 13.5291 11.3046 14.478 11.3046H9.88281C9.98899 11.3046 10.0925 11.311 10.1944 11.3202Z" fill="#369FEB"/>
<path d="M14.4783 11.3038C13.5294 11.3038 12.8464 11.4595 12.2812 11.9055C12.4738 12.0425 12.6543 12.1957 12.8209 12.3633C13.6076 11.8631 14.3869 11.5319 15.1553 11.3872C15.4432 11.3324 15.7357 11.3045 16.0288 11.3038H14.4783Z" fill="#369FEB"/>
<path opacity="0.7" d="M25.7445 19.4056C26.1526 18.1471 26.6199 16.6191 27.1993 14.7659C27.7217 13.0961 28.6461 11.848 30.3824 11.3032C30.4283 11.2099 30.4716 11.1138 30.5162 11.0195C27.6857 11.1891 26.3628 12.629 25.697 14.7612C24.5328 18.4838 23.8275 20.897 23.1484 22.4346C24.0158 21.6056 24.883 20.5878 25.7445 19.4056Z" fill="#369FEB"/>
<path d="M29.8947 23.9821H29.574V24.9791H29.4432V23.9821H29.1211V23.8634H29.8946L29.8947 23.9821ZM31.208 24.9788H31.0778V24.2297C31.0778 24.1706 31.0823 24.0983 31.0884 24.0131C31.075 24.064 31.0639 24.0994 31.0537 24.1221L30.6739 24.9788H30.6102L30.2294 24.1284C30.2181 24.1048 30.207 24.0664 30.195 24.0132H30.1905C30.195 24.0581 30.1966 24.1307 30.1966 24.2315V24.979H30.0714V23.8633H30.244L30.5862 24.6419C30.6121 24.7004 30.6283 24.7455 30.6365 24.7757H30.6415C30.6642 24.7142 30.6828 24.6685 30.6953 24.6384L31.0445 23.8633H31.2089V24.9788H31.208Z" fill="#369FEB"/>
</g>
<defs>
<clipPath id="clip0_7688_11566">
<rect width="36" height="36" fill="white"/>
</clipPath>
</defs>
</svg>
