<svg width="32" height="32" viewBox="0 0 32 32" fill="none" xmlns="http://www.w3.org/2000/svg">
    <g clip-path="url(#clip0_9578_11652)">
        <path
            d="M4.22559 17.1443C4.46861 12.5215 5.48066 9.11221 7.55223 6.70887C9.71357 4.20139 13.0785 2.73173 18.1074 2.18179C20.2299 1.94836 22.3597 1.8088 24.6691 1.65747C25.677 1.59143 26.719 1.52315 27.8097 1.44385C27.8994 2.70155 27.962 4.04945 27.9547 5.24731C27.9467 6.56505 27.8534 7.65277 27.6432 8.24831C27.2275 9.42604 25.9434 10.476 24.3773 10.8736L24.3763 10.8739C23.1 11.202 21.4498 11.2274 19.6533 11.2551C19.2878 11.2607 18.9162 11.2664 18.5405 11.2748C16.3527 11.3236 14.0449 11.4647 12.1709 12.2755C9.63025 13.3746 8.16479 14.4054 6.3616 15.6737C5.71479 16.1287 5.02452 16.6141 4.22559 17.1443Z"
            fill="#4F72EB" stroke="#4F72EB" stroke-width="1.80147" />
        <path
            d="M4.0459 30.2671C4.28617 25.6452 5.29677 22.2366 7.36727 19.8336C9.52779 17.3262 12.8926 15.8565 17.9216 15.3066C20.0441 15.0731 22.1739 14.9336 24.4833 14.7822C25.4912 14.7162 26.5333 14.6479 27.6239 14.5686C27.7136 15.8263 27.7762 17.1742 27.7689 18.3721C27.7609 19.6898 27.6676 20.7775 27.4574 21.3731C27.0417 22.5508 25.7576 23.6008 24.1914 23.9984L24.1905 23.9986C22.9142 24.3268 21.264 24.3522 19.4675 24.3798C19.102 24.3855 18.7304 24.3912 18.3547 24.3996C16.167 24.4484 13.8591 24.5895 11.9851 25.4002C9.44684 26.4984 7.98776 27.5253 6.19064 28.79C5.54199 29.2466 4.84929 29.7341 4.0459 30.2671Z"
            fill="#6FD5D7" stroke="#6FD5D7" stroke-width="1.80147" />
    </g>
    <defs>
        <clipPath id="clip0_9578_11652">
            <rect width="32" height="32" fill="white" />
        </clipPath>
    </defs>
</svg>