<svg width="34" height="36" viewBox="0 0 34 36" fill="none" xmlns="http://www.w3.org/2000/svg">
<g clip-path="url(#clip0_22179_7483)">
<path d="M0.930933 32.2595C0.00194204 30.6635 0.778781 28.6163 2.5261 28.0191C11.195 25.0551 12.2121 24.4091 17.436 21.6013L20.4281 26.1259C15.3521 29.1713 13.9166 29.7063 4.55313 33.4932C3.20791 34.0375 1.66095 33.5135 0.930933 32.2595Z" fill="#18191B"/>
<path d="M9.25876 0C11.1182 0 12.5001 1.71792 12.1425 3.54268C9.95958 14.6807 9.88088 21.1193 12.1279 32.4484C12.4901 34.2745 11.1095 36 9.24768 36C7.8223 36 6.60285 34.9662 6.38111 33.5583C4.43633 21.2082 4.45933 14.8503 6.38518 2.45352C6.60484 1.03957 7.82792 0 9.25876 0Z" fill="#18191B"/>
<path d="M33.4288 23.4121C32.5091 25.0182 30.3299 25.3372 28.9528 24.1007C20.6516 16.6469 14.1449 12.8094 2.61913 9.0452C0.838054 8.46354 0.00783694 6.3958 0.938864 4.76985C1.63521 3.55378 3.10388 3.00433 4.4208 3.48338C16.4801 7.87021 22.6962 11.8343 32.7261 19.7591C33.8326 20.6332 34.1295 22.1884 33.4288 23.4121Z" fill="#18191B"/>
<path d="M18.312 21.0904C22.2802 18.6019 21.4755 19.1507 29.3229 12.7965C30.5318 11.8176 32.3128 12.0014 33.2893 13.2123C34.3085 14.4762 34.045 16.3384 32.7361 17.299C26.8565 21.6141 25.4797 23.2069 20.3554 26.1259L19.375 23.7168L18.312 21.0904Z" fill="#18191B"/>
<path d="M12.6924 24.2284C16.1953 22.331 18.1657 21.2364 21.0118 19.4119L24.3623 23.615C21.4497 25.688 18.8225 27.0745 14.9977 29.1114L14.9742 29.0793C13.9137 27.6213 13.1395 25.9751 12.6924 24.2284Z" fill="#18191B"/>
</g>
<defs>
<clipPath id="clip0_22179_7483">
<rect width="34" height="36" fill="white"/>
</clipPath>
</defs>
</svg>
