<svg width="36" height="36" viewBox="0 0 36 36" fill="none" xmlns="http://www.w3.org/2000/svg">
<path d="M1.70681 32.2598C0.777821 30.6638 1.55466 28.6166 3.30198 28.0194C11.9709 25.0554 12.988 24.4094 18.2119 21.6016L21.2039 26.1262C16.1279 29.1716 14.6925 29.7066 5.32901 33.4935C3.98379 34.0378 2.43683 33.5138 1.70681 32.2598Z" fill="white"/>
<path d="M10.0327 0C11.8922 0 13.2741 1.71792 12.9165 3.54268C10.7335 14.6807 10.6548 21.1193 12.9018 32.4484C13.264 34.2745 11.8835 36 10.0216 36C8.59622 36 7.37677 34.9662 7.15504 33.5583C5.21025 21.2082 5.23326 14.8503 7.15911 2.45352C7.37877 1.03957 8.60184 0 10.0327 0Z" fill="white"/>
<path d="M34.2061 23.4134C33.2864 25.0196 31.1073 25.3386 29.7302 24.102C21.4289 16.6482 14.9222 12.8107 3.39647 9.04654C1.6154 8.46489 0.785181 6.39714 1.71621 4.77119C2.41255 3.55512 3.88122 3.00567 5.19814 3.48473C17.2575 7.87155 23.4736 11.8357 33.5035 19.7604C34.6099 20.6346 34.9068 22.1898 34.2061 23.4134Z" fill="white"/>
<path d="M19.0884 21.0905C23.0566 18.6019 22.2518 19.1507 30.0992 12.7966C31.3082 11.8177 33.0891 12.0015 34.0657 13.2124C35.0849 14.4762 34.8214 16.3384 33.5125 17.299C27.6328 21.6141 26.256 23.207 21.1317 26.1259L20.1514 23.7169L19.0884 21.0905Z" fill="white"/>
<path d="M13.4673 24.2266C16.9702 22.3293 18.9406 21.2346 21.7867 19.4102L25.1372 23.6132C22.2246 25.6862 19.5974 27.0727 15.7726 29.1097L15.7491 29.0775C14.6886 27.6195 13.9144 25.9734 13.4673 24.2266Z" fill="white"/>
</svg>
