<svg width="36" height="36" viewBox="0 0 36 36" fill="none" xmlns="http://www.w3.org/2000/svg">
<path d="M18.0804 18.3366H1.69818C1.48592 21.9451 3.17214 25.1926 5.86415 26.5078C9.95672 28.5075 14.5809 26.6606 16.0152 22.3597L16.3467 21.3916C16.3467 21.3916 17.2788 21.3916 17.8998 21.3916C17.565 23.4183 16.2092 25.6552 14.9977 26.6951C11.6789 29.5438 5.78083 29.3109 2.73571 26.1825C-1.23387 22.1058 -0.809336 13.0021 3.52724 9.40948C8.48673 5.28319 15.8367 7.51893 17.6241 13.7084C18.0915 15.2036 18.2468 16.7789 18.0804 18.3366ZM1.79737 16.8686H16.416C16.6679 12.5478 13.474 8.93337 9.47268 8.83815C5.05476 8.73499 1.86284 12.3376 1.79737 16.8765V16.8686Z" fill="#18191B"/>
<mask id="mask0_28097_2034" style="mask-type:alpha" maskUnits="userSpaceOnUse" x="18" y="7" width="18" height="22">
<rect x="18.0942" y="7.63818" width="17.9056" height="20.6777" fill="#D9D9D9"/>
</mask>
<g mask="url(#mask0_28097_2034)">
<path d="M35.54 6.82373L18.7012 29.0834" stroke="#18191B" stroke-width="1.58704"/>
<path d="M18.7012 6.82373L35.54 29.0834" stroke="#18191B" stroke-width="1.58704"/>
</g>
</svg>
