<svg width="36" height="36" viewBox="0 0 36 36" fill="none" xmlns="http://www.w3.org/2000/svg">
<path d="M18.0804 18.3375H1.69818C1.48592 21.9461 3.17214 25.1935 5.86415 26.5088C9.95672 28.5085 14.5809 26.6615 16.0152 22.3607L16.3467 21.3926C16.3467 21.3926 17.2788 21.3926 17.8998 21.3926C17.565 23.4192 16.2092 25.6562 14.9977 26.6961C11.6788 29.5448 5.78083 29.3119 2.73571 26.1834C-1.23387 22.1067 -0.809336 13.0031 3.52724 9.41046C8.48673 5.28416 15.8367 7.5199 17.6241 13.7093C18.0915 15.2046 18.2468 16.7798 18.0804 18.3375ZM1.79737 16.8695H16.416C16.6679 12.5488 13.474 8.93435 9.47268 8.83912C5.05476 8.73597 1.86284 12.3385 1.79737 16.8775V16.8695Z" fill="white"/>
<mask id="mask0_7688_11659" style="mask-type:alpha" maskUnits="userSpaceOnUse" x="18" y="7" width="18" height="22">
<rect x="18.0938" y="7.64062" width="17.9056" height="20.6777" fill="#D9D9D9"/>
</mask>
<g mask="url(#mask0_7688_11659)">
<path d="M35.5391 6.82422L18.7002 29.0839" stroke="white" stroke-width="1.58704"/>
<path d="M18.6992 6.82422L35.538 29.0839" stroke="white" stroke-width="1.58704"/>
</g>
</svg>
