<svg width="36" height="36" viewBox="0 0 36 36" fill="none" xmlns="http://www.w3.org/2000/svg">
<path d="M16.3281 1.26369C12.5975 2.09499 8.7654 4.87272 7.02171 7.99514L6.47428 9.00891L8.03549 8.11679C12.2325 5.72429 17.1189 5.37961 20.9915 7.24495C22.573 7.97487 24.4586 9.96186 25.3102 11.7258C26.1212 13.429 26.8917 16.1661 27.0741 17.9504C27.1958 19.3697 27.2161 19.3899 27.6013 19.0453C28.2096 18.4978 29.3653 15.9228 29.6897 14.3819C30.521 10.4485 29.5477 6.98137 26.8714 4.42666C23.9112 1.5881 20.0588 0.432399 16.3281 1.26369Z" fill="#4D8BB3"/>
<path d="M7.81255 10.4485C7.02181 11.219 5.96748 12.1922 5.50115 12.618C2.92617 14.8686 1 19.0656 1 22.4313C1 24.0331 1.60826 26.5472 2.35845 28.0881C4.00077 31.4741 8.31944 33.7855 13.5505 34.0897C15.4564 34.2113 15.4767 34.2113 14.9901 33.8464C13.591 32.8529 12.0907 31.1903 11.5027 29.9738C10.935 28.8181 10.8336 28.3923 10.7728 26.6891C10.6917 24.9657 10.7525 24.5805 11.1783 23.5059C12.0704 21.3161 13.1855 20.3429 15.6186 19.5927C17.8083 18.9236 18.6599 18.0315 19.4507 15.4971C19.8967 14.0373 19.7548 13.5709 18.7816 13.429C14.6251 12.8207 13.4897 12.3544 11.4824 10.3674C10.6714 9.55639 9.96175 9.0495 9.69817 9.0495C9.43458 9.0495 8.70467 9.59694 7.81255 10.4485ZM12.4556 12.1719C12.8003 12.4152 12.8003 12.5369 12.5773 13.6926C12.3542 14.7875 12.3745 15.0308 12.6584 15.4565C13.1653 16.2473 13.9763 16.1054 15.0103 15.0308C15.9025 14.1184 16.1458 14.017 17.3623 14.0778C17.8286 14.1184 17.9908 14.1995 17.9097 14.4022C17.7881 14.7266 18.3355 15.3349 18.7613 15.3349C19.1262 15.3349 19.1262 15.4363 18.7005 16.1054C17.6056 17.8693 16.0647 18.7817 14.1385 18.7817C11.2797 18.7614 9.45486 16.5311 10.0023 13.652C10.2862 12.1719 11.4621 11.442 12.4556 12.1719Z" fill="#4D8BB3"/>
<path d="M31.8188 14.7066C31.8188 14.9296 31.5552 15.9028 31.2308 16.8558C29.6696 21.5394 26.02 25.3917 22.0866 26.588C19.9982 27.1962 15.051 27.1962 12.9221 26.5677C11.8881 26.2636 13.0843 28.6561 14.8685 30.4606C17.7679 33.3803 21.377 34.3738 25.4929 33.3803C32.934 31.596 36.6038 25.3106 34.333 18.1737C33.6436 15.9839 31.8188 13.4698 31.8188 14.7066Z" fill="#4D8BB3"/>
</svg>
