<svg width="36" height="36" viewBox="0 0 36 36" fill="none" xmlns="http://www.w3.org/2000/svg">
<path d="M22.9492 18H26.5492C26.8305 18 27.1117 17.775 27.1117 17.4375C27.1117 17.3812 27.1117 17.2688 27.0555 17.2125L20.868 0.3375C20.7555 0.16875 20.5867 0 20.3617 0H16.7617C16.4805 0 16.1992 0.225 16.1992 0.5625C16.1992 0.61875 16.1992 0.675 16.2555 0.73125L22.4992 17.7188C22.5555 17.8875 22.7242 18 22.9492 18Z" fill="#0073FF"/>
<path d="M22.3328 36H25.9328C26.2141 36 26.4953 35.775 26.4953 35.4375C26.4953 35.3812 26.4953 35.325 26.4391 35.2688L13.6141 0.3375C13.5578 0.16875 13.3328 0 13.1078 0H9.50781C9.22656 0 8.94531 0.225 8.94531 0.5625C8.94531 0.61875 8.94531 0.675 9.00156 0.73125L21.8266 35.6625C21.8828 35.8875 22.1078 36 22.3328 36Z" fill="#0073FF"/>
<path d="M15.1891 36H18.7891C19.0703 36 19.2953 35.775 19.3516 35.4937C19.3516 35.4375 19.3516 35.325 19.2953 35.2688L13.0516 18.3375C12.9953 18.1125 12.7703 18 12.5453 18H8.88906C8.60781 18 8.38281 18.2812 8.38281 18.5625C8.38281 18.6188 8.38281 18.675 8.43906 18.7312L14.6266 35.6625C14.7953 35.8875 14.9641 36 15.1891 36Z" fill="#0073FF"/>
<path d="M23.4 0.73125L26.325 8.6625C26.3812 8.8875 26.6063 9 26.8313 9H30.375C30.6562 9 30.9375 8.775 30.9375 8.4375C30.9375 8.38125 30.9375 8.325 30.8813 8.26875L27.9563 0.3375C27.9 0.16875 27.7313 0 27.5063 0H23.9062C23.625 0 23.3438 0.225 23.3438 0.5625C23.3438 0.61875 23.3437 0.675 23.4 0.73125Z" fill="#0073FF"/>
<path d="M8.55 36H12.15C12.4313 36 12.7125 35.775 12.7125 35.4375C12.7125 35.3812 12.7125 35.325 12.6562 35.2688L9.73125 27.3375C9.675 27.1125 9.45 27 9.225 27H5.625C5.34375 27 5.0625 27.225 5.0625 27.5625C5.0625 27.6188 5.0625 27.675 5.11875 27.7312L8.04375 35.6625C8.1 35.8875 8.325 36 8.55 36Z" fill="#0073FF"/>
</svg>
