<svg width="36" height="36" viewBox="0 0 36 36" fill="none" xmlns="http://www.w3.org/2000/svg">
<path d="M22.9497 18H26.5497C26.831 18 27.1122 17.775 27.1122 17.4375C27.1122 17.3813 27.1122 17.2688 27.056 17.2125L20.8685 0.3375C20.756 0.16875 20.5872 0 20.3622 0H16.7622C16.481 0 16.1997 0.225 16.1997 0.5625C16.1997 0.61875 16.1997 0.675 16.256 0.73125L22.4997 17.7188C22.556 17.8875 22.7247 18 22.9497 18Z" fill="currentColor"/>
<path d="M22.3313 36H25.9313C26.2126 36 26.4938 35.775 26.4938 35.4375C26.4938 35.3812 26.4938 35.325 26.4376 35.2687L13.6126 0.3375C13.5563 0.16875 13.3313 0 13.1063 0H9.50635C9.2251 0 8.94385 0.225 8.94385 0.5625C8.94385 0.61875 8.94385 0.675 9.0001 0.73125L21.8251 35.6625C21.8813 35.8875 22.1063 36 22.3313 36Z" fill="currentColor"/>
<path d="M15.1876 36H18.7876C19.0688 36 19.2938 35.775 19.3501 35.4937C19.3501 35.4375 19.3501 35.325 19.2938 35.2688L13.0501 18.3375C12.9938 18.1125 12.7688 18 12.5438 18H8.8876C8.60635 18 8.38135 18.2812 8.38135 18.5625C8.38135 18.6187 8.38135 18.675 8.4376 18.7312L14.6251 35.6625C14.7938 35.8875 14.9626 36 15.1876 36Z" fill="currentColor"/>
<path d="M23.4 0.73125L26.325 8.6625C26.3812 8.8875 26.6063 9 26.8313 9H30.375C30.6562 9 30.9375 8.775 30.9375 8.4375C30.9375 8.38125 30.9375 8.325 30.8813 8.26875L27.9563 0.3375C27.9 0.16875 27.7313 0 27.5063 0H23.9062C23.625 0 23.3438 0.225 23.3438 0.5625C23.3438 0.61875 23.3437 0.675 23.4 0.73125Z" fill="currentColor"/>
<path d="M8.55 36H12.15C12.4313 36 12.7125 35.775 12.7125 35.4375C12.7125 35.3813 12.7125 35.325 12.6562 35.2688L9.73125 27.3375C9.675 27.1125 9.45 27 9.225 27H5.625C5.34375 27 5.0625 27.225 5.0625 27.5625C5.0625 27.6187 5.0625 27.675 5.11875 27.7312L8.04375 35.6625C8.1 35.8875 8.325 36 8.55 36Z" fill="currentColor"/>
</svg>
