<svg width="36" height="36" viewBox="0 0 36 36" fill="none" xmlns="http://www.w3.org/2000/svg">
<path d="M13.0035 25.1627C13.3755 24.6016 13.594 23.9543 13.6376 23.2844L10.6605 23.8929C10.5505 23.9137 10.4388 23.9247 10.3268 23.9259C9.9166 23.9188 9.52332 23.7629 9.22146 23.4877C8.9196 23.2124 8.73014 22.837 8.68899 22.4326C8.64785 22.0282 8.75788 21.6229 8.99822 21.2935C9.23857 20.9641 9.59252 20.7336 9.99301 20.6455L16.7483 19.2698C17.7906 19.0572 18.7052 18.4435 19.2915 17.5635C19.6668 16.9952 19.8918 16.3424 19.9456 15.6653L16.9552 16.2738C16.8451 16.2946 16.7334 16.3057 16.6214 16.3069C16.2337 16.3079 15.8577 16.1751 15.5581 15.9313C15.2584 15.6875 15.0538 15.3479 14.9793 14.9709C14.7991 14.0714 15.4132 13.205 16.321 13.0198L22.9962 11.664C24.2978 11.3995 25.0588 10.3413 25.3992 9.73942C25.6998 9.19851 25.9031 8.60994 26 8L5 12.2725V28L10.3935 26.9021C11.4618 26.688 12.4006 26.0623 13.0035 25.1627Z" fill="#E82A2A"/>
<path d="M18.5 0C12.5778 0 7.40254 1.19776 5 2.92037V8.64673L28.2178 3.88262C28.4542 3.83479 28.6999 3.88217 28.9016 4.01447C29.1032 4.14677 29.2444 4.3533 29.2946 4.58916L29.4494 5.34953C29.8397 7.25383 29.5032 9.36673 28.514 11.1499C27.4372 13.0878 25.7682 14.3731 23.8098 14.7768L23.4397 14.8508C23.5309 16.4682 23.0837 18.0702 22.1677 19.4064C21.0708 21.0348 19.3614 22.1316 17.4434 22.5286L17.0867 22.6026C17.1804 24.3761 16.636 26.1245 15.5522 27.5316C14.4685 28.9386 12.9168 29.9113 11.178 30.2736L5 31.5387V33.0729C7.40254 34.8022 12.5778 36 18.5 36C24.4222 36 29.5975 34.8022 32 33.0729V2.92037C29.5975 1.19776 24.4222 0 18.5 0Z" fill="#E82A2A"/>
</svg>
