<svg width="36" height="36" viewBox="0 0 36 36" fill="none" xmlns="http://www.w3.org/2000/svg">
<g clip-path="url(#clip0_7688_10867)">
<path d="M18 0C27.945 0 36 8.055 36 18C35.999 21.7715 34.8154 25.4477 32.6156 28.5111C30.4159 31.5746 27.3108 33.8712 23.7375 35.0775C22.8375 35.2575 22.5 34.695 22.5 34.2225C22.5 33.615 22.5225 31.68 22.5225 29.2725C22.5225 27.585 21.96 26.505 21.3075 25.9425C25.3125 25.4925 29.52 23.9625 29.52 17.055C29.52 15.075 28.8225 13.4775 27.675 12.2175C27.855 11.7675 28.485 9.9225 27.495 7.4475C27.495 7.4475 25.9875 6.9525 22.545 9.2925C21.105 8.8875 19.575 8.685 18.045 8.685C16.515 8.685 14.985 8.8875 13.545 9.2925C10.1025 6.975 8.595 7.4475 8.595 7.4475C7.605 9.9225 8.235 11.7675 8.415 12.2175C7.2675 13.4775 6.57 15.0975 6.57 17.055C6.57 23.94 10.755 25.4925 14.76 25.9425C14.2425 26.3925 13.77 27.18 13.6125 28.35C12.5775 28.8225 9.99 29.5875 8.37 26.865C8.0325 26.325 7.02 24.9975 5.6025 25.02C4.095 25.0425 4.995 25.875 5.625 26.2125C6.39 26.64 7.2675 28.2375 7.47 28.755C7.83 29.7675 9 31.7025 13.5225 30.87C13.5225 32.3775 13.545 33.795 13.545 34.2225C13.545 34.695 13.2075 35.235 12.3075 35.0775C8.72244 33.8842 5.60415 31.5923 3.395 28.5269C1.18586 25.4616 -0.00198108 21.7784 2.4802e-06 18C2.4802e-06 8.055 8.055 0 18 0Z" fill="#18191B"/>
</g>
<defs>
<clipPath id="clip0_7688_10867">
<rect width="36" height="36" fill="white"/>
</clipPath>
</defs>
</svg>
