<svg width="36" height="36" viewBox="0 0 36 36" fill="none" xmlns="http://www.w3.org/2000/svg">
<g clip-path="url(#clip0_7688_11628)">
<path d="M2.71697 15.0727C2.64661 15.0727 2.62902 15.0376 2.6642 14.9848L3.03253 14.512C3.06719 14.4592 3.15514 14.424 3.22498 14.424H9.483C9.55284 14.424 9.57095 14.4768 9.53525 14.529L9.23728 14.9848C9.20262 15.0376 9.11467 15.0903 9.06191 15.0903L2.71697 15.0727ZM0.0703556 16.6852C0 16.6852 -0.0175889 16.6501 0.0175889 16.5973L0.385404 16.1245C0.420582 16.0717 0.508526 16.0365 0.578364 16.0365H8.572C8.64236 16.0365 8.67702 16.0893 8.65995 16.142L8.51924 16.5626C8.50165 16.6325 8.43129 16.6676 8.36145 16.6676L0.0703556 16.6852ZM4.31135 18.2977C4.24099 18.2977 4.22341 18.245 4.25858 18.1927L4.50379 17.7545C4.53897 17.7018 4.60933 17.649 4.67968 17.649H8.18505C8.2554 17.649 8.29006 17.7018 8.29006 17.7716L8.2554 18.1927C8.2554 18.2625 8.18505 18.3153 8.13228 18.3153L4.31135 18.2977ZM22.5055 14.7572C21.401 15.0376 20.6473 15.2476 19.5604 15.528C19.2976 15.5983 19.28 15.6159 19.0519 15.3531C18.7891 15.0552 18.5966 14.8622 18.2283 14.6868C17.1238 14.1436 16.0545 14.3014 15.0556 14.9496C13.8637 15.7209 13.2501 16.8606 13.2677 18.2801C13.2853 19.6821 14.2491 20.8393 15.6339 21.0323C16.8259 21.1901 17.8253 20.7695 18.6137 19.8755C18.7715 19.6826 18.9117 19.472 19.0871 19.2268H15.7038C15.3365 19.2268 15.2485 18.9992 15.3711 18.7007C15.5988 18.1575 16.0199 17.246 16.2651 16.7902C16.3178 16.6852 16.4404 16.5099 16.7032 16.5099H23.0839C23.0487 16.9832 23.0487 17.4566 22.9783 17.9299C22.7859 19.1922 22.3126 20.3484 21.5412 21.3649C20.279 23.0307 18.6313 24.0648 16.5455 24.3447C14.828 24.5728 13.2325 24.2402 11.8306 23.1885C10.5332 22.2066 9.79754 20.9097 9.60406 19.2967C9.37644 17.3862 9.93721 15.6687 11.0939 14.1612C12.3386 12.5306 13.9863 11.497 16.0023 11.1287C17.6499 10.8307 19.2273 11.0237 20.6473 11.9874C21.5764 12.601 22.2422 13.4421 22.6804 14.4592C22.7859 14.617 22.7155 14.7044 22.5055 14.7572Z" fill="#00ACD7"/>
<path d="M28.3052 24.4523C26.7103 24.4172 25.2556 23.9614 24.0285 22.9097C22.9939 22.0158 22.3457 20.8766 22.1351 19.5264C21.8196 17.5461 22.3633 15.7929 23.5552 14.2332C24.835 12.5504 26.3772 11.674 28.463 11.3057C30.2509 10.9901 31.9342 11.166 33.4588 12.1996C34.8436 13.1463 35.7024 14.4256 35.9305 16.1085C36.2285 18.4747 35.5446 20.4033 33.9145 22.0509C32.7578 23.2253 31.3383 23.9614 29.7077 24.2946C29.2343 24.3825 28.761 24.3996 28.3057 24.4523H28.3052ZM32.4774 17.3702C32.4598 17.1426 32.4598 16.9678 32.4247 16.7924C32.1091 15.0568 30.5142 14.0754 28.8489 14.4608C27.2189 14.8291 26.1671 15.8628 25.7812 17.5109C25.4657 18.8782 26.132 20.2631 27.3937 20.8239C28.358 21.2444 29.3223 21.1917 30.2509 20.7183C31.6357 19.9998 32.3895 18.8782 32.4774 17.3707V17.3702Z" fill="#00ACD7"/>
</g>
<defs>
<clipPath id="clip0_7688_11628">
<rect width="36" height="36" fill="white"/>
</clipPath>
</defs>
</svg>
