<svg xmlns="http://www.w3.org/2000/svg" width="80" height="36" fill="none"><g fill="#1A1A1A" clip-path="url(#a)"><path d="M5.252 12.873c-.136 0-.17-.068-.102-.17l.712-.914c.067-.102.237-.17.372-.17h12.097c.135 0 .17.102.101.203l-.576.881c-.067.102-.237.204-.339.204l-12.265-.034ZM.136 15.99c-.136 0-.17-.068-.102-.17l.711-.914c.068-.102.238-.17.373-.17H16.57c.136 0 .203.102.17.204l-.272.813c-.034.135-.17.203-.305.203L.136 15.99ZM8.334 19.107c-.136 0-.17-.102-.102-.203l.474-.847c.068-.102.204-.204.34-.204h6.776c.136 0 .203.102.203.237l-.067.814c0 .135-.136.237-.238.237l-7.386-.034ZM43.504 12.263c-2.135.542-3.592.948-5.693 1.49-.508.136-.542.17-.983-.338-.508-.576-.88-.949-1.592-1.288-2.135-1.05-4.202-.745-6.133.508-2.304 1.491-3.49 3.694-3.456 6.438.034 2.71 1.897 4.947 4.574 5.32 2.304.305 4.236-.508 5.76-2.236.305-.373.576-.78.915-1.254h-6.54c-.71 0-.88-.44-.643-1.017.44-1.05 1.254-2.812 1.728-3.693.102-.203.339-.542.847-.542h12.334c-.068.915-.068 1.83-.204 2.745-.372 2.44-1.287 4.675-2.778 6.64-2.44 3.22-5.625 5.219-9.657 5.76-3.32.441-6.404-.202-9.114-2.235-2.508-1.898-3.93-4.405-4.304-7.523-.44-3.693.644-7.013 2.88-9.927 2.406-3.152 5.591-5.15 9.488-5.862 3.185-.576 6.234-.203 8.979 1.66 1.796 1.186 3.083 2.812 3.93 4.778.204.305.068.474-.338.576Z"/><path d="M54.718 31c-3.083-.068-5.895-.949-8.267-2.982-2-1.728-3.253-3.93-3.66-6.54-.61-3.828.441-7.217 2.745-10.232 2.474-3.253 5.455-4.947 9.487-5.659 3.456-.61 6.71-.27 9.657 1.728 2.677 1.83 4.337 4.303 4.778 7.556.576 4.574-.746 8.302-3.897 11.487-2.236 2.27-4.98 3.693-8.132 4.337-.915.17-1.83.203-2.71.305Zm8.065-13.69c-.034-.44-.034-.778-.102-1.117-.61-3.355-3.693-5.252-6.912-4.507-3.151.712-5.184 2.71-5.93 5.896-.61 2.643.678 5.32 3.117 6.404 1.864.813 3.728.711 5.523-.204 2.677-1.389 4.134-3.557 4.304-6.471Z"/></g><defs><clipPath id="a"><path fill="#fff" d="M0 0h79.5v36H0z"/></clipPath></defs></svg>