<svg width="36" height="36" viewBox="0 0 36 36" fill="none" xmlns="http://www.w3.org/2000/svg">
<g clip-path="url(#clip0_27514_8086)">
<path d="M2.71697 15.0727C2.64661 15.0727 2.62902 15.0376 2.6642 14.9848L3.03253 14.512C3.06719 14.4592 3.15514 14.424 3.22498 14.424H9.483C9.55284 14.424 9.57095 14.4768 9.53525 14.529L9.23728 14.9848C9.20262 15.0376 9.11467 15.0903 9.06191 15.0903L2.71697 15.0727ZM0.0703556 16.6852C0 16.6852 -0.0175889 16.6501 0.0175889 16.5973L0.385404 16.1245C0.420582 16.0717 0.508526 16.0365 0.578364 16.0365H8.572C8.64236 16.0365 8.67702 16.0893 8.65995 16.142L8.51924 16.5626C8.50165 16.6325 8.43129 16.6676 8.36145 16.6676L0.0703556 16.6852ZM4.31135 18.2977C4.24099 18.2977 4.22341 18.245 4.25858 18.1927L4.50379 17.7545C4.53897 17.7018 4.60933 17.649 4.67968 17.649H8.18505C8.2554 17.649 8.29006 17.7018 8.29006 17.7716L8.2554 18.1927C8.2554 18.2625 8.18505 18.3153 8.13228 18.3153L4.31135 18.2977ZM22.5055 14.7572C21.401 15.0376 20.6473 15.2476 19.5604 15.528C19.2976 15.5983 19.28 15.6159 19.0519 15.3531C18.7891 15.0552 18.5966 14.8622 18.2283 14.6868C17.1238 14.1436 16.0545 14.3014 15.0556 14.9496C13.8637 15.7209 13.2501 16.8606 13.2677 18.2801C13.2853 19.6821 14.2491 20.8393 15.6339 21.0323C16.8259 21.1901 17.8253 20.7695 18.6137 19.8755C18.7715 19.6826 18.9117 19.472 19.0871 19.2268H15.7038C15.3365 19.2268 15.2485 18.9992 15.3711 18.7007C15.5988 18.1575 16.0199 17.246 16.2651 16.7902C16.3178 16.6852 16.4404 16.5099 16.7032 16.5099H23.0839C23.0487 16.9832 23.0487 17.4566 22.9783 17.9299C22.7859 19.1922 22.3126 20.3484 21.5412 21.3649C20.279 23.0307 18.6313 24.0648 16.5455 24.3447C14.828 24.5728 13.2325 24.2402 11.8306 23.1885C10.5332 22.2066 9.79754 20.9097 9.60406 19.2967C9.37644 17.3862 9.93721 15.6687 11.0939 14.1612C12.3386 12.5306 13.9863 11.497 16.0023 11.1287C17.6499 10.8307 19.2273 11.0237 20.6473 11.9874C21.5764 12.601 22.2422 13.4421 22.6804 14.4592C22.7859 14.617 22.7155 14.7044 22.5055 14.7572Z" fill="#18191B"/>
<path d="M28.3067 24.4504C26.7118 24.4152 25.2571 23.9595 24.03 22.9077C22.9954 22.0138 22.3472 20.8747 22.1366 19.5245C21.821 17.5442 22.3647 15.791 23.5567 14.2312C24.8365 12.5484 26.3786 11.6721 28.4645 11.3037C30.2523 10.9882 31.9357 11.164 33.4602 12.1977C34.8451 13.1444 35.7039 14.4237 35.932 16.1065C36.23 18.4728 35.5461 20.4013 33.916 22.049C32.7593 23.2233 31.3397 23.9595 29.7092 24.2926C29.2358 24.3806 28.7625 24.3976 28.3072 24.4504H28.3067ZM32.4789 17.3683C32.4613 17.1407 32.4613 16.9658 32.4261 16.7904C32.1106 15.0548 30.5157 14.0735 28.8504 14.4589C27.2203 14.8272 26.1686 15.8608 25.7827 17.509C25.4671 18.8763 26.1334 20.2611 27.3952 20.8219C28.3595 21.2425 29.3237 21.1897 30.2523 20.7164C31.6372 19.9978 32.3909 18.8763 32.4789 17.3688V17.3683Z" fill="#18191B"/>
</g>
<defs>
<clipPath id="clip0_27514_8086">
<rect width="36" height="36" fill="white"/>
</clipPath>
</defs>
</svg>
