<svg width="36" height="36" viewBox="0 0 36 36" fill="none" xmlns="http://www.w3.org/2000/svg">
<g clip-path="url(#clip0_7688_10591)">
<path fill-rule="evenodd" clip-rule="evenodd" d="M19.2598 0.941515C19.3477 1.11653 19.4002 1.30716 19.4143 1.5025C19.4285 1.69784 19.404 1.89405 19.3422 2.0799C19.2804 2.26575 19.1826 2.43759 19.0543 2.58558C18.926 2.73358 18.7698 2.85482 18.5946 2.94237L4.86934 9.80501L17.9277 16.3333L30.859 9.86938L26.1224 7.71654L18.5446 11.1604C18.3664 11.2414 18.1741 11.2865 17.9786 11.2932C17.783 11.2999 17.5881 11.268 17.4049 11.1993C17.2216 11.1307 17.0537 11.0266 16.9107 10.8931C16.7677 10.7595 16.6524 10.5991 16.5714 10.421C16.4904 10.2429 16.4453 10.0506 16.4386 9.85503C16.4319 9.65948 16.4638 9.46453 16.5324 9.2813C16.6011 9.09808 16.7052 8.93018 16.8387 8.78717C16.9723 8.64417 17.1327 8.52887 17.3108 8.44786L25.5073 4.7233C25.8989 4.54449 26.3477 4.54449 26.7411 4.7233L34.9359 8.44786C35.1922 8.56428 35.4102 8.75095 35.5648 8.98624C35.7193 9.22152 35.804 9.49579 35.8091 9.77725C35.8142 10.0587 35.7393 10.3358 35.5933 10.5765C35.4473 10.8172 35.2361 11.0116 34.9841 11.1371L18.5946 19.3319C18.3876 19.4356 18.1592 19.4896 17.9277 19.4896C17.6961 19.4896 17.4678 19.4356 17.2607 19.3319L0.871202 11.1371C0.623847 11.0134 0.415826 10.8233 0.270442 10.588C0.125057 10.3527 0.0480515 10.0816 0.0480515 9.80501C0.0480515 9.52844 0.125057 9.25733 0.270442 9.02205C0.415826 8.78677 0.623847 8.59662 0.871202 8.47289L17.2607 0.274562C17.4358 0.187002 17.6263 0.134797 17.8216 0.120931C18.0168 0.107064 18.2128 0.131808 18.3985 0.193749C18.5841 0.255689 18.7558 0.353611 18.9035 0.481917C19.0513 0.610224 19.1724 0.766399 19.2598 0.941515ZM0.20425 17.3346C0.291806 17.1596 0.412975 17.0036 0.560835 16.8755C0.708694 16.7474 0.880347 16.6497 1.06599 16.5879C1.25163 16.5261 1.44762 16.5015 1.64277 16.5155C1.83791 16.5295 2.02839 16.5818 2.20332 16.6694L17.9277 24.5298L33.652 16.6677C34.0046 16.4968 34.4103 16.4718 34.7813 16.598C35.1522 16.7242 35.4585 16.9915 35.6337 17.342C35.8089 17.6924 35.839 18.0978 35.7174 18.4703C35.5958 18.8427 35.3324 19.1523 34.9841 19.3319L18.5946 27.5284C18.3876 27.6321 18.1592 27.6861 17.9277 27.6861C17.6961 27.6861 17.4678 27.6321 17.2607 27.5284L0.871202 19.3319C0.696086 19.2445 0.539911 19.1234 0.411605 18.9756C0.283298 18.8279 0.185376 18.6562 0.123436 18.4706C0.0614958 18.2849 0.0367517 18.0889 0.0506182 17.8937C0.0644847 17.6984 0.11669 17.5079 0.20425 17.3328V17.3346ZM0.20425 25.5312C0.291649 25.356 0.412703 25.1999 0.560492 25.0716C0.708282 24.9432 0.87991 24.8453 1.06556 24.7834C1.25122 24.7214 1.44726 24.6967 1.64248 24.7106C1.83771 24.7244 2.02828 24.7766 2.20332 24.8642L17.9277 32.7246L33.652 24.8624C34.0046 24.6916 34.4103 24.6665 34.7813 24.7928C35.1522 24.919 35.4585 25.1863 35.6337 25.5367C35.8089 25.8872 35.839 26.2926 35.7174 26.665C35.5958 27.0375 35.3324 27.3471 34.9841 27.5266L18.5946 35.7232C18.3876 35.8269 18.1592 35.8809 17.9277 35.8809C17.6961 35.8809 17.4678 35.8269 17.2607 35.7232L0.871202 27.5284C0.696086 27.441 0.539911 27.32 0.411605 27.1722C0.283298 27.0244 0.185376 26.8528 0.123436 26.6671C0.0614958 26.4815 0.0367517 26.2854 0.0506182 26.0902C0.0644847 25.895 0.11669 25.7062 0.20425 25.5312Z" fill="#18191B"/>
</g>
<defs>
<clipPath id="clip0_7688_10591">
<rect width="36" height="36" fill="white"/>
</clipPath>
</defs>
</svg>
