<svg width="36" height="36" viewBox="0 0 36 36" fill="none" xmlns="http://www.w3.org/2000/svg">
<g clip-path="url(#clip0_22179_7494)">
<path fill-rule="evenodd" clip-rule="evenodd" d="M19.2612 0.940477C19.3492 1.11549 19.4017 1.30613 19.4158 1.50146C19.43 1.6968 19.4054 1.89301 19.3436 2.07886C19.2819 2.26471 19.184 2.43655 19.0558 2.58454C18.9275 2.73254 18.7713 2.85378 18.5961 2.94134L4.87081 9.80397L17.9291 16.3322L30.8605 9.86835L26.1239 7.7155L18.546 11.1593C18.3679 11.2403 18.1756 11.2855 17.98 11.2922C17.7845 11.2989 17.5895 11.267 17.4063 11.1983C17.2231 11.1296 17.0552 11.0256 16.9122 10.892C16.7692 10.7585 16.6539 10.5981 16.5729 10.42C16.4919 10.2419 16.4467 10.0495 16.44 9.85399C16.4334 9.65844 16.4653 9.46349 16.5339 9.28027C16.6026 9.09704 16.7066 8.92914 16.8402 8.78614C16.9737 8.64313 17.1341 8.52783 17.3122 8.44682L25.5088 4.72226C25.9004 4.54345 26.3492 4.54345 26.7426 4.72226L34.9373 8.44682C35.1936 8.56324 35.4117 8.74992 35.5662 8.9852C35.7208 9.22049 35.8055 9.49475 35.8106 9.77621C35.8156 10.0577 35.7408 10.3348 35.5948 10.5755C35.4488 10.8162 35.2376 11.0105 34.9856 11.1361L18.5961 19.3309C18.389 19.4345 18.1607 19.4885 17.9291 19.4885C17.6976 19.4885 17.4692 19.4345 17.2622 19.3309L0.872667 11.1361C0.625312 11.0124 0.417291 10.8222 0.271906 10.5869C0.126522 10.3517 0.0495164 10.0805 0.0495164 9.80397C0.0495164 9.5274 0.126522 9.25629 0.271906 9.02101C0.417291 8.78574 0.625312 8.59558 0.872667 8.47186L17.2622 0.273525C17.4372 0.185965 17.6278 0.13376 17.823 0.119893C18.0182 0.106027 18.2143 0.130771 18.3999 0.192711C18.5856 0.254651 18.7572 0.352573 18.905 0.48088C19.0528 0.609186 19.1739 0.765361 19.2612 0.940477ZM0.205715 17.3336C0.293271 17.1586 0.41444 17.0026 0.562299 16.8745C0.710159 16.7464 0.881811 16.6486 1.06745 16.5869C1.25309 16.5251 1.44908 16.5005 1.64423 16.5145C1.83938 16.5285 2.02986 16.5808 2.20478 16.6684L17.9291 24.5288L33.6535 16.6666C34.0061 16.4958 34.4118 16.4707 34.7827 16.597C35.1537 16.7232 35.4599 16.9905 35.6352 17.3409C35.8104 17.6914 35.8405 18.0968 35.7189 18.4692C35.5973 18.8417 35.3338 19.1513 34.9856 19.3309L18.5961 27.5274C18.389 27.6311 18.1607 27.6851 17.9291 27.6851C17.6976 27.6851 17.4692 27.6311 17.2622 27.5274L0.872667 19.3309C0.697551 19.2435 0.541376 19.1224 0.41307 18.9746C0.284763 18.8268 0.186841 18.6552 0.124901 18.4695C0.0629607 18.2839 0.0382166 18.0878 0.0520831 17.8926C0.0659495 17.6974 0.118155 17.5068 0.205715 17.3318V17.3336ZM0.205715 25.5301C0.293113 25.355 0.414168 25.1988 0.561957 25.0705C0.709747 24.9422 0.881375 24.8443 1.06703 24.7823C1.25268 24.7204 1.44873 24.6957 1.64395 24.7095C1.83917 24.7234 2.02975 24.7756 2.20478 24.8632L17.9291 32.7235L33.6535 24.8614C34.0061 24.6905 34.4118 24.6655 34.7827 24.7917C35.1537 24.9179 35.4599 25.1852 35.6352 25.5357C35.8104 25.8861 35.8405 26.2915 35.7189 26.664C35.5973 27.0365 35.3338 27.346 34.9856 27.5256L18.5961 35.7222C18.389 35.8258 18.1607 35.8798 17.9291 35.8798C17.6976 35.8798 17.4692 35.8258 17.2622 35.7222L0.872667 27.5274C0.697551 27.44 0.541376 27.3189 0.41307 27.1712C0.284763 27.0234 0.186841 26.8517 0.124901 26.6661C0.0629607 26.4804 0.0382166 26.2844 0.0520831 26.0892C0.0659495 25.8939 0.118155 25.7051 0.205715 25.5301Z" fill="#18191B"/>
</g>
<defs>
<clipPath id="clip0_22179_7494">
<rect width="36" height="36" fill="white"/>
</clipPath>
</defs>
</svg>
