<svg width="33" height="32" viewBox="0 0 33 32" fill="none" xmlns="http://www.w3.org/2000/svg">
<g clip-path="url(#clip0_7849_6315)">
<mask id="mask0_7849_6315" style="mask-type:luminance" maskUnits="userSpaceOnUse" x="1" y="0" width="32" height="32">
<path d="M1.88867 0H32.5553V32H1.88867V0Z" fill="white"/>
</mask>
<g mask="url(#mask0_7849_6315)">
<mask id="mask1_7849_6315" style="mask-type:luminance" maskUnits="userSpaceOnUse" x="1" y="0" width="32" height="32">
<path d="M32.5544 0H1.8877V32H32.5544V0Z" fill="white"/>
</mask>
<g mask="url(#mask1_7849_6315)">
<path d="M32.0687 10.8965C32.979 8.02802 32.4323 2.30002 30.667 0.18535C30.6125 0.121855 30.5439 0.0721183 30.4666 0.0401943C30.3893 0.00827024 30.3056 -0.0049373 30.2222 0.00164842C30.1389 0.00823413 30.0582 0.0344267 29.9869 0.0780906C29.9156 0.121755 29.8556 0.181654 29.8118 0.252905L27.6367 3.70713C27.3799 4.03953 27.0066 4.26222 26.5921 4.33035C26.1776 4.39847 25.7527 4.30695 25.403 4.07424C22.9699 2.46074 20.1144 1.6017 17.195 1.60491C14.1647 1.60491 11.3461 2.51424 8.98696 4.07424C8.63698 4.30612 8.21229 4.39715 7.79802 4.32906C7.38376 4.26098 7.01053 4.03882 6.75318 3.70713L4.57807 0.252905C4.53415 0.181771 4.47404 0.12202 4.40265 0.0785221C4.33125 0.0350238 4.25059 0.0090087 4.16724 0.00259678C4.08388 -0.00381514 4.00019 0.00955753 3.92299 0.0416251C3.84578 0.0736926 3.77724 0.123548 3.72296 0.187128C1.95851 2.30002 1.41185 8.02713 2.32118 10.8965C2.62909 11.8456 2.70019 12.8557 2.52829 13.8387C2.35229 14.8111 2.17274 15.9889 2.17274 16.8022C2.17274 25.1934 8.90162 32.0005 17.195 32.0005C25.4927 32.0005 32.2172 25.1978 32.2172 16.8022C32.2172 15.9845 32.0412 14.8111 31.8616 13.8396C31.6896 12.8563 31.7607 11.8459 32.0687 10.8965ZM17.195 28.6031C10.7834 28.6031 5.56651 23.3249 5.56651 16.8378C5.56198 14.6181 6.18449 12.4422 7.36237 10.5607C8.54025 8.67926 10.2256 7.16875 12.2243 6.20313C13.7748 5.45662 15.4741 5.07039 17.195 5.07335C18.9718 5.07335 20.659 5.47957 22.1701 6.20668C24.1683 7.17195 25.8533 8.68189 27.0312 10.5627C28.209 12.4435 28.8318 14.6186 28.8278 16.8378C28.8243 23.3249 23.6074 28.6031 17.195 28.6031Z" fill="#3970FD"/>
<path d="M22.2316 21.3653L19.26 16.1547L16.7098 11.8089C16.6805 11.7583 16.6384 11.7163 16.5876 11.6872C16.5369 11.6582 16.4794 11.6431 16.4209 11.6436H13.9844C13.9257 11.6438 13.8681 11.6596 13.8173 11.6892C13.7666 11.7189 13.7246 11.7614 13.6956 11.8125C13.6662 11.8645 13.6511 11.9234 13.6517 11.9832C13.6523 12.0429 13.6687 12.1015 13.6991 12.1529L16.1356 16.3013L12.8644 21.3502C12.8315 21.4015 12.8127 21.4606 12.8099 21.5214C12.8071 21.5823 12.8204 21.6428 12.8484 21.6969C12.9062 21.808 13.02 21.8747 13.1409 21.8747H15.5933C15.6492 21.8742 15.7041 21.8599 15.7531 21.8331C15.8021 21.8063 15.8437 21.7677 15.8742 21.7209L17.6431 18.9245L19.2289 21.7058C19.2876 21.8125 19.4004 21.8747 19.5178 21.8747H21.9356C22.0556 21.8747 22.1649 21.8125 22.2236 21.7058C22.2947 21.5991 22.2947 21.472 22.2316 21.3653Z" fill="#3970FD"/>
</g>
</g>
</g>
<defs>
<clipPath id="clip0_7849_6315">
<rect width="32" height="32" fill="white" transform="translate(0.888672)"/>
</clipPath>
</defs>
</svg>
