<svg width="32" height="32" viewBox="0 0 32 32" fill="none" xmlns="http://www.w3.org/2000/svg">
<g clip-path="url(#clip0_7849_6250)">
<mask id="mask0_7849_6250" style="mask-type:luminance" maskUnits="userSpaceOnUse" x="1" y="0" width="31" height="32">
<path d="M1 0H31.6667V32H1V0Z" fill="white"/>
</mask>
<g mask="url(#mask0_7849_6250)">
<mask id="mask1_7849_6250" style="mask-type:luminance" maskUnits="userSpaceOnUse" x="0" y="0" width="32" height="32">
<path d="M31.6657 0H0.999023V32H31.6657V0Z" fill="white"/>
</mask>
<g mask="url(#mask1_7849_6250)">
<path d="M31.1801 10.8965C32.0903 8.02802 31.5436 2.30002 29.7783 0.18535C29.7239 0.121855 29.6552 0.0721183 29.5779 0.0401943C29.5006 0.00827024 29.4169 -0.0049373 29.3335 0.00164842C29.2502 0.00823413 29.1696 0.0344267 29.0982 0.0780906C29.0269 0.121755 28.9669 0.181654 28.9232 0.252905L26.7481 3.70713C26.4912 4.03953 26.1179 4.26222 25.7034 4.33035C25.2889 4.39847 24.864 4.30695 24.5143 4.07424C22.0812 2.46074 19.2258 1.6017 16.3063 1.60491C13.2761 1.60491 10.4574 2.51424 8.09829 4.07424C7.74831 4.30612 7.32362 4.39715 6.90935 4.32906C6.49508 4.26098 6.12186 4.03882 5.86451 3.70713L3.6894 0.252905C3.64548 0.181771 3.58537 0.12202 3.51398 0.0785221C3.44258 0.0350238 3.36192 0.0090087 3.27857 0.00259678C3.19521 -0.00381514 3.11152 0.00955753 3.03431 0.0416251C2.95711 0.0736926 2.88857 0.123548 2.83429 0.187128C1.06984 2.30002 0.523175 8.02713 1.43251 10.8965C1.74041 11.8456 1.81152 12.8557 1.63962 13.8387C1.46362 14.8111 1.28406 15.9889 1.28406 16.8022C1.28406 25.1934 8.01295 32.0005 16.3063 32.0005C24.6041 32.0005 31.3285 25.1978 31.3285 16.8022C31.3285 15.9845 31.1525 14.8111 30.973 13.8396C30.8009 12.8563 30.872 11.8459 31.1801 10.8965ZM16.3063 28.6031C9.89473 28.6031 4.67784 23.3249 4.67784 16.8378C4.67331 14.6181 5.29582 12.4422 6.4737 10.5607C7.65157 8.67926 9.33691 7.16875 11.3356 6.20313C12.8861 5.45662 14.5854 5.07039 16.3063 5.07335C18.0832 5.07335 19.7703 5.47957 21.2814 6.20668C23.2796 7.17195 24.9647 8.68189 26.1425 10.5627C27.3204 12.4435 27.9431 14.6186 27.9392 16.8378C27.9356 23.3249 22.7187 28.6031 16.3063 28.6031Z" fill="#3970FD"/>
<path d="M21.3429 21.3653L18.3713 16.1547L15.8211 11.8089C15.7919 11.7583 15.7497 11.7163 15.699 11.6872C15.6482 11.6582 15.5907 11.6431 15.5322 11.6436H13.0958C13.037 11.6438 12.9794 11.6596 12.9287 11.6892C12.8779 11.7189 12.8359 11.7614 12.8069 11.8125C12.7775 11.8645 12.7624 11.9234 12.763 11.9832C12.7637 12.0429 12.78 12.1015 12.8104 12.1529L15.2469 16.3013L11.9758 21.3502C11.9429 21.4015 11.9241 21.4606 11.9213 21.5214C11.9185 21.5823 11.9317 21.6428 11.9598 21.6969C12.0175 21.808 12.1313 21.8747 12.2522 21.8747H14.7047C14.7605 21.8742 14.8154 21.8599 14.8644 21.8331C14.9134 21.8063 14.955 21.7677 14.9855 21.7209L16.7544 18.9245L18.3402 21.7058C18.3989 21.8125 18.5118 21.8747 18.6291 21.8747H21.0469C21.1669 21.8747 21.2762 21.8125 21.3349 21.7058C21.406 21.5991 21.406 21.472 21.3429 21.3653Z" fill="#3970FD"/>
</g>
</g>
</g>
<defs>
<clipPath id="clip0_7849_6250">
<rect width="32" height="32" fill="white"/>
</clipPath>
</defs>
</svg>
