<svg width="36" height="36" viewBox="0 0 36 36" fill="none" xmlns="http://www.w3.org/2000/svg">
<path d="M30.7911 0H5.20891C3.42618 0 2 1.44 2 3.24V32.76C2 34.56 3.42618 36 5.20891 36H30.7911C32.5738 36 34 34.56 34 32.76V3.24C34 1.44 32.5738 0 30.7911 0ZM32.2173 32.76C32.2173 33.57 31.5933 34.2 30.7911 34.2H5.20891C4.40668 34.2 3.78273 33.57 3.78273 32.76V3.24C3.78273 2.43 4.40668 1.8 5.20891 1.8H30.7911C31.5933 1.8 32.2173 2.43 32.2173 3.24V32.76ZM10.0223 30.6L14.0334 27L10.0223 23.4V30.6ZM24.4624 16.02C23.7493 15.3 22.4123 14.4 20.1838 14.4C17.7772 14.4 15.2813 15.03 13.4986 15.66V5.4H9.93315V20.97L12.429 19.8C12.429 19.8 16.5293 17.91 20.0947 17.91C21.8774 17.91 22.3231 18.9 22.3231 19.8V30.6H25.8886V19.8C25.9777 19.53 25.9777 17.55 24.4624 16.02ZM19.7382 11.25H23.3036C24.9081 9.36 25.7103 7.47 25.9777 5.4H22.4123C22.0557 7.47 21.1643 9.36 19.7382 11.25Z" fill="#430098"/>
</svg>
