<?xml version="1.0" standalone="no"?>
<!DOCTYPE svg PUBLIC "-//W3C//DTD SVG 20010904//EN"
 "http://www.w3.org/TR/2001/REC-SVG-20010904/DTD/svg10.dtd">
<svg version="1.0" xmlns="http://www.w3.org/2000/svg"
 width="400.000000pt" height="400.000000pt" viewBox="0 0 400.000000 400.000000"
 preserveAspectRatio="xMidYMid meet">

<g transform="translate(0.000000,400.000000) scale(0.100000,-0.100000)"
 stroke="none">

<path d="M0 2000 l0 -2000 2000 0 2000 0 0 2000 0 2000 -2000 0 -2000 0 0
-2000z" fill="#0350d4"/>

<path d="M2094 3344 c60 -21 149 -106 176 -169 27 -62 27 -174 1 -230 -88 -189
-339 -244 -491 -108 -87 78 -116 203 -76 323 24 70 110 159 176 183 59 20 155
21 214 1z m76 -795 c0 -5 -6 -40 -14 -77 -8 -37 -22 -107 -31 -157 -9 -49 -23
-121 -31 -160 -36 -175 -66 -324 -74 -372 -5 -28 -13 -68 -19 -90 -5 -21 -17
-76 -26 -123 -9 -47 -23 -114 -30 -150 -8 -36 -21 -101 -30 -145 -9 -44 -23
-108 -31 -142 -20 -89 -18 -202 4 -229 21 -26 54 -44 81 -44 73 0 217 85 318
187 72 73 154 192 173 248 11 34 13 35 63 35 29 0 62 3 75 6 32 9 29 -17 -12
-103 -238 -496 -836 -759 -1093 -480 -88 95 -117 190 -116 377 1 74 6 158 13
185 6 28 15 73 20 100 5 28 18 93 30 145 26 120 80 382 90 435 6 35 20 102 85
415 9 41 20 92 26 113 l10 37 259 0 c175 0 260 -3 260 -11z" fill="#FFFFFF"/>

</g>
</svg>