<svg width="32" height="32" viewBox="0 0 32 32" fill="none" xmlns="http://www.w3.org/2000/svg">
<path d="M14.4683 0.424265C15.4106 -0.141421 16.5879 -0.141422 17.5301 0.424264L28.293 6.88607C29.1885 7.42367 29.7363 8.39155 29.7363 9.43596V22.564C29.7363 23.6084 29.1885 24.5763 28.293 25.1139L17.5301 31.5757C16.5879 32.1414 15.4106 32.1414 14.4683 31.5757L3.70546 25.1139C2.81003 24.5763 2.26221 23.6084 2.26221 22.564V9.43596C2.26221 8.39155 2.81003 7.42367 3.70546 6.88607L14.4683 0.424265Z" fill="url(#paint0_linear_1126_914)"/>
<circle cx="9.18751" cy="18.3032" r="2.30323" fill="white"/>
<circle cx="16" cy="16" r="2.30323" fill="white"/>
<circle cx="22.8098" cy="13.6968" r="2.30323" fill="white"/>
<defs>
<linearGradient id="paint0_linear_1126_914" x1="23.1082" y1="3.70972" x2="8.22596" y2="29.4981" gradientUnits="userSpaceOnUse">
<stop stop-color="#6144F5"/>
<stop offset="1" stop-color="#AB7CF4"/>
</linearGradient>
</defs>
</svg>
