<svg width="218" height="253" viewBox="0 0 218 253" fill="none" xmlns="http://www.w3.org/2000/svg">
<mask id="path-1-inside-1_657_117" fill="white">
<path fill-rule="evenodd" clip-rule="evenodd" d="M119.188 2.90797L207.585 55.9971C213.644 59.6756 217.418 66.2372 217.319 73.3952V179.474C217.319 186.632 213.644 193.194 207.486 196.872L119.088 249.961C115.314 252.447 107.567 255.33 98.2304 249.961L9.83297 196.872C3.77427 193.194 0 186.632 0 179.474V73.3952C0 66.2372 3.67494 59.6756 9.83297 55.9971L98.3297 2.90797C104.786 -0.969324 112.732 -0.969324 119.188 2.90797ZM54.348 126.5C44.3428 126.5 36.2319 134.611 36.2319 144.616C36.2319 154.621 44.3428 162.732 54.348 162.732C59.1527 162.732 63.7606 160.823 67.158 157.426C70.5554 154.029 72.464 149.421 72.464 144.616C72.464 134.611 64.3532 126.5 54.348 126.5ZM108.696 108.384C98.6909 108.384 90.5801 116.495 90.5801 126.5C90.5801 136.505 98.6909 144.616 108.696 144.616C113.501 144.616 118.109 142.707 121.506 139.31C124.904 135.913 126.812 131.305 126.812 126.5C126.812 116.495 118.701 108.384 108.696 108.384ZM163.044 90.2679C153.039 90.2679 144.928 98.3787 144.928 108.384C144.928 118.389 153.039 126.5 163.044 126.5C167.849 126.5 172.457 124.591 175.854 121.194C179.252 117.797 181.16 113.189 181.16 108.384C181.16 98.3787 173.05 90.2679 163.044 90.2679Z"/>
</mask>
<path fill-rule="evenodd" clip-rule="evenodd" d="M119.188 2.90797L207.585 55.9971C213.644 59.6756 217.418 66.2372 217.319 73.3952V179.474C217.319 186.632 213.644 193.194 207.486 196.872L119.088 249.961C115.314 252.447 107.567 255.33 98.2304 249.961L9.83297 196.872C3.77427 193.194 0 186.632 0 179.474V73.3952C0 66.2372 3.67494 59.6756 9.83297 55.9971L98.3297 2.90797C104.786 -0.969324 112.732 -0.969324 119.188 2.90797ZM54.348 126.5C44.3428 126.5 36.2319 134.611 36.2319 144.616C36.2319 154.621 44.3428 162.732 54.348 162.732C59.1527 162.732 63.7606 160.823 67.158 157.426C70.5554 154.029 72.464 149.421 72.464 144.616C72.464 134.611 64.3532 126.5 54.348 126.5ZM108.696 108.384C98.6909 108.384 90.5801 116.495 90.5801 126.5C90.5801 136.505 98.6909 144.616 108.696 144.616C113.501 144.616 118.109 142.707 121.506 139.31C124.904 135.913 126.812 131.305 126.812 126.5C126.812 116.495 118.701 108.384 108.696 108.384ZM163.044 90.2679C153.039 90.2679 144.928 98.3787 144.928 108.384C144.928 118.389 153.039 126.5 163.044 126.5C167.849 126.5 172.457 124.591 175.854 121.194C179.252 117.797 181.16 113.189 181.16 108.384C181.16 98.3787 173.05 90.2679 163.044 90.2679Z" fill="#070707"/>
<path d="M207.585 55.9971L209.661 52.5779L209.653 52.573L209.644 52.568L207.585 55.9971ZM119.188 2.90797L117.128 6.33708L117.128 6.33708L119.188 2.90797ZM217.319 73.3952L213.319 73.3397L213.319 73.3675V73.3952H217.319ZM207.486 196.872L205.434 193.438L205.426 193.443L207.486 196.872ZM119.088 249.961L117.029 246.532L116.958 246.575L116.888 246.621L119.088 249.961ZM98.2304 249.961L96.171 253.39L96.2035 253.41L96.2365 253.429L98.2304 249.961ZM9.83297 196.872L7.75707 200.291L7.76529 200.296L7.77354 200.301L9.83297 196.872ZM9.83297 55.9971L11.8842 59.4311L11.8907 59.4272L9.83297 55.9971ZM98.3297 2.90797L100.387 6.3381L100.389 6.33708L98.3297 2.90797ZM67.158 157.426L69.9864 160.254V160.254L67.158 157.426ZM175.854 121.194L173.026 118.366L173.026 118.366L175.854 121.194ZM209.644 52.568L121.247 -0.521131L117.128 6.33708L205.526 59.4262L209.644 52.568ZM221.318 73.4507C221.438 64.8283 216.89 56.9672 209.661 52.5779L205.509 59.4163C210.397 62.3839 213.398 67.646 213.319 73.3397L221.318 73.4507ZM221.319 179.474V73.3952H213.319V179.474H221.319ZM209.537 200.306C216.918 195.897 221.319 188.023 221.319 179.474H213.319C213.319 185.242 210.369 190.491 205.434 193.438L209.537 200.306ZM121.148 253.39L209.545 200.301L205.426 193.443L117.029 246.532L121.148 253.39ZM96.2365 253.429C107.242 259.757 116.64 256.363 121.288 253.302L116.888 246.621C113.988 248.531 107.892 250.903 100.224 246.494L96.2365 253.429ZM7.77354 200.301L96.171 253.39L100.29 246.532L11.8924 193.443L7.77354 200.301ZM-4 179.474C-4 188.054 0.524326 195.9 7.75707 200.291L11.9089 193.453C7.02421 190.487 4 185.211 4 179.474H-4ZM-4 73.3952V179.474H4V73.3952H-4ZM7.78169 52.5631C0.400299 56.9724 -4 64.8466 -4 73.3952H4C4 67.6277 6.94959 62.3788 11.8842 59.4311L7.78169 52.5631ZM96.272 -0.522151L7.77524 52.567L11.8907 59.4272L100.387 6.3381L96.272 -0.522151ZM121.247 -0.52113C113.524 -5.15962 103.994 -5.15962 96.2703 -0.521132L100.389 6.33708C105.578 3.22097 111.94 3.22098 117.128 6.33708L121.247 -0.52113ZM40.2319 144.616C40.2319 136.82 46.5519 130.5 54.348 130.5V122.5C42.1336 122.5 32.2319 132.402 32.2319 144.616H40.2319ZM54.348 158.732C46.5519 158.732 40.2319 152.412 40.2319 144.616H32.2319C32.2319 156.83 42.1336 166.732 54.348 166.732V158.732ZM64.3295 154.598C61.6823 157.245 58.0918 158.732 54.348 158.732V166.732C60.2135 166.732 65.8388 164.402 69.9864 160.254L64.3295 154.598ZM68.464 144.616C68.464 148.36 66.9768 151.95 64.3295 154.598L69.9864 160.254C74.134 156.107 76.464 150.482 76.464 144.616H68.464ZM54.348 130.5C62.1441 130.5 68.464 136.82 68.464 144.616H76.464C76.464 132.402 66.5623 122.5 54.348 122.5V130.5ZM94.5801 126.5C94.5801 118.704 100.9 112.384 108.696 112.384V104.384C96.4818 104.384 86.5801 114.286 86.5801 126.5H94.5801ZM108.696 140.616C100.9 140.616 94.5801 134.296 94.5801 126.5H86.5801C86.5801 138.714 96.4818 148.616 108.696 148.616V140.616ZM118.678 136.482C116.03 139.129 112.44 140.616 108.696 140.616V148.616C114.562 148.616 120.187 146.286 124.335 142.138L118.678 136.482ZM122.812 126.5C122.812 130.244 121.325 133.834 118.678 136.482L124.335 142.138C128.482 137.991 130.812 132.366 130.812 126.5H122.812ZM108.696 112.384C116.492 112.384 122.812 118.704 122.812 126.5H130.812C130.812 114.286 120.91 104.384 108.696 104.384V112.384ZM148.928 108.384C148.928 100.588 155.248 94.2679 163.044 94.2679V86.2679C150.83 86.2679 140.928 96.1696 140.928 108.384H148.928ZM163.044 122.5C155.248 122.5 148.928 116.18 148.928 108.384H140.928C140.928 120.598 150.83 130.5 163.044 130.5V122.5ZM173.026 118.366C170.379 121.013 166.788 122.5 163.044 122.5V130.5C168.91 130.5 174.535 128.17 178.683 124.022L173.026 118.366ZM177.16 108.384C177.16 112.128 175.673 115.718 173.026 118.366L178.683 124.022C182.83 119.875 185.16 114.25 185.16 108.384H177.16ZM163.044 94.2679C170.84 94.2679 177.16 100.588 177.16 108.384H185.16C185.16 96.1696 175.259 86.2679 163.044 86.2679V94.2679Z" fill="white" mask="url(#path-1-inside-1_657_117)"/>
</svg>
