<svg width="36" height="36" viewBox="0 0 36 36" fill="none" xmlns="http://www.w3.org/2000/svg">
<g clip-path="url(#clip0_7688_11421)">
<path d="M0 0V36H36V0H0ZM19.2857 27.9643C19.2857 31.4687 17.2157 33.1771 14.2192 33.1771C11.5128 33.1771 9.94179 31.7756 9.14464 30.0841L11.8993 28.4167C12.4304 29.3593 12.8338 30.1564 13.9934 30.1564C14.9577 30.1564 15.75 29.7217 15.75 28.0302V16.7143H19.2857V27.9643ZM27.2692 33.0967C24.128 33.0967 22.0982 31.6792 21.1074 29.7217L23.8661 28.125C24.5893 29.3095 25.5335 30.0986 27.2009 30.0986C28.6023 30.0986 29.4163 29.4782 29.4163 28.5115C29.4163 27.352 28.5782 26.9413 27.0313 26.2615L26.186 25.8983C23.7447 24.8601 22.1263 23.5551 22.1263 20.7996C22.1263 18.2628 24.0589 16.4097 27.0796 16.4097C29.2307 16.4097 30.776 17.0783 31.8889 19.0358L29.25 20.7321C28.6698 19.6931 28.0446 19.2857 27.0755 19.2857C26.0847 19.2857 25.4563 19.9141 25.4563 20.7321C25.4563 21.7471 26.0847 22.1577 27.5344 22.7861L28.3797 23.1485C31.2557 24.3812 32.8749 25.6396 32.8749 28.4649C32.8757 31.5104 30.4835 33.0967 27.2692 33.0967Z" fill="#F5DD08"/>
</g>
<defs>
<clipPath id="clip0_7688_11421">
<rect width="36" height="36" fill="white"/>
</clipPath>
</defs>
</svg>
