<svg xmlns="http://www.w3.org/2000/svg" width="27" height="36" fill="none"><g fill="#1A1A1A" clip-path="url(#a)"><path d="M8.698 27.583s-1.382.793.984 1.06c2.866.323 4.33.277 7.489-.312 0 0 .83.513 1.99.958-7.08 2.992-16.024-.174-10.463-1.706Zm-.865-3.904s-1.55 1.131.817 1.373c3.062.311 5.48.337 9.663-.458 0 0 .579.579 1.489.895-8.56 2.468-18.095.195-11.969-1.81ZM15.126 17.055c1.745 1.98-.458 3.763-.458 3.763s4.43-2.255 2.395-5.078c-1.9-2.633-3.357-3.942 4.53-8.453.001 0-12.38 3.05-6.467 9.768Z"/><path d="M24.49 30.471s1.023.831-1.126 1.474c-4.087 1.221-17.01 1.59-20.6.049-1.29-.554 1.13-1.322 1.892-1.483.794-.17 1.247-.138 1.247-.138-1.435-.997-9.276 1.957-3.983 2.803 14.436 2.309 26.315-1.04 22.57-2.705ZM9.363 19.633s-6.573 1.54-2.328 2.099c1.793.237 5.366.183 8.694-.092 2.72-.226 5.452-.707 5.452-.707s-.959.405-1.653.872c-6.675 1.731-19.57.926-15.857-.845 3.14-1.496 5.692-1.327 5.692-1.327Zm11.791 6.5c6.786-3.477 3.648-6.819 1.459-6.368-.537.11-.776.205-.776.205s.199-.307.58-.44c4.331-1.503 7.663 4.429-1.4 6.778 0 0 .106-.093.137-.175ZM17.063.003S20.821 3.71 13.5 9.41c-5.871 4.572-1.339 7.18-.002 10.158-3.428-3.05-5.943-5.733-4.255-8.232C11.718 7.67 18.579 5.891 17.063.003Z"/><path d="M10.03 35.554c6.513.411 16.514-.228 16.751-3.267 0 0-.455 1.152-5.383 2.067-5.559 1.032-12.415.911-16.482.25 0 0 .833.68 5.114.95Z"/></g><defs><clipPath id="a"><path fill="#fff" d="M0 0h27v36H0z"/></clipPath></defs></svg>