<svg width="36" height="36" viewBox="0 0 36 36" fill="none" xmlns="http://www.w3.org/2000/svg">
<path d="M0 0V35H35V0H0ZM18.75 27.1875C18.75 30.5945 16.7375 32.2555 13.8242 32.2555C11.193 32.2555 9.66563 30.893 8.89062 29.2484L11.5688 27.6273C12.0852 28.5438 12.4773 29.3188 13.6047 29.3188C14.5422 29.3188 15.3125 28.8961 15.3125 27.2516V16.25H18.75V27.1875ZM26.5117 32.1773C23.4578 32.1773 21.4844 30.7992 20.5211 28.8961L23.2031 27.3438C23.9062 28.4953 24.8242 29.2625 26.4453 29.2625C27.8078 29.2625 28.5992 28.6594 28.5992 27.7195C28.5992 26.5922 27.7844 26.193 26.2805 25.532L25.4586 25.1789C23.0852 24.1695 21.5117 22.9008 21.5117 20.2219C21.5117 17.7555 23.3906 15.9539 26.3273 15.9539C28.4187 15.9539 29.9211 16.6039 31.0031 18.507L28.4375 20.1562C27.8734 19.1461 27.2656 18.75 26.3234 18.75C25.3602 18.75 24.7492 19.3609 24.7492 20.1562C24.7492 21.143 25.3602 21.5422 26.7695 22.1531L27.5914 22.5055C30.3875 23.7039 31.9617 24.9273 31.9617 27.6742C31.9625 30.6352 29.6367 32.1773 26.5117 32.1773Z" fill="#18191B"/>
</svg>
