<svg width="36" height="36" viewBox="0 0 36 36" fill="none" xmlns="http://www.w3.org/2000/svg">
<g clip-path="url(#clip0_7688_11781)">
<path fill-rule="evenodd" clip-rule="evenodd" d="M13.5525 27.8399C13.5525 27.8399 12.1774 28.64 14.5321 28.9103C17.3855 29.2361 18.843 29.1892 21.9864 28.5946C21.9864 28.5946 22.814 29.1128 23.9692 29.5611C16.9205 32.5814 8.01677 29.3863 13.5525 27.8399ZM12.6908 23.8984C12.6908 23.8984 11.1482 25.0402 13.505 25.2839C16.5531 25.5987 18.9591 25.6244 23.1252 24.8228C23.1252 24.8228 23.7004 25.4067 24.6056 25.7256C16.0845 28.218 6.59425 25.9219 12.6908 23.8984Z" fill="#5C97D5"/>
<path fill-rule="evenodd" clip-rule="evenodd" d="M19.9481 17.2116C21.6857 19.2117 19.4926 21.0105 19.4926 21.0105C19.4926 21.0105 23.9026 18.7344 21.8771 15.8831C19.986 13.2253 18.5354 11.905 26.3875 7.35156C26.3875 7.35156 14.0618 10.4287 19.9481 17.2116Z" fill="#E04445"/>
<path fill-rule="evenodd" clip-rule="evenodd" d="M29.272 30.7571C29.272 30.7571 30.2898 31.5963 28.1508 32.2453C24.0833 33.4773 11.2185 33.8488 7.64502 32.2943C6.36137 31.7352 8.76978 30.9602 9.52748 30.7965C10.3177 30.6257 10.7687 30.6567 10.7687 30.6567C9.34022 29.6508 1.5353 32.6324 6.80488 33.4877C21.1741 35.8176 32.9987 32.4388 29.272 30.7571ZM14.2126 19.8159C14.2126 19.8159 7.66951 21.3704 11.8959 21.9355C13.681 22.1741 17.2368 22.1192 20.5517 21.8411C23.2599 21.6138 25.9784 21.1276 25.9784 21.1276C25.9784 21.1276 25.0241 21.5371 24.3327 22.0084C17.6872 23.7564 4.85134 22.9423 8.54698 21.1554C11.6716 19.6439 14.2126 19.8159 14.2126 19.8159ZM25.9512 26.3766C32.706 22.8673 29.5829 19.4942 27.4024 19.9488C26.8693 20.0602 26.63 20.1564 26.63 20.1564C26.63 20.1564 26.8289 19.8452 27.207 19.7114C31.52 18.1957 34.8364 24.1829 25.8165 26.554C25.8162 26.554 25.9201 26.4602 25.9512 26.3766Z" fill="#5C97D5"/>
<path fill-rule="evenodd" clip-rule="evenodd" d="M21.8811 0C21.8811 0 25.6212 3.74253 18.3327 9.49564C12.4876 14.1124 17.0001 16.7439 18.3309 19.7517C14.9184 16.6734 12.4153 13.963 14.0944 11.4411C16.5595 7.73921 23.3902 5.94396 21.8811 0Z" fill="#E04445"/>
<path fill-rule="evenodd" clip-rule="evenodd" d="M14.8752 35.8883C21.358 36.3028 31.3151 35.658 31.5513 32.5898C31.5513 32.5898 31.0979 33.7528 26.193 34.6754C20.6591 35.7171 13.8326 35.5959 9.78516 34.9278C9.78516 34.9278 10.6145 35.6141 14.8752 35.8883Z" fill="#5C97D5"/>
</g>
<defs>
<clipPath id="clip0_7688_11781">
<rect width="36" height="36" fill="white"/>
</clipPath>
</defs>
</svg>
