<svg width="36" height="36" viewBox="0 0 36 36" fill="none" xmlns="http://www.w3.org/2000/svg">
<path d="M24.4648 19.9225C23.0641 19.9225 21.8084 20.5431 20.9484 21.5201L18.7449 19.9602C18.9788 19.3162 19.1131 18.6246 19.1131 17.9008C19.1131 17.1896 18.9835 16.5096 18.7573 15.8751L20.9559 14.3317C21.8157 15.3038 23.0682 15.921 24.4648 15.921C27.0502 15.921 29.1538 13.8177 29.1538 11.232C29.1538 8.64632 27.0502 6.543 24.4648 6.543C21.8795 6.543 19.7758 8.64632 19.7758 11.232C19.7758 11.6948 19.8458 12.1411 19.9713 12.5637L17.7712 14.1079C16.8521 12.9678 15.5289 12.1717 14.0212 11.9287V9.27718C16.1452 8.83108 17.7456 6.94393 17.7456 4.689C17.7456 2.10332 15.6419 0 13.0566 0C10.4712 0 8.36757 2.10332 8.36757 4.689C8.36757 6.91373 9.92647 8.7776 12.008 9.25555V11.9415C9.16727 12.4402 7 14.9193 7 17.9008C7 20.8969 9.18873 23.3851 12.05 23.8668V26.703C9.94715 27.1652 8.36757 29.0405 8.36757 31.2804C8.36757 33.8661 10.4712 35.9694 13.0566 35.9694C15.6419 35.9694 17.7456 33.8661 17.7456 31.2804C17.7456 29.0405 16.166 27.1652 14.0632 26.703V23.8667C15.5114 23.6228 16.8216 22.8608 17.7497 21.7226L19.968 23.2927C19.8448 23.7115 19.7758 24.1534 19.7758 24.6115C19.7758 27.1972 21.8795 29.3005 24.4648 29.3005C27.0502 29.3005 29.1538 27.1972 29.1538 24.6115C29.1538 22.0259 27.0502 19.9225 24.4648 19.9225ZM24.4648 8.95855C25.7185 8.95855 26.7382 9.97867 26.7382 11.232C26.7382 12.4853 25.7185 13.5054 24.4648 13.5054C23.2112 13.5054 22.1915 12.4853 22.1915 11.232C22.1915 9.97867 23.2112 8.95855 24.4648 8.95855ZM10.7831 4.689C10.7831 3.43566 11.8029 2.41563 13.0566 2.41563C14.3103 2.41563 15.3299 3.43566 15.3299 4.689C15.3299 5.94234 14.3103 6.96237 13.0566 6.96237C11.8029 6.96237 10.7831 5.94234 10.7831 4.689ZM15.3299 31.2804C15.3299 32.5337 14.3103 33.5537 13.0566 33.5537C11.8029 33.5537 10.7831 32.5337 10.7831 31.2804C10.7831 30.027 11.8029 29.007 13.0566 29.007C14.3103 29.007 15.3299 30.027 15.3299 31.2804ZM13.0564 21.0714C11.3079 21.0714 9.88545 19.6493 9.88545 17.9008C9.88545 16.1523 11.3079 14.7299 13.0564 14.7299C14.8048 14.7299 16.2273 16.1523 16.2273 17.9008C16.2273 19.6493 14.8048 21.0714 13.0564 21.0714ZM24.4648 26.885C23.2112 26.885 22.1915 25.8649 22.1915 24.6115C22.1915 23.3582 23.2112 22.3382 24.4648 22.3382C25.7185 22.3382 26.7382 23.3582 26.7382 24.6115C26.7382 25.8649 25.7185 26.885 24.4648 26.885Z" fill="#18191B"/>
</svg>
