<svg width="32" height="32" viewBox="0 0 32 32" fill="none" xmlns="http://www.w3.org/2000/svg">
<g clip-path="url(#clip0_7849_6261)">
<path d="M31.8219 17.7535L27.8831 15.8507L31.6144 14.1056C31.9038 13.9699 32.0737 13.6119 31.8736 13.2781L31.4858 12.8292C31.2356 12.5556 30.9638 12.356 30.6337 12.4859L27.8614 13.5309C27.8009 13.5536 27.7346 13.5565 27.6723 13.5389L26.5992 13.2349C26.5196 13.2124 26.4341 13.2335 26.3741 13.2904L25.2262 14.38C24.9689 12.9051 24.3694 11.5479 23.5086 10.3961L25.1867 10.383C25.2589 10.3824 25.3253 10.3429 25.3602 10.2795L25.9542 9.2021C25.9851 9.14598 26.0339 9.10185 26.0928 9.07685L28.8388 7.90598C29.0074 7.8341 29.1112 7.48373 29.0788 7.25648L28.9894 6.43648C28.9164 6.20098 28.5858 5.99373 28.4277 6.0521L24.2971 7.49185L25.7016 3.61935C25.8102 3.31873 25.6772 2.9456 25.2997 2.85098L24.7081 2.80785C24.3376 2.79135 24.0043 2.84223 23.8627 3.1676L22.6413 5.86673C22.6147 5.9256 22.5698 5.97448 22.5133 6.0061L21.5396 6.54998C21.4673 6.59035 21.4218 6.66573 21.4196 6.74835L21.3783 8.3311C20.2036 7.5056 18.8316 6.94285 17.3459 6.72898L18.5241 5.53223C18.5748 5.4806 18.5938 5.40573 18.5737 5.33635L18.2318 4.15448C18.2141 4.09298 18.2173 4.02723 18.2412 3.96785L19.3551 1.19823C19.4236 1.02823 19.2492 0.706977 19.0654 0.569227L18.4226 0.0526017C18.2043 -0.0621482 17.8239 0.0249767 17.7534 0.177977L15.8507 4.11698L14.1056 0.385602C13.9698 0.0961018 13.6119 -0.0736483 13.2781 0.126352L12.8292 0.514227C12.5556 0.764477 12.3559 1.0361 12.4859 1.36635L13.5308 4.13848C13.5537 4.1991 13.5564 4.26535 13.5388 4.3276L13.2349 5.40085C13.2123 5.48035 13.2334 5.56585 13.2904 5.62585L14.3799 6.77373C12.9051 7.0311 11.5478 7.63048 10.3962 8.49135L10.3829 6.81335C10.3824 6.74098 10.3428 6.67473 10.2796 6.63973L9.20207 6.04573C9.14607 6.01485 9.10195 5.9661 9.07682 5.90723L7.90607 3.1611C7.8342 2.99248 7.48382 2.88873 7.25645 2.92123L6.43645 3.01048C6.20107 3.0836 5.9937 3.41423 6.05207 3.57223L7.49195 7.70298L3.61945 6.29848C3.3187 6.18973 2.94557 6.32285 2.85095 6.70035L2.80782 7.29198C2.79132 7.66235 2.8422 7.99573 3.16757 8.13723L5.8667 9.3586C5.9257 9.38535 5.97457 9.43023 6.00607 9.48673L6.55007 10.4605C6.59032 10.5326 6.66582 10.5782 6.74845 10.5804L8.33107 10.6216C7.5057 11.7964 6.94282 13.1684 6.72907 14.654L5.5322 13.4759C5.4807 13.4251 5.40582 13.4062 5.33632 13.4262L4.15445 13.7681C4.09295 13.786 4.02732 13.7826 3.96795 13.7587L1.19832 12.6449C1.0282 12.5765 0.707072 12.7509 0.569322 12.9345L0.0525718 13.5775C-0.0621782 13.7956 0.0250718 14.176 0.178072 14.2465L4.11695 16.1492L0.385572 17.8944C0.0960718 18.0301 -0.0736782 18.3881 0.126322 18.7219L0.514197 19.1707C0.764447 19.4444 1.0362 19.644 1.36632 19.5141L4.13857 18.4691C4.19907 18.4463 4.26532 18.4435 4.3277 18.4611L5.40082 18.7651C5.48032 18.7876 5.56595 18.7665 5.62595 18.7096L6.77382 17.62C7.03107 19.0948 7.63057 20.4521 8.49145 21.6039L6.81332 21.617C6.74107 21.6176 6.6747 21.6571 6.63982 21.7205L6.04582 22.7979C6.01482 22.854 5.96607 22.898 5.9072 22.9232L3.1612 24.094C2.99257 24.1659 2.8887 24.5162 2.9212 24.7435L3.01045 25.5635C3.08357 25.799 3.4142 26.0062 3.57232 25.9478L7.70295 24.5081L6.29845 28.3806C6.18982 28.6812 6.32282 29.0544 6.70032 29.149L7.29195 29.1921C7.66232 29.2086 7.9957 29.1577 8.1372 28.8323L9.35857 26.1332C9.38532 26.0743 9.4302 26.0255 9.4867 25.9939L10.4604 25.45C10.5326 25.4096 10.5782 25.3342 10.5803 25.2516L10.6217 23.6689C11.7964 24.4944 13.1683 25.0571 14.6541 25.271L13.4758 26.4677C13.4252 26.5194 13.4062 26.5942 13.4263 26.6636L13.7682 27.8455C13.7859 27.907 13.7826 27.9727 13.7587 28.0321L12.6448 30.8017C12.5764 30.9717 12.7508 31.293 12.9346 31.4307L13.5774 31.9473C13.7956 32.0621 14.1759 31.975 14.2466 31.822L16.1492 27.883L17.8944 31.6143C18.0302 31.9038 18.3881 32.0736 18.7219 31.8736L19.1707 31.4857C19.4443 31.2355 19.6441 30.9637 19.5141 30.6336L18.4692 27.8615C18.4463 27.8009 18.4436 27.7346 18.4612 27.6724L18.7651 26.5991C18.7876 26.5196 18.7664 26.4341 18.7096 26.3741L17.6201 25.2261C19.0948 24.9688 20.4522 24.3695 21.6038 23.5085L21.6171 25.1867C21.6176 25.259 21.6572 25.3254 21.7204 25.3602L22.7979 25.9542C22.8539 25.9851 22.8981 26.0339 22.9232 26.0927L24.0939 28.8389C24.1658 29.0075 24.5162 29.1112 24.7436 29.0787L25.5634 28.9895C25.7989 28.9164 26.0062 28.5857 25.9479 28.4277L24.5081 24.297L28.3806 25.7015C28.6813 25.8102 29.0544 25.6771 29.1491 25.2996L29.1922 24.708C29.2087 24.3376 29.1577 24.0042 28.8324 23.8627L26.1333 22.6414C26.0743 22.6146 26.0254 22.5697 25.9938 22.5132L25.4499 21.5395C25.4096 21.4674 25.3342 21.4217 25.2516 21.4196L23.6688 21.3783C24.4943 20.2036 25.0571 18.8316 25.2709 17.346L26.4678 18.5241C26.5193 18.5749 26.5942 18.5937 26.6636 18.5737L27.8456 18.2319C27.9069 18.214 27.9727 18.2174 28.0321 18.2412L30.8017 19.3551C30.9718 19.4235 31.2929 19.2491 31.4307 19.0655L31.9473 18.4225C32.0622 18.2043 31.9749 17.824 31.8219 17.7535ZM22.7168 14.9552H20.7249C20.5801 14.2969 20.3013 13.6891 19.9183 13.1614L21.3144 11.7652C22.0358 12.6692 22.5324 13.7604 22.7168 14.9552ZM18.6018 11.9206C18.0542 11.5705 17.4319 11.3271 16.7634 11.2211V9.24698C17.9691 9.38173 19.0789 9.8316 20.0096 10.5129L18.6018 11.9206ZM18.3593 16C18.3593 17.303 17.3031 18.3594 15.9999 18.3594C14.6969 18.3594 13.6406 17.303 13.6406 16C13.6406 14.697 14.6969 13.6406 15.9999 13.6406C17.3031 13.6406 18.3593 14.697 18.3593 16ZM14.9552 9.2831V11.275C14.2968 11.42 13.6891 11.6987 13.1614 12.0816L11.7652 10.6855C12.6693 9.9641 13.7603 9.46748 14.9552 9.2831ZM11.9206 13.3981C11.5706 13.9459 11.3271 14.5681 11.2212 15.2365H9.24695C9.38182 14.0309 9.8317 12.921 10.5128 11.9904L11.9206 13.3981ZM9.2832 17.0447H11.2751C11.4199 17.7031 11.6987 18.3109 12.0817 18.8386L10.6854 20.2347C9.9642 19.3307 9.46757 18.2396 9.2832 17.0447ZM13.3981 20.0794C13.9458 20.4295 14.5681 20.6729 15.2364 20.7789V22.753C14.0309 22.6182 12.9209 22.1684 11.9904 21.4871L13.3981 20.0794ZM17.0448 22.7169V20.725C17.7031 20.58 18.3109 20.3012 18.8386 19.9184L20.2347 21.3145C19.3307 22.0358 18.2396 22.5325 17.0448 22.7169ZM20.0794 18.6019C20.4294 18.0541 20.6728 17.4319 20.7788 16.7635H22.7531C22.6182 17.9691 22.1683 19.079 21.4872 20.0096L20.0794 18.6019Z" fill="#E16426"/>
</g>
<defs>
<clipPath id="clip0_7849_6261">
<rect width="32" height="32" fill="white"/>
</clipPath>
</defs>
</svg>
