<svg width="33" height="32" viewBox="0 0 33 32" fill="none" xmlns="http://www.w3.org/2000/svg">
<g clip-path="url(#clip0_7849_6326)">
<path d="M32.7106 17.7535L28.7717 15.8507L32.5031 14.1056C32.7925 13.9699 32.9624 13.6119 32.7622 13.2781L32.3745 12.8292C32.1242 12.5556 31.8525 12.356 31.5224 12.4859L28.7501 13.5309C28.6896 13.5536 28.6232 13.5565 28.561 13.5389L27.4879 13.2349C27.4082 13.2124 27.3227 13.2335 27.2627 13.2904L26.1149 14.38C25.8576 12.9051 25.2581 11.5479 24.3972 10.3961L26.0754 10.383C26.1476 10.3824 26.214 10.3429 26.2489 10.2795L26.8429 9.2021C26.8737 9.14598 26.9226 9.10185 26.9815 9.07685L29.7275 7.90598C29.8961 7.8341 29.9999 7.48373 29.9675 7.25648L29.8781 6.43648C29.8051 6.20098 29.4745 5.99373 29.3164 6.0521L25.1857 7.49185L26.5902 3.61935C26.6989 3.31873 26.5659 2.9456 26.1884 2.85098L25.5967 2.80785C25.2262 2.79135 24.893 2.84223 24.7514 3.1676L23.53 5.86673C23.5034 5.9256 23.4585 5.97448 23.402 6.0061L22.4282 6.54998C22.356 6.59035 22.3105 6.66573 22.3082 6.74835L22.267 8.3311C21.0922 7.5056 19.7202 6.94285 18.2346 6.72898L19.4127 5.53223C19.4635 5.4806 19.4825 5.40573 19.4624 5.33635L19.1205 4.15448C19.1027 4.09298 19.106 4.02723 19.1299 3.96785L20.2437 1.19823C20.3122 1.02823 20.1379 0.706977 19.9541 0.569227L19.3112 0.0526017C19.093 -0.0621482 18.7126 0.0249767 18.6421 0.177977L16.7394 4.11698L14.9942 0.385602C14.8585 0.0961018 14.5006 -0.0736483 14.1667 0.126352L13.7179 0.514227C13.4442 0.764477 13.2446 1.0361 13.3746 1.36635L14.4195 4.13848C14.4424 4.1991 14.4451 4.26535 14.4275 4.3276L14.1236 5.40085C14.101 5.48035 14.1221 5.56585 14.1791 5.62585L15.2686 6.77373C13.7937 7.0311 12.4365 7.63048 11.2849 8.49135L11.2716 6.81335C11.2711 6.74098 11.2315 6.67473 11.1682 6.63973L10.0907 6.04573C10.0347 6.01485 9.99062 5.9661 9.96549 5.90723L8.79474 3.1611C8.72287 2.99248 8.37249 2.88873 8.14512 2.92123L7.32512 3.01048C7.08974 3.0836 6.88237 3.41423 6.94074 3.57223L8.38062 7.70298L4.50812 6.29848C4.20737 6.18973 3.83424 6.32285 3.73962 6.70035L3.69649 7.29198C3.67999 7.66235 3.73087 7.99573 4.05624 8.13723L6.75537 9.3586C6.81437 9.38535 6.86324 9.43023 6.89474 9.48673L7.43874 10.4605C7.47899 10.5326 7.55449 10.5782 7.63712 10.5804L9.21974 10.6216C8.39437 11.7964 7.83149 13.1684 7.61774 14.654L6.42087 13.4759C6.36937 13.4251 6.29449 13.4062 6.22499 13.4262L5.04312 13.7681C4.98162 13.786 4.91599 13.7826 4.85662 13.7587L2.08699 12.6449C1.91687 12.5765 1.59574 12.7509 1.45799 12.9345L0.941244 13.5775C0.826494 13.7956 0.913744 14.176 1.06674 14.2465L5.00562 16.1492L1.27424 17.8944C0.984744 18.0301 0.814994 18.3881 1.01499 18.7219L1.40287 19.1707C1.65312 19.4444 1.92487 19.644 2.25499 19.5141L5.02724 18.4691C5.08774 18.4463 5.15399 18.4435 5.21637 18.4611L6.28949 18.7651C6.36899 18.7876 6.45462 18.7665 6.51462 18.7096L7.66249 17.62C7.91974 19.0948 8.51924 20.4521 9.38012 21.6039L7.70199 21.617C7.62974 21.6176 7.56337 21.6571 7.52849 21.7205L6.93449 22.7979C6.90349 22.854 6.85474 22.898 6.79587 22.9232L4.04987 24.094C3.88124 24.1659 3.77737 24.5162 3.80987 24.7435L3.89912 25.5635C3.97224 25.799 4.30287 26.0062 4.46099 25.9478L8.59162 24.5081L7.18712 28.3806C7.07849 28.6812 7.21149 29.0544 7.58899 29.149L8.18062 29.1921C8.55099 29.2086 8.88437 29.1577 9.02587 28.8323L10.2472 26.1332C10.274 26.0743 10.3189 26.0255 10.3754 25.9939L11.3491 25.45C11.4212 25.4096 11.4669 25.3342 11.469 25.2516L11.5104 23.6689C12.6851 24.4944 14.057 25.0571 15.5427 25.271L14.3645 26.4677C14.3139 26.5194 14.2949 26.5942 14.315 26.6636L14.6569 27.8455C14.6746 27.907 14.6712 27.9727 14.6474 28.0321L13.5335 30.8017C13.4651 30.9717 13.6395 31.293 13.8232 31.4307L14.4661 31.9473C14.6842 32.0621 15.0646 31.975 15.1352 31.822L17.0379 27.883L18.7831 31.6143C18.9189 31.9038 19.2767 32.0736 19.6106 31.8736L20.0594 31.4857C20.333 31.2355 20.5327 30.9637 20.4027 30.6336L19.3579 27.8615C19.335 27.8009 19.3322 27.7346 19.3499 27.6724L19.6537 26.5991C19.6762 26.5196 19.6551 26.4341 19.5982 26.3741L18.5087 25.2261C19.9835 24.9688 21.3409 24.3695 22.4925 23.5085L22.5057 25.1867C22.5062 25.259 22.5459 25.3254 22.6091 25.3602L23.6866 25.9542C23.7426 25.9851 23.7867 26.0339 23.8119 26.0927L24.9826 28.8389C25.0545 29.0075 25.4049 29.1112 25.6322 29.0787L26.4521 28.9895C26.6876 28.9164 26.8949 28.5857 26.8366 28.4277L25.3967 24.297L29.2692 25.7015C29.57 25.8102 29.9431 25.6771 30.0377 25.2996L30.0809 24.708C30.0974 24.3376 30.0464 24.0042 29.7211 23.8627L27.022 22.6414C26.963 22.6146 26.9141 22.5697 26.8825 22.5132L26.3386 21.5395C26.2982 21.4674 26.2229 21.4217 26.1402 21.4196L24.5575 21.3783C25.383 20.2036 25.9457 18.8316 26.1596 17.346L27.3565 18.5241C27.408 18.5749 27.4829 18.5937 27.5522 18.5737L28.7342 18.2319C28.7956 18.214 28.8614 18.2174 28.9207 18.2412L31.6904 19.3551C31.8605 19.4235 32.1816 19.2491 32.3194 19.0655L32.836 18.4225C32.9509 18.2043 32.8636 17.824 32.7106 17.7535ZM23.6055 14.9552H21.6136C21.4687 14.2969 21.19 13.6891 20.807 13.1614L22.2031 11.7652C22.9245 12.6692 23.4211 13.7604 23.6055 14.9552ZM19.4905 11.9206C18.9429 11.5705 18.3206 11.3271 17.6521 11.2211V9.24698C18.8577 9.38173 19.9676 9.8316 20.8982 10.5129L19.4905 11.9206ZM19.248 16C19.248 17.303 18.1917 18.3594 16.8886 18.3594C15.5856 18.3594 14.5292 17.303 14.5292 16C14.5292 14.697 15.5856 13.6406 16.8886 13.6406C18.1917 13.6406 19.248 14.697 19.248 16ZM15.8439 9.2831V11.275C15.1855 11.42 14.5777 11.6987 14.0501 12.0816L12.6539 10.6855C13.558 9.9641 14.649 9.46748 15.8439 9.2831ZM12.8092 13.3981C12.4592 13.9459 12.2157 14.5681 12.1099 15.2365H10.1356C10.2705 14.0309 10.7204 12.921 11.4015 11.9904L12.8092 13.3981ZM10.1719 17.0447H12.1637C12.3086 17.7031 12.5874 18.3109 12.9704 18.8386L11.5741 20.2347C10.8529 19.3307 10.3562 18.2396 10.1719 17.0447ZM14.2867 20.0794C14.8345 20.4295 15.4567 20.6729 16.1251 20.7789V22.753C14.9196 22.6182 13.8096 22.1684 12.8791 21.4871L14.2867 20.0794ZM17.9335 22.7169V20.725C18.5917 20.58 19.1996 20.3012 19.7272 19.9184L21.1234 21.3145C20.2194 22.0358 19.1282 22.5325 17.9335 22.7169ZM20.9681 18.6019C21.3181 18.0541 21.5615 17.4319 21.6675 16.7635H23.6417C23.5069 17.9691 23.057 19.079 22.3759 20.0096L20.9681 18.6019Z" fill="#E16426"/>
</g>
<defs>
<clipPath id="clip0_7849_6326">
<rect width="32" height="32" fill="white" transform="translate(0.888672)"/>
</clipPath>
</defs>
</svg>
