<svg xmlns="http://www.w3.org/2000/svg" width="35" height="36" fill="none"><g clip-path="url(#a)"><path fill="#1A1A1A" d="M34.516 8.214c.013.047.02.096.02.146v7.68a.563.563 0 0 1-.28.486l-6.405 3.711v7.357c0 .2-.106.384-.278.485l-13.37 7.746c-.03.018-.064.03-.098.041-.012.004-.024.012-.037.015a.556.556 0 0 1-.285 0c-.016-.004-.03-.012-.044-.018-.03-.011-.063-.02-.092-.038L.28 28.08a.559.559 0 0 1-.28-.486V4.553c0-.05.007-.1.02-.147.004-.016.013-.031.019-.047.01-.03.02-.06.035-.087.01-.018.026-.033.039-.05.016-.022.03-.045.05-.065.015-.016.036-.028.054-.042.02-.017.038-.035.061-.048L6.963.194a.555.555 0 0 1 .556 0l6.684 3.873h.002c.022.014.04.031.061.047.018.014.038.027.054.042.02.02.034.044.05.066.012.017.028.032.038.05.016.028.025.057.036.087.006.016.015.03.02.047.012.048.019.097.019.147v14.39l5.57-3.227V8.36a.57.57 0 0 1 .02-.145c.004-.017.013-.032.019-.048.01-.03.02-.06.036-.087.01-.018.026-.033.038-.05.016-.022.03-.045.05-.065.016-.016.036-.028.054-.042.02-.016.039-.035.061-.048l6.686-3.873a.554.554 0 0 1 .556 0l6.684 3.873c.024.014.042.032.063.048.017.014.037.026.053.042.02.02.034.043.05.066.013.016.028.031.038.05.016.027.025.057.036.086.006.016.015.03.02.048Zm-1.094 7.502V9.33l-2.34 1.356-3.23 1.872v6.387l5.57-3.228ZM26.738 27.27v-6.39l-3.179 1.826-9.077 5.214v6.451l12.256-7.1ZM1.114 5.522V27.27l12.254 7.1v-6.45l-6.402-3.646h-.002l-.002-.002c-.022-.013-.04-.031-.06-.047-.018-.014-.038-.025-.053-.04l-.002-.002c-.018-.018-.03-.04-.045-.059-.014-.019-.031-.035-.042-.055v-.002c-.013-.02-.021-.046-.03-.07-.01-.02-.02-.04-.026-.063-.007-.026-.009-.055-.012-.082-.002-.021-.008-.042-.008-.063V8.75l-3.23-1.873-2.34-1.355Zm6.128-4.196-5.57 3.227L7.24 7.779l5.569-3.227L7.24 1.326h.002Zm2.896 20.135 3.23-1.872V5.522L11.03 6.877 7.798 8.75v14.067l2.34-1.356ZM27.295 5.134 21.726 8.36l5.569 3.226 5.567-3.227-5.567-3.225Zm-.557 7.423-3.232-1.872-2.339-1.356v6.387l3.23 1.872 2.34 1.356v-6.387ZM13.925 26.95l8.167-4.693 4.083-2.345-5.564-3.224-6.407 3.712-5.839 3.383 5.56 3.166Z"/></g><defs><clipPath id="a"><path fill="#fff" d="M0 0h34.597v36H0z"/></clipPath></defs></svg>