<svg width="36" height="36" viewBox="0 0 36 36" fill="none" xmlns="http://www.w3.org/2000/svg">
<path d="M17.6405 0C25.6335 0 31.223 2.88413 31.223 5.46877C31.223 8.05341 25.6335 10.9375 17.6417 10.9375C9.64871 10.9375 4.05788 8.05341 4.05788 5.46877C4.05914 2.88413 9.58705 0 17.6405 0ZM17.9425 29.4478C13.6163 30.4696 9.10888 31.5518 6.2235 33.4745C4.78143 32.5735 4 31.5518 4 30.5891C4 26.2629 11.2116 24.6397 18.1828 23.0768C23.2313 21.9355 28.3402 20.7942 31.2243 18.4499V22.2362C31.2243 26.2629 24.4934 27.8862 17.9425 29.4478ZM17.7034 20.7942C12.4133 21.9959 7.00493 23.1976 4 25.7822V24.9404C4 17.4281 12.2334 15.5053 20.2264 13.643C25.9959 12.2601 28.8209 11.5994 31.2243 9.67542V13.8833C31.2243 17.7288 24.3135 19.2917 17.7021 20.7942H17.7034ZM31.2243 26.9236C28.3993 29.327 23.3508 30.53 18.4836 31.6713C14.9375 32.5144 11.3311 33.355 8.80688 34.6158C11.0908 35.4589 14.1548 36 17.6417 36C25.5743 36 31.2243 33.1738 31.2243 30.53V26.9236Z" fill="#4E7BF7"/>
</svg>
