<svg width="36" height="36" viewBox="0 0 36 36" fill="none" xmlns="http://www.w3.org/2000/svg">
<g clip-path="url(#clip0_23609_921)">
<mask id="mask0_23609_921" style="mask-type:luminance" maskUnits="userSpaceOnUse" x="-1" y="3" width="37" height="31">
<path d="M35.999 3H-0.000976562V33.0896H35.999V3Z" fill="white"/>
</mask>
<g mask="url(#mask0_23609_921)">
<path opacity="0.7" d="M36.2211 2.78939V7.19702L36.2146 33.292H29.1348V5.35581L31.3537 3.09635C31.4474 2.99507 31.5618 2.91522 31.6892 2.86224C31.8165 2.80926 31.9538 2.78439 32.0917 2.78939H36.2211Z" fill="currentColor"/>
<path opacity="0.7" fill-rule="evenodd" clip-rule="evenodd" d="M25.393 23.3643C24.8935 22.7238 24.3953 22.085 23.9063 21.5961C23.0018 20.6947 22.1036 19.7869 21.2062 18.8799C20.7583 18.4273 20.3106 17.9747 19.8623 17.5233V14.3839L19.8638 14.3774C19.8598 14.2395 19.8856 14.1024 19.9394 13.9755C19.9752 13.891 20.0229 13.8123 20.0807 13.7418L26.9441 7.16669V7.51777V24.3224C26.9437 24.346 26.9445 24.4279 26.9456 24.5328C26.9481 24.7763 26.952 25.1444 26.9441 25.1988C26.4316 24.696 25.9116 24.0292 25.393 23.3643Z" fill="currentColor"/>
<path d="M-0.108398 10.9351V20.839L12.3877 33.292H22.3252L-0.108398 10.9351Z" fill="currentColor"/>
<path d="M-0.108398 33.292H9.07681L-0.108398 24.1404V33.292Z" fill="currentColor"/>
<path d="M25.6751 33.292H35.5151L5.83793 3.09664C5.74427 2.99546 5.62983 2.91567 5.50248 2.86275C5.37514 2.80982 5.23785 2.785 5.10009 2.79H-0.0986328V7.19307L25.6751 33.292Z" fill="currentColor"/>
</g>
</g>
<defs>
<clipPath id="clip0_23609_921">
<rect width="36" height="36" fill="white"/>
</clipPath>
</defs>
</svg>
