<svg width="36" height="36" viewBox="0 0 36 36" fill="none" xmlns="http://www.w3.org/2000/svg">
<mask id="mask0_7688_10691" style="mask-type:luminance" maskUnits="userSpaceOnUse" x="0" y="3" width="36" height="31">
<path d="M36 3H0V33.0896H36V3Z" fill="white"/>
</mask>
<g mask="url(#mask0_7688_10691)">
<path opacity="0.7" d="M36.2192 2.78969V7.19733L36.2126 33.2923H29.1328V5.35611L31.3517 3.09666C31.4454 2.99537 31.5599 2.91553 31.6872 2.86255C31.8146 2.80957 31.9519 2.78469 32.0898 2.78969H36.2192Z" fill="#472F85"/>
<path opacity="0.7" fill-rule="evenodd" clip-rule="evenodd" d="M25.394 23.3656C24.8945 22.7251 24.3963 22.0863 23.9073 21.5974C23.0027 20.696 22.1046 19.7882 21.2072 18.8812C20.7593 18.4285 20.3116 17.976 19.8633 17.5246V14.3852L19.8648 14.3787C19.8608 14.2408 19.8865 14.1037 19.9404 13.9767C19.9762 13.8923 20.0238 13.8136 20.0817 13.7431L26.9451 7.16797V7.51905V24.3237C26.9446 24.3473 26.9455 24.4292 26.9466 24.534C26.9491 24.7776 26.953 25.1457 26.9451 25.2C26.4325 24.6973 25.9126 24.0305 25.394 23.3656Z" fill="#472F85"/>
<path d="M-0.109375 10.9336V20.8375L12.3867 33.2905H22.3242L-0.109375 10.9336Z" fill="#472F85"/>
<path d="M-0.109375 33.2923H9.07584L-0.109375 24.1406V33.2923Z" fill="#472F85"/>
<path d="M25.6761 33.2917H35.5161L5.8389 3.09634C5.74525 2.99516 5.6308 2.91537 5.50346 2.86244C5.37612 2.80952 5.23883 2.78469 5.10106 2.78969H-0.0976562V7.19276L25.6761 33.2917Z" fill="#472F85"/>
</g>
</svg>
