<svg width="64" height="64" viewBox="0 0 64 64" fill="none" xmlns="http://www.w3.org/2000/svg">
<path d="M51.9834 12.5498L38.9405 5.04591C34.673 2.58463 29.4438 2.58463 25.1764 5.04591L12.0734 12.5498C7.86598 15.0111 5.22134 19.5735 5.22134 24.436V39.5039C5.22134 44.4264 7.86598 48.9288 12.0734 51.3901L25.1163 58.954C29.3837 61.4153 34.6129 61.4153 38.8804 58.954L51.9233 51.3901C56.1908 48.9288 58.7753 44.4264 58.7753 39.5039V24.436C58.8955 19.5735 56.2509 15.0111 51.9834 12.5498ZM32.0284 45.3869C24.6354 45.3869 18.6249 39.3838 18.6249 31.9999C18.6249 24.6161 24.6354 18.613 32.0284 18.613C39.4214 18.613 45.492 24.6161 45.492 31.9999C45.492 39.3838 39.4815 45.3869 32.0284 45.3869Z" fill="#F4F4F5"/>
</svg>
