<svg width="36" height="36" viewBox="0 0 36 36" fill="none" xmlns="http://www.w3.org/2000/svg">
<path d="M3 33.1551V3.41427C3.00185 2.69257 3.23176 1.98992 3.65688 1.40672C4.08199 0.823507 4.68057 0.389585 5.36707 0.166949C6.05358 -0.0556869 6.79288 -0.0556506 7.47937 0.167063C8.16584 0.389776 8.76437 0.823772 9.18941 1.40703L17.6515 13.0081C17.8318 13.266 17.9672 13.5526 18.052 13.8557C18.1364 14.2192 18.149 14.5957 18.0893 14.9641C18.0307 15.3333 17.8975 15.6865 17.698 16.0026C17.5023 16.3224 17.2461 16.6009 16.9436 16.8224C16.6386 17.0389 16.2959 17.1969 15.933 17.2881C15.7222 17.3363 15.5066 17.3614 15.2903 17.3625C15.1344 17.3619 14.9787 17.3494 14.8246 17.3254C14.4572 17.2657 14.1055 17.1327 13.7907 16.9341C13.5765 16.8042 13.3872 16.637 13.2319 16.4405L8.88203 10.3861V33.1644C8.85179 33.9241 8.52871 34.6427 7.98047 35.1696C7.43224 35.6965 6.70138 35.9906 5.94101 35.9906C5.18067 35.9906 4.44981 35.6965 3.90156 35.1696C3.35332 34.6427 3.03024 33.9241 3 33.1644V33.1551Z" fill="#10CBC8"/>
<path d="M33.0208 2.82629V32.567C33.0228 33.2904 32.7957 33.9958 32.3721 34.582C31.9484 35.1683 31.35 35.6052 30.6625 35.8302C29.9752 36.0552 29.2342 36.0566 28.5458 35.8344C27.8575 35.6121 27.2573 35.1775 26.8314 34.593L18.3692 22.9919C18.1889 22.734 18.0536 22.4474 17.9688 22.1443C17.8845 21.7807 17.8718 21.4043 17.9315 21.036C17.9901 20.6667 18.1233 20.3134 18.3227 19.9973C18.5184 19.6776 18.7747 19.3991 19.0771 19.1776C19.3821 18.9611 19.7248 18.8031 20.0877 18.7119C20.2987 18.6637 20.5141 18.6386 20.7304 18.6375C20.8863 18.6381 21.0421 18.6506 21.1961 18.6746C21.5636 18.7343 21.9152 18.8673 22.23 19.0659C22.4443 19.1958 22.6336 19.363 22.7889 19.5595L27.1387 25.6139V2.82629C27.1689 2.06654 27.492 1.34796 28.0403 0.821105C28.5885 0.294253 29.3194 0 30.0797 0C30.8401 0 31.571 0.294253 32.1192 0.821105C32.6674 1.34796 32.9905 2.06654 33.0208 2.82629Z" fill="#10CBC8"/>
</svg>
