<svg width="36" height="36" viewBox="0 0 36 36" fill="none" xmlns="http://www.w3.org/2000/svg">
<path fill-rule="evenodd" clip-rule="evenodd" d="M0 6.2069C0 2.77892 2.77892 0 6.2069 0H29.7931C33.2211 0 36 2.77892 36 6.2069V26.2669C36 29.8134 31.5122 31.3525 29.3356 28.5526L22.531 19.7992V30.4138C22.531 33.499 20.03 36 16.9448 36H6.2069C2.77892 36 0 33.2211 0 29.7931V6.2069ZM6.2069 4.96552C5.5213 4.96552 4.96552 5.5213 4.96552 6.2069V29.7931C4.96552 30.4787 5.5213 31.0345 6.2069 31.0345H17.131C17.4738 31.0345 17.5655 30.7566 17.5655 30.4138V16.1797C17.5655 12.6333 22.0533 11.0941 24.2299 13.894L31.0345 22.6474V6.2069C31.0345 5.5213 31.0994 4.96552 30.4138 4.96552H6.2069Z" fill="#18191B"/>
<path fill-rule="evenodd" clip-rule="evenodd" d="M0 6.2069C0 2.77892 2.77892 0 6.2069 0H29.7931C33.2211 0 36 2.77892 36 6.2069V26.2669C36 29.8134 31.5122 31.3525 29.3356 28.5526L22.531 19.7992V30.4138C22.531 33.499 20.03 36 16.9448 36H6.2069C2.77892 36 0 33.2211 0 29.7931V6.2069ZM6.2069 4.96552C5.5213 4.96552 4.96552 5.5213 4.96552 6.2069V29.7931C4.96552 30.4787 5.5213 31.0345 6.2069 31.0345H17.131C17.4738 31.0345 17.5655 30.7566 17.5655 30.4138V16.1797C17.5655 12.6333 22.0533 11.0941 24.2299 13.894L31.0345 22.6474V6.2069C31.0345 5.5213 31.0994 4.96552 30.4138 4.96552H6.2069Z" fill="#18191B"/>
<path d="M29.7931 0C33.2211 0 36 2.77892 36 6.2069V26.2669C36 29.8134 31.5122 31.3525 29.3356 28.5526L22.531 19.7992V30.4138C22.531 33.499 20.03 36 16.9448 36C17.2876 36 17.5655 35.7221 17.5655 35.3793V16.1797C17.5655 12.6333 22.0533 11.0941 24.2299 13.894L31.0345 22.6474V1.24138C31.0345 0.555784 30.4787 0 29.7931 0Z" fill="#18191B"/>
</svg>
