<svg width="36" height="36" viewBox="0 0 36 36" fill="none" xmlns="http://www.w3.org/2000/svg">
<path fill-rule="evenodd" clip-rule="evenodd" d="M0 6.2069C0 2.77892 2.77877 0 6.20655 0H29.7914C33.2192 0 35.998 2.77892 35.998 6.2069V26.2669C35.998 29.8134 31.5104 31.3525 29.334 28.5526L22.5298 19.7992V30.4138C22.5298 33.499 20.0289 36 16.9439 36H6.20655C2.77877 36 0 33.2211 0 29.7931V6.2069ZM6.20655 4.96552C5.52099 4.96552 4.96524 5.5213 4.96524 6.2069V29.7931C4.96524 30.4787 5.52099 31.0345 6.20655 31.0345H17.1301C17.4728 31.0345 17.5645 30.7566 17.5645 30.4138V16.1797C17.5645 12.6333 22.0521 11.0941 24.2285 13.894L31.0327 22.6474V6.2069C31.0327 5.5213 31.0976 4.96552 30.4121 4.96552H6.20655Z" fill="#00E0D9"/>
<path fill-rule="evenodd" clip-rule="evenodd" d="M0 6.2069C0 2.77892 2.77877 0 6.20655 0H29.7914C33.2192 0 35.998 2.77892 35.998 6.2069V26.2669C35.998 29.8134 31.5104 31.3525 29.334 28.5526L22.5298 19.7992V30.4138C22.5298 33.499 20.0289 36 16.9439 36H6.20655C2.77877 36 0 33.2211 0 29.7931V6.2069ZM6.20655 4.96552C5.52099 4.96552 4.96524 5.5213 4.96524 6.2069V29.7931C4.96524 30.4787 5.52099 31.0345 6.20655 31.0345H17.1301C17.4728 31.0345 17.5645 30.7566 17.5645 30.4138V16.1797C17.5645 12.6333 22.0521 11.0941 24.2285 13.894L31.0327 22.6474V6.2069C31.0327 5.5213 31.0976 4.96552 30.4121 4.96552H6.20655Z" fill="url(#paint0_linear_7800_10542)"/>
<path fill-rule="evenodd" clip-rule="evenodd" d="M0 6.2069C0 2.77892 2.77877 0 6.20655 0H29.7914C33.2192 0 35.998 2.77892 35.998 6.2069V26.2669C35.998 29.8134 31.5104 31.3525 29.334 28.5526L22.5298 19.7992V30.4138C22.5298 33.499 20.0289 36 16.9439 36H6.20655C2.77877 36 0 33.2211 0 29.7931V6.2069ZM6.20655 4.96552C5.52099 4.96552 4.96524 5.5213 4.96524 6.2069V29.7931C4.96524 30.4787 5.52099 31.0345 6.20655 31.0345H17.1301C17.4728 31.0345 17.5645 30.7566 17.5645 30.4138V16.1797C17.5645 12.6333 22.0521 11.0941 24.2285 13.894L31.0327 22.6474V6.2069C31.0327 5.5213 31.0976 4.96552 30.4121 4.96552H6.20655Z" fill="url(#paint1_linear_7800_10542)" fill-opacity="0.4"/>
<path d="M29.7929 0C33.2206 0 35.9994 2.77892 35.9994 6.2069V26.2669C35.9994 29.8134 31.5119 31.3525 29.3354 28.5526L22.5312 19.7992V30.4138C22.5312 33.499 20.0303 36 16.9453 36C17.2881 36 17.566 35.7221 17.566 35.3793V16.1797C17.566 12.6333 22.0535 11.0941 24.23 13.894L31.0342 22.6474V1.24138C31.0342 0.555784 30.4784 0 29.7929 0Z" fill="#63F655"/>
<defs>
<linearGradient id="paint0_linear_7800_10542" x1="35.998" y1="36" x2="4.34259" y2="0.0017786" gradientUnits="userSpaceOnUse">
<stop stop-color="#62F755"/>
<stop offset="1" stop-color="#8FF986" stop-opacity="0"/>
</linearGradient>
<linearGradient id="paint1_linear_7800_10542" x1="35.998" y1="36" x2="14.6161" y2="27.6836" gradientUnits="userSpaceOnUse">
<stop stop-opacity="0.9"/>
<stop offset="1" stop-color="#1A1A1A" stop-opacity="0"/>
</linearGradient>
</defs>
</svg>
