<svg width="36" height="36" viewBox="0 0 36 36" fill="none" xmlns="http://www.w3.org/2000/svg">
<g clip-path="url(#clip0_27768_1768)">
<path d="M32.5026 18.1117C33.5719 18.1117 34.1066 18.1117 34.5297 17.941C35.1213 17.7022 35.5905 17.2331 35.8292 16.6414C36 16.2183 36 15.6837 36 14.6144V7.73414C36 5.5188 36 4.41112 35.3118 3.7229C34.6236 3.03467 33.5159 3.03467 31.3005 3.03467H27.0417C23.6272 3.03467 21.92 3.03467 21.2315 4.151C20.5431 5.26732 21.3095 6.79283 22.8424 9.84389L25.7706 15.6724C26.2815 16.6893 25.5422 17.8881 24.4041 17.8881C23.826 17.8881 23.2972 17.562 23.0377 17.0454L17.2999 5.62452C16.6667 4.36434 16.3502 3.73426 15.7831 3.38451C15.216 3.03476 14.5108 3.03476 13.1005 3.03476H11.6944C9.47901 3.03476 8.37132 3.03476 7.68309 3.72298C6.9949 4.41121 6.9949 5.51889 6.9949 7.73425V14.3907C6.9949 15.46 6.9949 15.9947 6.82408 16.4179C6.58532 17.0095 6.11621 17.4786 5.52461 17.7174C5.10144 17.8882 4.56677 17.8882 3.49744 17.8882C2.42811 17.8882 1.89344 17.8882 1.47029 18.059C0.878666 18.2977 0.40957 18.7668 0.170785 19.3585C0 19.7816 0 20.3163 0 21.3856V28.2658C0 30.4811 0 31.5888 0.688226 32.277C1.37645 32.9652 2.48412 32.9652 4.69946 32.9652H8.95833C12.3728 32.9652 14.08 32.9652 14.7685 31.8489C15.4569 30.7326 14.6905 29.2071 13.1577 26.156L10.2294 20.3275C9.71854 19.3106 10.4578 18.1118 11.5959 18.1118C12.174 18.1118 12.7028 18.4379 12.9623 18.9545L18.7001 30.3754C19.3333 31.6356 19.6498 32.2657 20.2169 32.6154C20.7841 32.9651 21.4892 32.9651 22.8995 32.9651H24.3056C26.521 32.9651 27.6287 32.9651 28.3169 32.2769C29.0052 31.5887 29.0052 30.481 29.0052 28.2657V21.6092C29.0052 20.5399 29.0052 20.0052 29.1759 19.582C29.4147 18.9904 29.8838 18.5213 30.4754 18.2826C30.8986 18.1117 31.4332 18.1117 32.5026 18.1117Z" fill="#18191B"/>
<path d="M32.5026 18.1117C33.5719 18.1117 34.1066 18.1117 34.5297 17.941C35.1213 17.7022 35.5905 17.2331 35.8292 16.6414C36 16.2183 36 15.6837 36 14.6144V7.73414C36 5.5188 36 4.41112 35.3118 3.7229C34.6236 3.03467 33.5159 3.03467 31.3005 3.03467H27.0417C23.6272 3.03467 21.92 3.03467 21.2315 4.151C20.5431 5.26732 21.3095 6.79283 22.8424 9.84389L25.7706 15.6724C26.2815 16.6893 25.5422 17.8881 24.4041 17.8881C23.826 17.8881 23.2972 17.562 23.0377 17.0454L17.2999 5.62452C16.6667 4.36434 16.3502 3.73426 15.7831 3.38451C15.216 3.03476 14.5108 3.03476 13.1005 3.03476H11.6944C9.47901 3.03476 8.37132 3.03476 7.68309 3.72298C6.9949 4.41121 6.9949 5.51889 6.9949 7.73425V14.3907C6.9949 15.46 6.9949 15.9947 6.82408 16.4179C6.58532 17.0095 6.11621 17.4786 5.52461 17.7174C5.10144 17.8882 4.56677 17.8882 3.49744 17.8882C2.42811 17.8882 1.89344 17.8882 1.47029 18.059C0.878666 18.2977 0.40957 18.7668 0.170785 19.3585C0 19.7816 0 20.3163 0 21.3856V28.2658C0 30.4811 0 31.5888 0.688226 32.277C1.37645 32.9652 2.48412 32.9652 4.69946 32.9652H8.95833C12.3728 32.9652 14.08 32.9652 14.7685 31.8489C15.4569 30.7326 14.6905 29.2071 13.1577 26.156L10.2294 20.3275C9.71854 19.3106 10.4578 18.1118 11.5959 18.1118C12.174 18.1118 12.7028 18.4379 12.9623 18.9545L18.7001 30.3754C19.3333 31.6356 19.6498 32.2657 20.2169 32.6154C20.7841 32.9651 21.4892 32.9651 22.8995 32.9651H24.3056C26.521 32.9651 27.6287 32.9651 28.3169 32.2769C29.0052 31.5887 29.0052 30.481 29.0052 28.2657V21.6092C29.0052 20.5399 29.0052 20.0052 29.1759 19.582C29.4147 18.9904 29.8838 18.5213 30.4754 18.2826C30.8986 18.1117 31.4332 18.1117 32.5026 18.1117Z" fill="#18191B"/>
</g>
<defs>
<clipPath id="clip0_27768_1768">
<rect width="36" height="36" fill="white"/>
</clipPath>
</defs>
</svg>
