<svg width="36" height="36" viewBox="0 0 36 36" fill="none" xmlns="http://www.w3.org/2000/svg">
<path d="M32.5026 18.1122C33.5719 18.1122 34.1066 18.1122 34.5297 17.9414C35.1213 17.7027 35.5905 17.2336 35.8292 16.6419C36 16.2188 36 15.6842 36 14.6149V7.73463C36 5.51929 36 4.41161 35.3118 3.72338C34.6236 3.03516 33.5159 3.03516 31.3005 3.03516H27.0417C23.6272 3.03516 21.92 3.03516 21.2315 4.15148C20.5431 5.26781 21.3095 6.79332 22.8424 9.84438L25.7706 15.6728C26.2815 16.6898 25.5422 17.8886 24.4041 17.8886C23.826 17.8886 23.2972 17.5625 23.0377 17.0459L17.2999 5.62501C16.6667 4.36483 16.3502 3.73475 15.7831 3.385C15.216 3.03525 14.5108 3.03525 13.1005 3.03525H11.6944C9.47901 3.03525 8.37132 3.03525 7.68309 3.72347C6.9949 4.4117 6.9949 5.51938 6.9949 7.73474V14.3912C6.9949 15.4605 6.9949 15.9952 6.82408 16.4184C6.58532 17.01 6.11621 17.4791 5.52461 17.7178C5.10144 17.8887 4.56677 17.8887 3.49744 17.8887C2.42811 17.8887 1.89344 17.8887 1.47029 18.0594C0.878666 18.2982 0.40957 18.7673 0.170785 19.359C0 19.7821 0 20.3168 0 21.3861V28.2663C0 30.4816 0 31.5893 0.688226 32.2775C1.37645 32.9657 2.48412 32.9657 4.69946 32.9657H8.95833C12.3728 32.9657 14.08 32.9657 14.7685 31.8494C15.4569 30.7331 14.6905 29.2076 13.1577 26.1565L10.2294 20.328C9.71854 19.3111 10.4578 18.1123 11.5959 18.1123C12.174 18.1123 12.7028 18.4384 12.9623 18.955L18.7001 30.3759C19.3333 31.6361 19.6498 32.2662 20.2169 32.6159C20.7841 32.9656 21.4892 32.9656 22.8995 32.9656H24.3056C26.521 32.9656 27.6287 32.9656 28.3169 32.2774C29.0052 31.5892 29.0052 30.4815 29.0052 28.2661V21.6097C29.0052 20.5404 29.0052 20.0057 29.1759 19.5825C29.4147 18.9909 29.8838 18.5218 30.4754 18.283C30.8986 18.1122 31.4332 18.1122 32.5026 18.1122Z" fill="white"/>
<path d="M32.5026 18.1122C33.5719 18.1122 34.1066 18.1122 34.5297 17.9414C35.1213 17.7027 35.5905 17.2336 35.8292 16.6419C36 16.2188 36 15.6842 36 14.6149V7.73463C36 5.51929 36 4.41161 35.3118 3.72338C34.6236 3.03516 33.5159 3.03516 31.3005 3.03516H27.0417C23.6272 3.03516 21.92 3.03516 21.2315 4.15148C20.5431 5.26781 21.3095 6.79332 22.8424 9.84438L25.7706 15.6728C26.2815 16.6898 25.5422 17.8886 24.4041 17.8886C23.826 17.8886 23.2972 17.5625 23.0377 17.0459L17.2999 5.62501C16.6667 4.36483 16.3502 3.73475 15.7831 3.385C15.216 3.03525 14.5108 3.03525 13.1005 3.03525H11.6944C9.47901 3.03525 8.37132 3.03525 7.68309 3.72347C6.9949 4.4117 6.9949 5.51938 6.9949 7.73474V14.3912C6.9949 15.4605 6.9949 15.9952 6.82408 16.4184C6.58532 17.01 6.11621 17.4791 5.52461 17.7178C5.10144 17.8887 4.56677 17.8887 3.49744 17.8887C2.42811 17.8887 1.89344 17.8887 1.47029 18.0594C0.878666 18.2982 0.40957 18.7673 0.170785 19.359C0 19.7821 0 20.3168 0 21.3861V28.2663C0 30.4816 0 31.5893 0.688226 32.2775C1.37645 32.9657 2.48412 32.9657 4.69946 32.9657H8.95833C12.3728 32.9657 14.08 32.9657 14.7685 31.8494C15.4569 30.7331 14.6905 29.2076 13.1577 26.1565L10.2294 20.328C9.71854 19.3111 10.4578 18.1123 11.5959 18.1123C12.174 18.1123 12.7028 18.4384 12.9623 18.955L18.7001 30.3759C19.3333 31.6361 19.6498 32.2662 20.2169 32.6159C20.7841 32.9656 21.4892 32.9656 22.8995 32.9656H24.3056C26.521 32.9656 27.6287 32.9656 28.3169 32.2774C29.0052 31.5892 29.0052 30.4815 29.0052 28.2661V21.6097C29.0052 20.5404 29.0052 20.0057 29.1759 19.5825C29.4147 18.9909 29.8838 18.5218 30.4754 18.283C30.8986 18.1122 31.4332 18.1122 32.5026 18.1122Z" fill="white"/>
</svg>
