<svg width="32" height="32" viewBox="0 0 32 32" fill="none" xmlns="http://www.w3.org/2000/svg">
<path fill-rule="evenodd" clip-rule="evenodd" d="M18.8191 1C18.6002 1 18.397 1.04689 18.2095 1.10942C18.6081 1.37514 18.8269 1.72683 18.9363 2.12542C18.9441 2.18013 18.9597 2.2192 18.9676 2.27391C18.9754 2.3208 18.9832 2.3677 18.9832 2.41459C19.0145 3.10234 18.8034 3.18831 18.6549 3.59471C18.4283 4.11835 18.4908 4.68106 18.7644 5.13435C18.7878 5.18906 18.8191 5.25158 18.8581 5.30629C18.5612 3.32899 20.2102 3.03201 20.515 2.41459C20.5385 1.87533 20.093 1.51582 19.7413 1.26572C19.4052 1.06252 19.1004 1 18.8191 1ZM21.3044 1.44548C21.2731 1.62523 21.2965 1.57834 21.2887 1.67213C21.2809 1.73465 21.2809 1.8128 21.2731 1.87533C21.2575 1.93785 21.2419 2.00037 21.2184 2.0629C21.2028 2.12542 21.1793 2.18794 21.1559 2.25046C21.1246 2.31299 21.1012 2.3677 21.0699 2.43022C21.0465 2.46149 21.0309 2.49274 21.0074 2.52401C20.9918 2.54745 20.9761 2.5709 20.9605 2.59434C20.9214 2.64905 20.8824 2.70376 20.8433 2.75065C20.7964 2.79754 20.7573 2.85225 20.7026 2.89133V2.89916C20.6557 2.93823 20.6088 2.98513 20.5541 3.0242C20.39 3.14925 20.2024 3.24303 20.0305 3.36026C19.9758 3.39934 19.9211 3.4306 19.8742 3.4775C19.8195 3.51657 19.7726 3.55565 19.7257 3.60254C19.671 3.64943 19.6319 3.69633 19.585 3.75104C19.5459 3.79793 19.499 3.85263 19.4678 3.90734C19.4287 3.96205 19.3896 4.01676 19.3584 4.07147C19.3271 4.13399 19.3036 4.1887 19.2724 4.25122C19.2489 4.31374 19.2255 4.36845 19.2099 4.43097C19.1864 4.50131 19.1708 4.56384 19.1552 4.62636C19.1473 4.65764 19.1473 4.6967 19.1395 4.72796C19.1317 4.75923 19.1317 4.79048 19.1239 4.82175C19.1239 4.88427 19.1161 4.95461 19.1161 5.01713C19.1161 5.06402 19.1161 5.11091 19.1239 5.15781C19.1239 5.22033 19.1317 5.28285 19.1474 5.35319C19.1552 5.41571 19.1708 5.47824 19.1864 5.54076C19.2099 5.60329 19.2255 5.66581 19.249 5.72833C19.2646 5.76741 19.288 5.80649 19.3037 5.83775L17.5061 5.14218C17.2013 5.05621 16.9043 4.97805 16.5995 4.90771C16.4354 4.86864 16.2713 4.82956 16.1072 4.79048C15.6382 4.6967 15.1615 4.62636 14.6848 4.57947C14.6692 4.57947 14.6613 4.57164 14.6457 4.57164C14.1768 4.52475 13.7157 4.50131 13.2467 4.50131C12.9029 4.50131 12.559 4.51692 12.2229 4.54038C11.7462 4.57166 11.2694 4.63417 10.7927 4.71232C10.6755 4.72794 10.5582 4.7514 10.441 4.77485C10.1987 4.82173 9.96426 4.87644 9.73761 4.93115C9.62038 4.96243 9.50315 4.99368 9.38592 5.02494C9.26869 5.07183 9.15927 5.12654 9.04986 5.17343C8.96389 5.21251 8.87792 5.25158 8.79195 5.29066C8.77633 5.29849 8.76067 5.29849 8.75287 5.30628C8.67472 5.34536 8.60438 5.37662 8.53404 5.4157C8.5106 5.42352 8.49496 5.43131 8.47933 5.43914C8.39336 5.47822 8.3074 5.52511 8.23706 5.56419C8.18235 5.58763 8.12764 5.6189 8.08075 5.64234C8.0573 5.65796 8.02604 5.67362 8.01041 5.68142C7.94007 5.7205 7.86973 5.75957 7.80721 5.79865C7.73687 5.83773 7.67435 5.8768 7.61964 5.91588C7.56493 5.95496 7.51022 5.98622 7.46333 6.02529C7.4555 6.03312 7.44771 6.03312 7.43988 6.04091C7.39299 6.07219 7.33828 6.11125 7.29139 6.15033C7.29139 6.15033 7.28356 6.15816 7.27577 6.16595C7.2367 6.19723 7.19762 6.22847 7.15854 6.25973C7.14292 6.26756 7.12727 6.28318 7.11165 6.29101C7.07257 6.32228 7.0335 6.36135 6.99442 6.39261C6.98659 6.40823 6.97097 6.41606 6.96314 6.42388C6.91625 6.47078 6.86936 6.50985 6.82247 6.55674C6.81464 6.55674 6.81464 6.56457 6.80685 6.57236C6.75996 6.61144 6.71306 6.65833 6.66617 6.70523C6.65834 6.71305 6.65834 6.72084 6.65055 6.72084C6.61147 6.75992 6.5724 6.799 6.53332 6.84589C6.5177 6.86151 6.49424 6.87716 6.47861 6.89278C6.43954 6.93967 6.39264 6.98657 6.34575 7.03346C6.33792 7.04908 6.32231 7.05691 6.31448 7.07254C6.25195 7.13506 6.19725 7.19758 6.13472 7.26011C6.12689 7.26793 6.1191 7.27572 6.11128 7.28355C5.98623 7.41642 5.85337 7.54928 5.71269 7.66651C5.57201 7.79155 5.42352 7.90878 5.27503 8.01038C5.11872 8.1198 4.97023 8.21359 4.8061 8.30737C4.64979 8.39334 4.48567 8.47149 4.31373 8.54183C4.14961 8.61217 3.97767 8.6747 3.80573 8.7294C3.47748 8.79974 3.14142 8.9326 2.85225 8.95605C2.78973 8.95605 2.71939 8.97167 2.65687 8.97949C2.58653 8.99511 2.524 9.01077 2.46148 9.02639C2.39896 9.04983 2.33643 9.07328 2.27391 9.09673C2.21139 9.12017 2.14887 9.15143 2.08634 9.1827C2.03163 9.22177 1.96911 9.25304 1.9144 9.29211C1.8597 9.33119 1.80499 9.37808 1.75809 9.42497C1.70339 9.46405 1.64868 9.51876 1.60179 9.56565C1.55489 9.62036 1.508 9.66725 1.46892 9.72196C1.42985 9.78448 1.38295 9.83919 1.35169 9.90171C1.31262 9.95642 1.27354 10.0189 1.24228 10.0815C1.211 10.1518 1.17975 10.2143 1.15631 10.2847C1.13286 10.3472 1.10941 10.4175 1.08597 10.4879C1.07035 10.5504 1.05469 10.6129 1.04689 10.6754C1.04689 10.6833 1.03906 10.6911 1.03906 10.6989C1.02345 10.7692 1.02345 10.863 1.01562 10.9099C1.00779 10.9646 1 11.0115 1 11.0662C1 11.0975 1 11.1365 1.00783 11.1678C1.01565 11.2225 1.02345 11.2694 1.0391 11.3163C1.05472 11.3632 1.07038 11.4101 1.09381 11.457V11.4648C1.11725 11.5117 1.14852 11.5586 1.17978 11.6055C1.21105 11.6524 1.2423 11.6993 1.28138 11.7462C1.32045 11.7852 1.36735 11.8321 1.41424 11.8712C1.46113 11.9181 1.50803 11.9572 1.56273 11.9963C1.7503 12.1604 1.7972 12.2151 2.03947 12.3401C2.07855 12.3636 2.11763 12.3792 2.16452 12.4027C2.17235 12.4027 2.18014 12.4105 2.18797 12.4105C2.18797 12.4261 2.18797 12.4339 2.1958 12.4496C2.20362 12.5121 2.21924 12.5746 2.23487 12.6371C2.25049 12.7075 2.27395 12.77 2.2974 12.8247C2.32084 12.8716 2.33647 12.9185 2.35992 12.9654C2.36775 12.981 2.37554 12.9967 2.38337 13.0045C2.41464 13.067 2.44589 13.1217 2.47715 13.1764C2.51623 13.2311 2.55531 13.2858 2.59438 13.3405C2.63346 13.3874 2.68035 13.4421 2.72724 13.489C2.77414 13.5359 2.82103 13.575 2.87574 13.6219C2.87574 13.6219 2.88357 13.6297 2.89136 13.6297C2.93825 13.6688 2.98514 13.7079 3.03204 13.7391C3.08674 13.7782 3.14145 13.8095 3.20397 13.8407C3.25868 13.872 3.3212 13.9032 3.38373 13.9267C3.43062 13.9501 3.48533 13.9658 3.54004 13.9814C3.54786 13.9892 3.55565 13.9892 3.57131 13.997C3.60258 14.0049 3.64164 14.0126 3.67291 14.0205C3.64946 14.4425 3.64163 14.8411 3.70418 14.9818C3.77452 15.1381 4.1184 14.6613 4.46228 14.1143C4.41538 14.6535 4.38412 15.2866 4.46228 15.4741C4.54824 15.6695 5.01717 15.0599 5.42357 14.3878C10.9647 13.1061 16.0213 16.9356 16.5527 22.3439C16.4511 21.4998 15.4117 21.0309 14.9349 21.1481C14.7005 21.7265 14.3019 22.4689 13.661 22.93C13.7157 22.4142 13.6923 21.8828 13.5829 21.3669C13.4109 22.086 13.0749 22.7581 12.6137 23.3364C11.8713 23.3911 11.1288 23.0316 10.738 22.4924C10.7068 22.4689 10.699 22.422 10.6755 22.3908C10.6521 22.3361 10.6286 22.2814 10.613 22.2266C10.5896 22.1719 10.5739 22.1172 10.5661 22.0625C10.5583 22.0078 10.5583 21.9531 10.5583 21.8906C10.5583 21.8515 10.5583 21.8124 10.5583 21.7734C10.5661 21.7186 10.5817 21.6639 10.5974 21.6092C10.613 21.5545 10.6286 21.4998 10.6521 21.4451C10.6833 21.3904 10.7068 21.3357 10.7458 21.281C10.8787 20.9058 10.8787 20.601 10.6364 20.4213C10.5895 20.39 10.5426 20.3666 10.4879 20.3431C10.4567 20.3353 10.4176 20.3197 10.3863 20.3119C10.3629 20.304 10.3473 20.2962 10.3238 20.2884C10.2691 20.2728 10.2144 20.2571 10.1597 20.2493C10.105 20.2337 10.0503 20.2259 9.99557 20.2259C9.94086 20.2181 9.87834 20.2103 9.82363 20.2103C9.78455 20.2103 9.74547 20.2181 9.7064 20.2181C9.64388 20.2181 9.58917 20.2259 9.53446 20.2415C9.47975 20.2494 9.42505 20.2572 9.37034 20.2728C9.31563 20.2884 9.26092 20.3041 9.20621 20.3275C9.15151 20.351 9.10461 20.3744 9.0499 20.3979C9.00301 20.4213 8.95612 20.4526 8.90141 20.476C7.08042 21.664 8.16676 24.4462 9.40941 25.2512C8.94049 25.3372 8.46375 25.4388 8.33089 25.5404C8.32306 25.5482 8.31527 25.556 8.31527 25.556C8.65133 25.7592 9.00303 25.9312 9.37035 26.0796C9.87053 26.2438 10.402 26.3923 10.6364 26.4548V26.4626C11.2851 26.5955 11.9416 26.6424 12.6059 26.6033C16.0682 26.361 18.9051 23.7272 19.421 20.2572C19.4366 20.3275 19.4522 20.39 19.4679 20.4604C19.4913 20.6011 19.5226 20.7496 19.5382 20.898V20.9059C19.5538 20.9762 19.5616 21.0466 19.5695 21.1091V21.1404C19.5773 21.2107 19.5851 21.281 19.5851 21.3436C19.5929 21.4295 19.6007 21.5155 19.6007 21.6015V21.7265C19.6007 21.7656 19.6085 21.8125 19.6085 21.8516C19.6085 21.8985 19.6007 21.9453 19.6007 21.9922V22.1016C19.6007 22.1564 19.5929 22.2033 19.5929 22.258C19.5929 22.2892 19.5929 22.3205 19.585 22.3596C19.585 22.4143 19.5772 22.469 19.5772 22.5315C19.5694 22.5549 19.5694 22.5784 19.5694 22.6018C19.5616 22.6644 19.5538 22.7191 19.5459 22.7816C19.5459 22.805 19.5459 22.8285 19.5381 22.8519C19.5303 22.9301 19.5147 23.0004 19.5068 23.0786V23.0864V23.0942C19.4912 23.1646 19.4756 23.2427 19.4599 23.3131V23.3365C19.4443 23.4069 19.4287 23.4772 19.4131 23.5475C19.4131 23.5554 19.4052 23.571 19.4052 23.5788C19.3896 23.6491 19.374 23.7195 19.3505 23.7898V23.8133C19.3271 23.8914 19.3036 23.9618 19.288 24.0321C19.2802 24.0399 19.2802 24.0477 19.2802 24.0477C19.2567 24.1259 19.2333 24.204 19.2098 24.2822C19.1786 24.3603 19.1551 24.4307 19.1239 24.5088C19.0926 24.587 19.0692 24.6651 19.0379 24.7355C19.0066 24.8136 18.9754 24.884 18.9441 24.9621H18.9363C18.905 25.0325 18.8737 25.1106 18.8347 25.181C18.8268 25.2044 18.8191 25.22 18.8112 25.2357C18.8034 25.2435 18.8034 25.2513 18.7956 25.2591C18.2876 26.2829 17.5373 27.1817 16.5995 27.8851C16.537 27.9242 16.4744 27.9711 16.4119 28.0179C16.3963 28.0336 16.3728 28.0414 16.3572 28.057C16.3025 28.0961 16.2478 28.1352 16.1853 28.1743L16.2087 28.2211H16.2165C16.3259 28.2055 16.4354 28.1899 16.5448 28.1743H16.5526C16.7558 28.143 16.959 28.1039 17.1622 28.0648C17.2169 28.057 17.2794 28.0414 17.3341 28.0258C17.3732 28.0179 17.4045 28.0101 17.4436 28.0023C17.4983 27.9945 17.553 27.9789 17.6077 27.971C17.6546 27.9554 17.7015 27.9476 17.7484 27.932C18.5299 27.7444 19.288 27.4865 20.0148 27.1817C18.7722 28.8776 17.1075 30.2453 15.1615 31.1441C16.0602 31.0816 16.959 30.9331 17.8265 30.683C20.9761 29.7529 23.6255 27.635 25.2121 24.7823C24.8916 26.5877 24.1726 28.3071 23.1097 29.8077C23.8678 29.3075 24.5634 28.7291 25.1964 28.0726C26.9471 26.2438 28.096 23.9227 28.4867 21.4295C28.7525 22.6644 28.8306 23.9383 28.7134 25.1966C34.3561 17.3265 29.1823 9.16717 27.0174 7.01793C27.0096 7.00231 27.0018 6.99448 27.0018 6.97886C26.994 6.98668 26.994 6.98668 26.994 6.99447C26.994 6.98665 26.994 6.98665 26.9862 6.97886C26.9862 7.07264 26.9783 7.16642 26.9705 7.26021C26.9471 7.43996 26.9236 7.6119 26.8924 7.78384C26.8533 7.95578 26.8064 8.12772 26.7595 8.29966C26.7048 8.46378 26.6423 8.63572 26.5719 8.79984C26.5016 8.95615 26.4235 9.12027 26.3375 9.27658C26.2515 9.42508 26.1577 9.58138 26.0561 9.72206C25.9545 9.87056 25.8451 10.0112 25.7357 10.1441C25.6185 10.2848 25.4934 10.4098 25.3684 10.5349C25.2902 10.6052 25.2199 10.6677 25.1417 10.7302C25.0792 10.785 25.0245 10.8319 24.962 10.8866C24.8213 10.996 24.6806 11.0976 24.5243 11.1914C24.3758 11.2851 24.2195 11.3789 24.0632 11.4571C23.8991 11.5352 23.735 11.6056 23.5708 11.6759C23.4067 11.7384 23.2348 11.7931 23.0628 11.84C22.8909 11.8869 22.7111 11.926 22.5392 11.9573C22.3594 11.9885 22.1797 12.0042 22.0078 12.0198C21.8827 12.0276 21.7577 12.0354 21.6326 12.0354C21.4529 12.0354 21.2731 12.0198 21.1012 12.0041C20.9214 11.9885 20.7417 11.9651 20.5697 11.926C20.39 11.8947 20.218 11.8478 20.0461 11.7931H20.0383C20.2102 11.7775 20.3821 11.7618 20.5541 11.7306C20.7338 11.6993 20.9058 11.6603 21.0777 11.6134C21.2496 11.5665 21.4216 11.5118 21.5857 11.4492C21.7576 11.3867 21.9218 11.3086 22.0781 11.2304C22.2422 11.1523 22.3907 11.0663 22.547 10.9725C22.6955 10.8709 22.844 10.7693 22.9847 10.6599C23.1253 10.5505 23.2582 10.4332 23.3833 10.3082C23.5161 10.191 23.6333 10.0581 23.7506 9.92523C23.8678 9.78456 23.9772 9.64388 24.0788 9.5032C24.0944 9.47976 24.1101 9.4485 24.1257 9.42505C24.2039 9.3 24.282 9.17496 24.3524 9.04991C24.4383 8.8936 24.5165 8.73729 24.5868 8.57317C24.6572 8.40905 24.7197 8.24492 24.7744 8.07299C24.8291 7.90886 24.8682 7.73692 24.9073 7.56499C24.9385 7.38523 24.9698 7.21329 24.9854 7.04135C25.001 6.8616 25.0167 6.68184 25.0167 6.50991C25.0167 6.38486 25.0088 6.25981 25.0011 6.13477C24.9854 5.95501 24.962 5.78307 24.9385 5.61113C24.9073 5.43138 24.8682 5.25944 24.8213 5.0875C24.7666 4.92338 24.7119 4.75144 24.6494 4.58732C24.5868 4.42319 24.5087 4.25907 24.4305 4.10276C24.3446 3.94645 24.2586 3.79014 24.1648 3.64165C24.0632 3.49316 23.9616 3.35248 23.8522 3.2118C23.735 3.07894 23.6177 2.94608 23.4927 2.81322C23.4302 2.7507 23.3598 2.68036 23.2895 2.61783C22.9378 2.34429 22.5705 2.08638 22.2032 1.85192C22.1484 1.82065 22.1016 1.79721 22.0468 1.77377C21.7889 1.60965 21.5466 1.52363 21.3044 1.44548Z" fill="#E0234E"/>
</svg>
