<svg width="33" height="32" viewBox="0 0 33 32" fill="none" xmlns="http://www.w3.org/2000/svg">
<g clip-path="url(#clip0_7849_6329)">
<path fill-rule="evenodd" clip-rule="evenodd" d="M19.7077 1C19.4889 1 19.2857 1.04689 19.0981 1.10942C19.4967 1.37514 19.7156 1.72683 19.825 2.12542C19.8328 2.18013 19.8484 2.2192 19.8562 2.27391C19.8641 2.3208 19.8719 2.3677 19.8719 2.41459C19.9031 3.10234 19.6921 3.18831 19.5436 3.59471C19.317 4.11835 19.3795 4.68106 19.653 5.13435C19.6765 5.18906 19.7077 5.25158 19.7468 5.30629C19.4498 3.32899 21.0989 3.03201 21.4037 2.41459C21.4271 1.87533 20.9817 1.51582 20.63 1.26572C20.2939 1.06252 19.9891 1 19.7077 1ZM22.193 1.44548C22.1618 1.62523 22.1852 1.57834 22.1774 1.67213C22.1696 1.73465 22.1696 1.8128 22.1618 1.87533C22.1462 1.93785 22.1305 2.00037 22.1071 2.0629C22.0915 2.12542 22.068 2.18794 22.0446 2.25046C22.0133 2.31299 21.9899 2.3677 21.9586 2.43022C21.9352 2.46149 21.9195 2.49274 21.8961 2.52401C21.8805 2.54745 21.8648 2.5709 21.8492 2.59434C21.8101 2.64905 21.771 2.70376 21.732 2.75065C21.6851 2.79754 21.646 2.85225 21.5913 2.89133V2.89916C21.5444 2.93823 21.4975 2.98513 21.4428 3.0242C21.2787 3.14925 21.0911 3.24303 20.9192 3.36026C20.8644 3.39934 20.8097 3.4306 20.7628 3.4775C20.7081 3.51657 20.6612 3.55565 20.6144 3.60254C20.5596 3.64943 20.5206 3.69633 20.4737 3.75104C20.4346 3.79793 20.3877 3.85263 20.3564 3.90734C20.3174 3.96205 20.2783 4.01676 20.247 4.07147C20.2158 4.13399 20.1923 4.1887 20.1611 4.25122C20.1376 4.31374 20.1142 4.36845 20.0985 4.43097C20.0751 4.50131 20.0595 4.56384 20.0438 4.62636C20.036 4.65764 20.036 4.6967 20.0282 4.72796C20.0204 4.75923 20.0204 4.79048 20.0126 4.82175C20.0126 4.88427 20.0048 4.95461 20.0048 5.01713C20.0048 5.06402 20.0048 5.11091 20.0126 5.15781C20.0126 5.22033 20.0204 5.28285 20.036 5.35319C20.0439 5.41571 20.0595 5.47824 20.0751 5.54076C20.0986 5.60329 20.1142 5.66581 20.1376 5.72833C20.1533 5.76741 20.1767 5.80649 20.1923 5.83775L18.3948 5.14218C18.09 5.05621 17.793 4.97805 17.4882 4.90771C17.3241 4.86864 17.16 4.82956 16.9958 4.79048C16.5269 4.6967 16.0502 4.62636 15.5734 4.57947C15.5578 4.57947 15.55 4.57164 15.5344 4.57164C15.0654 4.52475 14.6043 4.50131 14.1354 4.50131C13.7915 4.50131 13.4476 4.51692 13.1116 4.54038C12.6348 4.57166 12.1581 4.63417 11.6814 4.71232C11.5641 4.72794 11.4469 4.7514 11.3297 4.77485C11.0874 4.82173 10.8529 4.87644 10.6263 4.93115C10.5091 4.96243 10.3918 4.99368 10.2746 5.02494C10.1574 5.07183 10.0479 5.12654 9.93853 5.17343C9.85256 5.21251 9.76659 5.25158 9.68062 5.29066C9.665 5.29849 9.64935 5.29849 9.64154 5.30628C9.56339 5.34536 9.49305 5.37662 9.42271 5.4157C9.39927 5.42352 9.38363 5.43131 9.368 5.43914C9.28204 5.47822 9.19607 5.52511 9.12573 5.56419C9.07102 5.58763 9.01631 5.6189 8.96942 5.64234C8.94597 5.65796 8.91471 5.67362 8.89908 5.68142C8.82874 5.7205 8.7584 5.75957 8.69588 5.79865C8.62554 5.83773 8.56302 5.8768 8.50831 5.91588C8.4536 5.95496 8.39889 5.98622 8.352 6.02529C8.34417 6.03312 8.33638 6.03312 8.32855 6.04091C8.28166 6.07219 8.22696 6.11125 8.18006 6.15033C8.18006 6.15033 8.17223 6.15816 8.16444 6.16595C8.12537 6.19723 8.08629 6.22847 8.04721 6.25973C8.03159 6.26756 8.01594 6.28318 8.00032 6.29101C7.96124 6.32228 7.92217 6.36135 7.88309 6.39261C7.87526 6.40823 7.85964 6.41606 7.85182 6.42388C7.80492 6.47078 7.75803 6.50985 7.71114 6.55674C7.70331 6.55674 7.70331 6.56457 7.69552 6.57236C7.64863 6.61144 7.60173 6.65833 7.55484 6.70523C7.54701 6.71305 7.54701 6.72084 7.53922 6.72084C7.50015 6.75992 7.46107 6.799 7.42199 6.84589C7.40637 6.86151 7.38291 6.87716 7.36728 6.89278C7.32821 6.93967 7.28132 6.98657 7.23442 7.03346C7.22659 7.04908 7.21098 7.05691 7.20315 7.07254C7.14063 7.13506 7.08592 7.19758 7.02339 7.26011C7.01557 7.26793 7.00778 7.27572 6.99995 7.28355C6.8749 7.41642 6.74204 7.54928 6.60136 7.66651C6.46069 7.79155 6.31219 7.90878 6.1637 8.01038C6.00739 8.1198 5.8589 8.21359 5.69477 8.30737C5.53847 8.39334 5.37434 8.47149 5.2024 8.54183C5.03828 8.61217 4.86634 8.6747 4.6944 8.7294C4.36615 8.79974 4.03009 8.9326 3.74092 8.95605C3.6784 8.95605 3.60806 8.97167 3.54554 8.97949C3.4752 8.99511 3.41268 9.01077 3.35015 9.02639C3.28763 9.04983 3.22511 9.07328 3.16258 9.09673C3.10006 9.12017 3.03754 9.15143 2.97501 9.1827C2.92031 9.22177 2.85778 9.25304 2.80307 9.29211C2.74837 9.33119 2.69366 9.37808 2.64677 9.42497C2.59206 9.46405 2.53735 9.51876 2.49046 9.56565C2.44356 9.62036 2.39667 9.66725 2.3576 9.72196C2.31852 9.78448 2.27163 9.83919 2.24036 9.90171C2.20129 9.95642 2.16221 10.0189 2.13095 10.0815C2.09967 10.1518 2.06843 10.2143 2.04498 10.2847C2.02153 10.3472 1.99809 10.4175 1.97464 10.4879C1.95902 10.5504 1.94337 10.6129 1.93556 10.6754C1.93556 10.6833 1.92774 10.6911 1.92774 10.6989C1.91212 10.7692 1.91212 10.863 1.90429 10.9099C1.89646 10.9646 1.88867 11.0115 1.88867 11.0662C1.88867 11.0975 1.88867 11.1365 1.8965 11.1678C1.90433 11.2225 1.91212 11.2694 1.92777 11.3163C1.94339 11.3632 1.95905 11.4101 1.98248 11.457V11.4648C2.00593 11.5117 2.03719 11.5586 2.06845 11.6055C2.09972 11.6524 2.13097 11.6993 2.17005 11.7462C2.20913 11.7852 2.25602 11.8321 2.30291 11.8712C2.3498 11.9181 2.3967 11.9572 2.4514 11.9963C2.63897 12.1604 2.68587 12.2151 2.92814 12.3401C2.96722 12.3636 3.0063 12.3792 3.05319 12.4027C3.06102 12.4027 3.06881 12.4105 3.07664 12.4105C3.07664 12.4261 3.07664 12.4339 3.08447 12.4496C3.0923 12.5121 3.10791 12.5746 3.12354 12.6371C3.13916 12.7075 3.16262 12.77 3.18607 12.8247C3.20952 12.8716 3.22515 12.9185 3.24859 12.9654C3.25642 12.981 3.26421 12.9967 3.27204 13.0045C3.30331 13.067 3.33456 13.1217 3.36582 13.1764C3.4049 13.2311 3.44398 13.2858 3.48305 13.3405C3.52213 13.3874 3.56902 13.4421 3.61591 13.489C3.66281 13.5359 3.7097 13.575 3.76441 13.6219C3.76441 13.6219 3.77224 13.6297 3.78003 13.6297C3.82692 13.6688 3.87381 13.7079 3.92071 13.7391C3.97541 13.7782 4.03012 13.8095 4.09264 13.8407C4.14735 13.872 4.20988 13.9032 4.2724 13.9267C4.31929 13.9501 4.374 13.9658 4.42871 13.9814C4.43654 13.9892 4.44433 13.9892 4.45998 13.997C4.49126 14.0049 4.53032 14.0126 4.56158 14.0205C4.53813 14.4425 4.53031 14.8411 4.59285 14.9818C4.66319 15.1381 5.00707 14.6613 5.35095 14.1143C5.30406 14.6535 5.27279 15.2866 5.35095 15.4741C5.43692 15.6695 5.90584 15.0599 6.31224 14.3878C11.8534 13.1061 16.9099 16.9356 17.4414 22.3439C17.3398 21.4998 16.3003 21.0309 15.8236 21.1481C15.5891 21.7265 15.1905 22.4689 14.5497 22.93C14.6044 22.4142 14.581 21.8828 14.4715 21.3669C14.2996 22.086 13.9635 22.7581 13.5024 23.3364C12.76 23.3911 12.0175 23.0316 11.6267 22.4924C11.5954 22.4689 11.5876 22.422 11.5642 22.3908C11.5407 22.3361 11.5173 22.2814 11.5017 22.2266C11.4782 22.1719 11.4626 22.1172 11.4548 22.0625C11.4469 22.0078 11.4469 21.9531 11.4469 21.8906C11.4469 21.8515 11.4469 21.8124 11.4469 21.7734C11.4548 21.7186 11.4704 21.6639 11.486 21.6092C11.5016 21.5545 11.5173 21.4998 11.5407 21.4451C11.572 21.3904 11.5954 21.3357 11.6345 21.281C11.7674 20.9058 11.7674 20.601 11.5251 20.4213C11.4782 20.39 11.4313 20.3666 11.3766 20.3431C11.3453 20.3353 11.3063 20.3197 11.275 20.3119C11.2516 20.304 11.2359 20.2962 11.2125 20.2884C11.1578 20.2728 11.1031 20.2571 11.0484 20.2493C10.9937 20.2337 10.9389 20.2259 10.8842 20.2259C10.8295 20.2181 10.767 20.2103 10.7123 20.2103C10.6732 20.2103 10.6341 20.2181 10.5951 20.2181C10.5325 20.2181 10.4778 20.2259 10.4231 20.2415C10.3684 20.2494 10.3137 20.2572 10.259 20.2728C10.2043 20.2884 10.1496 20.3041 10.0949 20.3275C10.0402 20.351 9.99328 20.3744 9.93857 20.3979C9.89169 20.4213 9.84479 20.4526 9.79008 20.476C7.96909 21.664 9.05544 24.4462 10.2981 25.2512C9.82916 25.3372 9.35242 25.4388 9.21956 25.5404C9.21173 25.5482 9.20394 25.556 9.20394 25.556C9.54 25.7592 9.8917 25.9312 10.259 26.0796C10.7592 26.2438 11.2907 26.3923 11.5251 26.4548V26.4626C12.1738 26.5955 12.8303 26.6424 13.4946 26.6033C16.9568 26.361 19.7938 23.7272 20.3096 20.2572C20.3253 20.3275 20.3409 20.39 20.3565 20.4604C20.38 20.6011 20.4112 20.7496 20.4269 20.898V20.9059C20.4425 20.9762 20.4503 21.0466 20.4581 21.1091V21.1404C20.466 21.2107 20.4738 21.281 20.4738 21.3436C20.4816 21.4295 20.4894 21.5155 20.4894 21.6015V21.7265C20.4894 21.7656 20.4972 21.8125 20.4972 21.8516C20.4972 21.8985 20.4894 21.9453 20.4894 21.9922V22.1016C20.4894 22.1564 20.4815 22.2033 20.4815 22.258C20.4815 22.2892 20.4815 22.3205 20.4737 22.3596C20.4737 22.4143 20.4659 22.469 20.4659 22.5315C20.4581 22.5549 20.4581 22.5784 20.4581 22.6018C20.4502 22.6644 20.4424 22.7191 20.4346 22.7816C20.4346 22.805 20.4346 22.8285 20.4268 22.8519C20.4189 22.9301 20.4033 23.0004 20.3955 23.0786V23.0864V23.0942C20.3799 23.1646 20.3642 23.2427 20.3486 23.3131V23.3365C20.333 23.4069 20.3173 23.4772 20.3017 23.5475C20.3017 23.5554 20.2939 23.571 20.2939 23.5788C20.2783 23.6491 20.2626 23.7195 20.2392 23.7898V23.8133C20.2157 23.8914 20.1923 23.9618 20.1767 24.0321C20.1688 24.0399 20.1688 24.0477 20.1688 24.0477C20.1454 24.1259 20.122 24.204 20.0985 24.2822C20.0672 24.3603 20.0438 24.4307 20.0125 24.5088C19.9813 24.587 19.9578 24.6651 19.9266 24.7355C19.8953 24.8136 19.864 24.884 19.8328 24.9621H19.8249C19.7937 25.0325 19.7624 25.1106 19.7233 25.181C19.7155 25.2044 19.7077 25.22 19.6999 25.2357C19.6921 25.2435 19.6921 25.2513 19.6843 25.2591C19.1763 26.2829 18.426 27.1817 17.4881 27.8851C17.4256 27.9242 17.3631 27.9711 17.3006 28.0179C17.285 28.0336 17.2615 28.0414 17.2459 28.057C17.1912 28.0961 17.1365 28.1352 17.0739 28.1743L17.0974 28.2211H17.1052C17.2146 28.2055 17.324 28.1899 17.4335 28.1743H17.4413C17.6445 28.143 17.8477 28.1039 18.0509 28.0648C18.1056 28.057 18.1681 28.0414 18.2228 28.0258C18.2619 28.0179 18.2932 28.0101 18.3322 28.0023C18.3869 27.9945 18.4416 27.9789 18.4964 27.971C18.5432 27.9554 18.5901 27.9476 18.637 27.932C19.4186 27.7444 20.1767 27.4865 20.9035 27.1817C19.6609 28.8776 17.9962 30.2453 16.0501 31.1441C16.9489 31.0816 17.8477 30.9331 18.7152 30.683C21.8648 29.7529 24.5142 27.635 26.1007 24.7823C25.7803 26.5877 25.0613 28.3071 23.9984 29.8077C24.7565 29.3075 25.4521 28.7291 26.0851 28.0726C27.8358 26.2438 28.9846 23.9227 29.3754 21.4295C29.6411 22.6644 29.7193 23.9383 29.6021 25.1966C35.2448 17.3265 30.071 9.16717 27.9061 7.01793C27.8983 7.00231 27.8905 6.99448 27.8905 6.97886C27.8827 6.98668 27.8827 6.98668 27.8827 6.99447C27.8827 6.98665 27.8827 6.98665 27.8748 6.97886C27.8748 7.07264 27.867 7.16642 27.8592 7.26021C27.8358 7.43996 27.8123 7.6119 27.7811 7.78384C27.742 7.95578 27.6951 8.12772 27.6482 8.29966C27.5935 8.46378 27.531 8.63572 27.4606 8.79984C27.3903 8.95615 27.3121 9.12027 27.2262 9.27658C27.1402 9.42508 27.0464 9.58138 26.9448 9.72206C26.8432 9.87056 26.7338 10.0112 26.6244 10.1441C26.5071 10.2848 26.3821 10.4098 26.257 10.5349C26.1789 10.6052 26.1086 10.6677 26.0304 10.7302C25.9679 10.785 25.9132 10.8319 25.8506 10.8866C25.71 10.996 25.5693 11.0976 25.413 11.1914C25.2645 11.2851 25.1082 11.3789 24.9519 11.4571C24.7878 11.5352 24.6236 11.6056 24.4595 11.6759C24.2954 11.7384 24.1234 11.7931 23.9515 11.84C23.7796 11.8869 23.5998 11.926 23.4279 11.9573C23.2481 11.9885 23.0684 12.0042 22.8964 12.0198C22.7714 12.0276 22.6463 12.0354 22.5213 12.0354C22.3415 12.0354 22.1618 12.0198 21.9898 12.0041C21.8101 11.9885 21.6303 11.9651 21.4584 11.926C21.2786 11.8947 21.1067 11.8478 20.9348 11.7931H20.9269C21.0989 11.7775 21.2708 11.7618 21.4428 11.7306C21.6225 11.6993 21.7944 11.6603 21.9664 11.6134C22.1383 11.5665 22.3103 11.5118 22.4744 11.4492C22.6463 11.3867 22.8104 11.3086 22.9668 11.2304C23.1309 11.1523 23.2794 11.0663 23.4357 10.9725C23.5842 10.8709 23.7327 10.7693 23.8733 10.6599C24.014 10.5505 24.1469 10.4332 24.2719 10.3082C24.4048 10.191 24.522 10.0581 24.6393 9.92523C24.7565 9.78456 24.8659 9.64388 24.9675 9.5032C24.9831 9.47976 24.9988 9.4485 25.0144 9.42505C25.0925 9.3 25.1707 9.17496 25.241 9.04991C25.327 8.8936 25.4052 8.73729 25.4755 8.57317C25.5458 8.40905 25.6084 8.24492 25.6631 8.07299C25.7178 7.90886 25.7569 7.73692 25.7959 7.56499C25.8272 7.38523 25.8585 7.21329 25.8741 7.04135C25.8897 6.8616 25.9054 6.68184 25.9054 6.50991C25.9054 6.38486 25.8975 6.25981 25.8897 6.13477C25.8741 5.95501 25.8507 5.78307 25.8272 5.61113C25.7959 5.43138 25.7569 5.25944 25.71 5.0875C25.6553 4.92338 25.6006 4.75144 25.538 4.58732C25.4755 4.42319 25.3974 4.25907 25.3192 4.10276C25.2332 3.94645 25.1473 3.79014 25.0535 3.64165C24.9519 3.49316 24.8503 3.35248 24.7409 3.2118C24.6236 3.07894 24.5064 2.94608 24.3814 2.81322C24.3188 2.7507 24.2485 2.68036 24.1782 2.61783C23.8265 2.34429 23.4591 2.08638 23.0918 1.85192C23.0371 1.82065 22.9902 1.79721 22.9355 1.77377C22.6776 1.60965 22.4353 1.52363 22.193 1.44548Z" fill="#E0234E"/>
</g>
<defs>
<clipPath id="clip0_7849_6329">
<rect width="32" height="32" fill="white" transform="translate(0.888672)"/>
</clipPath>
</defs>
</svg>
