<svg width="36" height="36" viewBox="0 0 36 36" fill="none" xmlns="http://www.w3.org/2000/svg">
<g clip-path="url(#clip0_7688_10781)">
<path d="M25.7283 12.7216L25.7157 12.7162C25.7085 12.7135 25.7013 12.7108 25.695 12.7045C25.6847 12.6934 25.677 12.68 25.6727 12.6655C25.6683 12.651 25.6673 12.6357 25.6698 12.6208L26.3655 8.36735L29.628 11.6308L26.235 13.0744C26.2256 13.0782 26.2155 13.08 26.2053 13.0798H26.1918C26.1873 13.0771 26.1828 13.0735 26.1738 13.0645C26.0475 12.9239 25.8965 12.8076 25.7283 12.7216ZM30.4605 12.4624L33.9489 15.9508C34.6734 16.6762 35.0361 17.038 35.1684 17.4574C35.1882 17.5195 35.2044 17.5816 35.217 17.6455L26.8803 14.1148C26.8758 14.1129 26.8713 14.1111 26.8668 14.1094C26.8335 14.0959 26.7948 14.0806 26.7948 14.0464C26.7948 14.0122 26.8344 13.996 26.8677 13.9825L26.8785 13.978L30.4605 12.4624ZM35.0748 18.7651C34.8948 19.1035 34.5438 19.4545 33.9498 20.0494L30.0168 23.9815L24.93 22.9222L24.903 22.9168C24.858 22.9096 24.8103 22.9015 24.8103 22.861C24.791 22.6511 24.7287 22.4475 24.6272 22.2628C24.5258 22.0781 24.3875 21.9162 24.2208 21.7873C24.2001 21.7666 24.2055 21.7342 24.2118 21.7045C24.2118 21.7 24.2118 21.6955 24.2136 21.6919L25.1703 15.8185L25.1739 15.7987C25.1793 15.7537 25.1874 15.7015 25.2279 15.7015C25.4329 15.6759 25.6308 15.6099 25.8101 15.5071C25.9893 15.4044 26.1463 15.267 26.2719 15.103C26.28 15.094 26.2854 15.0841 26.2962 15.0787C26.325 15.0652 26.3592 15.0787 26.3889 15.0913L35.0748 18.7651ZM29.1123 24.886L22.6449 31.3534L23.7519 24.5494L23.7537 24.5404C23.7546 24.5314 23.7564 24.5224 23.7591 24.5143C23.7681 24.4927 23.7915 24.4837 23.814 24.4747L23.8248 24.4702C24.0672 24.3667 24.2816 24.2073 24.4503 24.0049C24.4719 23.9797 24.498 23.9554 24.5313 23.9509C24.5399 23.9494 24.5488 23.9494 24.5574 23.9509L29.1114 24.8869L29.1123 24.886ZM21.276 32.7223L20.547 33.4513L12.4875 21.8035C12.4846 21.7992 12.4816 21.795 12.4785 21.7909C12.4659 21.7738 12.4524 21.7567 12.4551 21.7369C12.456 21.7225 12.465 21.7099 12.4749 21.6991L12.4839 21.6874C12.5082 21.6514 12.5289 21.6154 12.5514 21.5767L12.5694 21.5452L12.5721 21.5425C12.5847 21.5209 12.5964 21.5002 12.618 21.4885C12.6369 21.4795 12.663 21.4831 12.6837 21.4876L21.6126 23.329C21.6376 23.3328 21.6611 23.3431 21.681 23.3587C21.6927 23.3704 21.6954 23.383 21.6981 23.3974C21.7604 23.633 21.8763 23.8511 22.0368 24.0345C22.1973 24.218 22.398 24.3618 22.6233 24.4549C22.6485 24.4675 22.6377 24.4954 22.626 24.5251C22.6202 24.5381 22.6156 24.5516 22.6125 24.5656C22.5 25.2496 21.5352 31.1338 21.276 32.7223ZM19.7532 34.2442C19.2159 34.7761 18.8991 35.0578 18.5409 35.1712C18.1877 35.2828 17.8087 35.2828 17.4555 35.1712C17.0361 35.038 16.6734 34.6762 15.9489 33.9508L7.85519 25.8571L9.96929 22.5784C9.97919 22.5622 9.98909 22.5478 10.0053 22.5361C10.0278 22.5199 10.0602 22.5271 10.0872 22.5361C10.5724 22.6825 11.0934 22.6561 11.5614 22.4614C11.5857 22.4524 11.61 22.4461 11.6289 22.4632C11.6383 22.4718 11.6468 22.4814 11.6541 22.492L19.7532 34.2442ZM7.07489 25.0768L5.21819 23.2201L8.88479 21.6559C8.89417 21.6518 8.90427 21.6496 8.91449 21.6496C8.94509 21.6496 8.96309 21.6802 8.97929 21.7081C9.01614 21.7647 9.05517 21.82 9.09629 21.8737L9.10799 21.8881C9.11879 21.9034 9.11159 21.9187 9.10079 21.9331L7.07489 25.0768ZM4.39649 22.3984L2.04749 20.0494C1.64789 19.6498 1.35809 19.36 1.15649 19.1107L8.29889 20.5921C8.30786 20.5937 8.31687 20.5952 8.32589 20.5966C8.36999 20.6038 8.41859 20.6119 8.41859 20.6533C8.41859 20.6983 8.36549 20.719 8.32049 20.7361L8.29979 20.7451L4.39649 22.3984ZM0.746094 17.9029C0.754233 17.7515 0.781449 17.6019 0.827094 17.4574C0.960294 17.038 1.32209 16.6762 2.04749 15.9508L5.05349 12.9448C6.43754 14.9534 7.82535 16.9596 9.21689 18.9631C9.24119 18.9955 9.26819 19.0315 9.24029 19.0585C9.10889 19.2034 8.97749 19.3618 8.88479 19.5337C8.87474 19.5558 8.85926 19.5749 8.83979 19.5895C8.82809 19.5967 8.81549 19.594 8.80199 19.5913H8.80019L0.746094 17.9029ZM5.85809 12.1402L9.89999 8.09825C10.2798 8.26475 11.6622 8.84885 12.8988 9.37085C13.8348 9.76685 14.688 10.1269 14.9562 10.2439C14.9832 10.2547 15.0075 10.2655 15.0192 10.2925C15.0264 10.3087 15.0228 10.3294 15.0192 10.3465C14.9552 10.6382 14.9647 10.9413 15.0469 11.2285C15.1291 11.5156 15.2813 11.7779 15.4899 11.9917C15.5169 12.0187 15.4899 12.0574 15.4665 12.0907L15.4539 12.1096L11.3499 18.4663C11.3391 18.4843 11.3292 18.4996 11.3112 18.5113C11.2896 18.5248 11.259 18.5185 11.2338 18.5122C11.0742 18.4703 10.9101 18.448 10.7451 18.4456C10.5975 18.4456 10.4373 18.4726 10.2753 18.5023C10.2573 18.505 10.2402 18.5086 10.2258 18.4978C10.2099 18.4848 10.1962 18.4693 10.1853 18.4519L5.85809 12.1402ZM10.7163 7.28195L15.9489 2.04935C16.6734 1.32485 17.0361 0.962155 17.4555 0.829855C17.8087 0.718173 18.1877 0.718173 18.5409 0.829855C18.9603 0.962155 19.323 1.32485 20.0475 2.04935L21.1815 3.18335L17.46 8.94695C17.4508 8.96373 17.4382 8.97844 17.4231 8.99015C17.4006 9.00545 17.3691 8.99915 17.3421 8.99015C17.0487 8.90111 16.738 8.8849 16.4369 8.94292C16.1358 9.00094 15.8534 9.13145 15.6141 9.32315C15.5898 9.34835 15.5538 9.33395 15.5232 9.32045C15.0372 9.10895 11.2572 7.51145 10.7163 7.28195ZM21.9717 3.97355L25.4079 7.40975L24.5799 12.538V12.5515C24.5792 12.5631 24.5767 12.5747 24.5727 12.5857C24.5637 12.6037 24.5457 12.6073 24.5277 12.6127C24.3507 12.6663 24.1839 12.7493 24.0345 12.8584C24.0281 12.8629 24.022 12.8681 24.0165 12.8737C24.0066 12.8845 23.9967 12.8944 23.9805 12.8962C23.9673 12.8966 23.9542 12.8944 23.9418 12.8899L18.7056 10.6651L18.6957 10.6606C18.6624 10.6471 18.6228 10.6309 18.6228 10.5967C18.592 10.3049 18.4967 10.0236 18.3438 9.77315C18.3186 9.73175 18.2907 9.68855 18.3123 9.64625L21.9717 3.97355ZM18.4329 11.719L23.3415 13.798C23.3685 13.8106 23.3982 13.8223 23.4099 13.8502C23.4146 13.8669 23.4146 13.8847 23.4099 13.9015C23.3955 13.9735 23.3829 14.0554 23.3829 14.1382V14.2759C23.3829 14.3101 23.3478 14.3245 23.3154 14.338L23.3055 14.3416C22.5279 14.6737 12.3885 18.9973 12.3732 18.9973C12.3579 18.9973 12.3417 18.9973 12.3264 18.982C12.2994 18.955 12.3264 18.9172 12.3507 18.883C12.355 18.877 12.3592 18.871 12.3633 18.865L16.3971 12.619L16.4043 12.6082C16.4277 12.5704 16.4547 12.5281 16.4979 12.5281L16.5384 12.5344C16.6302 12.547 16.7112 12.5587 16.7931 12.5587C17.4051 12.5587 17.9721 12.2608 18.3141 11.7514C18.3222 11.7378 18.3326 11.7256 18.3447 11.7154C18.369 11.6974 18.405 11.7064 18.4329 11.719ZM12.8115 19.9855L23.8635 15.2722C23.8635 15.2722 23.8797 15.2722 23.895 15.2875C23.9553 15.3478 24.0066 15.3883 24.0561 15.4261L24.0804 15.4414C24.1029 15.454 24.1254 15.4684 24.1272 15.4918C24.1272 15.5008 24.1272 15.5062 24.1254 15.5143L23.1786 21.3301L23.175 21.3535C23.1687 21.3985 23.1624 21.4498 23.1201 21.4498C22.8677 21.4668 22.6232 21.5451 22.4079 21.678C22.1926 21.8108 22.0129 21.9941 21.8844 22.2121L21.8799 22.2193C21.8673 22.24 21.8556 22.2598 21.8349 22.2706C21.816 22.2796 21.7917 22.276 21.7719 22.2715L12.9582 20.4535C12.9492 20.4517 12.8214 19.9864 12.8115 19.9855Z" fill="#2BBBB9"/>
</g>
<defs>
<clipPath id="clip0_7688_10781">
<rect width="36" height="36" fill="white"/>
</clipPath>
</defs>
</svg>
