<svg width="36" height="36" viewBox="0 0 36 36" fill="none" xmlns="http://www.w3.org/2000/svg">
<g clip-path="url(#clip0_26637_1734)">
<path d="M25.7302 12.7216L25.7176 12.7162C25.7104 12.7135 25.7032 12.7108 25.6969 12.7045C25.6866 12.6934 25.679 12.68 25.6746 12.6655C25.6702 12.651 25.6693 12.6357 25.6717 12.6208L26.3674 8.36735L29.6299 11.6308L26.2369 13.0744C26.2275 13.0782 26.2174 13.08 26.2072 13.0798H26.1937C26.1892 13.0771 26.1847 13.0735 26.1757 13.0645C26.0495 12.9239 25.8985 12.8076 25.7302 12.7216ZM30.4624 12.4624L33.9508 15.9508C34.6753 16.6762 35.038 17.038 35.1703 17.4574C35.1901 17.5195 35.2063 17.5816 35.2189 17.6455L26.8822 14.1148C26.8778 14.1129 26.8733 14.1111 26.8687 14.1094C26.8354 14.0959 26.7967 14.0806 26.7967 14.0464C26.7967 14.0122 26.8363 13.996 26.8696 13.9825L26.8804 13.978L30.4624 12.4624ZM35.0767 18.7651C34.8967 19.1035 34.5457 19.4545 33.9517 20.0494L30.0187 23.9815L24.9319 22.9222L24.9049 22.9168C24.8599 22.9096 24.8122 22.9015 24.8122 22.861C24.7929 22.6511 24.7306 22.4475 24.6292 22.2628C24.5278 22.0781 24.3894 21.9162 24.2227 21.7873C24.202 21.7666 24.2074 21.7342 24.2137 21.7045C24.2137 21.7 24.2137 21.6955 24.2155 21.6919L25.1722 15.8185L25.1758 15.7987C25.1812 15.7537 25.1893 15.7015 25.2298 15.7015C25.4349 15.676 25.6328 15.6099 25.812 15.5071C25.9912 15.4044 26.1482 15.267 26.2738 15.103C26.2819 15.094 26.2873 15.0841 26.2981 15.0787C26.3269 15.0652 26.3611 15.0787 26.3908 15.0913L35.0767 18.7651ZM29.1142 24.886L22.6468 31.3534L23.7538 24.5494L23.7556 24.5404C23.7565 24.5314 23.7583 24.5224 23.761 24.5143C23.77 24.4927 23.7934 24.4837 23.8159 24.4747L23.8267 24.4702C24.0691 24.3667 24.2835 24.2073 24.4522 24.0049C24.4738 23.9797 24.4999 23.9554 24.5332 23.9509C24.5419 23.9494 24.5507 23.9494 24.5593 23.9509L29.1133 24.8869L29.1142 24.886ZM21.2779 32.7223L20.5489 33.4513L12.4894 21.8035C12.4865 21.7992 12.4835 21.795 12.4804 21.7909C12.4678 21.7738 12.4543 21.7567 12.457 21.7369C12.4579 21.7225 12.4669 21.7099 12.4768 21.6991L12.4858 21.6874C12.5101 21.6514 12.5308 21.6154 12.5533 21.5767L12.5713 21.5452L12.574 21.5425C12.5866 21.5209 12.5983 21.5002 12.6199 21.4885C12.6388 21.4795 12.6649 21.4831 12.6856 21.4876L21.6145 23.329C21.6395 23.3328 21.6631 23.3431 21.6829 23.3587C21.6946 23.3704 21.6973 23.383 21.7 23.3974C21.7623 23.633 21.8782 23.8511 22.0387 24.0345C22.1992 24.218 22.4 24.3618 22.6252 24.4549C22.6504 24.4675 22.6396 24.4954 22.6279 24.5251C22.6221 24.5381 22.6176 24.5516 22.6144 24.5656C22.5019 25.2496 21.5371 31.1338 21.2779 32.7223ZM19.7551 34.2442C19.2178 34.7761 18.901 35.0578 18.5428 35.1712C18.1897 35.2828 17.8106 35.2828 17.4574 35.1712C17.038 35.038 16.6753 34.6762 15.9508 33.9508L7.85715 25.8571L9.97125 22.5784C9.98115 22.5622 9.99105 22.5478 10.0072 22.5361C10.0297 22.5199 10.0621 22.5271 10.0891 22.5361C10.5744 22.6825 11.0954 22.6561 11.5633 22.4614C11.5876 22.4524 11.6119 22.4461 11.6308 22.4632C11.6403 22.4718 11.6488 22.4814 11.656 22.492L19.7551 34.2442ZM7.07685 25.0768L5.22015 23.2201L8.88675 21.6559C8.89612 21.6518 8.90622 21.6496 8.91645 21.6496C8.94705 21.6496 8.96505 21.6802 8.98125 21.7081C9.01809 21.7647 9.05712 21.82 9.09825 21.8737L9.10995 21.8881C9.12075 21.9034 9.11355 21.9187 9.10275 21.9331L7.07685 25.0768ZM4.39845 22.3984L2.04945 20.0494C1.64985 19.6498 1.36005 19.36 1.15845 19.1107L8.30085 20.5921C8.30982 20.5937 8.31882 20.5952 8.32785 20.5966C8.37195 20.6038 8.42055 20.6119 8.42055 20.6533C8.42055 20.6983 8.36745 20.719 8.32245 20.7361L8.30175 20.7451L4.39845 22.3984ZM0.748047 17.9029C0.756187 17.7515 0.783402 17.6019 0.829047 17.4574C0.962247 17.038 1.32405 16.6762 2.04945 15.9508L5.05545 12.9448C6.4395 14.9534 7.8273 16.9596 9.21885 18.9631C9.24315 18.9955 9.27015 19.0315 9.24225 19.0585C9.11085 19.2034 8.97945 19.3618 8.88675 19.5337C8.87669 19.5558 8.86121 19.5749 8.84175 19.5895C8.83005 19.5967 8.81745 19.594 8.80395 19.5913H8.80215L0.748047 17.9029ZM5.86005 12.1402L9.90195 8.09825C10.2817 8.26475 11.6641 8.84885 12.9007 9.37085C13.8367 9.76685 14.6899 10.1269 14.9581 10.2439C14.9851 10.2547 15.0094 10.2655 15.0211 10.2925C15.0283 10.3087 15.0247 10.3294 15.0211 10.3465C14.9572 10.6382 14.9667 10.9413 15.0488 11.2285C15.131 11.5156 15.2832 11.7779 15.4918 11.9917C15.5188 12.0187 15.4918 12.0574 15.4684 12.0907L15.4558 12.1096L11.3518 18.4663C11.341 18.4843 11.3311 18.4996 11.3131 18.5113C11.2915 18.5248 11.2609 18.5185 11.2357 18.5122C11.0761 18.4703 10.912 18.448 10.747 18.4456C10.5994 18.4456 10.4392 18.4726 10.2772 18.5023C10.2592 18.505 10.2421 18.5086 10.2277 18.4978C10.2118 18.4848 10.1982 18.4693 10.1872 18.4519L5.86005 12.1402ZM10.7182 7.28195L15.9508 2.04935C16.6753 1.32485 17.038 0.962155 17.4574 0.829855C17.8106 0.718173 18.1897 0.718173 18.5428 0.829855C18.9622 0.962155 19.3249 1.32485 20.0494 2.04935L21.1834 3.18335L17.4619 8.94695C17.4527 8.96373 17.4402 8.97844 17.425 8.99016C17.4025 9.00546 17.371 8.99916 17.344 8.99016C17.0506 8.90111 16.7399 8.8849 16.4389 8.94292C16.1378 9.00094 15.8554 9.13145 15.616 9.32315C15.5917 9.34835 15.5557 9.33395 15.5251 9.32045C15.0391 9.10895 11.2591 7.51145 10.7182 7.28195ZM21.9736 3.97355L25.4098 7.40975L24.5818 12.538V12.5515C24.5811 12.5631 24.5787 12.5747 24.5746 12.5857C24.5656 12.6037 24.5476 12.6073 24.5296 12.6127C24.3526 12.6663 24.1859 12.7493 24.0364 12.8584C24.03 12.8629 24.024 12.8681 24.0184 12.8737C24.0085 12.8845 23.9986 12.8944 23.9824 12.8962C23.9693 12.8966 23.9561 12.8944 23.9437 12.8899L18.7075 10.6651L18.6976 10.6606C18.6643 10.6471 18.6247 10.6309 18.6247 10.5967C18.594 10.3049 18.4987 10.0236 18.3457 9.77316C18.3205 9.73176 18.2926 9.68855 18.3142 9.64625L21.9736 3.97355ZM18.4348 11.719L23.3434 13.798C23.3704 13.8106 23.4001 13.8223 23.4118 13.8502C23.4165 13.8669 23.4165 13.8847 23.4118 13.9015C23.3974 13.9735 23.3848 14.0554 23.3848 14.1382V14.2759C23.3848 14.3101 23.3497 14.3245 23.3173 14.338L23.3074 14.3416C22.5298 14.6737 12.3904 18.9973 12.3751 18.9973C12.3598 18.9973 12.3436 18.9973 12.3283 18.982C12.3013 18.955 12.3283 18.9172 12.3526 18.883C12.3569 18.877 12.3611 18.871 12.3652 18.865L16.399 12.619L16.4062 12.6082C16.4296 12.5704 16.4566 12.5281 16.4998 12.5281L16.5403 12.5344C16.6321 12.547 16.7131 12.5587 16.795 12.5587C17.407 12.5587 17.974 12.2608 18.316 11.7514C18.3242 11.7378 18.3345 11.7256 18.3466 11.7154C18.3709 11.6974 18.4069 11.7064 18.4348 11.719ZM12.8134 19.9855L23.8654 15.2722C23.8654 15.2722 23.8816 15.2722 23.8969 15.2875C23.9572 15.3478 24.0085 15.3883 24.058 15.4261L24.0823 15.4414C24.1048 15.454 24.1273 15.4684 24.1291 15.4918C24.1291 15.5008 24.1291 15.5062 24.1273 15.5143L23.1805 21.3301L23.1769 21.3535C23.1706 21.3985 23.1643 21.4498 23.122 21.4498C22.8696 21.4668 22.6252 21.5451 22.4098 21.678C22.1945 21.8108 22.0148 21.9941 21.8863 22.2121L21.8818 22.2193C21.8692 22.24 21.8575 22.2598 21.8368 22.2706C21.8179 22.2796 21.7936 22.276 21.7738 22.2715L12.9601 20.4535C12.9511 20.4517 12.8233 19.9864 12.8134 19.9855Z" fill="currentColor"/>
</g>
<defs>
<clipPath id="clip0_26637_1734">
<rect width="36" height="36" fill="white"/>
</clipPath>
</defs>
</svg>
