<svg xmlns="http://www.w3.org/2000/svg" width="36" height="36" fill="none"><g clip-path="url(#a)"><mask id="b" width="36" height="36" x="0" y="0" maskUnits="userSpaceOnUse" style="mask-type:alpha"><path fill="#000" d="M18 36c9.941 0 18-8.059 18-18S27.941 0 18 0 0 8.059 0 18s8.059 18 18 18Z"/></mask><g mask="url(#b)"><path fill="#1A1A1A" d="M18 36c9.941 0 18-8.059 18-18S27.941 0 18 0 0 8.059 0 18s8.059 18 18 18Z"/><path fill="url(#c)" d="M29.902 31.504 13.828 10.8H10.8v14.394h2.423V13.877L28 32.969a18.034 18.034 0 0 0 1.902-1.465Z"/><path fill="url(#d)" d="M25.4 10.8H23v14.4h2.4V10.8Z"/></g></g><defs><linearGradient id="c" x1="21.8" x2="28.9" y1="23.3" y2="32.1" gradientUnits="userSpaceOnUse"><stop stop-color="#fff"/><stop offset="1" stop-color="#fff" stop-opacity="0"/></linearGradient><linearGradient id="d" x1="24.2" x2="24.16" y1="10.8" y2="21.375" gradientUnits="userSpaceOnUse"><stop stop-color="#fff"/><stop offset="1" stop-color="#fff" stop-opacity="0"/></linearGradient><clipPath id="a"><path fill="#fff" d="M0 0h36v36H0z"/></clipPath></defs></svg>