<svg width="36" height="36" viewBox="0 0 36 36" fill="none" xmlns="http://www.w3.org/2000/svg">
<path d="M16.4772 0.384069C17.3994 -0.126869 18.6006 -0.129176 19.522 0.384069C24.1574 2.9194 28.7943 5.45075 33.429 7.98762C34.3007 8.46291 34.8838 9.40196 34.8749 10.3742V25.6277C34.8814 26.6402 34.2407 27.6017 33.321 28.0663C28.7008 30.5876 24.083 33.112 19.4636 35.6334C18.5223 36.1543 17.297 36.1142 16.3852 35.5506C15 34.7733 13.6125 33.9999 12.2273 33.2235C11.9442 33.0601 11.6251 32.9301 11.4252 32.6644C11.6019 32.4339 11.9178 32.4052 12.1745 32.3045C12.7527 32.1266 13.2838 31.8409 13.8149 31.5637C13.9492 31.4747 14.1132 31.5088 14.242 31.5885C15.4264 32.2458 16.6004 32.9223 17.7889 33.5734C18.0424 33.715 18.2991 33.5269 18.5158 33.41C23.0497 30.9297 27.5891 28.4587 32.1221 25.9776C32.2901 25.8994 32.3829 25.7268 32.3693 25.5488C32.3725 20.5169 32.3701 15.4842 32.3709 10.4524C32.3901 10.2504 32.2693 10.0646 32.0805 9.98188C27.4763 7.47207 22.8745 4.95841 18.2712 2.44795C18.1914 2.39488 18.0969 2.3664 18.0001 2.36626C17.9033 2.36612 17.8088 2.39433 17.7289 2.44718C13.1255 4.95841 8.52447 7.47437 3.92108 9.98406C3.73299 10.0669 3.60675 10.2496 3.62914 10.4524C3.62994 15.4842 3.62914 20.5169 3.62914 25.5495C3.62116 25.6364 3.64087 25.7236 3.68564 25.7993C3.7304 25.875 3.79805 25.9356 3.87949 25.973C5.10793 26.6473 6.33795 27.3168 7.56718 27.9888C8.25968 28.3496 9.10994 28.564 9.87291 28.2876C10.5462 28.0538 11.0182 27.3888 11.0053 26.6968C11.0117 21.6943 11.0021 16.6911 11.0101 11.6895C10.9933 11.4674 11.2109 11.2839 11.434 11.3048C12.0242 11.301 12.6152 11.2971 13.2055 11.3063C13.4519 11.301 13.6214 11.5401 13.5909 11.7638C13.5886 16.7979 13.5973 21.8322 13.587 26.8663C13.5886 28.2079 13.0191 29.6678 11.737 30.3243C10.1576 31.1162 8.20537 30.9483 6.64499 30.1889C5.29416 29.5362 4.00506 28.7661 2.67821 28.0669C1.75615 27.6049 1.11862 26.6396 1.12511 25.6279V10.3742C1.11544 9.38183 1.72171 8.42573 2.62059 7.95736C7.24 5.43396 11.8586 2.90863 16.4772 0.384069Z" fill="#58A847"/>
<path d="M20.5089 10.9482C22.5236 10.8226 24.6804 10.8738 26.4934 11.8345C27.8971 12.5707 28.6753 14.1158 28.7001 15.6253C28.6609 15.8289 28.441 15.9412 28.2402 15.9273C27.6556 15.9265 27.0709 15.935 26.4864 15.9234C26.2384 15.9327 26.0943 15.7114 26.0632 15.4992C25.8952 14.7769 25.4883 14.0616 24.786 13.7132C23.7079 13.1908 22.4579 13.2171 21.2823 13.228C20.4241 13.2721 19.5012 13.344 18.7742 13.8325C18.216 14.2025 18.0464 14.9495 18.2456 15.5511C18.4335 15.983 18.9486 16.1224 19.3701 16.2509C21.7981 16.8655 24.371 16.8044 26.7526 17.6133C27.7387 17.9431 28.7032 18.5841 29.0408 19.5835C29.4822 20.9228 29.2887 22.5237 28.3043 23.5989C27.5059 24.4837 26.3432 24.9653 25.1835 25.2268C23.6407 25.5598 22.0397 25.5683 20.473 25.4205C18.9997 25.2579 17.4666 24.8832 16.3293 23.9116C15.3568 23.0942 14.8818 21.8207 14.929 20.5915C14.9402 20.3839 15.1538 20.2391 15.3592 20.2562C15.9479 20.2516 16.5365 20.25 17.1252 20.257C17.3603 20.2407 17.5346 20.4374 17.5467 20.6519C17.6553 21.34 17.9224 22.0622 18.5424 22.4702C19.7387 23.2173 21.2399 23.1662 22.6098 23.1871C23.7447 23.1384 25.0187 23.1236 25.9449 22.3975C26.4335 21.9834 26.5783 21.2905 26.4463 20.6944C26.3032 20.1912 25.7593 19.9567 25.2923 19.8033C22.8954 19.0694 20.2937 19.3357 17.9201 18.5058C16.9564 18.1762 16.0246 17.5529 15.6543 16.5946C15.1377 15.2384 15.3744 13.5608 16.4621 12.5219C17.5225 11.4885 19.0534 11.0906 20.5089 10.9482Z" fill="#58A847"/>
</svg>
