<svg width="36" height="36" viewBox="0 0 36 36" fill="none" xmlns="http://www.w3.org/2000/svg">
<g clip-path="url(#clip0_7680_10913)">
<path d="M16.4771 0.385046C17.3993 -0.125892 18.6005 -0.1282 19.5219 0.385046C24.1573 2.92037 28.7942 5.45173 33.4288 7.9886C34.3006 8.46389 34.8837 9.40294 34.8748 10.3752V25.6287C34.8813 26.6412 34.2406 27.6027 33.3209 28.0672C28.7007 30.5886 24.0829 33.113 19.4634 35.6344C18.5222 36.1553 17.2969 36.1152 16.3851 35.5515C14.9999 34.7743 13.6124 34.0009 12.2271 33.2244C11.9441 33.0611 11.625 32.9311 11.4251 32.6654C11.6018 32.4349 11.9177 32.4062 12.1744 32.3055C12.7526 32.1276 13.2836 31.8419 13.8148 31.5647C13.9491 31.4757 14.1131 31.5098 14.2419 31.5894C15.4263 32.2468 16.6003 32.9233 17.7887 33.5743C18.0423 33.716 18.299 33.5279 18.5157 33.411C23.0495 30.9307 27.5889 28.4597 32.122 25.9786C32.29 25.9004 32.3828 25.7278 32.3692 25.5497C32.3723 20.5179 32.37 15.4852 32.3708 10.4534C32.39 10.2513 32.2692 10.0656 32.0804 9.98286C27.4762 7.47304 22.8744 4.95938 18.271 2.44893C18.1913 2.39585 18.0968 2.36738 18 2.36724C17.9032 2.3671 17.8087 2.39531 17.7287 2.44816C13.1254 4.95938 8.52435 7.47535 3.92096 9.98504C3.73287 10.0679 3.60663 10.2506 3.62902 10.4534C3.62981 15.4852 3.62902 20.5179 3.62902 25.5505C3.62104 25.6374 3.64075 25.7246 3.68551 25.8003C3.73027 25.876 3.79793 25.9366 3.87937 25.974C5.1078 26.6483 6.33783 27.3178 7.56706 27.9898C8.25956 28.3506 9.10982 28.565 9.87279 28.2885C10.5461 28.0548 11.018 27.3897 11.0052 26.6978C11.0116 21.6953 11.002 16.6921 11.01 11.6904C10.9931 11.4684 11.2108 11.2849 11.4338 11.3058C12.0241 11.3019 12.6151 11.2981 13.2054 11.3073C13.4517 11.3019 13.6213 11.5411 13.5908 11.7648C13.5884 16.7989 13.5972 21.8332 13.5868 26.8673C13.5884 28.2089 13.019 29.6688 11.7369 30.3252C10.1574 31.1172 8.20525 30.9493 6.64487 30.1898C5.29404 29.5372 4.00494 28.767 2.67809 28.0679C1.75603 27.6059 1.1185 26.6406 1.12499 25.6288V10.3752C1.11532 9.38281 1.72159 8.42671 2.62047 7.95834C7.23988 5.43493 11.8585 2.9096 16.4771 0.385046Z" fill="#58A847"/>
<path d="M20.5093 10.9491C22.5241 10.8236 24.6809 10.8748 26.4939 11.8355C27.8976 12.5717 28.6758 14.1168 28.7006 15.6263C28.6613 15.8299 28.4415 15.9422 28.2407 15.9282C27.6561 15.9275 27.0714 15.9359 26.4869 15.9244C26.2389 15.9336 26.0948 15.7123 26.0637 15.5001C25.8957 14.7779 25.4888 14.0626 24.7865 13.7142C23.7084 13.1917 22.4584 13.218 21.2828 13.2289C20.4246 13.273 19.5017 13.345 18.7747 13.8335C18.2165 14.2035 18.0469 14.9505 18.2461 15.5521C18.434 15.984 18.9491 16.1234 19.3706 16.2519C21.7986 16.8665 24.3715 16.8054 26.7531 17.6143C27.7392 17.944 28.7037 18.5851 29.0412 19.5844C29.4827 20.9238 29.2892 22.5247 28.3048 23.5999C27.5064 24.4847 26.3437 24.9663 25.184 25.2278C23.6412 25.5608 22.0402 25.5693 20.4735 25.4214C19.0002 25.2589 17.4671 24.8842 16.3298 23.9126C15.3573 23.0952 14.8823 21.8217 14.9295 20.5925C14.9407 20.3849 15.1543 20.2401 15.3597 20.2572C15.9483 20.2526 16.537 20.251 17.1257 20.2579C17.3608 20.2417 17.5351 20.4383 17.5471 20.6529C17.6558 21.341 17.9229 22.0632 18.5428 22.4712C19.7392 23.2183 21.2404 23.1672 22.6103 23.1881C23.7452 23.1393 25.0192 23.1246 25.9454 22.3985C26.434 21.9844 26.5788 21.2915 26.4467 20.6954C26.3037 20.1922 25.7598 19.9577 25.2928 19.8043C22.8959 19.0704 20.2942 19.3367 17.9205 18.5068C16.9569 18.1771 16.025 17.5539 15.6548 16.5956C15.1382 15.2393 15.3749 13.5618 16.4626 12.5228C17.523 11.4894 19.0539 11.0916 20.5093 10.9491Z" fill="#58A847"/>
</g>
<defs>
<clipPath id="clip0_7680_10913">
<rect width="36" height="36" fill="white"/>
</clipPath>
</defs>
</svg>
