<svg xmlns="http://www.w3.org/2000/svg" width="33" height="36" fill="none"><g fill="#1A1A1A" clip-path="url(#a)"><path d="M14.873.457a3.006 3.006 0 0 1 2.934 0c4.468 2.524 8.937 5.045 13.403 7.57.84.474 1.402 1.409 1.394 2.377v15.187c.006 1.008-.611 1.966-1.498 2.428-4.452 2.51-8.903 5.024-13.355 7.535-.907.518-2.088.478-2.967-.083-1.335-.774-2.672-1.544-4.007-2.317-.273-.163-.58-.292-.773-.556.17-.23.475-.258.722-.359.557-.177 1.07-.461 1.581-.737.13-.089.288-.055.412.024 1.141.655 2.273 1.328 3.418 1.977.244.14.492-.047.7-.163 4.37-2.47 8.745-4.93 13.114-7.4a.433.433 0 0 0 .238-.427c.003-5.01 0-10.021.002-15.031a.47.47 0 0 0-.28-.469c-4.438-2.499-8.873-5.001-13.31-7.5a.462.462 0 0 0-.522-.002c-4.436 2.5-8.87 5.006-13.307 7.504a.464.464 0 0 0-.281.467v15.032a.425.425 0 0 0 .24.421c1.185.672 2.37 1.338 3.555 2.007.667.36 1.487.573 2.222.298a1.686 1.686 0 0 0 1.091-1.584c.007-4.981-.003-9.962.005-14.942-.016-.222.194-.404.409-.383a75.322 75.322 0 0 1 1.707.001c.237-.005.4.233.371.455-.002 5.013.006 10.025-.003 15.038.001 1.335-.548 2.789-1.783 3.442-1.523.79-3.404.622-4.908-.134-1.302-.65-2.544-1.417-3.823-2.113-.889-.46-1.503-1.421-1.497-2.428V10.403c-.01-.988.575-1.94 1.442-2.406L14.873.458Z"/><path d="M18.757 10.977c1.942-.125 4.02-.074 5.768.883 1.352.733 2.102 2.271 2.126 3.774-.038.203-.25.315-.443.301-.563 0-1.127.008-1.69-.004-.24.01-.378-.211-.408-.422-.162-.72-.554-1.432-1.23-1.778-1.04-.52-2.245-.495-3.378-.484-.827.044-1.716.116-2.417.602-.538.369-.701 1.112-.51 1.711.182.43.678.57 1.085.697 2.34.612 4.82.551 7.114 1.357.95.328 1.88.966 2.206 1.961.425 1.334.239 2.928-.71 3.998-.77.881-1.89 1.36-3.008 1.621-1.487.332-3.03.34-4.54.193-1.42-.162-2.897-.535-3.993-1.502-.937-.814-1.395-2.082-1.35-3.306.011-.207.217-.35.415-.334a83.967 83.967 0 0 1 1.702.001c.226-.016.394.18.406.393.105.685.362 1.404.96 1.81 1.153.744 2.6.693 3.92.714 1.094-.048 2.321-.063 3.214-.786.47-.412.61-1.102.483-1.695-.138-.502-.662-.735-1.112-.888-2.31-.73-4.817-.465-7.105-1.292-.929-.328-1.827-.948-2.184-1.902-.497-1.35-.27-3.021.779-4.056 1.022-1.029 2.497-1.425 3.9-1.567Z"/></g><defs><clipPath id="a"><path fill="#fff" d="M0 0h32.688v36H0z"/></clipPath></defs></svg>