<svg width="36" height="36" viewBox="0 0 36 36" fill="none" xmlns="http://www.w3.org/2000/svg">
<g clip-path="url(#clip0_7688_11695)">
<path d="M31.8012 18.2866C31.8012 25.8059 25.7056 31.9011 18.1864 31.9011C10.6672 31.9011 4.57178 25.8059 4.57178 18.2866C4.57178 10.7675 10.6672 4.67188 18.1864 4.67188C25.7055 4.67188 31.8012 10.7675 31.8012 18.2866Z" fill="white"/>
<path d="M16.7085 0.0522432C24.6645 -0.499424 29.9398 3.39394 32.9561 8.13755C34.4685 10.516 35.9524 14.1283 35.9592 17.8399C35.9665 21.8726 34.6601 25.3649 32.9561 27.9273C31.2047 30.561 28.9394 32.7363 26.1029 34.1646C21.3612 36.5522 14.7346 36.6175 10.3942 34.3186C5.56038 31.7584 1.84382 28.1042 0.460815 21.7671C-0.0926535 19.231 -0.156271 15.9542 0.614816 13.1428C0.795764 12.4832 1.12459 11.7892 1.38488 11.1407C2.63574 8.02442 4.76481 5.31457 7.39111 3.44033C8.44643 2.68725 9.72669 1.93825 10.8563 1.43825C12.2617 0.816188 14.628 0.196462 16.7085 0.0522432ZM14.0133 1.36131C11.0582 2.12748 8.89145 3.50011 7.0061 4.98046C4.28744 7.11511 2.55429 10.094 1.53888 13.6818C0.409201 17.6733 1.13485 22.5035 2.69395 25.5402C4.31072 28.6894 6.48156 31.1339 9.54718 32.8555C12.5297 34.5304 16.7246 35.6059 21.0977 34.7806C24.9831 34.0473 27.9341 32.3547 30.3381 29.8524C33.5544 26.5044 36.1395 20.3378 34.4193 13.8358C33.9594 12.098 33.3582 10.2868 32.4171 8.75355C31.9087 7.92521 31.1626 7.11031 30.4151 6.28947C27.594 3.19138 23.0344 0.521689 17.1705 0.89925C16.0545 0.971089 15.0738 1.08632 14.0133 1.36131Z" fill="white"/>
<path d="M19.0054 34.6188L34.7379 18.8867" stroke="black" stroke-width="0.446915"/>
<path d="M17.6304 33.3711L33.4315 17.5703" stroke="black" stroke-width="0.446915"/>
<path d="M16.2554 32.1274L32.1252 16.2578" stroke="black" stroke-width="0.446915"/>
<path d="M14.8804 30.8796L30.8188 14.9414" stroke="black" stroke-width="0.446915"/>
<path d="M13.5054 29.6358L29.5125 13.6289" stroke="black" stroke-width="0.446915"/>
<path d="M12.1304 28.3883L28.2061 12.3125" stroke="black" stroke-width="0.446915"/>
<path d="M10.7554 27.1442L26.8998 11" stroke="black" stroke-width="0.446915"/>
<path d="M9.37646 25.8965L25.5895 9.68359" stroke="black" stroke-width="0.446915"/>
<path d="M8.00146 24.6527L24.2829 8.37109" stroke="black" stroke-width="0.446915"/>
<path d="M6.62646 23.4049L22.9768 7.05469" stroke="black" stroke-width="0.446915"/>
<path d="M5.25146 22.1611L21.6705 5.74219" stroke="black" stroke-width="0.446915"/>
<path d="M3.87646 20.9134L20.3642 4.42578" stroke="black" stroke-width="0.446915"/>
<path d="M2.50146 19.6695L19.0578 3.11328" stroke="black" stroke-width="0.446915"/>
<path d="M1.12646 18.4217L17.7515 1.79688" stroke="black" stroke-width="0.446915"/>
<path d="M1.12256 18.582L17.1694 34.6296" stroke="black" stroke-width="0.446915"/>
<path d="M2.42334 17.2617L18.5014 33.3406" stroke="black" stroke-width="0.446915"/>
<path d="M3.72412 15.9414L19.8334 32.0514" stroke="black" stroke-width="0.446915"/>
<path d="M5.0249 14.6211L21.1654 30.7624" stroke="black" stroke-width="0.446915"/>
<path d="M6.32959 13.3008L22.5013 29.4732" stroke="black" stroke-width="0.446915"/>
<path d="M7.63037 11.9805L23.8334 28.1841" stroke="black" stroke-width="0.446915"/>
<path d="M8.93115 10.6602L25.1654 26.895" stroke="black" stroke-width="0.446915"/>
<path d="M10.2319 9.33984L26.4975 25.6058" stroke="black" stroke-width="0.446915"/>
<path d="M11.5327 8.02344L27.8295 24.3206" stroke="black" stroke-width="0.446915"/>
<path d="M12.8335 6.70312L29.1615 23.0314" stroke="black" stroke-width="0.446915"/>
<path d="M14.1343 5.38281L30.4935 21.7424" stroke="black" stroke-width="0.446915"/>
<path d="M15.4351 4.0625L31.8256 20.4532" stroke="black" stroke-width="0.446915"/>
<path d="M16.7397 2.74219L33.1615 19.1641" stroke="black" stroke-width="0.446915"/>
<path d="M18.0405 1.42188L34.4934 17.875" stroke="black" stroke-width="0.446915"/>
<path d="M29.4894 6.36538C28.0734 4.94942 26.3326 3.67348 24.2532 2.90023C22.0977 2.09872 19.6595 1.42312 16.7839 1.66816C12.2031 2.05863 8.98681 4.11388 6.54242 6.51938C4.83028 8.20421 3.54239 10.2688 2.69227 12.6796C1.44405 16.2194 1.51979 20.3975 2.92327 23.9991C4.12041 27.0711 6.07981 29.5489 8.85249 31.4683C11.4591 33.2728 15.2001 34.6724 19.4019 34.3175C24.5196 33.8853 28.2641 31.2597 30.7213 28.2343C31.35 27.4603 31.9752 26.5854 32.3383 25.5392C32.6942 24.7853 32.8683 24.2728 33.0314 23.9991C33.7139 22.4698 34.0755 20.8562 34.1864 19.071C34.5276 13.58 32.4149 9.29098 29.4894 6.36538ZM27.9811 23.0947C27.9713 23.1156 27.9626 23.1351 27.9524 23.1566C27.6985 23.8831 27.2612 24.4906 26.8216 25.0281C25.1031 27.1289 22.4847 28.9521 18.9058 29.2523C15.9673 29.4986 13.3512 28.5268 11.5284 27.2738C9.94449 26.185 8.74044 24.8371 7.89614 23.2173C7.84465 23.1198 7.35431 21.9901 7.35287 21.9404C6.68399 19.8657 6.62596 16.5297 7.31248 14.5277C7.77065 13.1916 8.53423 11.7459 9.54556 10.6006C10.9419 9.01911 12.3392 8.00574 14.5508 7.28944C15.5605 6.96236 16.4645 6.62945 17.7079 6.59644C20.7399 6.51572 23.8274 7.87706 25.4852 9.36852C27.0086 10.7391 28.7449 13.4089 29.1814 15.9137C29.6306 18.4919 29.1512 21.009 27.9811 23.0947Z" fill="white"/>
<path d="M22.7115 25.5687C21.9649 25.5687 21.3097 25.0959 21.081 24.3922L20.2494 21.8584H16.0894L15.3168 24.3691C15.0836 25.0865 14.4234 25.5667 13.6729 25.5667C13.4928 25.5667 13.3138 25.5382 13.141 25.4822C12.244 25.2129 11.7348 24.2474 12.0096 23.3312L15.5209 12.2089C15.7489 11.5013 16.4201 11.0078 17.1533 11.0078H19.0204C19.7578 11.0078 20.4289 11.4929 20.6525 12.1875L24.3452 23.3058C24.6405 24.2148 24.1516 25.1906 23.2559 25.4821C23.0788 25.5396 22.8957 25.5687 22.7115 25.5687Z" fill="black" stroke="white" stroke-width="1.34074"/>
<path d="M8.92287 7.46209L8.91849 7.45615C8.48061 6.85604 8.6091 6.01654 9.25398 5.54589C9.89885 5.07531 10.7273 5.2074 11.1651 5.80744L11.1695 5.81339C11.6074 6.41349 11.4789 7.25305 10.834 7.72364C10.1891 8.19422 9.36075 8.06219 8.92287 7.46209ZM10.5827 6.25078L10.5784 6.24484C10.3583 5.94332 9.94866 5.83961 9.62926 6.07272C9.31279 6.30366 9.28819 6.71507 9.5082 7.01665L9.51259 7.02259C9.73266 7.32411 10.1423 7.42782 10.4587 7.19688C10.7782 6.96377 10.8028 6.55236 10.5827 6.25078Z" fill="black"/>
<path d="M13.1448 3.53145L13.8028 3.32031L15.6477 5.46493L14.9157 5.69977L14.595 5.31747L13.6448 5.62235L13.61 6.11874L12.8921 6.34908L13.1448 3.53145ZM14.2274 4.84928L13.7282 4.237L13.6749 5.02657L14.2274 4.84928Z" fill="black"/>
<path d="M16.8335 4.17522L16.8393 2.72266L17.5674 2.72554L17.5617 4.16334C17.5602 4.53664 17.748 4.71477 18.0363 4.71597C18.3246 4.71711 18.5138 4.54786 18.5152 4.18567L18.521 2.72944L19.2491 2.73232L19.2434 4.1664C19.2401 5.00171 18.7619 5.36576 18.0263 5.36282C17.2908 5.35982 16.8303 4.98466 16.8335 4.17522Z" fill="black"/>
<path d="M21.8766 3.92125L21.1343 3.69469L21.3177 3.09375L23.488 3.75615L23.3046 4.35709L22.5624 4.13059L21.9906 6.00405L21.3048 5.79477L21.8766 3.92125Z" fill="black"/>
<path d="M25.427 4.59375L26.0239 4.991L25.4875 5.79713L26.2537 6.30703L26.7902 5.50083L27.3871 5.89808L25.9537 8.05199L25.3567 7.65475L25.9014 6.83625L25.1352 6.32635L24.5906 7.14485L23.9937 6.74761L25.427 4.59375Z" fill="black"/>
<path d="M27.5337 28.1423L27.5383 28.1481C27.9988 28.7311 27.9024 29.575 27.276 30.0699C26.6495 30.5648 25.8166 30.4644 25.3561 29.8815L25.3515 29.8757C24.891 29.2927 24.9874 28.4488 25.6138 27.9539C26.2402 27.4591 27.0731 27.5594 27.5337 28.1423ZM25.9211 29.4163L25.9257 29.4221C26.1571 29.715 26.5704 29.803 26.8808 29.5578C27.1882 29.3149 27.1971 28.9029 26.9657 28.6099L26.9611 28.6041C26.7297 28.3112 26.3163 28.2232 26.0089 28.4661C25.6986 28.7112 25.6897 29.1233 25.9211 29.4163Z" fill="black"/>
<path d="M23.4894 32.24L22.8412 32.4799L20.9038 30.4186L21.6248 30.1517L21.962 30.5196L22.8978 30.1732L22.9107 29.6758L23.6179 29.4141L23.4894 32.24ZM22.3498 30.9712L22.8755 31.5608L22.894 30.7697L22.3498 30.9712Z" fill="black"/>
<path d="M19.7774 31.748L19.8415 33.1991L19.1141 33.2312L19.0506 31.7948C19.0342 31.4219 18.838 31.253 18.55 31.2657C18.262 31.2785 18.0812 31.4566 18.0971 31.8185L18.1614 33.2733L17.434 33.3054L17.3707 31.8727C17.3339 31.0383 17.7941 30.6516 18.5288 30.6192C19.2637 30.5868 19.7417 30.9393 19.7774 31.748Z" fill="black"/>
<path d="M14.7243 32.2229L15.4737 32.4252L15.3099 33.0318L13.1187 32.4404L13.2824 31.8337L14.0319 32.036L14.5424 30.1445L15.2348 30.3314L14.7243 32.2229Z" fill="black"/>
<path d="M11.1812 31.6954L10.5661 31.3267L11.0639 30.4961L10.2745 30.0229L9.77667 30.8536L9.16162 30.485L10.4918 28.2656L11.1069 28.6343L10.6014 29.4776L11.3909 29.9508L11.8963 29.1075L12.5114 29.4761L11.1812 31.6954Z" fill="black"/>
</g>
<defs>
<clipPath id="clip0_7688_11695">
<rect width="36" height="36" fill="white"/>
</clipPath>
</defs>
</svg>
