<svg width="36" height="36" viewBox="0 0 36 36" fill="none" xmlns="http://www.w3.org/2000/svg">
<g clip-path="url(#clip0_22179_7549)">
<path d="M31.7597 18.2884C31.7597 25.8077 25.6641 31.9029 18.1449 31.9029C10.6257 31.9029 4.53027 25.8077 4.53027 18.2884C4.53027 10.7693 10.6257 4.67365 18.1449 4.67365C25.664 4.67365 31.7597 10.7693 31.7597 18.2884Z" fill="#18191B"/>
<path d="M16.668 0.0522432C24.624 -0.499424 29.8993 3.39394 32.9156 8.13755C34.428 10.516 35.9119 14.1283 35.9187 17.8399C35.926 21.8726 34.6196 25.3649 32.9156 27.9273C31.1642 30.561 28.8989 32.7363 26.0623 34.1646C21.3207 36.5522 14.6941 36.6175 10.3537 34.3186C5.51985 31.7584 1.8033 28.1042 0.420287 21.7671C-0.133181 19.231 -0.196798 15.9542 0.574288 13.1428C0.755237 12.4832 1.08406 11.7892 1.34435 11.1407C2.59521 8.02442 4.72428 5.31457 7.35058 3.44033C8.4059 2.68725 9.68616 1.93825 10.8157 1.43825C12.2212 0.816188 14.5875 0.196462 16.668 0.0522432ZM13.9728 1.36131C11.0177 2.12748 8.85092 3.50011 6.96558 4.98046C4.24691 7.11511 2.51377 10.094 1.49836 13.6818C0.368673 17.6733 1.09433 22.5035 2.65342 25.5402C4.2702 28.6894 6.44104 31.1339 9.50666 32.8555C12.4892 34.5304 16.684 35.6059 21.0572 34.7806C24.9426 34.0473 27.8935 32.3547 30.2975 29.8524C33.5139 26.5044 36.099 20.3378 34.3787 13.8358C33.9189 12.098 33.3177 10.2868 32.3766 8.75355C31.8682 7.92521 31.122 7.11031 30.3745 6.28947C27.5534 3.19138 22.9938 0.521689 17.13 0.89925C16.014 0.971089 15.0333 1.08632 13.9728 1.36131Z" fill="#18191B"/>
<path d="M18.9678 34.6166L34.7003 18.8845" stroke="white" stroke-width="0.446915"/>
<path d="M17.5928 33.3707L33.3939 17.5699" stroke="white" stroke-width="0.446915"/>
<path d="M16.2173 32.1249L32.0871 16.2554" stroke="white" stroke-width="0.446915"/>
<path d="M14.8418 30.879L30.7803 14.9408" stroke="white" stroke-width="0.446915"/>
<path d="M13.4668 29.6332L29.4739 13.6263" stroke="white" stroke-width="0.446915"/>
<path d="M12.0913 28.3875L28.167 12.3117" stroke="white" stroke-width="0.446915"/>
<path d="M10.7158 27.1413L26.8603 10.9971" stroke="white" stroke-width="0.446915"/>
<path d="M9.34033 25.8955L25.5534 9.68262" stroke="white" stroke-width="0.446915"/>
<path d="M7.96533 24.6496L24.2467 8.36804" stroke="white" stroke-width="0.446915"/>
<path d="M6.58984 23.4038L22.9402 7.05359" stroke="white" stroke-width="0.446915"/>
<path d="M5.21436 22.1579L21.6334 5.73901" stroke="white" stroke-width="0.446915"/>
<path d="M3.83887 20.912L20.3266 4.42438" stroke="white" stroke-width="0.446915"/>
<path d="M2.46387 19.6661L19.0203 3.10992" stroke="white" stroke-width="0.446915"/>
<path d="M1.08838 18.4202L17.7134 1.79535" stroke="white" stroke-width="0.446915"/>
<path d="M1.08252 18.5792L17.1294 34.6268" stroke="white" stroke-width="0.446915"/>
<path d="M2.38379 17.2593L18.4618 33.3381" stroke="white" stroke-width="0.446915"/>
<path d="M3.68506 15.9394L19.7943 32.0494" stroke="white" stroke-width="0.446915"/>
<path d="M4.98633 14.6194L21.1269 30.7607" stroke="white" stroke-width="0.446915"/>
<path d="M6.28809 13.2995L22.4598 29.4719" stroke="white" stroke-width="0.446915"/>
<path d="M7.58936 11.9796L23.7924 28.1832" stroke="white" stroke-width="0.446915"/>
<path d="M8.89062 10.6597L25.1249 26.8945" stroke="white" stroke-width="0.446915"/>
<path d="M10.1919 9.33972L26.4574 25.6057" stroke="white" stroke-width="0.446915"/>
<path d="M11.4932 8.01978L27.79 24.317" stroke="white" stroke-width="0.446915"/>
<path d="M12.7944 6.69983L29.1224 23.0281" stroke="white" stroke-width="0.446915"/>
<path d="M14.0957 5.37988L30.4549 21.7395" stroke="white" stroke-width="0.446915"/>
<path d="M15.397 4.06L31.7875 20.4507" stroke="white" stroke-width="0.446915"/>
<path d="M16.6987 2.74011L33.1204 19.1621" stroke="white" stroke-width="0.446915"/>
<path d="M18 1.42017L34.4529 17.8733" stroke="white" stroke-width="0.446915"/>
<path d="M29.4503 6.36648C28.0343 4.95052 26.2935 3.67458 24.2141 2.90133C22.0587 2.09981 19.6205 1.42421 16.7448 1.66926C12.164 2.05972 8.94775 4.11497 6.50335 6.52048C4.79122 8.20531 3.50333 10.2699 2.65321 12.6807C1.40499 16.2205 1.48073 20.3986 2.88421 24.0001C4.08135 27.0722 6.04075 29.55 8.81343 31.4694C11.42 33.2739 15.161 34.6735 19.3628 34.3186C24.4805 33.8864 28.225 31.2608 30.6823 28.2354C31.311 27.4614 31.9361 26.5865 32.2993 25.5403C32.6551 24.7864 32.8293 24.2739 32.9923 24.0002C33.6748 22.4709 34.0364 20.8573 34.1473 19.0721C34.4885 13.5811 32.3759 9.29208 29.4503 6.36648ZM27.942 23.0958C27.9323 23.1167 27.9235 23.1362 27.9133 23.1577C27.6594 23.8842 27.2221 24.4917 26.7825 25.0292C25.064 27.13 22.4456 28.9532 18.8667 29.2534C15.9283 29.4997 13.3121 28.5279 11.4894 27.2749C9.90542 26.1861 8.70138 24.8382 7.85708 23.2184C7.80558 23.1209 7.31525 21.9912 7.31381 21.9415C6.64493 19.8668 6.5869 16.5308 7.27342 14.5288C7.73158 13.1927 8.49517 11.747 9.5065 10.6017C10.9028 9.02021 12.3002 8.00683 14.5117 7.29054C15.5215 6.96346 16.4254 6.63055 17.6688 6.59754C20.7008 6.51682 23.7883 7.87816 25.4461 9.36962C26.9695 10.7402 28.7058 13.41 29.1423 15.9148C29.5915 18.493 29.1121 21.0101 27.942 23.0958Z" fill="#18191B"/>
<path d="M22.6724 25.5688C21.9258 25.5688 21.2706 25.096 21.042 24.3922L20.2104 21.8585H16.0504L15.2777 24.3691C15.0445 25.0866 14.3843 25.5668 13.6339 25.5668C13.4537 25.5668 13.2747 25.5383 13.1019 25.4822C12.2049 25.213 11.6957 24.2475 11.9705 23.3313L15.4818 12.2089C15.7098 11.5014 16.381 11.0079 17.1143 11.0079H18.9814C19.7187 11.0079 20.3899 11.493 20.6134 12.1876L24.3062 23.3058C24.6014 24.2148 24.1125 25.1906 23.2168 25.4822C23.0397 25.5397 22.8566 25.5688 22.6724 25.5688Z" fill="white" stroke="#18191B" stroke-width="1.34074"/>
<path d="M8.88283 7.46325L8.87845 7.4573C8.44057 6.8572 8.56907 6.0177 9.21394 5.54705C9.85881 5.07647 10.6872 5.20856 11.1251 5.8086L11.1295 5.81455C11.5673 6.41465 11.4389 7.25421 10.794 7.7248C10.1491 8.19538 9.32071 8.06335 8.88283 7.46325ZM10.5427 6.25194L10.5383 6.246C10.3183 5.94448 9.90862 5.84077 9.58922 6.07388C9.27275 6.30482 9.24815 6.71623 9.46817 7.01781L9.47255 7.02375C9.69262 7.32527 10.1022 7.42898 10.4187 7.19804C10.7382 6.96493 10.7628 6.55352 10.5427 6.25194Z" fill="white"/>
<path d="M13.1042 3.52998L13.7623 3.31885L15.6071 5.46346L14.8751 5.6983L14.5545 5.316L13.6043 5.62088L13.5695 6.11728L12.8516 6.34762L13.1042 3.52998ZM14.1869 4.84782L13.6877 4.23553L13.6344 5.0251L14.1869 4.84782Z" fill="white"/>
<path d="M16.7925 4.17516L16.7983 2.7226L17.5264 2.72548L17.5207 4.16328C17.5192 4.53658 17.707 4.71471 17.9953 4.71591C18.2836 4.71705 18.4728 4.5478 18.4741 4.18561L18.48 2.72938L19.2081 2.73226L19.2024 4.16634C19.1991 5.00164 18.7209 5.3657 17.9853 5.36276C17.2498 5.35976 16.7893 4.9846 16.7925 4.17516Z" fill="white"/>
<path d="M21.8375 3.92137L21.0952 3.69481L21.2786 3.09387L23.449 3.75627L23.2656 4.35721L22.5233 4.13071L21.9515 6.00417L21.2658 5.79489L21.8375 3.92137Z" fill="white"/>
<path d="M25.388 4.59479L25.9849 4.99203L25.4484 5.79817L26.2146 6.30807L26.7511 5.50187L27.348 5.89912L25.9147 8.05303L25.3177 7.65579L25.8624 6.83729L25.0962 6.32739L24.5515 7.14589L23.9546 6.74864L25.388 4.59479Z" fill="white"/>
<path d="M27.4966 28.1405L27.5012 28.1463C27.9617 28.7293 27.8653 29.5732 27.2389 30.0681C26.6124 30.563 25.7795 30.4627 25.319 29.8797L25.3144 29.8739C24.8538 29.2909 24.9503 28.447 25.5767 27.9521C26.2031 27.4573 27.036 27.5576 27.4966 28.1405ZM25.884 29.4145L25.8886 29.4203C26.12 29.7132 26.5333 29.8012 26.8437 29.5561C27.1511 29.3132 27.16 28.9011 26.9285 28.6082L26.924 28.6023C26.6926 28.3094 26.2792 28.2214 25.9718 28.4643C25.6615 28.7095 25.6526 29.1215 25.884 29.4145Z" fill="white"/>
<path d="M23.4489 32.2396L22.8007 32.4794L20.8633 30.4181L21.5843 30.1512L21.9214 30.5191L22.8573 30.1727L22.8702 29.6753L23.5773 29.4136L23.4489 32.2396ZM22.3092 30.9707L22.8349 31.5603L22.8535 30.7692L22.3092 30.9707Z" fill="white"/>
<path d="M19.7388 31.7476L19.8029 33.1987L19.0755 33.2308L19.012 31.7945C18.9956 31.4215 18.7995 31.2526 18.5115 31.2654C18.2234 31.2781 18.0426 31.4563 18.0586 31.8181L18.1228 33.2729L17.3954 33.305L17.3321 31.8724C17.2953 31.0379 17.7555 30.6513 18.4903 30.6189C19.2251 30.5864 19.7031 30.9389 19.7388 31.7476Z" fill="white"/>
<path d="M14.6847 32.2221L15.4341 32.4244L15.2703 33.0311L13.0791 32.4396L13.2429 31.8329L13.9923 32.0352L14.5029 30.1437L15.1952 30.3306L14.6847 32.2221Z" fill="white"/>
<path d="M11.1426 31.6949L10.5275 31.3263L11.0253 30.4956L10.2359 30.0225L9.73809 30.8531L9.12305 30.4845L10.4532 28.2652L11.0683 28.6339L10.5628 29.4772L11.3523 29.9504L11.8577 29.107L12.4728 29.4757L11.1426 31.6949Z" fill="white"/>
</g>
<defs>
<clipPath id="clip0_22179_7549">
<rect width="35.9187" height="36" fill="white"/>
</clipPath>
</defs>
</svg>
