<svg width="36" height="36" viewBox="0 0 36 36" fill="none" xmlns="http://www.w3.org/2000/svg">
<g clip-path="url(#clip0_27620_1752)">
<path fill-rule="evenodd" clip-rule="evenodd" d="M19.8001 0.259766L19.0601 9.37977C18.7101 9.33977 18.3601 9.31977 18.0001 9.31977C17.5501 9.31977 17.1101 9.34977 16.6801 9.41977L16.2601 4.99977C16.2501 4.85977 16.3601 4.73977 16.5001 4.73977H17.2501L16.8901 0.269766C16.8801 0.129766 16.9901 0.00976562 17.1201 0.00976562H19.5701C19.7101 0.00976562 19.8201 0.129766 19.8001 0.269766V0.259766ZM13.6201 0.709766C13.5801 0.579766 13.4401 0.499766 13.3101 0.549766L11.0101 1.38977C10.8801 1.43977 10.8201 1.58977 10.8801 1.70977L12.7501 5.78977L12.0401 6.04977C11.9101 6.09977 11.8501 6.24977 11.9101 6.36977L13.8201 10.3798C14.5101 9.99977 15.2601 9.70977 16.0501 9.52977L13.6301 0.709766H13.6201ZM7.9801 3.24977L13.2701 10.7098C12.6001 11.1498 11.9901 11.6698 11.4701 12.2698L8.3001 9.14977C8.2001 9.04976 8.2101 8.88977 8.3101 8.79977L8.8901 8.31977L5.7401 5.12977C5.6401 5.02977 5.6501 4.86977 5.7601 4.77977L7.6301 3.20977C7.7401 3.11977 7.8901 3.13977 7.9701 3.24977H7.9801ZM3.5401 7.56977C3.4301 7.48977 3.2701 7.52977 3.2001 7.64977L1.9801 9.76977C1.9101 9.88977 1.9601 10.0398 2.0801 10.0998L6.1401 12.0198L5.7601 12.6698C5.6901 12.7898 5.7401 12.9498 5.8701 12.9998L9.9101 14.8498C10.2001 14.0998 10.5901 13.3998 11.0701 12.7698L3.5401 7.56977ZM0.550098 13.3298C0.570098 13.1898 0.710098 13.1098 0.840098 13.1398L9.6901 15.4498C9.4601 16.1998 9.3301 16.9898 9.3101 17.8098L4.8801 17.4498C4.7401 17.4398 4.6401 17.3098 4.6701 17.1698L4.8001 16.4298L0.330098 16.0098C0.190098 15.9998 0.100098 15.8698 0.120098 15.7298L0.540098 13.3198L0.550098 13.3298ZM0.220098 19.3098C0.0800983 19.3198 -0.00990167 19.4498 0.0100983 19.5898L0.440098 21.9998C0.460098 22.1398 0.600098 22.2198 0.730098 22.1898L5.0701 21.0598L5.2001 21.7998C5.2201 21.9398 5.3601 22.0198 5.4901 21.9898L9.7701 20.8098C9.5201 20.0698 9.3601 19.2798 9.3201 18.4698L0.210098 19.3098H0.220098ZM1.6401 25.6498C1.5701 25.5298 1.6201 25.3798 1.7401 25.3198L10.0001 21.3998C10.3101 22.1398 10.7301 22.8298 11.2301 23.4498L7.6101 26.0298C7.5001 26.1098 7.3401 26.0798 7.2701 25.9598L6.8901 25.2998L3.2001 27.8498C3.0901 27.9298 2.9301 27.8898 2.8601 27.7698L1.6301 25.6498H1.6401ZM11.6501 23.9298L5.2201 30.4398C5.1201 30.5398 5.1301 30.6998 5.2401 30.7898L7.1201 32.3598C7.2301 32.4498 7.3801 32.4298 7.4601 32.3198L10.0601 28.6598L10.6401 29.1498C10.7501 29.2398 10.9101 29.2198 10.9901 29.0998L13.5101 25.4398C12.8301 25.0198 12.2001 24.5098 11.6601 23.9298H11.6501ZM10.3801 34.3798C10.2501 34.3298 10.1901 34.1798 10.2501 34.0598L14.0601 25.7398C14.7601 26.0998 15.5201 26.3698 16.3101 26.5198L15.1901 30.8198C15.1601 30.9498 15.0101 31.0298 14.8801 30.9798L14.1701 30.7198L12.9801 35.0498C12.9401 35.1798 12.8001 35.2598 12.6701 35.2098L10.3701 34.3698L10.3801 34.3798ZM16.9401 26.6298L16.2001 35.7498C16.1901 35.8898 16.3001 36.0098 16.4301 36.0098H18.8801C19.0201 36.0098 19.1301 35.8898 19.1101 35.7498L18.7501 31.2798H19.5001C19.6401 31.2798 19.7501 31.1598 19.7401 31.0198L19.3201 26.5998C18.8901 26.6698 18.4501 26.6998 18.0001 26.6998C17.6401 26.6998 17.2901 26.6798 16.9401 26.6298ZM25.7601 1.93977C25.8201 1.80977 25.7601 1.66977 25.6301 1.61977L23.3301 0.779766C23.2001 0.729766 23.0601 0.809766 23.0201 0.939766L21.8301 5.26977L21.1201 5.00977C20.9901 4.95977 20.8501 5.03977 20.8101 5.16977L19.6901 9.46977C20.4901 9.62977 21.2401 9.89977 21.9401 10.2498L25.7601 1.93977ZM30.7801 5.56977L24.3501 12.0798C23.8101 11.4998 23.1901 10.9898 22.5001 10.5698L25.0201 6.90977C25.1001 6.79977 25.2601 6.76977 25.3701 6.85977L25.9501 7.34977L28.5501 3.68977C28.6301 3.57977 28.7901 3.55977 28.8901 3.64977L30.7701 5.21977C30.8801 5.30977 30.8801 5.46977 30.7901 5.56977H30.7801ZM34.2601 10.6898C34.3901 10.6298 34.4301 10.4798 34.3601 10.3598L33.1301 8.23977C33.0601 8.11977 32.9001 8.08977 32.7901 8.15977L29.1001 10.7098L28.7201 10.0598C28.6501 9.93977 28.4901 9.89977 28.3801 9.98977L24.7601 12.5698C25.2601 13.1898 25.6701 13.8798 25.9901 14.6198L34.2501 10.6998L34.2601 10.6898ZM35.5601 14.0098L35.9801 16.4198C36.0001 16.5598 35.9101 16.6798 35.7701 16.6998L26.6601 17.5498C26.6201 16.7298 26.4601 15.9498 26.2101 15.2098L30.4901 14.0298C30.6201 13.9898 30.7601 14.0798 30.7801 14.2198L30.9101 14.9598L35.2501 13.8298C35.3801 13.7998 35.5201 13.8798 35.5401 14.0198L35.5601 14.0098ZM35.1501 22.8598C35.2801 22.8898 35.4201 22.8098 35.4401 22.6698L35.8601 20.2598C35.8801 20.1198 35.7901 19.9998 35.6501 19.9798L31.1801 19.5598L31.3101 18.8198C31.3301 18.6798 31.2401 18.5598 31.1001 18.5398L26.6701 18.1798C26.6501 18.9998 26.5201 19.7898 26.2901 20.5398L35.1401 22.8498L35.1501 22.8598ZM32.7901 28.3598C32.7201 28.4798 32.5601 28.5098 32.4501 28.4398L24.9201 23.2398C25.4001 22.6098 25.7901 21.9098 26.0801 21.1598L30.1201 23.0098C30.2501 23.0698 30.3001 23.2198 30.2301 23.3398L29.8501 23.9898L33.9101 25.9098C34.0301 25.9698 34.0801 26.1198 34.0101 26.2398L32.7901 28.3598ZM22.7201 25.2898L28.0101 32.7498C28.0901 32.8598 28.2501 32.8798 28.3501 32.7898L30.2201 31.2198C30.3301 31.1298 30.3301 30.9698 30.2401 30.8698L27.0901 27.6798L27.6701 27.1998C27.7801 27.1098 27.7801 26.9498 27.6801 26.8498L24.5101 23.7298C23.9801 24.3298 23.3801 24.8598 22.7101 25.2898H22.7201ZM22.6701 35.4498C22.5401 35.4998 22.4001 35.4198 22.3601 35.2898L19.9401 26.4698C20.7301 26.2898 21.4801 25.9998 22.1701 25.6198L24.0801 29.6298C24.1401 29.7598 24.0801 29.9098 23.9501 29.9498L23.2401 30.2098L25.1101 34.2898C25.1701 34.4198 25.1101 34.5598 24.9801 34.6098L22.6801 35.4498H22.6701Z" fill="#18191B"/>
</g>
<defs>
<clipPath id="clip0_27620_1752">
<rect width="36" height="36" fill="white"/>
</clipPath>
</defs>
</svg>
