<svg width="36" height="36" viewBox="0 0 36 36" fill="none" xmlns="http://www.w3.org/2000/svg">
<g clip-path="url(#clip0_7688_11632)">
<path fill-rule="evenodd" clip-rule="evenodd" d="M19.8006 0.261719L19.0606 9.38172C18.7106 9.34172 18.3606 9.32172 18.0006 9.32172C17.5506 9.32172 17.1106 9.35172 16.6806 9.42172L16.2606 5.00172C16.2506 4.86172 16.3606 4.74172 16.5006 4.74172H17.2506L16.8906 0.271719C16.8806 0.131719 16.9906 0.0117188 17.1206 0.0117188H19.5706C19.7106 0.0117188 19.8206 0.131719 19.8006 0.271719V0.261719ZM13.6206 0.711719C13.5806 0.581719 13.4406 0.501719 13.3106 0.551719L11.0106 1.39172C10.8806 1.44172 10.8206 1.59172 10.8806 1.71172L12.7506 5.79172L12.0406 6.05172C11.9106 6.10172 11.8506 6.25172 11.9106 6.37172L13.8206 10.3817C14.5106 10.0017 15.2606 9.71172 16.0506 9.53172L13.6306 0.711719H13.6206ZM7.98059 3.25172L13.2706 10.7117C12.6006 11.1517 11.9906 11.6717 11.4706 12.2717L8.30059 9.15172C8.20059 9.05172 8.21059 8.89172 8.31059 8.80172L8.89059 8.32172L5.74059 5.13172C5.64059 5.03172 5.65059 4.87172 5.76059 4.78172L7.63059 3.21172C7.74059 3.12172 7.89059 3.14172 7.97059 3.25172H7.98059ZM3.54059 7.57172C3.43059 7.49172 3.27059 7.53172 3.20059 7.65172L1.98059 9.77172C1.91059 9.89172 1.96059 10.0417 2.08059 10.1017L6.14059 12.0217L5.76059 12.6717C5.69059 12.7917 5.74059 12.9517 5.87059 13.0017L9.91059 14.8517C10.2006 14.1017 10.5906 13.4017 11.0706 12.7717L3.54059 7.57172ZM0.550587 13.3317C0.570587 13.1917 0.710587 13.1117 0.840587 13.1417L9.69059 15.4517C9.46059 16.2017 9.33059 16.9917 9.31059 17.8117L4.88059 17.4517C4.74059 17.4417 4.64059 17.3117 4.67059 17.1717L4.80059 16.4317L0.330587 16.0117C0.190587 16.0017 0.100587 15.8717 0.120587 15.7317L0.540587 13.3217L0.550587 13.3317ZM0.220587 19.3117C0.0805866 19.3217 -0.00941338 19.4517 0.0105866 19.5917L0.440587 22.0017C0.460587 22.1417 0.600587 22.2217 0.730587 22.1917L5.07059 21.0617L5.20059 21.8017C5.22059 21.9417 5.36059 22.0217 5.49059 21.9917L9.77059 20.8117C9.52059 20.0717 9.36059 19.2817 9.32059 18.4717L0.210587 19.3117H0.220587ZM1.64059 25.6517C1.57059 25.5317 1.62059 25.3817 1.74059 25.3217L10.0006 21.4017C10.3106 22.1417 10.7306 22.8317 11.2306 23.4517L7.61059 26.0317C7.50059 26.1117 7.34059 26.0817 7.27059 25.9617L6.89059 25.3017L3.20059 27.8517C3.09059 27.9317 2.93059 27.8917 2.86059 27.7717L1.63059 25.6517H1.64059ZM11.6506 23.9317L5.22059 30.4417C5.12059 30.5417 5.13059 30.7017 5.24059 30.7917L7.12059 32.3617C7.23059 32.4517 7.38059 32.4317 7.46059 32.3217L10.0606 28.6617L10.6406 29.1517C10.7506 29.2417 10.9106 29.2217 10.9906 29.1017L13.5106 25.4417C12.8306 25.0217 12.2006 24.5117 11.6606 23.9317H11.6506ZM10.3806 34.3817C10.2506 34.3317 10.1906 34.1817 10.2506 34.0617L14.0606 25.7417C14.7606 26.1017 15.5206 26.3717 16.3106 26.5217L15.1906 30.8217C15.1606 30.9517 15.0106 31.0317 14.8806 30.9817L14.1706 30.7217L12.9806 35.0517C12.9406 35.1817 12.8006 35.2617 12.6706 35.2117L10.3706 34.3717L10.3806 34.3817ZM16.9406 26.6317L16.2006 35.7517C16.1906 35.8917 16.3006 36.0117 16.4306 36.0117H18.8806C19.0206 36.0117 19.1306 35.8917 19.1106 35.7517L18.7506 31.2817H19.5006C19.6406 31.2817 19.7506 31.1617 19.7406 31.0217L19.3206 26.6017C18.8906 26.6717 18.4506 26.7017 18.0006 26.7017C17.6406 26.7017 17.2906 26.6817 16.9406 26.6317ZM25.7606 1.94172C25.8206 1.81172 25.7606 1.67172 25.6306 1.62172L23.3306 0.781719C23.2006 0.731719 23.0606 0.811719 23.0206 0.941719L21.8306 5.27172L21.1206 5.01172C20.9906 4.96172 20.8506 5.04172 20.8106 5.17172L19.6906 9.47172C20.4906 9.63172 21.2406 9.90172 21.9406 10.2517L25.7606 1.94172ZM30.7806 5.57172L24.3506 12.0817C23.8106 11.5017 23.1906 10.9917 22.5006 10.5717L25.0206 6.91172C25.1006 6.80172 25.2606 6.77172 25.3706 6.86172L25.9506 7.35172L28.5506 3.69172C28.6306 3.58172 28.7906 3.56172 28.8906 3.65172L30.7706 5.22172C30.8806 5.31172 30.8806 5.47172 30.7906 5.57172H30.7806ZM34.2606 10.6917C34.3906 10.6317 34.4306 10.4817 34.3606 10.3617L33.1306 8.24172C33.0606 8.12172 32.9006 8.09172 32.7906 8.16172L29.1006 10.7117L28.7206 10.0617C28.6506 9.94172 28.4906 9.90172 28.3806 9.99172L24.7606 12.5717C25.2606 13.1917 25.6706 13.8817 25.9906 14.6217L34.2506 10.7017L34.2606 10.6917ZM35.5606 14.0117L35.9806 16.4217C36.0006 16.5617 35.9106 16.6817 35.7706 16.7017L26.6606 17.5517C26.6206 16.7317 26.4606 15.9517 26.2106 15.2117L30.4906 14.0317C30.6206 13.9917 30.7606 14.0817 30.7806 14.2217L30.9106 14.9617L35.2506 13.8317C35.3806 13.8017 35.5206 13.8817 35.5406 14.0217L35.5606 14.0117ZM35.1506 22.8617C35.2806 22.8917 35.4206 22.8117 35.4406 22.6717L35.8606 20.2617C35.8806 20.1217 35.7906 20.0017 35.6506 19.9817L31.1806 19.5617L31.3106 18.8217C31.3306 18.6817 31.2406 18.5617 31.1006 18.5417L26.6706 18.1817C26.6506 19.0017 26.5206 19.7917 26.2906 20.5417L35.1406 22.8517L35.1506 22.8617ZM32.7906 28.3617C32.7206 28.4817 32.5606 28.5117 32.4506 28.4417L24.9206 23.2417C25.4006 22.6117 25.7906 21.9117 26.0806 21.1617L30.1206 23.0117C30.2506 23.0717 30.3006 23.2217 30.2306 23.3417L29.8506 23.9917L33.9106 25.9117C34.0306 25.9717 34.0806 26.1217 34.0106 26.2417L32.7906 28.3617ZM22.7206 25.2917L28.0106 32.7517C28.0906 32.8617 28.2506 32.8817 28.3506 32.7917L30.2206 31.2217C30.3306 31.1317 30.3306 30.9717 30.2406 30.8717L27.0906 27.6817L27.6706 27.2017C27.7806 27.1117 27.7806 26.9517 27.6806 26.8517L24.5106 23.7317C23.9806 24.3317 23.3806 24.8617 22.7106 25.2917H22.7206ZM22.6706 35.4517C22.5406 35.5017 22.4006 35.4217 22.3606 35.2917L19.9406 26.4717C20.7306 26.2917 21.4806 26.0017 22.1706 25.6217L24.0806 29.6317C24.1406 29.7617 24.0806 29.9117 23.9506 29.9517L23.2406 30.2117L25.1106 34.2917C25.1706 34.4217 25.1106 34.5617 24.9806 34.6117L22.6806 35.4517H22.6706Z" fill="white"/>
</g>
<defs>
<clipPath id="clip0_7688_11632">
<rect width="36" height="36" fill="white"/>
</clipPath>
</defs>
</svg>
