<svg width="36" height="36" viewBox="0 0 36 36" fill="none" xmlns="http://www.w3.org/2000/svg">
<g clip-path="url(#clip0_7688_10857)">
<path fill-rule="evenodd" clip-rule="evenodd" d="M18 0C8.07345 0 0 8.06999 0 17.9999C0 27.9205 8.07345 36 18 36C27.9265 36 36 27.9301 36 17.9999C36 8.06999 27.9265 0 18 0ZM24.6912 30.3908L24.6009 30.507C23.6593 31.6599 22.5074 32.0377 21.7061 32.1441C21.4957 32.1733 21.2854 32.1831 21.0651 32.1831C18.8815 32.1831 16.6778 30.7007 14.6945 27.8815C13.0818 25.5855 11.6795 22.5242 10.7479 19.2593C9.09515 13.4369 9.28547 8.12805 11.2287 5.72553C12.1703 4.57259 13.3222 4.19477 14.1235 4.08826C16.3973 3.77809 18.7212 5.10541 20.8247 7.9148C22.5675 10.2401 24.0701 13.4467 25.0719 16.9633C26.7044 22.6987 26.5442 27.9494 24.6912 30.3908Z" fill="#18191B"/>
</g>
<defs>
<clipPath id="clip0_7688_10857">
<rect width="36" height="36" fill="white"/>
</clipPath>
</defs>
</svg>
