<svg width="32" height="32" viewBox="0 0 32 32" fill="none" xmlns="http://www.w3.org/2000/svg">
<path d="M12.0169 20.2548C11.8759 20.2294 11.8206 20.2198 11.7654 20.2095C9.97938 19.8774 8.85038 18.7966 8.31538 17.0976C7.98188 16.0386 8.58787 15.2588 9.69862 15.2074C10.6081 15.1653 11.2306 15.688 11.7811 16.2963C12.4908 17.0805 13.1413 17.9179 13.8383 18.7139C14.8418 19.8598 16.0241 20.5976 17.6419 20.3699C19.0925 20.1656 20.3566 19.5835 21.4566 18.6254C21.622 18.4814 21.8034 18.3559 21.9775 18.2218C21.9409 18.1786 21.9044 18.1355 21.8678 18.0924C20.9444 18.3791 20.0026 18.4755 19.0404 18.4271C17.5844 18.3539 16.197 18.0499 14.9556 17.2505C13.8229 16.521 12.9875 15.5435 12.5904 14.2379C12.2696 13.1831 12.9261 12.4453 14.0191 12.5978C14.4512 12.658 14.815 12.8526 15.1415 13.1286C15.4074 13.3531 15.6624 13.5911 15.9335 13.8089C17.2093 14.834 18.9919 14.891 20.6112 13.778C17.949 13.7659 16.1378 12.3015 14.5469 10.4456C13.9243 9.71926 13.3164 8.97988 12.6809 8.26501C11.4512 6.88163 10.0871 5.66288 8.21925 5.24713C5.83325 4.71601 3.52975 5.06313 1.31875 6.07576C0.877875 6.27763 0.4545 6.51238 0 6.89063C0.225 6.89063 0.34775 6.89338 0.47025 6.89026C1.585 6.86151 2.42038 7.35688 3.02288 8.26876C3.46138 8.93238 3.668 9.68288 3.8255 10.455C4.05925 11.6009 3.93825 12.7691 4.07325 13.9203C4.42025 16.8796 5.93275 18.9448 8.749 20.0023C9.78175 20.3901 10.841 20.5193 12.0169 20.2548ZM4.8995 6.75513C4.4545 6.86738 4.09887 6.68776 3.73237 6.31688C4.36 6.16051 4.9135 6.09988 5.50825 6.07651C5.45963 6.46263 5.23187 6.67138 4.8995 6.75513ZM19.4818 24.0365C19.443 23.7516 19.1996 23.6261 19.0082 23.4771C18.1617 22.8183 17.1718 22.585 16.1221 22.5656C15.4958 22.5541 14.8759 22.5074 14.2851 22.2878C14.0144 22.1871 13.7115 22.0579 13.7184 21.708C13.7253 21.353 14.0341 21.2526 14.3153 21.1686C14.5454 21.0999 14.7829 21.056 15.0449 20.9948C14.3794 20.5683 13.7292 20.5091 12.863 20.8575C11.4994 21.4058 10.155 21.3408 8.79562 20.8499C8.02812 20.5729 7.347 20.138 6.63788 19.7529L6.6185 19.7663C6.62775 19.7599 6.6375 19.7531 6.63688 19.7535C6.61938 19.7 6.58763 19.6986 6.54688 19.7285C6.5655 19.7448 6.584 19.761 6.6025 19.7773C7.19062 20.7411 7.98512 21.5166 8.88262 22.1794C10.6111 23.4556 12.4991 24.2168 14.7083 23.879C15.4218 23.7699 16.1406 23.6853 16.8603 23.6273C17.7625 23.5544 18.6221 23.8083 19.4818 24.0365ZM15.3169 10.2091C15.2691 10.1745 15.2232 10.0876 15.1257 10.1775C15.9205 11.2525 16.9415 12.045 18.1709 12.5439C20.155 13.349 22.1687 13.4868 24.2284 12.7763C25.8274 12.2248 26.9773 12.7636 27.5744 14.3161C27.6608 12.5141 26.6006 11.2011 24.912 10.9438C23.962 10.799 23.0849 11.1141 22.195 11.3723C19.7186 12.0903 17.4174 11.7358 15.3169 10.2091ZM27.659 17.2376C27.9818 17.2648 28.3042 17.294 28.6269 17.3223C27.8979 16.6819 27.0094 16.6311 26.1105 16.6823C24.7418 16.76 23.7556 17.5494 22.8566 18.4925C22.0645 19.3238 21.3487 20.2563 20.1666 20.5903C20.1864 20.6258 20.1915 20.6435 20.197 20.6435C20.356 20.6459 20.5154 20.6534 20.674 20.6461C22.3909 20.5684 24.0082 20.2063 25.2949 18.9603C25.7 18.5679 26.0626 18.132 26.4538 17.7248C26.78 17.3851 27.1756 17.1969 27.659 17.2376ZM23.6706 15.1099C22.3894 15.2219 21.2764 15.7519 20.231 16.4508C19.4264 16.9886 18.5659 17.2431 17.5989 17.0749C17.4288 17.0453 17.2574 17.0231 17.0866 16.9975C17.0846 17.0214 17.0827 17.0451 17.0807 17.069C17.1422 17.1006 17.2016 17.1376 17.2656 17.163C17.4268 17.2268 17.5855 17.3035 17.7528 17.3433C19.6135 17.7856 21.3947 17.559 23.0007 16.5216C24.013 15.8678 25.0609 15.7439 26.1966 15.9128C26.3114 15.9299 26.4256 15.9508 26.5409 15.9615C26.6476 15.9716 26.7591 16.0778 26.9032 15.9629C25.9104 15.2456 24.8409 15.0076 23.6706 15.1099ZM19.0914 10.7608C19.7635 10.784 20.4326 10.696 21.1356 10.2784C20.9298 10.2966 20.8424 10.2963 20.7586 10.313C19.7901 10.506 18.9208 10.2948 18.1464 9.68251C17.8623 9.45776 17.5734 9.23901 17.2856 9.01888C16.1449 8.14638 14.8368 7.85451 13.4059 7.87926C13.429 7.94963 13.4304 7.99788 13.4552 8.02288C15.0121 9.59763 16.814 10.6823 19.0914 10.7608ZM30.3591 18.8405C29.3956 17.8849 28.1026 17.7618 26.9061 18.5958C27.6981 18.6314 28.2926 18.884 28.7747 19.3833C28.9454 19.5599 29.1223 19.7333 29.3131 19.8873C30.0421 20.4753 31.278 20.5035 32 19.958C31.1519 19.627 31.1519 19.627 30.3591 18.8405ZM20.7633 26.1586C19.9165 24.5825 18.4934 24.2269 16.8494 24.3326C17.3354 24.4674 17.7892 24.6748 18.2057 24.9655C18.5884 25.2326 18.9104 25.5634 19.2278 25.9021C19.8566 26.5733 20.8381 26.9851 21.4885 26.8459C21.1899 26.6576 20.9246 26.4589 20.7633 26.1586ZM28.6421 17.3548C28.6424 17.3448 28.6426 17.3346 28.6432 17.3241C28.6432 17.324 28.642 17.3254 28.6408 17.3268L28.6435 17.3238C28.638 17.3233 28.6324 17.3228 28.6269 17.3223C28.6301 17.3253 28.6336 17.3276 28.6369 17.3306C28.6386 17.3386 28.6404 17.3468 28.6421 17.3548ZM19.5287 24.0736C19.5176 24.0673 19.5065 24.061 19.4954 24.0548C19.4969 24.0619 19.4986 24.0689 19.5024 24.0746C19.5046 24.0784 19.5196 24.0741 19.5287 24.0736ZM19.4954 24.0548C19.4944 24.0496 19.4935 24.0444 19.4921 24.0393C19.4921 24.0393 19.4903 24.0416 19.4883 24.044L19.4921 24.0394C19.4887 24.0384 19.4853 24.0375 19.4818 24.0365C19.4824 24.0408 19.4839 24.0443 19.4844 24.0486C19.4881 24.0506 19.4917 24.0528 19.4954 24.0548Z" fill="#F05423"/>
</svg>
