<svg width="33" height="32" viewBox="0 0 33 32" fill="none" xmlns="http://www.w3.org/2000/svg">
<g clip-path="url(#clip0_7849_6331)">
<path d="M12.9055 20.2548C12.7645 20.2294 12.7093 20.2198 12.654 20.2095C10.868 19.8774 9.73905 18.7966 9.20405 17.0976C8.87055 16.0386 9.47655 15.2588 10.5873 15.2074C11.4968 15.1653 12.1193 15.688 12.6698 16.2963C13.3794 17.0805 14.0299 17.9179 14.7269 18.7139C15.7304 19.8598 16.9128 20.5976 18.5305 20.3699C19.9812 20.1656 21.2453 19.5835 22.3453 18.6254C22.5107 18.4814 22.692 18.3559 22.8662 18.2218C22.8295 18.1786 22.793 18.1355 22.7564 18.0924C21.833 18.3791 20.8913 18.4755 19.929 18.4271C18.473 18.3539 17.0857 18.0499 15.8443 17.2505C14.7115 16.521 13.8762 15.5435 13.479 14.2379C13.1583 13.1831 13.8148 12.4453 14.9078 12.5978C15.3399 12.658 15.7037 12.8526 16.0302 13.1286C16.296 13.3531 16.551 13.5911 16.8222 13.8089C18.0979 14.834 19.8805 14.891 21.4999 13.778C18.8377 13.7659 17.0264 12.3015 15.4355 10.4456C14.8129 9.71926 14.205 8.97988 13.5695 8.26501C12.3399 6.88163 10.9758 5.66288 9.10792 5.24713C6.72192 4.71601 4.41842 5.06313 2.20742 6.07576C1.76655 6.27763 1.34317 6.51238 0.888672 6.89063C1.11367 6.89063 1.23642 6.89338 1.35892 6.89026C2.47367 6.86151 3.30905 7.35688 3.91155 8.26876C4.35005 8.93238 4.55667 9.68288 4.71417 10.455C4.94792 11.6009 4.82692 12.7691 4.96192 13.9203C5.30892 16.8796 6.82142 18.9448 9.63767 20.0023C10.6704 20.3901 11.7297 20.5193 12.9055 20.2548ZM5.78817 6.75513C5.34317 6.86738 4.98755 6.68776 4.62105 6.31688C5.24867 6.16051 5.80217 6.09988 6.39692 6.07651C6.3483 6.46263 6.12055 6.67138 5.78817 6.75513ZM20.3704 24.0365C20.3317 23.7516 20.0883 23.6261 19.8969 23.4771C19.0504 22.8183 18.0604 22.585 17.0108 22.5656C16.3844 22.5541 15.7645 22.5074 15.1738 22.2878C14.903 22.1871 14.6002 22.0579 14.607 21.708C14.6139 21.353 14.9228 21.2526 15.2039 21.1686C15.434 21.0999 15.6715 21.056 15.9335 20.9948C15.268 20.5683 14.6179 20.5091 13.7517 20.8575C12.388 21.4058 11.0437 21.3408 9.6843 20.8499C8.9168 20.5729 8.23567 20.138 7.52655 19.7529L7.50717 19.7663C7.51642 19.7599 7.52617 19.7531 7.52555 19.7535C7.50805 19.7 7.4763 19.6986 7.43555 19.7285C7.45417 19.7448 7.47267 19.761 7.49117 19.7773C8.0793 20.7411 8.8738 21.5166 9.7713 22.1794C11.4998 23.4556 13.3878 24.2168 15.5969 23.879C16.3104 23.7699 17.0293 23.6853 17.7489 23.6273C18.6512 23.5544 19.5108 23.8083 20.3704 24.0365ZM16.2055 10.2091C16.1578 10.1745 16.1119 10.0876 16.0144 10.1775C16.8092 11.2525 17.8302 12.045 19.0595 12.5439C21.0437 13.349 23.0574 13.4868 25.117 12.7763C26.716 12.2248 27.8659 12.7636 28.463 14.3161C28.5494 12.5141 27.4893 11.2011 25.8007 10.9438C24.8507 10.799 23.9735 11.1141 23.0837 11.3723C20.6073 12.0903 18.306 11.7358 16.2055 10.2091ZM28.5477 17.2376C28.8704 17.2648 29.1929 17.294 29.5155 17.3223C28.7865 16.6819 27.898 16.6311 26.9992 16.6823C25.6304 16.76 24.6443 17.5494 23.7453 18.4925C22.9532 19.3238 22.2374 20.2563 21.0553 20.5903C21.075 20.6258 21.0802 20.6435 21.0857 20.6435C21.2447 20.6459 21.404 20.6534 21.5627 20.6461C23.2795 20.5684 24.8969 20.2063 26.1835 18.9603C26.5887 18.5679 26.9513 18.132 27.3424 17.7248C27.6687 17.3851 28.0643 17.1969 28.5477 17.2376ZM24.5593 15.1099C23.278 15.2219 22.165 15.7519 21.1197 16.4508C20.315 16.9886 19.4545 17.2431 18.4875 17.0749C18.3174 17.0453 18.146 17.0231 17.9753 16.9975C17.9733 17.0214 17.9714 17.0451 17.9694 17.069C18.0309 17.1006 18.0903 17.1376 18.1543 17.163C18.3154 17.2268 18.4742 17.3035 18.6414 17.3433C20.5022 17.7856 22.2834 17.559 23.8894 16.5216C24.9017 15.8678 25.9495 15.7439 27.0853 15.9128C27.2 15.9299 27.3143 15.9508 27.4295 15.9615C27.5363 15.9716 27.6478 16.0778 27.7919 15.9629C26.799 15.2456 25.7295 15.0076 24.5593 15.1099ZM19.98 10.7608C20.6522 10.784 21.3213 10.696 22.0243 10.2784C21.8184 10.2966 21.731 10.2963 21.6473 10.313C20.6788 10.506 19.8094 10.2948 19.035 9.68251C18.7509 9.45776 18.462 9.23901 18.1743 9.01888C17.0335 8.14638 15.7254 7.85451 14.2945 7.87926C14.3177 7.94963 14.319 7.99788 14.3439 8.02288C15.9008 9.59763 17.7027 10.6823 19.98 10.7608ZM31.2478 18.8405C30.2843 17.8849 28.9913 17.7618 27.7948 18.5958C28.5868 18.6314 29.1813 18.884 29.6634 19.3833C29.834 19.5599 30.0109 19.7333 30.2018 19.8873C30.9308 20.4753 32.1667 20.5035 32.8887 19.958C32.0405 19.627 32.0405 19.627 31.2478 18.8405ZM21.6519 26.1586C20.8052 24.5825 19.382 24.2269 17.738 24.3326C18.224 24.4674 18.6779 24.6748 19.0944 24.9655C19.477 25.2326 19.799 25.5634 20.1164 25.9021C20.7453 26.5733 21.7268 26.9851 22.3772 26.8459C22.0785 26.6576 21.8133 26.4589 21.6519 26.1586ZM29.5308 17.3548C29.531 17.3448 29.5313 17.3346 29.5319 17.3241C29.5319 17.324 29.5307 17.3254 29.5294 17.3268L29.5322 17.3238C29.5267 17.3233 29.521 17.3228 29.5155 17.3223C29.5188 17.3253 29.5223 17.3276 29.5255 17.3306C29.5273 17.3386 29.529 17.3468 29.5308 17.3548ZM20.4174 24.0736C20.4063 24.0673 20.3952 24.061 20.384 24.0548C20.3855 24.0619 20.3873 24.0689 20.391 24.0746C20.3933 24.0784 20.4083 24.0741 20.4174 24.0736ZM20.384 24.0548C20.383 24.0496 20.3822 24.0444 20.3808 24.0393C20.3808 24.0393 20.3789 24.0416 20.3769 24.044L20.3808 24.0394C20.3774 24.0384 20.3739 24.0375 20.3704 24.0365C20.371 24.0408 20.3725 24.0443 20.373 24.0486C20.3768 24.0506 20.3804 24.0528 20.384 24.0548Z" fill="#F05423"/>
</g>
<defs>
<clipPath id="clip0_7849_6331">
<rect width="32" height="32" fill="white" transform="translate(0.888672)"/>
</clipPath>
</defs>
</svg>
