<svg width="36" height="36" viewBox="0 0 36 36" fill="none" xmlns="http://www.w3.org/2000/svg">
<g clip-path="url(#clip0_7688_10607)">
<path d="M14.4775 23.3346H18.5325C18.7001 23.3346 18.9011 23.5022 18.9011 23.7032V26.2837C18.9011 31.143 15.3488 35.3992 10.5565 35.9354C4.85934 36.6056 0 32.1149 0 26.5183C0 22.4968 2.51345 19.0785 6.06579 17.7045C6.30038 17.6374 6.53497 17.8385 6.53497 18.0731V22.7649C6.53497 22.8989 6.46795 22.9324 6.40092 22.9995C5.19446 24.0719 4.4907 25.6805 4.89285 27.4902C5.26149 29.2999 6.70253 30.7409 8.4787 31.076C11.4613 31.6793 14.0418 29.4004 14.0418 26.5183V23.7032C14.1088 23.4687 14.2429 23.3346 14.4775 23.3346Z" fill="#A02338"/>
<path d="M9.4501 21.8571H12.2652C12.4327 21.8571 12.6338 21.6895 12.6338 21.4884V20.215C12.6338 18.4723 11.1928 17.0312 9.4501 17.0312C9.01443 17.0312 8.61228 17.0983 8.17661 17.1653C8.00905 17.1653 7.875 17.3329 7.875 17.5339V21.656C7.875 21.8906 8.10959 22.0917 8.31067 22.0246C8.64579 21.9241 9.08146 21.8571 9.4501 21.8571Z" fill="#A02338"/>
<path d="M20.3438 17.4022C20.3438 19.8486 22.321 21.8258 24.7339 21.8258C24.7339 21.8258 24.7339 21.8258 24.8009 21.8258C24.9685 21.8258 25.1696 21.6583 25.1696 21.4572V17.3686C25.1696 17.2011 25.002 17 24.8009 17H20.7124C20.4778 17.067 20.3438 17.2346 20.3438 17.4022Z" fill="#FF3855"/>
<path d="M26.4762 21.322V17.133C26.4762 16.9654 26.6102 16.8313 26.7108 16.7643C29.5928 15.9265 31.5701 13.0444 31.0339 9.79369C30.5982 7.34726 28.621 5.30299 26.1746 4.86733C22.2871 4.16356 18.8688 7.14618 18.8688 10.9331V15.3568C18.8688 15.5244 18.7012 15.7254 18.5002 15.7254H14.4116C14.244 15.7254 14.043 15.5579 14.043 15.3568V11.2347C14.043 5.30299 18.6677 0.276093 24.5324 0.00799188C30.7658 -0.226597 35.8597 4.73327 35.8597 10.9331C35.8597 16.3287 31.9722 20.8194 26.8113 21.6572C26.7108 21.7242 26.4762 21.5566 26.4762 21.322Z" fill="#FF3855"/>
<path d="M18.5002 17.0664H14.4116C14.244 17.0664 14.043 17.234 14.043 17.435V21.5236C14.043 21.6912 14.2105 21.8922 14.4116 21.8922H18.5002C18.6677 21.8922 18.8688 21.7247 18.8688 21.5236V17.435C18.8353 17.234 18.7347 17.0664 18.5002 17.0664Z" fill="#A02338"/>
</g>
<defs>
<clipPath id="clip0_7688_10607">
<rect width="36" height="36" fill="white"/>
</clipPath>
</defs>
</svg>
