<svg width="36" height="36" viewBox="0 0 36 36" fill="none" xmlns="http://www.w3.org/2000/svg">
<g clip-path="url(#clip0_22179_7531)">
<path d="M14.4775 23.3328H18.5325C18.7001 23.3328 18.9011 23.5004 18.9011 23.7015V26.2819C18.9011 31.1413 15.3488 35.3974 10.5565 35.9336C4.85934 36.6038 0 32.1131 0 26.5165C0 22.495 2.51345 19.0767 6.06579 17.7027C6.30038 17.6357 6.53497 17.8368 6.53497 18.0713V22.7631C6.53497 22.8972 6.46795 22.9307 6.40092 22.9977C5.19446 24.0701 4.4907 25.6787 4.89285 27.4884C5.26149 29.2981 6.70253 30.7391 8.4787 31.0743C11.4613 31.6775 14.0418 29.3986 14.0418 26.5165V23.7015C14.1088 23.4669 14.2429 23.3328 14.4775 23.3328Z" fill="#18191B"/>
<path d="M9.45107 21.8582H12.2661C12.4337 21.8582 12.6348 21.6907 12.6348 21.4896V20.2161C12.6348 18.4735 11.1937 17.0324 9.45107 17.0324C9.01541 17.0324 8.61326 17.0994 8.17759 17.1665C8.01003 17.1665 7.87598 17.334 7.87598 17.5351V21.6572C7.87598 21.8917 8.11057 22.0928 8.31164 22.0258C8.64677 21.9253 9.08243 21.8582 9.45107 21.8582Z" fill="#18191B"/>
<path d="M20.3423 17.4011C20.3423 19.8475 22.3195 21.8248 24.7324 21.8248C24.7324 21.8248 24.7324 21.8248 24.7995 21.8248C24.967 21.8248 25.1681 21.6572 25.1681 21.4561V17.3676C25.1681 17.2 25.0005 16.999 24.7995 16.999H20.7109C20.4763 17.066 20.3423 17.2336 20.3423 17.4011Z" fill="#18191B"/>
<path d="M26.4752 21.322V17.133C26.4752 16.9654 26.6092 16.8313 26.7098 16.7643C29.5919 15.9265 31.5691 13.0444 31.0329 9.79369C30.5972 7.34726 28.62 5.30299 26.1736 4.86733C22.2861 4.16356 18.8678 7.14618 18.8678 10.9331V15.3568C18.8678 15.5244 18.7003 15.7254 18.4992 15.7254H14.4106C14.2431 15.7254 14.042 15.5579 14.042 15.3568V11.2347C14.042 5.30299 18.6667 0.276093 24.5315 0.00799188C30.7648 -0.226597 35.8587 4.73327 35.8587 10.9331C35.8587 16.3287 31.9713 20.8194 26.8103 21.6572C26.7098 21.7242 26.4752 21.5566 26.4752 21.322Z" fill="#18191B"/>
<path d="M18.4992 17.066H14.4106C14.2431 17.066 14.042 17.2335 14.042 17.4346V21.5232C14.042 21.6907 14.2096 21.8918 14.4106 21.8918H18.4992C18.6667 21.8918 18.8678 21.7242 18.8678 21.5232V17.4346C18.8343 17.2335 18.7338 17.066 18.4992 17.066Z" fill="#18191B"/>
</g>
<defs>
<clipPath id="clip0_22179_7531">
<rect width="36" height="36" fill="white"/>
</clipPath>
</defs>
</svg>
