<svg width="36" height="36" viewBox="0 0 36 36" fill="none" xmlns="http://www.w3.org/2000/svg">
<path d="M33.8483 22.0212C29.6712 22.8828 29.384 21.4686 29.384 21.4686C33.7944 14.9243 35.638 6.61744 34.047 4.58437C29.7065 -0.961456 22.1929 1.66136 22.0675 1.72946L22.0271 1.73668C21.2019 1.56537 20.2783 1.46331 19.2403 1.44637C17.3502 1.4154 15.9165 1.94187 14.8286 2.76687C14.8286 2.76687 1.42505 -2.75487 2.04843 9.71151C2.18105 12.3636 5.84967 29.7787 10.2255 24.5185C11.8248 22.5951 13.3701 20.9687 13.3701 20.9687C14.1376 21.4786 15.0565 21.7387 16.0197 21.6453L16.0946 21.5817C16.0713 21.8206 16.0819 22.0542 16.1245 22.3307C14.9973 23.5901 15.3285 23.8113 13.0751 24.2751C10.7949 24.7451 12.1344 25.5817 13.009 25.8003C14.0692 26.0655 16.5221 26.4411 18.1795 24.1209L18.1134 24.3857C18.5551 24.7394 18.8653 26.6868 18.8133 28.4521C18.7613 30.2174 18.7266 31.4294 19.0746 32.376C19.4226 33.3227 19.7695 35.4527 22.7319 34.8179C25.2072 34.2874 26.4899 32.9128 26.6684 30.6198C26.795 28.9897 27.0816 29.2306 27.0997 27.7732L27.3295 27.0832C27.5946 24.8734 27.3716 24.1605 28.8967 24.4921L29.2673 24.5247C30.3897 24.5757 31.8588 24.3442 32.721 23.9434C34.5776 23.0818 35.6787 21.6432 33.8481 22.0212H33.8483Z" stroke="#679BC6" stroke-width="1.46639" stroke-linecap="round" stroke-linejoin="round"/>
<path d="M18.3625 23.2891C18.2475 27.4009 18.3914 31.5413 18.7938 32.5476C19.1963 33.5539 20.0579 35.5111 23.0205 34.8765C25.4956 34.3458 26.3962 33.319 26.7869 31.0524C27.0748 29.3848 27.6296 24.7535 27.7008 23.8046" stroke="#679BC6" stroke-width="1.46639" stroke-linecap="round" stroke-linejoin="round"/>
<path d="M14.8102 2.67693C14.8102 2.67693 1.39754 -2.80504 2.02109 9.66134C2.1537 12.3135 5.82257 29.7291 10.1983 24.4687C11.7973 22.545 13.2434 21.0362 13.2434 21.0362" stroke="#679BC6" stroke-width="1.46639" stroke-linecap="round" stroke-linejoin="round"/>
<path d="M22.0547 1.67517C21.5904 1.82074 29.5157 -1.22201 34.0197 4.53316C35.6106 6.56631 33.767 14.8732 29.3567 21.4176" stroke="#679BC6" stroke-width="1.46639" stroke-linecap="round" stroke-linejoin="round"/>
<path d="M29.3572 21.4184C29.3572 21.4184 29.6446 22.8331 33.8218 21.9709C35.652 21.5929 34.5506 23.0316 32.6944 23.8937C31.171 24.6007 27.7557 24.7819 27.6999 23.8049C27.5563 21.2842 29.4973 22.05 29.3572 21.4184ZM29.3572 21.4184C29.2306 20.8496 28.3626 20.2913 27.7884 18.8992C27.2871 17.684 20.913 8.36562 29.556 9.74957C29.8727 9.68405 27.3018 1.52844 19.2132 1.39583C11.1263 1.26321 11.3916 11.3409 11.3916 11.3409" stroke="#679BC6" stroke-width="1.46639" stroke-linecap="round" stroke-linejoin="bevel"/>
<path d="M16.0953 22.279C14.9679 23.5384 15.2995 23.7595 13.0459 24.2235C10.7657 24.6935 12.1053 25.53 12.9797 25.7486C14.0399 26.0139 16.4928 26.3895 18.1502 24.0687C18.655 23.3622 18.1472 22.2347 17.4539 21.9473C17.119 21.8086 16.671 21.6347 16.0953 22.279Z" stroke="#679BC6" stroke-width="1.46639" stroke-linecap="round" stroke-linejoin="round"/>
<path d="M16.025 22.2589C15.9114 21.5185 16.2683 20.6373 16.6507 19.6065C17.2255 18.0598 18.5518 16.5128 17.4909 11.6065C16.7001 7.95031 11.3961 10.8456 11.3927 11.3413C11.3895 11.8369 11.6326 13.8541 11.3041 16.2032C10.8755 19.2684 13.2546 21.8608 15.9941 21.5956" stroke="#679BC6" stroke-width="1.46639" stroke-linecap="round" stroke-linejoin="round"/>
<path d="M14.759 11.2665C14.7351 11.4358 15.069 11.8876 15.5044 11.948C15.939 12.0086 16.311 11.6555 16.3346 11.4864C16.3582 11.3171 16.0247 11.1306 15.5892 11.0699C15.1543 11.0092 14.7821 11.0976 14.7591 11.2665H14.759Z" fill="#679BC6" stroke="#679BC6" stroke-width="0.488794"/>
<path d="M27.9992 10.9188C28.0228 11.0881 27.6893 11.5399 27.2538 11.6003C26.8188 11.6609 26.4468 11.3079 26.423 11.1387C26.4 10.9694 26.7336 10.7829 27.1686 10.7223C27.6037 10.6616 27.9756 10.7499 27.9992 10.9189V10.9188Z" fill="#679BC6" stroke="#679BC6" stroke-width="0.244397"/>
<path d="M29.5572 9.75C29.6289 11.0781 29.2711 11.9828 29.226 13.3966C29.1593 15.4517 30.2058 17.8039 28.6289 20.159" stroke="#679BC6" stroke-width="1.46639" stroke-linecap="round" stroke-linejoin="round"/>
</svg>
