<svg width="36" height="36" viewBox="0 0 36 36" fill="none" xmlns="http://www.w3.org/2000/svg">
<path d="M33.8502 22.0219C29.6731 22.8835 29.386 21.4692 29.386 21.4692C33.7963 14.925 35.64 6.61811 34.0489 4.58504C29.7084 -0.960785 22.1948 1.66203 22.0694 1.73013L22.0291 1.73735C21.2038 1.56604 20.2802 1.46398 19.2422 1.44704C17.3522 1.41607 15.9185 1.94254 14.8306 2.76755C14.8306 2.76755 1.427 -2.7542 2.05039 9.71218C2.183 12.3643 5.85163 29.7794 10.2274 24.5192C11.8268 22.5958 13.3721 20.9694 13.3721 20.9694C14.1396 21.4793 15.0584 21.7394 16.0217 21.6459L16.0965 21.5824C16.0733 21.8212 16.0839 22.0548 16.1265 22.3314C14.9992 23.5908 15.3305 23.812 13.077 24.2758C10.7968 24.7457 12.1363 25.5824 13.0109 25.801C14.0712 26.0662 16.5241 26.4417 18.1815 24.1216L18.1154 24.3863C18.5571 24.7401 18.8672 26.6875 18.8152 28.4527C18.7633 30.2181 18.7286 31.43 19.0766 32.3767C19.4246 33.3234 19.7715 35.4533 22.7338 34.8186C25.2092 34.2881 26.4919 32.9135 26.6703 30.6205C26.797 28.9903 27.0835 29.2313 27.1016 27.7739L27.3315 27.0839C27.5966 24.8741 27.3736 24.1612 28.8986 24.4928L29.2692 24.5254C30.3917 24.5764 31.8607 24.3448 32.723 23.9441C34.5796 23.0824 35.6807 21.6439 33.8501 22.0219H33.8502Z" stroke="currentColor" stroke-width="1.46639" stroke-linecap="round" stroke-linejoin="round"/>
<path d="M18.3616 23.2886C18.2466 27.4004 18.3905 31.5408 18.7928 32.5471C19.1954 33.5534 20.0569 35.5106 23.0195 34.876C25.4946 34.3453 26.3952 33.3185 26.786 31.0519C27.0738 29.3843 27.6287 24.753 27.6998 23.8041" stroke="currentColor" stroke-width="1.46639" stroke-linecap="round" stroke-linejoin="round"/>
<path d="M14.8102 2.67571C14.8102 2.67571 1.39754 -2.80626 2.02109 9.66012C2.1537 12.3122 5.82257 29.7279 10.1983 24.4675C11.7973 22.5438 13.2434 21.035 13.2434 21.035" stroke="currentColor" stroke-width="1.46639" stroke-linecap="round" stroke-linejoin="round"/>
<path d="M22.0547 1.67517C21.5904 1.82074 29.5157 -1.22201 34.0197 4.53316C35.6106 6.56631 33.767 14.8732 29.3567 21.4176" stroke="currentColor" stroke-width="1.46639" stroke-linecap="round" stroke-linejoin="round"/>
<path d="M29.3572 21.4176C29.3572 21.4176 29.6446 22.8323 33.8218 21.9701C35.652 21.5921 34.5506 23.0309 32.6944 23.8929C31.171 24.5999 27.7557 24.7811 27.6999 23.8041C27.5563 21.2834 29.4973 22.0492 29.3572 21.4176ZM29.3572 21.4176C29.2306 20.8488 28.3626 20.2905 27.7884 18.8984C27.2871 17.6832 20.913 8.36483 29.556 9.74877C29.8727 9.68326 27.3018 1.52765 19.2132 1.39504C11.1263 1.26242 11.3916 11.3401 11.3916 11.3401" stroke="currentColor" stroke-width="1.46639" stroke-linecap="round" stroke-linejoin="bevel"/>
<path d="M16.0963 22.2797C14.9689 23.539 15.3004 23.7602 13.0468 24.2242C10.7666 24.6942 12.1063 25.5307 12.9806 25.7492C14.0409 26.0145 16.4938 26.3901 18.1512 24.0694C18.6559 23.3628 18.1482 22.2354 17.4549 21.948C17.1199 21.8092 16.672 21.6354 16.0963 22.2797Z" stroke="currentColor" stroke-width="1.46639" stroke-linecap="round" stroke-linejoin="round"/>
<path d="M16.024 22.2576C15.9104 21.5171 16.2673 20.636 16.6498 19.6051C17.2246 18.0584 18.5508 16.5115 17.4899 11.6051C16.6991 7.94897 11.3951 10.8442 11.3918 11.34C11.3885 11.8356 11.6317 13.8528 11.3032 16.2018C10.8745 19.2671 13.2536 21.8595 15.9932 21.5943" stroke="currentColor" stroke-width="1.46639" stroke-linecap="round" stroke-linejoin="round"/>
<path d="M14.76 11.2656C14.7361 11.435 15.07 11.8868 15.5054 11.9472C15.94 12.0078 16.312 11.6547 16.3356 11.4855C16.3592 11.3162 16.0257 11.1297 15.5901 11.0691C15.1553 11.0084 14.7831 11.0967 14.7601 11.2656H14.76Z" fill="currentColor" stroke="currentColor" stroke-width="0.488794"/>
<path d="M28.0002 10.9205C28.0237 11.0898 27.6903 11.5417 27.2548 11.602C26.8198 11.6626 26.4478 11.3096 26.424 11.1404C26.401 10.9711 26.7345 10.7846 27.1696 10.724C27.6046 10.6633 27.9766 10.7516 28.0002 10.9206V10.9205Z" fill="currentColor" stroke="currentColor" stroke-width="0.244397"/>
<path d="M29.5562 9.74872C29.6279 11.0769 29.2702 11.9815 29.2251 13.3953C29.1583 15.4504 30.2049 17.8026 28.6279 20.1577" stroke="currentColor" stroke-width="1.46639" stroke-linecap="round" stroke-linejoin="round"/>
</svg>
