<svg xmlns="http://www.w3.org/2000/svg" width="30" height="36" fill="none"><g clip-path="url(#a)"><path fill="#1A1A1A" d="M29.249 27.286 17.022 1.321a1.962 1.962 0 0 0-1.67-1.117 1.94 1.94 0 0 0-1.787.926L.304 22.609a2.009 2.009 0 0 0 .022 2.156l6.483 10.04a2.085 2.085 0 0 0 2.342.862L27.966 30.1a2.063 2.063 0 0 0 1.295-1.118 2.018 2.018 0 0 0-.011-1.698l-.001.001ZM26.51 28.4l-15.965 4.721a.67.67 0 0 1-.854-.769L15.396 5.04c.107-.51.813-.591 1.036-.119l10.56 22.424a.763.763 0 0 1-.481 1.056Z"/></g><defs><clipPath id="a"><path fill="#fff" d="M0 0h29.736v36H0z"/></clipPath></defs></svg>