<svg width="30" height="36" viewBox="0 0 30 36" fill="none" xmlns="http://www.w3.org/2000/svg">
<g clip-path="url(#clip0_16969_7125)">
<path d="M29.2488 27.2861L17.0219 1.32053C16.87 1.00104 16.6345 0.728563 16.3404 0.531939C16.0463 0.335314 15.7045 0.221853 15.3512 0.203561C14.9972 0.17984 14.6435 0.253628 14.3286 0.416901C14.0136 0.580173 13.7494 0.82668 13.5648 1.12961L0.303563 22.6086C0.101919 22.9329 -0.00309244 23.3079 0.000838895 23.6898C0.00477023 24.0717 0.117481 24.4445 0.325759 24.7646L6.80922 34.805C7.05451 35.1819 7.41507 35.4694 7.83712 35.6246C8.25917 35.7799 8.7201 35.7945 9.15113 35.6663L27.9663 30.1008C28.2496 30.018 28.5119 29.8753 28.7353 29.6824C28.9587 29.4895 29.1381 29.2509 29.2613 28.9827C29.3828 28.7159 29.4448 28.4258 29.4428 28.1326C29.4407 27.8395 29.3749 27.5503 29.2497 27.2852L29.2488 27.2861ZM26.5114 28.3997L10.5456 33.1208C10.0585 33.2657 9.59104 32.8435 9.69236 32.352L15.3965 5.03922C15.5031 4.52824 16.2088 4.44727 16.4319 4.92019L26.9913 27.3438C27.038 27.4437 27.0624 27.5526 27.063 27.6629C27.0635 27.7731 27.0401 27.8822 26.9944 27.9826C26.9487 28.0829 26.8818 28.1722 26.7983 28.2442C26.7147 28.3162 26.6166 28.3692 26.5106 28.3996L26.5114 28.3997Z" fill="white"/>
</g>
<defs>
<clipPath id="clip0_16969_7125">
<rect width="29.7358" height="36" fill="white"/>
</clipPath>
</defs>
</svg>
