<svg width="30" height="36" viewBox="0 0 30 36" fill="none" xmlns="http://www.w3.org/2000/svg">
<g clip-path="url(#clip0_16968_13961)">
<path d="M29.2481 27.2861L17.0212 1.32053C16.8693 1.00104 16.6338 0.728563 16.3397 0.531939C16.0456 0.335314 15.7038 0.221853 15.3505 0.203561C14.9965 0.17984 14.6428 0.253628 14.3278 0.416901C14.0129 0.580173 13.7487 0.82668 13.5641 1.12961L0.30283 22.6086C0.101187 22.9329 -0.00382486 23.3079 0.000106473 23.6898C0.00403781 24.0717 0.116749 24.4445 0.325027 24.7646L6.80849 34.805C7.05377 35.1819 7.41434 35.4694 7.83639 35.6246C8.25844 35.7799 8.71936 35.7945 9.1504 35.6663L27.9656 30.1008C28.2489 30.018 28.5111 29.8753 28.7345 29.6824C28.958 29.4895 29.1373 29.2509 29.2606 28.9827C29.3821 28.7159 29.444 28.4258 29.442 28.1326C29.44 27.8395 29.3741 27.5503 29.249 27.2852L29.2481 27.2861ZM26.5106 28.3997L10.5449 33.1208C10.0578 33.2657 9.59031 32.8435 9.69163 32.352L15.3958 5.03922C15.5024 4.52824 16.2081 4.44727 16.4312 4.92019L26.9906 27.3438C27.0373 27.4437 27.0617 27.5526 27.0622 27.6629C27.0628 27.7731 27.0394 27.8822 26.9937 27.9826C26.948 28.0829 26.8811 28.1722 26.7975 28.2442C26.714 28.3162 26.6158 28.3692 26.5098 28.3996L26.5106 28.3997Z" fill="#0C0D0D"/>
</g>
<defs>
<clipPath id="clip0_16968_13961">
<rect width="29.7358" height="36" fill="white"/>
</clipPath>
</defs>
</svg>
