<svg width="36" height="36" viewBox="0 0 36 36" fill="none" xmlns="http://www.w3.org/2000/svg">
<path d="M32.9079 27.3507L20.562 1.13223C20.4086 0.809628 20.1708 0.5345 19.8738 0.335961C19.5769 0.137421 19.2317 0.0228546 18.875 0.00438492C18.5176 -0.0195675 18.1604 0.0549392 17.8424 0.219802C17.5244 0.384665 17.2576 0.633573 17.0712 0.939456L3.68078 22.6276C3.47717 22.9551 3.37114 23.3338 3.37511 23.7194C3.37908 24.105 3.49289 24.4815 3.70319 24.8047L10.2498 34.9428C10.4975 35.3234 10.8615 35.6137 11.2877 35.7705C11.7139 35.9272 12.1793 35.942 12.6145 35.8125L31.613 30.1928C31.899 30.1092 32.1638 29.9651 32.3894 29.7703C32.615 29.5756 32.7961 29.3346 32.9206 29.0638C33.0433 28.7944 33.1058 28.5015 33.1038 28.2055C33.1018 27.9095 33.0352 27.6174 32.9089 27.3498L32.9079 27.3507ZM30.1438 28.4752L14.0226 33.2423C13.5308 33.3886 13.0587 32.9623 13.161 32.4659L18.9208 4.88715C19.0284 4.37119 19.741 4.28943 19.9663 4.76695L30.6285 27.409C30.6756 27.5099 30.7003 27.6198 30.7008 27.7311C30.7014 27.8425 30.6778 27.9526 30.6316 28.054C30.5855 28.1553 30.5179 28.2454 30.4335 28.3181C30.3492 28.3908 30.2501 28.4444 30.143 28.475L30.1438 28.4752Z" fill="#0C0D0D"/>
</svg>
