<svg width="36" height="36" viewBox="0 0 36 36" fill="none" xmlns="http://www.w3.org/2000/svg">
<g clip-path="url(#clip0_7688_10963)">
<mask id="mask0_7688_10963" style="mask-type:luminance" maskUnits="userSpaceOnUse" x="-1" y="0" width="37" height="36">
<path d="M-0.00125122 0.0761719H35.9987V35.9318H-0.00125122V0.0761719Z" fill="white"/>
</mask>
<g mask="url(#mask0_7688_10963)">
<path d="M17.8433 0.0878906C8.72705 0.0878906 9.29576 4.04196 9.29576 4.04196L9.30572 8.13747H18.0057V9.36652H5.85064C5.85064 9.36652 0.0181274 8.70518 0.0181274 17.9031C0.0181274 27.1011 5.10962 26.7754 5.10962 26.7754H8.14738V22.5066C8.14738 22.5066 7.98404 17.4151 13.1572 17.4151H21.7865C21.7865 17.4151 26.6339 17.4938 26.6339 12.73V4.85469C26.6339 4.85469 27.37 0.0878906 17.8433 0.0878906ZM13.0467 2.84279C13.3041 2.84247 13.5576 2.9057 13.7847 3.02688C14.0119 3.14806 14.2055 3.32344 14.3486 3.53745C14.4917 3.75146 14.5797 3.99749 14.6049 4.25369C14.63 4.50988 14.5915 4.76833 14.4928 5.00608C14.3843 5.2674 14.207 5.49438 13.9796 5.66284C13.7523 5.8313 13.4835 5.93492 13.2019 5.96266C12.9204 5.9904 12.6365 5.94122 12.3807 5.82036C12.1249 5.69949 11.9066 5.51148 11.7492 5.27636C11.5918 5.04124 11.5012 4.76781 11.4869 4.48523C11.4727 4.20264 11.5354 3.92148 11.6683 3.67172C11.8013 3.42196 11.9995 3.21295 12.2419 3.06697C12.4843 2.92099 12.7617 2.84352 13.0447 2.84279H13.0467Z" fill="#4584B7"/>
<path d="M18.1009 35.811C27.2172 35.811 26.6485 31.8569 26.6485 31.8569L26.6385 27.7614H17.9386V26.5324H30.0926C30.0926 26.5324 35.9261 27.1937 35.9261 17.9958C35.9261 8.79682 30.8346 9.12351 30.8346 9.12351H27.7969V13.3913C27.7969 13.3913 27.9602 18.4828 22.7871 18.4828H14.1578C14.1578 18.4828 9.31033 18.4051 9.31033 23.1679V31.0442C9.31033 31.0442 8.5743 35.811 18.1009 35.811ZM22.8976 33.0561C22.6402 33.0564 22.3866 32.9932 22.1595 32.872C21.9324 32.7508 21.7387 32.5755 21.5956 32.3615C21.4526 32.1474 21.3646 31.9014 21.3394 31.6452C21.3142 31.389 21.3527 31.1306 21.4514 30.8928C21.5597 30.6307 21.7371 30.4028 21.9648 30.2337C22.1925 30.0645 22.4618 29.9604 22.7441 29.9324C23.0264 29.9044 23.3109 29.9536 23.5674 30.0748C23.8239 30.1959 24.0426 30.3845 24.2002 30.6203C24.3579 30.8561 24.4485 31.1303 24.4624 31.4136C24.4763 31.6969 24.413 31.9786 24.2793 32.2288C24.1455 32.4789 23.9463 32.688 23.703 32.8337C23.4596 32.9794 23.1813 33.0563 22.8976 33.0561Z" fill="#FFCE14"/>
</g>
</g>
<defs>
<clipPath id="clip0_7688_10963">
<rect width="36" height="36" fill="white"/>
</clipPath>
</defs>
</svg>
