<svg xmlns="http://www.w3.org/2000/svg" width="37" height="36" fill="none"><g fill="#1A1A1A" clip-path="url(#a)"><path d="M17.918.01c-9.153 0-8.582 3.97-8.582 3.97l.01 4.112h8.735v1.234H5.877S.021 8.662.021 17.897s5.112 8.908 5.112 8.908h3.05v-4.286s-.164-5.112 5.03-5.112h8.664s4.867.079 4.867-4.704V4.796S27.483.01 17.918.01Zm-4.816 2.766a1.57 1.57 0 0 1 1.452 2.172A1.57 1.57 0 1 1 13.1 2.776Z"/><path d="M18.177 35.877c9.153 0 8.582-3.97 8.582-3.97l-.01-4.112h-8.735v-1.234h12.203s5.857.664 5.857-8.571c0-9.236-5.112-8.908-5.112-8.908h-3.05v4.285s.164 5.112-5.03 5.112h-8.664s-4.867-.078-4.867 4.704v7.908s-.739 4.786 8.826 4.786Zm4.816-2.766a1.57 1.57 0 0 1-1.452-2.172 1.572 1.572 0 1 1 1.452 2.172Z"/></g><defs><clipPath id="a"><path fill="#fff" d="M0 0h36.145v36H0z"/></clipPath></defs></svg>