<svg width="36" height="36" viewBox="0 0 36 36" fill="none" xmlns="http://www.w3.org/2000/svg">
<g clip-path="url(#clip0_7688_11448)">
<path d="M23.5425 6.32422L18 9.52284L23.5425 12.7233V6.32422Z" fill="#4695EB"/>
<path d="M12.4609 6.32422V12.7233L18.0035 9.52284L12.4609 6.32422Z" fill="#FF004A"/>
<path d="M23.546 12.7278L18.0035 9.52734L12.4609 12.7278L18.0035 15.9283L23.546 12.7278Z" fill="white"/>
<path d="M6.61328 16.4447L12.1558 19.6452V13.2461L6.61328 16.4447Z" fill="#4695EB"/>
<path d="M12.1523 26.0476L17.6949 22.8489L12.1523 19.6484V26.0476Z" fill="#FF004A"/>
<path d="M12.1523 13.2461V19.6452L17.6949 22.8457V16.4447L12.1523 13.2461Z" fill="white"/>
<path d="M23.8433 26.0476V19.6484L18.3008 22.8489L23.8433 26.0476Z" fill="#4695EB"/>
<path d="M29.3902 16.4447L23.8477 13.2461V19.6452L29.3902 16.4447Z" fill="#FF004A"/>
<path d="M18.3008 22.8457L23.8433 19.6452V13.2461L18.3008 16.4447V22.8457Z" fill="white"/>
<path d="M30.0282 0H5.97176C4.38933 0.00447088 2.87298 0.635072 1.75403 1.75403C0.635072 2.87298 0.00447088 4.38933 0 5.97176V30.0282C0.00447088 31.6107 0.635072 33.127 1.75403 34.246C2.87298 35.3649 4.38933 35.9955 5.97176 36H22.4468L18 25.1992L14.775 32.0182H5.97176C5.44611 32.0114 4.94392 31.7995 4.5722 31.4278C4.20048 31.0561 3.98863 30.5539 3.9818 30.0282V5.97176C3.98863 5.44611 4.20048 4.94392 4.5722 4.5722C4.94392 4.20048 5.44611 3.98863 5.97176 3.9818H30.0282C30.5539 3.98863 31.0561 4.20048 31.4278 4.5722C31.7995 4.94392 32.0114 5.44611 32.0182 5.97176V30.0282C32.0114 30.5539 31.7995 31.0561 31.4278 31.4278C31.0561 31.7995 30.5539 32.0114 30.0282 32.0182H24.8077L26.4474 36H30.0245C31.6069 35.9955 33.1233 35.3649 34.2422 34.246C35.3612 33.127 35.9918 31.6107 35.9962 30.0282V5.97176C35.9918 4.38998 35.3617 2.8742 34.2435 1.75535C33.1254 0.636503 31.61 0.00546358 30.0282 0Z" fill="#4695EB"/>
</g>
<defs>
<clipPath id="clip0_7688_11448">
<rect width="36" height="36" fill="white"/>
</clipPath>
</defs>
</svg>
