<svg width="36" height="36" viewBox="0 0 36 36" fill="none" xmlns="http://www.w3.org/2000/svg">
<g clip-path="url(#clip0_22597_3775)">
<path d="M29.984 0C33.2643 0.0113303 35.9201 2.6688 35.9294 5.94908V29.9142C35.9201 33.196 33.262 35.854 29.9803 35.8633H26.4168L24.7833 31.8966H29.984C31.073 31.8825 31.9523 31.0032 31.9664 29.9142V5.94908C31.9523 4.86015 31.073 3.98083 29.984 3.96668H6.01891C4.92997 3.98083 4.05065 4.86015 4.03651 5.94908V29.9142C4.05065 31.0032 4.92997 31.8825 6.01891 31.8966H14.7887L18.0015 25.1036L22.4314 35.8633H6.01891C2.73717 35.854 0.0790962 33.196 0.0698242 29.9142V5.94908C0.0790962 2.66734 2.73717 0.00927196 6.01891 0H29.984ZM23.823 19.5727V25.9475L18.3016 22.7611L23.823 19.5727ZM12.1799 13.1979V19.5727L6.65845 16.3844L12.1799 13.1979ZM23.5229 6.30168V12.6765L18.0015 9.48815L23.5229 6.30168Z" fill="#18191B"/>
<path d="M12.1797 19.5727L17.7012 22.7611L12.1797 25.9476V19.5727ZM23.8228 13.1979L29.3443 16.3844L23.8228 19.5727V13.1979ZM12.4798 6.3017L18.0012 9.48817L12.4798 12.6765V6.3017Z" fill="#18191B" fill-opacity="0.6"/>
<path d="M12.1797 13.1979L17.7012 16.3844V22.7611L12.1797 19.5727V13.1979ZM23.8228 13.1979V19.5727L18.3013 22.7611V16.3844L23.8228 13.1979ZM18.0012 9.48816L23.5227 12.6765L18.0012 15.8649L12.4798 12.6765L18.0012 9.48816Z" fill="#18191B"/>
</g>
<defs>
<clipPath id="clip0_22597_3775">
<rect width="36" height="36" fill="white"/>
</clipPath>
</defs>
</svg>
