<svg width="36" height="36" viewBox="0 0 36 36" fill="none" xmlns="http://www.w3.org/2000/svg">
<path d="M35.9765 15.961L36 15.9841C36 15.9841 35.7301 16.1746 35.4444 16.4127C26.4286 9.74603 20.9206 12.8889 19.1905 13.7302C11.3333 18.1144 13.6039 28.8772 13.6501 29.092L13.6508 29.0952H1.11112C1.11112 29.0952 1.58729 24.3968 4.92062 18.8413C8.25396 13.2857 13.9365 9.07936 18.5556 8.66667C27.4618 7.7745 35.4886 15.4833 35.9765 15.961ZM14.127 25.9206L15.8413 26.5397C15.9206 27.1614 16.0331 27.75 16.151 28.2872L16.2222 28.6032L14.3174 27.9206C14.2381 27.4444 14.1587 26.7619 14.127 25.9206ZM0.793638 20.7778L2.61905 21.4444C2.39683 21.9583 2.11384 22.6181 1.90833 23.1365L1.82539 23.3492L0 22.6825C0.15873 22.254 0.492052 21.4603 0.793638 20.7778ZM14.8413 20.1429L15.9841 21.0476C15.8571 21.5429 15.7606 22.0381 15.6946 22.5333L15.6508 22.9048L14.3651 21.8889C14.4921 21.3175 14.6349 20.7302 14.8413 20.1429ZM17.6508 15.7143L18.3651 16.7936C18.0857 17.0857 17.8267 17.3778 17.5961 17.6861L17.4286 17.9206L16.6667 16.7778C16.9524 16.4127 17.2857 16.0476 17.6508 15.7143ZM6.28571 13.3651L7.41269 14.3492C7.12697 14.6468 6.8502 14.9623 6.58904 15.2822L6.33333 15.6032L5.11111 14.5556C5.47619 14.1587 5.87301 13.7619 6.28571 13.3651ZM22.0159 13.3016L22.3651 14.3492C21.9968 14.4635 21.6286 14.6083 21.2603 14.7754L20.9841 14.9048L20.619 13.8095C21.0159 13.6349 21.4762 13.4603 22.0159 13.3016ZM25.7302 12.9206C26.1365 12.946 26.553 12.9917 26.9797 13.0659L27.3016 13.127L27.2381 14.1111C26.819 14.0222 26.4 13.9638 25.981 13.9359L25.6667 13.9206L25.7302 12.9206ZM12.6984 8.53968L13.4127 9.63492C13.1032 9.78968 12.8026 9.9623 12.4975 10.1461L12.1905 10.3333L11.4603 9.22222C11.8889 8.96825 12.3016 8.74603 12.6984 8.53968ZM25.7619 7.93651C26.7063 8.20635 27.1128 8.39124 27.2754 8.47781L27.3016 8.49206L27.2381 9.55555C26.8995 9.41799 26.5609 9.28748 26.2175 9.16402L25.6984 8.98413L25.7619 7.93651ZM19.6984 7L20.0159 7.96825H19.8571C19.5119 7.96825 19.1667 7.97718 18.8214 8.00174L18.4762 8.03175L18.1746 7.09524C18.6984 7.03175 19.2064 7 19.6984 7Z" fill="#D33D36"/>
</svg>
