<svg width="36" height="36" viewBox="0 0 36 36" fill="none" xmlns="http://www.w3.org/2000/svg">
<g clip-path="url(#clip0_25971_3093)">
<path d="M0.167215 15.4046C0.0814442 16.0056 0.0256371 16.6106 0 17.2172H27.3445C27.249 17.0307 27.1208 16.8625 26.9914 16.6979C22.3166 10.6584 19.802 11.182 16.2048 11.0286C15.0055 10.9793 14.1921 10.9595 9.4183 10.9595C6.86327 10.9595 4.08549 10.966 1.38058 10.9731C1.03045 11.9183 0.692744 12.8344 0.52829 13.5797H14.5406V15.4046H0.167215ZM27.56 19.044H0.0140622C0.0429031 19.5309 0.0883127 20.0114 0.15387 20.4854H25.5855C26.7193 20.4854 27.3539 19.8421 27.56 19.044ZM1.58262 25.4639C1.58262 25.4639 5.79872 35.816 17.981 36C25.2623 36 31.5187 31.6755 34.3605 25.4639H1.58262Z" fill="currentColor"/>
<path d="M17.9805 0C11.2481 0 5.38952 3.69706 2.29576 9.16211C4.71344 9.1571 9.42208 9.15418 9.42208 9.15418H9.42316V9.15239C14.9887 9.15239 15.1955 9.17725 16.2828 9.22266L16.956 9.24751C19.3009 9.32564 22.1831 9.57739 24.4509 11.2932C25.682 12.2239 27.4593 14.2778 28.5188 15.7412C29.4983 17.0947 29.7801 18.6506 29.1142 20.1413C28.5011 21.5113 27.1822 22.3286 25.585 22.3286H0.586426C0.586426 22.3286 0.735232 22.9594 0.958391 23.6557H35.0823C35.6881 21.8342 35.9978 19.9273 35.9997 18.0077C36.0002 8.06329 27.9325 0 17.9805 0Z" fill="currentColor"/>
</g>
<defs>
<clipPath id="clip0_25971_3093">
<rect width="36" height="36" fill="white"/>
</clipPath>
</defs>
</svg>
