<svg width="36" height="36" viewBox="0 0 36 36" fill="none" xmlns="http://www.w3.org/2000/svg">
<g clip-path="url(#clip0_7688_11511)">
<path d="M0.167215 15.406C0.0814442 16.0071 0.0256371 16.6121 0 17.2187H27.3445C27.249 17.0322 27.1208 16.864 26.9914 16.6994C22.3166 10.6598 19.802 11.1835 16.2048 11.0301C15.0055 10.9807 14.1921 10.9609 9.4183 10.9609C6.86327 10.9609 4.08549 10.9674 1.38058 10.9746C1.03045 11.9197 0.692744 12.8359 0.52829 13.5811H14.5406V15.406H0.167215ZM27.56 19.0454H0.0140622C0.0429031 19.5324 0.0883127 20.0128 0.15387 20.4868H25.5855C26.7193 20.4868 27.3539 19.8436 27.56 19.0454ZM1.58262 25.4653C1.58262 25.4653 5.79872 35.8175 17.981 36.0015C25.2623 36.0015 31.5187 31.677 34.3605 25.4653H1.58262Z" fill="white"/>
<path d="M17.98 0C11.2476 0 5.38903 3.69706 2.29527 9.16211C4.71295 9.1571 9.42159 9.15418 9.42159 9.15418H9.42267V9.15239C14.9882 9.15239 15.195 9.17725 16.2823 9.22266L16.9555 9.24751C19.3004 9.32564 22.1826 9.57739 24.4504 11.2932C25.6815 12.2239 27.4588 14.2778 28.5183 15.7412C29.4978 17.0947 29.7796 18.6506 29.1137 20.1413C28.5006 21.5113 27.1817 22.3286 25.5845 22.3286H0.585938C0.585938 22.3286 0.734744 22.9594 0.957903 23.6557H35.0818C35.6876 21.8342 35.9974 19.9273 35.9992 18.0077C35.9997 8.06329 27.932 0 17.98 0Z" fill="white"/>
</g>
<defs>
<clipPath id="clip0_7688_11511">
<rect width="36" height="36" fill="white"/>
</clipPath>
</defs>
</svg>
