<svg width="36" height="36" viewBox="0 0 36 36" fill="none" xmlns="http://www.w3.org/2000/svg">
<g clip-path="url(#clip0_28209_1933)">
<path d="M17.9999 21.4289C19.8934 21.4289 21.4284 19.8939 21.4284 18.0003C21.4284 16.1068 19.8934 14.5718 17.9999 14.5718C16.1063 14.5718 14.5713 16.1068 14.5713 18.0003C14.5713 19.8939 16.1063 21.4289 17.9999 21.4289Z" fill="black"/>
<path d="M17.9998 25.7137C27.4675 25.7137 35.1426 22.2599 35.1426 17.9994C35.1426 13.739 27.4675 10.2852 17.9998 10.2852C8.53205 10.2852 0.856934 13.739 0.856934 17.9994C0.856934 22.2599 8.53205 25.7137 17.9998 25.7137Z" stroke="#18191B" stroke-width="1.71429"/>
<path d="M11.3188 21.8568C16.0526 30.0561 22.8813 34.9761 26.571 32.8458C30.2607 30.7156 29.4142 22.3418 24.6803 14.1425C19.9464 5.94323 13.1178 1.02329 9.42812 3.15353C5.73843 5.28377 6.58491 13.6575 11.3188 21.8568Z" stroke="#18191B" stroke-width="1.71429"/>
<path d="M11.319 14.1426C6.58512 22.3419 5.73864 30.7157 9.42833 32.8459C13.118 34.9761 19.9467 30.0562 24.6805 21.8569C29.4144 13.6576 30.2609 5.28384 26.5712 3.1536C22.8815 1.02336 16.0529 5.9433 11.319 14.1426Z" stroke="#18191B" stroke-width="1.71429"/>
</g>
<defs>
<clipPath id="clip0_28209_1933">
<rect width="36" height="36" fill="white"/>
</clipPath>
</defs>
</svg>
