<svg width="36" height="36" viewBox="0 0 36 36" fill="none" xmlns="http://www.w3.org/2000/svg">
<g clip-path="url(#clip0_7688_10940)">
<path d="M18.159 20.9586C19.9814 20.9586 21.4587 19.4813 21.4587 17.659C21.4587 15.8367 19.9814 14.3594 18.159 14.3594C16.3367 14.3594 14.8594 15.8367 14.8594 17.659C14.8594 19.4813 16.3367 20.9586 18.159 20.9586Z" fill="#00D8FF"/>
<path d="M18.1584 25.0748C27.2701 25.0748 34.6566 21.7509 34.6566 17.6507C34.6566 13.5504 27.2701 10.2266 18.1584 10.2266C9.04667 10.2266 1.66016 13.5504 1.66016 17.6507C1.66016 21.7509 9.04667 25.0748 18.1584 25.0748Z" stroke="#00D8FF" stroke-width="1.64981"/>
<path d="M11.7338 21.368C16.2896 29.2589 22.8615 33.9938 26.4124 31.9437C29.9634 29.8936 29.1487 21.8348 24.5929 13.9439C20.037 6.05306 13.4651 1.31819 9.9142 3.3683C6.36325 5.41841 7.1779 13.4772 11.7338 21.368Z" stroke="#00D8FF" stroke-width="1.64981"/>
<path d="M11.7316 13.9495C7.17575 21.8404 6.36111 29.8991 9.91205 31.9493C13.463 33.9994 20.0349 29.2645 24.5907 21.3736C29.1466 13.4828 29.9612 5.424 26.4103 3.37389C22.8593 1.32378 16.2875 6.05865 11.7316 13.9495Z" stroke="#00D8FF" stroke-width="1.64981"/>
</g>
<defs>
<clipPath id="clip0_7688_10940">
<rect width="36" height="36" fill="white"/>
</clipPath>
</defs>
</svg>
