<svg width="36" height="36" viewBox="0 0 36 36" fill="none" xmlns="http://www.w3.org/2000/svg">
<g clip-path="url(#clip0_7680_10917)">
<path d="M18.1568 20.9566C19.9792 20.9566 21.4565 19.4793 21.4565 17.657C21.4565 15.8347 19.9792 14.3574 18.1568 14.3574C16.3345 14.3574 14.8572 15.8347 14.8572 17.657C14.8572 19.4793 16.3345 20.9566 18.1568 20.9566Z" fill="#00D8FF"/>
<path d="M18.1579 25.0757C27.2696 25.0757 34.6561 21.7519 34.6561 17.6516C34.6561 13.5514 27.2696 10.2275 18.1579 10.2275C9.04618 10.2275 1.65967 13.5514 1.65967 17.6516C1.65967 21.7519 9.04618 25.0757 18.1579 25.0757Z" stroke="#00D8FF" stroke-width="1.64981"/>
<path d="M11.735 21.3671C16.2908 29.2579 22.8627 33.9928 26.4137 31.9427C29.9646 29.8926 29.15 21.8338 24.5941 13.943C20.0382 6.05209 13.4664 1.31721 9.91542 3.36732C6.36447 5.41743 7.17912 13.4762 11.735 21.3671Z" stroke="#00D8FF" stroke-width="1.64981"/>
<path d="M11.7299 13.9466C7.17404 21.8375 6.3594 29.8962 9.91034 31.9463C13.4613 33.9964 20.0332 29.2616 24.589 21.3707C29.1449 13.4798 29.9595 5.42107 26.4086 3.37096C22.8576 1.32085 16.2858 6.05572 11.7299 13.9466Z" stroke="#00D8FF" stroke-width="1.64981"/>
</g>
<defs>
<clipPath id="clip0_7680_10917">
<rect width="36" height="36" fill="white"/>
</clipPath>
</defs>
</svg>
