<svg xmlns="http://www.w3.org/2000/svg" fill="none" height="69" width="64">
  <g clip-path="url(#A)">
    <path d="M32.783.258a1.61 1.61 0 0 0-1.749 0L1.974 19.019a1.61 1.61 0 0 0-.759 1.368v27.769a1.61 1.61 0 0 0 .738 1.354l29.081 18.775a1.61 1.61 0 0 0 1.749 0L61.864 49.51a1.61 1.61 0 0 0 .738-1.354V20.391c.001-.559-.287-1.078-.759-1.372L32.783.258z" fill="#000"/>
    <g fill="#e73c36">
      <path d="M59.422 23.265v22.013l-10.083-6.51 4.926-3.18a1.57 1.57 0 0 0 0-2.634l-4.926-3.18 10.083-6.51zm-55.026 0v22.013l10.083-6.51-4.926-3.18a1.57 1.57 0 0 1 0-2.634l4.926-3.18-10.083-6.51z"/>
    </g>
    <g fill="#ffad48">
      <path d="M31.908 18.522L20.258 11l11.651-7.522L43.559 11l-11.651 7.522z"/>
      <use href="#B"/>
    </g>
    <g fill="#f47238">
      <path d="M17.398 55.661l-11.65-7.522 11.651-7.522 11.651 7.522-11.651 7.522zm0-27.752l-11.65-7.522 11.651-7.522 11.651 7.522-11.651 7.522zm29.02 27.752l-11.651-7.522 11.651-7.522 11.651 7.522-11.651 7.522zm0-27.752l-11.651-7.522 11.651-7.522 11.651 7.522-11.651 7.522z"/>
    </g>
    <path d="M31.909 46.29L13.293 34.271l18.616-12.018 18.616 12.018L31.909 46.29z" fill="#8b2343"/>
  </g>
  <defs>
    <clipPath id="A">
      <path fill="#fff" d="M0 0h64v69H0z"/>
    </clipPath>
    <path id="B" d="M31.908 65.065l-11.651-7.522 11.651-7.522 11.651 7.522-11.651 7.522z"/>
  </defs>
</svg>