<svg width="32" height="36" viewBox="0 0 32 36" fill="none" xmlns="http://www.w3.org/2000/svg">
<path d="M16.702 0C25.7056 0 30.1799 4.28523 30.1799 11.1304C30.1799 16.2504 27.0314 19.5895 22.7781 20.146C26.3685 20.8696 28.4674 22.9287 28.8542 26.9913L28.9101 27.7384L28.959 28.4368L29.0012 29.0901L29.0305 29.5827L29.062 30.164L29.0783 30.4957L29.1016 31.0227L29.1204 31.5204L29.1297 31.8065L29.1423 32.2649L29.1531 32.789L29.1571 33.0423L29.1642 33.7762L29.1664 34.5421L29.1666 35H19.8817L19.8822 34.809L19.8855 34.4381L19.891 34.0768L19.9071 33.2016L19.9112 32.9082L19.9143 32.4481L19.9139 32.1539L19.9112 31.8453L19.9074 31.6032L19.8998 31.2641L19.8888 30.9046L19.874 30.5223L19.8551 30.115L19.8439 29.9013L19.8249 29.5674L19.8031 29.2165L19.7692 28.7208L19.7401 28.3269C19.7317 28.2054 19.722 28.0867 19.711 27.9709L19.6872 27.7429C19.3806 25.0518 18.3132 23.9519 16.4849 23.585L16.3308 23.5561C16.2269 23.538 16.1206 23.522 16.012 23.5081L15.8473 23.4887C15.8196 23.4857 15.7917 23.4829 15.7637 23.4801L15.5937 23.4651L15.4202 23.4529L15.2432 23.4434L15.0647 23.4365L14.8826 23.432L14.6972 23.4298L0 23.4296V16.1392H15.0451C15.2911 16.1392 15.5295 16.1345 15.7602 16.125L15.9885 16.1139L16.2117 16.0995L16.4298 16.0817C16.4657 16.0785 16.5014 16.0751 16.5369 16.0716L16.7474 16.0488C16.886 16.0325 17.0213 16.0139 17.1532 15.9929L17.3484 15.9597C19.7898 15.5171 21.0105 14.2211 21.0105 11.6921C21.0105 8.85396 19.0221 7.13387 15.0451 7.13387H0V0H16.702ZM9.81746 29.5651C11.0356 29.5651 11.5453 30.2415 11.7269 30.8889L11.7508 30.982L11.7705 31.0743L11.7833 31.1471L11.7888 31.1831L11.7979 31.2542L11.8048 31.3239L11.8075 31.358L11.8112 31.425L11.8124 31.4578L11.8133 31.5216V35H0V29.5651H9.81746Z" fill="#18191B"/>
</svg>
