<svg width="36" height="36" viewBox="0 0 36 36" fill="none" xmlns="http://www.w3.org/2000/svg">
<path d="M19.6122 0.5C28.6158 0.5 33.09 4.78523 33.09 11.6304C33.09 16.7504 29.9415 20.0895 25.6882 20.646C29.2787 21.3696 31.3775 23.4287 31.7643 27.4913L31.8203 28.2384L31.8691 28.9368L31.9114 29.5901L31.9407 30.0827L31.9722 30.664L31.9885 30.9957L32.0118 31.5227L32.0306 32.0204L32.0399 32.3065L32.0524 32.7649L32.0633 33.289L32.0672 33.5423L32.0743 34.2762L32.0766 35.0421L32.0767 35.5H22.7919L22.7923 35.309L22.7957 34.9381L22.8012 34.5768L22.8173 33.7016L22.8213 33.4082L22.8245 32.9481L22.8241 32.6539L22.8214 32.3453L22.8176 32.1032L22.81 31.7641L22.799 31.4046L22.7842 31.0223L22.7652 30.615L22.7541 30.4013L22.7351 30.0674L22.7132 29.7165L22.6794 29.2208L22.6502 28.8269C22.6418 28.7054 22.6322 28.5867 22.6211 28.4709L22.5973 28.2429C22.2907 25.5518 21.2233 24.4519 19.3951 24.085L19.241 24.0561C19.1371 24.038 19.0308 24.022 18.9222 24.0081L18.7575 23.9887C18.7298 23.9857 18.7019 23.9829 18.6738 23.9801L18.5039 23.9651L18.3304 23.9529L18.1534 23.9434L17.9748 23.9365L17.7928 23.932L17.6073 23.9298L2.91016 23.9296V16.6392H17.9552C18.2012 16.6392 18.4396 16.6345 18.6704 16.625L18.8986 16.6139L19.1218 16.5995L19.3399 16.5817C19.3758 16.5785 19.4116 16.5751 19.4471 16.5716L19.6576 16.5488C19.7962 16.5325 19.9315 16.5139 20.0633 16.4929L20.2586 16.4597C22.7 16.0171 23.9206 14.7211 23.9206 12.1921C23.9206 9.35397 21.9322 7.63387 17.9552 7.63387H2.91016V0.5H19.6122ZM12.7276 30.0651C13.9458 30.0651 14.4555 30.7415 14.637 31.3889L14.661 31.482L14.6807 31.5743L14.6935 31.6471L14.6989 31.6831L14.7081 31.7542L14.715 31.8239L14.7176 31.858L14.7214 31.925L14.7225 31.9578L14.7234 32.0216V35.5H2.91016V30.0651H12.7276Z" fill="#18191B"/>
</svg>
