<svg width="36" height="36" viewBox="0 0 36 36" fill="none" xmlns="http://www.w3.org/2000/svg">
<g clip-path="url(#clip0_27968_987)">
<path d="M20.2316 0L24.7948 3.09337L30.2976 0.101957L20.2316 0Z" fill="#18191B" fill-opacity="0.5"/>
<path d="M21.9929 12.7538L35.7268 11.7234L24.7948 3.09337L21.9929 12.7538Z" fill="#18191B" fill-opacity="0.5"/>
<path d="M24.7948 3.09337L35.7268 11.7234C35.7903 10.9293 35.9309 9.06319 35.9851 7.95056C36.0528 6.55978 35.7715 4.77312 35.3965 3.83551C35.0215 2.8979 34.4381 1.98113 33.2244 1.17375C32.2534 0.527838 30.8686 0.190092 30.2976 0.101957L24.7948 3.09337Z" fill="#18191B" fill-opacity="0.8"/>
<path d="M31.8338 19.159L33.8864 34.1552L35.7268 11.7234C35.5135 12.3327 34.938 13.9566 34.1353 15.471C33.3462 16.9596 32.2837 18.5695 31.8338 19.159Z" fill="#18191B" fill-opacity="0.8"/>
<path d="M11.523 22.1834L25.4424 26.5638L21.9929 12.7538L11.523 22.1834Z" fill="#18191B" fill-opacity="0.5"/>
<path d="M11.523 22.1834L7.36551 35.9855L33.8864 34.1552L25.4424 26.5638C24.2994 27.9995 20.278 31.368 17.1176 32.8745L11.523 22.1834Z" fill="#18191B" fill-opacity="0.8"/>
<path fill-rule="evenodd" clip-rule="evenodd" d="M2.28503 24.268L0.423367 18.464L0.214125 23.5972L0.00488281 28.7305L2.28503 24.268Z" fill="#18191B" fill-opacity="0.5"/>
<path d="M21.9929 12.7538L25.4424 26.5638L33.8864 34.1552L31.8338 19.159C32.2837 18.5695 33.3462 16.9596 34.1353 15.471C34.938 13.9566 35.5135 12.3327 35.7268 11.7234L21.9929 12.7538Z" fill="#18191B"/>
<path d="M11.523 22.1834L17.1176 32.8745C20.278 31.368 24.2994 27.9995 25.4424 26.5638L11.523 22.1834Z" fill="#18191B"/>
<path d="M2.28503 24.268L1.87046 28.9769L1.45589 33.6858C1.97661 34.5496 3.06322 35.325 4.1819 35.6766C5.14544 35.9794 6.69802 36.0312 7.36551 35.9855C7.14841 35.4457 6.66046 34.2359 6.44546 33.7151C6.17672 33.0641 3.44147 26.5903 2.92189 25.4556C2.50623 24.5478 2.32413 24.2856 2.28503 24.268Z" fill="#18191B"/>
<path d="M2.28503 24.268C2.32413 24.2856 2.50623 24.5478 2.92189 25.4556C3.44147 26.5903 6.17672 33.0641 6.44546 33.7151C6.66046 34.2359 7.14841 35.4457 7.36551 35.9855L11.523 22.1834L2.28503 24.268Z" fill="#18191B" fill-opacity="0.5"/>
<path d="M2.28503 24.268L0.00488281 28.7305C0.00488281 29.9382 0.304731 31.1814 0.454655 31.6521C0.711221 32.5313 1.22905 33.3743 1.45589 33.6858L1.87046 28.9769L2.28503 24.268Z" fill="#18191B" fill-opacity="0.8"/>
<path d="M22.3447 1.88325C24.9928 4.53134 22.2428 10.9479 16.9466 16.1422C11.6504 21.3366 4.92834 24.5957 2.28025 21.9477C-0.265997 19.3108 2.35154 12.7812 7.66301 7.58683C12.9745 2.3925 19.8035 -0.764847 22.3497 1.88325H22.3447Z" fill="#18191B"/>
</g>
<defs>
<clipPath id="clip0_27968_987">
<rect width="36" height="36" fill="white"/>
</clipPath>
</defs>
</svg>
