<svg width="36" height="36" viewBox="0 0 36 36" fill="none" xmlns="http://www.w3.org/2000/svg">
<path d="M30.394 0.0147763C34.8162 0.807314 36.0714 3.93716 35.9779 7.21478L36 7.16776L34.0089 34.1651L8.1311 36H8.15446C6.0063 35.906 1.21806 35.7031 1 28.7758L3.39867 24.2476L7.50936 34.1879L8.24272 35.957L12.334 22.1561L12.2898 22.1669L12.3132 22.1212L25.8109 26.5822L23.7743 18.3855L22.331 12.4993L35.194 11.6409L34.2958 10.8712L25.0619 3.08015L30.3979 0L30.394 0.0147763ZM8.47895 7.54657C13.6722 2.21373 20.3749 -0.937612 22.9488 1.7503C25.5188 4.43284 22.7957 10.9652 17.5921 16.294C12.3963 21.6242 5.77526 24.9475 3.20786 22.2663C0.632672 19.5837 3.27276 12.8834 8.47506 7.5506L8.47895 7.54657Z" fill="#CC342D"/>
</svg>
