<svg xmlns="http://www.w3.org/2000/svg" width="36" height="36" fill="none"><g clip-path="url(#a)"><path fill="#1A1A1A" d="m35.754 17.559-1.511-.936a20.28 20.28 0 0 0-.043-.44l1.298-1.212a.518.518 0 0 0-.172-.867l-1.66-.621a19.56 19.56 0 0 0-.13-.429l1.035-1.438a.52.52 0 0 0-.338-.818l-1.75-.285a15.163 15.163 0 0 0-.211-.393l.736-1.615a.518.518 0 0 0-.492-.735l-1.776.061a13.945 13.945 0 0 0-.281-.34l.408-1.73a.52.52 0 0 0-.626-.627l-1.73.408a14.846 14.846 0 0 0-.341-.28l.062-1.777a.518.518 0 0 0-.735-.492l-1.615.736a18.68 18.68 0 0 0-.393-.21l-.286-1.752a.52.52 0 0 0-.817-.338l-1.44 1.035a15.689 15.689 0 0 0-.427-.13l-.62-1.66a.52.52 0 0 0-.868-.173l-1.212 1.3c-.146-.017-.293-.03-.44-.043L18.443.246a.52.52 0 0 0-.884 0l-.936 1.512c-.147.012-.294.026-.44.043L14.97.5a.52.52 0 0 0-.867.173l-.621 1.66c-.144.042-.286.086-.428.13l-1.44-1.035a.518.518 0 0 0-.817.338l-.286 1.751a16.79 16.79 0 0 0-.393.211l-1.614-.736a.518.518 0 0 0-.736.492l.062 1.776c-.115.092-.229.186-.341.281l-1.73-.408a.522.522 0 0 0-.626.626l.407 1.731a16.35 16.35 0 0 0-.28.34L3.484 7.77a.523.523 0 0 0-.536.477.52.52 0 0 0 .045.258l.736 1.615c-.072.13-.143.26-.211.393l-1.75.285a.52.52 0 0 0-.34.818l1.036 1.438c-.045.142-.088.285-.13.429l-1.66.62a.52.52 0 0 0-.172.868L1.8 16.183c-.017.146-.031.293-.043.44l-1.512.936a.52.52 0 0 0 0 .884l1.512.935c.012.148.026.295.043.44L.5 21.03a.52.52 0 0 0 .173.868l1.66.62c.042.145.085.287.13.43L1.43 24.385a.52.52 0 0 0 .339.817l1.75.285c.069.133.139.264.211.394l-.736 1.614a.519.519 0 0 0 .491.736l1.776-.062c.093.115.186.228.281.34l-.407 1.732a.518.518 0 0 0 .626.625l1.73-.408c.112.096.226.189.341.28l-.062 1.777a.52.52 0 0 0 .736.491l1.614-.735c.13.072.261.142.393.21l.286 1.75a.519.519 0 0 0 .818.34l1.438-1.037c.142.045.285.09.428.13l.621 1.66a.518.518 0 0 0 .868.173l1.212-1.3c.146.018.293.032.44.045l.936 1.511a.521.521 0 0 0 .884 0l.935-1.511c.148-.013.295-.027.44-.044l1.212 1.299a.518.518 0 0 0 .868-.172l.62-1.66c.144-.042.287-.086.43-.13l1.438 1.036a.52.52 0 0 0 .817-.34l.286-1.75c.132-.068.262-.14.393-.21l1.614.735a.519.519 0 0 0 .736-.49l-.062-1.778c.115-.091.228-.185.34-.28l1.731.408a.517.517 0 0 0 .62-.364.518.518 0 0 0 .006-.261l-.408-1.731c.095-.113.189-.226.28-.341l1.777.062a.518.518 0 0 0 .491-.736l-.735-1.614c.071-.13.142-.261.21-.394l1.75-.285a.517.517 0 0 0 .434-.573.52.52 0 0 0-.095-.244l-1.035-1.438c.044-.143.088-.285.13-.43l1.66-.62a.518.518 0 0 0 .172-.867L34.2 19.819c.016-.146.03-.294.043-.44l1.512-.936a.52.52 0 0 0 0-.884ZM25.639 30.096a1.071 1.071 0 0 1 .448-2.094 1.07 1.07 0 0 1-.448 2.094Zm-.514-3.473a.973.973 0 0 0-1.157.75l-.537 2.504A13.107 13.107 0 0 1 18 31.046c-1.98 0-3.86-.438-5.545-1.222l-.536-2.504a.974.974 0 0 0-1.157-.75l-2.21.475c-.412-.423-.794-.873-1.144-1.347h10.756c.122 0 .203-.022.203-.133V21.76c0-.11-.08-.132-.203-.132H15.02v-2.412h3.402c.31 0 1.66.088 2.092 1.814.136.53.432 2.257.635 2.81.203.62 1.026 1.858 1.904 1.858h5.36c.06 0 .125-.007.194-.02-.372.506-.78.984-1.22 1.43l-2.261-.485Zm-14.877 3.42A1.071 1.071 0 0 1 9.8 27.95a1.07 1.07 0 0 1 .45 2.095Zm-4.08-16.545a1.068 1.068 0 1 1-1.954.868 1.07 1.07 0 0 1 1.362-1.433 1.069 1.069 0 0 1 .592.565ZM4.914 16.47l2.303-1.024a.976.976 0 0 0 .495-1.287l-.474-1.073h1.865v8.408H5.34a13.177 13.177 0 0 1-.426-5.024Zm10.105-.817v-2.478h4.442c.23 0 1.62.265 1.62 1.305 0 .863-1.066 1.173-1.944 1.173H15.02Zm16.143 2.23c0 .33-.012.655-.036.978h-1.35c-.136 0-.19.089-.19.221v.62c0 1.46-.823 1.777-1.544 1.858-.687.078-1.449-.287-1.543-.708-.405-2.279-1.08-2.765-2.146-3.606 1.323-.84 2.7-2.08 2.7-3.74 0-1.791-1.229-2.92-2.066-3.473-1.174-.774-2.475-.93-2.826-.93H8.195A13.144 13.144 0 0 1 15.56 4.95l1.646 1.727a.975.975 0 0 0 1.378.031l1.842-1.761a13.174 13.174 0 0 1 9.01 6.417l-1.26 2.848a.977.977 0 0 0 .495 1.288l2.428 1.078c.042.43.064.866.064 1.308ZM17.206 3.48a1.068 1.068 0 0 1 1.511.034 1.072 1.072 0 0 1-.035 1.514 1.067 1.067 0 0 1-1.807-.799c.007-.284.126-.553.33-.75Zm12.513 10.07a1.068 1.068 0 0 1 1.41-.545 1.07 1.07 0 0 1-.867 1.958 1.072 1.072 0 0 1-.543-1.413Z"/></g><defs><clipPath id="a"><path fill="#fff" d="M0 0h36v36H0z"/></clipPath></defs></svg>