<svg width="36" height="36" viewBox="0 0 36 36" fill="none" xmlns="http://www.w3.org/2000/svg">
<g clip-path="url(#clip0_7688_10970)">
<mask id="mask0_7688_10970" style="mask-type:luminance" maskUnits="userSpaceOnUse" x="0" y="0" width="36" height="36">
<path d="M0 0H36V36H0V0Z" fill="white"/>
</mask>
<g mask="url(#mask0_7688_10970)">
<path d="M35.7551 17.5591L34.2441 16.6231C34.2313 16.4763 34.217 16.3296 34.2011 16.1831L35.4991 14.9711C35.5643 14.911 35.613 14.8351 35.6405 14.7507C35.668 14.6664 35.6734 14.5764 35.6561 14.4894C35.6389 14.4023 35.5995 14.3212 35.5419 14.2537C35.4843 14.1863 35.4103 14.1347 35.3271 14.1041L33.6671 13.4831C33.6254 13.3396 33.582 13.1966 33.5371 13.0541L34.5721 11.6161C34.6241 11.5442 34.6568 11.4602 34.6671 11.3721C34.6775 11.284 34.6652 11.1947 34.6313 11.1128C34.5974 11.0308 34.5431 10.9588 34.4736 10.9038C34.4041 10.8487 34.3216 10.8123 34.2341 10.7981L32.4841 10.5131C32.4157 10.381 32.3453 10.25 32.2731 10.1201L33.0091 8.50507C33.0464 8.42446 33.0623 8.33562 33.0553 8.24708C33.0484 8.15854 33.0188 8.07327 32.9694 7.99947C32.92 7.92566 32.8524 7.8658 32.7732 7.82563C32.694 7.78546 32.6058 7.76633 32.5171 7.77007L30.7411 7.83107C30.6492 7.71627 30.5555 7.60292 30.4601 7.49107L30.8681 5.76107C30.8888 5.67466 30.887 5.58439 30.8629 5.49888C30.8388 5.41336 30.7931 5.33544 30.7304 5.27256C30.6676 5.20969 30.5897 5.16394 30.5043 5.1397C30.4188 5.11545 30.3285 5.11352 30.2421 5.13407L28.5121 5.54207C28.3998 5.44706 28.2861 5.35371 28.1711 5.26207L28.2331 3.48507C28.2368 3.39634 28.2177 3.30813 28.1775 3.22892C28.1373 3.14971 28.0775 3.08216 28.0037 3.03276C27.9299 2.98335 27.8446 2.95375 27.7561 2.9468C27.6675 2.93986 27.5787 2.95579 27.4981 2.99307L25.8831 3.72907C25.7529 3.65751 25.6219 3.58751 25.4901 3.51907L25.2041 1.76707C25.1898 1.67968 25.1534 1.59739 25.0984 1.528C25.0433 1.45862 24.9715 1.40443 24.8897 1.37057C24.8079 1.33672 24.7187 1.32433 24.6308 1.33456C24.5428 1.3448 24.4589 1.37733 24.3871 1.42907L22.9471 2.46407C22.8054 2.41872 22.663 2.37538 22.5201 2.33407L21.9001 0.674073C21.8691 0.590937 21.8175 0.517094 21.75 0.459565C21.6824 0.402036 21.6013 0.362734 21.5143 0.345396C21.4274 0.328058 21.3374 0.333261 21.253 0.360509C21.1685 0.387758 21.0925 0.436146 21.0321 0.501073L19.8201 1.80107C19.6741 1.78407 19.5271 1.77107 19.3801 1.75807L18.4441 0.246073C18.3974 0.170824 18.3324 0.108727 18.255 0.0656642C18.1777 0.0226018 18.0906 0 18.0021 0C17.9135 0 17.8265 0.0226018 17.7491 0.0656642C17.6718 0.108727 17.6067 0.170824 17.5601 0.246073L16.6241 1.75807C16.4771 1.77007 16.3301 1.78407 16.1841 1.80107L14.9711 0.500073C14.9106 0.435383 14.8346 0.387203 14.7503 0.360097C14.6661 0.332991 14.5762 0.327858 14.4894 0.345185C14.4026 0.362511 14.3216 0.401722 14.2542 0.459103C14.1867 0.516484 14.1351 0.590134 14.1041 0.673073L13.4831 2.33307C13.3391 2.37507 13.1971 2.41907 13.0551 2.46307L11.6151 1.42807C11.5434 1.37576 11.4594 1.34275 11.3713 1.33221C11.2831 1.32167 11.1938 1.33396 11.1118 1.36789C11.0297 1.40183 10.9578 1.45627 10.9029 1.52599C10.848 1.59572 10.8119 1.67839 10.7981 1.76607L10.5121 3.51707C10.3801 3.58566 10.2491 3.656 10.1191 3.72807L8.50507 2.99207C8.42442 2.95456 8.33547 2.93844 8.24678 2.94527C8.1581 2.95211 8.07267 2.98167 7.99872 3.0311C7.92477 3.08053 7.86479 3.14818 7.82457 3.22751C7.78435 3.30685 7.76524 3.39521 7.76907 3.48407L7.83107 5.26007C7.71607 5.35207 7.60207 5.44607 7.49007 5.54107L5.76007 5.13307C5.67381 5.11317 5.5839 5.11553 5.4988 5.13994C5.41369 5.16435 5.3362 5.21 5.2736 5.2726C5.211 5.3352 5.16535 5.41269 5.14094 5.4978C5.11653 5.5829 5.11417 5.67281 5.13407 5.75907L5.54107 7.49007C5.44622 7.60214 5.35288 7.71549 5.26107 7.83007L3.48507 7.77007C3.35175 7.76625 3.22201 7.8135 3.12238 7.90216C3.02274 7.99083 2.96075 8.11421 2.94907 8.24707C2.94182 8.3355 2.95731 8.42432 2.99407 8.50507L3.73007 10.1201C3.65807 10.2501 3.58707 10.3801 3.51907 10.5131L1.76907 10.7981C1.68135 10.812 1.59865 10.8482 1.52887 10.9031C1.45909 10.9581 1.40456 11.03 1.37047 11.1121C1.33637 11.1941 1.32386 11.2835 1.33412 11.3717C1.34438 11.4599 1.37707 11.5441 1.42907 11.6161L2.46507 13.0541C2.42007 13.1961 2.37707 13.3391 2.33507 13.4831L0.675073 14.1031C0.592012 14.1341 0.518267 14.1859 0.460845 14.2534C0.403424 14.321 0.364233 14.4021 0.346998 14.4891C0.329762 14.5761 0.335055 14.666 0.362372 14.7504C0.389689 14.8347 0.438124 14.9107 0.503073 14.9711L1.80107 16.1831C1.78407 16.3291 1.77007 16.4761 1.75807 16.6231L0.246073 17.5591C0.170824 17.6057 0.108727 17.6708 0.0656642 17.7481C0.0226018 17.8255 0 17.9125 0 18.0011C0 18.0896 0.0226018 18.1767 0.0656642 18.254C0.108727 18.3314 0.170824 18.3964 0.246073 18.4431L1.75807 19.3781C1.77007 19.5261 1.78407 19.6731 1.80107 19.8181L0.501073 21.0301C0.436146 21.0905 0.387758 21.1665 0.360509 21.251C0.333261 21.3354 0.328058 21.4254 0.345396 21.5123C0.362734 21.5993 0.402036 21.6804 0.459565 21.748C0.517094 21.8155 0.590937 21.8671 0.674073 21.8981L2.33407 22.5181C2.37607 22.6631 2.41907 22.8051 2.46407 22.9481L1.43107 24.3851C1.37932 24.457 1.34681 24.541 1.33663 24.629C1.32644 24.717 1.33892 24.8062 1.37289 24.888C1.40685 24.9699 1.46116 25.0417 1.53068 25.0967C1.60019 25.1516 1.6826 25.1879 1.77007 25.2021L3.52007 25.4871C3.58907 25.6201 3.65907 25.7511 3.73107 25.8811L2.99507 27.4951C2.9579 27.5757 2.94202 27.6644 2.94894 27.7529C2.95586 27.8414 2.98536 27.9266 3.03461 28.0005C3.08387 28.0743 3.15123 28.1343 3.23027 28.1746C3.30931 28.215 3.39738 28.2344 3.48607 28.2311L5.26207 28.1691C5.35507 28.2841 5.44807 28.3971 5.54307 28.5091L5.13607 30.2411C5.1152 30.3274 5.11689 30.4177 5.14097 30.5032C5.16505 30.5887 5.21072 30.6666 5.27359 30.7293C5.33645 30.7921 5.4144 30.8376 5.49995 30.8616C5.58549 30.8855 5.67576 30.8871 5.76207 30.8661L7.49207 30.4581C7.60407 30.5541 7.71807 30.6471 7.83307 30.7381L7.77107 32.5151C7.76798 32.6037 7.78759 32.6916 7.82804 32.7705C7.86849 32.8493 7.92843 32.9166 8.00218 32.9658C8.07592 33.015 8.16102 33.0445 8.24939 33.0516C8.33775 33.0586 8.42646 33.043 8.50707 33.0061L10.1211 32.2711C10.2511 32.3431 10.3821 32.4131 10.5141 32.4811L10.8001 34.2311C10.8137 34.3189 10.8498 34.4018 10.9047 34.4718C10.9596 34.5417 11.0316 34.5964 11.1137 34.6305C11.1958 34.6647 11.2853 34.6771 11.3737 34.6667C11.462 34.6563 11.5461 34.6234 11.6181 34.5711L13.0561 33.5341C13.1981 33.5791 13.3411 33.6241 13.4841 33.6641L14.1051 35.3241C14.1355 35.4076 14.187 35.4819 14.2545 35.5398C14.322 35.5976 14.4033 35.6372 14.4904 35.6545C14.5776 35.6719 14.6678 35.6666 14.7524 35.639C14.8369 35.6114 14.9129 35.5625 14.9731 35.4971L16.1851 34.1971C16.3311 34.2151 16.4781 34.2291 16.6251 34.2421L17.5611 35.7531C17.6079 35.8281 17.673 35.89 17.7504 35.9329C17.8277 35.9757 17.9146 35.9983 18.0031 35.9983C18.0915 35.9983 18.1785 35.9757 18.2558 35.9329C18.3331 35.89 18.3983 35.8281 18.4451 35.7531L19.3801 34.2421C19.5281 34.2291 19.6751 34.2151 19.8201 34.1981L21.0321 35.4971C21.0922 35.5626 21.1681 35.6115 21.2526 35.6391C21.337 35.6668 21.4272 35.6722 21.5144 35.6549C21.6016 35.6377 21.6829 35.5982 21.7504 35.5405C21.8179 35.4827 21.8695 35.4085 21.9001 35.3251L22.5201 33.6651C22.6641 33.6231 22.8071 33.5791 22.9501 33.5351L24.3881 34.5711C24.4601 34.6228 24.5441 34.6553 24.6322 34.6655C24.7203 34.6756 24.8095 34.663 24.8914 34.6289C24.9733 34.5949 25.0451 34.5404 25.1 34.4708C25.1549 34.4012 25.1911 34.3186 25.2051 34.2311L25.4911 32.4811C25.6231 32.4131 25.7531 32.3411 25.8841 32.2711L27.4981 33.0061C27.5786 33.0432 27.6673 33.0591 27.7557 33.0522C27.8441 33.0453 27.9292 33.0159 28.003 32.9668C28.0768 32.9177 28.1368 32.8504 28.1773 32.7715C28.2177 32.6926 28.2373 32.6047 28.2341 32.5161L28.1721 30.7381C28.2871 30.6471 28.4001 30.5531 28.5121 30.4581L30.2431 30.8661C30.3734 30.8977 30.511 30.8774 30.6267 30.8095C30.7424 30.7416 30.8272 30.6313 30.8631 30.5021C30.8873 30.417 30.8894 30.3272 30.8691 30.2411L30.4611 28.5101C30.5561 28.3971 30.6501 28.2841 30.7411 28.1691L32.5181 28.2311C32.6069 28.2347 32.6951 28.2155 32.7743 28.1752C32.8535 28.1349 32.921 28.0749 32.9703 28.001C33.0196 27.9271 33.0491 27.8417 33.0559 27.7531C33.0627 27.6645 33.0465 27.5756 33.0091 27.4951L32.2741 25.8811C32.3451 25.7511 32.4161 25.6201 32.4841 25.4871L34.2341 25.2021C34.3666 25.1815 34.486 25.1103 34.5669 25.0033C34.6479 24.8964 34.6842 24.7622 34.6681 24.6291C34.6577 24.541 34.625 24.457 34.5731 24.3851L33.5381 22.9471C33.5821 22.8041 33.6261 22.6621 33.6681 22.5171L35.3281 21.8971C35.4113 21.8664 35.4853 21.8149 35.5429 21.7474C35.6005 21.68 35.6399 21.5988 35.6571 21.5118C35.6744 21.4248 35.669 21.3348 35.6415 21.2504C35.614 21.1661 35.5653 21.0902 35.5001 21.0301L34.2011 19.8191C34.2171 19.6731 34.2311 19.5251 34.2441 19.3791L35.7561 18.4431C35.8313 18.3964 35.8934 18.3314 35.9365 18.254C35.9795 18.1767 36.0021 18.0896 36.0021 18.0011C36.0021 17.9125 35.9795 17.8255 35.9365 17.7481C35.8934 17.6708 35.8303 17.6057 35.7551 17.5591ZM25.6401 30.0961C25.3681 30.0311 25.1324 29.8623 24.9832 29.6258C24.8341 29.3893 24.7833 29.1038 24.8418 28.8304C24.9003 28.5569 25.0634 28.3172 25.2963 28.1625C25.5292 28.0077 25.8133 27.9501 26.0881 28.0021C26.2256 28.0315 26.3559 28.0877 26.4717 28.1675C26.5875 28.2473 26.6864 28.3491 26.7628 28.4671C26.8392 28.5851 26.8917 28.7171 26.9171 28.8554C26.9425 28.9936 26.9405 29.1356 26.9111 29.2731C26.8817 29.4106 26.8254 29.5409 26.7457 29.6567C26.6659 29.7725 26.564 29.8714 26.446 29.9478C26.328 30.0242 26.1961 30.0767 26.0578 30.1021C25.9195 30.1275 25.7776 30.1255 25.6401 30.0961ZM25.1261 26.6231C25.0008 26.5961 24.8715 26.5941 24.7455 26.6172C24.6195 26.6403 24.4993 26.6881 24.3918 26.7578C24.2843 26.8274 24.1916 26.9177 24.1191 27.0233C24.0465 27.1289 23.9956 27.2477 23.9691 27.3731L23.4321 29.8771C21.7261 30.6503 19.8741 31.0489 18.0011 31.0461C16.0211 31.0461 14.1411 30.6081 12.4561 29.8241L11.9201 27.3201C11.8935 27.1948 11.8424 27.076 11.7698 26.9705C11.6973 26.8649 11.6046 26.7748 11.4971 26.7051C11.3897 26.6354 11.2695 26.5877 11.1435 26.5645C11.0176 26.5413 10.8883 26.5432 10.7631 26.5701L8.55307 27.0451C8.14107 26.6221 7.75907 26.1721 7.40907 25.6981H18.1651C18.2871 25.6981 18.3681 25.6761 18.3681 25.5651V21.7601C18.3681 21.6501 18.2881 21.6281 18.1651 21.6281H15.0211V19.2161H18.4231C18.7331 19.2161 20.0831 19.3041 20.5151 21.0301C20.6511 21.5601 20.9471 23.2871 21.1501 23.8401C21.3531 24.4601 22.1761 25.6981 23.0541 25.6981H28.4141C28.4741 25.6981 28.5391 25.6911 28.6081 25.6781C28.2361 26.1841 27.8281 26.6621 27.3881 27.1081L25.1261 26.6231ZM10.2491 30.0431C9.97627 30.0906 9.69568 30.0305 9.46618 29.8756C9.23668 29.7207 9.0761 29.4829 9.01815 29.2121C8.96019 28.9413 9.00935 28.6586 9.15533 28.4233C9.3013 28.188 9.53274 28.0184 9.80107 27.9501C10.0789 27.8904 10.369 27.9435 10.6077 28.0978C10.8463 28.252 11.0139 28.4948 11.0736 28.7726C11.1332 29.0504 11.0801 29.3405 10.9259 29.5792C10.7716 29.8178 10.5289 29.9854 10.2511 30.0451L10.2491 30.0431ZM6.16907 13.4981C6.28418 13.7572 6.29163 14.0514 6.1898 14.316C6.08797 14.5806 5.88519 14.794 5.62607 14.9091C5.36696 15.0242 5.07273 15.0316 4.80811 14.9298C4.5435 14.828 4.33018 14.6252 4.21507 14.3661C4.12918 14.1727 4.10256 13.9582 4.13857 13.7497C4.17458 13.5411 4.27161 13.348 4.41739 13.1946C4.56317 13.0412 4.75115 12.9345 4.95757 12.888C5.16399 12.8414 5.37957 12.8571 5.57707 12.9331C5.70802 12.9838 5.8277 13.0597 5.92928 13.1567C6.03085 13.2536 6.11234 13.3696 6.16907 13.4981ZM4.91507 16.4701L7.21807 15.4461C7.45421 15.3408 7.63895 15.1462 7.73175 14.9049C7.82455 14.6637 7.81783 14.3954 7.71307 14.1591L7.23907 13.0861H9.10407V21.4941H5.34107C4.87701 19.8624 4.73237 18.1565 4.91507 16.4701ZM15.0201 15.6531V13.1751H19.4621C19.6921 13.1751 21.0821 13.4401 21.0821 14.4801C21.0821 15.3431 20.0161 15.6531 19.1381 15.6531H15.0211H15.0201ZM31.1631 17.8831C31.1631 18.2131 31.1511 18.5381 31.1271 18.8611H29.7771C29.6411 18.8611 29.5871 18.9501 29.5871 19.0821V19.7021C29.5871 21.1621 28.7641 21.4791 28.0431 21.5601C27.3561 21.6381 26.5941 21.2731 26.5001 20.8521C26.0951 18.5731 25.4201 18.0871 24.3541 17.2461C25.6771 16.4061 27.0541 15.1661 27.0541 13.5061C27.0541 11.7151 25.8251 10.5861 24.9881 10.0331C23.8141 9.25907 22.5131 9.10307 22.1621 9.10307H8.19607C10.1267 6.94535 12.7157 5.48545 15.5611 4.95007L17.2071 6.67707C17.3857 6.86383 17.6313 6.972 17.8897 6.97782C18.1481 6.98363 18.3982 6.88661 18.5851 6.70807L20.4271 4.94707C22.3043 5.29958 24.0824 6.05607 25.6382 7.16411C27.194 8.27216 28.4902 9.70525 29.4371 11.3641L28.1771 14.2121C28.0723 14.4486 28.0655 14.7169 28.1583 14.9584C28.2511 15.1998 28.4359 15.3946 28.6721 15.5001L31.1001 16.5781C31.1421 17.0081 31.1641 17.4441 31.1641 17.8861L31.1631 17.8831ZM17.2071 3.48007C17.3085 3.38301 17.428 3.30688 17.5589 3.25605C17.6897 3.20522 17.8293 3.18068 17.9696 3.18384C18.11 3.187 18.2483 3.21779 18.3767 3.27445C18.5051 3.33112 18.6211 3.41254 18.7181 3.51407C18.9139 3.71963 19.0202 3.99447 19.0137 4.27831C19.0071 4.56215 18.8882 4.83179 18.6831 5.02807C18.5304 5.17517 18.3375 5.27348 18.1287 5.31045C17.92 5.34742 17.705 5.32139 17.5111 5.23567C17.3173 5.14994 17.1533 5.00842 17.0402 4.82914C16.9271 4.64986 16.87 4.44096 16.8761 4.22907C16.8831 3.94507 17.0021 3.67607 17.2061 3.47907L17.2071 3.48007ZM29.7201 13.5501C29.7768 13.4216 29.8582 13.3056 29.9598 13.2087C30.0614 13.1118 30.1811 13.0358 30.3121 12.9852C30.443 12.9346 30.5827 12.9103 30.723 12.9137C30.8634 12.9171 31.0017 12.9482 31.1301 13.0051C31.3897 13.12 31.5931 13.3335 31.6954 13.5983C31.7977 13.8632 31.7905 14.1579 31.6756 14.4176C31.5606 14.6772 31.3472 14.8806 31.0823 14.9829C30.8174 15.0852 30.5227 15.078 30.2631 14.9631C30.004 14.8474 29.8013 14.6337 29.6996 14.3688C29.5978 14.1039 29.6052 13.8095 29.7201 13.5501Z" fill="#1A1A1A"/>
</g>
</g>
<defs>
<clipPath id="clip0_7688_10970">
<rect width="36" height="36" fill="white"/>
</clipPath>
</defs>
</svg>
