<svg width="32" height="32" viewBox="0 0 32 32" fill="none" xmlns="http://www.w3.org/2000/svg">
<mask id="mask0_7849_6271" style="mask-type:luminance" maskUnits="userSpaceOnUse" x="6" y="0" width="21" height="32">
<path d="M26.4255 0H6V32H26.4255V0Z" fill="white"/>
</mask>
<g mask="url(#mask0_7849_6271)">
<path d="M26.366 22.6186C26.366 10.8497 11.4706 14.9872 11.4706 8.91881C11.4706 6.43608 13.3096 5.05702 16.0681 5.05702C18.9185 5.05702 20.7574 6.61992 20.7574 9.33277H26.2281C26.2281 3.76987 21.9986 0 16.0681 0C10.2298 0 6.04596 3.5857 6.04596 8.91881C6.04596 20.4119 20.8494 15.4928 20.8494 22.6186C20.8494 25.2391 19.1023 26.6642 16.2519 26.6642C13.3096 26.6642 11.4706 25.1013 11.4706 22.3888H6C6 27.9513 10.2757 31.7212 16.2519 31.7212C22.1365 31.7212 26.366 28.0436 26.366 22.6186ZM52.2158 19.7685C52.2158 12.7806 47.2507 7.81549 40.2628 7.81549C33.2749 7.81549 28.3098 12.7806 28.3098 19.7685C28.3098 26.8024 33.2749 31.7212 40.2628 31.7212C45.4117 31.7212 49.9173 29.1469 51.2044 24.7796H45.3198C44.1706 26.4803 42.3316 27.0322 40.2628 27.0322C36.8609 27.0322 34.4701 25.0553 33.7348 21.7913H52.032C52.1239 21.1476 52.2158 20.4579 52.2158 19.7685ZM40.2628 12.5042C43.4349 12.5042 45.7797 14.2972 46.561 17.2854H33.8727C34.6999 14.2972 37.0448 12.5042 40.2628 12.5042ZM65.8982 7.81549C58.9103 7.81549 53.9452 12.7346 53.9452 19.7685C53.9452 26.7564 58.9103 31.7212 65.8982 31.7212C68.5188 31.7212 70.7714 30.848 72.5185 29.3307V39.0771H77.8512V8.2754H72.5185V10.206C70.7714 8.64272 68.5188 7.81549 65.8982 7.81549ZM65.8982 12.6883C69.8979 12.6883 72.5185 15.4928 72.5185 19.7682C72.5185 24.0439 69.8979 26.8483 65.8982 26.8483C61.8526 26.8483 59.186 24.0439 59.186 19.7685C59.186 15.4928 61.8526 12.6883 65.8982 12.6883ZM80.7598 22.0667C80.7598 27.7219 84.5757 31.7212 90.0003 31.7212C92.2529 31.7212 94.1838 30.894 95.6092 29.4686V31.2616H100.85V8.27506H95.6092V22.0671C95.6092 24.9174 93.6783 26.8483 90.8279 26.8483C87.9775 26.8483 86.0466 24.9174 86.0466 22.0671V8.27506H80.7598V22.0667ZM103.837 5.5166H109.17V0.459915H103.837V5.5166ZM103.837 31.2616H109.17V8.27506H103.837V31.2616ZM112.098 31.2616H117.431V17.4696C117.431 14.6192 119.27 12.6887 122.212 12.6887C125.016 12.6887 126.947 14.6192 126.947 17.4696V31.2616H132.234V17.4696C132.234 11.8151 128.418 7.81515 122.993 7.81515C120.787 7.81515 118.856 8.59677 117.431 10.0221V8.27506H112.098V31.2616Z" fill="black"/>
</g>
</svg>
