<svg width="36" height="36" viewBox="0 0 36 36" fill="none" xmlns="http://www.w3.org/2000/svg">
<g clip-path="url(#clip0_26637_1687)">
<path fill-rule="evenodd" clip-rule="evenodd" d="M17.6081 5.22511L28.7525 11.5654L33.2171 8.98764L17.6486 -0.00053215L2.00244 8.98764L6.46702 11.5654L17.6075 5.22511" fill="#54585F"/>
<path fill-rule="evenodd" clip-rule="evenodd" d="M2.081 9.03608L6.58602 11.6368V24.5057L17.6085 30.8714V35.9771L2 27.0123L2.08145 9.03571" fill="#37393E"/>
<path fill-rule="evenodd" clip-rule="evenodd" d="M13.29 15.5036L17.6293 18.0087V23.1138L15.379 21.8134L13.2909 20.6078L13.2901 15.5036" fill="#2E9D4D"/>
<path fill-rule="evenodd" clip-rule="evenodd" d="M22.0489 15.4562L17.6294 18.0075V23.1128L21.9678 20.6063L22.0489 15.4562Z" fill="#256F44"/>
<path fill-rule="evenodd" clip-rule="evenodd" d="M33.1364 9.03583L28.6314 11.6366V24.3634L23.2421 27.6163L17.6089 30.8709V35.9766L17.6494 36L33.1511 27.0507L33.1368 9.03522" fill="#18191B"/>
<path fill-rule="evenodd" clip-rule="evenodd" d="M17.6288 18.0078L13.2896 15.5026V15.472L17.6288 12.9665L17.6824 12.9356L19.8787 14.2039L22.0483 15.4563L17.6288 18.0078Z" fill="#9FD62B"/>
<path fill-rule="evenodd" clip-rule="evenodd" d="M7.77197 18.5689L12.1112 21.0742V26.1792L9.86096 24.8787L7.77282 23.6731L7.77202 18.5689" fill="#37393E"/>
<path fill-rule="evenodd" clip-rule="evenodd" d="M16.4506 18.5689L12.1113 21.0742V26.1792L16.4501 23.6728L16.4506 18.5689Z" fill="#18191B"/>
<path fill-rule="evenodd" clip-rule="evenodd" d="M12.1114 21.0742L7.77246 18.5693L9.9688 17.2705L12.1115 16.0329L16.451 18.5693L12.1115 21.0742" fill="#54585F"/>
<path fill-rule="evenodd" clip-rule="evenodd" d="M18.939 18.6997L23.2782 21.205V26.3101L21.028 25.0096L18.9398 23.8041L18.939 18.6997" fill="#37393E"/>
<path fill-rule="evenodd" clip-rule="evenodd" d="M27.6181 18.6997L23.2788 21.205V26.3101L27.6175 23.8038L27.6181 18.6997Z" fill="#18191B"/>
<path fill-rule="evenodd" clip-rule="evenodd" d="M23.278 21.2051L18.939 18.7V18.6694L21.1353 17.4012L23.278 16.1638L27.6175 18.7L23.278 21.2051Z" fill="#54585F"/>
<path fill-rule="evenodd" clip-rule="evenodd" d="M13.4654 21.9191L17.8045 24.4244V29.5293L15.5544 28.2289L13.4661 27.0233L13.4653 21.9191" fill="#37393E"/>
<path fill-rule="evenodd" clip-rule="evenodd" d="M22.1439 21.9191L17.8047 24.4244V29.5293L22.1435 27.023L22.1439 21.9191Z" fill="#18191B"/>
<path fill-rule="evenodd" clip-rule="evenodd" d="M17.8047 24.4238L13.4658 21.9188V21.8882L15.662 20.62L17.8047 19.3824L22.1442 21.9188L17.8047 24.4238Z" fill="#54585F"/>
<path fill-rule="evenodd" clip-rule="evenodd" d="M13.29 8.67775L17.6293 11.183V16.2881L15.379 14.9876L13.2909 13.7821L13.2901 8.67775" fill="#37393E"/>
<path fill-rule="evenodd" clip-rule="evenodd" d="M22.0489 8.63148L17.6294 11.1828V16.2881L21.9678 13.7815L22.0489 8.63148Z" fill="#18191B"/>
<path fill-rule="evenodd" clip-rule="evenodd" d="M17.6288 11.1831L13.2896 8.67782V8.64722L17.6288 6.14169L17.6824 6.11085L19.8787 7.37903L22.0483 8.63155L17.6288 11.1831Z" fill="#54585F"/>
<path fill-rule="evenodd" clip-rule="evenodd" d="M7.77197 11.7438L12.1112 14.249V19.354L9.86096 18.0536L7.77282 16.848L7.77202 11.7438" fill="#37393E"/>
<path fill-rule="evenodd" clip-rule="evenodd" d="M16.4511 11.7438L12.1118 14.249V19.354L16.4506 16.8477L16.4511 11.7438Z" fill="#18191B"/>
<path fill-rule="evenodd" clip-rule="evenodd" d="M12.1114 14.249L7.77246 11.7441L9.9688 10.4453L12.1115 9.20761L16.451 11.7441L12.1115 14.249" fill="#54585F"/>
<path fill-rule="evenodd" clip-rule="evenodd" d="M18.939 11.875L23.2782 14.3803V19.4854L21.028 18.1849L18.9398 16.9792L18.939 11.875Z" fill="#37393E"/>
<path fill-rule="evenodd" clip-rule="evenodd" d="M27.6181 11.875L23.2788 14.3803V19.4854L27.6175 16.979L27.6181 11.875Z" fill="#18191B"/>
<path fill-rule="evenodd" clip-rule="evenodd" d="M23.278 14.3804L18.939 11.8753V11.8447L21.1353 10.5765L23.278 9.33896L27.6175 11.8753L23.278 14.3804Z" fill="#54585F"/>
<path fill-rule="evenodd" clip-rule="evenodd" d="M13.4654 15.0944L17.8045 17.5995V22.7046L15.5544 21.4042L13.4661 20.1986L13.4653 15.0944" fill="#37393E"/>
<path fill-rule="evenodd" clip-rule="evenodd" d="M22.1439 15.0944L17.8047 17.5995V22.7046L22.1435 20.1982L22.1439 15.0944Z" fill="#18191B"/>
<path fill-rule="evenodd" clip-rule="evenodd" d="M17.8047 17.5986L13.4658 15.0937V15.0631L15.662 13.7948L17.8047 12.5572L22.1442 15.0937L17.8047 17.5986Z" fill="#54585F"/>
</g>
<defs>
<clipPath id="clip0_26637_1687">
<rect width="36" height="36" fill="white"/>
</clipPath>
</defs>
</svg>
