<svg width="60" height="94" viewBox="0 0 60 94" fill="none" xmlns="http://www.w3.org/2000/svg">
<g clip-path="url(#clip0_109_3)">
<path d="M59.825 66.442C59.825 31.871 16.07 44.025 16.07 26.199C16.07 18.906 21.472 14.855 29.575 14.855C37.948 14.855 43.35 19.446 43.35 27.415H59.42C59.42 11.074 46.996 0 29.575 0C12.425 0 0.135 10.533 0.135 26.199C0.135 59.96 43.62 45.51 43.62 66.442C43.62 74.14 38.488 78.326 30.115 78.326C21.472 78.326 16.07 73.735 16.07 65.767H0C0 82.107 12.56 93.181 30.115 93.181C47.401 93.181 59.825 82.378 59.825 66.442ZM135.759 58.07C135.759 37.543 121.174 22.958 100.647 22.958C80.12 22.958 65.535 37.543 65.535 58.07C65.535 78.732 80.12 93.181 100.647 93.181C115.772 93.181 129.007 85.619 132.788 72.79H115.502C112.126 77.786 106.724 79.407 100.647 79.407C90.654 79.407 83.631 73.6 81.471 64.012H135.219C135.489 62.121 135.759 60.095 135.759 58.07ZM100.647 36.731C109.965 36.731 116.853 41.998 119.148 50.776H81.876C84.306 41.998 91.194 36.731 100.647 36.731ZM175.951 22.958C155.424 22.958 140.839 37.408 140.839 58.07C140.839 78.597 155.424 93.181 175.951 93.181C183.649 93.181 190.266 90.616 195.398 86.159V114.789H211.063V24.309H195.398V29.98C190.266 25.388 183.649 22.958 175.951 22.958ZM175.951 37.272C187.7 37.272 195.398 45.51 195.398 58.069C195.398 70.629 187.7 78.867 175.951 78.867C164.067 78.867 156.234 70.629 156.234 58.07C156.234 45.51 164.067 37.272 175.951 37.272ZM219.607 64.821C219.607 81.433 230.816 93.181 246.751 93.181C253.368 93.181 259.04 90.751 263.227 86.564V91.831H278.622V24.308H263.227V64.822C263.227 73.195 257.555 78.867 249.182 78.867C240.809 78.867 235.137 73.195 235.137 64.822V24.308H219.607V64.821ZM287.397 16.205H303.062V1.351H287.397V16.205ZM287.397 91.831H303.062V24.308H287.397V91.831ZM311.663 91.831H327.328V51.317C327.328 42.944 332.73 37.273 341.373 37.273C349.61 37.273 355.282 42.944 355.282 51.317V91.831H370.813V51.317C370.813 34.707 359.604 22.957 343.668 22.957C337.186 22.957 331.514 25.253 327.328 29.44V24.308H311.663V91.831Z" fill="black"/>
</g>
<defs>
<clipPath id="clip0_109_3">
<rect width="60" height="94" fill="white"/>
</clipPath>
</defs>
</svg>
