<svg width="33" height="32" viewBox="0 0 33 32" fill="none" xmlns="http://www.w3.org/2000/svg">
<mask id="mask0_7849_6336" style="mask-type:luminance" maskUnits="userSpaceOnUse" x="6" y="0" width="22" height="32">
<path d="M27.3142 0H6.88867V32H27.3142V0Z" fill="white"/>
</mask>
<g mask="url(#mask0_7849_6336)">
<path d="M27.2546 22.6186C27.2546 10.8497 12.3593 14.9872 12.3593 8.91881C12.3593 6.43608 14.1983 5.05702 16.9568 5.05702C19.8071 5.05702 21.6461 6.61992 21.6461 9.33277H27.1168C27.1168 3.76987 22.8873 0 16.9568 0C11.1185 0 6.93463 3.5857 6.93463 8.91881C6.93463 20.4119 21.738 15.4928 21.738 22.6186C21.738 25.2391 19.991 26.6642 17.1406 26.6642C14.1983 26.6642 12.3593 25.1013 12.3593 22.3888H6.88867C6.88867 27.9513 11.1644 31.7212 17.1406 31.7212C23.0252 31.7212 27.2546 28.0436 27.2546 22.6186ZM53.1045 19.7685C53.1045 12.7806 48.1394 7.81549 41.1515 7.81549C34.1636 7.81549 29.1985 12.7806 29.1985 19.7685C29.1985 26.8024 34.1636 31.7212 41.1515 31.7212C46.3004 31.7212 50.8059 29.1469 52.0931 24.7796H46.2085C45.0592 26.4803 43.2202 27.0322 41.1515 27.0322C37.7496 27.0322 35.3588 25.0553 34.6235 21.7913H52.9207C53.0126 21.1476 53.1045 20.4579 53.1045 19.7685ZM41.1515 12.5042C44.3236 12.5042 46.6684 14.2972 47.4497 17.2854H34.7614C35.5886 14.2972 37.9334 12.5042 41.1515 12.5042ZM66.7869 7.81549C59.799 7.81549 54.8339 12.7346 54.8339 19.7685C54.8339 26.7564 59.799 31.7212 66.7869 31.7212C69.4075 31.7212 71.6601 30.848 73.4071 29.3307V39.0771H78.7399V8.2754H73.4071V10.206C71.6601 8.64272 69.4075 7.81549 66.7869 7.81549ZM66.7869 12.6883C70.7865 12.6883 73.4071 15.4928 73.4071 19.7682C73.4071 24.0439 70.7865 26.8483 66.7869 26.8483C62.7413 26.8483 60.0747 24.0439 60.0747 19.7685C60.0747 15.4928 62.7413 12.6883 66.7869 12.6883ZM81.6485 22.0667C81.6485 27.7219 85.4643 31.7212 90.889 31.7212C93.1416 31.7212 95.0725 30.894 96.4979 29.4686V31.2616H101.739V8.27506H96.4979V22.0671C96.4979 24.9174 94.567 26.8483 91.7166 26.8483C88.8662 26.8483 86.9353 24.9174 86.9353 22.0671V8.27506H81.6485V22.0667ZM104.726 5.5166H110.059V0.459915H104.726V5.5166ZM104.726 31.2616H110.059V8.27506H104.726V31.2616ZM112.987 31.2616H118.319V17.4696C118.319 14.6192 120.158 12.6887 123.101 12.6887C125.905 12.6887 127.836 14.6192 127.836 17.4696V31.2616H133.123V17.4696C133.123 11.8151 129.307 7.81515 123.882 7.81515C121.675 7.81515 119.744 8.59677 118.319 10.0221V8.27506H112.987V31.2616Z" fill="white"/>
</g>
</svg>
