<svg width="36" height="36" viewBox="0 0 36 36" fill="none" xmlns="http://www.w3.org/2000/svg">
<path fill-rule="evenodd" clip-rule="evenodd" d="M17.6095 5.22608L28.754 11.5664L33.2186 8.98862L17.6501 0.000444091L2.00391 8.98862L6.46849 11.5664L17.6089 5.22608" fill="#03AFEF"/>
<path fill-rule="evenodd" clip-rule="evenodd" d="M2.081 9.03559L6.58602 11.6363V24.5052L17.6085 30.8709V35.9766L2 27.0118L2.08145 9.03522" fill="#2279BE"/>
<path fill-rule="evenodd" clip-rule="evenodd" d="M13.2891 15.5031L17.6283 18.0082V23.1133L15.3781 21.8129L13.2899 20.6073L13.2891 15.5031" fill="#2E9D4D"/>
<path fill-rule="evenodd" clip-rule="evenodd" d="M22.0484 15.4567L17.6289 18.008V23.1133L21.9673 20.6068L22.0484 15.4567Z" fill="#256F44"/>
<path fill-rule="evenodd" clip-rule="evenodd" d="M33.1369 9.03583L28.6319 11.6366V24.3634L23.2426 27.6163L17.6094 30.8709V35.9766L17.6499 36L33.1516 27.0507L33.1373 9.03522" fill="#354879"/>
<path fill-rule="evenodd" clip-rule="evenodd" d="M17.6283 18.0078L13.2891 15.5026V15.472L17.6283 12.9665L17.6819 12.9356L19.8782 14.2039L22.0478 15.4563L17.6283 18.0078Z" fill="#9FD62B"/>
<path fill-rule="evenodd" clip-rule="evenodd" d="M7.77344 18.5694L12.1127 21.0746V26.1797L9.86243 24.8792L7.77429 23.6736L7.77349 18.5694" fill="#2279BE"/>
<path fill-rule="evenodd" clip-rule="evenodd" d="M16.4525 18.5694L12.1133 21.0746V26.1797L16.4521 23.6733L16.4525 18.5694Z" fill="#354879"/>
<path fill-rule="evenodd" clip-rule="evenodd" d="M12.1123 21.0742L7.77344 18.5693L9.96978 17.2705L12.1124 16.0329L16.4519 18.5693L12.1124 21.0742" fill="#03AFEF"/>
<path fill-rule="evenodd" clip-rule="evenodd" d="M18.9375 18.6983L23.2768 21.2035V26.3086L21.0265 25.0081L18.9383 23.8026L18.9375 18.6983" fill="#2279BE"/>
<path fill-rule="evenodd" clip-rule="evenodd" d="M27.6166 18.6983L23.2773 21.2035V26.3086L27.616 23.8023L27.6166 18.6983Z" fill="#354879"/>
<path fill-rule="evenodd" clip-rule="evenodd" d="M23.2765 21.207L18.9375 18.702V18.6714L21.1338 17.4032L23.2765 16.1657L27.616 18.702L23.2765 21.207Z" fill="#03AFEF"/>
<path fill-rule="evenodd" clip-rule="evenodd" d="M13.4649 21.921L17.804 24.4263V29.5312L15.5539 28.2309L13.4656 27.0252L13.4648 21.921" fill="#2279BE"/>
<path fill-rule="evenodd" clip-rule="evenodd" d="M22.1439 21.921L17.8047 24.4263V29.5312L22.1435 27.025L22.1439 21.921Z" fill="#354879"/>
<path fill-rule="evenodd" clip-rule="evenodd" d="M17.8037 24.4258L13.4648 21.9207V21.8901L15.6611 20.622L17.8037 19.3844L22.1432 21.9207L17.8037 24.4258Z" fill="#03AFEF"/>
<path fill-rule="evenodd" clip-rule="evenodd" d="M13.2891 8.67873L17.6283 11.184V16.2891L15.3781 14.9886L13.2899 13.783L13.2891 8.67873" fill="#2279BE"/>
<path fill-rule="evenodd" clip-rule="evenodd" d="M22.0484 8.63246L17.6289 11.1838V16.2891L21.9673 13.7824L22.0484 8.63246Z" fill="#354879"/>
<path fill-rule="evenodd" clip-rule="evenodd" d="M17.6283 11.1836L13.2891 8.67831V8.64771L17.6283 6.14218L17.6819 6.11133L19.8782 7.37952L22.0478 8.63204L17.6283 11.1836Z" fill="#03AFEF"/>
<path fill-rule="evenodd" clip-rule="evenodd" d="M7.77344 11.7453L12.1127 14.2504V19.3555L9.86243 18.0551L7.77429 16.8495L7.77349 11.7453" fill="#2279BE"/>
<path fill-rule="evenodd" clip-rule="evenodd" d="M16.4525 11.7453L12.1133 14.2504V19.3555L16.4521 16.8492L16.4525 11.7453Z" fill="#354879"/>
<path fill-rule="evenodd" clip-rule="evenodd" d="M12.1123 14.25L7.77344 11.7451L9.96978 10.4463L12.1124 9.20859L16.4519 11.7451L12.1124 14.25" fill="#03AFEF"/>
<path fill-rule="evenodd" clip-rule="evenodd" d="M18.9375 11.874L23.2768 14.3793V19.4844L21.0265 18.1839L18.9383 16.9782L18.9375 11.874Z" fill="#2279BE"/>
<path fill-rule="evenodd" clip-rule="evenodd" d="M27.6166 11.874L23.2773 14.3793V19.4844L27.616 16.978L27.6166 11.874Z" fill="#354879"/>
<path fill-rule="evenodd" clip-rule="evenodd" d="M23.2765 14.3789L18.9375 11.8739V11.8433L21.1338 10.5751L23.2765 9.33749L27.616 11.8739L23.2765 14.3789Z" fill="#03AFEF"/>
<path fill-rule="evenodd" clip-rule="evenodd" d="M13.4649 15.0929L17.804 17.5981V22.7031L15.5539 21.4028L13.4656 20.1971L13.4648 15.0929" fill="#2279BE"/>
<path fill-rule="evenodd" clip-rule="evenodd" d="M22.1439 15.0929L17.8047 17.5981V22.7031L22.1435 20.1967L22.1439 15.0929Z" fill="#354879"/>
<path fill-rule="evenodd" clip-rule="evenodd" d="M17.8037 17.5977L13.4648 15.0927V15.0621L15.6611 13.7938L17.8037 12.5562L22.1432 15.0927L17.8037 17.5977Z" fill="#03AFEF"/>
</svg>
