<svg width="36" height="36" viewBox="0 0 36 36" fill="none" xmlns="http://www.w3.org/2000/svg">
<g clip-path="url(#clip0_7688_11693)">
<path fill-rule="evenodd" clip-rule="evenodd" d="M34.713 15.5481L30.4701 18.0012L34.713 20.4467C34.9749 20.5893 35.2055 20.7829 35.3915 21.016C35.5774 21.2491 35.7148 21.5171 35.7957 21.8042C35.8765 22.0912 35.8991 22.3915 35.8621 22.6874C35.8251 22.9833 35.7293 23.2688 35.5804 23.5271C35.4314 23.7854 35.2322 24.0114 34.9947 24.1916C34.7571 24.3718 34.4858 24.5026 34.1969 24.5764C33.908 24.6502 33.6072 24.6655 33.3123 24.6213C33.0174 24.5772 32.7343 24.4745 32.4797 24.3192L24.8798 19.9324C24.3907 19.652 24.0274 19.1953 23.8641 18.6557C23.79 18.4209 23.7561 18.1753 23.7638 17.9292C23.769 17.7531 23.7947 17.577 23.841 17.4008C23.9978 16.8349 24.3697 16.3527 24.8773 16.0572L32.4746 11.6755C32.7287 11.529 33.0093 11.4339 33.3002 11.3958C33.5911 11.3577 33.8867 11.3773 34.17 11.4535C34.4534 11.5297 34.7189 11.6609 34.9515 11.8398C35.1841 12.0186 35.3791 12.2415 35.5256 12.4958C35.6736 12.7492 35.7701 13.0294 35.8094 13.3203C35.8487 13.6111 35.83 13.9069 35.7545 14.1905C35.679 14.4741 35.548 14.74 35.3693 14.9727C35.1905 15.2055 34.9675 15.4019 34.713 15.5481ZM30.6951 27.4358L23.1017 23.0567C22.7107 22.8277 22.2585 22.7253 21.807 22.7635C21.2443 22.8048 20.7182 23.0578 20.3346 23.4714C19.951 23.8851 19.7384 24.4288 19.7396 24.993V33.7615C19.7324 34.0596 19.7849 34.356 19.8941 34.6335C20.0032 34.9109 20.1667 35.1637 20.3749 35.3771C20.5832 35.5904 20.832 35.7599 21.1068 35.8756C21.3815 35.9914 21.6766 36.051 21.9748 36.051C22.2729 36.051 22.568 35.9914 22.8428 35.8756C23.1175 35.7599 23.3663 35.5904 23.5746 35.3771C23.7829 35.1637 23.9464 34.9109 24.0555 34.6335C24.1646 34.356 24.2171 34.0596 24.21 33.7615V28.8565L28.4618 31.311C28.7156 31.4584 28.996 31.5544 29.287 31.5932C29.5779 31.6321 29.8737 31.6131 30.1573 31.5373C30.4409 31.4616 30.7067 31.3306 30.9396 31.1519C31.1724 30.9731 31.3677 30.7502 31.5141 30.4958C31.8107 29.9813 31.891 29.3701 31.7374 28.7964C31.5839 28.2228 31.209 27.7334 30.6951 27.4358ZM21.9317 18.8575L18.774 22.0114C18.6659 22.1122 18.5256 22.1714 18.378 22.1785H17.451C17.3036 22.1704 17.1636 22.1113 17.055 22.0114L13.8973 18.8575C13.799 18.7492 13.7413 18.6102 13.734 18.4641V17.5358C13.734 17.4072 13.806 17.2285 13.8973 17.1372L17.0524 13.9847C17.1612 13.8854 17.3013 13.8272 17.4484 13.8201H18.378C18.5066 13.8201 18.6827 13.8921 18.774 13.9847L21.9317 17.1385C22.0217 17.2285 22.095 17.4072 22.095 17.5371V18.4654C22.0867 18.6112 22.0292 18.7487 21.9317 18.8575ZM19.4078 17.9832C19.3977 17.8353 19.3384 17.695 19.2394 17.5847L18.3266 16.6731C18.2171 16.5738 18.0768 16.5152 17.9293 16.5072H17.8933C17.7468 16.5158 17.6077 16.5749 17.4998 16.6744L16.587 17.5847C16.4902 17.6957 16.4335 17.8361 16.4263 17.9832V18.0192C16.4263 18.1465 16.4957 18.3227 16.5857 18.4127L17.4998 19.3255C17.5898 19.4168 17.766 19.4927 17.8933 19.4927H17.9293C18.0764 19.4836 18.2161 19.4247 18.3253 19.3255L19.2394 18.4127C19.3384 18.3044 19.3973 18.1656 19.4066 18.0192L19.4078 17.9832ZM5.13255 8.55638L12.7298 12.9407C13.1387 13.176 13.5913 13.2698 14.0258 13.2338C14.5886 13.1913 15.1145 12.9377 15.4982 12.5238C15.8818 12.1098 16.0949 11.5662 16.0946 11.0018V2.23324C16.0806 1.6497 15.8389 1.09478 15.4213 0.687017C15.0036 0.279255 14.443 0.0509916 13.8593 0.0509916C13.2756 0.0509916 12.7151 0.279255 12.2974 0.687017C11.8798 1.09478 11.6381 1.6497 11.6241 2.23324V7.13952L7.36841 4.68124C6.85453 4.38457 6.24385 4.3042 5.67072 4.45779C5.09758 4.61138 4.60893 4.98636 4.31227 5.50024C4.0156 6.01411 3.93523 6.62479 4.08882 7.19793C4.24241 7.77107 4.61868 8.25972 5.13255 8.55638ZM21.8083 13.2338C22.2592 13.2707 22.7107 13.1684 23.1017 12.9407L30.6951 8.55638C31.2089 8.25925 31.5837 7.77038 31.7372 7.19712C31.8908 6.62386 31.8105 6.01309 31.5141 5.49895C31.2178 4.98579 30.7297 4.61136 30.1573 4.45801C29.5849 4.30467 28.975 4.38496 28.4618 4.68124L24.2087 7.14081V2.23067C24.2087 1.63802 23.9733 1.06965 23.5542 0.650585C23.1351 0.231521 22.5668 -0.00390625 21.9741 -0.00390625C21.3815 -0.00390625 20.8131 0.231521 20.394 0.650585C19.975 1.06965 19.7396 1.63802 19.7396 2.23067V11.0005C19.7383 11.565 19.9509 12.1089 20.3344 12.523C20.718 12.9371 21.2441 13.1906 21.807 13.2325L21.8083 13.2338ZM14.0258 22.7635C13.5739 22.7251 13.1212 22.8275 12.7298 23.0567L5.13127 27.4358C4.61806 27.7341 4.24398 28.2236 4.09095 28.7972C3.93793 29.3707 4.01844 29.9815 4.31484 30.4958C4.61162 31.0082 5.09962 31.3818 5.67168 31.5347C6.24373 31.6875 6.85306 31.607 7.36584 31.311L11.6216 28.8565V33.7628C11.6216 34.3556 11.857 34.9242 12.2762 35.3433C12.6954 35.7625 13.264 35.998 13.8568 35.998C14.4496 35.998 15.0181 35.7625 15.4373 35.3433C15.8565 34.9242 16.092 34.3556 16.092 33.7628V24.993C16.0935 24.4289 15.8812 23.8852 15.4977 23.4715C15.1143 23.0578 14.5884 22.8048 14.0258 22.7635ZM11.9661 18.6557C12.0407 18.4178 12.0716 18.1722 12.0664 17.9292C12.0557 17.5473 11.947 17.1744 11.7507 16.8466C11.5543 16.5188 11.277 16.2469 10.9453 16.0572L3.35441 11.6755C3.10023 11.5286 2.81956 11.4332 2.52847 11.3949C2.23739 11.3567 1.9416 11.3762 1.65807 11.4524C1.37454 11.5286 1.10882 11.66 0.876145 11.839C0.643469 12.0181 0.448404 12.2413 0.302123 12.4958C0.15477 12.7497 0.0590203 13.0301 0.0203756 13.3211C-0.0182691 13.612 0.000952471 13.9077 0.076936 14.1912C0.15292 14.4747 0.284168 14.7404 0.463141 14.9731C0.642115 15.2057 0.865287 15.4007 1.11984 15.5468L5.36269 18.0012L1.11727 20.4467C0.857548 20.5905 0.629085 20.7847 0.445211 21.0178C0.261336 21.2509 0.125733 21.5183 0.0463149 21.8044C-0.0331034 22.0905 -0.0547464 22.3896 -0.017351 22.6841C0.0200444 22.9786 0.115729 23.2628 0.264119 23.5199C0.41251 23.7771 0.610633 24.0021 0.846928 24.1819C1.08322 24.3617 1.35296 24.4926 1.64039 24.567C1.92782 24.6414 2.22719 24.6578 2.52104 24.6153C2.81488 24.5727 3.09731 24.4721 3.35184 24.3192L10.944 19.9324C11.4583 19.6392 11.8054 19.1764 11.9661 18.6557Z" fill="#249EDC"/>
</g>
<defs>
<clipPath id="clip0_7688_11693">
<rect width="36" height="36" fill="white"/>
</clipPath>
</defs>
</svg>
