<svg width="36" height="36" viewBox="0 0 36 36" fill="none" xmlns="http://www.w3.org/2000/svg">
<g clip-path="url(#clip0_28269_1933)">
<path fill-rule="evenodd" clip-rule="evenodd" d="M34.7144 15.5496L30.4716 18.0027L34.7144 20.4481C34.9763 20.5908 35.207 20.7844 35.3929 21.0175C35.5789 21.2506 35.7163 21.5186 35.7971 21.8056C35.8779 22.0927 35.9005 22.393 35.8636 22.6889C35.8266 22.9848 35.7308 23.2703 35.5818 23.5286C35.4328 23.7869 35.2337 24.0128 34.9961 24.193C34.7585 24.3732 34.4873 24.5041 34.1984 24.5779C33.9095 24.6517 33.6087 24.667 33.3138 24.6228C33.0189 24.5786 32.7358 24.4759 32.4812 24.3207L24.8813 19.9338C24.3922 19.6535 24.0288 19.1967 23.8656 18.6571C23.7915 18.4224 23.7576 18.1768 23.7653 17.9307C23.7704 17.7546 23.7962 17.5784 23.8424 17.4023C23.9993 16.8363 24.3712 16.3542 24.8787 16.0587L32.476 11.677C32.7302 11.5304 33.0107 11.4354 33.3017 11.3973C33.5926 11.3592 33.8881 11.3788 34.1715 11.455C34.4548 11.5311 34.7204 11.6624 34.953 11.8412C35.1855 12.0201 35.3806 12.243 35.527 12.4973C35.6751 12.7507 35.7716 13.0309 35.8109 13.3217C35.8501 13.6126 35.8315 13.9083 35.756 14.192C35.6804 14.4756 35.5495 14.7414 35.3708 14.9742C35.192 15.207 34.9689 15.4034 34.7144 15.5496ZM30.6966 27.4373L23.1032 23.0581C22.7122 22.8292 22.2599 22.7268 21.8084 22.765C21.2458 22.8063 20.7197 23.0592 20.3361 23.4729C19.9525 23.8866 19.7398 24.4303 19.741 24.9944V33.763C19.7339 34.061 19.7864 34.3575 19.8955 34.6349C20.0046 34.9124 20.1681 35.1652 20.3764 35.3785C20.5847 35.5918 20.8335 35.7614 21.1082 35.8771C21.383 35.9928 21.6781 36.0525 21.9762 36.0525C22.2744 36.0525 22.5695 35.9928 22.8442 35.8771C23.119 35.7614 23.3678 35.5918 23.5761 35.3785C23.7843 35.1652 23.9478 34.9124 24.0569 34.6349C24.1661 34.3575 24.2186 34.061 24.2114 33.763V28.858L28.4633 31.3124C28.7171 31.4599 28.9975 31.5558 29.2885 31.5947C29.5794 31.6335 29.8752 31.6145 30.1588 31.5388C30.4423 31.4631 30.7082 31.3321 30.941 31.1533C31.1739 30.9746 31.3691 30.7517 31.5156 30.4973C31.8121 29.9827 31.8924 29.3716 31.7389 28.7979C31.5853 28.2242 31.2105 27.7349 30.6966 27.4373ZM21.9332 18.859L18.7754 22.0128C18.6674 22.1136 18.5271 22.1729 18.3794 22.18H17.4524C17.3051 22.1719 17.1651 22.1128 17.0564 22.0128L13.8987 18.859C13.8005 18.7507 13.7428 18.6116 13.7354 18.4656V17.5373C13.7354 17.4087 13.8074 17.23 13.8987 17.1387L17.0539 13.9861C17.1627 13.8868 17.3027 13.8286 17.4499 13.8216H18.3794C18.508 13.8216 18.6842 13.8936 18.7754 13.9861L21.9332 17.14C22.0232 17.23 22.0964 17.4087 22.0964 17.5386V18.4668C22.0882 18.6127 22.0306 18.7502 21.9332 18.859ZM19.4093 17.9847C19.3992 17.8368 19.3399 17.6965 19.2409 17.5861L18.328 16.6746C18.2186 16.5753 18.0783 16.5167 17.9307 16.5087H17.8947C17.7482 16.5173 17.6092 16.5763 17.5013 16.6758L16.5884 17.5861C16.4916 17.6972 16.435 17.8376 16.4277 17.9847V18.0207C16.4277 18.148 16.4972 18.3241 16.5872 18.4141L17.5013 19.327C17.5913 19.4183 17.7674 19.4941 17.8947 19.4941H17.9307C18.0779 19.4851 18.2176 19.4261 18.3267 19.327L19.2409 18.4141C19.3398 18.3059 19.3988 18.1671 19.408 18.0207L19.4093 17.9847ZM5.13402 8.55785L12.7313 12.9421C13.1402 13.1774 13.5927 13.2713 14.0273 13.2353C14.5901 13.1928 15.116 12.9392 15.4997 12.5252C15.8833 12.1113 16.0963 11.5677 16.096 11.0033V2.2347C16.082 1.65117 15.8404 1.09624 15.4227 0.688481C15.0051 0.28072 14.4445 0.0524564 13.8608 0.0524564C13.2771 0.0524564 12.7165 0.28072 12.2989 0.688481C11.8812 1.09624 11.6396 1.65117 11.6256 2.2347V7.14099L7.36987 4.6827C6.856 4.38604 6.24532 4.30566 5.67218 4.45925C5.09904 4.61285 4.61039 4.98783 4.31373 5.5017C4.01707 6.01558 3.93669 6.62626 4.09028 7.19939C4.24388 7.77253 4.62014 8.26118 5.13402 8.55785ZM21.8097 13.2353C22.2607 13.2722 22.7122 13.1699 23.1032 12.9421L30.6966 8.55785C31.2103 8.26072 31.5851 7.77184 31.7387 7.19858C31.8922 6.62533 31.812 6.01456 31.5156 5.50042C31.2192 4.98726 30.7312 4.61283 30.1588 4.45948C29.5864 4.30613 28.9765 4.38643 28.4633 4.6827L24.2102 7.14227V2.23213C24.2102 1.63948 23.9747 1.07111 23.5557 0.652049C23.1366 0.232986 22.5682 -0.00244141 21.9756 -0.00244141C21.3829 -0.00244141 20.8146 0.232986 20.3955 0.652049C19.9764 1.07111 19.741 1.63948 19.741 2.23213V11.002C19.7398 11.5664 19.9523 12.1104 20.3359 12.5245C20.7194 12.9386 21.2456 13.1921 21.8084 13.234L21.8097 13.2353ZM14.0273 22.765C13.5754 22.7265 13.1227 22.8289 12.7313 23.0581L5.13273 27.4373C4.61952 27.7356 4.24544 28.2251 4.09242 28.7986C3.9394 29.3722 4.0199 29.983 4.3163 30.4973C4.61308 31.0096 5.10109 31.3833 5.67314 31.5361C6.2452 31.689 6.85453 31.6085 7.3673 31.3124L11.623 28.858V33.7643C11.623 34.3571 11.8585 34.9256 12.2777 35.3448C12.6969 35.764 13.2654 35.9995 13.8582 35.9995C14.451 35.9995 15.0196 35.764 15.4388 35.3448C15.858 34.9256 16.0934 34.3571 16.0934 33.7643V24.9944C16.095 24.4304 15.8826 23.8867 15.4992 23.473C15.1158 23.0593 14.5898 22.8063 14.0273 22.765ZM11.9676 18.6571C12.0422 18.4193 12.073 18.1737 12.0679 17.9307C12.0572 17.5487 11.9485 17.1759 11.7521 16.8481C11.5558 16.5202 11.2784 16.2484 10.9467 16.0587L3.35587 11.677C3.10169 11.5301 2.82102 11.4347 2.52994 11.3964C2.23885 11.3581 1.94307 11.3776 1.65953 11.4538C1.376 11.53 1.11029 11.6614 0.87761 11.8405C0.644934 12.0195 0.449869 12.2427 0.303588 12.4973C0.156235 12.7511 0.0604852 13.0316 0.0218405 13.3225C-0.0168042 13.6135 0.00241731 13.9092 0.0784009 14.1927C0.154384 14.4762 0.285633 14.7419 0.464606 14.9745C0.64358 15.2072 0.866752 15.4022 1.1213 15.5483L5.36416 18.0027L1.11873 20.4481C0.859012 20.592 0.63055 20.7862 0.446675 21.0193C0.262801 21.2524 0.127198 21.5198 0.0477797 21.8059C-0.0316386 22.092 -0.0532816 22.391 -0.0158862 22.6856C0.0215092 22.9801 0.117194 23.2642 0.265584 23.5214C0.413974 23.7786 0.612098 24.0036 0.848393 24.1834C1.08469 24.3631 1.35442 24.4941 1.64185 24.5685C1.92929 24.6429 2.22866 24.6593 2.5225 24.6167C2.81634 24.5742 3.09877 24.4736 3.3533 24.3207L10.9454 19.9338C11.4597 19.6407 11.8069 19.1778 11.9676 18.6571Z" fill="#18191B"/>
</g>
<defs>
<clipPath id="clip0_28269_1933">
<rect width="36" height="36" fill="white"/>
</clipPath>
</defs>
</svg>
