<svg xmlns="http://www.w3.org/2000/svg" width="102" height="36" fill="none"><g fill="#1A1A1A" clip-path="url(#a)"><path d="M39.705 31.888c-.23-.055-.732-.245-1.114-.424a132.7 132.7 0 0 0-1.253-.575c-.306-.139-1.075-.498-1.71-.798-.633-.3-1.169-.546-1.19-.546-.022 0-.507-.221-1.078-.49-3.601-1.703-5.063-2.264-6.207-2.384-.995-.105-1.342.01-2.46.814-.563.405-1.053.708-1.088.673-.243-.245 1.14-2.025 2.123-2.733.928-.668 1.088-.734 1.913-.784.67-.04.946.008 1.95.343.644.214 1.321.452 1.505.528l.558.23c.122.051.624.25 1.114.444.49.194.992.396 1.115.45.573.252 2.542 1.054 3.344 1.361.49.188 1.042.406 1.226.483 2.535 1.072 3.548 1.4 4.309 1.4.429 0 .546-.055.88-.42.446-.487.523-.614 1.236-2.06.294-.593.607-1.107.697-1.141.652-.252.384 1.53-.504 3.35-.946 1.937-1.695 2.411-3.776 2.39-.643-.006-1.359-.056-1.59-.11ZM8.19 24.277c-2.123-.162-4.38-.67-5.963-1.346a15.728 15.728 0 0 0-.645-.26c-.18-.064-.183-.1-.041-.38.086-.171.27-.563.408-.871.139-.308.546-.969.906-1.467.36-.499.654-.972.654-1.051 0-.08-.317-.482-.705-.895-1.116-1.19-1.97-2.321-2.401-3.185-.383-.764-.4-.85-.403-1.98-.002-1.148.01-1.207.428-2.058 1.01-2.057 4.624-4.748 7.779-5.793.936-.31 1.118-.334 2.202-.292 1.465.059 1.499.067 3.44.887 1.527.645 1.601.665 1.864.492.154-.102.473-.599.726-1.133.48-1.011.62-1.108 1.101-.769.222.156.25.247.191.615a3.98 3.98 0 0 1-.228.798 27.11 27.11 0 0 0-.46 1.206c-.387 1.08-1.662 3.736-1.88 3.918-.14.116-.301.052-.944-.374-2.216-1.468-4.33-2.283-5.973-2.305-.692-.01-1.836.273-2.478.612-.784.414-1.65 1.348-1.813 1.956-.315 1.177.433 2.939 1.938 4.564.596.644.596.644.991.34.217-.166.462-.367.544-.447.943-.914 4.586-3.893 4.76-3.893.595 0 2.147.544 2.873 1.007 1.736 1.107 2.604 2.66 2.604 4.662 0 1.147-.3 2.023-1.17 3.406-.658 1.05-2.891 3.002-4.07 3.559-1.08.51-2.173.634-4.235.477Zm3.933-3.245c.755-.124 1.212-.42 1.596-1.03.241-.385.277-.57.278-1.453.004-2.218-.985-3.52-2.916-3.845-.37-.062-.47-.006-1.449.81-.578.48-1.356 1.124-1.729 1.43-1.764 1.444-2.61 2.201-2.557 2.288.096.155 1.402.845 2.12 1.118.902.343 1.925.567 3.065.67.521.048.947.094.947.102 0 .01.29-.031.645-.09Zm27.552 2.853c-.076-.061-.17-.37-.208-.687-.078-.636-.01-.714.622-.714.467 0 1.486-.311 1.763-.539.144-.118.272-.42.343-.805.17-.934.261-9.4.122-11.396-.171-2.456-.304-2.663-2.067-3.22-.75-.238-.792-.269-.757-.559.02-.168.104-.467.185-.663.148-.357.148-.357 4.91-.332 2.62.014 4.777.04 4.793.057.016.017.065.319.108.67.076.61.067.642-.184.692-1.498.297-2.035.478-2.244.76-.332.448-.434 2.64-.394 8.502.034 4.99.034 4.99.29 5.316.53.677.538.679 3.057.656 2.636-.025 3.402-.165 3.977-.73.446-.438.618-.795 1.098-2.275.22-.678.453-1.268.52-1.312.172-.114.654.02.818.227.145.184.12.879-.086 2.374-.055.4-.181 1.384-.28 2.185-.1.802-.2 1.558-.223 1.681-.042.222-.131.224-8.034.224-5.162 0-8.04-.04-8.129-.112Zm-12.895-.218c-1.468-.416-4.25-2.228-5.533-3.602-.471-.506-.931-1.064-1.021-1.24-.09-.175-.198-.345-.24-.376-.137-.105-.628-1.167-.858-1.859-.355-1.065-.42-2.806-.145-3.855.347-1.323 1.017-2.45 2.124-3.568 1.907-1.927 3.813-3.126 6.31-3.968 1.265-.426 1.43-.454 2.992-.506 1.353-.045 1.788-.02 2.396.143.409.109.794.234.855.279.061.044.262.117.446.16.678.164 2.17 1.303 2.906 2.22 1.005 1.252 1.34 1.896 1.542 2.974.19 1.007.122 2.274-.22 4.114-.536 2.896-1.788 5.126-3.782 6.738-1.977 1.598-6.061 2.83-7.772 2.346Zm4.392-3.053c1.431-.612 2.04-1.139 2.893-2.5.306-.487.744-1.927.884-2.903.408-2.844-.599-5.657-2.35-6.568-.171-.089-.855-.317-1.52-.508-2.162-.619-4.438-.571-5.723.12-.215.115-.5.26-.634.322-.459.212-1.269 1.172-1.657 1.965-.668 1.361-.73 2.886-.171 4.158.128.29.233.575.233.633 0 .202 1.211 1.726 1.91 2.403.955.926 2.278 1.883 3.252 2.352.44.213.888.435.994.495.107.06.307.11.446.11a.92.92 0 0 1 .42.11c.23.15.232.15 1.023-.189Z"/><path fill-rule="evenodd" d="M62.327 24.659c-.031-.031-1.241-.059-2.689-.06-2.93-.005-2.794.033-2.865-.8-.036-.425-.035-.427.63-.698.4-.163.786-.418.965-.638.364-.446 1.876-3.471 3.348-6.698.57-1.247 1.09-2.368 1.617-3.474.278-.585.671-1.418.873-1.849l.919-1.961c.303-.647.705-1.508.893-1.914.188-.405.408-.79.488-.855.164-.131 1.633-.133 1.838-.001.15.096 1.85 3.458 6.474 12.806 1.116 2.257 1.936 3.734 2.338 4.212.085.102.497.295.915.43.76.246.76.246 1.163-.016l.412 1.506c-.693.024-1.433.034-1.847.021a305.92 305.92 0 0 0-4.706-.046c-2.155-.009-3.73-.059-3.767-.12-.035-.057-.094-.358-.13-.667-.067-.563-.067-.563.407-.563.386 0 1.54-.21 2.205-.402.29-.083.114-.702-.64-2.237-1.198-2.44-.628-2.18-4.794-2.18-3.949 0-3.763-.035-4.093.78-.088.218-.26.623-.384.9-.63 1.417-.949 2.435-.806 2.579.065.065.365.166.666.224 1.24.236 1.928.396 1.992.46.088.09-.263 1.141-.411 1.236-.135.085-.931.105-1.01.025Zm5.48-10.744c.717 1.433 1.236 2.6 1.2 2.695-.056.146-.428.168-2.603.154-1.396-.008-2.6-.04-2.677-.068a.23.23 0 0 1-.14-.2c0-.167.495-1.369 1.11-2.692.228-.493.559-1.224.734-1.625.549-1.255.768-1.478 1-1.01l1.375 2.746Z" clip-rule="evenodd"/></g><defs><clipPath id="a"><path fill="#fff" d="M0 0h102v36H0z"/></clipPath></defs></svg>