<svg width="36" height="36" viewBox="0 0 36 36" fill="none" xmlns="http://www.w3.org/2000/svg">
<g clip-path="url(#clip0_7688_10847)">
<path d="M17.9467 24.6054C17.8427 24.5805 17.6158 24.4946 17.4432 24.4137C17.2548 24.3261 17.066 24.2395 16.8768 24.1538C16.7385 24.091 16.3909 23.9287 16.1039 23.7931C15.8178 23.6575 15.5755 23.5463 15.566 23.5463C15.5561 23.5463 15.3369 23.4464 15.0788 23.3248C13.4511 22.5551 12.7903 22.3015 12.2732 22.2473C11.8235 22.1998 11.6666 22.2518 11.1613 22.6152C10.9068 22.7983 10.6853 22.9352 10.6695 22.9194C10.5597 22.8087 11.1848 22.0041 11.6291 21.6841C12.0486 21.3821 12.1209 21.3523 12.4938 21.3297C12.7966 21.3116 12.9214 21.3333 13.3752 21.4847C13.6663 21.5815 13.9723 21.6891 14.0554 21.7234L14.3076 21.8274C14.3628 21.8504 14.5897 21.9404 14.8112 22.0281C15.0327 22.1157 15.2596 22.207 15.3152 22.2315C15.5742 22.3454 16.4641 22.7079 16.8266 22.8466C17.0481 22.9316 17.2976 23.0301 17.3808 23.0649C18.5266 23.5495 18.9845 23.6977 19.3285 23.6977C19.5224 23.6977 19.5752 23.6729 19.7262 23.5079C19.9278 23.2878 19.9626 23.2304 20.2849 22.5768C20.4178 22.3087 20.5593 22.0764 20.5999 22.061C20.8946 21.9471 20.7735 22.7526 20.3721 23.5752C19.9445 24.4508 19.606 24.665 18.6654 24.6555C18.3747 24.6528 18.0511 24.6298 17.9467 24.6054ZM3.70194 21.1652C2.74235 21.092 1.72218 20.8623 1.00667 20.5568C0.910368 20.5155 0.813164 20.4763 0.71513 20.4393C0.63377 20.4103 0.632414 20.3941 0.696598 20.2675C0.73547 20.1902 0.818638 20.013 0.881014 19.8738C0.943842 19.7346 1.12781 19.4358 1.29053 19.2107C1.45324 18.9852 1.58613 18.7714 1.58613 18.7357C1.58613 18.6995 1.44285 18.5178 1.26747 18.3311C0.763042 17.7933 0.377035 17.2821 0.182223 16.8915C0.00910748 16.5462 0.00142348 16.5073 6.74825e-05 15.9966C-0.000836516 15.4777 0.00458748 15.451 0.193523 15.0664C0.650042 14.1366 2.28357 12.9203 3.70962 12.4479C4.1327 12.3078 4.21496 12.297 4.70493 12.3159C5.36711 12.3426 5.38247 12.3462 6.2598 12.7169C6.95001 13.0084 6.98346 13.0174 7.10233 12.9393C7.17194 12.8931 7.31613 12.6685 7.43048 12.4271C7.64744 11.9702 7.71072 11.9263 7.92813 12.0795C8.02848 12.1501 8.04113 12.1912 8.01447 12.3575C7.99278 12.481 7.95824 12.6019 7.91141 12.7182C7.83779 12.8983 7.76846 13.08 7.70349 13.2633C7.52857 13.7515 6.95227 14.952 6.85373 15.0343C6.79045 15.0867 6.71768 15.0578 6.42704 14.8652C5.42541 14.2017 4.46989 13.8333 3.72725 13.8234C3.41447 13.8188 2.89738 13.9468 2.6072 14.1C2.25283 14.2871 1.8614 14.7093 1.78772 14.9841C1.64534 15.5161 1.98344 16.3125 2.6637 17.047C2.93309 17.3381 2.93309 17.3381 3.11163 17.2007C3.20971 17.1257 3.32045 17.0348 3.35752 16.9987C3.78375 16.5855 5.43039 15.239 5.50903 15.239C5.77797 15.239 6.47948 15.4849 6.80763 15.6942C7.5923 16.1945 7.98463 16.8965 7.98463 17.8014C7.98463 18.3198 7.84903 18.7158 7.45579 19.3409C7.15838 19.8155 6.14906 20.6978 5.61616 20.9496C5.128 21.1801 4.63396 21.2361 3.70194 21.1652ZM5.47965 19.6984C5.82091 19.6424 6.02748 19.5086 6.20104 19.2329C6.30998 19.0589 6.32625 18.9752 6.3267 18.5761C6.32851 17.5736 5.88148 16.9851 5.00867 16.8382C4.84143 16.8102 4.79623 16.8355 4.35372 17.2043C4.09247 17.4213 3.74081 17.7124 3.57222 17.8507C2.77489 18.5034 2.3925 18.8455 2.41646 18.8848C2.45985 18.9549 3.05016 19.2668 3.37469 19.3902C3.7824 19.5452 4.24479 19.6465 4.76007 19.693C4.99556 19.7147 5.18811 19.7355 5.18811 19.7391C5.18811 19.7436 5.31919 19.7251 5.47965 19.6984ZM17.9331 20.988C17.8988 20.9604 17.8563 20.8208 17.8391 20.6775C17.8039 20.39 17.8346 20.3548 18.1203 20.3548C18.3313 20.3548 18.7919 20.2142 18.9171 20.1111C18.9822 20.0578 19.0401 19.9213 19.0722 19.7473C19.149 19.3251 19.1901 15.4985 19.1273 14.5963C19.05 13.4862 18.9899 13.3926 18.193 13.1408C17.854 13.0333 17.8351 13.0193 17.8509 12.8882C17.8599 12.8122 17.8979 12.6771 17.9345 12.5885C18.0014 12.4271 18.0014 12.4271 20.1538 12.4384C21.338 12.4448 22.313 12.4565 22.3202 12.4642C22.3275 12.4719 22.3496 12.6084 22.3691 12.767C22.4034 13.0428 22.3993 13.0572 22.2859 13.0798C21.6088 13.2141 21.3661 13.2959 21.2716 13.4233C21.1215 13.6258 21.0754 14.6166 21.0935 17.2662C21.1089 19.5217 21.1089 19.5217 21.2246 19.6691C21.4642 19.9751 21.4678 19.976 22.6064 19.9656C23.7978 19.9543 24.1441 19.891 24.404 19.6356C24.6055 19.4376 24.6833 19.2763 24.9003 18.6073C24.9997 18.3009 25.105 18.0342 25.1353 18.0143C25.213 17.9628 25.4309 18.0233 25.505 18.1169C25.5706 18.2001 25.5593 18.5142 25.4662 19.1899C25.4413 19.3707 25.3843 19.8155 25.3396 20.1776C25.2944 20.5401 25.2492 20.8818 25.2388 20.9374C25.2198 21.0377 25.1796 21.0386 21.6074 21.0386C19.2742 21.0386 17.9734 21.0205 17.9331 20.988ZM12.1046 20.8895C11.4411 20.7014 10.1836 19.8824 9.60369 19.2614C9.3908 19.0327 9.18288 18.7804 9.1422 18.7009C9.10152 18.6218 9.05271 18.5449 9.03372 18.5309C8.9718 18.4835 8.74987 18.0035 8.64591 17.6907C8.48545 17.2093 8.45607 16.4224 8.58037 15.9482C8.73721 15.3502 9.04005 14.8408 9.54041 14.3355C10.4024 13.4645 11.2639 12.9225 12.3925 12.5419C12.9643 12.3494 13.0389 12.3367 13.7449 12.3132C14.3565 12.2929 14.5531 12.3042 14.8279 12.3779C15.0128 12.4271 15.1868 12.4836 15.2144 12.504C15.2419 12.5239 15.3328 12.5569 15.416 12.5763C15.7224 12.6504 16.3968 13.1653 16.7295 13.5797C17.1837 14.1456 17.3351 14.4367 17.4264 14.924C17.5123 15.3791 17.4816 15.9518 17.327 16.7835C17.0847 18.0925 16.5188 19.1005 15.6175 19.8291C14.7239 20.5514 12.878 21.1082 12.1046 20.8895ZM14.0898 19.5095C14.7366 19.2329 15.0119 18.9947 15.3974 18.3795C15.5357 18.1594 15.7337 17.5085 15.797 17.0674C15.9814 15.7819 15.5262 14.5104 14.7348 14.0986C14.6575 14.0584 14.3483 13.9553 14.0478 13.869C13.0705 13.5892 12.0418 13.6109 11.461 13.9233C11.3638 13.9752 11.235 14.0408 11.1744 14.0688C10.9669 14.1646 10.6008 14.5985 10.4254 14.957C10.1235 15.5721 10.0955 16.2614 10.3481 16.8364C10.406 16.9675 10.4535 17.0963 10.4535 17.1225C10.4535 17.2138 11.0008 17.9027 11.3168 18.2087C11.7484 18.6272 12.3464 19.0598 12.7867 19.2718C12.9856 19.368 13.188 19.4684 13.236 19.4955C13.2843 19.5226 13.3747 19.5452 13.4376 19.5452C13.5039 19.5464 13.569 19.5635 13.6274 19.5949C13.7314 19.6627 13.7323 19.6627 14.0898 19.5095Z" fill="#18191B"/>
<path fill-rule="evenodd" clip-rule="evenodd" d="M28.1722 21.3354C28.1582 21.3214 27.6112 21.3087 26.9567 21.3083C25.6324 21.306 25.6939 21.3232 25.6618 20.9467C25.6455 20.7546 25.646 20.7537 25.9465 20.6312C26.1273 20.5575 26.3018 20.4422 26.3827 20.3428C26.5472 20.1412 27.2307 18.7739 27.896 17.3153C28.1536 16.7517 28.3887 16.245 28.6269 15.7451C28.7525 15.4807 28.9302 15.1041 29.0215 14.9093L29.4369 14.023C29.5738 13.7305 29.7555 13.3413 29.8405 13.1578C29.9255 12.9748 30.0249 12.8007 30.0611 12.7714C30.1352 12.7122 30.7992 12.7113 30.8919 12.7709C30.9597 12.8143 31.7281 14.3339 33.8181 18.5592C34.3225 19.5794 34.6932 20.247 34.8749 20.463C34.9133 20.5091 35.0995 20.5964 35.2885 20.6574C35.632 20.7686 35.632 20.7686 35.8141 20.6502L36.0004 21.3309C35.6871 21.3417 35.3526 21.3462 35.1655 21.3404C34.4565 21.328 33.7475 21.3211 33.0384 21.3196C32.0643 21.3155 31.3524 21.2929 31.3357 21.2653C31.3199 21.2396 31.2932 21.1035 31.277 20.9639C31.2467 20.7094 31.2467 20.7094 31.4609 20.7094C31.6354 20.7094 32.157 20.6145 32.4576 20.5277C32.5887 20.4902 32.5091 20.2104 32.1683 19.5166C31.6268 18.4137 31.8844 18.5312 30.0014 18.5312C28.2165 18.5312 28.3005 18.5154 28.1514 18.8838C28.1116 18.9823 28.0339 19.1653 27.9778 19.2906C27.6931 19.931 27.5489 20.3912 27.6135 20.4563C27.6429 20.4856 27.7785 20.5313 27.9145 20.5575C28.475 20.6642 28.786 20.7365 28.8149 20.7654C28.8547 20.8061 28.696 21.2812 28.6291 21.3241C28.5681 21.3625 28.2079 21.3716 28.1722 21.3354ZM30.6491 16.4791C30.9732 17.1268 31.2078 17.6543 31.1915 17.6973C31.1662 17.7632 30.9981 17.7732 30.015 17.7669C29.384 17.7632 28.8398 17.7488 28.805 17.7361C28.787 17.7285 28.7715 17.716 28.7603 17.7C28.7492 17.684 28.7427 17.6652 28.7417 17.6457C28.7417 17.5702 28.9654 17.0269 29.2434 16.4289C29.3465 16.2061 29.4961 15.8757 29.5752 15.6944C29.8233 15.1272 29.9223 15.0264 30.0272 15.2379L30.6491 16.4791Z" fill="#E74242"/>
</g>
<defs>
<clipPath id="clip0_7688_10847">
<rect width="36" height="36" fill="white"/>
</clipPath>
</defs>
</svg>
