<svg width="36" height="36" viewBox="0 0 36 36" fill="none" xmlns="http://www.w3.org/2000/svg">
<path d="M17.9467 24.6054C17.8427 24.5805 17.6158 24.4946 17.4432 24.4137C17.2548 24.3261 17.066 24.2395 16.8768 24.1538C16.7385 24.091 16.3909 23.9287 16.1039 23.7931C15.8178 23.6575 15.5755 23.5463 15.566 23.5463C15.5561 23.5463 15.3369 23.4464 15.0788 23.3248C13.4511 22.5551 12.7903 22.3015 12.2732 22.2473C11.8235 22.1998 11.6666 22.2518 11.1613 22.6152C10.9068 22.7983 10.6853 22.9352 10.6695 22.9194C10.5597 22.8087 11.1848 22.0041 11.6291 21.6841C12.0486 21.3821 12.1209 21.3523 12.4938 21.3297C12.7966 21.3116 12.9214 21.3333 13.3752 21.4847C13.6663 21.5815 13.9723 21.6891 14.0554 21.7234L14.3076 21.8274C14.3628 21.8504 14.5897 21.9404 14.8112 22.0281C15.0327 22.1157 15.2596 22.207 15.3152 22.2315C15.5742 22.3454 16.4641 22.7079 16.8266 22.8466C17.0481 22.9316 17.2976 23.0301 17.3808 23.0649C18.5266 23.5495 18.9845 23.6977 19.3285 23.6977C19.5224 23.6977 19.5752 23.6729 19.7262 23.5079C19.9278 23.2878 19.9626 23.2304 20.2849 22.5768C20.4178 22.3087 20.5592 22.0764 20.5999 22.061C20.8946 21.9471 20.7735 22.7526 20.3721 23.5752C19.9445 24.4508 19.606 24.665 18.6654 24.6555C18.3747 24.6528 18.0511 24.6298 17.9467 24.6054ZM3.70194 21.1652C2.74235 21.092 1.72218 20.8623 1.00667 20.5568C0.910368 20.5155 0.813164 20.4763 0.71513 20.4393C0.63377 20.4103 0.632414 20.3941 0.696598 20.2675C0.73547 20.1902 0.818638 20.013 0.881014 19.8738C0.943842 19.7346 1.12781 19.4358 1.29053 19.2107C1.45324 18.9852 1.58613 18.7714 1.58613 18.7357C1.58613 18.6995 1.44285 18.5178 1.26747 18.3311C0.763042 17.7933 0.377035 17.2821 0.182223 16.8915C0.00910748 16.5462 0.00142348 16.5073 6.74825e-05 15.9966C-0.000836516 15.4777 0.00458748 15.451 0.193523 15.0664C0.650042 14.1366 2.28357 12.9203 3.70963 12.4479C4.1327 12.3078 4.21496 12.297 4.70493 12.3159C5.36711 12.3426 5.38247 12.3462 6.2598 12.7169C6.95001 13.0084 6.98346 13.0174 7.10233 12.9393C7.17194 12.8931 7.31613 12.6685 7.43048 12.4271C7.64744 11.9702 7.71072 11.9263 7.92813 12.0795C8.02848 12.1501 8.04113 12.1912 8.01447 12.3575C7.99278 12.481 7.95824 12.6019 7.91141 12.7182C7.83779 12.8983 7.76846 13.08 7.70349 13.2633C7.52857 13.7515 6.95227 14.952 6.85373 15.0343C6.79045 15.0867 6.71768 15.0578 6.42704 14.8652C5.42541 14.2017 4.46989 13.8333 3.72725 13.8234C3.41447 13.8188 2.89738 13.9468 2.6072 14.1C2.25283 14.2871 1.8614 14.7093 1.78772 14.9841C1.64534 15.5161 1.98344 16.3125 2.6637 17.047C2.93309 17.3381 2.93309 17.3381 3.11163 17.2007C3.20971 17.1257 3.32045 17.0348 3.35752 16.9987C3.78375 16.5855 5.43039 15.239 5.50903 15.239C5.77797 15.239 6.47948 15.4849 6.80763 15.6942C7.5923 16.1945 7.98463 16.8965 7.98463 17.8014C7.98463 18.3198 7.84903 18.7158 7.45579 19.3409C7.15838 19.8155 6.14906 20.6978 5.61616 20.9496C5.128 21.1801 4.63396 21.2361 3.70194 21.1652ZM5.47965 19.6984C5.82091 19.6424 6.02748 19.5086 6.20104 19.2329C6.30998 19.0589 6.32625 18.9752 6.3267 18.5761C6.32851 17.5736 5.88148 16.9851 5.00867 16.8382C4.84143 16.8102 4.79623 16.8355 4.35372 17.2043C4.09247 17.4213 3.74081 17.7124 3.57222 17.8507C2.77489 18.5034 2.3925 18.8455 2.41646 18.8848C2.45985 18.9549 3.05016 19.2668 3.37469 19.3902C3.7824 19.5452 4.24479 19.6465 4.76007 19.693C4.99556 19.7147 5.18811 19.7355 5.18811 19.7391C5.18811 19.7436 5.31919 19.7251 5.47965 19.6984ZM17.9331 20.988C17.8988 20.9604 17.8563 20.8208 17.8391 20.6775C17.8039 20.39 17.8346 20.3548 18.1203 20.3548C18.3313 20.3548 18.7919 20.2142 18.9171 20.1111C18.9822 20.0578 19.0401 19.9213 19.0722 19.7473C19.149 19.3251 19.1901 15.4985 19.1273 14.5963C19.05 13.4862 18.9899 13.3926 18.193 13.1408C17.854 13.0333 17.8351 13.0193 17.8509 12.8882C17.8599 12.8122 17.8979 12.6771 17.9345 12.5885C18.0014 12.4271 18.0014 12.4271 20.1538 12.4384C21.338 12.4448 22.313 12.4565 22.3202 12.4642C22.3275 12.4719 22.3496 12.6084 22.3691 12.767C22.4034 13.0428 22.3993 13.0572 22.2859 13.0798C21.6088 13.2141 21.3661 13.2959 21.2716 13.4233C21.1215 13.6258 21.0754 14.6166 21.0935 17.2662C21.1089 19.5217 21.1089 19.5217 21.2246 19.6691C21.4642 19.9751 21.4678 19.976 22.6064 19.9656C23.7978 19.9543 24.1441 19.891 24.404 19.6356C24.6055 19.4376 24.6833 19.2763 24.9003 18.6073C24.9997 18.3009 25.105 18.0342 25.1353 18.0143C25.213 17.9628 25.4309 18.0233 25.505 18.1169C25.5706 18.2001 25.5593 18.5142 25.4662 19.1899C25.4413 19.3707 25.3843 19.8155 25.3396 20.1776C25.2944 20.5401 25.2492 20.8818 25.2388 20.9374C25.2198 21.0377 25.1796 21.0386 21.6074 21.0386C19.2742 21.0386 17.9734 21.0205 17.9331 20.988ZM12.1046 20.8895C11.4411 20.7014 10.1836 19.8824 9.60369 19.2614C9.3908 19.0327 9.18288 18.7804 9.1422 18.7009C9.10152 18.6218 9.05271 18.5449 9.03372 18.5309C8.9718 18.4835 8.74987 18.0035 8.64591 17.6907C8.48545 17.2093 8.45607 16.4224 8.58037 15.9482C8.73721 15.3502 9.04005 14.8408 9.54041 14.3355C10.4024 13.4645 11.2639 12.9225 12.3925 12.5419C12.9643 12.3494 13.0389 12.3367 13.7449 12.3132C14.3565 12.2929 14.5531 12.3042 14.8279 12.3779C15.0128 12.4271 15.1868 12.4836 15.2144 12.504C15.2419 12.5239 15.3328 12.5569 15.416 12.5763C15.7224 12.6504 16.3968 13.1653 16.7295 13.5797C17.1837 14.1456 17.3351 14.4367 17.4264 14.924C17.5123 15.3791 17.4816 15.9518 17.327 16.7835C17.0847 18.0925 16.5188 19.1005 15.6175 19.8291C14.7239 20.5514 12.878 21.1082 12.1046 20.8895ZM14.0898 19.5095C14.7366 19.2329 15.0119 18.9947 15.3974 18.3795C15.5357 18.1594 15.7337 17.5085 15.797 17.0674C15.9814 15.7819 15.5262 14.5104 14.7348 14.0986C14.6575 14.0584 14.3483 13.9553 14.0478 13.869C13.0705 13.5892 12.0418 13.6109 11.461 13.9233C11.3638 13.9752 11.235 14.0408 11.1744 14.0688C10.9669 14.1646 10.6008 14.5985 10.4254 14.957C10.1235 15.5721 10.0955 16.2614 10.3481 16.8364C10.406 16.9675 10.4535 17.0963 10.4535 17.1225C10.4535 17.2138 11.0008 17.9027 11.3168 18.2087C11.7484 18.6272 12.3464 19.0598 12.7867 19.2718C12.9856 19.368 13.188 19.4684 13.236 19.4955C13.2843 19.5226 13.3747 19.5452 13.4376 19.5452C13.5039 19.5464 13.569 19.5635 13.6274 19.5949C13.7314 19.6627 13.7323 19.6627 14.0898 19.5095Z" fill="#18191B"/>
<path fill-rule="evenodd" clip-rule="evenodd" d="M28.1717 21.3374C28.1577 21.3233 27.6108 21.3107 26.9563 21.3102C25.6319 21.308 25.6934 21.3251 25.6613 20.9486C25.645 20.7565 25.6455 20.7556 25.946 20.6331C26.1268 20.5595 26.3013 20.4442 26.3822 20.3448C26.5467 20.1432 27.2302 18.7759 27.8955 17.3173C28.1532 16.7536 28.3882 16.2469 28.6264 15.747C28.7521 15.4826 28.9297 15.1061 29.021 14.9113L29.4364 14.0249C29.5733 13.7325 29.755 13.3433 29.84 13.1598C29.925 12.9767 30.0244 12.8027 30.0606 12.7733C30.1347 12.7141 30.7987 12.7132 30.8914 12.7729C30.9592 12.8163 31.7276 14.3359 33.8176 18.5612C34.322 19.5813 34.6927 20.2489 34.8744 20.465C34.9128 20.5111 35.099 20.5983 35.288 20.6594C35.6315 20.7705 35.6315 20.7705 35.8136 20.6521L35.9999 21.3328C35.6866 21.3437 35.3521 21.3482 35.165 21.3423C34.456 21.3299 33.747 21.323 33.0379 21.3215C32.0639 21.3175 31.352 21.2949 31.3352 21.2673C31.3194 21.2415 31.2927 21.1055 31.2765 20.9658C31.2462 20.7113 31.2462 20.7113 31.4604 20.7113C31.6349 20.7113 32.1565 20.6164 32.4571 20.5296C32.5882 20.4921 32.5086 20.2123 32.1678 19.5185C31.6263 18.4156 31.884 18.5331 30.0009 18.5331C28.216 18.5331 28.3001 18.5173 28.1509 18.8857C28.1111 18.9842 28.0334 19.1673 27.9773 19.2925C27.6926 19.933 27.5484 20.3931 27.613 20.4582C27.6424 20.4876 27.778 20.5332 27.914 20.5595C28.4745 20.6661 28.7855 20.7385 28.8144 20.7674C28.8542 20.8081 28.6956 21.2831 28.6287 21.3261C28.5676 21.3645 28.2074 21.3735 28.1717 21.3374ZM30.6486 16.4811C30.9727 17.1288 31.2073 17.6563 31.191 17.6992C31.1657 17.7652 30.9976 17.7751 30.0145 17.7688C29.3835 17.7652 28.8393 17.7507 28.8045 17.7381C28.7865 17.7305 28.7711 17.718 28.7599 17.702C28.7487 17.686 28.7422 17.6672 28.7412 17.6477C28.7412 17.5722 28.9649 17.0289 29.2429 16.4309C29.346 16.2081 29.4956 15.8777 29.5747 15.6964C29.8228 15.1291 29.9218 15.0283 30.0267 15.2399L30.6486 16.4811Z" fill="#18191B"/>
</svg>
