<svg version="1.2" xmlns="http://www.w3.org/2000/svg" viewBox="0 0 563 600" width="563" height="600">
	<style>
		.s0 { fill: #0000ee } 
		.s1 { fill: #4589ff } 
	</style>
	<path fill-rule="evenodd" class="s0" d="m174.7 389.78l-80.85 46.25 187.14 107.06 187.11-107.02-464.25-265.61c-3.65-2.08-4.91-6.7-2.81-10.27 0.71-1.21 1.67-2.17 2.81-2.79l273.37-156.39c2.47-1.41 5.37-1.29 7.64 0.04l273.28 156.35c3.65 2.08 4.91 6.7 2.81 10.27-0.71 1.21-1.68 2.17-2.81 2.79l-145.5 83.23c-3.65 2.08-8.27 0.83-10.37-2.75l-17.8-30.49c-2.1-3.61-0.88-8.23 2.77-10.31l80.94-46.29-187.19-107.02-187.1 107.06 464.29 265.61c3.66 2.08 4.87 6.7 2.77 10.31-0.8 1.33-1.89 2.33-3.19 3l-272.99 156.18c-2.47 1.41-5.37 1.29-7.64-0.04l-273.28-156.39c-3.65-2.08-4.91-6.7-2.81-10.27 0.71-1.21 1.67-2.13 2.77-2.75l145.58-83.31c3.65-2.08 8.31-0.87 10.41 2.75l0.25 0.45 17.42 30.07c2.1 3.62 0.84 8.2-2.81 10.28z"/>
	<path fill-rule="evenodd" class="s1" d="m175.41 346.61l105.62 60.43 105.36-60.27q0.39-0.3 0.84-0.54l80.86-46.21-80.86-46.25q-0.38-0.19-0.71-0.45l-105.45-60.31-68.18 39.01-50.71-28.99 115.07-65.84c2.6-1.5 5.71-1.29 8.06 0.25l126.48 72.37q0.76 0.31 1.39 0.75l145.12 83.02c3.65 2.08 4.87 6.69 2.77 10.31-0.71 1.21-1.68 2.12-2.81 2.79l-145.5 83.23c-0.25 0.16-0.55 0.29-0.8 0.41l-127.07 72.71c-2.48 1.41-5.38 1.29-7.64-0.04l-8.77-5-118.09-67.54q-0.76-0.31-1.39-0.75l-145.2-83.19c-3.66-2.08-4.87-6.69-2.77-10.31 0.71-1.21 1.67-2.12 2.81-2.79l107.47-61.47 50.79 29.07-68.17 38.97 80.85 46.25 0.59 0.38z"/>
</svg>