<svg width="35" height="36" viewBox="0 0 35 36" fill="none" xmlns="http://www.w3.org/2000/svg">
<path d="M14.121 13.5212C14.121 13.0645 14.2097 12.6205 14.3873 12.2018C14.5523 11.7958 14.8061 11.4278 15.1107 11.1234C15.4278 10.8061 15.7831 10.565 16.1892 10.4003C16.6079 10.2226 17.0519 10.1336 17.5086 10.1336H18.8661L22 7H17.5213C16.6458 7 15.7831 7.17768 14.9837 7.50742C14.2097 7.83742 13.512 8.3068 12.9029 8.90312C12.3068 9.49926 11.8372 10.1972 11.5074 10.9837C11.1647 11.7958 11 12.6458 11 13.5212V18L14.1336 14.8661V13.5212H14.121Z" fill="#4CCDDF"/>
<path d="M35 0V1.66557C35 1.90527 34.9372 2.15752 34.7981 2.34683C34.6089 2.62436 34.4449 2.78844 34.2558 2.97769C33.8267 3.4067 33.398 3.79786 32.969 4.22687C32.5651 4.63065 32.1613 5.03418 31.7702 5.42534C31.3915 5.8039 31.0256 6.1699 30.6473 6.54846C30.4202 6.77554 30.1931 7.00262 29.9659 7.22971C19.0268 18.1688 16.6041 20.5912 16.5916 20.6038L5.33715 31.8711H18.1815C19.4937 31.8711 20.7554 31.6185 21.9539 31.114C22.5218 30.8742 23.0768 30.5714 23.5942 30.2182C24.1114 29.8773 24.5908 29.4736 25.0327 29.032C25.4742 28.5905 25.8651 28.1111 26.2185 27.5939C26.5719 27.0764 26.8746 26.5214 27.1143 25.9536C27.6192 24.7548 27.8714 23.4933 27.8714 22.1809V13.7527L30.9877 10.6364V22.1935C30.9877 23.0644 30.8996 23.9223 30.7229 24.7674C30.5586 25.5876 30.3066 26.3951 29.9787 27.1775C29.663 27.9344 29.2592 28.6663 28.7924 29.3476C28.3383 30.0288 27.8082 30.6598 27.228 31.2402C26.6475 31.8206 26.0166 32.3505 25.3354 32.8048C24.6541 33.2715 23.9221 33.6625 23.1652 33.9907C22.3954 34.3189 21.5879 34.5711 20.7554 34.735C19.91 34.9117 19.0394 35 18.1815 35H0V33.3344C0 33.1326 0.0503842 32.9309 0.138605 32.7543C0.26492 32.5147 0.46678 32.2619 0.668702 32.0731C1.93045 30.8237 1.11026 31.644 1.32473 31.4295C1.74112 31.013 1.32473 31.4422 2.57392 30.2182C2.96508 29.8271 3.35601 29.4358 3.74716 29.0446C4.11317 28.6789 4.47912 28.3129 4.83228 27.9596C5.17306 27.6191 5.51378 27.2783 5.84171 26.9504L6.77531 26.0166C7.06565 25.7264 7.35572 25.4363 7.64588 25.146L8.44084 24.3513C8.44084 24.3513 10.2453 22.5469 10.4471 22.3449C10.6362 22.1557 10.8128 21.979 11.0021 21.79C11.1662 21.6259 11.3303 21.4618 11.4941 21.2977C11.6456 21.1465 11.7971 20.995 11.9357 20.8562L12.3395 20.4524L12.6929 20.0992C12.7937 19.9982 12.8948 19.8974 12.9956 19.7963C13.084 19.7081 13.1723 19.6196 13.2607 19.5313C13.3364 19.4558 13.412 19.3799 13.4878 19.3043C13.5508 19.2413 13.6139 19.178 13.6898 19.1024C13.7401 19.052 13.8031 18.989 13.8536 18.9383C13.9042 18.8879 13.9421 18.8501 13.9924 18.7996C14.0302 18.7616 14.0681 18.7238 14.1061 18.686C14.1313 18.6608 14.1691 18.623 14.1943 18.5978L14.2574 18.5345L14.308 18.4841L14.5981 18.194L29.6756 3.12916H16.8313C15.5191 3.12916 14.2574 3.38147 13.0589 3.88609C12.491 4.12578 11.9357 4.42872 11.4185 4.78187C10.9013 5.12259 10.4216 5.52637 9.98009 5.96798C9.53847 6.40954 9.14732 6.88893 8.79422 7.4064C8.44084 7.92363 8.13814 8.47888 7.89845 9.0465C7.39358 10.2452 7.14126 11.5069 7.14126 12.8191V21.2473L4.02496 24.3639V12.8191C4.02496 11.9486 4.11317 11.0779 4.28989 10.2452C4.45398 9.42505 4.70621 8.61749 5.03414 7.83541C5.34969 7.07824 5.75347 6.34654 6.22032 5.66504C6.67447 4.98373 7.20426 4.35287 7.78473 3.77264C8.36521 3.19216 8.99608 2.66214 9.67739 2.20797C10.3587 1.74112 11.0906 1.34995 11.8475 1.02203C12.6173 0.693859 13.4246 0.441616 14.2574 0.277532C15.1027 0.100833 15.9733 0.0126123 16.8313 0.0126123H35V0Z" fill="#4CCDDF"/>
<path d="M21.1509 22.4787C21.1509 22.9354 21.0703 23.3795 20.9088 23.7981C20.7588 24.2042 20.5282 24.5722 20.2512 24.8766C19.963 25.1939 19.6399 25.435 19.2708 25.5997C18.8902 25.7774 18.4865 25.8664 18.0713 25.8664H16.8488L14 29H18.0713C18.8671 29 19.6515 28.8223 20.3782 28.4926C21.0818 28.1626 21.7162 27.6932 22.2698 27.0969C22.8118 26.5007 23.2387 25.8027 23.5385 25.0163C23.85 24.2042 24 23.3541 24 22.4787V18L21.1509 21.1339V22.4787Z" fill="#4CCDDF"/>
</svg>
