<svg width="36" height="36" viewBox="0 0 36 36" fill="none" xmlns="http://www.w3.org/2000/svg">
<g clip-path="url(#clip0_7688_10976)">
<mask id="mask0_7688_10976" style="mask-type:luminance" maskUnits="userSpaceOnUse" x="0" y="0" width="36" height="36">
<path d="M0 0H35.856V36H0V0Z" fill="white"/>
</mask>
<g mask="url(#mask0_7688_10976)">
<path d="M17.928 35.9732C27.829 35.9732 35.856 27.9462 35.856 18.0452C35.856 8.14419 27.83 0.117188 17.928 0.117188C8.027 0.117188 0 8.14419 0 18.0452C0 27.9462 8.027 35.9732 17.928 35.9732Z" fill="#1A1A1A"/>
<path d="M25.7311 6.74126C23.9121 6.80526 22.3251 7.80726 21.1431 9.19426C19.8341 10.7143 18.9631 12.5183 18.3371 14.3583C17.2151 13.4383 16.3491 12.2483 14.5491 11.7293C13.1581 11.3293 11.6971 11.4953 10.3531 12.4963C9.71607 12.9723 9.27807 13.6903 9.06907 14.3663C8.52907 16.1223 9.63707 17.6853 10.1401 18.2463L11.2401 19.4243C11.4671 19.6563 12.0131 20.2593 11.7461 21.1233C11.4571 22.0633 10.3241 22.6713 9.16207 22.3133C8.64207 22.1543 7.89707 21.7683 8.06407 21.2233C8.13407 21.0003 8.29307 20.8333 8.37807 20.6413C8.45707 20.4763 8.49407 20.3513 8.51807 20.2793C8.73007 19.5863 8.44007 18.6843 7.69807 18.4553C7.00507 18.2423 6.29607 18.4113 6.02107 19.3033C5.70907 20.3163 6.19407 22.1553 8.79107 22.9563C11.8351 23.8913 14.4101 22.2343 14.7751 20.0733C15.0051 18.7193 14.3941 17.7133 13.2741 16.4203L12.3621 15.4103C11.8091 14.8593 11.6191 13.9183 12.1911 13.1943C12.6741 12.5843 13.3611 12.3243 14.4871 12.6303C16.1301 13.0763 16.8631 14.2173 18.0851 15.1363C17.5801 16.7923 17.2511 18.4533 16.9521 19.9433L16.7701 21.0533C15.8961 25.6373 15.2301 28.1533 13.4961 29.5983C13.1461 29.8463 12.6481 30.2183 11.8961 30.2443C11.5011 30.2563 11.3741 29.9853 11.3681 29.8673C11.3581 29.5903 11.5921 29.4633 11.7471 29.3383C11.9791 29.2123 12.3291 29.0023 12.3051 28.3313C12.2801 27.5383 11.6231 26.8503 10.6731 26.8813C9.96107 26.9063 8.87707 27.5753 8.91807 28.8013C8.96007 30.0673 10.1401 31.0163 11.9191 30.9563C12.8701 30.9233 14.9941 30.5363 17.0871 28.0483C19.5231 25.1963 20.2041 21.9273 20.7171 19.5343L21.2891 16.3743C21.6061 16.4123 21.9461 16.4383 22.3161 16.4473C25.3501 16.5113 26.8671 14.9393 26.8901 13.7973C26.9051 13.1043 26.4361 12.4243 25.7801 12.4393C25.3101 12.4523 24.7201 12.7653 24.5771 13.4153C24.4391 14.0533 25.5431 14.6283 24.6801 15.1873C24.0671 15.5833 22.9681 15.8633 21.4201 15.6363L21.7021 14.0813C22.2771 11.1313 22.9851 7.50426 25.6721 7.41626C25.8681 7.40626 26.5841 7.42526 26.6011 7.89926C26.6061 8.05726 26.5661 8.09726 26.3811 8.45926C26.1931 8.74226 26.1211 8.98326 26.1311 9.25926C26.1561 10.0123 26.7291 10.5073 27.5571 10.4773C28.6651 10.4413 28.9841 9.36226 28.9671 8.80726C28.9211 7.50526 27.5491 6.68226 25.7311 6.74126Z" fill="white"/>
</g>
</g>
<defs>
<clipPath id="clip0_7688_10976">
<rect width="36" height="36" fill="white"/>
</clipPath>
</defs>
</svg>
