<svg xmlns="http://www.w3.org/2000/svg" width="36" height="36" fill="none"><g clip-path="url(#a)"><path fill="#1A1A1A" d="M17.928 35.972c9.901 0 17.928-8.027 17.928-17.928C35.856 8.143 27.83.116 17.928.116 8.027.116 0 8.143 0 18.044c0 9.901 8.027 17.928 17.928 17.928Z"/><path fill="#fff" d="M25.73 6.74c-1.819.064-3.406 1.066-4.588 2.453-1.309 1.52-2.18 3.324-2.806 5.164-1.122-.92-1.988-2.11-3.788-2.629-1.391-.4-2.852-.234-4.196.767-.637.476-1.075 1.194-1.284 1.87-.54 1.756.568 3.319 1.071 3.88l1.1 1.178c.227.232.773.835.506 1.699-.289.94-1.422 1.548-2.584 1.19-.52-.159-1.265-.545-1.098-1.09.07-.223.229-.39.314-.582.079-.165.116-.29.14-.362.212-.693-.078-1.595-.82-1.824-.693-.213-1.402-.044-1.677.848-.312 1.013.173 2.852 2.77 3.653 3.044.935 5.619-.722 5.984-2.883.23-1.354-.381-2.36-1.501-3.653l-.912-1.01c-.553-.551-.743-1.492-.171-2.216.483-.61 1.17-.87 2.296-.564 1.643.446 2.376 1.587 3.598 2.506-.505 1.656-.834 3.317-1.133 4.807l-.182 1.11c-.874 4.584-1.54 7.1-3.274 8.545-.35.248-.848.62-1.6.646-.395.012-.522-.259-.528-.377-.01-.277.224-.404.379-.529.232-.126.582-.336.558-1.007-.025-.793-.682-1.481-1.632-1.45-.712.025-1.796.694-1.755 1.92.042 1.266 1.222 2.215 3.001 2.155.951-.033 3.075-.42 5.168-2.908 2.436-2.852 3.117-6.121 3.63-8.514l.572-3.16c.317.038.657.064 1.027.073 3.034.064 4.551-1.508 4.574-2.65.015-.693-.454-1.373-1.11-1.358-.47.013-1.06.326-1.203.976-.138.638.966 1.213.103 1.772-.613.396-1.712.676-3.26.449l.282-1.555c.575-2.95 1.283-6.577 3.97-6.665.196-.01.912.009.929.483.005.158-.035.198-.22.56-.188.283-.26.524-.25.8.025.753.598 1.248 1.426 1.218 1.108-.036 1.427-1.115 1.41-1.67-.046-1.302-1.418-2.125-3.236-2.066Z"/></g><defs><clipPath id="a"><path fill="#fff" d="M0 0h35.856v36H0z"/></clipPath></defs></svg>