<svg width="160" height="109" viewBox="0 0 160 109" fill="none" xmlns="http://www.w3.org/2000/svg">
<path d="M104.554 3.06512C105.723 1.89121 107.619 1.89122 108.788 3.06513L157.883 52.356C159.052 53.5299 159.052 55.4332 157.883 56.6071L108.784 105.902C107.615 107.076 105.719 107.076 104.55 105.902L55.4553 56.6114C54.2861 55.4375 54.2861 53.5342 55.4553 52.3603L104.554 3.06512Z" fill="#2A004E"/>
<path d="M36.5814 56.6262C35.4154 55.4556 35.4153 53.5625 36.5814 52.3918L77.6636 11.1471C79.0436 9.76157 78.7501 7.4445 77.0016 6.56884C69.8697 2.99732 61.8462 0.957764 53.3319 0.957764C23.8818 0.957764 0 24.935 0 54.509C0 84.083 23.8818 108.06 53.3319 108.06C61.8445 108.06 69.8693 106.019 77.0015 102.447C78.7501 101.572 79.0436 99.2545 77.6634 97.8689L36.5814 56.6262Z" fill="#F14A00"/>
</svg>
