<svg width="36" height="36" viewBox="0 0 36 36" fill="none" xmlns="http://www.w3.org/2000/svg">
<path d="M3.03893 18.4063C2.84833 18.2785 2.6556 18.155 2.432 18.008L2.44576 17.9988C2.525 17.9457 2.575 17.9122 2.61833 17.8739C3.0368 17.5374 3.49572 17.2382 3.86414 16.8527C4.38588 16.3129 4.54241 15.5952 4.60949 14.8712C4.66379 14.2834 4.70319 13.6914 4.70319 13.1004C4.70638 10.8537 4.67338 8.60595 4.69361 6.35925C3.13242 5.93922 3.08671 4.0269 3.259 3.12325C2.98514 3.41 2.75931 3.75447 2.58958 4.16685C2.21158 5.08576 2.13811 6.04194 2.13173 7.00983C2.12214 8.99673 2.13918 10.9847 2.12214 12.9727C2.12136 13.5844 2.07151 14.195 1.97307 14.7988C1.80058 15.8007 1.20855 16.4875 0.250244 16.8495C0.187136 16.8785 1.8414e-05 16.8936 1.8414e-05 16.8936V17.1615L0 18.6852V18.875C0 18.875 0.15912 18.9496 0.212976 18.9813C0.523895 19.1665 0.87634 19.2879 1.16277 19.5009C1.89215 20.0439 2.06677 20.8734 2.08381 21.7018C2.1296 23.9847 2.11149 26.2687 2.1296 28.5516C2.13811 29.6398 2.202 30.7184 2.60449 31.7545C2.75645 32.1751 2.99274 32.5604 3.29888 32.8864C3.12659 31.9828 3.15275 30.0741 4.71393 29.6541C4.71438 29.4962 4.72129 29.3372 4.72129 29.1809C4.71384 27.0747 4.7181 24.9686 4.70319 22.8624C4.69893 22.3077 4.65847 21.7518 4.6063 21.1992C4.49769 20.0386 4.02811 19.0739 3.03893 18.4063Z" fill="#18191B"/>
<path d="M4.76921 30.235C4.72299 30.0483 4.71337 29.8521 4.71393 29.6541C3.15275 30.0741 3.12659 31.9828 3.29888 32.8864C3.60502 33.2125 3.97456 33.4727 4.38482 33.6509C5.51562 34.1534 6.71777 34.1705 7.92418 34.1641C8.01107 34.1636 8.15204 34.1641 8.15204 34.1641V33.9093C8.14778 33.3886 8.15204 32.3401 8.15204 32.3401V32.0888H7.92098C7.47784 32.0693 7.1192 32.0271 6.72735 31.9504C5.51456 31.7129 5.05457 31.4063 4.76921 30.235Z" fill="#5E5E60"/>
<path d="M7.83367 1.83496C6.84022 1.83496 5.8489 1.84987 4.89059 2.1544C4.24756 2.35939 3.69298 2.66884 3.259 3.12325C3.08671 4.0269 3.13242 5.93922 4.69361 6.35925C4.70213 5.42436 5.06841 4.4586 6.16834 4.21157C6.30285 4.18208 6.4262 4.15051 6.5468 4.11964C6.91899 4.02437 7.26505 3.93579 7.8326 3.93579H8.16588V1.83506C8.16588 1.83506 7.95613 1.83496 7.83367 1.83496Z" fill="#5E5E60"/>
<path d="M32.9611 18.4063C33.1517 18.2785 33.3444 18.155 33.568 18.008L33.5542 17.9988C33.475 17.9457 33.425 17.9122 33.3817 17.8739C32.9632 17.5374 32.5043 17.2382 32.1359 16.8527C31.6141 16.3129 31.4576 15.5952 31.3905 14.8712C31.3362 14.2834 31.2968 13.6914 31.2968 13.1004C31.2936 10.8537 31.3266 8.60595 31.3064 6.35925C32.8676 5.93922 32.9133 4.0269 32.741 3.12325C33.0149 3.41 33.2407 3.75447 33.4104 4.16685C33.7884 5.08576 33.8619 6.04194 33.8683 7.00983C33.8779 8.99673 33.8608 10.9847 33.8779 12.9727C33.8786 13.5844 33.9285 14.195 34.0269 14.7988C34.1994 15.8007 34.7914 16.4875 35.7498 16.8495C35.8129 16.8785 36 16.8936 36 16.8936V17.1615L36 18.6852V18.875C36 18.875 35.8409 18.9496 35.787 18.9813C35.4761 19.1665 35.1237 19.2879 34.8372 19.5009C34.1079 20.0439 33.9332 20.8734 33.9162 21.7018C33.8704 23.9847 33.8885 26.2687 33.8704 28.5516C33.8619 29.6398 33.798 30.7184 33.3955 31.7545C33.2436 32.1751 33.0073 32.5604 32.7011 32.8864C32.8734 31.9828 32.8473 30.0741 31.2861 29.6541C31.2856 29.4962 31.2787 29.3372 31.2787 29.1809C31.2862 27.0747 31.2819 24.9686 31.2968 22.8624C31.3011 22.3077 31.3415 21.7518 31.3937 21.1992C31.5023 20.0386 31.9719 19.0739 32.9611 18.4063Z" fill="#18191B"/>
<path d="M31.2308 30.235C31.277 30.0483 31.2866 29.8521 31.2861 29.6541C32.8473 30.0741 32.8734 31.9828 32.7011 32.8864C32.395 33.2125 32.0254 33.4727 31.6152 33.6509C30.4844 34.1534 29.2822 34.1705 28.0758 34.1641C27.9889 34.1636 27.848 34.1641 27.848 34.1641V33.9093C27.8522 33.3886 27.848 32.3401 27.848 32.3401V32.0888H28.079C28.5222 32.0693 28.8808 32.0271 29.2726 31.9504C30.4854 31.7129 30.9454 31.4063 31.2308 30.235Z" fill="#5E5E60"/>
<path d="M28.1663 1.83496C29.1598 1.83496 30.1511 1.84987 31.1094 2.1544C31.7524 2.35939 32.307 2.66884 32.741 3.12325C32.9133 4.0269 32.8676 5.93922 31.3064 6.35925C31.2979 5.42436 30.9316 4.4586 29.8317 4.21157C29.6971 4.18208 29.5738 4.15051 29.4532 4.11964C29.081 4.02437 28.735 3.93579 28.1674 3.93579H27.8341V1.83506C27.8341 1.83506 28.0439 1.83496 28.1663 1.83496Z" fill="#5E5E60"/>
<path d="M20.4653 24.2053C20.4653 25.7315 20.4653 27.2577 20.4653 28.7839C20.4653 29.362 20.2289 29.6059 19.6635 29.6059H12.0076C11.4689 29.6059 11.2389 29.377 11.2378 28.8275C11.2378 25.7276 11.2378 22.6276 11.2378 19.5277C11.2378 18.9867 11.4763 18.7578 12.0172 18.7578H19.6731C20.2182 18.7578 20.4653 19.007 20.4653 19.5543C20.4667 21.1046 20.4667 22.6549 20.4653 24.2053ZM20.0542 24.217C20.0542 22.6901 20.0542 21.1639 20.0542 19.6384C20.0542 19.1837 20.0425 19.171 19.607 19.171H12.0939C11.668 19.171 11.6339 19.205 11.6339 19.6405C11.6339 22.6688 11.6339 25.6978 11.6339 28.7274C11.6339 29.1619 11.668 29.1949 12.0949 29.1949H19.573C20.0489 29.1949 20.0542 29.1949 20.0542 28.7264C20.0557 27.2236 20.0557 25.7205 20.0542 24.217Z" fill="#18191B"/>
<path d="M20.4653 11.5248C20.4653 13.0609 20.4653 14.5977 20.4653 16.1353C20.4653 16.6964 20.2395 16.9232 19.6709 16.9243C17.1211 16.9243 14.5709 16.9243 12.0204 16.9243C11.4497 16.9243 11.2378 16.7039 11.2378 16.1225C11.2378 13.0488 11.2378 9.97442 11.2378 6.89931C11.2378 6.30515 11.4508 6.09326 12.0513 6.09326C14.5777 6.09326 17.1041 6.09326 19.6305 6.09326C20.2629 6.09326 20.4653 6.30622 20.4653 6.94509C20.4667 8.47342 20.4667 9.99997 20.4653 11.5248ZM20.0542 11.5077C20.0542 9.99358 20.0542 8.47981 20.0542 6.96639C20.0542 6.51279 20.0319 6.48936 19.5666 6.48936H12.1312C11.669 6.48936 11.6382 6.51918 11.6382 6.96745C11.6382 9.99571 11.6382 13.0236 11.6382 16.0512C11.6382 16.4909 11.6722 16.5271 12.0971 16.5282C14.6004 16.5282 17.1016 16.5282 19.6081 16.5282C19.9275 16.5282 20.0692 16.4356 20.066 16.081C20.0447 14.5594 20.0542 13.0336 20.0542 11.513V11.5077Z" fill="#18191B"/>
<path d="M21.7675 24.5641V24.1999H21.939C22.6588 24.1999 23.3796 24.1893 24.0994 24.1999C24.2231 24.1999 24.4252 24.1999 24.4252 24.1999C24.4252 24.1999 24.4258 24.0023 24.4252 23.8805C24.4189 19.9891 24.4171 16.0976 24.4199 12.2062C24.4199 12.1252 24.4029 12.0454 24.3912 11.9378H21.7505L21.7505 11.5449H24.7873V24.5641H21.7675Z" fill="#18191B"/>
<path d="M12.6133 21.1536V20.8203H19.1942V20.9896V21.1536H12.6133Z" fill="#18191B"/>
<path d="M13.46 22.937H19.195V23.2884H13.46L13.46 22.937Z" fill="#18191B"/>
<path d="M19.194 25.291V25.6286H13.4624V25.291H19.194Z" fill="#18191B"/>
<path d="M13.4619 27.9719V27.6333H19.1955V27.9719H13.4619Z" fill="#18191B"/>
<path d="M13.2181 22.9443V23.2925H12.6133V22.9443H13.2181Z" fill="#18191B"/>
<path d="M12.6133 25.6268V25.2925H13.2193V25.6268H12.6133Z" fill="#18191B"/>
<path d="M12.6118 27.6187H13.2181V27.9786H12.6118V27.6187Z" fill="#18191B"/>
<path d="M19.1945 8.13428V8.49311H12.6138V8.13428H19.1945Z" fill="#18191B"/>
<path d="M19.1944 10.2617V10.6259H13.46V10.2617H19.1944Z" fill="#18191B"/>
<path d="M13.4624 12.9692V12.604H19.1915V12.9692H13.4624Z" fill="#18191B"/>
<path d="M19.1812 14.9502V15.309H13.4804L13.458 14.9502H19.1812Z" fill="#18191B"/>
<path d="M12.6133 10.6276V10.2603H13.2174V10.6276H12.6133Z" fill="#18191B"/>
<path d="M12.6133 12.5909L13.2197 12.5908V12.9741L12.6133 12.9742V12.5909Z" fill="#18191B"/>
<path d="M12.626 15.3178V14.9419H13.2095V15.3178H12.626Z" fill="#18191B"/>
</svg>
