<svg width="36" height="36" viewBox="0 0 36 36" fill="none" xmlns="http://www.w3.org/2000/svg">
<path d="M3.03893 18.4072C2.84833 18.2795 2.6556 18.156 2.432 18.009L2.44576 17.9998C2.525 17.9467 2.575 17.9131 2.61833 17.8749C3.0368 17.5384 3.49572 17.2392 3.86414 16.8537C4.38588 16.3139 4.54241 15.5962 4.60949 14.8721C4.66379 14.2844 4.70319 13.6924 4.70319 13.1014C4.70638 10.8547 4.67338 8.60693 4.69361 6.36023C3.13242 5.94019 3.08671 4.02788 3.259 3.12423C2.98514 3.41098 2.75931 3.75545 2.58958 4.16782C2.21158 5.08674 2.13811 6.04292 2.13173 7.01081C2.12214 8.99771 2.13918 10.9857 2.12214 12.9736C2.12136 13.5853 2.07151 14.196 1.97307 14.7997C1.80058 15.8017 1.20855 16.4885 0.250244 16.8505C0.187136 16.8795 1.8414e-05 16.8945 1.8414e-05 16.8945V17.1625L0 18.6862V18.876C0 18.876 0.15912 18.9506 0.212976 18.9822C0.523895 19.1675 0.87634 19.2889 1.16277 19.5018C1.89215 20.0449 2.06677 20.8744 2.08381 21.7028C2.1296 23.9857 2.11149 26.2696 2.1296 28.5526C2.13811 29.6408 2.202 30.7194 2.60449 31.7554C2.75645 32.1761 2.99274 32.5613 3.29888 32.8874C3.12659 31.9838 3.15275 30.0751 4.71393 29.655C4.71438 29.4972 4.72129 29.3382 4.72129 29.1818C4.71384 27.0757 4.7181 24.9695 4.70319 22.8634C4.69893 22.3086 4.65847 21.7528 4.6063 21.2002C4.49769 20.0396 4.02811 19.0749 3.03893 18.4072Z" fill="#FF0801"/>
<path d="M4.76921 30.236C4.72299 30.0493 4.71337 29.8531 4.71393 29.655C3.15275 30.0751 3.12659 31.9838 3.29888 32.8874C3.60502 33.2135 3.97456 33.4736 4.38482 33.6518C5.51562 34.1544 6.71777 34.1714 7.92418 34.1651C8.01107 34.1646 8.15204 34.1651 8.15204 34.1651V33.9103C8.14778 33.3896 8.15204 32.3411 8.15204 32.3411V32.0898H7.92098C7.47784 32.0703 7.1192 32.028 6.72735 31.9514C5.51456 31.7139 5.05457 31.4073 4.76921 30.236Z" fill="#FFAB00"/>
<path d="M7.83367 1.83594C6.84022 1.83594 5.8489 1.85084 4.89059 2.15537C4.24756 2.36036 3.69298 2.66982 3.259 3.12423C3.08671 4.02788 3.13242 5.94019 4.69361 6.36023C4.70213 5.42534 5.06841 4.45958 6.16834 4.21255C6.30285 4.18306 6.4262 4.15148 6.5468 4.12061C6.91899 4.02535 7.26505 3.93677 7.8326 3.93677H8.16588V1.83604C8.16588 1.83604 7.95613 1.83594 7.83367 1.83594Z" fill="#FFAB00"/>
<path d="M32.9612 18.4072C33.1518 18.2795 33.3445 18.156 33.5681 18.009L33.5543 17.9998C33.4751 17.9467 33.4251 17.9131 33.3817 17.8749C32.9633 17.5384 32.5044 17.2392 32.1359 16.8537C31.6142 16.3139 31.4577 15.5962 31.3906 14.8721C31.3363 14.2844 31.2969 13.6924 31.2969 13.1014C31.2937 10.8547 31.3267 8.60693 31.3065 6.36023C32.8677 5.94019 32.9134 4.02788 32.7411 3.12423C33.0149 3.41098 33.2408 3.75545 33.4105 4.16782C33.7885 5.08674 33.862 6.04292 33.8684 7.01081C33.8779 8.99771 33.8609 10.9857 33.8779 12.9736C33.8787 13.5853 33.9286 14.196 34.027 14.7997C34.1995 15.8017 34.7915 16.4885 35.7498 16.8505C35.8129 16.8795 36.0001 16.8945 36.0001 16.8945V17.1625L36.0001 18.6862V18.876C36.0001 18.876 35.841 18.9506 35.7871 18.9822C35.4762 19.1675 35.1237 19.2889 34.8373 19.5018C34.1079 20.0449 33.9333 20.8744 33.9163 21.7028C33.8705 23.9857 33.8886 26.2696 33.8705 28.5526C33.862 29.6408 33.7981 30.7194 33.3956 31.7554C33.2436 32.1761 33.0073 32.5613 32.7012 32.8874C32.8735 31.9838 32.8473 30.0751 31.2862 29.655C31.2857 29.4972 31.2788 29.3382 31.2788 29.1818C31.2862 27.0757 31.282 24.9695 31.2969 22.8634C31.3012 22.3086 31.3416 21.7528 31.3938 21.2002C31.5024 20.0396 31.972 19.0749 32.9612 18.4072Z" fill="#FF0801"/>
<path d="M31.2309 30.236C31.2771 30.0493 31.2867 29.8531 31.2862 29.655C32.8473 30.0751 32.8735 31.9838 32.7012 32.8874C32.3951 33.2135 32.0255 33.4736 31.6153 33.6518C30.4845 34.1544 29.2823 34.1714 28.0759 34.1651C27.989 34.1646 27.848 34.1651 27.848 34.1651V33.9103C27.8523 33.3896 27.848 32.3411 27.848 32.3411V32.0898H28.0791C28.5222 32.0703 28.8809 32.028 29.2727 31.9514C30.4855 31.7139 30.9455 31.4073 31.2309 30.236Z" fill="#FFAB00"/>
<path d="M28.1664 1.83594C29.1599 1.83594 30.1512 1.85084 31.1095 2.15537C31.7525 2.36036 32.3071 2.66982 32.7411 3.12423C32.9134 4.02788 32.8677 5.94019 31.3065 6.36023C31.298 5.42534 30.9317 4.45958 29.8317 4.21255C29.6972 4.18306 29.5739 4.15148 29.4533 4.12061C29.0811 4.02535 28.735 3.93677 28.1675 3.93677H27.8342V1.83604C27.8342 1.83604 28.044 1.83594 28.1664 1.83594Z" fill="#FFAB00"/>
<path d="M20.4657 24.2053C20.4657 25.7315 20.4657 27.2577 20.4657 28.7839C20.4657 29.362 20.2294 29.6059 19.664 29.6059H12.0081C11.4693 29.6059 11.2393 29.377 11.2383 28.8275C11.2383 25.7276 11.2383 22.6276 11.2383 19.5277C11.2383 18.9867 11.4768 18.7578 12.0177 18.7578H19.6735C20.2187 18.7578 20.4657 19.007 20.4657 19.5543C20.4672 21.1046 20.4672 22.6549 20.4657 24.2053ZM20.0547 24.217C20.0547 22.6901 20.0547 21.1639 20.0547 19.6384C20.0547 19.1837 20.043 19.171 19.6075 19.171H12.0944C11.6685 19.171 11.6344 19.205 11.6344 19.6405C11.6344 22.6688 11.6344 25.6978 11.6344 28.7274C11.6344 29.1619 11.6685 29.1949 12.0954 29.1949H19.5734C20.0494 29.1949 20.0547 29.1949 20.0547 28.7264C20.0562 27.2236 20.0562 25.7205 20.0547 24.217Z" fill="black"/>
<path d="M20.4657 11.5252C20.4657 13.0614 20.4657 14.5982 20.4657 16.1358C20.4657 16.6969 20.24 16.9237 19.6714 16.9248C17.1216 16.9248 14.5714 16.9248 12.0209 16.9248C11.4502 16.9248 11.2383 16.7044 11.2383 16.123C11.2383 13.0493 11.2383 9.97491 11.2383 6.8998C11.2383 6.30564 11.4512 6.09375 12.0518 6.09375C14.5782 6.09375 17.1046 6.09375 19.6309 6.09375C20.2634 6.09375 20.4657 6.30671 20.4657 6.94558C20.4672 8.47391 20.4672 10.0005 20.4657 11.5252ZM20.0547 11.5082C20.0547 9.99407 20.0547 8.4803 20.0547 6.96688C20.0547 6.51328 20.0324 6.48985 19.5671 6.48985H12.1316C11.6695 6.48985 11.6386 6.51967 11.6386 6.96794C11.6386 9.9962 11.6386 13.0241 11.6386 16.0517C11.6386 16.4914 11.6727 16.5276 12.0976 16.5287C14.6009 16.5287 17.1021 16.5287 19.6086 16.5287C19.928 16.5287 20.0696 16.436 20.0664 16.0815C20.0452 14.5599 20.0547 13.034 20.0547 11.5135V11.5082Z" fill="black"/>
<path d="M21.767 24.566V24.2019H21.9385C22.6583 24.2019 23.3791 24.1912 24.0989 24.2019C24.2226 24.2019 24.4248 24.2019 24.4248 24.2019C24.4248 24.2019 24.4253 24.0042 24.4248 23.8825C24.4184 19.991 24.4166 16.0996 24.4194 12.2081C24.4194 12.1272 24.4024 12.0473 24.3907 11.9398H21.75L21.75 11.5469H24.7868V24.566H21.767Z" fill="black"/>
<path d="M12.6133 21.1536V20.8203H19.1942V20.9896V21.1536H12.6133Z" fill="black"/>
<path d="M13.4609 22.9375H19.1959V23.2889H13.4609L13.4609 22.9375Z" fill="black"/>
<path d="M19.1925 25.293V25.6305H13.4609V25.293H19.1925Z" fill="black"/>
<path d="M13.4609 27.9714V27.6328H19.1946V27.9714H13.4609Z" fill="black"/>
<path d="M13.2181 22.9453V23.2935H12.6133V22.9453H13.2181Z" fill="black"/>
<path d="M12.6133 25.6273V25.293H13.2193V25.6273H12.6133Z" fill="black"/>
<path d="M12.6133 27.6211H13.2196V27.981H12.6133V27.6211Z" fill="black"/>
<path d="M19.194 8.13672V8.49555H12.6133V8.13672H19.194Z" fill="black"/>
<path d="M19.1954 10.2617V10.6259H13.4609V10.2617H19.1954Z" fill="black"/>
<path d="M13.4609 12.9707V12.6055H19.1901V12.9707H13.4609Z" fill="black"/>
<path d="M19.1803 14.9492V15.3081H13.4794L13.457 14.9492H19.1803Z" fill="black"/>
<path d="M12.6133 10.6291V10.2617H13.2174V10.6291H12.6133Z" fill="black"/>
<path d="M12.6133 12.5899L13.2197 12.5898V12.9732L12.6133 12.9733V12.5899Z" fill="black"/>
<path d="M12.625 15.3173V14.9414H13.2085V15.3173H12.625Z" fill="black"/>
</svg>
