<svg width="36" height="36" viewBox="0 0 36 36" fill="none" xmlns="http://www.w3.org/2000/svg">
<g clip-path="url(#clip0_7688_11428)">
<path fill-rule="evenodd" clip-rule="evenodd" d="M13.8195 4.13608C11.9685 4.69516 10.2484 5.61951 8.76071 6.85453C8.13746 5.79195 7.14584 4.99509 5.97395 4.61506C7.82394 2.95087 9.99911 1.68862 12.3619 0.908006C14.7247 0.127436 17.2238 -0.154489 19.7012 0.0801415C22.1785 0.314726 24.5802 1.06069 26.7545 2.27092C27.3046 2.57715 27.8372 2.91141 28.3502 3.27199C28.3677 3.26439 28.3853 3.25692 28.4031 3.24958C29.0689 2.97382 29.8017 2.90169 30.5085 3.04231C31.2154 3.18298 31.8647 3.53007 32.3743 4.03969C32.8839 4.54932 33.2309 5.19862 33.3715 5.90548C33.5121 6.61234 33.4398 7.34503 33.1639 8.01081C32.888 8.67663 32.4209 9.24565 31.8216 9.64597C31.2223 10.0463 30.5177 10.26 29.7969 10.2599C29.3184 10.2599 28.8446 10.1656 28.4025 9.98248C27.9605 9.79933 27.5588 9.53095 27.2204 9.1926C26.8821 8.8542 26.6137 8.45253 26.4306 8.01045C26.2476 7.56837 26.1534 7.09456 26.1534 6.61608C26.1534 6.42919 26.1678 6.24339 26.1961 6.06024C25.8146 5.7982 25.42 5.55417 25.0137 5.32917C23.3221 4.39254 21.46 3.80434 19.5374 3.59946C17.6147 3.39453 15.6705 3.577 13.8195 4.13608ZM8.07703 9.38538C8.07703 10.0714 7.88334 10.7428 7.51925 11.3226L8.2662 12.6147C7.54157 13.4764 6.54756 14.0687 5.44479 14.2957L4.70621 13.0184C4.37897 13.043 4.04817 13.0234 3.72287 12.9587C3.0161 12.8182 2.36688 12.4712 1.8573 11.9617C1.34772 11.4523 1.00068 10.8031 0.86006 10.0964C0.71939 9.38974 0.791479 8.65719 1.06719 7.99146C1.34286 7.32573 1.80978 6.7567 2.40891 6.35629C3.00804 5.95593 3.71243 5.74218 4.43301 5.74204C4.91154 5.742 5.38535 5.83618 5.82747 6.01924C6.2696 6.2023 6.67131 6.47068 7.00967 6.80899C7.34807 7.1473 7.6165 7.54897 7.79965 7.99101C7.98275 8.43309 8.07703 8.90689 8.07703 9.38538ZM5.44493 14.2958L11.727 25.1609L13.6212 28.4416L15.5157 25.1609L17.8776 21.0707L20.233 25.1462L22.1261 28.4259L24.0203 25.1457L27.1976 19.6408H32.3869C32.4486 19.0962 32.4795 18.5485 32.4796 18.0004C32.4797 17.4523 32.4486 16.9047 32.3864 16.3601H25.303L24.9737 16.9303L22.1252 21.8636L19.7697 17.7875L17.8756 14.5068L15.9844 17.788L13.6212 21.8783L8.26652 12.6148C7.54184 13.4765 6.54779 14.0688 5.44493 14.2958ZM32.4797 18.0001C32.4796 18.5482 32.4486 19.0959 32.3869 19.6405H35.8708V16.3598H32.3869C32.449 16.9044 32.4799 17.452 32.4797 18.0001ZM35.8719 16.3601H35.925C35.9735 16.9003 36 17.4474 36 18.0004C36 27.9406 27.9435 36 18.0012 36C8.05898 36 1.96574e-05 27.9416 1.96574e-05 18.0014C-0.00259034 16.2396 0.25472 14.487 0.76358 12.8002C1.5972 13.6977 2.73134 14.258 3.95075 14.3748C3.68331 15.5323 3.52041 16.8777 3.52041 18.0004C3.52041 25.9951 10.0017 32.4794 18.0017 32.4794C25.4458 32.4794 31.5733 26.8645 32.3879 19.6408H35.8719V16.3601Z" fill="#1CBED8"/>
</g>
<defs>
<clipPath id="clip0_7688_11428">
<rect width="36" height="36" fill="white"/>
</clipPath>
</defs>
</svg>
