<svg width="27" height="16" viewBox="0 0 27 16" fill="none" xmlns="http://www.w3.org/2000/svg">
<g clip-path="url(#clip0_27126_3873)">
<path d="M7.67529 5.83736C7.67529 6.16264 7.71081 6.42637 7.77299 6.61978C7.84404 6.81319 7.93285 7.02418 8.0572 7.25275C8.1016 7.32308 8.11937 7.39341 8.11937 7.45495C8.11937 7.54286 8.06608 7.63077 7.95062 7.71868L7.39108 8.08791C7.31114 8.14066 7.23121 8.16703 7.16016 8.16703C7.07134 8.16703 6.98252 8.12308 6.89371 8.04396C6.76937 7.91209 6.66279 7.77143 6.57397 7.63077C6.48516 7.48132 6.39634 7.31429 6.29864 7.11209C5.60588 7.92088 4.73549 8.32528 3.68746 8.32528C2.94141 8.32528 2.34634 8.11429 1.91114 7.69231C1.47595 7.27033 1.25391 6.70769 1.25391 6.0044C1.25391 5.25714 1.52035 4.65055 2.06213 4.19341C2.60391 3.73626 3.32331 3.50769 4.23812 3.50769C4.54009 3.50769 4.85095 3.53407 5.17956 3.57802C5.50818 3.62198 5.84568 3.69231 6.20095 3.77143V3.12967C6.20095 2.46154 6.05884 1.9956 5.78351 1.72308C5.4993 1.45055 5.0197 1.31868 4.33581 1.31868C4.02496 1.31868 3.70522 1.35385 3.3766 1.43297C3.04799 1.51209 2.72825 1.60879 2.41739 1.73187C2.27529 1.79341 2.16871 1.82857 2.10654 1.84615C2.04437 1.86374 1.99996 1.87253 1.96443 1.87253C1.84009 1.87253 1.77792 1.78462 1.77792 1.6V1.16923C1.77792 1.02857 1.79568 0.923077 1.84009 0.861539C1.8845 0.8 1.96443 0.738462 2.08877 0.676923C2.39963 0.518682 2.77266 0.386813 3.20785 0.281319C3.64305 0.167033 4.10489 0.114286 4.59338 0.114286C5.65029 0.114286 6.42299 0.351649 6.92035 0.826374C7.40884 1.3011 7.65752 2.02198 7.65752 2.98901V5.83736H7.67529ZM4.06937 7.17363C4.36246 7.17363 4.66443 7.12088 4.98417 7.01539C5.30391 6.90989 5.58812 6.71648 5.82792 6.45275C5.97003 6.28572 6.0766 6.1011 6.12989 5.89011C6.18318 5.67912 6.21871 5.42418 6.21871 5.12528V4.75604C5.96114 4.69451 5.68581 4.64176 5.4016 4.60659C5.11739 4.57143 4.84206 4.55385 4.56674 4.55385C3.97167 4.55385 3.53647 4.66813 3.24338 4.90549C2.95029 5.14286 2.80818 5.47692 2.80818 5.91648C2.80818 6.32967 2.91476 6.63736 3.1368 6.84835C3.34996 7.06813 3.66081 7.17363 4.06937 7.17363ZM11.2013 8.12308C11.0414 8.12308 10.9348 8.0967 10.8638 8.03517C10.7927 7.98242 10.7306 7.85934 10.6773 7.69231L8.59009 0.896703C8.5368 0.720879 8.51016 0.606594 8.51016 0.545055C8.51016 0.404396 8.58121 0.325275 8.72331 0.325275H9.59371C9.76246 0.325275 9.87792 0.351649 9.94009 0.413187C10.0111 0.465934 10.0644 0.589011 10.1177 0.756044L11.6098 6.57582L12.9954 0.756044C13.0398 0.58022 13.0931 0.465934 13.1641 0.413187C13.2352 0.36044 13.3595 0.325275 13.5194 0.325275H14.2299C14.3986 0.325275 14.5141 0.351649 14.5852 0.413187C14.6562 0.465934 14.7184 0.589011 14.7539 0.756044L16.1572 6.64615L17.6937 0.756044C17.747 0.58022 17.8092 0.465934 17.8713 0.413187C17.9424 0.36044 18.0579 0.325275 18.2177 0.325275H19.0437C19.1858 0.325275 19.2657 0.395605 19.2657 0.545055C19.2657 0.589011 19.2569 0.632967 19.248 0.685715C19.2391 0.738462 19.2213 0.808791 19.1858 0.905495L17.0454 7.7011C16.9921 7.87692 16.9299 7.99121 16.8588 8.04396C16.7878 8.0967 16.6723 8.13187 16.5213 8.13187H15.7575C15.5888 8.13187 15.4733 8.1055 15.4023 8.04396C15.3312 7.98242 15.269 7.86813 15.2335 7.69231L13.8569 2.02198L12.4891 7.68352C12.4447 7.85934 12.3914 7.97363 12.3204 8.03517C12.2493 8.0967 12.125 8.12308 11.9651 8.12308H11.2013ZM22.6141 8.36044C22.1523 8.36044 21.6904 8.30769 21.2463 8.2022C20.8023 8.0967 20.4559 7.98242 20.225 7.85055C20.0829 7.77143 19.9852 7.68352 19.9496 7.6044C19.9141 7.52528 19.8963 7.43736 19.8963 7.35824V6.90989C19.8963 6.72528 19.9674 6.63736 20.1006 6.63736C20.1539 6.63736 20.2072 6.64615 20.2605 6.66374C20.3138 6.68132 20.3937 6.71648 20.4825 6.75165C20.7845 6.88352 21.1131 6.98901 21.4595 7.05934C21.8148 7.12967 22.1611 7.16484 22.5164 7.16484C23.0759 7.16484 23.5111 7.06813 23.8131 6.87473C24.1151 6.68132 24.275 6.4 24.275 6.03956C24.275 5.79341 24.195 5.59121 24.0352 5.42418C23.8753 5.25714 23.5733 5.10769 23.1381 4.96703L21.8503 4.57143C21.2019 4.36923 20.7223 4.07033 20.4292 3.67473C20.1361 3.28791 19.9852 2.85714 19.9852 2.4C19.9852 2.03077 20.0651 1.70549 20.225 1.42418C20.3848 1.14286 20.598 0.896704 20.8644 0.703297C21.1309 0.501099 21.4329 0.351649 21.7881 0.246154C22.1434 0.14066 22.5164 0.0967035 22.9072 0.0967035C23.1026 0.0967035 23.3069 0.105495 23.5023 0.131868C23.7065 0.158242 23.8931 0.193407 24.0796 0.228572C24.2572 0.272528 24.4259 0.316484 24.5858 0.369231C24.7457 0.421978 24.87 0.474726 24.9588 0.527473C25.0832 0.597802 25.172 0.668132 25.2253 0.747253C25.2786 0.817583 25.3052 0.914286 25.3052 1.03736V1.45055C25.3052 1.63517 25.2342 1.73187 25.1009 1.73187C25.0299 1.73187 24.9144 1.6967 24.7634 1.62637C24.2572 1.3978 23.6888 1.28352 23.0582 1.28352C22.5519 1.28352 22.1523 1.36264 21.8769 1.52967C21.6016 1.6967 21.4595 1.95165 21.4595 2.31209C21.4595 2.55824 21.5483 2.76923 21.7259 2.93626C21.9036 3.1033 22.2322 3.27033 22.7029 3.41978L23.9641 3.81539C24.6036 4.01758 25.0654 4.2989 25.3407 4.65934C25.6161 5.01978 25.7493 5.43297 25.7493 5.89011C25.7493 6.26813 25.6694 6.61099 25.5184 6.90989C25.3585 7.20879 25.1454 7.47253 24.87 7.68352C24.5947 7.9033 24.2661 8.06154 23.8842 8.17583C23.4845 8.2989 23.0671 8.36044 22.6141 8.36044Z" fill="currentColor"/>
<path fill-rule="evenodd" clip-rule="evenodd" d="M24.2953 12.633C21.3733 14.7692 17.1279 15.9033 13.4776 15.9033C8.36177 15.9033 3.75223 14.0308 0.270648 10.9187C-0.00468107 10.6725 0.244003 10.3385 0.572622 10.5319C4.33841 12.6945 8.98348 14.0044 13.7884 14.0044C17.0302 14.0044 20.5917 13.3363 23.869 11.9648C24.3575 11.7451 24.7749 12.2813 24.2953 12.633Z" fill="currentColor"/>
<path fill-rule="evenodd" clip-rule="evenodd" d="M25.512 11.2615C25.1389 10.7868 23.0429 11.033 22.0926 11.1473C21.8083 11.1824 21.7639 10.9363 22.0215 10.7517C23.6912 9.59121 26.4356 9.92528 26.7554 10.3121C27.0751 10.7077 26.6666 13.4242 25.1034 14.7253C24.8636 14.9275 24.6327 14.822 24.7393 14.5582C25.0945 13.6879 25.885 11.7275 25.512 11.2615Z" fill="currentColor"/>
</g>
<defs>
<clipPath id="clip0_27126_3873">
<rect width="27" height="16" fill="white"/>
</clipPath>
</defs>
</svg>
