<svg width="345" height="35" viewBox="0 0 345 35" fill="none" xmlns="http://www.w3.org/2000/svg">
<g clip-path="url(#clip0_4301_32038)">
<g style="mix-blend-mode:overlay" opacity="0.3">
<line x1="0.646447" y1="35.9209" x2="226.921" y2="-190.353" stroke="#0C0D0D"/>
<line x1="2.06051" y1="37.3352" x2="228.335" y2="-188.939" stroke="#0C0D0D"/>
<line x1="3.47457" y1="38.7492" x2="229.749" y2="-187.525" stroke="#0C0D0D"/>
<line x1="4.88863" y1="40.1635" x2="231.163" y2="-186.111" stroke="#0C0D0D"/>
<line x1="6.3027" y1="41.5776" x2="232.577" y2="-184.697" stroke="#0C0D0D"/>
<line x1="7.71676" y1="42.9919" x2="233.991" y2="-183.282" stroke="#0C0D0D"/>
<line x1="9.13082" y1="44.4062" x2="235.405" y2="-181.868" stroke="#0C0D0D"/>
<line x1="10.5468" y1="45.8203" x2="236.821" y2="-180.454" stroke="#0C0D0D"/>
<line x1="11.9609" y1="47.2346" x2="238.235" y2="-179.04" stroke="#0C0D0D"/>
<line x1="13.375" y1="48.6489" x2="239.649" y2="-177.625" stroke="#0C0D0D"/>
<line x1="14.789" y1="50.063" x2="241.063" y2="-176.211" stroke="#0C0D0D"/>
<line x1="16.2031" y1="51.4773" x2="242.477" y2="-174.797" stroke="#0C0D0D"/>
<line x1="17.6171" y1="52.8913" x2="243.891" y2="-173.383" stroke="#0C0D0D"/>
<line x1="19.0312" y1="54.3056" x2="245.305" y2="-171.969" stroke="#0C0D0D"/>
<line x1="20.4453" y1="55.7199" x2="246.719" y2="-170.554" stroke="#0C0D0D"/>
<line x1="21.8593" y1="57.134" x2="248.133" y2="-169.14" stroke="#0C0D0D"/>
<line x1="23.2734" y1="58.5483" x2="249.548" y2="-167.726" stroke="#0C0D0D"/>
<line x1="24.6875" y1="59.9626" x2="250.962" y2="-166.312" stroke="#0C0D0D"/>
<line x1="26.1015" y1="61.3767" x2="252.376" y2="-164.897" stroke="#0C0D0D"/>
<line x1="27.5156" y1="62.791" x2="253.79" y2="-163.483" stroke="#0C0D0D"/>
<line x1="28.9316" y1="64.205" x2="255.206" y2="-162.069" stroke="#0C0D0D"/>
<line x1="30.3457" y1="65.6193" x2="256.62" y2="-160.655" stroke="#0C0D0D"/>
<line x1="31.7597" y1="67.0337" x2="258.034" y2="-159.241" stroke="#0C0D0D"/>
<line x1="33.1738" y1="68.4477" x2="259.448" y2="-157.826" stroke="#0C0D0D"/>
<line x1="34.5879" y1="69.862" x2="260.862" y2="-156.412" stroke="#0C0D0D"/>
<line x1="36.0019" y1="71.2761" x2="262.276" y2="-154.998" stroke="#0C0D0D"/>
<line x1="37.416" y1="72.6904" x2="263.69" y2="-153.584" stroke="#0C0D0D"/>
<line x1="38.83" y1="74.1047" x2="265.104" y2="-152.169" stroke="#0C0D0D"/>
<line x1="40.2441" y1="75.5188" x2="266.518" y2="-150.755" stroke="#0C0D0D"/>
<line x1="41.6582" y1="76.9331" x2="267.932" y2="-149.341" stroke="#0C0D0D"/>
<line x1="43.0722" y1="78.3474" x2="269.346" y2="-147.927" stroke="#0C0D0D"/>
<line x1="44.4863" y1="79.7614" x2="270.76" y2="-146.513" stroke="#0C0D0D"/>
<line x1="45.9004" y1="81.1757" x2="272.175" y2="-145.098" stroke="#0C0D0D"/>
<line x1="47.3164" y1="82.5898" x2="273.591" y2="-143.684" stroke="#0C0D0D"/>
<line x1="48.7304" y1="84.0041" x2="275.005" y2="-142.27" stroke="#0C0D0D"/>
<line x1="50.1445" y1="85.4184" x2="276.419" y2="-140.856" stroke="#0C0D0D"/>
<line x1="51.5586" y1="86.8325" x2="277.833" y2="-139.442" stroke="#0C0D0D"/>
<line x1="52.9726" y1="88.2468" x2="279.247" y2="-138.027" stroke="#0C0D0D"/>
<line x1="54.3867" y1="89.6611" x2="280.661" y2="-136.613" stroke="#0C0D0D"/>
<line x1="55.8007" y1="91.0752" x2="282.075" y2="-135.199" stroke="#0C0D0D"/>
<line x1="57.2148" y1="92.4895" x2="283.489" y2="-133.785" stroke="#0C0D0D"/>
<line x1="58.6289" y1="93.9035" x2="284.903" y2="-132.371" stroke="#0C0D0D"/>
<line x1="60.0429" y1="95.3178" x2="286.317" y2="-130.956" stroke="#0C0D0D"/>
<line x1="61.457" y1="96.7321" x2="287.731" y2="-129.542" stroke="#0C0D0D"/>
<line x1="62.8711" y1="98.1462" x2="289.145" y2="-128.128" stroke="#0C0D0D"/>
<line x1="64.2851" y1="99.5605" x2="290.559" y2="-126.714" stroke="#0C0D0D"/>
<line x1="65.7011" y1="100.975" x2="291.975" y2="-125.3" stroke="#0C0D0D"/>
<line x1="67.1152" y1="102.389" x2="293.389" y2="-123.885" stroke="#0C0D0D"/>
<line x1="68.5293" y1="103.803" x2="294.803" y2="-122.471" stroke="#0C0D0D"/>
<line x1="69.9433" y1="105.217" x2="296.217" y2="-121.057" stroke="#0C0D0D"/>
<line x1="71.3574" y1="106.632" x2="297.632" y2="-119.643" stroke="#0C0D0D"/>
<line x1="72.7714" y1="108.046" x2="299.046" y2="-118.228" stroke="#0C0D0D"/>
<line x1="74.1855" y1="109.46" x2="300.46" y2="-116.814" stroke="#0C0D0D"/>
<line x1="75.5996" y1="110.874" x2="301.874" y2="-115.4" stroke="#0C0D0D"/>
<line x1="77.0136" y1="112.288" x2="303.288" y2="-113.986" stroke="#0C0D0D"/>
<line x1="78.4277" y1="113.703" x2="304.702" y2="-112.572" stroke="#0C0D0D"/>
<line x1="79.8418" y1="115.117" x2="306.116" y2="-111.157" stroke="#0C0D0D"/>
<line x1="81.2558" y1="116.531" x2="307.53" y2="-109.743" stroke="#0C0D0D"/>
<line x1="82.6699" y1="117.945" x2="308.944" y2="-108.329" stroke="#0C0D0D"/>
<line x1="84.0859" y1="119.36" x2="310.36" y2="-106.915" stroke="#0C0D0D"/>
<line x1="85.5" y1="120.774" x2="311.774" y2="-105.501" stroke="#0C0D0D"/>
<line x1="86.914" y1="122.188" x2="313.188" y2="-104.086" stroke="#0C0D0D"/>
<line x1="88.3281" y1="123.602" x2="314.602" y2="-102.672" stroke="#0C0D0D"/>
<line x1="89.7421" y1="125.016" x2="316.016" y2="-101.258" stroke="#0C0D0D"/>
<line x1="91.1562" y1="126.431" x2="317.43" y2="-99.8435" stroke="#0C0D0D"/>
<line x1="92.5703" y1="127.845" x2="318.844" y2="-98.4295" stroke="#0C0D0D"/>
<line x1="93.9843" y1="129.259" x2="320.259" y2="-97.0152" stroke="#0C0D0D"/>
<line x1="95.3984" y1="130.673" x2="321.673" y2="-95.6011" stroke="#0C0D0D"/>
<line x1="96.8125" y1="132.087" x2="323.087" y2="-94.1868" stroke="#0C0D0D"/>
<line x1="98.2265" y1="133.502" x2="324.501" y2="-92.7725" stroke="#0C0D0D"/>
<line x1="99.6406" y1="134.916" x2="325.915" y2="-91.3584" stroke="#0C0D0D"/>
<line x1="101.055" y1="136.33" x2="327.329" y2="-89.9441" stroke="#0C0D0D"/>
<line x1="102.471" y1="137.744" x2="328.745" y2="-88.5298" stroke="#0C0D0D"/>
<line x1="103.885" y1="139.158" x2="330.159" y2="-87.1158" stroke="#0C0D0D"/>
<line x1="105.299" y1="140.573" x2="331.573" y2="-85.7014" stroke="#0C0D0D"/>
<line x1="106.713" y1="141.987" x2="332.987" y2="-84.2874" stroke="#0C0D0D"/>
<line x1="108.127" y1="143.401" x2="334.401" y2="-82.8731" stroke="#0C0D0D"/>
<line x1="109.541" y1="144.815" x2="335.815" y2="-81.4588" stroke="#0C0D0D"/>
<line x1="110.955" y1="146.229" x2="337.229" y2="-80.0447" stroke="#0C0D0D"/>
<line x1="112.369" y1="147.644" x2="338.643" y2="-78.6304" stroke="#0C0D0D"/>
<line x1="113.783" y1="149.058" x2="340.057" y2="-77.2163" stroke="#0C0D0D"/>
<line x1="115.197" y1="150.472" x2="341.471" y2="-75.802" stroke="#0C0D0D"/>
<line x1="116.611" y1="151.886" x2="342.885" y2="-74.3877" stroke="#0C0D0D"/>
<line x1="118.025" y1="153.3" x2="344.3" y2="-72.9737" stroke="#0C0D0D"/>
<line x1="119.439" y1="154.715" x2="345.714" y2="-71.5594" stroke="#0C0D0D"/>
<line x1="120.855" y1="156.129" x2="347.13" y2="-70.1451" stroke="#0C0D0D"/>
<line x1="122.269" y1="157.543" x2="348.544" y2="-68.731" stroke="#0C0D0D"/>
<line x1="123.684" y1="158.957" x2="349.958" y2="-67.3167" stroke="#0C0D0D"/>
<line x1="125.098" y1="160.372" x2="351.372" y2="-65.9026" stroke="#0C0D0D"/>
<line x1="126.512" y1="161.786" x2="352.786" y2="-64.4883" stroke="#0C0D0D"/>
<line x1="127.926" y1="163.2" x2="354.2" y2="-63.074" stroke="#0C0D0D"/>
<line x1="129.34" y1="164.614" x2="355.614" y2="-61.6599" stroke="#0C0D0D"/>
<line x1="130.754" y1="166.029" x2="357.028" y2="-60.2456" stroke="#0C0D0D"/>
<line x1="132.168" y1="167.443" x2="358.442" y2="-58.8313" stroke="#0C0D0D"/>
<line x1="133.582" y1="168.857" x2="359.856" y2="-57.4173" stroke="#0C0D0D"/>
<line x1="134.996" y1="170.271" x2="361.27" y2="-56.003" stroke="#0C0D0D"/>
<line x1="136.41" y1="171.685" x2="362.684" y2="-54.5889" stroke="#0C0D0D"/>
<line x1="137.826" y1="173.1" x2="364.1" y2="-53.1746" stroke="#0C0D0D"/>
<line x1="139.24" y1="174.514" x2="365.514" y2="-51.7603" stroke="#0C0D0D"/>
<line x1="140.654" y1="175.928" x2="366.928" y2="-50.3462" stroke="#0C0D0D"/>
<line x1="142.068" y1="177.342" x2="368.342" y2="-48.9319" stroke="#0C0D0D"/>
<line x1="143.482" y1="178.756" x2="369.757" y2="-47.5179" stroke="#0C0D0D"/>
<line x1="144.896" y1="180.171" x2="371.171" y2="-46.1035" stroke="#0C0D0D"/>
<line x1="146.311" y1="181.585" x2="372.585" y2="-44.6892" stroke="#0C0D0D"/>
<line x1="147.725" y1="182.999" x2="373.999" y2="-43.2752" stroke="#0C0D0D"/>
<line x1="149.139" y1="184.413" x2="375.413" y2="-41.8609" stroke="#0C0D0D"/>
<line x1="150.553" y1="185.828" x2="376.827" y2="-40.4466" stroke="#0C0D0D"/>
<line x1="151.967" y1="187.242" x2="378.241" y2="-39.0325" stroke="#0C0D0D"/>
<line x1="153.381" y1="188.656" x2="379.655" y2="-37.6182" stroke="#0C0D0D"/>
<line x1="154.795" y1="190.07" x2="381.069" y2="-36.2041" stroke="#0C0D0D"/>
</g>
</g>
<defs>
<clipPath id="clip0_4301_32038">
<rect width="345" height="35" fill="white"/>
</clipPath>
</defs>
</svg>
