<svg width="16" height="16" viewBox="0 0 16 16" fill="none" xmlns="http://www.w3.org/2000/svg">
<g clip-path="url(#clip0_31216_21416)">
<path fill-rule="evenodd" clip-rule="evenodd" d="M3.75949 13.1514L1.56103 15.3498L0.650391 14.4392L2.84886 12.2407L3.75949 13.1514Z" fill="#EFEFF0"/>
<path fill-rule="evenodd" clip-rule="evenodd" d="M7.6242 6.7124L5.55907 8.7775L4.64844 7.86687L6.71354 5.80176L7.6242 6.7124Z" fill="#EFEFF0"/>
<path fill-rule="evenodd" clip-rule="evenodd" d="M10.1985 9.28807L8.13335 11.3532L7.22266 10.4425L9.28783 8.37744L10.1985 9.28807Z" fill="#EFEFF0"/>
<path fill-rule="evenodd" clip-rule="evenodd" d="M15.3518 1.56053L13.1528 3.75948L12.2422 2.84884L14.4411 0.649902L15.3518 1.56053Z" fill="#EFEFF0"/>
<path d="M3.95938 6.18311L2.39337 7.74767C1.6164 8.52462 1.17969 9.57865 1.17969 10.6775C1.17969 11.7763 1.61619 12.8301 2.39317 13.6071C3.17014 14.3841 4.22395 14.8206 5.32276 14.8206C6.42158 14.8206 7.47537 14.3841 8.25238 13.6071L9.81716 12.0415L3.95938 6.18311Z" fill="#EFEFF0"/>
<path d="M10.6779 1.18018C9.57914 1.18018 8.52531 1.61667 7.74836 2.39366L6.18359 3.95984L12.0413 9.81757L13.6074 8.25305C14.3843 7.4761 14.821 6.42207 14.821 5.32326C14.821 4.22444 14.3845 3.17063 13.6075 2.39366C12.8305 1.61667 11.7768 1.18018 10.6779 1.18018Z" fill="#EFEFF0"/>
</g>
<defs>
<clipPath id="clip0_31216_21416">
<rect width="16" height="16" fill="white"/>
</clipPath>
</defs>
</svg>
