<svg width="16" height="16" viewBox="0 0 16 16" fill="none" xmlns="http://www.w3.org/2000/svg">
<g clip-path="url(#clip0_31216_23821)">
<path d="M13.5462 8.90812C13.5973 8.60807 13.6241 8.30437 13.6262 8C13.6241 7.69563 13.5973 7.39193 13.5462 7.09188L14.8587 5.82375C14.9588 5.72691 15.0237 5.59941 15.043 5.4615C15.0624 5.32359 15.0352 5.18316 14.9656 5.0625L14.0281 3.4375C13.9576 3.31729 13.8493 3.22382 13.72 3.17169C13.5908 3.11957 13.4479 3.11172 13.3137 3.14937L11.5637 3.64937C11.0899 3.26345 10.5565 2.95716 9.98436 2.7425L9.54499 0.97375C9.51125 0.83848 9.43325 0.718374 9.3234 0.632531C9.21355 0.546688 9.07815 0.500039 8.93874 0.5H7.06374C6.92432 0.500039 6.78893 0.546688 6.67907 0.632531C6.56922 0.718374 6.49123 0.83848 6.45749 0.97375L6.01561 2.7425C5.44435 2.95741 4.91179 3.26369 4.43874 3.64937L2.68874 3.14937C2.55456 3.11183 2.41173 3.11973 2.28251 3.17184C2.15329 3.22396 2.04495 3.31737 1.97436 3.4375L1.03686 5.0625C0.967162 5.18322 0.939821 5.32378 0.959186 5.46183C0.978551 5.59988 1.04351 5.72749 1.14374 5.82438L2.45624 7.0925C2.40517 7.39235 2.37841 7.69584 2.37624 8C2.37838 8.30437 2.40514 8.60807 2.45624 8.90812L1.14374 10.1763C1.04366 10.2731 0.978789 10.4006 0.959427 10.5385C0.940065 10.6764 0.967319 10.8168 1.03686 10.9375L1.97436 12.5625C2.02927 12.6576 2.10826 12.7366 2.20339 12.7914C2.29852 12.8463 2.40642 12.8751 2.51624 12.875C2.57433 12.8747 2.63213 12.8668 2.68811 12.8512L4.43811 12.3512C4.91192 12.7372 5.44534 13.0435 6.01749 13.2581L6.45936 15.0269C6.49314 15.1617 6.57091 15.2815 6.68037 15.3671C6.78983 15.4528 6.92473 15.4996 7.06374 15.5H8.93874C9.07815 15.5 9.21355 15.4533 9.3234 15.3675C9.43325 15.2816 9.51125 15.1615 9.54499 15.0263L9.98686 13.2575C10.5581 13.0426 11.0907 12.7363 11.5637 12.3506L13.3137 12.8506C13.3697 12.8661 13.4275 12.8741 13.4856 12.8744C13.5954 12.8745 13.7033 12.8457 13.7985 12.7908C13.8936 12.7359 13.9726 12.657 14.0275 12.5619L14.965 10.9369C15.0347 10.8162 15.062 10.6756 15.0427 10.5375C15.0233 10.3995 14.9583 10.2719 14.8581 10.175L13.5462 8.90812ZM8.00124 10.5C7.50678 10.5 7.02344 10.3534 6.61231 10.0787C6.20119 9.80397 5.88076 9.41352 5.69154 8.95671C5.50232 8.49989 5.45281 7.99723 5.54928 7.51227C5.64574 7.02732 5.88384 6.58186 6.23347 6.23223C6.5831 5.8826 7.02856 5.6445 7.51351 5.54804C7.99847 5.45157 8.50113 5.50108 8.95795 5.6903C9.41476 5.87952 9.80521 6.19995 10.0799 6.61107C10.3546 7.0222 10.5012 7.50555 10.5012 8C10.5012 8.66304 10.2378 9.29893 9.76901 9.76777C9.30016 10.2366 8.66428 10.5 8.00124 10.5Z" fill="#EFEFF0"/>
</g>
<defs>
<clipPath id="clip0_31216_23821">
<rect width="16" height="16" fill="white"/>
</clipPath>
</defs>
</svg>
