<svg width="16" height="16" viewBox="0 0 16 16" fill="none" xmlns="http://www.w3.org/2000/svg">
<g clip-path="url(#clip0_31216_24097)">
<path fill-rule="evenodd" clip-rule="evenodd" d="M8.00098 0.666504C12.051 0.666504 15.3338 3.94957 15.334 7.99951C15.334 12.0496 12.0511 15.3335 8.00098 15.3335C3.95089 15.3335 0.667969 12.0496 0.667969 7.99951C0.668145 3.94957 3.951 0.666504 8.00098 0.666504ZM11.1123 5.44482C9.89481 5.44487 8.79757 6.21677 8.00098 6.9292C7.20455 6.21698 6.1077 5.44515 4.89062 5.44482C3.4812 5.44482 2.33496 6.59106 2.33496 8.00049C2.33533 9.40961 3.48142 10.5552 4.89062 10.5552C6.10798 10.5549 7.20451 9.78218 8.00098 9.06982C8.79759 9.78232 9.89466 10.5551 11.1123 10.5552C12.5214 10.555 13.6676 9.4095 13.668 8.00049C13.668 6.59117 12.5216 5.445 11.1123 5.44482ZM5.74512 10.0845C5.6813 10.1043 5.61737 10.1233 5.55273 10.1392L5.33398 10.1841C5.47283 10.1608 5.60982 10.1265 5.74512 10.0845ZM5.90625 10.0288C5.87408 10.0406 5.84198 10.0522 5.80957 10.063C5.84198 10.0522 5.87408 10.0405 5.90625 10.0288ZM4.89062 7.00049C5.3987 7.00078 6.04067 7.29475 6.8584 7.99951C6.04041 8.70461 5.39881 9.0002 4.89062 9.00049C4.33983 9.00049 3.89099 8.55119 3.89062 8.00049C3.89062 7.44947 4.33961 7.00049 4.89062 7.00049ZM11.1123 7.00049C11.6632 7.00067 12.1123 7.44958 12.1123 8.00049C12.1119 8.55109 11.6629 9.00031 11.1123 9.00049C10.6039 9.00045 9.96121 8.7053 9.14258 7.99951C9.96107 7.29391 10.604 7.00053 11.1123 7.00049ZM8.42188 8.99365C8.38692 8.96405 8.35054 8.9365 8.31641 8.90674L8.00098 8.61963C8.13299 8.744 8.27464 8.86893 8.42188 8.99365ZM13.3223 7.77295C13.3301 7.84781 13.335 7.92368 13.335 8.00049C13.3349 8.07695 13.3308 8.15256 13.3232 8.22705C13.3158 8.29984 13.3034 8.37134 13.2891 8.44189C13.3181 8.29892 13.334 8.15091 13.334 7.99951C13.334 7.92302 13.3298 7.84746 13.3223 7.77295ZM9.93555 7.021C9.94949 7.01314 9.96264 7.00409 9.97656 6.99658L10.1289 6.91943C10.0651 6.95014 10.0008 6.9843 9.93555 7.021Z" fill="#EFEFF0"/>
</g>
<defs>
<clipPath id="clip0_31216_24097">
<rect width="16" height="16" fill="white"/>
</clipPath>
</defs>
</svg>
