<svg width="16" height="16" viewBox="0 0 16 16" fill="none" xmlns="http://www.w3.org/2000/svg">
<g clip-path="url(#clip0_31216_23842)">
<path fill-rule="evenodd" clip-rule="evenodd" d="M7.99935 0.666504C3.94926 0.666504 0.666016 3.94975 0.666016 7.99984C0.666016 12.0499 3.94926 15.3332 7.99935 15.3332C12.0494 15.3332 15.3327 12.0499 15.3327 7.99984C15.3327 3.94975 12.0494 0.666504 7.99935 0.666504ZM8.66602 4.6665V3.99984H7.33268V4.6665C6.22812 4.6665 5.33268 5.56194 5.33268 6.6665C5.33268 7.7711 6.22812 8.6665 7.33268 8.6665H8.66602C9.03422 8.6665 9.33268 8.96497 9.33268 9.33317C9.33268 9.70137 9.03422 9.99984 8.66602 9.99984H5.99935V11.3332H7.33268V11.9998H8.66602V11.3332C9.77062 11.3332 10.666 10.4378 10.666 9.33317C10.666 8.22857 9.77062 7.33317 8.66602 7.33317H7.33268C6.96448 7.33317 6.66602 7.0347 6.66602 6.6665C6.66602 6.29831 6.96448 5.99984 7.33268 5.99984H9.99935V4.6665H8.66602Z" fill="#EFEFF0"/>
</g>
<defs>
<clipPath id="clip0_31216_23842">
<rect width="16" height="16" fill="white"/>
</clipPath>
</defs>
</svg>
