<svg width="16" height="16" viewBox="0 0 16 16" fill="none" xmlns="http://www.w3.org/2000/svg">
<path d="M11.3327 6.6665H9.99935V3.99984C9.99935 2.89717 9.10202 1.99984 7.99935 1.99984C6.89668 1.99984 5.99935 2.89717 5.99935 3.99984V6.6665H4.66602V3.99984C4.66602 2.16184 6.16135 0.666504 7.99935 0.666504C9.83735 0.666504 11.3327 2.16184 11.3327 3.99984V6.6665Z" fill="#EFEFF0"/>
<path fill-rule="evenodd" clip-rule="evenodd" d="M14.666 15.3335H1.33203V6.6665H14.666V15.3335ZM8 8.99951C7.26382 8.99951 6.66732 9.59642 6.66699 10.3325C6.66699 10.8256 6.93507 11.2551 7.33301 11.4858V12.9995H8.66699V11.4858C9.06472 11.2551 9.33301 10.8254 9.33301 10.3325C9.33268 9.59653 8.73603 8.99969 8 8.99951Z" fill="#EFEFF0"/>
</svg>
