<svg width="24" height="24" viewBox="0 0 24 24" fill="none"
    xmlns="http://www.w3.org/2000/svg">
    <path d="M11.9981 10.1691C8.51499 10.1691 4.94023 9.52747 2.83203 7.96924V12.0023C2.83203 14.4771 7.59839 15.6687 11.9981 15.6687C16.3978 15.6687 21.1642 14.4771 21.1642 12.0023V7.96924C19.056 9.52747 15.4812 10.1691 11.9981 10.1691Z" fill="currentColor"/>
    <path d="M11.9981 17.502C8.51499 17.502 4.94023 16.8604 2.83203 15.3021V19.3352C2.83203 21.81 7.59839 23.0016 11.9981 23.0016C16.3978 23.0016 21.1642 21.81 21.1642 19.3352V15.3021C19.056 16.8604 15.4812 17.502 11.9981 17.502Z" fill="currentColor"/>
    <path d="M11.9981 1.00159C7.59839 1.00159 2.83203 2.19318 2.83203 4.66802C2.83203 7.14285 7.59839 8.33444 11.9981 8.33444C16.3978 8.33444 21.1642 7.14285 21.1642 4.66802C21.1642 2.19318 16.3978 1.00159 11.9981 1.00159Z" fill="currentColor"/>
</svg>
