<svg width="16" height="16" viewBox="0 0 16 16" fill="none" xmlns="http://www.w3.org/2000/svg">
<path fill-rule="evenodd" clip-rule="evenodd" d="M9.39062 5.66709L12.0001 3.05762L12.9429 4.00042L10.3334 6.6099L9.39062 5.66709Z" fill="#EFEFF0"/>
<path fill-rule="evenodd" clip-rule="evenodd" d="M9.39062 10.3334L12.0001 12.9429L12.9429 12.0001L10.3334 9.39062L9.39062 10.3334Z" fill="#EFEFF0"/>
<path fill-rule="evenodd" clip-rule="evenodd" d="M5.66611 6.6099L3.05664 4.00042L3.99945 3.05762L6.60893 5.66709L5.66611 6.6099Z" fill="#EFEFF0"/>
<path fill-rule="evenodd" clip-rule="evenodd" d="M5.66611 9.39062L3.05664 12.0001L3.99945 12.9429L6.60893 10.3334L5.66611 9.39062Z" fill="#EFEFF0"/>
<path d="M14.6673 6.66685L9.33398 1.3335L14.6673 1.33356V6.66685Z" fill="#EFEFF0"/>
<path d="M1.334 6.66685L6.66733 1.3335L1.33398 1.33356L1.334 6.66685Z" fill="#EFEFF0"/>
<path d="M14.6673 9.3335L9.33398 14.6668L14.6673 14.6668V9.3335Z" fill="#EFEFF0"/>
<path d="M1.334 9.3335L6.66733 14.6668L1.33398 14.6668L1.334 9.3335Z" fill="#EFEFF0"/>
</svg>
