<svg xmlns="http://www.w3.org/2000/svg" width="16" height="16" viewBox="0 0 16 16" fill="none">
  <g clip-path="url(#a)" fill="currentColor">
    <path d="M11.777 9.367a3.08 3.08 0 0 0-2.683 1.586 3.048 3.048 0 0 0-2.19.002A3.08 3.08 0 0 0 4.22 9.368a3.095 3.095 0 0 0-3.091 3.091A3.095 3.095 0 0 0 4.22 15.55a3.095 3.095 0 0 0 3.091-3.09c0-.063-.014-.121-.018-.182.446-.21.964-.21 1.41-.002-.003.062-.018.12-.018.183a3.095 3.095 0 0 0 3.092 3.091 3.095 3.095 0 0 0 3.09-3.09 3.095 3.095 0 0 0-3.09-3.092ZM4.22 14.176a1.72 1.72 0 0 1-1.717-1.718c0-.946.77-1.717 1.717-1.717.947 0 1.718.77 1.718 1.717a1.72 1.72 0 0 1-1.718 1.718Zm7.557 0a1.72 1.72 0 0 1-1.718-1.718c0-.946.77-1.717 1.718-1.717.947 0 1.717.77 1.717 1.717a1.72 1.72 0 0 1-1.717 1.718ZM2.506 5.258.446 8.006h15.112l-2.06-2.748H2.505ZM12.682 3.88l-.356-1.778a2.066 2.066 0 0 0-2.02-1.657H5.689c-.98 0-1.83.698-2.02 1.657L3.311 3.88h9.37Z"/>
  </g>
  <defs>
    <clipPath id="a">
      <path fill="currentColor" d="M0 0h16v16H0z"/>
    </clipPath>
  </defs>
</svg>