<svg width="16" height="16" viewBox="0 0 16 16" fill="none" xmlns="http://www.w3.org/2000/svg">
<g clip-path="url(#clip0_31216_23867)">
<path d="M10.9993 5.33366C12.288 5.33366 13.3327 4.28899 13.3327 3.00033C13.3327 1.71166 12.288 0.666992 10.9993 0.666992C9.71068 0.666992 8.66602 1.71166 8.66602 3.00033C8.66602 4.28899 9.71068 5.33366 10.9993 5.33366Z" fill="#EFEFF0"/>
<path d="M4.99935 9.00016C6.28801 9.00016 7.33268 7.95549 7.33268 6.66683C7.33268 5.37816 6.28801 4.3335 4.99935 4.3335C3.71068 4.3335 2.66602 5.37816 2.66602 6.66683C2.66602 7.95549 3.71068 9.00016 4.99935 9.00016Z" fill="#EFEFF0"/>
<path d="M11.0005 6.3335C10.1332 6.3335 9.3265 6.59216 8.6485 7.03283C8.5605 7.9115 8.16117 8.6995 7.5625 9.2855C8.5945 9.8115 9.4345 10.6495 9.98317 11.6668H15.2592L15.3145 11.0608C15.3265 10.9308 15.3345 10.7995 15.3345 10.6668C15.3345 8.2775 13.3898 6.3335 11.0005 6.3335Z" fill="#EFEFF0"/>
<path d="M4.99935 10.0005C2.61002 10.0005 0.666016 11.9445 0.666016 14.3338C0.666016 14.4672 0.674016 14.5978 0.686016 14.7278L0.741349 15.3338H9.25735L9.31268 14.7278C9.32468 14.5978 9.33268 14.4665 9.33268 14.3338C9.33268 11.9445 7.38868 10.0005 4.99935 10.0005Z" fill="#EFEFF0"/>
</g>
<defs>
<clipPath id="clip0_31216_23867">
<rect width="16" height="16" fill="white"/>
</clipPath>
</defs>
</svg>
