<svg width="16" height="16" viewBox="0 0 16 16" fill="none" xmlns="http://www.w3.org/2000/svg">
<path d="M13.3327 4.50879L13.9205 3.33301H15.9993V4.66634H14.7448L13.3327 7.49054L11.3327 3.49056L10.7448 4.66634H8.66602V3.33301H9.92055L11.3327 0.508789L13.3327 4.50879Z" fill="#EFEFF0"/>
<path fill-rule="evenodd" clip-rule="evenodd" d="M1.33398 7.95373C1.33398 4.64621 3.72508 1.89847 6.87278 1.34326L7.57145 2.3234C7.14298 3.0951 6.89878 3.98337 6.89878 4.93071C6.89878 7.9018 9.30678 10.3101 12.277 10.3101C12.5986 10.3101 12.9131 10.2819 13.2182 10.2281L13.9169 11.2083C12.7727 13.2692 10.5727 14.6665 8.04558 14.6665C4.33874 14.6665 1.33398 11.6609 1.33398 7.95373Z" fill="#EFEFF0"/>
</svg>
