<svg width="16" height="16" viewBox="0 0 16 16" fill="none" xmlns="http://www.w3.org/2000/svg">
<path d="M14.6666 9.99985C14.4898 9.99985 14.3202 9.92962 14.1952 9.80459C14.0702 9.67957 14 9.51 14 9.33319C14 9.15638 14.0702 8.98681 14.1952 8.86178C14.3202 8.73676 14.4898 8.66652 14.6666 8.66652H15.966C15.8292 7.01086 15.1779 5.43946 14.1033 4.17252L13.1853 5.09052C13.1238 5.15419 13.0502 5.20498 12.9689 5.23992C12.8876 5.27486 12.8001 5.29325 12.7116 5.29402C12.623 5.29479 12.5353 5.27792 12.4533 5.2444C12.3714 5.21088 12.297 5.16138 12.2344 5.09878C12.1718 5.03619 12.1223 4.96175 12.0887 4.87982C12.0552 4.79789 12.0384 4.71011 12.0391 4.62159C12.0399 4.53307 12.0583 4.44559 12.0932 4.36425C12.1282 4.28291 12.179 4.20935 12.2426 4.14785L13.1606 3.22985C11.8937 2.15525 10.3223 1.50394 8.66663 1.36719V2.66652C8.66663 2.84333 8.59639 3.0129 8.47137 3.13793C8.34634 3.26295 8.17677 3.33319 7.99996 3.33319C7.82315 3.33319 7.65358 3.26295 7.52856 3.13793C7.40354 3.0129 7.3333 2.84333 7.3333 2.66652V1.36719C5.45086 1.52676 3.68554 2.34704 2.34968 3.6829C1.01382 5.01876 0.193535 6.78408 0.0339635 8.66652H1.3333C1.51011 8.66652 1.67968 8.73676 1.8047 8.86178C1.92973 8.98681 1.99996 9.15638 1.99996 9.33319C1.99996 9.51 1.92973 9.67957 1.8047 9.80459C1.67968 9.92962 1.51011 9.99985 1.3333 9.99985H0.0292969C0.165737 11.6234 0.793617 13.1668 1.8293 14.4245L2.0293 14.6665H13.9706L14.1706 14.4245C15.2063 13.1668 15.8342 11.6234 15.9706 9.99985H14.6666ZM8.94263 10.2759C8.69259 10.5258 8.35352 10.6662 7.99996 10.6662C7.64641 10.6662 7.30733 10.5258 7.0573 10.2759C6.6573 9.87585 4.02263 5.96385 3.72396 5.51919C3.68078 5.45505 3.66124 5.3779 3.66868 5.30094C3.67613 5.22397 3.71009 5.152 3.76477 5.09732C3.81944 5.04265 3.89142 5.00868 3.96838 5.00124C4.04534 4.9938 4.12249 5.01334 4.18663 5.05652C4.6313 5.35519 8.54196 7.98985 8.9433 8.38985C9.06712 8.51372 9.16533 8.66076 9.23231 8.82259C9.2993 8.98441 9.33374 9.15785 9.33368 9.33299C9.33362 9.50813 9.29905 9.68155 9.23195 9.84332C9.16486 10.0051 9.06654 10.1521 8.94263 10.2759Z" fill="#EFEFF0"/>
</svg>
