<svg width="24" height="24" viewBox="0 0 24 24" fill="none"
    xmlns="http://www.w3.org/2000/svg">
    <path d="M5.33333 5.33069V2.83069H2.83333C2.37333 2.83069 2 3.20402 2 3.66402V5.33069H5.33333Z" fill="currentColor"/>
    <path d="M22 5.33069V3.66402C22 3.20402 21.6267 2.83069 21.1667 2.83069H7V5.33069H22Z" fill="currentColor"/>
    <path d="M2 6.99731V20.3306C2 20.7906 2.37333 21.164 2.83333 21.164H21.1667C21.6267 21.164 22 20.7906 22 20.3306V6.99731H2ZM9.25583 14.2531L6.16667 17.3423L4.98833 16.164L7.48833 13.664L4.98833 11.164L6.16667 9.98565L9.25583 13.0748C9.58167 13.4006 9.58167 13.9273 9.25583 14.2531ZM16.1667 16.9973H11.1667V15.3306H16.1667V16.9973Z" fill="currentColor"/>
</svg>
