<svg width="186" height="42" viewBox="0 0 186 42" fill="none" xmlns="http://www.w3.org/2000/svg">
<g clip-path="url(#clip0_19849_12459)">
<path fill-rule="evenodd" clip-rule="evenodd" d="M34.0798 0.879029L20.3766 0.875C19.3383 0.875 18.3941 1.44113 17.9552 2.32654C15.124 8.03811 4.70022 29.0633 0.496625 37.5417C0.110399 38.3212 0.17381 39.2314 0.664075 39.9565C1.15505 40.6816 2.00518 41.121 2.91802 41.121H8.65366C10.6411 41.121 12.5381 40.3402 13.8869 38.9665C14.7371 38.1007 15.7078 37.1124 16.5271 36.2783C16.8059 35.9945 17.0672 35.7285 17.3003 35.4912C17.9744 34.8044 18.9228 34.414 19.9162 34.414C21.1954 34.414 24.1993 34.4148 27.187 34.4157C30.1428 34.4165 33.0827 34.4173 34.3213 34.4173C35.3147 34.4173 36.2632 34.8077 36.9379 35.4946C37.8551 36.429 39.2111 37.8101 40.3512 38.9705C41.7002 40.3436 43.5964 41.125 45.5838 41.125H51.5383C52.4511 41.125 53.3013 40.6856 53.7922 39.9606C54.2825 39.2355 54.3459 38.3245 53.9597 37.5458C49.7561 29.0673 39.3323 8.04213 36.5011 2.33056C36.0622 1.44515 35.118 0.879029 34.0798 0.879029ZM42.2973 33.3689C40.1867 28.581 32.2918 12.1942 28.8486 5.06796C28.56 4.4683 27.9258 4.08327 27.226 4.08327C26.527 4.08327 25.892 4.4683 25.6034 5.06796C22.1616 12.1935 14.2696 28.577 12.1589 33.3649C12.0848 33.5373 12.1069 33.7332 12.2167 33.8874C12.3271 34.0417 12.5117 34.1336 12.7091 34.1336H15.3977C16.4922 34.1336 17.5255 33.6607 18.201 32.8497L22.1174 28.1511C22.793 27.3407 23.8262 26.8672 24.9208 26.8672C25.4684 26.8672 26.3483 26.8682 27.2282 26.8692C28.108 26.8702 28.9879 26.8713 29.5355 26.8713C30.63 26.8713 31.6633 27.3441 32.3389 28.1544C33.442 29.4785 35.1522 31.5303 36.2553 32.8538C36.9308 33.6641 37.9641 34.1376 39.0586 34.1376H41.7473C41.9446 34.1376 42.1292 34.045 42.2396 33.8908C42.3494 33.7372 42.3715 33.5413 42.2973 33.3689ZM90.043 11.0537C90.3922 10.7267 90.805 10.5781 91.3131 10.5781C91.7894 10.5781 92.2341 10.7267 92.5833 11.0537C92.9327 11.3807 93.0916 11.7671 93.0916 12.2428C93.0916 12.7184 92.9327 13.1048 92.5833 13.4318C92.2341 13.7588 91.8213 13.9074 91.3131 13.9074C90.805 13.9074 90.3922 13.7588 90.043 13.4318C89.6937 13.1048 89.535 12.7184 89.535 12.2428C89.535 11.7671 89.6937 11.3807 90.043 11.0537ZM73.9616 17.7718C75.2318 16.9098 76.883 16.4639 78.8836 16.4639C81.0112 16.4639 82.6943 16.9692 83.8693 17.9799C85.0124 18.9608 85.6158 20.3877 85.6158 22.2009V32.4563H83.2661L83.0437 29.989C81.71 31.7428 79.8365 32.6346 77.3914 32.6346C75.5178 32.6346 74.0251 32.2184 72.9137 31.3861C71.7705 30.5538 71.1991 29.4539 71.1991 28.0271C71.1991 26.4517 71.7707 25.2031 72.9456 24.3709C74.0888 23.5386 75.74 23.0927 77.9629 23.0927H82.9166V22.0225C82.9166 21.0119 82.5675 20.2093 81.8371 19.6148C81.075 19.0203 80.0586 18.7527 78.7248 18.7527C77.5817 18.7527 76.5972 18.9905 75.8669 19.4661C75.1047 19.9418 74.5967 20.5957 74.4379 21.3983H71.7387C71.961 19.8526 72.6596 18.6338 73.9616 17.7718ZM81.5196 29.2162C82.4722 28.4135 82.9486 27.3435 82.9486 26.0058V25.2626H77.7406C75.2319 25.2626 73.9616 26.1247 73.9616 27.8785C73.9616 28.6514 74.2793 29.2756 74.9462 29.7512C75.613 30.2269 76.502 30.4646 77.6134 30.4646C79.2647 30.4646 80.5669 30.0485 81.5196 29.2162ZM87.2889 18.9895H89.9565V32.4254H92.6557V16.6709H87.2889V18.9895ZM115.865 16.4922C117.421 16.4922 118.85 16.7895 120.057 17.4434C121.264 18.0677 122.216 19.0189 122.915 20.2079C123.613 21.4267 123.931 22.8832 123.931 24.5478C123.931 26.1233 123.613 27.5205 122.915 28.7392C122.216 29.958 121.232 30.9091 120.025 31.5928C118.818 32.2766 117.421 32.6035 115.865 32.6035C114.531 32.6035 113.325 32.3657 112.372 31.8901C111.419 31.4442 110.657 30.82 110.086 30.0173V38.6081H107.387V16.6705H109.736L110.086 19.1972C111.515 17.384 113.42 16.4922 115.865 16.4922ZM115.611 30.3444C117.294 30.3444 118.659 29.7796 119.676 28.7094C120.692 27.6394 121.2 26.2423 121.2 24.4884C121.2 22.794 120.692 21.3672 119.676 20.2971C118.659 19.227 117.294 18.6919 115.611 18.6919C114.531 18.6919 113.579 18.9297 112.753 19.4053C111.896 19.9107 111.261 20.5944 110.784 21.4564C110.308 22.3482 110.086 23.3589 110.086 24.4586C110.086 25.618 110.308 26.5989 110.784 27.4907C111.229 28.3825 111.896 29.0958 112.753 29.6012C113.579 30.1065 114.531 30.3444 115.611 30.3444ZM96.3788 19.7326V32.4254H99.0781V18.9895H104.921V16.6709H99.6495C97.8395 16.6709 96.3788 18.0085 96.3788 19.7326ZM127.09 10.7852H129.789V32.4254H127.09V10.7852ZM140.513 16.4639C138.512 16.4639 136.861 16.9098 135.591 17.7718C134.289 18.6338 133.59 19.8526 133.368 21.3983H136.067C136.226 20.5957 136.734 19.9418 137.496 19.4661C138.226 18.9905 139.211 18.7527 140.354 18.7527C141.688 18.7527 142.704 19.0203 143.466 19.6148C144.196 20.2093 144.546 21.0119 144.546 22.0225V23.0927H139.592C137.369 23.0927 135.718 23.5386 134.575 24.3709C133.4 25.2031 132.828 26.4517 132.828 28.0271C132.828 29.4539 133.4 30.5538 134.543 31.3861C135.654 32.2184 137.147 32.6346 139.02 32.6346C141.465 32.6346 143.339 31.7428 144.673 29.989L144.895 32.4563H147.245V22.2009C147.245 20.3877 146.642 18.9608 145.498 17.9799C144.324 16.9692 142.64 16.4639 140.513 16.4639ZM144.577 26.0058C144.577 27.3435 144.101 28.4135 143.148 29.2162C142.196 30.0485 140.894 30.4646 139.243 30.4646C138.131 30.4646 137.242 30.2269 136.575 29.7512C135.908 29.2756 135.591 28.6514 135.591 27.8785C135.591 26.1247 136.861 25.2626 139.369 25.2626H144.577V26.0058ZM153.414 18.7825C154.716 17.2368 156.558 16.4639 158.971 16.4639C161.035 16.4639 162.686 17.0584 163.893 18.2177C165.1 19.3473 165.735 21.1902 165.735 23.6575V32.4265H163.036V23.806C163.036 22.1712 162.654 20.9227 161.892 20.0607C161.098 19.2283 159.987 18.7825 158.495 18.7825C156.939 18.7825 155.669 19.3175 154.779 20.3282C153.89 21.3389 153.414 22.7657 153.414 24.5195V32.3968H150.715V16.6422H153.064L153.414 18.7825ZM184.565 25.0235C184.576 24.8591 184.586 24.7105 184.595 24.5775C184.614 24.3018 184.629 24.0937 184.629 23.9534C184.597 22.4373 184.248 21.0997 183.549 19.9701C182.85 18.8405 181.93 17.9487 180.755 17.384C179.579 16.7894 178.214 16.4922 176.658 16.4922C175.102 16.4922 173.705 16.8192 172.498 17.4731C171.291 18.1568 170.339 19.1081 169.704 20.3268C169.005 21.5456 168.687 22.9427 168.687 24.5478C168.687 26.1233 169.037 27.5502 169.735 28.7392C170.434 29.9877 171.387 30.9388 172.625 31.5928C173.895 32.2766 175.324 32.6035 177.007 32.6035C178.913 32.6035 180.532 32.0684 181.866 31.0577C183.199 30.0471 184.025 28.7392 184.343 27.134H181.612C181.326 28.1446 180.755 28.9176 179.929 29.4824C179.072 30.0768 178.055 30.3444 176.817 30.3444C175.261 30.3444 173.99 29.8688 173.006 28.9473C172.053 28.0258 171.514 26.7772 171.482 25.2316V25.0235H184.565ZM173.292 19.8809C174.245 19.1081 175.356 18.6919 176.658 18.6919C178.087 18.6919 179.262 19.0486 180.215 19.7917C181.135 20.5349 181.675 21.5753 181.802 22.913H171.641C171.768 21.6644 172.339 20.6538 173.292 19.8809Z" fill="white"/>
</g>
<defs>
<clipPath id="clip0_19849_12459">
<rect width="185" height="42" fill="white" transform="translate(0.245972)"/>
</clipPath>
</defs>
</svg>
