<svg width="242" height="42" viewBox="0 0 242 42" fill="none" xmlns="http://www.w3.org/2000/svg">
<g clip-path="url(#clip0_19849_12443)">
<path fill-rule="evenodd" clip-rule="evenodd" d="M53.7673 31.4783L53.3728 32.7801C53.3305 32.9131 53.244 33.0294 53.1264 33.1117C53.0087 33.1939 52.8661 33.2376 52.7201 33.2362H1.28661C1.15603 33.2357 1.03005 33.1903 0.931821 33.1085C0.833593 33.0266 0.769725 32.9137 0.75196 32.7906C0.506419 31.2308 0.611959 29.639 1.06159 28.1209C1.51122 26.6028 2.29468 25.1929 3.36006 23.9847C4.42545 22.7764 5.74846 21.7974 7.24144 21.1124C8.73443 20.4274 10.3633 20.0521 12.0202 20.0113C11.6029 18.4418 11.7063 16.7878 12.3161 15.2764C12.926 13.765 14.0125 12.4703 15.4264 11.5699C16.8404 10.6695 18.5125 10.2077 20.2133 10.2477C21.9141 10.2878 23.5602 10.8278 24.9256 11.7936C26.2119 8.19657 28.6981 5.09811 32.0058 2.96997C35.3134 0.841823 39.2613 -0.199407 43.2482 0.00481843C47.2352 0.209044 51.0428 1.64753 54.0913 4.10126C57.1398 6.55499 59.2621 9.88952 60.1352 13.5971C60.148 13.6596 60.1554 13.723 60.1573 13.7866C60.1589 13.9065 60.1364 14.0256 60.091 14.1375L58.4907 18.1236C57.226 21.2675 53.5977 23.843 50.2792 23.9869L22.1602 24.3378C22.016 24.3474 21.878 24.397 21.7633 24.4806C21.6486 24.5642 21.5622 24.678 21.5149 24.8079C21.4834 24.8855 21.472 24.9692 21.4818 25.0518C21.4916 25.1345 21.5223 25.2136 21.5712 25.2825C21.6201 25.3515 21.6858 25.4081 21.7626 25.4477C21.8395 25.4872 21.9253 25.5085 22.0127 25.5097L49.8625 25.8466C51.3337 25.9132 52.5358 26.4817 53.2732 27.4501C54.0623 28.5028 54.2356 29.9309 53.7673 31.4783ZM61.8894 14.4606C62.1598 14.4466 62.4179 14.4396 62.6638 14.4396H62.6711C65.0219 14.4423 67.3401 14.9624 69.4446 15.9592C71.549 16.956 73.3828 18.4025 74.8023 20.1855C76.2219 21.9686 77.1889 24.0399 77.6276 26.2376C78.0664 28.4353 77.9651 30.6998 77.3317 32.8541C77.2999 32.9736 77.2264 33.0794 77.1233 33.154C77.0201 33.2286 76.8934 33.2676 76.7638 33.2646H55.5142C55.462 33.2618 55.4113 33.2474 55.3662 33.2224C55.321 33.1974 55.2827 33.1627 55.2543 33.121C55.2259 33.0793 55.2083 33.0318 55.2028 32.9823C55.1973 32.9329 55.2042 32.883 55.2229 32.8366L55.669 31.7277C56.9338 28.5873 60.5436 26.0153 63.8953 25.8679L70.0641 25.5171C70.2082 25.5075 70.3462 25.4578 70.4609 25.3742C70.5756 25.2906 70.662 25.1768 70.7093 25.0469C70.7401 24.9678 70.7505 24.8829 70.7396 24.7992C70.7287 24.7156 70.6968 24.6357 70.6467 24.5662C70.5994 24.5011 70.5367 24.4476 70.4637 24.4098C70.3907 24.372 70.3094 24.351 70.2263 24.3486L64.2861 23.9977C63.627 23.9971 62.9769 23.8521 62.3861 23.5741C61.7953 23.296 61.2797 22.8923 60.8791 22.3942C60.0864 21.3415 59.9131 19.9134 60.385 18.366L61.4912 14.7659C61.51 14.7008 61.5455 14.6411 61.5944 14.5921C61.6432 14.5432 61.7041 14.5064 61.7714 14.4852C61.8088 14.47 61.8488 14.4617 61.8894 14.4606ZM101.299 20.9347H104.813V30.0788H110.959V33.0087H101.299V20.9347ZM114.603 26.987V27.0186C114.603 30.4749 117.516 33.2644 121.417 33.2644C125.318 33.2644 128.268 30.4538 128.268 26.987V26.952C128.268 23.4852 125.355 20.7062 121.454 20.7062C117.553 20.7062 114.603 23.5203 114.603 26.987ZM124.681 26.987V27.0186C124.681 28.7625 123.375 30.2468 121.454 30.2468C119.533 30.2468 118.209 28.7415 118.209 26.987V26.952C118.209 25.208 119.478 23.7273 121.417 23.7273C123.357 23.7273 124.681 25.2326 124.681 26.987ZM132.568 27.7208V20.9347H136.141V27.6436C136.141 29.3981 137.063 30.2156 138.479 30.2156C139.895 30.2156 140.817 29.4226 140.817 27.7314V20.9347H144.386V27.6261C144.386 31.5244 142.048 33.2403 138.442 33.2403C134.836 33.2403 132.568 31.4858 132.568 27.7208ZM154.66 20.9347H149.767V33.0052H154.59C159.155 33.0052 161.821 30.4192 161.821 26.9349V26.8998C161.821 23.419 159.192 20.9347 154.66 20.9347ZM158.215 27.0015C158.215 28.9524 156.817 30.0577 154.716 30.0577L153.274 30.0437V23.9137H154.716C156.817 23.9137 158.215 25.0366 158.215 26.9699V27.0015ZM166.928 20.9347H177.075V23.8681H170.445V25.9208H176.444V28.6963H170.445V33.0087H166.928V20.9347ZM185.484 20.9347H181.971V33.0087H191.631V30.0788H185.484V20.9347ZM200.868 20.8497H204.257L209.644 33.0079H205.876L204.95 30.8535H200.053L199.15 33.0079H195.463L200.868 20.8497ZM203.947 28.2464L202.535 24.8148L201.089 28.2464H203.947ZM220.157 20.9347H214.158V33.0087H217.676V29.3525H219.217L221.776 33.0087H225.832L222.805 28.7981C223.594 28.5187 224.27 28.0102 224.739 27.3446C225.207 26.6789 225.444 25.8899 225.415 25.0892V25.0541C225.442 24.5376 225.356 24.0214 225.163 23.5382C224.969 23.0549 224.672 22.6153 224.291 22.247C223.439 21.4189 222.1 20.9347 220.157 20.9347ZM221.883 25.2997C221.883 26.1769 221.193 26.7313 219.995 26.7313H217.676V23.833H219.977C221.145 23.833 221.883 24.3137 221.883 25.2646V25.2997ZM230.49 20.9347H240.696V23.7804H233.971V25.6085H240.062V28.2472H233.971V30.163H240.785V33.0087H230.49V20.9347ZM92.4315 29.7486C92.949 29.4262 93.3538 28.9642 93.5942 28.4218L97.3073 28.4358C96.6177 31.2008 93.9998 33.264 90.6518 33.264C86.7359 33.264 83.8377 30.485 83.8377 27.0182V26.9831C83.8377 23.5094 86.7728 20.7023 90.6886 20.7023C94.1288 20.7023 96.78 22.8392 97.3552 25.7129H93.6679C93.4446 25.1232 93.0346 24.6139 92.4944 24.2551C91.9542 23.8962 91.3105 23.7056 90.6518 23.7094C88.7307 23.7094 87.4438 25.1831 87.4438 26.9375V26.9726C87.4438 28.713 88.7639 30.2323 90.6886 30.2323C91.3072 30.2395 91.914 30.0711 92.4315 29.7486Z" fill="white"/>
</g>
<defs>
<clipPath id="clip0_19849_12443">
<rect width="241" height="42" fill="white" transform="translate(0.622986)"/>
</clipPath>
</defs>
</svg>
