<svg width="161" height="42" viewBox="0 0 161 42" fill="none" xmlns="http://www.w3.org/2000/svg">
<path d="M67.9907 23.4412L76.2102 12.7312H71.1643L63.5477 22.4647V12.7312H59.1682V34.7812H63.5477V24.4493L71.4816 34.7812H76.5276L67.9907 23.4412ZM93.7699 32.8282C95.3884 31.2217 96.2135 29.2372 96.2135 26.9062C96.2135 24.5753 95.3884 22.6222 93.7699 21.0157C92.1514 19.4092 90.152 18.5903 87.8036 18.5903C85.4552 18.5903 83.4558 19.4092 81.8373 21.0157C80.2188 22.6222 79.4254 24.5753 79.4254 26.9062C79.4254 29.2372 80.2188 31.2217 81.8373 32.8282C83.4558 34.4347 85.4552 35.2223 87.8036 35.2223C90.152 35.2223 92.1514 34.4347 93.7699 32.8282ZM84.7253 30.0247C83.9319 29.2057 83.5193 28.1663 83.5193 26.9062C83.5193 25.6462 83.9319 24.6068 84.7253 23.7878C85.5504 22.9688 86.5659 22.5592 87.8036 22.5592C89.0413 22.5592 90.0568 22.9688 90.882 23.7878C91.7071 24.6068 92.1196 25.6462 92.1196 26.9062C92.1196 28.1663 91.7071 29.2057 90.882 30.0247C90.0568 30.8438 89.0413 31.2533 87.8036 31.2533C86.5659 31.2533 85.5504 30.8438 84.7253 30.0247ZM108.47 29.6152L104.345 19.0312H99.87L106.376 34.2772C105.614 36.4193 104.408 37.3327 102.218 37.3013V41.0812C106.281 41.3018 108.946 39.3172 110.597 34.7812L116.372 19.0312H111.993L108.47 29.6152ZM136.297 28.5757C136.393 27.9772 136.456 27.4417 136.456 26.9062C136.456 24.5438 135.695 22.5907 134.171 20.9842C132.68 19.3778 130.744 18.5903 128.428 18.5903C125.984 18.5903 123.953 19.3778 122.398 20.9842C120.843 22.5592 120.049 24.5438 120.049 26.9062C120.049 29.3002 120.843 31.2847 122.43 32.8597C124.016 34.4347 126.111 35.2223 128.745 35.2223C131.792 35.2223 134.108 34.0882 135.663 31.8517L132.363 29.9617C131.569 31.0012 130.363 31.5368 128.808 31.5368C126.365 31.5368 124.873 30.5602 124.334 28.5757H136.297ZM124.27 25.4257C124.746 23.4097 126.238 22.2442 128.428 22.2442C130.3 22.2442 131.887 23.2838 132.363 25.4257H124.27ZM151.724 18.5903C149.502 18.5903 147.788 19.3463 146.582 20.8898V12.7312H142.489V34.7812H146.582V32.9227C147.788 34.4663 149.502 35.2223 151.724 35.2223C153.85 35.2223 155.691 34.4347 157.182 32.8282C158.705 31.2217 159.467 29.2372 159.467 26.9062C159.467 24.5753 158.705 22.6222 157.182 21.0157C155.691 19.4092 153.85 18.5903 151.724 18.5903ZM147.82 30.1192C146.995 29.2687 146.582 28.1978 146.582 26.9062C146.582 25.6147 146.995 24.5438 147.82 23.7248C148.645 22.8743 149.693 22.4647 150.962 22.4647C152.231 22.4647 153.279 22.8743 154.104 23.7248C154.961 24.5438 155.373 25.6147 155.373 26.9062C155.373 28.1978 154.961 29.2687 154.104 30.1192C153.279 30.9382 152.231 31.3478 150.962 31.3478C149.693 31.3478 148.645 30.9382 147.82 30.1192ZM22.9166 10.2083L44.2925 22.4249V12.2302L22.903 0L1.56824 12.2438V22.452L22.9166 10.2083Z" fill="white"/>
<path d="M40.8734 34.7104L44.2925 32.7145V26.4563L22.903 14.2125L1.56824 26.4563V32.7416L4.9873 34.7104L22.903 24.4208L40.8734 34.7104Z" fill="white"/>
<path d="M22.9172 38.8913L28.346 42L37.2634 36.9089L22.9034 28.6831L8.59827 36.9089L17.5145 42L22.9172 38.8913Z" fill="white"/>
</svg>
