<svg width="127" height="36" viewBox="0 0 127 36" fill="none" xmlns="http://www.w3.org/2000/svg">
<path fill-rule="evenodd" clip-rule="evenodd" d="M0 6.72285C0 5.4772 1.01581 4.46741 2.26886 4.46741H11.3443C12.5974 4.46741 13.6132 5.4772 13.6132 6.72285V8.97828C13.6132 9.6011 13.1053 10.106 12.4787 10.106H1.13443C0.507902 10.106 0 9.6011 0 8.97828V6.72285ZM13.6132 27.0218C13.6132 26.399 14.121 25.8941 14.7476 25.8941H26.0919C26.7185 25.8941 27.2263 26.399 27.2263 27.0218V29.2772C27.2263 30.5229 26.2106 31.5327 24.9575 31.5327H15.882C14.6289 31.5327 13.6132 30.5229 13.6132 29.2772V27.0218ZM1.13443 12.9253C0.507902 12.9253 0 13.4302 0 14.0531V20.8194C0 22.0651 1.0158 23.0748 2.26886 23.0748H26.0919C26.7185 23.0748 27.2264 22.5699 27.2264 21.9471V15.1808C27.2264 13.9351 26.2106 12.9253 24.9575 12.9253H1.13443ZM42.3422 21.0912H44.9645L49.8845 29.2773H55.847L50.3963 20.5325C53.3933 19.5084 55.1414 17.212 55.1414 13.8915C55.1414 9.23656 51.8636 6.7229 46.5878 6.7229H37.1289V29.2773H42.3422V21.0912ZM42.3422 16.8707V11.0985H46.3068C48.7731 11.0985 50.0217 12.1537 50.0217 13.9846C50.0217 15.7845 48.7731 16.8707 46.3068 16.8707H42.3422ZM72.2611 24.5668C71.0436 27.7011 68.0466 29.3458 64.7688 29.3458C59.8052 29.3458 56.4337 25.9012 56.4337 20.8118C56.4337 15.9706 59.93 12.3088 64.6751 12.3088C69.6699 12.3088 72.3858 15.9706 72.3858 20.5946V21.8979H61.2412C61.5846 24.1324 62.927 25.4046 64.8312 25.4046C66.3921 25.4046 67.6095 24.6599 68.0778 23.2323L72.2611 24.5668ZM67.4536 18.8567C67.4222 17.3982 66.4546 16.1569 64.6127 16.1569C63.083 16.1569 61.8968 17.0568 61.3973 18.8567H67.4536ZM75.2165 24.7664C75.2165 28.118 76.9959 29.2973 80.5547 29.2973C81.741 29.2973 82.6776 29.2041 83.5517 29.0799V25.0146C82.9897 25.0768 82.7088 25.1078 82.1156 25.1078C80.8669 25.1078 80.1489 24.8596 80.1489 23.3565V16.7465H83.3644V12.6502H80.1489V8.11938H75.2165V12.6502H73.125V16.7465H75.2165V24.7664ZM93.1478 12.2402C97.9865 12.2402 101.389 15.6849 101.389 20.7743C101.389 25.8637 97.9865 29.2773 93.1478 29.2773C88.2778 29.2773 84.9062 25.8637 84.9062 20.7743C84.9062 15.6849 88.2778 12.2402 93.1478 12.2402ZM93.1478 16.3056C91.1498 16.3056 89.8699 17.9192 89.8699 20.7743C89.8699 23.6293 91.1498 25.243 93.1478 25.243C95.1456 25.243 96.4256 23.6293 96.4256 20.7743C96.4256 17.9192 95.1456 16.3056 93.1478 16.3056ZM119.377 20.7743C119.377 15.6849 115.975 12.2402 111.136 12.2402C106.266 12.2402 102.895 15.6849 102.895 20.7743C102.895 25.8637 106.266 29.2773 111.136 29.2773C115.975 29.2773 119.377 25.8637 119.377 20.7743ZM107.858 20.7743C107.858 17.9192 109.138 16.3056 111.136 16.3056C113.134 16.3056 114.414 17.9192 114.414 20.7743C114.414 23.6293 113.134 25.243 111.136 25.243C109.138 25.243 107.858 23.6293 107.858 20.7743ZM121.758 6.7229H126.752V29.2773H121.758V6.7229Z" fill="#94979E"/>
</svg>
