<svg width="148" height="42" viewBox="0 0 148 42" fill="none" xmlns="http://www.w3.org/2000/svg">
<path d="M73.6665 13.1251C67.9566 13.1251 63.8396 16.6689 63.8396 21.9845C63.8396 27.3001 68.4738 30.8439 74.1837 30.8439C77.6335 30.8439 80.6747 29.5445 82.5573 27.3543L78.6007 25.1788C77.5559 26.2665 75.9681 26.9015 74.1837 26.9015C71.7063 26.9015 69.6013 25.671 68.8203 23.7022H83.3125C83.4262 23.151 83.4935 22.58 83.4935 21.9796C83.4935 16.6689 79.3765 13.1251 73.6665 13.1251ZM68.7738 20.2618C69.4203 18.298 71.1891 17.0626 73.6614 17.0626C76.1388 17.0626 77.9076 18.298 78.549 20.2618H68.7738ZM129.359 13.1251C123.649 13.1251 119.533 16.6689 119.533 21.9845C119.533 27.3001 124.167 30.8439 129.877 30.8439C133.326 30.8439 136.368 29.5445 138.25 27.3543L134.294 25.1788C133.249 26.2665 131.661 26.9015 129.877 26.9015C127.399 26.9015 125.294 25.671 124.513 23.7022H139.005C139.119 23.151 139.186 22.58 139.186 21.9796C139.186 16.6689 135.069 13.1251 129.359 13.1251ZM124.472 20.2618C125.118 18.298 126.887 17.0626 129.359 17.0626C131.837 17.0626 133.606 18.298 134.247 20.2618H124.472ZM104.285 21.9845C104.285 24.9376 106.313 26.9064 109.457 26.9064C111.588 26.9064 113.186 25.986 114.009 24.4848L117.981 26.6652C116.336 29.2738 113.254 30.8439 109.457 30.8439C103.742 30.8439 99.6304 27.3001 99.6304 21.9845C99.6304 16.6689 103.747 13.1251 109.457 13.1251C113.254 13.1251 116.331 14.6952 117.981 17.3038L114.009 19.4842C113.186 17.983 111.588 17.0626 109.457 17.0626C106.318 17.0626 104.285 19.0314 104.285 21.9845ZM146.944 7.71106V30.3517H142.29V7.71106H146.944ZM19.8304 5.25012L38.9412 36.7501H0.719604L19.8304 5.25012ZM67.61 7.71106L53.2782 31.3361L38.9464 7.71106H44.3202L53.2782 22.4767L62.2363 7.71106H67.61ZM98.0787 13.6173V18.3866C97.5615 18.2439 97.0133 18.1454 96.4237 18.1454C93.4187 18.1454 91.2516 20.1142 91.2516 23.0673V30.3517H86.5967V13.6173H91.2516V18.1454C91.2516 15.6451 94.3083 13.6173 98.0787 13.6173Z" fill="white"/>
</svg>
