<svg width="199" height="42" viewBox="0 0 199 42" fill="none" xmlns="http://www.w3.org/2000/svg">
<g clip-path="url(#clip0_19849_12471)">
<path fill-rule="evenodd" clip-rule="evenodd" d="M17.0883 5.18499C14.8695 5.82276 12.8075 6.8772 11.0241 8.28604C10.277 7.0739 9.08833 6.16489 7.68354 5.73138C9.9012 3.83298 12.5087 2.39308 15.341 1.5026C18.1734 0.612168 21.1692 0.290566 24.1389 0.558218C27.1085 0.825818 29.9876 1.67677 32.594 3.05733C33.2534 3.40665 33.8918 3.78796 34.5068 4.19929C34.5278 4.19061 34.5489 4.18209 34.5702 4.17373C35.3684 3.85916 36.2467 3.77687 37.0941 3.93728C37.9415 4.09775 38.7198 4.49369 39.3307 5.07504C39.9416 5.65639 40.3575 6.39707 40.5261 7.20342C40.6945 8.00976 40.6079 8.84557 40.2772 9.60505C39.9465 10.3646 39.3865 11.0137 38.6681 11.4703C37.9497 11.9271 37.1051 12.1707 36.2411 12.1706C35.6674 12.1706 35.0995 12.0631 34.5695 11.8542C34.0396 11.6453 33.5581 11.3391 33.1525 10.9532C32.7469 10.5671 32.4252 10.1089 32.2057 9.60464C31.9863 9.10034 31.8734 8.55985 31.8735 8.01402C31.8735 7.80084 31.8907 7.58888 31.9246 7.37995C31.4673 7.08104 30.9943 6.80266 30.5072 6.54599C28.4795 5.47754 26.2473 4.80656 23.9425 4.57284C21.6377 4.33907 19.3071 4.54723 17.0883 5.18499ZM10.2046 11.1731C10.2046 11.9557 9.9724 12.7215 9.53595 13.3829L10.4314 14.8569C9.5627 15.8399 8.37115 16.5155 7.04922 16.7745L6.16385 15.3174C5.77158 15.3454 5.37504 15.3231 4.98508 15.2493C4.13785 15.089 3.35961 14.6932 2.74876 14.112C2.13791 13.5309 1.7219 12.7903 1.55332 11.9842C1.3847 11.1781 1.47112 10.3424 1.80163 9.58298C2.13208 8.82355 2.6918 8.17444 3.41 7.71768C4.1282 7.26096 4.97257 7.01713 5.83636 7.01698C6.40999 7.01692 6.97796 7.12437 7.50795 7.33319C8.03795 7.54201 8.5195 7.84817 8.9251 8.23409C9.33075 8.62001 9.65252 9.07821 9.87207 9.58246C10.0916 10.0868 10.2046 10.6272 10.2046 11.1731ZM7.04922 16.7745L14.5799 29.1689L16.8505 32.9113L19.1217 29.1689L21.9529 24.503L24.7764 29.1521L27.0458 32.8934L29.3163 29.1515L33.1252 22.8718H39.3457C39.4197 22.2506 39.4568 21.6259 39.4569 21.0006C39.457 20.3754 39.4197 19.7507 39.3451 19.1294H30.854L30.4593 19.7799L27.0446 25.4074L24.2211 20.7577L21.9505 17.0153L19.6834 20.7583L16.8505 25.4242L10.4314 14.8569C9.5627 15.8399 8.37115 16.5155 7.04922 16.7745ZM39.4569 21.0006C39.4568 21.6259 39.4197 22.2506 39.3457 22.8718L43.522 22.8715V19.1291L39.3451 19.1294C39.4197 19.7507 39.457 20.3754 39.4569 21.0006ZM43.5234 19.1294H43.5869C43.6452 19.7457 43.6769 20.3698 43.6769 21.0006C43.6769 32.3398 34.0193 41.5335 22.1011 41.5335C10.1829 41.5335 0.522362 32.3409 0.522362 21.0017C0.519234 18.9919 0.827681 16.9927 1.43767 15.0685C2.43697 16.0923 3.7965 16.7315 5.25825 16.8647C4.93767 18.1852 4.74239 19.7199 4.74239 21.0006C4.74239 30.1204 12.5117 37.5173 22.1017 37.5173C31.0252 37.5173 38.3705 31.1123 39.347 22.8718H43.5234V19.1294Z" fill="white"/>
<path d="M65.8059 27.7202L62.3739 13.6486H65.1703L66.6321 20.4022L67.543 24.7164H67.6066L68.6658 20.4022L70.3606 13.6486H73.4536L75.1484 20.4022L76.1865 24.7164H76.2501L77.1822 20.4022L78.6863 13.6486H81.3556L77.8177 27.7202H74.6612L72.7757 20.2812L71.8648 16.5718H71.8224L70.8691 20.2812L68.9836 27.7202H65.8059Z" fill="white"/>
<path d="M90.0062 25.9663H89.9003C89.8014 26.2351 89.6673 26.4905 89.4978 26.7324C89.3424 26.9609 89.1376 27.1692 88.8834 27.3574C88.6433 27.5455 88.3467 27.6934 87.9936 27.8009C87.6547 27.9084 87.2592 27.9622 86.8073 27.9622C85.6633 27.9622 84.7877 27.606 84.1803 26.8937C83.573 26.1814 83.2694 25.1666 83.2694 23.8495V17.1967H85.9811V23.5874C85.9811 24.3132 86.1294 24.871 86.426 25.2607C86.7225 25.637 87.1957 25.8252 87.8453 25.8252C88.1137 25.8252 88.375 25.7916 88.6292 25.7244C88.8975 25.6572 89.1306 25.5564 89.3283 25.422C89.526 25.2742 89.6884 25.0994 89.8155 24.8978C89.9427 24.6828 90.0062 24.4342 90.0062 24.1519V17.1967H92.7179V27.7202H90.0062V25.9663Z" fill="white"/>
<path d="M95.851 27.7202V17.1967H98.5626V18.9506H98.6685C98.8945 18.3862 99.2476 17.9158 99.7278 17.5394C100.222 17.1497 100.9 16.9548 101.762 16.9548C102.906 16.9548 103.781 17.311 104.388 18.0233C104.996 18.7356 105.299 19.7503 105.299 21.0674V27.7202H102.588V21.3295C102.588 20.5769 102.447 20.0124 102.164 19.6361C101.882 19.2598 101.416 19.0716 100.766 19.0716C100.483 19.0716 100.208 19.1119 99.9396 19.1926C99.6854 19.2598 99.4524 19.3673 99.2405 19.5151C99.0428 19.6495 98.8804 19.8242 98.7533 20.0393C98.6262 20.2409 98.5626 20.4828 98.5626 20.765V27.7202H95.851Z" fill="white"/>
<path d="M115.169 25.9663H115.063C114.866 26.5711 114.491 27.055 113.941 27.4178C113.39 27.7807 112.747 27.9622 112.013 27.9622C110.615 27.9622 109.541 27.485 108.793 26.5308C108.058 25.5765 107.691 24.2124 107.691 22.4383C107.691 20.6777 108.058 19.327 108.793 18.3862C109.541 17.4319 110.615 16.9548 112.013 16.9548C112.747 16.9548 113.39 17.1362 113.941 17.4991C114.491 17.8486 114.866 18.3257 115.063 18.9305H115.169V12.8018H117.881V27.7202H115.169V25.9663ZM112.881 25.8252C113.531 25.8252 114.075 25.6773 114.513 25.3817C114.95 25.086 115.169 24.6626 115.169 24.1116V20.765C115.169 20.2543 114.95 19.8444 114.513 19.5353C114.075 19.2262 113.531 19.0716 112.881 19.0716C112.175 19.0716 111.603 19.3001 111.165 19.757C110.742 20.2006 110.53 20.7986 110.53 21.5513V23.3657C110.53 24.1183 110.742 24.7164 111.165 25.1599C111.603 25.6034 112.175 25.8252 112.881 25.8252Z" fill="white"/>
<path d="M125.478 27.9622C124.659 27.9622 123.925 27.8345 123.275 27.5791C122.639 27.3103 122.096 26.9407 121.644 26.4703C121.206 25.9865 120.867 25.4086 120.627 24.7365C120.387 24.0511 120.267 23.285 120.267 22.4383C120.267 21.605 120.38 20.8524 120.606 20.1804C120.846 19.5084 121.185 18.9372 121.622 18.4668C122.06 17.983 122.597 17.6134 123.233 17.358C123.868 17.0892 124.588 16.9548 125.393 16.9548C126.255 16.9548 127.003 17.0959 127.639 17.3782C128.275 17.6604 128.797 18.0434 129.207 18.5273C129.616 19.0111 129.92 19.5756 130.118 20.2207C130.329 20.8524 130.435 21.5311 130.435 22.2569V23.1036H123.084V23.3657C123.084 24.1318 123.31 24.75 123.762 25.2204C124.214 25.6774 124.885 25.9058 125.775 25.9058C126.453 25.9058 127.003 25.7714 127.427 25.5026C127.865 25.2338 128.253 24.8911 128.592 24.4745L130.054 26.0268C129.602 26.6316 128.981 27.1087 128.19 27.4581C127.413 27.7941 126.509 27.9622 125.478 27.9622ZM125.436 18.8902C124.715 18.8902 124.143 19.1186 123.72 19.5756C123.296 20.0326 123.084 20.6239 123.084 21.3497V21.511H127.618V21.3295C127.618 20.6038 127.427 20.0191 127.046 19.5756C126.679 19.1186 126.142 18.8902 125.436 18.8902Z" fill="white"/>
<path d="M132.821 27.7202V17.1967H135.533V19.374H135.639C135.709 19.0918 135.815 18.823 135.957 18.5676C136.112 18.2988 136.31 18.0636 136.55 17.862C136.79 17.6604 137.072 17.4991 137.397 17.3782C137.736 17.2572 138.125 17.1967 138.562 17.1967H139.156V19.6361H138.308C137.39 19.6361 136.698 19.7638 136.232 20.0191C135.766 20.2745 135.533 20.6911 135.533 21.269V27.7202H132.821Z" fill="white"/>
<path d="M150.942 25.5429H150.857C150.73 26.2284 150.327 26.8063 149.649 27.2767C148.986 27.7337 148.096 27.9622 146.98 27.9622C146.104 27.9622 145.292 27.8076 144.544 27.4985C143.809 27.1894 143.167 26.7324 142.616 26.1276C142.079 25.5094 141.656 24.75 141.345 23.8495C141.034 22.949 140.879 21.9074 140.879 20.7247C140.879 19.542 141.034 18.5004 141.345 17.5999C141.67 16.686 142.122 15.9199 142.701 15.3017C143.28 14.6834 143.972 14.213 144.777 13.8905C145.582 13.5679 146.479 13.4066 147.467 13.4066C148.795 13.4066 149.925 13.6822 150.857 14.2332C151.789 14.7842 152.523 15.5772 153.06 16.6121L150.793 17.8822C150.525 17.2774 150.122 16.7733 149.586 16.3702C149.063 15.967 148.357 15.7654 147.467 15.7654C146.366 15.7654 145.483 16.0879 144.819 16.733C144.17 17.3647 143.845 18.3055 143.845 19.5554V21.8134C143.845 23.0498 144.177 23.9906 144.84 24.6357C145.504 25.2809 146.394 25.6034 147.51 25.6034C147.947 25.6034 148.357 25.5564 148.738 25.4623C149.12 25.3548 149.452 25.2002 149.734 24.9986C150.017 24.797 150.243 24.5484 150.412 24.2527C150.581 23.957 150.666 23.6076 150.666 23.2044V22.2972H147.764V20.0594H153.357V27.7202H150.942V25.5429Z" fill="white"/>
<path d="M156.427 27.7202V17.1967H159.138V19.374H159.244C159.315 19.0918 159.421 18.823 159.562 18.5676C159.717 18.2988 159.915 18.0636 160.155 17.862C160.395 17.6604 160.678 17.4991 161.003 17.3782C161.342 17.2572 161.73 17.1967 162.168 17.1967H162.761V19.6361H161.914C160.996 19.6361 160.304 19.7638 159.837 20.0191C159.371 20.2745 159.138 20.6911 159.138 21.269V27.7202H156.427Z" fill="white"/>
<path d="M172.651 27.7202C172.058 27.7202 171.585 27.5589 171.232 27.2364C170.893 26.9004 170.681 26.4569 170.596 25.9058H170.469C170.285 26.5913 169.911 27.1087 169.346 27.4581C168.781 27.7941 168.082 27.9622 167.249 27.9622C166.119 27.9622 165.25 27.6799 164.643 27.1154C164.036 26.551 163.732 25.7983 163.732 24.8575C163.732 23.7689 164.142 22.9625 164.961 22.4383C165.78 21.9007 166.945 21.6319 168.456 21.6319H170.342V20.8658C170.342 20.2745 170.179 19.8175 169.855 19.4949C169.53 19.1724 169.007 19.0111 168.287 19.0111C167.651 19.0111 167.136 19.1455 166.74 19.4143C166.359 19.6697 166.034 19.9788 165.766 20.3417L164.156 18.9708C164.565 18.366 165.109 17.8822 165.787 17.5193C166.465 17.143 167.362 16.9548 168.477 16.9548C169.975 16.9548 171.111 17.2774 171.888 17.9225C172.665 18.5676 173.053 19.495 173.053 20.7046V25.6639H174.155V27.7202H172.651ZM168.16 26.0873C168.767 26.0873 169.283 25.9596 169.706 25.7042C170.13 25.4489 170.342 25.0726 170.342 24.5753V23.1842H168.605C167.192 23.1842 166.486 23.6143 166.486 24.4745V24.8172C166.486 25.2473 166.627 25.5698 166.91 25.7849C167.206 25.9865 167.623 26.0873 168.16 26.0873Z" fill="white"/>
<path d="M176.35 17.1967H179.061V18.9305H179.146C179.344 18.3257 179.718 17.8486 180.269 17.4991C180.82 17.1362 181.462 16.9548 182.197 16.9548C183.609 16.9548 184.682 17.4319 185.417 18.3862C186.165 19.327 186.54 20.6777 186.54 22.4383C186.54 24.2124 186.165 25.5765 185.417 26.5308C184.682 27.485 183.609 27.9622 182.197 27.9622C181.462 27.9622 180.82 27.7807 180.269 27.4178C179.732 27.055 179.358 26.5711 179.146 25.9663H179.061V31.7522H176.35V17.1967ZM181.328 25.8252C182.034 25.8252 182.606 25.6034 183.044 25.1599C183.482 24.7164 183.701 24.1183 183.701 23.3657V21.5513C183.701 20.7986 183.482 20.2006 183.044 19.757C182.606 19.3001 182.034 19.0716 181.328 19.0716C180.678 19.0716 180.135 19.2262 179.697 19.5353C179.273 19.8444 179.061 20.2543 179.061 20.765V24.1116C179.061 24.6626 179.273 25.086 179.697 25.3817C180.135 25.6773 180.678 25.8252 181.328 25.8252Z" fill="white"/>
<path d="M189.052 12.8018H191.764V18.9506H191.87C192.096 18.3862 192.449 17.9158 192.929 17.5394C193.424 17.1497 194.101 16.9548 194.963 16.9548C196.107 16.9548 196.983 17.311 197.59 18.0233C198.197 18.7356 198.501 19.7503 198.501 21.0674V27.7202H195.789V21.3295C195.789 20.5769 195.648 20.0124 195.366 19.6361C195.083 19.2598 194.617 19.0716 193.967 19.0716C193.685 19.0716 193.409 19.1119 193.141 19.1926C192.887 19.2598 192.654 19.3673 192.442 19.5151C192.244 19.6495 192.082 19.8242 191.955 20.0393C191.828 20.2409 191.764 20.4828 191.764 20.765V27.7202H189.052V12.8018Z" fill="white"/>
</g>
<defs>
<clipPath id="clip0_19849_12471">
<rect width="198.943" height="42" fill="white" transform="translate(0.0574951)"/>
</clipPath>
</defs>
</svg>
