<svg width="182" height="42" viewBox="0 0 182 42" xmlns="http://www.w3.org/2000/svg"
  fill="url(#gradient)">
  <defs>
    <linearGradient id="gradient" gradientTransform="rotate(90)">
      <stop offset="5%" stop-color="#E4E5E7" />
      <stop offset="95%" stop-color="rgba(228, 229, 231, 0.7)" />
    </linearGradient>
  </defs>
  <g clip-path="url(#clip0_18361_7450)">
    <path fill-rule="evenodd" clip-rule="evenodd"
      d="M33.3216 0.879029L19.8211 0.875C18.7982 0.875 17.868 1.44113 17.4355 2.32654C14.6463 8.03811 4.37665 29.0633 0.235228 37.5417C-0.145286 38.3212 -0.0828133 39.2314 0.4002 39.9565C0.883913 40.6816 1.72147 41.121 2.6208 41.121H8.27161C10.2297 41.121 12.0986 40.3402 13.4275 38.9664C14.2548 38.1113 15.198 37.1367 15.9988 36.3091C16.2847 36.0137 16.5524 35.737 16.7903 35.4912C17.4545 34.8044 18.3889 34.414 19.3676 34.414C20.6278 34.414 23.5873 34.4148 26.5308 34.4157C29.4429 34.4165 32.3394 34.4173 33.5596 34.4173C34.5383 34.4173 35.4727 34.8077 36.1375 35.4946C37.0411 36.429 38.3771 37.8101 39.5004 38.9705C40.8294 40.3436 42.6976 41.125 44.6556 41.125H50.5219C51.4213 41.125 52.2588 40.6856 52.7425 39.9606C53.2255 39.2355 53.288 38.3245 52.9075 37.5458C48.7661 29.0673 38.4965 8.04213 35.7072 2.33056C35.2747 1.44515 34.3445 0.879029 33.3216 0.879029ZM41.4177 33.3689C39.3382 28.581 31.5601 12.1942 28.1678 5.06796C27.8835 4.4683 27.2587 4.08327 26.5693 4.08327C25.8806 4.08327 25.255 4.4683 24.9707 5.06796C21.5798 12.1935 13.8045 28.577 11.725 33.3649C11.652 33.5373 11.6738 33.7332 11.7819 33.8874C11.8907 34.0417 12.0726 34.1336 12.267 34.1336H14.9159C15.9943 34.1336 17.0122 33.6607 17.6778 32.8497L21.5362 28.1511C22.2018 27.3407 23.2197 26.8672 24.2981 26.8672C24.8376 26.8672 25.7045 26.8682 26.5714 26.8692L26.5791 26.8692C27.4434 26.8702 28.3067 26.8713 28.8446 26.8713C29.9229 26.8713 30.941 27.3441 31.6065 28.1544C32.6933 29.4784 34.3782 31.5303 35.465 32.8538C36.1305 33.6641 37.1485 34.1376 38.2269 34.1376H40.8757C41.0702 34.1376 41.252 34.045 41.3608 33.8908C41.4689 33.7372 41.4907 33.5413 41.4177 33.3689ZM88.4536 11.0532C88.7976 10.7263 89.2043 10.5776 89.7049 10.5776C90.1742 10.5776 90.6123 10.7263 90.9563 11.0532C91.3005 11.3802 91.4571 11.7667 91.4571 12.2423C91.4571 12.7179 91.3005 13.1043 90.9563 13.4313C90.6123 13.7583 90.2056 13.9069 89.7049 13.9069C89.2043 13.9069 88.7976 13.7583 88.4536 13.4313C88.1094 13.1043 87.9531 12.7179 87.9531 12.2423C87.9531 11.7667 88.1094 11.3802 88.4536 11.0532ZM72.6044 17.7713C73.8558 16.9093 75.4827 16.4634 77.4537 16.4634C79.5498 16.4634 81.208 16.9687 82.3656 17.9794C83.4918 18.9603 84.0863 20.3872 84.0863 22.2004V32.4558H81.7713L81.5523 29.9885C80.2383 31.7423 78.3925 32.6342 75.9835 32.6342C74.1377 32.6342 72.667 32.2179 71.5721 31.3856C70.4458 30.5533 69.8828 29.4534 69.8828 28.0267C69.8828 26.4512 70.446 25.2027 71.6035 24.3704C72.7298 23.5381 74.3566 23.0922 76.5466 23.0922H81.427V22.022C81.427 21.0114 81.0831 20.2088 80.3635 19.6143C79.6126 19.0198 78.6112 18.7522 77.2972 18.7522C76.171 18.7522 75.2011 18.9901 74.4816 19.4657C73.7307 19.9413 73.2301 20.5952 73.0737 21.3978H70.4144C70.6334 19.8521 71.3217 18.6334 72.6044 17.7713ZM80.0506 29.2157C80.9891 28.4131 81.4585 27.343 81.4585 26.0053V25.2621H76.3275C73.856 25.2621 72.6044 26.1243 72.6044 27.878C72.6044 28.6509 72.9175 29.2751 73.5744 29.7507C74.2314 30.2264 75.1073 30.4641 76.2023 30.4641C77.8291 30.4641 79.1121 30.048 80.0506 29.2157ZM85.75 18.9895H88.3781V32.4254H91.0374V16.6709H85.75V18.9895ZM113.904 16.4927C115.437 16.4927 116.845 16.79 118.034 17.4439C119.222 18.0682 120.161 19.0194 120.849 20.2084C121.538 21.4272 121.851 22.8837 121.851 24.5483C121.851 26.1238 121.538 27.521 120.849 28.7397C120.161 29.9584 119.191 30.9096 118.002 31.5933C116.814 32.277 115.437 32.604 113.904 32.604C112.59 32.604 111.401 32.3662 110.462 31.8906C109.524 31.4447 108.773 30.8205 108.21 30.0178V38.6086H105.551V16.671H107.866L108.21 19.1977C109.618 17.3844 111.495 16.4927 113.904 16.4927ZM113.654 30.3449C115.312 30.3449 116.657 29.7801 117.658 28.7099C118.659 27.6398 119.16 26.2427 119.16 24.4889C119.16 22.7945 118.659 21.3677 117.658 20.2976C116.657 19.2275 115.312 18.6924 113.654 18.6924C112.59 18.6924 111.651 18.9302 110.838 19.4058C109.993 19.9111 109.367 20.5948 108.898 21.4569C108.429 22.3487 108.21 23.3594 108.21 24.4591C108.21 25.6185 108.429 26.5994 108.898 27.4912C109.336 28.383 109.993 29.0963 110.838 29.6017C111.651 30.107 112.59 30.3449 113.654 30.3449ZM94.707 19.7326V32.4254H97.3664V18.9895H103.123V16.6709H97.9294C96.1461 16.6709 94.707 18.0085 94.707 19.7326ZM124.949 10.7852H127.608V32.4254H124.949V10.7852ZM138.184 16.4634C136.213 16.4634 134.587 16.9093 133.335 17.7713C132.052 18.6334 131.364 19.8521 131.145 21.3978H133.804C133.961 20.5952 134.461 19.9413 135.212 19.4657C135.932 18.9901 136.902 18.7522 138.028 18.7522C139.342 18.7522 140.343 19.0198 141.094 19.6143C141.813 20.2088 142.158 21.0114 142.158 22.022V23.0922H137.277C135.087 23.0922 133.46 23.5381 132.334 24.3704C131.176 25.2027 130.613 26.4512 130.613 28.0267C130.613 29.4534 131.176 30.5533 132.303 31.3856C133.398 32.2179 134.868 32.6342 136.714 32.6342C139.123 32.6342 140.969 31.7423 142.283 29.9885L142.502 32.4558H144.817V22.2004C144.817 20.3872 144.223 18.9603 143.096 17.9794C141.939 16.9687 140.281 16.4634 138.184 16.4634ZM142.189 26.0053C142.189 27.343 141.72 28.4131 140.781 29.2157C139.843 30.048 138.56 30.4641 136.933 30.4641C135.838 30.4641 134.962 30.2264 134.305 29.7507C133.648 29.2751 133.335 28.6509 133.335 27.878C133.335 26.1243 134.586 25.2621 137.058 25.2621H142.189V26.0053ZM150.89 18.782C152.172 17.2363 153.987 16.4634 156.365 16.4634C158.398 16.4634 160.025 17.0579 161.214 18.2172C162.403 19.3468 163.029 21.1897 163.029 23.657V32.426H160.369V23.8056C160.369 22.1707 159.994 20.9222 159.243 20.0602C158.461 19.2279 157.366 18.782 155.895 18.782C154.362 18.782 153.111 19.317 152.235 20.3277C151.359 21.3384 150.89 22.7652 150.89 24.519V32.3963H148.23V16.6417H150.545L150.89 18.782ZM181.601 24.7617C181.606 24.6974 181.61 24.636 181.614 24.5777C181.633 24.3021 181.647 24.0942 181.647 23.9538C181.616 22.4378 181.272 21.1002 180.583 19.9706C179.895 18.841 178.988 17.9492 177.83 17.3844C176.672 16.7899 175.327 16.4927 173.794 16.4927C172.261 16.4927 170.885 16.8197 169.696 17.4736C168.507 18.1573 167.568 19.1085 166.943 20.3273C166.254 21.5461 165.941 22.9432 165.941 24.5483C165.941 26.1238 166.286 27.5507 166.974 28.7397C167.662 29.9881 168.601 30.9393 169.821 31.5933C171.072 32.277 172.48 32.604 174.138 32.604C176.015 32.604 177.611 32.0689 178.925 31.0582C180.239 30.0476 181.052 28.7397 181.365 27.1345H178.675C178.393 28.1451 177.83 28.9181 177.017 29.4828C176.172 30.0773 175.171 30.3449 173.95 30.3449C172.417 30.3449 171.166 29.8693 170.196 28.9478C169.258 28.0263 168.726 26.7777 168.695 25.2321V25.024H181.585C181.59 24.9316 181.596 24.8442 181.601 24.7617ZM170.478 19.8814C171.416 19.1085 172.511 18.6924 173.794 18.6924C175.202 18.6924 176.36 19.0491 177.298 19.7922C178.205 20.5354 178.737 21.5758 178.862 22.9135H168.851C168.976 21.6649 169.539 20.6543 170.478 19.8814Z" />
  </g>
  <defs>
    <clipPath id="clip0_18361_7450">
      <rect width="182" height="42" />
    </clipPath>
  </defs>
</svg>