<svg width="67" height="42" viewBox="0 0 67 42" xmlns="http://www.w3.org/2000/svg"
  fill="url(#gradient)">
  <defs>
    <linearGradient id="gradient" gradientTransform="rotate(90)">
      <stop offset="5%" stop-color="#E4E5E7" />
      <stop offset="95%" stop-color="rgba(228, 229, 231, 0.7)" />
    </linearGradient>
  </defs>
  <path d="M0.46875 6.125V14.3063H8.93879V6.125H0.46875Z" />
  <path d="M8.93879 17.2813H0.46875V35.875H8.93879V17.2813Z" />
  <path d="M20.4888 35.875H12.0188V6.125H20.4888V35.875Z" />
  <path d="M23.5689 6.125V35.875H32.0389V6.125H23.5689Z" />
  <path fill-rule="evenodd" clip-rule="evenodd"
    d="M50.519 6.125C59.0242 6.125 65.9191 12.7847 65.9191 21V35.875H57.449V34.2874C55.366 35.303 53.0117 35.875 50.519 35.875C42.0138 35.875 35.1189 29.2153 35.1189 21C35.1189 12.7847 42.0138 6.125 50.519 6.125ZM50.519 27.6938C54.3463 27.6938 57.449 24.6968 57.449 21C57.449 17.3032 54.3463 14.3063 50.519 14.3063C46.6916 14.3063 43.589 17.3032 43.589 21C43.589 24.6968 46.6916 27.6938 50.519 27.6938Z" />
</svg>