<svg width="196" height="42" viewBox="0 0 196 42" xmlns="http://www.w3.org/2000/svg"
  fill="url(#gradient)">
  <defs>
      <linearGradient id="gradient" gradientTransform="rotate(90)">
          <stop offset="5%" stop-color="#E4E5E7" />
          <stop offset="95%" stop-color="rgba(228, 229, 231, 0.7)" />
      </linearGradient>
  </defs>
  <g clip-path="url(#clip0_18361_7462)">
    <path fill-rule="evenodd" clip-rule="evenodd"
      d="M16.7897 5.18499C14.6037 5.82276 12.5722 6.8772 10.8152 8.28604C10.0792 7.07391 8.90804 6.1649 7.52403 5.73139C9.70889 3.83298 12.2778 2.39308 15.0683 1.5026C17.8588 0.612168 20.8102 0.290566 23.736 0.558218C26.6617 0.825818 29.4982 1.67677 32.066 3.05733C32.7157 3.40665 33.3446 3.78796 33.9506 4.19929C33.9713 4.19062 33.9921 4.18209 34.013 4.17373C34.7994 3.85916 35.6648 3.77687 36.4996 3.93729C37.3344 4.09775 38.1013 4.49369 38.7031 5.07504C39.3049 5.65639 39.7148 6.39708 39.8808 7.20342C40.0467 8.00976 39.9615 8.84557 39.6356 9.60505C39.3098 10.3646 38.7581 11.0137 38.0503 11.4704C37.3425 11.9271 36.5104 12.1707 35.6592 12.1706C35.094 12.1706 34.5345 12.0631 34.0124 11.8542C33.4903 11.6453 33.0159 11.3391 32.6163 10.9532C32.2167 10.5671 31.8997 10.1089 31.6835 9.60464C31.4673 9.10034 31.3561 8.55985 31.3562 8.01402C31.3562 7.80084 31.3731 7.58888 31.4065 7.37996C30.956 7.08104 30.49 6.80266 30.0101 6.54599C28.0124 5.47754 25.8132 4.80656 23.5425 4.57284C21.2718 4.33907 18.9757 4.54723 16.7897 5.18499ZM10.0078 11.1731C10.0078 11.9557 9.77904 12.7215 9.34904 13.3829L10.2312 14.8569C9.3754 15.8399 8.20147 16.5155 6.89909 16.7745L6.02682 15.3174C5.64035 15.3455 5.24967 15.3231 4.86549 15.2493C4.03079 15.089 3.26406 14.6932 2.66224 14.112C2.06042 13.5309 1.65057 12.7903 1.48449 11.9842C1.31835 11.1781 1.40349 10.3424 1.72911 9.58298C2.05468 8.82355 2.60612 8.17444 3.3137 7.71768C4.02127 7.26097 4.85316 7.01713 5.70417 7.01698C6.26932 7.01693 6.82889 7.12437 7.35104 7.33319C7.8732 7.54202 8.34762 7.84817 8.74722 8.23409C9.14688 8.62002 9.46389 9.07822 9.68019 9.58246C9.89644 10.0868 10.0078 10.6273 10.0078 11.1731ZM6.89909 16.7745L14.3184 29.1689L16.5554 32.9113L18.793 29.1689L21.5823 24.503L24.364 29.1521L26.5999 32.8934L28.8369 29.1516L32.5893 22.8718H38.7179C38.7908 22.2506 38.8273 21.6259 38.8274 21.0006C38.8275 20.3754 38.7908 19.7507 38.7173 19.1294H30.3518L29.9629 19.7799L26.5987 25.4075L23.817 20.7577L21.58 17.0153L19.3464 20.7583L16.5554 25.4242L10.2312 14.8569C9.3754 15.8399 8.20147 16.5155 6.89909 16.7745ZM38.8274 21.0006C38.8273 21.6259 38.7908 22.2506 38.7179 22.8718L42.8324 22.8715V19.1291L38.7173 19.1294C38.7908 19.7507 38.8275 20.3754 38.8274 21.0006ZM42.8338 19.1294H42.8964C42.9537 19.7457 42.985 20.3698 42.985 21.0006C42.985 32.3398 33.4703 41.5335 21.7283 41.5335C9.98647 41.5335 0.468773 32.3409 0.468773 21.0017C0.465691 18.9919 0.769576 16.9927 1.37054 15.0685C2.35506 16.0924 3.69448 16.7315 5.13462 16.8647C4.81877 18.1852 4.62639 19.7199 4.62639 21.0006C4.62639 30.1204 12.2808 37.5173 21.7289 37.5173C30.5204 37.5173 37.7571 31.1123 38.7191 22.8718H42.8338V19.1294Z"
    />
    <path
      d="M64.7867 27.7202L61.4055 13.6486H64.1605L65.6007 20.4022L66.4981 24.7164H66.5608L67.6043 20.4022L69.2741 13.6486H72.3213L73.9911 20.4022L75.0138 24.7164H75.0764L75.9947 20.4022L77.4766 13.6486H80.1064L76.6209 27.7202H73.511L71.6534 20.2812L70.756 16.5718H70.7142L69.775 20.2812L67.9174 27.7202H64.7867Z"
    />
    <path
      d="M88.6291 25.9663H88.5247C88.4273 26.2351 88.2951 26.4905 88.1282 26.7324C87.9751 26.9609 87.7733 27.1692 87.5229 27.3574C87.2863 27.5455 86.9941 27.6934 86.6463 27.8009C86.3123 27.9084 85.9227 27.9622 85.4775 27.9622C84.3504 27.9622 83.4877 27.606 82.8894 26.8937C82.2911 26.1814 81.9919 25.1666 81.9919 23.8495V17.1967H84.6635V23.5874C84.6635 24.3132 84.8096 24.871 85.1018 25.2607C85.394 25.637 85.8601 25.8252 86.5002 25.8252C86.7646 25.8252 87.022 25.7916 87.2724 25.7244C87.5368 25.6572 87.7664 25.5564 87.9612 25.422C88.156 25.2742 88.316 25.0994 88.4412 24.8978C88.5665 24.6828 88.6291 24.4342 88.6291 24.1519V17.1967H91.3007V27.7202H88.6291V25.9663Z"
    />
    <path
      d="M94.3874 27.7202V17.1967H97.0589V18.9506H97.1633C97.3859 18.3862 97.7338 17.9158 98.2069 17.5394C98.6939 17.1497 99.3618 16.9548 100.211 16.9548C101.338 16.9548 102.2 17.311 102.799 18.0233C103.397 18.7356 103.696 19.7503 103.696 21.0674V27.7202H101.025V21.3295C101.025 20.5769 100.885 20.0124 100.607 19.6361C100.329 19.2598 99.8697 19.0716 99.2296 19.0716C98.9513 19.0716 98.68 19.1119 98.4156 19.1926C98.1651 19.2598 97.9356 19.3673 97.7268 19.5151C97.532 19.6495 97.372 19.8242 97.2468 20.0393C97.1216 20.2409 97.0589 20.4828 97.0589 20.765V27.7202H94.3874Z"
    />
    <path
      d="M113.42 25.9663H113.316C113.121 26.5711 112.752 27.055 112.209 27.4178C111.667 27.7807 111.034 27.9622 110.31 27.9622C108.933 27.9622 107.875 27.485 107.138 26.5308C106.414 25.5766 106.052 24.2124 106.052 22.4383C106.052 20.6777 106.414 19.327 107.138 18.3862C107.875 17.4319 108.933 16.9548 110.31 16.9548C111.034 16.9548 111.667 17.1362 112.209 17.4991C112.752 17.8486 113.121 18.3257 113.316 18.9305H113.42V12.8018H116.092V27.7202H113.42V25.9663ZM111.166 25.8252C111.806 25.8252 112.342 25.6774 112.773 25.3817C113.204 25.086 113.42 24.6626 113.42 24.1116V20.765C113.42 20.2543 113.204 19.8444 112.773 19.5353C112.342 19.2262 111.806 19.0716 111.166 19.0716C110.47 19.0716 109.907 19.3001 109.475 19.757C109.058 20.2006 108.849 20.7986 108.849 21.5513V23.3657C108.849 24.1183 109.058 24.7164 109.475 25.1599C109.907 25.6034 110.47 25.8252 111.166 25.8252Z"
    />
    <path
      d="M123.576 27.9622C122.769 27.9622 122.046 27.8345 121.406 27.5791C120.78 27.3103 120.244 26.9407 119.799 26.4703C119.367 25.9865 119.033 25.4086 118.797 24.7366C118.56 24.0511 118.442 23.285 118.442 22.4383C118.442 21.605 118.553 20.8524 118.776 20.1804C119.012 19.5084 119.346 18.9372 119.778 18.4668C120.209 17.983 120.738 17.6134 121.364 17.358C121.99 17.0892 122.7 16.9548 123.493 16.9548C124.342 16.9548 125.079 17.0959 125.705 17.3782C126.331 17.6604 126.846 18.0434 127.25 18.5273C127.653 19.0111 127.952 19.5756 128.147 20.2207C128.356 20.8524 128.46 21.5311 128.46 22.2569V23.1036H121.218V23.3657C121.218 24.1318 121.44 24.75 121.886 25.2204C122.331 25.6774 122.992 25.9058 123.869 25.9058C124.536 25.9058 125.079 25.7714 125.497 25.5026C125.928 25.2338 126.311 24.8911 126.644 24.4745L128.085 26.0268C127.639 26.6316 127.027 27.1087 126.248 27.4582C125.483 27.7942 124.592 27.9622 123.576 27.9622ZM123.535 18.8902C122.825 18.8902 122.261 19.1186 121.844 19.5756C121.427 20.0326 121.218 20.6239 121.218 21.3497V21.511H125.684V21.3295C125.684 20.6038 125.497 20.0191 125.121 19.5756C124.759 19.1186 124.23 18.8902 123.535 18.8902Z"
    />
    <path
      d="M130.811 27.7202V17.1967H133.482V19.374H133.587C133.656 19.0918 133.761 18.823 133.9 18.5676C134.053 18.2988 134.248 18.0636 134.484 17.862C134.721 17.6604 134.999 17.4991 135.319 17.3782C135.653 17.2572 136.036 17.1967 136.467 17.1967H137.051V19.6361H136.217C135.312 19.6361 134.63 19.7638 134.171 20.0191C133.712 20.2745 133.482 20.6911 133.482 21.269V27.7202H130.811Z"
    />
    <path
      d="M148.663 25.543H148.58C148.455 26.2284 148.058 26.8063 147.39 27.2767C146.736 27.7337 145.859 27.9622 144.76 27.9622C143.898 27.9622 143.097 27.8076 142.36 27.4985C141.636 27.1894 141.003 26.7324 140.461 26.1276C139.932 25.5094 139.515 24.75 139.208 23.8495C138.902 22.949 138.749 21.9074 138.749 20.7247C138.749 19.542 138.902 18.5004 139.208 17.5999C139.528 16.686 139.974 15.9199 140.544 15.3017C141.115 14.6834 141.796 14.213 142.59 13.8905C143.383 13.5679 144.266 13.4066 145.24 13.4066C146.548 13.4066 147.661 13.6822 148.58 14.2332C149.498 14.7842 150.222 15.5772 150.75 16.6121L148.517 17.8822C148.253 17.2774 147.856 16.7734 147.327 16.3702C146.813 15.967 146.117 15.7654 145.24 15.7654C144.155 15.7654 143.285 16.0879 142.631 16.733C141.991 17.3647 141.671 18.3055 141.671 19.5554V21.8134C141.671 23.0498 141.998 23.9906 142.652 24.6358C143.306 25.2809 144.183 25.6034 145.282 25.6034C145.713 25.6034 146.117 25.5564 146.493 25.4623C146.868 25.3548 147.195 25.2002 147.474 24.9986C147.752 24.797 147.974 24.5484 148.141 24.2527C148.308 23.957 148.392 23.6076 148.392 23.2044V22.2972H145.532V20.0594H151.043V27.7202H148.663V25.543Z"
    />
    <path
      d="M154.067 27.7202V17.1967H156.739V19.374H156.843C156.913 19.0918 157.017 18.823 157.156 18.5676C157.309 18.2988 157.504 18.0636 157.741 17.862C157.977 17.6604 158.255 17.4991 158.575 17.3782C158.909 17.2572 159.292 17.1967 159.723 17.1967H160.308V19.6361H159.473C158.568 19.6361 157.887 19.7638 157.428 20.0191C156.968 20.2745 156.739 20.6911 156.739 21.269V27.7202H154.067Z"
    />
    <path
      d="M170.051 27.7202C169.467 27.7202 169.001 27.559 168.653 27.2364C168.319 26.9004 168.11 26.4569 168.027 25.9058H167.902C167.721 26.5913 167.352 27.1087 166.795 27.4582C166.239 27.7942 165.55 27.9622 164.729 27.9622C163.616 27.9622 162.76 27.6799 162.162 27.1154C161.564 26.551 161.264 25.7983 161.264 24.8575C161.264 23.7689 161.668 22.9625 162.475 22.4383C163.282 21.9007 164.43 21.6319 165.919 21.6319H167.776V20.8658C167.776 20.2745 167.616 19.8175 167.296 19.495C166.976 19.1724 166.461 19.0111 165.752 19.0111C165.126 19.0111 164.618 19.1455 164.228 19.4143C163.853 19.6697 163.533 19.9788 163.268 20.3417L161.682 18.9708C162.085 18.366 162.621 17.8822 163.289 17.5193C163.957 17.143 164.84 16.9548 165.94 16.9548C167.415 16.9548 168.535 17.2774 169.3 17.9225C170.065 18.5676 170.448 19.495 170.448 20.7046V25.6639H171.533V27.7202H170.051ZM165.627 26.0873C166.225 26.0873 166.733 25.9596 167.15 25.7042C167.568 25.4489 167.776 25.0726 167.776 24.5753V23.1842H166.065C164.673 23.1842 163.978 23.6143 163.978 24.4745V24.8172C163.978 25.2473 164.117 25.5698 164.395 25.7849C164.687 25.9865 165.098 26.0873 165.627 26.0873Z"
    />
    <path
      d="M173.695 17.1967H176.367V18.9305H176.451C176.645 18.3257 177.014 17.8486 177.557 17.4991C178.099 17.1362 178.732 16.9548 179.456 16.9548C180.847 16.9548 181.905 17.4319 182.629 18.3862C183.366 19.327 183.735 20.6777 183.735 22.4383C183.735 24.2124 183.366 25.5766 182.629 26.5308C181.905 27.485 180.847 27.9622 179.456 27.9622C178.732 27.9622 178.099 27.7807 177.557 27.4178C177.028 27.055 176.659 26.5711 176.451 25.9663H176.367V31.7522H173.695V17.1967ZM178.6 25.8252C179.296 25.8252 179.86 25.6034 180.291 25.1599C180.722 24.7164 180.938 24.1183 180.938 23.3657V21.5513C180.938 20.7986 180.722 20.2006 180.291 19.757C179.86 19.3001 179.296 19.0716 178.6 19.0716C177.96 19.0716 177.425 19.2262 176.993 19.5353C176.576 19.8444 176.367 20.2543 176.367 20.765V24.1116C176.367 24.6626 176.576 25.086 176.993 25.3817C177.425 25.6774 177.96 25.8252 178.6 25.8252Z"
    />
    <path
      d="M186.21 12.8018H188.882V18.9506H188.986C189.209 18.3862 189.557 17.9158 190.03 17.5394C190.517 17.1497 191.185 16.9548 192.033 16.9548C193.161 16.9548 194.023 17.311 194.622 18.0233C195.22 18.7356 195.519 19.7503 195.519 21.0674V27.7202H192.847V21.3295C192.847 20.5769 192.708 20.0124 192.43 19.6361C192.152 19.2598 191.693 19.0716 191.053 19.0716C190.774 19.0716 190.503 19.1119 190.239 19.1926C189.988 19.2598 189.758 19.3673 189.55 19.5151C189.355 19.6495 189.195 19.8242 189.07 20.0393C188.944 20.2409 188.882 20.4828 188.882 20.765V27.7202H186.21V12.8018Z" />
  </g>
  <defs>
    <clipPath id="clip0_18361_7462">
      <rect width="196" height="42" />
    </clipPath>
  </defs>
</svg>