<svg width="32" height="32" viewBox="0 0 32 32" fill="none" xmlns="http://www.w3.org/2000/svg">
<rect width="32" height="32" rx="4" fill="url(#paint0_linear_19250_95)"/>
<rect x="0.5" y="0.5" width="31" height="31" rx="3.5" stroke="url(#paint1_linear_19250_95)" stroke-opacity="0.1"/>
<path d="M25 21V9H7V21H14" stroke="#C9CBCF" stroke-linecap="round" stroke-linejoin="round"/>
<path d="M13 12L11.5 12.5M11.5 12.5L10 12M11.5 12.5V17.5M11.5 17.5L13 18M11.5 17.5L10 18" stroke="#C9CBCF" stroke-linecap="round" stroke-linejoin="round"/>
<path d="M19.3008 22C20.9576 22 22.3008 20.6569 22.3008 19C22.3008 17.3431 20.9576 16 19.3008 16C17.6439 16 16.3008 17.3431 16.3008 19C16.3008 20.6569 17.6439 22 19.3008 22Z" stroke="#C9CBCF" stroke-linecap="round" stroke-linejoin="round"/>
<path d="M24.3008 24L21.8008 21.5" stroke="#C9CBCF" stroke-linecap="round" stroke-linejoin="round"/>
<defs>
<linearGradient id="paint0_linear_19250_95" x1="16" y1="0" x2="16" y2="32" gradientUnits="userSpaceOnUse">
<stop offset="0.3125" stop-color="#242628"/>
<stop offset="1" stop-color="#1D1E20"/>
</linearGradient>
<linearGradient id="paint1_linear_19250_95" x1="16" y1="0" x2="16" y2="32" gradientUnits="userSpaceOnUse">
<stop stop-color="white"/>
<stop offset="1" stop-color="white" stop-opacity="0.05"/>
</linearGradient>
</defs>
</svg>
