<svg width="241" height="52" viewBox="0 0 241 52" fill="none" xmlns="http://www.w3.org/2000/svg">
<path fill-rule="evenodd" clip-rule="evenodd" d="M43.6117 8.26796C44.8383 8.74179 45.3778 10.1159 44.8873 11.253C44.4949 12.1533 43.6117 12.6746 42.6798 12.6746C42.3855 12.6746 42.0421 12.6271 41.7478 12.485C35.8122 10.0685 29.484 8.88393 23.0578 8.88393C21.7333 8.88393 20.7031 7.84153 20.7031 6.60957C20.7031 5.37762 21.7823 4.33521 23.0578 4.33521C30.1707 4.28783 37.0875 5.61453 43.6117 8.26796ZM43.6007 17.4606C44.8269 17.9344 45.3665 19.3085 44.876 20.4457C44.4836 21.346 43.6007 21.8672 42.6684 21.8672C42.3741 21.8672 42.0308 21.8198 41.7365 21.6777C35.8008 19.2611 29.5218 18.0766 23.0465 18.0766C16.5222 18.0766 10.2431 19.2611 4.35653 21.6303C3.13016 22.1041 1.75662 21.5829 1.26607 20.3983C0.775519 19.2138 1.31512 17.887 2.54149 17.4132C9.01676 14.8072 15.8845 13.4805 23.0465 13.4805C30.1595 13.4805 37.0761 14.8072 43.6007 17.4606ZM36.2423 26.5592C36.5366 25.3272 35.7027 24.1427 34.4274 23.8584C30.65 23.0529 26.8237 22.6738 23.0465 22.6738C15.8845 22.6738 9.01677 24.0005 2.5415 26.6066C1.31512 27.0804 0.775519 28.4071 1.26607 29.5917C1.65851 30.4919 2.5415 31.0132 3.47355 31.0132C3.81693 31.0132 4.11125 30.9184 4.40558 30.8236C10.2922 28.4071 16.5713 27.2226 23.0956 27.2226C26.4804 27.2226 29.9633 27.6016 33.4461 28.3123C34.7217 28.5966 35.948 27.7911 36.2423 26.5592ZM23.0956 31.8164C24.42 31.8164 25.4502 32.8588 25.4502 34.0909C25.4502 35.3227 24.371 36.365 23.0956 36.365C16.5713 36.365 10.2922 37.5497 4.40558 39.9663L4.40552 39.9663C4.11121 40.0611 3.81691 40.1558 3.47355 40.1558C2.5415 40.1558 1.65851 39.6346 1.26607 38.7342C0.775519 37.5497 1.31512 36.2229 2.5415 35.7491C9.06582 33.1431 15.9335 31.8164 23.0956 31.8164ZM66.2373 38.9782V40.7188H61.4531V14.7832H66.3115V25.0284C67.1274 23.7747 69.1301 22.6283 71.8374 22.6283C77.1782 22.6283 80.2564 26.6046 80.2564 31.8347C80.2564 37.1724 76.8441 41.1486 71.652 41.1486C69.1301 41.1486 68.0916 40.9037 66.2373 38.9782ZM70.799 36.8858C73.3209 36.8858 75.8179 35.1721 75.8179 31.9482C75.8179 28.7241 73.3209 26.8912 70.799 26.8912C68.3142 26.8912 65.7737 28.7241 65.7737 31.9482C65.7737 35.1363 68.3142 36.8858 70.799 36.8858ZM95.6589 40.7185H100.369C100.295 40.1095 100.183 38.8915 100.183 37.5303V23.0938H95.2509V33.3391C95.2509 35.381 93.99 36.8139 91.8019 36.8139C89.5022 36.8139 88.4638 35.2377 88.4638 33.2675V23.0938H83.5312V34.2347C83.5312 38.0676 86.0531 41.1842 90.4664 41.1842C92.3952 41.1842 94.5092 40.4677 95.5105 38.8199C95.5105 39.5363 95.5847 40.3603 95.6589 40.7185ZM113.423 26.9262C111.272 26.9262 110.011 28.5382 110.011 30.5801V40.7179H105.078V23.0932H110.011V24.1581C111.374 22.7896 113.574 22.9065 114.822 22.9728C114.97 22.9806 115.105 22.9878 115.223 22.9916C118.314 23.0931 121.73 25.744 121.73 29.6128V40.7179H116.798V30.4368C116.798 28.4665 115.796 26.9262 113.423 26.9262ZM165.883 35.8072C166.105 37.8132 167.997 41.2522 173.486 41.2522C178.27 41.2522 180.569 38.3147 180.569 35.449C180.569 32.8696 178.752 30.7561 175.155 30.0397L172.559 29.5023C171.557 29.3232 170.89 28.7859 170.89 27.9261C170.89 26.9231 171.928 26.1708 173.226 26.1708C175.303 26.1708 176.082 27.4963 176.23 28.5351L180.347 27.6395C180.124 25.7409 178.381 22.5527 173.189 22.5527C169.258 22.5527 166.365 25.1678 166.365 28.3202C166.365 30.7919 167.96 32.8338 171.483 33.5862L173.894 34.1235C175.303 34.4101 175.859 35.0549 175.859 35.843C175.859 36.7744 175.081 37.5983 173.449 37.5983C171.297 37.5983 170.222 36.3087 170.111 34.9116L165.883 35.8072ZM192.532 26.927C190.455 26.927 189.231 28.4316 189.12 30.366V40.7188H184.188V14.7832H189.12V24.5628C190.307 23.2015 192.309 22.6283 194.053 22.6283C198.689 22.6283 200.84 25.7449 200.84 29.6137V40.7188H195.907V30.4377C195.907 28.4674 194.906 26.927 192.532 26.927ZM209.087 29.8983C209.198 28.2863 210.607 26.4235 213.166 26.4235C215.985 26.4235 217.172 28.143 217.246 29.8983H209.087ZM217.728 34.4837C217.135 36.0599 215.874 37.1704 213.574 37.1704C211.127 37.1704 209.087 35.4867 208.976 33.1582H222.03C222.03 33.1407 222.034 33.0851 222.041 33.0012L222.041 32.9994C222.062 32.7377 222.104 32.2033 222.104 31.6894C222.104 26.0295 218.729 22.5547 213.092 22.5547C208.419 22.5547 204.117 26.2086 204.117 31.8327C204.117 37.7794 208.531 41.2541 213.537 41.2541C218.025 41.2541 220.917 38.7107 221.845 35.6658L217.728 34.4837ZM230.534 14.7832V40.7188H225.602V14.7832H230.534ZM240.37 40.7188V14.7832H235.438V40.7188H240.37ZM170.106 14.7832L153.612 47.6683H148.383L164.652 14.7832H170.106ZM149.713 22.6289H144.188L147.662 30.4979L149.399 34.4326L150.268 36.3996L153.357 30.3666L152.143 27.7874L150.928 25.2081L149.713 22.6289ZM134.673 26.9262C132.522 26.9262 131.261 28.5382 131.261 30.58V40.7179H126.328V23.0931H131.261V24.158C132.624 22.7896 134.824 22.9065 136.072 22.9728C136.22 22.9806 136.355 22.9877 136.473 22.9916C139.564 23.0931 142.98 25.744 142.98 29.6128V40.7179H138.048V30.4368C138.048 28.4665 137.046 26.9262 134.673 26.9262Z" fill="url(#paint0_linear_24539_7825)"/>
<defs>
<linearGradient id="paint0_linear_24539_7825" x1="120.728" y1="4.33398" x2="120.728" y2="47.6683" gradientUnits="userSpaceOnUse">
<stop stop-color="#C9CBCF"/>
<stop offset="1" stop-color="#94979E"/>
</linearGradient>
</defs>
</svg>
