<svg width="178" height="52" viewBox="0 0 178 52" fill="none" xmlns="http://www.w3.org/2000/svg">
<path fill-rule="evenodd" clip-rule="evenodd" d="M46.5885 1.29131C49.4465 4.59436 50.3337 13.5413 48.8588 18.026C48.3688 19.5171 48.2307 21.0927 48.5131 22.6232C48.801 24.1425 49.089 25.977 49.089 27.2542C49.089 40.3653 38.2054 51 24.7751 51C11.3505 51 0.461142 40.3709 0.461142 27.2542C0.461142 25.977 0.749221 24.1425 1.03731 22.6232C1.32538 21.0927 1.19287 19.5171 0.703128 18.026C-0.771843 13.5469 0.115444 4.59997 2.9732 1.29131C3.34769 0.863655 4.04487 0.919925 4.35599 1.39822L7.87631 6.79449C8.75209 7.86925 10.3192 8.12251 11.4946 7.36848C15.3145 4.92635 19.8777 3.50834 24.7809 3.50834C29.684 3.50834 34.2471 4.92635 38.067 7.36848C39.2484 8.12251 40.8155 7.87489 41.6856 6.79449L45.2058 1.39822C45.517 0.919925 46.214 0.858028 46.5885 1.29131ZM5.95198 27.3106C5.95198 37.4503 14.3927 45.6997 24.7751 45.6997C35.1576 45.6997 43.6039 37.4503 43.6098 27.3161C43.6098 26.9898 43.5983 26.6578 43.581 26.3314C43.2064 19.4271 38.9083 13.5187 32.8299 10.7053C30.3869 9.56298 27.6617 8.93277 24.7809 8.93277C21.9001 8.93277 19.1691 9.56298 16.7319 10.6997C10.6534 13.5132 6.35524 19.4159 5.98076 26.3258C5.96346 26.6522 5.95198 26.9785 5.95198 27.3106ZM28.1307 26.244L32.9415 34.392C33.0396 34.5552 33.0396 34.7577 32.9415 34.9153C32.8494 35.0785 32.6707 35.1797 32.4749 35.1797H28.5628C28.3726 35.1797 28.194 35.0785 28.0961 34.9153L25.5264 30.5655L22.6629 34.932C22.565 35.084 22.3921 35.1741 22.2077 35.1741H18.238C18.0363 35.1741 17.852 35.067 17.7598 34.8983C17.6676 34.7295 17.6734 34.5215 17.7828 34.3582L23.0778 26.4691L19.1311 19.9924C19.0331 19.8292 19.0273 19.6267 19.1253 19.4635C19.2232 19.2946 19.4018 19.1934 19.5978 19.1934H23.5387C23.7288 19.1934 23.9074 19.2891 24.0054 19.4522L28.1307 26.244ZM71.5082 13.6582H76.5266V40.5325H71.5082V29.0817H65.8387V40.5384H60.8203V13.6582H65.8387V25.3286H71.5082V13.6582ZM90.962 34.9528L92.0108 40.5346H97.058L91.2558 13.6602H84.4977L78.9609 40.5346H83.9793L84.9416 34.9528H90.962ZM90.2652 31.2444H85.5982L87.8683 18.3812L90.2652 31.2444ZM108.216 35.6373V29.8866C108.216 29.4309 108.13 29.127 107.957 28.9694C107.784 28.8119 107.461 28.7331 106.994 28.7331H103.463C100.466 28.7331 98.9688 27.3151 98.9688 24.4735V17.8787C98.9688 15.0651 100.535 13.6641 103.675 13.6641H108.475C111.615 13.6641 113.182 15.0708 113.182 17.8787V21.6262H108.124V18.5595C108.124 18.1037 108.037 17.7999 107.865 17.6423C107.692 17.4848 107.369 17.406 106.902 17.406H105.243C104.748 17.406 104.413 17.4848 104.241 17.6423C104.068 17.7999 103.981 18.1037 103.981 18.5595V23.9671C103.981 24.4228 104.068 24.7267 104.241 24.8842C104.413 25.0418 104.748 25.1206 105.243 25.1206H108.688C111.742 25.1206 113.269 26.5104 113.269 29.2958V36.324C113.269 39.1374 111.685 40.5385 108.515 40.5385H103.803C100.634 40.5385 99.0492 39.1318 99.0492 36.324V32.6157H104.062V35.6373C104.062 36.093 104.148 36.3971 104.321 36.5547C104.494 36.712 104.828 36.791 105.324 36.791H106.983C107.45 36.791 107.766 36.712 107.945 36.5547C108.124 36.3971 108.216 36.093 108.216 35.6373ZM131.692 13.6582H126.679V35.6372C126.679 36.093 126.593 36.3968 126.42 36.5543C126.247 36.7119 125.913 36.7906 125.417 36.7906H123.107C122.641 36.7906 122.317 36.7119 122.145 36.5543C121.972 36.3968 121.886 36.093 121.886 35.6372V13.6582H116.867V36.3181C116.867 39.1258 118.452 40.5325 121.621 40.5325H126.939C130.108 40.5325 131.692 39.1314 131.692 36.3181V13.6582ZM140.849 30.0609V40.5384H135.836V13.6582H145.954C149.123 13.6582 150.707 15.0649 150.707 17.8728V25.8406C150.707 28.1702 149.647 29.5319 147.521 29.9314L152.101 40.5384H146.691L142.503 30.0609H140.849ZM140.849 17.4057V26.4371H144.467C144.934 26.4371 145.251 26.3583 145.429 26.2007C145.602 26.0432 145.688 25.7393 145.688 25.2836V18.5593C145.688 18.1035 145.602 17.7996 145.429 17.6421C145.256 17.4845 144.934 17.4057 144.467 17.4057H140.849ZM164.847 34.9528L165.896 40.5346H170.949L165.147 13.6602H158.388L152.852 40.5346H157.864L158.826 34.9528H164.847ZM164.156 31.2444H159.489L161.759 18.3812L164.156 31.2444Z" fill="url(#paint0_linear_24539_7754)"/>
<defs>
<linearGradient id="paint0_linear_24539_7754" x1="85.4743" y1="1" x2="85.4743" y2="51" gradientUnits="userSpaceOnUse">
<stop stop-color="#C9CBCF"/>
<stop offset="1" stop-color="#94979E"/>
</linearGradient>
</defs>
</svg>
