<svg width="234" height="52" viewBox="0 0 234 52" fill="none" xmlns="http://www.w3.org/2000/svg">
<path fill-rule="evenodd" clip-rule="evenodd" d="M37.9755 20.7491C37.4142 20.6628 36.853 20.6205 36.3349 20.6205C32.4494 20.6205 30.6793 22.8638 30.6793 26.791V36.8016H25.673V15.787H30.5506V19.1531C31.5436 16.8659 33.8741 15.528 36.6371 15.528C37.2415 15.528 37.7596 15.6143 37.9755 15.6575V20.7491Z" fill="url(#paint0_linear_24539_7733)"/>
<path fill-rule="evenodd" clip-rule="evenodd" d="M57.1818 26.2714C57.1818 21.9135 54.4187 19.6701 51.3111 19.6701C48.2459 19.6701 45.4397 21.9135 45.4397 26.2714C45.4397 30.6302 48.2459 32.9606 51.3111 32.9606C54.4187 32.9606 57.1818 30.6742 57.1818 26.2714ZM62.2321 26.2714C62.2321 32.7449 57.6135 37.4481 51.3111 37.4481C45.0511 37.4481 40.4325 32.7449 40.4325 26.2714C40.4325 19.842 45.0511 15.1387 51.3111 15.1387C57.6135 15.1387 62.2321 19.842 62.2321 26.2714Z" fill="url(#paint1_linear_24539_7733)"/>
<path fill-rule="evenodd" clip-rule="evenodd" d="M77.7772 19.7568C74.4969 19.7568 72.1224 22.3454 72.1224 26.2718C72.1224 30.2853 74.4969 32.8747 77.7772 32.8747C81.1015 32.8747 83.4328 30.2853 83.4328 26.2718C83.4328 22.3454 81.1447 19.7568 77.7772 19.7568ZM67.2016 45V15.7865H72.0361V18.6348C73.0722 16.8222 75.4899 15.3118 78.727 15.3118C84.943 15.3118 88.44 20.0589 88.44 26.2718C88.44 32.5726 84.5976 37.319 78.5543 37.319C75.5322 37.319 73.2449 36.0243 72.1656 34.4283V45H67.2016Z" fill="url(#paint2_linear_24539_7733)"/>
<path fill-rule="evenodd" clip-rule="evenodd" d="M108.508 26.2714C108.508 21.9135 105.745 19.6701 102.637 19.6701C99.5717 19.6701 96.7663 21.9135 96.7663 26.2714C96.7663 30.6302 99.5717 32.9606 102.637 32.9606C105.745 32.9606 108.508 30.6742 108.508 26.2714ZM113.558 26.2714C113.558 32.7449 108.939 37.4481 102.637 37.4481C96.3778 37.4481 91.7592 32.7449 91.7592 26.2714C91.7592 19.842 96.3778 15.1387 102.637 15.1387C108.939 15.1387 113.558 19.842 113.558 26.2714Z" fill="url(#paint3_linear_24539_7733)"/>
<path fill-rule="evenodd" clip-rule="evenodd" d="M150.084 28.0848V27.1354L144.601 27.9553C143.048 28.2135 141.796 29.0774 141.796 30.8028C141.796 32.227 142.875 33.5217 144.861 33.5217C147.666 33.5217 150.084 32.1838 150.084 28.0848ZM143.133 24.7618L148.529 23.9418C149.739 23.7692 150.084 23.165 150.084 22.4313C150.084 20.6619 148.875 19.2386 146.113 19.2386C143.479 19.2386 142.011 20.9217 141.796 23.0355L137.22 21.9998C137.608 18.3755 140.889 15.1387 146.069 15.1387C152.544 15.1387 155.005 18.807 155.005 22.9924V33.4354C155.005 35.3334 155.221 36.5858 155.264 36.8007H150.601C150.559 36.6713 150.386 35.8081 150.386 34.1259C149.393 35.7227 147.321 37.4481 143.911 37.4481C139.508 37.4481 136.788 34.428 136.788 31.1049C136.788 27.3512 139.551 25.2796 143.133 24.7618Z" fill="url(#paint4_linear_24539_7733)"/>
<path fill-rule="evenodd" clip-rule="evenodd" d="M161.182 36.8022H166.189V7.66681H161.182V36.8022Z" fill="url(#paint5_linear_24539_7733)"/>
<path fill-rule="evenodd" clip-rule="evenodd" d="M186.607 23.985C186.52 21.5251 184.879 19.3249 181.426 19.3249C178.276 19.3249 176.462 21.7416 176.29 23.985H186.607ZM191.398 30.8028C190.276 34.4711 186.952 37.4481 181.901 37.4481C176.203 37.4481 171.153 33.3059 171.153 26.1851C171.153 19.5399 176.074 15.1387 181.383 15.1387C187.859 15.1387 191.657 19.4112 191.657 26.0565C191.657 26.8764 191.57 27.5661 191.528 27.6532H176.16C176.29 30.8468 178.794 33.1333 181.901 33.1333C184.923 33.1333 186.477 31.5365 187.168 29.465L191.398 30.8028Z" fill="url(#paint6_linear_24539_7733)"/>
<path fill-rule="evenodd" clip-rule="evenodd" d="M11.8403 7.03659L9.71912 7.02763L9.69876 11.6991L11.1585 11.7048C13.8449 11.717 15.4741 13.2421 15.4635 15.6947C15.4529 18.0691 13.8107 19.6187 11.1234 19.6065L9.66455 19.6008L9.64418 24.2323L11.7653 24.2422C17.2165 24.2657 20.8543 20.7 20.8764 15.6792C20.8975 10.6967 17.2922 7.06102 11.8403 7.03659Z" fill="url(#paint7_linear_24539_7733)"/>
<path fill-rule="evenodd" clip-rule="evenodd" d="M0.178392 7L0.123815 19.5731L0.0757554 19.5723L0.055391 24.2047H0.0643513L0.0301392 32.1064H0.0203643L0 36.7778L5.4218 36.8014L5.55214 7.02361L0.178392 7Z" fill="url(#paint8_linear_24539_7733)"/>
<path fill-rule="evenodd" clip-rule="evenodd" d="M208.34 7.66681L208.336 12.344C209.996 12.4352 211.717 13.9106 211.727 16.2093L217.139 16.224C217.118 11.2993 213.617 7.77756 208.34 7.66681Z" fill="url(#paint9_linear_24539_7733)"/>
<path fill-rule="evenodd" clip-rule="evenodd" d="M200.614 16.3285C200.604 14.1088 201.938 12.6496 204.182 12.3834L204.178 7.67282C198.76 7.72249 195.18 11.3484 195.201 16.313C195.223 21.2972 198.807 24.8449 204.192 24.8743L204.188 20.1987C201.958 19.9373 200.624 18.4684 200.614 16.3285Z" fill="url(#paint10_linear_24539_7733)"/>
<path fill-rule="evenodd" clip-rule="evenodd" d="M204.175 37.4487L204.179 32.7715C202.517 32.6803 200.797 31.2049 200.788 28.9062L195.374 28.8907C195.396 33.8162 198.896 37.338 204.175 37.4487Z" fill="url(#paint11_linear_24539_7733)"/>
<path fill-rule="evenodd" clip-rule="evenodd" d="M211.912 28.7859C211.923 31.0048 210.589 32.4648 208.344 32.7311L208.349 37.4416C213.767 37.3919 217.347 33.766 217.326 28.8014C217.303 23.8173 213.719 20.2695 208.336 20.2402L208.339 24.9157C210.569 25.1771 211.903 26.646 211.912 28.7859Z" fill="url(#paint12_linear_24539_7733)"/>
<path fill-rule="evenodd" clip-rule="evenodd" d="M124.812 37.4481C119.686 37.4481 116.826 34.3645 116.807 30.1832L121.402 30.197C121.411 32.1472 123.154 33.4777 124.879 33.4777L125.31 33.4785C127.382 33.4785 128.46 32.3565 128.46 31.0618C128.46 29.9397 127.683 29.0774 126 28.7322L122.892 28.0408C119.179 27.2217 117.237 24.8049 117.237 21.9135C117.237 18.246 120.604 15.1387 124.964 15.1387H125.779C130.184 15.2316 133.106 18.1711 133.124 22.2815L128.606 22.2685C128.597 20.3501 127.101 19.1197 125.298 19.0586L124.964 19.066C123.194 19.066 121.942 20.1872 121.942 21.4819C121.942 22.604 122.762 23.4239 124.058 23.6829L127.252 24.3302C131.223 25.1933 133.295 27.6101 133.295 30.7165C133.295 33.9093 130.705 37.4481 125.352 37.4481H124.812Z" fill="url(#paint13_linear_24539_7733)"/>
<path fill-rule="evenodd" clip-rule="evenodd" d="M222.65 34.3658C222.91 34.3658 223.06 34.229 223.06 34.0075C223.06 33.7795 222.91 33.6427 222.65 33.6427H222.331V34.3658H222.65ZM222.519 34.8413H222.331V35.7785H221.77V33.1672H222.74C223.249 33.1672 223.633 33.5385 223.633 34.001C223.633 34.3593 223.418 34.6459 223.099 34.7688L223.653 35.7785H223.014L222.519 34.8413ZM222.604 36.4039C223.639 36.4039 224.453 35.5701 224.453 34.4887C224.453 33.4155 223.639 32.5817 222.604 32.5817C221.562 32.5817 220.754 33.4155 220.754 34.4887C220.754 35.5701 221.562 36.4039 222.604 36.4039ZM222.604 32.0866C223.926 32.0866 225 33.1672 225 34.4887C225 35.8176 223.926 36.8982 222.604 36.8982C221.281 36.8982 220.22 35.8176 220.22 34.4887C220.22 33.1672 221.281 32.0866 222.604 32.0866Z" fill="url(#paint14_linear_24539_7733)"/>
<defs>
<linearGradient id="paint0_linear_24539_7733" x1="112.5" y1="7" x2="112.5" y2="45" gradientUnits="userSpaceOnUse">
<stop stop-color="#C9CBCF"/>
<stop offset="1" stop-color="#94979E"/>
</linearGradient>
<linearGradient id="paint1_linear_24539_7733" x1="112.5" y1="7" x2="112.5" y2="45" gradientUnits="userSpaceOnUse">
<stop stop-color="#C9CBCF"/>
<stop offset="1" stop-color="#94979E"/>
</linearGradient>
<linearGradient id="paint2_linear_24539_7733" x1="112.5" y1="7" x2="112.5" y2="45" gradientUnits="userSpaceOnUse">
<stop stop-color="#C9CBCF"/>
<stop offset="1" stop-color="#94979E"/>
</linearGradient>
<linearGradient id="paint3_linear_24539_7733" x1="112.5" y1="7" x2="112.5" y2="45" gradientUnits="userSpaceOnUse">
<stop stop-color="#C9CBCF"/>
<stop offset="1" stop-color="#94979E"/>
</linearGradient>
<linearGradient id="paint4_linear_24539_7733" x1="112.5" y1="7" x2="112.5" y2="45" gradientUnits="userSpaceOnUse">
<stop stop-color="#C9CBCF"/>
<stop offset="1" stop-color="#94979E"/>
</linearGradient>
<linearGradient id="paint5_linear_24539_7733" x1="112.5" y1="7" x2="112.5" y2="45" gradientUnits="userSpaceOnUse">
<stop stop-color="#C9CBCF"/>
<stop offset="1" stop-color="#94979E"/>
</linearGradient>
<linearGradient id="paint6_linear_24539_7733" x1="112.5" y1="7" x2="112.5" y2="45" gradientUnits="userSpaceOnUse">
<stop stop-color="#C9CBCF"/>
<stop offset="1" stop-color="#94979E"/>
</linearGradient>
<linearGradient id="paint7_linear_24539_7733" x1="112.5" y1="7" x2="112.5" y2="45" gradientUnits="userSpaceOnUse">
<stop stop-color="#C9CBCF"/>
<stop offset="1" stop-color="#94979E"/>
</linearGradient>
<linearGradient id="paint8_linear_24539_7733" x1="112.5" y1="7" x2="112.5" y2="45" gradientUnits="userSpaceOnUse">
<stop stop-color="#C9CBCF"/>
<stop offset="1" stop-color="#94979E"/>
</linearGradient>
<linearGradient id="paint9_linear_24539_7733" x1="112.5" y1="7" x2="112.5" y2="45" gradientUnits="userSpaceOnUse">
<stop stop-color="#C9CBCF"/>
<stop offset="1" stop-color="#94979E"/>
</linearGradient>
<linearGradient id="paint10_linear_24539_7733" x1="112.5" y1="7" x2="112.5" y2="45" gradientUnits="userSpaceOnUse">
<stop stop-color="#C9CBCF"/>
<stop offset="1" stop-color="#94979E"/>
</linearGradient>
<linearGradient id="paint11_linear_24539_7733" x1="112.5" y1="7" x2="112.5" y2="45" gradientUnits="userSpaceOnUse">
<stop stop-color="#C9CBCF"/>
<stop offset="1" stop-color="#94979E"/>
</linearGradient>
<linearGradient id="paint12_linear_24539_7733" x1="112.5" y1="7" x2="112.5" y2="45" gradientUnits="userSpaceOnUse">
<stop stop-color="#C9CBCF"/>
<stop offset="1" stop-color="#94979E"/>
</linearGradient>
<linearGradient id="paint13_linear_24539_7733" x1="112.5" y1="7" x2="112.5" y2="45" gradientUnits="userSpaceOnUse">
<stop stop-color="#C9CBCF"/>
<stop offset="1" stop-color="#94979E"/>
</linearGradient>
<linearGradient id="paint14_linear_24539_7733" x1="112.5" y1="7" x2="112.5" y2="45" gradientUnits="userSpaceOnUse">
<stop stop-color="#C9CBCF"/>
<stop offset="1" stop-color="#94979E"/>
</linearGradient>
</defs>
</svg>
