<svg width="229" height="52" viewBox="0 0 229 52" fill="none" xmlns="http://www.w3.org/2000/svg">
<path d="M2.85336 4C1.27779 4 0 5.23232 0 6.75182V15.9161C0 17.4356 1.27779 18.6679 2.85336 18.6679H19.0123V33.3321H2.85336C1.27779 33.3321 0 34.5644 0 36.0839V45.2482C0 46.7677 1.27779 48 2.85336 48H16.159C17.7346 48 19.0123 46.7677 19.0123 45.2482V33.3394H35.1713C36.7469 33.3394 38.0247 32.1071 38.0247 30.5876V21.4197C38.0247 19.9002 36.7469 18.6679 35.1713 18.6679H19.0161V6.75182C19.0161 5.23232 17.7383 4 16.1628 4H2.85336Z" fill="url(#paint0_linear_24539_7783)"/>
<path d="M182.604 10.5756C182.604 10.1285 182.22 9.78312 181.726 9.78312H178.107C177.614 9.78312 177.229 10.1539 177.229 10.5756V15.6539H171.605C171.112 15.6539 170.727 16.0247 170.727 16.4464V19.0637C170.727 19.5108 171.112 19.8562 171.605 19.8562H177.229V27.6354C177.229 33.5862 180.135 36.338 186.392 36.338H191.492C191.986 36.338 192.371 35.9672 192.371 35.5455V32.9282C192.371 32.4811 191.986 32.1357 191.492 32.1357H187.214C183.81 32.1357 182.604 30.838 182.604 27.61V19.8852H192.122C192.615 19.8562 193 19.4854 193 19.0637V16.4464C193 15.9992 192.615 15.6539 192.122 15.6539H182.604V10.5756Z" fill="url(#paint1_linear_24539_7783)"/>
<path d="M165.047 16.45C165.047 16.0029 164.662 15.6575 164.169 15.6575V15.6612H153.113C152.619 15.6612 152.235 16.032 152.235 16.4536V19.071C152.235 19.5181 152.619 19.8634 153.113 19.8634H159.668V32.1394H153.113C152.619 32.1394 152.235 32.5102 152.235 32.9318V35.5492C152.235 35.9963 152.619 36.3416 153.113 36.3416H171.768C172.261 36.3416 172.646 35.9708 172.646 35.5492V32.9318C172.646 32.4847 172.261 32.1394 171.768 32.1394H165.047V16.45Z" fill="url(#paint2_linear_24539_7783)"/>
<path d="M165.265 8.45992C165.239 8.0128 164.855 7.66745 164.387 7.66745H159.449C158.956 7.66745 158.571 8.03824 158.571 8.45992V11.8188C158.571 12.2659 158.956 12.6113 159.449 12.6113H164.387C164.881 12.6113 165.265 12.2405 165.265 11.8188V8.45992Z" fill="url(#paint3_linear_24539_7783)"/>
<path d="M142.495 32.1394H148.093C148.586 32.1394 148.971 32.4811 148.971 32.9318V35.5492C148.971 35.9708 148.586 36.3416 148.093 36.3416H129.849C129.355 36.3416 128.971 35.9999 128.971 35.5492V32.9318C128.971 32.5102 129.355 32.1394 129.849 32.1394H137.12V11.8733H130.644C130.151 11.8733 129.766 11.5316 129.766 11.0809V8.45992C129.766 8.03824 130.151 7.66745 130.644 7.66745H141.617C142.111 7.66745 142.495 8.00916 142.495 8.45992V32.1394Z" fill="url(#paint4_linear_24539_7783)"/>
<path fill-rule="evenodd" clip-rule="evenodd" d="M114.048 16.6063C115.089 15.6539 116.434 15.2577 118.3 15.2577C123.762 15.2577 126.943 18.8056 126.966 26.025C126.966 33.2481 123.758 36.7924 118.436 36.7924C116.6 36.7924 115.364 36.3416 114.35 35.4437L113.061 34.255L111.855 34.5204L112.322 37.6684V43.5429C112.322 43.9646 111.937 44.3353 111.444 44.3353H107.821C107.328 44.3353 106.943 43.9936 106.943 43.5429V16.45C106.943 16.0283 107.328 15.6575 107.821 15.6575H110.29C110.705 15.6575 111.033 15.9193 111.142 16.2646L111.579 17.7987H112.759L114.048 16.6063ZM112.292 28.5406C112.292 31.107 113.799 32.4556 116.517 32.4556C119.838 32.4556 121.319 30.4454 121.346 25.9778C121.346 21.5574 119.838 19.5472 116.517 19.5472C113.773 19.5472 112.292 20.8958 112.292 23.4622V28.5406Z" fill="url(#paint5_linear_24539_7783)"/>
<path fill-rule="evenodd" clip-rule="evenodd" d="M80.9915 25.9996C80.9915 18.802 84.6967 15.2577 91.6096 15.2577C98.7147 15.2577 102.145 18.831 101.319 26.7957H86.3137C86.5324 31.0561 88.1795 32.8809 91.636 32.8809C93.8599 32.8809 95.5033 32.1394 96.08 30.5799C96.2157 30.26 96.5436 30.0492 96.9017 30.0492H100.192C100.743 30.0492 101.18 30.5254 101.044 31.027C100.14 34.6513 96.7359 36.7669 91.4701 36.7669C84.6666 36.7669 80.9915 33.2227 80.9915 25.9996ZM91.5832 18.991C88.6206 18.991 86.9998 20.4451 86.4796 23.5677H96.3024C96.2195 20.605 94.7381 18.991 91.5832 18.991Z" fill="url(#paint6_linear_24539_7783)"/>
<path d="M69.0579 17.7732L70.2942 16.5809C71.3647 15.6285 72.9817 15.2577 75.036 15.2868H77.8328C78.3266 15.2868 78.7111 15.6285 78.7111 16.0792V18.9619C78.7111 19.3836 78.3266 19.7544 77.8328 19.7544H73.1137C70.2075 19.7544 68.7262 21.023 68.7262 23.4586V32.1357H75.0096C75.5034 32.1357 75.8879 32.4774 75.8879 32.9282V35.5455C75.8879 35.9672 75.5034 36.338 75.0096 36.338H57.9196C57.4258 36.338 57.0414 35.9963 57.0414 35.5455V32.9282C57.0414 32.5065 57.4258 32.1357 57.9196 32.1357H63.3512V19.8598H58.6886C58.1948 19.8598 57.8103 19.5181 57.8103 19.0673V16.45C57.8103 16.0283 58.1948 15.6575 58.6886 15.6575H66.589C67.0036 15.6575 67.3579 15.8938 67.4409 16.2646L67.8253 17.7732H69.0579Z" fill="url(#paint7_linear_24539_7783)"/>
<defs>
<linearGradient id="paint0_linear_24539_7783" x1="96.5" y1="4" x2="96.5" y2="48" gradientUnits="userSpaceOnUse">
<stop stop-color="#C9CBCF"/>
<stop offset="1" stop-color="#94979E"/>
</linearGradient>
<linearGradient id="paint1_linear_24539_7783" x1="96.5" y1="4" x2="96.5" y2="48" gradientUnits="userSpaceOnUse">
<stop stop-color="#C9CBCF"/>
<stop offset="1" stop-color="#94979E"/>
</linearGradient>
<linearGradient id="paint2_linear_24539_7783" x1="96.5" y1="4" x2="96.5" y2="48" gradientUnits="userSpaceOnUse">
<stop stop-color="#C9CBCF"/>
<stop offset="1" stop-color="#94979E"/>
</linearGradient>
<linearGradient id="paint3_linear_24539_7783" x1="96.5" y1="4" x2="96.5" y2="48" gradientUnits="userSpaceOnUse">
<stop stop-color="#C9CBCF"/>
<stop offset="1" stop-color="#94979E"/>
</linearGradient>
<linearGradient id="paint4_linear_24539_7783" x1="96.5" y1="4" x2="96.5" y2="48" gradientUnits="userSpaceOnUse">
<stop stop-color="#C9CBCF"/>
<stop offset="1" stop-color="#94979E"/>
</linearGradient>
<linearGradient id="paint5_linear_24539_7783" x1="96.5" y1="4" x2="96.5" y2="48" gradientUnits="userSpaceOnUse">
<stop stop-color="#C9CBCF"/>
<stop offset="1" stop-color="#94979E"/>
</linearGradient>
<linearGradient id="paint6_linear_24539_7783" x1="96.5" y1="4" x2="96.5" y2="48" gradientUnits="userSpaceOnUse">
<stop stop-color="#C9CBCF"/>
<stop offset="1" stop-color="#94979E"/>
</linearGradient>
<linearGradient id="paint7_linear_24539_7783" x1="96.5" y1="4" x2="96.5" y2="48" gradientUnits="userSpaceOnUse">
<stop stop-color="#C9CBCF"/>
<stop offset="1" stop-color="#94979E"/>
</linearGradient>
</defs>
</svg>
