<svg width="240" height="52" viewBox="0 0 240 52" fill="none" xmlns="http://www.w3.org/2000/svg">
<path d="M95.0491 15.75C87.609 15.75 82.2447 20.3625 82.2447 27.2812C82.2447 34.2 88.2829 38.8125 95.723 38.8125C100.218 38.8125 104.181 37.1213 106.634 34.2705L101.478 31.4389C100.117 32.8547 98.048 33.6811 95.723 33.6811C92.4949 33.6811 89.7521 32.0795 88.7345 29.517H107.618C107.766 28.7995 107.853 28.0564 107.853 27.2748C107.853 20.3625 102.489 15.75 95.0491 15.75ZM88.6738 25.0391C89.5162 22.483 91.821 20.875 95.0423 20.875C98.2704 20.875 100.575 22.483 101.411 25.0391H88.6738ZM167.616 15.75C160.176 15.75 154.812 20.3625 154.812 27.2812C154.812 34.2 160.85 38.8125 168.29 38.8125C172.785 38.8125 176.748 37.1213 179.201 34.2705L174.045 31.4389C172.684 32.8547 170.615 33.6811 168.29 33.6811C165.062 33.6811 162.319 32.0795 161.302 29.517H180.185C180.333 28.7995 180.421 28.0564 180.421 27.2748C180.421 20.3625 175.056 15.75 167.616 15.75ZM161.248 25.0391C162.09 22.483 164.395 20.875 167.616 20.875C170.844 20.875 173.149 22.483 173.985 25.0391H161.248ZM134.945 27.2812C134.945 31.125 137.587 33.6875 141.684 33.6875C144.461 33.6875 146.543 32.4895 147.614 30.5356L152.79 33.3736C150.647 36.7689 146.631 38.8125 141.684 38.8125C134.237 38.8125 128.88 34.2 128.88 27.2812C128.88 20.3625 134.244 15.75 141.684 15.75C146.631 15.75 150.64 17.7936 152.79 21.1889L147.614 24.0269C146.543 22.073 144.461 20.875 141.684 20.875C137.593 20.875 134.945 23.4375 134.945 27.2812ZM190.529 8.70312V38.1719H184.464V8.70312H190.529ZM24.9012 5.5L49.8024 46.5H0L24.9012 5.5ZM87.1575 8.70312L68.4833 39.4531L49.8091 8.70312H56.8111L68.4833 27.9219L80.1555 8.70312H87.1575ZM126.858 16.3906V22.5983C126.184 22.4125 125.47 22.2844 124.701 22.2844C120.786 22.2844 117.962 24.8469 117.962 28.6906V38.1719H111.897V16.3906H117.962V22.2844C117.962 19.03 121.945 16.3906 126.858 16.3906Z" fill="url(#paint0_linear_24539_7804)"/>
<defs>
<linearGradient id="paint0_linear_24539_7804" x1="95.2647" y1="5.5" x2="95.2647" y2="46.5" gradientUnits="userSpaceOnUse">
<stop stop-color="#C9CBCF"/>
<stop offset="1" stop-color="#94979E"/>
</linearGradient>
</defs>
</svg>
