<svg width="234" height="52" viewBox="0 0 234 52" fill="none" xmlns="http://www.w3.org/2000/svg">
<path fill-rule="evenodd" clip-rule="evenodd" d="M20.9614 6.47205C18.2334 7.26794 15.6982 8.58383 13.5056 10.342C12.587 8.82931 11.1255 7.69491 9.39837 7.15392C12.125 4.7848 15.3308 2.98788 18.8132 1.87661C22.2956 0.7654 25.9788 0.364057 29.63 0.698073C33.2812 1.03202 36.821 2.09397 40.0255 3.81683C40.8363 4.25277 41.6211 4.72862 42.3773 5.24194C42.4031 5.23112 42.4291 5.22048 42.4552 5.21004C43.4366 4.81747 44.5165 4.71478 45.5583 4.91497C46.6002 5.11523 47.5571 5.60933 48.3082 6.33483C49.0593 7.06032 49.5707 7.98466 49.7779 8.99094C49.985 9.99721 49.8786 11.0403 49.4719 11.988C49.0653 12.9359 48.3768 13.746 47.4935 14.3158C46.6103 14.8858 45.5718 15.1899 44.5096 15.1898C43.8043 15.1898 43.106 15.0556 42.4544 14.7949C41.8029 14.5342 41.2109 14.1521 40.7122 13.6704C40.2135 13.1887 39.818 12.6169 39.5482 11.9875C39.2784 11.3582 39.1395 10.6837 39.1396 10.0025C39.1396 9.73648 39.1608 9.47198 39.2025 9.21125C38.6402 8.83822 38.0587 8.49081 37.4598 8.17051C34.9667 6.83713 32.2223 5.99979 29.3886 5.70812C26.5549 5.41638 23.6894 5.67615 20.9614 6.47205ZM12.498 13.9449C12.498 14.9215 12.2125 15.8772 11.6759 16.7026L12.7768 18.542C11.7088 19.7688 10.2438 20.612 8.61848 20.9352L7.52993 19.1168C7.04763 19.1518 6.56009 19.1238 6.08065 19.0318C5.03898 18.8317 4.08215 18.3378 3.33111 17.6125C2.58007 16.8873 2.06859 15.9631 1.86134 14.9571C1.65401 13.9511 1.76026 12.9082 2.16662 11.9605C2.57291 11.0128 3.26108 10.2027 4.14409 9.63271C5.02711 9.06275 6.06526 8.75846 7.12729 8.75827C7.83256 8.7582 8.53087 8.89228 9.18249 9.15289C9.83411 9.41349 10.4262 9.79555 10.9249 10.2772C11.4236 10.7588 11.8192 11.3306 12.0891 11.9599C12.359 12.5892 12.498 13.2637 12.498 13.9449ZM8.61848 20.9352L17.8774 36.4027L20.6691 41.073L23.4614 36.4027L26.9424 30.5799L30.4138 36.3818L33.204 41.0507L35.9957 36.3811L40.6786 28.5443H48.3267C48.4176 27.769 48.4632 26.9894 48.4634 26.2092C48.4635 25.4289 48.4177 24.6493 48.326 23.874H37.8862L37.4009 24.6857L33.2026 31.7086L29.7311 25.906L26.9394 21.2357L24.1521 25.9067L20.6691 31.7296L12.7768 18.542C11.7088 19.7688 10.2438 20.612 8.61848 20.9352ZM48.4634 26.2092C48.4632 26.9894 48.4176 27.769 48.3267 28.5443L53.4614 28.5439V23.8735L48.326 23.874C48.4177 24.6493 48.4635 25.4289 48.4634 26.2092ZM53.4631 23.874H53.5412C53.6128 24.643 53.6519 25.4219 53.6519 26.2092C53.6519 40.3598 41.7779 51.833 27.1246 51.833C12.4714 51.833 0.593779 40.3612 0.593779 26.2105C0.589932 23.7024 0.969165 21.2074 1.71914 18.8062C2.94777 20.0839 4.6193 20.8815 6.41651 21.0477C6.02235 22.6956 5.78226 24.6109 5.78226 26.2092C5.78226 37.5902 15.3346 46.8211 27.1253 46.8211C38.0967 46.8211 47.1276 38.8279 48.3282 28.5443H53.4631V23.874Z" fill="url(#paint0_linear_24539_7712)"/>
<path d="M69.5529 35.32L65.3333 17.7593H68.7715L70.5687 26.1874L71.6887 31.5714H71.7669L73.0692 26.1874L75.1529 17.7593H78.9558L81.0395 26.1874L82.3158 31.5714H82.3939L83.54 26.1874L85.3893 17.7593H88.6712L84.3214 35.32H80.4404L78.1223 26.0365L77.0023 21.4073H76.9502L75.7781 26.0365L73.4599 35.32H69.5529Z" fill="url(#paint1_linear_24539_7712)"/>
<path d="M99.307 33.1312H99.1768C99.0552 33.4667 98.8902 33.7854 98.6819 34.0873C98.4908 34.3724 98.2391 34.6324 97.9265 34.8672C97.6313 35.102 97.2667 35.2865 96.8325 35.4207C96.4158 35.5548 95.9296 35.6219 95.3739 35.6219C93.9674 35.6219 92.8908 35.1775 92.1441 34.2885C91.3975 33.3996 91.0241 32.1333 91.0241 30.4896V22.1872H94.3581V30.1625C94.3581 31.0682 94.5404 31.7643 94.9051 32.2507C95.2697 32.7203 95.8515 32.9551 96.6502 32.9551C96.9801 32.9551 97.3014 32.9132 97.6139 32.8293C97.9439 32.7455 98.2304 32.6197 98.4735 32.4519C98.7166 32.2674 98.9163 32.0494 99.0726 31.7978C99.2288 31.5295 99.307 31.2192 99.307 30.867V22.1872H102.641V35.32H99.307V33.1312Z" fill="url(#paint2_linear_24539_7712)"/>
<path d="M106.493 35.32V22.1872H109.827V24.376H109.957C110.235 23.6716 110.669 23.0845 111.26 22.6149C111.867 22.1285 112.701 21.8853 113.76 21.8853C115.167 21.8853 116.243 22.3298 116.99 23.2187C117.737 24.1077 118.11 25.374 118.11 27.0177V35.32H114.776V27.3447C114.776 26.4055 114.602 25.701 114.255 25.2314C113.908 24.7618 113.335 24.527 112.536 24.527C112.189 24.527 111.85 24.5773 111.52 24.6779C111.207 24.7618 110.921 24.896 110.66 25.0805C110.417 25.2482 110.218 25.4662 110.061 25.7346C109.905 25.9862 109.827 26.2881 109.827 26.6403V35.32H106.493Z" fill="url(#paint3_linear_24539_7712)"/>
<path d="M130.245 33.1312H130.115C129.871 33.886 129.411 34.4898 128.734 34.9426C128.057 35.3955 127.267 35.6219 126.364 35.6219C124.645 35.6219 123.325 35.0265 122.405 33.8357C121.502 32.6448 121.05 30.9424 121.05 28.7285C121.05 26.5313 121.502 24.8456 122.405 23.6716C123.325 22.4807 124.645 21.8853 126.364 21.8853C127.267 21.8853 128.057 22.1117 128.734 22.5646C129.411 23.0007 129.871 23.5961 130.115 24.3509H130.245V16.7026H133.579V35.32H130.245V33.1312ZM127.432 32.9551C128.23 32.9551 128.899 32.7706 129.437 32.4016C129.976 32.0326 130.245 31.5043 130.245 30.8166V26.6403C130.245 26.0029 129.976 25.4914 129.437 25.1056C128.899 24.7199 128.23 24.527 127.432 24.527C126.563 24.527 125.86 24.8121 125.322 25.3824C124.801 25.9359 124.541 26.6822 124.541 27.6215V29.8858C124.541 30.825 124.801 31.5714 125.322 32.1249C125.86 32.6784 126.563 32.9551 127.432 32.9551Z" fill="url(#paint4_linear_24539_7712)"/>
<path d="M142.919 35.6219C141.912 35.6219 141.009 35.4626 140.21 35.1439C139.429 34.8085 138.761 34.3472 138.205 33.7602C137.667 33.1564 137.25 32.4352 136.955 31.5965C136.659 30.7412 136.512 29.7851 136.512 28.7285C136.512 27.6886 136.651 26.7493 136.929 25.9107C137.224 25.0721 137.641 24.3592 138.179 23.7722C138.717 23.1684 139.377 22.7072 140.158 22.3885C140.94 22.053 141.825 21.8853 142.815 21.8853C143.874 21.8853 144.795 22.0614 145.576 22.4137C146.357 22.7659 147 23.2439 147.504 23.8477C148.007 24.4515 148.38 25.1559 148.624 25.961C148.884 26.7493 149.014 27.5963 149.014 28.502V29.5587H139.976V29.8858C139.976 30.8418 140.254 31.6133 140.81 32.2004C141.365 32.7706 142.19 33.0558 143.284 33.0558C144.117 33.0558 144.795 32.888 145.316 32.5526C145.854 32.2171 146.331 31.7894 146.748 31.2695L148.545 33.2067C147.99 33.9615 147.226 34.5569 146.253 34.993C145.298 35.4123 144.187 35.6219 142.919 35.6219ZM142.867 24.3005C141.982 24.3005 141.278 24.5857 140.757 25.1559C140.237 25.7262 139.976 26.4642 139.976 27.3699V27.5712H145.55V27.3447C145.55 26.439 145.316 25.7094 144.847 25.1559C144.395 24.5857 143.735 24.3005 142.867 24.3005Z" fill="url(#paint5_linear_24539_7712)"/>
<path d="M151.948 35.32V22.1872H155.282V24.9044H155.412C155.499 24.5521 155.629 24.2167 155.802 23.898C155.993 23.5626 156.237 23.269 156.532 23.0175C156.827 22.7659 157.174 22.5646 157.574 22.4137C157.99 22.2627 158.468 22.1872 159.006 22.1872H159.736V25.2314H158.694C157.565 25.2314 156.714 25.3908 156.141 25.7094C155.568 26.0281 155.282 26.5481 155.282 27.2693V35.32H151.948Z" fill="url(#paint6_linear_24539_7712)"/>
<path d="M174.226 32.6029H174.122C173.966 33.4583 173.471 34.1795 172.638 34.7665C171.821 35.3368 170.727 35.6219 169.356 35.6219C168.279 35.6219 167.281 35.4291 166.36 35.0433C165.457 34.6575 164.667 34.0873 163.99 33.3325C163.33 32.561 162.809 31.6133 162.427 30.4896C162.045 29.3658 161.854 28.066 161.854 26.59C161.854 25.114 162.045 23.8141 162.427 22.6904C162.827 21.5499 163.382 20.5938 164.094 19.8223C164.806 19.0508 165.657 18.4637 166.647 18.0612C167.637 17.6587 168.739 17.4574 169.955 17.4574C171.587 17.4574 172.976 17.8012 174.122 18.4889C175.268 19.1766 176.171 20.1661 176.831 21.4576L174.044 23.0426C173.714 22.2879 173.219 21.6589 172.559 21.1557C171.917 20.6525 171.049 20.401 169.955 20.401C168.6 20.401 167.515 20.8035 166.699 21.6086C165.9 22.3969 165.501 23.5709 165.501 25.1308V27.9486C165.501 29.4916 165.909 30.6657 166.725 31.4708C167.541 32.2758 168.635 32.6784 170.007 32.6784C170.545 32.6784 171.049 32.6197 171.518 32.5023C171.986 32.3681 172.394 32.1752 172.742 31.9236C173.089 31.672 173.367 31.3617 173.575 30.9927C173.784 30.6237 173.888 30.1877 173.888 29.6845V28.5524H170.319V25.7597H177.196V35.32H174.226V32.6029Z" fill="url(#paint7_linear_24539_7712)"/>
<path d="M180.97 35.32V22.1872H184.304V24.9044H184.434C184.521 24.5521 184.652 24.2167 184.825 23.898C185.016 23.5626 185.259 23.269 185.555 23.0175C185.85 22.7659 186.197 22.5646 186.596 22.4137C187.013 22.2627 187.491 22.1872 188.029 22.1872H188.758V25.2314H187.716C186.588 25.2314 185.737 25.3908 185.164 25.7094C184.591 26.0281 184.304 26.5481 184.304 27.2693V35.32H180.97Z" fill="url(#paint8_linear_24539_7712)"/>
<path d="M200.918 35.32C200.188 35.32 199.607 35.1188 199.173 34.7162C198.756 34.2969 198.495 33.7434 198.391 33.0558H198.235C198.009 33.9111 197.549 34.5569 196.854 34.993C196.16 35.4123 195.3 35.6219 194.276 35.6219C192.887 35.6219 191.819 35.2697 191.072 34.5653C190.325 33.8608 189.952 32.9216 189.952 31.7475C189.952 30.3889 190.456 29.3826 191.463 28.7285C192.47 28.0576 193.903 27.7221 195.761 27.7221H198.079V26.7661C198.079 26.0281 197.879 25.4578 197.48 25.0553C197.08 24.6528 196.438 24.4515 195.552 24.4515C194.771 24.4515 194.137 24.6192 193.651 24.9547C193.182 25.2733 192.783 25.6591 192.453 26.112L190.473 24.4012C190.977 23.6464 191.645 23.0426 192.479 22.5898C193.312 22.1201 194.415 21.8853 195.787 21.8853C197.627 21.8853 199.025 22.2879 199.98 23.0929C200.935 23.898 201.413 25.0553 201.413 26.5648V32.7538H202.767V35.32H200.918ZM195.396 33.2822C196.143 33.2822 196.776 33.1228 197.297 32.8042C197.818 32.4855 198.079 32.0159 198.079 31.3953V29.6593H195.943C194.206 29.6593 193.338 30.1961 193.338 31.2695V31.6972C193.338 32.2339 193.512 32.6364 193.859 32.9048C194.224 33.1564 194.736 33.2822 195.396 33.2822Z" fill="url(#paint9_linear_24539_7712)"/>
<path d="M205.465 22.1872H208.799V24.3509H208.904C209.147 23.5961 209.607 23.0007 210.284 22.5646C210.961 22.1117 211.751 21.8853 212.654 21.8853C214.391 21.8853 215.71 22.4807 216.613 23.6716C217.534 24.8456 217.994 26.5313 217.994 28.7285C217.994 30.9424 217.534 32.6448 216.613 33.8357C215.71 35.0265 214.391 35.6219 212.654 35.6219C211.751 35.6219 210.961 35.3955 210.284 34.9426C209.624 34.4898 209.164 33.886 208.904 33.1312H208.799V40.3517H205.465V22.1872ZM211.586 32.9551C212.455 32.9551 213.158 32.6784 213.696 32.1249C214.234 31.5714 214.504 30.825 214.504 29.8858V27.6215C214.504 26.6822 214.234 25.9359 213.696 25.3824C213.158 24.8121 212.455 24.527 211.586 24.527C210.788 24.527 210.119 24.7199 209.581 25.1056C209.06 25.4914 208.799 26.0029 208.799 26.6403V30.8166C208.799 31.5043 209.06 32.0326 209.581 32.4016C210.119 32.7706 210.788 32.9551 211.586 32.9551Z" fill="url(#paint10_linear_24539_7712)"/>
<path d="M221.083 16.7026H224.417V24.376H224.547C224.825 23.6716 225.259 23.0845 225.85 22.6149C226.458 22.1285 227.291 21.8853 228.35 21.8853C229.757 21.8853 230.833 22.3298 231.58 23.2187C232.327 24.1077 232.7 25.374 232.7 27.0177V35.32H229.366V27.3447C229.366 26.4055 229.192 25.701 228.845 25.2314C228.498 24.7618 227.925 24.527 227.126 24.527C226.779 24.527 226.44 24.5773 226.11 24.6779C225.798 24.7618 225.511 24.896 225.251 25.0805C225.008 25.2482 224.808 25.4662 224.652 25.7346C224.495 25.9862 224.417 26.2881 224.417 26.6403V35.32H221.083V16.7026Z" fill="url(#paint11_linear_24539_7712)"/>
<defs>
<linearGradient id="paint0_linear_24539_7712" x1="116.647" y1="0.583984" x2="116.647" y2="51.833" gradientUnits="userSpaceOnUse">
<stop stop-color="#C9CBCF"/>
<stop offset="1" stop-color="#94979E"/>
</linearGradient>
<linearGradient id="paint1_linear_24539_7712" x1="116.647" y1="0.583984" x2="116.647" y2="51.833" gradientUnits="userSpaceOnUse">
<stop stop-color="#C9CBCF"/>
<stop offset="1" stop-color="#94979E"/>
</linearGradient>
<linearGradient id="paint2_linear_24539_7712" x1="116.647" y1="0.583984" x2="116.647" y2="51.833" gradientUnits="userSpaceOnUse">
<stop stop-color="#C9CBCF"/>
<stop offset="1" stop-color="#94979E"/>
</linearGradient>
<linearGradient id="paint3_linear_24539_7712" x1="116.647" y1="0.583984" x2="116.647" y2="51.833" gradientUnits="userSpaceOnUse">
<stop stop-color="#C9CBCF"/>
<stop offset="1" stop-color="#94979E"/>
</linearGradient>
<linearGradient id="paint4_linear_24539_7712" x1="116.647" y1="0.583984" x2="116.647" y2="51.833" gradientUnits="userSpaceOnUse">
<stop stop-color="#C9CBCF"/>
<stop offset="1" stop-color="#94979E"/>
</linearGradient>
<linearGradient id="paint5_linear_24539_7712" x1="116.647" y1="0.583984" x2="116.647" y2="51.833" gradientUnits="userSpaceOnUse">
<stop stop-color="#C9CBCF"/>
<stop offset="1" stop-color="#94979E"/>
</linearGradient>
<linearGradient id="paint6_linear_24539_7712" x1="116.647" y1="0.583984" x2="116.647" y2="51.833" gradientUnits="userSpaceOnUse">
<stop stop-color="#C9CBCF"/>
<stop offset="1" stop-color="#94979E"/>
</linearGradient>
<linearGradient id="paint7_linear_24539_7712" x1="116.647" y1="0.583984" x2="116.647" y2="51.833" gradientUnits="userSpaceOnUse">
<stop stop-color="#C9CBCF"/>
<stop offset="1" stop-color="#94979E"/>
</linearGradient>
<linearGradient id="paint8_linear_24539_7712" x1="116.647" y1="0.583984" x2="116.647" y2="51.833" gradientUnits="userSpaceOnUse">
<stop stop-color="#C9CBCF"/>
<stop offset="1" stop-color="#94979E"/>
</linearGradient>
<linearGradient id="paint9_linear_24539_7712" x1="116.647" y1="0.583984" x2="116.647" y2="51.833" gradientUnits="userSpaceOnUse">
<stop stop-color="#C9CBCF"/>
<stop offset="1" stop-color="#94979E"/>
</linearGradient>
<linearGradient id="paint10_linear_24539_7712" x1="116.647" y1="0.583984" x2="116.647" y2="51.833" gradientUnits="userSpaceOnUse">
<stop stop-color="#C9CBCF"/>
<stop offset="1" stop-color="#94979E"/>
</linearGradient>
<linearGradient id="paint11_linear_24539_7712" x1="116.647" y1="0.583984" x2="116.647" y2="51.833" gradientUnits="userSpaceOnUse">
<stop stop-color="#C9CBCF"/>
<stop offset="1" stop-color="#94979E"/>
</linearGradient>
</defs>
</svg>
