<svg width="69" height="52" viewBox="0 0 69 52" fill="none" xmlns="http://www.w3.org/2000/svg">
<mask id="path-1-inside-1_2571_41110" fill="white">
<path d="M53.04 51.7852C48.8605 51.7804 44.8529 50.1703 41.8975 47.3076C38.9421 44.4449 37.2794 40.5631 37.2744 36.5146C37.2744 20.6456 46.0627 8.36201 53.4336 0.851562C53.5675 0.715168 53.7287 0.606445 53.9072 0.532227C54.0858 0.458027 54.2784 0.419903 54.4727 0.419922H57.3389C57.5947 0.419922 57.846 0.486534 58.0664 0.612305C58.2868 0.738037 58.4688 0.918129 58.5928 1.13477C58.7168 1.35151 58.7782 1.597 58.7715 1.84473C58.7647 2.09238 58.6902 2.33386 58.5547 2.54395C54.823 8.21194 52.4768 14.6308 51.6953 21.3105C52.1396 21.2731 52.5857 21.2432 53.04 21.2432C57.221 21.2433 61.2311 22.8531 64.1875 25.7168C67.1438 28.5806 68.8047 32.4648 68.8047 36.5146C68.8046 40.5646 67.1439 44.4487 64.1875 47.3125C61.2311 50.1762 57.221 51.7851 53.04 51.7852ZM15.7666 51.7852C11.5871 51.7804 7.57945 50.1703 4.62402 47.3076C1.66864 44.4449 0.00598145 40.5631 0.000976562 36.5146C0.000976562 20.6456 8.78931 8.36201 16.1602 0.851562C16.294 0.715168 16.4553 0.606445 16.6338 0.532227C16.8124 0.458027 17.0049 0.419903 17.1992 0.419922H20.0654C20.3213 0.419922 20.5725 0.486534 20.793 0.612305C21.0133 0.738037 21.1953 0.918129 21.3193 1.13477C21.4434 1.35151 21.5048 1.597 21.498 1.84473C21.4913 2.09238 21.4168 2.33386 21.2812 2.54395C17.5496 8.21194 15.2034 14.6308 14.4219 21.3105C14.8662 21.2731 15.3123 21.2432 15.7666 21.2432C19.9476 21.2433 23.9576 22.8531 26.9141 25.7168C29.8703 28.5806 31.5312 32.4648 31.5312 36.5146C31.5312 40.5646 29.8704 44.4487 26.9141 47.3125C23.9576 50.1762 19.9476 51.7851 15.7666 51.7852Z"/>
</mask>
<path d="M53.04 51.7852L53.0389 52.7852H53.0401L53.04 51.7852ZM41.8975 47.3076L41.2017 48.0259L41.2017 48.0259L41.8975 47.3076ZM37.2744 36.5146H36.2744V36.5159L37.2744 36.5146ZM53.4336 0.851562L52.7199 0.151115L52.7199 0.151119L53.4336 0.851562ZM53.9072 0.532227L53.5235 -0.391228L53.5234 -0.391163L53.9072 0.532227ZM54.4727 0.419922L54.4726 1.41992H54.4727V0.419922ZM57.3389 0.419922V1.41992H57.3389L57.3389 0.419922ZM58.0664 0.612305L58.562 -0.256245L58.562 -0.256252L58.0664 0.612305ZM58.5928 1.13477L59.4607 0.63813L59.4606 0.637955L58.5928 1.13477ZM58.7715 1.84473L59.7711 1.87198L59.7711 1.87182L58.7715 1.84473ZM58.5547 2.54395L59.39 3.09387L59.395 3.08611L58.5547 2.54395ZM51.6953 21.3105L50.7021 21.1943L50.5599 22.4099L51.7794 22.307L51.6953 21.3105ZM53.04 21.2432L53.0401 20.2432H53.04V21.2432ZM64.1875 25.7168L64.8833 24.9985L64.8833 24.9985L64.1875 25.7168ZM68.8047 36.5146L69.8047 36.5147V36.5146H68.8047ZM64.1875 47.3125L64.8833 48.0308L64.8833 48.0308L64.1875 47.3125ZM15.7666 51.7852L15.7655 52.7852H15.7666L15.7666 51.7852ZM4.62402 47.3076L3.92827 48.0259L3.92828 48.0259L4.62402 47.3076ZM0.000976562 36.5146H-0.999023V36.5159L0.000976562 36.5146ZM16.1602 0.851562L15.4465 0.151115L15.4464 0.151119L16.1602 0.851562ZM16.6338 0.532227L16.2501 -0.391228L16.2499 -0.391163L16.6338 0.532227ZM17.1992 0.419922L17.1991 1.41992H17.1992V0.419922ZM20.0654 0.419922V1.41992H20.0654L20.0654 0.419922ZM20.793 0.612305L21.2886 -0.256245L21.2886 -0.256256L20.793 0.612305ZM21.3193 1.13477L22.1873 0.63813L22.1872 0.637955L21.3193 1.13477ZM21.498 1.84473L22.4977 1.87198L22.4977 1.87182L21.498 1.84473ZM21.2812 2.54395L22.1165 3.09387L22.1215 3.08611L21.2812 2.54395ZM14.4219 21.3105L13.4286 21.1943L13.2864 22.4099L14.5059 22.307L14.4219 21.3105ZM15.7666 21.2432L15.7666 20.2432H15.7666V21.2432ZM26.9141 25.7168L27.6098 24.9985L27.6098 24.9985L26.9141 25.7168ZM31.5312 36.5146L32.5312 36.5147V36.5146H31.5312ZM26.9141 47.3125L27.6098 48.0308L27.6098 48.0308L26.9141 47.3125ZM53.04 51.7852L53.0412 50.7852C49.1163 50.7807 45.3591 49.2684 42.5932 46.5893L41.8975 47.3076L41.2017 48.0259C44.3467 51.0722 48.6047 52.7801 53.0389 52.7852L53.04 51.7852ZM41.8975 47.3076L42.5932 46.5893C39.8284 43.9112 38.2791 40.2867 38.2744 36.5134L37.2744 36.5146L36.2744 36.5159C36.2798 40.8396 38.0557 44.9785 41.2017 48.0259L41.8975 47.3076ZM37.2744 36.5146H38.2744C38.2744 21.0247 46.8571 8.98027 54.1473 1.55201L53.4336 0.851562L52.7199 0.151119C45.2684 7.74376 36.2744 20.2665 36.2744 36.5146H37.2744ZM53.4336 0.851562L54.1473 1.55201C54.1862 1.51239 54.2349 1.47898 54.2911 1.45562L53.9072 0.532227L53.5234 -0.391163C53.2225 -0.266087 52.9487 -0.082058 52.7199 0.151115L53.4336 0.851562ZM53.9072 0.532227L54.2909 1.45568C54.3467 1.43252 54.4087 1.41991 54.4726 1.41992L54.4727 0.419922L54.4728 -0.580078C54.148 -0.580112 53.8249 -0.51646 53.5235 -0.391228L53.9072 0.532227ZM54.4727 0.419922V1.41992H57.3389V0.419922V-0.580078H54.4727V0.419922ZM57.3389 0.419922L57.3389 1.41992C57.4217 1.41992 57.5021 1.44163 57.5708 1.48086L58.0664 0.612305L58.562 -0.256252C58.1899 -0.468563 57.7677 -0.580078 57.3389 -0.580078L57.3389 0.419922ZM58.0664 0.612305L57.5708 1.48085C57.6403 1.52048 57.6919 1.57394 57.7249 1.63158L58.5928 1.13477L59.4606 0.637955C59.2456 0.262314 58.9333 -0.0444107 58.562 -0.256245L58.0664 0.612305ZM58.5928 1.13477L57.7248 1.6314C57.7577 1.68884 57.7736 1.75312 57.7719 1.81763L58.7715 1.84473L59.7711 1.87182C59.7828 1.44088 59.6759 1.01419 59.4607 0.63813L58.5928 1.13477ZM58.7715 1.84473L57.7719 1.81747C57.7701 1.88192 57.7508 1.94534 57.7144 2.00178L58.5547 2.54395L59.395 3.08611C59.6296 2.72239 59.7594 2.30283 59.7711 1.87198L58.7715 1.84473ZM58.5547 2.54395L57.7195 1.99405C53.9028 7.79107 51.5019 14.3582 50.7021 21.1943L51.6953 21.3105L52.6885 21.4267C53.4517 14.9034 55.7432 8.6328 59.3899 3.09384L58.5547 2.54395ZM51.6953 21.3105L51.7794 22.307C52.2143 22.2703 52.6277 22.2432 53.04 22.2432V21.2432V20.2432C52.5438 20.2432 52.0649 20.2758 51.6112 20.3141L51.6953 21.3105ZM53.04 21.2432L53.04 22.2432C56.9658 22.2433 60.725 23.7551 63.4917 26.4351L64.1875 25.7168L64.8833 24.9985C61.7371 21.951 57.4763 20.2433 53.0401 20.2432L53.04 21.2432ZM64.1875 25.7168L63.4917 26.435C66.2571 29.1139 67.8047 32.7404 67.8047 36.5146H68.8047H69.8047C69.8047 32.1891 68.0304 28.0472 64.8833 24.9985L64.1875 25.7168ZM68.8047 36.5146L67.8047 36.5146C67.8046 40.2889 66.2572 43.9154 63.4917 46.5942L64.1875 47.3125L64.8833 48.0308C68.0305 44.9821 69.8046 40.8402 69.8047 36.5147L68.8047 36.5146ZM64.1875 47.3125L63.4917 46.5942C60.7251 49.2741 56.9659 50.7851 53.04 50.7852L53.04 51.7852L53.0401 52.7852C57.4762 52.7851 61.737 51.0784 64.8833 48.0308L64.1875 47.3125ZM15.7666 51.7852L15.7677 50.7852C11.8428 50.7807 8.08562 49.2684 5.31977 46.5893L4.62402 47.3076L3.92828 48.0259C7.07328 51.0722 11.3313 52.7801 15.7655 52.7852L15.7666 51.7852ZM4.62402 47.3076L5.31978 46.5893C2.55499 43.9112 1.00564 40.2867 1.00098 36.5134L0.000976562 36.5146L-0.999023 36.5159C-0.993683 40.8396 0.782288 44.9785 3.92827 48.0259L4.62402 47.3076ZM0.000976562 36.5146H1.00098C1.00098 21.0247 9.58368 8.98027 16.8739 1.55201L16.1602 0.851562L15.4464 0.151119C7.99494 7.74376 -0.999023 20.2665 -0.999023 36.5146H0.000976562ZM16.1602 0.851562L16.8739 1.55201C16.9127 1.51239 16.9615 1.47898 17.0177 1.45562L16.6338 0.532227L16.2499 -0.391163C15.9491 -0.266087 15.6753 -0.082058 15.4465 0.151115L16.1602 0.851562ZM16.6338 0.532227L17.0175 1.45568C17.0732 1.43252 17.1353 1.41991 17.1991 1.41992L17.1992 0.419922L17.1993 -0.580078C16.8746 -0.580112 16.5515 -0.51646 16.2501 -0.391228L16.6338 0.532227ZM17.1992 0.419922V1.41992H20.0654V0.419922V-0.580078H17.1992V0.419922ZM20.0654 0.419922L20.0654 1.41992C20.1483 1.41992 20.2286 1.44163 20.2974 1.48087L20.793 0.612305L21.2886 -0.256256C20.9165 -0.468563 20.4943 -0.580078 20.0654 -0.580078L20.0654 0.419922ZM20.793 0.612305L20.2974 1.48085C20.3668 1.52048 20.4185 1.57394 20.4515 1.63158L21.3193 1.13477L22.1872 0.637955C21.9722 0.262314 21.6598 -0.0444107 21.2886 -0.256245L20.793 0.612305ZM21.3193 1.13477L20.4514 1.6314C20.4842 1.68884 20.5002 1.75312 20.4984 1.81763L21.498 1.84473L22.4977 1.87182C22.5094 1.44088 22.4025 1.01419 22.1873 0.63813L21.3193 1.13477ZM21.498 1.84473L20.4984 1.81747C20.4967 1.88192 20.4774 1.94534 20.441 2.00178L21.2812 2.54395L22.1215 3.08611C22.3562 2.72239 22.4859 2.30283 22.4977 1.87198L21.498 1.84473ZM21.2812 2.54395L20.446 1.99405C16.6294 7.79107 14.2284 14.3582 13.4286 21.1943L14.4219 21.3105L15.4151 21.4267C16.1783 14.9034 18.4698 8.6328 22.1165 3.09384L21.2812 2.54395ZM14.4219 21.3105L14.5059 22.307C14.9408 22.2703 15.3543 22.2432 15.7666 22.2432V21.2432V20.2432C15.2703 20.2432 14.7915 20.2758 14.3378 20.3141L14.4219 21.3105ZM15.7666 21.2432L15.7666 22.2432C19.6923 22.2433 23.4516 23.7551 26.2183 26.4351L26.9141 25.7168L27.6098 24.9985C24.4637 21.951 20.2029 20.2433 15.7666 20.2432L15.7666 21.2432ZM26.9141 25.7168L26.2183 26.435C28.9837 29.1139 30.5312 32.7404 30.5312 36.5146H31.5312H32.5312C32.5312 32.1891 30.757 28.0472 27.6098 24.9985L26.9141 25.7168ZM31.5312 36.5146L30.5312 36.5146C30.5312 40.2889 28.9838 43.9154 26.2183 46.5942L26.9141 47.3125L27.6098 48.0308C30.7571 44.9821 32.5312 40.8402 32.5312 36.5147L31.5312 36.5146ZM26.9141 47.3125L26.2183 46.5942C23.4517 49.2741 19.6925 50.7851 15.7666 50.7852L15.7666 51.7852L15.7666 52.7852C20.2027 52.7851 24.4636 51.0784 27.6098 48.0308L26.9141 47.3125Z" fill="url(#paint0_linear_2571_41110)" fill-opacity="0.72" mask="url(#path-1-inside-1_2571_41110)"/>
<path d="M53.04 51.7852L53.0389 52.7852H53.0401L53.04 51.7852ZM41.8975 47.3076L41.2017 48.0259L41.2017 48.0259L41.8975 47.3076ZM37.2744 36.5146H36.2744V36.5159L37.2744 36.5146ZM53.4336 0.851562L52.7199 0.151115L52.7199 0.151119L53.4336 0.851562ZM53.9072 0.532227L53.5235 -0.391228L53.5234 -0.391163L53.9072 0.532227ZM54.4727 0.419922L54.4726 1.41992H54.4727V0.419922ZM57.3389 0.419922V1.41992H57.3389L57.3389 0.419922ZM58.0664 0.612305L58.562 -0.256245L58.562 -0.256252L58.0664 0.612305ZM58.5928 1.13477L59.4607 0.63813L59.4606 0.637955L58.5928 1.13477ZM58.7715 1.84473L59.7711 1.87198L59.7711 1.87182L58.7715 1.84473ZM58.5547 2.54395L59.39 3.09387L59.395 3.08611L58.5547 2.54395ZM51.6953 21.3105L50.7021 21.1943L50.5599 22.4099L51.7794 22.307L51.6953 21.3105ZM53.04 21.2432L53.0401 20.2432H53.04V21.2432ZM64.1875 25.7168L64.8833 24.9985L64.8833 24.9985L64.1875 25.7168ZM68.8047 36.5146L69.8047 36.5147V36.5146H68.8047ZM64.1875 47.3125L64.8833 48.0308L64.8833 48.0308L64.1875 47.3125ZM15.7666 51.7852L15.7655 52.7852H15.7666L15.7666 51.7852ZM4.62402 47.3076L3.92827 48.0259L3.92828 48.0259L4.62402 47.3076ZM0.000976562 36.5146H-0.999023V36.5159L0.000976562 36.5146ZM16.1602 0.851562L15.4465 0.151115L15.4464 0.151119L16.1602 0.851562ZM16.6338 0.532227L16.2501 -0.391228L16.2499 -0.391163L16.6338 0.532227ZM17.1992 0.419922L17.1991 1.41992H17.1992V0.419922ZM20.0654 0.419922V1.41992H20.0654L20.0654 0.419922ZM20.793 0.612305L21.2886 -0.256245L21.2886 -0.256256L20.793 0.612305ZM21.3193 1.13477L22.1873 0.63813L22.1872 0.637955L21.3193 1.13477ZM21.498 1.84473L22.4977 1.87198L22.4977 1.87182L21.498 1.84473ZM21.2812 2.54395L22.1165 3.09387L22.1215 3.08611L21.2812 2.54395ZM14.4219 21.3105L13.4286 21.1943L13.2864 22.4099L14.5059 22.307L14.4219 21.3105ZM15.7666 21.2432L15.7666 20.2432H15.7666V21.2432ZM26.9141 25.7168L27.6098 24.9985L27.6098 24.9985L26.9141 25.7168ZM31.5312 36.5146L32.5312 36.5147V36.5146H31.5312ZM26.9141 47.3125L27.6098 48.0308L27.6098 48.0308L26.9141 47.3125ZM53.04 51.7852L53.0412 50.7852C49.1163 50.7807 45.3591 49.2684 42.5932 46.5893L41.8975 47.3076L41.2017 48.0259C44.3467 51.0722 48.6047 52.7801 53.0389 52.7852L53.04 51.7852ZM41.8975 47.3076L42.5932 46.5893C39.8284 43.9112 38.2791 40.2867 38.2744 36.5134L37.2744 36.5146L36.2744 36.5159C36.2798 40.8396 38.0557 44.9785 41.2017 48.0259L41.8975 47.3076ZM37.2744 36.5146H38.2744C38.2744 21.0247 46.8571 8.98027 54.1473 1.55201L53.4336 0.851562L52.7199 0.151119C45.2684 7.74376 36.2744 20.2665 36.2744 36.5146H37.2744ZM53.4336 0.851562L54.1473 1.55201C54.1862 1.51239 54.2349 1.47898 54.2911 1.45562L53.9072 0.532227L53.5234 -0.391163C53.2225 -0.266087 52.9487 -0.082058 52.7199 0.151115L53.4336 0.851562ZM53.9072 0.532227L54.2909 1.45568C54.3467 1.43252 54.4087 1.41991 54.4726 1.41992L54.4727 0.419922L54.4728 -0.580078C54.148 -0.580112 53.8249 -0.51646 53.5235 -0.391228L53.9072 0.532227ZM54.4727 0.419922V1.41992H57.3389V0.419922V-0.580078H54.4727V0.419922ZM57.3389 0.419922L57.3389 1.41992C57.4217 1.41992 57.5021 1.44163 57.5708 1.48086L58.0664 0.612305L58.562 -0.256252C58.1899 -0.468563 57.7677 -0.580078 57.3389 -0.580078L57.3389 0.419922ZM58.0664 0.612305L57.5708 1.48085C57.6403 1.52048 57.6919 1.57394 57.7249 1.63158L58.5928 1.13477L59.4606 0.637955C59.2456 0.262314 58.9333 -0.0444107 58.562 -0.256245L58.0664 0.612305ZM58.5928 1.13477L57.7248 1.6314C57.7577 1.68884 57.7736 1.75312 57.7719 1.81763L58.7715 1.84473L59.7711 1.87182C59.7828 1.44088 59.6759 1.01419 59.4607 0.63813L58.5928 1.13477ZM58.7715 1.84473L57.7719 1.81747C57.7701 1.88192 57.7508 1.94534 57.7144 2.00178L58.5547 2.54395L59.395 3.08611C59.6296 2.72239 59.7594 2.30283 59.7711 1.87198L58.7715 1.84473ZM58.5547 2.54395L57.7195 1.99405C53.9028 7.79107 51.5019 14.3582 50.7021 21.1943L51.6953 21.3105L52.6885 21.4267C53.4517 14.9034 55.7432 8.6328 59.3899 3.09384L58.5547 2.54395ZM51.6953 21.3105L51.7794 22.307C52.2143 22.2703 52.6277 22.2432 53.04 22.2432V21.2432V20.2432C52.5438 20.2432 52.0649 20.2758 51.6112 20.3141L51.6953 21.3105ZM53.04 21.2432L53.04 22.2432C56.9658 22.2433 60.725 23.7551 63.4917 26.4351L64.1875 25.7168L64.8833 24.9985C61.7371 21.951 57.4763 20.2433 53.0401 20.2432L53.04 21.2432ZM64.1875 25.7168L63.4917 26.435C66.2571 29.1139 67.8047 32.7404 67.8047 36.5146H68.8047H69.8047C69.8047 32.1891 68.0304 28.0472 64.8833 24.9985L64.1875 25.7168ZM68.8047 36.5146L67.8047 36.5146C67.8046 40.2889 66.2572 43.9154 63.4917 46.5942L64.1875 47.3125L64.8833 48.0308C68.0305 44.9821 69.8046 40.8402 69.8047 36.5147L68.8047 36.5146ZM64.1875 47.3125L63.4917 46.5942C60.7251 49.2741 56.9659 50.7851 53.04 50.7852L53.04 51.7852L53.0401 52.7852C57.4762 52.7851 61.737 51.0784 64.8833 48.0308L64.1875 47.3125ZM15.7666 51.7852L15.7677 50.7852C11.8428 50.7807 8.08562 49.2684 5.31977 46.5893L4.62402 47.3076L3.92828 48.0259C7.07328 51.0722 11.3313 52.7801 15.7655 52.7852L15.7666 51.7852ZM4.62402 47.3076L5.31978 46.5893C2.55499 43.9112 1.00564 40.2867 1.00098 36.5134L0.000976562 36.5146L-0.999023 36.5159C-0.993683 40.8396 0.782288 44.9785 3.92827 48.0259L4.62402 47.3076ZM0.000976562 36.5146H1.00098C1.00098 21.0247 9.58368 8.98027 16.8739 1.55201L16.1602 0.851562L15.4464 0.151119C7.99494 7.74376 -0.999023 20.2665 -0.999023 36.5146H0.000976562ZM16.1602 0.851562L16.8739 1.55201C16.9127 1.51239 16.9615 1.47898 17.0177 1.45562L16.6338 0.532227L16.2499 -0.391163C15.9491 -0.266087 15.6753 -0.082058 15.4465 0.151115L16.1602 0.851562ZM16.6338 0.532227L17.0175 1.45568C17.0732 1.43252 17.1353 1.41991 17.1991 1.41992L17.1992 0.419922L17.1993 -0.580078C16.8746 -0.580112 16.5515 -0.51646 16.2501 -0.391228L16.6338 0.532227ZM17.1992 0.419922V1.41992H20.0654V0.419922V-0.580078H17.1992V0.419922ZM20.0654 0.419922L20.0654 1.41992C20.1483 1.41992 20.2286 1.44163 20.2974 1.48087L20.793 0.612305L21.2886 -0.256256C20.9165 -0.468563 20.4943 -0.580078 20.0654 -0.580078L20.0654 0.419922ZM20.793 0.612305L20.2974 1.48085C20.3668 1.52048 20.4185 1.57394 20.4515 1.63158L21.3193 1.13477L22.1872 0.637955C21.9722 0.262314 21.6598 -0.0444107 21.2886 -0.256245L20.793 0.612305ZM21.3193 1.13477L20.4514 1.6314C20.4842 1.68884 20.5002 1.75312 20.4984 1.81763L21.498 1.84473L22.4977 1.87182C22.5094 1.44088 22.4025 1.01419 22.1873 0.63813L21.3193 1.13477ZM21.498 1.84473L20.4984 1.81747C20.4967 1.88192 20.4774 1.94534 20.441 2.00178L21.2812 2.54395L22.1215 3.08611C22.3562 2.72239 22.4859 2.30283 22.4977 1.87198L21.498 1.84473ZM21.2812 2.54395L20.446 1.99405C16.6294 7.79107 14.2284 14.3582 13.4286 21.1943L14.4219 21.3105L15.4151 21.4267C16.1783 14.9034 18.4698 8.6328 22.1165 3.09384L21.2812 2.54395ZM14.4219 21.3105L14.5059 22.307C14.9408 22.2703 15.3543 22.2432 15.7666 22.2432V21.2432V20.2432C15.2703 20.2432 14.7915 20.2758 14.3378 20.3141L14.4219 21.3105ZM15.7666 21.2432L15.7666 22.2432C19.6923 22.2433 23.4516 23.7551 26.2183 26.4351L26.9141 25.7168L27.6098 24.9985C24.4637 21.951 20.2029 20.2433 15.7666 20.2432L15.7666 21.2432ZM26.9141 25.7168L26.2183 26.435C28.9837 29.1139 30.5312 32.7404 30.5312 36.5146H31.5312H32.5312C32.5312 32.1891 30.757 28.0472 27.6098 24.9985L26.9141 25.7168ZM31.5312 36.5146L30.5312 36.5146C30.5312 40.2889 28.9838 43.9154 26.2183 46.5942L26.9141 47.3125L27.6098 48.0308C30.7571 44.9821 32.5312 40.8402 32.5312 36.5147L31.5312 36.5146ZM26.9141 47.3125L26.2183 46.5942C23.4517 49.2741 19.6925 50.7851 15.7666 50.7852L15.7666 51.7852L15.7666 52.7852C20.2027 52.7851 24.4636 51.0784 27.6098 48.0308L26.9141 47.3125Z" fill="url(#paint1_linear_2571_41110)" fill-opacity="0.88" mask="url(#path-1-inside-1_2571_41110)"/>
<defs>
<linearGradient id="paint0_linear_2571_41110" x1="34.3607" y1="-0.00349761" x2="52.8563" y2="65.3244" gradientUnits="userSpaceOnUse">
<stop stop-color="#C0C4CD"/>
<stop offset="0.317357" stop-color="#C0C4CD" stop-opacity="0.5"/>
<stop offset="0.570084" stop-color="#C0C4CD" stop-opacity="0.1"/>
<stop offset="0.872516" stop-color="#C0C4CD" stop-opacity="0"/>
</linearGradient>
<linearGradient id="paint1_linear_2571_41110" x1="17.8819" y1="1.54423" x2="23.2119" y2="12.3792" gradientUnits="userSpaceOnUse">
<stop stop-color="#C0C4CD" stop-opacity="0.51"/>
<stop offset="1" stop-color="#C0C4CD" stop-opacity="0"/>
</linearGradient>
</defs>
</svg>
