<svg width="56" height="56" viewBox="0 0 56 56" fill="none" xmlns="http://www.w3.org/2000/svg">
  <circle cx="13.8" cy="4.32" r="1.72" fill="currentColor" />
  <circle cx="23.27" cy="4.32" r="3.01" fill="currentColor" />
  <circle cx="32.73" cy="4.32" r="3.01" fill="currentColor" />
  <circle cx="42.21" cy="4.32" r="1.72" fill="currentColor" />
  <circle cx="4.33" cy="13.8" r="1.72" fill="currentColor" />
  <circle cx="13.8" cy="13.79" r="3.01" fill="currentColor" />
  <circle cx="23.26" cy="13.8" r="1.72" fill="currentColor" />
  <circle cx="32.73" cy="13.8" r="1.72" fill="currentColor" />
  <circle cx="42.2" cy="13.79" r="3.01" fill="currentColor" />
  <circle cx="51.67" cy="13.8" r="1.72" fill="currentColor" />
  <circle cx="4.32" cy="23.27" r="3.01" fill="currentColor" />
  <circle cx="13.8" cy="23.26" r="1.72" fill="currentColor" />
  <circle cx="23.27" cy="23.27" r="0.86" fill="currentColor" />
  <circle cx="32.74" cy="23.27" r="0.86" fill="currentColor" />
  <circle cx="42.21" cy="23.26" r="1.72" fill="currentColor" />
  <circle cx="51.67" cy="23.27" r="3.01" fill="currentColor" />
  <circle cx="4.32" cy="32.73" r="3.01" fill="currentColor" />
  <circle cx="13.8" cy="32.73" r="1.72" fill="currentColor" />
  <circle cx="23.27" cy="32.74" r="0.86" fill="currentColor" />
  <circle cx="32.74" cy="32.74" r="0.86" fill="currentColor" />
  <circle cx="42.21" cy="32.73" r="1.72" fill="currentColor" />
  <circle cx="51.67" cy="32.73" r="3.01" fill="currentColor" />
  <circle cx="4.33" cy="42.21" r="1.72" fill="currentColor" />
  <circle cx="13.8" cy="42.2" r="3.01" fill="currentColor" />
  <circle cx="23.26" cy="42.21" r="1.72" fill="currentColor" />
  <circle cx="32.73" cy="42.21" r="1.72" fill="currentColor" />
  <circle cx="42.2" cy="42.2" r="3.01" fill="currentColor" />
  <circle cx="51.67" cy="42.21" r="1.72" fill="currentColor" />
  <circle cx="13.8" cy="51.67" r="1.72" fill="currentColor" />
  <circle cx="23.27" cy="51.67" r="3.01" fill="currentColor" />
  <circle cx="32.73" cy="51.67" r="3.01" fill="currentColor" />
  <circle cx="42.21" cy="51.67" r="1.72" fill="currentColor" />
</svg>
