<svg width="56" height="56" viewBox="0 0 56 56" fill="none" xmlns="http://www.w3.org/2000/svg">
  <circle cx="51.96" cy="4.04" r="2.86" fill="currentColor" />
  <circle cx="39.26" cy="4.04" r="2.86" fill="currentColor" />
  <circle cx="45.61" cy="10.39" r="2.86" fill="currentColor" />
  <circle cx="51.96" cy="16.74" r="2.86" fill="currentColor" />
  <circle cx="26.56" cy="4.04" r="2.86" fill="currentColor" />
  <circle cx="32.91" cy="10.39" r="2.04" fill="currentColor" />
  <circle cx="39.26" cy="16.74" r="2.04" fill="currentColor" />
  <circle cx="45.61" cy="23.09" r="2.04" fill="currentColor" />
  <circle cx="51.96" cy="29.44" r="2.86" fill="currentColor" />
  <circle cx="20.21" cy="10.39" r="2.04" fill="currentColor" />
  <circle cx="26.56" cy="16.74" r="1.63" fill="currentColor" />
  <circle cx="32.91" cy="23.09" r="2.04" fill="currentColor" />
  <circle cx="39.26" cy="29.44" r="1.63" fill="currentColor" />
  <circle cx="45.61" cy="35.8" r="2.04" fill="currentColor" />
  <circle cx="13.86" cy="16.74" r="1.63" fill="currentColor" />
  <circle cx="20.21" cy="23.09" r="1.22" fill="currentColor" />
  <circle cx="26.56" cy="29.44" r="1.63" fill="currentColor" />
  <circle cx="32.91" cy="35.79" r="1.22" fill="currentColor" />
  <circle cx="39.26" cy="42.14" r="1.63" fill="currentColor" />
  <circle cx="7.51" cy="23.09" r="1.22" fill="currentColor" />
  <circle cx="13.86" cy="29.44" r="0.82" fill="currentColor" />
  <circle cx="20.21" cy="35.79" r="1.22" fill="currentColor" />
  <circle cx="26.56" cy="42.15" r="0.82" fill="currentColor" />
  <circle cx="32.91" cy="48.49" r="1.22" fill="currentColor" />
  <circle cx="1.15" cy="29.44" r="0.82" fill="currentColor" />
  <circle cx="13.86" cy="42.15" r="0.82" fill="currentColor" />
  <circle cx="26.56" cy="54.85" r="0.82" fill="currentColor" />
</svg>
