<svg width="14" height="14" viewBox="0 0 14 14" fill="none" xmlns="http://www.w3.org/2000/svg">
  <path fill-rule="evenodd" clip-rule="evenodd" d="M7.0089 0.0263869C5.34502 0.0246567 3.73492 0.629199 2.46714 1.73168C1.19935 2.83416 0.356753 4.36251 0.0903458 6.04285C-0.176062 7.72318 0.151136 9.44565 1.01329 10.9016C1.87545 12.3575 3.21622 13.4518 4.79533 13.9882C5.14348 14.0542 5.27243 13.8299 5.27243 13.6408C5.27243 13.4517 5.27243 13.0208 5.27243 12.4227C3.32535 12.8625 2.91272 11.4641 2.91272 11.4641C2.78297 11.0307 2.50735 10.6583 2.13474 10.4131C1.50291 9.97337 2.18632 9.97337 2.18632 9.97337C2.4078 10.0054 2.61927 10.0885 2.80469 10.2165C2.99012 10.3445 3.14465 10.514 3.25657 10.7121C3.35168 10.8886 3.47989 11.044 3.63387 11.1696C3.78784 11.2952 3.96455 11.3885 4.15384 11.4441C4.34313 11.4996 4.54128 11.5164 4.73692 11.4934C4.93257 11.4705 5.12185 11.4082 5.29391 11.3102C5.32089 10.9484 5.47333 10.6084 5.72373 10.3516C4.16779 10.1713 2.53447 9.55562 2.53447 6.81162C2.52379 6.10055 2.78079 5.4125 3.25227 4.88994C3.04186 4.27174 3.06641 3.59519 3.32104 2.99465C3.32104 2.99465 3.90989 2.80116 5.24663 3.72902C6.3945 3.40659 7.60609 3.40659 8.75396 3.72902C10.0907 2.80116 10.6753 2.99465 10.6753 2.99465C10.9326 3.59434 10.9587 4.27139 10.7483 4.88994C11.2198 5.4125 11.4768 6.10055 11.4661 6.81162C11.4661 9.56441 9.82851 10.1669 8.26827 10.3296C8.43557 10.5016 8.56476 10.7085 8.64707 10.9361C8.72939 11.1637 8.76291 11.4068 8.74537 11.6488C8.74537 12.6074 8.74537 13.3814 8.74537 13.6144C8.74537 13.8475 8.87002 14.0278 9.22677 13.9618C10.8009 13.4203 12.1358 12.3244 12.9935 10.8694C13.8511 9.4144 14.1757 7.69504 13.9093 6.01797C13.6428 4.3409 12.8028 2.81518 11.5389 1.71294C10.2751 0.610705 8.66963 0.00363151 7.0089 0V0.0263869Z" fill="currentColor" />
</svg>