<svg width="222" height="82" viewBox="0 0 222 82" fill="none" xmlns="http://www.w3.org/2000/svg">
<path d="M77.352 33.352C78.3333 33.352 79.0373 33.5653 79.464 33.992C79.9333 34.4187 80.168 34.9733 80.168 35.656C80.168 36.7653 79.8267 37.7467 79.144 38.6C78.504 39.4533 77.48 39.9013 76.072 39.944C72.7013 39.9867 69.672 39.7307 66.984 39.176C63.9973 45.5333 60.392 50.824 56.168 55.048C51.9867 59.2293 47.848 61.32 43.752 61.32C39.9973 61.32 37.1813 59.336 35.304 55.368C33.4267 51.3573 32.36 46.0027 32.104 39.304C29.544 46.728 26.6427 52.2533 23.4 55.88C20.2 59.5067 16.7867 61.32 13.16 61.32C9.064 61.32 5.97067 58.7813 3.88 53.704C1.78933 48.584 0.744 41.7147 0.744 33.096C0.744 26.824 1.29867 19.9333 2.408 12.424C2.70667 10.2907 3.24 8.81866 4.008 8.008C4.81867 7.15466 6.07733 6.728 7.784 6.728C9.064 6.728 10.0453 7.00533 10.728 7.56C11.4533 8.11466 11.816 9.13866 11.816 10.632C11.816 10.9307 11.7733 11.5067 11.688 12.36C10.408 21.1067 9.768 28.552 9.768 34.696C9.768 40.4133 10.2587 44.8293 11.24 47.944C12.2213 51.0587 13.544 52.616 15.208 52.616C16.7013 52.616 18.4933 51.0587 20.584 47.944C22.7173 44.7867 24.8293 40.136 26.92 33.992C29.0107 27.8053 30.7813 20.4453 32.232 11.912C32.5733 9.94933 33.192 8.60533 34.088 7.88C35.0267 7.112 36.2853 6.728 37.864 6.728C39.1867 6.728 40.1467 7.02666 40.744 7.624C41.384 8.17866 41.704 9.032 41.704 10.184C41.704 10.8667 41.6613 11.4 41.576 11.784C40.3813 18.7387 39.784 25.6933 39.784 32.648C39.784 37.384 39.9333 41.16 40.232 43.976C40.5733 46.792 41.192 48.9467 42.088 50.44C43.0267 51.8907 44.3707 52.616 46.12 52.616C48.168 52.616 50.4507 51.08 52.968 48.008C55.4853 44.8933 57.7893 41.032 59.88 36.424C57.2773 34.8027 55.3147 32.712 53.992 30.152C52.6693 27.5493 52.008 24.5627 52.008 21.192C52.008 17.8213 52.52 14.984 53.544 12.68C54.6107 10.3333 56.04 8.584 57.832 7.432C59.6667 6.28 61.6933 5.704 63.912 5.704C66.6427 5.704 68.7973 6.68533 70.376 8.648C71.9973 10.6107 72.808 13.2987 72.808 16.712C72.808 21.5333 71.7627 26.888 69.672 32.776C71.848 33.16 74.408 33.352 77.352 33.352ZM58.472 20.744C58.472 24.9253 59.816 28.0187 62.504 30.024C64.168 25.2453 65 21.2987 65 18.184C65 16.392 64.7653 15.0907 64.296 14.28C63.8267 13.4267 63.1867 13 62.376 13C61.224 13 60.2853 13.6827 59.56 15.048C58.8347 16.3707 58.472 18.2693 58.472 20.744ZM109.467 46.728C110.022 46.728 110.448 46.984 110.747 47.496C111.088 48.008 111.259 48.712 111.259 49.608C111.259 51.3147 110.854 52.6373 110.043 53.576C108.08 55.8373 106.054 57.6933 103.963 59.144C101.915 60.5947 99.5683 61.32 96.923 61.32C94.747 61.32 93.1043 60.7013 91.995 59.464C90.8857 58.184 90.331 56.3493 90.331 53.96C90.331 52.7653 90.6297 50.632 91.227 47.56C91.7817 44.872 92.059 43.016 92.059 41.992C92.059 41.3093 91.8243 40.968 91.355 40.968C90.8003 40.968 90.011 41.6933 88.987 43.144C87.963 44.552 86.939 46.4293 85.915 48.776C84.891 51.1227 84.059 53.5973 83.419 56.2C82.6083 59.6133 80.603 61.32 77.403 61.32C76.123 61.32 75.2697 60.872 74.843 59.976C74.459 59.0373 74.267 57.3733 74.267 54.984C74.267 53.6187 74.2883 52.5307 74.331 51.72L74.395 46.6C74.395 40.0293 75.0563 33.1813 76.379 26.056C77.7443 18.9307 79.7283 12.9573 82.331 8.136C84.9763 3.272 88.1337 0.839996 91.803 0.839996C93.7657 0.839996 95.3443 1.69333 96.539 3.4C97.7763 5.064 98.395 7.24 98.395 9.928C98.395 14.2373 97.1363 18.7173 94.619 23.368C92.1017 27.976 88.0057 33.3733 82.331 39.56C82.203 41.7787 82.139 44.0613 82.139 46.408C83.547 42.7813 85.1043 39.8373 86.811 37.576C88.5603 35.272 90.267 33.6293 91.931 32.648C93.6377 31.6667 95.195 31.176 96.603 31.176C99.3763 31.176 100.763 32.5627 100.763 35.336C100.763 37 100.294 40.008 99.355 44.36C98.5443 48.072 98.139 50.5253 98.139 51.72C98.139 53.4267 98.7577 54.28 99.995 54.28C100.848 54.28 101.851 53.768 103.003 52.744C104.198 51.6773 105.776 49.9707 107.739 47.624C108.251 47.0267 108.827 46.728 109.467 46.728ZM90.459 7.176C89.691 7.176 88.8377 8.28533 87.899 10.504C86.9603 12.68 86.043 15.6453 85.147 19.4C84.2937 23.112 83.5897 27.1653 83.035 31.56C85.6803 28.4453 87.8563 25.0533 89.563 21.384C91.3123 17.7147 92.187 14.3867 92.187 11.4C92.187 10.0347 92.0377 8.98933 91.739 8.264C91.4403 7.53866 91.0137 7.176 90.459 7.176ZM113.944 61.32C111.299 61.32 109.187 60.36 107.608 58.44C106.029 56.52 105.24 54.0027 105.24 50.888C105.24 47.4747 106.029 44.2533 107.608 41.224C109.187 38.152 111.277 35.6987 113.88 33.864C116.525 31.9867 119.32 31.048 122.264 31.048C123.203 31.048 123.821 31.24 124.12 31.624C124.461 31.9653 124.739 32.6053 124.952 33.544C125.848 33.3733 126.787 33.288 127.768 33.288C129.859 33.288 130.904 34.0347 130.904 35.528C130.904 36.424 130.584 38.5573 129.944 41.928C128.963 46.8347 128.472 50.248 128.472 52.168C128.472 52.808 128.621 53.32 128.92 53.704C129.261 54.088 129.688 54.28 130.2 54.28C131.011 54.28 131.992 53.768 133.144 52.744C134.296 51.6773 135.853 49.9707 137.816 47.624C138.328 47.0267 138.904 46.728 139.544 46.728C140.099 46.728 140.525 46.984 140.824 47.496C141.165 48.008 141.336 48.712 141.336 49.608C141.336 51.3147 140.931 52.6373 140.12 53.576C138.371 55.752 136.515 57.5867 134.552 59.08C132.589 60.5733 130.691 61.32 128.856 61.32C127.448 61.32 126.147 60.8507 124.952 59.912C123.8 58.9307 122.925 57.608 122.328 55.944C120.109 59.528 117.315 61.32 113.944 61.32ZM116.248 54.856C117.187 54.856 118.083 54.3013 118.936 53.192C119.789 52.0827 120.408 50.6107 120.792 48.776L123.16 37C121.368 37.0427 119.704 37.7253 118.168 39.048C116.675 40.328 115.48 42.0347 114.584 44.168C113.688 46.3013 113.24 48.5627 113.24 50.952C113.24 52.2747 113.496 53.256 114.008 53.896C114.563 54.536 115.309 54.856 116.248 54.856ZM146.695 37.256C146.609 39.3893 146.567 41.0533 146.567 42.248C146.567 45.32 146.716 47.7307 147.015 49.48C147.356 51.1867 147.889 52.424 148.615 53.192C149.383 53.9173 150.428 54.28 151.751 54.28C152.433 54.28 153.244 54.0667 154.183 53.64C155.121 53.2133 155.975 52.6587 156.743 51.976C157.212 51.5493 157.681 51.336 158.151 51.336C158.663 51.336 159.068 51.6347 159.367 52.232C159.708 52.7867 159.879 53.4693 159.879 54.28C159.879 55.0907 159.708 55.88 159.367 56.648C159.068 57.416 158.599 58.056 157.959 58.568C155.74 60.4027 153.223 61.32 150.407 61.32C146.353 61.32 143.388 59.6347 141.51 56.264C139.633 52.8507 138.695 48.4133 138.695 42.952C138.695 41.0747 138.759 39.176 138.887 37.256H136.391C135.111 37.256 134.236 37.0213 133.767 36.552C133.34 36.0827 133.127 35.336 133.127 34.312C133.127 31.9227 134.087 30.728 136.007 30.728H139.655C140.38 26.0347 141.489 21.7467 142.983 17.864C144.476 13.9813 146.268 10.888 148.359 8.584C150.492 6.28 152.775 5.128 155.207 5.128C156.999 5.128 158.407 5.91733 159.431 7.496C160.455 9.07467 160.967 11.0587 160.967 13.448C160.967 20.0613 158.193 25.8213 152.647 30.728H159.815C160.497 30.728 160.988 30.8773 161.287 31.176C161.585 31.4747 161.735 32.0293 161.735 32.84C161.735 35.784 159.324 37.256 154.503 37.256H146.695ZM153.479 11.272C152.839 11.272 152.113 12.0827 151.303 13.704C150.535 15.2827 149.788 17.5013 149.062 20.36C148.38 23.176 147.804 26.312 147.335 29.768C149.852 27.592 151.729 25.16 152.967 22.472C154.247 19.7413 154.887 17.2667 154.887 15.048C154.887 12.5307 154.417 11.272 153.479 11.272ZM187.894 26.952C186.102 26.952 184.758 26.5467 183.862 25.736C182.966 24.8827 182.518 23.7093 182.518 22.216C182.518 20.7227 183.094 19.4853 184.246 18.504C185.44 17.48 186.912 16.968 188.662 16.968C190.24 16.968 191.52 17.352 192.502 18.12C193.483 18.888 193.974 19.976 193.974 21.384C193.974 23.0907 193.419 24.456 192.31 25.48C191.2 26.4613 189.728 26.952 187.894 26.952ZM187.382 61.32C184.608 61.32 182.582 60.3387 181.302 58.376C180.064 56.4133 179.446 53.8107 179.446 50.568C179.446 48.648 179.68 46.1947 180.15 43.208C180.662 40.1787 181.302 37.3627 182.07 34.76C182.454 33.3947 182.966 32.456 183.606 31.944C184.246 31.432 185.27 31.176 186.678 31.176C188.854 31.176 189.942 31.9013 189.942 33.352C189.942 34.4187 189.536 36.8933 188.726 40.776C187.702 45.4693 187.19 48.648 187.19 50.312C187.19 51.592 187.36 52.5733 187.702 53.256C188.043 53.9387 188.619 54.28 189.43 54.28C190.198 54.28 191.158 53.7467 192.31 52.68C193.462 51.6133 194.998 49.928 196.918 47.624C197.43 47.0267 198.006 46.728 198.646 46.728C199.2 46.728 199.627 46.984 199.926 47.496C200.267 48.008 200.438 48.712 200.438 49.608C200.438 51.3147 200.032 52.6373 199.222 53.576C194.998 58.7387 191.051 61.32 187.382 61.32ZM220.171 43.08C221.365 43.08 221.963 43.976 221.963 45.768C221.963 49.1387 219.317 50.824 214.027 50.824C213.003 50.824 211.531 50.632 209.611 50.248C210.165 52.8933 210.613 55.8373 210.955 59.08C211.339 62.28 211.531 64.9253 211.531 67.016C211.531 71.624 210.784 75.144 209.291 77.576C207.797 80.008 205.835 81.224 203.403 81.224C200.331 81.224 198.133 79.048 196.811 74.696C195.531 70.344 194.891 63.7733 194.891 54.984C194.891 46.792 195.765 38.4933 197.515 30.088C199.307 21.64 201.739 14.664 204.811 9.16C207.925 3.61333 211.339 0.839996 215.051 0.839996C217.056 0.839996 218.613 1.736 219.723 3.528C220.875 5.32 221.451 7.73066 221.451 10.76C221.451 20.7867 215.456 31.7093 203.467 43.528C203.04 47.7093 202.827 51.3787 202.827 54.536C202.827 58.9307 202.976 63.432 203.275 68.04C203.573 72.6907 204.064 75.016 204.747 75.016C206.027 75.016 206.667 72.7973 206.667 68.36C206.667 65.032 206.432 61.8107 205.963 58.696C205.536 55.5813 204.939 52.296 204.171 48.84C204.128 48.2853 204.299 47.5813 204.683 46.728C205.109 45.8747 205.621 45.128 206.219 44.488C206.816 43.848 207.349 43.528 207.819 43.528C208.672 43.528 209.696 43.5707 210.891 43.656C211.275 43.6987 211.723 43.72 212.235 43.72C213.941 43.72 215.84 43.5707 217.931 43.272C218.272 43.2293 218.635 43.1867 219.019 43.144C219.403 43.1013 219.787 43.08 220.171 43.08ZM213.707 7.176C212.939 7.176 211.979 8.47733 210.827 11.08C209.717 13.6827 208.608 17.1387 207.499 21.448C206.389 25.7147 205.429 30.2373 204.619 35.016C208.032 31.1333 210.656 27.1013 212.491 22.92C214.325 18.696 215.264 14.7493 215.307 11.08C215.307 8.47733 214.773 7.176 213.707 7.176Z" fill="white"/>
</svg>
