<svg width="164" height="24" viewBox="0 0 164 24" fill="none" xmlns="http://www.w3.org/2000/svg">
<path fill-rule="evenodd" clip-rule="evenodd" d="M12.8571 7.80002V0H24V24H0V12.8571H7.80002C8.1971 14.8134 9.92661 16.2857 12 16.2857C14.3669 16.2857 16.2857 14.3669 16.2857 12C16.2857 9.92661 14.8134 8.1971 12.8571 7.80002ZM22.2857 21.0735V1.71429L16.2426 7.75736C17.3284 8.84315 18 10.3431 18 12C18 13.3477 17.5557 14.5916 16.8055 15.5933L22.2857 21.0735ZM7.75736 16.2426L1.71429 22.2857H21.0735L15.5933 16.8055C14.5916 17.5557 13.3477 18 12 18C10.3431 18 8.84315 17.3284 7.75736 16.2426Z" fill="white"/>
<path d="M11.1429 7.80002C10.5957 7.91109 10.0864 8.12641 9.63652 8.42434L1.21218 0H11.1429V7.80002Z" fill="white"/>
<path d="M8.42434 9.63652L0 1.21218V11.1429H7.80002C7.91109 10.5957 8.12641 10.0864 8.42434 9.63652Z" fill="white"/>
<path d="M14.5714 12C14.5714 13.4202 13.4202 14.5714 12 14.5714C10.5798 14.5714 9.42857 13.4202 9.42857 12C9.42857 10.5798 10.5798 9.42857 12 9.42857C13.4202 9.42857 14.5714 10.5798 14.5714 12Z" fill="white"/>
<path d="M139 8V4L120 4V8H127V20H132V8H139Z" fill="white"/>
<path d="M34 4H54V8L42 16H54V20H34V16L46 8H34V4Z" fill="white"/>
<path d="M83 4H92L100 16V4H105V20H96L88 8V20H83V4Z" fill="white"/>
<path d="M115 4H110V20H115V4Z" fill="white"/>
<path d="M144 4H149V10H159V4H164V20H159V14H149V20H144V4Z" fill="white"/>
<path d="M59 4V20H78V16H64V14H74V10H64V8H78V4H59Z" fill="white"/>
</svg>
