<svg version="1.2" xmlns="http://www.w3.org/2000/svg" viewBox="0 0 102 29" width="102" height="29">
	<title>Neon Logo Color, Light Background - https://neon.tech</title>
	<defs>
		<linearGradient id="g1" x2="1" gradientUnits="userSpaceOnUse" gradientTransform="matrix(-24.889,-28.68,31.082,-26.974,28.759,28.356)">
			<stop offset="0" stop-color="#2ef51c" stop-opacity="1"/>
			<stop offset="1" stop-color="#2ef51c" stop-opacity="0"/>
		</linearGradient>
		<linearGradient id="g2" x2="1" gradientUnits="userSpaceOnUse" gradientTransform="matrix(-17.035,-6.714,6.892,-17.488,28.781,28.361)">
			<stop offset="0" stop-color="#000000" stop-opacity=".9"/>
			<stop offset="1" stop-color="#1a1a1a" stop-opacity="0"/>
		</linearGradient>
	</defs>
	<style>
		.s0 { fill: #32c0ed } 
		.s1 { fill: url(#g1) } 
		.s2 { opacity: .3;fill: url(#g2) } 
		.s3 { fill: #63f655 } 
		.s4 { fill: #1a1a1a } 
	</style>
	<path fill-rule="evenodd" class="s0" d="m0 4.9c0-2.7 2.2-4.9 5-4.9h18.8c2.8 0 5 2.2 5 4.9v15.8c0 2.8-3.6 4-5.3 1.8l-5.5-6.9v8.4c0 2.4-2 4.4-4.5 4.4h-8.5c-2.8 0-5-2.2-5-4.9zm5-1c-0.6 0-1 0.4-1 1v18.5c0 0.6 0.4 1 1 1h8.7c0.3 0 0.3-0.2 0.3-0.5v-11.2c0-2.8 3.6-4 5.4-1.8l5.4 6.9v-12.9c0-0.6 0.1-1-0.5-1z"/>
	<path fill-rule="evenodd" class="s1" d="m0 4.9c0-2.7 2.2-4.9 5-4.9h18.8c2.8 0 5 2.2 5 4.9v15.8c0 2.8-3.6 4-5.3 1.8l-5.5-6.9v8.4c0 2.4-2 4.4-4.5 4.4h-8.5c-2.8 0-5-2.2-5-4.9zm5-1c-0.6 0-1 0.4-1 1v18.5c0 0.6 0.4 1 1 1h8.7c0.3 0 0.3-0.2 0.3-0.5v-11.2c0-2.8 3.6-4 5.4-1.8l5.4 6.9v-12.9c0-0.6 0.1-1-0.5-1z"/>
	<path fill-rule="evenodd" class="s2" d="m0 4.9c0-2.7 2.2-4.9 5-4.9h18.8c2.8 0 5 2.2 5 4.9v15.8c0 2.8-3.6 4-5.3 1.8l-5.5-6.9v8.4c0 2.4-2 4.4-4.5 4.4h-8.5c-2.8 0-5-2.2-5-4.9zm5-1c-0.6 0-1 0.4-1 1v18.5c0 0.6 0.4 1 1 1h8.7c0.3 0 0.3-0.2 0.3-0.5v-11.2c0-2.8 3.6-4 5.4-1.8l5.4 6.9v-12.9c0-0.6 0.1-1-0.5-1z"/>
	<path class="s3" d="m23.8 0c2.8 0 5 2.2 5 4.9v15.8c0 2.8-3.6 4-5.3 1.8l-5.5-6.9v8.4c0 2.4-2 4.4-4.5 4.4 0.3 0 0.5-0.3 0.5-0.5v-15.2c0-2.7 3.6-4 5.4-1.8l5.4 6.9v-16.8c0-0.6-0.4-1-1-1z"/>
	<path class="s4" d="m48.5 8.4v7.4l-7.3-7.4h-3.8v12.1h3.5v-8l7.9 8h3.2v-12.1z"/>
	<path class="s4" d="m58.4 17.8v-2.2h7.8v-2.6h-7.8v-1.9h9.4v-2.7h-12.9v12.1h13.1v-2.7z"/>
	<path fill-rule="evenodd" class="s4" d="m69.2 14.4c0-4.1 3.1-6.4 8-6.4 4.9 0 8.1 2.3 8.1 6.4 0 4.1-3.2 6.5-8.1 6.5-4.9 0-8-2.4-8-6.5zm12.4 0c0-2-2-3.6-4.4-3.6-2.4 0-4.4 1.6-4.4 3.6 0 2 2 3.6 4.4 3.6 2.4 0 4.4-1.6 4.4-3.6z"/>
	<path class="s4" d="m98.5 8.4v7.4l-7.3-7.4h-3.8v12.1h3.5v-8l8 8h3.1v-12.1z"/>
</svg>