<svg width="118" height="36" viewBox="0 0 118 36" fill="none" xmlns="http://www.w3.org/2000/svg">
<path fill-rule="evenodd" clip-rule="evenodd" d="M0 6.2069C0 2.77892 2.77892 0 6.2069 0H29.7931C33.2211 0 36 2.77892 36 6.2069V26.2669C36 29.8134 31.5122 31.3525 29.3356 28.5526L22.531 19.7992V30.4138C22.531 33.499 20.03 36 16.9448 36H6.2069C2.77892 36 0 33.2211 0 29.7931V6.2069ZM6.2069 4.96552C5.5213 4.96552 4.96552 5.5213 4.96552 6.2069V29.7931C4.96552 30.4787 5.5213 31.0345 6.2069 31.0345H17.131C17.4738 31.0345 17.5655 30.7566 17.5655 30.4138V16.1797C17.5655 12.6333 22.0533 11.0941 24.2299 13.894L31.0345 22.6474V6.2069C31.0345 5.5213 31.0994 4.96552 30.4138 4.96552H6.2069Z" fill="#12FFF7"/>
<path fill-rule="evenodd" clip-rule="evenodd" d="M0 6.2069C0 2.77892 2.77892 0 6.2069 0H29.7931C33.2211 0 36 2.77892 36 6.2069V26.2669C36 29.8134 31.5122 31.3525 29.3356 28.5526L22.531 19.7992V30.4138C22.531 33.499 20.03 36 16.9448 36H6.2069C2.77892 36 0 33.2211 0 29.7931V6.2069ZM6.2069 4.96552C5.5213 4.96552 4.96552 5.5213 4.96552 6.2069V29.7931C4.96552 30.4787 5.5213 31.0345 6.2069 31.0345H17.131C17.4738 31.0345 17.5655 30.7566 17.5655 30.4138V16.1797C17.5655 12.6333 22.0533 11.0941 24.2299 13.894L31.0345 22.6474V6.2069C31.0345 5.5213 31.0994 4.96552 30.4138 4.96552H6.2069Z" fill="url(#paint0_linear_5472_4879)"/>
<path fill-rule="evenodd" clip-rule="evenodd" d="M0 6.2069C0 2.77892 2.77892 0 6.2069 0H29.7931C33.2211 0 36 2.77892 36 6.2069V26.2669C36 29.8134 31.5122 31.3525 29.3356 28.5526L22.531 19.7992V30.4138C22.531 33.499 20.03 36 16.9448 36H6.2069C2.77892 36 0 33.2211 0 29.7931V6.2069ZM6.2069 4.96552C5.5213 4.96552 4.96552 5.5213 4.96552 6.2069V29.7931C4.96552 30.4787 5.5213 31.0345 6.2069 31.0345H17.131C17.4738 31.0345 17.5655 30.7566 17.5655 30.4138V16.1797C17.5655 12.6333 22.0533 11.0941 24.2299 13.894L31.0345 22.6474V6.2069C31.0345 5.5213 31.0994 4.96552 30.4138 4.96552H6.2069Z" fill="url(#paint1_linear_5472_4879)"/>
<path d="M29.7931 0C33.2211 0 36 2.77892 36 6.2069V26.2669C36 29.8134 31.5122 31.3525 29.3356 28.5526L22.531 19.7992V30.4138C22.531 33.499 20.03 36 16.9448 36C17.2876 36 17.5655 35.7221 17.5655 35.3793V16.1797C17.5655 12.6333 22.0533 11.0941 24.2299 13.894L31.0345 22.6474V1.24138C31.0345 0.555784 30.4787 0 29.7931 0Z" fill="#B3FFAB"/>
<path d="M51.8648 20.9267L50.02 17.0486H49.9374V30.068H46V10.7328H50.5707L55.8297 19.8741L57.6745 23.7522H57.7571V10.7328H61.6945V30.068H57.1239L51.8648 20.9267Z" fill="white"/>
<path d="M65.9247 30.068V10.7328H79.0035V14.4724H70.1099V18.4336H77.7369V22.1455H70.1099V26.3284H79.0035V30.068H65.9247Z" fill="white"/>
<path d="M90.3592 30.4004C89.0927 30.4004 87.9362 30.188 86.8899 29.7633C85.8436 29.3385 84.9533 28.7106 84.2191 27.8796C83.4848 27.0301 82.9158 25.9867 82.512 24.7494C82.1081 23.4937 81.9062 22.044 81.9062 20.4004C81.9062 18.7568 82.1081 17.3164 82.512 16.0791C82.9158 14.8233 83.4848 13.7799 84.2191 12.9489C84.9533 12.0994 85.8436 11.4623 86.8899 11.0375C87.9362 10.6128 89.0927 10.4004 90.3592 10.4004C91.6258 10.4004 92.7823 10.6128 93.8286 11.0375C94.8749 11.4623 95.7651 12.0994 96.4994 12.9489C97.2336 13.7799 97.8027 14.8233 98.2065 16.0791C98.6103 17.3164 98.8123 18.7568 98.8123 20.4004C98.8123 22.044 98.6103 23.4937 98.2065 24.7494C97.8027 25.9867 97.2336 27.0301 96.4994 27.8796C95.7651 28.7106 94.8749 29.3385 93.8286 29.7633C92.7823 30.188 91.6258 30.4004 90.3592 30.4004ZM90.3592 26.6608C91.6258 26.6608 92.6079 26.2453 93.3054 25.4142C94.0213 24.5832 94.3792 23.3921 94.3792 21.8408V18.9599C94.3792 17.4087 94.0213 16.2176 93.3054 15.3865C92.6079 14.5555 91.6258 14.14 90.3592 14.14C89.0927 14.14 88.1014 14.5555 87.3855 15.3865C86.688 16.2176 86.3392 17.4087 86.3392 18.9599V21.8408C86.3392 23.3921 86.688 24.5832 87.3855 25.4142C88.1014 26.2453 89.0927 26.6608 90.3592 26.6608Z" fill="white"/>
<path d="M108.17 20.9267L106.325 17.0486H106.243V30.068H102.305V10.7328H106.876L112.135 19.8741L113.98 23.7522H114.063V10.7328H118V30.068H113.429L108.17 20.9267Z" fill="white"/>
<defs>
<linearGradient id="paint0_linear_5472_4879" x1="36" y1="36" x2="4.34484" y2="1.20333e-05" gradientUnits="userSpaceOnUse">
<stop stop-color="#B3FFAB"/>
<stop offset="1" stop-color="#B3FFAB" stop-opacity="0"/>
</linearGradient>
<linearGradient id="paint1_linear_5472_4879" x1="36" y1="36" x2="14.6172" y2="27.6828" gradientUnits="userSpaceOnUse">
<stop stop-opacity="0.9"/>
<stop offset="1" stop-opacity="0"/>
</linearGradient>
</defs>
</svg>
