<svg width="100" height="28" viewBox="0 0 100 28" fill="none" xmlns="http://www.w3.org/2000/svg">
<path d="M27.5421 0.00778666V28L16.7953 18.4918V27.8154H0V0L27.5421 0.00778666ZM3.3761 24.4393H13.4192V11.0836L24.1661 20.5916V3.38289L3.3761 3.37693V24.4393Z" fill="#34D59A"/>
<path d="M49.9709 23.1236L39.2251 13.6132V22.9371H35.8451V6.20068L46.591 15.7111V6.38716H49.9709V23.1236ZM53.6917 22.9371V6.38716H63.8082V9.72047H57.0716V12.9838H62.4096V16.2472H57.0716V19.6038H63.8082V22.9371H53.6917ZM74.2719 23.1236C69.5866 23.1236 65.8105 19.3474 65.8105 14.6621C65.8105 9.97687 69.5866 6.20068 74.2719 6.20068C78.9572 6.20068 82.7334 9.97687 82.7334 14.6621C82.7334 19.3474 78.9572 23.1236 74.2719 23.1236ZM74.2719 19.8602C77.1623 19.8602 79.3302 17.5293 79.3302 14.6621C79.3302 11.795 77.1623 9.46406 74.2719 9.46406C71.3815 9.46406 69.2137 11.795 69.2137 14.6621C69.2137 17.5293 71.3815 19.8602 74.2719 19.8602ZM99.1601 23.1236L88.4142 13.6132V22.9371H85.0343V6.20068L95.7801 15.7111V6.38716H99.1601V23.1236Z" fill="white"/>
</svg>
