<svg width="122" height="24" viewBox="0 0 122 24" fill="none" xmlns="http://www.w3.org/2000/svg">
<path fill-rule="evenodd" clip-rule="evenodd" d="M20.9634 21.8914C20.9634 20.7269 20.0193 19.7829 18.8548 19.7829H7.02205L19.5438 4.16535C19.9084 3.71065 20.107 3.14525 20.107 2.56244C20.107 1.14724 18.9598 0 17.5446 0H3.10193C1.9374 0 0.993362 0.94404 0.993362 2.10857C0.993362 3.2731 1.9374 4.21714 3.10193 4.21714H12.9822L0.551081 19.8772C0.194228 20.3268 0 20.8838 0 21.4578C0 22.8618 1.13819 24 2.54221 24H18.8548C20.0193 24 20.9634 23.056 20.9634 21.8914ZM40.7921 19.7829H30.1734V14.3314H39.3877V10.1143H30.1734V4.21714H40.7921V0H24.864V24H40.7921V19.7829ZM62.461 24C61.6031 24 60.7973 23.5888 60.2939 22.8942L50.5108 9.39429V21.311C50.5108 22.7772 49.3223 23.9657 47.8561 23.9657C46.39 23.9657 45.2015 22.7772 45.2015 21.311V2.70227C45.2015 1.20985 46.4113 0 47.9037 0C48.7671 0 49.5785 0.412544 50.0872 1.11015L59.8279 14.4686V2.65468C59.8279 1.18854 61.0164 0 62.4825 0C63.9487 0 65.1372 1.18854 65.1372 2.65468V21.3237C65.1372 22.8018 63.939 24 62.461 24ZM76.1351 0H70.8258V24H76.1351V0ZM79.8102 2.22857C79.8102 0.997765 80.808 0 82.0388 0H96.387C97.6178 0 98.6156 0.997765 98.6156 2.22857C98.6156 3.45938 97.6178 4.45714 96.387 4.45714H91.7991V21.3796C91.7991 22.8268 90.6259 24 89.1786 24C87.7314 24 86.5582 22.8268 86.5582 21.3796V4.45714H82.0388C80.808 4.45714 79.8102 3.45938 79.8102 2.22857ZM122 24V0H116.691V10.4229H107.579V0H102.27V24H107.579V14.64H116.691V24H122ZM18.3756 3C18.3756 3.82843 17.7013 4.5 16.8694 4.5C16.0376 4.5 15.3633 3.82843 15.3633 3C15.3633 2.17157 16.0376 1.5 16.8694 1.5C17.7013 1.5 18.3756 2.17157 18.3756 3ZM3.01235 22.5C3.84418 22.5 4.51852 21.8284 4.51852 21C4.51852 20.1716 3.84418 19.5 3.01235 19.5C2.18051 19.5 1.50617 20.1716 1.50617 21C1.50617 21.8284 2.18051 22.5 3.01235 22.5Z" fill="currentColor"/>
</svg>
