<svg width="128" height="36" viewBox="0 0 128 36" fill="none" xmlns="http://www.w3.org/2000/svg">
<path fill-rule="evenodd" clip-rule="evenodd" d="M0 6.2069C0 2.77892 2.77892 0 6.2069 0H29.7931C33.2211 0 36 2.77892 36 6.2069V26.2669C36 29.8134 31.5122 31.3525 29.3356 28.5526L22.531 19.7992V30.4138C22.531 33.499 20.03 36 16.9448 36H6.2069C2.77892 36 0 33.2211 0 29.7931V6.2069ZM6.2069 4.96552C5.5213 4.96552 4.96552 5.5213 4.96552 6.2069V29.7931C4.96552 30.4787 5.5213 31.0345 6.2069 31.0345H17.131C17.4738 31.0345 17.5655 30.7566 17.5655 30.4138V16.1797C17.5655 12.6333 22.0533 11.0941 24.2299 13.894L31.0345 22.6474V6.2069C31.0345 5.5213 31.0994 4.96552 30.4138 4.96552H6.2069Z" fill="#00E0D9"/>
<path fill-rule="evenodd" clip-rule="evenodd" d="M0 6.2069C0 2.77892 2.77892 0 6.2069 0H29.7931C33.2211 0 36 2.77892 36 6.2069V26.2669C36 29.8134 31.5122 31.3525 29.3356 28.5526L22.531 19.7992V30.4138C22.531 33.499 20.03 36 16.9448 36H6.2069C2.77892 36 0 33.2211 0 29.7931V6.2069ZM6.2069 4.96552C5.5213 4.96552 4.96552 5.5213 4.96552 6.2069V29.7931C4.96552 30.4787 5.5213 31.0345 6.2069 31.0345H17.131C17.4738 31.0345 17.5655 30.7566 17.5655 30.4138V16.1797C17.5655 12.6333 22.0533 11.0941 24.2299 13.894L31.0345 22.6474V6.2069C31.0345 5.5213 31.0994 4.96552 30.4138 4.96552H6.2069Z" fill="url(#paint0_linear_5646_4869)"/>
<path fill-rule="evenodd" clip-rule="evenodd" d="M0 6.2069C0 2.77892 2.77892 0 6.2069 0H29.7931C33.2211 0 36 2.77892 36 6.2069V26.2669C36 29.8134 31.5122 31.3525 29.3356 28.5526L22.531 19.7992V30.4138C22.531 33.499 20.03 36 16.9448 36H6.2069C2.77892 36 0 33.2211 0 29.7931V6.2069ZM6.2069 4.96552C5.5213 4.96552 4.96552 5.5213 4.96552 6.2069V29.7931C4.96552 30.4787 5.5213 31.0345 6.2069 31.0345H17.131C17.4738 31.0345 17.5655 30.7566 17.5655 30.4138V16.1797C17.5655 12.6333 22.0533 11.0941 24.2299 13.894L31.0345 22.6474V6.2069C31.0345 5.5213 31.0994 4.96552 30.4138 4.96552H6.2069Z" fill="url(#paint1_linear_5646_4869)" fill-opacity="0.4"/>
<path d="M29.7931 0C33.2211 0 36 2.77892 36 6.2069V26.2669C36 29.8134 31.5122 31.3525 29.3356 28.5526L22.531 19.7992V30.4138C22.531 33.499 20.03 36 16.9448 36C17.2876 36 17.5655 35.7221 17.5655 35.3793V16.1797C17.5655 12.6333 22.0533 11.0941 24.2299 13.894L31.0345 22.6474V1.24138C31.0345 0.555784 30.4787 0 29.7931 0Z" fill="#63F655"/>
<path d="M60.686 10.5998V20.0158L51.556 10.5998H46.804V25.9998H51.138V15.8798L61.082 25.9998H65.02V10.5998H60.686Z" fill="#1A1A1A"/>
<path d="M73.0541 22.5678V19.8398H82.7561V16.5618H73.0541V14.0318H84.8241V10.5998H68.6321V25.9998H85.0661V22.5678H73.0541Z" fill="#1A1A1A"/>
<path d="M96.583 26.5058C102.677 26.5058 106.637 23.5138 106.637 18.2998C106.637 13.0858 102.677 10.0938 96.583 10.0938C90.489 10.0938 86.551 13.0858 86.551 18.2998C86.551 23.5138 90.489 26.5058 96.583 26.5058ZM96.583 22.8538C93.195 22.8538 91.105 21.2038 91.105 18.2998C91.105 15.3958 93.217 13.7458 96.583 13.7458C99.971 13.7458 102.061 15.3958 102.061 18.2998C102.061 21.2038 99.971 22.8538 96.583 22.8538Z" fill="#1A1A1A"/>
<path d="M123.249 10.5998V20.0158L114.119 10.5998H109.367V25.9998H113.701V15.8798L123.645 25.9998H127.583V10.5998H123.249Z" fill="#1A1A1A"/>
<defs>
<linearGradient id="paint0_linear_5646_4869" x1="36" y1="36" x2="4.34484" y2="1.20333e-05" gradientUnits="userSpaceOnUse">
<stop stop-color="#62F755"/>
<stop offset="1" stop-color="#8FF986" stop-opacity="0"/>
</linearGradient>
<linearGradient id="paint1_linear_5646_4869" x1="36" y1="36" x2="14.6172" y2="27.6828" gradientUnits="userSpaceOnUse">
<stop stop-opacity="0.9"/>
<stop offset="1" stop-color="#1A1A1A" stop-opacity="0"/>
</linearGradient>
</defs>
</svg>
