<svg fill="none"
    xmlns="http://www.w3.org/2000/svg" viewBox="0 0 102 28">
    <path d="M27.542.008V28l-10.747-9.508v9.323H0V0l27.542.008ZM3.376 24.439H13.42V11.084l10.747 9.508V3.382l-20.79-.005v21.062Z" fill="#4EE8A5"/>
    <path d="m49.971 23.124-10.746-9.51v9.323h-3.38V6.201l10.746 9.51V6.387h3.38v16.737Zm3.72-.187V6.387h10.117V9.72h-6.736v3.264h5.338v3.263h-5.338v3.357h6.736v3.333H53.692Zm20.581.187a8.446 8.446 0 0 1-8.461-8.462 8.446 8.446 0 0 1 8.461-8.461 8.446 8.446 0 0 1 8.462 8.461 8.446 8.446 0 0 1-8.462 8.462Zm0-3.264c2.89 0 5.058-2.33 5.058-5.198 0-2.867-2.168-5.198-5.058-5.198-2.89 0-5.058 2.331-5.058 5.198 0 2.867 2.168 5.198 5.058 5.198Zm24.888 3.264-10.746-9.51v9.323h-3.38V6.201l10.746 9.51V6.387h3.38v16.737Z" fill="#1a1a1a"/>
</svg>