<svg width="102" height="28" viewBox="0 0 102 28" fill="none" xmlns="http://www.w3.org/2000/svg">
<path fill-rule="evenodd" clip-rule="evenodd" d="M0 4.82759C0 2.16138 2.17203 0 4.85137 0H23.2866C25.9659 0 28.1379 2.16138 28.1379 4.82759V20.4298C28.1379 23.1882 24.6302 24.3853 22.929 22.2076L17.6105 15.3994V23.6552C17.6105 26.0548 15.6556 28 13.2442 28H4.85137C2.17203 28 0 25.8386 0 23.1724V4.82759ZM4.85137 3.86207C4.3155 3.86207 3.88109 4.29435 3.88109 4.82759V23.1724C3.88109 23.7057 4.3155 24.1379 4.85137 24.1379H13.3898C13.6577 24.1379 13.7294 23.9218 13.7294 23.6552V12.5842C13.7294 9.82588 17.2371 8.62874 18.9383 10.8065L24.2568 17.6146V4.82759C24.2568 4.29435 24.3076 3.86207 23.7717 3.86207H4.85137Z" fill="#12FFF7"/>
<path fill-rule="evenodd" clip-rule="evenodd" d="M0 4.82759C0 2.16138 2.17203 0 4.85137 0H23.2866C25.9659 0 28.1379 2.16138 28.1379 4.82759V20.4298C28.1379 23.1882 24.6302 24.3853 22.929 22.2076L17.6105 15.3994V23.6552C17.6105 26.0548 15.6556 28 13.2442 28H4.85137C2.17203 28 0 25.8386 0 23.1724V4.82759ZM4.85137 3.86207C4.3155 3.86207 3.88109 4.29435 3.88109 4.82759V23.1724C3.88109 23.7057 4.3155 24.1379 4.85137 24.1379H13.3898C13.6577 24.1379 13.7294 23.9218 13.7294 23.6552V12.5842C13.7294 9.82588 17.2371 8.62874 18.9383 10.8065L24.2568 17.6146V4.82759C24.2568 4.29435 24.3076 3.86207 23.7717 3.86207H4.85137Z" fill="url(#paint0_linear_2993_28309)"/>
<path fill-rule="evenodd" clip-rule="evenodd" d="M0 4.82759C0 2.16138 2.17203 0 4.85137 0H23.2866C25.9659 0 28.1379 2.16138 28.1379 4.82759V20.4298C28.1379 23.1882 24.6302 24.3853 22.929 22.2076L17.6105 15.3994V23.6552C17.6105 26.0548 15.6556 28 13.2442 28H4.85137C2.17203 28 0 25.8386 0 23.1724V4.82759ZM4.85137 3.86207C4.3155 3.86207 3.88109 4.29435 3.88109 4.82759V23.1724C3.88109 23.7057 4.3155 24.1379 4.85137 24.1379H13.3898C13.6577 24.1379 13.7294 23.9218 13.7294 23.6552V12.5842C13.7294 9.82588 17.2371 8.62874 18.9383 10.8065L24.2568 17.6146V4.82759C24.2568 4.29435 24.3076 3.86207 23.7717 3.86207H4.85137Z" fill="url(#paint1_linear_2993_28309)"/>
<path d="M23.2865 0C25.9658 0 28.1378 2.16138 28.1378 4.82759V20.4298C28.1378 23.1882 24.6301 24.3853 22.9289 22.2076L17.6104 15.3994V23.6552C17.6104 26.0548 15.6555 28 13.2441 28C13.5121 28 13.7293 27.7839 13.7293 27.5172V12.5842C13.7293 9.82588 17.237 8.62874 18.9382 10.8065L24.2567 17.6146V0.965517C24.2567 0.432277 23.8223 0 23.2865 0Z" fill="#B9FFB3"/>
<path d="M48.112 7.43164V15.4638L40.7575 7.43164H36.9297V20.5684H40.4208V11.9357L48.4309 20.5684H51.6031V7.43164H48.112Z" fill="white"/>
<path d="M58.0748 17.6407V15.3137H65.89V12.5174H58.0748V10.3592H67.5558V7.43164H54.5127V20.5684H67.7507V17.6407H58.0748Z" fill="white"/>
<path d="M77.0278 21C81.9366 21 85.1265 18.4477 85.1265 14C85.1265 9.55228 81.9366 7 77.0278 7C72.1189 7 68.9468 9.55228 68.9468 14C68.9468 18.4477 72.1189 21 77.0278 21ZM77.0278 17.8847C74.2987 17.8847 72.6151 16.4772 72.6151 14C72.6151 11.5228 74.3164 10.1153 77.0278 10.1153C79.7569 10.1153 81.4404 11.5228 81.4404 14C81.4404 16.4772 79.7569 17.8847 77.0278 17.8847Z" fill="white"/>
<path d="M98.5075 7.43164V15.4638L91.1531 7.43164H87.3252V20.5684H90.8164V11.9357L98.8265 20.5684H101.999V7.43164H98.5075Z" fill="white"/>
<defs>
<linearGradient id="paint0_linear_2993_28309" x1="28.1379" y1="28" x2="3.53302" y2="-0.119908" gradientUnits="userSpaceOnUse">
<stop stop-color="#B9FFB3"/>
<stop offset="1" stop-color="#B9FFB3" stop-opacity="0"/>
</linearGradient>
<linearGradient id="paint1_linear_2993_28309" x1="28.1379" y1="28" x2="11.4466" y2="21.4756" gradientUnits="userSpaceOnUse">
<stop stop-color="#1A1A1A" stop-opacity="0.9"/>
<stop offset="1" stop-color="#1A1A1A" stop-opacity="0"/>
</linearGradient>
</defs>
</svg>
