<svg width="16" height="16" viewBox="0 0 16 16" fill="none" xmlns="http://www.w3.org/2000/svg">
<path d="M8.72266 5.99724C8.5255 5.65427 8.2305 5.37792 7.87541 5.20354C7.52031 5.02917 7.12126 4.96471 6.72932 5.0184C6.33738 5.07209 5.97037 5.24149 5.67525 5.50494C5.38013 5.76838 5.17031 6.11389 5.07266 6.49724" stroke="#00E599" stroke-miterlimit="10" stroke-linecap="square"/>
<path d="M8.16406 2.39844C7.79712 2.72567 7.5035 3.12679 7.30246 3.57547C7.10143 4.02416 6.99752 4.51027 6.99756 5.00194" stroke="#00E599" stroke-miterlimit="10" stroke-linecap="square"/>
<path d="M13.4991 9.00003C13.986 9.00122 14.4565 8.8244 14.8222 8.50286C15.1878 8.18132 15.4232 7.73723 15.4843 7.25418C15.5453 6.77113 15.4276 6.28244 15.1535 5.88008C14.8793 5.47772 14.4675 5.18945 13.9956 5.06953C13.9961 5.04603 13.9991 5.02353 13.9991 5.00003C13.9999 4.32404 13.8046 3.66234 13.437 3.09504C13.0694 2.52774 12.5452 2.07918 11.9279 1.80368C11.3106 1.52818 10.6267 1.43755 9.95896 1.54277C9.29121 1.648 8.66829 1.94455 8.16563 2.39653C7.99873 2.14269 7.77593 1.93044 7.51429 1.77605C7.25265 1.62167 6.95913 1.52925 6.65624 1.50589C6.35335 1.48253 6.04913 1.52884 5.76691 1.64128C5.4847 1.75371 5.23197 1.92928 5.02813 2.15453C4.5468 2.00657 4.03921 1.96421 3.54001 2.03035C3.04082 2.09649 2.56177 2.26957 2.13558 2.53777C1.70939 2.80597 1.34609 3.16297 1.07048 3.58441C0.794876 4.00585 0.613454 4.4818 0.538601 4.97976C0.463748 5.47773 0.497228 5.98598 0.636755 6.46982C0.776282 6.95366 1.01857 7.4017 1.34708 7.78334C1.67559 8.16499 2.08258 8.47125 2.54027 8.68123C2.99796 8.8912 3.49557 8.99994 3.99913 9.00003V11.5L3.20613 12.293" stroke="#00E599" stroke-miterlimit="10" stroke-linecap="square"/>
<path d="M12.793 12.293L11.5 11V9H9.99997" stroke="#00E599" stroke-miterlimit="10" stroke-linecap="square"/>
<path d="M8 12.5V9H6" stroke="#00E599" stroke-miterlimit="10" stroke-linecap="square"/>
<path d="M1.5 13C1.5 13.5523 1.94772 14 2.5 14C3.05228 14 3.5 13.5523 3.5 13C3.5 12.4477 3.05228 12 2.5 12C1.94772 12 1.5 12.4477 1.5 13Z" stroke="#00E599" stroke-miterlimit="10" stroke-linecap="square"/>
<path d="M7 13.5C7 14.0523 7.44772 14.5 8 14.5C8.55228 14.5 9 14.0523 9 13.5C9 12.9477 8.55228 12.5 8 12.5C7.44772 12.5 7 12.9477 7 13.5Z" stroke="#00E599" stroke-miterlimit="10" stroke-linecap="square"/>
<path d="M12.5 13C12.5 13.5523 12.9477 14 13.5 14C14.0523 14 14.5 13.5523 14.5 13C14.5 12.4477 14.0523 12 13.5 12C12.9477 12 12.5 12.4477 12.5 13Z" stroke="#00E599" stroke-miterlimit="10" stroke-linecap="square"/>
</svg>
