<svg width="16" height="16" viewBox="0 0 16 16" fill="none" xmlns="http://www.w3.org/2000/svg">
<g clip-path="url(#clip0_1633_7310)">
<path fill-rule="evenodd" clip-rule="evenodd" d="M9.52898 0.845777C8.55029 -0.280624 6.80136 -0.280624 5.82267 0.845777C5.53215 1.18015 5.0898 1.34115 4.65232 1.27175C3.17856 1.03797 1.8388 2.16216 1.81312 3.65412C1.80549 4.097 1.57012 4.50468 1.19039 4.73272C-0.0888491 5.50095 -0.392547 7.22331 0.546793 8.38272C0.825633 8.72689 0.907377 9.19049 0.763066 9.60927C0.276918 11.02 1.15138 12.5347 2.61622 12.819C3.05105 12.9034 3.41166 13.206 3.5703 13.6196C4.10472 15.0128 5.74817 15.611 7.05309 14.8872C7.44045 14.6724 7.91119 14.6724 8.29855 14.8872C9.60347 15.611 11.2469 15.0128 11.7813 13.6196C11.94 13.206 12.3006 12.9034 12.7354 12.819C14.2003 12.5347 15.0747 11.02 14.5886 9.60927C14.4443 9.19049 14.526 8.72689 14.8049 8.38272C15.7442 7.22331 15.4405 5.50095 14.1613 4.73272C13.7815 4.50468 13.5462 4.097 13.5385 3.65412C13.5128 2.16216 12.1731 1.03797 10.6993 1.27175C10.2619 1.34115 9.8195 1.18014 9.52898 0.845777ZM6.70663 1.61382C7.21848 1.02471 8.13317 1.02471 8.64502 1.61382C9.20051 2.25314 10.0463 2.56099 10.8828 2.4283C11.6536 2.30603 12.3543 2.89398 12.3677 3.67428C12.3823 4.52109 12.8323 5.30059 13.5584 5.73662C14.2274 6.1384 14.3863 7.03919 13.895 7.64556C13.3618 8.30363 13.2055 9.19004 13.4815 9.99078C13.7357 10.7286 13.2784 11.5208 12.5123 11.6695C11.6808 11.8309 10.9913 12.4094 10.688 13.2002C10.4085 13.9288 9.54899 14.2417 8.86652 13.8632C8.12587 13.4524 7.22578 13.4524 6.48513 13.8632C5.80266 14.2417 4.94313 13.9288 4.66363 13.2002C4.36031 12.4094 3.6708 11.8309 2.83938 11.6695C2.07328 11.5208 1.61593 10.7286 1.87019 9.99078C2.14612 9.19004 1.98982 8.30363 1.45666 7.64556C0.965389 7.03919 1.12422 6.1384 1.79326 5.73662C2.51934 5.30059 2.96938 4.52109 2.98396 3.67428C2.99739 2.89398 3.69808 2.30603 4.46885 2.4283C5.30533 2.56099 6.15114 2.25315 6.70663 1.61382ZM11.2443 6.26994C11.4613 6.03016 11.4427 5.6599 11.203 5.44295C10.9632 5.226 10.5929 5.24451 10.376 5.4843L6.83562 9.39729L4.97067 7.3628C4.75216 7.12443 4.38179 7.10833 4.14342 7.32683C3.90505 7.54534 3.88895 7.91571 4.10745 8.15408L6.40684 10.6625C6.51819 10.784 6.67557 10.8529 6.84036 10.8524C7.00514 10.8518 7.16207 10.7819 7.27262 10.6597L11.2443 6.26994Z" fill="#00E599"/>
</g>
<defs>
<clipPath id="clip0_1633_7310">
<rect width="16" height="16" fill="white"/>
</clipPath>
</defs>
</svg>
