<svg width="16" height="16" viewBox="0 0 16 16" fill="none" xmlns="http://www.w3.org/2000/svg">
<g clip-path="url(#clip0_1633_7258)">
<path d="M8.26761 7.19649V4.65185C8.26675 4.56367 8.28348 4.47621 8.31683 4.39458C8.35018 4.31295 8.39948 4.23878 8.46183 4.17643C8.52418 4.11407 8.59835 4.06478 8.67998 4.03143C8.76161 3.99808 8.84907 3.98135 8.93725 3.98221C9.02543 3.98135 9.11289 3.99808 9.19453 4.03143C9.27616 4.06478 9.35032 4.11407 9.41268 4.17643C9.47503 4.23878 9.52432 4.31295 9.55767 4.39458C9.59102 4.47621 9.60775 4.56367 9.6069 4.65185V7.19649" stroke="#00E599" stroke-width="1.07143" stroke-miterlimit="10" stroke-linecap="square"/>
<path d="M6.92777 7.19653V4.38403C6.92691 4.29585 6.94364 4.20839 6.97699 4.12676C7.01034 4.04512 7.05963 3.97096 7.12199 3.90861C7.18434 3.84625 7.2585 3.79696 7.34013 3.76361C7.42177 3.73026 7.50923 3.71353 7.59741 3.71439C7.68559 3.71353 7.77305 3.73026 7.85468 3.76361C7.93632 3.79696 8.01048 3.84625 8.07283 3.90861C8.13519 3.97096 8.18448 4.04512 8.21783 4.12676C8.25118 4.20839 8.26791 4.29585 8.26705 4.38403V4.78582" stroke="#00E599" stroke-width="1.07143" stroke-miterlimit="10" stroke-linecap="square"/>
<path d="M11.1066 0.5H4.89339L0.5 4.89339V11.1066L4.89339 15.5H11.1066L15.5 11.1066V4.89339L11.1066 0.5Z" stroke="#00E599" stroke-width="1.07143" stroke-miterlimit="10" stroke-linecap="square"/>
<path d="M6.92944 5.32152V4.95804C6.93303 4.78744 6.87386 4.62145 6.76315 4.49159C6.65245 4.36173 6.49792 4.27703 6.3289 4.25358C6.23563 4.2439 6.14136 4.25392 6.0522 4.28299C5.96305 4.31206 5.88099 4.35953 5.81135 4.42233C5.74171 4.48513 5.68603 4.56186 5.64793 4.64754C5.60982 4.73323 5.59014 4.82596 5.59015 4.91974V8.53581L4.91837 7.55304C4.83642 7.42988 4.72201 7.33179 4.58778 7.26961C4.45355 7.20744 4.30475 7.18359 4.15781 7.20073C4.01088 7.21786 3.87155 7.2753 3.75523 7.36669C3.63891 7.45808 3.55014 7.57987 3.49872 7.71858C3.45642 7.8297 3.43986 7.94897 3.4503 8.06742C3.46074 8.18586 3.4979 8.3004 3.55899 8.40241L5.21837 11.2251C5.36022 11.4665 5.56267 11.6666 5.80566 11.8057C6.04865 11.9447 6.32375 12.0179 6.60372 12.018H9.34015C9.76639 12.018 10.1752 11.8486 10.4766 11.5472C10.778 11.2458 10.9473 10.837 10.9473 10.4108V6.02947C10.9509 5.85886 10.8917 5.69288 10.781 5.56302C10.6703 5.43316 10.5158 5.34846 10.3468 5.325C10.2535 5.31533 10.1592 5.32535 10.0701 5.35442C9.98091 5.38349 9.89885 5.43096 9.82921 5.49376C9.75956 5.55656 9.70389 5.63329 9.66578 5.71897C9.62768 5.80466 9.608 5.89739 9.60801 5.99116V7.46438" stroke="#00E599" stroke-width="1.07143" stroke-miterlimit="10" stroke-linecap="square"/>
</g>
<defs>
<clipPath id="clip0_1633_7258">
<rect width="16" height="16" fill="white"/>
</clipPath>
</defs>
</svg>
