<svg width="16" height="16" viewBox="0 0 16 16" fill="none" xmlns="http://www.w3.org/2000/svg">
<g clip-path="url(#clip0_1633_7281)">
<path d="M11.7395 9.2395L14.3785 11.8785C14.5755 12.0755 14.7318 12.3093 14.8384 12.5667C14.9451 12.8241 15 13.0999 15 13.3785C15 13.6571 14.9451 13.9329 14.8384 14.1903C14.7318 14.4477 14.5755 14.6815 14.3785 14.8785C14.1815 15.0755 13.9477 15.2318 13.6903 15.3384C13.433 15.4451 13.1571 15.5 12.8785 15.5C12.5999 15.5 12.3241 15.4451 12.0667 15.3384C11.8093 15.2318 11.5755 15.0755 11.3785 14.8785L8.90601 12.406" stroke="#00E599" stroke-miterlimit="10" stroke-linecap="square"/>
<path d="M7.3195 6.3195L2.5 1.5L1 3L5.7505 7.7505" stroke="#00E599" stroke-miterlimit="10"/>
<path d="M15.317 2.68294L13.5 4.49994L11.5 2.49994L13.317 0.682938C12.7533 0.485614 12.146 0.447707 11.5621 0.573392C10.9782 0.699077 10.4403 0.983478 10.0077 1.39527C9.57508 1.80706 9.26449 2.33027 9.11016 2.90726C8.95584 3.48426 8.96375 4.09265 9.13303 4.66544L0.826029 12.2419C0.726152 12.3331 0.645789 12.4435 0.589797 12.5665C0.533804 12.6896 0.503345 12.8227 0.50026 12.9579C0.497176 13.093 0.52153 13.2274 0.57185 13.3529C0.622171 13.4784 0.697413 13.5924 0.793029 13.6879L2.31203 15.2069C2.40761 15.3026 2.52158 15.3778 2.64706 15.4281C2.77254 15.4784 2.90693 15.5028 3.04209 15.4997C3.17725 15.4966 3.31038 15.4662 3.43343 15.4102C3.55649 15.3542 3.66691 15.2738 3.75803 15.1739L11.3345 6.86694C11.9074 7.0368 12.516 7.04513 13.0933 6.891C13.6706 6.73688 14.194 6.42629 14.606 5.9935C15.0179 5.56071 15.3023 5.02254 15.4278 4.43837C15.5533 3.85419 15.5149 3.24671 15.317 2.68294Z" stroke="#00E599" stroke-miterlimit="10" stroke-linecap="square"/>
</g>
<defs>
<clipPath id="clip0_1633_7281">
<rect width="16" height="16" fill="white"/>
</clipPath>
</defs>
</svg>
