<svg width="16" height="16" viewBox="0 0 16 16" fill="none" xmlns="http://www.w3.org/2000/svg">
<g clip-path="url(#clip0_1633_6789)">
<path fill-rule="evenodd" clip-rule="evenodd" d="M1.375 0.703125H2C9.34051 0.703125 15.2917 6.65428 15.2917 13.9948V14.6198H14.0417V13.9948C14.0417 7.34464 8.65016 1.95312 2 1.95312H1.375V0.703125ZM3.75201 13.1267L6.43678 10.4419L5.55289 9.55806L2.86814 12.2428C2.60586 12.1124 2.31019 12.0391 1.9974 12.0391C0.915838 12.0391 0.0390625 12.9158 0.0390625 13.9974C0.0390625 15.079 0.915838 15.9557 1.9974 15.9557C3.07895 15.9557 3.95573 15.079 3.95573 13.9974C3.95573 13.6846 3.88241 13.389 3.75201 13.1267ZM1.28906 13.9974C1.28906 13.6062 1.60619 13.2891 1.9974 13.2891C2.3886 13.2891 2.70573 13.6062 2.70573 13.9974C2.70573 14.3886 2.3886 14.7057 1.9974 14.7057C1.60619 14.7057 1.28906 14.3886 1.28906 13.9974ZM2.625 4V3.375H1.375V4V5.33333V5.95833H2.625V5.33333V4ZM9.95222 6.92188L9.51027 7.36382L8.56694 8.30715L8.125 8.74909L7.24112 7.86521L7.68306 7.42327L8.62639 6.47993L9.06833 6.03799L9.95222 6.92188ZM10.6641 13.375H10.0391V14.625H10.6641H11.9974H12.6224V13.375H11.9974H10.6641Z" fill="#00E599"/>
</g>
<defs>
<clipPath id="clip0_1633_6789">
<rect width="16" height="16" fill="white"/>
</clipPath>
</defs>
</svg>
