<svg width="16" height="16" viewBox="0 0 16 16" fill="none" xmlns="http://www.w3.org/2000/svg">
<g clip-path="url(#clip0_16391_63173)">
<path fill-rule="evenodd" clip-rule="evenodd" d="M0 7.84905C0 3.59698 3.64769 0.15094 7.98 0.15094C12.3077 0.15094 15.8246 3.73283 15.8246 7.98339C15.8246 12.234 12.3108 15.8128 7.97846 15.8128L0 15.8204V7.84905ZM5.65939 3.75507C6.39156 3.34648 7.21931 3.13141 8.06164 3.13092H8.06625C8.7915 3.13127 9.50749 3.29076 10.1618 3.59773C10.8161 3.9047 11.3921 4.35136 11.8477 4.90501C12.3033 5.45866 12.6269 6.10528 12.7948 6.79751C12.9627 7.48974 12.9707 8.21006 12.8182 8.90571C12.6657 9.60137 12.3565 10.2547 11.9133 10.818C11.4701 11.3812 10.9041 11.8401 10.2567 12.1609C9.60942 12.4818 8.89713 12.6566 8.17206 12.6724C7.44699 12.6882 6.72749 12.5447 6.06625 12.2524L2.90625 12.9528L3.78625 10.1754C3.38533 9.44864 3.18364 8.63214 3.20091 7.80588C3.21818 6.97963 3.45383 6.17194 3.88478 5.46186C4.31573 4.75179 4.92722 4.16367 5.65939 3.75507Z" fill="currentColor"/>
</g>
<defs>
<clipPath id="clip0_16391_63173">
<rect width="16" height="16" fill="white"/>
</clipPath>
</defs>
</svg>
