<svg width="16" height="16" viewBox="0 0 16 16" fill="none" xmlns="http://www.w3.org/2000/svg">
<path d="M2.69515 14.9386C2.24617 14.9386 1.86168 14.7786 1.54168 14.4586C1.22168 14.1386 1.06196 13.7544 1.0625 13.3059C1.0625 12.8569 1.2225 12.4725 1.5425 12.1525C1.8625 11.8325 2.24672 11.6727 2.69515 11.6733C3.14413 11.6733 3.52862 11.8333 3.84862 12.1533C4.16862 12.4733 4.32835 12.8575 4.32781 13.3059C4.32781 13.7549 4.16781 14.1394 3.84781 14.4594C3.52781 14.7794 3.14359 14.9391 2.69515 14.9386ZM12.4911 14.9386C12.4911 13.3604 12.1917 11.8806 11.5931 10.4994C10.9945 9.11818 10.1746 7.90729 9.13352 6.86675C8.09352 5.8262 6.88291 5.00661 5.50168 4.40797C4.12046 3.80933 2.64073 3.51001 1.0625 3.51001V1.06104C2.98087 1.06104 4.78359 1.42512 6.47066 2.15328C8.15774 2.88144 9.62712 3.8711 10.8788 5.12226C12.1305 6.37396 13.1205 7.84335 13.8486 9.53042C14.5768 11.2175 14.9406 13.0202 14.94 14.9386H12.4911ZM7.59311 14.9386C7.59311 13.1291 6.95719 11.5881 5.68536 10.3157C4.41352 9.04335 2.87257 8.40743 1.0625 8.40797V5.95899C2.3142 5.95899 3.48427 6.19382 4.5727 6.66348C5.66114 7.13314 6.61025 7.7726 7.42005 8.58185C8.2293 9.3911 8.86876 10.3399 9.33842 11.4284C9.80808 12.5168 10.0426 13.6869 10.0421 14.9386H7.59311Z" fill="currentColor"/>
</svg>
