<svg width="16" height="16" viewBox="0 0 16 16" fill="none" xmlns="http://www.w3.org/2000/svg">
<path fill-rule="evenodd" clip-rule="evenodd" d="M8 16C12.4183 16 16 12.4183 16 8C16 3.58172 12.4183 0 8 0C3.58172 0 0 3.58172 0 8C0 12.4183 3.58172 16 8 16ZM11.7446 5.37101C11.9506 4.95915 11.7836 4.45833 11.3718 4.2524C10.9599 4.04647 10.4591 4.21341 10.2532 4.62527L7.2705 10.5906L5.58847 8.90858C5.26286 8.58297 4.73495 8.58297 4.40935 8.90858C4.08375 9.23418 4.08375 9.76209 4.40935 10.0877L6.90935 12.5877C7.09886 12.7772 7.36792 12.8641 7.63246 12.8211C7.89701 12.7782 8.12479 12.6107 8.24465 12.371L11.7446 5.37101Z" fill="currentColor"/>
</svg>
