<svg width="14" height="14" viewBox="0 0 14 14" fill="none" xmlns="http://www.w3.org/2000/svg">
<path d="M4.1971 5H9.9993M4.1971 7.40044H9.9993M4.1971 9.79978H7.0982M12.1538 12.2002C12.1534 12.3057 12.1344 12.4101 12.0979 12.5071C12.0613 12.6042 12.008 12.6919 11.9411 12.7652C11.8037 12.9162 11.6198 13.0004 11.4286 13H2.72527C2.53401 13.0004 2.35015 12.9162 2.21275 12.7652C2.14582 12.6919 2.09251 12.6042 2.05597 12.5071C2.01943 12.4101 2.0004 12.3057 2 12.2002V1.79978C2 1.58804 2.0764 1.38508 2.21275 1.23478C2.35015 1.08384 2.53401 0.99962 2.72527 1H10.0003C10.1888 1 10.3706 1.08119 10.507 1.2271L11.9343 2.76522C12.0029 2.83914 12.0576 2.92791 12.0953 3.02629C12.133 3.12467 12.1529 3.23063 12.1538 3.3379V12.2002Z" stroke="currentColor" stroke-width="1.3" stroke-linecap="round" stroke-linejoin="round"/>
</svg>
