<svg width="14" height="14" viewBox="0 0 14 14" fill="none" xmlns="http://www.w3.org/2000/svg">
<path fill-rule="evenodd" clip-rule="evenodd" d="M0 2.41379C0 1.08069 1.08069 0 2.41379 0H11.5862C12.9193 0 14 1.08069 14 2.41379V10.2149C14 11.5941 12.2547 12.1926 11.4083 11.1038L8.76207 7.6997V11.8276C8.76207 13.0274 7.78945 14 6.58965 14H2.41379C1.08069 14 0 12.9193 0 11.5862V2.41379ZM2.41379 1.93103C2.14717 1.93103 1.93103 2.14717 1.93103 2.41379V11.5862C1.93103 11.8528 2.14717 12.069 2.41379 12.069H6.66207C6.79538 12.069 6.83103 11.9609 6.83103 11.8276V6.2921C6.83103 4.91294 8.57628 4.31437 9.42274 5.40324L12.069 8.80731V2.41379C12.069 2.14717 12.0942 1.93103 11.8276 1.93103H2.41379Z" fill="currentColor"/>
<path d="M11.5854 0C12.9185 0 13.9992 1.08069 13.9992 2.41379V10.2149C13.9992 11.5941 12.254 12.1926 11.4075 11.1038L8.76128 7.6997V11.8276C8.76128 13.0274 7.78866 14 6.58887 14C6.72218 14 6.83025 13.8919 6.83025 13.7586V6.2921C6.83025 4.91294 8.57549 4.31437 9.42195 5.40324L12.0682 8.80731V0.482759C12.0682 0.216138 11.852 0 11.5854 0Z" fill="currentColor"/>
</svg>
