<svg width="16" height="16" viewBox="0 0 16 16" fill="none" xmlns="http://www.w3.org/2000/svg">
<g id="history 1" clip-path="url(#clip0_17434_107340)">
<path id="Union" d="M8 0C12.4182 7.04026e-05 15.9999 3.58182 16 8C15.9999 12.4182 12.4182 15.9999 8 16C3.58182 15.9999 7.04006e-05 12.4182 0 8C7.03069e-05 7.70555 0.238755 7.46687 0.533203 7.4668C0.827712 7.4668 1.06634 7.70551 1.06641 8C1.06648 11.8291 4.17093 14.9335 8 14.9336C11.8291 14.9335 14.9335 11.8291 14.9336 8C14.9335 4.17093 11.8291 1.06648 8 1.06641C5.69266 1.06645 3.64755 2.1935 2.38672 3.92871H4.46289L4.57031 3.93945C4.81333 3.98898 4.99577 4.20435 4.99609 4.46191C4.99609 4.71975 4.81349 4.93475 4.57031 4.98438L4.46289 4.99512H1.31934C1.02499 4.99487 0.786133 4.75631 0.786133 4.46191V1.31836C0.786343 1.02414 1.02512 0.785402 1.31934 0.785156C1.61376 0.785156 1.85233 1.02399 1.85254 1.31836V2.87988C3.31955 1.12046 5.52881 3.93696e-05 8 0ZM7.99902 3.53809C8.29355 3.53812 8.53223 3.77676 8.53223 4.07129V7.78027L11.5195 10.7676C11.7276 10.9759 11.7277 11.3143 11.5195 11.5225C11.3113 11.73 10.9737 11.7302 10.7656 11.5225L7.62207 8.37793C7.5222 8.27802 7.46594 8.14223 7.46582 8.00098V4.07129C7.46582 3.77674 7.70447 3.53809 7.99902 3.53809Z" fill="#00E599"/>
</g>
<defs>
<clipPath id="clip0_17434_107340">
<rect width="16" height="16" fill="white"/>
</clipPath>
</defs>
</svg>
