<svg width="16" height="16" viewBox="0 0 16 16" fill="none" xmlns="http://www.w3.org/2000/svg">
<g clip-path="url(#clip0_29344_4765)">
<path d="M13.0906 9.06135C13.6321 9.00245 14.1784 9.11608 14.6512 9.38654H14.6492C15.1962 9.70608 15.6069 10.2156 15.8025 10.8182C15.9981 11.4208 15.9648 12.0742 15.7098 12.6541C15.4547 13.2341 14.9951 13.6997 14.4188 13.9627C13.8425 14.2257 13.1899 14.268 12.5848 14.0809C11.612 14.8972 10.4385 15.4388 9.18633 15.6502C7.93406 15.8616 6.64768 15.7348 5.46075 15.283C6.05843 14.8268 6.53487 14.2305 6.84747 13.5467C7.22399 13.6363 7.60986 13.6833 7.99688 13.6863C9.08449 13.6849 10.1431 13.333 11.0154 12.6834C10.7923 12.1864 10.7321 11.6317 10.8436 11.0985C10.9551 10.5652 11.232 10.0807 11.6356 9.71467C12.0392 9.34865 12.549 9.12035 13.0906 9.06135ZM3.41387 2.94221C3.50986 3.69229 3.79021 4.40691 4.22832 5.02326C3.33734 5.97151 2.83897 7.22307 2.83575 8.52424C2.83853 8.70238 2.85215 8.88072 2.87481 9.05744C3.28485 9.09453 3.68017 9.22937 4.02715 9.451C4.37415 9.67267 4.6629 9.97437 4.86895 10.3309C5.11264 10.7516 5.23236 11.2327 5.21465 11.7186C5.19691 12.2045 5.04213 12.6761 4.76836 13.0779C4.49469 13.4796 4.11321 13.7957 3.66778 13.9901C3.2222 14.1844 2.73047 14.2492 2.24981 14.1766C1.76902 14.1038 1.31823 13.8965 0.950004 13.5789C0.581819 13.2614 0.31038 12.8465 0.167778 12.3817C0.0251882 11.9168 0.0175046 11.4204 0.14434 10.951C0.271173 10.4819 0.527563 10.058 0.884575 9.72834C0.812614 9.33104 0.774904 8.92799 0.771293 8.52424C0.771223 7.45623 1.00862 6.40163 1.46563 5.43635C1.92262 4.47113 2.58779 3.619 3.41387 2.94221ZM7.95489 -0.2492C8.54518 -0.258369 9.12084 -0.0652045 9.58575 0.298652C10.0506 0.662503 10.3766 1.17467 10.5096 1.74982C11.6989 2.19322 12.7507 2.94127 13.5604 3.91877C14.3699 4.89629 14.9097 6.06909 15.1238 7.32014C14.5667 7.0926 13.9698 6.97558 13.368 6.97541C13.2142 6.97789 13.0607 6.98852 12.908 7.00666C12.6897 6.30885 12.3261 5.66463 11.8416 5.11701C11.3572 4.56957 10.7623 4.13061 10.0965 3.82893C9.75383 4.30965 9.25694 4.65863 8.68829 4.81721C8.11962 4.97579 7.51348 4.93407 6.97149 4.70002C6.42969 4.46595 5.98418 4.05361 5.70977 3.53107C5.4353 3.00839 5.34867 2.407 5.46368 1.82795C5.57873 1.24901 5.8883 0.726519 6.34161 0.348457C6.79498 -0.0296424 7.36461 -0.240029 7.95489 -0.2492Z" fill="#94979E"/>
</g>
<defs>
<clipPath id="clip0_29344_4765">
<rect width="16" height="16" fill="white"/>
</clipPath>
</defs>
</svg>
