<svg width="16" height="16" viewBox="0 0 16 16" fill="none" xmlns="http://www.w3.org/2000/svg">
<path d="M7.99901 5.36676C11.7803 5.36676 14.8457 4.18778 14.8457 2.73343C14.8457 1.27908 11.7803 0.100098 7.99901 0.100098C4.2177 0.100098 1.15234 1.27908 1.15234 2.73343C1.15234 4.18778 4.2177 5.36676 7.99901 5.36676Z" fill="white"/>
<path d="M7.99901 10.6331C11.4013 10.6331 14.8457 9.7288 14.8457 7.99975V4.75391C13.3563 5.95155 10.5318 6.41975 7.99901 6.41975C5.46627 6.41975 2.64176 5.95155 1.15234 4.75391V7.99975C1.15234 9.7288 4.59674 10.6331 7.99901 10.6331Z" fill="white"/>
<path d="M7.99901 11.6868C5.46627 11.6868 2.64176 11.2186 1.15234 10.021V13.2668C1.15234 14.9959 4.59674 15.9002 7.99901 15.9002C11.4013 15.9002 14.8457 14.9959 14.8457 13.2668V10.021C13.3563 11.2186 10.5318 11.6868 7.99901 11.6868Z" fill="white"/>
</svg>
