<svg width="16" height="16" viewBox="0 0 16 16" fill="none" xmlns="http://www.w3.org/2000/svg">
<g clip-path="url(#clip0_29344_4757)">
<path d="M13.3359 6.6665H2.66927C1.9326 6.6665 1.33594 7.26317 1.33594 7.99984V14.6665C1.33594 15.4032 1.9326 15.9998 2.66927 15.9998H13.3359C14.0726 15.9998 14.6693 15.4032 14.6693 14.6665V7.99984C14.6693 7.26317 14.0726 6.6665 13.3359 6.6665ZM8.0026 12.6665C7.26594 12.6665 6.66927 12.0698 6.66927 11.3332C6.66927 10.5965 7.26594 9.99984 8.0026 9.99984C8.73927 9.99984 9.33594 10.5965 9.33594 11.3332C9.33594 12.0698 8.73927 12.6665 8.0026 12.6665Z" fill="white"/>
<path d="M12 5.33334H10.6667V4.00001C10.682 2.54401 9.51533 1.35067 8.05933 1.33334H8.03133C6.56667 1.30801 5.35867 2.47401 5.33333 3.93867V3.94067V5.33334H4V3.93334C4.022 1.75734 5.79 0.00400672 7.966 6.72335e-06H8.00667C10.208 -0.00399328 11.996 1.77734 12 3.97867C12 3.98801 12 3.99734 12 4.00667V5.33334Z" fill="white"/>
</g>
<defs>
<clipPath id="clip0_29344_4757">
<rect width="16" height="16" fill="white"/>
</clipPath>
</defs>
</svg>
