<svg width="16" height="16" viewBox="0 0 16 16" fill="none" xmlns="http://www.w3.org/2000/svg">
<g clip-path="url(#clip0_29344_4777)">
<path d="M14.668 5.3335H1.33464C0.966635 5.3335 0.667969 5.63216 0.667969 6.00016V15.3335C0.667969 15.7015 0.966635 16.0002 1.33464 16.0002H14.668C15.036 16.0002 15.3346 15.7015 15.3346 15.3335V6.00016C15.3346 5.63216 15.036 5.3335 14.668 5.3335ZM11.3346 10.0002C11.3346 10.3682 11.036 10.6668 10.668 10.6668H5.33464C4.96664 10.6668 4.66797 10.3682 4.66797 10.0002V8.3335C4.66797 8.1495 4.8173 8.00016 5.0013 8.00016H5.66797C5.85197 8.00016 6.0013 8.1495 6.0013 8.3335V9.3335H10.0013V8.3335C10.0013 8.1495 10.1506 8.00016 10.3346 8.00016H11.0013C11.1853 8.00016 11.3346 8.1495 11.3346 8.3335V10.0002Z" fill="#94979E"/>
<path d="M12.668 3.99984H3.33464C2.96597 3.99984 2.66797 3.70184 2.66797 3.33317C2.66797 2.9645 2.96597 2.6665 3.33464 2.6665H12.668C13.0366 2.6665 13.3346 2.9645 13.3346 3.33317C13.3346 3.70184 13.0366 3.99984 12.668 3.99984Z" fill="#94979E"/>
<path d="M10.668 1.33333H5.33464C4.96597 1.33333 4.66797 1.03533 4.66797 0.666667C4.66797 0.298 4.96597 0 5.33464 0H10.668C11.0366 0 11.3346 0.298 11.3346 0.666667C11.3346 1.03533 11.0366 1.33333 10.668 1.33333Z" fill="#94979E"/>
</g>
<defs>
<clipPath id="clip0_29344_4777">
<rect width="16" height="16" fill="white"/>
</clipPath>
</defs>
</svg>
