<svg width="28" height="28" viewBox="0 0 28 28" fill="none" xmlns="http://www.w3.org/2000/svg">
<g clip-path="url(#clip0_16177_226829)">
<path d="M4.375 5.45117V22.5488C4.375 24.126 7.59679 25.3809 11.9425 25.6844M23.6098 5.45117V13.1564" stroke="#00E599" stroke-width="1.16667" stroke-linecap="round" stroke-linejoin="round"/>
<path d="M13.9924 8.66161C19.304 8.66161 23.6098 7.22632 23.6098 5.4558C23.6098 3.68529 19.304 2.25 13.9924 2.25C8.68086 2.25 4.375 3.68529 4.375 5.4558C4.375 7.22632 8.68086 8.66161 13.9924 8.66161Z" stroke="#00E599" stroke-width="1.16667" stroke-linecap="round" stroke-linejoin="round"/>
<path d="M4.375 14.0195C4.375 15.7231 8.13392 17.0508 13.008 17.2094" stroke="#00E599" stroke-width="1.16667" stroke-linecap="round" stroke-linejoin="round"/>
<path d="M15.4297 19.9322C15.6445 18.7654 16.2471 17.7055 17.1399 16.9241C18.0326 16.1428 19.163 15.6859 20.3479 15.6275C21.5329 15.5691 22.7028 15.9126 23.668 16.6024C24.6332 17.2922 25.3371 18.2878 25.6656 19.4278" stroke="#00E599" stroke-width="1.16667" stroke-linecap="round" stroke-linejoin="round"/>
<path d="M25.8771 15.6211V19.4498L22.0781 18.9779" stroke="#00E599" stroke-width="1.16667" stroke-linecap="round" stroke-linejoin="round"/>
<path d="M25.7906 21.8438C25.5758 23.0105 24.9732 24.0705 24.0805 24.8518C23.1877 25.6332 22.0573 26.0901 20.8724 26.1485C19.6874 26.2069 18.5175 25.8633 17.5523 25.1735C16.5871 24.4837 15.8832 23.4881 15.5547 22.3482" stroke="#00E599" stroke-width="1.16667" stroke-linecap="round" stroke-linejoin="round"/>
<path d="M15.3438 26.1548V22.3262L19.1427 22.7981" stroke="#00E599" stroke-width="1.16667" stroke-linecap="round" stroke-linejoin="round"/>
</g>
<defs>
<clipPath id="clip0_16177_226829">
<rect width="28" height="28" fill="white"/>
</clipPath>
</defs>
</svg>
