<svg width="330" height="178" viewBox="0 0 330 178" fill="none" xmlns="http://www.w3.org/2000/svg">
<g clip-path="url(#clip0_16177_226813)">
<mask id="path-1-inside-1_16177_226813" fill="white">
<path d="M77.435 157.997C71.3908 157.91 65.4347 156.817 59.5669 154.718C53.7433 152.619 48.449 149.121 43.6842 144.224C38.9194 139.326 35.1031 132.746 32.2354 124.482C29.4118 116.218 28 105.898 28 93.5242C28 81.8058 29.1691 71.3991 31.5074 62.3043C33.8898 53.2094 37.309 45.5356 41.765 39.2829C46.221 32.9864 51.6035 28.1985 57.9125 24.9191C64.2215 21.6397 71.3025 20 79.1556 20C87.2294 20 94.3987 21.5741 100.664 24.7223C106.928 27.8706 112.002 32.2212 115.884 37.7744C119.811 43.3275 122.304 49.6458 123.363 56.7293H103.178C101.811 51.1325 99.0973 46.5632 95.0384 43.0214C90.9795 39.4796 85.6852 37.7088 79.1556 37.7088C69.2289 37.7088 61.4861 41.9938 55.9271 50.564C50.4123 59.1342 47.6328 71.0493 47.5887 86.3095H48.5814C50.9197 82.5054 53.7874 79.2697 57.1845 76.6025C60.6258 73.8915 64.4641 71.8145 68.6995 70.3716C72.979 68.8849 77.4791 68.1416 82.1998 68.1416C90.053 68.1416 97.1561 70.0437 103.509 73.8478C109.906 77.6082 115.002 82.8115 118.796 89.4577C122.591 96.104 124.488 103.712 124.488 112.282C124.488 120.853 122.524 128.614 118.598 135.566C114.715 142.518 109.245 148.028 102.186 152.094C95.1266 156.117 86.8764 158.085 77.435 157.997ZM77.3688 140.944C82.5748 140.944 87.2294 139.676 91.3324 137.14C95.4355 134.604 98.6782 131.194 101.061 126.908C103.443 122.623 104.634 117.835 104.634 112.545C104.634 107.385 103.465 102.685 101.127 98.4433C98.8326 94.2019 95.656 90.8351 91.5971 88.3427C87.5823 85.8504 82.994 84.6042 77.8321 84.6042C73.9055 84.6042 70.2657 85.3475 66.9127 86.8342C63.6038 88.3209 60.692 90.3759 58.1772 92.9995C55.6624 95.623 53.6771 98.64 52.2212 102.051C50.8094 105.417 50.1035 108.981 50.1035 112.741C50.1035 117.77 51.2726 122.427 53.6109 126.712C55.9933 130.997 59.236 134.451 63.3391 137.075C67.4862 139.654 72.1628 140.944 77.3688 140.944Z"/>
<path d="M188.071 157.997C178.585 157.997 170.203 156.379 162.923 153.144C155.688 149.908 150.019 145.448 145.916 139.764C141.813 134.079 139.783 127.608 139.827 120.35C139.783 114.665 140.952 109.44 143.335 104.674C145.761 99.8643 149.048 95.8635 153.195 92.6715C157.342 89.4359 161.975 87.3808 167.093 86.5063V85.7192C160.342 84.1014 154.938 80.5159 150.879 74.9628C146.82 69.4096 144.813 63.0257 144.857 55.8111C144.813 48.9462 146.644 42.8246 150.35 37.4464C154.1 32.0245 159.239 27.7612 165.769 24.6567C172.299 21.5522 179.733 20 188.071 20C196.321 20 203.689 21.5741 210.174 24.7223C216.704 27.8268 221.844 32.0901 225.594 37.512C229.344 42.8902 231.241 48.9899 231.285 55.8111C231.241 63.0257 229.168 69.4096 225.065 74.9628C220.961 80.5159 215.623 84.1014 209.049 85.7192V86.5063C214.123 87.3808 218.689 89.4359 222.748 92.6715C226.851 95.8635 230.116 99.8643 232.543 104.674C235.013 109.44 236.271 114.665 236.315 120.35C236.271 127.608 234.197 134.079 230.094 139.764C225.991 145.448 220.3 149.908 213.02 153.144C205.785 156.379 197.468 157.997 188.071 157.997ZM188.071 141.403C193.674 141.403 198.527 140.485 202.63 138.649C206.733 136.769 209.91 134.167 212.16 130.844C214.41 127.477 215.557 123.542 215.601 119.038C215.557 114.359 214.322 110.227 211.895 106.642C209.513 103.056 206.27 100.236 202.167 98.1809C198.064 96.1258 193.365 95.0983 188.071 95.0983C182.733 95.0983 177.99 96.1258 173.843 98.1809C169.696 100.236 166.431 103.056 164.048 106.642C161.666 110.227 160.497 114.359 160.541 119.038C160.497 123.542 161.578 127.477 163.784 130.844C166.034 134.167 169.232 136.769 173.379 138.649C177.527 140.485 182.424 141.403 188.071 141.403ZM188.071 78.898C192.571 78.898 196.564 78.0017 200.049 76.2089C203.535 74.4162 206.27 71.9239 208.255 68.7319C210.285 65.54 211.322 61.8014 211.366 57.5163C211.322 53.3187 210.307 49.6458 208.321 46.4976C206.38 43.3493 203.667 40.9226 200.182 39.2173C196.696 37.4683 192.659 36.5938 188.071 36.5938C183.394 36.5938 179.291 37.4683 175.762 39.2173C172.277 40.9226 169.563 43.3493 167.622 46.4976C165.681 49.6458 164.732 53.3187 164.776 57.5163C164.732 61.8014 165.703 65.54 167.688 68.7319C169.673 71.9239 172.409 74.4162 175.894 76.2089C179.424 78.0017 183.483 78.898 188.071 78.898Z"/>
<path d="M286.746 139.37V135.528C286.746 132.611 287.368 129.931 288.613 127.489C289.881 125.022 291.711 123.054 294.104 121.584C296.521 120.09 299.464 119.343 302.934 119.343C306.452 119.343 309.407 120.078 311.8 121.548C314.216 123.018 316.035 124.987 317.255 127.453C318.5 129.896 319.122 132.588 319.122 135.528V139.37C319.122 142.287 318.5 144.979 317.255 147.445C316.011 149.888 314.181 151.845 311.764 153.315C309.347 154.809 306.404 155.556 302.934 155.556C299.416 155.556 296.461 154.809 294.068 153.315C291.675 151.845 289.857 149.888 288.613 147.445C287.368 144.979 286.746 142.287 286.746 139.37ZM297.191 135.528V139.37C297.191 141.054 297.598 142.643 298.411 144.137C299.249 145.631 300.756 146.378 302.934 146.378C305.111 146.378 306.595 145.643 307.385 144.173C308.198 142.702 308.605 141.101 308.605 139.37V135.528C308.605 133.797 308.222 132.184 307.457 130.69C306.691 129.196 305.183 128.449 302.934 128.449C300.78 128.449 299.285 129.196 298.447 130.69C297.61 132.184 297.191 133.797 297.191 135.528ZM249.022 97.6785V93.8365C249.022 90.8958 249.657 88.2041 250.925 85.7614C252.193 83.295 254.024 81.3267 256.416 79.8563C258.833 78.3859 261.753 77.6508 265.174 77.6508C268.716 77.6508 271.683 78.3859 274.076 79.8563C276.469 81.3267 278.287 83.295 279.532 85.7614C280.776 88.2041 281.398 90.8958 281.398 93.8365V97.6785C281.398 100.619 280.764 103.311 279.496 105.754C278.251 108.196 276.421 110.153 274.004 111.623C271.611 113.07 268.668 113.793 265.174 113.793C261.681 113.793 258.726 113.058 256.309 111.588C253.916 110.093 252.097 108.137 250.853 105.718C249.633 103.275 249.022 100.595 249.022 97.6785ZM259.539 93.8365V97.6785C259.539 99.4097 259.946 101.01 260.759 102.481C261.597 103.951 263.069 104.686 265.174 104.686C267.376 104.686 268.871 103.951 269.661 102.481C270.475 101.01 270.881 99.4097 270.881 97.6785V93.8365C270.881 92.1053 270.499 90.4927 269.733 88.9986C268.967 87.5045 267.448 86.7575 265.174 86.7575C263.045 86.7575 261.573 87.5164 260.759 89.0342C259.946 90.552 259.539 92.1528 259.539 93.8365ZM253.76 153.03L304.298 80.1765H313.702L263.164 153.03H253.76Z"/>
</mask>
<path d="M77.435 157.997C71.3908 157.91 65.4347 156.817 59.5669 154.718C53.7433 152.619 48.449 149.121 43.6842 144.224C38.9194 139.326 35.1031 132.746 32.2354 124.482C29.4118 116.218 28 105.898 28 93.5242C28 81.8058 29.1691 71.3991 31.5074 62.3043C33.8898 53.2094 37.309 45.5356 41.765 39.2829C46.221 32.9864 51.6035 28.1985 57.9125 24.9191C64.2215 21.6397 71.3025 20 79.1556 20C87.2294 20 94.3987 21.5741 100.664 24.7223C106.928 27.8706 112.002 32.2212 115.884 37.7744C119.811 43.3275 122.304 49.6458 123.363 56.7293H103.178C101.811 51.1325 99.0973 46.5632 95.0384 43.0214C90.9795 39.4796 85.6852 37.7088 79.1556 37.7088C69.2289 37.7088 61.4861 41.9938 55.9271 50.564C50.4123 59.1342 47.6328 71.0493 47.5887 86.3095H48.5814C50.9197 82.5054 53.7874 79.2697 57.1845 76.6025C60.6258 73.8915 64.4641 71.8145 68.6995 70.3716C72.979 68.8849 77.4791 68.1416 82.1998 68.1416C90.053 68.1416 97.1561 70.0437 103.509 73.8478C109.906 77.6082 115.002 82.8115 118.796 89.4577C122.591 96.104 124.488 103.712 124.488 112.282C124.488 120.853 122.524 128.614 118.598 135.566C114.715 142.518 109.245 148.028 102.186 152.094C95.1266 156.117 86.8764 158.085 77.435 157.997ZM77.3688 140.944C82.5748 140.944 87.2294 139.676 91.3324 137.14C95.4355 134.604 98.6782 131.194 101.061 126.908C103.443 122.623 104.634 117.835 104.634 112.545C104.634 107.385 103.465 102.685 101.127 98.4433C98.8326 94.2019 95.656 90.8351 91.5971 88.3427C87.5823 85.8504 82.994 84.6042 77.8321 84.6042C73.9055 84.6042 70.2657 85.3475 66.9127 86.8342C63.6038 88.3209 60.692 90.3759 58.1772 92.9995C55.6624 95.623 53.6771 98.64 52.2212 102.051C50.8094 105.417 50.1035 108.981 50.1035 112.741C50.1035 117.77 51.2726 122.427 53.6109 126.712C55.9933 130.997 59.236 134.451 63.3391 137.075C67.4862 139.654 72.1628 140.944 77.3688 140.944Z" fill="url(#paint0_radial_16177_226813)"/>
<path d="M188.071 157.997C178.585 157.997 170.203 156.379 162.923 153.144C155.688 149.908 150.019 145.448 145.916 139.764C141.813 134.079 139.783 127.608 139.827 120.35C139.783 114.665 140.952 109.44 143.335 104.674C145.761 99.8643 149.048 95.8635 153.195 92.6715C157.342 89.4359 161.975 87.3808 167.093 86.5063V85.7192C160.342 84.1014 154.938 80.5159 150.879 74.9628C146.82 69.4096 144.813 63.0257 144.857 55.8111C144.813 48.9462 146.644 42.8246 150.35 37.4464C154.1 32.0245 159.239 27.7612 165.769 24.6567C172.299 21.5522 179.733 20 188.071 20C196.321 20 203.689 21.5741 210.174 24.7223C216.704 27.8268 221.844 32.0901 225.594 37.512C229.344 42.8902 231.241 48.9899 231.285 55.8111C231.241 63.0257 229.168 69.4096 225.065 74.9628C220.961 80.5159 215.623 84.1014 209.049 85.7192V86.5063C214.123 87.3808 218.689 89.4359 222.748 92.6715C226.851 95.8635 230.116 99.8643 232.543 104.674C235.013 109.44 236.271 114.665 236.315 120.35C236.271 127.608 234.197 134.079 230.094 139.764C225.991 145.448 220.3 149.908 213.02 153.144C205.785 156.379 197.468 157.997 188.071 157.997ZM188.071 141.403C193.674 141.403 198.527 140.485 202.63 138.649C206.733 136.769 209.91 134.167 212.16 130.844C214.41 127.477 215.557 123.542 215.601 119.038C215.557 114.359 214.322 110.227 211.895 106.642C209.513 103.056 206.27 100.236 202.167 98.1809C198.064 96.1258 193.365 95.0983 188.071 95.0983C182.733 95.0983 177.99 96.1258 173.843 98.1809C169.696 100.236 166.431 103.056 164.048 106.642C161.666 110.227 160.497 114.359 160.541 119.038C160.497 123.542 161.578 127.477 163.784 130.844C166.034 134.167 169.232 136.769 173.379 138.649C177.527 140.485 182.424 141.403 188.071 141.403ZM188.071 78.898C192.571 78.898 196.564 78.0017 200.049 76.2089C203.535 74.4162 206.27 71.9239 208.255 68.7319C210.285 65.54 211.322 61.8014 211.366 57.5163C211.322 53.3187 210.307 49.6458 208.321 46.4976C206.38 43.3493 203.667 40.9226 200.182 39.2173C196.696 37.4683 192.659 36.5938 188.071 36.5938C183.394 36.5938 179.291 37.4683 175.762 39.2173C172.277 40.9226 169.563 43.3493 167.622 46.4976C165.681 49.6458 164.732 53.3187 164.776 57.5163C164.732 61.8014 165.703 65.54 167.688 68.7319C169.673 71.9239 172.409 74.4162 175.894 76.2089C179.424 78.0017 183.483 78.898 188.071 78.898Z" fill="url(#paint1_radial_16177_226813)"/>
<path d="M286.746 139.37V135.528C286.746 132.611 287.368 129.931 288.613 127.489C289.881 125.022 291.711 123.054 294.104 121.584C296.521 120.09 299.464 119.343 302.934 119.343C306.452 119.343 309.407 120.078 311.8 121.548C314.216 123.018 316.035 124.987 317.255 127.453C318.5 129.896 319.122 132.588 319.122 135.528V139.37C319.122 142.287 318.5 144.979 317.255 147.445C316.011 149.888 314.181 151.845 311.764 153.315C309.347 154.809 306.404 155.556 302.934 155.556C299.416 155.556 296.461 154.809 294.068 153.315C291.675 151.845 289.857 149.888 288.613 147.445C287.368 144.979 286.746 142.287 286.746 139.37ZM297.191 135.528V139.37C297.191 141.054 297.598 142.643 298.411 144.137C299.249 145.631 300.756 146.378 302.934 146.378C305.111 146.378 306.595 145.643 307.385 144.173C308.198 142.702 308.605 141.101 308.605 139.37V135.528C308.605 133.797 308.222 132.184 307.457 130.69C306.691 129.196 305.183 128.449 302.934 128.449C300.78 128.449 299.285 129.196 298.447 130.69C297.61 132.184 297.191 133.797 297.191 135.528ZM249.022 97.6785V93.8365C249.022 90.8958 249.657 88.2041 250.925 85.7614C252.193 83.295 254.024 81.3267 256.416 79.8563C258.833 78.3859 261.753 77.6508 265.174 77.6508C268.716 77.6508 271.683 78.3859 274.076 79.8563C276.469 81.3267 278.287 83.295 279.532 85.7614C280.776 88.2041 281.398 90.8958 281.398 93.8365V97.6785C281.398 100.619 280.764 103.311 279.496 105.754C278.251 108.196 276.421 110.153 274.004 111.623C271.611 113.07 268.668 113.793 265.174 113.793C261.681 113.793 258.726 113.058 256.309 111.588C253.916 110.093 252.097 108.137 250.853 105.718C249.633 103.275 249.022 100.595 249.022 97.6785ZM259.539 93.8365V97.6785C259.539 99.4097 259.946 101.01 260.759 102.481C261.597 103.951 263.069 104.686 265.174 104.686C267.376 104.686 268.871 103.951 269.661 102.481C270.475 101.01 270.881 99.4097 270.881 97.6785V93.8365C270.881 92.1053 270.499 90.4927 269.733 88.9986C268.967 87.5045 267.448 86.7575 265.174 86.7575C263.045 86.7575 261.573 87.5164 260.759 89.0342C259.946 90.552 259.539 92.1528 259.539 93.8365ZM253.76 153.03L304.298 80.1765H313.702L263.164 153.03H253.76Z" fill="url(#paint2_radial_16177_226813)"/>
<path d="M77.435 157.997C71.3908 157.91 65.4347 156.817 59.5669 154.718C53.7433 152.619 48.449 149.121 43.6842 144.224C38.9194 139.326 35.1031 132.746 32.2354 124.482C29.4118 116.218 28 105.898 28 93.5242C28 81.8058 29.1691 71.3991 31.5074 62.3043C33.8898 53.2094 37.309 45.5356 41.765 39.2829C46.221 32.9864 51.6035 28.1985 57.9125 24.9191C64.2215 21.6397 71.3025 20 79.1556 20C87.2294 20 94.3987 21.5741 100.664 24.7223C106.928 27.8706 112.002 32.2212 115.884 37.7744C119.811 43.3275 122.304 49.6458 123.363 56.7293H103.178C101.811 51.1325 99.0973 46.5632 95.0384 43.0214C90.9795 39.4796 85.6852 37.7088 79.1556 37.7088C69.2289 37.7088 61.4861 41.9938 55.9271 50.564C50.4123 59.1342 47.6328 71.0493 47.5887 86.3095H48.5814C50.9197 82.5054 53.7874 79.2697 57.1845 76.6025C60.6258 73.8915 64.4641 71.8145 68.6995 70.3716C72.979 68.8849 77.4791 68.1416 82.1998 68.1416C90.053 68.1416 97.1561 70.0437 103.509 73.8478C109.906 77.6082 115.002 82.8115 118.796 89.4577C122.591 96.104 124.488 103.712 124.488 112.282C124.488 120.853 122.524 128.614 118.598 135.566C114.715 142.518 109.245 148.028 102.186 152.094C95.1266 156.117 86.8764 158.085 77.435 157.997ZM77.3688 140.944C82.5748 140.944 87.2294 139.676 91.3324 137.14C95.4355 134.604 98.6782 131.194 101.061 126.908C103.443 122.623 104.634 117.835 104.634 112.545C104.634 107.385 103.465 102.685 101.127 98.4433C98.8326 94.2019 95.656 90.8351 91.5971 88.3427C87.5823 85.8504 82.994 84.6042 77.8321 84.6042C73.9055 84.6042 70.2657 85.3475 66.9127 86.8342C63.6038 88.3209 60.692 90.3759 58.1772 92.9995C55.6624 95.623 53.6771 98.64 52.2212 102.051C50.8094 105.417 50.1035 108.981 50.1035 112.741C50.1035 117.77 51.2726 122.427 53.6109 126.712C55.9933 130.997 59.236 134.451 63.3391 137.075C67.4862 139.654 72.1628 140.944 77.3688 140.944Z" stroke="url(#paint3_radial_16177_226813)" stroke-width="2" mask="url(#path-1-inside-1_16177_226813)"/>
<path d="M188.071 157.997C178.585 157.997 170.203 156.379 162.923 153.144C155.688 149.908 150.019 145.448 145.916 139.764C141.813 134.079 139.783 127.608 139.827 120.35C139.783 114.665 140.952 109.44 143.335 104.674C145.761 99.8643 149.048 95.8635 153.195 92.6715C157.342 89.4359 161.975 87.3808 167.093 86.5063V85.7192C160.342 84.1014 154.938 80.5159 150.879 74.9628C146.82 69.4096 144.813 63.0257 144.857 55.8111C144.813 48.9462 146.644 42.8246 150.35 37.4464C154.1 32.0245 159.239 27.7612 165.769 24.6567C172.299 21.5522 179.733 20 188.071 20C196.321 20 203.689 21.5741 210.174 24.7223C216.704 27.8268 221.844 32.0901 225.594 37.512C229.344 42.8902 231.241 48.9899 231.285 55.8111C231.241 63.0257 229.168 69.4096 225.065 74.9628C220.961 80.5159 215.623 84.1014 209.049 85.7192V86.5063C214.123 87.3808 218.689 89.4359 222.748 92.6715C226.851 95.8635 230.116 99.8643 232.543 104.674C235.013 109.44 236.271 114.665 236.315 120.35C236.271 127.608 234.197 134.079 230.094 139.764C225.991 145.448 220.3 149.908 213.02 153.144C205.785 156.379 197.468 157.997 188.071 157.997ZM188.071 141.403C193.674 141.403 198.527 140.485 202.63 138.649C206.733 136.769 209.91 134.167 212.16 130.844C214.41 127.477 215.557 123.542 215.601 119.038C215.557 114.359 214.322 110.227 211.895 106.642C209.513 103.056 206.27 100.236 202.167 98.1809C198.064 96.1258 193.365 95.0983 188.071 95.0983C182.733 95.0983 177.99 96.1258 173.843 98.1809C169.696 100.236 166.431 103.056 164.048 106.642C161.666 110.227 160.497 114.359 160.541 119.038C160.497 123.542 161.578 127.477 163.784 130.844C166.034 134.167 169.232 136.769 173.379 138.649C177.527 140.485 182.424 141.403 188.071 141.403ZM188.071 78.898C192.571 78.898 196.564 78.0017 200.049 76.2089C203.535 74.4162 206.27 71.9239 208.255 68.7319C210.285 65.54 211.322 61.8014 211.366 57.5163C211.322 53.3187 210.307 49.6458 208.321 46.4976C206.38 43.3493 203.667 40.9226 200.182 39.2173C196.696 37.4683 192.659 36.5938 188.071 36.5938C183.394 36.5938 179.291 37.4683 175.762 39.2173C172.277 40.9226 169.563 43.3493 167.622 46.4976C165.681 49.6458 164.732 53.3187 164.776 57.5163C164.732 61.8014 165.703 65.54 167.688 68.7319C169.673 71.9239 172.409 74.4162 175.894 76.2089C179.424 78.0017 183.483 78.898 188.071 78.898Z" stroke="url(#paint4_radial_16177_226813)" stroke-width="2" mask="url(#path-1-inside-1_16177_226813)"/>
<path d="M286.746 139.37V135.528C286.746 132.611 287.368 129.931 288.613 127.489C289.881 125.022 291.711 123.054 294.104 121.584C296.521 120.09 299.464 119.343 302.934 119.343C306.452 119.343 309.407 120.078 311.8 121.548C314.216 123.018 316.035 124.987 317.255 127.453C318.5 129.896 319.122 132.588 319.122 135.528V139.37C319.122 142.287 318.5 144.979 317.255 147.445C316.011 149.888 314.181 151.845 311.764 153.315C309.347 154.809 306.404 155.556 302.934 155.556C299.416 155.556 296.461 154.809 294.068 153.315C291.675 151.845 289.857 149.888 288.613 147.445C287.368 144.979 286.746 142.287 286.746 139.37ZM297.191 135.528V139.37C297.191 141.054 297.598 142.643 298.411 144.137C299.249 145.631 300.756 146.378 302.934 146.378C305.111 146.378 306.595 145.643 307.385 144.173C308.198 142.702 308.605 141.101 308.605 139.37V135.528C308.605 133.797 308.222 132.184 307.457 130.69C306.691 129.196 305.183 128.449 302.934 128.449C300.78 128.449 299.285 129.196 298.447 130.69C297.61 132.184 297.191 133.797 297.191 135.528ZM249.022 97.6785V93.8365C249.022 90.8958 249.657 88.2041 250.925 85.7614C252.193 83.295 254.024 81.3267 256.416 79.8563C258.833 78.3859 261.753 77.6508 265.174 77.6508C268.716 77.6508 271.683 78.3859 274.076 79.8563C276.469 81.3267 278.287 83.295 279.532 85.7614C280.776 88.2041 281.398 90.8958 281.398 93.8365V97.6785C281.398 100.619 280.764 103.311 279.496 105.754C278.251 108.196 276.421 110.153 274.004 111.623C271.611 113.07 268.668 113.793 265.174 113.793C261.681 113.793 258.726 113.058 256.309 111.588C253.916 110.093 252.097 108.137 250.853 105.718C249.633 103.275 249.022 100.595 249.022 97.6785ZM259.539 93.8365V97.6785C259.539 99.4097 259.946 101.01 260.759 102.481C261.597 103.951 263.069 104.686 265.174 104.686C267.376 104.686 268.871 103.951 269.661 102.481C270.475 101.01 270.881 99.4097 270.881 97.6785V93.8365C270.881 92.1053 270.499 90.4927 269.733 88.9986C268.967 87.5045 267.448 86.7575 265.174 86.7575C263.045 86.7575 261.573 87.5164 260.759 89.0342C259.946 90.552 259.539 92.1528 259.539 93.8365ZM253.76 153.03L304.298 80.1765H313.702L263.164 153.03H253.76Z" stroke="url(#paint5_radial_16177_226813)" stroke-width="2" mask="url(#path-1-inside-1_16177_226813)"/>
<g style="mix-blend-mode:plus-lighter">
<mask id="path-2-inside-2_16177_226813" fill="white">
<path d="M77.435 157.997C71.3908 157.91 65.4347 156.817 59.5669 154.718C53.7433 152.619 48.449 149.121 43.6842 144.224C38.9194 139.326 35.1031 132.746 32.2354 124.482C29.4118 116.218 28 105.898 28 93.5242C28 81.8058 29.1691 71.3991 31.5074 62.3043C33.8898 53.2094 37.309 45.5356 41.765 39.2829C46.221 32.9864 51.6035 28.1985 57.9125 24.9191C64.2215 21.6397 71.3025 20 79.1556 20C87.2294 20 94.3987 21.5741 100.664 24.7223C106.928 27.8706 112.002 32.2212 115.884 37.7744C119.811 43.3275 122.304 49.6458 123.363 56.7293H103.178C101.811 51.1325 99.0973 46.5632 95.0384 43.0214C90.9795 39.4796 85.6852 37.7088 79.1556 37.7088C69.2289 37.7088 61.4861 41.9938 55.9271 50.564C50.4123 59.1342 47.6328 71.0493 47.5887 86.3095H48.5814C50.9197 82.5054 53.7874 79.2697 57.1845 76.6025C60.6258 73.8915 64.4641 71.8145 68.6995 70.3716C72.979 68.8849 77.4791 68.1416 82.1998 68.1416C90.053 68.1416 97.1561 70.0437 103.509 73.8478C109.906 77.6082 115.002 82.8115 118.796 89.4577C122.591 96.104 124.488 103.712 124.488 112.282C124.488 120.853 122.524 128.614 118.598 135.566C114.715 142.518 109.245 148.028 102.186 152.094C95.1266 156.117 86.8764 158.085 77.435 157.997ZM77.3688 140.944C82.5748 140.944 87.2294 139.676 91.3324 137.14C95.4355 134.604 98.6782 131.194 101.061 126.908C103.443 122.623 104.634 117.835 104.634 112.545C104.634 107.385 103.465 102.685 101.127 98.4433C98.8326 94.2019 95.656 90.8351 91.5971 88.3427C87.5823 85.8504 82.994 84.6042 77.8321 84.6042C73.9055 84.6042 70.2657 85.3475 66.9127 86.8342C63.6038 88.3209 60.692 90.3759 58.1772 92.9995C55.6624 95.623 53.6771 98.64 52.2212 102.051C50.8094 105.417 50.1035 108.981 50.1035 112.741C50.1035 117.77 51.2726 122.427 53.6109 126.712C55.9933 130.997 59.236 134.451 63.3391 137.075C67.4862 139.654 72.1628 140.944 77.3688 140.944Z"/>
<path d="M188.071 157.997C178.585 157.997 170.203 156.379 162.923 153.144C155.688 149.908 150.019 145.448 145.916 139.764C141.813 134.079 139.783 127.608 139.827 120.35C139.783 114.665 140.952 109.44 143.335 104.674C145.761 99.8643 149.048 95.8635 153.195 92.6715C157.342 89.4359 161.975 87.3808 167.093 86.5063V85.7192C160.342 84.1014 154.938 80.5159 150.879 74.9628C146.82 69.4096 144.813 63.0257 144.857 55.8111C144.813 48.9462 146.644 42.8246 150.35 37.4464C154.1 32.0245 159.239 27.7612 165.769 24.6567C172.299 21.5522 179.733 20 188.071 20C196.321 20 203.689 21.5741 210.174 24.7223C216.704 27.8268 221.844 32.0901 225.594 37.512C229.344 42.8902 231.241 48.9899 231.285 55.8111C231.241 63.0257 229.168 69.4096 225.065 74.9628C220.961 80.5159 215.623 84.1014 209.049 85.7192V86.5063C214.123 87.3808 218.689 89.4359 222.748 92.6715C226.851 95.8635 230.116 99.8643 232.543 104.674C235.013 109.44 236.271 114.665 236.315 120.35C236.271 127.608 234.197 134.079 230.094 139.764C225.991 145.448 220.3 149.908 213.02 153.144C205.785 156.379 197.468 157.997 188.071 157.997ZM188.071 141.403C193.674 141.403 198.527 140.485 202.63 138.649C206.733 136.769 209.91 134.167 212.16 130.844C214.41 127.477 215.557 123.542 215.601 119.038C215.557 114.359 214.322 110.227 211.895 106.642C209.513 103.056 206.27 100.236 202.167 98.1809C198.064 96.1258 193.365 95.0983 188.071 95.0983C182.733 95.0983 177.99 96.1258 173.843 98.1809C169.696 100.236 166.431 103.056 164.048 106.642C161.666 110.227 160.497 114.359 160.541 119.038C160.497 123.542 161.578 127.477 163.784 130.844C166.034 134.167 169.232 136.769 173.379 138.649C177.527 140.485 182.424 141.403 188.071 141.403ZM188.071 78.898C192.571 78.898 196.564 78.0017 200.049 76.2089C203.535 74.4162 206.27 71.9239 208.255 68.7319C210.285 65.54 211.322 61.8014 211.366 57.5163C211.322 53.3187 210.307 49.6458 208.321 46.4976C206.38 43.3493 203.667 40.9226 200.182 39.2173C196.696 37.4683 192.659 36.5938 188.071 36.5938C183.394 36.5938 179.291 37.4683 175.762 39.2173C172.277 40.9226 169.563 43.3493 167.622 46.4976C165.681 49.6458 164.732 53.3187 164.776 57.5163C164.732 61.8014 165.703 65.54 167.688 68.7319C169.673 71.9239 172.409 74.4162 175.894 76.2089C179.424 78.0017 183.483 78.898 188.071 78.898Z"/>
<path d="M286.746 139.37V135.528C286.746 132.611 287.368 129.931 288.613 127.489C289.881 125.022 291.711 123.054 294.104 121.584C296.521 120.09 299.464 119.343 302.934 119.343C306.452 119.343 309.407 120.078 311.8 121.548C314.216 123.018 316.035 124.987 317.255 127.453C318.5 129.896 319.122 132.588 319.122 135.528V139.37C319.122 142.287 318.5 144.979 317.255 147.445C316.011 149.888 314.181 151.845 311.764 153.315C309.347 154.809 306.404 155.556 302.934 155.556C299.416 155.556 296.461 154.809 294.068 153.315C291.675 151.845 289.857 149.888 288.613 147.445C287.368 144.979 286.746 142.287 286.746 139.37ZM297.191 135.528V139.37C297.191 141.054 297.598 142.643 298.411 144.137C299.249 145.631 300.756 146.378 302.934 146.378C305.111 146.378 306.595 145.643 307.385 144.173C308.198 142.702 308.605 141.101 308.605 139.37V135.528C308.605 133.797 308.222 132.184 307.457 130.69C306.691 129.196 305.183 128.449 302.934 128.449C300.78 128.449 299.285 129.196 298.447 130.69C297.61 132.184 297.191 133.797 297.191 135.528ZM249.022 97.6785V93.8365C249.022 90.8958 249.657 88.2041 250.925 85.7614C252.193 83.295 254.024 81.3267 256.416 79.8563C258.833 78.3859 261.753 77.6508 265.174 77.6508C268.716 77.6508 271.683 78.3859 274.076 79.8563C276.469 81.3267 278.287 83.295 279.532 85.7614C280.776 88.2041 281.398 90.8958 281.398 93.8365V97.6785C281.398 100.619 280.764 103.311 279.496 105.754C278.251 108.196 276.421 110.153 274.004 111.623C271.611 113.07 268.668 113.793 265.174 113.793C261.681 113.793 258.726 113.058 256.309 111.588C253.916 110.093 252.097 108.137 250.853 105.718C249.633 103.275 249.022 100.595 249.022 97.6785ZM259.539 93.8365V97.6785C259.539 99.4097 259.946 101.01 260.759 102.481C261.597 103.951 263.069 104.686 265.174 104.686C267.376 104.686 268.871 103.951 269.661 102.481C270.475 101.01 270.881 99.4097 270.881 97.6785V93.8365C270.881 92.1053 270.499 90.4927 269.733 88.9986C268.967 87.5045 267.448 86.7575 265.174 86.7575C263.045 86.7575 261.573 87.5164 260.759 89.0342C259.946 90.552 259.539 92.1528 259.539 93.8365ZM253.76 153.03L304.298 80.1765H313.702L263.164 153.03H253.76Z"/>
</mask>
<path d="M77.435 157.997C71.3908 157.91 65.4347 156.817 59.5669 154.718C53.7433 152.619 48.449 149.121 43.6842 144.224C38.9194 139.326 35.1031 132.746 32.2354 124.482C29.4118 116.218 28 105.898 28 93.5242C28 81.8058 29.1691 71.3991 31.5074 62.3043C33.8898 53.2094 37.309 45.5356 41.765 39.2829C46.221 32.9864 51.6035 28.1985 57.9125 24.9191C64.2215 21.6397 71.3025 20 79.1556 20C87.2294 20 94.3987 21.5741 100.664 24.7223C106.928 27.8706 112.002 32.2212 115.884 37.7744C119.811 43.3275 122.304 49.6458 123.363 56.7293H103.178C101.811 51.1325 99.0973 46.5632 95.0384 43.0214C90.9795 39.4796 85.6852 37.7088 79.1556 37.7088C69.2289 37.7088 61.4861 41.9938 55.9271 50.564C50.4123 59.1342 47.6328 71.0493 47.5887 86.3095H48.5814C50.9197 82.5054 53.7874 79.2697 57.1845 76.6025C60.6258 73.8915 64.4641 71.8145 68.6995 70.3716C72.979 68.8849 77.4791 68.1416 82.1998 68.1416C90.053 68.1416 97.1561 70.0437 103.509 73.8478C109.906 77.6082 115.002 82.8115 118.796 89.4577C122.591 96.104 124.488 103.712 124.488 112.282C124.488 120.853 122.524 128.614 118.598 135.566C114.715 142.518 109.245 148.028 102.186 152.094C95.1266 156.117 86.8764 158.085 77.435 157.997ZM77.3688 140.944C82.5748 140.944 87.2294 139.676 91.3324 137.14C95.4355 134.604 98.6782 131.194 101.061 126.908C103.443 122.623 104.634 117.835 104.634 112.545C104.634 107.385 103.465 102.685 101.127 98.4433C98.8326 94.2019 95.656 90.8351 91.5971 88.3427C87.5823 85.8504 82.994 84.6042 77.8321 84.6042C73.9055 84.6042 70.2657 85.3475 66.9127 86.8342C63.6038 88.3209 60.692 90.3759 58.1772 92.9995C55.6624 95.623 53.6771 98.64 52.2212 102.051C50.8094 105.417 50.1035 108.981 50.1035 112.741C50.1035 117.77 51.2726 122.427 53.6109 126.712C55.9933 130.997 59.236 134.451 63.3391 137.075C67.4862 139.654 72.1628 140.944 77.3688 140.944Z" stroke="url(#paint6_radial_16177_226813)" stroke-width="2.54522" mask="url(#path-2-inside-2_16177_226813)"/>
<path d="M188.071 157.997C178.585 157.997 170.203 156.379 162.923 153.144C155.688 149.908 150.019 145.448 145.916 139.764C141.813 134.079 139.783 127.608 139.827 120.35C139.783 114.665 140.952 109.44 143.335 104.674C145.761 99.8643 149.048 95.8635 153.195 92.6715C157.342 89.4359 161.975 87.3808 167.093 86.5063V85.7192C160.342 84.1014 154.938 80.5159 150.879 74.9628C146.82 69.4096 144.813 63.0257 144.857 55.8111C144.813 48.9462 146.644 42.8246 150.35 37.4464C154.1 32.0245 159.239 27.7612 165.769 24.6567C172.299 21.5522 179.733 20 188.071 20C196.321 20 203.689 21.5741 210.174 24.7223C216.704 27.8268 221.844 32.0901 225.594 37.512C229.344 42.8902 231.241 48.9899 231.285 55.8111C231.241 63.0257 229.168 69.4096 225.065 74.9628C220.961 80.5159 215.623 84.1014 209.049 85.7192V86.5063C214.123 87.3808 218.689 89.4359 222.748 92.6715C226.851 95.8635 230.116 99.8643 232.543 104.674C235.013 109.44 236.271 114.665 236.315 120.35C236.271 127.608 234.197 134.079 230.094 139.764C225.991 145.448 220.3 149.908 213.02 153.144C205.785 156.379 197.468 157.997 188.071 157.997ZM188.071 141.403C193.674 141.403 198.527 140.485 202.63 138.649C206.733 136.769 209.91 134.167 212.16 130.844C214.41 127.477 215.557 123.542 215.601 119.038C215.557 114.359 214.322 110.227 211.895 106.642C209.513 103.056 206.27 100.236 202.167 98.1809C198.064 96.1258 193.365 95.0983 188.071 95.0983C182.733 95.0983 177.99 96.1258 173.843 98.1809C169.696 100.236 166.431 103.056 164.048 106.642C161.666 110.227 160.497 114.359 160.541 119.038C160.497 123.542 161.578 127.477 163.784 130.844C166.034 134.167 169.232 136.769 173.379 138.649C177.527 140.485 182.424 141.403 188.071 141.403ZM188.071 78.898C192.571 78.898 196.564 78.0017 200.049 76.2089C203.535 74.4162 206.27 71.9239 208.255 68.7319C210.285 65.54 211.322 61.8014 211.366 57.5163C211.322 53.3187 210.307 49.6458 208.321 46.4976C206.38 43.3493 203.667 40.9226 200.182 39.2173C196.696 37.4683 192.659 36.5938 188.071 36.5938C183.394 36.5938 179.291 37.4683 175.762 39.2173C172.277 40.9226 169.563 43.3493 167.622 46.4976C165.681 49.6458 164.732 53.3187 164.776 57.5163C164.732 61.8014 165.703 65.54 167.688 68.7319C169.673 71.9239 172.409 74.4162 175.894 76.2089C179.424 78.0017 183.483 78.898 188.071 78.898Z" stroke="url(#paint7_radial_16177_226813)" stroke-width="2.54522" mask="url(#path-2-inside-2_16177_226813)"/>
<path d="M286.746 139.37V135.528C286.746 132.611 287.368 129.931 288.613 127.489C289.881 125.022 291.711 123.054 294.104 121.584C296.521 120.09 299.464 119.343 302.934 119.343C306.452 119.343 309.407 120.078 311.8 121.548C314.216 123.018 316.035 124.987 317.255 127.453C318.5 129.896 319.122 132.588 319.122 135.528V139.37C319.122 142.287 318.5 144.979 317.255 147.445C316.011 149.888 314.181 151.845 311.764 153.315C309.347 154.809 306.404 155.556 302.934 155.556C299.416 155.556 296.461 154.809 294.068 153.315C291.675 151.845 289.857 149.888 288.613 147.445C287.368 144.979 286.746 142.287 286.746 139.37ZM297.191 135.528V139.37C297.191 141.054 297.598 142.643 298.411 144.137C299.249 145.631 300.756 146.378 302.934 146.378C305.111 146.378 306.595 145.643 307.385 144.173C308.198 142.702 308.605 141.101 308.605 139.37V135.528C308.605 133.797 308.222 132.184 307.457 130.69C306.691 129.196 305.183 128.449 302.934 128.449C300.78 128.449 299.285 129.196 298.447 130.69C297.61 132.184 297.191 133.797 297.191 135.528ZM249.022 97.6785V93.8365C249.022 90.8958 249.657 88.2041 250.925 85.7614C252.193 83.295 254.024 81.3267 256.416 79.8563C258.833 78.3859 261.753 77.6508 265.174 77.6508C268.716 77.6508 271.683 78.3859 274.076 79.8563C276.469 81.3267 278.287 83.295 279.532 85.7614C280.776 88.2041 281.398 90.8958 281.398 93.8365V97.6785C281.398 100.619 280.764 103.311 279.496 105.754C278.251 108.196 276.421 110.153 274.004 111.623C271.611 113.07 268.668 113.793 265.174 113.793C261.681 113.793 258.726 113.058 256.309 111.588C253.916 110.093 252.097 108.137 250.853 105.718C249.633 103.275 249.022 100.595 249.022 97.6785ZM259.539 93.8365V97.6785C259.539 99.4097 259.946 101.01 260.759 102.481C261.597 103.951 263.069 104.686 265.174 104.686C267.376 104.686 268.871 103.951 269.661 102.481C270.475 101.01 270.881 99.4097 270.881 97.6785V93.8365C270.881 92.1053 270.499 90.4927 269.733 88.9986C268.967 87.5045 267.448 86.7575 265.174 86.7575C263.045 86.7575 261.573 87.5164 260.759 89.0342C259.946 90.552 259.539 92.1528 259.539 93.8365ZM253.76 153.03L304.298 80.1765H313.702L263.164 153.03H253.76Z" stroke="url(#paint8_radial_16177_226813)" stroke-width="2.54522" mask="url(#path-2-inside-2_16177_226813)"/>
</g>
<g style="mix-blend-mode:plus-lighter" filter="url(#filter0_f_16177_226813)">
<path d="M77.435 157.997C71.3908 157.91 65.4347 156.817 59.5669 154.718C53.7433 152.619 48.449 149.121 43.6842 144.224C38.9194 139.326 35.1031 132.746 32.2354 124.482C29.4118 116.218 28 105.898 28 93.5242C28 81.8058 29.1691 71.3991 31.5074 62.3043C33.8898 53.2094 37.309 45.5356 41.765 39.2829C46.221 32.9864 51.6035 28.1985 57.9125 24.9191C64.2215 21.6397 71.3025 20 79.1556 20C87.2294 20 94.3987 21.5741 100.664 24.7223C106.928 27.8706 112.002 32.2212 115.884 37.7744C119.811 43.3275 122.304 49.6458 123.363 56.7293H103.178C101.811 51.1325 99.0973 46.5632 95.0384 43.0214C90.9795 39.4796 85.6852 37.7088 79.1556 37.7088C69.2289 37.7088 61.4861 41.9938 55.9271 50.564C50.4123 59.1342 47.6328 71.0493 47.5887 86.3095H48.5814C50.9197 82.5054 53.7874 79.2697 57.1845 76.6025C60.6258 73.8915 64.4641 71.8145 68.6995 70.3716C72.979 68.8849 77.4791 68.1416 82.1998 68.1416C90.053 68.1416 97.1561 70.0437 103.509 73.8478C109.906 77.6081 115.002 82.8115 118.796 89.4577C122.591 96.104 124.488 103.712 124.488 112.282C124.488 120.853 122.524 128.614 118.598 135.566C114.715 142.518 109.245 148.028 102.186 152.094C95.1266 156.117 86.8764 158.085 77.435 157.997ZM77.3688 140.944C82.5748 140.944 87.2294 139.676 91.3324 137.14C95.4355 134.604 98.6782 131.194 101.061 126.908C103.443 122.623 104.634 117.835 104.634 112.545C104.634 107.385 103.465 102.685 101.127 98.4433C98.8326 94.2019 95.656 90.8351 91.5971 88.3427C87.5823 85.8504 82.994 84.6042 77.8321 84.6042C73.9055 84.6042 70.2657 85.3475 66.9127 86.8342C63.6038 88.3209 60.692 90.3759 58.1772 92.9995C55.6624 95.623 53.6771 98.64 52.2212 102.051C50.8094 105.417 50.1035 108.981 50.1035 112.741C50.1035 117.77 51.2726 122.427 53.6109 126.712C55.9933 130.997 59.236 134.451 63.3391 137.075C67.4862 139.654 72.1628 140.944 77.3688 140.944Z" stroke="url(#paint9_radial_16177_226813)" stroke-width="7.15596"/>
<path d="M188.071 157.997C178.585 157.997 170.203 156.379 162.923 153.144C155.688 149.908 150.019 145.448 145.916 139.764C141.813 134.079 139.783 127.608 139.827 120.35C139.783 114.665 140.952 109.44 143.335 104.674C145.761 99.8643 149.048 95.8635 153.195 92.6715C157.342 89.4359 161.975 87.3808 167.093 86.5063V85.7192C160.342 84.1014 154.938 80.5159 150.879 74.9628C146.82 69.4096 144.813 63.0257 144.857 55.8111C144.813 48.9462 146.644 42.8246 150.35 37.4464C154.1 32.0245 159.239 27.7612 165.769 24.6567C172.299 21.5522 179.733 20 188.071 20C196.321 20 203.689 21.5741 210.174 24.7223C216.704 27.8268 221.844 32.0901 225.594 37.512C229.344 42.8902 231.241 48.9899 231.285 55.8111C231.241 63.0257 229.168 69.4096 225.065 74.9628C220.961 80.5159 215.623 84.1014 209.049 85.7192V86.5063C214.123 87.3808 218.689 89.4359 222.748 92.6715C226.851 95.8635 230.116 99.8643 232.543 104.674C235.013 109.44 236.271 114.665 236.315 120.35C236.271 127.608 234.197 134.079 230.094 139.764C225.991 145.448 220.3 149.908 213.02 153.144C205.785 156.379 197.468 157.997 188.071 157.997ZM188.071 141.403C193.674 141.403 198.527 140.485 202.63 138.649C206.733 136.769 209.91 134.167 212.16 130.844C214.41 127.477 215.557 123.542 215.601 119.038C215.557 114.359 214.322 110.227 211.895 106.642C209.513 103.056 206.27 100.236 202.167 98.1809C198.064 96.1258 193.365 95.0983 188.071 95.0983C182.733 95.0983 177.99 96.1258 173.843 98.1809C169.696 100.236 166.431 103.056 164.048 106.642C161.666 110.227 160.497 114.359 160.541 119.038C160.497 123.542 161.578 127.477 163.784 130.844C166.034 134.167 169.232 136.769 173.379 138.649C177.527 140.485 182.424 141.403 188.071 141.403ZM188.071 78.898C192.571 78.898 196.564 78.0017 200.049 76.2089C203.535 74.4162 206.27 71.9239 208.255 68.7319C210.285 65.54 211.322 61.8014 211.366 57.5163C211.322 53.3187 210.307 49.6458 208.321 46.4976C206.38 43.3493 203.667 40.9226 200.182 39.2173C196.696 37.4683 192.659 36.5938 188.071 36.5938C183.394 36.5938 179.291 37.4683 175.762 39.2173C172.277 40.9226 169.563 43.3493 167.622 46.4976C165.681 49.6458 164.732 53.3187 164.776 57.5163C164.732 61.8014 165.703 65.54 167.688 68.7319C169.673 71.9239 172.409 74.4162 175.894 76.2089C179.424 78.0017 183.483 78.898 188.071 78.898Z" stroke="url(#paint10_radial_16177_226813)" stroke-width="7.15596"/>
<path d="M286.746 139.37V135.528C286.746 132.611 287.368 129.931 288.613 127.489C289.881 125.022 291.711 123.054 294.104 121.584C296.521 120.09 299.464 119.343 302.934 119.343C306.452 119.343 309.407 120.078 311.8 121.548C314.216 123.018 316.035 124.987 317.255 127.453C318.5 129.896 319.122 132.588 319.122 135.528V139.37C319.122 142.287 318.5 144.979 317.255 147.445C316.011 149.888 314.181 151.845 311.764 153.315C309.347 154.809 306.404 155.556 302.934 155.556C299.416 155.556 296.461 154.809 294.068 153.315C291.675 151.845 289.857 149.888 288.613 147.445C287.368 144.979 286.746 142.287 286.746 139.37ZM297.191 135.528V139.37C297.191 141.054 297.598 142.643 298.411 144.137C299.249 145.631 300.756 146.378 302.934 146.378C305.111 146.378 306.595 145.643 307.385 144.173C308.198 142.702 308.605 141.101 308.605 139.37V135.528C308.605 133.797 308.222 132.184 307.457 130.69C306.691 129.196 305.183 128.449 302.934 128.449C300.78 128.449 299.285 129.196 298.447 130.69C297.61 132.184 297.191 133.797 297.191 135.528ZM249.022 97.6785V93.8365C249.022 90.8958 249.657 88.2041 250.925 85.7614C252.193 83.295 254.024 81.3267 256.416 79.8563C258.833 78.3859 261.753 77.6508 265.174 77.6508C268.716 77.6508 271.683 78.3859 274.076 79.8563C276.469 81.3267 278.287 83.295 279.532 85.7614C280.776 88.2041 281.398 90.8958 281.398 93.8365V97.6785C281.398 100.619 280.764 103.311 279.496 105.754C278.251 108.196 276.421 110.153 274.004 111.623C271.611 113.07 268.668 113.793 265.174 113.793C261.681 113.793 258.726 113.058 256.309 111.588C253.916 110.093 252.097 108.137 250.853 105.718C249.633 103.275 249.022 100.595 249.022 97.6785ZM259.539 93.8365V97.6785C259.539 99.4097 259.946 101.01 260.759 102.481C261.597 103.951 263.069 104.686 265.174 104.686C267.376 104.686 268.871 103.951 269.661 102.481C270.475 101.01 270.881 99.4097 270.881 97.6785V93.8365C270.881 92.1053 270.499 90.4927 269.733 88.9986C268.967 87.5045 267.448 86.7575 265.174 86.7575C263.045 86.7575 261.573 87.5164 260.759 89.0342C259.946 90.552 259.539 92.1528 259.539 93.8365ZM253.76 153.03L304.298 80.1765H313.702L263.164 153.03H253.76Z" stroke="url(#paint11_radial_16177_226813)" stroke-width="7.15596"/>
</g>
</g>
<defs>
<filter id="filter0_f_16177_226813" x="8.32096" y="0.320957" width="330.483" height="177.358" filterUnits="userSpaceOnUse" color-interpolation-filters="sRGB">
<feFlood flood-opacity="0" result="BackgroundImageFix"/>
<feBlend mode="normal" in="SourceGraphic" in2="BackgroundImageFix" result="shape"/>
<feGaussianBlur stdDeviation="8.05046" result="effect1_foregroundBlur_16177_226813"/>
</filter>
<radialGradient id="paint0_radial_16177_226813" cx="0" cy="0" r="1" gradientUnits="userSpaceOnUse" gradientTransform="translate(152.81 41.2043) rotate(90.2256) scale(126.868 433.705)">
<stop offset="0.140816" stop-color="#00E599"/>
<stop offset="0.851975" stop-color="#007F55" stop-opacity="0"/>
</radialGradient>
<radialGradient id="paint1_radial_16177_226813" cx="0" cy="0" r="1" gradientUnits="userSpaceOnUse" gradientTransform="translate(152.81 41.2043) rotate(90.2256) scale(126.868 433.705)">
<stop offset="0.140816" stop-color="#00E599"/>
<stop offset="0.851975" stop-color="#007F55" stop-opacity="0"/>
</radialGradient>
<radialGradient id="paint2_radial_16177_226813" cx="0" cy="0" r="1" gradientUnits="userSpaceOnUse" gradientTransform="translate(152.81 41.2043) rotate(90.2256) scale(126.868 433.705)">
<stop offset="0.140816" stop-color="#00E599"/>
<stop offset="0.851975" stop-color="#007F55" stop-opacity="0"/>
</radialGradient>
<radialGradient id="paint3_radial_16177_226813" cx="0" cy="0" r="1" gradientUnits="userSpaceOnUse" gradientTransform="translate(173.289 19.7268) rotate(90) scale(126.867 179.03)">
<stop stop-color="#89FFD8"/>
<stop offset="1" stop-color="#007F55" stop-opacity="0"/>
</radialGradient>
<radialGradient id="paint4_radial_16177_226813" cx="0" cy="0" r="1" gradientUnits="userSpaceOnUse" gradientTransform="translate(173.289 19.7268) rotate(90) scale(126.867 179.03)">
<stop stop-color="#89FFD8"/>
<stop offset="1" stop-color="#007F55" stop-opacity="0"/>
</radialGradient>
<radialGradient id="paint5_radial_16177_226813" cx="0" cy="0" r="1" gradientUnits="userSpaceOnUse" gradientTransform="translate(173.289 19.7268) rotate(90) scale(126.867 179.03)">
<stop stop-color="#89FFD8"/>
<stop offset="1" stop-color="#007F55" stop-opacity="0"/>
</radialGradient>
<radialGradient id="paint6_radial_16177_226813" cx="0" cy="0" r="1" gradientUnits="userSpaceOnUse" gradientTransform="translate(108.797 20.2637) rotate(81.4847) scale(63.1417 210.323)">
<stop stop-color="#89FFD8"/>
<stop offset="1" stop-color="#007F55" stop-opacity="0"/>
</radialGradient>
<radialGradient id="paint7_radial_16177_226813" cx="0" cy="0" r="1" gradientUnits="userSpaceOnUse" gradientTransform="translate(108.797 20.2637) rotate(81.4847) scale(63.1417 210.323)">
<stop stop-color="#89FFD8"/>
<stop offset="1" stop-color="#007F55" stop-opacity="0"/>
</radialGradient>
<radialGradient id="paint8_radial_16177_226813" cx="0" cy="0" r="1" gradientUnits="userSpaceOnUse" gradientTransform="translate(108.797 20.2637) rotate(81.4847) scale(63.1417 210.323)">
<stop stop-color="#89FFD8"/>
<stop offset="1" stop-color="#007F55" stop-opacity="0"/>
</radialGradient>
<radialGradient id="paint9_radial_16177_226813" cx="0" cy="0" r="1" gradientUnits="userSpaceOnUse" gradientTransform="translate(89.3794 19.9898) rotate(90) scale(30.5966 274.809)">
<stop stop-color="#89FFD8"/>
<stop offset="1" stop-color="#007F55" stop-opacity="0"/>
</radialGradient>
<radialGradient id="paint10_radial_16177_226813" cx="0" cy="0" r="1" gradientUnits="userSpaceOnUse" gradientTransform="translate(89.3794 19.9898) rotate(90) scale(30.5966 274.809)">
<stop stop-color="#89FFD8"/>
<stop offset="1" stop-color="#007F55" stop-opacity="0"/>
</radialGradient>
<radialGradient id="paint11_radial_16177_226813" cx="0" cy="0" r="1" gradientUnits="userSpaceOnUse" gradientTransform="translate(89.3794 19.9898) rotate(90) scale(30.5966 274.809)">
<stop stop-color="#89FFD8"/>
<stop offset="1" stop-color="#007F55" stop-opacity="0"/>
</radialGradient>
<clipPath id="clip0_16177_226813">
<rect width="330" height="178" fill="white"/>
</clipPath>
</defs>
</svg>
