<svg width="195" height="170" viewBox="0 0 195 170" fill="none" xmlns="http://www.w3.org/2000/svg">
<mask id="path-1-inside-1_16177_226764" fill="white">
<path fill-rule="evenodd" clip-rule="evenodd" d="M169.555 144.99C164.048 150.498 156.578 153.592 148.789 153.592C141.004 153.583 133.539 150.486 128.034 144.98C122.529 139.475 119.432 132.011 119.423 124.225C119.423 93.7074 135.793 70.0858 149.524 55.6426C149.773 55.3802 150.073 55.1713 150.406 55.0285C150.739 54.8858 151.097 54.8122 151.459 54.8123H156.799C157.275 54.8123 157.743 54.9399 158.154 55.1818C158.564 55.4236 158.903 55.771 159.134 56.1879C159.365 56.6047 159.48 57.0757 159.467 57.5521C159.455 58.0285 159.315 58.4929 159.062 58.897C152.111 69.797 147.741 82.1405 146.285 94.9862C147.113 94.9141 147.943 94.8581 148.789 94.8581C156.578 94.8581 164.048 97.9521 169.555 103.459C175.062 108.967 178.156 116.436 178.156 124.225C178.156 132.014 175.062 139.483 169.555 144.99ZM100.133 144.99C94.6257 150.498 87.1561 153.592 79.3675 153.592C71.5817 153.583 64.1175 150.486 58.6121 144.98C53.1068 139.475 50.0098 132.011 50.0006 124.225C50.0006 93.7074 66.3713 70.0858 80.1017 55.6426C80.3511 55.3802 80.6514 55.1713 80.9841 55.0285C81.3169 54.8858 81.6752 54.8122 82.0372 54.8123H87.3767C87.8532 54.8123 88.3211 54.9399 88.7317 55.1818C89.1423 55.4236 89.4807 55.771 89.7117 56.1879C89.9427 56.6047 90.058 57.0757 90.0455 57.5521C90.0329 58.0285 89.8932 58.4929 89.6406 58.897C82.6893 69.797 78.3191 82.1405 76.8633 94.9862C77.6909 94.9141 78.5212 94.8581 79.3675 94.8581C87.1561 94.8581 94.6257 97.9521 100.133 103.459C105.64 108.967 108.734 116.436 108.734 124.225C108.734 132.014 105.64 139.483 100.133 144.99Z"/>
</mask>
<path fill-rule="evenodd" clip-rule="evenodd" d="M169.555 144.99C164.048 150.498 156.578 153.592 148.789 153.592C141.004 153.583 133.539 150.486 128.034 144.98C122.529 139.475 119.432 132.011 119.423 124.225C119.423 93.7074 135.793 70.0858 149.524 55.6426C149.773 55.3802 150.073 55.1713 150.406 55.0285C150.739 54.8858 151.097 54.8122 151.459 54.8123H156.799C157.275 54.8123 157.743 54.9399 158.154 55.1818C158.564 55.4236 158.903 55.771 159.134 56.1879C159.365 56.6047 159.48 57.0757 159.467 57.5521C159.455 58.0285 159.315 58.4929 159.062 58.897C152.111 69.797 147.741 82.1405 146.285 94.9862C147.113 94.9141 147.943 94.8581 148.789 94.8581C156.578 94.8581 164.048 97.9521 169.555 103.459C175.062 108.967 178.156 116.436 178.156 124.225C178.156 132.014 175.062 139.483 169.555 144.99ZM100.133 144.99C94.6257 150.498 87.1561 153.592 79.3675 153.592C71.5817 153.583 64.1175 150.486 58.6121 144.98C53.1068 139.475 50.0098 132.011 50.0006 124.225C50.0006 93.7074 66.3713 70.0858 80.1017 55.6426C80.3511 55.3802 80.6514 55.1713 80.9841 55.0285C81.3169 54.8858 81.6752 54.8122 82.0372 54.8123H87.3767C87.8532 54.8123 88.3211 54.9399 88.7317 55.1818C89.1423 55.4236 89.4807 55.771 89.7117 56.1879C89.9427 56.6047 90.058 57.0757 90.0455 57.5521C90.0329 58.0285 89.8932 58.4929 89.6406 58.897C82.6893 69.797 78.3191 82.1405 76.8633 94.9862C77.6909 94.9141 78.5212 94.8581 79.3675 94.8581C87.1561 94.8581 94.6257 97.9521 100.133 103.459C105.64 108.967 108.734 116.436 108.734 124.225C108.734 132.014 105.64 139.483 100.133 144.99Z" fill="url(#paint0_radial_16177_226764)"/>
<path d="M148.789 153.592L148.788 154.634H148.789V153.592ZM169.555 144.99L170.292 145.727L169.555 144.99ZM128.034 144.98L128.771 144.243L128.034 144.98ZM119.423 124.225H118.38V124.226L119.423 124.225ZM149.524 55.6426L148.768 54.9245L148.768 54.9245L149.524 55.6426ZM150.406 55.0285L149.995 54.0707L149.995 54.0707L150.406 55.0285ZM151.459 54.8123L151.459 55.8546H151.459V54.8123ZM158.154 55.1818L157.625 56.0798L157.625 56.0798L158.154 55.1818ZM159.467 57.5521L158.425 57.5248H158.425L159.467 57.5521ZM159.062 58.897L159.941 59.4575L159.946 59.4494L159.062 58.897ZM146.285 94.9862L145.25 94.8688L145.106 96.1351L146.376 96.0246L146.285 94.9862ZM169.555 103.459L170.292 102.722H170.292L169.555 103.459ZM79.3675 153.592L79.3663 154.634H79.3675V153.592ZM100.133 144.99L99.396 144.253L100.133 144.99ZM58.6121 144.98L57.8751 145.717V145.717L58.6121 144.98ZM50.0006 124.225H48.9584V124.226L50.0006 124.225ZM80.1017 55.6426L79.3463 54.9245L80.1017 55.6426ZM80.9841 55.0285L80.5732 54.0707L80.5732 54.0707L80.9841 55.0285ZM82.0372 54.8123L82.037 55.8546H82.0372V54.8123ZM88.7317 55.1818L88.2027 56.0798L88.2027 56.0798L88.7317 55.1818ZM90.0455 57.5521L91.0874 57.5795V57.5795L90.0455 57.5521ZM89.6406 58.897L90.5194 59.4574L90.5244 59.4494L89.6406 58.897ZM76.8633 94.9862L75.8277 94.8688L75.6842 96.1351L76.9538 96.0246L76.8633 94.9862ZM100.133 103.459L100.87 102.722L100.133 103.459ZM148.789 154.634C156.854 154.634 164.589 151.43 170.292 145.727L168.818 144.253C163.506 149.565 156.302 152.55 148.789 152.55V154.634ZM127.297 145.717C132.998 151.418 140.726 154.625 148.788 154.634L148.791 152.55C141.281 152.541 134.081 149.553 128.771 144.243L127.297 145.717ZM118.38 124.226C118.39 132.288 121.596 140.017 127.297 145.717L128.771 144.243C123.461 138.933 120.474 131.733 120.465 124.224L118.38 124.226ZM148.768 54.9245C134.953 69.4571 118.38 93.3245 118.38 124.225H120.465C120.465 94.0903 136.634 70.7144 150.279 56.3607L148.768 54.9245ZM149.995 54.0707C149.532 54.2691 149.115 54.5596 148.768 54.9245L150.279 56.3607C150.431 56.2008 150.614 56.0734 150.817 55.9864L149.995 54.0707ZM151.459 53.77C150.956 53.7699 150.458 53.8722 149.995 54.0707L150.817 55.9864C151.02 55.8994 151.238 55.8546 151.459 55.8546L151.459 53.77ZM156.799 53.77H151.459V55.8546H156.799V53.77ZM158.683 54.2837C158.112 53.9474 157.461 53.77 156.799 53.77V55.8546C157.089 55.8546 157.374 55.9324 157.625 56.0798L158.683 54.2837ZM160.045 55.6826C159.724 55.103 159.254 54.62 158.683 54.2837L157.625 56.0798C157.875 56.2273 158.081 56.439 158.222 56.6931L160.045 55.6826ZM160.509 57.5795C160.527 56.9171 160.366 56.2621 160.045 55.6826L158.222 56.6931C158.363 56.9472 158.433 57.2344 158.425 57.5248L160.509 57.5795ZM159.946 59.4494C160.297 58.8875 160.492 58.2419 160.509 57.5795L158.425 57.5248C158.418 57.8152 158.333 58.0982 158.179 58.3446L159.946 59.4494ZM147.321 95.1036C148.759 82.4156 153.075 70.2236 159.941 59.4574L158.184 58.3366C151.147 69.3704 146.723 81.8655 145.25 94.8688L147.321 95.1036ZM148.789 93.8158C147.899 93.8158 147.034 93.8748 146.195 93.9479L146.376 96.0246C147.192 95.9535 147.987 95.9003 148.789 95.9003V93.8158ZM170.292 102.722C164.589 97.0196 156.854 93.8158 148.789 93.8158V95.9003C156.302 95.9003 163.506 98.8845 168.818 104.196L170.292 102.722ZM179.199 124.225C179.199 116.16 175.995 108.425 170.292 102.722L168.818 104.196C174.13 109.508 177.114 116.713 177.114 124.225H179.199ZM170.292 145.727C175.995 140.025 179.199 132.29 179.199 124.225H177.114C177.114 131.737 174.13 138.942 168.818 144.253L170.292 145.727ZM79.3675 154.634C87.4325 154.634 95.1672 151.43 100.87 145.727L99.396 144.253C94.0841 149.565 86.8797 152.55 79.3675 152.55V154.634ZM57.8751 145.717C63.5757 151.418 71.3045 154.625 79.3663 154.634L79.3687 152.55C71.859 152.541 64.6593 149.553 59.3491 144.243L57.8751 145.717ZM48.9584 124.226C48.9679 132.288 52.1746 140.017 57.8751 145.717L59.3491 144.243C54.0389 138.933 51.0518 131.733 51.0429 124.224L48.9584 124.226ZM79.3463 54.9245C65.5309 69.4571 48.9584 93.3245 48.9584 124.225H51.0429C51.0429 94.0903 67.2118 70.7144 80.8571 56.3607L79.3463 54.9245ZM80.5732 54.0707C80.1106 54.2691 79.6931 54.5596 79.3463 54.9245L80.8571 56.3607C81.0092 56.2008 81.1922 56.0734 81.395 55.9864L80.5732 54.0707ZM82.0375 53.77C81.534 53.7699 81.0359 53.8722 80.5732 54.0707L81.395 55.9864C81.5979 55.8994 81.8163 55.8546 82.037 55.8546L82.0375 53.77ZM87.3767 53.77H82.0372V55.8546H87.3767V53.77ZM89.2607 54.2837C88.6898 53.9474 88.0393 53.77 87.3767 53.77V55.8546C87.6672 55.8546 87.9524 55.9324 88.2027 56.0798L89.2607 54.2837ZM90.6233 55.6826C90.3021 55.103 89.8316 54.62 89.2607 54.2837L88.2027 56.0798C88.453 56.2273 88.6593 56.439 88.8001 56.6931L90.6233 55.6826ZM91.0874 57.5795C91.1048 56.9171 90.9445 56.2621 90.6233 55.6826L88.8001 56.6931C88.9409 56.9472 89.0112 57.2344 89.0035 57.5248L91.0874 57.5795ZM90.5244 59.4494C90.8756 58.8875 91.07 58.2419 91.0874 57.5795L89.0035 57.5247C88.9959 57.8152 88.9107 58.0982 88.7567 58.3446L90.5244 59.4494ZM77.899 95.1036C79.3368 82.4156 83.6534 70.2236 90.5194 59.4574L88.7618 58.3366C81.7251 69.3704 77.3013 81.8655 75.8277 94.8688L77.899 95.1036ZM79.3675 93.8158C78.4769 93.8158 77.6121 93.8748 76.7729 93.9479L76.9538 96.0246C77.7698 95.9535 78.5655 95.9003 79.3675 95.9003V93.8158ZM100.87 102.722C95.1672 97.0196 87.4325 93.8158 79.3675 93.8158V95.9003C86.8797 95.9003 94.0841 98.8845 99.396 104.196L100.87 102.722ZM109.777 124.225C109.777 116.16 106.573 108.425 100.87 102.722L99.396 104.196C104.708 109.508 107.692 116.713 107.692 124.225H109.777ZM100.87 145.727C106.573 140.025 109.777 132.29 109.777 124.225H107.692C107.692 131.737 104.708 138.942 99.396 144.253L100.87 145.727Z" fill="url(#paint1_linear_16177_226764)" mask="url(#path-1-inside-1_16177_226764)"/>
<path d="M148.789 153.592L148.788 154.634H148.789V153.592ZM169.555 144.99L170.292 145.727L169.555 144.99ZM128.034 144.98L128.771 144.243L128.034 144.98ZM119.423 124.225H118.38V124.226L119.423 124.225ZM149.524 55.6426L148.768 54.9245L148.768 54.9245L149.524 55.6426ZM150.406 55.0285L149.995 54.0707L149.995 54.0707L150.406 55.0285ZM151.459 54.8123L151.459 55.8546H151.459V54.8123ZM158.154 55.1818L157.625 56.0798L157.625 56.0798L158.154 55.1818ZM159.467 57.5521L158.425 57.5248H158.425L159.467 57.5521ZM159.062 58.897L159.941 59.4575L159.946 59.4494L159.062 58.897ZM146.285 94.9862L145.25 94.8688L145.106 96.1351L146.376 96.0246L146.285 94.9862ZM169.555 103.459L170.292 102.722H170.292L169.555 103.459ZM79.3675 153.592L79.3663 154.634H79.3675V153.592ZM100.133 144.99L99.396 144.253L100.133 144.99ZM58.6121 144.98L57.8751 145.717V145.717L58.6121 144.98ZM50.0006 124.225H48.9584V124.226L50.0006 124.225ZM80.1017 55.6426L79.3463 54.9245L80.1017 55.6426ZM80.9841 55.0285L80.5732 54.0707L80.5732 54.0707L80.9841 55.0285ZM82.0372 54.8123L82.037 55.8546H82.0372V54.8123ZM88.7317 55.1818L88.2027 56.0798L88.2027 56.0798L88.7317 55.1818ZM90.0455 57.5521L91.0874 57.5795V57.5795L90.0455 57.5521ZM89.6406 58.897L90.5194 59.4574L90.5244 59.4494L89.6406 58.897ZM76.8633 94.9862L75.8277 94.8688L75.6842 96.1351L76.9538 96.0246L76.8633 94.9862ZM100.133 103.459L100.87 102.722L100.133 103.459ZM148.789 154.634C156.854 154.634 164.589 151.43 170.292 145.727L168.818 144.253C163.506 149.565 156.302 152.55 148.789 152.55V154.634ZM127.297 145.717C132.998 151.418 140.726 154.625 148.788 154.634L148.791 152.55C141.281 152.541 134.081 149.553 128.771 144.243L127.297 145.717ZM118.38 124.226C118.39 132.288 121.596 140.017 127.297 145.717L128.771 144.243C123.461 138.933 120.474 131.733 120.465 124.224L118.38 124.226ZM148.768 54.9245C134.953 69.4571 118.38 93.3245 118.38 124.225H120.465C120.465 94.0903 136.634 70.7144 150.279 56.3607L148.768 54.9245ZM149.995 54.0707C149.532 54.2691 149.115 54.5596 148.768 54.9245L150.279 56.3607C150.431 56.2008 150.614 56.0734 150.817 55.9864L149.995 54.0707ZM151.459 53.77C150.956 53.7699 150.458 53.8722 149.995 54.0707L150.817 55.9864C151.02 55.8994 151.238 55.8546 151.459 55.8546L151.459 53.77ZM156.799 53.77H151.459V55.8546H156.799V53.77ZM158.683 54.2837C158.112 53.9474 157.461 53.77 156.799 53.77V55.8546C157.089 55.8546 157.374 55.9324 157.625 56.0798L158.683 54.2837ZM160.045 55.6826C159.724 55.103 159.254 54.62 158.683 54.2837L157.625 56.0798C157.875 56.2273 158.081 56.439 158.222 56.6931L160.045 55.6826ZM160.509 57.5795C160.527 56.9171 160.366 56.2621 160.045 55.6826L158.222 56.6931C158.363 56.9472 158.433 57.2344 158.425 57.5248L160.509 57.5795ZM159.946 59.4494C160.297 58.8875 160.492 58.2419 160.509 57.5795L158.425 57.5248C158.418 57.8152 158.333 58.0982 158.179 58.3446L159.946 59.4494ZM147.321 95.1036C148.759 82.4156 153.075 70.2236 159.941 59.4574L158.184 58.3366C151.147 69.3704 146.723 81.8655 145.25 94.8688L147.321 95.1036ZM148.789 93.8158C147.899 93.8158 147.034 93.8748 146.195 93.9479L146.376 96.0246C147.192 95.9535 147.987 95.9003 148.789 95.9003V93.8158ZM170.292 102.722C164.589 97.0196 156.854 93.8158 148.789 93.8158V95.9003C156.302 95.9003 163.506 98.8845 168.818 104.196L170.292 102.722ZM179.199 124.225C179.199 116.16 175.995 108.425 170.292 102.722L168.818 104.196C174.13 109.508 177.114 116.713 177.114 124.225H179.199ZM170.292 145.727C175.995 140.025 179.199 132.29 179.199 124.225H177.114C177.114 131.737 174.13 138.942 168.818 144.253L170.292 145.727ZM79.3675 154.634C87.4325 154.634 95.1672 151.43 100.87 145.727L99.396 144.253C94.0841 149.565 86.8797 152.55 79.3675 152.55V154.634ZM57.8751 145.717C63.5757 151.418 71.3045 154.625 79.3663 154.634L79.3687 152.55C71.859 152.541 64.6593 149.553 59.3491 144.243L57.8751 145.717ZM48.9584 124.226C48.9679 132.288 52.1746 140.017 57.8751 145.717L59.3491 144.243C54.0389 138.933 51.0518 131.733 51.0429 124.224L48.9584 124.226ZM79.3463 54.9245C65.5309 69.4571 48.9584 93.3245 48.9584 124.225H51.0429C51.0429 94.0903 67.2118 70.7144 80.8571 56.3607L79.3463 54.9245ZM80.5732 54.0707C80.1106 54.2691 79.6931 54.5596 79.3463 54.9245L80.8571 56.3607C81.0092 56.2008 81.1922 56.0734 81.395 55.9864L80.5732 54.0707ZM82.0375 53.77C81.534 53.7699 81.0359 53.8722 80.5732 54.0707L81.395 55.9864C81.5979 55.8994 81.8163 55.8546 82.037 55.8546L82.0375 53.77ZM87.3767 53.77H82.0372V55.8546H87.3767V53.77ZM89.2607 54.2837C88.6898 53.9474 88.0393 53.77 87.3767 53.77V55.8546C87.6672 55.8546 87.9524 55.9324 88.2027 56.0798L89.2607 54.2837ZM90.6233 55.6826C90.3021 55.103 89.8316 54.62 89.2607 54.2837L88.2027 56.0798C88.453 56.2273 88.6593 56.439 88.8001 56.6931L90.6233 55.6826ZM91.0874 57.5795C91.1048 56.9171 90.9445 56.2621 90.6233 55.6826L88.8001 56.6931C88.9409 56.9472 89.0112 57.2344 89.0035 57.5248L91.0874 57.5795ZM90.5244 59.4494C90.8756 58.8875 91.07 58.2419 91.0874 57.5795L89.0035 57.5247C88.9959 57.8152 88.9107 58.0982 88.7567 58.3446L90.5244 59.4494ZM77.899 95.1036C79.3368 82.4156 83.6534 70.2236 90.5194 59.4574L88.7618 58.3366C81.7251 69.3704 77.3013 81.8655 75.8277 94.8688L77.899 95.1036ZM79.3675 93.8158C78.4769 93.8158 77.6121 93.8748 76.7729 93.9479L76.9538 96.0246C77.7698 95.9535 78.5655 95.9003 79.3675 95.9003V93.8158ZM100.87 102.722C95.1672 97.0196 87.4325 93.8158 79.3675 93.8158V95.9003C86.8797 95.9003 94.0841 98.8845 99.396 104.196L100.87 102.722ZM109.777 124.225C109.777 116.16 106.573 108.425 100.87 102.722L99.396 104.196C104.708 109.508 107.692 116.713 107.692 124.225H109.777ZM100.87 145.727C106.573 140.025 109.777 132.29 109.777 124.225H107.692C107.692 131.737 104.708 138.942 99.396 144.253L100.87 145.727Z" fill="url(#paint2_linear_16177_226764)" mask="url(#path-1-inside-1_16177_226764)"/>
<g filter="url(#filter0_f_16177_226764)">
<circle cx="71" cy="71" r="17" fill="#24645D"/>
</g>
<g filter="url(#filter1_f_16177_226764)">
<path d="M148.789 153.592L148.789 153.852H148.789V153.592ZM169.555 144.99L169.739 145.175L169.555 144.99ZM128.034 144.98L128.218 144.796H128.218L128.034 144.98ZM119.423 124.225H119.162V124.225L119.423 124.225ZM149.524 55.6426L149.335 55.4631H149.335L149.524 55.6426ZM150.406 55.0285L150.303 54.7891H150.303L150.406 55.0285ZM151.459 54.8123L151.459 55.0729H151.459V54.8123ZM158.154 55.1818L158.021 55.4063L158.021 55.4063L158.154 55.1818ZM159.467 57.5521L159.207 57.5453V57.5453L159.467 57.5521ZM159.062 58.897L159.282 59.0371L159.283 59.0351L159.062 58.897ZM146.285 94.9862L146.026 94.9569L145.99 95.2734L146.308 95.2458L146.285 94.9862ZM169.555 103.459L169.739 103.275V103.275L169.555 103.459ZM79.3675 153.592L79.3672 153.852H79.3675V153.592ZM100.133 144.99L99.9488 144.806L100.133 144.99ZM58.6121 144.98L58.4279 145.165L58.6121 144.98ZM50.0006 124.225H49.7401V124.225L50.0006 124.225ZM80.1017 55.6426L79.9128 55.4631L80.1017 55.6426ZM80.9841 55.0285L80.8814 54.7891L80.9841 55.0285ZM82.0372 54.8123L82.0372 55.0729H82.0372V54.8123ZM88.7317 55.1818L88.5994 55.4063L88.7317 55.1818ZM90.0455 57.5521L90.3059 57.559V57.559L90.0455 57.5521ZM89.6406 58.897L89.8603 59.0371L89.8615 59.0351L89.6406 58.897ZM76.8633 94.9862L76.6044 94.9569L76.5685 95.2734L76.8859 95.2458L76.8633 94.9862ZM100.133 103.459L100.317 103.275V103.275L100.133 103.459ZM148.789 153.852C156.647 153.852 164.183 150.731 169.739 145.175L169.371 144.806C163.912 150.265 156.509 153.331 148.789 153.331V153.852ZM127.85 145.165C133.404 150.719 140.934 153.843 148.789 153.852L148.79 153.331C141.073 153.322 133.675 150.253 128.218 144.796L127.85 145.165ZM119.162 124.225C119.171 132.08 122.296 139.61 127.85 145.165L128.218 144.796C122.762 139.339 119.692 131.941 119.683 124.225L119.162 124.225ZM149.335 55.4631C135.583 69.9286 119.162 93.6117 119.162 124.225H119.683C119.683 93.8031 136.003 70.2429 149.712 55.8221L149.335 55.4631ZM150.303 54.7891C149.938 54.9457 149.609 55.1751 149.335 55.4631L149.712 55.8221C149.938 55.5854 150.208 55.3968 150.509 55.268L150.303 54.7891ZM151.459 54.5518C151.062 54.5517 150.668 54.6324 150.303 54.7891L150.509 55.268C150.809 55.1392 151.132 55.0728 151.459 55.0729L151.459 54.5518ZM156.799 54.5518H151.459V55.0729H156.799V54.5518ZM158.286 54.9573C157.835 54.6918 157.322 54.5518 156.799 54.5518V55.0729C157.229 55.0729 157.651 55.188 158.021 55.4063L158.286 54.9573ZM159.361 56.0615C159.108 55.604 158.737 55.2227 158.286 54.9573L158.021 55.4063C158.392 55.6245 158.697 55.938 158.906 56.3142L159.361 56.0615ZM159.728 57.559C159.742 57.0361 159.615 56.519 159.361 56.0615L158.906 56.3142C159.114 56.6903 159.218 57.1154 159.207 57.5453L159.728 57.559ZM159.283 59.0351C159.561 58.5915 159.714 58.0818 159.728 57.559L159.207 57.5453C159.196 57.9752 159.069 58.3942 158.841 58.7589L159.283 59.0351ZM146.544 95.0155C147.995 82.2093 152.352 69.9036 159.282 59.0371L158.843 58.7569C151.87 69.6903 147.486 82.0718 146.026 94.9569L146.544 95.0155ZM148.789 94.5975C147.932 94.5975 147.093 94.6543 146.263 94.7266L146.308 95.2458C147.133 95.174 147.954 95.1186 148.789 95.1186V94.5975ZM169.739 103.275C164.183 97.7189 156.647 94.5975 148.789 94.5975V95.1186C156.509 95.1186 163.912 98.1852 169.371 103.644L169.739 103.275ZM178.417 124.225C178.417 116.367 175.295 108.831 169.739 103.275L169.371 103.644C174.829 109.102 177.896 116.505 177.896 124.225H178.417ZM169.739 145.175C175.295 139.618 178.417 132.083 178.417 124.225H177.896C177.896 131.944 174.829 139.348 169.371 144.806L169.739 145.175ZM79.3675 153.852C87.2252 153.852 94.761 150.731 100.317 145.175L99.9488 144.806C94.4903 150.265 87.087 153.331 79.3675 153.331V153.852ZM58.4279 145.165C63.982 150.719 71.5124 153.843 79.3672 153.852L79.3678 153.331C71.6511 153.322 64.253 150.253 58.7964 144.796L58.4279 145.165ZM49.7401 124.225C49.7493 132.08 52.8737 139.61 58.4279 145.165L58.7964 144.796C53.3398 139.339 50.2703 131.941 50.2612 124.225L49.7401 124.225ZM79.9128 55.4631C66.1612 69.9286 49.7401 93.6117 49.7401 124.225H50.2612C50.2612 93.8031 66.5815 70.2429 80.2905 55.8221L79.9128 55.4631ZM80.8814 54.7891C80.5162 54.9457 80.1866 55.1751 79.9128 55.4631L80.2905 55.8221C80.5156 55.5854 80.7866 55.3968 81.0868 55.268L80.8814 54.7891ZM82.0373 54.5518C81.6399 54.5517 81.2466 54.6324 80.8814 54.7891L81.0868 55.268C81.3871 55.1392 81.7104 55.0728 82.0372 55.0729L82.0373 54.5518ZM87.3767 54.5518H82.0372V55.0729H87.3767V54.5518ZM88.864 54.9573C88.4133 54.6918 87.8997 54.5518 87.3767 54.5518V55.0729C87.8067 55.0729 88.2289 55.188 88.5994 55.4063L88.864 54.9573ZM89.9396 56.0615C89.6861 55.604 89.3146 55.2227 88.864 54.9573L88.5994 55.4063C88.97 55.6245 89.2753 55.938 89.4838 56.3142L89.9396 56.0615ZM90.3059 57.559C90.3197 57.0361 90.1932 56.519 89.9396 56.0615L89.4838 56.3142C89.6923 56.6903 89.7963 57.1154 89.785 57.5453L90.3059 57.559ZM89.8615 59.0351C90.1388 58.5915 90.2922 58.0818 90.3059 57.559L89.785 57.5453C89.7737 57.9752 89.6475 58.3942 89.4196 58.7589L89.8615 59.0351ZM77.1222 95.0155C78.5735 82.2093 82.9303 69.9036 89.8603 59.0371L89.4209 58.7569C82.4482 69.6903 78.0646 82.0718 76.6044 94.9569L77.1222 95.0155ZM79.3675 94.5975C78.5101 94.5975 77.6712 94.6543 76.8407 94.7266L76.8859 95.2458C77.7106 95.174 78.5323 95.1186 79.3675 95.1186V94.5975ZM100.317 103.275C94.761 97.7189 87.2252 94.5975 79.3675 94.5975V95.1186C87.087 95.1186 94.4903 98.1852 99.9488 103.644L100.317 103.275ZM108.995 124.225C108.995 116.367 105.873 108.831 100.317 103.275L99.9488 103.644C105.407 109.102 108.474 116.505 108.474 124.225H108.995ZM100.317 145.175C105.873 139.618 108.995 132.083 108.995 124.225H108.474C108.474 131.944 105.407 139.348 99.9488 144.806L100.317 145.175Z" fill="url(#paint3_linear_16177_226764)"/>
</g>
<g filter="url(#filter2_f_16177_226764)">
<mask id="path-5-inside-2_16177_226764" fill="white">
<path fill-rule="evenodd" clip-rule="evenodd" d="M169.555 144.99C164.048 150.498 156.578 153.592 148.789 153.592C141.004 153.583 133.539 150.486 128.034 144.98C122.529 139.475 119.432 132.011 119.423 124.225C119.423 93.7074 135.793 70.0858 149.524 55.6426C149.773 55.3802 150.073 55.1713 150.406 55.0285C150.739 54.8858 151.097 54.8122 151.459 54.8123H156.799C157.275 54.8123 157.743 54.9399 158.154 55.1818C158.564 55.4236 158.903 55.771 159.134 56.1879C159.365 56.6047 159.48 57.0757 159.467 57.5521C159.455 58.0285 159.315 58.4929 159.062 58.897C152.111 69.797 147.741 82.1405 146.285 94.9862C147.113 94.9141 147.943 94.8581 148.789 94.8581C156.578 94.8581 164.048 97.9521 169.555 103.459C175.062 108.967 178.156 116.436 178.156 124.225C178.156 132.014 175.062 139.483 169.555 144.99ZM100.133 144.99C94.6257 150.498 87.1561 153.592 79.3675 153.592C71.5817 153.583 64.1175 150.486 58.6121 144.98C53.1068 139.475 50.0098 132.011 50.0006 124.225C50.0006 93.7074 66.3713 70.0858 80.1017 55.6426C80.3511 55.3802 80.6514 55.1713 80.9841 55.0285C81.3169 54.8858 81.6752 54.8122 82.0372 54.8123H87.3767C87.8532 54.8123 88.3211 54.9399 88.7317 55.1818C89.1423 55.4236 89.4807 55.771 89.7117 56.1879C89.9427 56.6047 90.058 57.0757 90.0455 57.5521C90.0329 58.0285 89.8932 58.4929 89.6406 58.897C82.6893 69.797 78.3191 82.1405 76.8633 94.9862C77.6909 94.9141 78.5212 94.8581 79.3675 94.8581C87.1561 94.8581 94.6257 97.9521 100.133 103.459C105.64 108.967 108.734 116.436 108.734 124.225C108.734 132.014 105.64 139.483 100.133 144.99Z"/>
</mask>
<path d="M148.789 153.592L148.789 154.113H148.789V153.592ZM169.555 144.99L169.923 145.359L169.555 144.99ZM128.034 144.98L128.403 144.612L128.034 144.98ZM119.423 124.225H118.901L118.901 124.226L119.423 124.225ZM149.524 55.6426L149.146 55.2835L149.146 55.2835L149.524 55.6426ZM150.406 55.0285L150.201 54.5496L150.201 54.5496L150.406 55.0285ZM151.459 54.8123L151.459 55.3335H151.459V54.8123ZM158.154 55.1818L157.889 55.6308H157.889L158.154 55.1818ZM159.467 57.5521L158.946 57.5384L159.467 57.5521ZM159.062 58.897L159.502 59.1772L159.504 59.1732L159.062 58.897ZM146.285 94.9862L145.767 94.9275L145.696 95.5607L146.33 95.5054L146.285 94.9862ZM169.555 103.459L169.923 103.091L169.555 103.459ZM79.3675 153.592L79.3669 154.113H79.3675V153.592ZM100.133 144.99L99.7645 144.622L100.133 144.99ZM58.6121 144.98L58.2436 145.349H58.2436L58.6121 144.98ZM50.0006 124.225H49.4795V124.226L50.0006 124.225ZM80.1017 55.6426L79.724 55.2835L79.724 55.2835L80.1017 55.6426ZM80.9841 55.0285L80.7787 54.5496L80.7787 54.5496L80.9841 55.0285ZM82.0372 54.8123L82.0371 55.3335H82.0372V54.8123ZM88.7317 55.1818L88.4672 55.6308L88.7317 55.1818ZM90.0455 57.5521L90.5664 57.5658V57.5658L90.0455 57.5521ZM89.6406 58.897L90.08 59.1772L90.0825 59.1732L89.6406 58.897ZM76.8633 94.9862L76.3455 94.9275L76.2737 95.5607L76.9085 95.5054L76.8633 94.9862ZM100.133 103.459L100.502 103.091L100.133 103.459ZM148.789 154.113C156.716 154.113 164.318 150.964 169.923 145.359L169.186 144.622C163.777 150.032 156.44 153.071 148.789 153.071V154.113ZM127.666 145.349C133.268 150.952 140.865 154.104 148.789 154.113L148.79 153.071C141.142 153.062 133.81 150.02 128.403 144.612L127.666 145.349ZM118.901 124.226C118.911 132.149 122.063 139.746 127.666 145.349L128.403 144.612C122.995 139.204 119.953 131.872 119.944 124.224L118.901 124.226ZM149.146 55.2835C135.373 69.7714 118.901 93.5159 118.901 124.225H119.944C119.944 93.8989 136.213 70.4001 149.901 56.0017L149.146 55.2835ZM150.201 54.5496C149.803 54.7202 149.444 54.9699 149.146 55.2835L149.901 56.0017C150.102 55.7905 150.344 55.6223 150.611 55.5075L150.201 54.5496ZM151.459 54.2912C151.026 54.2911 150.598 54.379 150.201 54.5496L150.611 55.5075C150.879 55.3926 151.168 55.3334 151.459 55.3335L151.459 54.2912ZM156.799 54.2912H151.459V55.3335H156.799V54.2912ZM158.418 54.7327C157.927 54.4436 157.368 54.2912 156.799 54.2912V55.3335C157.182 55.3335 157.559 55.4361 157.889 55.6308L158.418 54.7327ZM159.589 55.9352C159.313 55.437 158.909 55.0218 158.418 54.7327L157.889 55.6308C158.22 55.8255 158.492 56.105 158.678 56.4405L159.589 55.9352ZM159.988 57.5658C160.003 56.9964 159.866 56.4334 159.589 55.9352L158.678 56.4405C158.864 56.7759 158.956 57.155 158.946 57.5384L159.988 57.5658ZM159.504 59.1732C159.806 58.6902 159.973 58.1352 159.988 57.5658L158.946 57.5384C158.936 57.9218 158.824 58.2955 158.621 58.6208L159.504 59.1732ZM146.803 95.0449C148.25 82.2781 152.593 70.0103 159.502 59.1772L158.623 58.6168C151.629 69.5837 147.232 82.003 145.767 94.9275L146.803 95.0449ZM148.789 94.3369C147.921 94.3369 147.073 94.3944 146.24 94.467L146.33 95.5054C147.152 95.4338 147.965 95.3792 148.789 95.3792V94.3369ZM169.923 103.091C164.318 97.4858 156.716 94.3369 148.789 94.3369V95.3792C156.44 95.3792 163.777 98.4183 169.186 103.828L169.923 103.091ZM178.677 124.225C178.677 116.298 175.528 108.696 169.923 103.091L169.186 103.828C174.596 109.238 177.635 116.575 177.635 124.225H178.677ZM169.923 145.359C175.528 139.754 178.677 132.152 178.677 124.225H177.635C177.635 131.875 174.596 139.212 169.186 144.622L169.923 145.359ZM79.3675 154.113C87.2943 154.113 94.8964 150.964 100.502 145.359L99.7645 144.622C94.3549 150.032 87.0179 153.071 79.3675 153.071V154.113ZM58.2436 145.349C63.8466 150.952 71.4431 154.104 79.3669 154.113L79.3681 153.071C71.7204 153.062 64.3884 150.02 58.9806 144.612L58.2436 145.349ZM49.4795 124.226C49.4888 132.149 52.6407 139.746 58.2436 145.349L58.9806 144.612C53.5729 139.204 50.5308 131.872 50.5218 124.224L49.4795 124.226ZM79.724 55.2835C65.9511 69.7714 49.4795 93.5159 49.4795 124.225H50.5218C50.5218 93.8989 66.7916 70.4001 80.4794 56.0017L79.724 55.2835ZM80.7787 54.5496C80.381 54.7202 80.0221 54.9699 79.724 55.2835L80.4794 56.0017C80.6802 55.7905 80.9218 55.6223 81.1896 55.5075L80.7787 54.5496ZM82.0373 54.2912C81.6046 54.2911 81.1764 54.379 80.7787 54.5496L81.1896 55.5075C81.4574 55.3926 81.7457 55.3334 82.0371 55.3335L82.0373 54.2912ZM87.3767 54.2912H82.0372V55.3335H87.3767V54.2912ZM88.9962 54.7327C88.5054 54.4436 87.9462 54.2912 87.3767 54.2912V55.3335C87.7602 55.3335 88.1367 55.4361 88.4672 55.6308L88.9962 54.7327ZM90.1675 55.9352C89.8914 55.437 89.487 55.0218 88.9962 54.7327L88.4672 55.6308C88.7976 55.8255 89.07 56.105 89.2559 56.4405L90.1675 55.9352ZM90.5664 57.5658C90.5814 56.9964 90.4436 56.4334 90.1675 55.9352L89.2559 56.4405C89.4418 56.7759 89.5346 57.155 89.5245 57.5384L90.5664 57.5658ZM90.0825 59.1732C90.3844 58.6902 90.5515 58.1352 90.5664 57.5658L89.5245 57.5384C89.5144 57.9218 89.4019 58.2955 89.1986 58.6208L90.0825 59.1732ZM77.3811 95.0449C78.828 82.2781 83.1713 70.0103 90.08 59.1772L89.2012 58.6168C82.2072 69.5837 77.8102 82.003 76.3455 94.9275L77.3811 95.0449ZM79.3675 94.3369C78.499 94.3369 77.6515 94.3944 76.8181 94.467L76.9085 95.5054C77.7303 95.4338 78.5434 95.3792 79.3675 95.3792V94.3369ZM100.502 103.091C94.8964 97.4858 87.2943 94.3369 79.3675 94.3369V95.3792C87.0179 95.3792 94.3549 98.4183 99.7645 103.828L100.502 103.091ZM109.256 124.225C109.256 116.298 106.107 108.696 100.502 103.091L99.7645 103.828C105.174 109.238 108.213 116.575 108.213 124.225H109.256ZM100.502 145.359C106.107 139.754 109.256 132.152 109.256 124.225H108.213C108.213 131.875 105.174 139.212 99.7645 144.622L100.502 145.359Z" fill="url(#paint4_linear_16177_226764)" mask="url(#path-5-inside-2_16177_226764)"/>
</g>
<g filter="url(#filter3_f_16177_226764)">
<path d="M148.789 153.592L148.789 154.113H148.789V153.592ZM169.555 144.99L169.923 145.359L169.555 144.99ZM128.034 144.98L128.403 144.612L128.034 144.98ZM119.423 124.225H118.901L118.901 124.226L119.423 124.225ZM149.524 55.6426L149.146 55.2835L149.146 55.2835L149.524 55.6426ZM150.406 55.0285L150.201 54.5496L150.201 54.5496L150.406 55.0285ZM151.459 54.8123L151.459 55.3335H151.459V54.8123ZM158.154 55.1818L157.889 55.6308H157.889L158.154 55.1818ZM159.467 57.5521L158.946 57.5384L159.467 57.5521ZM159.062 58.897L159.502 59.1772L159.504 59.1732L159.062 58.897ZM146.285 94.9862L145.767 94.9275L145.696 95.5607L146.33 95.5054L146.285 94.9862ZM169.555 103.459L169.923 103.091L169.555 103.459ZM79.3675 153.592L79.3669 154.113H79.3675V153.592ZM100.133 144.99L99.7645 144.622L100.133 144.99ZM58.6121 144.98L58.2436 145.349H58.2436L58.6121 144.98ZM50.0006 124.225H49.4795V124.226L50.0006 124.225ZM80.1017 55.6426L79.724 55.2835L79.724 55.2835L80.1017 55.6426ZM80.9841 55.0285L80.7787 54.5496L80.7787 54.5496L80.9841 55.0285ZM82.0372 54.8123L82.0371 55.3335H82.0372V54.8123ZM88.7317 55.1818L88.4672 55.6308L88.7317 55.1818ZM90.0455 57.5521L90.5664 57.5658V57.5658L90.0455 57.5521ZM89.6406 58.897L90.08 59.1772L90.0825 59.1732L89.6406 58.897ZM76.8633 94.9862L76.3455 94.9275L76.2737 95.5607L76.9085 95.5054L76.8633 94.9862ZM100.133 103.459L100.502 103.091L100.133 103.459ZM148.789 154.113C156.716 154.113 164.318 150.964 169.923 145.359L169.186 144.622C163.777 150.032 156.44 153.071 148.789 153.071V154.113ZM127.666 145.349C133.268 150.952 140.865 154.104 148.789 154.113L148.79 153.071C141.142 153.062 133.81 150.02 128.403 144.612L127.666 145.349ZM118.901 124.226C118.911 132.149 122.063 139.746 127.666 145.349L128.403 144.612C122.995 139.204 119.953 131.872 119.944 124.224L118.901 124.226ZM149.146 55.2835C135.373 69.7714 118.901 93.5159 118.901 124.225H119.944C119.944 93.8989 136.213 70.4001 149.901 56.0017L149.146 55.2835ZM150.201 54.5496C149.803 54.7202 149.444 54.9699 149.146 55.2835L149.901 56.0017C150.102 55.7905 150.344 55.6223 150.611 55.5075L150.201 54.5496ZM151.459 54.2912C151.026 54.2911 150.598 54.379 150.201 54.5496L150.611 55.5075C150.879 55.3926 151.168 55.3334 151.459 55.3335L151.459 54.2912ZM156.799 54.2912H151.459V55.3335H156.799V54.2912ZM158.418 54.7327C157.927 54.4436 157.368 54.2912 156.799 54.2912V55.3335C157.182 55.3335 157.559 55.4361 157.889 55.6308L158.418 54.7327ZM159.589 55.9352C159.313 55.437 158.909 55.0218 158.418 54.7327L157.889 55.6308C158.22 55.8255 158.492 56.105 158.678 56.4405L159.589 55.9352ZM159.988 57.5658C160.003 56.9964 159.866 56.4334 159.589 55.9352L158.678 56.4405C158.864 56.7759 158.956 57.155 158.946 57.5384L159.988 57.5658ZM159.504 59.1732C159.806 58.6902 159.973 58.1352 159.988 57.5658L158.946 57.5384C158.936 57.9218 158.824 58.2955 158.621 58.6208L159.504 59.1732ZM146.803 95.0449C148.25 82.2781 152.593 70.0103 159.502 59.1772L158.623 58.6168C151.629 69.5837 147.232 82.003 145.767 94.9275L146.803 95.0449ZM148.789 94.3369C147.921 94.3369 147.073 94.3944 146.24 94.467L146.33 95.5054C147.152 95.4338 147.965 95.3792 148.789 95.3792V94.3369ZM169.923 103.091C164.318 97.4858 156.716 94.3369 148.789 94.3369V95.3792C156.44 95.3792 163.777 98.4183 169.186 103.828L169.923 103.091ZM178.677 124.225C178.677 116.298 175.528 108.696 169.923 103.091L169.186 103.828C174.596 109.238 177.635 116.575 177.635 124.225H178.677ZM169.923 145.359C175.528 139.754 178.677 132.152 178.677 124.225H177.635C177.635 131.875 174.596 139.212 169.186 144.622L169.923 145.359ZM79.3675 154.113C87.2943 154.113 94.8964 150.964 100.502 145.359L99.7645 144.622C94.3549 150.032 87.0179 153.071 79.3675 153.071V154.113ZM58.2436 145.349C63.8466 150.952 71.4431 154.104 79.3669 154.113L79.3681 153.071C71.7204 153.062 64.3884 150.02 58.9806 144.612L58.2436 145.349ZM49.4795 124.226C49.4888 132.149 52.6407 139.746 58.2436 145.349L58.9806 144.612C53.5729 139.204 50.5308 131.872 50.5218 124.224L49.4795 124.226ZM79.724 55.2835C65.9511 69.7714 49.4795 93.5159 49.4795 124.225H50.5218C50.5218 93.8989 66.7916 70.4001 80.4794 56.0017L79.724 55.2835ZM80.7787 54.5496C80.381 54.7202 80.0221 54.9699 79.724 55.2835L80.4794 56.0017C80.6802 55.7905 80.9218 55.6223 81.1896 55.5075L80.7787 54.5496ZM82.0373 54.2912C81.6046 54.2911 81.1764 54.379 80.7787 54.5496L81.1896 55.5075C81.4574 55.3926 81.7457 55.3334 82.0371 55.3335L82.0373 54.2912ZM87.3767 54.2912H82.0372V55.3335H87.3767V54.2912ZM88.9962 54.7327C88.5054 54.4436 87.9462 54.2912 87.3767 54.2912V55.3335C87.7602 55.3335 88.1367 55.4361 88.4672 55.6308L88.9962 54.7327ZM90.1675 55.9352C89.8914 55.437 89.487 55.0218 88.9962 54.7327L88.4672 55.6308C88.7976 55.8255 89.07 56.105 89.2559 56.4405L90.1675 55.9352ZM90.5664 57.5658C90.5814 56.9964 90.4436 56.4334 90.1675 55.9352L89.2559 56.4405C89.4418 56.7759 89.5346 57.155 89.5245 57.5384L90.5664 57.5658ZM90.0825 59.1732C90.3844 58.6902 90.5515 58.1352 90.5664 57.5658L89.5245 57.5384C89.5144 57.9218 89.4019 58.2955 89.1986 58.6208L90.0825 59.1732ZM77.3811 95.0449C78.828 82.2781 83.1713 70.0103 90.08 59.1772L89.2012 58.6168C82.2072 69.5837 77.8102 82.003 76.3455 94.9275L77.3811 95.0449ZM79.3675 94.3369C78.499 94.3369 77.6515 94.3944 76.8181 94.467L76.9085 95.5054C77.7303 95.4338 78.5434 95.3792 79.3675 95.3792V94.3369ZM100.502 103.091C94.8964 97.4858 87.2943 94.3369 79.3675 94.3369V95.3792C87.0179 95.3792 94.3549 98.4183 99.7645 103.828L100.502 103.091ZM109.256 124.225C109.256 116.298 106.107 108.696 100.502 103.091L99.7645 103.828C105.174 109.238 108.213 116.575 108.213 124.225H109.256ZM100.502 145.359C106.107 139.754 109.256 132.152 109.256 124.225H108.213C108.213 131.875 105.174 139.212 99.7645 144.622L100.502 145.359Z" fill="url(#paint5_linear_16177_226764)"/>
</g>
<g filter="url(#filter4_f_16177_226764)">
<path d="M148.789 153.592L148.789 154.113H148.789V153.592ZM169.555 144.99L169.923 145.359L169.555 144.99ZM128.034 144.98L128.403 144.612L128.034 144.98ZM119.423 124.225H118.901L118.901 124.226L119.423 124.225ZM149.524 55.6426L149.146 55.2835L149.146 55.2835L149.524 55.6426ZM150.406 55.0285L150.201 54.5496L150.201 54.5496L150.406 55.0285ZM151.459 54.8123L151.459 55.3335H151.459V54.8123ZM158.154 55.1818L157.889 55.6308H157.889L158.154 55.1818ZM159.467 57.5521L158.946 57.5384L159.467 57.5521ZM159.062 58.897L159.502 59.1772L159.504 59.1732L159.062 58.897ZM146.285 94.9862L145.767 94.9275L145.696 95.5607L146.33 95.5054L146.285 94.9862ZM169.555 103.459L169.923 103.091L169.555 103.459ZM79.3675 153.592L79.3669 154.113H79.3675V153.592ZM100.133 144.99L99.7645 144.622L100.133 144.99ZM58.6121 144.98L58.2436 145.349H58.2436L58.6121 144.98ZM50.0006 124.225H49.4795V124.226L50.0006 124.225ZM80.1017 55.6426L79.724 55.2835L79.724 55.2835L80.1017 55.6426ZM80.9841 55.0285L80.7787 54.5496L80.7787 54.5496L80.9841 55.0285ZM82.0372 54.8123L82.0371 55.3335H82.0372V54.8123ZM88.7317 55.1818L88.4672 55.6308L88.7317 55.1818ZM90.0455 57.5521L90.5664 57.5658V57.5658L90.0455 57.5521ZM89.6406 58.897L90.08 59.1772L90.0825 59.1732L89.6406 58.897ZM76.8633 94.9862L76.3455 94.9275L76.2737 95.5607L76.9085 95.5054L76.8633 94.9862ZM100.133 103.459L100.502 103.091L100.133 103.459ZM148.789 154.113C156.716 154.113 164.318 150.964 169.923 145.359L169.186 144.622C163.777 150.032 156.44 153.071 148.789 153.071V154.113ZM127.666 145.349C133.268 150.952 140.865 154.104 148.789 154.113L148.79 153.071C141.142 153.062 133.81 150.02 128.403 144.612L127.666 145.349ZM118.901 124.226C118.911 132.149 122.063 139.746 127.666 145.349L128.403 144.612C122.995 139.204 119.953 131.872 119.944 124.224L118.901 124.226ZM149.146 55.2835C135.373 69.7714 118.901 93.5159 118.901 124.225H119.944C119.944 93.8989 136.213 70.4001 149.901 56.0017L149.146 55.2835ZM150.201 54.5496C149.803 54.7202 149.444 54.9699 149.146 55.2835L149.901 56.0017C150.102 55.7905 150.344 55.6223 150.611 55.5075L150.201 54.5496ZM151.459 54.2912C151.026 54.2911 150.598 54.379 150.201 54.5496L150.611 55.5075C150.879 55.3926 151.168 55.3334 151.459 55.3335L151.459 54.2912ZM156.799 54.2912H151.459V55.3335H156.799V54.2912ZM158.418 54.7327C157.927 54.4436 157.368 54.2912 156.799 54.2912V55.3335C157.182 55.3335 157.559 55.4361 157.889 55.6308L158.418 54.7327ZM159.589 55.9352C159.313 55.437 158.909 55.0218 158.418 54.7327L157.889 55.6308C158.22 55.8255 158.492 56.105 158.678 56.4405L159.589 55.9352ZM159.988 57.5658C160.003 56.9964 159.866 56.4334 159.589 55.9352L158.678 56.4405C158.864 56.7759 158.956 57.155 158.946 57.5384L159.988 57.5658ZM159.504 59.1732C159.806 58.6902 159.973 58.1352 159.988 57.5658L158.946 57.5384C158.936 57.9218 158.824 58.2955 158.621 58.6208L159.504 59.1732ZM146.803 95.0449C148.25 82.2781 152.593 70.0103 159.502 59.1772L158.623 58.6168C151.629 69.5837 147.232 82.003 145.767 94.9275L146.803 95.0449ZM148.789 94.3369C147.921 94.3369 147.073 94.3944 146.24 94.467L146.33 95.5054C147.152 95.4338 147.965 95.3792 148.789 95.3792V94.3369ZM169.923 103.091C164.318 97.4858 156.716 94.3369 148.789 94.3369V95.3792C156.44 95.3792 163.777 98.4183 169.186 103.828L169.923 103.091ZM178.677 124.225C178.677 116.298 175.528 108.696 169.923 103.091L169.186 103.828C174.596 109.238 177.635 116.575 177.635 124.225H178.677ZM169.923 145.359C175.528 139.754 178.677 132.152 178.677 124.225H177.635C177.635 131.875 174.596 139.212 169.186 144.622L169.923 145.359ZM79.3675 154.113C87.2943 154.113 94.8964 150.964 100.502 145.359L99.7645 144.622C94.3549 150.032 87.0179 153.071 79.3675 153.071V154.113ZM58.2436 145.349C63.8466 150.952 71.4431 154.104 79.3669 154.113L79.3681 153.071C71.7204 153.062 64.3884 150.02 58.9806 144.612L58.2436 145.349ZM49.4795 124.226C49.4888 132.149 52.6407 139.746 58.2436 145.349L58.9806 144.612C53.5729 139.204 50.5308 131.872 50.5218 124.224L49.4795 124.226ZM79.724 55.2835C65.9511 69.7714 49.4795 93.5159 49.4795 124.225H50.5218C50.5218 93.8989 66.7916 70.4001 80.4794 56.0017L79.724 55.2835ZM80.7787 54.5496C80.381 54.7202 80.0221 54.9699 79.724 55.2835L80.4794 56.0017C80.6802 55.7905 80.9218 55.6223 81.1896 55.5075L80.7787 54.5496ZM82.0373 54.2912C81.6046 54.2911 81.1764 54.379 80.7787 54.5496L81.1896 55.5075C81.4574 55.3926 81.7457 55.3334 82.0371 55.3335L82.0373 54.2912ZM87.3767 54.2912H82.0372V55.3335H87.3767V54.2912ZM88.9962 54.7327C88.5054 54.4436 87.9462 54.2912 87.3767 54.2912V55.3335C87.7602 55.3335 88.1367 55.4361 88.4672 55.6308L88.9962 54.7327ZM90.1675 55.9352C89.8914 55.437 89.487 55.0218 88.9962 54.7327L88.4672 55.6308C88.7976 55.8255 89.07 56.105 89.2559 56.4405L90.1675 55.9352ZM90.5664 57.5658C90.5814 56.9964 90.4436 56.4334 90.1675 55.9352L89.2559 56.4405C89.4418 56.7759 89.5346 57.155 89.5245 57.5384L90.5664 57.5658ZM90.0825 59.1732C90.3844 58.6902 90.5515 58.1352 90.5664 57.5658L89.5245 57.5384C89.5144 57.9218 89.4019 58.2955 89.1986 58.6208L90.0825 59.1732ZM77.3811 95.0449C78.828 82.2781 83.1713 70.0103 90.08 59.1772L89.2012 58.6168C82.2072 69.5837 77.8102 82.003 76.3455 94.9275L77.3811 95.0449ZM79.3675 94.3369C78.499 94.3369 77.6515 94.3944 76.8181 94.467L76.9085 95.5054C77.7303 95.4338 78.5434 95.3792 79.3675 95.3792V94.3369ZM100.502 103.091C94.8964 97.4858 87.2943 94.3369 79.3675 94.3369V95.3792C87.0179 95.3792 94.3549 98.4183 99.7645 103.828L100.502 103.091ZM109.256 124.225C109.256 116.298 106.107 108.696 100.502 103.091L99.7645 103.828C105.174 109.238 108.213 116.575 108.213 124.225H109.256ZM100.502 145.359C106.107 139.754 109.256 132.152 109.256 124.225H108.213C108.213 131.875 105.174 139.212 99.7645 144.622L100.502 145.359Z" fill="url(#paint6_linear_16177_226764)" fill-opacity="0.8"/>
</g>
<g filter="url(#filter5_f_16177_226764)">
<path d="M148.789 153.592L148.789 154.113H148.789V153.592ZM169.555 144.99L169.923 145.359L169.555 144.99ZM128.034 144.98L128.403 144.612L128.034 144.98ZM119.423 124.225H118.901L118.901 124.226L119.423 124.225ZM149.524 55.6426L149.146 55.2835L149.146 55.2835L149.524 55.6426ZM150.406 55.0285L150.201 54.5496L150.201 54.5496L150.406 55.0285ZM151.459 54.8123L151.459 55.3335H151.459V54.8123ZM158.154 55.1818L157.889 55.6308H157.889L158.154 55.1818ZM159.467 57.5521L158.946 57.5384L159.467 57.5521ZM159.062 58.897L159.502 59.1772L159.504 59.1732L159.062 58.897ZM146.285 94.9862L145.767 94.9275L145.696 95.5607L146.33 95.5054L146.285 94.9862ZM169.555 103.459L169.923 103.091L169.555 103.459ZM79.3675 153.592L79.3669 154.113H79.3675V153.592ZM100.133 144.99L99.7645 144.622L100.133 144.99ZM58.6121 144.98L58.2436 145.349H58.2436L58.6121 144.98ZM50.0006 124.225H49.4795V124.226L50.0006 124.225ZM80.1017 55.6426L79.724 55.2835L79.724 55.2835L80.1017 55.6426ZM80.9841 55.0285L80.7787 54.5496L80.7787 54.5496L80.9841 55.0285ZM82.0372 54.8123L82.0371 55.3335H82.0372V54.8123ZM88.7317 55.1818L88.4672 55.6308L88.7317 55.1818ZM90.0455 57.5521L90.5664 57.5658V57.5658L90.0455 57.5521ZM89.6406 58.897L90.08 59.1772L90.0825 59.1732L89.6406 58.897ZM76.8633 94.9862L76.3455 94.9275L76.2737 95.5607L76.9085 95.5054L76.8633 94.9862ZM100.133 103.459L100.502 103.091L100.133 103.459ZM148.789 154.113C156.716 154.113 164.318 150.964 169.923 145.359L169.186 144.622C163.777 150.032 156.44 153.071 148.789 153.071V154.113ZM127.666 145.349C133.268 150.952 140.865 154.104 148.789 154.113L148.79 153.071C141.142 153.062 133.81 150.02 128.403 144.612L127.666 145.349ZM118.901 124.226C118.911 132.149 122.063 139.746 127.666 145.349L128.403 144.612C122.995 139.204 119.953 131.872 119.944 124.224L118.901 124.226ZM149.146 55.2835C135.373 69.7714 118.901 93.5159 118.901 124.225H119.944C119.944 93.8989 136.213 70.4001 149.901 56.0017L149.146 55.2835ZM150.201 54.5496C149.803 54.7202 149.444 54.9699 149.146 55.2835L149.901 56.0017C150.102 55.7905 150.344 55.6223 150.611 55.5075L150.201 54.5496ZM151.459 54.2912C151.026 54.2911 150.598 54.379 150.201 54.5496L150.611 55.5075C150.879 55.3926 151.168 55.3334 151.459 55.3335L151.459 54.2912ZM156.799 54.2912H151.459V55.3335H156.799V54.2912ZM158.418 54.7327C157.927 54.4436 157.368 54.2912 156.799 54.2912V55.3335C157.182 55.3335 157.559 55.4361 157.889 55.6308L158.418 54.7327ZM159.589 55.9352C159.313 55.437 158.909 55.0218 158.418 54.7327L157.889 55.6308C158.22 55.8255 158.492 56.105 158.678 56.4405L159.589 55.9352ZM159.988 57.5658C160.003 56.9964 159.866 56.4334 159.589 55.9352L158.678 56.4405C158.864 56.7759 158.956 57.155 158.946 57.5384L159.988 57.5658ZM159.504 59.1732C159.806 58.6902 159.973 58.1352 159.988 57.5658L158.946 57.5384C158.936 57.9218 158.824 58.2955 158.621 58.6208L159.504 59.1732ZM146.803 95.0449C148.25 82.2781 152.593 70.0103 159.502 59.1772L158.623 58.6168C151.629 69.5837 147.232 82.003 145.767 94.9275L146.803 95.0449ZM148.789 94.3369C147.921 94.3369 147.073 94.3944 146.24 94.467L146.33 95.5054C147.152 95.4338 147.965 95.3792 148.789 95.3792V94.3369ZM169.923 103.091C164.318 97.4858 156.716 94.3369 148.789 94.3369V95.3792C156.44 95.3792 163.777 98.4183 169.186 103.828L169.923 103.091ZM178.677 124.225C178.677 116.298 175.528 108.696 169.923 103.091L169.186 103.828C174.596 109.238 177.635 116.575 177.635 124.225H178.677ZM169.923 145.359C175.528 139.754 178.677 132.152 178.677 124.225H177.635C177.635 131.875 174.596 139.212 169.186 144.622L169.923 145.359ZM79.3675 154.113C87.2943 154.113 94.8964 150.964 100.502 145.359L99.7645 144.622C94.3549 150.032 87.0179 153.071 79.3675 153.071V154.113ZM58.2436 145.349C63.8466 150.952 71.4431 154.104 79.3669 154.113L79.3681 153.071C71.7204 153.062 64.3884 150.02 58.9806 144.612L58.2436 145.349ZM49.4795 124.226C49.4888 132.149 52.6407 139.746 58.2436 145.349L58.9806 144.612C53.5729 139.204 50.5308 131.872 50.5218 124.224L49.4795 124.226ZM79.724 55.2835C65.9511 69.7714 49.4795 93.5159 49.4795 124.225H50.5218C50.5218 93.8989 66.7916 70.4001 80.4794 56.0017L79.724 55.2835ZM80.7787 54.5496C80.381 54.7202 80.0221 54.9699 79.724 55.2835L80.4794 56.0017C80.6802 55.7905 80.9218 55.6223 81.1896 55.5075L80.7787 54.5496ZM82.0373 54.2912C81.6046 54.2911 81.1764 54.379 80.7787 54.5496L81.1896 55.5075C81.4574 55.3926 81.7457 55.3334 82.0371 55.3335L82.0373 54.2912ZM87.3767 54.2912H82.0372V55.3335H87.3767V54.2912ZM88.9962 54.7327C88.5054 54.4436 87.9462 54.2912 87.3767 54.2912V55.3335C87.7602 55.3335 88.1367 55.4361 88.4672 55.6308L88.9962 54.7327ZM90.1675 55.9352C89.8914 55.437 89.487 55.0218 88.9962 54.7327L88.4672 55.6308C88.7976 55.8255 89.07 56.105 89.2559 56.4405L90.1675 55.9352ZM90.5664 57.5658C90.5814 56.9964 90.4436 56.4334 90.1675 55.9352L89.2559 56.4405C89.4418 56.7759 89.5346 57.155 89.5245 57.5384L90.5664 57.5658ZM90.0825 59.1732C90.3844 58.6902 90.5515 58.1352 90.5664 57.5658L89.5245 57.5384C89.5144 57.9218 89.4019 58.2955 89.1986 58.6208L90.0825 59.1732ZM77.3811 95.0449C78.828 82.2781 83.1713 70.0103 90.08 59.1772L89.2012 58.6168C82.2072 69.5837 77.8102 82.003 76.3455 94.9275L77.3811 95.0449ZM79.3675 94.3369C78.499 94.3369 77.6515 94.3944 76.8181 94.467L76.9085 95.5054C77.7303 95.4338 78.5434 95.3792 79.3675 95.3792V94.3369ZM100.502 103.091C94.8964 97.4858 87.2943 94.3369 79.3675 94.3369V95.3792C87.0179 95.3792 94.3549 98.4183 99.7645 103.828L100.502 103.091ZM109.256 124.225C109.256 116.298 106.107 108.696 100.502 103.091L99.7645 103.828C105.174 109.238 108.213 116.575 108.213 124.225H109.256ZM100.502 145.359C106.107 139.754 109.256 132.152 109.256 124.225H108.213C108.213 131.875 105.174 139.212 99.7645 144.622L100.502 145.359Z" fill="url(#paint7_linear_16177_226764)"/>
</g>
<g filter="url(#filter6_f_16177_226764)">
<path d="M148.789 153.592L148.789 154.113H148.789V153.592ZM169.555 144.99L169.923 145.359L169.555 144.99ZM128.034 144.98L128.403 144.612L128.034 144.98ZM119.423 124.225H118.901L118.901 124.226L119.423 124.225ZM149.524 55.6426L149.146 55.2835L149.146 55.2835L149.524 55.6426ZM150.406 55.0285L150.201 54.5496L150.201 54.5496L150.406 55.0285ZM151.459 54.8123L151.459 55.3335H151.459V54.8123ZM158.154 55.1818L157.889 55.6308H157.889L158.154 55.1818ZM159.467 57.5521L158.946 57.5384L159.467 57.5521ZM159.062 58.897L159.502 59.1772L159.504 59.1732L159.062 58.897ZM146.285 94.9862L145.767 94.9275L145.696 95.5607L146.33 95.5054L146.285 94.9862ZM169.555 103.459L169.923 103.091L169.555 103.459ZM79.3675 153.592L79.3669 154.113H79.3675V153.592ZM100.133 144.99L99.7645 144.622L100.133 144.99ZM58.6121 144.98L58.2436 145.349H58.2436L58.6121 144.98ZM50.0006 124.225H49.4795V124.226L50.0006 124.225ZM80.1017 55.6426L79.724 55.2835L79.724 55.2835L80.1017 55.6426ZM80.9841 55.0285L80.7787 54.5496L80.7787 54.5496L80.9841 55.0285ZM82.0372 54.8123L82.0371 55.3335H82.0372V54.8123ZM88.7317 55.1818L88.4672 55.6308L88.7317 55.1818ZM90.0455 57.5521L90.5664 57.5658V57.5658L90.0455 57.5521ZM89.6406 58.897L90.08 59.1772L90.0825 59.1732L89.6406 58.897ZM76.8633 94.9862L76.3455 94.9275L76.2737 95.5607L76.9085 95.5054L76.8633 94.9862ZM100.133 103.459L100.502 103.091L100.133 103.459ZM148.789 154.113C156.716 154.113 164.318 150.964 169.923 145.359L169.186 144.622C163.777 150.032 156.44 153.071 148.789 153.071V154.113ZM127.666 145.349C133.268 150.952 140.865 154.104 148.789 154.113L148.79 153.071C141.142 153.062 133.81 150.02 128.403 144.612L127.666 145.349ZM118.901 124.226C118.911 132.149 122.063 139.746 127.666 145.349L128.403 144.612C122.995 139.204 119.953 131.872 119.944 124.224L118.901 124.226ZM149.146 55.2835C135.373 69.7714 118.901 93.5159 118.901 124.225H119.944C119.944 93.8989 136.213 70.4001 149.901 56.0017L149.146 55.2835ZM150.201 54.5496C149.803 54.7202 149.444 54.9699 149.146 55.2835L149.901 56.0017C150.102 55.7905 150.344 55.6223 150.611 55.5075L150.201 54.5496ZM151.459 54.2912C151.026 54.2911 150.598 54.379 150.201 54.5496L150.611 55.5075C150.879 55.3926 151.168 55.3334 151.459 55.3335L151.459 54.2912ZM156.799 54.2912H151.459V55.3335H156.799V54.2912ZM158.418 54.7327C157.927 54.4436 157.368 54.2912 156.799 54.2912V55.3335C157.182 55.3335 157.559 55.4361 157.889 55.6308L158.418 54.7327ZM159.589 55.9352C159.313 55.437 158.909 55.0218 158.418 54.7327L157.889 55.6308C158.22 55.8255 158.492 56.105 158.678 56.4405L159.589 55.9352ZM159.988 57.5658C160.003 56.9964 159.866 56.4334 159.589 55.9352L158.678 56.4405C158.864 56.7759 158.956 57.155 158.946 57.5384L159.988 57.5658ZM159.504 59.1732C159.806 58.6902 159.973 58.1352 159.988 57.5658L158.946 57.5384C158.936 57.9218 158.824 58.2955 158.621 58.6208L159.504 59.1732ZM146.803 95.0449C148.25 82.2781 152.593 70.0103 159.502 59.1772L158.623 58.6168C151.629 69.5837 147.232 82.003 145.767 94.9275L146.803 95.0449ZM148.789 94.3369C147.921 94.3369 147.073 94.3944 146.24 94.467L146.33 95.5054C147.152 95.4338 147.965 95.3792 148.789 95.3792V94.3369ZM169.923 103.091C164.318 97.4858 156.716 94.3369 148.789 94.3369V95.3792C156.44 95.3792 163.777 98.4183 169.186 103.828L169.923 103.091ZM178.677 124.225C178.677 116.298 175.528 108.696 169.923 103.091L169.186 103.828C174.596 109.238 177.635 116.575 177.635 124.225H178.677ZM169.923 145.359C175.528 139.754 178.677 132.152 178.677 124.225H177.635C177.635 131.875 174.596 139.212 169.186 144.622L169.923 145.359ZM79.3675 154.113C87.2943 154.113 94.8964 150.964 100.502 145.359L99.7645 144.622C94.3549 150.032 87.0179 153.071 79.3675 153.071V154.113ZM58.2436 145.349C63.8466 150.952 71.4431 154.104 79.3669 154.113L79.3681 153.071C71.7204 153.062 64.3884 150.02 58.9806 144.612L58.2436 145.349ZM49.4795 124.226C49.4888 132.149 52.6407 139.746 58.2436 145.349L58.9806 144.612C53.5729 139.204 50.5308 131.872 50.5218 124.224L49.4795 124.226ZM79.724 55.2835C65.9511 69.7714 49.4795 93.5159 49.4795 124.225H50.5218C50.5218 93.8989 66.7916 70.4001 80.4794 56.0017L79.724 55.2835ZM80.7787 54.5496C80.381 54.7202 80.0221 54.9699 79.724 55.2835L80.4794 56.0017C80.6802 55.7905 80.9218 55.6223 81.1896 55.5075L80.7787 54.5496ZM82.0373 54.2912C81.6046 54.2911 81.1764 54.379 80.7787 54.5496L81.1896 55.5075C81.4574 55.3926 81.7457 55.3334 82.0371 55.3335L82.0373 54.2912ZM87.3767 54.2912H82.0372V55.3335H87.3767V54.2912ZM88.9962 54.7327C88.5054 54.4436 87.9462 54.2912 87.3767 54.2912V55.3335C87.7602 55.3335 88.1367 55.4361 88.4672 55.6308L88.9962 54.7327ZM90.1675 55.9352C89.8914 55.437 89.487 55.0218 88.9962 54.7327L88.4672 55.6308C88.7976 55.8255 89.07 56.105 89.2559 56.4405L90.1675 55.9352ZM90.5664 57.5658C90.5814 56.9964 90.4436 56.4334 90.1675 55.9352L89.2559 56.4405C89.4418 56.7759 89.5346 57.155 89.5245 57.5384L90.5664 57.5658ZM90.0825 59.1732C90.3844 58.6902 90.5515 58.1352 90.5664 57.5658L89.5245 57.5384C89.5144 57.9218 89.4019 58.2955 89.1986 58.6208L90.0825 59.1732ZM77.3811 95.0449C78.828 82.2781 83.1713 70.0103 90.08 59.1772L89.2012 58.6168C82.2072 69.5837 77.8102 82.003 76.3455 94.9275L77.3811 95.0449ZM79.3675 94.3369C78.499 94.3369 77.6515 94.3944 76.8181 94.467L76.9085 95.5054C77.7303 95.4338 78.5434 95.3792 79.3675 95.3792V94.3369ZM100.502 103.091C94.8964 97.4858 87.2943 94.3369 79.3675 94.3369V95.3792C87.0179 95.3792 94.3549 98.4183 99.7645 103.828L100.502 103.091ZM109.256 124.225C109.256 116.298 106.107 108.696 100.502 103.091L99.7645 103.828C105.174 109.238 108.213 116.575 108.213 124.225H109.256ZM100.502 145.359C106.107 139.754 109.256 132.152 109.256 124.225H108.213C108.213 131.875 105.174 139.212 99.7645 144.622L100.502 145.359Z" fill="url(#paint8_linear_16177_226764)"/>
</g>
<g filter="url(#filter7_f_16177_226764)">
<mask id="path-11-inside-3_16177_226764" fill="white">
<path fill-rule="evenodd" clip-rule="evenodd" d="M169.555 144.99C164.048 150.498 156.578 153.592 148.789 153.592C141.004 153.583 133.539 150.486 128.034 144.98C122.529 139.475 119.432 132.011 119.423 124.225C119.423 93.7074 135.793 70.0858 149.524 55.6426C149.773 55.3802 150.073 55.1713 150.406 55.0285C150.739 54.8858 151.097 54.8122 151.459 54.8123H156.799C157.275 54.8123 157.743 54.9399 158.154 55.1818C158.564 55.4236 158.903 55.771 159.134 56.1879C159.365 56.6047 159.48 57.0757 159.467 57.5521C159.455 58.0285 159.315 58.4929 159.062 58.897C152.111 69.797 147.741 82.1405 146.285 94.9862C147.113 94.9141 147.943 94.8581 148.789 94.8581C156.578 94.8581 164.048 97.9521 169.555 103.459C175.062 108.967 178.156 116.436 178.156 124.225C178.156 132.014 175.062 139.483 169.555 144.99ZM100.133 144.99C94.6257 150.498 87.1561 153.592 79.3675 153.592C71.5817 153.583 64.1175 150.486 58.6121 144.98C53.1068 139.475 50.0098 132.011 50.0006 124.225C50.0006 93.7074 66.3713 70.0858 80.1017 55.6426C80.3511 55.3802 80.6514 55.1713 80.9841 55.0285C81.3169 54.8858 81.6752 54.8122 82.0372 54.8123H87.3767C87.8532 54.8123 88.3211 54.9399 88.7317 55.1818C89.1423 55.4236 89.4807 55.771 89.7117 56.1879C89.9427 56.6047 90.058 57.0757 90.0455 57.5521C90.0329 58.0285 89.8932 58.4929 89.6406 58.897C82.6893 69.797 78.3191 82.1405 76.8633 94.9862C77.6909 94.9141 78.5212 94.8581 79.3675 94.8581C87.1561 94.8581 94.6257 97.9521 100.133 103.459C105.64 108.967 108.734 116.436 108.734 124.225C108.734 132.014 105.64 139.483 100.133 144.99Z"/>
</mask>
<path d="M148.789 153.592L148.789 154.113H148.789V153.592ZM169.555 144.99L169.923 145.359L169.555 144.99ZM128.034 144.98L128.403 144.612L128.034 144.98ZM119.423 124.225H118.901L118.901 124.226L119.423 124.225ZM149.524 55.6426L149.146 55.2835L149.146 55.2835L149.524 55.6426ZM150.406 55.0285L150.201 54.5496L150.201 54.5496L150.406 55.0285ZM151.459 54.8123L151.459 55.3335H151.459V54.8123ZM158.154 55.1818L157.889 55.6308H157.889L158.154 55.1818ZM159.467 57.5521L158.946 57.5384L159.467 57.5521ZM159.062 58.897L159.502 59.1772L159.504 59.1732L159.062 58.897ZM146.285 94.9862L145.767 94.9275L145.696 95.5607L146.33 95.5054L146.285 94.9862ZM169.555 103.459L169.923 103.091L169.555 103.459ZM79.3675 153.592L79.3669 154.113H79.3675V153.592ZM100.133 144.99L99.7645 144.622L100.133 144.99ZM58.6121 144.98L58.2436 145.349H58.2436L58.6121 144.98ZM50.0006 124.225H49.4795V124.226L50.0006 124.225ZM80.1017 55.6426L79.724 55.2835L79.724 55.2835L80.1017 55.6426ZM80.9841 55.0285L80.7787 54.5496L80.7787 54.5496L80.9841 55.0285ZM82.0372 54.8123L82.0371 55.3335H82.0372V54.8123ZM88.7317 55.1818L88.4672 55.6308L88.7317 55.1818ZM90.0455 57.5521L90.5664 57.5658V57.5658L90.0455 57.5521ZM89.6406 58.897L90.08 59.1772L90.0825 59.1732L89.6406 58.897ZM76.8633 94.9862L76.3455 94.9275L76.2737 95.5607L76.9085 95.5054L76.8633 94.9862ZM100.133 103.459L100.502 103.091L100.133 103.459ZM148.789 154.113C156.716 154.113 164.318 150.964 169.923 145.359L169.186 144.622C163.777 150.032 156.44 153.071 148.789 153.071V154.113ZM127.666 145.349C133.268 150.952 140.865 154.104 148.789 154.113L148.79 153.071C141.142 153.062 133.81 150.02 128.403 144.612L127.666 145.349ZM118.901 124.226C118.911 132.149 122.063 139.746 127.666 145.349L128.403 144.612C122.995 139.204 119.953 131.872 119.944 124.224L118.901 124.226ZM149.146 55.2835C135.373 69.7714 118.901 93.5159 118.901 124.225H119.944C119.944 93.8989 136.213 70.4001 149.901 56.0017L149.146 55.2835ZM150.201 54.5496C149.803 54.7202 149.444 54.9699 149.146 55.2835L149.901 56.0017C150.102 55.7905 150.344 55.6223 150.611 55.5075L150.201 54.5496ZM151.459 54.2912C151.026 54.2911 150.598 54.379 150.201 54.5496L150.611 55.5075C150.879 55.3926 151.168 55.3334 151.459 55.3335L151.459 54.2912ZM156.799 54.2912H151.459V55.3335H156.799V54.2912ZM158.418 54.7327C157.927 54.4436 157.368 54.2912 156.799 54.2912V55.3335C157.182 55.3335 157.559 55.4361 157.889 55.6308L158.418 54.7327ZM159.589 55.9352C159.313 55.437 158.909 55.0218 158.418 54.7327L157.889 55.6308C158.22 55.8255 158.492 56.105 158.678 56.4405L159.589 55.9352ZM159.988 57.5658C160.003 56.9964 159.866 56.4334 159.589 55.9352L158.678 56.4405C158.864 56.7759 158.956 57.155 158.946 57.5384L159.988 57.5658ZM159.504 59.1732C159.806 58.6902 159.973 58.1352 159.988 57.5658L158.946 57.5384C158.936 57.9218 158.824 58.2955 158.621 58.6208L159.504 59.1732ZM146.803 95.0449C148.25 82.2781 152.593 70.0103 159.502 59.1772L158.623 58.6168C151.629 69.5837 147.232 82.003 145.767 94.9275L146.803 95.0449ZM148.789 94.3369C147.921 94.3369 147.073 94.3944 146.24 94.467L146.33 95.5054C147.152 95.4338 147.965 95.3792 148.789 95.3792V94.3369ZM169.923 103.091C164.318 97.4858 156.716 94.3369 148.789 94.3369V95.3792C156.44 95.3792 163.777 98.4183 169.186 103.828L169.923 103.091ZM178.677 124.225C178.677 116.298 175.528 108.696 169.923 103.091L169.186 103.828C174.596 109.238 177.635 116.575 177.635 124.225H178.677ZM169.923 145.359C175.528 139.754 178.677 132.152 178.677 124.225H177.635C177.635 131.875 174.596 139.212 169.186 144.622L169.923 145.359ZM79.3675 154.113C87.2943 154.113 94.8964 150.964 100.502 145.359L99.7645 144.622C94.3549 150.032 87.0179 153.071 79.3675 153.071V154.113ZM58.2436 145.349C63.8466 150.952 71.4431 154.104 79.3669 154.113L79.3681 153.071C71.7204 153.062 64.3884 150.02 58.9806 144.612L58.2436 145.349ZM49.4795 124.226C49.4888 132.149 52.6407 139.746 58.2436 145.349L58.9806 144.612C53.5729 139.204 50.5308 131.872 50.5218 124.224L49.4795 124.226ZM79.724 55.2835C65.9511 69.7714 49.4795 93.5159 49.4795 124.225H50.5218C50.5218 93.8989 66.7916 70.4001 80.4794 56.0017L79.724 55.2835ZM80.7787 54.5496C80.381 54.7202 80.0221 54.9699 79.724 55.2835L80.4794 56.0017C80.6802 55.7905 80.9218 55.6223 81.1896 55.5075L80.7787 54.5496ZM82.0373 54.2912C81.6046 54.2911 81.1764 54.379 80.7787 54.5496L81.1896 55.5075C81.4574 55.3926 81.7457 55.3334 82.0371 55.3335L82.0373 54.2912ZM87.3767 54.2912H82.0372V55.3335H87.3767V54.2912ZM88.9962 54.7327C88.5054 54.4436 87.9462 54.2912 87.3767 54.2912V55.3335C87.7602 55.3335 88.1367 55.4361 88.4672 55.6308L88.9962 54.7327ZM90.1675 55.9352C89.8914 55.437 89.487 55.0218 88.9962 54.7327L88.4672 55.6308C88.7976 55.8255 89.07 56.105 89.2559 56.4405L90.1675 55.9352ZM90.5664 57.5658C90.5814 56.9964 90.4436 56.4334 90.1675 55.9352L89.2559 56.4405C89.4418 56.7759 89.5346 57.155 89.5245 57.5384L90.5664 57.5658ZM90.0825 59.1732C90.3844 58.6902 90.5515 58.1352 90.5664 57.5658L89.5245 57.5384C89.5144 57.9218 89.4019 58.2955 89.1986 58.6208L90.0825 59.1732ZM77.3811 95.0449C78.828 82.2781 83.1713 70.0103 90.08 59.1772L89.2012 58.6168C82.2072 69.5837 77.8102 82.003 76.3455 94.9275L77.3811 95.0449ZM79.3675 94.3369C78.499 94.3369 77.6515 94.3944 76.8181 94.467L76.9085 95.5054C77.7303 95.4338 78.5434 95.3792 79.3675 95.3792V94.3369ZM100.502 103.091C94.8964 97.4858 87.2943 94.3369 79.3675 94.3369V95.3792C87.0179 95.3792 94.3549 98.4183 99.7645 103.828L100.502 103.091ZM109.256 124.225C109.256 116.298 106.107 108.696 100.502 103.091L99.7645 103.828C105.174 109.238 108.213 116.575 108.213 124.225H109.256ZM100.502 145.359C106.107 139.754 109.256 132.152 109.256 124.225H108.213C108.213 131.875 105.174 139.212 99.7645 144.622L100.502 145.359Z" fill="url(#paint9_linear_16177_226764)" mask="url(#path-11-inside-3_16177_226764)"/>
</g>
<g filter="url(#filter8_f_16177_226764)">
<mask id="path-13-inside-4_16177_226764" fill="white">
<path fill-rule="evenodd" clip-rule="evenodd" d="M169.555 144.99C164.048 150.498 156.578 153.592 148.789 153.592C141.004 153.583 133.539 150.486 128.034 144.98C122.529 139.475 119.432 132.011 119.423 124.225C119.423 93.7074 135.793 70.0858 149.524 55.6426C149.773 55.3802 150.073 55.1713 150.406 55.0285C150.739 54.8858 151.097 54.8122 151.459 54.8123H156.799C157.275 54.8123 157.743 54.9399 158.154 55.1818C158.564 55.4236 158.903 55.771 159.134 56.1879C159.365 56.6047 159.48 57.0757 159.467 57.5521C159.455 58.0285 159.315 58.4929 159.062 58.897C152.111 69.797 147.741 82.1405 146.285 94.9862C147.113 94.9141 147.943 94.8581 148.789 94.8581C156.578 94.8581 164.048 97.9521 169.555 103.459C175.062 108.967 178.156 116.436 178.156 124.225C178.156 132.014 175.062 139.483 169.555 144.99ZM100.133 144.99C94.6257 150.498 87.1561 153.592 79.3675 153.592C71.5817 153.583 64.1175 150.486 58.6121 144.98C53.1068 139.475 50.0098 132.011 50.0006 124.225C50.0006 93.7074 66.3713 70.0858 80.1017 55.6426C80.3511 55.3802 80.6514 55.1713 80.9841 55.0285C81.3169 54.8858 81.6752 54.8122 82.0372 54.8123H87.3767C87.8532 54.8123 88.3211 54.9399 88.7317 55.1818C89.1423 55.4236 89.4807 55.771 89.7117 56.1879C89.9427 56.6047 90.058 57.0757 90.0455 57.5521C90.0329 58.0285 89.8932 58.4929 89.6406 58.897C82.6893 69.797 78.3191 82.1405 76.8633 94.9862C77.6909 94.9141 78.5212 94.8581 79.3675 94.8581C87.1561 94.8581 94.6257 97.9521 100.133 103.459C105.64 108.967 108.734 116.436 108.734 124.225C108.734 132.014 105.64 139.483 100.133 144.99Z"/>
</mask>
<path d="M148.789 153.592L148.789 154.113H148.789V153.592ZM169.555 144.99L169.923 145.359L169.555 144.99ZM128.034 144.98L128.403 144.612L128.034 144.98ZM119.423 124.225H118.901L118.901 124.226L119.423 124.225ZM149.524 55.6426L149.146 55.2835L149.146 55.2835L149.524 55.6426ZM150.406 55.0285L150.201 54.5496L150.201 54.5496L150.406 55.0285ZM151.459 54.8123L151.459 55.3335H151.459V54.8123ZM158.154 55.1818L157.889 55.6308H157.889L158.154 55.1818ZM159.467 57.5521L158.946 57.5384L159.467 57.5521ZM159.062 58.897L159.502 59.1772L159.504 59.1732L159.062 58.897ZM146.285 94.9862L145.767 94.9275L145.696 95.5607L146.33 95.5054L146.285 94.9862ZM169.555 103.459L169.923 103.091L169.555 103.459ZM79.3675 153.592L79.3669 154.113H79.3675V153.592ZM100.133 144.99L99.7645 144.622L100.133 144.99ZM58.6121 144.98L58.2436 145.349H58.2436L58.6121 144.98ZM50.0006 124.225H49.4795V124.226L50.0006 124.225ZM80.1017 55.6426L79.724 55.2835L79.724 55.2835L80.1017 55.6426ZM80.9841 55.0285L80.7787 54.5496L80.7787 54.5496L80.9841 55.0285ZM82.0372 54.8123L82.0371 55.3335H82.0372V54.8123ZM88.7317 55.1818L88.4672 55.6308L88.7317 55.1818ZM90.0455 57.5521L90.5664 57.5658V57.5658L90.0455 57.5521ZM89.6406 58.897L90.08 59.1772L90.0825 59.1732L89.6406 58.897ZM76.8633 94.9862L76.3455 94.9275L76.2737 95.5607L76.9085 95.5054L76.8633 94.9862ZM100.133 103.459L100.502 103.091L100.133 103.459ZM148.789 154.113C156.716 154.113 164.318 150.964 169.923 145.359L169.186 144.622C163.777 150.032 156.44 153.071 148.789 153.071V154.113ZM127.666 145.349C133.268 150.952 140.865 154.104 148.789 154.113L148.79 153.071C141.142 153.062 133.81 150.02 128.403 144.612L127.666 145.349ZM118.901 124.226C118.911 132.149 122.063 139.746 127.666 145.349L128.403 144.612C122.995 139.204 119.953 131.872 119.944 124.224L118.901 124.226ZM149.146 55.2835C135.373 69.7714 118.901 93.5159 118.901 124.225H119.944C119.944 93.8989 136.213 70.4001 149.901 56.0017L149.146 55.2835ZM150.201 54.5496C149.803 54.7202 149.444 54.9699 149.146 55.2835L149.901 56.0017C150.102 55.7905 150.344 55.6223 150.611 55.5075L150.201 54.5496ZM151.459 54.2912C151.026 54.2911 150.598 54.379 150.201 54.5496L150.611 55.5075C150.879 55.3926 151.168 55.3334 151.459 55.3335L151.459 54.2912ZM156.799 54.2912H151.459V55.3335H156.799V54.2912ZM158.418 54.7327C157.927 54.4436 157.368 54.2912 156.799 54.2912V55.3335C157.182 55.3335 157.559 55.4361 157.889 55.6308L158.418 54.7327ZM159.589 55.9352C159.313 55.437 158.909 55.0218 158.418 54.7327L157.889 55.6308C158.22 55.8255 158.492 56.105 158.678 56.4405L159.589 55.9352ZM159.988 57.5658C160.003 56.9964 159.866 56.4334 159.589 55.9352L158.678 56.4405C158.864 56.7759 158.956 57.155 158.946 57.5384L159.988 57.5658ZM159.504 59.1732C159.806 58.6902 159.973 58.1352 159.988 57.5658L158.946 57.5384C158.936 57.9218 158.824 58.2955 158.621 58.6208L159.504 59.1732ZM146.803 95.0449C148.25 82.2781 152.593 70.0103 159.502 59.1772L158.623 58.6168C151.629 69.5837 147.232 82.003 145.767 94.9275L146.803 95.0449ZM148.789 94.3369C147.921 94.3369 147.073 94.3944 146.24 94.467L146.33 95.5054C147.152 95.4338 147.965 95.3792 148.789 95.3792V94.3369ZM169.923 103.091C164.318 97.4858 156.716 94.3369 148.789 94.3369V95.3792C156.44 95.3792 163.777 98.4183 169.186 103.828L169.923 103.091ZM178.677 124.225C178.677 116.298 175.528 108.696 169.923 103.091L169.186 103.828C174.596 109.238 177.635 116.575 177.635 124.225H178.677ZM169.923 145.359C175.528 139.754 178.677 132.152 178.677 124.225H177.635C177.635 131.875 174.596 139.212 169.186 144.622L169.923 145.359ZM79.3675 154.113C87.2943 154.113 94.8964 150.964 100.502 145.359L99.7645 144.622C94.3549 150.032 87.0179 153.071 79.3675 153.071V154.113ZM58.2436 145.349C63.8466 150.952 71.4431 154.104 79.3669 154.113L79.3681 153.071C71.7204 153.062 64.3884 150.02 58.9806 144.612L58.2436 145.349ZM49.4795 124.226C49.4888 132.149 52.6407 139.746 58.2436 145.349L58.9806 144.612C53.5729 139.204 50.5308 131.872 50.5218 124.224L49.4795 124.226ZM79.724 55.2835C65.9511 69.7714 49.4795 93.5159 49.4795 124.225H50.5218C50.5218 93.8989 66.7916 70.4001 80.4794 56.0017L79.724 55.2835ZM80.7787 54.5496C80.381 54.7202 80.0221 54.9699 79.724 55.2835L80.4794 56.0017C80.6802 55.7905 80.9218 55.6223 81.1896 55.5075L80.7787 54.5496ZM82.0373 54.2912C81.6046 54.2911 81.1764 54.379 80.7787 54.5496L81.1896 55.5075C81.4574 55.3926 81.7457 55.3334 82.0371 55.3335L82.0373 54.2912ZM87.3767 54.2912H82.0372V55.3335H87.3767V54.2912ZM88.9962 54.7327C88.5054 54.4436 87.9462 54.2912 87.3767 54.2912V55.3335C87.7602 55.3335 88.1367 55.4361 88.4672 55.6308L88.9962 54.7327ZM90.1675 55.9352C89.8914 55.437 89.487 55.0218 88.9962 54.7327L88.4672 55.6308C88.7976 55.8255 89.07 56.105 89.2559 56.4405L90.1675 55.9352ZM90.5664 57.5658C90.5814 56.9964 90.4436 56.4334 90.1675 55.9352L89.2559 56.4405C89.4418 56.7759 89.5346 57.155 89.5245 57.5384L90.5664 57.5658ZM90.0825 59.1732C90.3844 58.6902 90.5515 58.1352 90.5664 57.5658L89.5245 57.5384C89.5144 57.9218 89.4019 58.2955 89.1986 58.6208L90.0825 59.1732ZM77.3811 95.0449C78.828 82.2781 83.1713 70.0103 90.08 59.1772L89.2012 58.6168C82.2072 69.5837 77.8102 82.003 76.3455 94.9275L77.3811 95.0449ZM79.3675 94.3369C78.499 94.3369 77.6515 94.3944 76.8181 94.467L76.9085 95.5054C77.7303 95.4338 78.5434 95.3792 79.3675 95.3792V94.3369ZM100.502 103.091C94.8964 97.4858 87.2943 94.3369 79.3675 94.3369V95.3792C87.0179 95.3792 94.3549 98.4183 99.7645 103.828L100.502 103.091ZM109.256 124.225C109.256 116.298 106.107 108.696 100.502 103.091L99.7645 103.828C105.174 109.238 108.213 116.575 108.213 124.225H109.256ZM100.502 145.359C106.107 139.754 109.256 132.152 109.256 124.225H108.213C108.213 131.875 105.174 139.212 99.7645 144.622L100.502 145.359Z" fill="url(#paint10_linear_16177_226764)" mask="url(#path-13-inside-4_16177_226764)"/>
</g>
<mask id="path-15-inside-5_16177_226764" fill="white">
<path fill-rule="evenodd" clip-rule="evenodd" d="M169.555 144.99C164.048 150.498 156.578 153.592 148.789 153.592C141.004 153.583 133.539 150.486 128.034 144.98C122.529 139.475 119.432 132.011 119.423 124.225C119.423 93.7074 135.793 70.0858 149.524 55.6426C149.773 55.3802 150.073 55.1713 150.406 55.0285C150.739 54.8858 151.097 54.8122 151.459 54.8123H156.799C157.275 54.8123 157.743 54.9399 158.154 55.1818C158.564 55.4236 158.903 55.771 159.134 56.1879C159.365 56.6047 159.48 57.0757 159.467 57.5521C159.455 58.0285 159.315 58.4929 159.062 58.897C152.111 69.797 147.741 82.1405 146.285 94.9862C147.113 94.9141 147.943 94.8581 148.789 94.8581C156.578 94.8581 164.048 97.9521 169.555 103.459C175.062 108.967 178.156 116.436 178.156 124.225C178.156 132.014 175.062 139.483 169.555 144.99ZM100.133 144.99C94.6257 150.498 87.1561 153.592 79.3675 153.592C71.5817 153.583 64.1175 150.486 58.6121 144.98C53.1068 139.475 50.0098 132.011 50.0006 124.225C50.0006 93.7074 66.3713 70.0858 80.1017 55.6426C80.3511 55.3802 80.6514 55.1713 80.9841 55.0285C81.3169 54.8858 81.6752 54.8122 82.0372 54.8123H87.3767C87.8532 54.8123 88.3211 54.9399 88.7317 55.1818C89.1423 55.4236 89.4807 55.771 89.7117 56.1879C89.9427 56.6047 90.058 57.0757 90.0455 57.5521C90.0329 58.0285 89.8932 58.4929 89.6406 58.897C82.6893 69.797 78.3191 82.1405 76.8633 94.9862C77.6909 94.9141 78.5212 94.8581 79.3675 94.8581C87.1561 94.8581 94.6257 97.9521 100.133 103.459C105.64 108.967 108.734 116.436 108.734 124.225C108.734 132.014 105.64 139.483 100.133 144.99Z"/>
</mask>
<path d="M148.789 153.592L148.788 154.634H148.789V153.592ZM169.555 144.99L170.292 145.727L169.555 144.99ZM128.034 144.98L128.771 144.243L128.034 144.98ZM119.423 124.225H118.38V124.226L119.423 124.225ZM149.524 55.6426L148.768 54.9245L148.768 54.9245L149.524 55.6426ZM150.406 55.0285L149.995 54.0707L149.995 54.0707L150.406 55.0285ZM151.459 54.8123L151.459 55.8546H151.459V54.8123ZM158.154 55.1818L157.625 56.0798L157.625 56.0798L158.154 55.1818ZM159.467 57.5521L158.425 57.5248H158.425L159.467 57.5521ZM159.062 58.897L159.941 59.4575L159.946 59.4494L159.062 58.897ZM146.285 94.9862L145.25 94.8688L145.106 96.1351L146.376 96.0246L146.285 94.9862ZM169.555 103.459L170.292 102.722H170.292L169.555 103.459ZM79.3675 153.592L79.3663 154.634H79.3675V153.592ZM100.133 144.99L99.396 144.253L100.133 144.99ZM58.6121 144.98L57.8751 145.717V145.717L58.6121 144.98ZM50.0006 124.225H48.9584V124.226L50.0006 124.225ZM80.1017 55.6426L79.3463 54.9245L80.1017 55.6426ZM80.9841 55.0285L80.5732 54.0707L80.5732 54.0707L80.9841 55.0285ZM82.0372 54.8123L82.037 55.8546H82.0372V54.8123ZM88.7317 55.1818L88.2027 56.0798L88.2027 56.0798L88.7317 55.1818ZM90.0455 57.5521L91.0874 57.5795V57.5795L90.0455 57.5521ZM89.6406 58.897L90.5194 59.4574L90.5244 59.4494L89.6406 58.897ZM76.8633 94.9862L75.8277 94.8688L75.6842 96.1351L76.9538 96.0246L76.8633 94.9862ZM100.133 103.459L100.87 102.722L100.133 103.459ZM148.789 154.634C156.854 154.634 164.589 151.43 170.292 145.727L168.818 144.253C163.506 149.565 156.302 152.55 148.789 152.55V154.634ZM127.297 145.717C132.998 151.418 140.726 154.625 148.788 154.634L148.791 152.55C141.281 152.541 134.081 149.553 128.771 144.243L127.297 145.717ZM118.38 124.226C118.39 132.288 121.596 140.017 127.297 145.717L128.771 144.243C123.461 138.933 120.474 131.733 120.465 124.224L118.38 124.226ZM148.768 54.9245C134.953 69.4571 118.38 93.3245 118.38 124.225H120.465C120.465 94.0903 136.634 70.7144 150.279 56.3607L148.768 54.9245ZM149.995 54.0707C149.532 54.2691 149.115 54.5596 148.768 54.9245L150.279 56.3607C150.431 56.2008 150.614 56.0734 150.817 55.9864L149.995 54.0707ZM151.459 53.77C150.956 53.7699 150.458 53.8722 149.995 54.0707L150.817 55.9864C151.02 55.8994 151.238 55.8546 151.459 55.8546L151.459 53.77ZM156.799 53.77H151.459V55.8546H156.799V53.77ZM158.683 54.2837C158.112 53.9474 157.461 53.77 156.799 53.77V55.8546C157.089 55.8546 157.374 55.9324 157.625 56.0798L158.683 54.2837ZM160.045 55.6826C159.724 55.103 159.254 54.62 158.683 54.2837L157.625 56.0798C157.875 56.2273 158.081 56.439 158.222 56.6931L160.045 55.6826ZM160.509 57.5795C160.527 56.9171 160.366 56.2621 160.045 55.6826L158.222 56.6931C158.363 56.9472 158.433 57.2344 158.425 57.5248L160.509 57.5795ZM159.946 59.4494C160.297 58.8875 160.492 58.2419 160.509 57.5795L158.425 57.5248C158.418 57.8152 158.333 58.0982 158.179 58.3446L159.946 59.4494ZM147.321 95.1036C148.759 82.4156 153.075 70.2236 159.941 59.4574L158.184 58.3366C151.147 69.3704 146.723 81.8655 145.25 94.8688L147.321 95.1036ZM148.789 93.8158C147.899 93.8158 147.034 93.8748 146.195 93.9479L146.376 96.0246C147.192 95.9535 147.987 95.9003 148.789 95.9003V93.8158ZM170.292 102.722C164.589 97.0196 156.854 93.8158 148.789 93.8158V95.9003C156.302 95.9003 163.506 98.8845 168.818 104.196L170.292 102.722ZM179.199 124.225C179.199 116.16 175.995 108.425 170.292 102.722L168.818 104.196C174.13 109.508 177.114 116.713 177.114 124.225H179.199ZM170.292 145.727C175.995 140.025 179.199 132.29 179.199 124.225H177.114C177.114 131.737 174.13 138.942 168.818 144.253L170.292 145.727ZM79.3675 154.634C87.4325 154.634 95.1672 151.43 100.87 145.727L99.396 144.253C94.0841 149.565 86.8797 152.55 79.3675 152.55V154.634ZM57.8751 145.717C63.5757 151.418 71.3045 154.625 79.3663 154.634L79.3687 152.55C71.859 152.541 64.6593 149.553 59.3491 144.243L57.8751 145.717ZM48.9584 124.226C48.9679 132.288 52.1746 140.017 57.8751 145.717L59.3491 144.243C54.0389 138.933 51.0518 131.733 51.0429 124.224L48.9584 124.226ZM79.3463 54.9245C65.5309 69.4571 48.9584 93.3245 48.9584 124.225H51.0429C51.0429 94.0903 67.2118 70.7144 80.8571 56.3607L79.3463 54.9245ZM80.5732 54.0707C80.1106 54.2691 79.6931 54.5596 79.3463 54.9245L80.8571 56.3607C81.0092 56.2008 81.1922 56.0734 81.395 55.9864L80.5732 54.0707ZM82.0375 53.77C81.534 53.7699 81.0359 53.8722 80.5732 54.0707L81.395 55.9864C81.5979 55.8994 81.8163 55.8546 82.037 55.8546L82.0375 53.77ZM87.3767 53.77H82.0372V55.8546H87.3767V53.77ZM89.2607 54.2837C88.6898 53.9474 88.0393 53.77 87.3767 53.77V55.8546C87.6672 55.8546 87.9524 55.9324 88.2027 56.0798L89.2607 54.2837ZM90.6233 55.6826C90.3021 55.103 89.8316 54.62 89.2607 54.2837L88.2027 56.0798C88.453 56.2273 88.6593 56.439 88.8001 56.6931L90.6233 55.6826ZM91.0874 57.5795C91.1048 56.9171 90.9445 56.2621 90.6233 55.6826L88.8001 56.6931C88.9409 56.9472 89.0112 57.2344 89.0035 57.5248L91.0874 57.5795ZM90.5244 59.4494C90.8756 58.8875 91.07 58.2419 91.0874 57.5795L89.0035 57.5247C88.9959 57.8152 88.9107 58.0982 88.7567 58.3446L90.5244 59.4494ZM77.899 95.1036C79.3368 82.4156 83.6534 70.2236 90.5194 59.4574L88.7618 58.3366C81.7251 69.3704 77.3013 81.8655 75.8277 94.8688L77.899 95.1036ZM79.3675 93.8158C78.4769 93.8158 77.6121 93.8748 76.7729 93.9479L76.9538 96.0246C77.7698 95.9535 78.5655 95.9003 79.3675 95.9003V93.8158ZM100.87 102.722C95.1672 97.0196 87.4325 93.8158 79.3675 93.8158V95.9003C86.8797 95.9003 94.0841 98.8845 99.396 104.196L100.87 102.722ZM109.777 124.225C109.777 116.16 106.573 108.425 100.87 102.722L99.396 104.196C104.708 109.508 107.692 116.713 107.692 124.225H109.777ZM100.87 145.727C106.573 140.025 109.777 132.29 109.777 124.225H107.692C107.692 131.737 104.708 138.942 99.396 144.253L100.87 145.727Z" fill="url(#paint11_linear_16177_226764)" mask="url(#path-15-inside-5_16177_226764)"/>
<defs>
<filter id="filter0_f_16177_226764" x="0.5625" y="0.5625" width="140.875" height="140.875" filterUnits="userSpaceOnUse" color-interpolation-filters="sRGB">
<feFlood flood-opacity="0" result="BackgroundImageFix"/>
<feBlend mode="normal" in="SourceGraphic" in2="BackgroundImageFix" result="shape"/>
<feGaussianBlur stdDeviation="26.7188" result="effect1_foregroundBlur_16177_226764"/>
</filter>
<filter id="filter1_f_16177_226764" x="48.1788" y="52.9874" width="131.799" height="102.428" filterUnits="userSpaceOnUse" color-interpolation-filters="sRGB">
<feFlood flood-opacity="0" result="BackgroundImageFix"/>
<feBlend mode="normal" in="SourceGraphic" in2="BackgroundImageFix" result="shape"/>
<feGaussianBlur stdDeviation="0.781714" result="effect1_foregroundBlur_16177_226764"/>
</filter>
<filter id="filter2_f_16177_226764" x="48.9577" y="53.7702" width="130.241" height="100.864" filterUnits="userSpaceOnUse" color-interpolation-filters="sRGB">
<feFlood flood-opacity="0" result="BackgroundImageFix"/>
<feBlend mode="normal" in="SourceGraphic" in2="BackgroundImageFix" result="shape"/>
<feGaussianBlur stdDeviation="0.521143" result="effect1_foregroundBlur_16177_226764"/>
</filter>
<filter id="filter3_f_16177_226764" x="44.7863" y="49.6007" width="138.584" height="109.203" filterUnits="userSpaceOnUse" color-interpolation-filters="sRGB">
<feFlood flood-opacity="0" result="BackgroundImageFix"/>
<feBlend mode="normal" in="SourceGraphic" in2="BackgroundImageFix" result="shape"/>
<feGaussianBlur stdDeviation="2.34514" result="effect1_foregroundBlur_16177_226764"/>
</filter>
<filter id="filter4_f_16177_226764" x="39.0537" y="43.8682" width="150.049" height="120.668" filterUnits="userSpaceOnUse" color-interpolation-filters="sRGB">
<feFlood flood-opacity="0" result="BackgroundImageFix"/>
<feBlend mode="normal" in="SourceGraphic" in2="BackgroundImageFix" result="shape"/>
<feGaussianBlur stdDeviation="5.21143" result="effect1_foregroundBlur_16177_226764"/>
</filter>
<filter id="filter5_f_16177_226764" x="41.3337" y="46.1482" width="145.489" height="116.108" filterUnits="userSpaceOnUse" color-interpolation-filters="sRGB">
<feFlood flood-opacity="0" result="BackgroundImageFix"/>
<feBlend mode="normal" in="SourceGraphic" in2="BackgroundImageFix" result="shape"/>
<feGaussianBlur stdDeviation="4.07143" result="effect1_foregroundBlur_16177_226764"/>
</filter>
<filter id="filter6_f_16177_226764" x="33.8423" y="38.6567" width="160.472" height="131.091" filterUnits="userSpaceOnUse" color-interpolation-filters="sRGB">
<feFlood flood-opacity="0" result="BackgroundImageFix"/>
<feBlend mode="normal" in="SourceGraphic" in2="BackgroundImageFix" result="shape"/>
<feGaussianBlur stdDeviation="7.81714" result="effect1_foregroundBlur_16177_226764"/>
</filter>
<filter id="filter7_f_16177_226764" x="49.5987" y="54.4112" width="128.959" height="99.5819" filterUnits="userSpaceOnUse" color-interpolation-filters="sRGB">
<feFlood flood-opacity="0" result="BackgroundImageFix"/>
<feBlend mode="normal" in="SourceGraphic" in2="BackgroundImageFix" result="shape"/>
<feGaussianBlur stdDeviation="0.200663" result="effect1_foregroundBlur_16177_226764"/>
</filter>
<filter id="filter8_f_16177_226764" x="47.6735" y="52.486" width="132.809" height="103.432" filterUnits="userSpaceOnUse" color-interpolation-filters="sRGB">
<feFlood flood-opacity="0" result="BackgroundImageFix"/>
<feBlend mode="normal" in="SourceGraphic" in2="BackgroundImageFix" result="shape"/>
<feGaussianBlur stdDeviation="1.16327" result="effect1_foregroundBlur_16177_226764"/>
</filter>
<radialGradient id="paint0_radial_16177_226764" cx="0" cy="0" r="1" gradientUnits="userSpaceOnUse" gradientTransform="translate(88 53.9981) rotate(79.2164) scale(64.1345 69.2352)">
<stop offset="0.425674" stop-color="#0D3B34"/>
<stop offset="1" stop-color="#041512" stop-opacity="0.3"/>
</radialGradient>
<linearGradient id="paint1_linear_16177_226764" x1="114" y1="53.9981" x2="139.822" y2="151.124" gradientUnits="userSpaceOnUse">
<stop stop-color="#82E0D6"/>
<stop offset="0.317357" stop-color="#82E0D6" stop-opacity="0.5"/>
<stop offset="0.570084" stop-color="#82E0D6" stop-opacity="0.1"/>
<stop offset="0.872516" stop-color="#82E0D6" stop-opacity="0"/>
</linearGradient>
<linearGradient id="paint2_linear_16177_226764" x1="83.3062" y1="56.9745" x2="93.7546" y2="77.5466" gradientUnits="userSpaceOnUse">
<stop stop-color="#DBF2EF"/>
<stop offset="1" stop-color="#DBF2EF" stop-opacity="0"/>
</linearGradient>
<linearGradient id="paint3_linear_16177_226764" x1="73.4067" y1="58.9381" x2="105.003" y2="139.982" gradientUnits="userSpaceOnUse">
<stop stop-color="#82E0D6"/>
<stop offset="0.290155" stop-color="#82E0D6" stop-opacity="0"/>
</linearGradient>
<linearGradient id="paint4_linear_16177_226764" x1="73.4067" y1="58.9381" x2="105.003" y2="139.982" gradientUnits="userSpaceOnUse">
<stop stop-color="#82E0D6"/>
<stop offset="0.290155" stop-color="#82E0D6" stop-opacity="0"/>
</linearGradient>
<linearGradient id="paint5_linear_16177_226764" x1="73.4067" y1="58.9381" x2="105.003" y2="139.982" gradientUnits="userSpaceOnUse">
<stop stop-color="#60F5E5"/>
<stop offset="0.290155" stop-color="#60F5E5" stop-opacity="0"/>
</linearGradient>
<linearGradient id="paint6_linear_16177_226764" x1="73.4067" y1="58.9381" x2="105.003" y2="139.982" gradientUnits="userSpaceOnUse">
<stop stop-color="#82E0D6"/>
<stop offset="0.290155" stop-color="#82E0D6" stop-opacity="0"/>
</linearGradient>
<linearGradient id="paint7_linear_16177_226764" x1="73.4067" y1="58.9381" x2="105.003" y2="139.982" gradientUnits="userSpaceOnUse">
<stop stop-color="#82E0D6"/>
<stop offset="0.290155" stop-color="#82E0D6" stop-opacity="0"/>
</linearGradient>
<linearGradient id="paint8_linear_16177_226764" x1="73.4067" y1="58.9381" x2="105.003" y2="139.982" gradientUnits="userSpaceOnUse">
<stop stop-color="#A6FCF3"/>
<stop offset="0.290155" stop-color="#A6FCF3" stop-opacity="0"/>
</linearGradient>
<linearGradient id="paint9_linear_16177_226764" x1="73.4067" y1="58.9381" x2="105.003" y2="139.982" gradientUnits="userSpaceOnUse">
<stop stop-color="#E0FFFC"/>
<stop offset="0.290155" stop-color="#E0FFFC" stop-opacity="0"/>
</linearGradient>
<linearGradient id="paint10_linear_16177_226764" x1="73.4067" y1="58.9381" x2="105.003" y2="139.982" gradientUnits="userSpaceOnUse">
<stop stop-color="#E0FFFC"/>
<stop offset="0.290155" stop-color="#E0FFFC" stop-opacity="0"/>
</linearGradient>
<linearGradient id="paint11_linear_16177_226764" x1="83.3062" y1="56.9745" x2="89.8363" y2="74.6075" gradientUnits="userSpaceOnUse">
<stop stop-color="#DBF2EF"/>
<stop offset="1" stop-color="#DBF2EF" stop-opacity="0"/>
</linearGradient>
</defs>
</svg>
