<svg width="28" height="28" viewBox="0 0 28 28" fill="none" xmlns="http://www.w3.org/2000/svg">
<path d="M14 8.67383V14.0059L18.2656 18.2715" stroke="#00E599" stroke-width="1.16667" stroke-miterlimit="10" stroke-linecap="round"/>
<path d="M3.59258 8.59553C4.91406 6.04978 7.12248 4.07644 9.80028 3.04858C12.4781 2.02073 15.4397 2.00961 18.1251 3.01732C20.8106 4.02503 23.0338 5.98174 24.3743 8.51749C25.7149 11.0532 26.0799 13.9923 25.4004 16.7789C24.7209 19.5656 23.044 22.0067 20.6867 23.6407C18.3293 25.2748 15.455 25.9885 12.6071 25.647C9.75923 25.3054 7.13516 23.9323 5.23105 21.7872C3.32695 19.6421 2.27476 16.8737 2.27344 14.0054" stroke="#00E599" stroke-width="1.16667" stroke-miterlimit="10" stroke-linecap="round"/>
<path d="M3.1587 3.74414V8.6705L8.04688 8.06332" stroke="#00E599" stroke-width="1.16667" stroke-linecap="round" stroke-linejoin="round"/>
</svg>
