<svg width="18" height="18" viewBox="0 0 18 18" fill="none" xmlns="http://www.w3.org/2000/svg">
<path d="M14.25 15.7507H17.25V12.5084C17.2499 12.3586 17.2049 12.2122 17.1208 12.0881C17.0367 11.964 16.9174 11.868 16.7783 11.8124L13.9717 10.6874C13.8328 10.6319 13.7137 10.5361 13.6296 10.4124C13.5455 10.2886 13.5004 10.1425 13.5 9.99292V9.33442C13.9549 9.07338 14.333 8.69716 14.5963 8.2436C14.8596 7.79003 14.9989 7.27513 15 6.75067V5.25067C15.0001 4.72401 14.8616 4.20659 14.5983 3.75044C14.3351 3.29429 13.9564 2.91548 13.5003 2.65209C13.0442 2.38871 12.5268 2.25003 12.0002 2.25C11.4735 2.24997 10.9561 2.38859 10.5 2.65192" stroke="#494B50" stroke-width="1.2" stroke-miterlimit="10" stroke-linecap="square"/>
<path d="M10.7783 12.5618L7.97175 11.4368C7.83282 11.3812 7.71366 11.2855 7.62959 11.1617C7.54553 11.0379 7.5004 10.8919 7.5 10.7423V10.0838C7.95488 9.82271 8.33299 9.44649 8.59631 8.99292C8.85962 8.53936 8.99886 8.02446 9 7.5V6C9 5.20435 8.68393 4.44129 8.12132 3.87868C7.55871 3.31607 6.79565 3 6 3C5.20435 3 4.44129 3.31607 3.87868 3.87868C3.31607 4.44129 3 5.20435 3 6V7.5C3.00115 8.02446 3.14038 8.53936 3.4037 8.99292C3.66701 9.44649 4.04513 9.82271 4.5 10.0838V10.7423C4.49991 10.8921 4.45491 11.0385 4.37083 11.1626C4.28674 11.2866 4.16742 11.3827 4.02825 11.4383L1.22175 12.5633C1.08282 12.6188 0.963657 12.7145 0.879591 12.8383C0.795525 12.9621 0.750394 13.1081 0.75 13.2578V15.75H11.25V13.2578C11.2499 13.1079 11.2049 12.9615 11.1208 12.8374C11.0367 12.7134 10.9174 12.6174 10.7783 12.5618Z" stroke="#494B50" stroke-width="1.2" stroke-miterlimit="10" stroke-linecap="square"/>
</svg>
