<svg width="92" height="92" viewBox="0 0 92 92" fill="none" xmlns="http://www.w3.org/2000/svg">
<g filter="url(#filter0_i_20058_25090)">
<rect width="92" height="92" rx="22" fill="url(#paint0_radial_20058_25090)"/>
</g>
<mask id="mask0_20058_25090" style="mask-type:alpha" maskUnits="userSpaceOnUse" x="0" y="0" width="92" height="92">
<rect x="0.5" y="0.5" width="91" height="91" rx="21.5" stroke="white"/>
</mask>
<g mask="url(#mask0_20058_25090)">
<g opacity="0.5" filter="url(#filter1_f_20058_25090)">
<circle cx="46" cy="46" r="51" fill="white"/>
</g>
</g>
<g filter="url(#filter2_f_20058_25090)">
<circle cx="45.3008" cy="46" r="20" fill="white" fill-opacity="0.3"/>
</g>
<g clip-path="url(#clip0_20058_25090)">
<path d="M31.9282 44.5936C31.9282 45.4068 32.0601 46.0661 32.2139 46.5496C32.3897 47.0332 32.6095 47.5606 32.9172 48.1321C33.0271 48.3079 33.071 48.4837 33.071 48.6376C33.071 48.8573 32.9392 49.0771 32.6535 49.2969L31.2688 50.22C31.071 50.3518 30.8732 50.4178 30.6974 50.4178C30.4776 50.4178 30.2579 50.3079 30.0381 50.1101C29.7304 49.7804 29.4666 49.4288 29.2469 49.0771C29.0271 48.7035 28.8073 48.2859 28.5655 47.7804C26.8513 49.8024 24.6974 50.8134 22.104 50.8134C20.2579 50.8134 18.7853 50.2859 17.7084 49.231C16.6315 48.176 16.082 46.7694 16.082 45.0112C16.082 43.143 16.7414 41.6266 18.082 40.4837C19.4227 39.3408 21.2029 38.7694 23.4666 38.7694C24.2139 38.7694 24.9831 38.8354 25.7963 38.9452C26.6095 39.0551 27.4447 39.231 28.3238 39.4288V37.8244C28.3238 36.154 27.9721 34.9892 27.2908 34.3079C26.5875 33.6266 25.4007 33.2969 23.7084 33.2969C22.9392 33.2969 22.148 33.3848 21.3348 33.5826C20.5216 33.7804 19.7304 34.0222 18.9612 34.3299C18.6095 34.4837 18.3458 34.5716 18.1919 34.6156C18.0381 34.6595 17.9282 34.6815 17.8403 34.6815C17.5326 34.6815 17.3787 34.4617 17.3787 34.0002V32.9233C17.3787 32.5716 17.4227 32.3079 17.5326 32.154C17.6425 32.0002 17.8403 31.8463 18.148 31.6925C18.9172 31.2969 19.8403 30.9672 20.9172 30.7035C21.9941 30.4178 23.137 30.2859 24.3458 30.2859C26.9611 30.2859 28.8732 30.8793 30.104 32.0661C31.3128 33.2529 31.9282 35.0551 31.9282 37.4727V44.5936ZM23.0491 47.9343C23.7743 47.9343 24.5216 47.8024 25.3128 47.5386C26.104 47.2749 26.8073 46.7914 27.4007 46.1321C27.7524 45.7145 28.0161 45.2529 28.148 44.7255C28.2798 44.198 28.3677 43.5606 28.3677 42.8134V41.8903C27.7304 41.7365 27.0491 41.6046 26.3458 41.5167C25.6425 41.4288 24.9612 41.3848 24.2798 41.3848C22.8073 41.3848 21.7304 41.6705 21.0051 42.2639C20.2798 42.8573 19.9282 43.6925 19.9282 44.7914C19.9282 45.8244 20.1919 46.5936 20.7414 47.1211C21.2688 47.6705 22.0381 47.9343 23.0491 47.9343ZM40.6974 50.3079C40.3018 50.3079 40.0381 50.2419 39.8622 50.0881C39.6864 49.9562 39.5326 49.6485 39.4007 49.231L34.2359 32.2419C34.104 31.8024 34.0381 31.5167 34.0381 31.3628C34.0381 31.0112 34.2139 30.8134 34.5655 30.8134H36.7194C37.137 30.8134 37.4227 30.8793 37.5765 31.0332C37.7524 31.165 37.8842 31.4727 38.0161 31.8903L41.7084 46.4397L45.137 31.8903C45.2469 31.4507 45.3787 31.165 45.5546 31.0332C45.7304 30.9013 46.0381 30.8134 46.4337 30.8134H48.1919C48.6095 30.8134 48.8952 30.8793 49.071 31.0332C49.2469 31.165 49.4007 31.4727 49.4886 31.8903L52.9611 46.6156L56.7633 31.8903C56.8952 31.4507 57.0491 31.165 57.2029 31.0332C57.3787 30.9013 57.6644 30.8134 58.06 30.8134H60.104C60.4556 30.8134 60.6535 30.9892 60.6535 31.3628C60.6535 31.4727 60.6315 31.5826 60.6095 31.7145C60.5875 31.8463 60.5436 32.0222 60.4556 32.2639L55.1589 49.2529C55.0271 49.6925 54.8732 49.9782 54.6974 50.1101C54.5216 50.2419 54.2359 50.3299 53.8622 50.3299H51.9721C51.5546 50.3299 51.2688 50.2639 51.093 50.1101C50.9172 49.9562 50.7633 49.6705 50.6754 49.231L47.2688 35.0551L43.8842 49.209C43.7743 49.6485 43.6425 49.9343 43.4666 50.0881C43.2908 50.2419 42.9831 50.3079 42.5875 50.3079H40.6974ZM68.9392 50.9013C67.7963 50.9013 66.6534 50.7694 65.5545 50.5057C64.4556 50.2419 63.5985 49.9562 63.0271 49.6266C62.6754 49.4288 62.4337 49.209 62.3458 49.0112C62.2578 48.8134 62.2139 48.5936 62.2139 48.3958V47.2749C62.2139 46.8134 62.3897 46.5936 62.7194 46.5936C62.8513 46.5936 62.9831 46.6156 63.115 46.6595C63.2469 46.7035 63.4447 46.7914 63.6644 46.8793C64.4117 47.209 65.2249 47.4727 66.082 47.6485C66.9611 47.8244 67.8183 47.9123 68.6974 47.9123C70.082 47.9123 71.1589 47.6705 71.9062 47.187C72.6535 46.7035 73.049 46.0002 73.049 45.0991C73.049 44.4837 72.8512 43.9782 72.4556 43.5606C72.06 43.143 71.3128 42.7694 70.2359 42.4178L67.0491 41.4288C65.4447 40.9233 64.2578 40.176 63.5326 39.187C62.8073 38.22 62.4337 37.143 62.4337 36.0002C62.4337 35.0771 62.6315 34.2639 63.0271 33.5606C63.4227 32.8573 63.9501 32.2419 64.6095 31.7584C65.2688 31.2529 66.0161 30.8793 66.8952 30.6156C67.7743 30.3518 68.6974 30.2419 69.6644 30.2419C70.148 30.2419 70.6535 30.2639 71.137 30.3299C71.6425 30.3958 72.104 30.4837 72.5655 30.5716C73.0051 30.6815 73.4227 30.7914 73.8183 30.9233C74.2139 31.0551 74.5216 31.187 74.7414 31.3189C75.0491 31.4947 75.2688 31.6705 75.4007 31.8683C75.5326 32.0441 75.5985 32.2859 75.5985 32.5936V33.6266C75.5985 34.0881 75.4227 34.3299 75.093 34.3299C74.9172 34.3299 74.6315 34.2419 74.2578 34.0661C73.0051 33.4947 71.5985 33.209 70.0381 33.209C68.7853 33.209 67.7963 33.4068 67.115 33.8244C66.4337 34.2419 66.082 34.8793 66.082 35.7804C66.082 36.3958 66.3018 36.9233 66.7414 37.3408C67.1809 37.7584 67.9941 38.176 69.1589 38.5496L72.2798 39.5386C73.8622 40.0441 75.0051 40.7474 75.6864 41.6485C76.3677 42.5496 76.6974 43.5826 76.6974 44.7255C76.6974 45.6705 76.4996 46.5277 76.126 47.2749C75.7304 48.0222 75.2029 48.6815 74.5216 49.209C73.8403 49.7584 73.0271 50.154 72.082 50.4397C71.093 50.7474 70.06 50.9013 68.9392 50.9013Z" fill="white"/>
<path fill-rule="evenodd" clip-rule="evenodd" d="M73.0988 61.5825C65.868 66.9231 55.3625 69.7583 46.3295 69.7583C33.6702 69.7583 22.2636 65.077 13.6482 57.2967C12.9669 56.6814 13.5823 55.8462 14.3955 56.3297C23.7142 61.7363 35.2087 65.011 47.0988 65.011C55.1207 65.011 63.9339 63.3407 72.0438 59.9121C73.2526 59.3627 74.2856 60.7033 73.0988 61.5825Z" fill="#FF9900"/>
<path fill-rule="evenodd" clip-rule="evenodd" d="M76.1087 58.1539C75.1856 56.9671 69.9988 57.5824 67.6471 57.8682C66.9438 57.9561 66.8339 57.3407 67.4713 56.8791C71.6032 53.978 78.3944 54.8132 79.1856 55.7802C79.9768 56.7693 78.9658 63.5605 75.0977 66.8132C74.5043 67.3187 73.9328 67.055 74.1966 66.3956C75.0757 64.2198 77.0317 59.3187 76.1087 58.1539Z" fill="#FF9900"/>
</g>
<defs>
<filter id="filter0_i_20058_25090" x="-5" y="-5" width="97" height="97" filterUnits="userSpaceOnUse" color-interpolation-filters="sRGB">
<feFlood flood-opacity="0" result="BackgroundImageFix"/>
<feBlend mode="normal" in="SourceGraphic" in2="BackgroundImageFix" result="shape"/>
<feColorMatrix in="SourceAlpha" type="matrix" values="0 0 0 0 0 0 0 0 0 0 0 0 0 0 0 0 0 0 127 0" result="hardAlpha"/>
<feOffset dx="-5" dy="-5"/>
<feGaussianBlur stdDeviation="6"/>
<feComposite in2="hardAlpha" operator="arithmetic" k2="-1" k3="1"/>
<feColorMatrix type="matrix" values="0 0 0 0 0 0 0 0 0 0 0 0 0 0 0 0 0 0 0.08 0"/>
<feBlend mode="normal" in2="shape" result="effect1_innerShadow_20058_25090"/>
</filter>
<filter id="filter1_f_20058_25090" x="-23" y="-23" width="138" height="138" filterUnits="userSpaceOnUse" color-interpolation-filters="sRGB">
<feFlood flood-opacity="0" result="BackgroundImageFix"/>
<feBlend mode="normal" in="SourceGraphic" in2="BackgroundImageFix" result="shape"/>
<feGaussianBlur stdDeviation="9" result="effect1_foregroundBlur_20058_25090"/>
</filter>
<filter id="filter2_f_20058_25090" x="0.300781" y="1" width="90" height="90" filterUnits="userSpaceOnUse" color-interpolation-filters="sRGB">
<feFlood flood-opacity="0" result="BackgroundImageFix"/>
<feBlend mode="normal" in="SourceGraphic" in2="BackgroundImageFix" result="shape"/>
<feGaussianBlur stdDeviation="12.5" result="effect1_foregroundBlur_20058_25090"/>
</filter>
<radialGradient id="paint0_radial_20058_25090" cx="0" cy="0" r="1" gradientUnits="userSpaceOnUse" gradientTransform="translate(46) rotate(90) scale(92)">
<stop offset="0.549694" stop-color="#18191B"/>
<stop offset="1" stop-color="#131415"/>
</radialGradient>
<clipPath id="clip0_20058_25090">
<rect width="66.8132" height="40" fill="white" transform="translate(13 30)"/>
</clipPath>
</defs>
</svg>
