<svg width="92" height="92" viewBox="0 0 92 92" fill="none" xmlns="http://www.w3.org/2000/svg">
<g filter="url(#filter0_i_20058_25100)">
<rect width="92" height="92" rx="22" fill="url(#paint0_radial_20058_25100)"/>
</g>
<mask id="mask0_20058_25100" style="mask-type:alpha" maskUnits="userSpaceOnUse" x="0" y="0" width="92" height="92">
<rect x="0.5" y="0.5" width="91" height="91" rx="21.5" stroke="white"/>
</mask>
<g mask="url(#mask0_20058_25100)">
<g opacity="0.5" filter="url(#filter1_f_20058_25100)">
<circle cx="46" cy="46" r="51" fill="#00E599"/>
</g>
</g>
<g filter="url(#filter2_f_20058_25100)">
<circle cx="45.3008" cy="46" r="20" fill="#00E599" fill-opacity="0.3"/>
</g>
<path fill-rule="evenodd" clip-rule="evenodd" d="M25 32.2414C25 28.2421 28.2421 25 32.2414 25H59.7586C63.7579 25 67 28.2421 67 32.2414V55.6447C67 59.7823 61.7642 61.5779 59.2249 58.3113L51.2862 48.0991V60.4828C51.2862 64.0821 48.3683 67 44.769 67H32.2414C28.2421 67 25 63.7579 25 59.7586V32.2414ZM32.2414 30.7931C31.4415 30.7931 30.7931 31.4415 30.7931 32.2414V59.7586C30.7931 60.5585 31.4415 61.2069 32.2414 61.2069H44.9862C45.3861 61.2069 45.4931 60.8827 45.4931 60.4828V43.8763C45.4931 39.7388 50.7288 37.9431 53.2682 41.2097L61.2069 51.4219V32.2414C61.2069 31.4415 61.2826 30.7931 60.4828 30.7931H32.2414Z" fill="#12FFF7"/>
<path fill-rule="evenodd" clip-rule="evenodd" d="M25 32.2414C25 28.2421 28.2421 25 32.2414 25H59.7586C63.7579 25 67 28.2421 67 32.2414V55.6447C67 59.7823 61.7642 61.5779 59.2249 58.3113L51.2862 48.0991V60.4828C51.2862 64.0821 48.3683 67 44.769 67H32.2414C28.2421 67 25 63.7579 25 59.7586V32.2414ZM32.2414 30.7931C31.4415 30.7931 30.7931 31.4415 30.7931 32.2414V59.7586C30.7931 60.5585 31.4415 61.2069 32.2414 61.2069H44.9862C45.3861 61.2069 45.4931 60.8827 45.4931 60.4828V43.8763C45.4931 39.7388 50.7288 37.9431 53.2682 41.2097L61.2069 51.4219V32.2414C61.2069 31.4415 61.2826 30.7931 60.4828 30.7931H32.2414Z" fill="url(#paint1_linear_20058_25100)"/>
<path fill-rule="evenodd" clip-rule="evenodd" d="M25 32.2414C25 28.2421 28.2421 25 32.2414 25H59.7586C63.7579 25 67 28.2421 67 32.2414V55.6447C67 59.7823 61.7642 61.5779 59.2249 58.3113L51.2862 48.0991V60.4828C51.2862 64.0821 48.3683 67 44.769 67H32.2414C28.2421 67 25 63.7579 25 59.7586V32.2414ZM32.2414 30.7931C31.4415 30.7931 30.7931 31.4415 30.7931 32.2414V59.7586C30.7931 60.5585 31.4415 61.2069 32.2414 61.2069H44.9862C45.3861 61.2069 45.4931 60.8827 45.4931 60.4828V43.8763C45.4931 39.7388 50.7288 37.9431 53.2682 41.2097L61.2069 51.4219V32.2414C61.2069 31.4415 61.2826 30.7931 60.4828 30.7931H32.2414Z" fill="url(#paint2_linear_20058_25100)"/>
<path d="M59.7592 25C63.7585 25 67.0006 28.2421 67.0006 32.2414V55.6447C67.0006 59.7823 61.7648 61.5779 59.2255 58.3113L51.2868 48.0991V60.4828C51.2868 64.0821 48.3689 67 44.7695 67C45.1695 67 45.4937 66.6758 45.4937 66.2759V43.8763C45.4937 39.7388 50.7294 37.9431 53.2688 41.2097L61.2075 51.4219V26.4483C61.2075 25.6484 60.5591 25 59.7592 25Z" fill="#B9FFB3"/>
<defs>
<filter id="filter0_i_20058_25100" x="-5" y="-5" width="97" height="97" filterUnits="userSpaceOnUse" color-interpolation-filters="sRGB">
<feFlood flood-opacity="0" result="BackgroundImageFix"/>
<feBlend mode="normal" in="SourceGraphic" in2="BackgroundImageFix" result="shape"/>
<feColorMatrix in="SourceAlpha" type="matrix" values="0 0 0 0 0 0 0 0 0 0 0 0 0 0 0 0 0 0 127 0" result="hardAlpha"/>
<feOffset dx="-5" dy="-5"/>
<feGaussianBlur stdDeviation="6"/>
<feComposite in2="hardAlpha" operator="arithmetic" k2="-1" k3="1"/>
<feColorMatrix type="matrix" values="0 0 0 0 0 0 0 0 0 0 0 0 0 0 0 0 0 0 0.08 0"/>
<feBlend mode="normal" in2="shape" result="effect1_innerShadow_20058_25100"/>
</filter>
<filter id="filter1_f_20058_25100" x="-23" y="-23" width="138" height="138" filterUnits="userSpaceOnUse" color-interpolation-filters="sRGB">
<feFlood flood-opacity="0" result="BackgroundImageFix"/>
<feBlend mode="normal" in="SourceGraphic" in2="BackgroundImageFix" result="shape"/>
<feGaussianBlur stdDeviation="9" result="effect1_foregroundBlur_20058_25100"/>
</filter>
<filter id="filter2_f_20058_25100" x="0.300781" y="1" width="90" height="90" filterUnits="userSpaceOnUse" color-interpolation-filters="sRGB">
<feFlood flood-opacity="0" result="BackgroundImageFix"/>
<feBlend mode="normal" in="SourceGraphic" in2="BackgroundImageFix" result="shape"/>
<feGaussianBlur stdDeviation="12.5" result="effect1_foregroundBlur_20058_25100"/>
</filter>
<radialGradient id="paint0_radial_20058_25100" cx="0" cy="0" r="1" gradientUnits="userSpaceOnUse" gradientTransform="translate(46) rotate(90) scale(92)">
<stop offset="0.549694" stop-color="#18191B"/>
<stop offset="1" stop-color="#131415"/>
</radialGradient>
<linearGradient id="paint1_linear_20058_25100" x1="67" y1="67" x2="30.069" y2="25" gradientUnits="userSpaceOnUse">
<stop stop-color="#B9FFB3"/>
<stop offset="1" stop-color="#B9FFB3" stop-opacity="0"/>
</linearGradient>
<linearGradient id="paint2_linear_20058_25100" x1="67" y1="67" x2="42.0534" y2="57.2966" gradientUnits="userSpaceOnUse">
<stop stop-color="#1A1A1A" stop-opacity="0.9"/>
<stop offset="1" stop-color="#1A1A1A" stop-opacity="0"/>
</linearGradient>
</defs>
</svg>
