<svg width="80" height="80" viewBox="0 0 80 80" fill="none" xmlns="http://www.w3.org/2000/svg">
<rect width="80" height="80" rx="6" fill="#F0F075"/>
<path d="M12 20C12 17.7909 13.7909 16 16 16H60C62.2091 16 64 17.7909 64 20V64C64 66.2091 62.2091 68 60 68H16C13.7909 68 12 66.2091 12 64V20Z" fill="#FFA64C"/>
<path d="M17 16C17 14.3431 18.3431 13 20 13H64C65.6569 13 67 14.3431 67 16V60C67 61.6569 65.6569 63 64 63H20C18.3431 63 17 61.6569 17 60V16Z" fill="white" stroke="#1A1A1A" stroke-width="2"/>
<path d="M24 46H60" stroke="#1A1A1A" stroke-width="2" stroke-linecap="round"/>
<path d="M32 46V46C35.001 46 37.689 44.1432 38.7511 41.3365L40.0137 38C41.8357 33.1852 46.4467 30 51.5948 30H58" stroke="#1A1A1A" stroke-width="2" stroke-linecap="round"/>
<circle cx="26" cy="46" r="3" fill="white" stroke="#1A1A1A" stroke-width="2"/>
<circle cx="58" cy="30" r="3" fill="white" stroke="#1A1A1A" stroke-width="2"/>
<circle cx="58" cy="46" r="3" fill="white" stroke="#1A1A1A" stroke-width="2"/>
</svg>
