<svg width="80" height="80" viewBox="0 0 80 80" fill="none" xmlns="http://www.w3.org/2000/svg">
<rect width="80" height="80" rx="6" fill="#D9EEF2"/>
<path d="M12 20C12 17.7909 13.7909 16 16 16H60C62.2091 16 64 17.7909 64 20V64C64 66.2091 62.2091 68 60 68H16C13.7909 68 12 66.2091 12 64V20Z" fill="#00E599"/>
<path d="M17 16C17 14.3431 18.3431 13 20 13H64C65.6569 13 67 14.3431 67 16V60C67 61.6569 65.6569 63 64 63H20C18.3431 63 17 61.6569 17 60V16Z" fill="white" stroke="#1A1A1A" stroke-width="2"/>
<path d="M34.9423 27.8291C32.2897 29.3584 30.2363 31.7448 29.1199 34.5959C28.0035 37.447 27.8904 40.5932 28.7993 43.5171" stroke="#1A1A1A" stroke-width="2" stroke-miterlimit="10" stroke-linecap="round"/>
<path d="M51.6021 48.645C49.5316 50.9011 46.7531 52.383 43.7261 52.8456C40.6991 53.3082 37.6049 52.7238 34.9551 51.189" stroke="#1A1A1A" stroke-width="2" stroke-miterlimit="10" stroke-linecap="round"/>
<path d="M55.1922 39.4999C55.1906 36.4361 54.1469 33.464 52.2325 31.0719C50.3182 28.6798 47.6471 27.01 44.6582 26.3369" stroke="#1A1A1A" stroke-width="2" stroke-miterlimit="10" stroke-linecap="round"/>
<path d="M44 26C44 27.6569 42.6569 29 41 29C39.3431 29 38 27.6569 38 26C38 24.3431 39.3431 23 41 23C42.6569 23 44 24.3431 44 26Z" fill="white" stroke="#1A1A1A" stroke-width="2"/>
<path d="M33 46C33 47.6569 31.6569 49 30 49C28.3431 49 27 47.6569 27 46C27 44.3431 28.3431 43 30 43C31.6569 43 33 44.3431 33 46Z" fill="white" stroke="#1A1A1A" stroke-width="2"/>
<path d="M56 46C56 47.6569 54.6569 49 53 49C51.3431 49 50 47.6569 50 46C50 44.3431 51.3431 43 53 43C54.6569 43 56 44.3431 56 46Z" fill="white" stroke="#1A1A1A" stroke-width="2"/>
</svg>
