<svg width="28" height="28" viewBox="0 0 28 28" fill="none" xmlns="http://www.w3.org/2000/svg">
<path d="M9.27246 3.36364V1" stroke="currentColor" stroke-miterlimit="10" stroke-linecap="round"/>
<path d="M18.7275 3.36364V1" stroke="currentColor" stroke-miterlimit="10" stroke-linecap="round"/>
<path d="M14 3.36364V1" stroke="currentColor" stroke-miterlimit="10" stroke-linecap="round"/>
<path d="M26.9999 18.7275H24.6362" stroke="currentColor" stroke-miterlimit="10" stroke-linecap="round"/>
<path d="M26.9999 9.27246H24.6362" stroke="currentColor" stroke-miterlimit="10" stroke-linecap="round"/>
<path d="M26.9999 14H24.6362" stroke="currentColor" stroke-miterlimit="10" stroke-linecap="round"/>
<path d="M3.36364 18.7275H1" stroke="currentColor" stroke-miterlimit="10" stroke-linecap="round"/>
<path d="M3.36364 9.27246H1" stroke="currentColor" stroke-miterlimit="10" stroke-linecap="round"/>
<path d="M3.36364 14H1" stroke="currentColor" stroke-miterlimit="10" stroke-linecap="round"/>
<path d="M9.27246 26.9999V24.6362" stroke="currentColor" stroke-miterlimit="10" stroke-linecap="round"/>
<path d="M18.7275 26.9999V24.6362" stroke="currentColor" stroke-miterlimit="10" stroke-linecap="round"/>
<path d="M14 26.9999V24.6362" stroke="currentColor" stroke-miterlimit="10" stroke-linecap="round"/>
<path d="M22.2729 3.36377H5.72741C4.42201 3.36377 3.36377 4.42201 3.36377 5.72741V22.2729C3.36377 23.5783 4.42201 24.6365 5.72741 24.6365H22.2729C23.5783 24.6365 24.6365 23.5783 24.6365 22.2729V5.72741C24.6365 4.42201 23.5783 3.36377 22.2729 3.36377Z" stroke="currentColor" stroke-miterlimit="10" stroke-linecap="square"/>
<path d="M12.4776 9.75L15.7055 18.425H15.1047L14.2607 16.0797L14.1417 15.749H13.7902H10.1055H9.75143L9.63387 16.083L8.80943 18.425H8.22006L11.4547 9.75H11.6668L11.4771 10.4794L11.4771 10.4794L11.4771 10.4794L11.4771 10.4795L11.4769 10.4801L11.4763 10.4824L11.4738 10.4922L11.4638 10.5302C11.455 10.5634 11.4422 10.6117 11.4262 10.6714C11.3942 10.791 11.3493 10.9564 11.2981 11.1395C11.194 11.5108 11.0684 11.9376 10.9704 12.2079L10.9704 12.2079L10.9681 12.2146L10.0981 14.7256L9.86823 15.3889L10.5702 15.3892L13.3752 15.3907L14.0756 15.3911L13.8485 14.7286L12.9485 12.1036L12.9461 12.0966L12.9435 12.0897C12.883 11.929 12.7952 11.6642 12.6786 11.2877C12.6219 11.1043 12.5631 10.9011 12.5182 10.7425C12.4959 10.6634 12.4771 10.5961 12.464 10.5485L12.4487 10.4932L12.4448 10.4787L12.4438 10.4751L12.4435 10.4742L12.4435 10.4741L12.4435 10.474L12.4435 10.474L12.2466 9.75H12.4776Z" fill="#212121" stroke="currentColor"/>
<path d="M18.2754 18.4253V9.79004H18.7754V18.4253H18.2754Z" fill="#212121" stroke="currentColor"/>
</svg>
