<svg width="16" height="15" viewBox="0 0 16 15" fill="none" xmlns="http://www.w3.org/2000/svg">
<path d="M7.9999 12.4002C8.33127 12.4002 8.5999 12.1316 8.5999 11.8002C8.5999 11.4688 8.33127 11.2002 7.9999 11.2002C7.66853 11.2002 7.3999 11.4688 7.3999 11.8002C7.3999 12.1316 7.66853 12.4002 7.9999 12.4002Z" fill="#FF4C79"/>
<path d="M8 5V10" stroke="#FF4C79" stroke-linecap="round" stroke-linejoin="round"/>
<path d="M1.13196 12.3884L7.02547 1.57491C7.12026 1.4011 7.26091 1.25588 7.43248 1.15466C7.60406 1.05344 7.80017 1 8 1C8.19983 1 8.39594 1.05344 8.56752 1.15466C8.73909 1.25588 8.87973 1.4011 8.97452 1.57491L14.868 12.3884C14.9587 12.555 15.004 12.742 14.9997 12.9311C14.9954 13.1201 14.9415 13.3049 14.8433 13.4672C14.7451 13.6296 14.606 13.764 14.4395 13.8574C14.2731 13.9508 14.0849 13.9999 13.8935 14H2.10649C1.91506 13.9999 1.72692 13.9508 1.56045 13.8574C1.39398 13.764 1.25487 13.6296 1.15668 13.4672C1.0585 13.3049 1.00462 13.1201 1.00028 12.9311C0.995951 12.742 1.04132 12.555 1.13196 12.3884Z" stroke="#FF4C79" stroke-linecap="round" stroke-linejoin="round"/>
</svg>
