<svg width="16" height="16" viewBox="0 0 16 16" fill="none" xmlns="http://www.w3.org/2000/svg">
<path d="M8 10.5C9.38071 10.5 10.5 9.38071 10.5 8C10.5 6.61929 9.38071 5.5 8 5.5C6.61929 5.5 5.5 6.61929 5.5 8C5.5 9.38071 6.61929 10.5 8 10.5Z" stroke="currentColor" stroke-linecap="round" stroke-linejoin="round"/>
<path d="M2.5 4.5C3.60457 4.5 4.5 3.60457 4.5 2.5C4.5 1.39543 3.60457 0.5 2.5 0.5C1.39543 0.5 0.5 1.39543 0.5 2.5C0.5 3.60457 1.39543 4.5 2.5 4.5Z" stroke="currentColor" stroke-linecap="round" stroke-linejoin="round"/>
<path d="M13.5 4.5C14.6046 4.5 15.5 3.60457 15.5 2.5C15.5 1.39543 14.6046 0.5 13.5 0.5C12.3954 0.5 11.5 1.39543 11.5 2.5C11.5 3.60457 12.3954 4.5 13.5 4.5Z" stroke="currentColor" stroke-linecap="round" stroke-linejoin="round"/>
<path d="M2.5 15.5C3.60457 15.5 4.5 14.6046 4.5 13.5C4.5 12.3954 3.60457 11.5 2.5 11.5C1.39543 11.5 0.5 12.3954 0.5 13.5C0.5 14.6046 1.39543 15.5 2.5 15.5Z" stroke="currentColor" stroke-linecap="round" stroke-linejoin="round"/>
<path d="M13.5 15.5C14.6046 15.5 15.5 14.6046 15.5 13.5C15.5 12.3954 14.6046 11.5 13.5 11.5C12.3954 11.5 11.5 12.3954 11.5 13.5C11.5 14.6046 12.3954 15.5 13.5 15.5Z" stroke="currentColor" stroke-linecap="round" stroke-linejoin="round"/>
<path d="M2.5 4.5V8.5" stroke="currentColor" stroke-linecap="round" stroke-linejoin="round"/>
<path d="M4.5 13.5H8.5" stroke="currentColor" stroke-linecap="round" stroke-linejoin="round"/>
<path d="M13.5 11.5V7.5" stroke="currentColor" stroke-linecap="round" stroke-linejoin="round"/>
<path d="M11.5 2.5H7.5" stroke="currentColor" stroke-linecap="round" stroke-linejoin="round"/>
</svg>
