<svg width="14" height="14" viewBox="0 0 14 14" fill="none" xmlns="http://www.w3.org/2000/svg">
<path d="M11.7459 7.98766C11.0083 7.57668 10.1672 7.38858 9.3248 7.44621C8.48236 7.50383 7.67475 7.80469 6.99994 8.31229C6.3152 8.82559 5.49465 9.12623 4.64038 9.1768C3.7861 9.22736 2.93582 9.02561 2.19531 8.59666" stroke="currentColor" stroke-width="0.8" stroke-linecap="round" stroke-linejoin="round"/>
<path d="M3.9375 0.4375H10.0625" stroke="currentColor" stroke-width="0.8" stroke-linecap="round" stroke-linejoin="round"/>
<path d="M9.1875 4.46688V0.4375H4.8125V4.46688C3.84988 4.95811 3.08062 5.75906 2.62862 6.74072C2.17663 7.72239 2.06821 8.82761 2.32082 9.8784C2.57344 10.9292 3.17239 11.8643 4.0212 12.5333C4.87002 13.2022 5.91928 13.566 7 13.566C8.08073 13.566 9.12999 13.2022 9.9788 12.5333C10.8276 11.8643 11.4266 10.9292 11.6792 9.8784C11.9318 8.82761 11.8234 7.72239 11.3714 6.74072C10.9194 5.75906 10.1501 4.95811 9.1875 4.46688Z" stroke="currentColor" stroke-width="0.8" stroke-linecap="round" stroke-linejoin="round"/>
</svg>
