<svg width="20" height="20" viewBox="0 0 20 20" fill="none" xmlns="http://www.w3.org/2000/svg">
<path d="M18.4781 10.0006C18.4781 9.89027 18.4477 9.78208 18.3902 9.68792C18.3327 9.59376 18.2504 9.51727 18.1523 9.46686L2.45443 1.40581C2.35135 1.35266 2.23507 1.33052 2.11967 1.34208C2.00426 1.35364 1.89468 1.39839 1.80419 1.47093C1.71369 1.54347 1.64616 1.64069 1.60976 1.75081C1.57337 1.86093 1.56967 1.97924 1.59912 2.09142L3.35006 8.74603L10.2414 10.0006L3.35006 11.2551L1.60166 17.9072C1.57445 18.0087 1.5744 18.1156 1.6015 18.2172C1.62861 18.3188 1.68192 18.4114 1.75609 18.4859C1.7714 18.5012 1.78755 18.5157 1.80446 18.5292C1.89482 18.6018 2.0043 18.6467 2.11965 18.6585C2.235 18.6702 2.35128 18.6483 2.45443 18.5954L18.1523 10.5343C18.2504 10.4839 18.3327 10.4074 18.3902 10.3133C18.4477 10.2191 18.4781 10.1109 18.4781 10.0006Z" fill="#E4E5E7"/>
</svg>
