<svg width="56" height="56" viewBox="0 0 56 56" fill="none" xmlns="http://www.w3.org/2000/svg">
<g clip-path="url(#clip0_24894_25353)">
<rect x="51.959" y="8.08203" width="5.71538" height="5.71538" rx="2.85769" transform="rotate(-135 51.959 8.08203)" fill="white"/>
<rect x="39.2578" y="8.08203" width="5.71538" height="5.71538" rx="2.85769" transform="rotate(-135 39.2578 8.08203)" fill="white"/>
<rect x="45.6094" y="14.4297" width="5.71538" height="5.71538" rx="2.85769" transform="rotate(-135 45.6094 14.4297)" fill="white"/>
<rect x="51.959" y="20.7812" width="5.71538" height="5.71538" rx="2.85769" transform="rotate(-135 51.959 20.7812)" fill="white"/>
<rect x="26.5566" y="8.07812" width="5.71538" height="5.71538" rx="2.85769" transform="rotate(-135 26.5566 8.07812)" fill="white"/>
<rect x="32.9082" y="13.2773" width="4.08241" height="4.08241" rx="2.04121" transform="rotate(-135 32.9082 13.2773)" fill="white"/>
<rect x="39.2578" y="19.625" width="4.08241" height="4.08241" rx="2.04121" transform="rotate(-135 39.2578 19.625)" fill="white"/>
<rect x="45.6094" y="25.9766" width="4.08241" height="4.08241" rx="2.04121" transform="rotate(-135 45.6094 25.9766)" fill="white"/>
<rect x="51.9609" y="33.4805" width="5.71538" height="5.71538" rx="2.85769" transform="rotate(-135 51.9609 33.4805)" fill="white"/>
<rect x="20.207" y="13.2773" width="4.08241" height="4.08241" rx="2.04121" transform="rotate(-135 20.207 13.2773)" fill="white"/>
<rect x="26.5566" y="19.0508" width="3.26593" height="3.26593" rx="1.63297" transform="rotate(-135 26.5566 19.0508)" fill="white"/>
<rect x="32.9082" y="25.9766" width="4.08241" height="4.08241" rx="2.04121" transform="rotate(-135 32.9082 25.9766)" fill="white"/>
<rect x="39.2578" y="31.75" width="3.26593" height="3.26593" rx="1.63297" transform="rotate(-135 39.2578 31.75)" fill="white"/>
<rect x="45.6094" y="38.6797" width="4.08241" height="4.08241" rx="2.04121" transform="rotate(-135 45.6094 38.6797)" fill="white"/>
<rect x="13.8555" y="19.0508" width="3.26593" height="3.26593" rx="1.63297" transform="rotate(-135 13.8555 19.0508)" fill="white"/>
<rect x="20.207" y="24.8242" width="2.44945" height="2.44945" rx="1.22472" transform="rotate(-135 20.207 24.8242)" fill="white"/>
<rect x="26.5566" y="31.75" width="3.26593" height="3.26593" rx="1.63297" transform="rotate(-135 26.5566 31.75)" fill="white"/>
<rect x="32.9082" y="37.5234" width="2.44945" height="2.44945" rx="1.22472" transform="rotate(-135 32.9082 37.5234)" fill="white"/>
<rect x="39.2578" y="44.4492" width="3.26593" height="3.26593" rx="1.63297" transform="rotate(-135 39.2578 44.4492)" fill="white"/>
<rect x="7.50586" y="24.8242" width="2.44945" height="2.44945" rx="1.22472" transform="rotate(-135 7.50586 24.8242)" fill="white"/>
<rect x="13.8555" y="30.5938" width="1.63297" height="1.63297" rx="0.816483" transform="rotate(-135 13.8555 30.5938)" fill="white"/>
<rect x="20.207" y="37.5234" width="2.44945" height="2.44945" rx="1.22472" transform="rotate(-135 20.207 37.5234)" fill="white"/>
<rect x="26.5566" y="43.2969" width="1.63297" height="1.63297" rx="0.816483" transform="rotate(-135 26.5566 43.2969)" fill="white"/>
<rect x="32.9082" y="50.2266" width="2.44945" height="2.44945" rx="1.22472" transform="rotate(-135 32.9082 50.2266)" fill="white"/>
<rect x="1.1543" y="30.5938" width="1.63297" height="1.63297" rx="0.816483" transform="rotate(-135 1.1543 30.5938)" fill="white"/>
<rect x="13.8555" y="43.2969" width="1.63297" height="1.63297" rx="0.816483" transform="rotate(-135 13.8555 43.2969)" fill="white"/>
<rect x="26.5566" y="56" width="1.63297" height="1.63297" rx="0.816483" transform="rotate(-135 26.5566 56)" fill="white"/>
</g>
<defs>
<clipPath id="clip0_24894_25353">
<rect width="56" height="56" fill="white"/>
</clipPath>
</defs>
</svg>
