<svg width="32" height="32" viewBox="0 0 32 32" fill="none" xmlns="http://www.w3.org/2000/svg">
<g clip-path="url(#clip0_372_2420)">
<path d="M31.2332 23.6952V18.0571L30.6246 17.6762L16.0179 25.6762L2.17202 18.0571V14.781L16.0179 22.3238L31.3093 14.019V8.45714L30.7007 8.07619L16.0179 16.1524L2.70455 8.8381L16.0179 1.52381L26.7447 7.39048L27.5816 6.93333V6.32381L16.0179 0L0.726562 8.30476V9.14286L16.0179 17.5238L29.8639 9.90476V13.2571L16.0179 20.8762L1.33517 12.8L0.726562 13.181V18.819L16.0179 27.1238L29.8639 19.581V22.8571L16.0179 30.4762L1.33517 22.4762L0.726562 22.8571V23.6952L16.0179 32L31.2332 23.6952Z" fill="#FF3621"/>
</g>
<defs>
<clipPath id="clip0_372_2420">
<rect width="32" height="32" fill="white"/>
</clipPath>
</defs>
</svg>
