<svg width="32" height="32" viewBox="0 0 32 32" fill="none" xmlns="http://www.w3.org/2000/svg">
<path d="M4.33398 20.6719V27.0052C4.33398 29.2052 9.73398 31.0052 16.334 31.0052C22.934 31.0052 28.334 29.2052 28.334 27.0052V20.6719" stroke="#FF3621" stroke-width="1.45455" stroke-miterlimit="10" stroke-linecap="round"/>
<path d="M4.33398 9.67188V16.0052M28.334 16.0052V9.67188" stroke="#FF3621" stroke-width="1.45455" stroke-miterlimit="10" stroke-linecap="round"/>
<path d="M16.334 9.67188C22.9614 9.67188 28.334 7.88101 28.334 5.67188C28.334 3.46274 22.9614 1.67188 16.334 1.67188C9.70657 1.67188 4.33398 3.46274 4.33398 5.67188C4.33398 7.88101 9.70657 9.67188 16.334 9.67188Z" stroke="#FF3621" stroke-width="1.45455" stroke-miterlimit="10" stroke-linecap="square"/>
<path d="M28.334 16.3438C28.334 18.5438 22.934 20.3438 16.334 20.3438C9.73398 20.3438 4.33398 18.5438 4.33398 16.3438" stroke="#FF3621" stroke-width="1.45455" stroke-miterlimit="10" stroke-linecap="square"/>
</svg>
