<svg width="56" height="56" viewBox="0 0 56 56" fill="none" xmlns="http://www.w3.org/2000/svg">
<rect x="15.5176" y="6.04688" width="3.44355" height="3.44355" rx="1.72177" transform="rotate(180 15.5176 6.04688)" fill="white"/>
<rect x="26.2793" y="7.33594" width="6.02621" height="6.02621" rx="3.0131" transform="rotate(180 26.2793 7.33594)" fill="white"/>
<rect x="35.75" y="7.33594" width="6.02621" height="6.02621" rx="3.0131" transform="rotate(180 35.75 7.33594)" fill="white"/>
<rect x="43.9277" y="6.04688" width="3.44355" height="3.44355" rx="1.72177" transform="rotate(180 43.9277 6.04688)" fill="white"/>
<rect x="6.04883" y="15.5156" width="3.44355" height="3.44355" rx="1.72177" transform="rotate(180 6.04883 15.5156)" fill="white"/>
<rect x="16.8105" y="16.8047" width="6.02621" height="6.02621" rx="3.0131" transform="rotate(180 16.8105 16.8047)" fill="white"/>
<rect x="24.9883" y="15.5156" width="3.44355" height="3.44355" rx="1.72177" transform="rotate(180 24.9883 15.5156)" fill="white"/>
<rect x="34.457" y="15.5156" width="3.44355" height="3.44355" rx="1.72177" transform="rotate(180 34.457 15.5156)" fill="white"/>
<rect x="45.2188" y="16.8047" width="6.02621" height="6.02621" rx="3.0131" transform="rotate(180 45.2188 16.8047)" fill="white"/>
<rect x="53.3984" y="15.5156" width="3.44355" height="3.44355" rx="1.72177" transform="rotate(180 53.3984 15.5156)" fill="white"/>
<rect x="7.33984" y="26.2734" width="6.02621" height="6.02621" rx="3.0131" transform="rotate(180 7.33984 26.2734)" fill="white"/>
<rect x="15.5176" y="24.9844" width="3.44355" height="3.44355" rx="1.72177" transform="rotate(180 15.5176 24.9844)" fill="white"/>
<rect x="24.1289" y="24.125" width="1.72177" height="1.72177" rx="0.860887" transform="rotate(180 24.1289 24.125)" fill="white"/>
<rect x="33.5977" y="24.125" width="1.72177" height="1.72177" rx="0.860887" transform="rotate(180 33.5977 24.125)" fill="white"/>
<rect x="43.9277" y="24.9844" width="3.44355" height="3.44355" rx="1.72177" transform="rotate(180 43.9277 24.9844)" fill="white"/>
<rect x="54.6875" y="26.2734" width="6.02621" height="6.02621" rx="3.0131" transform="rotate(180 54.6875 26.2734)" fill="white"/>
<rect x="7.33984" y="35.7422" width="6.02621" height="6.02621" rx="3.0131" transform="rotate(180 7.33984 35.7422)" fill="white"/>
<rect x="15.5176" y="34.4531" width="3.44355" height="3.44355" rx="1.72177" transform="rotate(180 15.5176 34.4531)" fill="white"/>
<rect x="24.1289" y="33.5938" width="1.72177" height="1.72177" rx="0.860887" transform="rotate(180 24.1289 33.5938)" fill="white"/>
<rect x="33.5977" y="33.5938" width="1.72177" height="1.72177" rx="0.860887" transform="rotate(180 33.5977 33.5938)" fill="white"/>
<rect x="43.9277" y="34.4531" width="3.44355" height="3.44355" rx="1.72177" transform="rotate(180 43.9277 34.4531)" fill="white"/>
<rect x="54.6875" y="35.7422" width="6.02621" height="6.02621" rx="3.0131" transform="rotate(180 54.6875 35.7422)" fill="white"/>
<rect x="6.04883" y="43.9219" width="3.44355" height="3.44355" rx="1.72177" transform="rotate(180 6.04883 43.9219)" fill="white"/>
<rect x="16.8105" y="45.2109" width="6.02621" height="6.02621" rx="3.0131" transform="rotate(180 16.8105 45.2109)" fill="white"/>
<rect x="24.9883" y="43.9219" width="3.44355" height="3.44355" rx="1.72177" transform="rotate(180 24.9883 43.9219)" fill="white"/>
<rect x="34.457" y="43.9219" width="3.44355" height="3.44355" rx="1.72177" transform="rotate(180 34.457 43.9219)" fill="white"/>
<rect x="45.2188" y="45.2109" width="6.02621" height="6.02621" rx="3.0131" transform="rotate(180 45.2188 45.2109)" fill="white"/>
<rect x="53.3984" y="43.9219" width="3.44355" height="3.44355" rx="1.72177" transform="rotate(180 53.3984 43.9219)" fill="white"/>
<rect x="15.5176" y="53.3906" width="3.44355" height="3.44355" rx="1.72177" transform="rotate(180 15.5176 53.3906)" fill="white"/>
<rect x="26.2793" y="54.6875" width="6.02621" height="6.02621" rx="3.0131" transform="rotate(180 26.2793 54.6875)" fill="white"/>
<rect x="35.75" y="54.6875" width="6.02621" height="6.02621" rx="3.0131" transform="rotate(180 35.75 54.6875)" fill="white"/>
<rect x="43.9277" y="53.3906" width="3.44355" height="3.44355" rx="1.72177" transform="rotate(180 43.9277 53.3906)" fill="white"/>
</svg>
