<svg width="115" height="32" viewBox="0 0 115 32" fill="none" xmlns="http://www.w3.org/2000/svg">
<path d="M48.3322 17.0137L54.3135 9.24655H50.6418L45.1 16.3059V9.24582H41.9128V25.2371H45.1V17.7455L50.8732 25.2386H54.5449L48.3329 17.0145L48.3322 17.0137ZM67.0911 23.8215C68.2684 22.6567 68.8695 21.2179 68.8695 19.5267C68.8695 17.8369 68.2684 16.4198 67.0911 15.2551C65.913 14.0896 64.4584 13.4957 62.7499 13.4957C61.0407 13.4957 59.5861 14.0903 58.408 15.2551C57.2307 16.4198 56.6529 17.8369 56.6529 19.5267C56.6529 21.2172 57.2307 22.6567 58.408 23.8215C59.5861 24.9869 61.0407 25.5576 62.7499 25.5576C64.4584 25.5576 65.913 24.9869 67.0911 23.8215ZM60.5095 21.7886C59.9324 21.194 59.6319 20.4404 59.6319 19.5267C59.6319 18.6129 59.9324 17.8586 60.5095 17.2654C61.1098 16.6707 61.8484 16.3741 62.7499 16.3741C63.65 16.3741 64.3893 16.6714 64.9896 17.2654C65.5899 17.8594 65.8905 18.6129 65.8905 19.5267C65.8905 20.4404 65.5899 21.1947 64.9896 21.7886C64.3893 22.3826 63.6507 22.6792 62.7499 22.6792C61.8491 22.6792 61.1098 22.3819 60.5095 21.7886ZM77.7876 21.4913L74.786 13.8155H71.5298L76.2639 24.8723C75.7094 26.4257 74.8319 27.0886 73.2383 27.0654V29.8068C76.1948 29.9663 78.134 28.5275 79.3353 25.2378L83.5375 13.8155H80.3511L77.7876 21.4913ZM98.036 20.7371C98.1059 20.3034 98.1517 19.9154 98.1517 19.5267C98.1517 17.8137 97.598 16.3973 96.489 15.2319C95.4041 14.0671 93.9953 13.4957 92.3101 13.4957C90.5317 13.4957 89.0539 14.0671 87.9224 15.2319C86.7909 16.3741 86.2131 17.8137 86.2131 19.5267C86.2131 21.2628 86.7909 22.7024 87.9456 23.8447C89.0997 24.9869 90.6241 25.5576 92.5408 25.5576C94.7579 25.5576 96.4432 24.7352 97.5747 23.1136L95.1734 21.743C94.5957 22.4972 93.7181 22.8852 92.5866 22.8852C90.809 22.8852 89.7233 22.1766 89.3311 20.7378L98.036 20.7371ZM89.2845 18.4526C89.6309 16.9913 90.7165 16.1464 92.3101 16.1464C93.6723 16.1464 94.8271 16.8999 95.1734 18.4526H89.2845ZM109.262 13.4957C107.645 13.4957 106.397 14.0439 105.52 15.1637V9.24582H102.542V25.2371H105.52V23.8896C106.397 25.0087 107.645 25.5576 109.262 25.5576C110.809 25.5576 112.148 24.9862 113.233 23.8207C114.341 22.656 114.896 21.2172 114.896 19.5259C114.896 17.8361 114.341 16.4191 113.233 15.2543C112.148 14.0889 110.809 13.4957 109.262 13.4957ZM106.421 21.8575C105.82 21.2404 105.52 20.4636 105.52 19.5267C105.52 18.5904 105.82 17.8137 106.421 17.2197C107.021 16.6033 107.784 16.3059 108.707 16.3059C109.63 16.3059 110.393 16.6033 110.993 17.2197C111.617 17.8137 111.917 18.5904 111.917 19.5267C111.917 20.4636 111.617 21.2404 110.993 21.8568C110.393 22.4515 109.63 22.7481 108.707 22.7481C107.784 22.7481 107.021 22.4508 106.421 21.8568V21.8575ZM15.5347 7.41607L31.0883 16.2762V8.88321L15.5245 0.0136719L0 8.89336V16.2965L15.5347 7.4168V7.41607Z" fill="black"/>
<path d="M28.6004 25.1877L31.089 23.7408V19.2016L15.5245 10.3227L0 19.2016V23.7604L2.48857 25.1877L15.5245 17.7251L28.6004 25.1877Z" fill="black"/>
<path d="M15.5356 28.2189L19.486 30.4737L25.9745 26.7815L15.5254 20.8158L5.11631 26.7823L11.6048 30.4737L15.5356 28.2189Z" fill="black"/>
</svg>
