<svg width="111" height="32" viewBox="0 0 111 32" fill="none" xmlns="http://www.w3.org/2000/svg">
<mask id="mask0_32146_59445" style="mask-type:luminance" maskUnits="userSpaceOnUse" x="0" y="5" width="110" height="22">
<path d="M110 5H0V27H110V5Z" fill="white"/>
</mask>
<g mask="url(#mask0_32146_59445)">
<path d="M46.8443 26.5386H42.8345L34.0725 17.3078H32.439V26.5386H29.4688V5H39.4189C43.6067 5 46.1018 7.30771 46.1018 11.1539C46.1018 15.0001 43.6067 17.3078 39.4189 17.3078H37.9338L46.8443 26.5386ZM43.1316 11.1539C43.1316 8.96925 41.9434 7.6154 39.4189 7.6154H32.439V14.6924H39.4189C41.9434 14.6924 43.1316 13.3385 43.1316 11.1539Z" fill="black"/>
<path d="M54.449 27.0013C49.6968 27.0013 46.7266 23.3397 46.7266 18.5397C46.7266 13.7397 49.6968 10.0781 54.3008 10.0781C58.0135 10.0781 60.2413 12.232 61.2213 15.432C61.5776 16.632 61.7262 17.9551 61.7262 19.309V19.6167H49.578C49.6674 22.2013 51.5086 24.6936 54.449 24.6936C56.9739 24.6936 58.1323 23.1859 58.3698 22.0782H61.429C60.7164 24.6936 58.34 27.0013 54.449 27.0013ZM49.578 17.3089H58.8747C58.7262 14.5397 57.3004 12.3859 54.3008 12.3859C51.3008 12.3859 49.6674 14.6935 49.578 17.3089Z" fill="black"/>
<path d="M61.6016 13.3531V10.8916H65.3142V7.19922H68.1656V10.8916H72.1754V13.3531H68.1656V23.0455C68.1656 24.1224 68.4624 24.4916 69.502 24.4916H72.1754V26.8916H68.9081C66.2052 26.8916 65.3142 25.507 65.3142 23.0455V13.3531H61.6016Z" fill="black"/>
<path d="M80.6445 10.0781C85.3971 10.0781 88.5155 13.7397 88.5155 18.5397C88.5155 23.3397 85.3971 27.0013 80.6445 27.0013C75.8922 27.0013 72.7734 23.3397 72.7734 18.5397C72.7734 13.7397 75.8922 10.0781 80.6445 10.0781ZM80.6445 12.5397C77.4073 12.5397 75.6249 15.3089 75.6249 18.5397C75.6249 21.7705 77.4073 24.5397 80.6445 24.5397C83.882 24.5397 85.6641 21.7705 85.6641 18.5397C85.6641 15.3089 83.882 12.5397 80.6445 12.5397Z" fill="black"/>
<path d="M97.6519 10.0781C102.405 10.0781 105.523 13.7397 105.523 18.5397C105.523 23.3397 102.405 27.0013 97.6519 27.0013C92.8996 27.0013 89.7812 23.3397 89.7812 18.5397C89.7812 13.7397 92.8996 10.0781 97.6519 10.0781ZM97.6519 12.5397C94.4147 12.5397 92.6323 15.3089 92.6323 18.5397C92.6323 21.7705 94.4147 24.5397 97.6519 24.5397C100.889 24.5397 102.672 21.7705 102.672 18.5397C102.672 15.3089 100.889 12.5397 97.6519 12.5397Z" fill="black"/>
<path d="M110.023 5V26.5386H107.172V5H110.023Z" fill="black"/>
<path d="M13.0612 6.00956C13.0612 5.452 12.6227 5 12.0816 5H0.979592C0.43858 5 0 5.452 0 6.00956V10.7208C0 11.2784 0.43858 11.7304 0.979592 11.7304H12.0816C12.6227 11.7304 13.0612 12.1824 13.0612 12.74V14.086C13.0612 14.6436 12.6227 15.0956 12.0816 15.0956H4.89796C4.35694 15.0956 3.91837 15.5476 3.91837 16.1052V20.8164C3.91837 21.374 4.35694 21.826 4.89796 21.826H12.0816C12.6227 21.826 13.0612 22.278 13.0612 22.8356V25.5277C13.0612 26.0853 13.4998 26.5373 14.0408 26.5373H18.6122C19.1533 26.5373 19.5918 26.0853 19.5918 25.5277V20.8164C19.5918 20.2589 19.1533 19.8069 18.6122 19.8069H14.0408C13.4998 19.8069 13.0612 19.3549 13.0612 18.7973V17.4512C13.0612 16.8937 13.4998 16.4417 14.0408 16.4417H18.6122C19.1533 16.4417 19.5918 15.9897 19.5918 15.4321V10.7208C19.5918 10.1633 19.1533 9.71128 18.6122 9.71128H14.0408C13.4998 9.71128 13.0612 9.25929 13.0612 8.70172V6.00956Z" fill="black"/>
</g>
</svg>
