<svg width="105" height="32" viewBox="0 0 105 32" fill="none" xmlns="http://www.w3.org/2000/svg">
<g clip-path="url(#clip0_32146_59423)">
<mask id="mask0_32146_59423" style="mask-type:luminance" maskUnits="userSpaceOnUse" x="0" y="0" width="105" height="32">
<path d="M104.52 0.804688H0V31.0847H104.52V0.804688Z" fill="white"/>
</mask>
<g mask="url(#mask0_32146_59423)">
<path d="M38.2303 9.77726V18.224C38.2303 20.2574 38.2661 20.4317 40.1614 20.4317H43.2863V24.3571H39.2137C35.4919 24.3571 33.7369 23.1311 33.7369 18.6798V9.77726H30.3672V5.85185H33.7369V0.804688H38.2303V5.85185H43.2863V9.77726H38.2303Z" fill="black"/>
<path d="M63.2409 15.103C63.2409 20.3602 59.7652 24.6357 53.972 24.6357C48.1788 24.6357 44.7031 20.3602 44.7031 15.103C44.7031 9.8458 48.1788 5.57031 53.972 5.57031C59.7652 5.57031 63.2409 9.8458 63.2409 15.103ZM58.7475 15.103C58.7475 12.0893 57.0268 9.63575 53.9735 9.63575C50.9202 9.63575 49.198 12.0893 49.198 15.103C49.198 18.1167 50.9187 20.5703 53.9735 20.5703C57.0283 20.5703 58.7475 18.1167 58.7475 15.103Z" fill="black"/>
<path d="M69.9793 6.55204C69.9793 7.28796 69.8032 7.84809 69.4883 8.47973C69.348 8.82982 69.1018 9.25141 69.4525 9.4257C69.8032 9.60149 70.0151 9.14564 70.0837 9.0056C71.2075 7.04364 73.0684 5.57031 75.9471 5.57031C80.7569 5.57031 84.0221 9.77579 84.0221 15.103C84.0221 20.4302 80.7569 24.6357 75.9471 24.6357C73.1386 24.6357 71.2075 23.1981 70.0837 21.1662C70.0136 21.0604 69.8733 20.7103 69.557 20.8161C69.1704 20.9561 69.3107 21.3062 69.4868 21.6578C69.8032 22.2894 69.9778 22.8495 69.9778 23.5497V31.0847H65.4844V5.85187H69.9778V6.55353L69.9793 6.55204ZM79.5287 15.103C79.5287 12.1593 78.0543 9.63575 74.895 9.63575C71.9462 9.63575 69.9793 12.1593 69.9793 15.103C69.9793 18.0467 71.9447 20.5703 74.895 20.5703C78.0543 20.5703 79.5287 18.0467 79.5287 15.103Z" fill="black"/>
<path d="M104.522 15.103C104.522 20.3602 101.047 24.6357 95.2533 24.6357C89.46 24.6357 85.9844 20.3602 85.9844 15.103C85.9844 9.8458 89.46 5.57031 95.2533 5.57031C101.047 5.57031 104.522 9.8458 104.522 15.103ZM100.029 15.103C100.029 12.0893 98.3081 9.63575 95.2533 9.63575C92.1985 9.63575 90.4793 12.0893 90.4793 15.103C90.4793 18.1167 92.2 20.5703 95.2533 20.5703C98.3066 20.5703 100.029 18.1167 100.029 15.103Z" fill="black"/>
<path d="M9.02501 6.10156C9.02501 6.10156 9.02501 6.1047 9.02501 6.10627C9.02501 6.11097 9.02501 6.11411 9.02501 6.11725C9.02501 6.11411 9.02501 6.10941 9.02344 6.10156H9.02501Z" fill="black"/>
<path d="M22.9263 7.71958C22.7233 5.49543 21.4325 3.83439 19.4208 3.06421L17.3912 2.1957C16.6645 1.88435 15.8586 1.69813 14.9946 1.64301C13.4888 1.54618 11.98 1.53724 10.5116 1.61322C8.87897 1.69962 7.2583 1.89329 5.69135 2.19123C2.7037 2.76031 0.656217 4.82207 0.348796 7.56911C-0.0720419 11.3515 -0.112335 15.0088 0.229409 18.7494C0.411474 20.7486 1.62176 22.4603 3.38569 23.2141L5.63315 24.1765C6.14353 24.3925 6.6942 24.5296 7.27322 24.5683C8.26562 24.6323 9.26399 24.6651 10.2579 24.6651C11.0473 24.6651 11.8338 24.6443 12.6128 24.604C14.3752 24.5117 16.1735 24.3121 17.9583 24.0081C20.4729 23.5806 22.5129 21.3505 22.8084 18.7033C23.2278 14.9373 23.2666 11.4468 22.9263 7.71958ZM3.48568 8.62979C3.79907 5.82763 6.07786 4.41687 8.10594 4.03103C8.33427 3.98783 8.56409 3.94612 8.79391 3.90888C8.79391 4.38261 8.8342 4.85336 8.90285 5.31666C8.93419 5.53714 8.97747 5.75315 9.00881 5.97214C9.01477 6.01087 9.01925 6.0496 9.02522 6.08833C9.02522 6.09131 9.02522 6.10323 9.0297 6.12707C9.0297 6.13899 9.03268 6.15239 9.03268 6.16431C9.04164 6.2522 9.0491 6.33861 9.05656 6.4265C9.07745 6.75275 9.07596 7.08198 9.04164 7.40971C9.03865 7.43951 9.03567 7.47079 9.03119 7.50059C9.03119 7.50059 9.03119 7.50804 9.02821 7.51846V7.52591C9.02522 7.53783 9.02373 7.55124 9.02224 7.55869C9.0103 7.63764 8.99537 7.71511 8.97747 7.79406C8.94613 7.92814 8.90882 8.06221 8.86405 8.19331C8.8536 8.22161 8.84316 8.24992 8.83271 8.27673C8.82674 8.29461 8.81928 8.31099 8.81182 8.32738C8.78346 8.38846 8.75511 8.45103 8.72377 8.51062C8.69243 8.5702 8.65811 8.6283 8.62378 8.68491C8.60737 8.70875 8.59095 8.73258 8.57454 8.76089C8.56857 8.76983 8.55812 8.78323 8.54917 8.79515C8.46709 8.89943 8.38053 8.99775 8.28502 9.08714C8.26861 9.10352 8.2507 9.11991 8.24622 9.12289C8.24622 9.12289 8.20444 9.15715 8.19399 9.16609C8.13728 9.20929 8.07908 9.25101 8.0179 9.29123C7.96566 9.32549 7.91194 9.35826 7.85523 9.38806C7.84329 9.39402 7.79405 9.41785 7.79405 9.41934C7.77017 9.42977 7.74629 9.4402 7.72092 9.45063C7.58512 9.51022 7.44484 9.5564 7.30307 9.59215C7.26576 9.60258 7.22845 9.61152 7.19114 9.62046C7.1807 9.62195 7.1419 9.62939 7.13294 9.63237C7.05086 9.64578 6.97028 9.6577 6.88969 9.66664C6.80761 9.67558 6.72703 9.68153 6.64644 9.686C6.55093 9.69047 6.45692 9.69196 6.36141 9.69196C5.84804 9.68749 5.34065 9.61152 4.83176 9.56385C4.3572 9.51766 3.88115 9.47744 3.39763 9.47595C3.42449 9.1944 3.45434 8.91284 3.48568 8.62979ZM3.33197 10.197C4.28706 10.197 5.22126 10.3683 6.17337 10.4085C6.32857 10.4145 6.48378 10.4145 6.64047 10.4085C7.17771 10.3802 7.71495 10.2566 8.20593 9.98693C9.34906 9.35678 9.76542 7.99964 9.75199 6.75573C9.74751 6.3252 9.69826 5.89467 9.62514 5.47457C9.52963 4.92338 9.47591 4.36771 9.4774 3.80162C10.14 3.7033 10.8101 3.62434 11.4831 3.56326C11.4488 5.08724 11.7413 6.58888 12.089 8.0354C12.1681 8.36164 12.2502 8.6864 12.3337 9.00967C12.368 9.14524 12.4009 9.28229 12.4277 9.42083C12.4397 9.48191 12.4501 9.54299 12.4606 9.60556C12.465 9.64131 12.471 9.68004 12.4755 9.7158C12.4785 9.73367 12.48 9.75155 12.483 9.76794C12.483 9.76794 12.4844 9.78135 12.4859 9.80667C12.5128 10.0733 12.5203 10.3445 12.5068 10.6171C12.4994 10.7452 12.4889 10.8763 12.4725 11.0014C12.471 11.0014 12.4531 11.1102 12.4501 11.1325C12.4382 11.2025 12.4233 11.2711 12.4068 11.3411C12.38 11.4677 12.3457 11.5928 12.3069 11.7165C12.286 11.7776 12.2651 11.8372 12.2427 11.8982C12.2352 11.9191 12.2278 11.9399 12.2203 11.9608C12.2188 11.9608 12.1845 12.0412 12.1815 12.0502C12.1323 12.1604 12.077 12.2677 12.0188 12.372C11.9875 12.4256 11.9562 12.4792 11.9233 12.5329C11.9069 12.5552 11.892 12.579 11.8756 12.6029C11.8681 12.6148 11.8592 12.6282 11.8427 12.6505C11.7711 12.7504 11.692 12.8442 11.6084 12.9351C11.5696 12.9753 11.5308 13.0155 11.4906 13.0543C11.4667 13.0781 11.4413 13.1004 11.3712 13.1615C11.2786 13.236 11.1816 13.306 11.0817 13.3701C11.0249 13.4058 10.9653 13.4401 10.9056 13.4729C10.8891 13.4818 10.8727 13.4907 10.8578 13.4982C10.8563 13.4982 10.7772 13.5354 10.7683 13.5399C10.4086 13.6963 10.046 13.7753 9.67588 13.7946C9.49829 13.8036 9.31772 13.7991 9.13416 13.7842C8.49395 13.7276 7.87612 13.5295 7.27471 13.3239C6.58526 13.0885 5.90326 12.8248 5.18246 12.6863C4.78849 12.6103 4.3975 12.582 4.00501 12.6029C3.73042 12.6163 3.45733 12.655 3.18124 12.7176C3.21109 11.8804 3.26183 11.0416 3.33197 10.1985V10.197ZM3.15886 13.449C3.44091 13.376 3.72147 13.3328 4.00054 13.3179C4.3184 13.3015 4.63478 13.3224 4.95115 13.3805C5.61375 13.5041 6.2465 13.7351 6.87775 13.9555C7.77166 14.2669 8.72526 14.5589 9.68931 14.5097C10.0281 14.4918 10.3698 14.4308 10.7086 14.3131C11.7771 13.9466 12.5665 13.0438 12.9396 11.9399C13.1202 11.4081 13.1993 10.8376 13.1963 10.2864C13.1933 9.66217 13.0665 9.07671 12.9172 8.48529C12.5083 6.87491 12.1263 5.21238 12.1651 3.50665C12.3785 3.49176 12.5919 3.47984 12.8053 3.46792C13.2291 3.44558 13.6574 3.43068 14.0872 3.42323C13.9305 4.33345 13.9499 5.24218 14.1141 6.13303C14.2708 6.98812 14.5469 7.803 14.8379 8.60745C15.4049 10.1791 16.1048 11.8237 15.9959 13.5846C15.9004 15.1413 15.005 16.6951 13.5351 17.2776C13.1053 17.4474 12.6725 17.5309 12.2397 17.5532C10.9921 17.6187 9.74602 17.1838 8.56707 16.8933C7.73585 16.6877 6.87328 16.5298 6.00325 16.5745C5.9734 16.5759 5.94505 16.5774 5.91669 16.5804C4.98398 16.6445 4.0662 16.9692 3.28422 17.5651C3.26332 17.5815 3.24243 17.5979 3.22154 17.6143C3.14543 16.2229 3.12454 14.8389 3.15886 13.449ZM4.23483 21.9508C3.75728 21.2998 3.44837 20.5043 3.36779 19.6299C3.33197 19.2411 3.30063 18.8537 3.27377 18.4664C3.91846 17.8616 4.71089 17.4593 5.54808 17.3387C5.69284 17.3178 5.83909 17.3044 5.98385 17.297C6.72106 17.2582 7.45081 17.3789 8.16116 17.5458C9.50277 17.8586 10.8593 18.3398 12.2561 18.2668C12.6158 18.2474 12.9799 18.1923 13.3455 18.0865C14.996 17.6143 16.2287 16.0977 16.5749 14.3578C16.9286 12.5671 16.3824 10.8227 15.8019 9.21674C15.208 7.57656 14.517 5.89467 14.6797 4.05189C14.6991 3.83886 14.7304 3.62732 14.7722 3.41727C15.2587 3.41727 15.7467 3.4277 16.2347 3.44855C16.0183 5.62503 16.9734 7.55273 17.8927 9.3672C18.3613 10.2923 18.8478 11.2189 19.1776 12.2141C19.4924 13.1645 19.6223 14.106 19.5372 15.1339C19.3731 17.0735 18.3508 18.9952 16.6764 20.0276C15.8586 20.5326 14.9886 20.7337 14.1036 20.7799C12.8038 20.8485 11.4712 20.5818 10.2176 20.4492C9.56694 20.3807 8.91479 20.3434 8.25965 20.3777C7.91194 20.3956 7.56273 20.4343 7.21502 20.4984C6.245 20.6756 5.27499 21.0138 4.49151 21.7036C4.40197 21.781 4.31691 21.8644 4.23483 21.9508ZM21.919 18.6035C21.6668 20.8634 19.9372 22.7657 17.8076 23.1277C16.0571 23.4242 14.2932 23.6208 12.5665 23.7117C10.8384 23.8011 9.07596 23.7892 7.33142 23.6759C6.3047 23.6089 5.38094 23.165 4.68253 22.4722C5.24962 21.8481 6.01071 21.5114 6.81358 21.3073C7.28367 21.1866 7.77465 21.1211 8.26861 21.0958C8.72974 21.0704 9.19535 21.0823 9.64752 21.1181C11.1145 21.2343 12.6322 21.5784 14.129 21.4995C14.8782 21.4607 15.6228 21.3147 16.3511 20.9825C18.2911 20.0991 19.6715 18.1565 20.0924 16.0143C20.2938 14.9805 20.2938 13.9257 20.0894 12.9187C19.876 11.8684 19.4357 10.8897 18.9761 9.95117C18.0867 8.13223 16.8853 6.24476 16.8764 4.10105C16.8764 3.90143 16.8838 3.67797 16.9062 3.48133C16.9988 3.48431 17.0913 3.49027 17.1838 3.49623C19.9924 3.67797 21.8056 5.28687 22.0354 7.80002C22.3682 11.4662 22.3309 14.8985 21.919 18.6035Z" fill="black"/>
</g>
</g>
<defs>
<clipPath id="clip0_32146_59423">
<rect width="105" height="32" fill="white"/>
</clipPath>
</defs>
</svg>
