<svg width="52" height="52" viewBox="0 0 52 52" fill="none" xmlns="http://www.w3.org/2000/svg">
<path d="M42.075 0.162109H1.925C0.825 0.162109 0 0.987109 0 2.08711V42.5121C0 43.3371 0.825 44.1621 1.925 44.1621H42.35C43.45 44.1621 44.275 43.3371 44.275 42.2371V2.08711C44 0.987109 43.175 0.162109 42.075 0.162109ZM12.925 37.5621H6.6V16.6621H13.2V37.5621H12.925ZM9.9 13.9121C7.7 13.9121 6.05 11.9871 6.05 10.0621C6.05 7.86211 7.7 6.21211 9.9 6.21211C12.1 6.21211 13.75 7.86211 13.75 10.0621C13.475 11.9871 11.825 13.9121 9.9 13.9121ZM37.4 37.5621H30.8V27.3871C30.8 24.9121 30.8 21.8871 27.5 21.8871C24.2 21.8871 23.65 24.6371 23.65 27.3871V37.8371H17.05V16.6621H23.375V19.4121C24.2 17.7621 26.4 16.1121 29.425 16.1121C36.025 16.1121 37.125 20.5121 37.125 26.0121V37.5621H37.4Z" fill="currentColor"/>
</svg>
