<svg width="209" height="48" viewBox="0 0 209 48" fill="none" xmlns="http://www.w3.org/2000/svg">
<g clip-path="url(#clip0_17741_19747)">
<path fill-rule="evenodd" clip-rule="evenodd" d="M38.939 1.0046L23.5098 1C22.3409 1 21.2777 1.647 20.7835 2.6589C17.5957 9.18641 5.85902 33.2152 1.12597 42.9048C0.691102 43.7957 0.762499 44.8359 1.31451 45.6646C1.86733 46.4933 2.82454 46.9954 3.85235 46.9954H10.3104C12.5482 46.9954 14.6841 46.1031 16.2028 44.5331C17.1499 43.5542 18.2297 42.4383 19.146 41.4915C19.471 41.1556 19.7755 40.841 20.0461 40.5614C20.8052 39.7764 21.873 39.3302 22.9915 39.3302C24.4318 39.3302 27.814 39.3312 31.1781 39.3322C34.5062 39.3331 37.8164 39.3341 39.211 39.3341C40.3294 39.3341 41.3974 39.7802 42.1572 40.5653C43.1899 41.6331 44.7167 43.2115 46.0004 44.5377C47.5193 46.1069 49.6544 47 51.8921 47H58.5965C59.6243 47 60.5815 46.4979 61.1343 45.6692C61.6863 44.8405 61.7578 43.7995 61.3229 42.9094C56.5898 33.2198 44.8531 9.19101 41.6654 2.6635C41.1711 1.6516 40.108 1.0046 38.939 1.0046ZM48.1916 38.1359C45.8151 32.664 36.9259 13.9362 33.049 5.79195C32.724 5.10663 32.0099 4.66659 31.222 4.66659C30.4349 4.66659 29.72 5.10663 29.395 5.79195C25.5197 13.9354 16.6337 32.6594 14.2571 38.1313C14.1737 38.3283 14.1986 38.5522 14.3222 38.7285C14.4465 38.9048 14.6544 39.0098 14.8766 39.0098H17.9039C19.1363 39.0098 20.2997 38.4694 21.0603 37.5426L25.47 32.1726C26.2306 31.2466 27.394 30.7053 28.6264 30.7053C29.243 30.7053 30.2337 30.7065 31.2244 30.7077C32.2151 30.7088 33.2058 30.71 33.8224 30.71C35.0548 30.71 36.2182 31.2504 36.9789 32.1764C38.2209 33.6896 40.1465 36.0347 41.3886 37.5472C42.1492 38.4732 43.3126 39.0144 44.545 39.0144H47.5723C47.7945 39.0144 48.0023 38.9086 48.1267 38.7323C48.2502 38.5568 48.2751 38.3329 48.1916 38.1359ZM101.947 12.6324C102.34 12.2587 102.805 12.0889 103.377 12.0889C103.913 12.0889 104.414 12.2587 104.807 12.6324C105.201 13.0061 105.38 13.4478 105.38 13.9913C105.38 14.5349 105.201 14.9765 104.807 15.3502C104.414 15.7239 103.949 15.8938 103.377 15.8938C102.805 15.8938 102.34 15.7239 101.947 15.3502C101.554 14.9765 101.375 14.5349 101.375 13.9913C101.375 13.4478 101.554 13.0061 101.947 12.6324ZM83.8331 20.3102C85.2633 19.325 87.1225 18.8154 89.3751 18.8154C91.7707 18.8154 93.6657 19.393 94.9887 20.548C96.2758 21.6691 96.9552 23.2998 96.9552 25.372V37.0925H94.3095L94.0592 34.2727C92.5575 36.2771 90.448 37.2963 87.6949 37.2963C85.5853 37.2963 83.9046 36.8206 82.6532 35.8694C81.366 34.9182 80.7227 33.6612 80.7227 32.0306C80.7227 30.2301 81.3662 28.8032 82.6892 27.8521C83.9764 26.9009 85.8355 26.3912 88.3384 26.3912H93.9161V25.1682C93.9161 24.0131 93.523 23.0959 92.7006 22.4165C91.8424 21.737 90.698 21.4313 89.1963 21.4313C87.9091 21.4313 86.8007 21.7031 85.9784 22.2466C85.1202 22.7902 84.5482 23.5376 84.3694 24.4547H81.3302C81.5805 22.6882 82.3671 21.2954 83.8331 20.3102ZM92.343 33.3895C93.4156 32.4722 93.952 31.2493 93.952 29.7205V28.8712H88.088C85.2634 28.8712 83.8331 29.8564 83.8331 31.8607C83.8331 32.744 84.1908 33.4574 84.9417 34.0009C85.6925 34.5446 86.6935 34.8163 87.9449 34.8163C89.8041 34.8163 91.2704 34.3407 92.343 33.3895ZM98.8555 21.7026H101.859V37.0579H104.898V19.0527H98.8555V21.7026ZM131.035 18.8486C132.787 18.8486 134.396 19.1884 135.754 19.9358C137.113 20.6492 138.186 21.7363 138.972 23.0952C139.759 24.4881 140.117 26.1526 140.117 28.0551C140.117 29.8556 139.759 31.4524 138.972 32.8452C138.186 34.2381 137.077 35.3252 135.719 36.1065C134.36 36.8879 132.787 37.2615 131.035 37.2615C129.533 37.2615 128.174 36.9898 127.102 36.4463C126.029 35.9367 125.171 35.2232 124.527 34.3059V44.1239H121.488V19.0525H124.134L124.527 21.9401C126.137 19.8678 128.282 18.8486 131.035 18.8486ZM130.749 34.6797C132.644 34.6797 134.181 34.0342 135.325 32.8112C136.469 31.5883 137.042 29.9916 137.042 27.9872C137.042 26.0507 136.469 24.4201 135.325 23.1971C134.181 21.9741 132.644 21.3626 130.749 21.3626C129.533 21.3626 128.46 21.6344 127.531 22.1779C126.565 22.7554 125.85 23.5368 125.314 24.522C124.778 25.5412 124.527 26.6963 124.527 27.9531C124.527 29.2781 124.778 30.3991 125.314 31.4183C125.814 32.4376 126.565 33.2528 127.531 33.8304C128.46 34.4079 129.533 34.6797 130.749 34.6797ZM109.094 22.5519V37.0579H112.133V21.7026H118.712V19.0527H112.776C110.738 19.0527 109.094 20.5815 109.094 22.5519ZM143.656 12.3262H146.695V37.0579H143.656V12.3262ZM158.782 18.8154C156.529 18.8154 154.67 19.325 153.24 20.3102C151.774 21.2954 150.987 22.6882 150.737 24.4547H153.776C153.955 23.5376 154.527 22.7902 155.385 22.2466C156.207 21.7031 157.316 21.4313 158.603 21.4313C160.105 21.4313 161.249 21.737 162.107 22.4165C162.929 23.0959 163.323 24.0131 163.323 25.1682V26.3912H157.745C155.242 26.3912 153.383 26.9009 152.095 27.8521C150.772 28.8032 150.129 30.2301 150.129 32.0306C150.129 33.6612 150.773 34.9182 152.06 35.8694C153.311 36.8206 154.991 37.2963 157.101 37.2963C159.854 37.2963 161.964 36.2771 163.465 34.2727L163.716 37.0925H166.362V25.372C166.362 23.2998 165.682 21.6691 164.395 20.548C163.072 19.393 161.177 18.8154 158.782 18.8154ZM163.358 29.7205C163.358 31.2493 162.822 32.4722 161.749 33.3895C160.677 34.3407 159.211 34.8163 157.351 34.8163C156.1 34.8163 155.099 34.5446 154.348 34.0009C153.597 33.4574 153.24 32.744 153.24 31.8607C153.24 29.8564 154.67 28.8712 157.494 28.8712H163.358V29.7205ZM173.301 21.4653C174.767 19.6987 176.841 18.8154 179.558 18.8154C181.882 18.8154 183.741 19.4949 185.1 20.8198C186.459 22.1107 187.174 24.217 187.174 27.0367V37.0584H184.135V27.2065C184.135 25.3381 183.705 23.9112 182.847 22.9261C181.953 21.9748 180.702 21.4653 179.022 21.4653C177.27 21.4653 175.839 22.0768 174.838 23.2318C173.837 24.3869 173.301 26.0175 173.301 28.0219V37.0245H170.262V19.0192H172.907L173.301 21.4653ZM208.382 28.5987C208.393 28.411 208.405 28.2412 208.415 28.0893C208.437 27.774 208.453 27.5362 208.453 27.3757C208.417 25.643 208.024 24.1143 207.237 22.8234C206.451 21.5325 205.414 20.5133 204.091 19.8678C202.768 19.1884 201.23 18.8486 199.478 18.8486C197.726 18.8486 196.153 19.2223 194.795 19.9697C193.436 20.7511 192.363 21.8382 191.648 23.2311C190.862 24.6239 190.504 26.2206 190.504 28.0551C190.504 29.8556 190.897 31.4863 191.684 32.8452C192.47 34.272 193.543 35.3591 194.938 36.1065C196.368 36.8879 197.977 37.2615 199.872 37.2615C202.017 37.2615 203.84 36.65 205.343 35.495C206.844 34.34 207.774 32.8452 208.131 31.0107H205.057C204.735 32.1657 204.091 33.0491 203.161 33.6945C202.196 34.3739 201.051 34.6797 199.657 34.6797C197.905 34.6797 196.475 34.1362 195.367 33.083C194.294 32.0299 193.686 30.603 193.65 28.8365V28.5987H208.382ZM195.688 22.7215C196.761 21.8382 198.012 21.3626 199.478 21.3626C201.087 21.3626 202.41 21.7702 203.483 22.6195C204.52 23.4688 205.128 24.6579 205.27 26.1867H193.829C193.972 24.7598 194.616 23.6048 195.688 22.7215Z" fill="url(#paint0_linear_17741_19747)"/>
</g>
<defs>
<linearGradient id="paint0_linear_17741_19747" x1="105.218" y1="4.27839e-08" x2="105.218" y2="48" gradientUnits="userSpaceOnUse">
<stop stop-color="#E4E5E7"/>
<stop offset="1" stop-color="#E4E5E7" stop-opacity="0.7"/>
</linearGradient>
<clipPath id="clip0_17741_19747">
<rect width="208" height="48" fill="white" transform="translate(0.855469)"/>
</clipPath>
</defs>
</svg>
