<svg width="222" height="48" viewBox="0 0 222 48" fill="none" xmlns="http://www.w3.org/2000/svg">
<path fill-rule="evenodd" clip-rule="evenodd" d="M40.2558 7.63136C41.388 8.06874 41.886 9.33712 41.4333 10.3868C41.071 11.2179 40.2558 11.699 39.3955 11.699C39.1239 11.699 38.8069 11.6552 38.5353 11.524C33.0562 9.29338 27.2148 8.19994 21.2829 8.19994C20.0603 8.19994 19.1094 7.23773 19.1094 6.10054C19.1094 4.96336 20.1056 4.00113 21.2829 4.00113C27.8487 3.95739 34.2334 5.18204 40.2558 7.63136ZM40.2444 16.1161C41.3763 16.5535 41.8743 17.8219 41.4216 18.8716C41.0593 19.7026 40.2444 20.1838 39.3838 20.1838C39.1122 20.1838 38.7952 20.14 38.5236 20.0088C33.0445 17.7782 27.2485 16.6847 21.2713 16.6847C15.2488 16.6847 9.4528 17.7782 4.01901 19.9651C2.88698 20.4025 1.61909 19.9213 1.16628 18.8279C0.71346 17.7344 1.21155 16.5098 2.34359 16.0724C8.32076 13.6668 14.6602 12.4422 21.2713 12.4422C27.8371 12.4422 34.2217 13.6668 40.2444 16.1161ZM33.452 24.5143C33.7237 23.3772 32.954 22.2837 31.7768 22.0213C28.2899 21.2777 24.758 20.9279 21.2713 20.9279C14.6602 20.9279 8.32077 22.1525 2.34359 24.5581C1.21155 24.9955 0.71346 26.2201 1.16628 27.3136C1.52853 28.1446 2.3436 28.6257 3.20395 28.6257C3.52092 28.6257 3.7926 28.5382 4.06429 28.4507C9.49808 26.2201 15.2941 25.1267 21.3166 25.1267C24.441 25.1267 27.656 25.4766 30.871 26.1326C32.0484 26.3951 33.1804 25.6515 33.452 24.5143ZM21.3166 29.3686C22.5392 29.3686 23.4901 30.3308 23.4901 31.4681C23.4901 32.6051 22.4939 33.5673 21.3166 33.5673C15.2941 33.5673 9.49807 34.6609 4.06429 36.8915C3.7926 36.979 3.52092 37.0665 3.20395 37.0665C2.3436 37.0665 1.52853 36.5854 1.16628 35.7542C0.71346 34.6609 1.21155 33.4361 2.34359 32.9987C8.36604 30.5932 14.7055 29.3686 21.3166 29.3686ZM61.1271 35.9784V37.585H56.7109V13.6445H61.1956V23.1017C61.9487 21.9443 63.7973 20.8862 66.2964 20.8862C71.2264 20.8862 74.0678 24.5566 74.0678 29.3844C74.0678 34.3115 70.918 37.9818 66.1252 37.9818C63.7973 37.9818 62.8388 37.7557 61.1271 35.9784ZM65.3379 34.0469C67.6658 34.0469 69.9707 32.4651 69.9707 29.4891C69.9707 26.5131 67.6658 24.8212 65.3379 24.8212C63.0442 24.8212 60.6992 26.5131 60.6992 29.4891C60.6992 32.432 63.0442 34.0469 65.3379 34.0469ZM88.2963 37.5855H92.644C92.5755 37.0234 92.4728 35.8991 92.4728 34.6426V21.3165H87.9197V30.7738C87.9197 32.6586 86.7558 33.9812 84.736 33.9812C82.6132 33.9812 81.6547 32.5263 81.6547 30.7076V21.3165H77.1016V31.6004C77.1016 35.1386 79.4295 38.0154 83.5033 38.0154C85.2837 38.0154 87.235 37.354 88.1594 35.833C88.1594 36.4943 88.2278 37.2548 88.2963 37.5855ZM104.707 24.8547C102.721 24.8547 101.557 26.3427 101.557 28.2275V37.5855H97.0039V21.3165H101.557V22.2995C102.816 21.0363 104.847 21.1442 105.999 21.2054C106.135 21.2126 106.259 21.2192 106.368 21.2228C109.221 21.3165 112.375 23.7635 112.375 27.3347V37.5855H107.822V28.0952C107.822 26.2766 106.897 24.8547 104.707 24.8547ZM153.129 33.0546C153.334 34.9063 155.08 38.0807 160.147 38.0807C164.563 38.0807 166.686 35.3692 166.686 32.7239C166.686 30.343 165.008 28.392 161.688 27.7307L159.291 27.2347C158.367 27.0694 157.75 26.5734 157.75 25.7798C157.75 24.8539 158.709 24.1595 159.907 24.1595C161.825 24.1595 162.543 25.383 162.68 26.3419L166.48 25.5152C166.275 23.7627 164.666 20.8197 159.873 20.8197C156.244 20.8197 153.574 23.2336 153.574 26.1435C153.574 28.4251 155.046 30.3099 158.298 31.0044L160.524 31.5004C161.825 31.765 162.338 32.3602 162.338 33.0876C162.338 33.9474 161.619 34.7079 160.113 34.7079C158.127 34.7079 157.134 33.5175 157.032 32.2279L153.129 33.0546ZM177.726 24.8542C175.809 24.8542 174.679 26.243 174.577 28.0287V37.5851H170.023V13.6445H174.577V22.6718C175.672 21.4153 177.521 20.8862 179.13 20.8862C183.409 20.8862 185.395 23.763 185.395 27.3342V37.5851H180.841V28.0948C180.841 26.2761 179.917 24.8542 177.726 24.8542ZM192.994 27.5984C193.096 26.1104 194.397 24.391 196.759 24.391C199.361 24.391 200.457 25.9782 200.525 27.5984H192.994ZM200.97 31.8311C200.422 33.286 199.258 34.3111 197.136 34.3111C194.876 34.3111 192.994 32.757 192.891 30.6075H204.941C204.941 30.5913 204.945 30.5394 204.952 30.461V30.4609C204.971 30.2192 205.01 29.726 205.01 29.2518C205.01 24.0272 201.894 20.8197 196.691 20.8197C192.377 20.8197 188.406 24.1925 188.406 29.384C188.406 34.8732 192.48 38.0807 197.102 38.0807C201.244 38.0807 203.914 35.733 204.77 32.9223L200.97 31.8311ZM212.803 13.6445V37.5851H208.25V13.6445H212.803ZM221.881 37.5851V13.6445H217.328V37.5851H221.881ZM157.025 13.6445L141.8 44H136.973L151.991 13.6445H157.025ZM138.199 20.8862H133.098L136.305 28.1499L137.908 31.7819L138.71 33.5977L141.562 28.0287L140.441 25.6479L139.32 23.2671L138.199 20.8862ZM124.312 24.8547C122.326 24.8547 121.162 26.3427 121.162 28.2275V37.5855H116.609V21.3165H121.162V22.2995C122.421 21.0363 124.452 21.1442 125.604 21.2054C125.741 21.2126 125.865 21.2192 125.974 21.2228C128.827 21.3165 131.981 23.7635 131.981 27.3347V37.5855H127.427V28.0952C127.427 26.2766 126.503 24.8547 124.312 24.8547Z" fill="url(#paint0_linear_421_11180)"/>
<defs>
<linearGradient id="paint0_linear_421_11180" x1="112" y1="0.000121954" x2="112" y2="47.5001" gradientUnits="userSpaceOnUse">
<stop stop-color="#E4E5E7"/>
<stop offset="1" stop-color="#E4E5E7" stop-opacity="0.7"/>
</linearGradient>
</defs>
</svg>
