<svg width="195" height="42" viewBox="0 0 195 42" xmlns="http://www.w3.org/2000/svg"
  fill="url(#gradient)">
  <defs>
    <linearGradient id="gradient" gradientTransform="rotate(90)">
      <stop offset="5%" stop-color="rgba(228, 229, 231, 0.7)" />
      <stop offset="95%" stop-color="#E4E5E7" />
    </linearGradient>
  </defs>
  <path fill-rule="evenodd" clip-rule="evenodd"
    d="M35.2179 6.67744C36.2086 7.06015 36.6444 8.16998 36.2482 9.08847C35.9313 9.81563 35.2179 10.2366 34.4652 10.2366C34.2275 10.2366 33.9502 10.1983 33.7125 10.0835C28.9183 8.13171 23.8071 7.17495 18.6167 7.17495C17.5469 7.17495 16.7148 6.33302 16.7148 5.33797C16.7148 4.34294 17.5865 3.50099 18.6167 3.50099C24.3618 3.46272 29.9484 4.53429 35.2179 6.67744ZM35.2099 14.1019C36.2003 14.4846 36.6361 15.5945 36.24 16.513C35.923 17.2401 35.2099 17.6611 34.4569 17.6611C34.2192 17.6611 33.9419 17.6228 33.7042 17.508C28.91 15.5562 23.8385 14.5994 18.6085 14.5994C13.3388 14.5994 8.26729 15.5562 3.51273 17.4698C2.5222 17.8525 1.4128 17.4315 1.01659 16.4747C0.620371 15.5179 1.0562 14.4464 2.04674 14.0636C7.27676 11.9588 12.8237 10.8872 18.6085 10.8872C24.3536 10.8872 29.9401 11.9588 35.2099 14.1019ZM29.2666 21.4497C29.5043 20.4547 28.8308 19.4979 27.8008 19.2683C24.7498 18.6177 21.6593 18.3115 18.6085 18.3115C12.8238 18.3115 7.27676 19.3831 2.04674 21.488C1.0562 21.8707 0.620371 22.9423 1.01659 23.899C1.33356 24.6262 2.04674 25.0471 2.79955 25.0471C3.0769 25.0471 3.31462 24.9706 3.55234 24.894C8.30691 22.9423 13.3785 21.9855 18.6481 21.9855C21.382 21.9855 24.1951 22.2917 27.0082 22.8657C28.0385 23.0953 29.0289 22.4447 29.2666 21.4497ZM18.6481 25.6973C19.7179 25.6973 20.5499 26.5392 20.5499 27.5343C20.5499 28.5293 19.6782 29.3711 18.6481 29.3711C13.3785 29.3711 8.30691 30.328 3.55234 32.2799L3.5523 32.2799C3.31459 32.3564 3.07688 32.4329 2.79955 32.4329C2.04674 32.4329 1.33356 32.012 1.01659 31.2847C0.620371 30.328 1.0562 29.2563 2.04674 28.8737C7.31638 26.7688 12.8634 25.6973 18.6481 25.6973ZM53.4813 31.4811V32.8869H49.6172V11.939H53.5412V20.214C54.2002 19.2013 55.8178 18.2754 58.0045 18.2754C62.3182 18.2754 64.8044 21.4871 64.8044 25.7113C64.8044 30.0225 62.0483 33.2341 57.8547 33.2341C55.8178 33.2341 54.9791 33.0363 53.4813 31.4811ZM57.1657 29.7911C59.2027 29.7911 61.2195 28.4069 61.2195 25.803C61.2195 23.1989 59.2027 21.7185 57.1657 21.7185C55.1588 21.7185 53.1069 23.1989 53.1069 25.803C53.1069 28.378 55.1588 29.7911 57.1657 29.7911ZM77.2563 32.8872H81.0606C81.0006 32.3953 80.9108 31.4116 80.9108 30.3121V18.6519H76.9268V26.9269C76.9268 28.5761 75.9084 29.7335 74.141 29.7335C72.2836 29.7335 71.4449 28.4604 71.4449 26.8691V18.6519H67.4609V27.6503C67.4609 30.7461 69.4978 33.2633 73.0624 33.2633C74.6203 33.2633 76.3277 32.6847 77.1365 31.3537C77.1365 31.9324 77.1964 32.5979 77.2563 32.8872ZM91.6148 21.748C89.8774 21.748 88.859 23.05 88.859 24.6992V32.8875H84.875V18.6521H88.859V19.5122C89.9605 18.4069 91.7374 18.5013 92.7453 18.5548C92.8648 18.5612 92.9734 18.567 93.0688 18.5701C95.5652 18.6521 98.3249 20.7932 98.3249 23.918V32.8875H94.3409V24.5835C94.3409 22.9921 93.5319 21.748 91.6148 21.748ZM133.984 28.9223C134.164 30.5426 135.692 33.3202 140.125 33.3202C143.989 33.3202 145.847 30.9477 145.847 28.633C145.847 26.5497 144.379 24.8426 141.473 24.2639L139.376 23.8299C138.567 23.6852 138.028 23.2512 138.028 22.5568C138.028 21.7467 138.867 21.1391 139.916 21.1391C141.593 21.1391 142.222 22.2096 142.342 23.0487L145.667 22.3254C145.487 20.7919 144.079 18.2168 139.886 18.2168C136.71 18.2168 134.374 20.329 134.374 22.8751C134.374 24.8715 135.662 26.5207 138.508 27.1284L140.455 27.5624C141.593 27.7939 142.042 28.3147 142.042 28.9512C142.042 29.7035 141.413 30.369 140.095 30.369C138.358 30.369 137.489 29.3274 137.399 28.199L133.984 28.9223ZM155.505 21.7475C153.828 21.7475 152.839 22.9627 152.75 24.5251V32.8869H148.766V11.939H152.75V19.8378C153.708 18.7384 155.326 18.2754 156.734 18.2754C160.478 18.2754 162.215 20.7926 162.215 23.9175V32.8869H158.231V24.5829C158.231 22.9916 157.423 21.7475 155.505 21.7475ZM168.865 24.1482C168.955 22.8462 170.094 21.3416 172.16 21.3416C174.437 21.3416 175.396 22.7304 175.455 24.1482H168.865ZM175.845 27.8518C175.366 29.1248 174.347 30.0218 172.49 30.0218C170.513 30.0218 168.865 28.6619 168.776 26.7812H179.32C179.32 26.7743 179.32 26.7599 179.322 26.7392L179.326 26.6906L179.329 26.653V26.6527C179.345 26.4411 179.38 26.0097 179.38 25.5949C179.38 21.0234 176.654 18.2168 172.101 18.2168C168.326 18.2168 164.852 21.168 164.852 25.7106C164.852 30.5136 168.416 33.3202 172.46 33.3202C176.085 33.3202 178.421 31.2659 179.17 28.8066L175.845 27.8518ZM186.199 11.939V32.8869H182.215V11.939H186.199ZM194.144 32.8869V11.939H190.16V32.8869H194.144ZM137.393 11.939L124.071 38.5H119.848L132.989 11.939H137.393ZM120.92 18.2759H116.457L119.263 24.6316L120.666 27.8096L121.368 29.3984L123.863 24.5255L122.882 22.4423L121.901 20.3591L120.92 18.2759ZM108.767 21.748C107.03 21.748 106.011 23.05 106.011 24.6992V32.8874H102.027V18.6521H106.011V19.5122C107.113 18.4069 108.89 18.5013 109.898 18.5548C110.017 18.5612 110.126 18.567 110.221 18.5701C112.718 18.6521 115.477 20.7931 115.477 23.918V32.8874H111.493V24.5835C111.493 22.9921 110.684 21.748 108.767 21.748Z" />
</svg>