<svg width="272" height="48" viewBox="0 0 272 48" fill="none" xmlns="http://www.w3.org/2000/svg">
<g clip-path="url(#clip0_17741_19733)">
<path fill-rule="evenodd" clip-rule="evenodd" d="M60.5374 35.9748L60.0932 37.4626C60.0456 37.6146 59.9482 37.7475 59.8157 37.8415C59.6832 37.9355 59.5227 37.9855 59.3583 37.9839H1.44657C1.29954 37.9833 1.15769 37.9314 1.04709 37.8378C0.93649 37.7443 0.864577 37.6153 0.844575 37.4746C0.568108 35.6919 0.686941 33.8728 1.1932 32.1378C1.69946 30.4028 2.5816 28.7915 3.78118 27.4107C4.98076 26.0298 6.4704 24.9109 8.15143 24.128C9.83246 23.3452 11.6665 22.9163 13.5321 22.8697C13.0622 21.0759 13.1786 19.1857 13.8653 17.4584C14.552 15.731 15.7753 14.2513 17.3673 13.2223C18.9594 12.1934 20.8421 11.6655 22.7571 11.7113C24.6722 11.7571 26.5256 12.3742 28.063 13.478C29.5112 9.36712 32.3106 5.82603 36.0349 3.39386C39.7592 0.961699 44.2043 -0.228277 48.6934 0.00512312C53.1825 0.238523 57.4697 1.88251 60.9022 4.68677C64.3346 7.49103 66.7243 11.3019 67.7074 15.5392C67.7218 15.6106 67.7301 15.683 67.7323 15.7557C67.7341 15.8928 67.7087 16.0289 67.6575 16.1567L65.8557 20.7122C64.4317 24.3053 60.3464 27.2488 56.6099 27.4132L24.9492 27.8142C24.7869 27.8252 24.6316 27.8819 24.5024 27.9775C24.3732 28.073 24.276 28.2031 24.2227 28.3515C24.1872 28.4402 24.1744 28.5358 24.1855 28.6303C24.1965 28.7247 24.231 28.8152 24.2861 28.8939C24.3411 28.9727 24.4151 29.0375 24.5016 29.0827C24.5882 29.1279 24.6848 29.1522 24.7832 29.1536L56.1408 29.5385C57.7973 29.6147 59.1507 30.2644 59.9811 31.3712C60.8695 32.5742 61.0647 34.2063 60.5374 35.9748ZM69.6832 16.5258C69.9877 16.5097 70.2783 16.5017 70.5551 16.5017H70.5634C73.2102 16.5048 75.8204 17.0992 78.19 18.2384C80.5595 19.3776 82.6242 21.0307 84.2225 23.0685C85.8209 25.1063 86.9097 27.4736 87.4037 29.9852C87.8978 32.4969 87.7837 35.0849 87.0704 37.5469C87.0347 37.6835 86.952 37.8043 86.8358 37.8896C86.7197 37.9748 86.5769 38.0194 86.4311 38.0161H62.505C62.4463 38.0129 62.3892 37.9963 62.3383 37.9678C62.2875 37.9393 62.2443 37.8996 62.2124 37.8519C62.1804 37.8042 62.1605 37.7499 62.1544 37.6934C62.1482 37.637 62.156 37.5799 62.177 37.5268L62.6793 36.2596C64.1034 32.6706 68.1679 29.7311 71.9417 29.5627L78.8875 29.1617C79.0498 29.1507 79.2051 29.0939 79.3343 28.9984C79.4635 28.9029 79.5607 28.7728 79.614 28.6243C79.6487 28.534 79.6603 28.4369 79.6481 28.3413C79.6358 28.2457 79.5999 28.1544 79.5434 28.0749C79.4902 28.0006 79.4196 27.9394 79.3374 27.8962C79.2552 27.853 79.1637 27.8291 79.0702 27.8263L72.3818 27.4253C71.6397 27.4246 70.9077 27.2589 70.2425 26.9411C69.5773 26.6233 68.9967 26.1619 68.5457 25.5927C67.6531 24.3896 67.4579 22.7575 67.9893 20.989L69.2348 16.8747C69.2561 16.8002 69.2959 16.732 69.351 16.6761C69.406 16.6201 69.4745 16.5781 69.5504 16.5538C69.5924 16.5365 69.6375 16.527 69.6832 16.5258ZM114.055 23.9246H118.011V34.375H124.932V37.7234H114.055V23.9246ZM129.039 30.842V30.878C129.039 34.828 132.319 38.0161 136.711 38.0161C141.104 38.0161 144.425 34.804 144.425 30.842V30.8019C144.425 26.8398 141.145 23.6638 136.753 23.6638C132.36 23.6638 129.039 26.8799 129.039 30.842ZM140.386 30.842V30.878C140.386 32.8711 138.916 34.5674 136.753 34.5674C134.59 34.5674 133.099 32.847 133.099 30.842V30.8019C133.099 28.8088 134.528 27.1165 136.711 27.1165C138.895 27.1165 140.386 28.8369 140.386 30.842ZM149.262 31.6802V23.9246H153.285V31.5919C153.285 33.597 154.323 34.5314 155.917 34.5314C157.511 34.5314 158.549 33.6251 158.549 31.6922V23.9246H162.568V31.5719C162.568 36.0271 159.936 37.9881 155.875 37.9881C151.815 37.9881 149.262 35.983 149.262 31.6802ZM174.142 23.9246H168.633V37.7194H174.063C179.203 37.7194 182.205 34.7639 182.205 30.7819V30.7418C182.205 26.7637 179.245 23.9246 174.142 23.9246ZM178.144 30.8581C178.144 33.0877 176.571 34.3509 174.204 34.3509L172.581 34.3349V27.3292H174.204C176.571 27.3292 178.144 28.6124 178.144 30.822V30.8581ZM187.953 23.9246H199.379V27.277H191.914V29.623H198.669V32.795H191.914V37.7234H187.953V23.9246ZM208.851 23.9246H204.895V37.7234H215.772V34.375H208.851V23.9246ZM226.153 23.8279H229.968L236.034 37.723H231.791L230.749 35.2608H225.235L224.218 37.723H220.066L226.153 23.8279ZM229.619 32.2812L228.029 28.3593L226.402 32.2812H229.619ZM247.88 23.9246H241.125V37.7234H245.086V33.5449H246.821L249.702 37.7234H254.269L250.861 32.9113C251.749 32.592 252.511 32.0109 253.039 31.2501C253.566 30.4894 253.833 29.5876 253.8 28.6726V28.6325C253.831 28.0422 253.734 27.4522 253.516 26.9C253.298 26.3477 252.963 25.8452 252.534 25.4244C251.575 24.478 250.068 23.9246 247.88 23.9246ZM249.823 28.9132C249.823 29.9157 249.046 30.5493 247.697 30.5493H245.086V27.2369H247.676C248.992 27.2369 249.823 27.7863 249.823 28.8731V28.9132ZM259.516 23.9246H271.007V27.1768H263.435V29.2661H270.293V32.2817H263.435V34.4712H271.107V37.7234H259.516V23.9246ZM104.075 33.9986C104.657 33.6301 105.113 33.1021 105.384 32.4822L109.565 32.4982C108.788 35.6582 105.84 38.0162 102.071 38.0162C97.6617 38.0162 94.3984 34.8402 94.3984 30.8781V30.838C94.3984 26.868 97.7032 23.6599 102.112 23.6599C105.986 23.6599 108.971 26.1021 109.618 29.3864H105.467C105.215 28.7124 104.754 28.1303 104.145 27.7202C103.537 27.3102 102.812 27.0923 102.071 27.0966C99.9077 27.0966 98.4588 28.7808 98.4588 30.7859V30.826C98.4588 32.815 99.9451 34.5514 102.112 34.5514C102.809 34.5597 103.492 34.3672 104.075 33.9986Z" fill="url(#paint0_linear_17741_19733)"/>
</g>
<defs>
<linearGradient id="paint0_linear_17741_19733" x1="136.645" y1="-0.00012207" x2="136.645" y2="47.9999" gradientUnits="userSpaceOnUse">
<stop stop-color="#E4E5E7"/>
<stop offset="1" stop-color="#E4E5E7" stop-opacity="0.7"/>
</linearGradient>
<clipPath id="clip0_17741_19733">
<rect width="271" height="48" fill="white" transform="translate(0.855469)"/>
</clipPath>
</defs>
</svg>
