<svg width="237" height="42" viewBox="0 0 237 42" xmlns="http://www.w3.org/2000/svg"
  fill="url(#gradient)">
  <defs>
    <linearGradient id="gradient" gradientTransform="rotate(90)">
      <stop offset="5%" stop-color="#E4E5E7" />
      <stop offset="95%" stop-color="rgba(228, 229, 231, 0.7)" />
    </linearGradient>
  </defs>
  <g clip-path="url(#clip0_18361_7436)">
    <path fill-rule="evenodd" clip-rule="evenodd"
      d="M52.2139 31.4782L51.8252 32.78C51.7835 32.9129 51.6983 33.0293 51.5824 33.1116C51.4665 33.1938 51.326 33.2375 51.1822 33.2361H0.5094C0.380754 33.2356 0.256632 33.1902 0.159856 33.1083C0.0630809 33.0265 0.000157371 32.9136 -0.0173445 32.7905C-0.259253 31.2306 -0.155275 29.6389 0.287705 28.1208C0.730684 26.6027 1.50255 25.1928 2.55218 23.9846C3.60182 22.7763 4.90525 21.7972 6.37615 21.1123C7.84706 20.4273 9.45185 20.052 11.0842 20.0112C10.6731 18.4417 10.7749 16.7877 11.3758 15.2763C11.9766 13.7649 13.047 12.4701 14.4401 11.5698C15.8331 10.6694 17.4805 10.2075 19.1562 10.2476C20.8318 10.2876 22.4535 10.8276 23.7988 11.7934C25.066 8.19645 27.5155 5.09799 30.7742 2.96984C34.0329 0.8417 37.9224 -0.199529 41.8504 0.00469636C45.7784 0.208922 49.5297 1.64741 52.5331 4.10114C55.5365 6.55486 57.6274 9.88939 58.4876 13.597C58.5002 13.6595 58.5075 13.7228 58.5094 13.7865C58.511 13.9064 58.4888 14.0255 58.444 14.1374L56.8674 18.1234C55.6214 21.2674 52.0468 23.8429 48.7773 23.9867L21.0742 24.3376C20.9322 24.3472 20.7963 24.3969 20.6832 24.4805C20.5702 24.5641 20.4851 24.6779 20.4385 24.8078C20.4074 24.8854 20.3963 24.9691 20.4059 25.0517C20.4156 25.1343 20.4458 25.2135 20.494 25.2824C20.5421 25.3513 20.6068 25.408 20.6826 25.4476C20.7583 25.4871 20.8428 25.5084 20.9289 25.5096L48.3668 25.8464C49.8163 25.9131 51.0006 26.4815 51.7271 27.45C52.5045 28.5027 52.6752 29.9308 52.2139 31.4782ZM60.2184 14.4605C60.4848 14.4465 60.7391 14.4395 60.9813 14.4395H60.9886C63.3045 14.4422 65.5885 14.9623 67.6618 15.9591C69.7352 16.9559 71.5417 18.4023 72.9403 20.1854C74.3389 21.9685 75.2916 24.0398 75.7238 26.2375C76.1561 28.4352 76.0563 30.6997 75.4322 32.854C75.401 32.9735 75.3286 33.0793 75.2269 33.1539C75.1253 33.2285 75.0004 33.2675 74.8728 33.2645H53.9375C53.8861 33.2617 53.8361 33.2472 53.7916 33.2223C53.7471 33.1973 53.7094 33.1626 53.6814 33.1209C53.6535 33.0791 53.6361 33.0316 53.6307 32.9822C53.6253 32.9328 53.6321 32.8828 53.6505 32.8364L54.09 31.7276C55.336 28.5872 58.8925 26.0152 62.1946 25.8678L68.2722 25.5169C68.4142 25.5073 68.5501 25.4577 68.6631 25.3741C68.7761 25.2905 68.8613 25.1767 68.9079 25.0467C68.9382 24.9677 68.9484 24.8828 68.9377 24.7991C68.9269 24.7155 68.8955 24.6355 68.8461 24.566C68.7995 24.501 68.7378 24.4474 68.6659 24.4096C68.5939 24.3719 68.5138 24.3509 68.432 24.3485L62.5797 23.9976C61.9303 23.997 61.2898 23.852 60.7078 23.5739C60.1257 23.2959 59.6177 22.8922 59.2231 22.394C58.442 21.3414 58.2713 19.9133 58.7363 18.3659L59.8261 14.7658C59.8447 14.7007 59.8796 14.641 59.9277 14.592C59.9759 14.543 60.0358 14.5063 60.1022 14.4851C60.139 14.4699 60.1784 14.4616 60.2184 14.4605ZM99.043 20.9341H102.505V30.0782H108.561V33.0081H99.043V20.9341ZM112.152 26.9869V27.0185C112.152 30.4747 115.022 33.2643 118.866 33.2643C122.709 33.2643 125.615 30.4537 125.615 26.9869V26.9518C125.615 23.4851 122.745 20.7061 118.902 20.7061C115.059 20.7061 112.152 23.5202 112.152 26.9869ZM122.081 26.9869V27.0185C122.081 28.7624 120.795 30.2467 118.902 30.2467C117.009 30.2467 115.705 28.7414 115.705 26.9869V26.9518C115.705 25.2079 116.955 23.7272 118.866 23.7272C120.776 23.7272 122.081 25.2325 122.081 26.9869ZM129.848 27.7202V20.9341H133.368V27.643C133.368 29.3975 134.276 30.215 135.671 30.215C137.066 30.215 137.974 29.422 137.974 27.7308V20.9341H141.491V27.6255C141.491 31.5238 139.187 33.2397 135.635 33.2397C132.082 33.2397 129.848 31.4852 129.848 27.7202ZM151.617 20.9341H146.797V33.0046H151.548C156.046 33.0046 158.672 30.4185 158.672 26.9342V26.8992C158.672 23.4184 156.082 20.9341 151.617 20.9341ZM155.119 27.0009C155.119 28.9518 153.743 30.0571 151.672 30.0571L150.252 30.0431V23.9131H151.672C153.743 23.9131 155.119 25.0359 155.119 26.9693V27.0009ZM163.703 20.9341H173.7V23.8675H167.169V25.9202H173.079V28.6957H167.169V33.0081H163.703V20.9341ZM181.989 20.9341H178.527V33.0081H188.045V30.0782H181.989V20.9341ZM197.126 20.8496H200.465L205.772 33.0078H202.06L201.148 30.8534H196.324L195.434 33.0078H191.801L197.126 20.8496ZM200.16 28.2463L198.768 24.8146L197.344 28.2463H200.16ZM216.137 20.9341H210.227V33.0081H213.692V29.3518H215.211L217.732 33.0081H221.728L218.745 28.7974C219.523 28.5181 220.189 28.0096 220.651 27.344C221.113 26.6783 221.346 25.8893 221.317 25.0886V25.0535C221.344 24.537 221.259 24.0208 221.068 23.5375C220.878 23.0543 220.585 22.6147 220.209 22.2464C219.37 21.4183 218.051 20.9341 216.137 20.9341ZM217.837 25.2991C217.837 26.1763 217.158 26.7307 215.977 26.7307H213.692V23.8324H215.959C217.111 23.8324 217.837 24.3131 217.837 25.264V25.2991ZM226.32 20.9341H236.376V23.7798H229.75V25.6079H235.751V28.2466H229.75V30.1624H236.463V33.0081H226.32V20.9341ZM90.3104 29.749C90.8203 29.4265 91.2191 28.9646 91.4559 28.4221L95.1141 28.4362C94.4348 31.2012 91.8555 33.2644 88.557 33.2644C84.6991 33.2644 81.8438 30.4854 81.8438 27.0186V26.9835C81.8438 23.5097 84.7354 20.7026 88.5933 20.7026C91.9827 20.7026 94.5946 22.8395 95.1613 25.7133H91.5286C91.3085 25.1236 90.9046 24.6142 90.3724 24.2554C89.8402 23.8966 89.206 23.706 88.557 23.7097C86.6644 23.7097 85.3965 25.1835 85.3965 26.9379V26.973C85.3965 28.7134 86.6971 30.2327 88.5933 30.2327C89.2028 30.2399 89.8006 30.0715 90.3104 29.749Z" />
  </g>
  <defs>
    <clipPath id="clip0_18361_7436">
      <rect width="237" height="42" />
    </clipPath>
  </defs>
</svg>