<svg width="207" height="42" viewBox="0 0 207 42" xmlns="http://www.w3.org/2000/svg" fill="url(#gradient)">
 <defs>
    <linearGradient id="gradient" gradientTransform="rotate(90)">
      <stop offset="5%" stop-color="rgba(228, 229, 231, 0.7)" />
      <stop offset="95%" stop-color="#E4E5E7" />
    </linearGradient>
  </defs>
<path fill-rule="evenodd" clip-rule="evenodd" d="M30.6683 5.04334C27.9747 3.8831 25.0402 3.38956 22.1146 3.60486C21.656 3.60486 21.2314 3.60271 20.8301 3.60067C19.9516 3.59622 19.1847 3.59233 18.4186 3.61283C17.3232 3.63866 16.8738 4.03931 16.8502 5.13715C16.8101 7.01796 16.8131 8.90179 16.8711 10.782C16.91 12.0315 17.2305 12.2986 18.4784 12.3112C19.2463 12.3189 20.0144 12.315 20.7825 12.3111H20.7825H20.7825C21.8649 12.3057 22.9473 12.3002 24.0291 12.3271C25.9898 12.3597 27.8593 13.1601 29.2348 14.5558C30.6102 15.9514 31.3816 17.8307 31.3827 19.7888C31.3412 23.7252 27.9779 26.9852 23.9159 27.0153C23.1043 27.0215 22.2926 27.0209 21.4809 27.0203C20.547 27.0196 19.6131 27.0189 18.6795 27.0285C17.3139 27.0424 16.835 27.4646 16.7972 28.8335C16.7505 30.5774 16.7553 32.3199 16.8118 34.0609C16.8576 35.4744 17.2638 35.8419 18.6731 35.8704C19.6326 35.8896 20.5924 35.8885 21.5522 35.8873C22.0937 35.8866 22.6351 35.886 23.1765 35.889C29.4948 35.9244 34.2961 33.2924 37.64 27.8958C38.8439 25.9766 39.6214 23.8218 39.9198 21.5769C40.2182 19.332 40.0306 17.0494 39.3697 14.8831C38.7089 12.7168 37.59 10.7174 36.0889 9.01989C34.5878 7.3224 32.7393 5.96629 30.6683 5.04334ZM129.128 22.9198C129.128 20.1913 130.71 18.394 133.1 18.394C135.492 18.394 137.075 20.1913 137.075 22.9198C137.075 25.6158 135.492 27.4131 133.1 27.4131C130.71 27.4131 129.128 25.6158 129.128 22.9198ZM133.844 31.2649C138.625 31.2649 141.534 27.9589 141.534 22.9198C141.534 17.8806 138.625 14.5743 133.909 14.5743C131.873 14.5743 130.292 15.3447 129.386 16.5323V7.80176H124.894V31.0081H129.385V29.2425C130.291 30.4945 131.97 31.2649 133.844 31.2649ZM57.4258 12.6806V26.8356H59.6894C63.4029 26.8356 66.9572 25.07 66.9572 19.7741C66.9572 14.4783 63.4029 12.6806 59.6877 12.6806H57.4258ZM60.1733 31.0082H52.5806L52.5779 8.5415H60.1733C66.4089 8.5415 71.869 12.1037 71.869 19.7749C71.869 27.4132 66.4089 31.0082 60.1733 31.0082ZM73.7422 34.0568H75.6484C76.3593 34.0568 77.0379 33.5758 77.4577 32.4199L78.0717 30.8152L72.1914 14.8306H76.7794L80.2042 25.2942L83.5965 14.8306H88.215L82.27 31.0076L81.5917 32.9335C80.5254 35.9185 79.4592 37.5554 76.1316 37.5554H73.7422V34.0568ZM89.4063 31.0075H93.9292V22.1488C93.9292 20.0612 95.319 18.5538 97.2897 18.5538C99.1633 18.5538 100.424 19.9661 100.424 21.9242V31.0075H104.947V20.929C104.947 17.2058 102.556 14.5737 98.8738 14.5737C96.6447 14.5737 94.8353 15.5046 93.9292 17.0775V14.8305H89.4061L89.4063 31.0075ZM114.767 18.3934C112.376 18.3934 110.793 20.1908 110.793 22.9192C110.793 25.6152 112.376 27.4122 114.767 27.4126C117.191 27.4126 118.774 25.6152 118.774 22.9192C118.774 20.1908 117.19 18.3934 114.767 18.3934ZM118.482 29.3063C117.673 30.4939 115.962 31.2643 114.056 31.2643C109.242 31.2643 106.367 27.9586 106.367 22.9192C106.367 17.8798 109.242 14.5737 113.991 14.5737C115.962 14.5737 117.577 15.3121 118.482 16.4357V14.8305H123.006V31.0075H118.482V29.3063ZM151.083 18.3934C148.66 18.3934 147.012 20.2229 147.012 22.9192C147.012 25.5831 148.66 27.4126 151.083 27.4126C153.506 27.4126 155.154 25.5831 155.154 22.9192C155.154 20.2229 153.506 18.3934 151.083 18.3934ZM159.678 22.9192C159.678 27.7337 156.09 31.2643 151.083 31.2643C146.076 31.2643 142.488 27.734 142.488 22.9192C142.488 18.1045 146.074 14.5737 151.083 14.5737C156.092 14.5737 159.678 18.1048 159.678 22.9192ZM165.333 22.9193C165.333 20.1909 166.915 18.3935 169.306 18.3935C171.729 18.3935 173.313 20.1909 173.313 22.9193C173.313 25.6154 171.73 27.4127 169.306 27.4127C166.915 27.4123 165.333 25.6154 165.333 22.9193ZM168.596 31.2645C170.502 31.2645 172.215 30.4941 173.022 29.3064V31.0077H177.546V14.8307H173.022V16.4358C172.117 15.3122 170.502 14.5738 168.53 14.5738C163.782 14.5738 160.906 17.8799 160.906 22.9193C160.906 27.9587 163.782 31.2645 168.596 31.2645ZM189.935 18.5538H187.253C185.024 18.5538 184.022 20.3833 184.022 23.1439V31.0076H179.5V14.8306H184.022V17.5269C184.895 15.5046 186.122 14.8306 188.093 14.8306H189.935V18.5538ZM194.459 22.9198C194.459 20.1913 196.042 18.394 198.431 18.394C200.822 18.394 202.406 20.1913 202.406 22.9198C202.406 25.6158 200.823 27.4131 198.431 27.4131C196.041 27.4131 194.459 25.6158 194.459 22.9198ZM197.689 31.2649C199.563 31.2649 201.243 30.4945 202.148 29.2435V31.0091H206.638V7.80176H202.148V16.5323C201.244 15.3447 199.659 14.5743 197.624 14.5743C192.908 14.5743 190 17.8803 190 22.9198C190 27.9592 192.907 31.2649 197.689 31.2649ZM8.33154 13.5776C8.34017 12.2332 8.75499 11.7842 10.0545 11.7663C11.8342 11.7416 13.6142 11.7442 15.3945 11.7739C16.5835 11.7925 17.0399 12.2469 17.0465 13.4407C17.059 15.7036 17.062 17.9666 17.065 20.2295C17.0676 22.1141 17.0701 23.9987 17.0781 25.8832C17.0824 26.9164 16.5614 27.4818 15.5731 27.5036C13.6197 27.5467 11.6656 27.5441 9.71078 27.4957C8.75266 27.4718 8.29668 26.9025 8.30864 25.9154C8.32346 24.7026 8.32421 21.4261 8.32489 18.4934V18.4929V18.4923C8.32538 16.3692 8.32582 14.4264 8.33154 13.5776ZM0.0365686 10.9288C0.0531616 11.787 0.569205 12.2654 1.44697 12.2781C2.42198 12.292 6.39202 12.3019 7.39954 12.2814C8.15552 12.2665 8.71305 11.9265 8.72698 11.1134C8.76217 9.02935 8.77345 6.94442 8.74026 4.86105C8.72698 4.03933 8.19535 3.60223 7.373 3.59691C5.99224 3.58822 4.61132 3.59 3.23046 3.59178C2.66117 3.59251 2.09189 3.59325 1.52264 3.59325C0.590775 3.59325 0.0498432 4.09632 0.0292678 4.985C-0.0168606 6.96531 -0.00391834 8.94817 0.0365686 10.9288Z" />
</svg>
