<svg width="256" height="48" viewBox="0 0 256 48" fill="none" xmlns="http://www.w3.org/2000/svg">
<g clip-path="url(#clip0_17741_19760)">
<path fill-rule="evenodd" clip-rule="evenodd" d="M27.3099 6.08961C27.3099 8.34824 25.4173 10.1792 23.0827 10.1792C22.2914 10.1792 21.551 9.96891 20.9177 9.60291L17.7244 12.6924C18.1012 13.3041 18.3177 14.0191 18.3177 14.7829C18.3177 17.0416 16.4251 18.8726 14.0905 18.8726C13.306 18.8726 12.5715 18.6659 11.9418 18.3057L8.72303 21.4198C9.09585 22.0292 9.30984 22.7403 9.30984 23.4997C9.30984 24.2638 9.09323 24.979 8.71616 25.5909L11.9304 28.7005C12.5625 28.3362 13.3012 28.127 14.0905 28.127C14.87 28.127 15.6002 28.3311 16.2272 28.6871L19.441 25.5778C19.069 24.9688 18.8555 24.2584 18.8555 23.4997C18.8555 21.2412 20.7479 19.4102 23.0827 19.4102C25.4173 19.4102 27.3097 21.2412 27.3097 23.4997C27.3097 25.7584 25.4173 27.5894 23.0827 27.5894C22.2989 27.5894 21.565 27.383 20.9358 27.0234L17.7261 30.1287C18.1019 30.7398 18.3177 31.4538 18.3177 32.2165C18.3177 32.9756 18.1039 33.6865 17.7314 34.2957L20.9295 37.3898C21.5601 37.028 22.2963 36.8203 23.0827 36.8203C25.4173 36.8203 27.3097 38.6513 27.3097 40.9099C27.3097 43.1685 25.4173 44.9995 23.0827 44.9995C20.7479 44.9995 18.8555 43.1685 18.8555 40.9099C18.8555 40.1538 19.0676 39.4456 19.4373 38.838L16.2362 35.7409C15.6072 36.1001 14.8737 36.3062 14.0905 36.3062C11.7558 36.3062 9.86328 34.4752 9.86328 32.2165C9.86328 31.4632 10.0738 30.7575 10.441 30.1514L7.21585 27.0312C6.58967 27.386 5.86071 27.5894 5.08266 27.5894C2.74805 27.5894 0.855469 25.7584 0.855469 23.4997C0.855469 21.2412 2.74805 19.4102 5.08266 19.4102C5.86548 19.4102 6.59861 19.616 7.22735 19.9749L10.4478 16.8592C10.0764 16.2506 9.86328 15.5409 9.86328 14.7829C9.86328 12.5243 11.7558 10.6934 14.0905 10.6934C14.8688 10.6934 15.5979 10.8968 16.2242 11.2518L19.4304 8.15006C19.0649 7.54501 18.8555 6.84097 18.8555 6.08961C18.8555 3.83098 20.7481 2 23.0827 2C25.4173 2 27.3099 3.83098 27.3099 6.08961ZM20.6681 6.08961C20.6681 7.37974 21.7491 8.42559 23.0827 8.42559C24.4162 8.42559 25.4972 7.37974 25.4972 6.08961C25.4972 4.79948 24.4162 3.75362 23.0827 3.75362C21.7491 3.75362 20.6681 4.79948 20.6681 6.08961ZM11.676 14.7829C11.676 16.0731 12.757 17.1188 14.0905 17.1188C15.4239 17.1188 16.5049 16.0731 16.5049 14.7829C16.5049 13.4929 15.4239 12.4471 14.0905 12.4471C12.757 12.4471 11.676 13.4929 11.676 14.7829ZM32.1022 18.8726C34.4368 18.8726 36.3294 17.0416 36.3294 14.7829C36.3294 12.5243 34.4368 10.6934 32.1022 10.6934C29.7676 10.6934 27.875 12.5243 27.875 14.7829C27.875 17.0416 29.7676 18.8726 32.1022 18.8726ZM32.1022 36.3062C34.4368 36.3062 36.3294 34.4752 36.3294 32.2166C36.3294 29.958 34.4368 28.127 32.1022 28.127C29.7676 28.127 27.875 29.958 27.875 32.2166C27.875 34.4752 29.7676 36.3062 32.1022 36.3062ZM45.298 23.4997C45.298 25.7584 43.4055 27.5894 41.0709 27.5894C38.7362 27.5894 36.8438 25.7584 36.8438 23.4997C36.8438 21.2412 38.7362 19.4102 41.0709 19.4102C43.4055 19.4102 45.298 21.2412 45.298 23.4997ZM37.7274 23.4997C37.7274 25.2862 39.2243 26.7346 41.0709 26.7346C42.9175 26.7346 44.4144 25.2862 44.4144 23.4997C44.4144 21.7133 42.9175 20.265 41.0709 20.265C39.2243 20.265 37.7274 21.7133 37.7274 23.4997ZM23.0827 43.2459C21.7491 43.2459 20.6681 42.2 20.6681 40.9099C20.6681 39.6198 21.7491 38.574 23.0827 38.574C24.4161 38.574 25.4972 39.6198 25.4972 40.9099C25.4972 42.2 24.4161 43.2459 23.0827 43.2459ZM14.0905 34.5525C12.7569 34.5525 11.6759 33.5067 11.6759 32.2165C11.6759 30.9263 12.7569 29.8805 14.0905 29.8805C15.4239 29.8805 16.5051 30.9263 16.5051 32.2165C16.5051 33.5067 15.4239 34.5525 14.0905 34.5525ZM5.08266 25.8357C3.74913 25.8357 2.66809 24.7899 2.66809 23.4997C2.66809 22.2097 3.74913 21.1638 5.08266 21.1638C6.41618 21.1638 7.49722 22.2097 7.49722 23.4997C7.49722 24.7899 6.41618 25.8357 5.08266 25.8357ZM20.6681 23.4997C20.6681 24.7899 21.7491 25.8357 23.0827 25.8357C24.4161 25.8357 25.4972 24.7899 25.4972 23.4997C25.4972 22.2097 24.4161 21.1638 23.0827 21.1638C21.7491 21.1638 20.6681 22.2097 20.6681 23.4997ZM68.6147 3.65723V4.25778H61.5336V27.1454H60.8428V4.25778H53.7617V3.65723H68.6147ZM85.6365 10.696C84.2318 9.38365 82.4356 8.7275 80.248 8.7275C78.4288 8.7275 76.8629 9.17236 75.5504 10.0621C74.2377 10.9295 73.3627 12.1974 72.9251 13.8656V2.45508H72.2344V27.1444H72.9251V17.569C72.9251 14.8553 73.593 12.809 74.9286 11.43C76.2642 10.0287 78.0373 9.32805 80.248 9.32805C82.3665 9.32805 84.036 9.95085 85.2565 11.1964C86.4771 12.4198 87.0872 14.2103 87.0872 16.568V27.1444H87.7436V16.6347C87.7436 13.9879 87.0412 12.0083 85.6365 10.696ZM101.571 26.7777C103.666 26.7777 105.428 26.266 106.856 25.2429C108.283 24.2197 109.147 22.8184 109.446 21.039H110.137C109.815 22.9296 108.894 24.4644 107.374 25.6432C105.877 26.7999 103.943 27.3781 101.571 27.3781C99.8435 27.3781 98.3007 27.0111 96.9421 26.2772C95.5834 25.5431 94.5127 24.4755 93.7297 23.0742C92.9698 21.6729 92.5898 20.027 92.5898 18.1363C92.5898 16.2458 92.9698 14.5998 93.7297 13.1985C94.5127 11.7972 95.5834 10.7296 96.9421 9.99555C98.3007 9.26153 99.8435 8.89453 101.571 8.89453C103.39 8.89453 104.944 9.27265 106.234 10.0289C107.523 10.7629 108.491 11.7193 109.135 12.8982C109.803 14.0771 110.137 15.3226 110.137 16.6349C110.137 17.4357 110.125 18.0362 110.102 18.4366H93.2807C93.3038 20.2828 93.6951 21.8286 94.4551 23.0742C95.238 24.3198 96.2513 25.254 97.4948 25.8768C98.7382 26.4774 100.097 26.7777 101.571 26.7777ZM101.571 9.49508C100.097 9.49508 98.7382 9.80648 97.4948 10.4293C96.2513 11.0298 95.238 11.9529 94.4551 13.1985C93.6951 14.4441 93.3038 15.99 93.2807 17.836H109.515C109.63 15.99 109.319 14.4441 108.583 13.1985C107.869 11.9529 106.879 11.0298 105.612 10.4293C104.369 9.80648 103.021 9.49508 101.571 9.49508ZM217.732 26.878C217.986 27.1226 218.308 27.2449 218.699 27.2449C219.067 27.2449 219.379 27.1226 219.632 26.878C219.885 26.6333 220.011 26.3219 220.011 25.9438C220.011 25.5656 219.885 25.2543 219.632 25.0096C219.379 24.7649 219.067 24.6426 218.699 24.6426C218.308 24.6426 217.986 24.7649 217.732 25.0096C217.478 25.2543 217.352 25.5656 217.352 25.9438C217.352 26.3219 217.478 26.6333 217.732 26.878ZM225.636 3.72363V27.1451H224.082V3.72363H225.636ZM236.116 25.9097C237.913 26.9105 239.927 27.411 242.161 27.411C244.395 27.411 246.41 26.9105 248.207 25.9097C250.002 24.8865 251.407 23.463 252.42 21.6391C253.434 19.8152 253.94 17.7578 253.94 15.4668C253.94 13.1535 253.434 11.0961 252.42 9.29443C251.407 7.47053 250.002 6.05812 248.207 5.0572C246.41 4.03405 244.395 3.52246 242.161 3.52246C239.927 3.52246 237.913 4.03405 236.116 5.0572C234.321 6.05812 232.916 7.47053 231.903 9.29443C230.889 11.0961 230.383 13.1535 230.383 15.4668C230.383 17.7578 230.889 19.8152 231.903 21.6391C232.916 23.463 234.321 24.8865 236.116 25.9097ZM247.342 24.7753C245.8 25.6427 244.073 26.0765 242.161 26.0765C240.25 26.0765 238.523 25.6427 236.98 24.7753C235.437 23.9078 234.217 22.6733 233.318 21.0719C232.42 19.4704 231.972 17.6021 231.972 15.4668C231.972 13.3092 232.42 11.4297 233.318 9.82825C234.217 8.22678 235.437 6.99231 236.98 6.12485C238.523 5.25739 240.25 4.82366 242.161 4.82366C244.073 4.82366 245.8 5.25739 247.342 6.12485C248.885 6.99231 250.095 8.22678 250.969 9.82825C251.867 11.4297 252.317 13.3092 252.317 15.4668C252.317 17.6021 251.867 19.4704 250.969 21.0719C250.095 22.6733 248.885 23.9078 247.342 24.7753ZM57.3516 40.5012C57.3516 39.7102 57.5305 39.0036 57.8882 38.3816C58.246 37.7518 58.735 37.2642 59.3551 36.9186C59.9753 36.5653 60.6671 36.3887 61.4303 36.3887C62.3606 36.3887 63.1558 36.6037 63.8157 37.0338C64.4835 37.4562 64.9685 38.0552 65.2707 38.8309H64.2927C64.0542 38.2856 63.6885 37.8594 63.1955 37.5522C62.7105 37.245 62.1221 37.0913 61.4303 37.0913C60.8182 37.0913 60.2656 37.2296 59.7726 37.5061C59.2876 37.7826 58.9059 38.1819 58.6277 38.7042C58.3494 39.2187 58.2102 39.8177 58.2102 40.5012C58.2102 41.1848 58.3494 41.7838 58.6277 42.2984C58.9059 42.8129 59.2876 43.2084 59.7726 43.4849C60.2656 43.7614 60.8182 43.8996 61.4303 43.8996C62.1221 43.8996 62.7105 43.7499 63.1955 43.4503C63.6885 43.1432 64.0542 42.7208 64.2927 42.1831H65.2707C64.9685 42.9512 64.4835 43.5464 63.8157 43.9687C63.1478 44.3911 62.3527 44.6022 61.4303 44.6022C60.6671 44.6022 59.9753 44.4296 59.3551 44.0839C58.735 43.7307 58.246 43.243 57.8882 42.6209C57.5305 41.9988 57.3516 41.2922 57.3516 40.5012ZM81.6759 44.0954C82.3041 44.441 83.0037 44.6139 83.7749 44.6139C84.5541 44.6139 85.2578 44.441 85.8859 44.0954C86.514 43.7422 87.007 43.2545 87.3648 42.6324C87.7226 42.0027 87.9015 41.2922 87.9015 40.5012C87.9015 39.7102 87.7226 39.0036 87.3648 38.3816C87.007 37.7518 86.514 37.2642 85.8859 36.9186C85.2578 36.5653 84.5541 36.3887 83.7749 36.3887C83.0037 36.3887 82.3041 36.5653 81.6759 36.9186C81.0478 37.2642 80.5509 37.7518 80.1851 38.3816C79.8274 39.0036 79.6484 39.7102 79.6484 40.5012C79.6484 41.2922 79.8274 42.0027 80.1851 42.6324C80.5509 43.2545 81.0478 43.7422 81.6759 44.0954ZM85.4447 43.4964C84.9517 43.7728 84.3952 43.9111 83.7749 43.9111C83.1548 43.9111 82.5983 43.7728 82.1053 43.4964C81.6123 43.2199 81.2227 42.8244 80.9364 42.3098C80.6502 41.7876 80.5071 41.1848 80.5071 40.5012C80.5071 39.8177 80.6502 39.2187 80.9364 38.7042C81.2227 38.1896 81.6123 37.7941 82.1053 37.5176C82.5983 37.2412 83.1548 37.1029 83.7749 37.1029C84.3952 37.1029 84.9517 37.2412 85.4447 37.5176C85.9377 37.7941 86.3271 38.1896 86.6135 38.7042C86.8997 39.2187 87.0428 39.8177 87.0428 40.5012C87.0428 41.1848 86.8997 41.7876 86.6135 42.3098C86.3271 42.8244 85.9377 43.2199 85.4447 43.4964ZM108.809 44.5319H107.974L103.358 37.7582V44.5319H102.523V36.4795H103.358L107.974 43.2417V36.4795H108.809V44.5319ZM124.86 44.3374C125.281 44.5217 125.766 44.6139 126.315 44.6139C126.879 44.6139 127.364 44.5101 127.77 44.3028C128.175 44.0954 128.481 43.8228 128.688 43.4849C128.895 43.1469 128.998 42.7898 128.998 42.4135C128.998 41.922 128.883 41.5303 128.653 41.2386C128.421 40.9467 128.139 40.7316 127.805 40.5934C127.471 40.4474 127.034 40.3016 126.493 40.1557C126.024 40.0327 125.651 39.9176 125.372 39.81C125.102 39.7025 124.875 39.5451 124.693 39.3378C124.51 39.1304 124.418 38.8578 124.418 38.5199C124.418 38.0744 124.585 37.7249 124.919 37.4716C125.253 37.2104 125.671 37.0798 126.171 37.0798C126.712 37.0798 127.141 37.2104 127.46 37.4716C127.777 37.7249 127.964 38.0168 128.02 38.347H128.926C128.855 37.771 128.581 37.3025 128.104 36.9416C127.634 36.573 127.014 36.3887 126.243 36.3887C125.718 36.3887 125.253 36.4808 124.848 36.6651C124.442 36.8494 124.128 37.1067 123.905 37.437C123.683 37.7595 123.571 38.1281 123.571 38.5428C123.571 39.0421 123.687 39.4376 123.917 39.7294C124.148 40.0212 124.426 40.2363 124.752 40.3746C125.078 40.5128 125.52 40.6548 126.076 40.8008C126.553 40.9236 126.927 41.0389 127.197 41.1464C127.467 41.2461 127.694 41.4036 127.877 41.6187C128.059 41.826 128.152 42.1026 128.152 42.4481C128.152 42.8782 127.985 43.2353 127.651 43.5195C127.324 43.7959 126.879 43.9342 126.315 43.9342C125.702 43.9342 125.237 43.7882 124.919 43.4964C124.601 43.1969 124.422 42.8513 124.383 42.4596H123.5C123.516 42.8667 123.643 43.2353 123.882 43.5656C124.12 43.8958 124.446 44.1531 124.86 44.3374ZM144.507 36.4795V41.5482C144.507 42.3469 144.702 42.9383 145.092 43.3222C145.489 43.7062 146.029 43.8983 146.714 43.8983C147.397 43.8983 147.93 43.7102 148.312 43.3338C148.702 42.9498 148.897 42.3546 148.897 41.5482V36.4795H149.73V41.5367C149.73 42.5581 149.448 43.3261 148.884 43.8407C148.327 44.3552 147.6 44.6125 146.701 44.6125C145.803 44.6125 145.071 44.3552 144.507 43.8407C143.95 43.3261 143.672 42.5581 143.672 41.5367V36.4795H144.507ZM168.5 43.8752H165.506V36.4795H164.672V44.5319H168.5V43.8752ZM187.661 36.4805V37.1487H185.348V44.5328H184.513V37.1487H182.188V36.4805H187.661ZM202.909 44.5328V36.4805H202.074V44.5328H202.909ZM224.185 44.5319H223.35L218.734 37.7582V44.5319H217.898V36.4795H218.734L223.35 43.2417V36.4795H224.185V44.5319ZM244.621 37.5867C245.114 37.8863 245.48 38.301 245.719 38.8309H246.696C246.395 38.0629 245.909 37.4639 245.242 37.0338C244.574 36.6037 243.795 36.3887 242.904 36.3887C242.133 36.3887 241.433 36.5653 240.804 36.9186C240.177 37.2642 239.68 37.7518 239.314 38.3816C238.956 39.0036 238.777 39.7102 238.777 40.5012C238.777 41.2922 238.956 42.0027 239.314 42.6324C239.68 43.2545 240.177 43.7422 240.804 44.0954C241.433 44.441 242.133 44.6139 242.904 44.6139C243.652 44.6139 244.323 44.4487 244.919 44.1185C245.524 43.7882 246.005 43.339 246.363 42.7706C246.72 42.1947 246.919 41.5534 246.959 40.8468V40.2593H242.57V40.9159H246.076C246.037 41.515 245.874 42.0411 245.588 42.4942C245.309 42.9397 244.936 43.2852 244.466 43.531C244.006 43.7691 243.484 43.8881 242.904 43.8881C242.284 43.8881 241.727 43.7499 241.235 43.4734C240.741 43.1969 240.351 42.8014 240.065 42.2869C239.78 41.7723 239.637 41.1771 239.637 40.5012C239.637 39.8254 239.78 39.2341 240.065 38.7271C240.351 38.2126 240.741 37.8171 241.235 37.5406C241.727 37.2641 242.284 37.1259 242.904 37.1259C243.564 37.1259 244.136 37.2795 244.621 37.5867ZM127.55 3.72168V4.98952H116.601V14.7651H126.169V16.033H116.601V27.1432H115.047V3.72168H127.55ZM131.835 13.1627C131.075 14.564 130.695 16.1987 130.695 18.0672C130.695 19.9356 131.075 21.5815 131.835 23.0051C132.617 24.4063 133.688 25.4962 135.047 26.2747C136.429 27.0309 137.995 27.4091 139.745 27.4091C141.703 27.4091 143.372 26.942 144.753 26.0078C146.158 25.0514 147.136 23.8391 147.689 22.3711V27.1422H149.244V9.02555H147.689V13.7632C147.136 12.3175 146.169 11.1275 144.788 10.1933C143.406 9.25909 141.725 8.79199 139.745 8.79199C137.995 8.79199 136.429 9.17012 135.047 9.92637C133.688 10.6826 132.617 11.7614 131.835 13.1627ZM146.653 13.8967C147.344 15.0978 147.689 16.4879 147.689 18.0672C147.689 19.6686 147.355 21.081 146.688 22.3044C146.02 23.5056 145.088 24.4397 143.889 25.107C142.715 25.752 141.403 26.0745 139.951 26.0745C138.456 26.0745 137.12 25.752 135.945 25.107C134.794 24.4619 133.895 23.5389 133.251 22.3377C132.606 21.1366 132.283 19.7131 132.283 18.0672C132.283 16.4212 132.606 14.9977 133.251 13.7966C133.895 12.5955 134.794 11.6835 135.945 11.0607C137.097 10.4157 138.432 10.0932 139.951 10.0932C141.403 10.0932 142.715 10.4268 143.889 11.0941C145.065 11.7391 145.986 12.6733 146.653 13.8967ZM156.461 13.7969C157.037 12.3289 158.015 11.1278 159.397 10.1936C160.779 9.25937 162.448 8.79227 164.405 8.79227C166.155 8.79227 167.71 9.1704 169.068 9.92665C170.45 10.6829 171.522 11.7617 172.281 13.163C173.064 14.5643 173.455 16.199 173.455 18.0674C173.455 19.9358 173.064 21.5818 172.281 23.0053C171.522 24.4066 170.45 25.4965 169.068 26.275C167.71 27.0312 166.155 27.4094 164.405 27.4094C162.448 27.4094 160.767 26.9422 159.363 26.0081C157.981 25.0739 157.014 23.8727 156.461 22.4047V27.1424H154.906V2.45312H156.461V13.7969ZM171.867 18.0674C171.867 16.4215 171.545 14.9979 170.899 13.7969C170.255 12.5958 169.345 11.6838 168.171 11.061C167.02 10.416 165.683 10.0935 164.164 10.0935C162.714 10.0935 161.4 10.4271 160.226 11.0944C159.052 11.7394 158.13 12.6736 157.462 13.897C156.795 15.098 156.461 16.4882 156.461 18.0674C156.461 19.6689 156.795 21.0813 157.462 22.3046C158.13 23.5058 159.052 24.44 160.226 25.1073C161.4 25.7523 162.714 26.0748 164.164 26.0748C165.683 26.0748 167.02 25.7523 168.171 25.1073C169.345 24.4622 170.255 23.5392 170.899 22.338C171.545 21.1369 171.867 19.7134 171.867 18.0674ZM182.151 9.72487C180.976 10.4144 180.159 11.4264 179.698 12.761V9.02423H178.145V27.1408H179.698V16.6979C179.698 14.407 180.308 12.761 181.529 11.7601C182.749 10.7369 184.282 10.2253 186.124 10.2253H186.641V8.65723C184.822 8.65723 183.325 9.01311 182.151 9.72487ZM191.015 4.98814C190.647 4.98814 190.336 4.87692 190.083 4.6545C189.83 4.40982 189.703 4.0873 189.703 3.68694C189.703 3.30882 189.83 2.99742 190.083 2.75275C190.336 2.50808 190.647 2.38574 191.015 2.38574C191.384 2.38574 191.695 2.50808 191.948 2.75275C192.201 2.99742 192.327 3.30882 192.327 3.68694C192.327 4.0873 192.201 4.40982 191.948 4.6545C191.695 4.87692 191.384 4.98814 191.015 4.98814ZM191.776 9.02517V27.1418H190.221V9.02517H191.776ZM197.644 13.1293C196.885 14.5307 196.504 16.1765 196.504 18.0672C196.504 19.9578 196.885 21.6149 197.644 23.0384C198.427 24.4397 199.498 25.5184 200.857 26.2747C202.239 27.0309 203.815 27.4091 205.589 27.4091C207.915 27.4091 209.837 26.8307 211.358 25.6741C212.878 24.5176 213.822 22.9939 214.19 21.1033H212.566C212.267 22.6603 211.485 23.8836 210.218 24.7734C208.974 25.663 207.432 26.1079 205.589 26.1079C204.207 26.1079 202.952 25.8076 201.823 25.2071C200.696 24.6065 199.786 23.7056 199.095 22.5046C198.427 21.3035 198.093 19.8243 198.093 18.0672C198.093 16.3322 198.427 14.8642 199.095 13.6631C199.786 12.4398 200.696 11.539 201.823 10.9607C202.952 10.3601 204.207 10.0598 205.589 10.0598C207.432 10.0598 208.974 10.5047 210.218 11.3944C211.485 12.2841 212.267 13.5074 212.566 15.0644H214.19C213.822 13.1516 212.878 11.6279 211.358 10.4936C209.861 9.35919 207.938 8.79199 205.589 8.79199C203.815 8.79199 202.239 9.17012 200.857 9.92637C199.498 10.6604 198.427 11.728 197.644 13.1293Z" fill="url(#paint0_linear_17741_19760)"/>
</g>
<defs>
<linearGradient id="paint0_linear_17741_19760" x1="128.092" y1="-1.45531e-07" x2="128.092" y2="48" gradientUnits="userSpaceOnUse">
<stop stop-color="#E4E5E7"/>
<stop offset="1" stop-color="#E4E5E7" stop-opacity="0.7"/>
</linearGradient>
<clipPath id="clip0_17741_19760">
<rect width="255" height="48" fill="white" transform="translate(0.855469)"/>
</clipPath>
</defs>
</svg>
