<svg width="87" height="42" viewBox="0 0 87 42" xmlns="http://www.w3.org/2000/svg" fill="url(#gradient)">
<defs>
    <linearGradient id="gradient" gradientTransform="rotate(90)">
      <stop offset="5%" stop-color="rgba(228, 229, 231, 0.7)" />
      <stop offset="95%" stop-color="#E4E5E7" />
    </linearGradient>
  </defs>
<path fill-rule="evenodd" clip-rule="evenodd" d="M75.8056 31.0855V36.0651L80.0107 36.0614H80.4519C80.998 36.0435 81.5348 35.9154 82.0302 35.6848C82.5254 35.4541 82.969 35.1257 83.3341 34.7192C83.6992 34.3127 83.9784 33.8367 84.1548 33.3195C84.3313 32.8025 84.4013 32.2551 84.3607 31.7102V24.3982V24.3338C84.3611 24.0451 84.4644 23.7662 84.6516 23.5466C84.839 23.327 85.0983 23.1812 85.3832 23.1354H86.1417V19.0308H85.3832C85.0983 18.9849 84.839 18.8392 84.6516 18.6196C84.4644 18.4 84.3611 18.121 84.3607 17.8324V17.7679V10.456C84.3448 9.30726 83.8815 8.21002 83.0695 7.39732C82.2575 6.58463 81.1608 6.1205 80.012 6.10352H75.8056V11.0843H78.3648C78.6416 11.1007 78.9014 11.2223 79.0916 11.4241C79.2816 11.6259 79.3875 11.8927 79.3873 12.1699V12.2344V18.2661C79.3871 18.8967 79.5894 19.5106 79.9642 20.0176C80.339 20.5248 80.8664 20.8982 81.4694 21.0831C80.8664 21.268 80.339 21.6414 79.9642 22.1485C79.5894 22.6555 79.3871 23.2695 79.3873 23.9V29.9367V29.9999C79.3875 30.2771 79.2816 30.544 79.0916 30.7457C78.9014 30.9476 78.6416 31.0691 78.3648 31.0855H75.8056ZM48.6491 36.0651H49.0903L53.2917 36.0614V31.0818H50.7312C50.4545 31.0653 50.1945 30.9439 50.0043 30.742C49.8143 30.5402 49.7086 30.2734 49.7088 29.9962V29.933V23.9C49.7089 23.2695 49.5067 22.6555 49.132 22.1485C48.7571 21.6414 48.2295 21.268 47.6267 21.0831C48.2295 20.8982 48.7571 20.5248 49.132 20.0176C49.5067 19.5106 49.7089 18.8967 49.7088 18.2661V12.2331V12.1687C49.7086 11.8915 49.8143 11.6247 50.0043 11.4229C50.1945 11.2211 50.4545 11.0995 50.7312 11.0831H53.2917V6.10352H49.0903C47.9413 6.12051 46.8444 6.58481 46.0324 7.39777C45.2202 8.21073 44.7571 9.30827 44.7415 10.4572V17.7691V17.8336C44.741 18.1222 44.638 18.4012 44.4506 18.6208C44.2633 18.8404 44.0039 18.9862 43.719 19.032H42.9604V23.1391H43.719C44.0039 23.1849 44.2633 23.3307 44.4506 23.5503C44.638 23.7699 44.741 24.0489 44.7415 24.3375V24.4019V31.7139C44.7008 32.2587 44.771 32.806 44.9473 33.323C45.1237 33.84 45.4028 34.3161 45.7678 34.7225C46.1328 35.1289 46.5761 35.4573 47.0712 35.6881C47.5664 35.9189 48.1032 36.047 48.6491 36.0651ZM28.7217 33.9731C29.8805 35.3674 31.5251 36.0651 34.16 36.0651L40.1695 36.0663V30.8848H35.7228C35.23 30.933 34.733 30.8606 34.2745 30.6741C33.8159 30.4876 33.4096 30.1924 33.0904 29.814C32.4739 28.7373 32.1993 27.4985 32.3033 26.2621V6.1977H21.8484V11.3483H26.9867V27.147C26.9867 30.3048 27.563 32.5789 28.7217 33.9731ZM4.50865 19.9714V35.9089H9.82548V19.9652H17.2503V14.884H9.82548V12.5925C9.82548 11.7449 10.2036 11.321 10.9645 11.321H17.2503V6.23984H8.76964C8.20435 6.22626 7.64233 6.33054 7.11956 6.54604C6.59679 6.76154 6.12465 7.08355 5.73317 7.49154C5.33295 7.89517 5.01839 8.37543 4.8082 8.90355C4.59801 9.43167 4.49659 9.99679 4.51001 10.565V14.8902H0V19.9714H4.50865ZM55.8945 36.1033H61.6476L73.109 6.10449H67.2742L55.8945 36.1033Z" />
</svg>
