<svg width="163" height="48" viewBox="0 0 163 48" fill="none" xmlns="http://www.w3.org/2000/svg">
<g clip-path="url(#clip0_17741_19711)">
<path fill-rule="evenodd" clip-rule="evenodd" d="M44.5712 0.537843C47.2898 3.67983 48.1337 12.1904 46.7308 16.4564C46.2646 17.8749 46.1333 19.3736 46.4019 20.8295C46.6758 22.2747 46.9497 24.0197 46.9497 25.2347C46.9497 37.7064 36.5968 47.8225 23.8212 47.8225C11.0511 47.8225 0.692567 37.7117 0.692567 25.2347C0.692567 24.0197 0.966602 22.2747 1.24064 20.8295C1.51468 19.3736 1.38862 17.8749 0.922756 16.4564C-0.480308 12.1958 0.363722 3.68516 3.08216 0.537843C3.4384 0.131046 4.10158 0.184572 4.39753 0.639541L7.74624 5.77267C8.57932 6.79501 10.0701 7.03592 11.1881 6.31867C14.8218 3.99563 19.1626 2.64676 23.8267 2.64676C28.4908 2.64676 32.8314 3.99563 36.4651 6.31867C37.5889 7.03592 39.0796 6.80038 39.9073 5.77267L43.2558 0.639541C43.5519 0.184572 44.2149 0.125693 44.5712 0.537843ZM5.91572 25.2883C5.91572 34.9336 13.945 42.7807 23.8212 42.7807C33.6975 42.7807 41.7321 34.9336 41.7377 25.2936C41.7377 24.9831 41.7268 24.6674 41.7102 24.3569C41.354 17.7892 37.2654 12.169 31.4833 9.49272C29.1594 8.40615 26.567 7.80667 23.8267 7.80667C21.0864 7.80667 18.4885 8.40615 16.1701 9.48741C10.3879 12.1637 6.29932 17.7786 5.94309 24.3515C5.92664 24.662 5.91572 24.9724 5.91572 25.2883ZM27.0047 24.2711L31.5811 32.0218C31.6744 32.1771 31.6744 32.3697 31.5811 32.5196C31.4934 32.6748 31.3234 32.7711 31.1372 32.7711H27.4158C27.2349 32.7711 27.065 32.6748 26.9718 32.5196L24.5275 28.3819L21.8035 32.5355C21.7104 32.6801 21.5459 32.7658 21.3706 32.7658H17.5943C17.4025 32.7658 17.2271 32.6639 17.1395 32.5034C17.0518 32.3428 17.0573 32.145 17.1614 31.9897L22.1982 24.4852L18.4439 18.3244C18.3507 18.1692 18.3452 17.9765 18.4384 17.8213C18.5315 17.6607 18.7014 17.5643 18.8878 17.5643H22.6366C22.8175 17.5643 22.9874 17.6554 23.0806 17.8106L27.0047 24.2711ZM68.2801 12.3037H73.0538V37.8675H68.2801V26.9751H62.887V37.8731H58.1133V12.3037H62.887V23.405H68.2801V12.3037ZM86.7832 32.5629L87.7809 37.8725H92.582L87.0626 12.3086H80.634L75.3672 37.8725H80.1409L81.0563 32.5629H86.7832ZM86.1203 29.0354H81.6809L83.8403 16.7994L86.1203 29.0354ZM103.214 33.2103V27.7401C103.214 27.3065 103.132 27.0175 102.968 26.8676C102.803 26.7177 102.496 26.6428 102.052 26.6428H98.6928C95.8425 26.6428 94.418 25.294 94.418 22.5909V16.3177C94.418 13.6413 95.9083 12.3086 98.8951 12.3086H103.461C106.448 12.3086 107.939 13.6467 107.939 16.3177V19.8825H103.127V16.9653C103.127 16.5317 103.044 16.2427 102.88 16.0928C102.716 15.943 102.409 15.8681 101.965 15.8681H100.387C99.9151 15.8681 99.5968 15.943 99.4328 16.0928C99.2683 16.2427 99.186 16.5317 99.186 16.9653V22.1092C99.186 22.5427 99.2683 22.8317 99.4328 22.9816C99.5968 23.1315 99.9151 23.2064 100.387 23.2064H103.664C106.568 23.2064 108.021 24.5285 108.021 27.1781V33.8636C108.021 36.5397 106.514 37.8725 103.499 37.8725H99.0163C96.002 37.8725 94.4945 36.5344 94.4945 33.8636V30.3361H99.2625V33.2103C99.2625 33.6439 99.3448 33.9331 99.5094 34.083C99.674 34.2327 99.9917 34.3077 100.463 34.3077H102.041C102.485 34.3077 102.787 34.2327 102.957 34.083C103.127 33.9331 103.214 33.6439 103.214 33.2103ZM125.528 12.3037H120.76V33.2109C120.76 33.6445 120.677 33.9334 120.513 34.0833C120.349 34.2333 120.03 34.3081 119.559 34.3081H117.362C116.918 34.3081 116.61 34.2333 116.446 34.0833C116.282 33.9334 116.2 33.6445 116.2 33.2109V12.3037H111.426V33.8586C111.426 36.5294 112.933 37.8675 115.948 37.8675H121.006C124.021 37.8675 125.528 36.5347 125.528 33.8586V12.3037ZM134.241 27.9065V37.8731H129.473V12.3037H139.097C142.112 12.3037 143.618 13.6418 143.618 16.3128V23.8921C143.618 26.1081 142.61 27.4034 140.588 27.7834L144.945 37.8731H139.799L135.814 27.9065H134.241ZM134.241 15.8685V24.4594H137.683C138.127 24.4594 138.429 24.3845 138.598 24.2346C138.763 24.0847 138.845 23.7957 138.845 23.3622V16.9658C138.845 16.5322 138.763 16.2432 138.598 16.0933C138.434 15.9434 138.127 15.8685 137.683 15.8685H134.241ZM157.059 32.5629L158.057 37.8725H162.863L157.344 12.3086H150.915L145.648 37.8725H150.416L151.332 32.5629H157.059ZM156.402 29.0354H151.962L154.122 16.7994L156.402 29.0354Z" fill="url(#paint0_linear_17741_19711)"/>
</g>
<defs>
<linearGradient id="paint0_linear_17741_19711" x1="81.5586" y1="0.260742" x2="81.5586" y2="47.8225" gradientUnits="userSpaceOnUse">
<stop stop-color="#E4E5E7"/>
<stop offset="1" stop-color="#E4E5E7" stop-opacity="0.7"/>
</linearGradient>
<clipPath id="clip0_17741_19711">
<rect width="162.857" height="48" fill="white"/>
</clipPath>
</defs>
</svg>
