<svg width="143" height="42" viewBox="0 0 143 42" xmlns="http://www.w3.org/2000/svg"
  fill="url(#gradient)">
  <defs>
    <linearGradient id="gradient" gradientTransform="rotate(90)">
      <stop offset="5%" stop-color="#E4E5E7" />
      <stop offset="95%" stop-color="rgba(228, 229, 231, 0.7)" />
    </linearGradient>
  </defs>
  <g clip-path="url(#clip0_18361_7408)">
    <path fill-rule="evenodd" clip-rule="evenodd"
      d="M39.0002 0.470979C41.379 3.22021 42.1175 10.667 40.8899 14.3997C40.482 15.6409 40.3671 16.9523 40.6021 18.2262C40.8418 19.4907 41.0815 21.0176 41.0815 22.0807C41.0815 32.9935 32.0226 41.8451 20.844 41.8451C9.67019 41.8451 0.606485 32.9981 0.606485 22.0807C0.606485 21.0176 0.846265 19.4907 1.08605 18.2262C1.32583 16.9523 1.21553 15.6409 0.8079 14.3997C-0.419781 10.6716 0.318745 3.22488 2.69738 0.470979C3.00908 0.115031 3.58937 0.161867 3.84833 0.559964L6.77844 5.05145C7.50739 5.946 8.81179 6.1568 9.79009 5.5292C12.9696 3.49654 16.7677 2.31628 20.8488 2.31628C24.9299 2.31628 28.7279 3.49654 31.9074 5.5292C32.8907 6.1568 34.1951 5.9507 34.9193 5.05145L37.8493 0.559964C38.1084 0.161867 38.6885 0.110348 39.0002 0.470979ZM5.17674 22.1276C5.17674 30.5672 12.2023 37.4334 20.844 37.4334C29.4858 37.4334 36.516 30.5672 36.5209 22.1322C36.5209 21.8606 36.5114 21.5843 36.4969 21.3126C36.1852 15.5659 32.6077 10.6482 27.5484 8.3065C25.515 7.35575 23.2466 6.8312 20.8488 6.8312C18.451 6.8312 16.1779 7.35575 14.1493 8.30185C9.08994 10.6436 5.51239 15.5566 5.20069 21.3079C5.18629 21.5796 5.17674 21.8512 5.17674 22.1276ZM23.6311 21.2376L27.6354 28.0194C27.7171 28.1553 27.7171 28.3238 27.6354 28.455C27.5587 28.5908 27.41 28.6751 27.247 28.6751H23.9908C23.8325 28.6751 23.6839 28.5908 23.6023 28.455L21.4635 24.8345L19.0801 28.4689C18.9986 28.5954 18.8547 28.6704 18.7012 28.6704H15.397C15.2292 28.6704 15.0757 28.5813 14.999 28.4408C14.9223 28.3003 14.9271 28.1272 15.0182 27.9913L19.4254 21.4249L16.1404 16.0342C16.0588 15.8984 16.054 15.7298 16.1356 15.594C16.2171 15.4534 16.3657 15.3691 16.5288 15.3691H19.809C19.9673 15.3691 20.1159 15.4488 20.1975 15.5846L23.6311 21.2376ZM59.7437 10.7661H63.9207V33.1345H59.7437V23.6036H55.0247V33.1394H50.8477V10.7661H55.0247V20.4797H59.7437V10.7661ZM75.9343 28.4931L76.8073 33.139H81.0083L76.1788 10.7705H70.5538L65.9453 33.139H70.1223L70.9233 28.4931H75.9343ZM75.3543 25.4065H71.4698L73.3593 14.7L75.3543 25.4065ZM90.3137 29.0595V24.2731C90.3137 23.8937 90.2422 23.6408 90.0982 23.5097C89.9542 23.3785 89.6857 23.313 89.2972 23.313H86.3577C83.8637 23.313 82.6172 22.1327 82.6172 19.7675V14.2785C82.6172 11.9367 83.9212 10.7705 86.5347 10.7705H90.5297C93.1432 10.7705 94.4477 11.9414 94.4477 14.2785V17.3977H90.2372V14.8452C90.2372 14.4658 90.1652 14.2129 90.0217 14.0817C89.8777 13.9506 89.6092 13.8851 89.2207 13.8851H87.8397C87.4272 13.8851 87.1487 13.9506 87.0052 14.0817C86.8612 14.2129 86.7892 14.4658 86.7892 14.8452V19.346C86.7892 19.7254 86.8612 19.9783 87.0052 20.1094C87.1487 20.2406 87.4272 20.3061 87.8397 20.3061H90.7072C93.2487 20.3061 94.5197 21.463 94.5197 23.7813V29.6311C94.5197 31.9728 93.2012 33.139 90.5632 33.139H86.6407C84.0032 33.139 82.6842 31.9681 82.6842 29.6311V26.5446H86.8562V29.0595C86.8562 29.4389 86.9282 29.692 87.0722 29.8231C87.2162 29.9541 87.4942 30.0198 87.9067 30.0198H89.2877C89.6762 30.0198 89.9397 29.9541 90.0887 29.8231C90.2372 29.692 90.3137 29.4389 90.3137 29.0595ZM109.835 10.7661H105.663V29.0599C105.663 29.4393 105.591 29.6921 105.447 29.8233C105.304 29.9545 105.025 30.0199 104.613 30.0199H102.69C102.302 30.0199 102.033 29.9545 101.889 29.8233C101.745 29.6921 101.673 29.4393 101.673 29.0599V10.7661H97.4961V29.6266C97.4961 31.9636 98.8151 33.1345 101.453 33.1345H105.879C108.517 33.1345 109.835 31.9683 109.835 29.6266V10.7661ZM117.462 24.4186V33.1394H113.289V10.7661H121.711C124.348 10.7661 125.667 11.937 125.667 14.2741V20.9059C125.667 22.8449 124.785 23.9783 123.015 24.3108L126.828 33.1394H122.325L118.838 24.4186H117.462ZM117.462 13.8853V21.4024H120.473C120.862 21.4024 121.126 21.3368 121.274 21.2057C121.418 21.0745 121.49 20.8216 121.49 20.4423V14.8455C121.49 14.4661 121.418 14.2132 121.274 14.082C121.13 13.9509 120.862 13.8853 120.473 13.8853H117.462ZM137.426 28.4931L138.299 33.139H142.504L137.675 10.7705H132.05L127.441 33.139H131.613L132.414 28.4931H137.426ZM136.85 25.4065H132.966L134.855 14.7L136.85 25.4065Z" />
  </g>
  <defs>
    <clipPath id="clip0_18361_7408">
      <rect width="143" height="42" />
    </clipPath>
  </defs>
</svg>