<svg width="77" height="48" viewBox="0 0 77 48" fill="none" xmlns="http://www.w3.org/2000/svg">
<path d="M1.39453 7V16.35H11.0746V7H1.39453Z" fill="url(#paint0_linear_17741_19721)"/>
<path d="M11.0746 19.75H1.39453V41H11.0746V19.75Z" fill="url(#paint1_linear_17741_19721)"/>
<path d="M24.2746 41H14.5946V7H24.2746V41Z" fill="url(#paint2_linear_17741_19721)"/>
<path d="M27.7947 7V41H37.4747V7H27.7947Z" fill="url(#paint3_linear_17741_19721)"/>
<path fill-rule="evenodd" clip-rule="evenodd" d="M58.5948 7C68.3151 7 76.1949 14.6111 76.1949 24V41H66.5149V39.1856C64.1343 40.3463 61.4436 41 58.5948 41C48.8746 41 40.9947 33.3889 40.9947 24C40.9947 14.6111 48.8746 7 58.5948 7ZM58.5948 31.65C62.9689 31.65 66.5149 28.225 66.5149 24C66.5149 19.775 62.9689 16.35 58.5948 16.35C54.2207 16.35 50.6748 19.775 50.6748 24C50.6748 28.225 54.2207 31.65 58.5948 31.65Z" fill="url(#paint4_linear_17741_19721)"/>
<defs>
<linearGradient id="paint0_linear_17741_19721" x1="39" y1="-2" x2="39" y2="46" gradientUnits="userSpaceOnUse">
<stop stop-color="#E4E5E7"/>
<stop offset="1" stop-color="#E4E5E7" stop-opacity="0.7"/>
</linearGradient>
<linearGradient id="paint1_linear_17741_19721" x1="39" y1="-2" x2="39" y2="46" gradientUnits="userSpaceOnUse">
<stop stop-color="#E4E5E7"/>
<stop offset="1" stop-color="#E4E5E7" stop-opacity="0.7"/>
</linearGradient>
<linearGradient id="paint2_linear_17741_19721" x1="39" y1="-2" x2="39" y2="46" gradientUnits="userSpaceOnUse">
<stop stop-color="#E4E5E7"/>
<stop offset="1" stop-color="#E4E5E7" stop-opacity="0.7"/>
</linearGradient>
<linearGradient id="paint3_linear_17741_19721" x1="39" y1="-2" x2="39" y2="46" gradientUnits="userSpaceOnUse">
<stop stop-color="#E4E5E7"/>
<stop offset="1" stop-color="#E4E5E7" stop-opacity="0.7"/>
</linearGradient>
<linearGradient id="paint4_linear_17741_19721" x1="39" y1="-2" x2="39" y2="46" gradientUnits="userSpaceOnUse">
<stop stop-color="#E4E5E7"/>
<stop offset="1" stop-color="#E4E5E7" stop-opacity="0.7"/>
</linearGradient>
</defs>
</svg>
