<svg width="131" height="48" viewBox="0 0 131 48" fill="none" xmlns="http://www.w3.org/2000/svg">
<g clip-path="url(#clip0_17741_19723)">
<path fill-rule="evenodd" clip-rule="evenodd" d="M91.2305 10.9591L91.2544 34.2489C91.2544 38.1313 92.7383 39.5191 96.6518 39.5295C97.763 39.5295 99.783 39.2465 100.689 38.691V34.3685H97.6933L97.6825 15.0112V10.1709L91.2305 10.9591ZM52.168 25.3252H54.6477L54.6455 33.9913C54.6455 38.3139 57.1601 39.7016 60.7881 39.7016C63.2133 39.7016 65.2399 39.2257 67.1356 38.1147L66.1877 34.3414C65.1157 34.6579 64.1678 34.8969 63.2199 34.8969C61.566 34.8969 60.9124 34.3015 60.9124 32.3185V25.323H66.7238L66.7368 21.1179H60.9166V15.1875L54.7 16.026V21.12H52.168V25.3252ZM42.6819 20.1289C36.694 20.1289 32.3359 23.8959 32.3359 30.4385C32.3359 36.4675 35.757 39.6789 41.9409 39.6706C46.2271 39.6706 49.6482 38.5994 51.3805 36.9747L49.9838 33.0924C47.8876 34.164 45.5544 34.7348 43.1809 34.7569C39.4722 34.7569 38.3174 32.5013 38.3174 29.7258C38.3174 26.0362 40.5442 24.8476 42.3986 24.8476C43.2637 24.8476 44.0067 24.9273 44.3358 25.1642L45.325 27.7825L49.5719 27.5037C50.0231 26.6157 50.2472 25.6368 50.2256 24.6485C50.2256 20.9213 46.1858 20.1289 42.6819 20.1289ZM68.6055 30.5576C68.6055 24.4113 72.0679 20.2061 79.117 20.2061C85.301 20.2061 88.4736 23.6167 88.4736 29.2495C88.4736 36.1484 84.6821 39.6785 77.8401 39.6785C72.6453 39.6785 68.6055 36.8235 68.6055 30.5576ZM78.4568 24.5685C76.0598 24.5685 74.8308 26.3146 74.8308 29.8448C74.8308 32.9767 75.6131 35.4357 78.4982 35.4357C81.3832 35.4357 82.2504 33.4525 82.2504 29.9224C82.2504 26.7507 81.2611 24.5685 78.4568 24.5685ZM104.654 26.1952V20.6966H110.86C110.86 20.6966 110.838 21.5142 110.838 25.8766V39.1021H104.641C104.654 38.121 104.654 28.019 104.654 26.1952ZM104.079 14.8144C104.079 12.7915 105.726 11.6406 108.001 11.6406C109.855 11.6406 111.38 12.5923 111.38 14.6153C111.38 16.7116 109.938 17.9065 107.423 17.9065C105.351 17.8981 104.074 16.6403 104.074 14.8144H104.079ZM122.037 35.1959C120.099 35.1959 117.502 34.6425 115.687 33.1352L114.203 37.049C115.687 38.7534 118.986 39.7449 122.242 39.7449C127.354 39.7449 130.816 37.3321 130.816 33.2464C130.816 28.9883 127.005 28.2801 123.982 27.7183C121.994 27.3488 120.346 27.0426 120.346 25.8318C120.346 24.88 121.334 24.4838 123.068 24.4838C124.427 24.4838 126.358 24.7208 128.754 25.7122L129.826 21.8257C127.683 20.2787 124.714 20.002 122.984 20.002C117.626 20.002 114.905 22.6978 114.905 26.0686C114.905 29.4856 117.748 30.5966 120.47 31.3094C120.588 31.3409 120.714 31.3737 120.846 31.4081C122.552 31.8532 125.251 32.557 125.251 33.8082C125.251 34.7599 123.726 35.1959 122.037 35.1959ZM18.5742 24.336C20.0522 24.336 21.2502 23.1835 21.2502 21.7618C21.2502 20.34 20.0522 19.1875 18.5742 19.1875C17.0964 19.1875 15.8984 20.34 15.8984 21.7618C15.8984 23.1835 17.0964 24.336 18.5742 24.336ZM17.6791 12.1923C26.0857 12.1923 30.6224 16.7559 30.6224 25.3234C30.6224 32.4069 27.7287 36.8112 22.7322 38.6518C23.0817 39.4515 23.3467 40.283 23.5232 41.1337C23.6361 41.803 23.7009 42.4788 23.7171 43.1566C23.74 43.7518 23.5328 44.334 23.1355 44.7908C22.7384 45.2476 22.1794 45.5467 21.5664 45.6303C21.2067 45.6815 20.8397 45.6571 20.4907 45.5588C20.1418 45.4603 19.8192 45.2902 19.5451 45.0603C19.2712 44.8303 19.0522 44.5459 18.9034 44.2267C18.7547 43.9075 18.6797 43.561 18.6837 43.2112C18.7009 42.7737 18.6747 42.3357 18.6052 41.9031C18.2412 40.136 17.6573 39.6831 16.8228 39.6496H16.5307C16.2257 39.6496 15.9271 39.6411 15.6286 39.6286C15.4949 40.6738 15.2807 41.708 14.9881 42.7227C14.3518 45.1607 13.2361 48.0956 11.737 47.7957C9.97851 47.4457 7.99997 46.2131 8.95873 43.1461C9.07809 42.7448 9.20209 42.3576 9.32061 41.9876C9.91831 40.1215 10.3765 38.691 9.39453 38.0752L9.08948 37.8991C8.23312 37.3625 7.35499 37.7 6.33303 39.2093C6.10036 39.5859 5.90624 39.9833 5.75341 40.3958C5.6213 40.7217 5.41734 41.0162 5.15559 41.259C4.89384 41.5019 4.5805 41.6872 4.23716 41.8023C3.89382 41.9175 3.52861 41.9597 3.1667 41.9261C2.80477 41.8925 2.45471 41.7838 2.14062 41.6075C1.60402 41.3098 1.20106 40.8314 1.00952 40.2646C0.817977 39.6978 0.851429 39.0829 1.10342 38.5386C1.38124 37.9157 1.70303 37.312 2.06654 36.7315C2.8659 35.5024 3.9012 34.431 5.11714 33.5745C4.1671 31.6312 3.65504 29.1996 3.65504 26.2374C3.65504 17.1961 9.27251 12.1923 17.6791 12.1923ZM10.4797 25.6442C10.4797 30.8493 12.1858 34.5723 17.1801 34.5723C21.549 34.5723 23.8392 32.0106 23.8392 25.8454C23.8392 20.2399 21.5077 17.3177 17.263 17.3177C13.0183 17.3177 10.4797 20.1938 10.4797 25.6442Z" fill="url(#paint0_linear_17741_19723)"/>
</g>
<defs>
<linearGradient id="paint0_linear_17741_19723" x1="66.2078" y1="0.205768" x2="66.2078" y2="48" gradientUnits="userSpaceOnUse">
<stop stop-color="#E4E5E7"/>
<stop offset="1" stop-color="#E4E5E7" stop-opacity="0.7"/>
</linearGradient>
<clipPath id="clip0_17741_19723">
<rect width="130" height="48" fill="white" transform="translate(0.855469)"/>
</clipPath>
</defs>
</svg>
