<svg width="172" height="42" viewBox="0 0 172 42" fill="none" xmlns="http://www.w3.org/2000/svg">
<g clip-path="url(#clip0_20194_6623)">
<path d="M107.282 11.3115V7.60254H94.1093C91.8937 7.60254 90.1055 9.39081 90.1055 11.6064V33.9737H94.2834V22.9631H105.854V19.2518H94.2834V11.3254H107.282V11.3115Z" fill="#E4E5E7"/>
<path d="M127.517 17.8075C127.849 17.7866 128.181 17.7913 128.529 17.8238C128.583 17.8284 128.638 17.8377 128.692 17.8447L128.866 17.8679C128.95 17.8795 129.033 17.8888 129.115 17.9051C129.198 17.9213 129.279 17.9399 129.358 17.9608L129.509 17.998C129.567 18.0119 129.625 18.0235 129.681 18.0398C129.795 18.0723 129.906 18.1118 130.025 18.1536L130.085 18.1745C130.132 18.1907 130.178 18.207 130.225 18.2232C130.348 18.2697 130.466 18.3231 130.619 18.3928L130.749 18.4532C130.882 18.5182 131.012 18.5879 131.137 18.6622L131.233 18.7179C131.372 18.8015 131.507 18.8898 131.653 18.9966L131.676 19.0129C132.459 19.5819 133.111 20.3367 133.569 21.1983L133.722 21.4886L136.079 17.9956L135.991 17.8819C135.808 17.6519 135.633 17.4452 135.457 17.2525L135.329 17.1108C135.28 17.0551 135.232 16.9993 135.178 16.9459C135.134 16.9018 135.09 16.8623 135.044 16.8228C135.013 16.7973 134.983 16.7717 134.955 16.7439L134.909 16.7021C134.616 16.4303 134.303 16.1702 133.973 15.9264L133.848 15.8335C133.687 15.7197 133.522 15.6082 133.355 15.506C133.304 15.4735 133.253 15.4456 133.202 15.4154L133.132 15.3736C132.886 15.2296 132.64 15.0973 132.401 14.9788C132.257 14.9091 132.11 14.8395 131.962 14.7744C131.939 14.7652 131.915 14.7535 131.892 14.7419C131.857 14.7257 131.822 14.7071 131.785 14.6932C131.748 14.6792 131.711 14.6653 131.674 14.6537C131.648 14.6444 131.623 14.6374 131.599 14.6281C131.423 14.5608 131.244 14.4981 131.063 14.44L130.965 14.4075C130.91 14.3889 130.852 14.3703 130.796 14.3518C130.545 14.2774 130.28 14.2147 129.992 14.1544C129.927 14.1404 129.862 14.1288 129.795 14.1195L129.714 14.1056C129.507 14.0684 129.298 14.0382 129.089 14.015L129.029 14.008C128.957 14.0011 128.887 13.9918 128.815 13.9848C128.213 13.9337 127.763 13.9314 127.275 13.9639C124.249 14.1567 121.374 15.8544 119.588 18.5019L113.401 27.6709V7.60278H109.551V33.974H113.794L122.777 20.6572C123.901 18.9896 125.673 17.926 127.517 17.8075Z" fill="#E4E5E7"/>
<path d="M171.599 14.2844H167.347L162.913 27.657L158.559 14.6305L158.443 14.2844H155.029L154.913 14.6305L150.523 27.657L146.241 14.6305L146.127 14.2844H142.07L141.993 14.3982L133.075 27.6175C131.951 29.285 130.179 30.351 128.335 30.4671C128.201 30.4764 128.068 30.481 127.931 30.481C127.736 30.4694 127.527 30.4717 127.32 30.4532C127.272 30.4485 127.223 30.4416 127.176 30.4346L127.014 30.4114C126.921 30.3998 126.828 30.3881 126.735 30.3696C126.658 30.3556 126.584 30.337 126.507 30.3185L126.35 30.2813C126.287 30.2674 126.226 30.2534 126.164 30.2349C126.055 30.2047 125.95 30.1675 125.829 30.1234L125.767 30.1025C125.718 30.0862 125.667 30.07 125.618 30.0491C125.497 30.0026 125.381 29.9515 125.265 29.8981L125.221 29.8772C125.179 29.8586 125.135 29.8377 125.093 29.8191C124.965 29.7541 124.838 29.6868 124.712 29.6124L124.608 29.5497C124.473 29.4661 124.341 29.3802 124.211 29.2896L124.162 29.2548C123.382 28.6858 122.731 27.931 122.276 27.074L122.123 26.7837L119.766 30.2767L119.854 30.3905C120.035 30.6181 120.209 30.8224 120.388 31.0198L120.516 31.1615C120.565 31.2172 120.613 31.273 120.667 31.3264C120.711 31.3705 120.757 31.41 120.804 31.4518C120.834 31.4774 120.864 31.5052 120.892 31.5308L120.924 31.561C121.219 31.835 121.535 32.0974 121.865 32.3413L122 32.4412C122.16 32.555 122.32 32.6618 122.485 32.7663C122.536 32.7988 122.59 32.829 122.643 32.8615L122.72 32.9057C122.961 33.0473 123.203 33.1774 123.44 33.2935C123.586 33.3655 123.732 33.4352 123.881 33.4979C123.904 33.5072 123.927 33.5188 123.951 33.5304C123.985 33.549 124.023 33.5652 124.057 33.5792C124.095 33.5954 124.134 33.607 124.171 33.621L124.245 33.6465C124.422 33.7139 124.601 33.7766 124.782 33.8346L124.88 33.8671C124.935 33.8857 124.991 33.9043 125.047 33.9206C125.295 33.9925 125.56 34.0576 125.853 34.118C125.918 34.1319 125.983 34.1412 126.05 34.1528L126.127 34.1667C126.336 34.2039 126.547 34.2341 126.758 34.2573L126.814 34.2643C126.884 34.2712 126.956 34.2805 127.025 34.2875C127.36 34.3154 127.641 34.3293 127.913 34.3293C128.131 34.3293 128.349 34.3223 128.567 34.3084C131.594 34.1156 134.466 32.4179 136.255 29.7704L143.496 19.0361L147.667 31.1662L148.633 33.974H152.149L152.212 33.7812L152.776 32.0835L152.79 32.044L156.743 20.1532L160.77 32.3622L161.301 33.974H164.78L164.848 33.7812H164.85L165.268 32.5712L169.799 19.4588L169.825 19.3822L171.467 14.6305L171.587 14.2844H171.599Z" fill="#E4E5E7"/>
<path d="M18.5187 29.1902C19.9516 28.3193 21.0756 27.1418 21.8931 25.6555C22.7106 24.1691 23.124 22.4946 23.124 20.6483C23.124 18.802 22.7083 17.0996 21.8931 15.6272C21.0756 14.1548 19.9516 12.975 18.5326 12.1064C17.1136 11.2355 15.4787 10.8082 13.6324 10.8082C11.7861 10.8082 10.1906 11.2355 8.77164 12.1064C7.35267 12.9773 6.22863 14.1409 5.41115 15.6272C4.59368 17.1136 4.1919 18.788 4.1919 20.6483C4.1919 22.5086 4.59368 24.1691 5.41115 25.6555C6.22863 27.1418 7.35267 28.3193 8.77164 29.1902C10.1906 30.0611 11.8116 30.4884 13.6324 30.4884C15.4531 30.4884 17.0881 30.0588 18.5187 29.1902ZM8.27465 33.3148C6.61415 32.646 5.1673 31.6822 3.93644 30.4489C2.70558 29.2181 1.73947 27.7712 1.04507 26.0967C0.348358 24.4222 0 22.6154 0 20.646C0 18.6766 0.348358 16.8697 1.04507 15.1952C1.74179 13.5208 2.70558 12.0878 3.93644 10.8569C5.1673 9.63767 6.61415 8.68779 8.27465 8.01893C9.93516 7.35007 11.7164 7.00171 13.6301 7.00171C15.5437 7.00171 17.3389 7.33614 18.9855 8.01893C20.646 8.68779 22.0928 9.6516 23.3376 10.8848C24.5824 12.1157 25.5462 13.5626 26.229 15.2231C26.9118 16.8836 27.2601 18.6905 27.2601 20.6599C27.2601 22.6293 26.9118 24.4362 26.2151 26.0967C25.5184 27.7573 24.5546 29.2041 23.3237 30.435C22.0928 31.6659 20.646 32.632 18.9855 33.3148C17.325 33.9976 15.5437 34.346 13.6301 34.346C11.728 34.3181 9.93516 33.9837 8.27465 33.3148Z" fill="#E4E5E7"/>
<path d="M43.3498 29.7773C44.2207 29.2292 44.9175 28.479 45.4261 27.5268C45.9347 26.563 46.1901 25.4924 46.1901 24.2731C46.1901 23.0538 45.9347 21.9832 45.4261 21.0449C44.9175 20.0951 44.2207 19.3565 43.3498 18.8084C42.479 18.2603 41.4618 17.9909 40.3377 17.9909C39.2137 17.9909 38.222 18.258 37.3372 18.8084C36.4524 19.3565 35.758 20.0951 35.2494 21.0449C34.7408 21.9948 34.4853 23.0678 34.4853 24.2731C34.4853 25.4784 34.7408 26.563 35.2494 27.5268C35.758 28.4906 36.4547 29.2408 37.3372 29.7773C38.222 30.3253 39.2253 30.5947 40.3377 30.5947C41.4618 30.5947 42.4673 30.3277 43.3498 29.7773ZM30.456 14.6861H34.2856V17.0968C34.9962 16.2003 35.9066 15.5036 37.0028 15.0089C38.1013 14.5143 39.3461 14.2588 40.7116 14.2588C42.5324 14.2588 44.1789 14.7001 45.6258 15.571C47.0842 16.4419 48.2245 17.6472 49.0676 19.1591C49.9106 20.6733 50.3263 22.3734 50.3263 24.2754C50.3263 26.1775 49.9106 27.8775 49.0676 29.3917C48.2245 30.906 47.0866 32.109 45.6397 32.9938C44.1929 33.8787 42.5463 34.3199 40.6977 34.3199C39.425 34.3199 38.2336 34.0923 37.1491 33.6232C36.0645 33.168 35.1542 32.4991 34.4435 31.6538V36.9838C34.4435 39.2063 32.6483 41.0016 30.4258 41.0016V14.6884H30.4537L30.456 14.6861Z" fill="#E4E5E7"/>
<path d="M56.4768 33.3547C55.3923 32.6974 54.5353 31.7871 53.9338 30.6235C53.3323 29.4577 53.0234 28.0921 53.0234 26.5523V14.687H57.0412V26.19C57.0412 27.5161 57.4429 28.5867 58.2325 29.3903C59.0222 30.1939 60.0394 30.5956 61.2725 30.5956C62.5057 30.5956 63.5624 30.1799 64.366 29.3508C65.1695 28.5217 65.5713 27.4093 65.5713 26.0158V14.687H69.5472V33.9028H65.7455V31.52C65.1974 32.4164 64.4589 33.1132 63.509 33.5962C62.5591 34.0793 61.4862 34.3185 60.2809 34.3185C58.834 34.3185 57.5637 33.998 56.4791 33.3547" fill="#E4E5E7"/>
<path d="M74.9667 32.8712C73.4804 31.9074 72.4493 30.5952 71.8594 28.9602L74.9528 27.4994C75.4753 28.584 76.1837 29.4549 77.0964 30.0982C78.0067 30.7415 79.0239 31.062 80.1364 31.062C81.0862 31.062 81.8503 30.8484 82.4402 30.4187C83.03 29.9891 83.325 29.4154 83.325 28.6769C83.325 27.9941 83.0579 27.4716 82.5075 27.1371C81.9594 26.7888 81.3835 26.5356 80.7657 26.3731L77.7536 25.5161C76.0931 25.0469 74.8622 24.3386 74.0447 23.3864C73.2273 22.4365 72.8139 21.3102 72.8139 20.0119C72.8139 18.8461 73.1088 17.8428 73.6987 16.9997C74.2886 16.1428 75.1037 15.4739 76.1488 14.9908C77.1939 14.5078 78.3574 14.2686 79.6696 14.2686C81.423 14.2686 82.9906 14.6959 84.3561 15.5668C85.7356 16.4377 86.6994 17.6291 87.2614 19.1689L84.168 20.6274C83.7941 19.703 83.1903 18.9668 82.3728 18.4303C81.5553 17.8823 80.631 17.6129 79.6138 17.6129C78.7429 17.6129 78.0346 17.8126 77.526 18.2144C77.0035 18.6161 76.7503 19.1642 76.7503 19.847C76.7503 20.5298 77.0058 21.0129 77.526 21.3334C78.0485 21.6678 78.5966 21.9233 79.2004 22.1091L82.3194 23.0334C83.8986 23.4886 85.1318 24.1853 85.9748 25.1491C86.8318 26.1129 87.2475 27.2509 87.2475 28.577C87.2475 29.715 86.9526 30.7183 86.3627 31.5776C85.7728 32.4485 84.9298 33.1174 83.8591 33.6004C82.7885 34.0835 81.5298 34.3227 80.1108 34.3227C78.1693 34.3088 76.4414 33.828 74.9691 32.8642" fill="#E4E5E7"/>
</g>
<defs>
<clipPath id="clip0_20194_6623">
<rect width="172" height="42" fill="white"/>
</clipPath>
</defs>
</svg>
