<svg width="176" height="42" viewBox="0 0 176 42" xmlns="http://www.w3.org/2000/svg" fill="url(#gradient)">
  <defs>
    <linearGradient id="gradient" gradientTransform="rotate(90)">
      <stop offset="5%" stop-color="#E4E5E7" />
      <stop offset="95%" stop-color="rgba(228, 229, 231, 0.7)" />
    </linearGradient>
  </defs>
<path d="M109.972 11.4067V7.60352H96.4709C94.2002 7.60352 92.3672 9.43655 92.3672 11.7072V34.6333H96.6484V23.3487H108.508V19.5455H96.6484V11.419H109.972V11.4049V11.4067ZM175.771 14.8074L175.894 14.4524H171.535L166.992 28.1588L162.53 14.8074L162.41 14.4524H158.913L158.793 14.8074L154.294 28.1588L149.904 14.8074L149.788 14.4524H145.63L145.552 14.5684L136.412 28.1184C135.259 29.8267 133.442 30.9198 131.552 31.0393C131.415 31.0481 131.278 31.0534 131.139 31.0534C130.939 31.0411 130.724 31.0446 130.512 31.0235C130.463 31.0182 130.413 31.0112 130.364 31.0042L130.197 30.9813C130.102 30.969 130.006 30.9567 129.913 30.9391C129.833 30.9233 129.756 30.9058 129.681 30.8864L129.521 30.8478C129.457 30.8337 129.394 30.8179 129.331 30.8003C129.22 30.7687 129.111 30.73 128.986 30.6878L128.923 30.6667C128.872 30.6492 128.821 30.6316 128.772 30.6123C128.649 30.5648 128.529 30.5121 128.41 30.4558L128.364 30.4348C128.32 30.4154 128.276 30.3943 128.234 30.3732C128.102 30.3082 127.972 30.2379 127.844 30.1623L127.737 30.0991C127.598 30.0147 127.463 29.9268 127.329 29.8319L127.28 29.7968C126.475 29.2069 125.814 28.4427 125.347 27.5613L125.19 27.2643L122.774 30.846L122.865 30.962C123.05 31.194 123.229 31.4049 123.413 31.607L123.543 31.7529C123.594 31.8108 123.644 31.8671 123.698 31.9233C123.744 31.969 123.791 32.0094 123.839 32.0516L123.93 32.1325L123.963 32.1623C124.266 32.4435 124.589 32.7124 124.928 32.962L125.065 33.0639C125.229 33.1799 125.394 33.2906 125.563 33.3961C125.615 33.4295 125.67 33.4611 125.724 33.4927L125.802 33.5384C126.05 33.6843 126.297 33.8179 126.54 33.9356C126.689 34.0077 126.839 34.0797 126.992 34.1448C127.016 34.1553 127.041 34.1676 127.064 34.1782C127.101 34.1957 127.136 34.2133 127.173 34.2291C127.211 34.2449 127.25 34.2572 127.29 34.2713L127.366 34.2977C127.547 34.368 127.73 34.4312 127.916 34.491L128.016 34.5244C128.074 34.5437 128.13 34.563 128.188 34.5806C128.445 34.6562 128.714 34.7212 129.014 34.7845C129.081 34.7985 129.15 34.8091 129.217 34.8214L129.294 34.8354C129.507 34.8724 129.723 34.904 129.942 34.9286L129.999 34.9356C130.071 34.9444 130.143 34.9514 130.217 34.9585C130.558 34.9883 130.848 35.0024 131.125 35.0024C131.348 35.0024 131.573 34.9954 131.797 34.9813C134.899 34.7845 137.844 33.0446 139.675 30.3293L147.099 19.3258L152.296 34.44H156.032L160.677 20.4717L165.286 34.44H168.987L174.061 19.7599L174.089 19.6808L175.773 14.8109L175.771 14.8074Z" />
<path d="M130.704 18.064C131.043 18.0429 131.386 18.0464 131.743 18.0798C131.799 18.085 131.853 18.0938 131.908 18.1026L132.087 18.1272C132.173 18.1378 132.258 18.1501 132.342 18.1641C132.426 18.1799 132.511 18.201 132.593 18.2221L132.748 18.259C132.808 18.2731 132.868 18.2872 132.926 18.303C133.043 18.3364 133.158 18.3768 133.279 18.419L133.342 18.4401C133.39 18.4559 133.439 18.4717 133.486 18.491C133.611 18.5402 133.734 18.5947 133.89 18.665L134.022 18.7265C134.158 18.7933 134.291 18.8654 134.419 18.9409L134.516 18.9989C134.658 19.085 134.797 19.1747 134.948 19.2836L134.971 19.3012C135.773 19.8847 136.442 20.6597 136.91 21.5402L137.066 21.8372L139.483 18.2555L139.391 18.1395C139.216 17.9188 139.033 17.7042 138.843 17.4963L138.713 17.3504C138.662 17.2942 138.613 17.2362 138.558 17.1817C138.514 17.1378 138.467 17.0956 138.419 17.0552C138.39 17.0288 138.358 17.0024 138.33 16.9743L138.281 16.9304C137.982 16.651 137.658 16.3838 137.321 16.136L137.193 16.0411C137.028 15.9234 136.86 15.8109 136.688 15.7037C136.637 15.672 136.585 15.6404 136.532 15.6105L136.462 15.5684C136.21 15.4207 135.957 15.2836 135.711 15.1641C135.564 15.0921 135.414 15.02 135.261 14.955C135.237 14.9445 135.212 14.9321 135.189 14.9216C135.154 14.904 135.117 14.8865 135.08 14.8724C135.043 14.8566 135.005 14.8443 134.966 14.832C134.94 14.8232 134.913 14.8144 134.889 14.8056C134.708 14.7353 134.525 14.672 134.339 14.6123L134.238 14.5789C134.18 14.5596 134.122 14.5402 134.064 14.5227C133.806 14.4471 133.537 14.3821 133.24 14.3206C133.173 14.3065 133.107 14.2959 133.038 14.2836L132.954 14.2696C132.741 14.2327 132.528 14.201 132.312 14.1764L132.251 14.1694C132.179 14.1606 132.105 14.1536 132.033 14.1466C131.416 14.0938 130.954 14.0921 130.455 14.1237C127.353 14.3205 124.407 16.0604 122.576 18.7757L116.235 28.1747V7.60352H112.289V34.6333H116.639L125.846 20.9849C126.999 19.2766 128.815 18.1835 130.704 18.064Z" />
<path d="M0 7.43829H9.85954C11.6785 7.43829 13.2849 7.77748 14.6803 8.45762C16.074 9.13776 17.1602 10.1079 17.937 11.368C18.7138 12.6298 19.1004 14.1448 19.1004 15.9163C19.1004 17.6878 18.712 19.1659 17.937 20.4277C17.1602 21.6896 16.0758 22.6597 14.6803 23.3381C13.2849 24.0165 11.6785 24.3574 9.85954 24.3574H4.29356V34.5437H0V7.43829ZM9.96851 20.5349C11.4237 20.5349 12.5995 20.1114 13.4976 19.2608C14.3939 18.4119 14.8438 17.2836 14.8438 15.8776C14.8438 14.4717 14.3956 13.3188 13.4976 12.4945C12.5995 11.6703 11.4237 11.2573 9.96851 11.2573H4.29356V20.5349H9.96851ZM22.1919 14.8601H26.1216V17.3697C26.6313 16.3996 27.3343 15.6966 28.2324 15.259C29.1287 14.8232 30.1727 14.6035 31.3607 14.6035H32.5611V18.3504H30.851C29.4925 18.3504 28.3958 18.7687 27.5593 19.6052C26.7227 20.4418 26.3044 21.6369 26.3044 23.1887V34.5384H22.1936V14.8601H22.1919ZM38.7633 33.6316C37.1991 32.7353 35.9566 31.5103 35.0339 29.9567C34.1112 28.4049 33.6507 26.6456 33.6507 24.6808C33.6507 22.7159 34.1059 20.9286 35.0146 19.3873C35.9249 17.8478 37.1605 16.6351 38.7246 15.7493C40.2888 14.8636 42.0287 14.4207 43.9461 14.4207C45.8636 14.4207 47.5965 14.8636 49.1483 15.7493C50.7002 16.6351 51.9322 17.8478 52.8408 19.3873C53.7494 20.9286 54.2046 22.6913 54.2046 24.6808C54.2046 26.6702 53.7442 28.44 52.8215 29.9918C51.8988 31.5437 50.6633 32.7634 49.1114 33.6474C47.5595 34.5331 45.8372 34.9743 43.9461 34.9743C42.0551 34.9743 40.3257 34.5261 38.7615 33.628L38.7633 33.6316ZM47.0218 30.3205C47.9304 29.7634 48.6457 28.9936 49.1677 28.0112C49.6896 27.0288 49.9497 25.9198 49.9497 24.6825C49.9497 23.4453 49.6896 22.3416 49.1677 21.3715C48.6457 20.4014 47.9304 19.6386 47.0218 19.0797C46.1131 18.5226 45.0868 18.2432 43.9479 18.2432C42.809 18.2432 41.7827 18.5226 40.874 19.0797C39.9654 19.6386 39.2484 20.4014 38.7281 21.3715C38.2062 22.3416 37.9461 23.4453 37.9461 24.6825C37.9461 25.9198 38.2062 27.0288 38.7281 28.0112C39.2501 28.9936 39.9654 29.7634 40.874 30.3205C41.7827 30.8794 42.8073 31.1571 43.9479 31.1571C45.0885 31.1571 46.1131 30.8794 47.0218 30.3205ZM81.7446 33.0129C80.604 31.8495 80.0345 30.2115 80.0345 28.1008V18.5701H76.5775V14.8601H77.1241C78.045 14.8601 78.7603 14.5929 79.27 14.0604C79.7797 13.5279 80.0345 12.8003 80.0345 11.8777V10.3504H84.1453V14.8618H88.6199V18.5718H84.1453V27.9216C84.1453 28.9163 84.3931 29.6984 84.8905 30.2678C85.3878 30.8372 86.2297 31.1219 87.4195 31.1219C87.8554 31.1219 88.3053 31.085 88.7658 31.0129V34.5419C88.4512 34.5894 88.0874 34.6386 87.6743 34.6878C87.2613 34.7353 86.8852 34.7599 86.546 34.7599C84.4845 34.7599 82.8834 34.1781 81.7446 33.0129ZM58.8989 18.5718H55.2609V14.8618H58.8989V13.8425C58.8989 11.6369 59.572 9.94444 60.9183 8.76694C62.2645 7.59119 63.9798 7.00244 66.066 7.00244C66.3331 7.00244 66.6354 7.02002 66.9746 7.05692C67.3138 7.09383 67.5932 7.13601 67.8111 7.18346V10.7494C67.6161 10.7001 67.3981 10.6703 67.1556 10.658C66.9131 10.6457 66.7197 10.6404 66.5739 10.6404C65.4825 10.6404 64.609 10.89 63.9552 11.3856C63.2997 11.8829 62.9728 12.7019 62.9728 13.8407V14.8601H67.4843V18.5701H62.9728V30.4664C62.9728 32.7159 61.1485 34.5402 58.8989 34.5402V18.5718ZM70.0309 14.8601H74.1416V34.5419H70.0309V14.8601ZM74.4053 9.80384C74.4053 11.1096 73.3473 12.1694 72.0397 12.1694C70.7321 12.1694 69.6741 11.1114 69.6741 9.80384C69.6741 8.49629 70.7321 7.43829 72.0397 7.43829C73.3473 7.43829 74.4053 8.49629 74.4053 9.80384Z" />
</svg>
