<svg width="154" height="42" viewBox="0 0 154 42" xmlns="http://www.w3.org/2000/svg"
  fill="url(#gradient)">
  <defs>
    <linearGradient id="gradient" gradientTransform="rotate(90)">
      <stop offset="5%" stop-color="rgba(228, 229, 231, 0.7)" />
      <stop offset="95%" stop-color="#E4E5E7" />
    </linearGradient>
  </defs>
  <path fill-rule="evenodd" clip-rule="evenodd"
    d="M2.32417 3.5C1.07316 3.5 0.0585938 4.48026 0.0585938 5.68895V12.9787C0.0585938 14.1874 1.07316 15.1676 2.32417 15.1676H15.1545V26.8324H2.32417C1.07316 26.8324 0.0585938 27.8126 0.0585938 29.0213V36.311C0.0585938 37.5197 1.07316 38.5 2.32417 38.5H12.8889C14.1399 38.5 15.1545 37.5197 15.1545 36.311V26.8382H27.9847C29.2357 26.8382 30.2503 25.8579 30.2503 24.6492V17.3566C30.2503 16.1479 29.2357 15.1676 27.9847 15.1676H15.1574V5.68895C15.1574 4.48026 14.1429 3.5 12.8919 3.5H2.32417ZM145.049 8.73028C145.049 8.37461 144.744 8.09991 144.352 8.09991H141.478C141.086 8.09991 140.781 8.39485 140.781 8.73028V12.7699H136.316C135.924 12.7699 135.618 13.0648 135.618 13.4002V15.4822C135.618 15.8378 135.924 16.1125 136.316 16.1125H140.781V22.3006C140.781 27.0341 143.089 29.2231 148.057 29.2231H152.106C152.498 29.2231 152.803 28.9281 152.803 28.5927V26.5108C152.803 26.1551 152.498 25.8804 152.106 25.8804H148.709C146.007 25.8804 145.049 24.8481 145.049 22.2803V16.1357H152.606C152.998 16.1125 153.303 15.8176 153.303 15.4822V13.4002C153.303 13.0446 152.998 12.7699 152.606 12.7699H145.049V8.73028ZM131.108 13.4031C131.108 13.0474 130.803 12.7727 130.411 12.7727V12.7756H121.633C121.241 12.7756 120.936 13.0706 120.936 13.406V15.488C120.936 15.8436 121.241 16.1183 121.633 16.1183H126.837V25.8833H121.633C121.241 25.8833 120.936 26.1782 120.936 26.5137V28.5956C120.936 28.9513 121.241 29.226 121.633 29.226H136.444C136.837 29.226 137.142 28.931 137.142 28.5956V26.5137C137.142 26.158 136.837 25.8833 136.444 25.8833H131.108V13.4031ZM131.282 7.04736C131.261 6.6917 130.956 6.41699 130.585 6.41699H126.664C126.272 6.41699 125.967 6.71194 125.967 7.04736V9.71921C125.967 10.0749 126.272 10.3496 126.664 10.3496H130.585C130.977 10.3496 131.282 10.0546 131.282 9.71921V7.04736ZM113.202 25.8833H117.646C118.039 25.8833 118.344 26.1551 118.344 26.5137V28.5956C118.344 28.931 118.039 29.226 117.646 29.226H103.161C102.769 29.226 102.464 28.9542 102.464 28.5956V26.5137C102.464 26.1782 102.769 25.8833 103.161 25.8833H108.934V9.76258H103.793C103.401 9.76258 103.095 9.49077 103.095 9.13221V7.04736C103.095 6.71194 103.401 6.41699 103.793 6.41699H112.505C112.897 6.41699 113.202 6.68881 113.202 7.04736V25.8833ZM90.6152 13.5275C91.4412 12.7698 92.5097 12.4547 93.9911 12.4547C98.3277 12.4547 100.854 15.2769 100.872 21.0196C100.872 26.7652 98.3247 29.5845 94.0989 29.5845C92.6413 29.5845 91.6597 29.226 90.8546 28.5118L89.8311 27.5662L88.8734 27.7773L89.2445 30.2814V34.9543C89.2445 35.2897 88.9392 35.5846 88.5471 35.5846H85.671C85.279 35.5846 84.9737 35.3128 84.9737 34.9543V13.4031C84.9737 13.0677 85.279 12.7727 85.671 12.7727H87.6313C87.9606 12.7727 88.2209 12.9809 88.3077 13.2556L88.6549 14.4759H89.5916L90.6152 13.5275ZM89.2205 23.0206C89.2205 25.0621 90.4177 26.1349 92.5755 26.1349C95.2122 26.1349 96.3884 24.5358 96.4093 20.982C96.4093 17.4658 95.2122 15.8668 92.5755 15.8668C90.3967 15.8668 89.2205 16.9395 89.2205 18.981V23.0206ZM64.368 20.9994C64.368 15.274 67.31 12.4547 72.7989 12.4547C78.4404 12.4547 81.1638 15.2971 80.5084 21.6326H68.5939C68.7675 25.0216 70.0754 26.4732 72.8198 26.4732C74.5856 26.4732 75.8904 25.8833 76.3484 24.6428C76.4561 24.3883 76.7165 24.2206 77.0008 24.2206H79.6135C80.0505 24.2206 80.3977 24.5994 80.2899 24.9985C79.5716 27.8814 76.8691 29.5643 72.6881 29.5643C67.2861 29.5643 64.368 26.745 64.368 20.9994ZM72.7779 15.4243C70.4255 15.4243 69.1386 16.581 68.7256 19.0649H76.5249C76.4591 16.7082 75.2829 15.4243 72.7779 15.4243ZM54.8927 14.4557L55.8744 13.5072C56.7243 12.7496 58.0083 12.4547 59.6394 12.4778H61.86C62.2521 12.4778 62.5574 12.7496 62.5574 13.1082V15.4012C62.5574 15.7366 62.2521 16.0316 61.86 16.0316H58.113C55.8055 16.0316 54.6293 17.0408 54.6293 18.9781V25.8804H59.6184C60.0105 25.8804 60.3157 26.1522 60.3157 26.5108V28.5927C60.3157 28.9281 60.0105 29.2231 59.6184 29.2231H46.0489C45.6568 29.2231 45.3516 28.9513 45.3516 28.5927V26.5108C45.3516 26.1753 45.6568 25.8804 46.0489 25.8804H50.3616V16.1154H46.6594C46.2674 16.1154 45.9621 15.8436 45.9621 15.4851V13.4031C45.9621 13.0677 46.2674 12.7727 46.6594 12.7727H52.9324C53.2616 12.7727 53.5429 12.9607 53.6088 13.2556L53.9141 14.4557H54.8927Z" />
</svg>