<svg width="176" height="48" viewBox="0 0 176 48" fill="none" xmlns="http://www.w3.org/2000/svg">
<path fill-rule="evenodd" clip-rule="evenodd" d="M2.66345 4C1.23373 4 0.0742188 5.12029 0.0742188 6.50165V14.8328C0.0742188 16.2141 1.23373 17.3344 2.66345 17.3344H17.3266V30.6656H2.66345C1.23373 30.6656 0.0742188 31.7859 0.0742188 33.1672V41.4983C0.0742188 42.8797 1.23373 44 2.66345 44H14.7374C16.1671 44 17.3266 42.8797 17.3266 41.4983V30.6722H31.9898C33.4195 30.6722 34.579 29.5519 34.579 28.1705V19.8361C34.579 18.4547 33.4195 17.3344 31.9898 17.3344H17.3301V6.50165C17.3301 5.12029 16.1705 4 14.7408 4H2.66345ZM165.776 9.97774C165.776 9.57126 165.427 9.25732 164.979 9.25732H161.695C161.247 9.25732 160.898 9.59439 160.898 9.97774V14.5944H155.795C155.347 14.5944 154.998 14.9315 154.998 15.3148V17.6942C154.998 18.1007 155.347 18.4146 155.795 18.4146H160.898V25.4867C160.898 30.8964 163.535 33.3981 169.213 33.3981H173.841C174.289 33.3981 174.638 33.061 174.638 32.6777V30.2983C174.638 29.8918 174.289 29.5779 173.841 29.5779H169.959C166.87 29.5779 165.776 28.3981 165.776 25.4635V18.4411H174.412C174.86 18.4146 175.209 18.0775 175.209 17.6942V15.3148C175.209 14.9083 174.86 14.5944 174.412 14.5944H165.776V9.97774ZM149.844 15.3181C149.844 14.9116 149.495 14.5977 149.047 14.5977V14.601H139.015C138.567 14.601 138.218 14.9381 138.218 15.3214V17.7008C138.218 18.1073 138.567 18.4212 139.015 18.4212H144.963V29.5812H139.015C138.567 29.5812 138.218 29.9183 138.218 30.3016V32.681C138.218 33.0875 138.567 33.4014 139.015 33.4014H155.942C156.39 33.4014 156.739 33.0643 156.739 32.681V30.3016C156.739 29.8951 156.39 29.5812 155.942 29.5812H149.844V15.3181ZM150.042 8.05441C150.018 7.64793 149.669 7.33398 149.245 7.33398H144.764C144.316 7.33398 143.967 7.67107 143.967 8.05441V11.1079C143.967 11.5144 144.316 11.8284 144.764 11.8284H149.245C149.693 11.8284 150.042 11.4913 150.042 11.1079V8.05441ZM129.379 29.5812H134.459C134.907 29.5812 135.256 29.8918 135.256 30.3016V32.681C135.256 33.0643 134.907 33.4014 134.459 33.4014H117.904C117.456 33.4014 117.107 33.0908 117.107 32.681V30.3016C117.107 29.9183 117.456 29.5812 117.904 29.5812H124.502V11.1575H118.626C118.178 11.1575 117.829 10.8469 117.829 10.4371V8.05441C117.829 7.67107 118.178 7.33398 118.626 7.33398H128.582C129.031 7.33398 129.379 7.64463 129.379 8.05441V29.5812ZM103.566 15.4602C104.51 14.5944 105.731 14.2342 107.424 14.2342C112.38 14.2342 115.267 17.4596 115.287 24.0227C115.287 30.5891 112.377 33.8112 107.547 33.8112C105.881 33.8112 104.76 33.4014 103.839 32.5851L102.67 31.5045L101.575 31.7458L101.999 34.6076V39.948C101.999 40.3313 101.65 40.6684 101.202 40.6684H97.9153C97.4673 40.6684 97.1184 40.3578 97.1184 39.948V15.3181C97.1184 14.9348 97.4673 14.5977 97.9153 14.5977H100.156C100.532 14.5977 100.829 14.8356 100.929 15.1496L101.325 16.5442H102.396L103.566 15.4602ZM101.972 26.3095C101.972 28.6426 103.34 29.8687 105.806 29.8687C108.82 29.8687 110.164 28.0412 110.188 23.9797C110.188 19.9612 108.82 18.1337 105.806 18.1337C103.316 18.1337 101.972 19.3598 101.972 21.6929V26.3095ZM73.569 23.9996C73.569 17.4563 76.9313 14.2342 83.2043 14.2342C89.6517 14.2342 92.7642 17.4827 92.0152 24.7233H78.3986C78.597 28.5964 80.0917 30.2553 83.2282 30.2553C85.2462 30.2553 86.7375 29.5812 87.2608 28.1635C87.384 27.8727 87.6815 27.681 88.0065 27.681H90.9925C91.4919 27.681 91.8886 28.1139 91.7655 28.5699C90.9446 31.8647 87.856 33.7881 83.0777 33.7881C76.9039 33.7881 73.569 30.566 73.569 23.9996ZM83.1803 17.6281C80.4919 17.6281 79.0211 18.95 78.5491 21.7887H87.4626C87.3874 19.0954 86.0432 17.6281 83.1803 17.6281ZM62.7401 16.521L63.862 15.4371C64.8334 14.5713 66.3007 14.2342 68.1648 14.2606H70.7028C71.1508 14.2606 71.4997 14.5713 71.4997 14.981V17.6017C71.4997 17.985 71.1508 18.3221 70.7028 18.3221H66.4204C63.7833 18.3221 62.4391 19.4754 62.4391 21.6896V29.5779H68.1409C68.589 29.5779 68.9379 29.8885 68.9379 30.2983V32.6777C68.9379 33.061 68.589 33.3981 68.1409 33.3981H52.6329C52.1848 33.3981 51.8359 33.0875 51.8359 32.6777V30.2983C51.8359 29.915 52.1848 29.5779 52.6329 29.5779H57.5617V18.4179H53.3306C52.8826 18.4179 52.5337 18.1073 52.5337 17.6975V15.3181C52.5337 14.9348 52.8826 14.5977 53.3306 14.5977H60.4998C60.876 14.5977 61.1975 14.8125 61.2728 15.1496L61.6217 16.521H62.7401Z" fill="url(#paint0_linear_17741_19707)"/>
<defs>
<linearGradient id="paint0_linear_17741_19707" x1="88" y1="2.51503e-07" x2="88" y2="48" gradientUnits="userSpaceOnUse">
<stop stop-color="#E4E5E7"/>
<stop offset="1" stop-color="#E4E5E7" stop-opacity="0.7"/>
</linearGradient>
</defs>
</svg>
