<svg width="173" height="48" viewBox="0 0 173 48" fill="none" xmlns="http://www.w3.org/2000/svg">
<g clip-path="url(#clip0_17741_19797)">
<path fill-rule="evenodd" clip-rule="evenodd" d="M1.63119 45.9461C1.77321 45.9984 1.92417 46.0249 2.07634 46.0243C2.3192 46.0151 2.55372 45.937 2.75007 45.7999C2.94642 45.6629 3.09572 45.4731 3.17898 45.2546C3.23207 45.1218 4.49399 41.8946 5.06165 30.4903C5.35569 24.5127 5.36794 21.8873 4.86154 15.9995C4.4409 11.1432 5.18417 8.93971 5.75182 8.68966C7.09542 8.08409 8.61463 9.18584 10.9792 11.0338C13.8093 13.2686 17.3378 16.0269 22.169 15.3314C26.4308 14.7184 27.7302 10.7754 28.7754 7.60362L28.7767 7.59964L28.7857 7.57269C29.4766 5.48472 30.1254 3.52398 31.3006 3.3567C31.8682 3.27465 32.6728 3.60676 33.5753 4.27875C39.5459 8.73656 48.0608 26.3959 49.5025 40.6522C49.5334 40.9615 49.6915 41.2463 49.942 41.4441C50.1924 41.6419 50.5146 41.7365 50.8379 41.7071C50.9983 41.6924 51.1542 41.6476 51.2964 41.5752C51.4388 41.5028 51.5647 41.4043 51.6672 41.2853C51.7696 41.1662 51.8465 41.029 51.8934 40.8815C51.9403 40.734 51.9563 40.5791 51.9405 40.4256C50.5357 26.56 42.1923 7.74418 35.0945 2.43467C33.6161 1.32901 32.2236 0.860169 30.9576 1.03598C28.2744 1.42608 27.3584 4.19608 26.4694 6.88413L26.4653 6.89637C25.3259 10.354 24.3865 12.6474 21.8259 13.0146C18.0688 13.5382 15.2672 11.362 12.5556 9.24053C10.0971 7.31832 7.5569 5.33361 4.75536 6.56429C2.75834 7.45117 1.97831 10.69 2.45613 16.1988C2.95028 21.9537 2.94211 24.5283 2.65216 30.3887C2.11717 41.164 0.957347 44.3443 0.92876 44.4224C0.86952 44.5665 0.840713 44.7204 0.844003 44.8752C0.847293 45.03 0.882615 45.1827 0.947927 45.3244C1.01324 45.4661 1.10725 45.5939 1.22452 45.7007C1.3418 45.8074 1.48001 45.8908 1.63119 45.9461ZM134.723 30.3436C134.724 30.4861 134.784 30.6225 134.889 30.723C134.995 30.8235 135.138 30.8799 135.287 30.8799H137.23C137.304 30.8804 137.377 30.8668 137.445 30.8401C137.515 30.8133 137.577 30.7739 137.629 30.7241C137.682 30.6742 137.723 30.6149 137.752 30.5496C137.78 30.4843 137.794 30.4143 137.794 30.3436V10.8075C137.794 10.6643 137.735 10.527 137.63 10.4257C137.523 10.3245 137.38 10.2676 137.23 10.2676H135.287C135.138 10.2685 134.995 10.3257 134.889 10.4268C134.784 10.5278 134.724 10.6646 134.723 10.8075V30.3436ZM101.447 31.3159C103.286 31.3159 104.793 30.8523 105.969 29.9251C106.387 29.5961 107.15 29.8535 107.15 30.3684C107.15 30.5078 107.208 30.6415 107.311 30.7401C107.414 30.8386 107.554 30.894 107.699 30.894H109.295C109.369 30.8945 109.442 30.8809 109.511 30.8542C109.579 30.8275 109.641 30.788 109.694 30.7382C109.747 30.6883 109.788 30.6291 109.816 30.5638C109.845 30.4985 109.86 30.4284 109.86 30.3577V21.555C109.86 20.9222 109.83 20.3287 109.774 19.7673C109.715 19.2216 109.555 18.6902 109.303 18.1977C108.839 17.2198 108.014 16.4404 106.986 16.0096C105.824 15.5154 104.564 15.2713 103.293 15.2945C101.467 15.2945 100.002 15.6782 98.898 16.4457C97.9524 17.0929 97.2344 17.9992 96.8387 19.0451C96.8148 19.1114 96.8056 19.1818 96.8117 19.2518C96.8179 19.3217 96.8393 19.3896 96.8744 19.4512C96.9096 19.5128 96.9578 19.5667 97.016 19.6094C97.0743 19.6522 97.1412 19.6828 97.2124 19.6994L99.0101 20.2285C99.1589 20.2671 99.3172 20.252 99.4551 20.186C99.5929 20.1201 99.7005 20.008 99.7576 19.871C100.017 19.3136 100.455 18.85 101.01 18.5481C101.706 18.1722 102.494 17.9786 103.293 17.9867C104.539 17.9867 105.429 18.2394 105.962 18.7448C106.466 19.2354 106.772 19.8817 106.825 20.5682C106.841 20.7009 106.8 20.8342 106.713 20.9388C106.627 21.0434 106.5 21.1107 106.361 21.126C105.24 21.2726 104.156 21.4299 103.088 21.5908C102.001 21.7405 100.925 21.9554 99.866 22.2343C98.7878 22.5222 97.8196 23.1021 97.0779 23.9041C96.4222 24.7057 96.0857 25.7044 96.1287 26.7215C96.1202 27.5161 96.3262 28.2993 96.7265 28.9955C97.1573 29.6959 97.782 30.2688 98.5317 30.6509C99.4314 31.0988 100.433 31.3272 101.447 31.3159ZM101.989 28.9168C101.013 28.9168 100.288 28.7023 99.8212 28.2732C99.6016 28.0785 99.4267 27.8422 99.3077 27.5794C99.1887 27.3165 99.128 27.0329 99.1297 26.7465C99.1139 26.4792 99.1613 26.2119 99.268 25.9643C99.3747 25.7168 99.5382 25.4953 99.7464 25.3163C100.209 24.9464 100.742 24.6648 101.316 24.4869C102.086 24.2779 102.869 24.1143 103.659 23.997C104.407 23.8826 105.237 23.7634 106.148 23.6395C106.229 23.627 106.312 23.6321 106.39 23.6543C106.469 23.6765 106.541 23.7153 106.602 23.7678C106.663 23.8204 106.71 23.8853 106.74 23.9577C106.771 24.0302 106.785 24.1084 106.78 24.1865C106.78 24.3038 106.768 24.4244 106.756 24.5492C106.75 24.6108 106.744 24.6734 106.739 24.7371C106.707 25.1377 106.623 25.5329 106.489 25.9135C106.357 26.4386 106.101 26.928 105.741 27.3436C105.34 27.8264 104.828 28.2152 104.246 28.4806C103.537 28.784 102.765 28.9283 101.989 28.9025V28.9168ZM77.6314 30.723C77.5257 30.6226 77.4658 30.4862 77.4648 30.3436V16.2815C77.4648 16.1383 77.5243 16.001 77.6301 15.8997C77.736 15.7985 77.8795 15.7416 78.0292 15.7416H79.7148C79.8446 15.7416 79.9691 15.7909 80.0609 15.8788C80.1527 15.9666 80.2044 16.0858 80.2044 16.21C80.2179 16.3142 80.26 16.413 80.3264 16.4967C80.3928 16.5803 80.481 16.6457 80.5821 16.6863C80.6834 16.7269 80.794 16.7413 80.9029 16.728C81.0117 16.7147 81.1149 16.6741 81.2022 16.6104C81.5706 16.3403 81.9692 16.1101 82.3907 15.924C83.35 15.5167 84.391 15.3154 85.4404 15.334C86.386 15.3062 87.3266 15.4783 88.1948 15.8382C88.8948 16.1438 89.5113 16.6002 89.9962 17.1718C90.4586 17.7042 90.8214 18.309 91.0688 18.9595C91.3027 19.5717 91.4692 20.2056 91.5658 20.8509C91.6462 21.3899 91.6899 21.9333 91.6967 22.4777V30.3436C91.6967 30.4143 91.6821 30.4844 91.6536 30.5497C91.6253 30.615 91.5836 30.6743 91.5311 30.7241C91.4787 30.774 91.4164 30.8134 91.348 30.8401C91.2796 30.8669 91.2063 30.8804 91.1323 30.8799H89.1552C89.0813 30.8804 89.008 30.8669 88.9396 30.8401C88.8711 30.8134 88.8089 30.774 88.7564 30.7241C88.7039 30.6743 88.6623 30.615 88.634 30.5497C88.6056 30.4844 88.5909 30.4143 88.5909 30.3436V23.4359C88.5881 22.8297 88.5344 22.2247 88.4302 21.6267C88.3364 21.0224 88.1434 20.4359 87.8584 19.8891C87.5803 19.3623 87.1596 18.9165 86.64 18.5984C86.0206 18.2474 85.3074 18.0772 84.5882 18.1085C83.8878 18.1009 83.197 18.2646 82.5813 18.5841C81.9354 18.9437 81.4231 19.4875 81.1162 20.1394C80.7141 21.0421 80.5277 22.0193 80.5705 22.9997V30.3436C80.5705 30.4858 80.5115 30.6222 80.4063 30.7228C80.3013 30.8234 80.1587 30.8799 80.0099 30.8799H78.0292C77.8801 30.8799 77.7371 30.8235 77.6314 30.723ZM71.0456 30.011C69.9019 30.862 68.3335 31.2875 66.3403 31.2875C64.4193 31.2875 62.8458 30.8787 61.6199 30.0611C60.5759 29.3713 59.8295 28.3421 59.5196 27.165C59.5016 27.0959 59.499 27.024 59.5123 26.9539C59.5254 26.8838 59.5539 26.8172 59.5959 26.7584C59.6379 26.6996 59.6925 26.65 59.756 26.6129C59.8195 26.5757 59.8904 26.5519 59.9644 26.5429L62.0161 26.239C62.1584 26.2244 62.3017 26.256 62.4229 26.3286C62.5442 26.4012 62.6366 26.5107 62.6851 26.6394C62.9221 27.2091 63.3388 27.694 63.8773 28.0267C64.6723 28.4985 65.5959 28.7337 66.5309 28.7024C67.3214 28.7452 68.106 28.5488 68.7732 28.1411C69.036 27.9715 69.2492 27.7407 69.3931 27.4705C69.5369 27.2003 69.6066 26.8995 69.5954 26.5965C69.6125 26.2644 69.5082 25.9369 69.3002 25.6705C68.977 25.344 68.5677 25.1068 68.1155 24.984C67.515 24.7695 66.5918 24.5037 65.3461 24.1867C64.2312 23.9242 63.1459 23.5577 62.1058 23.0926C61.421 22.8092 60.8285 22.3547 60.3904 21.7769C60.0447 21.2026 59.8726 20.5478 59.8933 19.8855C59.8729 19.2463 60.0158 18.612 60.3095 18.0376C60.6032 17.4632 61.0389 16.9659 61.5788 16.5889C62.7125 15.7571 64.2074 15.3411 66.0636 15.3411C67.6698 15.2836 69.2542 15.7101 70.5934 16.5603C71.5905 17.1943 72.2964 18.169 72.5666 19.2848C72.5811 19.3512 72.5813 19.4197 72.5671 19.4862C72.5529 19.5526 72.5246 19.6156 72.484 19.6712C72.4433 19.7268 72.3913 19.7739 72.3309 19.8095C72.2707 19.8451 72.2033 19.8685 72.1332 19.8783L70.0963 20.2359C69.9416 20.2549 69.785 20.2207 69.6543 20.1395C69.5236 20.0583 69.4272 19.9353 69.3825 19.7925C69.2052 19.3215 68.8803 18.9144 68.4518 18.6269C67.7601 18.1647 66.9374 17.9152 66.0935 17.9118C65.3163 17.845 64.5358 18.0006 63.8512 18.3588C63.5886 18.4863 63.3684 18.6814 63.2152 18.922C63.0621 19.1626 62.9821 19.4393 62.9841 19.721C62.9758 20.0368 63.0966 20.3433 63.3205 20.5755C63.6932 20.882 64.1284 21.1109 64.5987 21.2477C65.229 21.4622 66.167 21.7197 67.4128 22.02C68.5089 22.2592 69.5714 22.6217 70.5784 23.0998C71.2614 23.4081 71.8403 23.8937 72.249 24.5013C72.6068 25.1079 72.784 25.7967 72.761 26.4928C72.791 27.1679 72.6508 27.84 72.3522 28.4523C72.0537 29.0646 71.6055 29.5992 71.0456 30.011ZM115.271 37.4545C115.166 37.3532 115.105 37.2159 115.105 37.0727L115.14 16.2745C115.139 16.2035 115.153 16.1331 115.181 16.0674C115.21 16.0017 115.251 15.942 115.303 15.8917C115.356 15.8415 115.418 15.8017 115.487 15.7748C115.556 15.7478 115.629 15.7342 115.704 15.7346H117.457C117.564 15.7346 117.668 15.7757 117.744 15.8488C117.821 15.9219 117.864 16.021 117.864 16.1244C117.873 16.2035 117.902 16.2791 117.95 16.3439C117.998 16.4088 118.063 16.4606 118.139 16.4944C118.213 16.5282 118.296 16.5429 118.38 16.5369C118.463 16.531 118.543 16.5046 118.611 16.4605C119.001 16.1899 119.425 15.9654 119.871 15.7919C120.707 15.463 121.605 15.3 122.51 15.3128C123.872 15.2784 125.214 15.6454 126.352 16.3639C127.45 17.0732 128.319 18.0646 128.855 19.2243C129.462 20.5048 129.763 21.8983 129.737 23.3038C129.761 24.7092 129.46 26.1021 128.855 27.3834C128.319 28.5347 127.463 29.5238 126.381 30.2437C125.25 30.968 123.912 31.3379 122.55 31.302C121.717 31.3137 120.887 31.1804 120.103 30.9087C119.792 30.8025 119.492 30.6709 119.205 30.5154C119.106 30.4603 118.994 30.43 118.879 30.4275C118.764 30.4249 118.65 30.45 118.548 30.5006C118.446 30.5513 118.359 30.6257 118.295 30.717C118.231 30.8083 118.192 30.9136 118.181 31.0231V37.0727C118.181 37.2159 118.122 37.3532 118.017 37.4545C117.91 37.5557 117.767 37.6126 117.617 37.6126H115.67C115.521 37.6126 115.377 37.5557 115.271 37.4545ZM118.843 27.1509C119.536 28.1521 120.63 28.6526 122.125 28.6526C122.998 28.6865 123.856 28.4342 124.558 27.9375C125.218 27.4411 125.717 26.7752 125.997 26.0175C126.318 25.1438 126.476 24.2228 126.464 23.2967C126.476 22.3786 126.313 21.466 125.981 20.6044C125.701 19.8425 125.195 19.1745 124.528 18.6808C123.8 18.1824 122.918 17.9307 122.023 17.9657C120.578 17.9657 119.518 18.4615 118.843 19.4531C118.168 20.4447 117.83 21.7259 117.83 23.2967C117.813 24.8651 118.15 26.1498 118.843 27.1509ZM154.862 30.2081C153.608 30.9492 152.158 31.3336 150.684 31.3164C149.227 31.3342 147.791 30.9813 146.524 30.2939C145.351 29.6361 144.392 28.6792 143.755 27.5301C143.079 26.254 142.74 24.8382 142.772 23.4076C142.737 21.9245 143.068 20.4544 143.74 19.1171C144.351 17.9488 145.297 16.9714 146.468 16.2997C147.709 15.6289 149.121 15.2986 150.545 15.3451C151.997 15.3024 153.428 15.6759 154.656 16.4177C155.813 17.1544 156.7 18.2181 157.194 19.4604C157.722 20.7973 157.958 22.2233 157.89 23.6508C157.885 23.788 157.825 23.9182 157.722 24.0132C157.618 24.1082 157.48 24.1604 157.337 24.1585H146.684C146.607 24.1567 146.53 24.1711 146.459 24.2007C146.387 24.2303 146.324 24.2743 146.272 24.3298C146.221 24.3852 146.182 24.4508 146.161 24.5218C146.138 24.5929 146.132 24.6678 146.143 24.7413C146.266 25.734 146.706 26.6664 147.402 27.4121C147.812 27.8034 148.302 28.1081 148.842 28.3065C149.382 28.5048 149.96 28.5923 150.538 28.5634C152.309 28.5634 153.602 27.8948 154.428 26.5647C154.495 26.4507 154.6 26.3617 154.727 26.3124C154.853 26.263 154.993 26.2562 155.124 26.293L157.067 26.8794C157.141 26.9008 157.21 26.9374 157.268 26.9868C157.326 27.0361 157.372 27.0968 157.403 27.1649C157.434 27.2329 157.448 27.3066 157.447 27.3808C157.445 27.4549 157.427 27.5279 157.393 27.5944C156.811 28.6678 155.936 29.5708 154.862 30.2081ZM154.635 21.266C154.185 19.0397 152.86 17.9265 150.658 17.9265L150.647 17.9122C149.335 17.9122 148.307 18.2483 147.552 18.9348C146.884 19.5644 146.432 20.3718 146.252 21.2516C146.234 21.3267 146.235 21.4044 146.254 21.479C146.273 21.5536 146.31 21.6231 146.36 21.6823C146.412 21.7415 146.476 21.7888 146.549 21.8207C146.622 21.8527 146.702 21.8684 146.782 21.8666H154.096C154.175 21.8683 154.254 21.8532 154.326 21.8224C154.398 21.7915 154.463 21.7457 154.513 21.6882C154.565 21.6307 154.602 21.5631 154.623 21.49C154.644 21.417 154.648 21.3405 154.635 21.266ZM171.224 30.9591C171.352 30.9379 171.468 30.8738 171.552 30.7782C171.636 30.6826 171.68 30.5617 171.679 30.4371V29.0248C171.679 28.9465 171.662 28.8692 171.627 28.798C171.593 28.7268 171.545 28.6633 171.482 28.6116C171.421 28.5599 171.349 28.5213 171.271 28.4982C171.193 28.4751 171.111 28.4682 171.029 28.4778C170.344 28.5488 169.652 28.5488 168.967 28.4778C168.624 28.4524 168.294 28.3484 168.003 28.1748C167.713 28.0011 167.47 27.7628 167.296 27.4802C167.098 27.1321 166.993 26.7429 166.989 26.3468V24.7593V18.6132C166.989 18.47 167.048 18.3327 167.155 18.2314C167.261 18.1302 167.403 18.0733 167.554 18.0733H171.13C171.28 18.0724 171.422 18.0152 171.528 17.9141C171.634 17.8131 171.694 17.6763 171.695 17.5334V16.257C171.695 16.1138 171.635 15.9765 171.529 15.8752C171.423 15.774 171.28 15.7171 171.13 15.7171H167.554C167.404 15.7162 167.262 15.659 167.156 15.5579C167.05 15.4569 166.99 15.3201 166.989 15.1772V12.0487C166.988 11.9058 166.928 11.7691 166.823 11.668C166.717 11.567 166.574 11.5098 166.425 11.5088H164.474C164.324 11.5098 164.182 11.567 164.076 11.668C163.97 11.7691 163.91 11.9058 163.909 12.0487V15.1772C163.909 15.3198 163.85 15.4566 163.746 15.5577C163.641 15.6589 163.498 15.7162 163.349 15.7171H161.439C161.366 15.7171 161.292 15.7311 161.224 15.7583C161.155 15.7854 161.093 15.8253 161.042 15.8755C160.99 15.9256 160.948 15.9852 160.92 16.0507C160.892 16.1162 160.878 16.1863 160.879 16.257V17.5334C160.879 17.676 160.938 17.8128 161.043 17.9139C161.148 18.0151 161.29 18.0724 161.439 18.0733H163.349C163.423 18.0733 163.496 18.0873 163.565 18.1145C163.633 18.1417 163.695 18.1815 163.747 18.2317C163.799 18.2818 163.84 18.3414 163.868 18.4069C163.896 18.4723 163.91 18.5425 163.909 18.6132V24.9023C163.909 25.7247 163.92 26.4624 163.939 27.1155C163.977 27.7834 164.166 28.4353 164.496 29.0248C164.87 29.7091 165.475 30.2522 166.212 30.5658C167.02 30.9056 167.892 31.0868 168.776 31.0985C169.594 31.1272 170.414 31.0805 171.224 30.9591ZM17.4268 37.4329C16.5187 38.301 15.2873 38.7887 14.0034 38.7887C12.7203 38.7876 11.49 38.2995 10.5827 37.4315C10.1967 37.0622 9.88254 36.637 9.64891 36.1758L8.03721 36.8388C7.96184 36.8726 7.87953 36.89 7.79626 36.8896C7.67649 36.8886 7.55954 36.8546 7.45954 36.7915C7.35954 36.7284 7.28075 36.639 7.23268 36.534C7.19908 36.4626 7.18078 36.3855 7.17886 36.3072C7.17694 36.2289 7.19146 36.151 7.22153 36.0782C7.25161 36.0053 7.29665 35.939 7.35397 35.8831C7.4113 35.8272 7.47977 35.7828 7.55531 35.7526L9.25611 35.0543C9.19557 34.7615 9.16433 34.4618 9.16406 34.159C9.16406 33.8249 9.20182 33.4944 9.27507 33.173L7.31437 32.7912C7.23569 32.7763 7.16087 32.7466 7.09421 32.7039C7.02755 32.6612 6.97038 32.6064 6.92598 32.5424C6.88156 32.4785 6.8508 32.4069 6.83546 32.3316C6.82012 32.2562 6.82048 32.1787 6.83655 32.1036C6.85168 32.0279 6.88235 31.9559 6.92677 31.8917C6.97119 31.8275 7.02848 31.7724 7.09533 31.7295C7.16218 31.6866 7.23726 31.6569 7.31622 31.642C7.39517 31.627 7.47645 31.6272 7.55531 31.6425L9.69079 32.0585C9.91933 31.629 10.2186 31.2324 10.5815 30.8853C11.1779 30.3147 11.914 29.9084 12.7128 29.697C12.5278 29.5552 12.3502 29.4032 12.1809 29.2413C11.1147 28.2213 10.4583 26.8825 10.3132 25.4589L9.03707 25.6814C8.9769 25.6963 8.91535 25.7054 8.85329 25.7087C8.61445 25.7077 8.38353 25.6266 8.20072 25.4796C8.01791 25.3325 7.89478 25.1288 7.85274 24.9039C7.82855 24.7782 7.8305 24.6492 7.85846 24.5242C7.88642 24.3992 7.93986 24.2807 8.01571 24.1755C8.09156 24.0702 8.18835 23.9804 8.30053 23.9109C8.41272 23.8415 8.5381 23.7939 8.66951 23.7709L10.455 23.4561C10.729 22.3422 11.3226 21.3129 12.1824 20.4909C13.3957 19.3309 15.0402 18.6783 16.7556 18.6763C18.4709 18.6783 20.1155 19.3309 21.3288 20.4909C21.5363 20.6893 21.7284 20.8998 21.9041 21.1206C22.8872 20.5724 24.0102 20.2785 25.1612 20.2781C25.512 20.2776 25.8617 20.3047 26.2068 20.359C26.5192 19.4306 27.0591 18.577 27.7933 17.8746C29.0067 16.7138 30.6519 16.0607 32.368 16.0586C34.084 16.0607 35.7292 16.7138 36.9427 17.8746C37.2172 18.1372 37.4645 18.421 37.6829 18.7219C37.7001 18.718 37.7174 18.7144 37.7348 18.7113L39.2744 18.4417C39.5396 18.3961 39.813 18.4526 40.0348 18.5989C40.2567 18.7453 40.4091 18.9697 40.4587 19.2231C40.5077 19.4775 40.4492 19.74 40.296 19.9531C40.1429 20.1662 39.9077 20.3126 39.6419 20.36L38.5883 20.5445C38.7538 21.0946 38.8402 21.6686 38.8409 22.2511C38.8393 23.4615 38.4678 24.6351 37.7864 25.6335C38.0675 25.5848 38.3545 25.5598 38.6441 25.5596C39.928 25.5596 41.1592 26.0472 42.0675 26.9153L42.1047 26.9512L43.4116 26.1808C43.5501 26.1007 43.7158 26.0759 43.8732 26.1118C44.0305 26.1476 44.1669 26.2411 44.2529 26.3722C44.3368 26.5053 44.3628 26.6645 44.3254 26.8156C44.2879 26.9668 44.1901 27.098 44.0528 27.1809L42.8472 27.8905C43.2241 28.5202 43.4437 29.2302 43.4816 29.9643L44.8899 30.0369C45.0522 30.046 45.2039 30.1159 45.3125 30.2315C45.4212 30.3471 45.4777 30.499 45.4699 30.6542C45.4528 30.7982 45.381 30.9312 45.2679 31.0277C45.155 31.1243 45.0088 31.1777 44.8573 31.1777H44.8246L43.3922 31.1038C43.3305 31.3969 43.239 31.6843 43.1188 31.9619C42.8754 32.5238 42.5185 33.0344 42.0687 33.4644C41.6188 33.8943 41.0849 34.2353 40.4973 34.4677C39.9096 34.7001 39.28 34.8195 38.6441 34.819C37.3605 34.819 36.1297 34.3312 35.2221 33.463C34.3145 32.5948 33.8047 31.4171 33.8047 30.1893C33.8053 29.4795 33.9761 28.7866 34.2955 28.1606C33.6771 28.3457 33.0278 28.4428 32.368 28.4436C30.6519 28.4415 29.0067 27.7884 27.7933 26.6276C26.5907 25.477 25.9094 23.9208 25.8952 22.2949C25.653 22.2561 25.4075 22.2362 25.1612 22.2355C24.3496 22.2357 23.5585 22.4489 22.871 22.8457C23.1043 23.4892 23.2272 24.171 23.2285 24.8649C23.2263 26.5066 22.5438 28.0805 21.3303 29.2413C20.3066 30.2206 18.9757 30.8386 17.5543 31.0091C17.945 31.4117 18.2579 31.878 18.4782 32.3863C18.7216 32.9483 18.847 33.5506 18.847 34.159C18.8458 35.3872 18.3351 36.5648 17.4268 37.4329ZM25.7129 35.206C24.7116 35.247 23.7244 34.9689 22.9062 34.4152C22.088 33.8616 21.4851 33.0637 21.1921 32.1469C21.1299 31.9526 21.1491 31.7427 21.246 31.5618C21.3428 31.3809 21.5095 31.2432 21.7107 31.178C21.9148 31.1092 22.1393 31.1207 22.3346 31.2101C22.5298 31.2995 22.6799 31.4593 22.7521 31.6546C23.2871 33.2174 24.6961 33.8972 26.6196 33.5651C28.543 33.233 29.5722 32.1039 29.5355 30.463C29.5355 30.2557 29.6215 30.057 29.7746 29.9105C29.9279 29.7639 30.1356 29.6816 30.3522 29.6816C30.5688 29.6816 30.7766 29.7639 30.9297 29.9105C31.0829 30.057 31.169 30.2557 31.169 30.463C31.2221 32.8775 29.5885 34.6668 26.9095 35.1318C26.5137 35.1905 26.1133 35.2153 25.7129 35.206ZM13.0226 27.1432C13.1943 27.4003 13.3957 27.6409 13.6248 27.86C14.4553 28.6545 15.5811 29.1018 16.7556 29.1039C17.9301 29.1018 19.0559 28.6545 19.8864 27.86C20.4442 27.3264 20.8383 26.6653 21.0376 25.9482C20.5697 25.1574 18.7347 23.8889 16.903 24.1684C15.1812 24.4312 13.6111 25.9486 13.0226 27.1432ZM21.028 23.7513C20.8256 23.0468 20.4347 22.3976 19.885 21.8722C19.0546 21.0785 17.9294 20.6318 16.7556 20.6297V20.6258C15.5811 20.6279 14.4553 21.0752 13.6248 21.8697C12.7943 22.6642 12.3267 23.7412 12.3245 24.8649C12.3248 25.0005 12.3319 25.1355 12.3455 25.2694C13.3413 24.0372 14.886 22.8888 16.6458 22.6251C18.2424 22.386 19.858 22.9442 21.028 23.7513ZM28.8098 24.7721C28.9391 24.9391 29.0818 25.0976 29.2372 25.2463C30.0677 26.0408 31.1935 26.488 32.368 26.4901C33.5425 26.488 34.6683 26.0408 35.4988 25.2463C36.0025 24.7644 36.3727 24.1785 36.5865 23.5414C35.8151 22.5848 33.8541 21.5413 32.1381 21.805C30.2788 22.0861 29.2083 23.731 28.8098 24.7721ZM36.7377 21.5519C35.4197 20.634 33.5784 20.0286 31.9012 20.2813C30.044 20.5639 28.7676 21.7303 27.9905 22.9012C27.9555 22.6875 27.9374 22.4702 27.937 22.2511C27.9381 21.1272 28.4052 20.0495 29.2359 19.2548C30.0667 18.4601 31.1932 18.0131 32.368 18.0121C33.5428 18.0131 34.6693 18.4601 35.5 19.2548C36.1564 19.8827 36.5858 20.6874 36.7377 21.5519Z" fill="url(#paint0_linear_17741_19797)"/>
</g>
<defs>
<linearGradient id="paint0_linear_17741_19797" x1="86.7381" y1="2.62033e-08" x2="86.7381" y2="48" gradientUnits="userSpaceOnUse">
<stop stop-color="#E4E5E7"/>
<stop offset="1" stop-color="#E4E5E7" stop-opacity="0.7"/>
</linearGradient>
<clipPath id="clip0_17741_19797">
<rect width="172" height="48" fill="white" transform="translate(0.855469)"/>
</clipPath>
</defs>
</svg>
