<svg width="150" height="42" viewBox="0 0 150 42" xmlns="http://www.w3.org/2000/svg"
  fill="url(#gradient)">
  <defs>
    <linearGradient id="gradient" gradientTransform="rotate(90)">
      <stop offset="5%" stop-color="rgba(228, 229, 231, 0.7)" />
      <stop offset="95%" stop-color="#E4E5E7" />
    </linearGradient>
  </defs>
  <g clip-path="url(#clip0_18361_7502)">
    <path fill-rule="evenodd" clip-rule="evenodd"
      d="M0.677289 40.2028C0.801558 40.2486 0.933646 40.2718 1.06679 40.2713C1.2793 40.2632 1.48451 40.1949 1.65631 40.0749C1.82812 39.955 1.95876 39.789 2.03161 39.5978C2.07806 39.4816 3.18224 36.6578 3.67894 26.679C3.93623 21.4486 3.94695 19.1514 3.50385 13.9996C3.13578 9.7503 3.78615 7.82225 4.28284 7.60345C5.45849 7.07358 6.7878 8.03761 8.85679 9.65458C11.3332 11.61 14.4206 14.0235 18.6479 13.415C22.377 12.8786 23.5139 9.42844 24.4285 6.65316L24.4296 6.64969L24.4375 6.62609C25.042 4.79912 25.6097 3.08348 26.638 2.93711C27.1347 2.86532 27.8387 3.15592 28.6284 3.74391C33.8527 7.64449 41.3032 23.0964 42.5647 35.5707C42.5918 35.8413 42.7301 36.0905 42.9492 36.2636C43.1684 36.4367 43.4503 36.5194 43.7332 36.4937C43.8735 36.4809 44.0099 36.4417 44.1344 36.3783C44.259 36.315 44.3691 36.2288 44.4588 36.1246C44.5484 36.0204 44.6157 35.9004 44.6567 35.7713C44.6978 35.6423 44.7118 35.5067 44.6979 35.3724C43.4687 23.24 36.1683 6.77616 29.9577 2.13034C28.6641 1.16288 27.4456 0.752648 26.3379 0.906483C23.9901 1.24782 23.1886 3.67157 22.4107 6.02361L22.4072 6.03432C21.4101 9.05975 20.5882 11.0665 18.3477 11.3878C15.0602 11.8459 12.6088 9.94175 10.2361 8.08546C8.08494 6.40353 5.86228 4.66691 3.41094 5.74375C1.66355 6.51977 0.981024 9.35375 1.39912 14.174C1.8315 19.2095 1.82435 21.4623 1.57064 26.5901C1.10252 36.0185 0.0876787 38.8013 0.0626647 38.8696C0.01083 38.9957 -0.014376 39.1304 -0.0114973 39.2658C-0.00861855 39.4013 0.0222878 39.5349 0.0794361 39.6589C0.136585 39.7828 0.218843 39.8947 0.321458 39.9881C0.424074 40.0815 0.545013 40.1544 0.677289 40.2028ZM117.133 26.5509C117.134 26.6755 117.186 26.7949 117.279 26.8828C117.371 26.9708 117.496 27.0201 117.627 27.0201H119.327C119.391 27.0206 119.456 27.0087 119.515 26.9853C119.576 26.9618 119.63 26.9274 119.676 26.8838C119.722 26.8401 119.758 26.7882 119.783 26.7311C119.808 26.674 119.821 26.6127 119.821 26.5509V9.45678C119.821 9.3315 119.769 9.21133 119.677 9.12274C119.583 9.03414 119.458 8.98438 119.327 8.98438H117.627C117.496 8.9852 117.371 9.03524 117.279 9.12366C117.186 9.21207 117.134 9.33175 117.133 9.45678V26.5509ZM88.016 27.4014C89.625 27.4014 90.9438 26.9957 91.9728 26.1844C92.3388 25.8966 93.0065 26.1218 93.0065 26.5723C93.0065 26.6943 93.0572 26.8113 93.1469 26.8976C93.2375 26.9838 93.3598 27.0322 93.4866 27.0322H94.8835C94.9478 27.0327 95.0121 27.0208 95.0719 26.9974C95.1317 26.974 95.186 26.9395 95.2322 26.8959C95.2784 26.8522 95.3147 26.8004 95.3391 26.7433C95.3645 26.6862 95.3772 26.6248 95.3772 26.563V18.8606C95.3772 18.3069 95.3509 17.7876 95.302 17.2964C95.2503 16.8189 95.1108 16.3539 94.8898 15.923C94.484 15.0673 93.762 14.3853 92.8624 14.0084C91.846 13.576 90.7436 13.3624 89.6315 13.3827C88.0334 13.3827 86.7515 13.7184 85.7857 14.39C84.9584 14.9563 84.3301 15.7493 83.9838 16.6644C83.9629 16.7225 83.9549 16.7841 83.9603 16.8453C83.9656 16.9065 83.9844 16.9659 84.0151 17.0198C84.0459 17.0737 84.0881 17.1208 84.139 17.1582C84.19 17.1957 84.2485 17.2224 84.3109 17.237L85.8838 17.6999C86.014 17.7337 86.1525 17.7205 86.2732 17.6627C86.3938 17.6051 86.488 17.507 86.5379 17.3871C86.7646 16.8994 87.1486 16.4937 87.6334 16.2296C88.2427 15.9007 88.9319 15.7313 89.6315 15.7383C90.7218 15.7383 91.5 15.9595 91.9665 16.4017C92.4077 16.831 92.6758 17.3965 92.722 17.9972C92.7356 18.1133 92.7003 18.2299 92.6242 18.3214C92.549 18.413 92.4376 18.4718 92.3162 18.4852C91.3351 18.6135 90.3869 18.7511 89.4516 18.8919C88.5006 19.0229 87.5591 19.211 86.6327 19.455C85.6893 19.7069 84.8422 20.2143 84.1932 20.9161C83.6194 21.6175 83.325 22.4913 83.3626 23.3813C83.3551 24.0766 83.5354 24.7619 83.8857 25.371C84.2627 25.9839 84.8093 26.4852 85.4652 26.8195C86.2524 27.2114 87.1286 27.4113 88.016 27.4014ZM88.4902 25.3022C87.6366 25.3022 87.0022 25.1145 86.5935 24.739C86.4014 24.5687 86.2484 24.3619 86.1443 24.132C86.0401 23.9019 85.987 23.6538 85.9885 23.4032C85.9747 23.1693 86.0161 22.9354 86.1095 22.7187C86.2029 22.5022 86.3459 22.3084 86.5281 22.1517C86.9331 21.8281 87.3994 21.5817 87.9015 21.426C88.5752 21.2431 89.26 21.1 89.952 20.9974C90.6059 20.8973 91.3324 20.793 92.1296 20.6845C92.2002 20.6736 92.2727 20.6781 92.3415 20.6975C92.4104 20.7169 92.4738 20.7509 92.5263 20.7968C92.5798 20.8428 92.6215 20.8996 92.6477 20.963C92.6749 21.0264 92.6867 21.0948 92.6822 21.1632C92.6822 21.2659 92.672 21.3714 92.6615 21.4806C92.6563 21.5345 92.651 21.5892 92.6468 21.6449C92.6187 21.9955 92.5454 22.3413 92.4276 22.6743C92.3126 23.1338 92.0888 23.562 91.7736 23.9256C91.4221 24.3481 90.9746 24.6883 90.4654 24.9205C89.845 25.186 89.1694 25.3122 88.4902 25.2897V25.3022ZM67.177 26.8825C67.0845 26.7946 67.0321 26.6753 67.0312 26.5505V14.2462C67.0312 14.1209 67.0833 14.0007 67.1758 13.9121C67.2685 13.8235 67.3941 13.7737 67.5251 13.7737H68.9999C69.1135 13.7737 69.2225 13.8169 69.3028 13.8938C69.3831 13.9706 69.4283 14.0749 69.4283 14.1836C69.4402 14.2748 69.4771 14.3612 69.5351 14.4345C69.5932 14.5076 69.6704 14.5648 69.7589 14.6004C69.8475 14.6359 69.9442 14.6485 70.0395 14.6368C70.1347 14.6252 70.225 14.5897 70.3014 14.5339C70.6238 14.2976 70.9726 14.0962 71.3414 13.9333C72.1808 13.577 73.0916 13.4008 74.0098 13.4171C74.8373 13.3928 75.6603 13.5434 76.42 13.8583C77.0324 14.1257 77.5719 14.525 77.9962 15.0252C78.4008 15.491 78.7183 16.0202 78.9347 16.5894C79.1393 17.1251 79.2851 17.6797 79.3696 18.2444C79.4399 18.716 79.4781 19.1915 79.4841 19.6678V26.5505C79.4841 26.6124 79.4713 26.6737 79.4464 26.7308C79.4216 26.788 79.3852 26.8399 79.3393 26.8834C79.2933 26.9271 79.2389 26.9616 79.179 26.9849C79.1191 27.0084 79.055 27.0202 78.9903 27.0198H77.2603C77.1957 27.0202 77.1315 27.0084 77.0716 26.9849C77.0118 26.9616 76.9573 26.9271 76.9114 26.8834C76.8655 26.8399 76.8291 26.788 76.8042 26.7308C76.7794 26.6737 76.7665 26.6124 76.7665 26.5505V20.5063C76.7641 19.9758 76.7171 19.4465 76.626 18.9232C76.5439 18.3944 76.375 17.8813 76.1256 17.4028C75.8823 16.9419 75.5142 16.5518 75.0595 16.2734C74.5175 15.9663 73.8935 15.8174 73.2642 15.8448C72.6514 15.8381 72.0469 15.9814 71.5081 16.2609C70.943 16.5756 70.4947 17.0514 70.2262 17.6218C69.8744 18.4117 69.7112 19.2667 69.7487 20.1246V26.5505C69.7487 26.6749 69.6971 26.7943 69.6051 26.8823C69.5131 26.9703 69.3884 27.0198 69.2582 27.0198H67.5251C67.3946 27.0198 67.2695 26.9704 67.177 26.8825ZM61.4154 26.2596C60.4146 27.0042 59.0423 27.3765 57.2982 27.3765C55.6173 27.3765 54.2406 27.0188 53.1679 26.3034C52.2544 25.6999 51.6013 24.7993 51.3301 23.7694C51.3144 23.7089 51.3121 23.646 51.3237 23.5846C51.3352 23.5233 51.3601 23.465 51.3969 23.4136C51.4337 23.3621 51.4814 23.3187 51.537 23.2863C51.5926 23.2537 51.6546 23.2329 51.7193 23.225L53.5146 22.9591C53.6391 22.9463 53.7644 22.974 53.8705 23.0375C53.9767 23.101 54.0575 23.1968 54.1 23.3095C54.3073 23.8079 54.672 24.2322 55.1431 24.5233C55.8387 24.9362 56.6469 25.142 57.465 25.1146C58.1567 25.152 58.8432 24.9802 59.427 24.6234C59.657 24.475 59.8436 24.2731 59.9695 24.0367C60.0953 23.8002 60.1563 23.537 60.1465 23.2719C60.1614 22.9813 60.0701 22.6948 59.8881 22.4617C59.6053 22.176 59.2472 21.9684 58.8515 21.861C58.3261 21.6733 57.5183 21.4407 56.4283 21.1633C55.4528 20.9337 54.5032 20.613 53.593 20.206C52.9939 19.958 52.4755 19.5603 52.0921 19.0548C51.7896 18.5523 51.639 17.9793 51.6572 17.3998C51.6393 16.8405 51.7643 16.2855 52.0213 15.7829C52.2783 15.2803 52.6595 14.8451 53.1319 14.5153C54.1239 13.7874 55.432 13.4234 57.0562 13.4234C58.4615 13.3731 59.8479 13.7463 61.0197 14.4902C61.8921 15.045 62.5099 15.8979 62.7463 16.8742C62.759 16.9323 62.7592 16.9922 62.7467 17.0504C62.7343 17.1085 62.7095 17.1636 62.674 17.2123C62.6384 17.2609 62.5928 17.3021 62.54 17.3333C62.4873 17.3644 62.4283 17.3849 62.367 17.3935L60.5848 17.7064C60.4494 17.723 60.3124 17.6931 60.198 17.622C60.0836 17.551 59.9993 17.4434 59.9602 17.3184C59.8051 16.9063 59.5207 16.5501 59.1459 16.2985C58.5405 15.8941 57.8207 15.6758 57.0823 15.6728C56.4023 15.6144 55.7193 15.7505 55.1203 16.0639C54.8905 16.1755 54.6979 16.3462 54.5638 16.5567C54.4298 16.7673 54.3598 17.0094 54.3616 17.2559C54.3543 17.5322 54.46 17.8004 54.6559 18.0035C54.982 18.2717 55.3629 18.472 55.7743 18.5917C56.3258 18.7794 57.1467 19.0047 58.2367 19.2675C59.1958 19.4768 60.1255 19.794 61.0065 20.2123C61.6042 20.4821 62.1107 20.907 62.4684 21.4386C62.7814 21.9694 62.9364 22.5721 62.9163 23.1812C62.9426 23.7719 62.82 24.36 62.5587 24.8957C62.2974 25.4315 61.9053 25.8993 61.4154 26.2596ZM100.114 32.7724C100.021 32.6838 99.9688 32.5636 99.9688 32.4383L99.9986 14.2399C99.9977 14.1778 100.01 14.1162 100.035 14.0587C100.06 14.0012 100.096 13.949 100.142 13.905C100.188 13.861 100.242 13.8262 100.303 13.8027C100.363 13.779 100.427 13.7671 100.492 13.7675H102.026C102.12 13.7675 102.211 13.8035 102.278 13.8674C102.345 13.9314 102.382 14.0181 102.382 14.1086C102.39 14.1778 102.416 14.2439 102.458 14.3006C102.5 14.3574 102.557 14.4027 102.623 14.4323C102.688 14.4619 102.761 14.4748 102.834 14.4695C102.907 14.4643 102.976 14.4412 103.036 14.4027C103.378 14.1659 103.748 13.9694 104.139 13.8176C104.87 13.5298 105.656 13.3872 106.448 13.3984C107.64 13.3683 108.814 13.6894 109.809 14.3181C110.771 14.9388 111.531 15.8062 112 16.821C112.531 17.9414 112.794 19.1607 112.772 20.3905C112.792 21.6203 112.529 22.8391 112 23.9602C111.531 24.9676 110.781 25.833 109.835 26.463C108.846 27.0967 107.674 27.4204 106.483 27.389C105.754 27.3992 105.027 27.2826 104.341 27.0448C104.07 26.9519 103.807 26.8368 103.556 26.7007C103.469 26.6525 103.371 26.626 103.271 26.6238C103.17 26.6215 103.071 26.6435 102.981 26.6877C102.892 26.7321 102.816 26.7972 102.76 26.8771C102.704 26.957 102.669 27.0491 102.66 27.1449V32.4383C102.66 32.5636 102.608 32.6838 102.516 32.7724C102.423 32.861 102.298 32.9107 102.166 32.9107H100.462C100.332 32.9107 100.206 32.861 100.114 32.7724ZM103.239 23.7568C103.845 24.6328 104.803 25.0707 106.111 25.0707C106.874 25.1004 107.625 24.8796 108.239 24.445C108.817 24.0107 109.254 23.428 109.499 22.765C109.779 22.0005 109.918 21.1947 109.907 20.3843C109.918 19.581 109.775 18.7825 109.485 18.0286C109.24 17.3619 108.798 16.7774 108.213 16.3454C107.576 15.9093 106.805 15.6891 106.022 15.7197C104.757 15.7197 103.83 16.1535 103.239 17.0212C102.648 17.8888 102.353 19.0099 102.353 20.3843C102.338 21.7567 102.633 22.8808 103.239 23.7568ZM134.753 26.4322C133.655 27.0807 132.387 27.4171 131.097 27.402C129.822 27.4176 128.566 27.1088 127.457 26.5073C126.431 25.9317 125.592 25.0945 125.034 24.089C124.442 22.9724 124.146 21.7336 124.174 20.4818C124.143 19.1841 124.433 17.8978 125.021 16.7276C125.556 15.7054 126.384 14.8501 127.408 14.2624C128.494 13.6754 129.729 13.3864 130.975 13.4271C132.246 13.3898 133.498 13.7166 134.573 14.3656C135.585 15.0103 136.361 15.941 136.793 17.028C137.255 18.1978 137.462 19.4455 137.402 20.6946C137.398 20.8147 137.346 20.9286 137.255 21.0117C137.165 21.0948 137.043 21.1405 136.918 21.1388H127.597C127.53 21.1373 127.462 21.1499 127.4 21.1758C127.337 21.2017 127.282 21.2402 127.237 21.2887C127.192 21.3372 127.158 21.3946 127.139 21.4567C127.119 21.5189 127.114 21.5845 127.124 21.6488C127.231 22.5174 127.616 23.3333 128.225 23.9857C128.584 24.3281 129.012 24.5947 129.485 24.7683C129.958 24.9419 130.464 25.0184 130.969 24.9931C132.519 24.9931 133.651 24.4081 134.373 23.2443C134.431 23.1445 134.524 23.0666 134.634 23.0235C134.745 22.9803 134.867 22.9743 134.982 23.0065L136.683 23.5196C136.747 23.5384 136.808 23.5704 136.858 23.6136C136.909 23.6567 136.949 23.7099 136.976 23.7694C137.003 23.8289 137.016 23.8934 137.015 23.9584C137.013 24.0232 136.997 24.0871 136.967 24.1453C136.458 25.0845 135.692 25.8746 134.753 26.4322ZM134.554 18.6079C134.161 16.6599 133.001 15.6858 131.074 15.6858L131.064 15.6733C129.917 15.6733 129.017 15.9674 128.357 16.5681C127.772 17.119 127.376 17.8255 127.219 18.5953C127.203 18.661 127.204 18.729 127.221 18.7943C127.238 18.8596 127.27 18.9204 127.314 18.9722C127.359 19.024 127.415 19.0654 127.479 19.0933C127.543 19.1213 127.613 19.135 127.683 19.1334H134.083C134.152 19.1349 134.22 19.1217 134.284 19.0948C134.347 19.0677 134.403 19.0276 134.448 18.9773C134.493 18.927 134.526 18.8679 134.544 18.8039C134.562 18.74 134.566 18.6731 134.554 18.6079ZM149.071 27.0893C149.184 27.0708 149.285 27.0147 149.358 26.931C149.432 26.8474 149.471 26.7416 149.47 26.6326V25.3968C149.47 25.3283 149.454 25.2607 149.424 25.1984C149.395 25.1361 149.352 25.0805 149.298 25.0353C149.244 24.99 149.181 24.9562 149.113 24.936C149.044 24.9158 148.972 24.9098 148.901 24.9182C148.301 24.9803 147.696 24.9803 147.096 24.9182C146.797 24.896 146.508 24.805 146.253 24.6531C145.999 24.5011 145.786 24.2926 145.634 24.0453C145.461 23.7407 145.37 23.4001 145.366 23.0536V21.6645V16.2867C145.366 16.1614 145.418 16.0412 145.511 15.9526C145.603 15.864 145.728 15.8142 145.86 15.8142H148.99C149.12 15.8135 149.245 15.7634 149.338 15.6749C149.43 15.5866 149.482 15.4669 149.483 15.3418V14.225C149.483 14.0997 149.431 13.9795 149.338 13.8909C149.246 13.8024 149.12 13.7526 148.99 13.7526H145.86C145.729 13.7518 145.604 13.7017 145.512 13.6133C145.42 13.5249 145.367 13.4052 145.366 13.2802V10.5427C145.365 10.4177 145.313 10.2981 145.22 10.2096C145.128 10.1212 145.003 10.0712 144.872 10.0703H143.165C143.034 10.0712 142.909 10.1212 142.817 10.2096C142.725 10.2981 142.672 10.4177 142.671 10.5427V13.2802C142.671 13.4049 142.619 13.5246 142.528 13.6131C142.436 13.7016 142.311 13.7518 142.181 13.7526H140.51C140.445 13.7526 140.381 13.7648 140.321 13.7886C140.261 13.8123 140.207 13.8472 140.162 13.8912C140.117 13.935 140.08 13.9872 140.056 14.0445C140.031 14.1018 140.019 14.1631 140.02 14.225V15.3418C140.02 15.4666 140.071 15.5863 140.163 15.6748C140.255 15.7633 140.379 15.8135 140.51 15.8142H142.181C142.245 15.8142 142.31 15.8265 142.369 15.8503C142.429 15.8741 142.484 15.9089 142.529 15.9528C142.574 15.9967 142.61 16.0488 142.635 16.1061C142.659 16.1634 142.672 16.2248 142.671 16.2867V21.7896C142.671 22.5092 142.68 23.1547 142.697 23.7262C142.73 24.3106 142.896 24.881 143.185 25.3968C143.512 25.9956 144.041 26.4708 144.686 26.7452C145.393 27.0425 146.156 27.2011 146.93 27.2113C147.645 27.2364 148.363 27.1955 149.071 27.0893ZM14.4995 32.7535C13.7048 33.5131 12.6274 33.9399 11.504 33.9399C10.3812 33.9389 9.30475 33.5118 8.51082 32.7523C8.17311 32.4292 7.89827 32.0572 7.69385 31.6537L6.28403 32.2337C6.21808 32.2633 6.14605 32.2785 6.07319 32.2781C5.96839 32.2773 5.86606 32.2475 5.77856 32.1923C5.69106 32.1371 5.62212 32.0589 5.58006 31.967C5.55066 31.9045 5.53465 31.837 5.53297 31.7685C5.53129 31.7 5.54399 31.6319 5.57031 31.5682C5.59662 31.5044 5.63603 31.4464 5.68619 31.3974C5.73636 31.3485 5.79626 31.3097 5.86236 31.2833L7.35012 30.6724C7.29712 30.4162 7.26976 30.1539 7.26953 29.8889C7.26953 29.5965 7.30257 29.3073 7.36668 29.026L5.65154 28.692C5.58269 28.679 5.51722 28.653 5.4589 28.6156C5.40057 28.5783 5.35055 28.5303 5.31169 28.4743C5.27283 28.4184 5.24592 28.3558 5.23249 28.2899C5.21907 28.2239 5.21938 28.1561 5.23344 28.0904C5.24669 28.0241 5.27352 27.9611 5.31239 27.905C5.35125 27.8488 5.40139 27.8006 5.45988 27.763C5.51837 27.7255 5.58407 27.6995 5.65316 27.6865C5.72224 27.6734 5.79335 27.6735 5.86236 27.6869L7.73046 28.0509C7.93043 27.6751 8.1923 27.3281 8.50978 27.0244C9.03124 26.5255 9.67466 26.1702 10.373 25.985C10.211 25.861 10.0555 25.7279 9.90735 25.5861C8.97441 24.6936 8.40004 23.5222 8.2731 22.2765L7.15646 22.4712C7.10382 22.4843 7.04995 22.4922 6.99565 22.4951C6.78666 22.4942 6.58462 22.4233 6.42465 22.2946C6.26469 22.1659 6.15696 21.9877 6.12017 21.7909C6.09901 21.6809 6.10071 21.568 6.12518 21.4587C6.14965 21.3493 6.1964 21.2456 6.26277 21.1536C6.32914 21.0614 6.41383 20.9828 6.51199 20.922C6.61015 20.8613 6.71986 20.8197 6.83485 20.7995L8.39712 20.5241C8.63694 19.5494 9.15628 18.6488 9.90862 17.9295C10.9702 16.9145 12.4092 16.3435 13.9102 16.3418C15.4111 16.3435 16.8501 16.9145 17.9118 17.9295C18.0933 18.1031 18.2613 18.2873 18.4151 18.4805C19.2753 18.0008 20.2579 17.7437 21.2651 17.7433C21.572 17.7429 21.878 17.7666 22.1799 17.8141C22.4533 17.0018 22.9258 16.2549 23.5681 15.6403C24.6299 14.6246 26.0695 14.0531 27.5711 14.0513C29.0726 14.0531 30.5121 14.6246 31.5739 15.6403C31.814 15.87 32.0305 16.1184 32.2216 16.3817C32.2366 16.3782 32.2518 16.3751 32.267 16.3724L33.6141 16.1365C33.8462 16.0966 34.0854 16.146 34.2795 16.274C34.4736 16.4021 34.607 16.5985 34.6504 16.8202C34.6932 17.0428 34.642 17.2725 34.5081 17.459C34.3741 17.6454 34.1683 17.7735 33.9357 17.815L33.0138 17.9764C33.1586 18.4578 33.2342 18.96 33.2348 19.4697C33.2334 20.5289 32.9083 21.5558 32.312 22.4294C32.558 22.3869 32.8091 22.3649 33.0626 22.3647C34.186 22.3647 35.2634 22.7914 36.0581 23.551L36.0907 23.5825L37.2342 22.9084C37.3553 22.8383 37.5004 22.8166 37.638 22.848C37.7757 22.8794 37.8951 22.9612 37.9703 23.0759C38.0437 23.1924 38.0664 23.3317 38.0337 23.4639C38.0009 23.5962 37.9153 23.711 37.7952 23.7835L36.7403 24.4044C37.0702 24.9554 37.2623 25.5767 37.2955 26.219L38.5277 26.2825C38.6697 26.2905 38.8025 26.3516 38.8975 26.4528C38.9925 26.5539 39.042 26.6868 39.0352 26.8226C39.0202 26.9486 38.9574 27.065 38.8585 27.1495C38.7596 27.234 38.6317 27.2807 38.4992 27.2807H38.4706L37.2172 27.216C37.1631 27.4725 37.0832 27.7239 36.9779 27.9668C36.765 28.4584 36.4527 28.9052 36.0591 29.2814C35.6655 29.6576 35.1983 29.956 34.6841 30.1593C34.17 30.3627 33.619 30.4672 33.0626 30.4667C31.9395 30.4667 30.8625 30.0399 30.0684 29.2802C29.2742 28.5205 28.8281 27.4901 28.8281 26.4157C28.8286 25.7946 28.9781 25.1883 29.2576 24.6405C28.7166 24.8025 28.1484 24.8874 27.5711 24.8881C26.0695 24.8863 24.6299 24.3148 23.5681 23.2991C22.5158 22.2924 21.9198 20.9307 21.9074 19.508C21.6954 19.4741 21.4806 19.4567 21.2651 19.4561C20.555 19.4562 19.8627 19.6428 19.2612 19.99C19.4653 20.553 19.5728 21.1496 19.574 21.7568C19.5721 23.1933 18.9748 24.5704 17.913 25.5861C17.0178 26.4426 15.854 26.9832 14.611 27.1327C14.9528 27.485 15.2267 27.893 15.4194 28.3378C15.6324 28.8295 15.7421 29.3565 15.7421 29.8889C15.7411 30.9636 15.2942 31.994 14.4995 32.7535ZM21.7488 30.8055C20.8727 30.8414 20.0089 30.5981 19.293 30.1136C18.577 29.6292 18.0495 28.931 17.7931 28.1288C17.7386 27.9588 17.7555 27.7751 17.8403 27.6169C17.925 27.4586 18.0708 27.3381 18.2468 27.281C18.4255 27.2208 18.6219 27.2309 18.7927 27.3091C18.9636 27.3873 19.0949 27.5272 19.1581 27.6981C19.6262 29.0655 20.8591 29.6603 22.5421 29.3697C24.2252 29.0792 25.1257 28.0912 25.0935 26.6554C25.0935 26.474 25.1688 26.3002 25.3028 26.172C25.4369 26.0437 25.6187 25.9717 25.8082 25.9717C25.9977 25.9717 26.1795 26.0437 26.3135 26.172C26.4476 26.3002 26.5228 26.474 26.5228 26.6554C26.5693 28.7681 25.1399 30.3337 22.7958 30.7406C22.4495 30.792 22.0991 30.8137 21.7488 30.8055ZM10.6444 23.7511C10.7945 23.9757 10.9705 24.186 11.1707 24.3775C11.8974 25.0727 12.8825 25.4641 13.9102 25.4659C14.9378 25.4641 15.9229 25.0727 16.6496 24.3775C17.138 23.9103 17.483 23.3314 17.6572 22.7035C17.2469 22.0115 15.642 20.9028 14.0402 21.1473C12.5331 21.3772 11.1589 22.7057 10.6444 23.7511ZM17.6482 20.7814C17.471 20.1653 17.1291 19.5977 16.6484 19.1382C15.9218 18.4437 14.9373 18.0528 13.9102 18.051V18.0476C12.8825 18.0494 11.8974 18.4408 11.1707 19.136C10.444 19.8312 10.0349 20.7735 10.033 21.7568C10.0332 21.8758 10.0394 21.9942 10.0514 22.1117C10.9227 21.0331 12.2747 20.0276 13.815 19.7969C15.2115 19.5877 16.6246 20.0757 17.6482 20.7814ZM24.4586 21.6769C24.5715 21.8225 24.696 21.9608 24.8316 22.0905C25.5583 22.7857 26.5433 23.177 27.5711 23.1788C28.5987 23.177 29.5837 22.7857 30.3105 22.0905C30.7515 21.6685 31.0756 21.1555 31.2626 20.5975C30.5869 19.7608 28.8721 18.8489 27.3713 19.0795C25.7437 19.3256 24.807 20.766 24.4586 21.6769ZM31.3943 18.8569C30.2412 18.0543 28.6309 17.5253 27.1641 17.7463C25.5381 17.9937 24.4208 19.0153 23.741 20.0404C23.7102 19.8528 23.6942 19.662 23.6939 19.4697C23.6949 18.4863 24.1036 17.5433 24.8305 16.8479C25.5574 16.1526 26.5431 15.7615 27.5711 15.7606C28.599 15.7615 29.5847 16.1526 30.3115 16.8479C30.8856 17.3971 31.2613 18.1008 31.3943 18.8569Z" />
  </g>
  <defs>
    <clipPath id="clip0_18361_7502">
      <rect width="150" height="42" />
    </clipPath>
  </defs>
</svg>