<svg width="222" height="42" viewBox="0 0 222 42" xmlns="http://www.w3.org/2000/svg"
  fill="url(#gradient)">
  <defs>
    <linearGradient id="gradient" gradientTransform="rotate(90)">
      <stop offset="5%" stop-color="rgba(228, 229, 231, 0.7)" />
      <stop offset="95%" stop-color="#E4E5E7" />
    </linearGradient>
  </defs>
  <g clip-path="url(#clip0_18361_7464)">
    <path fill-rule="evenodd" clip-rule="evenodd"
      d="M23.1359 5.32841C23.1359 7.30471 21.4799 8.90682 19.4371 8.90682C18.7446 8.90682 18.0965 8.72271 17.5424 8.40232L14.7491 11.1048C15.0791 11.6402 15.2687 12.2661 15.2687 12.9348C15.2687 14.9111 13.6127 16.5133 11.5699 16.5133C10.8833 16.5133 10.2403 16.3323 9.6893 16.0169L6.87235 18.7422C7.1986 19.2755 7.38586 19.8977 7.38586 20.5622C7.38586 21.2309 7.19628 21.8568 6.8663 22.3922L9.67917 25.1135C10.2324 24.7945 10.8791 24.6113 11.5699 24.6113C12.2518 24.6113 12.8907 24.7899 13.4392 25.1012L16.2509 22.381C15.9252 21.848 15.7383 21.2263 15.7383 20.5622C15.7383 18.586 17.3942 16.9839 19.4371 16.9839C21.4799 16.9839 23.1358 18.586 23.1358 20.5622C23.1358 22.5386 21.4799 24.1407 19.4371 24.1407C18.7515 24.1407 18.1095 23.9603 17.559 23.6458L14.7509 26.3625C15.0798 26.8974 15.2687 27.5222 15.2687 28.1897C15.2687 28.8537 15.0817 29.4756 14.756 30.0085L17.554 32.7156C18.1056 32.3993 18.7494 32.2178 19.4371 32.2178C21.4799 32.2178 23.1358 33.8199 23.1358 35.7961C23.1358 37.7725 21.4799 39.3746 19.4371 39.3746C17.3942 39.3746 15.7383 37.7725 15.7383 35.7961C15.7383 35.1342 15.9241 34.5142 16.248 33.9823L13.4478 31.2733C12.8974 31.5877 12.2554 31.7682 11.5699 31.7682C9.52709 31.7682 7.87109 30.166 7.87109 28.1897C7.87109 27.5308 8.05516 26.9135 8.37626 26.3833L5.55345 23.6524C5.00559 23.9628 4.3678 24.1407 3.68707 24.1407C1.64429 24.1407 -0.0117188 22.5386 -0.0117188 20.5622C-0.0117188 18.586 1.64429 16.9839 3.68707 16.9839C4.37201 16.9839 5.01347 17.164 5.5636 17.478L8.38225 14.7511C8.05745 14.2187 7.87109 13.5978 7.87109 12.9348C7.87109 10.9586 9.52709 9.35645 11.5699 9.35645C12.2506 9.35645 12.8883 9.53432 13.4361 9.84463L16.2411 7.13092C15.9215 6.60159 15.7383 5.98569 15.7383 5.32841C15.7383 3.3521 17.3943 1.75 19.4371 1.75C21.4799 1.75 23.1359 3.3521 23.1359 5.32841ZM17.3243 5.32841C17.3243 6.45727 18.2702 7.37239 19.4371 7.37239C20.604 7.37239 21.5498 6.45727 21.5498 5.32841C21.5498 4.19954 20.604 3.28442 19.4371 3.28442C18.2702 3.28442 17.3243 4.19954 17.3243 5.32841ZM9.45721 12.9348C9.45721 14.0637 10.4031 14.9787 11.5699 14.9787C12.7367 14.9787 13.6825 14.0637 13.6825 12.9348C13.6825 11.806 12.7367 10.891 11.5699 10.891C10.4031 10.891 9.45721 11.806 9.45721 12.9348ZM27.3277 16.5133C29.3705 16.5133 31.0265 14.9111 31.0265 12.9348C31.0265 10.9586 29.3705 9.35645 27.3277 9.35645C25.2849 9.35645 23.6289 10.9586 23.6289 12.9348C23.6289 14.9111 25.2849 16.5133 27.3277 16.5133ZM27.3277 31.7682C29.3705 31.7682 31.0265 30.166 31.0265 28.1898C31.0265 26.2135 29.3705 24.6113 27.3277 24.6113C25.2849 24.6113 23.6289 26.2135 23.6289 28.1898C23.6289 30.166 25.2849 31.7682 27.3277 31.7682ZM38.8741 20.5622C38.8741 22.5386 37.2181 24.1407 35.1754 24.1407C33.1325 24.1407 31.4766 22.5386 31.4766 20.5622C31.4766 18.586 33.1325 16.9839 35.1754 16.9839C37.2181 16.9839 38.8741 18.586 38.8741 20.5622ZM32.2497 20.5622C32.2497 22.1255 33.5595 23.3927 35.1754 23.3927C36.7911 23.3927 38.1009 22.1255 38.1009 20.5622C38.1009 18.9991 36.7911 17.7319 35.1754 17.7319C33.5595 17.7319 32.2497 18.9991 32.2497 20.5622ZM19.4371 37.8402C18.2702 37.8402 17.3243 36.925 17.3243 35.7961C17.3243 34.6673 18.2702 33.7522 19.4371 33.7522C20.6038 33.7522 21.5498 34.6673 21.5498 35.7961C21.5498 36.925 20.6038 37.8402 19.4371 37.8402ZM11.5699 30.2337C10.403 30.2337 9.45712 29.3186 9.45712 28.1897C9.45712 27.0608 10.403 26.1457 11.5699 26.1457C12.7367 26.1457 13.6826 27.0608 13.6826 28.1897C13.6826 29.3186 12.7367 30.2337 11.5699 30.2337ZM3.68707 22.6063C2.52023 22.6063 1.57432 21.6912 1.57432 20.5622C1.57432 19.4334 2.52023 18.5183 3.68707 18.5183C4.85391 18.5183 5.79982 19.4334 5.79982 20.5622C5.79982 21.6912 4.85391 22.6063 3.68707 22.6063ZM17.3243 20.5622C17.3243 21.6912 18.2702 22.6063 19.4371 22.6063C20.6038 22.6063 21.5498 21.6912 21.5498 20.5622C21.5498 19.4334 20.6038 18.5183 19.4371 18.5183C18.2702 18.5183 17.3243 19.4334 17.3243 20.5622ZM59.2776 3.2002V3.72568H53.0816V23.7524H52.4772V3.72568H46.2812V3.2002H59.2776ZM74.1721 9.35922C72.9431 8.21094 71.3714 7.63681 69.4573 7.63681C67.8655 7.63681 66.4953 8.02605 65.3468 8.80455C64.1982 9.56357 63.4326 10.6729 63.0497 12.1326V2.14844H62.4453V23.7516H63.0497V15.3731C63.0497 12.9986 63.6341 11.2081 64.8027 10.0015C65.9714 8.77535 67.5229 8.16229 69.4573 8.16229C71.3109 8.16229 72.7718 8.70724 73.8397 9.79713C74.9077 10.8676 75.4415 12.4343 75.4415 14.4972V23.7516H76.0158V14.5556C76.0158 12.2396 75.4012 10.5075 74.1721 9.35922ZM88.1121 23.4305C89.9457 23.4305 91.4872 22.9828 92.7364 22.0876C93.9856 21.1922 94.7413 19.9661 95.0032 18.4091H95.6077C95.3256 20.0634 94.5196 21.4063 93.1898 22.4378C91.8801 23.4499 90.1875 23.9559 88.1121 23.9559C86.6009 23.9559 85.2509 23.6347 84.0621 22.9925C82.8733 22.3502 81.9364 21.4161 81.2513 20.1899C80.5864 18.9638 80.2539 17.5236 80.2539 15.8693C80.2539 14.2151 80.5864 12.7748 81.2513 11.5487C81.9364 10.3225 82.8733 9.38836 84.0621 8.7461C85.2509 8.10384 86.6009 7.78271 88.1121 7.78271C89.7039 7.78271 91.064 8.11357 92.1923 8.77529C93.3208 9.41755 94.167 10.2544 94.7312 11.2859C95.3155 12.3174 95.6077 13.4073 95.6077 14.5556C95.6077 15.2563 95.5976 15.7817 95.5775 16.132H80.8584C80.8786 17.7474 81.221 19.1001 81.886 20.1899C82.571 21.2798 83.4577 22.0973 84.5457 22.6422C85.6338 23.1677 86.8225 23.4305 88.1121 23.4305ZM88.1121 8.3082C86.8225 8.3082 85.6338 8.58067 84.5457 9.12562C83.4577 9.6511 82.571 10.4588 81.886 11.5487C81.221 12.6386 80.8786 13.9912 80.8584 15.6065H95.0636C95.1644 13.9912 94.8923 12.6386 94.2476 11.5487C93.6229 10.4588 92.7565 9.6511 91.6484 9.12562C90.5603 8.58067 89.3815 8.3082 88.1121 8.3082ZM189.755 23.5185C189.977 23.7325 190.259 23.8396 190.601 23.8396C190.923 23.8396 191.196 23.7325 191.417 23.5185C191.638 23.3044 191.749 23.0319 191.749 22.701C191.749 22.3701 191.638 22.0978 191.417 21.8837C191.196 21.6696 190.923 21.5625 190.601 21.5625C190.259 21.5625 189.977 21.6696 189.755 21.8837C189.533 22.0978 189.422 22.3701 189.422 22.701C189.422 23.0319 189.533 23.3044 189.755 23.5185ZM196.672 3.2583V23.7521H195.312V3.2583H196.672ZM205.841 22.6708C207.413 23.5466 209.176 23.9845 211.13 23.9845C213.085 23.9845 214.848 23.5466 216.42 22.6708C217.991 21.7756 219.22 20.53 220.107 18.9341C220.994 17.3382 221.437 15.538 221.437 13.5333C221.437 11.5092 220.994 9.70895 220.107 8.1325C219.22 6.53659 217.991 5.30073 216.42 4.42493C214.848 3.52967 213.085 3.08203 211.13 3.08203C209.176 3.08203 207.413 3.52967 205.841 4.42493C204.27 5.30073 203.041 6.53659 202.154 8.1325C201.267 9.70895 200.824 11.5092 200.824 13.5333C200.824 15.538 201.267 17.3382 202.154 18.9341C203.041 20.53 204.27 21.7756 205.841 22.6708ZM215.664 21.6783C214.314 22.4373 212.803 22.8168 211.13 22.8168C209.458 22.8168 207.947 22.4373 206.597 21.6783C205.246 20.9192 204.179 19.8391 203.393 18.4378C202.607 17.0365 202.215 15.4017 202.215 13.5333C202.215 11.6455 202.607 10.0009 203.393 8.59959C204.179 7.19831 205.246 6.11815 206.597 5.35912C207.947 4.6001 209.458 4.22058 211.13 4.22058C212.803 4.22058 214.314 4.6001 215.664 5.35912C217.014 6.11815 218.072 7.19831 218.837 8.59959C219.623 10.0009 220.016 11.6455 220.016 13.5333C220.016 15.4017 219.623 17.0365 218.837 18.4378C218.072 19.8391 217.014 20.9192 215.664 21.6783ZM49.4219 35.4383C49.4219 34.7462 49.5784 34.1279 49.8914 33.5837C50.2045 33.0326 50.6324 32.6059 51.175 32.3036C51.7176 31.9944 52.3229 31.8398 52.9908 31.8398C53.8048 31.8398 54.5006 32.028 55.078 32.4043C55.6623 32.7739 56.0867 33.298 56.3511 33.9768H55.4954C55.2867 33.4996 54.9667 33.1267 54.5353 32.858C54.1109 32.5891 53.5961 32.4547 52.9908 32.4547C52.4551 32.4547 51.9716 32.5756 51.5403 32.8176C51.1159 33.0595 50.7819 33.4089 50.5385 33.8659C50.295 34.3161 50.1732 34.8403 50.1732 35.4383C50.1732 36.0365 50.295 36.5606 50.5385 37.0108C50.7819 37.4611 51.1159 37.8071 51.5403 38.049C51.9716 38.2909 52.4551 38.4119 52.9908 38.4119C53.5961 38.4119 54.1109 38.2809 54.5353 38.0188C54.9667 37.75 55.2867 37.3804 55.4954 36.91H56.3511C56.0867 37.582 55.6623 38.1028 55.078 38.4723C54.4936 38.8419 53.7978 39.0267 52.9908 39.0267C52.3229 39.0267 51.7176 38.8756 51.175 38.5732C50.6324 38.2641 50.2045 37.8374 49.8914 37.293C49.5784 36.7487 49.4219 36.1305 49.4219 35.4383ZM70.7076 38.5832C71.2573 38.8857 71.8694 39.0369 72.5443 39.0369C73.2261 39.0369 73.8418 38.8857 74.3914 38.5832C74.941 38.2742 75.3724 37.8474 75.6854 37.3031C75.9985 36.7521 76.155 36.1305 76.155 35.4383C76.155 34.7462 75.9985 34.1279 75.6854 33.5837C75.3724 33.0326 74.941 32.6059 74.3914 32.3036C73.8418 31.9944 73.2261 31.8398 72.5443 31.8398C71.8694 31.8398 71.2573 31.9944 70.7076 32.3036C70.158 32.6059 69.7232 33.0326 69.4032 33.5837C69.0901 34.1279 68.9336 34.7462 68.9336 35.4383C68.9336 36.1305 69.0901 36.7521 69.4032 37.3031C69.7232 37.8474 70.158 38.2742 70.7076 38.5832ZM74.0053 38.0591C73.574 38.301 73.087 38.422 72.5443 38.422C72.0016 38.422 71.5147 38.301 71.0833 38.0591C70.652 37.8172 70.3111 37.4711 70.0606 37.0209C69.8102 36.5639 69.6849 36.0364 69.6849 35.4383C69.6849 34.8403 69.8102 34.3161 70.0606 33.8659C70.3111 33.4157 70.652 33.0696 71.0833 32.8277C71.5147 32.5858 72.0016 32.4648 72.5443 32.4648C73.087 32.4648 73.574 32.5858 74.0053 32.8277C74.4367 33.0696 74.7775 33.4157 75.028 33.8659C75.2785 34.3161 75.4037 34.8403 75.4037 35.4383C75.4037 36.0364 75.2785 36.5639 75.028 37.0209C74.7775 37.4711 74.4367 37.8172 74.0053 38.0591ZM94.4488 38.9653H93.7182L89.6796 33.0383V38.9653H88.9492V31.9194H89.6796L93.7182 37.8363V31.9194H94.4488V38.9653ZM108.49 38.795C108.859 38.9562 109.284 39.0369 109.764 39.0369C110.258 39.0369 110.682 38.9461 111.037 38.7647C111.391 38.5832 111.659 38.3447 111.84 38.049C112.021 37.7533 112.112 37.4408 112.112 37.1116C112.112 36.6815 112.011 36.3388 111.809 36.0835C111.607 35.8281 111.36 35.6399 111.068 35.5189C110.775 35.3913 110.393 35.2637 109.92 35.136C109.51 35.0284 109.183 34.9277 108.939 34.8335C108.703 34.7394 108.504 34.6017 108.344 34.4203C108.184 34.2388 108.104 34.0003 108.104 33.7046C108.104 33.3148 108.25 33.0091 108.543 32.7874C108.835 32.5588 109.2 32.4446 109.638 32.4446C110.111 32.4446 110.487 32.5588 110.765 32.7874C111.043 33.0091 111.207 33.2645 111.256 33.5534H112.049C111.987 33.0494 111.746 32.6395 111.329 32.3237C110.918 32.0011 110.376 31.8398 109.701 31.8398C109.242 31.8398 108.835 31.9205 108.48 32.0818C108.125 32.243 107.85 32.4681 107.656 32.7571C107.461 33.0393 107.363 33.3619 107.363 33.7247C107.363 34.1616 107.464 34.5077 107.666 34.763C107.868 35.0183 108.111 35.2066 108.396 35.3275C108.682 35.4485 109.068 35.5727 109.555 35.7004C109.972 35.8079 110.299 35.9088 110.536 36.0029C110.772 36.0901 110.97 36.2279 111.131 36.4161C111.29 36.5975 111.371 36.8395 111.371 37.1418C111.371 37.5182 111.225 37.8307 110.933 38.0793C110.647 38.3212 110.258 38.4422 109.764 38.4422C109.228 38.4422 108.821 38.3145 108.543 38.0591C108.264 37.7971 108.108 37.4946 108.073 37.1519H107.301C107.315 37.5081 107.426 37.8307 107.635 38.1196C107.843 38.4086 108.129 38.6337 108.49 38.795ZM125.684 31.9194V36.3545C125.684 37.0534 125.854 37.5709 126.195 37.9068C126.543 38.2428 127.016 38.4109 127.615 38.4109C128.213 38.4109 128.679 38.2463 129.013 37.917C129.354 37.581 129.525 37.0601 129.525 36.3545V31.9194H130.254V36.3445C130.254 37.2382 130.007 37.9102 129.514 38.3605C129.026 38.8107 128.39 39.0358 127.604 39.0358C126.818 39.0358 126.178 38.8107 125.684 38.3605C125.197 37.9102 124.953 37.2382 124.953 36.3445V31.9194H125.684ZM146.677 38.3906H144.058V31.9194H143.328V38.9653H146.677V38.3906ZM163.442 31.9204V32.5051H161.418V38.9662H160.687V32.5051H158.652V31.9204H163.442ZM176.785 38.9662V31.9204H176.055V38.9662H176.785ZM195.403 38.9653H194.672L190.633 33.0383V38.9653H189.902V31.9194H190.633L194.672 37.8363V31.9194H195.403V38.9653ZM213.281 32.8881C213.713 33.1502 214.033 33.5131 214.242 33.9768H215.097C214.833 33.3048 214.408 32.7806 213.825 32.4043C213.24 32.028 212.558 31.8398 211.779 31.8398C211.104 31.8398 210.492 31.9944 209.942 32.3036C209.393 32.6059 208.957 33.0326 208.637 33.5837C208.324 34.1279 208.168 34.7462 208.168 35.4383C208.168 36.1305 208.324 36.7521 208.637 37.3031C208.957 37.8474 209.393 38.2742 209.942 38.5832C210.492 38.8857 211.104 39.0369 211.779 39.0369C212.433 39.0369 213.021 38.8924 213.542 38.6034C214.072 38.3145 214.492 37.9213 214.806 37.4241C215.118 36.9201 215.292 36.359 215.327 35.7407V35.2267H211.486V35.8012H214.554C214.52 36.3254 214.377 36.7857 214.127 37.1821C213.883 37.572 213.557 37.8743 213.146 38.0894C212.743 38.2977 212.287 38.4018 211.779 38.4018C211.236 38.4018 210.749 38.2809 210.318 38.039C209.886 37.7971 209.545 37.451 209.295 37.0008C209.045 36.5505 208.92 36.0297 208.92 35.4383C208.92 34.847 209.045 34.3296 209.295 33.886C209.545 33.4358 209.886 33.0897 210.318 32.8478C210.749 32.6059 211.236 32.4849 211.779 32.4849C212.356 32.4849 212.857 32.6194 213.281 32.8881ZM110.847 3.25635V4.3657H101.266V12.9193H109.638V14.0288H101.266V23.7501H99.9062V3.25635H110.847ZM114.595 11.5172C113.93 12.7434 113.598 14.1738 113.598 15.8086C113.598 17.4435 113.93 18.8837 114.595 20.1293C115.279 21.3554 116.216 22.309 117.405 22.9903C118.614 23.6519 119.985 23.9828 121.516 23.9828C123.229 23.9828 124.69 23.5741 125.899 22.7567C127.128 21.9199 127.983 20.8591 128.467 19.5746V23.7493H129.828V7.89723H128.467V12.0427C127.983 10.7776 127.138 9.73642 125.928 8.919C124.719 8.10158 123.249 7.69287 121.516 7.69287C119.985 7.69287 118.614 8.02374 117.405 8.68545C116.216 9.34717 115.279 10.2911 114.595 11.5172ZM127.56 12.1595C128.165 13.2104 128.467 14.4268 128.467 15.8086C128.467 17.2099 128.175 18.4458 127.591 19.5162C127.007 20.5672 126.191 21.3846 125.142 21.9685C124.115 22.5329 122.967 22.8151 121.697 22.8151C120.388 22.8151 119.219 22.5329 118.191 21.9685C117.184 21.4041 116.398 20.5964 115.834 19.5454C115.27 18.4944 114.987 17.2489 114.987 15.8086C114.987 14.3684 115.27 13.1228 115.834 12.0719C116.398 11.0209 117.184 10.223 118.191 9.67803C119.199 9.11363 120.367 8.83142 121.697 8.83142C122.967 8.83142 124.115 9.12336 125.142 9.70722C126.171 10.2716 126.977 11.0891 127.56 12.1595ZM136.142 12.0723C136.646 10.7878 137.502 9.73679 138.711 8.91937C139.92 8.10195 141.38 7.69324 143.093 7.69324C144.624 7.69324 145.985 8.0241 147.173 8.68582C148.382 9.34754 149.32 10.2915 149.984 11.5176C150.669 12.7438 151.012 14.1741 151.012 15.809C151.012 17.4439 150.669 18.8841 149.984 20.1297C149.32 21.3558 148.382 22.3094 147.173 22.9906C145.985 23.6523 144.624 23.9832 143.093 23.9832C141.38 23.9832 139.91 23.5745 138.681 22.7571C137.472 21.9397 136.626 20.8887 136.142 19.6041V23.7496H134.781V2.14648H136.142V12.0723ZM149.622 15.809C149.622 14.3688 149.34 13.1232 148.775 12.0723C148.212 11.0213 147.415 10.2233 146.388 9.6784C145.38 9.114 144.211 8.83179 142.881 8.83179C141.613 8.83179 140.463 9.12373 139.436 9.70759C138.408 10.272 137.602 11.0894 137.018 12.1598C136.434 13.2108 136.142 14.4272 136.142 15.809C136.142 17.2103 136.434 18.4461 137.018 19.5166C137.602 20.5676 138.408 21.385 139.436 21.9689C140.463 22.5332 141.613 22.8155 142.881 22.8155C144.211 22.8155 145.38 22.5332 146.388 21.9689C147.415 21.4044 148.212 20.5968 148.775 19.5458C149.34 18.4948 149.622 17.2492 149.622 15.809ZM158.623 8.50939C157.595 9.11272 156.88 9.99826 156.477 11.166V7.89633H155.117V23.7484H156.477V14.6108C156.477 12.6062 157.01 11.166 158.079 10.2902C159.146 9.39493 160.487 8.94729 162.099 8.94729H162.552V7.5752C160.96 7.5752 159.65 7.8866 158.623 8.50939ZM166.379 4.3645C166.056 4.3645 165.784 4.26718 165.563 4.07256C165.341 3.85847 165.23 3.57626 165.23 3.22595C165.23 2.89509 165.341 2.62262 165.563 2.40853C165.784 2.19445 166.056 2.0874 166.379 2.0874C166.701 2.0874 166.973 2.19445 167.195 2.40853C167.416 2.62262 167.527 2.89509 167.527 3.22595C167.527 3.57626 167.416 3.85847 167.195 4.07256C166.973 4.26718 166.701 4.3645 166.379 4.3645ZM167.044 7.89691V23.7489H165.683V7.89691H167.044ZM172.177 11.488C171.513 12.7142 171.18 14.1543 171.18 15.8086C171.18 17.463 171.513 18.9129 172.177 20.1585C172.863 21.3846 173.799 22.3285 174.988 22.9903C176.197 23.6519 177.577 23.9828 179.129 23.9828C181.164 23.9828 182.846 23.4768 184.177 22.4648C185.507 21.4527 186.333 20.1196 186.655 18.4652H185.234C184.972 19.8276 184.288 20.898 183.179 21.6766C182.091 22.455 180.741 22.8443 179.129 22.8443C177.92 22.8443 176.822 22.5815 175.834 22.0561C174.848 21.5306 174.052 20.7423 173.447 19.6914C172.863 18.6404 172.57 17.3462 172.57 15.8086C172.57 14.2906 172.863 13.0061 173.447 11.9551C174.052 10.8847 174.848 10.0965 175.834 9.59045C176.822 9.06497 177.92 8.80223 179.129 8.80223C180.741 8.80223 182.091 9.19147 183.179 9.96996C184.288 10.7485 184.972 11.8189 185.234 13.1812H186.655C186.333 11.5075 185.507 10.1743 184.177 9.18174C182.867 8.18917 181.184 7.69287 179.129 7.69287C177.577 7.69287 176.197 8.02374 174.988 8.68545C173.799 9.32771 172.863 10.2619 172.177 11.488Z" />
  </g>
  <defs>
    <clipPath id="clip0_18361_7464">
      <rect width="222" height="42" />
    </clipPath>
  </defs>
</svg>