<svg width="166" height="48" viewBox="0 0 166 48" fill="none" xmlns="http://www.w3.org/2000/svg">
<path d="M82.4708 15C76.0416 15 71.4061 19.05 71.4061 25.125C71.4061 31.2 76.624 35.25 83.0531 35.25C86.9374 35.25 90.3616 33.765 92.4814 31.2619L88.0264 28.7756C86.8501 30.0188 85.0622 30.7444 83.0531 30.7444C80.2637 30.7444 77.8935 29.3381 77.0142 27.0881H93.3316C93.4598 26.4581 93.5355 25.8056 93.5355 25.1194C93.5355 19.05 88.8999 15 82.4708 15ZM76.9617 23.1562C77.6897 20.9119 79.6813 19.5 82.465 19.5C85.2544 19.5 87.2461 20.9119 87.9682 23.1562H76.9617ZM145.178 15C138.749 15 134.114 19.05 134.114 25.125C134.114 31.2 139.332 35.25 145.761 35.25C149.645 35.25 153.069 33.765 155.189 31.2619L150.734 28.7756C149.558 30.0188 147.77 30.7444 145.761 30.7444C142.971 30.7444 140.601 29.3381 139.722 27.0881H156.039C156.167 26.4581 156.243 25.8056 156.243 25.1194C156.243 19.05 151.608 15 145.178 15ZM139.675 23.1562C140.403 20.9119 142.395 19.5 145.178 19.5C147.968 19.5 149.959 20.9119 150.682 23.1562H139.675ZM116.946 25.125C116.946 28.5 119.229 30.75 122.77 30.75C125.169 30.75 126.968 29.6981 127.894 27.9825L132.367 30.4744C130.515 33.4556 127.044 35.25 122.77 35.25C116.335 35.25 111.705 31.2 111.705 25.125C111.705 19.05 116.34 15 122.77 15C127.044 15 130.509 16.7944 132.367 19.7756L127.894 22.2675C126.968 20.5519 125.169 19.5 122.77 19.5C119.235 19.5 116.946 21.75 116.946 25.125ZM164.978 8.8125V34.6875H159.737V8.8125H164.978ZM21.8538 6L43.3717 42H0.335938L21.8538 6ZM75.6515 8.8125L59.5145 35.8125L43.3775 8.8125H49.4282L59.5145 25.6875L69.6008 8.8125H75.6515ZM109.958 15.5625V21.0131C109.375 20.85 108.758 20.7375 108.094 20.7375C104.711 20.7375 102.271 22.9875 102.271 26.3625V34.6875H97.0296V15.5625H102.271V20.7375C102.271 17.88 105.712 15.5625 109.958 15.5625Z" fill="url(#paint0_linear_17741_19705)"/>
<defs>
<linearGradient id="paint0_linear_17741_19705" x1="83" y1="-1.90333e-07" x2="83" y2="48" gradientUnits="userSpaceOnUse">
<stop stop-color="#E4E5E7"/>
<stop offset="1" stop-color="#E4E5E7" stop-opacity="0.7"/>
</linearGradient>
</defs>
</svg>
