<svg width="145" height="42" viewBox="0 0 145 42" xmlns="http://www.w3.org/2000/svg"
  fill="url(#gradient)">
  <defs>
    <linearGradient id="gradient" gradientTransform="rotate(90)">
      <stop offset="5%" stop-color="rgba(228, 229, 231, 0.7)" />
      <stop offset="95%" stop-color="#E4E5E7" />
    </linearGradient>
  </defs>
  <path
    d="M72.1571 13.125C66.5315 13.125 62.4755 16.6687 62.4755 21.9844C62.4755 27.3 67.0411 30.8438 72.6666 30.8438C76.0654 30.8438 79.0616 29.5444 80.9164 27.3541L77.0182 25.1787C75.9889 26.2664 74.4246 26.9013 72.6666 26.9013C70.2258 26.9013 68.1519 25.6709 67.3825 23.7021H81.6603C81.7724 23.1509 81.8386 22.5799 81.8386 21.9795C81.8386 16.6688 77.7826 13.125 72.1571 13.125ZM67.3366 20.2617C67.9736 18.2979 69.7163 17.0625 72.152 17.0625C74.5927 17.0625 76.3354 18.2979 76.9673 20.2617H67.3366ZM127.026 13.125C121.401 13.125 117.345 16.6687 117.345 21.9844C117.345 27.3 121.91 30.8438 127.536 30.8438C130.935 30.8438 133.931 29.5444 135.785 27.3541L131.887 25.1787C130.858 26.2664 129.294 26.9013 127.536 26.9013C125.095 26.9013 123.021 25.6709 122.252 23.7021H136.529C136.642 23.1509 136.708 22.5799 136.708 21.9795C136.708 16.6688 132.652 13.125 127.026 13.125ZM122.211 20.2617C122.848 18.2979 124.591 17.0625 127.026 17.0625C129.467 17.0625 131.21 18.2979 131.842 20.2617H122.211ZM102.323 21.9844C102.323 24.9375 104.32 26.9062 107.418 26.9062C109.518 26.9062 111.092 25.9859 111.903 24.4847L115.816 26.6651C114.196 29.2737 111.159 30.8438 107.418 30.8438C101.788 30.8438 97.7369 27.3 97.7369 21.9844C97.7369 16.6687 101.793 13.125 107.418 13.125C111.159 13.125 114.19 14.6951 115.816 17.3037L111.903 19.4841C111.092 17.9829 109.518 17.0625 107.418 17.0625C104.325 17.0625 102.323 19.0312 102.323 21.9844ZM144.351 7.71094V30.3516H139.765V7.71094H144.351ZM19.1172 5.25L37.9454 36.75H0.289062L19.1172 5.25ZM66.1901 7.71094L52.0703 31.3359L37.9505 7.71094H43.2448L52.0703 22.4766L60.8958 7.71094H66.1901ZM96.2082 13.6172V18.3865C95.6986 18.2438 95.1585 18.1453 94.5776 18.1453C91.6171 18.1453 89.482 20.1141 89.482 23.0672V30.3516H84.896V13.6172H89.482V18.1453C89.482 15.645 92.4935 13.6172 96.2082 13.6172Z"
  />
</svg>