<svg width="226" height="48" viewBox="0 0 226 48" fill="none" xmlns="http://www.w3.org/2000/svg">
<path fill-rule="evenodd" clip-rule="evenodd" d="M20.0548 5.92543C17.5565 6.6543 15.2349 7.85938 13.2269 9.46948C12.3857 8.08419 11.0472 7.04532 9.46552 6.54988C11.9625 4.38027 14.8984 2.73466 18.0875 1.71697C21.2767 0.699342 24.6497 0.331796 27.9934 0.637684C31.3372 0.943513 34.5788 1.91603 37.5135 3.49381C38.256 3.89304 38.9748 4.32881 39.6673 4.79891C39.6909 4.789 39.7147 4.77926 39.7386 4.76969C40.6374 4.41019 41.6263 4.31614 42.5804 4.49948C43.5345 4.68287 44.4109 5.13536 45.0987 5.79976C45.7866 6.46416 46.2549 7.31067 46.4447 8.2322C46.6343 9.15374 46.5369 10.1089 46.1645 10.9769C45.7921 11.845 45.1616 12.5868 44.3527 13.1087C43.5438 13.6307 42.5928 13.9091 41.62 13.909C40.9741 13.909 40.3346 13.7861 39.7379 13.5474C39.1412 13.3086 38.5991 12.9587 38.1424 12.5176C37.6857 12.0765 37.3235 11.5528 37.0764 10.9765C36.8293 10.4001 36.7022 9.78241 36.7022 9.15861C36.7022 8.91496 36.7216 8.67273 36.7598 8.43396C36.2449 8.09234 35.7123 7.77419 35.1639 7.48086C32.8808 6.25977 30.3674 5.49294 27.7724 5.22583C25.1773 4.95866 22.5531 5.19655 20.0548 5.92543ZM12.3041 12.769C12.3041 13.6633 12.0427 14.5386 11.5512 15.2945L12.5594 16.979C11.5814 18.1025 10.2397 18.8746 8.75131 19.1706L7.75442 17.5054C7.31274 17.5374 6.86626 17.5118 6.42719 17.4275C5.47324 17.2443 4.59698 16.792 3.90919 16.1277C3.2214 15.4636 2.75299 14.6172 2.56319 13.6959C2.37332 12.7746 2.47062 11.8196 2.84276 10.9517C3.21484 10.0838 3.84505 9.34194 4.65371 8.81993C5.46237 8.29797 6.4131 8.0193 7.38569 8.01912C8.03157 8.01907 8.67107 8.14186 9.26782 8.38051C9.86457 8.61917 10.4068 8.96906 10.8635 9.41011C11.3202 9.85117 11.6825 10.3748 11.9297 10.9511C12.1768 11.5275 12.3041 12.1452 12.3041 12.769ZM8.75149 19.1707L17.2305 33.3356L19.7871 37.6127L22.3443 33.3356L25.5321 28.0031L28.7112 33.3164L31.2665 37.5922L33.823 33.3158L38.1116 26.139H45.1157C45.1989 25.429 45.2407 24.715 45.2408 24.0005C45.241 23.2859 45.199 22.5719 45.115 21.8619H35.5544L35.1099 22.6053L31.2652 29.0368L28.086 23.7228L25.5294 19.4458L22.9768 23.7235L19.7871 29.056L12.5599 16.9791C11.5817 18.1026 10.24 18.8747 8.75149 19.1707ZM45.2409 24C45.2408 24.7146 45.199 25.4286 45.1157 26.1386H49.818V21.8615H45.1157C45.1995 22.5715 45.2413 23.2855 45.2409 24ZM49.8195 21.8619H49.8911C49.9566 22.5662 49.9924 23.2795 49.9924 24.0005C49.9924 36.9595 39.1184 47.4665 25.699 47.4665C12.2797 47.4665 1.40237 36.9607 1.40237 24.0017C1.39885 21.7048 1.74614 19.4199 2.43296 17.2209C3.55813 18.391 5.0889 19.1214 6.73476 19.2737C6.3738 20.7828 6.15393 22.5368 6.15393 24.0005C6.15393 34.4231 14.9018 42.8767 25.6997 42.8767C35.7471 42.8767 44.0176 35.5566 45.1171 26.139H49.8195V21.8619Z" fill="url(#paint0_linear_17741_19758)"/>
<path d="M74.9085 31.68L71.0443 15.5981H74.1929L75.8388 23.3165L76.8645 28.247H76.9361L78.1287 23.3165L80.037 15.5981H83.5196L85.4278 23.3165L86.5967 28.247H86.6682L87.7178 23.3165L89.4113 15.5981H92.4168L88.4334 31.68H84.8792L82.7563 23.1782L81.7306 18.9389H81.6829L80.6095 23.1782L78.4865 31.68H74.9085Z" fill="url(#paint1_linear_17741_19758)"/>
<path d="M102.157 29.6755H102.038C101.926 29.9827 101.775 30.2746 101.585 30.551C101.41 30.8122 101.179 31.0502 100.893 31.2653C100.622 31.4803 100.288 31.6493 99.8909 31.7722C99.5093 31.895 99.064 31.9565 98.5552 31.9565C97.2671 31.9565 96.2812 31.5494 95.5974 30.7354C94.9136 29.9213 94.5717 28.7616 94.5717 27.2563V19.6531H97.6249V26.9568C97.6249 27.7862 97.7919 28.4237 98.1258 28.8691C98.4597 29.2992 98.9925 29.5142 99.724 29.5142C100.026 29.5142 100.32 29.4758 100.607 29.399C100.909 29.3222 101.171 29.207 101.394 29.0534C101.616 28.8845 101.799 28.6848 101.942 28.4544C102.085 28.2086 102.157 27.9245 102.157 27.6019V19.6531H105.21V31.68H102.157V29.6755Z" fill="url(#paint2_linear_17741_19758)"/>
<path d="M108.738 31.68V19.6531H111.791V21.6576H111.91C112.165 21.0125 112.562 20.4749 113.103 20.0448C113.66 19.5994 114.423 19.3766 115.393 19.3766C116.681 19.3766 117.667 19.7837 118.351 20.5978C119.035 21.4118 119.376 22.5715 119.376 24.0768V31.68H116.323V24.3763C116.323 23.5162 116.164 22.871 115.846 22.441C115.528 22.0109 115.003 21.7958 114.272 21.7958C113.954 21.7958 113.644 21.8419 113.342 21.9341C113.055 22.0109 112.793 22.1338 112.554 22.3027C112.332 22.4563 112.149 22.656 112.006 22.9018C111.863 23.1322 111.791 23.4086 111.791 23.7312V31.68H108.738Z" fill="url(#paint3_linear_17741_19758)"/>
<path d="M130.49 29.6755H130.37C130.148 30.3667 129.726 30.9197 129.106 31.3344C128.486 31.7491 127.762 31.9565 126.935 31.9565C125.361 31.9565 124.152 31.4112 123.31 30.3206C122.483 29.2301 122.069 27.671 122.069 25.6435C122.069 23.6314 122.483 22.0877 123.31 21.0125C124.152 19.9219 125.361 19.3766 126.935 19.3766C127.762 19.3766 128.486 19.584 129.106 19.9987C129.726 20.3981 130.148 20.9434 130.37 21.6346H130.49V14.6304H133.543V31.68H130.49V29.6755ZM127.913 29.5142C128.645 29.5142 129.257 29.3453 129.75 29.0074C130.243 28.6694 130.49 28.1856 130.49 27.5558V23.7312C130.49 23.1475 130.243 22.679 129.75 22.3258C129.257 21.9725 128.645 21.7958 127.913 21.7958C127.118 21.7958 126.474 22.057 125.981 22.5792C125.504 23.0861 125.266 23.7696 125.266 24.6298V26.7034C125.266 27.5635 125.504 28.247 125.981 28.7539C126.474 29.2608 127.118 29.5142 127.913 29.5142Z" fill="url(#paint4_linear_17741_19758)"/>
<path d="M142.097 31.9565C141.174 31.9565 140.347 31.8106 139.616 31.5187C138.9 31.2115 138.288 30.7891 137.779 30.2515C137.286 29.6986 136.905 29.0381 136.634 28.2701C136.364 27.4867 136.229 26.6112 136.229 25.6435C136.229 24.6912 136.356 23.831 136.61 23.063C136.881 22.295 137.262 21.6422 137.755 21.1046C138.248 20.5517 138.853 20.1293 139.568 19.8374C140.284 19.5302 141.095 19.3766 142.001 19.3766C142.971 19.3766 143.814 19.5379 144.53 19.8605C145.245 20.183 145.834 20.6208 146.295 21.1738C146.756 21.7267 147.098 22.3718 147.321 23.1091C147.559 23.831 147.678 24.6067 147.678 25.4362V26.4038H139.401V26.7034C139.401 27.5789 139.656 28.2854 140.165 28.823C140.673 29.3453 141.429 29.6064 142.431 29.6064C143.194 29.6064 143.814 29.4528 144.291 29.1456C144.784 28.8384 145.222 28.4467 145.603 27.9706L147.249 29.7446C146.74 30.4358 146.04 30.9811 145.15 31.3805C144.275 31.7645 143.258 31.9565 142.097 31.9565ZM142.049 21.5885C141.238 21.5885 140.594 21.8496 140.117 22.3718C139.64 22.8941 139.401 23.5699 139.401 24.3994V24.5837H144.506V24.3763C144.506 23.5469 144.291 22.8787 143.862 22.3718C143.448 21.8496 142.844 21.5885 142.049 21.5885Z" fill="url(#paint5_linear_17741_19758)"/>
<path d="M150.365 31.68V19.6531H153.418V22.1414H153.537C153.617 21.8189 153.736 21.5117 153.895 21.2198C154.07 20.9126 154.293 20.6438 154.563 20.4134C154.833 20.183 155.151 19.9987 155.517 19.8605C155.899 19.7222 156.336 19.6531 156.829 19.6531H157.497V22.441H156.543C155.509 22.441 154.73 22.5869 154.205 22.8787C153.68 23.1706 153.418 23.6467 153.418 24.3072V31.68H150.365Z" fill="url(#paint6_linear_17741_19758)"/>
<path d="M170.767 29.1917H170.672C170.529 29.975 170.076 30.6355 169.312 31.1731C168.565 31.6954 167.563 31.9565 166.307 31.9565C165.321 31.9565 164.407 31.7798 163.564 31.4266C162.737 31.0733 162.013 30.551 161.393 29.8598C160.789 29.1533 160.312 28.2854 159.962 27.2563C159.612 26.2272 159.437 25.0368 159.437 23.6851C159.437 22.3334 159.612 21.143 159.962 20.1139C160.328 19.0694 160.837 18.1939 161.488 17.4874C162.14 16.7808 162.92 16.2432 163.826 15.8746C164.733 15.5059 165.742 15.3216 166.855 15.3216C168.35 15.3216 169.622 15.6365 170.672 16.2662C171.722 16.896 172.548 17.8022 173.153 18.985L170.6 20.4365C170.298 19.7453 169.845 19.1693 169.241 18.7085C168.652 18.2477 167.857 18.0173 166.855 18.0173C165.615 18.0173 164.621 18.3859 163.874 19.1232C163.142 19.8451 162.777 20.9203 162.777 22.3488V24.9293C162.777 26.3424 163.15 27.4176 163.898 28.1549C164.645 28.8922 165.647 29.2608 166.903 29.2608C167.396 29.2608 167.857 29.207 168.287 29.0995C168.716 28.9766 169.09 28.8 169.408 28.5696C169.726 28.3392 169.98 28.055 170.171 27.7171C170.362 27.3792 170.457 26.9798 170.457 26.519V25.4822H167.189V22.9248H173.487V31.68H170.767V29.1917Z" fill="url(#paint7_linear_17741_19758)"/>
<path d="M176.943 31.68V19.6531H179.997V22.1414H180.116C180.195 21.8189 180.315 21.5117 180.474 21.2198C180.649 20.9126 180.871 20.6438 181.142 20.4134C181.412 20.183 181.73 19.9987 182.096 19.8605C182.477 19.7222 182.915 19.6531 183.408 19.6531H184.076V22.441H183.121C182.088 22.441 181.309 22.5869 180.784 22.8787C180.259 23.1706 179.997 23.6467 179.997 24.3072V31.68H176.943Z" fill="url(#paint8_linear_17741_19758)"/>
<path d="M195.211 31.68C194.543 31.68 194.01 31.4957 193.613 31.127C193.231 30.743 192.993 30.2362 192.897 29.6064H192.754C192.547 30.3898 192.126 30.9811 191.49 31.3805C190.854 31.7645 190.067 31.9565 189.129 31.9565C187.856 31.9565 186.878 31.6339 186.195 30.9888C185.511 30.3437 185.169 29.4835 185.169 28.4083C185.169 27.1642 185.63 26.2426 186.552 25.6435C187.475 25.0291 188.787 24.7219 190.488 24.7219H192.611V23.8464C192.611 23.1706 192.428 22.6483 192.062 22.2797C191.697 21.911 191.108 21.7267 190.297 21.7267C189.582 21.7267 189.001 21.8803 188.556 22.1875C188.127 22.4794 187.761 22.8326 187.459 23.2474L185.646 21.6806C186.107 20.9894 186.719 20.4365 187.483 20.0218C188.246 19.5917 189.256 19.3766 190.512 19.3766C192.198 19.3766 193.478 19.7453 194.352 20.4826C195.227 21.2198 195.664 22.2797 195.664 23.6621V29.3299H196.905V31.68H195.211ZM190.154 29.8138C190.838 29.8138 191.418 29.6678 191.895 29.376C192.373 29.0842 192.611 28.6541 192.611 28.0858V26.496H190.655C189.065 26.496 188.27 26.9875 188.27 27.9706V28.3622C188.27 28.8538 188.429 29.2224 188.747 29.4682C189.081 29.6986 189.55 29.8138 190.154 29.8138Z" fill="url(#paint9_linear_17741_19758)"/>
<path d="M199.376 19.6531H202.429V21.6346H202.524C202.747 20.9434 203.168 20.3981 203.789 19.9987C204.409 19.584 205.132 19.3766 205.959 19.3766C207.549 19.3766 208.758 19.9219 209.585 21.0125C210.428 22.0877 210.849 23.6314 210.849 25.6435C210.849 27.671 210.428 29.2301 209.585 30.3206C208.758 31.4112 207.549 31.9565 205.959 31.9565C205.132 31.9565 204.409 31.7491 203.789 31.3344C203.184 30.9197 202.763 30.3667 202.524 29.6755H202.429V36.288H199.376V19.6531ZM204.981 29.5142C205.776 29.5142 206.42 29.2608 206.913 28.7539C207.406 28.247 207.653 27.5635 207.653 26.7034V24.6298C207.653 23.7696 207.406 23.0861 206.913 22.5792C206.42 22.057 205.776 21.7958 204.981 21.7958C204.25 21.7958 203.638 21.9725 203.145 22.3258C202.667 22.679 202.429 23.1475 202.429 23.7312V27.5558C202.429 28.1856 202.667 28.6694 203.145 29.0074C203.638 29.3453 204.25 29.5142 204.981 29.5142Z" fill="url(#paint10_linear_17741_19758)"/>
<path d="M213.678 14.6304H216.732V21.6576H216.851C217.105 21.0125 217.503 20.4749 218.044 20.0448C218.6 19.5994 219.363 19.3766 220.333 19.3766C221.622 19.3766 222.607 19.7837 223.291 20.5978C223.975 21.4118 224.317 22.5715 224.317 24.0768V31.68H221.264V24.3763C221.264 23.5162 221.105 22.871 220.787 22.441C220.469 22.0109 219.944 21.7958 219.212 21.7958C218.894 21.7958 218.584 21.8419 218.282 21.9341C217.996 22.0109 217.733 22.1338 217.495 22.3027C217.272 22.4563 217.089 22.656 216.946 22.9018C216.803 23.1322 216.732 23.4086 216.732 23.7312V31.68H213.678V14.6304Z" fill="url(#paint11_linear_17741_19758)"/>
<defs>
<linearGradient id="paint0_linear_17741_19758" x1="113.471" y1="2.70507e-09" x2="113.471" y2="48" gradientUnits="userSpaceOnUse">
<stop stop-color="#E4E5E7"/>
<stop offset="1" stop-color="#E4E5E7" stop-opacity="0.7"/>
</linearGradient>
<linearGradient id="paint1_linear_17741_19758" x1="113.471" y1="2.70507e-09" x2="113.471" y2="48" gradientUnits="userSpaceOnUse">
<stop stop-color="#E4E5E7"/>
<stop offset="1" stop-color="#E4E5E7" stop-opacity="0.7"/>
</linearGradient>
<linearGradient id="paint2_linear_17741_19758" x1="113.471" y1="2.70507e-09" x2="113.471" y2="48" gradientUnits="userSpaceOnUse">
<stop stop-color="#E4E5E7"/>
<stop offset="1" stop-color="#E4E5E7" stop-opacity="0.7"/>
</linearGradient>
<linearGradient id="paint3_linear_17741_19758" x1="113.471" y1="2.70507e-09" x2="113.471" y2="48" gradientUnits="userSpaceOnUse">
<stop stop-color="#E4E5E7"/>
<stop offset="1" stop-color="#E4E5E7" stop-opacity="0.7"/>
</linearGradient>
<linearGradient id="paint4_linear_17741_19758" x1="113.471" y1="2.70507e-09" x2="113.471" y2="48" gradientUnits="userSpaceOnUse">
<stop stop-color="#E4E5E7"/>
<stop offset="1" stop-color="#E4E5E7" stop-opacity="0.7"/>
</linearGradient>
<linearGradient id="paint5_linear_17741_19758" x1="113.471" y1="2.70507e-09" x2="113.471" y2="48" gradientUnits="userSpaceOnUse">
<stop stop-color="#E4E5E7"/>
<stop offset="1" stop-color="#E4E5E7" stop-opacity="0.7"/>
</linearGradient>
<linearGradient id="paint6_linear_17741_19758" x1="113.471" y1="2.70507e-09" x2="113.471" y2="48" gradientUnits="userSpaceOnUse">
<stop stop-color="#E4E5E7"/>
<stop offset="1" stop-color="#E4E5E7" stop-opacity="0.7"/>
</linearGradient>
<linearGradient id="paint7_linear_17741_19758" x1="113.471" y1="2.70507e-09" x2="113.471" y2="48" gradientUnits="userSpaceOnUse">
<stop stop-color="#E4E5E7"/>
<stop offset="1" stop-color="#E4E5E7" stop-opacity="0.7"/>
</linearGradient>
<linearGradient id="paint8_linear_17741_19758" x1="113.471" y1="2.70507e-09" x2="113.471" y2="48" gradientUnits="userSpaceOnUse">
<stop stop-color="#E4E5E7"/>
<stop offset="1" stop-color="#E4E5E7" stop-opacity="0.7"/>
</linearGradient>
<linearGradient id="paint9_linear_17741_19758" x1="113.471" y1="2.70507e-09" x2="113.471" y2="48" gradientUnits="userSpaceOnUse">
<stop stop-color="#E4E5E7"/>
<stop offset="1" stop-color="#E4E5E7" stop-opacity="0.7"/>
</linearGradient>
<linearGradient id="paint10_linear_17741_19758" x1="113.471" y1="2.70507e-09" x2="113.471" y2="48" gradientUnits="userSpaceOnUse">
<stop stop-color="#E4E5E7"/>
<stop offset="1" stop-color="#E4E5E7" stop-opacity="0.7"/>
</linearGradient>
<linearGradient id="paint11_linear_17741_19758" x1="113.471" y1="2.70507e-09" x2="113.471" y2="48" gradientUnits="userSpaceOnUse">
<stop stop-color="#E4E5E7"/>
<stop offset="1" stop-color="#E4E5E7" stop-opacity="0.7"/>
</linearGradient>
</defs>
</svg>
