<svg width="18" height="18" viewBox="0 0 18 18" fill="none" xmlns="http://www.w3.org/2000/svg">
<mask id="mask0_1809_6839" style="mask-type:luminance" maskUnits="userSpaceOnUse" x="0" y="1" width="18" height="15">
<path d="M18 1.97156H0V15.8958H18V1.97156Z" fill="white"/>
</mask>
<g mask="url(#mask0_1809_6839)">
<mask id="mask1_1809_6839" style="mask-type:luminance" maskUnits="userSpaceOnUse" x="0" y="1" width="72" height="15">
<path d="M72 1.97046H0V15.8947H72V1.97046Z" fill="white"/>
</mask>
<g mask="url(#mask1_1809_6839)">
<path d="M15.2373 3.13661C14.0729 2.59183 12.8279 2.1959 11.5263 1.97046C11.3665 2.25947 11.1797 2.6482 11.0509 2.95743C9.66728 2.74934 8.29635 2.74934 6.93814 2.95743C6.8094 2.6482 6.6184 2.25947 6.45712 1.97046C5.15409 2.1959 3.90765 2.59328 2.74327 3.1395C0.394713 6.68848 -0.241943 10.1493 0.0763854 13.561C1.63407 14.7242 3.14366 15.4309 4.62778 15.8933C4.99421 15.389 5.32102 14.8529 5.60256 14.2879C5.06636 14.0841 4.55279 13.8327 4.06753 13.5408C4.19627 13.4454 4.32219 13.3457 4.44385 13.2431C7.4036 14.6274 10.6194 14.6274 13.5438 13.2431C13.6669 13.3457 13.7928 13.4454 13.9201 13.5408C13.4334 13.8341 12.9185 14.0855 12.3823 14.2893C12.6638 14.8529 12.9892 15.3904 13.3571 15.8947C14.8426 15.4323 16.3536 14.7257 17.9113 13.561C18.2848 9.60599 17.2732 6.17694 15.2373 3.13661ZM6.00579 11.4628C5.1173 11.4628 4.38867 10.6334 4.38867 9.62332C4.38867 8.61325 5.10174 7.78236 6.00579 7.78236C6.90985 7.78236 7.63846 8.61179 7.6229 9.62332C7.62431 10.6334 6.90985 11.4628 6.00579 11.4628ZM11.9819 11.4628C11.0934 11.4628 10.3648 10.6334 10.3648 9.62332C10.3648 8.61325 11.0778 7.78236 11.9819 7.78236C12.8859 7.78236 13.6146 8.61179 13.599 9.62332C13.599 10.6334 12.8859 11.4628 11.9819 11.4628Z" fill="currentColor"/>
</g>
</g>
</svg>
