<svg width="18" height="18" viewBox="0 0 18 18" fill="none" xmlns="http://www.w3.org/2000/svg">
<path fill-rule="evenodd" clip-rule="evenodd" d="M9.04314 0.409306C6.89634 0.407179 4.81893 1.15052 3.18319 2.50612C1.54744 3.86172 0.460297 5.74096 0.116568 7.80709C-0.227161 9.87321 0.194997 11.9911 1.30739 13.7814C2.41978 15.5716 4.14969 16.917 6.18711 17.5766C6.64186 17.6577 6.80268 17.382 6.80268 17.1495C6.80268 16.917 6.80268 16.3871 6.80268 15.6517C4.27939 16.187 3.747 14.4676 3.747 14.4676C3.5796 13.9347 3.22398 13.4768 2.74323 13.1753C1.92801 12.6346 2.80978 12.6346 2.80978 12.6346C3.09555 12.674 3.36838 12.7762 3.60763 12.9336C3.84687 13.091 4.04625 13.2994 4.19066 13.543C4.31336 13.7599 4.47879 13.9511 4.67746 14.1055C4.87612 14.26 5.10411 14.3746 5.34834 14.443C5.59258 14.5113 5.84824 14.5319 6.10067 14.5037C6.35309 14.4754 6.59732 14.3988 6.81932 14.2784C6.85412 13.8335 7.0508 13.4155 7.37389 13.0996C5.36635 12.8779 3.25898 12.1209 3.25898 8.77399C3.2452 7.89966 3.57679 7.05365 4.18511 6.41112C3.91418 5.6509 3.94585 4.81922 4.27384 4.08068C4.27384 4.08068 5.0336 3.84277 6.75832 4.98366C8.23934 4.58719 9.80258 4.58719 11.2836 4.98366C13.0083 3.84277 13.7625 4.08068 13.7625 4.08068C14.0951 4.8114 14.1347 5.63712 13.8734 6.39489C14.4818 7.03743 14.8134 7.88344 14.7996 8.75777C14.7996 12.1426 12.6867 12.8833 10.6736 13.0834C10.8894 13.295 11.0561 13.5493 11.1623 13.8292C11.2685 14.109 11.3118 14.4079 11.2891 14.7055C11.2891 15.8842 11.2891 16.8359 11.2891 17.1225C11.2891 17.409 11.45 17.6307 11.9103 17.5442C13.9245 16.8672 15.6285 15.5179 16.7212 13.7347C17.814 11.9514 18.2252 9.84899 17.8821 7.79882C17.5391 5.74865 16.4639 3.88266 14.8465 2.5305C13.2291 1.17834 11.1736 0.427036 9.04314 0.409306Z" fill="currentColor"/>
</svg>
