<svg width="18" height="18" viewBox="0 0 18 18" fill="none" xmlns="http://www.w3.org/2000/svg">
<path fill-rule="evenodd" clip-rule="evenodd" d="M0 3.10341C0 1.38944 1.38946 0 3.10345 0H14.8966C16.6105 0 18 1.38944 18 3.10341V13.1333C18 14.9065 15.7561 15.676 14.6678 14.2761L11.2655 9.89948V15.2067C11.2655 16.7493 10.015 17.9998 8.47241 17.9998H3.10345C1.38946 17.9998 0 16.6103 0 14.8963V3.10341ZM3.10345 2.48272C2.76065 2.48272 2.48276 2.76061 2.48276 3.10341V14.8963C2.48276 15.2391 2.76065 15.517 3.10345 15.517H8.56552C8.73692 15.517 8.78276 15.3781 8.78276 15.2067V8.08974C8.78276 6.31655 11.0266 5.54697 12.1149 6.94692L15.5172 11.3235V3.10341C15.5172 2.76061 15.5497 2.48272 15.2069 2.48272H3.10345Z" fill="currentColor"/>
<path d="M14.8911 0C16.605 0 17.9945 1.38944 17.9945 3.10341V13.1333C17.9945 14.9065 15.7506 15.676 14.6623 14.2761L11.26 9.89948V15.2067C11.26 16.7493 10.0095 17.9998 8.46692 17.9998C8.63832 17.9998 8.77726 17.8608 8.77726 17.6894V8.08974C8.77726 6.31655 11.0212 5.54697 12.1095 6.94692L15.5117 11.3235V0.620681C15.5117 0.277888 15.2339 0 14.8911 0Z" fill="currentColor"/>
</svg>
