<svg width="18" height="18" viewBox="0 0 18 18" fill="none" xmlns="http://www.w3.org/2000/svg">
<g clip-path="url(#clip0_1809_7464)">
<mask id="mask0_1809_7464" style="mask-type:alpha" maskUnits="userSpaceOnUse" x="0" y="0" width="18" height="18">
<path fill-rule="evenodd" clip-rule="evenodd" d="M12.7641 17.8731C13.0476 17.9836 13.3709 17.9765 13.6571 17.8388L17.3629 16.0556C17.7524 15.8682 18 15.4741 18 15.0418V2.95046C18 2.5181 17.7524 2.12399 17.363 1.93661L13.6571 0.153339C13.2815 -0.0273601 12.842 0.0168999 12.5124 0.256514C12.4654 0.290743 12.4205 0.328961 12.3784 0.371077L5.28392 6.84353L2.1937 4.49779C1.90602 4.27943 1.50365 4.29733 1.23648 4.54036L0.245345 5.44195C-0.0814593 5.73922 -0.0818339 6.25335 0.244536 6.55112L2.92448 8.99608L0.244536 11.441C-0.0818339 11.7388 -0.0814593 12.2529 0.245345 12.5502L1.23648 13.4518C1.50365 13.6948 1.90602 13.7127 2.1937 13.4944L5.28392 11.1486L12.3784 17.6211C12.4907 17.7334 12.6224 17.8179 12.7641 17.8731ZM13.5027 4.90987L8.11964 8.99608L13.5027 13.0823V4.90987Z" fill="white"/>
</mask>
<g mask="url(#mask0_1809_7464)">
<path d="M17.3647 1.93899L13.6558 0.153268C13.2265 -0.0534283 12.7135 0.0337608 12.3766 0.37067L0.235347 11.4406C-0.0912225 11.7384 -0.090847 12.2525 0.236157 12.5498L1.22789 13.4514C1.49523 13.6944 1.89785 13.7123 2.18569 13.494L16.8066 2.40225C17.2971 2.03014 18.0016 2.37999 18.0016 2.99568V2.95262C18.0016 2.52044 17.754 2.12647 17.3647 1.93899Z" fill="currentColor"/>
<g filter="url(#filter0_d_1809_7464)">
<path d="M17.3666 16.0519L13.6578 17.8377C13.2285 18.0444 12.7155 17.9572 12.3786 17.6203L0.2373 6.55029C-0.0892694 6.25254 -0.0888939 5.73839 0.23811 5.44112L1.22984 4.53953C1.49718 4.2965 1.8998 4.2786 2.18764 4.49696L16.8085 15.5887C17.299 15.9608 18.0036 15.6109 18.0036 14.9953V15.0383C18.0036 15.4705 17.756 15.8644 17.3666 16.0519Z" fill="currentColor"/>
</g>
<g filter="url(#filter1_d_1809_7464)">
<path d="M13.6563 17.8369C13.2269 18.0435 12.7138 17.9561 12.3769 17.6191C12.792 18.0343 13.5019 17.7402 13.5019 17.1531V0.835116C13.5019 0.248002 12.792 -0.0460269 12.3769 0.369124C12.7138 0.0321845 13.2269 -0.0551277 13.6563 0.151386L17.3645 1.93466C17.7541 2.12204 18.0019 2.51615 18.0019 2.94851V15.0398C18.0019 15.4722 17.7541 15.8663 17.3644 16.0537L13.6563 17.8369Z" fill="currentColor"/>
</g>
<g style="mix-blend-mode:overlay" opacity="0.25">
<path fill-rule="evenodd" clip-rule="evenodd" d="M12.7565 17.8712C13.04 17.9816 13.3633 17.9746 13.6494 17.8369L17.3553 16.0537C17.7447 15.8663 17.9924 15.4722 17.9924 15.0398V2.94852C17.9924 2.51614 17.7447 2.12203 17.3553 1.93465L13.6494 0.151386C13.2739 -0.0293131 12.8344 0.0149469 12.5048 0.25456C12.4577 0.28879 12.4129 0.327008 12.3708 0.369124L5.27629 6.84157L2.18606 4.49585C1.89841 4.27747 1.49602 4.29538 1.22885 4.5384L0.237716 5.43999C-0.0890887 5.73727 -0.0894633 6.25141 0.236906 6.54916L2.91685 8.99412L0.236906 11.4391C-0.0894633 11.7369 -0.0890887 12.251 0.237716 12.5483L1.22885 13.4498C1.49602 13.6929 1.89841 13.7108 2.18606 13.4924L5.27629 11.1467L12.3708 17.6191C12.483 17.7314 12.6148 17.816 12.7565 17.8712ZM13.4951 4.90792L8.11201 8.99412L13.4951 13.0803V4.90792Z" fill="url(#paint0_linear_1809_7464)"/>
</g>
</g>
</g>
<defs>
<filter id="filter0_d_1809_7464" x="-2.67405" y="1.67781" width="23.3443" height="18.9376" filterUnits="userSpaceOnUse" color-interpolation-filters="sRGB">
<feFlood flood-opacity="0" result="BackgroundImageFix"/>
<feColorMatrix in="SourceAlpha" type="matrix" values="0 0 0 0 0 0 0 0 0 0 0 0 0 0 0 0 0 0 127 0" result="hardAlpha"/>
<feOffset/>
<feGaussianBlur stdDeviation="1.33333"/>
<feColorMatrix type="matrix" values="0 0 0 0 0 0 0 0 0 0 0 0 0 0 0 0 0 0 0.25 0"/>
<feBlend mode="overlay" in2="BackgroundImageFix" result="effect1_dropShadow_1809_7464"/>
<feBlend mode="normal" in="SourceGraphic" in2="effect1_dropShadow_1809_7464" result="shape"/>
</filter>
<filter id="filter1_d_1809_7464" x="9.71022" y="-2.62614" width="10.9583" height="23.2406" filterUnits="userSpaceOnUse" color-interpolation-filters="sRGB">
<feFlood flood-opacity="0" result="BackgroundImageFix"/>
<feColorMatrix in="SourceAlpha" type="matrix" values="0 0 0 0 0 0 0 0 0 0 0 0 0 0 0 0 0 0 127 0" result="hardAlpha"/>
<feOffset/>
<feGaussianBlur stdDeviation="1.33333"/>
<feColorMatrix type="matrix" values="0 0 0 0 0 0 0 0 0 0 0 0 0 0 0 0 0 0 0.25 0"/>
<feBlend mode="overlay" in2="BackgroundImageFix" result="effect1_dropShadow_1809_7464"/>
<feBlend mode="normal" in="SourceGraphic" in2="effect1_dropShadow_1809_7464" result="shape"/>
</filter>
<linearGradient id="paint0_linear_1809_7464" x1="8.99237" y1="0.0405272" x2="8.99237" y2="17.9477" gradientUnits="userSpaceOnUse">
<stop stop-color="white"/>
<stop offset="1" stop-color="white" stop-opacity="0"/>
</linearGradient>
<clipPath id="clip0_1809_7464">
<rect width="18" height="18" fill="white"/>
</clipPath>
</defs>
</svg>
