<svg width="18" height="18" viewBox="0 0 18 18" fill="none" xmlns="http://www.w3.org/2000/svg">
<g clip-path="url(#clip0_15303_176670)">
<path d="M17.3647 1.93923L13.6559 0.153513C13.2266 -0.0531842 12.7136 0.0340049 12.3767 0.370914L0.235408 11.4409C-0.0911615 11.7386 -0.090786 12.2528 0.236218 12.5501L1.22795 13.4516C1.49529 13.6947 1.89791 13.7126 2.18575 13.4942L16.8066 2.4025C17.2971 2.03038 18.0017 2.38023 18.0017 2.99592V2.95286C18.0017 2.52068 17.7541 2.12672 17.3647 1.93923Z" fill="#6D7079"/>
<path d="M17.3667 16.0522L13.6579 17.8379C13.2286 18.0446 12.7155 17.9574 12.3786 17.6205L0.237361 6.55054C-0.0892083 6.25278 -0.0888329 5.73863 0.238171 5.44136L1.22991 4.53978C1.49724 4.29674 1.89986 4.27885 2.1877 4.49721L16.8086 15.5889C17.2991 15.961 18.0036 15.6112 18.0036 14.9955V15.0386C18.0036 15.4707 17.756 15.8647 17.3667 16.0522Z" fill="#72757E"/>
<path d="M13.6564 17.8369C13.2269 18.0435 12.7139 17.9561 12.377 17.6191C12.7921 18.0343 13.502 17.7402 13.502 17.1531V0.835116C13.502 0.248002 12.7921 -0.0460269 12.377 0.369124C12.7139 0.0321845 13.2269 -0.0551277 13.6564 0.151386L17.3645 1.93466C17.7542 2.12204 18.002 2.51615 18.002 2.94851V15.0398C18.002 15.4722 17.7542 15.8663 17.3645 16.0537L13.6564 17.8369Z" fill="currentColor"/>
</g>
<defs>
<clipPath id="clip0_15303_176670">
<rect width="18" height="18" fill="white"/>
</clipPath>
</defs>
</svg>
