<svg width="18" height="18" viewBox="0 0 18 18" fill="none" xmlns="http://www.w3.org/2000/svg">
<path fill-rule="evenodd" clip-rule="evenodd" d="M12.7641 17.8731C13.0476 17.9836 13.3709 17.9765 13.6571 17.8388L17.3629 16.0556C17.7524 15.8682 18 15.4741 18 15.0418V2.95046C18 2.5181 17.7524 2.12399 17.363 1.93661L13.6571 0.153339C13.2815 -0.0273601 12.842 0.0168999 12.5124 0.256514C12.4654 0.290743 12.4205 0.328961 12.3784 0.371077L5.28392 6.84353L2.1937 4.49779C1.90602 4.27943 1.50365 4.29733 1.23648 4.54036L0.245345 5.44195C-0.0814593 5.73922 -0.0818339 6.25335 0.244536 6.55112L2.92448 8.99608L0.244536 11.441C-0.0818339 11.7388 -0.0814593 12.2529 0.245345 12.5502L1.23648 13.4518C1.50365 13.6948 1.90602 13.7127 2.1937 13.4944L5.28392 11.1486L12.3784 17.6211C12.4907 17.7334 12.6224 17.8179 12.7641 17.8731ZM13.5027 4.90987L8.11964 8.99608L13.5027 13.0823V4.90987Z" fill="currentColor"/>
</svg>
