<svg width="44" height="44" viewBox="0 0 44 44" fill="none" xmlns="http://www.w3.org/2000/svg">
<rect width="44" height="44" rx="6.75" fill="#FBD0D7"/>
<g clip-path="url(#clip0_8264_15624)">
<path fill-rule="evenodd" clip-rule="evenodd" d="M22 8.3501C14.3 8.3501 8 14.6501 8 22.3501C8 28.5626 12.025 33.8126 17.5375 35.6501C18.2375 35.7376 18.5 35.3876 18.5 34.9501C18.5 34.6001 18.5 33.7251 18.5 32.5876C14.5625 33.4626 13.775 30.7501 13.775 30.7501C13.1625 29.1751 12.2 28.7376 12.2 28.7376C10.8875 27.8626 12.2875 27.8626 12.2875 27.8626C13.6875 27.9501 14.475 29.2626 14.475 29.2626C15.7 31.3626 17.7125 30.7501 18.5875 30.4001C18.675 29.5251 19.1125 28.9126 19.4625 28.5626C16.3125 28.2126 13.075 26.9876 13.075 21.6501C13.075 20.1626 13.6 18.8501 14.475 17.8876C14.3 17.5376 13.8625 16.1376 14.65 14.2126C14.65 14.2126 15.7875 13.8626 18.5 15.6126C19.6375 15.2626 20.775 15.1751 22 15.1751C23.225 15.1751 24.3625 15.3501 25.5 15.6126C28.2125 13.7751 29.35 14.1251 29.35 14.1251C30.1375 16.0501 29.6125 17.4501 29.525 17.8001C30.4 18.7626 30.925 19.9876 30.925 21.5626C30.925 26.9001 27.6875 28.1251 24.5375 28.4751C25.0625 28.9126 25.5 29.7876 25.5 31.1001C25.5 32.9376 25.5 34.5126 25.5 34.9501C25.5 35.3001 25.7625 35.7376 26.4625 35.6501C31.975 33.8126 36 28.5626 36 22.3501C36 14.6501 29.7 8.3501 22 8.3501Z" fill="#1A1A1A"/>
</g>
<defs>
<clipPath id="clip0_8264_15624">
<rect width="28" height="28" fill="white" transform="translate(8 8)"/>
</clipPath>
</defs>
</svg>
