<svg width="32" height="32" viewBox="0 0 32 32" fill="none" xmlns="http://www.w3.org/2000/svg">
<rect width="32" height="32" rx="4" fill="url(#paint0_linear_19250_58)"/>
<rect x="0.5" y="0.5" width="31" height="31" rx="3.5" stroke="url(#paint1_linear_19250_58)" stroke-opacity="0.1"/>
<path d="M17.0664 14.9333L19.3331 12.6667H23.2997C24.2381 12.6667 24.9997 11.9051 24.9997 10.9667V8.7C24.9997 7.7616 24.2381 7 23.2997 7H18.7664C17.828 7 17.0664 7.7616 17.0664 8.7V14.9333Z" stroke="#C9CBCF" stroke-miterlimit="10" stroke-linecap="round" stroke-linejoin="round"/>
<path d="M14.8 14.9336H9.7C8.7616 14.9336 8 15.6952 8 16.6336V22.3003C8 23.2387 8.7616 24.0003 9.7 24.0003H21.0333C21.9717 24.0003 22.7333 23.2387 22.7333 22.3003V16.6336C22.7333 15.6952 21.9717 14.9336 21.0333 14.9336H20.4667" stroke="#C9CBCF" stroke-miterlimit="10" stroke-linecap="round" stroke-linejoin="round"/>
<path d="M12.5352 12.6671V10.4004" stroke="#C9CBCF" stroke-miterlimit="10" stroke-linecap="round" stroke-linejoin="round"/>
<path d="M12.5315 10.3999C12.8445 10.3999 13.0982 10.1462 13.0982 9.83327C13.0982 9.52031 12.8445 9.2666 12.5315 9.2666C12.2185 9.2666 11.9648 9.52031 11.9648 9.83327C11.9648 10.1462 12.2185 10.3999 12.5315 10.3999Z" stroke="#C9CBCF" stroke-miterlimit="10" stroke-linecap="square" stroke-linejoin="round"/>
<path d="M11.9654 20.0333C12.5913 20.0333 13.0987 19.5259 13.0987 18.8999C13.0987 18.274 12.5913 17.7666 11.9654 17.7666C11.3394 17.7666 10.832 18.274 10.832 18.8999C10.832 19.5259 11.3394 20.0333 11.9654 20.0333Z" fill="#C9CBCF"/>
<path d="M18.7661 20.0333C19.3921 20.0333 19.8995 19.5259 19.8995 18.8999C19.8995 18.274 19.3921 17.7666 18.7661 17.7666C18.1402 17.7666 17.6328 18.274 17.6328 18.8999C17.6328 19.5259 18.1402 20.0333 18.7661 20.0333Z" fill="#C9CBCF"/>
<defs>
<linearGradient id="paint0_linear_19250_58" x1="16" y1="0" x2="16" y2="32" gradientUnits="userSpaceOnUse">
<stop offset="0.3125" stop-color="#242628"/>
<stop offset="1" stop-color="#1D1E20"/>
</linearGradient>
<linearGradient id="paint1_linear_19250_58" x1="16" y1="0" x2="16" y2="32" gradientUnits="userSpaceOnUse">
<stop stop-color="white"/>
<stop offset="1" stop-color="white" stop-opacity="0.05"/>
</linearGradient>
</defs>
</svg>
