<svg width="32" height="32" viewBox="0 0 32 32" fill="none" xmlns="http://www.w3.org/2000/svg">
<rect width="32" height="32" rx="4" fill="url(#paint0_linear_19250_78)"/>
<rect x="0.5" y="0.5" width="31" height="31" rx="3.5" stroke="url(#paint1_linear_19250_78)" stroke-opacity="0.1"/>
<path d="M20.4983 22.6491C22.2383 22.6491 23.6489 21.2385 23.6489 19.4984C23.6489 17.7584 22.2383 16.3478 20.4983 16.3478C18.7582 16.3478 17.3477 17.7584 17.3477 19.4984C17.3477 21.2385 18.7582 22.6491 20.4983 22.6491Z" stroke="#C9CBCF" stroke-linecap="round" stroke-linejoin="round"/>
<path d="M25.0017 23.9997L22.7422 21.7402" stroke="#C9CBCF" stroke-linecap="round" stroke-linejoin="round"/>
<path d="M19.5 14L18.4516 12.2488C18.4118 12.1727 18.3565 12.1099 18.2909 12.0664C18.2253 12.0228 18.1515 12 18.0765 12C18.0015 12 17.9277 12.0228 17.8621 12.0664C17.7965 12.1099 17.7412 12.1727 17.7015 12.2488L15.368 16.7183L14.4162 14.8953C14.3764 14.8192 14.3211 14.7564 14.2555 14.7129C14.1899 14.6694 14.1161 14.6466 14.0411 14.6466C13.9661 14.6466 13.8923 14.6694 13.8267 14.7129C13.7611 14.7564 13.7058 14.8192 13.6661 14.8953L11 20L15.368 20" stroke="#C9CBCF" stroke-linecap="round" stroke-linejoin="round"/>
<path d="M17.3478 24H9.69565C9.51115 24 9.33421 23.9267 9.20375 23.7962C9.07329 23.6658 9 23.4888 9 23.3043V8.69565C9 8.51115 9.07329 8.33421 9.20375 8.20375C9.33421 8.07329 9.51115 8 9.69565 8H18.943C19.1274 8.00004 19.3044 8.07336 19.4348 8.20383L22.0136 10.7826C22.144 10.913 22.2174 11.09 22.2174 11.2744V14.2609" stroke="#C9CBCF" stroke-linecap="round" stroke-linejoin="round"/>
<defs>
<linearGradient id="paint0_linear_19250_78" x1="16" y1="0" x2="16" y2="32" gradientUnits="userSpaceOnUse">
<stop offset="0.3125" stop-color="#242628"/>
<stop offset="1" stop-color="#1D1E20"/>
</linearGradient>
<linearGradient id="paint1_linear_19250_78" x1="16" y1="0" x2="16" y2="32" gradientUnits="userSpaceOnUse">
<stop stop-color="white"/>
<stop offset="1" stop-color="white" stop-opacity="0.05"/>
</linearGradient>
</defs>
</svg>
