<svg width="623" height="624" viewBox="0 0 623 624" fill="none" xmlns="http://www.w3.org/2000/svg">
<path d="M1 1H622V622H1V1Z" fill="#1A1A1A" stroke="#262626" stroke-width="2" stroke-linecap="round" stroke-linejoin="round"/>
<path d="M0 346C18.8 346 34 330.8 34 312C34 293.2 18.8 278 0 278" stroke="#262626" stroke-linejoin="round"/>
<path d="M0 362C27.6 362 50 339.6 50 312C50 284.4 27.6 262 0 262" stroke="#262626" stroke-linejoin="round"/>
<path d="M0 378C36.5 378 66 348.5 66 312C66 275.5 36.5 246 0 246" stroke="#262626" stroke-linejoin="round"/>
<path d="M0 395C45.8 395 83 357.8 83 312C83 266.2 45.8 229 0 229" stroke="#262626" stroke-linejoin="round"/>
<path d="M0 412C55.2 412 100 367.2 100 312C100 256.8 55.2 212 0 212" stroke="#262626" stroke-linejoin="round"/>
<path d="M0 427C63.5 427 115 375.5 115 312C115 248.5 63.5 197 0 197" stroke="#262626" stroke-linejoin="round"/>
<path d="M0 444C72.9 444 132 384.9 132 312C132 239.1 72.9 180 0 180" stroke="#262626" stroke-linejoin="round"/>
<path d="M0 459C81.7 459 148 393.2 148 312C148 230.8 81.7 165 0 165" stroke="#262626" stroke-linejoin="round"/>
<path d="M0 477C91.1 477 165 403.1 165 312C165 220.9 91.1 147 0 147" stroke="#262626" stroke-linejoin="round"/>
<path d="M0 493C100 493 181 412 181 312C181 212 100 131 0 131" stroke="#262626" stroke-linejoin="round"/>
<path d="M0 509C108.8 509 197 420.8 197 312C197 203.2 108.8 115 0 115" stroke="#262626" stroke-linejoin="round"/>
<path d="M0 526C118.2 526 214 430.2 214 312C214 193.8 118.2 98 0 98" stroke="#262626" stroke-linejoin="round"/>
<path d="M0 543C127.6 543 231 439.6 231 312C231 184.4 127.6 81 0 81" stroke="#262626" stroke-linejoin="round"/>
<path d="M0 560C137 560 248 449 248 312C248 175 137 64 0 64" stroke="#262626" stroke-linejoin="round"/>
<path d="M0 577C145.8 577 264 458.4 264 312C264 165.6 145.8 47 0 47" stroke="#262626" stroke-linejoin="round"/>
<path d="M0 593C155.2 593 281 467.2 281 312C281 156.8 155.2 31 0 31" stroke="#262626" stroke-linejoin="round"/>
<path d="M0 609C163.4 609 296 476 296 312C296 148 163.4 15 0 15" stroke="#262626" stroke-linejoin="round"/>
<path d="M35 622C190.9 604.328 312 472.141 312 311.5C312 150.859 190.9 18.5717 35 1" stroke="#262626" stroke-linejoin="round"/>
<path d="M110.5 622.5C238.7 577 330.5 455.5 330.5 312C330.5 168.5 238.8 46.5 110.5 1" stroke="#262626" stroke-linejoin="round"/>
<path d="M154 622.5C268.4 565.7 347 448.3 347 312C347 175.7 268.3 57.8 154 1" stroke="#262626" stroke-linejoin="round"/>
<path d="M187 622C292.5 558.5 363.2 444 363.2 312C363.2 180 292.6 64.6 187.2 1" stroke="#262626" stroke-linecap="round" stroke-linejoin="round"/>
<path d="M216.5 622C315 553.5 379.5 440.8 379.5 312C379.5 183.2 315 69.5 216.5 1" stroke="#262626" stroke-linecap="round" stroke-linejoin="round"/>
<path d="M245 622C337 549.5 396 438.1 396 312C396 185.9 336.9 73.5 245 1" stroke="#262626" stroke-linejoin="round"/>
<path d="M271.5 622.5C358.5 546.8 413.5 436 413.5 312C413.5 188 358.5 76.7 271.5 1" stroke="#262626" stroke-linejoin="round"/>
<path d="M295.501 622.5C467.901 459.3 474.701 188.3 310.901 16.5C305.801 11.2 300.601 6 295.301 1" stroke="#262626" stroke-linejoin="round"/>
<path d="M319.499 622.5C488.799 449.4 488.698 174.1 319.398 1" stroke="#262626" stroke-linejoin="round"/>
<path d="M340 622.5C501.3 446.4 501.3 177.1 340 1" stroke="#262626" stroke-linejoin="round"/>
<path d="M362.999 622.5C516.299 443.5 515.999 180 362.699 1" stroke="#262626" stroke-linejoin="round"/>
<path d="M383.5 622.5C530.2 441.2 530.2 182.3 383.5 1" stroke="#262626" stroke-linejoin="round"/>
<path d="M406.499 622.5C545.199 438.9 545.098 184.6 406.398 1" stroke="#262626" stroke-linejoin="round"/>
<path d="M426.499 622.5C559.799 437.1 559.698 186.4 426.398 1" stroke="#262626" stroke-linejoin="round"/>
<path d="M446 622.5C575.3 435.6 575.3 187.9 446 1" stroke="#262626" stroke-linejoin="round"/>
<path d="M466.5 622.5C590.5 434.1 590.6 189.4 466.6 1" stroke="#262626" stroke-linejoin="round"/>
<path d="M486.999 622.5C606.999 432.8 606.898 190.7 486.898 1" stroke="#262626" stroke-linejoin="round"/>
<path d="M506.001 622.5C623.301 431.7 623.101 191.8 505.801 1" stroke="#262626" stroke-linejoin="round"/>
<path d="M524.499 622.5C637.799 430.7 637.698 192.8 524.398 1" stroke="#262626" stroke-linejoin="round"/>
<path d="M544.102 622.6C585.202 551.4 611.602 472.8 622.002 391.4" stroke="#262626" stroke-linejoin="round"/>
<path d="M544.102 1.40039C585.202 72.6004 611.602 151.2 622.002 232.6" stroke="#262626" stroke-linecap="round" stroke-linejoin="round"/>
<path d="M563.5 622.5C588.7 577.2 608.5 529.5 622 479.5" stroke="#262626" stroke-linejoin="round"/>
<path d="M563.602 1C588.802 46.3 608.502 94.5 622.002 144.5" stroke="#262626" stroke-linecap="round" stroke-linejoin="round"/>
<path d="M582 622.5C597.6 593.6 610.9 564.099 622 533.199" stroke="#262626" stroke-linejoin="round"/>
<path d="M581.801 1C597.401 29.9 610.901 59.9 622.001 90.8" stroke="#262626" stroke-linecap="round" stroke-linejoin="round"/>
<path d="M622 582.199C615.9 595.999 609.1 609.1 602 622.5" stroke="#262626" stroke-linejoin="round"/>
<path d="M622.002 41.8C615.902 28 609.202 14.4 602.102 1" stroke="#262626" stroke-linecap="round" stroke-linejoin="round"/>
<path d="M0 330C9.9 330 18 321.9 18 312C18 308.7 17.1 305.5 15.4 302.7C15.3 302.6 15.2 302.4 15.1 302.2C11.8 297.1 6.1 294 0 294" stroke="#262626" stroke-linejoin="round"/>
<path d="M18 312H621.5" stroke="#262626" stroke-linejoin="round"/>
<path d="M17.8008 309.3L622.001 208.5" stroke="#262626" stroke-linejoin="round"/>
<path d="M17 306L621.5 107" stroke="#262626" stroke-linecap="round" stroke-linejoin="round"/>
<path d="M15.3984 302.6L506.999 1" stroke="#262626" stroke-linecap="round" stroke-linejoin="round"/>
<path d="M13.3008 300L341.001 1" stroke="#262626" stroke-linecap="round" stroke-linejoin="round"/>
<path d="M10.8984 297.7L236.898 1" stroke="#262626" stroke-linecap="round" stroke-linejoin="round"/>
<path d="M7.89844 295.8L151.198 1" stroke="#262626" stroke-linecap="round" stroke-linejoin="round"/>
<path d="M4.69922 294.6L84.7992 1" stroke="#262626" stroke-linecap="round" stroke-linejoin="round"/>
<path d="M1.39844 294.1L24.8984 1" stroke="#262626" stroke-linecap="round" stroke-linejoin="round"/>
<path d="M17.8008 314.699L622.001 415.499" stroke="#262626" stroke-linejoin="round"/>
<path d="M17 318L621.5 517" stroke="#262626" stroke-linecap="round" stroke-linejoin="round"/>
<path d="M15.3984 321.4L506.999 622" stroke="#262626" stroke-linecap="round" stroke-linejoin="round"/>
<path d="M13.3008 324L341.501 622.5" stroke="#262626" stroke-linecap="round" stroke-linejoin="round"/>
<path d="M10.8984 326.301L236.999 622" stroke="#262626" stroke-linejoin="round"/>
<path d="M7.89844 328.199L150.999 622" stroke="#262626" stroke-linejoin="round"/>
<path d="M4.69922 329.4L84.9993 622" stroke="#262626" stroke-linejoin="round"/>
<path d="M1.39844 329.9L23.9985 623" stroke="#262626" stroke-linejoin="round"/>
<path d="M160 324C166.627 324 172 318.627 172 312C172 305.373 166.627 300 160 300C153.373 300 148 305.373 148 312C148 318.627 153.373 324 160 324Z" stroke="#262626" stroke-linecap="round" stroke-linejoin="round"/>
<path d="M169 349C189.435 349 206 332.435 206 312C206 291.565 189.435 275 169 275C148.565 275 132 291.565 132 312C132 332.435 148.565 349 169 349Z" stroke="#262626" stroke-linecap="round" stroke-linejoin="round"/>
<path d="M178 375C212.794 375 241 346.794 241 312C241 277.206 212.794 249 178 249C143.206 249 115 277.206 115 312C115 346.794 143.206 375 178 375Z" stroke="#262626" stroke-linecap="round" stroke-linejoin="round"/>
<path d="M186 398C233.496 398 272 359.496 272 312C272 264.504 233.496 226 186 226C138.504 226 100 264.504 100 312C100 359.496 138.504 398 186 398Z" stroke="#262626" stroke-linecap="round" stroke-linejoin="round"/>
<path d="M201 430C266.17 430 319 377.17 319 312C319 246.83 266.17 194 201 194C135.83 194 83 246.83 83 312C83 377.17 135.83 430 201 430Z" stroke="white" stroke-linecap="round" stroke-linejoin="round"/>
<path d="M251 497C353.173 497 436 414.173 436 312C436 209.827 353.173 127 251 127C148.827 127 66 209.827 66 312C66 414.173 148.827 497 251 497Z" stroke="#262626" stroke-linecap="round" stroke-linejoin="round"/>
<path d="M318 580C466.012 580 586 460.012 586 312C586 163.988 466.012 44 318 44C169.988 44 50 163.988 50 312C50 460.012 169.988 580 318 580Z" stroke="white" stroke-linecap="round" stroke-linejoin="round"/>
</svg>
