<svg width="22" height="22" viewBox="0 0 22 22" fill="none" xmlns="http://www.w3.org/2000/svg">
<path d="M16.726 5.80167H18.3622C18.7962 5.80167 19.2123 5.97405 19.5192 6.28091C19.8261 6.58776 19.9984 7.00394 19.9984 7.43789V14.3918C19.9984 14.8258 19.8261 15.242 19.5192 15.5488C19.2123 15.8557 18.7962 16.0281 18.3622 16.0281H16.726V19.3005L11.8173 16.0281H10.1811" stroke="#00E599" stroke-linecap="round" stroke-linejoin="round"/>
<path d="M15.0898 2.53419H3.63622C3.20227 2.53419 2.78609 2.70658 2.47924 3.01343C2.17239 3.32029 2 3.73647 2 4.17042V11.1244C2 11.5583 2.17239 11.9745 2.47924 12.2814C2.78609 12.5882 3.20227 12.7606 3.63622 12.7606H5.27245V16.8512L10.9992 12.7606H15.0898C15.5237 12.7606 15.9399 12.5882 16.2468 12.2814C16.5536 11.9745 16.726 11.5583 16.726 11.1244V4.17042C16.726 3.73647 16.5536 3.32029 16.2468 3.01343C15.9399 2.70658 15.5237 2.53419 15.0898 2.53419Z" stroke="#00E599" stroke-linecap="round" stroke-linejoin="round"/>
</svg>
