<svg width="18" height="18" viewBox="0 0 18 18" fill="none" xmlns="http://www.w3.org/2000/svg">
<path d="M9.00195 0.599609C13.6411 0.599609 17.4023 4.36081 17.4023 9C17.4023 13.6392 13.6411 17.4004 9.00195 17.4004C4.36276 17.4004 0.601562 13.6392 0.601562 9C0.601563 4.36081 4.36276 0.59961 9.00195 0.599609ZM9.00195 1.40039C4.80459 1.40039 1.40234 4.80264 1.40234 9C1.40234 13.1974 4.80459 16.5996 9.00195 16.5996C13.1993 16.5996 16.6016 13.1974 16.6016 9C16.6016 4.80264 13.1993 1.40039 9.00195 1.40039ZM5.08594 5.08008C5.22256 4.94345 5.43363 4.92693 5.58887 5.0293L5.65234 5.08008L8.00879 7.43652C8.29623 7.25342 8.63699 7.14657 9.00293 7.14648C10.027 7.14648 10.8582 7.97694 10.8584 9.00098C10.8584 10.0252 10.0272 10.8564 9.00293 10.8564C7.9789 10.8562 7.14844 10.0251 7.14844 9.00098C7.14852 8.633 7.25642 8.29039 7.44141 8.00195L5.08594 5.64648L5.03516 5.58301C4.93279 5.42777 4.94931 5.2167 5.08594 5.08008ZM9.00293 7.94727C8.74473 7.94737 8.50838 8.04027 8.3252 8.19434C8.30962 8.21907 8.29206 8.2431 8.27051 8.26465C8.24876 8.2864 8.22422 8.30367 8.19922 8.31934C8.04327 8.50303 7.94933 8.74103 7.94922 9.00098C7.94922 9.58324 8.42072 10.0554 9.00293 10.0557C9.58534 10.0557 10.0576 9.58339 10.0576 9.00098C10.0574 8.41877 9.58519 7.94727 9.00293 7.94727ZM4.48145 7.41992C4.55148 7.21067 4.7779 7.09724 4.9873 7.16699C5.19688 7.23685 5.31009 7.46425 5.24023 7.67383C5.11076 8.06243 5.04301 8.52743 5.04297 9.00098C5.04297 9.22189 4.86349 9.40137 4.64258 9.40137C4.42166 9.40137 4.24219 9.22189 4.24219 9.00098C4.24223 8.45681 4.32018 7.90371 4.48145 7.41992ZM9.00293 4.23633C11.6237 4.23633 13.7664 6.37925 13.7666 9C13.7666 9.22085 13.588 9.40029 13.3672 9.40039C13.1463 9.40039 12.9668 9.22091 12.9668 9C12.9666 6.82108 11.1819 5.03711 9.00293 5.03711C8.52938 5.03715 8.06438 5.1049 7.67578 5.23438C7.4662 5.30423 7.2388 5.19102 7.16895 4.98145C7.09919 4.77204 7.21262 4.54562 7.42188 4.47559C7.90566 4.31432 8.45876 4.23637 9.00293 4.23633Z" fill="currentColor"/>
</svg>
