<svg width="18" height="18" viewBox="0 0 18 18" fill="none" xmlns="http://www.w3.org/2000/svg">
<path d="M8.99494 3.89735C9.81625 3.89735 10.4821 3.23149 10.4821 2.4101C10.4821 1.58872 9.81625 0.922852 8.99494 0.922852C8.17362 0.922852 7.50781 1.58872 7.50781 2.4101C7.50781 3.23149 8.17362 3.89735 8.99494 3.89735Z" stroke="currentColor" stroke-linecap="round" stroke-linejoin="round"/>
<path d="M3.20197 13.9364C4.02329 13.9364 4.68909 13.2706 4.68909 12.4492C4.68909 11.6278 4.02329 10.9619 3.20197 10.9619C2.38065 10.9619 1.71484 11.6278 1.71484 12.4492C1.71484 13.2706 2.38065 13.9364 3.20197 13.9364Z" stroke="currentColor" stroke-linecap="round" stroke-linejoin="round"/>
<path d="M14.7957 13.9364C15.617 13.9364 16.2828 13.2706 16.2828 12.4492C16.2828 11.6278 15.617 10.9619 14.7957 10.9619C13.9744 10.9619 13.3086 11.6278 13.3086 12.4492C13.3086 13.2706 13.9744 13.9364 14.7957 13.9364Z" stroke="currentColor" stroke-linecap="round" stroke-linejoin="round"/>
<path d="M5.65067 3.31543C4.33587 4.07371 3.31816 5.2568 2.76484 6.67022C2.21152 8.08365 2.15551 9.64329 2.60603 11.0928" stroke="currentColor" stroke-linecap="round" stroke-linejoin="round"/>
<path d="M13.9088 13.6416C12.8828 14.7606 11.5057 15.496 10.0052 15.7262C8.50465 15.9564 6.97048 15.6677 5.65625 14.9077" stroke="currentColor" stroke-linecap="round" stroke-linejoin="round"/>
<path d="M15.6905 9.10612C15.6902 7.58719 15.1729 6.11361 14.2239 4.92772C13.2749 3.74183 11.9506 2.91424 10.4688 2.58105" stroke="currentColor" stroke-linecap="round" stroke-linejoin="round"/>
</svg>
