<svg xmlns="http://www.w3.org/2000/svg" width="590" height="332" fill="none" viewBox="0 0 590 332"><g clip-path="url(#a)"><rect width="590" height="332" fill="url(#b)" rx="8"/><mask id="d" width="474" height="213" x="86" y="29" maskUnits="userSpaceOnUse" style="mask-type:alpha"><path fill="url(#c)" d="m86.121 241.22 33.069-125.923c.832-3.166 5.41-2.902 5.872.339l8.542 59.951a2.999 2.999 0 0 0 2.97 2.577h43.366a3 3 0 0 1 2.915 2.292l14.199 58.472a3 3 0 0 0 2.915 2.292h47.545a2.999 2.999 0 0 0 2.904-2.25L303.82 32.245c.791-3.062 5.169-2.975 5.837.116l14.319 66.194a3 3 0 0 0 2.932 2.366h46.015a3 3 0 0 0 2.779-1.868l12.2-29.963c1.099-2.7 5.013-2.404 5.695.429l34.848 144.706a3 3 0 0 0 2.917 2.298h128.403v24.697H86.121Z"/></mask><g mask="url(#d)"><path fill="#00E599" fill-opacity=".28" fill-rule="evenodd" d="M91.996 261.187V12.117h1v249.07h-1Zm460.008 0V12.117h1v249.07h-1ZM97.676 12.117v249.07h1V12.117h-1Zm5.676 249.07V12.117h1v249.07h-1Zm5.683-249.07v249.07h1V12.117h-1Zm5.68 249.07V12.117h1v249.07h-1Zm5.68-249.07v249.07h1V12.117h-1Zm5.675 249.07V12.117h1v249.07h-1Zm5.68-249.07v249.07h1V12.117h-1Zm5.676 249.07V12.117h1v249.07h-1Zm5.683-249.07v249.07h1V12.117h-1Zm5.676 249.07V12.117h1v249.07h-1Zm5.684-249.07v249.07h1V12.117h-1Zm5.676 249.07V12.117h1v249.07h-1Zm5.679-249.07v249.07h1V12.117h-1Zm5.676 249.07V12.117h1v249.07h-1Zm5.684-249.07v249.07h1V12.117h-1Zm5.675 249.07V12.117h1v249.07h-1Zm5.68-249.07v249.07h1V12.117h-1Zm5.68 249.07V12.117h1v249.07h-1Zm5.679-249.07v249.07h1V12.117h-1Zm5.676 249.07V12.117h1v249.07h-1Zm5.688-249.07v249.07h1V12.117h-1Zm5.676 249.07V12.117h1v249.07h-1Zm5.679-249.07v249.07h1V12.117h-1Zm5.676 249.07V12.117h1v249.07h-1Zm5.684-249.07v249.07h1V12.117h-1Zm5.679 249.07V12.117h1v249.07h-1Zm5.68-249.07v249.07h1V12.117h-1Zm5.672 249.07V12.117h1v249.07h-1Zm5.683-249.07v249.07h1V12.117h-1Zm5.672 249.07V12.117h1v249.07h-1Zm5.684-249.07v249.07h1V12.117h-1ZM273.723 28V12.117h1V28h-1Zm0 66v167.187h1V94h-1Zm5.687 0v167.187h1V94h-1Zm0-66h1V12.117h-1V28Zm5.676 66v167.187h1V94h-1Zm1-66h-1V12.117h1V28Zm4.68 66v167.187h1V94h-1Zm1-66h-1V12.117h1V28Zm4.675 66v167.187h1V94h-1Zm1-66h-1V12.117h1V28Zm4.68 66v167.187h1V94h-1Zm1-66h-1V12.117h1V28Zm4.684 66v167.187h1V94h-1Zm1-66h-1V12.117h1V28Zm4.675 66v167.187h1V94h-1Zm1-66h-1V12.117h1V28Zm4.684 66v167.187h1V94h-1Zm1-66h-1V12.117h1V28Zm4.676 66v167.187h1V94h-1Zm1-66h-1V12.117h1V28Zm4.68 66v167.187h1V94h-1Zm1-66h-1V12.117h1V28Zm4.675 66v167.187h1V94h-1Zm1-66h-1V12.117h1V28Zm4.684 66v167.187h1V94h-1Zm1-66h-1V12.117h1V28Zm4.676 66v167.187h1V94h-1Zm1-66h-1V12.117h1V28Zm4.679 66v167.187h1V94h-1Zm1-66h-1V12.117h1V28Zm4.68 66v167.187h1V94h-1Zm1-66h-1V12.117h1V28Zm4.68 66v167.187h1V94h-1Zm1-66h-1V12.117h1V28Zm4.679 66v167.187h1V94h-1Zm1-66h-1V12.117h1V28Zm4.68 66v167.187h1V94h-1Zm1-66h-1V12.117h1V28Zm4.676 66v167.187h1V94h-1Zm1-66h-1V12.117h1V28Zm4.68 66v167.187h1V94h-1Zm1-66h-1V12.117h1V28Zm4.675 66v167.187h1V94h-1Zm1-66h-1V12.117h1V28Zm4.684 66v167.187h1V94h-1Zm1-66h-1V12.117h1V28Zm4.676 0V12.117h1v249.07h-1V94H405V28h-.656Zm5.683 233.187V12.117h1v249.07h-1Zm5.672-249.07v249.07h1V12.117h-1Zm5.684 249.07V12.117h1v249.07h-1Zm5.672-249.07v249.07h1V12.117h-1Zm5.683 249.07V12.117h1v249.07h-1Zm5.684-249.07v249.07h1V12.117h-1Zm5.683 249.07V12.117h1v249.07h-1Zm5.672-249.07v249.07h1V12.117h-1Zm5.684 249.07V12.117h1v249.07h-1Zm5.672-249.07v249.07h1V12.117h-1Zm5.683 249.07V12.117h1v249.07h-1Zm5.676-249.07v249.07h1V12.117h-1Zm5.688 249.07V12.117h1v249.07h-1Zm5.675-249.07v249.07h1V12.117h-1Zm5.68 249.07V12.117h1v249.07h-1Zm5.676-249.07v249.07h1V12.117h-1Zm5.68 249.07V12.117h1v249.07h-1Zm5.679-249.07v249.07h1V12.117h-1Zm5.68 249.07V12.117h1v249.07h-1Zm5.676-249.07v249.07h1V12.117h-1Zm5.683 249.07V12.117h1v249.07h-1Zm5.68-249.07v249.07h1V12.117h-1Zm5.68 249.07V12.117h1v249.07h-1Zm5.679-249.07v249.07h1V12.117h-1Zm5.672 249.07V12.117h1v249.07h-1Z" clip-rule="evenodd"/></g><path stroke="url(#e)" d="m86 241.219 33.097-125.811c.833-3.164 5.409-2.899 5.871.34l8.55 59.902a3 3 0 0 0 2.97 2.576h43.404a3 3 0 0 1 2.915 2.291l13.966 57.411a3 3 0 0 0 2.915 2.291h47.591a3 3 0 0 0 2.902-2.242l53.674-205.6c.797-3.056 5.166-2.964 5.834.122l14.344 66.196a3 3 0 0 0 2.932 2.365h46.056a2.998 2.998 0 0 0 2.777-1.867l12.213-29.941c1.1-2.697 5.011-2.402 5.694.43l34.876 144.568a3 3 0 0 0 2.916 2.297H560"/><path fill="#94979E" d="M24.69 120.168c-1.213 0-2.151-.42-2.814-1.26-.663-.849-.994-2.105-.994-3.766 0-1.652.331-2.912.994-3.78.663-.868 1.6-1.302 2.814-1.302.784 0 1.442.187 1.974.56.541.373.961.882 1.26 1.526l-.686.406a2.76 2.76 0 0 0-.98-1.26c-.43-.317-.952-.476-1.568-.476-.915 0-1.629.327-2.142.98-.513.653-.77 1.587-.77 2.8v1.106c0 1.204.257 2.123.77 2.758.513.635 1.227.952 2.142.952.653 0 1.2-.163 1.638-.49.439-.336.765-.784.98-1.344l.686.406a3.67 3.67 0 0 1-1.274 1.596c-.56.392-1.237.588-2.03.588Zm7.52 0c-.475 0-.905-.084-1.287-.252a2.701 2.701 0 0 1-.98-.728 3.529 3.529 0 0 1-.63-1.19 5.184 5.184 0 0 1-.224-1.582c0-.588.074-1.111.224-1.568.149-.467.359-.859.63-1.176.27-.327.597-.574.98-.742a3.033 3.033 0 0 1 1.288-.266c.476 0 .905.089 1.288.266.382.168.709.415.98.742.27.317.48.709.63 1.176.149.457.224.98.224 1.568a5.18 5.18 0 0 1-.224 1.582c-.15.467-.36.863-.63 1.19a2.7 2.7 0 0 1-.98.728 3.171 3.171 0 0 1-1.288.252Zm0-.714c.7 0 1.251-.219 1.653-.658.41-.439.616-1.083.616-1.932v-.896c0-.84-.206-1.479-.616-1.918-.402-.448-.952-.672-1.652-.672s-1.256.219-1.666.658c-.402.439-.602 1.083-.602 1.932v.896c0 .84.2 1.484.602 1.932.41.439.966.658 1.666.658Zm4.87.546v-7.168h.798v1.134h.042c.075-.177.168-.341.28-.49.112-.159.247-.299.406-.42.159-.121.345-.215.56-.28.224-.075.485-.112.784-.112.513 0 .966.121 1.358.364.392.243.677.625.854 1.148h.042c.13-.42.378-.775.742-1.064.373-.299.877-.448 1.512-.448.765 0 1.353.238 1.764.714.41.467.616 1.139.616 2.016V120h-.798v-4.466c0-1.437-.602-2.156-1.806-2.156-.252 0-.49.033-.714.098a1.748 1.748 0 0 0-.602.308 1.453 1.453 0 0 0-.406.504 1.459 1.459 0 0 0-.154.686V120h-.798v-4.466c0-1.437-.597-2.156-1.792-2.156-.243 0-.48.033-.714.098a1.89 1.89 0 0 0-.602.294 1.459 1.459 0 0 0-.574 1.19V120h-.798Zm11.984-7.168h.798v1.148h.042c.177-.401.448-.719.812-.952.364-.243.82-.364 1.372-.364.924 0 1.647.327 2.17.98.522.653.784 1.577.784 2.772 0 1.195-.262 2.119-.784 2.772-.523.653-1.246.98-2.17.98-.551 0-1.004-.117-1.358-.35a2.453 2.453 0 0 1-.826-.966h-.042v3.948h-.798v-9.968Zm2.842 6.622c.718 0 1.278-.229 1.68-.686.4-.457.602-1.073.602-1.848v-1.008c0-.775-.201-1.391-.602-1.848-.402-.457-.962-.686-1.68-.686-.28 0-.546.042-.798.126a2.091 2.091 0 0 0-.644.322c-.187.14-.336.308-.448.504a1.367 1.367 0 0 0-.154.644v2.842c0 .252.05.481.154.686.112.196.26.369.448.518.186.14.4.247.644.322.252.075.518.112.798.112Zm9.397-.588h-.056a2.293 2.293 0 0 1-.266.49 1.781 1.781 0 0 1-.42.42 2.523 2.523 0 0 1-1.4.392c-.766 0-1.363-.233-1.792-.7-.43-.476-.644-1.153-.644-2.03v-4.606h.798v4.452c0 .737.158 1.283.476 1.638.317.355.774.532 1.372.532.252 0 .49-.033.714-.098a1.87 1.87 0 0 0 .616-.294c.186-.131.331-.294.434-.49.112-.205.168-.443.168-.714v-5.026h.798V120h-.798v-1.134Zm4.36 1.134c-.289 0-.508-.079-.658-.238-.149-.159-.224-.373-.224-.644v-5.586h-1.246v-.7h.812c.196 0 .327-.037.392-.112.075-.084.112-.229.112-.434v-1.456h.728v2.002h1.624v.7H65.58v5.768h1.512v.7h-1.428Zm5.685.168c-.476 0-.91-.084-1.302-.252a2.831 2.831 0 0 1-.994-.728 3.525 3.525 0 0 1-.63-1.19 5.504 5.504 0 0 1-.21-1.582c0-.588.07-1.111.21-1.568.15-.467.36-.859.63-1.176.28-.327.611-.574.994-.742a3.032 3.032 0 0 1 1.288-.266c.457 0 .873.089 1.246.266.373.168.69.406.952.714.261.308.462.681.602 1.12.15.429.224.905.224 1.428v.378h-5.306v.35c0 .373.051.719.154 1.036.112.308.266.574.462.798.205.224.453.401.742.532.29.121.616.182.98.182 1.045 0 1.769-.481 2.17-1.442l.588.392a2.778 2.778 0 0 1-1.064 1.274c-.476.317-1.055.476-1.736.476Zm-.014-6.832c-.345 0-.658.065-.938.196-.28.121-.523.294-.728.518-.196.224-.35.495-.462.812a3.218 3.218 0 0 0-.154 1.022v.07h4.438v-.112a3.22 3.22 0 0 0-.154-1.022 2.148 2.148 0 0 0-.448-.798 1.949 1.949 0 0 0-.686-.504 2.041 2.041 0 0 0-.868-.182Zm-47.512 24.832c-.99 0-1.755-.327-2.296-.98-.532-.653-.798-1.577-.798-2.772 0-1.195.266-2.119.798-2.772.541-.653 1.307-.98 2.296-.98.663 0 1.2.145 1.61.434.41.289.723.672.938 1.148l-.672.336c-.168-.392-.406-.691-.714-.896-.299-.205-.686-.308-1.162-.308-.728 0-1.283.233-1.666.7-.383.467-.574 1.078-.574 1.834v1.008c0 .756.191 1.367.574 1.834.383.467.938.7 1.666.7.495 0 .91-.107 1.246-.322.336-.215.607-.523.812-.924l.588.392c-.233.476-.57.859-1.008 1.148-.43.28-.975.42-1.638.42Zm9.073-.168c-.308 0-.532-.079-.672-.238-.14-.159-.219-.373-.238-.644v-.252h-.07a1.96 1.96 0 0 1-.784.952c-.364.233-.826.35-1.386.35-.756 0-1.339-.182-1.75-.546-.41-.373-.616-.896-.616-1.568 0-.635.224-1.139.672-1.512.458-.373 1.204-.56 2.24-.56h1.652v-.84c0-1.185-.611-1.778-1.834-1.778-.476 0-.872.103-1.19.308a2.15 2.15 0 0 0-.77.854l-.504-.42c.196-.42.495-.765.896-1.036.411-.271.943-.406 1.596-.406.84 0 1.484.21 1.932.63.448.42.672 1.008.672 1.764v4.242h.966v.7h-.812Zm-3.038-.518c.29 0 .56-.037.812-.112.252-.075.472-.177.658-.308.196-.14.346-.303.448-.49.112-.196.168-.415.168-.658v-1.33h-1.68c-.718 0-1.241.117-1.568.35-.317.224-.476.537-.476.938v.336c0 .42.15.737.448.952.299.215.696.322 1.19.322Zm5.213-6.65h.798v1.148h.042c.178-.401.448-.719.812-.952.364-.243.822-.364 1.372-.364.924 0 1.648.327 2.17.98.523.653.784 1.577.784 2.772 0 1.195-.261 2.119-.784 2.772-.523.653-1.246.98-2.17.98-.55 0-1.003-.117-1.358-.35a2.454 2.454 0 0 1-.826-.966h-.042v3.948h-.798v-9.968Zm2.842 6.622c.719 0 1.279-.229 1.68-.686.401-.457.602-1.073.602-1.848v-1.008c0-.775-.2-1.391-.602-1.848-.401-.457-.961-.686-1.68-.686-.28 0-.546.042-.798.126a2.093 2.093 0 0 0-.644.322c-.187.14-.336.308-.448.504a1.368 1.368 0 0 0-.154.644v2.842c0 .252.051.481.154.686.112.196.261.369.448.518.187.14.401.247.644.322.252.075.518.112.798.112Zm9.845.546c-.308 0-.532-.079-.672-.238-.14-.159-.22-.373-.238-.644v-.252h-.07a1.96 1.96 0 0 1-.784.952c-.364.233-.826.35-1.386.35-.756 0-1.34-.182-1.75-.546-.41-.373-.616-.896-.616-1.568 0-.635.224-1.139.672-1.512.458-.373 1.204-.56 2.24-.56h1.652v-.84c0-1.185-.611-1.778-1.834-1.778-.476 0-.872.103-1.19.308a2.15 2.15 0 0 0-.77.854l-.504-.42c.196-.42.495-.765.896-1.036.41-.271.943-.406 1.596-.406.84 0 1.484.21 1.932.63.448.42.672 1.008.672 1.764v4.242h.966v.7h-.812Zm-3.038-.518c.29 0 .56-.037.812-.112.252-.075.471-.177.658-.308.196-.14.346-.303.448-.49.112-.196.168-.415.168-.658v-1.33h-1.68c-.718 0-1.241.117-1.568.35-.317.224-.476.537-.476.938v.336c0 .42.15.737.448.952.299.215.695.322 1.19.322Zm7.733.686c-.99 0-1.755-.327-2.296-.98-.532-.653-.798-1.577-.798-2.772 0-1.195.266-2.119.798-2.772.541-.653 1.307-.98 2.296-.98.663 0 1.2.145 1.61.434.41.289.723.672.938 1.148l-.672.336c-.168-.392-.406-.691-.714-.896-.299-.205-.686-.308-1.162-.308-.728 0-1.283.233-1.666.7-.383.467-.574 1.078-.574 1.834v1.008c0 .756.191 1.367.574 1.834.383.467.938.7 1.666.7.495 0 .91-.107 1.246-.322.336-.215.607-.523.812-.924l.588.392c-.233.476-.57.859-1.008 1.148-.43.28-.975.42-1.638.42Zm4.537-9.282c-.186 0-.326-.047-.42-.14a.523.523 0 0 1-.126-.364v-.14c0-.149.042-.271.126-.364.094-.093.234-.14.42-.14.187 0 .322.047.406.14.094.093.14.215.14.364v.14a.493.493 0 0 1-.14.364c-.084.093-.219.14-.406.14Zm-.392 1.946h.798V138h-.798v-7.168ZM60.954 138c-.29 0-.51-.079-.658-.238-.15-.159-.224-.373-.224-.644v-5.586h-1.246v-.7h.812c.196 0 .326-.037.392-.112.074-.084.112-.229.112-.434v-1.456h.728v2.002h1.624v.7H60.87v5.768h1.512v.7h-1.428Zm7.516-7.168h.812l-3.318 9.184c-.112.299-.248.504-.406.616-.159.112-.42.168-.784.168h-.812v-.7h1.204l.686-1.89-2.66-7.378h.84l2.198 6.314h.056l2.184-6.314Zm-47.182 20.8c0-.691.065-1.349.196-1.974.14-.625.327-1.204.56-1.736a7.75 7.75 0 0 1 .812-1.456 6.04 6.04 0 0 1 .98-1.106h.784a7.34 7.34 0 0 0-1.036 1.162 8.879 8.879 0 0 0-.812 1.428 8.998 8.998 0 0 0-.532 1.582 7.132 7.132 0 0 0-.196 1.652v.924c0 .551.065 1.101.196 1.652a8.692 8.692 0 0 0 1.358 3.01c.317.448.658.831 1.022 1.148h-.784a5.896 5.896 0 0 1-.966-1.092 7.912 7.912 0 0 1-.812-1.442 9.849 9.849 0 0 1-.56-1.75 9.274 9.274 0 0 1-.21-2.002Zm7.798 4.536c-1.214 0-2.152-.42-2.814-1.26-.663-.849-.994-2.105-.994-3.766 0-1.652.331-2.912.994-3.78.662-.868 1.6-1.302 2.814-1.302.784 0 1.442.187 1.974.56.541.373.961.882 1.26 1.526l-.686.406a2.76 2.76 0 0 0-.98-1.26c-.43-.317-.952-.476-1.568-.476-.915 0-1.629.327-2.142.98-.514.653-.77 1.587-.77 2.8v1.106c0 1.204.256 2.123.77 2.758.513.635 1.227.952 2.142.952.653 0 1.2-.163 1.638-.49.438-.336.765-.784.98-1.344l.686.406c-.29.672-.714 1.204-1.274 1.596-.56.392-1.237.588-2.03.588Zm5.812-9.94v6.034c0 .541.042 1.013.126 1.414.084.392.224.719.42.98.196.252.458.443.784.574.327.121.728.182 1.204.182s.873-.061 1.19-.182c.327-.131.588-.322.784-.574a2.36 2.36 0 0 0 .434-.98c.084-.401.126-.873.126-1.414v-6.034h.84v5.852c0 .719-.06 1.335-.182 1.848-.12.513-.317.938-.588 1.274a2.318 2.318 0 0 1-1.05.728c-.429.159-.956.238-1.582.238-.625 0-1.152-.079-1.582-.238a2.326 2.326 0 0 1-1.036-.728c-.26-.336-.448-.761-.56-1.274-.112-.513-.168-1.129-.168-1.848v-5.852h.84Zm10.318 5.404c0 .7-.07 1.367-.21 2.002a9.849 9.849 0 0 1-.56 1.75 7.918 7.918 0 0 1-.812 1.442c-.308.439-.63.803-.966 1.092h-.784c.364-.317.7-.7 1.008-1.148.317-.439.593-.91.826-1.414a8.692 8.692 0 0 0 .546-1.596c.13-.551.196-1.101.196-1.652v-.924c0-.551-.065-1.101-.196-1.652a8.333 8.333 0 0 0-.546-1.582 7.665 7.665 0 0 0-.812-1.428 6.84 6.84 0 0 0-1.022-1.162h.784c.345.299.672.667.98 1.106.308.429.579.915.812 1.456.233.532.415 1.111.546 1.736.14.625.21 1.283.21 1.974Z"/><path fill="#E4E5E7" d="M430.555 76.18h-.075l-.885 1.755-2.505 4.56-2.505-4.56-.885-1.755h-.075V85h-1.23V74.53h1.68l3 5.64h.075l3.015-5.64h1.62V85h-1.23v-8.82Zm9.218 8.82c-.45 0-.775-.12-.975-.36-.19-.24-.31-.54-.36-.9h-.075c-.17.48-.45.84-.84 1.08-.39.24-.855.36-1.395.36-.82 0-1.46-.21-1.92-.63-.45-.42-.675-.99-.675-1.71 0-.73.265-1.29.795-1.68.54-.39 1.375-.585 2.505-.585h1.53v-.765c0-.55-.15-.97-.45-1.26-.3-.29-.76-.435-1.38-.435-.47 0-.865.105-1.185.315-.31.21-.57.49-.78.84l-.72-.675c.21-.42.545-.775 1.005-1.065.46-.3 1.04-.45 1.74-.45.94 0 1.67.23 2.19.69.52.46.78 1.1.78 1.92v4.26h.885V85h-.675Zm-3.45-.84c.3 0 .575-.035.825-.105.25-.07.465-.17.645-.3.18-.13.32-.28.42-.45.1-.17.15-.355.15-.555v-1.275h-1.59c-.69 0-1.195.1-1.515.3-.31.2-.465.49-.465.87v.315c0 .38.135.675.405.885.28.21.655.315 1.125.315Zm4.578.84 2.865-3.9-2.745-3.84h1.41l1.965 2.88h.045l2.04-2.88h1.335l-2.73 3.75 2.79 3.99h-1.41l-2.01-3.03h-.045L442.236 85h-1.335Zm17.132 0c-.45 0-.775-.12-.975-.36-.19-.24-.31-.54-.36-.9h-.075c-.17.48-.45.84-.84 1.08-.39.24-.855.36-1.395.36-.82 0-1.46-.21-1.92-.63-.45-.42-.675-.99-.675-1.71 0-.73.265-1.29.795-1.68.54-.39 1.375-.585 2.505-.585h1.53v-.765c0-.55-.15-.97-.45-1.26-.3-.29-.76-.435-1.38-.435-.47 0-.865.105-1.185.315-.31.21-.57.49-.78.84l-.72-.675c.21-.42.545-.775 1.005-1.065.46-.3 1.04-.45 1.74-.45.94 0 1.67.23 2.19.69.52.46.78 1.1.78 1.92v4.26h.885V85h-.675Zm-3.45-.84c.3 0 .575-.035.825-.105.25-.07.465-.17.645-.3.18-.13.32-.28.42-.45.1-.17.15-.355.15-.555v-1.275h-1.59c-.69 0-1.195.1-1.515.3-.31.2-.465.49-.465.87v.315c0 .38.135.675.405.885.28.21.655.315 1.125.315Zm10.308-.42h-.06c-.08.18-.18.36-.3.54-.11.17-.25.325-.42.465-.17.13-.375.235-.615.315-.24.08-.52.12-.84.12-.8 0-1.435-.255-1.905-.765-.47-.52-.705-1.25-.705-2.19V77.26h1.2v4.755c0 1.39.59 2.085 1.77 2.085.24 0 .47-.03.69-.09.23-.06.43-.15.6-.27a1.289 1.289 0 0 0 .585-1.125V77.26h1.2V85h-1.2v-1.26Zm5.165 1.26c-.42 0-.74-.115-.96-.345-.21-.24-.315-.55-.315-.93V78.31h-1.275v-1.05h.72c.26 0 .435-.05.525-.15.1-.11.15-.295.15-.555v-1.44h1.08v2.145h1.695v1.05h-1.695v5.64h1.575V85h-1.5Zm6.115.18c-.52 0-.995-.095-1.425-.285-.43-.19-.8-.46-1.11-.81-.3-.36-.535-.785-.705-1.275-.17-.5-.255-1.06-.255-1.68 0-.61.085-1.165.255-1.665.17-.5.405-.925.705-1.275.31-.36.68-.635 1.11-.825.43-.19.905-.285 1.425-.285s.99.095 1.41.285c.43.19.8.465 1.11.825.31.35.55.775.72 1.275.17.5.255 1.055.255 1.665 0 .62-.085 1.18-.255 1.68-.17.49-.41.915-.72 1.275-.31.35-.68.62-1.11.81-.42.19-.89.285-1.41.285Zm0-1.065c.65 0 1.18-.2 1.59-.6.41-.4.615-1.01.615-1.83v-1.11c0-.82-.205-1.43-.615-1.83-.41-.4-.94-.6-1.59-.6-.65 0-1.18.2-1.59.6-.41.4-.615 1.01-.615 1.83v1.11c0 .82.205 1.43.615 1.83.41.4.94.6 1.59.6Zm7.494 1.065c-.72 0-1.325-.135-1.815-.405a4.24 4.24 0 0 1-1.245-1.11l.855-.69c.3.38.635.675 1.005.885.37.2.8.3 1.29.3.51 0 .905-.11 1.185-.33.29-.22.435-.53.435-.93 0-.3-.1-.555-.3-.765-.19-.22-.54-.37-1.05-.45l-.615-.09c-.36-.05-.69-.125-.99-.225-.3-.11-.565-.25-.795-.42-.22-.18-.395-.4-.525-.66-.12-.26-.18-.57-.18-.93 0-.38.07-.71.21-.99.14-.29.33-.53.57-.72.25-.19.545-.33.885-.42.34-.1.705-.15 1.095-.15.63 0 1.155.11 1.575.33.43.22.805.525 1.125.915l-.795.72c-.17-.24-.42-.455-.75-.645-.33-.2-.745-.3-1.245-.3-.5 0-.88.11-1.14.33-.25.21-.375.5-.375.87 0 .38.125.655.375.825.26.17.63.295 1.11.375l.6.09c.86.13 1.47.38 1.83.75.36.36.54.835.54 1.425 0 .75-.255 1.34-.765 1.77-.51.43-1.21.645-2.1.645Zm7.564 0c-.54 0-1.025-.095-1.455-.285-.43-.19-.795-.46-1.095-.81a3.778 3.778 0 0 1-.675-1.275c-.15-.5-.225-1.06-.225-1.68 0-.62.075-1.18.225-1.68.16-.5.385-.925.675-1.275.3-.35.665-.62 1.095-.81.43-.19.915-.285 1.455-.285.77 0 1.385.17 1.845.51.47.33.82.765 1.05 1.305l-1.005.51c-.14-.4-.37-.71-.69-.93-.32-.22-.72-.33-1.2-.33-.36 0-.675.06-.945.18-.27.11-.495.27-.675.48-.18.2-.315.445-.405.735-.09.28-.135.59-.135.93v1.32c0 .68.18 1.24.54 1.68.37.43.91.645 1.62.645.97 0 1.67-.45 2.1-1.35l.87.585a3.057 3.057 0 0 1-1.125 1.335c-.49.33-1.105.495-1.845.495Zm9.989-.18c-.45 0-.775-.12-.975-.36-.19-.24-.31-.54-.36-.9h-.075c-.17.48-.45.84-.84 1.08-.39.24-.855.36-1.395.36-.82 0-1.46-.21-1.92-.63-.45-.42-.675-.99-.675-1.71 0-.73.265-1.29.795-1.68.54-.39 1.375-.585 2.505-.585h1.53v-.765c0-.55-.15-.97-.45-1.26-.3-.29-.76-.435-1.38-.435-.47 0-.865.105-1.185.315-.31.21-.57.49-.78.84l-.72-.675c.21-.42.545-.775 1.005-1.065.46-.3 1.04-.45 1.74-.45.94 0 1.67.23 2.19.69.52.46.78 1.1.78 1.92v4.26h.885V85h-.675Zm-3.45-.84c.3 0 .575-.035.825-.105.25-.07.465-.17.645-.3.18-.13.32-.28.42-.45.1-.17.15-.355.15-.555v-1.275h-1.59c-.69 0-1.195.1-1.515.3-.31.2-.465.49-.465.87v.315c0 .38.135.675.405.885.28.21.655.315 1.125.315Zm6.813.84c-.42 0-.74-.115-.96-.345-.21-.24-.315-.54-.315-.9V73.9h1.2v10.05h1.14V85h-1.065Zm3.112-9.555c-.26 0-.45-.06-.57-.18a.74.74 0 0 1-.165-.495v-.195c0-.2.055-.36.165-.48.12-.13.31-.195.57-.195.26 0 .445.065.555.195.12.12.18.28.18.48v.195c0 .2-.06.365-.18.495-.11.12-.295.18-.555.18Zm-.6 1.815h1.2V85h-1.2v-7.74Zm3.45 7.74v-7.74h1.2v1.26h.06c.19-.44.455-.79.795-1.05.35-.26.815-.39 1.395-.39.8 0 1.43.26 1.89.78.47.51.705 1.235.705 2.175V85h-1.2v-4.755c0-1.39-.585-2.085-1.755-2.085-.24 0-.475.03-.705.09-.22.06-.42.15-.6.27-.18.12-.325.275-.435.465-.1.18-.15.395-.15.645V85h-1.2Zm14.75.855c0 .8-.315 1.385-.945 1.755-.62.38-1.555.57-2.805.57-1.21 0-2.08-.165-2.61-.495-.53-.33-.795-.8-.795-1.41 0-.42.11-.75.33-.99.22-.23.52-.4.9-.51v-.165c-.46-.22-.69-.58-.69-1.08 0-.39.125-.685.375-.885.25-.21.57-.365.96-.465v-.06a2.55 2.55 0 0 1-1.08-.945c-.25-.41-.375-.885-.375-1.425 0-.39.07-.75.21-1.08.14-.33.335-.61.585-.84.26-.24.565-.425.915-.555.36-.13.76-.195 1.2-.195.55 0 1.04.1 1.47.3v-.135c0-.3.07-.545.21-.735.14-.2.37-.3.69-.3h1.155v1.05h-1.47v.495c.28.24.495.53.645.87.16.33.24.705.24 1.125 0 .39-.07.75-.21 1.08-.14.33-.34.615-.6.855-.25.23-.555.41-.915.54-.36.13-.76.195-1.2.195-.25 0-.5-.025-.75-.075-.26.07-.495.175-.705.315a.617.617 0 0 0-.315.555c0 .23.11.385.33.465.22.08.505.12.855.12h1.65c.96 0 1.655.185 2.085.555.44.36.66.86.66 1.5Zm-1.125.09a.91.91 0 0 0-.36-.75c-.23-.18-.645-.27-1.245-.27h-2.58c-.48.22-.72.57-.72 1.05 0 .34.125.63.375.87.26.24.695.36 1.305.36h1.11c.67 0 1.19-.105 1.56-.315.37-.21.555-.525.555-.945Zm-2.685-4.485c.51 0 .915-.12 1.215-.36.3-.25.45-.63.45-1.14v-.42c0-.51-.15-.885-.45-1.125-.3-.25-.705-.375-1.215-.375-.51 0-.915.125-1.215.375-.3.24-.45.615-.45 1.125v.42c0 .51.15.89.45 1.14.3.24.705.36 1.215.36Zm9.43 3.54c-.42 0-.74-.115-.96-.345-.21-.24-.315-.54-.315-.9V73.9h1.2v10.05h1.14V85h-1.065Zm3.112-9.555c-.26 0-.45-.06-.57-.18a.74.74 0 0 1-.165-.495v-.195c0-.2.055-.36.165-.48.12-.13.31-.195.57-.195.26 0 .445.065.555.195.12.12.18.28.18.48v.195c0 .2-.06.365-.18.495-.11.12-.295.18-.555.18Zm-.6 1.815h1.2V85h-1.2v-7.74Zm3.45 7.74v-7.74h1.2v1.26h.06c.09-.2.19-.385.3-.555.12-.18.26-.335.42-.465.17-.13.365-.23.585-.3.22-.08.48-.12.78-.12.51 0 .98.125 1.41.375.43.24.75.64.96 1.2h.03c.14-.42.4-.785.78-1.095.39-.32.915-.48 1.575-.48.79 0 1.405.26 1.845.78.45.51.675 1.235.675 2.175V85h-1.2v-4.755c0-.69-.135-1.21-.405-1.56-.27-.35-.7-.525-1.29-.525-.24 0-.47.03-.69.09-.21.06-.4.15-.57.27-.17.12-.305.275-.405.465-.1.18-.15.395-.15.645V85h-1.2v-4.755c0-.69-.135-1.21-.405-1.56-.27-.35-.69-.525-1.26-.525-.24 0-.47.03-.69.09-.22.06-.415.15-.585.27-.17.12-.31.275-.42.465-.1.18-.15.395-.15.645V85h-1.2Zm13.396-9.555c-.26 0-.45-.06-.57-.18a.74.74 0 0 1-.165-.495v-.195c0-.2.055-.36.165-.48.12-.13.31-.195.57-.195.26 0 .445.065.555.195.12.12.18.28.18.48v.195c0 .2-.06.365-.18.495-.11.12-.295.18-.555.18Zm-.6 1.815h1.2V85h-1.2v-7.74Zm5.16 7.74c-.42 0-.74-.115-.96-.345-.21-.24-.315-.55-.315-.93V78.31h-1.275v-1.05h.72c.26 0 .435-.05.525-.15.1-.11.15-.295.15-.555v-1.44h1.08v2.145h1.695v1.05h-1.695v5.64h1.575V85h-1.5Z"/><path fill="#94979E" d="m493.504 264-1.064-3.038h-4.158L487.218 264h-.84l3.458-9.772h1.078l3.472 9.772h-.882Zm-3.122-8.974h-.056l-1.834 5.208h3.724l-1.834-5.208Zm7.91 9.142c-.989 0-1.755-.327-2.296-.98-.532-.653-.798-1.577-.798-2.772 0-1.195.266-2.119.798-2.772.541-.653 1.307-.98 2.296-.98.663 0 1.199.145 1.61.434.411.289.723.672.938 1.148l-.672.336c-.168-.392-.406-.691-.714-.896-.299-.205-.686-.308-1.162-.308-.728 0-1.283.233-1.666.7-.383.467-.574 1.078-.574 1.834v1.008c0 .756.191 1.367.574 1.834.383.467.938.7 1.666.7.495 0 .91-.107 1.246-.322a2.32 2.32 0 0 0 .812-.924l.588.392a2.849 2.849 0 0 1-1.008 1.148c-.429.28-.975.42-1.638.42Zm5.377-.168c-.289 0-.508-.079-.658-.238-.149-.159-.224-.373-.224-.644v-5.586h-1.246v-.7h.812c.196 0 .327-.037.392-.112.075-.084.112-.229.112-.434v-1.456h.728v2.002h1.624v.7h-1.624v5.768h1.512v.7h-1.428Zm3.57-9.114c-.187 0-.327-.047-.42-.14a.523.523 0 0 1-.126-.364v-.14c0-.149.042-.271.126-.364.093-.093.233-.14.42-.14.186 0 .322.047.406.14.093.093.14.215.14.364v.14a.494.494 0 0 1-.14.364c-.084.093-.22.14-.406.14Zm-.392 1.946h.798V264h-.798v-7.168Zm2.116 0h.84l2.198 6.314h.056l2.184-6.314h.812l-2.59 7.168h-.91l-2.59-7.168Zm9.853 7.336c-.476 0-.91-.084-1.302-.252a2.828 2.828 0 0 1-.994-.728 3.514 3.514 0 0 1-.63-1.19 5.504 5.504 0 0 1-.21-1.582c0-.588.07-1.111.21-1.568.149-.467.359-.859.63-1.176.28-.327.611-.574.994-.742a3.03 3.03 0 0 1 1.288-.266c.457 0 .872.089 1.246.266.373.168.69.406.952.714.261.308.462.681.602 1.12.149.429.224.905.224 1.428v.378h-5.306v.35c0 .373.051.719.154 1.036.112.308.266.574.462.798.205.224.452.401.742.532.289.121.616.182.98.182 1.045 0 1.768-.481 2.17-1.442l.588.392a2.78 2.78 0 0 1-1.064 1.274c-.476.317-1.055.476-1.736.476Zm-.014-6.832c-.346 0-.658.065-.938.196-.28.121-.523.294-.728.518-.196.224-.35.495-.462.812a3.21 3.21 0 0 0-.154 1.022v.07h4.438v-.112c0-.373-.052-.714-.154-1.022a2.153 2.153 0 0 0-.448-.798 1.957 1.957 0 0 0-.686-.504 2.044 2.044 0 0 0-.868-.182Zm7.802-3.696h.798v4.326h.042c.158-.373.406-.681.742-.924.336-.252.793-.378 1.372-.378.765 0 1.358.238 1.778.714.429.467.644 1.139.644 2.016V264h-.798v-4.466c0-.728-.159-1.269-.476-1.624-.308-.355-.761-.532-1.358-.532-.252 0-.495.033-.728.098a2.026 2.026 0 0 0-.63.294 1.518 1.518 0 0 0-.434.504 1.455 1.455 0 0 0-.154.686V264h-.798v-10.36Zm10.156 10.528c-.476 0-.905-.084-1.288-.252a2.709 2.709 0 0 1-.98-.728 3.55 3.55 0 0 1-.63-1.19 5.193 5.193 0 0 1-.224-1.582c0-.588.075-1.111.224-1.568.15-.467.36-.859.63-1.176.271-.327.598-.574.98-.742a3.034 3.034 0 0 1 1.288-.266c.476 0 .906.089 1.288.266.383.168.71.415.98.742.271.317.481.709.63 1.176.15.457.224.98.224 1.568 0 .588-.074 1.115-.224 1.582a3.514 3.514 0 0 1-.63 1.19c-.27.317-.597.56-.98.728a3.17 3.17 0 0 1-1.288.252Zm0-.714c.7 0 1.251-.219 1.652-.658.411-.439.616-1.083.616-1.932v-.896c0-.84-.205-1.479-.616-1.918-.401-.448-.952-.672-1.652-.672s-1.255.219-1.666.658c-.401.439-.602 1.083-.602 1.932v.896c0 .84.201 1.484.602 1.932.411.439.966.658 1.666.658Zm9.35-.588h-.056a2.325 2.325 0 0 1-.266.49 1.781 1.781 0 0 1-.42.42 2.523 2.523 0 0 1-1.4.392c-.766 0-1.363-.233-1.792-.7-.43-.476-.644-1.153-.644-2.03v-4.606h.798v4.452c0 .737.158 1.283.476 1.638.317.355.774.532 1.372.532.252 0 .49-.033.714-.098a1.88 1.88 0 0 0 .616-.294c.186-.131.331-.294.434-.49.112-.205.168-.443.168-.714v-5.026h.798V264h-.798v-1.134Zm3.128 1.134v-7.168h.798v1.288h.056c.14-.336.378-.635.714-.896.336-.261.812-.392 1.428-.392h.476v.784h-.63c-.597 0-1.087.131-1.47.392a1.25 1.25 0 0 0-.574 1.092v4.9h-.798Zm6.754.168c-.625 0-1.162-.117-1.61-.35a3.4 3.4 0 0 1-1.148-1.022l.588-.462c.299.392.626.681.98.868.355.187.77.28 1.246.28.551 0 .976-.117 1.274-.35.299-.233.448-.569.448-1.008 0-.383-.116-.681-.35-.896-.224-.224-.597-.373-1.12-.448l-.588-.098a4.928 4.928 0 0 1-.896-.21 2.278 2.278 0 0 1-.7-.378 1.816 1.816 0 0 1-.448-.574 2.086 2.086 0 0 1-.154-.84c0-.336.061-.63.182-.882a1.91 1.91 0 0 1 .518-.63c.215-.168.472-.294.77-.378.299-.084.621-.126.966-.126.598 0 1.088.103 1.47.308.383.205.71.471.98.798l-.532.49a2.84 2.84 0 0 0-.756-.616c-.308-.196-.709-.294-1.204-.294-.513 0-.914.112-1.204.336-.28.224-.42.541-.42.952 0 .42.126.723.378.91.262.187.649.322 1.162.406l.574.084c.728.112 1.265.331 1.61.658.355.317.532.765.532 1.344 0 .672-.228 1.195-.686 1.568-.448.373-1.068.56-1.862.56Z"/><path fill="#61646B" d="M82.354 19.646a.5.5 0 0 0-.708 0l-3.181 3.182a.5.5 0 1 0 .707.707L82 20.707l2.828 2.828a.5.5 0 1 0 .707-.707l-3.181-3.182ZM82 246h-.5v.5h.5v-.5Zm488.354.354a.502.502 0 0 0 0-.708l-3.182-3.182a.502.502 0 0 0-.708.708l2.829 2.828-2.829 2.828a.502.502 0 0 0 .708.708l3.182-3.182ZM81.5 20v226h1V20h-1Zm.5 226.5h488v-1H82v1Z"/><rect width="224" height="41" x="82" y="271" fill="#94979E" opacity=".06" rx="5"/><path fill="#94979E" d="M214.188 287.624h3.276c.656 0 1.168.188 1.536.564.376.368.564.884.564 1.548 0 .288-.04.54-.12.756a1.648 1.648 0 0 1-.288.54c-.12.144-.26.26-.42.348a1.546 1.546 0 0 1-.456.18v.048c.192.024.384.084.576.18.192.088.364.216.516.384.152.16.276.364.372.612.096.24.144.524.144.852 0 .344-.052.66-.156.948-.096.288-.24.54-.432.756a1.977 1.977 0 0 1-.672.492 2.134 2.134 0 0 1-.864.168h-3.576v-8.376Zm.72 7.74h2.664c.504 0 .888-.136 1.152-.408.264-.28.396-.64.396-1.08v-.444c0-.432-.132-.784-.396-1.056-.264-.28-.648-.42-1.152-.42h-2.664v3.408Zm0-4.032h2.484c.456 0 .804-.12 1.044-.36.24-.248.36-.564.36-.948v-.456c0-.384-.12-.696-.36-.936-.24-.248-.588-.372-1.044-.372h-2.484v3.072Zm6.956-3.144c-.16 0-.28-.04-.36-.12a.449.449 0 0 1-.108-.312v-.12c0-.128.036-.232.108-.312.08-.08.2-.12.36-.12.16 0 .276.04.348.12.08.08.12.184.12.312v.12c0 .128-.04.232-.12.312-.072.08-.188.12-.348.12Zm-.336 1.668h.684V296h-.684v-6.144Zm3.434 6.144c-.248 0-.436-.068-.564-.204-.128-.136-.192-.316-.192-.54v-8.136h.684v8.28h.948v.6h-.876Zm2.842 0c-.248 0-.436-.068-.564-.204-.128-.136-.192-.316-.192-.54v-8.136h.684v8.28h.948v.6h-.876Zm4.364.144c-.408 0-.78-.072-1.116-.216a2.423 2.423 0 0 1-.852-.624 3.022 3.022 0 0 1-.54-1.02c-.12-.4-.18-.852-.18-1.356 0-.504.06-.952.18-1.344.128-.4.308-.736.54-1.008.24-.28.524-.492.852-.636a2.595 2.595 0 0 1 1.104-.228c.392 0 .748.076 1.068.228.32.144.592.348.816.612.224.264.396.584.516.96.128.368.192.776.192 1.224v.324H230.2v.3c0 .32.044.616.132.888.096.264.228.492.396.684.176.192.388.344.636.456.248.104.528.156.84.156.896 0 1.516-.412 1.86-1.236l.504.336c-.192.456-.496.82-.912 1.092-.408.272-.904.408-1.488.408Zm-.012-5.856c-.296 0-.564.056-.804.168-.24.104-.448.252-.624.444a2.11 2.11 0 0 0-.396.696 2.758 2.758 0 0 0-.132.876v.06h3.804v-.096c0-.32-.044-.612-.132-.876a1.837 1.837 0 0 0-.384-.684 1.677 1.677 0 0 0-.588-.432 1.745 1.745 0 0 0-.744-.156Zm8.064 4.728h-.036c-.16.344-.396.62-.708.828-.304.2-.692.3-1.164.3-.792 0-1.412-.28-1.86-.84-.448-.56-.672-1.352-.672-2.376 0-1.024.224-1.816.672-2.376.448-.56 1.068-.84 1.86-.84.472 0 .864.104 1.176.312.312.2.544.472.696.816h.036v-3.72h.684V296h-.684v-.984Zm-1.752.516c.24 0 .464-.032.672-.096.216-.064.404-.156.564-.276.16-.128.284-.276.372-.444.096-.176.144-.372.144-.588v-2.436c0-.2-.048-.384-.144-.552a1.277 1.277 0 0 0-.372-.432 1.767 1.767 0 0 0-.564-.276 2.04 2.04 0 0 0-.672-.108c-.616 0-1.096.196-1.44.588-.344.392-.516.92-.516 1.584v.864c0 .664.172 1.192.516 1.584.344.392.824.588 1.44.588Zm9.931.612c-1.04 0-1.844-.36-2.412-1.08-.568-.728-.852-1.804-.852-3.228 0-1.416.284-2.496.852-3.24.568-.744 1.372-1.116 2.412-1.116.672 0 1.236.16 1.692.48.464.32.824.756 1.08 1.308l-.588.348a2.366 2.366 0 0 0-.84-1.08c-.368-.272-.816-.408-1.344-.408-.784 0-1.396.28-1.836.84-.44.56-.66 1.36-.66 2.4v.948c0 1.032.22 1.82.66 2.364.44.544 1.052.816 1.836.816.56 0 1.028-.14 1.404-.42.376-.288.656-.672.84-1.152l.588.348a3.146 3.146 0 0 1-1.092 1.368c-.48.336-1.06.504-1.74.504Zm4.982-8.52v5.172c0 .464.036.868.108 1.212.072.336.192.616.36.84.168.216.392.38.672.492.28.104.624.156 1.032.156.408 0 .748-.052 1.02-.156.28-.112.504-.276.672-.492.176-.224.3-.504.372-.84.072-.344.108-.748.108-1.212v-5.172h.72v5.016c0 .616-.052 1.144-.156 1.584-.104.44-.272.804-.504 1.092-.224.28-.524.488-.9.624-.368.136-.82.204-1.356.204-.536 0-.988-.068-1.356-.204a1.994 1.994 0 0 1-.888-.624c-.224-.288-.384-.652-.48-1.092-.096-.44-.144-.968-.144-1.584v-5.016h.72Zm9.651-.504h.684v3.708h.036c.136-.32.348-.584.636-.792.288-.216.68-.324 1.176-.324.656 0 1.164.204 1.524.612.368.4.552.976.552 1.728V296h-.684v-3.828c0-.624-.136-1.088-.408-1.392-.264-.304-.652-.456-1.164-.456-.216 0-.424.028-.624.084-.2.056-.38.14-.54.252a1.302 1.302 0 0 0-.372.432 1.25 1.25 0 0 0-.132.588V296h-.684v-8.88Zm8.706 9.024c-.408 0-.776-.072-1.104-.216a2.311 2.311 0 0 1-.84-.624 3.022 3.022 0 0 1-.54-1.02 4.441 4.441 0 0 1-.192-1.356c0-.504.064-.952.192-1.344.128-.4.308-.736.54-1.008.232-.28.512-.492.84-.636a2.595 2.595 0 0 1 1.104-.228c.408 0 .776.076 1.104.228.328.144.608.356.84.636.232.272.412.608.54 1.008.128.392.192.84.192 1.344 0 .504-.064.956-.192 1.356-.128.4-.308.74-.54 1.02-.232.272-.512.48-.84.624a2.719 2.719 0 0 1-1.104.216Zm0-.612c.6 0 1.072-.188 1.416-.564.352-.376.528-.928.528-1.656v-.768c0-.72-.176-1.268-.528-1.644-.344-.384-.816-.576-1.416-.576s-1.076.188-1.428.564c-.344.376-.516.928-.516 1.656v.768c0 .72.172 1.272.516 1.656.352.376.828.564 1.428.564Zm8.014-.504h-.048a1.96 1.96 0 0 1-.228.42 1.538 1.538 0 0 1-.36.36 2.056 2.056 0 0 1-.516.24 2.17 2.17 0 0 1-.684.096c-.656 0-1.168-.2-1.536-.6-.368-.408-.552-.988-.552-1.74v-3.948h.684v3.816c0 .632.136 1.1.408 1.404.272.304.664.456 1.176.456.216 0 .42-.028.612-.084.2-.056.376-.14.528-.252a1.17 1.17 0 0 0 .372-.42c.096-.176.144-.38.144-.612v-4.308h.684V296h-.684v-.972Zm2.681.972v-6.144h.684v1.104h.048c.12-.288.324-.544.612-.768.288-.224.696-.336 1.224-.336h.408v.672h-.54c-.512 0-.932.112-1.26.336a1.071 1.071 0 0 0-.492.936v4.2h-.684Zm5.79.144c-.536 0-.996-.1-1.38-.3a2.91 2.91 0 0 1-.984-.876l.504-.396c.256.336.536.584.84.744.304.16.66.24 1.068.24.472 0 .836-.1 1.092-.3.256-.2.384-.488.384-.864 0-.328-.1-.584-.3-.768-.192-.192-.512-.32-.96-.384l-.504-.084a4.16 4.16 0 0 1-.768-.18 1.958 1.958 0 0 1-.6-.324c-.16-.136-.288-.3-.384-.492a1.78 1.78 0 0 1-.132-.72c0-.288.052-.54.156-.756.112-.216.26-.396.444-.54.184-.144.404-.252.66-.324.256-.072.532-.108.828-.108.512 0 .932.088 1.26.264.328.176.608.404.84.684l-.456.42a2.447 2.447 0 0 0-.648-.528c-.264-.168-.608-.252-1.032-.252-.44 0-.784.096-1.032.288-.24.192-.36.464-.36.816 0 .36.108.62.324.78.224.16.556.276.996.348l.492.072c.624.096 1.084.284 1.38.564.304.272.456.656.456 1.152 0 .576-.196 1.024-.588 1.344-.384.32-.916.48-1.596.48Z"/><mask id="f" width="17" height="17" x="188" y="283" maskUnits="userSpaceOnUse" style="mask-type:alpha"><rect width="16.37" height="16.37" x="188.315" y="283.315" fill="#D9D9D9" stroke="#61646B" stroke-width=".63" rx="1.574"/></mask><g mask="url(#f)"><rect width="16.37" height="16.37" x="188.315" y="283.315" fill="#131415" stroke="#61646B" stroke-width=".63" rx="1.574"/><path fill="#00E599" fill-opacity=".25" fill-rule="evenodd" d="M186.738 278.602v156.821h.63V278.602h-.63Zm255 0v156.821h.63V278.602h-.63ZM189.883 435.423V278.602h.629v156.821h-.629Zm3.148-156.821v156.821h.63V278.602h-.63Zm3.149 156.821V278.602h.629v156.821h-.629Zm3.148-156.821v156.821h.63V278.602h-.63Zm3.149 156.821V278.602h.629v156.821h-.629Zm3.148-156.821v156.821h.63V278.602h-.63Zm3.148 156.821V278.602h.63v156.821h-.63Zm3.149-156.821v156.821h.63V278.602h-.63Zm3.148 156.821V278.602h.63v156.821h-.63Zm3.145-156.821v156.821h.629V278.602h-.629Zm3.148 156.821V278.602h.63v156.821h-.63Zm3.153-156.821v156.821h.629V278.602h-.629Zm3.148 156.821V278.602h.63v156.821h-.63Zm3.145-156.821v156.821h.629V278.602h-.629Zm3.148 156.821V278.602h.63v156.821h-.63Zm3.148-156.821v156.821h.63V278.602h-.63Zm3.149 156.821V278.602h.63v156.821h-.63Zm3.148-156.821v156.821h.63V278.602h-.63Zm3.149 156.821V278.602h.629v156.821h-.629Zm3.148-156.821v156.821h.63V278.602h-.63Zm3.149 156.821V278.602h.629v156.821h-.629Zm3.148-156.821v156.821h.63V278.602h-.63Zm3.149 156.821V278.602h.629v156.821h-.629Zm3.144-156.821v156.821h.63V278.602h-.63Zm3.152 156.821V278.602h.63v156.821h-.63Zm3.149-156.821v156.821h.629V278.602h-.629Zm3.148 156.821V278.602h.63v156.821h-.63Zm3.145-156.821v156.821h.629V278.602h-.629Zm3.148 156.821V278.602h.63v156.821h-.63Zm3.149-156.821v156.821h.629V278.602h-.629Zm3.148 156.821V278.602h.63v156.821h-.63Zm3.149-156.821v156.821h.629V278.602h-.629Zm3.148 156.821V278.602h.63v156.821h-.63Zm3.148-156.821v156.821h.63V278.602h-.63Zm3.149 156.821V278.602h.629l.001 156.821h-.63Zm3.148-156.821v156.821h.63V278.602h-.63Zm3.145 156.821V278.602h.629v156.821h-.629Zm3.148-156.821v156.821h.63V278.602h-.63Zm3.153 156.821V278.602h.629v156.821h-.629Zm3.148-156.821v156.821h.63V278.602h-.63Zm3.145 156.821V278.602h.629v156.821h-.629Zm3.148-156.821v156.821h.63V278.602h-.63Zm3.148 156.821V278.602h.63v156.821h-.63Zm3.149-156.821v156.821h.63V278.602h-.63Zm3.148 156.821V278.602h.63v156.821h-.63Zm3.149-156.821v156.821h.629V278.602h-.629Zm3.148 156.821V278.602h.63v156.821h-.63Zm3.149-156.821v156.821h.629V278.602h-.629Zm3.148 156.821V278.602h.63v156.821h-.63Zm3.149-156.821v156.821h.629V278.602h-.629Zm3.144 156.821V278.602h.63v156.821h-.63Zm3.152-156.821v156.821h.63V278.602h-.63Zm3.149 156.821V278.602h.629v156.821h-.629Zm3.148-156.821v156.821h.63V278.602h-.63Zm3.145 156.821V278.602h.629v156.821h-.629Zm3.148-156.821v156.821h.63V278.602h-.63Zm3.149 156.821V278.602h.629v156.821h-.629Zm3.148-156.821v156.821h.63V278.602h-.63Zm3.149 156.821V278.602h.629v156.821h-.629Zm3.148-156.821v156.821h.63V278.602h-.63Zm3.148 156.821V278.602h.63v156.821h-.63Zm3.149-156.821v156.821h.63V278.602h-.63Zm3.148 156.821V278.602h.63v156.821h-.63Zm3.145-156.821v156.821h.629V278.602h-.629Zm3.148 156.821V278.602h.63v156.821h-.63Zm3.153-156.821v156.821h.629V278.602h-.629Zm3.148 156.821V278.602h.63v156.821h-.63Zm3.145-156.821v156.821h.629V278.602h-.629Zm3.148 156.821V278.602h.63v156.821h-.63Zm3.148-156.821v156.821h.63V278.602h-.63Zm3.149 156.821V278.602h.63v156.821h-.63Zm3.148-156.821v156.821h.63V278.602h-.63Zm3.149 156.821V278.602h.629v156.821h-.629Zm3.148-156.821v156.821h.63V278.602h-.63Zm3.149 156.821V278.602h.629v156.821h-.629Zm3.148-156.821v156.821h.63V278.602h-.63Zm3.149 156.821V278.602h.629v156.821h-.629Zm3.144-156.821v156.821h.63V278.602h-.63Zm3.152 156.821V278.602h.63v156.821h-.63Zm3.149-156.821v156.821h.629V278.602h-.629Z" clip-rule="evenodd"/><rect width="16.575" height="16.575" x="188.213" y="283.213" stroke="#61646B" stroke-width=".425" rx="1.676"/></g><path fill="#94979E" d="m116.4 296-2.112-8.376h.768l1.788 7.488h.036l1.98-7.488h.876l1.956 7.488h.036l1.848-7.488h.744L122.136 296h-.84l-2.004-7.572h-.024L117.24 296h-.84Zm11.137.144c-.408 0-.776-.072-1.104-.216a2.311 2.311 0 0 1-.84-.624 3.022 3.022 0 0 1-.54-1.02 4.441 4.441 0 0 1-.192-1.356c0-.504.064-.952.192-1.344.128-.4.308-.736.54-1.008.232-.28.512-.492.84-.636a2.595 2.595 0 0 1 1.104-.228c.408 0 .776.076 1.104.228.328.144.608.356.84.636.232.272.412.608.54 1.008.128.392.192.84.192 1.344 0 .504-.064.956-.192 1.356-.128.4-.308.74-.54 1.02-.232.272-.512.48-.84.624a2.719 2.719 0 0 1-1.104.216Zm0-.612c.6 0 1.072-.188 1.416-.564.352-.376.528-.928.528-1.656v-.768c0-.72-.176-1.268-.528-1.644-.344-.384-.816-.576-1.416-.576s-1.076.188-1.428.564c-.344.376-.516.928-.516 1.656v.768c0 .72.172 1.272.516 1.656.352.376.828.564 1.428.564Zm4.173.468v-6.144h.684v1.104h.048c.12-.288.324-.544.612-.768.288-.224.696-.336 1.224-.336h.408v.672h-.54c-.512 0-.932.112-1.26.336a1.071 1.071 0 0 0-.492.936v4.2h-.684Zm4.049-8.88h.684v5.868h.036l.96-1.02 2.04-2.112h.84l-2.412 2.496 2.676 3.648h-.84l-2.328-3.216-.972.984V296h-.684v-8.88Zm6.669 8.88c-.248 0-.436-.068-.564-.204-.128-.136-.192-.316-.192-.54v-8.136h.684v8.28h.948v.6h-.876Zm4.352.144c-.408 0-.776-.072-1.104-.216a2.311 2.311 0 0 1-.84-.624 3.022 3.022 0 0 1-.54-1.02 4.441 4.441 0 0 1-.192-1.356c0-.504.064-.952.192-1.344.128-.4.308-.736.54-1.008.232-.28.512-.492.84-.636a2.595 2.595 0 0 1 1.104-.228c.408 0 .776.076 1.104.228.328.144.608.356.84.636.232.272.412.608.54 1.008.128.392.192.84.192 1.344 0 .504-.064.956-.192 1.356-.128.4-.308.74-.54 1.02-.232.272-.512.48-.84.624a2.719 2.719 0 0 1-1.104.216Zm0-.612c.6 0 1.072-.188 1.416-.564.352-.376.528-.928.528-1.656v-.768c0-.72-.176-1.268-.528-1.644-.344-.384-.816-.576-1.416-.576s-1.076.188-1.428.564c-.344.376-.516.928-.516 1.656v.768c0 .72.172 1.272.516 1.656.352.376.828.564 1.428.564Zm8.397.468c-.264 0-.456-.068-.576-.204-.12-.136-.188-.32-.204-.552v-.216h-.06a1.68 1.68 0 0 1-.672.816c-.312.2-.708.3-1.188.3-.648 0-1.148-.156-1.5-.468-.352-.32-.528-.768-.528-1.344 0-.544.192-.976.576-1.296.392-.32 1.032-.48 1.92-.48h1.416v-.72c0-1.016-.524-1.524-1.572-1.524-.408 0-.748.088-1.02.264a1.84 1.84 0 0 0-.66.732l-.432-.36a2.16 2.16 0 0 1 .768-.888c.352-.232.808-.348 1.368-.348.72 0 1.272.18 1.656.54.384.36.576.864.576 1.512v3.636h.828v.6h-.696Zm-2.604-.444c.248 0 .48-.032.696-.096.216-.064.404-.152.564-.264.168-.12.296-.26.384-.42.096-.168.144-.356.144-.564v-1.14h-1.44c-.616 0-1.064.1-1.344.3a.929.929 0 0 0-.408.804v.288c0 .36.128.632.384.816.256.184.596.276 1.02.276Zm8.44-.54h-.036c-.16.344-.396.62-.708.828-.304.2-.692.3-1.164.3-.792 0-1.412-.28-1.86-.84-.448-.56-.672-1.352-.672-2.376 0-1.024.224-1.816.672-2.376.448-.56 1.068-.84 1.86-.84.472 0 .864.104 1.176.312.312.2.544.472.696.816h.036v-3.72h.684V296h-.684v-.984Zm-1.752.516c.24 0 .464-.032.672-.096.216-.064.404-.156.564-.276.16-.128.284-.276.372-.444.096-.176.144-.372.144-.588v-2.436c0-.2-.048-.384-.144-.552a1.277 1.277 0 0 0-.372-.432 1.767 1.767 0 0 0-.564-.276 2.04 2.04 0 0 0-.672-.108c-.616 0-1.096.196-1.44.588-.344.392-.516.92-.516 1.584v.864c0 .664.172 1.192.516 1.584.344.392.824.588 1.44.588Z"/><circle cx="101" cy="292" r="5" fill="#00E599"/><path fill="url(#g)" fill-rule="evenodd" d="M194.279 227.5h59.102l.259-1h-59.604l.243 1Zm-4.614-19h68.624l.259-1h-69.126l.243 1Zm-4.614-19h78.147l.258-1h-78.647l.242 1Zm-85.085-1-.263 1H91v-1h8.966Zm32.913-18h135.227l.258-1H132.736l.143 1Zm-27.923-1-.263 1H90v-1h14.956Zm25.216-18h142.842l.258-1H130.029l.143 1Zm-20.227-1-.262 1H90v-1h19.945Zm17.52-18h150.457l.258-1H127.322l.143 1Zm-12.53-1-.263 1H91v-1h23.935Zm8.756-18c-.965-.583-2.239-.595-3.207 0H91v-1h192.089l-.259 1H123.691Zm284.832 18 .241 1H559v-1H408.523Zm4.576 19 .241 1H558v-1H413.099Zm4.575 19 .241 1H558v-1H417.674Zm4.576 19 .241 1H559v-1H422.25Zm4.575 19 .241 1H558v-1H426.825Zm-22.637-94-.24-1H559v1H404.188Zm-9.151-38H560v-1H394.797l.24 1Zm-9.338-1h-66.927l.217 1h66.303l.407-1Zm-93.053 1 .259-1H92v1h200.646Zm22.233-19H559v-1H314.662l.217 1Zm-17.066-1-.258 1H91v-1h206.813Zm12.956-18H559v-1H310.553l.216 1Zm-8.048-1-.258 1H91v-1h211.721Zm-207.745 171-.262 1H90v-1h4.976Z" clip-rule="evenodd" opacity=".5" style="mix-blend-mode:overlay"/><path stroke="url(#h)" stroke-dasharray="4 5" d="M91 93h473"/><path stroke="url(#i)" stroke-dasharray="4 5" d="M91 93h473" style="mix-blend-mode:plus-lighter"/></g><defs><linearGradient id="b" x1="295" x2="295" y1="0" y2="332" gradientUnits="userSpaceOnUse"><stop offset=".381" stop-color="#131415"/><stop offset="1" stop-color="#131415" stop-opacity=".45"/></linearGradient><linearGradient id="c" x1="322.943" x2="322.943" y1="20" y2="241.22" gradientUnits="userSpaceOnUse"><stop offset=".73" stop-color="#D9D9D9"/><stop offset=".949" stop-color="#D9D9D9" stop-opacity=".3"/><stop offset="1" stop-color="#D9D9D9" stop-opacity="0"/></linearGradient><linearGradient id="e" x1="86" x2="560" y1="20.219" y2="20.219" gradientUnits="userSpaceOnUse"><stop stop-color="#ADE0EB" stop-opacity="0"/><stop offset="0" stop-color="#00E599" stop-opacity="0"/><stop offset=".044" stop-color="#00E599"/><stop offset=".952" stop-color="#00E599"/><stop offset="1" stop-color="#00E599" stop-opacity="0"/></linearGradient><linearGradient id="g" x1="90" x2="560" y1="132" y2="132" gradientUnits="userSpaceOnUse"><stop stop-color="#C9CBCF" stop-opacity="0"/><stop offset=".045" stop-color="#C9CBCF"/><stop offset=".959" stop-color="#C9CBCF"/><stop offset="1" stop-color="#C9CBCF" stop-opacity="0"/></linearGradient><linearGradient id="h" x1="91" x2="564" y1="93.5" y2="93" gradientUnits="userSpaceOnUse"><stop stop-color="#C9CBCF" stop-opacity="0"/><stop offset=".045" stop-color="#C9CBCF"/><stop offset=".959" stop-color="#C9CBCF"/><stop offset="1" stop-color="#C9CBCF" stop-opacity="0"/></linearGradient><linearGradient id="i" x1="91" x2="564" y1="93.5" y2="93" gradientUnits="userSpaceOnUse"><stop stop-color="#C9CBCF" stop-opacity="0"/><stop offset=".045" stop-color="#C9CBCF"/><stop offset=".959" stop-color="#C9CBCF"/><stop offset="1" stop-color="#C9CBCF" stop-opacity="0"/></linearGradient><clipPath id="a"><rect width="590" height="332" fill="white" rx="8"/></clipPath></defs></svg>