<svg width="16" height="16" viewBox="0 0 16 16" fill="none" xmlns="http://www.w3.org/2000/svg">
<g clip-path="url(#clip0_16141_18824)">
<path d="M16 8.04806C15.9998 6.50986 15.5615 5.00393 14.7371 3.70856C13.9127 2.41319 12.7366 1.38262 11.3481 0.738859C9.95969 0.0950951 8.41698 -0.134904 6.90265 0.0760897C5.38831 0.287084 3.96577 0.930235 2.80344 1.9294C1.6411 2.92857 0.787643 4.24192 0.344099 5.71395C-0.099445 7.18599 -0.1145 8.75508 0.300717 10.2355C0.715934 11.7158 1.54403 13.0455 2.68698 14.0671C3.82993 15.0886 5.23986 15.7593 6.74987 15.9997V10.3746H4.72V8.04806H6.75093V6.27453C6.75093 4.25712 7.9456 3.14283 9.77253 3.14283C10.3725 3.15121 10.9711 3.20366 11.5635 3.29979V5.28098H10.5536C10.3817 5.25817 10.2068 5.27454 10.042 5.32887C9.87724 5.38321 9.72669 5.47412 9.60152 5.59489C9.47635 5.71565 9.37975 5.86318 9.31889 6.02657C9.25802 6.18996 9.23443 6.36502 9.24987 6.53882V8.04806H11.4691L11.1141 10.3746H9.24987V15.9997C11.1318 15.7002 12.8457 14.7347 14.0831 13.277C15.3205 11.8193 16.0003 9.9651 16 8.04806Z" fill="currentColor"/>
</g>
<defs>
<clipPath id="clip0_16141_18824">
<rect width="16" height="16" fill="currentColor"/>
</clipPath>
</defs>
</svg>
