<svg width="169" height="760" viewBox="0 0 169 760" fill="none" xmlns="http://www.w3.org/2000/svg">
<g filter="url(#filter0_f_10508_18686)">
<path d="M85 40L85 720" stroke="url(#paint0_linear_10508_18686)" stroke-width="10"/>
</g>
<path fill-rule="evenodd" clip-rule="evenodd" d="M81 410L81 720H89L89 410H81ZM81 350H89L89 40H81L81 350Z" fill="url(#paint1_linear_10508_18686)"/>
<rect x="1" y="359" width="167" height="42" rx="21" fill="#1A1A1A" stroke="white" stroke-width="2"/>
<path d="M21.258 387L18.162 377.55H20.79L21.96 381.366L22.842 384.786H22.986L23.868 381.366L25.002 377.55H27.522L24.426 387H21.258ZM32.7289 387.216C32.0089 387.216 31.3669 387.102 30.8029 386.874C30.2389 386.634 29.7589 386.304 29.3629 385.884C28.9789 385.452 28.6849 384.93 28.4809 384.318C28.2889 383.706 28.1929 383.022 28.1929 382.266C28.1929 381.522 28.2889 380.85 28.4809 380.25C28.6729 379.638 28.9549 379.116 29.3269 378.684C29.7109 378.252 30.1789 377.922 30.7309 377.694C31.2829 377.454 31.9129 377.334 32.6209 377.334C33.4009 377.334 34.0669 377.466 34.6189 377.73C35.1829 377.994 35.6389 378.348 35.9869 378.792C36.3469 379.236 36.6049 379.752 36.7609 380.34C36.9289 380.916 37.0129 381.522 37.0129 382.158V382.95H30.9469V383.094C30.9469 383.718 31.1149 384.216 31.4509 384.588C31.7869 384.948 32.3149 385.128 33.0349 385.128C33.5869 385.128 34.0369 385.02 34.3849 384.804C34.7329 384.576 35.0569 384.306 35.3569 383.994L36.6889 385.65C36.2689 386.142 35.7169 386.526 35.0329 386.802C34.3609 387.078 33.5929 387.216 32.7289 387.216ZM32.6749 379.296C32.1349 379.296 31.7089 379.476 31.3969 379.836C31.0969 380.184 30.9469 380.652 30.9469 381.24V381.384H34.2589V381.222C34.2589 380.646 34.1269 380.184 33.8629 379.836C33.6109 379.476 33.2149 379.296 32.6749 379.296ZM38.8943 387V377.55H41.5583V379.602H41.6483C41.6963 379.338 41.7803 379.086 41.9003 378.846C42.0203 378.594 42.1763 378.372 42.3683 378.18C42.5723 377.988 42.8123 377.838 43.0883 377.73C43.3643 377.61 43.6883 377.55 44.0603 377.55H44.5283V380.034H43.8623C43.0823 380.034 42.5003 380.136 42.1163 380.34C41.7443 380.544 41.5583 380.922 41.5583 381.474V387H38.8943ZM49.8998 387.216C49.1918 387.216 48.5618 387.102 48.0098 386.874C47.4578 386.634 46.9958 386.304 46.6238 385.884C46.2518 385.452 45.9698 384.93 45.7778 384.318C45.5858 383.706 45.4898 383.022 45.4898 382.266C45.4898 381.51 45.5858 380.832 45.7778 380.232C45.9698 379.62 46.2518 379.098 46.6238 378.666C46.9958 378.234 47.4578 377.904 48.0098 377.676C48.5618 377.448 49.1918 377.334 49.8998 377.334C50.8598 377.334 51.6578 377.55 52.2938 377.982C52.9418 378.414 53.4038 379.02 53.6798 379.8L51.5198 380.736C51.4358 380.376 51.2618 380.07 50.9978 379.818C50.7338 379.566 50.3678 379.44 49.8998 379.44C49.3598 379.44 48.9518 379.62 48.6758 379.98C48.3998 380.328 48.2618 380.802 48.2618 381.402V383.166C48.2618 383.766 48.3998 384.24 48.6758 384.588C48.9518 384.936 49.3598 385.11 49.8998 385.11C50.3798 385.11 50.7578 384.984 51.0338 384.732C51.3218 384.468 51.5318 384.126 51.6638 383.706L53.7338 384.606C53.4218 385.506 52.9358 386.166 52.2758 386.586C51.6278 387.006 50.8358 387.216 49.8998 387.216ZM59.2367 387.216C58.5167 387.216 57.8747 387.102 57.3107 386.874C56.7467 386.634 56.2667 386.304 55.8707 385.884C55.4867 385.452 55.1927 384.93 54.9887 384.318C54.7967 383.706 54.7007 383.022 54.7007 382.266C54.7007 381.522 54.7967 380.85 54.9887 380.25C55.1807 379.638 55.4627 379.116 55.8347 378.684C56.2187 378.252 56.6867 377.922 57.2387 377.694C57.7907 377.454 58.4207 377.334 59.1287 377.334C59.9087 377.334 60.5747 377.466 61.1267 377.73C61.6907 377.994 62.1467 378.348 62.4947 378.792C62.8547 379.236 63.1127 379.752 63.2687 380.34C63.4367 380.916 63.5207 381.522 63.5207 382.158V382.95H57.4547V383.094C57.4547 383.718 57.6227 384.216 57.9587 384.588C58.2947 384.948 58.8227 385.128 59.5427 385.128C60.0947 385.128 60.5447 385.02 60.8927 384.804C61.2407 384.576 61.5647 384.306 61.8647 383.994L63.1967 385.65C62.7767 386.142 62.2247 386.526 61.5407 386.802C60.8687 387.078 60.1007 387.216 59.2367 387.216ZM59.1827 379.296C58.6427 379.296 58.2167 379.476 57.9047 379.836C57.6047 380.184 57.4547 380.652 57.4547 381.24V381.384H60.7667V381.222C60.7667 380.646 60.6347 380.184 60.3707 379.836C60.1187 379.476 59.7227 379.296 59.1827 379.296ZM68.0482 387C67.1362 387 66.4642 386.778 66.0322 386.334C65.6122 385.89 65.4022 385.248 65.4022 384.408V373.68H68.0662V384.93H69.2542V387H68.0482ZM70.3876 382.806V380.214H75.7336V382.806H70.3876ZM86.0894 376.794H80.3834L80.1134 380.772H80.2574C80.3774 380.472 80.5094 380.202 80.6534 379.962C80.8094 379.71 80.9894 379.5 81.1934 379.332C81.3974 379.152 81.6434 379.014 81.9314 378.918C82.2194 378.822 82.5614 378.774 82.9574 378.774C83.4974 378.774 84.0014 378.864 84.4694 379.044C84.9374 379.224 85.3454 379.488 85.6934 379.836C86.0414 380.172 86.3174 380.592 86.5214 381.096C86.7254 381.588 86.8274 382.146 86.8274 382.77C86.8274 383.406 86.7194 384 86.5034 384.552C86.2994 385.092 85.9874 385.56 85.5674 385.956C85.1594 386.352 84.6554 386.664 84.0554 386.892C83.4554 387.108 82.7714 387.216 82.0034 387.216C81.3914 387.216 80.8514 387.15 80.3834 387.018C79.9154 386.886 79.5014 386.712 79.1414 386.496C78.7814 386.268 78.4694 386.01 78.2054 385.722C77.9414 385.434 77.7134 385.128 77.5214 384.804L79.4834 383.256C79.7594 383.748 80.0894 384.168 80.4734 384.516C80.8574 384.852 81.3734 385.02 82.0214 385.02C82.6694 385.02 83.1554 384.834 83.4794 384.462C83.8154 384.09 83.9834 383.598 83.9834 382.986V382.842C83.9834 382.266 83.8154 381.81 83.4794 381.474C83.1434 381.138 82.6814 380.97 82.0934 380.97C81.6014 380.97 81.1934 381.072 80.8694 381.276C80.5574 381.468 80.3174 381.66 80.1494 381.852L77.9354 381.546L78.4034 374.436H86.0894V376.794ZM96.8823 376.794H91.1763L90.9063 380.772H91.0503C91.1703 380.472 91.3023 380.202 91.4463 379.962C91.6023 379.71 91.7823 379.5 91.9863 379.332C92.1903 379.152 92.4363 379.014 92.7243 378.918C93.0123 378.822 93.3543 378.774 93.7503 378.774C94.2903 378.774 94.7943 378.864 95.2623 379.044C95.7303 379.224 96.1383 379.488 96.4863 379.836C96.8343 380.172 97.1103 380.592 97.3143 381.096C97.5183 381.588 97.6203 382.146 97.6203 382.77C97.6203 383.406 97.5123 384 97.2963 384.552C97.0923 385.092 96.7803 385.56 96.3603 385.956C95.9523 386.352 95.4483 386.664 94.8483 386.892C94.2483 387.108 93.5643 387.216 92.7963 387.216C92.1843 387.216 91.6443 387.15 91.1763 387.018C90.7083 386.886 90.2943 386.712 89.9343 386.496C89.5743 386.268 89.2623 386.01 88.9983 385.722C88.7343 385.434 88.5063 385.128 88.3143 384.804L90.2763 383.256C90.5523 383.748 90.8823 384.168 91.2663 384.516C91.6503 384.852 92.1663 385.02 92.8143 385.02C93.4623 385.02 93.9483 384.834 94.2723 384.462C94.6083 384.09 94.7763 383.598 94.7763 382.986V382.842C94.7763 382.266 94.6083 381.81 94.2723 381.474C93.9363 381.138 93.4743 380.97 92.8863 380.97C92.3943 380.97 91.9863 381.072 91.6623 381.276C91.3503 381.468 91.1103 381.66 90.9423 381.852L88.7283 381.546L89.1963 374.436H96.8823V376.794ZM98.9813 387V384.894L103.679 379.62H99.1433V377.55H106.775V379.638L102.059 384.93H106.901V387H98.9813ZM117.64 379.206C117.64 380.094 117.502 380.928 117.226 381.708C116.962 382.488 116.614 383.214 116.182 383.886C115.762 384.546 115.282 385.14 114.742 385.668C114.214 386.196 113.68 386.64 113.14 387H109.414C110.182 386.448 110.872 385.926 111.484 385.434C112.096 384.93 112.624 384.426 113.068 383.922C113.524 383.418 113.896 382.908 114.184 382.392C114.472 381.864 114.682 381.3 114.814 380.7L114.652 380.646C114.544 380.886 114.412 381.12 114.256 381.348C114.112 381.576 113.926 381.78 113.698 381.96C113.482 382.128 113.224 382.266 112.924 382.374C112.624 382.482 112.276 382.536 111.88 382.536C111.364 382.536 110.878 382.446 110.422 382.266C109.978 382.074 109.588 381.81 109.252 381.474C108.928 381.138 108.67 380.73 108.478 380.25C108.298 379.77 108.208 379.23 108.208 378.63C108.208 377.982 108.316 377.388 108.532 376.848C108.76 376.308 109.078 375.846 109.486 375.462C109.906 375.066 110.404 374.76 110.98 374.544C111.556 374.328 112.204 374.22 112.924 374.22C113.668 374.22 114.334 374.34 114.922 374.58C115.51 374.808 116.002 375.144 116.398 375.588C116.806 376.02 117.112 376.542 117.316 377.154C117.532 377.766 117.64 378.45 117.64 379.206ZM112.924 380.466C113.524 380.466 113.992 380.304 114.328 379.98C114.664 379.644 114.832 379.17 114.832 378.558V378.234C114.832 377.622 114.664 377.154 114.328 376.83C113.992 376.494 113.524 376.326 112.924 376.326C112.324 376.326 111.856 376.494 111.52 376.83C111.184 377.154 111.016 377.622 111.016 378.234V378.558C111.016 379.17 111.184 379.644 111.52 379.98C111.856 380.304 112.324 380.466 112.924 380.466ZM124.455 387V384.588H118.929V382.284L123.825 374.436H127.029V382.5H128.613V384.588H127.029V387H124.455ZM121.089 382.5H124.455V377.226H124.275L121.089 382.5ZM134.366 387.216C133.646 387.216 133.004 387.102 132.44 386.874C131.876 386.634 131.396 386.304 131 385.884C130.616 385.452 130.322 384.93 130.118 384.318C129.926 383.706 129.83 383.022 129.83 382.266C129.83 381.522 129.926 380.85 130.118 380.25C130.31 379.638 130.592 379.116 130.964 378.684C131.348 378.252 131.816 377.922 132.368 377.694C132.92 377.454 133.55 377.334 134.258 377.334C135.038 377.334 135.704 377.466 136.256 377.73C136.82 377.994 137.276 378.348 137.624 378.792C137.984 379.236 138.242 379.752 138.398 380.34C138.566 380.916 138.65 381.522 138.65 382.158V382.95H132.584V383.094C132.584 383.718 132.752 384.216 133.088 384.588C133.424 384.948 133.952 385.128 134.672 385.128C135.224 385.128 135.674 385.02 136.022 384.804C136.37 384.576 136.694 384.306 136.994 383.994L138.326 385.65C137.906 386.142 137.354 386.526 136.67 386.802C135.998 387.078 135.23 387.216 134.366 387.216ZM134.312 379.296C133.772 379.296 133.346 379.476 133.034 379.836C132.734 380.184 132.584 380.652 132.584 381.24V381.384H135.896V381.222C135.896 380.646 135.764 380.184 135.5 379.836C135.248 379.476 134.852 379.296 134.312 379.296ZM146.327 385.416H146.237C146.165 385.668 146.051 385.908 145.895 386.136C145.739 386.352 145.547 386.544 145.319 386.712C145.103 386.868 144.851 386.988 144.563 387.072C144.287 387.168 143.999 387.216 143.699 387.216C142.499 387.216 141.593 386.796 140.981 385.956C140.369 385.104 140.063 383.874 140.063 382.266C140.063 380.658 140.369 379.434 140.981 378.594C141.593 377.754 142.499 377.334 143.699 377.334C144.311 377.334 144.851 377.502 145.319 377.838C145.799 378.174 146.105 378.606 146.237 379.134H146.327V377.55H148.991V390.6H146.327V385.416ZM144.581 385.056C145.085 385.056 145.499 384.936 145.823 384.696C146.159 384.444 146.327 384.102 146.327 383.67V380.88C146.327 380.448 146.159 380.112 145.823 379.872C145.499 379.62 145.085 379.494 144.581 379.494C144.077 379.494 143.657 379.674 143.321 380.034C142.997 380.382 142.835 380.856 142.835 381.456V383.094C142.835 383.694 142.997 384.174 143.321 384.534C143.657 384.882 144.077 385.056 144.581 385.056Z" fill="white"/>
<defs>
<filter id="filter0_f_10508_18686" x="40" y="0" width="90" height="760" filterUnits="userSpaceOnUse" color-interpolation-filters="sRGB">
<feFlood flood-opacity="0" result="BackgroundImageFix"/>
<feBlend mode="normal" in="SourceGraphic" in2="BackgroundImageFix" result="shape"/>
<feGaussianBlur stdDeviation="20" result="effect1_foregroundBlur_10508_18686"/>
</filter>
<linearGradient id="paint0_linear_10508_18686" x1="85.5" y1="40" x2="85.5" y2="720" gradientUnits="userSpaceOnUse">
<stop offset="0.0882353" stop-color="#00E599" stop-opacity="0"/>
<stop offset="0.455882" stop-color="#00E599"/>
<stop offset="0.911765" stop-color="#00E599" stop-opacity="0"/>
</linearGradient>
<linearGradient id="paint1_linear_10508_18686" x1="85" y1="40" x2="85" y2="720" gradientUnits="userSpaceOnUse">
<stop offset="0.0882353" stop-color="#00E599" stop-opacity="0"/>
<stop offset="0.455882" stop-color="#00E599"/>
<stop offset="0.911765" stop-color="#00E599" stop-opacity="0"/>
</linearGradient>
</defs>
</svg>
