<svg width="14" height="15" viewBox="0 0 14 15" fill="none" xmlns="http://www.w3.org/2000/svg">
<g clip-path="url(#clip0_14630_108184)">
<path fill-rule="evenodd" clip-rule="evenodd" d="M1.70078 7.50407C1.70078 4.5773 4.07339 2.20469 7.00016 2.20469C9.92692 2.20469 12.2995 4.5773 12.2995 7.50407C12.2995 10.4308 9.92692 12.8034 7.00016 12.8034C4.07339 12.8034 1.70078 10.4308 1.70078 7.50407ZM7.00016 0.804688C3.30019 0.804688 0.300781 3.8041 0.300781 7.50407C0.300781 11.204 3.30019 14.2034 7.00016 14.2034C10.7001 14.2034 13.6995 11.204 13.6995 7.50407C13.6995 3.8041 10.7001 0.804688 7.00016 0.804688ZM7.7 4.23438C7.7 3.84778 7.3866 3.53437 7 3.53437C6.6134 3.53437 6.3 3.84778 6.3 4.23438V7.49747C6.3 7.88407 6.6134 8.19747 7 8.19747H10.2631C10.6497 8.19747 10.9631 7.88407 10.9631 7.49747C10.9631 7.11087 10.6497 6.79747 10.2631 6.79747H7.7V4.23438Z" fill="currentColor"/>
</g>
<defs>
<clipPath id="clip0_14630_108184">
<rect width="14" height="14" fill="white" transform="translate(0 0.5)"/>
</clipPath>
</defs>
</svg>
