<svg width="16" height="16" viewBox="0 0 16 16" fill="none" xmlns="http://www.w3.org/2000/svg">
<path d="M8.0026 2C4.3206 2 1.33594 4.686 1.33594 8C1.33594 9.22867 1.74794 10.3707 2.4526 11.322L1.6366 14.366L5.16127 13.4213C6.02394 13.7887 6.9846 14 8.0026 14C11.6846 14 14.6693 11.314 14.6693 8C14.6693 4.686 11.6846 2 8.0026 2Z" stroke="currentColor" stroke-width="1.33333" stroke-miterlimit="10" stroke-linecap="square"/>
<path d="M8 8.33203V5.33203" stroke="currentColor" stroke-width="1.33333" stroke-miterlimit="10" stroke-linecap="square"/>
<path d="M8.00521 11.6667C8.46545 11.6667 8.83854 11.2936 8.83854 10.8333C8.83854 10.3731 8.46545 10 8.00521 10C7.54497 10 7.17188 10.3731 7.17188 10.8333C7.17188 11.2936 7.54497 11.6667 8.00521 11.6667Z" fill="currentColor"/>
</svg>
