<svg width="14" height="15" viewBox="0 0 14 15" fill="none" xmlns="http://www.w3.org/2000/svg">
<g clip-path="url(#clip0_1574_2813)">
<mask id="path-1-inside-1_1574_2813" fill="white">
<path fill-rule="evenodd" clip-rule="evenodd" d="M-0.00131226 7.00372C-0.00131226 3.61711 3.28691 1.2616 6.99993 1.2616C10.713 1.2616 14.0012 3.61711 14.0012 7.00372V7.0109H14.0011C13.9938 7.73035 13.8397 8.44074 13.5483 9.09857C13.4066 9.41842 13.2339 9.72258 13.0332 10.0069C12.7283 10.4387 12.57 10.8542 12.5965 11.2303L12.6826 12.4538C12.7451 13.3415 11.8534 13.9861 11.03 13.6482L9.09321 12.8534C8.84953 12.7534 8.55703 12.7279 8.23816 12.7762C7.82964 12.838 7.41686 12.87 7.00307 12.8719L6.99993 12.8719C3.26256 12.8719 -0.00131226 10.3707 -0.00131226 7.00372ZM6.99993 2.6616C3.73958 2.6616 1.39869 4.67593 1.39869 7.00372C1.39869 9.35076 3.76312 11.4712 6.99828 11.4719C7.34348 11.4703 7.68784 11.4435 8.02864 11.3919C8.53636 11.3151 9.09496 11.3409 9.62469 11.5582L11.2635 12.2307L11.1999 11.3287C11.1413 10.4955 11.4952 9.7579 11.8895 9.19943C12.0371 8.9904 12.1641 8.76677 12.2682 8.53159C12.482 8.04901 12.5953 7.52796 12.6012 7.00019C12.5988 4.67389 10.2586 2.6616 6.99993 2.6616Z"/>
</mask>
<path fill-rule="evenodd" clip-rule="evenodd" d="M-0.00131226 7.00372C-0.00131226 3.61711 3.28691 1.2616 6.99993 1.2616C10.713 1.2616 14.0012 3.61711 14.0012 7.00372V7.0109H14.0011C13.9938 7.73035 13.8397 8.44074 13.5483 9.09857C13.4066 9.41842 13.2339 9.72258 13.0332 10.0069C12.7283 10.4387 12.57 10.8542 12.5965 11.2303L12.6826 12.4538C12.7451 13.3415 11.8534 13.9861 11.03 13.6482L9.09321 12.8534C8.84953 12.7534 8.55703 12.7279 8.23816 12.7762C7.82964 12.838 7.41686 12.87 7.00307 12.8719L6.99993 12.8719C3.26256 12.8719 -0.00131226 10.3707 -0.00131226 7.00372ZM6.99993 2.6616C3.73958 2.6616 1.39869 4.67593 1.39869 7.00372C1.39869 9.35076 3.76312 11.4712 6.99828 11.4719C7.34348 11.4703 7.68784 11.4435 8.02864 11.3919C8.53636 11.3151 9.09496 11.3409 9.62469 11.5582L11.2635 12.2307L11.1999 11.3287C11.1413 10.4955 11.4952 9.7579 11.8895 9.19943C12.0371 8.9904 12.1641 8.76677 12.2682 8.53159C12.482 8.04901 12.5953 7.52796 12.6012 7.00019C12.5988 4.67389 10.2586 2.6616 6.99993 2.6616Z" fill="currentColor"/>
<path d="M14.0012 7.0109V8.0109H15.0012V7.0109H14.0012ZM14.0011 7.0109V6.0109H13.0113L13.0012 7.00065L14.0011 7.0109ZM13.5483 9.09857L12.634 8.69358L13.5483 9.09857ZM13.0332 10.0069L13.8501 10.5836V10.5836L13.0332 10.0069ZM12.5965 11.2303L13.594 11.1601V11.1601L12.5965 11.2303ZM12.6826 12.4538L13.6802 12.3835L12.6826 12.4538ZM11.03 13.6482L11.4097 12.7231H11.4097L11.03 13.6482ZM9.09321 12.8534L8.71358 13.7786H8.71358L9.09321 12.8534ZM8.23816 12.7762L8.38781 13.7649L8.38781 13.7649L8.23816 12.7762ZM7.00307 12.8719L7.0052 13.8719L7.00756 13.8719L7.00307 12.8719ZM6.99993 12.8719V13.8719L7.00206 13.8719L6.99993 12.8719ZM6.99828 11.4719L6.99806 12.4719L7.00298 12.4719L6.99828 11.4719ZM8.02864 11.3919L7.87899 10.4032H7.87899L8.02864 11.3919ZM9.62469 11.5582L10.0043 10.6331H10.0043L9.62469 11.5582ZM11.2635 12.2307L10.8838 13.1558L12.3741 13.7674L12.261 12.1605L11.2635 12.2307ZM11.1999 11.3287L10.2024 11.3989L10.2024 11.3989L11.1999 11.3287ZM11.8895 9.19943L12.7065 9.77618L12.7065 9.77618L11.8895 9.19943ZM12.2682 8.53159L11.3539 8.1266L12.2682 8.53159ZM12.6012 7.00019L13.6012 7.01137L13.6012 6.99917L12.6012 7.00019ZM6.99993 0.261597C2.97107 0.261597 -1.00131 2.85489 -1.00131 7.00372H0.998688C0.998688 4.37933 3.60274 2.2616 6.99993 2.2616V0.261597ZM15.0012 7.00372C15.0012 2.85489 11.0288 0.261597 6.99993 0.261597V2.2616C10.3971 2.2616 13.0012 4.37933 13.0012 7.00372H15.0012ZM15.0012 7.0109V7.00372H13.0012V7.0109H15.0012ZM14.0011 8.0109H14.0012V6.0109H14.0011V8.0109ZM14.4626 9.50356C14.8091 8.72134 14.9923 7.87663 15.0011 7.02115L13.0012 7.00065C12.9952 7.58407 12.8703 8.16014 12.634 8.69358L14.4626 9.50356ZM13.8501 10.5836C14.0888 10.2456 14.2942 9.88389 14.4626 9.50356L12.634 8.69358C12.5191 8.95296 12.3791 9.19959 12.2163 9.43013L13.8501 10.5836ZM13.594 11.1601C13.5905 11.1098 13.6096 10.9243 13.8501 10.5836L12.2163 9.43013C11.847 9.95317 11.5495 10.5986 11.599 11.3006L13.594 11.1601ZM13.6802 12.3835L13.594 11.1601L11.599 11.3006L11.6851 12.524L13.6802 12.3835ZM10.6504 14.5733C12.1599 15.1928 13.7948 14.0111 13.6802 12.3835L11.6851 12.524C11.6955 12.672 11.5469 12.7794 11.4097 12.7231L10.6504 14.5733ZM8.71358 13.7786L10.6504 14.5733L11.4097 12.7231L9.47284 11.9283L8.71358 13.7786ZM8.38781 13.7649C8.57137 13.7371 8.6739 13.7623 8.71358 13.7786L9.47284 11.9283C9.02516 11.7446 8.54269 11.7187 8.0885 11.7874L8.38781 13.7649ZM7.00756 13.8719C7.46998 13.8698 7.93128 13.834 8.38781 13.7649L8.0885 11.7874C7.728 11.842 7.36373 11.8703 6.99858 11.8719L7.00756 13.8719ZM7.00206 13.8719L7.0052 13.8719L7.00095 11.8719L6.99781 11.8719L7.00206 13.8719ZM-1.00131 7.00372C-1.00131 11.1041 2.91081 13.8719 6.99993 13.8719V11.8719C3.61432 11.8719 0.998688 9.63726 0.998688 7.00372H-1.00131ZM2.39869 7.00372C2.39869 5.42456 4.07254 3.6616 6.99993 3.6616V1.6616C3.40662 1.6616 0.398688 3.92729 0.398688 7.00372H2.39869ZM6.99851 10.4719C4.12954 10.4713 2.39869 8.62933 2.39869 7.00372H0.398688C0.398688 10.0722 3.3967 12.4711 6.99806 12.4719L6.99851 10.4719ZM7.87899 10.4032C7.58613 10.4475 7.29022 10.4705 6.99358 10.4719L7.00298 12.4719C7.39674 12.47 7.78955 12.4395 8.1783 12.3807L7.87899 10.4032ZM10.0043 10.6331C9.27009 10.3318 8.52136 10.306 7.87899 10.4032L8.1783 12.3807C8.55135 12.3242 8.91983 12.3499 9.24506 12.4834L10.0043 10.6331ZM11.6431 11.3056L10.0043 10.6331L9.24506 12.4834L10.8838 13.1558L11.6431 11.3056ZM10.2024 11.3989L10.2659 12.3009L12.261 12.1605L12.1975 11.2584L10.2024 11.3989ZM11.0726 8.62268C10.6148 9.27116 10.1208 10.239 10.2024 11.3989L12.1975 11.2584C12.1618 10.7521 12.3757 10.2446 12.7065 9.77618L11.0726 8.62268ZM11.3539 8.1266C11.2765 8.3013 11.1822 8.46741 11.0726 8.62268L12.7065 9.77618C12.892 9.51339 13.0516 9.23224 13.1826 8.93658L11.3539 8.1266ZM11.6012 6.989C11.5969 7.38106 11.5127 7.76813 11.3539 8.1266L13.1826 8.93658C13.4513 8.32989 13.5937 7.67485 13.6011 7.01137L11.6012 6.989ZM6.99993 3.6616C9.92571 3.6616 11.5996 5.42282 11.6012 7.0012L13.6012 6.99917C13.598 3.92495 10.5916 1.6616 6.99993 1.6616V3.6616Z" fill="currentColor" mask="url(#path-1-inside-1_1574_2813)"/>
<mask id="path-3-inside-2_1574_2813" fill="white">
<path fill-rule="evenodd" clip-rule="evenodd" d="M7.69902 4.37273C7.69902 3.98613 7.38562 3.67273 6.99902 3.67273C6.61242 3.67273 6.29902 3.98613 6.29902 4.37273V7.81947C6.29902 8.20607 6.61242 8.51947 6.99902 8.51947C7.38562 8.51947 7.69902 8.20607 7.69902 7.81947V4.37273ZM7.77637 9.88445C7.77637 10.3138 7.42834 10.6618 6.99902 10.6618C6.56971 10.6618 6.22168 10.3138 6.22168 9.88445C6.22168 9.45513 6.56971 9.1071 6.99902 9.1071C7.42834 9.1071 7.77637 9.45513 7.77637 9.88445Z"/>
</mask>
<path fill-rule="evenodd" clip-rule="evenodd" d="M7.69902 4.37273C7.69902 3.98613 7.38562 3.67273 6.99902 3.67273C6.61242 3.67273 6.29902 3.98613 6.29902 4.37273V7.81947C6.29902 8.20607 6.61242 8.51947 6.99902 8.51947C7.38562 8.51947 7.69902 8.20607 7.69902 7.81947V4.37273ZM7.77637 9.88445C7.77637 10.3138 7.42834 10.6618 6.99902 10.6618C6.56971 10.6618 6.22168 10.3138 6.22168 9.88445C6.22168 9.45513 6.56971 9.1071 6.99902 9.1071C7.42834 9.1071 7.77637 9.45513 7.77637 9.88445Z" fill="currentColor"/>
<path d="M6.99902 4.67273C6.83334 4.67273 6.69902 4.53842 6.69902 4.37273H8.69902C8.69902 3.43385 7.93791 2.67273 6.99902 2.67273V4.67273ZM7.29902 4.37273C7.29902 4.53841 7.16471 4.67273 6.99902 4.67273V2.67273C6.06014 2.67273 5.29902 3.43385 5.29902 4.37273H7.29902ZM7.29902 7.81947V4.37273H5.29902V7.81947H7.29902ZM6.99902 7.51947C7.16471 7.51947 7.29902 7.65379 7.29902 7.81947H5.29902C5.29902 8.75836 6.06014 9.51947 6.99902 9.51947V7.51947ZM6.69902 7.81947C6.69902 7.65379 6.83334 7.51947 6.99902 7.51947V9.51947C7.93791 9.51947 8.69902 8.75836 8.69902 7.81947H6.69902ZM6.69902 4.37273V7.81947H8.69902V4.37273H6.69902ZM6.99902 11.6618C7.98062 11.6618 8.77637 10.866 8.77637 9.88445H6.77637C6.77637 9.76148 6.87605 9.66179 6.99902 9.66179V11.6618ZM5.22168 9.88445C5.22168 10.866 6.01742 11.6618 6.99902 11.6618V9.66179C7.12199 9.66179 7.22168 9.76148 7.22168 9.88445H5.22168ZM6.99902 8.1071C6.01742 8.1071 5.22168 8.90285 5.22168 9.88445H7.22168C7.22168 10.0074 7.12199 10.1071 6.99902 10.1071V8.1071ZM8.77637 9.88445C8.77637 8.90285 7.98062 8.1071 6.99902 8.1071V10.1071C6.87605 10.1071 6.77637 10.0074 6.77637 9.88445H8.77637Z" fill="currentColor" mask="url(#path-3-inside-2_1574_2813)"/>
</g>
<defs>
<clipPath id="clip0_1574_2813">
<rect width="14" height="14" fill="white" transform="translate(0 0.5)"/>
</clipPath>
</defs>
</svg>
