<svg width="14" height="15" viewBox="0 0 14 15" fill="none" xmlns="http://www.w3.org/2000/svg">
<g clip-path="url(#clip0_1574_2789)">
<path fill-rule="evenodd" clip-rule="evenodd" d="M1.69977 2.70024C1.69977 2.42413 1.92361 2.20029 2.19972 2.20029H11.7993C12.0754 2.20029 12.2993 2.42413 12.2993 2.70024V12.2998C12.2993 12.576 12.0754 12.7998 11.7993 12.7998H2.19972C1.92361 12.7998 1.69977 12.576 1.69977 12.2998V2.70024ZM2.19972 0.800293C1.15041 0.800293 0.299774 1.65093 0.299774 2.70024V12.2998C0.299774 13.3492 1.15041 14.1998 2.19972 14.1998H11.7993C12.8486 14.1998 13.6993 13.3492 13.6993 12.2998V2.70024C13.6993 1.65093 12.8486 0.800293 11.7993 0.800293H2.19972ZM6.50925 6.61144H5.92091V7.78811H6.50925H6.70535V10.1414V10.7298H7.96834V10.1414V7.39589C7.96834 6.96266 7.61713 6.61144 7.18389 6.61144H6.50925ZM8.07814 5.04255C8.07814 5.47579 7.72694 5.827 7.29369 5.827C6.86046 5.827 6.50925 5.47579 6.50925 5.04255C6.50925 4.60932 6.86046 4.25811 7.29369 4.25811C7.72694 4.25811 8.07814 4.60932 8.07814 5.04255Z" fill="currentColor"/>
</g>
<defs>
<clipPath id="clip0_1574_2789">
<rect width="14" height="14" fill="white" transform="translate(0 0.5)"/>
</clipPath>
</defs>
</svg>
