<svg width="14" height="15" viewBox="0 0 14 15" fill="none" xmlns="http://www.w3.org/2000/svg">
<g clip-path="url(#clip0_1574_2768)">
<path fill-rule="evenodd" clip-rule="evenodd" d="M1.69721 7.49668C1.69721 4.56826 4.07116 2.19431 6.99958 2.19431C9.928 2.19431 12.3019 4.56826 12.3019 7.49668C12.3019 10.4251 9.928 12.799 6.99958 12.799C4.07116 12.799 1.69721 10.4251 1.69721 7.49668ZM6.99958 0.794312C3.29796 0.794312 0.297211 3.79506 0.297211 7.49668C0.297211 11.1983 3.29796 14.199 6.99958 14.199C10.7012 14.199 13.7019 11.1983 13.7019 7.49668C13.7019 3.79506 10.7012 0.794312 6.99958 0.794312ZM6.99977 4.0084C7.38637 4.0084 7.69977 4.3218 7.69977 4.7084V8.15514C7.69977 8.54174 7.38637 8.85514 6.99977 8.85514C6.61317 8.85514 6.29977 8.54174 6.29977 8.15514V4.7084C6.29977 4.3218 6.61317 4.0084 6.99977 4.0084ZM6.99977 10.9975C7.42909 10.9975 7.77712 10.6494 7.77712 10.2201C7.77712 9.7908 7.42909 9.44277 6.99977 9.44277C6.57046 9.44277 6.22243 9.7908 6.22243 10.2201C6.22243 10.6494 6.57046 10.9975 6.99977 10.9975Z" fill="currentColor"/>
</g>
<defs>
<clipPath id="clip0_1574_2768">
<rect width="14" height="14" fill="white" transform="translate(0 0.5)"/>
</clipPath>
</defs>
</svg>
