<svg width="14" height="15" viewBox="0 0 14 15" fill="none" xmlns="http://www.w3.org/2000/svg">
<g clip-path="url(#clip0_1574_2780)">
<path fill-rule="evenodd" clip-rule="evenodd" d="M7.00177 0.50061C4.10276 0.50061 1.76581 2.87405 1.76581 5.78608C1.76581 7.4445 2.52419 8.9248 3.7092 9.89278C4.26938 10.3504 4.60079 10.8727 4.60079 11.3771V11.8361C4.60079 12.2226 4.91419 12.536 5.30079 12.536H8.70276C9.08936 12.536 9.40276 12.2226 9.40276 11.8361V11.3771C9.40276 10.8727 9.73417 10.3504 10.2943 9.89278C11.4794 8.9248 12.2377 7.4445 12.2377 5.78608C12.2377 2.87405 9.90079 0.50061 7.00177 0.50061ZM3.16581 5.78608C3.16581 3.63288 4.89025 1.90061 7.00177 1.90061C9.1133 1.90061 10.8377 3.63288 10.8377 5.78608C10.8377 7.009 10.2801 8.09667 9.40868 8.80853C8.76235 9.33649 8.1061 10.1313 8.01379 11.1361H5.98975C5.89745 10.1313 5.2412 9.33649 4.59487 8.80853C3.7234 8.09668 3.16581 7.009 3.16581 5.78608ZM5.30077 13.1032C4.91417 13.1032 4.60077 13.4166 4.60077 13.8032C4.60077 14.1898 4.91417 14.5032 5.30077 14.5032H8.70274C9.08934 14.5032 9.40274 14.1898 9.40274 13.8032C9.40274 13.4166 9.08934 13.1032 8.70274 13.1032H5.30077Z" fill="currentColor"/>
</g>
<defs>
<clipPath id="clip0_1574_2780">
<rect width="14" height="14" fill="white" transform="translate(0 0.5)"/>
</clipPath>
</defs>
</svg>
