<svg width="14" height="15" viewBox="0 0 14 15" fill="none" xmlns="http://www.w3.org/2000/svg">
<g clip-path="url(#clip0_1574_2799)">
<path fill-rule="evenodd" clip-rule="evenodd" d="M7.00009 2.26365C6.94693 2.26365 6.89464 2.27807 6.84875 2.30555C6.80285 2.33303 6.76497 2.37262 6.73935 2.42031L1.43376 12.3007C1.40925 12.3464 1.39692 12.3979 1.39809 12.45C1.39927 12.5021 1.41391 12.5529 1.44044 12.5975C1.46696 12.642 1.50439 12.6786 1.54891 12.704C1.59342 12.7293 1.64357 12.7425 1.6945 12.7426H12.3057C12.3566 12.7425 12.4068 12.7293 12.4513 12.704C12.4958 12.6786 12.5332 12.642 12.5597 12.5975C12.5863 12.5529 12.6009 12.5021 12.6021 12.45C12.6033 12.398 12.591 12.3466 12.5665 12.3009C12.5665 12.3009 12.5665 12.3008 12.5664 12.3007L7.26083 2.42031C7.2352 2.37262 7.19732 2.33303 7.15142 2.30555C7.10553 2.27807 7.05325 2.26365 7.00009 2.26365ZM6.12955 1.1044C6.3926 0.946896 6.69343 0.863647 7.00009 0.863647C7.30675 0.863647 7.60757 0.946897 7.87062 1.1044C8.13366 1.2619 8.34902 1.4877 8.49407 1.75765L8.49416 1.75782L13.8001 11.6388L13.8003 11.6392C13.939 11.898 14.0084 12.1882 14.0017 12.4816C13.9951 12.775 13.9127 13.0619 13.7625 13.314C13.6122 13.5663 13.3991 13.7753 13.1439 13.9206C12.8887 14.0659 12.6001 14.1424 12.3063 14.1426H12.306H1.69418H1.69387C1.40011 14.1424 1.11151 14.0659 0.856269 13.9206C0.601043 13.7753 0.387986 13.5663 0.237722 13.314C0.0874659 13.0619 0.00507546 12.775 -0.00154983 12.4816C-0.00817519 12.1882 0.0611855 11.898 0.199885 11.6392L0.200111 11.6388L5.50602 1.75782L5.5061 1.75765C5.65116 1.4877 5.86652 1.2619 6.12955 1.1044Z" fill="currentColor"/>
<mask id="path-2-inside-1_1574_2799" fill="white">
<path fill-rule="evenodd" clip-rule="evenodd" d="M7.69902 5.78313C7.69902 5.39653 7.38562 5.08313 6.99902 5.08313C6.61242 5.08313 6.29902 5.39653 6.29902 5.78313V9.22987C6.29902 9.61647 6.61242 9.92987 6.99902 9.92987C7.38562 9.92987 7.69902 9.61647 7.69902 9.22987V5.78313ZM7.77637 11.2948C7.77637 11.7242 7.42834 12.0722 6.99902 12.0722C6.56971 12.0722 6.22168 11.7242 6.22168 11.2948C6.22168 10.8655 6.56971 10.5175 6.99902 10.5175C7.42834 10.5175 7.77637 10.8655 7.77637 11.2948Z"/>
</mask>
<path fill-rule="evenodd" clip-rule="evenodd" d="M7.69902 5.78313C7.69902 5.39653 7.38562 5.08313 6.99902 5.08313C6.61242 5.08313 6.29902 5.39653 6.29902 5.78313V9.22987C6.29902 9.61647 6.61242 9.92987 6.99902 9.92987C7.38562 9.92987 7.69902 9.61647 7.69902 9.22987V5.78313ZM7.77637 11.2948C7.77637 11.7242 7.42834 12.0722 6.99902 12.0722C6.56971 12.0722 6.22168 11.7242 6.22168 11.2948C6.22168 10.8655 6.56971 10.5175 6.99902 10.5175C7.42834 10.5175 7.77637 10.8655 7.77637 11.2948Z" fill="currentColor"/>
<path d="M6.99902 6.08313C6.83334 6.08313 6.69902 5.94882 6.69902 5.78313H8.69902C8.69902 4.84425 7.93791 4.08313 6.99902 4.08313V6.08313ZM7.29902 5.78313C7.29902 5.94882 7.16471 6.08313 6.99902 6.08313V4.08313C6.06014 4.08313 5.29902 4.84425 5.29902 5.78313H7.29902ZM7.29902 9.22987V5.78313H5.29902V9.22987H7.29902ZM6.99902 8.92987C7.16471 8.92987 7.29902 9.06419 7.29902 9.22987H5.29902C5.29902 10.1688 6.06014 10.9299 6.99902 10.9299V8.92987ZM6.69902 9.22987C6.69902 9.06419 6.83334 8.92987 6.99902 8.92987V10.9299C7.93791 10.9299 8.69902 10.1688 8.69902 9.22987H6.69902ZM6.69902 5.78313V9.22987H8.69902V5.78313H6.69902ZM6.99902 13.0722C7.98062 13.0722 8.77637 12.2764 8.77637 11.2948H6.77637C6.77637 11.1719 6.87605 11.0722 6.99902 11.0722V13.0722ZM5.22168 11.2948C5.22168 12.2764 6.01742 13.0722 6.99902 13.0722V11.0722C7.12199 11.0722 7.22168 11.1719 7.22168 11.2948H5.22168ZM6.99902 9.5175C6.01742 9.5175 5.22168 10.3132 5.22168 11.2948H7.22168C7.22168 11.4178 7.12199 11.5175 6.99902 11.5175V9.5175ZM8.77637 11.2948C8.77637 10.3132 7.98062 9.5175 6.99902 9.5175V11.5175C6.87605 11.5175 6.77637 11.4178 6.77637 11.2948H8.77637Z" fill="currentColor" mask="url(#path-2-inside-1_1574_2799)"/>
</g>
<defs>
<clipPath id="clip0_1574_2799">
<rect width="14" height="14" fill="white" transform="translate(0 0.5)"/>
</clipPath>
</defs>
</svg>
