<svg width="274" height="193" viewBox="0 0 274 193" fill="none" xmlns="http://www.w3.org/2000/svg">
<path d="M59.4442 146.754L116.046 114.165V99.8248L59.4442 132.414V146.754ZM55.3047 43.5686L86.5331 25.5873L91.2013 28.2753C80.4587 34.469 69.7193 40.6708 58.9675 46.8472L54.2927 44.151L55.3047 43.5686ZM86.5323 27.1451L56.9955 44.1526L58.9675 45.2894L88.4969 28.2753L86.5323 27.1443V27.1451ZM45.8957 38.2427L77.1241 20.2614L81.7923 22.9494C71.0496 29.1431 60.3103 35.345 49.5585 41.5213L44.8837 38.8251L45.8957 38.2427ZM77.1233 21.8193L47.5865 38.8267L49.5585 39.9635L79.0879 22.9494L77.1233 21.8184V21.8193ZM36.4867 32.9168L67.7151 14.9355L72.3833 17.6235C61.6406 23.8172 50.9012 30.0191 40.1495 36.1955L35.4747 33.4992L36.4867 32.9168ZM67.7143 16.4934L38.1774 33.5008L40.1495 34.6376L69.6789 17.6235L67.7143 16.4926V16.4934ZM27.0776 27.591L58.3061 9.60962L62.9743 12.2976C52.2316 18.4913 41.4922 24.6932 30.7404 30.8696L26.0656 28.1733L27.0776 27.591ZM58.3052 11.1675L28.7684 28.175L30.7404 29.3117L60.2698 12.2976L58.3052 11.1667V11.1675ZM157.964 143.857L157.776 152.389C157.775 152.442 157.769 152.493 157.756 152.542L157.752 152.684V152.7V152.702V152.713V152.717V152.723L157.752 152.732V152.734L157.751 152.745V152.75L157.75 152.755L157.749 152.766L157.747 152.777V152.783L157.747 152.788L157.745 152.799L157.743 152.81L157.742 152.815L157.741 152.82L157.738 152.831V152.832L157.737 152.841L157.735 152.848L157.734 152.852L157.731 152.862V152.864L157.728 152.873L157.726 152.88L157.725 152.883L157.722 152.894L157.721 152.896L157.719 152.904L157.715 152.912L157.714 152.914L157.71 152.925L157.709 152.927L157.706 152.935L157.703 152.943L157.702 152.945L157.698 152.955L157.696 152.959L157.693 152.965L157.689 152.974L157.688 152.976L157.683 152.986L157.681 152.99L157.678 152.996L157.673 153.005L157.672 153.006L157.667 153.015L157.664 153.02L157.661 153.026L157.655 153.036L157.649 153.047L157.646 153.051L157.642 153.057L157.636 153.066L157.634 153.068L157.628 153.079L157.627 153.08L157.62 153.089L157.617 153.094L157.613 153.099L157.607 153.107L157.606 153.109L157.598 153.119L157.596 153.121L157.591 153.128L157.586 153.134L157.582 153.138L157.575 153.146L157.574 153.147L157.566 153.156L157.564 153.158L157.558 153.164L157.552 153.17L157.549 153.173L157.54 153.182L157.532 153.19L157.528 153.193L157.522 153.198L157.516 153.205L157.513 153.206L157.504 153.214L157.502 153.215L157.495 153.221L157.49 153.225L157.485 153.229L157.477 153.235L157.475 153.236L157.466 153.243L157.463 153.245L157.456 153.251L157.451 153.255L157.446 153.257L157.436 153.264L157.427 153.27L157.422 153.272L157.417 153.276L157.409 153.281L157.406 153.283L157.396 153.288L157.394 153.289L157.385 153.294L157.38 153.297L157.375 153.3L157.371 153.302L118.166 175.874V189.386L156.573 167.064C156.896 166.877 157.31 166.988 157.498 167.309C157.56 167.418 157.59 167.538 157.588 167.655L157.686 175.18L171.354 151.571L157.957 143.859L157.964 143.857ZM157.69 142.145L172.619 150.739C172.942 150.924 173.053 151.337 172.867 151.659L157.647 177.949C157.535 178.162 157.313 178.309 157.055 178.311C156.927 178.313 156.807 178.279 156.704 178.218L156.702 178.216L156.69 178.209L156.671 178.2L149.216 173.908C148.988 173.798 148.831 173.565 148.831 173.297V173.127L117.878 191.117C117.769 191.191 117.636 191.235 117.494 191.235C117.353 191.235 117.223 191.192 117.115 191.119L109.959 186.998L104.517 190.132H104.499C102.977 190.988 101.295 191.666 99.5382 192.147C97.7063 192.648 95.7879 192.937 93.8827 192.99C91.9857 193.045 90.0797 192.87 88.2594 192.448C86.5175 192.045 84.8432 191.411 83.3157 190.532L9.16683 147.838L9.18003 147.813C8.72145 147.504 8.29917 147.16 7.9173 146.786C7.54698 146.422 7.21294 146.028 6.92262 145.613L6.89211 145.631L6.55477 145.049C6.24053 144.507 5.9931 143.934 5.82485 143.344C5.65989 142.763 5.56504 142.156 5.54937 141.532C5.5337 140.889 5.60546 140.24 5.77041 139.602C5.91557 139.044 6.13249 138.491 6.42528 137.954V137.933L6.51848 137.772C6.87314 137.159 7.33089 136.571 7.89751 136.029C8.43031 135.519 9.06209 135.044 9.79449 134.622L22.0589 127.562L0.472063 115.133C0.255147 115.009 0.13473 114.783 0.133906 114.55L0.130607 98.9266C-0.0228015 98.7168 -0.0475447 98.4289 0.0910174 98.1896C0.159474 98.072 0.257622 97.9823 0.371441 97.9256L13.9184 90.1255L0.469589 82.3822C0.253498 82.2572 0.133081 82.031 0.133081 81.799L0.130607 66.1767C-0.0228015 65.9669 -0.0475447 65.6782 0.0910174 65.4397C0.152875 65.3328 0.239477 65.2505 0.33845 65.1938L12.7802 58.0295L0.470413 50.9418C0.254323 50.8168 0.133906 50.5906 0.133906 50.3586L0.131431 34.7363C-0.0219767 34.5265 -0.0467199 34.2378 0.0918421 33.9993C0.1537 33.8924 0.240301 33.8101 0.339274 33.7534L58.2953 0.383289C58.5131 0.257442 58.772 0.26649 58.9749 0.384111L116.93 33.7542C117.003 33.7961 117.065 33.8496 117.115 33.9105C117.29 34.0322 117.403 34.2345 117.403 34.4632V50.3578C117.4 50.5897 117.28 50.8159 117.064 50.941L104.62 58.1052L116.93 65.193C117.003 65.2349 117.065 65.2884 117.115 65.3492C117.29 65.471 117.403 65.6733 117.403 65.902V81.7966C117.4 82.0285 117.28 82.2547 117.064 82.3797L103.482 90.2003L116.929 97.942C117.002 97.9831 117.063 98.0366 117.114 98.0975C117.29 98.22 117.404 98.4224 117.404 98.6519V114.546C117.399 114.779 117.279 115.005 117.062 115.13L59.1605 148.468L59.1498 148.475L59.1465 148.477L59.1399 148.482L59.1333 148.487L59.1292 148.49L59.1069 148.503L59.1053 148.504L59.0962 148.51L59.0904 148.513L59.0846 148.516L59.0764 148.52L59.0731 148.523L59.0615 148.528L59.05 148.534L59.0467 148.536L59.0385 148.54L59.0319 148.543L59.0261 148.546L59.0162 148.55L59.0145 148.551L59.0022 148.556H59.0005L58.9898 148.561L58.9848 148.562L58.9774 148.565L58.9692 148.567L58.965 148.569L58.9527 148.573L58.9395 148.576L58.9362 148.577L58.9197 148.581L58.9139 148.583L58.904 148.585L58.9007 148.586L58.8875 148.589H58.8867L58.8743 148.591L58.8694 148.592L58.8611 148.593L58.8529 148.594L58.8479 148.595L58.8356 148.596L58.8339 148.597L58.8207 148.598H58.8182L58.8067 148.598L58.8009 148.599H58.7943L58.7844 148.6H58.7803H58.7663H58.7523H58.7481L58.7382 148.599H58.7316L58.7259 148.598L58.7143 148.598H58.7118L58.6986 148.597L58.697 148.596L58.6846 148.595L58.6797 148.594L58.6714 148.593L58.6632 148.592L58.6582 148.591L58.6459 148.589H58.645L58.6318 148.586L58.6285 148.585L58.6186 148.583L58.6129 148.581L58.6063 148.579L58.5972 148.577L58.5939 148.576L58.5807 148.573L58.5683 148.569L58.5642 148.567L58.556 148.565L58.5485 148.562L58.5436 148.56L58.5329 148.556H58.5312L58.5188 148.551L58.5172 148.55L58.5073 148.545L58.5015 148.543L58.4949 148.54L58.4867 148.536L58.4834 148.534L58.4718 148.528L58.4603 148.523L58.457 148.52L58.4487 148.516L58.443 148.513L58.4372 148.51L58.4281 148.504L58.4265 148.503L58.4149 148.496L58.4141 148.496L58.4042 148.49L58.4001 148.487L58.3935 148.482L58.3869 148.477L58.3836 148.474L58.3729 148.468L30.3536 132.335L17.4715 139.751C16.9502 140.051 16.6063 140.38 16.4141 140.713C16.2805 140.946 16.2203 141.183 16.2261 141.41C16.231 141.644 16.3044 141.88 16.4314 142.1C16.6277 142.439 16.9568 142.75 17.3783 142.994L87.4783 183.357C88.3138 183.838 89.2615 184.187 90.2702 184.409C91.3449 184.646 92.493 184.743 93.6551 184.71C94.8864 184.675 96.1228 184.491 97.2989 184.176C98.315 183.902 99.2817 183.53 100.155 183.07L109.317 177.794V171.16L109.322 171.085L109.324 171.077V171.074L109.326 171.063L109.327 171.06L109.327 171.053L109.333 171.027L109.334 171.021L109.336 171.012V171.01L109.34 170.999L109.341 170.995L109.342 170.988L109.346 170.979V170.978L109.349 170.968L109.351 170.963L109.353 170.957L109.356 170.947V170.947L109.36 170.936L109.362 170.932L109.365 170.926L109.369 170.916V170.915L109.374 170.905L109.375 170.9L109.378 170.894L109.383 170.884V170.883L109.388 170.873L109.39 170.868L109.393 170.863L109.398 170.853L109.399 170.852L109.404 170.842L109.407 170.837L109.411 170.831L109.416 170.822L109.422 170.811L109.426 170.807L109.43 170.8L109.435 170.792L109.437 170.789L109.444 170.779L109.445 170.778L109.45 170.769L109.454 170.764L109.459 170.758L109.464 170.75L109.466 170.748L109.473 170.738L109.475 170.736L109.481 170.729L109.486 170.724L109.489 170.72L109.496 170.711L109.497 170.71L109.506 170.701L109.508 170.699L109.514 170.693L109.52 170.687L109.523 170.684L109.531 170.676L109.539 170.668L109.544 170.664L109.549 170.659L109.556 170.653L109.558 170.651L109.567 170.644L109.569 170.642L109.576 170.636L109.581 170.632L109.586 170.628L109.595 170.622L109.595 170.622L109.605 170.614L109.609 170.613L109.615 170.607L109.621 170.603L109.624 170.6L109.634 170.594H109.635L109.645 170.588L109.649 170.585L109.655 170.581L109.662 170.576L109.665 170.575L109.675 170.569L109.677 170.568L109.685 170.563L109.691 170.561L109.697 170.557L109.706 170.553L123.634 162.533L115.87 158.062C115.203 157.678 114.614 157.224 114.107 156.719C113.573 156.189 113.125 155.599 112.761 154.972C112.357 154.274 112.059 153.529 111.866 152.765C111.668 151.98 111.58 151.17 111.596 150.364C111.612 149.584 111.727 148.803 111.935 148.052C112.142 147.308 112.443 146.585 112.832 145.913L113.169 145.33L113.197 145.347C113.5 144.904 113.846 144.485 114.23 144.1C114.611 143.717 115.033 143.366 115.492 143.054L115.479 143.027L131.643 133.72C132.028 133.477 132.386 133.156 132.715 132.778C133.123 132.308 133.488 131.75 133.798 131.139C134.161 130.425 134.44 129.66 134.628 128.889C134.817 128.11 134.916 127.314 134.916 126.549V86.3731C129.354 80.5455 126.09 73.5482 124.843 66.4703C123.803 60.5621 124.168 54.5922 125.775 49.2021C127.387 43.7932 130.249 38.96 134.195 35.3433C139.535 30.4493 146.842 27.7785 155.704 28.9029C159.894 21.1119 165.173 16.0237 171.012 13.223L170.959 13.2288L189.8 2.31459C189.976 2.30883 190.169 2.30225 190.343 2.26771C195.04 0.219605 200.065 -0.389067 205.152 0.231943C213.341 1.2305 221.703 5.418 229.13 11.9069C236.527 18.3704 243.008 27.1271 247.466 37.2911C252.339 48.4002 254.804 61.1963 253.421 74.527L253.428 74.5229L253.347 75.2097L253.346 75.2138L253.312 75.5067C254.422 76.233 255.489 76.9922 256.51 77.7768C265.824 84.9411 271.078 94.2135 273.067 103.145C275.065 112.113 273.769 120.758 269.988 126.614C269.688 127.078 269.367 127.531 269.029 127.968L268.329 128.902L267.384 130.213C260.799 133.995 254.222 137.793 247.64 141.581L247.65 141.519C247.312 141.785 246.964 142.036 246.607 142.272C243.979 144.007 240.851 144.9 237.314 144.686C237.083 145.173 236.827 145.635 236.546 146.071C236.38 146.329 236.199 146.584 236.008 146.832L235.63 147.335L235.076 148.102C231.434 150.212 227.78 152.304 224.131 154.404C223.995 154.506 223.856 154.602 223.715 154.696C220.905 156.55 217.097 156.71 212.644 154.146L167.651 128.24C161.323 124.596 157.899 118.938 156.886 113.183C156.311 109.916 156.514 106.614 157.402 103.632C157.604 102.953 157.843 102.29 158.115 101.648L144.326 93.7084C143.961 93.4987 143.602 93.284 143.247 93.0669V126.546C143.247 127.921 143.066 129.366 142.718 130.796C142.377 132.2 141.873 133.584 141.219 134.869C140.566 136.155 139.75 137.364 138.786 138.422C138.016 139.266 137.147 140.019 136.185 140.644L136.194 140.663C134.349 141.727 120.286 149.609 120.027 150.062C119.985 150.135 119.952 150.211 119.932 150.283C119.91 150.362 119.897 150.444 119.895 150.52L119.913 150.705L119.953 150.813L120.034 150.887L131.945 157.745H131.946L148.921 147.972L149.148 138.369C149.148 138.256 149.178 138.141 149.239 138.035C149.426 137.713 149.84 137.604 150.164 137.79L157.665 142.109L157.693 142.127L157.702 142.132L157.69 142.145ZM156.332 174.562L156.258 168.811L150.188 172.339V172.91L156.332 176.448V174.563V174.562ZM117.494 174.706L155.466 152.548L149.574 149.155L111.345 171.165L117.494 174.706ZM110.672 172.336V185.852L116.816 189.39V175.874L110.672 172.336ZM109.316 185.808V179.363L101.193 184.042C100.116 184.66 98.9113 185.147 97.647 185.487C96.3785 185.828 95.0365 186.025 93.6913 186.064C92.4253 186.099 91.1659 185.992 89.979 185.73C88.8367 185.477 87.7579 185.08 86.7995 184.529L16.6995 144.166C16.0743 143.806 15.5762 143.323 15.2603 142.777C15.0219 142.363 14.8842 141.911 14.8734 141.447C14.8627 140.978 14.979 140.5 15.2429 140.043C15.5498 139.515 16.0578 139.013 16.7968 138.589L34.2532 128.539C35.5307 127.808 35.9596 126.546 35.8128 125.399C35.76 124.987 35.6305 124.585 35.44 124.227C35.2553 123.881 35.0144 123.578 34.7307 123.352C34.0932 122.847 33.1958 122.711 32.1846 123.29L10.4733 135.79C9.83902 136.157 9.29385 136.565 8.83692 137.003C8.41134 137.41 8.06164 137.845 7.78286 138.295L7.68966 138.462C7.41171 138.943 7.20882 139.439 7.08015 139.939C6.94737 140.456 6.88963 140.982 6.902 141.502C6.91355 141.999 6.99273 142.495 7.12964 142.976C7.24428 143.378 7.40017 143.765 7.59234 144.135L7.7309 144.372C8.03277 144.892 8.41711 145.385 8.86744 145.826C9.31447 146.263 9.82913 146.656 10.399 146.985L83.9928 189.366C85.3933 190.173 86.943 190.757 88.5654 191.134C90.2768 191.53 92.0649 191.694 93.8472 191.644C95.6461 191.593 97.4564 191.321 99.1843 190.848C100.897 190.38 102.529 189.714 103.99 188.874L109.317 185.808H109.316ZM150.462 139.538L150.262 147.993L156.429 151.544L156.629 143.089L150.462 139.538ZM124.977 161.763L130.583 158.535L119.348 152.065C119.225 151.993 119.117 151.912 119.028 151.826C118.924 151.723 118.839 151.615 118.773 151.501C118.686 151.351 118.623 151.186 118.585 151.017C118.548 150.856 118.531 150.683 118.534 150.507C118.538 150.313 118.567 150.118 118.618 149.936C118.652 149.811 118.698 149.69 118.75 149.576V149.546L118.844 149.386C118.921 149.251 119.016 149.124 119.122 149.013C119.232 148.9 119.356 148.8 119.491 148.723L119.652 148.63H119.669L134.407 140.144L134.403 140.137L134.953 139.82C136.006 139.213 136.95 138.429 137.774 137.525C138.655 136.557 139.401 135.452 140 134.273C140.609 133.075 141.079 131.788 141.395 130.49C141.715 129.175 141.88 127.839 141.88 126.558V77.9545C141.88 77.0867 141.976 76.1688 142.167 75.2681C142.35 74.4168 142.623 73.5729 142.986 72.7964C143.28 72.1697 143.631 71.5922 144.032 71.1037C144.421 70.6315 144.863 70.2367 145.354 69.9538L151.927 66.1751C152.847 65.4718 153.008 64.3046 152.711 63.2493C152.596 62.8339 152.412 62.4391 152.179 62.0953C151.947 61.7581 151.671 61.4677 151.368 61.2604C150.746 60.8344 149.971 60.7455 149.203 61.2884C147.317 62.5905 144.627 63.9073 142.561 65.123C141.564 65.6996 140.69 66.4416 139.941 67.2962C139.126 68.2273 138.452 69.2941 137.917 70.4341C137.378 71.5848 136.971 72.826 136.695 74.0755C136.406 75.3907 136.263 76.7141 136.263 77.9562V126.56C136.263 127.417 136.15 128.321 135.932 129.217C135.719 130.093 135.404 130.958 134.997 131.757C134.639 132.462 134.212 133.113 133.728 133.67C133.262 134.207 132.735 134.66 132.159 134.99C127.196 137.856 122.215 140.707 117.246 143.569L116.699 143.893C116.133 144.22 115.625 144.615 115.18 145.061C114.716 145.525 114.321 146.047 113.998 146.602L113.85 146.857C113.588 147.353 113.38 147.88 113.23 148.421C113.051 149.067 112.952 149.735 112.938 150.397C112.925 151.082 113.001 151.774 113.171 152.446C113.334 153.092 113.584 153.719 113.923 154.305C114.229 154.833 114.606 155.328 115.052 155.772C115.479 156.198 115.977 156.58 116.538 156.904L124.978 161.765L124.977 161.763ZM226.167 117.802C226.986 110.589 225.678 103.657 223.046 97.6549C220.679 92.2608 217.243 87.6151 213.322 84.1901C209.431 80.7914 205.069 78.5986 200.817 78.0795C198.224 77.7637 195.668 78.0705 193.292 79.1077C193.199 79.1472 193.094 79.1784 192.986 79.1941L192.885 79.2048L187.468 82.3427C188.583 82.2547 189.711 82.2835 190.841 82.4225C193.717 82.7762 196.63 83.8414 199.422 85.4897L199.54 85.5588L199.594 85.5909C202.338 87.2203 204.964 89.4165 207.323 92.0543C214.051 99.5805 218.629 110.751 217.558 122.759L226.167 117.801L226.167 117.802ZM224.285 97.117C226.888 103.051 228.238 109.864 227.612 116.97L227.644 116.952L227.52 117.918C228.073 118.286 228.608 118.669 229.123 119.065C234.258 123.016 237.158 128.134 238.256 133.064C239.085 136.786 238.887 140.411 237.851 143.365C240.895 143.459 243.583 142.656 245.851 141.16C246.611 140.658 247.325 140.079 247.992 139.428L247.993 139.424L248.144 139.272C248.972 138.441 249.725 137.498 250.395 136.461C253.519 131.625 254.851 124.75 253.892 117.382L253.843 117.019C253.809 116.776 253.773 116.534 253.734 116.291C253.696 116.055 253.656 115.818 253.613 115.581L253.597 115.492L253.495 114.951L253.444 114.704L253.393 114.458L253.392 114.453L253.313 114.083L253.308 114.064L253.233 113.731L253.229 113.714L253.145 113.354L253.142 113.344L253.05 112.974L253.032 112.901L252.972 112.665L252.955 112.603L252.856 112.232L252.853 112.219L252.784 111.973L252.753 111.861L252.659 111.532L252.646 111.489L252.629 111.432L252.499 111.002L252.458 110.87C252.342 110.495 252.22 110.122 252.092 109.748L252.078 109.707L252.051 109.632L251.867 109.111L251.857 109.087L251.647 108.517L251.637 108.49L251.62 108.447L251.412 107.914L251.4 107.883L251.357 107.775L251.16 107.294L251.14 107.248L250.894 106.671L250.892 106.665C250.629 106.064 250.351 105.466 250.056 104.869L250.052 104.861L250.034 104.823C249.643 104.035 249.223 103.251 248.774 102.473L248.77 102.468C248.313 101.678 247.827 100.893 247.308 100.118V100.118C246.146 98.3788 244.827 96.6803 243.345 95.0451L243.312 95.0072C242.986 94.6486 242.652 94.2924 242.311 93.9396L242.307 93.9355C241.785 93.3984 241.245 92.867 240.687 92.3455L240.681 92.3398L240.569 92.2361L240.122 91.8265L240.116 91.8207L239.55 91.3182L239.544 91.3124L239.539 91.3075L239.536 91.3058L238.962 90.8115L238.954 90.8049L238.949 90.8008C238.754 90.6363 238.558 90.4718 238.358 90.3089L238.351 90.3032L238.347 90.2999L238.344 90.2982L237.855 89.9042L237.736 89.808L237.732 89.8047L237.23 89.4148L237.106 89.3186L237.103 89.317L236.976 89.2207L236.592 88.932L236.465 88.8374L236.462 88.8358L236.332 88.7404L235.94 88.4558L235.81 88.362L235.808 88.3604L235.223 87.9491L235.017 87.8076L235.007 87.8002L234.871 87.7081L234.735 87.616L234.599 87.5238L234.584 87.514L234.329 87.3445L233.832 87.0196L233.769 86.9801V86.9793L232.837 86.3813L233.272 86.1313C233.951 80.5883 233.95 75.1349 233.373 69.8567C231.705 54.5963 225.234 40.772 216.522 30.4394C212.395 25.5445 207.767 21.4343 202.911 18.3301L202.631 18.1524L202.61 18.1401C200.698 16.9474 198.753 15.9118 196.791 15.0449C190.219 12.1414 183.458 11.1354 177.14 12.5296C169.262 14.2676 162.035 19.7531 156.665 29.9557L156.443 30.3785L155.973 30.3127C147.34 29.0937 140.245 31.6288 135.098 36.346C131.337 39.7948 128.602 44.4142 127.06 49.5912C125.512 54.7855 125.161 60.5424 126.165 66.2458C127.293 72.6459 130.131 78.9786 134.903 84.3809V77.9529C134.903 76.6212 135.056 75.1999 135.367 73.7868C135.662 72.4501 136.102 71.1127 136.689 69.86C137.277 68.6065 138.019 67.4319 138.919 66.4045C139.616 65.6083 140.411 64.8977 141.306 64.3071L141.292 64.2832L143.512 63.0042C143.134 61.5483 142.988 60.1245 143.067 58.8134C143.229 56.1542 144.313 53.9284 146.278 52.7514L146.366 52.7004C146.551 52.5934 146.741 52.4988 146.934 52.4141L151.919 49.5435C152.075 49.3954 152.238 49.2572 152.4 49.1347C152.588 48.994 152.785 48.8624 152.988 48.7464C153.205 48.6255 153.418 48.5194 153.627 48.4322C153.829 48.3492 154.028 48.2768 154.219 48.2192L154.572 48.016C154.766 47.9215 154.984 47.9289 155.163 48.0152C157.032 47.7553 159.063 48.2472 161 49.4645C162.898 50.6564 164.715 52.5515 166.203 55.1202C167.768 57.8288 168.496 60.9232 168.333 63.5981C168.171 66.2803 167.118 68.5719 165.126 69.7193L159.456 72.9831C159.166 73.2398 158.849 73.4684 158.505 73.6667C158.156 73.8674 157.79 74.0286 157.414 74.152L157.398 74.1577L157.381 74.1635L157.349 74.1733L157.333 74.1783C155.552 74.7327 153.518 74.4423 151.545 73.4594C150.128 72.7528 148.734 71.686 147.489 70.3181C146.9 70.6381 146.349 70.94 145.877 71.2122C145.586 71.4031 145.317 71.658 145.07 71.9583C144.742 72.3572 144.452 72.8376 144.204 73.3664C143.888 74.0417 143.648 74.7869 143.485 75.5486C143.315 76.3481 143.23 77.1715 143.23 77.9545V91.486C143.8 91.852 144.386 92.2081 144.987 92.5544L158.672 100.434C159.55 98.7341 160.686 97.2108 162.059 95.9523C164.99 93.2651 168.984 91.7812 173.818 92.3389C176.081 88.2057 178.91 85.47 182.039 83.9253C185.522 81.9101 189.006 79.8973 192.484 77.8747L192.77 77.8616L192.745 77.8731L192.772 77.8616C195.379 76.7314 198.161 76.3966 200.976 76.7388C205.499 77.2907 210.113 79.6004 214.207 83.1759C218.27 86.726 221.83 91.537 224.279 97.1178L224.285 97.117ZM215.987 123.663C216.336 120.717 216.331 117.819 216.025 115.018C215.124 106.763 211.623 99.286 206.914 93.6986C204.731 91.1101 202.291 88.9287 199.733 87.2672L199.686 87.2376L199.57 87.1644C198.487 86.4784 197.384 85.8845 196.271 85.3935C192.747 83.8364 189.126 83.296 185.752 84.0412C181.546 84.9699 177.68 87.9096 174.8 93.3803L174.579 93.803L174.108 93.7372C169.504 93.0874 165.723 94.4364 162.983 96.9476C160.975 98.7892 159.514 101.259 158.69 104.026C157.86 106.812 157.672 109.902 158.211 112.964C159.16 118.357 162.376 123.664 168.32 127.087L213.313 152.993C217.257 155.263 220.565 155.163 222.958 153.585C223.338 153.334 223.696 153.047 224.031 152.724L224.16 152.595C224.595 152.158 224.993 151.661 225.345 151.114C225.809 150.396 226.199 149.592 226.508 148.722L226.516 148.7C226.603 148.452 226.685 148.197 226.76 147.94L226.76 147.935L226.784 147.853L226.849 147.612L226.855 147.592L226.878 147.504L226.892 147.449L226.9 147.416L226.921 147.328L226.931 147.285L226.962 147.151L226.969 147.119L227.002 146.971L227.006 146.952L227.022 146.881L227.04 146.791L227.042 146.784L227.059 146.7L227.075 146.614L227.077 146.609L227.094 146.517L227.108 146.444L227.112 146.427L227.138 146.273L227.144 146.243L227.188 145.965L227.193 145.927C227.219 145.752 227.241 145.576 227.261 145.4H227.262L227.292 145.113L227.297 145.043L227.3 145.016L227.308 144.92L227.313 144.864L227.324 144.727L227.327 144.683L227.331 144.63L227.337 144.533L227.339 144.503L227.348 144.339L227.348 144.321L227.357 144.144V144.139L227.363 143.954L227.366 143.838L227.367 143.769L227.37 143.583L227.371 143.532V143.398L227.37 143.223L227.369 143.211L227.366 143.024L227.363 142.913L227.361 142.836L227.354 142.647L227.353 142.601L227.346 142.458L227.337 142.288L227.335 142.268L227.322 142.077L227.316 141.972L227.309 141.887L227.292 141.695L227.288 141.655L227.273 141.502L227.255 141.338L227.252 141.31L227.23 141.117L227.217 141.019L227.205 140.923L227.179 140.728L227.174 140.698L227.15 140.534L227.126 140.376L227.12 140.339L227.088 140.142L227.072 140.053L227.053 139.945L227.016 139.747L227.013 139.73L226.977 139.549L226.948 139.406L226.937 139.351L226.894 139.152L226.878 139.081L226.802 138.755L226.753 138.556L226.721 138.429L226.648 138.157L226.633 138.103L226.593 137.958L226.541 137.776L226.536 137.759L226.476 137.56L226.442 137.451L226.35 137.161L226.338 137.124L226.237 136.823L226.228 136.797L226.216 136.761L226.114 136.472L226.112 136.469L225.999 136.163L225.992 136.144C225.918 135.95 225.842 135.758 225.762 135.565L225.731 135.491L225.593 135.167L225.592 135.166C225.45 134.841 225.299 134.516 225.139 134.193L225.132 134.176L225.033 133.979L224.976 133.869L224.931 133.783L224.807 133.549L224.722 133.391L224.633 133.227L224.614 133.194C224.447 132.895 224.27 132.598 224.087 132.301L224.07 132.273L224.039 132.223C223.926 132.041 223.808 131.86 223.688 131.679L223.667 131.647L223.664 131.643L223.646 131.615C223.442 131.311 223.23 131.009 223.008 130.711L222.999 130.698L222.799 130.433L222.777 130.404L222.714 130.323C222.501 130.049 222.281 129.777 222.052 129.507L222.035 129.488C221.443 128.792 220.8 128.116 220.102 127.463H220.101L219.798 127.185H219.798C219.593 127 219.384 126.817 219.171 126.636L219.169 126.635C218.848 126.364 218.518 126.098 218.177 125.837H218.176L217.831 125.578H217.831L217.479 125.323H217.478L217.12 125.071H217.12L216.754 124.823H216.753L216.381 124.58H216.381L216.022 124.348L215.449 123.98L215.988 123.67L215.987 123.663ZM234.141 147.089L234.927 146.021C235.087 145.813 235.245 145.59 235.397 145.355C237.315 142.387 237.963 137.966 236.936 133.354C235.901 128.705 233.159 123.872 228.297 120.131C227.805 119.753 227.288 119.384 226.746 119.024H226.746L218.024 124.047C218.341 124.268 218.65 124.494 218.952 124.724L218.987 124.751L219.278 124.976L219.306 124.998L219.621 125.25L219.652 125.276L219.991 125.556L220.012 125.573C220.215 125.744 220.414 125.917 220.608 126.091L220.648 126.127L220.661 126.138L220.924 126.378L220.966 126.417L220.975 126.425C221.182 126.618 221.385 126.813 221.583 127.008L221.584 127.009C221.983 127.404 222.364 127.807 222.727 128.218L222.736 128.228L222.991 128.52L223.002 128.534C223.269 128.844 223.526 129.161 223.773 129.479L223.787 129.497L224.01 129.79L224.022 129.807L224.234 130.093L224.254 130.121L224.485 130.444L224.52 130.494C224.659 130.694 224.796 130.895 224.927 131.098L224.929 131.102C225.062 131.305 225.191 131.509 225.316 131.714L225.343 131.758L225.372 131.806L225.533 132.075L225.541 132.09L225.562 132.126L225.681 132.332L225.733 132.424L225.797 132.539L225.912 132.747L225.918 132.76L225.941 132.803C226.045 132.992 226.143 133.182 226.241 133.373L226.271 133.433L226.346 133.582L226.438 133.771L226.448 133.791L226.591 134.094L226.605 134.123L226.741 134.421L226.753 134.449L226.758 134.461C226.846 134.659 226.932 134.856 227.013 135.055L227.044 135.13L227.064 135.18L227.18 135.472L227.183 135.477L227.306 135.8L227.311 135.815L227.344 135.901L227.419 136.112L227.436 136.156L227.494 136.325L227.555 136.499L227.567 136.537L227.637 136.748L227.667 136.841L227.705 136.96L227.77 137.172L227.774 137.182L227.833 137.384L227.875 137.525L227.895 137.596L227.953 137.808L227.97 137.868L228.009 138.02L228.059 138.209L228.064 138.231L228.116 138.442L228.142 138.55L228.166 138.653L228.214 138.864L228.219 138.89L228.259 139.075L228.291 139.231L228.302 139.285L228.356 139.562L228.357 139.569L228.382 139.704L228.418 139.908L228.419 139.913L228.454 140.122L228.455 140.133L228.484 140.32L228.513 140.519L228.522 140.581L228.539 140.716L228.54 140.722L228.587 141.111L228.604 141.252L228.61 141.307L228.629 141.503C228.715 142.418 228.742 143.316 228.705 144.191C228.615 146.472 228.125 148.591 227.288 150.383C227.139 150.703 226.978 151.013 226.807 151.312L234.139 147.089H234.141ZM220.976 126.425C221.182 126.618 221.385 126.812 221.583 127.008L220.976 126.425ZM224.52 130.494C224.66 130.694 224.796 130.896 224.928 131.099L224.52 130.494ZM87.8998 75.5141L99.5975 68.7792V61.2234L87.8998 67.9583V75.5141ZM100.613 69.7498L87.6144 77.2332L87.6037 77.2406L87.6004 77.2422L87.5938 77.248L87.5872 77.2521L87.5831 77.2554L87.5608 77.2685L87.5591 77.2693L87.5501 77.2751L87.5443 77.2784L87.5385 77.2817L87.5303 77.2858L87.527 77.2883L87.5154 77.294L87.5039 77.2998L87.5006 77.3014L87.4923 77.3055L87.4857 77.3088L87.48 77.3113L87.4701 77.3154L87.4684 77.3162L87.456 77.3212H87.4544L87.4437 77.3261L87.4387 77.3277L87.4313 77.3302L87.4231 77.3327L87.4189 77.3343L87.4066 77.3384L87.3934 77.3417L87.3901 77.3426L87.3736 77.3467L87.3678 77.3483L87.3579 77.3508L87.3546 77.3516L87.3414 77.3541H87.3406L87.3282 77.3565L87.3233 77.3574L87.315 77.359L87.3068 77.3598L87.3018 77.3606L87.2894 77.3615L87.2878 77.3623L87.2746 77.3631H87.2721L87.2606 77.3639L87.2548 77.3648H87.2482L87.2383 77.3656H87.2342H87.2202H87.207H87.202L87.1938 77.3648H87.1855H87.1806L87.1674 77.3631L87.1542 77.3623L87.1501 77.3615L87.141 77.3606L87.1336 77.3598L87.1278 77.359L87.1162 77.3574H87.1154L87.1022 77.3549L87.0989 77.3541L87.0899 77.3524L87.0824 77.3508L87.0775 77.35L87.0659 77.3467H87.0643L87.0519 77.3434L87.0494 77.3426L87.0395 77.3401L87.0338 77.3384L87.028 77.336L87.0181 77.3327L87.0164 77.3319L87.0041 77.3277H87.0016L86.9925 77.3236L86.9868 77.3212L86.981 77.3187L86.9719 77.3154L86.9694 77.3146L86.9579 77.3088H86.9562L86.9463 77.3039L86.9406 77.3014L86.9348 77.2981L86.9265 77.294L86.9241 77.2924L86.9125 77.2866L86.9117 77.2858L86.9018 77.2809L86.8969 77.2784L86.8911 77.2743L86.8828 77.2693L86.8804 77.2677L86.8696 77.2619L86.8688 77.2611L86.8589 77.2554L86.8548 77.2521L86.8482 77.248L86.8416 77.2422L86.8383 77.2406L79.1151 72.7931L59.1465 84.2905L59.1432 84.2921L59.1366 84.2979L59.13 84.302L59.1259 84.3053L59.116 84.311L59.1152 84.3119L59.1044 84.3176L59.102 84.3193L59.0937 84.3242L59.0879 84.3283L59.083 84.3308L59.0607 84.3423L59.0582 84.3431L59.05 84.348L59.0442 84.3505L59.0385 84.353L59.0286 84.3579L59.0269 84.3587L59.0154 84.3637L59.0129 84.3645L59.0038 84.3686L58.998 84.3703L58.9923 84.3735L58.9832 84.3768L58.9807 84.3777L58.9683 84.3818H58.9667L58.9568 84.3859L58.951 84.3875L58.9453 84.3892L58.9354 84.3916L58.9329 84.3925L58.9205 84.3958H58.9189L58.9073 84.399L58.9024 84.3999L58.8949 84.4015L58.8859 84.4032L58.8826 84.404L58.8694 84.4064H58.8685L58.857 84.4081L58.8512 84.4089L58.8438 84.4097L58.8347 84.4106L58.8306 84.4114L58.8174 84.4122L58.8042 84.4138H58.7993H58.791L58.7828 84.4147H58.7778H58.7646H58.7514H58.7465L58.7382 84.4138H58.73H58.725L58.7118 84.4122L58.6986 84.4114L58.6945 84.4106L58.6854 84.4097L58.678 84.4089L58.6723 84.4081L58.6607 84.4064H58.6599L58.6467 84.404L58.6434 84.4032L58.6343 84.4015L58.6269 84.3999L58.6219 84.399L58.6104 84.3958H58.6087L58.5964 84.3925L58.5939 84.3916L58.584 84.3892L58.5782 84.3875L58.5725 84.3851L58.5626 84.3818L58.5609 84.3809L58.5485 84.3768H58.5461L58.537 84.3727L58.5312 84.3703L58.5254 84.3678L58.5164 84.3645L58.5139 84.3637L58.5023 84.3579H58.5007L58.4908 84.353L58.485 84.3505L58.4793 84.3472L58.471 84.3431L58.4685 84.3415L58.457 84.3357L58.4562 84.3349L58.4463 84.3299L58.4413 84.3275L58.4355 84.3234L58.4273 84.3184L58.4248 84.3168L58.4141 84.311L58.4133 84.3102L58.4034 84.3045L58.3993 84.3012L58.3927 84.297L58.3861 84.2913L58.3828 84.2896L14.1311 58.8101L2.02594 65.7802L58.7638 98.4964L115.24 65.7811L103.266 58.8874L100.953 60.2191V69.1649C100.949 69.3977 100.829 69.6239 100.612 69.7481L100.613 69.7498ZM80.6632 72.1269L86.543 75.5132V68.7413L80.6632 72.1277V72.1269ZM31.4827 109.351L18.4851 101.868C18.2682 101.744 18.1478 101.518 18.147 101.285L18.1437 92.5618L15.2685 90.9061L2.02676 98.5309L58.7655 131.248L115.243 98.5318L102.131 90.9826L59.1482 115.732L59.1448 115.733L59.1383 115.739L59.1317 115.743L59.1275 115.747L59.1176 115.752L59.1168 115.753L59.1061 115.759L59.1036 115.76L59.0954 115.765L59.0896 115.77L59.0846 115.772L59.0624 115.784L59.0599 115.784L59.0516 115.789L59.0459 115.792L59.0401 115.794L59.0302 115.799L59.0286 115.8L59.017 115.805L59.0145 115.806L59.0055 115.81L58.9997 115.811L58.9939 115.815L58.9848 115.818L58.9824 115.819L58.97 115.823H58.9683L58.9585 115.827L58.9527 115.829L58.9469 115.83L58.937 115.833L58.9345 115.834L58.9222 115.837H58.9205L58.909 115.84L58.904 115.841L58.8966 115.843L58.8875 115.844L58.8842 115.845L58.871 115.848H58.8702L58.8587 115.849L58.8529 115.85L58.8455 115.851L58.8364 115.852L58.8323 115.853L58.8191 115.853L58.8059 115.855H58.8009H58.7927L58.7844 115.856H58.7795H58.7663H58.7531H58.7481L58.7399 115.855H58.7316H58.7267L58.7135 115.853L58.7003 115.853L58.6962 115.852L58.6871 115.851L58.6797 115.85L58.6739 115.849L58.6624 115.848H58.6615L58.6483 115.845L58.645 115.844L58.636 115.843L58.6285 115.841L58.6236 115.84L58.612 115.837H58.6104L58.598 115.834L58.5956 115.833L58.5857 115.83L58.5799 115.829L58.5741 115.826L58.5642 115.823L58.5626 115.822L58.5502 115.818H58.5477L58.5386 115.814L58.5329 115.811L58.5271 115.809L58.518 115.806L58.5155 115.805L58.504 115.799H58.5023L58.4925 115.794L58.4867 115.792L58.4809 115.788L58.4727 115.784L58.4702 115.783L58.4586 115.777L58.4578 115.776L58.4479 115.771L58.443 115.769L58.4372 115.765L58.4289 115.76L58.4265 115.758L58.4158 115.752L58.4149 115.751L58.405 115.746L58.4009 115.742L58.3943 115.738L58.3877 115.733L58.3844 115.731L39.7874 105.023L32.2589 109.359L32.2556 109.36L32.249 109.366L32.2424 109.37L32.2382 109.374L32.2283 109.379L32.2275 109.38L32.2168 109.386L32.2143 109.388L32.2061 109.392L32.2003 109.397L32.1954 109.399L32.1855 109.404L32.1846 109.405L32.1731 109.411L32.1706 109.412L32.1624 109.416L32.1566 109.42L32.1508 109.422L32.1409 109.427H32.1393L32.1277 109.433L32.1252 109.434L32.1162 109.437L32.1104 109.439L32.1046 109.442L32.0956 109.446H32.0931L32.0807 109.45L32.0791 109.451L32.0692 109.454L32.0634 109.457L32.0576 109.458L32.0477 109.461L32.0452 109.462L32.0329 109.465H32.0312L32.0197 109.468L32.0147 109.469L32.0073 109.471L31.9982 109.472L31.9949 109.473L31.9817 109.476H31.9809L31.9694 109.477L31.9636 109.478L31.9562 109.479L31.9471 109.48L31.943 109.48L31.9298 109.481L31.9166 109.483H31.9116H31.9034L31.8951 109.484H31.8902H31.877H31.863H31.8588L31.8489 109.483H31.8423L31.8366 109.482L31.825 109.481H31.8226L31.8094 109.48L31.8077 109.48L31.7953 109.479L31.7904 109.478L31.7821 109.476L31.7739 109.476L31.7689 109.475L31.7566 109.472H31.7557L31.7425 109.47L31.7393 109.469L31.7294 109.466L31.7236 109.465L31.717 109.463L31.7079 109.461L31.7046 109.46L31.6914 109.457L31.679 109.453L31.6749 109.451L31.6667 109.448L31.6592 109.446L31.6543 109.443L31.6436 109.439H31.6419L31.6296 109.434L31.6279 109.434L31.618 109.429L31.6122 109.427L31.6056 109.424L31.5974 109.42L31.5941 109.418L31.5825 109.412L31.571 109.406L31.5677 109.405L31.5595 109.401L31.5537 109.397L31.5479 109.394L31.5388 109.388L31.5372 109.388L31.5256 109.381L31.5248 109.38L31.5149 109.374L31.5108 109.371L31.5042 109.367L31.4976 109.361L31.4943 109.359L31.4836 109.352L31.4827 109.351ZM19.1161 91.5641C19.145 91.5789 19.1746 91.5945 19.2019 91.6143L32.2011 99.0985L19.2019 91.6143L40.1445 103.673L58.0875 114.004V99.666L57.939 99.5813L1.48654 67.0765V81.4141L19.1144 91.5641L1.48654 81.4141L19.1153 91.5641H19.1161ZM19.5004 100.897L31.1974 107.632V100.078L19.5004 93.3432V100.897ZM32.5541 107.631L38.4339 104.245L32.5541 100.859V107.631V107.631ZM32.2011 99.0985L32.2151 99.1059L40.1247 103.66L32.2011 99.0977V99.0985ZM31.5108 122.124C33.0886 121.22 34.5253 121.464 35.5728 122.298C36.0075 122.646 36.3704 123.095 36.6384 123.599C36.9007 124.094 37.0788 124.653 37.1547 125.232C37.3642 126.867 36.7522 128.664 34.9278 129.708L31.7038 131.565L58.0875 146.756V132.417L57.0433 131.815L1.48654 99.8264V114.166L23.4099 126.789L31.5108 122.125V122.124ZM144.734 62.305L148.447 60.1665C149.75 59.2609 151.068 59.418 152.13 60.1443C152.579 60.4519 152.978 60.8656 153.299 61.3377C153.613 61.8041 153.86 62.333 154.014 62.8825C154.452 64.4403 154.172 66.1907 152.703 67.2789C151.731 67.9953 150.204 68.8466 148.721 69.6527C149.792 70.7763 150.965 71.6564 152.155 72.2486C154.179 73.257 156.232 73.4199 157.832 72.5003C159.433 71.5774 160.32 69.7226 160.456 67.4722C160.598 65.1469 159.945 62.4169 158.466 59.8276L158.415 59.7429C156.901 57.128 154.837 55.1679 152.724 54.1168C150.735 53.1272 148.718 52.9529 147.131 53.819L147.046 53.8684C145.446 54.7904 144.559 56.6444 144.422 58.894C144.357 59.9633 144.46 61.1181 144.733 62.3042L144.734 62.305ZM150.404 51.9773C151.368 52.1073 152.355 52.4232 153.328 52.9076C155.64 54.0592 157.889 56.1739 159.536 58.9812L159.587 59.0676C161.237 61.9217 161.965 64.9561 161.808 67.5528C161.745 68.5875 161.542 69.5581 161.202 70.4251L164.452 68.5538C166.017 67.6531 166.85 65.763 166.987 63.5199C167.134 61.0893 166.469 58.2697 165.038 55.7972C163.664 53.4266 162.005 51.687 160.284 50.607C158.519 49.4974 156.69 49.087 155.06 49.4045C154.99 49.4185 154.921 49.4209 154.854 49.4127L154.666 49.4974C154.485 49.5517 154.313 49.6126 154.156 49.6784C153.982 49.7532 153.818 49.8338 153.666 49.9202C153.511 50.0107 153.361 50.1102 153.222 50.2147C153.068 50.3298 152.928 50.4507 152.802 50.5725L152.67 50.6728L150.404 51.9782L150.404 51.9773ZM251.954 75.3775C253.538 61.9382 251.12 49.0195 246.217 37.8405C241.84 27.8616 235.483 19.2702 228.229 12.9326C221.006 6.62054 212.896 2.54983 204.977 1.58418C200.123 0.991139 195.337 1.56773 190.877 3.51302C190.763 3.56402 190.62 3.60267 190.456 3.62817L190.178 3.65861L177.479 11.0153C178.149 10.8969 178.844 10.7644 179.56 10.618L179.624 10.6073C181.898 10.3606 184.212 10.3894 186.534 10.6748C191.945 11.3402 197.433 13.3998 202.676 16.5945L202.693 16.6036L202.799 16.6678L202.824 16.6834C207.645 19.6149 212.264 23.5071 216.426 28.1626C228.882 42.0938 237.291 62.8849 234.961 85.1623L251.955 75.3775V75.3767L251.954 75.3775ZM266.441 129.204L267.226 128.121L267.948 127.157C268.255 126.759 268.553 126.338 268.838 125.897C272.435 120.327 273.656 112.06 271.738 103.446C269.811 94.7958 264.714 85.8097 255.675 78.8552C254.673 78.0853 253.617 77.3351 252.508 76.613L235.425 86.4488C238.112 88.2559 240.507 90.2316 242.62 92.3266C248.587 98.2406 252.321 105.111 254.162 111.884L254.168 111.905L254.319 112.482L254.332 112.528L254.362 112.65L254.457 113.032L254.468 113.078L254.518 113.291L254.547 113.415L254.628 113.771L254.634 113.797L254.716 114.178L254.732 114.254L254.794 114.559L254.869 114.94L254.937 115.309L254.94 115.327L255.006 115.698L255.068 116.077L255.12 116.414L255.14 116.547C255.488 118.899 255.614 121.209 255.524 123.431C255.362 127.537 254.48 131.351 252.977 134.576C252.37 135.876 251.661 137.083 250.857 138.177L266.444 129.202L266.441 129.204ZM17.9878 27.6008L58.2945 4.3923C58.5122 4.26646 58.7712 4.2755 58.9741 4.39313L99.2808 27.6017C99.6041 27.7884 99.7138 28.2013 99.5266 28.5237C99.4977 28.5747 99.4631 28.6199 99.4235 28.6586V33.5206C99.4194 33.7534 99.299 33.9796 99.0821 34.1038L59.1589 57.0902L59.1482 57.0976L59.1448 57.0992L59.1383 57.105L59.1317 57.1091L59.1275 57.1124L59.1053 57.1256L59.1036 57.1264L59.0945 57.1322L59.0888 57.1354L59.083 57.1387L59.0747 57.1428L59.0714 57.1453L59.0599 57.1511L59.0484 57.1568L59.0451 57.1585L59.0368 57.1626L59.0302 57.1659L59.0244 57.1683L59.0145 57.1725L59.0129 57.1733L59.0005 57.1782H58.9989L58.9881 57.1831L58.9832 57.1848L58.9758 57.1873L58.9675 57.1897L58.9634 57.1914L58.951 57.1955L58.9378 57.1988L58.9345 57.1996L58.918 57.2037L58.9123 57.2054L58.9024 57.2078L58.8991 57.2086L58.8859 57.2111H58.885L58.8727 57.2136L58.8677 57.2144L58.8595 57.216L58.8512 57.2169L58.8463 57.2177L58.8339 57.2185L58.8323 57.2193L58.8191 57.2202H58.8166L58.805 57.221L58.7993 57.2218H58.7927L58.7828 57.2226H58.7786H58.7646H58.7506H58.7465L58.7366 57.2218H58.73L58.7242 57.221L58.7127 57.2202H58.7102L58.697 57.2193L58.6953 57.2185L58.683 57.2177L58.678 57.2169L58.6698 57.2152L58.6615 57.2144L58.6566 57.2136L58.6442 57.2111H58.6434L58.6302 57.2086L58.6269 57.2078L58.617 57.2054L58.6112 57.2037L58.6046 57.2021L58.5956 57.1996L58.5922 57.1988L58.5791 57.1955L58.5667 57.1914L58.5626 57.1897L58.5543 57.1873L58.5469 57.1848L58.5419 57.1823L58.5312 57.1782H58.5296L58.5172 57.1733L58.5155 57.1725L58.5056 57.1675L58.4999 57.1659L58.4933 57.1626L58.485 57.1585L58.4817 57.1568L58.4702 57.1511L58.4586 57.1453L58.4553 57.1437L58.4471 57.1395L58.4413 57.1363L58.4355 57.133L58.4265 57.1272L58.4248 57.1264L58.4133 57.1198L58.4124 57.119L58.4025 57.1132L58.3984 57.1099L58.3918 57.1058L58.3852 57.1001L58.3819 57.0976L58.3712 57.091L18.4488 34.1046C18.2319 33.9804 18.1115 33.7542 18.1107 33.5214L18.1074 28.8404L17.9853 28.7696C17.662 28.5829 17.5523 28.17 17.7395 27.8476C17.8014 27.7407 17.888 27.6584 17.987 27.6017L17.9878 27.6008ZM58.6335 5.75524L19.6769 28.1865L58.725 50.7016L97.5925 28.1873L58.6343 5.75606L58.6335 5.75524ZM19.465 33.1332L58.0875 55.3719V52.0053L19.465 29.7666V33.1332ZM59.4434 55.3719L98.0668 33.1332V29.7666L59.4434 52.0053V55.3719ZM86.1834 62.1175L90.2273 59.7889V56.1599L86.1834 58.4885V62.1175ZM91.2426 60.7595L85.898 63.8366C85.7875 63.9156 85.6523 63.9616 85.5055 63.9616C85.131 63.9616 84.8275 63.6589 84.8275 63.2855V58.1011C84.8316 57.8683 84.952 57.6421 85.169 57.5179L90.5135 54.4408C90.624 54.3627 90.7593 54.3158 90.9061 54.3158C91.2805 54.3158 91.584 54.6185 91.584 54.9919V60.1763C91.5799 60.4091 91.4595 60.6353 91.2426 60.7595ZM63.7916 74.8593L81.3395 64.7554V61.1272L63.7916 71.2311V74.8593ZM82.354 65.7268L63.5063 76.5784C63.3957 76.6574 63.2605 76.7034 63.1137 76.7034C62.7392 76.7034 62.4357 76.4007 62.4357 76.0273V70.8429C62.4382 70.611 62.5586 70.3848 62.7747 70.2597L81.6356 59.399C81.7445 59.3258 81.8764 59.2814 82.0175 59.2814C82.3919 59.2814 82.6955 59.5841 82.6955 59.9575V65.1428C82.6913 65.3755 82.5709 65.6017 82.354 65.726V65.7268ZM18.6443 56.0497L14.2046 53.4933C13.9885 53.3682 13.868 53.1421 13.868 52.9101L13.8656 47.3917C13.8656 47.0183 14.1691 46.7156 14.5435 46.7156C14.6854 46.7156 14.8165 46.7592 14.9254 46.8332L19.3652 49.3905C19.5813 49.5155 19.7017 49.7417 19.7017 49.9737L19.7041 55.4912C19.7041 55.8646 19.4006 56.1673 19.0262 56.1673C18.8843 56.1673 18.7532 56.1237 18.6443 56.0497ZM15.2223 52.5219L18.3482 54.3216V50.3611L15.2223 48.5606V52.5219ZM10.9945 51.8375L6.56714 49.2885C6.35023 49.1643 6.22981 48.9381 6.22899 48.7053L6.22569 43.1878C6.22569 42.8144 6.5292 42.5117 6.90365 42.5117C7.05046 42.5117 7.18573 42.5585 7.29625 42.6367L11.7236 45.1857C11.9405 45.3099 12.061 45.5361 12.0618 45.7689L12.0651 51.2864C12.0651 51.6599 11.7616 51.9625 11.3871 51.9625C11.2403 51.9625 11.1051 51.9157 10.9945 51.8375ZM7.58244 48.3179L10.7092 50.1184V46.1555L7.58244 44.355V48.3179ZM58.6335 1.74787L2.02759 34.3406L58.7655 67.0568L115.242 34.3415L58.6343 1.74787H58.6335ZM1.48654 49.9728L58.0875 82.5623V68.2248L57.939 68.1401L1.48654 35.6353V49.9728ZM59.4434 82.5623L116.045 49.9728V35.6353L59.4434 68.2248V82.5623ZM86.1834 93.5579L90.2273 91.2293V87.6012L86.1834 89.9297V93.5579ZM91.2426 92.1999L85.898 95.277C85.7875 95.356 85.6523 95.402 85.5055 95.402C85.131 95.402 84.8275 95.0993 84.8275 94.7259V89.5415C84.83 89.3095 84.9504 89.0834 85.1665 88.9583L90.5242 85.873C90.6331 85.7998 90.765 85.7554 90.9061 85.7554C91.2805 85.7554 91.584 86.0581 91.584 86.4315V91.6167C91.5799 91.8495 91.4595 92.0757 91.2426 92.1999ZM63.7916 106.298L81.3395 96.1941V92.5676L63.7916 102.672V106.298ZM82.3565 97.1664L63.4955 108.027C63.3867 108.1 63.2547 108.145 63.1137 108.145C62.7392 108.145 62.4357 107.842 62.4357 107.469V102.284C62.4382 102.052 62.5586 101.826 62.7747 101.701L81.6356 90.8403C81.7445 90.7671 81.8764 90.7227 82.0175 90.7227C82.3919 90.7227 82.6955 91.0254 82.6955 91.3988V96.5832C82.693 96.8151 82.5726 97.0413 82.3565 97.1664ZM18.6443 87.4901L14.2046 84.9329C13.9885 84.8078 13.868 84.5816 13.868 84.3497L13.8656 78.8322C13.8656 78.4587 14.1691 78.156 14.5435 78.156C14.6854 78.156 14.8165 78.1996 14.9254 78.2737L19.3652 80.8301C19.5813 80.9551 19.7017 81.1813 19.7017 81.4133L19.7041 86.9316C19.7041 87.305 19.4006 87.6077 19.0262 87.6077C18.8843 87.6077 18.7532 87.5641 18.6443 87.4901ZM15.2223 83.9615L18.3482 85.762V81.8007L15.2223 80.001V83.9615ZM10.9945 83.2779L6.56714 80.7289C6.35023 80.6047 6.22981 80.3785 6.22899 80.1457L6.22569 74.6282C6.22569 74.2548 6.5292 73.9521 6.90365 73.9521C7.05046 73.9521 7.18573 73.999 7.29625 74.0771L11.7236 76.6261C11.9405 76.7503 12.061 76.9765 12.0618 77.2093L12.0651 82.7268C12.0651 83.1003 11.7616 83.403 11.3871 83.403C11.2403 83.403 11.1051 83.3561 10.9945 83.2779ZM7.58244 79.7583L10.7092 81.5588V77.5959L7.58244 75.7954V79.7583ZM59.4442 114.003L116.046 81.4133V67.0757L59.4442 99.6652V114.003ZM86.1842 126.307L90.2281 123.978V120.35L86.1842 122.679V126.307ZM91.2459 124.95L85.8882 128.035C85.7793 128.108 85.6473 128.153 85.5063 128.153C85.1318 128.153 84.8283 127.85 84.8283 127.477V122.291C84.8324 122.059 84.9529 121.832 85.1698 121.708L90.5143 118.631C90.6248 118.553 90.7601 118.506 90.9069 118.506C91.2813 118.506 91.5849 118.809 91.5849 119.182V124.367C91.5824 124.599 91.462 124.825 91.2459 124.95ZM63.7925 139.049L81.3403 128.945V125.317L63.7925 135.421V139.049ZM82.3573 129.917L63.4964 140.778C63.3875 140.851 63.2555 140.895 63.1145 140.895C62.74 140.895 62.4365 140.593 62.4365 140.219V135.034C62.439 134.802 62.5594 134.576 62.7755 134.451L81.6364 123.59C81.7453 123.517 81.8773 123.473 82.0183 123.473C82.3928 123.473 82.6963 123.775 82.6963 124.149V129.334C82.6938 129.566 82.5734 129.792 82.3573 129.917ZM18.6451 120.24L14.2054 117.684C13.9893 117.559 13.8689 117.332 13.8689 117.1L13.8664 111.583C13.8664 111.209 14.1699 110.907 14.5444 110.907C14.6862 110.907 14.8174 110.95 14.9262 111.024L19.366 113.581C19.5821 113.706 19.7025 113.932 19.7025 114.164L19.705 119.681C19.705 120.055 19.4015 120.358 19.027 120.358C18.8851 120.358 18.754 120.314 18.6451 120.24ZM15.2232 116.712L18.349 118.512V114.551L15.2232 112.752V116.712ZM10.9954 116.028L6.56797 113.479C6.35105 113.355 6.23064 113.128 6.22981 112.896L6.22651 107.378C6.22651 107.005 6.53003 106.702 6.90448 106.702C7.05129 106.702 7.18655 106.749 7.29707 106.827L11.7245 109.376C11.9414 109.5 12.0618 109.726 12.0626 109.959L12.0659 115.477C12.0659 115.85 11.7624 116.153 11.3879 116.153C11.2411 116.153 11.1059 116.106 10.9954 116.028ZM7.58327 112.508L10.71 114.309V110.346L7.58327 108.545V112.508Z" fill="#7C5BEC"/>
</svg>
