<svg width="100" height="38" viewBox="0 0 100 38" fill="none" xmlns="http://www.w3.org/2000/svg">
<circle cx="2.27936" cy="2.39533" r="1.75006" transform="rotate(-90 2.27936 2.39533)" fill="white"/>
<circle cx="35.5313" cy="2.39533" r="1.75006" transform="rotate(-90 35.5313 2.39533)" fill="white"/>
<circle cx="68.7813" cy="2.39533" r="1.75006" transform="rotate(-90 68.7813 2.39533)" fill="white"/>
<circle cx="18.9044" cy="2.39533" r="1.75006" transform="rotate(-90 18.9044 2.39533)" fill="white"/>
<circle cx="52.1563" cy="2.39533" r="1.75006" transform="rotate(-90 52.1563 2.39533)" fill="white"/>
<circle cx="85.4083" cy="2.39533" r="1.75006" transform="rotate(-90 85.4083 2.39533)" fill="white"/>
<circle cx="2.27936" cy="19.0209" r="1.75006" transform="rotate(-90 2.27936 19.0209)" fill="white"/>
<circle cx="35.5313" cy="19.0209" r="1.75006" transform="rotate(-90 35.5313 19.0209)" fill="white"/>
<circle cx="68.7813" cy="19.0209" r="1.75006" transform="rotate(-90 68.7813 19.0209)" fill="white"/>
<circle cx="18.9044" cy="19.0209" r="1.75006" transform="rotate(-90 18.9044 19.0209)" fill="white"/>
<circle cx="52.1563" cy="19.0209" r="1.75006" transform="rotate(-90 52.1563 19.0209)" fill="white"/>
<circle cx="85.4083" cy="19.0209" r="1.75006" transform="rotate(-90 85.4083 19.0209)" fill="white"/>
<circle cx="2.27936" cy="35.6464" r="1.75006" transform="rotate(-90 2.27936 35.6464)" fill="white"/>
<circle cx="35.5313" cy="35.6464" r="1.75006" transform="rotate(-90 35.5313 35.6464)" fill="white"/>
<circle cx="68.7813" cy="35.6464" r="1.75006" transform="rotate(-90 68.7813 35.6464)" fill="white"/>
<circle cx="18.9044" cy="35.6464" r="1.75006" transform="rotate(-90 18.9044 35.6464)" fill="white"/>
<circle cx="52.1563" cy="35.6464" r="1.75006" transform="rotate(-90 52.1563 35.6464)" fill="white"/>
<circle cx="85.4083" cy="35.6464" r="1.75006" transform="rotate(-90 85.4083 35.6464)" fill="white"/>
</svg>
