<svg width="206" height="170" viewBox="0 0 206 170" fill="none" xmlns="http://www.w3.org/2000/svg">
<path d="M116.552 12.6821L102.349 9.26296L87.6202 12.6821M116.552 12.6821L123.127 9.26296H141.275L166.787 0.583496L198.875 11.6301M116.552 12.6821L132.333 27.674M116.552 12.6821L124.898 38.1945M116.552 12.6821L102.349 32.4082M198.875 11.6301L204.661 25.8329L183.357 74.7535M198.875 11.6301L164.157 10.315L132.333 27.674M183.357 74.7535L162.842 100.003L151.007 98.4248M183.357 74.7535L151.007 98.4248M151.007 98.4248L134.174 73.1754M134.174 73.1754L136.804 67.9151L141.275 51.3452M134.174 73.1754L126.546 84.748M126.546 84.748L116.552 68.9672M126.546 84.748L128.913 100.003M126.546 84.748L102.349 103.422M126.546 84.748L102.349 71.8603M116.552 68.9672L130.491 55.2904M116.552 68.9672L124.898 38.1945M116.552 68.9672L102.349 62.6548M130.491 55.2904L134.174 56.3425L141.275 51.3452M130.491 55.2904L124.898 38.1945M141.275 51.3452L132.333 27.674M141.275 51.3452L124.898 38.1945M124.898 38.1945L102.349 32.4082M102.349 32.4082L87.6202 12.6821M102.349 32.4082V62.6548M102.349 32.4082L78.4147 38.1945M87.6202 12.6821L78.4147 38.1945M87.6202 12.6821L72.3654 27.674M87.6202 12.6821L81.3078 8.73693L63.1599 9.42059M134.174 128.408L128.913 137.614L130.491 128.408L128.913 114.732M134.174 128.408L128.913 114.732M134.174 128.408V112.891L128.913 100.003M128.913 114.732V100.003M128.913 114.732L122.25 104.737M128.913 100.003L122.25 104.737M118.919 107.104L102.349 103.422M118.919 107.104L122.25 104.737M118.919 107.104L114.448 132.091M102.349 103.422L78.4147 84.748M102.349 103.422L85.253 107.104L84.9613 106.879M102.349 132.091L109.976 136.299V141.296M102.349 132.091V114.732M102.349 132.091V133.143L93.9325 136.299V141.296M109.976 152.343L112.08 165.756M109.976 152.343V141.296M109.976 152.343L102.349 168.65M112.08 165.756L114.448 154.184V132.091M112.08 165.756L102.349 168.65M114.448 132.091L102.349 114.732M102.349 114.732V71.8603M102.349 114.732L89.9873 132.091M102.349 71.8603L78.4147 84.748M102.349 71.8603V62.6548M78.4147 84.748L76.0475 100.003M78.4147 84.748L70.8925 73.1754M102.349 62.6548L87.6202 68.9672M87.6202 68.9672L78.4147 38.1945M87.6202 68.9672L78.4147 83.1699M87.6202 68.9672L73.9434 53.7124M78.4147 38.1945L73.9434 53.7124M78.4147 38.1945L63.1599 51.3452M63.1599 51.3452L68.1571 68.9672L70.8925 73.1754M63.1599 51.3452L69.2092 56.3425L73.9434 53.7124M63.1599 51.3452L72.3654 27.674M72.3654 27.674L40.5406 10.2727M76.0475 100.003L70.5243 112.891V126.83M76.0475 100.003L82.1845 104.737M76.0475 100.003L74.7892 116.047M84.9613 106.879L89.9873 132.091M84.9613 106.879L82.1845 104.737M89.9873 132.091V154.184L92.0914 165.756M92.0914 165.756L93.9325 154.184V152.343M92.0914 165.756L102.349 168.65M93.9325 141.296L102.349 144.715M93.9325 141.296V152.343M102.349 144.715L109.976 141.296M102.349 144.715V168.65M102.349 168.65L93.9325 152.343M70.5243 126.83L76.0475 137.614L73.9434 126.83L74.7892 116.047M70.5243 126.83L74.7892 116.047M82.1845 104.737L74.7892 116.047M4.50771 11.6301L38.1735 0.583496L63.1599 9.42059M4.50771 11.6301L40.5406 10.2727M4.50771 11.6301L0.5625 25.8329L6.34881 46.348L21.8666 74.7535M63.1599 9.42059L40.5406 10.2727M21.8666 74.7535L53.9544 98.4248M21.8666 74.7535L40.5406 100.003L53.9544 98.4248M53.9544 98.4248L70.8925 73.1754" stroke="#7C5BEC" stroke-width="1.05206"/>
</svg>
