<svg xmlns="http://www.w3.org/2000/svg" width="2769" height="48" fill="none">
  <path fill="url(#a)" fill-rule="evenodd" d="M73.256 7.631a2.08 2.08 0 0 1 1.177 2.756c-.362.83-1.177 1.312-2.038 1.312-.271 0-.588-.044-.86-.175C66.056 9.294 60.215 8.2 54.283 8.2c-1.223 0-2.174-.962-2.174-2.1 0-1.137.997-2.099 2.174-2.099a49.241 49.241 0 0 1 18.973 3.63Zm-.012 8.488a2.08 2.08 0 0 1 1.178 2.756c-.363.83-1.178 1.312-2.038 1.312a2.02 2.02 0 0 1-.86-.175c-5.48-2.23-11.276-3.324-17.253-3.324-6.022 0-11.818 1.093-17.252 3.28-1.132.438-2.4-.044-2.853-1.137-.452-1.093.046-2.318 1.178-2.755 5.977-2.406 12.316-3.63 18.927-3.63 6.566 0 12.95 1.224 18.973 3.673Zm-6.792 8.397c.272-1.137-.498-2.23-1.675-2.493A50.425 50.425 0 0 0 54.27 20.93c-6.61 0-12.95 1.224-18.927 3.63-1.132.437-1.63 1.662-1.178 2.755.363.831 1.178 1.313 2.038 1.313.317 0 .589-.088.86-.175 5.434-2.231 11.23-3.325 17.253-3.325 3.124 0 6.339.35 9.554 1.006a2.168 2.168 0 0 0 2.581-1.618Zm-12.135 4.851c1.222 0 2.173.962 2.173 2.1 0 1.137-.996 2.099-2.173 2.099-6.023 0-11.819 1.093-17.253 3.324-.271.088-.543.175-.86.175-.86 0-1.675-.481-2.038-1.312-.452-1.093.046-2.318 1.178-2.756 6.022-2.405 12.361-3.63 18.973-3.63Zm39.81 6.607v1.607h-4.416v-23.94h4.485v9.457c.753-1.158 2.601-2.216 5.1-2.216 4.93 0 7.772 3.67 7.772 8.498 0 4.927-3.15 8.598-7.943 8.598-2.328 0-3.286-.226-4.998-2.004Zm4.21-1.931c2.329 0 4.634-1.582 4.634-4.558s-2.305-4.668-4.633-4.668c-2.294 0-4.639 1.692-4.639 4.668 0 2.943 2.345 4.558 4.639 4.558Zm22.959 3.546h4.348a25.977 25.977 0 0 1-.171-2.943V21.32h-4.553v9.458c0 1.884-1.164 3.207-3.184 3.207-2.123 0-3.081-1.455-3.081-3.274v-9.39h-4.553v10.283c0 3.538 2.327 6.415 6.401 6.415 1.781 0 3.732-.661 4.656-2.182 0 .661.069 1.422.137 1.752Zm16.411-12.735c-1.986 0-3.15 1.488-3.15 3.373v9.357h-4.553V21.316h4.553v.983c1.259-1.264 3.29-1.156 4.442-1.095.136.008.26.014.369.018 2.853.094 6.007 2.54 6.007 6.112v10.25h-4.553v-9.49c0-1.818-.925-3.24-3.115-3.24Zm48.422 8.201c.205 1.852 1.951 5.026 7.018 5.026 4.416 0 6.539-2.711 6.539-5.357 0-2.38-1.678-4.331-4.998-4.993l-2.397-.496c-.924-.165-1.541-.661-1.541-1.455 0-.925.959-1.62 2.157-1.62 1.918 0 2.636 1.224 2.773 2.183l3.8-.827c-.205-1.753-1.814-4.696-6.607-4.696-3.629 0-6.299 2.414-6.299 5.324 0 2.282 1.472 4.167 4.724 4.861l2.226.496c1.301.265 1.814.86 1.814 1.587 0 .86-.719 1.62-2.225 1.62-1.986 0-2.979-1.19-3.081-2.48l-3.903.827Zm24.597-8.205c-1.917 0-3.047 1.39-3.149 3.175v9.556h-4.554v-23.94h4.554v9.027c1.095-1.257 2.944-1.786 4.553-1.786 4.279 0 6.265 2.877 6.265 6.448v10.251h-4.554v-9.49c0-1.819-.924-3.24-3.115-3.24Zm15.268 2.75c.102-1.489 1.403-3.208 3.765-3.208 2.602 0 3.698 1.587 3.766 3.207h-7.531Zm7.976 4.232c-.548 1.455-1.712 2.48-3.834 2.48-2.26 0-4.142-1.554-4.245-3.704h12.05c0-.016.004-.068.011-.146.019-.242.058-.735.058-1.21 0-5.224-3.116-8.432-8.319-8.432-4.314 0-8.285 3.373-8.285 8.565 0 5.489 4.074 8.696 8.696 8.696 4.142 0 6.812-2.347 7.668-5.158l-3.8-1.091Zm11.833-18.191v23.94h-4.553v-23.94h4.553Zm9.078 23.94v-23.94h-4.553v23.94h4.553Zm-64.856-23.94L174.8 43.996h-4.827l15.018-30.355h5.034Zm-18.826 7.242h-5.101l3.207 7.264 1.603 3.632.802 1.815 2.852-5.569-1.121-2.38-1.121-2.381-1.121-2.381Zm-13.887 3.97c-1.986 0-3.15 1.489-3.15 3.373v9.358h-4.553V21.316h4.553v.983c1.259-1.263 3.29-1.155 4.442-1.094.137.008.261.014.37.018 2.853.093 6.007 2.54 6.007 6.112v10.25h-4.554v-9.49c0-1.818-.924-3.24-3.115-3.24Z" clip-rule="evenodd" />
  <g clip-path="url(#b)">
    <path fill="url(#c)" fill-rule="evenodd" d="M363.571.535c2.719 3.142 3.563 11.652 2.16 15.918-.466 1.419-.598 2.918-.329 4.374.274 1.445.548 3.19.548 4.405 0 12.471-10.353 22.588-23.129 22.588-12.77 0-23.128-10.111-23.128-22.588 0-1.215.274-2.96.548-4.405.274-1.456.148-2.955-.318-4.374-1.403-4.26-.559-12.77 2.159-15.918a.834.834 0 0 1 1.316.102l3.348 5.133a2.627 2.627 0 0 0 3.442.546 23.394 23.394 0 0 1 12.639-3.672 23.39 23.39 0 0 1 12.638 3.672c1.124.717 2.615.481 3.442-.546l3.349-5.133c.296-.455.959-.514 1.315-.102Zm-38.655 24.75c0 9.646 8.029 17.493 17.905 17.493 9.876 0 17.911-7.847 17.917-17.487 0-.31-.011-.627-.028-.937-.356-6.568-4.445-12.188-10.227-14.864a18.015 18.015 0 0 0-7.656-1.686c-2.741 0-5.339.6-7.657 1.68-5.782 2.677-9.871 8.292-10.227 14.865-.016.31-.027.62-.027.936Zm21.089-1.016 4.576 7.751a.479.479 0 0 1 0 .498.508.508 0 0 1-.444.251h-3.721a.52.52 0 0 1-.444-.251l-2.445-4.138-2.723 4.154a.515.515 0 0 1-.433.23h-3.777a.518.518 0 0 1-.455-.262.497.497 0 0 1 .022-.514l5.037-7.505-3.754-6.16a.489.489 0 0 1-.006-.503.517.517 0 0 1 .45-.258h3.749c.18 0 .35.091.444.247l3.924 6.46Zm41.275-11.972h4.774V37.86h-4.774V26.968h-5.393v10.898h-4.774v-25.57h4.774v11.102h5.393V12.297Zm18.503 20.262.998 5.31h4.801l-5.519-25.564h-6.429l-5.267 25.564h4.774l.915-5.31h5.727Zm-.663-3.527h-4.439l2.159-12.236 2.28 12.236Zm17.094 4.174v-5.47c0-.433-.082-.722-.246-.872-.165-.15-.472-.225-.916-.225h-3.359c-2.85 0-4.275-1.349-4.275-4.052v-6.273c0-2.677 1.49-4.01 4.477-4.01h4.566c2.987 0 4.478 1.339 4.478 4.01v3.565h-4.812V16.96c0-.433-.083-.722-.247-.872-.164-.15-.471-.225-.915-.225h-1.578c-.472 0-.79.075-.954.225-.165.15-.247.439-.247.872v5.144c0 .434.082.723.247.873.164.15.482.224.954.224h3.277c2.904 0 4.357 1.323 4.357 3.972v6.686c0 2.676-1.507 4.009-4.522 4.009h-4.483c-3.014 0-4.521-1.338-4.521-4.01v-3.527h4.768v2.874c0 .434.082.723.246.873.165.15.483.225.954.225h1.578c.444 0 .746-.075.916-.225.17-.15.257-.44.257-.873Zm22.314-20.91h-4.768v20.908c0 .434-.083.723-.247.873-.164.15-.483.224-.954.224h-2.197c-.444 0-.752-.075-.916-.224-.164-.15-.246-.44-.246-.873V12.297h-4.774v21.555c0 2.67 1.507 4.009 4.522 4.009h5.058c3.015 0 4.522-1.333 4.522-4.01V12.298Zm8.713 15.604v9.966h-4.768v-25.57h9.624c3.015 0 4.521 1.339 4.521 4.01v7.58c0 2.215-1.008 3.51-3.03 3.89l4.357 10.09h-5.146l-3.985-9.966h-1.573Zm0-12.038v8.59h3.442c.444 0 .746-.074.915-.224.165-.15.247-.44.247-.873V16.96c0-.434-.082-.723-.247-.872-.164-.15-.471-.225-.915-.225h-3.442Zm22.818 16.697.998 5.31h4.806l-5.519-25.564h-6.429l-5.267 25.564h4.768l.916-5.31h5.727Zm-.657-3.527h-4.44l2.16-12.236 2.28 12.236Z" clip-rule="evenodd" />
  </g>
  <path fill="url(#d)" fill-rule="evenodd" d="M548.519 4c-1.43 0-2.589 1.12-2.589 2.502v8.33c0 1.382 1.159 2.502 2.589 2.502h14.663v13.332h-14.663c-1.43 0-2.589 1.12-2.589 2.501v8.331c0 1.382 1.159 2.502 2.589 2.502h12.074c1.43 0 2.589-1.12 2.589-2.502V30.672h14.663c1.43 0 2.59-1.12 2.59-2.502v-8.334c0-1.381-1.16-2.502-2.59-2.502h-14.659V6.502c0-1.382-1.16-2.502-2.59-2.502h-12.077Zm163.112 5.98c0-.407-.349-.72-.797-.72h-3.283c-.448 0-.797.336-.797.72v4.616h-5.103c-.449 0-.797.337-.797.72v2.38c0 .407.348.72.797.72h5.103v7.073c0 5.41 2.637 7.911 8.315 7.911h4.627c.449 0 .797-.337.797-.72V30.3c0-.406-.348-.72-.797-.72h-3.882c-3.088 0-4.183-1.18-4.183-4.114v-7.023h8.637c.448-.026.797-.364.797-.747v-2.38c0-.406-.349-.72-.797-.72h-8.637V9.98Zm-15.932 5.34c0-.406-.349-.72-.797-.72v.003H684.87c-.448 0-.797.337-.797.72v2.38c0 .406.349.72.797.72h5.948v11.16h-5.948c-.448 0-.797.337-.797.72v2.38c0 .406.349.72.797.72h16.928c.448 0 .797-.337.797-.72v-2.38c0-.406-.349-.72-.797-.72h-6.099V15.32Zm.198-7.264c-.024-.406-.372-.72-.797-.72h-4.48c-.448 0-.797.337-.797.72v3.054c0 .406.349.72.797.72h4.48c.449 0 .797-.337.797-.72V8.056Zm-20.662 21.527h5.079c.448 0 .797.31.797.72v2.38c0 .383-.349.72-.797.72H663.76c-.449 0-.797-.31-.797-.72v-2.38c0-.383.348-.72.797-.72h6.597V11.16h-5.876c-.448 0-.797-.311-.797-.721V8.056c0-.383.349-.72.797-.72h9.957c.448 0 .797.31.797.72v21.527Zm-25.814-14.12c.944-.867 2.165-1.227 3.858-1.227 4.957 0 7.843 3.226 7.864 9.789 0 6.566-2.911 9.788-7.74 9.788-1.666 0-2.788-.41-3.708-1.226l-1.17-1.08-1.094.24.424 2.863v5.34c0 .383-.349.72-.797.72h-3.287c-.448 0-.797-.31-.797-.72V15.32c0-.383.349-.72.797-.72h2.24a.8.8 0 0 1 .773.552l.397 1.394h1.071l1.169-1.084Zm-1.594 10.848c0 2.334 1.369 3.56 3.835 3.56 3.013 0 4.357-1.828 4.381-5.89 0-4.018-1.368-5.845-4.381-5.845-2.49 0-3.835 1.226-3.835 3.559v4.616Zm-28.402-2.31c0-6.543 3.362-9.765 9.635-9.765 6.447 0 9.56 3.249 8.811 10.49h-13.617c.198 3.872 1.693 5.531 4.83 5.531 2.018 0 3.509-.674 4.032-2.092a.81.81 0 0 1 .746-.482h2.986c.499 0 .896.433.773.889-.821 3.295-3.91 5.218-8.688 5.218-6.174 0-9.508-3.222-9.508-9.788Zm9.611-6.37c-2.689 0-4.159 1.32-4.631 4.16h8.913c-.075-2.694-1.419-4.16-4.282-4.16Zm-20.44-1.108 1.121-1.084c.972-.866 2.439-1.203 4.303-1.176h2.538c.448 0 .797.31.797.72v2.62c0 .384-.349.721-.797.721h-4.282c-2.637 0-3.981 1.153-3.981 3.367v7.889h5.701c.448 0 .797.31.797.72v2.38c0 .383-.349.72-.797.72h-15.508c-.448 0-.797-.31-.797-.72V30.3c0-.383.349-.72.797-.72h4.929V18.42h-4.231c-.448 0-.797-.31-.797-.72v-2.38c0-.383.349-.72.797-.72h7.169c.376 0 .698.215.773.552l.349 1.371h1.119Z" clip-rule="evenodd" />
  <path fill="url(#e)" d="M868.326 15c-6.429 0-11.064 4.05-11.064 10.125s5.217 10.125 11.647 10.125c3.884 0 7.308-1.485 9.428-3.988l-4.455-2.486c-1.176 1.243-2.964 1.968-4.973 1.968-2.79 0-5.16-1.406-6.039-3.656h16.317c.128-.63.204-1.282.204-1.969 0-6.069-4.636-10.119-11.065-10.119Zm-5.509 8.156c.728-2.244 2.72-3.656 5.503-3.656 2.79 0 4.782 1.412 5.504 3.656h-11.007ZM931.034 15c-6.429 0-11.065 4.05-11.065 10.125s5.218 10.125 11.647 10.125c3.884 0 7.309-1.485 9.428-3.988l-4.455-2.486c-1.176 1.243-2.964 1.968-4.973 1.968-2.789 0-5.159-1.406-6.039-3.656h16.318c.128-.63.204-1.282.204-1.969 0-6.069-4.636-10.119-11.065-10.119Zm-5.503 8.156c.728-2.244 2.719-3.656 5.503-3.656 2.789 0 4.781 1.412 5.503 3.656h-11.006Zm-22.73 1.969c0 3.375 2.283 5.625 5.824 5.625 2.399 0 4.199-1.052 5.125-2.767l4.472 2.491c-1.852 2.982-5.323 4.776-9.597 4.776-6.435 0-11.065-4.05-11.065-10.125S902.196 15 908.625 15c4.274 0 7.739 1.794 9.597 4.776l-4.472 2.491c-.926-1.715-2.726-2.767-5.125-2.767-3.535 0-5.824 2.25-5.824 5.625Zm48.033-16.313v25.876h-5.241V8.811h5.241ZM807.709 6l21.518 36h-43.036l21.518-36Zm53.798 2.813-16.137 27-16.137-27h6.051l10.086 16.874 10.086-16.875h6.051Zm34.306 6.75v5.45a6.85 6.85 0 0 0-1.863-.276c-3.384 0-5.824 2.25-5.824 5.626v8.325h-5.241V15.561h5.241v5.176c0-2.858 3.442-5.175 7.687-5.175Z" />
  <path fill="url(#f)" d="M1016.39 7v9.35h9.68V7h-9.68Z" />
  <path fill="url(#g)" d="M1026.07 19.75h-9.68V41h9.68V19.75Z" />
  <path fill="url(#h)" d="M1039.27 41h-9.68V7h9.68v34Z" />
  <path fill="url(#i)" d="M1042.79 7v34h9.68V7h-9.68Z" />
  <path fill="url(#j)" fill-rule="evenodd" d="M1073.59 7c9.73 0 17.6 7.611 17.6 17v17h-9.68v-1.814a18.025 18.025 0 0 1-7.92 1.814c-9.72 0-17.6-7.611-17.6-17s7.88-17 17.6-17Zm0 24.65c4.38 0 7.92-3.425 7.92-7.65 0-4.225-3.54-7.65-7.92-7.65-4.37 0-7.92 3.425-7.92 7.65 0 4.225 3.55 7.65 7.92 7.65Z" clip-rule="evenodd" />
  <g clip-path="url(#k)">
    <path fill="url(#l)" fill-rule="evenodd" d="m1246.23 10.96.02 23.29c0 3.882 1.49 5.27 5.4 5.28 1.11 0 3.13-.282 4.04-.838v-4.323h-3l-.01-19.357v-4.84l-6.45.788Zm-39.06 14.365h2.48v8.666c0 4.323 2.51 5.71 6.14 5.71 2.42 0 4.45-.475 6.35-1.586l-.95-3.774c-1.07.317-2.02.556-2.97.556-1.65 0-2.31-.596-2.31-2.578v-6.996h5.81l.02-4.205h-5.82v-5.93l-6.22.838v5.094h-2.53v4.205Zm-9.49-5.192c-5.99 0-10.34 3.767-10.34 10.31 0 6.028 3.42 9.24 9.6 9.232 4.29 0 7.71-1.072 9.44-2.696l-1.4-3.883a15.247 15.247 0 0 1-6.8 1.665c-3.71 0-4.86-2.256-4.86-5.031 0-3.69 2.22-4.878 4.08-4.878.86 0 1.61.08 1.94.316l.99 2.618 4.24-.278c.45-.888.68-1.867.66-2.855 0-3.728-4.04-4.52-7.55-4.52Zm25.93 10.422c0-6.147 3.46-10.352 10.51-10.352 6.18 0 9.35 3.41 9.35 9.044 0 6.898-3.79 10.429-10.63 10.429-5.19 0-9.23-2.855-9.23-9.121Zm9.85-5.99c-2.4 0-3.63 1.747-3.63 5.277 0 3.132.78 5.59 3.67 5.59 2.88 0 3.75-1.982 3.75-5.513 0-3.171-.99-5.354-3.79-5.354Zm26.19 1.63v-5.498h6.21s-.02.817-.02 5.18v13.225h-6.2c.01-.981.01-11.083.01-12.907Zm-.57-11.38c0-2.024 1.65-3.174 3.92-3.174 1.86 0 3.38.951 3.38 2.974 0 2.097-1.44 3.292-3.96 3.292-2.07-.009-3.35-1.267-3.35-3.093h.01Zm17.96 20.379c-1.94 0-4.54-.553-6.35-2.06l-1.49 3.913c1.49 1.704 4.79 2.696 8.04 2.696 5.11 0 8.58-2.413 8.58-6.499 0-4.258-3.81-4.966-6.84-5.528-1.99-.37-3.63-.675-3.63-1.886 0-.952.98-1.348 2.72-1.348 1.36 0 3.29.237 5.68 1.228l1.08-3.886c-2.15-1.547-5.12-1.824-6.85-1.824-5.35 0-8.08 2.696-8.08 6.067 0 3.417 2.85 4.528 5.57 5.24.12.032.24.065.38.1 1.7.444 4.4 1.148 4.4 2.4 0 .951-1.52 1.387-3.21 1.387Zm-103.47-10.858c1.48 0 2.68-1.152 2.68-2.574s-1.2-2.575-2.68-2.575c-1.47 0-2.67 1.153-2.67 2.575 0 1.421 1.2 2.574 2.67 2.574Zm-.89-12.14c8.41 0 12.94 4.563 12.94 13.13 0 7.084-2.89 11.488-7.89 13.329.35.8.62 1.631.79 2.482.12.67.18 1.345.2 2.023.02.595-.19 1.177-.58 1.634-.4.457-.96.756-1.57.84a2.63 2.63 0 0 1-1.08-.072 2.483 2.483 0 0 1-.94-.499c-.28-.23-.5-.514-.65-.833a2.38 2.38 0 0 1-.22-1.016c.02-.437-.01-.875-.07-1.308-.37-1.767-.95-2.22-1.79-2.253h-.29c-.3 0-.6-.009-.9-.021-.14 1.045-.35 2.08-.64 3.094-.64 2.438-1.75 5.373-3.25 5.073-1.76-.35-3.74-1.583-2.78-4.65.12-.401.24-.788.36-1.158.6-1.867 1.06-3.297.07-3.913l-.3-.176c-.86-.536-1.74-.199-2.76 1.31-.23.377-.42.774-.58 1.187-.13.326-.33.62-.59.863-.27.243-.58.428-.92.543a2.624 2.624 0 0 1-2.1-.194 2.41 2.41 0 0 1-1.13-1.343 2.343 2.343 0 0 1 .09-1.726c.28-.623.6-1.227.97-1.808.8-1.229 1.83-2.3 3.05-3.156-.95-1.944-1.46-4.375-1.46-7.338 0-9.04 5.61-14.045 14.02-14.045Zm-7.2 13.451c0 5.205 1.71 8.928 6.7 8.928 4.37 0 6.66-2.561 6.66-8.727 0-5.605-2.33-8.527-6.58-8.527-4.24 0-6.78 2.876-6.78 8.326Z" clip-rule="evenodd" />
  </g>
  <g clip-path="url(#m)">
    <path fill="url(#n)" fill-rule="evenodd" d="m1409.54 35.975-.45 1.488a.695.695 0 0 1-.27.379.813.813 0 0 1-.46.142h-57.91a.617.617 0 0 1-.4-.146.597.597 0 0 1-.21-.363c-.27-1.783-.15-3.602.35-5.337a12.636 12.636 0 0 1 2.59-4.727c1.2-1.381 2.69-2.5 4.37-3.283a13.57 13.57 0 0 1 5.38-1.258 8.652 8.652 0 0 1 .34-5.412c.68-1.727 1.91-3.207 3.5-4.236a9.504 9.504 0 0 1 5.39-1.51c1.91.045 3.77.662 5.3 1.766 1.45-4.11 4.25-7.652 7.97-10.084a21.178 21.178 0 0 1 12.66-3.389c4.49.234 8.78 1.878 12.21 4.682 3.43 2.804 5.82 6.615 6.81 10.852.01.072.02.144.02.217 0 .137-.02.273-.07.4l-1.8 4.556c-1.43 3.593-5.51 6.537-9.25 6.701l-31.66.401a.868.868 0 0 0-.45.163.846.846 0 0 0-.28.375c-.03.088-.05.184-.03.278.01.095.04.185.1.264a.599.599 0 0 0 .49.26l31.36.384c1.66.077 3.01.726 3.84 1.833.89 1.203 1.08 2.835.56 4.604Zm9.14-19.451a17.666 17.666 0 0 1 8.51 1.713 17.044 17.044 0 0 1 6.03 4.83 16.237 16.237 0 0 1 3.18 6.916c.5 2.512.38 5.1-.33 7.562a.67.67 0 0 1-.23.343.673.673 0 0 1-.41.126h-23.93a.388.388 0 0 1-.29-.164.442.442 0 0 1-.06-.159c0-.056.01-.113.03-.166l.5-1.267c1.42-3.59 5.49-6.529 9.26-6.697l6.95-.401c.16-.011.32-.068.44-.163a.779.779 0 0 0 .28-.375.551.551 0 0 0-.07-.549.562.562 0 0 0-.2-.179.63.63 0 0 0-.27-.07l-6.69-.4c-.74-.001-1.47-.167-2.14-.485a4.818 4.818 0 0 1-1.69-1.348c-.9-1.203-1.09-2.835-.56-4.604l1.24-4.114a.679.679 0 0 1 .12-.199.496.496 0 0 1 .2-.122.38.38 0 0 1 .13-.028Zm44.37 7.398h3.96v10.45h6.92v3.349h-10.88v-13.8Zm14.99 6.92v.036c0 3.95 3.28 7.138 7.67 7.138 4.39 0 7.72-3.212 7.72-7.174v-.04c0-3.962-3.28-7.138-7.68-7.138-4.39 0-7.71 3.216-7.71 7.178Zm11.35 0v.036c0 1.993-1.47 3.69-3.64 3.69-2.16 0-3.65-1.721-3.65-3.726v-.04c0-1.993 1.43-3.686 3.61-3.686 2.19 0 3.68 1.72 3.68 3.726Zm8.87.835v-7.755h4.02v7.667c0 2.005 1.04 2.94 2.64 2.94 1.59 0 2.63-.907 2.63-2.84v-7.767h4.02v7.647c0 4.455-2.63 6.416-6.69 6.416-4.06 0-6.62-2.005-6.62-6.308Zm24.88-7.755h-5.51v13.795h5.43c5.14 0 8.14-2.956 8.14-6.938v-.04c0-3.978-2.96-6.817-8.06-6.817Zm4 6.933c0 2.23-1.57 3.493-3.94 3.493l-1.62-.016v-7.006h1.62c2.37 0 3.94 1.284 3.94 3.493v.036Zm9.81-6.933h11.43v3.352h-7.47v2.346h6.76v3.172h-6.76v4.928h-3.96V23.922Zm20.9 0h-3.96V37.72h10.88v-3.349h-6.92v-10.45Zm17.3-.094h3.82l6.06 13.895h-4.24l-1.04-2.462h-5.51l-1.02 2.462h-4.15l6.08-13.895Zm3.47 8.453-1.59-3.922-1.63 3.922h3.22Zm18.26-8.36h-6.75v13.8h3.96v-4.18h1.73l2.88 4.18h4.57l-3.41-4.813c.89-.319 1.65-.9 2.18-1.66.53-.762.79-1.663.76-2.578v-.04a4.27 4.27 0 0 0-.28-1.733 4.298 4.298 0 0 0-.99-1.476c-.96-.946-2.46-1.5-4.65-1.5Zm1.94 4.99c0 1.002-.77 1.635-2.12 1.635h-2.61v-3.312h2.59c1.31 0 2.14.55 2.14 1.636v.04Zm9.7-4.99h11.49v3.253h-7.58v2.09h6.86v3.015h-6.86v2.19h7.68v3.252h-11.59v-13.8Zm-155.45 10.074a3.369 3.369 0 0 0 1.31-1.517l4.18.016c-.77 3.16-3.72 5.518-7.49 5.518-4.41 0-7.67-3.176-7.67-7.138v-.04c0-3.97 3.3-7.178 7.71-7.178 3.88 0 6.86 2.442 7.51 5.727h-4.15a3.52 3.52 0 0 0-1.32-1.667 3.701 3.701 0 0 0-2.08-.623c-2.16 0-3.61 1.684-3.61 3.689v.04c0 1.99 1.49 3.726 3.65 3.726.7.008 1.38-.185 1.96-.553Z" clip-rule="evenodd" />
  </g>
  <g fill="#C9CBCF" clip-path="url(#o)">
    <path d="M1773.38 18.813c-2.26 0-4.12.51-5.55 1.494-1.46.986-2.25 2.378-2.5 4.145h3.04c.18-.917.75-1.665 1.61-2.208.82-.544 1.93-.816 3.22-.816 1.5 0 2.64.306 3.5.985.82.68 1.22 1.597 1.22 2.752v1.223h-5.58c-2.5 0-4.36.51-5.65 1.461-1.32.951-1.97 2.378-1.97 4.179 0 1.63.65 2.887 1.93 3.839 1.25.95 2.94 1.426 5.04 1.426 2.76 0 4.87-1.019 6.37-3.023l.25 2.82h2.65V25.37c0-2.073-.68-3.704-1.97-4.825-1.32-1.155-3.22-1.733-5.61-1.733Zm4.57 10.905c0 1.528-.53 2.751-1.61 3.669-1.07.95-2.54 1.426-4.4 1.426-1.25 0-2.25-.271-3-.815-.75-.544-1.11-1.257-1.11-2.14 0-2.005 1.43-2.99 4.26-2.99h5.86v.85ZM1787.38 12.086c-.58 0-1.04.17-1.43.543-.4.374-.57.816-.57 1.36 0 .543.17.985.57 1.358.39.374.85.544 1.43.544.57 0 1.03-.17 1.43-.544.39-.373.57-.815.57-1.359 0-.543-.18-.985-.57-1.358-.4-.374-.9-.544-1.43-.544ZM1782.86 21.704h3V37.06h3.04V19.055h-6.04v2.65ZM1819.75 19.939c-1.35-.748-2.96-1.087-4.72-1.087-2.75 0-4.89 1.019-6.5 3.091l-.4-2.888h-2.64v25.072h3.04v-9.818c.64.917 1.5 1.63 2.57 2.14 1.07.544 2.43.816 3.93.816 1.76 0 3.33-.374 4.69-1.156a8.545 8.545 0 0 0 3.25-3.26c.79-1.394 1.15-2.99 1.15-4.791 0-1.902-.36-3.567-1.15-4.96-.78-1.359-1.86-2.446-3.22-3.16Zm-.42 12.875c-1.15 1.223-2.69 1.869-4.58 1.869-1.22 0-2.29-.272-3.22-.85a5.738 5.738 0 0 1-2.22-2.412c-.53-1.019-.78-2.14-.78-3.465 0-1.257.25-2.412.78-3.431.54-.985 1.26-1.767 2.22-2.344.93-.544 2-.816 3.22-.816 1.89 0 3.43.612 4.58 1.835 1.14 1.223 1.71 2.854 1.71 4.79 0 2.005-.57 3.601-1.71 4.824ZM1793.09 22.554V37.06h3.04V21.704h6.58v-2.65h-5.93c-2.04 0-3.69 1.53-3.69 3.5ZM1830.7 12.328h-3.04V37.06h3.04V12.328ZM1842.78 18.813c-2.25 0-4.11.51-5.54 1.494-1.47.986-2.25 2.378-2.5 4.145h3.04c.17-.917.75-1.665 1.6-2.208.83-.544 1.94-.816 3.22-.816 1.5 0 2.65.306 3.51.985.82.68 1.21 1.597 1.21 2.752v1.223h-5.58c-2.5 0-4.36.51-5.64 1.461-1.33.951-1.97 2.378-1.97 4.179 0 1.63.64 2.887 1.93 3.839 1.25.95 2.93 1.426 5.04 1.426 2.75 0 4.86-1.019 6.37-3.023l.25 2.82h2.64V25.37c0-2.073-.68-3.704-1.96-4.825-1.33-1.155-3.22-1.733-5.62-1.733Zm4.58 10.905c0 1.528-.54 2.751-1.61 3.669-1.07.95-2.54 1.426-4.4 1.426-1.25 0-2.25-.271-3-.815-.75-.544-1.11-1.257-1.11-2.14 0-2.005 1.43-2.99 4.25-2.99h5.87v.85ZM1863.56 18.813c-2.72 0-4.79.883-6.26 2.65l-.39-2.447h-2.65v18.006h3.04v-9.003c0-2.004.54-3.635 1.54-4.79 1-1.155 2.43-1.767 4.18-1.767 1.68 0 2.93.51 3.83 1.461.86.985 1.28 2.412 1.28 4.28v9.853h3.04V27.034c0-2.82-.71-4.926-2.07-6.217-1.36-1.325-3.22-2.005-5.54-2.005ZM1892.38 28.602c.04-.578.07-.986.07-1.223-.03-1.733-.43-3.262-1.21-4.553-.79-1.29-1.83-2.31-3.15-2.955-1.32-.68-2.86-1.02-4.61-1.02-1.75 0-3.33.374-4.69 1.122-1.35.781-2.43 1.868-3.14 3.261-.79 1.393-1.15 2.99-1.15 4.824 0 1.8.4 3.431 1.18 4.79.79 1.427 1.86 2.514 3.26 3.261 1.43.782 3.04 1.155 4.93 1.155 2.15 0 3.97-.611 5.47-1.766 1.5-1.155 2.43-2.65 2.79-4.484h-3.07c-.33 1.155-.97 2.038-1.9 2.683-.96.68-2.11.986-3.5.986-1.75 0-3.19-.544-4.29-1.597-1.08-1.053-1.68-2.48-1.72-4.247v-.237h14.73Zm-12.69-5.878c1.07-.883 2.32-1.358 3.79-1.358 1.61 0 2.93.407 4 1.256 1.04.85 1.65 2.039 1.79 3.568h-11.44c.14-1.427.79-2.582 1.86-3.466Z" />
    <path fill-rule="evenodd" d="m1707.51 1 15.43.005c1.17 0 2.23.647 2.73 1.659 3.18 6.527 14.92 30.556 19.65 40.245.44.89.37 1.931-.19 2.76-.55.829-1.51 1.331-2.53 1.331h-6.71c-2.24 0-4.37-.893-5.89-2.462-1.28-1.326-2.81-2.905-3.84-3.973a4.108 4.108 0 0 0-2.95-1.23l-16.22-.005c-1.12 0-2.18.446-2.94 1.231-1.04 1.068-2.56 2.646-3.85 3.972-1.52 1.57-3.65 2.462-5.89 2.462h-6.46c-1.03 0-1.98-.502-2.54-1.33a2.756 2.756 0 0 1-.18-2.76c4.73-9.69 16.47-33.719 19.65-40.246.5-1.012 1.56-1.659 2.73-1.659Zm9.54 4.792c3.88 8.144 12.77 26.872 15.14 32.344.09.197.06.42-.06.596a.7.7 0 0 1-.56.282h-3.02c-1.24 0-2.4-.54-3.16-1.467-1.24-1.512-3.17-3.857-4.41-5.37-.76-.927-1.93-1.467-3.16-1.467l-2.6-.002-2.59-.003c-1.24 0-2.4.542-3.16 1.468l-4.41 5.37c-.76.926-1.92 1.467-3.16 1.467h-3.02a.685.685 0 0 1-.56-.282.609.609 0 0 1-.06-.597c2.37-5.472 11.26-24.196 15.14-32.339.32-.685 1.03-1.125 1.82-1.125s1.5.44 1.83 1.125Z" clip-rule="evenodd" />
  </g>
  <path fill="#C9CBCF" fill-rule="evenodd" d="M1976.05 5.923a19.725 19.725 0 0 0-6.82 3.545 6.747 6.747 0 0 0-3.76-2.92 24.418 24.418 0 0 1 8.62-4.833 25.069 25.069 0 0 1 9.9-1.08 24.843 24.843 0 0 1 11.68 4.162 5.079 5.079 0 0 1 2.91-.3c.95.184 1.83.636 2.52 1.3a4.68 4.68 0 0 1 1.34 2.433c.19.922.1 1.877-.28 2.745-.37.868-1 1.61-1.81 2.132s-1.76.8-2.73.8a5.016 5.016 0 0 1-3.48-1.391 4.72 4.72 0 0 1-1.06-1.541 4.566 4.566 0 0 1-.38-1.818c0-.244.02-.486.06-.725a19.972 19.972 0 0 0-8.99-3.208c-2.59-.267-5.22-.03-7.72.7Zm-7.75 6.844c0 .894-.26 1.77-.75 2.526l1.01 1.684a6.81 6.81 0 0 1-3.81 2.192l-1-1.666a5.042 5.042 0 0 1-3.84-1.377 4.694 4.694 0 0 1-1.35-2.432 4.615 4.615 0 0 1 .28-2.744 4.829 4.829 0 0 1 1.81-2.132c.81-.522 1.76-.8 2.74-.8.64 0 1.28.122 1.88.36.59.24 1.14.59 1.59 1.03.46.441.82.965 1.07 1.541.25.576.37 1.194.37 1.818Zm-3.55 6.402 8.48 14.165 2.56 4.277 2.55-4.277 3.19-5.333 3.18 5.314 2.56 4.275 2.55-4.276 4.29-7.177h7.01c.08-.71.12-1.424.12-2.139 0-.714-.04-1.428-.13-2.138h-9.56l-.44.743-3.84 6.432-3.18-5.314-2.56-4.277-2.55 4.277-3.19 5.333-7.23-12.077a6.81 6.81 0 0 1-3.81 2.192Zm36.49 4.83a19.1 19.1 0 0 1-.12 2.138h4.7V21.86h-4.7c.08.71.12 1.424.12 2.138Zm4.58-2.139h.07c.07.704.1 1.418.1 2.139 0 12.959-10.87 23.466-24.29 23.466S1957.4 36.959 1957.4 24c0-2.297.35-4.582 1.03-6.781a6.862 6.862 0 0 0 4.3 2.053c-.36 1.509-.58 3.263-.58 4.727 0 10.422 8.75 18.876 19.55 18.876 10.05 0 18.32-7.32 19.42-16.738h4.7V21.86Z" clip-rule="evenodd" />
  <path fill="#C9CBCF" d="m2030.91 31.678-3.87-16.082h3.15l1.65 7.718 1.02 4.931h.08l1.19-4.93 1.91-7.719h3.48l1.91 7.718 1.17 4.931h.07l1.05-4.93 1.69-7.719h3.01l-3.99 16.082h-3.55l-2.12-8.502-1.03-4.24h-.05l-1.07 4.24-2.12 8.502h-3.58ZM2058.16 29.674h-.12c-.11.307-.26.599-.46.875-.17.261-.4.5-.69.714-.27.215-.6.384-1 .507a4.36 4.36 0 0 1-1.33.184c-1.29 0-2.28-.407-2.96-1.22-.69-.815-1.03-1.974-1.03-3.48v-7.603h3.05v7.304c0 .83.17 1.467.51 1.912.33.43.86.645 1.59.645.31 0 .6-.038.89-.115.3-.077.56-.192.78-.345.23-.17.41-.37.55-.6a1.6 1.6 0 0 0 .22-.852v-7.949h3.05v12.027h-3.05v-2.004ZM2064.74 31.678V19.651h3.05v2.005h.12c.25-.645.65-1.183 1.19-1.613.56-.446 1.32-.668 2.29-.668 1.29 0 2.28.407 2.96 1.22.68.815 1.03 1.975 1.03 3.48v7.603h-3.06v-7.304c0-.86-.16-1.505-.47-1.935-.32-.43-.85-.645-1.58-.645-.32 0-.63.046-.93.138-.28.077-.55.2-.79.369-.22.153-.4.353-.54.599-.15.23-.22.507-.22.83v7.948h-3.05ZM2086.49 29.674h-.12a3.068 3.068 0 0 1-1.26 1.658c-.62.415-1.35.622-2.17.622-1.58 0-2.79-.545-3.63-1.635-.83-1.09-1.24-2.65-1.24-4.677 0-2.013.41-3.556 1.24-4.631.84-1.091 2.05-1.636 3.63-1.636.82 0 1.55.207 2.17.622.62.4 1.04.944 1.26 1.636h.12v-7.005h3.05v17.05h-3.05v-2.004Zm-2.58-.162c.73 0 1.35-.169 1.84-.507.49-.337.74-.821.74-1.451v-3.825c0-.583-.25-1.052-.74-1.405-.49-.354-1.11-.53-1.84-.53-.79 0-1.44.261-1.93.783-.48.507-.71 1.19-.71 2.05v2.074c0 .86.23 1.544.71 2.051.49.507 1.14.76 1.93.76ZM2098.1 31.954c-.93 0-1.75-.145-2.48-.437a5.444 5.444 0 0 1-1.84-1.267 5.92 5.92 0 0 1-1.15-1.982c-.27-.783-.4-1.659-.4-2.626 0-.953.13-1.813.38-2.58.27-.769.65-1.422 1.15-1.96a4.769 4.769 0 0 1 1.81-1.267c.71-.307 1.52-.46 2.43-.46.97 0 1.81.161 2.53.483.72.323 1.3.76 1.76 1.314a5.27 5.27 0 0 1 1.03 1.935c.24.722.36 1.498.36 2.327v.968h-8.28v.3c0 .875.26 1.581.76 2.12.51.521 1.27.782 2.27.782.76 0 1.38-.153 1.86-.46.49-.308.93-.7 1.31-1.175l1.65 1.774c-.51.69-1.21 1.236-2.1 1.636-.87.383-1.89.575-3.05.575Zm-.05-10.367c-.81 0-1.46.26-1.93.783-.48.522-.72 1.198-.72 2.027v.185h5.11v-.208c0-.83-.22-1.497-.65-2.004-.41-.522-1.02-.784-1.81-.784ZM2106.36 31.678V19.651h3.06v2.489h.12c.08-.323.2-.63.35-.922.18-.307.4-.576.67-.806.27-.23.59-.415.96-.553.38-.139.82-.208 1.31-.208h.67v2.788h-.96c-1.03 0-1.81.146-2.33.438-.53.292-.79.768-.79 1.428v7.373h-3.06ZM2126.77 29.19h-.1c-.14.783-.59 1.444-1.36 1.981-.75.522-1.75.784-3 .784-.99 0-1.9-.177-2.75-.53a6.18 6.18 0 0 1-2.17-1.567c-.6-.707-1.08-1.575-1.43-2.604-.35-1.029-.52-2.22-.52-3.57 0-1.353.17-2.543.52-3.572.37-1.044.88-1.92 1.53-2.627a6.402 6.402 0 0 1 2.34-1.612c.9-.369 1.91-.553 3.03-.553 1.49 0 2.76.314 3.81.944 1.05.63 1.88 1.536 2.48 2.719l-2.55 1.451a4.247 4.247 0 0 0-1.36-1.728c-.59-.46-1.38-.69-2.38-.69-1.24 0-2.24.368-2.99 1.105-.73.722-1.09 1.797-1.09 3.226v2.58c0 1.413.37 2.489 1.12 3.226.75.737 1.75 1.106 3 1.106.5 0 .96-.054 1.39-.161.43-.123.8-.3 1.12-.53.32-.23.57-.515.76-.853.19-.338.29-.737.29-1.198V25.48h-3.27v-2.557h6.3v8.755h-2.72V29.19ZM2132.94 31.678V19.651h3.06v2.489h.12c.08-.323.19-.63.35-.922.18-.307.4-.576.67-.806.27-.23.59-.415.96-.553.38-.139.81-.208 1.31-.208h.67v2.788h-.96c-1.03 0-1.81.146-2.34.438-.52.292-.78.768-.78 1.428v7.373h-3.06ZM2151.21 31.678c-.67 0-1.2-.184-1.6-.553-.38-.384-.62-.89-.71-1.52h-.15c-.2.783-.62 1.374-1.26 1.773-.64.384-1.42.576-2.36.576-1.27 0-2.25-.322-2.94-.967-.68-.645-1.02-1.505-1.02-2.58 0-1.245.46-2.166 1.38-2.765.92-.615 2.24-.922 3.94-.922h2.12v-.876c0-.675-.18-1.198-.55-1.566-.36-.369-.95-.553-1.76-.553-.72 0-1.3.153-1.74.46-.43.292-.8.646-1.1 1.06l-1.81-1.566a5.08 5.08 0 0 1 1.83-1.66c.77-.43 1.78-.644 3.03-.644 1.69 0 2.97.368 3.84 1.106.88.737 1.31 1.797 1.31 3.18v5.667h1.24v2.35h-1.69Zm-5.06-1.866c.69 0 1.27-.146 1.75-.438.47-.292.71-.722.71-1.29v-1.59h-1.95c-1.6 0-2.39.492-2.39 1.475v.391c0 .492.16.86.48 1.106.33.23.8.346 1.4.346ZM2155.38 19.651h3.05v1.982h.09c.23-.692.65-1.237 1.27-1.636.62-.415 1.34-.622 2.17-.622 1.59 0 2.8.545 3.62 1.636.85 1.075 1.27 2.618 1.27 4.63 0 2.028-.42 3.587-1.27 4.678-.82 1.09-2.03 1.636-3.62 1.636-.83 0-1.55-.208-2.17-.623a3.236 3.236 0 0 1-1.27-1.658h-.09v6.612h-3.05V19.651Zm5.6 9.861c.8 0 1.44-.253 1.93-.76.5-.507.74-1.19.74-2.05v-2.074c0-.86-.24-1.544-.74-2.05-.49-.523-1.13-.784-1.93-.784-.73 0-1.34.177-1.84.53-.47.353-.71.822-.71 1.405v3.825c0 .63.24 1.114.71 1.451.5.338 1.11.507 1.84.507ZM2169.68 14.628h3.05v7.028h.12a3.86 3.86 0 0 1 1.19-1.613c.56-.446 1.32-.668 2.29-.668 1.29 0 2.28.407 2.96 1.22.69.815 1.03 1.975 1.03 3.48v7.603h-3.06v-7.304c0-.86-.16-1.505-.47-1.935-.32-.43-.85-.645-1.58-.645-.32 0-.63.046-.93.138-.28.077-.55.2-.79.369-.22.153-.4.353-.54.599-.15.23-.22.507-.22.83v7.948h-3.05v-17.05Z" />
  <g fill="#C9CBCF" clip-path="url(#p)">
    <path d="M2281.33 32.215c0 2.258-1.89 4.09-4.23 4.09-2.33 0-4.22-1.832-4.22-4.09 0-2.259 1.89-4.09 4.22-4.09 2.34 0 4.23 1.831 4.23 4.09ZM2281.33 14.785c0 2.259-1.89 4.09-4.23 4.09-2.33 0-4.22-1.831-4.22-4.09s1.89-4.09 4.22-4.09c2.34 0 4.23 1.831 4.23 4.09ZM2290.3 23.504c0 2.258-1.89 4.09-4.23 4.09-2.33 0-4.23-1.832-4.23-4.09 0-2.259 1.9-4.09 4.23-4.09 2.34 0 4.23 1.831 4.23 4.09Zm-7.57 0c0 1.786 1.49 3.234 3.34 3.234 1.85 0 3.34-1.448 3.34-3.234 0-1.787-1.49-3.235-3.34-3.235-1.85 0-3.34 1.448-3.34 3.235ZM2272.31 40.91c0 2.259-1.89 4.09-4.23 4.09-2.33 0-4.22-1.831-4.22-4.09s1.89-4.09 4.22-4.09c2.34 0 4.23 1.831 4.23 4.09Zm-6.64 0c0 1.29 1.08 2.336 2.41 2.336 1.34 0 2.42-1.046 2.42-2.336 0-1.29-1.08-2.336-2.42-2.336-1.33 0-2.41 1.046-2.41 2.336ZM2263.32 14.785c0 2.259-1.89 4.09-4.23 4.09-2.33 0-4.23-1.831-4.23-4.09s1.9-4.09 4.23-4.09c2.34 0 4.23 1.831 4.23 4.09Zm-6.64 0c0 1.29 1.08 2.336 2.41 2.336s2.41-1.046 2.41-2.336c0-1.29-1.08-2.336-2.41-2.336s-2.41 1.046-2.41 2.336ZM2263.32 32.215c0 2.258-1.89 4.09-4.23 4.09-2.33 0-4.23-1.832-4.23-4.09 0-2.26 1.9-4.09 4.23-4.09 2.34 0 4.23 1.83 4.23 4.09Zm-6.64 0c0 1.29 1.08 2.336 2.41 2.336s2.42-1.046 2.42-2.336c0-1.29-1.09-2.337-2.42-2.337-1.33 0-2.41 1.046-2.41 2.337ZM2272.31 6.09c0 2.258-1.89 4.09-4.23 4.09-2.33 0-4.22-1.832-4.22-4.09 0-2.259 1.89-4.09 4.22-4.09 2.34 0 4.23 1.831 4.23 4.09Zm-6.64 0c0 1.29 1.08 2.336 2.41 2.336 1.34 0 2.42-1.046 2.42-2.336 0-1.29-1.08-2.336-2.42-2.336-1.33 0-2.41 1.045-2.41 2.336ZM2254.31 23.496c0 2.259-1.89 4.09-4.23 4.09-2.33 0-4.22-1.831-4.22-4.09s1.89-4.09 4.22-4.09c2.34 0 4.23 1.831 4.23 4.09Zm-6.64 0c0 1.29 1.08 2.336 2.41 2.336 1.34 0 2.42-1.046 2.42-2.336 0-1.29-1.08-2.336-2.42-2.336-1.33 0-2.41 1.046-2.41 2.336ZM2272.31 23.496c0 2.259-1.89 4.09-4.23 4.09-2.33 0-4.22-1.831-4.22-4.09s1.89-4.09 4.22-4.09c2.34 0 4.23 1.831 4.23 4.09Zm-6.64 0c0 1.29 1.08 2.336 2.41 2.336 1.34 0 2.42-1.046 2.42-2.336 0-1.29-1.08-2.336-2.42-2.336-1.33 0-2.41 1.046-2.41 2.336Z" />
    <path fill-rule="evenodd" d="m2257.71 17.555-4.77 4.616-1.49-1.446 4.77-4.616 1.49 1.446ZM2266.77 8.774l-4.71 4.553-1.49-1.445 4.71-4.554 1.49 1.446ZM2266.6 26.383l-4.71 4.557-1.5-1.445 4.71-4.558 1.5 1.446ZM2265.17 39.554l-4.65-4.499 1.5-1.446 4.65 4.499-1.5 1.446ZM2255.86 30.55l-4.47-4.323 1.49-1.446 4.47 4.324-1.49 1.445Z" clip-rule="evenodd" />
    <path d="M2313.61 3.656v.6h-7.08v22.889h-.69V4.256h-7.08v-.6h14.85ZM2325.25 8.726c2.19 0 3.98.656 5.39 1.968 1.4 1.312 2.1 3.292 2.1 5.939v10.51h-.65V16.565c0-2.358-.61-4.148-1.83-5.371-1.22-1.246-2.89-1.869-5.01-1.869-2.21 0-3.99.7-5.32 2.102-1.34 1.38-2 3.425-2 6.139v9.575h-.7V2.453h.7v11.41c.43-1.668 1.31-2.935 2.62-3.803 1.31-.89 2.88-1.334 4.7-1.334ZM2346.57 26.774c2.1 0 3.86-.512 5.29-1.535 1.42-1.023 2.29-2.425 2.59-4.204h.69c-.33 1.89-1.25 3.425-2.77 4.604-1.49 1.157-3.43 1.735-5.8 1.735-1.73 0-3.27-.367-4.63-1.1-1.36-.735-2.43-1.802-3.21-3.204-.76-1.401-1.14-3.047-1.14-4.938 0-1.89.38-3.536 1.14-4.937.78-1.402 1.85-2.47 3.21-3.203 1.36-.734 2.9-1.101 4.63-1.101 1.82 0 3.37.378 4.66 1.134 1.29.734 2.26 1.69 2.91 2.87.66 1.178 1 2.424 1 3.736 0 .8-.01 1.401-.04 1.802h-16.82c.02 1.846.42 3.392 1.18 4.637.78 1.246 1.79 2.18 3.03 2.803 1.25.6 2.61.9 4.08.9Zm0-17.283c-1.47 0-2.83.312-4.08.934-1.24.6-2.25 1.524-3.03 2.77-.76 1.245-1.16 2.791-1.18 4.637h16.24c.11-1.846-.2-3.392-.94-4.637-.71-1.246-1.7-2.17-2.97-2.77-1.24-.622-2.59-.934-4.04-.934ZM2463.7 27.243c-.39 0-.71-.122-.97-.367a1.255 1.255 0 0 1-.38-.934c0-.378.13-.69.38-.934.26-.245.58-.367.97-.367a1.277 1.277 0 0 1 1.31 1.3 1.278 1.278 0 0 1-1.31 1.301ZM2470.64 3.727v23.421h-1.56V3.727h1.56ZM2487.16 27.412c-2.23 0-4.25-.5-6.04-1.501-1.8-1.024-3.2-2.447-4.22-4.27-1.01-1.825-1.52-3.882-1.52-6.173 0-2.313.51-4.37 1.52-6.173 1.02-1.823 2.42-3.236 4.22-4.237 1.79-1.023 3.81-1.535 6.04-1.535 2.24 0 4.25.512 6.05 1.535 1.79 1.001 3.2 2.414 4.21 4.237 1.01 1.802 1.52 3.86 1.52 6.173 0 2.29-.51 4.348-1.52 6.172a10.935 10.935 0 0 1-4.21 4.27c-1.8 1.002-3.81 1.502-6.05 1.502Zm0-1.334c1.91 0 3.64-.434 5.18-1.302 1.54-.867 2.75-2.102 3.63-3.703.9-1.602 1.35-3.47 1.35-5.605 0-2.158-.45-4.037-1.35-5.639-.88-1.601-2.09-2.836-3.63-3.703-1.54-.868-3.27-1.301-5.18-1.301-1.91 0-3.64.433-5.18 1.3-1.54.868-2.76 2.103-3.66 3.704-.9 1.602-1.35 3.481-1.35 5.639 0 2.135.45 4.003 1.35 5.605.9 1.601 2.12 2.836 3.66 3.703 1.54.868 3.27 1.302 5.18 1.302ZM2302.35 40.503c0-.79.18-1.497.54-2.12.36-.63.84-1.117 1.47-1.462.62-.354 1.31-.53 2.07-.53.93 0 1.73.215 2.39.645a3.633 3.633 0 0 1 1.45 1.797h-.98c-.24-.545-.6-.972-1.09-1.279-.49-.307-1.08-.46-1.77-.46-.61 0-1.16.137-1.66.414-.48.277-.86.676-1.14 1.198-.28.515-.42 1.114-.42 1.797 0 .684.14 1.283.42 1.797.28.515.66.91 1.14 1.187.5.276 1.05.414 1.66.414.69 0 1.28-.15 1.77-.449.49-.307.85-.73 1.09-1.267h.98c-.3.768-.79 1.363-1.45 1.786-.67.422-1.47.633-2.39.633-.76 0-1.45-.172-2.07-.518a3.835 3.835 0 0 1-1.47-1.463c-.36-.622-.54-1.329-.54-2.12ZM2328.77 44.616c-.77 0-1.47-.173-2.09-.519a3.885 3.885 0 0 1-1.49-1.463c-.36-.63-.54-1.34-.54-2.13 0-.792.18-1.498.54-2.12.36-.63.86-1.118 1.49-1.463.62-.354 1.32-.53 2.09-.53.78 0 1.49.176 2.12.53.62.345 1.12.833 1.47 1.463.36.622.54 1.328.54 2.12 0 .79-.18 1.5-.54 2.13-.35.623-.85 1.11-1.47 1.463-.63.346-1.34.519-2.12.519Zm0-.703c.63 0 1.18-.138 1.67-.415.5-.276.89-.672 1.17-1.186.29-.523.43-1.125.43-1.809 0-.683-.14-1.282-.43-1.797a2.92 2.92 0 0 0-1.17-1.186c-.49-.277-1.04-.415-1.67-.415-.62 0-1.17.138-1.66.415-.5.276-.89.672-1.17 1.186-.29.515-.43 1.114-.43 1.797 0 .684.14 1.286.43 1.809.28.514.67.91 1.17 1.186a3.31 3.31 0 0 0 1.66.415ZM2353.81 44.529h-.84l-4.61-6.774v6.774h-.84v-8.052h.84l4.61 6.762v-6.762h.84v8.052ZM2371.31 44.616c-.54 0-1.03-.092-1.45-.277a2.399 2.399 0 0 1-.98-.771 2 2 0 0 1-.38-1.106h.88c.04.391.22.737.54 1.036.32.292.78.438 1.39.438.57 0 1.01-.138 1.34-.415.33-.284.5-.64.5-1.071 0-.346-.09-.622-.27-.83a1.653 1.653 0 0 0-.68-.472 10.17 10.17 0 0 0-1.12-.345c-.56-.146-1-.288-1.33-.426-.32-.139-.6-.354-.83-.646-.23-.291-.35-.687-.35-1.186 0-.415.11-.784.34-1.106.22-.33.53-.588.94-.772.4-.184.87-.276 1.39-.276.77 0 1.39.184 1.86.553.48.36.76.829.83 1.405h-.91c-.06-.33-.24-.622-.56-.875-.32-.262-.75-.392-1.29-.392-.5 0-.92.13-1.25.392-.33.253-.5.602-.5 1.048 0 .338.09.61.27.818.19.207.41.364.68.472.28.108.65.223 1.12.346.54.146.98.291 1.32.437.33.139.61.354.84.645.23.292.35.684.35 1.175 0 .377-.11.734-.31 1.072-.21.338-.52.61-.92.818-.41.207-.89.31-1.46.31ZM2389.51 36.477v5.068c0 .799.19 1.39.58 1.774.4.384.94.576 1.62.576.69 0 1.22-.188 1.6-.564.39-.384.59-.98.59-1.786v-5.068h.83v5.057c0 1.021-.28 1.79-.85 2.304-.55.514-1.28.772-2.18.772-.9 0-1.63-.258-2.19-.772-.56-.515-.84-1.283-.84-2.304v-5.057h.84ZM2410.51 43.872h2.99v.657h-3.83v-8.052h.84v7.395ZM2432.66 36.477v.668h-2.31v7.384h-.84v-7.384h-2.32v-.668h5.47ZM2447.91 36.477v8.052h-.84v-8.052h.84ZM2469.18 44.529h-.83l-4.62-6.774v6.774h-.83v-8.052h.83l4.62 6.762v-6.762h.83v8.052ZM2490.72 38.833c-.24-.53-.61-.945-1.1-1.244-.48-.307-1.06-.461-1.72-.461-.62 0-1.17.138-1.67.415-.49.276-.88.672-1.16 1.186-.29.507-.43 1.098-.43 1.774 0 .676.14 1.271.43 1.786.28.514.67.91 1.16 1.186.5.277 1.05.415 1.67.415.58 0 1.11-.119 1.57-.357.47-.246.84-.591 1.12-1.037.28-.453.45-.979.49-1.578h-3.51v-.657h4.39v.588a3.995 3.995 0 0 1-.6 1.924 3.827 3.827 0 0 1-1.44 1.347c-.6.33-1.27.496-2.02.496-.77 0-1.47-.173-2.1-.519a4.028 4.028 0 0 1-1.49-1.463c-.35-.63-.53-1.34-.53-2.13 0-.792.18-1.498.53-2.12.37-.63.87-1.118 1.49-1.463.63-.354 1.33-.53 2.1-.53.89 0 1.67.215 2.34.645.67.43 1.15 1.029 1.46 1.797h-.98ZM2372.55 3.719v1.268h-10.95v9.775h9.57v1.268h-9.57v11.11h-1.55V3.72h12.5ZM2375.7 18.064c0-1.868.37-3.503 1.14-4.904.78-1.402 1.85-2.48 3.21-3.237 1.38-.756 2.95-1.134 4.7-1.134 1.98 0 3.66.467 5.04 1.401 1.38.934 2.35 2.125 2.9 3.57V9.023h1.55v18.116h-1.55v-4.77c-.55 1.467-1.53 2.68-2.94 3.636-1.38.934-3.05 1.401-5 1.401-1.75 0-3.32-.378-4.7-1.134-1.36-.779-2.43-1.869-3.21-3.27-.77-1.423-1.14-3.07-1.14-4.938Zm16.99 0c0-1.579-.35-2.97-1.04-4.17a6.848 6.848 0 0 0-2.76-2.803c-1.17-.667-2.49-1-3.94-1-1.52 0-2.85.322-4 .967-1.16.623-2.05 1.535-2.7 2.736-.64 1.2-.97 2.624-.97 4.27 0 1.646.33 3.07.97 4.27.65 1.202 1.54 2.125 2.7 2.77 1.17.645 2.51.968 4 .968 1.45 0 2.77-.323 3.94-.968a7.095 7.095 0 0 0 2.8-2.803c.67-1.223 1-2.635 1-4.237ZM2401.46 13.797c.58-1.468 1.56-2.67 2.94-3.603 1.38-.935 3.05-1.402 5.01-1.402 1.75 0 3.3.378 4.66 1.135a7.911 7.911 0 0 1 3.21 3.236c.78 1.401 1.18 3.036 1.18 4.904 0 1.869-.4 3.515-1.18 4.938a8.129 8.129 0 0 1-3.21 3.27c-1.36.756-2.91 1.134-4.66 1.134-1.96 0-3.64-.467-5.05-1.4-1.38-.935-2.35-2.136-2.9-3.604v4.737h-1.55V2.453h1.55v11.344Zm15.41 4.27c0-1.645-.33-3.07-.97-4.27a6.445 6.445 0 0 0-2.73-2.736c-1.15-.645-2.49-.967-4.01-.967-1.45 0-2.76.333-3.93 1-1.18.645-2.1 1.58-2.77 2.803-.66 1.201-1 2.591-1 4.17 0 1.602.34 3.014 1 4.238a7.151 7.151 0 0 0 2.77 2.802c1.17.645 2.48.968 3.93.968 1.52 0 2.86-.323 4.01-.968a6.65 6.65 0 0 0 2.73-2.769c.64-1.201.97-2.625.97-4.27ZM2424.7 12.76c.46-1.335 1.28-2.347 2.45-3.036 1.17-.712 2.67-1.068 4.49-1.068v1.568h-.52c-1.84 0-3.37.512-4.59 1.535-1.22 1.001-1.83 2.647-1.83 4.938V27.14h-1.56V9.023h1.56v3.737ZM2436.02 4.985c-.37 0-.68-.111-.94-.333-.25-.245-.38-.568-.38-.968 0-.378.13-.69.38-.934.26-.245.57-.367.94-.367.36 0 .67.122.93.367.25.244.38.556.38.934 0 .4-.13.723-.38.968-.26.222-.57.333-.93.333Zm.76 4.037V27.14h-1.56V9.022h1.56ZM2441.5 18.064c0-1.89.38-3.536 1.14-4.938.79-1.4 1.86-2.469 3.22-3.203 1.38-.756 2.96-1.134 4.73-1.134 2.35 0 4.27.567 5.77 1.702 1.52 1.134 2.46 2.658 2.83 4.57h-1.62c-.3-1.556-1.09-2.78-2.35-3.67-1.25-.89-2.79-1.334-4.63-1.334-1.38 0-2.64.3-3.77.9-1.12.579-2.03 1.48-2.72 2.703-.67 1.201-1.01 2.67-1.01 4.404 0 1.757.34 3.236 1.01 4.438.69 1.2 1.6 2.102 2.72 2.702 1.13.6 2.39.901 3.77.901 1.84 0 3.38-.445 4.63-1.335 1.26-.89 2.05-2.113 2.35-3.67h1.62c-.37 1.891-1.31 3.415-2.83 4.571-1.52 1.157-3.45 1.735-5.77 1.735-1.77 0-3.35-.378-4.73-1.134-1.36-.756-2.43-1.835-3.22-3.236-.76-1.424-1.14-3.081-1.14-4.972Z" />
  </g>
  <g fill="#C9CBCF" clip-path="url(#q)">
    <path d="M2630.34 31.288c1.99 0 3.56-.426 4.71-1.277.56-.412 1-.946 1.3-1.558.3-.613.44-1.285.41-1.96a3.682 3.682 0 0 0-.51-1.991 4.009 4.009 0 0 0-1.67-1.402c-1.01-.478-2.07-.84-3.17-1.08-1.24-.3-2.18-.558-2.81-.772a3.578 3.578 0 0 1-1.28-.672 1.242 1.242 0 0 1-.34-.855c0-.282.08-.558.24-.799.15-.24.37-.436.63-.563a4.103 4.103 0 0 1 2.24-.447c.85.003 1.67.253 2.36.715.43.288.76.695.93 1.166a.657.657 0 0 0 .72.443l2.03-.358a.496.496 0 0 0 .35-.207.626.626 0 0 0 .09-.185.68.68 0 0 0 0-.201 4.49 4.49 0 0 0-1.98-2.724 7.926 7.926 0 0 0-4.53-1.22c-1.85 0-3.35.416-4.48 1.248-.54.377-.98.874-1.27 1.449a3.84 3.84 0 0 0-.42 1.848c-.02.662.15 1.317.5 1.891a4.125 4.125 0 0 0 1.72 1.316c1.04.465 2.12.831 3.24 1.094 1.24.317 2.17.583 2.77.797.45.123.86.36 1.18.687.21.266.31.594.3.926.01.303-.06.604-.21.874-.14.27-.35.5-.62.67-.66.408-1.45.604-2.24.562a4.873 4.873 0 0 1-2.65-.676 2.931 2.931 0 0 1-1.19-1.387.647.647 0 0 0-.27-.311.643.643 0 0 0-.4-.09l-2.06.304a.506.506 0 0 0-.2.07.437.437 0 0 0-.16.146.489.489 0 0 0-.09.195c-.01.07-.01.142.01.211a5.028 5.028 0 0 0 2.1 2.896c1.23.818 2.8 1.227 4.72 1.227ZM2641.46 30.34c.01.143.07.28.17.38.11.1.25.157.4.157h1.98c.15 0 .29-.057.4-.157.1-.1.16-.237.16-.38v-7.343a6.28 6.28 0 0 1 .55-2.86 3.47 3.47 0 0 1 1.46-1.556c.62-.32 1.31-.483 2.01-.476.72-.03 1.43.14 2.05.49.52.319.94.764 1.22 1.291.28.547.48 1.133.57 1.738.1.598.16 1.203.16 1.809v6.908c0 .07.02.14.04.206a.48.48 0 0 0 .13.174c.05.05.11.09.18.116.07.027.14.04.22.04h1.97c.08 0 .15-.013.22-.04a.51.51 0 0 0 .18-.116c.05-.05.1-.109.12-.174a.498.498 0 0 0 .05-.206v-7.866c-.01-.545-.05-1.088-.13-1.627-.1-.645-.27-1.28-.5-1.892a6.053 6.053 0 0 0-1.07-1.787 5.038 5.038 0 0 0-1.81-1.334c-.86-.36-1.8-.532-2.75-.504a7.473 7.473 0 0 0-3.05.59c-.42.186-.82.416-1.19.686a.648.648 0 0 1-.62.076.572.572 0 0 1-.25-.19.622.622 0 0 1-.13-.286.462.462 0 0 0-.14-.331.507.507 0 0 0-.35-.137h-1.68c-.15 0-.29.056-.4.158a.517.517 0 0 0-.17.382V30.34ZM2665.45 31.32c1.84 0 3.34-.464 4.52-1.391.42-.329 1.18-.072 1.18.443 0 .14.06.273.16.372.1.099.24.154.39.154h1.6a.575.575 0 0 0 .52-.33.488.488 0 0 0 .04-.206v-8.803c0-.633-.03-1.226-.09-1.788a4.365 4.365 0 0 0-.47-1.57 4.46 4.46 0 0 0-2.31-2.188 9.082 9.082 0 0 0-3.7-.715c-1.82 0-3.29.384-4.39 1.152a5.47 5.47 0 0 0-2.06 2.599c-.03.066-.03.137-.03.207.01.07.03.137.06.2a.58.58 0 0 0 .15.157c.05.043.12.074.19.09l1.8.53c.15.038.31.023.45-.043a.651.651 0 0 0 .3-.315c.26-.558.7-1.021 1.25-1.323.7-.376 1.48-.57 2.28-.561 1.25 0 2.14.252 2.67.758.51.49.81 1.137.87 1.823a.507.507 0 0 1-.12.37.51.51 0 0 1-.35.188c-1.12.146-2.2.304-3.27.465-1.09.15-2.17.364-3.22.643a5.839 5.839 0 0 0-2.79 1.67c-.66.802-.99 1.8-.95 2.817-.01.795.2 1.578.6 2.274.43.7 1.05 1.274 1.8 1.656.9.448 1.9.676 2.92.665Zm.54-2.4c-.98 0-1.7-.214-2.17-.643a2.067 2.067 0 0 1-.51-.694 2.003 2.003 0 0 1-.18-.833c-.02-.267.03-.534.14-.782.1-.247.27-.469.48-.648.46-.37.99-.651 1.57-.83.77-.208 1.55-.372 2.34-.49.75-.113 1.58-.233 2.49-.357a.563.563 0 0 1 .45.129c.06.052.11.117.14.19.03.072.04.15.04.228 0 .176-.03.358-.04.551-.03.4-.12.796-.25 1.176a3.462 3.462 0 0 1-.75 1.43c-.4.483-.91.872-1.49 1.137a5.3 5.3 0 0 1-2.26.422v.015ZM2679.11 37.075c0 .143.06.28.16.381.11.102.25.158.4.158h1.95c.15 0 .29-.056.4-.158.1-.1.16-.238.16-.381v-6.05c.01-.11.05-.215.12-.306a.687.687 0 0 1 .58-.29c.11.003.23.033.33.088.28.156.58.287.89.394.79.271 1.62.405 2.45.393 1.36.036 2.7-.334 3.83-1.058a7.047 7.047 0 0 0 2.48-2.86c.6-1.282.9-2.675.88-4.08a9.299 9.299 0 0 0-.88-4.08 6.858 6.858 0 0 0-2.51-2.86 6.884 6.884 0 0 0-3.84-1.051c-.9-.013-1.8.15-2.64.479-.45.173-.87.398-1.26.668a.504.504 0 0 1-.47.034.463.463 0 0 1-.19-.15.45.45 0 0 1-.09-.22.368.368 0 0 0-.12-.275.4.4 0 0 0-.28-.115h-1.76c-.07 0-.14.014-.21.04a.666.666 0 0 0-.19.118c-.05.05-.09.11-.12.175a.493.493 0 0 0-.04.207l-.03 20.799Zm7.01-8.42c-1.49 0-2.58-.501-3.28-1.502-.69-1.001-1.03-2.286-1.01-3.854 0-1.571.34-2.852 1.01-3.844.68-.992 1.74-1.487 3.18-1.487.9-.035 1.78.216 2.51.715a4.179 4.179 0 0 1 1.45 1.923 7.1 7.1 0 0 1 .48 2.693c.02.926-.14 1.847-.46 2.72a4.253 4.253 0 0 1-1.44 1.92c-.7.497-1.56.75-2.44.715ZM2698.72 30.342c0 .142.06.279.17.379.1.1.25.157.4.157h1.94c.07 0 .15-.013.22-.04a.622.622 0 0 0 .18-.116c.05-.05.09-.11.12-.174a.487.487 0 0 0 .04-.206V10.806c0-.144-.05-.281-.16-.382a.587.587 0 0 0-.4-.158h-1.94a.575.575 0 0 0-.4.159.515.515 0 0 0-.17.38v19.537ZM2714.68 31.32a8.02 8.02 0 0 0 4.18-1.109 6.781 6.781 0 0 0 2.53-2.614c.04-.066.06-.14.06-.213a.54.54 0 0 0-.05-.216.465.465 0 0 0-.13-.178.59.59 0 0 0-.2-.108l-1.95-.586a.603.603 0 0 0-.39.02.56.56 0 0 0-.3.252c-.83 1.33-2.12 1.998-3.89 1.998a4.316 4.316 0 0 1-1.7-.256 4.164 4.164 0 0 1-1.44-.895 4.866 4.866 0 0 1-1.26-2.67.544.544 0 0 1 .02-.22.49.49 0 0 1 .11-.192.548.548 0 0 1 .41-.171h10.66c.14.001.28-.05.38-.146a.476.476 0 0 0 .17-.362 10.03 10.03 0 0 0-.7-4.19 6.439 6.439 0 0 0-2.53-3.043 7.535 7.535 0 0 0-4.11-1.073 8.03 8.03 0 0 0-4.08.955 7 7 0 0 0-2.73 2.817 9.156 9.156 0 0 0-.97 4.29c-.03 1.431.31 2.847.98 4.123a7.203 7.203 0 0 0 2.77 2.764 8.541 8.541 0 0 0 4.16 1.022Zm-.02-13.39c2.2 0 3.53 1.113 3.97 3.339.02.075.01.151-.01.224a.41.41 0 0 1-.11.198.511.511 0 0 1-.41.179h-7.32a.55.55 0 0 1-.42-.184.535.535 0 0 1-.11-.204.58.58 0 0 1 0-.227c.18-.88.63-1.688 1.3-2.317.76-.687 1.78-1.023 3.1-1.023l.01.015ZM2735.22 30.958a.545.545 0 0 0 .33-.18.488.488 0 0 0 .13-.342v-1.412a.59.59 0 0 0-.05-.227.691.691 0 0 0-.15-.186.6.6 0 0 0-.45-.134c-.69.07-1.38.07-2.06 0a2.19 2.19 0 0 1-.97-.303 2.033 2.033 0 0 1-.7-.695c-.2-.348-.31-.737-.31-1.133v-7.734c0-.143.06-.28.16-.382a.587.587 0 0 1 .4-.158h3.58c.15 0 .29-.058.4-.159.1-.1.16-.238.16-.38v-1.277c0-.143-.06-.28-.16-.382a.587.587 0 0 0-.4-.158h-3.58a.55.55 0 0 1-.39-.16.515.515 0 0 1-.17-.38v-3.128c0-.143-.06-.28-.17-.381a.57.57 0 0 0-.39-.16h-1.96a.551.551 0 0 0-.39.16.515.515 0 0 0-.17.38v3.13c0 .142-.06.279-.16.38a.593.593 0 0 1-.4.16h-1.91a.63.63 0 0 0-.22.04.624.624 0 0 0-.18.117c-.05.05-.09.11-.12.176a.49.49 0 0 0-.04.206v1.276c0 .143.06.28.16.38.11.102.25.16.4.16h1.91c.07 0 .15.014.21.041.07.028.13.067.19.118.05.05.09.11.12.175.03.065.04.136.04.206v6.29c0 .822.01 1.56.03 2.212.04.668.23 1.32.56 1.91.37.684.97 1.227 1.71 1.54.81.34 1.68.522 2.57.534.81.028 1.63-.018 2.44-.14ZM2578 38.79c1.29 0 2.52-.487 3.43-1.355a4.523 4.523 0 0 0 1.42-3.274c0-.608-.13-1.21-.37-1.773a4.72 4.72 0 0 0-1.05-1.502 4.94 4.94 0 0 0-3.43-1.355c-1.28 0-2.51.488-3.42 1.356a4.523 4.523 0 0 0-1.42 3.274 4.6 4.6 0 0 0 1.42 3.273 4.966 4.966 0 0 0 3.42 1.357ZM2602.64 34.822a4.939 4.939 0 0 0 3.43-1.355c.45-.43.81-.94 1.05-1.502s.37-1.165.37-1.773c0-1.228-.51-2.406-1.42-3.274a4.965 4.965 0 0 0-3.43-1.355c-1.28 0-2.51.489-3.42 1.357a4.6 4.6 0 0 0-1.42 3.272c0 1.228.51 2.406 1.42 3.274a4.959 4.959 0 0 0 3.42 1.356Z" />
    <path d="M2566.08 46.024a1.262 1.262 0 0 1-.86-.323 1.184 1.184 0 0 1-.27-.377c-.07-.141-.1-.294-.11-.449 0-.155.03-.309.09-.453.03-.078 1.19-3.258 1.72-14.033.29-5.86.3-8.435-.19-14.19-.48-5.509.3-8.748 2.3-9.635 2.8-1.23 5.34.754 7.8 2.677 2.71 2.121 5.51 4.297 9.27 3.774 2.56-.368 3.5-2.661 4.64-6.119.89-2.691 1.8-5.47 4.49-5.86 1.26-.176 2.66.293 4.13 1.399 7.1 5.31 15.45 24.125 16.85 37.99.02.154 0 .309-.05.457-.04.147-.12.284-.22.403-.11.12-.23.218-.37.29-.15.073-.3.117-.46.132-.33.03-.65-.065-.9-.263a1.156 1.156 0 0 1-.44-.792c-1.44-14.256-9.95-31.915-15.92-36.373-.91-.672-1.71-1.004-2.28-.922-1.18.168-1.83 2.145-2.52 4.243-1.05 3.172-2.35 7.118-6.61 7.731-4.83.696-8.36-2.062-11.19-4.297-2.37-1.848-3.88-2.95-5.23-2.344-.57.25-1.31 2.453-.89 7.31.51 5.887.5 8.513.2 14.49-.57 11.405-1.83 14.632-1.88 14.765-.08.218-.23.408-.43.545-.2.137-.43.215-.67.224Z" />
    <path d="M2571.8 36.892a.652.652 0 0 1-.34-.099.622.622 0 0 1-.23-.257.59.59 0 0 1 .12-.651c.06-.056.13-.1.21-.13l4.81-1.977-5.06-.985a.727.727 0 0 1-.22-.087.595.595 0 0 1-.16-.162.432.432 0 0 1-.09-.21.44.44 0 0 1 0-.229.435.435 0 0 1 .09-.211c.04-.065.1-.12.17-.163a.64.64 0 0 1 .46-.087l6.97 1.36a.64.64 0 0 1 .34.18c.09.091.14.208.15.332.02.124-.01.25-.08.358a.57.57 0 0 1-.28.243l-6.62 2.724a.606.606 0 0 1-.24.05ZM2608.86 31.176h-.04l-7.19-.371a.6.6 0 0 1-.56-.41.568.568 0 0 1 .03-.364.607.607 0 0 1 .25-.277l6.06-3.575c.14-.08.31-.105.46-.07a.594.594 0 0 1 .46.705.607.607 0 0 1-.28.365l-4.39 2.586 5.23.27c.16.009.31.079.42.195.11.115.17.267.16.422a.607.607 0 0 1-.2.374.648.648 0 0 1-.41.15ZM2589.71 35.204a4.64 4.64 0 0 1-2.8-.79 4.38 4.38 0 0 1-1.72-2.269.748.748 0 0 1 .06-.585.78.78 0 0 1 .46-.384.84.84 0 0 1 .62.032c.2.09.35.25.42.445.54 1.563 1.95 2.242 3.87 1.91 1.92-.332 2.95-1.461 2.92-3.102 0-.207.08-.406.23-.552a.867.867 0 0 1 .58-.23c.22 0 .43.083.58.23.15.146.24.345.24.552.05 2.415-1.58 4.204-4.26 4.669-.4.059-.8.083-1.2.074ZM2576.04 28.248a.902.902 0 0 1-.18 0 .78.78 0 0 1-.51-.345.728.728 0 0 1-.11-.589c.41-1.676 2.64-4.274 5.41-4.688 2.76-.414 5.58 1.563 6.05 3.083.03.098.04.201.03.303a.804.804 0 0 1-.3.524.86.86 0 0 1-.29.142.853.853 0 0 1-.62-.064.78.78 0 0 1-.39-.464c-.23-.75-2.23-2.285-4.23-1.98-1.99.304-3.79 2.297-4.08 3.516a.785.785 0 0 1-.29.406.877.877 0 0 1-.49.156ZM2591.95 25.649a.8.8 0 0 1-.23-.032.83.83 0 0 1-.49-.37.975.975 0 0 1-.1-.29.783.783 0 0 1 .03-.305c.41-1.418 1.89-3.934 4.74-4.368 2.59-.39 5.58 1.27 6.42 2.966a.77.77 0 0 1-.15.861.757.757 0 0 1-.26.178.853.853 0 0 1-.63.023.882.882 0 0 1-.28-.163.842.842 0 0 1-.18-.25c-.51-1.028-2.75-2.388-4.68-2.091-2.04.309-3.13 2.262-3.43 3.255a.745.745 0 0 1-.28.414.85.85 0 0 1-.48.172Z" />
    <path fill-rule="evenodd" d="M2596.37 28.44a6.65 6.65 0 0 1-4.58-1.816c-1.2-1.15-1.88-2.707-1.89-4.333a4.598 4.598 0 0 0-3.03.55c.23.644.36 1.326.36 2.02 0 1.642-.69 3.216-1.9 4.376-1.21 1.161-2.86 1.814-4.57 1.816-1.72-.002-3.37-.655-4.58-1.816a6.101 6.101 0 0 1-1.87-3.782l-1.27.223a.953.953 0 0 1-.19.027 1.034 1.034 0 0 1-.65-.23.975.975 0 0 1-.35-.575.971.971 0 0 1 .01-.38.924.924 0 0 1 .16-.348.935.935 0 0 1 .28-.265c.11-.07.24-.117.37-.14l1.78-.315a6.183 6.183 0 0 1 1.73-2.965 6.653 6.653 0 0 1 4.58-1.815c1.71.002 3.36.655 4.57 1.815.21.198.4.409.57.63a6.732 6.732 0 0 1 4.31-.762c.31-.928.85-1.782 1.58-2.484a6.65 6.65 0 0 1 4.58-1.816c1.71.002 3.36.655 4.57 1.816.28.262.52.546.74.847l.05-.01 1.54-.27c.27-.046.54.01.76.157.23.146.38.37.43.624a.95.95 0 0 1-.16.73c-.16.213-.39.36-.66.407l-1.05.185c.16.55.25 1.124.25 1.706 0 1.642-.68 3.216-1.9 4.377-1.21 1.16-2.86 1.814-4.57 1.816Zm0-10.432c-1.18.001-2.3.448-3.13 1.243a4.152 4.152 0 0 0-1.3 2.996c0 1.124.47 2.2 1.3 2.995a4.53 4.53 0 0 0 3.13 1.244c1.17-.002 2.3-.45 3.13-1.244a4.15 4.15 0 0 0 1.3-2.995c0-1.124-.47-2.201-1.3-2.996a4.542 4.542 0 0 0-3.13-1.243Zm-15.61 2.614c-1.18.002-2.3.45-3.14 1.244a4.189 4.189 0 0 0-1.3 2.995c.01 1.124.47 2.2 1.3 2.995a4.573 4.573 0 0 0 3.14 1.244c1.17-.002 2.3-.45 3.13-1.244a4.189 4.189 0 0 0 1.3-2.995 4.183 4.183 0 0 0-1.3-2.993 4.57 4.57 0 0 0-3.13-1.242v-.004Z" clip-rule="evenodd" />
  </g>
  <defs>
    <linearGradient id="a" x1="145" x2="145" y1=".001" y2="47.496" gradientUnits="userSpaceOnUse">
      <stop stop-color="#E4E5E7" />
      <stop offset="1" stop-color="#E4E5E7" stop-opacity=".7" />
    </linearGradient>
    <linearGradient id="c" x1="400.559" x2="400.559" y1=".258" y2="47.82" gradientUnits="userSpaceOnUse">
      <stop stop-color="#E4E5E7" />
      <stop offset="1" stop-color="#E4E5E7" stop-opacity=".7" />
    </linearGradient>
    <linearGradient id="d" x1="633.855" x2="633.855" y1="0" y2="48" gradientUnits="userSpaceOnUse">
      <stop stop-color="#E4E5E7" />
      <stop offset="1" stop-color="#E4E5E7" stop-opacity=".7" />
    </linearGradient>
    <linearGradient id="e" x1="868.855" x2="868.855" y1="0" y2="48" gradientUnits="userSpaceOnUse">
      <stop stop-color="#E4E5E7" />
      <stop offset="1" stop-color="#E4E5E7" stop-opacity=".7" />
    </linearGradient>
    <linearGradient id="f" x1="1054" x2="1054" y1="-2" y2="46" gradientUnits="userSpaceOnUse">
      <stop stop-color="#E4E5E7" />
      <stop offset="1" stop-color="#E4E5E7" stop-opacity=".7" />
    </linearGradient>
    <linearGradient id="g" x1="1054" x2="1054" y1="-2" y2="46" gradientUnits="userSpaceOnUse">
      <stop stop-color="#E4E5E7" />
      <stop offset="1" stop-color="#E4E5E7" stop-opacity=".7" />
    </linearGradient>
    <linearGradient id="h" x1="1054" x2="1054" y1="-2" y2="46" gradientUnits="userSpaceOnUse">
      <stop stop-color="#E4E5E7" />
      <stop offset="1" stop-color="#E4E5E7" stop-opacity=".7" />
    </linearGradient>
    <linearGradient id="i" x1="1054" x2="1054" y1="-2" y2="46" gradientUnits="userSpaceOnUse">
      <stop stop-color="#E4E5E7" />
      <stop offset="1" stop-color="#E4E5E7" stop-opacity=".7" />
    </linearGradient>
    <linearGradient id="j" x1="1054" x2="1054" y1="-2" y2="46" gradientUnits="userSpaceOnUse">
      <stop stop-color="#E4E5E7" />
      <stop offset="1" stop-color="#E4E5E7" stop-opacity=".7" />
    </linearGradient>
    <linearGradient id="l" x1="1221.21" x2="1221.21" y1=".206" y2="48.003" gradientUnits="userSpaceOnUse">
      <stop stop-color="#E4E5E7" />
      <stop offset="1" stop-color="#E4E5E7" stop-opacity=".7" />
    </linearGradient>
    <linearGradient id="n" x1="1485.65" x2="1485.65" y1="0" y2="48" gradientUnits="userSpaceOnUse">
      <stop stop-color="#E4E5E7" />
      <stop offset="1" stop-color="#E4E5E7" stop-opacity=".7" />
    </linearGradient>
    <clipPath id="b">
      <path fill="#fff" d="M319 0h162.857v48H319z" />
    </clipPath>
    <clipPath id="k">
      <path fill="#fff" d="M1155.86 0h130v48h-130z" />
    </clipPath>
    <clipPath id="m">
      <path fill="#fff" d="M1349.86 0h271v48h-271z" />
    </clipPath>
    <clipPath id="o">
      <path fill="#fff" d="M1684.86 0h208v48h-208z" />
    </clipPath>
    <clipPath id="p">
      <path fill="#fff" d="M2245.86 0h255v48h-255z" />
    </clipPath>
    <clipPath id="q">
      <path fill="#fff" d="M2564.86 0h172v48h-172z" />
    </clipPath>
  </defs>
</svg>