<svg xmlns="http://www.w3.org/2000/svg" width="3031" height="48" fill="none">
  <path fill="url(#a)" fill-rule="evenodd" d="M84.256 7.631a2.08 2.08 0 0 1 1.177 2.756c-.362.83-1.177 1.312-2.038 1.312-.271 0-.588-.044-.86-.175C77.056 9.294 71.215 8.2 65.283 8.2c-1.223 0-2.174-.962-2.174-2.1 0-1.137.997-2.099 2.174-2.099a49.241 49.241 0 0 1 18.973 3.63Zm-.012 8.485a2.08 2.08 0 0 1 1.178 2.756c-.363.83-1.178 1.312-2.038 1.312-.272 0-.589-.044-.86-.175-5.48-2.23-11.275-3.324-17.253-3.324-6.022 0-11.818 1.093-17.252 3.28-1.132.438-2.4-.044-2.853-1.137-.452-1.094.046-2.318 1.178-2.756 5.977-2.405 12.316-3.63 18.927-3.63 6.566 0 12.95 1.225 18.973 3.674Zm-6.792 8.398c.272-1.137-.498-2.23-1.675-2.493a50.418 50.418 0 0 0-10.506-1.093c-6.61 0-12.95 1.224-18.927 3.63-1.132.438-1.63 1.662-1.178 2.756.363.83 1.178 1.312 2.038 1.312.317 0 .589-.088.86-.175 5.434-2.23 11.23-3.324 17.253-3.324 3.124 0 6.339.35 9.554 1.006a2.168 2.168 0 0 0 2.581-1.619Zm-12.135 4.854c1.222 0 2.173.962 2.173 2.1 0 1.137-.996 2.099-2.173 2.099-6.023 0-11.819 1.093-17.253 3.324-.271.088-.543.175-.86.175-.86 0-1.675-.481-2.038-1.312-.452-1.093.046-2.318 1.178-2.756 6.022-2.405 12.361-3.63 18.973-3.63Zm39.81 6.61v1.607h-4.416v-23.94h4.485v9.457c.753-1.158 2.601-2.216 5.1-2.216 4.93 0 7.772 3.67 7.772 8.498 0 4.928-3.15 8.598-7.943 8.598-2.328 0-3.286-.226-4.998-2.004Zm4.211-1.931c2.328 0 4.633-1.582 4.633-4.558s-2.305-4.668-4.633-4.668c-2.294 0-4.639 1.692-4.639 4.668 0 2.943 2.345 4.558 4.639 4.558Zm22.958 3.539h4.348a25.977 25.977 0 0 1-.171-2.943V21.317h-4.553v9.457c0 1.885-1.164 3.207-3.184 3.207-2.123 0-3.081-1.455-3.081-3.273v-9.391h-4.553V31.6c0 3.539 2.327 6.415 6.401 6.415 1.781 0 3.732-.661 4.656-2.182 0 .661.069 1.422.137 1.753Zm16.411-12.731c-1.986 0-3.15 1.488-3.15 3.372v9.359h-4.553v-16.27h4.553v.983c1.259-1.263 3.29-1.155 4.442-1.094.136.008.26.014.369.018 2.853.094 6.007 2.54 6.007 6.112v10.25h-4.553v-9.49c0-1.818-.925-3.24-3.115-3.24Zm48.422 8.2c.205 1.85 1.951 5.025 7.018 5.025 4.416 0 6.539-2.711 6.539-5.356 0-2.381-1.678-4.332-4.998-4.994l-2.397-.496c-.924-.165-1.541-.661-1.541-1.455 0-.925.959-1.62 2.157-1.62 1.918 0 2.636 1.224 2.773 2.183l3.8-.827c-.205-1.753-1.814-4.696-6.607-4.696-3.629 0-6.299 2.414-6.299 5.324 0 2.282 1.472 4.166 4.724 4.861l2.226.496c1.301.265 1.814.86 1.814 1.587 0 .86-.719 1.62-2.225 1.62-1.986 0-2.979-1.19-3.081-2.48l-3.903.827Zm24.597-8.2c-1.917 0-3.047 1.388-3.149 3.174v9.556h-4.554v-23.94h4.554v9.027c1.095-1.257 2.944-1.786 4.553-1.786 4.279 0 6.265 2.877 6.265 6.448v10.251h-4.554v-9.49c0-1.819-.924-3.24-3.115-3.24Zm15.268 2.743c.102-1.488 1.403-3.207 3.765-3.207 2.602 0 3.698 1.587 3.766 3.207h-7.531Zm7.976 4.233c-.548 1.455-1.712 2.48-3.834 2.48-2.26 0-4.142-1.554-4.245-3.704h12.05c0-.016.004-.068.011-.146.019-.242.058-.735.058-1.21 0-5.224-3.116-8.432-8.319-8.432-4.314 0-8.285 3.373-8.285 8.565 0 5.489 4.074 8.696 8.696 8.696 4.142 0 6.812-2.347 7.668-5.158l-3.8-1.091Zm11.833-18.186v23.94h-4.553v-23.94h4.553Zm9.078 23.94v-23.94h-4.553v23.94h4.553Zm-64.856-23.94L185.8 44h-4.827l15.018-30.355h5.034Zm-18.826 7.242h-5.101l3.207 7.263 1.603 3.632.802 1.816 2.852-5.569-1.121-2.38-1.121-2.382-1.121-2.38Zm-13.887 3.968c-1.986 0-3.15 1.488-3.15 3.372v9.359h-4.553v-16.27h4.553v.983c1.259-1.263 3.29-1.155 4.442-1.094.137.008.261.014.37.018 2.853.094 6.007 2.54 6.007 6.112v10.25h-4.554v-9.49c0-1.818-.924-3.24-3.115-3.24Z" clip-rule="evenodd" />
  <g clip-path="url(#b)">
    <path fill="url(#c)" fill-rule="evenodd" d="M398.571.538c2.719 3.142 3.563 11.652 2.16 15.918-.466 1.419-.598 2.918-.329 4.373.274 1.446.548 3.19.548 4.406 0 12.471-10.353 22.587-23.129 22.587-12.77 0-23.128-10.11-23.128-22.587 0-1.215.274-2.96.548-4.405.274-1.456.148-2.955-.318-4.374-1.403-4.26-.559-12.77 2.159-15.918a.834.834 0 0 1 1.316.102l3.348 5.133a2.627 2.627 0 0 0 3.442.546 23.394 23.394 0 0 1 12.639-3.672 23.39 23.39 0 0 1 12.638 3.672c1.124.717 2.615.481 3.442-.546L397.256.64c.296-.455.959-.514 1.315-.102Zm-38.655 24.75c0 9.646 8.029 17.493 17.905 17.493 9.876 0 17.911-7.847 17.917-17.487 0-.31-.011-.627-.028-.937-.356-6.568-4.445-12.188-10.227-14.864a18.015 18.015 0 0 0-7.656-1.686c-2.741 0-5.339.6-7.657 1.68-5.782 2.677-9.871 8.292-10.227 14.865-.016.31-.027.62-.027.936Zm21.089-1.017 4.576 7.75a.479.479 0 0 1 0 .499.508.508 0 0 1-.444.251h-3.721a.52.52 0 0 1-.444-.251l-2.445-4.138-2.723 4.153a.515.515 0 0 1-.433.23h-3.777a.518.518 0 0 1-.455-.262.497.497 0 0 1 .022-.513l5.037-7.505-3.754-6.16a.489.489 0 0 1-.006-.504.517.517 0 0 1 .45-.257h3.749c.18 0 .35.091.444.247l3.924 6.46Zm41.275-11.967h4.774v25.563h-4.774V26.976h-5.393v10.898h-4.774v-25.57h4.774v11.102h5.393V12.304Zm18.503 20.259.998 5.31h4.801l-5.519-25.564h-6.429l-5.267 25.564h4.774l.915-5.31h5.727Zm-.663-3.528h-4.439L437.84 16.8l2.28 12.236Zm17.094 4.175v-5.47c0-.433-.082-.723-.246-.872-.165-.15-.472-.225-.916-.225h-3.359c-2.85 0-4.275-1.349-4.275-4.052v-6.273c0-2.677 1.49-4.01 4.477-4.01h4.566c2.987 0 4.478 1.339 4.478 4.01v3.564h-4.812v-2.917c0-.433-.083-.722-.247-.872-.164-.15-.471-.225-.915-.225h-1.578c-.472 0-.79.075-.954.225-.165.15-.247.439-.247.872v5.144c0 .434.082.723.247.873.164.15.482.224.954.224h3.277c2.904 0 4.357 1.323 4.357 3.972v6.686c0 2.676-1.507 4.009-4.522 4.009h-4.483c-3.014 0-4.521-1.339-4.521-4.01v-3.527h4.768v2.874c0 .434.082.723.246.873.165.15.483.225.954.225h1.578c.444 0 .746-.075.916-.225.17-.15.257-.44.257-.873Zm22.314-20.906h-4.768V33.21c0 .434-.083.722-.247.872-.164.15-.483.225-.954.225h-2.197c-.444 0-.752-.075-.916-.225-.164-.15-.246-.438-.246-.872V12.304h-4.774v21.555c0 2.67 1.507 4.008 4.522 4.008h5.058c3.015 0 4.522-1.332 4.522-4.008V12.304Zm8.713 15.603v9.966h-4.768v-25.57h9.624c3.015 0 4.521 1.339 4.521 4.01v7.58c0 2.215-1.008 3.51-3.03 3.89l4.357 10.09h-5.146l-3.985-9.966h-1.573Zm0-12.039v8.591h3.442c.444 0 .746-.075.915-.224.165-.15.247-.44.247-.873v-6.396c0-.434-.082-.723-.247-.873-.164-.15-.471-.225-.915-.225h-3.442Zm22.818 16.695.998 5.31h4.806l-5.519-25.564h-6.429l-5.267 25.564h4.768l.916-5.31h5.727Zm-.657-3.528h-4.44l2.16-12.236 2.28 12.236Z" clip-rule="evenodd" />
  </g>
  <path fill="url(#d)" fill-rule="evenodd" d="M607.519 4c-1.43 0-2.589 1.12-2.589 2.502v8.33c0 1.382 1.159 2.502 2.589 2.502h14.663v13.332h-14.663c-1.43 0-2.589 1.12-2.589 2.501v8.331c0 1.382 1.159 2.502 2.589 2.502h12.074c1.43 0 2.589-1.12 2.589-2.502V30.672h14.663c1.43 0 2.59-1.12 2.59-2.502v-8.334c0-1.381-1.16-2.502-2.59-2.502h-14.659V6.502c0-1.382-1.16-2.502-2.59-2.502h-12.077Zm163.112 5.978c0-.407-.349-.72-.797-.72h-3.283c-.448 0-.797.336-.797.72v4.616h-5.103c-.449 0-.797.338-.797.72v2.38c0 .407.348.72.797.72h5.103v7.073c0 5.41 2.637 7.911 8.315 7.911h4.627c.449 0 .797-.337.797-.72v-2.38c0-.406-.348-.72-.797-.72h-3.882c-3.088 0-4.183-1.18-4.183-4.114V18.44h8.637c.448-.026.797-.363.797-.747v-2.38c0-.406-.349-.72-.797-.72h-8.637V9.978Zm-15.932 5.34c0-.406-.349-.72-.797-.72v.003H743.87c-.448 0-.797.337-.797.72v2.38c0 .406.349.72.797.72h5.948v11.16h-5.948c-.448 0-.797.337-.797.72v2.38c0 .407.349.72.797.72h16.928c.448 0 .797-.337.797-.72v-2.38c0-.406-.349-.72-.797-.72h-6.099V15.318Zm.198-7.264c-.024-.406-.372-.72-.797-.72h-4.48c-.448 0-.797.337-.797.72v3.054c0 .406.349.72.797.72h4.48c.449 0 .797-.337.797-.72V8.054Zm-20.662 21.527h5.079c.448 0 .797.31.797.72v2.38c0 .383-.349.72-.797.72H722.76c-.449 0-.797-.31-.797-.72v-2.38c0-.383.348-.72.797-.72h6.597V11.158h-5.876c-.448 0-.797-.311-.797-.72V8.053c0-.383.349-.72.797-.72h9.957c.448 0 .797.31.797.72v21.527Zm-25.814-14.12c.944-.867 2.165-1.227 3.858-1.227 4.957 0 7.843 3.226 7.864 9.789 0 6.566-2.911 9.788-7.74 9.788-1.666 0-2.788-.41-3.708-1.226l-1.17-1.08-1.094.24.424 2.863v5.34c0 .383-.349.72-.797.72h-3.287c-.448 0-.797-.31-.797-.72v-24.63c0-.383.349-.72.797-.72h2.24a.8.8 0 0 1 .773.552l.397 1.394h1.071l1.169-1.084Zm-1.594 10.848c0 2.334 1.369 3.56 3.835 3.56 3.013 0 4.357-1.828 4.381-5.89 0-4.018-1.368-5.845-4.381-5.845-2.49 0-3.835 1.226-3.835 3.559v4.616ZM678.425 24c0-6.543 3.362-9.765 9.635-9.765 6.447 0 9.56 3.249 8.811 10.49h-13.617c.198 3.872 1.693 5.531 4.83 5.531 2.018 0 3.509-.674 4.032-2.091a.81.81 0 0 1 .746-.483h2.986c.499 0 .896.433.773.889-.821 3.295-3.91 5.218-8.688 5.218-6.174 0-9.508-3.222-9.508-9.788Zm9.611-6.37c-2.689 0-4.159 1.321-4.631 4.16h8.913c-.075-2.694-1.419-4.16-4.282-4.16Zm-20.44-1.108 1.121-1.084c.972-.866 2.439-1.203 4.303-1.176h2.538c.448 0 .797.31.797.72v2.62c0 .384-.349.721-.797.721h-4.282c-2.637 0-3.981 1.153-3.981 3.368v7.888h5.701c.448 0 .797.31.797.72v2.38c0 .383-.349.72-.797.72h-15.508c-.448 0-.797-.31-.797-.72v-2.38c0-.383.349-.72.797-.72h4.929v-11.16h-4.231c-.448 0-.797-.31-.797-.72v-2.38c0-.383.349-.72.797-.72h7.169c.376 0 .698.214.773.552l.349 1.371h1.119Z" clip-rule="evenodd" />
  <path fill="url(#e)" d="M951.326 15c-6.429 0-11.064 4.05-11.064 10.125s5.217 10.125 11.647 10.125c3.884 0 7.308-1.485 9.428-3.988l-4.455-2.486c-1.176 1.243-2.964 1.968-4.973 1.968-2.79 0-5.16-1.406-6.039-3.656h16.317c.128-.63.204-1.282.204-1.969 0-6.069-4.636-10.119-11.065-10.119Zm-5.509 8.156c.728-2.244 2.72-3.656 5.503-3.656 2.79 0 4.782 1.412 5.504 3.656h-11.007ZM1014.03 15c-6.43 0-11.06 4.05-11.06 10.125s5.22 10.125 11.65 10.125c3.88 0 7.3-1.485 9.42-3.988l-4.45-2.486c-1.18 1.243-2.96 1.968-4.97 1.968-2.79 0-5.16-1.406-6.04-3.656h16.31c.13-.63.21-1.282.21-1.969 0-6.069-4.64-10.119-11.07-10.119Zm-5.5 8.156c.73-2.244 2.72-3.656 5.5-3.656 2.79 0 4.78 1.412 5.51 3.656h-11.01Zm-22.729 1.969c0 3.375 2.283 5.625 5.824 5.625 2.399 0 4.199-1.052 5.125-2.767l4.47 2.491c-1.85 2.982-5.321 4.776-9.595 4.776-6.435 0-11.065-4.05-11.065-10.125S985.196 15 991.625 15c4.274 0 7.739 1.794 9.595 4.776l-4.47 2.491c-.926-1.715-2.726-2.767-5.125-2.767-3.535 0-5.824 2.25-5.824 5.625Zm48.029-16.313v25.876h-5.24V8.811h5.24ZM890.709 6l21.518 36h-43.036l21.518-36Zm53.798 2.813-16.137 27-16.137-27h6.051l10.086 16.874 10.086-16.875h6.051Zm34.306 6.75v5.45a6.85 6.85 0 0 0-1.863-.276c-3.384 0-5.824 2.25-5.824 5.626v8.325h-5.241V15.561h5.241v5.176c0-2.858 3.442-5.175 7.687-5.175Z" />
  <path fill="url(#f)" d="M1123.39 7v9.35h9.68V7h-9.68Z" />
  <path fill="url(#g)" d="M1133.07 19.75h-9.68V41h9.68V19.75Z" />
  <path fill="url(#h)" d="M1146.27 41h-9.68V7h9.68v34Z" />
  <path fill="url(#i)" d="M1149.79 7v34h9.68V7h-9.68Z" />
  <path fill="url(#j)" fill-rule="evenodd" d="M1180.59 7c9.73 0 17.6 7.611 17.6 17v17h-9.68v-1.814a18.025 18.025 0 0 1-7.92 1.814c-9.72 0-17.6-7.611-17.6-17s7.88-17 17.6-17Zm0 24.65c4.38 0 7.92-3.425 7.92-7.65 0-4.225-3.54-7.65-7.92-7.65-4.37 0-7.92 3.425-7.92 7.65 0 4.225 3.55 7.65 7.92 7.65Z" clip-rule="evenodd" />
  <g clip-path="url(#k)">
    <path fill="url(#l)" fill-rule="evenodd" d="m1377.23 10.96.02 23.289c0 3.882 1.49 5.27 5.4 5.28 1.11 0 3.13-.283 4.04-.838v-4.323h-3l-.01-19.357v-4.84l-6.45.788Zm-39.06 14.365h2.48v8.666c0 4.323 2.51 5.71 6.14 5.71 2.42 0 4.45-.475 6.35-1.586l-.95-3.774c-1.07.317-2.02.556-2.97.556-1.65 0-2.31-.596-2.31-2.578v-6.996h5.81l.02-4.205h-5.82v-5.93l-6.22.838v5.094h-2.53v4.205Zm-9.49-5.196c-5.99 0-10.34 3.767-10.34 10.31 0 6.029 3.42 9.24 9.6 9.232 4.29 0 7.71-1.072 9.44-2.696l-1.4-3.883a15.247 15.247 0 0 1-6.8 1.665c-3.71 0-4.86-2.256-4.86-5.031 0-3.69 2.22-4.878 4.08-4.878.86 0 1.61.08 1.94.316l.99 2.618 4.24-.278c.45-.888.68-1.867.66-2.856 0-3.727-4.04-4.52-7.55-4.52Zm25.93 10.429c0-6.147 3.46-10.352 10.51-10.352 6.18 0 9.35 3.41 9.35 9.044 0 6.898-3.79 10.428-10.63 10.428-5.19 0-9.23-2.854-9.23-9.12Zm9.85-5.99c-2.4 0-3.63 1.747-3.63 5.277 0 3.132.78 5.59 3.67 5.59 2.88 0 3.75-1.983 3.75-5.513 0-3.171-.99-5.354-3.79-5.354Zm26.19 1.627v-5.498h6.21s-.02.817-.02 5.18v13.225h-6.2c.01-.981.01-11.083.01-12.907Zm-.57-11.38c0-2.024 1.65-3.174 3.92-3.174 1.86 0 3.38.951 3.38 2.974 0 2.097-1.44 3.292-3.96 3.292-2.07-.009-3.35-1.267-3.35-3.093h.01Zm17.96 20.38c-1.94 0-4.54-.553-6.35-2.06l-1.49 3.914c1.49 1.704 4.79 2.696 8.04 2.696 5.11 0 8.58-2.413 8.58-6.499 0-4.258-3.81-4.966-6.84-5.528-1.99-.37-3.63-.675-3.63-1.886 0-.952.98-1.348 2.72-1.348 1.36 0 3.29.237 5.68 1.228l1.08-3.886c-2.15-1.547-5.12-1.824-6.85-1.824-5.35 0-8.08 2.696-8.08 6.067 0 3.417 2.85 4.528 5.57 5.24.12.032.24.065.38.1 1.7.444 4.4 1.148 4.4 2.4 0 .95-1.52 1.387-3.21 1.387Zm-103.47-10.859c1.48 0 2.68-1.152 2.68-2.574s-1.2-2.575-2.68-2.575c-1.47 0-2.67 1.153-2.67 2.575 0 1.421 1.2 2.574 2.67 2.574Zm-.89-12.144c8.41 0 12.94 4.564 12.94 13.131 0 7.084-2.89 11.488-7.89 13.329.35.8.62 1.631.79 2.482.12.669.18 1.345.2 2.023.02.595-.19 1.177-.58 1.634-.4.457-.96.756-1.57.84-.36.05-.73.026-1.08-.072a2.486 2.486 0 0 1-.94-.499c-.28-.23-.5-.514-.65-.833a2.38 2.38 0 0 1-.22-1.016c.02-.437-.01-.875-.07-1.308-.37-1.767-.95-2.22-1.79-2.253h-.29c-.3 0-.6-.009-.9-.021-.14 1.045-.35 2.079-.64 3.094-.64 2.438-1.75 5.373-3.25 5.073-1.76-.35-3.74-1.583-2.78-4.65.12-.401.24-.788.36-1.158.6-1.867 1.06-3.297.07-3.913l-.3-.176c-.86-.537-1.74-.199-2.76 1.31-.23.377-.42.774-.58 1.187-.13.326-.33.62-.59.863a2.64 2.64 0 0 1-.92.543 2.624 2.624 0 0 1-2.1-.194 2.41 2.41 0 0 1-1.13-1.343 2.343 2.343 0 0 1 .09-1.726c.28-.623.6-1.227.97-1.808.8-1.229 1.83-2.3 3.05-3.157-.95-1.943-1.46-4.374-1.46-7.337 0-9.04 5.61-14.045 14.02-14.045Zm-7.2 13.452c0 5.205 1.71 8.928 6.7 8.928 4.37 0 6.66-2.561 6.66-8.727 0-5.605-2.33-8.527-6.58-8.527-4.24 0-6.78 2.876-6.78 8.326Z" clip-rule="evenodd" />
  </g>
  <g clip-path="url(#m)">
    <path fill="url(#n)" fill-rule="evenodd" d="m1564.54 35.975-.45 1.488a.695.695 0 0 1-.27.379.813.813 0 0 1-.46.142h-57.91a.617.617 0 0 1-.4-.146.597.597 0 0 1-.21-.363c-.27-1.783-.15-3.602.35-5.337a12.636 12.636 0 0 1 2.59-4.727c1.2-1.381 2.69-2.5 4.37-3.283a13.57 13.57 0 0 1 5.38-1.258 8.652 8.652 0 0 1 .34-5.412c.68-1.727 1.91-3.207 3.5-4.236a9.504 9.504 0 0 1 5.39-1.51c1.91.045 3.77.662 5.3 1.766 1.45-4.11 4.25-7.652 7.97-10.084a21.178 21.178 0 0 1 12.66-3.389c4.49.234 8.78 1.878 12.21 4.682 3.43 2.804 5.82 6.615 6.81 10.852.01.072.02.144.02.217 0 .137-.02.273-.07.4l-1.8 4.556c-1.43 3.593-5.51 6.537-9.25 6.701l-31.66.401a.868.868 0 0 0-.45.163.846.846 0 0 0-.28.375c-.03.088-.05.184-.03.278.01.095.04.185.1.264a.599.599 0 0 0 .49.26l31.36.384c1.66.077 3.01.726 3.84 1.833.89 1.203 1.08 2.835.56 4.604Zm9.14-19.45a17.666 17.666 0 0 1 8.51 1.713 17.044 17.044 0 0 1 6.03 4.83 16.238 16.238 0 0 1 3.18 6.917c.5 2.512.38 5.1-.33 7.562a.671.671 0 0 1-.23.343.674.674 0 0 1-.41.126h-23.93a.389.389 0 0 1-.16-.048.371.371 0 0 1-.13-.116.443.443 0 0 1-.06-.159c0-.056.01-.113.03-.166l.5-1.267c1.42-3.59 5.49-6.529 9.26-6.697l6.95-.401a.806.806 0 0 0 .44-.164.778.778 0 0 0 .28-.374.551.551 0 0 0-.07-.55.563.563 0 0 0-.2-.178.63.63 0 0 0-.27-.07l-6.69-.4c-.74-.001-1.47-.167-2.14-.485a4.82 4.82 0 0 1-1.69-1.348c-.9-1.203-1.09-2.835-.56-4.604l1.24-4.114a.676.676 0 0 1 .12-.199.496.496 0 0 1 .2-.122.377.377 0 0 1 .13-.028Zm44.37 7.4h3.96v10.45h6.92v3.348h-10.88V23.925Zm14.99 6.917v.036c0 3.95 3.28 7.138 7.67 7.138 4.39 0 7.72-3.212 7.72-7.174v-.04c0-3.962-3.28-7.138-7.68-7.138-4.39 0-7.71 3.216-7.71 7.178Zm11.35 0v.036c0 1.993-1.47 3.69-3.64 3.69-2.16 0-3.65-1.721-3.65-3.726v-.04c0-1.993 1.43-3.686 3.61-3.686 2.19 0 3.68 1.72 3.68 3.726Zm8.87.838v-7.755h4.02v7.667c0 2.005 1.04 2.94 2.64 2.94 1.59 0 2.63-.907 2.63-2.84v-7.767h4.02v7.647c0 4.455-2.63 6.416-6.69 6.416-4.06 0-6.62-2.005-6.62-6.308Zm24.88-7.755h-5.51v13.794h5.43c5.14 0 8.14-2.955 8.14-6.937v-.04c0-3.978-2.96-6.817-8.06-6.817Zm4 6.933c0 2.23-1.57 3.493-3.94 3.493l-1.62-.016v-7.006h1.62c2.37 0 3.94 1.283 3.94 3.493v.036Zm9.81-6.933h11.43v3.352h-7.47v2.346h6.76v3.172h-6.76v4.928h-3.96V23.925Zm20.9 0h-3.96v13.798h10.88v-3.348h-6.92v-10.45Zm17.3-.097h3.82l6.06 13.895h-4.24l-1.04-2.462h-5.51l-1.02 2.462h-4.15l6.08-13.895Zm3.47 8.453-1.59-3.922-1.63 3.922h3.22Zm18.26-8.356h-6.75v13.798h3.96v-4.178h1.73l2.88 4.178h4.57l-3.41-4.812c.89-.319 1.65-.9 2.18-1.66.53-.762.79-1.663.76-2.578v-.04a4.27 4.27 0 0 0-.28-1.733 4.296 4.296 0 0 0-.99-1.476c-.96-.946-2.46-1.5-4.65-1.5Zm1.94 4.988c0 1.003-.77 1.636-2.12 1.636h-2.61v-3.312h2.59c1.31 0 2.14.55 2.14 1.636v.04Zm9.7-4.988h11.49v3.252h-7.58v2.09h6.86v3.015h-6.86v2.19h7.68v3.251h-11.59V23.925Zm-155.45 10.074a3.369 3.369 0 0 0 1.31-1.517l4.18.016c-.77 3.16-3.72 5.518-7.49 5.518-4.41 0-7.67-3.176-7.67-7.138v-.04c0-3.97 3.3-7.178 7.71-7.178 3.88 0 6.86 2.442 7.51 5.726h-4.15a3.52 3.52 0 0 0-1.32-1.666 3.701 3.701 0 0 0-2.08-.623c-2.16 0-3.61 1.684-3.61 3.689v.04c0 1.989 1.49 3.725 3.65 3.725a3.57 3.57 0 0 0 1.96-.552Z" clip-rule="evenodd" />
  </g>
  <g clip-path="url(#o)">
    <path fill="url(#p)" fill-rule="evenodd" d="M1901.94 1.005 1886.51 1c-1.17 0-2.23.647-2.73 1.659-3.18 6.527-14.92 30.556-19.65 40.246-.44.89-.37 1.93.18 2.76.56.828 1.51 1.33 2.54 1.33h6.46c2.24 0 4.37-.892 5.89-2.462.95-.979 2.03-2.095 2.95-3.041.32-.336.63-.651.9-.93a4.085 4.085 0 0 1 2.94-1.232l8.19.002 8.03.002c1.12 0 2.19.446 2.95 1.231 1.03 1.068 2.56 2.647 3.84 3.973 1.52 1.569 3.65 2.462 5.89 2.462h6.71c1.02 0 1.98-.502 2.53-1.33.56-.83.63-1.87.19-2.76-4.73-9.69-16.47-33.719-19.65-40.246-.5-1.012-1.56-1.66-2.73-1.66Zm9.25 37.13c-2.37-5.471-11.26-24.199-15.14-32.343a2.02 2.02 0 0 0-1.83-1.125c-.79 0-1.5.44-1.82 1.125-3.88 8.143-12.77 26.867-15.14 32.34-.09.196-.06.42.06.596.13.177.33.282.56.282h3.02c1.24 0 2.4-.54 3.16-1.467l4.41-5.37c.76-.926 1.92-1.468 3.16-1.468l2.59.003 2.6.002c1.23 0 2.4.54 3.16 1.466 1.24 1.514 3.17 3.859 4.41 5.371.76.926 1.92 1.467 3.16 1.467h3.02a.7.7 0 0 0 .56-.282c.12-.175.15-.4.06-.596Zm53.76-25.503c.39-.373.85-.543 1.43-.543.53 0 1.03.17 1.43.543.39.374.57.816.57 1.36 0 .543-.18.984-.57 1.358-.4.374-.86.544-1.43.544-.58 0-1.04-.17-1.43-.544-.4-.373-.57-.815-.57-1.359 0-.543.17-.985.57-1.359Zm-18.12 7.678c1.43-.985 3.29-1.495 5.55-1.495 2.39 0 4.29.578 5.61 1.733 1.29 1.121 1.97 2.752 1.97 4.824v11.72h-2.65l-.25-2.82c-1.5 2.005-3.61 3.024-6.37 3.024-2.1 0-3.79-.475-5.04-1.427-1.28-.95-1.93-2.208-1.93-3.838 0-1.8.65-3.228 1.97-4.179 1.29-.951 3.15-1.46 5.65-1.46h5.58v-1.224c0-1.155-.4-2.072-1.22-2.752-.86-.679-2-.985-3.5-.985-1.29 0-2.4.272-3.22.816-.86.543-1.43 1.29-1.61 2.208h-3.04c.25-1.767 1.04-3.16 2.5-4.145Zm8.51 13.08c1.08-.918 1.61-2.14 1.61-3.67v-.849h-5.86c-2.83 0-4.26.985-4.26 2.99 0 .883.36 1.596 1.11 2.14.75.544 1.75.815 3 .815 1.86 0 3.33-.475 4.4-1.427Zm6.52-11.687h3v15.355h3.04V19.053h-6.04v2.65Zm32.17-2.854c1.76 0 3.37.34 4.72 1.087 1.36.713 2.44 1.8 3.22 3.16.79 1.392 1.15 3.057 1.15 4.96 0 1.8-.36 3.396-1.15 4.79a8.545 8.545 0 0 1-3.25 3.26c-1.36.782-2.93 1.155-4.69 1.155-1.5 0-2.86-.271-3.93-.815-1.07-.51-1.93-1.223-2.57-2.14v9.818h-3.04V19.052h2.64l.4 2.888c1.61-2.072 3.75-3.091 6.5-3.091Zm-.28 15.83c1.89 0 3.43-.645 4.58-1.868 1.14-1.223 1.71-2.82 1.71-4.824 0-1.936-.57-3.567-1.71-4.79-1.15-1.223-2.69-1.834-4.58-1.834-1.22 0-2.29.271-3.22.815-.96.577-1.68 1.359-2.22 2.344-.53 1.02-.78 2.174-.78 3.431 0 1.325.25 2.446.78 3.465a5.738 5.738 0 0 0 2.22 2.412c.93.578 2 .85 3.22.85Zm-21.66-12.127v14.506h3.04V21.703h6.58v-2.65h-5.93c-2.04 0-3.69 1.528-3.69 3.499Zm34.57-10.226h3.04v24.732h-3.04V12.326Zm15.12 6.49c-2.25 0-4.11.509-5.54 1.494-1.47.985-2.25 2.378-2.5 4.145h3.04c.17-.917.75-1.665 1.6-2.208.83-.544 1.94-.816 3.22-.816 1.5 0 2.65.306 3.51.985.82.68 1.21 1.597 1.21 2.752v1.223h-5.58c-2.5 0-4.36.51-5.64 1.461-1.33.951-1.97 2.378-1.97 4.179 0 1.63.64 2.887 1.93 3.838 1.25.952 2.93 1.427 5.04 1.427 2.75 0 4.86-1.019 6.37-3.023l.25 2.82h2.64V25.372c0-2.072-.68-3.703-1.96-4.824-1.33-1.155-3.22-1.733-5.62-1.733Zm4.58 10.905c0 1.528-.54 2.751-1.61 3.668-1.07.952-2.54 1.427-4.4 1.427-1.25 0-2.25-.271-3-.815-.75-.544-1.11-1.257-1.11-2.14 0-2.005 1.43-2.99 4.25-2.99h5.87v.85Zm9.94-8.256c1.47-1.766 3.54-2.65 6.26-2.65 2.32 0 4.18.68 5.54 2.005 1.36 1.29 2.07 3.397 2.07 6.217v10.021h-3.04v-9.852c0-1.868-.42-3.295-1.28-4.28-.9-.951-2.15-1.46-3.83-1.46-1.75 0-3.18.61-4.18 1.766-1 1.155-1.54 2.785-1.54 4.79v9.003h-3.04V19.019h2.65l.39 2.446Zm35.08 7.134c.01-.188.02-.358.04-.51.02-.315.03-.553.03-.713-.03-1.733-.43-3.262-1.21-4.553-.79-1.29-1.83-2.31-3.15-2.955-1.32-.68-2.86-1.02-4.61-1.02-1.75 0-3.33.374-4.69 1.122-1.35.781-2.43 1.868-3.14 3.261-.79 1.393-1.15 2.99-1.15 4.824 0 1.8.4 3.431 1.18 4.79.79 1.427 1.86 2.514 3.26 3.261 1.43.782 3.04 1.155 4.93 1.155 2.15 0 3.97-.611 5.47-1.766 1.5-1.155 2.43-2.65 2.79-4.484h-3.07c-.33 1.155-.97 2.038-1.9 2.683-.96.68-2.11.986-3.5.986-1.75 0-3.19-.544-4.29-1.597-1.08-1.053-1.68-2.48-1.72-4.246v-.238h14.73Zm-12.69-5.878c1.07-.883 2.32-1.358 3.79-1.358 1.61 0 2.93.407 4 1.256 1.04.85 1.65 2.039 1.79 3.568h-11.44c.14-1.427.79-2.582 1.86-3.466Z" clip-rule="evenodd" />
  </g>
  <path fill="url(#q)" fill-rule="evenodd" d="M2179.05 5.925a19.725 19.725 0 0 0-6.82 3.544 6.747 6.747 0 0 0-3.76-2.92 24.418 24.418 0 0 1 8.62-4.832 25.069 25.069 0 0 1 9.9-1.08 24.843 24.843 0 0 1 11.68 4.162 5.079 5.079 0 0 1 2.91-.3c.95.184 1.83.636 2.52 1.3a4.68 4.68 0 0 1 1.34 2.433c.19.922.1 1.877-.28 2.745-.37.868-1 1.61-1.81 2.132s-1.76.8-2.73.8a5.018 5.018 0 0 1-3.48-1.391 4.718 4.718 0 0 1-1.06-1.542 4.567 4.567 0 0 1-.38-1.817c0-.244.02-.486.06-.725a19.972 19.972 0 0 0-8.99-3.208c-2.59-.267-5.22-.03-7.72.7Zm-7.75 6.844c0 .894-.26 1.77-.75 2.525l1.01 1.685a6.81 6.81 0 0 1-3.81 2.192l-1-1.666a5.042 5.042 0 0 1-3.84-1.377 4.694 4.694 0 0 1-1.35-2.432 4.614 4.614 0 0 1 .28-2.744 4.829 4.829 0 0 1 1.81-2.132c.81-.522 1.76-.8 2.74-.8.64 0 1.28.122 1.88.36.59.24 1.14.59 1.59 1.03.46.441.82.965 1.07 1.541.25.576.37 1.194.37 1.818Zm-3.55 6.402 8.48 14.165 2.56 4.277 2.55-4.277 3.19-5.333 3.18 5.313 2.56 4.276 2.55-4.276 4.29-7.177h7.01c.08-.71.12-1.424.12-2.139 0-.714-.04-1.428-.13-2.138h-9.56l-.44.743-3.84 6.432-3.18-5.314-2.56-4.277-2.55 4.277-3.19 5.333-7.23-12.077a6.81 6.81 0 0 1-3.81 2.192Zm36.49 4.83a19.1 19.1 0 0 1-.12 2.138h4.7v-4.277h-4.71c.09.71.13 1.424.13 2.139Zm4.58-2.14h.07c.07.705.1 1.418.1 2.14 0 12.958-10.87 23.466-24.29 23.466s-24.3-10.506-24.3-23.465c0-2.297.35-4.582 1.03-6.781a6.862 6.862 0 0 0 4.3 2.053c-.36 1.509-.58 3.263-.58 4.726 0 10.423 8.75 18.877 19.55 18.877 10.05 0 18.32-7.32 19.42-16.738h4.7v-4.277Z" clip-rule="evenodd" />
  <path fill="url(#r)" d="m2233.91 31.68-3.87-16.082h3.15l1.65 7.719 1.02 4.93h.08l1.19-4.93 1.91-7.719h3.48l1.91 7.719 1.17 4.93h.07l1.05-4.93 1.69-7.719h3.01l-3.99 16.082h-3.55l-2.12-8.502-1.03-4.24h-.05l-1.07 4.24-2.12 8.502h-3.58Z" />
  <path fill="url(#s)" d="M2261.16 29.675h-.12c-.11.308-.26.6-.46.876-.17.261-.4.5-.69.714-.27.215-.6.384-1 .507-.38.123-.83.184-1.33.184-1.29 0-2.28-.407-2.96-1.22-.69-.815-1.03-1.974-1.03-3.48v-7.603h3.05v7.304c0 .83.17 1.467.51 1.912.33.43.86.645 1.59.645.31 0 .6-.038.89-.115.3-.077.56-.192.78-.346.23-.169.41-.368.55-.599a1.6 1.6 0 0 0 .22-.852v-7.949h3.05V31.68h-3.05v-2.005Z" />
  <path fill="url(#t)" d="M2267.74 31.68V19.653h3.05v2.005h.12c.25-.646.65-1.183 1.19-1.613.56-.446 1.32-.668 2.29-.668 1.29 0 2.28.407 2.96 1.22.68.815 1.03 1.974 1.03 3.48v7.603h-3.06v-7.304c0-.86-.16-1.505-.47-1.935-.32-.43-.85-.645-1.58-.645-.32 0-.63.046-.93.138-.28.077-.55.2-.79.369-.22.153-.4.353-.54.599-.15.23-.22.507-.22.83v7.948h-3.05Z" />
  <path fill="url(#u)" d="M2289.49 29.675h-.12a3.069 3.069 0 0 1-1.26 1.66c-.62.414-1.35.621-2.17.621-1.58 0-2.79-.545-3.63-1.635-.83-1.09-1.24-2.65-1.24-4.678 0-2.012.41-3.555 1.24-4.63.84-1.091 2.05-1.636 3.63-1.636.82 0 1.55.207 2.17.622.62.4 1.04.944 1.26 1.636h.12V14.63h3.05v17.05h-3.05v-2.005Zm-2.58-.16c.73 0 1.35-.17 1.84-.508.49-.338.74-.821.74-1.451V23.73c0-.584-.25-1.052-.74-1.405-.49-.354-1.11-.53-1.84-.53-.79 0-1.44.261-1.93.783-.48.507-.71 1.19-.71 2.05v2.074c0 .86.23 1.544.71 2.05.49.508 1.14.761 1.93.761Z" />
  <path fill="url(#v)" d="M2301.1 31.956c-.93 0-1.75-.145-2.48-.437a5.444 5.444 0 0 1-1.84-1.267 5.918 5.918 0 0 1-1.15-1.982c-.27-.783-.4-1.659-.4-2.627 0-.952.13-1.812.38-2.58.27-.768.65-1.42 1.15-1.958a4.771 4.771 0 0 1 1.81-1.268c.71-.307 1.52-.46 2.43-.46.97 0 1.81.16 2.53.483.72.323 1.3.76 1.76 1.314a5.27 5.27 0 0 1 1.03 1.935c.24.722.36 1.498.36 2.327v.968h-8.28v.3c0 .875.26 1.581.76 2.119.51.522 1.27.783 2.27.783.76 0 1.38-.153 1.86-.46.49-.308.93-.7 1.31-1.175l1.65 1.774c-.51.69-1.21 1.236-2.1 1.636-.87.384-1.89.575-3.05.575Zm-.05-10.367c-.81 0-1.46.26-1.93.783-.48.522-.72 1.198-.72 2.027v.185h5.11v-.208c0-.83-.22-1.497-.65-2.004-.41-.522-1.02-.784-1.81-.784Z" />
  <path fill="url(#w)" d="M2309.36 31.68V19.653h3.06v2.488h.12c.08-.322.2-.63.35-.921.18-.307.4-.576.67-.807.27-.23.59-.414.96-.553.38-.138.82-.207 1.31-.207h.67v2.788h-.96c-1.03 0-1.81.146-2.33.438-.53.292-.79.768-.79 1.428v7.373h-3.06Z" />
  <path fill="url(#x)" d="M2329.77 29.192h-.1c-.14.783-.59 1.444-1.36 1.981-.75.522-1.75.784-3 .784-.99 0-1.9-.177-2.75-.53a6.18 6.18 0 0 1-2.17-1.567c-.6-.707-1.08-1.575-1.43-2.604-.35-1.029-.52-2.22-.52-3.57 0-1.353.17-2.543.52-3.572.37-1.045.88-1.92 1.53-2.627a6.402 6.402 0 0 1 2.34-1.612c.9-.37 1.91-.553 3.03-.553 1.49 0 2.76.315 3.81.944 1.05.63 1.88 1.536 2.48 2.719l-2.55 1.451a4.247 4.247 0 0 0-1.36-1.727c-.59-.461-1.38-.692-2.38-.692-1.24 0-2.24.369-2.99 1.106-.73.722-1.09 1.797-1.09 3.226v2.58c0 1.413.37 2.489 1.12 3.226.75.737 1.75 1.106 3 1.106.5 0 .96-.054 1.39-.162.43-.122.8-.299 1.12-.53.32-.23.57-.514.76-.852.19-.338.29-.737.29-1.198v-1.037h-3.27v-2.557h6.3v8.755h-2.72v-2.488Z" />
  <path fill="url(#y)" d="M2335.94 31.68V19.653h3.06v2.488h.12c.08-.322.19-.63.35-.921.18-.307.4-.576.67-.807.27-.23.59-.414.96-.553.38-.138.81-.207 1.31-.207h.67v2.788h-.96c-1.03 0-1.81.146-2.34.438-.52.292-.78.768-.78 1.428v7.373h-3.06Z" />
  <path fill="url(#z)" d="M2354.21 31.68c-.67 0-1.2-.184-1.6-.553-.38-.384-.62-.89-.71-1.52h-.15c-.2.783-.62 1.374-1.26 1.774-.64.384-1.42.575-2.36.575-1.27 0-2.25-.322-2.94-.967-.68-.645-1.02-1.506-1.02-2.58 0-1.245.46-2.166 1.38-2.765.92-.615 2.24-.922 3.94-.922h2.12v-.876c0-.675-.18-1.198-.55-1.566-.36-.369-.95-.553-1.76-.553-.72 0-1.3.153-1.74.46-.43.292-.8.646-1.1 1.06l-1.81-1.566a5.08 5.08 0 0 1 1.83-1.66c.77-.43 1.78-.644 3.03-.644 1.69 0 2.97.368 3.84 1.106.88.737 1.31 1.797 1.31 3.18v5.667h1.24v2.35h-1.69Zm-5.06-1.866c.69 0 1.27-.146 1.75-.438.47-.292.71-.722.71-1.29v-1.59h-1.95c-1.6 0-2.39.492-2.39 1.475v.391c0 .492.16.86.48 1.106.33.23.8.346 1.4.346Z" />
  <path fill="url(#A)" d="M2358.38 19.653h3.05v1.982h.09c.23-.692.65-1.237 1.27-1.636.62-.415 1.34-.622 2.17-.622 1.59 0 2.8.545 3.62 1.636.85 1.075 1.27 2.618 1.27 4.63 0 2.028-.42 3.587-1.27 4.678-.82 1.09-2.03 1.635-3.62 1.635-.83 0-1.55-.207-2.17-.622a3.237 3.237 0 0 1-1.27-1.659h-.09v6.613h-3.05V19.653Zm5.6 9.861c.8 0 1.44-.253 1.93-.76.5-.507.74-1.19.74-2.05V24.63c0-.86-.24-1.544-.74-2.05-.49-.523-1.13-.784-1.93-.784-.73 0-1.34.177-1.84.53-.47.353-.71.822-.71 1.405v3.825c0 .63.24 1.113.71 1.451.5.338 1.11.507 1.84.507Z" />
  <path fill="url(#B)" d="M2372.68 14.63h3.05v7.028h.12a3.86 3.86 0 0 1 1.19-1.613c.56-.446 1.32-.668 2.29-.668 1.29 0 2.28.407 2.96 1.22.69.815 1.03 1.974 1.03 3.48v7.603h-3.06v-7.304c0-.86-.16-1.505-.47-1.935-.32-.43-.85-.645-1.58-.645-.32 0-.63.046-.93.138-.28.077-.55.2-.79.369-.22.153-.4.353-.54.599-.15.23-.22.507-.22.83v7.948h-3.05V14.63Z" />
  <g clip-path="url(#C)">
    <path fill="url(#D)" fill-rule="evenodd" d="M2499.31 6.09c0 2.258-1.89 4.09-4.23 4.09-.79 0-1.53-.211-2.16-.577l-3.2 3.09c.38.611.6 1.326.6 2.09 0 2.259-1.89 4.09-4.23 4.09-.78 0-1.52-.207-2.15-.567l-3.22 3.114c.38.61.59 1.32.59 2.08 0 .764-.22 1.479-.59 2.09l3.21 3.11a4.306 4.306 0 0 1 2.16-.573c.78 0 1.51.204 2.14.56l3.21-3.11a3.986 3.986 0 0 1-.58-2.077c0-2.259 1.89-4.09 4.22-4.09 2.34 0 4.23 1.831 4.23 4.09 0 2.258-1.89 4.09-4.23 4.09-.78 0-1.52-.207-2.14-.567l-3.21 3.106c.37.61.59 1.325.59 2.088 0 .759-.22 1.47-.59 2.079l3.2 3.094a4.32 4.32 0 0 1 2.15-.57c2.34 0 4.23 1.831 4.23 4.09s-1.89 4.09-4.23 4.09c-2.33 0-4.22-1.831-4.22-4.09 0-.756.21-1.464.58-2.072l-3.2-3.097c-.63.36-1.37.565-2.15.565-2.33 0-4.23-1.83-4.23-4.09 0-.753.21-1.459.58-2.065l-3.22-3.12c-.63.355-1.36.558-2.14.558-2.33 0-4.22-1.83-4.22-4.09 0-2.258 1.89-4.089 4.22-4.089.79 0 1.52.206 2.15.565l3.22-3.116a3.988 3.988 0 0 1-.59-2.076c0-2.259 1.9-4.09 4.23-4.09.78 0 1.51.204 2.13.559l3.21-3.102a3.924 3.924 0 0 1-.57-2.06c0-2.259 1.89-4.09 4.22-4.09 2.34 0 4.23 1.831 4.23 4.09Zm-6.64 0c0 1.29 1.08 2.336 2.41 2.336 1.34 0 2.42-1.046 2.42-2.336 0-1.29-1.08-2.336-2.42-2.336-1.33 0-2.41 1.045-2.41 2.336Zm-8.99 8.693c0 1.29 1.08 2.336 2.41 2.336s2.41-1.046 2.41-2.336c0-1.29-1.08-2.336-2.41-2.336s-2.41 1.046-2.41 2.336Zm20.42 4.09c2.34 0 4.23-1.831 4.23-4.09s-1.89-4.09-4.23-4.09c-2.33 0-4.22 1.831-4.22 4.09s1.89 4.09 4.22 4.09Zm0 17.433c2.34 0 4.23-1.83 4.23-4.09 0-2.258-1.89-4.089-4.23-4.089-2.33 0-4.22 1.831-4.22 4.09 0 2.258 1.89 4.09 4.22 4.09Zm13.2-12.806c0 2.258-1.89 4.09-4.23 4.09-2.33 0-4.23-1.832-4.23-4.09 0-2.259 1.9-4.09 4.23-4.09 2.34 0 4.23 1.831 4.23 4.09Zm-7.57 0c0 1.786 1.49 3.235 3.34 3.235 1.85 0 3.34-1.449 3.34-3.235 0-1.787-1.49-3.235-3.34-3.235-1.85 0-3.34 1.448-3.34 3.235Zm-14.65 19.746c-1.33 0-2.41-1.046-2.41-2.336 0-1.29 1.08-2.336 2.41-2.336 1.34 0 2.42 1.046 2.42 2.336 0 1.29-1.08 2.336-2.42 2.336Zm-8.99-8.694c-1.33 0-2.41-1.045-2.41-2.335s1.08-2.336 2.41-2.336 2.42 1.045 2.42 2.336c0 1.29-1.09 2.336-2.42 2.336Zm-9.01-8.716c-1.33 0-2.41-1.046-2.41-2.336 0-1.29 1.08-2.336 2.41-2.336 1.34 0 2.42 1.046 2.42 2.336 0 1.29-1.08 2.336-2.42 2.336Zm15.59-2.336c0 1.29 1.08 2.336 2.41 2.336 1.34 0 2.42-1.046 2.42-2.336 0-1.29-1.08-2.336-2.42-2.336-1.33 0-2.41 1.046-2.41 2.336Zm47.94-19.843v.6h-7.08v22.888h-.69V4.258h-7.08v-.6h14.85Zm17.03 7.039c-1.41-1.312-3.2-1.969-5.39-1.969-1.82 0-3.39.445-4.7 1.335-1.31.868-2.19 2.135-2.62 3.804V2.456h-.7v24.688h.7V17.57c0-2.714.66-4.76 2-6.139 1.33-1.401 3.11-2.102 5.32-2.102 2.12 0 3.79.623 5.01 1.868 1.22 1.224 1.83 3.014 1.83 5.372v10.576h.65v-10.51c0-2.646-.7-4.626-2.1-5.938Zm15.93 16.082c2.1 0 3.86-.512 5.29-1.535 1.42-1.023 2.29-2.425 2.59-4.204h.69c-.33 1.89-1.25 3.425-2.77 4.604-1.49 1.157-3.43 1.735-5.8 1.735-1.73 0-3.27-.367-4.63-1.1-1.36-.735-2.43-1.802-3.21-3.204-.76-1.401-1.14-3.047-1.14-4.938 0-1.89.38-3.536 1.14-4.938.78-1.4 1.85-2.468 3.21-3.202 1.36-.734 2.9-1.101 4.63-1.101 1.82 0 3.37.378 4.66 1.134 1.29.734 2.26 1.69 2.91 2.87.66 1.178 1 2.424 1 3.736 0 .8-.01 1.401-.04 1.802h-16.82c.02 1.846.42 3.392 1.18 4.637.78 1.246 1.79 2.18 3.03 2.803 1.25.6 2.61.9 4.08.9Zm0-17.283c-1.47 0-2.83.311-4.08.934-1.24.6-2.25 1.524-3.03 2.77-.76 1.245-1.16 2.791-1.18 4.637h16.24c.11-1.846-.2-3.392-.94-4.637-.71-1.246-1.7-2.17-2.97-2.77-1.24-.623-2.59-.934-4.04-.934Zm116.16 17.383c.26.245.58.367.97.367a1.277 1.277 0 0 0 1.31-1.301 1.277 1.277 0 0 0-1.31-1.301c-.39 0-.71.122-.97.367-.25.244-.38.556-.38.934s.13.69.38.934Zm7.91-23.154v23.421h-1.56V3.724h1.56Zm10.48 22.186c1.79 1 3.81 1.501 6.04 1.501 2.24 0 4.25-.5 6.05-1.501a10.936 10.936 0 0 0 4.21-4.27c1.01-1.825 1.52-3.882 1.52-6.173 0-2.314-.51-4.37-1.52-6.173a10.706 10.706 0 0 0-4.21-4.237c-1.8-1.023-3.81-1.535-6.05-1.535-2.23 0-4.25.512-6.04 1.535-1.8 1.001-3.2 2.414-4.22 4.237-1.01 1.802-1.52 3.86-1.52 6.173 0 2.29.51 4.348 1.52 6.172 1.02 1.824 2.42 3.248 4.22 4.27Zm11.22-1.135c-1.54.868-3.27 1.302-5.18 1.302-1.91 0-3.64-.434-5.18-1.302-1.54-.867-2.76-2.102-3.66-3.703-.9-1.602-1.35-3.47-1.35-5.605 0-2.158.45-4.037 1.35-5.639.9-1.601 2.12-2.836 3.66-3.703 1.54-.868 3.27-1.301 5.18-1.301 1.91 0 3.64.433 5.18 1.3 1.54.868 2.75 2.103 3.63 3.704.9 1.602 1.35 3.481 1.35 5.639 0 2.135-.45 4.003-1.35 5.605-.88 1.601-2.09 2.836-3.63 3.703Zm-189.99 15.726c0-.79.18-1.497.54-2.12.36-.63.84-1.117 1.47-1.462.62-.354 1.31-.53 2.07-.53.93 0 1.73.215 2.39.645a3.634 3.634 0 0 1 1.45 1.797h-.98c-.24-.545-.6-.972-1.09-1.279-.49-.307-1.08-.46-1.77-.46-.61 0-1.16.138-1.66.414-.48.277-.86.676-1.14 1.198-.28.515-.42 1.114-.42 1.797 0 .684.14 1.283.42 1.797.28.515.66.91 1.14 1.187.5.276 1.05.415 1.66.415.69 0 1.28-.15 1.77-.45.49-.307.85-.73 1.09-1.267h.98c-.3.768-.79 1.363-1.45 1.786-.67.422-1.47.633-2.39.633-.76 0-1.45-.172-2.07-.518a3.834 3.834 0 0 1-1.47-1.463c-.36-.622-.54-1.329-.54-2.12Zm24.33 3.594c.62.346 1.32.519 2.09.519.78 0 1.49-.173 2.12-.519.62-.353 1.12-.84 1.47-1.463.36-.63.54-1.34.54-2.13 0-.792-.18-1.498-.54-2.12a3.732 3.732 0 0 0-1.47-1.463c-.63-.354-1.34-.53-2.12-.53-.77 0-1.47.176-2.09.53-.63.345-1.13.833-1.49 1.463-.36.622-.54 1.328-.54 2.12 0 .79.18 1.5.54 2.13.36.623.86 1.11 1.49 1.463Zm3.76-.599c-.49.277-1.04.415-1.67.415a3.31 3.31 0 0 1-1.66-.415c-.5-.276-.89-.672-1.17-1.186-.29-.522-.43-1.125-.43-1.809 0-.683.14-1.282.43-1.797.28-.514.67-.91 1.17-1.186a3.31 3.31 0 0 1 1.66-.415c.63 0 1.18.138 1.67.415.5.276.89.672 1.17 1.186.29.515.43 1.114.43 1.797 0 .684-.14 1.287-.43 1.809-.28.514-.67.91-1.17 1.186Zm23.37 1.036h-.84l-4.61-6.774v6.774h-.84V36.48h.84l4.61 6.762V36.48h.84v8.052Zm16.05-.195c.42.185.91.277 1.45.277.57 0 1.05-.104 1.46-.311.4-.208.71-.48.92-.818.2-.338.31-.695.31-1.072 0-.491-.12-.883-.35-1.174a2.08 2.08 0 0 0-.84-.646 10.13 10.13 0 0 0-1.32-.437c-.47-.123-.84-.238-1.12-.346a1.814 1.814 0 0 1-.68-.472c-.18-.208-.27-.48-.27-.818 0-.446.17-.795.5-1.048.33-.262.75-.392 1.25-.392.54 0 .97.13 1.29.392.32.253.5.545.56.875h.91c-.07-.576-.35-1.044-.83-1.405-.47-.369-1.09-.553-1.86-.553-.52 0-.99.092-1.39.276-.41.184-.72.442-.94.772-.23.323-.34.691-.34 1.106 0 .5.12.895.35 1.186.23.292.51.507.83.646.33.138.77.28 1.33.426.47.123.85.238 1.12.345.27.1.49.258.68.473.18.207.27.484.27.83 0 .43-.17.786-.5 1.07-.33.277-.77.415-1.34.415-.61 0-1.07-.146-1.39-.438-.32-.3-.5-.645-.54-1.036h-.88a2 2 0 0 0 .38 1.106c.24.33.57.587.98.771Zm19.65-7.858v5.07c0 .798.19 1.39.58 1.773.4.384.94.576 1.62.576.69 0 1.22-.188 1.6-.564.39-.384.59-.98.59-1.786V36.48h.83v5.058c0 1.021-.28 1.79-.85 2.304-.55.514-1.28.771-2.18.771-.9 0-1.63-.257-2.19-.771-.56-.515-.84-1.283-.84-2.304V36.48h.84Zm23.99 7.396h-2.99V36.48h-.84v8.052h3.83v-.657Zm19.16-7.395v.669h-2.31v7.384h-.84v-7.384h-2.32v-.669h5.47Zm15.25 8.053V36.48h-.84v8.053h.84Zm21.27-.001h-.83l-4.62-6.774v6.774h-.83V36.48h.83l4.62 6.762V36.48h.83v8.052Zm20.44-6.945c.49.3.86.714 1.1 1.244h.98c-.31-.768-.79-1.367-1.46-1.797-.67-.43-1.45-.645-2.34-.645-.77 0-1.47.176-2.1.53-.62.345-1.12.833-1.49 1.463-.35.622-.53 1.328-.53 2.12 0 .79.18 1.5.53 2.13.37.623.87 1.11 1.49 1.463.63.346 1.33.519 2.1.519.75 0 1.42-.165 2.02-.495.6-.33 1.09-.78 1.44-1.348.36-.576.56-1.218.6-1.924v-.588h-4.39v.657h3.51c-.04.599-.21 1.125-.49 1.578-.28.446-.65.791-1.12 1.037-.46.238-.99.357-1.57.357-.62 0-1.17-.138-1.67-.415a2.958 2.958 0 0 1-1.16-1.186c-.29-.515-.43-1.11-.43-1.786 0-.676.14-1.267.43-1.774.28-.514.67-.91 1.16-1.186.5-.277 1.05-.415 1.67-.415.66 0 1.24.154 1.72.46ZM2599.55 3.722V4.99h-10.95v9.775h9.57v1.268h-9.57v11.11h-1.55V3.722h12.5Zm4.29 9.44c-.77 1.402-1.14 3.037-1.14 4.905 0 1.869.37 3.514 1.14 4.938.78 1.401 1.85 2.491 3.21 3.27 1.38.756 2.95 1.134 4.7 1.134 1.95 0 3.62-.467 5-1.401 1.41-.957 2.39-2.169 2.94-3.637v4.771h1.55V9.026h-1.55v4.737c-.55-1.445-1.52-2.636-2.9-3.57-1.38-.934-3.06-1.401-5.04-1.401-1.75 0-3.32.378-4.7 1.134-1.36.757-2.43 1.835-3.21 3.237Zm14.81.735c.69 1.2 1.04 2.59 1.04 4.17 0 1.602-.33 3.014-1 4.237a7.095 7.095 0 0 1-2.8 2.803c-1.18.645-2.49.968-3.94.968-1.49 0-2.83-.323-4-.968-1.16-.645-2.05-1.568-2.7-2.77-.64-1.2-.97-2.624-.97-4.27 0-1.646.33-3.07.97-4.27.65-1.202 1.54-2.114 2.7-2.736 1.15-.645 2.48-.968 4-.968 1.45 0 2.76.334 3.94 1.001 1.17.645 2.1 1.58 2.76 2.803Zm9.81-.1c.58-1.468 1.56-2.67 2.94-3.603 1.38-.935 3.05-1.402 5.01-1.402 1.75 0 3.3.378 4.66 1.135a7.911 7.911 0 0 1 3.21 3.236c.78 1.401 1.18 3.036 1.18 4.904 0 1.869-.4 3.515-1.18 4.938a8.129 8.129 0 0 1-3.21 3.27c-1.36.756-2.91 1.134-4.66 1.134-1.96 0-3.64-.467-5.05-1.4-1.38-.935-2.35-2.136-2.9-3.604v4.737h-1.55V2.453h1.55v11.344Zm15.41 4.27c0-1.645-.33-3.07-.97-4.27a6.445 6.445 0 0 0-2.73-2.736c-1.15-.645-2.49-.967-4.01-.967-1.45 0-2.76.333-3.93 1-1.18.645-2.1 1.58-2.77 2.803-.66 1.201-1 2.591-1 4.17 0 1.602.34 3.014 1 4.238a7.151 7.151 0 0 0 2.77 2.802c1.17.645 2.48.968 3.93.968 1.52 0 2.86-.323 4.01-.968a6.65 6.65 0 0 0 2.73-2.769c.64-1.201.97-2.625.97-4.27Zm10.28-8.342c-1.17.69-1.99 1.701-2.45 3.036V9.024h-1.56v18.117h1.56V16.698c0-2.291.61-3.937 1.83-4.938 1.22-1.023 2.75-1.535 4.59-1.535h.52V8.657c-1.82 0-3.32.356-4.49 1.068Zm8.87-4.737c-.37 0-.68-.111-.94-.334-.25-.244-.38-.567-.38-.967 0-.378.13-.69.38-.934.26-.245.57-.367.94-.367.36 0 .67.122.93.367.25.244.38.556.38.934 0 .4-.13.723-.38.967-.26.223-.57.334-.93.334Zm.76 4.037v18.117h-1.56V9.025h1.56Zm5.86 4.104c-.76 1.402-1.14 3.048-1.14 4.938 0 1.89.38 3.548 1.14 4.971.79 1.402 1.86 2.48 3.22 3.237 1.38.756 2.96 1.134 4.73 1.134 2.32 0 4.25-.578 5.77-1.735 1.52-1.156 2.46-2.68 2.83-4.57h-1.62c-.3 1.556-1.09 2.78-2.35 3.67-1.25.889-2.79 1.334-4.63 1.334-1.38 0-2.64-.3-3.77-.9-1.12-.601-2.03-1.502-2.72-2.703-.67-1.201-1.01-2.68-1.01-4.438 0-1.735.34-3.203 1.01-4.404.69-1.223 1.6-2.124 2.72-2.702 1.13-.6 2.39-.901 3.77-.901 1.84 0 3.38.445 4.63 1.334 1.26.89 2.05 2.113 2.35 3.67h1.62c-.37-1.912-1.31-3.436-2.83-4.57-1.5-1.135-3.42-1.702-5.77-1.702-1.77 0-3.35.378-4.73 1.134-1.36.734-2.43 1.802-3.22 3.203Z" clip-rule="evenodd" />
  </g>
  <g clip-path="url(#E)">
    <path fill="url(#F)" fill-rule="evenodd" d="M2816.63 45.946c.14.052.29.079.45.078.24-.009.47-.087.67-.224.2-.137.35-.327.43-.545.05-.133 1.31-3.36 1.88-14.765.3-5.977.31-8.603-.2-14.49-.42-4.857.32-7.06.89-7.31 1.35-.606 2.86.496 5.23 2.344 2.83 2.235 6.36 4.993 11.19 4.297 4.26-.613 5.56-4.556 6.61-7.727V7.6l.01-.027c.69-2.088 1.34-4.049 2.51-4.216.57-.082 1.37.25 2.28.922 5.97 4.458 14.48 22.117 15.92 36.373.03.31.19.594.44.792.25.198.57.292.9.263.16-.015.31-.06.46-.132.14-.072.26-.17.37-.29.1-.119.18-.256.22-.403.05-.148.07-.303.05-.456-1.4-13.866-9.75-32.682-16.85-37.991-1.47-1.106-2.87-1.575-4.13-1.399-2.69.39-3.6 3.16-4.49 5.848v.012c-1.14 3.458-2.08 5.751-4.64 6.119-3.76.523-6.56-1.653-9.27-3.774-2.46-1.923-5-3.907-7.8-2.677-2 .887-2.78 4.126-2.3 9.635.49 5.755.48 8.33.19 14.19-.53 10.775-1.69 13.955-1.72 14.033-.06.145-.09.298-.09.453.01.155.04.308.11.45.06.141.16.269.27.376.12.106.26.19.41.245Zm133.09-15.602c0 .142.06.278.17.379.1.1.25.157.4.157h1.94c.07 0 .15-.013.22-.04a.622.622 0 0 0 .18-.116c.05-.05.09-.11.12-.174a.487.487 0 0 0 .04-.206V10.807c0-.143-.05-.28-.16-.381a.587.587 0 0 0-.4-.158h-1.94c-.15 0-.3.058-.4.159a.515.515 0 0 0-.17.38v19.537Zm-33.27.972c1.84 0 3.34-.464 4.52-1.39.42-.33 1.18-.072 1.18.442 0 .14.06.274.16.372.1.099.24.154.39.154h1.6a.575.575 0 0 0 .52-.33.488.488 0 0 0 .04-.206v-8.803c0-.633-.03-1.226-.09-1.788a4.365 4.365 0 0 0-.47-1.57 4.46 4.46 0 0 0-2.31-2.187 9.082 9.082 0 0 0-3.7-.716c-1.82 0-3.29.384-4.39 1.152a5.47 5.47 0 0 0-2.06 2.6c-.03.065-.03.136-.03.206.01.07.03.138.06.2a.58.58 0 0 0 .15.157c.05.043.12.074.19.09l1.8.53c.15.038.31.023.45-.043a.651.651 0 0 0 .3-.315c.26-.557.7-1.021 1.25-1.323.7-.376 1.48-.57 2.28-.561 1.25 0 2.14.252 2.67.758.51.49.81 1.137.87 1.823a.507.507 0 0 1-.12.37.51.51 0 0 1-.35.188c-1.12.147-2.2.304-3.27.465-1.09.15-2.17.364-3.22.643a5.839 5.839 0 0 0-2.79 1.67c-.66.802-.99 1.8-.95 2.817-.01.795.2 1.578.6 2.274.43.7 1.05 1.274 1.8 1.656.9.448 1.9.676 2.92.665Zm.54-2.4c-.98 0-1.7-.214-2.17-.643a2.067 2.067 0 0 1-.51-.694 2.003 2.003 0 0 1-.18-.832c-.02-.268.03-.535.14-.783.1-.247.27-.469.48-.648.46-.37.99-.651 1.57-.83.77-.208 1.55-.372 2.34-.489.75-.114 1.58-.234 2.49-.357a.563.563 0 0 1 .45.128c.06.052.11.117.14.19.03.072.04.15.04.229 0 .117-.01.237-.02.362-.01.062-.02.124-.02.188-.03.4-.12.796-.25 1.177a3.462 3.462 0 0 1-.75 1.43c-.4.482-.91.871-1.49 1.137a5.3 5.3 0 0 1-2.26.421v.015Zm-24.36 1.807a.598.598 0 0 1-.17-.38V16.283c0-.144.06-.281.17-.382a.587.587 0 0 1 .4-.158h1.68c.13 0 .26.049.35.137.09.088.14.207.14.331.02.104.06.203.13.287.06.083.15.149.25.19a.644.644 0 0 0 .62-.077c.37-.27.77-.5 1.19-.686.96-.407 2-.609 3.05-.59.95-.028 1.89.144 2.75.504.7.306 1.32.762 1.81 1.334.46.532.82 1.137 1.07 1.787.23.613.4 1.247.5 1.892.08.539.12 1.082.13 1.627v7.866c0 .07-.02.14-.05.206a.452.452 0 0 1-.12.174.51.51 0 0 1-.18.116.587.587 0 0 1-.22.04h-1.97a.587.587 0 0 1-.22-.04.51.51 0 0 1-.18-.116.48.48 0 0 1-.13-.174.715.715 0 0 1-.04-.206v-6.908c0-.606-.06-1.211-.16-1.81a5.654 5.654 0 0 0-.57-1.737c-.28-.527-.7-.973-1.22-1.29a3.822 3.822 0 0 0-2.05-.49c-.7-.008-1.39.156-2.01.475a3.47 3.47 0 0 0-1.46 1.555 6.28 6.28 0 0 0-.55 2.86v7.345c0 .142-.06.278-.16.379-.11.1-.25.157-.4.157h-1.98a.59.59 0 0 1-.4-.157Zm-6.58-.712c-1.15.851-2.72 1.277-4.71 1.277-1.92 0-3.49-.41-4.72-1.227a5.028 5.028 0 0 1-2.1-2.896.502.502 0 0 1-.01-.211c.02-.07.04-.137.09-.196a.437.437 0 0 1 .16-.145.506.506 0 0 1 .2-.07l2.06-.304c.14-.015.28.017.4.09.12.072.22.182.27.31.23.57.65 1.055 1.19 1.388.79.471 1.72.707 2.65.675.79.043 1.58-.153 2.24-.56.27-.17.48-.401.62-.671.15-.27.22-.572.21-.875.01-.332-.09-.66-.3-.925a2.618 2.618 0 0 0-1.18-.687c-.6-.215-1.53-.48-2.77-.797a17.96 17.96 0 0 1-3.24-1.094 4.125 4.125 0 0 1-1.72-1.316 3.427 3.427 0 0 1-.5-1.892 3.84 3.84 0 0 1 .42-1.847c.29-.575.73-1.072 1.27-1.45 1.13-.83 2.63-1.247 4.48-1.247a7.926 7.926 0 0 1 4.53 1.22 4.49 4.49 0 0 1 1.98 2.724.68.68 0 0 1 0 .201.626.626 0 0 1-.09.185.496.496 0 0 1-.35.207l-2.03.358a.657.657 0 0 1-.72-.443c-.17-.471-.5-.879-.93-1.166a4.266 4.266 0 0 0-2.36-.715 4.103 4.103 0 0 0-2.24.447 1.54 1.54 0 0 0-.63.563c-.16.24-.24.517-.24.799 0 .316.12.622.34.855.37.306.81.535 1.28.672.63.214 1.57.472 2.81.772 1.1.24 2.16.602 3.17 1.08.68.308 1.26.794 1.67 1.401.36.607.53 1.296.51 1.992a4.04 4.04 0 0 1-.41 1.96c-.3.612-.74 1.146-1.3 1.558Zm44.22 7.444a.547.547 0 0 1-.16-.382l.03-20.799c0-.07.01-.14.04-.207a.604.604 0 0 1 .12-.175c.06-.05.12-.09.19-.117.07-.027.14-.04.21-.04h1.76a.4.4 0 0 1 .28.114c.08.073.12.172.12.275.01.08.04.155.09.22a.491.491 0 0 0 .66.117c.39-.271.81-.496 1.26-.67a6.982 6.982 0 0 1 2.64-.478c1.36-.035 2.7.332 3.84 1.05 1.1.71 1.97 1.702 2.51 2.861.6 1.28.9 2.674.88 4.08a9.302 9.302 0 0 1-.88 4.08 7.047 7.047 0 0 1-2.48 2.86 6.777 6.777 0 0 1-3.83 1.058 7.226 7.226 0 0 1-2.45-.393 5.526 5.526 0 0 1-.89-.394.738.738 0 0 0-.33-.088.687.687 0 0 0-.7.596v6.05c0 .143-.06.28-.16.382a.587.587 0 0 1-.4.158h-1.95a.587.587 0 0 1-.4-.158Zm3.57-10.304c.7 1.001 1.79 1.502 3.28 1.502.88.034 1.74-.219 2.44-.715a4.253 4.253 0 0 0 1.44-1.92c.32-.874.48-1.795.46-2.721a7.1 7.1 0 0 0-.48-2.693 4.179 4.179 0 0 0-1.45-1.923 4.162 4.162 0 0 0-2.51-.715c-1.44 0-2.5.495-3.18 1.487-.67.992-1.01 2.273-1.01 3.844-.02 1.568.32 2.853 1.01 3.854Zm36.02 3.057a8.02 8.02 0 0 1-4.18 1.108 8.541 8.541 0 0 1-4.16-1.022 7.203 7.203 0 0 1-2.77-2.764 8.485 8.485 0 0 1-.98-4.122c-.03-1.484.3-2.954.97-4.29a7 7 0 0 1 2.73-2.818 8.03 8.03 0 0 1 4.08-.955c1.45-.043 2.88.33 4.11 1.073 1.15.736 2.04 1.8 2.53 3.042.53 1.337.77 2.763.7 4.19 0 .138-.06.268-.17.363a.546.546 0 0 1-.38.145h-10.66a.548.548 0 0 0-.41.172.49.49 0 0 0-.11.192.544.544 0 0 0-.02.22c.13.992.57 1.924 1.26 2.67.41.391.9.696 1.44.895.54.198 1.12.285 1.7.256 1.77 0 3.06-.668 3.89-1.998a.56.56 0 0 1 .3-.253c.12-.049.26-.056.39-.019l1.95.586a.59.59 0 0 1 .2.108c.06.05.1.11.13.178a.54.54 0 0 1 .05.216c0 .074-.02.147-.06.213a6.781 6.781 0 0 1-2.53 2.614Zm-.23-8.942c-.44-2.226-1.77-3.34-3.97-3.34l-.01-.014c-1.32 0-2.34.336-3.1 1.023a4.382 4.382 0 0 0-1.3 2.317.58.58 0 0 0 0 .227.535.535 0 0 0 .53.388h7.32a.511.511 0 0 0 .41-.178.41.41 0 0 0 .11-.199c.02-.073.03-.15.01-.224Zm16.59 9.693a.545.545 0 0 0 .33-.18.488.488 0 0 0 .13-.342v-1.412a.59.59 0 0 0-.05-.227.691.691 0 0 0-.15-.186.6.6 0 0 0-.45-.134c-.69.07-1.38.07-2.06 0a2.19 2.19 0 0 1-.97-.303 2.033 2.033 0 0 1-.7-.695c-.2-.348-.31-.737-.31-1.133v-7.734c0-.143.06-.28.16-.382a.587.587 0 0 1 .4-.158h3.58c.15 0 .29-.058.4-.159.1-.1.16-.238.16-.38v-1.277c0-.143-.06-.28-.16-.382a.587.587 0 0 0-.4-.158h-3.58a.55.55 0 0 1-.39-.16.515.515 0 0 1-.17-.38V12.05c0-.143-.06-.28-.17-.381a.57.57 0 0 0-.39-.16h-1.96a.551.551 0 0 0-.39.16.515.515 0 0 0-.17.38v3.13c0 .142-.06.279-.16.38a.593.593 0 0 1-.4.16h-1.91a.63.63 0 0 0-.22.04.624.624 0 0 0-.18.118c-.05.05-.09.11-.12.175a.49.49 0 0 0-.04.206v1.276c0 .143.06.28.16.38.11.102.25.16.4.16h1.91c.07 0 .15.014.21.041.07.028.13.067.19.118.05.05.09.11.12.175.03.065.04.136.04.206v6.29c0 .822.01 1.56.03 2.213.04.667.23 1.32.56 1.909.37.684.97 1.227 1.71 1.54.81.34 1.68.522 2.57.534.81.028 1.63-.018 2.44-.14Zm-153.79 6.474a4.965 4.965 0 0 1-3.43 1.356 4.966 4.966 0 0 1-3.42-1.358c-.38-.369-.7-.794-.93-1.255l-1.61.663a.606.606 0 0 1-.24.05.652.652 0 0 1-.34-.098.622.622 0 0 1-.23-.257.59.59 0 0 1 .12-.65c.06-.057.13-.101.21-.131l1.7-.699a4.078 4.078 0 0 1 .02-1.881l-1.97-.382a.727.727 0 0 1-.22-.087.595.595 0 0 1-.16-.162.432.432 0 0 1-.09-.21.44.44 0 0 1 0-.228.435.435 0 0 1 .09-.212c.04-.064.1-.12.17-.162a.64.64 0 0 1 .46-.087l2.13.416c.23-.43.53-.827.89-1.174a4.9 4.9 0 0 1 2.13-1.188 7.488 7.488 0 0 1-.53-.456 6.101 6.101 0 0 1-1.87-3.782l-1.27.222a.953.953 0 0 1-.19.028 1.034 1.034 0 0 1-.65-.23.975.975 0 0 1-.35-.575.971.971 0 0 1 .01-.38.924.924 0 0 1 .16-.349.935.935 0 0 1 .28-.264c.11-.07.24-.117.37-.14l1.78-.315a6.183 6.183 0 0 1 1.73-2.965 6.653 6.653 0 0 1 4.58-1.815c1.71.002 3.36.655 4.57 1.815.21.198.4.409.57.63a6.732 6.732 0 0 1 4.31-.762c.31-.928.85-1.782 1.58-2.484a6.65 6.65 0 0 1 4.58-1.816c1.71.002 3.36.655 4.57 1.816.28.262.52.546.74.847l.05-.01 1.54-.27c.27-.046.54.01.76.157.23.146.38.37.43.624a.95.95 0 0 1-.16.73c-.16.213-.39.36-.66.407l-1.05.184c.16.55.25 1.125.25 1.707 0 1.21-.37 2.384-1.05 3.383.28-.05.56-.074.85-.074 1.29 0 2.52.487 3.43 1.355l.03.036 1.31-.77c.14-.08.31-.105.46-.07a.594.594 0 0 1 .46.705.607.607 0 0 1-.28.365l-1.2.71c.37.63.59 1.34.63 2.073l1.41.073c.16.009.31.079.42.195.11.115.17.267.16.422a.607.607 0 0 1-.2.374.648.648 0 0 1-.41.15h-.04l-1.43-.074c-.06.293-.15.58-.27.858-.24.562-.6 1.072-1.05 1.502a4.939 4.939 0 0 1-3.43 1.355c-1.28 0-2.51-.488-3.42-1.356a4.523 4.523 0 0 1-1.42-3.274c.01-.71.18-1.402.5-2.028-.62.185-1.27.282-1.93.283a6.65 6.65 0 0 1-4.58-1.816c-1.2-1.151-1.88-2.707-1.89-4.333a4.598 4.598 0 0 0-3.03.55c.23.644.36 1.326.36 2.02 0 1.642-.69 3.216-1.9 4.376a6.574 6.574 0 0 1-3.78 1.768c.39.403.71.869.93 1.377.24.562.37 1.165.37 1.773 0 1.228-.51 2.406-1.42 3.274Zm8.28-2.227a4.64 4.64 0 0 1-2.8-.79 4.38 4.38 0 0 1-1.72-2.27.748.748 0 0 1 .06-.584.78.78 0 0 1 .46-.384.84.84 0 0 1 .62.032c.2.09.35.25.42.445.54 1.562 1.95 2.242 3.87 1.91 1.92-.332 2.95-1.461 2.92-3.102 0-.207.08-.406.23-.553a.867.867 0 0 1 .58-.228c.22 0 .43.082.58.229.15.146.24.345.24.552.05 2.414-1.58 4.204-4.26 4.669-.4.059-.8.083-1.2.074Zm-12.69-8.063c.17.257.38.498.6.717a4.573 4.573 0 0 0 3.14 1.244c1.17-.002 2.3-.45 3.13-1.244a4.28 4.28 0 0 0 1.15-1.912c-.47-.79-2.31-2.06-4.14-1.78-1.72.263-3.29 1.78-3.88 2.975Zm8.01-3.392a4.27 4.27 0 0 0-1.14-1.879 4.57 4.57 0 0 0-3.13-1.242v-.004c-1.18.002-2.3.45-3.14 1.244a4.189 4.189 0 0 0-1.3 2.995c0 .136.01.27.03.404.99-1.232 2.54-2.38 4.3-2.644 1.59-.239 3.21.32 4.38 1.126Zm7.78 1.021c.13.167.27.326.43.474a4.53 4.53 0 0 0 3.13 1.244c1.17-.002 2.3-.45 3.13-1.244.5-.482.87-1.067 1.09-1.705-.77-.956-2.74-2-4.45-1.736-1.86.281-2.93 1.926-3.33 2.967Zm7.93-3.22c-1.32-.918-3.16-1.523-4.84-1.27-1.86.282-3.13 1.448-3.91 2.62a4.679 4.679 0 0 1-.05-.65c0-1.125.47-2.203 1.3-2.997a4.523 4.523 0 0 1 3.13-1.243c1.17.001 2.3.448 3.13 1.243a4.152 4.152 0 0 1 1.24 2.297Z" clip-rule="evenodd" />
  </g>
  <defs>
    <linearGradient id="a" x1="156" x2="156" y1="0" y2="47.5" gradientUnits="userSpaceOnUse">
      <stop stop-color="#E4E5E7" />
      <stop offset="1" stop-color="#E4E5E7" stop-opacity=".7" />
    </linearGradient>
    <linearGradient id="c" x1="435.559" x2="435.559" y1=".261" y2="47.822" gradientUnits="userSpaceOnUse">
      <stop stop-color="#E4E5E7" />
      <stop offset="1" stop-color="#E4E5E7" stop-opacity=".7" />
    </linearGradient>
    <linearGradient id="d" x1="692.855" x2="692.855" y1="0" y2="48" gradientUnits="userSpaceOnUse">
      <stop stop-color="#E4E5E7" />
      <stop offset="1" stop-color="#E4E5E7" stop-opacity=".7" />
    </linearGradient>
    <linearGradient id="e" x1="951.855" x2="951.855" y1="0" y2="48" gradientUnits="userSpaceOnUse">
      <stop stop-color="#E4E5E7" />
      <stop offset="1" stop-color="#E4E5E7" stop-opacity=".7" />
    </linearGradient>
    <linearGradient id="f" x1="1161" x2="1161" y1="-2" y2="46" gradientUnits="userSpaceOnUse">
      <stop stop-color="#E4E5E7" />
      <stop offset="1" stop-color="#E4E5E7" stop-opacity=".7" />
    </linearGradient>
    <linearGradient id="g" x1="1161" x2="1161" y1="-2" y2="46" gradientUnits="userSpaceOnUse">
      <stop stop-color="#E4E5E7" />
      <stop offset="1" stop-color="#E4E5E7" stop-opacity=".7" />
    </linearGradient>
    <linearGradient id="h" x1="1161" x2="1161" y1="-2" y2="46" gradientUnits="userSpaceOnUse">
      <stop stop-color="#E4E5E7" />
      <stop offset="1" stop-color="#E4E5E7" stop-opacity=".7" />
    </linearGradient>
    <linearGradient id="i" x1="1161" x2="1161" y1="-2" y2="46" gradientUnits="userSpaceOnUse">
      <stop stop-color="#E4E5E7" />
      <stop offset="1" stop-color="#E4E5E7" stop-opacity=".7" />
    </linearGradient>
    <linearGradient id="j" x1="1161" x2="1161" y1="-2" y2="46" gradientUnits="userSpaceOnUse">
      <stop stop-color="#E4E5E7" />
      <stop offset="1" stop-color="#E4E5E7" stop-opacity=".7" />
    </linearGradient>
    <linearGradient id="l" x1="1352.21" x2="1352.21" y1=".206" y2="48" gradientUnits="userSpaceOnUse">
      <stop stop-color="#E4E5E7" />
      <stop offset="1" stop-color="#E4E5E7" stop-opacity=".7" />
    </linearGradient>
    <linearGradient id="n" x1="1640.65" x2="1640.65" y1="0" y2="48" gradientUnits="userSpaceOnUse">
      <stop stop-color="#E4E5E7" />
      <stop offset="1" stop-color="#E4E5E7" stop-opacity=".7" />
    </linearGradient>
    <linearGradient id="p" x1="1968.22" x2="1968.22" y1="0" y2="48" gradientUnits="userSpaceOnUse">
      <stop stop-color="#E4E5E7" />
      <stop offset="1" stop-color="#E4E5E7" stop-opacity=".7" />
    </linearGradient>
    <linearGradient id="q" x1="2272.47" x2="2272.47" y1="0" y2="48" gradientUnits="userSpaceOnUse">
      <stop stop-color="#E4E5E7" />
      <stop offset="1" stop-color="#E4E5E7" stop-opacity=".7" />
    </linearGradient>
    <linearGradient id="r" x1="2272.47" x2="2272.47" y1="0" y2="48" gradientUnits="userSpaceOnUse">
      <stop stop-color="#E4E5E7" />
      <stop offset="1" stop-color="#E4E5E7" stop-opacity=".7" />
    </linearGradient>
    <linearGradient id="s" x1="2272.47" x2="2272.47" y1="0" y2="48" gradientUnits="userSpaceOnUse">
      <stop stop-color="#E4E5E7" />
      <stop offset="1" stop-color="#E4E5E7" stop-opacity=".7" />
    </linearGradient>
    <linearGradient id="t" x1="2272.47" x2="2272.47" y1="0" y2="48" gradientUnits="userSpaceOnUse">
      <stop stop-color="#E4E5E7" />
      <stop offset="1" stop-color="#E4E5E7" stop-opacity=".7" />
    </linearGradient>
    <linearGradient id="u" x1="2272.47" x2="2272.47" y1="0" y2="48" gradientUnits="userSpaceOnUse">
      <stop stop-color="#E4E5E7" />
      <stop offset="1" stop-color="#E4E5E7" stop-opacity=".7" />
    </linearGradient>
    <linearGradient id="v" x1="2272.47" x2="2272.47" y1="0" y2="48" gradientUnits="userSpaceOnUse">
      <stop stop-color="#E4E5E7" />
      <stop offset="1" stop-color="#E4E5E7" stop-opacity=".7" />
    </linearGradient>
    <linearGradient id="w" x1="2272.47" x2="2272.47" y1="0" y2="48" gradientUnits="userSpaceOnUse">
      <stop stop-color="#E4E5E7" />
      <stop offset="1" stop-color="#E4E5E7" stop-opacity=".7" />
    </linearGradient>
    <linearGradient id="x" x1="2272.47" x2="2272.47" y1="0" y2="48" gradientUnits="userSpaceOnUse">
      <stop stop-color="#E4E5E7" />
      <stop offset="1" stop-color="#E4E5E7" stop-opacity=".7" />
    </linearGradient>
    <linearGradient id="y" x1="2272.47" x2="2272.47" y1="0" y2="48" gradientUnits="userSpaceOnUse">
      <stop stop-color="#E4E5E7" />
      <stop offset="1" stop-color="#E4E5E7" stop-opacity=".7" />
    </linearGradient>
    <linearGradient id="z" x1="2272.47" x2="2272.47" y1="0" y2="48" gradientUnits="userSpaceOnUse">
      <stop stop-color="#E4E5E7" />
      <stop offset="1" stop-color="#E4E5E7" stop-opacity=".7" />
    </linearGradient>
    <linearGradient id="A" x1="2272.47" x2="2272.47" y1="0" y2="48" gradientUnits="userSpaceOnUse">
      <stop stop-color="#E4E5E7" />
      <stop offset="1" stop-color="#E4E5E7" stop-opacity=".7" />
    </linearGradient>
    <linearGradient id="B" x1="2272.47" x2="2272.47" y1="0" y2="48" gradientUnits="userSpaceOnUse">
      <stop stop-color="#E4E5E7" />
      <stop offset="1" stop-color="#E4E5E7" stop-opacity=".7" />
    </linearGradient>
    <linearGradient id="D" x1="2600.09" x2="2600.09" y1="0" y2="48" gradientUnits="userSpaceOnUse">
      <stop stop-color="#E4E5E7" />
      <stop offset="1" stop-color="#E4E5E7" stop-opacity=".7" />
    </linearGradient>
    <linearGradient id="F" x1="2901.74" x2="2901.74" y1="0" y2="48" gradientUnits="userSpaceOnUse">
      <stop stop-color="#E4E5E7" />
      <stop offset="1" stop-color="#E4E5E7" stop-opacity=".7" />
    </linearGradient>
    <clipPath id="b">
      <path fill="#fff" d="M354 0h162.857v48H354z" />
    </clipPath>
    <clipPath id="k">
      <path fill="#fff" d="M1286.86 0h130v48h-130z" />
    </clipPath>
    <clipPath id="m">
      <path fill="#fff" d="M1504.86 0h271v48h-271z" />
    </clipPath>
    <clipPath id="o">
      <path fill="#fff" d="M1863.86 0h208v48h-208z" />
    </clipPath>
    <clipPath id="C">
      <path fill="#fff" d="M2472.86 0h255v48h-255z" />
    </clipPath>
    <clipPath id="E">
      <path fill="#fff" d="M2815.86 0h172v48h-172z" />
    </clipPath>
  </defs>
</svg>