<svg width="2704" height="48" viewBox="0 0 2704 48" fill="none" xmlns="http://www.w3.org/2000/svg">
<path fill-rule="evenodd" clip-rule="evenodd" d="M40.2558 7.63136C41.388 8.06874 41.886 9.33712 41.4333 10.3868C41.071 11.2179 40.2558 11.699 39.3955 11.699C39.1239 11.699 38.8069 11.6552 38.5353 11.524C33.0562 9.29338 27.2148 8.19994 21.2829 8.19994C20.0603 8.19994 19.1094 7.23773 19.1094 6.10054C19.1094 4.96336 20.1056 4.00113 21.2829 4.00113C27.8487 3.95739 34.2334 5.18204 40.2558 7.63136ZM40.2444 16.1193C41.3763 16.5566 41.8743 17.8251 41.4216 18.8748C41.0593 19.7058 40.2444 20.1869 39.3838 20.1869C39.1122 20.1869 38.7952 20.1432 38.5236 20.012C33.0445 17.7813 27.2485 16.6879 21.2713 16.6879C15.2488 16.6879 9.4528 17.7813 4.01901 19.9682C2.88698 20.4056 1.61909 19.9245 1.16628 18.831C0.71346 17.7376 1.21155 16.5129 2.34359 16.0755C8.32076 13.67 14.6602 12.4453 21.2713 12.4453C27.8371 12.4453 34.2217 13.67 40.2444 16.1193ZM33.452 24.5162C33.7237 23.379 32.954 22.2856 31.7768 22.0231C28.2899 21.2796 24.758 20.9297 21.2713 20.9297C14.6602 20.9297 8.32077 22.1543 2.34359 24.5599C1.21155 24.9973 0.71346 26.222 1.16628 27.3154C1.52853 28.1464 2.3436 28.6275 3.20395 28.6275C3.52092 28.6275 3.7926 28.5401 4.06429 28.4526C9.49808 26.222 15.2941 25.1285 21.3166 25.1285C24.441 25.1285 27.656 25.4784 30.871 26.1345C32.0484 26.3969 33.1804 25.6534 33.452 24.5162ZM21.3166 29.3672C22.5392 29.3672 23.4901 30.3294 23.4901 31.4667C23.4901 32.6037 22.4939 33.5659 21.3166 33.5659C15.2941 33.5659 9.49807 34.6595 4.06429 36.8901L4.06426 36.8902C3.79258 36.9776 3.52091 37.0651 3.20395 37.0651C2.3436 37.0651 1.52853 36.584 1.16628 35.7528C0.71346 34.6595 1.21155 33.4347 2.34359 32.9973C8.36604 30.5918 14.7055 29.3672 21.3166 29.3672ZM61.1271 35.9745V37.5811H56.7109V13.6406H61.1956V23.0978C61.9487 21.9404 63.7973 20.8823 66.2964 20.8823C71.2264 20.8823 74.0678 24.5527 74.0678 29.3805C74.0678 34.3075 70.918 37.9779 66.1252 37.9779C63.7973 37.9779 62.8388 37.7518 61.1271 35.9745ZM65.3379 34.043C67.6658 34.043 69.9707 32.4611 69.9707 29.4852C69.9707 26.5092 67.6658 24.8173 65.3379 24.8173C63.0442 24.8173 60.6992 26.5092 60.6992 29.4852C60.6992 32.4281 63.0442 34.043 65.3379 34.043ZM88.2963 37.5893H92.644C92.5755 37.0272 92.4728 35.9029 92.4728 34.6464V21.3203H87.9197V30.7776C87.9197 32.6624 86.7558 33.985 84.736 33.985C82.6132 33.985 81.6547 32.5301 81.6547 30.7114V21.3203H77.1016V31.6042C77.1016 35.1424 79.4295 38.0192 83.5033 38.0192C85.2837 38.0192 87.235 37.3578 88.1594 35.8368C88.1594 36.4981 88.2278 37.2586 88.2963 37.5893ZM104.707 24.8537C102.721 24.8537 101.557 26.3417 101.557 28.2265V37.5845H97.0039V21.3156H101.557V22.2985C102.816 21.0353 104.847 21.1432 105.999 21.2044C106.135 21.2117 106.259 21.2183 106.368 21.2218C109.221 21.3156 112.375 23.7625 112.375 27.3337V37.5845H107.822V28.0943C107.822 26.2756 106.897 24.8537 104.707 24.8537ZM153.129 33.0552C153.334 34.9069 155.08 38.0813 160.147 38.0813C164.563 38.0813 166.686 35.3699 166.686 32.7245C166.686 30.3436 165.008 28.3927 161.688 27.7313L159.291 27.2353C158.367 27.07 157.75 26.574 157.75 25.7804C157.75 24.8545 158.709 24.1601 159.907 24.1601C161.825 24.1601 162.543 25.3836 162.68 26.3425L166.48 25.5158C166.275 23.7633 164.666 20.8203 159.873 20.8203C156.244 20.8203 153.574 23.2342 153.574 26.1441C153.574 28.4257 155.046 30.3105 158.298 31.0051L160.524 31.5011C161.825 31.7656 162.338 32.3608 162.338 33.0883C162.338 33.948 161.619 34.7085 160.113 34.7085C158.127 34.7085 157.134 33.5181 157.032 32.2285L153.129 33.0552ZM177.726 24.8503C175.809 24.8503 174.679 26.2391 174.577 28.0248V37.5812H170.023V13.6406H174.577V22.6679C175.672 21.4114 177.521 20.8823 179.13 20.8823C183.409 20.8823 185.395 23.7591 185.395 27.3303V37.5812H180.841V28.0909C180.841 26.2722 179.917 24.8503 177.726 24.8503ZM192.994 27.5991C193.096 26.111 194.397 24.3916 196.759 24.3916C199.361 24.3916 200.457 25.9788 200.525 27.5991H192.994ZM200.97 31.8317C200.422 33.2867 199.258 34.3117 197.136 34.3117C194.876 34.3117 192.994 32.7576 192.891 30.6082H204.941C204.941 30.592 204.945 30.54 204.952 30.4616V30.4615C204.971 30.2198 205.01 29.7267 205.01 29.2524C205.01 24.0278 201.894 20.8203 196.691 20.8203C192.377 20.8203 188.406 24.1931 188.406 29.3847C188.406 34.8739 192.48 38.0813 197.102 38.0813C201.244 38.0813 203.914 35.7336 204.77 32.9229L200.97 31.8317ZM212.803 13.6406V37.5812H208.25V13.6406H212.803ZM221.881 37.5812V13.6406H217.328V37.5812H221.881ZM157.025 13.6406L141.8 43.9961H136.973L151.991 13.6406H157.025ZM138.199 20.8828H133.098L136.305 28.1465L137.908 31.7785L138.71 33.5942L141.562 28.0253L140.441 25.6445L139.32 23.2636L138.199 20.8828ZM124.312 24.8537C122.326 24.8537 121.162 26.3417 121.162 28.2265V37.5845H116.609V21.3155H121.162V22.2985C122.421 21.0353 124.452 21.1432 125.604 21.2044C125.741 21.2117 125.865 21.2183 125.974 21.2218C128.827 21.3155 131.981 23.7625 131.981 27.3337V37.5845H127.427V28.0943C127.427 26.2756 126.503 24.8537 124.312 24.8537Z" fill="url(#paint0_linear_18081_13910)"/>
<path d="M368.471 15C362.042 15 357.406 19.05 357.406 25.125C357.406 31.2 362.624 35.25 369.053 35.25C372.937 35.25 376.362 33.765 378.481 31.2619L374.026 28.7756C372.85 30.0188 371.062 30.7444 369.053 30.7444C366.264 30.7444 363.894 29.3381 363.014 27.0881H379.332C379.46 26.4581 379.535 25.8056 379.535 25.1194C379.535 19.05 374.9 15 368.471 15ZM362.962 23.1562C363.69 20.9119 365.681 19.5 368.465 19.5C371.254 19.5 373.246 20.9119 373.968 23.1562H362.962ZM431.178 15C424.749 15 420.114 19.05 420.114 25.125C420.114 31.2 425.332 35.25 431.761 35.25C435.645 35.25 439.069 33.765 441.189 31.2619L436.734 28.7756C435.558 30.0188 433.77 30.7444 431.761 30.7444C428.971 30.7444 426.601 29.3381 425.722 27.0881H442.039C442.167 26.4581 442.243 25.8056 442.243 25.1194C442.243 19.05 437.608 15 431.178 15ZM425.675 23.1562C426.403 20.9119 428.395 19.5 431.178 19.5C433.968 19.5 435.959 20.9119 436.682 23.1562H425.675ZM402.946 25.125C402.946 28.5 405.229 30.75 408.77 30.75C411.169 30.75 412.968 29.6981 413.894 27.9825L418.367 30.4744C416.515 33.4556 413.044 35.25 408.77 35.25C402.335 35.25 397.705 31.2 397.705 25.125C397.705 19.05 402.34 15 408.77 15C413.044 15 416.509 16.7944 418.367 19.7756L413.894 22.2675C412.968 20.5519 411.169 19.5 408.77 19.5C405.235 19.5 402.946 21.75 402.946 25.125ZM450.978 8.8125V34.6875H445.737V8.8125H450.978ZM307.854 6L329.372 42H286.336L307.854 6ZM361.651 8.8125L345.514 35.8125L329.378 8.8125H335.428L345.514 25.6875L355.601 8.8125H361.651ZM395.958 15.5625V21.0131C395.375 20.85 394.758 20.7375 394.094 20.7375C390.711 20.7375 388.271 22.9875 388.271 26.3625V34.6875H383.03V15.5625H388.271V20.7375C388.271 17.88 391.712 15.5625 395.958 15.5625Z" fill="url(#paint1_linear_18081_13910)"/>
<path fill-rule="evenodd" clip-rule="evenodd" d="M518.663 4C517.234 4 516.074 5.12029 516.074 6.50165V14.8328C516.074 16.2141 517.234 17.3344 518.663 17.3344H533.327V30.6656H518.663C517.234 30.6656 516.074 31.7859 516.074 33.1672V41.4983C516.074 42.8797 517.234 44 518.663 44H530.737C532.167 44 533.327 42.8797 533.327 41.4983V30.6722H547.99C549.42 30.6722 550.579 29.5519 550.579 28.1705V19.8361C550.579 18.4547 549.42 17.3344 547.99 17.3344H533.33V6.50165C533.33 5.12029 532.171 4 530.741 4H518.663ZM681.776 9.97969C681.776 9.57321 681.427 9.25927 680.979 9.25927H677.695C677.247 9.25927 676.898 9.59635 676.898 9.97969V14.5963H671.795C671.347 14.5963 670.998 14.9334 670.998 15.3168V17.6962C670.998 18.1026 671.347 18.4166 671.795 18.4166H676.898V25.4886C676.898 30.8984 679.535 33.4001 685.213 33.4001H689.841C690.289 33.4001 690.638 33.063 690.638 32.6796V30.3002C690.638 29.8938 690.289 29.5798 689.841 29.5798H685.959C682.87 29.5798 681.776 28.4 681.776 25.4655V18.443H690.412C690.86 18.4166 691.209 18.0795 691.209 17.6962V15.3168C691.209 14.9103 690.86 14.5963 690.412 14.5963H681.776V9.97969ZM665.844 15.3201C665.844 14.9136 665.495 14.5997 665.047 14.5997V14.603H655.015C654.567 14.603 654.218 14.94 654.218 15.3234V17.7028C654.218 18.1092 654.567 18.4232 655.015 18.4232H660.963V29.5831H655.015C654.567 29.5831 654.218 29.9202 654.218 30.3036V32.6829C654.218 33.0894 654.567 33.4034 655.015 33.4034H671.942C672.39 33.4034 672.739 33.0663 672.739 32.6829V30.3036C672.739 29.8971 672.39 29.5831 671.942 29.5831H665.844V15.3201ZM666.042 8.05636C666.018 7.64989 665.669 7.33594 665.245 7.33594H660.764C660.316 7.33594 659.967 7.67302 659.967 8.05636V11.1099C659.967 11.5164 660.316 11.8303 660.764 11.8303H665.245C665.693 11.8303 666.042 11.4932 666.042 11.1099V8.05636ZM645.379 29.5831H650.459C650.907 29.5831 651.256 29.8938 651.256 30.3036V32.6829C651.256 33.0663 650.907 33.4034 650.459 33.4034H633.904C633.456 33.4034 633.107 33.0927 633.107 32.6829V30.3036C633.107 29.9202 633.456 29.5831 633.904 29.5831H640.502V11.1595H634.626C634.178 11.1595 633.829 10.8488 633.829 10.439V8.05636C633.829 7.67302 634.178 7.33594 634.626 7.33594H644.582C645.031 7.33594 645.379 7.64658 645.379 8.05636V29.5831ZM619.566 15.4622C620.51 14.5963 621.731 14.2361 623.424 14.2361C628.38 14.2361 631.267 17.4615 631.287 24.0246C631.287 30.5911 628.377 33.8131 623.547 33.8131C621.881 33.8131 620.76 33.4034 619.839 32.5871L618.67 31.5065L617.575 31.7477L617.999 34.6096V39.95C617.999 40.3333 617.65 40.6704 617.202 40.6704H613.915C613.467 40.6704 613.118 40.3597 613.118 39.95V15.3201C613.118 14.9367 613.467 14.5997 613.915 14.5997H616.156C616.532 14.5997 616.829 14.8376 616.929 15.1515L617.325 16.5461H618.396L619.566 15.4622ZM617.972 26.3115C617.972 28.6446 619.34 29.8706 621.806 29.8706C624.82 29.8706 626.164 28.0431 626.188 23.9817C626.188 19.9632 624.82 18.1357 621.806 18.1357C619.316 18.1357 617.972 19.3617 617.972 21.6948V26.3115ZM589.569 24.0015C589.569 17.4582 592.931 14.2361 599.204 14.2361C605.652 14.2361 608.764 17.4847 608.015 24.7252H594.399C594.597 28.5983 596.092 30.2573 599.228 30.2573C601.246 30.2573 602.738 29.5831 603.261 28.1654C603.384 27.8746 603.682 27.6829 604.006 27.6829H606.992C607.492 27.6829 607.889 28.1158 607.765 28.5719C606.945 31.8667 603.856 33.79 599.078 33.79C592.904 33.79 589.569 30.5679 589.569 24.0015ZM599.18 17.6301C596.492 17.6301 595.021 18.9519 594.549 21.7907H603.463C603.387 19.0973 602.043 17.6301 599.18 17.6301ZM578.74 16.523L579.862 15.439C580.833 14.5732 582.301 14.2361 584.165 14.2626H586.703C587.151 14.2626 587.5 14.5732 587.5 14.983V17.6036C587.5 17.987 587.151 18.324 586.703 18.324H582.42C579.783 18.324 578.439 19.4774 578.439 21.6915V29.5798H584.141C584.589 29.5798 584.938 29.8905 584.938 30.3002V32.6796C584.938 33.063 584.589 33.4001 584.141 33.4001H568.633C568.185 33.4001 567.836 33.0894 567.836 32.6796V30.3002C567.836 29.9169 568.185 29.5798 568.633 29.5798H573.562V18.4199H569.331C568.883 18.4199 568.534 18.1092 568.534 17.6995V15.3201C568.534 14.9367 568.883 14.5997 569.331 14.5997H576.5C576.876 14.5997 577.198 14.8145 577.273 15.1515L577.622 16.523H578.74Z" fill="url(#paint2_linear_18081_13910)"/>
<g clip-path="url(#clip0_18081_13910)">
<path fill-rule="evenodd" clip-rule="evenodd" d="M800.571 0.534913C803.29 3.6769 804.134 12.1875 802.731 16.4535C802.265 17.872 802.133 19.3707 802.402 20.8266C802.676 22.2718 802.95 24.0168 802.95 25.2317C802.95 37.7035 792.597 47.8196 779.821 47.8196C767.051 47.8196 756.693 37.7088 756.693 25.2317C756.693 24.0168 756.967 22.2718 757.241 20.8266C757.515 19.3707 757.389 17.872 756.923 16.4535C755.52 12.1928 756.364 3.68223 759.082 0.534913C759.438 0.128116 760.102 0.181643 760.398 0.636611L763.746 5.76974C764.579 6.79208 766.07 7.03299 767.188 6.31574C770.822 3.9927 775.163 2.64383 779.827 2.64383C784.491 2.64383 788.831 3.9927 792.465 6.31574C793.589 7.03299 795.08 6.79745 795.907 5.76974L799.256 0.636611C799.552 0.181643 800.215 0.122764 800.571 0.534913ZM761.916 25.2853C761.916 34.9307 769.945 42.7777 779.821 42.7777C789.697 42.7777 797.732 34.9307 797.738 25.2907C797.738 24.9802 797.727 24.6644 797.71 24.354C797.354 17.7863 793.265 12.1661 787.483 9.48979C785.159 8.40322 782.567 7.80374 779.827 7.80374C777.086 7.80374 774.488 8.40322 772.17 9.48448C766.388 12.1608 762.299 17.7756 761.943 24.3486C761.927 24.6591 761.916 24.9695 761.916 25.2853ZM783.005 24.2693L787.581 32.02C787.674 32.1752 787.674 32.3679 787.581 32.5178C787.493 32.673 787.323 32.7693 787.137 32.7693H783.416C783.235 32.7693 783.065 32.673 782.972 32.5178L780.527 28.3801L777.804 32.5336C777.71 32.6783 777.546 32.764 777.371 32.764H773.594C773.403 32.764 773.227 32.6621 773.139 32.5016C773.052 32.341 773.057 32.1431 773.161 31.9879L778.198 24.4834L774.444 18.3226C774.351 18.1674 774.345 17.9747 774.438 17.8195C774.532 17.6588 774.701 17.5625 774.888 17.5625H778.637C778.817 17.5625 778.987 17.6535 779.081 17.8087L783.005 24.2693ZM824.28 12.2969H829.054V37.8607H824.28V26.9683H818.887V37.8663H814.113V12.2969H818.887V23.3981H824.28V12.2969ZM842.783 32.559L843.781 37.8686H848.582L843.063 12.3047H836.634L831.367 37.8686H836.141L837.056 32.559H842.783ZM842.12 29.0315H837.681L839.84 16.7955L842.12 29.0315ZM859.214 33.2064V27.7362C859.214 27.3026 859.132 27.0136 858.968 26.8637C858.803 26.7138 858.496 26.6389 858.052 26.6389H854.693C851.843 26.6389 850.418 25.2901 850.418 22.587V16.3138C850.418 13.6374 851.908 12.3047 854.895 12.3047H859.461C862.448 12.3047 863.939 13.6428 863.939 16.3138V19.8786H859.127V16.9614C859.127 16.5278 859.044 16.2388 858.88 16.0889C858.716 15.9391 858.409 15.8642 857.965 15.8642H856.387C855.915 15.8642 855.597 15.9391 855.433 16.0889C855.268 16.2388 855.186 16.5278 855.186 16.9614V22.1053C855.186 22.5388 855.268 22.8278 855.433 22.9777C855.597 23.1276 855.915 23.2025 856.387 23.2025H859.664C862.568 23.2025 864.021 24.5246 864.021 27.1742V33.8597C864.021 36.5358 862.514 37.8686 859.499 37.8686H855.016C852.002 37.8686 850.495 36.5305 850.495 33.8597V30.3322H855.263V33.2064C855.263 33.6399 855.345 33.9292 855.509 34.0791C855.674 34.2287 855.992 34.3038 856.463 34.3038H858.041C858.485 34.3038 858.787 34.2287 858.957 34.0791C859.127 33.9292 859.214 33.6399 859.214 33.2064ZM881.528 12.2969H876.76V33.2041C876.76 33.6376 876.677 33.9266 876.513 34.0765C876.349 34.2264 876.03 34.3012 875.559 34.3012H873.362C872.918 34.3012 872.61 34.2264 872.446 34.0765C872.282 33.9266 872.2 33.6376 872.2 33.2041V12.2969H867.426V33.8517C867.426 36.5226 868.933 37.8607 871.948 37.8607H877.006C880.021 37.8607 881.528 36.5279 881.528 33.8517V12.2969ZM890.241 27.8997V37.8663H885.473V12.2969H895.097C898.112 12.2969 899.618 13.635 899.618 16.306V23.8852C899.618 26.1012 898.61 27.3965 896.588 27.7765L900.945 37.8663H895.799L891.814 27.8997H890.241ZM890.241 15.8617V24.4526H893.683C894.127 24.4526 894.429 24.3777 894.598 24.2278C894.763 24.0779 894.845 23.7889 894.845 23.3553V16.959C894.845 16.5254 894.763 16.2364 894.598 16.0865C894.434 15.9366 894.127 15.8617 893.683 15.8617H890.241ZM913.059 32.559L914.057 37.8686H918.863L913.344 12.3047H906.915L901.648 37.8686H906.416L907.332 32.559H913.059ZM912.402 29.0315H907.962L910.122 16.7955L912.402 29.0315Z" fill="url(#paint3_linear_18081_13910)"/>
</g>
<path d="M983.395 7V16.35H993.075V7H983.395Z" fill="url(#paint4_linear_18081_13910)"/>
<path d="M993.075 19.75H983.395V41H993.075V19.75Z" fill="url(#paint5_linear_18081_13910)"/>
<path d="M1006.27 41H996.595V7H1006.27V41Z" fill="url(#paint6_linear_18081_13910)"/>
<path d="M1009.79 7V41H1019.47V7H1009.79Z" fill="url(#paint7_linear_18081_13910)"/>
<path fill-rule="evenodd" clip-rule="evenodd" d="M1040.59 7C1050.32 7 1058.19 14.6111 1058.19 24V41H1048.51V39.1856C1046.13 40.3463 1043.44 41 1040.59 41C1030.87 41 1022.99 33.3889 1022.99 24C1022.99 14.6111 1030.87 7 1040.59 7ZM1040.59 31.65C1044.97 31.65 1048.51 28.225 1048.51 24C1048.51 19.775 1044.97 16.35 1040.59 16.35C1036.22 16.35 1032.67 19.775 1032.67 24C1032.67 28.225 1036.22 31.65 1040.59 31.65Z" fill="url(#paint8_linear_18081_13910)"/>
<g clip-path="url(#clip1_18081_13910)">
<path fill-rule="evenodd" clip-rule="evenodd" d="M1213.23 10.9601L1213.25 34.2499C1213.25 38.1322 1214.74 39.52 1218.65 39.5305C1219.76 39.5305 1221.78 39.2475 1222.69 38.692V34.3694H1219.69L1219.68 15.0122V10.1719L1213.23 10.9601ZM1174.17 25.3252H1176.65L1176.65 33.9913C1176.65 38.3139 1179.16 39.7016 1182.79 39.7016C1185.21 39.7016 1187.24 39.2257 1189.14 38.1147L1188.19 34.3414C1187.12 34.6579 1186.17 34.8969 1185.22 34.8969C1183.57 34.8969 1182.91 34.3015 1182.91 32.3185V25.323H1188.72L1188.74 21.1179H1182.92V15.1875L1176.7 16.026V21.12H1174.17V25.3252ZM1164.68 20.1328C1158.69 20.1328 1154.34 23.8998 1154.34 30.4424C1154.34 36.4714 1157.76 39.6828 1163.94 39.6745C1168.23 39.6745 1171.65 38.6033 1173.38 36.9786L1171.98 33.0963C1169.89 34.1679 1167.55 34.7387 1165.18 34.7608C1161.47 34.7608 1160.32 32.5052 1160.32 29.7297C1160.32 26.0401 1162.54 24.8516 1164.4 24.8516C1165.26 24.8516 1166.01 24.9312 1166.34 25.1681L1167.33 27.7864L1171.57 27.5076C1172.02 26.6196 1172.25 25.6407 1172.23 24.6525C1172.23 20.9252 1168.19 20.1328 1164.68 20.1328ZM1190.61 30.5547C1190.61 24.4084 1194.07 20.2031 1201.12 20.2031C1207.3 20.2031 1210.47 23.6138 1210.47 29.2466C1210.47 36.1455 1206.68 39.6756 1199.84 39.6756C1194.65 39.6756 1190.61 36.8205 1190.61 30.5547ZM1200.46 24.5655C1198.06 24.5655 1196.83 26.3117 1196.83 29.8419C1196.83 32.9738 1197.61 35.4327 1200.5 35.4327C1203.38 35.4327 1204.25 33.4496 1204.25 29.9195C1204.25 26.7478 1203.26 24.5655 1200.46 24.5655ZM1226.65 26.1952V20.6966H1232.86C1232.86 20.6966 1232.84 21.5142 1232.84 25.8766V39.1021H1226.64C1226.65 38.121 1226.65 28.019 1226.65 26.1952ZM1226.08 14.8144C1226.08 12.7915 1227.73 11.6406 1230 11.6406C1231.86 11.6406 1233.38 12.5923 1233.38 14.6153C1233.38 16.7116 1231.94 17.9065 1229.42 17.9065C1227.35 17.8981 1226.07 16.6403 1226.07 14.8144H1226.08ZM1244.04 35.1939C1242.1 35.1939 1239.5 34.6405 1237.69 33.1333L1236.2 37.0471C1237.69 38.7514 1240.99 39.743 1244.24 39.743C1249.35 39.743 1252.82 37.3301 1252.82 33.2444C1252.82 28.9863 1249.01 28.2782 1245.98 27.7163C1243.99 27.3469 1242.35 27.0407 1242.35 25.8298C1242.35 24.8781 1243.33 24.4818 1245.07 24.4818C1246.43 24.4818 1248.36 24.7188 1250.75 25.7103L1251.83 21.8238C1249.68 20.2767 1246.71 20 1244.98 20C1239.63 20 1236.9 22.6958 1236.9 26.0667C1236.9 29.4837 1239.75 30.5947 1242.47 31.3074C1242.59 31.3389 1242.71 31.3718 1242.85 31.4062C1244.55 31.8512 1247.25 32.555 1247.25 33.8062C1247.25 34.758 1245.73 35.1939 1244.04 35.1939ZM1140.57 24.336C1142.05 24.336 1143.25 23.1835 1143.25 21.7618C1143.25 20.34 1142.05 19.1875 1140.57 19.1875C1139.1 19.1875 1137.9 20.34 1137.9 21.7618C1137.9 23.1835 1139.1 24.336 1140.57 24.336ZM1139.68 12.1953C1148.09 12.1953 1152.62 16.759 1152.62 25.3265C1152.62 32.4099 1149.73 36.8142 1144.73 38.6548C1145.08 39.4545 1145.35 40.2861 1145.52 41.1368C1145.64 41.8061 1145.7 42.4819 1145.72 43.1597C1145.74 43.7549 1145.53 44.3371 1145.14 44.7939C1144.74 45.2507 1144.18 45.5497 1143.57 45.6333C1143.21 45.6846 1142.84 45.6602 1142.49 45.5618C1142.14 45.4634 1141.82 45.2933 1141.55 45.0633C1141.27 44.8334 1141.05 44.549 1140.9 44.2298C1140.75 43.9106 1140.68 43.5641 1140.68 43.2142C1140.7 42.7768 1140.67 42.3387 1140.61 41.9061C1140.24 40.139 1139.66 39.6861 1138.82 39.6526H1138.53C1138.23 39.6526 1137.93 39.6442 1137.63 39.6316C1137.49 40.6769 1137.28 41.7111 1136.99 42.7258C1136.35 45.1638 1135.24 48.0986 1133.74 47.7988C1131.98 47.4487 1130 46.2161 1130.96 43.1492C1131.08 42.7478 1131.2 42.3607 1131.32 41.9906C1131.92 40.1245 1132.38 38.694 1131.39 38.0783L1131.09 37.9022C1130.23 37.3656 1129.35 37.7031 1128.33 39.2124C1128.1 39.5889 1127.91 39.9863 1127.75 40.3989C1127.62 40.7248 1127.42 41.0192 1127.16 41.2621C1126.89 41.5049 1126.58 41.6902 1126.24 41.8054C1125.89 41.9205 1125.53 41.9628 1125.17 41.9291C1124.8 41.8955 1124.45 41.7868 1124.14 41.6105C1123.6 41.3129 1123.2 40.8344 1123.01 40.2676C1122.82 39.7009 1122.85 39.0859 1123.1 38.5416C1123.38 37.9188 1123.7 37.315 1124.07 36.7345C1124.87 35.5054 1125.9 34.4341 1127.12 33.5776C1126.17 31.6343 1125.66 29.2026 1125.66 26.2404C1125.66 17.1992 1131.27 12.1953 1139.68 12.1953ZM1132.48 25.6473C1132.48 30.8524 1134.19 34.5753 1139.18 34.5753C1143.55 34.5753 1145.84 32.0137 1145.84 25.8485C1145.84 20.243 1143.51 17.3208 1139.26 17.3208C1135.02 17.3208 1132.48 20.1969 1132.48 25.6473Z" fill="url(#paint9_linear_18081_13910)"/>
</g>
<g clip-path="url(#clip2_18081_13910)">
<path fill-rule="evenodd" clip-rule="evenodd" d="M1376.54 35.9748L1376.09 37.4626C1376.05 37.6146 1375.95 37.7475 1375.82 37.8415C1375.68 37.9355 1375.52 37.9855 1375.36 37.9839H1317.45C1317.3 37.9833 1317.16 37.9314 1317.05 37.8378C1316.94 37.7443 1316.86 37.6153 1316.84 37.4746C1316.57 35.6919 1316.69 33.8728 1317.19 32.1378C1317.7 30.4028 1318.58 28.7915 1319.78 27.4107C1320.98 26.0298 1322.47 24.9109 1324.15 24.128C1325.83 23.3452 1327.67 22.9163 1329.53 22.8697C1329.06 21.0759 1329.18 19.1857 1329.87 17.4584C1330.55 15.731 1331.78 14.2513 1333.37 13.2223C1334.96 12.1934 1336.84 11.6655 1338.76 11.7113C1340.67 11.7571 1342.53 12.3742 1344.06 13.478C1345.51 9.36712 1348.31 5.82603 1352.03 3.39386C1355.76 0.961699 1360.2 -0.228277 1364.69 0.00512312C1369.18 0.238523 1373.47 1.88251 1376.9 4.68677C1380.33 7.49103 1382.72 11.3019 1383.71 15.5392C1383.72 15.6106 1383.73 15.683 1383.73 15.7557C1383.73 15.8928 1383.71 16.0289 1383.66 16.1567L1381.86 20.7122C1380.43 24.3053 1376.35 27.2488 1372.61 27.4132L1340.95 27.8142C1340.79 27.8252 1340.63 27.8819 1340.5 27.9775C1340.37 28.073 1340.28 28.2031 1340.22 28.3515C1340.19 28.4402 1340.17 28.5358 1340.19 28.6303C1340.2 28.7247 1340.23 28.8152 1340.29 28.8939C1340.34 28.9727 1340.42 29.0375 1340.5 29.0827C1340.59 29.1279 1340.68 29.1522 1340.78 29.1536L1372.14 29.5385C1373.8 29.6147 1375.15 30.2644 1375.98 31.3712C1376.87 32.5742 1377.06 34.2063 1376.54 35.9748ZM1385.68 16.5238C1385.99 16.5078 1386.28 16.4998 1386.56 16.4998H1386.56C1389.21 16.5029 1391.82 17.0973 1394.19 18.2365C1396.56 19.3757 1398.62 21.0288 1400.22 23.0666C1401.82 25.1043 1402.91 27.4716 1403.4 29.9833C1403.9 32.4949 1403.78 35.0829 1403.07 37.5449C1403.03 37.6815 1402.95 37.8024 1402.84 37.8876C1402.72 37.9729 1402.58 38.0175 1402.43 38.0141H1378.5C1378.45 38.0109 1378.39 37.9944 1378.34 37.9659C1378.29 37.9373 1378.24 37.8976 1378.21 37.8499C1378.18 37.8023 1378.16 37.748 1378.15 37.6915C1378.15 37.635 1378.16 37.5779 1378.18 37.5249L1378.68 36.2577C1380.1 32.6686 1384.17 29.7292 1387.94 29.5608L1394.89 29.1597C1395.05 29.1488 1395.21 29.092 1395.33 28.9965C1395.46 28.9009 1395.56 28.7708 1395.61 28.6224C1395.65 28.532 1395.66 28.435 1395.65 28.3394C1395.64 28.2438 1395.6 28.1524 1395.54 28.073C1395.49 27.9987 1395.42 27.9374 1395.34 27.8943C1395.26 27.8511 1395.16 27.8271 1395.07 27.8244L1388.38 27.4234C1387.64 27.4226 1386.91 27.257 1386.24 26.9392C1385.58 26.6214 1385 26.16 1384.55 25.5907C1383.65 24.3877 1383.46 22.7556 1383.99 20.9871L1385.23 16.8727C1385.26 16.7983 1385.3 16.7301 1385.35 16.6741C1385.41 16.6181 1385.47 16.5762 1385.55 16.5519C1385.59 16.5346 1385.64 16.5251 1385.68 16.5238ZM1430.05 23.9216H1434.01V34.372H1440.93V37.7205H1430.05V23.9216ZM1445.04 30.842V30.878C1445.04 34.828 1448.32 38.0161 1452.71 38.0161C1457.1 38.0161 1460.43 34.804 1460.43 30.842V30.8019C1460.43 26.8398 1457.15 23.6638 1452.75 23.6638C1448.36 23.6638 1445.04 26.8799 1445.04 30.842ZM1456.39 30.842V30.878C1456.39 32.8711 1454.92 34.5674 1452.75 34.5674C1450.59 34.5674 1449.1 32.847 1449.1 30.842V30.8019C1449.1 28.8088 1450.53 27.1165 1452.71 27.1165C1454.9 27.1165 1456.39 28.8369 1456.39 30.842ZM1465.26 31.6772V23.9216H1469.28V31.589C1469.28 33.5941 1470.32 34.5284 1471.92 34.5284C1473.51 34.5284 1474.55 33.6221 1474.55 31.6893V23.9216H1478.57V31.569C1478.57 36.0242 1475.94 37.9852 1471.88 37.9852C1467.82 37.9852 1465.26 35.9801 1465.26 31.6772ZM1490.14 23.9216H1484.63V37.7165H1490.06C1495.2 37.7165 1498.2 34.761 1498.2 30.779V30.7389C1498.2 26.7608 1495.24 23.9216 1490.14 23.9216ZM1494.14 30.8551C1494.14 33.0848 1492.57 34.348 1490.2 34.348L1488.58 34.3319V27.3262H1490.2C1492.57 27.3262 1494.14 28.6095 1494.14 30.8191V30.8551ZM1503.95 23.9216H1515.38V27.2741H1507.91V29.62H1514.67V32.792H1507.91V37.7205H1503.95V23.9216ZM1524.85 23.9216H1520.89V37.7205H1531.77V34.372H1524.85V23.9216ZM1542.15 23.8279H1545.97L1552.03 37.723H1547.79L1546.75 35.2608H1541.24L1540.22 37.723H1536.07L1542.15 23.8279ZM1545.62 32.2812L1544.03 28.3593L1542.4 32.2812H1545.62ZM1563.88 23.9216H1557.12V37.7205H1561.09V33.5419H1562.82L1565.7 37.7205H1570.27L1566.86 32.9083C1567.75 32.5891 1568.51 32.0079 1569.04 31.2472C1569.57 30.4865 1569.83 29.5847 1569.8 28.6696V28.6295C1569.83 28.0392 1569.73 27.4493 1569.52 26.897C1569.3 26.3448 1568.96 25.8423 1568.53 25.4214C1567.57 24.475 1566.07 23.9216 1563.88 23.9216ZM1565.82 28.9102C1565.82 29.9128 1565.05 30.5464 1563.7 30.5464H1561.09V27.234H1563.68C1564.99 27.234 1565.82 27.7834 1565.82 28.8701V28.9102ZM1575.52 23.9216H1587.01V27.1738H1579.43V29.2631H1586.29V32.2787H1579.43V34.4683H1587.11V37.7205H1575.52V23.9216ZM1420.07 33.9947C1420.66 33.6262 1421.11 33.0982 1421.38 32.4783L1425.56 32.4943C1424.79 35.6543 1421.84 38.0123 1418.07 38.0123C1413.66 38.0123 1410.4 34.8363 1410.4 30.8742V30.8341C1410.4 26.8641 1413.7 23.656 1418.11 23.656C1421.99 23.656 1424.97 26.0982 1425.62 29.3825H1421.47C1421.22 28.7085 1420.75 28.1264 1420.15 27.7163C1419.54 27.3063 1418.81 27.0884 1418.07 27.0927C1415.91 27.0927 1414.46 28.7769 1414.46 30.782V30.8221C1414.46 32.8111 1415.95 34.5475 1418.11 34.5475C1418.81 34.5557 1419.49 34.3633 1420.07 33.9947Z" fill="url(#paint10_linear_18081_13910)"/>
</g>
<g clip-path="url(#clip3_18081_13910)">
<path d="M1740.38 18.8125C1738.12 18.8125 1736.26 19.3221 1734.83 20.3073C1733.37 21.2925 1732.58 22.6853 1732.33 24.4518H1735.37C1735.55 23.5346 1736.12 22.7872 1736.98 22.2437C1737.8 21.7001 1738.91 21.4283 1740.2 21.4283C1741.7 21.4283 1742.84 21.7341 1743.7 22.4135C1744.52 23.093 1744.92 24.0102 1744.92 25.1653V26.3883H1739.34C1736.84 26.3883 1734.98 26.8979 1733.69 27.8491C1732.37 28.8002 1731.72 30.2271 1731.72 32.0277C1731.72 33.6583 1732.37 34.9153 1733.65 35.8665C1734.9 36.8177 1736.59 37.2934 1738.69 37.2934C1741.45 37.2934 1743.56 36.2742 1745.06 34.2698L1745.31 37.0895H1747.96V25.3691C1747.96 23.2968 1747.28 21.6662 1745.99 20.5451C1744.67 19.39 1742.77 18.8125 1740.38 18.8125ZM1744.95 29.7175C1744.95 31.2464 1744.42 32.4693 1743.34 33.3866C1742.27 34.3378 1740.8 34.8134 1738.94 34.8134C1737.69 34.8134 1736.69 34.5416 1735.94 33.998C1735.19 33.4544 1734.83 32.7411 1734.83 31.8578C1734.83 29.8535 1736.26 28.8682 1739.09 28.8682H1744.95V29.7175Z" fill="#C9CBCF"/>
<path d="M1754.38 12.0859C1753.8 12.0859 1753.34 12.2558 1752.95 12.6295C1752.55 13.0032 1752.38 13.4448 1752.38 13.9884C1752.38 14.5319 1752.55 14.9736 1752.95 15.3473C1753.34 15.7209 1753.8 15.8908 1754.38 15.8908C1754.95 15.8908 1755.41 15.7209 1755.81 15.3473C1756.2 14.9736 1756.38 14.5319 1756.38 13.9884C1756.38 13.4448 1756.2 13.0032 1755.81 12.6295C1755.41 12.2558 1754.91 12.0859 1754.38 12.0859Z" fill="#C9CBCF"/>
<path d="M1749.86 21.7045H1752.86V37.0599H1755.9V19.0547H1749.86V21.7045Z" fill="#C9CBCF"/>
<path d="M1786.75 19.9387C1785.4 19.1913 1783.79 18.8516 1782.03 18.8516C1779.28 18.8516 1777.14 19.8707 1775.53 21.943L1775.13 19.0554H1772.49V44.1269H1775.53V34.3089C1776.17 35.2262 1777.03 35.9396 1778.1 36.4492C1779.17 36.9928 1780.53 37.2645 1782.03 37.2645C1783.79 37.2645 1785.36 36.8908 1786.72 36.1094C1788.08 35.3281 1789.19 34.241 1789.97 32.8482C1790.76 31.4553 1791.12 29.8585 1791.12 28.058C1791.12 26.1556 1790.76 24.491 1789.97 23.0981C1789.19 21.7392 1788.11 20.6521 1786.75 19.9387ZM1786.33 32.8141C1785.18 34.0372 1783.64 34.6826 1781.75 34.6826C1780.53 34.6826 1779.46 34.4108 1778.53 33.8333C1777.57 33.2557 1776.81 32.4405 1776.31 31.4213C1775.78 30.4021 1775.53 29.2811 1775.53 27.9561C1775.53 26.6992 1775.78 25.5441 1776.31 24.5249C1776.85 23.5398 1777.57 22.7584 1778.53 22.1809C1779.46 21.6373 1780.53 21.3655 1781.75 21.3655C1783.64 21.3655 1785.18 21.977 1786.33 23.2C1787.47 24.423 1788.04 26.0536 1788.04 27.9901C1788.04 29.9945 1787.47 31.5912 1786.33 32.8141Z" fill="#C9CBCF"/>
<path d="M1760.09 22.5538V37.0599H1763.13V21.7045H1769.71V19.0547H1763.78C1761.74 19.0547 1760.09 20.5834 1760.09 22.5538Z" fill="#C9CBCF"/>
<path d="M1797.7 12.3281H1794.66V37.0598H1797.7V12.3281Z" fill="#C9CBCF"/>
<path d="M1809.78 18.8125C1807.53 18.8125 1805.67 19.3221 1804.24 20.3073C1802.77 21.2925 1801.99 22.6853 1801.74 24.4518H1804.78C1804.95 23.5346 1805.53 22.7872 1806.38 22.2437C1807.21 21.7001 1808.32 21.4283 1809.6 21.4283C1811.1 21.4283 1812.25 21.7341 1813.11 22.4135C1813.93 23.093 1814.32 24.0102 1814.32 25.1653V26.3883H1808.74C1806.24 26.3883 1804.38 26.8979 1803.1 27.8491C1801.77 28.8002 1801.13 30.2271 1801.13 32.0277C1801.13 33.6583 1801.77 34.9153 1803.06 35.8665C1804.31 36.8177 1805.99 37.2934 1808.1 37.2934C1810.85 37.2934 1812.96 36.2742 1814.47 34.2698L1814.72 37.0895H1817.36V25.3691C1817.36 23.2968 1816.68 21.6662 1815.4 20.5451C1814.07 19.39 1812.18 18.8125 1809.78 18.8125ZM1814.36 29.7175C1814.36 31.2464 1813.82 32.4693 1812.75 33.3866C1811.68 34.3378 1810.21 34.8134 1808.35 34.8134C1807.1 34.8134 1806.1 34.5416 1805.35 33.998C1804.6 33.4544 1804.24 32.7411 1804.24 31.8578C1804.24 29.8535 1805.67 28.8682 1808.49 28.8682H1814.36V29.7175Z" fill="#C9CBCF"/>
<path d="M1830.56 18.8125C1827.84 18.8125 1825.77 19.6958 1824.3 21.4623L1823.91 19.0163H1821.26V37.0216H1824.3V28.0189C1824.3 26.0146 1824.84 24.3839 1825.84 23.2289C1826.84 22.0738 1828.27 21.4623 1830.02 21.4623C1831.7 21.4623 1832.95 21.9719 1833.85 22.9231C1834.71 23.9083 1835.13 25.3352 1835.13 27.2036V37.0555H1838.17V27.0338C1838.17 24.214 1837.46 22.1078 1836.1 20.8169C1834.74 19.492 1832.88 18.8125 1830.56 18.8125Z" fill="#C9CBCF"/>
<path d="M1859.38 28.6017C1859.42 28.0241 1859.45 27.6164 1859.45 27.3786C1859.42 25.6459 1859.02 24.1173 1858.24 22.8263C1857.45 21.5354 1856.41 20.5162 1855.09 19.8707C1853.77 19.1913 1852.23 18.8516 1850.48 18.8516C1848.73 18.8516 1847.15 19.2253 1845.79 19.9727C1844.44 20.754 1843.36 21.8411 1842.65 23.234C1841.86 24.6269 1841.5 26.2235 1841.5 28.058C1841.5 29.8585 1841.9 31.4893 1842.68 32.8482C1843.47 34.2749 1844.54 35.362 1845.94 36.1094C1847.37 36.8908 1848.98 37.2645 1850.87 37.2645C1853.02 37.2645 1854.84 36.6529 1856.34 35.4979C1857.84 34.3429 1858.77 32.8482 1859.13 31.0136H1856.06C1855.73 32.1687 1855.09 33.052 1854.16 33.6975C1853.2 34.3769 1852.05 34.6826 1850.66 34.6826C1848.91 34.6826 1847.47 34.1391 1846.37 33.0859C1845.29 32.0328 1844.69 30.6059 1844.65 28.8394V28.6017H1859.38ZM1846.69 22.7244C1847.76 21.8411 1849.01 21.3655 1850.48 21.3655C1852.09 21.3655 1853.41 21.7732 1854.48 22.6225C1855.52 23.4718 1856.13 24.6608 1856.27 26.1896H1844.83C1844.97 24.7627 1845.62 23.6077 1846.69 22.7244Z" fill="#C9CBCF"/>
<path fill-rule="evenodd" clip-rule="evenodd" d="M1674.51 1L1689.94 1.0046C1691.11 1.0046 1692.17 1.6516 1692.67 2.6635C1695.85 9.19101 1707.59 33.2198 1712.32 42.9094C1712.76 43.7995 1712.69 44.8405 1712.13 45.6692C1711.58 46.4979 1710.62 47 1709.6 47H1702.89C1700.65 47 1698.52 46.1069 1697 44.5377C1695.72 43.2115 1694.19 41.6331 1693.16 40.5653C1692.4 39.7802 1691.33 39.3341 1690.21 39.3341C1687.41 39.3341 1676.86 39.3302 1673.99 39.3302C1672.87 39.3302 1671.81 39.7764 1671.05 40.5614C1670.01 41.6292 1668.49 43.2069 1667.2 44.5331C1665.68 46.1031 1663.55 46.9954 1661.31 46.9954H1654.85C1653.82 46.9954 1652.87 46.4933 1652.31 45.6646C1651.76 44.8359 1651.69 43.7957 1652.13 42.9048C1656.86 33.2152 1668.6 9.18641 1671.78 2.6589C1672.28 1.647 1673.34 1 1674.51 1ZM1684.05 5.79195C1687.93 13.9362 1696.82 32.664 1699.19 38.1359C1699.28 38.3329 1699.25 38.5568 1699.13 38.7323C1699 38.9086 1698.79 39.0144 1698.57 39.0144H1695.55C1694.31 39.0144 1693.15 38.4732 1692.39 37.5472C1691.15 36.0347 1689.22 33.6896 1687.98 32.1764C1687.22 31.2504 1686.05 30.71 1684.82 30.71C1684.21 30.71 1683.22 30.7088 1682.22 30.7077C1681.23 30.7065 1680.24 30.7053 1679.63 30.7053C1678.39 30.7053 1677.23 31.2466 1676.47 32.1726L1672.06 37.5426C1671.3 38.4694 1670.14 39.0098 1668.9 39.0098H1665.88C1665.65 39.0098 1665.45 38.9048 1665.32 38.7285C1665.2 38.5522 1665.17 38.3283 1665.26 38.1313C1667.63 32.6594 1676.52 13.9354 1680.4 5.79195C1680.72 5.10663 1681.43 4.66659 1682.22 4.66659C1683.01 4.66659 1683.72 5.10663 1684.05 5.79195Z" fill="#C9CBCF"/>
</g>
<path fill-rule="evenodd" clip-rule="evenodd" d="M1943.05 5.92347C1940.56 6.65235 1938.23 7.85742 1936.23 9.46753C1935.39 8.08223 1934.05 7.04336 1932.47 6.54792C1934.96 4.37831 1937.9 2.73271 1941.09 1.71502C1944.28 0.697389 1947.65 0.329843 1950.99 0.635731C1954.34 0.94156 1957.58 1.91408 1960.51 3.49186C1961.26 3.89109 1961.97 4.32686 1962.67 4.79696C1962.69 4.78704 1962.71 4.7773 1962.74 4.76774C1963.64 4.40823 1964.63 4.31419 1965.58 4.49752C1966.53 4.68091 1967.41 5.13341 1968.1 5.79781C1968.79 6.46221 1969.25 7.30871 1969.44 8.23025C1969.63 9.15178 1969.54 10.107 1969.16 10.975C1968.79 11.843 1968.16 12.5848 1967.35 13.1067C1966.54 13.6287 1965.59 13.9072 1964.62 13.9071C1963.97 13.9071 1963.33 13.7842 1962.74 13.5454C1962.14 13.3067 1961.6 12.9568 1961.14 12.5157C1960.69 12.0745 1960.32 11.5508 1960.08 10.9745C1959.83 10.3982 1959.7 9.78046 1959.7 9.15665C1959.7 8.91301 1959.72 8.67078 1959.76 8.432C1959.24 8.09039 1958.71 7.77224 1958.16 7.4789C1955.88 6.25782 1953.37 5.49098 1950.77 5.22388C1948.18 4.95671 1945.55 5.1946 1943.05 5.92347ZM1935.3 12.767C1935.3 13.6614 1935.04 14.5366 1934.55 15.2925L1935.56 16.977C1934.58 18.1005 1933.24 18.8727 1931.75 19.1686L1930.75 17.5034C1930.31 17.5354 1929.87 17.5098 1929.43 17.4255C1928.47 17.2423 1927.6 16.79 1926.91 16.1258C1926.22 15.4616 1925.75 14.6153 1925.56 13.694C1925.37 12.7727 1925.47 11.8177 1925.84 10.9497C1926.21 10.0818 1926.85 9.33999 1927.65 8.81797C1928.46 8.29601 1929.41 8.01735 1930.39 8.01717C1931.03 8.01711 1931.67 8.1399 1932.27 8.37856C1932.86 8.61721 1933.41 8.9671 1933.86 9.40816C1934.32 9.84921 1934.68 10.3729 1934.93 10.9492C1935.18 11.5255 1935.3 12.1432 1935.3 12.767ZM1931.75 19.1688L1940.23 33.3337L1942.79 37.6107L1945.34 33.3337L1948.53 28.0012L1951.71 33.3145L1954.27 37.5902L1956.82 33.3138L1961.11 26.137H1968.12C1968.2 25.427 1968.24 24.7131 1968.24 23.9985C1968.24 23.2839 1968.2 22.57 1968.11 21.86H1958.55L1958.11 22.6033L1954.27 29.0349L1951.09 23.7209L1948.53 19.4439L1945.98 23.7215L1942.79 29.054L1935.56 16.9772C1934.58 18.1006 1933.24 18.8728 1931.75 19.1688ZM1968.24 23.9981C1968.24 24.7127 1968.2 25.4266 1968.12 26.1366H1972.82V21.8596H1968.12C1968.2 22.5696 1968.24 23.2835 1968.24 23.9981ZM1972.82 21.86H1972.89C1972.96 22.5643 1972.99 23.2775 1972.99 23.9985C1972.99 36.9575 1962.12 47.4646 1948.7 47.4646C1935.28 47.4646 1924.4 36.9588 1924.4 23.9997C1924.4 21.7028 1924.75 19.418 1925.43 17.2189C1926.56 18.389 1928.09 19.1195 1929.73 19.2717C1929.37 20.7808 1929.15 22.5348 1929.15 23.9985C1929.15 34.4211 1937.9 42.8747 1948.7 42.8747C1958.75 42.8747 1967.02 35.5547 1968.12 26.137H1972.82V21.86Z" fill="#C9CBCF"/>
<path d="M1997.91 31.678L1994.04 15.5961H1997.19L1998.84 23.3145L1999.86 28.2451H1999.94L2001.13 23.3145L2003.04 15.5961H2006.52L2008.43 23.3145L2009.6 28.2451H2009.67L2010.72 23.3145L2012.41 15.5961H2015.42L2011.43 31.678H2007.88L2005.76 23.1763L2004.73 18.9369H2004.68L2003.61 23.1763L2001.49 31.678H1997.91Z" fill="#C9CBCF"/>
<path d="M2025.16 29.6736H2025.04C2024.93 29.9808 2024.78 30.2726 2024.58 30.5491C2024.41 30.8102 2024.18 31.0483 2023.89 31.2633C2023.62 31.4784 2023.29 31.6473 2022.89 31.7702C2022.51 31.8931 2022.06 31.9545 2021.56 31.9545C2020.27 31.9545 2019.28 31.5475 2018.6 30.7334C2017.91 29.9193 2017.57 28.7596 2017.57 27.2544V19.6512H2020.62V26.9548C2020.62 27.7843 2020.79 28.4217 2021.13 28.8672C2021.46 29.2972 2021.99 29.5123 2022.72 29.5123C2023.03 29.5123 2023.32 29.4739 2023.61 29.3971C2023.91 29.3203 2024.17 29.2051 2024.39 29.0515C2024.62 28.8825 2024.8 28.6828 2024.94 28.4524C2025.09 28.2067 2025.16 27.9225 2025.16 27.6V19.6512H2028.21V31.678H2025.16V29.6736Z" fill="#C9CBCF"/>
<path d="M2031.74 31.678V19.6512H2034.79V21.6556H2034.91C2035.16 21.0105 2035.56 20.4729 2036.1 20.0428C2036.66 19.5974 2037.42 19.3747 2038.39 19.3747C2039.68 19.3747 2040.67 19.7817 2041.35 20.5958C2042.03 21.4099 2042.38 22.5696 2042.38 24.0748V31.678H2039.32V24.3744C2039.32 23.5142 2039.16 22.8691 2038.85 22.439C2038.53 22.0089 2038 21.7939 2037.27 21.7939C2036.95 21.7939 2036.64 21.84 2036.34 21.9321C2036.06 22.0089 2035.79 22.1318 2035.55 22.3008C2035.33 22.4544 2035.15 22.654 2035.01 22.8998C2034.86 23.1302 2034.79 23.4067 2034.79 23.7292V31.678H2031.74Z" fill="#C9CBCF"/>
<path d="M2053.49 29.6736H2053.37C2053.15 30.3648 2052.73 30.9177 2052.11 31.3324C2051.49 31.7472 2050.76 31.9545 2049.94 31.9545C2048.36 31.9545 2047.15 31.4092 2046.31 30.3187C2045.48 29.2281 2045.07 27.6691 2045.07 25.6416C2045.07 23.6294 2045.48 22.0857 2046.31 21.0105C2047.15 19.92 2048.36 19.3747 2049.94 19.3747C2050.76 19.3747 2051.49 19.582 2052.11 19.9968C2052.73 20.3961 2053.15 20.9414 2053.37 21.6326H2053.49V14.6284H2056.54V31.678H2053.49V29.6736ZM2050.91 29.5123C2051.64 29.5123 2052.26 29.3433 2052.75 29.0054C2053.24 28.6675 2053.49 28.1836 2053.49 27.5539V23.7292C2053.49 23.1456 2053.24 22.6771 2052.75 22.3238C2052.26 21.9705 2051.64 21.7939 2050.91 21.7939C2050.12 21.7939 2049.47 22.055 2048.98 22.5772C2048.5 23.0841 2048.27 23.7676 2048.27 24.6278V26.7014C2048.27 27.5616 2048.5 28.2451 2048.98 28.752C2049.47 29.2588 2050.12 29.5123 2050.91 29.5123Z" fill="#C9CBCF"/>
<path d="M2065.1 31.9545C2064.17 31.9545 2063.35 31.8086 2062.62 31.5168C2061.9 31.2096 2061.29 30.7872 2060.78 30.2496C2060.29 29.6966 2059.9 29.0361 2059.63 28.2681C2059.36 27.4848 2059.23 26.6092 2059.23 25.6416C2059.23 24.6892 2059.36 23.8291 2059.61 23.0611C2059.88 22.2931 2060.26 21.6403 2060.76 21.1027C2061.25 20.5497 2061.85 20.1273 2062.57 19.8355C2063.28 19.5283 2064.09 19.3747 2065 19.3747C2065.97 19.3747 2066.81 19.536 2067.53 19.8585C2068.25 20.1811 2068.83 20.6188 2069.29 21.1718C2069.76 21.7248 2070.1 22.3699 2070.32 23.1072C2070.56 23.8291 2070.68 24.6048 2070.68 25.4342V26.4019H2062.4V26.7014C2062.4 27.5769 2062.66 28.2835 2063.16 28.8211C2063.67 29.3433 2064.43 29.6044 2065.43 29.6044C2066.19 29.6044 2066.81 29.4508 2067.29 29.1436C2067.78 28.8364 2068.22 28.4448 2068.6 27.9686L2070.25 29.7427C2069.74 30.4339 2069.04 30.9792 2068.15 31.3785C2067.28 31.7625 2066.26 31.9545 2065.1 31.9545ZM2065.05 21.5865C2064.24 21.5865 2063.59 21.8476 2063.12 22.3699C2062.64 22.8921 2062.4 23.568 2062.4 24.3974V24.5817H2067.51V24.3744C2067.51 23.5449 2067.29 22.8768 2066.86 22.3699C2066.45 21.8476 2065.84 21.5865 2065.05 21.5865Z" fill="#C9CBCF"/>
<path d="M2073.36 31.678V19.6512H2076.42V22.1395H2076.54C2076.62 21.8169 2076.74 21.5097 2076.89 21.2179C2077.07 20.9107 2077.29 20.6419 2077.56 20.4115C2077.83 20.1811 2078.15 19.9968 2078.52 19.8585C2078.9 19.7203 2079.34 19.6512 2079.83 19.6512H2080.5V22.439H2079.54C2078.51 22.439 2077.73 22.5849 2077.21 22.8768C2076.68 23.1686 2076.42 23.6448 2076.42 24.3052V31.678H2073.36Z" fill="#C9CBCF"/>
<path d="M2093.77 29.1897H2093.67C2093.53 29.9731 2093.08 30.6336 2092.31 31.1712C2091.56 31.6934 2090.56 31.9545 2089.31 31.9545C2088.32 31.9545 2087.41 31.7779 2086.56 31.4246C2085.74 31.0713 2085.01 30.5491 2084.39 29.8579C2083.79 29.1513 2083.31 28.2835 2082.96 27.2544C2082.61 26.2252 2082.44 25.0348 2082.44 23.6832C2082.44 22.3315 2082.61 21.1411 2082.96 20.112C2083.33 19.0675 2083.84 18.192 2084.49 17.4854C2085.14 16.7788 2085.92 16.2412 2086.83 15.8726C2087.73 15.504 2088.74 15.3196 2089.86 15.3196C2091.35 15.3196 2092.62 15.6345 2093.67 16.2643C2094.72 16.894 2095.55 17.8003 2096.15 18.983L2093.6 20.4345C2093.3 19.7433 2092.85 19.1673 2092.24 18.7065C2091.65 18.2457 2090.86 18.0153 2089.86 18.0153C2088.62 18.0153 2087.62 18.384 2086.87 19.1212C2086.14 19.8432 2085.78 20.9184 2085.78 22.3468V24.9273C2085.78 26.3404 2086.15 27.4156 2086.9 28.1529C2087.65 28.8902 2088.65 29.2588 2089.9 29.2588C2090.4 29.2588 2090.86 29.2051 2091.29 29.0976C2091.72 28.9747 2092.09 28.798 2092.41 28.5676C2092.73 28.3372 2092.98 28.0531 2093.17 27.7152C2093.36 27.3772 2093.46 26.9779 2093.46 26.5171V25.4803H2090.19V22.9228H2096.49V31.678H2093.77V29.1897Z" fill="#C9CBCF"/>
<path d="M2099.94 31.678V19.6512H2103V22.1395H2103.12C2103.2 21.8169 2103.31 21.5097 2103.47 21.2179C2103.65 20.9107 2103.87 20.6419 2104.14 20.4115C2104.41 20.1811 2104.73 19.9968 2105.1 19.8585C2105.48 19.7203 2105.91 19.6512 2106.41 19.6512H2107.08V22.439H2106.12C2105.09 22.439 2104.31 22.5849 2103.78 22.8768C2103.26 23.1686 2103 23.6448 2103 24.3052V31.678H2099.94Z" fill="#C9CBCF"/>
<path d="M2118.21 31.678C2117.54 31.678 2117.01 31.4937 2116.61 31.1251C2116.23 30.7411 2115.99 30.2342 2115.9 29.6044H2115.75C2115.55 30.3878 2115.13 30.9792 2114.49 31.3785C2113.85 31.7625 2113.07 31.9545 2112.13 31.9545C2110.86 31.9545 2109.88 31.632 2109.19 30.9868C2108.51 30.3417 2108.17 29.4816 2108.17 28.4064C2108.17 27.1622 2108.63 26.2406 2109.55 25.6416C2110.47 25.0272 2111.79 24.72 2113.49 24.72H2115.61V23.8444C2115.61 23.1686 2115.43 22.6464 2115.06 22.2777C2114.7 21.9091 2114.11 21.7248 2113.3 21.7248C2112.58 21.7248 2112 21.8784 2111.56 22.1856C2111.13 22.4774 2110.76 22.8307 2110.46 23.2454L2108.65 21.6787C2109.11 20.9875 2109.72 20.4345 2110.48 20.0198C2111.25 19.5897 2112.26 19.3747 2113.51 19.3747C2115.2 19.3747 2116.48 19.7433 2117.35 20.4806C2118.23 21.2179 2118.66 22.2777 2118.66 23.6601V29.328H2119.9V31.678H2118.21ZM2113.15 29.8118C2113.84 29.8118 2114.42 29.6659 2114.9 29.374C2115.37 29.0822 2115.61 28.6521 2115.61 28.0838V26.494H2113.66C2112.06 26.494 2111.27 26.9856 2111.27 27.9686V28.3603C2111.27 28.8518 2111.43 29.2204 2111.75 29.4662C2112.08 29.6966 2112.55 29.8118 2113.15 29.8118Z" fill="#C9CBCF"/>
<path d="M2122.38 19.6512H2125.43V21.6326H2125.52C2125.75 20.9414 2126.17 20.3961 2126.79 19.9968C2127.41 19.582 2128.13 19.3747 2128.96 19.3747C2130.55 19.3747 2131.76 19.92 2132.58 21.0105C2133.43 22.0857 2133.85 23.6294 2133.85 25.6416C2133.85 27.6691 2133.43 29.2281 2132.58 30.3187C2131.76 31.4092 2130.55 31.9545 2128.96 31.9545C2128.13 31.9545 2127.41 31.7472 2126.79 31.3324C2126.18 30.9177 2125.76 30.3648 2125.52 29.6736H2125.43V36.286H2122.38V19.6512ZM2127.98 29.5123C2128.78 29.5123 2129.42 29.2588 2129.91 28.752C2130.41 28.2451 2130.65 27.5616 2130.65 26.7014V24.6278C2130.65 23.7676 2130.41 23.0841 2129.91 22.5772C2129.42 22.055 2128.78 21.7939 2127.98 21.7939C2127.25 21.7939 2126.64 21.9705 2126.14 22.3238C2125.67 22.6771 2125.43 23.1456 2125.43 23.7292V27.5539C2125.43 28.1836 2125.67 28.6675 2126.14 29.0054C2126.64 29.3433 2127.25 29.5123 2127.98 29.5123Z" fill="#C9CBCF"/>
<path d="M2136.68 14.6284H2139.73V21.6556H2139.85C2140.11 21.0105 2140.5 20.4729 2141.04 20.0428C2141.6 19.5974 2142.36 19.3747 2143.33 19.3747C2144.62 19.3747 2145.61 19.7817 2146.29 20.5958C2146.98 21.4099 2147.32 22.5696 2147.32 24.0748V31.678H2144.26V24.3744C2144.26 23.5142 2144.1 22.8691 2143.79 22.439C2143.47 22.0089 2142.94 21.7939 2142.21 21.7939C2141.89 21.7939 2141.58 21.84 2141.28 21.9321C2141 22.0089 2140.73 22.1318 2140.49 22.3008C2140.27 22.4544 2140.09 22.654 2139.95 22.8998C2139.8 23.1302 2139.73 23.4067 2139.73 23.7292V31.678H2136.68V14.6284Z" fill="#C9CBCF"/>
<g clip-path="url(#clip4_18081_13910)">
<path d="M2248.33 32.2147C2248.33 34.4732 2246.44 36.3042 2244.1 36.3042C2241.77 36.3042 2239.88 34.4732 2239.88 32.2147C2239.88 29.956 2241.77 28.125 2244.1 28.125C2246.44 28.125 2248.33 29.956 2248.33 32.2147Z" fill="#C9CBCF"/>
<path d="M2248.33 14.7849C2248.33 17.0435 2246.44 18.8746 2244.1 18.8746C2241.77 18.8746 2239.88 17.0435 2239.88 14.7849C2239.88 12.5263 2241.77 10.6953 2244.1 10.6953C2246.44 10.6953 2248.33 12.5263 2248.33 14.7849Z" fill="#C9CBCF"/>
<path d="M2257.3 23.5036C2257.3 25.7623 2255.41 27.5933 2253.07 27.5933C2250.74 27.5933 2248.84 25.7623 2248.84 23.5036C2248.84 21.2451 2250.74 19.4141 2253.07 19.4141C2255.41 19.4141 2257.3 21.2451 2257.3 23.5036ZM2249.73 23.5036C2249.73 25.2901 2251.22 26.7385 2253.07 26.7385C2254.92 26.7385 2256.41 25.2901 2256.41 23.5036C2256.41 21.7172 2254.92 20.2689 2253.07 20.2689C2251.22 20.2689 2249.73 21.7172 2249.73 23.5036Z" fill="#C9CBCF"/>
<path d="M2239.31 40.9099C2239.31 43.1685 2237.42 44.9995 2235.08 44.9995C2232.75 44.9995 2230.86 43.1685 2230.86 40.9099C2230.86 38.6513 2232.75 36.8203 2235.08 36.8203C2237.42 36.8203 2239.31 38.6513 2239.31 40.9099ZM2232.67 40.9099C2232.67 42.2 2233.75 43.2459 2235.08 43.2459C2236.42 43.2459 2237.5 42.2 2237.5 40.9099C2237.5 39.6198 2236.42 38.574 2235.08 38.574C2233.75 38.574 2232.67 39.6198 2232.67 40.9099Z" fill="#C9CBCF"/>
<path d="M2230.32 14.7849C2230.32 17.0435 2228.43 18.8746 2226.09 18.8746C2223.76 18.8746 2221.86 17.0435 2221.86 14.7849C2221.86 12.5263 2223.76 10.6953 2226.09 10.6953C2228.43 10.6953 2230.32 12.5263 2230.32 14.7849ZM2223.68 14.7849C2223.68 16.0751 2224.76 17.1208 2226.09 17.1208C2227.42 17.1208 2228.5 16.0751 2228.5 14.7849C2228.5 13.4948 2227.42 12.449 2226.09 12.449C2224.76 12.449 2223.68 13.4948 2223.68 14.7849Z" fill="#C9CBCF"/>
<path d="M2230.32 32.2146C2230.32 34.4732 2228.43 36.3042 2226.09 36.3042C2223.76 36.3042 2221.86 34.4732 2221.86 32.2146C2221.86 29.9559 2223.76 28.125 2226.09 28.125C2228.43 28.125 2230.32 29.9559 2230.32 32.2146ZM2223.68 32.2146C2223.68 33.5047 2224.76 34.5506 2226.09 34.5506C2227.42 34.5506 2228.51 33.5047 2228.51 32.2146C2228.51 30.9244 2227.42 29.8785 2226.09 29.8785C2224.76 29.8785 2223.68 30.9244 2223.68 32.2146Z" fill="#C9CBCF"/>
<path d="M2239.31 6.08961C2239.31 8.34824 2237.42 10.1792 2235.08 10.1792C2232.75 10.1792 2230.86 8.34824 2230.86 6.08961C2230.86 3.83098 2232.75 2 2235.08 2C2237.42 2 2239.31 3.83098 2239.31 6.08961ZM2232.67 6.08961C2232.67 7.37974 2233.75 8.42559 2235.08 8.42559C2236.42 8.42559 2237.5 7.37974 2237.5 6.08961C2237.5 4.79948 2236.42 3.75362 2235.08 3.75362C2233.75 3.75362 2232.67 4.79948 2232.67 6.08961Z" fill="#C9CBCF"/>
<path d="M2221.31 23.4958C2221.31 25.7545 2219.42 27.5855 2217.08 27.5855C2214.75 27.5855 2212.86 25.7545 2212.86 23.4958C2212.86 21.2373 2214.75 19.4062 2217.08 19.4062C2219.42 19.4062 2221.31 21.2373 2221.31 23.4958ZM2214.67 23.4958C2214.67 24.786 2215.75 25.8318 2217.08 25.8318C2218.42 25.8318 2219.5 24.786 2219.5 23.4958C2219.5 22.2057 2218.42 21.1599 2217.08 21.1599C2215.75 21.1599 2214.67 22.2057 2214.67 23.4958Z" fill="#C9CBCF"/>
<path d="M2239.31 23.4958C2239.31 25.7545 2237.42 27.5855 2235.08 27.5855C2232.75 27.5855 2230.86 25.7545 2230.86 23.4958C2230.86 21.2373 2232.75 19.4062 2235.08 19.4062C2237.42 19.4062 2239.31 21.2373 2239.31 23.4958ZM2232.67 23.4958C2232.67 24.786 2233.75 25.8318 2235.08 25.8318C2236.42 25.8318 2237.5 24.786 2237.5 23.4958C2237.5 22.2057 2236.42 21.1599 2235.08 21.1599C2233.75 21.1599 2232.67 22.2057 2232.67 23.4958Z" fill="#C9CBCF"/>
<path fill-rule="evenodd" clip-rule="evenodd" d="M2224.71 17.5553L2219.94 22.1707L2218.45 20.7247L2223.22 16.1094L2224.71 17.5553Z" fill="#C9CBCF"/>
<path fill-rule="evenodd" clip-rule="evenodd" d="M2233.77 8.77401L2229.06 13.3274L2227.57 11.8815L2232.28 7.32812L2233.77 8.77401Z" fill="#C9CBCF"/>
<path fill-rule="evenodd" clip-rule="evenodd" d="M2233.6 26.3834L2228.89 30.9404L2227.39 29.4946L2232.1 24.9375L2233.6 26.3834Z" fill="#C9CBCF"/>
<path fill-rule="evenodd" clip-rule="evenodd" d="M2232.17 39.5539L2227.52 35.0553L2229.02 33.6094L2233.67 38.108L2232.17 39.5539Z" fill="#C9CBCF"/>
<path fill-rule="evenodd" clip-rule="evenodd" d="M2222.86 30.5504L2218.39 26.2271L2219.88 24.7812L2224.35 29.1045L2222.86 30.5504Z" fill="#C9CBCF"/>
<path d="M2280.61 3.65625V4.2568H2273.53V27.1445H2272.84V4.2568H2265.76V3.65625H2280.61Z" fill="#C9CBCF"/>
<path d="M2292.25 8.72555C2294.44 8.72555 2296.23 9.3817 2297.64 10.694C2299.04 12.0063 2299.74 13.9859 2299.74 16.6328V27.1424H2299.09V16.566C2299.09 14.2084 2298.48 12.4178 2297.26 11.1945C2296.04 9.9489 2294.37 9.3261 2292.25 9.3261C2290.04 9.3261 2288.26 10.0267 2286.93 11.428C2285.59 12.8071 2284.93 14.8533 2284.93 17.567V27.1424H2284.23V2.45312H2284.93V13.8636C2285.36 12.1954 2286.24 10.9276 2287.55 10.0601C2288.86 9.1704 2290.43 8.72555 2292.25 8.72555Z" fill="#C9CBCF"/>
<path d="M2313.57 26.7738C2315.67 26.7738 2317.43 26.2621 2318.86 25.239C2320.28 24.2158 2321.15 22.8145 2321.45 21.0351H2322.14C2321.81 22.9257 2320.89 24.4605 2319.37 25.6393C2317.88 26.796 2315.94 27.3742 2313.57 27.3742C2311.84 27.3742 2310.3 27.0072 2308.94 26.2733C2307.58 25.5392 2306.51 24.4716 2305.73 23.0703C2304.97 21.669 2304.59 20.0231 2304.59 18.1324C2304.59 16.2419 2304.97 14.5959 2305.73 13.1946C2306.51 11.7933 2307.58 10.7256 2308.94 9.99164C2310.3 9.25762 2311.84 8.89062 2313.57 8.89062C2315.39 8.89062 2316.94 9.26874 2318.23 10.025C2319.52 10.759 2320.49 11.7154 2321.14 12.8943C2321.8 14.0732 2322.14 15.3187 2322.14 16.631C2322.14 17.4318 2322.13 18.0323 2322.1 18.4327H2305.28C2305.3 20.2789 2305.7 21.8247 2306.46 23.0703C2307.24 24.3159 2308.25 25.2501 2309.49 25.8729C2310.74 26.4735 2312.1 26.7738 2313.57 26.7738ZM2313.57 9.49118C2312.1 9.49118 2310.74 9.80257 2309.49 10.4254C2308.25 11.0259 2307.24 11.949 2306.46 13.1946C2305.7 14.4402 2305.3 15.9861 2305.28 17.8321H2321.52C2321.63 15.9861 2321.32 14.4402 2320.58 13.1946C2319.87 11.949 2318.88 11.0259 2317.61 10.4254C2316.37 9.80257 2315.02 9.49118 2313.57 9.49118Z" fill="#C9CBCF"/>
<path d="M2430.7 27.243C2430.31 27.243 2429.99 27.1206 2429.73 26.8761C2429.48 26.6314 2429.35 26.32 2429.35 25.9418C2429.35 25.5636 2429.48 25.2523 2429.73 25.0077C2429.99 24.763 2430.31 24.6406 2430.7 24.6406C2431.07 24.6406 2431.38 24.763 2431.63 25.0077C2431.88 25.2523 2432.01 25.5636 2432.01 25.9418C2432.01 26.32 2431.88 26.6314 2431.63 26.8761C2431.38 27.1206 2431.07 27.243 2430.7 27.243Z" fill="#C9CBCF"/>
<path d="M2437.64 3.72656V27.148H2436.08V3.72656H2437.64Z" fill="#C9CBCF"/>
<path d="M2454.16 27.412C2451.93 27.412 2449.91 26.9115 2448.12 25.9106C2446.32 24.8875 2444.92 23.464 2443.9 21.6401C2442.89 19.8162 2442.38 17.7588 2442.38 15.4677C2442.38 13.1545 2442.89 11.0971 2443.9 9.2954C2444.92 7.47151 2446.32 6.0591 2448.12 5.05818C2449.91 4.03502 2451.93 3.52344 2454.16 3.52344C2456.4 3.52344 2458.41 4.03502 2460.21 5.05818C2462 6.0591 2463.41 7.47151 2464.42 9.2954C2465.43 11.0971 2465.94 13.1545 2465.94 15.4677C2465.94 17.7588 2465.43 19.8162 2464.42 21.6401C2463.41 23.464 2462 24.8875 2460.21 25.9106C2458.41 26.9115 2456.4 27.412 2454.16 27.412ZM2454.16 26.0775C2456.07 26.0775 2457.8 25.6437 2459.34 24.7763C2460.88 23.9088 2462.09 22.6743 2462.97 21.0728C2463.87 19.4714 2464.32 17.6031 2464.32 15.4677C2464.32 13.3102 2463.87 11.4307 2462.97 9.82922C2462.09 8.22776 2460.88 6.99329 2459.34 6.12583C2457.8 5.25837 2456.07 4.82464 2454.16 4.82464C2452.25 4.82464 2450.52 5.25837 2448.98 6.12583C2447.44 6.99329 2446.22 8.22776 2445.32 9.82922C2444.42 11.4307 2443.97 13.3102 2443.97 15.4677C2443.97 17.6031 2444.42 19.4714 2445.32 21.0728C2446.22 22.6743 2447.44 23.9088 2448.98 24.7763C2450.52 25.6437 2452.25 26.0775 2454.16 26.0775Z" fill="#C9CBCF"/>
<path d="M2269.35 40.5032C2269.35 39.7121 2269.53 39.0056 2269.89 38.3836C2270.25 37.7538 2270.73 37.2661 2271.36 36.9206C2271.98 36.5672 2272.67 36.3906 2273.43 36.3906C2274.36 36.3906 2275.16 36.6056 2275.82 37.0357C2276.48 37.4581 2276.97 38.0571 2277.27 38.8329H2276.29C2276.05 38.2875 2275.69 37.8613 2275.2 37.5542C2274.71 37.2469 2274.12 37.0933 2273.43 37.0933C2272.82 37.0933 2272.27 37.2315 2271.77 37.5081C2271.29 37.7846 2270.91 38.1839 2270.63 38.7061C2270.35 39.2207 2270.21 39.8197 2270.21 40.5032C2270.21 41.1867 2270.35 41.7858 2270.63 42.3003C2270.91 42.8149 2271.29 43.2104 2271.77 43.4868C2272.27 43.7633 2272.82 43.9015 2273.43 43.9015C2274.12 43.9015 2274.71 43.7518 2275.2 43.4523C2275.69 43.1451 2276.05 42.7227 2276.29 42.1851H2277.27C2276.97 42.9531 2276.48 43.5483 2275.82 43.9706C2275.15 44.393 2274.35 44.6042 2273.43 44.6042C2272.67 44.6042 2271.98 44.4315 2271.36 44.0859C2270.73 43.7326 2270.25 43.245 2269.89 42.6229C2269.53 42.0007 2269.35 41.2942 2269.35 40.5032Z" fill="#C9CBCF"/>
<path d="M2295.77 44.6158C2295 44.6158 2294.3 44.443 2293.68 44.0973C2293.05 43.7441 2292.55 43.2565 2292.19 42.6343C2291.83 42.0047 2291.65 41.2942 2291.65 40.5032C2291.65 39.7121 2291.83 39.0056 2292.19 38.3836C2292.55 37.7538 2293.05 37.2661 2293.68 36.9206C2294.3 36.5672 2295 36.3906 2295.77 36.3906C2296.55 36.3906 2297.26 36.5672 2297.89 36.9206C2298.51 37.2661 2299.01 37.7538 2299.36 38.3836C2299.72 39.0056 2299.9 39.7121 2299.9 40.5032C2299.9 41.2942 2299.72 42.0047 2299.36 42.6343C2299.01 43.2565 2298.51 43.7441 2297.89 44.0973C2297.26 44.443 2296.55 44.6158 2295.77 44.6158ZM2295.77 43.913C2296.4 43.913 2296.95 43.7748 2297.44 43.4983C2297.94 43.2219 2298.33 42.8264 2298.61 42.3118C2298.9 41.7895 2299.04 41.1867 2299.04 40.5032C2299.04 39.8197 2298.9 39.2207 2298.61 38.7061C2298.33 38.1916 2297.94 37.7961 2297.44 37.5196C2296.95 37.2431 2296.4 37.1049 2295.77 37.1049C2295.15 37.1049 2294.6 37.2431 2294.11 37.5196C2293.61 37.7961 2293.22 38.1916 2292.94 38.7061C2292.65 39.2207 2292.51 39.8197 2292.51 40.5032C2292.51 41.1867 2292.65 41.7895 2292.94 42.3118C2293.22 42.8264 2293.61 43.2219 2294.11 43.4983C2294.6 43.7748 2295.15 43.913 2295.77 43.913Z" fill="#C9CBCF"/>
<path d="M2320.81 44.5289H2319.97L2315.36 37.7553V44.5289H2314.52V36.4766H2315.36L2319.97 43.2388V36.4766H2320.81V44.5289Z" fill="#C9CBCF"/>
<path d="M2338.31 44.6158C2337.77 44.6158 2337.28 44.5237 2336.86 44.3393C2336.45 44.155 2336.12 43.8978 2335.88 43.5675C2335.64 43.2373 2335.52 42.8686 2335.5 42.4615H2336.38C2336.42 42.8532 2336.6 43.1989 2336.92 43.4983C2337.24 43.7902 2337.7 43.9361 2338.31 43.9361C2338.88 43.9361 2339.32 43.7979 2339.65 43.5214C2339.98 43.2373 2340.15 42.8801 2340.15 42.45C2340.15 42.1045 2340.06 41.8279 2339.88 41.6206C2339.69 41.4055 2339.47 41.2481 2339.2 41.1484C2338.93 41.0408 2338.55 40.9256 2338.08 40.8027C2337.52 40.6568 2337.08 40.5148 2336.75 40.3765C2336.43 40.2383 2336.15 40.0232 2335.92 39.7313C2335.69 39.4396 2335.57 39.0441 2335.57 38.5448C2335.57 38.1301 2335.68 37.7615 2335.91 37.4389C2336.13 37.1087 2336.44 36.8514 2336.85 36.6671C2337.25 36.4828 2337.72 36.3906 2338.24 36.3906C2339.01 36.3906 2339.63 36.5749 2340.1 36.9436C2340.58 37.3045 2340.86 37.773 2340.93 38.349H2340.02C2339.96 38.0187 2339.78 37.7269 2339.46 37.4735C2339.14 37.2123 2338.71 37.0818 2338.17 37.0818C2337.67 37.0818 2337.25 37.2123 2336.92 37.4735C2336.59 37.7269 2336.42 38.0763 2336.42 38.5218C2336.42 38.8598 2336.51 39.1323 2336.69 39.3397C2336.88 39.547 2337.1 39.7044 2337.37 39.812C2337.65 39.9195 2338.02 40.0347 2338.49 40.1576C2339.03 40.3036 2339.47 40.4494 2339.81 40.5953C2340.14 40.7335 2340.42 40.9487 2340.65 41.2405C2340.88 41.5323 2341 41.924 2341 42.4154C2341 42.7918 2340.89 43.1489 2340.69 43.4868C2340.48 43.8248 2340.17 44.0973 2339.77 44.3048C2339.36 44.512 2338.88 44.6158 2338.31 44.6158Z" fill="#C9CBCF"/>
<path d="M2356.51 36.4766V41.5452C2356.51 42.344 2356.7 42.9354 2357.09 43.3193C2357.49 43.7033 2358.03 43.8953 2358.71 43.8953C2359.4 43.8953 2359.93 43.7072 2360.31 43.3309C2360.7 42.9469 2360.9 42.3517 2360.9 41.5452V36.4766H2361.73V41.5337C2361.73 42.5552 2361.45 43.3232 2360.88 43.8378C2360.33 44.3523 2359.6 44.6096 2358.7 44.6096C2357.8 44.6096 2357.07 44.3523 2356.51 43.8378C2355.95 43.3232 2355.67 42.5552 2355.67 41.5337V36.4766H2356.51Z" fill="#C9CBCF"/>
<path d="M2377.51 43.8722H2380.5V44.5289H2376.67V36.4766H2377.51V43.8722Z" fill="#C9CBCF"/>
<path d="M2399.66 36.4766V37.1448H2397.35V44.5289H2396.51V37.1448H2394.19V36.4766H2399.66Z" fill="#C9CBCF"/>
<path d="M2414.91 36.4766V44.5289H2414.07V36.4766H2414.91Z" fill="#C9CBCF"/>
<path d="M2436.18 44.5289H2435.35L2430.73 37.7553V44.5289H2429.9V36.4766H2430.73L2435.35 43.2388V36.4766H2436.18V44.5289Z" fill="#C9CBCF"/>
<path d="M2457.72 38.8329C2457.48 38.3029 2457.11 37.8882 2456.62 37.5886C2456.14 37.2815 2455.56 37.1279 2454.9 37.1279C2454.28 37.1279 2453.73 37.2661 2453.23 37.5426C2452.74 37.819 2452.35 38.2145 2452.07 38.7291C2451.78 39.2361 2451.64 39.8274 2451.64 40.5032C2451.64 41.179 2451.78 41.7743 2452.07 42.2888C2452.35 42.8034 2452.74 43.1989 2453.23 43.4754C2453.73 43.7518 2454.28 43.8901 2454.9 43.8901C2455.48 43.8901 2456.01 43.771 2456.47 43.5329C2456.94 43.2871 2457.31 42.9416 2457.59 42.4961C2457.87 42.043 2458.04 41.517 2458.08 40.9179H2454.57V40.2613H2458.96V40.8488C2458.92 41.5554 2458.72 42.1967 2458.36 42.7726C2458.01 43.3409 2457.52 43.7902 2456.92 44.1204C2456.32 44.4507 2455.65 44.6158 2454.9 44.6158C2454.13 44.6158 2453.43 44.443 2452.8 44.0973C2452.18 43.7441 2451.68 43.2565 2451.31 42.6343C2450.96 42.0047 2450.78 41.2942 2450.78 40.5032C2450.78 39.7121 2450.96 39.0056 2451.31 38.3836C2451.68 37.7538 2452.18 37.2661 2452.8 36.9206C2453.43 36.5672 2454.13 36.3906 2454.9 36.3906C2455.79 36.3906 2456.57 36.6056 2457.24 37.0357C2457.91 37.4658 2458.39 38.0648 2458.7 38.8329H2457.72Z" fill="#C9CBCF"/>
<path d="M2339.55 3.71875V4.98659H2328.6V14.7622H2338.17V16.0301H2328.6V27.1402H2327.05V3.71875H2339.55Z" fill="#C9CBCF"/>
<path d="M2342.7 18.0642C2342.7 16.1958 2343.07 14.5611 2343.84 13.1598C2344.62 11.7585 2345.69 10.6797 2347.05 9.92344C2348.43 9.16719 2350 8.78906 2351.75 8.78906C2353.73 8.78906 2355.41 9.25616 2356.79 10.1904C2358.17 11.1245 2359.14 12.3145 2359.69 13.7603V9.02262H2361.24V27.1392H2359.69V22.3682C2359.14 23.8362 2358.16 25.0485 2356.75 26.0049C2355.37 26.939 2353.7 27.4062 2351.75 27.4062C2350 27.4062 2348.43 27.028 2347.05 26.2718C2345.69 25.4933 2344.62 24.4034 2343.84 23.0021C2343.07 21.5786 2342.7 19.9326 2342.7 18.0642ZM2359.69 18.0642C2359.69 16.485 2359.34 15.0948 2358.65 13.8938C2357.99 12.6704 2357.06 11.7362 2355.89 11.0912C2354.72 10.4239 2353.4 10.0903 2351.95 10.0903C2350.43 10.0903 2349.1 10.4128 2347.95 11.0578C2346.79 11.6806 2345.9 12.5926 2345.25 13.7937C2344.61 14.9947 2344.28 16.4183 2344.28 18.0642C2344.28 19.7102 2344.61 21.1337 2345.25 22.3348C2345.9 23.536 2346.79 24.459 2347.95 25.1041C2349.12 25.7491 2350.46 26.0716 2351.95 26.0716C2353.4 26.0716 2354.72 25.7491 2355.89 25.1041C2357.09 24.4368 2358.02 23.5026 2358.69 22.3014C2359.36 21.0781 2359.69 19.6657 2359.69 18.0642Z" fill="#C9CBCF"/>
<path d="M2368.46 13.7969C2369.04 12.3289 2370.02 11.1278 2371.4 10.1936C2372.78 9.25937 2374.45 8.79227 2376.41 8.79227C2378.16 8.79227 2379.71 9.1704 2381.07 9.92665C2382.45 10.6829 2383.52 11.7617 2384.28 13.163C2385.06 14.5643 2385.46 16.199 2385.46 18.0674C2385.46 19.9358 2385.06 21.5818 2384.28 23.0053C2383.52 24.4066 2382.45 25.4965 2381.07 26.275C2379.71 27.0312 2378.16 27.4094 2376.41 27.4094C2374.45 27.4094 2372.77 26.9422 2371.36 26.0081C2369.98 25.0739 2369.01 23.8727 2368.46 22.4047V27.1424H2366.91V2.45312H2368.46V13.7969ZM2383.87 18.0674C2383.87 16.4215 2383.54 14.9979 2382.9 13.7969C2382.26 12.5958 2381.35 11.6838 2380.17 11.061C2379.02 10.416 2377.68 10.0935 2376.16 10.0935C2374.71 10.0935 2373.4 10.4271 2372.23 11.0944C2371.05 11.7394 2370.13 12.6736 2369.46 13.897C2368.8 15.098 2368.46 16.4882 2368.46 18.0674C2368.46 19.6689 2368.8 21.0813 2369.46 22.3046C2370.13 23.5058 2371.05 24.44 2372.23 25.1073C2373.4 25.7523 2374.71 26.0748 2376.16 26.0748C2377.68 26.0748 2379.02 25.7523 2380.17 25.1073C2381.35 24.4622 2382.26 23.5392 2382.9 22.338C2383.54 21.1369 2383.87 19.7134 2383.87 18.0674Z" fill="#C9CBCF"/>
<path d="M2391.7 12.76C2392.16 11.4255 2392.98 10.4134 2394.15 9.7239C2395.32 9.01214 2396.82 8.65625 2398.64 8.65625V10.2244H2398.12C2396.28 10.2244 2394.75 10.7359 2393.53 11.7591C2392.31 12.76 2391.7 14.406 2391.7 16.697V27.1399H2390.14V9.02326H2391.7V12.76Z" fill="#C9CBCF"/>
<path d="M2403.02 4.98521C2402.65 4.98521 2402.34 4.87399 2402.08 4.65157C2401.83 4.40689 2401.7 4.08437 2401.7 3.68401C2401.7 3.30589 2401.83 2.99449 2402.08 2.74982C2402.34 2.50515 2402.65 2.38281 2403.02 2.38281C2403.38 2.38281 2403.69 2.50515 2403.95 2.74982C2404.2 2.99449 2404.33 3.30589 2404.33 3.68401C2404.33 4.08437 2404.2 4.40689 2403.95 4.65157C2403.69 4.87399 2403.38 4.98521 2403.02 4.98521ZM2403.78 9.02224V27.1389H2402.22V9.02224H2403.78Z" fill="#C9CBCF"/>
<path d="M2408.5 18.0642C2408.5 16.1736 2408.88 14.5277 2409.64 13.1264C2410.43 11.7251 2411.5 10.6574 2412.86 9.92344C2414.24 9.16719 2415.82 8.78906 2417.59 8.78906C2419.94 8.78906 2421.86 9.35626 2423.36 10.4906C2424.88 11.625 2425.82 13.1486 2426.19 15.0615H2424.57C2424.27 13.5045 2423.48 12.2812 2422.22 11.3915C2420.97 10.5017 2419.43 10.0569 2417.59 10.0569C2416.21 10.0569 2414.95 10.3572 2413.82 10.9577C2412.7 11.536 2411.79 12.4369 2411.1 13.6602C2410.43 14.8613 2410.09 16.3293 2410.09 18.0642C2410.09 19.8214 2410.43 21.3005 2411.1 22.5016C2411.79 23.7027 2412.7 24.6036 2413.82 25.2042C2414.95 25.8047 2416.21 26.105 2417.59 26.105C2419.43 26.105 2420.97 25.6601 2422.22 24.7704C2423.48 23.8807 2424.27 22.6573 2424.57 21.1003H2426.19C2425.82 22.991 2424.88 24.5146 2423.36 25.6712C2421.84 26.8278 2419.91 27.4062 2417.59 27.4062C2415.82 27.4062 2414.24 27.028 2412.86 26.2718C2411.5 25.5155 2410.43 24.4368 2409.64 23.0355C2408.88 21.612 2408.5 19.9549 2408.5 18.0642Z" fill="#C9CBCF"/>
</g>
<g clip-path="url(#clip5_18081_13910)">
<path d="M2597.34 31.2877C2599.33 31.2877 2600.9 30.8622 2602.05 30.0112C2602.61 29.5994 2603.05 29.0648 2603.35 28.4525C2603.65 27.8402 2603.79 27.1681 2603.76 26.493C2603.78 25.7969 2603.61 25.1081 2603.25 24.5015C2602.84 23.8939 2602.26 23.4083 2601.58 23.1C2600.57 22.6219 2599.51 22.2594 2598.41 22.0202C2597.17 21.7199 2596.23 21.4624 2595.6 21.2479C2595.13 21.1111 2594.69 20.8822 2594.32 20.5757C2594.1 20.3435 2593.98 20.037 2593.98 19.7212C2593.98 19.4395 2594.06 19.1628 2594.22 18.9222C2594.37 18.6816 2594.59 18.4865 2594.85 18.359C2595.54 18.0008 2596.32 17.8452 2597.09 17.912C2597.94 17.9154 2598.76 18.1649 2599.45 18.6271C2599.88 18.9146 2600.21 19.3217 2600.38 19.7927C2600.43 19.9355 2600.52 20.0585 2600.65 20.1397C2600.78 20.2209 2600.94 20.2551 2601.1 20.2361L2603.13 19.8785C2603.2 19.8687 2603.27 19.8453 2603.33 19.8097C2603.39 19.7741 2603.44 19.727 2603.48 19.6714C2603.52 19.6158 2603.55 19.5528 2603.57 19.4864C2603.58 19.4199 2603.58 19.3514 2603.57 19.285C2603.3 18.1692 2602.59 17.1945 2601.59 16.5605C2600.25 15.7103 2598.67 15.2838 2597.06 15.3413C2595.21 15.3413 2593.71 15.7573 2592.58 16.5891C2592.04 16.9661 2591.6 17.4634 2591.31 18.0378C2591.02 18.6122 2590.87 19.2465 2590.89 19.8857C2590.87 20.548 2591.04 21.2028 2591.39 21.7771C2591.83 22.3549 2592.42 22.8094 2593.11 23.0928C2594.15 23.5579 2595.23 23.9244 2596.35 24.1869C2597.59 24.5039 2598.52 24.7697 2599.12 24.9842C2599.57 25.107 2599.98 25.3442 2600.3 25.6707C2600.51 25.9371 2600.61 26.2646 2600.6 26.5967C2600.61 26.8997 2600.54 27.2005 2600.39 27.4707C2600.25 27.7409 2600.04 27.9717 2599.77 28.1413C2599.11 28.549 2598.32 28.7454 2597.53 28.7026C2596.6 28.7339 2595.67 28.4987 2594.88 28.0269C2594.34 27.6942 2593.92 27.2093 2593.69 26.6396C2593.64 26.5109 2593.54 26.4014 2593.42 26.3288C2593.3 26.2562 2593.16 26.2246 2593.02 26.2392L2590.96 26.5431C2590.89 26.5521 2590.82 26.5759 2590.76 26.6131C2590.69 26.6502 2590.64 26.6998 2590.6 26.7586C2590.55 26.8174 2590.53 26.884 2590.51 26.9541C2590.5 27.0242 2590.5 27.0961 2590.52 27.1652C2590.83 28.3423 2591.58 29.3715 2592.62 30.0613C2593.85 30.8789 2595.42 31.2877 2597.34 31.2877Z" fill="#C9CBCF"/>
<path d="M2608.46 30.3406C2608.47 30.4832 2608.53 30.6196 2608.63 30.72C2608.74 30.8205 2608.88 30.8769 2609.03 30.8769H2611.01C2611.16 30.8769 2611.3 30.8204 2611.41 30.7198C2611.51 30.6192 2611.57 30.4828 2611.57 30.3406V22.9967C2611.53 22.0163 2611.71 21.0391 2612.12 20.1364C2612.42 19.4845 2612.94 18.9407 2613.58 18.5811C2614.2 18.2616 2614.89 18.0979 2615.59 18.1055C2616.31 18.0742 2617.02 18.2444 2617.64 18.5954C2618.16 18.9135 2618.58 19.3593 2618.86 19.8861C2619.14 20.4329 2619.34 21.0194 2619.43 21.6237C2619.53 22.2217 2619.59 22.8267 2619.59 23.4329V30.3406C2619.59 30.4113 2619.61 30.4814 2619.63 30.5467C2619.66 30.612 2619.7 30.6713 2619.76 30.7211C2619.81 30.771 2619.87 30.8104 2619.94 30.8371C2620.01 30.8639 2620.08 30.8774 2620.16 30.8769H2622.13C2622.21 30.8774 2622.28 30.8639 2622.35 30.8371C2622.42 30.8104 2622.48 30.771 2622.53 30.7211C2622.58 30.6713 2622.63 30.612 2622.65 30.5467C2622.68 30.4814 2622.7 30.4113 2622.7 30.3406V22.4747C2622.69 21.9303 2622.65 21.3869 2622.57 20.8479C2622.47 20.2026 2622.3 19.5687 2622.07 18.9565C2621.82 18.306 2621.46 17.7012 2621 17.1688C2620.51 16.5972 2619.89 16.1408 2619.19 15.8352C2618.33 15.4753 2617.39 15.3032 2616.44 15.331C2615.39 15.3124 2614.35 15.5137 2613.39 15.921C2612.97 16.1071 2612.57 16.3373 2612.2 16.6074C2612.11 16.6711 2612.01 16.7117 2611.9 16.725C2611.79 16.7383 2611.68 16.7239 2611.58 16.6833C2611.48 16.6427 2611.39 16.5773 2611.33 16.4937C2611.26 16.41 2611.22 16.3112 2611.2 16.207C2611.2 16.0828 2611.15 15.9636 2611.06 15.8758C2610.97 15.7879 2610.84 15.7386 2610.71 15.7386H2609.03C2608.88 15.7386 2608.74 15.7955 2608.63 15.8967C2608.52 15.998 2608.46 16.1353 2608.46 16.2785V30.3406Z" fill="#C9CBCF"/>
<path d="M2632.45 31.3198C2634.29 31.3198 2635.79 30.8562 2636.97 29.929C2637.39 29.6 2638.15 29.8574 2638.15 30.3723C2638.15 30.5117 2638.21 30.6454 2638.31 30.744C2638.41 30.8425 2638.55 30.8979 2638.7 30.8979H2640.3C2640.37 30.8984 2640.44 30.8848 2640.51 30.8581C2640.58 30.8314 2640.64 30.7919 2640.69 30.7421C2640.75 30.6922 2640.79 30.633 2640.82 30.5677C2640.85 30.5024 2640.86 30.4323 2640.86 30.3616V21.5589C2640.86 20.9261 2640.83 20.3326 2640.77 19.7712C2640.71 19.2255 2640.56 18.6941 2640.3 18.2016C2639.84 17.2237 2639.01 16.4443 2637.99 16.0135C2636.82 15.5193 2635.56 15.2752 2634.29 15.2984C2632.47 15.2984 2631 15.6821 2629.9 16.4496C2628.95 17.0968 2628.23 18.0031 2627.84 19.049C2627.81 19.1153 2627.81 19.1857 2627.81 19.2557C2627.82 19.3256 2627.84 19.3935 2627.87 19.4551C2627.91 19.5167 2627.96 19.5706 2628.02 19.6133C2628.07 19.6561 2628.14 19.6867 2628.21 19.7033L2630.01 20.2324C2630.16 20.271 2630.32 20.2559 2630.46 20.1899C2630.59 20.124 2630.7 20.0119 2630.76 19.8749C2631.02 19.3175 2631.46 18.8539 2632.01 18.552C2632.71 18.1761 2633.49 17.9825 2634.29 17.9906C2635.54 17.9906 2636.43 18.2433 2636.96 18.7487C2637.47 19.2393 2637.77 19.8856 2637.83 20.5721C2637.84 20.7048 2637.8 20.8381 2637.71 20.9427C2637.63 21.0473 2637.5 21.1146 2637.36 21.1299C2636.24 21.2765 2635.16 21.4338 2634.09 21.5947C2633 21.7444 2631.92 21.9593 2630.87 22.2382C2629.79 22.5261 2628.82 23.106 2628.08 23.908C2627.42 24.7096 2627.09 25.7083 2627.13 26.7254C2627.12 27.52 2627.33 28.3032 2627.73 28.9994C2628.16 29.6998 2628.78 30.2727 2629.53 30.6548C2630.43 31.1027 2631.43 31.3311 2632.45 31.3198ZM2632.99 28.9207C2632.01 28.9207 2631.29 28.7062 2630.82 28.2771C2630.6 28.0824 2630.43 27.8461 2630.31 27.5833C2630.19 27.3204 2630.13 27.0368 2630.13 26.7504C2630.11 26.4831 2630.16 26.2158 2630.27 25.9682C2630.37 25.7207 2630.54 25.4992 2630.75 25.3202C2631.21 24.9503 2631.74 24.6687 2632.32 24.4908C2633.09 24.2818 2633.87 24.1182 2634.66 24.0009C2635.41 23.8865 2636.24 23.7673 2637.15 23.6434C2637.23 23.6309 2637.31 23.636 2637.39 23.6582C2637.47 23.6804 2637.54 23.7192 2637.6 23.7717C2637.66 23.8243 2637.71 23.8892 2637.74 23.9616C2637.77 24.0341 2637.78 24.1123 2637.78 24.1904C2637.78 24.3656 2637.75 24.548 2637.74 24.741C2637.71 25.1416 2637.62 25.5368 2637.49 25.9174C2637.36 26.4425 2637.1 26.9319 2636.74 27.3475C2636.34 27.8303 2635.83 28.2191 2635.25 28.4845C2634.54 28.7879 2633.77 28.9322 2632.99 28.9064V28.9207Z" fill="#C9CBCF"/>
<path d="M2646.11 37.0746C2646.11 37.2178 2646.17 37.3551 2646.27 37.4564C2646.38 37.5576 2646.52 37.6145 2646.67 37.6145H2648.62C2648.77 37.6145 2648.91 37.5576 2649.02 37.4564C2649.12 37.3551 2649.18 37.2178 2649.18 37.0746V31.025C2649.19 30.9155 2649.23 30.8102 2649.3 30.7189C2649.36 30.6276 2649.45 30.5532 2649.55 30.5025C2649.65 30.4519 2649.76 30.4268 2649.88 30.4294C2649.99 30.4319 2650.11 30.4622 2650.21 30.5173C2650.49 30.6728 2650.79 30.8044 2651.1 30.9106C2651.89 31.1823 2652.72 31.3156 2653.55 31.3039C2654.91 31.3398 2656.25 30.9699 2657.38 30.2456C2658.46 29.5257 2659.32 28.5366 2659.86 27.3853C2660.46 26.104 2660.76 24.7111 2660.74 23.3057C2660.76 21.9002 2660.46 20.5067 2659.86 19.2262C2659.32 18.0665 2658.45 17.0751 2657.35 16.3658C2656.21 15.6473 2654.87 15.2803 2653.51 15.3147C2652.61 15.3019 2651.71 15.4649 2650.87 15.7938C2650.42 15.9673 2650 16.1918 2649.61 16.4624C2649.54 16.5065 2649.46 16.5329 2649.38 16.5388C2649.3 16.5448 2649.21 16.5301 2649.14 16.4963C2649.06 16.4625 2649 16.4107 2648.95 16.3458C2648.9 16.281 2648.87 16.2054 2648.86 16.1263C2648.86 16.0229 2648.82 15.9238 2648.74 15.8507C2648.67 15.7776 2648.56 15.7365 2648.46 15.7365H2646.7C2646.63 15.7361 2646.56 15.7497 2646.49 15.7767C2646.42 15.8036 2646.36 15.8434 2646.3 15.8936C2646.25 15.9439 2646.21 16.0036 2646.18 16.0693C2646.15 16.135 2646.14 16.2054 2646.14 16.2764L2646.11 37.0746ZM2653.12 28.6545C2651.63 28.6545 2650.54 28.154 2649.84 27.1528C2649.15 26.1517 2648.81 24.867 2648.83 23.2986C2648.83 21.7278 2649.17 20.4466 2649.84 19.455C2650.52 18.4634 2651.58 17.9676 2653.02 17.9676C2653.92 17.9326 2654.8 18.1843 2655.53 18.6827C2656.2 19.1764 2656.7 19.8444 2656.98 20.6063C2657.31 21.4679 2657.48 22.3805 2657.46 23.2986C2657.48 24.2247 2657.32 25.1457 2657 26.0194C2656.72 26.7771 2656.22 27.443 2655.56 27.9394C2654.86 28.4361 2654 28.6884 2653.12 28.6545Z" fill="#C9CBCF"/>
<path d="M2665.72 30.3416C2665.72 30.4841 2665.78 30.6205 2665.89 30.721C2665.99 30.8215 2666.14 30.8779 2666.29 30.8779H2668.23C2668.3 30.8784 2668.38 30.8648 2668.45 30.8381C2668.51 30.8113 2668.58 30.7719 2668.63 30.7221C2668.68 30.6722 2668.72 30.6129 2668.75 30.5476C2668.78 30.4823 2668.79 30.4123 2668.79 30.3416V10.8055C2668.79 10.6623 2668.74 10.525 2668.63 10.4238C2668.52 10.3225 2668.38 10.2656 2668.23 10.2656H2666.29C2666.14 10.2666 2665.99 10.3238 2665.89 10.4248C2665.78 10.5258 2665.72 10.6626 2665.72 10.8055V30.3416Z" fill="#C9CBCF"/>
<path d="M2681.68 31.3194C2683.16 31.3366 2684.61 30.9522 2685.86 30.2111C2686.94 29.5738 2687.81 28.6708 2688.39 27.5974C2688.43 27.5309 2688.45 27.4579 2688.45 27.3838C2688.45 27.3096 2688.43 27.2359 2688.4 27.1679C2688.37 27.0998 2688.33 27.0391 2688.27 26.9898C2688.21 26.9404 2688.14 26.9038 2688.07 26.8824L2686.12 26.296C2685.99 26.2592 2685.85 26.266 2685.73 26.3154C2685.6 26.3647 2685.49 26.4537 2685.43 26.5677C2684.6 27.8978 2683.31 28.5664 2681.54 28.5664C2680.96 28.5953 2680.38 28.5078 2679.84 28.3095C2679.3 28.1111 2678.81 27.8064 2678.4 27.4151C2677.71 26.6694 2677.27 25.737 2677.14 24.7443C2677.13 24.6708 2677.14 24.5959 2677.16 24.5248C2677.18 24.4538 2677.22 24.3882 2677.27 24.3328C2677.32 24.2773 2677.39 24.2333 2677.46 24.2037C2677.53 24.1741 2677.61 24.1597 2677.68 24.1615H2688.34C2688.48 24.1634 2688.62 24.1112 2688.72 24.0162C2688.83 23.9212 2688.89 23.791 2688.89 23.6538C2688.96 22.2263 2688.72 20.8003 2688.19 19.4634C2687.7 18.2211 2686.81 17.1574 2685.66 16.4207C2684.43 15.6789 2683 15.3054 2681.55 15.3481C2680.12 15.3016 2678.71 15.6319 2677.47 16.3027C2676.3 16.9744 2675.35 17.9518 2674.74 19.1201C2674.07 20.4574 2673.74 21.9275 2673.77 23.4106C2673.74 24.8412 2674.08 26.257 2674.75 27.5331C2675.39 28.6822 2676.35 29.6391 2677.52 30.2969C2678.79 30.9843 2680.23 31.3372 2681.68 31.3194ZM2681.66 17.9295C2683.86 17.9295 2685.19 19.0427 2685.63 21.269C2685.65 21.3435 2685.64 21.42 2685.62 21.493C2685.6 21.5661 2685.57 21.6337 2685.51 21.6912C2685.46 21.7487 2685.4 21.7945 2685.33 21.8254C2685.25 21.8562 2685.17 21.8713 2685.1 21.8696H2677.78C2677.7 21.8714 2677.62 21.8557 2677.55 21.8237C2677.48 21.7918 2677.41 21.7445 2677.36 21.6853C2677.31 21.6261 2677.27 21.5566 2677.25 21.482C2677.24 21.4074 2677.23 21.3297 2677.25 21.2546C2677.43 20.3748 2677.88 19.5674 2678.55 18.9378C2679.31 18.2513 2680.33 17.9152 2681.65 17.9152L2681.66 17.9295Z" fill="#C9CBCF"/>
<path d="M2702.22 30.9581C2702.35 30.9369 2702.47 30.8728 2702.55 30.7772C2702.64 30.6816 2702.68 30.5607 2702.68 30.4361V29.0238C2702.68 28.9455 2702.66 28.8682 2702.63 28.797C2702.59 28.7258 2702.54 28.6623 2702.48 28.6106C2702.42 28.5589 2702.35 28.5203 2702.27 28.4972C2702.19 28.4741 2702.11 28.4672 2702.03 28.4768C2701.34 28.5478 2700.65 28.5478 2699.97 28.4768C2699.62 28.4514 2699.29 28.3474 2699 28.1738C2698.71 28.0001 2698.47 27.7618 2698.3 27.4792C2698.1 27.1311 2697.99 26.7419 2697.99 26.3458C2697.99 25.8953 2697.99 25.3661 2697.99 24.7583V18.6122C2697.99 18.469 2698.05 18.3317 2698.15 18.2304C2698.26 18.1292 2698.4 18.0723 2698.55 18.0723H2702.13C2702.28 18.0714 2702.42 18.0142 2702.53 17.9131C2702.63 17.8121 2702.69 17.6753 2702.69 17.5324V16.256C2702.69 16.1128 2702.63 15.9755 2702.53 15.8742C2702.42 15.773 2702.28 15.7161 2702.13 15.7161H2698.55C2698.4 15.7152 2698.26 15.658 2698.16 15.5569C2698.05 15.4559 2697.99 15.3191 2697.99 15.1762V12.0477C2697.99 11.9048 2697.93 11.7681 2697.82 11.667C2697.72 11.566 2697.57 11.5088 2697.43 11.5078H2695.47C2695.32 11.5088 2695.18 11.566 2695.08 11.667C2694.97 11.7681 2694.91 11.9048 2694.91 12.0477V15.1762C2694.91 15.3188 2694.85 15.4556 2694.75 15.5567C2694.64 15.6579 2694.5 15.7152 2694.35 15.7161H2692.44C2692.37 15.7161 2692.29 15.7301 2692.22 15.7573C2692.16 15.7844 2692.09 15.8243 2692.04 15.8745C2691.99 15.9246 2691.95 15.9842 2691.92 16.0497C2691.89 16.1152 2691.88 16.1853 2691.88 16.256V17.5324C2691.88 17.675 2691.94 17.8118 2692.04 17.9129C2692.15 18.0141 2692.29 18.0714 2692.44 18.0723H2694.35C2694.42 18.0723 2694.5 18.0863 2694.56 18.1135C2694.63 18.1407 2694.69 18.1805 2694.75 18.2307C2694.8 18.2808 2694.84 18.3404 2694.87 18.4059C2694.9 18.4713 2694.91 18.5415 2694.91 18.6122V24.9013C2694.91 25.7237 2694.92 26.4614 2694.94 27.1145C2694.98 27.7824 2695.17 28.4343 2695.5 29.0238C2695.87 29.7081 2696.47 30.2512 2697.21 30.5648C2698.02 30.9046 2698.89 31.0858 2699.78 31.0975C2700.59 31.1262 2701.41 31.0795 2702.22 30.9581Z" fill="#C9CBCF"/>
<path d="M2545 38.7907C2546.29 38.7907 2547.52 38.303 2548.43 37.4349C2549.34 36.5668 2549.85 35.3892 2549.85 34.161C2549.85 33.5526 2549.72 32.9503 2549.48 32.3883C2549.23 31.8264 2548.88 31.3158 2548.43 30.8859C2547.98 30.4559 2547.44 30.115 2546.86 29.8825C2546.27 29.6501 2545.64 29.5307 2545 29.5313C2543.72 29.5313 2542.49 30.019 2541.58 30.8873C2540.67 31.7555 2540.16 32.9331 2540.16 34.161C2540.17 35.3885 2540.68 36.5655 2541.58 37.4335C2542.49 38.3015 2543.72 38.7896 2545 38.7907Z" fill="#C9CBCF"/>
<path d="M2569.64 34.8219C2570.28 34.8224 2570.91 34.703 2571.5 34.4706C2572.08 34.2382 2572.62 33.8972 2573.07 33.4673C2573.52 33.0373 2573.88 32.5267 2574.12 31.9648C2574.36 31.4028 2574.49 30.8005 2574.49 30.1922C2574.49 28.9639 2573.98 27.7864 2573.07 26.9182C2572.16 26.0501 2570.93 25.5625 2569.64 25.5625C2568.36 25.5635 2567.13 26.0516 2566.22 26.9196C2565.32 27.7876 2564.81 28.9646 2564.8 30.1922C2564.8 31.42 2565.31 32.5977 2566.22 33.4659C2567.13 34.3341 2568.36 34.8219 2569.64 34.8219Z" fill="#C9CBCF"/>
<path d="M2533.08 46.0243C2532.92 46.0249 2532.77 45.9984 2532.63 45.9461C2532.48 45.8908 2532.34 45.8074 2532.22 45.7007C2532.11 45.5939 2532.01 45.4661 2531.95 45.3244C2531.88 45.1827 2531.85 45.03 2531.84 44.8752C2531.84 44.7204 2531.87 44.5665 2531.93 44.4224C2531.96 44.3443 2533.12 41.164 2533.65 30.3887C2533.94 24.5283 2533.95 21.9537 2533.46 16.1988C2532.98 10.69 2533.76 7.45117 2535.76 6.56429C2538.56 5.33361 2541.1 7.31832 2543.56 9.24053C2546.27 11.362 2549.07 13.5382 2552.83 13.0146C2555.39 12.6474 2556.33 10.354 2557.47 6.89637C2558.36 4.2045 2559.27 1.42667 2561.96 1.03598C2563.22 0.860169 2564.62 1.32901 2566.09 2.43467C2573.19 7.74418 2581.54 26.56 2582.94 40.4256C2582.96 40.5791 2582.94 40.734 2582.89 40.8815C2582.85 41.029 2582.77 41.1662 2582.67 41.2853C2582.56 41.4043 2582.44 41.5028 2582.3 41.5752C2582.15 41.6476 2582 41.6924 2581.84 41.7071C2581.51 41.7365 2581.19 41.6419 2580.94 41.4441C2580.69 41.2463 2580.53 40.9615 2580.5 40.6522C2579.06 26.3959 2570.55 8.73656 2564.58 4.27875C2563.67 3.60676 2562.87 3.27465 2562.3 3.3567C2561.12 3.5247 2560.47 5.50162 2559.78 7.59964C2558.73 10.7721 2557.43 14.7181 2553.17 15.3314C2548.34 16.0269 2544.81 13.2686 2541.98 11.0338C2539.61 9.18584 2538.1 8.08409 2536.75 8.68966C2536.18 8.93971 2535.44 11.1432 2535.86 15.9995C2536.37 21.8873 2536.36 24.5127 2536.06 30.4903C2535.49 41.8946 2534.23 45.1218 2534.18 45.2546C2534.1 45.4731 2533.95 45.6629 2533.75 45.7999C2533.55 45.937 2533.32 46.0151 2533.08 46.0243Z" fill="#C9CBCF"/>
<path d="M2538.8 36.8915C2538.68 36.8905 2538.56 36.8565 2538.46 36.7934C2538.36 36.7303 2538.28 36.6409 2538.23 36.5359C2538.2 36.4645 2538.18 36.3874 2538.18 36.3091C2538.18 36.2308 2538.19 36.1529 2538.22 36.0801C2538.25 36.0072 2538.3 35.9409 2538.35 35.885C2538.41 35.8291 2538.48 35.7847 2538.56 35.7545L2543.37 33.7776L2538.31 32.7931C2538.24 32.7782 2538.16 32.7485 2538.09 32.7058C2538.03 32.6631 2537.97 32.6083 2537.93 32.5443C2537.88 32.4804 2537.85 32.4088 2537.84 32.3335C2537.82 32.2581 2537.82 32.1806 2537.84 32.1055C2537.85 32.0298 2537.88 31.9578 2537.93 31.8936C2537.97 31.8294 2538.03 31.7743 2538.1 31.7314C2538.16 31.6885 2538.24 31.6588 2538.32 31.6439C2538.4 31.6289 2538.48 31.6291 2538.56 31.6444L2545.53 33.0041C2545.66 33.0283 2545.78 33.091 2545.87 33.1831C2545.96 33.2752 2546.01 33.3917 2546.02 33.5159C2546.04 33.6404 2546.01 33.7656 2545.94 33.8737C2545.88 33.9817 2545.78 34.0671 2545.66 34.1175L2539.04 36.8407C2538.96 36.8745 2538.88 36.8919 2538.8 36.8915Z" fill="#C9CBCF"/>
<path d="M2575.86 31.1757H2575.82L2568.63 30.8046C2568.51 30.8002 2568.38 30.7584 2568.28 30.6849C2568.18 30.6113 2568.11 30.5098 2568.07 30.3943C2568.04 30.2736 2568.05 30.1462 2568.1 30.0308C2568.15 29.9155 2568.24 29.8183 2568.35 29.7536L2574.41 26.1788C2574.55 26.0987 2574.72 26.0739 2574.87 26.1098C2575.03 26.1456 2575.17 26.2391 2575.25 26.3702C2575.34 26.5033 2575.36 26.6625 2575.33 26.8136C2575.29 26.9648 2575.19 27.096 2575.05 27.1789L2570.66 29.7653L2575.89 30.0349C2576.05 30.044 2576.2 30.1139 2576.31 30.2295C2576.42 30.3451 2576.48 30.497 2576.47 30.6522C2576.45 30.7962 2576.38 30.9292 2576.27 31.0257C2576.15 31.1223 2576.01 31.1757 2575.86 31.1757Z" fill="#C9CBCF"/>
<path d="M2556.71 35.2041C2555.71 35.2451 2554.72 34.967 2553.91 34.4133C2553.09 33.8597 2552.49 33.0618 2552.19 32.145C2552.13 31.9507 2552.15 31.7408 2552.25 31.5599C2552.34 31.379 2552.51 31.2413 2552.71 31.1761C2552.91 31.1073 2553.14 31.1188 2553.33 31.2082C2553.53 31.2976 2553.68 31.4574 2553.75 31.6527C2554.29 33.2155 2555.7 33.8953 2557.62 33.5632C2559.54 33.2311 2560.57 32.102 2560.54 30.4611C2560.54 30.2538 2560.62 30.0551 2560.77 29.9086C2560.93 29.762 2561.14 29.6797 2561.35 29.6797C2561.57 29.6797 2561.78 29.762 2561.93 29.9086C2562.08 30.0551 2562.17 30.2538 2562.17 30.4611C2562.22 32.8756 2560.59 34.6649 2557.91 35.1299C2557.51 35.1886 2557.11 35.2134 2556.71 35.2041Z" fill="#C9CBCF"/>
<path d="M2543.04 28.2482C2542.98 28.2542 2542.92 28.2542 2542.86 28.2482C2542.64 28.2025 2542.46 28.0785 2542.35 27.9034C2542.23 27.7283 2542.19 27.5165 2542.24 27.3144C2542.65 25.6384 2544.88 23.0403 2547.65 22.6261C2550.41 22.212 2553.23 24.1889 2553.7 25.7087C2553.73 25.8072 2553.74 25.9104 2553.73 26.0124C2553.71 26.1144 2553.68 26.2132 2553.63 26.3032C2553.58 26.3932 2553.51 26.4726 2553.43 26.5368C2553.34 26.601 2553.25 26.6489 2553.14 26.6776C2552.94 26.7358 2552.71 26.7129 2552.52 26.6141C2552.33 26.5152 2552.19 26.3484 2552.13 26.1502C2551.9 25.4001 2549.9 23.8646 2547.9 24.1694C2545.91 24.4741 2544.11 26.4666 2543.82 27.6856C2543.77 27.8479 2543.67 27.9905 2543.53 28.0919C2543.38 28.1934 2543.21 28.2482 2543.04 28.2482Z" fill="#C9CBCF"/>
<path d="M2558.95 25.6486C2558.87 25.6496 2558.8 25.6391 2558.72 25.6173C2558.62 25.5894 2558.52 25.5422 2558.44 25.4786C2558.36 25.415 2558.28 25.3361 2558.23 25.2465C2558.18 25.1569 2558.15 25.0583 2558.13 24.9563C2558.12 24.8543 2558.13 24.751 2558.16 24.6523C2558.57 23.234 2560.05 20.718 2562.9 20.2843C2565.49 19.8936 2568.48 21.5541 2569.32 23.2497C2569.36 23.3435 2569.39 23.4449 2569.39 23.5481C2569.39 23.6513 2569.38 23.7541 2569.34 23.8508C2569.3 23.9474 2569.24 24.0359 2569.17 24.1111C2569.1 24.1863 2569.01 24.2467 2568.91 24.2889C2568.81 24.3326 2568.7 24.3572 2568.6 24.3612C2568.49 24.3651 2568.38 24.3485 2568.28 24.3121C2568.18 24.2757 2568.08 24.2204 2568 24.1494C2567.93 24.0783 2567.86 23.9929 2567.82 23.8982C2567.31 22.8707 2565.07 21.5111 2563.14 21.808C2561.1 22.1167 2560.01 24.0702 2559.71 25.0625C2559.67 25.226 2559.57 25.3715 2559.43 25.4771C2559.29 25.5828 2559.12 25.6429 2558.95 25.6486Z" fill="#C9CBCF"/>
<path fill-rule="evenodd" clip-rule="evenodd" d="M2563.37 28.4397C2561.65 28.4376 2560.01 27.7845 2558.79 26.6237C2557.59 25.4731 2556.91 23.9169 2556.9 22.291C2556.65 22.2522 2556.41 22.2323 2556.16 22.2316C2555.35 22.2318 2554.56 22.445 2553.87 22.8418C2554.1 23.4853 2554.23 24.1671 2554.23 24.861C2554.23 26.5027 2553.54 28.0766 2552.33 29.2374C2551.12 30.3983 2549.47 31.0514 2547.76 31.0534C2546.04 31.0514 2544.39 30.3983 2543.18 29.2374C2542.11 28.2174 2541.46 26.8786 2541.31 25.455L2540.04 25.6775C2539.98 25.6924 2539.92 25.7015 2539.85 25.7048C2539.61 25.7038 2539.38 25.6227 2539.2 25.4757C2539.02 25.3286 2538.89 25.1249 2538.85 24.9C2538.83 24.7743 2538.83 24.6453 2538.86 24.5203C2538.89 24.3953 2538.94 24.2768 2539.02 24.1716C2539.09 24.0663 2539.19 23.9765 2539.3 23.907C2539.41 23.8376 2539.54 23.79 2539.67 23.767L2541.45 23.4522C2541.73 22.3383 2542.32 21.309 2543.18 20.487C2544.4 19.327 2546.04 18.6744 2547.76 18.6724C2549.47 18.6744 2551.12 19.327 2552.33 20.487C2552.54 20.6854 2552.73 20.8959 2552.9 21.1167C2553.89 20.5685 2555.01 20.2746 2556.16 20.2742C2556.51 20.2737 2556.86 20.3008 2557.21 20.3551C2557.52 19.4267 2558.06 18.5731 2558.79 17.8707C2560.01 16.7099 2561.65 16.0568 2563.37 16.0547C2565.08 16.0568 2566.73 16.7099 2567.94 17.8707C2568.22 18.1333 2568.46 18.4171 2568.68 18.718C2568.7 18.7141 2568.72 18.7105 2568.73 18.7074L2570.27 18.4378C2570.54 18.3922 2570.81 18.4487 2571.03 18.595C2571.26 18.7414 2571.41 18.9658 2571.46 19.2192C2571.51 19.4736 2571.45 19.7361 2571.3 19.9492C2571.14 20.1623 2570.91 20.3087 2570.64 20.3561L2569.59 20.5406C2569.75 21.0907 2569.84 21.6647 2569.84 22.2472C2569.84 23.8889 2569.16 25.4628 2567.94 26.6237C2566.73 27.7845 2565.08 28.4376 2563.37 28.4397ZM2563.37 18.0082C2562.19 18.0092 2561.07 18.4562 2560.24 19.2509C2559.41 20.0456 2558.94 21.1233 2558.94 22.2472C2558.94 23.3708 2559.41 24.4478 2560.24 25.2424C2561.07 26.0369 2562.19 26.4841 2563.37 26.4862C2564.54 26.4841 2565.67 26.0369 2566.5 25.2424C2567.33 24.4478 2567.8 23.3708 2567.8 22.2472C2567.8 21.1233 2567.33 20.0456 2566.5 19.2509C2565.67 18.4562 2564.54 18.0092 2563.37 18.0082ZM2547.76 20.6219C2546.58 20.624 2545.46 21.0713 2544.62 21.8658C2543.79 22.6603 2543.33 23.7373 2543.32 24.861C2543.33 25.9846 2543.79 27.0616 2544.62 27.8561C2545.46 28.6506 2546.58 29.0979 2547.76 29.1C2548.93 29.0979 2550.06 28.6506 2550.89 27.8561C2551.72 27.0616 2552.18 25.9846 2552.19 24.861C2552.18 23.738 2551.72 22.662 2550.89 21.8683C2550.05 21.0746 2548.93 20.6279 2547.76 20.6258V20.6219Z" fill="#C9CBCF"/>
</g>
<defs>
<linearGradient id="paint0_linear_18081_13910" x1="112" y1="0.000512567" x2="112" y2="47.4959" gradientUnits="userSpaceOnUse">
<stop stop-color="#E4E5E7"/>
<stop offset="1" stop-color="#E4E5E7" stop-opacity="0.7"/>
</linearGradient>
<linearGradient id="paint1_linear_18081_13910" x1="369" y1="-1.90333e-07" x2="369" y2="48" gradientUnits="userSpaceOnUse">
<stop stop-color="#E4E5E7"/>
<stop offset="1" stop-color="#E4E5E7" stop-opacity="0.7"/>
</linearGradient>
<linearGradient id="paint2_linear_18081_13910" x1="604" y1="2.51503e-07" x2="604" y2="48" gradientUnits="userSpaceOnUse">
<stop stop-color="#E4E5E7"/>
<stop offset="1" stop-color="#E4E5E7" stop-opacity="0.7"/>
</linearGradient>
<linearGradient id="paint3_linear_18081_13910" x1="837.559" y1="0.257812" x2="837.559" y2="47.8196" gradientUnits="userSpaceOnUse">
<stop stop-color="#E4E5E7"/>
<stop offset="1" stop-color="#E4E5E7" stop-opacity="0.7"/>
</linearGradient>
<linearGradient id="paint4_linear_18081_13910" x1="1021" y1="-2" x2="1021" y2="46" gradientUnits="userSpaceOnUse">
<stop stop-color="#E4E5E7"/>
<stop offset="1" stop-color="#E4E5E7" stop-opacity="0.7"/>
</linearGradient>
<linearGradient id="paint5_linear_18081_13910" x1="1021" y1="-2" x2="1021" y2="46" gradientUnits="userSpaceOnUse">
<stop stop-color="#E4E5E7"/>
<stop offset="1" stop-color="#E4E5E7" stop-opacity="0.7"/>
</linearGradient>
<linearGradient id="paint6_linear_18081_13910" x1="1021" y1="-2" x2="1021" y2="46" gradientUnits="userSpaceOnUse">
<stop stop-color="#E4E5E7"/>
<stop offset="1" stop-color="#E4E5E7" stop-opacity="0.7"/>
</linearGradient>
<linearGradient id="paint7_linear_18081_13910" x1="1021" y1="-2" x2="1021" y2="46" gradientUnits="userSpaceOnUse">
<stop stop-color="#E4E5E7"/>
<stop offset="1" stop-color="#E4E5E7" stop-opacity="0.7"/>
</linearGradient>
<linearGradient id="paint8_linear_18081_13910" x1="1021" y1="-2" x2="1021" y2="46" gradientUnits="userSpaceOnUse">
<stop stop-color="#E4E5E7"/>
<stop offset="1" stop-color="#E4E5E7" stop-opacity="0.7"/>
</linearGradient>
<linearGradient id="paint9_linear_18081_13910" x1="1188.21" y1="0.206195" x2="1188.21" y2="48.0031" gradientUnits="userSpaceOnUse">
<stop stop-color="#E4E5E7"/>
<stop offset="1" stop-color="#E4E5E7" stop-opacity="0.7"/>
</linearGradient>
<linearGradient id="paint10_linear_18081_13910" x1="1452.65" y1="-0.00012207" x2="1452.65" y2="47.9999" gradientUnits="userSpaceOnUse">
<stop stop-color="#E4E5E7"/>
<stop offset="1" stop-color="#E4E5E7" stop-opacity="0.7"/>
</linearGradient>
<clipPath id="clip0_18081_13910">
<rect width="162.857" height="48" fill="white" transform="translate(756)"/>
</clipPath>
<clipPath id="clip1_18081_13910">
<rect width="130" height="48" fill="white" transform="translate(1122.86)"/>
</clipPath>
<clipPath id="clip2_18081_13910">
<rect width="271" height="48" fill="white" transform="translate(1316.86)"/>
</clipPath>
<clipPath id="clip3_18081_13910">
<rect width="208" height="48" fill="white" transform="translate(1651.86)"/>
</clipPath>
<clipPath id="clip4_18081_13910">
<rect width="255" height="48" fill="white" transform="translate(2212.86)"/>
</clipPath>
<clipPath id="clip5_18081_13910">
<rect width="172" height="48" fill="white" transform="translate(2531.86)"/>
</clipPath>
</defs>
</svg>
