<svg width="1879" height="36" viewBox="0 0 1879 36" fill="none" xmlns="http://www.w3.org/2000/svg">
<path fill-rule="evenodd" clip-rule="evenodd" d="M30.1918 6.72302C31.041 7.05106 31.4145 8.00234 31.0749 8.78962C30.8032 9.4129 30.1918 9.77374 29.5466 9.77374C29.3429 9.77374 29.1052 9.74092 28.9014 9.64252C24.7921 7.96954 20.4111 7.14946 15.9622 7.14946C15.0452 7.14946 14.3321 6.4278 14.3321 5.57491C14.3321 4.72203 15.0792 4.00036 15.9622 4.00036C20.8865 3.96756 25.675 4.88604 30.1918 6.72302ZM30.1832 13.0924C31.0321 13.4204 31.4057 14.3718 31.0661 15.159C30.7944 15.7823 30.1832 16.1431 29.5378 16.1431C29.334 16.1431 29.0963 16.1103 28.8926 16.0119C24.7833 14.3389 20.4363 13.5189 15.9534 13.5189C11.4366 13.5189 7.08958 14.3389 3.01425 15.9791C2.16523 16.3072 1.21432 15.9463 0.874706 15.1262C0.535096 14.3061 0.908664 13.3876 1.75769 13.0596C6.24055 11.2554 10.9951 10.337 15.9534 10.337C20.8778 10.337 25.6662 11.2554 30.1832 13.0924ZM25.0889 19.3869C25.2927 18.534 24.7154 17.7139 23.8325 17.5171C21.2174 16.9595 18.5684 16.697 15.9534 16.697C10.9951 16.697 6.24056 17.6155 1.75769 19.4197C0.908665 19.7477 0.535096 20.6662 0.874706 21.4863C1.1464 22.1096 1.7577 22.4704 2.40296 22.4704C2.64068 22.4704 2.84444 22.4048 3.04821 22.3392C7.12354 20.6662 11.4706 19.8461 15.9874 19.8461C18.3307 19.8461 20.7419 20.1086 23.1531 20.6006C24.0362 20.7974 24.8852 20.2398 25.0889 19.3869ZM15.9874 23.027C16.9043 23.027 17.6175 23.7487 17.6175 24.6016C17.6175 25.4544 16.8704 26.176 15.9874 26.176C11.4706 26.176 7.12354 26.9962 3.04821 28.6692L3.04819 28.6692C2.84443 28.7348 2.64067 28.8004 2.40295 28.8004C1.75769 28.8004 1.1464 28.4396 0.874706 27.8162C0.535096 26.9962 0.908664 26.0776 1.75769 25.7496C6.27451 23.9455 11.0291 23.027 15.9874 23.027ZM45.8434 27.9797V29.1847H42.5312V11.2294H45.8947V18.3222C46.4596 17.4542 47.846 16.6606 49.7203 16.6606C53.4178 16.6606 55.5488 19.4134 55.5488 23.0342C55.5488 26.7295 53.1865 29.4823 49.592 29.4823C47.846 29.4823 47.1271 29.3127 45.8434 27.9797ZM49.0014 26.5311C50.7473 26.5311 52.4761 25.3447 52.4761 23.1128C52.4761 20.8808 50.7473 19.6118 49.0014 19.6118C47.2812 19.6118 45.5224 20.8808 45.5224 23.1128C45.5224 25.3199 47.2812 26.5311 49.0014 26.5311ZM66.2241 29.1911H69.4849C69.4336 28.7695 69.3565 27.9263 69.3565 26.9839V16.9894H65.9417V24.0823C65.9417 25.4959 65.0688 26.4879 63.5539 26.4879C61.9618 26.4879 61.2429 25.3967 61.2429 24.0327V16.9894H57.8281V24.7023C57.8281 27.3559 59.574 29.5135 62.6294 29.5135C63.9647 29.5135 65.4282 29.0175 66.1214 27.8767C66.1214 28.3727 66.1728 28.9431 66.2241 29.1911ZM78.5308 19.6382C77.0417 19.6382 76.1687 20.7542 76.1687 22.1678V29.1863H72.7539V16.9846H76.1687V17.7218C77.1129 16.7744 78.636 16.8553 79.4999 16.9012L79.5 16.9012C79.6023 16.9067 79.6954 16.9116 79.7771 16.9143C81.9169 16.9846 84.2823 18.8198 84.2823 21.4982V29.1863H80.8675V22.0686C80.8675 20.7046 80.1741 19.6382 78.5308 19.6382ZM114.848 25.7905C115.002 27.1793 116.311 29.5601 120.111 29.5601C123.423 29.5601 125.015 27.5265 125.015 25.5425C125.015 23.7568 123.757 22.2936 121.267 21.7976L119.469 21.4256C118.776 21.3016 118.314 20.9296 118.314 20.3344C118.314 19.64 119.033 19.1192 119.932 19.1192C121.369 19.1192 121.909 20.0368 122.011 20.756L124.861 20.136C124.707 18.8216 123.5 16.6144 119.906 16.6144C117.184 16.6144 115.181 18.4248 115.181 20.6072C115.181 22.3184 116.285 23.732 118.725 24.2529L120.394 24.6249C121.369 24.8233 121.755 25.2697 121.755 25.8153C121.755 26.4601 121.215 27.0305 120.086 27.0305C118.596 27.0305 117.852 26.1377 117.775 25.1705L114.848 25.7905ZM133.293 19.6366C131.855 19.6366 131.007 20.6782 130.93 22.0174V29.1847H127.516V11.2294H130.93V17.9998C131.752 17.0574 133.139 16.6606 134.345 16.6606C137.555 16.6606 139.044 18.8182 139.044 21.4966V29.1847H135.629V22.067C135.629 20.703 134.936 19.6366 133.293 19.6366ZM144.745 21.6984C144.822 20.5824 145.798 19.2928 147.569 19.2928C149.521 19.2928 150.342 20.4832 150.394 21.6984H144.745ZM150.728 24.8729C150.317 25.9641 149.444 26.7329 147.852 26.7329C146.157 26.7329 144.745 25.5673 144.668 23.9552H153.706C153.706 23.9497 153.706 23.9387 153.708 23.9228L153.71 23.8943L153.713 23.8506L153.714 23.8454L153.714 23.8447L153.714 23.8442C153.728 23.6626 153.757 23.2934 153.757 22.9384C153.757 19.02 151.421 16.6144 147.518 16.6144C144.283 16.6144 141.305 19.144 141.305 23.0376C141.305 27.1545 144.36 29.5601 147.826 29.5601C150.933 29.5601 152.936 27.7993 153.577 25.6913L150.728 24.8729ZM159.603 11.2294V29.1847H156.188V11.2294H159.603ZM166.415 29.1847V11.2294H163V29.1847H166.415ZM117.769 11.2294L106.351 33.9959H102.73L113.994 11.2294H117.769ZM103.65 16.6593H99.8242L102.229 22.1071L103.432 24.831L104.034 26.1928L106.172 22.0161L105.332 20.2305L104.491 18.4449L103.65 16.6593ZM93.2339 19.6383C91.7448 19.6383 90.8718 20.7543 90.8718 22.168V29.1864H87.457V16.9847H90.8718V17.722C91.8159 16.7746 93.3391 16.8555 94.203 16.9014C94.3053 16.9068 94.3984 16.9118 94.4802 16.9144C96.62 16.9847 98.9854 18.8199 98.9854 21.4984V29.1864H95.5704V22.0688C95.5704 20.7047 94.8771 19.6383 93.2339 19.6383Z" fill="url(#paint0_linear_18081_14687)"/>
<path d="M261.847 11.75C257.025 11.75 253.549 14.7875 253.549 19.3437C253.549 23.9 257.462 26.9374 262.284 26.9374C265.197 26.9374 267.765 25.8237 269.355 23.9464L266.014 22.0817C265.131 23.014 263.791 23.5582 262.284 23.5582C260.192 23.5582 258.414 22.5036 257.755 20.8161H269.993C270.089 20.3436 270.146 19.8542 270.146 19.3395C270.146 14.7875 266.669 11.75 261.847 11.75ZM257.715 17.8672C258.261 16.1839 259.755 15.125 261.843 15.125C263.935 15.125 265.428 16.1839 265.97 17.8672H257.715ZM308.878 11.75C304.056 11.75 300.579 14.7875 300.579 19.3437C300.579 23.9 304.493 26.9374 309.314 26.9374C312.228 26.9374 314.796 25.8237 316.386 23.9464L313.044 22.0817C312.162 23.014 310.821 23.5582 309.314 23.5582C307.222 23.5582 305.445 22.5036 304.785 20.8161H317.023C317.119 20.3436 317.176 19.8542 317.176 19.3395C317.176 14.7875 313.699 11.75 308.878 11.75ZM304.75 17.8672C305.296 16.1839 306.79 15.125 308.878 15.125C310.97 15.125 312.463 16.1839 313.005 17.8672H304.75ZM287.703 19.3437C287.703 21.875 289.415 23.5625 292.071 23.5625C293.87 23.5625 295.22 22.7736 295.914 21.4868L299.269 23.3557C297.88 25.5917 295.277 26.9374 292.071 26.9374C287.245 26.9374 283.772 23.9 283.772 19.3437C283.772 14.7875 287.249 11.75 292.071 11.75C295.277 11.75 297.876 13.0958 299.269 15.3317L295.914 17.2006C295.22 15.9139 293.87 15.125 292.071 15.125C289.42 15.125 287.703 16.8125 287.703 19.3437ZM323.727 7.10937V26.5156H319.797V7.10937H323.727ZM216.384 5L232.523 31.9999H200.246L216.384 5ZM256.733 7.10937L244.63 27.3593L232.527 7.10937H237.065L244.63 19.7656L252.195 7.10937H256.733ZM282.462 12.1719V16.2598C282.025 16.1375 281.562 16.0531 281.065 16.0531C278.527 16.0531 276.697 17.7406 276.697 20.2718V26.5156H272.766V12.1719H276.697V16.0531C276.697 13.91 279.278 12.1719 282.462 12.1719Z" fill="url(#paint1_linear_18081_14687)"/>
<path fill-rule="evenodd" clip-rule="evenodd" d="M358.997 3.5C357.924 3.5 357.055 4.34022 357.055 5.37624V11.6246C357.055 12.6606 357.924 13.5008 358.997 13.5008H369.994V23.4991H358.997C357.924 23.4991 357.055 24.3393 357.055 25.3754V31.6237C357.055 32.6597 357.924 33.4999 358.997 33.4999H368.052C369.124 33.4999 369.994 32.6597 369.994 31.6237V23.5041H380.991C382.064 23.5041 382.933 22.6639 382.933 21.6278V15.377C382.933 14.341 382.064 13.5008 380.991 13.5008H369.997V5.37624C369.997 4.34022 369.127 3.5 368.055 3.5H358.997ZM481.33 7.98757C481.33 7.68271 481.068 7.44726 480.732 7.44726H478.269C477.933 7.44726 477.671 7.70006 477.671 7.98757V11.4501H473.844C473.508 11.4501 473.246 11.7029 473.246 11.9904V13.7749C473.246 14.0798 473.508 14.3152 473.844 14.3152H477.671V19.6192C477.671 23.6766 479.649 25.5528 483.908 25.5528H487.379C487.715 25.5528 487.976 25.3 487.976 25.0125V23.228C487.976 22.9231 487.715 22.6876 487.379 22.6876H484.467C482.15 22.6876 481.33 21.8028 481.33 19.6019V14.335H487.807C488.143 14.3152 488.405 14.0624 488.405 13.7749V11.9904C488.405 11.6855 488.143 11.4501 487.807 11.4501H481.33V7.98757ZM469.381 11.9929C469.381 11.688 469.119 11.4525 468.783 11.4525V11.455H461.259C460.923 11.455 460.661 11.7078 460.661 11.9953V13.7799C460.661 14.0847 460.923 14.3202 461.259 14.3202H465.72V22.6901H461.259C460.923 22.6901 460.661 22.9429 460.661 23.2304V25.015C460.661 25.3198 460.923 25.5553 461.259 25.5553H473.954C474.29 25.5553 474.552 25.3025 474.552 25.015V23.2304C474.552 22.9256 474.29 22.6901 473.954 22.6901H469.381V11.9929ZM469.529 6.54508C469.511 6.24022 469.25 6.00476 468.932 6.00476H465.571C465.235 6.00476 464.973 6.25757 464.973 6.54508V8.83522C464.973 9.14008 465.235 9.37554 465.571 9.37554H468.932C469.268 9.37554 469.529 9.12273 469.529 8.83522V6.54508ZM454.032 22.6901H457.842C458.178 22.6901 458.44 22.9231 458.44 23.2304V25.015C458.44 25.3025 458.178 25.5553 457.842 25.5553H445.426C445.09 25.5553 444.828 25.3223 444.828 25.015V23.2304C444.828 22.9429 445.09 22.6901 445.426 22.6901H450.374V8.8724H445.967C445.631 8.8724 445.369 8.63942 445.369 8.33209V6.54508C445.369 6.25757 445.631 6.00476 445.967 6.00476H453.435C453.771 6.00476 454.032 6.23774 454.032 6.54508V22.6901ZM434.672 12.0994C435.38 11.4501 436.296 11.1799 437.566 11.1799C441.283 11.1799 443.448 13.5989 443.463 18.5213C443.463 23.4461 441.28 25.8626 437.658 25.8626C436.409 25.8626 435.568 25.5553 434.878 24.9431L434 24.1326L433.179 24.3135L433.497 26.4599V30.4652C433.497 30.7527 433.236 31.0055 432.9 31.0055H430.434C430.098 31.0055 429.837 30.7725 429.837 30.4652V11.9929C429.837 11.7053 430.098 11.4525 430.434 11.4525H432.115C432.397 11.4525 432.62 11.631 432.694 11.8664L432.992 12.9124H433.795L434.672 12.0994ZM433.477 20.2364C433.477 21.9862 434.503 22.9057 436.353 22.9057C438.613 22.9057 439.621 21.5351 439.639 18.489C439.639 15.4752 438.613 14.1045 436.353 14.1045C434.485 14.1045 433.477 15.0241 433.477 16.7739V20.2364ZM412.175 18.5039C412.175 13.5965 414.696 11.1799 419.401 11.1799C424.237 11.1799 426.571 13.6163 426.009 19.0467H415.797C415.946 21.9515 417.067 23.1957 419.419 23.1957C420.933 23.1957 422.051 22.6901 422.444 21.6268C422.536 21.4087 422.759 21.265 423.003 21.265H425.242C425.617 21.265 425.914 21.5897 425.822 21.9317C425.206 24.4028 422.89 25.8453 419.306 25.8453C414.676 25.8453 412.175 23.4287 412.175 18.5039ZM419.383 13.7253C417.367 13.7253 416.264 14.7167 415.91 16.8458H422.595C422.539 14.8258 421.53 13.7253 419.383 13.7253ZM404.053 12.895L404.895 12.0821C405.623 11.4327 406.724 11.1799 408.122 11.1997H410.025C410.361 11.1997 410.623 11.4327 410.623 11.74V13.7055C410.623 13.993 410.361 14.2458 410.025 14.2458H406.813C404.836 14.2458 403.827 15.1108 403.827 16.7714V22.6876H408.104C408.44 22.6876 408.701 22.9206 408.701 23.228V25.0125C408.701 25.3 408.44 25.5528 408.104 25.5528H396.473C396.137 25.5528 395.875 25.3198 395.875 25.0125V23.228C395.875 22.9404 396.137 22.6876 396.473 22.6876H400.169V14.3177H396.996C396.66 14.3177 396.398 14.0847 396.398 13.7774V11.9929C396.398 11.7053 396.66 11.4525 396.996 11.4525H402.373C402.655 11.4525 402.896 11.6136 402.953 11.8664L403.214 12.895H404.053Z" fill="url(#paint2_linear_18081_14687)"/>
<path fill-rule="evenodd" clip-rule="evenodd" d="M555.612 0.703915C557.613 3.01605 558.234 9.27889 557.202 12.4182C556.859 13.462 556.762 14.5649 556.96 15.6363C557.161 16.6998 557.363 17.9839 557.363 18.8779C557.363 28.0557 549.744 35.5 540.343 35.5C530.945 35.5 523.323 28.0596 523.323 18.8779C523.323 17.9839 523.524 16.6998 523.726 15.6363C523.928 14.5649 523.835 13.462 523.492 12.4182C522.46 9.2828 523.081 3.01998 525.081 0.703915C525.343 0.404558 525.831 0.443948 526.049 0.778752L528.513 4.55614C529.127 5.30847 530.224 5.48576 531.046 4.95794C533.72 3.24845 536.915 2.25584 540.347 2.25584C543.779 2.25584 546.973 3.24845 549.647 4.95794C550.474 5.48576 551.571 5.31242 552.18 4.55614L554.644 0.778752C554.862 0.443948 555.35 0.40062 555.612 0.703915ZM527.166 18.9174C527.166 26.0152 533.075 31.7898 540.343 31.7898C547.611 31.7898 553.523 26.0152 553.527 18.9213C553.527 18.6928 553.519 18.4605 553.507 18.232C553.245 13.399 550.236 9.26312 545.981 7.29368C544.271 6.49409 542.363 6.05294 540.347 6.05294C538.33 6.05294 536.419 6.49409 534.713 7.28977C530.457 9.25921 527.449 13.3911 527.187 18.2281C527.174 18.4565 527.166 18.685 527.166 18.9174ZM542.685 18.1664L546.052 23.87C546.121 23.9842 546.121 24.126 546.052 24.2363C545.988 24.3505 545.863 24.4214 545.726 24.4214H542.987C542.854 24.4214 542.729 24.3505 542.66 24.2363L540.862 21.1915L538.857 24.248C538.789 24.3544 538.668 24.4175 538.539 24.4175H535.76C535.618 24.4175 535.489 24.3425 535.425 24.2244C535.36 24.1062 535.364 23.9606 535.441 23.8464L539.148 18.3239L536.385 13.7903C536.316 13.676 536.312 13.5343 536.381 13.42C536.449 13.3018 536.574 13.2309 536.711 13.2309H539.47C539.603 13.2309 539.728 13.2979 539.797 13.4121L542.685 18.1664ZM573.06 9.35987H576.573V28.1719H573.06V20.1564H569.091V28.176H565.578V9.35987H569.091V17.5291H573.06V9.35987ZM586.677 24.2724L587.411 28.1797H590.944L586.882 9.36753H582.152L578.276 28.1797H581.789L582.462 24.2724H586.677ZM586.189 21.6765H582.922L584.511 12.6722L586.189 21.6765ZM598.769 24.7488V20.7233C598.769 20.4043 598.709 20.1916 598.588 20.0813C598.467 19.971 598.241 19.9159 597.914 19.9159H595.442C593.344 19.9159 592.296 18.9233 592.296 16.9341V12.3178C592.296 10.3483 593.393 9.36753 595.591 9.36753H598.951C601.149 9.36753 602.246 10.3522 602.246 12.3178V14.941H598.705V12.7944C598.705 12.4753 598.644 12.2626 598.523 12.1523C598.402 12.042 598.176 11.9869 597.85 11.9869H596.688C596.341 11.9869 596.107 12.042 595.986 12.1523C595.865 12.2626 595.805 12.4753 595.805 12.7944V16.5796C595.805 16.8987 595.865 17.1114 595.986 17.2217C596.107 17.332 596.341 17.3871 596.688 17.3871H599.1C601.237 17.3871 602.306 18.36 602.306 20.3098V25.2295C602.306 27.1989 601.197 28.1797 598.979 28.1797H595.68C593.462 28.1797 592.352 27.195 592.352 25.2295V22.6337H595.861V24.7488C595.861 25.0678 595.922 25.2807 596.043 25.391C596.164 25.5011 596.398 25.5564 596.745 25.5564H597.906C598.233 25.5564 598.454 25.5011 598.58 25.391C598.705 25.2807 598.769 25.0678 598.769 24.7488ZM615.187 9.35987H611.678V24.7452C611.678 25.0642 611.618 25.2769 611.497 25.3872C611.376 25.4975 611.142 25.5525 610.795 25.5525H609.178C608.851 25.5525 608.625 25.4975 608.505 25.3872C608.383 25.2769 608.323 25.0642 608.323 24.7452V9.35987H604.81V25.2218C604.81 27.1872 605.919 28.1719 608.137 28.1719H611.86C614.078 28.1719 615.187 27.1911 615.187 25.2218V9.35987ZM621.6 20.8417V28.176H618.09V9.35987H625.173C627.391 9.35987 628.5 10.3446 628.5 12.3101V17.8876C628.5 19.5183 627.758 20.4715 626.27 20.7511L629.476 28.176H625.689L622.757 20.8417H621.6ZM621.6 11.9832V18.3051H624.132C624.459 18.3051 624.681 18.25 624.806 18.1397C624.927 18.0294 624.987 17.8167 624.987 17.4976V12.7907C624.987 12.4716 624.927 12.2589 624.806 12.1486C624.685 12.0383 624.459 11.9832 624.132 11.9832H621.6ZM638.392 24.2724L639.126 28.1797H642.663L638.602 9.36753H633.871L629.995 28.1797H633.504L634.177 24.2724H638.392ZM637.908 21.6765H634.641L636.23 12.6722L637.908 21.6765Z" fill="url(#paint3_linear_18081_14687)"/>
<path d="M676.406 5.25V12.2625H683.666V5.25H676.406Z" fill="url(#paint4_linear_18081_14687)"/>
<path d="M683.666 14.8125H676.406V30.7499H683.666V14.8125Z" fill="url(#paint5_linear_18081_14687)"/>
<path d="M693.566 30.7499H686.306V5.25H693.566V30.7499Z" fill="url(#paint6_linear_18081_14687)"/>
<path d="M696.206 5.25V30.7499H703.466V5.25H696.206Z" fill="url(#paint7_linear_18081_14687)"/>
<path fill-rule="evenodd" clip-rule="evenodd" d="M719.306 5.25C726.597 5.25 732.506 10.9583 732.506 18V30.7499H725.246V29.3892C723.461 30.2596 721.443 30.7499 719.306 30.7499C712.016 30.7499 706.106 25.0416 706.106 18C706.106 10.9583 712.016 5.25 719.306 5.25ZM719.306 23.7375C722.587 23.7375 725.246 21.1687 725.246 18C725.246 14.8313 722.587 12.2625 719.306 12.2625C716.026 12.2625 713.366 14.8313 713.366 18C713.366 21.1687 716.026 23.7375 719.306 23.7375Z" fill="url(#paint8_linear_18081_14687)"/>
<path fill-rule="evenodd" clip-rule="evenodd" d="M833.762 4.09115L833.78 21.5585C833.78 24.4702 834.893 25.5111 837.828 25.5189C838.661 25.5189 840.176 25.3067 840.856 24.89V21.6481H838.609L838.601 7.13025V3.5L833.762 4.09115ZM804.461 14.8684H806.321L806.319 21.368C806.319 24.6099 808.205 25.6506 810.926 25.6506C812.745 25.6506 814.265 25.2938 815.687 24.4605L814.976 21.6305C814.172 21.8679 813.461 22.0471 812.75 22.0471C811.509 22.0471 811.019 21.6006 811.019 20.1134V14.8668H815.378L815.388 11.7129H811.022V7.26514L806.36 7.89403V11.7145H804.461V14.8684ZM797.345 10.97C792.854 10.97 789.586 13.7952 789.586 18.7021C789.586 23.2239 792.152 25.6325 796.79 25.6262C800.004 25.6262 802.57 24.8228 803.869 23.6043L802.822 20.6926C801.25 21.4963 799.5 21.9244 797.72 21.9409C794.938 21.9409 794.072 20.2493 794.072 18.1676C794.072 15.4005 795.742 14.509 797.133 14.509C797.782 14.509 798.339 14.5688 798.586 14.7464L799.328 16.7102L802.513 16.5011C802.851 15.835 803.019 15.1009 803.003 14.3597C803.003 11.5643 799.973 10.97 797.345 10.97ZM816.789 18.7864C816.789 14.1766 819.386 11.0227 824.673 11.0227C829.311 11.0227 831.69 13.5807 831.69 17.8053C831.69 22.9795 828.847 25.627 823.715 25.627C819.819 25.627 816.789 23.4857 816.789 18.7864ZM824.178 14.2945C822.38 14.2945 821.458 15.6041 821.458 18.2518C821.458 20.6007 822.045 22.4449 824.209 22.4449C826.372 22.4449 827.023 20.9575 827.023 18.31C827.023 15.9312 826.281 14.2945 824.178 14.2945ZM843.821 15.5185V11.3945H848.476C848.476 11.3945 848.459 12.0077 848.459 15.2795V25.1986H843.812C843.821 24.4628 843.821 16.8863 843.821 15.5185ZM843.39 6.98288C843.39 5.46569 844.625 4.60254 846.332 4.60254C847.722 4.60254 848.866 5.31632 848.866 6.83352C848.866 8.40574 847.784 9.3019 845.898 9.3019C844.344 9.29562 843.387 8.35228 843.387 6.98288H843.39ZM856.859 22.2678C855.406 22.2678 853.458 21.8527 852.097 20.7223L850.984 23.6577C852.097 24.9359 854.571 25.6796 857.013 25.6796C860.847 25.6796 863.444 23.8699 863.444 20.8057C863.444 17.6121 860.586 17.081 858.318 16.6596C856.827 16.3825 855.591 16.1529 855.591 15.2447C855.591 14.5309 856.333 14.2338 857.633 14.2338C858.652 14.2338 860.1 14.4115 861.898 15.1551L862.701 12.2402C861.094 11.0799 858.867 10.8724 857.57 10.8724C853.552 10.8724 851.51 12.8943 851.51 15.4224C851.51 17.9851 853.643 18.8184 855.684 19.353C855.773 19.3766 855.868 19.4012 855.967 19.427C857.246 19.7608 859.27 20.2887 859.27 21.227C859.27 21.9408 858.126 22.2678 856.859 22.2678ZM779.265 14.1263C780.373 14.1263 781.272 13.2619 781.272 12.1956C781.272 11.1293 780.373 10.2649 779.265 10.2649C778.156 10.2649 777.258 11.1293 777.258 12.1956C777.258 13.2619 778.156 14.1263 779.265 14.1263ZM778.594 5.0148C784.899 5.0148 788.302 8.43752 788.302 14.8632C788.302 20.1757 786.131 23.4789 782.384 24.8594C782.646 25.4592 782.845 26.0828 782.977 26.7209C783.062 27.2228 783.111 27.7297 783.123 28.238C783.14 28.6844 782.984 29.1211 782.687 29.4637C782.389 29.8063 781.969 30.0306 781.51 30.0933C781.24 30.1317 780.965 30.1134 780.703 30.0396C780.441 29.9658 780.199 29.8382 779.994 29.6658C779.788 29.4933 779.624 29.28 779.512 29.0406C779.401 28.8012 779.345 28.5413 779.348 28.2789C779.361 27.9508 779.341 27.6223 779.289 27.2979C779.016 25.9725 778.578 25.6329 777.952 25.6077H777.733C777.504 25.6077 777.28 25.6014 777.056 25.592C776.956 26.3759 776.795 27.1516 776.576 27.9126C776.099 29.7411 775.262 31.9422 774.138 31.7173C772.819 31.4548 771.335 30.5303 772.054 28.2301C772.144 27.9291 772.237 27.6388 772.325 27.3612C772.774 25.9617 773.117 24.8888 772.381 24.427L772.152 24.2949C771.51 23.8925 770.851 24.1456 770.085 25.2776C769.91 25.56 769.765 25.858 769.65 26.1674C769.551 26.4119 769.398 26.6327 769.202 26.8148C769.005 26.997 768.77 27.1359 768.513 27.2223C768.255 27.3086 767.981 27.3403 767.71 27.3151C767.439 27.2899 767.176 27.2084 766.94 27.0762C766.538 26.8529 766.236 26.4941 766.092 26.069C765.948 25.6439 765.974 25.1827 766.163 24.7745C766.371 24.3073 766.612 23.8545 766.885 23.4192C767.484 22.4973 768.261 21.6938 769.173 21.0514C768.46 19.594 768.076 17.7702 768.076 15.5486C768.076 8.76769 772.289 5.0148 778.594 5.0148ZM773.195 15.1038C773.195 19.0076 774.474 21.7998 778.22 21.7998C781.497 21.7998 783.214 19.8785 783.214 15.2546C783.214 11.0506 781.466 8.85887 778.282 8.85887C775.099 8.85887 773.195 11.016 773.195 15.1038Z" fill="url(#paint9_linear_18081_14687)"/>
<path fill-rule="evenodd" clip-rule="evenodd" d="M941.878 30.4988L941.545 31.6146C941.51 31.7286 941.437 31.8283 941.337 31.8988C941.238 31.9693 941.117 32.0068 940.994 32.0056H897.561C897.45 32.0051 897.344 31.9663 897.261 31.8961C897.178 31.8259 897.124 31.7292 897.109 31.6236C896.902 30.2866 896.991 28.9223 897.37 27.6211C897.75 26.3198 898.412 25.1114 899.311 24.0757C900.211 23.0401 901.328 22.2009 902.589 21.6138C903.85 21.0266 905.225 20.7049 906.625 20.67C906.272 19.3247 906.36 17.907 906.875 16.6115C907.39 15.316 908.307 14.2062 909.501 13.4345C910.695 12.6628 912.107 12.2669 913.543 12.3012C914.98 12.3355 916.37 12.7984 917.523 13.6262C918.609 10.5431 920.708 7.88727 923.502 6.06315C926.295 4.23903 929.629 3.34655 932.996 3.5216C936.362 3.69665 939.578 4.92964 942.152 7.03283C944.726 9.13602 946.519 11.9942 947.256 15.1721C947.267 15.2257 947.273 15.28 947.275 15.3345C947.276 15.4373 947.257 15.5394 947.219 15.6353L945.867 19.0519C944.799 21.7467 941.735 23.9543 938.933 24.0776L915.187 24.3784C915.066 24.3866 914.949 24.4292 914.852 24.5008C914.755 24.5725 914.683 24.67 914.643 24.7814C914.616 24.8479 914.606 24.9196 914.615 24.9904C914.623 25.0612 914.649 25.1291 914.69 25.1882C914.731 25.2473 914.787 25.2958 914.852 25.3297C914.917 25.3636 914.989 25.3819 915.063 25.3829L938.581 25.6716C939.823 25.7288 940.839 26.216 941.461 27.0461C942.128 27.9484 942.274 29.1725 941.878 30.4988ZM948.742 15.9076C948.97 15.8955 949.188 15.8895 949.396 15.8895H949.402C951.387 15.8919 953.345 16.3377 955.122 17.1921C956.899 18.0464 958.448 19.2863 959.646 20.8146C960.845 22.343 961.662 24.1184 962.032 26.0021C962.403 27.8859 962.317 29.8269 961.782 31.6734C961.755 31.7758 961.693 31.8665 961.606 31.9304C961.519 31.9943 961.412 32.0278 961.303 32.0253H943.358C943.314 32.0229 943.271 32.0105 943.233 31.9891C943.195 31.9677 943.163 31.9379 943.139 31.9021C943.115 31.8664 943.1 31.8257 943.095 31.7833C943.091 31.7409 943.096 31.6981 943.112 31.6583L943.489 30.7079C944.557 28.0161 947.605 25.8116 950.436 25.6853L955.645 25.3845C955.767 25.3763 955.883 25.3337 955.98 25.262C956.077 25.1904 956.15 25.0928 956.19 24.9815C956.216 24.9137 956.225 24.8409 956.215 24.7692C956.206 24.6975 956.179 24.629 956.137 24.5694C956.097 24.5137 956.044 24.4678 955.983 24.4354C955.921 24.403 955.852 24.385 955.782 24.383L950.766 24.0822C950.209 24.0817 949.66 23.9574 949.161 23.7191C948.662 23.4807 948.227 23.1347 947.889 22.7077C947.219 21.8055 947.073 20.5814 947.471 19.255L948.406 16.1692C948.422 16.1134 948.451 16.0623 948.493 16.0203C948.534 15.9783 948.585 15.9468 948.642 15.9286C948.674 15.9156 948.708 15.9085 948.742 15.9076ZM982.016 21.4623H984.983V29.3001H990.174V31.8114H982.016V21.4623ZM993.254 26.6508V26.6778C993.254 29.6403 995.714 32.0314 999.008 32.0314C1002.3 32.0314 1004.79 29.6223 1004.79 26.6508V26.6207C1004.79 23.6492 1002.33 21.2672 999.039 21.2672C995.745 21.2672 993.254 23.6793 993.254 26.6508ZM1001.76 26.6508V26.6778C1001.76 28.1726 1000.66 29.4448 999.039 29.4448C997.417 29.4448 996.299 28.1546 996.299 26.6508V26.6207C996.299 25.1259 997.37 23.8567 999.008 23.8567C1000.65 23.8567 1001.76 25.147 1001.76 26.6508ZM1008.42 27.2792V21.4625H1011.44V27.213C1011.44 28.7168 1012.21 29.4176 1013.41 29.4176C1014.6 29.4176 1015.38 28.7379 1015.38 27.2882V21.4625H1018.4V27.198C1018.4 30.5394 1016.42 32.0101 1013.38 32.0101C1010.33 32.0101 1008.42 30.5063 1008.42 27.2792ZM1027.08 21.4623H1022.95V31.8084H1027.02C1030.88 31.8084 1033.13 29.5918 1033.13 26.6053V26.5752C1033.13 23.5917 1030.91 21.4623 1027.08 21.4623ZM1030.08 26.6624C1030.08 28.3346 1028.9 29.282 1027.13 29.282L1025.91 29.27V24.0157H1027.13C1028.9 24.0157 1030.08 24.9782 1030.08 26.6353V26.6624ZM1037.44 21.4623H1046.01V23.9766H1040.41V25.7361H1045.48V28.1151H1040.41V31.8114H1037.44V21.4623ZM1053.11 21.4623H1050.14V31.8114H1058.3V29.3001H1053.11V21.4623ZM1066.09 21.3871H1068.95L1073.5 31.8084H1070.32L1069.54 29.9617H1065.4L1064.64 31.8084H1061.52L1066.09 21.3871ZM1068.69 27.7271L1067.5 24.7857L1066.27 27.7271H1068.69ZM1082.38 21.4623H1077.32V31.8114H1080.29V28.6775H1081.59L1083.75 31.8114H1087.17L1084.62 28.2023C1085.28 27.9629 1085.86 27.527 1086.25 26.9564C1086.65 26.3859 1086.85 25.7096 1086.82 25.0233V24.9932C1086.85 24.5505 1086.77 24.108 1086.61 23.6938C1086.45 23.2796 1086.2 22.9028 1085.87 22.5871C1085.15 21.8773 1084.02 21.4623 1082.38 21.4623ZM1083.84 25.2037C1083.84 25.9556 1083.26 26.4308 1082.25 26.4308H1080.29V23.9466H1082.23C1083.22 23.9466 1083.84 24.3586 1083.84 25.1736V25.2037ZM1091.11 21.4625H1099.73V23.9017H1094.05V25.4686H1099.19V27.7303H1094.05V29.3725H1099.8V31.8116H1091.11V21.4625ZM974.534 29.0137C974.972 28.7372 975.313 28.3413 975.516 27.8763L978.652 27.8884C978.07 30.2584 975.859 32.0268 973.032 32.0268C969.725 32.0268 967.277 29.6448 967.277 26.6733V26.6432C967.277 23.6657 969.756 21.2596 973.063 21.2596C975.968 21.2596 978.207 23.0913 978.692 25.5545H975.579C975.39 25.049 975.044 24.6124 974.588 24.3049C974.131 23.9973 973.588 23.8339 973.032 23.8371C971.409 23.8371 970.323 25.1003 970.323 26.6041V26.6342C970.323 28.126 971.437 29.4283 973.063 29.4283C973.585 29.4344 974.097 29.2901 974.534 29.0137Z" fill="url(#paint10_linear_18081_14687)"/>
<path d="M1200.4 13.8574C1198.71 13.8574 1197.31 14.2396 1196.24 14.9785C1195.14 15.7174 1194.55 16.762 1194.36 18.0869H1196.64C1196.78 17.399 1197.2 16.8385 1197.85 16.4308C1198.46 16.0231 1199.3 15.8193 1200.26 15.8193C1201.39 15.8193 1202.25 16.0486 1202.89 16.5582C1203.51 17.0678 1203.8 17.7557 1203.8 18.622V19.5393H1199.62C1197.74 19.5393 1196.35 19.9215 1195.38 20.6349C1194.39 21.3482 1193.91 22.4184 1193.91 23.7688C1193.91 24.9917 1194.39 25.9345 1195.35 26.6479C1196.29 27.3613 1197.55 27.7181 1199.14 27.7181C1201.2 27.7181 1202.78 26.9537 1203.91 25.4504L1204.1 27.5652H1206.08V18.7749C1206.08 17.2207 1205.57 15.9977 1204.61 15.1568C1203.61 14.2906 1202.19 13.8574 1200.4 13.8574ZM1203.83 22.0362C1203.83 23.1828 1203.43 24.1 1202.62 24.788C1201.82 25.5014 1200.72 25.858 1199.32 25.858C1198.38 25.858 1197.63 25.6542 1197.07 25.2465C1196.51 24.8389 1196.24 24.3039 1196.24 23.6413C1196.24 22.1382 1197.31 21.3992 1199.43 21.3992H1203.83V22.0362Z" fill="#C9CBCF"/>
<path d="M1210.9 8.81738C1210.47 8.81738 1210.12 8.94477 1209.82 9.22504C1209.53 9.50531 1209.39 9.83654 1209.39 10.2442C1209.39 10.6519 1209.53 10.9831 1209.82 11.2634C1210.12 11.5436 1210.47 11.671 1210.9 11.671C1211.33 11.671 1211.67 11.5436 1211.97 11.2634C1212.26 10.9831 1212.4 10.6519 1212.4 10.2442C1212.4 9.83654 1212.26 9.50531 1211.97 9.22504C1211.67 8.94477 1211.3 8.81738 1210.9 8.81738Z" fill="#C9CBCF"/>
<path d="M1207.5 16.025H1209.76V27.5415H1212.04V14.0376H1207.5V16.025Z" fill="#C9CBCF"/>
<path d="M1235.18 14.703C1234.16 14.1425 1232.95 13.8877 1231.64 13.8877C1229.58 13.8877 1227.97 14.6521 1226.76 16.2063L1226.46 14.0406H1224.48V32.8441H1226.76V25.4807C1227.24 26.1686 1227.89 26.7037 1228.69 27.0859C1229.49 27.4936 1230.51 27.6973 1231.64 27.6973C1232.95 27.6973 1234.13 27.4171 1235.15 26.831C1236.17 26.2451 1237 25.4298 1237.59 24.3851C1238.18 23.3405 1238.45 22.1429 1238.45 20.7925C1238.45 19.3657 1238.18 18.1173 1237.59 17.0726C1237 16.0534 1236.2 15.2381 1235.18 14.703ZM1234.86 24.3596C1234 25.2769 1232.85 25.761 1231.43 25.761C1230.51 25.761 1229.71 25.5571 1229.01 25.124C1228.29 24.6908 1227.73 24.0794 1227.35 23.315C1226.95 22.5505 1226.76 21.7098 1226.76 20.7161C1226.76 19.7734 1226.95 18.9071 1227.35 18.1427C1227.75 17.4038 1228.29 16.8178 1229.01 16.3847C1229.71 15.977 1230.51 15.7732 1231.43 15.7732C1232.85 15.7732 1234 16.2318 1234.86 17.149C1235.72 18.0663 1236.15 19.2892 1236.15 20.7416C1236.15 22.2449 1235.72 23.4424 1234.86 24.3596Z" fill="#C9CBCF"/>
<path d="M1215.18 16.6619V27.5415H1217.46V16.025H1222.4V14.0376H1217.95C1216.42 14.0376 1215.18 15.1842 1215.18 16.6619Z" fill="#C9CBCF"/>
<path d="M1243.38 8.99756H1241.11V27.5463H1243.38V8.99756Z" fill="#C9CBCF"/>
<path d="M1252.45 13.8574C1250.76 13.8574 1249.37 14.2396 1248.29 14.9785C1247.19 15.7174 1246.6 16.762 1246.42 18.0869H1248.7C1248.83 17.399 1249.26 16.8385 1249.9 16.4308C1250.52 16.0231 1251.35 15.8193 1252.32 15.8193C1253.44 15.8193 1254.3 16.0486 1254.94 16.5582C1255.56 17.0678 1255.86 17.7557 1255.86 18.622V19.5393H1251.67C1249.8 19.5393 1248.4 19.9215 1247.44 20.6349C1246.44 21.3482 1245.96 22.4184 1245.96 23.7688C1245.96 24.9917 1246.44 25.9345 1247.41 26.6479C1248.35 27.3613 1249.61 27.7181 1251.19 27.7181C1253.25 27.7181 1254.84 26.9537 1255.96 25.4504L1256.15 27.5652H1258.14V18.7749C1258.14 17.2207 1257.63 15.9977 1256.66 15.1568C1255.67 14.2906 1254.25 13.8574 1252.45 13.8574ZM1255.88 22.0362C1255.88 23.1828 1255.48 24.1 1254.68 24.788C1253.87 25.5014 1252.77 25.858 1251.38 25.858C1250.44 25.858 1249.69 25.6542 1249.13 25.2465C1248.56 24.8389 1248.29 24.3039 1248.29 23.6413C1248.29 22.1382 1249.37 21.3992 1251.48 21.3992H1255.88V22.0362Z" fill="#C9CBCF"/>
<path d="M1268.03 13.8572C1266 13.8572 1264.44 14.5196 1263.34 15.8446L1263.05 14.01H1261.06V27.5139H1263.34V20.762C1263.34 19.2587 1263.74 18.0358 1264.49 17.1695C1265.25 16.3032 1266.32 15.8446 1267.63 15.8446C1268.89 15.8446 1269.83 16.2267 1270.5 16.9401C1271.15 17.679 1271.47 18.7492 1271.47 20.1505V27.5394H1273.75V20.0231C1273.75 17.9083 1273.21 16.3287 1272.19 15.3604C1271.17 14.3668 1269.78 13.8572 1268.03 13.8572Z" fill="#C9CBCF"/>
<path d="M1289.65 21.2003C1289.67 20.7671 1289.7 20.4613 1289.7 20.283C1289.67 18.9835 1289.38 17.837 1288.79 16.8688C1288.2 15.9006 1287.42 15.1362 1286.43 14.6521C1285.44 14.1425 1284.28 13.8877 1282.97 13.8877C1281.66 13.8877 1280.48 14.168 1279.46 14.7285C1278.44 15.3145 1277.63 16.1299 1277.1 17.1745C1276.51 18.2192 1276.24 19.4167 1276.24 20.7925C1276.24 22.1429 1276.53 23.3659 1277.12 24.3851C1277.71 25.4552 1278.52 26.2705 1279.56 26.831C1280.64 27.4171 1281.84 27.6973 1283.26 27.6973C1284.87 27.6973 1286.24 27.2387 1287.37 26.3724C1288.49 25.5062 1289.19 24.3851 1289.46 23.0092H1287.15C1286.91 23.8755 1286.43 24.538 1285.73 25.0221C1285.01 25.5316 1284.15 25.761 1283.1 25.761C1281.79 25.761 1280.72 25.3533 1279.89 24.5635C1279.08 23.7736 1278.62 22.7034 1278.6 21.3786V21.2003H1289.65ZM1280.13 16.7923C1280.93 16.1299 1281.87 15.7732 1282.97 15.7732C1284.18 15.7732 1285.17 16.0789 1285.97 16.7159C1286.75 17.3528 1287.21 18.2446 1287.31 19.3912H1278.73C1278.84 18.321 1279.32 17.4548 1280.13 16.7923Z" fill="#C9CBCF"/>
<path fill-rule="evenodd" clip-rule="evenodd" d="M1151 0.5L1162.57 0.503453C1163.45 0.503453 1164.25 0.988697 1164.62 1.74762C1167.01 6.64324 1175.81 24.6648 1179.36 31.932C1179.69 32.5995 1179.63 33.3803 1179.22 34.0018C1178.8 34.6233 1178.09 34.9999 1177.31 34.9999H1172.29C1170.61 34.9999 1169.01 34.3301 1167.87 33.1532C1166.9 32.1585 1165.76 30.9748 1164.98 30.1739C1164.42 29.5851 1163.61 29.2505 1162.78 29.2505C1160.67 29.2505 1152.76 29.2476 1150.61 29.2476C1149.77 29.2476 1148.97 29.5823 1148.4 30.171C1147.63 30.9719 1146.48 32.1551 1145.52 33.1497C1144.38 34.3272 1142.78 34.9965 1141.1 34.9965H1136.26C1135.49 34.9965 1134.77 34.6199 1134.35 33.9984C1133.94 33.3768 1133.89 32.5967 1134.21 31.9286C1137.76 24.6613 1146.56 6.6398 1148.95 1.74417C1149.33 0.985251 1150.12 0.5 1151 0.5ZM1158.15 4.09395C1161.06 10.2021 1167.73 24.248 1169.51 28.3518C1169.57 28.4996 1169.55 28.6675 1169.46 28.7992C1169.37 28.9314 1169.21 29.0107 1169.05 29.0107H1166.78C1165.85 29.0107 1164.98 28.6049 1164.41 27.9103C1163.48 26.7759 1162.03 25.0172 1161.1 23.8823C1160.53 23.1878 1159.66 22.7824 1158.73 22.7824C1158.27 22.7824 1157.53 22.7816 1156.79 22.7807C1156.04 22.7798 1155.3 22.7789 1154.84 22.7789C1153.91 22.7789 1153.04 23.1849 1152.47 23.8794L1149.16 27.9069C1148.59 28.602 1147.72 29.0073 1146.8 29.0073H1144.52C1144.36 29.0073 1144.2 28.9285 1144.11 28.7963C1144.02 28.6641 1144 28.4962 1144.06 28.3484C1145.84 24.2445 1152.51 10.2016 1155.41 4.09395C1155.66 3.57996 1156.19 3.24994 1156.78 3.24994C1157.37 3.24994 1157.91 3.57996 1158.15 4.09395Z" fill="#C9CBCF"/>
<path fill-rule="evenodd" clip-rule="evenodd" d="M1338.99 4.54416C1337.12 5.09081 1335.37 5.99462 1333.87 7.20219C1333.24 6.16322 1332.23 5.38407 1331.05 5.01249C1332.92 3.38529 1335.12 2.15109 1337.51 1.38783C1339.91 0.624604 1342.44 0.348945 1344.94 0.57836C1347.45 0.807732 1349.88 1.53712 1352.08 2.72045C1352.64 3.01987 1353.18 3.3467 1353.7 3.69927C1353.72 3.69184 1353.73 3.68453 1353.75 3.67736C1354.43 3.40773 1355.17 3.3372 1355.88 3.4747C1356.6 3.61224 1357.26 3.95161 1357.77 4.44991C1358.29 4.94821 1358.64 5.58309 1358.78 6.27424C1358.92 6.96539 1358.85 7.68179 1358.57 8.33277C1358.29 8.98379 1357.82 9.54017 1357.21 9.9316C1356.61 10.3231 1355.89 10.5319 1355.16 10.5318C1354.68 10.5318 1354.2 10.4397 1353.75 10.2606C1353.3 10.0815 1352.9 9.81913 1352.55 9.4883C1352.21 9.15742 1351.94 8.76468 1351.76 8.33242C1351.57 7.90016 1351.47 7.43689 1351.47 6.96904C1351.47 6.78631 1351.49 6.60463 1351.52 6.42555C1351.13 6.16934 1350.73 5.93073 1350.32 5.71073C1348.61 4.79491 1346.72 4.21979 1344.78 4.01946C1342.83 3.81909 1340.86 3.9975 1338.99 4.54416ZM1333.18 9.67679C1333.18 10.3476 1332.98 11.004 1332.61 11.5709L1333.37 12.8343C1332.63 13.6769 1331.63 14.256 1330.51 14.478L1329.76 13.2291C1329.43 13.2531 1329.1 13.2339 1328.77 13.1707C1328.05 13.0333 1327.4 12.694 1326.88 12.1959C1326.36 11.6978 1326.01 11.063 1325.87 10.372C1325.73 9.68106 1325.8 8.96479 1326.08 8.31385C1326.36 7.66292 1326.83 7.10654 1327.44 6.71503C1328.05 6.32356 1328.76 6.11456 1329.49 6.11443C1329.97 6.11438 1330.45 6.20648 1330.9 6.38547C1331.35 6.56446 1331.75 6.82687 1332.1 7.15767C1332.44 7.48846 1332.71 7.8812 1332.9 8.31341C1333.08 8.74567 1333.18 9.20894 1333.18 9.67679ZM1330.51 14.4781L1336.87 25.1018L1338.79 28.3095L1340.71 25.1018L1343.1 21.1024L1345.48 25.0874L1347.4 28.2942L1349.32 25.0869L1352.53 19.7043H1357.78C1357.85 19.1718 1357.88 18.6363 1357.88 18.1004C1357.88 17.5645 1357.85 17.029 1357.78 16.4965H1350.61L1350.28 17.054L1347.4 21.8777L1345.01 17.8922L1343.1 14.6844L1341.18 17.8927L1338.79 21.892L1333.37 12.8344C1332.63 13.677 1331.63 14.2561 1330.51 14.4781ZM1357.88 18.1001C1357.88 18.636 1357.85 19.1715 1357.78 19.704H1361.31V16.4962H1357.78C1357.85 17.0287 1357.88 17.5642 1357.88 18.1001ZM1361.31 16.4965H1361.37C1361.42 17.0247 1361.44 17.5597 1361.44 18.1004C1361.44 27.8196 1353.29 35.6999 1343.22 35.6999C1333.16 35.6999 1325 27.8206 1325 18.1013C1325 16.3786 1325.26 14.665 1325.77 13.0157C1326.62 13.8933 1327.76 14.4411 1329 14.5553C1328.73 15.6871 1328.56 17.0026 1328.56 18.1004C1328.56 25.9173 1335.12 32.2575 1343.22 32.2575C1350.76 32.2575 1356.96 26.7675 1357.79 19.7043H1361.31V16.4965Z" fill="#C9CBCF"/>
<path d="M1380.13 23.86L1377.23 11.7986H1379.59L1380.83 17.5874L1381.6 21.2853H1381.65L1382.54 17.5874L1383.98 11.7986H1386.59L1388.02 17.5874L1388.9 21.2853H1388.95L1389.74 17.5874L1391.01 11.7986H1393.26L1390.27 23.86H1387.61L1386.02 17.4837L1385.25 14.3042H1385.21L1384.41 17.4837L1382.81 23.86H1380.13Z" fill="#C9CBCF"/>
<path d="M1400.57 22.3567H1400.48C1400.39 22.5871 1400.28 22.806 1400.14 23.0133C1400.01 23.2092 1399.83 23.3877 1399.62 23.549C1399.41 23.7103 1399.16 23.837 1398.87 23.9292C1398.58 24.0213 1398.25 24.0674 1397.86 24.0674C1396.9 24.0674 1396.16 23.7621 1395.65 23.1516C1395.13 22.541 1394.88 21.6712 1394.88 20.5423V14.8399H1397.17V20.3176C1397.17 20.9397 1397.29 21.4178 1397.54 21.7519C1397.79 22.0744 1398.19 22.2357 1398.74 22.2357C1398.97 22.2357 1399.19 22.2069 1399.4 22.1493C1399.63 22.0917 1399.83 22.0053 1399.99 21.8901C1400.16 21.7634 1400.3 21.6136 1400.4 21.4408C1400.51 21.2565 1400.57 21.0434 1400.57 20.8015V14.8399H1402.86V23.86H1400.57V22.3567Z" fill="#C9CBCF"/>
<path d="M1405.5 23.86V14.8399H1407.79V16.3433H1407.88C1408.07 15.8594 1408.37 15.4562 1408.78 15.1337C1409.19 14.7996 1409.77 14.6325 1410.49 14.6325C1411.46 14.6325 1412.2 14.9378 1412.71 15.5484C1413.22 16.1589 1413.48 17.0287 1413.48 18.1577V23.86H1411.19V18.3823C1411.19 17.7372 1411.07 17.2533 1410.83 16.9308C1410.59 16.6082 1410.2 16.4469 1409.65 16.4469C1409.41 16.4469 1409.18 16.4815 1408.95 16.5506C1408.74 16.6082 1408.54 16.7004 1408.36 16.8271C1408.2 16.9423 1408.06 17.0921 1407.95 17.2764C1407.84 17.4492 1407.79 17.6565 1407.79 17.8985V23.86H1405.5Z" fill="#C9CBCF"/>
<path d="M1421.82 22.3567H1421.73C1421.56 22.8751 1421.24 23.2898 1420.78 23.6008C1420.31 23.9119 1419.77 24.0674 1419.15 24.0674C1417.97 24.0674 1417.06 23.6584 1416.43 22.8405C1415.81 22.0226 1415.5 20.8533 1415.5 19.3327C1415.5 17.8236 1415.81 16.6658 1416.43 15.8594C1417.06 15.0415 1417.97 14.6325 1419.15 14.6325C1419.77 14.6325 1420.31 14.7881 1420.78 15.0991C1421.24 15.3986 1421.56 15.8076 1421.73 16.326H1421.82V11.0729H1424.1V23.86H1421.82V22.3567ZM1419.88 22.2357C1420.43 22.2357 1420.89 22.109 1421.26 21.8556C1421.63 21.6021 1421.82 21.2392 1421.82 20.7669V17.8985C1421.82 17.4607 1421.63 17.1093 1421.26 16.8444C1420.89 16.5794 1420.43 16.4469 1419.88 16.4469C1419.29 16.4469 1418.8 16.6428 1418.43 17.0345C1418.08 17.4146 1417.9 17.9273 1417.9 18.5724V20.1276C1417.9 20.7727 1418.08 21.2853 1418.43 21.6655C1418.8 22.0456 1419.29 22.2357 1419.88 22.2357Z" fill="#C9CBCF"/>
<path d="M1430.52 24.0674C1429.83 24.0674 1429.21 23.958 1428.66 23.7391C1428.12 23.5087 1427.66 23.1919 1427.28 22.7887C1426.91 22.374 1426.63 21.8786 1426.42 21.3026C1426.22 20.7151 1426.12 20.0584 1426.12 19.3327C1426.12 18.6185 1426.21 17.9733 1426.41 17.3973C1426.61 16.8213 1426.89 16.3317 1427.26 15.9285C1427.63 15.5138 1428.09 15.197 1428.62 14.9781C1429.16 14.7477 1429.77 14.6325 1430.45 14.6325C1431.18 14.6325 1431.81 14.7535 1432.35 14.9954C1432.88 15.2373 1433.32 15.5657 1433.67 15.9804C1434.01 16.3951 1434.27 16.8789 1434.44 17.4319C1434.62 17.9733 1434.71 18.5551 1434.71 19.1772V19.9029H1428.5V20.1276C1428.5 20.7842 1428.69 21.3141 1429.07 21.7173C1429.45 22.109 1430.02 22.3048 1430.77 22.3048C1431.34 22.3048 1431.81 22.1896 1432.17 21.9592C1432.54 21.7288 1432.86 21.4351 1433.15 21.078L1434.38 22.4085C1434 22.9269 1433.48 23.3359 1432.81 23.6354C1432.15 23.9234 1431.39 24.0674 1430.52 24.0674ZM1430.48 16.2914C1429.88 16.2914 1429.39 16.4873 1429.04 16.8789C1428.68 17.2706 1428.5 17.7775 1428.5 18.3996V18.5378H1432.33V18.3823C1432.33 17.7602 1432.17 17.2591 1431.84 16.8789C1431.53 16.4873 1431.08 16.2914 1430.48 16.2914Z" fill="#C9CBCF"/>
<path d="M1436.72 23.86V14.8399H1439.01V16.7061H1439.1C1439.16 16.4642 1439.25 16.2338 1439.37 16.0149C1439.5 15.7845 1439.67 15.5829 1439.87 15.4101C1440.07 15.2373 1440.31 15.0991 1440.59 14.9954C1440.87 14.8917 1441.2 14.8399 1441.57 14.8399H1442.07V16.9308H1441.35C1440.58 16.9308 1440 17.0402 1439.6 17.2591C1439.21 17.478 1439.01 17.8351 1439.01 18.3305V23.86H1436.72Z" fill="#C9CBCF"/>
<path d="M1452.02 21.9938H1451.95C1451.84 22.5813 1451.5 23.0767 1450.93 23.4799C1450.37 23.8716 1449.62 24.0674 1448.68 24.0674C1447.94 24.0674 1447.25 23.9349 1446.62 23.67C1446 23.405 1445.46 23.0133 1444.99 22.4949C1444.54 21.965 1444.18 21.3141 1443.92 20.5423C1443.66 19.7704 1443.53 18.8776 1443.53 17.8639C1443.53 16.8501 1443.66 15.9573 1443.92 15.1855C1444.19 14.4021 1444.58 13.7455 1445.06 13.2156C1445.55 12.6857 1446.14 12.2825 1446.82 12.006C1447.5 11.7295 1448.25 11.5913 1449.09 11.5913C1450.21 11.5913 1451.16 11.8274 1451.95 12.2997C1452.74 12.7721 1453.36 13.4517 1453.81 14.3388L1451.9 15.4274C1451.67 14.909 1451.33 14.477 1450.88 14.1314C1450.44 13.7858 1449.84 13.613 1449.09 13.613C1448.16 13.613 1447.41 13.8895 1446.85 14.4425C1446.3 14.9839 1446.03 15.7903 1446.03 16.8617V18.797C1446.03 19.8568 1446.31 20.6632 1446.87 21.2162C1447.43 21.7692 1448.18 22.0456 1449.13 22.0456C1449.49 22.0456 1449.84 22.0053 1450.16 21.9247C1450.48 21.8325 1450.77 21.7 1451 21.5272C1451.24 21.3544 1451.43 21.1413 1451.58 20.8879C1451.72 20.6344 1451.79 20.3349 1451.79 19.9893V19.2117H1449.34V17.2937H1454.06V23.86H1452.02V21.9938Z" fill="#C9CBCF"/>
<path d="M1456.66 23.86V14.8399H1458.95V16.7061H1459.03C1459.09 16.4642 1459.18 16.2338 1459.3 16.0149C1459.43 15.7845 1459.6 15.5829 1459.8 15.4101C1460.01 15.2373 1460.25 15.0991 1460.52 14.9954C1460.81 14.8917 1461.13 14.8399 1461.5 14.8399H1462V16.9308H1461.29C1460.51 16.9308 1459.93 17.0402 1459.54 17.2591C1459.14 17.478 1458.95 17.8351 1458.95 18.3305V23.86H1456.66Z" fill="#C9CBCF"/>
<path d="M1470.36 23.86C1469.86 23.86 1469.46 23.7218 1469.16 23.4453C1468.87 23.1573 1468.69 22.7772 1468.62 22.3048H1468.51C1468.36 22.8924 1468.04 23.3359 1467.57 23.6354C1467.09 23.9234 1466.5 24.0674 1465.79 24.0674C1464.84 24.0674 1464.11 23.8255 1463.59 23.3416C1463.08 22.8578 1462.82 22.2127 1462.82 21.4063C1462.82 20.4732 1463.17 19.782 1463.86 19.3327C1464.55 18.8719 1465.54 18.6415 1466.81 18.6415H1468.41V17.9849C1468.41 17.478 1468.27 17.0863 1467.99 16.8098C1467.72 16.5333 1467.28 16.3951 1466.67 16.3951C1466.13 16.3951 1465.7 16.5103 1465.36 16.7407C1465.04 16.9596 1464.77 17.2245 1464.54 17.5356L1463.18 16.3605C1463.53 15.8421 1463.99 15.4274 1464.56 15.1164C1465.13 14.7938 1465.89 14.6325 1466.83 14.6325C1468.1 14.6325 1469.06 14.909 1469.71 15.462C1470.37 16.0149 1470.7 16.8098 1470.7 17.8466V22.0975H1471.63V23.86H1470.36ZM1466.56 22.4604C1467.08 22.4604 1467.51 22.3509 1467.87 22.132C1468.23 21.9132 1468.41 21.5906 1468.41 21.1644V19.972H1466.94C1465.75 19.972 1465.15 20.3407 1465.15 21.078V21.3717C1465.15 21.7404 1465.27 22.0168 1465.51 22.2012C1465.76 22.374 1466.11 22.4604 1466.56 22.4604Z" fill="#C9CBCF"/>
<path d="M1473.48 14.8399H1475.77V16.326H1475.84C1476.01 15.8076 1476.32 15.3986 1476.79 15.0991C1477.25 14.7881 1477.8 14.6325 1478.42 14.6325C1479.61 14.6325 1480.52 15.0415 1481.14 15.8594C1481.77 16.6658 1482.08 17.8236 1482.08 19.3327C1482.08 20.8533 1481.77 22.0226 1481.14 22.8405C1480.52 23.6584 1479.61 24.0674 1478.42 24.0674C1477.8 24.0674 1477.25 23.9119 1476.79 23.6008C1476.34 23.2898 1476.02 22.8751 1475.84 22.3567H1475.77V27.316H1473.48V14.8399ZM1477.68 22.2357C1478.28 22.2357 1478.76 22.0456 1479.13 21.6655C1479.5 21.2853 1479.69 20.7727 1479.69 20.1276V18.5724C1479.69 17.9273 1479.5 17.4146 1479.13 17.0345C1478.76 16.6428 1478.28 16.4469 1477.68 16.4469C1477.14 16.4469 1476.68 16.5794 1476.31 16.8444C1475.95 17.1093 1475.77 17.4607 1475.77 17.8985V20.7669C1475.77 21.2392 1475.95 21.6021 1476.31 21.8556C1476.68 22.109 1477.14 22.2357 1477.68 22.2357Z" fill="#C9CBCF"/>
<path d="M1484.21 11.0729H1486.5V16.3433H1486.59C1486.78 15.8594 1487.07 15.4562 1487.48 15.1337C1487.9 14.7996 1488.47 14.6325 1489.2 14.6325C1490.16 14.6325 1490.9 14.9378 1491.42 15.5484C1491.93 16.1589 1492.19 17.0287 1492.19 18.1577V23.86H1489.9V18.3823C1489.9 17.7372 1489.78 17.2533 1489.54 16.9308C1489.3 16.6082 1488.91 16.4469 1488.36 16.4469C1488.12 16.4469 1487.89 16.4815 1487.66 16.5506C1487.44 16.6082 1487.25 16.7004 1487.07 16.8271C1486.9 16.9423 1486.76 17.0921 1486.66 17.2764C1486.55 17.4492 1486.5 17.6565 1486.5 17.8985V23.86H1484.21V11.0729Z" fill="#C9CBCF"/>
<path d="M1553.6 24.1571C1553.6 25.851 1552.18 27.2243 1550.43 27.2243C1548.68 27.2243 1547.26 25.851 1547.26 24.1571C1547.26 22.4631 1548.68 21.0898 1550.43 21.0898C1552.18 21.0898 1553.6 22.4631 1553.6 24.1571Z" fill="#C9CBCF"/>
<path d="M1553.6 11.0921C1553.6 12.7861 1552.18 14.1593 1550.43 14.1593C1548.68 14.1593 1547.26 12.7861 1547.26 11.0921C1547.26 9.39814 1548.68 8.0249 1550.43 8.0249C1552.18 8.0249 1553.6 9.39814 1553.6 11.0921Z" fill="#C9CBCF"/>
<path d="M1560.33 17.6243C1560.33 19.3183 1558.91 20.6915 1557.16 20.6915C1555.41 20.6915 1553.99 19.3183 1553.99 17.6243C1553.99 15.9304 1555.41 14.5571 1557.16 14.5571C1558.91 14.5571 1560.33 15.9304 1560.33 17.6243ZM1554.65 17.6243C1554.65 18.9642 1555.77 20.0504 1557.16 20.0504C1558.54 20.0504 1559.67 18.9642 1559.67 17.6243C1559.67 16.2845 1558.54 15.1982 1557.16 15.1982C1555.77 15.1982 1554.65 16.2845 1554.65 17.6243Z" fill="#C9CBCF"/>
<path d="M1546.84 30.6824C1546.84 32.3764 1545.42 33.7496 1543.67 33.7496C1541.92 33.7496 1540.5 32.3764 1540.5 30.6824C1540.5 28.9885 1541.92 27.6152 1543.67 27.6152C1545.42 27.6152 1546.84 28.9885 1546.84 30.6824ZM1541.86 30.6824C1541.86 31.65 1542.67 32.4344 1543.67 32.4344C1544.67 32.4344 1545.48 31.65 1545.48 30.6824C1545.48 29.7149 1544.67 28.9305 1543.67 28.9305C1542.67 28.9305 1541.86 29.7149 1541.86 30.6824Z" fill="#C9CBCF"/>
<path d="M1540.09 11.0921C1540.09 12.7861 1538.68 14.1593 1536.92 14.1593C1535.17 14.1593 1533.75 12.7861 1533.75 11.0921C1533.75 9.39814 1535.17 8.0249 1536.92 8.0249C1538.68 8.0249 1540.09 9.39814 1540.09 11.0921ZM1535.11 11.0921C1535.11 12.0597 1535.92 12.844 1536.92 12.844C1537.92 12.844 1538.74 12.0597 1538.74 11.0921C1538.74 10.1245 1537.92 9.3402 1536.92 9.3402C1535.92 9.3402 1535.11 10.1245 1535.11 11.0921Z" fill="#C9CBCF"/>
<path d="M1540.09 24.157C1540.09 25.851 1538.68 27.2243 1536.92 27.2243C1535.17 27.2243 1533.75 25.851 1533.75 24.157C1533.75 22.463 1535.17 21.0898 1536.92 21.0898C1538.68 21.0898 1540.09 22.463 1540.09 24.157ZM1535.11 24.157C1535.11 25.1246 1535.92 25.909 1536.92 25.909C1537.92 25.909 1538.74 25.1246 1538.74 24.157C1538.74 23.1894 1537.92 22.405 1536.92 22.405C1535.92 22.405 1535.11 23.1894 1535.11 24.157Z" fill="#C9CBCF"/>
<path d="M1546.84 4.5672C1546.84 6.26117 1545.42 7.6344 1543.67 7.6344C1541.92 7.6344 1540.5 6.26117 1540.5 4.5672C1540.5 2.87323 1541.92 1.5 1543.67 1.5C1545.42 1.5 1546.84 2.87323 1546.84 4.5672ZM1541.86 4.5672C1541.86 5.53479 1542.67 6.31918 1543.67 6.31918C1544.67 6.31918 1545.48 5.53479 1545.48 4.5672C1545.48 3.5996 1544.67 2.81521 1543.67 2.81521C1542.67 2.81521 1541.86 3.5996 1541.86 4.5672Z" fill="#C9CBCF"/>
<path d="M1533.34 17.6243C1533.34 19.3183 1531.92 20.6915 1530.17 20.6915C1528.42 20.6915 1527 19.3183 1527 17.6243C1527 15.9304 1528.42 14.5571 1530.17 14.5571C1531.92 14.5571 1533.34 15.9304 1533.34 17.6243ZM1528.36 17.6243C1528.36 18.5919 1529.17 19.3763 1530.17 19.3763C1531.17 19.3763 1531.98 18.5919 1531.98 17.6243C1531.98 16.6567 1531.17 15.8724 1530.17 15.8724C1529.17 15.8724 1528.36 16.6567 1528.36 17.6243Z" fill="#C9CBCF"/>
<path d="M1546.84 17.6243C1546.84 19.3183 1545.42 20.6915 1543.67 20.6915C1541.92 20.6915 1540.5 19.3183 1540.5 17.6243C1540.5 15.9304 1541.92 14.5571 1543.67 14.5571C1545.42 14.5571 1546.84 15.9304 1546.84 17.6243ZM1541.86 17.6243C1541.86 18.5919 1542.67 19.3763 1543.67 19.3763C1544.67 19.3763 1545.48 18.5919 1545.48 17.6243C1545.48 16.6567 1544.67 15.8724 1543.67 15.8724C1542.67 15.8724 1541.86 16.6567 1541.86 17.6243Z" fill="#C9CBCF"/>
<path fill-rule="evenodd" clip-rule="evenodd" d="M1535.89 13.1669L1532.31 16.6285L1531.19 15.544L1534.77 12.0825L1535.89 13.1669Z" fill="#C9CBCF"/>
<path fill-rule="evenodd" clip-rule="evenodd" d="M1542.68 6.58197L1539.15 9.99703L1538.03 8.91262L1541.56 5.49756L1542.68 6.58197Z" fill="#C9CBCF"/>
<path fill-rule="evenodd" clip-rule="evenodd" d="M1542.55 19.789L1539.02 23.2068L1537.9 22.1224L1541.43 18.7046L1542.55 19.789Z" fill="#C9CBCF"/>
<path fill-rule="evenodd" clip-rule="evenodd" d="M1541.49 29.6654L1538 26.2914L1539.12 25.207L1542.61 28.581L1541.49 29.6654Z" fill="#C9CBCF"/>
<path fill-rule="evenodd" clip-rule="evenodd" d="M1534.5 22.9118L1531.15 19.6694L1532.27 18.585L1535.62 21.8274L1534.5 22.9118Z" fill="#C9CBCF"/>
<path d="M1577.82 2.74463V3.19504H1572.5V20.3607H1571.99V3.19504H1566.68V2.74463H1577.82Z" fill="#C9CBCF"/>
<path d="M1586.55 6.54171C1588.19 6.54171 1589.53 7.03382 1590.59 8.01806C1591.64 9.00229 1592.17 10.487 1592.17 12.4721V20.3543H1591.67V12.4221C1591.67 10.6538 1591.22 9.31092 1590.3 8.39341C1589.39 7.45922 1588.13 6.99212 1586.55 6.99212C1584.89 6.99212 1583.56 7.5176 1582.56 8.56857C1581.55 9.60285 1581.05 11.1375 1581.05 13.1728V20.3543H1580.54V1.8374H1581.05V10.3952C1581.38 9.14409 1582.04 8.19322 1583.02 7.54263C1584.01 6.87535 1585.18 6.54171 1586.55 6.54171Z" fill="#C9CBCF"/>
<path d="M1602.53 20.0798C1604.1 20.0798 1605.43 19.6961 1606.5 18.9287C1607.57 18.1613 1608.21 17.1104 1608.44 15.7758H1608.96C1608.72 17.1938 1608.02 18.3448 1606.88 19.229C1605.76 20.0965 1604.31 20.5302 1602.53 20.5302C1601.24 20.5302 1600.08 20.2549 1599.06 19.7044C1598.04 19.1539 1597.24 18.3532 1596.65 17.3022C1596.08 16.2513 1595.8 15.0168 1595.8 13.5988C1595.8 12.1809 1596.08 10.9464 1596.65 9.89543C1597.24 8.84448 1598.04 8.04374 1599.06 7.49324C1600.08 6.94273 1601.24 6.66748 1602.53 6.66748C1603.9 6.66748 1605.06 6.95107 1606.03 7.51826C1607 8.06877 1607.72 8.78609 1608.21 9.67023C1608.71 10.5544 1608.96 11.4885 1608.96 12.4728C1608.96 13.0734 1608.95 13.5237 1608.93 13.824H1596.32C1596.33 15.2086 1596.63 16.368 1597.2 17.3022C1597.78 18.2364 1598.54 18.9371 1599.48 19.4041C1600.41 19.8546 1601.43 20.0798 1602.53 20.0798ZM1602.53 7.11789C1601.43 7.11789 1600.41 7.35144 1599.48 7.81854C1598.54 8.26895 1597.78 8.96125 1597.2 9.89543C1596.63 10.8297 1596.33 11.989 1596.32 13.3736H1608.49C1608.58 11.989 1608.34 10.8297 1607.79 9.89543C1607.26 8.96125 1606.51 8.26895 1605.56 7.81854C1604.63 7.35144 1603.62 7.11789 1602.53 7.11789Z" fill="#C9CBCF"/>
<path d="M1690.38 20.4317C1690.08 20.4317 1689.84 20.34 1689.65 20.1566C1689.46 19.973 1689.37 19.7395 1689.37 19.4559C1689.37 19.1722 1689.46 18.9388 1689.65 18.7553C1689.84 18.5717 1690.08 18.48 1690.38 18.48C1690.65 18.48 1690.89 18.5717 1691.08 18.7553C1691.27 18.9388 1691.36 19.1722 1691.36 19.4559C1691.36 19.7395 1691.27 19.973 1691.08 20.1566C1690.89 20.34 1690.65 20.4317 1690.38 20.4317Z" fill="#C9CBCF"/>
<path d="M1695.58 2.79736V20.3634H1694.42V2.79736H1695.58Z" fill="#C9CBCF"/>
<path d="M1707.97 20.5565C1706.3 20.5565 1704.79 20.1812 1703.44 19.4305C1702.09 18.6632 1701.04 17.5955 1700.28 16.2276C1699.52 14.8596 1699.14 13.3166 1699.14 11.5983C1699.14 9.86342 1699.52 8.32034 1700.28 6.9691C1701.04 5.60118 1702.09 4.54188 1703.44 3.79119C1704.79 3.02382 1706.3 2.64014 1707.97 2.64014C1709.65 2.64014 1711.16 3.02382 1712.51 3.79119C1713.86 4.54188 1714.91 5.60118 1715.67 6.9691C1716.43 8.32034 1716.81 9.86342 1716.81 11.5983C1716.81 13.3166 1716.43 14.8596 1715.67 16.2276C1714.91 17.5955 1713.86 18.6632 1712.51 19.4305C1711.16 20.1812 1709.65 20.5565 1707.97 20.5565ZM1707.97 19.5556C1709.41 19.5556 1710.7 19.2303 1711.86 18.5797C1713.02 17.9291 1713.92 17.0033 1714.58 15.8022C1715.25 14.6011 1715.59 13.1998 1715.59 11.5983C1715.59 9.9802 1715.25 8.57057 1714.58 7.36946C1713.92 6.16837 1713.02 5.24252 1711.86 4.59193C1710.7 3.94133 1709.41 3.61604 1707.97 3.61604C1706.54 3.61604 1705.25 3.94133 1704.09 4.59193C1702.93 5.24252 1702.02 6.16837 1701.34 7.36946C1700.67 8.57057 1700.33 9.9802 1700.33 11.5983C1700.33 13.1998 1700.67 14.6011 1701.34 15.8022C1702.02 17.0033 1702.93 17.9291 1704.09 18.5797C1705.25 19.2303 1706.54 19.5556 1707.97 19.5556Z" fill="#C9CBCF"/>
<path d="M1569.36 30.3769C1569.36 29.7836 1569.5 29.2537 1569.77 28.7872C1570.03 28.3148 1570.4 27.9491 1570.87 27.6899C1571.33 27.4249 1571.85 27.2925 1572.42 27.2925C1573.12 27.2925 1573.72 27.4537 1574.21 27.7763C1574.71 28.0931 1575.08 28.5424 1575.3 29.1242H1574.57C1574.39 28.7151 1574.12 28.3955 1573.75 28.1651C1573.38 27.9347 1572.94 27.8195 1572.42 27.8195C1571.96 27.8195 1571.55 27.9231 1571.18 28.1306C1570.82 28.3379 1570.53 28.6374 1570.32 29.0291C1570.11 29.415 1570.01 29.8643 1570.01 30.3769C1570.01 30.8896 1570.11 31.3388 1570.32 31.7247C1570.53 32.1107 1570.82 32.4073 1571.18 32.6146C1571.55 32.822 1571.96 32.9257 1572.42 32.9257C1572.94 32.9257 1573.38 32.8134 1573.75 32.5887C1574.12 32.3583 1574.39 32.0415 1574.57 31.6383H1575.3C1575.08 32.2143 1574.71 32.6607 1574.21 32.9775C1573.71 33.2943 1573.11 33.4526 1572.42 33.4526C1571.85 33.4526 1571.33 33.3231 1570.87 33.0639C1570.4 32.799 1570.03 32.4332 1569.77 31.9666C1569.5 31.5001 1569.36 30.9701 1569.36 30.3769Z" fill="#C9CBCF"/>
<path d="M1589.18 33.4614C1588.61 33.4614 1588.08 33.3317 1587.61 33.0725C1587.14 32.8076 1586.77 32.4418 1586.49 31.9753C1586.22 31.503 1586.09 30.9701 1586.09 30.3769C1586.09 29.7836 1586.22 29.2537 1586.49 28.7872C1586.77 28.3148 1587.14 27.9491 1587.61 27.6899C1588.08 27.4249 1588.61 27.2925 1589.18 27.2925C1589.77 27.2925 1590.3 27.4249 1590.77 27.6899C1591.24 27.9491 1591.61 28.3148 1591.88 28.7872C1592.15 29.2537 1592.28 29.7836 1592.28 30.3769C1592.28 30.9701 1592.15 31.503 1591.88 31.9753C1591.61 32.4418 1591.24 32.8076 1590.77 33.0725C1590.3 33.3317 1589.77 33.4614 1589.18 33.4614ZM1589.18 32.9343C1589.65 32.9343 1590.07 32.8306 1590.44 32.6232C1590.81 32.4159 1591.1 32.1193 1591.31 31.7334C1591.53 31.3417 1591.64 30.8896 1591.64 30.3769C1591.64 29.8643 1591.53 29.415 1591.31 29.0291C1591.1 28.6432 1590.81 28.3466 1590.44 28.1392C1590.07 27.9319 1589.65 27.8282 1589.18 27.8282C1588.72 27.8282 1588.3 27.9319 1587.93 28.1392C1587.56 28.3466 1587.27 28.6432 1587.06 29.0291C1586.84 29.415 1586.73 29.8643 1586.73 30.3769C1586.73 30.8896 1586.84 31.3417 1587.06 31.7334C1587.27 32.1193 1587.56 32.4159 1587.93 32.6232C1588.3 32.8306 1588.72 32.9343 1589.18 32.9343Z" fill="#C9CBCF"/>
<path d="M1607.96 33.3991H1607.34L1603.88 28.3189V33.3991H1603.25V27.3599H1603.88L1607.34 32.4315V27.3599H1607.96V33.3991Z" fill="#C9CBCF"/>
<path d="M1621.1 33.4614C1620.68 33.4614 1620.32 33.3922 1620 33.254C1619.69 33.1158 1619.45 32.9228 1619.27 32.6751C1619.09 32.4275 1619 32.151 1618.98 31.8456H1619.65C1619.68 32.1394 1619.81 32.3987 1620.05 32.6232C1620.29 32.8421 1620.64 32.9516 1621.1 32.9516C1621.52 32.9516 1621.85 32.8479 1622.1 32.6406C1622.35 32.4275 1622.47 32.1596 1622.47 31.837C1622.47 31.5779 1622.4 31.3704 1622.27 31.215C1622.13 31.0536 1621.96 30.9356 1621.76 30.8608C1621.55 30.7801 1621.27 30.6937 1620.92 30.6015C1620.5 30.4921 1620.17 30.3856 1619.92 30.2819C1619.68 30.1782 1619.47 30.0169 1619.3 29.798C1619.12 29.5792 1619.04 29.2826 1619.04 28.9081C1619.04 28.5971 1619.12 28.3206 1619.29 28.0787C1619.46 27.831 1619.69 27.6381 1620 27.4998C1620.3 27.3616 1620.65 27.2925 1621.04 27.2925C1621.62 27.2925 1622.09 27.4307 1622.44 27.7072C1622.79 27.9779 1623 28.3292 1623.05 28.7613H1622.37C1622.33 28.5136 1622.19 28.2947 1621.95 28.1046C1621.72 27.9088 1621.39 27.8109 1620.99 27.8109C1620.61 27.8109 1620.3 27.9088 1620.05 28.1046C1619.8 28.2947 1619.67 28.5567 1619.67 28.8909C1619.67 29.1443 1619.74 29.3487 1619.88 29.5043C1620.02 29.6598 1620.19 29.7778 1620.39 29.8585C1620.6 29.9392 1620.88 30.0255 1621.23 30.1177C1621.63 30.2272 1621.96 30.3365 1622.21 30.446C1622.46 30.5497 1622.68 30.711 1622.85 30.9299C1623.02 31.1487 1623.11 31.4425 1623.11 31.8111C1623.11 32.0933 1623.03 32.3612 1622.88 32.6146C1622.72 32.8681 1622.49 33.0725 1622.19 33.2281C1621.88 33.3835 1621.52 33.4614 1621.1 33.4614Z" fill="#C9CBCF"/>
<path d="M1634.73 27.3599V31.1614C1634.73 31.7604 1634.88 32.204 1635.17 32.4919C1635.47 32.7799 1635.87 32.9239 1636.39 32.9239C1636.9 32.9239 1637.3 32.7829 1637.59 32.5006C1637.88 32.2126 1638.02 31.7662 1638.02 31.1614V27.3599H1638.65V31.1527C1638.65 31.9188 1638.44 32.4948 1638.01 32.8808C1637.6 33.2667 1637.05 33.4596 1636.38 33.4596C1635.7 33.4596 1635.16 33.2667 1634.73 32.8808C1634.31 32.4948 1634.11 31.9188 1634.11 31.1527V27.3599H1634.73Z" fill="#C9CBCF"/>
<path d="M1650.48 32.9066H1652.73V33.3991H1649.86V27.3599H1650.48V32.9066Z" fill="#C9CBCF"/>
<path d="M1667.09 27.3599V27.861H1665.36V33.3991H1664.73V27.861H1662.99V27.3599H1667.09Z" fill="#C9CBCF"/>
<path d="M1678.54 27.3599V33.3991H1677.91V27.3599H1678.54Z" fill="#C9CBCF"/>
<path d="M1694.49 33.3991H1693.87L1690.4 28.3189V33.3991H1689.78V27.3599H1690.4L1693.87 32.4315V27.3599H1694.49V33.3991Z" fill="#C9CBCF"/>
<path d="M1710.64 29.1242C1710.46 28.7267 1710.19 28.4157 1709.82 28.191C1709.45 27.9606 1709.02 27.8454 1708.53 27.8454C1708.06 27.8454 1707.65 27.9491 1707.28 28.1564C1706.91 28.3638 1706.61 28.6604 1706.4 29.0463C1706.19 29.4266 1706.08 29.87 1706.08 30.3769C1706.08 30.8838 1706.19 31.3302 1706.4 31.7161C1706.61 32.102 1706.91 32.3987 1707.28 32.606C1707.65 32.8134 1708.06 32.917 1708.53 32.917C1708.96 32.917 1709.35 32.8278 1709.7 32.6492C1710.05 32.4648 1710.33 32.2057 1710.54 31.8716C1710.76 31.5318 1710.88 31.1372 1710.91 30.6879H1708.28V30.1955H1711.57V30.6361C1711.54 31.166 1711.39 31.647 1711.12 32.0789C1710.85 32.5052 1710.49 32.8421 1710.04 33.0898C1709.59 33.3375 1709.09 33.4614 1708.53 33.4614C1707.95 33.4614 1707.43 33.3317 1706.95 33.0725C1706.48 32.8076 1706.11 32.4418 1705.84 31.9753C1705.57 31.503 1705.43 30.9701 1705.43 30.3769C1705.43 29.7836 1705.57 29.2537 1705.84 28.7872C1706.11 28.3148 1706.48 27.9491 1706.95 27.6899C1707.43 27.4249 1707.95 27.2925 1708.53 27.2925C1709.2 27.2925 1709.78 27.4537 1710.28 27.7763C1710.78 28.0989 1711.15 28.5481 1711.37 29.1242H1710.64Z" fill="#C9CBCF"/>
<path d="M1622.02 2.79004V3.74091H1613.81V11.0726H1620.98V12.0235H1613.81V20.3561H1612.64V2.79004H1622.02Z" fill="#C9CBCF"/>
<path d="M1624.38 13.5489C1624.38 12.1476 1624.66 10.9215 1625.23 9.87054C1625.82 8.81957 1626.62 8.0105 1627.64 7.44331C1628.68 6.87613 1629.85 6.59253 1631.17 6.59253C1632.65 6.59253 1633.91 6.94285 1634.95 7.64349C1635.98 8.34414 1636.71 9.23662 1637.12 10.321V6.76769H1638.29V20.3551H1637.12V16.7768C1636.71 17.8778 1635.98 18.7871 1634.92 19.5044C1633.89 20.205 1632.63 20.5553 1631.17 20.5553C1629.85 20.5553 1628.68 20.2717 1627.64 19.7046C1626.62 19.1206 1625.82 18.3033 1625.23 17.2523C1624.66 16.1847 1624.38 14.9502 1624.38 13.5489ZM1637.12 13.5489C1637.12 12.3645 1636.87 11.3218 1636.35 10.421C1635.85 9.50353 1635.16 8.80289 1634.27 8.31911C1633.39 7.81866 1632.41 7.56843 1631.32 7.56843C1630.18 7.56843 1629.18 7.81032 1628.32 8.29409C1627.45 8.76118 1626.78 9.44514 1626.3 10.346C1625.81 11.2468 1625.57 12.3144 1625.57 13.5489C1625.57 14.7834 1625.81 15.851 1626.3 16.7518C1626.78 17.6527 1627.45 18.345 1628.32 18.8288C1629.2 19.3125 1630.2 19.5544 1631.32 19.5544C1632.41 19.5544 1633.39 19.3125 1634.27 18.8288C1635.17 18.3283 1635.87 17.6277 1636.37 16.7268C1636.87 15.8093 1637.12 14.75 1637.12 13.5489Z" fill="#C9CBCF"/>
<path d="M1643.7 10.3452C1644.13 9.24419 1644.86 8.34336 1645.9 7.64272C1646.94 6.94207 1648.19 6.59175 1649.66 6.59175C1650.97 6.59175 1652.13 6.87535 1653.15 7.44254C1654.19 8.00972 1654.99 8.8188 1655.56 9.86976C1656.15 10.9208 1656.44 12.1468 1656.44 13.5481C1656.44 14.9494 1656.15 16.1839 1655.56 17.2515C1654.99 18.3025 1654.19 19.1199 1653.15 19.7038C1652.13 20.2709 1650.97 20.5545 1649.66 20.5545C1648.19 20.5545 1646.93 20.2042 1645.87 19.5036C1644.84 18.803 1644.11 17.9021 1643.7 16.8011V20.3543H1642.53V1.8374H1643.7V10.3452ZM1655.25 13.5481C1655.25 12.3136 1655.01 11.246 1654.53 10.3452C1654.04 9.44437 1653.36 8.76041 1652.48 8.29331C1651.62 7.80954 1650.61 7.56765 1649.47 7.56765C1648.39 7.56765 1647.4 7.81788 1646.52 8.31834C1645.64 8.80211 1644.95 9.50276 1644.45 10.4203C1643.95 11.3211 1643.7 12.3637 1643.7 13.5481C1643.7 14.7492 1643.95 15.8085 1644.45 16.726C1644.95 17.6269 1645.64 18.3275 1646.52 18.828C1647.4 19.3117 1648.39 19.5536 1649.47 19.5536C1650.61 19.5536 1651.62 19.3117 1652.48 18.828C1653.36 18.3442 1654.04 17.6519 1654.53 16.751C1655.01 15.8502 1655.25 14.7826 1655.25 13.5481Z" fill="#C9CBCF"/>
<path d="M1661.13 9.57245C1661.47 8.57153 1662.08 7.81251 1662.97 7.29536C1663.85 6.76154 1664.97 6.49463 1666.33 6.49463V7.67071H1665.95C1664.56 7.67071 1663.41 8.0544 1662.5 8.82176C1661.58 9.57245 1661.13 10.8069 1661.13 12.5251V20.3573H1659.96V6.76988H1661.13V9.57245Z" fill="#C9CBCF"/>
<path d="M1669.62 3.73695C1669.34 3.73695 1669.11 3.65353 1668.92 3.48672C1668.73 3.30321 1668.63 3.06132 1668.63 2.76105C1668.63 2.47746 1668.73 2.24391 1668.92 2.06041C1669.11 1.87691 1669.34 1.78516 1669.62 1.78516C1669.89 1.78516 1670.13 1.87691 1670.32 2.06041C1670.51 2.24391 1670.6 2.47746 1670.6 2.76105C1670.6 3.06132 1670.51 3.30321 1670.32 3.48672C1670.13 3.65353 1669.89 3.73695 1669.62 3.73695ZM1670.19 6.76472V20.3521H1669.02V6.76472H1670.19Z" fill="#C9CBCF"/>
<path d="M1673.73 13.5491C1673.73 12.1311 1674.02 10.8968 1674.59 9.84576C1675.18 8.79479 1675.98 7.99406 1677 7.44356C1678.04 6.87637 1679.22 6.59277 1680.55 6.59277C1682.31 6.59277 1683.75 7.01817 1684.87 7.86894C1686.01 8.71973 1686.72 9.86244 1687 11.2971H1685.78C1685.56 10.1293 1684.97 9.21184 1684.02 8.54456C1683.09 7.87729 1681.93 7.54365 1680.55 7.54365C1679.51 7.54365 1678.57 7.76885 1677.72 8.21927C1676.88 8.65299 1676.2 9.32861 1675.68 10.2461C1675.18 11.1469 1674.93 12.2479 1674.93 13.5491C1674.93 14.867 1675.18 15.9764 1675.68 16.8772C1676.2 17.778 1676.88 18.4536 1677.72 18.9041C1678.57 19.3545 1679.51 19.5797 1680.55 19.5797C1681.93 19.5797 1683.09 19.246 1684.02 18.5788C1684.97 17.9114 1685.56 16.994 1685.78 15.8262H1687C1686.72 17.2442 1686.01 18.3869 1684.87 19.2544C1683.73 20.1218 1682.29 20.5556 1680.55 20.5556C1679.22 20.5556 1678.04 20.2719 1677 19.7048C1675.98 19.1376 1675.18 18.3285 1674.59 17.2776C1674.02 16.2099 1673.73 14.9671 1673.73 13.5491Z" fill="#C9CBCF"/>
<g clip-path="url(#clip0_18081_14687)">
<path d="M1799.11 23.4685C1800.6 23.4685 1801.78 23.1494 1802.64 22.5111C1803.06 22.2023 1803.39 21.8013 1803.62 21.3421C1803.84 20.8829 1803.95 20.3788 1803.92 19.8725C1803.94 19.3504 1803.81 18.8338 1803.54 18.3789C1803.23 17.9232 1802.8 17.559 1802.29 17.3277C1801.53 16.9692 1800.73 16.6973 1799.91 16.5179C1798.98 16.2927 1798.27 16.0995 1797.8 15.9387C1797.45 15.8361 1797.12 15.6644 1796.84 15.4345C1796.67 15.2604 1796.58 15.0305 1796.59 14.7937C1796.59 14.5824 1796.65 14.3749 1796.76 14.1944C1796.88 14.014 1797.04 13.8676 1797.24 13.772C1797.75 13.5034 1798.34 13.3867 1798.92 13.4368C1799.56 13.4393 1800.17 13.6264 1800.69 13.9731C1801.01 14.1887 1801.26 14.494 1801.39 14.8473C1801.42 14.9544 1801.5 15.0466 1801.59 15.1075C1801.69 15.1684 1801.81 15.1941 1801.92 15.1798L1803.45 14.9116C1803.5 14.9043 1803.56 14.8867 1803.6 14.86C1803.65 14.8333 1803.69 14.798 1803.72 14.7563C1803.75 14.7146 1803.77 14.6674 1803.78 14.6176C1803.79 14.5677 1803.79 14.5163 1803.78 14.4665C1803.57 13.6297 1803.05 12.8986 1802.3 12.4231C1801.29 11.7855 1800.1 11.4656 1798.9 11.5087C1797.51 11.5087 1796.39 11.8207 1795.54 12.4446C1795.13 12.7273 1794.8 13.1003 1794.58 13.5311C1794.36 13.9619 1794.26 14.4376 1794.27 14.917C1794.26 15.4138 1794.39 15.9048 1794.65 16.3356C1794.97 16.7689 1795.42 17.1098 1795.93 17.3223C1796.71 17.6712 1797.53 17.946 1798.36 18.1429C1799.3 18.3807 1799.99 18.58 1800.44 18.7409C1800.78 18.833 1801.09 19.0109 1801.33 19.2558C1801.48 19.4556 1801.56 19.7012 1801.55 19.9503C1801.56 20.1775 1801.51 20.4031 1801.4 20.6058C1801.29 20.8084 1801.13 20.9815 1800.93 21.1087C1800.43 21.4145 1799.84 21.5618 1799.25 21.5297C1798.55 21.5532 1797.86 21.3768 1797.26 21.0229C1796.86 20.7734 1796.54 20.4097 1796.37 19.9824C1796.33 19.8859 1796.26 19.8038 1796.17 19.7493C1796.08 19.6949 1795.97 19.6712 1795.86 19.6821L1794.33 19.9101C1794.27 19.9168 1794.22 19.9347 1794.17 19.9626C1794.12 19.9904 1794.08 20.0276 1794.05 20.0717C1794.02 20.1158 1794 20.1657 1793.99 20.2183C1793.98 20.2709 1793.98 20.3248 1793.99 20.3766C1794.22 21.2595 1794.78 22.0314 1795.57 22.5487C1796.49 23.1619 1797.67 23.4685 1799.11 23.4685Z" fill="#C9CBCF"/>
<path d="M1807.46 22.7569C1807.46 22.8639 1807.5 22.9662 1807.58 23.0415C1807.66 23.1168 1807.77 23.1591 1807.88 23.1591H1809.37C1809.48 23.1591 1809.58 23.1168 1809.66 23.0413C1809.74 22.9659 1809.79 22.8636 1809.79 22.7569V17.249C1809.75 16.5137 1809.89 15.7808 1810.2 15.1038C1810.43 14.6149 1810.81 14.207 1811.29 13.9373C1811.76 13.6977 1812.27 13.5749 1812.8 13.5806C1813.34 13.5571 1813.87 13.6848 1814.34 13.948C1814.73 14.1866 1815.04 14.521 1815.25 14.9161C1815.47 15.3262 1815.61 15.766 1815.68 16.2193C1815.76 16.6677 1815.8 17.1215 1815.8 17.5761V22.7569C1815.8 22.8099 1815.81 22.8625 1815.83 22.9115C1815.86 22.9605 1815.89 23.0049 1815.93 23.0423C1815.97 23.0797 1816.01 23.1093 1816.06 23.1293C1816.11 23.1494 1816.17 23.1595 1816.22 23.1591H1817.71C1817.76 23.1595 1817.82 23.1494 1817.87 23.1293C1817.92 23.1093 1817.97 23.0797 1818.01 23.0423C1818.05 23.0049 1818.08 22.9605 1818.1 22.9115C1818.12 22.8625 1818.13 22.8099 1818.13 22.7569V16.8575C1818.13 16.4492 1818.09 16.0417 1818.03 15.6374C1817.96 15.1534 1817.84 14.678 1817.66 14.2189C1817.47 13.731 1817.2 13.2774 1816.86 12.8781C1816.49 12.4494 1816.03 12.1071 1815.5 11.8779C1814.85 11.608 1814.15 11.4789 1813.44 11.4997C1812.65 11.4858 1811.87 11.6368 1811.15 11.9422C1810.84 12.0818 1810.54 12.2545 1810.26 12.457C1810.19 12.5048 1810.12 12.5353 1810.04 12.5452C1809.95 12.5552 1809.87 12.5444 1809.79 12.514C1809.72 12.4835 1809.65 12.4345 1809.6 12.3718C1809.55 12.309 1809.52 12.2349 1809.51 12.1567C1809.51 12.0636 1809.47 11.9742 1809.4 11.9083C1809.34 11.8424 1809.24 11.8054 1809.14 11.8054H1807.88C1807.77 11.8054 1807.66 11.8481 1807.58 11.924C1807.5 12 1807.46 12.103 1807.46 12.2104V22.7569Z" fill="#C9CBCF"/>
<path d="M1825.44 23.4923C1826.82 23.4923 1827.95 23.1446 1828.84 22.4492C1829.15 22.2024 1829.72 22.3955 1829.72 22.7816C1829.72 22.8862 1829.77 22.9865 1829.84 23.0604C1829.92 23.1343 1830.02 23.1758 1830.13 23.1758H1831.33C1831.39 23.1762 1831.44 23.166 1831.49 23.146C1831.54 23.126 1831.59 23.0963 1831.63 23.059C1831.67 23.0216 1831.7 22.9772 1831.72 22.9282C1831.74 22.8792 1831.75 22.8266 1831.75 22.7736V16.1716C1831.75 15.697 1831.73 15.2519 1831.69 14.8308C1831.65 14.4215 1831.53 14.023 1831.34 13.6536C1830.99 12.9202 1830.37 12.3357 1829.6 12.0126C1828.73 11.6419 1827.78 11.4588 1826.83 11.4762C1825.46 11.4762 1824.36 11.764 1823.53 12.3396C1822.82 12.825 1822.29 13.5048 1821.99 14.2892C1821.97 14.3389 1821.96 14.3917 1821.97 14.4442C1821.97 14.4966 1821.99 14.5475 1822.02 14.5937C1822.04 14.6399 1822.08 14.6804 1822.12 14.7124C1822.17 14.7445 1822.22 14.7674 1822.27 14.7799L1823.62 15.1767C1823.73 15.2057 1823.85 15.1943 1823.95 15.1448C1824.05 15.0954 1824.13 15.0113 1824.18 14.9086C1824.37 14.4905 1824.7 14.1428 1825.12 13.9164C1825.64 13.6345 1826.23 13.4893 1826.83 13.4954C1827.76 13.4954 1828.43 13.6849 1828.83 14.064C1829.21 14.4319 1829.44 14.9166 1829.48 15.4315C1829.49 15.531 1829.46 15.631 1829.39 15.7094C1829.33 15.7879 1829.23 15.8384 1829.13 15.8498C1828.29 15.9598 1827.48 16.0778 1826.67 16.1984C1825.86 16.3107 1825.05 16.4719 1824.26 16.6811C1823.45 16.897 1822.72 17.3319 1822.17 17.9334C1821.68 18.5346 1821.42 19.2836 1821.46 20.0465C1821.45 20.6424 1821.6 21.2298 1821.9 21.752C1822.23 22.2773 1822.7 22.7069 1823.26 22.9935C1823.93 23.3294 1824.68 23.5007 1825.44 23.4923ZM1825.85 21.6929C1825.12 21.6929 1824.58 21.5321 1824.23 21.2102C1824.06 21.0642 1823.93 20.887 1823.84 20.6899C1823.75 20.4927 1823.71 20.28 1823.71 20.0652C1823.69 19.8647 1823.73 19.6643 1823.81 19.4786C1823.89 19.2929 1824.01 19.1268 1824.17 18.9926C1824.52 18.7151 1824.92 18.5039 1825.35 18.3705C1825.92 18.2138 1826.51 18.0911 1827.1 18.0031C1827.66 17.9173 1828.29 17.8279 1828.97 17.735C1829.03 17.7256 1829.09 17.7294 1829.15 17.7461C1829.21 17.7627 1829.27 17.7918 1829.31 17.8312C1829.36 17.8706 1829.39 17.9193 1829.41 17.9736C1829.44 18.028 1829.45 18.0866 1829.44 18.1452C1829.44 18.2766 1829.42 18.4134 1829.41 18.5582C1829.39 18.8586 1829.33 19.155 1829.23 19.4405C1829.13 19.8343 1828.94 20.2013 1828.67 20.513C1828.36 20.8751 1827.98 21.1667 1827.54 21.3658C1827.01 21.5933 1826.43 21.7016 1825.85 21.6822V21.6929Z" fill="#C9CBCF"/>
<path d="M1835.68 27.804C1835.68 27.9114 1835.73 28.0143 1835.81 28.0903C1835.89 28.1662 1835.99 28.2089 1836.11 28.2089H1837.57C1837.68 28.2089 1837.79 28.1662 1837.87 28.0903C1837.95 28.0143 1837.99 27.9114 1837.99 27.804V23.2668C1838 23.1847 1838.03 23.1057 1838.08 23.0372C1838.12 22.9687 1838.19 22.9129 1838.27 22.8749C1838.34 22.837 1838.43 22.8181 1838.51 22.8201C1838.6 22.822 1838.68 22.8447 1838.76 22.886C1838.97 23.0026 1839.2 23.1013 1839.43 23.181C1840.02 23.3848 1840.64 23.4847 1841.27 23.476C1842.29 23.5029 1843.29 23.2255 1844.14 22.6822C1844.95 22.1423 1845.59 21.4005 1846 20.537C1846.45 19.576 1846.68 18.5314 1846.66 17.4773C1846.68 16.4232 1846.45 15.3781 1846 14.4177C1845.59 13.5479 1844.94 12.8044 1844.12 12.2724C1843.27 11.7335 1842.26 11.4583 1841.24 11.4841C1840.56 11.4745 1839.89 11.5967 1839.26 11.8434C1838.92 11.9735 1838.61 12.1419 1838.31 12.3449C1838.26 12.3779 1838.2 12.3977 1838.14 12.4022C1838.08 12.4067 1838.01 12.3956 1837.96 12.3703C1837.9 12.3449 1837.85 12.3061 1837.82 12.2574C1837.78 12.2088 1837.76 12.1521 1837.75 12.0928C1837.75 12.0152 1837.72 11.9409 1837.66 11.8861C1837.61 11.8313 1837.53 11.8004 1837.45 11.8004H1836.13C1836.08 11.8001 1836.02 11.8103 1835.97 11.8306C1835.92 11.8508 1835.87 11.8806 1835.83 11.9183C1835.79 11.956 1835.76 12.0008 1835.74 12.05C1835.72 12.0993 1835.71 12.1521 1835.71 12.2054L1835.68 27.804ZM1840.95 21.4889C1839.83 21.4889 1839.01 21.1135 1838.49 20.3626C1837.97 19.6118 1837.71 18.6483 1837.73 17.472C1837.73 16.2939 1837.98 15.333 1838.49 14.5893C1838.99 13.8456 1839.79 13.4738 1840.87 13.4738C1841.54 13.4475 1842.2 13.6363 1842.75 14.0101C1843.25 14.3804 1843.63 14.8813 1843.84 15.4528C1844.09 16.099 1844.21 16.7834 1844.2 17.472C1844.21 18.1666 1844.09 18.8573 1843.85 19.5126C1843.64 20.0809 1843.27 20.5803 1842.77 20.9526C1842.25 21.3251 1841.6 21.5143 1840.95 21.4889Z" fill="#C9CBCF"/>
<path d="M1850.4 22.7596C1850.4 22.8665 1850.44 22.9688 1850.52 23.0441C1850.6 23.1195 1850.71 23.1618 1850.82 23.1618H1852.28C1852.33 23.1622 1852.39 23.152 1852.44 23.132C1852.49 23.1119 1852.54 23.0823 1852.58 23.045C1852.62 23.0075 1852.65 22.9631 1852.67 22.9141C1852.69 22.8651 1852.7 22.8126 1852.7 22.7596V8.10755C1852.7 8.00017 1852.66 7.89717 1852.58 7.82123C1852.5 7.7453 1852.39 7.70264 1852.28 7.70264H1850.82C1850.71 7.70334 1850.6 7.74623 1850.52 7.82202C1850.44 7.8978 1850.4 8.00039 1850.4 8.10755V22.7596Z" fill="#C9CBCF"/>
<path d="M1862.37 23.4866C1863.47 23.4995 1864.56 23.2112 1865.5 22.6553C1866.31 22.1774 1866.96 21.5001 1867.4 20.6951C1867.43 20.6452 1867.44 20.5904 1867.44 20.5349C1867.44 20.4792 1867.43 20.4239 1867.41 20.3729C1867.39 20.3219 1867.35 20.2763 1867.31 20.2394C1867.26 20.2023 1867.21 20.1749 1867.16 20.1588L1865.7 19.719C1865.6 19.6914 1865.5 19.6965 1865.4 19.7336C1865.31 19.7705 1865.23 19.8373 1865.18 19.9228C1864.56 20.9204 1863.59 21.4218 1862.26 21.4218C1861.83 21.4435 1861.39 21.3779 1860.99 21.2291C1860.58 21.0803 1860.22 20.8518 1859.91 20.5583C1859.39 19.9991 1859.06 19.2998 1858.96 18.5553C1858.96 18.5001 1858.96 18.444 1858.98 18.3906C1858.99 18.3374 1859.02 18.2882 1859.06 18.2466C1859.1 18.205 1859.15 18.172 1859.2 18.1498C1859.25 18.1276 1859.31 18.1168 1859.37 18.1182H1867.36C1867.47 18.1196 1867.57 18.0804 1867.65 18.0092C1867.73 17.9379 1867.77 17.8403 1867.77 17.7374C1867.82 16.6668 1867.65 15.5973 1867.25 14.5946C1866.88 13.6629 1866.22 12.8651 1865.35 12.3126C1864.43 11.7562 1863.35 11.4761 1862.27 11.5081C1861.2 11.4732 1860.14 11.721 1859.21 12.2241C1858.33 12.7278 1857.62 13.4609 1857.16 14.3371C1856.66 15.3401 1856.41 16.4427 1856.44 17.555C1856.41 18.6279 1856.67 19.6898 1857.17 20.6468C1857.65 21.5087 1858.37 22.2263 1859.25 22.7197C1860.2 23.2352 1861.28 23.4999 1862.37 23.4866ZM1862.35 13.4442C1864 13.4442 1865 14.2791 1865.33 15.9488C1865.34 16.0047 1865.34 16.062 1865.32 16.1168C1865.31 16.1716 1865.28 16.2223 1865.24 16.2654C1865.2 16.3086 1865.16 16.3429 1865.1 16.3661C1865.05 16.3892 1864.99 16.4005 1864.93 16.3992H1859.44C1859.38 16.4006 1859.32 16.3888 1859.27 16.3648C1859.21 16.3409 1859.17 16.3054 1859.13 16.261C1859.09 16.2166 1859.06 16.1645 1859.05 16.1085C1859.03 16.0526 1859.03 15.9943 1859.05 15.938C1859.18 15.2781 1859.52 14.6726 1860.02 14.2004C1860.59 13.6855 1861.36 13.4334 1862.34 13.4334L1862.35 13.4442Z" fill="#C9CBCF"/>
<path d="M1877.77 23.22C1877.87 23.2041 1877.96 23.156 1878.02 23.0843C1878.08 23.0126 1878.12 22.922 1878.12 22.8285V21.7693C1878.12 21.7106 1878.1 21.6526 1878.08 21.5992C1878.05 21.5458 1878.01 21.4982 1877.97 21.4594C1877.92 21.4206 1877.87 21.3917 1877.81 21.3743C1877.75 21.357 1877.69 21.3518 1877.63 21.359C1877.11 21.4123 1876.6 21.4123 1876.08 21.359C1875.82 21.34 1875.58 21.262 1875.36 21.1318C1875.14 21.0015 1874.96 20.8228 1874.83 20.6108C1874.68 20.3498 1874.6 20.0579 1874.6 19.7608C1874.6 19.4229 1874.6 19.026 1874.6 18.5702V13.9606C1874.6 13.8532 1874.64 13.7502 1874.72 13.6743C1874.8 13.5984 1874.91 13.5557 1875.02 13.5557H1877.7C1877.82 13.555 1877.92 13.5121 1878 13.4363C1878.08 13.3605 1878.13 13.2579 1878.13 13.1508V12.1935C1878.13 12.0861 1878.08 11.9831 1878 11.9071C1877.92 11.8312 1877.82 11.7885 1877.7 11.7885H1875.02C1874.91 11.7879 1874.8 11.745 1874.72 11.6691C1874.64 11.5934 1874.6 11.4908 1874.6 11.3836V9.03725C1874.6 8.93007 1874.55 8.82755 1874.47 8.75172C1874.39 8.67597 1874.29 8.63307 1874.18 8.63232H1872.71C1872.6 8.63307 1872.49 8.67597 1872.41 8.75172C1872.33 8.82755 1872.29 8.93007 1872.29 9.03725V11.3836C1872.29 11.4906 1872.24 11.5932 1872.17 11.669C1872.09 11.7449 1871.98 11.7879 1871.87 11.7885H1870.44C1870.38 11.7885 1870.33 11.799 1870.27 11.8194C1870.22 11.8398 1870.18 11.8697 1870.14 11.9073C1870.1 11.9449 1870.07 11.9896 1870.05 12.0387C1870.03 12.0879 1870.01 12.1404 1870.02 12.1935V13.1508C1870.02 13.2577 1870.06 13.3603 1870.14 13.4361C1870.22 13.512 1870.32 13.555 1870.44 13.5557H1871.87C1871.92 13.5557 1871.98 13.5662 1872.03 13.5866C1872.08 13.607 1872.13 13.6368 1872.17 13.6745C1872.21 13.7121 1872.24 13.7568 1872.26 13.8059C1872.28 13.8549 1872.29 13.9076 1872.29 13.9606V18.6774C1872.29 19.2942 1872.3 19.8475 1872.31 20.3373C1872.34 20.8382 1872.48 21.3272 1872.73 21.7693C1873.01 22.2825 1873.46 22.6898 1874.02 22.925C1874.62 23.1799 1875.28 23.3158 1875.94 23.3246C1876.55 23.3461 1877.17 23.3111 1877.77 23.22Z" fill="#C9CBCF"/>
<path d="M1759.86 29.092C1760.83 29.092 1761.75 28.7262 1762.43 28.0752C1763.11 27.4241 1763.5 26.5409 1763.5 25.6197C1763.5 25.1634 1763.4 24.7117 1763.22 24.2902C1763.04 23.8688 1762.77 23.4858 1762.43 23.1634C1762.09 22.8409 1761.69 22.5852 1761.25 22.4109C1760.81 22.2366 1760.34 22.147 1759.86 22.1475C1758.9 22.1475 1757.98 22.5132 1757.3 23.1645C1756.62 23.8156 1756.23 24.6988 1756.23 25.6197C1756.24 26.5404 1756.62 27.4231 1757.3 28.0741C1757.98 28.7251 1758.9 29.0912 1759.86 29.092Z" fill="#C9CBCF"/>
<path d="M1778.34 26.114C1778.82 26.1143 1779.29 26.0248 1779.73 25.8505C1780.17 25.6762 1780.57 25.4204 1780.91 25.098C1781.25 24.7755 1781.51 24.3926 1781.7 23.9711C1781.88 23.5496 1781.97 23.0979 1781.97 22.6417C1781.97 21.7205 1781.59 20.8374 1780.91 20.1862C1780.23 19.5351 1779.3 19.1694 1778.34 19.1694C1777.38 19.1702 1776.46 19.5363 1775.77 20.1873C1775.09 20.8383 1774.71 21.721 1774.71 22.6417C1774.71 23.5625 1775.09 24.4458 1775.77 25.097C1776.45 25.7481 1777.38 26.114 1778.34 26.114Z" fill="#C9CBCF"/>
<path d="M1750.92 34.5182C1750.8 34.5186 1750.69 34.4987 1750.58 34.4595C1750.47 34.418 1750.37 34.3555 1750.28 34.2754C1750.19 34.1954 1750.12 34.0995 1750.07 33.9932C1750.02 33.887 1749.99 33.7724 1749.99 33.6563C1749.99 33.5402 1750.01 33.4248 1750.06 33.3167C1750.08 33.2582 1750.95 30.8729 1751.35 22.7915C1751.57 18.3962 1751.57 16.4652 1751.2 12.1491C1750.84 8.01748 1751.43 5.58837 1752.93 4.92321C1755.03 4.0002 1756.93 5.48873 1758.78 6.93038C1760.81 8.52148 1762.91 10.1536 1765.73 9.76093C1767.65 9.48553 1768.35 7.76548 1769.21 5.17227C1769.88 3.15337 1770.56 1.07 1772.58 0.776986C1773.53 0.645127 1774.57 0.996755 1775.68 1.826C1781 5.80812 1787.26 19.92 1788.31 30.3191C1788.33 30.4343 1788.31 30.5504 1788.28 30.6611C1788.24 30.7717 1788.19 30.8746 1788.11 30.9639C1788.03 31.0532 1787.94 31.127 1787.83 31.1813C1787.72 31.2356 1787.61 31.2692 1787.49 31.2803C1787.25 31.3023 1787 31.2314 1786.82 31.083C1786.63 30.9347 1786.51 30.7211 1786.49 30.4891C1785.4 19.7969 1779.02 6.55241 1774.54 3.20906C1773.86 2.70507 1773.26 2.45598 1772.83 2.51752C1771.95 2.64352 1771.46 4.12621 1770.94 5.69972C1770.16 8.07904 1769.18 11.0386 1765.99 11.4985C1762.36 12.0202 1759.72 9.95143 1757.59 8.27533C1755.82 6.88937 1754.68 6.06306 1753.67 6.51723C1753.25 6.70477 1752.69 8.35738 1753.01 11.9996C1753.39 16.4154 1753.38 18.3845 1753.16 22.8677C1752.73 31.4209 1751.78 33.8413 1751.74 33.9409C1751.68 34.1048 1751.57 34.2471 1751.42 34.3498C1751.27 34.4527 1751.1 34.5112 1750.92 34.5182Z" fill="#C9CBCF"/>
<path d="M1755.21 27.6662C1755.12 27.6654 1755.03 27.6399 1754.95 27.5926C1754.88 27.5453 1754.82 27.4782 1754.78 27.3995C1754.76 27.3459 1754.74 27.2881 1754.74 27.2294C1754.74 27.1707 1754.75 27.1122 1754.77 27.0576C1754.8 27.003 1754.83 26.9532 1754.87 26.9113C1754.92 26.8694 1754.97 26.8361 1755.02 26.8134L1758.64 25.3308L1754.84 24.5924C1754.79 24.5812 1754.73 24.559 1754.68 24.5269C1754.63 24.4949 1754.59 24.4538 1754.55 24.4058C1754.52 24.3579 1754.5 24.3042 1754.48 24.2477C1754.47 24.1912 1754.47 24.133 1754.49 24.0767C1754.5 24.0199 1754.52 23.9659 1754.55 23.9178C1754.59 23.8696 1754.63 23.8283 1754.68 23.7961C1754.73 23.764 1754.79 23.7417 1754.85 23.7305C1754.9 23.7193 1754.97 23.7194 1755.02 23.7309L1760.26 24.7507C1760.36 24.7688 1760.44 24.8158 1760.51 24.8849C1760.58 24.954 1760.62 25.0413 1760.63 25.1345C1760.64 25.2279 1760.62 25.3218 1760.57 25.4029C1760.52 25.4839 1760.44 25.5479 1760.35 25.5857L1755.39 27.6281C1755.33 27.6534 1755.27 27.6665 1755.21 27.6662Z" fill="#C9CBCF"/>
<path d="M1783 23.3789H1782.98L1777.58 23.1005C1777.49 23.0972 1777.4 23.0659 1777.32 23.0108C1777.25 22.9556 1777.19 22.8794 1777.16 22.7928C1777.14 22.7023 1777.15 22.6067 1777.18 22.5202C1777.22 22.4337 1777.28 22.3608 1777.37 22.3123L1781.92 19.6312C1782.02 19.5711 1782.14 19.5525 1782.26 19.5794C1782.38 19.6063 1782.48 19.6764 1782.55 19.7747C1782.61 19.8746 1782.63 19.994 1782.6 20.1073C1782.57 20.2207 1782.5 20.3191 1782.4 20.3813L1779.1 22.3211L1783.02 22.5233C1783.15 22.5301 1783.26 22.5825 1783.34 22.6692C1783.42 22.7559 1783.47 22.8698 1783.46 22.9862C1783.45 23.0942 1783.39 23.194 1783.31 23.2664C1783.22 23.3388 1783.11 23.3789 1783 23.3789Z" fill="#C9CBCF"/>
<path d="M1768.64 26.4028C1767.89 26.4336 1767.15 26.225 1766.54 25.8097C1765.92 25.3945 1765.47 24.7961 1765.25 24.1085C1765.2 23.9628 1765.22 23.8053 1765.29 23.6697C1765.36 23.534 1765.49 23.4307 1765.64 23.3818C1765.79 23.3302 1765.96 23.3388 1766.11 23.4059C1766.25 23.4729 1766.37 23.5928 1766.42 23.7393C1766.82 24.9114 1767.88 25.4212 1769.32 25.1721C1770.76 24.9231 1771.53 24.0762 1771.51 22.8456C1771.51 22.6901 1771.57 22.5411 1771.69 22.4312C1771.8 22.3212 1771.96 22.2595 1772.12 22.2595C1772.28 22.2595 1772.44 22.3212 1772.55 22.4312C1772.67 22.5411 1772.73 22.6901 1772.73 22.8456C1772.77 24.6564 1771.55 25.9984 1769.54 26.3472C1769.24 26.3912 1768.94 26.4098 1768.64 26.4028Z" fill="#C9CBCF"/>
<path d="M1758.38 21.1861C1758.34 21.1906 1758.29 21.1906 1758.25 21.1861C1758.09 21.1519 1757.95 21.0589 1757.86 20.9275C1757.78 20.7962 1757.75 20.6374 1757.78 20.4858C1758.09 19.2288 1759.77 17.2802 1761.84 16.9696C1763.91 16.659 1766.03 18.1417 1766.38 19.2815C1766.4 19.3554 1766.41 19.4328 1766.4 19.5093C1766.39 19.5858 1766.37 19.6599 1766.33 19.7274C1766.29 19.7949 1766.24 19.8545 1766.17 19.9026C1766.11 19.9508 1766.04 19.9867 1765.96 20.0082C1765.81 20.0518 1765.64 20.0347 1765.5 19.9606C1765.35 19.8864 1765.25 19.7613 1765.2 19.6127C1765.03 19.0501 1763.53 17.8985 1762.03 18.1271C1760.53 18.3556 1759.19 19.85 1758.97 20.7642C1758.93 20.8859 1758.86 20.9929 1758.75 21.0689C1758.64 21.145 1758.51 21.1861 1758.38 21.1861Z" fill="#C9CBCF"/>
<path d="M1770.32 19.2388C1770.26 19.2396 1770.2 19.2317 1770.15 19.2154C1770.07 19.1944 1770 19.159 1769.94 19.1113C1769.87 19.0636 1769.82 19.0045 1769.78 18.9373C1769.74 18.8701 1769.72 18.7961 1769.71 18.7196C1769.7 18.6431 1769.7 18.5656 1769.73 18.4916C1770.03 17.4279 1771.14 15.5409 1773.28 15.2156C1775.23 14.9226 1777.47 16.168 1778.09 17.4397C1778.13 17.51 1778.15 17.5861 1778.15 17.6635C1778.15 17.7409 1778.14 17.818 1778.11 17.8905C1778.08 17.9629 1778.04 18.0293 1777.98 18.0857C1777.93 18.1421 1777.86 18.1874 1777.79 18.2191C1777.71 18.2518 1777.63 18.2703 1777.55 18.2733C1777.47 18.2762 1777.39 18.2638 1777.31 18.2365C1777.24 18.2092 1777.17 18.1677 1777.11 18.1144C1777.05 18.0611 1777 17.9971 1776.97 17.9261C1776.59 17.1554 1774.91 16.1357 1773.46 16.3584C1771.93 16.5899 1771.11 18.055 1770.89 18.7993C1770.86 18.9219 1770.78 19.031 1770.68 19.1102C1770.58 19.1895 1770.45 19.2346 1770.32 19.2388Z" fill="#C9CBCF"/>
<path fill-rule="evenodd" clip-rule="evenodd" d="M1773.63 21.3263C1772.35 21.3248 1771.11 20.8349 1770.2 19.9643C1769.3 19.1014 1768.79 17.9342 1768.78 16.7148C1768.6 16.6857 1768.41 16.6708 1768.23 16.6703C1767.62 16.6704 1767.03 16.8303 1766.51 17.1279C1766.69 17.6105 1766.78 18.1219 1766.78 18.6423C1766.78 19.8736 1766.27 21.054 1765.36 21.9246C1764.45 22.7953 1763.21 23.2851 1761.92 23.2866C1760.64 23.2851 1759.4 22.7953 1758.49 21.9246C1757.69 21.1596 1757.2 20.1555 1757.09 19.0878L1756.14 19.2547C1756.09 19.2659 1756.04 19.2727 1756 19.2752C1755.82 19.2744 1755.65 19.2136 1755.51 19.1033C1755.37 18.993 1755.28 18.8402 1755.25 18.6716C1755.23 18.5773 1755.23 18.4805 1755.25 18.3868C1755.27 18.293 1755.31 18.2042 1755.37 18.1253C1755.43 18.0463 1755.5 17.9789 1755.58 17.9268C1755.67 17.8748 1755.76 17.8391 1755.86 17.8218L1757.2 17.5857C1757.4 16.7503 1757.85 15.9783 1758.49 15.3618C1759.4 14.4918 1760.64 14.0024 1761.92 14.0009C1763.21 14.0024 1764.44 14.4918 1765.35 15.3618C1765.51 15.5106 1765.65 15.6685 1765.79 15.8341C1766.52 15.4229 1767.37 15.2025 1768.23 15.2022C1768.49 15.2018 1768.75 15.2222 1769.01 15.2629C1769.25 14.5666 1769.65 13.9264 1770.2 13.3996C1771.11 12.529 1772.35 12.0392 1773.63 12.0376C1774.92 12.0392 1776.15 12.529 1777.06 13.3996C1777.27 13.5965 1777.46 13.8094 1777.62 14.0351C1777.63 14.0321 1777.65 14.0294 1777.66 14.0271L1778.81 13.8249C1779.01 13.7907 1779.22 13.8331 1779.38 13.9428C1779.55 14.0526 1779.66 14.2209 1779.7 14.411C1779.74 14.6018 1779.69 14.7986 1779.58 14.9585C1779.46 15.1183 1779.29 15.2281 1779.09 15.2636L1778.3 15.402C1778.42 15.8146 1778.49 16.2451 1778.49 16.682C1778.49 17.9132 1777.97 19.0937 1777.06 19.9643C1776.15 20.8349 1774.92 21.3248 1773.63 21.3263ZM1773.63 13.5027C1772.75 13.5035 1771.91 13.8387 1771.28 14.4347C1770.66 15.0308 1770.31 15.839 1770.31 16.682C1770.31 17.5247 1770.66 18.3324 1771.29 18.9284C1771.91 19.5242 1772.75 19.8596 1773.63 19.8612C1774.51 19.8596 1775.36 19.5242 1775.98 18.9284C1776.6 18.3324 1776.95 17.5247 1776.96 16.682C1776.96 15.839 1776.61 15.0308 1775.98 14.4347C1775.36 13.8387 1774.51 13.5035 1773.63 13.5027ZM1761.92 15.463C1761.04 15.4646 1760.2 15.8 1759.58 16.3959C1758.95 16.9918 1758.6 17.7995 1758.6 18.6423C1758.6 19.485 1758.95 20.2928 1759.58 20.8886C1760.2 21.4845 1761.04 21.82 1761.92 21.8216C1762.8 21.82 1763.65 21.4845 1764.27 20.8886C1764.9 20.2928 1765.25 19.485 1765.25 18.6423C1765.24 17.8001 1764.89 16.9931 1764.27 16.3978C1763.65 15.8025 1762.8 15.4675 1761.92 15.4659V15.463Z" fill="#C9CBCF"/>
</g>
<defs>
<linearGradient id="paint0_linear_18081_14687" x1="84.002" y1="0.999963" x2="84.0019" y2="36.6207" gradientUnits="userSpaceOnUse">
<stop stop-color="#E4E5E7"/>
<stop offset="1" stop-color="#E4E5E7" stop-opacity="0.7"/>
</linearGradient>
<linearGradient id="paint1_linear_18081_14687" x1="262.244" y1="0.500011" x2="262.244" y2="36.4999" gradientUnits="userSpaceOnUse">
<stop stop-color="#E4E5E7"/>
<stop offset="1" stop-color="#E4E5E7" stop-opacity="0.7"/>
</linearGradient>
<linearGradient id="paint2_linear_18081_14687" x1="422.998" y1="0.500007" x2="422.998" y2="36.4999" gradientUnits="userSpaceOnUse">
<stop stop-color="#E4E5E7"/>
<stop offset="1" stop-color="#E4E5E7" stop-opacity="0.7"/>
</linearGradient>
<linearGradient id="paint3_linear_18081_14687" x1="582.832" y1="0.5" x2="582.832" y2="35.5" gradientUnits="userSpaceOnUse">
<stop stop-color="#E4E5E7"/>
<stop offset="1" stop-color="#E4E5E7" stop-opacity="0.7"/>
</linearGradient>
<linearGradient id="paint4_linear_18081_14687" x1="704.61" y1="-1.49998" x2="704.61" y2="34.4999" gradientUnits="userSpaceOnUse">
<stop stop-color="#E4E5E7"/>
<stop offset="1" stop-color="#E4E5E7" stop-opacity="0.7"/>
</linearGradient>
<linearGradient id="paint5_linear_18081_14687" x1="704.61" y1="-1.49998" x2="704.61" y2="34.4999" gradientUnits="userSpaceOnUse">
<stop stop-color="#E4E5E7"/>
<stop offset="1" stop-color="#E4E5E7" stop-opacity="0.7"/>
</linearGradient>
<linearGradient id="paint6_linear_18081_14687" x1="704.61" y1="-1.49998" x2="704.61" y2="34.4999" gradientUnits="userSpaceOnUse">
<stop stop-color="#E4E5E7"/>
<stop offset="1" stop-color="#E4E5E7" stop-opacity="0.7"/>
</linearGradient>
<linearGradient id="paint7_linear_18081_14687" x1="704.61" y1="-1.49998" x2="704.61" y2="34.4999" gradientUnits="userSpaceOnUse">
<stop stop-color="#E4E5E7"/>
<stop offset="1" stop-color="#E4E5E7" stop-opacity="0.7"/>
</linearGradient>
<linearGradient id="paint8_linear_18081_14687" x1="704.61" y1="-1.49998" x2="704.61" y2="34.4999" gradientUnits="userSpaceOnUse">
<stop stop-color="#E4E5E7"/>
<stop offset="1" stop-color="#E4E5E7" stop-opacity="0.7"/>
</linearGradient>
<linearGradient id="paint9_linear_18081_14687" x1="814.989" y1="-3.97356" x2="814.989" y2="31.8707" gradientUnits="userSpaceOnUse">
<stop stop-color="#E4E5E7"/>
<stop offset="1" stop-color="#E4E5E7" stop-opacity="0.7"/>
</linearGradient>
<linearGradient id="paint10_linear_18081_14687" x1="998.958" y1="3.51767" x2="998.958" y2="39.5195" gradientUnits="userSpaceOnUse">
<stop stop-color="#E4E5E7"/>
<stop offset="1" stop-color="#E4E5E7" stop-opacity="0.7"/>
</linearGradient>
<clipPath id="clip0_18081_14687">
<rect width="129" height="35.9999" fill="white" transform="translate(1750)"/>
</clipPath>
</defs>
</svg>
