<svg width="116" height="116" viewBox="0 0 116 116" fill="none" xmlns="http://www.w3.org/2000/svg">
<g filter="url(#filter0_i_17778_18604)">
<rect x="2" y="2" width="112" height="112" rx="28" fill="url(#paint0_radial_17778_18604)"/>
</g>
<rect x="2.3" y="2.3" width="111.4" height="111.4" rx="27.7" stroke="url(#paint1_angular_17778_18604)" stroke-width="0.6"/>
<g filter="url(#filter1_f_17778_18604)">
<circle cx="58" cy="58" r="30" fill="#00E599" fill-opacity="0.3"/>
</g>
<g filter="url(#filter2_d_17778_18604)">
<path fill-rule="evenodd" clip-rule="evenodd" d="M30 39.6552C30 34.3228 34.3228 30 39.6552 30H76.3448C81.6772 30 86 34.3228 86 39.6552V70.8596C86 76.3763 79.019 78.7705 75.6332 74.4151L65.0483 60.7988V77.3103C65.0483 82.1095 61.1578 86 56.3586 86H39.6552C34.3228 86 30 81.6772 30 76.3448V39.6552ZM39.6552 37.7241C38.5887 37.7241 37.7241 38.5887 37.7241 39.6552V76.3448C37.7241 77.4113 38.5887 78.2759 39.6552 78.2759H56.6483C57.1815 78.2759 57.3241 77.8436 57.3241 77.3103V55.1684C57.3241 49.6518 64.3051 47.2575 67.6909 51.6129L78.2759 65.2292V39.6552C78.2759 38.5887 78.3768 37.7241 77.3103 37.7241H39.6552Z" fill="#12FFF7"/>
<path fill-rule="evenodd" clip-rule="evenodd" d="M30 39.6552C30 34.3228 34.3228 30 39.6552 30H76.3448C81.6772 30 86 34.3228 86 39.6552V70.8596C86 76.3763 79.019 78.7705 75.6332 74.4151L65.0483 60.7988V77.3103C65.0483 82.1095 61.1578 86 56.3586 86H39.6552C34.3228 86 30 81.6772 30 76.3448V39.6552ZM39.6552 37.7241C38.5887 37.7241 37.7241 38.5887 37.7241 39.6552V76.3448C37.7241 77.4113 38.5887 78.2759 39.6552 78.2759H56.6483C57.1815 78.2759 57.3241 77.8436 57.3241 77.3103V55.1684C57.3241 49.6518 64.3051 47.2575 67.6909 51.6129L78.2759 65.2292V39.6552C78.2759 38.5887 78.3768 37.7241 77.3103 37.7241H39.6552Z" fill="url(#paint2_linear_17778_18604)"/>
<path fill-rule="evenodd" clip-rule="evenodd" d="M30 39.6552C30 34.3228 34.3228 30 39.6552 30H76.3448C81.6772 30 86 34.3228 86 39.6552V70.8596C86 76.3763 79.019 78.7705 75.6332 74.4151L65.0483 60.7988V77.3103C65.0483 82.1095 61.1578 86 56.3586 86H39.6552C34.3228 86 30 81.6772 30 76.3448V39.6552ZM39.6552 37.7241C38.5887 37.7241 37.7241 38.5887 37.7241 39.6552V76.3448C37.7241 77.4113 38.5887 78.2759 39.6552 78.2759H56.6483C57.1815 78.2759 57.3241 77.8436 57.3241 77.3103V55.1684C57.3241 49.6518 64.3051 47.2575 67.6909 51.6129L78.2759 65.2292V39.6552C78.2759 38.5887 78.3768 37.7241 77.3103 37.7241H39.6552Z" fill="url(#paint3_linear_17778_18604)"/>
</g>
<path d="M76.3456 30C81.678 30 86.0008 34.3228 86.0008 39.6552V70.8596C86.0008 76.3763 79.0197 78.7705 75.634 74.4151L65.049 60.7988V77.3103C65.049 82.1095 61.1585 86 56.3594 86C56.8926 86 57.3249 85.5677 57.3249 85.0345V55.1684C57.3249 49.6518 64.3059 47.2575 67.6917 51.6129L78.2766 65.2292V31.931C78.2766 30.8646 77.4121 30 76.3456 30Z" fill="#B9FFB3"/>
<defs>
<filter id="filter0_i_17778_18604" x="-4" y="-4" width="118" height="118" filterUnits="userSpaceOnUse" color-interpolation-filters="sRGB">
<feFlood flood-opacity="0" result="BackgroundImageFix"/>
<feBlend mode="normal" in="SourceGraphic" in2="BackgroundImageFix" result="shape"/>
<feColorMatrix in="SourceAlpha" type="matrix" values="0 0 0 0 0 0 0 0 0 0 0 0 0 0 0 0 0 0 127 0" result="hardAlpha"/>
<feOffset dx="-6" dy="-6"/>
<feGaussianBlur stdDeviation="7"/>
<feComposite in2="hardAlpha" operator="arithmetic" k2="-1" k3="1"/>
<feColorMatrix type="matrix" values="0 0 0 0 0 0 0 0 0 0 0 0 0 0 0 0 0 0 0.08 0"/>
<feBlend mode="normal" in2="shape" result="effect1_innerShadow_17778_18604"/>
</filter>
<filter id="filter1_f_17778_18604" x="0" y="0" width="116" height="116" filterUnits="userSpaceOnUse" color-interpolation-filters="sRGB">
<feFlood flood-opacity="0" result="BackgroundImageFix"/>
<feBlend mode="normal" in="SourceGraphic" in2="BackgroundImageFix" result="shape"/>
<feGaussianBlur stdDeviation="14" result="effect1_foregroundBlur_17778_18604"/>
</filter>
<filter id="filter2_d_17778_18604" x="24" y="28" width="68" height="68" filterUnits="userSpaceOnUse" color-interpolation-filters="sRGB">
<feFlood flood-opacity="0" result="BackgroundImageFix"/>
<feColorMatrix in="SourceAlpha" type="matrix" values="0 0 0 0 0 0 0 0 0 0 0 0 0 0 0 0 0 0 127 0" result="hardAlpha"/>
<feOffset dy="4"/>
<feGaussianBlur stdDeviation="3"/>
<feComposite in2="hardAlpha" operator="out"/>
<feColorMatrix type="matrix" values="0 0 0 0 0.0470588 0 0 0 0 0.0509804 0 0 0 0 0.0509804 0 0 0 0.2 0"/>
<feBlend mode="normal" in2="BackgroundImageFix" result="effect1_dropShadow_17778_18604"/>
<feBlend mode="normal" in="SourceGraphic" in2="effect1_dropShadow_17778_18604" result="shape"/>
</filter>
<radialGradient id="paint0_radial_17778_18604" cx="0" cy="0" r="1" gradientUnits="userSpaceOnUse" gradientTransform="translate(58 2) rotate(90) scale(112)">
<stop offset="0.549694" stop-color="#18191B"/>
<stop offset="1" stop-color="#131415"/>
</radialGradient>
<radialGradient id="paint1_angular_17778_18604" cx="0" cy="0" r="1" gradientUnits="userSpaceOnUse" gradientTransform="translate(58 58) rotate(90) scale(56)">
<stop offset="0.00666236" stop-color="white" stop-opacity="0.1"/>
<stop offset="0.099154" stop-color="white" stop-opacity="0.05"/>
<stop offset="0.156879" stop-color="white" stop-opacity="0.05"/>
<stop offset="0.238673" stop-color="white" stop-opacity="0.2"/>
<stop offset="0.340853" stop-color="white" stop-opacity="0.05"/>
<stop offset="0.450692" stop-color="white" stop-opacity="0.05"/>
<stop offset="0.603296" stop-color="white" stop-opacity="0.4"/>
<stop offset="0.706861" stop-color="white" stop-opacity="0.05"/>
<stop offset="0.889783" stop-color="white" stop-opacity="0.05"/>
</radialGradient>
<linearGradient id="paint2_linear_17778_18604" x1="86" y1="86" x2="36.7586" y2="30" gradientUnits="userSpaceOnUse">
<stop stop-color="#B9FFB3"/>
<stop offset="1" stop-color="#B9FFB3" stop-opacity="0"/>
</linearGradient>
<linearGradient id="paint3_linear_17778_18604" x1="86" y1="86" x2="52.7379" y2="73.0621" gradientUnits="userSpaceOnUse">
<stop stop-color="#1A1A1A" stop-opacity="0.9"/>
<stop offset="1" stop-color="#1A1A1A" stop-opacity="0"/>
</linearGradient>
</defs>
</svg>
