<svg width="1959" height="36" viewBox="0 0 1959 36" fill="none" xmlns="http://www.w3.org/2000/svg">
<path fill-rule="evenodd" clip-rule="evenodd" d="M30.1918 6.72302C31.041 7.05106 31.4145 8.00234 31.0749 8.78962C30.8032 9.4129 30.1918 9.77374 29.5466 9.77374C29.3429 9.77374 29.1052 9.74092 28.9014 9.64252C24.7921 7.96954 20.4111 7.14946 15.9622 7.14946C15.0452 7.14946 14.3321 6.4278 14.3321 5.57491C14.3321 4.72203 15.0792 4.00036 15.9622 4.00036C20.8865 3.96756 25.675 4.88604 30.1918 6.72302ZM30.1832 13.0924C31.0321 13.4204 31.4057 14.3718 31.0661 15.159C30.7944 15.7823 30.1832 16.1431 29.5378 16.1431C29.334 16.1431 29.0963 16.1103 28.8926 16.0119C24.7833 14.3389 20.4363 13.5189 15.9534 13.5189C11.4366 13.5189 7.08958 14.3389 3.01425 15.9791C2.16523 16.3072 1.21432 15.9463 0.874706 15.1262C0.535096 14.3061 0.908664 13.3876 1.75769 13.0596C6.24055 11.2554 10.9951 10.337 15.9534 10.337C20.8778 10.337 25.6662 11.2554 30.1832 13.0924ZM25.0889 19.3869C25.2927 18.534 24.7154 17.7139 23.8325 17.5171C21.2174 16.9595 18.5684 16.697 15.9534 16.697C10.9951 16.697 6.24056 17.6155 1.75769 19.4197C0.908665 19.7477 0.535096 20.6662 0.874706 21.4863C1.1464 22.1096 1.7577 22.4704 2.40296 22.4704C2.64068 22.4704 2.84444 22.4048 3.04821 22.3392C7.12354 20.6662 11.4706 19.8461 15.9874 19.8461C18.3307 19.8461 20.7419 20.1086 23.1531 20.6006C24.0362 20.7974 24.8852 20.2398 25.0889 19.3869ZM15.9874 23.027C16.9043 23.027 17.6175 23.7487 17.6175 24.6016C17.6175 25.4544 16.8704 26.176 15.9874 26.176C11.4706 26.176 7.12354 26.9962 3.04821 28.6692L3.04819 28.6692C2.84443 28.7348 2.64067 28.8004 2.40295 28.8004C1.75769 28.8004 1.1464 28.4396 0.874706 27.8162C0.535096 26.9962 0.908664 26.0776 1.75769 25.7496C6.27451 23.9455 11.0291 23.027 15.9874 23.027ZM45.8434 27.9797V29.1847H42.5312V11.2294H45.8947V18.3222C46.4596 17.4542 47.846 16.6606 49.7203 16.6606C53.4178 16.6606 55.5488 19.4134 55.5488 23.0342C55.5488 26.7295 53.1865 29.4823 49.592 29.4823C47.846 29.4823 47.1271 29.3127 45.8434 27.9797ZM49.0014 26.5311C50.7473 26.5311 52.4761 25.3447 52.4761 23.1128C52.4761 20.8808 50.7473 19.6118 49.0014 19.6118C47.2812 19.6118 45.5224 20.8808 45.5224 23.1128C45.5224 25.3199 47.2812 26.5311 49.0014 26.5311ZM66.2241 29.1911H69.4849C69.4336 28.7695 69.3565 27.9263 69.3565 26.9839V16.9894H65.9417V24.0823C65.9417 25.4959 65.0688 26.4879 63.5539 26.4879C61.9618 26.4879 61.2429 25.3967 61.2429 24.0327V16.9894H57.8281V24.7023C57.8281 27.3559 59.574 29.5135 62.6294 29.5135C63.9647 29.5135 65.4282 29.0175 66.1214 27.8767C66.1214 28.3727 66.1728 28.9431 66.2241 29.1911ZM78.5308 19.6382C77.0417 19.6382 76.1687 20.7542 76.1687 22.1678V29.1863H72.7539V16.9846H76.1687V17.7218C77.1129 16.7744 78.636 16.8553 79.4999 16.9012L79.5 16.9012C79.6023 16.9067 79.6954 16.9116 79.7771 16.9143C81.9169 16.9846 84.2823 18.8198 84.2823 21.4982V29.1863H80.8675V22.0686C80.8675 20.7046 80.1741 19.6382 78.5308 19.6382ZM114.848 25.7905C115.002 27.1793 116.311 29.5601 120.111 29.5601C123.423 29.5601 125.015 27.5265 125.015 25.5425C125.015 23.7568 123.757 22.2936 121.267 21.7976L119.469 21.4256C118.776 21.3016 118.314 20.9296 118.314 20.3344C118.314 19.64 119.033 19.1192 119.932 19.1192C121.369 19.1192 121.909 20.0368 122.011 20.756L124.861 20.136C124.707 18.8216 123.5 16.6144 119.906 16.6144C117.184 16.6144 115.181 18.4248 115.181 20.6072C115.181 22.3184 116.285 23.732 118.725 24.2529L120.394 24.6249C121.369 24.8233 121.755 25.2697 121.755 25.8153C121.755 26.4601 121.215 27.0305 120.086 27.0305C118.596 27.0305 117.852 26.1377 117.775 25.1705L114.848 25.7905ZM133.293 19.6366C131.855 19.6366 131.007 20.6782 130.93 22.0174V29.1847H127.516V11.2294H130.93V17.9998C131.752 17.0574 133.139 16.6606 134.345 16.6606C137.555 16.6606 139.044 18.8182 139.044 21.4966V29.1847H135.629V22.067C135.629 20.703 134.936 19.6366 133.293 19.6366ZM144.745 21.6984C144.822 20.5824 145.798 19.2928 147.569 19.2928C149.521 19.2928 150.342 20.4832 150.394 21.6984H144.745ZM150.728 24.8729C150.317 25.9641 149.444 26.7329 147.852 26.7329C146.157 26.7329 144.745 25.5673 144.668 23.9552H153.706C153.706 23.9497 153.706 23.9387 153.708 23.9228L153.71 23.8943L153.713 23.8506L153.714 23.8454L153.714 23.8447L153.714 23.8442C153.728 23.6626 153.757 23.2934 153.757 22.9384C153.757 19.02 151.421 16.6144 147.518 16.6144C144.283 16.6144 141.305 19.144 141.305 23.0376C141.305 27.1545 144.36 29.5601 147.826 29.5601C150.933 29.5601 152.936 27.7993 153.577 25.6913L150.728 24.8729ZM159.603 11.2294V29.1847H156.188V11.2294H159.603ZM166.415 29.1847V11.2294H163V29.1847H166.415ZM117.769 11.2294L106.351 33.9959H102.73L113.994 11.2294H117.769ZM103.65 16.6593H99.8242L102.229 22.1071L103.432 24.831L104.034 26.1928L106.172 22.0161L105.332 20.2305L104.491 18.4449L103.65 16.6593ZM93.2339 19.6383C91.7448 19.6383 90.8718 20.7543 90.8718 22.168V29.1864H87.457V16.9847H90.8718V17.722C91.8159 16.7746 93.3391 16.8555 94.203 16.9014C94.3053 16.9068 94.3984 16.9118 94.4802 16.9144C96.62 16.9847 98.9854 18.8199 98.9854 21.4984V29.1864H95.5704V22.0688C95.5704 20.7047 94.8771 19.6383 93.2339 19.6383Z" fill="url(#paint0_linear_18081_14168)"/>
<path d="M269.847 11.75C265.025 11.75 261.549 14.7875 261.549 19.3437C261.549 23.9 265.462 26.9374 270.284 26.9374C273.197 26.9374 275.765 25.8237 277.355 23.9464L274.014 22.0817C273.131 23.014 271.791 23.5582 270.284 23.5582C268.192 23.5582 266.414 22.5036 265.755 20.8161H277.993C278.089 20.3436 278.146 19.8542 278.146 19.3395C278.146 14.7875 274.669 11.75 269.847 11.75ZM265.715 17.8672C266.261 16.1839 267.755 15.125 269.843 15.125C271.935 15.125 273.428 16.1839 273.97 17.8672H265.715ZM316.878 11.75C312.056 11.75 308.579 14.7875 308.579 19.3437C308.579 23.9 312.493 26.9374 317.314 26.9374C320.228 26.9374 322.796 25.8237 324.386 23.9464L321.044 22.0817C320.162 23.014 318.821 23.5582 317.314 23.5582C315.222 23.5582 313.445 22.5036 312.785 20.8161H325.023C325.119 20.3436 325.176 19.8542 325.176 19.3395C325.176 14.7875 321.699 11.75 316.878 11.75ZM312.75 17.8672C313.296 16.1839 314.79 15.125 316.878 15.125C318.97 15.125 320.463 16.1839 321.005 17.8672H312.75ZM295.703 19.3437C295.703 21.875 297.415 23.5625 300.071 23.5625C301.87 23.5625 303.22 22.7736 303.914 21.4868L307.269 23.3557C305.88 25.5917 303.277 26.9374 300.071 26.9374C295.245 26.9374 291.772 23.9 291.772 19.3437C291.772 14.7875 295.249 11.75 300.071 11.75C303.277 11.75 305.876 13.0958 307.269 15.3317L303.914 17.2006C303.22 15.9139 301.87 15.125 300.071 15.125C297.42 15.125 295.703 16.8125 295.703 19.3437ZM331.727 7.10937V26.5156H327.797V7.10937H331.727ZM224.384 5L240.523 31.9999H208.246L224.384 5ZM264.733 7.10937L252.63 27.3593L240.527 7.10937H245.065L252.63 19.7656L260.195 7.10937H264.733ZM290.462 12.1719V16.2598C290.025 16.1375 289.562 16.0531 289.065 16.0531C286.527 16.0531 284.697 17.7406 284.697 20.2718V26.5156H280.766V12.1719H284.697V16.0531C284.697 13.91 287.278 12.1719 290.462 12.1719Z" fill="url(#paint1_linear_18081_14168)"/>
<path fill-rule="evenodd" clip-rule="evenodd" d="M374.997 3.5C373.924 3.5 373.055 4.34022 373.055 5.37624V11.6246C373.055 12.6606 373.924 13.5008 374.997 13.5008H385.994V23.4991H374.997C373.924 23.4991 373.055 24.3393 373.055 25.3754V31.6237C373.055 32.6597 373.924 33.4999 374.997 33.4999H384.052C385.124 33.4999 385.994 32.6597 385.994 31.6237V23.5041H396.991C398.064 23.5041 398.933 22.6639 398.933 21.6278V15.377C398.933 14.341 398.064 13.5008 396.991 13.5008H385.997V5.37624C385.997 4.34022 385.127 3.5 384.055 3.5H374.997ZM497.33 7.98757C497.33 7.68271 497.068 7.44726 496.732 7.44726H494.269C493.933 7.44726 493.671 7.70006 493.671 7.98757V11.4501H489.844C489.508 11.4501 489.246 11.7029 489.246 11.9904V13.7749C489.246 14.0798 489.508 14.3152 489.844 14.3152H493.671V19.6192C493.671 23.6766 495.649 25.5528 499.908 25.5528H503.379C503.715 25.5528 503.976 25.3 503.976 25.0125V23.228C503.976 22.9231 503.715 22.6876 503.379 22.6876H500.467C498.15 22.6876 497.33 21.8028 497.33 19.6019V14.335H503.807C504.143 14.3152 504.405 14.0624 504.405 13.7749V11.9904C504.405 11.6855 504.143 11.4501 503.807 11.4501H497.33V7.98757ZM485.381 11.9929C485.381 11.688 485.119 11.4525 484.783 11.4525V11.455H477.259C476.923 11.455 476.661 11.7078 476.661 11.9953V13.7799C476.661 14.0847 476.923 14.3202 477.259 14.3202H481.72V22.6901H477.259C476.923 22.6901 476.661 22.9429 476.661 23.2304V25.015C476.661 25.3198 476.923 25.5553 477.259 25.5553H489.954C490.29 25.5553 490.552 25.3025 490.552 25.015V23.2304C490.552 22.9256 490.29 22.6901 489.954 22.6901H485.381V11.9929ZM485.529 6.54508C485.511 6.24022 485.25 6.00476 484.932 6.00476H481.571C481.235 6.00476 480.973 6.25757 480.973 6.54508V8.83522C480.973 9.14008 481.235 9.37554 481.571 9.37554H484.932C485.268 9.37554 485.529 9.12273 485.529 8.83522V6.54508ZM470.032 22.6901H473.842C474.178 22.6901 474.44 22.9231 474.44 23.2304V25.015C474.44 25.3025 474.178 25.5553 473.842 25.5553H461.426C461.09 25.5553 460.828 25.3223 460.828 25.015V23.2304C460.828 22.9429 461.09 22.6901 461.426 22.6901H466.374V8.8724H461.967C461.631 8.8724 461.369 8.63942 461.369 8.33209V6.54508C461.369 6.25757 461.631 6.00476 461.967 6.00476H469.435C469.771 6.00476 470.032 6.23774 470.032 6.54508V22.6901ZM450.672 12.0994C451.38 11.4501 452.296 11.1799 453.566 11.1799C457.283 11.1799 459.448 13.5989 459.463 18.5213C459.463 23.4461 457.28 25.8626 453.658 25.8626C452.409 25.8626 451.568 25.5553 450.878 24.9431L450 24.1326L449.179 24.3135L449.497 26.4599V30.4652C449.497 30.7527 449.236 31.0055 448.9 31.0055H446.434C446.098 31.0055 445.837 30.7725 445.837 30.4652V11.9929C445.837 11.7053 446.098 11.4525 446.434 11.4525H448.115C448.397 11.4525 448.62 11.631 448.694 11.8664L448.992 12.9124H449.795L450.672 12.0994ZM449.477 20.2364C449.477 21.9862 450.503 22.9057 452.353 22.9057C454.613 22.9057 455.621 21.5351 455.639 18.489C455.639 15.4752 454.613 14.1045 452.353 14.1045C450.485 14.1045 449.477 15.0241 449.477 16.7739V20.2364ZM428.175 18.5039C428.175 13.5965 430.696 11.1799 435.401 11.1799C440.237 11.1799 442.571 13.6163 442.009 19.0467H431.797C431.946 21.9515 433.067 23.1957 435.419 23.1957C436.933 23.1957 438.051 22.6901 438.444 21.6268C438.536 21.4087 438.759 21.265 439.003 21.265H441.242C441.617 21.265 441.914 21.5897 441.822 21.9317C441.206 24.4028 438.89 25.8453 435.306 25.8453C430.676 25.8453 428.175 23.4287 428.175 18.5039ZM435.383 13.7253C433.367 13.7253 432.264 14.7167 431.91 16.8458H438.595C438.539 14.8258 437.53 13.7253 435.383 13.7253ZM420.053 12.895L420.895 12.0821C421.623 11.4327 422.724 11.1799 424.122 11.1997H426.025C426.361 11.1997 426.623 11.4327 426.623 11.74V13.7055C426.623 13.993 426.361 14.2458 426.025 14.2458H422.813C420.836 14.2458 419.827 15.1108 419.827 16.7714V22.6876H424.104C424.44 22.6876 424.701 22.9206 424.701 23.228V25.0125C424.701 25.3 424.44 25.5528 424.104 25.5528H412.473C412.137 25.5528 411.875 25.3198 411.875 25.0125V23.228C411.875 22.9404 412.137 22.6876 412.473 22.6876H416.169V14.3177H412.996C412.66 14.3177 412.398 14.0847 412.398 13.7774V11.9929C412.398 11.7053 412.66 11.4525 412.996 11.4525H418.373C418.655 11.4525 418.896 11.6136 418.953 11.8664L419.214 12.895H420.053Z" fill="url(#paint2_linear_18081_14168)"/>
<path fill-rule="evenodd" clip-rule="evenodd" d="M579.612 0.703915C581.613 3.01605 582.234 9.27889 581.202 12.4182C580.859 13.462 580.762 14.5649 580.96 15.6363C581.161 16.6998 581.363 17.9839 581.363 18.8779C581.363 28.0557 573.744 35.5 564.343 35.5C554.945 35.5 547.323 28.0596 547.323 18.8779C547.323 17.9839 547.524 16.6998 547.726 15.6363C547.928 14.5649 547.835 13.462 547.492 12.4182C546.46 9.2828 547.081 3.01998 549.081 0.703915C549.343 0.404558 549.831 0.443948 550.049 0.778752L552.513 4.55614C553.127 5.30847 554.224 5.48576 555.046 4.95794C557.72 3.24845 560.915 2.25584 564.347 2.25584C567.779 2.25584 570.973 3.24845 573.647 4.95794C574.474 5.48576 575.571 5.31242 576.18 4.55614L578.644 0.778752C578.862 0.443948 579.35 0.40062 579.612 0.703915ZM551.166 18.9174C551.166 26.0152 557.075 31.7898 564.343 31.7898C571.611 31.7898 577.523 26.0152 577.527 18.9213C577.527 18.6928 577.519 18.4605 577.507 18.232C577.245 13.399 574.236 9.26312 569.981 7.29368C568.271 6.49409 566.363 6.05294 564.347 6.05294C562.33 6.05294 560.419 6.49409 558.713 7.28977C554.457 9.25921 551.449 13.3911 551.187 18.2281C551.174 18.4565 551.166 18.685 551.166 18.9174ZM566.685 18.1664L570.052 23.87C570.121 23.9842 570.121 24.126 570.052 24.2363C569.988 24.3505 569.863 24.4214 569.726 24.4214H566.987C566.854 24.4214 566.729 24.3505 566.66 24.2363L564.862 21.1915L562.857 24.248C562.789 24.3544 562.668 24.4175 562.539 24.4175H559.76C559.618 24.4175 559.489 24.3425 559.425 24.2244C559.36 24.1062 559.364 23.9606 559.441 23.8464L563.148 18.3239L560.385 13.7903C560.316 13.676 560.312 13.5343 560.381 13.42C560.449 13.3018 560.574 13.2309 560.711 13.2309H563.47C563.603 13.2309 563.728 13.2979 563.797 13.4121L566.685 18.1664ZM597.06 9.35987H600.573V28.1719H597.06V20.1564H593.091V28.176H589.578V9.35987H593.091V17.5291H597.06V9.35987ZM610.677 24.2724L611.411 28.1797H614.944L610.882 9.36753H606.152L602.276 28.1797H605.789L606.462 24.2724H610.677ZM610.189 21.6765H606.922L608.511 12.6722L610.189 21.6765ZM622.769 24.7488V20.7233C622.769 20.4043 622.709 20.1916 622.588 20.0813C622.467 19.971 622.241 19.9159 621.914 19.9159H619.442C617.344 19.9159 616.296 18.9233 616.296 16.9341V12.3178C616.296 10.3483 617.393 9.36753 619.591 9.36753H622.951C625.149 9.36753 626.246 10.3522 626.246 12.3178V14.941H622.705V12.7944C622.705 12.4753 622.644 12.2626 622.523 12.1523C622.402 12.042 622.176 11.9869 621.85 11.9869H620.688C620.341 11.9869 620.107 12.042 619.986 12.1523C619.865 12.2626 619.805 12.4753 619.805 12.7944V16.5796C619.805 16.8987 619.865 17.1114 619.986 17.2217C620.107 17.332 620.341 17.3871 620.688 17.3871H623.1C625.237 17.3871 626.306 18.36 626.306 20.3098V25.2295C626.306 27.1989 625.197 28.1797 622.979 28.1797H619.68C617.462 28.1797 616.352 27.195 616.352 25.2295V22.6337H619.861V24.7488C619.861 25.0678 619.922 25.2807 620.043 25.391C620.164 25.5011 620.398 25.5564 620.745 25.5564H621.906C622.233 25.5564 622.454 25.5011 622.58 25.391C622.705 25.2807 622.769 25.0678 622.769 24.7488ZM639.187 9.35987H635.678V24.7452C635.678 25.0642 635.618 25.2769 635.497 25.3872C635.376 25.4975 635.142 25.5525 634.795 25.5525H633.178C632.851 25.5525 632.625 25.4975 632.505 25.3872C632.383 25.2769 632.323 25.0642 632.323 24.7452V9.35987H628.81V25.2218C628.81 27.1872 629.919 28.1719 632.137 28.1719H635.86C638.078 28.1719 639.187 27.1911 639.187 25.2218V9.35987ZM645.6 20.8417V28.176H642.09V9.35987H649.173C651.391 9.35987 652.5 10.3446 652.5 12.3101V17.8876C652.5 19.5183 651.758 20.4715 650.27 20.7511L653.476 28.176H649.689L646.757 20.8417H645.6ZM645.6 11.9832V18.3051H648.132C648.459 18.3051 648.681 18.25 648.806 18.1397C648.927 18.0294 648.987 17.8167 648.987 17.4976V12.7907C648.987 12.4716 648.927 12.2589 648.806 12.1486C648.685 12.0383 648.459 11.9832 648.132 11.9832H645.6ZM662.392 24.2724L663.126 28.1797H666.663L662.602 9.36753H657.871L653.995 28.1797H657.504L658.177 24.2724H662.392ZM661.908 21.6765H658.641L660.23 12.6722L661.908 21.6765Z" fill="url(#paint3_linear_18081_14168)"/>
<path d="M708.406 5.25V12.2625H715.666V5.25H708.406Z" fill="url(#paint4_linear_18081_14168)"/>
<path d="M715.666 14.8125H708.406V30.7499H715.666V14.8125Z" fill="url(#paint5_linear_18081_14168)"/>
<path d="M725.566 30.7499H718.306V5.25H725.566V30.7499Z" fill="url(#paint6_linear_18081_14168)"/>
<path d="M728.206 5.25V30.7499H735.466V5.25H728.206Z" fill="url(#paint7_linear_18081_14168)"/>
<path fill-rule="evenodd" clip-rule="evenodd" d="M751.306 5.25C758.597 5.25 764.506 10.9583 764.506 18V30.7499H757.246V29.3892C755.461 30.2596 753.443 30.7499 751.306 30.7499C744.016 30.7499 738.106 25.0416 738.106 18C738.106 10.9583 744.016 5.25 751.306 5.25ZM751.306 23.7375C754.587 23.7375 757.246 21.1687 757.246 18C757.246 14.8313 754.587 12.2625 751.306 12.2625C748.026 12.2625 745.366 14.8313 745.366 18C745.366 21.1687 748.026 23.7375 751.306 23.7375Z" fill="url(#paint8_linear_18081_14168)"/>
<path fill-rule="evenodd" clip-rule="evenodd" d="M873.762 4.09115L873.78 21.5585C873.78 24.4702 874.893 25.5111 877.828 25.5189C878.661 25.5189 880.176 25.3067 880.856 24.89V21.6481H878.609L878.601 7.13025V3.5L873.762 4.09115ZM844.461 14.8684H846.321L846.319 21.368C846.319 24.6099 848.205 25.6506 850.926 25.6506C852.745 25.6506 854.265 25.2938 855.687 24.4605L854.976 21.6305C854.172 21.8679 853.461 22.0471 852.75 22.0471C851.509 22.0471 851.019 21.6006 851.019 20.1134V14.8668H855.378L855.388 11.7129H851.022V7.26514L846.36 7.89403V11.7145H844.461V14.8684ZM837.345 10.97C832.854 10.97 829.586 13.7952 829.586 18.7021C829.586 23.2239 832.152 25.6325 836.79 25.6262C840.004 25.6262 842.57 24.8228 843.869 23.6043L842.822 20.6926C841.25 21.4963 839.5 21.9244 837.72 21.9409C834.938 21.9409 834.072 20.2493 834.072 18.1676C834.072 15.4005 835.742 14.509 837.133 14.509C837.782 14.509 838.339 14.5688 838.586 14.7464L839.328 16.7102L842.513 16.5011C842.851 15.835 843.019 15.1009 843.003 14.3597C843.003 11.5643 839.973 10.97 837.345 10.97ZM856.789 18.7864C856.789 14.1766 859.386 11.0227 864.673 11.0227C869.311 11.0227 871.69 13.5807 871.69 17.8053C871.69 22.9795 868.847 25.627 863.715 25.627C859.819 25.627 856.789 23.4857 856.789 18.7864ZM864.178 14.2945C862.38 14.2945 861.458 15.6041 861.458 18.2518C861.458 20.6007 862.045 22.4449 864.209 22.4449C866.372 22.4449 867.023 20.9575 867.023 18.31C867.023 15.9312 866.281 14.2945 864.178 14.2945ZM883.821 15.5185V11.3945H888.476C888.476 11.3945 888.459 12.0077 888.459 15.2795V25.1986H883.812C883.821 24.4628 883.821 16.8863 883.821 15.5185ZM883.39 6.98288C883.39 5.46569 884.625 4.60254 886.332 4.60254C887.722 4.60254 888.866 5.31632 888.866 6.83352C888.866 8.40574 887.784 9.3019 885.898 9.3019C884.344 9.29562 883.387 8.35228 883.387 6.98288H883.39ZM896.859 22.2678C895.406 22.2678 893.458 21.8527 892.097 20.7223L890.984 23.6577C892.097 24.9359 894.571 25.6796 897.013 25.6796C900.847 25.6796 903.444 23.8699 903.444 20.8057C903.444 17.6121 900.586 17.081 898.318 16.6596C896.827 16.3825 895.591 16.1529 895.591 15.2447C895.591 14.5309 896.333 14.2338 897.633 14.2338C898.652 14.2338 900.1 14.4115 901.898 15.1551L902.701 12.2402C901.094 11.0799 898.867 10.8724 897.57 10.8724C893.552 10.8724 891.51 12.8943 891.51 15.4224C891.51 17.9851 893.643 18.8184 895.684 19.353C895.773 19.3766 895.868 19.4012 895.967 19.427C897.246 19.7608 899.27 20.2887 899.27 21.227C899.27 21.9408 898.126 22.2678 896.859 22.2678ZM819.265 14.1263C820.373 14.1263 821.272 13.2619 821.272 12.1956C821.272 11.1293 820.373 10.2649 819.265 10.2649C818.156 10.2649 817.258 11.1293 817.258 12.1956C817.258 13.2619 818.156 14.1263 819.265 14.1263ZM818.594 5.0148C824.899 5.0148 828.302 8.43752 828.302 14.8632C828.302 20.1757 826.131 23.4789 822.384 24.8594C822.646 25.4592 822.845 26.0828 822.977 26.7209C823.062 27.2228 823.111 27.7297 823.123 28.238C823.14 28.6844 822.984 29.1211 822.687 29.4637C822.389 29.8063 821.969 30.0306 821.51 30.0933C821.24 30.1317 820.965 30.1134 820.703 30.0396C820.441 29.9658 820.199 29.8382 819.994 29.6658C819.788 29.4933 819.624 29.28 819.512 29.0406C819.401 28.8012 819.345 28.5413 819.348 28.2789C819.361 27.9508 819.341 27.6223 819.289 27.2979C819.016 25.9725 818.578 25.6329 817.952 25.6077H817.733C817.504 25.6077 817.28 25.6014 817.056 25.592C816.956 26.3759 816.795 27.1516 816.576 27.9126C816.099 29.7411 815.262 31.9422 814.138 31.7173C812.819 31.4548 811.335 30.5303 812.054 28.2301C812.144 27.9291 812.237 27.6388 812.325 27.3612C812.774 25.9617 813.117 24.8888 812.381 24.427L812.152 24.2949C811.51 23.8925 810.851 24.1456 810.085 25.2776C809.91 25.56 809.765 25.858 809.65 26.1674C809.551 26.4119 809.398 26.6327 809.202 26.8148C809.005 26.997 808.77 27.1359 808.513 27.2223C808.255 27.3086 807.981 27.3403 807.71 27.3151C807.439 27.2899 807.176 27.2084 806.94 27.0762C806.538 26.8529 806.236 26.4941 806.092 26.069C805.948 25.6439 805.974 25.1827 806.163 24.7745C806.371 24.3073 806.612 23.8545 806.885 23.4192C807.484 22.4973 808.261 21.6938 809.173 21.0514C808.46 19.594 808.076 17.7702 808.076 15.5486C808.076 8.76769 812.289 5.0148 818.594 5.0148ZM813.195 15.1038C813.195 19.0076 814.474 21.7998 818.22 21.7998C821.497 21.7998 823.214 19.8785 823.214 15.2546C823.214 11.0506 821.466 8.85887 818.282 8.85887C815.099 8.85887 813.195 11.016 813.195 15.1038Z" fill="url(#paint9_linear_18081_14168)"/>
<path fill-rule="evenodd" clip-rule="evenodd" d="M989.878 30.4988L989.545 31.6146C989.51 31.7286 989.437 31.8283 989.337 31.8988C989.238 31.9693 989.117 32.0068 988.994 32.0056H945.561C945.45 32.0051 945.344 31.9663 945.261 31.8961C945.178 31.8259 945.124 31.7292 945.109 31.6236C944.902 30.2866 944.991 28.9223 945.37 27.6211C945.75 26.3198 946.412 25.1114 947.311 24.0757C948.211 23.0401 949.328 22.2009 950.589 21.6138C951.85 21.0266 953.225 20.7049 954.625 20.67C954.272 19.3247 954.36 17.907 954.875 16.6115C955.39 15.316 956.307 14.2062 957.501 13.4345C958.695 12.6628 960.107 12.2669 961.543 12.3012C962.98 12.3355 964.37 12.7984 965.523 13.6262C966.609 10.5431 968.708 7.88727 971.502 6.06315C974.295 4.23903 977.629 3.34655 980.996 3.5216C984.362 3.69665 987.578 4.92964 990.152 7.03283C992.726 9.13602 994.519 11.9942 995.256 15.1721C995.267 15.2257 995.273 15.28 995.275 15.3345C995.276 15.4373 995.257 15.5394 995.219 15.6353L993.867 19.0519C992.799 21.7467 989.735 23.9543 986.933 24.0776L963.187 24.3784C963.066 24.3866 962.949 24.4292 962.852 24.5008C962.755 24.5725 962.683 24.67 962.643 24.7814C962.616 24.8479 962.606 24.9196 962.615 24.9904C962.623 25.0612 962.649 25.1291 962.69 25.1882C962.731 25.2473 962.787 25.2958 962.852 25.3297C962.917 25.3636 962.989 25.3819 963.063 25.3829L986.581 25.6716C987.823 25.7288 988.839 26.216 989.461 27.0461C990.128 27.9484 990.274 29.1725 989.878 30.4988ZM996.742 15.9076C996.97 15.8955 997.188 15.8895 997.396 15.8895H997.402C999.387 15.8919 1001.34 16.3377 1003.12 17.1921C1004.9 18.0464 1006.45 19.2863 1007.65 20.8146C1008.85 22.343 1009.66 24.1184 1010.03 26.0021C1010.4 27.8859 1010.32 29.8269 1009.78 31.6734C1009.76 31.7758 1009.69 31.8665 1009.61 31.9304C1009.52 31.9943 1009.41 32.0278 1009.3 32.0253H991.358C991.314 32.0229 991.271 32.0105 991.233 31.9891C991.195 31.9677 991.163 31.9379 991.139 31.9021C991.115 31.8664 991.1 31.8257 991.095 31.7833C991.091 31.7409 991.096 31.6981 991.112 31.6583L991.489 30.7079C992.557 28.0161 995.605 25.8116 998.436 25.6853L1003.65 25.3845C1003.77 25.3763 1003.88 25.3337 1003.98 25.262C1004.08 25.1904 1004.15 25.0928 1004.19 24.9815C1004.22 24.9137 1004.22 24.8409 1004.22 24.7692C1004.21 24.6975 1004.18 24.629 1004.14 24.5694C1004.1 24.5137 1004.04 24.4678 1003.98 24.4354C1003.92 24.403 1003.85 24.385 1003.78 24.383L998.766 24.0822C998.209 24.0817 997.66 23.9574 997.161 23.7191C996.662 23.4807 996.227 23.1347 995.889 22.7077C995.219 21.8055 995.073 20.5814 995.471 19.255L996.406 16.1692C996.422 16.1134 996.451 16.0623 996.493 16.0203C996.534 15.9783 996.585 15.9468 996.642 15.9286C996.674 15.9156 996.708 15.9085 996.742 15.9076ZM1030.02 21.4623H1032.98V29.3001H1038.17V31.8114H1030.02V21.4623ZM1041.25 26.6508V26.6778C1041.25 29.6403 1043.71 32.0314 1047.01 32.0314C1050.3 32.0314 1052.79 29.6223 1052.79 26.6508V26.6207C1052.79 23.6492 1050.33 21.2672 1047.04 21.2672C1043.74 21.2672 1041.25 23.6793 1041.25 26.6508ZM1049.76 26.6508V26.6778C1049.76 28.1726 1048.66 29.4448 1047.04 29.4448C1045.42 29.4448 1044.3 28.1546 1044.3 26.6508V26.6207C1044.3 25.1259 1045.37 23.8567 1047.01 23.8567C1048.65 23.8567 1049.76 25.147 1049.76 26.6508ZM1056.42 27.2792V21.4625H1059.44V27.213C1059.44 28.7168 1060.21 29.4176 1061.41 29.4176C1062.6 29.4176 1063.38 28.7379 1063.38 27.2882V21.4625H1066.4V27.198C1066.4 30.5394 1064.42 32.0101 1061.38 32.0101C1058.33 32.0101 1056.42 30.5063 1056.42 27.2792ZM1075.08 21.4623H1070.95V31.8084H1075.02C1078.88 31.8084 1081.13 29.5918 1081.13 26.6053V26.5752C1081.13 23.5917 1078.91 21.4623 1075.08 21.4623ZM1078.08 26.6624C1078.08 28.3346 1076.9 29.282 1075.13 29.282L1073.91 29.27V24.0157H1075.13C1076.9 24.0157 1078.08 24.9782 1078.08 26.6353V26.6624ZM1085.44 21.4623H1094.01V23.9766H1088.41V25.7361H1093.48V28.1151H1088.41V31.8114H1085.44V21.4623ZM1101.11 21.4623H1098.14V31.8114H1106.3V29.3001H1101.11V21.4623ZM1114.09 21.3871H1116.95L1121.5 31.8084H1118.32L1117.54 29.9617H1113.4L1112.64 31.8084H1109.52L1114.09 21.3871ZM1116.69 27.7271L1115.5 24.7857L1114.27 27.7271H1116.69ZM1130.38 21.4623H1125.32V31.8114H1128.29V28.6775H1129.59L1131.75 31.8114H1135.17L1132.62 28.2023C1133.28 27.9629 1133.86 27.527 1134.25 26.9564C1134.65 26.3859 1134.85 25.7096 1134.82 25.0233V24.9932C1134.85 24.5505 1134.77 24.108 1134.61 23.6938C1134.45 23.2796 1134.2 22.9028 1133.87 22.5871C1133.15 21.8773 1132.02 21.4623 1130.38 21.4623ZM1131.84 25.2037C1131.84 25.9556 1131.26 26.4308 1130.25 26.4308H1128.29V23.9466H1130.23C1131.22 23.9466 1131.84 24.3586 1131.84 25.1736V25.2037ZM1139.11 21.4625H1147.73V23.9017H1142.05V25.4686H1147.19V27.7303H1142.05V29.3725H1147.8V31.8116H1139.11V21.4625ZM1022.53 29.0137C1022.97 28.7372 1023.31 28.3413 1023.52 27.8763L1026.65 27.8884C1026.07 30.2584 1023.86 32.0268 1021.03 32.0268C1017.72 32.0268 1015.28 29.6448 1015.28 26.6733V26.6432C1015.28 23.6657 1017.76 21.2596 1021.06 21.2596C1023.97 21.2596 1026.21 23.0913 1026.69 25.5545H1023.58C1023.39 25.049 1023.04 24.6124 1022.59 24.3049C1022.13 23.9973 1021.59 23.8339 1021.03 23.8371C1019.41 23.8371 1018.32 25.1003 1018.32 26.6041V26.6342C1018.32 28.126 1019.44 29.4283 1021.06 29.4283C1021.59 29.4344 1022.1 29.2901 1022.53 29.0137Z" fill="url(#paint10_linear_18081_14168)"/>
<path d="M1256.4 13.8574C1254.71 13.8574 1253.31 14.2396 1252.24 14.9785C1251.14 15.7174 1250.55 16.762 1250.36 18.0869H1252.64C1252.78 17.399 1253.2 16.8385 1253.85 16.4308C1254.46 16.0231 1255.3 15.8193 1256.26 15.8193C1257.39 15.8193 1258.25 16.0486 1258.89 16.5582C1259.51 17.0678 1259.8 17.7557 1259.8 18.622V19.5393H1255.62C1253.74 19.5393 1252.35 19.9215 1251.38 20.6349C1250.39 21.3482 1249.91 22.4184 1249.91 23.7688C1249.91 24.9917 1250.39 25.9345 1251.35 26.6479C1252.29 27.3613 1253.55 27.7181 1255.14 27.7181C1257.2 27.7181 1258.78 26.9537 1259.91 25.4504L1260.1 27.5652H1262.08V18.7749C1262.08 17.2207 1261.57 15.9977 1260.61 15.1568C1259.61 14.2906 1258.19 13.8574 1256.4 13.8574ZM1259.83 22.0362C1259.83 23.1828 1259.43 24.1 1258.62 24.788C1257.82 25.5014 1256.72 25.858 1255.32 25.858C1254.38 25.858 1253.63 25.6542 1253.07 25.2465C1252.51 24.8389 1252.24 24.3039 1252.24 23.6413C1252.24 22.1382 1253.31 21.3992 1255.43 21.3992H1259.83V22.0362Z" fill="#C9CBCF"/>
<path d="M1266.9 8.81738C1266.47 8.81738 1266.12 8.94477 1265.82 9.22504C1265.53 9.50531 1265.39 9.83654 1265.39 10.2442C1265.39 10.6519 1265.53 10.9831 1265.82 11.2634C1266.12 11.5436 1266.47 11.671 1266.9 11.671C1267.33 11.671 1267.67 11.5436 1267.97 11.2634C1268.26 10.9831 1268.4 10.6519 1268.4 10.2442C1268.4 9.83654 1268.26 9.50531 1267.97 9.22504C1267.67 8.94477 1267.3 8.81738 1266.9 8.81738Z" fill="#C9CBCF"/>
<path d="M1263.5 16.025H1265.76V27.5415H1268.04V14.0376H1263.5V16.025Z" fill="#C9CBCF"/>
<path d="M1291.18 14.703C1290.16 14.1425 1288.95 13.8877 1287.64 13.8877C1285.58 13.8877 1283.97 14.6521 1282.76 16.2063L1282.46 14.0406H1280.48V32.8441H1282.76V25.4807C1283.24 26.1686 1283.89 26.7037 1284.69 27.0859C1285.49 27.4936 1286.51 27.6973 1287.64 27.6973C1288.95 27.6973 1290.13 27.4171 1291.15 26.831C1292.17 26.2451 1293 25.4298 1293.59 24.3851C1294.18 23.3405 1294.45 22.1429 1294.45 20.7925C1294.45 19.3657 1294.18 18.1173 1293.59 17.0726C1293 16.0534 1292.2 15.2381 1291.18 14.703ZM1290.86 24.3596C1290 25.2769 1288.85 25.761 1287.43 25.761C1286.51 25.761 1285.71 25.5571 1285.01 25.124C1284.29 24.6908 1283.73 24.0794 1283.35 23.315C1282.95 22.5505 1282.76 21.7098 1282.76 20.7161C1282.76 19.7734 1282.95 18.9071 1283.35 18.1427C1283.75 17.4038 1284.29 16.8178 1285.01 16.3847C1285.71 15.977 1286.51 15.7732 1287.43 15.7732C1288.85 15.7732 1290 16.2318 1290.86 17.149C1291.72 18.0663 1292.15 19.2892 1292.15 20.7416C1292.15 22.2449 1291.72 23.4424 1290.86 24.3596Z" fill="#C9CBCF"/>
<path d="M1271.18 16.6619V27.5415H1273.46V16.025H1278.4V14.0376H1273.95C1272.42 14.0376 1271.18 15.1842 1271.18 16.6619Z" fill="#C9CBCF"/>
<path d="M1299.38 8.99756H1297.11V27.5463H1299.38V8.99756Z" fill="#C9CBCF"/>
<path d="M1308.45 13.8574C1306.76 13.8574 1305.37 14.2396 1304.29 14.9785C1303.19 15.7174 1302.6 16.762 1302.42 18.0869H1304.7C1304.83 17.399 1305.26 16.8385 1305.9 16.4308C1306.52 16.0231 1307.35 15.8193 1308.32 15.8193C1309.44 15.8193 1310.3 16.0486 1310.94 16.5582C1311.56 17.0678 1311.86 17.7557 1311.86 18.622V19.5393H1307.67C1305.8 19.5393 1304.4 19.9215 1303.44 20.6349C1302.44 21.3482 1301.96 22.4184 1301.96 23.7688C1301.96 24.9917 1302.44 25.9345 1303.41 26.6479C1304.35 27.3613 1305.61 27.7181 1307.19 27.7181C1309.25 27.7181 1310.84 26.9537 1311.96 25.4504L1312.15 27.5652H1314.14V18.7749C1314.14 17.2207 1313.63 15.9977 1312.66 15.1568C1311.67 14.2906 1310.25 13.8574 1308.45 13.8574ZM1311.88 22.0362C1311.88 23.1828 1311.48 24.1 1310.68 24.788C1309.87 25.5014 1308.77 25.858 1307.38 25.858C1306.44 25.858 1305.69 25.6542 1305.13 25.2465C1304.56 24.8389 1304.29 24.3039 1304.29 23.6413C1304.29 22.1382 1305.37 21.3992 1307.48 21.3992H1311.88V22.0362Z" fill="#C9CBCF"/>
<path d="M1324.03 13.8572C1322 13.8572 1320.44 14.5196 1319.34 15.8446L1319.05 14.01H1317.06V27.5139H1319.34V20.762C1319.34 19.2587 1319.74 18.0358 1320.49 17.1695C1321.25 16.3032 1322.32 15.8446 1323.63 15.8446C1324.89 15.8446 1325.83 16.2267 1326.5 16.9401C1327.15 17.679 1327.47 18.7492 1327.47 20.1505V27.5394H1329.75V20.0231C1329.75 17.9083 1329.21 16.3287 1328.19 15.3604C1327.17 14.3668 1325.78 13.8572 1324.03 13.8572Z" fill="#C9CBCF"/>
<path d="M1345.65 21.2003C1345.67 20.7671 1345.7 20.4613 1345.7 20.283C1345.67 18.9835 1345.38 17.837 1344.79 16.8688C1344.2 15.9006 1343.42 15.1362 1342.43 14.6521C1341.44 14.1425 1340.28 13.8877 1338.97 13.8877C1337.66 13.8877 1336.48 14.168 1335.46 14.7285C1334.44 15.3145 1333.63 16.1299 1333.1 17.1745C1332.51 18.2192 1332.24 19.4167 1332.24 20.7925C1332.24 22.1429 1332.53 23.3659 1333.12 24.3851C1333.71 25.4552 1334.52 26.2705 1335.56 26.831C1336.64 27.4171 1337.84 27.6973 1339.26 27.6973C1340.87 27.6973 1342.24 27.2387 1343.37 26.3724C1344.49 25.5062 1345.19 24.3851 1345.46 23.0092H1343.15C1342.91 23.8755 1342.43 24.538 1341.73 25.0221C1341.01 25.5316 1340.15 25.761 1339.1 25.761C1337.79 25.761 1336.72 25.3533 1335.89 24.5635C1335.08 23.7736 1334.62 22.7034 1334.6 21.3786V21.2003H1345.65ZM1336.13 16.7923C1336.93 16.1299 1337.87 15.7732 1338.97 15.7732C1340.18 15.7732 1341.17 16.0789 1341.97 16.7159C1342.75 17.3528 1343.21 18.2446 1343.31 19.3912H1334.73C1334.84 18.321 1335.32 17.4548 1336.13 16.7923Z" fill="#C9CBCF"/>
<path fill-rule="evenodd" clip-rule="evenodd" d="M1207 0.5L1218.57 0.503453C1219.45 0.503453 1220.25 0.988697 1220.62 1.74762C1223.01 6.64324 1231.81 24.6648 1235.36 31.932C1235.69 32.5995 1235.63 33.3803 1235.22 34.0018C1234.8 34.6233 1234.09 34.9999 1233.31 34.9999H1228.29C1226.61 34.9999 1225.01 34.3301 1223.87 33.1532C1222.9 32.1585 1221.76 30.9748 1220.98 30.1739C1220.42 29.5851 1219.61 29.2505 1218.78 29.2505C1216.67 29.2505 1208.76 29.2476 1206.61 29.2476C1205.77 29.2476 1204.97 29.5823 1204.4 30.171C1203.63 30.9719 1202.48 32.1551 1201.52 33.1497C1200.38 34.3272 1198.78 34.9965 1197.1 34.9965H1192.26C1191.49 34.9965 1190.77 34.6199 1190.35 33.9984C1189.94 33.3768 1189.89 32.5967 1190.21 31.9286C1193.76 24.6613 1202.56 6.6398 1204.95 1.74417C1205.33 0.985251 1206.12 0.5 1207 0.5ZM1214.15 4.09395C1217.06 10.2021 1223.73 24.248 1225.51 28.3518C1225.57 28.4996 1225.55 28.6675 1225.46 28.7992C1225.37 28.9314 1225.21 29.0107 1225.05 29.0107H1222.78C1221.85 29.0107 1220.98 28.6049 1220.41 27.9103C1219.48 26.7759 1218.03 25.0172 1217.1 23.8823C1216.53 23.1878 1215.66 22.7824 1214.73 22.7824C1214.27 22.7824 1213.53 22.7816 1212.79 22.7807C1212.04 22.7798 1211.3 22.7789 1210.84 22.7789C1209.91 22.7789 1209.04 23.1849 1208.47 23.8794L1205.16 27.9069C1204.59 28.602 1203.72 29.0073 1202.8 29.0073H1200.52C1200.36 29.0073 1200.2 28.9285 1200.11 28.7963C1200.02 28.6641 1200 28.4962 1200.06 28.3484C1201.84 24.2445 1208.51 10.2016 1211.41 4.09395C1211.66 3.57996 1212.19 3.24994 1212.78 3.24994C1213.37 3.24994 1213.91 3.57996 1214.15 4.09395Z" fill="#C9CBCF"/>
<path fill-rule="evenodd" clip-rule="evenodd" d="M1402.99 4.54416C1401.12 5.09081 1399.37 5.99462 1397.87 7.20219C1397.24 6.16322 1396.23 5.38407 1395.05 5.01249C1396.92 3.38529 1399.12 2.15109 1401.51 1.38783C1403.91 0.624604 1406.44 0.348945 1408.94 0.57836C1411.45 0.807732 1413.88 1.53712 1416.08 2.72045C1416.64 3.01987 1417.18 3.3467 1417.7 3.69927C1417.72 3.69184 1417.73 3.68453 1417.75 3.67736C1418.43 3.40773 1419.17 3.3372 1419.88 3.4747C1420.6 3.61224 1421.26 3.95161 1421.77 4.44991C1422.29 4.94821 1422.64 5.58309 1422.78 6.27424C1422.92 6.96539 1422.85 7.68179 1422.57 8.33277C1422.29 8.98379 1421.82 9.54017 1421.21 9.9316C1420.61 10.3231 1419.89 10.5319 1419.16 10.5318C1418.68 10.5318 1418.2 10.4397 1417.75 10.2606C1417.3 10.0815 1416.9 9.81913 1416.55 9.4883C1416.21 9.15742 1415.94 8.76468 1415.76 8.33242C1415.57 7.90016 1415.47 7.43689 1415.47 6.96904C1415.47 6.78631 1415.49 6.60463 1415.52 6.42555C1415.13 6.16934 1414.73 5.93073 1414.32 5.71073C1412.61 4.79491 1410.72 4.21979 1408.78 4.01946C1406.83 3.81909 1404.86 3.9975 1402.99 4.54416ZM1397.18 9.67679C1397.18 10.3476 1396.98 11.004 1396.61 11.5709L1397.37 12.8343C1396.63 13.6769 1395.63 14.256 1394.51 14.478L1393.76 13.2291C1393.43 13.2531 1393.1 13.2339 1392.77 13.1707C1392.05 13.0333 1391.4 12.694 1390.88 12.1959C1390.36 11.6978 1390.01 11.063 1389.87 10.372C1389.73 9.68106 1389.8 8.96479 1390.08 8.31385C1390.36 7.66292 1390.83 7.10654 1391.44 6.71503C1392.05 6.32356 1392.76 6.11456 1393.49 6.11443C1393.97 6.11438 1394.45 6.20648 1394.9 6.38547C1395.35 6.56446 1395.75 6.82687 1396.1 7.15767C1396.44 7.48846 1396.71 7.8812 1396.9 8.31341C1397.08 8.74567 1397.18 9.20894 1397.18 9.67679ZM1394.51 14.4781L1400.87 25.1018L1402.79 28.3095L1404.71 25.1018L1407.1 21.1024L1409.48 25.0874L1411.4 28.2942L1413.32 25.0869L1416.53 19.7043H1421.78C1421.85 19.1718 1421.88 18.6363 1421.88 18.1004C1421.88 17.5645 1421.85 17.029 1421.78 16.4965H1414.61L1414.28 17.054L1411.4 21.8777L1409.01 17.8922L1407.1 14.6844L1405.18 17.8927L1402.79 21.892L1397.37 12.8344C1396.63 13.677 1395.63 14.2561 1394.51 14.4781ZM1421.88 18.1001C1421.88 18.636 1421.85 19.1715 1421.78 19.704H1425.31V16.4962H1421.78C1421.85 17.0287 1421.88 17.5642 1421.88 18.1001ZM1425.31 16.4965H1425.37C1425.42 17.0247 1425.44 17.5597 1425.44 18.1004C1425.44 27.8196 1417.29 35.6999 1407.22 35.6999C1397.16 35.6999 1389 27.8206 1389 18.1013C1389 16.3786 1389.26 14.665 1389.77 13.0157C1390.62 13.8933 1391.76 14.4411 1393 14.5553C1392.73 15.6871 1392.56 17.0026 1392.56 18.1004C1392.56 25.9173 1399.12 32.2575 1407.22 32.2575C1414.76 32.2575 1420.96 26.7675 1421.79 19.7043H1425.31V16.4965Z" fill="#C9CBCF"/>
<path d="M1444.13 23.86L1441.23 11.7986H1443.59L1444.83 17.5874L1445.6 21.2853H1445.65L1446.54 17.5874L1447.98 11.7986H1450.59L1452.02 17.5874L1452.9 21.2853H1452.95L1453.74 17.5874L1455.01 11.7986H1457.26L1454.27 23.86H1451.61L1450.02 17.4837L1449.25 14.3042H1449.21L1448.41 17.4837L1446.81 23.86H1444.13Z" fill="#C9CBCF"/>
<path d="M1464.57 22.3567H1464.48C1464.39 22.5871 1464.28 22.806 1464.14 23.0133C1464.01 23.2092 1463.83 23.3877 1463.62 23.549C1463.41 23.7103 1463.16 23.837 1462.87 23.9292C1462.58 24.0213 1462.25 24.0674 1461.86 24.0674C1460.9 24.0674 1460.16 23.7621 1459.65 23.1516C1459.13 22.541 1458.88 21.6712 1458.88 20.5423V14.8399H1461.17V20.3176C1461.17 20.9397 1461.29 21.4178 1461.54 21.7519C1461.79 22.0744 1462.19 22.2357 1462.74 22.2357C1462.97 22.2357 1463.19 22.2069 1463.4 22.1493C1463.63 22.0917 1463.83 22.0053 1463.99 21.8901C1464.16 21.7634 1464.3 21.6136 1464.4 21.4408C1464.51 21.2565 1464.57 21.0434 1464.57 20.8015V14.8399H1466.86V23.86H1464.57V22.3567Z" fill="#C9CBCF"/>
<path d="M1469.5 23.86V14.8399H1471.79V16.3433H1471.88C1472.07 15.8594 1472.37 15.4562 1472.78 15.1337C1473.19 14.7996 1473.77 14.6325 1474.49 14.6325C1475.46 14.6325 1476.2 14.9378 1476.71 15.5484C1477.22 16.1589 1477.48 17.0287 1477.48 18.1577V23.86H1475.19V18.3823C1475.19 17.7372 1475.07 17.2533 1474.83 16.9308C1474.59 16.6082 1474.2 16.4469 1473.65 16.4469C1473.41 16.4469 1473.18 16.4815 1472.95 16.5506C1472.74 16.6082 1472.54 16.7004 1472.36 16.8271C1472.2 16.9423 1472.06 17.0921 1471.95 17.2764C1471.84 17.4492 1471.79 17.6565 1471.79 17.8985V23.86H1469.5Z" fill="#C9CBCF"/>
<path d="M1485.82 22.3567H1485.73C1485.56 22.8751 1485.24 23.2898 1484.78 23.6008C1484.31 23.9119 1483.77 24.0674 1483.15 24.0674C1481.97 24.0674 1481.06 23.6584 1480.43 22.8405C1479.81 22.0226 1479.5 20.8533 1479.5 19.3327C1479.5 17.8236 1479.81 16.6658 1480.43 15.8594C1481.06 15.0415 1481.97 14.6325 1483.15 14.6325C1483.77 14.6325 1484.31 14.7881 1484.78 15.0991C1485.24 15.3986 1485.56 15.8076 1485.73 16.326H1485.82V11.0729H1488.1V23.86H1485.82V22.3567ZM1483.88 22.2357C1484.43 22.2357 1484.89 22.109 1485.26 21.8556C1485.63 21.6021 1485.82 21.2392 1485.82 20.7669V17.8985C1485.82 17.4607 1485.63 17.1093 1485.26 16.8444C1484.89 16.5794 1484.43 16.4469 1483.88 16.4469C1483.29 16.4469 1482.8 16.6428 1482.43 17.0345C1482.08 17.4146 1481.9 17.9273 1481.9 18.5724V20.1276C1481.9 20.7727 1482.08 21.2853 1482.43 21.6655C1482.8 22.0456 1483.29 22.2357 1483.88 22.2357Z" fill="#C9CBCF"/>
<path d="M1494.52 24.0674C1493.83 24.0674 1493.21 23.958 1492.66 23.7391C1492.12 23.5087 1491.66 23.1919 1491.28 22.7887C1490.91 22.374 1490.63 21.8786 1490.42 21.3026C1490.22 20.7151 1490.12 20.0584 1490.12 19.3327C1490.12 18.6185 1490.21 17.9733 1490.41 17.3973C1490.61 16.8213 1490.89 16.3317 1491.26 15.9285C1491.63 15.5138 1492.09 15.197 1492.62 14.9781C1493.16 14.7477 1493.77 14.6325 1494.45 14.6325C1495.18 14.6325 1495.81 14.7535 1496.35 14.9954C1496.88 15.2373 1497.32 15.5657 1497.67 15.9804C1498.01 16.3951 1498.27 16.8789 1498.44 17.4319C1498.62 17.9733 1498.71 18.5551 1498.71 19.1772V19.9029H1492.5V20.1276C1492.5 20.7842 1492.69 21.3141 1493.07 21.7173C1493.45 22.109 1494.02 22.3048 1494.77 22.3048C1495.34 22.3048 1495.81 22.1896 1496.17 21.9592C1496.54 21.7288 1496.86 21.4351 1497.15 21.078L1498.38 22.4085C1498 22.9269 1497.48 23.3359 1496.81 23.6354C1496.15 23.9234 1495.39 24.0674 1494.52 24.0674ZM1494.48 16.2914C1493.88 16.2914 1493.39 16.4873 1493.04 16.8789C1492.68 17.2706 1492.5 17.7775 1492.5 18.3996V18.5378H1496.33V18.3823C1496.33 17.7602 1496.17 17.2591 1495.84 16.8789C1495.53 16.4873 1495.08 16.2914 1494.48 16.2914Z" fill="#C9CBCF"/>
<path d="M1500.72 23.86V14.8399H1503.01V16.7061H1503.1C1503.16 16.4642 1503.25 16.2338 1503.37 16.0149C1503.5 15.7845 1503.67 15.5829 1503.87 15.4101C1504.07 15.2373 1504.31 15.0991 1504.59 14.9954C1504.87 14.8917 1505.2 14.8399 1505.57 14.8399H1506.07V16.9308H1505.35C1504.58 16.9308 1504 17.0402 1503.6 17.2591C1503.21 17.478 1503.01 17.8351 1503.01 18.3305V23.86H1500.72Z" fill="#C9CBCF"/>
<path d="M1516.02 21.9938H1515.95C1515.84 22.5813 1515.5 23.0767 1514.93 23.4799C1514.37 23.8716 1513.62 24.0674 1512.68 24.0674C1511.94 24.0674 1511.25 23.9349 1510.62 23.67C1510 23.405 1509.46 23.0133 1508.99 22.4949C1508.54 21.965 1508.18 21.3141 1507.92 20.5423C1507.66 19.7704 1507.53 18.8776 1507.53 17.8639C1507.53 16.8501 1507.66 15.9573 1507.92 15.1855C1508.19 14.4021 1508.58 13.7455 1509.06 13.2156C1509.55 12.6857 1510.14 12.2825 1510.82 12.006C1511.5 11.7295 1512.25 11.5913 1513.09 11.5913C1514.21 11.5913 1515.16 11.8274 1515.95 12.2997C1516.74 12.7721 1517.36 13.4517 1517.81 14.3388L1515.9 15.4274C1515.67 14.909 1515.33 14.477 1514.88 14.1314C1514.44 13.7858 1513.84 13.613 1513.09 13.613C1512.16 13.613 1511.41 13.8895 1510.85 14.4425C1510.3 14.9839 1510.03 15.7903 1510.03 16.8617V18.797C1510.03 19.8568 1510.31 20.6632 1510.87 21.2162C1511.43 21.7692 1512.18 22.0456 1513.13 22.0456C1513.49 22.0456 1513.84 22.0053 1514.16 21.9247C1514.48 21.8325 1514.77 21.7 1515 21.5272C1515.24 21.3544 1515.43 21.1413 1515.58 20.8879C1515.72 20.6344 1515.79 20.3349 1515.79 19.9893V19.2117H1513.34V17.2937H1518.06V23.86H1516.02V21.9938Z" fill="#C9CBCF"/>
<path d="M1520.66 23.86V14.8399H1522.95V16.7061H1523.03C1523.09 16.4642 1523.18 16.2338 1523.3 16.0149C1523.43 15.7845 1523.6 15.5829 1523.8 15.4101C1524.01 15.2373 1524.25 15.0991 1524.52 14.9954C1524.81 14.8917 1525.13 14.8399 1525.5 14.8399H1526V16.9308H1525.29C1524.51 16.9308 1523.93 17.0402 1523.54 17.2591C1523.14 17.478 1522.95 17.8351 1522.95 18.3305V23.86H1520.66Z" fill="#C9CBCF"/>
<path d="M1534.36 23.86C1533.86 23.86 1533.46 23.7218 1533.16 23.4453C1532.87 23.1573 1532.69 22.7772 1532.62 22.3048H1532.51C1532.36 22.8924 1532.04 23.3359 1531.57 23.6354C1531.09 23.9234 1530.5 24.0674 1529.79 24.0674C1528.84 24.0674 1528.11 23.8255 1527.59 23.3416C1527.08 22.8578 1526.82 22.2127 1526.82 21.4063C1526.82 20.4732 1527.17 19.782 1527.86 19.3327C1528.55 18.8719 1529.54 18.6415 1530.81 18.6415H1532.41V17.9849C1532.41 17.478 1532.27 17.0863 1531.99 16.8098C1531.72 16.5333 1531.28 16.3951 1530.67 16.3951C1530.13 16.3951 1529.7 16.5103 1529.36 16.7407C1529.04 16.9596 1528.77 17.2245 1528.54 17.5356L1527.18 16.3605C1527.53 15.8421 1527.99 15.4274 1528.56 15.1164C1529.13 14.7938 1529.89 14.6325 1530.83 14.6325C1532.1 14.6325 1533.06 14.909 1533.71 15.462C1534.37 16.0149 1534.7 16.8098 1534.7 17.8466V22.0975H1535.63V23.86H1534.36ZM1530.56 22.4604C1531.08 22.4604 1531.51 22.3509 1531.87 22.132C1532.23 21.9132 1532.41 21.5906 1532.41 21.1644V19.972H1530.94C1529.75 19.972 1529.15 20.3407 1529.15 21.078V21.3717C1529.15 21.7404 1529.27 22.0168 1529.51 22.2012C1529.76 22.374 1530.11 22.4604 1530.56 22.4604Z" fill="#C9CBCF"/>
<path d="M1537.48 14.8399H1539.77V16.326H1539.84C1540.01 15.8076 1540.32 15.3986 1540.79 15.0991C1541.25 14.7881 1541.8 14.6325 1542.42 14.6325C1543.61 14.6325 1544.52 15.0415 1545.14 15.8594C1545.77 16.6658 1546.08 17.8236 1546.08 19.3327C1546.08 20.8533 1545.77 22.0226 1545.14 22.8405C1544.52 23.6584 1543.61 24.0674 1542.42 24.0674C1541.8 24.0674 1541.25 23.9119 1540.79 23.6008C1540.34 23.2898 1540.02 22.8751 1539.84 22.3567H1539.77V27.316H1537.48V14.8399ZM1541.68 22.2357C1542.28 22.2357 1542.76 22.0456 1543.13 21.6655C1543.5 21.2853 1543.69 20.7727 1543.69 20.1276V18.5724C1543.69 17.9273 1543.5 17.4146 1543.13 17.0345C1542.76 16.6428 1542.28 16.4469 1541.68 16.4469C1541.14 16.4469 1540.68 16.5794 1540.31 16.8444C1539.95 17.1093 1539.77 17.4607 1539.77 17.8985V20.7669C1539.77 21.2392 1539.95 21.6021 1540.31 21.8556C1540.68 22.109 1541.14 22.2357 1541.68 22.2357Z" fill="#C9CBCF"/>
<path d="M1548.21 11.0729H1550.5V16.3433H1550.59C1550.78 15.8594 1551.07 15.4562 1551.48 15.1337C1551.9 14.7996 1552.47 14.6325 1553.2 14.6325C1554.16 14.6325 1554.9 14.9378 1555.42 15.5484C1555.93 16.1589 1556.19 17.0287 1556.19 18.1577V23.86H1553.9V18.3823C1553.9 17.7372 1553.78 17.2533 1553.54 16.9308C1553.3 16.6082 1552.91 16.4469 1552.36 16.4469C1552.12 16.4469 1551.89 16.4815 1551.66 16.5506C1551.44 16.6082 1551.25 16.7004 1551.07 16.8271C1550.9 16.9423 1550.76 17.0921 1550.66 17.2764C1550.55 17.4492 1550.5 17.6565 1550.5 17.8985V23.86H1548.21V11.0729Z" fill="#C9CBCF"/>
<path d="M1625.6 24.1571C1625.6 25.851 1624.18 27.2243 1622.43 27.2243C1620.68 27.2243 1619.26 25.851 1619.26 24.1571C1619.26 22.4631 1620.68 21.0898 1622.43 21.0898C1624.18 21.0898 1625.6 22.4631 1625.6 24.1571Z" fill="#C9CBCF"/>
<path d="M1625.6 11.0921C1625.6 12.7861 1624.18 14.1593 1622.43 14.1593C1620.68 14.1593 1619.26 12.7861 1619.26 11.0921C1619.26 9.39814 1620.68 8.0249 1622.43 8.0249C1624.18 8.0249 1625.6 9.39814 1625.6 11.0921Z" fill="#C9CBCF"/>
<path d="M1632.33 17.6243C1632.33 19.3183 1630.91 20.6915 1629.16 20.6915C1627.41 20.6915 1625.99 19.3183 1625.99 17.6243C1625.99 15.9304 1627.41 14.5571 1629.16 14.5571C1630.91 14.5571 1632.33 15.9304 1632.33 17.6243ZM1626.65 17.6243C1626.65 18.9642 1627.77 20.0504 1629.16 20.0504C1630.54 20.0504 1631.67 18.9642 1631.67 17.6243C1631.67 16.2845 1630.54 15.1982 1629.16 15.1982C1627.77 15.1982 1626.65 16.2845 1626.65 17.6243Z" fill="#C9CBCF"/>
<path d="M1618.84 30.6824C1618.84 32.3764 1617.42 33.7496 1615.67 33.7496C1613.92 33.7496 1612.5 32.3764 1612.5 30.6824C1612.5 28.9885 1613.92 27.6152 1615.67 27.6152C1617.42 27.6152 1618.84 28.9885 1618.84 30.6824ZM1613.86 30.6824C1613.86 31.65 1614.67 32.4344 1615.67 32.4344C1616.67 32.4344 1617.48 31.65 1617.48 30.6824C1617.48 29.7149 1616.67 28.9305 1615.67 28.9305C1614.67 28.9305 1613.86 29.7149 1613.86 30.6824Z" fill="#C9CBCF"/>
<path d="M1612.09 11.0921C1612.09 12.7861 1610.68 14.1593 1608.92 14.1593C1607.17 14.1593 1605.75 12.7861 1605.75 11.0921C1605.75 9.39814 1607.17 8.0249 1608.92 8.0249C1610.68 8.0249 1612.09 9.39814 1612.09 11.0921ZM1607.11 11.0921C1607.11 12.0597 1607.92 12.844 1608.92 12.844C1609.92 12.844 1610.74 12.0597 1610.74 11.0921C1610.74 10.1245 1609.92 9.3402 1608.92 9.3402C1607.92 9.3402 1607.11 10.1245 1607.11 11.0921Z" fill="#C9CBCF"/>
<path d="M1612.09 24.157C1612.09 25.851 1610.68 27.2243 1608.92 27.2243C1607.17 27.2243 1605.75 25.851 1605.75 24.157C1605.75 22.463 1607.17 21.0898 1608.92 21.0898C1610.68 21.0898 1612.09 22.463 1612.09 24.157ZM1607.11 24.157C1607.11 25.1246 1607.92 25.909 1608.92 25.909C1609.92 25.909 1610.74 25.1246 1610.74 24.157C1610.74 23.1894 1609.92 22.405 1608.92 22.405C1607.92 22.405 1607.11 23.1894 1607.11 24.157Z" fill="#C9CBCF"/>
<path d="M1618.84 4.5672C1618.84 6.26117 1617.42 7.6344 1615.67 7.6344C1613.92 7.6344 1612.5 6.26117 1612.5 4.5672C1612.5 2.87323 1613.92 1.5 1615.67 1.5C1617.42 1.5 1618.84 2.87323 1618.84 4.5672ZM1613.86 4.5672C1613.86 5.53479 1614.67 6.31918 1615.67 6.31918C1616.67 6.31918 1617.48 5.53479 1617.48 4.5672C1617.48 3.5996 1616.67 2.81521 1615.67 2.81521C1614.67 2.81521 1613.86 3.5996 1613.86 4.5672Z" fill="#C9CBCF"/>
<path d="M1605.34 17.6243C1605.34 19.3183 1603.92 20.6915 1602.17 20.6915C1600.42 20.6915 1599 19.3183 1599 17.6243C1599 15.9304 1600.42 14.5571 1602.17 14.5571C1603.92 14.5571 1605.34 15.9304 1605.34 17.6243ZM1600.36 17.6243C1600.36 18.5919 1601.17 19.3763 1602.17 19.3763C1603.17 19.3763 1603.98 18.5919 1603.98 17.6243C1603.98 16.6567 1603.17 15.8724 1602.17 15.8724C1601.17 15.8724 1600.36 16.6567 1600.36 17.6243Z" fill="#C9CBCF"/>
<path d="M1618.84 17.6243C1618.84 19.3183 1617.42 20.6915 1615.67 20.6915C1613.92 20.6915 1612.5 19.3183 1612.5 17.6243C1612.5 15.9304 1613.92 14.5571 1615.67 14.5571C1617.42 14.5571 1618.84 15.9304 1618.84 17.6243ZM1613.86 17.6243C1613.86 18.5919 1614.67 19.3763 1615.67 19.3763C1616.67 19.3763 1617.48 18.5919 1617.48 17.6243C1617.48 16.6567 1616.67 15.8724 1615.67 15.8724C1614.67 15.8724 1613.86 16.6567 1613.86 17.6243Z" fill="#C9CBCF"/>
<path fill-rule="evenodd" clip-rule="evenodd" d="M1607.89 13.1669L1604.31 16.6285L1603.19 15.544L1606.77 12.0825L1607.89 13.1669Z" fill="#C9CBCF"/>
<path fill-rule="evenodd" clip-rule="evenodd" d="M1614.68 6.58197L1611.15 9.99703L1610.03 8.91262L1613.56 5.49756L1614.68 6.58197Z" fill="#C9CBCF"/>
<path fill-rule="evenodd" clip-rule="evenodd" d="M1614.55 19.789L1611.02 23.2068L1609.9 22.1224L1613.43 18.7046L1614.55 19.789Z" fill="#C9CBCF"/>
<path fill-rule="evenodd" clip-rule="evenodd" d="M1613.49 29.6654L1610 26.2914L1611.12 25.207L1614.61 28.581L1613.49 29.6654Z" fill="#C9CBCF"/>
<path fill-rule="evenodd" clip-rule="evenodd" d="M1606.5 22.9118L1603.15 19.6694L1604.27 18.585L1607.62 21.8274L1606.5 22.9118Z" fill="#C9CBCF"/>
<path d="M1649.82 2.74463V3.19504H1644.5V20.3607H1643.99V3.19504H1638.68V2.74463H1649.82Z" fill="#C9CBCF"/>
<path d="M1658.55 6.54171C1660.19 6.54171 1661.53 7.03382 1662.59 8.01806C1663.64 9.00229 1664.17 10.487 1664.17 12.4721V20.3543H1663.67V12.4221C1663.67 10.6538 1663.22 9.31092 1662.3 8.39341C1661.39 7.45922 1660.13 6.99212 1658.55 6.99212C1656.89 6.99212 1655.56 7.5176 1654.56 8.56857C1653.55 9.60285 1653.05 11.1375 1653.05 13.1728V20.3543H1652.54V1.8374H1653.05V10.3952C1653.38 9.14409 1654.04 8.19322 1655.02 7.54263C1656.01 6.87535 1657.18 6.54171 1658.55 6.54171Z" fill="#C9CBCF"/>
<path d="M1674.53 20.0798C1676.1 20.0798 1677.43 19.6961 1678.5 18.9287C1679.57 18.1613 1680.21 17.1104 1680.44 15.7758H1680.96C1680.72 17.1938 1680.02 18.3448 1678.88 19.229C1677.76 20.0965 1676.31 20.5302 1674.53 20.5302C1673.24 20.5302 1672.08 20.2549 1671.06 19.7044C1670.04 19.1539 1669.24 18.3532 1668.65 17.3022C1668.08 16.2513 1667.8 15.0168 1667.8 13.5988C1667.8 12.1809 1668.08 10.9464 1668.65 9.89543C1669.24 8.84448 1670.04 8.04374 1671.06 7.49324C1672.08 6.94273 1673.24 6.66748 1674.53 6.66748C1675.9 6.66748 1677.06 6.95107 1678.03 7.51826C1679 8.06877 1679.72 8.78609 1680.21 9.67023C1680.71 10.5544 1680.96 11.4885 1680.96 12.4728C1680.96 13.0734 1680.95 13.5237 1680.93 13.824H1668.32C1668.33 15.2086 1668.63 16.368 1669.2 17.3022C1669.78 18.2364 1670.54 18.9371 1671.48 19.4041C1672.41 19.8546 1673.43 20.0798 1674.53 20.0798ZM1674.53 7.11789C1673.43 7.11789 1672.41 7.35144 1671.48 7.81854C1670.54 8.26895 1669.78 8.96125 1669.2 9.89543C1668.63 10.8297 1668.33 11.989 1668.32 13.3736H1680.49C1680.58 11.989 1680.34 10.8297 1679.79 9.89543C1679.26 8.96125 1678.51 8.26895 1677.56 7.81854C1676.63 7.35144 1675.62 7.11789 1674.53 7.11789Z" fill="#C9CBCF"/>
<path d="M1762.38 20.4317C1762.08 20.4317 1761.84 20.34 1761.65 20.1566C1761.46 19.973 1761.37 19.7395 1761.37 19.4559C1761.37 19.1722 1761.46 18.9388 1761.65 18.7553C1761.84 18.5717 1762.08 18.48 1762.38 18.48C1762.65 18.48 1762.89 18.5717 1763.08 18.7553C1763.27 18.9388 1763.36 19.1722 1763.36 19.4559C1763.36 19.7395 1763.27 19.973 1763.08 20.1566C1762.89 20.34 1762.65 20.4317 1762.38 20.4317Z" fill="#C9CBCF"/>
<path d="M1767.58 2.79736V20.3634H1766.42V2.79736H1767.58Z" fill="#C9CBCF"/>
<path d="M1779.97 20.5565C1778.3 20.5565 1776.79 20.1812 1775.44 19.4305C1774.09 18.6632 1773.04 17.5955 1772.28 16.2276C1771.52 14.8596 1771.14 13.3166 1771.14 11.5983C1771.14 9.86342 1771.52 8.32034 1772.28 6.9691C1773.04 5.60118 1774.09 4.54188 1775.44 3.79119C1776.79 3.02382 1778.3 2.64014 1779.97 2.64014C1781.65 2.64014 1783.16 3.02382 1784.51 3.79119C1785.86 4.54188 1786.91 5.60118 1787.67 6.9691C1788.43 8.32034 1788.81 9.86342 1788.81 11.5983C1788.81 13.3166 1788.43 14.8596 1787.67 16.2276C1786.91 17.5955 1785.86 18.6632 1784.51 19.4305C1783.16 20.1812 1781.65 20.5565 1779.97 20.5565ZM1779.97 19.5556C1781.41 19.5556 1782.7 19.2303 1783.86 18.5797C1785.02 17.9291 1785.92 17.0033 1786.58 15.8022C1787.25 14.6011 1787.59 13.1998 1787.59 11.5983C1787.59 9.9802 1787.25 8.57057 1786.58 7.36946C1785.92 6.16837 1785.02 5.24252 1783.86 4.59193C1782.7 3.94133 1781.41 3.61604 1779.97 3.61604C1778.54 3.61604 1777.25 3.94133 1776.09 4.59193C1774.93 5.24252 1774.02 6.16837 1773.34 7.36946C1772.67 8.57057 1772.33 9.9802 1772.33 11.5983C1772.33 13.1998 1772.67 14.6011 1773.34 15.8022C1774.02 17.0033 1774.93 17.9291 1776.09 18.5797C1777.25 19.2303 1778.54 19.5556 1779.97 19.5556Z" fill="#C9CBCF"/>
<path d="M1641.36 30.3769C1641.36 29.7836 1641.5 29.2537 1641.77 28.7872C1642.03 28.3148 1642.4 27.9491 1642.87 27.6899C1643.33 27.4249 1643.85 27.2925 1644.42 27.2925C1645.12 27.2925 1645.72 27.4537 1646.21 27.7763C1646.71 28.0931 1647.08 28.5424 1647.3 29.1242H1646.57C1646.39 28.7151 1646.12 28.3955 1645.75 28.1651C1645.38 27.9347 1644.94 27.8195 1644.42 27.8195C1643.96 27.8195 1643.55 27.9231 1643.18 28.1306C1642.82 28.3379 1642.53 28.6374 1642.32 29.0291C1642.11 29.415 1642.01 29.8643 1642.01 30.3769C1642.01 30.8896 1642.11 31.3388 1642.32 31.7247C1642.53 32.1107 1642.82 32.4073 1643.18 32.6146C1643.55 32.822 1643.96 32.9257 1644.42 32.9257C1644.94 32.9257 1645.38 32.8134 1645.75 32.5887C1646.12 32.3583 1646.39 32.0415 1646.57 31.6383H1647.3C1647.08 32.2143 1646.71 32.6607 1646.21 32.9775C1645.71 33.2943 1645.11 33.4526 1644.42 33.4526C1643.85 33.4526 1643.33 33.3231 1642.87 33.0639C1642.4 32.799 1642.03 32.4332 1641.77 31.9666C1641.5 31.5001 1641.36 30.9701 1641.36 30.3769Z" fill="#C9CBCF"/>
<path d="M1661.18 33.4614C1660.61 33.4614 1660.08 33.3317 1659.61 33.0725C1659.14 32.8076 1658.77 32.4418 1658.49 31.9753C1658.22 31.503 1658.09 30.9701 1658.09 30.3769C1658.09 29.7836 1658.22 29.2537 1658.49 28.7872C1658.77 28.3148 1659.14 27.9491 1659.61 27.6899C1660.08 27.4249 1660.61 27.2925 1661.18 27.2925C1661.77 27.2925 1662.3 27.4249 1662.77 27.6899C1663.24 27.9491 1663.61 28.3148 1663.88 28.7872C1664.15 29.2537 1664.28 29.7836 1664.28 30.3769C1664.28 30.9701 1664.15 31.503 1663.88 31.9753C1663.61 32.4418 1663.24 32.8076 1662.77 33.0725C1662.3 33.3317 1661.77 33.4614 1661.18 33.4614ZM1661.18 32.9343C1661.65 32.9343 1662.07 32.8306 1662.44 32.6232C1662.81 32.4159 1663.1 32.1193 1663.31 31.7334C1663.53 31.3417 1663.64 30.8896 1663.64 30.3769C1663.64 29.8643 1663.53 29.415 1663.31 29.0291C1663.1 28.6432 1662.81 28.3466 1662.44 28.1392C1662.07 27.9319 1661.65 27.8282 1661.18 27.8282C1660.72 27.8282 1660.3 27.9319 1659.93 28.1392C1659.56 28.3466 1659.27 28.6432 1659.06 29.0291C1658.84 29.415 1658.73 29.8643 1658.73 30.3769C1658.73 30.8896 1658.84 31.3417 1659.06 31.7334C1659.27 32.1193 1659.56 32.4159 1659.93 32.6232C1660.3 32.8306 1660.72 32.9343 1661.18 32.9343Z" fill="#C9CBCF"/>
<path d="M1679.96 33.3991H1679.34L1675.88 28.3189V33.3991H1675.25V27.3599H1675.88L1679.34 32.4315V27.3599H1679.96V33.3991Z" fill="#C9CBCF"/>
<path d="M1693.1 33.4614C1692.68 33.4614 1692.32 33.3922 1692 33.254C1691.69 33.1158 1691.45 32.9228 1691.27 32.6751C1691.09 32.4275 1691 32.151 1690.98 31.8456H1691.65C1691.68 32.1394 1691.81 32.3987 1692.05 32.6232C1692.29 32.8421 1692.64 32.9516 1693.1 32.9516C1693.52 32.9516 1693.85 32.8479 1694.1 32.6406C1694.35 32.4275 1694.47 32.1596 1694.47 31.837C1694.47 31.5779 1694.4 31.3704 1694.27 31.215C1694.13 31.0536 1693.96 30.9356 1693.76 30.8608C1693.55 30.7801 1693.27 30.6937 1692.92 30.6015C1692.5 30.4921 1692.17 30.3856 1691.92 30.2819C1691.68 30.1782 1691.47 30.0169 1691.3 29.798C1691.12 29.5792 1691.04 29.2826 1691.04 28.9081C1691.04 28.5971 1691.12 28.3206 1691.29 28.0787C1691.46 27.831 1691.69 27.6381 1692 27.4998C1692.3 27.3616 1692.65 27.2925 1693.04 27.2925C1693.62 27.2925 1694.09 27.4307 1694.44 27.7072C1694.79 27.9779 1695 28.3292 1695.05 28.7613H1694.37C1694.33 28.5136 1694.19 28.2947 1693.95 28.1046C1693.72 27.9088 1693.39 27.8109 1692.99 27.8109C1692.61 27.8109 1692.3 27.9088 1692.05 28.1046C1691.8 28.2947 1691.67 28.5567 1691.67 28.8909C1691.67 29.1443 1691.74 29.3487 1691.88 29.5043C1692.02 29.6598 1692.19 29.7778 1692.39 29.8585C1692.6 29.9392 1692.88 30.0255 1693.23 30.1177C1693.63 30.2272 1693.96 30.3365 1694.21 30.446C1694.46 30.5497 1694.68 30.711 1694.85 30.9299C1695.02 31.1487 1695.11 31.4425 1695.11 31.8111C1695.11 32.0933 1695.03 32.3612 1694.88 32.6146C1694.72 32.8681 1694.49 33.0725 1694.19 33.2281C1693.88 33.3835 1693.52 33.4614 1693.1 33.4614Z" fill="#C9CBCF"/>
<path d="M1706.73 27.3599V31.1614C1706.73 31.7604 1706.88 32.204 1707.17 32.4919C1707.47 32.7799 1707.87 32.9239 1708.39 32.9239C1708.9 32.9239 1709.3 32.7829 1709.59 32.5006C1709.88 32.2126 1710.02 31.7662 1710.02 31.1614V27.3599H1710.65V31.1527C1710.65 31.9188 1710.44 32.4948 1710.01 32.8808C1709.6 33.2667 1709.05 33.4596 1708.38 33.4596C1707.7 33.4596 1707.16 33.2667 1706.73 32.8808C1706.31 32.4948 1706.11 31.9188 1706.11 31.1527V27.3599H1706.73Z" fill="#C9CBCF"/>
<path d="M1722.48 32.9066H1724.73V33.3991H1721.86V27.3599H1722.48V32.9066Z" fill="#C9CBCF"/>
<path d="M1739.09 27.3599V27.861H1737.36V33.3991H1736.73V27.861H1734.99V27.3599H1739.09Z" fill="#C9CBCF"/>
<path d="M1750.54 27.3599V33.3991H1749.91V27.3599H1750.54Z" fill="#C9CBCF"/>
<path d="M1766.49 33.3991H1765.87L1762.4 28.3189V33.3991H1761.78V27.3599H1762.4L1765.87 32.4315V27.3599H1766.49V33.3991Z" fill="#C9CBCF"/>
<path d="M1782.64 29.1242C1782.46 28.7267 1782.19 28.4157 1781.82 28.191C1781.45 27.9606 1781.02 27.8454 1780.53 27.8454C1780.06 27.8454 1779.65 27.9491 1779.28 28.1564C1778.91 28.3638 1778.61 28.6604 1778.4 29.0463C1778.19 29.4266 1778.08 29.87 1778.08 30.3769C1778.08 30.8838 1778.19 31.3302 1778.4 31.7161C1778.61 32.102 1778.91 32.3987 1779.28 32.606C1779.65 32.8134 1780.06 32.917 1780.53 32.917C1780.96 32.917 1781.35 32.8278 1781.7 32.6492C1782.05 32.4648 1782.33 32.2057 1782.54 31.8716C1782.76 31.5318 1782.88 31.1372 1782.91 30.6879H1780.28V30.1955H1783.57V30.6361C1783.54 31.166 1783.39 31.647 1783.12 32.0789C1782.85 32.5052 1782.49 32.8421 1782.04 33.0898C1781.59 33.3375 1781.09 33.4614 1780.53 33.4614C1779.95 33.4614 1779.43 33.3317 1778.95 33.0725C1778.48 32.8076 1778.11 32.4418 1777.84 31.9753C1777.57 31.503 1777.43 30.9701 1777.43 30.3769C1777.43 29.7836 1777.57 29.2537 1777.84 28.7872C1778.11 28.3148 1778.48 27.9491 1778.95 27.6899C1779.43 27.4249 1779.95 27.2925 1780.53 27.2925C1781.2 27.2925 1781.78 27.4537 1782.28 27.7763C1782.78 28.0989 1783.15 28.5481 1783.37 29.1242H1782.64Z" fill="#C9CBCF"/>
<path d="M1694.02 2.79004V3.74091H1685.81V11.0726H1692.98V12.0235H1685.81V20.3561H1684.64V2.79004H1694.02Z" fill="#C9CBCF"/>
<path d="M1696.38 13.5489C1696.38 12.1476 1696.66 10.9215 1697.23 9.87054C1697.82 8.81957 1698.62 8.0105 1699.64 7.44331C1700.68 6.87613 1701.85 6.59253 1703.17 6.59253C1704.65 6.59253 1705.91 6.94285 1706.95 7.64349C1707.98 8.34414 1708.71 9.23662 1709.12 10.321V6.76769H1710.29V20.3551H1709.12V16.7768C1708.71 17.8778 1707.98 18.7871 1706.92 19.5044C1705.89 20.205 1704.63 20.5553 1703.17 20.5553C1701.85 20.5553 1700.68 20.2717 1699.64 19.7046C1698.62 19.1206 1697.82 18.3033 1697.23 17.2523C1696.66 16.1847 1696.38 14.9502 1696.38 13.5489ZM1709.12 13.5489C1709.12 12.3645 1708.87 11.3218 1708.35 10.421C1707.85 9.50353 1707.16 8.80289 1706.27 8.31911C1705.39 7.81866 1704.41 7.56843 1703.32 7.56843C1702.18 7.56843 1701.18 7.81032 1700.32 8.29409C1699.45 8.76118 1698.78 9.44514 1698.3 10.346C1697.81 11.2468 1697.57 12.3144 1697.57 13.5489C1697.57 14.7834 1697.81 15.851 1698.3 16.7518C1698.78 17.6527 1699.45 18.345 1700.32 18.8288C1701.2 19.3125 1702.2 19.5544 1703.32 19.5544C1704.41 19.5544 1705.39 19.3125 1706.27 18.8288C1707.17 18.3283 1707.87 17.6277 1708.37 16.7268C1708.87 15.8093 1709.12 14.75 1709.12 13.5489Z" fill="#C9CBCF"/>
<path d="M1715.7 10.3452C1716.13 9.24419 1716.86 8.34336 1717.9 7.64272C1718.94 6.94207 1720.19 6.59175 1721.66 6.59175C1722.97 6.59175 1724.13 6.87535 1725.15 7.44254C1726.19 8.00972 1726.99 8.8188 1727.56 9.86976C1728.15 10.9208 1728.44 12.1468 1728.44 13.5481C1728.44 14.9494 1728.15 16.1839 1727.56 17.2515C1726.99 18.3025 1726.19 19.1199 1725.15 19.7038C1724.13 20.2709 1722.97 20.5545 1721.66 20.5545C1720.19 20.5545 1718.93 20.2042 1717.87 19.5036C1716.84 18.803 1716.11 17.9021 1715.7 16.8011V20.3543H1714.53V1.8374H1715.7V10.3452ZM1727.25 13.5481C1727.25 12.3136 1727.01 11.246 1726.53 10.3452C1726.04 9.44437 1725.36 8.76041 1724.48 8.29331C1723.62 7.80954 1722.61 7.56765 1721.47 7.56765C1720.39 7.56765 1719.4 7.81788 1718.52 8.31834C1717.64 8.80211 1716.95 9.50276 1716.45 10.4203C1715.95 11.3211 1715.7 12.3637 1715.7 13.5481C1715.7 14.7492 1715.95 15.8085 1716.45 16.726C1716.95 17.6269 1717.64 18.3275 1718.52 18.828C1719.4 19.3117 1720.39 19.5536 1721.47 19.5536C1722.61 19.5536 1723.62 19.3117 1724.48 18.828C1725.36 18.3442 1726.04 17.6519 1726.53 16.751C1727.01 15.8502 1727.25 14.7826 1727.25 13.5481Z" fill="#C9CBCF"/>
<path d="M1733.13 9.57245C1733.47 8.57153 1734.08 7.81251 1734.97 7.29536C1735.85 6.76154 1736.97 6.49463 1738.33 6.49463V7.67071H1737.95C1736.56 7.67071 1735.41 8.0544 1734.5 8.82176C1733.58 9.57245 1733.13 10.8069 1733.13 12.5251V20.3573H1731.96V6.76988H1733.13V9.57245Z" fill="#C9CBCF"/>
<path d="M1741.62 3.73695C1741.34 3.73695 1741.11 3.65353 1740.92 3.48672C1740.73 3.30321 1740.63 3.06132 1740.63 2.76105C1740.63 2.47746 1740.73 2.24391 1740.92 2.06041C1741.11 1.87691 1741.34 1.78516 1741.62 1.78516C1741.89 1.78516 1742.13 1.87691 1742.32 2.06041C1742.51 2.24391 1742.6 2.47746 1742.6 2.76105C1742.6 3.06132 1742.51 3.30321 1742.32 3.48672C1742.13 3.65353 1741.89 3.73695 1741.62 3.73695ZM1742.19 6.76472V20.3521H1741.02V6.76472H1742.19Z" fill="#C9CBCF"/>
<path d="M1745.73 13.5491C1745.73 12.1311 1746.02 10.8968 1746.59 9.84576C1747.18 8.79479 1747.98 7.99406 1749 7.44356C1750.04 6.87637 1751.22 6.59277 1752.55 6.59277C1754.31 6.59277 1755.75 7.01817 1756.87 7.86894C1758.01 8.71973 1758.72 9.86244 1759 11.2971H1757.78C1757.56 10.1293 1756.97 9.21184 1756.02 8.54456C1755.09 7.87729 1753.93 7.54365 1752.55 7.54365C1751.51 7.54365 1750.57 7.76885 1749.72 8.21927C1748.88 8.65299 1748.2 9.32861 1747.68 10.2461C1747.18 11.1469 1746.93 12.2479 1746.93 13.5491C1746.93 14.867 1747.18 15.9764 1747.68 16.8772C1748.2 17.778 1748.88 18.4536 1749.72 18.9041C1750.57 19.3545 1751.51 19.5797 1752.55 19.5797C1753.93 19.5797 1755.09 19.246 1756.02 18.5788C1756.97 17.9114 1757.56 16.994 1757.78 15.8262H1759C1758.72 17.2442 1758.01 18.3869 1756.87 19.2544C1755.73 20.1218 1754.29 20.5556 1752.55 20.5556C1751.22 20.5556 1750.04 20.2719 1749 19.7048C1747.98 19.1376 1747.18 18.3285 1746.59 17.2776C1746.02 16.2099 1745.73 14.9671 1745.73 13.5491Z" fill="#C9CBCF"/>
<g clip-path="url(#clip0_18081_14168)">
<path d="M1879.11 23.4685C1880.6 23.4685 1881.78 23.1494 1882.64 22.5111C1883.06 22.2023 1883.39 21.8013 1883.62 21.3421C1883.84 20.8829 1883.95 20.3788 1883.92 19.8725C1883.94 19.3504 1883.81 18.8338 1883.54 18.3789C1883.23 17.9232 1882.8 17.559 1882.29 17.3277C1881.53 16.9692 1880.73 16.6973 1879.91 16.5179C1878.98 16.2927 1878.27 16.0995 1877.8 15.9387C1877.45 15.8361 1877.12 15.6644 1876.84 15.4345C1876.67 15.2604 1876.58 15.0305 1876.59 14.7937C1876.59 14.5824 1876.65 14.3749 1876.76 14.1944C1876.88 14.014 1877.04 13.8676 1877.24 13.772C1877.75 13.5034 1878.34 13.3867 1878.92 13.4368C1879.56 13.4393 1880.17 13.6264 1880.69 13.9731C1881.01 14.1887 1881.26 14.494 1881.39 14.8473C1881.42 14.9544 1881.5 15.0466 1881.59 15.1075C1881.69 15.1684 1881.81 15.1941 1881.92 15.1798L1883.45 14.9116C1883.5 14.9043 1883.56 14.8867 1883.6 14.86C1883.65 14.8333 1883.69 14.798 1883.72 14.7563C1883.75 14.7146 1883.77 14.6674 1883.78 14.6176C1883.79 14.5677 1883.79 14.5163 1883.78 14.4665C1883.57 13.6297 1883.05 12.8986 1882.3 12.4231C1881.29 11.7855 1880.1 11.4656 1878.9 11.5087C1877.51 11.5087 1876.39 11.8207 1875.54 12.4446C1875.13 12.7273 1874.8 13.1003 1874.58 13.5311C1874.36 13.9619 1874.26 14.4376 1874.27 14.917C1874.26 15.4138 1874.39 15.9048 1874.65 16.3356C1874.97 16.7689 1875.42 17.1098 1875.93 17.3223C1876.71 17.6712 1877.53 17.946 1878.36 18.1429C1879.3 18.3807 1879.99 18.58 1880.44 18.7409C1880.78 18.833 1881.09 19.0109 1881.33 19.2558C1881.48 19.4556 1881.56 19.7012 1881.55 19.9503C1881.56 20.1775 1881.51 20.4031 1881.4 20.6058C1881.29 20.8084 1881.13 20.9815 1880.93 21.1087C1880.43 21.4145 1879.84 21.5618 1879.25 21.5297C1878.55 21.5532 1877.86 21.3768 1877.26 21.0229C1876.86 20.7734 1876.54 20.4097 1876.37 19.9824C1876.33 19.8859 1876.26 19.8038 1876.17 19.7493C1876.08 19.6949 1875.97 19.6712 1875.86 19.6821L1874.33 19.9101C1874.27 19.9168 1874.22 19.9347 1874.17 19.9626C1874.12 19.9904 1874.08 20.0276 1874.05 20.0717C1874.02 20.1158 1874 20.1657 1873.99 20.2183C1873.98 20.2709 1873.98 20.3248 1873.99 20.3766C1874.22 21.2595 1874.78 22.0314 1875.57 22.5487C1876.49 23.1619 1877.67 23.4685 1879.11 23.4685Z" fill="#C9CBCF"/>
<path d="M1887.46 22.7569C1887.46 22.8639 1887.5 22.9662 1887.58 23.0415C1887.66 23.1168 1887.77 23.1591 1887.88 23.1591H1889.37C1889.48 23.1591 1889.58 23.1168 1889.66 23.0413C1889.74 22.9659 1889.79 22.8636 1889.79 22.7569V17.249C1889.75 16.5137 1889.89 15.7808 1890.2 15.1038C1890.43 14.6149 1890.81 14.207 1891.29 13.9373C1891.76 13.6977 1892.27 13.5749 1892.8 13.5806C1893.34 13.5571 1893.87 13.6848 1894.34 13.948C1894.73 14.1866 1895.04 14.521 1895.25 14.9161C1895.47 15.3262 1895.61 15.766 1895.68 16.2193C1895.76 16.6677 1895.8 17.1215 1895.8 17.5761V22.7569C1895.8 22.8099 1895.81 22.8625 1895.83 22.9115C1895.86 22.9605 1895.89 23.0049 1895.93 23.0423C1895.97 23.0797 1896.01 23.1093 1896.06 23.1293C1896.11 23.1494 1896.17 23.1595 1896.22 23.1591H1897.71C1897.76 23.1595 1897.82 23.1494 1897.87 23.1293C1897.92 23.1093 1897.97 23.0797 1898.01 23.0423C1898.05 23.0049 1898.08 22.9605 1898.1 22.9115C1898.12 22.8625 1898.13 22.8099 1898.13 22.7569V16.8575C1898.13 16.4492 1898.09 16.0417 1898.03 15.6374C1897.96 15.1534 1897.84 14.678 1897.66 14.2189C1897.47 13.731 1897.2 13.2774 1896.86 12.8781C1896.49 12.4494 1896.03 12.1071 1895.5 11.8779C1894.85 11.608 1894.15 11.4789 1893.44 11.4997C1892.65 11.4858 1891.87 11.6368 1891.15 11.9422C1890.84 12.0818 1890.54 12.2545 1890.26 12.457C1890.19 12.5048 1890.12 12.5353 1890.04 12.5452C1889.95 12.5552 1889.87 12.5444 1889.79 12.514C1889.72 12.4835 1889.65 12.4345 1889.6 12.3718C1889.55 12.309 1889.52 12.2349 1889.51 12.1567C1889.51 12.0636 1889.47 11.9742 1889.4 11.9083C1889.34 11.8424 1889.24 11.8054 1889.14 11.8054H1887.88C1887.77 11.8054 1887.66 11.8481 1887.58 11.924C1887.5 12 1887.46 12.103 1887.46 12.2104V22.7569Z" fill="#C9CBCF"/>
<path d="M1905.44 23.4923C1906.82 23.4923 1907.95 23.1446 1908.84 22.4492C1909.15 22.2024 1909.72 22.3955 1909.72 22.7816C1909.72 22.8862 1909.77 22.9865 1909.84 23.0604C1909.92 23.1343 1910.02 23.1758 1910.13 23.1758H1911.33C1911.39 23.1762 1911.44 23.166 1911.49 23.146C1911.54 23.126 1911.59 23.0963 1911.63 23.059C1911.67 23.0216 1911.7 22.9772 1911.72 22.9282C1911.74 22.8792 1911.75 22.8266 1911.75 22.7736V16.1716C1911.75 15.697 1911.73 15.2519 1911.69 14.8308C1911.65 14.4215 1911.53 14.023 1911.34 13.6536C1910.99 12.9202 1910.37 12.3357 1909.6 12.0126C1908.73 11.6419 1907.78 11.4588 1906.83 11.4762C1905.46 11.4762 1904.36 11.764 1903.53 12.3396C1902.82 12.825 1902.29 13.5048 1901.99 14.2892C1901.97 14.3389 1901.96 14.3917 1901.97 14.4442C1901.97 14.4966 1901.99 14.5475 1902.02 14.5937C1902.04 14.6399 1902.08 14.6804 1902.12 14.7124C1902.17 14.7445 1902.22 14.7674 1902.27 14.7799L1903.62 15.1767C1903.73 15.2057 1903.85 15.1943 1903.95 15.1448C1904.05 15.0954 1904.13 15.0113 1904.18 14.9086C1904.37 14.4905 1904.7 14.1428 1905.12 13.9164C1905.64 13.6345 1906.23 13.4893 1906.83 13.4954C1907.76 13.4954 1908.43 13.6849 1908.83 14.064C1909.21 14.4319 1909.44 14.9166 1909.48 15.4315C1909.49 15.531 1909.46 15.631 1909.39 15.7094C1909.33 15.7879 1909.23 15.8384 1909.13 15.8498C1908.29 15.9598 1907.48 16.0778 1906.67 16.1984C1905.86 16.3107 1905.05 16.4719 1904.26 16.6811C1903.45 16.897 1902.72 17.3319 1902.17 17.9334C1901.68 18.5346 1901.42 19.2836 1901.46 20.0465C1901.45 20.6424 1901.6 21.2298 1901.9 21.752C1902.23 22.2773 1902.7 22.7069 1903.26 22.9935C1903.93 23.3294 1904.68 23.5007 1905.44 23.4923ZM1905.85 21.6929C1905.12 21.6929 1904.58 21.5321 1904.23 21.2102C1904.06 21.0642 1903.93 20.887 1903.84 20.6899C1903.75 20.4927 1903.71 20.28 1903.71 20.0652C1903.69 19.8647 1903.73 19.6643 1903.81 19.4786C1903.89 19.2929 1904.01 19.1268 1904.17 18.9926C1904.52 18.7151 1904.92 18.5039 1905.35 18.3705C1905.92 18.2138 1906.51 18.0911 1907.1 18.0031C1907.66 17.9173 1908.29 17.8279 1908.97 17.735C1909.03 17.7256 1909.09 17.7294 1909.15 17.7461C1909.21 17.7627 1909.27 17.7918 1909.31 17.8312C1909.36 17.8706 1909.39 17.9193 1909.41 17.9736C1909.44 18.028 1909.45 18.0866 1909.44 18.1452C1909.44 18.2766 1909.42 18.4134 1909.41 18.5582C1909.39 18.8586 1909.33 19.155 1909.23 19.4405C1909.13 19.8343 1908.94 20.2013 1908.67 20.513C1908.36 20.8751 1907.98 21.1667 1907.54 21.3658C1907.01 21.5933 1906.43 21.7016 1905.85 21.6822V21.6929Z" fill="#C9CBCF"/>
<path d="M1915.68 27.804C1915.68 27.9114 1915.73 28.0143 1915.81 28.0903C1915.89 28.1662 1915.99 28.2089 1916.11 28.2089H1917.57C1917.68 28.2089 1917.79 28.1662 1917.87 28.0903C1917.95 28.0143 1917.99 27.9114 1917.99 27.804V23.2668C1918 23.1847 1918.03 23.1057 1918.08 23.0372C1918.12 22.9687 1918.19 22.9129 1918.27 22.8749C1918.34 22.837 1918.43 22.8181 1918.51 22.8201C1918.6 22.822 1918.68 22.8447 1918.76 22.886C1918.97 23.0026 1919.2 23.1013 1919.43 23.181C1920.02 23.3848 1920.64 23.4847 1921.27 23.476C1922.29 23.5029 1923.29 23.2255 1924.14 22.6822C1924.95 22.1423 1925.59 21.4005 1926 20.537C1926.45 19.576 1926.68 18.5314 1926.66 17.4773C1926.68 16.4232 1926.45 15.3781 1926 14.4177C1925.59 13.5479 1924.94 12.8044 1924.12 12.2724C1923.27 11.7335 1922.26 11.4583 1921.24 11.4841C1920.56 11.4745 1919.89 11.5967 1919.26 11.8434C1918.92 11.9735 1918.61 12.1419 1918.31 12.3449C1918.26 12.3779 1918.2 12.3977 1918.14 12.4022C1918.08 12.4067 1918.01 12.3956 1917.96 12.3703C1917.9 12.3449 1917.85 12.3061 1917.82 12.2574C1917.78 12.2088 1917.76 12.1521 1917.75 12.0928C1917.75 12.0152 1917.72 11.9409 1917.66 11.8861C1917.61 11.8313 1917.53 11.8004 1917.45 11.8004H1916.13C1916.08 11.8001 1916.02 11.8103 1915.97 11.8306C1915.92 11.8508 1915.87 11.8806 1915.83 11.9183C1915.79 11.956 1915.76 12.0008 1915.74 12.05C1915.72 12.0993 1915.71 12.1521 1915.71 12.2054L1915.68 27.804ZM1920.95 21.4889C1919.83 21.4889 1919.01 21.1135 1918.49 20.3626C1917.97 19.6118 1917.71 18.6483 1917.73 17.472C1917.73 16.2939 1917.98 15.333 1918.49 14.5893C1918.99 13.8456 1919.79 13.4738 1920.87 13.4738C1921.54 13.4475 1922.2 13.6363 1922.75 14.0101C1923.25 14.3804 1923.63 14.8813 1923.84 15.4528C1924.09 16.099 1924.21 16.7834 1924.2 17.472C1924.21 18.1666 1924.09 18.8573 1923.85 19.5126C1923.64 20.0809 1923.27 20.5803 1922.77 20.9526C1922.25 21.3251 1921.6 21.5143 1920.95 21.4889Z" fill="#C9CBCF"/>
<path d="M1930.4 22.7596C1930.4 22.8665 1930.44 22.9688 1930.52 23.0441C1930.6 23.1195 1930.71 23.1618 1930.82 23.1618H1932.28C1932.33 23.1622 1932.39 23.152 1932.44 23.132C1932.49 23.1119 1932.54 23.0823 1932.58 23.045C1932.62 23.0075 1932.65 22.9631 1932.67 22.9141C1932.69 22.8651 1932.7 22.8126 1932.7 22.7596V8.10755C1932.7 8.00017 1932.66 7.89717 1932.58 7.82123C1932.5 7.7453 1932.39 7.70264 1932.28 7.70264H1930.82C1930.71 7.70334 1930.6 7.74623 1930.52 7.82202C1930.44 7.8978 1930.4 8.00039 1930.4 8.10755V22.7596Z" fill="#C9CBCF"/>
<path d="M1942.37 23.4866C1943.47 23.4995 1944.56 23.2112 1945.5 22.6553C1946.31 22.1774 1946.96 21.5001 1947.4 20.6951C1947.43 20.6452 1947.44 20.5904 1947.44 20.5349C1947.44 20.4792 1947.43 20.4239 1947.41 20.3729C1947.39 20.3219 1947.35 20.2763 1947.31 20.2394C1947.26 20.2023 1947.21 20.1749 1947.16 20.1588L1945.7 19.719C1945.6 19.6914 1945.5 19.6965 1945.4 19.7336C1945.31 19.7705 1945.23 19.8373 1945.18 19.9228C1944.56 20.9204 1943.59 21.4218 1942.26 21.4218C1941.83 21.4435 1941.39 21.3779 1940.99 21.2291C1940.58 21.0803 1940.22 20.8518 1939.91 20.5583C1939.39 19.9991 1939.06 19.2998 1938.96 18.5553C1938.96 18.5001 1938.96 18.444 1938.98 18.3906C1938.99 18.3374 1939.02 18.2882 1939.06 18.2466C1939.1 18.205 1939.15 18.172 1939.2 18.1498C1939.25 18.1276 1939.31 18.1168 1939.37 18.1182H1947.36C1947.47 18.1196 1947.57 18.0804 1947.65 18.0092C1947.73 17.9379 1947.77 17.8403 1947.77 17.7374C1947.82 16.6668 1947.65 15.5973 1947.25 14.5946C1946.88 13.6629 1946.22 12.8651 1945.35 12.3126C1944.43 11.7562 1943.35 11.4761 1942.27 11.5081C1941.2 11.4732 1940.14 11.721 1939.21 12.2241C1938.33 12.7278 1937.62 13.4609 1937.16 14.3371C1936.66 15.3401 1936.41 16.4427 1936.44 17.555C1936.41 18.6279 1936.67 19.6898 1937.17 20.6468C1937.65 21.5087 1938.37 22.2263 1939.25 22.7197C1940.2 23.2352 1941.28 23.4999 1942.37 23.4866ZM1942.35 13.4442C1944 13.4442 1945 14.2791 1945.33 15.9488C1945.34 16.0047 1945.34 16.062 1945.32 16.1168C1945.31 16.1716 1945.28 16.2223 1945.24 16.2654C1945.2 16.3086 1945.16 16.3429 1945.1 16.3661C1945.05 16.3892 1944.99 16.4005 1944.93 16.3992H1939.44C1939.38 16.4006 1939.32 16.3888 1939.27 16.3648C1939.21 16.3409 1939.17 16.3054 1939.13 16.261C1939.09 16.2166 1939.06 16.1645 1939.05 16.1085C1939.03 16.0526 1939.03 15.9943 1939.05 15.938C1939.18 15.2781 1939.52 14.6726 1940.02 14.2004C1940.59 13.6855 1941.36 13.4334 1942.34 13.4334L1942.35 13.4442Z" fill="#C9CBCF"/>
<path d="M1957.77 23.22C1957.87 23.2041 1957.96 23.156 1958.02 23.0843C1958.08 23.0126 1958.12 22.922 1958.12 22.8285V21.7693C1958.12 21.7106 1958.1 21.6526 1958.08 21.5992C1958.05 21.5458 1958.01 21.4982 1957.97 21.4594C1957.92 21.4206 1957.87 21.3917 1957.81 21.3743C1957.75 21.357 1957.69 21.3518 1957.63 21.359C1957.11 21.4123 1956.6 21.4123 1956.08 21.359C1955.82 21.34 1955.58 21.262 1955.36 21.1318C1955.14 21.0015 1954.96 20.8228 1954.83 20.6108C1954.68 20.3498 1954.6 20.0579 1954.6 19.7608C1954.6 19.4229 1954.6 19.026 1954.6 18.5702V13.9606C1954.6 13.8532 1954.64 13.7502 1954.72 13.6743C1954.8 13.5984 1954.91 13.5557 1955.02 13.5557H1957.7C1957.82 13.555 1957.92 13.5121 1958 13.4363C1958.08 13.3605 1958.13 13.2579 1958.13 13.1508V12.1935C1958.13 12.0861 1958.08 11.9831 1958 11.9071C1957.92 11.8312 1957.82 11.7885 1957.7 11.7885H1955.02C1954.91 11.7879 1954.8 11.745 1954.72 11.6691C1954.64 11.5934 1954.6 11.4908 1954.6 11.3836V9.03725C1954.6 8.93007 1954.55 8.82755 1954.47 8.75172C1954.39 8.67597 1954.29 8.63307 1954.18 8.63232H1952.71C1952.6 8.63307 1952.49 8.67597 1952.41 8.75172C1952.33 8.82755 1952.29 8.93007 1952.29 9.03725V11.3836C1952.29 11.4906 1952.24 11.5932 1952.17 11.669C1952.09 11.7449 1951.98 11.7879 1951.87 11.7885H1950.44C1950.38 11.7885 1950.33 11.799 1950.27 11.8194C1950.22 11.8398 1950.18 11.8697 1950.14 11.9073C1950.1 11.9449 1950.07 11.9896 1950.05 12.0387C1950.03 12.0879 1950.01 12.1404 1950.02 12.1935V13.1508C1950.02 13.2577 1950.06 13.3603 1950.14 13.4361C1950.22 13.512 1950.32 13.555 1950.44 13.5557H1951.87C1951.92 13.5557 1951.98 13.5662 1952.03 13.5866C1952.08 13.607 1952.13 13.6368 1952.17 13.6745C1952.21 13.7121 1952.24 13.7568 1952.26 13.8059C1952.28 13.8549 1952.29 13.9076 1952.29 13.9606V18.6774C1952.29 19.2942 1952.3 19.8475 1952.31 20.3373C1952.34 20.8382 1952.48 21.3272 1952.73 21.7693C1953.01 22.2825 1953.46 22.6898 1954.02 22.925C1954.62 23.1799 1955.28 23.3158 1955.94 23.3246C1956.55 23.3461 1957.17 23.3111 1957.77 23.22Z" fill="#C9CBCF"/>
<path d="M1839.86 29.092C1840.83 29.092 1841.75 28.7262 1842.43 28.0752C1843.11 27.4241 1843.5 26.5409 1843.5 25.6197C1843.5 25.1634 1843.4 24.7117 1843.22 24.2902C1843.04 23.8688 1842.77 23.4858 1842.43 23.1634C1842.09 22.8409 1841.69 22.5852 1841.25 22.4109C1840.81 22.2366 1840.34 22.147 1839.86 22.1475C1838.9 22.1475 1837.98 22.5132 1837.3 23.1645C1836.62 23.8156 1836.23 24.6988 1836.23 25.6197C1836.24 26.5404 1836.62 27.4231 1837.3 28.0741C1837.98 28.7251 1838.9 29.0912 1839.86 29.092Z" fill="#C9CBCF"/>
<path d="M1858.34 26.114C1858.82 26.1143 1859.29 26.0248 1859.73 25.8505C1860.17 25.6762 1860.57 25.4204 1860.91 25.098C1861.25 24.7755 1861.51 24.3926 1861.7 23.9711C1861.88 23.5496 1861.97 23.0979 1861.97 22.6417C1861.97 21.7205 1861.59 20.8374 1860.91 20.1862C1860.23 19.5351 1859.3 19.1694 1858.34 19.1694C1857.38 19.1702 1856.46 19.5363 1855.77 20.1873C1855.09 20.8383 1854.71 21.721 1854.71 22.6417C1854.71 23.5625 1855.09 24.4458 1855.77 25.097C1856.45 25.7481 1857.38 26.114 1858.34 26.114Z" fill="#C9CBCF"/>
<path d="M1830.92 34.5182C1830.8 34.5186 1830.69 34.4987 1830.58 34.4595C1830.47 34.418 1830.37 34.3555 1830.28 34.2754C1830.19 34.1954 1830.12 34.0995 1830.07 33.9932C1830.02 33.887 1829.99 33.7724 1829.99 33.6563C1829.99 33.5402 1830.01 33.4248 1830.06 33.3167C1830.08 33.2582 1830.95 30.8729 1831.35 22.7915C1831.57 18.3962 1831.57 16.4652 1831.2 12.1491C1830.84 8.01748 1831.43 5.58837 1832.93 4.92321C1835.03 4.0002 1836.93 5.48873 1838.78 6.93038C1840.81 8.52148 1842.91 10.1536 1845.73 9.76093C1847.65 9.48553 1848.35 7.76548 1849.21 5.17227C1849.88 3.15337 1850.56 1.07 1852.58 0.776986C1853.53 0.645127 1854.57 0.996755 1855.68 1.826C1861 5.80812 1867.26 19.92 1868.31 30.3191C1868.33 30.4343 1868.31 30.5504 1868.28 30.6611C1868.24 30.7717 1868.19 30.8746 1868.11 30.9639C1868.03 31.0532 1867.94 31.127 1867.83 31.1813C1867.72 31.2356 1867.61 31.2692 1867.49 31.2803C1867.25 31.3023 1867 31.2314 1866.82 31.083C1866.63 30.9347 1866.51 30.7211 1866.49 30.4891C1865.4 19.7969 1859.02 6.55241 1854.54 3.20906C1853.86 2.70507 1853.26 2.45598 1852.83 2.51752C1851.95 2.64352 1851.46 4.12621 1850.94 5.69972C1850.16 8.07904 1849.18 11.0386 1845.99 11.4985C1842.36 12.0202 1839.72 9.95143 1837.59 8.27533C1835.82 6.88937 1834.68 6.06306 1833.67 6.51723C1833.25 6.70477 1832.69 8.35738 1833.01 11.9996C1833.39 16.4154 1833.38 18.3845 1833.16 22.8677C1832.73 31.4209 1831.78 33.8413 1831.74 33.9409C1831.68 34.1048 1831.57 34.2471 1831.42 34.3498C1831.27 34.4527 1831.1 34.5112 1830.92 34.5182Z" fill="#C9CBCF"/>
<path d="M1835.21 27.6662C1835.12 27.6654 1835.03 27.6399 1834.95 27.5926C1834.88 27.5453 1834.82 27.4782 1834.78 27.3995C1834.76 27.3459 1834.74 27.2881 1834.74 27.2294C1834.74 27.1707 1834.75 27.1122 1834.77 27.0576C1834.8 27.003 1834.83 26.9532 1834.87 26.9113C1834.92 26.8694 1834.97 26.8361 1835.02 26.8134L1838.64 25.3308L1834.84 24.5924C1834.79 24.5812 1834.73 24.559 1834.68 24.5269C1834.63 24.4949 1834.59 24.4538 1834.55 24.4058C1834.52 24.3579 1834.5 24.3042 1834.48 24.2477C1834.47 24.1912 1834.47 24.133 1834.49 24.0767C1834.5 24.0199 1834.52 23.9659 1834.55 23.9178C1834.59 23.8696 1834.63 23.8283 1834.68 23.7961C1834.73 23.764 1834.79 23.7417 1834.85 23.7305C1834.9 23.7193 1834.97 23.7194 1835.02 23.7309L1840.26 24.7507C1840.36 24.7688 1840.44 24.8158 1840.51 24.8849C1840.58 24.954 1840.62 25.0413 1840.63 25.1345C1840.64 25.2279 1840.62 25.3218 1840.57 25.4029C1840.52 25.4839 1840.44 25.5479 1840.35 25.5857L1835.39 27.6281C1835.33 27.6534 1835.27 27.6665 1835.21 27.6662Z" fill="#C9CBCF"/>
<path d="M1863 23.3789H1862.98L1857.58 23.1005C1857.49 23.0972 1857.4 23.0659 1857.32 23.0108C1857.25 22.9556 1857.19 22.8794 1857.16 22.7928C1857.14 22.7023 1857.15 22.6067 1857.18 22.5202C1857.22 22.4337 1857.28 22.3608 1857.37 22.3123L1861.92 19.6312C1862.02 19.5711 1862.14 19.5525 1862.26 19.5794C1862.38 19.6063 1862.48 19.6764 1862.55 19.7747C1862.61 19.8746 1862.63 19.994 1862.6 20.1073C1862.57 20.2207 1862.5 20.3191 1862.4 20.3813L1859.1 22.3211L1863.02 22.5233C1863.15 22.5301 1863.26 22.5825 1863.34 22.6692C1863.42 22.7559 1863.47 22.8698 1863.46 22.9862C1863.45 23.0942 1863.39 23.194 1863.31 23.2664C1863.22 23.3388 1863.11 23.3789 1863 23.3789Z" fill="#C9CBCF"/>
<path d="M1848.64 26.4028C1847.89 26.4336 1847.15 26.225 1846.54 25.8097C1845.92 25.3945 1845.47 24.7961 1845.25 24.1085C1845.2 23.9628 1845.22 23.8053 1845.29 23.6697C1845.36 23.534 1845.49 23.4307 1845.64 23.3818C1845.79 23.3302 1845.96 23.3388 1846.11 23.4059C1846.25 23.4729 1846.37 23.5928 1846.42 23.7393C1846.82 24.9114 1847.88 25.4212 1849.32 25.1721C1850.76 24.9231 1851.53 24.0762 1851.51 22.8456C1851.51 22.6901 1851.57 22.5411 1851.69 22.4312C1851.8 22.3212 1851.96 22.2595 1852.12 22.2595C1852.28 22.2595 1852.44 22.3212 1852.55 22.4312C1852.67 22.5411 1852.73 22.6901 1852.73 22.8456C1852.77 24.6564 1851.55 25.9984 1849.54 26.3472C1849.24 26.3912 1848.94 26.4098 1848.64 26.4028Z" fill="#C9CBCF"/>
<path d="M1838.38 21.1861C1838.34 21.1906 1838.29 21.1906 1838.25 21.1861C1838.09 21.1519 1837.95 21.0589 1837.86 20.9275C1837.78 20.7962 1837.75 20.6374 1837.78 20.4858C1838.09 19.2288 1839.77 17.2802 1841.84 16.9696C1843.91 16.659 1846.03 18.1417 1846.38 19.2815C1846.4 19.3554 1846.41 19.4328 1846.4 19.5093C1846.39 19.5858 1846.37 19.6599 1846.33 19.7274C1846.29 19.7949 1846.24 19.8545 1846.17 19.9026C1846.11 19.9508 1846.04 19.9867 1845.96 20.0082C1845.81 20.0518 1845.64 20.0347 1845.5 19.9606C1845.35 19.8864 1845.25 19.7613 1845.2 19.6127C1845.03 19.0501 1843.53 17.8985 1842.03 18.1271C1840.53 18.3556 1839.19 19.85 1838.97 20.7642C1838.93 20.8859 1838.86 20.9929 1838.75 21.0689C1838.64 21.145 1838.51 21.1861 1838.38 21.1861Z" fill="#C9CBCF"/>
<path d="M1850.32 19.2388C1850.26 19.2396 1850.2 19.2317 1850.15 19.2154C1850.07 19.1944 1850 19.159 1849.94 19.1113C1849.87 19.0636 1849.82 19.0045 1849.78 18.9373C1849.74 18.8701 1849.72 18.7961 1849.71 18.7196C1849.7 18.6431 1849.7 18.5656 1849.73 18.4916C1850.03 17.4279 1851.14 15.5409 1853.28 15.2156C1855.23 14.9226 1857.47 16.168 1858.09 17.4397C1858.13 17.51 1858.15 17.5861 1858.15 17.6635C1858.15 17.7409 1858.14 17.818 1858.11 17.8905C1858.08 17.9629 1858.04 18.0293 1857.98 18.0857C1857.93 18.1421 1857.86 18.1874 1857.79 18.2191C1857.71 18.2518 1857.63 18.2703 1857.55 18.2733C1857.47 18.2762 1857.39 18.2638 1857.31 18.2365C1857.24 18.2092 1857.17 18.1677 1857.11 18.1144C1857.05 18.0611 1857 17.9971 1856.97 17.9261C1856.59 17.1554 1854.91 16.1357 1853.46 16.3584C1851.93 16.5899 1851.11 18.055 1850.89 18.7993C1850.86 18.9219 1850.78 19.031 1850.68 19.1102C1850.58 19.1895 1850.45 19.2346 1850.32 19.2388Z" fill="#C9CBCF"/>
<path fill-rule="evenodd" clip-rule="evenodd" d="M1853.63 21.3263C1852.35 21.3248 1851.11 20.8349 1850.2 19.9643C1849.3 19.1014 1848.79 17.9342 1848.78 16.7148C1848.6 16.6857 1848.41 16.6708 1848.23 16.6703C1847.62 16.6704 1847.03 16.8303 1846.51 17.1279C1846.69 17.6105 1846.78 18.1219 1846.78 18.6423C1846.78 19.8736 1846.27 21.054 1845.36 21.9246C1844.45 22.7953 1843.21 23.2851 1841.92 23.2866C1840.64 23.2851 1839.4 22.7953 1838.49 21.9246C1837.69 21.1596 1837.2 20.1555 1837.09 19.0878L1836.14 19.2547C1836.09 19.2659 1836.04 19.2727 1836 19.2752C1835.82 19.2744 1835.65 19.2136 1835.51 19.1033C1835.37 18.993 1835.28 18.8402 1835.25 18.6716C1835.23 18.5773 1835.23 18.4805 1835.25 18.3868C1835.27 18.293 1835.31 18.2042 1835.37 18.1253C1835.43 18.0463 1835.5 17.9789 1835.58 17.9268C1835.67 17.8748 1835.76 17.8391 1835.86 17.8218L1837.2 17.5857C1837.4 16.7503 1837.85 15.9783 1838.49 15.3618C1839.4 14.4918 1840.64 14.0024 1841.92 14.0009C1843.21 14.0024 1844.44 14.4918 1845.35 15.3618C1845.51 15.5106 1845.65 15.6685 1845.79 15.8341C1846.52 15.4229 1847.37 15.2025 1848.23 15.2022C1848.49 15.2018 1848.75 15.2222 1849.01 15.2629C1849.25 14.5666 1849.65 13.9264 1850.2 13.3996C1851.11 12.529 1852.35 12.0392 1853.63 12.0376C1854.92 12.0392 1856.15 12.529 1857.06 13.3996C1857.27 13.5965 1857.46 13.8094 1857.62 14.0351C1857.63 14.0321 1857.65 14.0294 1857.66 14.0271L1858.81 13.8249C1859.01 13.7907 1859.22 13.8331 1859.38 13.9428C1859.55 14.0526 1859.66 14.2209 1859.7 14.411C1859.74 14.6018 1859.69 14.7986 1859.58 14.9585C1859.46 15.1183 1859.29 15.2281 1859.09 15.2636L1858.3 15.402C1858.42 15.8146 1858.49 16.2451 1858.49 16.682C1858.49 17.9132 1857.97 19.0937 1857.06 19.9643C1856.15 20.8349 1854.92 21.3248 1853.63 21.3263ZM1853.63 13.5027C1852.75 13.5035 1851.91 13.8387 1851.28 14.4347C1850.66 15.0308 1850.31 15.839 1850.31 16.682C1850.31 17.5247 1850.66 18.3324 1851.29 18.9284C1851.91 19.5242 1852.75 19.8596 1853.63 19.8612C1854.51 19.8596 1855.36 19.5242 1855.98 18.9284C1856.6 18.3324 1856.95 17.5247 1856.96 16.682C1856.96 15.839 1856.61 15.0308 1855.98 14.4347C1855.36 13.8387 1854.51 13.5035 1853.63 13.5027ZM1841.92 15.463C1841.04 15.4646 1840.2 15.8 1839.58 16.3959C1838.95 16.9918 1838.6 17.7995 1838.6 18.6423C1838.6 19.485 1838.95 20.2928 1839.58 20.8886C1840.2 21.4845 1841.04 21.82 1841.92 21.8216C1842.8 21.82 1843.65 21.4845 1844.27 20.8886C1844.9 20.2928 1845.25 19.485 1845.25 18.6423C1845.24 17.8001 1844.89 16.9931 1844.27 16.3978C1843.65 15.8025 1842.8 15.4675 1841.92 15.4659V15.463Z" fill="#C9CBCF"/>
</g>
<defs>
<linearGradient id="paint0_linear_18081_14168" x1="84.002" y1="0.999963" x2="84.0019" y2="36.6207" gradientUnits="userSpaceOnUse">
<stop stop-color="#E4E5E7"/>
<stop offset="1" stop-color="#E4E5E7" stop-opacity="0.7"/>
</linearGradient>
<linearGradient id="paint1_linear_18081_14168" x1="270.244" y1="0.500011" x2="270.244" y2="36.4999" gradientUnits="userSpaceOnUse">
<stop stop-color="#E4E5E7"/>
<stop offset="1" stop-color="#E4E5E7" stop-opacity="0.7"/>
</linearGradient>
<linearGradient id="paint2_linear_18081_14168" x1="438.998" y1="0.500007" x2="438.998" y2="36.4999" gradientUnits="userSpaceOnUse">
<stop stop-color="#E4E5E7"/>
<stop offset="1" stop-color="#E4E5E7" stop-opacity="0.7"/>
</linearGradient>
<linearGradient id="paint3_linear_18081_14168" x1="606.832" y1="0.5" x2="606.832" y2="35.5" gradientUnits="userSpaceOnUse">
<stop stop-color="#E4E5E7"/>
<stop offset="1" stop-color="#E4E5E7" stop-opacity="0.7"/>
</linearGradient>
<linearGradient id="paint4_linear_18081_14168" x1="736.61" y1="-1.49998" x2="736.61" y2="34.4999" gradientUnits="userSpaceOnUse">
<stop stop-color="#E4E5E7"/>
<stop offset="1" stop-color="#E4E5E7" stop-opacity="0.7"/>
</linearGradient>
<linearGradient id="paint5_linear_18081_14168" x1="736.61" y1="-1.49998" x2="736.61" y2="34.4999" gradientUnits="userSpaceOnUse">
<stop stop-color="#E4E5E7"/>
<stop offset="1" stop-color="#E4E5E7" stop-opacity="0.7"/>
</linearGradient>
<linearGradient id="paint6_linear_18081_14168" x1="736.61" y1="-1.49998" x2="736.61" y2="34.4999" gradientUnits="userSpaceOnUse">
<stop stop-color="#E4E5E7"/>
<stop offset="1" stop-color="#E4E5E7" stop-opacity="0.7"/>
</linearGradient>
<linearGradient id="paint7_linear_18081_14168" x1="736.61" y1="-1.49998" x2="736.61" y2="34.4999" gradientUnits="userSpaceOnUse">
<stop stop-color="#E4E5E7"/>
<stop offset="1" stop-color="#E4E5E7" stop-opacity="0.7"/>
</linearGradient>
<linearGradient id="paint8_linear_18081_14168" x1="736.61" y1="-1.49998" x2="736.61" y2="34.4999" gradientUnits="userSpaceOnUse">
<stop stop-color="#E4E5E7"/>
<stop offset="1" stop-color="#E4E5E7" stop-opacity="0.7"/>
</linearGradient>
<linearGradient id="paint9_linear_18081_14168" x1="854.989" y1="-3.97356" x2="854.989" y2="31.8707" gradientUnits="userSpaceOnUse">
<stop stop-color="#E4E5E7"/>
<stop offset="1" stop-color="#E4E5E7" stop-opacity="0.7"/>
</linearGradient>
<linearGradient id="paint10_linear_18081_14168" x1="1046.96" y1="3.51767" x2="1046.96" y2="39.5195" gradientUnits="userSpaceOnUse">
<stop stop-color="#E4E5E7"/>
<stop offset="1" stop-color="#E4E5E7" stop-opacity="0.7"/>
</linearGradient>
<clipPath id="clip0_18081_14168">
<rect width="129" height="35.9999" fill="white" transform="translate(1830)"/>
</clipPath>
</defs>
</svg>
