<svg xmlns="http://www.w3.org/2000/svg" width="1911" height="36" fill="none">
  <path fill="url(#a)" fill-rule="evenodd" d="M46.192 6.723a1.56 1.56 0 0 1 .883 2.067 1.653 1.653 0 0 1-1.528.984c-.204 0-.442-.033-.646-.131-4.109-1.673-8.49-2.494-12.939-2.494-.917 0-1.63-.721-1.63-1.574 0-.853.747-1.575 1.63-1.575a36.93 36.93 0 0 1 14.23 2.723Zm-.009 6.37a1.56 1.56 0 0 1 .883 2.066 1.652 1.652 0 0 1-1.528.984c-.204 0-.442-.033-.645-.131-4.11-1.673-8.457-2.493-12.94-2.493-4.516 0-8.863.82-12.939 2.46-.849.328-1.8-.033-2.14-.853a1.55 1.55 0 0 1 .884-2.066c4.483-1.805 9.237-2.723 14.195-2.723 4.925 0 9.713.918 14.23 2.755Zm-5.094 6.294c.204-.853-.374-1.673-1.256-1.87a37.82 37.82 0 0 0-7.88-.82c-4.958 0-9.712.919-14.195 2.723a1.55 1.55 0 0 0-.883 2.066c.271.624.883.984 1.528.984.238 0 .441-.065.645-.13 4.076-1.674 8.423-2.494 12.94-2.494 2.343 0 4.754.263 7.165.755a1.626 1.626 0 0 0 1.936-1.214Zm-9.102 3.64c.917 0 1.63.722 1.63 1.575 0 .852-.747 1.574-1.63 1.574-4.516 0-8.863.82-12.939 2.493-.204.066-.407.131-.645.131-.645 0-1.257-.36-1.528-.984a1.55 1.55 0 0 1 .883-2.066 38.066 38.066 0 0 1 14.23-2.723Zm29.856 4.953v1.205h-3.312V11.229h3.364v7.093c.565-.868 1.951-1.661 3.825-1.661 3.698 0 5.829 2.752 5.829 6.373 0 3.696-2.363 6.448-5.957 6.448-1.746 0-2.465-.17-3.749-1.502Zm3.158-1.449c1.746 0 3.475-1.186 3.475-3.418s-1.729-3.501-3.475-3.501c-1.72 0-3.479 1.269-3.479 3.5 0 2.208 1.76 3.42 3.48 3.42Zm17.223 2.66h3.26a19.404 19.404 0 0 1-.127-2.207v-9.995h-3.415v7.093c0 1.414-.873 2.406-2.388 2.406-1.592 0-2.311-1.091-2.311-2.455v-7.044h-3.415v7.713c0 2.654 1.746 4.811 4.801 4.811 1.336 0 2.8-.496 3.492-1.636 0 .496.052 1.066.103 1.314Zm12.307-9.553c-1.49 0-2.362 1.116-2.362 2.53v7.018h-3.415V16.985h3.415v.737c.944-.948 2.467-.867 3.33-.82h.001c.102.005.195.01.277.012 2.14.07 4.505 1.906 4.505 4.584v7.688h-3.414V22.07c0-1.364-.694-2.43-2.337-2.43Zm36.317 6.152c.154 1.39 1.463 3.77 5.263 3.77 3.312 0 4.904-2.034 4.904-4.017 0-1.786-1.258-3.25-3.748-3.745l-1.798-.372c-.693-.124-1.155-.496-1.155-1.092 0-.694.719-1.215 1.618-1.215 1.437 0 1.977.918 2.079 1.637l2.85-.62c-.154-1.314-1.361-3.522-4.955-3.522-2.722 0-4.725 1.81-4.725 3.993 0 1.711 1.104 3.125 3.544 3.646l1.669.372c.975.198 1.361.645 1.361 1.19 0 .645-.54 1.215-1.669 1.215-1.49 0-2.234-.892-2.311-1.86l-2.927.62Zm18.445-6.153c-1.438 0-2.286 1.041-2.363 2.38v7.168h-3.414V11.229h3.414V18c.822-.942 2.209-1.338 3.415-1.338 3.21 0 4.699 2.157 4.699 4.836v7.688h-3.415v-7.118c0-1.364-.693-2.43-2.336-2.43Zm11.452 2.061c.077-1.116 1.053-2.405 2.824-2.405 1.952 0 2.773 1.19 2.825 2.405h-5.649Zm5.983 3.175c-.411 1.091-1.284 1.86-2.876 1.86-1.695 0-3.107-1.166-3.184-2.778h9.038l.002-.032.002-.029.003-.043.001-.006c.014-.182.043-.552.043-.907 0-3.918-2.336-6.324-6.239-6.324-3.235 0-6.213 2.53-6.213 6.424 0 4.116 3.055 6.522 6.521 6.522 3.107 0 5.11-1.76 5.751-3.869l-2.849-.818Zm8.875-13.644v17.956h-3.415V11.229h3.415Zm6.812 17.956V11.229H179v17.956h3.415Zm-48.646-17.956-11.418 22.767h-3.621l11.264-22.767h3.775Zm-14.119 5.43h-3.826l2.405 5.448 1.203 2.724.602 1.362 2.138-4.177-.84-1.785-.841-1.786-.841-1.786Zm-10.416 2.98c-1.489 0-2.362 1.115-2.362 2.529v7.018h-3.415V16.985h3.415v.737c.944-.947 2.467-.867 3.331-.82.102.005.195.01.277.012 2.14.07 4.505 1.906 4.505 4.584v7.688h-3.415V22.07c0-1.364-.693-2.43-2.336-2.43Z" clip-rule="evenodd" />
  <path fill="url(#b)" fill-rule="evenodd" d="M249.612.704c2.001 2.312 2.622 8.575 1.59 11.714a6.512 6.512 0 0 0-.242 3.218c.201 1.064.403 2.348.403 3.242 0 9.178-7.619 16.622-17.02 16.622-9.398 0-17.02-7.44-17.02-16.622 0-.894.201-2.178.403-3.242a6.463 6.463 0 0 0-.234-3.218c-1.032-3.135-.411-9.398 1.589-11.714.262-.3.75-.26.968.075l2.464 3.777c.614.752 1.711.93 2.533.402a17.216 17.216 0 0 1 9.301-2.702c3.432 0 6.626.992 9.3 2.702a1.928 1.928 0 0 0 2.533-.402L248.644.78a.611.611 0 0 1 .968-.075Zm-28.446 18.213c0 7.098 5.909 12.873 13.177 12.873s13.18-5.775 13.184-12.869c0-.228-.008-.46-.02-.689-.262-4.833-3.271-8.969-7.526-10.938-1.71-.8-3.618-1.241-5.634-1.241-2.017 0-3.928.441-5.634 1.237-4.256 1.97-7.264 6.101-7.526 10.938-.013.228-.021.457-.021.69Zm15.519-.75 3.367 5.703a.35.35 0 0 1 0 .366.371.371 0 0 1-.326.185h-2.739a.384.384 0 0 1-.327-.185l-1.798-3.044-2.005 3.056a.376.376 0 0 1-.318.17h-2.779a.38.38 0 0 1-.335-.194.363.363 0 0 1 .016-.378l3.707-5.522-2.763-4.534a.357.357 0 0 1-.004-.37.378.378 0 0 1 .33-.19h2.759a.38.38 0 0 1 .327.182l2.888 4.754ZM267.06 9.36h3.513v18.812h-3.513v-8.016h-3.969v8.02h-3.513V9.36h3.513v8.17h3.969V9.36Zm13.617 14.912.734 3.908h3.533l-4.062-18.812h-4.73l-3.876 18.812h3.513l.673-3.908h4.215Zm-.488-2.595h-3.267l1.589-9.005 1.678 9.005Zm12.58 3.072v-4.026c0-.319-.06-.531-.181-.642-.121-.11-.347-.165-.674-.165h-2.472c-2.098 0-3.146-.993-3.146-2.982v-4.616c0-1.97 1.097-2.95 3.295-2.95h3.36c2.198 0 3.295.984 3.295 2.95v2.623h-3.541v-2.147c0-.319-.061-.531-.182-.642-.121-.11-.347-.165-.673-.165h-1.162c-.347 0-.581.055-.702.165-.121.11-.181.323-.181.642v3.786c0 .319.06.531.181.642.121.11.355.165.702.165h2.412c2.137 0 3.206.973 3.206 2.923v4.92c0 1.969-1.109 2.95-3.327 2.95h-3.299c-2.218 0-3.328-.985-3.328-2.95v-2.596h3.509v2.115c0 .319.061.532.182.642.121.11.355.165.702.165h1.161c.327 0 .548-.055.674-.165.125-.11.189-.323.189-.642Zm16.418-15.39h-3.509v15.386c0 .32-.06.532-.181.642-.121.11-.355.165-.702.165h-1.617c-.327 0-.553-.055-.673-.165-.122-.11-.182-.323-.182-.642V9.36h-3.513v15.862c0 1.965 1.109 2.95 3.327 2.95h3.723c2.218 0 3.327-.98 3.327-2.95V9.36Zm6.413 11.483v7.334h-3.51V9.36h7.083c2.218 0 3.327.985 3.327 2.95v5.578c0 1.63-.742 2.583-2.23 2.863l3.206 7.425h-3.787l-2.932-7.334H315.6Zm0-8.859v6.322h2.532c.327 0 .549-.055.674-.165.121-.11.181-.323.181-.642V12.79c0-.32-.06-.532-.181-.642-.121-.11-.347-.166-.674-.166H315.6Zm16.792 12.29.734 3.907h3.537l-4.061-18.812h-4.731l-3.876 18.812h3.509l.673-3.908h4.215Zm-.484-2.596h-3.267l1.589-9.005 1.678 9.005Z" clip-rule="evenodd" />
  <path fill="url(#c)" fill-rule="evenodd" d="M372.997 3.5c-1.073 0-1.942.84-1.942 1.876v6.249c0 1.036.869 1.876 1.942 1.876h10.997v9.998h-10.997c-1.073 0-1.942.84-1.942 1.876v6.249c0 1.036.869 1.876 1.942 1.876h9.055c1.072 0 1.942-.84 1.942-1.876v-8.12h10.997c1.073 0 1.942-.84 1.942-1.876v-6.251c0-1.036-.869-1.876-1.942-1.876h-10.994V5.376c0-1.036-.87-1.876-1.942-1.876h-9.058ZM495.33 7.988c0-.305-.262-.54-.598-.54h-2.463c-.336 0-.598.252-.598.54v3.462h-3.827c-.336 0-.598.253-.598.54v1.785c0 .305.262.54.598.54h3.827v5.304c0 4.058 1.978 5.934 6.237 5.934h3.471c.336 0 .597-.253.597-.54v-1.785c0-.305-.261-.54-.597-.54h-2.912c-2.317 0-3.137-.885-3.137-3.086v-5.267h6.477c.336-.02.598-.273.598-.56V11.99c0-.305-.262-.54-.598-.54h-6.477V7.988Zm-11.949 4.005c0-.305-.262-.54-.598-.54v.002h-7.524c-.336 0-.598.253-.598.54v1.785c0 .305.262.54.598.54h4.461v8.37h-4.461c-.336 0-.598.253-.598.54v1.785c0 .305.262.54.598.54h12.695c.336 0 .598-.253.598-.54V23.23c0-.304-.262-.54-.598-.54h-4.573V11.993Zm.148-5.448a.586.586 0 0 0-.597-.54h-3.361c-.336 0-.598.253-.598.54v2.29c0 .305.262.54.598.54h3.361c.336 0 .597-.252.597-.54v-2.29ZM468.032 22.69h3.81c.336 0 .598.233.598.54v1.785c0 .287-.262.54-.598.54h-12.416c-.336 0-.598-.233-.598-.54V23.23c0-.287.262-.54.598-.54h4.948V8.872h-4.407c-.336 0-.598-.233-.598-.54V6.545c0-.287.262-.54.598-.54h7.468c.336 0 .597.233.597.54V22.69Zm-19.36-10.59c.708-.65 1.624-.92 2.894-.92 3.717 0 5.882 2.419 5.897 7.341 0 4.925-2.183 7.342-5.805 7.342-1.249 0-2.09-.308-2.78-.92l-.878-.81-.821.18.318 2.147v4.005c0 .288-.261.54-.597.54h-2.466c-.336 0-.597-.232-.597-.54V11.993c0-.288.261-.54.597-.54h1.681c.282 0 .505.178.579.413l.298 1.046h.803l.877-.813Zm-1.195 8.136c0 1.75 1.026 2.67 2.876 2.67 2.26 0 3.268-1.37 3.286-4.417 0-3.014-1.026-4.385-3.286-4.385-1.868 0-2.876.92-2.876 2.67v3.462Zm-21.302-1.732c0-4.908 2.521-7.324 7.226-7.324 4.836 0 7.17 2.436 6.608 7.867h-10.212c.149 2.904 1.27 4.149 3.622 4.149 1.514 0 2.632-.506 3.025-1.57a.606.606 0 0 1 .559-.361h2.239c.375 0 .672.325.58.667-.616 2.47-2.932 3.913-6.516 3.913-4.63 0-7.131-2.416-7.131-7.341Zm7.208-4.779c-2.016 0-3.119.992-3.473 3.12h6.685c-.056-2.02-1.065-3.12-3.212-3.12Zm-15.33-.83.842-.813c.728-.65 1.829-.902 3.227-.882h1.903c.336 0 .598.233.598.54v1.966c0 .287-.262.54-.598.54h-3.212c-1.977 0-2.986.865-2.986 2.525v5.917h4.277c.336 0 .597.233.597.54v1.784c0 .288-.261.54-.597.54h-11.631c-.336 0-.598-.232-.598-.54v-1.784c0-.288.262-.54.598-.54h3.696v-8.37h-3.173c-.336 0-.598-.233-.598-.54v-1.785c0-.288.262-.54.598-.54h5.377c.282 0 .523.16.58.413l.261 1.029h.839Z" clip-rule="evenodd" />
  <path fill="url(#d)" d="M597.847 11.75c-4.822 0-8.298 3.037-8.298 7.594 0 4.556 3.913 7.593 8.735 7.593 2.913 0 5.481-1.113 7.071-2.99l-3.341-1.865c-.883.932-2.223 1.476-3.73 1.476-2.092 0-3.87-1.054-4.529-2.742h12.238c.096-.472.153-.962.153-1.476 0-4.553-3.477-7.59-8.299-7.59Zm-4.132 6.117c.546-1.683 2.04-2.742 4.128-2.742 2.092 0 3.585 1.059 4.127 2.742h-8.255Zm51.163-6.117c-4.822 0-8.299 3.037-8.299 7.594 0 4.556 3.914 7.593 8.735 7.593 2.914 0 5.482-1.113 7.072-2.99l-3.342-1.865c-.882.932-2.223 1.476-3.73 1.476-2.092 0-3.869-1.054-4.529-2.742h12.238c.096-.472.153-.962.153-1.476 0-4.553-3.477-7.59-8.298-7.59Zm-4.128 6.117c.546-1.683 2.04-2.742 4.128-2.742 2.092 0 3.585 1.059 4.127 2.742h-8.255Zm-17.047 1.477c0 2.531 1.712 4.218 4.368 4.218 1.799 0 3.149-.788 3.843-2.075l3.355 1.869c-1.389 2.236-3.992 3.581-7.198 3.581-4.826 0-8.299-3.037-8.299-7.593 0-4.557 3.477-7.594 8.299-7.594 3.206 0 5.805 1.346 7.198 3.582l-3.355 1.869c-.694-1.287-2.044-2.076-3.843-2.076-2.651 0-4.368 1.688-4.368 4.219Zm36.024-12.235v19.407h-3.93V7.109h3.93ZM552.384 5l16.139 27h-32.277l16.138-27Zm40.349 2.11L580.63 27.36 568.527 7.11h4.538l7.565 12.656 7.565-12.657h4.538Zm25.729 5.062v4.088a5.145 5.145 0 0 0-1.397-.207c-2.538 0-4.368 1.688-4.368 4.219v6.244h-3.931V12.172h3.931v3.881c0-2.143 2.581-3.881 5.765-3.881Z" />
  <path fill="url(#e)" d="M692.406 5.25v7.012h7.26V5.25h-7.26Z" />
  <path fill="url(#f)" d="M699.666 14.813h-7.26V30.75h7.26V14.812Z" />
  <path fill="url(#g)" d="M709.566 30.75h-7.26V5.25h7.26v25.5Z" />
  <path fill="url(#h)" d="M712.206 5.25v25.5h7.26V5.25h-7.26Z" />
  <path fill="url(#i)" fill-rule="evenodd" d="M735.306 5.25c7.291 0 13.2 5.708 13.2 12.75v12.75h-7.26v-1.36a13.522 13.522 0 0 1-5.94 1.36c-7.29 0-13.2-5.708-13.2-12.75s5.91-12.75 13.2-12.75Zm0 18.488c3.281 0 5.94-2.57 5.94-5.738 0-3.169-2.659-5.738-5.94-5.738-3.28 0-5.94 2.57-5.94 5.738 0 3.169 2.66 5.738 5.94 5.738Z" clip-rule="evenodd" />
  <path fill="url(#j)" fill-rule="evenodd" d="m849.762 4.091.018 17.468c0 2.911 1.113 3.952 4.048 3.96.833 0 2.348-.212 3.028-.629v-3.242h-2.247l-.008-14.518V3.5l-4.839.591Zm-29.301 10.777h1.86l-.002 6.5c0 3.242 1.886 4.283 4.607 4.283 1.819 0 3.339-.357 4.761-1.19l-.711-2.83c-.804.237-1.515.416-2.226.416-1.241 0-1.731-.446-1.731-1.934v-5.246h4.359l.01-3.154h-4.366V7.265l-4.662.629v3.82h-1.899v3.154Zm-7.116-3.898c-4.491 0-7.759 2.825-7.759 7.732 0 4.522 2.566 6.93 7.204 6.924 3.214 0 5.78-.803 7.079-2.022l-1.047-2.911a11.45 11.45 0 0 1-5.102 1.248c-2.782 0-3.648-1.692-3.648-3.773 0-2.768 1.67-3.659 3.061-3.659.649 0 1.206.06 1.453.237l.742 1.964 3.185-.209c.338-.666.506-1.4.49-2.141 0-2.796-3.03-3.39-5.658-3.39Zm19.444 7.816c0-4.61 2.597-7.763 7.884-7.763 4.638 0 7.017 2.558 7.017 6.782 0 5.175-2.843 7.822-7.975 7.822-3.896 0-6.926-2.141-6.926-6.84Zm7.389-4.492c-1.798 0-2.72 1.31-2.72 3.958 0 2.349.587 4.193 2.751 4.193 2.163 0 2.814-1.488 2.814-4.135 0-2.379-.742-4.015-2.845-4.015Zm19.643 1.224v-4.123h4.655s-.017.613-.017 3.885v9.919h-4.647c.009-.736.009-8.313.009-9.68Zm-.431-8.535c0-1.517 1.235-2.38 2.942-2.38 1.39 0 2.534.713 2.534 2.23 0 1.573-1.082 2.469-2.968 2.469-1.554-.006-2.511-.95-2.511-2.32h.003Zm13.469 15.285c-1.453 0-3.401-.415-4.762-1.546l-1.113 2.936c1.113 1.278 3.587 2.022 6.029 2.022 3.834 0 6.431-1.81 6.431-4.874 0-3.194-2.858-3.725-5.126-4.146-1.491-.277-2.727-.507-2.727-1.415 0-.714.742-1.011 2.042-1.011 1.019 0 2.467.178 4.265.921l.803-2.915c-1.607-1.16-3.834-1.368-5.131-1.368-4.018 0-6.06 2.022-6.06 4.55 0 2.563 2.133 3.396 4.174 3.931l.283.074c1.279.334 3.303.862 3.303 1.8 0 .714-1.144 1.04-2.411 1.04Zm-77.594-8.142c1.108 0 2.007-.864 2.007-1.93 0-1.067-.899-1.931-2.007-1.931-1.109 0-2.007.864-2.007 1.93 0 1.067.898 1.931 2.007 1.931Zm-.671-9.111c6.305 0 9.708 3.423 9.708 9.848 0 5.313-2.171 8.616-5.918 9.996.262.6.461 1.224.593 1.862.085.502.134 1.009.146 1.517.017.446-.139.883-.436 1.226a1.9 1.9 0 0 1-1.177.63 1.96 1.96 0 0 1-.807-.054 1.903 1.903 0 0 1-.709-.374 1.823 1.823 0 0 1-.482-.625c-.111-.24-.167-.5-.164-.762a4.957 4.957 0 0 0-.059-.981c-.273-1.325-.711-1.665-1.337-1.69h-.219c-.229 0-.453-.007-.677-.016-.1.784-.261 1.56-.48 2.32-.477 1.83-1.314 4.03-2.438 3.805-1.319-.262-2.803-1.187-2.084-3.487.09-.3.183-.591.271-.869.449-1.4.792-2.472.056-2.934l-.229-.132c-.642-.403-1.301-.15-2.067.983-.175.282-.32.58-.435.89a1.814 1.814 0 0 1-.448.647 1.911 1.911 0 0 1-.689.407 1.961 1.961 0 0 1-1.573-.146 1.827 1.827 0 0 1-.848-1.007 1.743 1.743 0 0 1 .071-1.294c.208-.468.449-.92.722-1.356a8.697 8.697 0 0 1 2.288-2.368c-.713-1.457-1.097-3.28-1.097-5.502 0-6.781 4.213-10.534 10.518-10.534Zm-5.399 10.089c0 3.904 1.279 6.696 5.025 6.696 3.277 0 4.994-1.922 4.994-6.545 0-4.204-1.748-6.396-4.932-6.396-3.183 0-5.087 2.157-5.087 6.245Z" clip-rule="evenodd" />
  <path fill="url(#k)" fill-rule="evenodd" d="m957.878 30.499-.333 1.116a.544.544 0 0 1-.208.284.583.583 0 0 1-.343.107h-43.433a.467.467 0 0 1-.3-.11.438.438 0 0 1-.152-.272 9.245 9.245 0 0 1 .261-4.003 9.454 9.454 0 0 1 1.941-3.545 9.844 9.844 0 0 1 3.278-2.462 10.163 10.163 0 0 1 4.036-.944 6.502 6.502 0 0 1 .25-4.059 6.768 6.768 0 0 1 2.626-3.177 7.139 7.139 0 0 1 4.042-1.133 7.12 7.12 0 0 1 3.98 1.325c1.086-3.083 3.185-5.739 5.979-7.563a15.873 15.873 0 0 1 9.494-2.541 15.772 15.772 0 0 1 9.156 3.51c2.574 2.104 4.367 4.962 5.104 8.14a.795.795 0 0 1-.037.463l-1.352 3.417c-1.068 2.695-4.132 4.902-6.934 5.026l-23.746.3a.638.638 0 0 0-.335.123.6.6 0 0 0-.209.28.433.433 0 0 0 .209.548.47.47 0 0 0 .211.054l23.518.289c1.242.057 2.258.544 2.88 1.374.667.902.813 2.127.417 3.453Zm6.864-14.591c.228-.012.446-.018.654-.018h.006c1.985.002 3.943.448 5.72 1.302a12.775 12.775 0 0 1 4.524 3.623 12.222 12.222 0 0 1 2.386 5.187 12.017 12.017 0 0 1-.25 5.671.467.467 0 0 1-.176.257.494.494 0 0 1-.303.095h-17.945a.287.287 0 0 1-.219-.123.27.27 0 0 1-.044-.119.267.267 0 0 1 .017-.125l.377-.95c1.068-2.692 4.116-4.896 6.947-5.023l5.209-.3a.634.634 0 0 0 .335-.123.603.603 0 0 0 .21-.28.443.443 0 0 0-.408-.599l-5.016-.3a3.734 3.734 0 0 1-1.605-.364 3.599 3.599 0 0 1-1.272-1.011c-.67-.902-.816-2.127-.418-3.453l.935-3.086a.361.361 0 0 1 .236-.24.286.286 0 0 1 .1-.021Zm33.274 5.554h2.964V29.3h5.19v2.511h-8.154V21.462Zm11.234 5.189v.027c0 2.962 2.46 5.353 5.76 5.353 3.29 0 5.78-2.409 5.78-5.38v-.03c0-2.972-2.46-5.354-5.75-5.354-3.3 0-5.79 2.412-5.79 5.384Zm8.51 0v.027c0 1.495-1.1 2.767-2.72 2.767s-2.74-1.29-2.74-2.794v-.03c0-1.495 1.07-2.764 2.71-2.764s2.75 1.29 2.75 2.794Zm6.66.628v-5.817h3.02v5.751c0 1.504.77 2.205 1.97 2.205 1.19 0 1.97-.68 1.97-2.13v-5.826h3.02v5.736c0 3.341-1.98 4.812-5.02 4.812-3.05 0-4.96-1.504-4.96-4.73Zm18.66-5.817h-4.13v10.346h4.07c3.86 0 6.11-2.216 6.11-5.203v-.03c0-2.983-2.22-5.113-6.05-5.113Zm3 5.2c0 1.673-1.18 2.62-2.95 2.62l-1.22-.012v-5.254h1.22c1.77 0 2.95.962 2.95 2.62v.026Zm7.36-5.2h8.57v2.515h-5.6v1.76h5.07v2.378h-5.07v3.696h-2.97V21.462Zm15.67 0h-2.97v10.35h8.16V29.3h-5.19v-7.838Zm12.98-.075h2.86l4.55 10.421h-3.18l-.78-1.846h-4.14l-.76 1.846h-3.12l4.57-10.42Zm2.6 6.34-1.19-2.941-1.23 2.941h2.42Zm13.69-6.265h-5.06v10.35h2.97v-3.135h1.3l2.16 3.134h3.42l-2.55-3.609c.66-.24 1.24-.675 1.63-1.246.4-.57.6-1.246.57-1.933v-.03c.03-.442-.05-.885-.21-1.3a3.05 3.05 0 0 0-.74-1.106c-.72-.71-1.85-1.125-3.49-1.125Zm1.46 3.742c0 .752-.58 1.227-1.59 1.227h-1.96v-2.484h1.94c.99 0 1.61.412 1.61 1.227v.03Zm7.27-3.742h8.62v2.44h-5.68v1.567h5.14v2.261h-5.14v1.642h5.75v2.44h-8.69v-10.35Zm-116.576 7.552c.438-.277.779-.673.982-1.138l3.136.012c-.582 2.37-2.793 4.139-5.62 4.139-3.307 0-5.755-2.382-5.755-5.354v-.03c0-2.977 2.479-5.383 5.786-5.383 2.905 0 5.144 1.831 5.629 4.294h-3.113a2.614 2.614 0 0 0-.991-1.25 2.76 2.76 0 0 0-1.556-.467c-1.623 0-2.709 1.263-2.709 2.767v.03c0 1.492 1.114 2.794 2.74 2.794a2.695 2.695 0 0 0 1.471-.414Z" clip-rule="evenodd" />
  <path fill="#C9CBCF" d="M1216.4 13.857c-1.69 0-3.09.383-4.16 1.122-1.1.738-1.69 1.783-1.88 3.108h2.28c.14-.688.56-1.248 1.21-1.656.61-.408 1.45-.612 2.41-.612 1.13 0 1.99.23 2.63.74.62.509.91 1.197.91 2.063v.917h-4.18c-1.88 0-3.27.383-4.24 1.096-.99.713-1.47 1.783-1.47 3.134 0 1.223.48 2.166 1.44 2.879.94.713 2.2 1.07 3.79 1.07 2.06 0 3.64-.764 4.77-2.268l.19 2.115h1.98v-8.79c0-1.554-.51-2.777-1.47-3.618-1-.866-2.42-1.3-4.21-1.3Zm3.43 8.18c0 1.146-.4 2.063-1.21 2.751-.8.713-1.9 1.07-3.3 1.07-.94 0-1.69-.204-2.25-.611-.56-.408-.83-.943-.83-1.606 0-1.503 1.07-2.242 3.19-2.242h4.4v.637ZM1226.9 8.817c-.43 0-.78.128-1.08.408-.29.28-.43.612-.43 1.02 0 .407.14.738.43 1.018.3.28.65.408 1.08.408.43 0 .77-.127 1.07-.408.29-.28.43-.611.43-1.019 0-.407-.14-.739-.43-1.019-.3-.28-.67-.408-1.07-.408ZM1223.5 16.025h2.26v11.517h2.28V14.037h-4.54v1.987ZM1251.18 14.703c-1.02-.56-2.23-.815-3.54-.815-2.06 0-3.67.764-4.88 2.318l-.3-2.165h-1.98v18.803h2.28v-7.363c.48.688 1.13 1.223 1.93 1.605.8.408 1.82.611 2.95.611 1.31 0 2.49-.28 3.51-.866a6.449 6.449 0 0 0 2.44-2.446c.59-1.045.86-2.242.86-3.593 0-1.426-.27-2.675-.86-3.72-.59-1.019-1.39-1.834-2.41-2.369Zm-.32 9.657c-.86.917-2.01 1.401-3.43 1.401-.92 0-1.72-.204-2.42-.637a4.324 4.324 0 0 1-1.66-1.809c-.4-.765-.59-1.605-.59-2.599 0-.943.19-1.809.59-2.573.4-.74.94-1.325 1.66-1.758.7-.408 1.5-.612 2.42-.612 1.42 0 2.57.459 3.43 1.376.86.917 1.29 2.14 1.29 3.593 0 1.503-.43 2.7-1.29 3.618ZM1231.18 16.662v10.88h2.28V16.024h4.94v-1.987h-4.45c-1.53 0-2.77 1.146-2.77 2.624ZM1259.38 8.998h-2.27v18.548h2.27V8.998ZM1268.45 13.857c-1.69 0-3.08.383-4.16 1.122-1.1.738-1.69 1.783-1.87 3.108h2.28c.13-.688.56-1.248 1.2-1.656.62-.408 1.45-.612 2.42-.612 1.12 0 1.98.23 2.62.74.62.509.92 1.197.92 2.063v.917h-4.19c-1.87 0-3.27.383-4.23 1.096-1 .713-1.48 1.783-1.48 3.134 0 1.223.48 2.166 1.45 2.879.94.713 2.2 1.07 3.78 1.07 2.06 0 3.65-.764 4.77-2.268l.19 2.115h1.99v-8.79c0-1.554-.51-2.777-1.48-3.618-.99-.866-2.41-1.3-4.21-1.3Zm3.43 8.18c0 1.146-.4 2.063-1.2 2.751-.81.713-1.91 1.07-3.3 1.07-.94 0-1.69-.204-2.25-.611-.57-.408-.84-.943-.84-1.606 0-1.503 1.08-2.242 3.19-2.242h4.4v.637ZM1284.03 13.857c-2.03 0-3.59.663-4.69 1.988l-.29-1.835h-1.99v13.504h2.28v-6.752c0-1.503.4-2.726 1.15-3.593.76-.866 1.83-1.324 3.14-1.324 1.26 0 2.2.382 2.87 1.095.65.739.97 1.81.97 3.21v7.39h2.28v-7.517c0-2.115-.54-3.694-1.56-4.663-1.02-.993-2.41-1.503-4.16-1.503ZM1305.65 21.2c.02-.433.05-.739.05-.917-.03-1.3-.32-2.446-.91-3.414-.59-.968-1.37-1.733-2.36-2.217-.99-.51-2.15-.764-3.46-.764s-2.49.28-3.51.84c-1.02.587-1.83 1.402-2.36 2.446-.59 1.045-.86 2.243-.86 3.619 0 1.35.29 2.573.88 3.592.59 1.07 1.4 1.885 2.44 2.446 1.08.586 2.28.866 3.7.866 1.61 0 2.98-.458 4.11-1.325 1.12-.866 1.82-1.987 2.09-3.363h-2.31a3.504 3.504 0 0 1-1.42 2.013c-.72.51-1.58.739-2.63.739-1.31 0-2.38-.408-3.21-1.197-.81-.79-1.27-1.86-1.29-3.185V21.2h11.05Zm-9.52-4.408c.8-.662 1.74-1.019 2.84-1.019 1.21 0 2.2.306 3 .943.78.637 1.24 1.529 1.34 2.675h-8.58a3.74 3.74 0 0 1 1.4-2.599Z" />
  <path fill="#C9CBCF" fill-rule="evenodd" d="m1167 .5 11.57.003c.88 0 1.68.486 2.05 1.245 2.39 4.895 11.19 22.917 14.74 30.184.33.668.27 1.448-.14 2.07-.42.621-1.13.998-1.91.998h-5.02c-1.68 0-3.28-.67-4.42-1.847-.97-.995-2.11-2.178-2.89-2.98a3.052 3.052 0 0 0-2.2-.922l-12.17-.003c-.84 0-1.64.334-2.21.923-.77.8-1.92 1.984-2.88 2.979-1.14 1.177-2.74 1.846-4.42 1.846h-4.84c-.77 0-1.49-.376-1.91-.998a2.098 2.098 0 0 1-.14-2.07c3.55-7.267 12.35-25.288 14.74-30.184A2.28 2.28 0 0 1 1167 .5Zm7.15 3.594c2.91 6.108 9.58 20.154 11.36 24.258.06.148.04.316-.05.447a.502.502 0 0 1-.41.212h-2.27c-.93 0-1.8-.406-2.37-1.1-.93-1.135-2.38-2.894-3.31-4.029a3.058 3.058 0 0 0-2.37-1.1l-1.94-.001-1.95-.002c-.93 0-1.8.406-2.37 1.1l-3.31 4.028c-.57.695-1.44 1.1-2.36 1.1h-2.28a.502.502 0 0 1-.41-.21.477.477 0 0 1-.05-.449c1.78-4.104 8.45-18.146 11.35-24.254.25-.514.78-.844 1.37-.844.59 0 1.13.33 1.37.844ZM1354.99 4.544c-1.87.547-3.62 1.45-5.12 2.658a5.077 5.077 0 0 0-2.82-2.19 18.336 18.336 0 0 1 6.46-3.624c2.4-.763 4.93-1.04 7.43-.81a18.659 18.659 0 0 1 8.76 3.121c.02-.007.03-.014.05-.022.68-.27 1.42-.34 2.13-.202.72.137 1.38.477 1.89.975.52.498.87 1.133 1.01 1.824.14.691.07 1.408-.21 2.059a3.579 3.579 0 0 1-1.36 1.599c-.6.391-1.32.6-2.05.6a3.77 3.77 0 0 1-2.61-1.043c-.34-.332-.61-.724-.79-1.157a3.388 3.388 0 0 1-.29-1.363c0-.183.02-.364.05-.543a15.024 15.024 0 0 0-6.74-2.406c-1.95-.2-3.92-.022-5.79.524Zm-5.81 5.133c0 .67-.2 1.327-.57 1.894l.76 1.263a5.123 5.123 0 0 1-2.86 1.644l-.75-1.249a3.782 3.782 0 0 1-2.88-1.033 3.482 3.482 0 0 1-1.01-1.824 3.46 3.46 0 0 1 .21-2.058 3.58 3.58 0 0 1 1.36-1.599 3.793 3.793 0 0 1 4.66.443c.34.33.61.723.8 1.155.18.433.28.896.28 1.364Zm-2.67 4.801 6.36 10.624 1.92 3.207 1.92-3.207 2.39-4 2.38 3.985 1.92 3.207 1.92-3.207 3.21-5.383h5.25c.07-.532.1-1.068.1-1.604s-.03-1.071-.1-1.604h-7.17l-.33.558-2.88 4.824-2.39-3.986-1.91-3.208-1.92 3.209-2.39 3.999-5.42-9.058a5.123 5.123 0 0 1-2.86 1.644Zm27.37 3.622c0 .536-.03 1.072-.1 1.604h3.53v-3.208h-3.53c.07.533.1 1.068.1 1.604Zm3.43-1.604h.06c.05.529.07 1.064.07 1.604 0 9.72-8.15 17.6-18.22 17.6-10.06 0-18.22-7.88-18.22-17.599 0-1.722.26-3.436.77-5.085a5.14 5.14 0 0 0 3.23 1.54c-.27 1.131-.44 2.447-.44 3.544 0 7.817 6.56 14.157 14.66 14.157 7.54 0 13.74-5.49 14.57-12.553h3.52v-3.207Z" clip-rule="evenodd" />
  <path fill="#C9CBCF" d="m1396.13 23.86-2.9-12.061h2.36l1.24 5.788.77 3.698h.05l.89-3.698 1.44-5.788h2.61l1.43 5.788.88 3.698h.05l.79-3.698 1.27-5.788h2.25l-2.99 12.061h-2.66l-1.59-6.376-.77-3.18h-.04l-.8 3.18-1.6 6.376h-2.68ZM1416.57 22.357h-.09c-.09.23-.2.449-.34.656a2.425 2.425 0 0 1-1.27.916c-.29.092-.62.138-1.01.138-.96 0-1.7-.305-2.21-.915-.52-.611-.77-1.48-.77-2.61V14.84h2.29v5.478c0 .622.12 1.1.37 1.434.25.322.65.484 1.2.484.23 0 .45-.03.66-.087.23-.057.43-.144.59-.259.17-.127.31-.276.41-.45.11-.184.17-.397.17-.639V14.84h2.29v9.02h-2.29v-1.503ZM1421.5 23.86v-9.02h2.29v1.503h.09c.19-.484.49-.887.9-1.21.41-.333.99-.5 1.71-.5.97 0 1.71.305 2.22.915.51.61.77 1.48.77 2.61v5.702h-2.29v-5.478c0-.645-.12-1.129-.36-1.451-.24-.323-.63-.484-1.18-.484-.24 0-.47.035-.7.104-.21.057-.41.15-.59.276-.16.115-.3.265-.41.45-.11.172-.16.38-.16.621v5.962h-2.29ZM1437.82 22.357h-.09c-.17.518-.49.933-.95 1.244-.47.31-1.01.466-1.63.466-1.18 0-2.09-.409-2.72-1.227-.62-.817-.93-1.987-.93-3.507 0-1.51.31-2.667.93-3.474.63-.818 1.54-1.226 2.72-1.226.62 0 1.16.155 1.63.466.46.3.78.709.95 1.227h.09v-5.253h2.28V23.86h-2.28v-1.503Zm-1.94-.121c.55 0 1.01-.127 1.38-.38.37-.254.56-.617.56-1.09V17.9c0-.438-.19-.79-.56-1.055-.37-.265-.83-.397-1.38-.397-.59 0-1.08.196-1.45.588-.35.38-.53.892-.53 1.537v1.556c0 .645.18 1.157.53 1.538.37.38.86.57 1.45.57ZM1446.52 24.067c-.69 0-1.31-.109-1.86-.328-.54-.23-1-.547-1.38-.95-.37-.415-.65-.91-.86-1.486-.2-.588-.3-1.245-.3-1.97 0-.714.09-1.36.29-1.936.2-.576.48-1.065.85-1.468.37-.415.83-.732 1.36-.95.54-.231 1.15-.346 1.83-.346.73 0 1.36.12 1.9.362.53.242.97.57 1.32.985.34.415.6.899.77 1.452.18.541.27 1.123.27 1.745v.726h-6.21v.225c0 .656.19 1.186.57 1.59.38.391.95.587 1.7.587.57 0 1.04-.115 1.4-.346.37-.23.69-.524.98-.881l1.23 1.33c-.38.519-.9.928-1.57 1.227-.66.288-1.42.432-2.29.432Zm-.04-7.776c-.6 0-1.09.196-1.44.588-.36.392-.54.898-.54 1.52v.139h3.83v-.156c0-.622-.16-1.123-.49-1.503-.31-.392-.76-.588-1.36-.588ZM1452.72 23.86v-9.02h2.29v1.866h.09c.06-.242.15-.472.27-.691a2.281 2.281 0 0 1 1.22-1.02c.28-.103.61-.155.98-.155h.5v2.09h-.72c-.77 0-1.35.11-1.75.33-.39.218-.59.575-.59 1.07v5.53h-2.29ZM1468.02 21.994h-.07c-.11.587-.45 1.083-1.02 1.486-.56.392-1.31.587-2.25.587-.74 0-1.43-.132-2.06-.397a4.644 4.644 0 0 1-1.63-1.175c-.45-.53-.81-1.18-1.07-1.953-.26-.772-.39-1.664-.39-2.678s.13-1.907.39-2.679c.27-.783.66-1.44 1.14-1.97.49-.53 1.08-.932 1.76-1.209.68-.277 1.43-.415 2.27-.415 1.12 0 2.07.236 2.86.709.79.472 1.41 1.152 1.86 2.039l-1.91 1.088c-.23-.518-.57-.95-1.02-1.296-.44-.345-1.04-.518-1.79-.518-.93 0-1.68.277-2.24.83-.55.54-.82 1.347-.82 2.419v1.935c0 1.06.28 1.866.84 2.42.56.552 1.31.829 2.26.829.36 0 .71-.04 1.03-.121.32-.093.61-.225.84-.398.24-.173.43-.386.58-.64.14-.253.21-.552.21-.898v-.777h-2.45v-1.918h4.72v6.566h-2.04v-1.866ZM1472.66 23.86v-9.02h2.29v1.866h.08c.06-.242.15-.472.27-.691.13-.23.3-.432.5-.605.21-.173.45-.31.72-.415.29-.103.61-.155.98-.155h.5v2.09h-.71c-.78 0-1.36.11-1.75.33-.4.218-.59.575-.59 1.07v5.53h-2.29ZM1486.36 23.86c-.5 0-.9-.138-1.2-.415-.29-.288-.47-.668-.54-1.14h-.11c-.15.587-.47 1.03-.94 1.33-.48.288-1.07.432-1.78.432-.95 0-1.68-.241-2.2-.725-.51-.484-.77-1.13-.77-1.936 0-.933.35-1.624 1.04-2.073.69-.461 1.68-.691 2.95-.691h1.6v-.657c0-.507-.14-.899-.42-1.175-.27-.277-.71-.415-1.32-.415-.54 0-.97.115-1.31.346-.32.219-.59.483-.82.795l-1.36-1.176c.35-.518.81-.933 1.38-1.244.57-.322 1.33-.483 2.27-.483 1.27 0 2.23.276 2.88.829.66.553.99 1.348.99 2.385v4.25h.93v1.763h-1.27Zm-3.8-1.4c.52 0 .95-.11 1.31-.328.36-.219.54-.541.54-.968v-1.192h-1.47c-1.19 0-1.79.369-1.79 1.106v.294c0 .368.12.645.36.83.25.172.6.258 1.05.258ZM1489.48 14.84h2.29v1.486h.07c.17-.518.48-.927.95-1.227.46-.31 1.01-.466 1.63-.466 1.19 0 2.1.409 2.72 1.226.63.807.94 1.965.94 3.474 0 1.52-.31 2.69-.94 3.508-.62.817-1.53 1.226-2.72 1.226-.62 0-1.17-.155-1.63-.466a2.463 2.463 0 0 1-.95-1.244h-.07v4.959h-2.29V14.84Zm4.2 7.396c.6 0 1.08-.19 1.45-.57.37-.38.56-.893.56-1.538v-1.556c0-.645-.19-1.157-.56-1.537-.37-.392-.85-.588-1.45-.588-.54 0-1 .132-1.37.397-.36.265-.54.617-.54 1.054v2.869c0 .472.18.835.54 1.089.37.253.83.38 1.37.38ZM1500.21 11.073h2.29v5.27h.09c.19-.484.48-.887.89-1.21.42-.333.99-.5 1.72-.5.96 0 1.7.305 2.22.915.51.61.77 1.48.77 2.61v5.702h-2.29v-5.478c0-.645-.12-1.129-.36-1.451-.24-.323-.63-.484-1.18-.484-.24 0-.47.035-.7.104-.22.057-.41.15-.59.276-.17.115-.31.265-.41.45-.11.172-.16.38-.16.621v5.962h-2.29V11.073ZM1569.6 24.157c0 1.694-1.42 3.067-3.17 3.067s-3.17-1.373-3.17-3.067c0-1.694 1.42-3.067 3.17-3.067s3.17 1.373 3.17 3.067ZM1569.6 11.092c0 1.694-1.42 3.067-3.17 3.067s-3.17-1.373-3.17-3.067c0-1.694 1.42-3.067 3.17-3.067s3.17 1.373 3.17 3.067ZM1576.33 17.624c0 1.694-1.42 3.068-3.17 3.068s-3.17-1.374-3.17-3.068 1.42-3.067 3.17-3.067 3.17 1.373 3.17 3.067Zm-5.68 0c0 1.34 1.12 2.426 2.51 2.426 1.38 0 2.51-1.086 2.51-2.426s-1.13-2.426-2.51-2.426c-1.39 0-2.51 1.087-2.51 2.426ZM1562.84 30.682c0 1.694-1.42 3.068-3.17 3.068s-3.17-1.374-3.17-3.068 1.42-3.067 3.17-3.067 3.17 1.373 3.17 3.067Zm-4.98 0c0 .968.81 1.752 1.81 1.752s1.81-.784 1.81-1.752c0-.967-.81-1.752-1.81-1.752s-1.81.785-1.81 1.752ZM1556.09 11.092c0 1.694-1.41 3.067-3.17 3.067-1.75 0-3.17-1.373-3.17-3.067 0-1.694 1.42-3.067 3.17-3.067 1.76 0 3.17 1.373 3.17 3.067Zm-4.98 0c0 .968.81 1.752 1.81 1.752s1.82-.784 1.82-1.752-.82-1.752-1.82-1.752-1.81.784-1.81 1.752ZM1556.09 24.157c0 1.694-1.41 3.067-3.17 3.067-1.75 0-3.17-1.373-3.17-3.067 0-1.694 1.42-3.067 3.17-3.067 1.76 0 3.17 1.373 3.17 3.067Zm-4.98 0c0 .968.81 1.752 1.81 1.752s1.82-.784 1.82-1.752-.82-1.752-1.82-1.752-1.81.784-1.81 1.752ZM1562.84 4.567c0 1.694-1.42 3.067-3.17 3.067s-3.17-1.373-3.17-3.067c0-1.694 1.42-3.067 3.17-3.067s3.17 1.373 3.17 3.067Zm-4.98 0c0 .968.81 1.752 1.81 1.752s1.81-.784 1.81-1.752c0-.967-.81-1.752-1.81-1.752s-1.81.785-1.81 1.752ZM1549.34 17.624c0 1.694-1.42 3.068-3.17 3.068s-3.17-1.374-3.17-3.068 1.42-3.067 3.17-3.067 3.17 1.373 3.17 3.067Zm-4.98 0c0 .968.81 1.752 1.81 1.752s1.81-.784 1.81-1.752c0-.967-.81-1.752-1.81-1.752s-1.81.785-1.81 1.752ZM1562.84 17.624c0 1.694-1.42 3.068-3.17 3.068s-3.17-1.374-3.17-3.068 1.42-3.067 3.17-3.067 3.17 1.373 3.17 3.067Zm-4.98 0c0 .968.81 1.752 1.81 1.752s1.81-.784 1.81-1.752c0-.967-.81-1.752-1.81-1.752s-1.81.785-1.81 1.752Z" />
  <path fill="#C9CBCF" fill-rule="evenodd" d="m1551.89 13.167-3.58 3.461-1.12-1.084 3.58-3.462 1.12 1.085ZM1558.68 6.582l-3.53 3.415-1.12-1.084 3.53-3.415 1.12 1.084ZM1558.55 19.789l-3.53 3.418-1.12-1.085 3.53-3.417 1.12 1.084ZM1557.49 29.665l-3.49-3.374 1.12-1.084 3.49 3.374-1.12 1.084ZM1550.5 22.912l-3.35-3.243 1.12-1.084 3.35 3.242-1.12 1.085Z" clip-rule="evenodd" />
  <path fill="#C9CBCF" d="M1593.82 2.745v.45h-5.32v17.166h-.51V3.195h-5.31v-.45h11.14ZM1602.55 6.542c1.64 0 2.98.492 4.04 1.476 1.05.984 1.58 2.469 1.58 4.454v7.882h-.5v-7.932c0-1.768-.45-3.111-1.37-4.029-.91-.934-2.17-1.4-3.75-1.4-1.66 0-2.99.525-3.99 1.576-1.01 1.034-1.51 2.568-1.51 4.604v7.181h-.51V1.837h.51v8.558c.33-1.25.99-2.202 1.97-2.852.99-.668 2.16-1.001 3.53-1.001ZM1618.53 20.08c1.57 0 2.9-.384 3.97-1.151 1.07-.768 1.71-1.819 1.94-3.153h.52c-.24 1.418-.94 2.569-2.08 3.453-1.12.867-2.57 1.301-4.35 1.301-1.29 0-2.45-.275-3.47-.826-1.02-.55-1.82-1.35-2.41-2.402-.57-1.05-.85-2.285-.85-3.703 0-1.418.28-2.653.85-3.704.59-1.05 1.39-1.851 2.41-2.402 1.02-.55 2.18-.826 3.47-.826 1.37 0 2.53.284 3.5.851.97.55 1.69 1.268 2.18 2.152.5.884.75 1.819.75 2.803 0 .6-.01 1.05-.03 1.351h-12.61c.01 1.385.31 2.544.88 3.478.58.934 1.34 1.635 2.28 2.102.93.45 1.95.676 3.05.676Zm0-12.962c-1.1 0-2.12.233-3.05.7-.94.451-1.7 1.143-2.28 2.077-.57.935-.87 2.094-.88 3.479h12.17c.09-1.385-.15-2.544-.7-3.479a4.955 4.955 0 0 0-2.23-2.076c-.93-.468-1.94-.701-3.03-.701ZM1706.38 20.432c-.3 0-.54-.092-.73-.275a.928.928 0 0 1-.28-.701c0-.284.09-.517.28-.7.19-.184.43-.276.73-.276.27 0 .51.092.7.275.19.184.28.417.28.7 0 .285-.09.518-.28.702a.98.98 0 0 1-.7.275ZM1711.58 2.797v17.566h-1.16V2.797h1.16ZM1723.97 20.556c-1.67 0-3.18-.375-4.53-1.126a8.174 8.174 0 0 1-3.16-3.202c-.76-1.368-1.14-2.911-1.14-4.63 0-1.735.38-3.278 1.14-4.629a8.003 8.003 0 0 1 3.16-3.178c1.35-.767 2.86-1.15 4.53-1.15 1.68 0 3.19.383 4.54 1.15 1.35.75 2.4 1.81 3.16 3.178.76 1.351 1.14 2.894 1.14 4.63 0 1.718-.38 3.26-1.14 4.629a8.174 8.174 0 0 1-3.16 3.202c-1.35.751-2.86 1.127-4.54 1.127Zm0-1c1.44 0 2.73-.326 3.89-.976 1.16-.65 2.06-1.577 2.72-2.778.67-1.2 1.01-2.602 1.01-4.204 0-1.618-.34-3.027-1.01-4.229-.66-1.2-1.56-2.126-2.72-2.777-1.16-.65-2.45-.976-3.89-.976-1.43 0-2.72.325-3.88.976-1.16.65-2.07 1.576-2.75 2.777-.67 1.202-1.01 2.611-1.01 4.23 0 1.6.34 3.002 1.01 4.203.68 1.201 1.59 2.127 2.75 2.778 1.16.65 2.45.976 3.88.976ZM1585.36 30.377c0-.593.14-1.123.41-1.59.26-.472.63-.838 1.1-1.097.46-.265.98-.398 1.55-.398.7 0 1.3.162 1.79.484.5.317.87.766 1.09 1.348h-.73c-.18-.409-.45-.729-.82-.959-.37-.23-.81-.345-1.33-.345-.46 0-.87.103-1.24.31a2.23 2.23 0 0 0-.86.9c-.21.385-.31.834-.31 1.347s.1.962.31 1.348c.21.386.5.682.86.89.37.207.78.31 1.24.31.52 0 .96-.112 1.33-.336.37-.23.64-.547.82-.95h.73a2.681 2.681 0 0 1-1.09 1.338c-.5.317-1.1.476-1.79.476-.57 0-1.09-.13-1.55-.39-.47-.264-.84-.63-1.1-1.096a3.118 3.118 0 0 1-.41-1.59ZM1605.18 33.461c-.57 0-1.1-.13-1.57-.389a3.01 3.01 0 0 1-1.12-1.097c-.27-.472-.4-1.005-.4-1.598 0-.593.13-1.123.4-1.59.28-.472.65-.838 1.12-1.097.47-.265 1-.398 1.57-.398.59 0 1.12.133 1.59.398.47.26.84.625 1.11 1.097.27.467.4.997.4 1.59 0 .593-.13 1.126-.4 1.598-.27.467-.64.833-1.11 1.097-.47.26-1 .39-1.59.39Zm0-.527c.47 0 .89-.103 1.26-.31.37-.208.66-.505.87-.89.22-.392.33-.844.33-1.357s-.11-.962-.33-1.348c-.21-.386-.5-.682-.87-.89a2.533 2.533 0 0 0-1.26-.31c-.46 0-.88.103-1.25.31-.37.208-.66.504-.87.89-.22.386-.33.835-.33 1.348 0 .513.11.965.33 1.356.21.386.5.683.87.89.37.208.79.311 1.25.311ZM1623.96 33.4h-.62l-3.46-5.081v5.08h-.63v-6.04h.63l3.46 5.072V27.36h.62v6.04ZM1637.1 33.461c-.42 0-.78-.069-1.1-.207a1.767 1.767 0 0 1-.73-.579 1.545 1.545 0 0 1-.29-.83h.67c.03.294.16.554.4.778.24.22.59.329 1.05.329.42 0 .75-.104 1-.311.25-.213.37-.481.37-.804 0-.26-.07-.467-.2-.622a1.24 1.24 0 0 0-.51-.354 8.39 8.39 0 0 0-.84-.26c-.42-.109-.75-.215-1-.32a1.565 1.565 0 0 1-.62-.483c-.18-.219-.26-.515-.26-.89 0-.31.08-.587.25-.83.17-.247.4-.44.71-.578.3-.138.65-.207 1.04-.207.58 0 1.05.138 1.4.414.35.27.56.622.61 1.054h-.68c-.04-.247-.18-.466-.42-.656-.23-.196-.56-.294-.96-.294-.38 0-.69.098-.94.294a.937.937 0 0 0-.38.786c0 .253.07.458.21.613.14.156.31.274.51.354.21.081.49.168.84.26.4.11.73.219.98.328.25.104.47.265.64.484.17.219.26.512.26.881 0 .282-.08.55-.23.804a1.74 1.74 0 0 1-.69.613c-.31.155-.67.233-1.09.233ZM1650.73 27.36v3.801c0 .6.15 1.043.44 1.33.3.289.7.433 1.22.433.51 0 .91-.141 1.2-.423.29-.288.43-.735.43-1.34V27.36h.63v3.793c0 .766-.21 1.342-.64 1.728-.41.386-.96.579-1.63.579-.68 0-1.22-.193-1.65-.58-.42-.385-.62-.961-.62-1.727V27.36h.62ZM1666.48 32.907h2.25v.492h-2.87v-6.04h.62v5.548ZM1683.09 27.36v.501h-1.73v5.538h-.63v-5.538h-1.74v-.501h4.1ZM1694.54 27.36v6.04h-.63v-6.04h.63ZM1710.49 33.4h-.62l-3.47-5.081v5.08h-.62v-6.04h.62l3.47 5.072V27.36h.62v6.04ZM1726.64 29.124a2.051 2.051 0 0 0-.82-.933c-.37-.23-.8-.346-1.29-.346-.47 0-.88.104-1.25.311-.37.208-.67.504-.88.89-.21.38-.32.824-.32 1.33 0 .508.11.954.32 1.34.21.386.51.683.88.89.37.207.78.311 1.25.311.43 0 .82-.09 1.17-.268.35-.184.63-.443.84-.777.22-.34.34-.735.37-1.184h-2.63v-.492h3.29v.44a2.926 2.926 0 0 1-1.53 2.454 3.07 3.07 0 0 1-1.51.371c-.58 0-1.1-.13-1.58-.389-.47-.264-.84-.63-1.11-1.097a3.166 3.166 0 0 1-.41-1.598c0-.593.14-1.123.41-1.59.27-.472.64-.838 1.11-1.097.48-.265 1-.398 1.58-.398.67 0 1.25.162 1.75.484.5.323.87.772 1.09 1.348h-.73ZM1638.02 2.79v.95h-8.21v7.333h7.17v.95h-7.17v8.333h-1.17V2.79h9.38ZM1640.38 13.549c0-1.401.28-2.627.85-3.678.59-1.051 1.39-1.86 2.41-2.428 1.04-.567 2.21-.85 3.53-.85 1.48 0 2.74.35 3.78 1.05 1.03.701 1.76 1.594 2.17 2.678V6.768h1.17v13.587h-1.17v-3.578c-.41 1.1-1.14 2.01-2.2 2.727-1.03.701-2.29 1.051-3.75 1.051-1.32 0-2.49-.283-3.53-.85a6.334 6.334 0 0 1-2.41-2.453c-.57-1.067-.85-2.302-.85-3.703Zm12.74 0c0-1.184-.25-2.227-.77-3.128-.5-.917-1.19-1.618-2.08-2.102-.88-.5-1.86-.75-2.95-.75-1.14 0-2.14.241-3 .725-.87.467-1.54 1.151-2.02 2.052-.49.9-.73 1.968-.73 3.203 0 1.234.24 2.302.73 3.203.48.9 1.15 1.593 2.02 2.077.88.483 1.88.725 3 .725 1.09 0 2.07-.241 2.95-.725.9-.5 1.6-1.201 2.1-2.102.5-.918.75-1.977.75-3.178ZM1659.7 10.345c.43-1.1 1.16-2.002 2.2-2.702 1.04-.7 2.29-1.051 3.76-1.051 1.31 0 2.47.283 3.49.85a5.91 5.91 0 0 1 2.41 2.428c.59 1.05.88 2.277.88 3.678 0 1.401-.29 2.636-.88 3.704a6.071 6.071 0 0 1-2.41 2.452c-1.02.567-2.18.85-3.49.85-1.47 0-2.73-.35-3.79-1.05-1.03-.701-1.76-1.602-2.17-2.703v3.553h-1.17V1.837h1.17v8.508Zm11.55 3.203c0-1.234-.24-2.302-.72-3.203-.49-.9-1.17-1.585-2.05-2.052-.86-.483-1.87-.725-3.01-.725-1.08 0-2.07.25-2.95.75-.88.484-1.57 1.185-2.07 2.102-.5.901-.75 1.944-.75 3.128 0 1.201.25 2.26.75 3.178.5.9 1.19 1.602 2.07 2.102.88.484 1.87.726 2.95.726 1.14 0 2.15-.242 3.01-.726a5.082 5.082 0 0 0 2.05-2.077c.48-.9.72-1.968.72-3.203ZM1677.13 9.572c.34-1 .95-1.76 1.84-2.277.88-.533 2-.8 3.36-.8V7.67h-.38c-1.39 0-2.54.383-3.45 1.15-.92.751-1.37 1.986-1.37 3.704v7.832h-1.17V6.77h1.17v2.802ZM1685.62 3.737c-.28 0-.51-.083-.7-.25a.966.966 0 0 1-.29-.726c0-.284.1-.517.29-.7a.964.964 0 0 1 .7-.276c.27 0 .51.092.7.275.19.184.28.417.28.701 0 .3-.09.542-.28.726-.19.167-.43.25-.7.25Zm.57 3.028v13.587h-1.17V6.765h1.17ZM1689.73 13.55c0-1.419.29-2.653.86-3.704.59-1.051 1.39-1.852 2.41-2.402 1.04-.568 2.22-.851 3.55-.851 1.76 0 3.2.425 4.32 1.276 1.14.85 1.85 1.993 2.13 3.428h-1.22c-.22-1.168-.81-2.085-1.76-2.752-.93-.668-2.09-1.001-3.47-1.001-1.04 0-1.98.225-2.83.675-.84.434-1.52 1.11-2.04 2.027-.5.9-.75 2.002-.75 3.303 0 1.318.25 2.427.75 3.328.52.901 1.2 1.577 2.04 2.027.85.45 1.79.676 2.83.676 1.38 0 2.54-.334 3.47-1.001.95-.668 1.54-1.585 1.76-2.753h1.22c-.28 1.418-.99 2.56-2.13 3.428-1.14.868-2.58 1.302-4.32 1.302-1.33 0-2.51-.284-3.55-.851-1.02-.567-1.82-1.377-2.41-2.427-.57-1.068-.86-2.31-.86-3.729Z" />
  <g fill="#C9CBCF" clip-path="url(#l)">
    <path d="M1815.11 23.468c1.49 0 2.67-.319 3.53-.957.42-.309.75-.71.98-1.169.22-.46.33-.963.3-1.47a2.716 2.716 0 0 0-.38-1.493c-.31-.456-.74-.82-1.25-1.051a11.19 11.19 0 0 0-2.38-.81c-.93-.225-1.64-.419-2.11-.58a2.726 2.726 0 0 1-.96-.504.864.864 0 0 1-.25-.64c0-.212.06-.42.17-.6.12-.18.28-.326.48-.422a3.06 3.06 0 0 1 1.68-.335c.64.002 1.25.19 1.77.536.32.216.57.521.7.874.03.107.11.2.2.26.1.061.22.087.33.073l1.53-.268a.392.392 0 0 0 .15-.052.348.348 0 0 0 .18-.242.384.384 0 0 0 0-.152 3.39 3.39 0 0 0-1.48-2.043 5.98 5.98 0 0 0-3.4-.914c-1.39 0-2.51.312-3.36.936a2.96 2.96 0 0 0-.96 1.086c-.22.43-.32.907-.31 1.386-.01.497.12.988.38 1.419.32.433.77.774 1.28.986.78.35 1.6.624 2.43.82.94.239 1.63.438 2.08.599.34.092.65.27.89.515.15.2.23.445.22.694.01.227-.04.453-.15.656a1.37 1.37 0 0 1-.47.503c-.5.305-1.09.453-1.68.42-.7.024-1.39-.152-1.99-.506-.4-.25-.72-.613-.89-1.04a.494.494 0 0 0-.51-.3l-1.53.227a.41.41 0 0 0-.16.053.348.348 0 0 0-.12.109.421.421 0 0 0-.06.305c.23.883.79 1.654 1.58 2.172.92.613 2.1.92 3.54.92ZM1823.46 22.757c0 .107.04.21.12.284.08.076.19.118.3.118h1.49c.11 0 .21-.042.29-.118a.396.396 0 0 0 .13-.284v-5.508c-.04-.735.1-1.468.41-2.145.23-.49.61-.897 1.09-1.167.47-.24.98-.362 1.51-.356.54-.024 1.07.104 1.54.367.39.239.7.573.91.968.22.41.36.85.43 1.303.08.449.12.902.12 1.357v5.18c0 .054.01.107.03.155.03.05.06.094.1.131.04.038.08.067.13.087.05.02.11.03.16.03h1.49a.442.442 0 0 0 .3-.117.369.369 0 0 0 .09-.13.41.41 0 0 0 .03-.155v-5.9c0-.408-.04-.815-.1-1.22-.07-.484-.19-.959-.37-1.418a4.697 4.697 0 0 0-.8-1.34 3.766 3.766 0 0 0-1.36-1.001 4.983 4.983 0 0 0-2.06-.378 5.61 5.61 0 0 0-2.29.442c-.31.14-.61.313-.89.515a.489.489 0 0 1-.47.057.504.504 0 0 1-.19-.142.431.431 0 0 1-.09-.215.342.342 0 0 0-.11-.249.357.357 0 0 0-.26-.103h-1.26a.44.44 0 0 0-.3.119.39.39 0 0 0-.12.286v10.547ZM1841.44 23.492c1.38 0 2.51-.347 3.4-1.043.31-.247.88-.054.88.333 0 .104.05.204.12.278.08.074.18.116.29.116h1.2a.457.457 0 0 0 .3-.117.369.369 0 0 0 .09-.13.41.41 0 0 0 .03-.155v-6.602c0-.475-.02-.92-.06-1.341a3.27 3.27 0 0 0-.35-1.177 3.36 3.36 0 0 0-1.74-1.641 6.771 6.771 0 0 0-2.77-.537c-1.37 0-2.47.288-3.3.864a4.153 4.153 0 0 0-1.54 1.95c-.02.049-.03.102-.02.154 0 .053.02.103.05.15.02.046.06.086.1.118.05.033.1.055.15.068l1.35.397a.478.478 0 0 0 .56-.268c.19-.418.52-.766.94-.993a3.516 3.516 0 0 1 1.71-.42c.93 0 1.6.189 2 .568.38.368.61.853.65 1.367.01.1-.02.2-.09.278a.388.388 0 0 1-.26.14c-.84.11-1.65.229-2.46.35-.81.112-1.62.273-2.41.482-.81.216-1.54.65-2.09 1.252-.49.602-.75 1.35-.71 2.114-.01.595.14 1.183.44 1.705.33.525.8.955 1.36 1.242.67.335 1.42.507 2.18.498Zm.41-1.8c-.73 0-1.27-.16-1.62-.482-.17-.146-.3-.323-.39-.52-.09-.197-.13-.41-.13-.625a1.302 1.302 0 0 1 .46-1.073 3.63 3.63 0 0 1 1.18-.622c.57-.156 1.16-.279 1.75-.367.56-.086 1.19-.175 1.87-.268.06-.01.12-.006.18.011s.12.046.16.085c.05.04.08.088.1.143.03.054.04.113.03.171 0 .132-.02.268-.03.413-.02.3-.08.597-.18.883-.1.393-.29.76-.56 1.072-.31.362-.69.654-1.13.853a3.96 3.96 0 0 1-1.69.316v.01ZM1851.68 27.804a.4.4 0 0 0 .13.286c.08.076.18.119.3.119h1.46a.44.44 0 0 0 .3-.119.39.39 0 0 0 .12-.286v-4.537a.488.488 0 0 1 .09-.23.432.432 0 0 1 .19-.162.499.499 0 0 1 .24-.055c.09.002.17.025.25.066.21.117.44.215.67.295.59.204 1.21.304 1.84.295a5.08 5.08 0 0 0 2.87-.794 5.322 5.322 0 0 0 1.86-2.145c.45-.961.68-2.006.66-3.06.02-1.054-.21-2.099-.66-3.06a5.207 5.207 0 0 0-1.88-2.145 5.152 5.152 0 0 0-2.88-.788c-.68-.01-1.35.113-1.98.36-.34.13-.65.298-.95.5a.36.36 0 0 1-.35.026.298.298 0 0 1-.14-.113.341.341 0 0 1-.07-.164.276.276 0 0 0-.09-.207.288.288 0 0 0-.21-.086h-1.32a.44.44 0 0 0-.3.118.373.373 0 0 0-.09.132.413.413 0 0 0-.03.155l-.03 15.599Zm5.27-6.315c-1.12 0-1.94-.376-2.46-1.126-.52-.751-.78-1.715-.76-2.891 0-1.178.25-2.139.76-2.883.5-.743 1.3-1.115 2.38-1.115.67-.027 1.33.162 1.88.536.5.37.88.871 1.09 1.443.25.646.37 1.33.36 2.019.01.695-.11 1.385-.35 2.04a3.155 3.155 0 0 1-1.08 1.44c-.52.373-1.17.562-1.82.537ZM1866.4 22.76c0 .106.04.209.12.284.08.075.19.118.3.118h1.46a.444.444 0 0 0 .3-.117.37.37 0 0 0 .09-.13.409.409 0 0 0 .03-.155V8.108a.39.39 0 0 0-.12-.287.44.44 0 0 0-.3-.118h-1.46c-.11 0-.22.043-.3.119a.388.388 0 0 0-.12.286V22.76ZM1878.37 23.487c1.1.013 2.19-.276 3.13-.832a5.128 5.128 0 0 0 1.9-1.96c.03-.05.04-.105.04-.16a.445.445 0 0 0-.03-.162.384.384 0 0 0-.1-.134.525.525 0 0 0-.15-.08l-1.46-.44a.458.458 0 0 0-.52.204c-.62.997-1.59 1.499-2.92 1.499a3.21 3.21 0 0 1-1.27-.193 3.1 3.1 0 0 1-1.08-.67 3.656 3.656 0 0 1-.95-2.004c0-.055 0-.111.02-.164a.29.29 0 0 1 .08-.144.403.403 0 0 1 .31-.128h7.99c.11 0 .21-.039.29-.11a.358.358 0 0 0 .12-.272c.05-1.07-.12-2.14-.52-3.142a4.806 4.806 0 0 0-1.9-2.282c-.92-.557-2-.837-3.08-.805a6.028 6.028 0 0 0-3.06.716 5.256 5.256 0 0 0-2.05 2.113 6.8 6.8 0 0 0-.72 3.218 6.303 6.303 0 0 0 .73 3.092c.48.862 1.2 1.58 2.08 2.073.95.515 2.03.78 3.12.767Zm-.02-10.043c1.65 0 2.65.835 2.98 2.505a.32.32 0 0 1-.01.168.303.303 0 0 1-.08.148.36.36 0 0 1-.14.101.391.391 0 0 1-.17.033h-5.49a.378.378 0 0 1-.17-.034.362.362 0 0 1-.14-.104.315.315 0 0 1-.08-.152.25.25 0 0 1 0-.171c.13-.66.47-1.265.97-1.738.57-.514 1.34-.767 2.32-.767l.01.011ZM1893.77 23.22a.409.409 0 0 0 .35-.392V21.77a.496.496 0 0 0-.04-.17.627.627 0 0 0-.11-.14.45.45 0 0 0-.34-.1c-.52.053-1.03.053-1.55 0-.26-.019-.5-.097-.72-.227a1.54 1.54 0 0 1-.53-.521 1.705 1.705 0 0 1-.23-.85V13.96c0-.108.04-.21.12-.287a.44.44 0 0 1 .3-.118h2.68c.12-.001.22-.044.3-.12a.398.398 0 0 0 .13-.285v-.957a.4.4 0 0 0-.13-.287.423.423 0 0 0-.3-.118h-2.68a.444.444 0 0 1-.3-.12.388.388 0 0 1-.12-.285V9.037c0-.107-.05-.21-.13-.285a.421.421 0 0 0-.29-.12h-1.47c-.11.001-.22.044-.3.12a.388.388 0 0 0-.12.285v2.347c0 .107-.05.21-.12.285a.444.444 0 0 1-.3.12h-1.43a.5.5 0 0 0-.17.03.417.417 0 0 0-.22.22c-.02.049-.04.101-.03.155v.957c0 .107.04.21.12.285.08.076.18.119.3.12h1.43a.446.446 0 0 1 .3.119c.04.037.07.082.09.13a.41.41 0 0 1 .03.156v4.716c0 .617.01 1.17.02 1.66.03.501.17.99.42 1.432.28.514.73.92 1.29 1.156.6.255 1.26.39 1.92.4.61.021 1.23-.014 1.83-.105ZM1775.86 29.092c.97 0 1.89-.366 2.57-1.017a3.407 3.407 0 0 0 1.07-2.455 3.396 3.396 0 0 0-1.07-2.456 3.687 3.687 0 0 0-1.18-.753 3.757 3.757 0 0 0-1.39-.264c-.96 0-1.88.366-2.56 1.018a3.407 3.407 0 0 0-1.07 2.455c.01.92.39 1.803 1.07 2.454.68.651 1.6 1.017 2.56 1.018ZM1794.34 26.114c.48 0 .95-.09 1.39-.264a3.548 3.548 0 0 0 1.97-1.88 3.38 3.38 0 0 0-.79-3.784 3.727 3.727 0 0 0-2.57-1.017c-.96.001-1.88.367-2.57 1.018a3.395 3.395 0 0 0-1.06 2.455c0 .92.38 1.804 1.06 2.455a3.727 3.727 0 0 0 2.57 1.017Z" />
    <path d="M1766.92 34.518c-.12 0-.23-.02-.34-.059a.96.96 0 0 1-.3-.184.872.872 0 0 1-.29-.619c0-.116.02-.231.07-.34.02-.058.89-2.443 1.29-10.525.22-4.395.22-6.326-.15-10.642-.36-4.132.23-6.56 1.73-7.226 2.1-.923 4 .566 5.85 2.007 2.03 1.591 4.13 3.224 6.95 2.83 1.92-.274 2.62-1.995 3.48-4.588.67-2.019 1.35-4.102 3.37-4.395.95-.132 1.99.22 3.1 1.049 5.32 3.982 11.58 18.094 12.63 28.493.02.115 0 .231-.03.342a.896.896 0 0 1-.45.52.935.935 0 0 1-1.01-.098.848.848 0 0 1-.33-.594c-1.09-10.692-7.47-23.937-11.95-27.28-.68-.504-1.28-.753-1.71-.691-.88.126-1.37 1.608-1.89 3.182-.78 2.379-1.76 5.339-4.95 5.798-3.63.522-6.27-1.547-8.4-3.223-1.77-1.386-2.91-2.212-3.92-1.758-.42.188-.98 1.84-.66 5.483.38 4.415.37 6.384.15 10.868-.43 8.553-1.38 10.973-1.42 11.073a.848.848 0 0 1-.32.409.942.942 0 0 1-.5.168Z" />
    <path d="M1771.21 27.666a.522.522 0 0 1-.26-.073.518.518 0 0 1-.17-.194.497.497 0 0 1-.04-.17.5.5 0 0 1 .03-.171.681.681 0 0 1 .1-.147c.05-.042.1-.075.15-.098l3.62-1.482-3.8-.739a.518.518 0 0 1-.16-.065.571.571 0 0 1-.13-.121.791.791 0 0 1-.07-.158.332.332 0 0 1 .01-.171c.01-.057.03-.111.06-.16a.483.483 0 0 1 .47-.187l5.24 1.02c.1.019.18.066.25.135s.11.156.12.25a.423.423 0 0 1-.06.268.475.475 0 0 1-.22.183l-4.96 2.042a.455.455 0 0 1-.18.038ZM1799 23.379h-.02l-5.4-.279a.492.492 0 0 1-.26-.09.49.49 0 0 1-.16-.217.506.506 0 0 1 .02-.273c.04-.086.1-.16.19-.208l4.55-2.68a.46.46 0 0 1 .34-.053c.12.027.22.097.29.196.06.1.08.219.05.332a.459.459 0 0 1-.2.274l-3.3 1.94 3.92.202c.13.007.24.06.32.146.08.087.13.2.12.317a.444.444 0 0 1-.15.28.498.498 0 0 1-.31.113ZM1784.64 26.403c-.75.03-1.49-.178-2.1-.593a3.234 3.234 0 0 1-1.29-1.701.56.56 0 0 1 .04-.44c.07-.135.2-.238.35-.287a.645.645 0 0 1 .47.024c.14.067.26.187.31.333.4 1.172 1.46 1.682 2.9 1.433 1.44-.249 2.21-1.096 2.19-2.326 0-.156.06-.305.18-.415.11-.11.27-.172.43-.172.16 0 .32.062.43.172.12.11.18.26.18.415.04 1.81-1.18 3.152-3.19 3.501-.3.044-.6.063-.9.056ZM1774.38 21.186a.628.628 0 0 1-.13 0 .632.632 0 0 1-.39-.259.621.621 0 0 1-.08-.441c.31-1.257 1.99-3.206 4.06-3.516 2.07-.311 4.19 1.172 4.54 2.312a.585.585 0 0 1-.05.445.539.539 0 0 1-.16.176.626.626 0 0 1-.67.058.589.589 0 0 1-.3-.348c-.17-.563-1.67-1.715-3.17-1.486-1.5.229-2.84 1.723-3.06 2.637a.58.58 0 0 1-.22.305.654.654 0 0 1-.37.117ZM1786.32 19.239a.54.54 0 0 1-.17-.024.564.564 0 0 1-.21-.104.534.534 0 0 1-.23-.391.443.443 0 0 1 .02-.228c.3-1.064 1.41-2.951 3.55-3.276 1.95-.293 4.19.952 4.81 2.224.04.07.06.146.06.223 0 .078-.01.155-.04.227a.548.548 0 0 1-.13.196.573.573 0 0 1-.19.133.664.664 0 0 1-.48.017.673.673 0 0 1-.2-.122.536.536 0 0 1-.14-.188c-.38-.77-2.06-1.79-3.51-1.568-1.53.232-2.35 1.697-2.57 2.441a.586.586 0 0 1-.21.311c-.1.08-.23.125-.36.129Z" />
    <path fill-rule="evenodd" d="M1789.63 21.326a4.985 4.985 0 0 1-3.43-1.362 4.554 4.554 0 0 1-1.42-3.25 3.457 3.457 0 0 0-2.27.413c.18.483.27.995.27 1.515a4.54 4.54 0 0 1-1.42 3.283 4.99 4.99 0 0 1-3.44 1.362 4.984 4.984 0 0 1-3.43-1.362 4.573 4.573 0 0 1-1.4-2.837l-.95.167a.93.93 0 0 1-.14.02.793.793 0 0 1-.49-.172.704.704 0 0 1-.26-.431.683.683 0 0 1 .12-.547.842.842 0 0 1 .21-.198.835.835 0 0 1 .28-.105l1.34-.236c.2-.836.65-1.608 1.29-2.224.91-.87 2.15-1.36 3.43-1.361a4.968 4.968 0 0 1 3.87 1.833 5.001 5.001 0 0 1 3.22-.571c.24-.696.64-1.337 1.19-1.863.91-.871 2.15-1.36 3.43-1.362 1.29.001 2.52.491 3.43 1.362.21.197.4.41.56.635l.04-.008 1.15-.202c.2-.034.41.008.57.118a.713.713 0 0 1 .2 1.016.78.78 0 0 1-.49.305l-.79.138c.12.413.19.843.19 1.28 0 1.231-.52 2.412-1.43 3.282-.91.87-2.14 1.36-3.43 1.362Zm0-7.823c-.88 0-1.72.336-2.35.932a3.119 3.119 0 0 0-.97 2.247c0 .843.35 1.65.98 2.246.62.596 1.46.932 2.34.933a3.409 3.409 0 0 0 2.35-.933c.62-.596.97-1.403.98-2.246a3.09 3.09 0 0 0-.98-2.247 3.403 3.403 0 0 0-2.35-.932Zm-11.71 1.96c-.88.002-1.72.337-2.34.933a3.088 3.088 0 0 0-.98 2.246c0 .843.35 1.65.98 2.247.62.596 1.46.931 2.34.933a3.408 3.408 0 0 0 2.35-.933c.63-.596.98-1.404.98-2.247a3.163 3.163 0 0 0-.98-2.244 3.41 3.41 0 0 0-2.35-.932v-.003Z" clip-rule="evenodd" />
  </g>
  <defs>
    <linearGradient id="a" x1="100.002" x2="100.002" y1="1" y2="36.621" gradientUnits="userSpaceOnUse">
      <stop stop-color="#E4E5E7" />
      <stop offset="1" stop-color="#E4E5E7" stop-opacity=".7" />
    </linearGradient>
    <linearGradient id="b" x1="276.832" x2="276.832" y1=".5" y2="35.5" gradientUnits="userSpaceOnUse">
      <stop stop-color="#E4E5E7" />
      <stop offset="1" stop-color="#E4E5E7" stop-opacity=".7" />
    </linearGradient>
    <linearGradient id="c" x1="436.998" x2="436.998" y1=".5" y2="36.5" gradientUnits="userSpaceOnUse">
      <stop stop-color="#E4E5E7" />
      <stop offset="1" stop-color="#E4E5E7" stop-opacity=".7" />
    </linearGradient>
    <linearGradient id="d" x1="598.244" x2="598.244" y1=".5" y2="36.5" gradientUnits="userSpaceOnUse">
      <stop stop-color="#E4E5E7" />
      <stop offset="1" stop-color="#E4E5E7" stop-opacity=".7" />
    </linearGradient>
    <linearGradient id="e" x1="720.61" x2="720.61" y1="-1.5" y2="34.5" gradientUnits="userSpaceOnUse">
      <stop stop-color="#E4E5E7" />
      <stop offset="1" stop-color="#E4E5E7" stop-opacity=".7" />
    </linearGradient>
    <linearGradient id="f" x1="720.61" x2="720.61" y1="-1.5" y2="34.5" gradientUnits="userSpaceOnUse">
      <stop stop-color="#E4E5E7" />
      <stop offset="1" stop-color="#E4E5E7" stop-opacity=".7" />
    </linearGradient>
    <linearGradient id="g" x1="720.61" x2="720.61" y1="-1.5" y2="34.5" gradientUnits="userSpaceOnUse">
      <stop stop-color="#E4E5E7" />
      <stop offset="1" stop-color="#E4E5E7" stop-opacity=".7" />
    </linearGradient>
    <linearGradient id="h" x1="720.61" x2="720.61" y1="-1.5" y2="34.5" gradientUnits="userSpaceOnUse">
      <stop stop-color="#E4E5E7" />
      <stop offset="1" stop-color="#E4E5E7" stop-opacity=".7" />
    </linearGradient>
    <linearGradient id="i" x1="720.61" x2="720.61" y1="-1.5" y2="34.5" gradientUnits="userSpaceOnUse">
      <stop stop-color="#E4E5E7" />
      <stop offset="1" stop-color="#E4E5E7" stop-opacity=".7" />
    </linearGradient>
    <linearGradient id="j" x1="830.989" x2="830.989" y1="-3.974" y2="31.871" gradientUnits="userSpaceOnUse">
      <stop stop-color="#E4E5E7" />
      <stop offset="1" stop-color="#E4E5E7" stop-opacity=".7" />
    </linearGradient>
    <linearGradient id="k" x1="1014.96" x2="1014.96" y1="3.518" y2="39.52" gradientUnits="userSpaceOnUse">
      <stop stop-color="#E4E5E7" />
      <stop offset="1" stop-color="#E4E5E7" stop-opacity=".7" />
    </linearGradient>
    <clipPath id="l">
      <path fill="#fff" d="M1766 0h129v36h-129z" />
    </clipPath>
  </defs>
</svg>