<svg width="710" height="420" viewBox="0 0 710 420" fill="none" xmlns="http://www.w3.org/2000/svg">
<rect x="0.5" y="0.5" width="709" height="419" rx="21.5" stroke="url(#paint0_linear_10062_18841)"/>
<rect x="8" y="8" width="694" height="404" rx="16" fill="#262626"/>
<rect x="450.5" y="122.5" width="219" height="115" rx="7.5" fill="#262626" stroke="#404040"/>
<path d="M488.666 197.209C488.666 202.723 487.821 206.805 486.131 209.455C484.455 212.105 481.913 213.43 478.504 213.43C475.224 213.43 472.732 212.069 471.027 209.348C469.323 206.612 468.471 202.566 468.471 197.209C468.471 191.738 469.294 187.684 470.941 185.049C472.603 182.413 475.124 181.096 478.504 181.096C481.812 181.096 484.333 182.464 486.066 185.199C487.799 187.921 488.666 191.924 488.666 197.209ZM470.791 197.209C470.791 202.079 471.428 205.681 472.703 208.016C473.978 210.336 475.911 211.496 478.504 211.496C481.211 211.496 483.18 210.293 484.412 207.887C485.658 205.48 486.281 201.921 486.281 197.209C486.281 192.568 485.658 189.045 484.412 186.639C483.18 184.232 481.211 183.029 478.504 183.029C475.797 183.029 473.835 184.232 472.617 186.639C471.4 189.045 470.791 192.568 470.791 197.209ZM497.475 207.887L497.732 208.338C496.658 212.133 495.412 215.578 493.994 218.672H492.598C493.701 214.733 494.488 211.138 494.961 207.887H497.475ZM525.104 204.986H519.689V213H517.67V204.986H501.514V203.547L517.09 181.418H519.689V203.139H525.104V204.986ZM517.67 203.139V194.158C517.67 189.833 517.77 186.202 517.971 183.266H517.799C517.512 183.796 516.632 185.142 515.156 187.305L504.07 203.139H517.67ZM555.418 213L543.709 183.996H543.537C543.652 185.772 543.709 187.591 543.709 189.453V213H541.604V181.59H544.998L556.127 209.219H556.256L567.385 181.59H570.693V213H568.48V189.195C568.48 187.534 568.566 185.815 568.738 184.039H568.566L556.814 213H555.418ZM579.588 181.59H588.203C592.085 181.59 594.935 182.249 596.754 183.566C598.573 184.884 599.482 186.875 599.482 189.539C599.482 191.358 598.924 192.876 597.807 194.094C596.704 195.297 595.085 196.07 592.951 196.414V196.543C595.458 196.915 597.298 197.71 598.473 198.928C599.661 200.131 600.256 201.814 600.256 203.977C600.256 206.87 599.296 209.097 597.377 210.658C595.458 212.219 592.736 213 589.213 213H579.588V181.59ZM581.779 195.576H588.697C591.648 195.576 593.789 195.089 595.121 194.115C596.467 193.127 597.141 191.587 597.141 189.496C597.141 187.405 596.382 185.887 594.863 184.941C593.359 183.996 591.111 183.523 588.117 183.523H581.779V195.576ZM581.779 197.51V211.066H589.17C594.985 211.066 597.893 208.703 597.893 203.977C597.893 199.665 594.827 197.51 588.697 197.51H581.779Z" fill="white"/>
<path d="M510.098 148.635C510.098 150.049 509.705 151.131 508.92 151.881C508.135 152.627 507.004 153 505.527 153H503.131V144.434H505.779C507.143 144.434 508.203 144.801 508.961 145.535C509.719 146.27 510.098 147.303 510.098 148.635ZM508.621 148.682C508.621 146.631 507.662 145.605 505.744 145.605H504.531V151.822H505.527C507.59 151.822 508.621 150.775 508.621 148.682ZM517.498 153L516.642 150.621H513.367L512.529 153H511.052L514.258 144.398H515.781L518.986 153H517.498ZM516.273 149.414L515.47 147.082C515.412 146.926 515.33 146.68 515.224 146.344C515.123 146.008 515.052 145.762 515.013 145.605C514.908 146.086 514.754 146.611 514.551 147.182L513.777 149.414H516.273ZM523.316 153H521.916V145.635H519.396V144.434H525.835V145.635H523.316V153ZM532.708 153L531.853 150.621H528.577L527.74 153H526.263L529.468 144.398H530.991L534.197 153H532.708ZM531.484 149.414L530.681 147.082C530.622 146.926 530.54 146.68 530.435 146.344C530.333 146.008 530.263 145.762 530.224 145.605C530.118 146.086 529.964 146.611 529.761 147.182L528.988 149.414H531.484ZM535.567 144.434H538.11C539.29 144.434 540.142 144.605 540.665 144.949C541.192 145.293 541.456 145.836 541.456 146.578C541.456 147.078 541.327 147.494 541.069 147.826C540.812 148.158 540.44 148.367 539.956 148.453V148.512C540.558 148.625 540.999 148.85 541.28 149.186C541.565 149.518 541.708 149.969 541.708 150.539C541.708 151.309 541.439 151.912 540.899 152.35C540.364 152.783 539.618 153 538.661 153H535.567V144.434ZM536.968 147.973H538.315C538.901 147.973 539.329 147.881 539.599 147.697C539.868 147.51 540.003 147.193 540.003 146.748C540.003 146.346 539.856 146.055 539.564 145.875C539.274 145.695 538.814 145.605 538.181 145.605H536.968V147.973ZM536.968 149.109V151.822H538.456C539.042 151.822 539.483 151.711 539.78 151.488C540.081 151.262 540.231 150.906 540.231 150.422C540.231 149.977 540.079 149.646 539.774 149.432C539.47 149.217 539.007 149.109 538.386 149.109H536.968ZM549.044 153L548.188 150.621H544.913L544.075 153H542.598L545.804 144.398H547.327L550.532 153H549.044ZM547.819 149.414L547.016 147.082C546.958 146.926 546.876 146.68 546.77 146.344C546.669 146.008 546.598 145.762 546.559 145.605C546.454 146.086 546.3 146.611 546.096 147.182L545.323 149.414H547.819ZM556.842 150.674C556.842 151.436 556.567 152.033 556.016 152.467C555.465 152.9 554.706 153.117 553.737 153.117C552.768 153.117 551.975 152.967 551.358 152.666V151.342C551.749 151.525 552.163 151.67 552.6 151.775C553.042 151.881 553.452 151.934 553.831 151.934C554.385 151.934 554.794 151.828 555.055 151.617C555.321 151.406 555.454 151.123 555.454 150.768C555.454 150.447 555.333 150.176 555.09 149.953C554.848 149.73 554.348 149.467 553.59 149.162C552.809 148.846 552.258 148.484 551.938 148.078C551.618 147.672 551.458 147.184 551.458 146.613C551.458 145.898 551.711 145.336 552.219 144.926C552.727 144.516 553.409 144.311 554.264 144.311C555.085 144.311 555.901 144.49 556.713 144.85L556.268 145.992C555.506 145.672 554.827 145.512 554.229 145.512C553.776 145.512 553.432 145.611 553.198 145.811C552.963 146.006 552.846 146.266 552.846 146.59C552.846 146.812 552.893 147.004 552.987 147.164C553.081 147.32 553.235 147.469 553.45 147.609C553.665 147.75 554.051 147.936 554.61 148.166C555.239 148.428 555.7 148.672 555.993 148.898C556.286 149.125 556.501 149.381 556.637 149.666C556.774 149.951 556.842 150.287 556.842 150.674ZM563.586 153H558.741V144.434H563.586V145.617H560.141V147.949H563.369V149.121H560.141V151.811H563.586V153ZM573.98 150.674C573.98 151.436 573.705 152.033 573.154 152.467C572.603 152.9 571.844 153.117 570.875 153.117C569.906 153.117 569.113 152.967 568.496 152.666V151.342C568.887 151.525 569.301 151.67 569.738 151.775C570.18 151.881 570.59 151.934 570.969 151.934C571.523 151.934 571.931 151.828 572.193 151.617C572.459 151.406 572.592 151.123 572.592 150.768C572.592 150.447 572.471 150.176 572.228 149.953C571.986 149.73 571.486 149.467 570.728 149.162C569.947 148.846 569.396 148.484 569.076 148.078C568.756 147.672 568.596 147.184 568.596 146.613C568.596 145.898 568.849 145.336 569.357 144.926C569.865 144.516 570.547 144.311 571.402 144.311C572.223 144.311 573.039 144.49 573.851 144.85L573.406 145.992C572.644 145.672 571.965 145.512 571.367 145.512C570.914 145.512 570.57 145.611 570.336 145.811C570.101 146.006 569.984 146.266 569.984 146.59C569.984 146.812 570.031 147.004 570.125 147.164C570.219 147.32 570.373 147.469 570.588 147.609C570.803 147.75 571.189 147.936 571.748 148.166C572.377 148.428 572.838 148.672 573.131 148.898C573.424 149.125 573.639 149.381 573.775 149.666C573.912 149.951 573.98 150.287 573.98 150.674ZM575.879 153V144.434H577.279V153H575.879ZM585.171 153H579.042V152.027L583.361 145.635H579.16V144.434H585.054V145.418L580.718 151.799H585.171V153ZM591.775 153H586.929V144.434H591.775V145.617H588.329V147.949H591.558V149.121H588.329V151.811H591.775V153Z" fill="#CCCCCC"/>
<g clip-path="url(#clip0_10062_18841)">
<path d="M478 145C484.075 145 489 143.209 489 141C489 138.791 484.075 137 478 137C471.925 137 467 138.791 467 141C467 143.209 471.925 145 478 145Z" stroke="#00E599" stroke-width="1.2" stroke-linecap="round" stroke-linejoin="round"/>
<path d="M489 148C489 150.209 484.075 152 478 152C471.925 152 467 150.209 467 148" stroke="#00E599" stroke-width="1.2" stroke-linecap="round" stroke-linejoin="round"/>
<path d="M467 141V155C467 157.21 471.924 159 478 159C484.076 159 489 157.21 489 155V141" stroke="#00E599" stroke-width="1.2" stroke-linecap="round" stroke-linejoin="round"/>
</g>
<rect x="450.5" y="274.5" width="219" height="115" rx="7.5" fill="#262626" stroke="#404040"/>
<path d="M480.652 365H478.547V342.119C478.547 340.042 478.633 337.887 478.805 335.652C478.59 335.867 478.368 336.075 478.139 336.275C477.91 336.476 475.697 338.216 471.5 341.496L470.275 339.971L478.805 333.59H480.652V365ZM513.803 349.209C513.803 354.723 512.958 358.805 511.268 361.455C509.592 364.105 507.049 365.43 503.641 365.43C500.361 365.43 497.868 364.069 496.164 361.348C494.46 358.612 493.607 354.566 493.607 349.209C493.607 343.738 494.431 339.684 496.078 337.049C497.74 334.413 500.26 333.096 503.641 333.096C506.949 333.096 509.47 334.464 511.203 337.199C512.936 339.921 513.803 343.924 513.803 349.209ZM495.928 349.209C495.928 354.079 496.565 357.681 497.84 360.016C499.115 362.336 501.048 363.496 503.641 363.496C506.348 363.496 508.317 362.293 509.549 359.887C510.795 357.48 511.418 353.921 511.418 349.209C511.418 344.568 510.795 341.045 509.549 338.639C508.317 336.232 506.348 335.029 503.641 335.029C500.934 335.029 498.971 336.232 497.754 338.639C496.536 341.045 495.928 344.568 495.928 349.209ZM538.939 349.209C538.939 354.723 538.094 358.805 536.404 361.455C534.729 364.105 532.186 365.43 528.777 365.43C525.497 365.43 523.005 364.069 521.301 361.348C519.596 358.612 518.744 354.566 518.744 349.209C518.744 343.738 519.568 339.684 521.215 337.049C522.876 334.413 525.397 333.096 528.777 333.096C532.086 333.096 534.607 334.464 536.34 337.199C538.073 339.921 538.939 343.924 538.939 349.209ZM521.064 349.209C521.064 354.079 521.702 357.681 522.977 360.016C524.251 362.336 526.185 363.496 528.777 363.496C531.484 363.496 533.454 362.293 534.686 359.887C535.932 357.48 536.555 353.921 536.555 349.209C536.555 344.568 535.932 341.045 534.686 338.639C533.454 336.232 531.484 335.029 528.777 335.029C526.07 335.029 524.108 336.232 522.891 338.639C521.673 341.045 521.064 344.568 521.064 349.209ZM569.641 349.166H581.221V363.496C578.184 364.785 574.768 365.43 570.973 365.43C566.017 365.43 562.214 364.033 559.564 361.24C556.929 358.433 555.611 354.465 555.611 349.338C555.611 346.144 556.263 343.315 557.566 340.852C558.884 338.374 560.76 336.462 563.195 335.115C565.645 333.769 568.452 333.096 571.617 333.096C575.04 333.096 578.113 333.726 580.834 334.986L579.953 336.963C577.232 335.702 574.41 335.072 571.488 335.072C567.349 335.072 564.062 336.354 561.627 338.918C559.206 341.467 557.996 344.912 557.996 349.252C557.996 353.979 559.149 357.538 561.455 359.93C563.761 362.307 567.148 363.496 571.617 363.496C574.51 363.496 576.967 363.088 578.986 362.271V351.229H569.641V349.166ZM589.127 333.59H597.742C601.624 333.59 604.474 334.249 606.293 335.566C608.112 336.884 609.021 338.875 609.021 341.539C609.021 343.358 608.463 344.876 607.346 346.094C606.243 347.297 604.624 348.07 602.49 348.414V348.543C604.997 348.915 606.837 349.71 608.012 350.928C609.201 352.131 609.795 353.814 609.795 355.977C609.795 358.87 608.835 361.097 606.916 362.658C604.997 364.219 602.275 365 598.752 365H589.127V333.59ZM591.318 347.576H598.236C601.187 347.576 603.328 347.089 604.66 346.115C606.007 345.127 606.68 343.587 606.68 341.496C606.68 339.405 605.921 337.887 604.402 336.941C602.898 335.996 600.65 335.523 597.656 335.523H591.318V347.576ZM591.318 349.51V363.066H598.709C604.524 363.066 607.432 360.703 607.432 355.977C607.432 351.665 604.367 349.51 598.236 349.51H591.318Z" fill="white"/>
<path d="M509.887 305H508.48V301.139H504.531V305H503.131V296.434H504.531V299.938H508.48V296.434H509.887V305ZM512.383 305V296.434H513.783V305H512.383ZM521.23 302.674C521.23 303.436 520.955 304.033 520.404 304.467C519.853 304.9 519.093 305.117 518.125 305.117C517.156 305.117 516.363 304.967 515.746 304.666V303.342C516.136 303.525 516.55 303.67 516.988 303.775C517.429 303.881 517.839 303.934 518.218 303.934C518.773 303.934 519.181 303.828 519.443 303.617C519.709 303.406 519.841 303.123 519.841 302.768C519.841 302.447 519.72 302.176 519.478 301.953C519.236 301.73 518.736 301.467 517.978 301.162C517.197 300.846 516.646 300.484 516.326 300.078C516.005 299.672 515.845 299.184 515.845 298.613C515.845 297.898 516.099 297.336 516.607 296.926C517.115 296.516 517.796 296.311 518.652 296.311C519.472 296.311 520.289 296.49 521.101 296.85L520.656 297.992C519.894 297.672 519.214 297.512 518.617 297.512C518.164 297.512 517.82 297.611 517.585 297.811C517.351 298.006 517.234 298.266 517.234 298.59C517.234 298.812 517.281 299.004 517.375 299.164C517.468 299.32 517.623 299.469 517.837 299.609C518.052 299.75 518.439 299.936 518.998 300.166C519.626 300.428 520.087 300.672 520.38 300.898C520.673 301.125 520.888 301.381 521.025 301.666C521.162 301.951 521.23 302.287 521.23 302.674ZM526.087 305H524.687V297.635H522.167V296.434H528.607V297.635H526.087V305ZM537.771 300.705C537.771 302.1 537.421 303.184 536.722 303.957C536.026 304.73 535.04 305.117 533.763 305.117C532.47 305.117 531.476 304.734 530.78 303.969C530.089 303.199 529.743 302.107 529.743 300.693C529.743 299.279 530.091 298.193 530.786 297.436C531.485 296.678 532.481 296.299 533.774 296.299C535.048 296.299 536.032 296.684 536.728 297.453C537.423 298.223 537.771 299.307 537.771 300.705ZM531.231 300.705C531.231 301.76 531.444 302.561 531.87 303.107C532.296 303.65 532.927 303.922 533.763 303.922C534.595 303.922 535.222 303.652 535.644 303.113C536.069 302.574 536.282 301.771 536.282 300.705C536.282 299.654 536.071 298.857 535.649 298.314C535.231 297.771 534.606 297.5 533.774 297.5C532.935 297.5 532.3 297.771 531.87 298.314C531.444 298.857 531.231 299.654 531.231 300.705ZM541.251 300.418H542.223C542.876 300.418 543.348 300.297 543.641 300.055C543.934 299.812 544.081 299.453 544.081 298.977C544.081 298.492 543.923 298.145 543.606 297.934C543.29 297.723 542.813 297.617 542.177 297.617H541.251V300.418ZM541.251 301.578V305H539.85V296.434H542.27C543.376 296.434 544.194 296.641 544.725 297.055C545.257 297.469 545.522 298.094 545.522 298.93C545.522 299.996 544.968 300.756 543.858 301.209L546.278 305H544.684L542.634 301.578H541.251ZM550.186 300.342L552.213 296.434H553.737L550.883 301.678V305H549.477V301.725L546.635 296.434H548.159L550.186 300.342ZM563.404 302.674C563.404 303.436 563.129 304.033 562.578 304.467C562.027 304.9 561.268 305.117 560.299 305.117C559.33 305.117 558.537 304.967 557.92 304.666V303.342C558.311 303.525 558.725 303.67 559.162 303.775C559.604 303.881 560.014 303.934 560.393 303.934C560.947 303.934 561.356 303.828 561.617 303.617C561.883 303.406 562.016 303.123 562.016 302.768C562.016 302.447 561.895 302.176 561.652 301.953C561.41 301.73 560.91 301.467 560.152 301.162C559.371 300.846 558.82 300.484 558.5 300.078C558.18 299.672 558.02 299.184 558.02 298.613C558.02 297.898 558.274 297.336 558.781 296.926C559.289 296.516 559.971 296.311 560.826 296.311C561.647 296.311 562.463 296.49 563.275 296.85L562.83 297.992C562.068 297.672 561.389 297.512 560.791 297.512C560.338 297.512 559.994 297.611 559.76 297.811C559.525 298.006 559.408 298.266 559.408 298.59C559.408 298.812 559.455 299.004 559.549 299.164C559.643 299.32 559.797 299.469 560.012 299.609C560.227 299.75 560.613 299.936 561.172 300.166C561.801 300.428 562.262 300.672 562.555 300.898C562.848 301.125 563.063 301.381 563.199 301.666C563.336 301.951 563.404 302.287 563.404 302.674ZM565.303 305V296.434H566.703V305H565.303ZM574.595 305H568.466V304.027L572.785 297.635H568.584V296.434H574.478V297.418L570.142 303.799H574.595V305ZM581.199 305H576.353V296.434H581.199V297.617H577.753V299.949H580.982V301.121H577.753V303.811H581.199V305Z" fill="#CCCCCC"/>
<g clip-path="url(#clip1_10062_18841)">
<path d="M489 289H467V297H489V289Z" stroke="#00E599" stroke-linecap="round"/>
<path d="M471 293H475" stroke="#00E599" stroke-linecap="square"/>
<path d="M485 294C485.552 294 486 293.552 486 293C486 292.448 485.552 292 485 292C484.448 292 484 292.448 484 293C484 293.552 484.448 294 485 294Z" fill="#00E599"/>
<path d="M489 303H467V311H489V303Z" stroke="#00E599" stroke-linecap="round"/>
<path d="M471 307H475" stroke="#00E599" stroke-linecap="square"/>
<path d="M485 308C485.552 308 486 307.552 486 307C486 306.448 485.552 306 485 306C484.448 306 484 306.448 484 307C484 307.552 484.448 308 485 308Z" fill="#00E599"/>
</g>
<rect x="40.5" y="122.5" width="377" height="267" rx="7.5" fill="#262626" stroke="#404040"/>
<line opacity="0.4" x1="56" y1="327.5" x2="402" y2="327.5" stroke="#404040"/>
<line opacity="0.4" x1="56" y1="273.5" x2="402" y2="273.5" stroke="#404040"/>
<line opacity="0.4" x1="56" y1="219.5" x2="402" y2="219.5" stroke="#404040"/>
<path d="M57.1309 190.434H59.6738C60.8535 190.434 61.7051 190.605 62.2285 190.949C62.7559 191.293 63.0195 191.836 63.0195 192.578C63.0195 193.078 62.8906 193.494 62.6328 193.826C62.375 194.158 62.0039 194.367 61.5195 194.453V194.512C62.1211 194.625 62.5625 194.85 62.8438 195.186C63.1289 195.518 63.2715 195.969 63.2715 196.539C63.2715 197.309 63.002 197.912 62.4629 198.35C61.9277 198.783 61.1816 199 60.2246 199H57.1309V190.434ZM58.5312 193.973H59.8789C60.4648 193.973 60.8926 193.881 61.1621 193.697C61.4316 193.51 61.5664 193.193 61.5664 192.748C61.5664 192.346 61.4199 192.055 61.127 191.875C60.8379 191.695 60.377 191.605 59.7441 191.605H58.5312V193.973ZM58.5312 195.109V197.822H60.0195C60.6055 197.822 61.0469 197.711 61.3438 197.488C61.6445 197.262 61.7949 196.906 61.7949 196.422C61.7949 195.977 61.6426 195.646 61.3379 195.432C61.0332 195.217 60.5703 195.109 59.9492 195.109H58.5312ZM66.6931 194.418H67.6658C68.3181 194.418 68.7908 194.297 69.0837 194.055C69.3767 193.812 69.5232 193.453 69.5232 192.977C69.5232 192.492 69.365 192.145 69.0486 191.934C68.7322 191.723 68.2556 191.617 67.6189 191.617H66.6931V194.418ZM66.6931 195.578V199H65.2927V190.434H67.7127C68.8181 190.434 69.6365 190.641 70.1677 191.055C70.699 191.469 70.9646 192.094 70.9646 192.93C70.9646 193.996 70.4099 194.756 69.3005 195.209L71.7205 199H70.1267L68.0759 195.578H66.6931ZM78.523 199L77.6675 196.621H74.3921L73.5542 199H72.0777L75.2827 190.398H76.8062L80.0112 199H78.523ZM77.2984 195.414L76.4956 193.082C76.437 192.926 76.355 192.68 76.2495 192.344C76.148 192.008 76.0777 191.762 76.0386 191.605C75.9331 192.086 75.7788 192.611 75.5757 193.182L74.8023 195.414H77.2984ZM88.5188 199H86.802L82.5891 192.174H82.5423L82.5716 192.555C82.6262 193.281 82.6536 193.945 82.6536 194.547V199H81.3821V190.434H83.0813L87.2825 197.225H87.3177C87.3098 197.135 87.2942 196.809 87.2708 196.246C87.2473 195.68 87.2356 195.238 87.2356 194.922V190.434H88.5188V199ZM94.6651 191.512C93.8604 191.512 93.2276 191.797 92.7666 192.367C92.3057 192.938 92.0752 193.725 92.0752 194.729C92.0752 195.779 92.2959 196.574 92.7373 197.113C93.1827 197.652 93.8252 197.922 94.6651 197.922C95.0284 197.922 95.3799 197.887 95.7198 197.816C96.0596 197.742 96.4131 197.648 96.7803 197.535V198.736C96.1084 198.99 95.3467 199.117 94.4952 199.117C93.2412 199.117 92.2784 198.738 91.6065 197.98C90.9346 197.219 90.5987 196.131 90.5987 194.717C90.5987 193.826 90.7608 193.047 91.085 192.379C91.4131 191.711 91.8858 191.199 92.503 190.844C93.1202 190.488 93.8448 190.311 94.6768 190.311C95.5518 190.311 96.3604 190.494 97.1026 190.861L96.5987 192.027C96.3096 191.891 96.003 191.771 95.6787 191.67C95.3584 191.564 95.0205 191.512 94.6651 191.512ZM105.622 199H104.216V195.139H100.266V199H98.866V190.434H100.266V193.938H104.216V190.434H105.622V199Z" fill="#CCCCCC"/>
<path d="M374.52 198H372.906V193.338C372.906 192.759 372.797 192.328 372.578 192.046C372.359 191.759 372.018 191.615 371.553 191.615C370.933 191.615 370.477 191.818 370.186 192.224C369.898 192.625 369.755 193.295 369.755 194.233V198H368.148V190.439H369.406L369.632 191.431H369.714C369.924 191.071 370.227 190.793 370.623 190.597C371.024 190.401 371.464 190.303 371.942 190.303C373.104 190.303 373.875 190.699 374.253 191.492H374.362C374.586 191.118 374.9 190.827 375.306 190.617C375.711 190.408 376.176 190.303 376.7 190.303C377.603 190.303 378.259 190.531 378.669 190.986C379.084 191.442 379.291 192.137 379.291 193.071V198H377.685V193.338C377.685 192.759 377.573 192.328 377.35 192.046C377.131 191.759 376.789 191.615 376.324 191.615C375.7 191.615 375.242 191.811 374.95 192.203C374.663 192.59 374.52 193.188 374.52 193.994V198ZM386.264 198L385.942 196.947H385.888C385.523 197.408 385.156 197.722 384.787 197.891C384.418 198.055 383.944 198.137 383.365 198.137C382.622 198.137 382.041 197.936 381.622 197.535C381.207 197.134 381 196.567 381 195.833C381 195.054 381.289 194.466 381.868 194.069C382.447 193.673 383.329 193.456 384.514 193.42L385.819 193.379V192.976C385.819 192.493 385.705 192.132 385.478 191.896C385.254 191.654 384.906 191.533 384.432 191.533C384.044 191.533 383.673 191.59 383.317 191.704C382.962 191.818 382.62 191.952 382.292 192.107L381.772 190.959C382.183 190.745 382.632 190.583 383.119 190.474C383.607 190.36 384.067 190.303 384.5 190.303C385.462 190.303 386.186 190.512 386.674 190.932C387.166 191.351 387.412 192.009 387.412 192.907V198H386.264ZM383.871 196.906C384.454 196.906 384.922 196.744 385.272 196.421C385.628 196.093 385.806 195.635 385.806 195.047V194.391L384.835 194.432C384.078 194.459 383.527 194.587 383.181 194.814C382.839 195.038 382.668 195.382 382.668 195.847C382.668 196.184 382.768 196.446 382.969 196.633C383.169 196.815 383.47 196.906 383.871 196.906ZM391.261 198H389.654V190.439H391.261V198ZM389.559 188.437C389.559 188.149 389.636 187.928 389.791 187.773C389.951 187.618 390.176 187.541 390.468 187.541C390.75 187.541 390.969 187.618 391.124 187.773C391.284 187.928 391.363 188.149 391.363 188.437C391.363 188.71 391.284 188.926 391.124 189.086C390.969 189.241 390.75 189.318 390.468 189.318C390.176 189.318 389.951 189.241 389.791 189.086C389.636 188.926 389.559 188.71 389.559 188.437ZM400.216 198H398.603V193.352C398.603 192.768 398.484 192.333 398.247 192.046C398.015 191.759 397.643 191.615 397.133 191.615C396.454 191.615 395.957 191.816 395.643 192.217C395.328 192.618 395.171 193.29 395.171 194.233V198H393.564V190.439H394.822L395.048 191.431H395.13C395.358 191.071 395.681 190.793 396.101 190.597C396.52 190.401 396.985 190.303 397.495 190.303C399.309 190.303 400.216 191.226 400.216 193.071V198Z" fill="white"/>
<path d="M64.0977 248.635C64.0977 250.049 63.7051 251.131 62.9199 251.881C62.1348 252.627 61.0039 253 59.5273 253H57.1309V244.434H59.7793C61.1426 244.434 62.2031 244.801 62.9609 245.535C63.7188 246.27 64.0977 247.303 64.0977 248.635ZM62.6211 248.682C62.6211 246.631 61.6621 245.605 59.7441 245.605H58.5312V251.822H59.5273C61.5898 251.822 62.6211 250.775 62.6211 248.682ZM71.4978 253L70.6423 250.621H67.367L66.5291 253H65.0525L68.2576 244.398H69.781L72.9861 253H71.4978ZM70.2732 249.414L69.4705 247.082C69.4119 246.926 69.3298 246.68 69.2244 246.344C69.1228 246.008 69.0525 245.762 69.0134 245.605C68.908 246.086 68.7537 246.611 68.5505 247.182L67.7771 249.414H70.2732ZM77.3159 253H75.9155V245.635H73.396V244.434H79.8355V245.635H77.3159V253ZM86.2395 253H81.3938V244.434H86.2395V245.617H82.7942V247.949H86.0227V249.121H82.7942V251.811H86.2395V253Z" fill="#CCCCCC"/>
<path d="M326.447 246.907C326.447 248.557 325.989 249.819 325.073 250.694C324.157 251.565 322.838 252 321.115 252H318.319V242.006H321.409C323 242.006 324.237 242.434 325.121 243.291C326.005 244.148 326.447 245.353 326.447 246.907ZM324.725 246.962C324.725 244.569 323.606 243.373 321.368 243.373H319.953V250.626H321.115C323.521 250.626 324.725 249.405 324.725 246.962ZM331.731 252.137C330.556 252.137 329.635 251.795 328.97 251.111C328.309 250.423 327.979 249.478 327.979 248.274C327.979 247.039 328.286 246.069 328.901 245.362C329.517 244.656 330.362 244.303 331.438 244.303C332.436 244.303 333.224 244.606 333.803 245.212C334.382 245.818 334.671 246.652 334.671 247.714V248.582H329.633C329.656 249.316 329.854 249.881 330.228 250.277C330.601 250.669 331.128 250.865 331.807 250.865C332.253 250.865 332.668 250.824 333.051 250.742C333.438 250.656 333.853 250.514 334.295 250.318V251.624C333.903 251.811 333.507 251.943 333.105 252.021C332.704 252.098 332.246 252.137 331.731 252.137ZM331.438 245.52C330.927 245.52 330.517 245.681 330.207 246.005C329.902 246.328 329.719 246.8 329.66 247.42H333.092C333.083 246.796 332.932 246.324 332.641 246.005C332.349 245.681 331.948 245.52 331.438 245.52ZM339.545 252.137C338.401 252.137 337.531 251.804 336.934 251.139C336.341 250.469 336.045 249.509 336.045 248.261C336.045 246.989 336.355 246.012 336.975 245.328C337.599 244.645 338.499 244.303 339.675 244.303C340.472 244.303 341.19 244.451 341.828 244.747L341.343 246.039C340.664 245.775 340.103 245.643 339.661 245.643C338.353 245.643 337.699 246.511 337.699 248.247C337.699 249.095 337.861 249.733 338.185 250.161C338.513 250.585 338.991 250.797 339.62 250.797C340.336 250.797 341.012 250.619 341.65 250.264V251.665C341.363 251.834 341.056 251.954 340.728 252.027C340.404 252.1 340.01 252.137 339.545 252.137ZM353.306 252H346.531V250.783L349.108 248.192C349.869 247.413 350.373 246.862 350.619 246.538C350.87 246.21 351.052 245.902 351.166 245.615C351.28 245.328 351.337 245.021 351.337 244.692C351.337 244.241 351.2 243.886 350.927 243.626C350.658 243.366 350.284 243.236 349.806 243.236C349.423 243.236 349.051 243.307 348.691 243.448C348.336 243.59 347.924 243.845 347.454 244.214L346.586 243.154C347.142 242.685 347.682 242.352 348.206 242.156C348.73 241.96 349.288 241.862 349.881 241.862C350.811 241.862 351.556 242.106 352.116 242.594C352.677 243.077 352.957 243.729 352.957 244.549C352.957 245 352.875 245.428 352.711 245.834C352.551 246.24 352.303 246.659 351.966 247.092C351.633 247.52 351.077 248.101 350.298 248.835L348.562 250.517V250.585H353.306V252ZM361.659 249.819H360.312V252H358.747V249.819H354.181V248.582L358.747 241.979H360.312V248.486H361.659V249.819ZM358.747 248.486V245.978C358.747 245.084 358.77 244.353 358.815 243.783H358.761C358.633 244.084 358.433 244.449 358.159 244.877L355.678 248.486H358.747ZM364.729 250.53C364.51 251.378 364.109 252.469 363.525 253.805H362.343C362.657 252.574 362.892 251.43 363.047 250.373H364.626L364.729 250.53ZM376.685 252H369.91V250.783L372.487 248.192C373.248 247.413 373.752 246.862 373.998 246.538C374.249 246.21 374.431 245.902 374.545 245.615C374.659 245.328 374.716 245.021 374.716 244.692C374.716 244.241 374.579 243.886 374.306 243.626C374.037 243.366 373.663 243.236 373.185 243.236C372.802 243.236 372.43 243.307 372.07 243.448C371.715 243.59 371.302 243.845 370.833 244.214L369.965 243.154C370.521 242.685 371.061 242.352 371.585 242.156C372.109 241.96 372.667 241.862 373.26 241.862C374.189 241.862 374.935 242.106 375.495 242.594C376.056 243.077 376.336 243.729 376.336 244.549C376.336 245 376.254 245.428 376.09 245.834C375.93 246.24 375.682 246.659 375.345 247.092C375.012 247.52 374.456 248.101 373.677 248.835L371.94 250.517V250.585H376.685V252ZM384.683 247.003C384.683 248.739 384.402 250.029 383.842 250.872C383.286 251.715 382.434 252.137 381.285 252.137C380.173 252.137 379.33 251.701 378.756 250.831C378.182 249.961 377.895 248.685 377.895 247.003C377.895 245.239 378.173 243.94 378.729 243.106C379.289 242.268 380.141 241.849 381.285 241.849C382.402 241.849 383.247 242.286 383.821 243.161C384.396 244.036 384.683 245.317 384.683 247.003ZM379.521 247.003C379.521 248.366 379.66 249.339 379.938 249.922C380.221 250.505 380.67 250.797 381.285 250.797C381.9 250.797 382.349 250.501 382.632 249.908C382.919 249.316 383.062 248.347 383.062 247.003C383.062 245.663 382.919 244.695 382.632 244.098C382.349 243.496 381.9 243.195 381.285 243.195C380.67 243.195 380.221 243.489 379.938 244.077C379.66 244.665 379.521 245.64 379.521 247.003ZM392.681 252H385.906V250.783L388.483 248.192C389.244 247.413 389.748 246.862 389.994 246.538C390.245 246.21 390.427 245.902 390.541 245.615C390.655 245.328 390.712 245.021 390.712 244.692C390.712 244.241 390.575 243.886 390.302 243.626C390.033 243.366 389.659 243.236 389.181 243.236C388.798 243.236 388.426 243.307 388.066 243.448C387.711 243.59 387.299 243.845 386.829 244.214L385.961 243.154C386.517 242.685 387.057 242.352 387.581 242.156C388.105 241.96 388.663 241.862 389.256 241.862C390.186 241.862 390.931 242.106 391.491 242.594C392.052 243.077 392.332 243.729 392.332 244.549C392.332 245 392.25 245.428 392.086 245.834C391.926 246.24 391.678 246.659 391.341 247.092C391.008 247.52 390.452 248.101 389.673 248.835L387.937 250.517V250.585H392.681V252ZM398.621 252H397.015V245.547C397.015 244.777 397.033 244.166 397.069 243.715C396.965 243.824 396.835 243.945 396.68 244.077C396.529 244.209 396.019 244.629 395.148 245.335L394.342 244.316L397.281 242.006H398.621V252Z" fill="white"/>
<path d="M60.0898 307H58.6895V299.635H56.1699V298.434H62.6094V299.635H60.0898V307ZM64.1677 307V298.434H65.5681V307H64.1677ZM71.7788 307L69.2945 299.846H69.2476C69.314 300.908 69.3472 301.904 69.3472 302.834V307H68.0757V298.434H70.0503L72.4292 305.248H72.4644L74.9136 298.434H76.8941V307H75.5464V302.764C75.5464 302.338 75.5562 301.783 75.5757 301.1C75.5991 300.416 75.6187 300.002 75.6343 299.857H75.5874L73.0152 307H71.7788ZM84.2356 307H79.3899V298.434H84.2356V299.617H80.7903V301.949H84.0188V303.121H80.7903V305.811H84.2356V307Z" fill="#CCCCCC"/>
<path d="M340.332 306H338.726V299.547C338.726 298.777 338.744 298.166 338.78 297.715C338.675 297.824 338.546 297.945 338.391 298.077C338.24 298.209 337.73 298.629 336.859 299.335L336.053 298.316L338.992 296.006H340.332V306ZM343.641 301.741C343.641 297.831 345.233 295.876 348.419 295.876C348.92 295.876 349.344 295.915 349.69 295.992V297.332C349.344 297.232 348.943 297.182 348.487 297.182C347.416 297.182 346.612 297.469 346.074 298.043C345.536 298.617 345.245 299.538 345.199 300.805H345.281C345.495 300.436 345.796 300.151 346.184 299.95C346.571 299.745 347.027 299.643 347.551 299.643C348.458 299.643 349.164 299.921 349.67 300.477C350.176 301.033 350.429 301.787 350.429 302.739C350.429 303.787 350.135 304.617 349.547 305.228C348.964 305.834 348.166 306.137 347.154 306.137C346.439 306.137 345.817 305.966 345.288 305.624C344.759 305.278 344.352 304.776 344.064 304.12C343.782 303.459 343.641 302.666 343.641 301.741ZM347.127 304.811C347.678 304.811 348.102 304.633 348.398 304.277C348.699 303.922 348.85 303.414 348.85 302.753C348.85 302.179 348.708 301.728 348.426 301.399C348.148 301.071 347.729 300.907 347.168 300.907C346.822 300.907 346.503 300.982 346.211 301.133C345.919 301.279 345.689 301.481 345.521 301.741C345.352 301.996 345.268 302.258 345.268 302.527C345.268 303.17 345.441 303.712 345.787 304.154C346.138 304.592 346.585 304.811 347.127 304.811ZM351.905 305.146C351.905 304.813 351.992 304.558 352.165 304.38C352.338 304.202 352.589 304.113 352.917 304.113C353.25 304.113 353.503 304.207 353.676 304.394C353.849 304.576 353.936 304.826 353.936 305.146C353.936 305.469 353.847 305.727 353.669 305.918C353.496 306.105 353.245 306.198 352.917 306.198C352.589 306.198 352.338 306.105 352.165 305.918C351.992 305.731 351.905 305.474 351.905 305.146ZM351.905 299.308C351.905 298.619 352.243 298.275 352.917 298.275C353.259 298.275 353.514 298.367 353.683 298.549C353.851 298.731 353.936 298.984 353.936 299.308C353.936 299.631 353.847 299.889 353.669 300.08C353.496 300.267 353.245 300.36 352.917 300.36C352.589 300.36 352.338 300.267 352.165 300.08C351.992 299.893 351.905 299.636 351.905 299.308ZM362.241 301.003C362.241 302.739 361.961 304.029 361.4 304.872C360.844 305.715 359.992 306.137 358.844 306.137C357.732 306.137 356.889 305.701 356.314 304.831C355.74 303.961 355.453 302.685 355.453 301.003C355.453 299.239 355.731 297.94 356.287 297.106C356.848 296.268 357.7 295.849 358.844 295.849C359.96 295.849 360.806 296.286 361.38 297.161C361.954 298.036 362.241 299.317 362.241 301.003ZM357.08 301.003C357.08 302.366 357.219 303.339 357.497 303.922C357.78 304.505 358.229 304.797 358.844 304.797C359.459 304.797 359.908 304.501 360.19 303.908C360.478 303.316 360.621 302.347 360.621 301.003C360.621 299.663 360.478 298.695 360.19 298.098C359.908 297.496 359.459 297.195 358.844 297.195C358.229 297.195 357.78 297.489 357.497 298.077C357.219 298.665 357.08 299.64 357.08 301.003ZM363.492 301.741C363.492 297.831 365.085 295.876 368.271 295.876C368.772 295.876 369.196 295.915 369.542 295.992V297.332C369.196 297.232 368.795 297.182 368.339 297.182C367.268 297.182 366.464 297.469 365.926 298.043C365.388 298.617 365.096 299.538 365.051 300.805H365.133C365.347 300.436 365.648 300.151 366.035 299.95C366.423 299.745 366.878 299.643 367.402 299.643C368.309 299.643 369.016 299.921 369.521 300.477C370.027 301.033 370.28 301.787 370.28 302.739C370.28 303.787 369.986 304.617 369.398 305.228C368.815 305.834 368.018 306.137 367.006 306.137C366.29 306.137 365.668 305.966 365.14 305.624C364.611 305.278 364.203 304.776 363.916 304.12C363.633 303.459 363.492 302.666 363.492 301.741ZM366.979 304.811C367.53 304.811 367.954 304.633 368.25 304.277C368.551 303.922 368.701 303.414 368.701 302.753C368.701 302.179 368.56 301.728 368.277 301.399C367.999 301.071 367.58 300.907 367.02 300.907C366.673 300.907 366.354 300.982 366.062 301.133C365.771 301.279 365.541 301.481 365.372 301.741C365.203 301.996 365.119 302.258 365.119 302.527C365.119 303.17 365.292 303.712 365.639 304.154C365.99 304.592 366.436 304.811 366.979 304.811ZM383.638 296.006V302.473C383.638 303.211 383.478 303.858 383.159 304.414C382.845 304.965 382.387 305.392 381.785 305.692C381.188 305.989 380.473 306.137 379.639 306.137C378.399 306.137 377.435 305.809 376.747 305.152C376.059 304.496 375.715 303.594 375.715 302.445V296.006H377.355V302.329C377.355 303.154 377.547 303.762 377.93 304.154C378.312 304.546 378.9 304.742 379.693 304.742C381.234 304.742 382.004 303.933 382.004 302.315V296.006H383.638ZM389.646 306H388.013V297.407H385.073V296.006H392.586V297.407H389.646V306ZM398.376 297.264C397.437 297.264 396.699 297.596 396.161 298.262C395.623 298.927 395.354 299.845 395.354 301.017C395.354 302.243 395.612 303.17 396.127 303.799C396.646 304.428 397.396 304.742 398.376 304.742C398.8 304.742 399.21 304.701 399.606 304.619C400.003 304.533 400.415 304.423 400.844 304.291V305.692C400.06 305.989 399.171 306.137 398.178 306.137C396.715 306.137 395.591 305.695 394.808 304.811C394.024 303.922 393.632 302.653 393.632 301.003C393.632 299.964 393.821 299.055 394.199 298.275C394.582 297.496 395.133 296.899 395.854 296.484C396.574 296.07 397.419 295.862 398.39 295.862C399.41 295.862 400.354 296.076 401.22 296.505L400.632 297.865C400.295 297.706 399.937 297.567 399.559 297.448C399.185 297.325 398.791 297.264 398.376 297.264Z" fill="white"/>
<path d="M57.1309 361V352.434H58.5312V359.799H62.1582V361H57.1309ZM68.8142 358.674C68.8142 359.436 68.5388 360.033 67.988 360.467C67.4373 360.9 66.6775 361.117 65.7087 361.117C64.74 361.117 63.947 360.967 63.3298 360.666V359.342C63.7205 359.525 64.1345 359.67 64.572 359.775C65.0134 359.881 65.4236 359.934 65.8025 359.934C66.3572 359.934 66.7654 359.828 67.0271 359.617C67.2927 359.406 67.4255 359.123 67.4255 358.768C67.4255 358.447 67.3045 358.176 67.0623 357.953C66.8201 357.73 66.3201 357.467 65.5623 357.162C64.781 356.846 64.2302 356.484 63.9099 356.078C63.5896 355.672 63.4295 355.184 63.4295 354.613C63.4295 353.898 63.6834 353.336 64.1912 352.926C64.699 352.516 65.3806 352.311 66.2361 352.311C67.0564 352.311 67.8728 352.49 68.6853 352.85L68.24 353.992C67.4783 353.672 66.7986 353.512 66.2009 353.512C65.7478 353.512 65.4041 353.611 65.1697 353.811C64.9353 354.006 64.8181 354.266 64.8181 354.59C64.8181 354.812 64.865 355.004 64.9587 355.164C65.0525 355.32 65.2068 355.469 65.4216 355.609C65.6365 355.75 66.0232 355.936 66.5818 356.166C67.2107 356.428 67.6716 356.672 67.9646 356.898C68.2576 357.125 68.4724 357.381 68.6091 357.666C68.7459 357.951 68.8142 358.287 68.8142 358.674ZM77.8491 361H76.1323L71.9195 354.174H71.8726L71.9019 354.555C71.9566 355.281 71.9839 355.945 71.9839 356.547V361H70.7124V352.434H72.4116L76.6128 359.225H76.648C76.6402 359.135 76.6245 358.809 76.6011 358.246C76.5777 357.68 76.5659 357.238 76.5659 356.922V352.434H77.8491V361Z" fill="#CCCCCC"/>
<path d="M328.014 352.303C328.014 352.936 327.829 353.465 327.46 353.889C327.091 354.308 326.571 354.59 325.901 354.736V354.791C326.703 354.891 327.305 355.142 327.706 355.543C328.107 355.939 328.308 356.468 328.308 357.129C328.308 358.09 327.968 358.833 327.289 359.357C326.61 359.877 325.644 360.137 324.391 360.137C323.283 360.137 322.349 359.957 321.588 359.597V358.168C322.012 358.378 322.461 358.539 322.935 358.653C323.409 358.767 323.864 358.824 324.302 358.824C325.076 358.824 325.655 358.681 326.038 358.394C326.421 358.106 326.612 357.662 326.612 357.061C326.612 356.527 326.4 356.135 325.977 355.885C325.553 355.634 324.887 355.509 323.98 355.509H323.112V354.203H323.994C325.589 354.203 326.387 353.652 326.387 352.549C326.387 352.12 326.248 351.79 325.97 351.558C325.692 351.325 325.282 351.209 324.739 351.209C324.361 351.209 323.996 351.264 323.646 351.373C323.295 351.478 322.88 351.685 322.401 351.995L321.615 350.874C322.531 350.2 323.595 349.862 324.808 349.862C325.815 349.862 326.601 350.079 327.166 350.512C327.731 350.945 328.014 351.542 328.014 352.303ZM334.344 350.006L330.625 360H329.107L332.833 350.006H334.344ZM335.786 350.006H338.753C340.129 350.006 341.123 350.206 341.733 350.607C342.349 351.008 342.656 351.642 342.656 352.508C342.656 353.091 342.506 353.576 342.205 353.964C341.904 354.351 341.471 354.595 340.906 354.695V354.764C341.608 354.896 342.123 355.158 342.451 355.55C342.784 355.937 342.95 356.464 342.95 357.129C342.95 358.027 342.636 358.731 342.007 359.241C341.382 359.747 340.512 360 339.396 360H335.786V350.006ZM337.42 354.135H338.992C339.676 354.135 340.175 354.028 340.489 353.813C340.804 353.595 340.961 353.226 340.961 352.706C340.961 352.237 340.79 351.897 340.448 351.688C340.111 351.478 339.573 351.373 338.835 351.373H337.42V354.135ZM337.42 355.461V358.626H339.156C339.84 358.626 340.355 358.496 340.701 358.236C341.052 357.972 341.228 357.557 341.228 356.992C341.228 356.473 341.05 356.088 340.694 355.837C340.339 355.586 339.799 355.461 339.074 355.461H337.42ZM350.723 352.303C350.723 352.936 350.538 353.465 350.169 353.889C349.8 354.308 349.28 354.59 348.61 354.736V354.791C349.412 354.891 350.014 355.142 350.415 355.543C350.816 355.939 351.017 356.468 351.017 357.129C351.017 358.09 350.677 358.833 349.998 359.357C349.319 359.877 348.353 360.137 347.1 360.137C345.992 360.137 345.058 359.957 344.297 359.597V358.168C344.721 358.378 345.17 358.539 345.644 358.653C346.118 358.767 346.573 358.824 347.011 358.824C347.785 358.824 348.364 358.681 348.747 358.394C349.13 358.106 349.321 357.662 349.321 357.061C349.321 356.527 349.109 356.135 348.686 355.885C348.262 355.634 347.596 355.509 346.689 355.509H345.821V354.203H346.703C348.298 354.203 349.096 353.652 349.096 352.549C349.096 352.12 348.957 351.79 348.679 351.558C348.401 351.325 347.991 351.209 347.448 351.209C347.07 351.209 346.705 351.264 346.354 351.373C346.004 351.478 345.589 351.685 345.11 351.995L344.324 350.874C345.24 350.2 346.304 349.862 347.517 349.862C348.524 349.862 349.31 350.079 349.875 350.512C350.44 350.945 350.723 351.542 350.723 352.303ZM353.457 360L357.408 351.435H352.213V350.02H359.124V351.141L355.193 360H353.457ZM367.45 357.819H366.104V360H364.538V357.819H359.972V356.582L364.538 349.979H366.104V356.486H367.45V357.819ZM364.538 356.486V353.978C364.538 353.084 364.561 352.353 364.606 351.783H364.552C364.424 352.084 364.224 352.449 363.95 352.877L361.469 356.486H364.538ZM377.15 354.907C377.15 356.557 376.692 357.819 375.776 358.694C374.86 359.565 373.541 360 371.818 360H369.022V350.006H372.112C373.703 350.006 374.94 350.434 375.824 351.291C376.708 352.148 377.15 353.353 377.15 354.907ZM375.428 354.962C375.428 352.569 374.309 351.373 372.071 351.373H370.656V358.626H371.818C374.225 358.626 375.428 357.405 375.428 354.962ZM381.977 349.876C382.924 349.876 383.674 350.095 384.226 350.532C384.777 350.965 385.053 351.546 385.053 352.275C385.053 353.301 384.438 354.117 383.207 354.723C383.991 355.115 384.547 355.527 384.875 355.96C385.208 356.393 385.374 356.876 385.374 357.409C385.374 358.234 385.071 358.895 384.465 359.392C383.859 359.888 383.038 360.137 382.004 360.137C380.919 360.137 380.078 359.904 379.481 359.439C378.884 358.975 378.586 358.316 378.586 357.464C378.586 356.908 378.741 356.409 379.051 355.967C379.365 355.52 379.878 355.124 380.589 354.777C379.978 354.413 379.543 354.028 379.283 353.622C379.023 353.216 378.894 352.761 378.894 352.255C378.894 351.53 379.178 350.954 379.748 350.525C380.318 350.092 381.061 349.876 381.977 349.876ZM380.124 357.409C380.124 357.883 380.29 358.252 380.623 358.517C380.956 358.776 381.407 358.906 381.977 358.906C382.564 358.906 383.02 358.772 383.344 358.503C383.672 358.229 383.836 357.86 383.836 357.396C383.836 357.026 383.686 356.689 383.385 356.384C383.084 356.078 382.628 355.796 382.018 355.536L381.819 355.447C381.218 355.712 380.785 356.003 380.521 356.322C380.256 356.637 380.124 356.999 380.124 357.409ZM381.963 351.113C381.507 351.113 381.14 351.227 380.862 351.455C380.584 351.678 380.445 351.984 380.445 352.371C380.445 352.608 380.495 352.82 380.596 353.007C380.696 353.194 380.842 353.365 381.033 353.52C381.225 353.67 381.548 353.852 382.004 354.066C382.551 353.825 382.936 353.572 383.159 353.308C383.387 353.039 383.501 352.727 383.501 352.371C383.501 351.984 383.36 351.678 383.077 351.455C382.799 351.227 382.428 351.113 381.963 351.113ZM393.728 357.819H392.381V360H390.815V357.819H386.249V356.582L390.815 349.979H392.381V356.486H393.728V357.819ZM390.815 356.486V353.978C390.815 353.084 390.838 352.353 390.884 351.783H390.829C390.701 352.084 390.501 352.449 390.228 352.877L387.746 356.486H390.815ZM397.973 349.876C398.921 349.876 399.67 350.095 400.222 350.532C400.773 350.965 401.049 351.546 401.049 352.275C401.049 353.301 400.434 354.117 399.203 354.723C399.987 355.115 400.543 355.527 400.871 355.96C401.204 356.393 401.37 356.876 401.37 357.409C401.37 358.234 401.067 358.895 400.461 359.392C399.855 359.888 399.035 360.137 398 360.137C396.915 360.137 396.075 359.904 395.478 359.439C394.881 358.975 394.582 358.316 394.582 357.464C394.582 356.908 394.737 356.409 395.047 355.967C395.361 355.52 395.874 355.124 396.585 354.777C395.974 354.413 395.539 354.028 395.279 353.622C395.02 353.216 394.89 352.761 394.89 352.255C394.89 351.53 395.174 350.954 395.744 350.525C396.314 350.092 397.057 349.876 397.973 349.876ZM396.12 357.409C396.12 357.883 396.286 358.252 396.619 358.517C396.952 358.776 397.403 358.906 397.973 358.906C398.561 358.906 399.016 358.772 399.34 358.503C399.668 358.229 399.832 357.86 399.832 357.396C399.832 357.026 399.682 356.689 399.381 356.384C399.08 356.078 398.624 355.796 398.014 355.536L397.815 355.447C397.214 355.712 396.781 356.003 396.517 356.322C396.252 356.637 396.12 356.999 396.12 357.409ZM397.959 351.113C397.503 351.113 397.136 351.227 396.858 351.455C396.58 351.678 396.441 351.984 396.441 352.371C396.441 352.608 396.492 352.82 396.592 353.007C396.692 353.194 396.838 353.365 397.029 353.52C397.221 353.67 397.544 353.852 398 354.066C398.547 353.825 398.932 353.572 399.155 353.308C399.383 353.039 399.497 352.727 399.497 352.371C399.497 351.984 399.356 351.678 399.073 351.455C398.795 351.227 398.424 351.113 397.959 351.113Z" fill="white"/>
<path opacity="0.3" d="M40 130C40 125.582 43.5817 122 48 122H410C414.418 122 418 125.582 418 130V162H40V130Z" fill="#404040"/>
<path d="M96.8027 141.023C96.8027 141.918 96.5098 142.604 95.9238 143.08C95.3379 143.557 94.5039 143.795 93.4219 143.795H92.5312V147H91.1309V138.434H93.5977C94.668 138.434 95.4688 138.652 96 139.09C96.5352 139.527 96.8027 140.172 96.8027 141.023ZM92.5312 142.617H93.2754C93.9941 142.617 94.5215 142.492 94.8574 142.242C95.1934 141.992 95.3613 141.602 95.3613 141.07C95.3613 140.578 95.2109 140.211 94.9102 139.969C94.6094 139.727 94.1406 139.605 93.5039 139.605H92.5312V142.617ZM104.068 147L103.213 144.621H99.9373L99.0994 147H97.6228L100.828 138.398H102.351L105.556 147H104.068ZM102.844 143.414L102.041 141.082C101.982 140.926 101.9 140.68 101.795 140.344C101.693 140.008 101.623 139.762 101.584 139.605C101.478 140.086 101.324 140.611 101.121 141.182L100.347 143.414H102.844ZM108.328 142.418H109.3C109.953 142.418 110.425 142.297 110.718 142.055C111.011 141.812 111.158 141.453 111.158 140.977C111.158 140.492 111 140.145 110.683 139.934C110.367 139.723 109.89 139.617 109.253 139.617H108.328V142.418ZM108.328 143.578V147H106.927V138.434H109.347C110.453 138.434 111.271 138.641 111.802 139.055C112.334 139.469 112.599 140.094 112.599 140.93C112.599 141.996 112.044 142.756 110.935 143.209L113.355 147H111.761L109.71 143.578H108.328ZM119.689 147H114.843V138.434H119.689V139.617H116.243V141.949H119.472V143.121H116.243V145.811H119.689V147ZM128.923 147H127.206L122.993 140.174H122.946L122.976 140.555C123.03 141.281 123.058 141.945 123.058 142.547V147H121.786V138.434H123.485L127.687 145.225H127.722C127.714 145.135 127.698 144.809 127.675 144.246C127.651 143.68 127.64 143.238 127.64 142.922V138.434H128.923V147ZM134.384 147H132.983V139.635H130.464V138.434H136.903V139.635H134.384V147Z" fill="#CCCCCC"/>
<path d="M57.5 147.5H78" stroke="#00E599" stroke-miterlimit="10" stroke-linecap="square"/>
<path d="M74 137.5H66.5C65.4391 137.5 64.4217 137.921 63.6716 138.672C62.9214 139.422 62.5 140.439 62.5 141.5V147.5" stroke="#00E599" stroke-miterlimit="10" stroke-linecap="square"/>
<path d="M74.5 143.5L78.5 147.5L74.5 151.5" stroke="#00E599" stroke-miterlimit="10" stroke-linecap="square"/>
<path d="M70.5 133.5L74.5 137.5L70.5 141.5" stroke="#00E599" stroke-miterlimit="10" stroke-linecap="square"/>
<circle cx="24" cy="34" r="4" fill="#FF4C79"/>
<circle cx="40" cy="34" r="4" fill="#F0F075"/>
<circle cx="56" cy="34" r="4" fill="#00E599"/>
<rect opacity="0.4" x="40" y="58" width="630" height="40" rx="20" fill="#404040"/>
<rect x="116" y="74" width="200" height="8" rx="4" fill="#595959"/>
<path d="M70 78H56M56 78L62 72M56 78L62 84" stroke="#808080"/>
<path d="M82 78H96M96 78L90 72M96 78L90 84" stroke="#808080"/>
<path d="M325.402 38V30.776H326.522V31.952H326.578C326.755 31.5413 327.003 31.2147 327.32 30.972C327.647 30.7293 328.081 30.608 328.622 30.608C329.369 30.608 329.957 30.8507 330.386 31.336C330.825 31.812 331.044 32.4887 331.044 33.366V38H329.924V33.562C329.924 32.2647 329.378 31.616 328.286 31.616C328.062 31.616 327.843 31.644 327.628 31.7C327.423 31.756 327.236 31.84 327.068 31.952C326.9 32.064 326.765 32.2087 326.662 32.386C326.569 32.554 326.522 32.7547 326.522 32.988V38H325.402ZM336.075 38.168C335.58 38.168 335.132 38.0793 334.731 37.902C334.339 37.7247 333.998 37.4727 333.709 37.146C333.429 36.81 333.21 36.4133 333.051 35.956C332.902 35.4893 332.827 34.9667 332.827 34.388C332.827 33.8187 332.902 33.3007 333.051 32.834C333.21 32.3673 333.429 31.9707 333.709 31.644C333.998 31.308 334.339 31.0513 334.731 30.874C335.132 30.6967 335.58 30.608 336.075 30.608C336.56 30.608 336.994 30.6967 337.377 30.874C337.76 31.0513 338.086 31.2987 338.357 31.616C338.628 31.924 338.833 32.2927 338.973 32.722C339.122 33.1513 339.197 33.6227 339.197 34.136V34.668H334.003V35.004C334.003 35.312 334.05 35.6013 334.143 35.872C334.246 36.1333 334.386 36.362 334.563 36.558C334.75 36.754 334.974 36.908 335.235 37.02C335.506 37.132 335.809 37.188 336.145 37.188C336.602 37.188 336.999 37.0807 337.335 36.866C337.68 36.6513 337.946 36.3433 338.133 35.942L338.931 36.516C338.698 37.0107 338.334 37.412 337.839 37.72C337.344 38.0187 336.756 38.168 336.075 38.168ZM336.075 31.546C335.767 31.546 335.487 31.602 335.235 31.714C334.983 31.8167 334.764 31.966 334.577 32.162C334.4 32.358 334.26 32.5913 334.157 32.862C334.054 33.1233 334.003 33.4127 334.003 33.73V33.828H337.993V33.674C337.993 33.03 337.816 32.5167 337.461 32.134C337.116 31.742 336.654 31.546 336.075 31.546ZM343.773 38.168C343.287 38.168 342.844 38.0793 342.443 37.902C342.041 37.7247 341.696 37.4727 341.407 37.146C341.127 36.81 340.907 36.4133 340.749 35.956C340.59 35.4893 340.511 34.9667 340.511 34.388C340.511 33.8187 340.59 33.3007 340.749 32.834C340.907 32.3673 341.127 31.9707 341.407 31.644C341.696 31.308 342.041 31.0513 342.443 30.874C342.844 30.6967 343.287 30.608 343.773 30.608C344.258 30.608 344.697 30.6967 345.089 30.874C345.49 31.0513 345.835 31.308 346.125 31.644C346.414 31.9707 346.638 32.3673 346.797 32.834C346.955 33.3007 347.035 33.8187 347.035 34.388C347.035 34.9667 346.955 35.4893 346.797 35.956C346.638 36.4133 346.414 36.81 346.125 37.146C345.835 37.4727 345.49 37.7247 345.089 37.902C344.697 38.0793 344.258 38.168 343.773 38.168ZM343.773 37.174C344.379 37.174 344.874 36.9873 345.257 36.614C345.639 36.2407 345.831 35.6713 345.831 34.906V33.87C345.831 33.1047 345.639 32.5353 345.257 32.162C344.874 31.7887 344.379 31.602 343.773 31.602C343.166 31.602 342.671 31.7887 342.289 32.162C341.906 32.5353 341.715 33.1047 341.715 33.87V34.906C341.715 35.6713 341.906 36.2407 342.289 36.614C342.671 36.9873 343.166 37.174 343.773 37.174ZM348.877 38V30.776H349.997V31.952H350.053C350.23 31.5413 350.477 31.2147 350.795 30.972C351.121 30.7293 351.555 30.608 352.097 30.608C352.843 30.608 353.431 30.8507 353.861 31.336C354.299 31.812 354.519 32.4887 354.519 33.366V38H353.399V33.562C353.399 32.2647 352.853 31.616 351.761 31.616C351.537 31.616 351.317 31.644 351.103 31.7C350.897 31.756 350.711 31.84 350.543 31.952C350.375 32.064 350.239 32.2087 350.137 32.386C350.043 32.554 349.997 32.7547 349.997 32.988V38H348.877ZM357.548 38.168C357.249 38.168 357.03 38.0933 356.89 37.944C356.759 37.7947 356.694 37.5987 356.694 37.356V37.174C356.694 36.9313 356.759 36.7353 356.89 36.586C357.03 36.4367 357.249 36.362 357.548 36.362C357.846 36.362 358.061 36.4367 358.192 36.586C358.332 36.7353 358.402 36.9313 358.402 37.174V37.356C358.402 37.5987 358.332 37.7947 358.192 37.944C358.061 38.0933 357.846 38.168 357.548 38.168ZM362.039 38C361.647 38 361.348 37.8927 361.143 37.678C360.947 37.454 360.849 37.1647 360.849 36.81V31.756H359.659V30.776H360.331C360.574 30.776 360.737 30.7293 360.821 30.636C360.914 30.5333 360.961 30.3607 360.961 30.118V28.774H361.969V30.776H363.551V31.756H361.969V37.02H363.439V38H362.039ZM368.012 38.168C367.518 38.168 367.07 38.0793 366.668 37.902C366.276 37.7247 365.936 37.4727 365.646 37.146C365.366 36.81 365.147 36.4133 364.988 35.956C364.839 35.4893 364.764 34.9667 364.764 34.388C364.764 33.8187 364.839 33.3007 364.988 32.834C365.147 32.3673 365.366 31.9707 365.646 31.644C365.936 31.308 366.276 31.0513 366.668 30.874C367.07 30.6967 367.518 30.608 368.012 30.608C368.498 30.608 368.932 30.6967 369.314 30.874C369.697 31.0513 370.024 31.2987 370.294 31.616C370.565 31.924 370.77 32.2927 370.91 32.722C371.06 33.1513 371.134 33.6227 371.134 34.136V34.668H365.94V35.004C365.94 35.312 365.987 35.6013 366.08 35.872C366.183 36.1333 366.323 36.362 366.5 36.558C366.687 36.754 366.911 36.908 367.172 37.02C367.443 37.132 367.746 37.188 368.082 37.188C368.54 37.188 368.936 37.0807 369.272 36.866C369.618 36.6513 369.884 36.3433 370.07 35.942L370.868 36.516C370.635 37.0107 370.271 37.412 369.776 37.72C369.282 38.0187 368.694 38.168 368.012 38.168ZM368.012 31.546C367.704 31.546 367.424 31.602 367.172 31.714C366.92 31.8167 366.701 31.966 366.514 32.162C366.337 32.358 366.197 32.5913 366.094 32.862C365.992 33.1233 365.94 33.4127 365.94 33.73V33.828H369.93V33.674C369.93 33.03 369.753 32.5167 369.398 32.134C369.053 31.742 368.591 31.546 368.012 31.546ZM375.668 38.168C375.164 38.168 374.711 38.0793 374.31 37.902C373.909 37.7247 373.568 37.4727 373.288 37.146C373.017 36.8193 372.807 36.4227 372.658 35.956C372.518 35.4893 372.448 34.9667 372.448 34.388C372.448 33.8093 372.518 33.2867 372.658 32.82C372.807 32.3533 373.017 31.9567 373.288 31.63C373.568 31.3033 373.909 31.0513 374.31 30.874C374.711 30.6967 375.164 30.608 375.668 30.608C376.387 30.608 376.961 30.7667 377.39 31.084C377.829 31.392 378.155 31.798 378.37 32.302L377.432 32.778C377.301 32.4047 377.087 32.1153 376.788 31.91C376.489 31.7047 376.116 31.602 375.668 31.602C375.332 31.602 375.038 31.658 374.786 31.77C374.534 31.8727 374.324 32.022 374.156 32.218C373.988 32.4047 373.862 32.6333 373.778 32.904C373.694 33.1653 373.652 33.4547 373.652 33.772V35.004C373.652 35.6387 373.82 36.1613 374.156 36.572C374.501 36.9733 375.005 37.174 375.668 37.174C376.573 37.174 377.227 36.754 377.628 35.914L378.44 36.46C378.207 36.9827 377.857 37.398 377.39 37.706C376.933 38.014 376.359 38.168 375.668 38.168ZM380.021 27.64H381.141V31.952H381.197C381.374 31.5413 381.622 31.2147 381.939 30.972C382.266 30.7293 382.7 30.608 383.241 30.608C383.988 30.608 384.576 30.8507 385.005 31.336C385.444 31.812 385.663 32.4887 385.663 33.366V38H384.543V33.562C384.543 32.2647 383.997 31.616 382.905 31.616C382.681 31.616 382.462 31.644 382.247 31.7C382.042 31.756 381.855 31.84 381.687 31.952C381.519 32.064 381.384 32.2087 381.281 32.386C381.188 32.554 381.141 32.7547 381.141 32.988V38H380.021V27.64Z" fill="#595959"/>
<defs>
<linearGradient id="paint0_linear_10062_18841" x1="355" y1="0" x2="355" y2="420" gradientUnits="userSpaceOnUse">
<stop stop-color="#00E599"/>
<stop offset="0.721429" stop-color="#00E599" stop-opacity="0"/>
</linearGradient>
<clipPath id="clip0_10062_18841">
<rect width="24" height="24" fill="white" transform="translate(466 136)"/>
</clipPath>
<clipPath id="clip1_10062_18841">
<rect width="24" height="24" fill="white" transform="translate(466 288)"/>
</clipPath>
</defs>
</svg>
