<svg width="22" height="22" viewBox="0 0 22 22" fill="none" xmlns="http://www.w3.org/2000/svg">
<g id="screen-enlarge 3">
<g id="Group">
<path id="Vector" d="M6.72121 4.18945C4.90781 5.18897 3.50361 6.79431 2.75432 8.72461C2.00502 10.6549 1.95835 12.7872 2.62247 14.7484" stroke="#00E599" stroke-miterlimit="10" stroke-linecap="round"/>
<path id="Vector_2" d="M3.34183 18.1212C4.31913 18.1212 5.11139 17.3289 5.11139 16.3516C5.11139 15.3743 4.31913 14.582 3.34183 14.582C2.36453 14.582 1.57227 15.3743 1.57227 16.3516C1.57227 17.3289 2.36453 18.1212 3.34183 18.1212Z" stroke="#00E599" stroke-miterlimit="10" stroke-linecap="square"/>
<path id="Vector_3" d="M17.6294 17.7734C16.2643 19.3281 14.3959 20.3532 12.3512 20.6691C10.3066 20.985 8.21593 20.5717 6.44531 19.5014" stroke="#00E599" stroke-miterlimit="10" stroke-linecap="round"/>
<path id="Vector_4" d="M19.8518 12.0882C19.8518 12.0347 19.854 11.9807 19.854 11.9267C19.8535 9.88423 19.1463 7.90483 17.8526 6.32437C16.5588 4.74392 14.758 3.65976 12.7559 3.25586" stroke="#00E599" stroke-miterlimit="10" stroke-linecap="round"/>
<path id="Vector_5" d="M18.6641 18.1212C19.6414 18.1212 20.4337 17.3289 20.4337 16.3516C20.4337 15.3743 19.6414 14.582 18.6641 14.582C17.6868 14.582 16.8945 15.3743 16.8945 16.3516C16.8945 17.3289 17.6868 18.1212 18.6641 18.1212Z" stroke="#00E599" stroke-miterlimit="10" stroke-linecap="square"/>
<path id="Vector_6" d="M11.002 4.84967C11.9793 4.84967 12.7715 4.05741 12.7715 3.08011C12.7715 2.10281 11.9793 1.31055 11.002 1.31055C10.0247 1.31055 9.23242 2.10281 9.23242 3.08011C9.23242 4.05741 10.0247 4.84967 11.002 4.84967Z" stroke="#00E599" stroke-miterlimit="10" stroke-linecap="square"/>
</g>
</g>
</svg>
