<svg width="14" height="14" viewBox="0 0 14 14" fill="none" xmlns="http://www.w3.org/2000/svg">
<path d="M12.2 10.9799C12.2002 10.8512 12.1693 10.7244 12.1099 10.6102C12.0506 10.496 11.9646 10.3978 11.8592 10.3239C10.416 9.3893 8.71793 8.92635 7.00003 8.99914C5.28214 8.92635 3.58409 9.3893 2.14085 10.3239C2.03547 10.3978 1.94946 10.496 1.89013 10.6102C1.8308 10.7244 1.7999 10.8512 1.80005 10.9799V12.9991H12.2V10.9799Z" stroke="currentColor" stroke-linecap="round" stroke-linejoin="round"/>
<path d="M7.00007 6.59998C8.54646 6.59998 9.80006 5.34638 9.80006 3.79999C9.80006 2.2536 8.54646 1 7.00007 1C5.45367 1 4.20007 2.2536 4.20007 3.79999C4.20007 5.34638 5.45367 6.59998 7.00007 6.59998Z" stroke="currentColor" stroke-linecap="round" stroke-linejoin="round"/>
</svg>
