<svg width="144" height="24" viewBox="0 0 144 24" fill="none" xmlns="http://www.w3.org/2000/svg">
<rect width="144" height="24" fill="#FBD0D7"/>
<path d="M8.57109 17H1.68309V15.292L4.81909 12.618C5.34176 12.17 5.72909 11.764 5.98109 11.4C6.23309 11.0267 6.35909 10.63 6.35909 10.21V10.07C6.35909 9.60333 6.22843 9.24867 5.96709 9.006C5.70576 8.76333 5.34176 8.642 4.87509 8.642C4.36176 8.642 3.96976 8.782 3.69909 9.062C3.42843 9.342 3.23243 9.68733 3.11109 10.098L1.51509 9.496C1.61776 9.17867 1.76243 8.87533 1.94909 8.586C2.14509 8.28733 2.38309 8.026 2.66309 7.802C2.95243 7.578 3.29309 7.40067 3.68509 7.27C4.07709 7.13 4.52509 7.06 5.02909 7.06C5.55176 7.06 6.01376 7.13467 6.41509 7.284C6.82576 7.424 7.17109 7.62467 7.45109 7.886C7.73109 8.138 7.94109 8.44133 8.08109 8.796C8.23043 9.15067 8.30509 9.538 8.30509 9.958C8.30509 10.3593 8.23976 10.728 8.10909 11.064C7.98776 11.4 7.81509 11.722 7.59109 12.03C7.36709 12.3287 7.10109 12.618 6.79309 12.898C6.49443 13.178 6.16776 13.458 5.81309 13.738L3.68509 15.46H8.57109V17ZM13.0736 11.176C13.6616 11.176 14.091 11.0593 14.3616 10.826C14.6416 10.5927 14.7816 10.2987 14.7816 9.944V9.846C14.7816 9.44467 14.6463 9.132 14.3756 8.908C14.1143 8.684 13.7503 8.572 13.2836 8.572C12.8356 8.572 12.4436 8.67467 12.1076 8.88C11.7716 9.08533 11.4823 9.37467 11.2396 9.748L10.0496 8.684C10.2176 8.46 10.4043 8.25 10.6096 8.054C10.8243 7.84867 11.0623 7.676 11.3236 7.536C11.5943 7.38667 11.893 7.27 12.2196 7.186C12.5463 7.102 12.9196 7.06 13.3396 7.06C13.8343 7.06 14.287 7.12067 14.6976 7.242C15.1176 7.354 15.4723 7.522 15.7616 7.746C16.0603 7.97 16.289 8.24067 16.4476 8.558C16.6156 8.866 16.6996 9.216 16.6996 9.608C16.6996 9.916 16.6483 10.196 16.5456 10.448C16.443 10.7 16.303 10.9193 16.1256 11.106C15.9576 11.2927 15.757 11.4467 15.5236 11.568C15.2996 11.6893 15.057 11.778 14.7956 11.834V11.904C15.085 11.96 15.3556 12.0533 15.6076 12.184C15.8596 12.3053 16.079 12.464 16.2656 12.66C16.4523 12.856 16.6016 13.094 16.7136 13.374C16.8256 13.6447 16.8816 13.9527 16.8816 14.298C16.8816 14.7273 16.793 15.1193 16.6156 15.474C16.4383 15.8287 16.1863 16.132 15.8596 16.384C15.5423 16.636 15.155 16.832 14.6976 16.972C14.2496 17.1027 13.7456 17.168 13.1856 17.168C12.719 17.168 12.3036 17.1167 11.9396 17.014C11.5756 16.9207 11.2536 16.79 10.9736 16.622C10.6936 16.454 10.451 16.2627 10.2456 16.048C10.0403 15.824 9.85829 15.5953 9.69963 15.362L11.0576 14.312C11.291 14.704 11.5663 15.026 11.8836 15.278C12.2103 15.53 12.6536 15.656 13.2136 15.656C13.7736 15.656 14.203 15.53 14.5016 15.278C14.8096 15.0167 14.9636 14.6573 14.9636 14.2V14.088C14.9636 13.64 14.8003 13.2993 14.4736 13.066C14.147 12.8233 13.685 12.702 13.0876 12.702H12.1076V11.176H13.0736ZM22.1122 17.168C20.8335 17.168 19.8862 16.7293 19.2702 15.852C18.6635 14.9747 18.3602 13.7287 18.3602 12.114C18.3602 10.5087 18.6635 9.26733 19.2702 8.39C19.8862 7.50333 20.8335 7.06 22.1122 7.06C22.5975 7.06 23.0222 7.12533 23.3862 7.256C23.7595 7.38667 24.0815 7.56867 24.3522 7.802C24.6228 8.026 24.8468 8.30133 25.0242 8.628C25.2015 8.94533 25.3415 9.29533 25.4442 9.678L23.7642 10.154C23.6988 9.93 23.6242 9.72 23.5402 9.524C23.4562 9.328 23.3488 9.16 23.2182 9.02C23.0968 8.87067 22.9428 8.75867 22.7562 8.684C22.5695 8.6 22.3455 8.558 22.0842 8.558C21.4495 8.558 20.9922 8.80067 20.7122 9.286C20.4415 9.77133 20.3062 10.434 20.3062 11.274V12.954C20.3062 13.794 20.4415 14.4567 20.7122 14.942C20.9922 15.4273 21.4495 15.67 22.0842 15.67C22.3455 15.67 22.5695 15.6327 22.7562 15.558C22.9428 15.474 23.0968 15.362 23.2182 15.222C23.3488 15.0727 23.4562 14.9 23.5402 14.704C23.6242 14.508 23.6988 14.298 23.7642 14.074L25.4442 14.55C25.3415 14.9327 25.2015 15.2873 25.0242 15.614C24.8468 15.9313 24.6228 16.2067 24.3522 16.44C24.0815 16.664 23.7595 16.8413 23.3862 16.972C23.0222 17.1027 22.5975 17.168 22.1122 17.168ZM30.2547 17.168C29.62 17.168 29.0694 17.056 28.6027 16.832C28.136 16.5987 27.7487 16.2673 27.4407 15.838C27.142 15.4087 26.918 14.8813 26.7687 14.256C26.6287 13.6307 26.5587 12.9167 26.5587 12.114C26.5587 11.3207 26.6287 10.6113 26.7687 9.986C26.918 9.35133 27.142 8.81933 27.4407 8.39C27.7487 7.96067 28.136 7.634 28.6027 7.41C29.0694 7.17667 29.62 7.06 30.2547 7.06C31.524 7.06 32.4574 7.50333 33.0547 8.39C33.652 9.27667 33.9507 10.518 33.9507 12.114C33.9507 13.71 33.652 14.9513 33.0547 15.838C32.4574 16.7247 31.524 17.168 30.2547 17.168ZM30.2547 15.698C30.9267 15.698 31.398 15.46 31.6687 14.984C31.9487 14.4987 32.0887 13.8313 32.0887 12.982V11.246C32.0887 10.3967 31.9487 9.734 31.6687 9.258C31.398 8.77267 30.9267 8.53 30.2547 8.53C29.5827 8.53 29.1067 8.77267 28.8267 9.258C28.556 9.734 28.4207 10.3967 28.4207 11.246V12.982C28.4207 13.8313 28.556 14.4987 28.8267 14.984C29.1067 15.46 29.5827 15.698 30.2547 15.698ZM30.2547 12.94C29.928 12.94 29.6994 12.8747 29.5687 12.744C29.4474 12.6133 29.3867 12.4547 29.3867 12.268V11.96C29.3867 11.7733 29.4474 11.6147 29.5687 11.484C29.6994 11.3533 29.928 11.288 30.2547 11.288C30.5814 11.288 30.8054 11.3533 30.9267 11.484C31.0574 11.6147 31.1227 11.7733 31.1227 11.96V12.268C31.1227 12.4547 31.0574 12.6133 30.9267 12.744C30.8054 12.8747 30.5814 12.94 30.2547 12.94ZM35.7232 17V15.502H38.4112V8.558H38.2852L36.1572 11.078L35.0092 10.112L37.4312 7.228H40.2452V15.502H42.4572V17H35.7232ZM44.0058 17V7.228H50.3898V8.74H45.8398V11.288H49.9418V12.8H45.8398V17H44.0058ZM53.2683 13.612V11.862H57.6083V13.612H53.2683ZM60.7948 17V7.228H66.9688V8.74H62.6288V11.288H66.8148V12.8H62.6288V15.488H66.9688V17H60.7948ZM69.0493 7.228H72.0873C73.3567 7.228 74.2993 7.648 74.9153 8.488C75.5407 9.328 75.8533 10.5367 75.8533 12.114C75.8533 13.7007 75.5407 14.914 74.9153 15.754C74.2993 16.5847 73.3567 17 72.0873 17H69.0493V7.228ZM71.9613 15.53C72.6333 15.53 73.128 15.3107 73.4453 14.872C73.772 14.4333 73.9353 13.794 73.9353 12.954V11.26C73.9353 10.4293 73.772 9.79467 73.4453 9.356C73.128 8.91733 72.6333 8.698 71.9613 8.698H70.8553V15.53H71.9613ZM78.7599 17L82.2459 8.726H78.7599V10.518H77.1919V7.228H84.0659V8.824L80.6919 17H78.7599ZM85.9784 17V7.228H92.1524V8.74H87.8124V11.288H91.9984V12.8H87.8124V15.488H92.1524V17H85.9784ZM97.4109 17.168C96.8323 17.168 96.3189 17.098 95.8709 16.958C95.4229 16.8087 95.0449 16.608 94.7369 16.356C94.4289 16.104 94.1956 15.8053 94.0369 15.46C93.8783 15.1147 93.7989 14.7367 93.7989 14.326C93.7989 13.682 93.9763 13.164 94.3309 12.772C94.6949 12.38 95.1709 12.1047 95.7589 11.946V11.834C95.2549 11.6567 94.8489 11.3813 94.5409 11.008C94.2423 10.6347 94.0929 10.1633 94.0929 9.594C94.0929 9.22067 94.1676 8.88 94.3169 8.572C94.4663 8.25467 94.6809 7.984 94.9609 7.76C95.2409 7.536 95.5863 7.36333 95.9969 7.242C96.4076 7.12067 96.8789 7.06 97.4109 7.06C97.9429 7.06 98.4143 7.12067 98.8249 7.242C99.2356 7.36333 99.5809 7.536 99.8609 7.76C100.141 7.984 100.356 8.25467 100.505 8.572C100.654 8.88 100.729 9.22067 100.729 9.594C100.729 10.1633 100.575 10.6347 100.267 11.008C99.9683 11.3813 99.5669 11.6567 99.0629 11.834V11.946C99.6509 12.1047 100.122 12.38 100.477 12.772C100.841 13.164 101.023 13.682 101.023 14.326C101.023 14.7367 100.944 15.1147 100.785 15.46C100.626 15.8053 100.393 16.104 100.085 16.356C99.7769 16.608 99.3989 16.8087 98.9509 16.958C98.5029 17.098 97.9896 17.168 97.4109 17.168ZM97.4109 15.74C97.9616 15.74 98.3816 15.6187 98.6709 15.376C98.9696 15.124 99.1189 14.7787 99.1189 14.34V14.06C99.1189 13.612 98.9743 13.2667 98.6849 13.024C98.3956 12.772 97.9709 12.646 97.4109 12.646C96.8509 12.646 96.4263 12.772 96.1369 13.024C95.8476 13.2667 95.7029 13.612 95.7029 14.06V14.34C95.7029 14.7787 95.8476 15.124 96.1369 15.376C96.4356 15.6187 96.8603 15.74 97.4109 15.74ZM97.4109 11.288C97.9243 11.288 98.3163 11.1713 98.5869 10.938C98.8576 10.7047 98.9929 10.3827 98.9929 9.972V9.776C98.9929 9.37467 98.8576 9.062 98.5869 8.838C98.3163 8.60467 97.9243 8.488 97.4109 8.488C96.8976 8.488 96.5056 8.60467 96.2349 8.838C95.9643 9.062 95.8289 9.37467 95.8289 9.776V9.972C95.8289 10.3827 95.9643 10.7047 96.2349 10.938C96.5056 11.1713 96.8976 11.288 97.4109 11.288ZM108.857 8.824H104.377L104.139 12.1H104.251C104.363 11.8947 104.485 11.708 104.615 11.54C104.746 11.3627 104.895 11.2133 105.063 11.092C105.241 10.9707 105.437 10.8773 105.651 10.812C105.875 10.7467 106.132 10.714 106.421 10.714C106.832 10.714 107.219 10.784 107.583 10.924C107.947 11.064 108.265 11.2647 108.535 11.526C108.806 11.7873 109.016 12.1093 109.165 12.492C109.324 12.8747 109.403 13.3087 109.403 13.794C109.403 14.2793 109.319 14.7273 109.151 15.138C108.993 15.5487 108.755 15.908 108.437 16.216C108.129 16.5147 107.747 16.748 107.289 16.916C106.841 17.084 106.323 17.168 105.735 17.168C105.278 17.168 104.867 17.1167 104.503 17.014C104.149 16.9207 103.836 16.79 103.565 16.622C103.295 16.454 103.057 16.2627 102.851 16.048C102.646 15.824 102.469 15.5953 102.319 15.362L103.649 14.312C103.761 14.4987 103.883 14.676 104.013 14.844C104.153 15.0027 104.307 15.1427 104.475 15.264C104.643 15.3853 104.83 15.4833 105.035 15.558C105.25 15.6233 105.493 15.656 105.763 15.656C106.323 15.656 106.748 15.5067 107.037 15.208C107.336 14.9 107.485 14.48 107.485 13.948V13.836C107.485 13.3227 107.336 12.9213 107.037 12.632C106.739 12.3427 106.319 12.198 105.777 12.198C105.367 12.198 105.031 12.2773 104.769 12.436C104.517 12.5853 104.312 12.7487 104.153 12.926L102.655 12.716L103.019 7.228H108.857V8.824Z" fill="white"/>
<circle cx="132" cy="12" r="11" fill="#FBD0D7" stroke="white" stroke-width="2"/>
<circle cx="132" cy="12" r="4" fill="white"/>
</svg>
