<svg width="110" height="24" viewBox="0 0 110 24" fill="none" xmlns="http://www.w3.org/2000/svg">
<rect width="110" height="24" fill="#FBD0D7"/>
<circle cx="12" cy="12" r="11" fill="#FBD0D7" stroke="white" stroke-width="2"/>
<circle cx="12" cy="12" r="4" fill="white"/>
<path d="M40.286 17L39.6 14.522H36.702L36.03 17H34.182L36.926 7.228H39.474L42.232 17H40.286ZM38.214 9.034H38.102L37.024 13.024H39.292L38.214 9.034ZM46.2025 11.176C46.7905 11.176 47.2199 11.0593 47.4905 10.826C47.7705 10.5927 47.9105 10.2987 47.9105 9.944V9.846C47.9105 9.44467 47.7752 9.132 47.5045 8.908C47.2432 8.684 46.8792 8.572 46.4125 8.572C45.9645 8.572 45.5725 8.67467 45.2365 8.88C44.9005 9.08533 44.6112 9.37467 44.3685 9.748L43.1785 8.684C43.3465 8.46 43.5332 8.25 43.7385 8.054C43.9532 7.84867 44.1912 7.676 44.4525 7.536C44.7232 7.38667 45.0219 7.27 45.3485 7.186C45.6752 7.102 46.0485 7.06 46.4685 7.06C46.9632 7.06 47.4159 7.12067 47.8265 7.242C48.2465 7.354 48.6012 7.522 48.8905 7.746C49.1892 7.97 49.4179 8.24067 49.5765 8.558C49.7445 8.866 49.8285 9.216 49.8285 9.608C49.8285 9.916 49.7772 10.196 49.6745 10.448C49.5719 10.7 49.4319 10.9193 49.2545 11.106C49.0865 11.2927 48.8859 11.4467 48.6525 11.568C48.4285 11.6893 48.1859 11.778 47.9245 11.834V11.904C48.2139 11.96 48.4845 12.0533 48.7365 12.184C48.9885 12.3053 49.2079 12.464 49.3945 12.66C49.5812 12.856 49.7305 13.094 49.8425 13.374C49.9545 13.6447 50.0105 13.9527 50.0105 14.298C50.0105 14.7273 49.9219 15.1193 49.7445 15.474C49.5672 15.8287 49.3152 16.132 48.9885 16.384C48.6712 16.636 48.2839 16.832 47.8265 16.972C47.3785 17.1027 46.8745 17.168 46.3145 17.168C45.8479 17.168 45.4325 17.1167 45.0685 17.014C44.7045 16.9207 44.3825 16.79 44.1025 16.622C43.8225 16.454 43.5799 16.2627 43.3745 16.048C43.1692 15.824 42.9872 15.5953 42.8285 15.362L44.1865 14.312C44.4199 14.704 44.6952 15.026 45.0125 15.278C45.3392 15.53 45.7825 15.656 46.3425 15.656C46.9025 15.656 47.3319 15.53 47.6305 15.278C47.9385 15.0167 48.0925 14.6573 48.0925 14.2V14.088C48.0925 13.64 47.9292 13.2993 47.6025 13.066C47.2759 12.8233 46.8139 12.702 46.2165 12.702H45.2365V11.176H46.2025ZM58.4891 17H51.6011V15.292L54.7371 12.618C55.2597 12.17 55.6471 11.764 55.8991 11.4C56.1511 11.0267 56.2771 10.63 56.2771 10.21V10.07C56.2771 9.60333 56.1464 9.24867 55.8851 9.006C55.6237 8.76333 55.2597 8.642 54.7931 8.642C54.2797 8.642 53.8877 8.782 53.6171 9.062C53.3464 9.342 53.1504 9.68733 53.0291 10.098L51.4331 9.496C51.5357 9.17867 51.6804 8.87533 51.8671 8.586C52.0631 8.28733 52.3011 8.026 52.5811 7.802C52.8704 7.578 53.2111 7.40067 53.6031 7.27C53.9951 7.13 54.4431 7.06 54.9471 7.06C55.4697 7.06 55.9317 7.13467 56.3331 7.284C56.7437 7.424 57.0891 7.62467 57.3691 7.886C57.6491 8.138 57.8591 8.44133 57.9991 8.796C58.1484 9.15067 58.2231 9.538 58.2231 9.958C58.2231 10.3593 58.1577 10.728 58.0271 11.064C57.9057 11.4 57.7331 11.722 57.5091 12.03C57.2851 12.3287 57.0191 12.618 56.7111 12.898C56.4124 13.178 56.0857 13.458 55.7311 13.738L53.6031 15.46H58.4891V17ZM61.5216 17L65.0076 8.726H61.5216V10.518H59.9536V7.228H66.8276V8.824L63.4536 17H61.5216ZM69.6081 13.612V11.862H73.9481V13.612H69.6081ZM77.0927 7.228H80.4947C81.4187 7.228 82.128 7.46133 82.6227 7.928C83.1267 8.38533 83.3787 9.01067 83.3787 9.804C83.3787 10.364 83.2387 10.812 82.9587 11.148C82.688 11.484 82.3007 11.7267 81.7967 11.876V11.946C82.3847 12.086 82.8467 12.3427 83.1827 12.716C83.528 13.08 83.7007 13.598 83.7007 14.27C83.7007 14.6807 83.6307 15.054 83.4907 15.39C83.36 15.7167 83.1687 16.0013 82.9167 16.244C82.674 16.4867 82.3753 16.6733 82.0207 16.804C81.6753 16.9347 81.2833 17 80.8447 17H77.0927V7.228ZM80.2847 15.67C80.798 15.67 81.1807 15.5767 81.4327 15.39C81.694 15.194 81.8247 14.8627 81.8247 14.396V13.934C81.8247 13.4767 81.694 13.1547 81.4327 12.968C81.1807 12.772 80.798 12.674 80.2847 12.674H78.8847V15.67H80.2847ZM80.0467 11.4C80.5413 11.4 80.9053 11.3113 81.1387 11.134C81.3813 10.9567 81.5027 10.6487 81.5027 10.21V9.748C81.5027 9.30933 81.3813 9.00133 81.1387 8.824C80.9053 8.64667 80.5413 8.558 80.0467 8.558H78.8847V11.4H80.0467ZM85.3892 7.228H88.4272C89.6965 7.228 90.6392 7.648 91.2552 8.488C91.8805 9.328 92.1932 10.5367 92.1932 12.114C92.1932 13.7007 91.8805 14.914 91.2552 15.754C90.6392 16.5847 89.6965 17 88.4272 17H85.3892V7.228ZM88.3012 15.53C88.9732 15.53 89.4679 15.3107 89.7852 14.872C90.1119 14.4333 90.2752 13.794 90.2752 12.954V11.26C90.2752 10.4293 90.1119 9.79467 89.7852 9.356C89.4679 8.91733 88.9732 8.698 88.3012 8.698H87.1952V15.53H88.3012ZM97.0037 17.168C96.4344 17.168 95.9257 17.0793 95.4777 16.902C95.0391 16.7153 94.6657 16.4587 94.3577 16.132C94.0497 15.796 93.8117 15.3947 93.6437 14.928C93.4851 14.452 93.4057 13.92 93.4057 13.332C93.4057 12.632 93.5131 11.974 93.7277 11.358C93.9424 10.7327 94.2177 10.1633 94.5537 9.65C94.8991 9.12733 95.2817 8.66067 95.7017 8.25C96.1217 7.83933 96.5417 7.49867 96.9617 7.228H99.4537C98.8657 7.63867 98.3384 8.03533 97.8717 8.418C97.4144 8.79133 97.0131 9.174 96.6677 9.566C96.3317 9.958 96.0471 10.3687 95.8137 10.798C95.5897 11.218 95.4217 11.68 95.3097 12.184L95.4217 12.212C95.5151 12.0253 95.6271 11.848 95.7577 11.68C95.8884 11.5027 96.0424 11.3487 96.2197 11.218C96.4064 11.078 96.6164 10.9707 96.8497 10.896C97.0924 10.812 97.3724 10.77 97.6897 10.77C98.1004 10.77 98.4831 10.84 98.8377 10.98C99.1924 11.12 99.4957 11.3253 99.7477 11.596C100.009 11.8573 100.214 12.1747 100.364 12.548C100.513 12.9213 100.588 13.3413 100.588 13.808C100.588 14.3027 100.504 14.7553 100.336 15.166C100.168 15.5767 99.9251 15.9313 99.6077 16.23C99.2997 16.5287 98.9217 16.762 98.4737 16.93C98.0351 17.0887 97.5451 17.168 97.0037 17.168ZM96.9897 15.726C97.5497 15.726 97.9744 15.5813 98.2637 15.292C98.5531 14.9933 98.6977 14.5733 98.6977 14.032V13.864C98.6977 13.3227 98.5484 12.9073 98.2497 12.618C97.9604 12.3287 97.5404 12.184 96.9897 12.184C96.4577 12.184 96.0424 12.3287 95.7437 12.618C95.4451 12.9073 95.2957 13.3227 95.2957 13.864V14.032C95.2957 14.5733 95.4404 14.9933 95.7297 15.292C96.0191 15.5813 96.4391 15.726 96.9897 15.726ZM108.856 17H101.968V15.292L105.104 12.618C105.627 12.17 106.014 11.764 106.266 11.4C106.518 11.0267 106.644 10.63 106.644 10.21V10.07C106.644 9.60333 106.514 9.24867 106.252 9.006C105.991 8.76333 105.627 8.642 105.16 8.642C104.647 8.642 104.255 8.782 103.984 9.062C103.714 9.342 103.518 9.68733 103.396 10.098L101.8 9.496C101.903 9.17867 102.048 8.87533 102.234 8.586C102.43 8.28733 102.668 8.026 102.948 7.802C103.238 7.578 103.578 7.40067 103.97 7.27C104.362 7.13 104.81 7.06 105.314 7.06C105.837 7.06 106.299 7.13467 106.7 7.284C107.111 7.424 107.456 7.62467 107.736 7.886C108.016 8.138 108.226 8.44133 108.366 8.796C108.516 9.15067 108.59 9.538 108.59 9.958C108.59 10.3593 108.525 10.728 108.394 11.064C108.273 11.4 108.1 11.722 107.876 12.03C107.652 12.3287 107.386 12.618 107.078 12.898C106.78 13.178 106.453 13.458 106.098 13.738L103.97 15.46H108.856V17Z" fill="white"/>
</svg>
