<svg width="260" height="400" viewBox="0 0 260 400" fill="none" xmlns="http://www.w3.org/2000/svg">
<rect x="28" y="190" width="196" height="10" rx="5" fill="#262626"/>
<rect x="28" y="190" width="112" height="10" rx="5" fill="#00E699"/>
<circle cx="132" cy="195" r="13.5" fill="white" stroke="#1A1A1A" stroke-width="3"/>
<circle cx="132" cy="195" r="5" fill="#CCCCCC"/>
<rect x="28" y="234" width="196" height="10" rx="5" fill="#262626"/>
<rect x="28" y="234" width="162" height="10" rx="5" fill="#00E699"/>
<circle cx="182" cy="239" r="13.5" fill="white" stroke="#1A1A1A" stroke-width="3"/>
<circle cx="182" cy="239" r="5" fill="#CCCCCC"/>
<rect x="28" y="278" width="196" height="10" rx="5" fill="#262626"/>
<rect x="28" y="278" width="72" height="10" rx="5" fill="#00E699"/>
<circle cx="92" cy="283" r="13.5" fill="white" stroke="#1A1A1A" stroke-width="3"/>
<circle cx="92" cy="283" r="5" fill="#CCCCCC"/>
<path d="M29.232 41V29.832H36.832V31.992H31.664V34.28H36.096V36.424H31.664V38.84H36.832V41H29.232ZM43.1588 35.72L42.0868 33.48H42.0388V41H39.7508V29.832H42.4068L45.4628 35.112L46.5348 37.352H46.5828V29.832H48.8708V41H46.2148L43.1588 35.72ZM56.7849 31.992V41H54.3529V31.992H51.3289V29.832H59.8089V31.992H56.7849ZM62.2726 41V29.832H69.8726V31.992H64.7046V34.28H69.1366V36.424H64.7046V38.84H69.8726V41H62.2726ZM75.2234 41H72.7914V29.832H78.0874C78.5994 29.832 79.0634 29.9173 79.4794 30.088C79.8954 30.2587 80.2474 30.504 80.5354 30.824C80.834 31.1333 81.0634 31.5067 81.2234 31.944C81.3834 32.3813 81.4634 32.8667 81.4634 33.4C81.4634 34.1573 81.2927 34.8187 80.9514 35.384C80.6207 35.9493 80.114 36.36 79.4314 36.616L81.6234 41H78.9194L76.9674 36.904H75.2234V41ZM77.7834 34.856C78.146 34.856 78.4287 34.7653 78.6314 34.584C78.8447 34.392 78.9514 34.1147 78.9514 33.752V33.048C78.9514 32.6853 78.8447 32.4133 78.6314 32.232C78.4287 32.04 78.146 31.944 77.7834 31.944H75.2234V34.856H77.7834ZM84.3726 41V29.832H89.6526C90.1753 29.832 90.6446 29.9227 91.0606 30.104C91.4766 30.2747 91.8286 30.5147 92.1166 30.824C92.4153 31.1333 92.6446 31.512 92.8046 31.96C92.9646 32.3973 93.0446 32.8773 93.0446 33.4C93.0446 33.9333 92.9646 34.4187 92.8046 34.856C92.6446 35.2933 92.4153 35.6667 92.1166 35.976C91.8286 36.2853 91.4766 36.5307 91.0606 36.712C90.6446 36.8827 90.1753 36.968 89.6526 36.968H86.8046V41H84.3726ZM86.8046 34.856H89.3646C89.7273 34.856 90.01 34.7653 90.2126 34.584C90.426 34.392 90.5326 34.1147 90.5326 33.752V33.048C90.5326 32.6853 90.426 32.4133 90.2126 32.232C90.01 32.04 89.7273 31.944 89.3646 31.944H86.8046V34.856ZM98.1046 41H95.6726V29.832H100.969C101.481 29.832 101.945 29.9173 102.361 30.088C102.777 30.2587 103.129 30.504 103.417 30.824C103.715 31.1333 103.945 31.5067 104.105 31.944C104.265 32.3813 104.345 32.8667 104.345 33.4C104.345 34.1573 104.174 34.8187 103.833 35.384C103.502 35.9493 102.995 36.36 102.313 36.616L104.505 41H101.801L99.8486 36.904H98.1046V41ZM100.665 34.856C101.027 34.856 101.31 34.7653 101.513 34.584C101.726 34.392 101.833 34.1147 101.833 33.752V33.048C101.833 32.6853 101.726 32.4133 101.513 32.232C101.31 32.04 101.027 31.944 100.665 31.944H98.1046V34.856H100.665ZM106.822 41V39.064H108.262V31.768H106.822V29.832H112.134V31.768H110.694V39.064H112.134V41H106.822ZM118.576 41.192C117.595 41.192 116.763 41.0267 116.08 40.696C115.397 40.3547 114.816 39.9173 114.336 39.384L115.936 37.768C116.693 38.6213 117.627 39.048 118.736 39.048C119.333 39.048 119.776 38.9253 120.064 38.68C120.352 38.4347 120.496 38.1093 120.496 37.704C120.496 37.3947 120.411 37.1387 120.24 36.936C120.069 36.7227 119.723 36.5787 119.2 36.504L118.096 36.36C116.912 36.2107 116.043 35.8533 115.488 35.288C114.944 34.7227 114.672 33.9707 114.672 33.032C114.672 32.5307 114.768 32.072 114.96 31.656C115.152 31.24 115.424 30.8827 115.776 30.584C116.139 30.2853 116.576 30.056 117.088 29.896C117.611 29.7253 118.203 29.64 118.864 29.64C119.707 29.64 120.448 29.7733 121.088 30.04C121.728 30.3067 122.277 30.696 122.736 31.208L121.12 32.84C120.853 32.5307 120.528 32.28 120.144 32.088C119.771 31.8853 119.296 31.784 118.72 31.784C118.176 31.784 117.771 31.88 117.504 32.072C117.237 32.264 117.104 32.5307 117.104 32.872C117.104 33.256 117.205 33.5333 117.408 33.704C117.621 33.8747 117.963 33.9973 118.432 34.072L119.536 34.248C120.688 34.4293 121.541 34.7867 122.096 35.32C122.651 35.8427 122.928 36.5893 122.928 37.56C122.928 38.0933 122.832 38.584 122.64 39.032C122.448 39.48 122.165 39.864 121.792 40.184C121.429 40.504 120.976 40.7547 120.432 40.936C119.888 41.1067 119.269 41.192 118.576 41.192ZM125.744 41V29.832H133.344V31.992H128.176V34.28H132.608V36.424H128.176V38.84H133.344V41H125.744Z" fill="white"/>
<path d="M53.152 102.488C56.736 102.488 59.328 101.816 60.928 100.472C62.592 99.064 63.424 97.336 63.424 95.288V94.616C63.424 92.184 62.624 90.232 61.024 88.76C59.488 87.288 57.28 86.552 54.4 86.552C51.712 86.552 49.184 87.256 46.816 88.664C44.448 90.008 42.432 91.96 40.768 94.52L31.744 86.072C33.024 84.408 34.4 82.904 35.872 81.56C37.344 80.152 39.008 78.968 40.864 78.008C42.72 76.984 44.8 76.216 47.104 75.704C49.408 75.128 52 74.84 54.88 74.84C58.464 74.84 61.696 75.256 64.576 76.088C67.52 76.92 70.016 78.136 72.064 79.736C74.176 81.272 75.776 83.128 76.864 85.304C78.016 87.48 78.592 89.912 78.592 92.6C78.592 94.712 78.24 96.632 77.536 98.36C76.896 100.088 75.968 101.592 74.752 102.872C73.6 104.152 72.256 105.208 70.72 106.04C69.184 106.808 67.552 107.352 65.824 107.672V108.248C67.808 108.632 69.632 109.272 71.296 110.168C73.024 111 74.496 112.088 75.712 113.432C76.992 114.776 77.984 116.376 78.688 118.232C79.392 120.024 79.744 122.072 79.744 124.376C79.744 127.384 79.136 130.104 77.92 132.536C76.704 134.968 74.976 137.048 72.736 138.776C70.496 140.504 67.808 141.848 64.672 142.808C61.536 143.704 58.08 144.152 54.304 144.152C50.912 144.152 47.904 143.8 45.28 143.096C42.656 142.392 40.352 141.464 38.368 140.312C36.448 139.096 34.752 137.72 33.28 136.184C31.872 134.648 30.624 133.016 29.536 131.288L40.192 123.032C41.664 125.784 43.456 128.056 45.568 129.848C47.744 131.576 50.656 132.44 54.304 132.44C57.568 132.44 60.096 131.64 61.888 130.04C63.744 128.376 64.672 126.136 64.672 123.32V122.744C64.672 119.992 63.616 117.944 61.504 116.6C59.456 115.192 56.608 114.488 52.96 114.488H46.912V102.488H53.152ZM138.458 143H91.0345V129.848L111.675 112.184C113.531 110.584 115.099 109.144 116.379 107.864C117.659 106.52 118.683 105.24 119.451 104.024C120.283 102.744 120.859 101.496 121.179 100.28C121.563 99.064 121.755 97.752 121.755 96.344V95C121.755 93.72 121.499 92.6 120.987 91.64C120.475 90.68 119.803 89.88 118.971 89.24C118.139 88.6 117.179 88.12 116.091 87.8C115.067 87.48 114.011 87.32 112.923 87.32C111.323 87.32 109.915 87.576 108.699 88.088C107.547 88.6 106.523 89.304 105.627 90.2C104.795 91.032 104.091 92.024 103.515 93.176C102.939 94.264 102.491 95.448 102.171 96.728L89.5945 91.928C90.3625 89.624 91.4185 87.448 92.7625 85.4C94.1065 83.288 95.7705 81.464 97.7545 79.928C99.8025 78.328 102.203 77.08 104.955 76.184C107.707 75.288 110.811 74.84 114.267 74.84C117.915 74.84 121.147 75.352 123.963 76.376C126.779 77.4 129.147 78.808 131.067 80.6C133.051 82.392 134.555 84.536 135.579 87.032C136.603 89.464 137.115 92.12 137.115 95C137.115 97.88 136.635 100.504 135.675 102.872C134.715 105.24 133.403 107.48 131.739 109.592C130.139 111.64 128.251 113.592 126.075 115.448C123.899 117.304 121.627 119.192 119.259 121.112L106.779 130.904H138.458V143Z" fill="white"/>
<path d="M164.12 143C162.067 143 160.507 142.48 159.44 141.44C158.4 140.4 157.88 138.88 157.88 136.88V126.6H154.92V122H156.4C157.2 122 157.747 121.813 158.04 121.44C158.333 121.04 158.48 120.48 158.48 119.76V116.32H163.8V122H167.96V126.6H163.8V138.4H167.64V143H164.12ZM172.073 113.4H177.993V125.52H178.193C178.486 124.347 179.153 123.387 180.193 122.64C181.259 121.893 182.473 121.52 183.833 121.52C186.499 121.52 188.513 122.453 189.872 124.32C191.232 126.187 191.912 128.907 191.912 132.48C191.912 136.053 191.232 138.787 189.872 140.68C188.513 142.547 186.499 143.48 183.833 143.48C183.139 143.48 182.486 143.373 181.873 143.16C181.259 142.973 180.699 142.707 180.193 142.36C179.713 141.987 179.299 141.56 178.953 141.08C178.606 140.573 178.353 140.04 178.193 139.48H177.993V143H172.073V113.4ZM181.873 138.68C182.993 138.68 183.913 138.293 184.633 137.52C185.379 136.72 185.753 135.653 185.753 134.32V130.68C185.753 129.347 185.379 128.293 184.633 127.52C183.913 126.72 182.993 126.32 181.873 126.32C180.753 126.32 179.819 126.6 179.073 127.16C178.353 127.693 177.993 128.44 177.993 129.4V135.6C177.993 136.56 178.353 137.32 179.073 137.88C179.819 138.413 180.753 138.68 181.873 138.68Z" fill="white"/>
</svg>
