<svg width="260" height="400" viewBox="0 0 260 400" fill="none" xmlns="http://www.w3.org/2000/svg">
<mask id="path-1-inside-1_112_809" fill="white">
<rect width="260" height="400" rx="4"/>
</mask>
<rect width="260" height="400" rx="4" stroke="#1A1A1A" stroke-width="12" mask="url(#path-1-inside-1_112_809)"/>
<mask id="mask0_112_809" style="mask-type:alpha" maskUnits="userSpaceOnUse" x="6" y="6" width="248" height="388">
<rect x="6" y="6" width="248" height="388" rx="1" fill="#00E699"/>
</mask>
<g mask="url(#mask0_112_809)">
<path d="M57.184 145.152C53.216 145.152 49.664 144.544 46.528 143.328C43.392 142.048 40.736 140.256 38.56 137.952C36.448 135.584 34.816 132.768 33.664 129.504C32.576 126.24 32.032 122.592 32.032 118.56C32.032 113.888 32.736 109.472 34.144 105.312C35.616 101.088 37.472 97.216 39.712 93.696C42.016 90.112 44.576 86.912 47.392 84.096C50.272 81.28 53.152 78.912 56.032 76.992H75.904C71.808 79.936 68.128 82.752 64.864 85.44C61.6 88.064 58.752 90.72 56.32 93.408C53.952 96.096 51.968 98.848 50.368 101.664C48.832 104.416 47.744 107.392 47.104 110.592L47.968 110.88C48.544 109.6 49.216 108.352 49.984 107.136C50.816 105.92 51.808 104.864 52.96 103.968C54.176 103.008 55.584 102.24 57.184 101.664C58.784 101.088 60.64 100.8 62.752 100.8C65.504 100.8 68.064 101.312 70.432 102.336C72.864 103.296 74.944 104.672 76.672 106.464C78.464 108.256 79.84 110.464 80.8 113.088C81.824 115.648 82.336 118.496 82.336 121.632C82.336 125.088 81.728 128.256 80.512 131.136C79.36 134.016 77.664 136.512 75.424 138.624C73.248 140.672 70.624 142.272 67.552 143.424C64.48 144.576 61.024 145.152 57.184 145.152ZM57.184 133.92C60.384 133.92 62.88 133.056 64.672 131.328C66.464 129.536 67.36 127.008 67.36 123.744V122.016C67.36 118.752 66.464 116.256 64.672 114.528C62.88 112.736 60.384 111.84 57.184 111.84C53.984 111.84 51.488 112.736 49.696 114.528C47.904 116.256 47.008 118.752 47.008 122.016V123.744C47.008 127.008 47.904 129.536 49.696 131.328C51.488 133.056 53.984 133.92 57.184 133.92ZM117.915 144V131.136H88.4425V118.848L114.555 76.992H131.643V120H140.091V131.136H131.643V144H117.915ZM99.9625 120H117.915V91.872H116.955L99.9625 120Z" fill="#1A1A1A"/>
<path d="M156.76 144V123H162.68V126.56H162.92C163.293 125.44 163.933 124.493 164.84 123.72C165.747 122.92 166.987 122.52 168.56 122.52C170 122.52 171.227 122.88 172.24 123.6C173.253 124.32 173.987 125.373 174.44 126.76H174.56C174.747 126.173 175.027 125.627 175.4 125.12C175.8 124.587 176.28 124.133 176.84 123.76C177.4 123.387 178.027 123.093 178.72 122.88C179.413 122.64 180.16 122.52 180.96 122.52C182.987 122.52 184.533 123.24 185.6 124.68C186.693 126.12 187.24 128.173 187.24 130.84V144H181.32V131.32C181.32 128.653 180.36 127.32 178.44 127.32C177.56 127.32 176.76 127.573 176.04 128.08C175.32 128.587 174.96 129.36 174.96 130.4V144H169.04V131.32C169.04 128.653 168.08 127.32 166.16 127.32C165.733 127.32 165.307 127.387 164.88 127.52C164.48 127.627 164.107 127.813 163.76 128.08C163.44 128.347 163.173 128.68 162.96 129.08C162.773 129.453 162.68 129.893 162.68 130.4V144H156.76ZM192.502 114.4H198.422V126.52H198.622C198.916 125.347 199.582 124.387 200.622 123.64C201.689 122.893 202.902 122.52 204.262 122.52C206.929 122.52 208.942 123.453 210.302 125.32C211.662 127.187 212.342 129.907 212.342 133.48C212.342 137.053 211.662 139.787 210.302 141.68C208.942 143.547 206.929 144.48 204.262 144.48C203.569 144.48 202.916 144.373 202.302 144.16C201.689 143.973 201.129 143.707 200.622 143.36C200.142 142.987 199.729 142.56 199.382 142.08C199.036 141.573 198.782 141.04 198.622 140.48H198.422V144H192.502V114.4ZM202.302 139.68C203.422 139.68 204.342 139.293 205.062 138.52C205.809 137.72 206.182 136.653 206.182 135.32V131.68C206.182 130.347 205.809 129.293 205.062 128.52C204.342 127.72 203.422 127.32 202.302 127.32C201.182 127.32 200.249 127.6 199.502 128.16C198.782 128.693 198.422 129.44 198.422 130.4V136.6C198.422 137.56 198.782 138.32 199.502 138.88C200.249 139.413 201.182 139.68 202.302 139.68Z" fill="#1A1A1A"/>
<path d="M32.848 42.192C31.8667 42.192 31.0347 42.0267 30.352 41.696C29.6693 41.3547 29.088 40.9173 28.608 40.384L30.208 38.768C30.9653 39.6213 31.8987 40.048 33.008 40.048C33.6053 40.048 34.048 39.9253 34.336 39.68C34.624 39.4347 34.768 39.1093 34.768 38.704C34.768 38.3947 34.6827 38.1387 34.512 37.936C34.3413 37.7227 33.9947 37.5787 33.472 37.504L32.368 37.36C31.184 37.2107 30.3147 36.8533 29.76 36.288C29.216 35.7227 28.944 34.9707 28.944 34.032C28.944 33.5307 29.04 33.072 29.232 32.656C29.424 32.24 29.696 31.8827 30.048 31.584C30.4107 31.2853 30.848 31.056 31.36 30.896C31.8827 30.7253 32.4747 30.64 33.136 30.64C33.9787 30.64 34.72 30.7733 35.36 31.04C36 31.3067 36.5493 31.696 37.008 32.208L35.392 33.84C35.1253 33.5307 34.8 33.28 34.416 33.088C34.0427 32.8853 33.568 32.784 32.992 32.784C32.448 32.784 32.0427 32.88 31.776 33.072C31.5093 33.264 31.376 33.5307 31.376 33.872C31.376 34.256 31.4773 34.5333 31.68 34.704C31.8933 34.8747 32.2347 34.9973 32.704 35.072L33.808 35.248C34.96 35.4293 35.8133 35.7867 36.368 36.32C36.9227 36.8427 37.2 37.5893 37.2 38.56C37.2 39.0933 37.104 39.584 36.912 40.032C36.72 40.48 36.4373 40.864 36.064 41.184C35.7013 41.504 35.248 41.7547 34.704 41.936C34.16 42.1067 33.5413 42.192 32.848 42.192ZM39.5844 42V40.064H41.0244V32.768H39.5844V30.832H44.8964V32.768H43.4564V40.064H44.8964V42H39.5844ZM47.7226 30.832H51.9306C52.6666 30.832 53.3386 30.9493 53.9466 31.184C54.5546 31.4187 55.072 31.7707 55.4986 32.24C55.9253 32.6987 56.256 33.28 56.4906 33.984C56.7253 34.6773 56.8426 35.488 56.8426 36.416C56.8426 37.344 56.7253 38.16 56.4906 38.864C56.256 39.5573 55.9253 40.1387 55.4986 40.608C55.072 41.0667 54.5546 41.4133 53.9466 41.648C53.3386 41.8827 52.6666 42 51.9306 42H47.7226V30.832ZM51.9306 39.84C52.656 39.84 53.2266 39.6373 53.6426 39.232C54.0586 38.8267 54.2666 38.176 54.2666 37.28V35.552C54.2666 34.656 54.0586 34.0053 53.6426 33.6C53.2266 33.1947 52.656 32.992 51.9306 32.992H50.1546V39.84H51.9306ZM59.6789 42V30.832H67.2789V32.992H62.1109V35.28H66.5429V37.424H62.1109V39.84H67.2789V42H59.6789ZM74.7789 42V30.832H80.0589C80.5815 30.832 81.0509 30.9227 81.4669 31.104C81.8829 31.2747 82.2349 31.5147 82.5229 31.824C82.8215 32.1333 83.0509 32.512 83.2109 32.96C83.3709 33.3973 83.4509 33.8773 83.4509 34.4C83.4509 34.9333 83.3709 35.4187 83.2109 35.856C83.0509 36.2933 82.8215 36.6667 82.5229 36.976C82.2349 37.2853 81.8829 37.5307 81.4669 37.712C81.0509 37.8827 80.5815 37.968 80.0589 37.968H77.2109V42H74.7789ZM77.2109 35.856H79.7709C80.1335 35.856 80.4162 35.7653 80.6189 35.584C80.8322 35.392 80.9389 35.1147 80.9389 34.752V34.048C80.9389 33.6853 80.8322 33.4133 80.6189 33.232C80.4162 33.04 80.1335 32.944 79.7709 32.944H77.2109V35.856ZM88.5109 42H86.0789V30.832H91.3749C91.8869 30.832 92.3509 30.9173 92.7669 31.088C93.1829 31.2587 93.5349 31.504 93.8229 31.824C94.1215 32.1333 94.3509 32.5067 94.5109 32.944C94.6709 33.3813 94.7509 33.8667 94.7509 34.4C94.7509 35.1573 94.5802 35.8187 94.2389 36.384C93.9082 36.9493 93.4015 37.36 92.7189 37.616L94.9109 42H92.2069L90.2549 37.904H88.5109V42ZM91.0709 35.856C91.4335 35.856 91.7162 35.7653 91.9189 35.584C92.1322 35.392 92.2389 35.1147 92.2389 34.752V34.048C92.2389 33.6853 92.1322 33.4133 91.9189 33.232C91.7162 33.04 91.4335 32.944 91.0709 32.944H88.5109V35.856H91.0709ZM101.984 42.192C101.248 42.192 100.576 42.0693 99.9679 41.824C99.3599 41.5787 98.8425 41.216 98.4159 40.736C97.9892 40.2453 97.6585 39.6427 97.4239 38.928C97.1892 38.2027 97.0719 37.3653 97.0719 36.416C97.0719 35.4667 97.1892 34.6347 97.4239 33.92C97.6585 33.1947 97.9892 32.592 98.4159 32.112C98.8425 31.6213 99.3599 31.2533 99.9679 31.008C100.576 30.7627 101.248 30.64 101.984 30.64C102.72 30.64 103.392 30.7627 104 31.008C104.608 31.2533 105.125 31.6213 105.552 32.112C105.979 32.592 106.309 33.1947 106.544 33.92C106.779 34.6347 106.896 35.4667 106.896 36.416C106.896 37.3653 106.779 38.2027 106.544 38.928C106.309 39.6427 105.979 40.2453 105.552 40.736C105.125 41.216 104.608 41.5787 104 41.824C103.392 42.0693 102.72 42.192 101.984 42.192ZM101.984 40.032C102.72 40.032 103.291 39.792 103.696 39.312C104.112 38.832 104.32 38.144 104.32 37.248V35.584C104.32 34.688 104.112 34 103.696 33.52C103.291 33.04 102.72 32.8 101.984 32.8C101.248 32.8 100.672 33.04 100.256 33.52C99.8505 34 99.6479 34.688 99.6479 35.584V37.248C99.6479 38.144 99.8505 38.832 100.256 39.312C100.672 39.792 101.248 40.032 101.984 40.032ZM115.785 30.832V38.768C115.785 39.28 115.7 39.7493 115.529 40.176C115.369 40.592 115.129 40.9493 114.809 41.248C114.489 41.536 114.1 41.7653 113.641 41.936C113.193 42.096 112.681 42.176 112.105 42.176C111.551 42.176 111.06 42.1013 110.633 41.952C110.217 41.8027 109.855 41.5893 109.545 41.312C109.247 41.0347 109.001 40.704 108.809 40.32C108.617 39.936 108.484 39.5093 108.409 39.04L110.681 38.592C110.863 39.5627 111.327 40.048 112.073 40.048C112.425 40.048 112.724 39.936 112.969 39.712C113.225 39.488 113.353 39.136 113.353 38.656V32.784H109.961V30.832H115.785ZM118.979 42V30.832H126.579V32.992H121.411V35.28H125.843V37.424H121.411V39.84H126.579V42H118.979ZM134.01 42.192C133.252 42.192 132.57 42.0747 131.962 41.84C131.354 41.5947 130.836 41.2373 130.41 40.768C129.983 40.288 129.652 39.696 129.418 38.992C129.183 38.2773 129.066 37.4453 129.066 36.496C129.066 35.5573 129.183 34.7253 129.418 34C129.652 33.264 129.983 32.6507 130.41 32.16C130.836 31.6587 131.354 31.28 131.962 31.024C132.57 30.768 133.252 30.64 134.01 30.64C135.044 30.64 135.898 30.8533 136.57 31.28C137.242 31.696 137.78 32.3573 138.186 33.264L136.09 34.352C135.94 33.8827 135.706 33.5093 135.386 33.232C135.076 32.944 134.618 32.8 134.01 32.8C133.295 32.8 132.719 33.0347 132.282 33.504C131.855 33.9627 131.642 34.6347 131.642 35.52V37.312C131.642 38.1973 131.855 38.8747 132.282 39.344C132.719 39.8027 133.295 40.032 134.01 40.032C134.607 40.032 135.082 39.872 135.434 39.552C135.796 39.2213 136.063 38.8267 136.234 38.368L138.218 39.52C137.802 40.3733 137.252 41.0347 136.57 41.504C135.898 41.9627 135.044 42.192 134.01 42.192ZM145.376 32.992V42H142.944V32.992H139.92V30.832H148.4V32.992H145.376Z" fill="#1A1A1A"/>
</g>
</svg>
