<svg width="260" height="400" viewBox="0 0 260 400" fill="none" xmlns="http://www.w3.org/2000/svg">
<mask id="path-1-inside-1_123_1338" fill="white">
<rect width="260" height="400" rx="4"/>
</mask>
<rect width="260" height="400" rx="4" stroke="#1A1A1A" stroke-width="12" mask="url(#path-1-inside-1_123_1338)"/>
<circle cx="196" cy="336" r="24" fill="#262626"/>
<path fill-rule="evenodd" clip-rule="evenodd" d="M195 326C194.448 326 194 326.448 194 327V334L187 334C186.448 334 186 334.448 186 335V337C186 337.552 186.448 338 187 338H194V345C194 345.552 194.448 346 195 346H197C197.552 346 198 345.552 198 345V338H205C205.552 338 206 337.552 206 337V335C206 334.448 205.552 334 205 334L198 334V327C198 326.448 197.552 326 197 326H195Z" fill="white"/>
<path d="M32.848 42.192C31.8667 42.192 31.0347 42.0267 30.352 41.696C29.6693 41.3547 29.088 40.9173 28.608 40.384L30.208 38.768C30.9653 39.6213 31.8987 40.048 33.008 40.048C33.6053 40.048 34.048 39.9253 34.336 39.68C34.624 39.4347 34.768 39.1093 34.768 38.704C34.768 38.3947 34.6827 38.1387 34.512 37.936C34.3413 37.7227 33.9947 37.5787 33.472 37.504L32.368 37.36C31.184 37.2107 30.3147 36.8533 29.76 36.288C29.216 35.7227 28.944 34.9707 28.944 34.032C28.944 33.5307 29.04 33.072 29.232 32.656C29.424 32.24 29.696 31.8827 30.048 31.584C30.4107 31.2853 30.848 31.056 31.36 30.896C31.8827 30.7253 32.4747 30.64 33.136 30.64C33.9787 30.64 34.72 30.7733 35.36 31.04C36 31.3067 36.5493 31.696 37.008 32.208L35.392 33.84C35.1253 33.5307 34.8 33.28 34.416 33.088C34.0427 32.8853 33.568 32.784 32.992 32.784C32.448 32.784 32.0427 32.88 31.776 33.072C31.5093 33.264 31.376 33.5307 31.376 33.872C31.376 34.256 31.4773 34.5333 31.68 34.704C31.8933 34.8747 32.2347 34.9973 32.704 35.072L33.808 35.248C34.96 35.4293 35.8133 35.7867 36.368 36.32C36.9227 36.8427 37.2 37.5893 37.2 38.56C37.2 39.0933 37.104 39.584 36.912 40.032C36.72 40.48 36.4373 40.864 36.064 41.184C35.7013 41.504 35.248 41.7547 34.704 41.936C34.16 42.1067 33.5413 42.192 32.848 42.192ZM44.2974 32.992V42H41.8654V32.992H38.8414V30.832H47.3214V32.992H44.2974ZM55.6183 42L54.8183 39.344H51.0903L50.2903 42H47.8263L51.5063 30.832H54.5143L58.1463 42H55.6183ZM52.9783 33.04H52.8983L51.6663 37.28H54.2263L52.9783 33.04ZM62.9234 42H60.4914V30.832H65.7874C66.2994 30.832 66.7634 30.9173 67.1794 31.088C67.5954 31.2587 67.9474 31.504 68.2354 31.824C68.534 32.1333 68.7634 32.5067 68.9234 32.944C69.0834 33.3813 69.1634 33.8667 69.1634 34.4C69.1634 35.1573 68.9927 35.8187 68.6514 36.384C68.3207 36.9493 67.814 37.36 67.1314 37.616L69.3234 42H66.6194L64.6674 37.904H62.9234V42ZM65.4834 35.856C65.846 35.856 66.1287 35.7653 66.3314 35.584C66.5447 35.392 66.6514 35.1147 66.6514 34.752V34.048C66.6514 33.6853 66.5447 33.4133 66.3314 33.232C66.1287 33.04 65.846 32.944 65.4834 32.944H62.9234V35.856H65.4834ZM76.338 32.992V42H73.906V32.992H70.882V30.832H79.362V32.992H76.338ZM84.1298 30.832V37.68C84.1298 38.4693 84.2844 39.0613 84.5938 39.456C84.9031 39.84 85.4204 40.032 86.1458 40.032C86.8711 40.032 87.3884 39.84 87.6978 39.456C88.0071 39.0613 88.1618 38.4693 88.1618 37.68V30.832H90.5298V37.424C90.5298 38.2453 90.4498 38.96 90.2898 39.568C90.1404 40.1653 89.8898 40.6613 89.5378 41.056C89.1858 41.44 88.7324 41.728 88.1778 41.92C87.6231 42.1013 86.9458 42.192 86.1458 42.192C85.3458 42.192 84.6684 42.1013 84.1138 41.92C83.5591 41.728 83.1058 41.44 82.7538 41.056C82.4018 40.6613 82.1458 40.1653 81.9858 39.568C81.8364 38.96 81.7618 38.2453 81.7618 37.424V30.832H84.1298ZM93.7351 42V30.832H99.0151C99.5378 30.832 100.007 30.9227 100.423 31.104C100.839 31.2747 101.191 31.5147 101.479 31.824C101.778 32.1333 102.007 32.512 102.167 32.96C102.327 33.3973 102.407 33.8773 102.407 34.4C102.407 34.9333 102.327 35.4187 102.167 35.856C102.007 36.2933 101.778 36.6667 101.479 36.976C101.191 37.2853 100.839 37.5307 100.423 37.712C100.007 37.8827 99.5378 37.968 99.0151 37.968H96.1671V42H93.7351ZM96.1671 35.856H98.7271C99.0898 35.856 99.3725 35.7653 99.5751 35.584C99.7885 35.392 99.8951 35.1147 99.8951 34.752V34.048C99.8951 33.6853 99.7885 33.4133 99.5751 33.232C99.3725 33.04 99.0898 32.944 98.7271 32.944H96.1671V35.856Z" fill="#1A1A1A"/>
<path d="M37.024 144V132.384H55.072V87.456H54.208L40.576 105.312L31.36 98.112L47.392 76.992H69.472V132.384H83.68V144H37.024ZM114.747 145.152C110.779 145.152 107.227 144.544 104.091 143.328C100.955 142.048 98.2985 140.256 96.1225 137.952C94.0105 135.584 92.3785 132.768 91.2265 129.504C90.1385 126.24 89.5945 122.592 89.5945 118.56C89.5945 113.888 90.2985 109.472 91.7065 105.312C93.1785 101.088 95.0345 97.216 97.2745 93.696C99.5785 90.112 102.139 86.912 104.955 84.096C107.835 81.28 110.715 78.912 113.595 76.992H133.467C129.371 79.936 125.691 82.752 122.427 85.44C119.163 88.064 116.315 90.72 113.883 93.408C111.515 96.096 109.531 98.848 107.931 101.664C106.395 104.416 105.307 107.392 104.667 110.592L105.531 110.88C106.107 109.6 106.779 108.352 107.547 107.136C108.379 105.92 109.371 104.864 110.523 103.968C111.739 103.008 113.147 102.24 114.747 101.664C116.347 101.088 118.203 100.8 120.315 100.8C123.067 100.8 125.627 101.312 127.995 102.336C130.427 103.296 132.507 104.672 134.235 106.464C136.027 108.256 137.403 110.464 138.363 113.088C139.387 115.648 139.899 118.496 139.899 121.632C139.899 125.088 139.291 128.256 138.075 131.136C136.923 134.016 135.227 136.512 132.987 138.624C130.811 140.672 128.187 142.272 125.115 143.424C122.043 144.576 118.587 145.152 114.747 145.152ZM114.747 133.92C117.947 133.92 120.443 133.056 122.235 131.328C124.027 129.536 124.923 127.008 124.923 123.744V122.016C124.923 118.752 124.027 116.256 122.235 114.528C120.443 112.736 117.947 111.84 114.747 111.84C111.547 111.84 109.051 112.736 107.259 114.528C105.467 116.256 104.571 118.752 104.571 122.016V123.744C104.571 127.008 105.467 129.536 107.259 131.328C109.051 133.056 111.547 133.92 114.747 133.92Z" fill="#1A1A1A"/>
<path d="M176.2 145.52C176.2 146.64 176 147.627 175.6 148.48C175.227 149.333 174.6 150.053 173.72 150.64C172.84 151.253 171.667 151.707 170.2 152C168.76 152.32 166.973 152.48 164.84 152.48C163.027 152.48 161.48 152.36 160.2 152.12C158.947 151.907 157.92 151.587 157.12 151.16C156.347 150.76 155.773 150.253 155.4 149.64C155.053 149.053 154.88 148.373 154.88 147.6C154.88 146.427 155.227 145.507 155.92 144.84C156.613 144.173 157.573 143.76 158.8 143.6V143.16C157.787 142.973 157.027 142.547 156.52 141.88C156.013 141.187 155.76 140.387 155.76 139.48C155.76 138.92 155.867 138.44 156.08 138.04C156.32 137.613 156.613 137.253 156.96 136.96C157.333 136.64 157.76 136.387 158.24 136.2C158.72 136.013 159.2 135.867 159.68 135.76V135.6C158.4 135.013 157.453 134.213 156.84 133.2C156.227 132.16 155.92 130.96 155.92 129.6C155.92 127.467 156.653 125.76 158.12 124.48C159.613 123.173 161.88 122.52 164.92 122.52C166.307 122.52 167.493 122.653 168.48 122.92V122.12C168.48 121 168.747 120.2 169.28 119.72C169.84 119.213 170.627 118.96 171.64 118.96H174.96V123.36H170.32V123.6C171.547 124.187 172.453 125 173.04 126.04C173.627 127.053 173.92 128.24 173.92 129.6C173.92 131.707 173.173 133.4 171.68 134.68C170.213 135.933 167.96 136.56 164.92 136.56C163.56 136.56 162.32 136.413 161.2 136.12C160.587 136.52 160.28 137.08 160.28 137.8C160.28 138.307 160.467 138.707 160.84 139C161.24 139.267 161.893 139.4 162.8 139.4H168.88C171.44 139.4 173.293 139.933 174.44 141C175.613 142.067 176.2 143.573 176.2 145.52ZM170.64 146.32C170.64 145.707 170.4 145.24 169.92 144.92C169.44 144.6 168.6 144.44 167.4 144.44H160.2C159.933 144.707 159.733 145 159.6 145.32C159.493 145.667 159.44 146 159.44 146.32C159.44 147.093 159.773 147.653 160.44 148C161.107 148.373 162.24 148.56 163.84 148.56H166.24C167.84 148.56 168.973 148.373 169.64 148C170.307 147.653 170.64 147.093 170.64 146.32ZM164.92 132.68C166.093 132.68 166.96 132.44 167.52 131.96C168.107 131.453 168.4 130.733 168.4 129.8V129.32C168.4 128.387 168.107 127.68 167.52 127.2C166.96 126.693 166.093 126.44 164.92 126.44C163.747 126.44 162.867 126.693 162.28 127.2C161.72 127.68 161.44 128.387 161.44 129.32V129.8C161.44 130.733 161.72 131.453 162.28 131.96C162.867 132.44 163.747 132.68 164.92 132.68ZM178.83 114.4H184.75V126.52H184.95C185.244 125.347 185.91 124.387 186.95 123.64C188.017 122.893 189.23 122.52 190.59 122.52C193.257 122.52 195.27 123.453 196.63 125.32C197.99 127.187 198.67 129.907 198.67 133.48C198.67 137.053 197.99 139.787 196.63 141.68C195.27 143.547 193.257 144.48 190.59 144.48C189.897 144.48 189.244 144.373 188.63 144.16C188.017 143.973 187.457 143.707 186.95 143.36C186.47 142.987 186.057 142.56 185.71 142.08C185.364 141.573 185.11 141.04 184.95 140.48H184.75V144H178.83V114.4ZM188.63 139.68C189.75 139.68 190.67 139.293 191.39 138.52C192.137 137.72 192.51 136.653 192.51 135.32V131.68C192.51 130.347 192.137 129.293 191.39 128.52C190.67 127.72 189.75 127.32 188.63 127.32C187.51 127.32 186.577 127.6 185.83 128.16C185.11 128.693 184.75 129.44 184.75 130.4V136.6C184.75 137.56 185.11 138.32 185.83 138.88C186.577 139.413 187.51 139.68 188.63 139.68Z" fill="#1A1A1A"/>
</svg>
