<svg width="316" height="448" viewBox="0 0 316 448" fill="none" xmlns="http://www.w3.org/2000/svg">
<g filter="url(#filter0_d_41_1378)">
<rect x="20" y="10.0001" width="276" height="408" rx="4" fill="#1A1A1A"/>
</g>
<path d="M42.992 44.0001L40.464 32.8321H42.864L43.92 38.1921L44.512 41.2961H44.56L45.264 38.1921L46.496 32.8321H49.152L50.4 38.1921L51.088 41.2961H51.136L51.728 38.1921L52.8 32.8321H55.104L52.512 44.0001H49.744L48.336 37.9521L47.792 35.5041H47.744L47.184 37.9521L45.776 44.0001H42.992ZM57.5945 44.0001V32.8321H65.1945V34.9921H60.0265V37.2801H64.4585V39.4241H60.0265V41.8401H65.1945V44.0001H57.5945ZM68.1133 44.0001V32.8321H75.7133V34.9921H70.5453V37.2801H74.9773V39.4241H70.5453V41.8401H75.7133V44.0001H68.1133ZM82.52 39.1361L81.064 40.8961V44.0001H78.632V32.8321H81.064V38.1441H81.16L82.744 35.9841L85.256 32.8321H88.008L84.248 37.4241L88.344 44.0001H85.48L82.52 39.1361ZM90.5726 44.0001V32.8321H93.0046V41.8401H97.2606V44.0001H90.5726ZM101.171 44.0001V39.6321L97.3471 32.8321H100.067L102.467 37.2801H102.499L104.803 32.8321H107.443L103.619 39.6161V44.0001H101.171ZM114.207 44.0001V32.8321H116.639V41.8401H120.895V44.0001H114.207ZM127.331 44.1921C126.595 44.1921 125.923 44.0695 125.315 43.8241C124.707 43.5788 124.189 43.2161 123.763 42.7361C123.336 42.2455 123.005 41.6428 122.771 40.9281C122.536 40.2028 122.419 39.3655 122.419 38.4161C122.419 37.4668 122.536 36.6348 122.771 35.9201C123.005 35.1948 123.336 34.5921 123.763 34.1121C124.189 33.6215 124.707 33.2535 125.315 33.0081C125.923 32.7628 126.595 32.6401 127.331 32.6401C128.067 32.6401 128.739 32.7628 129.347 33.0081C129.955 33.2535 130.472 33.6215 130.899 34.1121C131.325 34.5921 131.656 35.1948 131.891 35.9201C132.125 36.6348 132.243 37.4668 132.243 38.4161C132.243 39.3655 132.125 40.2028 131.891 40.9281C131.656 41.6428 131.325 42.2455 130.899 42.7361C130.472 43.2161 129.955 43.5788 129.347 43.8241C128.739 44.0695 128.067 44.1921 127.331 44.1921ZM127.331 42.0321C128.067 42.0321 128.637 41.7921 129.043 41.3121C129.459 40.8321 129.667 40.1441 129.667 39.2481V37.5841C129.667 36.6881 129.459 36.0001 129.043 35.5201C128.637 35.0401 128.067 34.8001 127.331 34.8001C126.595 34.8001 126.019 35.0401 125.603 35.5201C125.197 36.0001 124.995 36.6881 124.995 37.5841V39.2481C124.995 40.1441 125.197 40.8321 125.603 41.3121C126.019 41.7921 126.595 42.0321 127.331 42.0321ZM141.468 44.0001L140.668 41.3441H136.94L136.14 44.0001H133.676L137.356 32.8321H140.364L143.996 44.0001H141.468ZM138.828 35.0401H138.748L137.516 39.2801H140.076L138.828 35.0401ZM146.341 32.8321H150.549C151.285 32.8321 151.957 32.9495 152.565 33.1841C153.173 33.4188 153.691 33.7708 154.117 34.2401C154.544 34.6988 154.875 35.2801 155.109 35.9841C155.344 36.6775 155.461 37.4881 155.461 38.4161C155.461 39.3441 155.344 40.1601 155.109 40.8641C154.875 41.5575 154.544 42.1388 154.117 42.6081C153.691 43.0668 153.173 43.4135 152.565 43.6481C151.957 43.8828 151.285 44.0001 150.549 44.0001H146.341V32.8321ZM150.549 41.8401C151.275 41.8401 151.845 41.6375 152.261 41.2321C152.677 40.8268 152.885 40.1761 152.885 39.2801V37.5521C152.885 36.6561 152.677 36.0055 152.261 35.6001C151.845 35.1948 151.275 34.9921 150.549 34.9921H148.773V41.8401H150.549Z" fill="white"/>
<path d="M56 66.0001V172" stroke="url(#paint0_linear_41_1378)" stroke-width="2"/>
<path d="M90 66.0001V172" stroke="url(#paint1_linear_41_1378)" stroke-width="2"/>
<path d="M124 66.0001V172" stroke="url(#paint2_linear_41_1378)" stroke-width="2"/>
<path d="M158 66.0001V172" stroke="url(#paint3_linear_41_1378)" stroke-width="2"/>
<path d="M192 66.0001V172" stroke="url(#paint4_linear_41_1378)" stroke-width="2"/>
<path d="M226 66.0001V172" stroke="url(#paint5_linear_41_1378)" stroke-width="2"/>
<path d="M226 95.0001V171" stroke="#00E699" stroke-width="3" stroke-linecap="round" stroke-dasharray="0.01 10"/>
<path d="M260 66.0001V172" stroke="url(#paint6_linear_41_1378)" stroke-width="2"/>
<ellipse cx="62" cy="325" rx="12" ry="8" fill="white"/>
<circle cx="62" cy="312" r="19" stroke="#1A1A1A" stroke-width="6"/>
<circle cx="62" cy="312" r="20.5" stroke="#F0F075" stroke-width="3"/>
<circle cx="62" cy="306" r="7" fill="white"/>
<ellipse cx="126" cy="325" rx="12" ry="8" fill="white"/>
<circle cx="126" cy="312" r="19" stroke="#1A1A1A" stroke-width="6"/>
<circle cx="126" cy="312" r="20.5" stroke="#F0F075" stroke-width="3"/>
<circle cx="126" cy="306" r="7" fill="white"/>
<ellipse cx="190" cy="325" rx="12" ry="8" fill="white"/>
<circle cx="190" cy="312" r="19" stroke="#1A1A1A" stroke-width="6"/>
<circle cx="190" cy="312" r="20.5" stroke="#F0F075" stroke-width="3"/>
<circle cx="190" cy="306" r="7" fill="white"/>
<ellipse cx="254" cy="325" rx="12" ry="8" fill="white"/>
<circle cx="254" cy="312" r="19" stroke="#1A1A1A" stroke-width="6"/>
<circle cx="254" cy="312" r="20.5" stroke="#F0F075" stroke-width="3"/>
<circle cx="254" cy="306" r="7" fill="white"/>
<ellipse cx="62" cy="261" rx="12" ry="8" fill="white"/>
<circle cx="62" cy="248" r="19" stroke="#1A1A1A" stroke-width="6"/>
<circle cx="62" cy="248" r="20.5" stroke="#F0F075" stroke-width="3"/>
<circle cx="62" cy="242" r="7" fill="white"/>
<ellipse cx="126" cy="261" rx="12" ry="8" fill="white"/>
<circle cx="126" cy="248" r="19" stroke="#1A1A1A" stroke-width="6"/>
<circle cx="126" cy="248" r="20.5" stroke="#F0F075" stroke-width="3"/>
<circle cx="126" cy="242" r="7" fill="white"/>
<ellipse cx="190" cy="261" rx="12" ry="8" fill="white"/>
<circle cx="190" cy="248" r="19" stroke="#1A1A1A" stroke-width="6"/>
<circle cx="190" cy="248" r="20.5" stroke="#F0F075" stroke-width="3"/>
<circle cx="190" cy="242" r="7" fill="white"/>
<ellipse cx="254" cy="261" rx="12" ry="8" fill="white"/>
<circle cx="254" cy="248" r="19" stroke="#1A1A1A" stroke-width="6"/>
<circle cx="254" cy="248" r="20.5" stroke="#F0F075" stroke-width="3"/>
<circle cx="254" cy="242" r="7" fill="white"/>
<ellipse cx="62" cy="389" rx="12" ry="8" fill="white"/>
<circle cx="62" cy="376" r="19" stroke="#1A1A1A" stroke-width="6"/>
<circle cx="62" cy="376" r="20.5" stroke="#F0F075" stroke-width="3"/>
<circle cx="62" cy="370" r="7" fill="white"/>
<ellipse cx="126" cy="389" rx="12" ry="8" fill="white"/>
<circle cx="126" cy="376" r="19" stroke="#1A1A1A" stroke-width="6"/>
<circle cx="126" cy="376" r="20.5" stroke="#F0F075" stroke-width="3"/>
<circle cx="126" cy="370" r="7" fill="white"/>
<ellipse cx="190" cy="389" rx="12" ry="8" fill="#262626"/>
<circle cx="190" cy="376" r="19" stroke="#1A1A1A" stroke-width="6"/>
<circle cx="190" cy="376" r="20.5" stroke="#262626" stroke-width="3"/>
<circle cx="190" cy="370" r="7" fill="#262626"/>
<ellipse cx="254" cy="389" rx="12" ry="8" fill="#262626"/>
<circle cx="254" cy="376" r="19" stroke="#1A1A1A" stroke-width="6"/>
<circle cx="254" cy="376" r="20.5" stroke="#262626" stroke-width="3"/>
<circle cx="254" cy="370" r="7" fill="#262626"/>
<path d="M55.9067 204.168C55.0667 204.168 54.3527 204.019 53.7647 203.72C53.186 203.421 52.6867 203.029 52.2667 202.544L53.5127 201.34C53.8487 201.732 54.222 202.031 54.6327 202.236C55.0527 202.441 55.5147 202.544 56.0187 202.544C56.588 202.544 57.0174 202.423 57.3067 202.18C57.596 201.928 57.7407 201.592 57.7407 201.172C57.7407 200.845 57.6474 200.579 57.4607 200.374C57.274 200.169 56.924 200.019 56.4107 199.926L55.4867 199.786C53.536 199.478 52.5607 198.531 52.5607 196.944C52.5607 196.505 52.64 196.109 52.7987 195.754C52.9667 195.399 53.2047 195.096 53.5127 194.844C53.8207 194.592 54.1894 194.401 54.6187 194.27C55.0574 194.13 55.552 194.06 56.1027 194.06C56.84 194.06 57.484 194.181 58.0347 194.424C58.5854 194.667 59.0567 195.026 59.4487 195.502L58.1887 196.692C57.946 196.393 57.652 196.151 57.3067 195.964C56.9614 195.777 56.5274 195.684 56.0047 195.684C55.4727 195.684 55.0714 195.787 54.8007 195.992C54.5394 196.188 54.4087 196.468 54.4087 196.832C54.4087 197.205 54.516 197.481 54.7307 197.658C54.9454 197.835 55.2907 197.966 55.7667 198.05L56.6767 198.218C57.666 198.395 58.394 198.713 58.8607 199.17C59.3367 199.618 59.5747 200.248 59.5747 201.06C59.5747 201.527 59.4907 201.951 59.3227 202.334C59.164 202.707 58.926 203.034 58.6087 203.314C58.3007 203.585 57.918 203.795 57.4607 203.944C57.0127 204.093 56.4947 204.168 55.9067 204.168Z" fill="white"/>
<path d="M92.8112 196.986H92.7552L91.9992 198.54L89.9972 202.236L87.9952 198.54L87.2392 196.986H87.1832V204H85.4332V194.228H87.5192L90.0252 199.002H90.0812L92.5592 194.228H94.5612V204H92.8112V196.986Z" fill="white"/>
<path d="M124.923 195.866V204H123.075V195.866H120.303V194.228H127.695V195.866H124.923Z" fill="white"/>
<path d="M153.987 204L151.719 194.228H153.567L154.533 198.918L155.135 201.914H155.177L155.877 198.918L156.997 194.228H159.041L160.161 198.918L160.847 201.914H160.889L161.505 198.918L162.499 194.228H164.263L161.925 204H159.839L158.593 198.834L157.991 196.258H157.963L157.333 198.834L156.087 204H153.987Z" fill="white"/>
<path d="M192.923 195.866V204H191.075V195.866H188.303V194.228H195.695V195.866H192.923Z" fill="white"/>
<path d="M223.108 204V194.228H229.394V195.866H224.956V198.232H228.82V199.87H224.956V204H223.108Z" fill="white"/>
<path d="M259.907 204.168C259.067 204.168 258.353 204.019 257.765 203.72C257.186 203.421 256.687 203.029 256.267 202.544L257.513 201.34C257.849 201.732 258.222 202.031 258.633 202.236C259.053 202.441 259.515 202.544 260.019 202.544C260.588 202.544 261.017 202.423 261.307 202.18C261.596 201.928 261.741 201.592 261.741 201.172C261.741 200.845 261.647 200.579 261.461 200.374C261.274 200.169 260.924 200.019 260.411 199.926L259.487 199.786C257.536 199.478 256.561 198.531 256.561 196.944C256.561 196.505 256.64 196.109 256.799 195.754C256.967 195.399 257.205 195.096 257.513 194.844C257.821 194.592 258.189 194.401 258.619 194.27C259.057 194.13 259.552 194.06 260.103 194.06C260.84 194.06 261.484 194.181 262.035 194.424C262.585 194.667 263.057 195.026 263.449 195.502L262.189 196.692C261.946 196.393 261.652 196.151 261.307 195.964C260.961 195.777 260.527 195.684 260.005 195.684C259.473 195.684 259.071 195.787 258.801 195.992C258.539 196.188 258.409 196.468 258.409 196.832C258.409 197.205 258.516 197.481 258.731 197.658C258.945 197.835 259.291 197.966 259.767 198.05L260.677 198.218C261.666 198.395 262.394 198.713 262.861 199.17C263.337 199.618 263.575 200.248 263.575 201.06C263.575 201.527 263.491 201.951 263.323 202.334C263.164 202.707 262.926 203.034 262.609 203.314C262.301 203.585 261.918 203.795 261.461 203.944C261.013 204.093 260.495 204.168 259.907 204.168Z" fill="white"/>
<path d="M56 137C62 141.5 76.0508 155.5 90 155.5C104 155.5 111 143.5 124 143.5C139.5 143 141.5 156 158 156C201 156 197 94.0001 226 94.0001C242.5 94.0001 258 127.5 260 133" stroke="#00E699" stroke-width="6" stroke-linecap="round"/>
<g filter="url(#filter1_d_41_1378)">
<circle cx="226" cy="96.0001" r="12" fill="white"/>
</g>
<circle cx="226" cy="96.0001" r="6" fill="#1A1A1A"/>
<defs>
<filter id="filter0_d_41_1378" x="0" y="0.00012207" width="316" height="448" filterUnits="userSpaceOnUse" color-interpolation-filters="sRGB">
<feFlood flood-opacity="0" result="BackgroundImageFix"/>
<feColorMatrix in="SourceAlpha" type="matrix" values="0 0 0 0 0 0 0 0 0 0 0 0 0 0 0 0 0 0 127 0" result="hardAlpha"/>
<feOffset dy="10"/>
<feGaussianBlur stdDeviation="10"/>
<feComposite in2="hardAlpha" operator="out"/>
<feColorMatrix type="matrix" values="0 0 0 0 0.1 0 0 0 0 0.1 0 0 0 0 0.1 0 0 0 0.4 0"/>
<feBlend mode="normal" in2="BackgroundImageFix" result="effect1_dropShadow_41_1378"/>
<feBlend mode="normal" in="SourceGraphic" in2="effect1_dropShadow_41_1378" result="shape"/>
</filter>
<filter id="filter1_d_41_1378" x="194" y="74.0001" width="64" height="64" filterUnits="userSpaceOnUse" color-interpolation-filters="sRGB">
<feFlood flood-opacity="0" result="BackgroundImageFix"/>
<feColorMatrix in="SourceAlpha" type="matrix" values="0 0 0 0 0 0 0 0 0 0 0 0 0 0 0 0 0 0 127 0" result="hardAlpha"/>
<feOffset dy="10"/>
<feGaussianBlur stdDeviation="10"/>
<feComposite in2="hardAlpha" operator="out"/>
<feColorMatrix type="matrix" values="0 0 0 0 0.1 0 0 0 0 0.1 0 0 0 0 0.1 0 0 0 0.4 0"/>
<feBlend mode="normal" in2="BackgroundImageFix" result="effect1_dropShadow_41_1378"/>
<feBlend mode="normal" in="SourceGraphic" in2="effect1_dropShadow_41_1378" result="shape"/>
</filter>
<linearGradient id="paint0_linear_41_1378" x1="56.5" y1="66.0001" x2="56.5" y2="172" gradientUnits="userSpaceOnUse">
<stop stop-color="#262626" stop-opacity="0"/>
<stop offset="0.119792" stop-color="#262626"/>
<stop offset="0.875" stop-color="#262626"/>
<stop offset="1" stop-color="#262626" stop-opacity="0"/>
</linearGradient>
<linearGradient id="paint1_linear_41_1378" x1="90.5" y1="66.0001" x2="90.5" y2="172" gradientUnits="userSpaceOnUse">
<stop stop-color="#262626" stop-opacity="0"/>
<stop offset="0.119792" stop-color="#262626"/>
<stop offset="0.875" stop-color="#262626"/>
<stop offset="1" stop-color="#262626" stop-opacity="0"/>
</linearGradient>
<linearGradient id="paint2_linear_41_1378" x1="124.5" y1="66.0001" x2="124.5" y2="172" gradientUnits="userSpaceOnUse">
<stop stop-color="#262626" stop-opacity="0"/>
<stop offset="0.119792" stop-color="#262626"/>
<stop offset="0.875" stop-color="#262626"/>
<stop offset="1" stop-color="#262626" stop-opacity="0"/>
</linearGradient>
<linearGradient id="paint3_linear_41_1378" x1="158.5" y1="66.0001" x2="158.5" y2="172" gradientUnits="userSpaceOnUse">
<stop stop-color="#262626" stop-opacity="0"/>
<stop offset="0.119792" stop-color="#262626"/>
<stop offset="0.875" stop-color="#262626"/>
<stop offset="1" stop-color="#262626" stop-opacity="0"/>
</linearGradient>
<linearGradient id="paint4_linear_41_1378" x1="192.5" y1="66.0001" x2="192.5" y2="172" gradientUnits="userSpaceOnUse">
<stop stop-color="#262626" stop-opacity="0"/>
<stop offset="0.119792" stop-color="#262626"/>
<stop offset="0.875" stop-color="#262626"/>
<stop offset="1" stop-color="#262626" stop-opacity="0"/>
</linearGradient>
<linearGradient id="paint5_linear_41_1378" x1="226.5" y1="66.0001" x2="226.5" y2="172" gradientUnits="userSpaceOnUse">
<stop stop-color="#262626" stop-opacity="0"/>
<stop offset="0.119792" stop-color="#262626"/>
<stop offset="0.875" stop-color="#262626"/>
<stop offset="1" stop-color="#262626" stop-opacity="0"/>
</linearGradient>
<linearGradient id="paint6_linear_41_1378" x1="260.5" y1="66.0001" x2="260.5" y2="172" gradientUnits="userSpaceOnUse">
<stop stop-color="#262626" stop-opacity="0"/>
<stop offset="0.119792" stop-color="#262626"/>
<stop offset="0.875" stop-color="#262626"/>
<stop offset="1" stop-color="#262626" stop-opacity="0"/>
</linearGradient>
</defs>
</svg>
