<svg width="151" height="25" viewBox="0 0 151 25" fill="none" xmlns="http://www.w3.org/2000/svg">
<rect width="151" height="24" transform="translate(0 0.00488281)" fill="#F0F075"/>
<path d="M2.58117 17.5049L6.31617 8.63988H2.58117V10.5599H0.901172V7.03488H8.26617V8.74488L4.65117 17.5049H2.58117ZM15.8053 17.5049L15.0703 14.8499H11.9653L11.2453 17.5049H9.26531L12.2053 7.03488H14.9353L17.8903 17.5049H15.8053ZM13.5853 8.96988H13.4653L12.3103 13.2449H14.7403L13.5853 8.96988ZM19.4295 17.5049V15.8999H22.3095V8.45988H22.1745L19.8945 11.1599L18.6645 10.1249L21.2595 7.03488H24.2745V15.8999H26.6445V17.5049H19.4295ZM31.5586 17.6849C30.8786 17.6849 30.2886 17.5649 29.7886 17.3249C29.2886 17.0749 28.8736 16.7199 28.5436 16.2599C28.2236 15.7999 27.9836 15.2349 27.8236 14.5649C27.6736 13.8949 27.5986 13.1299 27.5986 12.2699C27.5986 11.4199 27.6736 10.6599 27.8236 9.98988C27.9836 9.30988 28.2236 8.73988 28.5436 8.27988C28.8736 7.81988 29.2886 7.46988 29.7886 7.22988C30.2886 6.97988 30.8786 6.85488 31.5586 6.85488C32.9186 6.85488 33.9186 7.32988 34.5586 8.27988C35.1986 9.22988 35.5186 10.5599 35.5186 12.2699C35.5186 13.9799 35.1986 15.3099 34.5586 16.2599C33.9186 17.2099 32.9186 17.6849 31.5586 17.6849ZM31.5586 16.1099C32.2786 16.1099 32.7836 15.8549 33.0736 15.3449C33.3736 14.8249 33.5236 14.1099 33.5236 13.1999V11.3399C33.5236 10.4299 33.3736 9.71988 33.0736 9.20988C32.7836 8.68988 32.2786 8.42988 31.5586 8.42988C30.8386 8.42988 30.3286 8.68988 30.0286 9.20988C29.7386 9.71988 29.5936 10.4299 29.5936 11.3399V13.1999C29.5936 14.1099 29.7386 14.8249 30.0286 15.3449C30.3286 15.8549 30.8386 16.1099 31.5586 16.1099ZM31.5586 13.1549C31.2086 13.1549 30.9636 13.0849 30.8236 12.9449C30.6936 12.8049 30.6286 12.6349 30.6286 12.4349V12.1049C30.6286 11.9049 30.6936 11.7349 30.8236 11.5949C30.9636 11.4549 31.2086 11.3849 31.5586 11.3849C31.9086 11.3849 32.1486 11.4549 32.2786 11.5949C32.4186 11.7349 32.4886 11.9049 32.4886 12.1049V12.4349C32.4886 12.6349 32.4186 12.8049 32.2786 12.9449C32.1486 13.0849 31.9086 13.1549 31.5586 13.1549ZM37.4177 17.5049V15.8999H40.2977V8.45988H40.1627L37.8827 11.1599L36.6527 10.1249L39.2477 7.03488H42.2627V15.8999H44.6327V17.5049H37.4177ZM53.2969 17.5049H45.9169V15.6749L49.2769 12.8099C49.8369 12.3299 50.2519 11.8949 50.5219 11.5049C50.7919 11.1049 50.9269 10.6799 50.9269 10.2299V10.0799C50.9269 9.57988 50.7869 9.19988 50.5069 8.93988C50.2269 8.67988 49.8369 8.54988 49.3369 8.54988C48.7869 8.54988 48.3669 8.69988 48.0769 8.99988C47.7869 9.29988 47.5769 9.66988 47.4469 10.1099L45.7369 9.46488C45.8469 9.12488 46.0019 8.79988 46.2019 8.48988C46.4119 8.16988 46.6669 7.88988 46.9669 7.64988C47.2769 7.40988 47.6419 7.21988 48.0619 7.07988C48.4819 6.92988 48.9619 6.85488 49.5019 6.85488C50.0619 6.85488 50.5569 6.93488 50.9869 7.09488C51.4269 7.24488 51.7969 7.45988 52.0969 7.73988C52.3969 8.00988 52.6219 8.33488 52.7719 8.71488C52.9319 9.09488 53.0119 9.50988 53.0119 9.95988C53.0119 10.3899 52.9419 10.7849 52.8019 11.1449C52.6719 11.5049 52.4869 11.8499 52.2469 12.1799C52.0069 12.4999 51.7219 12.8099 51.3919 13.1099C51.0719 13.4099 50.7219 13.7099 50.3419 14.0099L48.0619 15.8549H53.2969V17.5049ZM56.216 13.8749V11.9999H60.866V13.8749H56.216ZM64.1302 7.03488H67.3852C68.7452 7.03488 69.7552 7.48488 70.4152 8.38488C71.0852 9.28488 71.4202 10.5799 71.4202 12.2699C71.4202 13.9699 71.0852 15.2699 70.4152 16.1699C69.7552 17.0599 68.7452 17.5049 67.3852 17.5049H64.1302V7.03488ZM67.2502 15.9299C67.9702 15.9299 68.5002 15.6949 68.8402 15.2249C69.1902 14.7549 69.3652 14.0699 69.3652 13.1699V11.3549C69.3652 10.4649 69.1902 9.78488 68.8402 9.31488C68.5002 8.84488 67.9702 8.60988 67.2502 8.60988H66.0652V15.9299H67.2502ZM77.2943 17.5049V15.4799H72.4493V13.7999L76.7243 7.03488H79.1693V13.9499H80.5793V15.4799H79.1693V17.5049H77.2943ZM74.0543 13.9499H77.2943V8.95488H77.1743L74.0543 13.9499ZM83.5284 17.5049L87.2634 8.63988H83.5284V10.5599H81.8484V7.03488H89.2134V8.74488L85.5984 17.5049H83.5284ZM94.5626 17.6849C93.9526 17.6849 93.4076 17.5899 92.9276 17.3999C92.4576 17.1999 92.0576 16.9249 91.7276 16.5749C91.3976 16.2149 91.1426 15.7849 90.9626 15.2849C90.7926 14.7749 90.7076 14.2049 90.7076 13.5749C90.7076 12.8249 90.8226 12.1199 91.0526 11.4599C91.2826 10.7899 91.5776 10.1799 91.9376 9.62988C92.3076 9.06988 92.7176 8.56988 93.1676 8.12988C93.6176 7.68988 94.0676 7.32488 94.5176 7.03488H97.1876C96.5576 7.47488 95.9926 7.89988 95.4926 8.30988C95.0026 8.70988 94.5726 9.11988 94.2026 9.53988C93.8426 9.95988 93.5376 10.3999 93.2876 10.8599C93.0476 11.3099 92.8676 11.8049 92.7476 12.3449L92.8676 12.3749C92.9676 12.1749 93.0876 11.9849 93.2276 11.8049C93.3676 11.6149 93.5326 11.4499 93.7226 11.3099C93.9226 11.1599 94.1476 11.0449 94.3976 10.9649C94.6576 10.8749 94.9576 10.8299 95.2976 10.8299C95.7376 10.8299 96.1476 10.9049 96.5276 11.0549C96.9076 11.2049 97.2326 11.4249 97.5026 11.7149C97.7826 11.9949 98.0026 12.3349 98.1626 12.7349C98.3226 13.1349 98.4026 13.5849 98.4026 14.0849C98.4026 14.6149 98.3126 15.0999 98.1326 15.5399C97.9526 15.9799 97.6926 16.3599 97.3526 16.6799C97.0226 16.9999 96.6176 17.2499 96.1376 17.4299C95.6676 17.5999 95.1426 17.6849 94.5626 17.6849ZM94.5476 16.1399C95.1476 16.1399 95.6026 15.9849 95.9126 15.6749C96.2226 15.3549 96.3776 14.9049 96.3776 14.3249V14.1449C96.3776 13.5649 96.2176 13.1199 95.8976 12.8099C95.5876 12.4999 95.1376 12.3449 94.5476 12.3449C93.9776 12.3449 93.5326 12.4999 93.2126 12.8099C92.8926 13.1199 92.7326 13.5649 92.7326 14.1449V14.3249C92.7326 14.9049 92.8876 15.3549 93.1976 15.6749C93.5076 15.9849 93.9576 16.1399 94.5476 16.1399ZM107.262 17.5049H99.8817V15.6749L103.242 12.8099C103.802 12.3299 104.217 11.8949 104.487 11.5049C104.757 11.1049 104.892 10.6799 104.892 10.2299V10.0799C104.892 9.57988 104.752 9.19988 104.472 8.93988C104.192 8.67988 103.802 8.54988 103.302 8.54988C102.752 8.54988 102.332 8.69988 102.042 8.99988C101.752 9.29988 101.542 9.66988 101.412 10.1099L99.7017 9.46488C99.8117 9.12488 99.9667 8.79988 100.167 8.48988C100.377 8.16988 100.632 7.88988 100.932 7.64988C101.242 7.40988 101.607 7.21988 102.027 7.07988C102.447 6.92988 102.927 6.85488 103.467 6.85488C104.027 6.85488 104.522 6.93488 104.952 7.09488C105.392 7.24488 105.762 7.45988 106.062 7.73988C106.362 8.00988 106.587 8.33488 106.737 8.71488C106.897 9.09488 106.977 9.50988 106.977 9.95988C106.977 10.3899 106.907 10.7849 106.767 11.1449C106.637 11.5049 106.452 11.8499 106.212 12.1799C105.972 12.4999 105.687 12.8099 105.357 13.1099C105.037 13.4099 104.687 13.7099 104.307 14.0099L102.027 15.8549H107.262V17.5049ZM114.741 17.5049L114.006 14.8499H110.901L110.181 17.5049H108.201L111.141 7.03488H113.871L116.826 17.5049H114.741ZM112.521 8.96988H112.401L111.246 13.2449H113.676L112.521 8.96988Z" fill="white"/>
<circle cx="139" cy="12.0049" r="11" fill="#F0F075" stroke="white" stroke-width="2"/>
<circle cx="139" cy="12.0049" r="4" fill="white"/>
</svg>
