<svg width="152" height="24" viewBox="0 0 152 24" fill="none" xmlns="http://www.w3.org/2000/svg">
<rect width="151" height="24" transform="translate(0.99707 -0.000244141)" fill="#F0F075"/>
<circle cx="12.9971" cy="11.9998" r="11" fill="#F0F075" stroke="white" stroke-width="2"/>
<circle cx="12.9971" cy="11.9998" r="4" fill="white"/>
<path d="M36.2421 17.4998V7.02976H43.0821V8.64976H38.2071V11.3798H42.6021V12.9998H38.2071V17.4998H36.2421ZM45.2362 17.4998V7.02976H51.8512V8.64976H47.2012V11.3798H51.6862V12.9998H47.2012V15.8798H51.8512V17.4998H45.2362ZM57.5304 17.6798C56.9204 17.6798 56.3754 17.5848 55.8954 17.3948C55.4254 17.1948 55.0254 16.9198 54.6954 16.5698C54.3654 16.2098 54.1104 15.7798 53.9304 15.2798C53.7604 14.7698 53.6754 14.1998 53.6754 13.5698C53.6754 12.8198 53.7904 12.1148 54.0204 11.4548C54.2504 10.7848 54.5454 10.1748 54.9054 9.62476C55.2754 9.06476 55.6854 8.56476 56.1354 8.12476C56.5854 7.68476 57.0354 7.31976 57.4854 7.02976H60.1554C59.5254 7.46976 58.9604 7.89476 58.4604 8.30476C57.9704 8.70476 57.5404 9.11476 57.1704 9.53476C56.8104 9.95476 56.5054 10.3948 56.2554 10.8548C56.0154 11.3048 55.8354 11.7998 55.7154 12.3398L55.8354 12.3698C55.9354 12.1698 56.0554 11.9798 56.1954 11.7998C56.3354 11.6098 56.5004 11.4448 56.6904 11.3048C56.8904 11.1548 57.1154 11.0398 57.3654 10.9598C57.6254 10.8698 57.9254 10.8248 58.2654 10.8248C58.7054 10.8248 59.1154 10.8998 59.4954 11.0498C59.8754 11.1998 60.2004 11.4198 60.4704 11.7098C60.7504 11.9898 60.9704 12.3298 61.1304 12.7298C61.2904 13.1298 61.3704 13.5798 61.3704 14.0798C61.3704 14.6098 61.2804 15.0948 61.1004 15.5348C60.9204 15.9748 60.6604 16.3548 60.3204 16.6748C59.9904 16.9948 59.5854 17.2448 59.1054 17.4248C58.6354 17.5948 58.1104 17.6798 57.5304 17.6798ZM57.5154 16.1348C58.1154 16.1348 58.5704 15.9798 58.8804 15.6698C59.1904 15.3498 59.3454 14.8998 59.3454 14.3198V14.1398C59.3454 13.5598 59.1854 13.1148 58.8654 12.8048C58.5554 12.4948 58.1054 12.3398 57.5154 12.3398C56.9454 12.3398 56.5004 12.4948 56.1804 12.8048C55.8604 13.1148 55.7004 13.5598 55.7004 14.1398V14.3198C55.7004 14.8998 55.8554 15.3498 56.1654 15.6698C56.4754 15.9798 56.9254 16.1348 57.5154 16.1348ZM63.3445 17.4998V15.8948H66.2245V8.45476H66.0895L63.8095 11.1548L62.5795 10.1198L65.1745 7.02976H68.1895V15.8948H70.5595V17.4998H63.3445ZM75.0536 11.2598C75.6836 11.2598 76.1436 11.1348 76.4336 10.8848C76.7336 10.6348 76.8836 10.3198 76.8836 9.93976V9.83476C76.8836 9.40476 76.7386 9.06976 76.4486 8.82976C76.1686 8.58976 75.7786 8.46975 75.2786 8.46975C74.7986 8.46975 74.3786 8.57976 74.0186 8.79976C73.6586 9.01976 73.3486 9.32976 73.0886 9.72976L71.8136 8.58976C71.9936 8.34976 72.1936 8.12476 72.4136 7.91475C72.6436 7.69476 72.8986 7.50976 73.1786 7.35975C73.4686 7.19976 73.7886 7.07476 74.1386 6.98476C74.4886 6.89476 74.8886 6.84976 75.3386 6.84976C75.8686 6.84976 76.3536 6.91476 76.7936 7.04476C77.2436 7.16476 77.6236 7.34476 77.9336 7.58476C78.2536 7.82476 78.4986 8.11476 78.6686 8.45476C78.8486 8.78476 78.9386 9.15976 78.9386 9.57976C78.9386 9.90976 78.8836 10.2098 78.7736 10.4798C78.6636 10.7498 78.5136 10.9848 78.3236 11.1848C78.1436 11.3848 77.9286 11.5498 77.6786 11.6798C77.4386 11.8098 77.1786 11.9048 76.8986 11.9648V12.0398C77.2086 12.0998 77.4986 12.1998 77.7686 12.3398C78.0386 12.4698 78.2736 12.6398 78.4736 12.8498C78.6736 13.0598 78.8336 13.3148 78.9536 13.6148C79.0736 13.9048 79.1336 14.2348 79.1336 14.6048C79.1336 15.0648 79.0386 15.4848 78.8486 15.8648C78.6586 16.2448 78.3886 16.5698 78.0386 16.8398C77.6986 17.1098 77.2836 17.3198 76.7936 17.4698C76.3136 17.6098 75.7736 17.6798 75.1736 17.6798C74.6736 17.6798 74.2286 17.6248 73.8386 17.5148C73.4486 17.4148 73.1036 17.2748 72.8036 17.0948C72.5036 16.9148 72.2436 16.7098 72.0236 16.4798C71.8036 16.2398 71.6086 15.9948 71.4386 15.7448L72.8936 14.6198C73.1436 15.0398 73.4386 15.3848 73.7786 15.6548C74.1286 15.9248 74.6036 16.0598 75.2036 16.0598C75.8036 16.0598 76.2636 15.9248 76.5836 15.6548C76.9136 15.3748 77.0786 14.9898 77.0786 14.4998V14.3798C77.0786 13.8998 76.9036 13.5348 76.5536 13.2848C76.2036 13.0248 75.7086 12.8948 75.0686 12.8948H74.0186V11.2598H75.0536ZM81.1678 7.02976H84.8128C85.8028 7.02976 86.5628 7.27976 87.0928 7.77976C87.6328 8.26976 87.9028 8.93976 87.9028 9.78976C87.9028 10.3898 87.7528 10.8698 87.4528 11.2298C87.1628 11.5898 86.7478 11.8498 86.2078 12.0098V12.0848C86.8378 12.2348 87.3328 12.5098 87.6928 12.9098C88.0628 13.2998 88.2478 13.8548 88.2478 14.5748C88.2478 15.0148 88.1728 15.4148 88.0228 15.7748C87.8828 16.1248 87.6778 16.4298 87.4078 16.6898C87.1478 16.9498 86.8278 17.1498 86.4478 17.2898C86.0778 17.4298 85.6578 17.4998 85.1878 17.4998H81.1678V7.02976ZM84.5878 16.0748C85.1378 16.0748 85.5478 15.9748 85.8178 15.7748C86.0978 15.5648 86.2378 15.2098 86.2378 14.7098V14.2148C86.2378 13.7248 86.0978 13.3798 85.8178 13.1798C85.5478 12.9698 85.1378 12.8648 84.5878 12.8648H83.0878V16.0748H84.5878ZM84.3328 11.4998C84.8628 11.4998 85.2528 11.4048 85.5028 11.2148C85.7628 11.0248 85.8928 10.6948 85.8928 10.2248V9.72976C85.8928 9.25976 85.7628 8.92976 85.5028 8.73976C85.2528 8.54976 84.8628 8.45476 84.3328 8.45476H83.0878V11.4998H84.3328ZM90.2069 17.4998V7.02976H96.8219V8.64976H92.1719V11.3798H96.6569V12.9998H92.1719V15.8798H96.8219V17.4998H90.2069ZM106.206 17.4998H98.8261V15.6698L102.186 12.8048C102.746 12.3248 103.161 11.8898 103.431 11.4998C103.701 11.0998 103.836 10.6748 103.836 10.2248V10.0748C103.836 9.57476 103.696 9.19476 103.416 8.93476C103.136 8.67476 102.746 8.54476 102.246 8.54476C101.696 8.54476 101.276 8.69476 100.986 8.99476C100.696 9.29476 100.486 9.66476 100.356 10.1048L98.6461 9.45976C98.7561 9.11976 98.9111 8.79476 99.1111 8.48476C99.3211 8.16476 99.5761 7.88476 99.8761 7.64476C100.186 7.40476 100.551 7.21476 100.971 7.07476C101.391 6.92476 101.871 6.84976 102.411 6.84976C102.971 6.84976 103.466 6.92976 103.896 7.08976C104.336 7.23976 104.706 7.45476 105.006 7.73476C105.306 8.00476 105.531 8.32976 105.681 8.70976C105.841 9.08976 105.921 9.50476 105.921 9.95476C105.921 10.3848 105.851 10.7798 105.711 11.1398C105.581 11.4998 105.396 11.8448 105.156 12.1748C104.916 12.4948 104.631 12.8048 104.301 13.1048C103.981 13.4048 103.631 13.7048 103.251 14.0048L100.971 15.8498H106.206V17.4998ZM109.125 13.8698V11.9948H113.775V13.8698H109.125ZM117.039 7.02976H120.294C121.654 7.02976 122.664 7.47976 123.324 8.37976C123.994 9.27976 124.329 10.5748 124.329 12.2648C124.329 13.9648 123.994 15.2648 123.324 16.1648C122.664 17.0548 121.654 17.4998 120.294 17.4998H117.039V7.02976ZM120.159 15.9248C120.879 15.9248 121.409 15.6898 121.749 15.2198C122.099 14.7498 122.274 14.0648 122.274 13.1648V11.3498C122.274 10.4598 122.099 9.77976 121.749 9.30976C121.409 8.83976 120.879 8.60476 120.159 8.60476H118.974V15.9248H120.159ZM131.253 16.0448H131.133C131.043 16.2548 130.933 16.4598 130.803 16.6598C130.673 16.8598 130.513 17.0348 130.323 17.1848C130.133 17.3348 129.908 17.4548 129.648 17.5448C129.398 17.6348 129.108 17.6798 128.778 17.6798C127.718 17.6798 126.913 17.2148 126.363 16.2848C125.823 15.3448 125.553 14.0298 125.553 12.3398C125.553 10.5598 125.873 9.19976 126.513 8.25976C127.153 7.31976 128.138 6.84976 129.468 6.84976C129.988 6.84976 130.443 6.91976 130.833 7.05976C131.233 7.19976 131.573 7.39476 131.853 7.64476C132.143 7.89476 132.378 8.19476 132.558 8.54476C132.748 8.88476 132.898 9.25476 133.008 9.65476L131.208 10.1648C131.138 9.94476 131.058 9.72976 130.968 9.51976C130.888 9.30976 130.778 9.12976 130.638 8.97976C130.508 8.81976 130.348 8.69476 130.158 8.60476C129.968 8.50476 129.733 8.45476 129.453 8.45476C128.803 8.45476 128.338 8.71476 128.058 9.23476C127.778 9.75476 127.638 10.4648 127.638 11.3648V13.0448C127.638 13.4948 127.668 13.9098 127.728 14.2898C127.798 14.6598 127.908 14.9798 128.058 15.2498C128.208 15.5198 128.403 15.7298 128.643 15.8798C128.883 16.0198 129.183 16.0898 129.543 16.0898C130.103 16.0898 130.528 15.9248 130.818 15.5948C131.108 15.2548 131.253 14.8248 131.253 14.3048V13.4498H129.348V12.0248H133.008V17.4998H131.253V16.0448ZM138.313 17.6798C137.413 17.6798 136.643 17.5248 136.003 17.2148C135.373 16.9048 134.858 16.4948 134.458 15.9848L135.643 14.7548C136.033 15.2048 136.453 15.5398 136.903 15.7598C137.363 15.9698 137.853 16.0748 138.373 16.0748C138.973 16.0748 139.433 15.9398 139.753 15.6698C140.073 15.3998 140.233 15.0098 140.233 14.4998C140.233 14.0798 140.113 13.7648 139.873 13.5548C139.633 13.3348 139.228 13.1798 138.658 13.0898L137.548 12.9098C136.578 12.7398 135.888 12.3898 135.478 11.8598C135.068 11.3198 134.863 10.6848 134.863 9.95476C134.863 8.95476 135.188 8.18976 135.838 7.65976C136.488 7.11976 137.388 6.84976 138.538 6.84976C139.358 6.84976 140.063 6.97976 140.653 7.23976C141.253 7.49976 141.733 7.85476 142.093 8.30476L140.938 9.53476C140.658 9.20476 140.323 8.94476 139.933 8.75476C139.543 8.55476 139.083 8.45476 138.553 8.45476C137.413 8.45476 136.843 8.92476 136.843 9.86476C136.843 10.2648 136.963 10.5698 137.203 10.7798C137.443 10.9898 137.853 11.1448 138.433 11.2448L139.528 11.4398C140.438 11.6098 141.113 11.9448 141.553 12.4448C141.993 12.9448 142.213 13.5848 142.213 14.3648C142.213 14.8548 142.128 15.3048 141.958 15.7148C141.788 16.1148 141.538 16.4648 141.208 16.7648C140.878 17.0548 140.468 17.2798 139.978 17.4398C139.498 17.5998 138.943 17.6798 138.313 17.6798ZM149.662 17.4998L148.927 14.8448H145.822L145.102 17.4998H143.122L146.062 7.02976H148.792L151.747 17.4998H149.662ZM147.442 8.96476H147.322L146.167 13.2398H148.597L147.442 8.96476Z" fill="white"/>
</svg>
