<svg width="177" height="176" viewBox="0 0 177 176" fill="none" xmlns="http://www.w3.org/2000/svg">
<circle cx="88.998" cy="87.9999" r="88" fill="#1A1A1A"/>
<path d="M38.8195 132.02C43.0345 132.02 46.1845 129.515 46.1845 125.75C46.1845 122.06 43.7545 120.695 41.5495 119.615C39.7045 118.715 38.0545 117.95 38.0545 116.195C38.0545 114.83 39.2095 113.9 40.9795 113.9C41.6545 113.9 42.2545 114.035 42.8095 114.215C42.9295 115.325 44.1145 116.03 45.2245 116.03C46.5145 116.03 47.2495 115.115 47.2495 113.915C47.2495 113.39 47.0845 112.835 46.7095 112.37C45.6295 110.99 43.2895 110.21 40.6045 110.21C37.1695 110.21 33.4195 112.37 33.4195 116.57C33.4195 120.41 35.9695 121.94 38.2495 123.11C39.9745 123.995 41.5345 124.745 41.5345 126.185C41.5345 127.52 40.3195 128.255 38.7745 128.255C37.3645 128.255 36.3895 127.55 35.6095 125.885C35.0845 124.775 34.3645 124.19 33.3595 124.19C32.1295 124.19 31.4845 125.06 31.4845 126.2C31.4845 126.56 31.5445 126.95 31.6795 127.355C32.6845 130.31 35.6245 132.02 38.8195 132.02ZM54.967 132.005C56.707 132.005 58.117 131.36 58.897 130.25C59.197 129.83 59.362 129.305 59.362 128.81C59.362 127.91 58.852 127.25 57.697 127.505C56.872 127.685 55.867 128.075 55.342 128.075C54.727 128.075 54.367 127.685 54.262 126.695C54.112 125.21 54.307 123.17 54.622 121.205C56.467 120.965 58.192 120.68 58.732 120.515C59.917 120.17 60.232 119.33 60.232 118.7C60.232 117.74 59.497 116.975 58.042 116.975C57.622 116.975 56.587 117.05 55.387 117.14L55.567 116.315C56.092 114.035 54.967 113.15 53.752 113.15C52.492 113.15 51.772 114.005 51.427 115.235C51.217 115.955 51.022 116.735 50.812 117.56C50.137 117.62 49.597 117.695 49.327 117.725C47.977 117.905 47.167 118.625 47.167 119.705C47.167 121.055 48.202 121.7 49.417 121.7C49.582 121.7 49.777 121.7 49.987 121.685C49.687 123.65 49.537 125.6 49.702 127.25C50.047 130.625 52.222 132.005 54.967 132.005ZM72.7549 132.02C74.0599 132.02 74.9299 131.075 74.9299 130.07C74.9299 129.605 74.7649 129.14 74.3749 128.735C74.3299 128.39 74.2999 128.015 74.2999 127.535C74.2999 126.41 74.4799 124.01 74.7049 121.58C75.0499 121.235 75.2449 120.74 75.2449 120.2C75.2449 119.42 74.8549 118.58 73.9249 117.995C72.6949 117.23 71.1349 116.93 69.4999 116.93C66.5749 116.93 64.0849 118.49 62.5999 120.905C61.6549 122.435 61.1149 124.325 61.1149 126.395C61.1149 129.59 62.9749 131.165 65.2549 131.165C66.7399 131.165 68.3149 130.46 69.8749 128.33L69.9499 128.225C69.9649 129.185 70.1149 129.965 70.4149 130.565C70.7149 131.165 71.1049 131.6 71.6749 131.825C71.9899 131.945 72.3499 132.02 72.7549 132.02ZM66.1549 126.935C65.9149 126.935 65.7499 126.755 65.7499 126.155C65.7499 124.91 66.1999 123.41 66.8449 122.36C67.4899 121.295 68.5849 120.725 69.6049 120.725C69.8299 120.725 70.0399 120.74 70.2349 120.77C69.4549 122.915 68.6599 124.49 67.6999 125.75C66.9949 126.68 66.4399 126.935 66.1549 126.935ZM79.8354 131.465C81.1254 131.465 81.9204 130.805 82.0404 129.5C82.3854 127.715 82.9854 125.945 83.8704 124.415C84.6954 122.99 85.7754 121.925 86.9304 121.355C87.1554 121.415 87.3954 121.445 87.6504 121.445C88.8204 121.445 89.8854 120.59 89.8854 119.225C89.8854 118.595 89.6304 118.1 89.1954 117.695C88.7304 117.275 88.0554 117.05 87.2604 117.05C85.4454 117.05 84.0804 118.415 83.2704 119.51C83.0304 119.825 82.8204 120.17 82.6254 120.53C82.7154 119.81 82.7454 119.165 82.7154 118.67C82.6254 117.455 82.0254 116.675 80.7054 116.675C79.0704 116.675 78.3654 117.845 78.3204 119.66C78.2604 121.925 78.1704 123.92 78.0804 124.91C77.9454 126.5 77.7804 127.625 77.6754 128.855C77.5104 130.745 78.5604 131.465 79.8354 131.465ZM97.7735 131.87C99.0485 131.87 100.459 131.45 101.284 130.67C101.869 130.115 102.124 129.545 102.124 129.035C102.124 127.985 100.999 127.25 99.4685 127.745C98.9135 127.925 98.5235 127.985 98.2085 127.985C97.7135 127.985 97.5335 127.805 97.4435 127.475C97.1435 126.275 97.5185 123.59 97.8635 121.415C99.1835 121.34 100.534 121.235 101.734 121.115C102.979 120.995 103.609 120.17 103.609 119.345C103.609 118.46 102.904 117.575 101.419 117.485C100.639 117.44 99.6185 117.41 98.5235 117.38C98.6585 116.645 98.7635 115.985 98.8385 115.43C99.0635 113.795 97.9685 112.985 96.8135 112.985C95.8235 112.985 94.7885 113.585 94.5035 114.77C94.3235 115.505 94.1585 116.435 93.9935 117.395C93.3335 117.425 92.7335 117.455 92.2835 117.5C91.1285 117.62 90.4685 118.52 90.4685 119.45C90.4685 120.44 91.2635 121.46 93.0785 121.52H93.3035C92.8985 124.13 92.6285 126.74 93.0635 128.645C93.5885 130.91 95.5085 131.87 97.7735 131.87ZM111.083 131.48C113.768 131.48 115.463 130.595 116.393 129.395C117.398 128.105 116.738 126.02 114.758 126.695C113.738 127.04 112.478 127.535 111.068 127.535C109.598 127.535 108.488 126.785 108.428 125.135C109.508 125.51 110.798 125.705 112.013 125.705C115.088 125.705 118.208 124.25 118.508 121.28C118.823 118.205 116.288 116.54 112.478 116.54C107.663 116.54 103.958 120.305 103.958 124.94C103.958 128.9 106.838 131.48 111.083 131.48ZM111.233 122.48C110.648 122.48 109.958 122.435 109.283 122.33C110.123 121.16 111.443 120.485 112.733 120.485C113.408 120.485 113.858 120.65 113.858 121.145C113.858 121.82 113.033 122.48 111.233 122.48ZM133.074 131.825C134.244 131.825 135.159 131.03 135.159 129.95C135.159 129.53 135.009 129.05 134.679 128.57C134.214 127.895 133.824 127.085 133.824 125.255C133.824 124.205 133.899 122.12 134.349 119.375C134.949 117.095 135.369 115.205 135.579 112.835C135.744 111.035 134.589 110.09 133.389 110.09C132.414 110.09 131.424 110.69 131.049 111.95C130.554 113.645 130.254 115.82 129.969 117.785C129.459 117.695 128.919 117.635 128.349 117.635C124.344 117.635 120.609 120.575 119.679 124.55C119.544 125.135 119.484 125.705 119.484 126.215C119.484 129.11 121.449 130.85 123.984 130.85C126.174 130.85 127.959 129.995 129.684 127.25C129.984 130.34 131.259 131.525 132.564 131.78C132.744 131.81 132.909 131.825 133.074 131.825ZM124.629 126.92C123.969 126.92 123.879 126.29 124.044 125.585C124.614 123.155 126.489 121.43 128.604 121.43C128.709 121.43 128.829 121.445 128.934 121.46C128.634 122.255 128.334 122.93 128.019 123.515C126.849 125.675 125.724 126.92 124.629 126.92ZM141.541 124.415C142.711 124.415 143.536 123.65 143.716 122.03L144.001 119.75C144.211 118.115 144.406 116.54 144.556 115.145C144.661 114.215 144.736 113.36 144.766 112.745C144.856 111.05 143.596 110.135 142.366 110.135C141.121 110.135 140.236 110.945 140.026 112.37C139.951 112.88 139.831 113.78 139.741 114.77C139.606 116.24 139.516 117.905 139.456 119.375C139.426 120.245 139.396 121.04 139.396 121.7C139.396 123.635 140.356 124.415 141.541 124.415ZM140.836 131.915C142.546 131.915 143.761 130.31 143.761 128.9C143.761 128.135 143.326 127.19 142.171 126.86C141.871 126.635 141.511 126.5 140.821 126.5C138.961 126.5 137.686 127.835 137.686 129.17C137.686 130.46 138.856 131.915 140.836 131.915Z" fill="#FF4C79"/>
<path d="M38.478 45.9659H49.665C51.579 45.9659 53.064 46.5049 54.12 47.5829C55.198 48.6609 55.737 50.0909 55.737 51.8729C55.737 52.7529 55.616 53.5009 55.374 54.1169C55.154 54.7329 54.846 55.2389 54.45 55.6349C54.076 56.0309 53.625 56.3279 53.097 56.5259C52.591 56.7019 52.041 56.8009 51.447 56.8229V57.0209C51.997 57.0209 52.569 57.1199 53.163 57.3179C53.779 57.5159 54.34 57.8349 54.846 58.2749C55.352 58.6929 55.77 59.2429 56.1 59.9249C56.452 60.6069 56.628 61.4429 56.628 62.4329C56.628 63.3349 56.474 64.1929 56.166 65.0069C55.88 65.7989 55.473 66.4919 54.945 67.0859C54.417 67.6799 53.79 68.1529 53.064 68.5049C52.338 68.8349 51.546 68.9999 50.688 68.9999H38.478V45.9659ZM43.494 64.7759H49.269C49.929 64.7759 50.446 64.5999 50.82 64.2479C51.216 63.8739 51.414 63.3569 51.414 62.6969V61.5749C51.414 60.9149 51.216 60.4089 50.82 60.0569C50.446 59.6829 49.929 59.4959 49.269 59.4959H43.494V64.7759ZM43.494 55.4039H48.477C49.137 55.4039 49.654 55.2169 50.028 54.8429C50.402 54.4689 50.589 53.9519 50.589 53.2919V52.3019C50.589 51.6419 50.402 51.1249 50.028 50.7509C49.654 50.3769 49.137 50.1899 48.477 50.1899H43.494V55.4039ZM60.4888 68.9999V45.9659H65.5048V64.5449H74.2828V68.9999H60.4888ZM92.7256 68.9999L91.0756 63.5219H83.3866L81.7366 68.9999H76.6546L84.2446 45.9659H90.4486L97.9396 68.9999H92.7256ZM87.2806 50.5199H87.1156L84.5746 59.2649H89.8546L87.2806 50.5199ZM109.433 69.3959C107.871 69.3959 106.463 69.1539 105.209 68.6699C103.955 68.1639 102.888 67.4269 102.008 66.4589C101.128 65.4689 100.446 64.2479 99.9624 62.7959C99.4784 61.3219 99.2364 59.6059 99.2364 57.6479C99.2364 55.7119 99.4784 53.9959 99.9624 52.4999C100.446 50.9819 101.128 49.7169 102.008 48.7049C102.888 47.6709 103.955 46.8899 105.209 46.3619C106.463 45.8339 107.871 45.5699 109.433 45.5699C111.567 45.5699 113.327 46.0099 114.713 46.8899C116.099 47.7479 117.21 49.1119 118.046 50.9819L113.723 53.2259C113.415 52.2579 112.931 51.4879 112.271 50.9159C111.633 50.3219 110.687 50.0249 109.433 50.0249C107.959 50.0249 106.771 50.5089 105.869 51.4769C104.989 52.4229 104.549 53.8089 104.549 55.6349V59.3309C104.549 61.1569 104.989 62.5539 105.869 63.5219C106.771 64.4679 107.959 64.9409 109.433 64.9409C110.665 64.9409 111.644 64.6109 112.37 63.9509C113.118 63.2689 113.668 62.4549 114.02 61.5089L118.112 63.8849C117.254 65.6449 116.121 67.0089 114.713 67.9769C113.327 68.9229 111.567 69.3959 109.433 69.3959ZM129.642 58.9679L126.639 62.5979V68.9999H121.623V45.9659H126.639V56.9219H126.837L130.104 52.4669L135.285 45.9659H140.961L133.206 55.4369L141.654 68.9999H135.747L129.642 58.9679ZM31.9038 102V78.9659H47.1828V83.4209H36.9198V88.1399H45.6648V92.5619H36.9198V102H31.9038ZM56.2235 102H51.2075V78.9659H62.1305C63.1865 78.9659 64.1435 79.1419 65.0015 79.4939C65.8595 79.8459 66.5855 80.3519 67.1795 81.0119C67.7955 81.6499 68.2685 82.4199 68.5985 83.3219C68.9285 84.2239 69.0935 85.2249 69.0935 86.3249C69.0935 87.8869 68.7415 89.2509 68.0375 90.4169C67.3555 91.5829 66.3105 92.4299 64.9025 92.9579L69.4235 102H63.8465L59.8205 93.5519H56.2235V102ZM61.5035 89.3279C62.2515 89.3279 62.8345 89.1409 63.2525 88.7669C63.6925 88.3709 63.9125 87.7989 63.9125 87.0509V85.5989C63.9125 84.8509 63.6925 84.2899 63.2525 83.9159C62.8345 83.5199 62.2515 83.3219 61.5035 83.3219H56.2235V89.3279H61.5035ZM72.5528 102V98.0069H75.5228V82.9589H72.5528V78.9659H83.5088V82.9589H80.5388V98.0069H83.5088V102H72.5528ZM87.688 78.9659H96.367C97.885 78.9659 99.271 79.2079 100.525 79.6919C101.779 80.1759 102.846 80.9019 103.726 81.8699C104.606 82.8159 105.288 84.0149 105.772 85.4669C106.256 86.8969 106.498 88.5689 106.498 90.4829C106.498 92.3969 106.256 94.0799 105.772 95.5319C105.288 96.9619 104.606 98.1609 103.726 99.1289C102.846 100.075 101.779 100.79 100.525 101.274C99.271 101.758 97.885 102 96.367 102H87.688V78.9659ZM96.367 97.5449C97.863 97.5449 99.04 97.1269 99.898 96.2909C100.756 95.4549 101.185 94.1129 101.185 92.2649V88.7009C101.185 86.8529 100.756 85.5109 99.898 84.6749C99.04 83.8389 97.863 83.4209 96.367 83.4209H92.704V97.5449H96.367ZM123.663 102L122.013 96.5219H114.324L112.674 102H107.592L115.182 78.9659H121.386L128.877 102H123.663ZM118.218 83.5199H118.053L115.512 92.2649H120.792L118.218 83.5199ZM135.387 102V92.9909L127.5 78.9659H133.11L138.06 88.1399H138.126L142.878 78.9659H148.323L140.436 92.9579V102H135.387Z" fill="white"/>
</svg>
