<svg width="16" height="18" viewBox="0 0 16 18" fill="none" xmlns="http://www.w3.org/2000/svg">
<rect width="16" height="18" fill="#FF4C79"/>
<path d="M13.0239 16H3.14391V13.26L7.44391 9.58C7.83057 9.24667 8.15724 8.94667 8.42391 8.68C8.69057 8.4 8.90391 8.13333 9.06391 7.88C9.23724 7.61333 9.35724 7.35333 9.42391 7.1C9.50391 6.84667 9.54391 6.57333 9.54391 6.28V6C9.54391 5.73333 9.49057 5.5 9.38391 5.3C9.27724 5.1 9.13724 4.93333 8.96391 4.8C8.79057 4.66667 8.59057 4.56667 8.36391 4.5C8.15057 4.43333 7.93057 4.4 7.70391 4.4C7.37057 4.4 7.07724 4.45333 6.82391 4.56C6.58391 4.66667 6.37057 4.81333 6.18391 5C6.01057 5.17333 5.86391 5.38 5.74391 5.62C5.62391 5.84667 5.53057 6.09333 5.46391 6.36L2.84391 5.36C3.00391 4.88 3.22391 4.42667 3.50391 4C3.78391 3.56 4.13057 3.18 4.54391 2.86C4.97057 2.52667 5.47057 2.26667 6.04391 2.08C6.61724 1.89333 7.26391 1.8 7.98391 1.8C8.74391 1.8 9.41724 1.90667 10.0039 2.12C10.5906 2.33333 11.0839 2.62667 11.4839 3C11.8972 3.37333 12.2106 3.82 12.4239 4.34C12.6372 4.84667 12.7439 5.4 12.7439 6C12.7439 6.6 12.6439 7.14667 12.4439 7.64C12.2439 8.13333 11.9706 8.6 11.6239 9.04C11.2906 9.46667 10.8972 9.87333 10.4439 10.26C9.99057 10.6467 9.51724 11.04 9.02391 11.44L6.42391 13.48H13.0239V16Z" fill="white"/>
</svg>
