<svg width="32" height="32" viewBox="0 0 32 32" fill="none" xmlns="http://www.w3.org/2000/svg">
<path d="M4.336 20.6719V27.0052C4.336 29.2052 9.736 31.0052 16.336 31.0052C22.936 31.0052 28.336 29.2052 28.336 27.0052V20.6719" stroke="#FF3621" stroke-width="1.45455" stroke-miterlimit="10" stroke-linecap="round"/>
<path d="M4.33594 9.67188V16.0052M28.3359 16.0052V9.67188" stroke="#FF3621" stroke-width="1.45455" stroke-miterlimit="10" stroke-linecap="round"/>
<path d="M16.3359 9.67188C22.9634 9.67188 28.3359 7.88101 28.3359 5.67188C28.3359 3.46274 22.9634 1.67188 16.3359 1.67188C9.70852 1.67188 4.33594 3.46274 4.33594 5.67188C4.33594 7.88101 9.70852 9.67188 16.3359 9.67188Z" stroke="#FF3621" stroke-width="1.45455" stroke-miterlimit="10" stroke-linecap="square"/>
<path d="M28.3359 16.3438C28.3359 18.5438 22.9359 20.3438 16.3359 20.3438C9.73594 20.3438 4.33594 18.5438 4.33594 16.3438" stroke="#FF3621" stroke-width="1.45455" stroke-miterlimit="10" stroke-linecap="square"/>
</svg>
