<svg width="32" height="32" viewBox="0 0 32 32" fill="none" xmlns="http://www.w3.org/2000/svg">
<g clip-path="url(#clip0_1_33)">
<path d="M16.5 20.5C18.7091 20.5 20.5 18.7091 20.5 16.5C20.5 14.2909 18.7091 12.5 16.5 12.5C14.2909 12.5 12.5 14.2909 12.5 16.5C12.5 18.7091 14.2909 20.5 16.5 20.5Z" stroke="#FF3621" stroke-width="1.45" stroke-miterlimit="10" stroke-linecap="square" stroke-linejoin="round"/>
<path d="M27.5017 16.5C27.5014 15.7696 27.4287 15.0411 27.2847 14.325L30.9917 11.6L27.9917 6.4L23.7647 8.254C22.6706 7.28706 21.3943 6.54859 20.0107 6.082L19.5017 1.5H13.5017L12.9927 6.082C11.6091 6.54859 10.3328 7.28706 9.23872 8.254L5.01172 6.4L2.01172 11.6L5.71872 14.327C5.4294 15.7626 5.4294 17.2414 5.71872 18.677L2.01172 21.4L5.01172 26.6L9.23872 24.748C10.3328 25.7149 11.6091 26.4534 12.9927 26.92L13.5017 31.5H19.5017L20.0107 26.918C21.3943 26.4514 22.6706 25.7129 23.7647 24.746L27.9917 26.6L30.9917 21.4L27.2847 18.673C27.4286 17.9576 27.5013 17.2297 27.5017 16.5Z" stroke="#FF3621" stroke-width="1.45" stroke-miterlimit="10" stroke-linecap="square" stroke-linejoin="round"/>
</g>
<defs>
<clipPath id="clip0_1_33">
<rect width="32" height="32" fill="white"/>
</clipPath>
</defs>
</svg>
