<?xml version="1.0" encoding="iso-8859-1"?><svg height="512" viewBox="0 0 128 128" width="512" xmlns="http://www.w3.org/2000/svg"><path d="m123.4 110.789h-9v-58.526a7.008 7.008 0 0 0 -7-7h-22.938c-2.215-11.563-7.428-23.128-17.428-35.576a1.034 1.034 0 0 0 -1.559 0c-10.122 12.6-15.467 24.149-17.808 35.576h-23.067a7.008 7.008 0 0 0 -7 7v58.526h-9a1 1 0 0 0 -1 1v3.934a6.953 6.953 0 0 0 6.946 6.944h102.9a6.953 6.953 0 0 0 6.947-6.944v-3.934a1 1 0 0 0 -.993-1z" fill="#e6e7e8"/><path d="m109.4 107.789v-59.526a6 6 0 0 0 -6-6h-82.8a6 6 0 0 0 -6 6v59.526z" fill="#6dc9f7"/><path d="m100.4 42.263h3a6 6 0 0 1 6 6v59.526h-3v-59.526a6 6 0 0 0 -6-6z" fill="#fff"/><path d="m102.372 107.789v-54.689a2 2 0 0 0 -2-2h-76.745a2 2 0 0 0 -2 2v54.689z" fill="#d4fbff"/><path d="m4.605 107.789v3.933a5.945 5.945 0 0 0 5.945 5.945h102.9a5.946 5.946 0 0 0 5.947-5.945v-3.933z" fill="#0089ef"/><path d="m4.605 107.789v3.933a5.945 5.945 0 0 0 5.945 5.945h102.9a5.946 5.946 0 0 0 5.947-5.945v-3.933z" fill="#0089ef"/><path d="m42.949 107.789v1.991a3.009 3.009 0 0 0 3.009 3.009h32.083a3.01 3.01 0 0 0 3.01-3.009v-1.991z" fill="#6dc9f7"/><path d="m79.394 73.436h15.106s-1.188-19.484-14.328-27.978c1.166 8.929.657 18.071-.778 27.978z" fill="#ffd7e5"/><path d="m43.968 45.371c-13.268 8.446-14.468 28.065-14.468 28.065h15.015c-1.441-9.936-1.846-19.108-.547-28.065z" fill="#ffd7e5"/><path d="m44.565 73.436h34.87a0 0 0 0 1 0 0v6.754a4 4 0 0 1 -4 4h-26.87a4 4 0 0 1 -4-4v-6.754a0 0 0 0 1 0 0z" fill="#0089ef"/><path d="m44.515 73.437c-3.515-24.263-.885-43.937 17.739-67.124 18.625 23.187 20.655 42.861 17.14 67.124z" fill="#fa759e"/><path d="m55.053 62.779a1.713 1.713 0 0 1 -.992-3.11l.495-.351a5.312 5.312 0 0 0 2.244-4.329v-16.255a6.331 6.331 0 0 1 6.324-6.324 6.21 6.21 0 0 1 4.156 10.821 7.433 7.433 0 0 1 -4.054 13.669h-.57a1.713 1.713 0 1 1 0-3.425h.57a4.01 4.01 0 0 0 1.445-7.75l-2.591-1a1.712 1.712 0 0 1 .617-3.31h.422a2.787 2.787 0 0 0 0-5.573 2.9 2.9 0 0 0 -2.9 2.9v16.247a8.743 8.743 0 0 1 -3.685 7.124l-.494.351a1.707 1.707 0 0 1 -.987.315z" fill="#fff"/><path d="m52.395 84.19h19.21a0 0 0 0 1 0 0v4.533a2 2 0 0 1 -2 2h-15.21a2 2 0 0 1 -2-2v-4.533a0 0 0 0 1 0 0z" fill="#6dc9f7"/><g fill="#3a2c60"><path d="m21.627 94.154a1 1 0 0 0 1-1v-12a1 1 0 0 0 -2 0v12a1 1 0 0 0 1 1z"/><path d="m119.4 106.789h-9v-58.526a7.008 7.008 0 0 0 -7-7h-22.938c-2.215-11.563-7.428-23.128-17.429-35.576a1.033 1.033 0 0 0 -1.558 0c-10.122 12.6-15.467 24.149-17.808 35.576h-23.067a7.008 7.008 0 0 0 -7 7v58.526h-8.995a1 1 0 0 0 -1 1v3.933a6.953 6.953 0 0 0 6.945 6.946h102.9a6.955 6.955 0 0 0 6.947-6.946v-3.933a1 1 0 0 0 -.997-1zm-16-63.526a5.006 5.006 0 0 1 5 5v58.526h-5.029v-53.689a3 3 0 0 0 -3-3h-13.584a26.521 26.521 0 0 0 -5.734-5.25c-.074-.529-.152-1.058-.238-1.588zm-50 41.928h17.206v3.532a1 1 0 0 1 -1 1h-15.206a1 1 0 0 1 -1-1zm-4.83-2a3 3 0 0 1 -3-3v-5.754h32.87v5.754a3 3 0 0 1 -3 3zm-5.898-35.661a99.045 99.045 0 0 0 .7 24.907h-12.772c.456-3.891 2.689-17.513 12.072-24.907zm50.728 24.907h-12.859a103.7 103.7 0 0 0 .841-24.876c9.343 7.402 11.563 20.991 12.018 24.876zm-31.146-64.517c17.772 22.594 19.493 41.553 16.272 64.517h-33.143c-3.07-21.982-1.246-41.488 16.871-64.517zm-46.654 40.343a5.006 5.006 0 0 1 5-5h22.687c-.089.512-.175 1.023-.252 1.534a26.433 26.433 0 0 0 -5.822 5.3h-13.586a3 3 0 0 0 -3 3v23.557a1 1 0 0 0 2 0v-23.554a1 1 0 0 1 1-1h12.082c-6.377 9.217-7.169 20.649-7.209 21.276a1 1 0 0 0 1 1.061h14.065v5.754a5.006 5.006 0 0 0 5 5h2.835v3.532a3 3 0 0 0 3 3h15.206a3 3 0 0 0 3-3v-3.532h2.829a5.006 5.006 0 0 0 5-5v-5.754h14.065a1 1 0 0 0 1-1.061c-.038-.625-.829-12.057-7.206-21.275h12.08a1 1 0 0 1 1 1v53.688h-78.747v-9.1a1 1 0 0 0 -2 0v9.1h-5.027zm102.8 63.459a4.952 4.952 0 0 1 -4.947 4.946h-102.903a4.951 4.951 0 0 1 -4.945-4.946v-2.933h112.795z"/><path d="m69.015 101.645a1 1 0 0 0 1-1v-5.906a1 1 0 0 0 -2 0v5.906a1 1 0 0 0 1 1z"/><path d="m62 105.3a1 1 0 0 0 1-1v-9.56a1 1 0 0 0 -2 0v9.56a1 1 0 0 0 1 1z"/><path d="m54.985 101.645a1 1 0 0 0 1-1v-5.906a1 1 0 0 0 -2 0v5.906a1 1 0 0 0 1 1z"/></g></svg>