<?xml version="1.0" encoding="iso-8859-1"?><svg height="512" viewBox="0 0 128 128" width="512" xmlns="http://www.w3.org/2000/svg"><path d="m120.5 60.453a5.006 5.006 0 0 0 5-5v-9a5.006 5.006 0 0 0 -5-5h-17.5v-20.406a1 1 0 0 0 -1-1h-8.25v-3.5a5.006 5.006 0 0 0 -5-5h-37a5.006 5.006 0 0 0 -5 5v3.5h-8.25a1 1 0 0 0 -1 1v20.406h-17.5a5.006 5.006 0 0 0 -5 5v9a5.006 5.006 0 0 0 5 5h15.547l-14.385 11h-9.662a5.006 5.006 0 0 0 -5 5v9a5.006 5.006 0 0 0 5 5h20a5.006 5.006 0 0 0 5-5v-9a5.006 5.006 0 0 0 -5-5h-7.047l14.047-10.742 14.047 10.742h-7.047a5.006 5.006 0 0 0 -5 5v9a5.006 5.006 0 0 0 5 5h20a5.006 5.006 0 0 0 5-5v-9a5.006 5.006 0 0 0 -5-5h-9.662l-14.385-11h15.547a5.006 5.006 0 0 0 5-5v-9a5.006 5.006 0 0 0 -5-5h-17.5v-19.406h7.25v3.5a5.006 5.006 0 0 0 5 5h37a5.006 5.006 0 0 0 5-5v-3.5h7.25v19.406h-17.5a5.006 5.006 0 0 0 -5 5v9a5.006 5.006 0 0 0 5 5h17.5v11h-17.5a5.006 5.006 0 0 0 -5 5v9a5.006 5.006 0 0 0 5 5h17.5v11h-17.5a5.006 5.006 0 0 0 -5 5v9a5.006 5.006 0 0 0 5 5h37a5.006 5.006 0 0 0 5-5v-9a5.006 5.006 0 0 0 -5-5h-17.5v-11h17.5a5.006 5.006 0 0 0 5-5v-9a5.006 5.006 0 0 0 -5-5h-17.5v-11z" fill="#e6e7e8"/><rect fill="#fa759e" height="17" rx="4" width="45" x="43.75" y="8.547"/><path d="m84.75 8.547h-37a4 4 0 0 0 -4 4v3a4 4 0 0 1 4-4h37a4 4 0 0 1 4 4v-3a4 4 0 0 0 -4-4z" fill="#fff"/><rect fill="#0089ef" height="17" rx="4" width="45" x="75.5" y="38.453"/><rect fill="#0089ef" height="17" rx="4" width="45" x="12" y="38.453"/><g fill="#6dc9f7"><rect height="17" rx="4" width="28" x="3.5" y="68.453"/><rect height="17" rx="4" width="28" x="37.5" y="68.453"/><rect height="17" rx="4" width="45" x="75.5" y="68.453"/></g><rect fill="#d4fbff" height="17" rx="4" width="45" x="75.5" y="98.453"/><path d="m116.5 56.453a5.006 5.006 0 0 0 5-5v-9a5.006 5.006 0 0 0 -5-5h-17.5v-20.406a1 1 0 0 0 -1-1h-8.25v-3.5a5.006 5.006 0 0 0 -5-5h-37a5.006 5.006 0 0 0 -5 5v3.5h-8.25a1 1 0 0 0 -1 1v20.406h-17.5a5.006 5.006 0 0 0 -5 5v9a5.006 5.006 0 0 0 5 5h15.547l-14.385 11h-9.662a5.006 5.006 0 0 0 -5 5v9a5.006 5.006 0 0 0 5 5h20a5.006 5.006 0 0 0 5-5v-9a5.006 5.006 0 0 0 -5-5h-7.047l14.047-10.742 14.047 10.742h-7.047a5.006 5.006 0 0 0 -5 5v9a5.006 5.006 0 0 0 5 5h20a5.006 5.006 0 0 0 5-5v-9a5.006 5.006 0 0 0 -5-5h-9.662l-14.385-11h15.547a5.006 5.006 0 0 0 5-5v-9a5.006 5.006 0 0 0 -5-5h-17.5v-19.406h7.25v3.5a5.006 5.006 0 0 0 5 5h37a5.006 5.006 0 0 0 5-5v-3.5h7.25v19.406h-17.5a5.006 5.006 0 0 0 -5 5v9a5.006 5.006 0 0 0 5 5h17.5v11h-17.5a5.006 5.006 0 0 0 -5 5v9a5.006 5.006 0 0 0 5 5h17.5v11h-17.5a5.006 5.006 0 0 0 -5 5v9a5.006 5.006 0 0 0 5 5h12.5a1 1 0 0 0 0-2h-12.5a3 3 0 0 1 -3-3v-9a3 3 0 0 1 3-3h37a3 3 0 0 1 3 3v9a3 3 0 0 1 -3 3h-7.688a1 1 0 1 0 0 2h7.688a5.006 5.006 0 0 0 5-5v-9a5.006 5.006 0 0 0 -5-5h-17.5v-11h17.5a5.006 5.006 0 0 0 5-5v-9a5.006 5.006 0 0 0 -5-5h-17.5v-11zm-86 16v9a3 3 0 0 1 -3 3h-20a3 3 0 0 1 -3-3v-9a3 3 0 0 1 3-3h20a3 3 0 0 1 3 3zm34 0v9a3 3 0 0 1 -3 3h-20a3 3 0 0 1 -3-3v-9a3 3 0 0 1 3-3h20a3 3 0 0 1 3 3zm-8.5-30v9a3 3 0 0 1 -3 3h-37a3 3 0 0 1 -3-3v-9a3 3 0 0 1 3-3h37a3 3 0 0 1 3 3zm31.75-20.906a3 3 0 0 1 -3 3h-37a3 3 0 0 1 -3-3v-9a3 3 0 0 1 3-3h37a3 3 0 0 1 3 3zm31.75 50.906v9a3 3 0 0 1 -3 3h-37a3 3 0 0 1 -3-3v-9a3 3 0 0 1 3-3h37a3 3 0 0 1 3 3zm-43-21v-9a3 3 0 0 1 3-3h37a3 3 0 0 1 3 3v9a3 3 0 0 1 -3 3h-37a3 3 0 0 1 -3-3z" fill="#3a2c60"/><path d="m104.625 114.453h-8.5a1 1 0 0 0 0 2h8.5a1 1 0 0 0 0-2z" fill="#3a2c60"/></svg>