<?xml version="1.0" encoding="iso-8859-1"?><svg id="Capa_1" enable-background="new 0 0 512 512" height="512" viewBox="0 0 512 512" width="512" xmlns="http://www.w3.org/2000/svg"><g><path d="m256 183.998-21.213 21.212v101.579l21.213 21.213 72.002-72.002z" fill="#f3da49"/><path d="m198.873 220.087h71.827v71.827h-71.827z" fill="#f9eda4" transform="matrix(.707 -.707 .707 .707 -112.252 241)"/><path d="m328.833 358.833h-30l-60 72.833 60 72.834h30z" fill="#f9b348"/><path d="m183.167 358.833h115.667v145.667h-115.667z" fill="#f3da49"/><path d="m328.833 7.5h-30l-60 72.834 60 72.833h30z" fill="#f63"/><path d="m183.167 7.5h115.667v145.667h-115.667z" fill="#ff8b47"/><path d="m80.333 183.167v145.667c40.225 0 72.833-32.609 72.833-72.833s-32.608-72.834-72.833-72.834z" fill="#61ce5b"/><path d="m123.166 256c0-40.225-19.177-72.834-42.833-72.834-40.224.001-72.833 32.609-72.833 72.834s32.609 72.833 72.833 72.833c23.656 0 42.833-32.608 42.833-72.833z" fill="#94e368"/><path d="m431.667 183.167v145.667c40.225 0 72.833-32.609 72.833-72.833s-32.609-72.834-72.833-72.834z" fill="#9255e3"/><path d="m474.5 256c0-40.225-19.177-72.834-42.833-72.834-40.225 0-72.833 32.609-72.833 72.834s32.609 72.833 72.833 72.833c23.656 0 42.833-32.608 42.833-72.833z" fill="#ae7df0"/><path d="m431.667 175.667c-44.296 0-80.334 36.037-80.334 80.333s36.038 80.333 80.334 80.333 80.333-36.037 80.333-80.333-36.037-80.333-80.333-80.333zm0 145.666c-36.025 0-65.334-29.309-65.334-65.333s29.309-65.333 65.334-65.333c36.024 0 65.333 29.309 65.333 65.333s-29.309 65.333-65.333 65.333z"/><path d="m160.667 256c0-44.296-36.038-80.333-80.334-80.333s-80.333 36.037-80.333 80.333 36.037 80.333 80.333 80.333 80.334-36.037 80.334-80.333zm-145.667 0c0-36.024 29.309-65.333 65.333-65.333 36.025 0 65.334 29.309 65.334 65.333s-29.309 65.333-65.334 65.333c-36.024 0-65.333-29.309-65.333-65.333z"/><path d="m328.833 102.834c-4.143 0-7.5 3.357-7.5 7.5v35.333h-130.666v-130.667h130.666v65.334c0 4.143 3.357 7.5 7.5 7.5h95.334v47.226l-2.196-2.197c-2.93-2.928-7.678-2.928-10.607 0-2.929 2.93-2.929 7.678 0 10.607l15 15c1.465 1.464 3.385 2.196 5.304 2.196s3.839-.732 5.304-2.196l15-15c2.929-2.93 2.929-7.678 0-10.607-2.93-2.928-7.678-2.928-10.607 0l-2.196 2.197v-54.726c0-4.143-3.357-7.5-7.5-7.5h-95.334v-65.334c0-4.143-3.357-7.5-7.5-7.5h-145.668c-4.143 0-7.5 3.357-7.5 7.5v145.667c0 4.143 3.357 7.5 7.5 7.5h65.333v20.224l-69.806 69.806c-2.929 2.93-2.929 7.678 0 10.607l69.806 69.806v20.223h-65.333c-4.143 0-7.5 3.357-7.5 7.5v65.334h-87.834v-47.226l2.196 2.197c1.465 1.464 3.385 2.196 5.304 2.196s3.839-.732 5.304-2.196c2.929-2.93 2.929-7.678 0-10.607l-15-15c-2.93-2.928-7.678-2.928-10.607 0l-15 15c-2.929 2.93-2.929 7.678 0 10.607 2.93 2.928 7.678 2.928 10.607 0l2.196-2.197v54.726c0 4.143 3.357 7.5 7.5 7.5h95.334v65.333c0 4.143 3.357 7.5 7.5 7.5h145.666c4.143 0 7.5-3.357 7.5-7.5v-145.667c0-4.143-3.357-7.5-7.5-7.5h-65.333v-20.223l69.807-69.807c1.406-1.407 2.196-3.314 2.196-5.304s-.79-3.896-2.196-5.304l-69.807-69.804v-20.224h65.333c4.143 0 7.5-3.357 7.5-7.5v-42.833c0-4.143-3.357-7.5-7.5-7.5zm-7.5 394.166h-130.666v-130.667h130.666zm-65.333-179.604-61.396-61.396 61.396-61.396 61.396 61.396z"/></g></svg>