<?xml version="1.0" encoding="iso-8859-1"?><svg xmlns="http://www.w3.org/2000/svg" viewBox="0 0 128 128" width="512" height="512"><path d="M53.982,45.933h3.024a22.881,22.881,0,0,0,2.755,6.636l-2.142,2.142a2.583,2.583,0,0,0,0,3.654l4.02,4.021a2.645,2.645,0,0,0,3.654,0l2.142-2.142A22.938,22.938,0,0,0,74.072,63v3.023a2.587,2.587,0,0,0,2.584,2.584h5.686a2.587,2.587,0,0,0,2.584-2.584V63a22.932,22.932,0,0,0,6.636-2.755l2.143,2.142a2.644,2.644,0,0,0,3.653,0l4.021-4.021a2.584,2.584,0,0,0,0-3.653l-2.142-2.143a22.835,22.835,0,0,0,2.754-6.636h3.024a2.586,2.586,0,0,0,2.583-2.584V37.663a2.586,2.586,0,0,0-2.583-2.584h-3.024a22.841,22.841,0,0,0-2.754-6.637l2.142-2.142a2.584,2.584,0,0,0,0-3.653l-4.021-4.021a2.584,2.584,0,0,0-3.653,0l-2.143,2.142a22.909,22.909,0,0,0-6.636-2.755V14.989a2.587,2.587,0,0,0-2.584-2.583H76.656a2.586,2.586,0,0,0-2.584,2.583v3.024a22.915,22.915,0,0,0-6.637,2.755l-2.142-2.143a2.588,2.588,0,0,0-3.654,0l-4.02,4.02a2.583,2.583,0,0,0,0,3.654l2.142,2.142a22.846,22.846,0,0,0-2.754,6.637H53.982A2.586,2.586,0,0,0,51.4,37.663v5.686A2.586,2.586,0,0,0,53.982,45.933Z" fill="#e6e7e8"/><path d="M120.7,62.558a6.825,6.825,0,0,0-9.211-.662L93.612,75.984a6.438,6.438,0,0,0-5.126-2.54H73.822A38.249,38.249,0,0,1,63.066,71.9l-3.425-1a26.277,26.277,0,0,0-9.778-1.062c-8.724.754-12.351,5.4-14.3,7.891A8.759,8.759,0,0,1,34.465,79c-.263.2-2.816,1.867-6.729,4.405a5.466,5.466,0,0,0-7.13-1.036l-8.664,5.575a5.518,5.518,0,0,0-1.654,7.615L24.112,117.06a5.475,5.475,0,0,0,3.467,2.406,5.575,5.575,0,0,0,1.181.128,5.469,5.469,0,0,0,2.971-.879L40.4,113.14a5.519,5.519,0,0,0,1.655-7.615l-.843-1.311c4.359-2.678,7.709-4.623,8.28-4.8,2.311-.654,7.325.438,12.632,1.594,5.15,1.123,10.476,2.284,14.9,2.284,5.761,0,10.438-2.931,13.35-5.392L120.23,72.449a6.852,6.852,0,0,0,.47-9.891Z" fill="#e6e7e8"/><path d="M115.975,59.247a5.854,5.854,0,0,0-7.867-.566L89.361,73.455a5.472,5.472,0,0,0-4.875-3.011H69.822A39.229,39.229,0,0,1,58.785,68.86l-3.426-1a25.417,25.417,0,0,0-9.41-1.024c-10.528.91-13.167,7.68-14.886,8.964-.471.352-6.407,4.2-7.56,4.948L35.815,99.9c1.267-.783,8.371-5.156,9.4-5.447,4.86-1.377,18.7,3.84,27.805,3.84,5.517,0,10.02-2.888,12.7-5.155,2.464-2.091,29.854-25.44,29.854-25.44A5.853,5.853,0,0,0,115.975,59.247Z" fill="#ffd7e5"/><circle cx="75.499" cy="36.506" r="12.956" fill="#ffd7e5"/><path d="M102.6,39.349V33.663a1.584,1.584,0,0,0-1.584-1.584H97.189A22,22,0,0,0,93.962,24.3l2.71-2.71a1.584,1.584,0,0,0,0-2.239l-4.021-4.021a1.582,1.582,0,0,0-2.239,0L87.7,18.042a22.02,22.02,0,0,0-7.776-3.226V10.989a1.584,1.584,0,0,0-1.584-1.583H72.656a1.584,1.584,0,0,0-1.584,1.583v3.827A22.02,22.02,0,0,0,63.3,18.042l-2.71-2.709a1.582,1.582,0,0,0-2.239,0l-4.021,4.021a1.582,1.582,0,0,0,0,2.239l2.709,2.71a22.02,22.02,0,0,0-3.226,7.776H49.982A1.584,1.584,0,0,0,48.4,33.663v5.686a1.584,1.584,0,0,0,1.583,1.584h3.827a22.02,22.02,0,0,0,3.226,7.776l-2.709,2.71a1.582,1.582,0,0,0,0,2.239l4.021,4.021a1.584,1.584,0,0,0,2.239,0l2.71-2.71A22,22,0,0,0,71.072,58.2v3.826a1.584,1.584,0,0,0,1.584,1.584h5.686a1.584,1.584,0,0,0,1.584-1.584V58.2A22,22,0,0,0,87.7,54.969l2.71,2.71a1.584,1.584,0,0,0,2.239,0l4.021-4.021a1.584,1.584,0,0,0,0-2.239l-2.71-2.71a22,22,0,0,0,3.227-7.776h3.826A1.584,1.584,0,0,0,102.6,39.349ZM75.5,49.462A12.956,12.956,0,1,1,88.455,36.506,12.956,12.956,0,0,1,75.5,49.462Z" fill="#fa759e"/><path d="M31.063,78.8c1.719-1.284,4.358-8.054,14.886-8.964a25.417,25.417,0,0,1,9.41,1.024l3.426,1.005a39.264,39.264,0,0,0,11.037,1.583H84.486a5.472,5.472,0,0,1,4.875,3.011l18.747-14.774a5.852,5.852,0,0,1,9.28,3.1,5.852,5.852,0,0,0-9.28-6.1L89.361,73.455a5.472,5.472,0,0,0-4.875-3.011H69.822a39.264,39.264,0,0,1-11.037-1.583l-3.426-1.005a25.417,25.417,0,0,0-9.41-1.024c-10.528.91-13.167,7.68-14.886,8.964-.471.352-6.407,4.2-7.56,4.948l1.361,2.117C27.019,81.462,30.7,79.07,31.063,78.8Z" fill="#fff"/><rect x="12.505" y="79.245" width="19.327" height="34.589" rx="4.512" ry="4.512" transform="translate(-48.712 27.35) rotate(-32.759)" fill="#6dc9f7"/><circle cx="25.286" cy="104.923" r="2.5" fill="#fa759e"/><path d="M49.982,41.933h3.024a22.909,22.909,0,0,0,2.755,6.636l-2.143,2.142a2.588,2.588,0,0,0,0,3.654l4.021,4.021a2.643,2.643,0,0,0,3.653,0l2.142-2.142A22.873,22.873,0,0,0,70.072,59v3.024a2.586,2.586,0,0,0,2.583,2.584h5.687a2.587,2.587,0,0,0,2.584-2.584V59a22.879,22.879,0,0,0,6.636-2.754L89.7,58.386a2.589,2.589,0,0,0,3.654,0l4.021-4.021a2.587,2.587,0,0,0,0-3.654l-2.143-2.142a22.854,22.854,0,0,0,2.755-6.636h3.025a2.588,2.588,0,0,0,2.583-2.584V33.662a2.587,2.587,0,0,0-2.583-2.583H97.991a22.848,22.848,0,0,0-2.755-6.637L97.379,22.3a2.587,2.587,0,0,0,0-3.654l-4.021-4.021a2.589,2.589,0,0,0-3.654,0l-2.142,2.141a22.876,22.876,0,0,0-6.636-2.753V10.99a2.587,2.587,0,0,0-2.584-2.584H72.655a2.586,2.586,0,0,0-2.583,2.584v3.024a22.871,22.871,0,0,0-6.637,2.753l-2.142-2.141a2.644,2.644,0,0,0-3.653,0l-4.022,4.02a2.588,2.588,0,0,0,0,3.654l2.142,2.142a22.9,22.9,0,0,0-2.755,6.637H49.982A2.586,2.586,0,0,0,47.4,33.662v5.687A2.587,2.587,0,0,0,49.982,41.933ZM49.4,33.662a.584.584,0,0,1,.583-.583h3.827a1,1,0,0,0,.98-.8,20.923,20.923,0,0,1,3.08-7.423,1,1,0,0,0-.126-1.259l-2.71-2.71a.586.586,0,0,1,0-.826l4.021-4.02a.6.6,0,0,1,.825,0l2.71,2.709a1,1,0,0,0,1.259.127,20.923,20.923,0,0,1,7.423-3.08,1,1,0,0,0,.8-.98V10.99a.584.584,0,0,1,.583-.584h5.687a.585.585,0,0,1,.584.584v3.826a1,1,0,0,0,.8.98,20.909,20.909,0,0,1,7.423,3.08,1,1,0,0,0,1.259-.127l2.709-2.709a.584.584,0,0,1,.826,0l4.021,4.02a.586.586,0,0,1,0,.826l-2.71,2.71a1,1,0,0,0-.127,1.259,20.886,20.886,0,0,1,3.08,7.423,1,1,0,0,0,.98.8h3.828a.584.584,0,0,1,.583.583v5.687a.584.584,0,0,1-.583.584H97.188a1,1,0,0,0-.98.8,20.9,20.9,0,0,1-3.08,7.423,1,1,0,0,0,.127,1.259l2.71,2.709a.586.586,0,0,1,0,.826l-4.021,4.02a.584.584,0,0,1-.826,0l-2.709-2.71a1,1,0,0,0-1.259-.127,20.922,20.922,0,0,1-7.423,3.081,1,1,0,0,0-.8.98v3.826a.585.585,0,0,1-.584.584H72.655a.584.584,0,0,1-.583-.584V58.2a1,1,0,0,0-.8-.98,20.915,20.915,0,0,1-7.423-3.08,1,1,0,0,0-1.259.126l-2.711,2.71a.6.6,0,0,1-.824,0l-4.021-4.021a.586.586,0,0,1,0-.826l2.71-2.709a1,1,0,0,0,.126-1.259,20.935,20.935,0,0,1-3.08-7.424,1,1,0,0,0-.98-.8H49.982a.584.584,0,0,1-.583-.584Z" fill="#3a2c60"/><path d="M75.5,50.462A13.956,13.956,0,1,0,61.543,36.506,13.972,13.972,0,0,0,75.5,50.462Zm0-25.912A11.956,11.956,0,1,1,63.543,36.506,11.969,11.969,0,0,1,75.5,24.55Z" fill="#3a2c60"/><path d="M116.7,58.558a6.826,6.826,0,0,0-9.211-.663L89.612,71.984a6.438,6.438,0,0,0-5.126-2.54H69.822A38.239,38.239,0,0,1,59.066,67.9l-3.424-1a26.317,26.317,0,0,0-9.779-1.062c-8.724.755-12.351,5.4-14.3,7.892A8.759,8.759,0,0,1,30.465,75c-.265.2-2.875,1.906-6.729,4.405a5.466,5.466,0,0,0-7.13-1.036L7.942,83.939a5.518,5.518,0,0,0-1.654,7.616l13.824,21.5a5.505,5.505,0,0,0,7.619,1.655L36.4,109.14a5.518,5.518,0,0,0,1.655-7.615l-.843-1.311c4.358-2.678,7.709-4.623,8.279-4.8,2.312-.654,7.326.437,12.632,1.594,5.151,1.123,10.477,2.284,14.9,2.284,5.761,0,10.438-2.932,13.347-5.392.57-.483,2.468-2.1,5.051-4.3l.36-.307a1,1,0,1,0-1.3-1.523l-.36.307c-2.581,2.2-4.477,3.815-5.046,4.3-2.653,2.245-6.9,4.919-12.055,4.919-4.209,0-9.428-1.137-14.475-2.238-5.8-1.264-10.807-2.358-13.6-1.564-.965.273-5.618,3.077-8.815,5.044L24.882,81.041c2.387-1.548,6.365-4.134,6.78-4.443a9,9,0,0,0,1.477-1.64c1.885-2.412,5.04-6.45,12.9-7.13a24.345,24.345,0,0,1,9.041.988l3.426,1a40.213,40.213,0,0,0,11.318,1.624H84.486a4.471,4.471,0,0,1,3.985,2.466h0a4.451,4.451,0,0,1,.483,2.028,4.5,4.5,0,0,1-4.494,4.5H58.305a1,1,0,1,0,0,2H84.46a6.5,6.5,0,0,0,6.494-6.5,6.428,6.428,0,0,0-.375-2.169l18.148-14.3a4.854,4.854,0,0,1,6.2,7.467l-11.98,10.211a1,1,0,0,0,1.3,1.523L116.23,68.45a6.853,6.853,0,0,0,.47-9.892Zm-81.387,48.9-8.664,5.576a3.512,3.512,0,0,1-4.854-1.055L7.971,90.474a3.516,3.516,0,0,1,1.053-4.853l8.664-5.575a3.491,3.491,0,0,1,1.894-.56,3.562,3.562,0,0,1,.752.081A3.489,3.489,0,0,1,22.543,81.1l13.824,21.506A3.515,3.515,0,0,1,35.313,107.458Z" fill="#3a2c60"/><path d="M99.706,79.907l-5.785,4.93a1,1,0,1,0,1.3,1.522L101,81.429a1,1,0,0,0-1.3-1.522Z" fill="#3a2c60"/><path d="M25.286,101.423a3.5,3.5,0,1,0,3.5,3.5A3.5,3.5,0,0,0,25.286,101.423Zm0,5a1.5,1.5,0,1,1,1.5-1.5A1.5,1.5,0,0,1,25.286,106.423Z" fill="#3a2c60"/></svg>
