<?xml version="1.0" encoding="iso-8859-1"?><svg height="512" viewBox="0 0 128 128" width="512" xmlns="http://www.w3.org/2000/svg"><path d="m116.5 13.035h-101a8.009 8.009 0 0 0 -8 8v70.55a8.009 8.009 0 0 0 8 8h38.666l-1.208 8.078a5.407 5.407 0 0 1 -5.314 4.58h-.514a5.729 5.729 0 0 0 -5.722 5.722 1 1 0 0 0 1 1h47.184a1 1 0 0 0 1-1 5.729 5.729 0 0 0 -5.722-5.722h-.514a5.407 5.407 0 0 1 -5.314-4.58l-1.208-8.078h38.666a8.009 8.009 0 0 0 8-8v-70.55a8.009 8.009 0 0 0 -8-8z" fill="#e6e7e8"/><rect fill="#6dc9f7" height="84.549" rx="7" transform="matrix(-1 0 0 -1 124 104.62)" width="115" x="4.5" y="10.035"/><path d="m112.5 10.035h-3a7 7 0 0 1 7 7v70.55a7 7 0 0 1 -7 7h3a7 7 0 0 0 7-7v-70.55a7 7 0 0 0 -7-7z" fill="#fff"/><rect fill="#d4fbff" height="64.78" rx="5" transform="matrix(-1 0 0 -1 124 99.418)" width="100.433" x="11.783" y="17.319"/><rect fill="#ffd7e5" height="82.853" rx="2" transform="matrix(0 1 -1 0 97.116 -26.884)" width="18.323" x="52.839" y="-6.311"/><rect fill="#fa759e" height="22.749" rx="2" transform="matrix(0 1 -1 0 118.208 -5.792)" width="15.231" x="54.384" y="44.834"/><rect fill="#fa759e" height="22.749" rx="2" transform="matrix(0 1 -1 0 88.156 24.261)" width="15.231" x="24.332" y="44.834"/><rect fill="#fa759e" height="22.749" rx="2" transform="matrix(0 1 -1 0 148.261 -35.844)" width="15.231" x="84.437" y="44.834"/><path d="m80.87 109.243h-.513a6.374 6.374 0 0 1 -6.3-5.432l-1.379-9.226h-21.352l-1.379 9.226a6.374 6.374 0 0 1 -6.3 5.432h-.517a4.722 4.722 0 0 0 -4.722 4.722h47.184a4.722 4.722 0 0 0 -4.722-4.722z" fill="#0089ef"/><circle cx="62" cy="88.113" fill="#0089ef" r="3.121"/><g fill="#3a2c60"><path d="m10.783 22.318v54.782a6.007 6.007 0 0 0 6 6h90.434a6.007 6.007 0 0 0 6-6v-54.782a6.007 6.007 0 0 0 -6-6h-90.434a6.007 6.007 0 0 0 -6 6zm100.434 0v54.782a4 4 0 0 1 -4 4h-90.434a4 4 0 0 1 -4-4v-54.782a4 4 0 0 1 4-4h90.434a4 4 0 0 1 4 4z"/><path d="m51.656 69.1h20.688a1 1 0 0 0 0-2h-20.688a1 1 0 1 0 0 2z"/><path d="m51.656 74.249h20.688a1 1 0 0 0 0-2h-20.688a1 1 0 0 0 0 2z"/><path d="m21.6 69.1h20.692a1 1 0 0 0 0-2h-20.692a1 1 0 0 0 0 2z"/><path d="m21.6 74.249h20.692a1 1 0 0 0 0-2h-20.692a1 1 0 0 0 0 2z"/><path d="m81.708 69.1h20.692a1 1 0 0 0 0-2h-20.692a1 1 0 0 0 0 2z"/><path d="m81.708 74.249h20.692a1 1 0 0 0 0-2h-20.692a1 1 0 0 0 0 2z"/><path d="m31.167 11.035h8.833a1 1 0 0 0 0-2h-8.833a1 1 0 0 0 0 2z"/><path d="m112.5 9.035h-68.178a1 1 0 0 0 0 2h68.178a6.007 6.007 0 0 1 6 6v70.55a6.006 6.006 0 0 1 -6 6h-101a6.006 6.006 0 0 1 -6-6v-70.55a6.007 6.007 0 0 1 6-6h15.5a1 1 0 0 0 0-2h-15.5a8.009 8.009 0 0 0 -8 8v70.55a8.009 8.009 0 0 0 8 8h38.666l-1.208 8.078a5.406 5.406 0 0 1 -5.314 4.579h-.514a5.729 5.729 0 0 0 -5.722 5.723 1 1 0 0 0 1 1h47.184a1 1 0 0 0 1-1 5.729 5.729 0 0 0 -5.722-5.723h-.514a5.406 5.406 0 0 1 -5.314-4.579l-1.208-8.078h38.666a8.009 8.009 0 0 0 8-8v-70.55a8.009 8.009 0 0 0 -8-8zm-39.437 94.923a7.419 7.419 0 0 0 7.293 6.284h.514a3.731 3.731 0 0 1 3.586 2.723h-44.912a3.731 3.731 0 0 1 3.586-2.723h.514a7.419 7.419 0 0 0 7.293-6.284l1.251-8.373h19.624z"/></g></svg>