<?xml version="1.0" encoding="iso-8859-1"?><svg xmlns="http://www.w3.org/2000/svg" viewBox="0 0 128 128" width="512" height="512"><path d="M122.678,111.464l-12.6-11.625a1,1,0,0,0-1.678.735v4.735h-8.346A52.824,52.824,0,0,0,65.823,13.06V8.176a1,1,0,0,0-1.679-.735L58.7,12.465l-1.642,1.15a52.73,52.73,0,0,0-27.464,91.694H10a1,1,0,0,0-1,1v11.78a1,1,0,0,0,1,1h98.4v4.734a1,1,0,0,0,1.678.736l12.6-11.624a1,1,0,0,0,0-1.471ZM36.837,93.186A38.506,38.506,0,0,1,25.589,65.379,39.461,39.461,0,0,1,58.865,27.29l5.279,4.871a1,1,0,0,0,1.679-.735V26.843a39.429,39.429,0,0,1,38.233,38.536A38.5,38.5,0,0,1,92.809,93.186a40.647,40.647,0,0,1-27.986,12.1A40.647,40.647,0,0,1,36.837,93.186Z" fill="#e6e7e8"/><path d="M92.627,71.666a2.731,2.731,0,0,0,2.729-2.728V62.729A2.733,2.733,0,0,0,92.627,60H89.252A24.873,24.873,0,0,0,86.2,52.647l2.391-2.391a2.728,2.728,0,0,0,0-3.859L84.2,42.006a2.733,2.733,0,0,0-3.86,0L77.951,44.4A24.907,24.907,0,0,0,70.6,41.345V37.97a2.732,2.732,0,0,0-2.729-2.729H61.66a2.732,2.732,0,0,0-2.729,2.729v3.375A24.907,24.907,0,0,0,51.578,44.4l-2.391-2.391a2.732,2.732,0,0,0-3.859,0L40.937,46.4a2.729,2.729,0,0,0,0,3.859l2.391,2.391A24.888,24.888,0,0,0,40.277,60H36.9a2.733,2.733,0,0,0-2.729,2.73v6.209A2.731,2.731,0,0,0,36.9,71.666h3.375a24.9,24.9,0,0,0,3.051,7.354l-2.391,2.389a2.73,2.73,0,0,0,0,3.86l4.391,4.39a2.792,2.792,0,0,0,3.859,0l2.391-2.389a24.9,24.9,0,0,0,7.353,3.051V93.7a2.732,2.732,0,0,0,2.729,2.729h6.209A2.732,2.732,0,0,0,70.6,93.7V90.321a24.9,24.9,0,0,0,7.353-3.051l2.39,2.389a2.793,2.793,0,0,0,3.86,0l4.39-4.39a2.728,2.728,0,0,0,0-3.86L86.2,79.02a24.9,24.9,0,0,0,3.051-7.354Z" fill="#e6e7e8"/><path d="M118,108.2,105.4,96.574v5.735h-12A51.8,51.8,0,0,0,60.823,10.05V4.176L53.95,10.517a51.775,51.775,0,0,0-25.7,91.792H6v11.78h99.4v5.735ZM20.589,61.362a40.292,40.292,0,0,1,34.6-39.131l5.631,5.194v-5.6a40.28,40.28,0,0,1,40.233,39.532c.385,22.249-18.068,40.495-40.233,40.927C38.658,101.857,20.2,83.611,20.589,61.362Z" fill="#0089ef"/><circle cx="60.764" cy="61.833" r="14.147" fill="#ffd7e5"/><path d="M60.764,50.685A14.149,14.149,0,0,1,74.831,63.333a14.148,14.148,0,1,0-28.133,0A14.148,14.148,0,0,1,60.764,50.685Z" fill="#fff"/><path d="M90.356,64.937V58.728A1.729,1.729,0,0,0,88.627,57H84.448a24.03,24.03,0,0,0-3.522-8.491l2.958-2.959a1.727,1.727,0,0,0,0-2.445l-4.39-4.391a1.73,1.73,0,0,0-2.446,0L74.09,41.672A24.026,24.026,0,0,0,65.6,38.149V33.97a1.729,1.729,0,0,0-1.729-1.729H57.66a1.729,1.729,0,0,0-1.729,1.729v4.179a24.019,24.019,0,0,0-8.492,3.523l-2.958-2.959a1.73,1.73,0,0,0-2.446,0L37.645,43.1a1.727,1.727,0,0,0,0,2.445L40.6,48.508A24.051,24.051,0,0,0,37.08,57H32.9a1.729,1.729,0,0,0-1.729,1.729v6.209a1.73,1.73,0,0,0,1.729,1.73H37.08A24.032,24.032,0,0,0,40.6,75.158l-2.958,2.959a1.727,1.727,0,0,0,0,2.445l4.39,4.391a1.73,1.73,0,0,0,2.446,0l2.958-2.959a24.019,24.019,0,0,0,8.492,3.523V89.7a1.729,1.729,0,0,0,1.729,1.729h6.209A1.729,1.729,0,0,0,65.6,89.7V85.517a24.026,24.026,0,0,0,8.492-3.523l2.958,2.959a1.73,1.73,0,0,0,2.446,0l4.39-4.391a1.727,1.727,0,0,0,0-2.445l-2.958-2.959a24.051,24.051,0,0,0,3.523-8.491h4.178A1.73,1.73,0,0,0,90.356,64.937ZM60.764,75.98A14.147,14.147,0,1,1,74.912,61.833,14.147,14.147,0,0,1,60.764,75.98Z" fill="#fa759e"/><path d="M118.678,107.464l-12.6-11.625a1,1,0,0,0-1.679.735v4.736H96.053A52.823,52.823,0,0,0,61.823,9.06V4.177a1,1,0,0,0-1.678-.736L53.51,9.562A52.7,52.7,0,0,0,25.631,101.31H6a1,1,0,0,0-1,1v11.779a1,1,0,0,0,1,1H27.4a1,1,0,1,0,0-2H7V103.31H60.022A42.646,42.646,0,0,0,90.235,90.588a40.488,40.488,0,0,0,11.821-29.243A41.43,41.43,0,0,0,60.823,20.83a1,1,0,0,0-1,1v3.313L49.7,15.8,59.823,6.46v3.591a1,1,0,0,0,1,1,51.018,51.018,0,0,1,51.012,51.888c-.46,27.653-23.729,50.15-51.868,50.15H44.234a1,1,0,0,0,0,2H104.4v4.734a1,1,0,0,0,1.679.736l12.6-11.624a1,1,0,0,0,0-1.471Zm-58.533-79.3a1,1,0,0,0,1.678-.735V22.843A39.429,39.429,0,0,1,100.056,61.38,38.5,38.5,0,0,1,88.809,89.186a40.65,40.65,0,0,1-27.986,12.1,40.649,40.649,0,0,1-27.987-12.1,38.5,38.5,0,0,1-11.247-27.8A39.447,39.447,0,0,1,54.882,23.306Zm-12.6-11.625L53.03,21.6A41.468,41.468,0,0,0,19.589,61.345,40.489,40.489,0,0,0,31.41,90.588,42.705,42.705,0,0,0,48.974,101.31H28.709A50.805,50.805,0,0,1,50.836,12.029l-3.292,3.036a1,1,0,0,0,0,1.471Zm58.855,101v-3.451a1,1,0,0,0-1-1H74.5A54.316,54.316,0,0,0,93.68,103.31H105.4a1,1,0,0,0,1-1V98.857l10.126,9.342Z" fill="#3a2c60"/><path d="M40.067,113.089H31.4a1,1,0,0,0,0,2h8.666a1,1,0,1,0,0-2Z" fill="#3a2c60"/><path d="M47.578,40.4l-2.39-2.39a2.731,2.731,0,0,0-3.86,0L36.937,42.4a2.729,2.729,0,0,0,0,3.86l2.39,2.39A24.878,24.878,0,0,0,36.277,56H32.9a2.732,2.732,0,0,0-2.729,2.729v6.209a2.733,2.733,0,0,0,2.729,2.73h3.375a24.862,24.862,0,0,0,3.051,7.352l-2.39,2.391a2.727,2.727,0,0,0,0,3.859l4.39,4.391a2.731,2.731,0,0,0,3.86,0l2.39-2.391a24.852,24.852,0,0,0,7.353,3.051V89.7a2.733,2.733,0,0,0,2.729,2.73h6.209A2.733,2.733,0,0,0,66.6,89.7V86.32a24.852,24.852,0,0,0,7.353-3.051l2.39,2.391a2.731,2.731,0,0,0,3.86,0l4.391-4.391a2.728,2.728,0,0,0,0-3.859L82.2,75.019a24.862,24.862,0,0,0,3.051-7.352h3.375a2.733,2.733,0,0,0,2.729-2.73V58.728A2.732,2.732,0,0,0,88.627,56H85.252A24.878,24.878,0,0,0,82.2,48.646l2.39-2.39a2.728,2.728,0,0,0,0-3.86l-4.39-4.39a2.731,2.731,0,0,0-3.86,0l-2.39,2.39a24.876,24.876,0,0,0-7.353-3.05V33.971a2.733,2.733,0,0,0-2.729-2.73H57.66a2.733,2.733,0,0,0-2.729,2.73v3.375A24.876,24.876,0,0,0,47.578,40.4Zm8.551-1.266a1,1,0,0,0,.8-.981V33.971a.73.73,0,0,1,.729-.73h6.209a.73.73,0,0,1,.729.73v4.178a1,1,0,0,0,.8.981,22.935,22.935,0,0,1,8.139,3.376,1,1,0,0,0,1.259-.127l2.958-2.959a.734.734,0,0,1,1.032,0l4.39,4.39a.729.729,0,0,1,0,1.032L80.218,47.8a1,1,0,0,0-.126,1.259A22.925,22.925,0,0,1,83.468,57.2a1,1,0,0,0,.98.8h4.179a.73.73,0,0,1,.729.729v6.209a.73.73,0,0,1-.729.73H84.448a1,1,0,0,0-.98.8,22.913,22.913,0,0,1-3.376,8.137,1,1,0,0,0,.126,1.26l2.959,2.959a.728.728,0,0,1,0,1.031l-4.39,4.391a.732.732,0,0,1-1.032,0L74.8,81.287a1,1,0,0,0-1.259-.127A22.953,22.953,0,0,1,65.4,84.536a1,1,0,0,0-.8.981V89.7a.73.73,0,0,1-.729.73H57.66a.73.73,0,0,1-.729-.73V85.517a1,1,0,0,0-.8-.981,22.948,22.948,0,0,1-8.138-3.376,1,1,0,0,0-1.259.127l-2.959,2.959a.731.731,0,0,1-1.031,0l-4.39-4.391a.728.728,0,0,1,0-1.031l2.959-2.959a1,1,0,0,0,.126-1.26,22.913,22.913,0,0,1-3.376-8.137,1,1,0,0,0-.98-.8H32.9a.73.73,0,0,1-.729-.73V58.728A.73.73,0,0,1,32.9,58h4.179a1,1,0,0,0,.98-.8,22.925,22.925,0,0,1,3.376-8.138,1,1,0,0,0-.126-1.259l-2.959-2.959a.729.729,0,0,1,0-1.032l4.39-4.39a.733.733,0,0,1,1.031,0l2.959,2.959a1,1,0,0,0,1.259.127A22.93,22.93,0,0,1,56.129,39.13Z" fill="#3a2c60"/><path d="M60.764,76.98A15.148,15.148,0,1,0,45.617,61.833,15.164,15.164,0,0,0,60.764,76.98Zm0-28.295A13.148,13.148,0,1,1,47.617,61.833,13.163,13.163,0,0,1,60.764,48.685Z" fill="#3a2c60"/></svg>
