<?xml version="1.0" encoding="utf-8"?><svg xmlns="http://www.w3.org/2000/svg" viewBox="0 0 176.73 47.04"><title>postgresql-tutorial-dark</title><path d="M266.89,414.26h-2V420h-1.77V404.87h4.15c3.3,0,5.1,1.71,5.1,4.51C272.38,412,270.58,414.26,266.89,414.26Zm.09-7.79H264.9v6.2h1.86c2.46,0,3.76-1.19,3.76-3.2S269.4,406.47,267,406.47Z" transform="translate(-208.9 -397.33)" style="fill:#c7c7c6"/><path d="M281.32,420.25c-4.41,0-7.09-3.24-7.09-7.65,0-4.6,2.57-8,7.35-8,4.17,0,6.95,3.09,6.95,7.62C288.53,417.24,285.64,420.25,281.32,420.25Zm.13-14c-3.15,0-5.36,2.5-5.36,6.24s2.18,6.2,5.23,6.2,5.36-2.12,5.36-6.18S284.58,406.21,281.45,406.21Z" transform="translate(-208.9 -397.33)" style="fill:#c7c7c6"/><path d="M294.21,420.25a7.48,7.48,0,0,1-3.41-.87v-2.09a6,6,0,0,0,3.65,1.36c2.23,0,2.92-1.12,2.92-2.27,0-1.36-.93-2.14-3.18-3.41-2.52-1.43-3.37-2.59-3.37-4.32,0-2.25,1.82-4,4.8-4a8.19,8.19,0,0,1,3,.54v2a5.11,5.11,0,0,0-3.07-.93c-1.83,0-2.85,1-2.85,2.29,0,1.49.82,2.11,2.94,3.28,2.35,1.3,3.61,2.51,3.61,4.39C299.23,418.32,297.78,420.25,294.21,420.25Z" transform="translate(-208.9 -397.33)" style="fill:#c7c7c6"/><path d="M306.83,406.47V420h-1.77V406.47h-4.37v-1.6h10.5v1.6Z" transform="translate(-208.9 -397.33)" style="fill:#c7c7c6"/><path d="M318.84,420.25c-4.21,0-7.24-2.94-7.24-7.63a7.65,7.65,0,0,1,7.84-8,10.14,10.14,0,0,1,4.15.8v2a8.31,8.31,0,0,0-4.34-1.16c-3.35,0-5.79,2.55-5.79,6.28,0,4,2.33,6.16,5.59,6.16a6.63,6.63,0,0,0,3.07-.71V413.7h-3.3v-1.6h5.07V419A10,10,0,0,1,318.84,420.25Z" transform="translate(-208.9 -397.33)" style="fill:#c7c7c6"/><path d="M335,420l-2-4.56c-.58-1.36-1.32-1.88-2.31-1.88h-1.53V420h-1.78V404.87h4.52c3.06,0,4.6,1.73,4.6,4a4.13,4.13,0,0,1-3.37,4.19v0a3.54,3.54,0,0,1,1.55,1.79l2.42,5.08Zm-3.42-13.52h-2.41V412h2.33a2.88,2.88,0,0,0,3.15-2.91C334.67,407.46,333.63,406.47,331.6,406.47Z" transform="translate(-208.9 -397.33)" style="fill:#c7c7c6"/><path d="M339.83,420V404.87h7.67v1.6h-5.9v5h5.47v1.6H341.6v5.29h6.25V420Z" transform="translate(-208.9 -397.33)" style="fill:#c7c7c6"/><path d="M353.46,420.25a7.48,7.48,0,0,1-3.41-.87v-2.09a6,6,0,0,0,3.65,1.36c2.22,0,2.92-1.12,2.92-2.27,0-1.36-.93-2.14-3.18-3.41-2.53-1.43-3.37-2.59-3.37-4.32,0-2.25,1.81-4,4.8-4a8.19,8.19,0,0,1,3,.54v2a5.16,5.16,0,0,0-3.07-.93c-1.84,0-2.85,1-2.85,2.29,0,1.49.82,2.11,2.94,3.28,2.35,1.3,3.6,2.51,3.6,4.39C358.47,418.32,357,420.25,353.46,420.25Z" transform="translate(-208.9 -397.33)" style="fill:#c7c7c6"/><path d="M369.38,420l3.52,3.67h-2.44l-3-3.45c-4.23,0-7-3.18-7-7.65s2.45-8,7.39-8c4.1,0,6.91,3.07,6.91,7.62C374.8,416.4,372.84,419.25,369.38,420Zm-1.66-13.82c-3.16,0-5.36,2.5-5.36,6.24s2.18,6.2,5.23,6.2c3.2,0,5.36-2.12,5.36-6.18S370.85,406.21,367.72,406.21Z" transform="translate(-208.9 -397.33)" style="fill:#c7c7c6"/><path d="M377.79,420V404.87h1.76v13.52h6.07V420Z" transform="translate(-208.9 -397.33)" style="fill:#c7c7c6"/><path d="M265.52,427.89v9h-1.18v-9h-2.91v-1.06h7v1.06Z" transform="translate(-208.9 -397.33)" style="fill:#c7c7c6"/><path d="M282.13,437.08c-2.32,0-3.68-1.28-3.68-4.09v-6.16h1.19v6.09c0,2,.83,3.1,2.62,3.1,1.51,0,2.52-.8,2.52-3v-6.19H286v6C286,435.73,284.62,437.08,282.13,437.08Z" transform="translate(-208.9 -397.33)" style="fill:#c7c7c6"/><path d="M300.1,427.89v9h-1.18v-9H296v-1.06h7v1.06Z" transform="translate(-208.9 -397.33)" style="fill:#c7c7c6"/><path d="M316.57,437.08c-2.94,0-4.72-2.16-4.72-5.1s1.71-5.33,4.89-5.33c2.78,0,4.64,2.06,4.64,5.09C321.38,435.08,319.45,437.08,316.57,437.08Zm.09-9.36c-2.1,0-3.57,1.67-3.57,4.16s1.45,4.14,3.48,4.14,3.57-1.42,3.57-4.12S318.75,427.72,316.66,427.72Z" transform="translate(-208.9 -397.33)" style="fill:#c7c7c6"/><path d="M337,436.91l-1.33-3c-.39-.91-.88-1.25-1.54-1.25h-1v4.29h-1.18V426.83h3c2,0,3.06,1.15,3.06,2.67a2.75,2.75,0,0,1-2.24,2.8v0a2.33,2.33,0,0,1,1,1.19l1.62,3.39Zm-2.28-9h-1.61v3.66h1.55a1.93,1.93,0,0,0,2.11-1.94C336.78,428.55,336.08,427.89,334.73,427.89Z" transform="translate(-208.9 -397.33)" style="fill:#c7c7c6"/><path d="M348.78,436.91V426.83H350v10.08Z" transform="translate(-208.9 -397.33)" style="fill:#c7c7c6"/><path d="M367.68,436.91l-1.07-2.82h-4.28l-1,2.82H360l3.86-10.08h1.22L369,436.91Zm-3-8.18a4.74,4.74,0,0,1-.16-.68h0a3.69,3.69,0,0,1-.16.68L362.72,433h3.5Z" transform="translate(-208.9 -397.33)" style="fill:#c7c7c6"/><path d="M379,436.91V426.83h1.18v9h4v1.07Z" transform="translate(-208.9 -397.33)" style="fill:#c7c7c6"/><polygon points="12.1 10.67 12.1 21.67 19.1 21.67 19.1 35.67 22.1 35.67 22.1 10.67 12.1 10.67" style="fill:#f9bc15"/><path d="M227.21,410.93a.67.67,0,0,1,.67-.67.61.61,0,0,1,.3.08.66.66,0,0,1,0,1.18.61.61,0,0,1-.3.08A.67.67,0,0,1,227.21,410.93Z" transform="translate(-208.9 -397.33)" style="fill:#fff"/><polygon points="26.1 10.67 26.1 35.67 30.1 35.67 30.1 21.67 36.1 21.67 36.1 10.67 26.1 10.67" style="fill:#f05423"/><path d="M238,411a.52.52,0,0,1-.3-.08.63.63,0,0,1-.36-.58.65.65,0,0,1,.36-.6.73.73,0,0,1,.3-.07.67.67,0,1,1,0,1.33Z" transform="translate(-208.9 -397.33)" style="fill:#fff"/><path d="M211.91,420.85c0,10.85,9.09,19.73,19.09,20.47v3c-11-.74-22.1-11-22.1-23.48S220,398.1,231,397.36v3C221,401.11,211.91,410,211.91,420.85Z" transform="translate(-208.9 -397.33)" style="fill:#2dabe2"/><path d="M257.68,420.85c0,12.7-10.68,23.06-22.68,23.51v-3a20.51,20.51,0,0,0,0-41v-3C247,397.78,257.68,408.14,257.68,420.85Z" transform="translate(-208.9 -397.33)" style="fill:#84c441"/></svg>