<svg width="22" height="22" viewBox="0 0 22 22" fill="none" xmlns="http://www.w3.org/2000/svg">
<path d="M6.7195 4.18066C4.9061 5.18018 3.5019 6.78552 2.75261 8.71582C2.00332 10.6461 1.95664 12.7784 2.62076 14.7396" stroke="#00E599" stroke-miterlimit="10" stroke-linecap="round"/>
<path d="M3.34097 18.1163C4.31828 18.1163 5.11054 17.324 5.11054 16.3467C5.11054 15.3694 4.31828 14.5771 3.34097 14.5771C2.36367 14.5771 1.57141 15.3694 1.57141 16.3467C1.57141 17.324 2.36367 18.1163 3.34097 18.1163Z" stroke="#00E599" stroke-miterlimit="10" stroke-linecap="square"/>
<path d="M17.6296 17.7695C16.2646 19.3242 14.3962 20.3493 12.3515 20.6652C10.3068 20.9811 8.21617 20.5677 6.44556 19.4975" stroke="#00E599" stroke-miterlimit="10" stroke-linecap="round"/>
<path d="M19.8514 12.0833C19.8514 12.0298 19.8536 11.9758 19.8536 11.9218C19.8531 9.87935 19.146 7.89994 17.8522 6.31949C16.5584 4.73904 14.7576 3.65488 12.7555 3.25098" stroke="#00E599" stroke-miterlimit="10" stroke-linecap="round"/>
<path d="M18.6624 18.1153C19.6397 18.1153 20.4319 17.323 20.4319 16.3457C20.4319 15.3684 19.6397 14.5762 18.6624 14.5762C17.6851 14.5762 16.8928 15.3684 16.8928 16.3457C16.8928 17.323 17.6851 18.1153 18.6624 18.1153Z" stroke="#00E599" stroke-miterlimit="10" stroke-linecap="square"/>
<path d="M11.0017 4.84381C11.979 4.84381 12.7713 4.05155 12.7713 3.07425C12.7713 2.09695 11.979 1.30469 11.0017 1.30469C10.0244 1.30469 9.23218 2.09695 9.23218 3.07425C9.23218 4.05155 10.0244 4.84381 11.0017 4.84381Z" stroke="#00E599" stroke-miterlimit="10" stroke-linecap="square"/>
</svg>
