<svg width="22" height="22" viewBox="0 0 22 22" fill="none" xmlns="http://www.w3.org/2000/svg">
<path d="M20.0028 2H2V8.54648H20.0028V2Z" stroke="#00E599" stroke-linecap="round" stroke-linejoin="round"/>
<path d="M5.2749 5.27539H8.54814" stroke="#00E599" stroke-linecap="round" stroke-linejoin="round"/>
<path d="M17.047 5.27534C17.047 5.45114 16.9045 5.59365 16.7287 5.59365C16.5529 5.59365 16.4104 5.45114 16.4104 5.27534C16.4104 5.09954 16.5529 4.95703 16.7287 4.95703C16.9045 4.95703 17.047 5.09954 17.047 5.27534Z" fill="#C9CBCF" stroke="#00E599"/>
<path d="M20.0028 13.4531H2V19.9996H20.0028V13.4531Z" stroke="#00E599" stroke-linecap="round" stroke-linejoin="round"/>
<path d="M5.2749 16.7285H8.54814" stroke="#00E599" stroke-linecap="round" stroke-linejoin="round"/>
<path d="M17.047 16.7285C17.047 16.9043 16.9045 17.0468 16.7287 17.0468C16.5529 17.0468 16.4104 16.9043 16.4104 16.7285C16.4104 16.5527 16.5529 16.4102 16.7287 16.4102C16.9045 16.4102 17.047 16.5527 17.047 16.7285Z" fill="#C9CBCF" stroke="#00E599"/>
</svg>
