<svg width="20" height="20" viewBox="0 0 20 20" fill="none" xmlns="http://www.w3.org/2000/svg">
  <path d="M4.087 12.1C3.303 12.1 2.667 11.464 2.667 10.68C2.667 9.896 3.303 9.26 4.087 9.26H6.927V10.68C6.927 11.464 6.291 12.1 5.507 12.1H4.087Z" fill="currentColor"/>
  <path d="M4.087 12.1C3.303 12.1 2.667 12.736 2.667 13.52V16.36C2.667 17.144 3.303 17.78 4.087 17.78C4.871 17.78 5.507 17.144 5.507 16.36V13.52C5.507 12.736 4.871 12.1 4.087 12.1Z" fill="currentColor"/>
  <path d="M15.913 7.9C16.697 7.9 17.333 8.536 17.333 9.32C17.333 10.104 16.697 10.74 15.913 10.74H13.073V9.32C13.073 8.536 13.709 7.9 14.493 7.9H15.913Z" fill="currentColor"/>
  <path d="M15.913 7.9C16.697 7.9 17.333 7.264 17.333 6.48V3.64C17.333 2.856 16.697 2.22 15.913 2.22C15.129 2.22 14.493 2.856 14.493 3.64V6.48C14.493 7.264 15.129 7.9 15.913 7.9Z" fill="currentColor"/>
  <path d="M7.9 15.913C7.9 16.697 7.264 17.333 6.48 17.333C5.696 17.333 5.06 16.697 5.06 15.913V13.073H6.48C7.264 13.073 7.9 13.709 7.9 14.493V15.913Z" fill="currentColor"/>
  <path d="M7.9 15.913C7.9 16.697 8.536 17.333 9.32 17.333H12.16C12.944 17.333 13.58 16.697 13.58 15.913C13.58 15.129 12.944 14.493 12.16 14.493H9.32C8.536 14.493 7.9 15.129 7.9 15.913Z" fill="currentColor"/>
  <path d="M12.1 4.087C12.1 3.303 12.736 2.667 13.52 2.667C14.304 2.667 14.94 3.303 14.94 4.087V6.927H13.52C12.736 6.927 12.1 6.291 12.1 5.507V4.087Z" fill="currentColor"/>
  <path d="M12.1 4.087C12.1 3.303 11.464 2.667 10.68 2.667H7.84C7.056 2.667 6.42 3.303 6.42 4.087C6.42 4.871 7.056 5.507 7.84 5.507H10.68C11.464 5.507 12.1 4.871 12.1 4.087Z" fill="currentColor"/>
</svg>
