<svg width="16" height="16" viewBox="0 0 16 16" fill="currentColor" fill-rule="evenodd" xmlns="http://www.w3.org/2000/svg" class="size-4 flex-none"><path fill-rule="evenodd" clip-rule="evenodd" d="M8.00002 3.5C5.44236 3.5 3.50002 5.35972 3.50002 7.5C3.50002 8.309 3.77012 9.06542 4.24366 9.70176C4.34612 9.83945 4.39826 10.0081 4.39137 10.1796C4.36395 10.8622 4.27076 11.5626 4.1044 12.1773C4.09859 12.1988 4.09265 12.2202 4.08659 12.2418C4.72919 12.0547 5.30844 11.7776 5.73519 11.4065C5.93382 11.2338 6.20847 11.1778 6.45886 11.259C6.9381 11.4145 7.45682 11.5 8.00002 11.5C10.5577 11.5 12.5 9.64028 12.5 7.5C12.5 5.35972 10.5577 3.5 8.00002 3.5ZM2.00002 7.5C2.00002 4.39358 4.7587 2 8.00002 2C11.2413 2 14 4.39358 14 7.5C14 10.6064 11.2413 13 8.00002 13C7.4431 13 6.90262 12.9304 6.38892 12.7995C5.35531 13.5417 4.00112 13.8874 2.81917 13.9968C2.50259 14.0261 2.20193 13.8526 2.06887 13.5639C1.93581 13.2751 1.99926 12.9339 2.22722 12.7123C2.35251 12.5904 2.5188 12.2941 2.6565 11.7854C2.76913 11.3693 2.84493 10.8777 2.87918 10.3688C2.32415 9.53736 2.00002 8.55481 2.00002 7.5Z" fill="currentColor"></path></svg>