<svg width="104" height="24" viewBox="0 0 104 24" fill="none" xmlns="http://www.w3.org/2000/svg">
    <g clip-path="url(#clip0_14506_227905)">
        <path fill-rule="evenodd" clip-rule="evenodd"
              d="M25.3865 3.30577C26.5775 4.3967 27.5304 5.68595 28.1769 7.17354C28.8235 8.62812 29.1298 10.2149 29.0957 11.9008V11.9339C29.0957 13.6529 28.7895 15.2396 28.1429 16.7273C27.4963 18.2148 26.5435 19.5372 25.3184 20.6281C24.1274 21.719 22.6641 22.5455 20.9626 23.1405C19.3292 23.7024 17.4575 24 15.4157 24H12.3529V18.5124H15.4157C16.8109 18.5124 18.07 18.3471 19.0909 17.9835C20.0778 17.6529 20.8945 17.157 21.541 16.595C22.1536 16.0331 22.63 15.4049 22.9703 14.6116C23.3106 13.7851 23.4808 12.9256 23.4808 11.9339V11.8678C23.4808 10.876 23.3106 10.0165 22.9703 9.22313C22.6641 8.49588 22.1877 7.86775 21.5751 7.30578C20.9285 6.74381 20.1118 6.31405 19.159 5.98347C18.1381 5.61984 16.913 5.45453 15.5178 5.45453H11.9786V7.90079V14.7769L0 11.3389L6.32958 9.3223V0H15.5178C17.5595 0 19.3972 0.264462 21.0306 0.859506C22.7321 1.42149 24.1954 2.24793 25.3865 3.30577ZM35.8672 6.02148H40.1889C42.0949 6.02148 43.5921 6.51732 44.613 7.50905C45.6339 8.5008 46.1785 9.8892 46.1785 11.6743C46.1785 13.4264 45.6678 14.8479 44.613 15.8397C43.5921 16.8314 42.0949 17.3272 40.1889 17.3272H35.8672V6.02148ZM38.1132 15.5421H40.087C42.7073 15.5421 44.0005 14.2859 43.9664 11.6743C43.9664 9.06275 42.6731 7.80659 40.0531 7.80659H38.1132V15.5421ZM47.3308 9.45551H49.5087V17.3563H47.3308V9.45551ZM47.2969 8.59599H49.4748V6.87695H47.2969V8.59599ZM62.6465 9.25977C63.3273 9.25977 63.9739 9.45805 64.518 9.78864C65.0629 10.1193 65.505 10.6151 65.8115 11.2762C66.0838 11.8713 66.2536 12.5986 66.2536 13.425C66.2536 14.2514 66.1177 14.9787 65.8115 15.5738C65.505 16.1688 65.0968 16.6647 64.5519 16.9952C64.0078 17.3259 63.3951 17.4911 62.6804 17.4911C62.1019 17.4911 61.5575 17.3589 61.1152 17.1275C60.707 16.9291 60.4005 16.6317 60.1623 16.301V20.3341H57.9844V9.45805H60.1282V10.4828C60.3666 10.1193 60.6728 9.8217 61.0813 9.62336C61.5237 9.39195 62.0677 9.25977 62.6465 9.25977ZM62.0677 15.8382C62.6804 15.8382 63.1567 15.6399 63.4971 15.2432C63.8375 14.8135 64.0078 14.2514 64.0078 13.4581C64.0078 12.6977 63.8375 12.1027 63.4971 11.673C63.1567 11.2432 62.6804 11.0449 62.0677 11.0449C61.4556 11.0449 60.979 11.2762 60.6389 11.673C60.2985 12.1027 60.1282 12.6977 60.1282 13.4581C60.1282 14.2184 60.2985 14.8135 60.6389 15.2101C60.979 15.6399 61.4556 15.8382 62.0677 15.8382ZM80.5144 15.8083C80.2426 15.8414 80.0042 15.8414 79.7658 15.8414C78.8135 15.8414 78.3367 15.3455 78.3367 14.3537V11.048H80.3446L81.3997 9.42816H78.3028V6.84961H76.1248V9.42816H74.5938V11.048H76.1248V14.3868C76.1248 15.3785 76.3971 16.1719 76.9415 16.6678C77.4861 17.1637 78.3367 17.4282 79.4596 17.4282C79.7319 17.4282 80.2087 17.3951 80.5144 17.362V15.8083ZM93.5161 9.25713C94.4692 9.25713 95.2178 9.55468 95.6946 10.0836C96.1709 10.6125 96.4093 11.439 96.4432 12.4968V17.3232H94.2646V12.596C94.2646 12.0009 94.163 11.5711 93.9251 11.3068C93.7206 11.0423 93.3463 10.91 92.87 10.91C92.3254 10.91 91.8491 11.0753 91.5087 11.439C91.1683 11.8026 90.998 12.2654 90.998 12.8604V17.3232H88.8203V6.87695H90.9641V10.4142C91.2364 10.0505 91.5768 9.78603 91.985 9.58775C92.4274 9.35633 92.9381 9.25713 93.5161 9.25713ZM100.686 3C101.262 3 101.783 3.13147 102.249 3.39439C102.722 3.65734 103.093 4.01819 103.364 4.47692C103.635 4.93005 103.77 5.43635 103.77 5.99582C103.77 6.55525 103.635 7.06435 103.364 7.52311C103.093 7.97621 102.722 8.33706 102.249 8.60561C101.778 8.86853 101.256 9 100.686 9C100.111 9 99.5863 8.86853 99.1142 8.60561C98.6474 8.33706 98.2763 7.97621 97.9996 7.52311C97.729 7.06435 97.5938 6.55525 97.5938 5.99582C97.5938 5.43635 97.729 4.93005 97.9996 4.47692C98.2707 4.01819 98.6418 3.65734 99.1142 3.39439C99.5863 3.13147 100.111 3 100.686 3ZM100.686 8.58041C101.182 8.58041 101.628 8.4685 102.025 8.24478C102.429 8.0154 102.745 7.70489 102.975 7.31327C103.205 6.91607 103.321 6.47694 103.321 5.99582C103.321 5.51469 103.205 5.07833 102.975 4.6867C102.745 4.28951 102.429 3.97903 102.025 3.75525C101.628 3.53147 101.182 3.41959 100.686 3.41959C100.191 3.41959 99.742 3.53147 99.3385 3.75525C98.9353 3.97903 98.6191 4.28951 98.3886 4.6867C98.1581 5.07833 98.0426 5.51469 98.0426 5.99582C98.0426 6.47694 98.1581 6.91607 98.3886 7.31327C98.6191 7.70489 98.9353 8.0154 99.3385 8.24478C99.742 8.4685 100.191 8.58041 100.686 8.58041ZM101.308 6.3231C101.539 6.37901 101.712 6.51331 101.826 6.72589L102.448 7.76646H101.576L100.92 6.63353C100.862 6.54408 100.801 6.48251 100.738 6.44897C100.674 6.40981 100.591 6.39018 100.487 6.39018H100.116V7.76646H99.3299V4.22517H100.92C101.334 4.22517 101.653 4.32028 101.878 4.51049C102.103 4.7007 102.216 4.96365 102.216 5.29931C102.216 5.56782 102.134 5.7944 101.974 5.97902C101.818 6.15803 101.596 6.2727 101.308 6.3231ZM100.824 5.82797C101.038 5.82797 101.196 5.78881 101.3 5.7105C101.403 5.62656 101.455 5.49789 101.455 5.32448C101.455 5.15103 101.403 5.02516 101.3 4.94685C101.201 4.86295 101.043 4.82098 100.824 4.82098H100.107V5.82797H100.824ZM86.5784 15.5735C86.9527 15.4413 87.2928 15.2429 87.6332 14.9785L87.6671 14.9124V16.8297L87.6595 16.8329C87.4236 16.9311 87.1879 17.0291 86.9185 17.1272C86.34 17.2925 85.7618 17.3917 85.183 17.3917C84.3324 17.3917 83.5838 17.2264 82.9714 16.8959C82.3587 16.5652 81.8824 16.1024 81.542 15.4743C81.2016 14.8463 81.0312 14.1521 81.0312 13.3256C81.0312 12.5322 81.2016 11.8049 81.542 11.1768C81.8824 10.5487 82.3926 10.0528 83.0392 9.72226C83.6519 9.35867 84.4005 9.19336 85.251 9.19336C85.7957 9.19336 86.3739 9.29253 86.9185 9.45784C87.1909 9.55701 87.4287 9.65613 87.6332 9.75533V11.7057L87.5993 11.6727C87.2589 11.4082 86.9185 11.2099 86.5443 11.0777C86.2041 10.9454 85.8299 10.8793 85.4556 10.8793C85.1491 10.8793 84.8767 10.9454 84.6389 11.0115C84.5752 11.0486 84.5068 11.0811 84.4373 11.1141C84.3208 11.1694 84.2009 11.2263 84.0943 11.3091C84.0249 11.3541 83.9712 11.4143 83.9224 11.4691L83.9224 11.4691C83.8995 11.4948 83.8777 11.5193 83.8558 11.5404C83.4815 11.9702 83.2776 12.5652 83.2776 13.3586C83.2776 14.119 83.4815 14.714 83.8558 15.1437L83.8583 15.1461L83.8583 15.1462C83.9598 15.2446 84.0609 15.3426 84.162 15.4082C84.2985 15.5074 84.4686 15.5735 84.6389 15.6397C84.8767 15.7388 85.1829 15.7719 85.4895 15.7719C85.8299 15.7719 86.2041 15.7058 86.5784 15.5735ZM73.3297 10.0589C72.7847 9.52997 71.9345 9.23242 70.7774 9.23242C70.1989 9.23242 69.5862 9.3316 68.9734 9.4969C68.565 9.62914 68.0548 9.82749 67.6127 10.0259L67.5779 11.844C68.0209 11.5796 68.8715 11.1828 69.3477 11.0507C69.7904 10.9184 70.2328 10.8523 70.6748 10.8523C71.1859 10.8523 71.5941 10.9515 71.7977 11.1828C72.0361 11.4143 72.1381 11.7779 72.1381 12.2738V12.5713H71.7977C70.6071 12.5713 69.6539 12.6374 68.9734 12.8027C68.2926 12.968 67.7825 13.1994 67.4763 13.53C67.1698 13.8605 67 14.3234 67 14.9184C67 15.3812 67.1359 15.8109 67.3743 16.1746C67.6127 16.5383 67.987 16.8688 68.4291 17.0672C68.8715 17.2986 69.3822 17.3977 69.9263 17.3977C70.4712 17.3977 70.9475 17.2655 71.3556 17.0341C71.696 16.8357 71.9684 16.5713 72.1381 16.2407V17.2655H74.2141V12.5713C74.146 11.4473 73.8737 10.6209 73.3297 10.0589ZM72.0361 14.2242C72.0361 14.7861 71.8664 15.1498 71.526 15.5135C71.1859 15.8771 70.7429 16.0424 70.1989 16.0424C69.8246 16.0424 69.5181 15.9432 69.2796 15.7118C69.0418 15.5135 68.9392 15.249 68.9392 14.8853C68.9392 14.6209 69.0418 14.4225 69.1777 14.2572C69.3477 14.0919 69.6539 13.9927 70.063 13.9266C70.4712 13.8605 71.0833 13.8275 71.8325 13.8275H72.0703V14.2242H72.0361ZM53.9392 9.26562C54.5178 9.26562 55.0624 9.36483 55.6068 9.53011C55.9472 9.62931 56.2873 9.79459 56.5596 9.95983V11.8111L56.4915 11.778C55.6748 11.183 54.6878 10.7863 53.8712 10.7863C53.4288 10.7863 53.0887 10.8524 52.8503 11.0177C52.6121 11.183 52.5102 11.3814 52.5102 11.6458C52.5102 11.8441 52.5779 12.0094 52.7141 12.1417C52.8844 12.2739 53.1226 12.3731 53.463 12.4392L54.824 12.7367C55.6068 12.902 56.2195 13.1995 56.5938 13.5632C56.9681 13.9598 57.1723 14.4557 57.1723 15.0508C57.1723 15.778 56.8658 16.3731 56.2534 16.8028C55.6406 17.2326 54.7901 17.464 53.7692 17.464C53.0545 17.464 52.4079 17.3648 51.7955 17.1995C51.4551 17.1004 51.1147 17.0012 50.8426 16.8359V14.9516L50.9107 14.9846C51.7613 15.5797 52.7141 15.8772 53.8031 15.8772C54.2796 15.8772 54.6197 15.8111 54.8582 15.6789C55.0963 15.5466 55.1986 15.3483 55.1986 15.0838C55.1986 14.8524 55.1305 14.7202 54.9601 14.5879C54.7901 14.4888 54.5178 14.3566 54.0754 14.2574L52.7822 13.9598C52.0336 13.7946 51.4892 13.5301 51.1147 13.1665C50.7746 12.7697 50.5703 12.307 50.5703 11.712C50.5703 11.2491 50.7404 10.7863 51.0127 10.4227C51.285 10.059 51.6932 9.76155 52.2036 9.56317C52.6802 9.36483 53.2926 9.26562 53.9392 9.26562Z"
              fill="white"/>
        <path fill-rule="evenodd" clip-rule="evenodd"
              d="M25.3865 3.30577C26.5775 4.3967 27.5304 5.68595 28.1769 7.17354C28.8235 8.62812 29.1298 10.2149 29.0957 11.9008V11.9339C29.0957 13.6529 28.7895 15.2396 28.1429 16.7273C27.4963 18.2148 26.5435 19.5372 25.3184 20.6281C24.1274 21.719 22.6641 22.5455 20.9626 23.1405C19.3292 23.7024 17.4575 24 15.4157 24H12.3529V18.5124H15.4157C16.8109 18.5124 18.07 18.3471 19.0909 17.9835C20.0778 17.6529 20.8945 17.157 21.541 16.595C22.1536 16.0331 22.63 15.4049 22.9703 14.6116C23.3106 13.7851 23.4808 12.9256 23.4808 11.9339V11.8678C23.4808 10.876 23.3106 10.0165 22.9703 9.22313C22.6641 8.49588 22.1877 7.86775 21.5751 7.30578C20.9285 6.74381 20.1118 6.31405 19.159 5.98347C18.1381 5.61984 16.913 5.45453 15.5178 5.45453H11.9786V7.90079V14.7769L0 11.3389L6.32958 9.3223V0H15.5178C17.5595 0 19.3972 0.264462 21.0306 0.859506C22.7321 1.42149 24.1954 2.24793 25.3865 3.30577ZM35.8672 6.02148H40.1889C42.0949 6.02148 43.5921 6.51732 44.613 7.50905C45.6339 8.5008 46.1785 9.8892 46.1785 11.6743C46.1785 13.4264 45.6678 14.8479 44.613 15.8397C43.5921 16.8314 42.0949 17.3272 40.1889 17.3272H35.8672V6.02148ZM38.1132 15.5421H40.087C42.7073 15.5421 44.0005 14.2859 43.9664 11.6743C43.9664 9.06275 42.6731 7.80659 40.0531 7.80659H38.1132V15.5421ZM47.3308 9.45551H49.5087V17.3563H47.3308V9.45551ZM47.2969 8.59599H49.4748V6.87695H47.2969V8.59599ZM62.6465 9.25977C63.3273 9.25977 63.9739 9.45805 64.518 9.78864C65.0629 10.1193 65.505 10.6151 65.8115 11.2762C66.0838 11.8713 66.2536 12.5986 66.2536 13.425C66.2536 14.2514 66.1177 14.9787 65.8115 15.5738C65.505 16.1688 65.0968 16.6647 64.5519 16.9952C64.0078 17.3259 63.3951 17.4911 62.6804 17.4911C62.1019 17.4911 61.5575 17.3589 61.1152 17.1275C60.707 16.9291 60.4005 16.6317 60.1623 16.301V20.3341H57.9844V9.45805H60.1282V10.4828C60.3666 10.1193 60.6728 9.8217 61.0813 9.62336C61.5237 9.39195 62.0677 9.25977 62.6465 9.25977ZM62.0677 15.8382C62.6804 15.8382 63.1567 15.6399 63.4971 15.2432C63.8375 14.8135 64.0078 14.2514 64.0078 13.4581C64.0078 12.6977 63.8375 12.1027 63.4971 11.673C63.1567 11.2432 62.6804 11.0449 62.0677 11.0449C61.4556 11.0449 60.979 11.2762 60.6389 11.673C60.2985 12.1027 60.1282 12.6977 60.1282 13.4581C60.1282 14.2184 60.2985 14.8135 60.6389 15.2101C60.979 15.6399 61.4556 15.8382 62.0677 15.8382ZM80.5144 15.8083C80.2426 15.8414 80.0042 15.8414 79.7658 15.8414C78.8135 15.8414 78.3367 15.3455 78.3367 14.3537V11.048H80.3446L81.3997 9.42816H78.3028V6.84961H76.1248V9.42816H74.5938V11.048H76.1248V14.3868C76.1248 15.3785 76.3971 16.1719 76.9415 16.6678C77.4861 17.1637 78.3367 17.4282 79.4596 17.4282C79.7319 17.4282 80.2087 17.3951 80.5144 17.362V15.8083ZM93.5161 9.25713C94.4692 9.25713 95.2178 9.55468 95.6946 10.0836C96.1709 10.6125 96.4093 11.439 96.4432 12.4968V17.3232H94.2646V12.596C94.2646 12.0009 94.163 11.5711 93.9251 11.3068C93.7206 11.0423 93.3463 10.91 92.87 10.91C92.3254 10.91 91.8491 11.0753 91.5087 11.439C91.1683 11.8026 90.998 12.2654 90.998 12.8604V17.3232H88.8203V6.87695H90.9641V10.4142C91.2364 10.0505 91.5768 9.78603 91.985 9.58775C92.4274 9.35633 92.9381 9.25713 93.5161 9.25713ZM100.686 3C101.262 3 101.783 3.13147 102.249 3.39439C102.722 3.65734 103.093 4.01819 103.364 4.47692C103.635 4.93005 103.77 5.43635 103.77 5.99582C103.77 6.55525 103.635 7.06435 103.364 7.52311C103.093 7.97621 102.722 8.33706 102.249 8.60561C101.778 8.86853 101.256 9 100.686 9C100.111 9 99.5863 8.86853 99.1142 8.60561C98.6474 8.33706 98.2763 7.97621 97.9996 7.52311C97.729 7.06435 97.5938 6.55525 97.5938 5.99582C97.5938 5.43635 97.729 4.93005 97.9996 4.47692C98.2707 4.01819 98.6418 3.65734 99.1142 3.39439C99.5863 3.13147 100.111 3 100.686 3ZM100.686 8.58041C101.182 8.58041 101.628 8.4685 102.025 8.24478C102.429 8.0154 102.745 7.70489 102.975 7.31327C103.205 6.91607 103.321 6.47694 103.321 5.99582C103.321 5.51469 103.205 5.07833 102.975 4.6867C102.745 4.28951 102.429 3.97903 102.025 3.75525C101.628 3.53147 101.182 3.41959 100.686 3.41959C100.191 3.41959 99.742 3.53147 99.3385 3.75525C98.9353 3.97903 98.6191 4.28951 98.3886 4.6867C98.1581 5.07833 98.0426 5.51469 98.0426 5.99582C98.0426 6.47694 98.1581 6.91607 98.3886 7.31327C98.6191 7.70489 98.9353 8.0154 99.3385 8.24478C99.742 8.4685 100.191 8.58041 100.686 8.58041ZM101.308 6.3231C101.539 6.37901 101.712 6.51331 101.826 6.72589L102.448 7.76646H101.576L100.92 6.63353C100.862 6.54408 100.801 6.48251 100.738 6.44897C100.674 6.40981 100.591 6.39018 100.487 6.39018H100.116V7.76646H99.3299V4.22517H100.92C101.334 4.22517 101.653 4.32028 101.878 4.51049C102.103 4.7007 102.216 4.96365 102.216 5.29931C102.216 5.56782 102.134 5.7944 101.974 5.97902C101.818 6.15803 101.596 6.2727 101.308 6.3231ZM100.824 5.82797C101.038 5.82797 101.196 5.78881 101.3 5.7105C101.403 5.62656 101.455 5.49789 101.455 5.32448C101.455 5.15103 101.403 5.02516 101.3 4.94685C101.201 4.86295 101.043 4.82098 100.824 4.82098H100.107V5.82797H100.824ZM86.5784 15.5735C86.9527 15.4413 87.2928 15.2429 87.6332 14.9785L87.6671 14.9124V16.8297L87.6595 16.8329C87.4236 16.9311 87.1879 17.0291 86.9185 17.1272C86.34 17.2925 85.7618 17.3917 85.183 17.3917C84.3324 17.3917 83.5838 17.2264 82.9714 16.8959C82.3587 16.5652 81.8824 16.1024 81.542 15.4743C81.2016 14.8463 81.0312 14.1521 81.0312 13.3256C81.0312 12.5322 81.2016 11.8049 81.542 11.1768C81.8824 10.5487 82.3926 10.0528 83.0392 9.72226C83.6519 9.35867 84.4005 9.19336 85.251 9.19336C85.7957 9.19336 86.3739 9.29253 86.9185 9.45784C87.1909 9.55701 87.4287 9.65613 87.6332 9.75533V11.7057L87.5993 11.6727C87.2589 11.4082 86.9185 11.2099 86.5443 11.0777C86.2041 10.9454 85.8299 10.8793 85.4556 10.8793C85.1491 10.8793 84.8767 10.9454 84.6389 11.0115C84.5752 11.0486 84.5068 11.0811 84.4373 11.1141C84.3208 11.1694 84.2009 11.2263 84.0943 11.3091C84.0249 11.3541 83.9712 11.4143 83.9224 11.4691L83.9224 11.4691C83.8995 11.4948 83.8777 11.5193 83.8558 11.5404C83.4815 11.9702 83.2776 12.5652 83.2776 13.3586C83.2776 14.119 83.4815 14.714 83.8558 15.1437L83.8583 15.1461L83.8583 15.1462C83.9598 15.2446 84.0609 15.3426 84.162 15.4082C84.2985 15.5074 84.4686 15.5735 84.6389 15.6397C84.8767 15.7388 85.1829 15.7719 85.4895 15.7719C85.8299 15.7719 86.2041 15.7058 86.5784 15.5735ZM73.3297 10.0589C72.7847 9.52997 71.9345 9.23242 70.7774 9.23242C70.1989 9.23242 69.5862 9.3316 68.9734 9.4969C68.565 9.62914 68.0548 9.82749 67.6127 10.0259L67.5779 11.844C68.0209 11.5796 68.8715 11.1828 69.3477 11.0507C69.7904 10.9184 70.2328 10.8523 70.6748 10.8523C71.1859 10.8523 71.5941 10.9515 71.7977 11.1828C72.0361 11.4143 72.1381 11.7779 72.1381 12.2738V12.5713H71.7977C70.6071 12.5713 69.6539 12.6374 68.9734 12.8027C68.2926 12.968 67.7825 13.1994 67.4763 13.53C67.1698 13.8605 67 14.3234 67 14.9184C67 15.3812 67.1359 15.8109 67.3743 16.1746C67.6127 16.5383 67.987 16.8688 68.4291 17.0672C68.8715 17.2986 69.3822 17.3977 69.9263 17.3977C70.4712 17.3977 70.9475 17.2655 71.3556 17.0341C71.696 16.8357 71.9684 16.5713 72.1381 16.2407V17.2655H74.2141V12.5713C74.146 11.4473 73.8737 10.6209 73.3297 10.0589ZM72.0361 14.2242C72.0361 14.7861 71.8664 15.1498 71.526 15.5135C71.1859 15.8771 70.7429 16.0424 70.1989 16.0424C69.8246 16.0424 69.5181 15.9432 69.2796 15.7118C69.0418 15.5135 68.9392 15.249 68.9392 14.8853C68.9392 14.6209 69.0418 14.4225 69.1777 14.2572C69.3477 14.0919 69.6539 13.9927 70.063 13.9266C70.4712 13.8605 71.0833 13.8275 71.8325 13.8275H72.0703V14.2242H72.0361ZM53.9392 9.26562C54.5178 9.26562 55.0624 9.36483 55.6068 9.53011C55.9472 9.62931 56.2873 9.79459 56.5596 9.95983V11.8111L56.4915 11.778C55.6748 11.183 54.6878 10.7863 53.8712 10.7863C53.4288 10.7863 53.0887 10.8524 52.8503 11.0177C52.6121 11.183 52.5102 11.3814 52.5102 11.6458C52.5102 11.8441 52.5779 12.0094 52.7141 12.1417C52.8844 12.2739 53.1226 12.3731 53.463 12.4392L54.824 12.7367C55.6068 12.902 56.2195 13.1995 56.5938 13.5632C56.9681 13.9598 57.1723 14.4557 57.1723 15.0508C57.1723 15.778 56.8658 16.3731 56.2534 16.8028C55.6406 17.2326 54.7901 17.464 53.7692 17.464C53.0545 17.464 52.4079 17.3648 51.7955 17.1995C51.4551 17.1004 51.1147 17.0012 50.8426 16.8359V14.9516L50.9107 14.9846C51.7613 15.5797 52.7141 15.8772 53.8031 15.8772C54.2796 15.8772 54.6197 15.8111 54.8582 15.6789C55.0963 15.5466 55.1986 15.3483 55.1986 15.0838C55.1986 14.8524 55.1305 14.7202 54.9601 14.5879C54.7901 14.4888 54.5178 14.3566 54.0754 14.2574L52.7822 13.9598C52.0336 13.7946 51.4892 13.5301 51.1147 13.1665C50.7746 12.7697 50.5703 12.307 50.5703 11.712C50.5703 11.2491 50.7404 10.7863 51.0127 10.4227C51.285 10.059 51.6932 9.76155 52.2036 9.56317C52.6802 9.36483 53.2926 9.26562 53.9392 9.26562Z"
              fill="url(#paint0_linear_14506_227905)"/>
    </g>
    <defs>
        <linearGradient id="paint0_linear_14506_227905" x1="9.23911" y1="0" x2="9.23911" y2="23.493"
                        gradientUnits="userSpaceOnUse">
            <stop stop-color="white"/>
            <stop offset="1" stop-color="#C7CAD1"/>
        </linearGradient>
        <clipPath id="clip0_14506_227905">
            <rect width="104" height="24" fill="white"/>
        </clipPath>
    </defs>
</svg>
