<svg width="97" height="24" viewBox="0 0 97 24" fill="none" xmlns="http://www.w3.org/2000/svg">
    <path fill-rule="evenodd" clip-rule="evenodd"
          d="M34.4907 1.63599C34.4907 2.53953 33.7583 3.27198 32.8547 3.27198C31.9512 3.27198 31.2188 2.53953 31.2188 1.63599C31.2188 0.732459 31.9512 0 32.8547 0C33.7583 0 34.4907 0.732459 34.4907 1.63599ZM7.03359 3.60273C7.03359 5.54501 5.45907 7.11953 3.5168 7.11953C1.57452 7.11953 0 5.54501 0 3.60273C0 1.66046 1.57452 0.0859375 3.5168 0.0859375C5.45907 0.0859375 7.03359 1.66046 7.03359 3.60273ZM21.5082 1.32031H7.38629C7.78284 1.98976 8.01069 2.77048 8.01069 3.6042C8.01069 4.43791 7.7793 5.23012 7.37746 5.9031L7.40108 5.90153H7.40108H7.40109H7.40109H7.40109H7.4011H7.4011H7.40111H7.40111H7.40112H7.40112H7.40112H7.40113H7.40113H7.40114H7.40114H7.40115H7.40115H7.40115H7.40116H7.40116H7.40117H7.40117C7.43505 5.89924 7.4694 5.89691 7.50375 5.89691H18.9974C20.036 5.89691 20.8776 6.73858 20.8776 7.77719V16.1532C20.8776 17.1918 20.036 18.0335 18.9974 18.0335H7.50375C6.46514 18.0335 5.62348 17.1918 5.62348 16.1532V7.77719C5.62348 7.70565 5.62878 7.635 5.63584 7.56435C5.00526 7.90172 4.28635 8.09337 3.52153 8.09337C2.60656 8.09337 1.75606 7.8187 1.04688 7.34973V17.7473C1.04688 20.4516 3.23891 22.6436 5.94319 22.6436H20.7143C23.2587 22.6436 25.3209 20.5814 25.3209 18.037V5.13297C25.3209 3.02749 23.6137 1.32031 21.5082 1.32031ZM33.7138 4.16406H31.5703V15.1675H34.4901V4.94037C34.4901 4.51203 34.1421 4.16406 33.7138 4.16406ZM45.1172 4.28125L48.9466 15.1752H51.7843L55.5793 4.28125H53.6204C53.0375 4.28125 52.5235 4.66278 52.3557 5.22095L50.3482 11.8845L48.0917 4.28125H45.1172ZM60.4965 4C64.2561 4 65.3495 7.11937 65.3495 8.9864V10.3986H58.2029C58.2029 12.0528 59.003 13.0658 60.4965 13.0658C61.9899 13.0658 62.5763 11.7861 62.5763 11.7861H65.1631C65.1631 11.7861 64.6032 15.2799 60.3896 15.2799C55.5365 15.2799 55.4297 10.7996 55.4297 10.1866V8.85304C55.4297 6.16024 57.6429 4 60.4965 4ZM58.2029 8.66669H62.443C62.443 8.66669 62.7106 6.39958 60.3366 6.39958C57.9626 6.39958 58.2029 8.66669 58.2029 8.66669ZM40.3416 4C36.075 4 35.6484 6.98689 35.6484 8.66669V15.1677H38.4481L38.3951 8.13325C38.3951 6.88003 39.4231 6.19292 40.3831 6.19292C41.6363 6.19292 42.2855 7.09376 42.2855 7.92041V13.6169C42.2855 14.4735 42.9797 15.1677 43.8363 15.1677H45.1169V7.65369C45.1169 7.28011 44.6082 4 40.3416 4ZM66.0625 8.66669C66.0625 6.98689 66.4891 4 70.7557 4C75.0223 4 75.531 7.28011 75.531 7.65369V15.1677H74.2504C73.3937 15.1677 72.6995 14.4735 72.6995 13.6169V7.92041C72.6995 7.09376 72.0504 6.19292 70.7972 6.19292C69.8372 6.19292 68.8092 6.88003 68.8092 8.13325L68.8622 15.1677H66.0625V8.66669ZM83.2534 7.5047H86.0628C86.0628 7.5047 85.3518 3.98438 81.3334 3.98438C78.4534 3.98438 76.6305 6.37159 76.498 8.14412C76.3912 9.56603 76.2136 12.0195 77.7071 13.762C79.0943 15.3806 80.8192 15.3417 81.4277 15.328C81.4742 15.327 81.5143 15.3261 81.5471 15.3261C82.5071 15.3261 85.2803 15.0064 86.205 11.8058H84.5278L84.4944 11.8057C84.0176 11.8056 83.6269 11.8054 83.3214 12.1325L83.2945 12.1614C82.983 12.4968 82.5322 12.9821 81.5109 12.9821C80.4599 12.9821 79.0751 12.3789 79.0751 9.7197C79.0751 7.06047 80.3266 6.36718 81.2875 6.36718C82.2484 6.36718 82.7624 6.54558 83.2543 7.50294L83.2534 7.5047ZM86.6641 9.6866C86.6641 8.37067 86.8319 3.9707 91.6284 3.9707C96.4249 3.9707 96.6112 8.57557 96.6112 9.6866C96.6112 10.7181 96.3525 15.278 91.6284 15.278C86.9043 15.278 86.6641 11.0025 86.6641 9.6866ZM89.3569 9.73076C89.3569 12.5525 90.5023 12.9976 91.646 12.9976V12.9985C92.8366 12.9985 93.975 12.1242 93.975 9.57974C93.975 7.03531 92.7518 6.40031 91.646 6.40031C90.4785 6.40031 89.3569 6.90902 89.3569 9.73076ZM33.1025 22.5365C32.6131 22.5365 32.2306 22.3854 31.9576 22.0842C31.6838 21.7821 31.5469 21.3598 31.5469 20.8166C31.5469 20.2733 31.6794 19.8493 31.9435 19.526C32.2076 19.2027 32.5645 19.041 33.0133 19.041C33.4099 19.041 33.7235 19.1797 33.9523 19.4562C34.182 19.7327 34.2959 20.109 34.2959 20.5843V20.8325H31.8693C31.8737 21.2954 31.9815 21.6487 32.1935 21.8925C32.4055 22.1363 32.7085 22.2582 33.1034 22.2582C33.2959 22.2582 33.4647 22.245 33.6104 22.2176C33.7562 22.1911 33.9408 22.1328 34.1634 22.0445V22.3236C33.9735 22.4066 33.7977 22.4623 33.6369 22.4923C33.4761 22.5224 33.2977 22.5374 33.1034 22.5374L33.1025 22.5365ZM33.0124 19.3131C32.6882 19.3131 32.4276 19.42 32.2315 19.6338C32.0354 19.8475 31.9205 20.1558 31.8879 20.5586H33.9708C33.9708 20.1682 33.886 19.8625 33.7164 19.6426C33.5468 19.4226 33.3127 19.3122 33.0133 19.3122L33.0124 19.3131ZM35.8309 22.0816C36.1038 22.3854 36.481 22.5374 36.9625 22.5374C37.3114 22.5374 37.5941 22.4844 37.8087 22.3793V22.0939C37.5464 22.2035 37.2619 22.2582 36.9563 22.2582C36.5738 22.2582 36.2761 22.1293 36.0632 21.8722C35.8503 21.6151 35.7443 21.283 35.7443 20.8042C35.7443 20.3254 35.8503 19.9579 36.0632 19.7027C36.2761 19.4474 36.5888 19.3202 37.0022 19.3202C37.2178 19.3202 37.4704 19.3687 37.7619 19.4659L37.8458 19.193C37.5799 19.0914 37.3008 19.041 37.0093 19.041C36.5172 19.041 36.1295 19.1965 35.8468 19.5074C35.5632 19.8193 35.4219 20.268 35.4219 20.8113C35.4219 21.3545 35.5579 21.7777 35.8309 22.0816ZM41.6854 20.7857C41.6854 21.3351 41.552 21.7644 41.2852 22.0736C41.0184 22.3828 40.6509 22.5374 40.1819 22.5374C39.8859 22.5374 39.6262 22.4658 39.401 22.3236C39.1757 22.1805 39.0035 21.9764 38.8833 21.7097C38.7632 21.4429 38.7031 21.1355 38.7031 20.7865C38.7031 20.2371 38.8365 19.8087 39.1033 19.5012C39.3701 19.1947 39.7358 19.041 40.2004 19.041C40.6651 19.041 41.0264 19.1965 41.2896 19.5074C41.5529 19.8184 41.6845 20.245 41.6845 20.7857H41.6854ZM39.0256 20.7857C39.0256 21.2485 39.1271 21.6098 39.3312 21.8687C39.5344 22.1284 39.8223 22.2573 40.1942 22.2573C40.5661 22.2573 40.8541 22.1275 41.0573 21.8687C41.2605 21.6098 41.3629 21.2485 41.3629 20.7857C41.3629 20.3228 41.2605 19.9597 41.0546 19.7035C40.8488 19.4474 40.56 19.3193 40.1881 19.3193C39.8162 19.3193 39.5291 19.4465 39.3277 19.7018C39.1263 19.9571 39.0256 20.3184 39.0256 20.7848V20.7857ZM47.1867 20.2645V22.4747H47.4897V20.2707C47.4897 19.8431 47.3978 19.5313 47.2141 19.3352C47.0303 19.1391 46.7538 19.041 46.3864 19.041C46.1505 19.041 45.9403 19.0923 45.7556 19.1956C45.571 19.299 45.4235 19.4474 45.3139 19.6391H45.3016C45.1505 19.2407 44.8095 19.041 44.2786 19.041C44.0719 19.041 43.8829 19.087 43.7115 19.1788C43.5401 19.2707 43.4076 19.4005 43.3149 19.5675H43.2963L43.231 19.1055H42.9766V22.4747H43.2831V20.6152C43.2831 20.162 43.3644 19.8334 43.5251 19.6276C43.6868 19.4217 43.9438 19.3193 44.2972 19.3193C44.8175 19.3193 45.0781 19.6037 45.0781 20.1717V22.4747H45.3908V20.5003C45.3908 20.0931 45.4738 19.7945 45.639 19.6046C45.8042 19.4147 46.0595 19.3193 46.4049 19.3193C46.6699 19.3193 46.866 19.3944 46.9941 19.5454C47.1222 19.6965 47.1867 19.9359 47.1867 20.2645ZM53.1398 22.4747V20.2645C53.1398 19.9359 53.0753 19.6965 52.9472 19.5454C52.8191 19.3944 52.623 19.3193 52.358 19.3193C52.0126 19.3193 51.7573 19.4147 51.5921 19.6046C51.427 19.7945 51.3439 20.0931 51.3439 20.5003V22.4747H51.0312V20.1717C51.0312 19.6037 50.7706 19.3193 50.2503 19.3193C49.897 19.3193 49.6399 19.4217 49.4783 19.6276C49.3175 19.8334 49.2362 20.162 49.2362 20.6152V22.4747H48.9297V19.1055H49.1841L49.2495 19.5675H49.268C49.3608 19.4005 49.4933 19.2707 49.6646 19.1788C49.836 19.087 50.0251 19.041 50.2318 19.041C50.7627 19.041 51.1036 19.2407 51.2547 19.6391H51.2671C51.3766 19.4474 51.5241 19.299 51.7088 19.1956C51.8934 19.0923 52.1036 19.041 52.3395 19.041C52.707 19.041 52.9834 19.1391 53.1672 19.3352C53.3509 19.5313 53.4428 19.8431 53.4428 20.2707V22.4747H53.1398ZM55.1061 22.0842C55.379 22.3854 55.7615 22.5365 56.2509 22.5365L56.2518 22.5374C56.4461 22.5374 56.6246 22.5224 56.7854 22.4923C56.9461 22.4623 57.1219 22.4066 57.3118 22.3236V22.0445C57.0892 22.1328 56.9046 22.1911 56.7589 22.2176C56.6131 22.245 56.4444 22.2582 56.2518 22.2582C55.8569 22.2582 55.5539 22.1363 55.3419 21.8925C55.1299 21.6487 55.0222 21.2954 55.0177 20.8325H57.4443V20.5843C57.4443 20.109 57.3304 19.7327 57.1007 19.4562C56.8719 19.1797 56.5583 19.041 56.1617 19.041C55.7129 19.041 55.3561 19.2027 55.0919 19.526C54.8278 19.8493 54.6953 20.2733 54.6953 20.8166C54.6953 21.3598 54.8322 21.7821 55.1061 22.0842ZM55.3799 19.6338C55.576 19.42 55.8366 19.3131 56.1608 19.3131L56.1617 19.3122C56.4612 19.3122 56.6953 19.4226 56.8649 19.6426C57.0345 19.8625 57.1193 20.1682 57.1193 20.5586H55.0363C55.069 20.1558 55.1838 19.8475 55.3799 19.6338ZM60.0382 19.041C60.1803 19.041 60.3339 19.0552 60.4962 19.0843L60.437 19.3785C60.2966 19.3431 60.1508 19.3255 59.9998 19.3255C59.7127 19.3255 59.4768 19.4474 59.2931 19.6912C59.1093 19.935 59.0175 20.2433 59.0175 20.6152V22.4747H58.7109V19.1055H58.9715L59.0024 19.7133H59.0245C59.1632 19.465 59.3107 19.291 59.468 19.1912C59.6251 19.0914 59.8149 19.0411 60.0382 19.041ZM61.6512 22.0816C61.9241 22.3854 62.3013 22.5374 62.7828 22.5374C63.1317 22.5374 63.4144 22.4844 63.629 22.3793V22.0939C63.3667 22.2035 63.0822 22.2582 62.7766 22.2582C62.3941 22.2582 62.0964 22.1293 61.8835 21.8722C61.6706 21.6151 61.5646 21.283 61.5646 20.8042C61.5646 20.3254 61.6706 19.9579 61.8835 19.7027C62.0964 19.4474 62.4091 19.3202 62.8225 19.3202C63.0381 19.3202 63.2907 19.3687 63.5822 19.4659L63.6661 19.193C63.4002 19.0914 63.1211 19.041 62.8296 19.041C62.3376 19.041 61.9498 19.1965 61.6671 19.5074C61.3835 19.8193 61.2422 20.268 61.2422 20.8113C61.2422 21.3545 61.3782 21.7777 61.6512 22.0816ZM66.1025 22.5365C65.6131 22.5365 65.2306 22.3854 64.9576 22.0842C64.6838 21.7821 64.5469 21.3598 64.5469 20.8166C64.5469 20.2733 64.6794 19.8493 64.9435 19.526C65.2076 19.2027 65.5645 19.041 66.0133 19.041C66.4099 19.041 66.7226 19.1797 66.9523 19.4562C67.182 19.7327 67.2968 20.109 67.2968 20.5843V20.8325H64.8702C64.8746 21.2954 64.9824 21.6487 65.1944 21.8925C65.4064 22.1363 65.7094 22.2582 66.1042 22.2582C66.2968 22.2582 66.4655 22.245 66.6113 22.2176C66.7571 22.1911 66.9417 22.1328 67.1643 22.0445V22.3236C66.9744 22.4066 66.7986 22.4623 66.6378 22.4923C66.477 22.5224 66.2986 22.5374 66.1042 22.5374L66.1025 22.5365ZM66.0124 19.3131C65.6882 19.3131 65.4276 19.42 65.2315 19.6338C65.0354 19.8475 64.9205 20.1558 64.887 20.5586H66.9699C66.9699 20.1682 66.8851 19.8625 66.7155 19.6426C66.5459 19.4226 66.3118 19.3122 66.0124 19.3122V19.3131ZM70.8047 22.4823H71.1111V17.6602H70.8047V22.4823ZM75.3885 20.7857C75.3885 21.3351 75.2551 21.7644 74.9883 22.0736C74.7215 22.3828 74.3541 22.5374 73.885 22.5374C73.5891 22.5374 73.3294 22.4658 73.1041 22.3236C72.8789 22.1805 72.7066 21.9764 72.5865 21.7097C72.4663 21.4429 72.4062 21.1355 72.4062 20.7865C72.4062 20.2371 72.5396 19.8087 72.8064 19.5012C73.0732 19.1947 73.4389 19.041 73.9036 19.041C74.3682 19.041 74.7295 19.1965 74.9927 19.5074C75.256 19.8184 75.3876 20.245 75.3876 20.7857H75.3885ZM72.7287 20.7857C72.7287 21.2485 72.8303 21.6098 73.0343 21.8687C73.2375 22.1284 73.5255 22.2573 73.8974 22.2573C74.2693 22.2573 74.5572 22.1275 74.7604 21.8687C74.9636 21.6098 75.0661 21.2485 75.0661 20.7857C75.0661 20.3228 74.9636 19.9597 74.7578 19.7035C74.5519 19.4474 74.2631 19.3193 73.8912 19.3193C73.5193 19.3193 73.2322 19.4465 73.0308 19.7018C72.8294 19.9571 72.7287 20.3184 72.7287 20.7848V20.7857ZM79.3022 19.3201V19.1064H78.2239C78.102 19.0631 77.9307 19.041 77.7099 19.041C77.346 19.041 77.0572 19.1435 76.8435 19.3466C76.6298 19.5506 76.5229 19.8209 76.5229 20.1573C76.5229 20.3808 76.5777 20.5786 76.6872 20.7508C76.7967 20.9231 76.9495 21.0502 77.1455 21.1306C76.8585 21.3019 76.7145 21.5007 76.7145 21.7259C76.7145 21.8283 76.7455 21.9202 76.8064 21.9996C76.8673 22.0791 76.9486 22.141 77.0502 22.1842C76.8037 22.2399 76.6086 22.3441 76.4655 22.4969C76.3215 22.6488 76.25 22.8413 76.25 23.0727C76.25 23.3641 76.3666 23.5911 76.5989 23.7545C76.8311 23.9179 77.1588 23.9992 77.5827 23.9992C78.1153 23.9992 78.5259 23.9029 78.8139 23.7095C79.1027 23.5161 79.2466 23.2414 79.2466 22.8864C79.2466 22.5976 79.1495 22.3785 78.9552 22.231C78.7609 22.0835 78.4809 22.0094 78.1153 22.0094H77.5262C77.3345 22.0094 77.1976 21.9846 77.1155 21.9352C77.0343 21.8857 76.9936 21.8071 76.9936 21.6994C76.9936 21.6022 77.0254 21.5104 77.0899 21.4238C77.1544 21.3373 77.2471 21.2622 77.369 21.1977C77.4308 21.2101 77.5386 21.2163 77.6913 21.2163C78.0543 21.2163 78.344 21.1156 78.5604 20.9142C78.7768 20.7129 78.8845 20.4497 78.8845 20.1256C78.8845 19.8491 78.7918 19.5948 78.6054 19.3634L79.3022 19.3201ZM78.934 22.8934C78.934 23.4578 78.4915 23.7395 77.6074 23.7395C76.9186 23.7395 76.575 23.5081 76.575 23.0453L76.5759 23.0462C76.5759 22.5605 76.885 22.3176 77.5023 22.3176H78.0543C78.3643 22.3176 78.5878 22.3626 78.7264 22.4536C78.8642 22.5446 78.934 22.6912 78.934 22.8934ZM77.0696 20.7632C76.9115 20.6192 76.832 20.4179 76.832 20.1573L76.8329 20.1565C76.8329 19.8818 76.9097 19.6672 77.0634 19.5135C77.218 19.3598 77.4211 19.283 77.6975 19.283C77.974 19.283 78.1894 19.3545 78.3431 19.4985C78.4977 19.6425 78.5745 19.858 78.5745 20.145C78.5745 20.4161 78.4994 20.6228 78.3493 20.765C78.1992 20.9072 77.9837 20.9787 77.7028 20.9787C77.4388 20.9787 77.2277 20.9063 77.0696 20.7632ZM80.3594 18.1765C80.3594 17.9778 80.4247 17.8789 80.5546 17.8789C80.6181 17.8789 80.6685 17.9045 80.7047 17.9566C80.7409 18.0079 80.7586 18.082 80.7586 18.1765C80.7586 18.271 80.7409 18.3426 80.7047 18.3964C80.6685 18.4503 80.6181 18.4768 80.5546 18.4768C80.4239 18.4768 80.3594 18.377 80.3594 18.1765ZM80.7091 22.4811H80.4026V19.1127H80.7091V22.4811ZM83.9235 22.2936C84.1532 22.131 84.268 21.8996 84.268 21.5975L84.2698 21.5984C84.2698 21.4473 84.2345 21.3157 84.1656 21.2044C84.0958 21.0922 83.9924 20.9924 83.8537 20.9049C83.715 20.8175 83.4942 20.7185 83.1903 20.609C82.8264 20.4791 82.5817 20.3608 82.4571 20.2556C82.3326 20.1505 82.2699 20.0101 82.2699 19.8343C82.2699 19.6735 82.3511 19.5472 82.5119 19.4562C82.6727 19.3652 82.8829 19.3202 83.1656 19.3202C83.4483 19.3202 83.7557 19.3891 84.0861 19.5251L84.2009 19.246C83.8741 19.109 83.5454 19.041 83.1656 19.041C82.7858 19.041 82.4898 19.1143 82.2778 19.261C82.0658 19.4076 81.9598 19.6073 81.9598 19.859C81.9598 20.018 81.9943 20.1532 82.0632 20.2636C82.1321 20.374 82.2354 20.4738 82.3715 20.5613C82.5075 20.6487 82.7442 20.7539 83.0808 20.8758C83.3953 20.9871 83.6205 21.101 83.7583 21.2167C83.8953 21.3325 83.9642 21.4747 83.9642 21.6443C83.9642 21.828 83.8776 21.9756 83.7053 22.086C83.5331 22.1964 83.2804 22.252 82.9474 22.252C82.5711 22.252 82.2142 22.1672 81.875 21.9976V22.3289C82.1391 22.4676 82.4969 22.5365 82.9474 22.5365C83.3688 22.5365 83.6947 22.4561 83.9235 22.2936ZM86.5638 22.2644C86.7581 22.2644 86.9277 22.2476 87.0717 22.2149V22.4631C86.9233 22.5126 86.7511 22.5374 86.5576 22.5374C86.2599 22.5374 86.0408 22.4578 85.8986 22.2988C85.7573 22.1398 85.6866 21.8898 85.6866 21.5489V19.3731H85.1875V19.1929L85.6866 19.0534L85.8412 18.291H85.9993V19.1064H86.9878V19.3731H85.9993V21.5056C85.9993 21.7635 86.0444 21.9552 86.1353 22.0789C86.2263 22.2026 86.3686 22.2653 86.5629 22.2653L86.5638 22.2644ZM88.3514 17.8789C88.2216 17.8789 88.1562 17.9778 88.1562 18.1765C88.1562 18.377 88.2207 18.4768 88.3514 18.4768C88.415 18.4768 88.4654 18.4503 88.5016 18.3964C88.5378 18.3426 88.5554 18.271 88.5554 18.1765C88.5554 18.082 88.5378 18.0079 88.5016 17.9566C88.4654 17.9045 88.415 17.8789 88.3514 17.8789ZM88.1995 22.4811H88.506V19.1127H88.1995V22.4811ZM91.3296 22.5374C90.8482 22.5374 90.471 22.3854 90.1981 22.0816C89.9251 21.7777 89.7891 21.3545 89.7891 20.8113C89.7891 20.268 89.9304 19.8193 90.214 19.5074C90.4966 19.1965 90.8844 19.041 91.3765 19.041C91.668 19.041 91.9471 19.0914 92.213 19.193L92.1291 19.4659C91.8376 19.3687 91.5849 19.3202 91.3694 19.3202C90.956 19.3202 90.6433 19.4474 90.4304 19.7027C90.2175 19.9579 90.1115 20.3254 90.1115 20.8042C90.1115 21.283 90.2175 21.6151 90.4304 21.8722C90.6433 22.1293 90.941 22.2582 91.3235 22.2582C91.6291 22.2582 91.9136 22.2035 92.1759 22.0939V22.3793C91.9613 22.4844 91.6795 22.5374 91.3296 22.5374ZM95.2438 22.2936C95.4735 22.131 95.5883 21.8996 95.5883 21.5975L95.5901 21.5984C95.5901 21.4473 95.5548 21.3157 95.4859 21.2044C95.4161 21.0922 95.3127 20.9924 95.174 20.9049C95.0354 20.8175 94.8145 20.7185 94.5106 20.609C94.1467 20.4791 93.902 20.3608 93.7775 20.2556C93.6529 20.1505 93.5902 20.0101 93.5902 19.8343C93.5902 19.6735 93.6714 19.5472 93.8322 19.4562C93.993 19.3652 94.2032 19.3202 94.4859 19.3202C94.7686 19.3202 95.076 19.3891 95.4064 19.5251L95.5212 19.246C95.1944 19.109 94.8658 19.041 94.4859 19.041C94.1061 19.041 93.8101 19.1143 93.5981 19.261C93.3861 19.4076 93.2801 19.6073 93.2801 19.859C93.2801 20.018 93.3146 20.1532 93.3835 20.2636C93.4524 20.374 93.5557 20.4738 93.6918 20.5613C93.8278 20.6487 94.0645 20.7539 94.4011 20.8758C94.7156 20.9871 94.9408 21.101 95.0787 21.2167C95.2156 21.3325 95.2845 21.4747 95.2845 21.6443C95.2845 21.828 95.1979 21.9756 95.0256 22.086C94.8534 22.1964 94.6007 22.252 94.2677 22.252C93.8914 22.252 93.5345 22.1672 93.1953 21.9976V22.3289C93.4594 22.4676 93.8172 22.5365 94.2677 22.5365C94.6891 22.5365 95.0151 22.4561 95.2438 22.2936Z"
          fill="#E4E5E7"/>
    <path fill-rule="evenodd" clip-rule="evenodd"
          d="M34.4907 1.63599C34.4907 2.53953 33.7583 3.27198 32.8547 3.27198C31.9512 3.27198 31.2188 2.53953 31.2188 1.63599C31.2188 0.732459 31.9512 0 32.8547 0C33.7583 0 34.4907 0.732459 34.4907 1.63599ZM7.03359 3.60273C7.03359 5.54501 5.45907 7.11953 3.5168 7.11953C1.57452 7.11953 0 5.54501 0 3.60273C0 1.66046 1.57452 0.0859375 3.5168 0.0859375C5.45907 0.0859375 7.03359 1.66046 7.03359 3.60273ZM21.5082 1.32031H7.38629C7.78284 1.98976 8.01069 2.77048 8.01069 3.6042C8.01069 4.43791 7.7793 5.23012 7.37746 5.9031L7.40108 5.90153H7.40108H7.40109H7.40109H7.40109H7.4011H7.4011H7.40111H7.40111H7.40112H7.40112H7.40112H7.40113H7.40113H7.40114H7.40114H7.40115H7.40115H7.40115H7.40116H7.40116H7.40117H7.40117C7.43505 5.89924 7.4694 5.89691 7.50375 5.89691H18.9974C20.036 5.89691 20.8776 6.73858 20.8776 7.77719V16.1532C20.8776 17.1918 20.036 18.0335 18.9974 18.0335H7.50375C6.46514 18.0335 5.62348 17.1918 5.62348 16.1532V7.77719C5.62348 7.70565 5.62878 7.635 5.63584 7.56435C5.00526 7.90172 4.28635 8.09337 3.52153 8.09337C2.60656 8.09337 1.75606 7.8187 1.04688 7.34973V17.7473C1.04688 20.4516 3.23891 22.6436 5.94319 22.6436H20.7143C23.2587 22.6436 25.3209 20.5814 25.3209 18.037V5.13297C25.3209 3.02749 23.6137 1.32031 21.5082 1.32031ZM33.7138 4.16406H31.5703V15.1675H34.4901V4.94037C34.4901 4.51203 34.1421 4.16406 33.7138 4.16406ZM45.1172 4.28125L48.9466 15.1752H51.7843L55.5793 4.28125H53.6204C53.0375 4.28125 52.5235 4.66278 52.3557 5.22095L50.3482 11.8845L48.0917 4.28125H45.1172ZM60.4965 4C64.2561 4 65.3495 7.11937 65.3495 8.9864V10.3986H58.2029C58.2029 12.0528 59.003 13.0658 60.4965 13.0658C61.9899 13.0658 62.5763 11.7861 62.5763 11.7861H65.1631C65.1631 11.7861 64.6032 15.2799 60.3896 15.2799C55.5365 15.2799 55.4297 10.7996 55.4297 10.1866V8.85304C55.4297 6.16024 57.6429 4 60.4965 4ZM58.2029 8.66669H62.443C62.443 8.66669 62.7106 6.39958 60.3366 6.39958C57.9626 6.39958 58.2029 8.66669 58.2029 8.66669ZM40.3416 4C36.075 4 35.6484 6.98689 35.6484 8.66669V15.1677H38.4481L38.3951 8.13325C38.3951 6.88003 39.4231 6.19292 40.3831 6.19292C41.6363 6.19292 42.2855 7.09376 42.2855 7.92041V13.6169C42.2855 14.4735 42.9797 15.1677 43.8363 15.1677H45.1169V7.65369C45.1169 7.28011 44.6082 4 40.3416 4ZM66.0625 8.66669C66.0625 6.98689 66.4891 4 70.7557 4C75.0223 4 75.531 7.28011 75.531 7.65369V15.1677H74.2504C73.3937 15.1677 72.6995 14.4735 72.6995 13.6169V7.92041C72.6995 7.09376 72.0504 6.19292 70.7972 6.19292C69.8372 6.19292 68.8092 6.88003 68.8092 8.13325L68.8622 15.1677H66.0625V8.66669ZM83.2534 7.5047H86.0628C86.0628 7.5047 85.3518 3.98438 81.3334 3.98438C78.4534 3.98438 76.6305 6.37159 76.498 8.14412C76.3912 9.56603 76.2136 12.0195 77.7071 13.762C79.0943 15.3806 80.8192 15.3417 81.4277 15.328C81.4742 15.327 81.5143 15.3261 81.5471 15.3261C82.5071 15.3261 85.2803 15.0064 86.205 11.8058H84.5278L84.4944 11.8057C84.0176 11.8056 83.6269 11.8054 83.3214 12.1325L83.2945 12.1614C82.983 12.4968 82.5322 12.9821 81.5109 12.9821C80.4599 12.9821 79.0751 12.3789 79.0751 9.7197C79.0751 7.06047 80.3266 6.36718 81.2875 6.36718C82.2484 6.36718 82.7624 6.54558 83.2543 7.50294L83.2534 7.5047ZM86.6641 9.6866C86.6641 8.37067 86.8319 3.9707 91.6284 3.9707C96.4249 3.9707 96.6112 8.57557 96.6112 9.6866C96.6112 10.7181 96.3525 15.278 91.6284 15.278C86.9043 15.278 86.6641 11.0025 86.6641 9.6866ZM89.3569 9.73076C89.3569 12.5525 90.5023 12.9976 91.646 12.9976V12.9985C92.8366 12.9985 93.975 12.1242 93.975 9.57974C93.975 7.03531 92.7518 6.40031 91.646 6.40031C90.4785 6.40031 89.3569 6.90902 89.3569 9.73076ZM33.1025 22.5365C32.6131 22.5365 32.2306 22.3854 31.9576 22.0842C31.6838 21.7821 31.5469 21.3598 31.5469 20.8166C31.5469 20.2733 31.6794 19.8493 31.9435 19.526C32.2076 19.2027 32.5645 19.041 33.0133 19.041C33.4099 19.041 33.7235 19.1797 33.9523 19.4562C34.182 19.7327 34.2959 20.109 34.2959 20.5843V20.8325H31.8693C31.8737 21.2954 31.9815 21.6487 32.1935 21.8925C32.4055 22.1363 32.7085 22.2582 33.1034 22.2582C33.2959 22.2582 33.4647 22.245 33.6104 22.2176C33.7562 22.1911 33.9408 22.1328 34.1634 22.0445V22.3236C33.9735 22.4066 33.7977 22.4623 33.6369 22.4923C33.4761 22.5224 33.2977 22.5374 33.1034 22.5374L33.1025 22.5365ZM33.0124 19.3131C32.6882 19.3131 32.4276 19.42 32.2315 19.6338C32.0354 19.8475 31.9205 20.1558 31.8879 20.5586H33.9708C33.9708 20.1682 33.886 19.8625 33.7164 19.6426C33.5468 19.4226 33.3127 19.3122 33.0133 19.3122L33.0124 19.3131ZM35.8309 22.0816C36.1038 22.3854 36.481 22.5374 36.9625 22.5374C37.3114 22.5374 37.5941 22.4844 37.8087 22.3793V22.0939C37.5464 22.2035 37.2619 22.2582 36.9563 22.2582C36.5738 22.2582 36.2761 22.1293 36.0632 21.8722C35.8503 21.6151 35.7443 21.283 35.7443 20.8042C35.7443 20.3254 35.8503 19.9579 36.0632 19.7027C36.2761 19.4474 36.5888 19.3202 37.0022 19.3202C37.2178 19.3202 37.4704 19.3687 37.7619 19.4659L37.8458 19.193C37.5799 19.0914 37.3008 19.041 37.0093 19.041C36.5172 19.041 36.1295 19.1965 35.8468 19.5074C35.5632 19.8193 35.4219 20.268 35.4219 20.8113C35.4219 21.3545 35.5579 21.7777 35.8309 22.0816ZM41.6854 20.7857C41.6854 21.3351 41.552 21.7644 41.2852 22.0736C41.0184 22.3828 40.6509 22.5374 40.1819 22.5374C39.8859 22.5374 39.6262 22.4658 39.401 22.3236C39.1757 22.1805 39.0035 21.9764 38.8833 21.7097C38.7632 21.4429 38.7031 21.1355 38.7031 20.7865C38.7031 20.2371 38.8365 19.8087 39.1033 19.5012C39.3701 19.1947 39.7358 19.041 40.2004 19.041C40.6651 19.041 41.0264 19.1965 41.2896 19.5074C41.5529 19.8184 41.6845 20.245 41.6845 20.7857H41.6854ZM39.0256 20.7857C39.0256 21.2485 39.1271 21.6098 39.3312 21.8687C39.5344 22.1284 39.8223 22.2573 40.1942 22.2573C40.5661 22.2573 40.8541 22.1275 41.0573 21.8687C41.2605 21.6098 41.3629 21.2485 41.3629 20.7857C41.3629 20.3228 41.2605 19.9597 41.0546 19.7035C40.8488 19.4474 40.56 19.3193 40.1881 19.3193C39.8162 19.3193 39.5291 19.4465 39.3277 19.7018C39.1263 19.9571 39.0256 20.3184 39.0256 20.7848V20.7857ZM47.1867 20.2645V22.4747H47.4897V20.2707C47.4897 19.8431 47.3978 19.5313 47.2141 19.3352C47.0303 19.1391 46.7538 19.041 46.3864 19.041C46.1505 19.041 45.9403 19.0923 45.7556 19.1956C45.571 19.299 45.4235 19.4474 45.3139 19.6391H45.3016C45.1505 19.2407 44.8095 19.041 44.2786 19.041C44.0719 19.041 43.8829 19.087 43.7115 19.1788C43.5401 19.2707 43.4076 19.4005 43.3149 19.5675H43.2963L43.231 19.1055H42.9766V22.4747H43.2831V20.6152C43.2831 20.162 43.3644 19.8334 43.5251 19.6276C43.6868 19.4217 43.9438 19.3193 44.2972 19.3193C44.8175 19.3193 45.0781 19.6037 45.0781 20.1717V22.4747H45.3908V20.5003C45.3908 20.0931 45.4738 19.7945 45.639 19.6046C45.8042 19.4147 46.0595 19.3193 46.4049 19.3193C46.6699 19.3193 46.866 19.3944 46.9941 19.5454C47.1222 19.6965 47.1867 19.9359 47.1867 20.2645ZM53.1398 22.4747V20.2645C53.1398 19.9359 53.0753 19.6965 52.9472 19.5454C52.8191 19.3944 52.623 19.3193 52.358 19.3193C52.0126 19.3193 51.7573 19.4147 51.5921 19.6046C51.427 19.7945 51.3439 20.0931 51.3439 20.5003V22.4747H51.0312V20.1717C51.0312 19.6037 50.7706 19.3193 50.2503 19.3193C49.897 19.3193 49.6399 19.4217 49.4783 19.6276C49.3175 19.8334 49.2362 20.162 49.2362 20.6152V22.4747H48.9297V19.1055H49.1841L49.2495 19.5675H49.268C49.3608 19.4005 49.4933 19.2707 49.6646 19.1788C49.836 19.087 50.0251 19.041 50.2318 19.041C50.7627 19.041 51.1036 19.2407 51.2547 19.6391H51.2671C51.3766 19.4474 51.5241 19.299 51.7088 19.1956C51.8934 19.0923 52.1036 19.041 52.3395 19.041C52.707 19.041 52.9834 19.1391 53.1672 19.3352C53.3509 19.5313 53.4428 19.8431 53.4428 20.2707V22.4747H53.1398ZM55.1061 22.0842C55.379 22.3854 55.7615 22.5365 56.2509 22.5365L56.2518 22.5374C56.4461 22.5374 56.6246 22.5224 56.7854 22.4923C56.9461 22.4623 57.1219 22.4066 57.3118 22.3236V22.0445C57.0892 22.1328 56.9046 22.1911 56.7589 22.2176C56.6131 22.245 56.4444 22.2582 56.2518 22.2582C55.8569 22.2582 55.5539 22.1363 55.3419 21.8925C55.1299 21.6487 55.0222 21.2954 55.0177 20.8325H57.4443V20.5843C57.4443 20.109 57.3304 19.7327 57.1007 19.4562C56.8719 19.1797 56.5583 19.041 56.1617 19.041C55.7129 19.041 55.3561 19.2027 55.0919 19.526C54.8278 19.8493 54.6953 20.2733 54.6953 20.8166C54.6953 21.3598 54.8322 21.7821 55.1061 22.0842ZM55.3799 19.6338C55.576 19.42 55.8366 19.3131 56.1608 19.3131L56.1617 19.3122C56.4612 19.3122 56.6953 19.4226 56.8649 19.6426C57.0345 19.8625 57.1193 20.1682 57.1193 20.5586H55.0363C55.069 20.1558 55.1838 19.8475 55.3799 19.6338ZM60.0382 19.041C60.1803 19.041 60.3339 19.0552 60.4962 19.0843L60.437 19.3785C60.2966 19.3431 60.1508 19.3255 59.9998 19.3255C59.7127 19.3255 59.4768 19.4474 59.2931 19.6912C59.1093 19.935 59.0175 20.2433 59.0175 20.6152V22.4747H58.7109V19.1055H58.9715L59.0024 19.7133H59.0245C59.1632 19.465 59.3107 19.291 59.468 19.1912C59.6251 19.0914 59.8149 19.0411 60.0382 19.041ZM61.6512 22.0816C61.9241 22.3854 62.3013 22.5374 62.7828 22.5374C63.1317 22.5374 63.4144 22.4844 63.629 22.3793V22.0939C63.3667 22.2035 63.0822 22.2582 62.7766 22.2582C62.3941 22.2582 62.0964 22.1293 61.8835 21.8722C61.6706 21.6151 61.5646 21.283 61.5646 20.8042C61.5646 20.3254 61.6706 19.9579 61.8835 19.7027C62.0964 19.4474 62.4091 19.3202 62.8225 19.3202C63.0381 19.3202 63.2907 19.3687 63.5822 19.4659L63.6661 19.193C63.4002 19.0914 63.1211 19.041 62.8296 19.041C62.3376 19.041 61.9498 19.1965 61.6671 19.5074C61.3835 19.8193 61.2422 20.268 61.2422 20.8113C61.2422 21.3545 61.3782 21.7777 61.6512 22.0816ZM66.1025 22.5365C65.6131 22.5365 65.2306 22.3854 64.9576 22.0842C64.6838 21.7821 64.5469 21.3598 64.5469 20.8166C64.5469 20.2733 64.6794 19.8493 64.9435 19.526C65.2076 19.2027 65.5645 19.041 66.0133 19.041C66.4099 19.041 66.7226 19.1797 66.9523 19.4562C67.182 19.7327 67.2968 20.109 67.2968 20.5843V20.8325H64.8702C64.8746 21.2954 64.9824 21.6487 65.1944 21.8925C65.4064 22.1363 65.7094 22.2582 66.1042 22.2582C66.2968 22.2582 66.4655 22.245 66.6113 22.2176C66.7571 22.1911 66.9417 22.1328 67.1643 22.0445V22.3236C66.9744 22.4066 66.7986 22.4623 66.6378 22.4923C66.477 22.5224 66.2986 22.5374 66.1042 22.5374L66.1025 22.5365ZM66.0124 19.3131C65.6882 19.3131 65.4276 19.42 65.2315 19.6338C65.0354 19.8475 64.9205 20.1558 64.887 20.5586H66.9699C66.9699 20.1682 66.8851 19.8625 66.7155 19.6426C66.5459 19.4226 66.3118 19.3122 66.0124 19.3122V19.3131ZM70.8047 22.4823H71.1111V17.6602H70.8047V22.4823ZM75.3885 20.7857C75.3885 21.3351 75.2551 21.7644 74.9883 22.0736C74.7215 22.3828 74.3541 22.5374 73.885 22.5374C73.5891 22.5374 73.3294 22.4658 73.1041 22.3236C72.8789 22.1805 72.7066 21.9764 72.5865 21.7097C72.4663 21.4429 72.4062 21.1355 72.4062 20.7865C72.4062 20.2371 72.5396 19.8087 72.8064 19.5012C73.0732 19.1947 73.4389 19.041 73.9036 19.041C74.3682 19.041 74.7295 19.1965 74.9927 19.5074C75.256 19.8184 75.3876 20.245 75.3876 20.7857H75.3885ZM72.7287 20.7857C72.7287 21.2485 72.8303 21.6098 73.0343 21.8687C73.2375 22.1284 73.5255 22.2573 73.8974 22.2573C74.2693 22.2573 74.5572 22.1275 74.7604 21.8687C74.9636 21.6098 75.0661 21.2485 75.0661 20.7857C75.0661 20.3228 74.9636 19.9597 74.7578 19.7035C74.5519 19.4474 74.2631 19.3193 73.8912 19.3193C73.5193 19.3193 73.2322 19.4465 73.0308 19.7018C72.8294 19.9571 72.7287 20.3184 72.7287 20.7848V20.7857ZM79.3022 19.3201V19.1064H78.2239C78.102 19.0631 77.9307 19.041 77.7099 19.041C77.346 19.041 77.0572 19.1435 76.8435 19.3466C76.6298 19.5506 76.5229 19.8209 76.5229 20.1573C76.5229 20.3808 76.5777 20.5786 76.6872 20.7508C76.7967 20.9231 76.9495 21.0502 77.1455 21.1306C76.8585 21.3019 76.7145 21.5007 76.7145 21.7259C76.7145 21.8283 76.7455 21.9202 76.8064 21.9996C76.8673 22.0791 76.9486 22.141 77.0502 22.1842C76.8037 22.2399 76.6086 22.3441 76.4655 22.4969C76.3215 22.6488 76.25 22.8413 76.25 23.0727C76.25 23.3641 76.3666 23.5911 76.5989 23.7545C76.8311 23.9179 77.1588 23.9992 77.5827 23.9992C78.1153 23.9992 78.5259 23.9029 78.8139 23.7095C79.1027 23.5161 79.2466 23.2414 79.2466 22.8864C79.2466 22.5976 79.1495 22.3785 78.9552 22.231C78.7609 22.0835 78.4809 22.0094 78.1153 22.0094H77.5262C77.3345 22.0094 77.1976 21.9846 77.1155 21.9352C77.0343 21.8857 76.9936 21.8071 76.9936 21.6994C76.9936 21.6022 77.0254 21.5104 77.0899 21.4238C77.1544 21.3373 77.2471 21.2622 77.369 21.1977C77.4308 21.2101 77.5386 21.2163 77.6913 21.2163C78.0543 21.2163 78.344 21.1156 78.5604 20.9142C78.7768 20.7129 78.8845 20.4497 78.8845 20.1256C78.8845 19.8491 78.7918 19.5948 78.6054 19.3634L79.3022 19.3201ZM78.934 22.8934C78.934 23.4578 78.4915 23.7395 77.6074 23.7395C76.9186 23.7395 76.575 23.5081 76.575 23.0453L76.5759 23.0462C76.5759 22.5605 76.885 22.3176 77.5023 22.3176H78.0543C78.3643 22.3176 78.5878 22.3626 78.7264 22.4536C78.8642 22.5446 78.934 22.6912 78.934 22.8934ZM77.0696 20.7632C76.9115 20.6192 76.832 20.4179 76.832 20.1573L76.8329 20.1565C76.8329 19.8818 76.9097 19.6672 77.0634 19.5135C77.218 19.3598 77.4211 19.283 77.6975 19.283C77.974 19.283 78.1894 19.3545 78.3431 19.4985C78.4977 19.6425 78.5745 19.858 78.5745 20.145C78.5745 20.4161 78.4994 20.6228 78.3493 20.765C78.1992 20.9072 77.9837 20.9787 77.7028 20.9787C77.4388 20.9787 77.2277 20.9063 77.0696 20.7632ZM80.3594 18.1765C80.3594 17.9778 80.4247 17.8789 80.5546 17.8789C80.6181 17.8789 80.6685 17.9045 80.7047 17.9566C80.7409 18.0079 80.7586 18.082 80.7586 18.1765C80.7586 18.271 80.7409 18.3426 80.7047 18.3964C80.6685 18.4503 80.6181 18.4768 80.5546 18.4768C80.4239 18.4768 80.3594 18.377 80.3594 18.1765ZM80.7091 22.4811H80.4026V19.1127H80.7091V22.4811ZM83.9235 22.2936C84.1532 22.131 84.268 21.8996 84.268 21.5975L84.2698 21.5984C84.2698 21.4473 84.2345 21.3157 84.1656 21.2044C84.0958 21.0922 83.9924 20.9924 83.8537 20.9049C83.715 20.8175 83.4942 20.7185 83.1903 20.609C82.8264 20.4791 82.5817 20.3608 82.4571 20.2556C82.3326 20.1505 82.2699 20.0101 82.2699 19.8343C82.2699 19.6735 82.3511 19.5472 82.5119 19.4562C82.6727 19.3652 82.8829 19.3202 83.1656 19.3202C83.4483 19.3202 83.7557 19.3891 84.0861 19.5251L84.2009 19.246C83.8741 19.109 83.5454 19.041 83.1656 19.041C82.7858 19.041 82.4898 19.1143 82.2778 19.261C82.0658 19.4076 81.9598 19.6073 81.9598 19.859C81.9598 20.018 81.9943 20.1532 82.0632 20.2636C82.1321 20.374 82.2354 20.4738 82.3715 20.5613C82.5075 20.6487 82.7442 20.7539 83.0808 20.8758C83.3953 20.9871 83.6205 21.101 83.7583 21.2167C83.8953 21.3325 83.9642 21.4747 83.9642 21.6443C83.9642 21.828 83.8776 21.9756 83.7053 22.086C83.5331 22.1964 83.2804 22.252 82.9474 22.252C82.5711 22.252 82.2142 22.1672 81.875 21.9976V22.3289C82.1391 22.4676 82.4969 22.5365 82.9474 22.5365C83.3688 22.5365 83.6947 22.4561 83.9235 22.2936ZM86.5638 22.2644C86.7581 22.2644 86.9277 22.2476 87.0717 22.2149V22.4631C86.9233 22.5126 86.7511 22.5374 86.5576 22.5374C86.2599 22.5374 86.0408 22.4578 85.8986 22.2988C85.7573 22.1398 85.6866 21.8898 85.6866 21.5489V19.3731H85.1875V19.1929L85.6866 19.0534L85.8412 18.291H85.9993V19.1064H86.9878V19.3731H85.9993V21.5056C85.9993 21.7635 86.0444 21.9552 86.1353 22.0789C86.2263 22.2026 86.3686 22.2653 86.5629 22.2653L86.5638 22.2644ZM88.3514 17.8789C88.2216 17.8789 88.1562 17.9778 88.1562 18.1765C88.1562 18.377 88.2207 18.4768 88.3514 18.4768C88.415 18.4768 88.4654 18.4503 88.5016 18.3964C88.5378 18.3426 88.5554 18.271 88.5554 18.1765C88.5554 18.082 88.5378 18.0079 88.5016 17.9566C88.4654 17.9045 88.415 17.8789 88.3514 17.8789ZM88.1995 22.4811H88.506V19.1127H88.1995V22.4811ZM91.3296 22.5374C90.8482 22.5374 90.471 22.3854 90.1981 22.0816C89.9251 21.7777 89.7891 21.3545 89.7891 20.8113C89.7891 20.268 89.9304 19.8193 90.214 19.5074C90.4966 19.1965 90.8844 19.041 91.3765 19.041C91.668 19.041 91.9471 19.0914 92.213 19.193L92.1291 19.4659C91.8376 19.3687 91.5849 19.3202 91.3694 19.3202C90.956 19.3202 90.6433 19.4474 90.4304 19.7027C90.2175 19.9579 90.1115 20.3254 90.1115 20.8042C90.1115 21.283 90.2175 21.6151 90.4304 21.8722C90.6433 22.1293 90.941 22.2582 91.3235 22.2582C91.6291 22.2582 91.9136 22.2035 92.1759 22.0939V22.3793C91.9613 22.4844 91.6795 22.5374 91.3296 22.5374ZM95.2438 22.2936C95.4735 22.131 95.5883 21.8996 95.5883 21.5975L95.5901 21.5984C95.5901 21.4473 95.5548 21.3157 95.4859 21.2044C95.4161 21.0922 95.3127 20.9924 95.174 20.9049C95.0354 20.8175 94.8145 20.7185 94.5106 20.609C94.1467 20.4791 93.902 20.3608 93.7775 20.2556C93.6529 20.1505 93.5902 20.0101 93.5902 19.8343C93.5902 19.6735 93.6714 19.5472 93.8322 19.4562C93.993 19.3652 94.2032 19.3202 94.4859 19.3202C94.7686 19.3202 95.076 19.3891 95.4064 19.5251L95.5212 19.246C95.1944 19.109 94.8658 19.041 94.4859 19.041C94.1061 19.041 93.8101 19.1143 93.5981 19.261C93.3861 19.4076 93.2801 19.6073 93.2801 19.859C93.2801 20.018 93.3146 20.1532 93.3835 20.2636C93.4524 20.374 93.5557 20.4738 93.6918 20.5613C93.8278 20.6487 94.0645 20.7539 94.4011 20.8758C94.7156 20.9871 94.9408 21.101 95.0787 21.2167C95.2156 21.3325 95.2845 21.4747 95.2845 21.6443C95.2845 21.828 95.1979 21.9756 95.0256 22.086C94.8534 22.1964 94.6007 22.252 94.2677 22.252C93.8914 22.252 93.5345 22.1672 93.1953 21.9976V22.3289C93.4594 22.4676 93.8172 22.5365 94.2677 22.5365C94.6891 22.5365 95.0151 22.4561 95.2438 22.2936Z"
          fill="url(#paint0_linear_14506_227873)"/>
    <defs>
        <linearGradient id="paint0_linear_14506_227873" x1="8.60172" y1="0" x2="8.60172" y2="23.4922"
                        gradientUnits="userSpaceOnUse">
            <stop stop-color="white"/>
            <stop offset="1" stop-color="#C7CAD1"/>
        </linearGradient>
    </defs>
</svg>
