<svg xmlns="http://www.w3.org/2000/svg" width="91" height="24" viewBox="0 0 91 24" fill="none">
    <g clip-path="url(#clip0_14216_33586)">
        <path fill-rule="evenodd" clip-rule="evenodd" d="M0 3.85525V20.0158V20.0209C0.0156878 20.4337 0.183299 20.8242 0.467719 21.1104C0.752141 21.3967 1.1313 21.5567 1.52576 21.5567C1.92023 21.5567 2.29938 21.3967 2.5838 21.1104C2.86822 20.8242 3.03583 20.4337 3.05152 20.0209V7.64358L5.30815 10.9334C5.38875 11.0402 5.48694 11.131 5.59808 11.2017C5.76139 11.3096 5.94383 11.3818 6.13445 11.4142C6.21438 11.4274 6.29515 11.4342 6.37606 11.4344C6.48828 11.4338 6.60009 11.4202 6.70948 11.394C6.89774 11.3445 7.07552 11.2586 7.23377 11.141C7.39069 11.0206 7.52364 10.8693 7.62516 10.6956C7.72863 10.5238 7.79772 10.3317 7.82816 10.1312C7.85912 9.93103 7.8525 9.72645 7.80883 9.5289C7.76477 9.36422 7.69455 9.2085 7.60103 9.06833L3.21098 2.76455C2.99048 2.44762 2.67997 2.2118 2.32383 2.09078C1.9677 1.96976 1.58416 1.96974 1.228 2.09072C0.871852 2.21169 0.561324 2.44748 0.34078 2.76438C0.120236 3.08129 0.000958235 3.4631 0 3.85525ZM15.575 19.6963V3.53576C15.5592 3.12291 15.3917 2.73245 15.1072 2.44617C14.8227 2.15989 14.4436 2 14.0491 2C13.6546 2 13.2755 2.15989 12.9911 2.44617C12.7067 2.73245 12.539 3.12291 12.5234 3.53576V15.9181L10.2667 12.6283C10.1862 12.5215 10.088 12.4306 9.97687 12.36C9.81348 12.2521 9.63113 12.1798 9.44043 12.1475C9.36052 12.1343 9.27974 12.1276 9.19887 12.1272C9.08661 12.1278 8.97487 12.1415 8.86548 12.1677C8.67721 12.2173 8.49939 12.303 8.34113 12.4208C8.18424 12.5411 8.05124 12.6924 7.94974 12.8662C7.84626 13.0379 7.77717 13.2299 7.74682 13.4304C7.71585 13.6306 7.72239 13.8352 7.76614 14.0328C7.81012 14.1974 7.88035 14.3531 7.97386 14.4933L12.3639 20.7971C12.585 21.1148 12.8963 21.3509 13.2534 21.4717C13.6104 21.5924 13.9949 21.5917 14.3516 21.4694C14.7082 21.3471 15.0186 21.1097 15.2384 20.7911C15.4582 20.4726 15.576 20.0893 15.575 19.6963ZM25.3857 21.9997C21.2783 21.9997 18.5071 19.2161 18.5071 15.0507C18.5071 10.7816 21.363 7.68403 25.2939 7.68403C29.179 7.68403 31.6869 10.3361 31.6869 14.4408C31.6869 14.737 31.5748 15.0211 31.375 15.2308C31.1752 15.4405 30.9042 15.5587 30.6214 15.5593H21.5997L21.6167 15.8276C21.6624 16.8661 22.0958 17.8442 22.8233 18.5512C23.5509 19.2583 24.5144 19.638 25.5065 19.6083C27.065 19.6083 28.1352 19.0313 28.7755 17.8369C28.8677 17.6726 28.9995 17.5367 29.1577 17.4425C29.3158 17.3483 29.4949 17.2994 29.6767 17.3003C29.7153 17.2979 29.7541 17.2979 29.7927 17.3003L30.1286 17.3333C30.3023 17.3528 30.4689 17.4163 30.614 17.518C30.7592 17.6199 30.8786 17.7571 30.9621 17.9178C31.0454 18.0797 31.089 18.2604 31.089 18.4443C31.089 18.628 31.0454 18.8089 30.9621 18.9706C29.9183 20.9268 27.9396 21.9997 25.3857 21.9997ZM25.265 9.98945C23.3587 9.98945 22.124 11.1611 21.6795 13.3779L21.6191 13.6816H28.6257L28.604 13.4083C28.4977 11.8317 27.5433 9.98945 25.265 9.98945ZM33.8446 14.8586C33.8446 19.0619 36.6496 22 40.6652 22C44.6976 22 47.5124 19.0949 47.5124 14.8711C47.5124 10.6476 44.6808 7.69688 40.6652 7.69688C36.6496 7.69688 33.8446 10.6552 33.8446 14.8586ZM37.041 14.8586C37.041 11.8648 38.3965 10.0782 40.6652 10.0782C42.917 10.0782 44.3135 11.8825 44.3135 14.8586C44.3135 17.8346 42.9339 19.606 40.6652 19.606C38.3965 19.606 37.041 17.8523 37.041 14.8586ZM51.6922 21.615C51.4562 21.6151 51.2224 21.5664 51.0043 21.4718C50.7862 21.3771 50.5882 21.2383 50.4213 21.0635C50.086 20.7091 49.8968 20.2311 49.8946 19.7323C49.8946 19.233 50.084 18.7541 50.4211 18.401C50.7582 18.0478 51.2155 17.8495 51.6922 17.8495C52.1689 17.8495 52.6261 18.0478 52.9633 18.401C53.3003 18.7541 53.4898 19.233 53.4898 19.7323C53.4889 20.2315 53.2995 20.7099 52.963 21.0635C52.7965 21.2387 52.5984 21.3777 52.3803 21.4723C52.1622 21.5671 51.9283 21.6156 51.6922 21.615ZM57.7987 21.1055C58.1098 21.4313 58.5316 21.6147 58.9716 21.6154C59.1897 21.6157 59.4057 21.571 59.6073 21.4837C59.8088 21.3965 59.9919 21.2684 60.1461 21.1069C60.3003 20.9454 60.4226 20.7536 60.5058 20.5425C60.5891 20.3315 60.6319 20.1052 60.6316 19.8768V8.22076C60.6316 7.75968 60.4567 7.31746 60.1454 6.99142C59.8341 6.66538 59.4119 6.48223 58.9716 6.48223C58.5315 6.48223 58.1093 6.66538 57.798 6.99142C57.4867 7.31746 57.3118 7.75968 57.3118 8.22076V19.8768C57.3124 20.3377 57.4876 20.7795 57.7987 21.1055ZM51.4021 4.73862C51.5742 4.81438 51.759 4.85311 51.9456 4.8525H66.0823C66.4584 4.8505 66.8188 4.6931 67.0847 4.41447C67.3507 4.13584 67.501 3.75852 67.5029 3.36449C67.5027 3.19046 67.4697 3.01819 67.4059 2.85752C67.3421 2.69685 67.2485 2.55095 67.1309 2.42816C67.0133 2.30657 66.8748 2.20953 66.7225 2.1422C66.5691 2.07675 66.405 2.04323 66.2393 2.04351H51.7886C51.4537 2.04464 51.1326 2.18371 50.8947 2.43069C50.7776 2.55292 50.6848 2.69829 50.6217 2.85837C50.559 3.01908 50.5261 3.19087 50.525 3.36449C50.5261 3.75897 50.6754 4.13717 50.9407 4.41723C51.0733 4.55445 51.2299 4.66357 51.4021 4.73862ZM69.9386 21.9697C67.2809 21.9697 65.6766 20.6107 65.6766 18.3331C65.6766 16.1213 67.148 14.8687 70.5957 14.1499L74.4615 13.3503V12.8239C74.4615 11.0525 73.5191 10.0402 71.8763 10.0402C70.7503 10.0402 69.8878 10.5463 69.378 11.4903C69.2503 11.7401 69.0554 11.945 68.8175 12.0799C68.6138 12.1941 68.3865 12.2541 68.1555 12.2545C68.1176 12.2571 68.0797 12.2571 68.0419 12.2545C67.6836 12.226 67.3503 12.0506 67.1146 11.7663C66.879 11.482 66.7598 11.1118 66.7831 10.7362C66.7983 10.4871 66.8766 10.2469 67.0103 10.0402C68.0275 8.50669 69.7574 7.69688 72.0091 7.69688C75.5632 7.69688 77.5199 9.53157 77.5199 12.8618V20.1248C77.5267 20.4834 77.4141 20.833 77.201 21.1143C77.0184 21.3446 76.7727 21.5107 76.4973 21.5899C76.2218 21.6691 75.9296 21.6577 75.6604 21.5571C75.3912 21.4566 75.1579 21.2718 74.9923 21.0278C74.8267 20.7839 74.7367 20.4924 74.7345 20.1931V19.3883C74.7345 19.2998 74.5992 19.2695 74.546 19.3883C73.797 20.9143 71.8521 21.9697 69.9386 21.9697ZM71.6298 15.7569C70.1391 16.0884 68.7305 16.4023 68.7305 18.0344C68.7305 19.1277 69.5351 19.8059 70.8301 19.8059C72.9321 19.8059 74.4543 18.1028 74.4543 15.7569V15.1066L71.6298 15.7569ZM80.7406 21.4143C80.9415 21.5457 81.1736 21.6155 81.4102 21.6156C81.6065 21.617 81.8005 21.571 81.9778 21.481C82.1543 21.391 82.3096 21.2596 82.4297 21.0968L85.5706 16.7694L88.7113 21.0714C88.8304 21.2348 88.9843 21.3665 89.1609 21.4561C89.3365 21.5464 89.5304 21.5931 89.7261 21.5928H90.0426C90.2791 21.5936 90.5113 21.5244 90.7113 21.3932C90.9122 21.262 91.073 21.0742 91.1756 20.8513C91.2809 20.6286 91.3226 20.3793 91.2965 20.1326C91.2722 19.8866 91.1826 19.6526 91.0383 19.4569L87.3365 14.4943L90.5043 10.1746C90.6435 9.97837 90.727 9.7451 90.7461 9.50142C90.7687 9.25701 90.7252 9.01078 90.6226 8.79031C90.5174 8.56593 90.3539 8.37732 90.1513 8.2465C89.9478 8.11569 89.7139 8.04803 89.4748 8.05137C89.2783 8.05067 89.0835 8.09866 88.9078 8.19144C88.7322 8.28423 88.5791 8.41918 88.4626 8.58533L85.7662 12.3813L83.1084 8.60052C82.9913 8.43507 82.8391 8.30003 82.6641 8.20575C82.4868 8.11226 82.292 8.06372 82.0935 8.06403H81.7624C81.5296 8.0645 81.3022 8.13189 81.1028 8.25888C80.9012 8.3875 80.7391 8.57359 80.6341 8.79538C80.5291 9.01631 80.4843 9.26376 80.5062 9.50973C80.5283 9.7557 80.6151 9.99041 80.7574 10.1873L84.0123 14.669L80.4143 19.4771C80.2689 19.6725 80.1783 19.907 80.154 20.1536C80.1289 20.4002 80.1708 20.6491 80.2743 20.872C80.3784 21.095 80.5397 21.2829 80.7406 21.4143Z" fill="white"/>
        <path fill-rule="evenodd" clip-rule="evenodd" d="M0 3.85525V20.0158V20.0209C0.0156878 20.4337 0.183299 20.8242 0.467719 21.1104C0.752141 21.3967 1.1313 21.5567 1.52576 21.5567C1.92023 21.5567 2.29938 21.3967 2.5838 21.1104C2.86822 20.8242 3.03583 20.4337 3.05152 20.0209V7.64358L5.30815 10.9334C5.38875 11.0402 5.48694 11.131 5.59808 11.2017C5.76139 11.3096 5.94383 11.3818 6.13445 11.4142C6.21438 11.4274 6.29515 11.4342 6.37606 11.4344C6.48828 11.4338 6.60009 11.4202 6.70948 11.394C6.89774 11.3445 7.07552 11.2586 7.23377 11.141C7.39069 11.0206 7.52364 10.8693 7.62516 10.6956C7.72863 10.5238 7.79772 10.3317 7.82816 10.1312C7.85912 9.93103 7.8525 9.72645 7.80883 9.5289C7.76477 9.36422 7.69455 9.2085 7.60103 9.06833L3.21098 2.76455C2.99048 2.44762 2.67997 2.2118 2.32383 2.09078C1.9677 1.96976 1.58416 1.96974 1.228 2.09072C0.871852 2.21169 0.561324 2.44748 0.34078 2.76438C0.120236 3.08129 0.000958235 3.4631 0 3.85525ZM15.575 19.6963V3.53576C15.5592 3.12291 15.3917 2.73245 15.1072 2.44617C14.8227 2.15989 14.4436 2 14.0491 2C13.6546 2 13.2755 2.15989 12.9911 2.44617C12.7067 2.73245 12.539 3.12291 12.5234 3.53576V15.9181L10.2667 12.6283C10.1862 12.5215 10.088 12.4306 9.97687 12.36C9.81348 12.2521 9.63113 12.1798 9.44043 12.1475C9.36052 12.1343 9.27974 12.1276 9.19887 12.1272C9.08661 12.1278 8.97487 12.1415 8.86548 12.1677C8.67721 12.2173 8.49939 12.303 8.34113 12.4208C8.18424 12.5411 8.05124 12.6924 7.94974 12.8662C7.84626 13.0379 7.77717 13.2299 7.74682 13.4304C7.71585 13.6306 7.72239 13.8352 7.76614 14.0328C7.81012 14.1974 7.88035 14.3531 7.97386 14.4933L12.3639 20.7971C12.585 21.1148 12.8963 21.3509 13.2534 21.4717C13.6104 21.5924 13.9949 21.5917 14.3516 21.4694C14.7082 21.3471 15.0186 21.1097 15.2384 20.7911C15.4582 20.4726 15.576 20.0893 15.575 19.6963ZM25.3857 21.9997C21.2783 21.9997 18.5071 19.2161 18.5071 15.0507C18.5071 10.7816 21.363 7.68403 25.2939 7.68403C29.179 7.68403 31.6869 10.3361 31.6869 14.4408C31.6869 14.737 31.5748 15.0211 31.375 15.2308C31.1752 15.4405 30.9042 15.5587 30.6214 15.5593H21.5997L21.6167 15.8276C21.6624 16.8661 22.0958 17.8442 22.8233 18.5512C23.5509 19.2583 24.5144 19.638 25.5065 19.6083C27.065 19.6083 28.1352 19.0313 28.7755 17.8369C28.8677 17.6726 28.9995 17.5367 29.1577 17.4425C29.3158 17.3483 29.4949 17.2994 29.6767 17.3003C29.7153 17.2979 29.7541 17.2979 29.7927 17.3003L30.1286 17.3333C30.3023 17.3528 30.4689 17.4163 30.614 17.518C30.7592 17.6199 30.8786 17.7571 30.9621 17.9178C31.0454 18.0797 31.089 18.2604 31.089 18.4443C31.089 18.628 31.0454 18.8089 30.9621 18.9706C29.9183 20.9268 27.9396 21.9997 25.3857 21.9997ZM25.265 9.98945C23.3587 9.98945 22.124 11.1611 21.6795 13.3779L21.6191 13.6816H28.6257L28.604 13.4083C28.4977 11.8317 27.5433 9.98945 25.265 9.98945ZM33.8446 14.8586C33.8446 19.0619 36.6496 22 40.6652 22C44.6976 22 47.5124 19.0949 47.5124 14.8711C47.5124 10.6476 44.6808 7.69688 40.6652 7.69688C36.6496 7.69688 33.8446 10.6552 33.8446 14.8586ZM37.041 14.8586C37.041 11.8648 38.3965 10.0782 40.6652 10.0782C42.917 10.0782 44.3135 11.8825 44.3135 14.8586C44.3135 17.8346 42.9339 19.606 40.6652 19.606C38.3965 19.606 37.041 17.8523 37.041 14.8586ZM51.6922 21.615C51.4562 21.6151 51.2224 21.5664 51.0043 21.4718C50.7862 21.3771 50.5882 21.2383 50.4213 21.0635C50.086 20.7091 49.8968 20.2311 49.8946 19.7323C49.8946 19.233 50.084 18.7541 50.4211 18.401C50.7582 18.0478 51.2155 17.8495 51.6922 17.8495C52.1689 17.8495 52.6261 18.0478 52.9633 18.401C53.3003 18.7541 53.4898 19.233 53.4898 19.7323C53.4889 20.2315 53.2995 20.7099 52.963 21.0635C52.7965 21.2387 52.5984 21.3777 52.3803 21.4723C52.1622 21.5671 51.9283 21.6156 51.6922 21.615ZM57.7987 21.1055C58.1098 21.4313 58.5316 21.6147 58.9716 21.6154C59.1897 21.6157 59.4057 21.571 59.6073 21.4837C59.8088 21.3965 59.9919 21.2684 60.1461 21.1069C60.3003 20.9454 60.4226 20.7536 60.5058 20.5425C60.5891 20.3315 60.6319 20.1052 60.6316 19.8768V8.22076C60.6316 7.75968 60.4567 7.31746 60.1454 6.99142C59.8341 6.66538 59.4119 6.48223 58.9716 6.48223C58.5315 6.48223 58.1093 6.66538 57.798 6.99142C57.4867 7.31746 57.3118 7.75968 57.3118 8.22076V19.8768C57.3124 20.3377 57.4876 20.7795 57.7987 21.1055ZM51.4021 4.73862C51.5742 4.81438 51.759 4.85311 51.9456 4.8525H66.0823C66.4584 4.8505 66.8188 4.6931 67.0847 4.41447C67.3507 4.13584 67.501 3.75852 67.5029 3.36449C67.5027 3.19046 67.4697 3.01819 67.4059 2.85752C67.3421 2.69685 67.2485 2.55095 67.1309 2.42816C67.0133 2.30657 66.8748 2.20953 66.7225 2.1422C66.5691 2.07675 66.405 2.04323 66.2393 2.04351H51.7886C51.4537 2.04464 51.1326 2.18371 50.8947 2.43069C50.7776 2.55292 50.6848 2.69829 50.6217 2.85837C50.559 3.01908 50.5261 3.19087 50.525 3.36449C50.5261 3.75897 50.6754 4.13717 50.9407 4.41723C51.0733 4.55445 51.2299 4.66357 51.4021 4.73862ZM69.9386 21.9697C67.2809 21.9697 65.6766 20.6107 65.6766 18.3331C65.6766 16.1213 67.148 14.8687 70.5957 14.1499L74.4615 13.3503V12.8239C74.4615 11.0525 73.5191 10.0402 71.8763 10.0402C70.7503 10.0402 69.8878 10.5463 69.378 11.4903C69.2503 11.7401 69.0554 11.945 68.8175 12.0799C68.6138 12.1941 68.3865 12.2541 68.1555 12.2545C68.1176 12.2571 68.0797 12.2571 68.0419 12.2545C67.6836 12.226 67.3503 12.0506 67.1146 11.7663C66.879 11.482 66.7598 11.1118 66.7831 10.7362C66.7983 10.4871 66.8766 10.2469 67.0103 10.0402C68.0275 8.50669 69.7574 7.69688 72.0091 7.69688C75.5632 7.69688 77.5199 9.53157 77.5199 12.8618V20.1248C77.5267 20.4834 77.4141 20.833 77.201 21.1143C77.0184 21.3446 76.7727 21.5107 76.4973 21.5899C76.2218 21.6691 75.9296 21.6577 75.6604 21.5571C75.3912 21.4566 75.1579 21.2718 74.9923 21.0278C74.8267 20.7839 74.7367 20.4924 74.7345 20.1931V19.3883C74.7345 19.2998 74.5992 19.2695 74.546 19.3883C73.797 20.9143 71.8521 21.9697 69.9386 21.9697ZM71.6298 15.7569C70.1391 16.0884 68.7305 16.4023 68.7305 18.0344C68.7305 19.1277 69.5351 19.8059 70.8301 19.8059C72.9321 19.8059 74.4543 18.1028 74.4543 15.7569V15.1066L71.6298 15.7569ZM80.7406 21.4143C80.9415 21.5457 81.1736 21.6155 81.4102 21.6156C81.6065 21.617 81.8005 21.571 81.9778 21.481C82.1543 21.391 82.3096 21.2596 82.4297 21.0968L85.5706 16.7694L88.7113 21.0714C88.8304 21.2348 88.9843 21.3665 89.1609 21.4561C89.3365 21.5464 89.5304 21.5931 89.7261 21.5928H90.0426C90.2791 21.5936 90.5113 21.5244 90.7113 21.3932C90.9122 21.262 91.073 21.0742 91.1756 20.8513C91.2809 20.6286 91.3226 20.3793 91.2965 20.1326C91.2722 19.8866 91.1826 19.6526 91.0383 19.4569L87.3365 14.4943L90.5043 10.1746C90.6435 9.97837 90.727 9.7451 90.7461 9.50142C90.7687 9.25701 90.7252 9.01078 90.6226 8.79031C90.5174 8.56593 90.3539 8.37732 90.1513 8.2465C89.9478 8.11569 89.7139 8.04803 89.4748 8.05137C89.2783 8.05067 89.0835 8.09866 88.9078 8.19144C88.7322 8.28423 88.5791 8.41918 88.4626 8.58533L85.7662 12.3813L83.1084 8.60052C82.9913 8.43507 82.8391 8.30003 82.6641 8.20575C82.4868 8.11226 82.292 8.06372 82.0935 8.06403H81.7624C81.5296 8.0645 81.3022 8.13189 81.1028 8.25888C80.9012 8.3875 80.7391 8.57359 80.6341 8.79538C80.5291 9.01631 80.4843 9.26376 80.5062 9.50973C80.5283 9.7557 80.6151 9.99041 80.7574 10.1873L84.0123 14.669L80.4143 19.4771C80.2689 19.6725 80.1783 19.907 80.154 20.1536C80.1289 20.4002 80.1708 20.6491 80.2743 20.872C80.3784 21.095 80.5397 21.2829 80.7406 21.4143Z" fill="url(#paint0_linear_14216_33586)" fill-opacity="0.5"/>
    </g>
    <defs>
        <linearGradient id="paint0_linear_14216_33586" x1="8.1292" y1="2" x2="8.1292" y2="21.5775" gradientUnits="userSpaceOnUse">
            <stop stop-color="white"/>
            <stop offset="1" stop-color="#C7CAD1"/>
        </linearGradient>
        <clipPath id="clip0_14216_33586">
            <rect width="91" height="24" fill="white"/>
        </clipPath>
    </defs>
</svg>
