<svg xmlns="http://www.w3.org/2000/svg" width="95" height="24" viewBox="0 0 95 24" fill="none">
    <g clip-path="url(#clip0_14506_227850)">
        <path fill-rule="evenodd" clip-rule="evenodd" d="M10.4332 2.50195C10.9004 2.50195 11.2791 2.89228 11.2791 3.37376V5.69859C11.2791 6.18009 11.6578 6.5704 12.125 6.5704H16.0727C16.5399 6.5704 16.9186 6.96072 16.9186 7.44221V11.5107C16.9186 11.9922 16.5399 12.3825 16.0727 12.3825H12.125C11.6578 12.3825 11.2791 12.7728 11.2791 13.2543V14.4167C11.2791 14.8982 11.6578 15.2885 12.125 15.2885H16.0727C16.5399 15.2885 16.9186 15.6788 16.9186 16.1603V20.2288C16.9186 20.7103 16.5399 21.1006 16.0727 21.1006H12.125C11.6578 21.1006 11.2791 20.7103 11.2791 20.2288V17.9039C11.2791 17.4224 10.9004 17.0321 10.4332 17.0321H4.22966C3.76246 17.0321 3.38372 16.6418 3.38372 16.1603V12.0919C3.38372 11.6104 3.76246 11.2201 4.22966 11.2201H10.4332C10.9004 11.2201 11.2791 10.8297 11.2791 10.3482V9.18583C11.2791 8.70434 10.9004 8.31402 10.4332 8.31402H0.845931C0.378737 8.31402 0 7.92371 0 7.44221V3.37376C0 2.89228 0.378737 2.50195 0.845931 2.50195H10.4332ZM40.45 21.1017H36.9873L29.4209 13.1304H28.0102V21.1017H25.4453V2.50195H34.0378C37.6542 2.50195 39.8089 4.49478 39.8089 7.81618C39.8089 11.1376 37.6542 13.1304 34.0378 13.1304H32.7553L40.45 21.1017ZM37.2439 7.81618C37.2439 5.92962 36.2179 4.76049 34.0378 4.76049H28.0102V10.8718H34.0378C36.2179 10.8718 37.2439 9.70271 37.2439 7.81618ZM47.0125 21.5028C42.9087 21.5028 40.3438 18.3408 40.3438 14.1957C40.3438 10.0506 42.9087 6.88867 46.8846 6.88867C50.0906 6.88867 52.0144 8.74864 52.8607 11.512C53.1684 12.5483 53.2967 13.6909 53.2967 14.86V15.1257H42.8061C42.8833 17.3577 44.4733 19.5099 47.0125 19.5099C49.1929 19.5099 50.1932 18.2079 50.3983 17.2514H53.0401C52.4247 19.5099 50.3726 21.5028 47.0125 21.5028ZM42.8061 13.1329H50.8344C50.7061 10.7415 49.4749 8.88152 46.8846 8.88152C44.2939 8.88152 42.8833 10.8743 42.8061 13.1329ZM53.1953 7.59089V9.71654H56.4014V18.0864C56.4014 20.2121 57.1708 21.4078 59.5049 21.4078H62.3264V19.3353H60.0177C59.12 19.3353 58.8638 19.0164 58.8638 18.0864V9.71654H62.3264V7.59089H58.8638V4.40234H56.4014V7.59089H53.1953ZM69.6408 6.88867C73.745 6.88867 76.4379 10.0506 76.4379 14.1957C76.4379 18.3408 73.745 21.5028 69.6408 21.5028C65.537 21.5028 62.8438 18.3408 62.8438 14.1957C62.8438 10.0506 65.537 6.88867 69.6408 6.88867ZM69.6408 9.01436C66.8454 9.01436 65.3061 11.4057 65.3061 14.1957C65.3061 16.9857 66.8454 19.3771 69.6408 19.3771C72.4366 19.3771 73.9755 16.9857 73.9755 14.1957C73.9755 11.4057 72.4366 9.01436 69.6408 9.01436ZM91.125 14.1957C91.125 10.0506 88.4321 6.88867 84.328 6.88867C80.2241 6.88867 77.5312 10.0506 77.5312 14.1957C77.5312 18.3408 80.2241 21.5028 84.328 21.5028C88.4321 21.5028 91.125 18.3408 91.125 14.1957ZM79.9933 14.1957C79.9933 11.4057 81.5325 9.01436 84.328 9.01436C87.1238 9.01436 88.663 11.4057 88.663 14.1957C88.663 16.9857 87.1238 19.3771 84.328 19.3771C81.5325 19.3771 79.9933 16.9857 79.9933 14.1957ZM95.0092 2.50195V21.1017H92.5469V2.50195H95.0092Z" fill="url(#paint0_linear_14506_227850)"/>
    </g>
    <defs>
        <linearGradient id="paint0_linear_14506_227850" x1="8.45908" y1="2.50195" x2="8.45908" y2="21.1014" gradientUnits="userSpaceOnUse">
            <stop stop-color="white"/>
            <stop offset="1" stop-color="#C7CAD1"/>
        </linearGradient>
        <clipPath id="clip0_14506_227850">
            <rect width="95" height="24" fill="white"/>
        </clipPath>
    </defs>
</svg>
