<svg width="121" height="24" viewBox="0 0 121 24" fill="none" xmlns="http://www.w3.org/2000/svg">
<path fill-rule="evenodd" clip-rule="evenodd" d="M56.4544 7.82978C56.4544 8.24339 55.9851 8.47972 55.6538 8.2355C55.4251 8.06613 55.1766 7.90857 54.9085 7.77463C54.0605 7.34134 53.1022 7.12075 52.0295 7.12075C50.7399 7.12075 49.5805 7.43194 48.5472 8.05036C47.5179 8.66879 46.7055 9.51569 46.11 10.5871C45.5145 11.6585 45.2188 12.8639 45.2188 14.2032C45.2188 15.5424 45.5145 16.7478 46.11 17.8192C46.7055 18.8906 47.5179 19.7415 48.5472 20.3678C49.5765 20.994 50.736 21.3092 52.0295 21.3092C53.0865 21.3092 54.0448 21.0926 54.9085 20.6553C55.216 20.5017 55.496 20.3205 55.7524 20.1157C56.0876 19.8478 56.5806 20.0723 56.5806 20.5017C56.5806 20.7813 56.8053 21.0059 57.0853 21.0059H58.7891C59.0691 21.0059 59.2938 20.7813 59.2938 20.5017V2.5042C59.2938 2.22453 59.0691 2 58.7891 2H56.9592C56.6792 2 56.4544 2.22453 56.4544 2.5042V7.82978ZM55.9141 16.4996C55.5553 17.1772 55.0623 17.7089 54.443 18.0949C53.8239 18.481 53.118 18.6739 52.3332 18.6739C51.5484 18.6739 50.8109 18.481 50.1839 18.0949C49.5568 17.7089 49.0638 17.1772 48.7129 16.4996C48.3619 15.8221 48.1844 15.0579 48.1844 14.2032C48.1844 13.3484 48.3619 12.5921 48.7129 11.9303C49.0638 11.2686 49.5608 10.7407 50.1957 10.3508C50.8307 9.95686 51.5445 9.75991 52.3332 9.75991C53.1219 9.75991 53.8239 9.95292 54.443 10.339C55.0623 10.725 55.5513 11.2567 55.9141 11.9343C56.273 12.6118 56.4544 13.3681 56.4544 14.2071C56.4544 15.0461 56.273 15.8261 55.9141 16.5036V16.4996ZM28.3333 7.11328C29.6741 7.11328 30.8769 7.42053 31.9418 8.03108L31.9339 8.03502C32.9986 8.64557 33.8466 9.48065 34.4735 10.5442C35.1006 11.6077 35.4162 12.8249 35.4162 14.1956C35.4162 15.5664 35.0968 16.7875 34.4618 17.8589C33.8269 18.9265 32.9711 19.7695 31.8984 20.38C30.8257 20.9944 29.6504 21.2978 28.3293 21.2978C27.0082 21.2978 25.8092 20.9866 24.7365 20.3681C23.6638 19.7498 22.8081 18.9029 22.1732 17.8314C21.5383 16.76 21.2188 15.5626 21.2188 14.1918C21.2188 12.821 21.5343 11.6038 22.1614 10.5402C22.7883 9.48065 23.6403 8.64163 24.7129 8.03108C25.7856 7.42053 26.9923 7.11328 28.3333 7.11328ZM30.447 18.0875C31.0662 17.7014 31.5591 17.1696 31.9181 16.4921C32.2769 15.8147 32.4583 15.0505 32.4583 14.1956C32.4583 13.3409 32.2769 12.5846 31.9181 11.9229C31.5553 11.265 31.0662 10.7372 30.447 10.3433C29.8279 9.94939 29.1259 9.75244 28.3372 9.75244C27.5484 9.75244 26.8385 9.94939 26.2115 10.3433C25.5845 10.7333 25.0875 11.2611 24.7287 11.9229C24.3698 12.5846 24.1884 13.3409 24.1884 14.1956C24.1884 15.0505 24.3698 15.8147 24.7287 16.4921C25.0875 17.1696 25.5845 17.7014 26.2115 18.0875C26.8425 18.4735 27.5524 18.6665 28.3372 18.6665C29.122 18.6665 29.8279 18.4735 30.447 18.0875ZM40.8687 8.17574C41.0146 8.04576 41.1684 7.93152 41.338 7.83305C42.0084 7.43914 42.8129 7.24219 43.7516 7.24219H44.1419C44.3825 7.24219 44.5797 7.4352 44.5797 7.67942V9.38896C44.5797 9.62925 44.3865 9.8262 44.1419 9.8262H43.4005C42.462 9.8262 41.7047 10.1177 41.125 10.7046C40.5453 11.2915 40.2574 12.1108 40.2574 13.1666V20.5601C40.2574 20.8004 40.0642 20.9973 39.8197 20.9973H37.8596C37.6191 20.9973 37.4219 20.8044 37.4219 20.5601V7.85668C37.4219 7.6164 37.6151 7.41945 37.8596 7.41945H39.6935C39.9341 7.41945 40.1312 7.61246 40.1312 7.85668C40.1312 8.2427 40.5847 8.43178 40.8687 8.17574ZM72.3958 7.89459L74.6594 14.6658H74.6555C74.8684 15.304 75.7677 15.304 75.9806 14.6658L78.2285 7.89459C78.3231 7.61098 78.5914 7.41797 78.8911 7.41797H80.4213C80.8984 7.41797 81.2375 7.89065 81.0798 8.34365L76.864 20.531C76.7694 20.8107 76.5011 20.9998 76.2054 20.9998H74.6437C74.344 20.9998 74.0757 20.8068 73.9812 20.5232L71.5992 13.3501C71.3862 12.712 70.487 12.712 70.2741 13.3501L67.8921 20.5232C67.7974 20.8068 67.5293 20.9998 67.2296 20.9998H65.6441C65.3483 20.9998 65.0842 20.8107 64.9855 20.531L60.7894 8.34365C60.6317 7.89065 60.9669 7.41797 61.448 7.41797H62.9822C63.2819 7.41797 63.55 7.61098 63.6447 7.89854L65.8768 14.6658C66.0858 15.304 66.989 15.304 67.2019 14.6698L69.4853 7.89459C69.58 7.61098 69.8482 7.41797 70.1479 7.41797H71.7333C72.033 7.41797 72.3011 7.61098 72.3958 7.89459ZM13.9094 14.6658L11.6458 7.89459C11.5511 7.61098 11.2829 7.41797 10.9832 7.41797H9.39784C9.09812 7.41797 8.82995 7.61098 8.7353 7.89459L6.45189 14.6698C6.23893 15.304 5.33582 15.304 5.1268 14.6658L2.89466 7.89854C2.80001 7.61098 2.53184 7.41797 2.23212 7.41797H0.698016C0.216883 7.41797 -0.118332 7.89065 0.039417 8.34365L4.23553 20.531C4.33412 20.8107 4.59835 20.9998 4.89413 20.9998H6.4795C6.77922 20.9998 7.04739 20.8068 7.14204 20.5232L9.52404 13.3501C9.737 12.712 10.6362 12.712 10.8491 13.3501L13.2311 20.5232C13.3258 20.8068 13.5939 20.9998 13.8937 20.9998H15.4553C15.7512 20.9998 16.0193 20.8107 16.114 20.531L20.3298 8.34365C20.4876 7.89065 20.1484 7.41797 19.6712 7.41797H18.141C17.8413 7.41797 17.5732 7.61098 17.4785 7.89459L15.2306 14.6658C15.0177 15.304 14.1185 15.304 13.9055 14.6658H13.9094ZM102.173 8.17574C102.319 8.04576 102.473 7.93152 102.643 7.83305C103.313 7.43914 104.118 7.24219 105.056 7.24219H105.447C105.687 7.24219 105.884 7.4352 105.884 7.67942V9.38896C105.884 9.62925 105.691 9.8262 105.447 9.8262H104.705C103.767 9.8262 103.009 10.1177 102.43 10.7046C101.85 11.2915 101.562 12.1108 101.562 13.1666V20.5601C101.562 20.8004 101.369 20.9973 101.124 20.9973H99.1643C98.9238 20.9973 98.7266 20.8044 98.7266 20.5601V7.85668C98.7266 7.6164 98.9199 7.41945 99.1643 7.41945H100.998C101.239 7.41945 101.436 7.61246 101.436 7.85668C101.436 8.2427 101.889 8.43178 102.173 8.17574ZM119.969 11.1784C119.677 10.3906 119.251 9.69336 118.699 9.0828C118.146 8.47225 117.468 7.99169 116.664 7.64111C115.859 7.29054 114.936 7.11328 113.899 7.11328C112.641 7.11328 111.505 7.42053 110.492 8.03108C109.478 8.64163 108.678 9.47277 108.09 10.5284C107.503 11.5841 107.211 12.7974 107.211 14.1682C107.211 15.5389 107.503 16.7166 108.09 17.796C108.678 18.8753 109.49 19.73 110.527 20.3563C111.564 20.9827 112.764 21.2978 114.12 21.2978C115.059 21.2978 115.918 21.1521 116.696 20.8566C117.477 20.5652 118.143 20.1672 118.706 19.663C119.05 19.3558 119.337 19.025 119.57 18.6705C119.807 18.3081 119.681 17.8236 119.294 17.6305L118.194 17.079C117.887 16.9254 117.52 17.016 117.306 17.2878C117.011 17.6581 116.664 17.9733 116.258 18.2332C115.69 18.5995 114.984 18.7847 114.148 18.7847C113.36 18.7847 112.653 18.5916 112.022 18.2057C111.395 17.8196 110.906 17.2838 110.563 16.5985C110.456 16.3897 110.373 16.1652 110.307 15.9328C110.181 15.472 110.52 15.015 110.997 15.015H119.662C120.028 15.015 120.348 14.7354 120.375 14.369V14.3611C120.391 14.1287 120.398 13.9002 120.398 13.6836C120.398 12.7974 120.253 11.9583 119.957 11.1744L119.969 11.1784ZM110.559 11.6786C110.878 10.9775 111.329 10.4378 111.915 10.0597C112.503 9.68154 113.161 9.49641 113.899 9.49641C114.637 9.49641 115.315 9.68548 115.883 10.0597C116.451 10.4339 116.874 10.946 117.142 11.592C117.176 11.6747 117.208 11.7614 117.232 11.848C117.374 12.301 117.019 12.7579 116.542 12.7579H111.178C110.67 12.7579 110.314 12.238 110.512 11.7692C110.52 11.7476 110.53 11.7259 110.539 11.7055L110.551 11.6786H110.559ZM92.185 8.31982C92.5164 8.56405 92.9856 8.3277 92.9856 7.9141V7.90623C92.9856 7.62655 93.2105 7.40203 93.4905 7.40203H95.3203C95.6003 7.40203 95.8252 7.62655 95.8252 7.90623V20.586C95.8252 20.8656 95.6003 21.0902 95.3203 21.0902H93.6167C93.3367 21.0902 93.1118 20.8656 93.1118 20.586C93.1118 20.1566 92.6189 19.9321 92.2837 20.2C92.0274 20.4048 91.7473 20.586 91.4397 20.7396C90.576 21.1769 89.6177 21.3935 88.5608 21.3935C87.2673 21.3935 86.1078 21.0783 85.0785 20.4521C84.0492 19.8258 83.2368 18.9749 82.6413 17.9035C82.0458 16.8321 81.75 15.6267 81.75 14.2875C81.75 12.9482 82.0458 11.7429 82.6413 10.6714C83.2368 9.60002 84.0492 8.75312 85.0785 8.13469C86.1118 7.51626 87.2713 7.20508 88.5608 7.20508C89.6335 7.20508 90.5918 7.42566 91.4397 7.85896C91.7079 7.99288 91.9563 8.15044 92.185 8.31982ZM90.9744 18.1753C91.5935 17.7893 92.0865 17.2575 92.4453 16.58V16.5839C92.8043 15.9064 92.9856 15.1265 92.9856 14.2875C92.9856 13.4485 92.8043 12.6922 92.4453 12.0146C92.0825 11.3371 91.5935 10.8054 90.9744 10.4193C90.3552 10.0333 89.6533 9.84029 88.8644 9.84029C88.0757 9.84029 87.3619 10.0372 86.727 10.4311C86.0921 10.8211 85.5952 11.3489 85.2441 12.0107C84.8931 12.6725 84.7157 13.4288 84.7157 14.2835C84.7157 15.1383 84.8931 15.9024 85.2441 16.58C85.5952 17.2575 86.0881 17.7893 86.7151 18.1753C87.3422 18.5613 88.0797 18.7544 88.8644 18.7544C89.6493 18.7544 90.3552 18.5613 90.9744 18.1753Z" fill="#E4E5E7"/>
<path fill-rule="evenodd" clip-rule="evenodd" d="M56.4544 7.82978C56.4544 8.24339 55.9851 8.47972 55.6538 8.2355C55.4251 8.06613 55.1766 7.90857 54.9085 7.77463C54.0605 7.34134 53.1022 7.12075 52.0295 7.12075C50.7399 7.12075 49.5805 7.43194 48.5472 8.05036C47.5179 8.66879 46.7055 9.51569 46.11 10.5871C45.5145 11.6585 45.2188 12.8639 45.2188 14.2032C45.2188 15.5424 45.5145 16.7478 46.11 17.8192C46.7055 18.8906 47.5179 19.7415 48.5472 20.3678C49.5765 20.994 50.736 21.3092 52.0295 21.3092C53.0865 21.3092 54.0448 21.0926 54.9085 20.6553C55.216 20.5017 55.496 20.3205 55.7524 20.1157C56.0876 19.8478 56.5806 20.0723 56.5806 20.5017C56.5806 20.7813 56.8053 21.0059 57.0853 21.0059H58.7891C59.0691 21.0059 59.2938 20.7813 59.2938 20.5017V2.5042C59.2938 2.22453 59.0691 2 58.7891 2H56.9592C56.6792 2 56.4544 2.22453 56.4544 2.5042V7.82978ZM55.9141 16.4996C55.5553 17.1772 55.0623 17.7089 54.443 18.0949C53.8239 18.481 53.118 18.6739 52.3332 18.6739C51.5484 18.6739 50.8109 18.481 50.1839 18.0949C49.5568 17.7089 49.0638 17.1772 48.7129 16.4996C48.3619 15.8221 48.1844 15.0579 48.1844 14.2032C48.1844 13.3484 48.3619 12.5921 48.7129 11.9303C49.0638 11.2686 49.5608 10.7407 50.1957 10.3508C50.8307 9.95686 51.5445 9.75991 52.3332 9.75991C53.1219 9.75991 53.8239 9.95292 54.443 10.339C55.0623 10.725 55.5513 11.2567 55.9141 11.9343C56.273 12.6118 56.4544 13.3681 56.4544 14.2071C56.4544 15.0461 56.273 15.8261 55.9141 16.5036V16.4996ZM28.3333 7.11328C29.6741 7.11328 30.8769 7.42053 31.9418 8.03108L31.9339 8.03502C32.9986 8.64557 33.8466 9.48065 34.4735 10.5442C35.1006 11.6077 35.4162 12.8249 35.4162 14.1956C35.4162 15.5664 35.0968 16.7875 34.4618 17.8589C33.8269 18.9265 32.9711 19.7695 31.8984 20.38C30.8257 20.9944 29.6504 21.2978 28.3293 21.2978C27.0082 21.2978 25.8092 20.9866 24.7365 20.3681C23.6638 19.7498 22.8081 18.9029 22.1732 17.8314C21.5383 16.76 21.2188 15.5626 21.2188 14.1918C21.2188 12.821 21.5343 11.6038 22.1614 10.5402C22.7883 9.48065 23.6403 8.64163 24.7129 8.03108C25.7856 7.42053 26.9923 7.11328 28.3333 7.11328ZM30.447 18.0875C31.0662 17.7014 31.5591 17.1696 31.9181 16.4921C32.2769 15.8147 32.4583 15.0505 32.4583 14.1956C32.4583 13.3409 32.2769 12.5846 31.9181 11.9229C31.5553 11.265 31.0662 10.7372 30.447 10.3433C29.8279 9.94939 29.1259 9.75244 28.3372 9.75244C27.5484 9.75244 26.8385 9.94939 26.2115 10.3433C25.5845 10.7333 25.0875 11.2611 24.7287 11.9229C24.3698 12.5846 24.1884 13.3409 24.1884 14.1956C24.1884 15.0505 24.3698 15.8147 24.7287 16.4921C25.0875 17.1696 25.5845 17.7014 26.2115 18.0875C26.8425 18.4735 27.5524 18.6665 28.3372 18.6665C29.122 18.6665 29.8279 18.4735 30.447 18.0875ZM40.8687 8.17574C41.0146 8.04576 41.1684 7.93152 41.338 7.83305C42.0084 7.43914 42.8129 7.24219 43.7516 7.24219H44.1419C44.3825 7.24219 44.5797 7.4352 44.5797 7.67942V9.38896C44.5797 9.62925 44.3865 9.8262 44.1419 9.8262H43.4005C42.462 9.8262 41.7047 10.1177 41.125 10.7046C40.5453 11.2915 40.2574 12.1108 40.2574 13.1666V20.5601C40.2574 20.8004 40.0642 20.9973 39.8197 20.9973H37.8596C37.6191 20.9973 37.4219 20.8044 37.4219 20.5601V7.85668C37.4219 7.6164 37.6151 7.41945 37.8596 7.41945H39.6935C39.9341 7.41945 40.1312 7.61246 40.1312 7.85668C40.1312 8.2427 40.5847 8.43178 40.8687 8.17574ZM72.3958 7.89459L74.6594 14.6658H74.6555C74.8684 15.304 75.7677 15.304 75.9806 14.6658L78.2285 7.89459C78.3231 7.61098 78.5914 7.41797 78.8911 7.41797H80.4213C80.8984 7.41797 81.2375 7.89065 81.0798 8.34365L76.864 20.531C76.7694 20.8107 76.5011 20.9998 76.2054 20.9998H74.6437C74.344 20.9998 74.0757 20.8068 73.9812 20.5232L71.5992 13.3501C71.3862 12.712 70.487 12.712 70.2741 13.3501L67.8921 20.5232C67.7974 20.8068 67.5293 20.9998 67.2296 20.9998H65.6441C65.3483 20.9998 65.0842 20.8107 64.9855 20.531L60.7894 8.34365C60.6317 7.89065 60.9669 7.41797 61.448 7.41797H62.9822C63.2819 7.41797 63.55 7.61098 63.6447 7.89854L65.8768 14.6658C66.0858 15.304 66.989 15.304 67.2019 14.6698L69.4853 7.89459C69.58 7.61098 69.8482 7.41797 70.1479 7.41797H71.7333C72.033 7.41797 72.3011 7.61098 72.3958 7.89459ZM13.9094 14.6658L11.6458 7.89459C11.5511 7.61098 11.2829 7.41797 10.9832 7.41797H9.39784C9.09812 7.41797 8.82995 7.61098 8.7353 7.89459L6.45189 14.6698C6.23893 15.304 5.33582 15.304 5.1268 14.6658L2.89466 7.89854C2.80001 7.61098 2.53184 7.41797 2.23212 7.41797H0.698016C0.216883 7.41797 -0.118332 7.89065 0.039417 8.34365L4.23553 20.531C4.33412 20.8107 4.59835 20.9998 4.89413 20.9998H6.4795C6.77922 20.9998 7.04739 20.8068 7.14204 20.5232L9.52404 13.3501C9.737 12.712 10.6362 12.712 10.8491 13.3501L13.2311 20.5232C13.3258 20.8068 13.5939 20.9998 13.8937 20.9998H15.4553C15.7512 20.9998 16.0193 20.8107 16.114 20.531L20.3298 8.34365C20.4876 7.89065 20.1484 7.41797 19.6712 7.41797H18.141C17.8413 7.41797 17.5732 7.61098 17.4785 7.89459L15.2306 14.6658C15.0177 15.304 14.1185 15.304 13.9055 14.6658H13.9094ZM102.173 8.17574C102.319 8.04576 102.473 7.93152 102.643 7.83305C103.313 7.43914 104.118 7.24219 105.056 7.24219H105.447C105.687 7.24219 105.884 7.4352 105.884 7.67942V9.38896C105.884 9.62925 105.691 9.8262 105.447 9.8262H104.705C103.767 9.8262 103.009 10.1177 102.43 10.7046C101.85 11.2915 101.562 12.1108 101.562 13.1666V20.5601C101.562 20.8004 101.369 20.9973 101.124 20.9973H99.1643C98.9238 20.9973 98.7266 20.8044 98.7266 20.5601V7.85668C98.7266 7.6164 98.9199 7.41945 99.1643 7.41945H100.998C101.239 7.41945 101.436 7.61246 101.436 7.85668C101.436 8.2427 101.889 8.43178 102.173 8.17574ZM119.969 11.1784C119.677 10.3906 119.251 9.69336 118.699 9.0828C118.146 8.47225 117.468 7.99169 116.664 7.64111C115.859 7.29054 114.936 7.11328 113.899 7.11328C112.641 7.11328 111.505 7.42053 110.492 8.03108C109.478 8.64163 108.678 9.47277 108.09 10.5284C107.503 11.5841 107.211 12.7974 107.211 14.1682C107.211 15.5389 107.503 16.7166 108.09 17.796C108.678 18.8753 109.49 19.73 110.527 20.3563C111.564 20.9827 112.764 21.2978 114.12 21.2978C115.059 21.2978 115.918 21.1521 116.696 20.8566C117.477 20.5652 118.143 20.1672 118.706 19.663C119.05 19.3558 119.337 19.025 119.57 18.6705C119.807 18.3081 119.681 17.8236 119.294 17.6305L118.194 17.079C117.887 16.9254 117.52 17.016 117.306 17.2878C117.011 17.6581 116.664 17.9733 116.258 18.2332C115.69 18.5995 114.984 18.7847 114.148 18.7847C113.36 18.7847 112.653 18.5916 112.022 18.2057C111.395 17.8196 110.906 17.2838 110.563 16.5985C110.456 16.3897 110.373 16.1652 110.307 15.9328C110.181 15.472 110.52 15.015 110.997 15.015H119.662C120.028 15.015 120.348 14.7354 120.375 14.369V14.3611C120.391 14.1287 120.398 13.9002 120.398 13.6836C120.398 12.7974 120.253 11.9583 119.957 11.1744L119.969 11.1784ZM110.559 11.6786C110.878 10.9775 111.329 10.4378 111.915 10.0597C112.503 9.68154 113.161 9.49641 113.899 9.49641C114.637 9.49641 115.315 9.68548 115.883 10.0597C116.451 10.4339 116.874 10.946 117.142 11.592C117.176 11.6747 117.208 11.7614 117.232 11.848C117.374 12.301 117.019 12.7579 116.542 12.7579H111.178C110.67 12.7579 110.314 12.238 110.512 11.7692C110.52 11.7476 110.53 11.7259 110.539 11.7055L110.551 11.6786H110.559ZM92.185 8.31982C92.5164 8.56405 92.9856 8.3277 92.9856 7.9141V7.90623C92.9856 7.62655 93.2105 7.40203 93.4905 7.40203H95.3203C95.6003 7.40203 95.8252 7.62655 95.8252 7.90623V20.586C95.8252 20.8656 95.6003 21.0902 95.3203 21.0902H93.6167C93.3367 21.0902 93.1118 20.8656 93.1118 20.586C93.1118 20.1566 92.6189 19.9321 92.2837 20.2C92.0274 20.4048 91.7473 20.586 91.4397 20.7396C90.576 21.1769 89.6177 21.3935 88.5608 21.3935C87.2673 21.3935 86.1078 21.0783 85.0785 20.4521C84.0492 19.8258 83.2368 18.9749 82.6413 17.9035C82.0458 16.8321 81.75 15.6267 81.75 14.2875C81.75 12.9482 82.0458 11.7429 82.6413 10.6714C83.2368 9.60002 84.0492 8.75312 85.0785 8.13469C86.1118 7.51626 87.2713 7.20508 88.5608 7.20508C89.6335 7.20508 90.5918 7.42566 91.4397 7.85896C91.7079 7.99288 91.9563 8.15044 92.185 8.31982ZM90.9744 18.1753C91.5935 17.7893 92.0865 17.2575 92.4453 16.58V16.5839C92.8043 15.9064 92.9856 15.1265 92.9856 14.2875C92.9856 13.4485 92.8043 12.6922 92.4453 12.0146C92.0825 11.3371 91.5935 10.8054 90.9744 10.4193C90.3552 10.0333 89.6533 9.84029 88.8644 9.84029C88.0757 9.84029 87.3619 10.0372 86.727 10.4311C86.0921 10.8211 85.5952 11.3489 85.2441 12.0107C84.8931 12.6725 84.7157 13.4288 84.7157 14.2835C84.7157 15.1383 84.8931 15.9024 85.2441 16.58C85.5952 17.2575 86.0881 17.7893 86.7151 18.1753C87.3422 18.5613 88.0797 18.7544 88.8644 18.7544C89.6493 18.7544 90.3552 18.5613 90.9744 18.1753Z" fill="url(#paint0_linear_14506_227861)"/>
<defs>
<linearGradient id="paint0_linear_14506_227861" x1="10.7196" y1="2" x2="10.7196" y2="20.9839" gradientUnits="userSpaceOnUse">
<stop stop-color="white"/>
<stop offset="1" stop-color="#C7CAD1"/>
</linearGradient>
</defs>
</svg>
