<svg width="144" height="16" viewBox="0 0 144 16" fill="none" xmlns="http://www.w3.org/2000/svg">
<g clip-path="url(#clip0_9980_18343)">
<path d="M3.12367 11.7449C2.48276 11.7449 1.94097 11.6427 1.49828 11.4383C1.0622 11.2339 0.72853 10.9536 0.497273 10.5976C0.266018 10.2349 0.150391 9.82607 0.150391 9.37109H1.52801C1.52801 9.5623 1.58087 9.75023 1.68658 9.93487C1.7923 10.1129 1.96079 10.258 2.19204 10.3701C2.4299 10.4822 2.74045 10.5382 3.12367 10.5382C3.46726 10.5382 3.75468 10.4888 3.98592 10.3899C4.21717 10.2909 4.38897 10.1624 4.50129 10.0041C4.6136 9.83925 4.66977 9.65464 4.66977 9.45022C4.66977 9.19305 4.56075 8.98863 4.34271 8.83698C4.12467 8.67872 3.7877 8.57982 3.3318 8.54025L2.6975 8.4908C2.00373 8.43145 1.44872 8.21714 1.03246 7.84789C0.622812 7.47203 0.417985 6.97749 0.417985 6.36425C0.417985 5.90267 0.527005 5.50703 0.745046 5.17734C0.963086 4.84105 1.26702 4.58389 1.65685 4.40585C2.05329 4.22121 2.5158 4.12891 3.04438 4.12891C3.59278 4.12891 4.06521 4.22453 4.46165 4.41574C4.85808 4.60696 5.16532 4.87733 5.38336 5.2268C5.6014 5.56969 5.71042 5.97522 5.71042 6.44338H4.3328C4.3328 6.24556 4.28325 6.06424 4.18414 5.89938C4.09165 5.72795 3.94957 5.59276 3.75797 5.49385C3.57296 5.38834 3.33509 5.3356 3.04438 5.3356C2.76688 5.3356 2.53562 5.38176 2.35062 5.47407C2.16561 5.56638 2.02686 5.69167 1.93436 5.84992C1.84186 6.00818 1.7956 6.17961 1.7956 6.36425C1.7956 6.58846 1.8782 6.78627 2.04338 6.95771C2.20856 7.12256 2.46955 7.21816 2.82634 7.24454L3.46064 7.30389C3.97601 7.34345 4.42862 7.45225 4.81844 7.63029C5.20826 7.80832 5.50891 8.04899 5.72033 8.35232C5.93837 8.65566 6.04739 9.02162 6.04739 9.45022C6.04739 9.9052 5.92846 10.3074 5.6906 10.6569C5.45274 10.9998 5.11247 11.2669 4.66977 11.4581C4.23369 11.6493 3.71833 11.7449 3.12367 11.7449Z" fill="#777AAF"/>
<path d="M8.62256 11.5573V4.33691H10.0002V11.5573H8.62256ZM9.80196 11.5573V10.3704H13.0825V11.5573H9.80196ZM9.80196 8.4812V7.2943H12.8248V8.4812H9.80196ZM9.80196 5.52382V4.33691H13.0032V5.52382H9.80196Z" fill="#777AAF"/>
<path d="M15.1016 11.5573L17.5694 4.33691H19.8687L22.4059 11.5573H20.9589L18.8082 5.29633L19.3137 5.51393H18.0748L18.5902 5.29633L16.5089 11.5573H15.1016ZM16.8261 9.63844L17.2721 8.45153H20.2057L20.6418 9.63844H16.8261Z" fill="#777AAF"/>
<path d="M24.769 11.5569V4.28711H26.1764V11.5569H24.769ZM29.1895 11.5569L26.9693 8.41162H28.5451L30.8347 11.5569H29.1895ZM25.7601 9.14355V8.00609H27.6036C27.8613 8.00609 28.0826 7.95335 28.2676 7.84784C28.4592 7.74232 28.6079 7.59396 28.7136 7.40275C28.8193 7.21153 28.8722 6.99393 28.8722 6.74995C28.8722 6.49939 28.8193 6.27847 28.7136 6.08726C28.6079 5.89604 28.4592 5.74768 28.2676 5.64216C28.0826 5.53665 27.8613 5.48391 27.6036 5.48391H25.7601V4.28711H27.4549C28.0364 4.28711 28.5385 4.37284 28.9614 4.54427C29.3909 4.71571 29.7212 4.97619 29.9526 5.32566C30.1838 5.67512 30.2995 6.11364 30.2995 6.64115V6.7994C30.2995 7.33351 30.1806 7.772 29.9427 8.11489C29.7112 8.45779 29.3842 8.71495 28.9614 8.88638C28.5385 9.05782 28.0364 9.14355 27.4549 9.14355H25.7601Z" fill="#777AAF"/>
<path d="M36.3543 11.7449C35.7002 11.7449 35.1388 11.6295 34.6695 11.3987C34.2005 11.1679 33.8171 10.8679 33.5198 10.4987C33.2292 10.1294 33.0144 9.72716 32.8756 9.29196C32.7369 8.85676 32.6675 8.43806 32.6675 8.03582V7.81822C32.6675 7.36984 32.7369 6.92803 32.8756 6.49283C33.0211 6.05763 33.2423 5.662 33.5396 5.30592C33.837 4.94985 34.2136 4.6663 34.6695 4.45531C35.1321 4.23771 35.6772 4.12891 36.3048 4.12891C36.9589 4.12891 37.5273 4.2476 38.0095 4.48498C38.4986 4.71576 38.8883 5.04547 39.179 5.47407C39.4699 5.89609 39.6448 6.39064 39.7042 6.95771H38.287C38.2342 6.62802 38.1153 6.35107 37.9302 6.12687C37.7518 5.89609 37.5238 5.72463 37.2463 5.61254C36.9688 5.49385 36.6552 5.43451 36.3048 5.43451C35.948 5.43451 35.6308 5.49714 35.3533 5.62243C35.0758 5.74112 34.8447 5.91256 34.6596 6.13676C34.4748 6.36096 34.3325 6.6247 34.2334 6.92803C34.141 7.23136 34.0947 7.56766 34.0947 7.93691C34.0947 8.29298 34.141 8.62267 34.2334 8.926C34.3325 9.22933 34.478 9.49638 34.6695 9.72716C34.8613 9.95137 35.0957 10.1261 35.3732 10.2514C35.6574 10.3767 35.9844 10.4393 36.3543 10.4393C36.8962 10.4393 37.3521 10.3074 37.7221 10.0437C38.0987 9.77333 38.3266 9.39747 38.4059 8.91611H39.8232C39.7573 9.43043 39.5821 9.90191 39.2979 10.3305C39.014 10.7591 38.624 11.102 38.1284 11.3592C37.6329 11.6163 37.0417 11.7449 36.3543 11.7449Z" fill="#777AAF"/>
<path d="M47.0467 11.5573V4.33691H48.454V11.5573H47.0467ZM42.2993 11.5573V4.33691H43.7067V11.5573H42.2993ZM43.449 8.56033V7.32397H47.3043V8.56033H43.449Z" fill="#777AAF"/>
<path d="M56.1311 11.6064V10.4788H57.9448C58.275 10.4788 58.526 10.3898 58.698 10.2118C58.8697 10.0271 58.9557 9.77656 58.9557 9.46005C58.9557 9.14355 58.8697 8.89956 58.698 8.72813C58.526 8.55009 58.275 8.46107 57.9448 8.46107H56.1311V7.60056H57.8457C58.3278 7.60056 58.7575 7.65991 59.1341 7.7786C59.5171 7.89069 59.8144 8.08193 60.0261 8.35227C60.2441 8.62262 60.3531 8.98529 60.3531 9.44027V9.57875C60.3531 10.0073 60.2572 10.3733 60.0657 10.6766C59.8806 10.9734 59.5999 11.2041 59.2233 11.369C58.8531 11.5273 58.394 11.6064 57.8457 11.6064H56.1311ZM54.9517 11.6064V4.28711H56.3293V11.6064H54.9517ZM56.1311 8.23358V7.37307H57.6772C58.0141 7.37307 58.2619 7.28405 58.4205 7.10602C58.5791 6.92798 58.6583 6.6906 58.6583 6.39387C58.6583 6.09715 58.5791 5.85976 58.4205 5.68173C58.2619 5.50369 58.0141 5.41467 57.6772 5.41467H56.1311V4.28711H57.5483C58.3674 4.28711 58.9886 4.45854 59.4116 4.80144C59.841 5.14433 60.0558 5.63556 60.0558 6.27518V6.41366C60.0558 6.86203 59.9468 7.22142 59.7287 7.49176C59.5171 7.75553 59.2233 7.94675 58.8467 8.06544C58.47 8.17752 58.0372 8.23358 57.5483 8.23358H56.1311Z" fill="#777AAF"/>
<path d="M64.1609 8.79771L61.9805 4.33691H63.4275L65.0925 7.8284L64.7754 7.7295H65.7169L65.3799 7.8284L66.8963 4.33691H68.264L66.2521 8.79771H64.1609ZM64.5177 11.5573V8.58011H65.8953V11.5573H64.5177Z" fill="#777AAF"/>
<path fill-rule="evenodd" clip-rule="evenodd" d="M108.723 8.72592V0.320877C108.723 0.207618 108.622 0.121505 108.51 0.138977L106.933 0.386707C106.843 0.400749 106.777 0.478125 106.777 0.568918L106.782 9.09348C106.782 9.49656 106.782 11.9857 109.782 12.0728C109.887 12.0759 109.973 11.9923 109.973 11.8884V10.616C109.973 10.5237 109.904 10.4441 109.813 10.4338C108.723 10.3087 108.723 8.94963 108.723 8.72656L108.723 8.72592Z" fill="#003DFF"/>
<path d="M134.74 3.40479H133.153C133.051 3.40479 132.968 3.48723 132.968 3.58887V11.8913C132.968 11.9929 133.051 12.0754 133.153 12.0754H134.74C134.842 12.0754 134.925 11.9929 134.925 11.8913V3.58887C134.925 3.48723 134.842 3.40479 134.74 3.40479Z" fill="#003DFF"/>
<path fill-rule="evenodd" clip-rule="evenodd" d="M133.153 2.36356H134.74C134.842 2.36356 134.924 2.28119 134.924 2.17947V0.320868C134.924 0.207924 134.823 0.121498 134.711 0.138971L133.124 0.387015C133.034 0.401054 132.968 0.478119 132.968 0.568912V2.17947C132.968 2.28119 133.05 2.36356 133.152 2.36356H133.153Z" fill="#003DFF"/>
<path fill-rule="evenodd" clip-rule="evenodd" d="M130.41 8.72592V0.320877C130.41 0.207618 130.308 0.121505 130.196 0.138977L128.619 0.386707C128.529 0.400749 128.463 0.478125 128.463 0.568918L128.468 9.09348C128.468 9.49656 128.468 11.9857 131.469 12.0728C131.573 12.0759 131.659 11.9923 131.659 11.8884V10.616C131.659 10.5237 131.591 10.4441 131.499 10.4338C130.41 10.3087 130.41 8.94963 130.41 8.72656L130.41 8.72592Z" fill="#003DFF"/>
<path fill-rule="evenodd" clip-rule="evenodd" d="M126.28 4.59002C125.932 4.20782 125.503 3.91453 125.005 3.70673C124.507 3.50301 123.965 3.39941 123.377 3.39941C122.79 3.39941 122.247 3.49832 121.754 3.70673C121.267 3.91453 120.838 4.2075 120.479 4.59002C120.121 4.9716 119.842 5.42836 119.643 5.96378C119.443 6.49949 119.354 7.12971 119.354 7.78461C119.354 8.4395 119.454 8.93498 119.653 9.47598C119.852 10.0164 120.126 10.4778 120.479 10.86C120.832 11.2416 121.256 11.5346 121.749 11.748C122.242 11.9611 123.003 12.0703 123.387 12.075C123.77 12.075 124.537 11.9558 125.035 11.748C125.532 11.5396 125.956 11.2416 126.309 10.86C126.662 10.4778 126.936 10.0164 127.13 9.47598C127.325 8.93498 127.419 8.4395 127.419 7.78461C127.419 7.12971 127.315 6.49949 127.106 5.96378C126.906 5.42807 126.632 4.9716 126.279 4.59002H126.28ZM124.891 9.69908C124.532 10.1905 124.029 10.4385 123.387 10.4385C122.745 10.4385 122.242 10.1952 121.884 9.69908C121.525 9.20768 121.346 8.63796 121.346 7.78961C121.346 6.95063 121.52 6.25643 121.879 5.76564C122.237 5.27424 122.74 5.03182 123.382 5.03182C124.024 5.03182 124.527 5.27456 124.885 5.76564C125.244 6.25143 125.428 6.95063 125.428 7.78961C125.428 8.63796 125.249 9.20299 124.89 9.69908H124.891Z" fill="#003DFF"/>
<path fill-rule="evenodd" clip-rule="evenodd" d="M103.223 3.40479H101.68C100.169 3.40479 98.8382 4.19978 98.0616 5.40473C97.6077 6.10925 97.3428 6.95321 97.3428 7.86114C97.3428 9.26172 97.9721 10.5107 98.9559 11.3275C99.0475 11.4086 99.1448 11.4829 99.2468 11.5503C99.6488 11.8151 100.126 11.9705 100.639 11.9705C100.677 11.9705 100.716 11.9696 100.754 11.9677C100.765 11.9671 100.776 11.9662 100.787 11.9655C100.815 11.964 100.842 11.9621 100.869 11.9593C100.88 11.9584 100.89 11.9568 100.901 11.9556C100.929 11.9525 100.958 11.949 100.986 11.9449C100.993 11.944 101 11.9428 101.006 11.9418C102.034 11.7836 102.93 10.9802 103.223 9.98212V11.7865C103.223 11.8882 103.305 11.9705 103.407 11.9705H104.984C105.085 11.9705 105.168 11.8882 105.168 11.7865V3.58887C105.168 3.48717 105.085 3.40479 104.984 3.40479H103.223ZM103.223 9.86076C102.841 10.1778 102.348 10.2969 101.821 10.3325C101.816 10.3328 101.811 10.3335 101.805 10.3338C101.77 10.336 101.735 10.3369 101.7 10.3369C100.38 10.3369 99.2894 9.21709 99.2894 7.86052C99.2894 7.5407 99.3506 7.2362 99.4588 6.95632C99.8097 6.04778 100.671 5.40444 101.68 5.40444H103.223V9.86076Z" fill="#003DFF"/>
<path fill-rule="evenodd" clip-rule="evenodd" d="M141.975 3.40479H140.433C138.921 3.40479 137.591 4.19978 136.814 5.40473C136.36 6.10925 136.095 6.95321 136.095 7.86114C136.095 9.26172 136.725 10.5107 137.708 11.3275C137.8 11.4086 137.897 11.4829 137.999 11.5503C138.401 11.8151 138.878 11.9705 139.391 11.9705C139.429 11.9705 139.468 11.9696 139.506 11.9677C139.517 11.9671 139.528 11.9662 139.54 11.9655C139.567 11.964 139.594 11.9621 139.621 11.9593C139.632 11.9584 139.643 11.9568 139.653 11.9556C139.682 11.9525 139.71 11.949 139.739 11.9449C139.745 11.944 139.752 11.9428 139.758 11.9418C140.787 11.7836 141.683 10.9802 141.975 9.98212V11.7865C141.975 11.8882 142.058 11.9705 142.159 11.9705H143.736C143.838 11.9705 143.92 11.8882 143.92 11.7865V3.58887C143.92 3.48717 143.838 3.40479 143.736 3.40479H141.975ZM141.975 9.86076C141.593 10.1778 141.101 10.2969 140.573 10.3325C140.568 10.3328 140.563 10.3335 140.558 10.3338C140.523 10.336 140.488 10.3369 140.453 10.3369C139.132 10.3369 138.042 9.21709 138.042 7.86052C138.042 7.5407 138.103 7.2362 138.211 6.95632C138.562 6.04778 139.423 5.40444 140.433 5.40444H141.975V9.86076Z" fill="#003DFF"/>
<path fill-rule="evenodd" clip-rule="evenodd" d="M116.341 3.40479H114.799C113.287 3.40479 111.957 4.19978 111.18 5.40473C110.812 5.97695 110.568 6.64153 110.489 7.35757C110.471 7.52292 110.461 7.69078 110.461 7.86114C110.461 8.03149 110.471 8.20903 110.491 8.37875C110.624 9.56717 111.214 10.613 112.074 11.3278C112.166 11.4089 112.263 11.4832 112.365 11.5506C112.767 11.8155 113.244 11.9708 113.757 11.9708C114.32 11.9708 114.839 11.7858 115.263 11.4726C115.772 11.1113 116.166 10.5821 116.341 9.98276V11.5509H116.337V11.8966C116.337 12.578 116.159 13.0906 115.795 13.4366C115.432 13.7823 114.825 13.9555 113.974 13.9555C113.627 13.9555 113.074 13.9371 112.517 13.8803C112.429 13.8713 112.347 13.9271 112.321 14.012L111.922 15.357C111.89 15.465 111.961 15.576 112.073 15.592C112.746 15.688 113.402 15.738 113.781 15.738C115.31 15.738 116.444 15.4026 117.186 14.733C117.857 14.1274 118.222 13.2076 118.286 11.9712V3.58951C118.286 3.48778 118.204 3.40543 118.102 3.40543H116.341L116.341 3.40479ZM116.341 5.40473C116.341 5.40473 116.362 9.74564 116.341 9.8776C115.963 10.1824 115.494 10.3016 114.982 10.3362C114.977 10.3366 114.971 10.3372 114.966 10.3375C114.931 10.3397 114.896 10.3406 114.861 10.3406C114.82 10.3406 114.779 10.3397 114.738 10.3375C113.475 10.2717 112.408 9.175 112.408 7.86081C112.408 7.54102 112.47 7.23649 112.578 6.95664C112.929 6.04807 113.79 5.40473 114.799 5.40473H116.342H116.341Z" fill="#003DFF"/>
<path d="M83.0704 0.136855C78.802 0.136855 75.3224 3.57139 75.2606 7.8168C75.1982 12.1284 78.7035 15.7011 83.0243 15.7261C84.3588 15.7339 85.644 15.4082 86.7853 14.7891C86.8966 14.7289 86.9138 14.576 86.8191 14.4924L86.0883 13.8459C85.9396 13.7146 85.7283 13.6775 85.5455 13.7549C84.7488 14.0931 83.8831 14.2659 82.9908 14.255C79.4996 14.2123 76.6784 11.3131 76.7341 7.82899C76.7892 4.38884 79.6103 1.60732 83.0704 1.60732H89.407V12.8479L85.8119 9.65983C85.6956 9.55655 85.5172 9.57683 85.4237 9.7007C84.8465 10.4632 83.9064 10.9375 82.862 10.8657C81.4138 10.7659 80.24 9.60208 80.1315 8.15719C80.0018 6.4337 81.3707 4.98975 83.0704 4.98975C84.6078 4.98975 85.874 6.17069 86.0064 7.6714C86.018 7.80496 86.0784 7.92944 86.1789 8.01837L87.1152 8.84674C87.2216 8.94064 87.3901 8.88324 87.4163 8.74378C87.4837 8.3834 87.5076 8.00807 87.4811 7.62305C87.3304 5.42844 85.549 3.66279 83.3488 3.5277C80.8265 3.37264 78.7178 5.34169 78.651 7.80994C78.5857 10.2155 80.5606 12.2891 82.9713 12.3421C83.9775 12.3643 84.9106 12.0485 85.6641 11.5013L90.3619 15.6571C90.5634 15.8353 90.8811 15.6927 90.8811 15.4241V0.432009C90.8811 0.268519 90.7488 0.13623 90.5849 0.13623H83.0704V0.136855Z" fill="#003DFF"/>
</g>
<defs>
<clipPath id="clip0_9980_18343">
<rect width="144" height="16" fill="white"/>
</clipPath>
</defs>
</svg>
