<svg width="120" height="120" viewBox="0 0 120 120" fill="none" xmlns="http://www.w3.org/2000/svg">
<circle cx="60" cy="60" r="60" fill="#131415"/>
<path fill-rule="evenodd" clip-rule="evenodd" d="M60.0661 8C47.7058 7.98715 35.7451 12.674 26.3273 20.8639C16.9095 29.0538 10.6502 40.4072 8.67114 52.8897C6.69211 65.3722 9.12272 78.1677 15.5273 88.9833C21.9319 99.7989 31.892 107.928 43.6224 111.913C46.2087 112.403 47.1666 110.737 47.1666 109.332C47.1666 107.927 47.1666 104.726 47.1666 100.283C32.7026 103.55 29.6373 93.1619 29.6373 93.1619C28.6735 89.9424 26.626 87.1763 23.8581 85.3546C19.1645 82.0879 24.2412 82.0879 24.2412 82.0879C25.8866 82.3257 27.4574 82.9434 28.8348 83.8942C30.2123 84.845 31.3602 86.104 32.1917 87.5759C32.8982 88.8865 33.8506 90.0414 34.9944 90.9745C36.1383 91.9075 37.4509 92.6003 38.8571 93.0131C40.2633 93.4259 41.7352 93.5505 43.1886 93.3798C44.6419 93.2091 46.048 92.7466 47.3262 92.0186C47.5266 89.3313 48.659 86.8056 50.5192 84.8972C38.9607 83.5579 26.8275 78.9846 26.8275 58.6006C26.7481 53.3184 28.6573 48.2072 32.1597 44.3253C30.5967 39.7329 30.7791 34.7071 32.6706 30.246C32.6706 30.246 37.0449 28.8086 46.975 35.7013C55.502 33.3061 64.5024 33.3061 73.0294 35.7013C82.9595 28.8086 87.3019 30.246 87.3019 30.246C89.2133 34.7008 89.4072 39.7303 87.8447 44.3253C91.3471 48.2072 93.2563 53.3184 93.1769 58.6006C93.1769 79.0499 81.0118 83.5252 69.4214 84.7339C70.6642 86.012 71.6239 87.5487 72.2354 89.2395C72.8469 90.9304 73.0959 92.7359 72.9656 94.5339C72.9656 101.655 72.9656 107.405 72.9656 109.136C72.9656 110.867 73.8916 112.207 76.5417 111.717C88.2353 107.694 98.1519 99.5524 104.523 88.744C110.894 77.9356 113.305 65.1632 111.326 52.7049C109.347 40.2467 103.106 28.9128 93.7179 20.7247C84.3293 12.5367 72.4029 8.02698 60.0661 8Z" fill="url(#paint0_linear_19140_15205)"/>
<defs>
<linearGradient id="paint0_linear_19140_15205" x1="60" y1="8" x2="60" y2="112" gradientUnits="userSpaceOnUse">
<stop offset="0.326923" stop-color="#E6E6E6"/>
<stop offset="1" stop-color="#B3B3B3"/>
</linearGradient>
</defs>
</svg>
