<svg width="324" height="180" viewBox="0 0 324 180" fill="none" xmlns="http://www.w3.org/2000/svg">
<circle cx="210" cy="88" r="144.5" stroke="#2A2F30"/>
<g opacity="0.12" filter="url(#filter0_f_23669_3361)">
<circle cx="11" cy="11" r="11" transform="matrix(-1 0 0 1 84 31)" fill="#00E599"/>
</g>
<g opacity="0.06" filter="url(#filter1_f_23669_3361)">
<circle cx="9" cy="9" r="9" transform="matrix(-1 0 0 1 82 33)" fill="#00E599"/>
</g>
<g opacity="0.15" filter="url(#filter2_f_23669_3361)">
<circle cx="6" cy="6" r="6" transform="matrix(-1 0 0 1 79 36)" fill="#00E599"/>
</g>
<circle cx="2" cy="2" r="2" transform="matrix(-1 0 0 1 75 40)" fill="url(#paint0_radial_23669_3361)"/>
<g opacity="0.08" filter="url(#filter3_f_23669_3361)">
<circle cx="11" cy="11" r="11" transform="matrix(-1 0 0 1 92 142)" fill="#00E599"/>
</g>
<g opacity="0.08" filter="url(#filter4_f_23669_3361)">
<circle cx="9" cy="9" r="9" transform="matrix(-1 0 0 1 90 144)" fill="#00E599"/>
</g>
<g opacity="0.15" filter="url(#filter5_f_23669_3361)">
<circle cx="6" cy="6" r="6" transform="matrix(-1 0 0 1 87 147)" fill="#00E599"/>
</g>
<circle cx="2" cy="2" r="2" transform="matrix(-1 0 0 1 83 151)" fill="url(#paint1_radial_23669_3361)"/>
<circle cx="210" cy="88" r="180.5" stroke="#2A2C2E"/>
<g opacity="0.05" filter="url(#filter6_f_23669_3361)">
<circle cx="11" cy="11" r="11" transform="matrix(-1 0 0 1 40.6016 87)" fill="#00E599"/>
</g>
<g opacity="0.08" filter="url(#filter7_f_23669_3361)">
<circle cx="9" cy="9" r="9" transform="matrix(-1 0 0 1 38.6016 89)" fill="#00E599"/>
</g>
<g opacity="0.08" filter="url(#filter8_f_23669_3361)">
<circle cx="6" cy="6" r="6" transform="matrix(-1 0 0 1 35.6016 92)" fill="#00E599"/>
</g>
<circle cx="1.5" cy="1.5" r="1.5" transform="matrix(-1 0 0 1 31.1016 96.5)" fill="url(#paint2_radial_23669_3361)"/>
<defs>
<filter id="filter0_f_23669_3361" x="42" y="11" width="62" height="62" filterUnits="userSpaceOnUse" color-interpolation-filters="sRGB">
<feFlood flood-opacity="0" result="BackgroundImageFix"/>
<feBlend mode="normal" in="SourceGraphic" in2="BackgroundImageFix" result="shape"/>
<feGaussianBlur stdDeviation="10" result="effect1_foregroundBlur_23669_3361"/>
</filter>
<filter id="filter1_f_23669_3361" x="44" y="13" width="58" height="58" filterUnits="userSpaceOnUse" color-interpolation-filters="sRGB">
<feFlood flood-opacity="0" result="BackgroundImageFix"/>
<feBlend mode="normal" in="SourceGraphic" in2="BackgroundImageFix" result="shape"/>
<feGaussianBlur stdDeviation="10" result="effect1_foregroundBlur_23669_3361"/>
</filter>
<filter id="filter2_f_23669_3361" x="61" y="30" width="24" height="24" filterUnits="userSpaceOnUse" color-interpolation-filters="sRGB">
<feFlood flood-opacity="0" result="BackgroundImageFix"/>
<feBlend mode="normal" in="SourceGraphic" in2="BackgroundImageFix" result="shape"/>
<feGaussianBlur stdDeviation="3" result="effect1_foregroundBlur_23669_3361"/>
</filter>
<filter id="filter3_f_23669_3361" x="50" y="122" width="62" height="62" filterUnits="userSpaceOnUse" color-interpolation-filters="sRGB">
<feFlood flood-opacity="0" result="BackgroundImageFix"/>
<feBlend mode="normal" in="SourceGraphic" in2="BackgroundImageFix" result="shape"/>
<feGaussianBlur stdDeviation="10" result="effect1_foregroundBlur_23669_3361"/>
</filter>
<filter id="filter4_f_23669_3361" x="52" y="124" width="58" height="58" filterUnits="userSpaceOnUse" color-interpolation-filters="sRGB">
<feFlood flood-opacity="0" result="BackgroundImageFix"/>
<feBlend mode="normal" in="SourceGraphic" in2="BackgroundImageFix" result="shape"/>
<feGaussianBlur stdDeviation="10" result="effect1_foregroundBlur_23669_3361"/>
</filter>
<filter id="filter5_f_23669_3361" x="69" y="141" width="24" height="24" filterUnits="userSpaceOnUse" color-interpolation-filters="sRGB">
<feFlood flood-opacity="0" result="BackgroundImageFix"/>
<feBlend mode="normal" in="SourceGraphic" in2="BackgroundImageFix" result="shape"/>
<feGaussianBlur stdDeviation="3" result="effect1_foregroundBlur_23669_3361"/>
</filter>
<filter id="filter6_f_23669_3361" x="3.60156" y="72" width="52" height="52" filterUnits="userSpaceOnUse" color-interpolation-filters="sRGB">
<feFlood flood-opacity="0" result="BackgroundImageFix"/>
<feBlend mode="normal" in="SourceGraphic" in2="BackgroundImageFix" result="shape"/>
<feGaussianBlur stdDeviation="7.5" result="effect1_foregroundBlur_23669_3361"/>
</filter>
<filter id="filter7_f_23669_3361" x="0.601562" y="69" width="58" height="58" filterUnits="userSpaceOnUse" color-interpolation-filters="sRGB">
<feFlood flood-opacity="0" result="BackgroundImageFix"/>
<feBlend mode="normal" in="SourceGraphic" in2="BackgroundImageFix" result="shape"/>
<feGaussianBlur stdDeviation="10" result="effect1_foregroundBlur_23669_3361"/>
</filter>
<filter id="filter8_f_23669_3361" x="17.6016" y="86" width="24" height="24" filterUnits="userSpaceOnUse" color-interpolation-filters="sRGB">
<feFlood flood-opacity="0" result="BackgroundImageFix"/>
<feBlend mode="normal" in="SourceGraphic" in2="BackgroundImageFix" result="shape"/>
<feGaussianBlur stdDeviation="3" result="effect1_foregroundBlur_23669_3361"/>
</filter>
<radialGradient id="paint0_radial_23669_3361" cx="0" cy="0" r="1" gradientUnits="userSpaceOnUse" gradientTransform="translate(2 2) rotate(90) scale(2)">
<stop stop-color="white"/>
<stop offset="1" stop-color="#00E599"/>
</radialGradient>
<radialGradient id="paint1_radial_23669_3361" cx="0" cy="0" r="1" gradientUnits="userSpaceOnUse" gradientTransform="translate(2 2) rotate(90) scale(2)">
<stop stop-color="white"/>
<stop offset="1" stop-color="#00E599"/>
</radialGradient>
<radialGradient id="paint2_radial_23669_3361" cx="0" cy="0" r="1" gradientUnits="userSpaceOnUse" gradientTransform="translate(1.5 1.5) rotate(90) scale(1.5)">
<stop stop-color="white"/>
<stop offset="1" stop-color="#00E599"/>
</radialGradient>
</defs>
</svg>
