<svg width="32" height="32" viewBox="0 0 32 32" fill="none" xmlns="http://www.w3.org/2000/svg">
<rect width="32" height="32" rx="4" fill="url(#paint0_linear_6031_21093)"/>
<rect x="0.5" y="0.5" width="31" height="31" rx="3.5" stroke="url(#paint1_linear_6031_21093)" stroke-opacity="0.1"/>
<path fill-rule="evenodd" clip-rule="evenodd" d="M7.5 7.93966C7.5 7.82306 7.54632 7.71123 7.62877 7.62877C7.71123 7.54632 7.82306 7.5 7.93966 7.5H24.0603C24.1769 7.5 24.2888 7.54632 24.3712 7.62877C24.4537 7.71123 24.5 7.82306 24.5 7.93966V24.0603C24.5 24.1769 24.4537 24.2888 24.3712 24.3712C24.2888 24.4537 24.1769 24.5 24.0603 24.5H7.93966C7.82306 24.5 7.71123 24.4537 7.62877 24.3712C7.54632 24.2888 7.5 24.1769 7.5 24.0603V7.93966ZM8.37933 8.37933V23.6207H23.6207V8.37933H8.37933ZM11.6592 12.4647C11.7001 12.4237 11.7486 12.3912 11.802 12.3691C11.8554 12.3469 11.9127 12.3355 11.9705 12.3355C12.0283 12.3355 12.0856 12.3469 12.139 12.3691C12.1924 12.3912 12.2409 12.4237 12.2818 12.4647L15.5054 15.6892C15.5878 15.7716 15.6341 15.8834 15.6341 16C15.6341 16.1166 15.5878 16.2284 15.5054 16.3108L12.2818 19.5353C12.241 19.5762 12.1925 19.6086 12.1391 19.6308C12.0858 19.6529 12.0286 19.6644 11.9708 19.6644C11.913 19.6644 11.8558 19.6531 11.8024 19.631C11.749 19.609 11.7005 19.5766 11.6596 19.5358C11.5771 19.4533 11.5307 19.3415 11.5306 19.2248C11.5305 19.167 11.5419 19.1098 11.564 19.0564C11.586 19.003 11.6184 18.9545 11.6592 18.9136L14.5733 16.0004L11.6592 13.0872C11.6183 13.0464 11.5858 12.9979 11.5636 12.9445C11.5415 12.891 11.53 12.8338 11.53 12.776C11.53 12.7181 11.5415 12.6609 11.5636 12.6074C11.5858 12.554 11.6183 12.5055 11.6592 12.4647ZM16.8068 12.3363C16.6902 12.3363 16.5783 12.3826 16.4959 12.4651C16.4134 12.5475 16.3671 12.6593 16.3671 12.776C16.3671 12.8926 16.4134 13.0044 16.4959 13.0868C16.5783 13.1693 16.6902 13.2156 16.8068 13.2156H20.0313C20.1479 13.2156 20.2597 13.1693 20.3422 13.0868C20.4246 13.0044 20.4709 12.8926 20.4709 12.776C20.4709 12.6593 20.4246 12.5475 20.3422 12.4651C20.2597 12.3826 20.1479 12.3363 20.0313 12.3363H16.8068ZM16.3671 19.2249C16.3671 19.1083 16.4134 18.9965 16.4959 18.914C16.5783 18.8316 16.6902 18.7853 16.8068 18.7853H20.0313C20.1479 18.7853 20.2597 18.8316 20.3422 18.914C20.4246 18.9965 20.4709 19.1083 20.4709 19.2249C20.4709 19.3415 20.4246 19.4534 20.3422 19.5358C20.2597 19.6183 20.1479 19.6646 20.0313 19.6646H16.8068C16.6902 19.6646 16.5783 19.6183 16.4959 19.5358C16.4134 19.4534 16.3671 19.3415 16.3671 19.2249ZM18.4177 15.5608C18.3011 15.5608 18.1893 15.6071 18.1068 15.6896C18.0244 15.772 17.978 15.8838 17.978 16.0004C17.978 16.117 18.0244 16.2289 18.1068 16.3113C18.1893 16.3938 18.3011 16.4401 18.4177 16.4401H20.0295C20.1461 16.4401 20.2579 16.3938 20.3404 16.3113C20.4229 16.2289 20.4692 16.117 20.4692 16.0004C20.4692 15.8838 20.4229 15.772 20.3404 15.6896C20.2579 15.6071 20.1461 15.5608 20.0295 15.5608H18.4177Z" fill="#C9CBCF"/>
<defs>
<linearGradient id="paint0_linear_6031_21093" x1="16" y1="0" x2="16" y2="32" gradientUnits="userSpaceOnUse">
<stop offset="0.3125" stop-color="#242628"/>
<stop offset="1" stop-color="#1D1E20"/>
</linearGradient>
<linearGradient id="paint1_linear_6031_21093" x1="16" y1="0" x2="16" y2="32" gradientUnits="userSpaceOnUse">
<stop stop-color="white"/>
<stop offset="1" stop-color="white" stop-opacity="0.05"/>
</linearGradient>
</defs>
</svg>
