<svg width="16" height="16" viewBox="0 0 16 16" fill="none" xmlns="http://www.w3.org/2000/svg">
<path d="M2 1H6V6H1V2C1 1.73478 1.10536 1.48043 1.29289 1.29289C1.48043 1.10536 1.73478 1 2 1Z" fill="white"/>
<path d="M11 6H6V11H11V6Z" fill="white"/>
<path d="M11 1H15C15.2652 1 15.5196 1.10536 15.7071 1.29289C15.8946 1.48043 16 1.73478 16 2V6H11V1Z" fill="white"/>
<path d="M1 11H6V16H2C1.73478 16 1.48043 15.8946 1.29289 15.7071C1.10536 15.5196 1 15.2652 1 15V11Z" fill="white"/>
<path d="M11 11H16V15C16 15.2652 15.8946 15.5196 15.7071 15.7071C15.5196 15.8946 15.2652 16 15 16H11V11Z" fill="white"/>
</svg>
