<svg width="1472" height="858" viewBox="8 15 1472 858" fill="none" xmlns="http://www.w3.org/2000/svg">
<g style="mix-blend-mode:overlay">
<path d="M67 16L1420 16.0001" stroke="url(#paint0_linear_24_1280)"/>
</g>
<g style="mix-blend-mode:overlay">
<path d="M67 72.75L1420 72.7501" stroke="url(#paint1_linear_24_1280)"/>
</g>
<g style="mix-blend-mode:overlay">
<path d="M68 129.5L1421 129.5" stroke="url(#paint2_linear_24_1280)"/>
</g>
<g style="mix-blend-mode:overlay">
<path d="M68 186.25L1421 186.25" stroke="url(#paint3_linear_24_1280)"/>
</g>
<g style="mix-blend-mode:overlay">
<path d="M68 243L1421 243" stroke="url(#paint4_linear_24_1280)"/>
</g>
<mask id="mask0_24_1280" style="mask-type:alpha" maskUnits="userSpaceOnUse" x="67" y="15" width="1354" height="229">
<path d="M67 16L1420 16.0001" stroke="url(#paint5_linear_24_1280)"/>
<path d="M67 72.75L1420 72.7501" stroke="url(#paint6_linear_24_1280)"/>
<path d="M68 129.5L1421 129.5" stroke="url(#paint7_linear_24_1280)"/>
<path d="M68 186.25L1421 186.25" stroke="url(#paint8_linear_24_1280)"/>
<path d="M68 243L1421 243" stroke="url(#paint9_linear_24_1280)"/>
</mask>
<g mask="url(#mask0_24_1280)">
<g style="mix-blend-mode:overlay" opacity="0.7" filter="url(#filter0_f_24_1280)">
<ellipse cx="742" cy="213.157" rx="241" ry="81.7004" fill="#0C0D0D"/>
</g>
</g>
<mask id="mask1_24_1280" style="mask-type:alpha" maskUnits="userSpaceOnUse" x="67" y="72" width="1353" height="2">
<path d="M67 72.75L1420 72.7501" stroke="#ADE0EB"/>
</mask>
<g mask="url(#mask1_24_1280)">
<g opacity="0.6" filter="url(#filter1_f_24_1280)">
<ellipse cx="1005" cy="72.5956" rx="67" ry="65.556" fill="#CCCCCC" fill-opacity="0.5"/>
</g>
<g opacity="0.6" filter="url(#filter2_f_24_1280)">
<ellipse cx="1005" cy="72.5956" rx="67" ry="65.556" fill="#CCCCCC" fill-opacity="0.5"/>
</g>
</g>
<mask id="mask2_24_1280" style="mask-type:alpha" maskUnits="userSpaceOnUse" x="68" y="129" width="1353" height="1">
<path d="M68 129.5L1421 129.5" stroke="#ADE0EB"/>
</mask>
<g mask="url(#mask2_24_1280)">
<g opacity="0.6" filter="url(#filter3_f_24_1280)">
<ellipse cx="302" cy="129.499" rx="67" ry="65.556" fill="#CCCCCC" fill-opacity="0.5"/>
</g>
<g opacity="0.6" filter="url(#filter4_f_24_1280)">
<ellipse cx="302" cy="129.499" rx="67" ry="65.556" fill="#CCCCCC" fill-opacity="0.5"/>
</g>
<g filter="url(#filter5_f_24_1280)">
<ellipse cx="469" cy="129.5" rx="22" ry="21.9035" fill="#CCCCCC" fill-opacity="0.5"/>
</g>
<g opacity="0.4" filter="url(#filter6_f_24_1280)">
<ellipse cx="863" cy="129.904" rx="22" ry="21.9035" fill="#CCCCCC" fill-opacity="0.5"/>
</g>
</g>
<mask id="mask3_24_1280" style="mask-type:alpha" maskUnits="userSpaceOnUse" x="68" y="185" width="1353" height="2">
<path d="M68 186.25L1421 186.25" stroke="#ADE0EB"/>
</mask>
<g mask="url(#mask3_24_1280)">
<g opacity="0.6" filter="url(#filter7_f_24_1280)">
<ellipse cx="1148" cy="185.556" rx="67" ry="65.556" fill="#CCCCCC" fill-opacity="0.5"/>
</g>
<g opacity="0.6" filter="url(#filter8_f_24_1280)">
<ellipse cx="1148" cy="185.556" rx="67" ry="65.556" fill="#CCCCCC" fill-opacity="0.5"/>
</g>
<g opacity="0.4" filter="url(#filter9_f_24_1280)">
<ellipse cx="450" cy="185.904" rx="22" ry="21.9035" fill="#CCCCCC" fill-opacity="0.5"/>
</g>
</g>
<mask id="mask4_24_1280" style="mask-type:alpha" maskUnits="userSpaceOnUse" x="68" y="242" width="1353" height="2">
<path d="M68 243L1421 243" stroke="#ADE0EB"/>
</mask>
<g mask="url(#mask4_24_1280)">
<g opacity="0.6" filter="url(#filter10_f_24_1280)">
<ellipse cx="363" cy="242.999" rx="67" ry="65.556" fill="#CCCCCC" fill-opacity="0.5"/>
</g>
<g opacity="0.6" filter="url(#filter11_f_24_1280)">
<ellipse cx="363" cy="242.999" rx="67" ry="65.556" fill="#CCCCCC" fill-opacity="0.5"/>
</g>
<g opacity="0.4" filter="url(#filter12_f_24_1280)">
<ellipse cx="1225" cy="237.904" rx="22" ry="21.9035" fill="#CCCCCC" fill-opacity="0.5"/>
</g>
</g>
<g opacity="0.3" filter="url(#filter13_f_24_1280)">
<circle cx="1013" cy="73" r="8" fill="#989898"/>
</g>
<g opacity="0.3" filter="url(#filter14_f_24_1280)">
<circle cx="1013" cy="73" r="6" fill="#989898"/>
</g>
<circle cx="1013" cy="73" r="3" fill="#E6E6E6"/>
<g opacity="0.3" filter="url(#filter15_f_24_1280)">
<circle cx="1148" cy="186" r="8" fill="#989898"/>
</g>
<g opacity="0.3" filter="url(#filter16_f_24_1280)">
<circle cx="1148" cy="186" r="6" fill="#989898"/>
</g>
<circle cx="1148" cy="186" r="3" fill="#E6E6E6"/>
<g opacity="0.3" filter="url(#filter17_f_24_1280)">
<circle cx="363" cy="243" r="8" fill="#989898"/>
</g>
<g opacity="0.3" filter="url(#filter18_f_24_1280)">
<circle cx="363" cy="243" r="6" fill="#989898"/>
</g>
<circle cx="363" cy="243" r="3" fill="#E6E6E6"/>
<g opacity="0.3" filter="url(#filter19_f_24_1280)">
<circle cx="302" cy="130" r="8" fill="#989898"/>
</g>
<g opacity="0.3" filter="url(#filter20_f_24_1280)">
<circle cx="302" cy="130" r="6" fill="#989898"/>
</g>
<circle cx="302" cy="130" r="3" fill="#E6E6E6"/>
<g filter="url(#filter21_f_24_1280)">
<ellipse cx="744" cy="481.375" rx="321" ry="236" fill="#BDD6DB" fill-opacity="0.5"/>
</g>
<g filter="url(#filter22_f_24_1280)">
<ellipse cx="744" cy="414.562" rx="219" ry="133.626" fill="#BDD6DB" fill-opacity="0.7"/>
</g>
<g style="mix-blend-mode:plus-lighter" filter="url(#filter23_f_24_1280)">
<ellipse cx="744" cy="349.366" rx="119" ry="75.9726" fill="white" fill-opacity="0.3"/>
</g>
<g style="mix-blend-mode:plus-lighter" filter="url(#filter24_f_24_1280)">
<ellipse cx="744" cy="318.114" rx="119" ry="72.7397" fill="white" fill-opacity="0.3"/>
</g>
<g style="mix-blend-mode:plus-lighter" filter="url(#filter25_f_24_1280)">
<ellipse cx="744" cy="304.5" rx="132.5" ry="52" transform="rotate(-90 744 304.5)" fill="white" fill-opacity="0.2"/>
</g>
<g filter="url(#filter26_f_24_1280)">
<ellipse cx="744" cy="330.788" rx="540" ry="43.3693" fill="#BDD6DB" fill-opacity="0.4"/>
</g>
<g filter="url(#filter27_f_24_1280)">
<rect x="8" y="319" width="1472" height="555" fill="url(#paint10_linear_24_1280)"/>
</g>
<g filter="url(#filter28_f_24_1280)">
<ellipse cx="744" cy="299.375" rx="312" ry="30" fill="#B4B4B4" fill-opacity="0.2"/>
</g>
<mask id="mask5_24_1280" style="mask-type:alpha" maskUnits="userSpaceOnUse" x="8" y="319" width="1472" height="556">
<rect x="8" y="319.375" width="1472" height="555" fill="url(#paint11_linear_24_1280)"/>
</mask>
<g mask="url(#mask5_24_1280)">
<g filter="url(#filter29_f_24_1280)">
<path fill-rule="evenodd" clip-rule="evenodd" d="M510.654 328.228C525.365 321.755 542.137 318.518 560.967 318.518C580.302 318.518 597.452 321.797 612.416 328.354C627.379 334.911 639.107 343.906 647.597 355.339C656.172 366.772 660.417 379.844 660.333 394.556C660.417 410.612 655.457 423.979 645.454 434.655C635.534 445.416 621.074 452.015 602.076 454.453V456.47C616.535 459.076 628.262 465.213 637.257 474.881C646.336 484.548 650.834 496.612 650.75 511.071C650.834 524.69 647.135 536.963 639.653 547.892C632.255 558.905 621.873 567.647 608.507 574.12C595.14 580.594 579.546 583.83 561.724 583.83C544.07 583.83 528.224 580.594 514.185 574.12C500.23 567.731 489.133 558.863 480.895 547.514C472.656 536.165 468.411 523.05 468.159 508.171H520.49C520.742 514.728 522.717 520.444 526.416 525.32C530.115 530.196 535.033 533.937 541.17 536.543C547.307 539.233 554.074 540.578 561.472 540.578C568.785 540.578 575.174 539.191 580.639 536.417C586.187 533.643 590.474 529.776 593.501 524.816C596.611 519.94 598.167 514.266 598.167 507.792C598.167 500.983 596.401 495.014 592.87 489.886C589.34 484.842 584.38 480.891 577.991 478.033C571.686 475.175 564.414 473.746 556.176 473.746H532.091V433.646H556.176C565.927 433.646 574.334 432.133 581.395 429.107C588.541 426.08 594.005 421.877 597.788 416.497C601.655 411.201 603.589 405.106 603.589 398.213C603.589 391.403 601.781 385.393 598.167 380.18C594.552 374.968 589.55 370.891 583.161 367.949C576.772 365.007 569.416 363.535 561.093 363.535C553.107 363.535 545.92 364.838 539.531 367.444C533.142 370.05 528.014 373.707 524.146 378.415C520.364 383.207 518.304 388.755 517.968 395.06H462.989C463.241 380.012 467.57 366.73 475.977 355.213C484.467 343.78 496.026 334.785 510.654 328.228ZM716.443 332.389C732.08 321.797 750.742 316.458 772.431 316.374C794.12 316.374 812.741 321.671 828.293 332.263C843.845 342.855 855.783 358.197 864.105 378.289C872.512 398.381 876.715 422.592 876.715 450.922C876.799 479.084 872.638 503.043 864.231 522.798C855.825 542.638 843.803 557.77 828.167 568.194C812.615 578.618 794.036 583.83 772.431 583.83C750.826 583.83 732.206 578.618 716.57 568.194C701.017 557.854 689.038 542.764 680.631 522.924C672.309 503.085 668.148 479.084 668.148 450.922C668.064 422.676 672.183 398.507 680.505 378.415C688.912 358.323 700.891 342.981 716.443 332.389ZM807.865 383.963C799.038 369.084 787.227 361.644 772.431 361.644C762.596 361.644 754.021 364.922 746.707 371.48C739.393 378.121 733.719 388.041 729.684 401.239C725.733 414.521 723.757 431.082 723.757 450.922C723.841 480.261 728.297 502.286 737.124 516.998C745.951 531.709 757.72 539.065 772.431 539.065C782.267 539.065 790.8 535.786 798.029 529.229C805.343 522.672 810.976 512.878 814.927 499.848C818.962 486.818 820.979 470.509 820.979 450.922C821.063 421.163 816.692 398.843 807.865 383.963ZM963.691 417.989L936.058 470.609H892.943L936.058 395.353L891.375 320.098H934.49L963.691 372.13L993.382 320.098H1036.01L991.226 395.353L1034.83 470.609H992.01L963.691 417.989Z" fill="#0C0D0D"/>
</g>
</g>
<mask id="mask6_24_1280" style="mask-type:alpha" maskUnits="userSpaceOnUse" x="8" y="319" width="1472" height="556">
<rect opacity="0.8" x="8" y="319.375" width="1472" height="555" fill="url(#paint12_linear_24_1280)"/>
</mask>
<g mask="url(#mask6_24_1280)">
<g filter="url(#filter30_f_24_1280)">
<path fill-rule="evenodd" clip-rule="evenodd" d="M510.654 328.228C525.365 321.755 542.137 318.518 560.967 318.518C580.302 318.518 597.452 321.797 612.416 328.354C627.379 334.911 639.107 343.906 647.597 355.339C656.172 366.772 660.417 379.844 660.333 394.556C660.417 410.612 655.457 423.979 645.454 434.655C635.534 445.416 621.074 452.015 602.076 454.453V456.47C616.535 459.076 628.262 465.213 637.257 474.881C646.336 484.548 650.834 496.612 650.75 511.071C650.834 524.69 647.135 536.963 639.653 547.892C632.255 558.905 621.873 567.647 608.507 574.12C595.14 580.594 579.546 583.83 561.724 583.83C544.07 583.83 528.224 580.594 514.185 574.12C500.23 567.731 489.133 558.863 480.895 547.514C472.656 536.165 468.411 523.05 468.159 508.171H520.49C520.742 514.728 522.717 520.444 526.416 525.32C530.115 530.196 535.033 533.937 541.17 536.543C547.307 539.233 554.074 540.578 561.472 540.578C568.785 540.578 575.174 539.191 580.639 536.417C586.187 533.643 590.474 529.776 593.501 524.816C596.611 519.94 598.167 514.266 598.167 507.792C598.167 500.983 596.401 495.014 592.87 489.886C589.34 484.842 584.38 480.891 577.991 478.033C571.686 475.175 564.414 473.746 556.176 473.746H532.091V433.646H556.176C565.927 433.646 574.334 432.133 581.395 429.107C588.541 426.08 594.005 421.877 597.788 416.497C601.655 411.201 603.589 405.106 603.589 398.213C603.589 391.403 601.781 385.393 598.167 380.18C594.552 374.968 589.55 370.891 583.161 367.949C576.772 365.007 569.416 363.535 561.093 363.535C553.107 363.535 545.92 364.838 539.531 367.444C533.142 370.05 528.014 373.707 524.146 378.415C520.364 383.207 518.304 388.755 517.968 395.06H462.989C463.241 380.012 467.57 366.73 475.977 355.213C484.467 343.78 496.026 334.785 510.654 328.228ZM716.443 332.389C732.08 321.797 750.742 316.458 772.431 316.374C794.12 316.374 812.741 321.671 828.293 332.263C843.845 342.855 855.783 358.197 864.105 378.289C872.512 398.381 876.715 422.592 876.715 450.922C876.799 479.084 872.638 503.043 864.231 522.798C855.825 542.638 843.803 557.77 828.167 568.194C812.615 578.618 794.036 583.83 772.431 583.83C750.826 583.83 732.206 578.618 716.57 568.194C701.017 557.854 689.038 542.764 680.631 522.924C672.309 503.085 668.148 479.084 668.148 450.922C668.064 422.676 672.183 398.507 680.505 378.415C688.912 358.323 700.891 342.981 716.443 332.389ZM807.865 383.963C799.038 369.084 787.227 361.644 772.431 361.644C762.596 361.644 754.021 364.922 746.707 371.48C739.393 378.121 733.719 388.041 729.684 401.239C725.733 414.521 723.757 431.082 723.757 450.922C723.841 480.261 728.297 502.286 737.124 516.998C745.951 531.709 757.72 539.065 772.431 539.065C782.267 539.065 790.8 535.786 798.029 529.229C805.343 522.672 810.976 512.878 814.927 499.848C818.962 486.818 820.979 470.509 820.979 450.922C821.063 421.163 816.692 398.843 807.865 383.963ZM963.691 417.989L936.058 470.609H892.943L936.058 395.353L891.375 320.098H934.49L963.691 372.13L993.382 320.098H1036.01L991.226 395.353L1034.83 470.609H992.01L963.691 417.989Z" fill="#0C0D0D"/>
</g>
</g>
<mask id="mask7_24_1280" style="mask-type:alpha" maskUnits="userSpaceOnUse" x="8" y="319" width="1472" height="556">
<rect opacity="0.8" x="8" y="319.375" width="1472" height="555" fill="url(#paint13_linear_24_1280)"/>
</mask>
<g mask="url(#mask7_24_1280)">
<path fill-rule="evenodd" clip-rule="evenodd" d="M510.654 328.228C525.365 321.755 542.137 318.518 560.967 318.518C580.302 318.518 597.452 321.797 612.416 328.354C627.379 334.911 639.107 343.906 647.597 355.339C656.172 366.772 660.417 379.844 660.333 394.556C660.417 410.612 655.457 423.979 645.454 434.655C635.534 445.416 621.074 452.015 602.076 454.453V456.47C616.535 459.076 628.262 465.213 637.257 474.881C646.336 484.548 650.834 496.612 650.75 511.071C650.834 524.69 647.135 536.963 639.653 547.892C632.255 558.905 621.873 567.647 608.507 574.12C595.14 580.594 579.546 583.83 561.724 583.83C544.07 583.83 528.224 580.594 514.185 574.12C500.23 567.731 489.133 558.863 480.895 547.514C472.656 536.165 468.411 523.05 468.159 508.171H520.49C520.742 514.728 522.717 520.444 526.416 525.32C530.115 530.196 535.033 533.937 541.17 536.543C547.307 539.233 554.074 540.578 561.472 540.578C568.785 540.578 575.174 539.191 580.639 536.417C586.187 533.643 590.474 529.776 593.501 524.816C596.611 519.94 598.167 514.266 598.167 507.792C598.167 500.983 596.401 495.014 592.87 489.886C589.34 484.842 584.38 480.891 577.991 478.033C571.686 475.175 564.414 473.746 556.176 473.746H532.091V433.646H556.176C565.927 433.646 574.334 432.133 581.395 429.107C588.541 426.08 594.005 421.877 597.788 416.497C601.655 411.201 603.589 405.106 603.589 398.213C603.589 391.403 601.781 385.393 598.167 380.18C594.552 374.968 589.55 370.891 583.161 367.949C576.772 365.007 569.416 363.535 561.093 363.535C553.107 363.535 545.92 364.838 539.531 367.444C533.142 370.05 528.014 373.707 524.146 378.415C520.364 383.207 518.304 388.755 517.968 395.06H462.989C463.241 380.012 467.57 366.73 475.977 355.213C484.467 343.78 496.026 334.785 510.654 328.228ZM716.443 332.389C732.08 321.797 750.742 316.458 772.431 316.374C794.12 316.374 812.741 321.671 828.293 332.263C843.845 342.855 855.783 358.197 864.105 378.289C872.512 398.381 876.715 422.592 876.715 450.922C876.799 479.084 872.638 503.043 864.231 522.798C855.825 542.638 843.803 557.77 828.167 568.194C812.615 578.618 794.036 583.83 772.431 583.83C750.826 583.83 732.206 578.618 716.57 568.194C701.017 557.854 689.038 542.764 680.631 522.924C672.309 503.085 668.148 479.084 668.148 450.922C668.064 422.676 672.183 398.507 680.505 378.415C688.912 358.323 700.891 342.981 716.443 332.389ZM807.865 383.963C799.038 369.084 787.227 361.644 772.431 361.644C762.596 361.644 754.021 364.922 746.707 371.48C739.393 378.121 733.719 388.041 729.684 401.239C725.733 414.521 723.757 431.082 723.757 450.922C723.841 480.261 728.297 502.286 737.124 516.998C745.951 531.709 757.72 539.065 772.431 539.065C782.267 539.065 790.8 535.786 798.029 529.229C805.343 522.672 810.976 512.878 814.927 499.848C818.962 486.818 820.979 470.509 820.979 450.922C821.063 421.163 816.692 398.843 807.865 383.963ZM963.691 417.989L936.058 470.609H892.943L936.058 395.353L891.375 320.098H934.49L963.691 372.13L993.382 320.098H1036.01L991.226 395.353L1034.83 470.609H992.01L963.691 417.989Z" fill="#0C0D0D"/>
</g>
<mask id="mask8_24_1280" style="mask-type:alpha" maskUnits="userSpaceOnUse" x="463" y="54" width="574" height="268">
<path fill-rule="evenodd" clip-rule="evenodd" d="M510.665 309.602C525.377 316.075 542.148 319.312 560.979 319.312C580.314 319.312 597.463 316.033 612.427 309.476C627.391 302.919 639.118 293.924 647.609 282.491C656.183 271.058 660.429 257.986 660.345 243.274C660.429 227.218 655.469 213.851 645.465 203.175C635.545 192.415 621.086 185.815 602.087 183.377V181.36C616.546 178.754 628.274 172.617 637.269 162.949C646.348 153.282 650.845 141.218 650.761 126.759C650.845 113.14 647.146 100.867 639.665 89.9382C632.267 78.9255 621.885 70.1827 608.518 63.7096C595.152 57.2365 579.557 54 561.735 54C544.082 54 528.235 57.2365 514.196 63.7096C500.241 70.0986 489.144 78.9676 480.906 90.3165C472.668 101.665 468.422 114.78 468.17 129.659H520.501C520.753 123.102 522.729 117.386 526.428 112.51C530.127 107.634 535.044 103.893 541.181 101.287C547.318 98.597 554.085 97.2519 561.483 97.2519C568.797 97.2519 575.186 98.639 580.65 101.413C586.199 104.187 590.486 108.054 593.512 113.014C596.623 117.89 598.178 123.565 598.178 130.038C598.178 136.847 596.413 142.816 592.882 147.944C589.351 152.988 584.391 156.939 578.002 159.797C571.697 162.655 564.426 164.084 556.187 164.084H532.102V204.184H556.187C565.939 204.184 574.345 205.697 581.407 208.723C588.552 211.75 594.017 215.953 597.8 221.333C601.667 226.629 603.6 232.724 603.6 239.618C603.6 246.427 601.793 252.438 598.178 257.65C594.563 262.862 589.561 266.939 583.172 269.881C576.783 272.824 569.427 274.295 561.105 274.295C553.119 274.295 545.931 272.992 539.542 270.386C533.153 267.78 528.025 264.123 524.158 259.415C520.375 254.623 518.315 249.075 517.979 242.77H463C463.252 257.818 467.582 271.1 475.988 282.617C484.479 294.05 496.038 303.045 510.665 309.602ZM716.455 305.441C732.091 316.033 750.754 321.372 772.443 321.456C794.132 321.456 812.752 316.16 828.305 305.567C843.857 294.975 855.794 279.633 864.117 259.541C872.523 239.449 876.727 215.238 876.727 186.908C876.811 158.746 872.649 134.787 864.243 115.032C855.836 95.1923 843.815 80.0604 828.179 69.6363C812.626 59.2121 794.048 54 772.443 54C750.838 54 732.217 59.2121 716.581 69.6363C701.029 79.9764 689.049 95.0662 680.643 114.906C672.32 134.745 668.159 158.746 668.159 186.908C668.075 215.154 672.194 239.323 680.517 259.415C688.923 279.507 700.903 294.849 716.455 305.441ZM807.877 253.867C799.05 268.746 787.238 276.186 772.443 276.186C762.607 276.186 754.032 272.908 746.719 266.35C739.405 259.709 733.73 249.79 729.695 236.591C725.744 223.309 723.769 206.748 723.769 186.908C723.853 157.569 728.308 135.544 737.135 120.832C745.962 106.121 757.731 98.7651 772.443 98.7651C782.279 98.7651 790.811 102.044 798.041 108.601C805.355 115.158 810.987 124.952 814.938 137.982C818.973 151.012 820.991 167.321 820.991 186.908C821.075 216.668 816.704 238.987 807.877 253.867ZM963.687 222.841L936.054 170.221H892.939L936.054 245.477L891.371 320.732H934.486L963.687 268.7L993.377 320.732H1036L991.222 245.477L1034.83 170.221H992.006L963.687 222.841Z" fill="#ADE0EB"/>
</mask>
<g mask="url(#mask8_24_1280)">
<g filter="url(#filter31_d_24_1280)">
<path fill-rule="evenodd" clip-rule="evenodd" d="M510.665 309.602C525.377 316.075 542.148 319.312 560.979 319.312C580.314 319.312 597.463 316.033 612.427 309.476C627.391 302.919 639.118 293.924 647.609 282.491C656.183 271.058 660.429 257.986 660.345 243.274C660.429 227.218 655.469 213.851 645.465 203.175C635.545 192.415 621.086 185.815 602.087 183.377V181.36C616.546 178.754 628.274 172.617 637.269 162.949C646.348 153.282 650.845 141.218 650.761 126.759C650.845 113.14 647.146 100.867 639.665 89.9382C632.267 78.9255 621.885 70.1827 608.518 63.7096C595.152 57.2365 579.557 54 561.735 54C544.082 54 528.235 57.2365 514.196 63.7096C500.241 70.0986 489.144 78.9676 480.906 90.3165C472.668 101.665 468.422 114.78 468.17 129.659H520.501C520.753 123.102 522.729 117.386 526.428 112.51C530.127 107.634 535.044 103.893 541.181 101.287C547.318 98.597 554.085 97.2519 561.483 97.2519C568.797 97.2519 575.186 98.639 580.65 101.413C586.199 104.187 590.486 108.054 593.512 113.014C596.623 117.89 598.178 123.565 598.178 130.038C598.178 136.847 596.413 142.816 592.882 147.944C589.351 152.988 584.391 156.939 578.002 159.797C571.697 162.655 564.426 164.084 556.187 164.084H532.102V204.184H556.187C565.939 204.184 574.345 205.697 581.407 208.723C588.552 211.75 594.017 215.953 597.8 221.333C601.667 226.629 603.6 232.724 603.6 239.618C603.6 246.427 601.793 252.438 598.178 257.65C594.563 262.862 589.561 266.939 583.172 269.881C576.783 272.824 569.427 274.295 561.105 274.295C553.119 274.295 545.931 272.992 539.542 270.386C533.153 267.78 528.025 264.123 524.158 259.415C520.375 254.623 518.315 249.075 517.979 242.77H463C463.252 257.818 467.582 271.1 475.988 282.617C484.479 294.05 496.038 303.045 510.665 309.602ZM716.455 305.441C732.091 316.033 750.754 321.372 772.443 321.456C794.132 321.456 812.752 316.16 828.305 305.567C843.857 294.975 855.794 279.633 864.117 259.541C872.523 239.449 876.727 215.238 876.727 186.908C876.811 158.746 872.649 134.787 864.243 115.032C855.836 95.1923 843.815 80.0604 828.179 69.6363C812.626 59.2121 794.048 54 772.443 54C750.838 54 732.217 59.2121 716.581 69.6363C701.029 79.9764 689.049 95.0662 680.643 114.906C672.32 134.745 668.159 158.746 668.159 186.908C668.075 215.154 672.194 239.323 680.517 259.415C688.923 279.507 700.903 294.849 716.455 305.441ZM807.877 253.867C799.05 268.746 787.238 276.186 772.443 276.186C762.607 276.186 754.032 272.908 746.719 266.35C739.405 259.709 733.73 249.79 729.695 236.591C725.744 223.309 723.769 206.748 723.769 186.908C723.853 157.569 728.308 135.544 737.135 120.832C745.962 106.121 757.731 98.7651 772.443 98.7651C782.279 98.7651 790.811 102.044 798.041 108.601C805.355 115.158 810.987 124.952 814.938 137.982C818.973 151.012 820.991 167.321 820.991 186.908C821.075 216.668 816.704 238.987 807.877 253.867ZM963.687 222.841L936.054 170.221H892.939L936.054 245.477L891.371 320.732H934.486L963.687 268.7L993.377 320.732H1036L991.222 245.477L1034.83 170.221H992.006L963.687 222.841Z" fill="url(#paint14_radial_24_1280)"/>
</g>
<g style="mix-blend-mode:overlay" opacity="0.18" filter="url(#filter32_f_24_1280)">
<ellipse cx="950.004" cy="195" rx="72" ry="50" fill="#BABABA"/>
</g>
<g style="mix-blend-mode:plus-lighter" opacity="0.1" filter="url(#filter33_f_24_1280)">
<ellipse cx="668.998" cy="21" rx="126" ry="74" fill="white"/>
</g>
<g style="mix-blend-mode:plus-lighter" opacity="0.16" filter="url(#filter34_f_24_1280)">
<ellipse cx="946.342" cy="186.318" rx="62.5999" ry="54.2559" transform="rotate(160.996 946.342 186.318)" fill="#D0D0D0"/>
</g>
<g style="mix-blend-mode:overlay" opacity="0.7" filter="url(#filter35_f_24_1280)">
<ellipse cx="731.91" cy="174.811" rx="208.585" ry="29.5489" transform="rotate(-8.43084 731.91 174.811)" fill="#ADE0EB"/>
</g>
<g opacity="0.8" filter="url(#filter36_f_24_1280)">
<ellipse cx="621.5" cy="74.9998" rx="57.5" ry="32" transform="rotate(39.3986 621.5 74.9998)" fill="white"/>
</g>
</g>
<mask id="mask9_24_1280" style="mask-type:alpha" maskUnits="userSpaceOnUse" x="463" y="54" width="574" height="268">
<mask id="path-61-inside-1_24_1280" fill="white">
<path fill-rule="evenodd" clip-rule="evenodd" d="M510.665 309.602C525.377 316.075 542.148 319.312 560.979 319.312C580.314 319.312 597.463 316.033 612.427 309.476C627.391 302.919 639.118 293.924 647.609 282.491C656.183 271.058 660.429 257.986 660.345 243.274C660.429 227.218 655.469 213.851 645.465 203.175C635.545 192.415 621.086 185.815 602.087 183.377V181.36C616.546 178.754 628.274 172.617 637.269 162.949C646.348 153.282 650.845 141.218 650.761 126.759C650.845 113.14 647.146 100.867 639.665 89.9382C632.267 78.9255 621.885 70.1827 608.518 63.7096C595.152 57.2365 579.557 54 561.735 54C544.082 54 528.235 57.2365 514.196 63.7096C500.241 70.0986 489.144 78.9676 480.906 90.3165C472.668 101.665 468.422 114.78 468.17 129.659H520.501C520.753 123.102 522.729 117.386 526.428 112.51C530.127 107.634 535.044 103.893 541.181 101.287C547.318 98.597 554.085 97.2519 561.483 97.2519C568.797 97.2519 575.186 98.639 580.65 101.413C586.199 104.187 590.486 108.054 593.512 113.014C596.623 117.89 598.178 123.565 598.178 130.038C598.178 136.847 596.413 142.816 592.882 147.944C589.351 152.988 584.391 156.939 578.002 159.797C571.697 162.655 564.426 164.084 556.187 164.084H532.102V204.184H556.187C565.939 204.184 574.345 205.697 581.407 208.723C588.552 211.75 594.017 215.953 597.8 221.333C601.667 226.629 603.6 232.724 603.6 239.618C603.6 246.427 601.793 252.438 598.178 257.65C594.563 262.862 589.561 266.939 583.172 269.881C576.783 272.824 569.427 274.295 561.105 274.295C553.119 274.295 545.931 272.992 539.542 270.386C533.153 267.78 528.025 264.123 524.158 259.415C520.375 254.623 518.315 249.075 517.979 242.77H463C463.252 257.818 467.582 271.1 475.988 282.617C484.479 294.05 496.038 303.045 510.665 309.602ZM716.455 305.441C732.091 316.033 750.754 321.372 772.443 321.456C794.132 321.456 812.752 316.16 828.305 305.567C843.857 294.975 855.794 279.633 864.117 259.541C872.523 239.449 876.727 215.238 876.727 186.908C876.811 158.746 872.649 134.787 864.243 115.032C855.836 95.1923 843.815 80.0604 828.179 69.6363C812.626 59.2121 794.048 54 772.443 54C750.838 54 732.217 59.2121 716.581 69.6363C701.029 79.9764 689.049 95.0662 680.643 114.906C672.32 134.745 668.159 158.746 668.159 186.908C668.075 215.154 672.194 239.323 680.517 259.415C688.923 279.507 700.903 294.849 716.455 305.441ZM807.877 253.867C799.05 268.746 787.238 276.186 772.443 276.186C762.607 276.186 754.032 272.908 746.719 266.35C739.405 259.709 733.73 249.79 729.695 236.591C725.744 223.309 723.769 206.748 723.769 186.908C723.853 157.569 728.308 135.544 737.135 120.832C745.962 106.121 757.731 98.7651 772.443 98.7651C782.279 98.7651 790.811 102.044 798.041 108.601C805.355 115.158 810.987 124.952 814.938 137.982C818.973 151.012 820.991 167.321 820.991 186.908C821.075 216.668 816.704 238.987 807.877 253.867ZM963.687 222.841L936.054 170.221H892.939L936.054 245.477L891.371 320.732H934.486L963.687 268.7L993.377 320.732H1036L991.222 245.477L1034.83 170.221H992.006L963.687 222.841Z"/>
</mask>
<path d="M510.665 309.602L509.847 311.427L509.86 311.433L510.665 309.602ZM647.609 282.491L646.009 281.291L646.003 281.299L647.609 282.491ZM660.345 243.274L658.345 243.264L658.345 243.275L658.345 243.286L660.345 243.274ZM645.465 203.175L643.995 204.531L644 204.537L644.006 204.542L645.465 203.175ZM602.087 183.377H600.087V185.137L601.833 185.361L602.087 183.377ZM602.087 181.36L601.732 179.392L600.087 179.688V181.36H602.087ZM637.269 162.949L635.811 161.58L635.804 161.587L637.269 162.949ZM650.761 126.759L648.761 126.747L648.761 126.759L648.761 126.771L650.761 126.759ZM639.665 89.9382L638.004 91.0534L638.009 91.0607L638.014 91.068L639.665 89.9382ZM608.518 63.7096L609.39 61.9096L609.39 61.9096L608.518 63.7096ZM514.196 63.7096L515.029 65.5281L515.034 65.5258L514.196 63.7096ZM480.906 90.3165L482.525 91.4914L482.525 91.4914L480.906 90.3165ZM468.17 129.659L466.17 129.625L466.136 131.659H468.17V129.659ZM520.501 129.659V131.659H522.426L522.5 129.736L520.501 129.659ZM526.428 112.51L528.021 113.719L528.021 113.719L526.428 112.51ZM541.181 101.287L541.963 103.128L541.974 103.123L541.984 103.119L541.181 101.287ZM580.65 101.413L579.745 103.197L579.756 103.202L580.65 101.413ZM593.512 113.014L591.805 114.056L591.815 114.073L591.826 114.09L593.512 113.014ZM592.882 147.944L594.52 149.091L594.525 149.084L594.529 149.078L592.882 147.944ZM578.002 159.797L577.185 157.971L577.176 157.975L578.002 159.797ZM532.102 164.084V162.084H530.102V164.084H532.102ZM532.102 204.184H530.102V206.184H532.102V204.184ZM581.407 208.723L580.619 210.562L580.627 210.565L581.407 208.723ZM597.8 221.333L596.164 222.484L596.174 222.498L596.184 222.513L597.8 221.333ZM598.178 257.65L599.821 258.789L599.821 258.789L598.178 257.65ZM583.172 269.881L584.009 271.698L584.009 271.698L583.172 269.881ZM524.158 259.415L522.588 260.654L522.6 260.67L522.612 260.685L524.158 259.415ZM517.979 242.77L519.976 242.663L519.875 240.77H517.979V242.77ZM463 242.77V240.77H460.966L461 242.804L463 242.77ZM475.988 282.617L474.373 283.796L474.378 283.803L474.383 283.81L475.988 282.617ZM772.443 321.456L772.435 323.456H772.443V321.456ZM716.455 305.441L715.329 307.094L715.333 307.097L716.455 305.441ZM828.305 305.567L827.179 303.914L827.179 303.914L828.305 305.567ZM864.117 259.541L862.272 258.769L862.269 258.776L864.117 259.541ZM876.727 186.908L874.727 186.902V186.908H876.727ZM864.243 115.032L862.401 115.812L862.402 115.815L864.243 115.032ZM828.179 69.6363L827.065 71.2976L827.069 71.3004L828.179 69.6363ZM716.581 69.6363L717.688 71.3018L717.69 71.3004L716.581 69.6363ZM680.643 114.906L678.801 114.125L678.799 114.132L680.643 114.906ZM668.159 186.908L670.159 186.914V186.908H668.159ZM680.517 259.415L678.669 260.18L678.672 260.187L680.517 259.415ZM807.877 253.867L809.597 254.887L809.597 254.887L807.877 253.867ZM746.719 266.35L745.374 267.831L745.384 267.84L746.719 266.35ZM729.695 236.591L727.778 237.161L727.78 237.169L727.783 237.176L729.695 236.591ZM723.769 186.908L721.769 186.902V186.908H723.769ZM737.135 120.832L738.85 121.861L738.85 121.861L737.135 120.832ZM798.041 108.601L796.697 110.082L796.706 110.09L798.041 108.601ZM814.938 137.982L813.024 138.562L813.028 138.573L814.938 137.982ZM820.991 186.908L818.991 186.908L818.991 186.914L820.991 186.908ZM936.054 170.221L937.824 169.291L937.262 168.221H936.054V170.221ZM963.687 222.841L961.916 223.771L963.665 227.102L965.448 223.789L963.687 222.841ZM892.939 170.221V168.221H889.488L891.203 171.215L892.939 170.221ZM936.054 245.477L937.773 246.498L938.369 245.495L937.789 244.482L936.054 245.477ZM891.371 320.732L889.651 319.711L887.857 322.732H891.371V320.732ZM934.486 320.732V322.732H935.657L936.23 321.711L934.486 320.732ZM963.687 268.7L965.424 267.709L963.672 264.639L961.943 267.721L963.687 268.7ZM993.377 320.732L991.64 321.724L992.216 322.732H993.377V320.732ZM1036 320.732V322.732H1039.52L1037.72 319.71L1036 320.732ZM991.222 245.477L989.491 244.474L988.902 245.49L989.503 246.499L991.222 245.477ZM1034.83 170.221L1036.56 171.224L1038.3 168.221H1034.83V170.221ZM992.006 170.221V168.221H990.811L990.244 169.273L992.006 170.221ZM560.979 317.312C542.378 317.312 525.889 314.116 511.471 307.772L509.86 311.433C524.865 318.035 541.918 321.312 560.979 321.312V317.312ZM611.624 307.644C596.956 314.072 580.088 317.312 560.979 317.312V321.312C580.54 321.312 597.971 317.995 613.23 311.308L611.624 307.644ZM646.003 281.299C637.749 292.413 626.317 301.206 611.624 307.644L613.23 311.308C628.465 304.632 640.487 295.435 649.214 283.684L646.003 281.299ZM658.345 243.286C658.426 257.575 654.313 270.218 646.009 281.291L649.209 283.691C658.054 271.898 662.431 258.397 662.345 243.263L658.345 243.286ZM644.006 204.542C653.624 214.808 658.426 227.665 658.345 243.264L662.345 243.285C662.431 226.771 657.314 212.895 646.924 201.807L644.006 204.542ZM601.833 185.361C620.511 187.758 634.481 194.211 643.995 204.531L646.936 201.819C636.61 190.618 621.661 183.873 602.342 181.394L601.833 185.361ZM600.087 181.36V183.377H604.087V181.36H600.087ZM635.804 161.587C627.137 170.902 615.816 176.853 601.732 179.392L602.442 183.328C617.276 180.654 629.41 174.332 638.733 164.312L635.804 161.587ZM648.761 126.771C648.843 140.768 644.506 152.322 635.811 161.58L638.727 164.319C648.19 154.242 652.848 141.669 652.761 126.747L648.761 126.771ZM638.014 91.068C645.259 101.65 648.843 113.523 648.761 126.747L652.761 126.771C652.848 112.758 649.034 100.083 641.315 88.8083L638.014 91.068ZM607.646 65.5096C620.733 71.8472 630.827 80.3688 638.004 91.0534L641.325 88.8229C633.707 77.4823 623.036 68.5182 609.39 61.9096L607.646 65.5096ZM561.735 56C579.315 56 594.601 59.1919 607.646 65.5096L609.39 61.9096C595.703 55.2812 579.8 52 561.735 52V56ZM515.034 65.5258C528.775 59.1899 544.33 56 561.735 56V52C543.833 52 527.695 55.2832 513.359 61.8934L515.034 65.5258ZM482.525 91.4914C490.542 80.4469 501.356 71.7877 515.029 65.5281L513.364 61.8911C499.126 68.4096 487.747 77.4883 479.288 89.1416L482.525 91.4914ZM470.17 129.693C470.415 115.197 474.542 102.487 482.525 91.4914L479.288 89.1416C470.793 100.844 466.429 114.362 466.17 129.625L470.17 129.693ZM520.501 127.659H468.17V131.659H520.501V127.659ZM524.834 111.301C520.869 116.528 518.769 122.647 518.503 129.582L522.5 129.736C522.737 123.558 524.588 118.244 528.021 113.719L524.834 111.301ZM540.4 99.4462C533.971 102.176 528.763 106.123 524.834 111.301L528.021 113.719C531.491 109.145 536.118 105.61 541.963 103.128L540.4 99.4462ZM561.483 95.2519C553.838 95.2519 546.794 96.6432 540.378 99.4553L541.984 103.119C547.843 100.551 554.333 99.2519 561.483 99.2519V95.2519ZM581.556 99.6298C575.761 96.6882 569.051 95.2519 561.483 95.2519V99.2519C568.543 99.2519 574.61 100.59 579.745 103.197L581.556 99.6298ZM595.22 111.973C591.984 106.67 587.405 102.554 581.545 99.6243L579.756 103.202C584.992 105.82 588.988 109.438 591.805 114.056L595.22 111.973ZM600.178 130.038C600.178 123.23 598.538 117.173 595.198 111.939L591.826 114.09C594.708 118.607 596.178 123.899 596.178 130.038H600.178ZM594.529 149.078C598.311 143.585 600.178 137.212 600.178 130.038H596.178C596.178 136.482 594.514 142.046 591.235 146.809L594.529 149.078ZM578.819 161.623C585.492 158.637 590.755 154.47 594.52 149.091L591.243 146.797C587.947 151.505 583.29 155.24 577.185 157.971L578.819 161.623ZM556.187 166.084C564.657 166.084 572.219 164.615 578.828 161.619L577.176 157.975C571.175 160.696 564.194 162.084 556.187 162.084V166.084ZM532.102 166.084H556.187V162.084H532.102V166.084ZM534.102 204.184V164.084H530.102V204.184H534.102ZM556.187 202.184H532.102V206.184H556.187V202.184ZM582.195 206.885C574.827 203.727 566.139 202.184 556.187 202.184V206.184C565.738 206.184 573.864 207.666 580.619 210.562L582.195 206.885ZM599.436 220.183C595.402 214.445 589.614 210.027 582.187 206.882L580.627 210.565C587.491 213.472 592.632 217.461 596.164 222.484L599.436 220.183ZM605.6 239.618C605.6 232.323 603.545 225.811 599.415 220.154L596.184 222.513C599.788 227.448 601.6 233.125 601.6 239.618H605.6ZM599.821 258.789C603.686 253.218 605.6 246.803 605.6 239.618H601.6C601.6 246.051 599.9 251.658 596.535 256.51L599.821 258.789ZM584.009 271.698C590.686 268.623 595.981 264.326 599.821 258.789L596.535 256.51C593.145 261.397 588.436 265.255 582.336 268.065L584.009 271.698ZM561.105 276.295C569.664 276.295 577.314 274.781 584.009 271.698L582.336 268.065C576.253 270.866 569.191 272.295 561.105 272.295V276.295ZM538.787 272.238C545.45 274.956 552.9 276.295 561.105 276.295V272.295C553.337 272.295 546.412 271.028 540.297 268.534L538.787 272.238ZM522.612 260.685C526.717 265.681 532.131 269.523 538.787 272.238L540.297 268.534C534.175 266.036 529.333 262.564 525.703 258.146L522.612 260.685ZM515.982 242.877C516.339 249.579 518.54 255.527 522.588 260.654L525.728 258.176C522.21 253.72 520.291 248.571 519.976 242.663L515.982 242.877ZM463 244.77H517.979V240.77H463V244.77ZM477.604 281.438C469.454 270.273 465.245 257.396 465 242.736L461 242.804C461.259 258.239 465.709 271.927 474.373 283.796L477.604 281.438ZM511.483 307.777C497.128 301.342 485.856 292.55 477.594 281.425L474.383 283.81C483.102 295.551 494.947 304.748 509.847 311.427L511.483 307.777ZM772.451 319.456C751.098 319.373 732.837 314.123 717.577 303.785L715.333 307.097C731.345 317.944 750.41 323.37 772.435 323.456L772.451 319.456ZM827.179 303.914C812.007 314.247 793.793 319.456 772.443 319.456V323.456C794.47 323.456 813.498 318.072 829.43 307.22L827.179 303.914ZM862.269 258.776C854.072 278.565 842.361 293.574 827.179 303.914L829.43 307.22C845.352 296.376 857.517 280.701 865.964 260.307L862.269 258.776ZM874.727 186.908C874.727 215.049 870.55 238.983 862.272 258.769L865.962 260.313C874.496 239.915 878.727 215.427 878.727 186.908H874.727ZM862.402 115.815C870.675 135.256 874.81 158.931 874.727 186.902L878.727 186.914C878.811 158.561 874.623 134.318 866.083 114.249L862.402 115.815ZM827.069 71.3004C842.335 81.4773 854.124 96.2782 862.401 115.812L866.084 114.252C857.548 94.1064 845.295 78.6436 829.288 67.9722L827.069 71.3004ZM772.443 56C793.714 56 811.891 61.1267 827.065 71.2976L829.292 67.9749C813.362 57.2974 794.382 52 772.443 52V56ZM717.69 71.3004C732.951 61.1267 751.172 56 772.443 56V52C750.504 52 731.484 57.2975 715.472 67.9722L717.69 71.3004ZM682.484 115.686C690.762 96.1502 702.51 81.3932 717.688 71.3018L715.474 67.9708C699.548 78.5595 687.337 93.9822 678.801 114.125L682.484 115.686ZM670.159 186.908C670.159 158.934 674.294 135.211 682.487 115.679L678.799 114.132C670.347 134.28 666.159 158.559 666.159 186.908H670.159ZM682.365 258.65C674.169 238.864 670.076 214.971 670.159 186.914L666.159 186.902C666.074 215.338 670.22 239.783 678.669 260.18L682.365 258.65ZM717.581 303.788C702.396 293.446 690.643 278.435 682.362 258.643L678.672 260.187C687.204 280.578 699.409 296.251 715.329 307.094L717.581 303.788ZM772.443 278.186C788.075 278.186 800.482 270.252 809.597 254.887L806.157 252.846C797.618 267.24 786.401 274.186 772.443 274.186V278.186ZM745.384 267.84C753.065 274.726 762.115 278.186 772.443 278.186V274.186C763.099 274.186 755 271.089 748.054 264.861L745.384 267.84ZM727.783 237.176C731.883 250.588 737.708 260.87 745.374 267.831L748.063 264.87C741.101 258.548 735.578 248.991 731.608 236.006L727.783 237.176ZM721.769 186.908C721.769 206.865 723.754 223.633 727.778 237.161L731.612 236.021C727.734 222.984 725.769 206.63 725.769 186.908H721.769ZM735.42 119.803C726.319 134.972 721.853 157.428 721.769 186.902L725.769 186.914C725.852 157.71 730.298 136.115 738.85 121.861L735.42 119.803ZM772.443 96.7651C756.901 96.7651 744.537 104.608 735.42 119.803L738.85 121.861C747.387 107.634 758.562 100.765 772.443 100.765V96.7651ZM799.385 107.119C791.784 100.226 782.771 96.7651 772.443 96.7651V100.765C781.786 100.765 789.839 103.862 796.697 110.082L799.385 107.119ZM816.852 137.401C812.834 124.151 807.048 113.99 799.376 107.112L796.706 110.09C803.661 116.326 809.14 125.753 813.024 138.562L816.852 137.401ZM822.991 186.908C822.991 167.2 820.963 150.676 816.849 137.39L813.028 138.573C816.984 151.349 818.991 167.442 818.991 186.908H822.991ZM809.597 254.887C818.697 239.547 823.075 216.795 822.991 186.903L818.991 186.914C819.075 216.54 814.71 238.427 806.157 252.846L809.597 254.887ZM934.283 171.151L961.916 223.771L965.457 221.911L937.824 169.291L934.283 171.151ZM892.939 172.221H936.054V168.221H892.939V172.221ZM937.789 244.482L894.674 169.227L891.203 171.215L934.318 246.471L937.789 244.482ZM893.09 321.753L937.773 246.498L934.334 244.456L889.651 319.711L893.09 321.753ZM934.486 318.732H891.371V322.732H934.486V318.732ZM961.943 267.721L932.742 319.754L936.23 321.711L965.431 269.679L961.943 267.721ZM995.115 319.741L965.424 267.709L961.95 269.691L991.64 321.724L995.115 319.741ZM1036 318.732H993.377V322.732H1036V318.732ZM989.503 246.499L1034.28 321.755L1037.72 319.71L992.94 244.454L989.503 246.499ZM1033.1 169.218L989.491 244.474L992.952 246.479L1036.56 171.224L1033.1 169.218ZM992.006 172.221H1034.83V168.221H992.006V172.221ZM965.448 223.789L993.767 171.169L990.244 169.273L961.926 221.893L965.448 223.789Z" fill="black" mask="url(#path-61-inside-1_24_1280)"/>
</mask>
<g mask="url(#mask9_24_1280)">
<g style="mix-blend-mode:soft-light" opacity="0.2">
<mask id="path-63-inside-2_24_1280" fill="white">
<path fill-rule="evenodd" clip-rule="evenodd" d="M510.665 309.602C525.377 316.075 542.148 319.312 560.979 319.312C580.314 319.312 597.463 316.033 612.427 309.476C627.391 302.919 639.118 293.924 647.609 282.491C656.183 271.058 660.429 257.986 660.345 243.274C660.429 227.218 655.469 213.851 645.465 203.175C635.545 192.415 621.086 185.815 602.087 183.377V181.36C616.546 178.754 628.274 172.617 637.269 162.949C646.348 153.282 650.845 141.218 650.761 126.759C650.845 113.14 647.146 100.867 639.665 89.9382C632.267 78.9255 621.885 70.1827 608.518 63.7096C595.152 57.2365 579.557 54 561.735 54C544.082 54 528.235 57.2365 514.196 63.7096C500.241 70.0986 489.144 78.9676 480.906 90.3165C472.668 101.665 468.422 114.78 468.17 129.659H520.501C520.753 123.102 522.729 117.386 526.428 112.51C530.127 107.634 535.044 103.893 541.181 101.287C547.318 98.597 554.085 97.2519 561.483 97.2519C568.797 97.2519 575.186 98.639 580.65 101.413C586.199 104.187 590.486 108.054 593.512 113.014C596.623 117.89 598.178 123.565 598.178 130.038C598.178 136.847 596.413 142.816 592.882 147.944C589.351 152.988 584.391 156.939 578.002 159.797C571.697 162.655 564.426 164.084 556.187 164.084H532.102V204.184H556.187C565.939 204.184 574.345 205.697 581.407 208.723C588.552 211.75 594.017 215.953 597.8 221.333C601.667 226.629 603.6 232.724 603.6 239.618C603.6 246.427 601.793 252.438 598.178 257.65C594.563 262.862 589.561 266.939 583.172 269.881C576.783 272.824 569.427 274.295 561.105 274.295C553.119 274.295 545.931 272.992 539.542 270.386C533.153 267.78 528.025 264.123 524.158 259.415C520.375 254.623 518.315 249.075 517.979 242.77H463C463.252 257.818 467.582 271.1 475.988 282.617C484.479 294.05 496.038 303.045 510.665 309.602ZM716.455 305.441C732.091 316.033 750.754 321.372 772.443 321.456C794.132 321.456 812.752 316.16 828.305 305.567C843.857 294.975 855.794 279.633 864.117 259.541C872.523 239.449 876.727 215.238 876.727 186.908C876.811 158.746 872.649 134.787 864.243 115.032C855.836 95.1923 843.815 80.0604 828.179 69.6363C812.626 59.2121 794.048 54 772.443 54C750.838 54 732.217 59.2121 716.581 69.6363C701.029 79.9764 689.049 95.0662 680.643 114.906C672.32 134.745 668.159 158.746 668.159 186.908C668.075 215.154 672.194 239.323 680.517 259.415C688.923 279.507 700.903 294.849 716.455 305.441ZM807.877 253.867C799.05 268.746 787.238 276.186 772.443 276.186C762.607 276.186 754.032 272.908 746.719 266.35C739.405 259.709 733.73 249.79 729.695 236.591C725.744 223.309 723.769 206.748 723.769 186.908C723.853 157.569 728.308 135.544 737.135 120.832C745.962 106.121 757.731 98.7651 772.443 98.7651C782.279 98.7651 790.811 102.044 798.041 108.601C805.355 115.158 810.987 124.952 814.938 137.982C818.973 151.012 820.991 167.321 820.991 186.908C821.075 216.668 816.704 238.987 807.877 253.867ZM963.687 222.841L936.054 170.221H892.939L936.054 245.477L891.371 320.732H934.486L963.687 268.7L993.377 320.732H1036L991.222 245.477L1034.83 170.221H992.006L963.687 222.841Z"/>
</mask>
<path d="M510.665 309.602L510.256 310.515L510.263 310.518L510.665 309.602ZM647.609 282.491L646.809 281.891L646.806 281.895L647.609 282.491ZM660.345 243.274L659.345 243.269L659.345 243.28L660.345 243.274ZM645.465 203.175L644.73 203.853L644.735 203.859L645.465 203.175ZM602.087 183.377H601.087V184.257L601.96 184.369L602.087 183.377ZM602.087 181.36L601.91 180.376L601.087 180.524V181.36H602.087ZM637.269 162.949L636.54 162.265L636.537 162.268L637.269 162.949ZM650.761 126.759L649.761 126.753L649.761 126.765L650.761 126.759ZM639.665 89.9382L638.834 90.4958L638.839 90.5031L639.665 89.9382ZM608.518 63.7096L608.954 62.8096L608.954 62.8096L608.518 63.7096ZM514.196 63.7096L514.612 64.6189L514.615 64.6177L514.196 63.7096ZM480.906 90.3165L481.715 90.9039L481.715 90.9039L480.906 90.3165ZM468.17 129.659L467.17 129.642L467.153 130.659H468.17V129.659ZM520.501 129.659V130.659H521.463L521.5 129.698L520.501 129.659ZM526.428 112.51L527.224 113.114L527.224 113.114L526.428 112.51ZM541.181 101.287L541.572 102.208L541.583 102.203L541.181 101.287ZM580.65 101.413L580.198 102.305L580.203 102.308L580.65 101.413ZM593.512 113.014L592.659 113.535L592.664 113.544L592.669 113.552L593.512 113.014ZM592.882 147.944L593.701 148.517L593.705 148.511L592.882 147.944ZM578.002 159.797L577.594 158.884L577.589 158.886L578.002 159.797ZM532.102 164.084V163.084H531.102V164.084H532.102ZM532.102 204.184H531.102V205.184H532.102V204.184ZM581.407 208.723L581.013 209.642L581.017 209.644L581.407 208.723ZM597.8 221.333L596.982 221.908L596.987 221.916L596.992 221.923L597.8 221.333ZM598.178 257.65L599 258.22L599 258.22L598.178 257.65ZM583.172 269.881L583.591 270.79L583.591 270.79L583.172 269.881ZM524.158 259.415L523.373 260.035L523.379 260.042L523.385 260.05L524.158 259.415ZM517.979 242.77L518.978 242.717L518.927 241.77H517.979V242.77ZM463 242.77V241.77H461.983L462 242.787L463 242.77ZM475.988 282.617L475.18 283.207L475.185 283.213L475.988 282.617ZM772.443 321.456L772.439 322.456H772.443V321.456ZM716.455 305.441L715.892 306.268L715.894 306.269L716.455 305.441ZM828.305 305.567L827.742 304.741L827.742 304.741L828.305 305.567ZM864.117 259.541L863.194 259.155L863.193 259.158L864.117 259.541ZM876.727 186.908L875.727 186.905V186.908H876.727ZM864.243 115.032L863.322 115.422L863.323 115.423L864.243 115.032ZM828.179 69.6363L827.622 70.4669L827.624 70.4683L828.179 69.6363ZM716.581 69.6363L717.135 70.469L717.136 70.4683L716.581 69.6363ZM680.643 114.906L679.722 114.516L679.721 114.519L680.643 114.906ZM668.159 186.908L669.159 186.911V186.908H668.159ZM680.517 259.415L679.593 259.798L679.594 259.801L680.517 259.415ZM807.877 253.867L808.737 254.377L808.737 254.377L807.877 253.867ZM746.719 266.35L746.046 267.091L746.051 267.095L746.719 266.35ZM729.695 236.591L728.737 236.876L728.739 236.884L729.695 236.591ZM723.769 186.908L722.769 186.905V186.908H723.769ZM737.135 120.832L737.993 121.347L737.993 121.347L737.135 120.832ZM798.041 108.601L797.369 109.342L797.373 109.345L798.041 108.601ZM814.938 137.982L813.981 138.272L813.983 138.278L814.938 137.982ZM820.991 186.908L819.991 186.908L819.991 186.911L820.991 186.908ZM936.054 170.221L936.939 169.756L936.658 169.221H936.054V170.221ZM963.687 222.841L962.801 223.306L963.676 224.971L964.567 223.315L963.687 222.841ZM892.939 170.221V169.221H891.213L892.071 170.718L892.939 170.221ZM936.054 245.477L936.914 245.987L937.211 245.486L936.921 244.98L936.054 245.477ZM891.371 320.732L890.511 320.222L889.614 321.732H891.371V320.732ZM934.486 320.732V321.732H935.071L935.358 321.222L934.486 320.732ZM963.687 268.7L964.555 268.205L963.679 266.67L962.815 268.211L963.687 268.7ZM993.377 320.732L992.509 321.228L992.797 321.732H993.377V320.732ZM1036 320.732V321.732H1037.76L1036.86 320.221L1036 320.732ZM991.222 245.477L990.356 244.975L990.062 245.483L990.362 245.988L991.222 245.477ZM1034.83 170.221L1035.69 170.722L1036.56 169.221H1034.83V170.221ZM992.006 170.221V169.221H991.408L991.125 169.747L992.006 170.221ZM560.979 318.312C542.263 318.312 525.633 315.096 511.068 308.687L510.263 310.518C525.121 317.055 542.033 320.312 560.979 320.312V318.312ZM612.026 308.56C597.21 315.053 580.201 318.312 560.979 318.312V320.312C580.427 320.312 597.717 317.014 612.829 310.392L612.026 308.56ZM646.806 281.895C638.433 293.169 626.854 302.063 612.026 308.56L612.829 310.392C627.928 303.776 639.803 294.679 648.412 283.087L646.806 281.895ZM659.345 243.28C659.428 257.78 655.248 270.638 646.809 281.891L648.409 283.091C657.119 271.478 661.43 258.192 661.345 243.269L659.345 243.28ZM644.735 203.859C654.547 214.329 659.428 227.441 659.345 243.269L661.345 243.28C661.43 226.994 656.391 213.373 646.195 202.491L644.735 203.859ZM601.96 184.369C620.798 186.787 635.013 193.313 644.73 203.853L646.2 202.497C636.077 191.516 621.373 184.844 602.214 182.386L601.96 184.369ZM601.087 181.36V183.377H603.087V181.36H601.087ZM636.537 162.268C627.705 171.76 616.181 177.803 601.91 180.376L602.264 182.344C616.911 179.704 628.842 173.474 638.001 163.631L636.537 162.268ZM649.761 126.765C649.844 140.993 645.427 152.802 636.54 162.265L637.998 163.634C647.269 153.762 651.847 141.444 651.761 126.753L649.761 126.765ZM638.839 90.5031C646.203 101.259 649.844 113.332 649.761 126.753L651.761 126.765C651.846 112.949 648.09 100.475 640.49 89.3733L638.839 90.5031ZM608.082 64.6096C621.309 71.0149 631.547 79.6472 638.834 90.4958L640.495 89.3806C632.987 78.2039 622.46 69.3504 608.954 62.8096L608.082 64.6096ZM561.735 55C579.436 55 594.876 58.2142 608.082 64.6096L608.954 62.8096C595.427 56.2589 579.679 53 561.735 53V55ZM514.615 64.6177C528.505 58.2132 544.206 55 561.735 55V53C543.958 53 527.965 56.2598 513.777 62.8015L514.615 64.6177ZM481.715 90.9039C489.843 79.7072 500.799 70.9431 514.612 64.6188L513.78 62.8004C499.684 69.2541 488.446 78.2279 480.097 89.729L481.715 90.9039ZM469.17 129.676C469.419 114.989 473.605 102.076 481.715 90.9039L480.097 89.729C471.73 101.254 467.426 114.571 467.17 129.642L469.17 129.676ZM520.501 128.659H468.17V130.659H520.501V128.659ZM525.631 111.905C521.799 116.957 519.761 122.874 519.502 129.621L521.5 129.698C521.745 123.33 523.659 117.815 527.224 113.114L525.631 111.905ZM540.79 100.367C534.508 103.035 529.445 106.878 525.631 111.905L527.224 113.114C530.809 108.39 535.581 104.752 541.572 102.208L540.79 100.367ZM561.483 96.2519C553.962 96.2519 547.056 97.6201 540.78 100.371L541.583 102.203C547.58 99.5739 554.209 98.2519 561.483 98.2519V96.2519ZM581.103 100.522C575.474 97.6636 568.924 96.2519 561.483 96.2519V98.2519C568.67 98.2519 574.898 99.6144 580.198 102.305L581.103 100.522ZM594.366 112.493C591.235 107.362 586.802 103.371 581.097 100.519L580.203 102.308C585.595 105.004 589.737 108.746 592.659 113.535L594.366 112.493ZM599.178 130.038C599.178 123.397 597.58 117.532 594.355 112.476L592.669 113.552C595.665 118.249 597.178 123.732 597.178 130.038H599.178ZM593.705 148.511C597.362 143.2 599.178 137.03 599.178 130.038H597.178C597.178 136.664 595.463 142.431 592.058 147.377L593.705 148.511ZM578.411 160.71C584.942 157.788 590.053 153.729 593.701 148.517L592.063 147.37C588.649 152.247 583.841 156.089 577.594 158.884L578.411 160.71ZM556.187 165.084C564.541 165.084 571.958 163.635 578.415 160.708L577.589 158.886C571.436 161.676 564.31 163.084 556.187 163.084V165.084ZM532.102 165.084H556.187V163.084H532.102V165.084ZM533.102 204.184V164.084H531.102V204.184H533.102ZM556.187 203.184H532.102V205.184H556.187V203.184ZM581.801 207.804C574.586 204.712 566.039 203.184 556.187 203.184V205.184C565.838 205.184 574.105 206.682 581.013 209.642L581.801 207.804ZM598.618 220.758C594.709 215.199 589.083 210.888 581.797 207.802L581.017 209.644C588.022 212.611 593.324 216.707 596.982 221.908L598.618 220.758ZM604.6 239.618C604.6 232.524 602.606 226.22 598.607 220.743L596.992 221.923C600.727 227.039 602.6 232.925 602.6 239.618H604.6ZM599 258.22C602.739 252.828 604.6 246.615 604.6 239.618H602.6C602.6 246.239 600.846 252.048 597.356 257.08L599 258.22ZM583.591 270.79C590.124 267.781 595.272 263.594 599 258.22L597.356 257.08C593.854 262.129 588.999 266.097 582.754 268.973L583.591 270.79ZM561.105 275.295C569.546 275.295 577.048 273.802 583.591 270.79L582.754 268.973C576.518 271.845 569.309 273.295 561.105 273.295V275.295ZM539.164 271.312C545.691 273.974 553.009 275.295 561.105 275.295V273.295C553.228 273.295 546.171 272.01 539.92 269.46L539.164 271.312ZM523.385 260.05C527.371 264.902 532.642 268.651 539.164 271.312L539.92 269.46C533.664 266.908 528.679 263.343 524.931 258.78L523.385 260.05ZM516.981 242.823C517.327 249.327 519.457 255.075 523.373 260.035L524.943 258.795C521.292 254.172 519.303 248.823 518.978 242.717L516.981 242.823ZM463 243.77H517.979V241.77H463V243.77ZM476.796 282.028C468.518 270.687 464.249 257.607 464 242.753L462 242.787C462.256 258.029 466.645 271.514 475.18 283.207L476.796 282.028ZM511.074 308.69C496.583 302.194 485.167 293.3 476.791 282.021L475.185 283.213C483.79 294.8 495.493 303.897 510.256 310.515L511.074 308.69ZM772.447 320.456C750.926 320.372 732.464 315.078 717.016 304.613L715.894 306.269C731.718 316.989 750.582 322.371 772.439 322.456L772.447 320.456ZM827.742 304.741C812.38 315.203 793.963 320.456 772.443 320.456V322.456C794.301 322.456 813.125 317.116 828.868 306.394L827.742 304.741ZM863.193 259.158C854.933 279.099 843.109 294.274 827.742 304.741L828.868 306.394C844.605 295.676 856.655 280.167 865.041 259.924L863.193 259.158ZM875.727 186.908C875.727 215.144 871.537 239.216 863.194 259.155L865.039 259.927C873.51 239.682 877.727 215.333 877.727 186.908H875.727ZM863.323 115.423C871.662 135.022 875.81 158.838 875.727 186.905L877.727 186.911C877.811 158.654 873.636 134.553 865.163 114.64L863.323 115.423ZM827.624 70.4683C843.075 80.7689 854.98 95.7352 863.322 115.422L865.164 114.642C856.692 94.6493 844.555 79.352 828.733 68.8042L827.624 70.4683ZM772.443 55C793.881 55 812.259 60.1694 827.622 70.4669L828.735 68.8056C812.994 58.2548 794.215 53 772.443 53V55ZM717.136 70.4683C732.584 60.1694 751.005 55 772.443 55V53C750.671 53 731.85 58.2548 716.026 68.8042L717.136 70.4683ZM681.564 115.296C689.906 95.6082 701.77 80.6848 717.135 70.469L716.027 68.8035C700.288 79.268 688.193 94.5242 679.722 114.516L681.564 115.296ZM669.159 186.908C669.159 158.84 673.307 134.978 681.565 115.293L679.721 114.519C671.334 134.512 667.159 158.652 667.159 186.908H669.159ZM681.441 259.032C673.181 239.093 669.075 215.063 669.159 186.911L667.159 186.905C667.075 215.246 671.207 239.553 679.593 259.798L681.441 259.032ZM717.018 304.615C701.65 294.148 689.783 278.971 681.439 259.029L679.594 259.801C688.064 280.043 700.156 295.55 715.892 306.268L717.018 304.615ZM772.443 277.186C787.657 277.186 799.766 269.499 808.737 254.377L807.017 253.356C798.334 267.993 786.82 275.186 772.443 275.186V277.186ZM746.051 267.095C753.549 273.817 762.361 277.186 772.443 277.186V275.186C762.853 275.186 754.516 271.998 747.386 265.606L746.051 267.095ZM728.739 236.884C732.807 250.189 738.557 260.29 746.046 267.091L747.391 265.61C740.253 259.129 734.654 249.39 730.652 236.299L728.739 236.884ZM722.769 186.908C722.769 206.806 724.749 223.471 728.737 236.876L730.654 236.306C726.739 223.147 724.769 206.689 724.769 186.908H722.769ZM736.278 120.318C727.313 135.258 722.853 157.499 722.769 186.905L724.769 186.911C724.853 157.64 729.303 135.83 737.993 121.347L736.278 120.318ZM772.443 97.7651C757.316 97.7651 745.25 105.364 736.278 120.318L737.993 121.347C746.674 106.877 758.146 99.7651 772.443 99.7651V97.7651ZM798.713 107.86C791.297 101.135 782.525 97.7651 772.443 97.7651V99.7651C782.032 99.7651 790.325 102.953 797.369 109.342L798.713 107.86ZM815.895 137.692C811.911 124.551 806.201 114.574 798.708 107.856L797.373 109.345C804.508 115.742 810.064 125.352 813.981 138.272L815.895 137.692ZM821.991 186.908C821.991 167.26 819.968 150.844 815.893 137.686L813.983 138.278C817.979 151.18 819.991 167.381 819.991 186.908H821.991ZM808.737 254.377C817.7 239.267 822.075 216.731 821.991 186.905L819.991 186.911C820.075 216.604 815.707 238.707 807.017 253.356L808.737 254.377ZM935.168 170.686L962.801 223.306L964.572 222.376L936.939 169.756L935.168 170.686ZM892.939 171.221H936.054V169.221H892.939V171.221ZM936.921 244.98L893.806 169.724L892.071 170.718L935.186 245.974L936.921 244.98ZM892.231 321.243L936.914 245.987L935.194 244.966L890.511 320.222L892.231 321.243ZM934.486 319.732H891.371V321.732H934.486V319.732ZM962.815 268.211L933.614 320.243L935.358 321.222L964.559 269.19L962.815 268.211ZM994.246 320.237L964.555 268.205L962.818 269.196L992.509 321.228L994.246 320.237ZM1036 319.732H993.377V321.732H1036V319.732ZM990.362 245.988L1035.14 321.244L1036.86 320.221L992.081 244.965L990.362 245.988ZM1033.96 169.72L990.356 244.975L992.087 245.978L1035.69 170.722L1033.96 169.72ZM992.006 171.221H1034.83V169.221H992.006V171.221ZM964.567 223.315L992.886 170.695L991.125 169.747L962.806 222.367L964.567 223.315Z" fill="white" mask="url(#path-63-inside-2_24_1280)"/>
</g>
<g opacity="0.8" filter="url(#filter37_f_24_1280)">
<ellipse cx="668.504" cy="64.375" rx="106.5" ry="48" fill="white"/>
</g>
<g opacity="0.8" filter="url(#filter38_f_24_1280)">
<ellipse cx="664" cy="123" rx="30" ry="59" fill="white"/>
</g>
<g opacity="0.2" filter="url(#filter39_f_24_1280)">
<ellipse cx="665" cy="295.5" rx="29.5" ry="59" transform="rotate(90 665 295.5)" fill="white"/>
</g>
<g opacity="0.8" filter="url(#filter40_f_24_1280)">
<ellipse cx="491" cy="221.375" rx="30" ry="34" fill="white"/>
</g>
<g opacity="0.3" filter="url(#filter41_f_24_1280)">
<ellipse cx="775.5" cy="257" rx="39.5" ry="30" fill="white"/>
</g>
<g opacity="0.8" filter="url(#filter42_f_24_1280)">
<ellipse cx="910.974" cy="202.593" rx="9.83761" ry="40.9539" transform="rotate(-31.3252 910.974 202.593)" fill="white"/>
</g>
<g opacity="0.8" filter="url(#filter43_f_24_1280)">
<ellipse cx="810" cy="173.875" rx="30" ry="52.5" fill="white"/>
</g>
<g opacity="0.8" filter="url(#filter44_f_24_1280)">
<ellipse cx="797.868" cy="118.965" rx="89.9442" ry="26.5735" transform="rotate(64.3727 797.868 118.965)" fill="white"/>
</g>
<g opacity="0.8" filter="url(#filter45_f_24_1280)">
<ellipse cx="534.65" cy="107.086" rx="73.5354" ry="78.7624" transform="rotate(64.3727 534.65 107.086)" fill="white"/>
</g>
<g opacity="0.2" filter="url(#filter46_f_24_1280)">
<ellipse cx="957.403" cy="176.865" rx="53.545" ry="75.7823" transform="rotate(64.3727 957.403 176.865)" fill="white"/>
</g>
</g>
<g opacity="0.9">
<g style="mix-blend-mode:plus-lighter" filter="url(#filter47_f_24_1280)">
<path d="M588 58.5C588 58.5 612.026 63.3074 624 73.5C636.33 83.9961 646.5 107.5 646.5 107.5" stroke="white" stroke-opacity="0.3" stroke-width="2"/>
</g>
<g filter="url(#filter48_f_24_1280)">
<path d="M588 58.5C588 58.5 612.026 63.3074 624 73.5C636.33 83.9961 646.5 107.5 646.5 107.5" stroke="white" stroke-opacity="0.3" stroke-width="2"/>
</g>
<g filter="url(#filter49_f_24_1280)">
<ellipse cx="622" cy="77.1354" rx="8.31772" ry="18.8079" transform="rotate(-52.6802 622 77.1354)" fill="white"/>
</g>
<g filter="url(#filter50_f_24_1280)">
<ellipse cx="622" cy="77.1354" rx="8.31772" ry="18.8079" transform="rotate(-52.6802 622 77.1354)" fill="white" fill-opacity="0.5"/>
</g>
<g style="mix-blend-mode:plus-lighter" filter="url(#filter51_f_24_1280)">
<ellipse cx="626.871" cy="71.329" rx="5.03485" ry="17.6623" transform="rotate(40.0479 626.871 71.329)" fill="white" fill-opacity="0.4"/>
</g>
</g>
<defs>
<filter id="filter0_f_24_1280" x="351" y="-18.5437" width="782" height="463.401" filterUnits="userSpaceOnUse" color-interpolation-filters="sRGB">
<feFlood flood-opacity="0" result="BackgroundImageFix"/>
<feBlend mode="normal" in="SourceGraphic" in2="BackgroundImageFix" result="shape"/>
<feGaussianBlur stdDeviation="75" result="effect1_foregroundBlur_24_1280"/>
</filter>
<filter id="filter1_f_24_1280" x="894" y="-36.9604" width="222" height="219.112" filterUnits="userSpaceOnUse" color-interpolation-filters="sRGB">
<feFlood flood-opacity="0" result="BackgroundImageFix"/>
<feBlend mode="normal" in="SourceGraphic" in2="BackgroundImageFix" result="shape"/>
<feGaussianBlur stdDeviation="22" result="effect1_foregroundBlur_24_1280"/>
</filter>
<filter id="filter2_f_24_1280" x="738" y="-192.96" width="534" height="531.112" filterUnits="userSpaceOnUse" color-interpolation-filters="sRGB">
<feFlood flood-opacity="0" result="BackgroundImageFix"/>
<feBlend mode="normal" in="SourceGraphic" in2="BackgroundImageFix" result="shape"/>
<feGaussianBlur stdDeviation="100" result="effect1_foregroundBlur_24_1280"/>
</filter>
<filter id="filter3_f_24_1280" x="191" y="19.9431" width="222" height="219.112" filterUnits="userSpaceOnUse" color-interpolation-filters="sRGB">
<feFlood flood-opacity="0" result="BackgroundImageFix"/>
<feBlend mode="normal" in="SourceGraphic" in2="BackgroundImageFix" result="shape"/>
<feGaussianBlur stdDeviation="22" result="effect1_foregroundBlur_24_1280"/>
</filter>
<filter id="filter4_f_24_1280" x="35" y="-136.057" width="534" height="531.112" filterUnits="userSpaceOnUse" color-interpolation-filters="sRGB">
<feFlood flood-opacity="0" result="BackgroundImageFix"/>
<feBlend mode="normal" in="SourceGraphic" in2="BackgroundImageFix" result="shape"/>
<feGaussianBlur stdDeviation="100" result="effect1_foregroundBlur_24_1280"/>
</filter>
<filter id="filter5_f_24_1280" x="417" y="77.5964" width="104" height="103.807" filterUnits="userSpaceOnUse" color-interpolation-filters="sRGB">
<feFlood flood-opacity="0" result="BackgroundImageFix"/>
<feBlend mode="normal" in="SourceGraphic" in2="BackgroundImageFix" result="shape"/>
<feGaussianBlur stdDeviation="15" result="effect1_foregroundBlur_24_1280"/>
</filter>
<filter id="filter6_f_24_1280" x="811" y="78" width="104" height="103.807" filterUnits="userSpaceOnUse" color-interpolation-filters="sRGB">
<feFlood flood-opacity="0" result="BackgroundImageFix"/>
<feBlend mode="normal" in="SourceGraphic" in2="BackgroundImageFix" result="shape"/>
<feGaussianBlur stdDeviation="15" result="effect1_foregroundBlur_24_1280"/>
</filter>
<filter id="filter7_f_24_1280" x="1037" y="76" width="222" height="219.112" filterUnits="userSpaceOnUse" color-interpolation-filters="sRGB">
<feFlood flood-opacity="0" result="BackgroundImageFix"/>
<feBlend mode="normal" in="SourceGraphic" in2="BackgroundImageFix" result="shape"/>
<feGaussianBlur stdDeviation="22" result="effect1_foregroundBlur_24_1280"/>
</filter>
<filter id="filter8_f_24_1280" x="881" y="-80" width="534" height="531.112" filterUnits="userSpaceOnUse" color-interpolation-filters="sRGB">
<feFlood flood-opacity="0" result="BackgroundImageFix"/>
<feBlend mode="normal" in="SourceGraphic" in2="BackgroundImageFix" result="shape"/>
<feGaussianBlur stdDeviation="100" result="effect1_foregroundBlur_24_1280"/>
</filter>
<filter id="filter9_f_24_1280" x="398" y="134" width="104" height="103.807" filterUnits="userSpaceOnUse" color-interpolation-filters="sRGB">
<feFlood flood-opacity="0" result="BackgroundImageFix"/>
<feBlend mode="normal" in="SourceGraphic" in2="BackgroundImageFix" result="shape"/>
<feGaussianBlur stdDeviation="15" result="effect1_foregroundBlur_24_1280"/>
</filter>
<filter id="filter10_f_24_1280" x="252" y="133.443" width="222" height="219.112" filterUnits="userSpaceOnUse" color-interpolation-filters="sRGB">
<feFlood flood-opacity="0" result="BackgroundImageFix"/>
<feBlend mode="normal" in="SourceGraphic" in2="BackgroundImageFix" result="shape"/>
<feGaussianBlur stdDeviation="22" result="effect1_foregroundBlur_24_1280"/>
</filter>
<filter id="filter11_f_24_1280" x="96" y="-22.5569" width="534" height="531.112" filterUnits="userSpaceOnUse" color-interpolation-filters="sRGB">
<feFlood flood-opacity="0" result="BackgroundImageFix"/>
<feBlend mode="normal" in="SourceGraphic" in2="BackgroundImageFix" result="shape"/>
<feGaussianBlur stdDeviation="100" result="effect1_foregroundBlur_24_1280"/>
</filter>
<filter id="filter12_f_24_1280" x="1173" y="186" width="104" height="103.807" filterUnits="userSpaceOnUse" color-interpolation-filters="sRGB">
<feFlood flood-opacity="0" result="BackgroundImageFix"/>
<feBlend mode="normal" in="SourceGraphic" in2="BackgroundImageFix" result="shape"/>
<feGaussianBlur stdDeviation="15" result="effect1_foregroundBlur_24_1280"/>
</filter>
<filter id="filter13_f_24_1280" x="985" y="45" width="56" height="56" filterUnits="userSpaceOnUse" color-interpolation-filters="sRGB">
<feFlood flood-opacity="0" result="BackgroundImageFix"/>
<feBlend mode="normal" in="SourceGraphic" in2="BackgroundImageFix" result="shape"/>
<feGaussianBlur stdDeviation="10" result="effect1_foregroundBlur_24_1280"/>
</filter>
<filter id="filter14_f_24_1280" x="1001" y="61" width="24" height="24" filterUnits="userSpaceOnUse" color-interpolation-filters="sRGB">
<feFlood flood-opacity="0" result="BackgroundImageFix"/>
<feBlend mode="normal" in="SourceGraphic" in2="BackgroundImageFix" result="shape"/>
<feGaussianBlur stdDeviation="3" result="effect1_foregroundBlur_24_1280"/>
</filter>
<filter id="filter15_f_24_1280" x="1120" y="158" width="56" height="56" filterUnits="userSpaceOnUse" color-interpolation-filters="sRGB">
<feFlood flood-opacity="0" result="BackgroundImageFix"/>
<feBlend mode="normal" in="SourceGraphic" in2="BackgroundImageFix" result="shape"/>
<feGaussianBlur stdDeviation="10" result="effect1_foregroundBlur_24_1280"/>
</filter>
<filter id="filter16_f_24_1280" x="1136" y="174" width="24" height="24" filterUnits="userSpaceOnUse" color-interpolation-filters="sRGB">
<feFlood flood-opacity="0" result="BackgroundImageFix"/>
<feBlend mode="normal" in="SourceGraphic" in2="BackgroundImageFix" result="shape"/>
<feGaussianBlur stdDeviation="3" result="effect1_foregroundBlur_24_1280"/>
</filter>
<filter id="filter17_f_24_1280" x="335" y="215" width="56" height="56" filterUnits="userSpaceOnUse" color-interpolation-filters="sRGB">
<feFlood flood-opacity="0" result="BackgroundImageFix"/>
<feBlend mode="normal" in="SourceGraphic" in2="BackgroundImageFix" result="shape"/>
<feGaussianBlur stdDeviation="10" result="effect1_foregroundBlur_24_1280"/>
</filter>
<filter id="filter18_f_24_1280" x="351" y="231" width="24" height="24" filterUnits="userSpaceOnUse" color-interpolation-filters="sRGB">
<feFlood flood-opacity="0" result="BackgroundImageFix"/>
<feBlend mode="normal" in="SourceGraphic" in2="BackgroundImageFix" result="shape"/>
<feGaussianBlur stdDeviation="3" result="effect1_foregroundBlur_24_1280"/>
</filter>
<filter id="filter19_f_24_1280" x="274" y="102" width="56" height="56" filterUnits="userSpaceOnUse" color-interpolation-filters="sRGB">
<feFlood flood-opacity="0" result="BackgroundImageFix"/>
<feBlend mode="normal" in="SourceGraphic" in2="BackgroundImageFix" result="shape"/>
<feGaussianBlur stdDeviation="10" result="effect1_foregroundBlur_24_1280"/>
</filter>
<filter id="filter20_f_24_1280" x="290" y="118" width="24" height="24" filterUnits="userSpaceOnUse" color-interpolation-filters="sRGB">
<feFlood flood-opacity="0" result="BackgroundImageFix"/>
<feBlend mode="normal" in="SourceGraphic" in2="BackgroundImageFix" result="shape"/>
<feGaussianBlur stdDeviation="3" result="effect1_foregroundBlur_24_1280"/>
</filter>
<filter id="filter21_f_24_1280" x="223" y="45.3745" width="1042" height="872" filterUnits="userSpaceOnUse" color-interpolation-filters="sRGB">
<feFlood flood-opacity="0" result="BackgroundImageFix"/>
<feBlend mode="normal" in="SourceGraphic" in2="BackgroundImageFix" result="shape"/>
<feGaussianBlur stdDeviation="100" result="effect1_foregroundBlur_24_1280"/>
</filter>
<filter id="filter22_f_24_1280" x="245" y="0.936035" width="998" height="827.251" filterUnits="userSpaceOnUse" color-interpolation-filters="sRGB">
<feFlood flood-opacity="0" result="BackgroundImageFix"/>
<feBlend mode="normal" in="SourceGraphic" in2="BackgroundImageFix" result="shape"/>
<feGaussianBlur stdDeviation="140" result="effect1_foregroundBlur_24_1280"/>
</filter>
<filter id="filter23_f_24_1280" x="505" y="153.393" width="478" height="391.945" filterUnits="userSpaceOnUse" color-interpolation-filters="sRGB">
<feFlood flood-opacity="0" result="BackgroundImageFix"/>
<feBlend mode="normal" in="SourceGraphic" in2="BackgroundImageFix" result="shape"/>
<feGaussianBlur stdDeviation="60" result="effect1_foregroundBlur_24_1280"/>
</filter>
<filter id="filter24_f_24_1280" x="525" y="145.375" width="438" height="345.479" filterUnits="userSpaceOnUse" color-interpolation-filters="sRGB">
<feFlood flood-opacity="0" result="BackgroundImageFix"/>
<feBlend mode="normal" in="SourceGraphic" in2="BackgroundImageFix" result="shape"/>
<feGaussianBlur stdDeviation="50" result="effect1_foregroundBlur_24_1280"/>
</filter>
<filter id="filter25_f_24_1280" x="612" y="92" width="264" height="425" filterUnits="userSpaceOnUse" color-interpolation-filters="sRGB">
<feFlood flood-opacity="0" result="BackgroundImageFix"/>
<feBlend mode="normal" in="SourceGraphic" in2="BackgroundImageFix" result="shape"/>
<feGaussianBlur stdDeviation="40" result="effect1_foregroundBlur_24_1280"/>
</filter>
<filter id="filter26_f_24_1280" x="4" y="87.4185" width="1480" height="486.739" filterUnits="userSpaceOnUse" color-interpolation-filters="sRGB">
<feFlood flood-opacity="0" result="BackgroundImageFix"/>
<feBlend mode="normal" in="SourceGraphic" in2="BackgroundImageFix" result="shape"/>
<feGaussianBlur stdDeviation="100" result="effect1_foregroundBlur_24_1280"/>
</filter>
<filter id="filter27_f_24_1280" x="0" y="311" width="1488" height="571" filterUnits="userSpaceOnUse" color-interpolation-filters="sRGB">
<feFlood flood-opacity="0" result="BackgroundImageFix"/>
<feBlend mode="normal" in="SourceGraphic" in2="BackgroundImageFix" result="shape"/>
<feGaussianBlur stdDeviation="4" result="effect1_foregroundBlur_24_1280"/>
</filter>
<filter id="filter28_f_24_1280" x="282" y="119.375" width="924" height="360" filterUnits="userSpaceOnUse" color-interpolation-filters="sRGB">
<feFlood flood-opacity="0" result="BackgroundImageFix"/>
<feBlend mode="normal" in="SourceGraphic" in2="BackgroundImageFix" result="shape"/>
<feGaussianBlur stdDeviation="75" result="effect1_foregroundBlur_24_1280"/>
</filter>
<filter id="filter29_f_24_1280" x="447.989" y="301.375" width="603.018" height="297.456" filterUnits="userSpaceOnUse" color-interpolation-filters="sRGB">
<feFlood flood-opacity="0" result="BackgroundImageFix"/>
<feBlend mode="normal" in="SourceGraphic" in2="BackgroundImageFix" result="shape"/>
<feGaussianBlur stdDeviation="7.5" result="effect1_foregroundBlur_24_1280"/>
</filter>
<filter id="filter30_f_24_1280" x="459.989" y="313.375" width="579.018" height="273.456" filterUnits="userSpaceOnUse" color-interpolation-filters="sRGB">
<feFlood flood-opacity="0" result="BackgroundImageFix"/>
<feBlend mode="normal" in="SourceGraphic" in2="BackgroundImageFix" result="shape"/>
<feGaussianBlur stdDeviation="1.5" result="effect1_foregroundBlur_24_1280"/>
</filter>
<filter id="filter31_d_24_1280" x="382.143" y="-15.3061" width="734.717" height="429.17" filterUnits="userSpaceOnUse" color-interpolation-filters="sRGB">
<feFlood flood-opacity="0" result="BackgroundImageFix"/>
<feColorMatrix in="SourceAlpha" type="matrix" values="0 0 0 0 0 0 0 0 0 0 0 0 0 0 0 0 0 0 127 0" result="hardAlpha"/>
<feOffset dy="11.551"/>
<feGaussianBlur stdDeviation="40.4286"/>
<feComposite in2="hardAlpha" operator="out"/>
<feColorMatrix type="matrix" values="0 0 0 0 0 0 0 0 0 0 0 0 0 0 0 0 0 0 0.4 0"/>
<feBlend mode="normal" in2="BackgroundImageFix" result="effect1_dropShadow_24_1280"/>
<feBlend mode="normal" in="SourceGraphic" in2="effect1_dropShadow_24_1280" result="shape"/>
</filter>
<filter id="filter32_f_24_1280" x="798.004" y="65.0002" width="304" height="260" filterUnits="userSpaceOnUse" color-interpolation-filters="sRGB">
<feFlood flood-opacity="0" result="BackgroundImageFix"/>
<feBlend mode="normal" in="SourceGraphic" in2="BackgroundImageFix" result="shape"/>
<feGaussianBlur stdDeviation="40" result="effect1_foregroundBlur_24_1280"/>
</filter>
<filter id="filter33_f_24_1280" x="482.998" y="-113" width="372" height="268" filterUnits="userSpaceOnUse" color-interpolation-filters="sRGB">
<feFlood flood-opacity="0" result="BackgroundImageFix"/>
<feBlend mode="normal" in="SourceGraphic" in2="BackgroundImageFix" result="shape"/>
<feGaussianBlur stdDeviation="30" result="effect1_foregroundBlur_24_1280"/>
</filter>
<filter id="filter34_f_24_1280" x="834.558" y="81.1028" width="223.57" height="210.43" filterUnits="userSpaceOnUse" color-interpolation-filters="sRGB">
<feFlood flood-opacity="0" result="BackgroundImageFix"/>
<feBlend mode="normal" in="SourceGraphic" in2="BackgroundImageFix" result="shape"/>
<feGaussianBlur stdDeviation="25" result="effect1_foregroundBlur_24_1280"/>
</filter>
<filter id="filter35_f_24_1280" x="475.533" y="82.5071" width="512.755" height="184.608" filterUnits="userSpaceOnUse" color-interpolation-filters="sRGB">
<feFlood flood-opacity="0" result="BackgroundImageFix"/>
<feBlend mode="normal" in="SourceGraphic" in2="BackgroundImageFix" result="shape"/>
<feGaussianBlur stdDeviation="25" result="effect1_foregroundBlur_24_1280"/>
</filter>
<filter id="filter36_f_24_1280" x="522.633" y="-19.0889" width="197.734" height="188.177" filterUnits="userSpaceOnUse" color-interpolation-filters="sRGB">
<feFlood flood-opacity="0" result="BackgroundImageFix"/>
<feBlend mode="normal" in="SourceGraphic" in2="BackgroundImageFix" result="shape"/>
<feGaussianBlur stdDeviation="25" result="effect1_foregroundBlur_24_1280"/>
</filter>
<filter id="filter37_f_24_1280" x="512.004" y="-33.625" width="313" height="196" filterUnits="userSpaceOnUse" color-interpolation-filters="sRGB">
<feFlood flood-opacity="0" result="BackgroundImageFix"/>
<feBlend mode="normal" in="SourceGraphic" in2="BackgroundImageFix" result="shape"/>
<feGaussianBlur stdDeviation="25" result="effect1_foregroundBlur_24_1280"/>
</filter>
<filter id="filter38_f_24_1280" x="604" y="34" width="120" height="178" filterUnits="userSpaceOnUse" color-interpolation-filters="sRGB">
<feFlood flood-opacity="0" result="BackgroundImageFix"/>
<feBlend mode="normal" in="SourceGraphic" in2="BackgroundImageFix" result="shape"/>
<feGaussianBlur stdDeviation="15" result="effect1_foregroundBlur_24_1280"/>
</filter>
<filter id="filter39_f_24_1280" x="556" y="216" width="218" height="159" filterUnits="userSpaceOnUse" color-interpolation-filters="sRGB">
<feFlood flood-opacity="0" result="BackgroundImageFix"/>
<feBlend mode="normal" in="SourceGraphic" in2="BackgroundImageFix" result="shape"/>
<feGaussianBlur stdDeviation="25" result="effect1_foregroundBlur_24_1280"/>
</filter>
<filter id="filter40_f_24_1280" x="431" y="157.375" width="120" height="128" filterUnits="userSpaceOnUse" color-interpolation-filters="sRGB">
<feFlood flood-opacity="0" result="BackgroundImageFix"/>
<feBlend mode="normal" in="SourceGraphic" in2="BackgroundImageFix" result="shape"/>
<feGaussianBlur stdDeviation="15" result="effect1_foregroundBlur_24_1280"/>
</filter>
<filter id="filter41_f_24_1280" x="686" y="177" width="179" height="160" filterUnits="userSpaceOnUse" color-interpolation-filters="sRGB">
<feFlood flood-opacity="0" result="BackgroundImageFix"/>
<feBlend mode="normal" in="SourceGraphic" in2="BackgroundImageFix" result="shape"/>
<feGaussianBlur stdDeviation="25" result="effect1_foregroundBlur_24_1280"/>
</filter>
<filter id="filter42_f_24_1280" x="868.078" y="147.233" width="85.7925" height="110.721" filterUnits="userSpaceOnUse" color-interpolation-filters="sRGB">
<feFlood flood-opacity="0" result="BackgroundImageFix"/>
<feBlend mode="normal" in="SourceGraphic" in2="BackgroundImageFix" result="shape"/>
<feGaussianBlur stdDeviation="10" result="effect1_foregroundBlur_24_1280"/>
</filter>
<filter id="filter43_f_24_1280" x="750" y="91.375" width="120" height="165" filterUnits="userSpaceOnUse" color-interpolation-filters="sRGB">
<feFlood flood-opacity="0" result="BackgroundImageFix"/>
<feBlend mode="normal" in="SourceGraphic" in2="BackgroundImageFix" result="shape"/>
<feGaussianBlur stdDeviation="15" result="effect1_foregroundBlur_24_1280"/>
</filter>
<filter id="filter44_f_24_1280" x="702.174" y="-12.9524" width="191.39" height="263.834" filterUnits="userSpaceOnUse" color-interpolation-filters="sRGB">
<feFlood flood-opacity="0" result="BackgroundImageFix"/>
<feBlend mode="normal" in="SourceGraphic" in2="BackgroundImageFix" result="shape"/>
<feGaussianBlur stdDeviation="25" result="effect1_foregroundBlur_24_1280"/>
</filter>
<filter id="filter45_f_24_1280" x="416.82" y="-7.47046" width="235.661" height="229.114" filterUnits="userSpaceOnUse" color-interpolation-filters="sRGB">
<feFlood flood-opacity="0" result="BackgroundImageFix"/>
<feBlend mode="normal" in="SourceGraphic" in2="BackgroundImageFix" result="shape"/>
<feGaussianBlur stdDeviation="20" result="effect1_foregroundBlur_24_1280"/>
</filter>
<filter id="filter46_f_24_1280" x="835.238" y="68.5063" width="244.33" height="216.717" filterUnits="userSpaceOnUse" color-interpolation-filters="sRGB">
<feFlood flood-opacity="0" result="BackgroundImageFix"/>
<feBlend mode="normal" in="SourceGraphic" in2="BackgroundImageFix" result="shape"/>
<feGaussianBlur stdDeviation="25" result="effect1_foregroundBlur_24_1280"/>
</filter>
<filter id="filter47_f_24_1280" x="575.804" y="45.5195" width="83.6138" height="74.3774" filterUnits="userSpaceOnUse" color-interpolation-filters="sRGB">
<feFlood flood-opacity="0" result="BackgroundImageFix"/>
<feBlend mode="normal" in="SourceGraphic" in2="BackgroundImageFix" result="shape"/>
<feGaussianBlur stdDeviation="6" result="effect1_foregroundBlur_24_1280"/>
</filter>
<filter id="filter48_f_24_1280" x="547.804" y="17.5195" width="139.614" height="130.377" filterUnits="userSpaceOnUse" color-interpolation-filters="sRGB">
<feFlood flood-opacity="0" result="BackgroundImageFix"/>
<feBlend mode="normal" in="SourceGraphic" in2="BackgroundImageFix" result="shape"/>
<feGaussianBlur stdDeviation="20" result="effect1_foregroundBlur_24_1280"/>
</filter>
<filter id="filter49_f_24_1280" x="591.211" y="48.9509" width="61.5776" height="56.3689" filterUnits="userSpaceOnUse" color-interpolation-filters="sRGB">
<feFlood flood-opacity="0" result="BackgroundImageFix"/>
<feBlend mode="normal" in="SourceGraphic" in2="BackgroundImageFix" result="shape"/>
<feGaussianBlur stdDeviation="7.5" result="effect1_foregroundBlur_24_1280"/>
</filter>
<filter id="filter50_f_24_1280" x="556.211" y="13.9509" width="131.578" height="126.369" filterUnits="userSpaceOnUse" color-interpolation-filters="sRGB">
<feFlood flood-opacity="0" result="BackgroundImageFix"/>
<feBlend mode="normal" in="SourceGraphic" in2="BackgroundImageFix" result="shape"/>
<feGaussianBlur stdDeviation="25" result="effect1_foregroundBlur_24_1280"/>
</filter>
<filter id="filter51_f_24_1280" x="602.867" y="45.4226" width="48.0068" height="51.813" filterUnits="userSpaceOnUse" color-interpolation-filters="sRGB">
<feFlood flood-opacity="0" result="BackgroundImageFix"/>
<feBlend mode="normal" in="SourceGraphic" in2="BackgroundImageFix" result="shape"/>
<feGaussianBlur stdDeviation="6" result="effect1_foregroundBlur_24_1280"/>
</filter>
<linearGradient id="paint0_linear_24_1280" x1="67" y1="16.5" x2="1420" y2="16.5001" gradientUnits="userSpaceOnUse">
<stop stop-color="#ADE0EB" stop-opacity="0"/>
<stop offset="0.24" stop-color="#ADE0EB"/>
<stop offset="0.785" stop-color="#ADE0EB"/>
<stop offset="1" stop-color="#ADE0EB" stop-opacity="0"/>
</linearGradient>
<linearGradient id="paint1_linear_24_1280" x1="67" y1="73.25" x2="1420" y2="73.2501" gradientUnits="userSpaceOnUse">
<stop stop-color="#ADE0EB" stop-opacity="0"/>
<stop offset="0.24" stop-color="#ADE0EB"/>
<stop offset="0.785" stop-color="#ADE0EB"/>
<stop offset="1" stop-color="#ADE0EB" stop-opacity="0"/>
</linearGradient>
<linearGradient id="paint2_linear_24_1280" x1="68" y1="130" x2="1421" y2="130" gradientUnits="userSpaceOnUse">
<stop stop-color="#ADE0EB" stop-opacity="0"/>
<stop offset="0.24" stop-color="#ADE0EB"/>
<stop offset="0.785" stop-color="#ADE0EB"/>
<stop offset="1" stop-color="#ADE0EB" stop-opacity="0"/>
</linearGradient>
<linearGradient id="paint3_linear_24_1280" x1="68" y1="186.75" x2="1421" y2="186.75" gradientUnits="userSpaceOnUse">
<stop stop-color="#ADE0EB" stop-opacity="0"/>
<stop offset="0.24" stop-color="#ADE0EB"/>
<stop offset="0.785" stop-color="#ADE0EB"/>
<stop offset="1" stop-color="#ADE0EB" stop-opacity="0"/>
</linearGradient>
<linearGradient id="paint4_linear_24_1280" x1="68" y1="243.5" x2="1421" y2="243.5" gradientUnits="userSpaceOnUse">
<stop stop-color="#ADE0EB" stop-opacity="0"/>
<stop offset="0.24" stop-color="#ADE0EB"/>
<stop offset="0.785" stop-color="#ADE0EB"/>
<stop offset="1" stop-color="#ADE0EB" stop-opacity="0"/>
</linearGradient>
<linearGradient id="paint5_linear_24_1280" x1="67" y1="16.5" x2="1420" y2="16.5001" gradientUnits="userSpaceOnUse">
<stop stop-color="#ADE0EB" stop-opacity="0"/>
<stop offset="0.24" stop-color="#ADE0EB"/>
<stop offset="0.785" stop-color="#ADE0EB"/>
<stop offset="1" stop-color="#ADE0EB" stop-opacity="0"/>
</linearGradient>
<linearGradient id="paint6_linear_24_1280" x1="67" y1="73.25" x2="1420" y2="73.2501" gradientUnits="userSpaceOnUse">
<stop stop-color="#ADE0EB" stop-opacity="0"/>
<stop offset="0.24" stop-color="#ADE0EB"/>
<stop offset="0.785" stop-color="#ADE0EB"/>
<stop offset="1" stop-color="#ADE0EB" stop-opacity="0"/>
</linearGradient>
<linearGradient id="paint7_linear_24_1280" x1="68" y1="130" x2="1421" y2="130" gradientUnits="userSpaceOnUse">
<stop stop-color="#ADE0EB" stop-opacity="0"/>
<stop offset="0.24" stop-color="#ADE0EB"/>
<stop offset="0.785" stop-color="#ADE0EB"/>
<stop offset="1" stop-color="#ADE0EB" stop-opacity="0"/>
</linearGradient>
<linearGradient id="paint8_linear_24_1280" x1="68" y1="186.75" x2="1421" y2="186.75" gradientUnits="userSpaceOnUse">
<stop stop-color="#ADE0EB" stop-opacity="0"/>
<stop offset="0.24" stop-color="#ADE0EB"/>
<stop offset="0.785" stop-color="#ADE0EB"/>
<stop offset="1" stop-color="#ADE0EB" stop-opacity="0"/>
</linearGradient>
<linearGradient id="paint9_linear_24_1280" x1="68" y1="243.5" x2="1421" y2="243.5" gradientUnits="userSpaceOnUse">
<stop stop-color="#ADE0EB" stop-opacity="0"/>
<stop offset="0.24" stop-color="#ADE0EB"/>
<stop offset="0.785" stop-color="#ADE0EB"/>
<stop offset="1" stop-color="#ADE0EB" stop-opacity="0"/>
</linearGradient>
<linearGradient id="paint10_linear_24_1280" x1="744" y1="319" x2="744" y2="874" gradientUnits="userSpaceOnUse">
<stop stop-color="#0C0D0D" stop-opacity="0.7"/>
<stop offset="0.203785" stop-color="#0C0D0D" stop-opacity="0.939543"/>
<stop offset="0.312833" stop-color="#0C0D0D"/>
</linearGradient>
<linearGradient id="paint11_linear_24_1280" x1="744" y1="319.375" x2="744" y2="874.375" gradientUnits="userSpaceOnUse">
<stop offset="0.0634952" stop-color="#0C0D0D"/>
<stop offset="0.27318" stop-color="#0C0D0D" stop-opacity="0"/>
</linearGradient>
<linearGradient id="paint12_linear_24_1280" x1="744" y1="319.375" x2="744" y2="874.375" gradientUnits="userSpaceOnUse">
<stop offset="0.0092311" stop-color="#111314"/>
<stop offset="0.0498402" stop-color="#0C0D0D" stop-opacity="0"/>
</linearGradient>
<linearGradient id="paint13_linear_24_1280" x1="744" y1="319.375" x2="744" y2="874.375" gradientUnits="userSpaceOnUse">
<stop offset="0.0092311" stop-color="#111314"/>
<stop offset="0.0722193" stop-color="#0C0D0D" stop-opacity="0"/>
</linearGradient>
<radialGradient id="paint14_radial_24_1280" cx="0" cy="0" r="1" gradientUnits="userSpaceOnUse" gradientTransform="translate(682.5 -12) rotate(85.8653) scale(374.475 536.555)">
<stop offset="0.363748" stop-color="#CACCCE"/>
<stop offset="0.672627" stop-color="#3D4142"/>
<stop offset="0.847231" stop-color="#0E1010"/>
</radialGradient>
</defs>
</svg>
