<svg width="22" height="22" viewBox="0 0 22 22" fill="none" xmlns="http://www.w3.org/2000/svg">
<path d="M15.2002 4.93335H20.0002" stroke="#00E599" stroke-linecap="round" stroke-linejoin="round"/>
<path d="M10.4 2.53333H15.2V7.33333H10.4C9.76348 7.33333 9.15303 7.08047 8.70294 6.63038C8.25286 6.18029 8 5.56985 8 4.93333C8 4.29681 8.25286 3.68636 8.70294 3.23627C9.15303 2.78618 9.76348 2.53333 10.4 2.53333Z" stroke="#00E599" stroke-linecap="round" stroke-linejoin="round"/>
<path d="M6.8 19.3334H16.4C17.3548 19.3334 18.2705 18.9541 18.9456 18.2789C19.6207 17.6038 20 16.6881 20 15.7334C20 14.7786 19.6207 13.8629 18.9456 13.1878C18.2705 12.5126 17.3548 12.1334 16.4 12.1334H5.6C4.64522 12.1334 3.72955 11.7541 3.05442 11.0789C2.37928 10.4038 2 9.48813 2 8.53335C2 7.57857 2.37928 6.6629 3.05442 5.98777C3.72955 5.31263 4.64522 4.93335 5.6 4.93335" stroke="#00E599" stroke-linecap="round" stroke-linejoin="round"/>
</svg>
