<svg xmlns="http://www.w3.org/2000/svg" width="24" height="24" fill="none" viewBox="0 0 24 24"><rect width="24" height="24" fill="url(#a)" rx="4"/><rect width="23" height="23" x=".5" y=".5" stroke="url(#b)" stroke-opacity=".1" rx="3.5"/><path stroke="#C9CBCF" stroke-linecap="round" stroke-linejoin="round" d="M16.67 19H7.338a1.4 1.4 0 0 1-1.4-1.4v-4.667a1.4 1.4 0 0 1 1.4-1.4h9.334a1.4 1.4 0 0 1 1.4 1.4V17.6a1.4 1.4 0 0 1-1.4 1.4ZM8.734 9.667v-1.4a3.267 3.267 0 1 1 6.534 0v1.4"/><path stroke="#C9CBCF" stroke-linecap="round" stroke-linejoin="round" d="M12.01 16.666a1.4 1.4 0 1 0 0-2.8 1.4 1.4 0 0 0 0 2.8Z"/><defs><linearGradient id="a" x1="12" x2="12" y1="0" y2="24" gradientUnits="userSpaceOnUse"><stop offset=".313" stop-color="#242628"/><stop offset="1" stop-color="#1D1E20"/></linearGradient><linearGradient id="b" x1="12" x2="12" y1="0" y2="24" gradientUnits="userSpaceOnUse"><stop stop-color="white"/><stop offset="1" stop-color="white" stop-opacity=".05"/></linearGradient></defs></svg>