<svg width="22" height="22" viewBox="0 0 22 22" fill="none" xmlns="http://www.w3.org/2000/svg">
<path d="M15.2746 6.725C16.7175 6.725 17.8871 5.55534 17.8871 4.1125C17.8871 2.66966 16.7175 1.5 15.2746 1.5C13.8318 1.5 12.6621 2.66966 12.6621 4.1125C12.6621 5.55534 13.8318 6.725 15.2746 6.725Z" stroke="#00E599" stroke-linecap="round" stroke-linejoin="round"/>
<path d="M14.376 15.275H20.4769C20.4912 15.1182 20.5007 14.9605 20.5007 14.8C20.5007 11.9139 18.1618 9.57495 15.2757 9.57495C14.4919 9.57495 13.7519 9.7526 13.085 10.0614" stroke="#00E599" stroke-linecap="round" stroke-linejoin="round"/>
<path d="M6.7248 11.95C8.16765 11.95 9.3373 10.7803 9.3373 9.33748C9.3373 7.89463 8.16765 6.72498 6.7248 6.72498C5.28196 6.72498 4.1123 7.89463 4.1123 9.33748C4.1123 10.7803 5.28196 11.95 6.7248 11.95Z" stroke="#00E599" stroke-linecap="round" stroke-linejoin="round"/>
<path d="M11.9263 20.5C11.9405 20.3433 11.95 20.1856 11.95 20.025C11.95 17.1389 9.6111 14.8 6.725 14.8C3.8389 14.8 1.5 17.1389 1.5 20.025C1.5 20.1856 1.5095 20.3433 1.52375 20.5H11.9263Z" stroke="#00E599" stroke-linecap="round" stroke-linejoin="round"/>
</svg>
