<svg xmlns="http://www.w3.org/2000/svg" width="24" height="24" fill="none" viewBox="0 0 24 24"><rect width="24" height="24" fill="url(#a)" rx="4"/><rect width="23" height="23" x=".5" y=".5" stroke="url(#b)" stroke-opacity=".1" rx="3.5"/><path stroke="#C9CBCF" stroke-linecap="round" stroke-linejoin="round" stroke-width=".909" d="M18 6H6v4.364h12V6ZM8.172 8.182h2.182"/><path fill="#C9CBCF" d="M15.819 8.728a.545.545 0 1 0 0-1.091.545.545 0 0 0 0 1.09Z"/><path stroke="#C9CBCF" stroke-linecap="round" stroke-linejoin="round" stroke-width=".909" d="M18 13.636H6V18h12v-4.364ZM8.172 15.818h2.182"/><path fill="#C9CBCF" d="M15.819 16.364a.545.545 0 1 0 0-1.091.545.545 0 0 0 0 1.09Z"/><defs><linearGradient id="a" x1="12" x2="12" y1="0" y2="24" gradientUnits="userSpaceOnUse"><stop offset=".313" stop-color="#242628"/><stop offset="1" stop-color="#1D1E20"/></linearGradient><linearGradient id="b" x1="12" x2="12" y1="0" y2="24" gradientUnits="userSpaceOnUse"><stop stop-color="white"/><stop offset="1" stop-color="white" stop-opacity=".05"/></linearGradient></defs></svg>