<svg xmlns="http://www.w3.org/2000/svg" width="24" height="24" fill="none" viewBox="0 0 24 24"><rect width="24" height="24" fill="url(#a)" rx="4"/><rect width="23" height="23" x=".5" y=".5" stroke="url(#b)" stroke-opacity=".1" rx="3.5"/><path stroke="#C9CBCF" stroke-linecap="round" stroke-linejoin="round" d="m12.285 5.645 4.884 1.562a.931.931 0 0 1 .647.886v6.065c0 2.82-4.357 4.417-5.528 4.796a.916.916 0 0 1-.573 0c-1.17-.379-5.527-1.977-5.527-4.796V8.093a.93.93 0 0 1 .646-.886l4.884-1.562a.937.937 0 0 1 .567 0Z"/><path stroke="#C9CBCF" stroke-linecap="round" stroke-linejoin="round" d="m9.672 12.995 1.497 1.396 3.16-4.186"/><defs><linearGradient id="a" x1="12" x2="12" y1="0" y2="24" gradientUnits="userSpaceOnUse"><stop offset=".313" stop-color="#242628"/><stop offset="1" stop-color="#1D1E20"/></linearGradient><linearGradient id="b" x1="12" x2="12" y1="0" y2="24" gradientUnits="userSpaceOnUse"><stop stop-color="white"/><stop offset="1" stop-color="white" stop-opacity=".05"/></linearGradient></defs></svg>