<svg width="300" height="300" viewBox="0 0 300 300" fill="none" xmlns="http://www.w3.org/2000/svg">
<g opacity="0.5" filter="url(#filter0_f_10560_19118)">
<circle cx="150" cy="150" r="96" stroke="#00E599" stroke-width="28"/>
</g>
<circle cx="150" cy="150" r="96" stroke="#00E599" stroke-width="28"/>
<g clip-path="url(#clip0_10560_19118)">
<path d="M56.8127 171.903L54.5212 173.744L54.5341 173.796L63.4539 171.843L63.9381 174.06L51.5594 176.774L50.9974 174.202L56.5317 169.09L58.8232 167.249L58.8103 167.197L49.8905 169.15L49.4062 166.933L61.785 164.219L62.347 166.79L56.8127 171.903Z" fill="#1A1A1A"/>
<path d="M61.464 161.66L48.8345 162.741L48.1211 154.421L50.2397 154.24L50.7456 160.174L53.8024 159.914L53.3528 154.668L55.4714 154.486L55.921 159.733L59.1422 159.456L58.6363 153.522L60.7549 153.341L61.4683 161.66H61.464Z" fill="#1A1A1A"/>
<path d="M54.3153 151.465C50.0348 151.279 47.86 148.989 48.0027 145.67C48.1454 142.333 50.5061 140.254 54.7909 140.44C59.0713 140.626 61.2461 142.899 61.1034 146.236C60.9608 149.555 58.6 151.651 54.3153 151.465ZM55.6599 143.02L53.7013 142.934C51.5438 142.843 50.2034 143.945 50.1256 145.76C50.0478 147.575 51.2844 148.79 53.4462 148.881L55.4048 148.967C57.5623 149.058 58.9027 147.956 58.9805 146.141C59.0583 144.325 57.8218 143.111 55.6643 143.02H55.6599Z" fill="#1A1A1A"/>
<path d="M55.6499 133.966L52.8223 134.774L52.8136 134.826L61.7939 136.477L61.3831 138.707L48.918 136.412L49.3936 133.823L56.4758 131.252L59.3035 130.444L59.3121 130.392L50.3318 128.741L50.7426 126.511L63.2077 128.806L62.7321 131.394L55.6499 133.966Z" fill="#1A1A1A"/>
<path d="M54.8164 113.342L56.6713 109.124C58.003 106.099 60.8134 104.979 64.6701 106.673C68.5268 108.368 69.6034 111.198 68.2717 114.224L66.4168 118.446L54.8164 113.346V113.342ZM66.3304 113.364C67.0481 111.734 66.5422 110.265 64.5663 109.396L62.7374 108.592C60.7615 107.724 59.3347 108.346 58.6169 109.975L57.7262 112.002L65.4397 115.391L66.3304 113.364Z" fill="#1A1A1A"/>
<path d="M71.4939 107.443L60.6328 100.912L64.9392 93.7554L66.7595 94.8489L63.6897 99.953L66.3185 101.535L69.0337 97.0228L70.854 98.1162L68.1387 102.628L70.9102 104.292L73.98 99.188L75.8003 100.281L71.4939 107.438V107.443Z" fill="#1A1A1A"/>
<path d="M78.8199 96.2275L66.2812 91.6896L67.7902 89.7577L73.852 92.0267L77.8644 93.7338L77.899 93.6906L75.2572 90.2245L71.5864 84.8957L73.0521 83.02L80.4932 94.0796L78.8156 96.2275H78.8199Z" fill="#1A1A1A"/>
<path d="M84.0424 89.8269L75.0664 80.8763L80.9682 74.964L82.4729 76.4637L78.2659 80.6775L80.4407 82.8428L84.1591 79.1173L85.6638 80.617L81.9454 84.3425L84.2326 86.6244L88.4396 82.4106L89.9442 83.9103L84.0424 89.8226V89.8269Z" fill="#1A1A1A"/>
<path d="M91.6297 82.4884L83.6914 72.6129L85.5592 71.1133L92.1701 79.3334L96.0615 76.2044L97.3932 77.8597L91.634 82.4884H91.6297Z" fill="#1A1A1A"/>
<path d="M94.3795 72.1375C92.0879 68.5158 92.7321 65.4257 95.5425 63.6494C98.3659 61.8645 101.423 62.6165 103.71 66.2382C106.002 69.8599 105.37 72.9414 102.547 74.7263C99.7365 76.5026 96.6667 75.7592 94.3795 72.1375ZM102.084 68.4251L101.038 66.7698C99.8835 64.946 98.2103 64.4749 96.6753 65.4473C95.1404 66.4154 94.8464 68.1269 96.0009 69.955L97.0472 71.6103C98.2016 73.4341 99.8749 73.9052 101.41 72.9328C102.945 71.9647 103.239 70.2532 102.084 68.4294V68.4251Z" fill="#1A1A1A"/>
<path d="M108.914 70.7027L103.617 59.1893L108.797 56.8079C110.924 55.8312 112.874 56.674 113.851 58.8003C114.837 60.9439 114.202 62.9536 112.074 63.9347L109.069 65.3133L111.089 69.7L108.909 70.7027H108.914ZM108.209 63.4333L111.015 62.1454C111.858 61.7608 112.156 61.0606 111.767 60.2222L111.417 59.4616C111.032 58.6188 110.315 58.4113 109.471 58.796L106.665 60.0839L108.205 63.4333H108.209Z" fill="#1A1A1A"/>
<path d="M119.227 66.1604L115.379 54.0895L123.339 51.5526L123.983 53.5752L118.306 55.3817L119.24 58.3033L124.26 56.7042L124.904 58.7268L119.884 60.3259L120.866 63.4031L126.543 61.5965L127.187 63.6192L119.227 66.1561V66.1604Z" fill="#1A1A1A"/>
<path d="M131.634 62.6554L129.278 63.0919L126.969 50.6363L132.594 49.5948C134.859 49.1755 136.55 50.4116 136.987 52.767C137.302 54.4785 136.762 55.9263 135.322 56.7301L138.816 61.3243L136.191 61.8083L132.979 57.4389L130.748 57.8538L131.638 62.6554H131.634ZM133.411 55.3126C134.319 55.144 134.782 54.5433 134.613 53.6314L134.462 52.8102C134.293 51.8983 133.649 51.5223 132.741 51.6909L129.706 52.2527L130.376 55.8744L133.411 55.3126Z" fill="#1A1A1A"/>
<path d="M149.576 48L154.185 48.1988C157.488 48.3414 159.555 50.5542 159.373 54.7594C159.192 58.9645 156.944 60.9958 153.64 60.8532L149.031 60.6544L149.572 47.9957L149.576 48ZM153.735 58.7312C155.512 58.809 156.701 57.802 156.792 55.6454L156.879 53.6487C156.97 51.4921 155.871 50.39 154.094 50.3122L151.881 50.2171L151.522 58.6318L153.735 58.7268V58.7312Z" fill="#1A1A1A"/>
<path d="M168.344 62.6079L167.886 59.2498L163.445 58.4935L161.919 61.5101L159.52 61.0995L165.841 49.3225L168.777 49.8238L170.8 63.0228L168.348 62.6035L168.344 62.6079ZM166.922 51.7211L166.831 51.7038L164.362 56.5702L167.657 57.1321L166.922 51.7211Z" fill="#1A1A1A"/>
<path d="M174.005 64.0254L175.397 59.2498L173.387 50.645L175.968 51.397L177.274 57.3568L177.308 57.3655L181.546 53.022L184.058 53.7524L177.723 59.9024L176.327 64.6953L174.009 64.0211L174.005 64.0254Z" fill="#1A1A1A"/>
<path d="M181.078 64.168L183.175 63.3599C183.582 64.6348 184.36 65.5554 185.562 66.061C186.915 66.6315 187.897 66.2771 188.312 65.2917C188.645 64.5052 188.48 63.8655 187.352 63.1308L186.318 62.4998C184.113 61.1341 183.452 59.535 184.256 57.6291C185.138 55.5373 187.334 54.8674 189.946 55.9695C191.701 56.7129 192.752 57.8625 193.215 59.3794L191.109 60.166C190.845 59.2066 190.244 58.3811 189.008 57.8625C187.754 57.3309 186.889 57.5599 186.522 58.4286C186.145 59.3146 186.496 59.8937 187.529 60.5679L188.532 61.2292C190.716 62.6424 191.373 64.1637 190.56 66.0869C189.626 68.2954 187.404 69.1295 184.611 67.9497C182.622 67.1112 181.58 65.7455 181.082 64.1724L181.078 64.168Z" fill="#1A1A1A"/>
<path d="M224.296 89.5114L225.549 86.8534L225.515 86.8102L218.355 92.4762L216.945 90.6956L226.881 82.8341L228.515 84.8956L225.787 91.9187L224.533 94.5766L224.568 94.6198L231.728 88.9539L233.138 90.7345L223.202 98.5959L221.567 96.5344L224.296 89.5114Z" fill="#1A1A1A"/>
<path d="M224.613 100.765L235.479 94.2481L239.776 101.405L237.956 102.499L234.891 97.3944L232.262 98.9719L234.973 103.484L233.153 104.577L230.442 100.065L227.67 101.729L230.736 106.833L228.915 107.927L224.618 100.77L224.613 100.765Z" fill="#1A1A1A"/>
<path d="M235.517 106.781C239.443 105.07 242.405 106.172 243.732 109.219C245.068 112.279 243.862 115.183 239.932 116.899C236.006 118.61 233.053 117.526 231.717 114.461C230.385 111.419 231.587 108.497 235.517 106.781ZM238.016 114.958L239.815 114.176C241.795 113.312 242.513 111.73 241.787 110.066C241.06 108.402 239.413 107.853 237.433 108.718L235.634 109.5C233.654 110.364 232.936 111.946 233.662 113.61C234.389 115.274 236.036 115.823 238.016 114.958Z" fill="#1A1A1A"/>
<path d="M242.007 123.105L244.195 121.143L244.182 121.091L235.379 123.529L234.773 121.342L246.988 117.958L247.688 120.495L242.444 125.901L240.256 127.863L240.269 127.915L249.072 125.478L249.677 127.665L237.463 131.049L236.758 128.512L242.007 123.105Z" fill="#1A1A1A"/>
<path d="M251.758 141.279L251.935 145.886C252.06 149.188 250.02 151.426 245.808 151.586C241.597 151.746 239.392 149.667 239.267 146.365L239.094 141.758L251.762 141.279H251.758ZM241.39 146.283C241.459 148.06 242.553 149.166 244.715 149.084L246.712 149.01C248.874 148.928 249.881 147.744 249.812 145.968L249.73 143.755L241.312 144.075L241.394 146.288L241.39 146.283Z" fill="#1A1A1A"/>
<path d="M239.386 153.851L251.998 155.126L251.159 163.432L249.045 163.216L249.646 157.291L246.593 156.984L246.061 162.222L243.947 162.006L244.479 156.768L241.262 156.444L240.661 162.369L238.547 162.153L239.386 153.846V153.851Z" fill="#1A1A1A"/>
<path d="M237.679 167.175L250.936 165.736L250.43 168.135L243.988 168.765L239.634 168.999L239.621 169.051L243.516 171L249.159 174.172L248.67 176.497L237.117 169.837L237.679 167.171V167.175Z" fill="#1A1A1A"/>
<path d="M235.803 175.218L247.797 179.319L245.095 187.22L243.085 186.533L245.013 180.901L242.112 179.907L240.408 184.886L238.398 184.199L240.101 179.22L237.044 178.174L235.116 183.806L233.105 183.118L235.808 175.218H235.803Z" fill="#1A1A1A"/>
<path d="M232.211 185.141L243.677 190.548L242.653 192.713L233.11 188.214L230.979 192.73L229.055 191.823L232.207 185.141H232.211Z" fill="#1A1A1A"/>
<path d="M234.266 195.652C237.906 197.912 238.676 200.972 236.925 203.794C235.165 206.634 232.087 207.286 228.442 205.026C224.801 202.765 224.019 199.719 225.783 196.883C227.534 194.061 230.621 193.391 234.266 195.652ZM228.952 202.355L230.617 203.388C232.454 204.529 234.162 204.218 235.118 202.679C236.073 201.136 235.593 199.472 233.756 198.331L232.091 197.298C230.254 196.157 228.546 196.469 227.59 198.011C226.635 199.554 227.115 201.218 228.952 202.359V202.355Z" fill="#1A1A1A"/>
<path d="M221.815 203.288L231.604 211.336L227.98 215.74C226.493 217.55 224.375 217.637 222.563 216.15C220.738 214.651 220.436 212.567 221.923 210.757L224.024 208.207L220.293 205.138L221.815 203.288ZM225.624 209.521L223.661 211.902C223.073 212.619 223.108 213.376 223.825 213.963L224.47 214.495C225.183 215.083 225.922 214.962 226.51 214.244L228.473 211.863L225.624 209.521Z" fill="#1A1A1A"/>
<path d="M214.514 211.872L223.257 221.047L217.208 226.808L215.742 225.269L220.057 221.164L217.938 218.942L214.125 222.572L212.659 221.034L216.473 217.404L214.242 215.065L209.927 219.171L208.461 217.633L214.51 211.872H214.514Z" fill="#1A1A1A"/>
<path d="M204.89 220.45L206.819 219.024L214.363 229.207L209.767 232.608C207.913 233.978 205.854 233.606 204.428 231.683C203.39 230.283 203.243 228.744 204.186 227.391L199.027 224.794L201.172 223.208L205.976 225.727L207.8 224.379L204.895 220.455L204.89 220.45ZM206.516 227.832C205.772 228.385 205.621 229.129 206.174 229.872L206.672 230.542C207.221 231.285 207.969 231.346 208.712 230.793L211.194 228.956L208.998 225.995L206.516 227.832Z" fill="#1A1A1A"/>
<path d="M195.213 241.502L190.989 243.352C187.962 244.674 185.13 243.594 183.439 239.739C181.749 235.88 182.877 233.07 185.908 231.744L190.132 229.894L195.213 241.502ZM186.76 233.688C185.13 234.401 184.503 235.823 185.368 237.803L186.168 239.631C187.032 241.61 188.502 242.116 190.132 241.403L192.165 240.517L188.788 232.798L186.756 233.684L186.76 233.688Z" fill="#1A1A1A"/>
<path d="M171.934 236.597L173.815 239.415L178.138 238.153L178.19 234.773L180.525 234.09L179.993 247.445L177.135 248.279L169.543 237.293L171.93 236.597H171.934ZM177.974 245.764L178.061 245.738L178.151 240.283L174.943 241.217L177.97 245.759L177.974 245.764Z" fill="#1A1A1A"/>
<path d="M166.233 237.785L167.063 242.686L172.628 249.549L169.977 249.999L166.203 245.21H166.168L164.253 250.971L161.676 251.408L164.689 243.11L163.855 238.187L166.237 237.785H166.233Z" fill="#1A1A1A"/>
<path d="M159.79 240.742L158.259 242.384C157.334 241.416 156.236 240.927 154.93 240.997C153.46 241.074 152.738 241.822 152.794 242.89C152.837 243.741 153.265 244.247 154.601 244.411L155.808 244.528C158.385 244.791 159.682 245.941 159.79 248.007C159.911 250.271 158.229 251.831 155.397 251.983C153.494 252.082 152.042 251.503 150.965 250.345L152.517 248.72C153.175 249.467 154.074 249.947 155.414 249.878C156.776 249.804 157.455 249.225 157.403 248.283C157.351 247.324 156.789 246.952 155.561 246.796L154.372 246.641C151.791 246.321 150.533 245.245 150.425 243.157C150.299 240.763 151.938 239.043 154.965 238.883C157.122 238.771 158.657 239.544 159.79 240.737V240.742Z" fill="#1A1A1A"/>
</g>
<path d="M117.04 157.864C114.16 157.864 111.592 157.408 109.336 156.496C107.08 155.536 105.16 154.216 103.576 152.536C101.992 150.808 100.792 148.744 99.9758 146.344C99.1598 143.896 98.7518 141.16 98.7518 138.136C98.7518 134.536 99.2798 131.152 100.336 127.984C101.44 124.768 102.856 121.84 104.584 119.2C106.312 116.512 108.232 114.136 110.344 112.072C112.504 109.96 114.64 108.184 116.752 106.744H129.568C126.592 108.856 123.928 110.896 121.576 112.864C119.272 114.832 117.232 116.824 115.456 118.84C113.728 120.856 112.288 122.968 111.136 125.176C110.032 127.336 109.192 129.688 108.616 132.232L109.192 132.376C109.672 131.416 110.224 130.504 110.848 129.64C111.52 128.728 112.312 127.936 113.224 127.264C114.136 126.544 115.192 125.992 116.392 125.608C117.592 125.176 118.984 124.96 120.568 124.96C122.632 124.96 124.552 125.32 126.328 126.04C128.152 126.76 129.712 127.816 131.008 129.208C132.352 130.552 133.384 132.184 134.104 134.104C134.872 136.024 135.256 138.16 135.256 140.512C135.256 143.056 134.824 145.384 133.96 147.496C133.096 149.608 131.872 151.432 130.288 152.968C128.704 154.504 126.784 155.704 124.528 156.568C122.32 157.432 119.824 157.864 117.04 157.864ZM117.04 150.376C119.68 150.376 121.744 149.656 123.232 148.216C124.768 146.728 125.536 144.616 125.536 141.88V140.8C125.536 138.064 124.768 135.976 123.232 134.536C121.744 133.048 119.68 132.304 117.04 132.304C114.352 132.304 112.264 133.048 110.776 134.536C109.288 135.976 108.544 138.064 108.544 140.8V141.88C108.544 144.616 109.288 146.728 110.776 148.216C112.264 149.656 114.352 150.376 117.04 150.376ZM139.692 139.648V130.504H160.284V139.648H139.692ZM183.204 157.864C180.276 157.864 177.66 157.504 175.356 156.784C173.1 156.016 171.18 154.984 169.596 153.688C168.06 152.392 166.884 150.856 166.068 149.08C165.252 147.304 164.844 145.36 164.844 143.248C164.844 139.984 165.732 137.344 167.508 135.328C169.332 133.264 171.756 131.824 174.78 131.008V130.432C172.284 129.52 170.244 128.104 168.66 126.184C167.124 124.264 166.356 121.84 166.356 118.912C166.356 116.992 166.716 115.24 167.436 113.656C168.204 112.072 169.308 110.704 170.748 109.552C172.188 108.4 173.94 107.512 176.004 106.888C178.116 106.216 180.516 105.88 183.204 105.88C185.892 105.88 188.268 106.216 190.332 106.888C192.444 107.512 194.22 108.4 195.66 109.552C197.1 110.704 198.18 112.072 198.9 113.656C199.668 115.24 200.052 116.992 200.052 118.912C200.052 121.84 199.26 124.264 197.676 126.184C196.14 128.104 194.124 129.52 191.628 130.432V131.008C194.652 131.824 197.052 133.264 198.828 135.328C200.652 137.344 201.564 139.984 201.564 143.248C201.564 145.36 201.156 147.304 200.34 149.08C199.524 150.856 198.324 152.392 196.74 153.688C195.204 154.984 193.284 156.016 190.98 156.784C188.724 157.504 186.132 157.864 183.204 157.864ZM183.204 150.448C185.94 150.448 188.028 149.824 189.468 148.576C190.956 147.328 191.7 145.576 191.7 143.32V141.808C191.7 139.552 190.956 137.8 189.468 136.552C188.028 135.304 185.94 134.68 183.204 134.68C180.468 134.68 178.356 135.304 176.868 136.552C175.428 137.8 174.708 139.552 174.708 141.808V143.32C174.708 145.576 175.428 147.328 176.868 148.576C178.356 149.824 180.468 150.448 183.204 150.448ZM183.204 127.624C185.748 127.624 187.692 127.048 189.036 125.896C190.38 124.744 191.052 123.112 191.052 121V119.848C191.052 117.784 190.38 116.176 189.036 115.024C187.692 113.872 185.748 113.296 183.204 113.296C180.66 113.296 178.716 113.872 177.372 115.024C176.028 116.176 175.356 117.784 175.356 119.848V121C175.356 123.112 176.028 124.744 177.372 125.896C178.716 127.048 180.66 127.624 183.204 127.624Z" fill="white"/>
<path d="M91.4385 172.832H95.3905C96.1052 172.832 96.7505 172.949 97.3265 173.184C97.9132 173.419 98.4092 173.771 98.8145 174.24C99.2305 174.699 99.5505 175.28 99.7745 175.984C99.9985 176.677 100.111 177.488 100.111 178.416C100.111 179.344 99.9985 180.16 99.7745 180.864C99.5505 181.557 99.2305 182.139 98.8145 182.608C98.4092 183.067 97.9132 183.413 97.3265 183.648C96.7505 183.883 96.1052 184 95.3905 184H91.4385V172.832ZM95.3905 182.4C96.2225 182.4 96.8945 182.139 97.4065 181.616C97.9185 181.093 98.1745 180.325 98.1745 179.312V177.52C98.1745 176.507 97.9185 175.739 97.4065 175.216C96.8945 174.693 96.2225 174.432 95.3905 174.432H93.2465V182.4H95.3905ZM105.496 184.192C104.899 184.192 104.366 184.091 103.896 183.888C103.427 183.685 103.027 183.397 102.696 183.024C102.366 182.64 102.11 182.181 101.928 181.648C101.758 181.104 101.672 180.501 101.672 179.84C101.672 179.179 101.758 178.581 101.928 178.048C102.11 177.504 102.366 177.045 102.696 176.672C103.027 176.288 103.427 175.995 103.896 175.792C104.366 175.589 104.899 175.488 105.496 175.488C106.104 175.488 106.638 175.595 107.096 175.808C107.566 176.021 107.955 176.32 108.264 176.704C108.574 177.077 108.803 177.515 108.952 178.016C109.112 178.517 109.192 179.056 109.192 179.632V180.288H103.48V180.56C103.48 181.2 103.667 181.728 104.04 182.144C104.424 182.549 104.968 182.752 105.672 182.752C106.184 182.752 106.616 182.64 106.968 182.416C107.32 182.192 107.619 181.888 107.864 181.504L108.888 182.512C108.579 183.024 108.131 183.435 107.544 183.744C106.958 184.043 106.275 184.192 105.496 184.192ZM105.496 176.848C105.198 176.848 104.92 176.901 104.664 177.008C104.419 177.115 104.206 177.264 104.024 177.456C103.854 177.648 103.72 177.877 103.624 178.144C103.528 178.411 103.48 178.704 103.48 179.024V179.136H107.352V178.976C107.352 178.336 107.187 177.824 106.856 177.44C106.526 177.045 106.072 176.848 105.496 176.848ZM114.339 184.192C113.742 184.192 113.208 184.091 112.739 183.888C112.27 183.685 111.875 183.397 111.555 183.024C111.235 182.64 110.99 182.181 110.819 181.648C110.648 181.104 110.563 180.501 110.563 179.84C110.563 179.179 110.648 178.581 110.819 178.048C110.99 177.504 111.235 177.045 111.555 176.672C111.875 176.288 112.27 175.995 112.739 175.792C113.208 175.589 113.742 175.488 114.339 175.488C115.171 175.488 115.854 175.675 116.387 176.048C116.92 176.421 117.31 176.917 117.555 177.536L116.115 178.208C115.998 177.824 115.79 177.52 115.491 177.296C115.203 177.061 114.819 176.944 114.339 176.944C113.699 176.944 113.214 177.147 112.883 177.552C112.563 177.947 112.403 178.464 112.403 179.104V180.592C112.403 181.232 112.563 181.755 112.883 182.16C113.214 182.555 113.699 182.752 114.339 182.752C114.851 182.752 115.256 182.629 115.555 182.384C115.864 182.128 116.11 181.792 116.291 181.376L117.619 182.08C117.342 182.763 116.926 183.285 116.371 183.648C115.816 184.011 115.139 184.192 114.339 184.192ZM122.45 184.192C121.852 184.192 121.319 184.091 120.85 183.888C120.38 183.685 119.98 183.397 119.65 183.024C119.319 182.64 119.063 182.181 118.882 181.648C118.711 181.104 118.626 180.501 118.626 179.84C118.626 179.179 118.711 178.581 118.882 178.048C119.063 177.504 119.319 177.045 119.65 176.672C119.98 176.288 120.38 175.995 120.85 175.792C121.319 175.589 121.852 175.488 122.45 175.488C123.058 175.488 123.591 175.595 124.05 175.808C124.519 176.021 124.908 176.32 125.218 176.704C125.527 177.077 125.756 177.515 125.906 178.016C126.066 178.517 126.146 179.056 126.146 179.632V180.288H120.434V180.56C120.434 181.2 120.62 181.728 120.994 182.144C121.378 182.549 121.922 182.752 122.626 182.752C123.138 182.752 123.57 182.64 123.922 182.416C124.274 182.192 124.572 181.888 124.818 181.504L125.842 182.512C125.532 183.024 125.084 183.435 124.498 183.744C123.911 184.043 123.228 184.192 122.45 184.192ZM122.45 176.848C122.151 176.848 121.874 176.901 121.618 177.008C121.372 177.115 121.159 177.264 120.978 177.456C120.807 177.648 120.674 177.877 120.578 178.144C120.482 178.411 120.434 178.704 120.434 179.024V179.136H124.306V178.976C124.306 178.336 124.14 177.824 123.81 177.44C123.479 177.045 123.026 176.848 122.45 176.848ZM128.076 184V175.68H129.82V177.056H129.9C129.985 176.843 130.087 176.64 130.204 176.448C130.332 176.256 130.481 176.091 130.652 175.952C130.833 175.803 131.041 175.691 131.276 175.616C131.521 175.531 131.804 175.488 132.124 175.488C132.689 175.488 133.191 175.627 133.628 175.904C134.065 176.181 134.385 176.608 134.588 177.184H134.636C134.785 176.715 135.073 176.315 135.5 175.984C135.927 175.653 136.476 175.488 137.148 175.488C137.98 175.488 138.625 175.771 139.084 176.336C139.543 176.891 139.772 177.685 139.772 178.72V184H138.028V178.928C138.028 178.288 137.905 177.808 137.66 177.488C137.415 177.157 137.025 176.992 136.492 176.992C136.268 176.992 136.055 177.024 135.852 177.088C135.649 177.141 135.468 177.227 135.308 177.344C135.159 177.461 135.036 177.611 134.94 177.792C134.844 177.973 134.796 178.181 134.796 178.416V184H133.052V178.928C133.052 177.637 132.545 176.992 131.532 176.992C131.319 176.992 131.105 177.024 130.892 177.088C130.689 177.141 130.508 177.227 130.348 177.344C130.188 177.461 130.06 177.611 129.964 177.792C129.868 177.973 129.82 178.181 129.82 178.416V184H128.076ZM142.186 172.16H143.93V177.056H144.01C144.191 176.555 144.484 176.171 144.89 175.904C145.306 175.627 145.791 175.488 146.346 175.488C147.402 175.488 148.218 175.872 148.794 176.64C149.37 177.397 149.658 178.464 149.658 179.84C149.658 181.216 149.37 182.288 148.794 183.056C148.218 183.813 147.402 184.192 146.346 184.192C145.791 184.192 145.306 184.053 144.89 183.776C144.484 183.499 144.191 183.115 144.01 182.624H143.93V184H142.186V172.16ZM145.818 182.688C146.426 182.688 146.911 182.496 147.274 182.112C147.636 181.717 147.818 181.2 147.818 180.56V179.12C147.818 178.48 147.636 177.968 147.274 177.584C146.911 177.189 146.426 176.992 145.818 176.992C145.284 176.992 144.836 177.125 144.474 177.392C144.111 177.648 143.93 177.989 143.93 178.416V181.264C143.93 181.691 144.111 182.037 144.474 182.304C144.836 182.56 145.284 182.688 145.818 182.688ZM154.918 184.192C154.321 184.192 153.788 184.091 153.318 183.888C152.849 183.685 152.449 183.397 152.118 183.024C151.788 182.64 151.532 182.181 151.35 181.648C151.18 181.104 151.094 180.501 151.094 179.84C151.094 179.179 151.18 178.581 151.35 178.048C151.532 177.504 151.788 177.045 152.118 176.672C152.449 176.288 152.849 175.995 153.318 175.792C153.788 175.589 154.321 175.488 154.918 175.488C155.526 175.488 156.06 175.595 156.518 175.808C156.988 176.021 157.377 176.32 157.686 176.704C157.996 177.077 158.225 177.515 158.374 178.016C158.534 178.517 158.614 179.056 158.614 179.632V180.288H152.902V180.56C152.902 181.2 153.089 181.728 153.462 182.144C153.846 182.549 154.39 182.752 155.094 182.752C155.606 182.752 156.038 182.64 156.39 182.416C156.742 182.192 157.041 181.888 157.286 181.504L158.31 182.512C158.001 183.024 157.553 183.435 156.966 183.744C156.38 184.043 155.697 184.192 154.918 184.192ZM154.918 176.848C154.62 176.848 154.342 176.901 154.086 177.008C153.841 177.115 153.628 177.264 153.446 177.456C153.276 177.648 153.142 177.877 153.046 178.144C152.95 178.411 152.902 178.704 152.902 179.024V179.136H156.774V178.976C156.774 178.336 156.609 177.824 156.278 177.44C155.948 177.045 155.494 176.848 154.918 176.848ZM160.545 184V175.68H162.289V177.28H162.369C162.486 176.853 162.732 176.48 163.105 176.16C163.478 175.84 163.996 175.68 164.657 175.68H165.121V177.36H164.433C163.74 177.36 163.206 177.472 162.833 177.696C162.47 177.92 162.289 178.251 162.289 178.688V184H160.545ZM166.461 181.776C166.855 181.776 167.149 181.877 167.341 182.08C167.533 182.283 167.629 182.544 167.629 182.864V183.12C167.629 183.643 167.485 184.187 167.197 184.752C166.919 185.328 166.541 185.813 166.061 186.208H164.765C165.106 185.867 165.389 185.536 165.613 185.216C165.837 184.896 166.007 184.539 166.125 184.144C165.847 184.091 165.639 183.973 165.501 183.792C165.362 183.6 165.293 183.376 165.293 183.12V182.864C165.293 182.544 165.389 182.283 165.581 182.08C165.773 181.877 166.066 181.776 166.461 181.776ZM181.219 184H173.635V182.272L177.203 179.088C177.768 178.576 178.2 178.091 178.499 177.632C178.808 177.163 178.963 176.672 178.963 176.16V175.952C178.963 175.408 178.797 174.981 178.467 174.672C178.147 174.363 177.709 174.208 177.155 174.208C176.845 174.208 176.573 174.256 176.339 174.352C176.115 174.437 175.917 174.56 175.747 174.72C175.576 174.88 175.432 175.067 175.315 175.28C175.208 175.493 175.123 175.723 175.059 175.968L173.475 175.36C173.592 175.008 173.752 174.672 173.955 174.352C174.157 174.021 174.413 173.728 174.723 173.472C175.032 173.216 175.395 173.013 175.811 172.864C176.237 172.715 176.733 172.64 177.299 172.64C177.864 172.64 178.371 172.725 178.819 172.896C179.267 173.056 179.64 173.285 179.939 173.584C180.248 173.872 180.483 174.219 180.642 174.624C180.803 175.029 180.883 175.472 180.883 175.952C180.883 176.4 180.813 176.816 180.675 177.2C180.536 177.584 180.344 177.947 180.099 178.288C179.853 178.629 179.565 178.955 179.235 179.264C178.915 179.573 178.573 179.888 178.211 180.208L175.587 182.464H181.219V184ZM186.956 184.192C186.263 184.192 185.66 184.064 185.148 183.808C184.636 183.541 184.215 183.163 183.884 182.672C183.554 182.181 183.308 181.579 183.148 180.864C182.988 180.149 182.908 179.333 182.908 178.416C182.908 177.509 182.988 176.699 183.148 175.984C183.308 175.259 183.554 174.651 183.884 174.16C184.215 173.669 184.636 173.296 185.148 173.04C185.66 172.773 186.263 172.64 186.956 172.64C188.343 172.64 189.362 173.147 190.012 174.16C190.674 175.173 191.004 176.592 191.004 178.416C191.004 180.24 190.674 181.659 190.012 182.672C189.362 183.685 188.343 184.192 186.956 184.192ZM186.956 182.656C187.34 182.656 187.666 182.581 187.932 182.432C188.21 182.272 188.434 182.048 188.604 181.76C188.775 181.472 188.898 181.131 188.972 180.736C189.047 180.331 189.084 179.883 189.084 179.392V177.44C189.084 176.949 189.047 176.507 188.972 176.112C188.898 175.707 188.775 175.36 188.604 175.072C188.434 174.784 188.21 174.565 187.932 174.416C187.666 174.256 187.34 174.176 186.956 174.176C186.572 174.176 186.242 174.256 185.964 174.416C185.698 174.565 185.479 174.784 185.308 175.072C185.138 175.36 185.015 175.707 184.94 176.112C184.866 176.507 184.828 176.949 184.828 177.44V179.392C184.828 179.883 184.866 180.331 184.94 180.736C185.015 181.131 185.138 181.472 185.308 181.76C185.479 182.048 185.698 182.272 185.964 182.432C186.242 182.581 186.572 182.656 186.956 182.656ZM200.406 184H192.822V182.272L196.39 179.088C196.955 178.576 197.387 178.091 197.686 177.632C197.995 177.163 198.15 176.672 198.15 176.16V175.952C198.15 175.408 197.985 174.981 197.654 174.672C197.334 174.363 196.897 174.208 196.342 174.208C196.033 174.208 195.761 174.256 195.526 174.352C195.302 174.437 195.105 174.56 194.934 174.72C194.763 174.88 194.619 175.067 194.502 175.28C194.395 175.493 194.31 175.723 194.246 175.968L192.662 175.36C192.779 175.008 192.939 174.672 193.142 174.352C193.345 174.021 193.601 173.728 193.91 173.472C194.219 173.216 194.582 173.013 194.998 172.864C195.425 172.715 195.921 172.64 196.486 172.64C197.051 172.64 197.558 172.725 198.006 172.896C198.454 173.056 198.827 173.285 199.126 173.584C199.435 173.872 199.67 174.219 199.83 174.624C199.99 175.029 200.07 175.472 200.07 175.952C200.07 176.4 200.001 176.816 199.862 177.2C199.723 177.584 199.531 177.947 199.286 178.288C199.041 178.629 198.753 178.955 198.422 179.264C198.102 179.573 197.761 179.888 197.398 180.208L194.774 182.464H200.406V184ZM210 184H202.416V182.272L205.984 179.088C206.549 178.576 206.981 178.091 207.28 177.632C207.589 177.163 207.744 176.672 207.744 176.16V175.952C207.744 175.408 207.578 174.981 207.248 174.672C206.928 174.363 206.49 174.208 205.936 174.208C205.626 174.208 205.354 174.256 205.12 174.352C204.896 174.437 204.698 174.56 204.528 174.72C204.357 174.88 204.213 175.067 204.096 175.28C203.989 175.493 203.904 175.723 203.84 175.968L202.256 175.36C202.373 175.008 202.533 174.672 202.736 174.352C202.938 174.021 203.194 173.728 203.504 173.472C203.813 173.216 204.176 173.013 204.592 172.864C205.018 172.715 205.514 172.64 206.08 172.64C206.645 172.64 207.152 172.725 207.6 172.896C208.048 173.056 208.421 173.285 208.72 173.584C209.029 173.872 209.264 174.219 209.424 174.624C209.584 175.029 209.664 175.472 209.664 175.952C209.664 176.4 209.594 176.816 209.456 177.2C209.317 177.584 209.125 177.947 208.88 178.288C208.634 178.629 208.346 178.955 208.016 179.264C207.696 179.573 207.354 179.888 206.992 180.208L204.368 182.464H210V184Z" fill="white"/>
<circle cx="207" cy="73" r="3" fill="#1A1A1A"/>
<circle cx="64" cy="190" r="3" fill="#1A1A1A"/>
<defs>
<filter id="filter0_f_10560_19118" x="0" y="0" width="300" height="300" filterUnits="userSpaceOnUse" color-interpolation-filters="sRGB">
<feFlood flood-opacity="0" result="BackgroundImageFix"/>
<feBlend mode="normal" in="SourceGraphic" in2="BackgroundImageFix" result="shape"/>
<feGaussianBlur stdDeviation="20" result="effect1_foregroundBlur_10560_19118"/>
</filter>
<clipPath id="clip0_10560_19118">
<rect width="204" height="204" fill="white" transform="translate(48 48)"/>
</clipPath>
</defs>
</svg>
