<svg width="14" height="14" viewBox="0 0 36 36" fill="none" xmlns="http://www.w3.org/2000/svg">
<g clip-path="url(#clip0_25971_3595)">
<mask id="mask0_25971_3595" style="mask-type:luminance" maskUnits="userSpaceOnUse" x="0" y="0" width="36" height="36">
<path d="M36 0H0V36H36V0Z" fill="white"/>
</mask>
<g mask="url(#mask0_25971_3595)">
<path fill-rule="evenodd" clip-rule="evenodd" d="M36 18C36 8.05886 27.9412 0 18 0C8.05886 0 0 8.05886 0 18C0 27.9412 8.05886 36 18 36C27.9412 36 36 27.9412 36 18ZM16.5246 27.4059C16.6597 26.9503 17.1346 26.6831 17.5962 26.8075C17.7138 26.8392 17.8236 26.895 17.9184 26.9713C18.0133 27.0477 18.0912 27.143 18.1472 27.2511L18.1734 27.3801L18.2148 27.5868L18.2431 27.7303L18.2396 27.7637C18.2354 27.797 18.2293 27.8305 18.2212 27.8637L18.2156 27.8852L17.0204 32.3149L17.0144 32.336C16.8793 32.7918 16.4045 33.059 15.943 32.9343C15.4813 32.8099 15.2053 32.34 15.3179 31.8782L15.3233 31.8569L16.5186 27.4272L16.5246 27.4059ZM9.2119 22.3829C9.2266 22.335 9.24509 22.2891 9.26688 22.2457C9.71203 22.6356 10.2215 22.9824 10.7892 23.283L9.70535 27.2995L9.69944 27.3207C9.56431 27.7765 9.08941 28.0436 8.62788 27.9191C8.16629 27.7945 7.8903 27.3247 8.0028 26.8629L8.0083 26.8415L9.2036 22.4118L9.2119 22.3829ZM5.34492 17.75C5.47999 17.2943 5.95488 17.0271 6.41648 17.1517C6.87809 17.2763 7.15399 17.7461 7.04149 18.2078L7.03601 18.2292L5.8407 22.6589L5.83478 22.6801C5.69965 23.1359 5.22476 23.403 4.76323 23.2784C4.30163 23.1539 4.02565 22.6841 4.13815 22.2223L4.14364 22.2009L5.33894 17.7713L5.34492 17.75ZM32.1468 16.7441C32.2818 16.2883 32.7568 16.0212 33.2184 16.1457C33.6799 16.2703 33.9558 16.7401 33.8434 17.2019L33.8378 17.2232L32.6425 21.6529L32.6366 21.6741C32.5015 22.1299 32.0267 22.397 31.565 22.2725C31.1035 22.1479 30.8275 21.6781 30.94 21.2163L30.9455 21.195L32.1408 16.7653L32.1468 16.7441ZM1.93652 16.1197C2.17492 14.0537 2.81233 12.0535 3.81337 10.2305C3.88348 10.2325 3.95316 10.2428 4.02086 10.2611C4.48247 10.3856 4.75844 10.8554 4.64594 11.3172L4.64046 11.3386L3.44515 15.7683L3.43918 15.7895C3.3041 16.2452 2.82922 16.5125 2.36761 16.3878C2.20057 16.343 2.05056 16.2497 1.93652 16.1197ZM29.1192 10.8594C29.2543 10.4037 29.7293 10.1365 30.1908 10.2611C30.6523 10.3856 30.9283 10.8554 30.8159 11.3172L30.8104 11.3386L29.615 15.7683L29.6092 15.7895C29.474 16.2452 28.9991 16.5125 28.5376 16.3878C28.0759 16.2633 27.8 15.7934 27.9125 15.3317L27.918 15.3103L29.1133 10.8806L29.1192 10.8594ZM9.01576 6.04868C8.55423 5.92408 8.07933 6.19127 7.9442 6.64705L7.93828 6.6682L6.74297 11.0979L6.73749 11.1193C6.62499 11.5811 6.90097 12.0509 7.36257 12.1755C7.8241 12.3 8.29899 12.0328 8.43413 11.5771L8.44004 11.5559L9.63535 7.12622L9.64083 7.10485C9.75333 6.64304 9.47735 6.1732 9.01576 6.04868ZM24.3743 6.88604C23.9126 6.76144 23.4378 7.02862 23.3027 7.48439L23.2967 7.50555L22.4935 10.4819C23.0138 10.7389 23.5104 11.0414 23.9774 11.386L24.0547 11.4436L24.9938 7.96357L24.9992 7.94219C25.1118 7.48039 24.8359 7.01055 24.3743 6.88604ZM16.5565 1.8916C15.9959 1.94115 15.438 2.01995 14.8855 2.1277L14.7683 2.15105L13.6542 6.28093L13.6487 6.3023C13.5362 6.76411 13.8122 7.23394 14.2737 7.35847C14.7354 7.48305 15.2102 7.21587 15.3453 6.7601L15.3512 6.73894L16.5465 2.30925L16.5521 2.28788C16.5839 2.15787 16.5854 2.02229 16.5565 1.8916ZM27.5555 4.95146L27.3206 5.82193L27.3151 5.84323C27.2027 6.30505 27.4787 6.77487 27.9402 6.89939C28.4017 7.02399 28.8767 6.7568 29.0118 6.30104L29.0177 6.27987L29.0433 6.18544C28.6038 5.77436 28.1417 5.38801 27.6593 5.02816L27.5555 4.95146ZM20.601 2.03602L20.177 3.60701L20.1716 3.62839C20.0591 4.09019 20.3351 4.56003 20.7967 4.68455C21.2582 4.80914 21.7331 4.54196 21.8683 4.08619L21.8742 4.06503L22.3203 2.41149C21.7952 2.2663 21.2631 2.14791 20.726 2.05676L20.601 2.03602ZM12.7006 28.9519C12.239 28.8275 11.7641 29.0946 11.629 29.5504L11.623 29.5715L10.8325 32.5007C11.3252 32.7448 11.83 32.9633 12.3451 33.1556L12.4646 33.1997L13.3201 30.0295L13.3256 30.0082C13.4381 29.5463 13.1622 29.0764 12.7006 28.9519ZM17.2971 10.189C12.0628 10.189 7.99121 13.4841 7.99121 17.582C7.99121 21.4523 11.7377 23.9234 17.5455 23.7997C18.0394 23.7891 18.1822 24.1209 18.3429 24.5681C18.478 24.9436 18.8044 26.6661 19.1094 28.276L19.1094 28.2762L19.1097 28.2776C19.1677 28.5839 19.225 28.886 19.28 29.174L19.3244 29.4066L19.3244 29.4066C19.6181 30.9428 19.9127 32.4843 20.1403 34.0315C23.9329 33.5301 27.4398 31.6568 30.0093 28.8313L27.2686 18.6105C26.5855 16.1421 25.787 13.8677 23.6742 12.2153C21.9744 10.886 19.8148 10.189 17.2971 10.189ZM19.5469 14.2734C19.5469 13.6521 19.0432 13.1484 18.4219 13.1484C17.8005 13.1484 17.2969 13.6521 17.2969 14.2734C17.2969 14.8948 17.8005 15.3984 18.4219 15.3984C19.0432 15.3984 19.5469 14.8948 19.5469 14.2734Z" fill="#C9CBCF"/>
</g>
</g>
<defs>
<clipPath id="clip0_25971_3595">
<rect width="36" height="36" fill="white"/>
</clipPath>
</defs>
</svg>
