<svg width="36" height="36" viewBox="0 0 36 36" fill="none" xmlns="http://www.w3.org/2000/svg">
<g clip-path="url(#clip0_26637_1682)">
<path d="M8.33789 17.3891C8.75673 16.6582 8.50009 15.7327 7.76468 15.3219C7.02927 14.9111 6.09357 15.1706 5.67474 15.9015L0.758225 24.4807C0.339389 25.2116 0.596023 26.1371 1.33143 26.5479C2.06684 26.9587 3.00255 26.6992 3.42138 25.9684L8.33789 17.3891Z" fill="#C9CBCF"/>
<path d="M18.9351 10.811C19.3539 10.0801 19.0973 9.15461 18.3619 8.74381C17.6264 8.33302 16.6907 8.59248 16.2719 9.32335L11.3554 17.9026C10.9366 18.6335 11.1932 19.559 11.9286 19.9698C12.664 20.3806 13.5997 20.1211 14.0186 19.3902L18.9351 10.811Z" fill="#C9CBCF"/>
<path d="M35.2417 10.811C35.6605 10.0801 35.4039 9.15461 34.6685 8.74381C33.9331 8.33302 32.9974 8.59248 32.5785 9.32335L27.662 17.9026C27.2432 18.6335 27.4998 19.559 28.2352 19.9698C28.9707 20.3806 29.9064 20.1211 30.3252 19.3902L35.2417 10.811Z" fill="#C9CBCF"/>
<path d="M24.6416 17.3891C25.0604 16.6582 24.8038 15.7327 24.0684 15.3219C23.333 14.9111 22.3973 15.1706 21.9784 15.9015L17.0619 24.4807C16.6431 25.2116 16.8997 26.1371 17.6351 26.5479C18.3706 26.9587 19.3063 26.6992 19.7251 25.9684L24.6416 17.3891Z" fill="#C9CBCF"/>
</g>
<defs>
<clipPath id="clip0_26637_1682">
<rect width="36" height="36" fill="white"/>
</clipPath>
</defs>
</svg>
