<svg width="30" height="14" viewBox="0 0 30 14" fill="none" xmlns="http://www.w3.org/2000/svg">
<path fill-rule="evenodd" clip-rule="evenodd" d="M18.709 4.61422C18.2065 4.74183 17.7928 4.85169 17.3716 4.96355C17.0356 5.05275 16.6949 5.14323 16.3006 5.24499L16.2769 5.25133C16.0842 5.30309 16.0642 5.30848 15.8849 5.10163C15.6699 4.85793 15.5122 4.70024 15.2111 4.55688C14.308 4.11248 13.4335 4.2415 12.6164 4.77191C11.6416 5.40268 11.1398 6.33449 11.1542 7.49566C11.1685 8.6425 11.957 9.58865 13.0895 9.74634C14.0643 9.87536 14.8814 9.5313 15.5265 8.80019C15.6222 8.68325 15.71 8.55841 15.8074 8.41985L15.8074 8.41984L15.8075 8.41983C15.8414 8.37156 15.8765 8.32163 15.9136 8.26978H13.1468C12.8458 8.26978 12.7741 8.08342 12.8744 7.83971C13.0608 7.39531 13.4048 6.64987 13.6055 6.27714C13.6485 6.19113 13.7489 6.04777 13.9639 6.04777H18.5774C18.7846 5.39118 19.1208 4.77077 19.5693 4.18374C20.6158 2.80753 21.8773 2.09075 23.5832 1.78971C25.0455 1.53167 26.4217 1.67502 27.6689 2.52082C28.8014 3.29494 29.5038 4.34143 29.6902 5.71764C29.9339 7.65293 29.3748 9.22984 28.0416 10.5774C27.0954 11.5379 25.9343 12.1399 24.6011 12.4123C24.3468 12.4594 24.0924 12.4818 23.8422 12.5037C23.7116 12.5152 23.5821 12.5266 23.4542 12.5413C22.1497 12.5127 20.9599 12.1399 19.9564 11.2798C19.2506 10.6697 18.7644 9.91993 18.5229 9.04703C18.3552 9.38574 18.1546 9.71012 17.9205 10.0187C16.8884 11.3806 15.5408 12.2264 13.8349 12.4557C12.43 12.6421 11.1255 12.3697 9.97866 11.5096C8.91784 10.7068 8.31574 9.64599 8.15805 8.32712C7.97169 6.76455 8.43043 5.35967 9.37657 4.12682C10.3944 2.79361 11.7419 1.94782 13.3905 1.64677C14.738 1.40307 16.0282 1.56076 17.1894 2.34921C17.9492 2.85096 18.4939 3.53906 18.8523 4.37052C18.9383 4.49954 18.881 4.57122 18.709 4.61422ZM2.52609 4.8727C2.46875 4.8727 2.45441 4.84403 2.48309 4.80102L2.78413 4.41396C2.8128 4.37096 2.88448 4.34229 2.94182 4.34229H8.05959C8.11693 4.34229 8.13127 4.38529 8.1026 4.4283L7.8589 4.80102C7.83022 4.84403 7.75855 4.88703 7.71554 4.88703L2.52609 4.8727ZM0.362029 6.19097C0.304688 6.19097 0.290352 6.1623 0.319023 6.1193L0.620068 5.73224C0.648739 5.68923 0.720417 5.66056 0.777759 5.66056H7.31474C7.37209 5.66056 7.40076 5.70357 7.38642 5.74657L7.27174 6.09063C7.2574 6.14797 7.20006 6.17664 7.14272 6.17664L0.362029 6.19097ZM3.78777 7.42389C3.7591 7.4669 3.77344 7.50991 3.83078 7.50991L6.95592 7.52424C6.99892 7.52424 7.05627 7.48124 7.05627 7.42389L7.08494 7.07984C7.08494 7.0225 7.05627 6.97949 6.99892 6.97949H4.13182C4.07448 6.97949 4.01714 7.0225 3.98847 7.06551L3.78777 7.42389ZM26.8561 6.59648C26.8589 6.64463 26.8619 6.69538 26.8661 6.74979C26.7944 7.98265 26.178 8.90012 25.0455 9.48788C24.2857 9.87494 23.4972 9.91794 22.7088 9.57389C21.6766 9.11515 21.1319 7.98265 21.3899 6.86448C21.7053 5.51694 22.5654 4.67115 23.8986 4.3701C25.2605 4.05472 26.565 4.85751 26.8231 6.27672C26.8434 6.37822 26.8493 6.47972 26.8561 6.59648Z" fill="#C9CBCF"/>
</svg>
