<svg width="11" height="14" viewBox="0 0 11 14" fill="none" xmlns="http://www.w3.org/2000/svg">
<g clip-path="url(#clip0_5447_39790)">
<path fill-rule="evenodd" clip-rule="evenodd" d="M6.55185 0C6.55185 0 8.0085 1.45665 5.17613 3.68208C3.4403 5.07694 4.07904 5.99689 4.69117 6.8785C4.8781 7.14772 5.06254 7.41336 5.17613 7.68786C3.88133 6.47399 2.91023 5.42197 3.55763 4.45087C3.86571 3.98205 4.36447 3.58861 4.87188 3.18835C5.89721 2.37953 6.95786 1.54285 6.55185 0ZM5.82853 6.71649C6.51639 7.48528 5.66668 8.17314 5.66668 8.17314C5.66668 8.17314 7.3661 7.28296 6.55685 6.19048C6.52087 6.13851 6.4853 6.08793 6.45053 6.03851L6.4505 6.03846C5.78144 5.08731 5.41399 4.56494 8.3372 2.87256C8.3372 2.87256 3.52217 4.04597 5.82853 6.71649ZM3.35574 10.8033C3.35574 10.8033 2.78927 11.127 3.7199 11.2483C4.81239 11.3697 5.37886 11.3293 6.59274 11.127C6.59274 11.127 6.91644 11.3293 7.36152 11.4911C4.65054 12.6645 1.17077 11.4102 3.35574 10.8033ZM2.99158 9.30615C2.99158 9.30615 2.38464 9.75124 3.31528 9.83216C4.48869 9.95355 5.41933 9.95355 7.03782 9.67031C7.03782 9.67031 7.2806 9.87263 7.64476 9.99401C4.32684 10.9651 0.64476 10.0749 2.99158 9.30615ZM9.02045 12.5429C9.8297 12.2597 9.42507 11.936 9.42507 11.936C10.8817 12.6238 6.30947 13.9186 0.725652 13.0285C-1.33793 12.6643 1.69675 11.5314 2.26322 11.8955L1.77767 11.9764C1.49444 12.0169 0.563802 12.3406 1.04935 12.5429C2.42507 13.1499 7.44241 13.0285 9.02045 12.5429ZM2.70831 8.53714C1.04935 8.29436 3.59848 7.68743 3.59848 7.68743C3.59848 7.68743 2.62739 7.64696 1.41351 8.21344C-0.0431346 8.9013 4.93374 9.225 7.52334 8.5776L8.17074 8.21344C8.17074 8.21344 7.11871 8.41575 6.06669 8.49667C4.77189 8.61806 3.39617 8.61806 2.70831 8.53714ZM8.69675 7.76835C9.54646 7.56604 10.7603 8.9013 8.17074 10.2366L8.08981 10.3175C11.61 9.38685 10.3152 7.08049 8.65629 7.64696C8.49444 7.72789 8.41351 7.84928 8.41351 7.84928L8.69675 7.76835ZM10.316 12.6646C10.2351 13.838 6.3507 14.1212 3.84203 13.9593C2.18307 13.838 1.85938 13.5547 1.85938 13.5547C3.43741 13.838 6.10793 13.8784 8.25244 13.4738C10.1542 13.1096 10.316 12.6646 10.316 12.6646Z" fill="#C9CBCF"/>
</g>
<defs>
<clipPath id="clip0_5447_39790">
<rect width="11" height="14" fill="white"/>
</clipPath>
</defs>
</svg>
