<svg width="13" height="14" viewBox="0 0 13 14" fill="none" xmlns="http://www.w3.org/2000/svg">
<g clip-path="url(#clip0_5447_39801)">
<path fill-rule="evenodd" clip-rule="evenodd" d="M6.92026 0.314174C6.58189 0.119447 6.14077 0.120323 5.8021 0.314174C5.3848 0.549827 4.96749 0.785498 4.55018 1.02117C3.27131 1.74341 1.99239 2.46567 0.71331 3.18751C0.383203 3.36521 0.160553 3.72796 0.164104 4.10447V9.89176C0.161721 10.2756 0.395851 10.6419 0.734471 10.8171C0.918304 10.9172 1.10016 11.0211 1.28201 11.125C1.58218 11.2965 1.88232 11.468 2.19125 11.6222C2.7643 11.9104 3.48123 11.9741 4.06128 11.6736C4.53212 11.4245 4.74124 10.8707 4.74066 10.3616C4.74306 9.15533 4.74266 7.94901 4.74226 6.74269C4.74203 6.03902 4.7418 5.33535 4.74212 4.63169C4.75331 4.54681 4.69104 4.45608 4.60056 4.45813C4.3838 4.45462 4.16674 4.45608 3.94998 4.45754C3.86806 4.44961 3.78814 4.51923 3.79431 4.60348C3.79278 5.59748 3.79302 6.59164 3.79325 7.58583C3.79346 8.48966 3.79367 9.39352 3.79256 10.2973C3.79728 10.5599 3.62396 10.8122 3.37669 10.9009C3.09649 11.0057 2.78424 10.9244 2.52992 10.7875C2.37717 10.7013 2.22438 10.6151 2.07159 10.5289C1.77285 10.3604 1.47412 10.192 1.17564 10.0227C1.14573 10.0085 1.12088 9.98554 1.10444 9.95681C1.08801 9.92808 1.08076 9.89501 1.0837 9.86204C1.0837 9.22557 1.08373 8.5891 1.08376 7.95263C1.08383 6.67973 1.08389 5.40686 1.0837 4.13415C1.07548 4.05719 1.12183 3.98787 1.19091 3.95645C2.1316 3.42662 3.07202 2.89606 4.01247 2.36547C4.76216 1.94251 5.51187 1.51954 6.26175 1.09693C6.2911 1.07688 6.32583 1.06617 6.36137 1.06623C6.39692 1.06628 6.43162 1.07708 6.46091 1.09722C7.20768 1.51795 7.95433 1.93892 8.701 2.3599C9.64467 2.89195 10.5884 3.42401 11.5323 3.95562C11.6017 3.987 11.646 4.05748 11.639 4.13415C11.6389 4.82836 11.6389 5.52261 11.639 6.21688C11.639 7.43186 11.6391 8.64687 11.6384 9.86175C11.6434 9.92932 11.6093 9.99479 11.5476 10.0245C10.6767 10.5169 9.80521 11.0083 8.93368 11.4997C8.13922 11.9476 7.34476 12.3956 6.55075 12.8443C6.54051 12.85 6.53003 12.8562 6.51934 12.8625C6.44693 12.905 6.36492 12.9532 6.28379 12.9063C6.03378 12.7648 5.78552 12.6202 5.53728 12.4755C5.35215 12.3676 5.16703 12.2598 4.98121 12.1532C4.93393 12.123 4.8737 12.1101 4.82438 12.1438C4.81256 12.1502 4.80075 12.1566 4.78893 12.163C4.60562 12.262 4.42143 12.3615 4.22195 12.4249C4.19659 12.4352 4.16964 12.4435 4.14254 12.4518C4.06894 12.4745 3.9942 12.4975 3.94677 12.5615C4.00485 12.6412 4.09034 12.6887 4.17499 12.7358C4.19733 12.7482 4.21961 12.7606 4.24131 12.7736C4.47315 12.9078 4.70516 13.0418 4.93717 13.1758C5.21429 13.3359 5.49142 13.496 5.76829 13.6565C6.10317 13.8703 6.55314 13.8855 6.89881 13.6879C7.70277 13.2346 8.50661 12.781 9.31046 12.3273C10.2028 11.8238 11.0952 11.3202 11.9879 10.8169C12.3256 10.6407 12.5609 10.2759 12.5586 9.89172V4.10447C12.5618 3.7356 12.3477 3.37932 12.0275 3.19899C11.0308 2.63535 10.0338 2.07242 9.03677 1.50949C8.33124 1.11114 7.62571 0.712787 6.92026 0.314174ZM9.46691 4.65984C8.8011 4.29534 8.009 4.27593 7.26911 4.32355C6.73459 4.3776 6.1724 4.52854 5.78295 4.92062C5.38352 5.3148 5.29659 5.95127 5.48631 6.46584C5.62227 6.82942 5.96449 7.06588 6.31838 7.19095C6.77428 7.35563 7.25308 7.40655 7.73204 7.45749C8.1689 7.50395 8.6059 7.55042 9.02579 7.68324C9.19731 7.74142 9.39705 7.8304 9.44959 8.02133C9.49809 8.24748 9.44492 8.51036 9.26547 8.66748C8.94298 8.92867 8.50566 8.94725 8.10592 8.96423C8.08405 8.96516 8.06229 8.96608 8.04067 8.96704C7.99843 8.96638 7.95585 8.9659 7.91302 8.96543C7.44579 8.96024 6.94939 8.95472 6.54692 8.69507C6.31926 8.54028 6.22114 8.26626 6.18125 8.00518C6.17683 7.92379 6.11281 7.84917 6.02646 7.85535C5.81028 7.85272 5.5941 7.85331 5.37792 7.85506C5.30247 7.84859 5.22406 7.90351 5.21992 7.98227C5.20261 8.44863 5.37705 8.93182 5.7342 9.24194C6.15187 9.61057 6.71489 9.75271 7.25593 9.8144C7.8313 9.87048 8.41928 9.86727 8.98585 9.74094C9.41174 9.6417 9.83875 9.45899 10.1319 9.12329C10.4935 8.71535 10.5645 8.10797 10.4024 7.59982C10.2785 7.22067 9.92422 6.97745 9.56211 6.85233C9.06969 6.67955 8.555 6.61139 8.04009 6.54321C7.6404 6.49028 7.24057 6.43734 6.8509 6.33543C6.84429 6.33334 6.83762 6.33125 6.8309 6.32915C6.68018 6.28196 6.50399 6.22681 6.43795 6.06992C6.36479 5.84168 6.42706 5.55827 6.63205 5.41788C6.89906 5.23254 7.23798 5.20525 7.55315 5.18851C7.56442 5.18841 7.57572 5.18829 7.58703 5.18818C8.00881 5.184 8.45428 5.17958 8.83987 5.37264C9.09779 5.50481 9.24722 5.7762 9.30891 6.05022C9.32034 6.13073 9.37326 6.21469 9.46433 6.21119C9.61121 6.21418 9.75811 6.21362 9.90501 6.21307C9.97281 6.21281 10.0406 6.21255 10.1084 6.21265C10.1821 6.21795 10.2629 6.17533 10.2773 6.09809C10.2682 5.52538 9.9824 4.93916 9.46691 4.65984Z" fill="#C9CBCF"/>
</g>
<defs>
<clipPath id="clip0_5447_39801">
<rect width="13" height="14" fill="white"/>
</clipPath>
</defs>
</svg>
