<svg width="12" height="14" viewBox="0 0 12 14" fill="none" xmlns="http://www.w3.org/2000/svg">
<g clip-path="url(#clip0_5447_39814)">
<path d="M11.7039 10.6364L6.90263 0.440312C6.84296 0.314855 6.75049 0.207861 6.63501 0.130651C6.51952 0.0534415 6.3853 0.0088879 6.24657 0.00170525C6.10757 -0.00760958 5.96868 0.0213652 5.845 0.0854786C5.72132 0.149592 5.61758 0.246389 5.54508 0.365344L0.337665 8.79962C0.258484 8.92697 0.217248 9.07426 0.218792 9.22421C0.220336 9.37416 0.264595 9.52057 0.346381 9.64626L2.8923 13.5889C2.98862 13.7369 3.13021 13.8498 3.29594 13.9107C3.46167 13.9717 3.64266 13.9774 3.81192 13.9271L11.2003 11.7417C11.3115 11.7091 11.4145 11.6531 11.5022 11.5774C11.5899 11.5016 11.6604 11.4079 11.7088 11.3026C11.7565 11.1978 11.7808 11.0839 11.78 10.9688C11.7792 10.8537 11.7534 10.7401 11.7042 10.636L11.7039 10.6364ZM10.6289 11.0737L4.3595 12.9275C4.16825 12.9844 3.98467 12.8187 4.02445 12.6256L6.26436 1.90056C6.30623 1.69991 6.58334 1.66811 6.67095 1.85381L10.8174 10.659C10.8357 10.6983 10.8453 10.741 10.8455 10.7843C10.8457 10.8276 10.8366 10.8705 10.8186 10.9099C10.8007 10.9493 10.7744 10.9843 10.7416 11.0126C10.7088 11.0409 10.6702 11.0617 10.6286 11.0736L10.6289 11.0737Z" fill="#C9CBCF"/>
</g>
<defs>
<clipPath id="clip0_5447_39814">
<rect width="12" height="14" fill="white"/>
</clipPath>
</defs>
</svg>
