<svg width="14" height="14" viewBox="0 0 14 14" fill="none" xmlns="http://www.w3.org/2000/svg">
<path fill-rule="evenodd" clip-rule="evenodd" d="M3.47812 1.48203C3.47812 1.48203 3.26484 0 6.68239 0C10.2535 0 9.97752 1.7866 9.97752 1.7866V4.7393C9.97752 6.52506 8.16022 6.49561 8.16022 6.49561H4.92608C2.98636 6.49561 3.04778 8.40421 3.04778 8.40421V10.0044H1.90859C1.90859 10.0044 0 10.1264 0 6.67861C0 3.22993 2.18624 3.47813 2.18624 3.47813H6.74339V3.01749H3.48233L3.47812 1.48203ZM5.29897 1.20421C5.18892 1.09416 5.03965 1.03233 4.88401 1.03233C4.55968 1.03233 4.29718 1.29483 4.29718 1.61917C4.29706 1.69627 4.31217 1.77263 4.34162 1.84387C4.37107 1.91512 4.41429 1.97986 4.46881 2.03438C4.52332 2.08889 4.58806 2.13211 4.65931 2.16156C4.73056 2.19102 4.80692 2.20612 4.88401 2.20601C5.03965 2.20601 5.18892 2.14418 5.29897 2.03413C5.40903 1.92408 5.47085 1.77481 5.47085 1.61917C5.47085 1.46353 5.40903 1.31427 5.29897 1.20421ZM9.98872 11.9097C9.98872 11.9097 10.202 13.3918 6.78445 13.3918C3.21336 13.3918 3.48932 11.6052 3.48932 11.6052V8.65247C3.48932 6.86671 5.30663 6.89616 5.30663 6.89616H8.54076C10.4805 6.89616 10.4191 4.98756 10.4191 4.98756V3.38775H11.5583C11.5583 3.38775 13.4668 3.26533 13.4668 6.71359C13.4668 10.1618 11.2802 9.91365 11.2802 9.91365H6.72345V10.3743H9.98451L9.98872 11.9097ZM8.35813 12.315C8.42937 12.3444 8.50573 12.3596 8.58283 12.3594C8.69878 12.3594 8.8121 12.3249 8.90847 12.2604C9.00484 12.196 9.07994 12.1044 9.12427 11.9972C9.1686 11.8901 9.18018 11.7722 9.15754 11.6585C9.1349 11.5448 9.07906 11.4403 8.99707 11.3584C8.91508 11.2764 8.81063 11.2205 8.69692 11.1979C8.5832 11.1753 8.46533 11.1868 8.35819 11.2312C8.25105 11.2755 8.15946 11.3506 8.095 11.447C8.03053 11.5433 7.99607 11.6567 7.99599 11.7726C7.99588 11.8497 8.01098 11.9261 8.04044 11.9973C8.06989 12.0686 8.11311 12.1333 8.16763 12.1878C8.22214 12.2423 8.28688 12.2855 8.35813 12.315Z" fill="#C9CBCF"/>
</svg>
