<svg width="10" height="14" viewBox="0 0 10 14" fill="none" xmlns="http://www.w3.org/2000/svg">
<path d="M9.66667 11.6667V12H10V11.6667H9.66667ZM9.66667 2.33333H10V2H9.66667V2.33333ZM5.66667 2.33333V2H5.52859L5.43097 2.09763L5.66667 2.33333ZM0.333333 7.66667L0.0976313 7.43097L0 7.52859V7.66667H0.333333ZM0.333333 11.6667H0V12H0.333333V11.6667ZM3 9L2.85093 9.29813L2.86333 9.30433L2.8762 9.30947L3 9ZM3 5V4.66667C2.81591 4.66667 2.66667 4.81591 2.66667 5H3ZM7 5L7.30947 4.8762L7.30433 4.86333L7.29813 4.85093L7 5ZM10 11.6667V2.33333H9.33333V11.6667H10ZM9.66667 2H5.66667V2.66667H9.66667V2ZM5.43097 2.09763L0.0976313 7.43097L0.569035 7.90237L5.90237 2.56904L5.43097 2.09763ZM0 7.66667V11.6667H0.666667V7.66667H0ZM0.333333 12H9.66667V11.3333H0.333333V12ZM9.43093 2.09763L0.0976313 11.4309L0.569035 11.9024L9.9024 2.56904L9.43093 2.09763ZM3.33333 9V5H2.66667V9H3.33333ZM3 5.33333H7V4.66667H3V5.33333ZM2.8762 9.30947L9.54287 11.9761L9.79047 11.3572L3.1238 8.69053L2.8762 9.30947ZM6.69053 5.1238L9.3572 11.7905L9.97613 11.5429L7.30947 4.8762L6.69053 5.1238ZM5.36853 2.4824L6.70187 5.14907L7.29813 4.85093L5.96481 2.18426L5.36853 2.4824ZM0.184262 7.96481L2.85093 9.29813L3.14907 8.70187L0.482405 7.36853L0.184262 7.96481Z" fill="#C9CBCF"/>
</svg>
