<svg width="24" height="24" viewBox="0 0 24 24" fill="none" xmlns="http://www.w3.org/2000/svg">
<g clip-path="url(#clip0_540_5167)">
<path fill-rule="evenodd" clip-rule="evenodd" d="M24 12C24 18.6274 18.6274 24 12 24C5.37258 24 0 18.6274 0 12C0 5.37258 5.37258 0 12 0C18.6274 0 24 5.37258 24 12ZM23 12C23 18.0751 18.0751 23 12 23C5.92487 23 1 18.0751 1 12C1 5.92487 5.92487 1 12 1C18.0751 1 23 5.92487 23 12Z" fill="#61646B"/>
<path d="M4.60938 11.2728L5.92595 7.62138H6.85164L8.16822 11.2728H7.35564L7.08822 10.4962H5.68423L5.41681 11.2728H4.60938ZM5.90538 9.85338H6.87222L6.3888 8.44422L5.90538 9.85338ZM8.4726 7.62138H9.25434V11.2728H8.4726V7.62138ZM12.9469 9.95622C12.7977 10.8408 12.232 11.3551 11.3577 11.3551C10.2777 11.3551 9.59886 10.5374 9.59886 9.45222C9.59886 8.36706 10.2777 7.53906 11.3577 7.53906C12.196 7.53906 12.772 8.0328 12.9314 8.87622L12.1189 8.91222C12.0263 8.45454 11.7434 8.19738 11.3423 8.19738C10.6994 8.19738 10.4012 8.73738 10.4012 9.45222C10.4012 10.162 10.7046 10.6968 11.3423 10.6968C11.7692 10.6968 12.0469 10.4191 12.1292 9.92538L12.9469 9.95622ZM14.7299 7.62138C15.6042 7.62138 16.1339 8.07396 16.1339 8.81454C16.1339 9.55506 15.6042 10.0128 14.7299 10.0128H14.051V11.2728H13.2694V7.62138H14.7299ZM14.051 9.35454H14.6836C15.095 9.35454 15.3316 9.16938 15.3316 8.81454C15.3316 8.45964 15.095 8.27964 14.6836 8.27964H14.051V9.35454ZM15.8351 11.2728L17.1517 7.62138H18.0773L19.3939 11.2728H18.5813L18.3139 10.4962H16.9099L16.6425 11.2728H15.8351ZM17.1311 9.85338H18.0979L17.6145 8.44422L17.1311 9.85338ZM6.07998 15.4334C6.14682 15.8242 6.42456 16.0814 6.8823 16.0814C7.23198 16.0814 7.46856 15.9425 7.4634 15.6751C7.4583 15.4076 7.23198 15.2534 6.66114 15.1145C5.86914 14.9242 5.35999 14.6054 5.35999 14.0191C5.35999 13.3556 5.91542 12.9391 6.74856 12.9391C7.56114 12.9391 8.11656 13.438 8.20398 14.1734L7.4223 14.2145C7.38114 13.8288 7.11372 13.5871 6.72798 13.5871C6.38856 13.5871 6.14682 13.762 6.1623 14.0294C6.17256 14.338 6.53256 14.4408 6.9234 14.5385C7.74114 14.7185 8.26056 15.0682 8.26056 15.6494C8.26056 16.3436 7.64856 16.7345 6.86172 16.7345C5.97199 16.7345 5.34456 16.2408 5.29314 15.4694L6.07998 15.4334ZM10.3008 16.7551C9.18996 16.7551 8.52648 16.0248 8.52648 14.8522C8.52648 13.6694 9.18996 12.9391 10.3008 12.9391C11.4116 12.9391 12.0802 13.6694 12.0802 14.8522C12.0802 16.0248 11.4116 16.7551 10.3008 16.7551ZM9.33396 14.8522C9.33396 15.634 9.69396 16.0968 10.3008 16.0968C10.918 16.0968 11.2728 15.634 11.2728 14.8522C11.2728 14.0654 10.918 13.5974 10.3008 13.5974C9.69396 13.5974 9.33396 14.0654 9.33396 14.8522ZM15.6415 15.3562C15.4923 16.2408 14.9266 16.7551 14.0523 16.7551C12.9723 16.7551 12.2935 15.9374 12.2935 14.8522C12.2935 13.7671 12.9723 12.9391 14.0523 12.9391C14.8906 12.9391 15.4666 13.4328 15.626 14.2762L14.8135 14.3122C14.7209 13.8545 14.438 13.5974 14.0369 13.5974C13.394 13.5974 13.0957 14.1374 13.0957 14.8522C13.0957 15.562 13.3991 16.0968 14.0369 16.0968C14.4637 16.0968 14.7415 15.8191 14.8237 15.3254L15.6415 15.3562ZM15.9375 14.1836C15.9992 13.4636 16.5443 12.9391 17.3518 12.9391C18.1181 12.9391 18.6683 13.4071 18.6683 14.05C18.6683 14.6105 18.2209 14.9345 17.7221 15.2225C17.5215 15.3356 16.8838 15.7162 16.8632 16.0145H18.6786V16.6728H15.9118C15.9118 15.6031 16.5135 15.1145 17.2592 14.6928C17.6295 14.4665 17.8661 14.2762 17.8661 14.0396C17.8661 13.7825 17.6552 13.5974 17.3518 13.5974C17.0226 13.5974 16.8066 13.8236 16.7398 14.23L15.9375 14.1836Z" fill="#C9CBCF"/>
</g>
<defs>
<clipPath id="clip0_540_5167">
<rect width="24" height="24" fill="white"/>
</clipPath>
</defs>
</svg>
