<svg width="36" height="36" viewBox="0 0 36 36" fill="none" xmlns="http://www.w3.org/2000/svg">
<g clip-path="url(#clip0_18885_17967)">
<path d="M18 0.5C27.665 0.5 35.5 8.33502 35.5 18C35.5 27.665 27.665 35.5 18 35.5C8.33502 35.5 0.5 27.665 0.5 18C0.5 8.33502 8.33502 0.5 18 0.5ZM17.9912 1.96289C9.13164 1.96289 1.94922 9.14531 1.94922 18.0049C1.94939 26.8643 9.13175 34.0459 17.9912 34.0459C26.8505 34.0457 34.0321 26.8642 34.0322 18.0049C34.0322 9.14542 26.8506 1.96306 17.9912 1.96289Z" fill="#AFB1B6"/>
<path d="M7.22266 16.9392L9.14266 11.6142H10.4926L12.4126 16.9392H11.2276L10.8376 15.8067H8.79016L8.40016 16.9392H7.22266ZM9.11266 14.8692H10.5226L9.81765 12.8142L9.11266 14.8692ZM12.8565 11.6142H13.9966V16.9392H12.8565V11.6142ZM19.3815 15.0192C19.164 16.3092 18.339 17.0591 17.064 17.0591C15.489 17.0591 14.499 15.8667 14.499 14.2842C14.499 12.7016 15.489 11.4941 17.064 11.4941C18.2865 11.4941 19.1265 12.2142 19.359 13.4442L18.174 13.4967C18.039 12.8292 17.6265 12.4542 17.0415 12.4542C16.104 12.4542 15.669 13.2417 15.669 14.2842C15.669 15.3192 16.1115 16.0992 17.0415 16.0992C17.664 16.0992 18.069 15.6941 18.189 14.9742L19.3815 15.0192ZM21.9818 11.6142C23.2568 11.6142 24.0293 12.2742 24.0293 13.3542C24.0293 14.4341 23.2568 15.1017 21.9818 15.1017H20.9918V16.9392H19.8518V11.6142H21.9818ZM20.9918 14.1417H21.9143C22.5143 14.1417 22.8593 13.8717 22.8593 13.3542C22.8593 12.8367 22.5143 12.5742 21.9143 12.5742H20.9918V14.1417ZM23.5935 16.9392L25.5135 11.6142H26.8634L28.7835 16.9392H27.5984L27.2085 15.8067H25.161L24.771 16.9392H23.5935ZM25.4835 14.8692H26.8935L26.1885 12.8142L25.4835 14.8692ZM9.36729 23.0067C9.46477 23.5767 9.8698 23.9517 10.5373 23.9517C11.0473 23.9517 11.3923 23.7492 11.3848 23.3591C11.3773 22.9692 11.0473 22.7442 10.2148 22.5417C9.05981 22.2642 8.31731 21.7992 8.31731 20.9441C8.31731 19.9767 9.1273 19.3691 10.3423 19.3691C11.5273 19.3691 12.3373 20.0967 12.4648 21.1692L11.3248 21.2292C11.2648 20.6667 10.8748 20.3141 10.3123 20.3141C9.8173 20.3141 9.46477 20.5692 9.48734 20.9592C9.5023 21.4092 10.0273 21.5592 10.5973 21.7017C11.7898 21.9642 12.5473 22.4742 12.5473 23.3217C12.5473 24.3342 11.6548 24.9042 10.5073 24.9042C9.20981 24.9042 8.2948 24.1842 8.21981 23.0592L9.36729 23.0067ZM15.5227 24.9341C13.9027 24.9341 12.9351 23.8692 12.9351 22.1592C12.9351 20.4342 13.9027 19.3691 15.5227 19.3691C17.1426 19.3691 18.1176 20.4342 18.1176 22.1592C18.1176 23.8692 17.1426 24.9341 15.5227 24.9341ZM14.1127 22.1592C14.1127 23.2992 14.6377 23.9742 15.5227 23.9742C16.4227 23.9742 16.9402 23.2992 16.9402 22.1592C16.9402 21.0117 16.4227 20.3292 15.5227 20.3292C14.6377 20.3292 14.1127 21.0117 14.1127 22.1592ZM23.3111 22.8942C23.0936 24.1842 22.2686 24.9341 20.9936 24.9341C19.4186 24.9341 18.4286 23.7417 18.4286 22.1592C18.4286 20.5766 19.4186 19.3691 20.9936 19.3691C22.2161 19.3691 23.0561 20.0892 23.2886 21.3192L22.1036 21.3717C21.9686 20.7042 21.5561 20.3292 20.9711 20.3292C20.0336 20.3292 19.5986 21.1167 19.5986 22.1592C19.5986 23.1942 20.0411 23.9742 20.9711 23.9742C21.5936 23.9742 21.9986 23.5691 22.1186 22.8492L23.3111 22.8942ZM23.7428 21.1842C23.8328 20.1342 24.6278 19.3691 25.8053 19.3691C26.9229 19.3691 27.7253 20.0516 27.7253 20.9892C27.7253 21.8067 27.0728 22.2792 26.3454 22.6992C26.0528 22.8642 25.1228 23.4192 25.0928 23.8542H27.7403V24.8142H23.7053C23.7053 23.2541 24.5828 22.5417 25.6703 21.9267C26.2103 21.5967 26.5554 21.3192 26.5554 20.9742C26.5554 20.5992 26.2478 20.3292 25.8053 20.3292C25.3253 20.3292 25.0103 20.6592 24.9128 21.2517L23.7428 21.1842Z" fill="#AFB1B6"/>
</g>
<defs>
<clipPath id="clip0_18885_17967">
<rect width="36" height="36" fill="white"/>
</clipPath>
</defs>
</svg>
