<svg width="26" height="26" viewBox="0 0 26 26" fill="none" xmlns="http://www.w3.org/2000/svg">
<path d="M21.9577 16.6484C22.0185 16.7696 22.0478 16.9197 22.0876 17.0497C22.1683 17.3137 22.2474 17.5803 22.3447 17.8386C22.7559 17.8434 23.1666 17.853 23.5775 17.8298C23.2865 18.1199 22.8793 18.296 22.5854 18.5811C22.66 18.7955 22.718 19.0173 22.7871 19.2338C22.8448 19.4149 22.9242 19.5968 22.9549 19.7845C22.6281 19.5344 22.2978 19.2845 21.9585 19.0518C21.8134 19.1004 21.3504 19.4842 21.192 19.6039C21.1268 19.6532 21.0583 19.719 20.982 19.7472C20.942 19.6087 21.3023 18.8492 21.2997 18.6237C21.2981 18.495 20.4653 17.9732 20.3203 17.8321C20.7363 17.8309 21.1509 17.8501 21.5675 17.8421C21.7006 17.4452 21.8306 17.0473 21.9577 16.6484Z" fill="#C9CBCF"/>
<path d="M12.9594 1C13.0436 1.10162 13.2937 1.95896 13.3651 2.15707C13.7769 2.17105 14.1923 2.16156 14.6044 2.16164C14.496 2.25967 14.365 2.34247 14.2471 2.42893C14.0324 2.58798 13.8162 2.74507 13.5987 2.90019C13.6948 3.30547 13.9042 3.69384 13.9781 4.10275C13.6558 3.86366 13.3322 3.62621 13.0074 3.3904C13.0042 3.38957 13.0011 3.38815 12.9978 3.38792C12.895 3.37986 12.1239 3.98709 11.9791 4.09951C11.9972 3.9606 12.0522 3.82293 12.0963 3.69048C12.1807 3.43712 12.2744 3.18441 12.3337 2.92373C12.1083 2.65052 11.5515 2.41326 11.3516 2.15356C11.7587 2.16465 12.1748 2.18657 12.5816 2.15937C12.7532 1.8115 12.8359 1.37059 12.9594 1Z" fill="#C9CBCF"/>
<path d="M7.82602 20.5C7.8508 20.524 8.15774 21.5301 8.19708 21.6554C8.60231 21.7003 9.02334 21.6361 9.43114 21.6732C9.34175 21.7549 9.23218 21.8204 9.13431 21.8923C8.90794 22.0613 8.67893 22.2265 8.4473 22.3881C8.55526 22.8103 8.71868 23.2122 8.83523 23.6304C8.50902 23.3611 8.15327 23.1335 7.82964 22.8612C7.75582 22.894 7.68399 22.9595 7.61738 23.007C7.36962 23.1834 7.0786 23.4284 6.82476 23.5731C6.85731 23.3294 7.09997 22.6961 7.19448 22.4357C7.08217 22.3159 6.93371 22.2198 6.80267 22.1221C6.59728 21.9691 6.392 21.816 6.17969 21.6728C6.59292 21.6575 7.00624 21.6544 7.41965 21.6634C7.54494 21.3417 7.66461 20.7705 7.82602 20.5Z" fill="#C9CBCF"/>
<path d="M4.01656 16.6484C4.09868 16.744 4.34373 17.647 4.40109 17.8377C4.81941 17.8643 5.25094 17.851 5.6694 17.8306C5.45338 17.9922 5.23332 18.1484 5.01606 18.3083C4.89379 18.3982 4.75728 18.4864 4.65172 18.5963C4.78056 18.9933 4.91438 19.3885 5.05318 19.782C4.69781 19.5639 4.38765 19.2682 4.03108 19.0572C3.87739 19.1161 3.17653 19.6522 2.98607 19.7882C3.14085 19.3981 3.27145 19.0027 3.39375 18.601C3.27557 18.4745 3.1108 18.3729 2.97164 18.2706C2.76687 18.1224 2.56539 17.9698 2.36719 17.8127C2.7403 17.8715 3.26397 17.8688 3.64038 17.8319C3.74611 17.4346 3.89726 17.0433 4.01656 16.6484Z" fill="#C9CBCF"/>
<path d="M18.1761 20.4688C18.2359 20.5975 18.2676 20.7496 18.3093 20.8857C18.3882 21.142 18.469 21.3976 18.5515 21.6527C18.9625 21.6738 19.3827 21.6536 19.7945 21.6554C19.5019 21.943 19.0941 22.117 18.8035 22.4072C18.85 22.5799 19.1699 23.4809 19.1607 23.562L19.1603 23.5553C19.1496 23.5568 19.1388 23.5619 19.1283 23.5596C19.0633 23.5457 18.3973 23.0219 18.273 22.9382C18.2196 22.9021 18.1858 22.8762 18.1198 22.8892C17.9552 23.0214 17.7827 23.144 17.6139 23.2708C17.4579 23.388 17.3033 23.5161 17.1349 23.6144C17.3114 23.2365 17.4017 22.8142 17.5559 22.4256C17.2443 22.1422 16.8658 21.9383 16.5469 21.6637C16.9594 21.636 17.3809 21.6577 17.7949 21.6542C17.8376 21.4768 17.9051 21.3032 17.9599 21.129C18.0288 20.91 18.0878 20.6804 18.1761 20.4688Z" fill="#C9CBCF"/>
<path d="M12.962 21.8828C13.0413 21.9669 13.3005 22.8656 13.3569 23.0383L14.6023 23.0401C14.3107 23.3206 13.9048 23.5261 13.602 23.8037C13.7315 24.198 13.879 24.5964 13.9835 24.998C13.6498 24.7659 13.316 24.5152 12.9946 24.2658C12.9647 24.2648 12.952 24.2675 12.926 24.2822C12.8445 24.3283 12.7667 24.3997 12.6909 24.4558C12.4505 24.6337 12.2108 24.8281 11.9616 24.9915C12.0595 24.5913 12.2607 24.2103 12.3405 23.8051C12.1408 23.6242 11.9083 23.4695 11.6902 23.3119C11.5749 23.2286 11.4468 23.1509 11.3516 23.044C11.7592 23.0268 12.1696 23.0598 12.5776 23.0422C12.7487 22.673 12.8287 22.2649 12.962 21.8828Z" fill="#C9CBCF"/>
<path d="M4.03642 6.19531C4.09341 6.30248 4.1155 6.45242 4.15197 6.57041C4.23548 6.83861 4.32345 7.10531 4.4159 7.3705C4.83974 7.36657 5.26805 7.3902 5.69073 7.3594C5.39278 7.62787 4.92324 7.87211 4.6499 8.13966C4.79333 8.52792 4.90149 8.92809 5.05045 9.31458C4.80643 9.20668 4.30826 8.77276 4.04387 8.60326C3.88346 8.63881 3.21843 9.20004 2.99606 9.32225C3.17535 8.95172 3.26948 8.54016 3.40789 8.15258C3.10191 7.85754 2.71293 7.66114 2.40625 7.3656C2.81788 7.38342 3.23304 7.37294 3.64505 7.36893C3.72661 7.13297 3.81154 6.89734 3.88717 6.65938C3.9363 6.50487 3.97487 6.34534 4.03642 6.19531Z" fill="#C9CBCF"/>
<path d="M18.1086 2.36719C18.2048 2.45023 18.4521 3.34807 18.5125 3.53957C18.9353 3.55908 19.3581 3.55771 19.7808 3.53547C19.4795 3.81027 19.0991 4.05254 18.7682 4.2936C18.8682 4.66227 19.0809 5.14911 19.1382 5.50265C18.8155 5.2697 18.498 5.02599 18.179 4.78773L18.1285 4.78056C17.9789 4.83938 17.3068 5.36442 17.1213 5.50646C17.2173 5.24475 17.2964 4.97888 17.3774 4.71224C17.4169 4.58225 17.4702 4.45062 17.4891 4.31588C17.4438 4.2147 16.636 3.65237 16.4844 3.54877C16.9082 3.52264 17.3357 3.56508 17.7609 3.54001C17.8796 3.14624 18.0148 2.76898 18.1086 2.36719Z" fill="#C9CBCF"/>
<path d="M2.66243 11.4531C2.68745 11.4876 2.97099 12.4447 3.03405 12.6071C3.45523 12.6224 3.88215 12.6167 4.30362 12.6064C3.95464 12.8513 3.61186 13.1047 3.27527 13.3666C3.39304 13.7685 3.52257 14.1664 3.66384 14.5605C3.303 14.3532 2.99992 14.0483 2.65124 13.8242C2.524 13.8914 2.40768 13.9977 2.29134 14.083C2.06865 14.2462 1.84292 14.4029 1.62534 14.5735C1.70598 14.3358 1.98934 13.5801 1.99346 13.3876C1.95222 13.2736 1.15632 12.7372 1 12.6098C1.41884 12.6049 1.83871 12.6211 2.25721 12.6069C2.33643 12.3758 2.56786 11.5871 2.66243 11.4531Z" fill="#C9CBCF"/>
<path d="M7.80336 2.39844C7.81669 2.40938 7.82706 2.41826 7.83554 2.4344C7.88247 2.52392 7.90372 2.66192 7.93548 2.76C8.02 3.02121 8.10762 3.2838 8.20558 3.54017C8.62419 3.56589 9.06425 3.56347 9.48274 3.53226C9.28109 3.66946 9.08915 3.82309 8.89314 3.96843C8.74392 4.07904 8.58888 4.18158 8.44264 4.29624C8.52789 4.71019 8.73825 5.09916 8.8159 5.51378C8.49928 5.26494 8.17602 5.0252 7.84611 4.79459L7.79681 4.78638C7.65005 4.84379 6.96129 5.38765 6.80172 5.51384C6.85356 5.28756 7.16825 4.48651 7.15092 4.34193C7.14543 4.29603 7.12304 4.2599 7.0906 4.22845C7.00121 4.14188 6.87893 4.07126 6.77746 3.99916C6.57219 3.85335 6.36619 3.70672 6.17188 3.54613C6.58821 3.54486 7.00468 3.55858 7.42099 3.55173C7.56854 3.17743 7.67635 2.78047 7.80336 2.39844Z" fill="#C9CBCF"/>
<path d="M21.9616 6.21094C22.0382 6.31781 22.0689 6.51164 22.107 6.63993C22.1803 6.88689 22.2466 7.14202 22.3589 7.37435C22.7651 7.38159 23.1712 7.37674 23.5772 7.35981C23.3999 7.57078 22.8414 7.92854 22.5915 8.11473C22.6975 8.52588 22.8661 8.91897 22.9759 9.32864C22.8596 9.2644 22.7524 9.16723 22.645 9.08823L21.9597 8.58343C21.8841 8.6175 21.8098 8.69006 21.7419 8.74051C21.5207 8.90484 21.2991 9.08711 21.0712 9.24009C21.0369 9.26307 21.0152 9.28038 20.9733 9.27274C21.0668 8.88853 21.216 8.52054 21.3367 8.14496C21.059 7.88072 20.6175 7.60933 20.3047 7.36193C20.7252 7.36775 21.1457 7.36931 21.5662 7.36659C21.6884 7.11084 21.7636 6.80551 21.8483 6.53388C21.8817 6.42681 21.9082 6.30911 21.9616 6.21094Z" fill="#C9CBCF"/>
<path d="M23.364 11.4453C23.3781 11.4654 23.6728 12.4667 23.7215 12.6162C24.1466 12.6231 24.5716 12.6216 24.9966 12.6116L23.9731 13.3562C24.0596 13.7673 24.2323 14.1714 24.3592 14.5718C24.1013 14.4069 23.6021 14.0651 23.3974 13.8526C23.3787 13.8332 23.3773 13.8359 23.3527 13.8299C23.0069 14.0769 22.6471 14.3127 22.3197 14.5841C22.3712 14.4353 22.7052 13.4729 22.6861 13.3926C22.66 13.2828 21.8263 12.7274 21.6875 12.6163C22.1061 12.6083 22.5248 12.6213 22.9434 12.6149C23.0603 12.3368 23.2275 11.636 23.364 11.4453Z" fill="#C9CBCF"/>
<path d="M9.09964 12.0613C9.40503 12.0303 9.74503 12.1086 9.99627 12.289C10.2348 12.4603 10.398 12.7418 10.4449 13.0321C10.2397 13.0202 10.0375 13.0228 9.83227 13.0284C9.81374 12.9706 9.79582 12.9109 9.76493 12.8584C9.68737 12.7266 9.54838 12.6344 9.40173 12.6012C9.21177 12.5581 8.99896 12.5996 8.83875 12.7112C8.65037 12.8426 8.56252 13.0509 8.52696 13.2714C8.48014 13.5616 8.49607 13.9262 8.6765 14.1699C8.79436 14.3291 8.98262 14.4399 9.17849 14.4625C9.35117 14.4824 9.53441 14.4477 9.67136 14.3347C9.75327 14.2671 9.89662 14.0895 9.89381 13.9772C9.89299 13.9443 9.88092 13.9168 9.85451 13.8967C9.76134 13.8258 9.43107 13.8697 9.3045 13.871C9.30099 13.7517 9.30196 13.6318 9.30088 13.5124C9.29801 13.4866 9.29889 13.4745 9.30938 13.4508C9.44373 13.3997 10.2885 13.4255 10.4712 13.4435C10.4798 13.8244 10.4697 14.2124 10.2375 14.5307C10.0476 14.7911 9.76695 14.9324 9.4541 14.9782C9.10303 15.0295 8.72589 14.9639 8.43846 14.7459C8.13672 14.517 7.97999 14.2049 7.92812 13.8323C7.86713 13.3944 7.92636 12.9112 8.19947 12.5514C8.42315 12.2567 8.74167 12.109 9.09964 12.0613Z" fill="#C9CBCF"/>
<path d="M13.7597 12.1006C13.9694 12.0906 14.1816 12.0966 14.3916 12.0961C14.7898 12.0953 15.2075 12.0581 15.546 12.3114C15.7373 12.4546 15.8513 12.6676 15.8822 12.9037C15.916 13.1619 15.8726 13.4372 15.711 13.6464C15.5352 13.8739 15.2833 13.9844 15.0052 14.0173C14.7885 14.0313 14.5734 14.0322 14.3564 14.032C14.3542 14.3373 14.3547 14.6426 14.358 14.9479C14.1579 14.9524 13.9579 14.9524 13.7578 14.9477L13.7597 12.1006Z" fill="#C9CBCF"/>
<path d="M14.4271 12.5762C14.6761 12.5694 14.95 12.5388 15.1435 12.7323C15.1548 12.7435 15.1655 12.7553 15.1756 12.7676C15.1857 12.7799 15.1951 12.7927 15.2039 12.8059C15.2128 12.8192 15.2209 12.8328 15.2284 12.8469C15.2359 12.861 15.2426 12.8754 15.2487 12.8902C15.2547 12.9049 15.26 12.92 15.2645 12.9353C15.2691 12.9506 15.2728 12.9661 15.2758 12.9818C15.2788 12.9974 15.281 13.0132 15.2825 13.0291C15.2839 13.045 15.2846 13.061 15.2844 13.0769C15.2836 13.2389 15.2124 13.3438 15.1015 13.4504C14.8849 13.5865 14.6019 13.5481 14.3579 13.5427C14.3555 13.3698 14.3171 12.7015 14.3779 12.5899L14.4271 12.5762Z" fill="#010101"/>
<path d="M16.2906 12.1004C16.6478 12.087 17.4409 12.0616 17.757 12.1439C17.9815 12.2024 18.1736 12.3291 18.2928 12.5342C18.4214 12.7555 18.4535 13.035 18.3882 13.2823C18.3185 13.5462 18.1547 13.712 17.9255 13.8455C17.9681 13.9592 18.0398 14.071 18.0975 14.1784C18.2356 14.4372 18.3781 14.6935 18.5252 14.9472L17.9848 14.9533L17.8468 14.9462C17.686 14.6177 17.5253 14.2411 17.3067 13.9474C17.1684 13.9408 17.0298 13.9456 16.8915 13.948C16.852 14.2744 16.8766 14.6256 16.8782 14.9548L16.2891 14.9492L16.2906 12.1004Z" fill="#C9CBCF"/>
<path d="M16.9077 12.5734C17.1203 12.556 17.3985 12.5466 17.5929 12.6485C17.6921 12.7006 17.773 12.7874 17.8019 12.8982C17.8459 13.0673 17.7629 13.2131 17.6782 13.3515C17.483 13.5053 17.127 13.4559 16.8943 13.4525C16.8802 13.2958 16.8531 12.6914 16.9077 12.5734Z" fill="#010101"/>
<path d="M10.934 12.1008C11.1326 12.0932 11.3327 12.0959 11.5315 12.0947C11.992 12.0917 12.4862 12.0787 12.8603 12.3992C13.137 12.6364 13.2813 13.0092 13.3081 13.3679C13.3421 13.8224 13.2342 14.2294 12.9387 14.5775C12.9122 14.6037 12.8839 14.6275 12.8553 14.6511C12.4739 14.9647 12.0326 14.9516 11.5653 14.9509C11.3548 14.9507 11.1422 14.9553 10.9325 14.9342C10.9109 14.5268 10.9289 14.1091 10.9289 13.7005C10.929 13.1685 10.916 12.6323 10.934 12.1008Z" fill="#C9CBCF"/>
<path d="M11.6529 12.6046C11.672 12.6038 11.691 12.6032 11.7101 12.6028C11.9795 12.5974 12.2849 12.6006 12.4888 12.8079C12.6692 12.9913 12.7328 13.2779 12.732 13.5286C12.731 13.818 12.6535 14.0709 12.4483 14.2782C12.184 14.4798 11.8445 14.4477 11.5323 14.4324C11.5196 14.0804 11.5298 13.7245 11.5296 13.372C11.5294 13.1319 11.512 12.8773 11.5365 12.6389C11.5714 12.606 11.6063 12.6107 11.6529 12.6046Z" fill="#010101"/>
</svg>
