<svg width="36" height="36" viewBox="0 0 36 36" fill="none" xmlns="http://www.w3.org/2000/svg">
<path d="M13.3421 35.4082V35.1L14.1599 34.2983C14.2381 34.2194 14.3032 34.1492 14.3554 34.0879C14.4075 34.0265 14.4466 33.9671 14.4727 33.9096C14.4988 33.8521 14.5118 33.7908 14.5118 33.7256C14.5118 33.6512 14.4949 33.5876 14.4612 33.5347C14.4275 33.481 14.3811 33.4396 14.322 33.4105C14.263 33.3813 14.1959 33.3668 14.1208 33.3668C14.0433 33.3668 13.9755 33.3829 13.9172 33.4151C13.8589 33.4465 13.8137 33.4914 13.7815 33.5496C13.75 33.6079 13.7343 33.6773 13.7343 33.7578H13.3283C13.3283 33.6083 13.3625 33.4783 13.4307 33.3679C13.4989 33.2575 13.5929 33.172 13.7125 33.1114C13.8328 33.0509 13.9709 33.0206 14.1265 33.0206C14.2845 33.0206 14.4232 33.0501 14.5428 33.1091C14.6625 33.1682 14.7552 33.2491 14.8212 33.3518C14.8879 33.4546 14.9212 33.5719 14.9212 33.7037C14.9212 33.7919 14.9044 33.8786 14.8706 33.9637C14.8369 34.0488 14.7775 34.1431 14.6924 34.2466C14.608 34.3501 14.4896 34.4755 14.337 34.6227L13.931 35.0356V35.0517H14.9569V35.4082H13.3421ZM15.3752 35.4082L16.3769 33.4254V33.4093H15.2141V33.0528H16.8185V33.4174L15.8179 35.4082H15.3752ZM17.945 35.4531C17.7556 35.4531 17.5931 35.4051 17.4573 35.3093C17.3224 35.2127 17.2185 35.0735 17.1457 34.8918C17.0736 34.7093 17.0376 34.4896 17.0376 34.2328C17.0383 33.9759 17.0747 33.7574 17.1468 33.5772C17.2197 33.3963 17.3236 33.2583 17.4585 33.1632C17.5942 33.0681 17.7564 33.0206 17.945 33.0206C18.1336 33.0206 18.2958 33.0681 18.4315 33.1632C18.5672 33.2583 18.6711 33.3963 18.7432 33.5772C18.816 33.7582 18.8524 33.9767 18.8524 34.2328C18.8524 34.4904 18.816 34.7105 18.7432 34.893C18.6711 35.0747 18.5672 35.2135 18.4315 35.3093C18.2965 35.4051 18.1344 35.4531 17.945 35.4531ZM17.945 35.0931C18.0922 35.0931 18.2084 35.0206 18.2935 34.8757C18.3793 34.73 18.4223 34.5157 18.4223 34.2328C18.4223 34.0457 18.4027 33.8885 18.3636 33.7612C18.3245 33.634 18.2693 33.5381 18.198 33.4737C18.1267 33.4085 18.0424 33.376 17.945 33.376C17.7985 33.376 17.6828 33.4488 17.5977 33.5945C17.5126 33.7394 17.4696 33.9522 17.4688 34.2328C17.4681 34.4206 17.4869 34.5786 17.5252 34.7066C17.5643 34.8347 17.6195 34.9313 17.6908 34.9965C17.7621 35.0609 17.8468 35.0931 17.945 35.0931ZM20.0404 35.4531C19.851 35.4531 19.6885 35.4051 19.5528 35.3093C19.4178 35.2127 19.3139 35.0735 19.2411 34.8918C19.169 34.7093 19.133 34.4896 19.133 34.2328C19.1337 33.9759 19.1702 33.7574 19.2422 33.5772C19.3151 33.3963 19.419 33.2583 19.5539 33.1632C19.6896 33.0681 19.8518 33.0206 20.0404 33.0206C20.229 33.0206 20.3912 33.0681 20.5269 33.1632C20.6626 33.2583 20.7665 33.3963 20.8386 33.5772C20.9114 33.7582 20.9478 33.9767 20.9478 34.2328C20.9478 34.4904 20.9114 34.7105 20.8386 34.893C20.7665 35.0747 20.6626 35.2135 20.5269 35.3093C20.392 35.4051 20.2298 35.4531 20.0404 35.4531ZM20.0404 35.0931C20.1876 35.0931 20.3038 35.0206 20.3889 34.8757C20.4748 34.73 20.5177 34.5157 20.5177 34.2328C20.5177 34.0457 20.4982 33.8885 20.459 33.7612C20.4199 33.634 20.3647 33.5381 20.2934 33.4737C20.2221 33.4085 20.1378 33.376 20.0404 33.376C19.894 33.376 19.7782 33.4488 19.6931 33.5945C19.608 33.7394 19.565 33.9522 19.5643 34.2328C19.5635 34.4206 19.5823 34.5786 19.6206 34.7066C19.6597 34.8347 19.7149 34.9313 19.7862 34.9965C19.8575 35.0609 19.9423 35.0931 20.0404 35.0931ZM22.2232 33.0528V35.4082H21.7965V33.468H21.7827L21.2318 33.8199V33.4289L21.8172 33.0528H22.2232Z" fill="#AFB1B6"/>
<path fill-rule="evenodd" clip-rule="evenodd" d="M33.6853 15.9084C33.6935 7.32251 26.7404 0.355807 18.1545 0.347656H18.121C9.5369 0.355807 2.58561 7.32069 2.59376 15.9048C2.6001 24.4807 9.54958 31.4311 18.1246 31.4392C26.7105 31.4474 33.6772 24.4943 33.6853 15.9084ZM23.3516 23.8739C19.9802 22.6767 16.2989 22.6777 12.9284 23.8758L12.4484 22.0592H11.1615C11.3128 22.8335 11.5057 23.6005 11.7384 24.3548C10.5792 24.8882 9.48619 25.5565 8.48189 26.3453C2.48237 20.9707 2.21884 11.1477 8.48189 5.43616C9.47894 6.22584 10.5666 6.89144 11.7221 7.42121L11.1362 9.73316L11.3165 9.73588C11.4908 9.73852 11.6487 9.74085 11.8063 9.74225C11.9421 9.74287 12.0783 9.74264 12.2196 9.74248L12.442 9.74225L12.9284 7.91385C16.2907 9.10922 19.962 9.11101 23.3254 7.91929C23.4377 8.21363 23.5273 8.51514 23.5952 8.8231C23.6483 9.02108 23.698 9.2203 23.7488 9.42403C23.7736 9.52313 23.7986 9.6234 23.8244 9.72499H25.1148C24.9763 8.95439 24.7662 8.20726 24.5461 7.42755C25.7043 6.89597 26.7956 6.22856 27.7972 5.44069C33.7315 10.733 34.1245 20.5568 27.8216 26.3327C27.6658 26.2268 27.5108 26.1193 27.3558 26.0118C26.9896 25.7577 26.6224 25.5029 26.2414 25.2695C25.8688 25.0406 25.483 24.8335 25.092 24.6236C24.9136 24.5278 24.7341 24.4315 24.5543 24.3322C24.777 23.595 24.9609 22.8461 25.1067 22.09C24.8975 22.0474 24.6838 22.0356 24.4709 22.0528C24.3276 22.0478 24.1851 22.0489 24.0365 22.05C23.9712 22.0505 23.9045 22.051 23.8361 22.051L23.3516 23.8739ZM22.8735 6.55547C22.8871 6.60528 22.8979 6.65509 22.9052 6.7058C19.8153 7.8079 16.4384 7.80428 13.3494 6.69584C13.3824 6.61522 13.4138 6.53719 13.4445 6.46102L13.4448 6.46019C13.5084 6.30222 13.5688 6.15227 13.6329 6.00397C14.0377 5.0214 14.582 4.10223 15.2503 3.27633C15.6659 2.7538 16.1794 2.31731 16.7617 1.9904C17.6672 1.47149 18.7857 1.50228 19.6614 2.07008C20.289 2.4622 20.8341 2.97296 21.2661 3.57336C21.9371 4.48801 22.4787 5.4914 22.8735 6.55547ZM13.3848 25.1526C13.3793 25.1321 13.3729 25.1087 13.3648 25.0811C16.4492 23.9817 19.818 23.9799 22.9034 25.0775C22.8989 25.1246 22.8907 25.1717 22.878 25.2179C22.4407 26.4205 21.8067 27.5425 21.0025 28.5378C20.6865 28.919 20.3225 29.2586 19.9194 29.5466C18.7422 30.3752 17.478 30.3643 16.3125 29.514C15.7574 29.0974 15.2729 28.5939 14.8772 28.0243C14.2722 27.1612 13.7796 26.2258 13.411 25.2387C13.4013 25.2137 13.3942 25.1872 13.3848 25.1526ZM26.8037 27.2084C25.315 28.3621 23.6025 29.1943 21.7759 29.6543C22.2876 29.0585 22.7349 28.411 23.1108 27.7227C23.3625 27.2455 23.597 26.7592 23.8356 26.2641C23.9421 26.0433 24.0493 25.8207 24.1594 25.5964C25.0985 26.032 25.986 26.5726 26.8037 27.2084ZM13.1765 27.7381C13.5513 28.4264 14.0015 29.0711 14.5176 29.6598C12.6856 29.1979 10.9695 28.3629 9.47532 27.2084C10.2931 26.5726 11.1815 26.032 12.1214 25.5955C12.2317 25.8207 12.339 26.0448 12.4457 26.2676C12.6844 26.766 12.9199 27.2575 13.1765 27.7381ZM26.7639 4.54416C26.5239 4.88466 24.7997 5.95326 24.1124 6.18508C23.531 4.70626 22.8128 3.32524 21.765 2.12533C23.5799 2.57993 25.2814 3.40311 26.7639 4.54416ZM9.48981 4.56498C10.9722 3.41941 12.6757 2.59171 14.4923 2.13529C13.497 3.34154 12.7137 4.70717 12.174 6.17422C11.6705 6.04924 10.0223 5.06034 9.48981 4.56498ZM29.7288 17.9975C30.0448 17.3473 30.206 16.6311 30.1979 15.9075C30.1899 15.8179 30.1833 15.7279 30.1767 15.638C30.1622 15.4408 30.1477 15.2434 30.1191 15.048C29.9651 13.7196 29.1021 12.5785 27.866 12.0687C27.3443 11.8441 26.7883 11.7092 26.2214 11.6711C25.2343 11.5525 24.2328 11.6757 23.3036 12.0288C22.2196 12.4336 21.3929 13.3274 21.075 14.4395C20.864 15.1685 20.816 15.9346 20.9346 16.6845C21.1737 18.3308 22.1128 19.3876 23.6804 19.8902C24.4048 20.1094 25.1646 20.1918 25.9199 20.1321C26.5683 20.1085 27.2076 19.9754 27.8107 19.7363C28.6412 19.4103 29.3231 18.7918 29.7288 17.9975ZM27.0984 15.5622C27.1049 15.6774 27.1113 15.7926 27.1189 15.9075C27.1189 16.4843 27.0582 17.0585 26.936 17.6227C26.8916 17.8156 26.8264 18.0021 26.743 18.1814C26.6018 18.4748 26.3591 18.7075 26.0593 18.8362C25.3774 19.1277 24.5868 18.8108 24.2953 18.1289C24.144 17.773 24.0517 17.3935 24.0217 17.0077C23.9249 16.1674 23.9403 15.3179 24.0671 14.4812C24.1105 14.1416 24.2137 13.8128 24.3732 13.5095C24.5995 13.0739 25.0596 12.8104 25.5495 12.8348C26.0303 12.8176 26.4777 13.083 26.6941 13.5131C26.8898 13.8997 27.0066 14.3199 27.0382 14.752C27.0681 15.0206 27.0833 15.2916 27.0984 15.5622ZM18.3737 14.42C18.3483 14.3486 18.3249 14.2826 18.3006 14.2167C18.0054 13.4234 17.4113 13.0195 16.5909 12.9317C16.2784 12.8837 15.9588 12.9009 15.6535 12.9825C15.4535 13.0404 15.2732 13.1509 15.131 13.3039C14.8385 13.6272 14.8703 13.9912 15.2415 14.2177C15.458 14.3454 15.6916 14.4422 15.9343 14.5056C16.1997 14.5785 16.4681 14.641 16.7368 14.7034C16.9853 14.7611 17.2338 14.819 17.4802 14.885C18.076 15.0291 18.6447 15.2663 19.1663 15.5887C19.7269 15.9373 20.0864 16.5341 20.1317 17.1925C20.2268 17.8608 20.0393 18.5382 19.6137 19.0626C19.2904 19.442 18.8702 19.7264 18.3975 19.8848C17.7654 20.0976 17.0962 20.1827 16.4306 20.1348C15.6472 20.0922 14.8802 19.8939 14.1738 19.5516C14.153 19.5418 14.1305 19.5345 14.1019 19.5251C14.0882 19.5207 14.0731 19.5157 14.0561 19.5099L13.7555 19.9328H12.6941V16.9978C12.877 16.9697 13.0636 16.9625 13.2483 16.9752C13.3711 16.9721 13.4938 16.9728 13.6239 16.9735C13.6837 16.9739 13.7452 16.9742 13.8089 16.9742C13.8197 17.0025 13.8301 17.0301 13.8403 17.0573C13.8654 17.1237 13.8894 17.1875 13.9157 17.2505C14.2852 18.1307 14.9055 18.7203 15.8628 18.9041C16.1806 18.9775 16.5111 18.9702 16.8254 18.8833C16.9975 18.8325 17.1577 18.751 17.2999 18.6414C17.5743 18.4459 17.6386 18.0646 17.4439 17.7902C17.4041 17.734 17.3552 17.6851 17.299 17.6453C17.0681 17.475 16.8118 17.341 16.5401 17.2487C16.2346 17.1424 15.9236 17.0527 15.6126 16.963C15.388 16.8982 15.1634 16.8334 14.9408 16.7623C14.5705 16.651 14.2064 16.5197 13.8505 16.3694C13.1741 16.0687 12.6787 15.5796 12.5284 14.8361C12.2884 13.6489 12.7874 12.6166 13.8759 12.0424C14.3422 11.8042 14.8557 11.6712 15.3783 11.6503C16.3699 11.577 17.3651 11.7571 18.268 12.1738C18.2892 12.1838 18.3113 12.1919 18.3404 12.2026C18.3559 12.2084 18.3734 12.2147 18.3939 12.2227L18.6139 11.855H19.7314V14.5944C19.6498 14.5951 19.5675 14.5961 19.4848 14.597C19.3574 14.5986 19.2291 14.6002 19.1011 14.6007C18.9576 14.6013 18.8149 14.6011 18.6683 14.6009H18.667L18.4382 14.6007C18.4147 14.5356 18.3936 14.4762 18.3737 14.42ZM11.7454 19.8857V18.7818C11.6917 18.7818 11.6407 18.782 11.5915 18.7822C11.4977 18.7826 11.4103 18.783 11.3225 18.7818C10.8289 18.7727 10.7139 18.6668 10.7121 18.1759C10.7076 16.6455 10.7076 15.115 10.7121 13.5846C10.7121 13.1092 10.8262 13.0059 11.308 12.9888C11.3379 12.988 11.368 12.9883 11.3981 12.9887C11.4409 12.9891 11.4834 12.9896 11.5244 12.9869C11.5747 12.9836 11.6245 12.9785 11.6729 12.9735C11.6915 12.9716 11.71 12.9697 11.7281 12.9679C11.7798 12.6093 11.7744 12.2443 11.7127 11.8876H7.02455V12.986C7.07438 12.986 7.12197 12.9858 7.16804 12.9856C7.25593 12.9852 7.3383 12.9849 7.42029 12.986C7.94916 12.9951 8.07503 13.1155 8.07594 13.6444C8.07866 15.1386 8.07866 16.6337 8.07594 18.128C8.0705 18.2439 8.05601 18.3598 8.03428 18.4748C8.01707 18.6242 7.89754 18.742 7.74811 18.7564C7.65031 18.7727 7.5516 18.7809 7.45289 18.7809C7.3549 18.7835 7.25602 18.7828 7.15564 18.7823C7.11225 18.7821 7.06856 18.7818 7.02455 18.7818V19.8857H11.7454Z" fill="#AFB1B6"/>
</svg>
