<svg width="24" height="24" viewBox="0 0 24 24" fill="none" xmlns="http://www.w3.org/2000/svg">
<path d="M7.69389 23.3984V23.1129L8.45135 22.3704C8.52379 22.2972 8.58416 22.2322 8.63246 22.1754C8.68075 22.1186 8.71697 22.0636 8.74112 22.0103C8.76527 21.957 8.77734 21.9002 8.77734 21.8398C8.77734 21.771 8.76172 21.712 8.73047 21.663C8.69922 21.6133 8.65625 21.5749 8.60156 21.5479C8.54688 21.521 8.48473 21.5075 8.41513 21.5075C8.34339 21.5075 8.28054 21.5224 8.22656 21.5522C8.17259 21.5813 8.13068 21.6229 8.10085 21.6768C8.07173 21.7308 8.05717 21.7951 8.05717 21.8697H7.68111C7.68111 21.7312 7.71271 21.6108 7.77592 21.5085C7.83913 21.4062 7.92614 21.3271 8.03693 21.271C8.14844 21.2148 8.27628 21.1868 8.42045 21.1868C8.56676 21.1868 8.69531 21.2141 8.80611 21.2688C8.9169 21.3235 9.00284 21.3984 9.06392 21.4936C9.12571 21.5888 9.15661 21.6974 9.15661 21.8196C9.15661 21.9013 9.14098 21.9815 9.10973 22.0604C9.07848 22.1392 9.02344 22.2266 8.9446 22.3224C8.86648 22.4183 8.75675 22.5344 8.61541 22.6708L8.23935 23.0533V23.0682H9.18963V23.3984H7.69389ZM9.57707 23.3984L10.505 21.5618V21.5469H9.42793V21.2166H10.9141V21.5543L9.98723 23.3984H9.57707ZM11.9575 23.44C11.7821 23.44 11.6315 23.3956 11.5058 23.3068C11.3808 23.2173 11.2846 23.0884 11.2171 22.9201C11.1503 22.7511 11.1169 22.5476 11.1169 22.3097C11.1177 22.0717 11.1514 21.8693 11.2182 21.7024C11.2856 21.5348 11.3819 21.407 11.5069 21.3189C11.6326 21.2308 11.7828 21.1868 11.9575 21.1868C12.1322 21.1868 12.2824 21.2308 12.4081 21.3189C12.5339 21.407 12.6301 21.5348 12.6969 21.7024C12.7643 21.87 12.7981 22.0724 12.7981 22.3097C12.7981 22.5483 12.7643 22.7521 12.6969 22.9212C12.6301 23.0895 12.5339 23.218 12.4081 23.3068C12.2831 23.3956 12.1329 23.44 11.9575 23.44ZM11.9575 23.1065C12.0939 23.1065 12.2015 23.0394 12.2803 22.9052C12.3598 22.7702 12.3996 22.5717 12.3996 22.3097C12.3996 22.1364 12.3815 21.9908 12.3453 21.8729C12.3091 21.755 12.2579 21.6662 12.1919 21.6065C12.1258 21.5462 12.0477 21.516 11.9575 21.516C11.8219 21.516 11.7146 21.5835 11.6358 21.7184C11.5569 21.8526 11.5172 22.0497 11.5165 22.3097C11.5157 22.4837 11.5331 22.63 11.5687 22.7486C11.6049 22.8672 11.656 22.9567 11.7221 23.017C11.7881 23.0767 11.8666 23.1065 11.9575 23.1065ZM13.8985 23.44C13.7231 23.44 13.5725 23.3956 13.4468 23.3068C13.3218 23.2173 13.2255 23.0884 13.1581 22.9201C13.0913 22.7511 13.0579 22.5476 13.0579 22.3097C13.0586 22.0717 13.0924 21.8693 13.1591 21.7024C13.2266 21.5348 13.3228 21.407 13.4478 21.3189C13.5736 21.2308 13.7238 21.1868 13.8985 21.1868C14.0732 21.1868 14.2234 21.2308 14.3491 21.3189C14.4748 21.407 14.5711 21.5348 14.6378 21.7024C14.7053 21.87 14.739 22.0724 14.739 22.3097C14.739 22.5483 14.7053 22.7521 14.6378 22.9212C14.5711 23.0895 14.4748 23.218 14.3491 23.3068C14.2241 23.3956 14.0739 23.44 13.8985 23.44ZM13.8985 23.1065C14.0348 23.1065 14.1424 23.0394 14.2213 22.9052C14.3008 22.7702 14.3406 22.5717 14.3406 22.3097C14.3406 22.1364 14.3225 21.9908 14.2863 21.8729C14.25 21.755 14.1989 21.6662 14.1329 21.6065C14.0668 21.5462 13.9887 21.516 13.8985 21.516C13.7628 21.516 13.6556 21.5835 13.5767 21.7184C13.4979 21.8526 13.4581 22.0497 13.4574 22.3097C13.4567 22.4837 13.4741 22.63 13.5096 22.7486C13.5459 22.8672 13.597 22.9567 13.663 23.017C13.7291 23.0767 13.8076 23.1065 13.8985 23.1065ZM15.9204 21.2166V23.3984H15.5252V21.6012H15.5124L15.0021 21.9272V21.565L15.5444 21.2166H15.9204Z" fill="#C9CBCF"/>
<path fill-rule="evenodd" clip-rule="evenodd" d="M21.7 10.2108C21.705 4.90875 17.4113 0.606596 12.1092 0.601562H12.0885C6.78761 0.606596 2.49497 4.90762 2.5 10.2086C2.50392 15.5045 6.79544 19.7966 12.0908 19.8016C17.3928 19.8066 21.695 15.5129 21.7 10.2108ZM15.3186 15.1298C13.2366 14.3905 10.9634 14.391 8.88193 15.1309L8.58553 14.0091H7.79085C7.88425 14.4872 8.00339 14.9609 8.1471 15.4267C7.43128 15.7561 6.75629 16.1688 6.13611 16.6559C2.43122 13.3369 2.26848 7.27095 6.13611 3.74387C6.75182 4.23152 7.42345 4.64255 8.13702 4.9697L7.7752 6.3974L7.88656 6.39908C7.99422 6.40071 8.09171 6.40215 8.18905 6.40301C8.27291 6.4034 8.35701 6.40325 8.44427 6.40316L8.5816 6.40301L8.88193 5.27392C10.9583 6.0121 13.2255 6.0132 15.3024 5.27728C15.3718 5.45904 15.4271 5.64524 15.4691 5.83541C15.5018 5.95767 15.5325 6.08069 15.5639 6.2065C15.5792 6.2677 15.5946 6.32962 15.6106 6.39236H16.4075C16.3219 5.91648 16.1921 5.45511 16.0563 4.97361C16.7715 4.64535 17.4454 4.2332 18.0639 3.74667C21.7285 7.01482 21.9712 13.0813 18.079 16.6481C17.9827 16.5827 17.8871 16.5163 17.7913 16.45C17.5652 16.293 17.3384 16.1357 17.1031 15.9916C16.8731 15.8502 16.6348 15.7223 16.3934 15.5927C16.2832 15.5335 16.1724 15.4741 16.0613 15.4128C16.1989 14.9575 16.3124 14.4951 16.4024 14.0281C16.2733 14.0018 16.1413 13.9946 16.0098 14.0052C15.9213 14.002 15.8333 14.0027 15.7416 14.0034C15.7012 14.0037 15.66 14.0041 15.6178 14.0041L15.3186 15.1298ZM15.0233 4.43508C15.0317 4.46584 15.0385 4.49659 15.0429 4.52791C13.1348 5.20849 11.0495 5.20626 9.14195 4.52176C9.1623 4.47198 9.18169 4.42379 9.20065 4.37675L9.20085 4.37624C9.24016 4.27869 9.27741 4.18609 9.31701 4.09451C9.56699 3.48774 9.90309 2.92013 10.3158 2.41011C10.5724 2.08743 10.8895 1.81788 11.2491 1.61601C11.8083 1.29557 12.499 1.31458 13.0398 1.66521C13.4273 1.90736 13.764 2.22277 14.0307 2.59354C14.4451 3.15836 14.7795 3.77799 15.0233 4.43508ZM9.16379 15.9194C9.16038 15.9067 9.15645 15.8923 9.15145 15.8753C11.0562 15.1963 13.1365 15.1952 15.0418 15.873C15.039 15.9021 15.034 15.9312 15.0262 15.9597C14.7561 16.7023 14.3646 17.3952 13.868 18.0098C13.6728 18.2453 13.448 18.455 13.1991 18.6328C12.4721 19.1445 11.6915 19.1378 10.9718 18.6126C10.6289 18.3554 10.3298 18.0445 10.0854 17.6927C9.71181 17.1598 9.40758 16.5821 9.17997 15.9725C9.17401 15.9571 9.1696 15.9407 9.16379 15.9194ZM17.4504 17.1889C16.5311 17.9013 15.4735 18.4153 14.3456 18.6993C14.6616 18.3314 14.9378 17.9315 15.1699 17.5065C15.3254 17.2118 15.4701 16.9115 15.6175 16.6058C15.6832 16.4694 15.7495 16.332 15.8175 16.1934C16.3974 16.4624 16.9455 16.7963 17.4504 17.1889ZM9.03515 17.516C9.26665 17.941 9.54462 18.3392 9.86334 18.7027C8.73203 18.4175 7.67229 17.9019 6.74958 17.1889C7.25457 16.7963 7.80318 16.4624 8.38365 16.1929C8.45171 16.3319 8.518 16.4704 8.5839 16.6079C8.73131 16.9157 8.8767 17.2192 9.03515 17.516ZM17.4258 3.19303C17.2776 3.4033 16.2128 4.06319 15.7884 4.20635C15.4294 3.29313 14.9859 2.44031 14.3389 1.69933C15.4596 1.98006 16.5103 2.4884 17.4258 3.19303ZM6.75853 3.20589C7.67397 2.49847 8.72589 1.98733 9.84769 1.70548C9.2331 2.45038 8.74936 3.29369 8.41609 4.19964C8.10515 4.12247 7.08736 3.51179 6.75853 3.20589ZM19.2567 11.5009C19.4519 11.0994 19.5514 10.6571 19.5464 10.2102C19.5415 10.1549 19.5374 10.0994 19.5333 10.0438C19.5243 9.92204 19.5154 9.80012 19.4978 9.6795C19.4027 8.85913 18.8697 8.15449 18.1064 7.83966C17.7843 7.70098 17.4409 7.61765 17.0908 7.59413C16.4812 7.52089 15.8628 7.59697 15.289 7.81503C14.6196 8.06502 14.109 8.61697 13.9127 9.30371C13.7824 9.7539 13.7528 10.227 13.826 10.69C13.9737 11.7067 14.5536 12.3593 15.5216 12.6697C15.969 12.8051 16.4382 12.856 16.9046 12.819C17.305 12.8045 17.6998 12.7223 18.0723 12.5746C18.5851 12.3733 19.0062 11.9914 19.2567 11.5009ZM17.6324 9.99702C17.6364 10.0682 17.6403 10.1393 17.645 10.2102C17.645 10.5664 17.6076 10.921 17.5321 11.2694C17.5047 11.3885 17.4644 11.5037 17.4129 11.6144C17.3257 11.7956 17.1758 11.9393 16.9907 12.0188C16.5696 12.1988 16.0814 12.0031 15.9014 11.582C15.8079 11.3622 15.7509 11.1279 15.7324 10.8897C15.6726 10.3707 15.6821 9.84615 15.7604 9.32943C15.7873 9.11972 15.851 8.91673 15.9495 8.72938C16.0892 8.46039 16.3733 8.29767 16.6759 8.31274C16.9728 8.30214 17.2491 8.46601 17.3827 8.73164C17.5035 8.97039 17.5757 9.22988 17.5952 9.49667C17.6137 9.66255 17.623 9.82993 17.6324 9.99702ZM12.2446 9.29166C12.2289 9.24759 12.2145 9.20679 12.1995 9.16614C12.0171 8.67625 11.6503 8.42684 11.1436 8.3726C10.9507 8.34298 10.7533 8.35359 10.5648 8.40394C10.4413 8.4397 10.3299 8.50796 10.2422 8.60247C10.0615 8.8021 10.0811 9.02689 10.3104 9.16671C10.444 9.24558 10.5883 9.30539 10.7382 9.34455C10.9021 9.38958 11.0679 9.42812 11.2337 9.46667C11.3872 9.50233 11.5407 9.53804 11.6928 9.57884C12.0608 9.66779 12.4119 9.81428 12.7341 10.0134C13.0803 10.2287 13.3023 10.5972 13.3302 11.0038C13.3889 11.4165 13.2732 11.8348 13.0103 12.1586C12.8107 12.3929 12.5512 12.5685 12.2593 12.6664C11.869 12.7978 11.4557 12.8503 11.0447 12.8207C10.5609 12.7944 10.0873 12.672 9.65104 12.4606C9.63817 12.4545 9.6243 12.45 9.60664 12.4443C9.59819 12.4415 9.58883 12.4384 9.57837 12.4348L9.3927 12.696H8.73726V10.8835C8.85025 10.8662 8.96545 10.8617 9.0795 10.8696C9.15534 10.8676 9.23113 10.8681 9.31144 10.8686C9.3484 10.8688 9.38637 10.869 9.42568 10.869C9.43235 10.8864 9.43878 10.9035 9.44512 10.9203C9.46057 10.9613 9.47541 11.0007 9.49168 11.0396C9.71982 11.5831 10.1029 11.9472 10.694 12.0607C10.8903 12.106 11.0944 12.1015 11.2885 12.0479C11.3947 12.0165 11.4937 11.9662 11.5815 11.8985C11.7509 11.7778 11.7906 11.5423 11.6704 11.3729C11.6458 11.3382 11.6156 11.308 11.5809 11.2834C11.4384 11.1783 11.2801 11.0955 11.1123 11.0385C10.9237 10.9729 10.7316 10.9175 10.5396 10.862C10.4008 10.822 10.2621 10.782 10.1247 10.7381C9.89598 10.6694 9.6712 10.5883 9.45141 10.4955C9.03366 10.3098 8.72776 10.0078 8.63493 9.54865C8.48675 8.8155 8.79486 8.17801 9.46705 7.82343C9.75505 7.67636 10.0721 7.59418 10.3948 7.58132C11.0072 7.53601 11.6218 7.64727 12.1793 7.90455C12.1924 7.91074 12.2061 7.91574 12.224 7.92236C12.2336 7.92591 12.2444 7.92985 12.2571 7.93474L12.3929 7.7077H13.083V9.39937C13.0326 9.3998 12.9818 9.40043 12.9307 9.401C12.8521 9.40196 12.7728 9.40292 12.6938 9.40326C12.6052 9.40364 12.5171 9.4035 12.4265 9.4034H12.4257L12.2845 9.40326C12.2699 9.36308 12.2569 9.32636 12.2446 9.29166ZM8.15142 12.6669V11.9852C8.11825 11.9852 8.08677 11.9853 8.05638 11.9855C7.99849 11.9857 7.94449 11.9859 7.89025 11.9852C7.58545 11.9796 7.51446 11.9142 7.51336 11.6111C7.51053 10.666 7.51053 9.72087 7.51336 8.7758C7.51336 8.48218 7.58377 8.41844 7.88133 8.40783C7.89976 8.40735 7.91838 8.40754 7.93696 8.40778C7.96341 8.40807 7.98966 8.40836 8.01496 8.40668C8.04601 8.40466 8.07678 8.4015 8.10664 8.39842C8.11816 8.39722 8.12958 8.39607 8.14077 8.39497C8.17269 8.1735 8.16933 7.94814 8.13126 7.72782H5.23616V8.40615C5.26693 8.40615 5.29631 8.40601 5.32476 8.40586C5.37904 8.40562 5.42991 8.40543 5.48054 8.40615C5.80713 8.41172 5.88486 8.48612 5.88542 8.81271C5.8871 9.73542 5.8871 10.6587 5.88542 11.5815C5.88206 11.653 5.87312 11.7246 5.8597 11.7956C5.84907 11.8879 5.77525 11.9606 5.68298 11.9695C5.62258 11.9796 5.56163 11.9847 5.50067 11.9847C5.44016 11.9862 5.3791 11.9859 5.31711 11.9855C5.29031 11.9854 5.26333 11.9852 5.23616 11.9852V12.6669H8.15142Z" fill="#C9CBCF"/>
</svg>
