<svg width="98" height="25" viewBox="0 0 98 25" fill="none" xmlns="http://www.w3.org/2000/svg">
<path fill-rule="evenodd" clip-rule="evenodd" d="M35.2089 2.56539C35.2089 3.46877 34.4766 4.2011 33.5732 4.2011C32.6698 4.2011 31.9375 3.46877 31.9375 2.56539C31.9375 1.66202 32.6698 0.929688 33.5732 0.929688C34.4766 0.929688 35.2089 1.66202 35.2089 2.56539ZM7.75111 4.53178C7.75111 6.47372 6.17686 8.04796 4.23493 8.04796C2.293 8.04796 0.71875 6.47372 0.71875 4.53178C0.71875 2.58985 2.293 1.01561 4.23493 1.01561C6.17686 1.01561 7.75111 2.58985 7.75111 4.53178ZM22.2234 2.25H8.10393C8.5004 2.91933 8.72822 3.69992 8.72822 4.53349C8.72822 5.36705 8.49687 6.15912 8.0951 6.83198L8.11872 6.83041H8.11872H8.11872H8.11873H8.11873H8.11874H8.11874H8.11875H8.11875H8.11875H8.11876H8.11876H8.11877H8.11877H8.11878H8.11878H8.11878H8.11879H8.11879H8.1188H8.1188H8.11881H8.11881C8.15268 6.82812 8.18703 6.8258 8.22137 6.8258H19.713C20.7514 6.8258 21.5929 7.66732 21.5929 8.70575V17.0803C21.5929 18.1187 20.7514 18.9602 19.713 18.9602H8.22137C7.18294 18.9602 6.34142 18.1187 6.34142 17.0803V8.70575C6.34142 8.63422 6.34672 8.56358 6.35379 8.49294C5.72331 8.83025 5.00454 9.02187 4.23984 9.02187C3.32504 9.02187 2.47469 8.74725 1.76562 8.27837V18.6741C1.76562 21.3779 3.95728 23.5696 6.66108 23.5696H21.4296C23.9735 23.5696 26.0354 21.5077 26.0354 18.9638V6.06199C26.0354 3.95687 24.3285 2.25 22.2234 2.25ZM34.4243 5.09375H32.2812V16.0953H35.2005V5.86992C35.2005 5.44166 34.8526 5.09375 34.4243 5.09375ZM45.8281 5.21094L49.6569 16.103H52.494L56.2884 5.21094H54.3298C53.747 5.21094 53.2331 5.5924 53.0653 6.15047L51.0582 12.8128L48.8021 5.21094H45.8281ZM61.2065 4.92969C64.9655 4.92969 66.0587 8.04851 66.0587 9.91521V11.3272H58.9133C58.9133 12.981 59.7133 13.9939 61.2065 13.9939C62.6997 13.9939 63.286 12.7144 63.286 12.7144H65.8724C65.8724 12.7144 65.3125 16.2076 61.0997 16.2076C56.2475 16.2076 56.1406 11.728 56.1406 11.1152V9.78187C56.1406 7.08955 58.3535 4.92969 61.2065 4.92969ZM58.9133 9.59556H63.1527C63.1527 9.59556 63.4202 7.32885 61.0467 7.32885C58.6731 7.32885 58.9133 9.59556 58.9133 9.59556ZM41.0517 4.92969C36.7859 4.92969 36.3594 7.91606 36.3594 9.59556V16.0955H39.1585L39.1056 9.06221C39.1056 7.80921 40.1334 7.12222 41.0932 7.12222C42.3462 7.12222 42.9953 8.0229 42.9953 8.84941V14.5449C42.9953 15.4014 43.6893 16.0955 44.5458 16.0955H45.8262V8.58273C45.8262 8.20922 45.3176 4.92969 41.0517 4.92969ZM66.7734 9.59556C66.7734 7.91606 67.1999 4.92969 71.4658 4.92969C75.7317 4.92969 76.2403 8.20922 76.2403 8.58273V16.0955H74.9599C74.1034 16.0955 73.4093 15.4014 73.4093 14.5449V8.84941C73.4093 8.0229 72.7603 7.12222 71.5073 7.12222C70.5475 7.12222 69.5196 7.80921 69.5196 9.06221L69.5726 16.0955H66.7734V9.59556ZM83.9553 8.43377H86.7642C86.7642 8.43377 86.0534 4.91406 82.0357 4.91406C79.1561 4.91406 77.3336 7.30086 77.2011 9.07308C77.0943 10.4947 76.9168 12.9478 78.41 14.69C79.797 16.3083 81.5216 16.2694 82.1299 16.2557C82.1765 16.2547 82.2165 16.2538 82.2493 16.2538C83.2092 16.2538 85.9819 15.9341 86.9064 12.7341H85.2295L85.1961 12.7341C84.7194 12.7339 84.3288 12.7337 84.0233 13.0608L83.9965 13.0897C83.685 13.425 83.2342 13.9103 82.2131 13.9103C81.1623 13.9103 79.7778 13.3072 79.7778 10.6484C79.7778 7.98962 81.029 7.29645 81.9897 7.29645C82.9505 7.29645 83.4644 7.47482 83.9562 8.43201L83.9553 8.43377ZM87.3672 10.6133C87.3672 9.29763 87.535 4.89844 92.3306 4.89844C97.1263 4.89844 97.3126 9.50249 97.3126 10.6133C97.3126 11.6447 97.0539 16.2037 92.3306 16.2037C87.6074 16.2037 87.3672 11.929 87.3672 10.6133ZM90.0595 10.6575C90.0595 13.4787 91.2048 13.9238 92.3483 13.9238V13.9247C93.5386 13.9247 94.6768 13.0505 94.6768 10.5065C94.6768 7.96251 93.4538 7.32762 92.3483 7.32762C91.1809 7.32762 90.0595 7.83624 90.0595 10.6575ZM33.8131 23.4636C33.3238 23.4636 32.9414 23.3126 32.6685 23.0114C32.3947 22.7094 32.2578 22.2872 32.2578 21.744C32.2578 21.2008 32.3903 20.7769 32.6544 20.4536C32.9185 20.1304 33.2753 19.9688 33.7239 19.9688C34.1205 19.9688 34.434 20.1074 34.6628 20.3839C34.8924 20.6603 35.0064 21.0366 35.0064 21.5117V21.7599H32.5802C32.5846 22.2227 32.6924 22.576 32.9043 22.8198C33.1163 23.0635 33.4192 23.1854 33.814 23.1854C34.0066 23.1854 34.1753 23.1722 34.321 23.1448C34.4667 23.1183 34.6513 23.06 34.8739 22.9717V23.2508C34.684 23.3338 34.5082 23.3894 34.3475 23.4195C34.1867 23.4495 34.0083 23.4645 33.814 23.4645L33.8131 23.4636ZM33.7231 20.2408C33.3989 20.2408 33.1384 20.3476 32.9423 20.5614C32.7462 20.7751 32.6314 21.0834 32.5987 21.4861H34.6813C34.6813 21.0957 34.5966 20.7901 34.427 20.5702C34.2574 20.3503 34.0233 20.2399 33.7239 20.2399L33.7231 20.2408ZM36.5417 23.0088C36.8147 23.3126 37.1918 23.4645 37.6731 23.4645C38.022 23.4645 38.3046 23.4115 38.5192 23.3064V23.0211C38.2569 23.1306 37.9725 23.1854 37.6669 23.1854C37.2845 23.1854 36.9869 23.0565 36.774 22.7994C36.5612 22.5424 36.4552 22.2103 36.4552 21.7316C36.4552 21.2529 36.5612 20.8855 36.774 20.6303C36.9869 20.375 37.2995 20.2478 37.7129 20.2478C37.9284 20.2478 38.181 20.2964 38.4724 20.3936L38.5563 20.1207C38.2905 20.0191 38.0114 19.9688 37.7199 19.9688C37.228 19.9688 36.8403 20.1242 36.5576 20.4351C36.2741 20.7469 36.1328 21.1955 36.1328 21.7387C36.1328 22.2819 36.2688 22.7049 36.5417 23.0088ZM42.3958 21.7131C42.3958 22.2624 42.2624 22.6917 41.9957 23.0008C41.729 23.3099 41.3615 23.4645 40.8926 23.4645C40.5967 23.4645 40.337 23.393 40.1118 23.2508C39.8866 23.1077 39.7144 22.9037 39.5942 22.6369C39.4741 22.3702 39.4141 22.0628 39.4141 21.714C39.4141 21.1646 39.5474 20.7363 39.8142 20.4289C40.0809 20.1224 40.4465 19.9688 40.9111 19.9688C41.3757 19.9688 41.7369 20.1242 42.0001 20.4351C42.2633 20.746 42.3949 21.1726 42.3949 21.7131H42.3958ZM39.7364 21.7131C39.7364 22.1759 39.838 22.5371 40.042 22.7959C40.2452 23.0556 40.5331 23.1845 40.9049 23.1845C41.2768 23.1845 41.5647 23.0547 41.7678 22.7959C41.971 22.5371 42.0734 22.1759 42.0734 21.7131C42.0734 21.2503 41.971 20.8873 41.7652 20.6312C41.5594 20.375 41.2706 20.247 40.8987 20.247C40.5269 20.247 40.2399 20.3741 40.0385 20.6294C39.8371 20.8846 39.7364 21.2459 39.7364 21.7122V21.7131ZM47.8969 21.192V23.4018H48.1998V21.1982C48.1998 20.7707 48.108 20.4589 47.9243 20.2629C47.7406 20.0668 47.4641 19.9688 47.0967 19.9688C46.8609 19.9688 46.6507 20.02 46.4661 20.1233C46.2815 20.2266 46.134 20.375 46.0245 20.5667H46.0121C45.8611 20.1684 45.5202 19.9688 44.9894 19.9688C44.7827 19.9688 44.5937 20.0147 44.4223 20.1065C44.251 20.1984 44.1185 20.3282 44.0258 20.4951H44.0072L43.9419 20.0332H43.6875V23.4018H43.994V21.5426C43.994 21.0895 44.0752 20.761 44.236 20.5552C44.3976 20.3494 44.6546 20.247 45.0079 20.247C45.5281 20.247 45.7887 20.5314 45.7887 21.0993V23.4018H46.1013V21.4278C46.1013 21.0207 46.1843 20.7221 46.3495 20.5322C46.5147 20.3423 46.7699 20.247 47.1152 20.247C47.3802 20.247 47.5763 20.322 47.7043 20.4731C47.8324 20.6241 47.8969 20.8634 47.8969 21.192ZM53.85 23.4018V21.192C53.85 20.8634 53.7855 20.6241 53.6575 20.4731C53.5294 20.322 53.3333 20.247 53.0684 20.247C52.723 20.247 52.4678 20.3423 52.3026 20.5322C52.1375 20.7221 52.0544 21.0207 52.0544 21.4278V23.4018H51.7418V21.0993C51.7418 20.5314 51.4812 20.247 50.961 20.247C50.6077 20.247 50.3507 20.3494 50.1891 20.5552C50.0284 20.761 49.9471 21.0895 49.9471 21.5426V23.4018H49.6406V20.0332H49.895L49.9603 20.4951H49.9789C50.0716 20.3282 50.2041 20.1984 50.3755 20.1065C50.5468 20.0147 50.7358 19.9688 50.9425 19.9688C51.4733 19.9688 51.8142 20.1684 51.9652 20.5667H51.9776C52.0871 20.375 52.2346 20.2266 52.4192 20.1233C52.6038 20.02 52.814 19.9688 53.0498 19.9688C53.4172 19.9688 53.6937 20.0668 53.8774 20.2629C54.0611 20.4589 54.1529 20.7707 54.1529 21.1982V23.4018H53.85ZM55.8169 23.0114C56.0899 23.3126 56.4723 23.4636 56.9616 23.4636L56.9625 23.4645C57.1568 23.4645 57.3352 23.4495 57.4959 23.4195C57.6567 23.3894 57.8324 23.3338 58.0223 23.2508V22.9717C57.7998 23.06 57.6152 23.1183 57.4694 23.1448C57.3237 23.1722 57.155 23.1854 56.9625 23.1854C56.5677 23.1854 56.2647 23.0635 56.0528 22.8198C55.8408 22.576 55.733 22.2227 55.7286 21.7599H58.1548V21.5117C58.1548 21.0366 58.0409 20.6603 57.8112 20.3839C57.5825 20.1074 57.2689 19.9688 56.8724 19.9688C56.4237 19.9688 56.0669 20.1304 55.8028 20.4536C55.5387 20.7769 55.4062 21.2008 55.4062 21.744C55.4062 22.2872 55.5431 22.7094 55.8169 23.0114ZM56.0907 20.5614C56.2868 20.3476 56.5474 20.2408 56.8715 20.2408L56.8724 20.2399C57.1718 20.2399 57.4058 20.3503 57.5754 20.5702C57.745 20.7901 57.8298 21.0957 57.8298 21.4861H55.7472C55.7798 21.0834 55.8947 20.7751 56.0907 20.5614ZM60.7489 19.9688C60.891 19.9688 61.0445 19.9829 61.2068 20.012L61.1477 20.3061C61.0072 20.2708 60.8615 20.2531 60.7105 20.2531C60.4234 20.2531 60.1876 20.375 60.0039 20.6188C59.8202 20.8626 59.7283 21.1708 59.7283 21.5426V23.4018H59.4219V20.0332H59.6824L59.7133 20.6409H59.7354C59.8741 20.3927 60.0216 20.2187 60.1788 20.1189C60.3359 20.0192 60.5257 19.9688 60.7489 19.9688ZM62.3621 23.0088C62.635 23.3126 63.0121 23.4645 63.4934 23.4645C63.8423 23.4645 64.1249 23.4115 64.3396 23.3064V23.0211C64.0772 23.1306 63.7929 23.1854 63.4873 23.1854C63.1048 23.1854 62.8072 23.0565 62.5943 22.7994C62.3815 22.5424 62.2755 22.2103 62.2755 21.7316C62.2755 21.2529 62.3815 20.8855 62.5943 20.6303C62.8072 20.375 63.1198 20.2478 63.5332 20.2478C63.7487 20.2478 64.0013 20.2964 64.2927 20.3936L64.3767 20.1207C64.1108 20.0191 63.8317 19.9688 63.5403 19.9688C63.0483 19.9688 62.6606 20.1242 62.3779 20.4351C62.0944 20.7469 61.9531 21.1955 61.9531 21.7387C61.9531 22.2819 62.0891 22.7049 62.3621 23.0088ZM66.8131 23.4636C66.3238 23.4636 65.9414 23.3126 65.6685 23.0114C65.3947 22.7094 65.2578 22.2872 65.2578 21.744C65.2578 21.2008 65.3903 20.7769 65.6544 20.4536C65.9184 20.1304 66.2753 19.9688 66.7239 19.9688C67.1205 19.9688 67.4332 20.1074 67.6628 20.3839C67.8924 20.6603 68.0072 21.0366 68.0072 21.5117V21.7599H65.5811C65.5855 22.2227 65.6932 22.576 65.9052 22.8198C66.1172 23.0635 66.4201 23.1854 66.8149 23.1854C67.0075 23.1854 67.1761 23.1722 67.3219 23.1448C67.4676 23.1183 67.6522 23.06 67.8748 22.9717V23.2508C67.6849 23.3338 67.5091 23.3894 67.3484 23.4195C67.1876 23.4495 67.0092 23.4645 66.8149 23.4645L66.8131 23.4636ZM66.7231 20.2408C66.3989 20.2408 66.1384 20.3476 65.9423 20.5614C65.7462 20.7751 65.6314 21.0834 65.5978 21.4861H67.6805C67.6805 21.0957 67.5957 20.7901 67.4261 20.5702C67.2565 20.3503 67.0225 20.2399 66.7231 20.2399V20.2408ZM71.5078 23.4072H71.8142V18.5859H71.5078V23.4072ZM76.0911 21.7131C76.0911 22.2624 75.9577 22.6917 75.691 23.0008C75.4243 23.3099 75.0569 23.4645 74.5879 23.4645C74.292 23.4645 74.0323 23.393 73.8071 23.2508C73.5819 23.1077 73.4097 22.9037 73.2896 22.6369C73.1694 22.3702 73.1094 22.0628 73.1094 21.714C73.1094 21.1646 73.2427 20.7363 73.5095 20.4289C73.7762 20.1224 74.1418 19.9688 74.6064 19.9688C75.071 19.9688 75.4322 20.1242 75.6954 20.4351C75.9586 20.746 76.0902 21.1726 76.0902 21.7131H76.0911ZM73.4317 21.7131C73.4317 22.1759 73.5333 22.5371 73.7373 22.7959C73.9405 23.0556 74.2284 23.1845 74.6002 23.1845C74.9721 23.1845 75.26 23.0547 75.4631 22.7959C75.6663 22.5371 75.7687 22.1759 75.7687 21.7131C75.7687 21.2503 75.6663 20.8873 75.4605 20.6312C75.2547 20.375 74.9659 20.247 74.594 20.247C74.2222 20.247 73.9352 20.3741 73.7338 20.6294C73.5324 20.8846 73.4317 21.2459 73.4317 21.7122V21.7131ZM80.0048 20.2478V20.0341H78.9267C78.8048 19.9908 78.6335 19.9688 78.4128 19.9688C78.049 19.9688 77.7602 20.0712 77.5465 20.2743C77.3328 20.4783 77.226 20.7485 77.226 21.0849C77.226 21.3083 77.2807 21.5061 77.3902 21.6783C77.4997 21.8505 77.6525 21.9776 77.8485 22.058C77.5615 22.2293 77.4176 22.428 77.4176 22.6531C77.4176 22.7556 77.4485 22.8474 77.5094 22.9269C77.5704 23.0063 77.6516 23.0681 77.7531 23.1114C77.5068 23.167 77.3116 23.2712 77.1686 23.424C77.0247 23.5759 76.9531 23.7684 76.9531 23.9997C76.9531 24.2911 77.0697 24.5181 77.3019 24.6814C77.5341 24.8448 77.8618 24.926 78.2856 24.926C78.8181 24.926 79.2287 24.8298 79.5165 24.6364C79.8053 24.443 79.9492 24.1684 79.9492 23.8134C79.9492 23.5247 79.8521 23.3057 79.6578 23.1582C79.4635 23.0107 79.1836 22.9366 78.8181 22.9366H78.2291C78.0375 22.9366 77.9006 22.9118 77.8185 22.8624C77.7372 22.813 77.6966 22.7344 77.6966 22.6266C77.6966 22.5295 77.7284 22.4377 77.7929 22.3511C77.8573 22.2646 77.9501 22.1895 78.0719 22.1251C78.1337 22.1374 78.2414 22.1436 78.3942 22.1436C78.7571 22.1436 79.0468 22.043 79.2631 21.8416C79.4794 21.6403 79.5872 21.3772 79.5872 21.0531C79.5872 20.7767 79.4945 20.5224 79.3081 20.2911L80.0048 20.2478ZM78.3103 24.6664C77.6216 24.6664 77.2781 24.4351 77.2781 23.9724L77.279 23.9732C77.279 23.4876 77.588 23.2447 78.2052 23.2447H78.7571C79.0671 23.2447 79.2905 23.2898 79.4291 23.3807C79.5669 23.4717 79.6366 23.6183 79.6366 23.8205C79.6366 24.3847 79.1942 24.6664 78.3103 24.6664ZM77.7726 21.6906C77.6145 21.5467 77.535 21.3454 77.535 21.0849L77.5359 21.084C77.5359 20.8094 77.6127 20.5948 77.7664 20.4412C77.9209 20.2875 78.124 20.2107 78.4004 20.2107C78.6768 20.2107 78.8922 20.2822 79.0459 20.4262C79.2004 20.5701 79.2772 20.7855 79.2772 21.0725C79.2772 21.3436 79.2022 21.5502 79.0521 21.6924C78.9019 21.8346 78.6865 21.9061 78.4057 21.9061C78.1417 21.9061 77.9306 21.8337 77.7726 21.6906ZM81.0625 19.1023C81.0625 18.9036 81.1278 18.8047 81.2577 18.8047C81.3212 18.8047 81.3716 18.8303 81.4078 18.8824C81.444 18.9336 81.4616 19.0078 81.4616 19.1023C81.4616 19.1967 81.444 19.2683 81.4078 19.3221C81.3716 19.376 81.3212 19.4025 81.2577 19.4025C81.127 19.4025 81.0625 19.3027 81.0625 19.1023ZM81.4122 23.4061H81.1058V20.0383H81.4122V23.4061ZM84.6263 23.2207C84.8559 23.0582 84.9707 22.8268 84.9707 22.5248L84.9725 22.5256C84.9725 22.3746 84.9372 22.243 84.8683 22.1317C84.7985 22.0196 84.6952 21.9198 84.5565 21.8323C84.4179 21.7449 84.1971 21.646 83.8932 21.5364C83.5293 21.4066 83.2847 21.2883 83.1602 21.1832C83.0356 21.0781 82.9729 20.9376 82.9729 20.7619C82.9729 20.6011 83.0542 20.4748 83.2149 20.3839C83.3757 20.2929 83.5859 20.2478 83.8685 20.2478C84.1511 20.2478 84.4585 20.3167 84.7888 20.4527L84.9036 20.1737C84.5768 20.0368 84.2483 19.9688 83.8685 19.9688C83.4887 19.9688 83.1928 20.0421 82.9809 20.1887C82.7689 20.3353 82.6629 20.5349 82.6629 20.7866C82.6629 20.9456 82.6974 21.0807 82.7663 21.1911C82.8351 21.3015 82.9385 21.4013 83.0745 21.4888C83.2105 21.5762 83.4472 21.6813 83.7837 21.8032C84.0981 21.9145 84.3233 22.0284 84.4611 22.1441C84.598 22.2598 84.6669 22.402 84.6669 22.5716C84.6669 22.7553 84.5804 22.9028 84.4081 23.0132C84.2359 23.1236 83.9833 23.1792 83.6503 23.1792C83.2741 23.1792 82.9173 23.0944 82.5781 22.9249V23.2561C82.8422 23.3947 83.1999 23.4636 83.6503 23.4636C84.0716 23.4636 84.3975 23.3832 84.6263 23.2207ZM87.2667 23.1914C87.461 23.1914 87.6306 23.1746 87.7745 23.142V23.3902C87.6261 23.4396 87.4539 23.4643 87.2605 23.4643C86.9628 23.4643 86.7438 23.3849 86.6016 23.2259C86.4603 23.0669 86.3896 22.8169 86.3896 22.476V20.3007H85.8906V20.1205L86.3896 19.981L86.5442 19.2188H86.7023V20.034H87.6906V20.3007H86.7023V22.4328C86.7023 22.6906 86.7473 22.8823 86.8383 23.006C86.9293 23.1296 87.0715 23.1923 87.2658 23.1923L87.2667 23.1914ZM89.0545 18.8047C88.9247 18.8047 88.8594 18.9036 88.8594 19.1023C88.8594 19.3027 88.9238 19.4025 89.0545 19.4025C89.1181 19.4025 89.1684 19.376 89.2046 19.3221C89.2408 19.2683 89.2585 19.1967 89.2585 19.1023C89.2585 19.0078 89.2408 18.9336 89.2046 18.8824C89.1684 18.8303 89.1181 18.8047 89.0545 18.8047ZM88.9026 23.4061H89.2091V20.0383H88.9026V23.4061ZM92.0325 23.4645C91.5512 23.4645 91.174 23.3126 90.9011 23.0088C90.6282 22.7049 90.4922 22.2819 90.4922 21.7387C90.4922 21.1955 90.6335 20.7469 90.917 20.4351C91.1996 20.1242 91.5874 19.9688 92.0793 19.9688C92.3708 19.9688 92.6499 20.0191 92.9157 20.1207L92.8318 20.3936C92.5404 20.2964 92.2878 20.2478 92.0723 20.2478C91.6589 20.2478 91.3463 20.375 91.1334 20.6303C90.9205 20.8855 90.8146 21.2529 90.8146 21.7316C90.8146 22.2103 90.9205 22.5424 91.1334 22.7994C91.3463 23.0565 91.6439 23.1854 92.0263 23.1854C92.3319 23.1854 92.6163 23.1306 92.8786 23.0211V23.3064C92.664 23.4115 92.3823 23.4645 92.0325 23.4645ZM95.9466 23.2207C96.1762 23.0582 96.2911 22.8268 96.2911 22.5248L96.2928 22.5256C96.2928 22.3746 96.2575 22.243 96.1886 22.1317C96.1188 22.0196 96.0155 21.9198 95.8768 21.8323C95.7382 21.7449 95.5174 21.646 95.2135 21.5364C94.8497 21.4066 94.605 21.2883 94.4805 21.1832C94.3559 21.0781 94.2932 20.9376 94.2932 20.7619C94.2932 20.6011 94.3745 20.4748 94.5352 20.3839C94.696 20.2929 94.9062 20.2478 95.1888 20.2478C95.4714 20.2478 95.7788 20.3167 96.1091 20.4527L96.2239 20.1737C95.8971 20.0368 95.5686 19.9688 95.1888 19.9688C94.809 19.9688 94.5132 20.0421 94.3012 20.1887C94.0892 20.3353 93.9832 20.5349 93.9832 20.7866C93.9832 20.9456 94.0177 21.0807 94.0866 21.1911C94.1554 21.3015 94.2588 21.4013 94.3948 21.4888C94.5308 21.5762 94.7675 21.6813 95.104 21.8032C95.4184 21.9145 95.6437 22.0284 95.7814 22.1441C95.9183 22.2598 95.9872 22.402 95.9872 22.5716C95.9872 22.7553 95.9007 22.9028 95.7284 23.0132C95.5562 23.1236 95.3036 23.1792 94.9707 23.1792C94.5944 23.1792 94.2376 23.0944 93.8984 22.9249V23.2561C94.1625 23.3947 94.5202 23.4636 94.9707 23.4636C95.3919 23.4636 95.7179 23.3832 95.9466 23.2207Z" fill="url(#paint0_linear_540_5255)"/>
<defs>
<linearGradient id="paint0_linear_540_5255" x1="49.0157" y1="0.929687" x2="49.0157" y2="24.926" gradientUnits="userSpaceOnUse">
<stop stop-color="#C1C3C7"/>
<stop offset="1" stop-color="#898D94"/>
</linearGradient>
</defs>
</svg>
