<svg width="118" height="24" viewBox="0 0 118 24" fill="none" xmlns="http://www.w3.org/2000/svg">
<path d="M2.54116 7.84901V17.9549H0V3.86245H2.46825L6.77003 9.42623L11.1793 3.88109H13.5569V17.9549H11.0158V7.79462L6.85982 12.9218H6.56511L2.54116 7.84901ZM23.1483 17.9549H20.462V7.39138H22.7307L22.9664 9.59561C23.6203 8.08909 24.9626 7.09692 26.9596 7.09692C29.7901 7.09692 31.3512 8.91577 31.3512 11.7454V17.9549H28.665V12.4074C28.665 10.5194 28.0111 9.35708 26.0877 9.35708C24.0731 9.35708 23.1437 10.6251 23.1437 12.7734L23.1475 17.9541L23.1483 17.9549ZM42.0822 15.8245C41.4299 17.2952 40.0683 18.2089 37.9984 18.2089C35.0589 18.2089 32.9537 16.4453 32.9537 12.7345V12.5877C32.9537 9.05951 35.0037 7.11246 38.089 7.11246C39.9225 7.11246 41.2472 7.86533 41.9725 9.16984V3.88109H44.5681V17.9549H42.3148L42.0815 15.8237L42.0822 15.8245ZM42.0615 12.7236V12.6133C42.0615 10.5738 40.8458 9.3058 38.8672 9.3058C36.7259 9.3058 35.5148 10.5365 35.5148 12.6133V12.7423C35.5148 14.91 36.7981 15.9573 38.7943 15.9573C40.8819 15.9534 42.0615 14.7593 42.0615 12.7236ZM50.5077 17.9549L45.7892 7.39138H48.6351L51.7756 14.9799L55.0244 7.39138H57.9094L52.9568 17.9549H50.5077ZM70.8961 17.9557V3.88109H73.5647V17.9549L70.8961 17.9557ZM75.6645 17.9557V3.88109H78.3331V17.9549L75.6645 17.9557ZM85.8522 18.268C81.806 18.268 80.0093 16.1368 80.0093 12.9031V12.7384C80.0093 9.46819 82.1866 7.09769 85.9796 7.09769C89.8631 7.09769 91.7864 9.5047 91.7864 12.5364V13.6568H82.5903C82.8444 15.255 83.9511 16.1011 86.0011 16.1011C87.5076 16.1011 88.3427 15.6598 88.7602 14.8331H91.6644C90.8286 17.1476 88.8515 18.268 85.8522 18.268ZM82.6226 11.6351H89.1593C88.9237 10.0369 87.9251 9.19237 86.0379 9.19237C84.0961 9.19237 82.9534 10.0921 82.6264 11.6351H82.6226ZM92.5523 22.2173V19.8848H93.877C95.4381 19.8848 95.9093 19.4808 96.5993 18.1211L96.8534 17.5695L91.9898 7.39138H94.8571L98.0698 14.4648L98.1788 14.8867L98.3047 14.4827L101.482 7.39138H104.312L99.0315 18.585C97.5073 21.7643 96.8357 22.2219 93.8041 22.2219L92.5523 22.2173ZM17.049 7.55765C16.5793 7.57008 16.1104 7.51181 15.6576 7.38439V17.9549H18.3798V7.37584C17.9482 7.50567 17.4992 7.567 17.049 7.55765ZM17.0636 6.42796C18.0245 6.42796 18.5433 6.07211 18.5433 5.0069C18.5433 3.98754 18.0398 3.57031 17.0636 3.57031H17.0682C16.0866 3.57031 15.5885 3.98754 15.5885 5.0069C15.5885 6.07211 16.1065 6.42796 17.0682 6.42796H17.0636ZM104.191 3.84613L105.609 4.01629L107.628 4.40554C108.258 4.56249 108.922 4.73109 109.493 5.05197C110.488 5.6106 110.69 6.77836 110.69 7.84279V10.0058C106.152 7.6571 104.191 3.84613 104.191 3.84613ZM118 3.84613L116.582 4.01551L114.563 4.40476C113.933 4.56171 113.269 4.73031 112.698 5.05119C111.702 5.60982 111.501 6.77759 111.501 7.84202V10.0051C116.039 7.65632 118 3.84613 118 3.84613ZM66.5314 15.8151C65.77 17.3053 64.1545 18.3861 61.6678 18.3861C59.1635 18.3861 57.8403 17.3209 57.8403 15.4842C57.8403 14.2923 58.3484 13.3895 59.3124 12.8565C60.274 12.3064 61.1229 12.1697 63.6395 11.8628L66.4093 11.6033V10.6523C66.4093 9.84423 65.7746 9.23743 63.905 9.23743C61.8175 9.23743 61.0008 9.93281 60.8919 11.2241H58.1481C58.3837 8.66948 60.3431 7.21812 63.7193 7.21812C67.3672 7.21812 68.9636 8.44882 68.9636 11.1682V18.0761H66.8046L66.5321 15.8136L66.5314 15.8151ZM66.3986 13.2838L64.0816 13.5185C62.5205 13.684 61.8313 13.8168 61.3408 14.1066C60.8873 14.3817 60.6255 14.7025 60.6255 15.1788V15.1975C60.6255 15.9698 61.4038 16.3893 62.5205 16.3847C64.8437 16.366 66.3986 14.8276 66.3986 13.2838Z" fill="url(#paint0_linear_540_5225)"/>
<defs>
<linearGradient id="paint0_linear_540_5225" x1="59" y1="3.57031" x2="59" y2="22.2219" gradientUnits="userSpaceOnUse">
<stop stop-color="#C1C3C7"/>
<stop offset="1" stop-color="#898D94"/>
</linearGradient>
</defs>
</svg>
