<svg width="100" height="24" viewBox="0 0 100 24" fill="none" xmlns="http://www.w3.org/2000/svg">
<mask id="mask0_540_5229" style="mask-type:luminance" maskUnits="userSpaceOnUse" x="0" y="2" width="100" height="20">
<path d="M100 2H0V22H100V2Z" fill="white"/>
</mask>
<g mask="url(#mask0_540_5229)">
<path d="M42.585 21.5805H38.9397L30.9743 13.1889H29.4892V21.5805H26.7891V2H35.8346C39.6418 2 41.91 4.09792 41.91 7.59445C41.91 11.091 39.6418 13.1889 35.8346 13.1889H34.4845L42.585 21.5805ZM39.2098 7.59445C39.2098 5.60841 38.1297 4.37764 35.8346 4.37764H29.4892V10.8112H35.8346C38.1297 10.8112 39.2098 9.58046 39.2098 7.59445Z" fill="url(#paint0_linear_540_5229)"/>
<path d="M49.497 22.0019C45.1767 22.0019 42.4766 18.6732 42.4766 14.3095C42.4766 9.94587 45.1767 6.61719 49.3623 6.61719C52.7374 6.61719 54.7626 8.57524 55.6536 11.4843C55.9775 12.5753 56.1126 13.7781 56.1126 15.0088V15.2886H45.0688C45.15 17.6382 46.8239 19.904 49.497 19.904C51.7923 19.904 52.8454 18.5333 53.0613 17.5263H55.8424C55.1946 19.904 53.0343 22.0019 49.497 22.0019ZM45.0688 13.1906H53.5203C53.3853 10.6732 52.0892 8.71512 49.3623 8.71512C46.635 8.71512 45.15 10.813 45.0688 13.1906Z" fill="url(#paint1_linear_540_5229)"/>
<path d="M56 9.59442V7.35668H59.3751V4H61.9673V7.35668H65.6126V9.59442H61.9673V18.4057C61.9673 19.3847 62.2371 19.7204 63.1822 19.7204H65.6126V21.9022H62.6423C60.1852 21.9022 59.3751 20.6435 59.3751 18.4057V9.59442H56Z" fill="url(#paint2_linear_540_5229)"/>
<path d="M73.3117 6.61719C77.6323 6.61719 80.4672 9.94587 80.4672 14.3095C80.4672 18.6732 77.6323 22.0019 73.3117 22.0019C68.9915 22.0019 66.1562 18.6732 66.1562 14.3095C66.1562 9.94587 68.9915 6.61719 73.3117 6.61719ZM73.3117 8.85497C70.3689 8.85497 68.7485 11.3724 68.7485 14.3095C68.7485 17.2466 70.3689 19.7641 73.3117 19.7641C76.255 19.7641 77.875 17.2466 77.875 14.3095C77.875 11.3724 76.255 8.85497 73.3117 8.85497Z" fill="url(#paint3_linear_540_5229)"/>
<path d="M88.7723 6.61719C93.0929 6.61719 95.9278 9.94587 95.9278 14.3095C95.9278 18.6732 93.0929 22.0019 88.7723 22.0019C84.4521 22.0019 81.6172 18.6732 81.6172 14.3095C81.6172 9.94587 84.4521 6.61719 88.7723 6.61719ZM88.7723 8.85497C85.8294 8.85497 84.209 11.3724 84.209 14.3095C84.209 17.2466 85.8294 19.7641 88.7723 19.7641C91.7155 19.7641 93.3359 17.2466 93.3359 14.3095C93.3359 11.3724 91.7155 8.85497 88.7723 8.85497Z" fill="url(#paint4_linear_540_5229)"/>
<path d="M100.022 2V21.5805H97.4297V2H100.022Z" fill="url(#paint5_linear_540_5229)"/>
<path d="M11.8738 2.91778C11.8738 2.41091 11.4751 2 10.9833 2H0.890538C0.398709 2 0 2.41091 0 2.91778V7.20076C0 7.70765 0.398709 8.11855 0.890538 8.11855H10.9833C11.4751 8.11855 11.8738 8.52945 11.8738 9.03633V10.26C11.8738 10.7669 11.4751 11.1778 10.9833 11.1778H4.45269C3.96085 11.1778 3.56215 11.5887 3.56215 12.0956V16.3786C3.56215 16.8855 3.96085 17.2964 4.45269 17.2964H10.9833C11.4751 17.2964 11.8738 17.7073 11.8738 18.2141V20.6616C11.8738 21.1685 12.2725 21.5793 12.7644 21.5793H16.9202C17.4121 21.5793 17.8108 21.1685 17.8108 20.6616V16.3786C17.8108 15.8717 17.4121 15.4608 16.9202 15.4608H12.7644C12.2725 15.4608 11.8738 15.0499 11.8738 14.543V13.3193C11.8738 12.8124 12.2725 12.4015 12.7644 12.4015H16.9202C17.4121 12.4015 17.8108 11.9906 17.8108 11.4837V7.20076C17.8108 6.69388 17.4121 6.28298 16.9202 6.28298H12.7644C12.2725 6.28298 11.8738 5.87208 11.8738 5.3652V2.91778Z" fill="url(#paint6_linear_540_5229)"/>
</g>
<defs>
<linearGradient id="paint0_linear_540_5229" x1="34.687" y1="2" x2="34.687" y2="21.5805" gradientUnits="userSpaceOnUse">
<stop stop-color="#C1C3C7"/>
<stop offset="1" stop-color="#898D94"/>
</linearGradient>
<linearGradient id="paint1_linear_540_5229" x1="49.2946" y1="6.61719" x2="49.2946" y2="22.0019" gradientUnits="userSpaceOnUse">
<stop stop-color="#C1C3C7"/>
<stop offset="1" stop-color="#898D94"/>
</linearGradient>
<linearGradient id="paint2_linear_540_5229" x1="60.8063" y1="4" x2="60.8063" y2="21.9022" gradientUnits="userSpaceOnUse">
<stop stop-color="#C1C3C7"/>
<stop offset="1" stop-color="#898D94"/>
</linearGradient>
<linearGradient id="paint3_linear_540_5229" x1="73.3117" y1="6.61719" x2="73.3117" y2="22.0019" gradientUnits="userSpaceOnUse">
<stop stop-color="#C1C3C7"/>
<stop offset="1" stop-color="#898D94"/>
</linearGradient>
<linearGradient id="paint4_linear_540_5229" x1="88.7725" y1="6.61719" x2="88.7725" y2="22.0019" gradientUnits="userSpaceOnUse">
<stop stop-color="#C1C3C7"/>
<stop offset="1" stop-color="#898D94"/>
</linearGradient>
<linearGradient id="paint5_linear_540_5229" x1="98.7258" y1="2" x2="98.7258" y2="21.5805" gradientUnits="userSpaceOnUse">
<stop stop-color="#C1C3C7"/>
<stop offset="1" stop-color="#898D94"/>
</linearGradient>
<linearGradient id="paint6_linear_540_5229" x1="8.90538" y1="2" x2="8.90538" y2="21.5793" gradientUnits="userSpaceOnUse">
<stop stop-color="#C1C3C7"/>
<stop offset="1" stop-color="#898D94"/>
</linearGradient>
</defs>
</svg>
