<svg width="125" height="24" viewBox="0 0 125 24" fill="none" xmlns="http://www.w3.org/2000/svg">
<path d="M32.9402 8.22079C31.8422 7.5912 30.6019 7.27437 29.2192 7.27437C27.8364 7.27437 26.592 7.5912 25.4859 8.22079C24.3798 8.85038 23.5013 9.71557 22.8548 10.8082C22.2082 11.9049 21.8828 13.1601 21.8828 14.5736C21.8828 15.9871 22.2123 17.2219 22.867 18.3267C23.5218 19.4316 24.4042 20.3049 25.5103 20.9426C26.6165 21.5803 27.8528 21.9013 29.2151 21.9013C30.5775 21.9013 31.7893 21.5884 32.8955 20.9548C34.0016 20.3253 34.8841 19.456 35.5389 18.3551C36.1936 17.2503 36.523 15.9911 36.523 14.5776C36.523 13.1641 36.1976 11.909 35.551 10.8123C34.9045 9.71557 34.0301 8.85444 32.9321 8.22485L32.9402 8.22079ZM32.9158 16.9457C32.5457 17.6443 32.0374 18.1927 31.3989 18.5908C30.7605 18.9889 30.0325 19.1879 29.2232 19.1879C28.414 19.1879 27.682 18.9889 27.0312 18.5908C26.3847 18.1927 25.8722 17.6443 25.5022 16.9457C25.1321 16.2471 24.9451 15.4591 24.9451 14.5776C24.9451 13.6962 25.1321 12.9163 25.5022 12.2339C25.8722 11.5515 26.3847 11.0072 27.0312 10.6051C27.6779 10.1989 28.4099 9.99583 29.2232 9.99583C30.0365 9.99583 30.7605 10.1989 31.3989 10.6051C32.0374 11.0113 32.5417 11.5556 32.9158 12.2339C33.2858 12.9163 33.4729 13.6962 33.4729 14.5776C33.4729 15.4591 33.2858 16.2471 32.9158 16.9457Z" fill="url(#paint0_linear_540_5243)"/>
<path d="M42.632 8.01647C42.4571 8.11801 42.2985 8.23581 42.1481 8.36985C41.8552 8.63388 41.3876 8.4389 41.3876 8.04083C41.3876 7.789 41.1843 7.58997 40.9362 7.58997H39.0452C38.793 7.58997 38.5938 7.79306 38.5938 8.04083V21.1404C38.5938 21.3923 38.7971 21.5913 39.0452 21.5913H41.0664C41.3184 21.5913 41.5177 21.3882 41.5177 21.1404V13.5163C41.5177 12.4277 41.8146 11.5828 42.4124 10.9776C43.0101 10.3724 43.791 10.0718 44.7588 10.0718H45.5234C45.7756 10.0718 45.9748 9.86869 45.9748 9.62091V7.85805C45.9748 7.60621 45.7715 7.40718 45.5234 7.40718H45.1208C44.1529 7.40718 43.3233 7.61028 42.632 8.01647Z" fill="url(#paint1_linear_540_5243)"/>
<path d="M58.2188 8.01252C58.2188 8.43903 57.7349 8.68273 57.3933 8.4309C57.1574 8.25624 56.9012 8.09377 56.6247 7.95565C55.7503 7.50885 54.7621 7.28138 53.656 7.28138C52.3262 7.28138 51.1306 7.60228 50.0651 8.23998C49.0037 8.8777 48.1659 9.75101 47.5519 10.8558C46.9378 11.9607 46.6328 13.2036 46.6328 14.5847C46.6328 15.9657 46.9378 17.2087 47.5519 18.3135C48.1659 19.4183 49.0037 20.2957 50.0651 20.9416C51.1265 21.5873 52.3222 21.9123 53.656 21.9123C54.7459 21.9123 55.7341 21.6889 56.6247 21.2381C56.9419 21.0796 57.2306 20.8928 57.495 20.6816C57.8406 20.4053 58.349 20.6368 58.349 21.0796C58.349 21.368 58.5807 21.5995 58.8695 21.5995H60.6264C60.9151 21.5995 61.1468 21.368 61.1468 21.0796V2.52085C61.1468 2.23246 60.9151 2.00093 60.6264 2.00093H58.7394C58.4507 2.00093 58.2188 2.23246 58.2188 2.52085V8.01252ZM57.6617 16.9527C57.2917 17.6514 56.7833 18.1998 56.1448 18.5978C55.5064 18.9959 54.7784 19.1949 53.9691 19.1949C53.1599 19.1949 52.3993 18.9959 51.7528 18.5978C51.1062 18.1998 50.5978 17.6514 50.2359 16.9527C49.874 16.2541 49.691 15.4661 49.691 14.5847C49.691 13.7032 49.874 12.9233 50.2359 12.2409C50.5978 11.5586 51.1103 11.0143 51.765 10.6121C52.4198 10.2059 53.1558 10.0028 53.9691 10.0028C54.7824 10.0028 55.5064 10.2019 56.1448 10.5999C56.7833 10.998 57.2876 11.5464 57.6617 12.245C58.0318 12.9436 58.2188 13.7235 58.2188 14.5887C58.2188 15.4539 58.0318 16.2582 57.6617 16.9568V16.9527Z" fill="url(#paint2_linear_540_5243)"/>
<path d="M76.9838 15.0607L74.6496 8.07836C74.552 7.7859 74.2755 7.58687 73.9664 7.58687H72.3316C72.0225 7.58687 71.746 7.7859 71.6484 8.07836L69.2937 15.0648C69.0742 15.7188 68.1428 15.7188 67.9273 15.0607L65.6256 8.08242C65.528 7.7859 65.2515 7.58687 64.9424 7.58687H63.3604C62.8642 7.58687 62.5187 8.07429 62.6812 8.54142L67.0082 21.1089C67.11 21.3973 67.3824 21.5923 67.6874 21.5923H69.3223C69.6313 21.5923 69.9078 21.3933 70.0054 21.1008L72.4617 13.704C72.6813 13.0461 73.6085 13.0461 73.8282 13.704L76.2844 21.1008C76.3819 21.3933 76.6586 21.5923 76.9676 21.5923H78.578C78.883 21.5923 79.1596 21.3973 79.2572 21.1089L83.6044 8.54142C83.7671 8.07429 83.4174 7.58687 82.9254 7.58687H81.3475C81.0384 7.58687 80.7618 7.7859 80.6642 8.07836L78.3462 15.0607C78.1266 15.7188 77.1994 15.7188 76.9798 15.0607H76.9838Z" fill="url(#paint3_linear_540_5243)"/>
<path d="M14.3432 15.0607L12.009 8.07836C11.9114 7.7859 11.6348 7.58687 11.3257 7.58687H9.69093C9.38186 7.58687 9.10532 7.7859 9.00772 8.07836L6.6531 15.0648C6.4335 15.7188 5.50223 15.7188 5.28669 15.0607L2.98494 8.08242C2.88734 7.7859 2.6108 7.58687 2.30173 7.58687H0.719785C0.223647 7.58687 -0.122022 8.07429 0.0406463 8.54142L4.36762 21.1089C4.46929 21.3973 4.74176 21.5923 5.04676 21.5923H6.68157C6.99064 21.5923 7.26717 21.3933 7.36477 21.1008L9.82106 13.704C10.0407 13.0461 10.9679 13.0461 11.1875 13.704L13.6437 21.1008C13.7413 21.3933 14.0179 21.5923 14.327 21.5923H15.9373C16.2424 21.5923 16.5189 21.3973 16.6165 21.1089L20.9638 8.54142C21.1265 8.07429 20.7767 7.58687 20.2847 7.58687H18.7068C18.3977 7.58687 18.1212 7.7859 18.0236 8.07836L15.7056 15.0607C15.486 15.7188 14.5588 15.7188 14.3391 15.0607H14.3432Z" fill="url(#paint4_linear_540_5243)"/>
<path d="M105.843 8.01647C105.668 8.11801 105.509 8.23581 105.359 8.36985C105.066 8.63388 104.599 8.4389 104.599 8.04083C104.599 7.789 104.395 7.58997 104.147 7.58997H102.256C102.004 7.58997 101.805 7.79306 101.805 8.04083V21.1404C101.805 21.3923 102.008 21.5913 102.256 21.5913H104.277C104.529 21.5913 104.729 21.3882 104.729 21.1404V13.5163C104.729 12.4277 105.026 11.5828 105.623 10.9776C106.221 10.3724 107.002 10.0718 107.97 10.0718H108.734C108.987 10.0718 109.186 9.86869 109.186 9.62091V7.85805C109.186 7.60621 108.982 7.40718 108.734 7.40718H108.332C107.364 7.40718 106.534 7.61028 105.843 8.01647Z" fill="url(#paint5_linear_540_5243)"/>
<path d="M123.71 11.4662C123.409 10.6539 122.971 9.93491 122.401 9.30531C121.831 8.67572 121.132 8.18017 120.302 7.81866C119.473 7.45715 118.521 7.27437 117.451 7.27437C116.154 7.27437 114.983 7.5912 113.938 8.22079C112.893 8.85038 112.068 9.70744 111.462 10.796C110.856 11.8846 110.555 13.1357 110.555 14.5493C110.555 15.9628 110.856 17.1772 111.462 18.2903C112.068 19.4032 112.905 20.2846 113.975 20.9304C115.044 21.5763 116.281 21.9012 117.679 21.9012C118.647 21.9012 119.534 21.751 120.335 21.4463C121.14 21.1458 121.828 20.7354 122.409 20.2155C122.763 19.8987 123.059 19.5575 123.299 19.192C123.544 18.8183 123.414 18.3187 123.015 18.1196L121.88 17.5509C121.564 17.3925 121.185 17.4859 120.965 17.7662C120.661 18.148 120.302 18.473 119.883 18.7411C119.298 19.1188 118.57 19.3098 117.708 19.3098C116.895 19.3098 116.167 19.1107 115.516 18.7127C114.87 18.3146 114.365 17.7621 114.011 17.0554C113.901 16.8401 113.816 16.6085 113.747 16.3689C113.617 15.8937 113.967 15.4225 114.459 15.4225H123.394C123.771 15.4225 124.101 15.1342 124.129 14.7564C124.129 14.7564 124.129 14.7523 124.129 14.7483C124.145 14.5086 124.153 14.273 124.153 14.0495C124.153 13.1357 124.003 12.2705 123.698 11.4622L123.71 11.4662ZM114.007 11.9821C114.337 11.2591 114.801 10.7026 115.406 10.3127C116.012 9.92272 116.691 9.73181 117.451 9.73181C118.212 9.73181 118.912 9.92678 119.497 10.3127C120.083 10.6985 120.519 11.2266 120.795 11.8927C120.831 11.978 120.864 12.0674 120.888 12.1568C121.035 12.6239 120.669 13.095 120.177 13.095H114.645C114.121 13.095 113.755 12.5589 113.959 12.0755C113.971 12.043 113.987 12.0105 113.999 11.9821H114.007Z" fill="url(#paint6_linear_540_5243)"/>
<path d="M95.8829 8.09925C95.8829 8.52575 95.399 8.76947 95.0573 8.51762C94.8215 8.34297 94.5653 8.18049 94.2888 8.04239C93.4144 7.59558 92.4263 7.36812 91.3201 7.36812C89.9903 7.36812 88.7947 7.689 87.7292 8.32672C86.6678 8.96444 85.83 9.83775 85.216 10.9426C84.6019 12.0474 84.2969 13.2903 84.2969 14.6714C84.2969 16.0524 84.6019 17.2954 85.216 18.4002C85.83 19.505 86.6678 20.3824 87.7292 21.0283C88.7906 21.674 89.9862 21.9991 91.3201 21.9991C92.41 21.9991 93.3982 21.7756 94.2888 21.3248C94.6059 21.1663 94.8948 20.9795 95.1591 20.7683C95.5048 20.492 96.013 20.7236 96.013 21.1663C96.013 21.4547 96.2449 21.6862 96.5336 21.6862H98.2904C98.5791 21.6862 98.811 21.4547 98.811 21.1663V8.09113C98.811 7.80274 98.5791 7.57121 98.2904 7.57121H96.4035C96.1148 7.57121 95.8829 7.80274 95.8829 8.09113V8.09925ZM95.3258 17.0354C94.9557 17.734 94.4474 18.2824 93.8089 18.6805C93.1704 19.0785 92.4425 19.2776 91.6332 19.2776C90.824 19.2776 90.0635 19.0785 89.4169 18.6805C88.7702 18.2824 88.262 17.734 87.8999 17.0354C87.538 16.3367 87.355 15.5487 87.355 14.6673C87.355 13.7859 87.538 13.006 87.8999 12.3236C88.262 11.6412 88.7743 11.0969 89.4291 10.6948C90.0838 10.2886 90.8199 10.0855 91.6332 10.0855C92.4466 10.0855 93.1704 10.2845 93.8089 10.6826C94.4474 11.0807 94.9516 11.629 95.3258 12.3277C95.6959 13.0263 95.8829 13.8062 95.8829 14.6714C95.8829 15.5366 95.6959 16.3408 95.3258 17.0394V17.0354Z" fill="url(#paint7_linear_540_5243)"/>
<defs>
<linearGradient id="paint0_linear_540_5243" x1="29.2029" y1="7.27437" x2="29.2029" y2="21.9013" gradientUnits="userSpaceOnUse">
<stop stop-color="#C1C3C7"/>
<stop offset="1" stop-color="#898D94"/>
</linearGradient>
<linearGradient id="paint1_linear_540_5243" x1="42.2843" y1="7.40718" x2="42.2843" y2="21.5913" gradientUnits="userSpaceOnUse">
<stop stop-color="#C1C3C7"/>
<stop offset="1" stop-color="#898D94"/>
</linearGradient>
<linearGradient id="paint2_linear_540_5243" x1="53.8898" y1="2.00093" x2="53.8898" y2="21.9123" gradientUnits="userSpaceOnUse">
<stop stop-color="#C1C3C7"/>
<stop offset="1" stop-color="#898D94"/>
</linearGradient>
<linearGradient id="paint3_linear_540_5243" x1="73.1427" y1="7.58687" x2="73.1427" y2="21.5923" gradientUnits="userSpaceOnUse">
<stop stop-color="#C1C3C7"/>
<stop offset="1" stop-color="#898D94"/>
</linearGradient>
<linearGradient id="paint4_linear_540_5243" x1="10.5021" y1="7.58687" x2="10.5021" y2="21.5923" gradientUnits="userSpaceOnUse">
<stop stop-color="#C1C3C7"/>
<stop offset="1" stop-color="#898D94"/>
</linearGradient>
<linearGradient id="paint5_linear_540_5243" x1="105.495" y1="7.40718" x2="105.495" y2="21.5913" gradientUnits="userSpaceOnUse">
<stop stop-color="#C1C3C7"/>
<stop offset="1" stop-color="#898D94"/>
</linearGradient>
<linearGradient id="paint6_linear_540_5243" x1="117.354" y1="7.27437" x2="117.354" y2="21.9012" gradientUnits="userSpaceOnUse">
<stop stop-color="#C1C3C7"/>
<stop offset="1" stop-color="#898D94"/>
</linearGradient>
<linearGradient id="paint7_linear_540_5243" x1="91.5539" y1="7.36812" x2="91.5539" y2="21.9991" gradientUnits="userSpaceOnUse">
<stop stop-color="#C1C3C7"/>
<stop offset="1" stop-color="#898D94"/>
</linearGradient>
</defs>
</svg>
