<svg width="24" height="24" viewBox="0 0 24 24" fill="none" xmlns="http://www.w3.org/2000/svg">
<rect width="24" height="24" rx="4" fill="url(#paint0_linear_20100_26505)"/>
<rect x="0.5" y="0.5" width="23" height="23" rx="3.5" stroke="url(#paint1_linear_20100_26505)" stroke-opacity="0.1"/>
<path d="M17 6.99927H7V10.6356H17V6.99927Z" stroke="#C9CBCF" stroke-width="0.909091" stroke-linecap="round" stroke-linejoin="round"/>
<path d="M8.81641 8.8175H10.6346" stroke="#C9CBCF" stroke-width="0.909091" stroke-linecap="round" stroke-linejoin="round"/>
<path d="M15.1811 9.27201C15.4321 9.27201 15.6357 9.0685 15.6357 8.81746C15.6357 8.56642 15.4321 8.36292 15.1811 8.36292C14.9301 8.36292 14.7266 8.56642 14.7266 8.81746C14.7266 9.0685 14.9301 9.27201 15.1811 9.27201Z" fill="#C9CBCF"/>
<path d="M17 13.3629H7V16.9993H17V13.3629Z" stroke="#C9CBCF" stroke-width="0.909091" stroke-linecap="round" stroke-linejoin="round"/>
<path d="M8.81641 15.181H10.6346" stroke="#C9CBCF" stroke-width="0.909091" stroke-linecap="round" stroke-linejoin="round"/>
<path d="M15.1811 15.6357C15.4321 15.6357 15.6357 15.4321 15.6357 15.1811C15.6357 14.9301 15.4321 14.7266 15.1811 14.7266C14.9301 14.7266 14.7266 14.9301 14.7266 15.1811C14.7266 15.4321 14.9301 15.6357 15.1811 15.6357Z" fill="#C9CBCF"/>
<defs>
<linearGradient id="paint0_linear_20100_26505" x1="12" y1="0" x2="12" y2="24" gradientUnits="userSpaceOnUse">
<stop offset="0.3125" stop-color="#242628"/>
<stop offset="1" stop-color="#1D1E20"/>
</linearGradient>
<linearGradient id="paint1_linear_20100_26505" x1="12" y1="0" x2="12" y2="24" gradientUnits="userSpaceOnUse">
<stop stop-color="white"/>
<stop offset="1" stop-color="white" stop-opacity="0.05"/>
</linearGradient>
</defs>
</svg>
