<svg width="22" height="22" viewBox="0 0 22 22" fill="none" xmlns="http://www.w3.org/2000/svg">
<path d="M12.1719 9.82823L14.6652 7.3349H19.0285C20.0608 7.3349 20.8985 6.49714 20.8985 5.4649V2.97156C20.8985 1.93932 20.0608 1.10156 19.0285 1.10156H14.0419C13.0096 1.10156 12.1719 1.93932 12.1719 2.97156V9.82823Z" stroke="#00E599" stroke-miterlimit="10" stroke-linecap="round" stroke-linejoin="round"/>
<path d="M9.68313 9.82812H4.07313C3.04088 9.82812 2.20312 10.6659 2.20312 11.6981V17.9315C2.20312 18.9637 3.04088 19.8015 4.07313 19.8015H16.5398C17.572 19.8015 18.4098 18.9637 18.4098 17.9315V11.6981C18.4098 10.6659 17.572 9.82812 16.5398 9.82812H15.9165" stroke="#00E599" stroke-miterlimit="10" stroke-linecap="round" stroke-linejoin="round"/>
<path d="M7.1875 7.33708V4.84375" stroke="#00E599" stroke-miterlimit="10" stroke-linecap="round" stroke-linejoin="round"/>
<path d="M7.19365 4.84042C7.5379 4.84042 7.81698 4.56134 7.81698 4.21708C7.81698 3.87283 7.5379 3.59375 7.19365 3.59375C6.84939 3.59375 6.57031 3.87283 6.57031 4.21708C6.57031 4.56134 6.84939 4.84042 7.19365 4.84042Z" stroke="#00E599" stroke-miterlimit="10" stroke-linecap="square" stroke-linejoin="round"/>
<path d="M6.55917 15.4386C7.24768 15.4386 7.80583 14.8805 7.80583 14.192C7.80583 13.5035 7.24768 12.9453 6.55917 12.9453C5.87065 12.9453 5.3125 13.5035 5.3125 14.192C5.3125 14.8805 5.87065 15.4386 6.55917 15.4386Z" fill="#00E599"/>
<path d="M14.0435 15.4386C14.7321 15.4386 15.2902 14.8805 15.2902 14.192C15.2902 13.5035 14.7321 12.9453 14.0435 12.9453C13.355 12.9453 12.7969 13.5035 12.7969 14.192C12.7969 14.8805 13.355 15.4386 14.0435 15.4386Z" fill="#00E599"/>
</svg>
