<svg width="22" height="22" viewBox="0 0 22 22" fill="none" xmlns="http://www.w3.org/2000/svg">
<path d="M6.72121 4.17969C4.90781 5.1792 3.50361 6.78455 2.75432 8.71484C2.00502 10.6451 1.95835 12.7774 2.62246 14.7387" stroke="#00E599" stroke-miterlimit="10" stroke-linecap="round"/>
<path d="M3.33988 18.1172C4.31718 18.1172 5.10944 17.325 5.10944 16.3477C5.10944 15.3704 4.31718 14.5781 3.33988 14.5781C2.36257 14.5781 1.57031 15.3704 1.57031 16.3477C1.57031 17.325 2.36257 18.1172 3.33988 18.1172Z" stroke="#00E599" stroke-miterlimit="10" stroke-linecap="square"/>
<path d="M17.6294 17.7734C16.2643 19.3281 14.3959 20.3532 12.3512 20.6691C10.3066 20.985 8.21593 20.5717 6.44531 19.5014" stroke="#00E599" stroke-miterlimit="10" stroke-linecap="round"/>
<path d="M19.8459 12.0823C19.8459 12.0288 19.8482 11.9748 19.8482 11.9209C19.8476 9.87837 19.1405 7.89897 17.8467 6.31851C16.5529 4.73806 14.7521 3.6539 12.75 3.25" stroke="#00E599" stroke-miterlimit="10" stroke-linecap="round"/>
<path d="M18.6602 18.1172C19.6375 18.1172 20.4298 17.325 20.4298 16.3477C20.4298 15.3704 19.6375 14.5781 18.6602 14.5781C17.6829 14.5781 16.8906 15.3704 16.8906 16.3477C16.8906 17.325 17.6829 18.1172 18.6602 18.1172Z" stroke="#00E599" stroke-miterlimit="10" stroke-linecap="square"/>
<path d="M11.0039 4.84381C11.9812 4.84381 12.7735 4.05155 12.7735 3.07425C12.7735 2.09695 11.9812 1.30469 11.0039 1.30469C10.0266 1.30469 9.23438 2.09695 9.23438 3.07425C9.23438 4.05155 10.0266 4.84381 11.0039 4.84381Z" stroke="#00E599" stroke-miterlimit="10" stroke-linecap="square"/>
</svg>
