<svg width="22" height="22" viewBox="0 0 22 22" fill="none" xmlns="http://www.w3.org/2000/svg">
<path d="M17.6802 9.49314V5.10713C17.6802 4.89879 17.5974 4.69897 17.4501 4.55165C17.3028 4.40433 17.103 4.32156 16.8946 4.32156H9.1316C8.98575 4.32148 8.8428 4.2808 8.71876 4.20408C8.59472 4.12735 8.49449 4.01761 8.4293 3.88714L7.68457 2.39927C7.61938 2.2688 7.51915 2.15905 7.39511 2.08233C7.27107 2.0056 7.12812 1.96492 6.98227 1.96484H2.75432C2.54598 1.96484 2.34616 2.04761 2.19884 2.19493C2.05152 2.34226 1.96875 2.54207 1.96875 2.75042V14.534C1.96875 14.7423 2.05152 14.9422 2.19884 15.0895C2.34616 15.2368 2.54598 15.3196 2.75432 15.3196H8.71876" stroke="#00E599" stroke-linecap="round" stroke-linejoin="round"/>
<path d="M14.9641 18.5063C16.9291 18.5063 18.522 16.9134 18.522 14.9485C18.522 12.9835 16.9291 11.3906 14.9641 11.3906C12.9992 11.3906 11.4062 12.9835 11.4062 14.9485C11.4062 16.9134 12.9992 18.5063 14.9641 18.5063Z" stroke="#00E599" stroke-linecap="round" stroke-linejoin="round"/>
<path d="M20.0359 20.0359L17.4844 17.4844" stroke="#00E599" stroke-linecap="round" stroke-linejoin="round"/>
</svg>
