<svg preserveAspectRatio="none" overflow="visible" style="display: block;" width="15.2195" height="15.2199" viewBox="0 0 15.2195 15.2199" fill="none" xmlns="http://www.w3.org/2000/svg">
<g id="Group">
<path id="Vector" fill-rule="evenodd" clip-rule="evenodd" d="M3.21895 12.9438L0.94281 15.2199L0 14.2771L2.27614 12.001L3.21895 12.9438Z" fill="white"/>
<path id="Vector_2" fill-rule="evenodd" clip-rule="evenodd" d="M7.22152 6.2766L5.08343 8.41466L4.14062 7.47186L6.27869 5.33379L7.22152 6.2766Z" fill="white"/>
<path id="Vector_3" fill-rule="evenodd" clip-rule="evenodd" d="M9.88562 8.94378L7.74755 11.0818L6.80469 10.139L8.94282 8.00098L9.88562 8.94378Z" fill="white"/>
<path id="Vector_4" fill-rule="evenodd" clip-rule="evenodd" d="M15.2195 0.942806L12.9428 3.21944L12 2.27663L14.2766 0L15.2195 0.942806Z" fill="white"/>
<path id="Vector_5" d="M3.42478 5.72871L1.80344 7.34856C0.999015 8.15296 0.546875 9.24422 0.546875 10.3819C0.546875 11.5195 0.998795 12.6106 1.80323 13.415C2.60766 14.2194 3.6987 14.6714 4.83633 14.6714C5.97397 14.6714 7.06499 14.2194 7.86946 13.415L9.48952 11.7941L3.42478 5.72871Z" fill="white"/>
<path id="Vector_6" d="M10.3797 0.549316C9.24208 0.549316 8.15101 1.00124 7.34661 1.80567L5.72656 3.42719L11.7913 9.49188L13.4126 7.87208C14.217 7.06768 14.6691 5.97641 14.6691 4.83878C14.6691 3.70114 14.2172 2.6101 13.4128 1.80567C12.6083 1.00124 11.5173 0.549316 10.3797 0.549316Z" fill="white"/>
</g>
</svg>
