<svg width="20" height="20" viewBox="0 0 20 20" fill="none" xmlns="http://www.w3.org/2000/svg">
<mask id="mask0_57_184" style="mask-type:luminance" maskUnits="userSpaceOnUse" x="2" y="2" width="16" height="16">
<path d="M17.1946 2.80469V17.1953H2.80396V2.80469H17.1946Z" fill="white" stroke="white"/>
</mask>
<g mask="url(#mask0_57_184)">
<path d="M12.4042 5.66382H17.2137M2.78503 5.66382H4.70886M4.70886 5.66382C4.70886 5.02603 4.96222 4.41436 5.41321 3.96338C5.86419 3.51239 6.47586 3.25903 7.11365 3.25903C7.75144 3.25903 8.3631 3.51239 8.81409 3.96338C9.26507 4.41436 9.51843 5.02603 9.51843 5.66382C9.51843 6.30161 9.26507 6.91327 8.81409 7.36426C8.3631 7.81524 7.75144 8.0686 7.11365 8.0686C6.47586 8.0686 5.86419 7.81524 5.41321 7.36426C4.96222 6.91327 4.70886 6.30161 4.70886 5.66382ZM7.5946 14.321H2.78503M17.2137 14.321H15.2899M15.2899 14.321C15.2899 14.9588 15.0366 15.5705 14.5856 16.0215C14.1346 16.4725 13.5229 16.7258 12.8851 16.7258C12.2473 16.7258 11.6357 16.4725 11.1847 16.0215C10.7337 15.5705 10.4803 14.9588 10.4803 14.321C10.4803 13.6833 10.7337 13.0716 11.1847 12.6206C11.6357 12.1696 12.2473 11.9163 12.8851 11.9163C13.5229 11.9163 14.1346 12.1696 14.5856 12.6206C15.0366 13.0716 15.2899 13.6833 15.2899 14.321Z" stroke="#00E599" stroke-linecap="round" stroke-linejoin="round"/>
</g>
</svg>
