<svg width="20" height="20" viewBox="0 0 20 20" fill="none" xmlns="http://www.w3.org/2000/svg">
<path d="M5.71736 17.7111C6.82095 17.7111 7.7156 16.8166 7.7156 15.7132C7.7156 14.6098 6.82095 13.7153 5.71736 13.7153C4.61376 13.7153 3.71912 14.6098 3.71912 15.7132C3.71912 16.8166 4.61376 17.7111 5.71736 17.7111Z" stroke="#00E599" stroke-linecap="round" stroke-linejoin="round"/>
<path d="M7.71535 15.9946H13.2824C14.9375 15.9946 16.2792 14.6529 16.2792 12.9978V12.9978C16.2792 11.3427 14.9375 10.001 13.2824 10.001H10.2845H7.00121C5.50374 10.001 4.28979 8.78702 4.28979 7.28954V7.28954C4.28979 5.79207 5.50374 4.57812 7.00122 4.57812H13.9955H16.2792" stroke="#00E599"/>
<path d="M13.9919 2.28882L16.2756 4.57212L13.9919 6.85542" stroke="#00E599" stroke-linecap="round"/>
</svg>
