<svg width="20" height="20" viewBox="0 0 20 20" fill="none" xmlns="http://www.w3.org/2000/svg">
<path d="M3.01343 8.7073C3.30332 7.1331 4.11647 5.70294 5.32106 4.64872C6.52564 3.5945 8.05103 2.97802 9.6499 2.89924C11.2488 2.82045 12.8274 3.28398 14.1298 4.21467C15.4322 5.14535 16.3821 6.48863 16.8253 8.02671" stroke="#00E599" stroke-linecap="round" stroke-linejoin="round"/>
<path d="M17.103 2.89746V8.06323L11.9768 7.42655" stroke="#00E599" stroke-linecap="round" stroke-linejoin="round"/>
<path d="M16.985 11.2925C16.6951 12.8667 15.882 14.2968 14.6774 15.3511C13.4728 16.4053 11.9474 17.0218 10.3485 17.1005C8.74965 17.1793 7.17103 16.7158 5.86862 15.7851C4.56622 14.8544 3.61637 13.5112 3.1731 11.9731" stroke="#00E599" stroke-linecap="round" stroke-linejoin="round"/>
<path d="M2.89453 17.0969V11.9312L8.02072 12.5678" stroke="#00E599" stroke-linecap="round" stroke-linejoin="round"/>
</svg>
