<svg width="20" height="20" viewBox="0 0 20 20" fill="none" xmlns="http://www.w3.org/2000/svg">
<path d="M9.9991 12.0929C11.1562 12.0929 12.0943 11.1549 12.0943 9.99776C12.0943 8.84063 11.1562 7.90259 9.9991 7.90259C8.84197 7.90259 7.90393 8.84063 7.90393 9.99776C7.90393 11.1549 8.84197 12.0929 9.9991 12.0929Z" stroke="#00E599" stroke-linecap="round" stroke-linejoin="round"/>
<path d="M15.587 9.99992C15.5812 9.52773 15.5146 9.05827 15.3887 8.60314L17.1766 7.06668L16.129 5.25087L13.9235 6.02748C13.2425 5.36073 12.4018 4.87981 11.4819 4.6307L11.0475 2.31763H8.95231L8.51791 4.63628C7.59799 4.8854 6.75734 5.36632 6.07634 6.03306L3.87083 5.25087L2.82324 7.06668L4.61112 8.60314C4.48523 9.05827 4.41857 9.52773 4.41278 9.99992C4.41857 10.4721 4.48523 10.9416 4.61112 11.3967L2.82324 12.9332L3.87083 14.749L6.07634 13.9738C6.75734 14.6405 7.59799 15.1214 8.51791 15.3705L8.95231 17.6822H11.0475L11.4819 15.3636C12.4018 15.1144 13.2425 14.6335 13.9235 13.9668L16.129 14.742L17.1766 12.9262L15.3887 11.3967C15.5146 10.9416 15.5812 10.4721 15.587 9.99992Z" stroke="#00E599" stroke-linecap="round" stroke-linejoin="round"/>
</svg>
