<svg width="20" height="20" viewBox="0 0 20 20" fill="none" xmlns="http://www.w3.org/2000/svg">
  <g>
    <path d="M7.32 12.68C7.32 13.52 6.64 14.2 5.8 14.2C4.96 14.2 4.28 13.52 4.28 12.68C4.28 11.84 4.96 11.16 5.8 11.16H7.32V12.68Z" fill="#E01E5A"/>
    <path d="M8.08 12.68C8.08 11.84 8.76 11.16 9.6 11.16C10.44 11.16 11.12 11.84 11.12 12.68V16.48C11.12 17.32 10.44 18 9.6 18C8.76 18 8.08 17.32 8.08 16.48V12.68Z" fill="#E01E5A"/>
    <path d="M9.6 7.32C8.76 7.32 8.08 6.64 8.08 5.8C8.08 4.96 8.76 4.28 9.6 4.28C10.44 4.28 11.12 4.96 11.12 5.8V7.32H9.6Z" fill="#36C5F0"/>
    <path d="M9.6 8.08C10.44 8.08 11.12 8.76 11.12 9.6C11.12 10.44 10.44 11.12 9.6 11.12H5.8C4.96 11.12 4.28 10.44 4.28 9.6C4.28 8.76 4.96 8.08 5.8 8.08H9.6Z" fill="#36C5F0"/>
    <path d="M14.96 9.6C14.96 8.76 15.64 8.08 16.48 8.08C17.32 8.08 18 8.76 18 9.6C18 10.44 17.32 11.12 16.48 11.12H14.96V9.6Z" fill="#2EB67D"/>
    <path d="M14.2 9.6C14.2 10.44 13.52 11.12 12.68 11.12C11.84 11.12 11.16 10.44 11.16 9.6V5.8C11.16 4.96 11.84 4.28 12.68 4.28C13.52 4.28 14.2 4.96 14.2 5.8V9.6Z" fill="#2EB67D"/>
    <path d="M12.68 14.96C13.52 14.96 14.2 15.64 14.2 16.48C14.2 17.32 13.52 18 12.68 18C11.84 18 11.16 17.32 11.16 16.48V14.96H12.68Z" fill="#ECB22E"/>
    <path d="M12.68 14.2C11.84 14.2 11.16 13.52 11.16 12.68C11.16 11.84 11.84 11.16 12.68 11.16H16.48C17.32 11.16 18 11.84 18 12.68C18 13.52 17.32 14.2 16.48 14.2H12.68Z" fill="#ECB22E"/>
  </g>
</svg>
