<svg width="145" height="42" viewBox="0 0 145 42" fill="none" xmlns="http://www.w3.org/2000/svg">
<g clip-path="url(#clip0_19849_12429)">
<path fill-rule="evenodd" clip-rule="evenodd" d="M39.5707 0.470979C41.9852 3.22021 42.7347 10.667 41.4887 14.3997C41.0747 15.6409 40.9581 16.9523 41.1966 18.2262C41.4399 19.4907 41.6832 21.0176 41.6832 22.0807C41.6832 32.9934 32.4883 41.845 21.1419 41.845C9.80031 41.845 0.600528 32.9981 0.600528 22.0807C0.600528 21.0176 0.843908 19.4907 1.08729 18.2262C1.33067 16.9523 1.21872 15.6409 0.804967 14.3997C-0.441145 10.6716 0.308469 3.22488 2.72281 0.470979C3.0392 0.115031 3.6282 0.161867 3.89104 0.559964L6.86515 5.05145C7.60504 5.946 8.92902 6.1568 9.92201 5.5292C13.1492 3.49654 17.0044 2.31628 21.1468 2.31628C25.2892 2.31628 29.1442 3.49654 32.3714 5.5292C33.3695 6.1568 34.6934 5.9507 35.4285 5.05145L38.4025 0.559964C38.6655 0.161867 39.2543 0.110348 39.5707 0.470979ZM5.2394 22.1276C5.2394 30.5672 12.3705 37.4334 21.1419 37.4334C29.9134 37.4334 37.0492 30.5672 37.0542 22.1322C37.0542 21.8606 37.0445 21.5843 37.0298 21.3126C36.7134 15.5659 33.0822 10.6482 27.9469 8.3065C25.883 7.35575 23.5806 6.8312 21.1468 6.8312C18.713 6.8312 16.4057 7.35575 14.3467 8.30185C9.21135 10.6436 5.58009 15.5566 5.26371 21.3079C5.24909 21.5796 5.2394 21.8512 5.2394 22.1276ZM23.9763 21.2376L28.0408 28.0194C28.1236 28.1553 28.1236 28.3238 28.0408 28.455C27.9629 28.5908 27.8119 28.6751 27.6465 28.6751H24.3414C24.1808 28.6751 24.0299 28.5908 23.9471 28.455L21.7762 24.8345L19.357 28.4689C19.2742 28.5954 19.1282 28.6704 18.9724 28.6704H15.6186C15.4483 28.6704 15.2925 28.5813 15.2147 28.4408C15.1367 28.3003 15.1416 28.1272 15.2341 27.9913L19.7075 21.4249L16.3731 16.0342C16.2904 15.8984 16.2855 15.7298 16.3683 15.594C16.451 15.4534 16.6019 15.3691 16.7674 15.3691H20.0969C20.2575 15.3691 20.4084 15.4488 20.4911 15.5846L23.9763 21.2376ZM60.6311 10.7666H64.8708V33.135H60.6311V23.6041H55.8413V33.1399H51.6016V10.7666H55.8413V20.4802H60.6311V10.7666ZM77.053 28.4931L77.9391 33.139H82.2032L77.3012 10.7705H71.5918L66.9141 33.139H71.1538L71.9668 28.4931H77.053ZM76.4643 25.4065H72.5215L74.4394 14.7L76.4643 25.4065ZM91.6519 29.0595V24.2731C91.6519 23.8937 91.5793 23.6408 91.4332 23.5097C91.287 23.3785 91.0145 23.313 90.6201 23.313H87.6365C85.1051 23.313 83.8398 22.1327 83.8398 19.7675V14.2785C83.8398 11.9367 85.1634 10.7705 87.8162 10.7705H91.8711C94.5239 10.7705 95.8479 11.9414 95.8479 14.2785V17.3977H91.5742V14.8452C91.5742 14.4658 91.5012 14.2129 91.3555 14.0817C91.2093 13.9506 90.9368 13.8851 90.5425 13.8851H89.1408C88.7221 13.8851 88.4394 13.9506 88.2937 14.0817C88.1476 14.2129 88.0745 14.4658 88.0745 14.8452V19.346C88.0745 19.7254 88.1476 19.9783 88.2937 20.1094C88.4394 20.2406 88.7221 20.3061 89.1408 20.3061H92.0513C94.631 20.3061 95.921 21.463 95.921 23.7813V29.6311C95.921 31.9728 94.5827 33.139 91.9051 33.139H87.9237C85.2467 33.139 83.9079 31.9681 83.9079 29.6311V26.5446H88.1425V29.0595C88.1425 29.4389 88.2156 29.692 88.3617 29.8231C88.5079 29.9541 88.7901 30.0198 89.2087 30.0198H90.6105C91.0048 30.0198 91.2723 29.9541 91.4235 29.8231C91.5742 29.692 91.6519 29.4389 91.6519 29.0595ZM111.473 10.7666H107.239V29.0604C107.239 29.4398 107.166 29.6926 107.02 29.8238C106.874 29.955 106.591 30.0204 106.173 30.0204H104.221C103.827 30.0204 103.554 29.955 103.408 29.8238C103.262 29.6926 103.189 29.4398 103.189 29.0604V10.7666H98.9492V29.6271C98.9492 31.9641 100.288 33.135 102.965 33.135H107.458C110.135 33.135 111.473 31.9688 111.473 29.6271V10.7666ZM119.208 24.4191V33.1399H114.973V10.7666H123.521C126.198 10.7666 127.536 11.9375 127.536 14.2746V20.9064C127.536 22.8454 126.641 23.9788 124.845 24.3113L128.714 33.1399H124.144L120.605 24.4191H119.208ZM119.208 13.8858V21.4029H122.265C122.659 21.4029 122.927 21.3373 123.078 21.2062C123.224 21.075 123.296 20.8221 123.296 20.4428V14.846C123.296 14.4666 123.224 14.2137 123.078 14.0825C122.931 13.9514 122.659 13.8858 122.265 13.8858H119.208ZM139.474 28.4931L140.36 33.139H144.629L139.727 10.7705H134.018L129.34 33.139H133.574L134.388 28.4931H139.474ZM138.89 25.4065H134.947L136.865 14.7L138.89 25.4065Z" fill="white"/>
</g>
<defs>
<clipPath id="clip0_19849_12429">
<rect width="145" height="42" fill="white"/>
</clipPath>
</defs>
</svg>
