<svg width="157" height="42" viewBox="0 0 157 42" fill="none" xmlns="http://www.w3.org/2000/svg">
<path fill-rule="evenodd" clip-rule="evenodd" d="M3.1853 3.5C1.91551 3.5 0.885712 4.48026 0.885712 5.68895V12.9787C0.885712 14.1874 1.91551 15.1676 3.1853 15.1676H16.2082V26.8324H3.1853C1.91551 26.8324 0.885712 27.8126 0.885712 29.0213V36.3111C0.885712 37.5197 1.91551 38.5 3.1853 38.5H13.9086C15.1784 38.5 16.2082 37.5197 16.2082 36.3111V26.8382H29.2311C30.5009 26.8382 31.5307 25.8579 31.5307 24.6492V17.3566C31.5307 16.1479 30.5009 15.1676 29.2311 15.1676H16.2112V5.68895C16.2112 4.48026 15.1814 3.5 13.9117 3.5H3.1853ZM148.056 8.7304C148.056 8.37473 147.746 8.10003 147.349 8.10003H144.432C144.034 8.10003 143.724 8.39497 143.724 8.7304V12.77H139.192C138.794 12.77 138.484 13.0649 138.484 13.4003V15.4823C138.484 15.838 138.794 16.1127 139.192 16.1127H143.724V22.3007C143.724 27.0343 146.067 29.2232 151.109 29.2232H155.219C155.617 29.2232 155.927 28.9283 155.927 28.5928V26.5109C155.927 26.1552 155.617 25.8805 155.219 25.8805H151.772C149.028 25.8805 148.056 24.8482 148.056 22.2805V16.1358H155.727C156.125 16.1127 156.434 15.8177 156.434 15.4823V13.4003C156.434 13.0447 156.125 12.77 155.727 12.77H148.056V8.7304ZM133.906 13.4032C133.906 13.0476 133.597 12.7729 133.199 12.7729V12.7758H124.289C123.891 12.7758 123.581 13.0707 123.581 13.4061V15.4881C123.581 15.8438 123.891 16.1185 124.289 16.1185H129.572V25.8834H124.289C123.891 25.8834 123.581 26.1784 123.581 26.5138V28.5957C123.581 28.9514 123.891 29.2261 124.289 29.2261H139.323C139.721 29.2261 140.031 28.9312 140.031 28.5957V26.5138C140.031 26.1581 139.721 25.8834 139.323 25.8834H133.906V13.4032ZM134.083 7.04749C134.061 6.69182 133.751 6.41711 133.375 6.41711H129.395C128.997 6.41711 128.688 6.71206 128.688 7.04749V9.71933C128.688 10.075 128.997 10.3497 129.395 10.3497H133.375C133.773 10.3497 134.083 10.0548 134.083 9.71933V7.04749ZM115.731 25.8834H120.243C120.64 25.8834 120.95 26.1552 120.95 26.5138V28.5957C120.95 28.9312 120.64 29.2261 120.243 29.2261H105.54C105.142 29.2261 104.832 28.9543 104.832 28.5957V26.5138C104.832 26.1784 105.142 25.8834 105.54 25.8834H111.4V9.76271H106.181C105.783 9.76271 105.473 9.49089 105.473 9.13233V7.04749C105.473 6.71206 105.783 6.41711 106.181 6.41711H115.024C115.422 6.41711 115.731 6.68893 115.731 7.04749V25.8834ZM92.8055 13.5276C93.6439 12.77 94.7284 12.4548 96.232 12.4548C100.634 12.4548 103.198 15.277 103.216 21.0197C103.216 26.7654 100.631 29.5847 96.3414 29.5847C94.862 29.5847 93.8656 29.2261 93.0485 28.5119L92.0096 27.5663L91.0375 27.7774L91.4141 30.2815V34.9544C91.4141 35.2898 91.1043 35.5848 90.7064 35.5848H87.7871C87.3891 35.5848 87.0793 35.3129 87.0793 34.9544V13.4032C87.0793 13.0678 87.3891 12.7729 87.7871 12.7729H89.7768C90.1109 12.7729 90.3752 12.9811 90.4633 13.2558L90.8157 14.476H91.7665L92.8055 13.5276ZM91.3898 23.0207C91.3898 25.0622 92.6049 26.135 94.7952 26.135C97.4715 26.135 98.6653 24.5359 98.6866 20.9821C98.6866 17.4659 97.4715 15.8669 94.7952 15.8669C92.5837 15.8669 91.3898 16.9397 91.3898 18.9811V23.0207ZM66.1642 20.9995C66.1642 15.2741 69.1504 12.4548 74.7216 12.4548C80.4478 12.4548 83.2122 15.2972 82.5469 21.6328H70.4536C70.6298 25.0217 71.9573 26.4733 74.7429 26.4733C76.5352 26.4733 77.8596 25.8834 78.3244 24.6429C78.4338 24.3885 78.6981 24.2207 78.9866 24.2207H81.6386C82.0821 24.2207 82.4345 24.5995 82.3252 24.9986C81.5961 27.8815 78.853 29.5644 74.6092 29.5644C69.1261 29.5644 66.1642 26.7451 66.1642 20.9995ZM74.7004 15.4245C72.3127 15.4245 71.0064 16.5811 70.5872 19.065H78.5036C78.4368 16.7083 77.243 15.4245 74.7004 15.4245ZM56.5467 14.4558L57.5431 13.5073C58.4058 12.7497 59.709 12.4548 61.3646 12.4779H63.6186C64.0165 12.4779 64.3264 12.7497 64.3264 13.1083V15.4013C64.3264 15.7368 64.0165 16.0317 63.6186 16.0317H59.8153C57.4732 16.0317 56.2794 17.0409 56.2794 18.9783V25.8805H61.3433C61.7413 25.8805 62.0511 26.1523 62.0511 26.5109V28.5928C62.0511 28.9283 61.7413 29.2232 61.3433 29.2232H47.5701C47.1721 29.2232 46.8623 28.9514 46.8623 28.5928V26.5109C46.8623 26.1755 47.1721 25.8805 47.5701 25.8805H51.9475V16.1156H48.1898C47.7918 16.1156 47.482 15.8438 47.482 15.4852V13.4032C47.482 13.0678 47.7918 12.7729 48.1898 12.7729H54.5569C54.8911 12.7729 55.1766 12.9608 55.2435 13.2558L55.5533 14.4558H56.5467Z" fill="white"/>
</svg>
