<svg width="22" height="18" viewBox="0 0 22 18" fill="none" xmlns="http://www.w3.org/2000/svg">
<path d="M22 2.13125C21.191 2.49214 20.3219 2.73599 19.4082 2.84621C20.3403 2.28438 21.0553 1.39287 21.3925 0.331635C20.5205 0.852498 19.5545 1.23095 18.5265 1.43384C17.7029 0.552076 16.5305 0 15.2322 0C12.7402 0 10.719 2.03468 10.719 4.54536C10.719 4.9004 10.7597 5.24569 10.8353 5.57928C7.08271 5.38908 3.75839 3.57971 1.53184 0.831039C1.14428 1.50406 0.92143 2.28438 0.92143 3.11542C0.92143 4.69167 1.71884 6.08356 2.92901 6.89802C2.18876 6.87363 1.49309 6.66977 0.884612 6.32936V6.38788C0.884612 8.58936 2.43971 10.426 4.50542 10.8435C4.12561 10.9469 3.72738 11.0015 3.31657 11.0015C3.0259 11.0015 2.74201 10.9742 2.46684 10.9215C3.0414 12.726 4.70792 14.0409 6.68352 14.076C5.13811 15.2952 3.19158 16.0219 1.07742 16.0219C0.713115 16.0219 0.353651 16.0004 0 15.9585C1.99789 17.2489 4.36977 18 6.91799 18C15.2215 18 19.7609 11.0766 19.7609 5.07207C19.7609 4.87699 19.756 4.67996 19.7473 4.48488C20.629 3.84307 21.3944 3.04422 21.9981 2.13417L22 2.13125Z" fill="#259DF4"/>
</svg>
