<svg width="75" height="27" viewBox="0 0 75 27" fill="none" xmlns="http://www.w3.org/2000/svg">
<g clip-path="url(#clip0_4478_26560)">
<path fill-rule="evenodd" clip-rule="evenodd" d="M69.8101 12.9055C71.4538 12.9055 72.6899 13.3005 73.5195 14.0903H73.5211C74.3506 14.881 74.766 16.1447 74.766 17.8812L74.7644 24.6813V26.5706C74.7644 26.6716 74.6829 26.7528 74.5816 26.7528H72.869C72.7676 26.7528 72.6862 26.6716 72.6862 26.5706V24.6813H72.6874V17.956C72.6874 16.8483 72.4341 16.0207 71.9281 15.4747C71.423 14.9295 70.6317 14.6569 69.5559 14.6561H69.5226C69.4443 14.6567 69.3692 14.6602 69.2939 14.6637L69.2938 14.6637L69.2443 14.6659C67.9799 14.7439 67.039 15.2801 66.4263 15.9911C65.7621 16.7605 65.4303 18.0299 65.4303 19.8001V26.5697C65.4303 26.6708 65.3488 26.7521 65.2475 26.7521H63.5349C63.4335 26.7521 63.3521 26.6708 63.3521 26.5697V16.1562L63.4152 14.1027L63.534 10.2404L61.2527 8.80183C60.893 9.10153 60.4299 9.28218 59.926 9.28218C58.7824 9.28218 57.8516 8.35517 57.8516 7.21556C57.8516 6.07591 58.7824 5.1489 59.926 5.1489C61.0691 5.1489 62 6.07591 62 7.21556C62 7.37648 61.9805 7.53246 61.9448 7.68275L63.581 8.72221L63.7434 3.4452C63.0742 3.18656 62.5982 2.53956 62.5982 1.78336C62.5982 0.799719 63.4015 0 64.3872 0C65.3733 0 66.1767 0.799719 66.1767 1.78336C66.1767 2.54038 65.7003 3.18656 65.0315 3.4452L65.1204 5.99217L66.6266 5.06354C66.4097 4.185 66.8272 3.2424 67.6758 2.83022C68.652 2.35565 69.8333 2.76208 70.3094 3.73586C70.7854 4.70963 70.3779 5.88787 69.4017 6.36162C68.7155 6.695 67.9288 6.59236 67.3564 6.1646L65.1723 7.49636L65.2836 10.6862L66.8496 9.72062C66.8355 9.63443 66.8264 9.54658 66.8264 9.45623C66.8264 8.53665 67.5778 7.78784 68.5004 7.78784C69.4229 7.78784 70.1744 8.53665 70.1744 9.45623C70.1744 10.3759 69.4238 11.1247 68.5004 11.1247C68.1494 11.1247 67.8241 11.0162 67.5549 10.8315L65.3355 12.1879L65.4286 14.8326C65.8461 14.0518 67.3373 12.9055 69.8101 12.9055ZM2.06683 14.8726C3.02899 13.5162 4.45658 12.9291 6.34878 12.9291L6.34795 12.9283C8.14046 12.9283 9.53262 13.5383 10.5244 14.7584C11.5163 15.9785 12.0122 17.7052 12.0122 19.9386C12.0122 22.1719 11.5121 23.9068 10.5121 25.1433C9.51202 26.3799 8.12397 26.9981 6.34795 26.9981C5.45994 26.9981 4.64936 26.8347 3.91455 26.5079C3.18057 26.1811 2.56439 25.6786 2.06518 25.0004V26.5679C2.06518 26.6688 1.98281 26.7501 1.88231 26.7501H0.182877C0.081552 26.7501 0 26.6688 0 26.5679V5.98696C0 5.88598 0.081552 5.80469 0.182877 5.80469H1.88396C1.98528 5.80469 2.06683 5.88598 2.06683 5.98696V14.8726ZM6.29358 24.915C7.54243 24.915 8.47327 24.4848 9.08534 23.6251V23.6243C9.69741 22.7647 10.0038 21.5675 10.0038 19.9172C10.0038 18.2668 9.69741 17.0369 9.08534 16.2273C8.47244 15.4178 7.52594 15.013 6.24415 15.013C4.8561 15.013 3.85606 15.389 3.244 16.1411C2.63193 16.8932 2.32549 18.1593 2.32549 19.941C2.32549 21.7227 2.64017 22.997 3.26871 23.7639C3.89723 24.5316 4.90553 24.915 6.29358 24.915ZM39.1137 14.8341C39.5314 14.0533 41.0224 12.9071 43.4955 12.9071L43.4963 12.9062C45.1396 12.9062 46.3762 13.3012 47.2057 14.0911C48.0352 14.8817 48.4502 16.1454 48.4502 17.8819V26.5713C48.4502 26.6723 48.3688 26.7536 48.2674 26.7536H46.5664C46.4651 26.7536 46.3836 26.6723 46.3836 26.5713V17.9566C46.3836 16.849 46.1298 16.0214 45.6239 15.4754C45.118 14.9294 44.325 14.6568 43.2467 14.6568C41.819 14.6568 40.7736 15.2233 40.1097 15.9926C39.4457 16.762 39.1137 18.0313 39.1137 19.8016V26.5713C39.1137 26.6723 39.0322 26.7536 38.9309 26.7536H37.2298C37.1285 26.7536 37.0469 26.6723 37.0469 26.5713V13.3373C37.0469 13.2363 37.1285 13.155 37.2298 13.155H38.9309C39.0322 13.155 39.1137 13.2363 39.1137 13.3373V14.8341ZM60.6709 13.5393C60.3145 13.38 59.8522 13.2396 59.2839 13.1173C58.628 12.9769 57.9725 12.9062 57.3167 12.9062C55.2838 12.9062 53.7169 13.527 52.6178 14.7676C51.5183 16.0083 50.9688 17.7662 50.9688 20.0405C50.9688 22.3149 51.51 23.9718 52.5933 25.1837C53.6766 26.3956 55.2053 27.0015 57.18 27.0015C58.5146 27.0015 59.6299 26.7831 60.5259 26.3455C60.5886 26.3151 60.6273 26.2502 60.6273 26.1804V24.7378C60.6273 24.6098 60.4981 24.5227 60.3776 24.5687C59.2698 24.9915 58.1873 25.2025 57.1297 25.2025C55.8018 25.2025 54.8003 24.7559 54.1236 23.8626C53.4473 22.9693 53.1088 21.6876 53.1088 20.0159C53.1088 16.4918 54.4945 14.7307 57.2664 14.7307C57.6818 14.7307 58.1586 14.7906 58.6982 14.9105C59.1701 15.0156 59.6108 15.1445 60.0196 15.2972C60.1151 15.3325 60.2206 15.2857 60.2551 15.1896L60.7706 13.7692C60.8038 13.678 60.7594 13.5787 60.6709 13.5393ZM29.6169 12.5664C31.2431 12.5664 32.4491 12.9268 33.2333 13.6461V13.6445C34.0175 14.3645 34.4096 15.6093 34.4096 17.1972V26.5689C34.4096 26.6699 34.328 26.7512 34.2267 26.7512H32.5751C32.4738 26.7512 32.3922 26.6699 32.3922 26.5689V25.5672C31.8724 26.0582 31.2472 26.4597 30.5091 26.7216C29.9893 26.9055 29.4406 26.9992 28.878 26.9992C27.8269 26.9992 26.7832 26.6658 25.9396 26.0607C24.802 25.2445 24.1002 24.1952 23.9618 22.7739C23.8176 21.2845 24.3201 19.8091 25.3407 18.7244C25.9668 18.0593 26.7511 17.5421 27.6712 17.1866C28.6433 16.8105 29.6013 16.7539 30.4102 16.7473L32.3197 16.7325C32.2893 16.0929 32.0157 15.3753 31.7019 15.0288C31.2414 14.5205 30.505 14.266 29.4926 14.266C28.4019 14.266 27.1745 14.5854 25.8095 15.2242C25.7148 15.2694 25.6011 15.2267 25.5615 15.129L25.0607 13.8859C25.0253 13.7988 25.0615 13.6987 25.1447 13.6551C25.7774 13.3283 26.4652 13.0689 27.2082 12.8768C28.0089 12.6698 28.8121 12.5664 29.6169 12.5664ZM29.7702 25.1402C31.5454 24.5097 32.4276 22.5703 32.4342 20.8034L32.4425 18.5758L30.3904 18.5709C29.6614 18.5766 28.9472 18.6251 28.2635 18.8894C27.6391 19.1309 27.0558 19.4921 26.5954 19.9806C25.3301 21.3239 25.3646 23.6065 26.9183 24.7215C27.728 25.3028 28.8269 25.4752 29.7702 25.1402ZM22.2663 13.1532C21.8866 13.1015 21.4591 13.0547 20.7926 13.0547C18.3658 13.1417 16.6548 14.6976 16.6606 14.8553C16.6606 14.5576 16.6597 14.287 16.6588 14.0153C16.6582 13.8336 16.6576 13.6514 16.6573 13.4603C16.6573 13.3601 16.5758 13.2772 16.4744 13.2772H14.7766C14.6753 13.2772 14.5938 13.3585 14.5938 13.4595V26.6934C14.5938 26.7944 14.6753 26.8757 14.7766 26.8757H16.4777C16.579 26.8757 16.6606 26.7944 16.6606 26.6934V19.5797C16.6606 18.2479 17.0527 17.1354 17.8369 16.2421C18.6212 15.3487 19.5652 14.9021 20.669 14.9021C21.0513 14.9021 21.4862 14.9505 21.9723 15.0482C22.0752 15.0688 22.1757 15.0006 22.1914 14.8972L22.422 13.3593C22.4368 13.2591 22.3677 13.1655 22.2663 13.1516V13.1532Z" fill="url(#paint0_linear_4478_26560)"/>
</g>
<defs>
<linearGradient id="paint0_linear_4478_26560" x1="37.7116" y1="-2.08233" x2="37.7116" y2="27.056" gradientUnits="userSpaceOnUse">
<stop stop-color="white" stop-opacity="0.95"/>
<stop offset="1" stop-color="white" stop-opacity="0.8"/>
</linearGradient>
<clipPath id="clip0_4478_26560">
<rect width="75" height="27" fill="white"/>
</clipPath>
</defs>
</svg>
