<svg width="75" height="27" viewBox="0 0 75 27" fill="none" xmlns="http://www.w3.org/2000/svg">
<g clip-path="url(#clip0_25425_3863)">
<path fill-rule="evenodd" clip-rule="evenodd" d="M69.8101 12.9055C71.4538 12.9055 72.6899 13.3005 73.5195 14.0903H73.5211C74.3506 14.881 74.766 16.1447 74.766 17.8812L74.7644 24.6813V26.5706C74.7644 26.6716 74.6829 26.7528 74.5816 26.7528H72.869C72.7676 26.7528 72.6862 26.6716 72.6862 26.5706V24.6813H72.6874V17.956C72.6874 16.8483 72.4341 16.0207 71.9281 15.4747C71.423 14.9295 70.6317 14.6569 69.5559 14.6561H69.5226C69.4443 14.6567 69.3692 14.6602 69.2939 14.6637L69.2938 14.6637L69.2443 14.6659C67.9799 14.7439 67.039 15.2801 66.4263 15.9911C65.7621 16.7605 65.4303 18.0299 65.4303 19.8001V26.5697C65.4303 26.6708 65.3488 26.7521 65.2475 26.7521H63.5349C63.4335 26.7521 63.3521 26.6708 63.3521 26.5697V16.1562L63.4152 14.1027L63.534 10.2404L61.2527 8.80183C60.893 9.10153 60.4299 9.28218 59.926 9.28218C58.7824 9.28218 57.8516 8.35517 57.8516 7.21556C57.8516 6.07591 58.7824 5.1489 59.926 5.1489C61.0691 5.1489 62 6.07591 62 7.21556C62 7.37648 61.9805 7.53246 61.9448 7.68275L63.581 8.72221L63.7434 3.4452C63.0742 3.18656 62.5982 2.53956 62.5982 1.78336C62.5982 0.799719 63.4015 0 64.3872 0C65.3733 0 66.1767 0.799719 66.1767 1.78336C66.1767 2.54038 65.7003 3.18656 65.0315 3.4452L65.1204 5.99217L66.6266 5.06354C66.4097 4.185 66.8272 3.2424 67.6758 2.83022C68.652 2.35565 69.8333 2.76208 70.3094 3.73586C70.7854 4.70963 70.3779 5.88787 69.4017 6.36162C68.7155 6.695 67.9288 6.59236 67.3564 6.1646L65.1723 7.49636L65.2836 10.6862L66.8496 9.72062C66.8355 9.63443 66.8264 9.54658 66.8264 9.45623C66.8264 8.53665 67.5778 7.78784 68.5004 7.78784C69.4229 7.78784 70.1744 8.53665 70.1744 9.45623C70.1744 10.3759 69.4238 11.1247 68.5004 11.1247C68.1494 11.1247 67.8241 11.0162 67.5549 10.8315L65.3355 12.1879L65.4286 14.8326C65.8461 14.0518 67.3373 12.9055 69.8101 12.9055ZM2.06683 14.8735C3.02899 13.5171 4.45658 12.9301 6.34878 12.9301L6.34795 12.9292C8.14046 12.9292 9.53262 13.5393 10.5244 14.7594C11.5163 15.9795 12.0122 17.7062 12.0122 19.9395C12.0122 22.1728 11.5121 23.9077 10.5121 25.1443C9.51202 26.3808 8.12397 26.9991 6.34795 26.9991C5.45994 26.9991 4.64936 26.8357 3.91455 26.5089C3.18057 26.1821 2.56439 25.6796 2.06518 25.0014V26.5688C2.06518 26.6698 1.98281 26.7511 1.88231 26.7511H0.182877C0.081552 26.7511 0 26.6698 0 26.5688V5.98792C0 5.88694 0.081552 5.80565 0.182877 5.80565H1.88396C1.98528 5.80565 2.06683 5.88694 2.06683 5.98792V14.8735ZM6.29358 24.916C7.54243 24.916 8.47327 24.4858 9.08534 23.6261V23.6253C9.69741 22.7656 10.0038 21.5685 10.0038 19.9182C10.0038 18.2678 9.69741 17.0379 9.08534 16.2283C8.47244 15.4187 7.52594 15.0139 6.24415 15.0139C4.8561 15.0139 3.85606 15.39 3.244 16.1421C2.63193 16.8942 2.32549 18.1603 2.32549 19.942C2.32549 21.7237 2.64017 22.998 3.26871 23.7649C3.89723 24.5326 4.90553 24.916 6.29358 24.916ZM39.1137 14.8332C39.5314 14.0523 41.0224 12.9061 43.4955 12.9061L43.4963 12.9053C45.1396 12.9053 46.3762 13.3002 47.2057 14.0901C48.0352 14.8808 48.4502 16.1444 48.4502 17.881V26.5703C48.4502 26.6713 48.3688 26.7526 48.2674 26.7526H46.5664C46.4651 26.7526 46.3836 26.6713 46.3836 26.5703V17.9556C46.3836 16.848 46.1298 16.0204 45.6239 15.4744C45.118 14.9284 44.325 14.6558 43.2467 14.6558C41.819 14.6558 40.7736 15.2223 40.1097 15.9917C39.4457 16.761 39.1137 18.0304 39.1137 19.8006V26.5703C39.1137 26.6713 39.0322 26.7526 38.9309 26.7526H37.2298C37.1285 26.7526 37.0469 26.6713 37.0469 26.5703V13.3363C37.0469 13.2353 37.1285 13.154 37.2298 13.154H38.9309C39.0322 13.154 39.1137 13.2353 39.1137 13.3363V14.8332ZM60.6709 13.5383C60.3145 13.379 59.8522 13.2386 59.2839 13.1163C58.628 12.9759 57.9725 12.9053 57.3167 12.9053C55.2838 12.9053 53.7169 13.526 52.6178 14.7666C51.5183 16.0073 50.9688 17.7652 50.9688 20.0395C50.9688 22.3139 51.51 23.9708 52.5933 25.1827C53.6766 26.3946 55.2053 27.0006 57.18 27.0006C58.5146 27.0006 59.6299 26.7822 60.5259 26.3445C60.5886 26.3141 60.6273 26.2493 60.6273 26.1795V24.7368C60.6273 24.6088 60.4981 24.5218 60.3776 24.5677C59.2698 24.9906 58.1873 25.2016 57.1297 25.2016C55.8018 25.2016 54.8003 24.7549 54.1236 23.8616C53.4473 22.9683 53.1088 21.6866 53.1088 20.0149C53.1088 16.4909 54.4945 14.7297 57.2664 14.7297C57.6818 14.7297 58.1586 14.7896 58.6982 14.9095C59.1701 15.0146 59.6108 15.1435 60.0196 15.2962C60.1151 15.3315 60.2206 15.2847 60.2551 15.1886L60.7706 13.7682C60.8038 13.6771 60.7594 13.5777 60.6709 13.5383ZM29.6169 12.5654C31.2431 12.5654 32.4491 12.9259 33.2333 13.6451V13.6435C34.0175 14.3635 34.4096 15.6083 34.4096 17.1963V26.5679C34.4096 26.6689 34.328 26.7502 34.2267 26.7502H32.5751C32.4738 26.7502 32.3922 26.6689 32.3922 26.5679V25.5662C31.8724 26.0572 31.2472 26.4587 30.5091 26.7207C29.9893 26.9046 29.4406 26.9982 28.878 26.9982C27.8269 26.9982 26.7832 26.6648 25.9396 26.0597C24.802 25.2435 24.1002 24.1942 23.9618 22.7729C23.8176 21.2835 24.3201 19.8081 25.3407 18.7234C25.9668 18.0584 26.7511 17.5411 27.6712 17.1856C28.6433 16.8095 29.6013 16.7529 30.4102 16.7463L32.3197 16.7315C32.2893 16.0919 32.0157 15.3743 31.7019 15.0278C31.2414 14.5196 30.505 14.265 29.4926 14.265C28.4019 14.265 27.1745 14.5844 25.8095 15.2232C25.7148 15.2684 25.6011 15.2257 25.5615 15.128L25.0607 13.8849C25.0253 13.7978 25.0615 13.6977 25.1447 13.6542C25.7774 13.3274 26.4652 13.0679 27.2082 12.8758C28.0089 12.6689 28.8121 12.5654 29.6169 12.5654ZM29.7702 25.1392C31.5454 24.5087 32.4276 22.5693 32.4342 20.8024L32.4425 18.5748L30.3904 18.5699C29.6614 18.5756 28.9472 18.6241 28.2635 18.8885C27.6391 19.1299 27.0558 19.4911 26.5954 19.9797C25.3301 21.3229 25.3646 23.6055 26.9183 24.7205C27.728 25.3018 28.8269 25.4743 29.7702 25.1392ZM22.2663 13.1542C21.8866 13.1024 21.4591 13.0557 20.7926 13.0557C18.3658 13.1427 16.6548 14.6986 16.6606 14.8562C16.6606 14.5585 16.6597 14.288 16.6588 14.0163V14.0159C16.6582 13.8343 16.6576 13.6523 16.6573 13.4612C16.6573 13.3611 16.5758 13.2781 16.4744 13.2781H14.7766C14.6753 13.2781 14.5938 13.3594 14.5938 13.4605V26.6944C14.5938 26.7954 14.6753 26.8767 14.7766 26.8767H16.4777C16.579 26.8767 16.6606 26.7954 16.6606 26.6944V19.5807C16.6606 18.2489 17.0527 17.1364 17.8369 16.243C18.6212 15.3497 19.5652 14.903 20.669 14.903C21.0513 14.903 21.4862 14.9515 21.9723 15.0492C22.0752 15.0697 22.1757 15.0016 22.1914 14.8981L22.422 13.3603C22.4368 13.2601 22.3677 13.1665 22.2663 13.1525V13.1542Z" fill="white"/>
</g>
<defs>
<clipPath id="clip0_25425_3863">
<rect width="75" height="27" fill="white"/>
</clipPath>
</defs>
</svg>
