<svg xmlns="http://www.w3.org/2000/svg" width="84" height="27" viewBox="0 0 175 56" ><g fill="none" fill-rule="evenodd"><path fill="white" d="M88.9 27.07c0 .24.2.43.44.43h3.54c.3 0 .57-.07.82-.2.25-.14.47-.33.66-.57a2.79 2.79 0 00.44-.84 3.27 3.27 0 00-.03-2.1 2.78 2.78 0 00-.5-.83 2.26 2.26 0 00-.7-.55 1.86 1.86 0 00-.82-.2h-3.5a.34.34 0 00-.35.34v4.52zm-3.18 8.35V19.77c0-.19.16-.34.35-.34h6.89c.75 0 1.44.15 2.08.47a5.42 5.42 0 012.72 3 5.45 5.45 0 01-.4 4.86 4.56 4.56 0 01-1.82 1.7.34.34 0 00-.13.49l3.21 5.3a.34.34 0 01-.29.52h-2.65a.54.54 0 01-.47-.26l-3-4.94a.59.59 0 00-.5-.28h-2.47a.34.34 0 00-.34.34v4.8c0 .18-.15.34-.34.34h-2.5a.34.34 0 01-.34-.35zm26.67-6.3l-1.85-5.27a.3.3 0 00-.56 0l-1.93 5.28a.28.28 0 00.26.37h3.81c.2 0 .33-.2.27-.38m-3.23-9.66h2.2c.18 0 .35.12.41.29l5.88 15.45a.44.44 0 01-.4.6h-2.33a.44.44 0 01-.41-.29l-1.3-3.5a.44.44 0 00-.42-.28h-5.1a.44.44 0 00-.41.29l-1.29 3.5a.44.44 0 01-.41.28h-2.32a.44.44 0 01-.41-.6l5.9-15.45a.44.44 0 01.41-.29m16.07 6.76v9.16a.43.43 0 01-.43.42h-2.32a.43.43 0 01-.43-.42v-15.5c0-.23.2-.42.43-.42h1.73c.2 0 .38.1.5.24l7.8 9.83c.18.22.53.1.53-.18v-9.44c0-.23.19-.42.42-.42h2.32c.24 0 .43.19.43.42v15.47a.43.43 0 01-.43.42h-1.86a.61.61 0 01-.47-.23l-7.67-9.55a.31.31 0 00-.55.2"/><path d="M140.93 19.37h14.55v16.57h-14.55z"/><path fill="white" d="M140.93 27.52c0-1 .18-1.99.54-2.96a8.05 8.05 0 011.58-2.61 7.99 7.99 0 012.53-1.87c1-.47 2.13-.7 3.4-.7 1.51 0 2.81.32 3.91.98 1 .6 1.77 1.37 2.31 2.31a.33.33 0 01-.1.44l-1.89 1.3a.33.33 0 01-.47-.12 3.94 3.94 0 00-1.61-1.58 4.45 4.45 0 00-1.1-.4 5.25 5.25 0 00-1.13-.13 4.28 4.28 0 00-3.56 1.74 5.5 5.5 0 00-.89 1.75 6.6 6.6 0 00-.3 1.94c0 .72.12 1.41.35 2.08a5.54 5.54 0 00.98 1.76c.42.5.93.92 1.52 1.22.59.3 1.24.46 1.94.46.37 0 .75-.04 1.15-.14a4.32 4.32 0 002.15-1.2c.23-.24.43-.52.59-.83a.33.33 0 01.46-.13l2.02 1.16a.33.33 0 01.13.43c-.25.5-.58.95-.98 1.35a7.18 7.18 0 01-1.64 1.18 8.31 8.31 0 01-1.94.74 8.52 8.52 0 01-2.03.25 6.95 6.95 0 01-3.2-.74 8.32 8.32 0 01-2.5-1.92 8.9 8.9 0 01-1.63-2.7 8.38 8.38 0 01-.59-3.06"/><path d="M160.37 19.46h13.74V35.8h-13.74z"/><path fill="white" d="M174.11 19.78v15.7c0 .18-.14.32-.3.32h-2.54a.32.32 0 01-.31-.31v-6.35a.31.31 0 00-.31-.31h-6.79a.31.31 0 00-.31.31v6.35c0 .17-.14.31-.32.31h-2.55a.32.32 0 01-.31-.31V19.78c0-.18.14-.32.31-.32h2.55c.18 0 .32.14.32.32v5.97c0 .18.14.32.31.32h6.79c.17 0 .31-.14.31-.32v-5.97c0-.18.14-.32.31-.32h2.53c.17 0 .31.14.31.32"/><path d="M67.3 19.43h13.18v16.34H67.3z"/><path fill="white" d="M77.11 31.78c-.1.26-.25.5-.43.68a1.95 1.95 0 01-.66.45 2 2 0 01-.82.16h-4.39a.33.33 0 01-.33-.33V29.1c0-.18.15-.32.33-.32h4.56c.27 0 .53.06.75.17.24.12.43.27.6.47a2.38 2.38 0 01.4 2.37m-6.33-9.64h3.98c.48 0 .96.16 1.3.49.39.37.59.9.59 1.56 0 .64-.2 1.15-.57 1.52a1.88 1.88 0 01-1.37.55H70.8a.3.3 0 01-.3-.3v-3.52a.3.3 0 01.3-.3m8.87 6.73a4.17 4.17 0 00-2.1-1.44.05.05 0 010-.1 3.63 3.63 0 001.63-1.5 4.49 4.49 0 00.33-3.75 4.38 4.38 0 00-.75-1.33 3.85 3.85 0 00-1.17-.96 3.23 3.23 0 00-1.54-.36H67.6a.3.3 0 00-.3.3v15.7c0 .19.15.34.33.34h7.57a7.3 7.3 0 002.03-.28 5.35 5.35 0 001.68-.8c.49-.36.87-.8 1.14-1.32.28-.52.42-1.13.42-1.82 0-1.07-.28-1.96-.82-2.68"/><g fill="white"><path d="M36.71 26.83l-7.57 7.56c-.2.2-.55.05-.55-.24v-2.12c0-.34.14-.68.38-.92l9.7-9.72a.6.6 0 000-.85l-1.12-1.15a.59.59 0 00-.84 0l-7.45 7.44a.4.4 0 01-.67-.29V11.27a.6.6 0 00-.6-.6h-1.6a.6.6 0 00-.58.6v7.26c0 .3-.34.43-.54.23L21 14.44a.58.58 0 00-.84 0l-1.13 1.15a.6.6 0 000 .85l6.23 6.32c.34.35.54.83.54 1.32v6.04c0 .32-.4.49-.62.26l-9.85-10a.58.58 0 00-.84 0l-1.13 1.15a.6.6 0 000 .85l11.91 12.09c.34.34.53.8.53 1.28v7.76c0 .33.26.6.59.6H28a.6.6 0 00.59-.6v-3.89c0-.44.17-.86.48-1.18l9.6-9.61a.6.6 0 000-.85l-1.12-1.15a.59.59 0 00-.84 0"/><path d="M27.01 2.6C13.77 2.6 3 13.53 3 26.96 3 40.4 13.78 51.34 27.02 51.34S51.05 40.4 51.05 26.96 40.26 2.6 27.01 2.6m0 51.36C12.35 53.95.43 41.84.43 26.96.43 12.1 12.36 0 27.01 0 41.67 0 53.6 12.1 53.6 26.97c0 14.88-11.93 26.98-26.59 26.98"/></g></g></svg>