<svg width="84" height="27" viewBox="0 0 84 27" fill="none" xmlns="http://www.w3.org/2000/svg">
<path d="M78.3885 22.1227C78.0436 22.259 77.7407 22.4022 77.4241 22.4996C76.3376 22.8344 75.2254 22.999 74.0858 22.9368C71.4657 22.7946 69.2157 21.8415 67.4456 19.8684C66.5974 18.923 66.0123 17.8263 65.6156 16.6188C65.1206 15.1123 65.0483 13.57 65.3224 12.0333C65.7135 9.8384 66.764 7.99476 68.5089 6.56367C69.3726 5.85521 70.332 5.32421 71.3755 4.95604C72.3345 4.61804 73.3332 4.46894 74.3571 4.47123C75.2227 4.47306 76.0846 4.51651 76.9204 4.73239C79.1192 5.29997 80.9235 6.46717 82.2288 8.34922C82.8487 9.24291 83.287 10.2212 83.5587 11.2786C83.8044 12.2336 83.9211 13.2 83.857 14.1811C83.7641 15.6007 83.3991 16.9481 82.6881 18.1908C82.6552 18.2479 82.6103 18.2983 82.5596 18.3669C82.4969 18.3284 82.4429 18.3069 82.4045 18.2699C81.704 17.5916 81.0086 16.9079 80.3032 16.2346C80.1801 16.1171 80.1632 16.0046 80.2158 15.8619C80.4889 15.1209 80.5818 14.3489 80.5662 13.5668C80.5356 12.0333 80.0708 10.6484 79.0807 9.46107C78.2861 8.50792 77.2823 7.86899 76.0832 7.55066C75.3114 7.34576 74.5273 7.29683 73.7298 7.39653C71.9515 7.61881 70.5731 8.4846 69.5771 9.96005C69.0185 10.7874 68.6612 11.699 68.5514 12.6978C68.5121 13.0555 68.4503 13.4154 68.4581 13.7731C68.4942 15.3917 68.9824 16.8544 70.0676 18.0778C71.0018 19.1311 72.1849 19.7774 73.5738 19.9827C74.3081 20.0911 75.0621 20.0984 75.7973 19.921C75.9926 19.8739 76.1344 19.9301 76.269 20.0582C76.9323 20.6871 77.5971 21.3141 78.26 21.943C78.2929 21.9741 78.314 22.0175 78.3881 22.1227H78.3885Z" fill="white"/>
<path d="M0 4.01615C0.146399 4.00975 0.249794 4.00151 0.353646 4.00106C1.13414 4.00014 1.91463 3.99923 2.69558 4.00106C3.10413 4.00197 3.10779 4.00472 3.10779 4.40903C3.1087 6.40039 3.10779 8.39175 3.10779 10.3831C3.10779 11.7923 3.10779 13.2014 3.10779 14.6105V15.0523C3.22857 14.9545 3.29399 14.9128 3.34477 14.8589C5.0549 13.0299 6.76411 11.2 8.47287 9.36914C8.62293 9.20815 8.79129 9.13222 9.02461 9.13542C10.0146 9.14869 11.0051 9.14 11.9956 9.14229C12.1036 9.14229 12.2111 9.16104 12.3191 9.1711L12.3438 9.24976C10.6002 11.0358 8.85717 12.8218 7.08024 14.6425C8.89697 17.2966 10.7471 19.921 12.5913 22.6103C12.438 22.6222 12.3369 22.6363 12.2362 22.6363C11.2691 22.6382 10.3024 22.6322 9.33525 22.6414C9.11199 22.6437 8.98481 22.5595 8.85763 22.3761C7.61048 20.5768 6.35236 18.7853 5.09653 16.992C5.06496 16.9472 5.02516 16.9083 4.97255 16.8475C4.65871 17.1622 4.3563 17.4599 4.0603 17.7631C3.80959 18.0197 3.57626 18.2937 3.31549 18.5393C3.15582 18.6898 3.10367 18.853 3.10504 19.0639C3.11145 20.1003 3.10779 21.1367 3.10779 22.173C3.10779 22.3002 3.10779 22.4273 3.10779 22.5847C2.75048 22.683 2.40232 22.6254 2.06103 22.6354C1.7234 22.645 1.3853 22.6377 1.04767 22.6377H0V4.01615Z" fill="white"/>
<path d="M52.5446 16.9925C52.7267 18.1949 53.2153 19.1448 54.1838 19.7792C55.2338 20.4671 56.3917 20.5631 57.6014 20.2814C58.4422 20.0856 59.1221 19.6168 59.769 19.0803C59.8221 19.036 59.8728 18.9893 59.9264 18.9454C59.9611 18.9166 59.9987 18.8915 60.0632 18.8439C60.6867 19.3218 61.2398 19.8775 61.846 20.3916C61.6383 20.7415 61.3455 20.9908 61.0601 21.2386C60.4799 21.7431 59.8385 22.1584 59.1253 22.4525C58.4537 22.7292 57.7455 22.8669 57.0258 22.9263C55.9214 23.0178 54.8349 22.8916 53.8 22.4969C52.3374 21.9389 51.1781 21.0026 50.3894 19.6301C49.7681 18.5489 49.4419 17.3899 49.4625 16.1436C49.4725 15.5518 49.4739 14.949 49.5874 14.3722C49.8985 12.7925 50.646 11.441 51.8826 10.3863C52.5332 9.83154 53.2689 9.40985 54.0864 9.16424C54.5389 9.0284 55.016 8.94562 55.4873 8.90949C56.3135 8.84683 57.1407 8.8825 57.944 9.12079C58.6047 9.317 59.2195 9.61337 59.7763 10.0209C60.8103 10.7774 61.5038 11.7849 61.938 12.9805C62.3639 14.1536 62.5341 15.3652 62.4755 16.6106C62.4582 16.9792 62.4499 16.9916 62.0611 16.992C60.6167 16.9934 59.1724 16.9925 57.7281 16.9925C56.1557 16.9925 54.5832 16.9925 53.0108 16.9925C52.8736 16.9925 52.7368 16.9925 52.5446 16.9925ZM52.4961 14.9453H59.3938C59.3884 14.8346 59.3975 14.7427 59.3769 14.6572C59.2969 14.3196 59.2328 13.9757 59.1171 13.6505C58.8714 12.9608 58.4669 12.3781 57.8484 11.9647C57.3369 11.623 56.7815 11.425 56.157 11.409C55.5888 11.3943 55.0435 11.4671 54.537 11.7273C53.4734 12.2739 52.9024 13.19 52.6256 14.3187C52.5771 14.5159 52.5433 14.7162 52.4966 14.9449L52.4961 14.9453Z" fill="white"/>
<path d="M24.1157 18.8453C24.6953 19.3561 25.2745 19.8675 25.8903 20.4104C25.7265 20.5869 25.5843 20.7479 25.4342 20.902C24.7626 21.5913 23.973 22.1127 23.0877 22.4776C22.4289 22.7493 21.7276 22.8733 21.0184 22.9286C19.9255 23.0137 18.8517 22.8879 17.8283 22.4991C16.2769 21.9096 15.0806 20.8956 14.2914 19.4183C13.6202 18.162 13.397 16.8187 13.4798 15.4123C13.5809 13.6976 14.1843 12.1897 15.3496 10.9182C16.1186 10.0794 17.056 9.47799 18.1371 9.15097C19.3138 8.79515 20.5175 8.78737 21.7225 9.07322C22.9848 9.3728 24.0219 10.0255 24.8514 11.0124C25.3711 11.6308 25.7394 12.3374 26.0047 13.098C26.3922 14.209 26.5404 15.3547 26.4933 16.5278C26.4906 16.5978 26.4837 16.6673 26.4832 16.7373C26.4828 16.9069 26.4087 16.9984 26.2298 16.992C26.125 16.9879 26.0203 16.9925 25.9155 16.9925C22.9573 16.9925 19.9996 16.9925 17.0414 16.9925H16.5789C16.594 17.4517 16.7358 17.8327 16.8964 18.1999C17.2949 19.1101 17.9536 19.7687 18.8828 20.135C19.6006 20.4181 20.3459 20.4812 21.1113 20.3825C22.1521 20.248 23.014 19.7586 23.7858 19.0781C23.8554 19.0168 23.9258 18.9555 23.9972 18.8965C24.0141 18.8823 24.0388 18.8777 24.1152 18.8453H24.1157ZM23.37 14.9426C23.3901 14.8891 23.4148 14.8557 23.4116 14.825C23.3393 14.1358 23.1549 13.479 22.7697 12.8991C22.1036 11.897 21.168 11.3921 19.9511 11.4094C19.0164 11.4227 18.2396 11.7621 17.6059 12.4472C17.1297 12.9617 16.8346 13.5732 16.6585 14.2401C16.5999 14.4614 16.4887 14.6993 16.5885 14.943H23.37V14.9426Z" fill="white"/>
<path d="M36.9181 19.7042C36.9332 19.8286 36.9524 19.9164 36.9524 20.0042C36.9551 20.6326 36.9455 21.2615 36.9579 21.8899C36.9629 22.1287 36.8554 22.2339 36.6509 22.3299C35.5167 22.8623 34.3396 22.9684 33.1126 22.764C32.43 22.6501 31.8202 22.4132 31.3059 21.9444C30.815 21.4971 30.5556 20.9254 30.3987 20.2946C30.277 19.8044 30.2605 19.3067 30.261 18.8055C30.2633 16.6289 30.2619 14.4518 30.2619 12.2752C30.2619 12.138 30.2619 12.0008 30.2619 11.8325C30.1192 11.8206 30.0075 11.8046 29.8959 11.8037C29.5464 11.8 29.1973 11.8064 28.8478 11.8005C28.5902 11.7959 28.5518 11.7653 28.55 11.5261C28.544 10.8277 28.544 10.1293 28.55 9.43088C28.5518 9.18162 28.5893 9.14777 28.8359 9.1432C29.185 9.13634 29.5345 9.1432 29.884 9.14C29.997 9.13908 30.1096 9.12674 30.261 9.11759V5.52499C30.5639 5.44313 32.9676 5.43078 33.3693 5.50899C33.3825 6.09807 33.3734 6.6995 33.3752 7.30094C33.3766 7.89277 33.3752 8.4846 33.3752 9.11393C33.5285 9.12445 33.6515 9.13954 33.7746 9.14C34.7061 9.14183 35.638 9.14046 36.5694 9.14183C36.6943 9.14183 36.8197 9.15235 36.9661 9.15875V11.8005H33.4008C33.3908 11.9665 33.3766 12.09 33.3761 12.2135C33.3747 14.2392 33.3743 16.2644 33.3766 18.29C33.3766 18.65 33.3834 19.0108 33.5468 19.3461C33.7202 19.7019 34.0029 19.9159 34.3826 20.0175C35.0867 20.205 35.7652 20.0815 36.4377 19.8615C36.5877 19.8126 36.7378 19.7632 36.9171 19.7046L36.9181 19.7042Z" fill="white"/>
<path d="M43.8427 9.14457H47.4629C47.4706 10.0392 47.4656 10.8935 47.4661 11.7991H43.8372C43.8372 11.9743 43.8372 12.0982 43.8372 12.2226C43.8372 14.2369 43.8372 16.2511 43.8372 18.2649C43.8372 18.6381 43.8578 19.0081 44.0229 19.3538C44.1945 19.7129 44.4836 19.9178 44.8629 20.0193C45.5684 20.2087 46.2455 20.0746 46.9171 19.8556C47.058 19.8098 47.1989 19.7641 47.3654 19.7101C47.3842 19.8089 47.4103 19.8835 47.4107 19.958C47.4139 20.6098 47.4057 21.262 47.4171 21.9137C47.4208 22.1387 47.3165 22.2366 47.1257 22.3267C45.9925 22.8614 44.8149 22.9684 43.5874 22.7653C43.0261 22.6725 42.5077 22.4991 42.047 22.1694C41.4024 21.7079 41.0565 21.0594 40.8712 20.301C40.7454 19.7851 40.7344 19.2651 40.734 18.7419C40.7317 16.5882 40.7331 14.4344 40.7331 12.2803C40.7331 12.143 40.7331 12.0058 40.7331 11.8339C40.5775 11.8215 40.4549 11.8046 40.3323 11.8032C39.9828 11.7991 39.6332 11.8073 39.2842 11.7991C39.0527 11.7936 39.0156 11.7589 39.0138 11.5329C39.0083 10.8226 39.0078 10.1124 39.0138 9.40252C39.0156 9.18848 39.0637 9.14777 39.2929 9.14274C39.6305 9.13542 39.9686 9.14045 40.3062 9.14045C40.4316 9.14045 40.5569 9.14045 40.7267 9.14045V5.53322C41.0259 5.44038 43.4259 5.42666 43.8303 5.51264C43.8468 6.6931 43.8271 7.88636 43.8418 9.14411L43.8427 9.14457Z" fill="white"/>
<path d="M74.4451 16.5749C75.1355 15.8454 75.8226 15.12 76.5363 14.3663C78.9487 16.7016 81.325 19.0021 83.7227 21.3237C83.6522 21.4111 83.5955 21.4929 83.5273 21.5643C82.998 22.1154 82.4678 22.6656 81.9357 23.214C81.7134 23.4431 81.7033 23.4418 81.4672 23.2186C79.9172 21.7564 78.3677 20.2942 76.8181 18.8315C76.0697 18.1254 75.3217 17.4192 74.5737 16.7121C74.5407 16.681 74.5114 16.6458 74.4455 16.5749H74.4451Z" fill="white"/>
</svg>
