<?xml version="1.0" encoding="UTF-8"?><svg id="Laag_1" xmlns="http://www.w3.org/2000/svg" viewBox="0 0 738.88 146.39"><defs><style>.cls-1{fill:#FFF;}</style></defs><g><path class="cls-1" d="M461.95,18.56V2.59h-56.72c-9.54,0-17.24,7.7-17.24,17.24V116.14h17.99v-47.41h49.82v-15.98h-49.82V18.62h55.97v-.06Z"/><path class="cls-1" d="M549.05,46.53c1.43-.09,2.86-.07,4.36,.07,.23,.02,.47,.06,.7,.09l.75,.1c.36,.05,.72,.09,1.07,.16,.36,.07,.71,.15,1.05,.24l.65,.16c.25,.06,.5,.11,.74,.18,.49,.14,.97,.31,1.48,.49l.26,.09c.2,.07,.4,.14,.6,.21,.53,.2,1.04,.43,1.7,.73l.56,.26c.57,.28,1.13,.58,1.67,.9l.41,.24c.6,.36,1.18,.74,1.81,1.2l.1,.07c3.37,2.45,6.18,5.7,8.15,9.41l.66,1.25,10.15-15.04-.38-.49c-.79-.99-1.54-1.88-2.3-2.71l-.55-.61c-.21-.24-.42-.48-.65-.71-.19-.19-.38-.36-.58-.53-.13-.11-.26-.22-.38-.34l-.2-.18c-1.26-1.17-2.61-2.29-4.03-3.34l-.54-.4c-.69-.49-1.4-.97-2.12-1.41-.22-.14-.44-.26-.66-.39l-.3-.18c-1.06-.62-2.12-1.19-3.15-1.7-.62-.3-1.25-.6-1.89-.88-.1-.04-.2-.09-.3-.14-.15-.07-.3-.15-.46-.21-.16-.06-.32-.12-.48-.17-.11-.04-.22-.07-.32-.11-.76-.29-1.53-.56-2.31-.81l-.42-.14c-.24-.08-.49-.16-.73-.24-1.08-.32-2.22-.59-3.46-.85-.28-.06-.56-.11-.85-.15l-.35-.06c-.89-.16-1.79-.29-2.69-.39l-.26-.03c-.31-.03-.61-.07-.92-.1-2.59-.22-4.53-.23-6.63-.09-13.03,.83-25.41,8.14-33.1,19.54l-26.64,39.48V2.59h-16.58V116.14h18.27l38.68-57.34c4.84-7.18,12.47-11.76,20.41-12.27"/><path class="cls-1" d="M738.88,31.36h-18.31l-19.09,57.58-18.75-56.09h0l-.5-1.49h-14.7l-.5,1.49-18.9,56.09-18.44-56.09h0l-.49-1.49h-17.47l-.33,.49-38.4,56.92c-4.84,7.18-12.47,11.77-20.41,12.27-.58,.04-1.15,.06-1.74,.06-.84-.05-1.74-.04-2.63-.12-.21-.02-.42-.05-.62-.08l-.7-.1c-.4-.05-.8-.1-1.2-.18-.33-.06-.65-.14-.98-.22l-.68-.16c-.27-.06-.53-.12-.8-.2-.47-.13-.92-.29-1.44-.48l-.27-.09c-.21-.07-.43-.14-.64-.23-.52-.2-1.02-.42-1.52-.65l-.19-.09c-.18-.08-.37-.17-.55-.25-.55-.28-1.1-.57-1.64-.89l-.45-.27c-.58-.36-1.15-.73-1.71-1.12l-.21-.15c-3.36-2.45-6.16-5.7-8.12-9.39l-.66-1.25-10.15,15.04,.38,.49c.78,.98,1.53,1.86,2.3,2.71l.55,.61c.21,.24,.42,.48,.65,.71,.19,.19,.39,.36,.59,.54,.13,.11,.26,.23,.38,.34l.14,.13c1.27,1.18,2.63,2.31,4.05,3.36l.58,.43c.69,.49,1.38,.95,2.09,1.4,.22,.14,.45,.27,.68,.41l.33,.19c1.04,.61,2.08,1.17,3.1,1.67,.63,.31,1.26,.61,1.9,.88,.1,.04,.2,.09,.3,.14,.15,.08,.31,.15,.46,.21,.16,.07,.33,.12,.49,.18l.32,.11c.76,.29,1.53,.56,2.31,.81l.42,.14c.24,.08,.48,.16,.72,.23,1.07,.31,2.21,.59,3.47,.85,.28,.06,.56,.1,.85,.15l.33,.06c.9,.16,1.81,.29,2.72,.39l.24,.03c.3,.03,.61,.07,.91,.1,1.44,.12,2.65,.18,3.82,.18,.94,0,1.88-.03,2.82-.09,13.03-.83,25.4-8.14,33.1-19.54l31.18-46.22,17.96,52.23h0l4.16,12.09h15.14l.27-.83h0l2.43-7.31,.06-.17h0l17.02-51.2,17.34,52.57,2.29,6.94h14.98l.29-.83h.01l1.8-5.21h0l19.51-56.46h0l.11-.33,7.07-20.46h0l.52-1.49Z"/></g><g><path class="cls-1" d="M79.74,95.54c6.17-3.75,11.01-8.82,14.53-15.22,3.52-6.4,5.3-13.61,5.3-21.56s-1.79-15.28-5.3-21.62c-3.52-6.34-8.36-11.42-14.47-15.16-6.11-3.75-13.15-5.59-21.1-5.59s-14.82,1.84-20.93,5.59c-6.11,3.75-10.95,8.76-14.47,15.16-3.52,6.4-5.25,13.61-5.25,21.62s1.73,15.16,5.25,21.56c3.52,6.4,8.36,11.47,14.47,15.22,6.11,3.75,13.09,5.59,20.93,5.59s14.88-1.85,21.04-5.59m-44.11,17.76c-7.15-2.88-13.38-7.03-18.68-12.34-5.3-5.3-9.46-11.53-12.45-18.74-3-7.21-4.5-14.99-4.5-23.47s1.5-16.26,4.5-23.47c3-7.21,7.15-13.38,12.45-18.68,5.3-5.25,11.53-9.34,18.68-12.22C42.78,1.5,50.45,0,58.69,0s15.97,1.44,23.06,4.38c7.15,2.88,13.38,7.03,18.74,12.34,5.36,5.3,9.51,11.53,12.45,18.68,2.94,7.15,4.44,14.93,4.44,23.41s-1.5,16.26-4.5,23.41c-3,7.15-7.15,13.38-12.45,18.68-5.3,5.3-11.53,9.46-18.68,12.4-7.15,2.94-14.82,4.44-23.06,4.44-8.19-.12-15.91-1.56-23.06-4.44"/><path class="cls-1" d="M186.66,98.07c3.75-2.36,6.75-5.59,8.94-9.69,2.19-4.15,3.29-8.76,3.29-14.01s-1.1-9.86-3.29-13.9c-2.19-4.09-5.19-7.27-8.94-9.63-3.75-2.36-8.13-3.52-12.97-3.52s-9.11,1.15-12.92,3.52c-3.81,2.36-6.8,5.54-8.99,9.63-2.19,4.09-3.29,8.71-3.29,13.9s1.1,9.86,3.29,14.01c2.19,4.15,5.19,7.38,8.99,9.69,3.81,2.36,8.13,3.52,12.92,3.52,4.84,0,9.17-1.15,12.97-3.52m-55.52-64.98h16.49v10.38c3.06-3.86,6.98-6.86,11.7-8.99,4.73-2.13,10.09-3.23,15.97-3.23,7.84,0,14.93,1.9,21.16,5.65,6.28,3.75,11.19,8.94,14.82,15.45,3.63,6.52,5.42,13.84,5.42,22.03s-1.79,15.51-5.42,22.03c-3.63,6.52-8.53,11.7-14.76,15.51-6.23,3.81-13.32,5.71-21.28,5.71-5.48,0-10.61-.98-15.28-3-4.67-1.96-8.59-4.84-11.65-8.48v22.95c0,9.57-7.73,17.3-17.3,17.3V33.1h.12Z"/><path class="cls-1" d="M243.22,113.47c-4.67-2.83-8.36-6.75-10.95-11.76-2.59-5.02-3.92-10.9-3.92-17.53V33.09h17.3v49.53c0,5.71,1.73,10.32,5.13,13.78,3.4,3.46,7.78,5.19,13.09,5.19s9.86-1.79,13.32-5.36c3.46-3.57,5.19-8.36,5.19-14.36V33.09h17.12V115.83h-16.37v-10.26c-2.36,3.86-5.54,6.86-9.63,8.94-4.09,2.08-8.71,3.11-13.9,3.11-6.23,0-11.7-1.38-16.37-4.15"/><path class="cls-1" d="M322.81,111.39c-6.4-4.15-10.84-9.8-13.38-16.84l13.32-6.29c2.25,4.67,5.3,8.42,9.23,11.19,3.92,2.77,8.3,4.15,13.09,4.15,4.09,0,7.38-.92,9.92-2.77,2.54-1.85,3.81-4.32,3.81-7.5,0-2.94-1.15-5.19-3.52-6.63-2.36-1.5-4.84-2.59-7.5-3.29l-12.97-3.69c-7.15-2.02-12.45-5.07-15.97-9.17-3.52-4.09-5.3-8.94-5.3-14.53,0-5.02,1.27-9.34,3.81-12.97,2.54-3.69,6.05-6.57,10.55-8.65,4.5-2.08,9.51-3.11,15.16-3.11,7.55,0,14.3,1.84,20.18,5.59,5.94,3.75,10.09,8.88,12.51,15.51l-13.32,6.28c-1.61-3.98-4.21-7.15-7.73-9.46-3.52-2.36-7.5-3.52-11.88-3.52-3.75,0-6.8,.86-8.99,2.59-2.25,1.73-3.34,4.09-3.34,7.03s1.1,5.02,3.34,6.4c2.25,1.44,4.61,2.54,7.21,3.34l13.43,3.98c6.8,1.96,12.11,4.96,15.74,9.11,3.69,4.15,5.48,9.05,5.48,14.76,0,4.9-1.27,9.22-3.81,12.92-2.54,3.75-6.17,6.63-10.78,8.71-4.61,2.08-10.03,3.11-16.14,3.11-8.36-.06-15.8-2.13-22.14-6.28"/></g></svg>