<svg width="97" height="27" viewBox="0 0 97 27" fill="none" xmlns="http://www.w3.org/2000/svg">
<path d="M60.844 6.40867V4.33606H53.4957C52.2598 4.33606 51.2622 5.33538 51.2622 6.57349V19.0727H53.5929V12.9198H60.0472V10.8459H53.5929V6.41646H60.844V6.40867Z" fill="url(#paint0_linear_4495_10013)"/>
<path d="M72.1282 10.0387C72.3135 10.027 72.4987 10.0296 72.693 10.0477C72.7228 10.0503 72.7539 10.0555 72.7837 10.0594L72.8809 10.0724C72.9275 10.0789 72.9742 10.0841 73.0195 10.0932C73.0662 10.1023 73.1115 10.1126 73.1555 10.1243L73.2398 10.1451C73.2722 10.1529 73.3045 10.1594 73.3356 10.1684C73.3991 10.1866 73.4613 10.2087 73.5274 10.232L73.5611 10.2437C73.587 10.2528 73.6129 10.2619 73.6388 10.271C73.7075 10.2969 73.7735 10.3268 73.859 10.3657L73.9316 10.3995C74.0054 10.4358 74.078 10.4747 74.1479 10.5163L74.201 10.5474C74.2788 10.5941 74.3539 10.6434 74.4355 10.7031L74.4485 10.7122C74.8851 11.0302 75.2491 11.452 75.5043 11.9335L75.5899 12.0957L76.9048 10.1438L76.8556 10.0802C76.7532 9.9517 76.6561 9.8362 76.5576 9.72848L76.4864 9.64931C76.4592 9.61817 76.4319 9.58702 76.4022 9.55717C76.3775 9.53251 76.3529 9.51045 76.327 9.48838C76.3102 9.47411 76.2933 9.45983 76.2778 9.44426L76.2519 9.4209C76.0886 9.26905 75.9137 9.1237 75.7298 8.98743L75.6598 8.93552C75.5704 8.87192 75.4784 8.80963 75.3852 8.75252C75.3567 8.73435 75.3282 8.71878 75.2997 8.70191L75.2608 8.67855C75.1235 8.59808 74.9861 8.52411 74.8527 8.45792C74.7724 8.41898 74.6908 8.38005 74.6078 8.34371C74.5949 8.33852 74.5819 8.33203 74.569 8.32554C74.5495 8.31646 74.5301 8.30608 74.5094 8.29829C74.4887 8.2905 74.4679 8.28271 74.4472 8.27623C74.4329 8.27103 74.4187 8.26714 74.4057 8.26195C74.3073 8.22431 74.2075 8.18927 74.1065 8.15683L74.0521 8.13866C74.021 8.12827 73.9886 8.11789 73.9575 8.10751C73.8176 8.06598 73.6699 8.03094 73.5092 7.9972C73.473 7.98941 73.4367 7.98292 73.3991 7.97773L73.3538 7.96994C73.2385 7.94918 73.1219 7.9323 73.0053 7.91933L72.9716 7.91543C72.9314 7.91154 72.8926 7.90635 72.8524 7.90245C72.5169 7.8739 72.2655 7.8726 71.9935 7.89077C70.3054 7.99849 68.7015 8.9472 67.7052 10.4267L64.2539 15.5505V4.33606H62.106V19.0727H64.4729L69.484 11.6311C70.1111 10.6992 71.0995 10.1048 72.1282 10.0387Z" fill="url(#paint1_linear_4495_10013)"/>
<path d="M96.7224 8.06995H94.3502L91.8771 15.5428L89.4479 8.26332L89.3832 8.06995H87.4787L87.414 8.26332L84.9654 15.5428L82.5764 8.26332L82.513 8.06995H80.2497L80.2069 8.13354L75.2321 15.5207C74.605 16.4525 73.6165 17.0482 72.5879 17.1131C72.5127 17.1183 72.4389 17.1209 72.3625 17.1209C72.2536 17.1144 72.137 17.1157 72.0217 17.1053C71.9945 17.1027 71.9673 17.0988 71.9414 17.095L71.8507 17.082C71.7989 17.0755 71.7471 17.069 71.6953 17.0586C71.6525 17.0508 71.6111 17.0404 71.5683 17.0301L71.4802 17.0093C71.4452 17.0015 71.4115 16.9937 71.3766 16.9833C71.3157 16.9665 71.2574 16.9457 71.19 16.921L71.155 16.9094C71.1278 16.9003 71.0993 16.8912 71.0721 16.8795C71.0047 16.8536 70.94 16.825 70.8752 16.7952L70.8506 16.7835C70.8273 16.7731 70.8026 16.7614 70.7793 16.751C70.7081 16.7147 70.6368 16.6771 70.5669 16.6355L70.5086 16.6005C70.4334 16.5538 70.3596 16.5057 70.287 16.4551L70.2598 16.4357C69.8245 16.1177 69.4618 15.6959 69.2078 15.217L69.1223 15.0548L67.8074 17.0067L67.8566 17.0703C67.9577 17.1975 68.0548 17.3117 68.1546 17.422L68.2258 17.5012C68.253 17.5323 68.2802 17.5635 68.31 17.5933C68.3347 17.618 68.3606 17.64 68.3865 17.6634C68.4033 17.6777 68.4202 17.6932 68.4357 17.7075L68.4538 17.7244C68.6184 17.8775 68.7946 18.0242 68.9785 18.1605L69.0537 18.2163C69.1431 18.2799 69.2325 18.3396 69.3244 18.398C69.3529 18.4161 69.3827 18.433 69.4125 18.4512L69.4553 18.4758C69.59 18.555 69.7248 18.6277 69.8569 18.6926C69.9385 18.7328 70.0201 18.7717 70.1031 18.8068C70.116 18.812 70.129 18.8184 70.1419 18.8249C70.1614 18.8353 70.1821 18.8444 70.2015 18.8522C70.2222 18.8613 70.2443 18.8678 70.265 18.8756L70.3065 18.8898C70.4049 18.9275 70.5047 18.9625 70.6057 18.995L70.6601 19.0131C70.6912 19.0235 70.7223 19.0339 70.7534 19.043C70.892 19.0832 71.0397 19.1195 71.203 19.1533C71.2392 19.1611 71.2755 19.1663 71.3131 19.1728L71.3558 19.1805C71.4724 19.2013 71.5903 19.2182 71.7082 19.2312L71.7393 19.235C71.7782 19.2389 71.8183 19.2441 71.8572 19.248C72.0438 19.2636 72.2005 19.2714 72.3521 19.2714C72.4739 19.2714 72.5957 19.2675 72.7174 19.2597C74.4055 19.152 76.0081 18.2033 77.0057 16.7238L81.0451 10.7253L83.3719 17.5038L83.9108 19.0728H85.8723L85.9073 18.9651L86.2221 18.0164L86.2298 17.9943L88.4348 11.3495L90.6813 18.1721L90.978 19.0728H92.9187L92.9562 18.9651H92.9575L93.1907 18.2889L95.7183 10.9615L95.7326 10.9186L96.6485 8.26332L96.7159 8.06995H96.7224Z" fill="url(#paint2_linear_4495_10013)"/>
<path d="M11.3306 16.3993C12.1299 15.9126 12.757 15.2547 13.213 14.424C13.669 13.5934 13.8996 12.6577 13.8996 11.626C13.8996 10.5942 13.6677 9.6429 13.213 8.82008C12.757 7.99727 12.1299 7.33798 11.3383 6.8526C10.5468 6.36592 9.63472 6.12712 8.60477 6.12712C7.57482 6.12712 6.68479 6.36592 5.89322 6.8526C5.10165 7.33928 4.47462 7.98948 4.01859 8.82008C3.56256 9.65069 3.33844 10.5864 3.33844 11.626C3.33844 12.6655 3.56256 13.5934 4.01859 14.424C4.47462 15.2547 5.10165 15.9126 5.89322 16.3993C6.68479 16.886 7.58908 17.1248 8.60477 17.1248C9.62047 17.1248 10.5325 16.8847 11.3306 16.3993ZM5.61598 18.7042C4.68968 18.3305 3.88256 17.7919 3.19593 17.1027C2.50929 16.4149 1.97035 15.6064 1.58299 14.6706C1.19433 13.7349 1 12.7252 1 11.6247C1 10.5241 1.19433 9.51442 1.58299 8.57869C1.97165 7.64297 2.50929 6.84221 3.19593 6.15437C3.88256 5.47302 4.68968 4.94221 5.61598 4.56844C6.54229 4.19467 7.53596 4 8.60348 4C9.671 4 10.6724 4.18689 11.591 4.56844C12.5173 4.94221 13.3244 5.48081 14.0188 6.16995C14.7132 6.85779 15.2509 7.66633 15.6317 8.59426C16.0126 9.5222 16.207 10.5319 16.207 11.6324C16.207 12.733 16.0126 13.7427 15.624 14.6706C15.2353 15.5986 14.6977 16.4071 14.011 17.095C13.3244 17.7828 12.5173 18.3227 11.591 18.7042C10.6647 19.0858 9.671 19.2805 8.60348 19.2805C7.54244 19.2649 6.54229 19.078 5.61598 18.7042Z" fill="url(#paint3_linear_4495_10013)"/>
<path d="M25.1823 16.7277C25.6681 16.4214 26.0568 16.0022 26.3405 15.4701C26.6242 14.9315 26.7667 14.3332 26.7667 13.6518C26.7667 12.9705 26.6242 12.3722 26.3405 11.8479C26.0568 11.3171 25.6681 10.9044 25.1823 10.5981C24.6965 10.2918 24.129 10.1413 23.502 10.1413C22.875 10.1413 22.3218 10.2905 21.8282 10.5981C21.3346 10.9044 20.9472 11.3171 20.6635 11.8479C20.3798 12.3787 20.2372 12.9783 20.2372 13.6518C20.2372 14.3254 20.3798 14.9315 20.6635 15.4701C20.9472 16.0087 21.3359 16.4279 21.8282 16.7277C22.3218 17.0339 22.8814 17.1845 23.502 17.1845C24.129 17.1845 24.69 17.0352 25.1823 16.7277ZM17.9895 8.29446H20.1258V9.64159C20.5223 9.14064 21.0301 8.75129 21.6416 8.47486C22.2544 8.19842 22.9488 8.05566 23.7106 8.05566C24.7263 8.05566 25.6448 8.30225 26.4519 8.78893C27.2655 9.27561 27.9016 9.94918 28.3719 10.7941C28.8422 11.6402 29.0741 12.5902 29.0741 13.6531C29.0741 14.716 28.8422 15.6661 28.3719 16.5122C27.9016 17.3584 27.2668 18.0307 26.4597 18.5251C25.6526 19.0196 24.734 19.2662 23.7028 19.2662C22.9928 19.2662 22.3282 19.139 21.7232 18.8768C21.1182 18.6225 20.6104 18.2487 20.2139 17.7763V20.7548C20.2139 21.9968 19.2125 23 17.9727 23V8.29576H17.9882L17.9895 8.29446Z" fill="url(#paint4_linear_4495_10013)"/>
<path d="M32.5104 18.7263C31.9054 18.359 31.4274 17.8502 31.0918 17.2C30.7563 16.5485 30.584 15.7854 30.584 14.925V8.29443H32.8253V14.7225C32.8253 15.4636 33.0494 16.0619 33.4899 16.5109C33.9303 16.9599 34.4978 17.1845 35.1857 17.1845C35.8736 17.1845 36.4631 16.9522 36.9114 16.4888C37.3596 16.0255 37.5837 15.4039 37.5837 14.6252V8.29443H39.8017V19.0326H37.6809V17.701C37.3752 18.202 36.9632 18.5913 36.4333 18.8612C35.9034 19.1312 35.3049 19.2649 34.6325 19.2649C33.8254 19.2649 33.1167 19.0858 32.5117 18.7263" fill="url(#paint5_linear_4495_10013)"/>
<path d="M42.8225 18.4563C41.9934 17.9177 41.4182 17.1844 41.0891 16.2708L42.8148 15.4544C43.1063 16.0605 43.5014 16.5472 44.0105 16.9067C44.5184 17.2662 45.0858 17.4453 45.7064 17.4453C46.2363 17.4453 46.6625 17.3259 46.9916 17.0858C47.3206 16.8457 47.4852 16.5251 47.4852 16.1124C47.4852 15.7309 47.3362 15.4389 47.0291 15.252C46.7234 15.0573 46.4021 14.9158 46.0575 14.825L44.3772 14.3461C43.4509 14.0839 42.7642 13.6881 42.3082 13.156C41.8522 12.6252 41.6216 11.9958 41.6216 11.2703C41.6216 10.6188 41.7861 10.0581 42.1152 9.58702C42.4442 9.10813 42.899 8.73436 43.482 8.46441C44.0649 8.19447 44.714 8.06079 45.446 8.06079C46.4241 8.06079 47.2986 8.29959 48.0604 8.78627C48.8299 9.27295 49.3676 9.93873 49.6811 10.7992L47.9554 11.6142C47.7468 11.0977 47.41 10.6863 46.954 10.3865C46.498 10.0802 45.9823 9.92964 45.4149 9.92964C44.9291 9.92964 44.5339 10.0413 44.2502 10.2658C43.9587 10.4903 43.8175 10.7966 43.8175 11.1781C43.8175 11.5597 43.96 11.8296 44.2502 12.0087C44.5417 12.1956 44.8475 12.3384 45.1843 12.4422L46.9242 12.9587C47.8051 13.2131 48.4931 13.6025 48.9634 14.1411C49.4414 14.6796 49.6733 15.3156 49.6733 16.0566C49.6733 16.6926 49.5088 17.2532 49.1797 17.7334C48.8506 18.2201 48.3804 18.5939 47.7831 18.8638C47.1859 19.1337 46.4837 19.2674 45.6921 19.2674C44.6091 19.2596 43.6452 18.991 42.8238 18.4524" fill="url(#paint6_linear_4495_10013)"/>
<defs>
<linearGradient id="paint0_linear_4495_10013" x1="56.0952" y1="3.19958" x2="56.0952" y2="19.1025" gradientUnits="userSpaceOnUse">
<stop stop-color="white" stop-opacity="0.95"/>
<stop offset="1" stop-color="white" stop-opacity="0.8"/>
</linearGradient>
<linearGradient id="paint1_linear_4495_10013" x1="69.5704" y1="3.19958" x2="69.5704" y2="19.1025" gradientUnits="userSpaceOnUse">
<stop stop-color="white" stop-opacity="0.95"/>
<stop offset="1" stop-color="white" stop-opacity="0.8"/>
</linearGradient>
<linearGradient id="paint2_linear_4495_10013" x1="82.3919" y1="7.2061" x2="82.3919" y2="19.294" gradientUnits="userSpaceOnUse">
<stop stop-color="white" stop-opacity="0.95"/>
<stop offset="1" stop-color="white" stop-opacity="0.8"/>
</linearGradient>
<linearGradient id="paint3_linear_4495_10013" x1="8.6703" y1="2.82159" x2="8.6703" y2="19.3113" gradientUnits="userSpaceOnUse">
<stop stop-color="white" stop-opacity="0.95"/>
<stop offset="1" stop-color="white" stop-opacity="0.8"/>
</linearGradient>
<linearGradient id="paint4_linear_4495_10013" x1="23.5721" y1="6.90317" x2="23.5721" y2="23.0302" gradientUnits="userSpaceOnUse">
<stop stop-color="white" stop-opacity="0.95"/>
<stop offset="1" stop-color="white" stop-opacity="0.8"/>
</linearGradient>
<linearGradient id="paint5_linear_4495_10013" x1="35.2333" y1="7.44841" x2="35.2333" y2="19.287" gradientUnits="userSpaceOnUse">
<stop stop-color="white" stop-opacity="0.95"/>
<stop offset="1" stop-color="white" stop-opacity="0.8"/>
</linearGradient>
<linearGradient id="paint6_linear_4495_10013" x1="45.4229" y1="7.19655" x2="45.4229" y2="19.29" gradientUnits="userSpaceOnUse">
<stop stop-color="white" stop-opacity="0.95"/>
<stop offset="1" stop-color="white" stop-opacity="0.8"/>
</linearGradient>
</defs>
</svg>
