<svg xmlns="http://www.w3.org/2000/svg" viewBox="0 0 1000.83 159.3">
<g id="profitflowlogo2_svg__Laag_1-2" fill="#FFF"><path d="M625.74 25.06V3.42h-76.82c-12.92 0-23.35 10.43-23.35 23.35v130.45h24.36V93.01h67.48V71.37h-67.48V25.13h75.81v-.08zM1000.13 44.41l.7-2.02h-24.8l-25.85 77.99-25.39-75.97-.68-2.02h-19.9l-.68 2.02-25.6 75.97-24.98-75.97-.66-2.02h-23.66l-.44.66-52.01 77.1c-6.56 9.72-16.9 15.94-27.65 16.62-.78.05-1.56.08-2.35.08-1.14-.07-2.36-.05-3.57-.17-.28-.03-.56-.07-.84-.11l-.95-.13c-.54-.07-1.09-.14-1.62-.24-.45-.09-.89-.19-1.32-.3l-.91-.22c-.36-.08-.72-.17-1.08-.27-.63-.18-1.25-.4-1.96-.64l-.36-.12c-.29-.1-.58-.2-.86-.31-.7-.27-1.38-.57-2.06-.89l-.26-.12c-.25-.11-.5-.23-.74-.35-.75-.37-1.49-.77-2.22-1.2l-.61-.36c-.79-.48-1.56-.98-2.32-1.52l-.28-.2a37.646 37.646 0 0 1-11-12.72l-.89-1.69-13.75 20.38.52.66c1.05 1.32 2.07 2.52 3.12 3.67l.74.83c.29.33.57.65.88.97.26.26.53.49.8.73l.52.46.19.17c1.72 1.6 3.56 3.13 5.49 4.55l.78.58c.93.66 1.87 1.29 2.83 1.89.3.19.61.37.92.55l.44.26c1.41.83 2.82 1.59 4.2 2.26.85.41 1.7.82 2.57 1.19.14.06.28.13.41.19.21.1.41.2.62.29.22.09.44.16.67.24l.43.15c1.03.4 2.07.76 3.13 1.1l.57.19c.33.11.65.22.98.32 1.46.43 2.99.8 4.7 1.16.38.08.77.14 1.15.21l.44.08c1.21.21 2.44.39 3.69.53l.32.04c.41.05.82.09 1.24.13 1.94.17 3.59.25 5.17.25 1.27 0 2.55-.04 3.82-.12 17.65-1.12 34.41-11.02 44.83-26.47l42.24-62.61 29.57 86h21.26l26.43-79.48 26.22 79.48h21.06l28.87-83.53.16-.45 9.58-27.71zm-294.01 97.91z" class="profitflowlogo2_svg__cls-1"></path><path d="M743.71 62.94c1.93-.12 3.88-.1 5.91.09.32.03.63.08.94.13l1.02.14c.49.06.97.13 1.45.21.48.09.96.21 1.43.33l.88.21c.34.08.68.16 1.01.25.67.19 1.32.42 2.01.66l.36.12c.27.09.55.18.82.29.71.28 1.41.59 2.3.99l.75.35c.77.38 1.53.79 2.26 1.22l.55.33c.81.49 1.6 1 2.46 1.62l.13.1c4.56 3.32 8.37 7.73 11.03 12.74l.89 1.69 13.75-20.38-.52-.66a68.626 68.626 0 0 0-3.12-3.66l-.74-.83c-.29-.32-.57-.65-.88-.96-.25-.25-.52-.49-.79-.72-.17-.15-.35-.3-.51-.46l-.28-.25c-1.7-1.59-3.54-3.11-5.46-4.52l-.73-.54a55.13 55.13 0 0 0-2.87-1.92c-.29-.18-.59-.36-.89-.53l-.4-.24c-1.43-.84-2.87-1.62-4.27-2.3-.84-.41-1.69-.82-2.56-1.19-.14-.06-.28-.13-.41-.19-.2-.1-.41-.2-.62-.28-.21-.09-.43-.16-.65-.23-.15-.05-.3-.1-.44-.15-1.03-.4-2.07-.76-3.13-1.1l-.57-.19c-.33-.11-.66-.22-.99-.32-1.47-.43-3-.8-4.69-1.15-.38-.08-.76-.14-1.15-.21l-.48-.08c-1.21-.21-2.42-.39-3.65-.53l-.35-.04c-.41-.05-.83-.09-1.24-.13-3.51-.3-6.14-.31-8.98-.13-17.65 1.12-34.41 11.02-44.83 26.47l-36.08 53.48V3.42h-22.45v153.8h24.75l52.39-77.66c6.56-9.72 16.89-15.94 27.64-16.62z" class="profitflowlogo2_svg__cls-1"></path><g><path d="M0 2.48h56.1c10.35 0 19.49 1.93 27.43 5.8 7.93 3.87 14.11 9.39 18.53 16.56 4.42 7.18 6.62 15.8 6.62 25.88s-2.21 18.49-6.62 25.67c-4.42 7.18-10.59 12.7-18.53 16.56-7.94 3.86-17.08 5.8-27.43 5.8H24.43v57.96H0V2.48zM56.72 77c8.28 0 14.97-2.41 20.08-7.25 5.1-4.83 7.66-11.25 7.66-19.25s-2.55-14.56-7.66-19.25c-5.11-4.69-11.8-7.04-20.08-7.04H24.43V77h32.29zM126.27 44.71h22.36v14.28c2.9-5.52 6.9-9.52 12.01-12.01 5.1-2.48 11.04-3.73 17.8-3.73h6.83v21.32h-9.73c-7.73 0-13.97 2.38-18.73 7.14s-7.14 11.56-7.14 20.39v64.58h-23.39V44.71zM220.56 151.52c-8.9-5.1-15.97-12.07-21.22-20.91-5.25-8.83-7.87-18.84-7.87-30.02s2.59-21.35 7.76-30.12c5.18-8.76 12.21-15.66 21.11-20.7 8.9-5.04 18.8-7.56 29.71-7.56s20.77 2.52 29.6 7.56c8.83 5.04 15.84 11.94 21.01 20.7 5.17 8.77 7.76 18.8 7.76 30.12s-2.62 21.39-7.87 30.22c-5.25 8.83-12.28 15.77-21.11 20.8-8.83 5.04-18.63 7.55-29.39 7.55s-20.6-2.55-29.5-7.66zm46.99-18.84c5.17-3.17 9.24-7.55 12.21-13.14 2.97-5.59 4.45-11.9 4.45-18.94s-1.48-13.32-4.45-18.84-7.04-9.86-12.21-13.04c-5.17-3.17-11.01-4.76-17.49-4.76s-12.32 1.59-17.49 4.76c-5.17 3.18-9.25 7.52-12.21 13.04-2.97 5.52-4.45 11.8-4.45 18.84s1.48 13.35 4.45 18.94c2.97 5.59 7.04 9.97 12.21 13.14 5.17 3.18 11 4.76 17.49 4.76s12.32-1.58 17.49-4.76zM465.12 148c-6.49-6.62-9.73-15.94-9.73-27.95V65.82h-19.67V44.71h3.11c5.24 0 9.31-1.52 12.21-4.55 2.9-3.03 4.35-7.17 4.35-12.42v-8.69h23.39v25.67h25.46v21.11h-25.46v53.2c0 5.66 1.41 10.11 4.24 13.35s7.62 4.86 14.39 4.86c2.48 0 5.04-.21 7.66-.62v20.08c-1.79.27-3.86.55-6.21.83-2.35.27-4.49.41-6.42.41-11.73 0-20.84-3.31-27.32-9.94zM335.13 65.83h-20.7V44.72h20.7v-5.8c0-12.55 3.83-22.18 11.49-28.88C354.28 3.35 364.04 0 375.91 0c1.52 0 3.24.1 5.17.31 1.93.21 3.52.45 4.76.72v20.29c-1.11-.28-2.35-.45-3.73-.52s-2.48-.1-3.31-.1c-6.21 0-11.18 1.42-14.9 4.24-3.73 2.83-5.59 7.49-5.59 13.97v5.8h25.67v21.11h-25.67v67.69c0 12.8-10.38 23.18-23.18 23.18V65.83zM398.47 44.71h23.39V156.7h-23.39V44.71zm24.89-28.77c0 7.43-6.02 13.46-13.46 13.46s-13.46-6.02-13.46-13.46 6.02-13.46 13.46-13.46 13.46 6.02 13.46 13.46" ></path></g></g>
</svg>