<svg width="117" height="27" viewBox="0 0 117 27" fill="none" xmlns="http://www.w3.org/2000/svg">
<g clip-path="url(#clip0_25425_3847)">
<path fill-rule="evenodd" clip-rule="evenodd" d="M20.4483 11.4034C20.1461 11.3569 19.8439 11.3341 19.565 11.3341C17.4727 11.3341 16.5196 12.542 16.5196 14.6567V20.047H13.8239V8.73144H16.4503V10.544C16.985 9.31239 18.2399 8.59201 19.7277 8.59201C20.0531 8.59201 20.3321 8.63848 20.4483 8.66172V11.4034Z" fill="white"/>
<path fill-rule="evenodd" clip-rule="evenodd" d="M30.7902 14.3769C30.7902 12.0303 29.3024 10.8224 27.6291 10.8224C25.9786 10.8224 24.4675 12.0303 24.4675 14.3769C24.4675 16.724 25.9786 17.9788 27.6291 17.9788C29.3024 17.9788 30.7902 16.7476 30.7902 14.3769ZM33.5096 14.3769C33.5096 17.8626 31.0226 20.3951 27.6291 20.3951C24.2583 20.3951 21.7713 17.8626 21.7713 14.3769C21.7713 10.9149 24.2583 8.3824 27.6291 8.3824C31.0226 8.3824 33.5096 10.9149 33.5096 14.3769Z" fill="white"/>
<path fill-rule="evenodd" clip-rule="evenodd" d="M41.88 10.8691C40.1137 10.8691 38.8352 12.2629 38.8352 14.3771C38.8352 16.5383 40.1137 17.9325 41.88 17.9325C43.67 17.9325 44.9254 16.5383 44.9254 14.3771C44.9254 12.2629 43.6933 10.8691 41.88 10.8691ZM36.1855 24.4615V8.73118H38.7887V10.2649C39.3466 9.28889 40.6484 8.47556 42.3915 8.47556C45.7385 8.47556 47.6215 11.0317 47.6215 14.3771C47.6215 17.7699 45.5526 20.3256 42.2985 20.3256C40.6712 20.3256 39.4396 19.6285 38.8584 18.7691V24.4615H36.1855Z" fill="white"/>
<path fill-rule="evenodd" clip-rule="evenodd" d="M58.4272 14.3769C58.4272 12.0303 56.9394 10.8224 55.2661 10.8224C53.6156 10.8224 52.105 12.0303 52.105 14.3769C52.105 16.724 53.6156 17.9788 55.2661 17.9788C56.9394 17.9788 58.4272 16.7476 58.4272 14.3769ZM61.1466 14.3769C61.1466 17.8626 58.6596 20.3951 55.2661 20.3951C51.8957 20.3951 49.4088 17.8626 49.4088 14.3769C49.4088 10.9149 51.8957 8.3824 55.2661 8.3824C58.6596 8.3824 61.1466 10.9149 61.1466 14.3769Z" fill="white"/>
<path fill-rule="evenodd" clip-rule="evenodd" d="M80.8145 15.3534V14.8421L77.8622 15.2836C77.0257 15.4226 76.3516 15.8878 76.3516 16.8169C76.3516 17.5838 76.9327 18.2809 78.0021 18.2809C79.5127 18.2809 80.8145 17.5605 80.8145 15.3534ZM77.0718 13.564L79.9772 13.1225C80.6285 13.0296 80.8145 12.7042 80.8145 12.3092C80.8145 11.3564 80.1636 10.59 78.6763 10.59C77.2578 10.59 76.4674 11.4963 76.3516 12.6345L73.8879 12.0768C74.0966 10.1252 75.8634 8.3824 78.6526 8.3824C82.1391 8.3824 83.4642 10.3576 83.4642 12.6113V18.2344C83.4642 19.2565 83.5804 19.9308 83.6037 20.0466H81.093C81.0702 19.9768 80.9772 19.5121 80.9772 18.6062C80.4426 19.466 79.3267 20.3951 77.4907 20.3951C75.1195 20.3951 73.655 18.7689 73.655 16.9796C73.655 14.9583 75.1428 13.8429 77.0718 13.564Z" fill="white"/>
<path fill-rule="evenodd" clip-rule="evenodd" d="M86.7903 20.0473H89.4864V4.35905H86.7903V20.0473Z" fill="white"/>
<path fill-rule="evenodd" clip-rule="evenodd" d="M100.481 13.1457C100.434 11.8212 99.5504 10.6365 97.6911 10.6365C95.9946 10.6365 95.0178 11.9378 94.9252 13.1457H100.481ZM103.06 16.8169C102.456 18.7921 100.666 20.3951 97.9469 20.3951C94.8787 20.3951 92.1593 18.1647 92.1593 14.3304C92.1593 10.7522 94.809 8.3824 97.6679 8.3824C101.155 8.3824 103.2 10.683 103.2 14.2612C103.2 14.7027 103.153 15.0741 103.13 15.121H94.8555C94.9252 16.8406 96.2735 18.0718 97.9469 18.0718C99.5741 18.0718 100.411 17.212 100.783 16.0965L103.06 16.8169Z" fill="white"/>
<path fill-rule="evenodd" clip-rule="evenodd" d="M6.37553 4.0197L5.23337 4.01488L5.22241 6.53028L6.00841 6.53335C7.45497 6.53993 8.3322 7.36115 8.3265 8.68177C8.3208 9.9603 7.43655 10.7947 5.98955 10.7881L5.20399 10.785L5.19302 13.2789L6.33518 13.2843C9.2704 13.2969 11.2293 11.3769 11.2412 8.67344C11.2525 5.99055 9.31119 4.03286 6.37553 4.0197Z" fill="white"/>
<path fill-rule="evenodd" clip-rule="evenodd" d="M0.096057 4L0.0666697 10.7701L0.0407914 10.7697L0.0298259 13.2641H0.0346507L0.0162288 17.5188H0.0109654L0 20.0342L2.91943 20.0469L2.98961 4.01272L0.096057 4Z" fill="white"/>
<path fill-rule="evenodd" clip-rule="evenodd" d="M112.183 4.35905L112.181 6.87753C113.075 6.92663 114.001 7.72111 114.007 8.95886L116.921 8.96675C116.91 6.31499 115.025 4.41868 112.183 4.35905Z" fill="white"/>
<path fill-rule="evenodd" clip-rule="evenodd" d="M108.023 9.02304C108.018 7.82782 108.736 7.04211 109.944 6.89874L109.942 4.36229C107.025 4.38903 105.097 6.34146 105.108 9.01471C105.12 11.6985 107.05 13.6088 109.95 13.6246L109.948 11.107C108.747 10.9663 108.028 10.1753 108.023 9.02304Z" fill="white"/>
<path fill-rule="evenodd" clip-rule="evenodd" d="M109.94 20.3955L109.942 17.877C109.048 17.8279 108.121 17.0334 108.116 15.7957L105.201 15.7873C105.213 18.4395 107.098 20.3358 109.94 20.3955Z" fill="white"/>
<path fill-rule="evenodd" clip-rule="evenodd" d="M114.107 15.7309C114.112 16.9257 113.394 17.7118 112.185 17.8552L112.188 20.3916C115.105 20.3649 117.033 18.4125 117.022 15.7392C117.009 13.0554 115.079 11.1451 112.181 11.1293L112.182 13.6469C113.383 13.7877 114.102 14.5786 114.107 15.7309Z" fill="white"/>
<path fill-rule="evenodd" clip-rule="evenodd" d="M67.2064 20.3951C64.4462 20.3951 62.9062 18.7347 62.8961 16.4832L65.3704 16.4907C65.3752 17.5408 66.3138 18.2572 67.2424 18.2572L67.4744 18.2577C68.5903 18.2577 69.171 17.6535 69.171 16.9563C69.171 16.3521 68.7526 15.8878 67.8459 15.7019L66.1726 15.3297C64.1734 14.8886 63.1277 13.5873 63.1277 12.0303C63.1277 10.0555 64.9405 8.3824 67.2885 8.3824H67.7271C70.0991 8.43238 71.6724 10.0152 71.6821 12.2285L69.2495 12.2215C69.2447 11.1885 68.4389 10.526 67.4683 10.4931L67.2885 10.4971C66.3353 10.4971 65.6612 11.1008 65.6612 11.7979C65.6612 12.4021 66.1029 12.8437 66.8003 12.9831L68.5205 13.3317C70.6588 13.7964 71.7742 15.0977 71.7742 16.7704C71.7742 18.4896 70.3798 20.3951 67.4972 20.3951H67.2064Z" fill="white"/>
</g>
<defs>
<clipPath id="clip0_25425_3847">
<rect width="117" height="27" fill="white"/>
</clipPath>
</defs>
</svg>
