<svg width="117" height="27" viewBox="0 0 117 27" fill="none" xmlns="http://www.w3.org/2000/svg">
<path fill-rule="evenodd" clip-rule="evenodd" d="M22.3114 14.5417C22.024 14.4975 21.7366 14.4758 21.4713 14.4758C19.4815 14.4758 18.5751 15.6246 18.5751 17.6358V22.7623H16.0113V12.0006H18.5091V13.7244C19.0177 12.5531 20.2111 11.868 21.6261 11.868C21.9356 11.868 22.2009 11.9122 22.3114 11.9343V14.5417Z" fill="url(#paint0_linear_4478_26544)"/>
<path fill-rule="evenodd" clip-rule="evenodd" d="M32.1471 17.3697C32.1471 15.138 30.7321 13.9892 29.1407 13.9892C27.571 13.9892 26.1339 15.138 26.1339 17.3697C26.1339 19.6019 27.571 20.7953 29.1407 20.7953C30.7321 20.7953 32.1471 19.6244 32.1471 17.3697ZM34.7334 17.3697C34.7334 20.6848 32.3682 23.0934 29.1407 23.0934C25.9349 23.0934 23.5697 20.6848 23.5697 17.3697C23.5697 14.0772 25.9349 11.6686 29.1407 11.6686C32.3682 11.6686 34.7334 14.0772 34.7334 17.3697Z" fill="url(#paint1_linear_4478_26544)"/>
<path fill-rule="evenodd" clip-rule="evenodd" d="M42.6941 14.0336C41.0143 14.0336 39.7983 15.3592 39.7983 17.3699C39.7983 19.4253 41.0143 20.7513 42.6941 20.7513C44.3965 20.7513 45.5904 19.4253 45.5904 17.3699C45.5904 15.3592 44.4186 14.0336 42.6941 14.0336ZM37.2783 26.9607V12.0003H39.7541V13.459C40.2847 12.5307 41.5228 11.7572 43.1805 11.7572C46.3638 11.7572 48.1546 14.1883 48.1546 17.3699C48.1546 20.5966 46.1869 23.0273 43.0921 23.0273C41.5445 23.0273 40.3731 22.3642 39.8204 21.5469V26.9607H37.2783Z" fill="url(#paint2_linear_4478_26544)"/>
<path fill-rule="evenodd" clip-rule="evenodd" d="M58.4313 17.3697C58.4313 15.138 57.0164 13.9892 55.425 13.9892C53.8552 13.9892 52.4186 15.138 52.4186 17.3697C52.4186 19.6019 53.8552 20.7953 55.425 20.7953C57.0164 20.7953 58.4313 19.6244 58.4313 17.3697ZM61.0177 17.3697C61.0177 20.6848 58.6524 23.0934 55.425 23.0934C52.2196 23.0934 49.8544 20.6848 49.8544 17.3697C49.8544 14.0772 52.2196 11.6686 55.425 11.6686C58.6524 11.6686 61.0177 14.0772 61.0177 17.3697Z" fill="url(#paint3_linear_4478_26544)"/>
<path fill-rule="evenodd" clip-rule="evenodd" d="M79.7229 18.2984V17.8122L76.915 18.2321C76.1195 18.3643 75.4784 18.8067 75.4784 19.6903C75.4784 20.4196 76.0311 21.0826 77.0481 21.0826C78.4848 21.0826 79.7229 20.3975 79.7229 18.2984ZM76.1633 16.5966L78.9265 16.1767C79.546 16.0883 79.7229 15.7789 79.7229 15.4032C79.7229 14.4971 79.1038 13.7682 77.6893 13.7682C76.3402 13.7682 75.5885 14.6301 75.4784 15.7126L73.1353 15.1822C73.3338 13.3262 75.0141 11.6686 77.6667 11.6686C80.9826 11.6686 82.2429 13.5472 82.2429 15.6905V21.0384C82.2429 22.0104 82.3534 22.6518 82.3755 22.7618H79.9878C79.9661 22.6955 79.8776 22.2535 79.8776 21.392C79.3691 22.2098 78.3079 23.0934 76.5617 23.0934C74.3066 23.0934 72.9138 21.5467 72.9138 19.845C72.9138 17.9227 74.3287 16.8618 76.1633 16.5966Z" fill="url(#paint4_linear_4478_26544)"/>
<path fill-rule="evenodd" clip-rule="evenodd" d="M85.4061 22.7626H87.9703V7.84221H85.4061V22.7626Z" fill="url(#paint5_linear_4478_26544)"/>
<path fill-rule="evenodd" clip-rule="evenodd" d="M98.4265 16.1988C98.3819 14.9391 97.5417 13.8124 95.7734 13.8124C94.1599 13.8124 93.2309 15.05 93.1429 16.1988H98.4265ZM100.88 19.6903C100.305 21.5688 98.6029 23.0934 96.0166 23.0934C93.0987 23.0934 90.5124 20.9721 90.5124 17.3255C90.5124 13.9225 93.0324 11.6686 95.7513 11.6686C99.0676 11.6686 101.013 13.8566 101.013 17.2596C101.013 17.6796 100.968 18.0327 100.946 18.0774H93.0766C93.1429 19.7128 94.4252 20.8837 96.0166 20.8837C97.5642 20.8837 98.3598 20.066 98.7135 19.0052L100.88 19.6903Z" fill="url(#paint6_linear_4478_26544)"/>
<path fill-rule="evenodd" clip-rule="evenodd" d="M8.92748 7.51947L7.84123 7.51488L7.8308 9.90716L8.57833 9.91008C9.95408 9.91634 10.7884 10.6974 10.783 11.9533C10.7775 13.1693 9.93656 13.9628 8.56039 13.9566L7.81328 13.9536L7.80285 16.3255L8.8891 16.3306C11.6807 16.3426 13.5436 14.5166 13.5549 11.9454C13.5657 9.39385 11.7194 7.53198 8.92748 7.51947Z" fill="url(#paint7_linear_4478_26544)"/>
<path fill-rule="evenodd" clip-rule="evenodd" d="M2.95537 7.50073L2.92742 13.9395L2.90281 13.9391L2.89238 16.3113H2.89697L2.87945 20.3578H2.87444L2.86401 22.7501L5.64055 22.7622L5.70729 7.51283L2.95537 7.50073Z" fill="url(#paint8_linear_4478_26544)"/>
<path fill-rule="evenodd" clip-rule="evenodd" d="M109.556 7.84221L109.554 10.2374C110.404 10.2841 111.285 11.0397 111.29 12.2169L114.062 12.2244C114.051 9.70241 112.258 7.89892 109.556 7.84221Z" fill="url(#paint9_linear_4478_26544)"/>
<path fill-rule="evenodd" clip-rule="evenodd" d="M105.599 12.2779C105.594 11.1412 106.277 10.3939 107.427 10.2576L107.424 7.84529C104.65 7.87072 102.817 9.72759 102.827 12.27C102.839 14.8224 104.674 16.6392 107.432 16.6542L107.43 14.2599C106.288 14.126 105.604 13.3738 105.599 12.2779Z" fill="url(#paint10_linear_4478_26544)"/>
<path fill-rule="evenodd" clip-rule="evenodd" d="M107.423 23.0937L107.425 20.6985C106.574 20.6518 105.693 19.8962 105.688 18.719L102.916 18.7111C102.927 21.2335 104.72 23.037 107.423 23.0937Z" fill="url(#paint11_linear_4478_26544)"/>
<path fill-rule="evenodd" clip-rule="evenodd" d="M111.385 18.6574C111.391 19.7937 110.708 20.5414 109.558 20.6777L109.56 23.09C112.335 23.0646 114.169 21.2077 114.158 18.6653C114.146 16.1129 112.311 14.2961 109.554 14.2811L109.555 16.6755C110.698 16.8093 111.381 17.5616 111.385 18.6574Z" fill="url(#paint12_linear_4478_26544)"/>
<path fill-rule="evenodd" clip-rule="evenodd" d="M66.7809 23.0934C64.1558 23.0934 62.6911 21.5142 62.6816 19.373L65.0347 19.38C65.0393 20.3787 65.932 21.0601 66.8151 21.0601L67.0357 21.0605C68.097 21.0605 68.6493 20.4859 68.6493 19.8229C68.6493 19.2483 68.2513 18.8067 67.3891 18.6299L65.7976 18.2759C63.8963 17.8564 62.9018 16.6187 62.9018 15.138C62.9018 13.2599 64.6259 11.6686 66.8589 11.6686H67.276C69.532 11.7162 71.0283 13.2215 71.0374 15.3265L68.7239 15.3198C68.7193 14.3374 67.953 13.7073 67.0299 13.676L66.8589 13.6798C65.9524 13.6798 65.3113 14.254 65.3113 14.917C65.3113 15.4916 65.7313 15.9115 66.3946 16.0441L68.0306 16.3756C70.0642 16.8176 71.125 18.0553 71.125 19.6461C71.125 21.2811 69.7989 23.0934 67.0574 23.0934H66.7809Z" fill="url(#paint13_linear_4478_26544)"/>
<defs>
<linearGradient id="paint0_linear_4478_26544" x1="59" y1="6" x2="59" y2="27" gradientUnits="userSpaceOnUse">
<stop stop-color="white" stop-opacity="0.95"/>
<stop offset="1" stop-color="white" stop-opacity="0.8"/>
</linearGradient>
<linearGradient id="paint1_linear_4478_26544" x1="59" y1="6" x2="59" y2="27" gradientUnits="userSpaceOnUse">
<stop stop-color="white" stop-opacity="0.95"/>
<stop offset="1" stop-color="white" stop-opacity="0.8"/>
</linearGradient>
<linearGradient id="paint2_linear_4478_26544" x1="59" y1="6" x2="59" y2="27" gradientUnits="userSpaceOnUse">
<stop stop-color="white" stop-opacity="0.95"/>
<stop offset="1" stop-color="white" stop-opacity="0.8"/>
</linearGradient>
<linearGradient id="paint3_linear_4478_26544" x1="59" y1="6" x2="59" y2="27" gradientUnits="userSpaceOnUse">
<stop stop-color="white" stop-opacity="0.95"/>
<stop offset="1" stop-color="white" stop-opacity="0.8"/>
</linearGradient>
<linearGradient id="paint4_linear_4478_26544" x1="59" y1="6" x2="59" y2="27" gradientUnits="userSpaceOnUse">
<stop stop-color="white" stop-opacity="0.95"/>
<stop offset="1" stop-color="white" stop-opacity="0.8"/>
</linearGradient>
<linearGradient id="paint5_linear_4478_26544" x1="59" y1="6" x2="59" y2="27" gradientUnits="userSpaceOnUse">
<stop stop-color="white" stop-opacity="0.95"/>
<stop offset="1" stop-color="white" stop-opacity="0.8"/>
</linearGradient>
<linearGradient id="paint6_linear_4478_26544" x1="59" y1="6" x2="59" y2="27" gradientUnits="userSpaceOnUse">
<stop stop-color="white" stop-opacity="0.95"/>
<stop offset="1" stop-color="white" stop-opacity="0.8"/>
</linearGradient>
<linearGradient id="paint7_linear_4478_26544" x1="59" y1="6" x2="59" y2="27" gradientUnits="userSpaceOnUse">
<stop stop-color="white" stop-opacity="0.95"/>
<stop offset="1" stop-color="white" stop-opacity="0.8"/>
</linearGradient>
<linearGradient id="paint8_linear_4478_26544" x1="59" y1="6" x2="59" y2="27" gradientUnits="userSpaceOnUse">
<stop stop-color="white" stop-opacity="0.95"/>
<stop offset="1" stop-color="white" stop-opacity="0.8"/>
</linearGradient>
<linearGradient id="paint9_linear_4478_26544" x1="59" y1="6" x2="59" y2="27" gradientUnits="userSpaceOnUse">
<stop stop-color="white" stop-opacity="0.95"/>
<stop offset="1" stop-color="white" stop-opacity="0.8"/>
</linearGradient>
<linearGradient id="paint10_linear_4478_26544" x1="59" y1="6" x2="59" y2="27" gradientUnits="userSpaceOnUse">
<stop stop-color="white" stop-opacity="0.95"/>
<stop offset="1" stop-color="white" stop-opacity="0.8"/>
</linearGradient>
<linearGradient id="paint11_linear_4478_26544" x1="59" y1="6" x2="59" y2="27" gradientUnits="userSpaceOnUse">
<stop stop-color="white" stop-opacity="0.95"/>
<stop offset="1" stop-color="white" stop-opacity="0.8"/>
</linearGradient>
<linearGradient id="paint12_linear_4478_26544" x1="59" y1="6" x2="59" y2="27" gradientUnits="userSpaceOnUse">
<stop stop-color="white" stop-opacity="0.95"/>
<stop offset="1" stop-color="white" stop-opacity="0.8"/>
</linearGradient>
<linearGradient id="paint13_linear_4478_26544" x1="59" y1="6" x2="59" y2="27" gradientUnits="userSpaceOnUse">
<stop stop-color="white" stop-opacity="0.95"/>
<stop offset="1" stop-color="white" stop-opacity="0.8"/>
</linearGradient>
</defs>
</svg>
