<svg width="88" height="27" viewBox="0 0 88 27" fill="none" xmlns="http://www.w3.org/2000/svg">
<g clip-path="url(#clip0_25425_3857)">
<path d="M43.9004 8.75C40.4641 8.75 37.9864 10.8875 37.9864 14.0938C37.9864 17.3 40.7753 19.4375 44.2117 19.4375C46.2878 19.4375 48.118 18.6537 49.251 17.3327L46.8698 16.0205C46.2411 16.6766 45.2855 17.0595 44.2117 17.0595C42.7207 17.0595 41.4539 16.3173 40.9839 15.1298H49.7054C49.7739 14.7973 49.8144 14.453 49.8144 14.0908C49.8144 10.8875 47.3367 8.75 43.9004 8.75ZM40.9559 13.0547C41.3449 11.8702 42.4095 11.125 43.8973 11.125C45.3882 11.125 46.4528 11.8702 46.8387 13.0547H40.9559ZM77.4171 8.75C73.9808 8.75 71.5031 10.8875 71.5031 14.0938C71.5031 17.3 74.292 19.4375 77.7284 19.4375C79.8045 19.4375 81.6347 18.6537 82.7677 17.3327L80.3865 16.0205C79.7578 16.6766 78.8022 17.0595 77.7284 17.0595C76.2374 17.0595 74.9706 16.3173 74.5006 15.1298H83.2221C83.2906 14.7973 83.3311 14.453 83.3311 14.0908C83.3311 10.8875 80.8534 8.75 77.4171 8.75ZM74.4757 13.0547C74.8648 11.8702 75.9293 11.125 77.4171 11.125C78.9081 11.125 79.9726 11.8702 80.3585 13.0547H74.4757ZM62.3271 14.0938C62.3271 15.875 63.5473 17.0625 65.4397 17.0625C66.7221 17.0625 67.6839 16.5073 68.1788 15.6019L70.5693 16.917C69.5795 18.4905 67.7244 19.4375 65.4397 19.4375C62.0003 19.4375 59.5258 17.3 59.5258 14.0938C59.5258 10.8875 62.0034 8.75 65.4397 8.75C67.7244 8.75 69.5764 9.69703 70.5693 11.2705L68.1788 12.5856C67.6839 11.6802 66.7221 11.125 65.4397 11.125C63.5504 11.125 62.3271 12.3125 62.3271 14.0938ZM88 5.48438V19.1406H85.1986V5.48438H88ZM11.5011 4L23.0023 23H0L11.5011 4ZM40.2555 5.48438L31.6305 19.7344L23.0054 5.48438H26.2394L31.6305 14.3906L37.0215 5.48438H40.2555ZM58.592 9.04688V11.9236C58.2807 11.8375 57.9508 11.7781 57.5959 11.7781C55.7875 11.7781 54.4833 12.9656 54.4833 14.7469V19.1406H51.682V9.04688H54.4833V11.7781C54.4833 10.27 56.3229 9.04688 58.592 9.04688Z" fill="white"/>
</g>
<defs>
<clipPath id="clip0_25425_3857">
<rect width="88" height="27" fill="white"/>
</clipPath>
</defs>
</svg>
