<svg width="24" height="24" viewBox="0 0 24 24" fill="none" xmlns="http://www.w3.org/2000/svg">
<rect width="24" height="24" rx="4" fill="url(#paint0_linear_17818_31132)"/>
<rect x="0.5" y="0.5" width="23" height="23" rx="3.5" stroke="url(#paint1_linear_17818_31132)" stroke-opacity="0.1"/>
<path d="M17.9638 7.59608C17.6521 7.59608 17.4 7.34346 17.4 7.03224C17.4 6.72057 17.6521 6.46839 17.9638 6.46839C18.275 6.46839 18.5276 6.72057 18.5276 7.03224C18.5276 7.34346 18.275 7.59608 17.9638 7.59608ZM12.3642 17.2299C12.0526 17.2299 11.8004 16.9772 11.8004 16.666C11.8004 16.3543 12.0526 16.1022 12.3642 16.1022C12.6754 16.1022 12.9276 16.3543 12.9276 16.666C12.9276 16.9772 12.6754 17.2299 12.3642 17.2299ZM17.9638 6C17.3937 6 16.9316 6.46218 16.9316 7.03224C16.9316 7.15389 16.9622 7.2671 17.0008 7.37543L12.1587 15.6751C11.6907 15.7732 11.332 16.1688 11.332 16.666C11.332 17.2361 11.7942 17.6983 12.3642 17.6983C12.9338 17.6983 13.396 17.2361 13.396 16.666C13.396 16.5515 13.3653 16.4467 13.3311 16.3437L18.1977 8.01697C18.6515 7.9082 18.996 7.51928 18.996 7.03224C18.996 6.46218 18.5338 6 17.9638 6Z" fill="#94979E"/>
<path d="M13.7337 7.59608C13.4221 7.59608 13.1699 7.34346 13.1699 7.03224C13.1699 6.72057 13.4221 6.46839 13.7337 6.46839C14.045 6.46839 14.2971 6.72057 14.2971 7.03224C14.2971 7.34346 14.045 7.59608 13.7337 7.59608ZM8.13375 17.2299C7.82254 17.2299 7.56993 16.9772 7.56993 16.666C7.56993 16.3543 7.82254 16.1022 8.13375 16.1022C8.4454 16.1022 8.69757 16.3543 8.69757 16.666C8.69757 16.9772 8.4454 17.2299 8.13375 17.2299ZM13.7337 6C13.1633 6 12.7016 6.46218 12.7016 7.03224C12.7016 7.15389 12.7322 7.2671 12.7708 7.37543L7.92864 15.6751C7.46028 15.7732 7.10156 16.1688 7.10156 16.666C7.10156 17.2361 7.56372 17.6983 8.13375 17.6983C8.70378 17.6983 9.16594 17.2361 9.16594 16.666C9.16594 16.5515 9.1353 16.4467 9.10112 16.3437L13.9677 8.01697C14.4214 7.9082 14.7659 7.51928 14.7659 7.03224C14.7659 6.46218 14.3033 6 13.7337 6Z" fill="#94979E"/>
<path d="M6.03219 9.3218C6.3434 9.3218 6.596 9.57442 6.596 9.88565C6.596 10.1969 6.3434 10.4495 6.03219 10.4495C5.72053 10.4495 5.46837 10.1969 5.46837 9.88565C5.46837 9.57442 5.72053 9.3218 6.03219 9.3218ZM6.03219 10.9179C6.60222 10.9179 7.06437 10.4557 7.06437 9.88565C7.06437 9.77155 7.0333 9.66632 6.99911 9.56332C6.86238 9.15353 6.48768 8.85341 6.03219 8.85341C5.95938 8.85341 5.89545 8.88049 5.82664 8.89514C5.35871 8.99282 5 9.3884 5 9.88565C5 10.4557 5.46215 10.9179 6.03219 10.9179Z" fill="#94979E"/>
<path d="M5.46837 13.4925C5.46837 13.1808 5.72098 12.9286 6.03219 12.9286C6.3434 12.9286 6.596 13.1808 6.596 13.4925C6.596 13.8037 6.3434 14.0559 6.03219 14.0559C5.72098 14.0559 5.46837 13.8037 5.46837 13.4925ZM7.06437 13.4925C7.06437 13.3779 7.0333 13.2732 6.99911 13.1701C6.86238 12.7604 6.48812 12.4602 6.03219 12.4602C5.95938 12.4602 5.89545 12.4873 5.82664 12.5015C5.35871 12.5996 5 12.9952 5 13.4925C5 14.0621 5.46215 14.5247 6.03219 14.5247C6.60222 14.5247 7.06437 14.0621 7.06437 13.4925Z" fill="#94979E"/>
<defs>
<linearGradient id="paint0_linear_17818_31132" x1="12" y1="0" x2="12" y2="24" gradientUnits="userSpaceOnUse">
<stop offset="0.3125" stop-color="#242628"/>
<stop offset="1" stop-color="#1D1E20"/>
</linearGradient>
<linearGradient id="paint1_linear_17818_31132" x1="12" y1="0" x2="12" y2="24" gradientUnits="userSpaceOnUse">
<stop stop-color="white"/>
<stop offset="1" stop-color="white" stop-opacity="0.05"/>
</linearGradient>
</defs>
</svg>
