<svg width="24" height="24" viewBox="0 0 24 24" fill="none" xmlns="http://www.w3.org/2000/svg">
<rect width="24" height="24" rx="4" fill="url(#paint0_linear_17818_31141)"/>
<rect x="0.5" y="0.5" width="23" height="23" rx="3.5" stroke="url(#paint1_linear_17818_31141)" stroke-opacity="0.1"/>
<g clip-path="url(#clip0_17818_31141)">
<path d="M11.6289 5.14871C11.9746 4.95088 12.4248 4.94998 12.7701 5.14871C14.5074 6.1304 16.2453 7.11055 17.9824 8.09283C18.3091 8.27687 18.5276 8.64047 18.5243 9.01693V14.9231C18.5267 15.3152 18.2866 15.6875 17.9419 15.8674C16.2103 16.8436 14.4795 17.8211 12.7482 18.7974C12.3954 18.9991 11.9362 18.9835 11.5944 18.7653C11.0753 18.4644 10.5553 18.1649 10.0361 17.8642C9.92998 17.801 9.81038 17.7506 9.73547 17.6478C9.80169 17.5585 9.9201 17.5474 10.0163 17.5084C10.233 17.4395 10.432 17.3289 10.6311 17.2216C10.6815 17.1871 10.7429 17.2003 10.7912 17.2312C11.2351 17.4857 11.6751 17.7476 12.1205 17.9997C12.2156 18.0546 12.3118 17.9817 12.393 17.9365C14.0922 16.9761 15.7936 16.0193 17.4926 15.0586C17.5555 15.0283 17.5903 14.9615 17.5852 14.8926C17.5864 12.9442 17.5855 10.9956 17.5858 9.04722C17.593 8.96898 17.5477 8.89704 17.477 8.86502C15.7513 7.89321 14.0266 6.91991 12.3013 5.94785C12.2714 5.9273 12.236 5.91628 12.1997 5.91622C12.1634 5.91617 12.128 5.92709 12.098 5.94756C10.3727 6.91991 8.64828 7.8941 6.92296 8.86586C6.85246 8.89793 6.80515 8.96868 6.81354 9.04722C6.81384 10.9956 6.81354 12.9442 6.81354 14.8929C6.81055 14.9265 6.81794 14.9603 6.83471 14.9896C6.85149 15.0189 6.87685 15.0424 6.90737 15.0568C7.36778 15.3179 7.82879 15.5772 8.2895 15.8374C8.54904 15.9771 8.86772 16.0601 9.15367 15.953C9.40602 15.8625 9.58291 15.605 9.57809 15.3371C9.58048 13.4001 9.5769 11.4629 9.57988 9.5262C9.57357 9.44021 9.65514 9.36917 9.73874 9.37726C9.95996 9.37577 10.1815 9.37428 10.4027 9.37786C10.495 9.37577 10.5586 9.46836 10.5472 9.55499C10.5463 11.5042 10.5496 13.4535 10.5457 15.4027C10.5463 15.9222 10.3329 16.4875 9.85233 16.7417C9.26036 17.0483 8.52869 16.9833 7.94387 16.6892C7.43758 16.4365 6.95443 16.1383 6.45713 15.8676C6.11155 15.6887 5.87261 15.3149 5.87504 14.9232V9.01693C5.87142 8.63268 6.09865 8.26247 6.43554 8.08112C8.16687 7.10405 9.89791 6.12623 11.6289 5.14871Z" fill="currentColor"/>
<path d="M13.1394 9.23999C13.8945 9.19138 14.7029 9.21119 15.3824 9.58318C15.9085 9.86825 16.2001 10.4665 16.2094 11.051C16.1947 11.1298 16.1123 11.1733 16.037 11.1679C15.818 11.1676 15.5988 11.1709 15.3797 11.1664C15.2868 11.17 15.2328 11.0843 15.2211 11.0021C15.1582 10.7225 15.0057 10.4455 14.7424 10.3106C14.3384 10.1083 13.8699 10.1185 13.4293 10.1227C13.1076 10.1398 12.7617 10.1677 12.4892 10.3568C12.28 10.5001 12.2165 10.7893 12.2911 11.0223C12.3615 11.1895 12.5546 11.2435 12.7126 11.2932C13.6226 11.5312 14.5869 11.5075 15.4795 11.8208C15.8491 11.9484 16.2106 12.1967 16.3371 12.5836C16.5026 13.1022 16.43 13.7221 16.0611 14.1384C15.7619 14.481 15.3261 14.6675 14.8914 14.7687C14.3132 14.8977 13.7131 14.9009 13.1259 14.8437C12.5738 14.7808 11.9992 14.6357 11.5729 14.2595C11.2084 13.943 11.0304 13.4499 11.0481 12.9739C11.0523 12.8935 11.1323 12.8375 11.2093 12.8441C11.4299 12.8423 11.6506 12.8417 11.8712 12.8444C11.9593 12.8381 12.0246 12.9142 12.0292 12.9973C12.0699 13.2637 12.17 13.5434 12.4023 13.7014C12.8507 13.9907 13.4134 13.9708 13.9268 13.9789C14.3522 13.9601 14.8297 13.9544 15.1768 13.6732C15.3599 13.5129 15.4142 13.2446 15.3647 13.0138C15.3111 12.8189 15.1072 12.7281 14.9322 12.6687C14.0338 12.3846 13.0588 12.4877 12.1691 12.1663C11.8079 12.0387 11.4587 11.7974 11.3199 11.4263C11.1263 10.9012 11.215 10.2516 11.6227 9.84933C12.0201 9.44919 12.5939 9.29514 13.1394 9.23999Z" fill="currentColor"/>
</g>
<defs>
<linearGradient id="paint0_linear_17818_31141" x1="12" y1="0" x2="12" y2="24" gradientUnits="userSpaceOnUse">
<stop offset="0.3125" stop-color="#242628"/>
<stop offset="1" stop-color="#1D1E20"/>
</linearGradient>
<linearGradient id="paint1_linear_17818_31141" x1="12" y1="0" x2="12" y2="24" gradientUnits="userSpaceOnUse">
<stop stop-color="white"/>
<stop offset="1" stop-color="white" stop-opacity="0.05"/>
</linearGradient>
<clipPath id="clip0_17818_31141">
<rect width="14" height="14" fill="white" transform="translate(5 5)"/>
</clipPath>
</defs>
</svg>
