<svg width="24" height="24" viewBox="0 0 24 24" fill="none" xmlns="http://www.w3.org/2000/svg">
<rect width="24" height="24" rx="4" fill="url(#paint0_linear_17818_31155)"/>
<rect x="0.5" y="0.5" width="23" height="23" rx="3.5" stroke="url(#paint1_linear_17818_31155)" stroke-opacity="0.1"/>
<path fill-rule="evenodd" clip-rule="evenodd" d="M10.9672 8.16016H12.1375L11.8067 9.77984H12.8583C13.4349 9.7912 13.8645 9.90992 14.1472 10.136C14.4355 10.3621 14.5203 10.7918 14.4016 11.425L13.8335 14.2488H12.6463L13.189 11.5522C13.2455 11.2694 13.2285 11.0688 13.1381 10.9501C13.0477 10.8314 12.8527 10.772 12.553 10.772L11.6117 10.7635L10.9163 14.2488H9.74609L10.9672 8.16016ZM5.61498 9.77968H7.88762C8.55466 9.78528 9.03802 9.9776 9.3377 10.3563C9.63738 10.735 9.73626 11.2523 9.6345 11.9082C9.59498 12.2078 9.5073 12.5018 9.37162 12.7901C9.24154 13.0784 9.06074 13.3384 8.8289 13.5702C8.54618 13.8642 8.24378 14.0507 7.92154 14.1299C7.5993 14.2091 7.2657 14.2486 6.9209 14.2486H5.9033L5.58106 15.8598H4.40234L5.61498 9.77968ZM6.09834 13.2904L6.60545 10.7549H6.77674C6.83898 10.7549 6.90394 10.752 6.97178 10.7464C7.4241 10.7408 7.79994 10.7832 8.09962 10.8736C8.4049 10.964 8.50666 11.3061 8.4049 11.8997C8.28058 12.6064 8.03738 13.019 7.67562 13.1378C7.31386 13.2509 6.86154 13.3045 6.31882 13.2989H6.2001C6.16618 13.2989 6.13226 13.296 6.09834 13.2904ZM17.9501 9.77979H15.6775L14.4648 15.8599H15.6436L15.9658 14.2487H16.9834C17.3282 14.2487 17.6618 14.2092 17.984 14.13C18.3063 14.0508 18.6087 13.8643 18.8914 13.5703C19.1232 13.3385 19.304 13.0785 19.4341 12.7902C19.5698 12.5019 19.6575 12.2079 19.697 11.9083C19.7988 11.2524 19.6999 10.7351 19.4002 10.3564C19.1005 9.97771 18.6172 9.78539 17.9501 9.77979ZM16.6679 10.755L16.1608 13.2905C16.1948 13.2961 16.2287 13.299 16.2626 13.299H16.3813C16.924 13.3046 17.3764 13.251 17.7381 13.1379C18.0999 13.0191 18.3431 12.6065 18.4674 11.8998C18.5692 11.3062 18.4674 10.9641 18.1621 10.8737C17.8624 10.7833 17.4866 10.7409 17.0343 10.7465C16.9664 10.7521 16.9015 10.755 16.8392 10.755H16.6679Z" fill="currentColor"/>
<defs>
<linearGradient id="paint0_linear_17818_31155" x1="12" y1="0" x2="12" y2="24" gradientUnits="userSpaceOnUse">
<stop offset="0.3125" stop-color="#242628"/>
<stop offset="1" stop-color="#1D1E20"/>
</linearGradient>
<linearGradient id="paint1_linear_17818_31155" x1="12" y1="0" x2="12" y2="24" gradientUnits="userSpaceOnUse">
<stop stop-color="white"/>
<stop offset="1" stop-color="white" stop-opacity="0.05"/>
</linearGradient>
</defs>
</svg>
