<svg width="24" height="24" viewBox="0 0 24 24" fill="none" xmlns="http://www.w3.org/2000/svg">
<rect width="24" height="24" rx="4" fill="url(#paint0_linear_17818_31149)"/>
<rect x="0.5" y="0.5" width="23" height="23" rx="3.5" stroke="url(#paint1_linear_17818_31149)" stroke-opacity="0.1"/>
<path d="M14.5853 13.2089C12.7758 14.375 10.9828 15.5305 9.14255 16.7162C11.8985 17.0925 14.6053 17.462 17.3657 17.8389C16.4254 16.273 15.5092 14.7474 14.5853 13.2089ZM18.1438 8.04896C17.9008 8.41366 17.6574 8.77821 17.4149 9.14319C16.5816 10.3968 15.7485 11.6503 14.9162 12.9043C14.8698 12.9743 14.8098 13.0298 14.875 13.1373C15.6795 14.4654 16.4774 15.7978 17.2772 17.1285C17.4034 17.3387 17.5311 17.5481 17.6944 17.7498L18.1794 8.05946L18.1438 8.04896ZM7.16404 12.19C7.20171 12.2257 7.29569 12.2463 7.33925 12.2249C8.11079 11.8456 8.88724 11.4749 9.64198 11.0644C9.88791 10.9308 10.077 10.6909 10.2892 10.4965C10.9912 9.85269 11.6921 9.20747 12.3929 8.56211C12.4359 8.52248 12.4864 8.48424 12.5122 8.43424C12.7639 7.94224 13.0111 7.448 13.2672 6.93919C12.9618 6.82477 12.6723 6.7123 12.3793 6.61007C12.3395 6.5962 12.2771 6.62379 12.2336 6.64788C11.5554 7.02686 10.8644 7.38553 10.2075 7.79883C9.87881 8.00554 9.61103 8.31016 9.32 8.5757C8.85125 9.00369 8.38277 9.43267 7.9206 9.86824C7.79792 9.98378 7.68615 10.1158 7.59078 10.2548C7.27454 10.715 6.96811 11.1818 6.64725 11.662C6.8268 11.8477 6.98968 12.025 7.16404 12.19ZM9.98371 11.5608C9.6001 13.1821 9.21832 14.7943 8.82422 16.4595C10.6728 15.2685 12.4786 14.1049 14.2724 12.9491C12.8448 12.4869 11.4218 12.0263 9.98371 11.5608ZM13.042 8.83801L14.6134 12.6603C15.6391 11.1196 16.6444 9.60928 17.6726 8.06451C16.1108 8.32542 14.5864 8.58004 13.042 8.83801ZM10.0481 11.2291C11.4545 11.6858 12.8331 12.1333 14.2514 12.5936C13.7246 11.3104 13.216 10.072 12.6967 8.80734L10.0481 11.2291ZM7.22216 13.1355L5.75106 16.6521C6.69375 16.6242 7.60773 16.5972 8.5528 16.5693C8.10911 15.4242 7.67411 14.3016 7.22216 13.1355ZM8.58613 15.7538L8.62086 15.7462C8.95713 14.3474 9.29843 12.9582 9.64198 11.5049C8.8759 11.9029 8.14511 12.2827 7.39415 12.6731C7.77719 13.6691 8.18586 14.7195 8.58613 15.7538ZM17.1072 7.83776C16.6597 7.71928 16.2127 7.60023 15.7648 7.48259C15.1215 7.31355 14.4777 7.14633 13.8347 6.9756C13.7545 6.95431 13.6962 6.94045 13.649 7.03723C13.4218 7.50276 13.1874 7.96493 12.9566 8.42864C12.9494 8.44307 12.9508 8.46183 12.9454 8.49755C14.3386 8.28649 15.7226 8.07669 17.1063 7.86703L17.1072 7.83776ZM14.5117 6.77869C15.7132 7.11117 16.9147 7.44352 18.1583 7.78748L17.5558 6.07073C16.5348 6.29719 15.526 6.52085 14.5172 6.74452L14.5117 6.77869ZM15.6156 17.8929L12.624 17.4845C11.3813 17.3149 10.1408 17.1283 8.89536 16.9847C8.4437 16.9327 7.97998 16.9806 7.52201 16.9883C7.14569 16.9948 6.76937 17.0091 6.39319 17.021C6.3544 17.0221 6.31575 17.0299 6.27723 17.0715C9.38779 17.3592 12.4986 17.6467 15.609 17.9345L15.6156 17.8929ZM5.8124 15.5787C6.21351 14.6486 6.61238 13.7178 7.01489 12.7886C7.05522 12.6952 7.05228 12.632 6.97343 12.5571C6.80495 12.3967 6.64865 12.2241 6.46448 12.0327L5.73047 15.656L5.7575 15.6689C5.77613 15.6389 5.79867 15.6109 5.8124 15.5787ZM13.713 6.53318C14.389 6.35867 15.0749 6.22254 15.7566 6.07031C15.8006 6.06036 15.8438 6.0458 15.8872 6.03333L15.8806 6L12.9513 6.39397C13.2265 6.51427 13.4384 6.60404 13.713 6.53318Z" fill="currentColor"/>
<defs>
<linearGradient id="paint0_linear_17818_31149" x1="12" y1="0" x2="12" y2="24" gradientUnits="userSpaceOnUse">
<stop offset="0.3125" stop-color="#242628"/>
<stop offset="1" stop-color="#1D1E20"/>
</linearGradient>
<linearGradient id="paint1_linear_17818_31149" x1="12" y1="0" x2="12" y2="24" gradientUnits="userSpaceOnUse">
<stop stop-color="currentColor"/>
<stop offset="1" stop-color="currentColor" stop-opacity="0.05"/>
</linearGradient>
</defs>
</svg>
