<svg width="32" height="32" viewBox="0 0 32 32" fill="none" xmlns="http://www.w3.org/2000/svg">
<rect width="32" height="32" rx="4" fill="url(#paint0_linear_17818_31171)"/>
<rect x="0.5" y="0.5" width="31" height="31" rx="3.5" stroke="url(#paint1_linear_17818_31171)" stroke-opacity="0.1"/>
<g clip-path="url(#clip0_17818_31171)">
<path d="M16.1834 10.6012C17.1779 10.6012 17.984 9.79507 17.984 8.80062C17.984 7.80616 17.1779 7 16.1834 7C15.189 7 14.3828 7.80616 14.3828 8.80062C14.3828 9.79507 15.189 10.6012 16.1834 10.6012Z" stroke="#C9CBCF" stroke-linecap="round" stroke-linejoin="round"/>
<path d="M9.1639 22.7554C10.1584 22.7554 10.9645 21.9492 10.9645 20.9548C10.9645 19.9603 10.1584 19.1542 9.1639 19.1542C8.16945 19.1542 7.36328 19.9603 7.36328 20.9548C7.36328 21.9492 8.16945 22.7554 9.1639 22.7554Z" stroke="#C9CBCF" stroke-linecap="round" stroke-linejoin="round"/>
<path d="M23.1991 22.7554C24.1935 22.7554 24.9997 21.9492 24.9997 20.9548C24.9997 19.9603 24.1935 19.1542 23.1991 19.1542C22.2046 19.1542 21.3984 19.9603 21.3984 20.9548C21.3984 21.9492 22.2046 22.7554 23.1991 22.7554Z" stroke="#C9CBCF" stroke-linecap="round" stroke-linejoin="round"/>
<path d="M12.1295 9.89902C10.5375 10.8171 9.30524 12.2494 8.63528 13.9607C7.96532 15.6719 7.8975 17.5602 8.44299 19.3151" stroke="#C9CBCF" stroke-linecap="round" stroke-linejoin="round"/>
<path d="M22.1289 22.3929C20.8867 23.7476 19.2193 24.638 17.4024 24.9167C15.5856 25.1954 13.728 24.8459 12.1367 23.9258" stroke="#C9CBCF" stroke-linecap="round" stroke-linejoin="round"/>
<path d="M24.2835 16.9034C24.2831 15.0644 23.6568 13.2804 22.5077 11.8446C21.3586 10.4088 19.7551 9.40687 17.9609 9.00348" stroke="#C9CBCF" stroke-linecap="round" stroke-linejoin="round"/>
</g>
<defs>
<linearGradient id="paint0_linear_17818_31171" x1="16" y1="0" x2="16" y2="32" gradientUnits="userSpaceOnUse">
<stop offset="0.3125" stop-color="#242628"/>
<stop offset="1" stop-color="#1D1E20"/>
</linearGradient>
<linearGradient id="paint1_linear_17818_31171" x1="16" y1="0" x2="16" y2="32" gradientUnits="userSpaceOnUse">
<stop stop-color="white"/>
<stop offset="1" stop-color="white" stop-opacity="0.05"/>
</linearGradient>
<clipPath id="clip0_17818_31171">
<rect width="20" height="20" fill="white" transform="translate(6 6)"/>
</clipPath>
</defs>
</svg>
