<svg width="16" height="16" viewBox="0 0 16 16" fill="none" xmlns="http://www.w3.org/2000/svg">
<g clip-path="url(#clip0_24894_24925)">
<path d="M12.0001 9.99774C11.5044 9.9977 11.0165 10.1208 10.5801 10.3559C10.1438 10.591 9.77265 10.9308 9.50006 11.3447C9.03289 11.1167 8.51989 10.9982 8.00006 10.9982C7.48022 10.9982 6.96723 11.1167 6.50006 11.3447C6.11564 10.7571 5.53762 10.3226 4.8663 10.1166C4.19498 9.91063 3.47274 9.94617 2.82489 10.2171C2.17703 10.488 1.64446 10.9771 1.31958 11.5996C0.994704 12.2222 0.898022 12.9388 1.04631 13.6252C1.1946 14.3115 1.57851 14.9243 2.13141 15.3572C2.68431 15.7901 3.37132 16.0158 4.07322 15.9951C4.77512 15.9743 5.44762 15.7085 5.97402 15.2438C6.50043 14.779 6.84752 14.1447 6.95506 13.4507C7.23769 13.1834 7.61199 13.0344 8.00106 13.0344C8.39013 13.0344 8.76443 13.1834 9.04706 13.4507C9.13382 14.0187 9.38183 14.5498 9.76162 14.9809C10.1414 15.412 10.637 15.7249 11.1895 15.8826C11.742 16.0402 12.3281 16.0359 12.8782 15.8702C13.4283 15.7044 13.9192 15.3842 14.2926 14.9475C14.666 14.5109 14.9062 13.9762 14.9846 13.4071C15.063 12.8379 14.9763 12.2582 14.7348 11.7369C14.4934 11.2156 14.1073 10.7745 13.6225 10.4662C13.1377 10.1579 12.5746 9.99533 12.0001 9.99774ZM4.00006 13.9977C3.80228 13.9977 3.60894 13.9391 3.44449 13.8292C3.28004 13.7193 3.15187 13.5632 3.07618 13.3804C3.00049 13.1977 2.98069 12.9966 3.01927 12.8027C3.05786 12.6087 3.1531 12.4305 3.29295 12.2906C3.4328 12.1508 3.61099 12.0555 3.80497 12.017C3.99895 11.9784 4.20002 11.9982 4.38274 12.0739C4.56547 12.1496 4.72165 12.2777 4.83153 12.4422C4.94141 12.6066 5.00006 12.8 5.00006 12.9977C5.00006 13.263 4.8947 13.5173 4.70716 13.7049C4.51963 13.8924 4.26527 13.9977 4.00006 13.9977ZM12.0001 13.9977C11.8023 13.9977 11.6089 13.9391 11.4445 13.8292C11.28 13.7193 11.1519 13.5632 11.0762 13.3804C11.0005 13.1977 10.9807 12.9966 11.0193 12.8027C11.0579 12.6087 11.1531 12.4305 11.293 12.2906C11.4328 12.1508 11.611 12.0555 11.805 12.017C11.9989 11.9784 12.2 11.9982 12.3827 12.0739C12.5655 12.1496 12.7216 12.2777 12.8315 12.4422C12.9414 12.6066 13.0001 12.8 13.0001 12.9977C13.0001 13.263 12.8947 13.5173 12.7072 13.7049C12.5196 13.8924 12.2653 13.9977 12.0001 13.9977Z" fill="white"/>
<path d="M12.7992 4L12.0792 0.4C12.0562 0.287064 11.9948 0.18556 11.9055 0.112669C11.8162 0.0397783 11.7045 -2.35151e-05 11.5892 1.04228e-08H4.40922C4.29395 -2.35151e-05 4.18222 0.0397783 4.09293 0.112669C4.00364 0.18556 3.94227 0.287064 3.91922 0.4L3.19922 4H12.7992Z" fill="white"/>
<path d="M13 5H2.99999L0.426988 7.573C0.392167 7.60772 0.36836 7.65194 0.358545 7.70013C0.348731 7.74831 0.353345 7.79832 0.37181 7.8439C0.390276 7.88948 0.421772 7.9286 0.462358 7.95636C0.502944 7.98413 0.550818 7.99931 0.599988 8H15.4C15.4495 8.00009 15.4979 7.98547 15.5391 7.95801C15.5803 7.93055 15.6124 7.89147 15.6314 7.84573C15.6503 7.79999 15.6553 7.74966 15.6456 7.7011C15.6359 7.65255 15.612 7.60796 15.577 7.573L13 5Z" fill="white"/>
</g>
<defs>
<clipPath id="clip0_24894_24925">
<rect width="16" height="16" fill="white"/>
</clipPath>
</defs>
</svg>
