<svg width="16" height="16" viewBox="0 0 16 16" fill="none" xmlns="http://www.w3.org/2000/svg">
<path fill-rule="evenodd" clip-rule="evenodd" d="M2.32853 10.3535C1.80172 11.8906 1.93615 13.0177 2.52288 13.6044C3.10961 14.1912 4.23675 14.3256 5.77382 13.7988C6.20157 13.6522 6.64806 13.4579 7.10455 13.2184C6.32914 12.6796 5.55865 12.0368 4.82483 11.303C4.09081 10.569 3.44785 9.79825 2.90897 9.02262C2.66943 9.47915 2.47514 9.92569 2.32853 10.3535ZM6.09804 14.7448C6.7334 14.527 7.39526 14.2194 8.0632 13.8304C8.73146 14.2197 9.39362 14.5274 10.0293 14.7453C11.6698 15.3075 13.3048 15.3188 14.3115 14.312C15.3183 13.3053 15.307 11.6703 14.7448 10.0298C14.5269 9.39421 14.2192 8.73211 13.83 8.06392C14.2192 7.39573 14.5269 6.73362 14.7448 6.09804C15.307 4.45752 15.3183 2.82254 14.3115 1.81578C13.3048 0.809019 11.6698 0.820295 10.0293 1.38255C9.39362 1.60041 8.73146 1.90814 8.0632 2.29738C7.39525 1.90839 6.7334 1.60084 6.09804 1.38308C4.45752 0.820819 2.82254 0.809543 1.81578 1.8163C0.809019 2.82306 0.820295 4.45805 1.38255 6.09856C1.60033 6.73398 1.90792 7.3959 2.29697 8.06391C1.90792 8.73193 1.60033 9.39385 1.38255 10.0293C0.820295 11.6698 0.809019 13.3048 1.81578 14.3115C2.82254 15.3183 4.45752 15.307 6.09804 14.7448ZM13.7988 10.354C13.6521 9.92603 13.4577 9.47929 13.218 9.02255C12.6792 9.79803 12.0364 10.5686 11.3025 11.3025C10.5684 12.0366 9.7976 12.6796 9.02189 13.2185C9.47868 13.4582 9.92546 13.6526 10.3535 13.7993C11.8906 14.3261 13.0177 14.1917 13.6044 13.6049C14.1912 13.0182 14.3256 11.8911 13.7988 10.354ZM10.5954 10.5954C11.4171 9.77367 12.1091 8.91227 12.6569 8.06392C12.1091 7.21557 11.4171 6.35416 10.5954 5.53245C9.77345 4.71053 8.91181 4.01835 8.06325 3.47053C7.21494 4.01827 6.35359 4.71027 5.53193 5.53193C4.71005 6.35381 4.0179 7.21539 3.4701 8.06391C4.0179 8.91243 4.71005 9.77402 5.53193 10.5959C6.35359 11.4176 7.21494 12.1096 8.06325 12.6573C8.91181 12.1095 9.77345 11.4173 10.5954 10.5954ZM13.7988 5.77382C13.6521 6.2018 13.4577 6.64854 13.218 7.10528C12.6792 6.3298 12.0364 5.55923 11.3025 4.82535C10.5684 4.09127 9.79759 3.44826 9.02189 2.90935C9.47868 2.66964 9.92546 2.47522 10.3535 2.32853C11.8906 1.80172 13.0177 1.93615 13.6044 2.52288C14.1912 3.10961 14.3256 4.23675 13.7988 5.77382ZM5.77382 2.32905C6.20157 2.47565 6.64806 2.66992 7.10455 2.90942C6.32914 3.44821 5.55865 4.09101 4.82483 4.82483C4.09081 5.55885 3.44785 6.32958 2.90897 7.10521C2.66943 6.64867 2.47514 6.20214 2.32853 5.77435C1.80172 4.23728 1.93615 3.11014 2.52288 2.5234C3.10961 1.93667 4.23675 1.80225 5.77382 2.32905ZM7.25085 8.06527C7.25085 7.61633 7.61479 7.25239 8.06373 7.25239C8.51267 7.25239 8.87661 7.61633 8.87661 8.06527C8.87661 8.51421 8.51267 8.87815 8.06373 8.87815C7.61479 8.87815 7.25085 8.51421 7.25085 8.06527ZM8.06373 6.25239C7.06251 6.25239 6.25085 7.06405 6.25085 8.06527C6.25085 9.0665 7.06251 9.87815 8.06373 9.87815C9.06496 9.87815 9.87661 9.0665 9.87661 8.06527C9.87661 7.06405 9.06496 6.25239 8.06373 6.25239Z" fill="currentColor"/>
</svg>
