<svg width="16" height="16" viewBox="0 0 16 16" fill="none" xmlns="http://www.w3.org/2000/svg">
<path d="M15.4998 4.99979C15.2238 4.99979 14.9998 4.7758 14.9998 4.49981V1.70726L12.3533 4.35382C12.2593 4.44781 12.1333 4.49981 12 4.49981C11.8666 4.49981 11.7406 4.44781 11.6466 4.35315C11.552 4.25916 11.5 4.13316 11.5 3.99983C11.5 3.8665 11.552 3.74051 11.6466 3.64651L14.2932 0.999958H11.5C11.224 0.999958 11 0.775968 11 0.499979C11 0.223991 11.224 0 11.5 0H15.4998C15.5591 0 15.6171 0.0106662 15.6738 0.0319987C15.6811 0.0346652 15.6885 0.0373318 15.6951 0.0399983C15.8125 0.0879963 15.9111 0.187326 15.9618 0.30932C15.9638 0.314654 15.9665 0.320653 15.9685 0.326653C15.9885 0.381317 15.9998 0.439982 15.9998 0.499979V4.49981C15.9998 4.7758 15.7758 4.99979 15.4998 4.99979Z" fill="currentColor"/>
<path d="M0.499979 15.9993C0.441315 15.9993 0.383317 15.9886 0.326653 15.968C0.32132 15.966 0.316653 15.9646 0.311987 15.9626C0.187325 15.9113 0.0879963 15.812 0.0379984 15.6893C0.0359985 15.6847 0.0339986 15.6793 0.0319987 15.674C0.0113329 15.6193 0 15.56 0 15.4993V11.4995C0 11.2235 0.223991 10.9995 0.499979 10.9995C0.775968 10.9995 0.999958 11.2235 0.999958 11.4995V14.292L3.64651 11.6455C3.74118 11.5508 3.8665 11.4988 3.99983 11.4988C4.13316 11.4988 4.25916 11.5508 4.35315 11.6455C4.54781 11.8401 4.54781 12.1575 4.35315 12.3528L1.7066 14.9993H4.49981C4.7758 14.9993 4.99979 15.2233 4.99979 15.4993C4.99979 15.7753 4.7758 15.9993 4.49981 15.9993H0.499979Z" fill="currentColor"/>
<path d="M0.499979 4.99979C0.223991 4.99979 0 4.7758 0 4.49981V0.499979C0 0.441315 0.0106662 0.382651 0.0319987 0.325986C0.0333319 0.32132 0.0353319 0.316653 0.0366651 0.311987C0.0879963 0.187325 0.187326 0.0879963 0.309987 0.0379984C0.314654 0.0359985 0.320653 0.0333319 0.326653 0.031332C0.383984 0.00999958 0.441315 0 0.499979 0H4.49981C4.7758 0 4.99979 0.223991 4.99979 0.499979C4.99979 0.775968 4.7758 0.999958 4.49981 0.999958H1.70726L4.35382 3.64651C4.44848 3.74051 4.50048 3.8665 4.50048 3.99983C4.50048 4.13316 4.44848 4.25916 4.35382 4.35315C4.25916 4.44781 4.13316 4.49981 3.99983 4.49981C3.8665 4.49981 3.74051 4.44781 3.64651 4.35315L0.999958 1.70726V4.49981C0.999958 4.7758 0.775968 4.99979 0.499979 4.99979Z" fill="currentColor"/>
<path d="M11.5 15.9993C11.224 15.9993 11 15.7753 11 15.4993C11 15.2233 11.224 14.9993 11.5 14.9993H14.2925L11.646 12.3528C11.4513 12.1581 11.4513 11.8408 11.646 11.6455C11.7406 11.5508 11.866 11.4988 11.9993 11.4988C12.1326 11.4988 12.2586 11.5508 12.3526 11.6455L14.9992 14.292V11.4995C14.9992 11.2235 15.2232 10.9995 15.4991 10.9995C15.7751 10.9995 15.9998 11.2235 15.9998 11.4995V15.4993C15.9998 15.5573 15.9891 15.6153 15.9691 15.6713C15.9678 15.6753 15.9665 15.6787 15.9651 15.6827C15.9118 15.8126 15.8125 15.9113 15.6905 15.962C15.6851 15.964 15.6791 15.9666 15.6731 15.9686C15.6191 15.9893 15.5598 16 15.5005 16H11.5V15.9993Z" fill="currentColor"/>
<path d="M5.99996 10.9995C5.44865 10.9995 5 10.5509 5 9.99955V5.99971C5 5.4484 5.44865 4.99976 5.99996 4.99976H9.99979C10.5511 4.99976 10.9997 5.4484 10.9997 5.99971V9.99955C10.9997 10.5509 10.5511 10.9995 9.99979 10.9995H5.99996ZM5.99996 9.99955H9.99979V5.99971H5.99996V9.99955Z" fill="currentColor"/>
</svg>
