<svg width="16" height="16" viewBox="0 0 16 16" fill="none" xmlns="http://www.w3.org/2000/svg">
<g clip-path="url(#clip0_27232_1798)">
<path d="M4.50774 6.70533C4.50774 6.90023 4.52903 7.05826 4.56628 7.17415C4.60886 7.29003 4.66207 7.41645 4.73658 7.55341C4.76318 7.59555 4.77383 7.63769 4.77383 7.67456C4.77383 7.72724 4.7419 7.77991 4.67272 7.83259L4.33745 8.05383C4.28955 8.08543 4.24166 8.10123 4.19908 8.10123C4.14587 8.10123 4.09265 8.0749 4.03943 8.02749C3.96493 7.94848 3.90107 7.8642 3.84785 7.77991C3.79464 7.69037 3.74142 7.59028 3.68288 7.46913C3.26779 7.95374 2.74626 8.19605 2.1183 8.19605C1.67128 8.19605 1.31472 8.06963 1.05396 7.81679C0.793199 7.56394 0.660156 7.22682 0.660156 6.80542C0.660156 6.35768 0.819807 5.99422 1.14443 5.7203C1.46905 5.44639 1.90011 5.30943 2.44825 5.30943C2.62918 5.30943 2.81544 5.32524 3.01235 5.35157C3.20925 5.37791 3.41147 5.42005 3.62434 5.46746V5.08293C3.62434 4.6826 3.53919 4.40342 3.37422 4.24012C3.20393 4.07683 2.91656 3.99781 2.50678 3.99781C2.32053 3.99781 2.12894 4.01888 1.93204 4.06629C1.73514 4.1137 1.54356 4.17164 1.3573 4.24539C1.27215 4.28226 1.20829 4.30333 1.17104 4.31387C1.13379 4.3244 1.10718 4.32967 1.08589 4.32967C1.01139 4.32967 0.974136 4.27699 0.974136 4.16638V3.90827C0.974136 3.82399 0.98478 3.76077 1.01139 3.7239C1.038 3.68703 1.08589 3.65016 1.1604 3.61328C1.34666 3.51847 1.57017 3.43945 1.83093 3.37624C2.09169 3.30777 2.36842 3.27616 2.66111 3.27616C3.2944 3.27616 3.75738 3.41838 4.0554 3.70283C4.34809 3.98728 4.4971 4.41922 4.4971 4.99865V6.70533H4.50774ZM2.34713 7.506C2.52275 7.506 2.70369 7.4744 2.89527 7.41119C3.08685 7.34798 3.25714 7.23209 3.40083 7.07406C3.48598 6.97398 3.54984 6.86336 3.58177 6.73694C3.6137 6.61052 3.63498 6.45776 3.63498 6.27866V6.05743C3.48066 6.02055 3.31568 5.98895 3.14539 5.96788C2.97509 5.94681 2.81012 5.93627 2.64515 5.93627C2.2886 5.93627 2.02783 6.00475 1.85222 6.14697C1.6766 6.2892 1.59145 6.48936 1.59145 6.75274C1.59145 7.00032 1.65531 7.18468 1.78836 7.3111C1.91608 7.44279 2.10234 7.506 2.34713 7.506ZM6.62046 8.0749C6.52467 8.0749 6.46081 8.05909 6.41823 8.02222C6.37566 7.99062 6.33841 7.91687 6.30648 7.81679L5.05588 3.74497C5.02395 3.63962 5.00798 3.57114 5.00798 3.53427C5.00798 3.44999 5.05056 3.40258 5.1357 3.40258H5.65723C5.75834 3.40258 5.82752 3.41838 5.86478 3.45526C5.90735 3.48686 5.93928 3.56061 5.97121 3.66069L6.86525 7.14781L7.69544 3.66069C7.72205 3.55534 7.75398 3.48686 7.79655 3.45526C7.83912 3.42365 7.91363 3.40258 8.00942 3.40258H8.43515C8.53627 3.40258 8.60545 3.41838 8.64802 3.45526C8.6906 3.48686 8.72785 3.56061 8.74914 3.66069L9.58996 7.18995L10.5106 3.66069C10.5425 3.55534 10.5798 3.48686 10.6171 3.45526C10.6596 3.42365 10.7288 3.40258 10.8246 3.40258H11.3195C11.4047 3.40258 11.4526 3.44472 11.4526 3.53427C11.4526 3.56061 11.4472 3.58695 11.4419 3.61855C11.4366 3.65016 11.4259 3.6923 11.4047 3.75024L10.1221 7.82205C10.0902 7.92741 10.053 7.99588 10.0104 8.02749C9.9678 8.05909 9.89862 8.08016 9.80815 8.08016H9.35049C9.24937 8.08016 9.18019 8.06436 9.13762 8.02749C9.09505 7.99062 9.05779 7.92214 9.03651 7.81679L8.21164 4.41922L7.3921 7.81152C7.36549 7.91687 7.33356 7.98535 7.29099 8.02222C7.24842 8.05909 7.17391 8.0749 7.07812 8.0749H6.62046ZM13.4588 8.21712C13.1821 8.21712 12.9054 8.18552 12.6393 8.1223C12.3732 8.05909 12.1657 7.99062 12.0273 7.9116C11.9422 7.8642 11.8836 7.81152 11.8623 7.76411C11.841 7.7167 11.8304 7.66403 11.8304 7.61662V7.34798C11.8304 7.23736 11.873 7.18468 11.9528 7.18468C11.9847 7.18468 12.0167 7.18995 12.0486 7.20048C12.0805 7.21102 12.1284 7.23209 12.1816 7.25316C12.3626 7.33217 12.5595 7.39538 12.767 7.43752C12.9799 7.47966 13.1874 7.50073 13.4003 7.50073C13.7356 7.50073 13.9963 7.44279 14.1773 7.3269C14.3582 7.21102 14.454 7.04246 14.454 6.82649C14.454 6.679 14.4061 6.55784 14.3103 6.45776C14.2145 6.35768 14.0336 6.26813 13.7728 6.18385L13.0012 5.94681C12.6127 5.82565 12.3253 5.64656 12.1497 5.40952C11.9741 5.17775 11.8836 4.91964 11.8836 4.64572C11.8836 4.42449 11.9315 4.22959 12.0273 4.06102C12.1231 3.89246 12.2508 3.74497 12.4105 3.62909C12.5701 3.50793 12.7511 3.41838 12.9639 3.35517C13.1768 3.29196 13.4003 3.26562 13.6345 3.26562C13.7515 3.26562 13.8739 3.27089 13.991 3.2867C14.1134 3.3025 14.2252 3.32357 14.3369 3.34464C14.4434 3.37098 14.5445 3.39731 14.6403 3.42892C14.736 3.46052 14.8105 3.49213 14.8638 3.52373C14.9383 3.56588 14.9915 3.60802 15.0234 3.65542C15.0553 3.69756 15.0713 3.75551 15.0713 3.82925V4.07683C15.0713 4.18745 15.0287 4.24539 14.9489 4.24539C14.9063 4.24539 14.8372 4.22432 14.7467 4.18218C14.4433 4.04522 14.1028 3.97674 13.7249 3.97674C13.4216 3.97674 13.1821 4.02415 13.0171 4.12424C12.8522 4.22432 12.767 4.37708 12.767 4.59305C12.767 4.74054 12.8202 4.86696 12.9267 4.96704C13.0331 5.06713 13.23 5.16721 13.5121 5.25676L14.2677 5.4938C14.6509 5.61495 14.9276 5.78351 15.0926 5.99948C15.2576 6.21545 15.3374 6.46303 15.3374 6.73694C15.3374 6.96344 15.2895 7.16888 15.199 7.34798C15.1032 7.52707 14.9755 7.6851 14.8105 7.81152C14.6456 7.94321 14.4487 8.03802 14.2198 8.1065C13.9804 8.18025 13.7302 8.21712 13.4588 8.21712Z" fill="currentColor"/>
<path fill-rule="evenodd" clip-rule="evenodd" d="M14.4661 10.7779C12.7152 12.0579 10.1715 12.7375 7.98425 12.7375C4.91895 12.7375 2.15699 11.6155 0.0708859 9.75076C-0.0940867 9.60327 0.0549208 9.4031 0.251824 9.51899C2.50822 10.8148 5.29147 11.5997 8.17051 11.5997C10.1129 11.5997 12.2469 11.1993 14.2106 10.3776C14.5033 10.2459 14.7535 10.5672 14.4661 10.7779Z" fill="currentColor"/>
<path fill-rule="evenodd" clip-rule="evenodd" d="M15.1952 9.9552C14.9717 9.67075 13.7158 9.81824 13.1464 9.88672C12.9761 9.90779 12.9494 9.7603 13.1038 9.64968C14.1043 8.95436 15.7487 9.15453 15.9402 9.3863C16.1318 9.62334 15.887 11.251 14.9504 12.0306C14.8067 12.1518 14.6684 12.0886 14.7322 11.9305C14.9451 11.409 15.4187 10.2344 15.1952 9.9552Z" fill="currentColor"/>
</g>
<defs>
<clipPath id="clip0_27232_1798">
<rect width="16" height="16" fill="white"/>
</clipPath>
</defs>
</svg>
