<svg width="18" height="18" viewBox="0 0 18 18" fill="none" xmlns="http://www.w3.org/2000/svg">
<path d="M6.75 5.75V4.5C6.75 3.257 7.757 2.25 9 2.25C10.243 2.25 11.25 3.257 11.25 4.5V5.75" stroke="currentColor" stroke-linecap="round" stroke-linejoin="round"/>
<path d="M9 15.25V12.75" stroke="currentColor" stroke-linecap="round" stroke-linejoin="round"/>
<path d="M5.169 12.843C4.9 12.286 4.75 11.661 4.75 11V7.75C4.75 6.645 5.645 5.75 6.75 5.75H11.25C11.543 5.75 11.822 5.813 12.073 5.927" stroke="currentColor" stroke-linecap="round" stroke-linejoin="round"/>
<path d="M13.2504 8.25V11C13.2504 13.347 11.3474 15.25 9.00035 15.25C8.22035 15.25 7.48835 15.04 6.86035 14.672" stroke="currentColor" stroke-linecap="round" stroke-linejoin="round"/>
<path d="M4.75 9.75H1.75" stroke="currentColor" stroke-linecap="round" stroke-linejoin="round"/>
<path d="M4.75 7.25C3.231 7.25 2 6.019 2 4.5" stroke="currentColor" stroke-linecap="round" stroke-linejoin="round"/>
<path d="M13.25 9.75H16.25" stroke="currentColor" stroke-linecap="round" stroke-linejoin="round"/>
<path d="M13.25 12.25C14.769 12.25 16 13.481 16 15" stroke="currentColor" stroke-linecap="round" stroke-linejoin="round"/>
<path d="M2 16L16 2" stroke="currentColor" stroke-linecap="round" stroke-linejoin="round"/>
</svg>
