<svg width="16" height="16" viewBox="0 0 16 16" fill="none" xmlns="http://www.w3.org/2000/svg">
<path d="M1.5 15C0.672667 15 0 14.3273 0 13.5V2.57667C0.00266667 1.70933 0.709333 1.00267 1.57533 1H14.4287C15.2927 1.00267 15.9973 1.70667 16 2.57V13.4233C15.9973 14.2907 15.2907 14.9973 14.4247 15H1.5ZM1 13.5C1 13.776 1.224 14 1.5 14H14.4233C14.74 13.9993 14.9993 13.74 15 13.422V5H1V13.5ZM15 4V2.57133C14.9993 2.25733 14.742 2.00067 14.4273 2H1.57667C1.26 2.00133 1.00067 2.26067 1 2.578V4H15Z" fill="currentColor"/>
<path d="M8.5 10.0001C8.224 10.0001 8 9.77612 8 9.50012C8 9.22412 8.224 9.00012 8.5 9.00012H11.5C11.776 9.00012 12 9.22412 12 9.50012C12 9.77612 11.776 10.0001 11.5 10.0001H8.5Z" fill="currentColor"/>
<path d="M4.5 11.9999C4.36667 11.9999 4.24067 11.9479 4.14667 11.8532C3.952 11.6585 3.952 11.3412 4.14667 11.1459L5.79333 9.49921L4.14667 7.85254C4.052 7.75921 4 7.63321 4 7.49988C4 7.36654 4.052 7.24054 4.14667 7.14654C4.24067 7.05188 4.36667 6.99988 4.5 6.99988C4.63333 6.99988 4.75933 7.05188 4.85333 7.14654L6.85333 9.14654C7.048 9.34121 7.048 9.65854 6.85333 9.85388L4.85333 11.8539C4.75933 11.9479 4.63333 11.9999 4.5 11.9999Z" fill="currentColor"/>
</svg>
