<svg width="16" height="16" viewBox="0 0 16 16" fill="none" xmlns="http://www.w3.org/2000/svg">
<g clip-path="url(#clip0_27218_8710)">
<path d="M10 0.5V4.5H14" stroke="currentColor" stroke-width="0.8" stroke-linecap="round" stroke-linejoin="round"/>
<path d="M14 6.5V4.5L10 0.5H2V6.5" stroke="currentColor" stroke-width="0.8" stroke-linecap="round" stroke-linejoin="round"/>
<path d="M2 13.5V15.5H14V13.5" stroke="currentColor" stroke-width="0.8" stroke-linecap="round" stroke-linejoin="round"/>
<path d="M5.74961 9.25C5.54961 9.25 5.39961 9.35 5.29961 9.5C5.19961 9.65 5.14961 9.85 5.14961 10.1C5.14961 10.65 5.34961 10.9 5.79961 10.9C5.94961 10.9 6.04961 10.9 6.14961 10.85C6.24961 10.8 6.39961 10.75 6.49961 10.7V11.35C6.24961 11.45 5.99961 11.5 5.69961 11.5C5.24961 11.5 4.94961 11.4 4.69961 11.1C4.44961 10.8 4.34961 10.5 4.34961 10C4.34961 9.7 4.39961 9.45 4.49961 9.2C4.59961 8.95 4.74961 8.8 4.99961 8.7C5.24961 8.6 5.44961 8.5 5.74961 8.5C6.04961 8.5 6.34961 8.55 6.64961 8.7L6.39961 9.3C6.29961 9.25 6.19961 9.2 6.09961 9.2C5.99961 9.2 5.84961 9.25 5.74961 9.25Z" fill="currentColor"/>
<path d="M8.95039 10.6504C8.95039 10.8504 8.90039 11.0004 8.80039 11.1004C8.70039 11.2004 8.60039 11.3504 8.40039 11.4004C8.20039 11.4504 8.05039 11.5004 7.80039 11.5004C7.60039 11.5004 7.45039 11.5004 7.30039 11.4504C7.15039 11.4004 7.05039 11.4004 6.90039 11.3004V10.6004C7.05039 10.7004 7.20039 10.7504 7.35039 10.8004C7.50039 10.8504 7.65039 10.8504 7.80039 10.8504C7.90039 10.8504 8.00039 10.8504 8.05039 10.8004C8.10039 10.7504 8.15039 10.7004 8.15039 10.6504C8.15039 10.6004 8.15039 10.6004 8.10039 10.5504C8.05039 10.5004 8.05039 10.5504 8.00039 10.5004C7.95039 10.4504 7.85039 10.4004 7.60039 10.3004C7.40039 10.2004 7.25039 10.1504 7.20039 10.0504C7.15039 9.95039 7.05039 9.90039 7.00039 9.80039C6.95039 9.70039 6.95039 9.60039 6.95039 9.45039C6.95039 9.20039 7.05039 9.00039 7.25039 8.85039C7.45039 8.70039 7.70039 8.65039 8.05039 8.65039C8.35039 8.65039 8.65039 8.70039 8.95039 8.85039L8.70039 9.45039C8.45039 9.35039 8.20039 9.25039 8.00039 9.25039C7.90039 9.25039 7.85039 9.25039 7.80039 9.30039C7.75039 9.35039 7.75039 9.40039 7.75039 9.45039C7.75039 9.50039 7.80039 9.55039 7.85039 9.60039C7.90039 9.65039 8.05039 9.70039 8.30039 9.85039C8.55039 9.95039 8.70039 10.1004 8.80039 10.2004C8.90039 10.3004 8.95039 10.4504 8.95039 10.6504Z" fill="currentColor"/>
<path d="M10.9998 8.65039H11.8498L10.8998 11.5004H9.9998L9.0498 8.65039H9.8998L10.2998 10.1004C10.3998 10.4004 10.3998 10.6504 10.4498 10.7504C10.4498 10.6504 10.4998 10.5504 10.4998 10.4004C10.4998 10.2504 10.5498 10.1504 10.5498 10.1004L10.9998 8.65039Z" fill="currentColor"/>
<path d="M15.5 6.5H0.5V13.5H15.5V6.5Z" stroke="currentColor" stroke-width="0.8" stroke-linecap="round" stroke-linejoin="round"/>
</g>
<defs>
<clipPath id="clip0_27218_8710">
<rect width="16" height="16" fill="white"/>
</clipPath>
</defs>
</svg>
