<svg width="16" height="16" viewBox="0 0 16 16" fill="none" xmlns="http://www.w3.org/2000/svg">
  <path d="M3.706 7.729a0.669 0.669 0 0 0 -0.255 -0.919 0.687 0.687 0 0 0 -0.929 0.258L0.338 10.88a0.669 0.669 0 0 0 0.255 0.919c0.327 0.182 0.743 0.067 0.929 -0.258z" fill="currentColor" stroke="currentColor" stroke-linecap="round" stroke-linejoin="round"/>
  <path d="M8.416 4.805a0.669 0.669 0 0 0 -0.255 -0.919 0.687 0.687 0 0 0 -0.929 0.258l-2.185 3.813a0.669 0.669 0 0 0 0.255 0.919c0.327 0.182 0.742 0.067 0.929 -0.258z" fill="currentColor" stroke="currentColor" stroke-linecap="round" stroke-linejoin="round"/>
  <path d="M15.662 4.805a0.669 0.669 0 0 0 -0.255 -0.919 0.687 0.687 0 0 0 -0.929 0.258l-2.185 3.813a0.669 0.669 0 0 0 0.255 0.919c0.327 0.182 0.743 0.067 0.929 -0.258z" fill="currentColor" stroke="currentColor" stroke-linecap="round" stroke-linejoin="round"/>
  <path d="M10.952 7.729a0.669 0.669 0 0 0 -0.255 -0.919 0.687 0.687 0 0 0 -0.929 0.258l-2.185 3.813a0.669 0.669 0 0 0 0.255 0.919c0.327 0.182 0.742 0.067 0.929 -0.258z" fill="currentColor" stroke="currentColor" stroke-linecap="round" stroke-linejoin="round"/>
</svg>
