<svg width="16" height="16" viewBox="0 0 16 16" fill="none" xmlns="http://www.w3.org/2000/svg">
<path d="M8 9.998C7.724 9.998 7.5 9.774 7.5 9.498V1.70533L5.85333 3.352C5.75867 3.44667 5.63333 3.49867 5.5 3.49867C5.36667 3.49867 5.24067 3.44667 5.14667 3.352C5.052 3.258 5 3.132 5 2.99867C5 2.86533 5.052 2.73933 5.14667 2.64533L7.646 0.146C7.69267 0.0993333 7.74733 0.0626667 7.80933 0.0373333C7.81467 0.0353333 7.82 0.0333333 7.826 0.0313333C7.88333 0.01 7.94067 0 7.99933 0C8.05867 0 8.11733 0.0106667 8.17333 0.032C8.178 0.0333333 8.18267 0.0353333 8.18667 0.0366667C8.25133 0.0633333 8.306 0.1 8.35333 0.147333L10.8527 2.64667C10.9473 2.74067 10.9993 2.86667 10.9993 3C10.9993 3.13333 10.9473 3.25933 10.8527 3.35333C10.758 3.44733 10.6327 3.5 10.4993 3.5C10.366 3.5 10.24 3.448 10.146 3.35333L8.49933 1.70667V9.49933C8.5 9.774 8.276 9.998 8 9.998Z" fill="currentColor"/>
<path d="M7.99783 15.998C6.5285 15.998 5.14717 15.426 4.1085 14.3867C1.96383 12.242 1.96383 8.75337 4.1085 6.6087C4.20317 6.51404 4.3285 6.46204 4.46183 6.46204C4.59517 6.46204 4.72117 6.51404 4.81517 6.6087C4.90983 6.7027 4.96183 6.8287 4.96183 6.96204C4.96183 7.09537 4.90983 7.22137 4.81517 7.31537C3.06117 9.07004 3.06117 11.9247 4.81517 13.6794C5.66517 14.5294 6.79517 14.9974 7.99717 14.9974C9.19983 14.9974 10.3292 14.5294 11.1792 13.6794C12.9338 11.9247 12.9338 9.07004 11.1792 7.31537C11.0845 7.2207 11.0325 7.09537 11.0325 6.96204C11.0325 6.8287 11.0845 6.7027 11.1792 6.6087C11.2738 6.5147 11.3992 6.46204 11.5325 6.46204C11.6658 6.46204 11.7918 6.51404 11.8858 6.6087C14.0305 8.75337 14.0298 12.2427 11.8858 14.3867C10.8478 15.426 9.4665 15.998 7.99783 15.998Z" fill="currentColor"/>
</svg>
