<svg width="16" height="16" viewBox="0 0 16 16" fill="none" xmlns="http://www.w3.org/2000/svg">
<g clip-path="url(#clip0_27235_10493)">
<path d="M15.4967 15.4958L9.88574 9.88477" stroke="currentColor" stroke-linecap="round" stroke-linejoin="round"/>
<path d="M0.529297 11.5003L0.952297 8.23828L4.2143 8.66228" stroke="currentColor" stroke-linecap="round" stroke-linejoin="round"/>
<path d="M11.4585 0.486328L11.0345 3.74833L7.77246 3.32433" stroke="currentColor" stroke-linecap="round" stroke-linejoin="round"/>
<path d="M11.0309 3.7477C10.5369 2.63522 9.68715 1.71851 8.61526 1.14172C7.54338 0.564928 6.31018 0.360786 5.1096 0.561397C3.90903 0.762008 2.80919 1.35599 1.98306 2.24993C1.15693 3.14387 0.651374 4.28706 0.545898 5.4997" stroke="currentColor" stroke-linecap="round" stroke-linejoin="round"/>
<path d="M0.981445 8.238C1.47456 9.34974 2.323 10.2662 3.3935 10.8434C4.46399 11.4206 5.6959 11.6259 6.89572 11.427C8.09554 11.228 9.1953 10.6362 10.0222 9.74441C10.8492 8.85262 11.3565 7.7114 11.4644 6.5" stroke="currentColor" stroke-linecap="round" stroke-linejoin="round"/>
</g>
<defs>
<clipPath id="clip0_27235_10493">
<rect width="16" height="16" fill="white"/>
</clipPath>
</defs>
</svg>
