<svg width="16" height="16" viewBox="0 0 16 16" fill="none" xmlns="http://www.w3.org/2000/svg">
<g clip-path="url(#clip0_19581_30535)">
<path fill-rule="evenodd" clip-rule="evenodd" d="M8 0.200195C3.6 0.200195 0 3.8002 0 8.2002C0 11.7002 2.3 14.7002 5.5 15.8002C5.9 15.9002 6 15.6002 6 15.4002C6 15.2002 6 14.7002 6 14.0002C3.8 14.5002 3.3 13.0002 3.3 13.0002C2.9 12.1002 2.4 11.8002 2.4 11.8002C1.7 11.3002 2.5 11.3002 2.5 11.3002C3.3 11.4002 3.7 12.1002 3.7 12.1002C4.4 13.4002 5.6 13.0002 6 12.8002C6.1 12.3002 6.3 11.9002 6.5 11.7002C4.7 11.5002 2.9 10.8002 2.9 7.7002C2.9 6.8002 3.2 6.1002 3.7 5.6002C3.6 5.4002 3.3 4.6002 3.8 3.5002C3.8 3.5002 4.5 3.3002 6 4.3002C6.6 4.1002 7.3 4.0002 8 4.0002C8.7 4.0002 9.4 4.1002 10 4.3002C11.5 3.3002 12.2 3.5002 12.2 3.5002C12.6 4.6002 12.4 5.4002 12.3 5.6002C12.8 6.2002 13.1 6.9002 13.1 7.7002C13.1 10.8002 11.2 11.4002 9.4 11.6002C9.7 12.0002 10 12.5002 10 13.2002C10 14.3002 10 15.1002 10 15.4002C10 15.6002 10.1 15.9002 10.6 15.8002C13.8 14.7002 16.1 11.7002 16.1 8.2002C16 3.8002 12.4 0.200195 8 0.200195Z" fill="currentColor"/>
</g>
<defs>
<clipPath id="clip0_19581_30535">
<rect width="16" height="16" fill="white"/>
</clipPath>
</defs>
</svg>
