<svg width="16" height="16" viewBox="0 0 16 16" fill="none" xmlns="http://www.w3.org/2000/svg">
<path d="M3 4.5C3.82843 4.5 4.5 3.82843 4.5 3C4.5 2.17157 3.82843 1.5 3 1.5C2.17157 1.5 1.5 2.17157 1.5 3C1.5 3.82843 2.17157 4.5 3 4.5Z" stroke="currentColor" stroke-linecap="round" stroke-linejoin="round"/>
<path d="M4.5008 10.5008V14.5008H0.500801V8.5008C0.493203 8.23609 0.539741 7.97262 0.637561 7.72654C0.735382 7.48045 0.882424 7.25693 1.06968 7.06968C1.25693 6.88242 1.48045 6.73538 1.72654 6.63756C1.97262 6.53974 2.23609 6.4932 2.5008 6.5008C4.3268 6.5008 4.7008 8.1638 7.0008 10.0008" stroke="currentColor" stroke-linecap="round" stroke-linejoin="round"/>
<path d="M11.5 10.5008V14.5008H15.5V8.5008C15.5076 8.23609 15.4611 7.97262 15.3632 7.72654C15.2654 7.48045 15.1184 7.25693 14.9311 7.06968C14.7439 6.88242 14.5204 6.73538 14.2743 6.63756C14.0282 6.53974 13.7647 6.4932 13.5 6.5008C11.674 6.5008 11.3 8.1638 9 10.0008" stroke="currentColor" stroke-linecap="round" stroke-linejoin="round"/>
<path d="M13 4.5C13.8284 4.5 14.5 3.82843 14.5 3C14.5 2.17157 13.8284 1.5 13 1.5C12.1716 1.5 11.5 2.17157 11.5 3C11.5 3.82843 12.1716 4.5 13 4.5Z" stroke="currentColor" stroke-linecap="round" stroke-linejoin="round"/>
</svg>
