<svg width="16" height="16" viewBox="0 0 16 16" fill="none" xmlns="http://www.w3.org/2000/svg">
<path d="M13.5961 1H2.4039C1.62395 1 1 1.6 1 2.35V14.65C1 15.4 1.62395 16 2.4039 16H13.5961C14.376 16 15 15.4 15 14.65V2.35C15 1.6 14.376 1 13.5961 1ZM14.2201 14.65C14.2201 14.9875 13.9471 15.25 13.5961 15.25H2.4039C2.05292 15.25 1.77994 14.9875 1.77994 14.65V2.35C1.77994 2.0125 2.05292 1.75 2.4039 1.75H13.5961C13.9471 1.75 14.2201 2.0125 14.2201 2.35V14.65ZM4.50975 13.75L6.26462 12.25L4.50975 10.75V13.75ZM10.8273 7.675C10.5153 7.375 9.93036 7 8.95543 7C7.90251 7 6.81059 7.2625 6.03064 7.525V3.25H4.47075V9.7375L5.56267 9.25C5.56267 9.25 7.35655 8.4625 8.91644 8.4625C9.69638 8.4625 9.89137 8.875 9.89137 9.25V13.75H11.4513V9.25C11.4903 9.1375 11.4902 8.3125 10.8273 7.675ZM8.76045 5.6875H10.3203C11.0223 4.9 11.3733 4.1125 11.4903 3.25H9.93036C9.77437 4.1125 9.3844 4.9 8.76045 5.6875Z" fill="currentColor"/>
</svg>
