<svg width="16" height="16" viewBox="0 0 16 16" fill="none" xmlns="http://www.w3.org/2000/svg">
<g clip-path="url(#clip0_22016_6687)">
<path d="M1.15531 1.00452L1.10938 6.00527L5.87766 4.4099" stroke="currentColor" stroke-linecap="round" stroke-linejoin="round"/>
<path d="M14.5881 10.0602C15.1263 8.27485 14.9333 6.34885 14.0515 4.70586C13.1696 3.06286 11.6712 1.83747 9.88592 1.29925C8.1006 0.761035 6.17459 0.954076 4.5316 1.83591C2.88861 2.71775 1.66322 4.21614 1.125 6.00146" stroke="currentColor" stroke-linecap="round" stroke-linejoin="round"/>
<path d="M5.39217 14.5492C4.64914 14.2685 3.95914 13.8638 3.35156 13.3522" stroke="currentColor" stroke-linecap="round" stroke-linejoin="round"/>
<path d="M10.0103 14.6691C9.31887 14.8889 8.59765 15.0005 7.87216 15H7.71094" stroke="currentColor" stroke-linecap="round" stroke-linejoin="round"/>
<path d="M13.651 11.9705C13.2177 12.595 12.6866 13.1458 12.0781 13.6014" stroke="currentColor" stroke-linecap="round" stroke-linejoin="round"/>
<path d="M1.84736 11.5964C1.4498 10.939 1.16349 10.2204 1 9.4696" stroke="currentColor" stroke-linecap="round" stroke-linejoin="round"/>
</g>
<defs>
<clipPath id="clip0_22016_6687">
<rect width="16" height="16" fill="white"/>
</clipPath>
</defs>
</svg>
