<svg width="81" height="41" viewBox="0 0 81 41" fill="none" xmlns="http://www.w3.org/2000/svg">
  <path d="M61.5139 11.008C60.4527 11.008 59.4549 11.4191 58.708 12.1659L55.6899 15.1759C54.8757 15.9879 54.4574 17.1154 54.5431 18.2713C54.5492 18.3344 54.5553 18.3975 54.5615 18.4626C54.6696 19.3499 55.0594 20.1497 55.6899 20.7765C56.1246 21.21 56.6041 21.4848 57.1857 21.6761C57.2163 21.8511 57.2326 22.0281 57.2326 22.2052C57.2326 23.003 56.9225 23.7519 56.3592 24.3136L56.1735 24.4988C55.1655 24.1548 54.3247 23.6522 53.5656 22.8951C52.5576 21.8897 51.8903 20.6198 51.6393 19.2258L51.6046 19.0324L51.4515 19.1566C51.3475 19.24 51.2495 19.3296 51.1577 19.4211L48.1396 22.4311C46.5928 23.9737 46.5928 26.4871 48.1396 28.0297C48.913 28.801 49.9292 29.1877 50.9475 29.1877C51.9658 29.1877 52.98 28.801 53.7534 28.0297L56.7715 25.0198C58.3183 23.4771 58.3183 20.9658 56.7715 19.4211C56.3592 19.0101 55.8675 18.7007 55.3104 18.5013C55.2798 18.3201 55.2634 18.139 55.2634 17.962C55.2634 17.095 55.6063 16.2728 56.2348 15.646C57.2449 15.9899 58.1407 16.5476 58.8978 17.3026C59.9038 18.3059 60.5691 19.5738 60.8241 20.9719L60.8588 21.1652L61.0119 21.0411C61.116 20.9577 61.2139 20.8681 61.3078 20.7745L64.3259 17.7646C65.8727 16.2219 65.8747 13.7086 64.3259 12.1659C63.577 11.4191 62.5811 11.008 61.518 11.008H61.5139Z" fill="black"/>
  <path d="M59.8966 0H20.4063C9.15426 0 0 9.12954 0 20.3512C0 31.5728 9.15426 40.7024 20.4063 40.7024H59.8966C71.1486 40.7024 80.3029 31.5728 80.3029 20.3512C80.3029 9.12954 71.1486 0 59.8966 0ZM40.4188 31.9066C39.7678 32.0409 39.0352 32.0653 38.5373 31.5464C38.3536 31.9676 37.9251 31.7458 37.5945 31.6909C37.5639 31.7763 37.5374 31.8516 37.5088 31.9371C36.4089 32.0104 35.5845 30.8911 35.0601 30.0465C34.0193 29.4848 32.8378 29.1429 31.7746 28.5547C31.7134 29.5235 31.9257 30.7242 31.0012 31.349C30.9543 33.2111 33.8255 31.5688 34.0887 32.9567C33.8847 32.9791 33.6582 32.9241 33.4949 33.0808C32.746 33.8074 31.8869 32.5314 31.0237 33.0585C29.8646 33.6405 29.7483 34.1167 28.3137 34.2368C28.2342 34.1167 28.2668 34.0373 28.3341 33.9641C28.7382 33.496 28.7668 32.9445 29.4565 32.745C28.7464 32.6331 28.1525 33.0239 27.5546 33.3332C26.7771 33.6507 26.7833 32.6168 25.5875 33.3881C25.4548 33.2803 25.5181 33.1826 25.5936 33.0992C25.8976 32.7288 26.2976 32.6738 26.7486 32.6942C24.5304 31.4609 23.4856 34.2022 22.4612 32.8387C22.1531 32.9201 22.0368 33.1968 21.8429 33.3922C21.6756 33.2091 21.8021 32.9872 21.8103 32.7715C21.6103 32.6779 21.3572 32.6331 21.4164 32.3136C21.0246 32.1813 20.7512 32.4133 20.4594 32.6331C20.1961 32.4296 20.6369 32.1325 20.7185 31.9208C20.9532 31.5138 21.4878 31.8374 21.7592 31.5443C22.5306 31.1068 23.606 31.817 24.4876 31.697C25.1671 31.7824 26.0078 31.0864 25.667 30.3924C24.9406 29.4665 25.0691 28.2556 25.0528 27.1485C24.963 26.5033 23.4101 25.6811 22.9612 24.9851C22.4061 24.3583 21.9735 23.6318 21.5409 22.9175C19.9798 19.9034 20.4716 16.0306 18.5044 13.2323C17.6147 13.7228 16.4556 13.4908 15.6884 12.8334C15.2741 13.2099 15.2557 13.7024 15.2231 14.2255C14.2293 13.2344 14.3538 11.362 15.1476 10.259C15.4721 9.82353 15.8598 9.46535 16.2924 9.1499C16.3903 9.07868 16.423 9.00948 16.4209 8.89958C17.2066 5.37476 22.5653 6.05449 24.259 8.55158C25.4875 10.0881 25.8589 12.1211 27.2526 13.5478C29.1279 15.5951 31.2645 17.3982 32.9949 19.5778C34.6315 21.5702 35.8008 23.9065 36.8211 26.2612C37.2374 27.0426 37.2415 28.0012 37.8578 28.6687C38.1618 29.0717 39.6474 30.1686 39.325 30.5573C39.5107 30.9602 40.8983 31.5158 40.4167 31.9066H40.4188ZM66.4449 19.8831L63.4269 22.893C62.6228 23.6949 61.6291 24.2932 60.5516 24.6208L60.4965 24.6371L60.4761 24.69C60.1251 25.614 59.5925 26.4382 58.8905 27.1363L55.8724 30.1462C54.5562 31.4589 52.8054 32.1813 50.9402 32.1813C49.0751 32.1813 47.3242 31.4589 46.008 30.1462C43.2879 27.4334 43.2879 23.0212 46.008 20.3084L49.0261 17.2985C49.8342 16.4926 50.8015 15.9126 51.8973 15.5768L51.9524 15.5605L51.9728 15.5076C52.3238 14.5836 52.8584 13.7574 53.5625 13.0532L56.5805 10.0433C57.8967 8.73066 59.6476 8.00819 61.5127 8.00819C63.3779 8.00819 65.1287 8.73066 66.4449 10.0433C67.7612 11.3559 68.4856 13.1021 68.4856 14.9622C68.4856 16.8223 67.7612 18.5704 66.4449 19.8811V19.8831Z" fill="black"/>
  <path d="M28.1422 28.2637C27.8769 29.2935 27.7912 31.0457 26.4485 31.0966C26.3383 31.6909 26.8607 31.9147 27.3382 31.7234C27.8096 31.5077 28.034 31.8944 28.1932 32.279C28.9217 32.3848 29.9992 32.0368 30.04 31.176C28.9523 30.5512 28.6156 29.3627 28.1442 28.2617L28.1422 28.2637Z" fill="black"/>
</svg>
