<svg width="16" height="16" viewBox="0 0 16 16" fill="none" xmlns="http://www.w3.org/2000/svg">
<path fill-rule="evenodd" clip-rule="evenodd" d="M1 3.53445C1 2.13471 2.13471 1 3.53445 1H13.1654C14.5651 1 15.6998 2.13471 15.6998 3.53445V11.7255C15.6998 13.1736 13.8673 13.8021 12.9786 12.6588L10.2001 9.08458V13.4188C10.2001 14.6786 9.17881 15.6998 7.91905 15.6998H3.53445C2.13471 15.6998 1 14.5651 1 13.1654V3.53445ZM3.53445 3.02756C3.2545 3.02756 3.02756 3.2545 3.02756 3.53445V13.1654C3.02756 13.4453 3.2545 13.6722 3.53445 13.6722H7.99508C8.13505 13.6722 8.17249 13.5588 8.17249 13.4188V7.60662C8.17249 6.15852 10.005 5.53003 10.8937 6.67332L13.6722 10.2476V3.53445C13.6722 3.2545 13.6987 3.02756 13.4188 3.02756H3.53445Z" fill="currentColor"/>
<path d="M13.1653 1C14.565 1 15.6997 2.13471 15.6997 3.53445V11.7255C15.6997 13.1736 13.8672 13.8021 12.9785 12.6588L10.1999 9.08458V13.4188C10.1999 14.6786 9.17871 15.6998 7.91895 15.6998C8.05892 15.6998 8.17239 15.5863 8.17239 15.4464V7.60662C8.17239 6.15852 10.0049 5.53003 10.8936 6.67332L13.6721 10.2476V1.50689C13.6721 1.22694 13.4452 1 13.1653 1Z" fill="currentColor"/>
</svg>
