<svg width="16" height="16" viewBox="0 0 16 16" fill="none" xmlns="http://www.w3.org/2000/svg">
<g clip-path="url(#clip0_22009_4513)">
<path d="M6.42188 9.00277V4.03594L9.58737 2.20827C10.9593 1.41679 12.7137 1.88613 13.5053 3.25784C14.0349 4.1755 14.0005 5.26427 13.5081 6.12075" stroke="currentColor" stroke-linecap="round" stroke-linejoin="round"/>
<path d="M8.16502 5.99451L12.4673 8.47792V12.1323C12.4673 13.7162 11.1833 15 9.5991 15C8.53979 15 7.61434 14.4255 7.11719 13.5709" stroke="currentColor" stroke-linecap="round" stroke-linejoin="round"/>
<path d="M9.9025 9.00273L5.60026 11.4861L2.43477 9.65848C1.06284 8.86699 0.592459 7.11293 1.38503 5.74122C1.91468 4.82356 2.87551 4.30928 3.86312 4.30737" stroke="currentColor" stroke-linecap="round" stroke-linejoin="round"/>
<path d="M8.16943 10.0055L3.86719 7.52208V3.86769C3.86719 2.28377 5.15117 1 6.73535 1C7.79465 1 8.72011 1.57449 9.21726 2.42906" stroke="currentColor" stroke-linecap="round" stroke-linejoin="round"/>
<path d="M6.42188 6.99727L10.7241 4.51385L13.8896 6.34153C15.2615 7.13301 15.7319 8.88708 14.9394 10.2588C14.4097 11.1764 13.4489 11.6907 12.4613 11.6926" stroke="currentColor" stroke-linecap="round" stroke-linejoin="round"/>
<path d="M9.89787 6.99731V11.9641L6.73238 13.7918C5.36044 14.5833 3.60608 14.114 2.81447 12.7422C2.28482 11.8246 2.31924 10.7358 2.8116 9.87934" stroke="currentColor" stroke-linecap="round" stroke-linejoin="round"/>
</g>
<defs>
<clipPath id="clip0_22009_4513">
<rect width="16" height="16" fill="white"/>
</clipPath>
</defs>
</svg>
