<svg width="16" height="16" viewBox="0 0 16 16" fill="none" xmlns="http://www.w3.org/2000/svg">
<g clip-path="url(#clip0_27218_8728)">
<path d="M15.044 9.78698C13.1875 10.1699 13.0599 9.54137 13.0599 9.54137C15.02 6.63283 15.8394 2.94087 15.1323 2.03728C13.2032 -0.427531 9.86382 0.738166 9.80809 0.76843L9.79015 0.771641C9.42337 0.695502 9.0129 0.650144 8.55156 0.642615C7.71153 0.628849 7.07434 0.862837 6.59082 1.2295C6.59082 1.2295 0.633682 -1.2246 0.91074 4.31601C0.96968 5.49473 2.60018 13.2348 4.54498 10.8969C5.2558 10.042 5.94259 9.31922 5.94259 9.31922C6.28372 9.54583 6.6921 9.66142 7.12021 9.6199L7.15347 9.59167C7.14313 9.69781 7.14786 9.80163 7.16679 9.92453C6.66578 10.4843 6.813 10.5826 5.81146 10.7887C4.79804 10.9976 5.39339 11.3694 5.78209 11.4666C6.25331 11.5844 7.3435 11.7514 8.08012 10.7202L8.05074 10.8379C8.24705 10.9951 8.38489 11.8606 8.36179 12.6451C8.33869 13.4297 8.32326 13.9684 8.47793 14.3891C8.63261 14.8099 8.78677 15.7565 10.1034 15.4744C11.2035 15.2386 11.7736 14.6277 11.8529 13.6086C11.9092 12.8841 12.0366 12.9912 12.0446 12.3434L12.1468 12.0368C12.2646 11.0546 12.1655 10.7378 12.8433 10.8852L13.008 10.8996C13.5069 10.9223 14.1598 10.8194 14.543 10.6413C15.3682 10.2584 15.8575 9.61898 15.0439 9.78698H15.044Z" stroke="currentColor" stroke-width="0.651731" stroke-linecap="round" stroke-linejoin="round"/>
<path d="M8.16059 10.3496C8.10947 12.1771 8.17343 14.0173 8.35224 14.4645C8.53117 14.9118 8.91407 15.7816 10.2308 15.4996C11.3308 15.2637 11.7311 14.8073 11.9048 13.8C12.0327 13.0588 12.2793 11.0005 12.3109 10.5787" stroke="currentColor" stroke-width="0.651731" stroke-linecap="round" stroke-linejoin="round"/>
<path d="M6.58211 1.18779C6.58211 1.18779 0.620912 -1.24864 0.898044 4.29197C0.956984 5.4707 2.58759 13.211 4.53235 10.873C5.24303 10.018 5.88576 9.34749 5.88576 9.34749" stroke="currentColor" stroke-width="0.651731" stroke-linecap="round" stroke-linejoin="round"/>
<path d="M9.80165 0.743435C9.5953 0.808132 13.1176 -0.544201 15.1194 2.01365C15.8265 2.91727 15.0071 6.60923 13.047 9.51785" stroke="currentColor" stroke-width="0.651731" stroke-linecap="round" stroke-linejoin="round"/>
<path d="M13.0477 9.51865C13.0477 9.51865 13.1754 10.1474 15.0319 9.76419C15.8453 9.59619 15.3558 10.2356 14.5308 10.6188C13.8538 10.933 12.3358 11.0135 12.311 10.5793C12.2472 9.45901 13.1099 9.79936 13.0477 9.51865ZM13.0477 9.51865C12.9914 9.26584 12.6056 9.01772 12.3504 8.39898C12.1276 7.85892 9.29466 3.7174 13.136 4.33249C13.2767 4.30337 12.1342 0.678657 8.53919 0.619717C4.94503 0.560777 5.06295 5.03973 5.06295 5.03973" stroke="currentColor" stroke-width="0.651731" stroke-linecap="round" stroke-linejoin="bevel"/>
<path d="M7.15391 9.9009C6.65283 10.4606 6.8002 10.5589 5.79859 10.7651C4.78517 10.974 5.38058 11.3458 5.76918 11.4429C6.2404 11.5609 7.33059 11.7278 8.06721 10.6964C8.29152 10.3823 8.06588 9.88123 7.75774 9.7535C7.60886 9.69183 7.40979 9.61455 7.15391 9.9009Z" stroke="currentColor" stroke-width="0.651731" stroke-linecap="round" stroke-linejoin="round"/>
<path d="M7.12144 9.89156C7.07095 9.56246 7.22958 9.17084 7.39957 8.71268C7.65504 8.02526 8.24448 7.33773 7.77296 5.15713C7.42149 3.53217 5.06416 4.81896 5.06268 5.03929C5.06124 5.25955 5.1693 6.15609 5.0233 7.2001C4.83279 8.56244 5.89016 9.71463 7.10775 9.59675" stroke="currentColor" stroke-width="0.651731" stroke-linecap="round" stroke-linejoin="round"/>
<path d="M6.56011 5.00603C6.54948 5.08128 6.69788 5.28209 6.89138 5.30892C7.08455 5.33587 7.24989 5.17894 7.26037 5.10376C7.27086 5.02851 7.12264 4.94562 6.92906 4.91867C6.73578 4.89169 6.57037 4.93096 6.56014 5.00603H6.56011Z" fill="currentColor" stroke="currentColor" stroke-width="0.217242"/>
<path d="M12.4442 4.85172C12.4547 4.92697 12.3065 5.12778 12.1129 5.15461C11.9196 5.18155 11.7543 5.02463 11.7437 4.94945C11.7334 4.8742 11.8817 4.7913 12.075 4.76436C12.2684 4.73742 12.4337 4.77665 12.4442 4.85176V4.85172Z" fill="currentColor" stroke="currentColor" stroke-width="0.108621"/>
<path d="M13.1362 4.33203C13.1681 4.92232 13.0091 5.32438 12.989 5.95275C12.9594 6.86612 13.4245 7.91153 12.7236 8.95824" stroke="currentColor" stroke-width="0.651731" stroke-linecap="round" stroke-linejoin="round"/>
</g>
<defs>
<clipPath id="clip0_27218_8728">
<rect width="16" height="16" fill="white"/>
</clipPath>
</defs>
</svg>
