<svg width="16" height="16" viewBox="0 0 16 16" fill="none" xmlns="http://www.w3.org/2000/svg">
<path d="M13 6.5C12.829 6.5 12.662 6.518 12.5 6.55V3.5H9.45C9.482 3.338 9.5 3.171 9.5 3C9.5 1.619 8.381 0.5 7 0.5C5.619 0.5 4.5 1.619 4.5 3C4.5 3.171 4.518 3.338 4.55 3.5H1.5V6.55C2.641 6.782 3.5 7.79 3.5 9C3.5 10.21 2.641 11.218 1.5 11.45V14.5H4.55C4.782 13.359 5.79 12.5 7 12.5C8.21 12.5 9.218 13.359 9.45 14.5H12.5V11.45C12.662 11.483 12.829 11.5 13 11.5C14.381 11.5 15.5 10.381 15.5 9C15.5 7.619 14.381 6.5 13 6.5Z" stroke="currentColor" stroke-linecap="round" stroke-linejoin="round"/>
</svg>
