<svg width="16" height="16" viewBox="0 0 16 16" fill="none" xmlns="http://www.w3.org/2000/svg">
<path d="M6.47333 14.9393C2.60067 14.63 0 13.248 0 11.5V3.5C0 1.50467 3.43933 0 8 0C12.5607 0 16 1.50467 16 3.5V7.5C16 7.776 15.776 8 15.5 8C15.224 8 15 7.776 15 7.5V5.24667C14.65 5.524 14.214 5.776 13.698 5.99867C13.6347 6.02533 13.5687 6.03933 13.5 6.03933C13.3 6.03933 13.1193 5.92067 13.0407 5.73733C12.988 5.61533 12.986 5.47933 13.0353 5.35467C13.0847 5.23067 13.1793 5.13333 13.302 5.08C14.3813 4.61467 15 4.03867 15 3.5C15 2.478 12.5073 1 8 1C3.49267 1 1 2.478 1 3.5C1 4.48067 3.07667 5.66267 6.55133 5.942C6.826 5.964 7.03133 6.206 7.00933 6.48067C6.98867 6.73867 6.77 6.94067 6.51133 6.94067C6.498 6.94067 6.484 6.94 6.47 6.93867C4.10067 6.748 2.118 6.12667 1 5.24333V7.5C1 8.412 2.68867 9.342 5.10667 9.76133C5.378 9.80867 5.56133 10.0673 5.514 10.3393C5.47267 10.5793 5.26533 10.754 5.02133 10.754C4.99267 10.754 4.96333 10.7513 4.934 10.7467C3.22333 10.45 1.85533 9.92733 1 9.25267V11.5007C1 12.4833 3.07667 13.6653 6.55133 13.9427C6.684 13.9533 6.80533 14.0153 6.892 14.1167C6.97867 14.218 7.02067 14.3473 7.01 14.4807C6.98933 14.7387 6.77067 14.9407 6.512 14.9407C6.49933 14.9407 6.48667 14.94 6.47333 14.9393Z" fill="currentColor"/>
<path d="M15.5 16C15.3667 16 15.2407 15.948 15.1467 15.8533L12.9513 13.658C12.2507 14.2027 11.3893 14.5 10.5 14.5C8.29467 14.5 6.5 12.7053 6.5 10.5C6.5 8.29467 8.29467 6.5 10.5 6.5C12.7053 6.5 14.5 8.29467 14.5 10.5C14.5 11.3887 14.2027 12.2507 13.658 12.9513L15.8533 15.1467C16.048 15.3413 16.048 15.6587 15.8533 15.854C15.7593 15.948 15.6333 16 15.5 16ZM10.5 7.5C8.846 7.5 7.5 8.846 7.5 10.5C7.5 12.154 8.846 13.5 10.5 13.5C12.154 13.5 13.5 12.154 13.5 10.5C13.5 8.846 12.154 7.5 10.5 7.5Z" fill="currentColor"/>
</svg>
