<svg width="16" height="16" viewBox="0 0 16 16" fill="none" xmlns="http://www.w3.org/2000/svg">
<g clip-path="url(#clip0_22016_6561)">
<path d="M3.27862 12.9983H0.500095C0.224043 12.9983 0 12.7742 0 12.4982C0 12.2221 0.224043 11.9981 0.500095 11.9981H2.25843C1.41694 10.7892 0.975519 9.33492 1.00819 7.85064C1.04887 5.98028 1.81568 4.23728 3.1666 2.94437C4.47619 1.6908 6.19651 1 8.01086 1C8.93637 1 9.83988 1.1807 10.696 1.5361C10.8194 1.58745 10.9154 1.68346 10.9668 1.80682C11.0174 1.93018 11.0174 2.0662 10.9661 2.18956C10.8881 2.37693 10.7067 2.49762 10.504 2.49762C10.438 2.49762 10.3733 2.48495 10.312 2.45894C9.57849 2.15422 8.80434 1.99952 8.01086 1.99952C6.4559 1.99952 4.98095 2.59164 3.85807 3.66651C2.69985 4.77539 2.04239 6.269 2.00772 7.87198C1.98104 9.10154 2.32978 10.2991 3.00057 11.3113V9.49695C3.00057 9.2209 3.22461 8.99686 3.50067 8.99686C3.77672 8.99686 4.00076 9.22157 4.00076 9.49762V12.4982C4.00076 12.7742 3.77672 12.9983 3.50067 12.9983H3.34197C3.3313 12.9996 3.3213 13.0003 3.31196 13.0003C3.30396 13.0003 3.28996 12.999 3.27862 12.9983Z" fill="currentColor"/>
<path d="M7.99268 15C7.0645 15 6.15899 14.8186 5.30016 14.4612C5.17681 14.4098 5.08079 14.3138 5.03011 14.1898C4.97944 14.0664 4.97944 13.9304 5.03078 13.8071C5.10879 13.6197 5.29016 13.499 5.49287 13.499C5.55888 13.499 5.62289 13.5117 5.68424 13.537C6.42104 13.8437 7.19719 13.9998 7.99268 13.9998C9.55031 13.9998 11.0266 13.4057 12.1495 12.3274C13.3064 11.2172 13.9618 9.72295 13.9945 8.11998C14.0198 6.88975 13.6691 5.69285 12.9963 4.68066V6.497C12.9963 6.77306 12.7723 6.9971 12.4962 6.9971C12.2201 6.9971 11.9968 6.77239 11.9968 6.497V3.49643C11.9968 3.22038 12.2208 2.99634 12.4969 2.99634H15.4974C15.7735 2.99634 15.9975 3.22038 15.9975 3.49643C15.9975 3.77249 15.7735 3.99653 15.4974 3.99653H13.7404C14.5826 5.20409 15.0253 6.65704 14.9953 8.14065C14.9567 10.0103 14.1925 11.754 12.8429 13.0496C11.532 14.3072 9.80969 15 7.99268 15Z" fill="currentColor"/>
</g>
<defs>
<clipPath id="clip0_22016_6561">
<rect width="16" height="16" fill="white"/>
</clipPath>
</defs>
</svg>
