<svg width="28" height="28" viewBox="0 0 28 28" fill="none" xmlns="http://www.w3.org/2000/svg">
<path d="M20.2749 16.2046C25.9605 10.2391 25.2652 3.28572 25.206 2.79105C24.7098 2.73194 17.758 2.03661 11.7925 7.72216C8.17893 11.1662 6.96249 15.0115 6.60938 16.2979L11.6992 21.3877C12.9856 21.0346 16.8309 19.8182 20.2749 16.2046Z" stroke="currentColor" stroke-width="1.4" stroke-linecap="round" stroke-linejoin="round"/>
<path d="M17.5 8.47754C18.6166 8.47777 19.5215 9.3833 19.5215 10.5C19.5212 11.6165 18.6165 12.5212 17.5 12.5215C16.3833 12.5215 15.4778 11.6166 15.4775 10.5C15.4775 9.38316 16.3832 8.47754 17.5 8.47754Z" stroke="currentColor" stroke-width="1.4"/>
<path d="M7.93999 23.669C7.51221 24.6148 6.55866 25.2744 5.45266 25.2744H2.72266V22.5459C2.72266 21.4399 3.38066 20.4864 4.32799 20.0586" stroke="currentColor" stroke-width="1.4" stroke-linecap="round" stroke-linejoin="round"/>
<path d="M20.1803 16.3086L20.5629 18.4506C20.9114 20.3997 20.1025 22.3753 18.4878 23.5186L14.3594 26.4446C14.3594 26.4446 15.3596 23.8297 14.7934 20.2146" stroke="currentColor" stroke-width="1.4" stroke-linecap="round" stroke-linejoin="round"/>
<path d="M11.6907 7.82246L9.55335 7.4398C7.60113 7.0898 5.62247 7.90024 4.47602 9.51957L1.55469 13.6434C1.55469 13.6434 4.16958 12.6431 7.78469 13.2094" stroke="currentColor" stroke-width="1.4" stroke-linecap="round" stroke-linejoin="round"/>
</svg>
