<svg width="16" height="16" viewBox="0 0 16 16" fill="none" xmlns="http://www.w3.org/2000/svg">
<g clip-path="url(#clip0_27214_7562)">
<path d="M5.19884 2.73009L4.03014 2.34052L3.64057 1.17182C3.5138 0.794288 2.8892 0.794288 2.76243 1.17182L2.37286 2.34052L1.20416 2.73009C1.01539 2.79301 0.887695 2.96975 0.887695 3.1687C0.887695 3.36765 1.01539 3.54439 1.20416 3.60731L2.37286 3.99688L2.76243 5.16558C2.82535 5.35434 3.00301 5.48204 3.20196 5.48204C3.40091 5.48204 3.57765 5.35434 3.6415 5.16558L4.03106 3.99688L5.19976 3.60731C5.38853 3.54439 5.51623 3.36765 5.51623 3.1687C5.51623 2.96975 5.38761 2.79301 5.19884 2.73009Z" fill="currentColor"/>
<path d="M8.75383 2.50781L10.5231 6.98366L14.9999 8.75383L10.5231 10.524L8.75383 14.9999L6.98366 10.524L2.50781 8.75383L6.98366 6.98366L8.75383 2.50781Z" stroke="currentColor" stroke-linecap="round" stroke-linejoin="round"/>
</g>
<defs>
<clipPath id="clip0_27214_7562">
<rect width="16" height="16" fill="white"/>
</clipPath>
</defs>
</svg>
