<svg width="16" height="16" viewBox="0 0 16 16" fill="none" xmlns="http://www.w3.org/2000/svg">
<g clip-path="url(#clip0_27218_8719)">
<path d="M10 0.5V4.5H14" stroke="currentColor" stroke-width="0.8" stroke-linecap="round" stroke-linejoin="round"/>
<path d="M14 6.5V4.5L10 0.5H2V6.5" stroke="currentColor" stroke-width="0.8" stroke-linecap="round" stroke-linejoin="round"/>
<path d="M2 13.5V15.5H14V13.5" stroke="currentColor" stroke-width="0.8" stroke-linecap="round" stroke-linejoin="round"/>
<path d="M6.2502 10.6496C6.2502 10.8496 6.2002 10.9996 6.1002 11.0996C6.0002 11.1996 5.9002 11.3496 5.7002 11.3996C5.5002 11.4496 5.3502 11.4996 5.1002 11.4996C4.9002 11.4996 4.7502 11.4996 4.6002 11.4496C4.4502 11.3996 4.3502 11.3996 4.2002 11.2996V10.5996C4.3502 10.6996 4.5002 10.7496 4.6502 10.7996C4.8002 10.8496 4.9502 10.8496 5.1002 10.8496C5.2002 10.8496 5.3002 10.8496 5.3502 10.7996C5.4002 10.7496 5.4502 10.6996 5.4502 10.6496C5.4502 10.5996 5.4502 10.5996 5.4002 10.5496C5.3502 10.4996 5.3502 10.4996 5.3002 10.4496C5.2502 10.3996 5.1502 10.3496 4.9002 10.2496C4.7002 10.1496 4.5502 10.0996 4.5002 9.99961C4.4502 9.89961 4.3502 9.84961 4.3002 9.74961C4.2502 9.64961 4.2502 9.54961 4.2502 9.39961C4.2502 9.14961 4.3502 8.94961 4.5502 8.79961C4.7502 8.64961 5.0002 8.59961 5.3502 8.59961C5.6502 8.59961 5.9502 8.64961 6.2502 8.79961L6.0002 9.39961C5.7502 9.29961 5.5002 9.19961 5.3002 9.19961C5.2002 9.19961 5.1502 9.19961 5.1002 9.24961C5.0502 9.29961 5.0502 9.34961 5.0502 9.39961C5.0502 9.44961 5.1002 9.49961 5.1502 9.54961C5.2002 9.59961 5.3502 9.64961 5.6002 9.79961C5.8502 9.89961 6.0002 10.0496 6.1002 10.1496C6.2002 10.2496 6.2502 10.4496 6.2502 10.6496Z" fill="currentColor"/>
<path d="M9.39961 10.05C9.39961 10.7 9.19961 11.15 8.79961 11.35L9.49961 12.15H8.49961L7.99961 11.5C7.54961 11.5 7.19961 11.35 6.94961 11.1C6.69961 10.85 6.59961 10.5 6.59961 10C6.59961 9.5 6.69961 9.15 6.94961 8.9C7.19961 8.65 7.54961 8.5 7.99961 8.5C8.44961 8.5 8.79961 8.6 9.04961 8.85C9.29961 9.1 9.39961 9.6 9.39961 10.05ZM7.39961 10.05C7.39961 10.6 7.59961 10.9 7.99961 10.9C8.19961 10.9 8.34961 10.85 8.44961 10.7C8.54961 10.55 8.59961 10.35 8.59961 10.05C8.59961 9.75 8.54961 9.55 8.44961 9.4C8.34961 9.25 8.19961 9.2 7.99961 9.2C7.59961 9.25 7.39961 9.5 7.39961 10.05Z" fill="currentColor"/>
<path d="M9.90039 11.5004V8.65039H10.6504V10.9004H11.7504V11.5004H9.90039Z" fill="currentColor"/>
<path d="M15.5 6.5H0.5V13.5H15.5V6.5Z" stroke="currentColor" stroke-width="0.8" stroke-linecap="round" stroke-linejoin="round"/>
</g>
<defs>
<clipPath id="clip0_27218_8719">
<rect width="16" height="16" fill="white"/>
</clipPath>
</defs>
</svg>
