<svg width="16" height="16" viewBox="0 0 16 16" fill="none" xmlns="http://www.w3.org/2000/svg">
<g clip-path="url(#clip0_16968_14092)">
<path d="M8 3.5C8.82843 3.5 9.5 2.82843 9.5 2C9.5 1.17157 8.82843 0.5 8 0.5C7.17157 0.5 6.5 1.17157 6.5 2C6.5 2.82843 7.17157 3.5 8 3.5Z" stroke="currentColor" stroke-linecap="round" stroke-linejoin="round"/>
<path d="M2.1543 13.625C2.98272 13.625 3.6543 12.9534 3.6543 12.125C3.6543 11.2966 2.98272 10.625 2.1543 10.625C1.32587 10.625 0.654297 11.2966 0.654297 12.125C0.654297 12.9534 1.32587 13.625 2.1543 13.625Z" stroke="currentColor" stroke-linecap="round" stroke-linejoin="round"/>
<path d="M13.8467 13.625C14.6751 13.625 15.3467 12.9534 15.3467 12.125C15.3467 11.2966 14.6751 10.625 13.8467 10.625C13.0183 10.625 12.3467 11.2966 12.3467 12.125C12.3467 12.9534 13.0183 13.625 13.8467 13.625Z" stroke="currentColor" stroke-linecap="round" stroke-linejoin="round"/>
<path d="M4.62495 2.91504C3.29877 3.67982 2.27225 4.87305 1.71414 6.29859C1.15602 7.72413 1.09953 9.29714 1.55395 10.759" stroke="currentColor" stroke-linecap="round" stroke-linejoin="round"/>
<path d="M12.9549 13.3232C11.92 14.4518 10.531 15.1935 9.01745 15.4257C7.50392 15.6579 5.95647 15.3667 4.63086 14.6002" stroke="currentColor" stroke-linecap="round" stroke-linejoin="round"/>
<path d="M14.7504 8.74995C14.75 7.218 14.2283 5.73178 13.2711 4.53573C12.3138 3.33967 10.978 2.50499 9.4834 2.16895" stroke="currentColor" stroke-linecap="round" stroke-linejoin="round"/>
</g>
</svg>
