<svg width="16" height="16" viewBox="0 0 16 16" fill="none" xmlns="http://www.w3.org/2000/svg">
<path d="M10.4496 10.8992C11.1952 10.8992 11.7996 10.2948 11.7996 9.54922C11.7996 8.80363 11.1952 8.19922 10.4496 8.19922C9.70402 8.19922 9.09961 8.80363 9.09961 9.54922C9.09961 10.2948 9.70402 10.8992 10.4496 10.8992Z" stroke="currentColor" stroke-linecap="round" stroke-linejoin="round"/>
<path d="M1 2.8V12.7C1 13.1774 1.18964 13.6352 1.52721 13.9728C1.86477 14.3104 2.32261 14.5 2.8 14.5H14.5V4.6H2.8C2.32261 4.6 1.86477 4.41036 1.52721 4.07279C1.18964 3.73523 1 3.27739 1 2.8ZM1 2.8C1 2.32261 1.18964 1.86477 1.52721 1.52721C1.86477 1.18964 2.32261 1 2.8 1H10.9V2.8" stroke="currentColor" stroke-linecap="round" stroke-linejoin="round"/>
</svg>
