<svg version="1.2" xmlns="http://www.w3.org/2000/svg" viewBox="0 0 1064 520" width="1064" height="520"><style>.a{fill:#c1c2c3}</style><path class="a" d="m808 473.3q-2.2 0.2-6.1 3-13.4 9.4-31.7 9.4-11.9 0-31.1-16l-13.2-11.2-3.2-2.8-20.3-17.4q-8.7-6.9-30.6-21.5 15-3.8 28-9.8h-225.7c3.4 3.9 7.2 5.8 11.5 5.8q3.5 0 10-0.6 5.9-0.6 18.9-0.6c7.9 0 13.5 0.2 16.8 0.5l-0.6 1.3q-10.2 21.2-11.1 43c0 0.7 0 1.5 0 2.1h5.1-5.1q0.3 6.9 5.4 6.9c2.2 0 3.8-2.2 4.8-6.9 0.2-1 0.3-2 0.5-3.3q2.4-19.8 13.5-33.7c7.3-9.3 15.5-13.9 24.3-13.9q15.2 0 47.8 22.3l36.4 25.2q1.5 1 4.7 3.4c6.1 4.5 17 12.7 32.7 24.6q35.4 26.9 61.5 26.9c12.8 0 26.2-3.7 40.2-11.2 14-7.4 20.8-14.6 20.5-21.4-0.1-2.9-1.4-4.3-3.9-4.1z"/><path class="a" d="m1047 400.1q-20.6-4.8-27.3-13.2c-4.5-5.5-10.2-19.7-16.9-42.5l-4.8-15.3-30.9-102.4-62.8-208.5c-1.6-5.4-3.5-8.2-5.8-8.2q-3.5 0-6.3 8.5l-72.2 208.2h18.2q0.3-2.8 2.7-9.6l42.4-121.9q2-5.6 3.5-5.3c2.1 0.2 4 3.3 5.7 9.3l1.7 5.9 34.2 111.4 1.1 5.1c0.5 2.1 0.8 3.8 1 5.1h16.6-16.6q0.1 0.8 0.1 1.4-0.1 7-10.9 7h-65.7l-5.9-0.2c-6.7 0-10-2.5-10-7.4q0-0.4 0.1-0.8h-18.2l-39.5 114.1-6.3 18.6q-4.8 13-12.2 25-7.4 12-11.8 13.7l-8 3.1c-2.3 0.9-3.6 2.9-3.7 5.8q0 0.2 0 0.5 0 5.3 5.9 5.3 1 0 12.1-1.9 3.4-0.4 9.7-0.4c9.1 0 17.2 0.2 24.1 0.6l20.8 1.4c3.3 0.2 5.7 0.3 7.3 0.3q6.3 0 6.1-4.8 0-0.5-0.1-1h-10.7 10.7c-0.5-2.9-2.7-4.8-6.7-5.8q-15-4.2-20.2-10.1-5.1-6-5.1-19.2c0-9.2 3.3-23.3 9.8-42.3l14.4-41.3q6.5-19.2 10.4-22.6 3.9-3.4 20-3.4h78.7c8.2 0 13.1 0.8 14.8 2.4q2.7 2.4 7.2 18l10.9 37.2q13.4 44.6 13.4 59.6 0 16.3-10.9 19.2l-6.8 1.9q-5.5 1.5-5.5 6.1v0.3q0.2 5.8 5.7 5.8 2.1 0 6.7-1.2 7.6-1.7 37.8-1.7 28.9 0 40.2 1.2c4.2 0.3 7 0.5 8.3 0.5 3.9 0 5.9-1.5 6-4.6v-0.1q0.3-5.2-6.5-6.8z"/><path fill-rule="evenodd" class="a" d="m723.3 393.4c-7.2 5.2-15 9.7-23.5 13.6h-225.7q-0.6-0.7-1.2-1.6l-3.7-5.3-116.8-156.2-4.3-6.3q-2.7-3.1-5.4-3.1-4 0-4 6.5v103.5q0 32.5 6.8 42.9 6.7 10.5 30.8 15.5c3.2 0.8 5.2 2.1 6.1 4.1q0.4 0.9 0.5 2c0.1 3.9-1.7 5.7-5.3 5.5q-3.1-0.3-11.8-1.4c-4.6-0.7-62-3.1-67.7-3.3-7.7 0-17.2 0.1-27.6 0.1q-30.2 0-37.8 1.7-4.6 1.2-6.7 1.2c-3.7 0-5.6-1.9-5.7-5.8v-0.3q0-4.6 5.5-6.1l6.7-1.9q11-2.9 11-19.2c0-10-4.5-29.8-13.4-59.6l-10.9-37.2c-3-10.4-5.5-16.4-7.2-18q-2.6-2.4-14.8-2.4h-78.7q-16.1 0-20 3.4c-2.6 2.3-6.1 9.8-10.4 22.5l-14.5 41.5c-6.4 18.9-9.7 33-9.7 42.2q0 13.2 5.1 19.2c3.5 3.9 10.2 7.3 20.2 10.1q5.9 1.5 6.7 5.8c0 0.3 0.1 0.7 0.1 1q0.2 4.8-6.1 4.8-2.4 0-7.4-0.3l-20.7-1.4q-10.4-0.6-24.1-0.6-6.3 0-9.7 0.4-11.1 1.9-12.2 1.9-5.8 0-5.8-5.3v-0.5q0.2-4.4 3.7-5.8l8-3.1q4.4-1.7 11.7-13.7c5-8 9-16.3 12.2-25l6.4-18.6 39.5-114.1h18.1q0 0.5 0 0.8c0 4.9 3.3 7.4 10 7.4l5.9 0.2h65.6q10.9 0 10.9-7 0-0.6-0.1-1.4h16.7-16.7q-0.2-1.9-1-5.1l-1.1-5.1-34.1-111.4-1.8-6q-2.6-8.9-5.6-9.2-1.5-0.3-3.5 5.3l-42.4 121.9q-2.4 6.8-2.8 9.6h-18.1l72.2-208.2q2.8-8.5 6.3-8.5c2.2 0 4.2 2.7 5.8 8.2l62.8 208.5 30.8 102.4 4.8 15.3c6.8 22.8 12.4 37 16.9 42.5q2.3 2.8 6.1 5.2 1.6-2.7 2.7-5.9 5.4-15.1 5.4-50.6v-108.9h81.6l104.2 141.7q18.1 24.6 39.4 30.3l7.4 2c5-7.3 10.4-12.6 16.3-15.7-41.4-41.6-62.9-94.4-64.3-158.3q-0.1-3.5-0.1-7.1 0-80.2 35.4-136.5c28.1-44.5 67.7-66.7 118.7-66.7q67.9 0 110.6 55.7 42.7 55.6 42.7 144.4c0 3.4 0 6.8-0.1 10.2q-1.7 51.1-19.7 94-19.7 47.2-54.1 72.7zm13.2-34.8q29.5-43.8 29.5-114.7 0-8.7-0.4-17.2c-2.3-51.2-15.3-95.2-38.9-132.1q-39.4-61.4-95.7-61.4-47.6 0-77.3 44.7-29.6 44.8-29.6 116.6 0 16.7 1.3 32.2 6.8 81.3 49.1 131.3c25.2 29.6 53.3 44.4 84.4 44.4q48 0 77.6-43.8z"/><path class="a" d="m372.6 202.4c0.1-2.2 1.8-5.2 5-9l74.3-87.6q55.5-65 75.1-71.5 10.7-3.3 10.5-7.8-0.5-5.5-6.4-5.5c-1.1 0-3.3 0.4-6.7 1.2q-4.4 0.8-18.1 0.8l-16.4 0.3-20-0.7q-11.3 0-20.5-1.1-3.9-0.5-5.9-0.5-6.7 0-6.8 5.7 0.1 5.1 9.9 7 15.7 3.7 15.7 16.7c0 10-7.2 23.3-21.5 39.9l-93.4 109-3.2 3.4-3.5 3.1q-2 0-2-6v-110.9q0-29 3.7-38.8c2.4-6.6 8.2-12.4 17.4-17.5q5.2-2.7 5.2-6.5c0-3.6-1.7-5.3-5.2-5.1-1.2 0-4.7 0.5-10.5 1.5q-4.8 0.3-11.4 0.3l-16.3 0.7-8.1 0.4q-23.8 0-35-1.9-4.6-1-7.8-1-5.9 0-5.9 5.8 0 4.1 5.6 5.8l10.7 2.8c9.4 2.7 15.9 8 19.2 16.1q5 12.1 5 42.5v132.7h81.6l-9.1-12.4q-5.4-7.6-5.2-11.9z"/></svg>