<svg version="1.1"
	 xmlns="http://www.w3.org/2000/svg" xmlns:xlink="http://www.w3.org/1999/xlink" xmlns:a="http://ns.adobe.com/AdobeSVGViewerExtensions/3.0/"
	 x="0px" y="0px" width="521px" height="81px" viewBox="-0.2 -0.5 521 81" enable-background="new -0.2 -0.5 521 81"
	 xml:space="preserve">
<defs>
</defs>
<path fill="#9e9e9e" d="M51.6,0.2C35.3,18.6,19,38.5,3.2,57.3c-0.9,1.1-1.4,2.5-2.1,3.7c-2.5,6.3-0.6,13.8,4.3,18
	c9.1,0.2,17.9,0.4,27.4,0c-0.1-0.8-0.8-1.3-1.2-2c-3.3-4.9-3.3-12.1-0.2-17C47.4,40.2,63.9,20.9,80.7,1.1c0.2-0.2,0.5-0.7,0-0.9
	c-4.2,0.1-8.4,0-12.6-0.1C64.9,0.1,61.8,0,58.8,0C56.4,0,54,0,51.6,0.2"/>
<path fill="#e0e0e0" d="M69.3,17.7l-0.1,1l21.5,26.2c4.2,5.4,9,10.3,12.7,16c2.7,5.7,1.7,13.3-2.3,18.2l0.1,0.4l26.7,0
	c1.7-0.3,2.6-2.1,3.8-3.4c2.9-5.2,3.1-12.4-0.1-17.4C116,39.5,100.1,20,84.3,1l-0.7-0.1L69.3,17.7"/>
<path fill="#9e9e9e" d="M59.3,37.5C55.2,47.1,63.3,54.2,67,62c2.3-5,7.1-9.3,8.5-14.9c2.9-8.5-4-15.3-8.2-21.9
	C64.5,29.2,61.3,33.2,59.3,37.5"/>
<path fill="#e0e0e0" d="M343.3,27.2c-3.5,2-6.8,5.5-10.2,7.9c-4.9,5.3-13.8,0-18.5,5.7c-0.9,0.5-1.7,2.9-3,2c0-2.1,0.5-4.8-1.9-5.7
	c-3.4-0.5-7.2-0.1-10.5,0.3c-1.5,0.2-3,0.5-4,1.6c-1.6,2.8,2.4,3.5,2.7,6c0.8,9.2,0.8,18.1-0.3,26.8c-0.5,1.9-3.1,3.1-2.3,5.4
	c0.2,1.1,1.4,1.3,2.3,1.7c3.8,0.1,7.6,0.5,11.6,0.3c2-0.1,4.4,0,5.5-1.9c1.3-2.3-1.3-3.7-2-5.7c-1-6,0-13.3-0.1-19.8l0.6-1.4
	c2.3-4.3,7.6-3.7,11.8-3.8c1.5,0.4,3.7-0.2,4.7,1.5c0.8,4.1,0.3,8.9,0.1,12.7c0.2,5.5-1.9,11.5,1.5,16.1c4.8,3.5,11.3,2.3,16.9,1.7
	c5.1-3.8-3-5.5-3.6-8.8c-0.6-7.8-0.4-14.5,0.1-22.5c1.8-2.4,5.1-0.6,7.1-2.6c1-1.6,0.7-3.6,0.7-5.6c-0.5-1.7-2-1.7-3.6-1.7
	c-1.2,0-2.4,0-3.2-0.7c-0.8-2.8,0.6-5.6-0.3-8.3c-0.2-0.9-1.1-1.4-2.1-1.4C343.4,27.2,343.3,27.2,343.3,27.2"/>
<path fill="#e0e0e0" d="M160.3,51.1c0.2-4.9,2.2-9.3,3.8-13.7c0.3-0.9,1.3-1.8,2.4-2c3.3,0.3,3,4.1,3.7,6.5c0.3,3,1.8,5.9,1.6,8.9
	c-1,1.3-3.1,1-4.5,1.2C164.7,51.9,162.5,51.9,160.3,51.1 M196.1,26.3c-5.8,2.6,1.7,5.7,0.9,9.4c0.9,10.1,0.8,21.9,0.4,31.6
	c-0.3,2.1-0.1,4.5-1.5,6.2c-0.6,0.4-1.3,0.8-2.1,0.5c-1.4-0.6-1.9-2.3-2.5-3.6c-4.2-14.9-7.6-30.1-11.9-44.9
	c-0.5-1.1-1.4-2.3-2.5-2.8l-5-0.7c-1.2,0-2.5-0.1-3.9-0.2c-3.3-0.2-6.7-0.4-9.5,0.9c-0.9,0.7-0.9,1.8-0.8,3c2.3,2.5,0.2,5.9-0.4,8.6
	c-3.8,9.5-6.9,19.1-10.8,28.5c-1.4,4.7-3.8,8.9-4.6,13.7c0.8,3.7,5.3,2.8,8.4,3.2c1.8-0.2,4,0.1,5-1.7c1.2-2.9-3.4-4.2-1.6-7.5
	c1.4-4.9,2.7-9.7,4.5-14.5l0.8-0.1l3.8,3.5c1.9,1,4.2,0.9,6.5,0.9c1.7,0,3.4,0,4.9,0.3c1.4,2.2,1.4,5.3,2.2,7.9
	c2.4,3.7-2.4,6-1.1,9.5c1,1.5,3.1,1.5,4.9,1.8l23.1-0.2c3.7-0.1,7.8,0.2,10.9-1.2c2.7-3.4-2.8-5-2.3-8.3
	c-0.7-14.4,0.1-30.4,0.6-45.8l-0.3-1.6c-0.5-1.4-2-1.4-3.1-1.5C204.3,22.5,200.2,24.7,196.1,26.3"/>
<path fill="#e0e0e0" d="M357.2,38.4c-5.4,2.8-4.8,9.1-4.6,14.3c0.5,5.5,5.7,8.4,10.4,9.9c3.6,1.8,8.9,2.3,10.3,6.6
	c0,1.2-0.2,2.4-1.2,3.2c-3.8,1.5-8.4,0.6-11.6-1.5c-3.3-1.3-2.8-6.6-7.1-6.1c-3,1.7-1.6,6.6-1.3,9.7c0.2,5.3,6.2,4.2,9.7,5.4
	c6.8,0.4,14.9,1.1,20-3.6c3-3.1,3.7-8.2,3.4-12.4c-1.1-10.7-12.9-8.9-19-14.4c-1-1.3-1.9-2.9-1.1-4.5c1.3-2.3,4.1-2.1,6.5-2.2
	c0.7,0.9,2,0.5,2.7,1.5c1.8,2.3-1.1,4.1-1.2,6.5c0.3,1.1,1.5,1.5,2.6,1.7c2.9,0.6,4.6-2,6.1-3.9c1.5-2.6,3.2-6.4,1.2-9.2l-1-0.7
	c-3.9-1.8-8.4-2.7-12.8-2.7C365.2,35.9,361,36.7,357.2,38.4"/>
<path fill="#e0e0e0" d="M479.5,39.5c-4.1,4.3-2.6,11.5-1.6,16.6c3.1,5,8.8,6.1,13.8,7.8c2.5,1.1,6.2,1.5,6.8,4.7
	c-0.2,1.2-0.4,2.5-1.7,3.1c-2.9,1.4-6.7,0.7-9.8-0.1c-3.2-1-4.8-4.3-7-6.4c-0.8-0.1-1.3-0.1-2.1,0c-2.8,1.7-1,5.4-1.5,8.2l-0.3,0.3
	c-1.1-0.5-1.9-1.1-2.7-2c-3.3-8.8-5-18.4-7.8-27.6c-0.6-2.4-1.5-4.7-3.1-6.8c-2.2-2.4-6.3-1.6-9-0.6c-2.8,1.1-5.3,3.1-8.2,4
	c-1.1-0.6-0.5-2-1-3c-2-2.3-5.6-1-8.5-0.9c-2.5,0.5-5.2,0.5-7.1,2.5c-1.6,2.6,2.1,4.2,2.3,6.7c0.7,7.7,1,16.9,0.4,25.1
	c-0.5,1.9-2.5,3.2-2.3,5.3c0.4,2.4,3,2.4,4.9,2.8c1.1-0.1,2.3,0,3.6,0c3.7,0.1,7.7,0.2,10.2-2.2c0.9-2.3-1.4-3.5-2.2-5.3
	c-1.1-6.3-0.9-13.4-0.8-19.6c-0.2-1.5,0.1-2.7,0.9-3.7c0.7-0.8,1.8-0.8,2.8-0.8c0.1,0,0.2,0,0.3,0c1.4,0.6,2.4,1.7,2.9,3
	c2.6,8.2,4.3,17.2,6.6,25.7c0.5,1.5,2.1,2.4,3.6,2.9c4.7,0.3,9.3,0.5,13.7-0.9c0.8-0.3,1-1.4,1.8-1.4c3.9,3.1,9.2,3,14.2,2.9
	c1.5,0,3.1-0.1,4.5,0c3.4-0.4,7.1-0.4,9.8-2.5c4.8-3,5.6-8.5,5.2-13.9c-1-8.6-10.7-9-16.6-11.7c-2-1.1-4.5-2.8-4.2-5.4
	c0.3-1,0.3-2,1.2-2.7c1.6-1.3,4.1-1.2,6.1-0.7c1,0.6,1.4,1.6,1.6,2.7c0.4,2-1.8,3.2-1.4,5.5c0,0.6,0.7,1,1.1,1.3
	c2.6,0.9,4.8-0.4,6.7-1.9c2.3-2.6,3.2-6.5,2.5-10.1c-2.4-4-7.3-3.9-11.4-4.4c-1,0-2.1-0.1-3.2-0.1C488.6,35.6,483.3,36.2,479.5,39.5
	"/>
<path fill="#e0e0e0" d="M404.6,71.9c-2.4-2.7-2.9-6.2-3.2-9.9c0-5.6-1.6-12.9,1.2-18.2c1.8-1.4,5.2-1.6,7.4-0.5
	c3.2,3.8,2.8,9.4,3.5,14.1c-0.1,4.4,1.4,9.6-0.7,13.7c-0.4,0.5-1.1,0.7-1.3,1.4v-0.2c-1.1,0.2-2.4,0.5-3.7,0.5
	C406.6,72.9,405.5,72.7,404.6,71.9 M394.1,37.9c-5.9,3.6-6.4,10.6-6.9,17.1c0,8.8-0.3,20.2,9,24c7.1,2.2,15.8,1.8,23-0.1
	c4.2-1.1,7.1-5.5,7.7-9.7c0.5-8.7-0.4-17.4-2.8-25.5c-1-3-3.6-5.6-6.7-6.5c-3.7-0.7-8-1.3-12.2-1.3
	C401.3,35.9,397.4,36.4,394.1,37.9"/>
<path fill="#e0e0e0" d="M233.1,72.3c-2.1-3.1-1.3-7.5-1.5-11.3c0.3-3.9-0.4-8.1,0.9-12.2c0.7-1.1,1.9-1.4,3.1-1.6
	c3.7,1.2,3.8,5.5,4.9,8.6c0.7,4.7,2.4,9.8,0.9,14.5c-0.8,1.4-2.1,2.3-3.7,2.8c-0.4,0.1-0.9,0.2-1.3,0.2
	C235.3,73.3,234.1,72.9,233.1,72.3 M229.9,22.7c-4.5,1.9-8.8,4-13,6.9c-3.4,3,2.4,4,1.8,7c0.7,12.1,0.7,23.7-0.3,35.9
	c-0.7,1.4-1.6,2.8-1.6,4.6c0.4,1.3,1.6,1.9,2.8,2.2c6.9,0.5,14.3,0.6,21.4,0.1c3.2-0.7,6.6-0.5,9.3-2.6c6.3-5.6,5-14.6,3.9-22
	c-1.8-5.8-2.7-12.3-7.5-16.9c-4.9-3.3-9.5,1-13.8,2.5l-0.6-0.6c0.1-5.3,0.9-11.2,0.1-16.5c-0.6-0.5-1.2-0.7-2-0.7
	C230.2,22.7,230.1,22.7,229.9,22.7"/>
<path fill="#9e9e9e" d="M42.7,52c-1.1,0-2.2,0-3.3,0l-0.3,0.2c-0.4,3.3-0.1,6.8,1.4,9.8c3.4,6.7,10.4,9.7,17.8,8.9
	c4,0.6,7.5,3.5,8.4,7.4c1.2-2.1,2.6-5.2,5.3-6.3c5.1-2.2,11.9-0.1,16.2-3.8c5.4-3.4,8.1-9.9,6.7-16c-1.4,0-2.9,0-4.3-0.1
	C85.4,52,80,51.8,76,54.7c-4.5,2.6-7.4,7-9,11.7c-1.5-4.1-4-8.4-7.7-10.9c-3.8-3-8.7-3.4-13.7-3.4C44.7,52,43.7,52,42.7,52"/>
<path fill="#e0e0e0" d="M274.8,72.9c-2.1-1.8-3.3-4.5-3-7.4c3-1.9,6.7-2.2,10.1-3.2c1.3-0.2,3.1,0.1,3.4,1.7c0.4,3.6-0.9,7.3-4,9.2
	c-1.1,0.3-2.3,0.6-3.4,0.6C276.8,73.7,275.8,73.5,274.8,72.9 M271.4,51.6c0.4-3.1,0.1-7.1,3.3-8.6c1.5-0.4,3.4-0.4,4.6,0.7
	c1.9,3.1,2.5,7.4,1.5,11.3c-1.6,2.5-5.1,2.6-7.9,2.8C270.6,56.5,271.6,53.7,271.4,51.6 M261,42.5c-3.7,9.4-3.8,21.9-0.8,31.4
	c1.1,2.7,4,3.9,6.4,4.9c6.5,1.4,13.5,2,19.5-0.8c4.3-2.3,7.1-6.9,6.8-11.7c-0.1-3.1-3.2-3.8-5.2-5.3v-0.4c1.8-1,4.2-1.2,5.1-3.4
	c1.3-5.4-0.1-10.8-2.6-15.4c-1.5-2.1-3.2-3.8-5.6-4.5c-3.1-0.5-6.7-1.1-10.3-1.1C269,36.3,263.8,37.6,261,42.5"/>
<path fill="#e0e0e0" d="M513.7,33.1l1.7,0c0.7,0,1.6,0.1,1.6,1c0,1.1-1.1,1.1-1.9,1.1c-0.1,0-0.2,0-0.2,0l-1.1,0L513.7,33.1
	 M515.6,32.5l-2.6,0l0,6l0.7,0l0-2.8l1.3,0l1.7,2.8l0.9,0l-1.8-2.8c1.1,0,1.9-0.5,1.9-1.7c0-0.5-0.2-1-0.7-1.3
	c-0.4-0.2-0.9-0.3-1.3-0.3C515.7,32.5,515.7,32.5,515.6,32.5 M510.3,35.6c0-2.6,2.1-4.7,4.7-4.8c2.6,0,4.8,2.1,4.8,4.7
	c0,2.6-2.1,4.8-4.7,4.8c0,0,0,0,0,0C512.4,40.3,510.3,38.2,510.3,35.6 M515,30.1c-3,0-5.4,2.5-5.4,5.4c0,3,2.5,5.4,5.4,5.4
	c3,0,5.4-2.5,5.3-5.4C520.4,32.5,518,30.1,515,30.1C515,30.1,515,30.1,515,30.1"/>
</svg>
