<svg width="249" height="42" viewBox="0 0 249 42" fill="none" xmlns="http://www.w3.org/2000/svg">
<mask id="mask0_14789_203411" style="mask-type:luminance" maskUnits="userSpaceOnUse" x="1" y="2" width="247" height="39">
<path d="M1 41H247.939V2H1V41Z" fill="white"/>
</mask>
<g mask="url(#mask0_14789_203411)">
<path d="M164.644 15.5349C165.038 16.7751 164.378 18.1138 164.771 19.4513C165.685 20.2528 167.537 19.1409 167.976 20.5694C167.985 21.4769 168.137 22.4304 167.665 23.1983C166.718 24.1107 165.136 23.2656 164.287 24.4173C164.027 28.1917 163.958 31.3902 164.224 35.0611C164.523 36.6366 168.348 37.4655 165.929 39.2505C163.262 39.5559 160.16 40.1056 157.902 38.4515C156.264 36.2714 157.291 33.4469 157.174 30.8218C157.255 29.0119 157.525 26.7632 157.129 24.8112C156.691 24.001 155.644 24.2964 154.926 24.1107C152.969 24.173 150.436 23.9063 149.356 25.9206L149.072 26.5912C149.1 29.6451 148.65 33.0854 149.1 35.9473C149.396 36.9021 150.643 37.5565 150.029 38.6584C149.509 39.5222 148.366 39.4848 147.413 39.5409C145.503 39.6506 143.735 39.425 141.922 39.3926C141.489 39.2044 140.915 39.1121 140.816 38.5911C140.423 37.4942 141.662 36.9607 141.894 36.0533C142.433 31.9424 142.403 27.6918 142.033 23.3541C141.925 22.1599 140.015 21.8408 140.77 20.4984C141.242 19.9711 141.957 19.8215 142.672 19.7193C144.246 19.5161 146.013 19.3616 147.636 19.5859C148.735 20.006 148.507 21.2974 148.517 22.2995C149.139 22.7221 149.513 21.5741 149.939 21.3348C152.16 18.6423 156.382 21.1403 158.702 18.6374C160.316 17.4794 161.878 15.844 163.54 14.878C164.016 14.8256 164.545 15.0624 164.644 15.5349Z" fill="url(#paint0_linear_14789_203411)"/>
<path d="M39.1882 2.11534C39.4276 2.20634 39.2855 2.44815 39.192 2.54413C31.2456 11.9165 23.4414 21.047 15.8303 30.4156C14.3694 32.7652 14.3969 36.1556 15.9438 38.4803C16.1357 38.8132 16.4723 39.0475 16.5234 39.4289C12.036 39.6097 7.83661 39.5473 3.53997 39.4414C1.23148 37.4532 0.345223 33.8796 1.51443 30.9092C1.84475 30.3333 2.07659 29.6652 2.50289 29.1379C10.0217 20.2455 17.7287 10.8295 25.4382 2.0792C29.8296 1.85358 34.5575 2.19886 39.1882 2.11534Z" fill="url(#paint1_linear_14789_203411)"/>
<path d="M40.9002 2.48141C48.3704 11.4923 55.9365 20.6938 63.3145 29.8019C64.8601 32.1752 64.743 35.6105 63.3781 38.0561C62.8109 38.6358 62.3871 39.4996 61.5756 39.6454L48.9276 39.6504L48.8789 39.4609C50.7699 37.1562 51.2173 33.5713 49.9547 30.8602C48.1684 28.154 45.9061 25.8331 43.9291 23.2703L33.7578 10.8441L33.8014 10.3679L40.5649 2.43654L40.9002 2.48141Z" fill="url(#paint2_linear_14789_203411)"/>
<path d="M36.7703 24.33C36.0747 26.9601 33.7999 29.0317 32.7204 31.3813C30.9728 27.6681 27.1262 24.3113 29.0483 19.7616C30.0342 17.7012 31.5462 15.8252 32.87 13.9555C34.8507 17.0879 38.1214 20.3113 36.7703 24.33Z" fill="url(#paint3_linear_14789_203411)"/>
<path d="M79.8418 18.737C79.317 18.8379 78.8446 19.2692 78.705 19.703C77.9559 21.8058 76.9711 23.8675 76.8939 26.2084C77.9471 26.5799 78.9967 26.5712 80.1896 26.6135C80.8577 26.5113 81.8611 26.6472 82.3348 26.0227C82.4183 24.6354 81.7402 23.2567 81.5844 21.8258C81.2404 20.6852 81.4186 18.8679 79.8418 18.737ZM84.6645 12.7314C85.1892 12.967 85.6255 13.5366 85.8673 14.0589C87.9265 21.0604 89.5594 28.2552 91.5251 35.304C91.8155 35.921 92.0611 36.7338 92.7317 37.0142C93.1144 37.1526 93.4484 36.9606 93.7314 36.7674C94.3958 35.9996 94.2898 34.8528 94.4257 33.8494C94.6264 29.2673 94.6787 23.6805 94.2599 18.9102C94.6264 17.1888 91.0826 15.6906 93.8411 14.4715C95.7931 13.6962 97.7413 12.6778 99.8379 12.0882C100.363 12.1319 101.079 12.1256 101.324 12.7925L101.473 13.5541C101.197 20.8124 100.826 28.4035 101.167 35.228C100.941 36.8036 103.523 37.5514 102.249 39.1806C100.773 39.8624 98.8644 39.6842 97.0982 39.7478L86.1665 39.8325C85.3563 39.6967 84.3503 39.7029 83.8679 38.9924C83.2821 37.3283 85.5657 36.2588 84.4052 34.5013C84.0138 33.2623 84.0499 31.7852 83.3743 30.7394C81.6517 30.3243 79.509 30.96 77.9758 30.161L76.1958 28.5045L75.8144 28.5568C74.9718 30.8055 74.3224 33.1015 73.6717 35.4C72.8266 36.9781 74.978 37.5851 74.4158 38.9737C73.9459 39.7852 72.8939 39.6518 72.0375 39.7552C70.5555 39.5757 68.4576 40.022 68.0625 38.2595C68.4738 35.9647 69.6032 33.9516 70.2551 31.7503C72.0799 27.2966 73.5732 22.7507 75.3507 18.2496C75.676 17.0044 76.6657 15.374 75.5576 14.1898C75.5053 13.6189 75.5003 13.0892 75.9278 12.7526C77.7838 11.8788 80.222 12.4335 82.2737 12.4173L84.6645 12.7314Z" fill="url(#paint4_linear_14789_203411)"/>
<path d="M182.489 20.5989C183.41 21.9276 182.61 23.6989 181.905 24.9454C181.197 25.8578 180.395 27.0594 179.005 26.7827C178.482 26.6904 177.906 26.5035 177.76 25.9812C177.799 24.8818 179.176 24.0117 178.309 22.9211C177.971 22.4474 177.349 22.6431 177.016 22.2156C175.867 22.2255 174.53 22.1408 173.918 23.2414C173.496 24.008 173.932 24.7709 174.412 25.3866C177.299 27.9905 182.876 27.1367 183.392 32.1899C183.504 34.1943 183.19 36.6287 181.773 38.0721C179.352 40.2909 175.485 39.983 172.283 39.7723C170.609 39.2114 167.797 39.7599 167.678 37.2282C167.573 35.7499 166.889 33.4676 168.312 32.6424C170.365 32.3894 170.099 34.9197 171.678 35.5305C173.213 36.5177 175.366 36.9777 177.173 36.251C177.648 35.8621 177.739 35.29 177.736 34.7166C177.051 32.7185 174.565 32.4505 172.839 31.6066C170.636 30.9061 168.146 29.5437 167.934 26.9173C167.865 24.4842 167.558 21.4789 170.124 20.1713C173.837 18.5671 178.371 18.6257 182.009 20.2648L182.489 20.5989Z" fill="url(#paint5_linear_14789_203411)"/>
<path d="M220.047 19.6788C220.816 20.676 221.208 21.7692 221.503 22.9135C222.826 27.2475 223.624 31.776 225.187 35.9642C225.57 36.393 225.956 36.6709 226.482 36.9078L226.624 36.7669C226.852 35.4245 225.977 33.7143 227.307 32.8904C227.689 32.8405 227.928 32.838 228.313 32.8829C229.369 33.8788 230.097 35.4469 231.629 35.9156C233.066 36.2845 234.88 36.651 236.261 35.9704C236.879 35.6787 236.969 35.0592 237.057 34.4859C236.762 32.9602 235.044 32.7832 233.845 32.2671C231.499 31.4756 228.777 30.9733 227.32 28.5975C226.826 26.1681 226.132 22.734 228.074 20.7134C230.253 18.7876 233.403 18.8113 236.267 18.8823C238.228 19.1528 240.518 19.088 241.679 20.9877C241.98 22.7066 241.565 24.5214 240.475 25.7704C239.578 26.446 238.53 27.0767 237.283 26.6579C237.094 26.5146 236.758 26.3264 236.757 26.0384C236.554 24.9926 237.602 24.4105 237.405 23.4569C237.3 22.9334 237.109 22.456 236.627 22.1718C235.716 21.8926 234.527 21.8565 233.765 22.4822C233.342 22.82 233.344 23.2974 233.207 23.7773C233.071 25.0188 234.222 25.8215 235.181 26.3401C238.006 27.6053 242.592 27.8059 243.052 31.8583C243.214 34.3911 242.854 37.0175 240.578 38.4185C239.295 39.4332 237.576 39.3983 235.957 39.6014C233.041 39.4818 229.562 40.1786 227.113 38.2415C226.732 38.2415 226.639 38.77 226.259 38.9146C224.164 39.5989 222.014 39.473 219.772 39.3496C219.054 39.1166 218.288 38.6927 218.042 37.9785C216.958 33.9785 216.161 29.7355 214.937 25.8315C214.695 25.2108 214.214 24.691 213.542 24.4105C213.018 24.4142 212.447 24.3706 212.067 24.8044C211.689 25.283 211.548 25.8577 211.652 26.5707C211.577 29.5336 211.507 32.8742 212.009 35.8794C212.353 36.7333 213.453 37.2992 213.033 38.3973C211.471 39.938 208.648 39.3397 206.501 39.4531C205.642 39.2674 204.397 39.2786 204.201 38.1343C204.098 37.1808 205.046 36.5525 205.281 35.6438C205.58 31.776 205.402 27.3871 205.089 23.7611C205.03 22.5682 203.258 21.8178 204.017 20.5701C204.909 19.6577 206.201 19.6464 207.392 19.3984C208.727 19.3897 210.442 18.754 211.407 19.8446C211.649 20.3195 211.366 20.9914 211.893 21.2719C213.277 20.8306 214.462 19.9157 215.794 19.3797C217.081 18.9397 218.985 18.542 220.047 19.6788Z" fill="url(#paint6_linear_14789_203411)"/>
<path d="M191.631 22.7696C190.312 25.2613 191.058 28.6916 191.079 31.3653C191.235 33.0843 191.438 34.7533 192.596 36.0334C193.461 36.8362 194.891 36.4884 195.844 36.2927V36.3899C195.937 36.0534 196.272 35.9549 196.46 35.7143C197.446 33.7499 196.76 31.3217 196.793 29.2189C196.438 27.0288 196.608 24.3526 195.113 22.5502C194.107 22.0329 192.483 22.094 191.631 22.7696ZM201.799 22.6886C202.927 26.4991 203.386 30.6499 203.134 34.7558C202.864 36.7614 201.495 38.8231 199.496 39.3641C196.115 40.2515 191.96 40.4286 188.615 39.4052C184.208 37.5778 184.354 32.183 184.372 28.031C184.631 24.9721 184.843 21.6303 187.646 19.9363C190.882 18.4792 195.229 18.969 198.625 19.6122C200.106 20.0273 201.31 21.2601 201.799 22.6886Z" fill="url(#paint7_linear_14789_203411)"/>
<path d="M112.583 24.3493C112.009 24.449 111.439 24.5974 111.106 25.1259C110.502 27.0878 110.806 29.0436 110.676 30.9021C110.785 32.6696 110.373 34.7737 111.387 36.2445C112.009 36.6222 112.775 36.8541 113.586 36.6559C114.347 36.4116 114.965 35.9765 115.341 35.3084C116.037 33.0573 115.256 30.6777 114.904 28.4365C114.37 26.962 114.351 24.909 112.583 24.3493ZM111.013 13.0985C111.414 15.6214 111.007 18.3948 110.979 20.9277C111.028 21.0686 111.174 21.2107 111.268 21.2107C113.314 20.479 115.495 18.4559 117.796 20.0128C120.06 22.1929 120.511 25.2406 121.345 28.0028C121.9 31.5316 122.502 35.7759 119.519 38.4259C118.285 39.4343 116.662 39.3072 115.135 39.6524C111.798 39.8681 108.264 39.8008 105.016 39.5889C104.443 39.4517 103.868 39.1675 103.672 38.5518C103.665 37.6917 104.089 37.0198 104.418 36.3455C104.896 30.5655 104.901 25.0785 104.57 19.3534C104.844 17.9187 102.12 17.4164 103.732 16.019C105.679 14.6666 107.723 13.647 109.865 12.7719C110.294 12.7196 110.676 12.8118 111.013 13.0985Z" fill="url(#paint8_linear_14789_203411)"/>
<path d="M29.0793 28.2579C30.8555 29.4383 32.016 31.4813 32.7489 33.4308C33.4943 31.2283 34.863 29.1192 37.0019 27.9089C39.4214 26.17 42.9115 26.812 45.9667 26.7883C46.6099 29.6465 45.3447 32.759 42.7806 34.3557C40.7426 36.0908 37.5367 35.1111 35.1098 36.1344C33.8246 36.6692 33.1665 38.1064 32.6031 39.1123C32.1593 37.2563 30.5239 35.8839 28.6118 35.6109C25.083 35.9761 21.7773 34.5676 20.1781 31.3841C19.4502 30.0042 19.3417 28.3339 19.5212 26.7584L19.6633 26.6612C22.8618 26.6836 26.4853 26.2261 29.0793 28.2579Z" fill="url(#paint9_linear_14789_203411)"/>
<path d="M134.463 31.4818C132.89 31.9692 131.124 32.0801 129.701 32.9987C129.566 34.3836 130.105 35.6662 131.112 36.5188C132.073 37.0822 133.17 36.9327 134.215 36.6385C135.688 35.7173 136.296 33.9959 136.09 32.2795C135.941 31.5154 135.08 31.3808 134.463 31.4818ZM131.047 22.3413C129.575 23.0692 129.683 24.9315 129.502 26.4123C129.61 27.4132 129.14 28.7545 130.194 29.3179C131.53 29.2144 133.202 29.1995 133.959 28.0003C134.421 26.1817 134.164 24.1312 133.247 22.6591C132.669 22.1394 131.761 22.1456 131.047 22.3413ZM138.442 21.8065C139.653 23.9929 140.296 26.5669 139.692 29.0985C139.272 30.1057 138.128 30.2091 137.272 30.694V30.886C138.233 31.594 139.669 31.9168 139.727 33.3964C139.888 35.6363 138.571 37.8451 136.525 38.9083C133.671 40.2209 130.329 39.9155 127.269 39.2673C126.119 38.8036 124.777 38.239 124.241 36.9563C122.821 32.4827 122.87 26.5594 124.6 22.1082C126.77 18.2703 132.12 19.0855 135.802 19.6788C136.948 20.0054 137.719 20.8094 138.442 21.8065Z" fill="url(#paint10_linear_14789_203411)"/>
<path d="M245.154 19.2181C245.583 19.2157 246.242 19.283 246.241 18.6622C246.235 18.1948 245.824 18.1437 245.45 18.1449L244.58 18.1499L244.591 19.2231L245.154 19.2181ZM246.593 20.8984L246.154 20.9009L245.274 19.5098L244.593 19.5148L244.604 20.9134L244.234 20.9159L244.208 17.8832L245.529 17.8744C245.789 17.8719 246.044 17.8832 246.271 18.0178C246.498 18.1437 246.616 18.4129 246.62 18.666C246.623 19.2643 246.205 19.4899 245.664 19.5061L246.593 20.8984ZM247.61 19.369C247.601 18.0577 246.525 16.9994 245.21 17.0069C243.89 17.0181 242.831 18.0926 242.841 19.4076C242.852 20.7376 243.929 21.7946 245.249 21.7834C246.564 21.7722 247.622 20.699 247.61 19.369ZM242.508 19.4101C242.497 17.9193 243.701 16.694 245.209 16.6803C246.711 16.6703 247.925 17.8744 247.938 19.369C247.946 20.8735 246.753 22.0988 245.251 22.1087C243.743 22.1237 242.523 20.9159 242.508 19.4101Z" fill="url(#paint11_linear_14789_203411)"/>
</g>
<defs>
<linearGradient id="paint0_linear_14789_203411" x1="154.3" y1="39.5889" x2="154.3" y2="14.8708" gradientUnits="userSpaceOnUse">
<stop stop-color="#E4E5E7"/>
<stop offset="1" stop-color="#E4E5E7" stop-opacity="0.7"/>
</linearGradient>
<linearGradient id="paint1_linear_14789_203411" x1="20.1599" y1="39.5435" x2="20.1599" y2="2.00139" gradientUnits="userSpaceOnUse">
<stop stop-color="#E4E5E7"/>
<stop offset="1" stop-color="#E4E5E7" stop-opacity="0.7"/>
</linearGradient>
<linearGradient id="paint2_linear_14789_203411" x1="49.0978" y1="39.6504" x2="49.0978" y2="2.43654" gradientUnits="userSpaceOnUse">
<stop stop-color="#E4E5E7"/>
<stop offset="1" stop-color="#E4E5E7" stop-opacity="0.7"/>
</linearGradient>
<linearGradient id="paint3_linear_14789_203411" x1="32.8058" y1="31.3813" x2="32.8058" y2="13.9555" gradientUnits="userSpaceOnUse">
<stop stop-color="#E4E5E7"/>
<stop offset="1" stop-color="#E4E5E7" stop-opacity="0.7"/>
</linearGradient>
<linearGradient id="paint4_linear_14789_203411" x1="85.3331" y1="39.8325" x2="85.3331" y2="12.0882" gradientUnits="userSpaceOnUse">
<stop stop-color="#E4E5E7"/>
<stop offset="1" stop-color="#E4E5E7" stop-opacity="0.7"/>
</linearGradient>
<linearGradient id="paint5_linear_14789_203411" x1="175.417" y1="39.9185" x2="175.417" y2="19.0011" gradientUnits="userSpaceOnUse">
<stop stop-color="#E4E5E7"/>
<stop offset="1" stop-color="#E4E5E7" stop-opacity="0.7"/>
</linearGradient>
<linearGradient id="paint6_linear_14789_203411" x1="223.457" y1="39.6294" x2="223.457" y2="18.8596" gradientUnits="userSpaceOnUse">
<stop stop-color="#E4E5E7"/>
<stop offset="1" stop-color="#E4E5E7" stop-opacity="0.7"/>
</linearGradient>
<linearGradient id="paint7_linear_14789_203411" x1="193.784" y1="40.1035" x2="193.784" y2="18.9854" gradientUnits="userSpaceOnUse">
<stop stop-color="#E4E5E7"/>
<stop offset="1" stop-color="#E4E5E7" stop-opacity="0.7"/>
</linearGradient>
<linearGradient id="paint8_linear_14789_203411" x1="112.51" y1="39.7847" x2="112.51" y2="12.758" gradientUnits="userSpaceOnUse">
<stop stop-color="#E4E5E7"/>
<stop offset="1" stop-color="#E4E5E7" stop-opacity="0.7"/>
</linearGradient>
<linearGradient id="paint9_linear_14789_203411" x1="32.7888" y1="39.1123" x2="32.7888" y2="26.6319" gradientUnits="userSpaceOnUse">
<stop stop-color="#E4E5E7"/>
<stop offset="1" stop-color="#E4E5E7" stop-opacity="0.7"/>
</linearGradient>
<linearGradient id="paint10_linear_14789_203411" x1="131.578" y1="39.8232" x2="131.578" y2="19.1723" gradientUnits="userSpaceOnUse">
<stop stop-color="#E4E5E7"/>
<stop offset="1" stop-color="#E4E5E7" stop-opacity="0.7"/>
</linearGradient>
<linearGradient id="paint11_linear_14789_203411" x1="245.223" y1="22.1089" x2="245.223" y2="16.6802" gradientUnits="userSpaceOnUse">
<stop stop-color="#E4E5E7"/>
<stop offset="1" stop-color="#E4E5E7" stop-opacity="0.7"/>
</linearGradient>
</defs>
</svg>
