<svg width="76" height="24" viewBox="0 0 76 24" fill="none" xmlns="http://www.w3.org/2000/svg">
<g clip-path="url(#clip0_33744_9306)">
<g clip-path="url(#clip1_33744_9306)">
<path d="M17.1 0.60051V9.90051C17.1 10.0005 17.1 10.1005 17.1 10.2005V10.3005L17 10.5005H19.7C22.6 10.5005 24.9 8.20051 24.9 5.30051C24.9 2.40051 22.6 0.10051 19.7 0.10051H18.4H17L17.1 0.40051C17.1 0.40051 17.1 0.50051 17.1 0.60051ZM19.7 1.20051C22 1.20051 23.8 3.00051 23.8 5.30051C23.8 7.60051 22 9.40051 19.7 9.40051H18.2V1.20051H19.7ZM61.3 0.70051V9.90051C61.3 10.1005 61.2 10.3005 61.1 10.5005H67.1V9.20051C67 9.30051 66.7 9.40051 66.5 9.40051H62.4V5.80051H65.9C66.1 5.80051 66.3 5.90051 66.5 6.00051V4.50051C66.4 4.60051 66.1 4.70051 65.9 4.70051H62.4V1.20051H66.5C66.7 1.20051 66.9 1.30051 67.1 1.40051V0.10051H61.1C61.2 0.30051 61.3 0.50051 61.3 0.70051ZM46.2 8.00051C46.4 8.10051 46.4 8.20051 46.5 8.40051C47.8 11.6005 52.3 11.4005 52.9 7.90051C53.1 6.40051 52.1 4.90051 50.7 4.60051C49.9 4.40051 49.1 4.30051 48.6 3.80051C47.7 3.00051 47.9 1.50051 49.1 1.20051C50.1 0.90051 51 1.30051 51.4 2.00051C51.5 2.20051 51.5 2.40051 51.5 2.50051C51.7 2.40051 52.6 2.00051 52.8 1.90051C52.5 1.70051 52.4 1.50051 52.3 1.30051C51.2 -0.29949 48.9 -0.49949 47.5 1.00051C46.2 2.60051 47.2 4.60051 48.9 5.10051C49.6 5.30051 50.6 5.50051 51.2 6.00051C52.1 6.70051 52.1 8.30051 51.1 9.00051C50 10.0005 48 9.60051 47.6 7.90051C47.6 7.70051 47.6 7.60051 47.6 7.40051C47.3 7.60051 46.6 7.80051 46.2 8.00051ZM40 0.70051V9.90051C40 10.1005 39.9 10.3005 39.8 10.5005H45.8V9.20051C45.7 9.30051 45.4 9.40051 45.2 9.40051H41.1V5.80051H44.6C44.8 5.80051 45 5.90051 45.2 6.00051V4.50051C45.1 4.60051 44.8 4.70051 44.6 4.70051H41.1V1.20051H45.2C45.4 1.20051 45.6 1.30051 45.8 1.40051V0.10051H39.8C39.9 0.30051 40 0.50051 40 0.70051ZM25.9 10.0005C25.9 10.1005 25.9 10.1005 25.9 10.2005V10.3005C25.9 10.4005 25.8 10.5005 25.7 10.6005H27.2C27.1 10.5005 27 10.3005 27 10.1005C27 10.1005 27 10.1005 27 10.0005V1.20051H28.1C29.4 1.20051 30.4 2.20051 30.5 3.50051C30.5 4.80051 29.4 5.90051 28.1 5.90051H27L27.9 7.00051L30 9.80051L30.1 9.90051C30.2 10.1005 30.2 10.3005 30.2 10.4005H31.9L29.2 6.80051C30.7 6.30051 31.8 4.90051 31.7 3.20051C31.6 1.40051 30 0.000509709 28.2 0.000509709H27.2H26L26.1 0.30051C26.1 0.40051 26.1 0.40051 26.1 0.50051C26.1 0.50051 26.1 0.50051 26.1 0.60051L25.9 10.0005C26 9.90051 26 9.90051 25.9 10.0005ZM1.5 9.80051L2.4 7.00051H5.5L6.4 9.80051C6.5 10.1005 6.4 10.3005 6.3 10.5005H8C7.9 10.4005 7.7 10.2005 7.6 10.0005V9.90051V9.80051L4.7 0.70051L4.5 0.10051H3.1C3.2 0.30051 3.3 0.40051 3.2 0.70051C3.2 0.90051 0.4 9.80051 0.4 9.80051V9.90051V10.0005C0.3 10.2005 0.2 10.4005 0 10.5005H1.7C1.6 10.3005 1.4 10.1005 1.5 9.80051ZM2.7 5.80051L3 4.70051L3.9 1.80051L5.1 5.80051H2.7ZM53.6 8.00051C53.8 8.10051 53.8 8.20051 53.9 8.40051C55.2 11.6005 59.7 11.4005 60.3 7.90051C60.5 6.40051 59.5 4.90051 58.1 4.60051C57.3 4.40051 56.5 4.30051 56 3.80051C55.1 3.00051 55.3 1.50051 56.5 1.20051C57.5 0.90051 58.4 1.30051 58.8 2.00051C58.9 2.20051 58.9 2.40051 58.9 2.50051C59.1 2.40051 60 2.00051 60.2 1.90051C59.9 1.70051 59.8 1.50051 59.7 1.30051C58.6 -0.29949 56.3 -0.49949 54.9 1.00051C53.6 2.60051 54.6 4.60051 56.3 5.10051C57 5.40051 58 5.60051 58.6 6.00051C59.5 6.70051 59.5 8.30051 58.5 9.00051C57.4 10.0005 55.4 9.60051 55 7.90051C55 7.70051 55 7.60051 55 7.40051C54.7 7.60051 53.9 7.80051 53.6 8.00051ZM32.9 0.70051V9.90051C32.9 10.1005 32.8 10.3005 32.7 10.5005H38.7V9.20051C38.6 9.30051 38.3 9.40051 38.1 9.40051H34V5.80051H37.5C37.7 5.80051 37.9 5.90051 38.1 6.00051V4.50051C38 4.60051 37.7 4.70051 37.5 4.70051H34V1.20051H38.1C38.3 1.20051 38.5 1.30051 38.7 1.40051V0.10051H32.7C32.8 0.30051 32.9 0.50051 32.9 0.70051ZM57.5 13.5005H56C56.1 13.6005 56.2 13.9005 56.2 14.0005V23.3005C56.2 23.5005 56.1 23.7005 56 23.8005H57.5C57.4 23.7005 57.3 23.4005 57.3 23.3005V14.0005C57.3 13.8005 57.4 13.6005 57.5 13.5005ZM58.5 14.8005C58.6 14.7005 58.8 14.6005 59 14.6005C59 14.6005 59 14.6005 59.1 14.6005C59.1 14.6005 59.1 14.6005 59.2 14.6005H61V23.3005C61 23.5005 60.9 23.7005 60.8 23.8005H62.3C62.2 23.7005 62.1 23.4005 62.1 23.3005V23.2005V14.5005H63.9C63.9 14.5005 63.9 14.5005 64 14.5005C64 14.5005 64 14.5005 64.1 14.5005C64.3 14.5005 64.5 14.6005 64.6 14.7005V13.4005H58.6L58.5 14.8005ZM53.7 14.1005C53.7 14.1005 53.7 14.2005 53.6 14.4005L52.6 17.7005L52.4 18.2005L52.1 19.3005L51.2 22.2005L50.3 19.3005L50 18.2005L49.8 17.7005L49.5 16.6005L48.6 13.5005H47.4C47.5 13.7005 47.6 13.8005 47.5 14.1005C47.5 14.1005 47.5 14.2005 47.4 14.4005L46.4 17.7005L46.2 18.2005L46 19.2005L45.1 22.1005L44.2 19.2005L43.9 18.1005L43.7 17.6005L43.4 16.5005L42.8 14.6005L42.6 14.1005C42.5 13.8005 42.6 13.6005 42.7 13.4005H41C41.1 13.5005 41.3 13.7005 41.4 13.9005C41.4 14.0005 41.4 14.0005 41.5 14.1005L44.2 23.0005C44.2 23.0005 44.2 23.0005 44.2 23.1005C44.3 23.4005 44.2 23.7005 44.1 23.8005H46C45.9 23.7005 45.8 23.4005 45.9 23.0005L48.2 15.6005L50.5 23.0005C50.5 23.0005 50.5 23.0005 50.5 23.1005C50.6 23.4005 50.5 23.7005 50.4 23.8005H52.2C52.1 23.7005 52 23.4005 52.1 23.1005C52.1 23.1005 52.1 23.1005 52.1 23.0005L54.7 14.5005C54.7 14.4005 54.8 14.3005 54.8 14.3005C54.8 14.2005 54.8 14.2005 54.8 14.2005V14.1005V14.0005C54.9 13.8005 55 13.6005 55.2 13.5005H53.6C53.7 13.7005 53.8 13.8005 53.7 14.1005ZM75.5 9.90051V0.70051C75.5 0.70051 75.5 0.70051 75.5 0.60051C75.5 0.40051 75.6 0.30051 75.7 0.10051H74.2C74.3 0.20051 74.4 0.40051 74.4 0.60051V4.00051C73.3 2.40051 71.7 1.00051 69.5 0.10051H68.2C68.3 0.20051 68.4 0.50051 68.4 0.70051V9.90051C68.4 10.1005 68.3 10.3005 68.2 10.5005H69.7C69.6 10.4005 69.5 10.1005 69.5 9.90051V1.40051C72 2.60051 73.7 4.60051 74.3 6.50051V9.90051C74.3 10.1005 74.2 10.3005 74.1 10.5005H75.6C75.6 10.3005 75.5 10.1005 75.5 9.90051ZM12.2 23.5005C12.2 23.4005 12.2 23.3005 12.2 23.2005V14.0005C12.2 14.0005 12.2 14.0005 12.2 13.9005C12.2 13.7005 12.3 13.5005 12.4 13.4005H10.9C11 13.5005 11.1 13.7005 11.1 13.9005C11.1 13.9005 11.1 13.9005 11.1 14.0005V19.2005H6.2V18.0005V14.0005C6.2 14.0005 6.2 14.0005 6.2 13.9005C6.2 13.7005 6.3 13.5005 6.4 13.4005H4.9C5 13.6005 5.1 13.8005 5.1 14.0005C5.1 14.0005 5.1 14.0005 5.1 14.1005V23.3005C5.1 23.4005 5.1 23.5005 5.1 23.6005C5.1 23.7005 5 23.8005 4.9 23.9005H6.4C6.3 23.8005 6.2 23.6005 6.2 23.4005V23.3005V20.4005H11V23.3005V23.4005C11 23.6005 10.9 23.8005 10.8 23.9005H12.3C12.3 23.8005 12.3 23.7005 12.2 23.5005ZM65.3 13.5005L65.7 14.8005V14.9005C65.8 14.8005 66 14.7005 66.2 14.6005C66.2 14.6005 66.2 14.6005 66.3 14.6005H66.4C66.5 14.6005 66.7 14.6005 67 14.6005H69.1L65.1 23.9005H70.8L70.4 22.6005V22.5005C70.3 22.6005 70.1 22.7005 69.9 22.8005H69.8C69.7 22.8005 69.4 22.8005 69.1 22.8005H66.8L70.8 13.5005H65.3ZM36.3 13.4005C33.4 13.4005 31 15.8005 31 18.7005C31 21.6005 33.4 24.0005 36.3 24.0005C39.2 24.0005 41.6 21.6005 41.6 18.7005C41.6 15.8005 39.2 13.4005 36.3 13.4005ZM36.3 22.9005C34 22.9005 32.1 21.0005 32.1 18.7005C32.1 16.4005 34 14.5005 36.3 14.5005C38.6 14.5005 40.5 16.4005 40.5 18.7005C40.5 21.0005 38.6 22.9005 36.3 22.9005ZM14.6 9.90051C14.6 10.1005 14.5 10.3005 14.4 10.5005H15.5H16C15.9 10.4005 15.8 10.1005 15.8 9.90051V0.70051C15.8 0.70051 15.8 0.70051 15.8 0.60051C15.8 0.40051 15.9 0.30051 16 0.10051H14.5C14.6 0.20051 14.7 0.40051 14.7 0.60051V4.00051C13.6 2.40051 12 1.00051 9.8 0.10051H8.5C8.6 0.20051 8.7 0.50051 8.7 0.70051V9.90051C8.7 10.1005 8.6 10.3005 8.5 10.5005H10C9.9 10.4005 9.8 10.1005 9.8 9.90051V1.40051C12.3 2.60051 14 4.60051 14.6 6.50051V9.90051ZM18.4 13.4005C15.5 13.4005 13.2 15.7005 13.2 18.6005C13.2 21.5005 15.5 23.8005 18.4 23.8005C21.3 23.8005 23.6 21.5005 23.6 18.6005C23.6 15.7005 21.2 13.4005 18.4 13.4005ZM18.4 22.7005C16.1 22.7005 14.3 20.9005 14.3 18.6005C14.3 16.3005 16.1 14.5005 18.4 14.5005C20.7 14.5005 22.5 16.3005 22.5 18.6005C22.5 20.9005 20.6 22.7005 18.4 22.7005ZM30.2 16.7005C30.1 14.9005 28.5 13.5005 26.7 13.5005H25.7H24.5L24.6 13.8005C24.6 13.9005 24.6 13.9005 24.6 14.0005C24.6 14.0005 24.6 14.0005 24.6 14.1005V23.3005V23.4005C24.6 23.5005 24.6 23.5005 24.6 23.6005V23.7005C24.6 23.8005 24.5 23.9005 24.4 24.0005H25.9C25.8 23.9005 25.7 23.7005 25.7 23.5005C25.7 23.5005 25.7 23.5005 25.7 23.4005V14.7005H26.8C28.1 14.7005 29.1 15.7005 29.2 17.0005C29.2 18.3005 28.1 19.4005 26.8 19.4005H25.7L26.5 20.5005L28.6 23.3005L28.7 23.4005C28.8 23.6005 28.8 23.8005 28.8 23.9005H30.5L27.8 20.3005C29.3 19.8005 30.4 18.3005 30.2 16.7005Z" fill="currentColor"/>
</g>
</g>
<defs>
<clipPath id="clip0_33744_9306">
<rect width="76" height="24" fill="white"/>
</clipPath>
<clipPath id="clip1_33744_9306">
<rect width="75.8" height="24" fill="white"/>
</clipPath>
</defs>
</svg>
