<svg width="90" height="24" viewBox="0 0 90 24" fill="none" xmlns="http://www.w3.org/2000/svg">
<g clip-path="url(#clip0_20319_13286)">
<mask id="mask0_20319_13286" style="mask-type:luminance" maskUnits="userSpaceOnUse" x="0" y="0" width="92" height="24">
<path d="M91.6721 0H0V23.9303H91.6721V0Z" fill="white"/>
</mask>
<g mask="url(#mask0_20319_13286)">
<path d="M14.804 15.7644L15.6546 0.0429688H14.6833L2.83007 16.1156C2.00374 17.2728 1.22659 17.4036 0.206809 17.4036L0.0605469 17.8619H5.06444L5.23362 17.4036C2.78087 17.4036 3.04711 17.2284 3.84852 16.1156L6.71511 12.1854H13.5159L13.2726 15.7664C13.2005 17.0989 12.9079 17.4036 10.8677 17.4036L10.6972 17.8619H16.5746L16.793 17.4036C14.996 17.4036 14.7278 17.1421 14.802 15.7664L14.8033 15.7651L14.804 15.7644ZM13.5408 11.508H7.22601L13.9776 2.24835H14.1482L13.5402 11.5066V11.508H13.5408Z" fill="white" stroke="white" stroke-width="0.087622" stroke-miterlimit="10"/>
<path d="M38.536 3.66151C38.0743 3.66151 37.7925 4.05513 37.7346 4.42449C37.618 5.16186 38.1411 5.84464 37.9227 7.21155C37.5331 9.65687 34.8734 13.707 31.2492 17.8623C32.3479 13.5486 33.7343 9.26256 34.0869 7.05316C34.444 4.6604 33.9763 3.73026 32.9316 3.73026C31.6435 3.73026 29.9558 9.12438 28.8524 11.3325C28.8524 11.3325 26.341 17.0205 25.4689 17.0205C25.0793 17.0205 24.9829 16.7576 24.9829 16.3633C24.9829 16.0216 25.2013 15.4433 25.3226 15.049C26.6107 11.6553 28.6509 7.47442 28.6509 5.31824C28.6509 4.31935 28.1649 3.68712 27.2658 3.68712C25.6623 3.68712 23.7684 5.76444 21.0972 11.8663H20.9031L22.5066 7.08012C22.797 6.1857 23.0404 5.47663 23.0404 4.92394C23.0404 4.29306 22.725 3.74036 22.0927 3.74036C20.5634 3.74036 18.9107 5.92283 17.9152 8.00016H18.4247C19.2511 6.42295 20.4899 4.71297 21.3142 4.71297C21.5326 4.71297 21.6789 4.81744 21.6789 5.21309C21.6789 5.52853 21.4113 6.39666 21.1929 7.08012L17.7676 17.8631H19.1527C22.7223 8.05406 25.4196 4.89765 26.5614 4.89765C26.974 4.89765 27.1445 5.21309 27.1445 5.87026C27.1445 7.29041 25.3947 11.2347 24.0346 15.022C23.8162 15.601 23.5978 16.1794 23.5978 16.6531C23.5978 17.4425 23.9382 18.0214 24.8858 18.0214C26.5365 18.0214 29.7462 10.4913 29.7462 10.4913C30.7524 8.29807 32.0095 4.94011 32.5157 4.87137C34.0882 4.65433 31.4029 12.0119 30.2874 16.1193C29.7846 17.9735 28.9643 19.7328 27.8259 21.2796C27.3258 21.9597 26.8829 22.414 26.3963 22.414C25.667 22.414 25.5086 21.8876 24.7315 21.8876C24.0756 21.8876 23.4576 22.414 23.3531 23.0711C23.2824 23.5173 23.5641 23.8867 24.2913 23.8867C27.133 23.8867 30.0448 20.704 33.3158 16.6276C36.4931 12.6832 38.687 8.97409 39.1352 6.15941C39.4109 4.42382 39.1689 3.66016 38.5367 3.66016L38.536 3.66151Z" fill="white" stroke="white" stroke-width="0.087622" stroke-miterlimit="10"/>
<path d="M47.0465 4.04305V5.38368H44.3922V14.8799C44.3922 15.4029 44.4629 15.8107 44.6079 16.1066C44.7508 16.4018 45.1093 16.5649 45.6816 16.5993C46.1372 16.5993 46.5908 16.5744 47.0465 16.5238V17.8644C46.8113 17.8644 46.574 17.8719 46.3387 17.8887C46.1035 17.9056 45.8663 17.9137 45.631 17.9137C44.5694 17.9137 43.8274 17.7074 43.4074 17.2949C42.9855 16.8824 42.7847 16.1194 42.8015 15.0066V5.38368H40.5273V4.04305H42.8015V0.125H44.3942V4.04305H47.0485H47.0472H47.0465Z" fill="white" stroke="white" stroke-width="0.087622" stroke-miterlimit="10"/>
<path d="M49.902 0.125V6.29157H49.9526C50.2558 5.49893 50.7944 4.86333 51.5695 4.38343C52.3453 3.90354 53.1959 3.66291 54.122 3.66291C55.0481 3.66291 55.7942 3.78154 56.4103 4.01677C57.0256 4.252 57.5184 4.58631 57.8891 5.01566C58.2598 5.445 58.5213 5.97276 58.6723 6.59623C58.8246 7.21969 58.9001 7.91998 58.9001 8.6938V17.8617H57.3074V8.94584C57.3074 8.39046 57.2568 7.87143 57.1551 7.39156C57.0533 6.91166 56.8767 6.49445 56.6239 6.14059C56.3719 5.78673 56.0301 5.50837 55.6008 5.30616C55.1714 5.10463 54.6363 5.00285 53.996 5.00285C53.3557 5.00285 52.7868 5.11676 52.2894 5.34458C51.7926 5.57239 51.3707 5.88446 51.0263 6.28011C50.6798 6.67576 50.4108 7.14824 50.2168 7.69554C50.0227 8.24355 49.9168 8.83733 49.9013 9.47762V17.8624H48.3086V0.125H49.9013H49.902Z" fill="white" stroke="white" stroke-width="0.087622" stroke-miterlimit="10"/>
<path d="M62.5121 4.04188V17.8619H60.9194V4.04188H62.5121ZM62.595 1.47658C62.595 0.991957 62.2014 0.597656 61.7168 0.597656C61.2322 0.597656 60.8379 0.991957 60.8379 1.47658C60.8379 1.96119 61.2315 2.35549 61.7168 2.35549C62.2021 2.35549 62.595 1.96119 62.595 1.47658Z" fill="white" stroke="white" stroke-width="0.087622" stroke-miterlimit="10"/>
<path d="M66.1266 4.04286V6.29272H66.1771C66.4804 5.50009 67.019 4.86449 67.7941 4.38459C68.5698 3.90469 69.4205 3.66406 70.3466 3.66406C71.2726 3.66406 72.0195 3.78269 72.6348 4.01792C73.2502 4.25316 73.7423 4.58746 74.1136 5.01681C74.4843 5.44616 74.7459 5.97392 74.8969 6.59738C75.0491 7.22085 75.124 7.92112 75.124 8.69494V17.8629H73.5319V8.94698C73.5319 8.3916 73.4807 7.87265 73.3796 7.39272C73.2779 6.91282 73.1013 6.49561 72.8485 6.14174C72.5964 5.78789 72.2547 5.50952 71.8253 5.30799C71.396 5.10645 70.8609 5.00468 70.2205 5.00468C69.5802 5.00468 69.0114 5.11859 68.5139 5.34641C68.0171 5.57423 67.5959 5.8863 67.2508 6.28194C66.9044 6.67759 66.6354 7.15007 66.4413 7.69805C66.2472 8.24602 66.1414 8.83981 66.1259 9.48018V17.8649H64.5332V4.04286H66.1259H66.1266Z" fill="white" stroke="white" stroke-width="0.087622" stroke-miterlimit="10"/>
<path d="M87.8247 18.9084C87.6138 19.6909 87.2818 20.3535 86.8262 20.8968C86.3706 21.44 85.7765 21.8572 85.0447 22.1464C84.3121 22.4349 83.4142 22.5798 82.3527 22.5798C81.6957 22.5798 81.0559 22.5036 80.4327 22.3499C79.8095 22.1963 79.25 21.959 78.7527 21.6362C78.2557 21.3133 77.8432 20.9002 77.5143 20.3994C77.1847 19.8979 76.9953 19.2987 76.9448 18.6017H78.5374C78.6217 19.0938 78.785 19.5063 79.0297 19.8386C79.2744 20.1709 79.5679 20.4378 79.9142 20.6406C80.2588 20.8442 80.6436 20.9932 81.0638 21.0862C81.4848 21.1792 81.9144 21.2257 82.3527 21.2257C83.8344 21.2257 84.9054 20.8004 85.5624 19.9511C86.2203 19.1005 86.5492 18.5127 86.5492 16.9161V15.1313H86.498C86.1274 15.9475 85.5845 16.6012 84.8684 17.0946C84.1523 17.588 83.3151 17.8333 82.3543 17.8333C81.3093 17.8333 80.417 17.6594 79.6757 17.3103C78.9345 16.9626 78.3231 16.4813 77.8432 15.87C77.3633 15.2587 77.0142 14.5394 76.7938 13.7158C76.5754 12.8915 76.4648 11.3763 76.4648 10.4414C76.4648 9.50661 76.5956 8.68762 76.8571 7.87886C77.1187 7.07204 77.4968 6.36567 77.9942 5.76309C78.4909 5.15918 79.106 4.68468 79.8386 4.33553C80.5712 3.98774 81.41 3.8125 82.3527 3.8125C82.8414 3.8125 83.3009 3.88057 83.7298 4.01605C84.1594 4.15288 84.5521 4.34362 84.9054 4.59031C85.2595 4.837 85.575 5.12144 85.8536 5.44429C86.1321 5.76714 86.3462 6.10684 86.498 6.46407H86.5492V3.81317H88.1418V16.9154C88.1418 17.8839 88.0356 18.1239 87.8263 18.9057L87.8247 18.9091V18.9084ZM84.1736 16.0392C84.6945 15.7413 85.1336 15.3517 85.4869 14.8657C85.841 14.3818 86.1062 13.8243 86.2824 13.1954C86.4595 12.5666 86.5476 11.2853 86.5476 10.6227C86.5476 9.96017 86.4721 9.33137 86.3194 8.68565C86.1675 8.03993 85.9236 7.45353 85.5876 6.92713C85.2508 6.40071 84.8165 5.97541 84.2853 5.65256C83.7549 5.32971 83.1097 5.16862 82.3519 5.16862C81.5934 5.16862 80.945 5.32566 80.4052 5.64043C79.8654 5.95519 79.4192 6.36701 79.0651 6.87724C78.711 7.38748 78.4539 7.96982 78.2941 8.62364C78.1337 9.2788 78.0542 9.946 78.0542 10.6241C78.0542 11.3021 78.1384 12.568 78.3062 13.1968C78.4741 13.8257 78.7354 14.3824 79.0895 14.867C79.4436 15.351 79.8898 15.7426 80.4296 16.0405C80.9678 16.3384 81.6083 16.486 82.3496 16.486C83.0405 16.486 83.6471 16.3371 84.1704 16.0405L84.1736 16.0392Z" fill="white" stroke="white" stroke-width="0.087622" stroke-miterlimit="10"/>
</g>
</g>
<defs>
<clipPath id="clip0_20319_13286">
<rect width="90" height="24" fill="white"/>
</clipPath>
</defs>
</svg>
