<svg width="83" height="24" viewBox="0 0 83 24" fill="none" xmlns="http://www.w3.org/2000/svg">
<g clip-path="url(#clip0_1926_5589)">
<path fill-rule="evenodd" clip-rule="evenodd" d="M25.6016 17.106H28.993C31.0424 17.106 32.4855 15.9082 32.4855 14.2052C32.4855 12.9352 31.5619 11.9971 30.2053 11.8095C31.2733 11.593 32.0526 10.7415 32.0526 9.70243C32.0526 7.95617 30.6527 6.85938 28.4158 6.85938H25.6016V17.106ZM26.8715 15.8649V12.5166H28.993C30.263 12.5166 31.1578 13.1661 31.1578 14.2052C31.1578 15.2298 30.263 15.8649 28.993 15.8649H26.8715ZM26.8715 11.2755V8.10048H28.4158C29.83 8.10048 30.7248 8.72107 30.7248 9.70243C30.7248 10.6694 29.83 11.2755 28.4158 11.2755H26.8715ZM35.2207 15.0684C35.2207 14.119 35.9127 14.0022 36.8288 13.8476C36.9711 13.8236 37.1188 13.7987 37.2701 13.7696L39.0596 13.4376V13.9427C39.0596 15.357 38.0782 16.1796 36.8371 16.2374C35.7259 16.2951 35.2207 15.6601 35.2207 15.0684ZM33.9219 15.0684C33.9219 16.4395 35.163 17.2476 36.6784 17.2764C37.8762 17.2476 38.771 16.6271 39.1029 15.9343L39.1462 17.1033H40.2719V12.4851C40.2719 10.3492 39.0307 9.28125 37.1834 9.28125C35.596 9.28125 34.3548 10.2482 34.0518 11.7057L35.394 11.8068C35.5816 11.0275 36.2598 10.4646 37.1834 10.4646C38.2947 10.4646 39.0163 11.0852 39.0307 12.3552L36.8082 12.7593C35.1197 13.0624 33.9219 13.452 33.9219 15.0684ZM48.1384 11.7346L46.8972 11.8213C46.7241 10.9698 45.9015 10.4646 44.9345 10.4646C44.1552 10.4646 43.4192 10.8543 43.4192 11.6336C43.4192 12.3948 44.2427 12.607 44.9997 12.802L44.9998 12.8021L44.9998 12.8021L44.9999 12.8021C45.0753 12.8215 45.15 12.8408 45.2231 12.8604C46.6519 13.2211 48.1817 13.683 48.1817 15.155C48.1817 16.6559 46.6952 17.2764 45.1943 17.2764C43.4336 17.2764 41.9904 16.2806 41.875 14.6932L43.1594 14.6066C43.3181 15.5158 44.1408 16.0931 45.1943 16.0931C46.0025 16.0931 46.8828 15.891 46.8828 15.0828C46.8828 14.3449 46.0529 14.1678 45.3026 14.0077L45.3026 14.0077C45.2018 13.9862 45.1024 13.965 45.0067 13.9427C43.6213 13.6107 42.1203 13.1201 42.1203 11.7057C42.1203 10.1472 43.5057 9.28125 45.0644 9.28125C46.6664 9.28125 47.893 10.2482 48.1384 11.7346ZM52.8351 17.2764C54.3072 17.2764 55.606 16.3817 56.0534 14.9385L54.7256 14.8375C54.3793 15.6313 53.6433 16.0931 52.8351 16.0931C51.5362 16.0931 50.7569 15.1983 50.6415 13.6686H56.1689V13.1345L56.1544 13.1057C56.0246 10.3636 54.5092 9.28125 52.8351 9.28125C50.7136 9.28125 49.3281 10.8398 49.3281 13.2788C49.3281 15.7179 50.7136 17.2764 52.8351 17.2764ZM50.6703 12.5717C50.8724 11.244 51.6373 10.4646 52.8351 10.4646C53.7443 10.4646 54.5958 10.9842 54.8122 12.5717H50.6703ZM58.9497 17.106H57.6797V6.85938H58.9497V11.3333H63.6257V6.85938H64.8956V17.106H63.6257V12.5744H58.9497V17.106ZM72.9178 17.1098V9.46094H71.6766V14.0214C71.6766 15.4357 70.8828 16.1862 69.7138 16.1862C68.617 16.1862 68.1552 15.4357 68.1552 14.0214V9.46094H66.9141V14.3822C66.9141 15.9986 67.7511 17.283 69.4541 17.283C70.4499 17.283 71.3302 16.8356 71.7343 15.8543V17.1098H72.9178ZM74.8359 17.106V6.85938H76.0771V10.4385C76.51 9.688 77.2894 9.28395 78.415 9.28395C80.6376 9.28395 81.6481 11.1889 81.6481 13.2815C81.6481 15.3741 80.6376 17.2791 78.415 17.2791C77.2317 17.2791 76.4235 16.8174 76.005 16.038L75.9617 17.106H74.8359ZM78.1553 10.4096C76.5822 10.4096 75.9617 11.8095 75.9617 13.2815C75.9617 14.6959 76.5822 16.0957 78.1553 16.0957C79.7428 16.0957 80.3489 14.7103 80.3489 13.2815C80.3489 11.795 79.7428 10.4096 78.1553 10.4096Z" fill="#E4E5E7"/>
<mask id="mask0_1926_5589" style="mask-type:luminance" maskUnits="userSpaceOnUse" x="0" y="0" width="19" height="24">
<path d="M14.7751 0H3.84509C1.73445 0 0.0234375 1.71101 0.0234375 3.82166V20.1783C0.0234375 22.289 1.73445 24 3.84509 24H14.7751C16.8857 24 18.5967 22.289 18.5967 20.1783V3.82166C18.5967 1.71101 16.8857 0 14.7751 0Z" fill="white"/>
</mask>
<g mask="url(#mask0_1926_5589)">
<path d="M14.7829 -0.0078125H3.85291C1.74226 -0.0078125 0.03125 1.7032 0.03125 3.81384V20.1705C0.03125 22.2812 1.74226 23.9922 3.85291 23.9922H14.7829C16.8935 23.9922 18.6045 22.2812 18.6045 20.1705V3.81384C18.6045 1.7032 16.8935 -0.0078125 14.7829 -0.0078125Z" fill="black"/>
<path d="M32.3312 3.79391L6.60156 29.5234L7.97016 30.892L33.6998 5.16251L32.3312 3.79391Z" fill="#E4E5E7"/>
<path opacity="0.5" d="M32.3312 1.07516L6.60156 26.8047L7.97016 28.1733L33.6998 2.44376L32.3312 1.07516Z" fill="#E4E5E7"/>
<path opacity="0.4" d="M29.6281 1.07516L3.89844 26.8047L5.26704 28.1733L30.9967 2.44376L29.6281 1.07516Z" fill="#E4E5E7"/>
<path opacity="0.35" d="M26.9249 1.07516L1.19531 26.8047L2.56391 28.1733L28.2936 2.44376L26.9249 1.07516Z" fill="#E4E5E7"/>
<path opacity="0.3" d="M26.1359 -0.854527L0.40625 24.875L1.77485 26.2436L27.5045 0.514068L26.1359 -0.854527Z" fill="#E4E5E7"/>
<path opacity="0.25" d="M25.7609 -3.19046L0.03125 22.5391L1.39985 23.9077L27.1295 -1.82187L25.7609 -3.19046Z" fill="#E4E5E7"/>
<path opacity="0.2" d="M24.589 -4.73734L-1.14062 20.9922L0.227976 22.3608L25.9576 -3.36874L24.589 -4.73734Z" fill="#E4E5E7"/>
<path opacity="0.15" d="M21.8781 -4.73734L-3.85156 20.9922L-2.48296 22.3608L23.2467 -3.36874L21.8781 -4.73734Z" fill="#E4E5E7"/>
<path opacity="0.1" d="M19.1749 -4.73734L-6.55469 20.9922L-5.18609 22.3608L20.5436 -3.36874L19.1749 -4.73734Z" fill="#E4E5E7"/>
</g>
<path d="M14.7647 0.585938H3.83476C2.0448 0.585938 0.59375 2.03699 0.59375 3.82695V20.1836C0.59375 21.9736 2.0448 23.4246 3.83476 23.4246H14.7647C16.5547 23.4246 18.0057 21.9736 18.0057 20.1836V3.82695C18.0057 2.03699 16.5547 0.585938 14.7647 0.585938Z" stroke="#E4E5E7" stroke-width="1.16129"/>
</g>
<defs>
<clipPath id="clip0_1926_5589">
<rect width="82.2857" height="24" fill="white"/>
</clipPath>
</defs>
</svg>
