<svg xmlns="http://www.w3.org/2000/svg" width="101" height="28" viewBox="0 0 101 28" fill="none">
    <g clip-path="url(#clip0_25736_60637)">
        <mask id="mask0_25736_60637" style="mask-type:luminance" maskUnits="userSpaceOnUse" x="0" y="0" width="102" height="28">
            <path d="M0.430664 0H101.429V27.9995H0.430664V0Z" fill="white"/>
        </mask>
        <g mask="url(#mask0_25736_60637)">
            <path fill-rule="evenodd" clip-rule="evenodd" d="M52.2698 13.105C52.2858 13.389 52.3018 13.69 52.3018 13.991C52.3018 16.886 51.1818 19.5129 49.3409 21.3869C47.5009 23.2949 44.9399 24.4668 42.045 24.4668C40.171 24.4668 38.415 24.0149 36.9251 23.2279C35.4426 22.4603 34.1768 21.3324 33.2441 19.9479C32.2873 21.3282 31.0134 22.4588 29.5292 23.2449C28.0392 24.0309 26.3162 24.4658 24.4423 24.4658C22.8363 24.4658 21.3463 24.1318 20.0083 23.5289C18.685 22.931 17.5 22.0651 16.5284 20.9859C15.9816 21.913 15.1955 22.676 14.2524 23.1949C13.2815 23.7299 12.1105 24.0478 10.8055 24.0478H0.430664V3.90118H9.85151C11.3575 3.90118 12.6955 4.30318 13.7504 5.00616C14.8044 5.69215 15.5734 6.67914 15.9424 7.83412C16.9106 6.5119 18.1697 5.42976 19.6223 4.67117C21.1572 3.8737 22.8626 3.46024 24.5923 3.46619C25.7642 3.46619 26.8852 3.61619 27.9062 3.91818C28.9039 4.21029 29.8475 4.6625 30.7002 5.25716L29.5962 6.99713L28.4912 8.7371C27.9516 8.33019 27.3462 8.019 26.7012 7.81712C26.0121 7.60657 25.2968 7.4938 24.5763 7.48212C22.7363 7.49912 21.0963 8.25211 19.9073 9.44009C18.7184 10.6281 17.9834 12.234 17.9834 13.958C17.9834 15.715 18.7194 17.338 19.9073 18.5259C21.1123 19.7139 22.7523 20.4669 24.5763 20.4669C25.4633 20.4669 26.2832 20.2999 27.0522 19.9819C27.8222 19.6639 28.5082 19.1789 29.1442 18.5419C30.5042 17.198 30.8492 15.547 31.2292 13.732C31.2745 13.5134 31.3212 13.2934 31.3692 13.072C31.8051 11.0121 32.4401 8.7541 34.6661 6.52814C35.6147 5.58168 36.7404 4.8314 37.979 4.32017C39.234 3.80118 40.656 3.51719 42.229 3.51719C43.401 3.51719 44.5219 3.66719 45.5419 3.98518C46.5472 4.27881 47.497 4.73665 48.3529 5.34016L47.2659 7.08013L46.1779 8.8201C45.6324 8.40471 45.0218 8.08268 44.3709 7.86712C43.6763 7.629 42.9463 7.51032 42.212 7.51612C40.439 7.51612 38.832 8.25211 37.6781 9.42309C37.0827 10.0186 36.6108 10.7256 36.2892 11.5038C35.9676 12.282 35.8028 13.116 35.8041 13.958C35.8041 15.748 36.5071 17.372 37.661 18.5599C38.816 19.7479 40.389 20.4839 42.162 20.4839C43.5849 20.4839 44.8059 20.0149 45.7769 19.2459C46.7469 18.4759 47.4669 17.388 47.8349 16.116H41.56L42.798 14.176L44.0359 12.234H52.1688C52.1795 12.324 52.1911 12.4157 52.2038 12.509C52.2308 12.709 52.2588 12.91 52.2698 13.105ZM4.79659 7.66612V12.067H9.76651C10.3865 12.067 10.9545 11.8331 11.3565 11.4311C11.7575 11.0461 12.0085 10.4941 12.0085 9.85808C12.0085 9.22209 11.7585 8.6701 11.3565 8.28511C10.9272 7.87987 10.3568 7.65784 9.76651 7.66612H4.79659ZM4.79659 15.748V20.3329H10.7535C11.4235 20.3329 12.0085 20.0829 12.4435 19.6629C12.8785 19.2459 13.1465 18.6769 13.1465 18.0239C13.1465 17.372 12.8785 16.803 12.4435 16.401C11.9832 15.9771 11.3792 15.7437 10.7535 15.748H4.79659ZM62.2396 21.7389C62.2396 21.6889 62.2396 21.6389 62.2226 21.6049L60.4327 21.5549L60.2317 21.8729L60.0307 22.1909H61.5537C61.4867 22.5419 61.3357 22.8609 61.0847 23.0779C60.8347 23.2949 60.4987 23.4289 60.0807 23.4289C59.6287 23.4289 59.2437 23.2449 58.9597 22.9439C58.6629 22.6201 58.5012 22.1951 58.5077 21.7559C58.5077 21.2699 58.6917 20.8519 58.9767 20.5679C59.1259 20.4186 59.3032 20.3003 59.4983 20.2198C59.6935 20.1393 59.9026 20.0982 60.1137 20.0989C60.3147 20.0989 60.4987 20.1329 60.6667 20.1829C60.8337 20.2329 61.0007 20.3169 61.1517 20.4329L61.3357 20.1489L61.5197 19.8649C61.3232 19.72 61.1019 19.6122 60.8667 19.5469C60.6216 19.4783 60.3681 19.4446 60.1137 19.4469C59.8061 19.4467 59.5014 19.5071 59.2171 19.6247C58.9329 19.7423 58.6746 19.9148 58.4571 20.1323C58.2396 20.3498 58.0671 20.6081 57.9495 20.8923C57.8319 21.1766 57.7715 21.4813 57.7717 21.7889C57.7717 22.4419 58.0217 23.0269 58.4417 23.4459C58.6545 23.6651 58.9095 23.839 59.1914 23.9569C59.4733 24.0748 59.7761 24.1343 60.0817 24.1318C60.7167 24.1318 61.2687 23.8979 61.6537 23.4959C62.0386 23.0939 62.2556 22.5419 62.2556 21.9059C62.2541 21.8781 62.2515 21.8504 62.2476 21.8229C62.2438 21.795 62.2411 21.767 62.2396 21.7389ZM71.4595 23.4789C71.0123 23.9171 70.4116 24.1633 69.7855 24.1648C69.478 24.1649 69.1734 24.1044 68.8892 23.9867C68.6051 23.869 68.3469 23.6964 68.1295 23.4789C67.6931 23.0443 67.4465 22.4547 67.4436 21.8389C67.4436 21.2029 67.7105 20.6179 68.1295 20.1989C68.3469 19.9813 68.6051 19.8088 68.8892 19.6911C69.1734 19.5734 69.478 19.5128 69.7855 19.5129C70.4121 19.5123 71.0135 19.7588 71.4595 20.1989C71.8959 20.6334 72.1425 21.2231 72.1455 21.8389C72.1425 22.4547 71.8959 23.0443 71.4595 23.4789ZM73.8354 22.3409V19.5969H73.1155V22.3409C73.1155 22.8769 73.3155 23.3289 73.6515 23.6469C73.9855 23.9649 74.4374 24.1648 74.9734 24.1648C75.5084 24.1648 75.9604 23.9649 76.2944 23.6469C76.6124 23.3119 76.8144 22.8599 76.8144 22.3409V19.5969H76.1104V22.3409C76.1104 22.6589 75.9934 22.9609 75.7924 23.1609C75.5924 23.3619 75.3074 23.4959 74.9724 23.4959C74.6374 23.4959 74.3534 23.3619 74.1524 23.1609C73.9524 22.9609 73.8354 22.6589 73.8354 22.3409ZM66.1886 20.0149C65.9206 19.7479 65.5356 19.5969 65.0666 19.5969H63.2596V24.0648H63.9796V22.4579H64.8326L65.3346 23.2619L65.8366 24.0648H66.6736L66.1376 23.2109L65.6026 22.3579C65.9206 22.2909 66.1716 22.1239 66.3386 21.8899C66.5056 21.6559 66.6066 21.3699 66.6066 21.0359C66.6066 20.6349 66.4566 20.2659 66.1886 20.0159M80.9963 20.0159C80.6815 19.7417 80.2768 19.5929 79.8594 19.5979H78.1194V24.0658H78.8384V22.5099H79.8584C80.3283 22.5099 80.7283 22.3599 80.9963 22.0909C81.2643 21.8239 81.4153 21.4549 81.4153 21.0539C81.4153 20.6359 81.2653 20.2839 80.9963 20.0159ZM68.6495 23.0109C68.9345 23.3109 69.3365 23.4959 69.7875 23.4959C70.2565 23.4959 70.6575 23.3119 70.9425 23.0109C71.2265 22.7259 71.4105 22.3079 71.4105 21.8389C71.4105 21.3879 71.2265 20.9689 70.9425 20.6689C70.7919 20.5153 70.6122 20.3932 70.4139 20.3097C70.2156 20.2263 70.0027 20.1832 69.7875 20.1829C69.575 20.1831 69.3646 20.2261 69.1691 20.3094C68.9736 20.3927 68.7968 20.5147 68.6495 20.6679C68.3655 20.9689 68.1815 21.3879 68.1815 21.8389C68.1815 22.2899 68.3655 22.7089 68.6495 23.0109ZM80.4463 21.6549C80.285 21.7974 80.0766 21.8751 79.8614 21.8729H78.8394V20.2659H79.8594C80.075 20.2635 80.2838 20.3411 80.4453 20.4839C80.523 20.5599 80.5839 20.6513 80.6242 20.7522C80.6645 20.8531 80.6833 20.9613 80.6793 21.0699C80.6793 21.3199 80.5973 21.5209 80.4463 21.6549ZM65.6366 21.6049C65.4792 21.7414 65.2758 21.8129 65.0676 21.8049H63.9806V20.2499H65.0676C65.3026 20.2499 65.5036 20.3329 65.6376 20.4669C65.7823 20.6208 65.8604 20.8257 65.8546 21.0369C65.8587 21.1414 65.8415 21.2457 65.8041 21.3433C65.7666 21.441 65.7096 21.53 65.6366 21.6049ZM100.809 13.908C100.809 13.858 100.809 13.808 100.793 13.774L99.003 13.741L98.801 14.059L98.601 14.376H100.123C100.056 14.728 99.906 15.046 99.655 15.263C99.404 15.481 99.069 15.615 98.651 15.615C98.1991 15.615 97.8141 15.431 97.5301 15.129C97.2323 14.8058 97.0705 14.3804 97.0781 13.941C97.0781 13.473 97.2621 13.055 97.5461 12.753C97.6955 12.6038 97.873 12.4856 98.0683 12.4053C98.2636 12.3249 98.4729 12.2841 98.684 12.285C98.885 12.285 99.069 12.318 99.237 12.368C99.404 12.418 99.571 12.502 99.722 12.62L99.906 12.335L100.09 12.05C99.89 11.9001 99.672 11.8001 99.437 11.7331C99.192 11.6644 98.9385 11.6307 98.684 11.6331C98.0321 11.6331 97.4461 11.9001 97.0281 12.318C96.8072 12.5332 96.6324 12.791 96.5145 13.0759C96.3966 13.3608 96.3379 13.6667 96.3421 13.975C96.3421 14.627 96.5921 15.213 97.0111 15.631C97.4291 16.067 97.9981 16.317 98.651 16.317C99.287 16.317 99.839 16.067 100.224 15.665C100.609 15.263 100.826 14.711 100.826 14.075C100.825 14.049 100.823 14.0213 100.818 13.992C100.813 13.9613 100.81 13.9333 100.809 13.908ZM77.6844 14.51V11.7661H76.9644V14.51C76.9644 15.046 77.1664 15.498 77.5004 15.816C77.8354 16.133 78.2874 16.334 78.8224 16.334C79.3584 16.334 79.8093 16.134 80.1443 15.816C80.4623 15.481 80.6633 15.029 80.6633 14.51V11.7661H79.9604V14.51C79.9604 14.828 79.8434 15.13 79.6424 15.33C79.4424 15.531 79.1574 15.665 78.8224 15.665C78.4874 15.665 78.2034 15.531 78.0024 15.33C77.8024 15.13 77.6844 14.828 77.6844 14.51ZM75.5094 15.95C75.2414 16.184 74.8564 16.334 74.3544 16.334C74.0035 16.334 73.7025 16.267 73.4515 16.167C73.2124 16.0755 72.9869 15.9517 72.7815 15.799L72.9655 15.514L73.1505 15.23C73.3345 15.347 73.5355 15.447 73.7355 15.531C73.9364 15.598 74.1375 15.648 74.3714 15.648C74.6564 15.648 74.8734 15.581 75.0074 15.464C75.078 15.4086 75.1346 15.3374 75.1725 15.2561C75.2103 15.1748 75.2285 15.0857 75.2254 14.996C75.2254 14.778 75.1254 14.644 74.9574 14.544C74.7894 14.444 74.5384 14.36 74.2544 14.276C73.9035 14.176 73.5685 14.059 73.3175 13.874C73.0665 13.69 72.8995 13.423 72.8995 12.988C72.8995 12.603 73.0495 12.268 73.3005 12.034C73.5515 11.7991 73.9364 11.6661 74.4054 11.6661C74.6724 11.6661 74.9074 11.7161 75.1414 11.7831C75.3588 11.8497 75.5594 11.95 75.7434 12.084L75.5594 12.368L75.3754 12.653C75.2223 12.5436 75.0529 12.4589 74.8734 12.402C74.7109 12.3504 74.5419 12.3221 74.3714 12.318C74.1034 12.318 73.9195 12.385 73.7865 12.502C73.7266 12.5609 73.6794 12.6314 73.6476 12.7091C73.6158 12.7867 73.6001 12.8701 73.6015 12.954C73.6015 13.172 73.7015 13.305 73.8695 13.406C74.0225 13.513 74.2454 13.578 74.4994 13.653L74.5724 13.673L74.6564 13.702C74.9764 13.808 75.2784 13.907 75.5094 14.092C75.7604 14.276 75.9274 14.56 75.9274 14.979C75.9274 15.364 75.7774 15.7 75.5094 15.95ZM66.2726 15.647C65.8257 16.085 65.2254 16.3312 64.5996 16.333C64.2919 16.3332 63.9871 16.2727 63.7028 16.155C63.4185 16.0373 63.1601 15.8647 62.9426 15.647C62.5062 15.2125 62.2596 14.6228 62.2566 14.007C62.2564 13.6993 62.3168 13.3946 62.4345 13.1102C62.5521 12.8259 62.7247 12.5676 62.9424 12.3501C63.16 12.1325 63.4184 11.96 63.7028 11.8425C63.9871 11.725 64.2919 11.6647 64.5996 11.6651C65.2254 11.6669 65.8257 11.913 66.2726 12.351C66.7065 12.7937 66.9523 13.3871 66.9586 14.007C66.9586 14.643 66.6916 15.229 66.2726 15.647ZM58.4427 15.664C58.1113 15.3349 57.886 14.9142 57.7957 14.456C57.7055 13.9979 57.7543 13.5231 57.9361 13.093C58.1178 12.6628 58.4241 12.2968 58.8156 12.0422C59.2071 11.7875 59.6658 11.6558 60.1327 11.6641C60.4497 11.6641 60.7177 11.7141 60.9687 11.7991C61.2187 11.8821 61.4367 12.016 61.6387 12.167L61.4537 12.451L61.2697 12.736C60.9442 12.4698 60.5351 12.3274 60.1147 12.334C59.6807 12.334 59.2787 12.518 58.9947 12.819C58.6927 13.12 58.5247 13.539 58.5247 14.007C58.5247 14.476 58.7097 14.894 58.9947 15.195C59.2787 15.497 59.6807 15.681 60.1147 15.681C60.3327 15.681 60.5507 15.647 60.7347 15.581C60.9282 15.51 61.1089 15.408 61.2697 15.279L61.4537 15.564L61.6377 15.848C61.4375 16.0088 61.2108 16.1334 60.9677 16.216C60.6982 16.306 60.4158 16.3513 60.1317 16.35C59.5004 16.3505 58.895 16.1043 58.4427 15.664ZM89.3462 16.233H90.0662V11.7651H89.3462V16.233ZM91.6562 16.233H92.3251V12.786L93.3951 14.509L94.4671 16.233H95.3031V11.7651H94.6171V15.145L93.5801 13.455L92.5421 11.7651H91.6552L91.6562 16.233ZM86.8532 12.434H88.2592V11.7651H84.7293V12.435H86.1183V16.233H86.8542L86.8532 12.434ZM84.8623 15.564H82.6533V11.7651H81.9333V16.233H84.8623V15.564ZM67.9786 16.233H68.6485V12.786L69.7185 14.509L70.7895 16.233H71.6265V11.7651H70.9405V15.145L69.9025 13.455L68.8655 11.7651H67.9786V16.233ZM63.4606 15.179C63.7456 15.479 64.1466 15.664 64.5986 15.664C65.0506 15.664 65.4516 15.48 65.7536 15.179C66.0376 14.894 66.2216 14.476 66.2216 14.007C66.2216 13.556 66.0376 13.137 65.7536 12.836C65.6029 12.6826 65.4232 12.5607 65.2249 12.4774C65.0266 12.3941 64.8137 12.3512 64.5986 12.351C64.3861 12.3512 64.1757 12.3942 63.9802 12.4775C63.7846 12.5609 63.6079 12.6828 63.4606 12.836C63.1567 13.1496 62.9885 13.5703 62.9926 14.007C62.9926 14.459 63.1766 14.877 63.4606 15.179ZM79.3744 7.80012C78.9275 8.23814 78.3272 8.48429 77.7014 8.48611C77.3931 8.49029 77.0872 8.43162 76.8023 8.31368C76.5174 8.19574 76.2595 8.021 76.0444 7.80012C75.608 7.3656 75.3614 6.77598 75.3584 6.16014C75.3582 5.85244 75.4186 5.5477 75.5363 5.26337C75.6539 4.97905 75.8265 4.72072 76.0441 4.50319C76.2618 4.28565 76.5202 4.11317 76.8045 3.99563C77.0889 3.87809 77.3937 3.81779 77.7014 3.81818C78.3714 3.81818 78.9564 4.08618 79.3744 4.50417C79.8085 4.9471 80.0544 5.54093 80.0603 6.16114C80.0574 6.77698 79.8108 7.3656 79.3744 7.80012ZM70.2545 8.10311C69.9875 8.35311 69.6025 8.48711 69.1005 8.48711C68.7495 8.48711 68.4485 8.43711 68.1975 8.32011C67.9584 8.22865 67.733 8.10483 67.5276 7.95212L67.7115 7.66712L67.8956 7.38312C68.0796 7.50012 68.2805 7.60112 68.4815 7.68412C68.6815 7.75112 68.8835 7.80112 69.1175 7.80112C69.4015 7.80112 69.6195 7.73412 69.7535 7.61712C69.8239 7.56167 69.8803 7.49039 69.918 7.40908C69.9557 7.32776 69.9737 7.2387 69.9705 7.14913C69.9705 6.93113 69.8705 6.79713 69.7035 6.69714C69.5355 6.59714 69.2845 6.51314 69.0005 6.42914C68.6485 6.32914 68.3145 6.21214 68.0636 6.02815C67.8126 5.84415 67.6446 5.57615 67.6446 5.14116C67.6446 4.75617 67.7955 4.42117 68.0465 4.18718C68.2975 3.95318 68.6825 3.81918 69.1505 3.81918C69.4185 3.81918 69.6525 3.86918 69.8875 3.93618C70.1049 4.00285 70.3055 4.10318 70.4895 4.23718L70.3055 4.52217L70.1215 4.80617C69.9683 4.69712 69.7989 4.61276 69.6195 4.55617C69.4571 4.5042 69.288 4.47558 69.1175 4.47117C68.8495 4.47117 68.6655 4.53817 68.5315 4.65617C68.472 4.71503 68.425 4.78533 68.3934 4.86284C68.3618 4.94035 68.3462 5.02346 68.3475 5.10716C68.3475 5.32516 68.4475 5.45916 68.6155 5.55915C68.7685 5.66615 68.9915 5.73115 69.2455 5.80615L69.3185 5.82615C69.6695 5.94415 70.0045 6.06115 70.2555 6.24614C70.5055 6.42914 70.6735 6.71414 70.6735 7.13213C70.6735 7.51712 70.5235 7.85212 70.2555 8.10211M66.1396 7.80012C65.6927 8.23814 65.0924 8.48429 64.4666 8.48611C64.1583 8.49029 63.8524 8.43162 63.5675 8.31368C63.2826 8.19574 63.0248 8.021 62.8096 7.80012C62.3729 7.36576 62.1259 6.77612 62.1226 6.16014C62.1224 5.85244 62.1828 5.5477 62.3005 5.26337C62.4181 4.97905 62.5907 4.72072 62.8084 4.50319C63.026 4.28565 63.2844 4.11317 63.5688 3.99563C63.8531 3.87809 64.1579 3.81779 64.4656 3.81818C65.1356 3.81818 65.7206 4.08618 66.1386 4.50417C66.5728 4.9471 66.8186 5.54093 66.8246 6.16114C66.8246 6.79613 66.5576 7.38212 66.1386 7.80112M83.0053 5.62615L81.9683 3.93618L81.0813 3.95318V8.42011H81.7513V4.95616L82.8213 6.67914L83.8923 8.40311H84.7293V3.93518H84.0433V7.31513L83.0053 5.62615ZM74.9074 4.60617V3.93618H71.3765V4.60617H72.7655V8.40411H73.5015V4.60417L74.9074 4.60617ZM60.7347 4.27018C60.4535 4.04844 60.1047 3.93015 59.7467 3.93518L57.9897 3.90218V8.36911H59.8977C60.3157 8.36911 60.6677 8.23511 60.9177 8.00111C61.1697 7.76712 61.3197 7.44912 61.3197 7.08113C61.3197 6.84713 61.2527 6.62914 61.1357 6.44514C61.008 6.25332 60.8278 6.10231 60.6167 6.01015C60.7847 5.92615 60.9017 5.79215 61.0017 5.64215C61.0857 5.49216 61.1357 5.32416 61.1357 5.12316C61.1357 4.78817 60.9857 4.48717 60.7347 4.27018ZM76.5644 7.33212C76.8484 7.63312 77.2494 7.81712 77.7014 7.81712C78.1534 7.81712 78.5544 7.65012 78.8564 7.33212C79.1404 7.04713 79.3244 6.62914 79.3244 6.16114C79.3244 5.70915 79.1404 5.29116 78.8564 4.98916C78.7057 4.8357 78.526 4.71378 78.3277 4.63051C78.1294 4.54724 77.9165 4.5043 77.7014 4.50417C77.4888 4.50431 77.2785 4.54733 77.083 4.63067C76.8874 4.714 76.7107 4.83593 76.5634 4.98916C76.2794 5.27416 76.0954 5.70915 76.0954 6.16114C76.0954 6.61314 76.2794 7.03113 76.5634 7.33113M63.3266 7.33113C63.6116 7.63212 64.0126 7.81612 64.4646 7.81612C64.9166 7.81612 65.3176 7.64912 65.6196 7.33113C65.9036 7.04613 66.0876 6.62814 66.0876 6.16014C66.0876 5.70815 65.9036 5.29016 65.6196 4.98816C65.4689 4.8347 65.2892 4.71278 65.0909 4.62951C64.8926 4.54624 64.6797 4.5033 64.4646 4.50317C64.2521 4.50331 64.0417 4.54633 63.8462 4.62967C63.6506 4.713 63.4739 4.83493 63.3266 4.98816C63.0426 5.27316 62.8586 5.70815 62.8586 6.16014C62.8586 6.61214 63.0426 7.03113 63.3266 7.33113ZM60.3647 7.54712C60.2992 7.61317 60.2209 7.66509 60.1345 7.69966C60.0482 7.73424 59.9557 7.75073 59.8627 7.74812L58.7087 7.73112V6.42814H59.8627C60.0637 6.42814 60.2317 6.49514 60.3657 6.61214C60.4987 6.72914 60.5657 6.89713 60.5657 7.08113C60.5632 7.25736 60.4913 7.4255 60.3657 7.54912M60.2157 5.64215C60.0898 5.76309 59.9212 5.82924 59.7467 5.82615L58.7097 5.80915V4.55417H59.7467C59.9307 4.55417 60.0987 4.62117 60.2157 4.73817C60.2753 4.79714 60.3224 4.86761 60.354 4.9453C60.3856 5.02299 60.4012 5.10629 60.3997 5.19016C60.4012 5.27403 60.3856 5.35733 60.354 5.43502C60.3224 5.51271 60.2753 5.58318 60.2157 5.64215Z" fill="#94979E"/>
        </g>
    </g>
    <defs>
        <clipPath id="clip0_25736_60637">
            <rect width="101" height="28" fill="white"/>
        </clipPath>
    </defs>
</svg>
