<svg version="1.2" xmlns="http://www.w3.org/2000/svg" viewBox="0 0 101 28"><defs><clipPath clipPathUnits="userSpaceOnUse" id="cp1"><path d="m0 0h101v28h-101z"/></clipPath></defs><style>.a{fill:#c1c2c3}</style><g clip-path="url(#cp1)"><path fill-rule="evenodd" class="a" d="m51.8 13.1q0.1 0.4 0.1 0.9c0 2.9-1.1 5.5-3 7.4-1.8 1.9-4.4 3.1-7.3 3.1-1.9 0-3.6-0.5-5.1-1.3q-0.6-0.3-1.1-0.6-0.5-0.4-1-0.8-0.4-0.4-0.8-0.9-0.4-0.4-0.8-1-0.3 0.6-0.8 1-0.4 0.5-0.8 0.9-0.5 0.4-1 0.8-0.5 0.4-1.1 0.6c-1.5 0.8-3.2 1.3-5.1 1.3-1.6 0-3.1-0.4-4.4-1q-0.5-0.2-1-0.5-0.5-0.2-0.9-0.6-0.4-0.3-0.8-0.6-0.4-0.4-0.8-0.8-0.2 0.3-0.5 0.6-0.2 0.4-0.5 0.6-0.3 0.3-0.6 0.6-0.3 0.2-0.7 0.4c-0.9 0.5-2.1 0.8-3.4 0.8h-10.4v-20.1h9.4c1.5 0 2.9 0.4 3.9 1.1 1.1 0.7 1.8 1.7 2.2 2.8q0.4-0.5 0.8-0.9 0.4-0.5 0.9-0.9 0.4-0.4 0.9-0.7 0.5-0.3 1.1-0.6 0.6-0.3 1.2-0.6 0.6-0.2 1.2-0.3 0.6-0.2 1.3-0.3 0.6 0 1.3 0 1.7 0 3.3 0.4 0.3 0.1 0.7 0.3 0.4 0.1 0.7 0.3 0.4 0.1 0.7 0.3 0.4 0.2 0.7 0.5l-1.1 1.7-1.1 1.7q-0.2-0.1-0.5-0.2-0.2-0.2-0.4-0.3-0.2-0.1-0.5-0.2-0.2-0.1-0.4-0.2-0.3-0.1-0.6-0.1-0.2-0.1-0.5-0.1-0.2-0.1-0.5-0.1-0.3 0-0.6 0c-1.8 0-3.4 0.8-4.6 1.9-1.2 1.2-1.9 2.8-1.9 4.6 0 1.7 0.7 3.3 1.9 4.5 1.2 1.2 2.8 2 4.6 2q1.4 0 2.5-0.5 1.2-0.5 2.1-1.5c1.4-1.3 1.7-3 2.1-4.8q0.1-0.3 0.1-0.6c0.5-2.1 1.1-4.3 3.3-6.6q0.4-0.3 0.8-0.6 0.4-0.4 0.8-0.6 0.4-0.3 0.8-0.6 0.5-0.2 0.9-0.4 1.9-0.8 4.3-0.8 1.8 0 3.3 0.5 0.4 0.1 0.8 0.2 0.3 0.2 0.7 0.3 0.3 0.2 0.7 0.4 0.3 0.2 0.6 0.4l-1.1 1.8-1.1 1.7q-0.2-0.1-0.4-0.3-0.2-0.1-0.4-0.2-0.2-0.2-0.5-0.3-0.2-0.1-0.5-0.1-0.2-0.1-0.5-0.2-0.3-0.1-0.5-0.1-0.3 0-0.6-0.1-0.2 0-0.5 0c-1.8 0-3.4 0.8-4.6 1.9q-0.4 0.5-0.7 1-0.4 0.5-0.6 1.1-0.3 0.6-0.4 1.2-0.1 0.6-0.1 1.3c0 1.7 0.7 3.4 1.8 4.6 1.2 1.1 2.8 1.9 4.5 1.9 1.5 0 2.7-0.5 3.6-1.3 1-0.7 1.7-1.8 2.1-3.1h-6.3l1.3-1.9 1.2-2h8.1q0.1 0.2 0.1 0.3 0 0.3 0 0.6zm-47.4-5.4v4.4h4.9c0.7 0 1.2-0.3 1.6-0.7 0.4-0.4 0.7-0.9 0.7-1.5 0-0.7-0.3-1.2-0.7-1.6q-0.1-0.2-0.3-0.3-0.2-0.1-0.4-0.2-0.2-0.1-0.4-0.1-0.2 0-0.5 0zm0 8v4.6h6c0.7 0 1.2-0.2 1.7-0.6 0.4-0.5 0.7-1 0.7-1.7 0-0.6-0.3-1.2-0.7-1.6q-0.2-0.2-0.4-0.3-0.2-0.1-0.4-0.2-0.2-0.1-0.4-0.1-0.3-0.1-0.5-0.1zm57.4 6.1q0 0 0 0 0 0 0 0 0 0 0 0 0 0 0 0 0 0.1 0 0.1 0.1 0 0.1 0 0 0 0 0c0 0.6-0.3 1.2-0.6 1.6-0.4 0.4-1 0.6-1.6 0.6q-0.3 0-0.5 0-0.2-0.1-0.4-0.1-0.2-0.1-0.4-0.3-0.2-0.1-0.4-0.3c-0.4-0.4-0.6-1-0.6-1.6q0-0.5 0.1-0.9 0.2-0.4 0.6-0.8 0.3-0.3 0.7-0.5 0.4-0.2 0.9-0.2 0.1 0 0.2 0.1 0.1 0 0.2 0 0.1 0 0.2 0 0.1 0 0.2 0 0.1 0.1 0.1 0.1 0.1 0 0.2 0.1 0.1 0 0.2 0.1 0 0 0.1 0.1l-0.4 0.5q-0.2-0.1-0.4-0.2-0.3-0.1-0.6-0.1-0.1 0-0.3 0-0.2 0.1-0.3 0.1-0.2 0.1-0.3 0.2-0.1 0.1-0.2 0.2c-0.3 0.3-0.5 0.7-0.5 1.2q0 0.1 0 0.3 0.1 0.1 0.1 0.3 0.1 0.1 0.2 0.3 0 0.1 0.2 0.2c0.2 0.3 0.6 0.5 1.1 0.5q0.6 0 1-0.3c0.2-0.2 0.4-0.6 0.5-0.9h-1.6l0.4-0.6h1.8q0 0.1 0 0.1 0 0 0 0.1zm9.3 1.7q-0.2 0.1-0.4 0.3-0.2 0.1-0.4 0.2-0.2 0.1-0.5 0.1-0.2 0.1-0.4 0.1-0.2 0-0.5-0.1-0.2 0-0.4-0.1-0.2-0.1-0.4-0.2-0.2-0.2-0.4-0.3-0.1-0.2-0.3-0.4-0.1-0.2-0.2-0.4-0.1-0.2-0.1-0.4-0.1-0.2-0.1-0.5c0-0.6 0.3-1.2 0.7-1.6q0.2-0.2 0.4-0.3 0.2-0.1 0.4-0.2 0.2-0.1 0.4-0.1 0.3-0.1 0.5-0.1 0.2 0 0.4 0.1 0.3 0 0.5 0.1 0.2 0.1 0.4 0.2 0.2 0.1 0.4 0.3 0.1 0.2 0.2 0.4 0.2 0.1 0.3 0.4 0.1 0.2 0.1 0.4 0 0.2 0 0.4 0 0.3 0 0.5 0 0.2-0.1 0.4-0.1 0.2-0.3 0.4-0.1 0.2-0.2 0.4zm2.7-0.3c0.2 0.2 0.4 0.3 0.8 0.3 0.3 0 0.6-0.1 0.8-0.3 0.2-0.2 0.3-0.5 0.3-0.9v-2.7h0.7v2.7c0 0.6-0.2 1-0.5 1.3-0.3 0.4-0.8 0.6-1.3 0.6-0.6 0-1-0.2-1.4-0.6-0.3-0.3-0.5-0.7-0.5-1.3v-2.7h0.7v2.7c0 0.4 0.2 0.7 0.4 0.9zm-7.6-2.2q0 0.5-0.3 0.9-0.2 0.3-0.7 0.5l0.5 0.8 0.6 0.9h-0.9l-0.5-0.8-0.5-0.8h-0.8v1.6h-0.7v-4.5h1.8q0.7 0 1.1 0.4c0.3 0.3 0.4 0.6 0.4 1zm14.8 0.1c0 0.4-0.1 0.7-0.4 1-0.3 0.3-0.7 0.4-1.1 0.4h-1.1v1.6h-0.7v-4.5h1.8q0.1 0 0.3 0 0.1 0 0.3 0.1 0.1 0.1 0.2 0.1 0.2 0.1 0.3 0.2 0.4 0.4 0.4 1.1zm-12.8 1.9c0.3 0.3 0.7 0.5 1.2 0.5 0.5 0 0.9-0.2 1.1-0.5 0.3-0.3 0.5-0.7 0.5-1.2 0-0.4-0.2-0.8-0.5-1.1q-0.1-0.1-0.2-0.2-0.1-0.1-0.3-0.2-0.1-0.1-0.3-0.1-0.2 0-0.3 0-0.2 0-0.3 0-0.2 0-0.3 0.1-0.2 0.1-0.3 0.2-0.1 0.1-0.3 0.2c-0.2 0.3-0.4 0.7-0.4 1.1 0 0.5 0.2 0.9 0.4 1.2zm12.1-1.9q0-0.1 0-0.2 0-0.1-0.1-0.1 0-0.1-0.1-0.2 0-0.1-0.1-0.1 0-0.1-0.1-0.1-0.1-0.1-0.1-0.1-0.1 0-0.2 0-0.1 0-0.1 0h-1.1v1.6h1.1q0 0 0.1 0 0.1-0.1 0.2-0.1 0 0 0.1-0.1 0.1 0 0.1 0 0.3-0.3 0.3-0.6zm-15 0.4q0.1-0.1 0.1-0.2 0 0 0-0.1 0.1-0.1 0.1-0.2 0 0-0.1-0.1 0-0.1 0-0.2 0 0-0.1-0.1 0-0.1-0.1-0.1-0.2-0.2-0.5-0.2h-1.1v1.5h1.1q0 0 0.1 0 0.1 0 0.2 0 0-0.1 0.1-0.1 0.1 0 0.1-0.1 0.1-0.1 0.1-0.1zm35.1-7.5q0 0 0 0.1c0 0.6-0.2 1.2-0.6 1.6-0.4 0.4-0.9 0.6-1.6 0.6-0.6 0-1.2-0.2-1.6-0.7-0.4-0.4-0.7-1-0.7-1.6q0-0.3 0.1-0.5 0-0.2 0.1-0.4 0.1-0.2 0.2-0.4 0.2-0.2 0.3-0.4c0.4-0.4 1-0.7 1.7-0.7q0.1 0 0.2 0 0.1 0 0.2 0.1 0.1 0 0.1 0 0.1 0 0.2 0 0.4 0.1 0.7 0.4l-0.4 0.5q-0.2-0.2-0.5-0.2-0.2-0.1-0.5-0.1-0.2 0-0.3 0-0.2 0-0.3 0.1-0.2 0.1-0.3 0.2-0.1 0-0.3 0.2c-0.2 0.3-0.4 0.7-0.4 1.1q0 0.2 0 0.4 0 0.1 0.1 0.3 0 0.1 0.1 0.3 0.1 0.1 0.2 0.2c0.3 0.3 0.7 0.5 1.1 0.5q0.7 0 1.1-0.3c0.2-0.3 0.4-0.6 0.4-0.9h-1.5l0.2-0.3 0.2-0.4 1.8 0.1q0 0 0 0.1 0 0 0 0.1zm-22.8 1.3c0.2 0.2 0.5 0.4 0.8 0.4 0.4 0 0.6-0.2 0.8-0.4 0.2-0.2 0.4-0.5 0.4-0.8v-2.7h0.7v2.7c0 0.5-0.2 1-0.6 1.3-0.3 0.3-0.7 0.5-1.3 0.5-0.5 0-1-0.2-1.3-0.5-0.3-0.3-0.5-0.8-0.5-1.3v-2.7h0.7v2.7c0 0.3 0.1 0.6 0.3 0.8zm-2.5 0.7c-0.3 0.2-0.6 0.3-1.1 0.3q-0.6 0-1-0.1 0-0.1-0.1-0.1-0.1 0-0.2-0.1-0.1 0-0.2-0.1 0 0-0.1-0.1l0.2-0.3 0.1-0.3q0.3 0.2 0.6 0.3 0.3 0.1 0.7 0.1 0.4 0 0.6-0.1 0.1-0.1 0.1-0.1 0-0.1 0.1-0.1 0-0.1 0-0.2 0 0 0-0.1 0-0.3-0.2-0.5-0.3-0.1-0.7-0.2c-0.4-0.1-0.7-0.2-1-0.4-0.2-0.2-0.4-0.5-0.4-0.9 0-0.4 0.1-0.7 0.4-1q0.4-0.3 1.1-0.3 0.4 0 0.7 0.1 0.4 0.1 0.6 0.3l-0.1 0.3-0.2 0.3q-0.1-0.1-0.1-0.1-0.1-0.1-0.2-0.1 0 0-0.1-0.1-0.1 0-0.1 0-0.1 0-0.2 0 0 0-0.1-0.1 0 0-0.1 0-0.1 0-0.1 0-0.4 0-0.6 0.2-0.1 0-0.1 0.1 0 0.1-0.1 0.1 0 0.1 0 0.1 0 0.1 0 0.2 0 0.3 0.3 0.4c0.1 0.1 0.3 0.2 0.6 0.3h0.1 0.1c0.3 0.1 0.6 0.2 0.8 0.4 0.3 0.2 0.4 0.5 0.4 0.9q0 0.6-0.4 1zm-9.2-0.4q-0.2 0.2-0.4 0.3-0.2 0.2-0.4 0.3-0.2 0-0.4 0.1-0.3 0-0.5 0-0.2 0-0.5 0-0.2-0.1-0.4-0.1-0.2-0.1-0.4-0.3-0.2-0.1-0.4-0.3-0.1-0.1-0.2-0.3-0.2-0.2-0.3-0.4-0.1-0.2-0.1-0.4 0-0.3 0-0.5 0-0.5 0.1-0.9 0.2-0.4 0.5-0.7 0.4-0.4 0.8-0.6 0.4-0.1 0.9-0.1 0.2 0 0.5 0 0.2 0.1 0.4 0.1 0.2 0.1 0.4 0.3 0.2 0.1 0.4 0.3 0.1 0.1 0.3 0.3 0.1 0.2 0.2 0.4 0.1 0.2 0.1 0.5 0.1 0.2 0.1 0.4c0 0.6-0.3 1.2-0.7 1.6zm-7.9 0.1q-0.5-0.5-0.6-1.2-0.1-0.7 0.1-1.4 0.3-0.7 0.9-1.1 0.6-0.3 1.3-0.3 0.5 0 0.9 0.1 0.3 0.1 0.6 0.4l-0.1 0.3-0.2 0.2q-0.2-0.1-0.3-0.1-0.1-0.1-0.3-0.2-0.1 0-0.3 0-0.1-0.1-0.3-0.1c-0.4 0-0.8 0.2-1.1 0.5-0.3 0.3-0.5 0.7-0.5 1.2 0 0.5 0.2 0.9 0.5 1.2 0.3 0.3 0.7 0.5 1.1 0.5q0.3 0 0.6-0.1 0.1 0 0.2-0.1 0 0 0.1 0 0.1-0.1 0.1-0.1 0.1-0.1 0.2-0.1l0.2 0.3 0.1 0.2q0 0.1-0.1 0.2-0.1 0-0.2 0.1-0.1 0-0.2 0 0 0.1-0.1 0.1-0.1 0-0.2 0.1-0.1 0-0.2 0-0.2 0-0.3 0-0.1 0.1-0.2 0.1-0.2 0-0.4-0.1-0.3 0-0.5-0.1-0.2-0.1-0.4-0.2-0.2-0.2-0.4-0.3zm30.9-3.9h0.8v4.4h-0.8zm2.4 0h0.8l1.1 1.7 1 1.7v-3.4h0.7v4.5h-0.8l-1.1-1.7-1.1-1.7v3.4h-0.6zm-4.8 4.5h-0.8v-3.8h-1.4v-0.7h3.6v0.7h-1.4zm-2 0h-3v-4.5h0.8v3.8h2.2zm-16.9-4.5h0.9l1 1.7 1 1.7v-3.4h0.7v4.5h-0.8l-1.1-1.7-1.1-1.7v3.4h-0.6zm-4.5 3.4c0.2 0.3 0.6 0.5 1.1 0.5 0.4 0 0.8-0.2 1.2-0.5 0.2-0.3 0.4-0.7 0.4-1.2 0-0.4-0.2-0.8-0.4-1.1q-0.2-0.1-0.3-0.2-0.1-0.1-0.3-0.2-0.1 0-0.3-0.1-0.1 0-0.3 0-0.2 0-0.3 0-0.2 0.1-0.3 0.1-0.2 0.1-0.3 0.2-0.1 0.1-0.2 0.2-0.2 0.1-0.2 0.2-0.1 0.2-0.2 0.3-0.1 0.2-0.1 0.3 0 0.2 0 0.3c0 0.5 0.2 0.9 0.5 1.2zm15.9-7.4q-0.2 0.2-0.4 0.3-0.2 0.2-0.4 0.2-0.2 0.1-0.4 0.2-0.3 0-0.5 0-0.2 0-0.5 0-0.2-0.1-0.4-0.2-0.2 0-0.4-0.2-0.2-0.1-0.4-0.3-0.1-0.1-0.2-0.3-0.2-0.2-0.3-0.4-0.1-0.2-0.1-0.5 0-0.2 0-0.4 0-0.5 0.1-0.9 0.2-0.4 0.5-0.8 0.4-0.3 0.8-0.5 0.4-0.1 0.9-0.1c0.7 0 1.3 0.2 1.7 0.6q0.1 0.2 0.3 0.4 0.1 0.2 0.2 0.4 0.1 0.2 0.1 0.4 0.1 0.3 0.1 0.5 0 0.2-0.1 0.4 0 0.3-0.1 0.5-0.1 0.2-0.2 0.4-0.2 0.2-0.3 0.3zm-9.1 0.3q-0.4 0.4-1.2 0.4-0.5 0-0.9-0.1-0.1-0.1-0.2-0.1-0.1-0.1-0.2-0.1 0-0.1-0.1-0.1-0.1-0.1-0.2-0.1l0.2-0.3 0.2-0.3q0.3 0.2 0.6 0.3 0.3 0.1 0.6 0.1 0.4 0 0.7-0.1 0-0.1 0-0.1 0.1-0.1 0.1-0.2 0 0 0.1-0.1 0 0 0-0.1 0-0.3-0.3-0.5-0.3-0.1-0.7-0.2c-0.4-0.1-0.7-0.3-0.9-0.4-0.3-0.2-0.5-0.5-0.5-0.9 0-0.4 0.2-0.7 0.4-1q0.4-0.3 1.1-0.3 0.4 0 0.8 0.1 0.3 0.1 0.6 0.3l-0.2 0.3-0.2 0.2q0 0-0.1 0-0.1-0.1-0.1-0.1-0.1 0-0.2-0.1 0 0-0.1 0 0 0-0.1 0-0.1-0.1-0.1-0.1-0.1 0-0.2 0 0 0-0.1 0-0.4 0-0.6 0.2 0 0-0.1 0.1 0 0 0 0.1 0 0.1 0 0.1-0.1 0.1-0.1 0.1 0.1 0.4 0.3 0.5c0.2 0.1 0.4 0.2 0.6 0.2l0.1 0.1c0.4 0.1 0.7 0.2 1 0.4 0.2 0.2 0.4 0.5 0.4 0.9q0 0.6-0.4 0.9zm-4.2-0.3q-0.1 0.2-0.3 0.3-0.2 0.2-0.4 0.2-0.2 0.1-0.5 0.2-0.2 0-0.4 0-0.3 0-0.5 0-0.2-0.1-0.4-0.2-0.2 0-0.4-0.2-0.2-0.1-0.4-0.3-0.2-0.1-0.3-0.3-0.1-0.2-0.2-0.4-0.1-0.2-0.1-0.5-0.1-0.2-0.1-0.4 0-0.5 0.2-0.9 0.2-0.4 0.5-0.8 0.3-0.3 0.8-0.5 0.4-0.1 0.9-0.1c0.6 0 1.2 0.2 1.6 0.6q0.2 0.2 0.3 0.4 0.2 0.2 0.2 0.4 0.1 0.2 0.2 0.4 0 0.3 0 0.5c0 0.6-0.2 1.2-0.7 1.6zm17.9-0.4v-3.4h0.7v4.4h-0.8l-1.1-1.7-1.1-1.7v3.5h-0.6v-4.5h0.9l1 1.7zm-10.5-2.7v3.8h-0.8v-3.8h-1.4v-0.7h3.6v0.7zm-12.4 0.5q0 0.3-0.1 0.5-0.2 0.2-0.4 0.4 0.1 0 0.1 0 0.1 0.1 0.2 0.1 0 0.1 0.1 0.2 0.1 0 0.1 0.1 0.2 0.3 0.2 0.6 0 0.6-0.4 0.9-0.4 0.4-1 0.4h-1.9v-4.4h1.7q0.1 0 0.3 0 0.1 0 0.2 0.1 0.2 0 0.3 0.1 0.1 0 0.2 0.1c0.3 0.2 0.4 0.5 0.4 0.9zm15.4 2.2c0.3 0.3 0.7 0.5 1.2 0.5q0.7 0 1.1-0.5c0.3-0.3 0.5-0.7 0.5-1.2 0-0.4-0.2-0.9-0.5-1.2q-0.1-0.1-0.2-0.2-0.2-0.1-0.3-0.1-0.2-0.1-0.3-0.1-0.2 0-0.3 0-0.2 0-0.3 0-0.2 0-0.4 0.1-0.1 0-0.2 0.1-0.2 0.1-0.3 0.2c-0.3 0.3-0.4 0.8-0.4 1.2 0 0.5 0.1 0.9 0.4 1.2zm-13.2 0c0.3 0.3 0.7 0.5 1.1 0.5q0.7 0 1.2-0.5c0.3-0.3 0.5-0.7 0.5-1.2 0-0.4-0.2-0.9-0.5-1.2q-0.1-0.1-0.3-0.2-0.1-0.1-0.2-0.1-0.2-0.1-0.4-0.1-0.1 0-0.3 0-0.1 0-0.3 0-0.1 0-0.3 0.1-0.1 0-0.3 0.1-0.1 0.1-0.2 0.2c-0.3 0.3-0.5 0.8-0.5 1.2 0 0.5 0.2 0.9 0.5 1.2zm-2.9 0.1q0.1-0.1 0.1-0.1 0-0.1 0-0.1 0-0.1 0-0.2 0-0.3-0.2-0.4-0.2-0.2-0.5-0.2h-1.1v1.3h1.1q0.1 0 0.2 0 0 0 0.1-0.1 0.1 0 0.1 0 0.1-0.1 0.1-0.1 0.1 0 0.1-0.1zm-0.1-1.9q0-0.1 0-0.1 0-0.1 0.1-0.1 0-0.1 0-0.2 0 0 0-0.1-0.1 0-0.1-0.1 0-0.1 0-0.1-0.1-0.1-0.1-0.1-0.2-0.2-0.5-0.2h-1v1.3h1q0.1 0 0.1 0 0.1 0 0.2-0.1 0 0 0.1 0 0-0.1 0.1-0.1 0-0.1 0.1-0.1z"/></g></svg>