<svg width="101" height="28" viewBox="0 0 101 28" fill="none" xmlns="http://www.w3.org/2000/svg">
<path d="M17.1243 20.1232C17.1243 19.7857 16.8832 19.5446 16.5457 19.5446C16.0154 19.5929 15.2439 19.5929 14.7618 19.5929C11.6761 19.5929 9.21714 17.0857 9.21714 14V0.692857C9.21714 0.596429 9.12072 0.5 9.02429 0.5H1.50286C1.40643 0.5 1.35822 0.548214 1.35822 0.644643V14C1.35822 21.425 7.385 27.5 14.7618 27.5C15.485 27.5 16.2564 27.4518 16.9314 27.3071C17.0279 27.3071 17.0761 27.2107 17.0761 27.1143V20.1232H17.1243Z" fill="#94979E"/>
<path d="M14.7604 0.5C13.989 0.5 13.2658 0.548214 12.5426 0.692857C12.4462 0.692857 12.3979 0.789286 12.3979 0.885714V7.925C12.3979 8.2625 12.639 8.50357 12.9765 8.50357C13.2658 8.45536 14.7604 8.45536 14.7604 8.45536C17.8462 8.45536 20.3051 10.9625 20.3051 14.0482V26.1982C20.3051 26.2464 20.3533 26.2946 20.4015 26.2464C25.0301 24.125 28.2122 19.4482 28.2122 14C28.2122 6.52679 22.1854 0.5 14.7604 0.5Z" fill="#94979E"/>
<path d="M92.1931 8.26264C87.227 8.26264 85.0574 11.6376 85.0574 16.1698C85.0574 20.6537 87.661 23.3537 91.7592 23.3537C96.7252 23.3537 98.8949 20.0269 98.8949 15.543C98.8467 11.0591 96.2913 8.26264 92.1931 8.26264ZM93.8324 19.5448C93.302 19.9305 92.6752 20.1234 91.8074 20.1234C90.1681 20.1234 89.1556 18.6769 89.1556 16.1216C89.1556 14.6751 89.4449 13.4216 89.927 12.7466C90.4574 12.3126 91.1324 12.1198 91.952 12.1198C93.736 12.1198 94.6038 13.5662 94.6038 15.6876C94.5556 17.2787 94.3145 18.6769 93.8324 19.5448ZM78.3074 14.4341C76.1377 14.0484 75.6556 13.8073 75.6556 13.1323C75.6556 12.7948 75.752 12.5055 75.8967 12.3609C76.427 12.168 77.2949 12.0716 78.1627 12.0716C79.8985 12.0716 81.3931 12.3126 82.6467 12.7466V9.32335C81.6824 8.84121 80.0431 8.35907 77.8252 8.35907C74.0163 8.35907 71.6538 10.143 71.6538 13.2287C71.6538 16.1698 73.3895 17.0859 76.5717 17.6644C78.9342 18.0984 79.4163 18.3394 79.4163 19.0626C79.4163 19.4001 79.3199 19.6412 79.2235 19.7859C78.6449 19.9787 77.8252 20.1234 76.6199 20.1234C75.0288 20.1234 73.1485 19.7859 72.0395 19.4001V22.7751C73.2449 23.2573 75.077 23.4984 76.7645 23.4984C80.8145 23.4984 83.4181 22.2448 83.4181 18.9662C83.4181 16.0734 81.7306 15.0609 78.3074 14.4341ZM47.6913 13.7591C49.0413 12.9876 50.1985 11.6859 50.1985 9.8055C50.1985 6.67157 47.7877 4.98407 42.7252 4.98407H35.4449V23.1126H43.8824C48.3663 23.1126 50.6806 21.3769 50.6806 17.9537C50.6806 15.6876 49.3788 14.4341 47.6913 13.7591ZM39.8806 8.4555C40.6038 8.40728 41.4717 8.40728 42.4842 8.40728C44.7985 8.40728 45.811 9.08228 45.811 10.6251C45.811 11.493 45.4735 12.0716 44.702 12.6501C44.0752 12.7948 43.4002 12.843 42.5324 12.843C41.5199 12.843 40.6038 12.7948 39.8806 12.7948V8.4555ZM45.5217 19.9305C44.9431 20.0751 43.9788 20.1234 43.1592 20.1234C41.8092 20.1234 40.7002 20.0751 39.8806 20.0751V15.8805H43.0145C45.2806 15.8805 46.2449 16.5555 46.2449 18.0501C46.1967 18.7734 45.9556 19.4001 45.5217 19.9305ZM53.6217 23.1126H57.8645V8.55193H53.6217V23.1126ZM65.7717 4.93585L61.6735 5.27335V19.0144C61.6735 21.7144 62.927 23.3537 66.0127 23.3537C67.3145 23.3537 68.3752 23.1126 69.2913 22.7269V19.3519C68.4235 19.6894 67.652 19.8341 66.8324 19.8341C66.1092 19.8341 65.7717 19.4484 65.7717 18.7734V11.9269H69.2431V8.55193H65.7717V4.93585ZM57.9127 6.04478V2.42871L53.6699 2.76621V6.093H57.9127V6.04478Z" fill="#94979E"/>
</svg>
