<svg xmlns="http://www.w3.org/2000/svg" width="136" height="42" fill="none" viewBox="0 0 136 42"><g clip-path="url(#a)"><path fill="url(#b)" fill-rule="evenodd" d="M69.325 21.044c0 .207.208.31.311.31h2.8c.208 0 .415-.103.622-.103.208-.104.415-.207.519-.415.104-.207.311-.415.311-.622a2.29 2.29 0 0 0 0-1.66c-.104-.207-.207-.414-.415-.621-.103-.208-.31-.312-.518-.415-.208-.104-.415-.104-.622-.208h-2.697c-.103 0-.31.104-.31.311v3.423Zm-2.489 6.533V15.34c0-.104.104-.311.311-.311h5.393c.622 0 1.14.104 1.66.415.933.518 1.762 1.348 2.073 2.281.519 1.244.415 2.593-.31 3.733a3.662 3.662 0 0 1-1.453 1.349c-.103.103-.207.207-.103.414l2.489 4.148c.103.208 0 .415-.208.415h-2.074c-.104 0-.311-.103-.415-.207l-2.281-3.837c-.104-.104-.208-.207-.415-.207h-1.97c-.104 0-.311.103-.311.31v3.734c0 .104-.104.311-.312.311h-1.97c0-.104-.104-.207-.104-.311Zm20.741-4.978-1.452-4.148c-.103-.207-.31-.207-.415 0l-1.451 4.148c0 .104.103.311.207.311h3.007s.104-.104.104-.31Zm-2.593-7.466h1.763c.104 0 .311.103.311.207l4.563 12.03c.104.207-.103.414-.31.518h-1.764c-.103 0-.31-.104-.31-.207l-1.038-2.697c-.103-.103-.207-.207-.31-.207h-3.942c-.103 0-.31.104-.31.207l-1.038 2.697c-.103.103-.207.207-.31.207h-1.764c-.207 0-.415-.207-.31-.519l4.562-12.03c0-.103.104-.207.207-.207Zm12.549 5.288v7.156c0 .207-.104.311-.311.311h-1.763c-.208 0-.312-.104-.312-.311V15.444c0-.208.104-.312.311-.312h1.349c.103 0 .31.104.415.208l6.014 7.674c.104.207.415.104.415-.104v-7.363c0-.207.104-.31.311-.31h1.763c.208 0 .311.103.311.31v12.03c0 .207-.103.311-.311.311h-1.452c-.103 0-.311-.104-.414-.207l-5.912-7.467c-.103-.207-.414-.104-.414.207Z" clip-rule="evenodd"/><path fill="url(#c)" fill-rule="evenodd" d="M109.739 21.355c0-.83.104-1.556.415-2.282A8.489 8.489 0 0 1 111.398 17a5.422 5.422 0 0 1 1.971-1.452c.829-.415 1.659-.518 2.696-.518 1.141 0 2.178.207 3.007.726.83.414 1.349 1.037 1.763 1.763.104.103 0 .31-.103.31l-1.452 1.038c-.104.104-.311 0-.415-.104a3.578 3.578 0 0 0-1.244-1.244c-.311-.104-.519-.208-.83-.312-.311-.103-.622-.103-.83-.103-1.14 0-2.074.518-2.8 1.348-.311.415-.518.83-.726 1.348-.103.519-.207 1.037-.207 1.556 0 .518.104 1.14.311 1.659.208.518.415.933.726 1.348a3.24 3.24 0 0 0 1.141.933c.415.208.933.311 1.555.311.311 0 .623 0 .934-.103.622-.104 1.244-.415 1.659-.933.207-.208.311-.415.415-.623.103-.103.207-.207.311-.103l1.555.933c.104.104.208.207.104.311a3.72 3.72 0 0 1-.726 1.037c-.415.415-.829.622-1.244.933-.519.208-.934.415-1.556.623-.518.103-1.037.207-1.555.207-.83 0-1.763-.207-2.489-.622-.726-.415-1.348-.83-1.971-1.452a8.488 8.488 0 0 1-1.244-2.074c-.311-.726-.415-1.556-.415-2.385Z" clip-rule="evenodd"/><path fill="url(#d)" fill-rule="evenodd" d="M135.625 15.353V27.59c0 .104-.104.208-.208.208h-1.97a.222.222 0 0 1-.207-.208v-4.978c0-.103-.104-.207-.208-.207h-5.289c-.103 0-.207.104-.207.207v4.978c0 .104-.104.208-.208.208h-1.97a.222.222 0 0 1-.207-.208V15.353c0-.104.103-.207.207-.207h1.97c.104 0 .208.103.208.207v4.667c0 .104.104.207.207.207h5.289c.104 0 .208-.104.208-.207v-4.667c0-.104.103-.207.207-.207h1.97c.104 0 .208.103.208.207Z" clip-rule="evenodd"/><path fill="url(#e)" fill-rule="evenodd" d="M60.1 24.686c-.104.208-.207.415-.31.519-.105.104-.312.311-.52.311-.207.104-.414.104-.622.104h-3.422a.223.223 0 0 1-.207-.208v-2.8c0-.103.103-.207.207-.207h3.526c.207 0 .415 0 .622.104.208.103.311.207.519.415.31.518.415 1.14.207 1.762Zm-4.874-7.466h3.111c.415 0 .726.104 1.037.415.311.31.415.725.415 1.244s-.104.933-.415 1.14c-.31.312-.622.416-1.037.416H55.33a.223.223 0 0 1-.208-.208v-2.696c-.103-.207 0-.311.104-.311Zm6.845 5.289a3.686 3.686 0 0 0-1.66-1.141c-.103 0-.103-.104 0-.104.519-.207.934-.622 1.245-1.14.518-.934.622-1.97.207-2.904-.103-.415-.311-.726-.622-1.037-.208-.311-.519-.519-.933-.726a2.761 2.761 0 0 0-1.245-.311h-6.637a.223.223 0 0 0-.207.207V27.59c0 .104.103.311.207.311h5.911c.519 0 1.037-.103 1.556-.207a3.929 3.929 0 0 0 1.348-.622c.415-.311.726-.623.933-1.037.208-.415.311-.83.311-1.452.208-.83 0-1.556-.414-2.074Z" clip-rule="evenodd"/><path fill="url(#f)" fill-rule="evenodd" d="m28.678 20.837-5.91 5.91c-.104.104-.416 0-.416-.207v-1.66c0-.31.104-.518.312-.725l7.57-7.57c.207-.208.207-.519 0-.623l-.83-.933c-.207-.207-.518-.207-.622 0l-5.807 5.808c-.208.207-.519 0-.519-.208V8.807a.446.446 0 0 0-.415-.415h-1.244c-.415-.104-.622.104-.622.415v5.6c0 .207-.311.311-.415.207l-3.319-3.318c-.207-.208-.518-.208-.622 0l-.83.933c-.207.208-.207.519 0 .622l4.875 4.874c.31.311.415.623.415 1.037v4.667c0 .208-.312.415-.519.208l-7.674-7.778c-.207-.208-.519-.208-.622 0l-.83.933c-.207.207-.207.519 0 .622l9.23 9.437c.31.311.415.623.415 1.037v6.015c0 .208.207.415.414.415h1.245a.446.446 0 0 0 .415-.415v-3.007c0-.311.103-.623.414-.934l7.467-7.466c.207-.208.207-.519 0-.622l-.83-.934c-.207-.31-.518-.31-.726-.104Z" clip-rule="evenodd"/><path fill="url(#g)" fill-rule="evenodd" d="M21.106 1.97c-10.267 0-18.667 8.504-18.667 18.978 0 10.474 8.4 18.978 18.667 18.978 10.266 0 18.666-8.504 18.666-18.978.104-10.474-8.296-18.978-18.666-18.978Zm0 40.03C9.698 42 .469 32.563.469 20.948.469 9.437 9.699 0 21.106 0s20.637 9.437 20.637 20.948C41.846 32.563 32.513 42 21.106 42Z" clip-rule="evenodd"/></g><defs><linearGradient id="b" x1="12.714" x2="12.714" y1="-11.118" y2="48.176" gradientUnits="userSpaceOnUse"><stop stop-color="#E4E5E7"/><stop offset="1" stop-color="#E4E5E7" stop-opacity=".7"/></linearGradient><linearGradient id="c" x1="12.714" x2="12.714" y1="-11.118" y2="48.176" gradientUnits="userSpaceOnUse"><stop stop-color="#E4E5E7"/><stop offset="1" stop-color="#E4E5E7" stop-opacity=".7"/></linearGradient><linearGradient id="d" x1="12.714" x2="12.714" y1="-11.118" y2="48.176" gradientUnits="userSpaceOnUse"><stop stop-color="#E4E5E7"/><stop offset="1" stop-color="#E4E5E7" stop-opacity=".7"/></linearGradient><linearGradient id="e" x1="12.714" x2="12.714" y1="-11.118" y2="48.176" gradientUnits="userSpaceOnUse"><stop stop-color="#E4E5E7"/><stop offset="1" stop-color="#E4E5E7" stop-opacity=".7"/></linearGradient><linearGradient id="f" x1="12.714" x2="12.714" y1="-11.118" y2="48.176" gradientUnits="userSpaceOnUse"><stop stop-color="#E4E5E7"/><stop offset="1" stop-color="#E4E5E7" stop-opacity=".7"/></linearGradient><linearGradient id="g" x1="12.714" x2="12.714" y1="-11.118" y2="48.176" gradientUnits="userSpaceOnUse"><stop stop-color="#E4E5E7"/><stop offset="1" stop-color="#E4E5E7" stop-opacity=".7"/></linearGradient><clipPath id="a"><path fill="white" d="M.477 0h135.126v42H.477z"/></clipPath></defs></svg>