<svg width="97" height="24" viewBox="0 0 97 24" fill="none" xmlns="http://www.w3.org/2000/svg">
<g clip-path="url(#clip0_449_18283)">
<path fill-rule="evenodd" clip-rule="evenodd" d="M89.6685 21.4895C88.821 21.4895 88.0433 21.3477 87.3375 21.0658C86.6632 20.7997 86.05 20.3994 85.5353 19.889C85.0319 19.3916 84.6353 18.7967 84.3698 18.1407C84.0975 17.4417 83.9608 16.6972 83.967 15.947V15.512C83.967 14.615 84.1088 13.8027 84.3915 13.0745C84.6735 12.347 85.062 11.726 85.557 11.21C86.042 10.7011 86.6263 10.2972 87.2738 10.0235C87.9365 9.73956 88.6506 9.59506 89.3715 9.599C90.1988 9.599 90.93 9.74075 91.5653 10.0235C92.2013 10.2987 92.7353 10.6835 93.1658 11.1785C93.597 11.6795 93.9218 12.2765 94.1408 12.9695C94.3598 13.6617 94.4693 14.417 94.4693 15.2367V16.3287H86.5215V16.3813C86.5988 16.8837 86.7188 17.3038 86.8815 17.6427C87.0443 17.9818 87.2663 18.2855 87.549 18.554C87.8318 18.8368 88.164 19.0557 88.545 19.211C88.9335 19.3663 89.358 19.4435 89.817 19.4435C90.4455 19.4435 91.032 19.3235 91.5765 19.0835C92.104 18.8492 92.5659 18.4892 92.9221 18.035L94.278 19.349C93.897 19.8995 93.3105 20.3945 92.5193 20.8325C91.7348 21.2705 90.7838 21.4895 89.6685 21.4895ZM89.361 11.6547C89.001 11.6547 88.6658 11.7222 88.3545 11.8565C88.0508 11.984 87.7785 12.167 87.5385 12.4078C87.2985 12.6553 87.0968 12.9515 86.9348 13.298C86.7637 13.6725 86.6426 14.0679 86.5748 14.474H91.968V14.3045C91.968 13.9722 91.908 13.6445 91.788 13.319C91.6755 12.9995 91.5029 12.7045 91.2795 12.4497C91.0567 12.2017 90.7816 12.0063 90.474 11.8775C90.156 11.729 89.7848 11.6547 89.361 11.6547ZM71.2823 21.2772V9.81125H73.5713L73.7303 11.4432C73.8855 11.2242 74.055 11.0232 74.2388 10.8395C74.43 10.6482 74.631 10.4795 74.8433 10.3302C75.5447 9.84877 76.3768 9.59359 77.2275 9.599C77.7751 9.59293 78.3197 9.67913 78.8385 9.854C79.3147 10.0162 79.744 10.2925 80.0888 10.6588C80.4345 11.0262 80.7038 11.4965 80.8943 12.0688C81.0848 12.6335 81.18 13.319 81.18 14.1237V21.2772H78.6473V14.1672C78.6473 13.6932 78.5948 13.2972 78.4883 12.98C78.3825 12.662 78.2273 12.4077 78.0225 12.2165C77.8122 12.0228 77.5571 11.8844 77.28 11.8138C76.9558 11.7243 76.6204 11.6814 76.284 11.6862C75.9735 11.6862 75.684 11.729 75.4155 11.8138C74.9498 11.9457 74.5309 12.2068 74.2073 12.5667C74.0587 12.7293 73.9273 12.9068 73.815 13.0963V21.2772H71.2823ZM58.83 9.81125H64.9133V19.1788H68.283V21.2772H58.8308V19.1795H62.3595V11.9195H58.83V9.81125ZM62.1263 6.84425C62.1263 6.63875 62.1615 6.452 62.232 6.28175C62.3 6.10934 62.405 5.95394 62.5395 5.8265C62.667 5.7065 62.8185 5.615 62.9948 5.55125C63.1785 5.48075 63.384 5.4455 63.6098 5.4455C63.9915 5.4455 64.2983 5.54375 64.5323 5.74175C64.7723 5.93225 64.9095 6.17975 64.9448 6.48425C64.9943 6.79475 64.9418 7.06625 64.7858 7.2995C64.6305 7.526 64.4048 7.6775 64.1078 7.7555C63.9585 7.89006 63.7755 7.98156 63.5783 8.02025C63.3735 8.063 63.147 8.045 62.8995 7.96775C62.6627 7.90239 62.4565 7.75584 62.3168 7.55375C62.1874 7.34007 62.1213 7.09402 62.1263 6.84425ZM45.7005 5H51.879V19.1795H55.3545V21.2772H45.7005V19.1795H49.3245V7.109H45.7005V5ZM42.5325 16.5297C42.4613 17.279 42.285 17.9608 42.0023 18.575C41.735 19.161 41.3571 19.69 40.8893 20.1327C40.4085 20.5799 39.8428 20.926 39.2258 21.1505C38.5898 21.383 37.8833 21.5 37.1063 21.5C36.4703 21.5 35.8838 21.4152 35.3468 21.2458C34.8357 21.0787 34.3559 20.8277 33.927 20.5033C33.5209 20.2033 33.1635 19.8426 32.8673 19.4338C32.5656 19.0005 32.3132 18.5349 32.115 18.0455C31.9095 17.5505 31.755 17.0142 31.6485 16.4345C31.548 15.8358 31.4983 15.2296 31.5 14.6225V12.5135C31.5 11.9135 31.5495 11.3338 31.6485 10.7758C31.7475 10.2178 31.896 9.69125 32.0933 9.19625C32.2957 8.66313 32.5705 8.16041 32.91 7.70225C33.2385 7.2608 33.6317 6.87142 34.0763 6.54725C34.4993 6.25457 34.9634 6.02609 35.4533 5.86925C35.9921 5.70224 36.5535 5.62001 37.1175 5.6255C37.9298 5.6255 38.6543 5.7455 39.2895 5.9855C39.933 6.2255 40.4805 6.56525 40.932 7.00325C41.3994 7.45995 41.7676 8.00811 42.0135 8.6135C42.282 9.24275 42.4545 9.94175 42.5325 10.712H39.9893C39.9548 10.2891 39.8658 9.87237 39.7245 9.47225C39.597 9.09725 39.4208 8.78 39.1943 8.51825C38.9591 8.25553 38.6651 8.05223 38.3363 7.925C37.9965 7.784 37.5908 7.71275 37.1175 7.71275C36.7853 7.71275 36.4853 7.75925 36.2168 7.85075C35.955 7.94225 35.7218 8.0735 35.517 8.243C35.2256 8.45778 34.9834 8.73243 34.8068 9.0485C34.6146 9.39404 34.4619 9.76009 34.3515 10.1398C34.2593 10.493 34.1888 10.871 34.1393 11.2737C34.0966 11.6786 34.0756 12.0854 34.0763 12.4925V14.6225C34.0763 15.1385 34.104 15.6222 34.161 16.0745C34.224 16.526 34.32 16.94 34.4468 17.3143C34.5458 17.6248 34.6695 17.9075 34.818 18.1617C34.9733 18.4167 35.157 18.635 35.3685 18.8187C35.5875 19.0167 35.8388 19.1683 36.1215 19.2748C36.411 19.3738 36.7395 19.4233 37.107 19.4233C37.545 19.4233 37.9335 19.3595 38.2725 19.232C38.6115 19.1045 38.901 18.9177 39.1418 18.6702C39.3743 18.4302 39.5618 18.1302 39.7028 17.7703C39.8445 17.4095 39.936 16.9963 39.9788 16.5297H42.5325Z" fill="#94979E"/>
<path fill-rule="evenodd" clip-rule="evenodd" d="M17.0351 3.99219C19.7851 3.99219 22.0151 6.23219 22.0151 8.99519V10.6622L23.4651 13.5582C23.5359 13.6993 23.5725 13.8551 23.5722 14.0129C23.5718 14.1708 23.5345 14.3264 23.4631 14.4672L22.0151 17.3312V18.9992C22.0151 21.7612 19.7851 24.0012 17.0351 24.0012H7.07414C4.32314 24.0012 2.09414 21.7612 2.09414 18.9992V17.3312L0.614139 14.4762C0.539663 14.3331 0.500527 14.1743 0.500005 14.0131C0.499483 13.8518 0.537591 13.6927 0.611139 13.5492L2.09314 10.6622V8.99519C2.09314 6.23219 4.32314 3.99219 7.07314 3.99219H17.0351ZM8.26514 9.60119C7.66204 9.60119 7.08364 9.84077 6.65718 10.2672C6.23072 10.6937 5.99114 11.2721 5.99114 11.8752V15.9172C6.00361 16.5119 6.24862 17.078 6.67363 17.4942C7.09863 17.9104 7.66979 18.1435 8.26464 18.1435C8.85948 18.1435 9.43065 17.9104 9.85565 17.4942C10.2807 17.078 10.5257 16.5119 10.5381 15.9172V11.8752C10.5381 11.2723 10.2987 10.694 9.87245 10.2676C9.44621 9.84115 8.86807 9.60145 8.26514 9.60119ZM15.5911 9.60119C14.988 9.60119 14.4096 9.84077 13.9832 10.2672C13.5567 10.6937 13.3171 11.2721 13.3171 11.8752V15.9172C13.3171 16.5203 13.5567 17.0987 13.9832 17.5251C14.4096 17.9516 14.988 18.1912 15.5911 18.1912C16.1942 18.1912 16.7726 17.9516 17.1991 17.5251C17.6256 17.0987 17.8651 16.5203 17.8651 15.9172V11.8752C17.8651 11.5765 17.8063 11.2807 17.6919 11.0047C17.5776 10.7288 17.41 10.478 17.1987 10.2669C16.9875 10.0557 16.7367 9.88822 16.4607 9.774C16.1847 9.65978 15.8898 9.60106 15.5911 9.60119Z" fill="#94979E"/>
<path fill-rule="evenodd" clip-rule="evenodd" d="M12.0544 5.558C12.7914 5.558 13.4983 5.26521 14.0194 4.74405C14.5406 4.22289 14.8334 3.51604 14.8334 2.779C14.8334 2.04196 14.5406 1.33511 14.0194 0.81395C13.4983 0.292787 12.7914 0 12.0544 0C11.3174 0 10.6105 0.292787 10.0893 0.81395C9.56818 1.33511 9.27539 2.04196 9.27539 2.779C9.27539 3.51604 9.56818 4.22289 10.0893 4.74405C10.6105 5.26521 11.3174 5.558 12.0544 5.558Z" fill="#94979E"/>
</g>
<defs>
<clipPath id="clip0_449_18283">
<rect width="97" height="24" fill="white"/>
</clipPath>
</defs>
</svg>
