<svg width="77" height="24" viewBox="0 0 77 24" fill="none" xmlns="http://www.w3.org/2000/svg">
<g clip-path="url(#clip0_1926_5561)">
<path fill-rule="evenodd" clip-rule="evenodd" d="M49.0607 2.25626C48.9057 2.10735 48.7224 1.99106 48.5218 1.91426C48.3222 1.83726 48.1095 1.80018 47.8957 1.80515C47.6815 1.80005 47.4684 1.83714 47.2685 1.91426C47.0686 1.99129 46.8862 2.10758 46.7319 2.25626C46.578 2.39948 46.4561 2.57367 46.3742 2.76741C46.2914 2.961 46.2497 3.16972 46.2517 3.3803C46.2498 3.59087 46.2915 3.79956 46.3742 3.9932C46.4561 4.18692 46.578 4.36112 46.7319 4.50434C46.8862 4.65302 47.0686 4.76931 47.2685 4.84634C47.4681 4.92457 47.6814 4.9617 47.8957 4.95545C48.1096 4.96173 48.3225 4.92461 48.5218 4.84634C48.7222 4.76907 48.9054 4.65283 49.0607 4.50434C49.2139 4.36073 49.3353 4.18662 49.4172 3.9932C49.4982 3.7993 49.5371 3.59038 49.5312 3.3803C49.535 3.16955 49.4932 2.96046 49.4086 2.76741C49.3299 2.57442 49.2114 2.40024 49.0607 2.25626ZM49.2788 6.2548H46.5102V17.8863H49.2788V6.2548ZM20.1962 6.46799C20.932 6.77325 21.6005 7.22059 22.1635 7.78446C22.7267 8.34744 23.1733 9.016 23.478 9.75188C23.7833 10.4882 23.9407 11.2775 23.9411 12.0747C23.94 13.684 23.3007 15.227 22.1635 16.365C21.0259 17.5023 19.4841 18.142 17.8759 18.1436C16.2679 18.1413 14.7262 17.5018 13.5882 16.365C12.4516 15.2267 11.8123 13.6839 11.8107 12.0747C11.8118 10.4655 12.4511 8.92249 13.5882 7.78446C14.1511 7.22064 14.8194 6.77335 15.5551 6.46816C16.2909 6.16298 17.0795 6.00588 17.8759 6.00586C18.6721 6.00585 19.4606 6.16289 20.1962 6.46799ZM17.8759 15.5278C18.7917 15.526 19.6695 15.1616 20.3174 14.5141C20.9642 13.8656 21.328 12.9872 21.3293 12.071C21.3281 11.1549 20.9643 10.2765 20.3174 9.62807C19.6694 8.98088 18.7915 8.61685 17.8759 8.61559C16.9603 8.61674 16.0824 8.98077 15.4344 9.62807C14.7864 10.2759 14.422 11.1545 14.4213 12.071C14.4219 12.9876 14.7863 13.8664 15.4344 14.5141C16.0818 15.1624 16.96 15.527 17.8759 15.5278ZM74.8818 7.78446C74.3189 7.22075 73.6505 6.77352 72.9149 6.46834C72.1793 6.16316 71.3907 6.00601 70.5947 6.00586C69.7981 6.00588 69.0095 6.16298 68.2739 6.46816C67.5377 6.77335 66.8693 7.22064 66.307 7.78446C65.743 8.34765 65.2962 9.01642 64.9911 9.75262C64.6861 10.4888 64.5291 11.2778 64.5291 12.0747C64.5307 13.6839 65.1697 15.2269 66.307 16.365C67.4448 17.5018 68.9864 18.1413 70.5947 18.1436C72.2024 18.1414 73.744 17.5019 74.8818 16.365C76.0191 15.227 76.6586 13.684 76.6597 12.0747C76.6586 10.4655 76.0191 8.92249 74.8818 7.78446ZM73.0446 14.5091C72.7227 14.8314 72.341 15.0876 71.921 15.263C71.5004 15.4379 71.0499 15.5279 70.5947 15.5278C69.6784 15.527 68.8005 15.1624 68.1531 14.5141C67.5046 13.8664 67.1402 12.9876 67.1397 12.071C67.1408 11.1545 67.5052 10.2759 68.1531 9.62807C68.8005 8.98009 69.6784 8.6159 70.5947 8.61559C71.0488 8.61338 71.4993 8.70133 71.9199 8.87423C72.3405 9.04745 72.7227 9.30195 73.0446 9.62314C73.692 10.2713 74.0564 11.1498 74.0575 12.0662C74.0564 12.9826 73.692 13.8611 73.0446 14.5091ZM8.51285 14.5129C8.64711 14.3765 8.77003 14.2293 8.88034 14.0729V14.0852L11.0279 15.5561C10.826 15.8439 10.6001 16.1141 10.3528 16.3638C9.21465 17.5003 7.67316 18.1398 6.0652 18.1424C4.45694 18.1413 2.91485 17.5017 1.77754 16.3638C1.21405 15.8007 0.767027 15.1319 0.462024 14.3958C0.15702 13.6596 1.82382e-05 12.8705 0 12.0736C-4.24527e-06 11.2765 0.156933 10.4871 0.461845 9.75073C0.766954 9.01479 1.21404 8.34623 1.77754 7.7833C2.33832 7.22017 3.00431 6.77283 3.73762 6.46684C4.4755 6.16095 5.26652 6.0039 6.0652 6.00471C6.86162 6.00486 7.65016 6.16201 8.38589 6.46719C9.12156 6.77237 9.78997 7.21959 10.3528 7.7833C10.5902 8.022 10.8073 8.27986 11.0021 8.55436L8.88034 10.0045V10.0682C8.77003 9.91135 8.64711 9.76375 8.51285 9.62692C7.86476 8.97977 6.98695 8.61569 6.07134 8.61443C5.15571 8.61559 4.2778 8.97962 3.62979 9.62692C3.30898 9.94763 3.05452 10.3285 2.88089 10.7477C2.70726 11.1668 2.61791 11.6161 2.61794 12.0699C2.61815 12.9863 2.98211 13.865 3.62979 14.5129C4.27722 15.1612 5.1554 15.5258 6.07134 15.5267C6.98722 15.5255 7.86518 15.1609 8.51285 14.5129ZM60.391 7.45367C59.3756 6.52207 58.3806 6.00478 56.9361 6.00355C56.1401 6.00357 55.3514 6.16067 54.6158 6.46585C53.8797 6.77104 53.2113 7.21833 52.6489 7.78215C51.5115 8.92018 50.8723 10.4632 50.8711 12.0724C50.8725 13.6816 51.5118 15.2245 52.6489 16.3627C53.7868 17.4995 55.3283 18.139 56.9361 18.1413C58.3842 18.1413 59.3803 17.6192 60.3984 16.6839C60.4231 17.7479 60.369 19.0557 59.5578 19.6993C58.3181 20.8736 55.0732 20.8405 54.452 18.9234H51.4591C52.1709 22.8226 57.2721 23.5324 60.3774 22.1643L60.4105 22.1509C61.2348 21.7743 61.9337 21.1678 62.422 20.4041C62.9087 19.6398 63.1639 18.7509 63.1571 17.8447V6.25362H60.3863C60.3895 6.59561 60.391 7.00503 60.391 7.45367ZM59.3777 14.5118C58.7297 15.1593 57.8523 15.5237 56.9361 15.5255C56.0204 15.5247 55.1425 15.1601 54.4951 14.5118C53.8466 13.864 53.4822 12.9853 53.4817 12.0687C53.4827 11.1522 53.8471 10.2736 54.4951 9.62576C55.1425 8.97778 56.0204 8.61359 56.9361 8.61328C57.8523 8.61349 58.7303 8.97767 59.3777 9.62576C60.0245 10.2742 60.3884 11.1525 60.39 12.0687C60.3905 12.9849 60.0293 13.8642 59.384 14.5142L59.3777 14.5118ZM34.5108 6.58081C35.0069 6.92782 35.454 7.34015 35.84 7.80662C38.322 6.73036 40.6165 7.05275 42.3132 8.72963C44.3087 10.6921 45.143 14.3928 44.5917 17.8961H41.9566C42.5055 15.1025 41.9591 12.0184 40.4952 10.5793C39.6573 9.76055 38.6221 9.57294 37.3296 10.0143C39.0447 12.9929 39.5078 17.0466 38.0647 19.0324C37.7508 19.4535 37.3505 19.8026 36.8908 20.0563C36.431 20.31 35.9224 20.4624 35.399 20.5033C35.2814 20.5193 35.1699 20.5193 35.0474 20.5193C34.1456 20.5311 33.2738 20.1958 32.612 19.5828C31.2081 18.2417 31.229 15.9422 31.3674 14.687C31.5805 12.7367 32.3094 10.838 33.3679 9.47491C33.4413 9.3805 33.5186 9.28862 33.597 9.19789C33.4221 9.0212 33.2319 8.86037 33.0285 8.7174C32.5881 8.41375 32.0624 8.2587 31.5279 8.27487C30.9925 8.29115 30.4768 8.48038 30.0578 8.81422L30.0468 8.82404C28.6049 9.93949 27.2586 13.9012 28.3011 17.8948H25.6501C25.3291 16.3508 25.2608 14.7648 25.4479 13.1989C25.7836 10.3795 26.9057 7.97947 28.4505 6.77572C29.3064 6.09714 30.3569 5.71054 31.4482 5.67252C32.5397 5.64104 33.6128 5.95927 34.5108 6.58081ZM35.6104 17.7888C35.7488 17.7179 35.8709 17.6187 35.9686 17.4977C36.3043 17.0343 36.5027 15.762 36.1364 14.0667C35.9402 13.1403 35.6101 12.2476 35.1564 11.4166C33.7133 13.6046 33.5908 16.924 34.3982 17.6938C34.5042 17.7807 34.6271 17.8447 34.759 17.8819C34.891 17.919 35.0292 17.9284 35.165 17.9096C35.3203 17.9009 35.472 17.8597 35.6104 17.7888Z" fill="#E4E5E7"/>
</g>
<defs>
<clipPath id="clip0_1926_5561">
<rect width="77" height="24" fill="white"/>
</clipPath>
</defs>
</svg>
