<svg width="165" height="42" viewBox="0 0 165 42" fill="none" xmlns="http://www.w3.org/2000/svg">
<path fill-rule="evenodd" clip-rule="evenodd" d="M24.9499 40.8685C35.5023 42.1405 42.8939 34.0344 40.573 23.0514C39.4107 17.4961 36.3846 12.568 32.2601 8.62822C30.9091 7.3483 29.4404 6.19894 27.8733 5.19518C27.7448 5.11266 27.597 5.06503 27.4446 5.057C26.3928 5.01698 25.3398 5.0942 24.305 5.28728C24.2673 5.29636 24.2334 5.31666 24.2075 5.34545C24.1817 5.37426 24.1652 5.41023 24.1602 5.4486C24.1552 5.48698 24.1619 5.52598 24.1796 5.56042C24.1973 5.59488 24.2249 5.62317 24.259 5.64158C30.3785 8.76291 35.637 14.6264 37.763 21.0993C39.6305 26.2931 39.014 33.0743 34.6519 36.3337C32.8577 37.7082 30.7014 38.5293 28.4474 38.6968C28.3222 38.7098 28.2014 38.7496 28.0931 38.8136C27.0678 39.4485 26.0024 40.0167 24.9038 40.5142C24.8679 40.5312 24.8385 40.5591 24.8194 40.5939C24.8003 40.6288 24.7929 40.6688 24.7981 40.7082C24.8031 40.7475 24.8206 40.7843 24.8478 40.813C24.8752 40.8418 24.9109 40.8612 24.9499 40.8685ZM17.0551 1.13148C6.50273 -0.140416 -0.888902 7.96573 1.43206 18.9487C2.59077 24.504 5.61688 29.4321 9.74853 33.3506C11.0929 34.6369 12.5558 35.7934 14.1176 36.8048C14.2473 36.8875 14.3963 36.9352 14.5499 36.943C15.6005 36.983 16.6524 36.9059 17.6859 36.7128C17.7235 36.7036 17.7575 36.6833 17.7833 36.6545C17.8092 36.6258 17.8257 36.5899 17.8307 36.5514C17.8357 36.5131 17.829 36.4741 17.8113 36.4396C17.7937 36.4051 17.766 36.3768 17.7319 36.3585C11.6124 33.2372 6.35746 27.3737 4.23138 20.9008C2.36044 15.7069 2.97701 8.92584 7.33899 5.66638C9.13317 4.29186 11.2895 3.47059 13.5436 3.30327C13.6687 3.29021 13.7896 3.25035 13.8979 3.18635C14.929 2.55084 16.0002 1.9828 17.1048 1.48578C17.1406 1.46851 17.1701 1.44029 17.1889 1.40519C17.2077 1.37009 17.2149 1.32993 17.2093 1.2905C17.2038 1.25108 17.1859 1.21442 17.1582 1.18584C17.1305 1.15725 17.0944 1.13822 17.0551 1.13148ZM1.13086 24.9397C-0.137696 35.4904 7.96618 42.881 18.9509 40.5603L18.9473 40.5674C24.5034 39.4231 29.4253 36.3796 33.3585 32.2452C34.6459 30.9016 35.8027 29.439 36.8134 27.8767C36.896 27.7483 36.9436 27.6006 36.9516 27.4481C36.9935 26.3975 36.9162 25.3457 36.7212 24.3126C36.7145 24.2734 36.6956 24.2374 36.667 24.2096C36.6384 24.1819 36.6016 24.1639 36.5623 24.1585C36.5228 24.153 36.4826 24.1601 36.4475 24.1788C36.4123 24.1977 36.3843 24.2271 36.3669 24.263C33.2451 30.3851 27.3772 35.6393 20.9034 37.7649C15.7122 39.6356 8.92646 39.0155 5.66649 34.6544C4.29184 32.8617 3.47043 30.7068 3.303 28.4543C3.29156 28.3288 3.25157 28.2076 3.18607 28.1C2.55254 27.0678 1.98447 25.9969 1.48521 24.8936C1.46821 24.8577 1.44029 24.8283 1.40545 24.8092C1.37061 24.7901 1.33064 24.7827 1.29128 24.7879C1.25192 24.7929 1.2152 24.8104 1.18638 24.8376C1.15756 24.865 1.13812 24.9007 1.13086 24.9397ZM40.8172 17.1517C40.8456 17.1254 40.8655 17.091 40.8742 17.0533L40.8707 17.0604C42.1463 6.50604 34.0317 -0.891519 23.0649 1.45387C17.4981 2.61595 12.5798 5.64158 8.63944 9.77259C7.35317 11.1161 6.19754 12.5787 5.18811 14.141C5.10252 14.2679 5.05459 14.4166 5.04991 14.5697C5.0068 15.6201 5.08288 16.6719 5.2767 17.7052C5.28579 17.7428 5.30607 17.7768 5.33487 17.8026C5.36368 17.8284 5.39965 17.8449 5.43803 17.8499C5.47642 17.8549 5.51542 17.8482 5.54988 17.8305C5.58434 17.8128 5.61265 17.7853 5.63106 17.7511C8.75283 11.6327 14.6172 6.3785 21.0911 4.25277C26.2858 2.38212 33.0715 3.00213 36.3279 7.36338C37.7027 9.15465 38.5241 11.3084 38.6914 13.56C38.7047 13.686 38.7472 13.8074 38.8155 13.9143C39.4483 14.9411 40.0176 16.0061 40.5199 17.1028C40.5386 17.1368 40.5671 17.1644 40.6019 17.1819C40.6366 17.1992 40.6757 17.2056 40.7142 17.2002C40.7527 17.1949 40.7886 17.1779 40.8172 17.1517ZM74.9411 14.0578C76.1368 14.0578 77.3172 14.3287 78.3941 14.8505C79.4239 15.3738 80.2797 16.1869 80.8571 17.1903C81.4565 18.376 81.769 19.6867 81.769 21.0164C81.769 22.3459 81.4565 23.6568 80.8571 24.8423C80.2797 25.8457 79.4239 26.6589 78.3941 27.1823C77.3172 27.7041 76.1368 27.975 74.9411 27.975C73.7454 27.975 72.565 27.7041 71.4881 27.1823C70.4583 26.6589 69.6025 25.8457 69.0251 24.8423C68.4256 23.6568 68.1132 22.3459 68.1132 21.0164C68.1132 19.6867 68.4256 18.376 69.0251 17.1903C69.6025 16.1869 70.4583 15.3738 71.4881 14.8505C72.565 14.3287 73.7454 14.0578 74.9411 14.0578ZM74.9446 26.0238C76.1713 26.0238 77.3526 25.5578 78.2512 24.7194V24.7022C79.113 23.8414 79.5439 22.6071 79.5439 20.9992C79.5439 19.3915 79.113 18.1548 78.2512 17.2895C77.3507 16.4547 76.1701 15.9912 74.9446 15.9912C73.7189 15.9912 72.5383 16.4547 71.6378 17.2895C70.7715 18.1685 70.3382 19.4051 70.3382 20.9992C70.3382 22.5934 70.7715 23.8335 71.6378 24.7194C72.5364 25.5578 73.7179 26.0238 74.9446 26.0238ZM65.3067 25.2488C65.791 24.4433 66.0822 23.5359 66.1573 22.5979V22.5809C66.1595 22.5565 66.1569 22.5319 66.1493 22.5085C66.1417 22.4851 66.1292 22.4636 66.1129 22.4454C66.0966 22.427 66.0768 22.4123 66.0545 22.4022C66.0323 22.392 66.0082 22.3866 65.9838 22.3861H64.0242C63.9815 22.3868 63.9406 22.4033 63.9093 22.4322C63.8779 22.4612 63.8583 22.5007 63.8541 22.5433C63.7772 23.4553 63.3861 24.3117 62.7484 24.9654C62.0884 25.6315 61.1052 25.973 59.8227 25.973C59.2226 25.9955 58.6244 25.8917 58.0666 25.6681C57.5088 25.4446 57.0039 25.1063 56.5841 24.675C55.7607 23.8141 55.3457 22.5842 55.3457 20.9958C55.3457 19.4073 55.7607 18.1674 56.5841 17.3099C57.0047 16.8804 57.51 16.5436 58.0678 16.3212C58.6254 16.099 59.2231 15.9959 59.8227 16.0188C61.0849 16.0188 62.0442 16.3226 62.6668 16.9172C63.261 17.4926 63.6425 18.2539 63.7486 19.0761C63.7543 19.1165 63.7742 19.1536 63.8049 19.1806C63.8354 19.2075 63.8746 19.2225 63.9153 19.2229H65.8851C65.9087 19.2229 65.9321 19.2182 65.9539 19.2087C65.9756 19.1993 65.9952 19.1856 66.0115 19.1683C66.0278 19.1511 66.0403 19.1307 66.0484 19.1083C66.0566 19.086 66.0599 19.0622 66.0585 19.0385C65.9867 18.1875 65.7101 17.367 65.2523 16.6473C64.7302 15.8355 64.0006 15.1796 63.1397 14.7479C62.1074 14.245 60.9695 14.0001 59.8227 14.0339C58.6137 14.0112 57.4175 14.287 56.3391 14.8368C55.3296 15.3687 54.5005 16.1904 53.9577 17.1973C53.3891 18.381 53.0938 19.6782 53.0938 20.9925C53.0938 22.3067 53.3891 23.604 53.9577 24.7877C54.5005 25.7944 55.3296 26.6162 56.3391 27.1482C57.4154 27.7063 58.6116 27.9901 59.8227 27.9748C60.9806 28.0088 62.1289 27.7566 63.1669 27.2404C64.0483 26.7859 64.7886 26.0969 65.3067 25.2488ZM162.552 23.3906H164.546C164.573 23.3889 164.601 23.3939 164.626 23.4053C164.652 23.4166 164.674 23.4339 164.691 23.4556C164.709 23.4773 164.721 23.5029 164.726 23.5303C164.731 23.5575 164.73 23.5858 164.723 23.6126C164.609 24.0763 164.437 24.5239 164.212 24.9447C163.914 25.5011 163.525 26.0024 163.059 26.4275C162.516 26.9118 161.885 27.2874 161.202 27.5342C160.339 27.8343 159.43 27.9776 158.517 27.9578C156.345 27.9578 154.691 27.3361 153.557 26.0926C152.423 24.8492 151.856 23.1514 151.856 20.9992C151.819 19.7044 152.098 18.4202 152.669 17.2586C153.184 16.2535 153.981 15.422 154.962 14.8675C156.035 14.2859 157.241 13.9963 158.46 14.0271C159.656 13.9874 160.841 14.2693 161.892 14.8435C162.8 15.3653 163.533 16.1465 163.998 17.0879C164.486 18.1057 164.729 19.2243 164.709 20.3536V21.4468C164.709 21.4695 164.704 21.492 164.696 21.513C164.687 21.5338 164.674 21.5529 164.658 21.5688C164.642 21.5848 164.623 21.5973 164.602 21.6056C164.581 21.6139 164.558 21.6181 164.536 21.6175H154.262C154.238 21.6181 154.214 21.6233 154.192 21.633C154.171 21.6428 154.151 21.6569 154.135 21.6744C154.119 21.6919 154.106 21.7127 154.098 21.7351C154.09 21.7576 154.087 21.7815 154.088 21.8054C154.183 23.1172 154.602 24.142 155.33 24.8253C156.197 25.6181 157.338 26.0409 158.511 26.0038C159.739 26.0038 160.661 25.7544 161.253 25.2625C161.801 24.8104 162.198 24.1997 162.389 23.5135C162.399 23.478 162.421 23.4469 162.45 23.4247C162.479 23.4026 162.515 23.3906 162.552 23.3906ZM154.632 18.1127C154.394 18.567 154.231 19.0574 154.149 19.5645V19.5782C154.147 19.602 154.15 19.6257 154.158 19.6483C154.166 19.6708 154.178 19.6914 154.194 19.7091C154.21 19.7266 154.229 19.7408 154.251 19.7507C154.272 19.7604 154.296 19.7658 154.319 19.7661H162.311C162.334 19.7656 162.358 19.7604 162.38 19.7507C162.401 19.7408 162.421 19.7268 162.437 19.7093C162.453 19.6918 162.466 19.6711 162.474 19.6486C162.482 19.6261 162.486 19.6021 162.484 19.5782C162.469 18.5791 162.062 17.6265 161.351 16.9274C160.64 16.2782 159.677 15.9572 158.463 15.9572C157.683 15.9458 156.912 16.13 156.221 16.4935C155.543 16.8629 154.99 17.4266 154.632 18.1127ZM84.0448 14.7446V27.2541C84.0448 27.2777 84.0496 27.3011 84.059 27.3227C84.0683 27.3444 84.082 27.3638 84.0994 27.3799C84.1165 27.3961 84.137 27.4082 84.1592 27.416C84.1815 27.4238 84.2051 27.4267 84.2285 27.4248H86.0997C86.1222 27.4254 86.1447 27.4212 86.1657 27.4129C86.1867 27.4046 86.2059 27.3919 86.222 27.3761C86.2382 27.3602 86.251 27.3411 86.2598 27.3203C86.2687 27.2993 86.2732 27.2768 86.2732 27.2541V20.135C86.2387 19.3427 86.4037 18.5543 86.7528 17.8428C87.031 17.3028 87.4666 16.8608 88.0013 16.5755C88.5139 16.312 89.0821 16.1761 89.6581 16.1793C91.7491 16.1793 92.7946 17.2917 92.7946 19.5167V27.2541C92.7946 27.2993 92.8126 27.3428 92.8445 27.3749C92.8764 27.4068 92.9196 27.4248 92.9648 27.4248H94.8393C94.8844 27.4248 94.9277 27.4068 94.9596 27.3749C94.9915 27.3428 95.0093 27.2993 95.0093 27.2541V20.135C94.9762 19.3435 95.1388 18.5561 95.4822 17.8428C95.7599 17.3011 96.197 16.8586 96.7342 16.5755C97.2482 16.3124 97.8174 16.1765 98.3943 16.1793C100.485 16.1793 101.531 17.2917 101.531 19.5167V27.2506C101.531 27.2733 101.535 27.2959 101.544 27.3169C101.553 27.3378 101.566 27.3567 101.582 27.3727C101.598 27.3886 101.617 27.4011 101.638 27.4094C101.659 27.4179 101.682 27.4219 101.704 27.4214H103.572C103.595 27.4219 103.617 27.4179 103.638 27.4094C103.659 27.4011 103.678 27.3886 103.695 27.3727C103.711 27.3567 103.724 27.3378 103.732 27.3169C103.741 27.2959 103.746 27.2733 103.746 27.2506V19.3938C103.757 18.4789 103.584 17.5712 103.235 16.7258C102.927 15.9711 102.396 15.3287 101.715 14.8846C100.935 14.4055 100.032 14.1679 99.119 14.2013C98.198 14.1578 97.2827 14.3681 96.4721 14.8094C95.8133 15.2075 95.2901 15.7972 94.9719 16.5003C94.9405 16.574 94.9029 16.6449 94.8596 16.7121C94.8398 16.7378 94.8138 16.7579 94.784 16.7705C94.7542 16.7832 94.7216 16.7877 94.6895 16.7839C94.6316 16.7807 94.576 16.7601 94.5299 16.7248C94.4838 16.6894 94.4493 16.641 94.4311 16.5857C94.1205 15.8735 93.6067 15.2696 92.9546 14.8505C92.1775 14.3896 91.2843 14.1642 90.3826 14.2013C89.5728 14.1673 88.7687 14.3539 88.0558 14.7411C87.4685 15.0867 86.9837 15.5832 86.6507 16.1793C86.5793 16.3022 86.5009 16.3637 86.4193 16.3637C86.3961 16.3677 86.372 16.3661 86.3493 16.359C86.3267 16.3521 86.3059 16.3396 86.2891 16.323C86.2721 16.3063 86.2593 16.2857 86.2519 16.2632C86.2444 16.2405 86.2423 16.2165 86.2458 16.193V14.7446C86.2458 14.6991 86.2279 14.6558 86.196 14.6237C86.1641 14.5917 86.1208 14.5737 86.0757 14.5737H84.215C84.1697 14.5737 84.1266 14.5917 84.0947 14.6237C84.0628 14.6558 84.0448 14.6991 84.0448 14.7446ZM106.62 14.7446V27.2541C106.62 27.278 106.625 27.3018 106.635 27.3236C106.644 27.3456 106.658 27.3652 106.676 27.3813C106.694 27.3974 106.714 27.4096 106.737 27.4172C106.76 27.4247 106.784 27.4273 106.807 27.4248H108.665C108.688 27.4254 108.71 27.4212 108.731 27.4129C108.752 27.4046 108.771 27.3919 108.787 27.3761C108.803 27.3602 108.816 27.3411 108.825 27.3203C108.834 27.2993 108.838 27.2768 108.838 27.2541V20.135C108.804 19.3427 108.969 18.5543 109.318 17.8428C109.596 17.3028 110.032 16.8608 110.566 16.5755C111.078 16.3124 111.645 16.1765 112.22 16.1793C114.313 16.1793 115.36 17.2917 115.36 19.5167V27.2541C115.36 27.2993 115.378 27.3428 115.41 27.3749C115.442 27.4068 115.485 27.4248 115.53 27.4248H117.405C117.45 27.4248 117.493 27.4068 117.525 27.3749C117.557 27.3428 117.575 27.2993 117.575 27.2541V20.135C117.54 19.3434 117.702 18.5555 118.048 17.8428C118.325 17.3011 118.762 16.8586 119.299 16.5755C119.813 16.3119 120.383 16.176 120.96 16.1793C123.051 16.1793 124.096 17.2917 124.096 19.5167V27.2643C124.096 27.287 124.101 27.3096 124.109 27.3305C124.118 27.3515 124.131 27.3704 124.147 27.3864C124.163 27.4023 124.183 27.4148 124.204 27.4231C124.225 27.4314 124.247 27.4356 124.27 27.4351H126.141C126.186 27.4351 126.229 27.417 126.261 27.3851C126.293 27.3531 126.311 27.3096 126.311 27.2643V19.4073C126.329 18.489 126.16 17.5764 125.814 16.7258C125.504 15.9716 124.974 15.3297 124.294 14.8846C123.514 14.4055 122.611 14.1679 121.698 14.2013C120.777 14.1575 119.861 14.3679 119.051 14.8094C118.392 15.2075 117.869 15.7972 117.551 16.5003C117.519 16.574 117.482 16.6449 117.439 16.7121C117.419 16.7378 117.393 16.7579 117.363 16.7705C117.333 16.7832 117.301 16.7877 117.269 16.7839C117.21 16.7807 117.155 16.7601 117.109 16.7248C117.063 16.6894 117.028 16.641 117.01 16.5857C116.699 15.8735 116.186 15.2696 115.533 14.8505C114.755 14.3892 113.861 14.1637 112.958 14.2013C112.149 14.1677 111.347 14.3542 110.635 14.7411C110.048 15.0867 109.563 15.5832 109.23 16.1793C109.158 16.3022 109.08 16.3637 108.998 16.3637C108.975 16.3677 108.951 16.3661 108.928 16.359C108.906 16.3521 108.885 16.3396 108.868 16.323C108.851 16.3063 108.838 16.2857 108.831 16.2632C108.823 16.2405 108.821 16.2165 108.825 16.193V14.7446C108.825 14.6991 108.807 14.6558 108.775 14.6237C108.743 14.5917 108.7 14.5737 108.655 14.5737H106.794C106.771 14.5733 106.749 14.5773 106.728 14.5858C106.707 14.5941 106.687 14.6066 106.671 14.6225C106.655 14.6385 106.642 14.6574 106.633 14.6783C106.625 14.6993 106.62 14.7219 106.62 14.7446ZM143.841 14.7376V27.2472C143.845 27.2902 143.864 27.3302 143.896 27.3593C143.927 27.3884 143.968 27.4046 144.011 27.4044H145.886C145.931 27.4044 145.974 27.3864 146.006 27.3543C146.038 27.3224 146.056 27.2789 146.056 27.2336V20.1145C146.056 18.878 146.335 17.9965 146.893 17.4637C147.451 16.9307 148.264 16.6677 149.332 16.6677H150.941C150.964 16.6677 150.986 16.6632 151.007 16.6544C151.028 16.6455 151.047 16.6327 151.063 16.6164C151.079 16.6003 151.091 16.5811 151.099 16.5599C151.108 16.5388 151.112 16.5162 151.111 16.4935V14.6626C151.111 14.6172 151.093 14.5738 151.061 14.5418C151.03 14.5097 150.986 14.4917 150.941 14.4917H149.672C148.964 14.4594 148.259 14.6173 147.631 14.9494C147.091 15.2824 146.682 15.7931 146.474 16.3944C146.423 16.5481 146.338 16.6164 146.219 16.6164C146.175 16.6147 146.134 16.596 146.103 16.5641C146.073 16.5322 146.056 16.4899 146.056 16.4457V14.7376C146.056 14.6924 146.038 14.6489 146.006 14.6168C145.974 14.5849 145.931 14.5669 145.886 14.5669H144.011C143.967 14.5678 143.924 14.586 143.892 14.6179C143.86 14.6497 143.842 14.6926 143.841 14.7376ZM140.885 27.2609V14.7513V14.7446C140.88 14.6997 140.857 14.6588 140.822 14.6307C140.787 14.6024 140.743 14.5894 140.698 14.5941H138.827C138.804 14.5938 138.782 14.5977 138.761 14.6062C138.74 14.6146 138.72 14.627 138.704 14.643C138.688 14.6589 138.675 14.6778 138.667 14.6988C138.658 14.7198 138.653 14.7423 138.653 14.765V21.2554C138.653 22.7973 138.305 23.9451 137.609 24.6989C136.913 25.4526 135.949 25.8296 134.717 25.8296C133.608 25.8296 132.758 25.5323 132.162 24.9141C131.567 24.2958 131.271 23.4143 131.271 22.2461V14.7548C131.271 14.7094 131.253 14.666 131.221 14.634C131.189 14.6019 131.146 14.5839 131.101 14.5839H129.226C129.181 14.5839 129.138 14.6019 129.106 14.634C129.074 14.666 129.056 14.7094 129.056 14.7548V22.6116C129.065 24.2741 129.519 25.5552 130.417 26.4547C131.315 27.3543 132.548 27.8041 134.115 27.8041C135.019 27.8452 135.918 27.6424 136.717 27.2165C137.352 26.841 137.886 26.3172 138.276 25.6896C138.354 25.57 138.439 25.5187 138.534 25.5187C138.575 25.5214 138.612 25.5395 138.64 25.5694C138.667 25.5994 138.682 25.6388 138.68 25.6793V27.2609C138.68 27.3063 138.698 27.3496 138.73 27.3817C138.762 27.4137 138.805 27.4318 138.851 27.4318H140.711C140.734 27.4321 140.757 27.4281 140.778 27.4196C140.799 27.4113 140.818 27.3988 140.834 27.3829C140.85 27.3669 140.863 27.348 140.872 27.3271C140.88 27.3061 140.885 27.2836 140.885 27.2609Z" fill="url(#paint0_linear_14789_203341)"/>
<defs>
<linearGradient id="paint0_linear_14789_203341" x1="82.8647" y1="1" x2="82.8647" y2="41" gradientUnits="userSpaceOnUse">
<stop stop-color="#E4E5E7"/>
<stop offset="1" stop-color="#E4E5E7" stop-opacity="0.7"/>
</linearGradient>
</defs>
</svg>
