<svg width="90" height="24" viewBox="0 0 90 24" fill="none" xmlns="http://www.w3.org/2000/svg">
<g clip-path="url(#clip0_1926_5543)">
<path d="M24.5991 14.7872L23.1864 15.4033L23.2174 15.39C24.1075 14.7207 24.6035 14.344 23.4255 13.4087L19.4 11.1261L11.7031 6.77797L12.0087 0.75C12.0087 0.75 20.4805 5.20892 23.74 7.38077C26.9949 9.55704 28.1685 12.8636 24.5991 14.7872Z" fill="#E4E5E7"/>
<path d="M16.495 3.16406L16.1362 9.28511L8.08955 12.9196L4.05513 10.6769C2.8727 9.75051 3.37313 9.36932 4.25441 8.69561L4.27656 8.67788L4.15256 8.73107L4.2057 8.70891L11.7918 5.32261L16.495 3.16406Z" fill="#E4E5E7"/>
<path d="M15.8264 17.2208L15.76 18.6923L15.5607 23.2532L10.9506 20.8198C8.40858 19.4414 5.44144 17.797 3.78959 16.7111C0.516883 14.5614 -0.683257 11.2549 2.87731 9.30908L4.1483 8.73288L4.2723 8.67969L4.25016 8.69742C3.36445 9.37556 2.86845 9.75231 4.05087 10.6787L8.08529 12.9214L11.3536 14.7343L15.8264 17.2208Z" fill="#E4E5E7"/>
<path d="M23.2247 15.3923L16.7058 18.2644L15.922 18.6146L15.7625 18.6855L10.9531 20.813L11.3561 14.7319L19.4117 11.1328L23.4372 13.411C24.6152 14.3418 24.1192 14.723 23.2247 15.3923Z" fill="#E4E5E7"/>
<path fill-rule="evenodd" clip-rule="evenodd" d="M78.2367 7.67397V9.69068H76.0579V15.4084C76.0579 15.7585 76.111 16.0289 76.2173 16.2151C76.328 16.3968 76.4698 16.5209 76.6469 16.5874C76.824 16.6539 77.0189 16.6893 77.2359 16.6893C77.3997 16.6893 77.5459 16.676 77.6832 16.6539C77.8205 16.6317 77.9267 16.6095 77.9976 16.5874L78.436 18.6263C78.2987 18.675 78.0995 18.7282 77.8382 18.7858C77.5858 18.8434 77.2713 18.8789 76.9038 18.8878C76.2528 18.9055 75.6638 18.808 75.1412 18.5908C74.6186 18.3692 74.2023 18.0279 73.8968 17.5669C73.5956 17.106 73.445 16.5298 73.4495 15.8383V9.69068H71.8906V7.67397H73.4495V5.02344H73.4539H76.0579V7.67397H78.2367ZM43.9609 7.67519V18.7339H46.5605V12.2316C46.5605 11.7618 46.6668 11.3452 46.8838 10.9861C47.1008 10.6271 47.3975 10.3479 47.7695 10.144C48.1504 9.93568 48.5755 9.83373 49.0494 9.83373C49.2708 9.83373 49.4966 9.84703 49.7314 9.88249C49.9749 9.91352 50.1476 9.94454 50.2584 9.98443V7.58654C50.1388 7.56438 49.9882 7.54665 49.8066 7.53779C49.6295 7.52449 49.4656 7.51562 49.3239 7.51562C48.6951 7.51562 48.1282 7.69292 47.6366 8.04307C47.1451 8.38879 46.7996 8.88078 46.6004 9.51904H46.4852V7.67519H43.9609ZM35.0628 18.222C35.8511 18.7052 36.7988 18.9489 37.9015 18.9489C38.8271 18.9489 39.6331 18.7805 40.3106 18.4392C40.9971 18.1024 41.5374 17.6281 41.9359 17.0297C42.3345 16.4225 42.5648 15.7311 42.6268 14.9465H40.1379C40.0582 15.3454 39.9209 15.6823 39.7128 15.9615C39.5046 16.2408 39.2478 16.4535 38.9422 16.6042C38.6411 16.7505 38.3001 16.8214 37.9148 16.8214C37.3701 16.8214 36.9006 16.6796 36.4977 16.3915C36.1035 16.0989 35.7935 15.6823 35.5721 15.146C35.3507 14.6008 35.2399 13.9537 35.2399 13.2002C35.2399 12.4556 35.3507 11.8173 35.5721 11.2854C35.7979 10.7536 36.1124 10.3458 36.5154 10.0621C36.9184 9.77401 37.3878 9.63217 37.9192 9.63217C38.5481 9.63217 39.0485 9.8139 39.4205 10.1729C39.7969 10.5319 40.0361 10.9752 40.1379 11.5071H42.6268C42.5692 10.7092 42.3345 10.0134 41.9226 9.41942C41.5108 8.81663 40.9572 8.35566 40.2619 8.02767C39.5711 7.69525 38.7784 7.53125 37.8838 7.53125C36.8077 7.53125 35.8732 7.77503 35.0805 8.25815C34.2967 8.73684 33.6855 9.41056 33.2559 10.2749C32.8264 11.1347 32.6094 12.1276 32.6094 13.249C32.6094 14.3659 32.8219 15.3543 33.2427 16.2142C33.6722 17.0652 34.2789 17.7389 35.0628 18.222ZM55.613 18.9534C54.5058 18.9534 53.5493 18.7229 52.7433 18.2619C51.9417 17.7965 51.3261 17.1405 50.8966 16.2895C50.467 15.4341 50.25 14.428 50.25 13.2711C50.25 12.132 50.467 11.1347 50.8966 10.2749C51.3306 9.41056 51.9417 8.73684 52.7211 8.25815C53.5006 7.77503 54.4217 7.53125 55.4757 7.53125C56.1577 7.53125 56.7998 7.64206 57.4021 7.86367C58.0088 8.08086 58.5491 8.41772 59.0141 8.86981C59.4835 9.32634 59.8511 9.90698 60.1213 10.6117C60.3914 11.312 60.5243 12.1497 60.5243 13.116V13.9138H52.8323C52.8403 14.5283 52.9596 15.06 53.1861 15.505C53.4209 15.9615 53.7486 16.3117 54.1693 16.5555C54.59 16.7948 55.086 16.9145 55.6484 16.9145C56.0293 16.9145 56.3703 16.8613 56.6758 16.7549C56.9814 16.6441 57.2471 16.4846 57.473 16.2718C57.6988 16.0591 57.8671 15.7975 57.9823 15.4873L60.4135 15.7621C60.2585 16.4048 59.9663 16.9677 59.5367 17.4464C59.1115 17.9206 58.5624 18.2929 57.8981 18.5545C57.2338 18.8248 56.4721 18.9534 55.613 18.9534ZM53.1684 10.953C52.9704 11.3216 52.861 11.7255 52.8368 12.1586H58.0266C58.0221 11.6577 57.9158 11.2145 57.7033 10.8245C57.4907 10.43 57.1984 10.1197 56.8176 9.89368C56.4456 9.66763 56.0071 9.55682 55.5111 9.55682C54.9797 9.55682 54.5103 9.68536 54.1117 9.94687C53.7087 10.1995 53.3943 10.5364 53.1684 10.953ZM63.1975 18.5811C63.7599 18.8293 64.3888 18.9534 65.0885 18.9534C65.6598 18.9534 66.1646 18.8736 66.5853 18.7229C67.0149 18.5589 67.3736 18.3461 67.657 18.0802C67.9449 17.8098 68.1663 17.5217 68.3258 17.2159H68.4099V18.7362H70.912V11.3342C70.912 10.6029 70.7792 9.98676 70.509 9.4992C70.2433 9.00722 69.8935 8.6216 69.4595 8.33793C69.0255 8.04983 68.5428 7.84151 68.0158 7.71741C67.4888 7.5933 66.9573 7.53125 66.4259 7.53125C65.6553 7.53125 64.9512 7.64649 64.3135 7.87697C63.6758 8.10302 63.1399 8.44431 62.6971 8.90084C62.2586 9.35294 61.9398 9.91141 61.7493 10.5851L64.1806 10.9308C64.309 10.5497 64.5615 10.2217 64.929 9.94244C65.301 9.6632 65.8059 9.5258 66.4436 9.5258C67.0459 9.5258 67.5065 9.6765 67.8298 9.97346C68.153 10.2704 68.3125 10.6915 68.3125 11.2322V11.2766C68.3125 11.5248 68.2195 11.7109 68.0335 11.8306C67.8519 11.9414 67.5596 12.0301 67.1566 12.0877C66.758 12.1409 66.231 12.2029 65.5845 12.2694C65.0486 12.327 64.5305 12.4201 64.0256 12.5486C63.5252 12.6728 63.0779 12.8589 62.6793 13.1027C62.2808 13.3465 61.9663 13.6745 61.7361 14.0822C61.5058 14.49 61.3906 15.0042 61.3906 15.6291C61.3906 16.356 61.5501 16.9632 61.8733 17.4597C62.2011 17.9517 62.6395 18.3284 63.1975 18.5811ZM67.1212 16.7283C66.7359 16.9367 66.2842 17.0386 65.7616 17.0386C65.2213 17.0386 64.774 16.9145 64.4242 16.6619C64.0743 16.4181 63.9016 16.0546 63.9016 15.5759C63.9016 15.2391 63.9902 14.9687 64.1673 14.7559C64.3445 14.5388 64.588 14.3703 64.8936 14.2507C65.1992 14.131 65.5446 14.0468 65.9343 13.9936C66.107 13.9714 66.3108 13.9448 66.5455 13.9094L66.5949 13.9019L66.595 13.9019C66.8138 13.8689 67.0361 13.8353 67.2585 13.7941C67.4976 13.7498 67.7146 13.7011 67.905 13.6434C68.0999 13.5858 68.2416 13.5238 68.3213 13.4573V14.7648C68.3213 15.1726 68.2195 15.5493 68.0069 15.8951C67.7988 16.2408 67.5065 16.5156 67.1212 16.7283ZM81.4933 18.2619C82.2993 18.7229 83.2558 18.9534 84.363 18.9534C85.2221 18.9534 85.9838 18.8248 86.6481 18.5545C87.3124 18.2929 87.8615 17.9206 88.2867 17.4464C88.7163 16.9677 89.0085 16.4048 89.1635 15.7621L86.7323 15.4873C86.6171 15.7975 86.4488 16.0591 86.223 16.2718C85.9971 16.4846 85.7314 16.6441 85.4258 16.7549C85.1203 16.8613 84.7748 16.9145 84.3984 16.9145C83.836 16.9145 83.34 16.7948 82.9193 16.5555C82.4986 16.3117 82.1709 15.9615 81.9361 15.505C81.7096 15.06 81.5903 14.5283 81.5823 13.9138H89.2743V13.116C89.2743 12.1497 89.1414 11.312 88.8713 10.6117C88.6011 9.90698 88.2335 9.32634 87.7641 8.86981C87.2991 8.41772 86.7588 8.08086 86.1521 7.86367C85.5498 7.64206 84.9077 7.53125 84.2257 7.53125C83.1717 7.53125 82.2506 7.77503 81.4711 8.25815C80.6917 8.73684 80.085 9.41056 79.6466 10.2749C79.217 11.1347 79 12.132 79 13.2711C79 14.428 79.217 15.4341 79.6466 16.2895C80.0761 17.1405 80.6917 17.7965 81.4933 18.2619ZM81.5868 12.1586C81.611 11.7255 81.7204 11.3216 81.9184 10.953C82.1443 10.5364 82.4587 10.1995 82.8617 9.94687C83.2603 9.68536 83.7297 9.55682 84.2611 9.55682C84.7571 9.55682 85.1956 9.66763 85.5676 9.89368C85.9484 10.1197 86.2407 10.43 86.4533 10.8245C86.6658 11.2145 86.7721 11.6577 86.7766 12.1586H81.5868Z" fill="#E4E5E7"/>
</g>
<defs>
<clipPath id="clip0_1926_5543">
<rect width="90" height="24" fill="white"/>
</clipPath>
</defs>
</svg>
