<svg width="150" height="24" viewBox="0 0 150 24" fill="none" xmlns="http://www.w3.org/2000/svg">
<path d="M58.7656 9.16113L60.4385 10.2832L61.0312 11.7646V17.7988L61.9209 19.0908L60.0996 20.4033L59.168 19.0273L58.9141 19.3018L56.9668 20.2969H55.6113L54.1719 19.8525L53.1338 19.2383L51.9062 17.46V16.1689L52.2236 14.708L53.8115 13.0986L55.8867 12.5693H57.2842L58.6816 13.0352L58.7656 13.0986V12.1885L58.5967 11.7646L57.877 11.2783L56.9453 11.0449H55.5898L54.8916 11.2988L54.3203 11.6807L53.7275 12.252L52.1602 10.6221L53.0068 9.83789L53.96 9.22461L55.3789 8.80078H57.3477L58.7656 9.16113ZM78.7891 9.16113L80.4619 10.2832L81.0547 11.7646V17.7988L81.9443 19.0908L80.123 20.4033L79.1914 19.0273L78.9375 19.3018L76.9902 20.2969H75.6348L74.1953 19.8525L73.1572 19.2383L71.9297 17.46V16.1689L72.2471 14.708L73.835 13.0986L75.9102 12.5693H77.3076L78.7051 13.0352L78.7891 13.0986V12.1885L78.6201 11.7646L77.9004 11.2783L76.9688 11.0449H75.6133L74.915 11.2988L74.3438 11.6807L73.751 12.252L72.1836 10.6221L73.0303 9.83789L73.9834 9.22461L75.4023 8.80078H77.3711L78.7891 9.16113ZM48.9092 20.1279H46.665V19.5137L45.373 20.2969H43.3828L41.1816 19.2598L39.7627 17.333L39.2969 15.7871V13.3525L39.7627 11.7646L41.1816 9.85938L43.3408 8.80078H45.2041L46.4746 9.2666L46.6436 9.39355V4.16406H48.9092V20.1279ZM86.9453 9.58398L88.2158 8.80078H90.2061L92.4072 9.83789L93.8262 11.7646L94.292 13.3105V15.7451L93.8262 17.333L92.4072 19.2383L90.248 20.2969H88.3643L87.1152 19.8311L86.9453 19.7041V20.1279H84.6797V4.16406H86.9453V9.58398ZM133.566 9.85938L134.688 11.4893L135.07 13.3105V15.8086L134.688 17.6299L133.566 19.2598L131.406 20.2969H129.162L127.024 19.2598L125.902 17.6299L125.5 15.8086V13.3105L125.902 11.4893L127.024 9.85938L129.162 8.80078H131.406L133.566 9.85938ZM99.1875 17.1416L99.6738 17.7979L100.691 18.0723H101.664L102.978 17.1836L103.507 16.4854V8.96875H105.772V20.127H103.528V19.4492L102.046 20.2959H100.353L98.3408 19.7666L96.9219 17.9248V8.96875H99.1875V17.1416ZM67.0693 9.24316H69.8428V11.4873H67.0693V17.2891L67.4502 17.7969L68.0225 18.0508H68.4668L70.1816 17.6064L70.7529 19.8086L68.5938 20.2949H67.5771L66.0107 19.7021L64.8037 17.9873V11.4873H62.8984V9.24316H64.8037V5.34766H67.0693V9.24316ZM112.257 9.24316H115.03V11.4873H112.257V17.2891L112.638 17.7969L113.21 18.0508H113.654L115.369 17.6064L115.941 19.8086L113.781 20.2949H112.766L111.198 19.7021L109.991 17.9873V11.4873H108.086V9.24316H109.991V5.34766H112.257V9.24316ZM120.616 9.24316H123.391V11.4873H120.616V17.2891L120.997 17.7969L121.569 18.0508H122.014L123.729 17.6064L124.301 19.8086L122.142 20.2949H121.125L119.558 19.7021L118.352 17.9873V11.4873H116.445V9.24316H118.352V5.34766H120.616V9.24316ZM16.3555 7.25781C23.5825 7.25798 29.4521 13.075 29.4521 20.2646H27.6641C27.664 14.0755 22.6071 9.04705 16.3555 9.04688C10.1038 9.04688 5.04693 14.0754 5.04688 20.2646H3.25781C3.25787 13.0749 9.12837 7.25781 16.3555 7.25781ZM16.3516 10.5117C21.779 10.512 26.1943 14.8699 26.1943 20.2646H24.4053C24.4053 15.875 20.8082 12.301 16.3516 12.3008C11.8947 12.3008 8.29688 15.8748 8.29688 20.2646H6.50781C6.50781 14.8697 10.9238 10.5117 16.3516 10.5117ZM16.3516 4C25.3772 4.00006 32.7031 11.2752 32.7031 20.2607H30.9141C30.914 12.2731 24.3991 5.78912 16.3516 5.78906C8.30401 5.78906 1.78914 12.273 1.78906 20.2607H0C7.37318e-05 11.2752 7.32592 4 16.3516 4ZM145.664 9.33008L146.998 11.1299V20.1279H144.732V11.9551L144.329 11.3838L143.271 11.0449H142.148L140.837 11.9131L140.328 12.6328V20.1279H138.062V8.96973H140.328V9.64746L141.789 8.80078H143.694L145.664 9.33008ZM87.4746 11.8496L86.9453 12.6113V16.9736L87.2842 17.3965L87.9609 17.8203L88.6602 18.0742H89.8672L90.9258 17.4814L91.8154 16.2744L92.0264 15.4697V13.5859L91.8154 12.8232L90.9463 11.5957L89.7822 11.0449H88.6396L87.4746 11.8496ZM128.549 11.5742L128.02 12.3154L127.766 13.5645V15.5127L128.02 16.8252L128.506 17.5234L129.586 18.0742H130.983L132.085 17.5234L132.551 16.8037L132.825 15.5127V13.5645L132.551 12.3369L132.042 11.5742L131.005 11.0449H129.544L128.549 11.5742ZM42.6631 11.6162L41.7744 12.8232L41.5625 13.6279V15.5332L41.7744 16.2744L42.6416 17.5029L43.8066 18.0527H44.9502L46.1143 17.248L46.6436 16.4863V12.125L46.3047 11.7012L45.627 11.2783L44.9287 11.0234H43.7217L42.6631 11.6162ZM54.9971 15.1309L54.3203 15.8301L54.1719 16.3809V16.8037L54.7012 17.5664L55.082 17.7773L55.9082 18.0527H56.501L57.877 17.5234L58.5967 16.7617L58.7656 16.2959V15.7031L58.4277 15.3428L57.9404 15.1104L56.9668 14.8135H56.1406L54.9971 15.1309ZM75.0205 15.1309L74.3438 15.8301L74.1953 16.3809V16.8037L74.7246 17.5664L75.1055 17.7773L75.9316 18.0527H76.5244L77.9004 17.5234L78.6201 16.7617L78.7891 16.2959V15.7031L78.4502 15.3428L77.9639 15.1104L76.9902 14.8135H76.1641L75.0205 15.1309Z" fill="white"/>
</svg>
