<svg xmlns="http://www.w3.org/2000/svg" width="182" height="28" viewBox="0 0 182 28" fill="none">
    <mask id="mask0_25736_60630" style="mask-type:luminance" maskUnits="userSpaceOnUse" x="0" y="3" width="181" height="22">
        <path d="M0.814392 3.5H180.364V24.5H0.814392V3.5Z" fill="white"/>
    </mask>
    <g mask="url(#mask0_25736_60630)">
        <path d="M52.9007 9.41988V18.5958H55.1866C55.7703 18.5874 56.3465 18.4618 56.8807 18.2264C57.415 17.991 57.8965 17.6507 58.2967 17.2256C59.1182 16.3545 59.5676 15.1973 59.5493 14C59.5671 13.4051 59.467 12.8125 59.2549 12.2564C59.0428 11.7003 58.7229 11.1917 58.3135 10.7597C57.9115 10.3345 57.4266 9.99614 56.8888 9.76553C56.3511 9.53492 55.7717 9.41693 55.1866 9.41883L52.9007 9.41988ZM55.1866 6.54288C59.4485 6.54288 62.672 9.84723 62.672 14C62.672 18.1527 59.4485 21.476 55.1866 21.476H50.1445C50.0474 21.4746 49.9548 21.4348 49.8869 21.3654C49.819 21.2959 49.7814 21.2024 49.7822 21.1053V6.92928C49.7815 6.88102 49.7904 6.83309 49.8082 6.78824C49.826 6.74339 49.8525 6.70249 49.8861 6.66787C49.9198 6.63326 49.9599 6.60561 50.0042 6.58651C50.0486 6.5674 50.0962 6.55722 50.1445 6.55653L55.1866 6.54288ZM73.6561 18.915C75.5912 18.9213 77.3395 17.7296 78.0839 15.8973C78.4494 15.0019 78.5472 14.0196 78.3655 13.0696C78.1838 12.1197 77.7303 11.2428 77.0602 10.5455C76.4025 9.8599 75.5522 9.39006 74.6217 9.19808C73.6912 9.0061 72.7244 9.10102 71.849 9.47028C70.0598 10.2263 68.8922 12.0144 68.888 14C68.888 16.7069 71.0206 18.9024 73.6561 18.915ZM73.6571 6.20478C78.1427 6.20478 81.571 9.74118 81.571 14C81.571 18.2588 78.1427 21.7952 73.6561 21.7952C69.1694 21.7952 65.7706 18.2756 65.7706 14C65.7706 9.72438 69.2009 6.20478 73.6571 6.20478ZM92.4668 18.914C95.1055 18.9077 97.2401 16.709 97.238 14.0021C97.2338 11.2931 95.095 9.10068 92.4574 9.09858C89.8177 9.09858 87.6767 11.291 87.6736 13.9989C87.6705 15.2965 88.1742 16.5439 89.0774 17.4755C89.5173 17.9299 90.044 18.2914 90.6262 18.5385C91.2085 18.7856 91.8344 18.9133 92.4668 18.914ZM92.4658 6.20373C96.9367 6.20373 100.366 9.72333 100.366 13.9989C100.366 18.2745 96.922 21.7941 92.4658 21.7941C88.0096 21.7941 84.5509 18.2756 84.5509 14C84.5509 9.72438 87.9802 6.20373 92.4658 6.20373ZM110.824 9.41883H107.6V13.3668H110.824C111.079 13.378 111.333 13.337 111.571 13.2464C111.809 13.1558 112.026 13.0174 112.209 12.8397C112.582 12.4775 112.795 11.9756 112.799 11.4485C112.808 11.1811 112.763 10.9147 112.667 10.665C112.571 10.4154 112.425 10.1876 112.239 9.99528C112.056 9.80652 111.836 9.65803 111.592 9.55931C111.348 9.4606 111.087 9.41382 110.824 9.42198V9.41883ZM104.482 6.92823C104.481 6.87997 104.49 6.83204 104.508 6.78719C104.526 6.74234 104.552 6.70144 104.586 6.66682C104.62 6.63221 104.66 6.60456 104.704 6.58546C104.748 6.56635 104.796 6.55617 104.844 6.55548H110.913C113.807 6.55548 115.902 8.73108 115.902 11.4642C115.924 13.3122 114.915 15.009 113.305 15.8364L116.104 20.9153C116.133 20.9585 116.153 21.0073 116.162 21.0586C116.171 21.1098 116.17 21.1624 116.157 21.213C116.145 21.2636 116.122 21.311 116.09 21.3523C116.059 21.3936 116.019 21.4279 115.973 21.4529C115.913 21.4852 115.844 21.4994 115.776 21.4938H113.319C113.251 21.4953 113.183 21.4772 113.125 21.4417C113.067 21.4061 113.02 21.3546 112.99 21.2933L110.293 16.2669H107.589V21.0927C107.589 21.1896 107.552 21.2829 107.485 21.3531C107.417 21.423 107.324 21.4631 107.227 21.4644H104.86C104.763 21.4628 104.67 21.4227 104.603 21.3531C104.535 21.2834 104.498 21.1898 104.499 21.0927L104.482 6.92823ZM124.03 9.48813V18.6651H126.316C126.899 18.6568 127.475 18.5317 128.009 18.2973C128.543 18.0629 129.025 17.7238 129.426 17.3001C130.248 16.43 130.698 15.2736 130.682 14.0766C130.7 13.4812 130.601 12.888 130.389 12.3312C130.178 11.7744 129.858 11.2649 129.449 10.8321C129.046 10.4061 128.561 10.0672 128.022 9.83637C127.483 9.60556 126.903 9.48775 126.317 9.49023L124.03 9.48813ZM126.316 6.60798C130.577 6.60798 133.8 9.91548 133.8 14.0777C133.8 18.2399 130.577 21.5463 126.316 21.5463H121.288C121.191 21.5438 121.099 21.504 121.03 21.435C120.962 21.365 120.925 21.2709 120.927 21.1736V6.99858C120.926 6.90129 120.963 6.80741 121.031 6.73754C121.098 6.66766 121.191 6.62749 121.288 6.62583L126.316 6.60798ZM143.31 10.2578L141.541 15.1644H145.075L143.31 10.2578ZM140.503 17.9375L139.345 21.204C139.322 21.2809 139.274 21.3478 139.208 21.3944C139.143 21.4409 139.064 21.4645 138.984 21.4613H136.472C136.408 21.4672 136.344 21.4556 136.286 21.4279C136.228 21.4002 136.178 21.3573 136.143 21.3038C136.106 21.2501 136.084 21.1879 136.078 21.1231C136.073 21.0584 136.084 20.9933 136.111 20.9342L141.538 6.77178C141.563 6.6971 141.612 6.6327 141.677 6.58836C141.742 6.54402 141.82 6.52215 141.899 6.52608H144.709C144.788 6.5215 144.866 6.54308 144.932 6.58748C144.997 6.63188 145.047 6.69664 145.072 6.77178L150.497 20.9342C150.537 21.0233 150.541 21.1245 150.508 21.2165C150.475 21.3085 150.408 21.3842 150.321 21.4277C150.263 21.4546 150.199 21.4655 150.135 21.4592H147.624C147.544 21.4623 147.466 21.4388 147.4 21.3925C147.335 21.3461 147.287 21.2795 147.263 21.203L146.105 17.9364L140.503 17.9375ZM153.409 10.577C153.409 8.23128 155.384 6.20373 158.502 6.20373C160.182 6.16625 161.809 6.79472 163.027 7.95198C163.082 8.0052 163.12 8.07414 163.136 8.14957C163.151 8.225 163.143 8.30333 163.113 8.37408C163.092 8.42024 163.063 8.46222 163.027 8.49798L161.636 9.91548C161.585 9.96737 161.521 10.0029 161.45 10.0173C161.38 10.0317 161.306 10.0244 161.24 9.99633C161.195 9.97757 161.155 9.95007 161.122 9.91548C160.467 9.30141 159.607 8.95329 158.709 8.93898C157.462 8.93898 156.539 9.68238 156.539 10.5402C156.539 13.3122 163.911 11.712 163.911 17.046C163.908 19.7498 161.918 21.7941 158.398 21.7941C157.421 21.804 156.452 21.6172 155.548 21.2449C154.645 20.8726 153.826 20.3224 153.139 19.6269C153.102 19.5916 153.073 19.5493 153.053 19.5023C153.033 19.4554 153.022 19.4049 153.022 19.3539C153.022 19.3029 153.033 19.2524 153.053 19.2055C153.073 19.1586 153.102 19.1162 153.139 19.0809L154.485 17.6991C154.519 17.6629 154.559 17.6339 154.604 17.6141C154.649 17.5943 154.698 17.5841 154.748 17.5841C154.797 17.5841 154.846 17.5943 154.891 17.6141C154.936 17.6339 154.977 17.6629 155.01 17.6991C155.857 18.5389 156.997 19.016 158.189 19.0295C159.748 19.0295 160.775 18.1758 160.775 17.1059C160.775 14.3328 153.407 15.933 153.407 10.598M177.28 6.90933V12.5142H171.039V6.91038C171.041 6.86221 171.032 6.8143 171.014 6.76955C170.996 6.7248 170.969 6.68412 170.935 6.64998C170.868 6.58035 170.775 6.54034 170.678 6.53868H168.311C168.263 6.53909 168.216 6.54906 168.171 6.56801C168.127 6.58697 168.087 6.61453 168.053 6.6491C168.02 6.68367 167.993 6.72457 167.976 6.76942C167.958 6.81427 167.949 6.86218 167.95 6.91038V21.0696C167.949 21.1669 167.986 21.2608 168.054 21.3307C168.122 21.4006 168.214 21.4407 168.311 21.4424H170.678C170.775 21.4407 170.868 21.4006 170.936 21.3307C171.004 21.2608 171.041 21.1669 171.039 21.0696V15.3765H177.275V21.0696C177.274 21.1669 177.311 21.2608 177.379 21.3307C177.447 21.4006 177.539 21.4407 177.637 21.4424H180.003C180.101 21.4407 180.193 21.4006 180.261 21.3307C180.329 21.2608 180.366 21.1669 180.364 21.0696V6.91038C180.366 6.86221 180.357 6.8143 180.339 6.76955C180.321 6.7248 180.294 6.68412 180.26 6.64998C180.193 6.58035 180.1 6.54034 180.003 6.53868H177.637C177.54 6.54143 177.449 6.58193 177.382 6.65147C177.315 6.721 177.278 6.81293 177.28 6.90933ZM36.4976 8.42868C34.8554 5.38368 31.6424 3.48948 28.1501 3.49998H1.72163C1.54343 3.50147 1.36955 3.55504 1.22142 3.65411C1.07328 3.75318 0.957362 3.89341 0.887929 4.05753C0.820125 4.22125 0.80259 4.40144 0.837557 4.57516C0.872525 4.74888 0.958413 4.90825 1.08428 5.03298L6.84143 10.7492C7.35268 11.2557 8.04325 11.5399 8.76293 11.5398H27.3941C28.7213 11.5251 29.807 12.5783 29.8207 13.8876C29.8354 15.198 28.7707 16.2711 27.4424 16.2848H14.5967C14.4183 16.2854 14.244 16.3382 14.0953 16.4367C13.9466 16.5353 13.83 16.6752 13.7599 16.8392C13.6911 17.0031 13.6729 17.1838 13.7075 17.3582C13.7421 17.5325 13.828 17.6926 13.9541 17.8178L19.7155 23.5382C20.2269 24.0443 20.9174 24.3281 21.637 24.3278H27.4466C35.0045 24.3278 40.7197 16.3478 36.4976 8.42553" fill="#94979E"/>
    </g>
</svg>
