<svg width="153" height="42" viewBox="0 0 153 42" fill="url(#gradient)" xmlns="http://www.w3.org/2000/svg">
<path fill-rule="evenodd" clip-rule="evenodd" d="M141.54 15.7917C138.537 15.7628 136.689 17.6108 137.151 22.1729C139.779 21.1334 142.464 19.8918 145.149 18.3904C144.37 16.0516 142.348 15.7917 141.54 15.7917ZM142.695 34.9929C135.101 34.9351 130.395 30.0843 130.395 22.2884C130.395 14.579 134.783 9.78595 141.858 9.78595C147.806 9.78595 151.53 13.5107 152.656 20.5559C148.556 23.2701 143.994 25.6666 139.201 27.5145C139.201 27.5145 140.443 28.4096 143.013 28.3808H152.368V34.9929H142.695ZM69.9904 34.9929V20.7292C69.9904 17.5242 69.1242 16.6002 66.1501 16.6002H62.974V34.9929H56.3041V10.0747H66.9009C73.4552 10.0747 76.6314 13.0776 76.6314 19.2855V34.9929H69.9904ZM90.2887 34.9929C82.666 34.9929 77.9307 30.2864 77.9307 22.606C77.9307 14.8678 82.6372 10.1036 90.231 10.1036H93.1184V16.9178H90.693C86.9394 16.9756 84.8027 19.0545 84.8027 22.6348C84.8027 26.0997 86.9394 28.1209 90.693 28.1498H93.2339V34.9929H90.2887ZM117.459 34.9929V19.2855C117.459 13.0776 120.635 10.0747 127.19 10.0747H130.279V16.6002H127.969C124.995 16.6002 124.129 17.5242 124.129 20.7292V34.9929H117.459ZM44.0038 15.7917C41.001 15.7628 39.153 17.6108 39.615 22.1729C42.2425 21.1334 44.9278 19.8918 47.6131 18.3904C46.8335 16.0516 44.8123 15.7917 44.0038 15.7917ZM45.1588 34.9929C37.565 34.9351 32.8585 30.0843 32.8585 22.2884C32.8585 14.579 37.2474 9.78595 44.3215 9.78595C50.2695 9.78595 53.9942 13.5107 55.1203 20.5559C51.0202 23.2701 46.4581 25.6666 41.6651 27.5145C41.6651 27.5145 42.9066 28.4096 45.4764 28.3808H54.8316V34.9929H45.1588ZM26.2464 28.3519V34.9929H0V14.9544C4.15784 14.0593 8.28681 12.9043 12.3003 11.4895C17.0934 9.81482 21.7421 7.82252 26.2464 5.48373V12.8755C22.435 14.7234 18.4793 16.3403 14.4658 17.7551C9.93263 19.3432 5.28393 20.6137 0.577478 21.5954V21.6531C9.26853 20.8447 17.8152 19.4298 26.2464 17.4664V24.2518C17.8152 26.1575 9.23965 27.5145 0.577478 28.2941V28.3519H26.2464ZM93.7536 22.5193C93.7536 30.5174 97.9692 35.4837 104.957 35.4837C111.944 35.4837 116.16 30.5174 116.16 22.5193C116.189 18.2749 115.063 14.9833 112.839 12.76C110.905 10.7965 108.104 9.7282 104.957 9.7282C101.809 9.7282 99.0087 10.7965 97.0741 12.76C94.8508 15.0121 93.7247 18.3038 93.7536 22.5193ZM100.164 22.6348C100.164 18.8524 102.098 16.2826 104.957 16.2826C107.815 16.2826 109.75 18.8235 109.75 22.6348C109.75 26.4173 107.844 28.8716 104.957 28.8716C102.069 28.8716 100.164 26.4173 100.164 22.6348Z" />
<defs>
    <linearGradient id="gradient" gradientTransform="rotate(90)">
      <stop offset="5%" stop-color="#E4E5E7" />
      <stop offset="95%" stop-color="rgba(228, 229, 231, 0.7)" />
    </linearGradient>
</defs>
</svg>
