<svg xmlns="http://www.w3.org/2000/svg" width="103" height="42" fill="none" viewBox="0 0 103 42"><g clip-path="url(#a)"><path fill="url(#b)" d="M64.719 35.37 52.968 23.618l3.376-3.376 11.75 11.75-3.375 3.376Zm21.999-18.407h4.774v17.904h-4.774V16.963ZM1.789 7.047h4.774v27.82H1.79V7.047Zm9.916 23.046h16.986v4.774H11.705v-4.774Zm0-11.57h16.986v4.775H11.705v-4.774Zm0-11.476h16.986v4.774H11.705V7.047Zm63.903 0h26.994v4.774H75.608V7.047ZM44.024 21.003c0-5.417 4.407-9.916 9.916-9.916s9.824 4.499 9.824 9.916v.092h4.774v-.092c0-8.08-6.61-14.69-14.69-14.69-8.08 0-14.69 6.61-14.69 14.69 0 8.08 6.518 14.69 14.598 14.69V30.92c-5.417-.092-9.732-4.5-9.732-9.916Z"/></g><defs><linearGradient id="b" x1="10.923" x2="10.923" y1="-1.465" y2="40.014" gradientUnits="userSpaceOnUse"><stop stop-color="#E4E5E7"/><stop offset="1" stop-color="#E4E5E7" stop-opacity=".7"/></linearGradient><clipPath id="a"><path fill="white" d="M.602 0h102v42h-102z"/></clipPath></defs></svg>