<svg width="105" height="28" viewBox="0 0 105 28" fill="none" xmlns="http://www.w3.org/2000/svg">
<g clip-path="url(#clip0_33142_98609)">
<path d="M9.19075 9.4681H-0.142578V18.8014L9.19075 28.1348V18.8014H18.5241L9.19075 9.4681H18.5241V0.134766H-0.142578L9.19075 9.4681ZM32.716 21.8553H35.8323V15.1408H43.2572V12.5271H35.8323V8.31188H43.8123V5.63622H32.716V21.8553ZM50.7605 10.2616C50.0036 10.2616 49.402 10.4324 48.9506 10.775C48.4996 11.117 48.173 11.6252 47.9605 12.2991H47.9295V10.3602H45.0568V21.8553H48.0384V15.4881C48.0384 14.8916 48.1369 14.3994 48.3392 14.0001C48.5409 13.6059 48.8107 13.3103 49.1631 13.1132C49.516 12.9161 49.905 12.8176 50.3405 12.8176C50.7873 12.8155 51.2336 12.8361 51.6783 12.88V10.2977C51.5643 10.2926 51.4291 10.2823 51.2738 10.2719C51.1232 10.2616 50.9524 10.2565 50.7605 10.2565V10.2616ZM60.7728 11.9518H60.7418C60.5086 11.5473 60.2181 11.2104 59.8709 10.9406C59.5232 10.6713 59.1347 10.469 58.6987 10.3287C58.2684 10.1889 57.802 10.1213 57.299 10.1213C56.3187 10.1213 55.4529 10.3756 54.7064 10.8787C53.9598 11.3812 53.3737 12.0813 52.9589 12.9785C52.5441 13.8758 52.3315 14.9128 52.3315 16.0948C52.3315 17.2768 52.5389 18.3402 52.9537 19.242C53.3685 20.1444 53.9495 20.8445 54.696 21.3424C55.4426 21.8398 56.3187 22.0942 57.3196 22.0942C57.8226 22.0942 58.289 22.0214 58.7198 21.8713C59.1501 21.7206 59.5386 21.5029 59.8864 21.2176C60.2336 20.9328 60.5138 20.5696 60.7418 20.1341H60.7831V21.8553H63.6925V10.3602H60.7728V11.9518ZM60.5396 17.9718C60.3012 18.5006 59.9746 18.9103 59.5495 19.2008C59.1238 19.4912 58.6265 19.6362 58.0507 19.6362C57.5115 19.6362 57.0394 19.4964 56.6349 19.2214C56.231 18.9464 55.9147 18.5424 55.6861 18.0182C55.4632 17.4946 55.3492 16.8517 55.3492 16.0948C55.3492 15.3379 55.4632 14.6894 55.6861 14.1657C55.909 13.642 56.2258 13.2427 56.6349 12.9682C57.0446 12.6932 57.5115 12.5534 58.0507 12.5534C58.6265 12.5534 59.1238 12.6984 59.5495 12.9889C59.9746 13.2793 60.3064 13.689 60.5396 14.2178C60.7779 14.7467 60.8925 15.3741 60.8925 16.0897C60.8925 16.8053 60.7728 17.4326 60.5396 17.9615V17.9718ZM81.1405 10.6037C80.5595 10.2874 79.9064 10.1316 79.1804 10.1316C78.5427 10.1316 77.9566 10.2456 77.4278 10.469C76.899 10.6919 76.448 11.0133 76.0796 11.4333C75.8413 11.7031 75.6545 12.0034 75.5095 12.3305C75.3202 11.7542 74.9606 11.2496 74.4777 10.8838C73.8291 10.3808 73.0671 10.1316 72.191 10.1316C71.6513 10.1316 71.1431 10.2301 70.6561 10.4324C70.1685 10.6295 69.7434 10.9406 69.375 11.3502C69.1109 11.6459 68.8931 11.9983 68.7167 12.4028V10.3602H65.8439V21.8553H68.8255V15.0268C68.8255 14.5031 68.9241 14.062 69.1212 13.7045C69.3183 13.3464 69.5824 13.0719 69.9095 12.8903C70.2413 12.7036 70.5988 12.6102 70.993 12.6102C71.5894 12.6102 72.0713 12.7918 72.4397 13.1602C72.8076 13.528 72.9943 14.0207 72.9943 14.6326V21.8501H75.8774V14.8607C75.8774 14.4201 75.9656 14.0259 76.1369 13.6838C76.3077 13.3413 76.5569 13.0771 76.8732 12.8903C77.1894 12.7036 77.5676 12.605 78.0087 12.605C78.5685 12.605 79.0458 12.7763 79.4446 13.1235C79.8439 13.4661 80.041 14.0053 80.041 14.7415V21.8501H83.0123V14.2488C83.0123 13.3567 82.841 12.605 82.5041 11.9879C82.1672 11.376 81.7054 10.9096 81.125 10.5934L81.1405 10.6037ZM94.2691 11.7651C93.7774 11.2352 93.1784 10.8162 92.5113 10.5361C91.8271 10.2461 91.0646 10.1006 90.2246 10.1006C89.136 10.1006 88.1717 10.3602 87.3369 10.8735C86.4964 11.3869 85.8433 12.102 85.3665 13.0095C84.8893 13.917 84.6509 14.9541 84.6509 16.1206C84.6509 17.2872 84.8841 18.3139 85.3454 19.2162C85.8123 20.1186 86.4706 20.8291 87.3209 21.3424C88.1717 21.8553 89.1773 22.1148 90.3335 22.1148C91.2462 22.1148 92.081 21.9487 92.8384 21.6221C93.5952 21.2955 94.2175 20.8445 94.7154 20.2688C95.2127 19.6935 95.5347 19.0243 95.6796 18.2726H92.9261C92.8224 18.5785 92.6619 18.8479 92.4339 19.0816C92.2053 19.3148 91.9257 19.5016 91.5831 19.6311C91.241 19.7606 90.852 19.8281 90.4165 19.8281C89.8046 19.8281 89.2913 19.6986 88.8662 19.434C88.441 19.175 88.1144 18.8066 87.8915 18.335C87.6893 17.9094 87.5804 17.4172 87.5598 16.8672H95.7937V16.0639C95.7937 15.1873 95.659 14.3834 95.3943 13.6524C95.1302 12.9213 94.7515 12.2939 94.2639 11.7651H94.2691ZM87.5856 14.902C87.632 14.498 87.7306 14.1296 87.8915 13.8082C88.1144 13.3624 88.4307 13.0147 88.8404 12.7711C89.25 12.5276 89.7324 12.4079 90.2819 12.4079C90.8314 12.4079 91.3344 12.5276 91.7389 12.7711C92.1434 13.0147 92.4597 13.3572 92.6825 13.8082C92.8435 14.1296 92.9421 14.498 92.9885 14.902H87.5908H87.5856ZM103.608 10.2771C103.457 10.2668 103.286 10.2616 103.095 10.2616C102.337 10.2616 101.736 10.4324 101.285 10.775C100.834 11.117 100.507 11.6252 100.295 12.2991H100.263V10.3602H97.391V21.8553H100.372V15.4881C100.372 14.8916 100.471 14.3994 100.673 14.0001C100.87 13.6059 101.145 13.3103 101.492 13.1132C101.839 12.9161 102.234 12.8176 102.669 12.8176C103.116 12.8155 103.563 12.8361 104.007 12.88V10.2977C103.893 10.2926 103.758 10.2823 103.602 10.2719L103.608 10.2771Z" fill="#94979E"/>
</g>
<defs>
<clipPath id="clip0_33142_98609">
<rect width="105" height="28" fill="white"/>
</clipPath>
</defs>
</svg>
