<svg width="70" height="24" viewBox="0 0 70 24" fill="none" xmlns="http://www.w3.org/2000/svg">
<g clip-path="url(#clip0_33744_9286)">
<path d="M31.3248 11.3213C28.3597 11.3213 25.9463 8.93912 25.961 6.01249C25.961 3.08587 28.3892 0.703682 31.3543 0.718822C32.8292 0.718822 34.1554 1.3215 35.1235 2.27764L34.2593 3.1307C33.4699 2.351 32.4269 1.92476 31.3242 1.92476C29.0895 1.92476 27.1675 3.73338 27.1975 6.05676C27.2276 8.29219 29.0152 10.0862 31.3095 10.1154C33.1419 10.1154 34.8705 8.89489 35.3471 6.99773C35.4067 6.71826 35.2875 6.63032 35.094 6.63032H31.3248V5.40983H35.7501C36.3011 5.40983 36.6438 5.79238 36.6438 6.3508C36.6438 8.89489 34.3348 11.3213 31.3248 11.3213Z" fill="currentColor"/>
<path d="M40.7416 2.07313H38.5959V5.41144H40.682V6.6174H38.5959V9.95571H40.7416V11.1616H37.3594V0.867188H40.7416V2.07313Z" fill="currentColor"/>
<path d="M41.7969 0.867188H43.0039L44.7915 6.6168C44.8216 6.7053 44.8658 6.73444 44.9254 6.71987C44.985 6.7053 44.985 6.6168 44.985 6.558L44.9401 0.867188H46.1171V11.1611H44.8953L43.1225 5.39631C43.1077 5.32294 43.0777 5.24897 43.0033 5.2641C42.9137 5.27867 42.929 5.39631 42.929 5.47024L42.9739 11.1611H41.7969V0.867188Z" fill="currentColor"/>
<path d="M50.6869 2.07313H48.5412V5.41144H50.6273V6.6174H48.5412V9.95571H50.6869V11.1616H47.3047V0.867188H50.6869V2.07313Z" fill="currentColor"/>
<path d="M54.521 6.6174H52.9866V11.1616H51.75V0.867188H54.2083C55.3705 0.867188 56.0561 1.58749 56.0561 2.67581V4.89608C56.0561 5.49878 55.8472 5.7783 55.4455 6.01354C55.8773 6.24878 56.0561 6.57253 56.0561 7.11643V11.1605H54.8195V6.92541C54.8195 6.74897 54.6856 6.6168 54.5216 6.6168L54.521 6.6174ZM54.8195 5.10223V2.38174C54.8195 2.20531 54.6856 2.07313 54.5216 2.07313H52.9872V5.41144H54.5216C54.6856 5.41144 54.8195 5.2641 54.8195 5.10283V5.10223Z" fill="currentColor"/>
<path d="M59.3473 0.703125C60.6735 0.703125 61.493 1.68837 61.493 2.8355V11.1589H60.2564V6.61463H58.4241V11.1589H57.1875V2.8355C57.1875 1.615 58.0813 0.703125 59.3479 0.703125H59.3473ZM59.6452 1.92362H59.0346C58.6919 1.92362 58.4241 2.18857 58.4241 2.5263V5.40867H60.2564V2.5263C60.2564 2.18799 59.988 1.92362 59.6458 1.92362H59.6452Z" fill="currentColor"/>
<path d="M66.0219 11.1611H64.7406C63.34 11.1611 62.625 10.3225 62.625 9.08747V0.867188H63.8616V9.6465C63.8616 9.80837 64.0108 9.95511 64.1742 9.95511H66.0219V11.1611Z" fill="currentColor"/>
<path d="M31.3395 23.247C28.3744 23.247 25.9609 20.8794 25.9609 17.9382C25.9609 14.997 28.3744 12.6445 31.3395 12.6445C33.2315 12.6445 34.8857 13.6152 35.8538 15.0709L34.8255 15.7324C34.2745 14.8648 33.1418 13.8499 31.3395 13.8499C29.0599 13.8499 27.1975 15.6882 27.1975 17.9382C27.1975 20.1882 29.0452 22.041 31.3395 22.041C33.0528 22.041 34.215 21.0412 34.8108 20.1736L35.8391 20.8351C34.8857 22.2909 33.2167 23.247 31.3395 23.247Z" fill="currentColor"/>
<path d="M38.7458 12.6289C40.072 12.6289 40.8914 13.6141 40.8914 14.7613V23.0846H39.6549V18.5404H37.8225V23.0846H36.5859V14.7613C36.5859 13.5408 37.4797 12.6289 38.7464 12.6289H38.7458ZM39.0437 13.85H38.4331C38.0903 13.85 37.8225 14.1149 37.8225 14.4526V17.335H39.6549V14.4526C39.6549 14.1143 39.3864 13.85 39.0443 13.85H39.0437Z" fill="currentColor"/>
<path d="M45.7898 13.9989H44.2553V23.0868H43.0188V13.9989H41.4844V12.793H45.7898V13.9989Z" fill="currentColor"/>
<path d="M48.5426 12.6289C49.8688 12.6289 50.6882 13.6141 50.6882 14.7613V23.0846H49.4517V18.5404H47.6193V23.0846H46.3828V14.7613C46.3828 13.5408 47.2766 12.6289 48.5432 12.6289H48.5426ZM48.8405 13.85H48.2299C47.8872 13.85 47.6193 14.1149 47.6193 14.4526V17.335H49.4517V14.4526C49.4517 14.1143 49.1833 13.85 48.8411 13.85H48.8405Z" fill="currentColor"/>
<path d="M55.2173 23.0868H53.9359C52.5353 23.0868 51.8203 22.2483 51.8203 21.0133V12.793H53.0569V21.5723C53.0569 21.7341 53.2061 21.8809 53.3696 21.8809H55.2173V23.0868Z" fill="currentColor"/>
<path d="M57.7241 18.5426V23.0717H56.4876V18.5426C55.5189 18.5426 54.9531 17.8659 54.9531 17.028V12.793H56.1896V17.028C56.1896 17.1899 56.3236 17.3366 56.4876 17.3366H57.7241C57.8881 17.3366 58.022 17.1893 58.022 17.028V12.793H59.2586V17.028C59.2586 17.8514 58.7223 18.5426 57.7241 18.5426Z" fill="currentColor"/>
<path d="M64.471 19.3929V21.1724C64.471 22.3783 63.6221 23.2459 62.3849 23.2459H62.2658C61.0292 23.2459 60.1797 22.3783 60.1797 21.1724V19.9076H61.4015V21.7314C61.4015 21.8932 61.5354 22.04 61.7141 22.04H62.936C63.1147 22.04 63.2486 21.8927 63.2486 21.7314V18.8344C63.2486 18.6726 63.1147 18.5404 62.936 18.5404H62.2658C61.044 18.5404 60.1797 17.6582 60.1797 16.4668V14.7025C60.1797 13.5111 61.044 12.6289 62.2658 12.6289H62.3849C63.6067 12.6289 64.471 13.5256 64.471 14.7025V15.9818H63.2492V14.1435C63.2492 13.9816 63.1153 13.8494 62.9366 13.8494H61.7147C61.536 13.8494 61.4021 13.9816 61.4021 14.1435V17.0258C61.4021 17.1877 61.536 17.3199 61.7147 17.3199H62.3702C63.6368 17.3199 64.471 18.1729 64.471 19.3935V19.3929Z" fill="currentColor"/>
<path d="M69.3289 13.9989H67.7945V23.0868H66.5579V13.9989H65.0234V12.793H69.3289V13.9989Z" fill="currentColor"/>
</g>
<g clip-path="url(#clip1_33744_9286)">
<path d="M20.5716 11.174V11.1694H11.3731V14.3813H18.7179C19.023 14.3813 19.243 14.6689 19.1598 14.9584C18.1758 18.3805 14.9387 20.8669 11.1312 20.7575C6.798 20.6329 3.31081 17.1094 3.28013 12.8301C3.24828 8.39179 6.88414 4.78386 11.3731 4.78386V1.54688C5.08774 1.54688 -0.00707203 6.57966 7.36885e-06 12.7858C0.00708677 19.0018 5.07596 23.998 11.3731 23.998C17.4401 23.998 22.3957 19.3087 22.7267 13.4025C22.7267 12.1901 21.696 11.1763 20.5716 11.1734V11.174Z" fill="currentColor"/>
<path d="M17.959 9.6813C19.72 9.6813 21.2633 8.76476 22.1281 7.38879L20.0173 6.09724C19.5907 6.77679 18.8285 7.22983 17.959 7.22983C16.6221 7.22983 15.5384 6.16011 15.5384 4.84063C15.5384 3.52116 16.6221 2.45148 17.959 2.45148C18.8274 2.45148 19.589 2.90334 20.0161 3.58172L22.1269 2.29018C21.2621 0.915956 19.7194 0 17.959 0C15.2505 0 13.0547 2.16732 13.0547 4.84063C13.0547 7.51397 15.2505 9.6813 17.959 9.6813Z" fill="currentColor"/>
</g>
<defs>
<clipPath id="clip0_33744_9286">
<rect width="43.7143" height="23.1429" fill="white" transform="translate(25.7109 0.429688)"/>
</clipPath>
<clipPath id="clip1_33744_9286">
<rect width="23.1429" height="24" fill="white"/>
</clipPath>
</defs>
</svg>
