<svg xmlns="http://www.w3.org/2000/svg" width="66" height="42" fill="none" viewBox="0 0 66 42"><g clip-path="url(#a)"><mask id="b" width="675" height="873" x="-558" y="-784" maskUnits="userSpaceOnUse" style="mask-type:luminance"><path fill="white" d="M-558 88.482h674.121V-783.91H-558V88.482Z"/></mask><g mask="url(#b)"><path fill="url(#c)" d="M26.686 29.188c-7.873 0-11.233-4.36-11.233-14.578 0-10.217 3.36-14.577 11.233-14.577 9.83 0 11.155 7.369 11.155 14.577 0 5.153-.798 8.636-2.514 10.96-1.798 2.434-4.625 3.617-8.64 3.617Zm0-26.163c-5.22 0-8.241 1.895-8.241 11.585 0 9.69 3.021 11.587 8.241 11.587 5.17 0 8.165-1.897 8.165-11.587S31.857 3.025 26.686 3.025Z"/><path fill="url(#d)" d="M9.336 1.001H6.519L.203 5.737 2.264 8c.42-.295 3.999-3.023 3.999-3.023v23.761h3.073V1.001Z"/><path fill="white" fill-opacity=".4" d="M51.77 14.932c-.448.657.412 2.082.412 2.082s1.635.286 2.084-.37l6.099-8.942h-3.666l-4.93 7.23Z"/><path fill="white" fill-opacity=".9" d="M47.717 16.644c.447.656 2.084.37 2.084.37s.86-1.425.412-2.082l-4.93-7.23h-3.666c1.59 2.33 5.943 8.71 6.1 8.942Z"/><path fill="white" fill-opacity=".8" d="m60.94 28.733-6.675-9.785c-.447-.657-2.084-.37-2.084-.37s-.86 1.425-.41 2.081c.356.525 4.042 5.93 5.514 8.091h3.6l.055-.017Z"/><path fill="white" fill-opacity=".6" d="M50.28 20.66c.447-.657-.413-2.082-.413-2.082s-1.635-.287-2.084.37c-.192.284-6.674 9.785-6.674 9.785l.055.017h3.6l5.515-8.09Z"/><path fill="url(#e)" d="M1.188 39.115v-2.903c0-1.903 1.445-3.084 3.312-3.084 1.686 0 3.143.891 3.143 2.59v.361h-1.12v-.23c0-1.142-.927-1.673-2.035-1.673-1.109 0-2.12.675-2.12 2v2.843c0 1.216.94 1.95 2.18 1.95 1.096 0 2-.59 2-1.734v-.71H4.234v-1.06h3.433v1.903c0 1.723-1.397 2.661-3.12 2.661-1.843 0-3.36-1.023-3.36-2.914Z"/></g><path fill="url(#f)" d="M9.719 33.257h5.662v1.047H10.9v2.614h3.83v1.037H10.9v2.854h4.517v1.048H9.719v-8.6Z"/><path fill="url(#g)" d="M17.32 33.257h1.169l4.191 6.565h.024v-6.565h1.133v8.6H22.68l-4.215-6.625h-.024v6.625h-1.12v-8.6Z"/><mask id="h" width="675" height="873" x="-558" y="-784" maskUnits="userSpaceOnUse" style="mask-type:luminance"><path fill="white" d="M-558 88.482h674.121V-783.91H-558V88.482Z"/></mask><g mask="url(#h)"><path fill="url(#i)" d="M25.797 39.115v-2.867c0-1.975 1.578-3.12 3.324-3.12 1.843 0 3.349 1.132 3.349 3.024v2.746c0 1.976-1.565 3.131-3.312 3.131-1.819 0-3.361-1.023-3.361-2.914Zm5.505-.145v-2.867c0-1.216-.94-1.927-2.205-1.927-1.108 0-2.12.687-2.12 2.036v2.807c0 1.216.94 1.95 2.18 1.95 1.097 0 2.145-.65 2.145-1.999Z"/></g><path fill="url(#j)" d="M34.46 33.269h1.446l2.53 5.3h.025l2.468-5.3h1.458v8.588h-1.144v-6.504h-.024l-2.326 4.854h-.94l-2.323-4.83h-.037v6.48h-1.132V33.27Z"/><path fill="url(#k)" d="M44.406 41.857H45.6V33.27h-1.193v8.588Z"/><mask id="l" width="675" height="873" x="-558" y="-784" maskUnits="userSpaceOnUse" style="mask-type:luminance"><path fill="white" d="M-558 88.482h674.121V-783.91H-558V88.482Z"/></mask><g mask="url(#l)"><path fill="url(#m)" d="M47.578 39.115v-2.903c0-1.903 1.445-3.084 3.325-3.084 1.686 0 3.132.964 3.132 2.662v.374h-1.12v-.241c0-1.145-.929-1.747-2.037-1.747-1.108 0-2.12.675-2.12 2v2.843c0 1.216.94 1.95 2.18 1.95 1.097 0 1.977-.602 1.977-1.746v-.157h1.12v.302c0 1.723-1.41 2.661-3.096 2.661-1.843 0-3.36-1.023-3.36-2.914Z"/><path fill="url(#n)" d="m55.305 39.932 1.072-.41c.338.927 1.18 1.457 2.276 1.457 1.049 0 1.928-.481 1.928-1.409 0-.82-.554-1.168-1.277-1.385l-1.566-.421c-1.18-.326-1.952-.916-1.952-2.24 0-1.482 1.241-2.399 2.83-2.399 1.362 0 2.543.531 2.964 1.699l-1.023.41c-.362-.735-1.036-1.108-1.964-1.108-.819 0-1.65.397-1.65 1.3 0 .651.47 1.06 1.373 1.313l1.579.434c1.01.265 1.842.88 1.842 2.3 0 1.506-1.277 2.543-3.132 2.543-1.565 0-2.89-.7-3.3-2.084Z"/><path fill="url(#o)" d="M64.258 35.975c-.204 0-.391-.037-.562-.108a1.385 1.385 0 0 1-.752-.756 1.452 1.452 0 0 1-.108-.566 1.433 1.433 0 0 1 .41-1.014 1.402 1.402 0 0 1 1.012-.41c.204 0 .392.037.566.109a1.356 1.356 0 0 1 .748.756c.073.174.11.36.11.559a1.453 1.453 0 0 1-.407 1.02 1.34 1.34 0 0 1-.45.302 1.473 1.473 0 0 1-.567.108Zm0-.246c.169 0 .324-.03.466-.09.14-.059.264-.142.368-.25a1.2 1.2 0 0 0 .336-.845c0-.168-.03-.324-.09-.468a1.124 1.124 0 0 0-.614-.618 1.195 1.195 0 0 0-.466-.09c-.168 0-.324.03-.465.09a1.125 1.125 0 0 0-.615.618c-.059.144-.089.3-.089.469 0 .168.03.325.09.47.059.143.14.268.245.375.105.107.227.19.37.25.14.06.296.089.464.089Zm-.499-.402c-.035 0-.052-.018-.052-.052V33.8c0-.035.017-.053.052-.053h.596c.174 0 .307.042.402.124a.432.432 0 0 1 .142.346c0 .11-.028.201-.083.275a.458.458 0 0 1-.23.164l.32.62c.015.033.005.05-.03.05h-.208c-.03 0-.052-.017-.068-.05l-.297-.582h-.283c-.02 0-.03.01-.03.03v.551c0 .034-.017.052-.053.052h-.178Zm.596-.887c.174 0 .261-.075.261-.223 0-.144-.087-.216-.261-.216h-.335c-.02 0-.03.01-.03.03v.38c0 .02.01.03.03.03h.335Z"/></g></g><defs><linearGradient id="c" x1="17.482" x2="17.482" y1="36.905" y2="-4.255" gradientUnits="userSpaceOnUse"><stop stop-color="#E4E5E7" stop-opacity=".7"/><stop offset="1" stop-color="#E4E5E7"/></linearGradient><linearGradient id="d" x1="1.031" x2="1.031" y1="36.08" y2="-3.078" gradientUnits="userSpaceOnUse"><stop stop-color="#E4E5E7" stop-opacity=".7"/><stop offset="1" stop-color="#E4E5E7"/></linearGradient><linearGradient id="e" x1="1.775" x2="1.775" y1="44.386" y2="31.819" gradientUnits="userSpaceOnUse"><stop offset=".465" stop-color="#E4E5E7"/><stop offset="1" stop-color="#E4E5E7" stop-opacity=".7"/></linearGradient><linearGradient id="f" x1="10.235" x2="10.235" y1="44.134" y2="31.992" gradientUnits="userSpaceOnUse"><stop offset=".465" stop-color="#E4E5E7"/><stop offset="1" stop-color="#E4E5E7" stop-opacity=".7"/></linearGradient><linearGradient id="g" x1="17.911" x2="17.911" y1="44.134" y2="31.992" gradientUnits="userSpaceOnUse"><stop offset=".465" stop-color="#E4E5E7"/><stop offset="1" stop-color="#E4E5E7" stop-opacity=".7"/></linearGradient><linearGradient id="i" x1="26.401" x2="26.401" y1="44.386" y2="31.819" gradientUnits="userSpaceOnUse"><stop offset=".465" stop-color="#E4E5E7"/><stop offset="1" stop-color="#E4E5E7" stop-opacity=".7"/></linearGradient><linearGradient id="j" x1="35.179" x2="35.179" y1="44.131" y2="32.006" gradientUnits="userSpaceOnUse"><stop offset=".465" stop-color="#E4E5E7"/><stop offset="1" stop-color="#E4E5E7" stop-opacity=".7"/></linearGradient><linearGradient id="k" x1="44.514" x2="44.514" y1="44.131" y2="32.006" gradientUnits="userSpaceOnUse"><stop offset=".465" stop-color="#E4E5E7"/><stop offset="1" stop-color="#E4E5E7" stop-opacity=".7"/></linearGradient><linearGradient id="m" x1="48.163" x2="48.163" y1="44.386" y2="31.819" gradientUnits="userSpaceOnUse"><stop offset=".465" stop-color="#E4E5E7"/><stop offset="1" stop-color="#E4E5E7" stop-opacity=".7"/></linearGradient><linearGradient id="n" x1="55.888" x2="55.888" y1="44.369" y2="31.818" gradientUnits="userSpaceOnUse"><stop offset=".465" stop-color="#E4E5E7"/><stop offset="1" stop-color="#E4E5E7" stop-opacity=".7"/></linearGradient><linearGradient id="o" x1="63.094" x2="63.094" y1="36.73" y2="32.702" gradientUnits="userSpaceOnUse"><stop offset=".465" stop-color="#E4E5E7"/><stop offset="1" stop-color="#E4E5E7" stop-opacity=".7"/></linearGradient><clipPath id="a"><path fill="white" d="M.203 0h65.431v42H.204z"/></clipPath></defs></svg>