<svg width="143" height="24" viewBox="0 0 143 24" fill="none" xmlns="http://www.w3.org/2000/svg">
<g clip-path="url(#clip0_33744_9309)">
<path d="M0 4V20.7664H1.95792V14.1945H2.00522L6.30319 20.7664H8.78701L4.05962 14.0786L8.07006 9.03929H5.68271L2.00522 14.1025H1.95792V4H0Z" fill="currentColor"/>
<path d="M16.9099 20.7664V12.8238C16.9099 11.3832 16.4313 10.3621 14.7608 10.3621C12.8029 10.3621 12.3017 11.8947 12.3017 13.8688V20.7664H10.3438V4H12.3017V10.5498H12.3981C13.185 9.17912 14.0932 8.80747 15.669 8.80747C17.7214 8.80747 18.8679 9.8065 18.8679 12.4522V20.7664H16.9099Z" fill="currentColor"/>
<path d="M21.7344 15.0787C21.7344 11.6419 22.1393 8.80859 26.3181 8.80859C30.4969 8.80859 30.9036 11.6419 30.9036 15.0787C30.9036 20.2578 28.8738 20.9993 26.3181 20.9993C23.7624 20.9993 21.7344 20.256 21.7344 15.0787ZM28.8492 14.2655C28.8492 11.0605 27.822 10.3651 26.3181 10.3651C24.8141 10.3651 23.7869 11.0624 23.7869 14.2655C23.7869 18.074 24.2882 19.4446 26.3181 19.4446C28.3479 19.4446 28.8492 18.074 28.8492 14.2655Z" fill="currentColor"/>
<path d="M37.3285 20.9972C34.7254 20.9972 33.1024 19.8823 33.1742 17.1888H35.3951C35.3951 17.8621 35.4197 19.4407 37.4003 19.4407C38.5713 19.4407 39.4774 18.8612 39.4774 17.6524C39.4774 15.5624 33.4599 15.5164 33.4599 12.0097C33.4599 10.7788 34.2241 8.80469 37.6141 8.80469C39.7631 8.80469 41.6018 9.80372 41.4335 12.1256H39.2599C39.2845 10.8947 38.6148 10.2453 37.3739 10.2453C36.3239 10.2453 35.5105 10.8027 35.5105 11.8238C35.5105 13.89 41.5281 13.844 41.5281 17.4206C41.5281 19.9982 39.7139 20.9972 37.3266 20.9972" fill="currentColor"/>
<path d="M46.0438 4H44.0859V20.7664H46.0438V4Z" fill="currentColor"/>
<path d="M55.4063 19.073H55.3591C54.7632 20.4197 53.8306 21.0011 52.3267 21.0011C49.7709 21.0011 49.0312 19.3986 49.0312 17.1467C49.0312 13.594 52.6123 13.4321 55.3591 13.5002C55.4064 11.9455 55.431 10.2492 53.3293 10.2492C52.0164 10.2492 51.3239 11.1084 51.4431 12.3392H49.3188C49.4134 9.71562 50.8473 8.80859 53.4011 8.80859C56.5054 8.80859 57.317 10.3651 57.317 12.3392V17.982C57.317 18.9111 57.4116 19.8641 57.5554 20.7693H55.4063V19.0748V19.073ZM50.9892 17.2847C50.9892 18.4217 51.5623 19.4446 52.8751 19.4446C54.0688 19.4446 55.5501 18.7253 55.3591 14.9389C53.4976 14.9628 50.9892 14.7991 50.9892 17.2847Z" fill="currentColor"/>
<path d="M64.5781 9.03906H66.7744L69.472 18.9779H69.5211L72.4344 9.03906H74.4869L70.7148 20.7662H68.1591L64.5781 9.03906Z" fill="currentColor"/>
<path d="M78.2286 15.5203C78.2286 18.7952 79.1366 19.4446 80.6632 19.4446C82.0006 19.4446 82.693 18.3996 82.7649 17.2148H84.9139C84.8893 19.8163 83.2435 21.0011 80.7105 21.0011C78.1775 21.0011 76.125 20.2578 76.125 15.0787C76.125 11.6419 76.5317 8.80859 80.7105 8.80859C84.1477 8.80859 85.0085 10.6429 85.0085 14.5213V15.5203H78.2267H78.2286ZM82.9314 14.0797C82.9314 10.6668 81.9533 10.2473 80.5194 10.2473C79.2785 10.2473 78.2513 10.8287 78.2267 14.0797H82.9295H82.9314Z" fill="currentColor"/>
<path d="M94.5671 20.7654V12.6371C94.5671 11.3841 94.113 10.3612 92.4426 10.3612C90.2936 10.3612 89.9835 12.2194 89.9835 13.8219V20.7654H88.0255V11.4761C88.0255 10.6629 87.9782 9.85156 87.9062 9.03835H89.9835V10.547H90.0799C90.8442 9.22417 91.7503 8.80469 93.3034 8.80469C95.8818 8.80469 96.5269 10.3133 96.5269 12.6352V20.7636H94.569L94.5671 20.7654Z" fill="currentColor"/>
<path d="M99.9416 9.04084V6.78889L101.9 5.92969V9.04084H104.526V10.4814H101.9V17.6568C101.9 18.4001 101.9 19.3513 103.691 19.3513C103.835 19.3513 104.145 19.3053 104.575 19.2574V20.7201C103.93 20.7661 103.285 20.9059 102.64 20.9059C100.778 20.9059 99.9416 20.1626 99.9416 18.8159V10.4814H97.9609V9.04084H99.9416Z" fill="currentColor"/>
<path d="M112.578 9.03906H114.536V18.3284C114.536 19.1416 114.584 19.953 114.655 20.7662H112.578V19.3495H112.506C111.861 20.4184 110.715 20.998 109.451 20.998C107.35 20.998 106.203 19.9769 106.203 17.9788V9.03906H108.161V17.1675C108.161 18.5841 108.831 19.5353 110.216 19.5353C111.265 19.5353 112.578 18.7681 112.578 16.8179V9.03906Z" fill="currentColor"/>
<path d="M119.856 10.8048H119.904C120.715 9.01649 121.718 8.80859 123.628 8.80859V10.7827C123.462 10.7588 123.271 10.7367 123.103 10.7128C122.936 10.6889 122.768 10.6668 122.579 10.6668C120.405 10.6668 119.856 12.2693 119.856 13.8479V20.7675H117.898V9.0404H119.856V10.8048Z" fill="currentColor"/>
<path d="M127.448 15.5203C127.448 18.7952 128.356 19.4446 129.882 19.4446C131.22 19.4446 131.912 18.3996 131.984 17.2148H134.133C134.108 19.8163 132.463 21.0011 129.93 21.0011C127.397 21.0011 125.344 20.2578 125.344 15.0787C125.344 11.6419 125.751 8.80859 129.93 8.80859C133.367 8.80859 134.228 10.6429 134.228 14.5213V15.5203H127.446H127.448ZM132.151 14.0797C132.151 10.6668 131.172 10.2473 129.739 10.2473C128.498 10.2473 127.47 10.8287 127.446 14.0797H132.149H132.151Z" fill="currentColor"/>
<path d="M140.797 20.9972C138.195 20.9972 136.571 19.8823 136.643 17.1888H138.864C138.864 17.8621 138.889 19.4407 140.869 19.4407C142.038 19.4407 142.946 18.8612 142.946 17.6524C142.946 15.5624 136.929 15.5164 136.929 12.0097C136.929 10.7788 137.693 8.80469 141.083 8.80469C143.232 8.80469 145.071 9.80372 144.902 12.1256H142.729C142.754 10.8947 142.084 10.2453 140.843 10.2453C139.793 10.2453 138.98 10.8027 138.98 11.8238C138.98 13.89 144.997 13.844 144.997 17.4206C144.997 19.9982 143.183 20.9972 140.794 20.9972" fill="currentColor"/>
</g>
<defs>
<clipPath id="clip0_33744_9309">
<rect width="145" height="17" fill="white" transform="translate(0 4)"/>
</clipPath>
</defs>
</svg>
