<svg xmlns="http://www.w3.org/2000/svg" width="220" height="42" fill="none" viewBox="0 0 220 42"><g clip-path="url(#a)"><path fill="url(#b)" d="M42.751 36.535V15.593h3.259l5.668 15.076c.481 1.303.963 2.352 1.19 3.769h.085c.198-1.417.68-2.437 1.19-3.77l5.696-15.075h3.117v20.942h-2.125v-14.51c0-1.161.056-2.72.141-4.222h-.056l-6.971 18.732h-2.21L44.79 17.803h-.056c.085 1.36.141 2.89.141 4.223v14.509h-2.125Z"/><path fill="url(#c)" d="M71.411 36.931c-3.032 0-5.44-1.615-5.44-4.307 0-3.004 2.691-4.732 6.517-4.732 1.672 0 2.919.283 4.562.821V27.07c0-3.23-1.502-4.59-4.25-4.59-2.267 0-3.94 1.133-4.024 2.946 0 .227 0 .312.085.51l-1.87-.17c-.029-3.06 2.691-4.76 5.95-4.76 3.797 0 6.15 1.841 6.15 5.837v7.113c0 1.048.283 1.36.878 1.36.34 0 .624-.113.822-.368l.198 1.53c-.425.255-.878.453-1.672.453-1.133 0-2.153-.566-2.153-2.295v-.822c-.879 1.672-3.06 3.117-5.753 3.117Zm-3.4-4.562c0 1.842 1.558 3.06 3.825 3.06 2.805 0 5.243-2.096 5.243-4.335v-1.077c-1.53-.567-2.692-.85-4.478-.85-2.777 0-4.59 1.275-4.59 3.202Z"/><path fill="url(#d)" d="M88.492 36.931c-4.42 0-6.63-2.295-6.546-5.299l1.842-.198c-.056.312-.056.652 0 1.105.227 1.559 1.87 2.89 4.704 2.89 2.409 0 4.081-1.161 4.081-2.692 0-1.558-1.105-2.38-3.486-2.918l-2.153-.482c-2.862-.624-4.336-1.757-4.336-3.94 0-2.776 2.295-4.391 5.866-4.391 3.486 0 5.752 1.813 5.64 4.76l-1.73.284c.057-.312.057-.624 0-1.077-.226-1.615-1.926-2.522-3.91-2.522-2.465 0-3.882 1.048-3.882 2.72 0 1.87 1.502 2.239 2.919 2.579l2.521.623c2.664.624 4.535 1.616 4.535 4.166 0 2.749-2.636 4.392-6.065 4.392Z"/><path fill="url(#e)" d="M102.247 36.931c-2.21 0-3.967-1.36-3.967-4.76v-9.238h-2.947v-1.53c.878-.029 1.53-.029 2.04-.227.794-.17 1.049-.794 1.219-2.466l.17-1.955h1.53v4.647h4.789v1.53h-4.789v9.409c0 2.125.992 2.919 2.295 2.919.992 0 1.786-.397 2.551-1.332l.595 1.587c-1.077.991-2.239 1.416-3.486 1.416Z"/><path fill="url(#f)" d="M113.95 36.931c-4.421 0-7.708-3.202-7.708-7.962 0-4.648 3.259-7.963 7.623-7.963 4.421 0 7.198 3.287 7.283 7.764 0 .114 0 .425-.028.595h-12.809c.085 3.514 2.352 5.98 5.696 5.98 3.202 0 4.931-2.097 4.931-3.968 0-.198 0-.368-.057-.567l1.898.227c.114 3.032-2.493 5.894-6.829 5.894Zm-5.582-9.181h10.796c-.312-2.919-2.238-5.186-5.299-5.186-2.89 0-5.157 2.125-5.497 5.186Z"/><path fill="url(#g)" d="M124.1 36.535V21.402h1.955v3.146c.595-2.012 2.239-3.542 4.449-3.542 1.133 0 2.125.453 2.749 1.02l-.709 1.7c-.226-.312-1.162-1.02-2.408-1.02-2.522 0-3.968 2.352-3.968 5.214v8.615H124.1Z"/><path fill="url(#h)" d="M140.007 36.931c-4.421 0-6.631-2.295-6.546-5.299l1.842-.198c-.057.312-.057.652 0 1.105.227 1.559 1.87 2.89 4.704 2.89 2.409 0 4.081-1.161 4.081-2.692 0-1.558-1.106-2.38-3.486-2.918l-2.154-.482c-2.862-.624-4.335-1.757-4.335-3.94 0-2.776 2.295-4.391 5.866-4.391 3.485 0 5.752 1.813 5.639 4.76l-1.729.284c.057-.312.057-.624 0-1.077-.227-1.615-1.927-2.522-3.91-2.522-2.466 0-3.883 1.048-3.883 2.72 0 1.87 1.502 2.239 2.919 2.579l2.522.623c2.664.624 4.534 1.616 4.534 4.166 0 2.749-2.635 4.392-6.064 4.392Z"/><path fill="url(#i)" d="M155.573 36.931c-4.59 0-7.679-3.372-7.679-7.934 0-4.59 3.089-7.991 7.679-7.991 4.308 0 6.83 3.06 6.745 6.177l-1.927.227c.057-.227.057-.369.057-.567 0-1.898-1.616-4.222-4.79-4.222-3.542 0-5.667 2.72-5.667 6.376 0 3.655 2.125 6.347 5.667 6.347 3.146 0 4.79-2.323 4.79-4.222 0-.227 0-.368-.057-.595l1.927.255c.085 3.089-2.437 6.15-6.745 6.15Z"/><path fill="url(#j)" d="M165.254 36.535V15.31h2.069v8.898c.878-1.842 2.975-3.202 5.469-3.202 3.485 0 5.894 2.493 5.894 6.262v9.267h-2.069v-8.927c0-3.032-1.757-4.987-4.392-4.987-2.976 0-4.902 2.352-4.902 4.987v8.927h-2.069Z"/><path fill="url(#k)" d="M189.249 36.931c-4.421 0-7.85-3.343-7.85-7.962 0-4.62 3.429-7.963 7.85-7.963 4.42 0 7.849 3.343 7.849 7.962 0 4.62-3.429 7.963-7.849 7.963Zm-5.781-7.962c0 3.57 2.352 6.375 5.781 6.375 3.4 0 5.781-2.777 5.781-6.376 0-3.542-2.352-6.347-5.781-6.347s-5.781 2.749-5.781 6.348Z"/><path fill="url(#l)" d="M206.749 36.931c-4.421 0-7.85-3.343-7.85-7.962 0-4.62 3.429-7.963 7.85-7.963 4.421 0 7.849 3.343 7.849 7.962 0 4.62-3.428 7.963-7.849 7.963Zm-5.781-7.962c0 3.57 2.352 6.375 5.781 6.375 3.4 0 5.781-2.777 5.781-6.376 0-3.542-2.352-6.347-5.781-6.347s-5.781 2.749-5.781 6.348Z"/><path fill="url(#m)" d="M217.533 36.535V15.31h2.069v21.225h-2.069Z"/><path fill="url(#n)" d="M31.685 5.451H21.324v10.361H10.963v10.362H.602v10.36h20.722V25.138h10.361V5.451Z"/></g><defs><linearGradient id="b" x1="20.443" x2="20.443" y1="-2.882" y2="41.561" gradientUnits="userSpaceOnUse"><stop stop-color="#E4E5E7"/><stop offset="1" stop-color="#E4E5E7" stop-opacity=".7"/></linearGradient><linearGradient id="c" x1="20.443" x2="20.443" y1="-2.882" y2="41.561" gradientUnits="userSpaceOnUse"><stop stop-color="#E4E5E7"/><stop offset="1" stop-color="#E4E5E7" stop-opacity=".7"/></linearGradient><linearGradient id="d" x1="20.443" x2="20.443" y1="-2.882" y2="41.561" gradientUnits="userSpaceOnUse"><stop stop-color="#E4E5E7"/><stop offset="1" stop-color="#E4E5E7" stop-opacity=".7"/></linearGradient><linearGradient id="e" x1="20.443" x2="20.443" y1="-2.882" y2="41.561" gradientUnits="userSpaceOnUse"><stop stop-color="#E4E5E7"/><stop offset="1" stop-color="#E4E5E7" stop-opacity=".7"/></linearGradient><linearGradient id="f" x1="20.443" x2="20.443" y1="-2.882" y2="41.561" gradientUnits="userSpaceOnUse"><stop stop-color="#E4E5E7"/><stop offset="1" stop-color="#E4E5E7" stop-opacity=".7"/></linearGradient><linearGradient id="g" x1="20.443" x2="20.443" y1="-2.882" y2="41.561" gradientUnits="userSpaceOnUse"><stop stop-color="#E4E5E7"/><stop offset="1" stop-color="#E4E5E7" stop-opacity=".7"/></linearGradient><linearGradient id="h" x1="20.443" x2="20.443" y1="-2.882" y2="41.561" gradientUnits="userSpaceOnUse"><stop stop-color="#E4E5E7"/><stop offset="1" stop-color="#E4E5E7" stop-opacity=".7"/></linearGradient><linearGradient id="i" x1="20.443" x2="20.443" y1="-2.882" y2="41.561" gradientUnits="userSpaceOnUse"><stop stop-color="#E4E5E7"/><stop offset="1" stop-color="#E4E5E7" stop-opacity=".7"/></linearGradient><linearGradient id="j" x1="20.443" x2="20.443" y1="-2.882" y2="41.561" gradientUnits="userSpaceOnUse"><stop stop-color="#E4E5E7"/><stop offset="1" stop-color="#E4E5E7" stop-opacity=".7"/></linearGradient><linearGradient id="k" x1="20.443" x2="20.443" y1="-2.882" y2="41.561" gradientUnits="userSpaceOnUse"><stop stop-color="#E4E5E7"/><stop offset="1" stop-color="#E4E5E7" stop-opacity=".7"/></linearGradient><linearGradient id="l" x1="20.443" x2="20.443" y1="-2.882" y2="41.561" gradientUnits="userSpaceOnUse"><stop stop-color="#E4E5E7"/><stop offset="1" stop-color="#E4E5E7" stop-opacity=".7"/></linearGradient><linearGradient id="m" x1="20.443" x2="20.443" y1="-2.882" y2="41.561" gradientUnits="userSpaceOnUse"><stop stop-color="#E4E5E7"/><stop offset="1" stop-color="#E4E5E7" stop-opacity=".7"/></linearGradient><linearGradient id="n" x1="20.443" x2="20.443" y1="-2.882" y2="41.561" gradientUnits="userSpaceOnUse"><stop stop-color="#E4E5E7"/><stop offset="1" stop-color="#E4E5E7" stop-opacity=".7"/></linearGradient><clipPath id="a"><path fill="white" d="M.602 0h219v42h-219z"/></clipPath></defs></svg>