<svg width="61" height="24" viewBox="0 0 61 24" fill="none" xmlns="http://www.w3.org/2000/svg">
<g clip-path="url(#clip0_33744_9268)">
<mask id="mask0_33744_9268" style="mask-type:luminance" maskUnits="userSpaceOnUse" x="0" y="0" width="61" height="24">
<path d="M60.8574 0H0V24H60.8574V0Z" fill="white"/>
</mask>
<g mask="url(#mask0_33744_9268)">
<path d="M24.7717 2.7296V0.281666H16.0168V12.591H24.7645V10.1605H18.7262V7.60704H24.1625V5.2646H18.7262V2.7296H24.7707H24.7717ZM35.2625 0.281666V8.20518L29.3055 0.281666H26.7701V12.591H29.4784V4.87743L35.2625 12.591H37.9719V0.281666H35.2625ZM43.0615 10.1431V0.281666H40.352V12.59H48.2374V10.142H43.0615V10.1431ZM10.9273 0.281666L6.85133 8.1765L2.77541 0.281666H0.0546875V12.591H2.76306V6.18234L6.07241 12.591H7.63031L10.9273 6.20484V12.591H13.6367V0.281666H10.9273ZM54.5895 10.31C52.4358 10.31 50.6906 8.5401 50.6906 6.35748C50.6906 4.17481 52.4358 2.40491 54.5895 2.40491C56.7433 2.40491 58.4885 4.17481 58.4885 6.35748C58.4885 8.5401 56.7422 10.31 54.5895 10.31ZM54.5895 0C51.1259 0 48.3187 2.84636 48.3187 6.35748C48.3187 9.86856 51.1259 12.7149 54.5895 12.7149C58.0532 12.7149 60.8596 9.86856 60.8596 6.35748C60.8596 2.84636 58.0522 0 54.5895 0Z" fill="currentColor"/>
<path d="M4.47512 18.4219L2.70109 23.0269H2.66713L0.841656 18.4219H0.078125L2.24729 23.8954H3.05199L5.22939 18.4219H4.47512Z" fill="currentColor"/>
<path d="M12.6522 23.8954H8.80469V18.4219H12.576V19.0477H9.52499V20.7674H11.9504V21.385H9.52499V23.2696H12.6522V23.8954Z" fill="currentColor"/>
<path d="M20.1891 22.61V18.4219H20.8837V23.8954H20.292L17.1556 19.4994V23.8954H16.4609V18.4219H17.2327L20.1891 22.61Z" fill="currentColor"/>
<path d="M26.5014 23.8954V19.0477H24.5391V18.4219H29.2344V19.0477H27.2382V23.8954H26.5014Z" fill="currentColor"/>
<path d="M32.6562 21.8019V18.4219H33.393V21.8101C33.393 22.8528 33.8982 23.3659 34.8419 23.3659C35.7855 23.3659 36.3072 22.8528 36.3072 21.8193V18.4219H37.0357V21.8019C37.0357 23.4007 36.0582 23.9999 34.8419 23.9999C33.6256 23.9999 32.6562 23.4007 32.6562 21.8019Z" fill="currentColor"/>
<path d="M43.1116 21.088C44.0284 21.088 44.44 20.7408 44.44 20.0627C44.44 19.4369 44.0284 19.0375 43.1116 19.0375H41.6884V21.088H43.1116ZM44.4915 23.8944C44.3886 23.7469 44.3114 23.3475 44.2682 22.7043C44.2342 22.0959 43.9513 21.6882 43.2145 21.6882H41.6895V23.8954H40.9609V18.4219H43.1548C44.5265 18.4219 45.1861 19.0651 45.1861 20.0382C45.1861 20.8811 44.6201 21.3235 43.9605 21.4024C44.6201 21.5325 44.9371 21.9412 44.9885 22.5844C45.0574 23.3844 45.0832 23.6967 45.2632 23.8965H44.4915V23.8944Z" fill="currentColor"/>
<path d="M52.9032 23.8954H49.0547V18.4219H52.826V19.0477H49.775V20.7674H52.2004V21.385H49.775V23.2696H52.9032V23.8954Z" fill="currentColor"/>
<path d="M56.7881 21.8961C56.8314 22.8958 57.5074 23.4079 58.416 23.4079C59.2218 23.4079 59.727 23.0607 59.727 22.4605C59.727 21.9565 59.4018 21.7128 58.699 21.5745L57.6278 21.3655C56.8314 21.2088 56.2819 20.7745 56.2819 19.9234C56.2819 18.9678 57.0279 18.3164 58.2102 18.3164C59.5644 18.3164 60.3441 19.0467 60.3525 20.2798L59.6755 20.3147C59.6498 19.4113 59.1096 18.8982 58.2184 18.8982C57.4384 18.8982 57.0012 19.272 57.0012 19.8794C57.0012 20.4181 57.352 20.5923 57.9777 20.7131L58.9542 20.9046C59.94 21.0962 60.4371 21.5305 60.4371 22.4082C60.4371 23.4161 59.5798 23.9979 58.414 23.9979C57.0855 23.9979 56.1172 23.2594 56.1172 21.9391L56.7861 21.8961H56.7881Z" fill="currentColor"/>
<path d="M60.4866 15.2695H0V15.7376H60.4866V15.2695Z" fill="currentColor"/>
</g>
</g>
<defs>
<clipPath id="clip0_33744_9268">
<rect width="61.2" height="24" fill="white"/>
</clipPath>
</defs>
</svg>
