<svg xmlns="http://www.w3.org/2000/svg" width="101" height="28" viewBox="0 0 101 28" fill="none">
    <path d="M37.1817 4.64325H40.9428L47.3394 16.2122L53.7348 4.64325H57.4145V23.654H54.3464V9.08358L48.738 19.1735H45.8593L40.2499 9.08252V23.653H37.1817V4.64325ZM67.3161 23.9947C65.8949 23.9947 64.6454 23.6801 63.5677 23.051C62.5006 22.432 61.6283 21.5263 61.0497 20.4367C60.4467 19.3223 60.1455 18.0457 60.1462 16.6069C60.1462 15.1497 60.4403 13.8596 61.0285 12.7368C61.5859 11.6486 62.4346 10.7366 63.4799 10.1024C64.5252 9.46904 65.727 9.15235 67.0855 9.15235C68.434 9.15235 69.595 9.47151 70.5683 10.1098C71.5417 10.7474 72.2907 11.6414 72.8155 12.7918C73.3402 13.9415 73.603 15.29 73.6037 16.8375V17.6796H63.1868C63.3773 18.8392 63.8456 19.7512 64.5918 20.4156C65.3387 21.0814 66.2828 21.4143 67.424 21.4143C68.3381 21.4143 69.1256 21.2785 69.7865 21.007C70.478 20.7145 71.1088 20.2954 71.6464 19.7713L73.2757 21.7666C71.6556 23.252 69.6697 23.9947 67.3161 23.9947ZM69.5569 12.7167C68.9137 12.0607 68.0715 11.7328 67.0304 11.7328C66.0169 11.7328 65.1684 12.0678 64.485 12.7378C63.8015 13.4079 63.3691 14.3082 63.1879 15.4388H70.6572C70.5655 14.28 70.1987 13.3726 69.5569 12.7167ZM77.3246 12.0025H74.4998V9.4909H77.3246V5.33517H80.2848V9.4909H84.576V12.0025H80.2848V18.3716C80.2848 19.4295 80.4661 20.1853 80.8286 20.6388C81.1904 21.0916 81.8104 21.318 82.6885 21.318C83.0779 21.318 83.4083 21.3022 83.6798 21.2704C84.0872 21.2228 84.2512 21.1964 84.576 21.1413V23.6265C83.7766 23.8541 82.9493 23.9684 82.1183 23.9661C78.9232 23.9661 77.3256 22.2191 77.3256 18.7249L77.3246 12.0025ZM100.001 23.6551H97.0961V21.6725C96.5947 22.4018 95.917 22.9925 95.1261 23.3895C94.3298 23.7916 93.4245 23.9933 92.4103 23.9947C91.1619 23.9947 90.0552 23.6756 89.0903 23.0372C88.1262 22.3982 87.368 21.5201 86.8157 20.4029C86.2634 19.2842 85.9873 18.0055 85.9873 16.5667C85.9873 15.1179 86.268 13.8367 86.8294 12.723C87.3902 11.61 88.1664 10.7365 89.1581 10.1024C90.6456 9.15129 91.2878 9.15235 92.5732 9.15235C93.5416 9.15235 94.4109 9.34032 95.1811 9.71625C95.9397 10.0844 96.597 10.6321 97.0961 11.3117V9.49196H100.001V23.6551ZM97.041 14.4475C96.7494 13.6723 96.2254 13.0061 95.5408 12.54C94.8567 12.0745 94.0667 11.8417 93.171 11.8417C91.9035 11.8417 90.8942 12.267 90.143 13.1176C89.3919 13.9683 89.0163 15.1179 89.0163 16.5667C89.0163 18.0238 89.3781 19.1781 90.1018 20.0294C90.8261 20.88 91.8086 21.3053 93.0493 21.3053C93.9634 21.3053 94.778 21.0701 95.4932 20.5997C96.196 20.1441 96.7375 19.479 97.041 18.6985V14.4475ZM22.3542 4C19.887 4 17.9572 5.85887 16.2116 8.22027C13.811 5.16483 11.8051 4 9.40348 4C4.5061 4 0.754517 10.3722 0.754517 17.1168C0.754517 21.3381 2.79641 24 6.21685 24C8.67877 24 10.4488 22.8394 13.5962 17.3379L15.8106 13.4255C16.1273 13.9355 16.4602 14.4856 16.8093 15.076L18.2852 17.559C21.1608 22.3697 22.7626 24 25.6646 24C28.9972 24 30.8508 21.3022 30.8508 16.993C30.8508 9.93102 27.0146 4.00106 22.3552 4.00106L22.3542 4ZM11.1957 15.8483C8.64385 19.8474 7.7615 20.7446 6.34064 20.7446C4.87851 20.7446 4.00991 19.4613 4.00991 17.1718C4.00991 12.2755 6.45172 7.26915 9.36116 7.26915C10.9375 7.26915 12.2547 8.17901 14.2723 11.0673C13.2358 12.6539 12.2103 14.2476 11.1957 15.8483ZM20.8265 15.3447L19.0618 12.4014C18.6178 11.6771 18.1589 10.9621 17.6853 10.2569C19.2755 7.80237 20.5874 6.57935 22.1479 6.57935C25.3885 6.57935 27.9816 11.3508 27.9816 17.2141C27.9816 19.4486 27.2494 20.7446 25.7334 20.7446C24.2808 20.7446 23.5857 19.785 20.8265 15.3447Z" fill="#94979E"/>
</svg>
