<svg version="1.2" xmlns="http://www.w3.org/2000/svg" viewBox="0 -10 1103 200"><style>.a{fill:#c2c2c2}.b{fill:#9c9c9c}.c{fill:#525252}.d{fill:#d2d2d2}.e{fill:#d1d1d1}</style><path class="a" d="m1100.2 62.4h-18l-2.2-19.9c-0.2-1.8-1.7-3.1-3.4-3.1h-20.1c-1.4 0-2.5 1.1-2.5 2.5v20.5l0.2 21.4v36.9q0 7 1.5 12.7 1.6 5.7 5.2 9.9 3.6 4.1 9.6 6.3 5.9 2.2 14.7 2.2 4.6 0 9.1-0.8 3.3-0.6 5.7-1.3c1.1-0.3 1.9-1.3 1.8-2.4l-0.2-15.9c-0.1-1.6-1.5-2.7-3.1-2.4q-0.4 0.1-0.9 0.2-2.4 0.3-4.5 0.3-6.1 0-8.5-3.1-2.4-3-2.4-9.2v-33.4h18c1.4 0 2.5-1.2 2.5-2.6v-16.3c0-1.4-1.1-2.5-2.5-2.5z"/><path class="a" d="m319.3 70.4q-3.8-5-9.9-8.2-6-3-14.4-3.1-0.1 0-0.3 0-0.1 0-0.2 0-0.5 0-0.9 0-9.8 0.2-16.7 3.7-6.2 3.1-10.1 6.7l-1.7-5.5c-0.5-1.5-1.8-2.5-3.3-2.5h-19.2c-1.3 0-2.5 1.1-2.5 2.5v82.3c0 1.4 1.2 2.6 2.5 2.6h23.9c1.4 0 2.6-1.2 2.6-2.6v-44.8q0-3.7 0.9-7.1 1-3.4 2.9-6 1.9-2.7 4.8-4.2 2.9-1.5 6.8-1.5 3.9 0 6.4 1.5 2.5 1.5 3.9 4.1 1.4 2.5 2.1 5.8 0.6 3.4 0.6 7.1v45.1c0 1.4 1.1 2.6 2.5 2.6h23.9c1.4 0 2.5-1.2 2.5-2.6v-51.5q0-6.4-1.7-12.9-1.6-6.5-5.4-11.5z"/><path fill-rule="evenodd" class="a" d="m592.6 29.9v116.4c0 1.4-1.1 2.6-2.5 2.6h-17.8c-1.4 0-2.8-1-3.2-2.4l-1.9-5.8q-4 3.6-10.2 6.7-7.2 3.6-17.4 3.8-1.2 0.1-2.4 0.1-9.8 0-17.5-3.8-7.7-3.9-13.1-10.3-5.3-6.4-8.1-14.8-2.9-8.4-2.9-17.6 0-9.1 2.9-17.4 2.9-8.3 8.3-14.7 5.3-6.3 13-9.9 7.6-3.7 17.1-3.7 9.6 0 16.3 3.7 6.6 3.6 10.3 8h0.4v-40.9c0-1.4 1.1-2.5 2.5-2.5h23.7c1.4 0 2.5 1.1 2.5 2.5zm-48.6 97.6q5 0 8.8-2 3.9-1.9 6.6-5.1 2.7-3.1 4.2-7.1 1.5-4.1 1.5-8.3 0-4.2-1.5-8.2-1.5-4.1-4.2-7.2-2.7-3.2-6.6-5.1-3.8-1.9-8.8-1.9-5 0-8.9 1.9-3.9 1.9-6.5 5-2.6 3.1-3.9 7.1-1.3 4-1.3 8.2 0 4.2 1.3 8.4 1.3 4.1 3.9 7.2 2.6 3.2 6.5 5.1 3.9 2 8.9 2z"/><path class="a" d="m747.6 61.5h-24.4c-1.1 0-2.1 0.8-2.4 1.9l-14.8 53.4h-0.3l-15.6-53.5c-0.3-1-1.3-1.8-2.4-1.8h-25.2c-1.1 0-2.1 0.8-2.4 1.9l-15.1 53.4h-0.5l-14.6-53.4c-0.3-1.1-1.3-1.9-2.4-1.9h-25.6c-1.7 0-3 1.7-2.4 3.4l28.4 82.3c0.4 1 1.3 1.7 2.4 1.7h25.3c1.1 0 2.1-0.8 2.4-1.8l16.3-52.6h0.3l16.7 52.6c0.3 1 1.3 1.8 2.4 1.8h25.3c1 0 2-0.7 2.3-1.7l28.6-82.3c0.6-1.7-0.6-3.4-2.3-3.4z"/><path class="a" d="m892.3 27.4h-24.2c-1.4 0-2.5 1.1-2.5 2.5v116.4c0 1.4 1.1 2.6 2.5 2.6h24.2c1.4 0 2.6-1.2 2.6-2.6v-116.4c0-1.4-1.2-2.5-2.6-2.5z"/><path class="a" d="m940.4 27.4h-24.3c-1.4 0-2.5 1.1-2.5 2.5v116.4c0 1.4 1.1 2.6 2.5 2.6h24.3c1.4 0 2.5-1.2 2.5-2.6v-116.4c0-1.4-1.1-2.5-2.5-2.5z"/><path fill-rule="evenodd" class="a" d="m847.1 61.1v85.2c0 1.4-1.1 2.6-2.5 2.6h-17.8c-1.5 0-2.8-1-3.2-2.4l-2.2-6.7q-4.2 4.1-11.2 7.6-6 3-14 3.7-2.2 0.2-4.5 0.2-9.8 0-17.5-3.8-7.8-3.9-13.1-10.3-5.4-6.4-8.2-14.8-2.8-8.4-2.8-17.6 0-9.1 2.9-17.4 2.9-8.3 8.3-14.7 5.3-6.3 13-9.9 7.6-3.7 17.1-3.7 10.6 0 18 3.7 5.8 2.8 9.5 6.1l2.4-7.9c0.4-1.5 1.7-2.5 3.3-2.5h20c1.4 0 2.5 1.2 2.5 2.6zm-57.5 64.4q3.9 2 8.9 2 4.9 0 8.8-2 3.9-1.9 6.6-5.1 2.7-3.1 4.2-7.1 1.5-4.1 1.5-8.3 0-4.2-1.5-8.2-1.5-4.1-4.2-7.2-2.7-3.2-6.6-5.1-3.9-1.9-8.8-1.9-5 0-8.9 1.9-3.9 1.9-6.5 5-2.6 3.1-3.9 7.1-1.4 4-1.4 8.2 0 4.2 1.4 8.4 1.3 4.1 3.9 7.2 2.6 3.2 6.5 5.1z"/><path class="a" d="m492.6 59.3h-0.2l0.3-0.2q-1.1 0-2.2 0-0.8 0-1.7 0-5.7 0-10.4 2.1-2 0.7-3.8 1.6-6.9 3.4-11 7.5l-1.7-6.2c-0.4-1.5-1.8-2.5-3.3-2.5h-19c-1.4 0-2.5 1.2-2.5 2.5v82.2c0 1.4 1.1 2.6 2.5 2.6h23.7c1.4 0 2.5-1.2 2.5-2.6v-42.2q0-2.6 1.1-6.1 1-3.5 3.4-6.5 2.4-3 6.3-5.1 3.9-2.1 9.7-2.1 1.8 0 3.6 0.2l1.2 0.1c1.4 0.2 2.6-0.8 2.7-2.2l1-20.3c0.1-1.4-0.9-2.6-2.2-2.8z"/><path fill-rule="evenodd" class="a" d="m423.8 86.3q3.2 8.7 3.2 19.9 0 1.8 0 3.5 0 1.8-0.2 3.4h-63.3q0.4 3.7 2.2 6.6 1.9 3 4.8 5.2 2.8 2.2 6.4 3.4 3.6 1.3 7.5 1.3 6.8 0 11.6-2.6 3.3-1.8 5.8-4.3c1.1-1.2 3-1.1 4.1 0l12.5 12.5c1.1 1.2 1.1 3.1-0.1 4.2q-4.7 4.5-10.8 7.4-10.1 4.9-23.5 4.9-9.8 0-18.5-3.1-8.8-3.1-15.4-9-6.6-5.8-10.3-14.4-3.8-8.6-3.8-19.7 0-10.7 3.7-19.3 3.7-8.7 10-14.8 6.3-6 14.9-9.4 8.6-3.3 18.6-3.3 9.6 0 17.7 3.3 8 3.2 13.8 9.3 5.8 6.2 9.1 15zm-23.3 8.9q0-6.8-4.3-11.8-4.3-4.9-12.9-4.9-4.2 0-7.7 1.3-3.5 1.4-6.1 3.6-2.6 2.3-4.2 5.4-1.6 3.1-1.8 6.4z"/><path fill-rule="evenodd" class="a" d="m1041.6 86.3q3.2 8.7 3.2 19.9 0 1.8 0 3.5 0 1.8-0.2 3.4h-63.3q0.4 3.7 2.2 6.6 1.9 3 4.8 5.2 2.8 2.2 6.4 3.4 3.6 1.3 7.5 1.3 6.8 0 11.6-2.6 3.3-1.8 5.8-4.3c1.1-1.2 3-1.1 4.1 0l12.5 12.5c1.1 1.2 1.1 3.1-0.1 4.2q-4.7 4.5-10.8 7.4-10.1 4.9-23.5 4.9-9.8 0-18.5-3.1-8.8-3.1-15.4-9-6.6-5.8-10.3-14.4-3.8-8.6-3.8-19.7 0-10.7 3.7-19.3 3.7-8.7 10-14.8 6.3-6 14.9-9.4 8.6-3.3 18.6-3.3 9.6 0 17.7 3.3 8 3.2 13.8 9.3 5.8 6.2 9.1 15zm-23.3 8.9q0-6.8-4.3-11.8-4.3-4.9-12.9-4.9-4.2 0-7.7 1.3-3.5 1.4-6.1 3.6-2.6 2.3-4.2 5.4-1.6 3.1-1.8 6.4z"/><path class="b" d="m59.4 0.4q-1-0.4-2-0.4h-53.5c-2.1 0-3.9 1.8-3.9 3.9v55.8z"/><path class="b" d="m1.2 178c0.7 0.7 1.6 1.2 2.7 1.2h51.9c2.2 0 3.9-1.8 3.9-4v-55.7z"/><path class="c" d="m119.4 59.7v119q0.2 0.1 0.4 0.1l59.4-59.3z"/><path class="a" d="m59.7 119.5v-119q-0.2-0.1-0.3-0.1l-59.4 59.3v115.5c0 1.1 0.4 2.1 1.2 2.8z"/><path class="a" d="m179.2 119.5v-115.6c0-2.1-1.8-3.9-4-3.9h-51.8c-2.2 0-3.9 1.8-4 3.9v55.8z"/><path class="a" d="m179.2 119.5l-59.4 59.3q0.9 0.4 1.9 0.4h53.5c2.2 0 4-1.8 4-4z"/><path class="d" d="m59.7 119.4z"/><path class="e" d="m119.4 59.7z"/><path class="b" d="m61.3 1.6q-0.7-0.7-1.6-1.1v119l58.1 58.1q0.7 0.7 1.6 1.1v-119z"/></svg>