<svg width="96" height="22" viewBox="0 0 96 22" fill="none" xmlns="http://www.w3.org/2000/svg">
<g clip-path="url(#clip0_33744_9284)">
<path d="M24.7929 6.00493C29.4757 6.00493 31.8184 9.2297 31.8184 13.7435C31.8183 16.9683 30.4184 21.9117 24.4969 21.9117V21.9132C19.8141 21.9132 17.4715 18.6612 17.4714 14.1475C17.4714 10.9227 18.8711 6.00493 24.7929 6.00493ZM84.3384 6.00493C90.0661 6.00493 90.5745 10.8047 90.5745 13.8514V14.0938H80.7252C80.7252 16.9252 81.7157 19.8371 85.3289 19.8371C88.9422 19.8371 89.9853 17.9759 89.9853 17.9759C89.9853 19.9443 88.4596 21.9132 84.4991 21.9132C80.5382 21.9131 77.594 19.378 77.594 14.0662C77.594 8.43072 80.6453 6.00493 84.3384 6.00493ZM60.4388 0.441406C60.4388 0.441406 60.3589 3.33991 60.3589 5.99699V6.69521C60.3589 8.2739 60.2264 9.10555 60.2255 9.11081C60.9467 7.04439 62.415 6.05118 64.7374 6.05118C66.0722 6.05118 70.665 6.45412 70.665 13.6463C70.665 20.0606 67.2736 21.886 63.91 21.8861H63.9086C61.084 21.886 59.9352 20.3892 59.9309 20.3831L57.1809 21.9127C57.1837 21.89 57.421 20.2359 57.421 14.5053V7.74236C57.421 3.09887 57.1804 2.34781 56.7533 1.56887L56.5132 1.11256L60.4388 0.441406ZM93.2671 17.6789C94.4259 17.6789 95.3647 18.6185 95.3647 19.7774C95.3647 20.9361 94.4259 21.8753 93.2671 21.8754C92.1083 21.8754 91.1685 20.9361 91.1685 19.7774C91.1685 18.6185 92.1083 17.6789 93.2671 17.6789ZM36.6855 6.42805H38.3944C40.5698 6.42805 41.0051 6.13646 41.0104 6.13292C41.01 6.13827 40.9833 6.51361 40.9833 7.31173C40.9833 8.11201 41.0102 8.46166 41.0104 8.46487C41.0063 8.46214 40.5987 8.1968 38.3944 8.1968H36.6855V16.9092C36.6855 18.1152 36.7649 18.5713 37.0059 19.0543C37.2997 19.6443 37.8604 20.0192 38.8741 20.0193C40.3633 20.0193 41.0849 19.2215 41.0903 19.2155C41.0902 19.672 40.7687 21.8156 37.4062 21.8156C35.6974 21.8155 34.7904 21.1982 34.2835 20.3943C33.8293 19.6973 33.6688 18.7592 33.6688 16.8022C33.6688 10.395 33.7482 8.1968 33.7482 8.1968H32.0136C32.0678 8.1694 32.9747 7.39242 33.9355 5.8648C34.9429 4.34792 35.4765 3.09519 35.4842 3.07698H36.6855V6.42805ZM54.7054 6.00259C54.4648 7.63753 54.418 9.27456 54.418 10.9337V16.3992C54.418 19.3269 54.7413 19.9815 55.1014 20.6363L55.342 21.0921L51.5967 21.7628L51.7034 18.6513C51.008 20.7161 49.5894 21.8156 47.1288 21.8156C45.7645 21.8155 41.1902 21.4132 41.1902 14.2264C41.1902 9.56716 43.254 6.0563 47.9485 6.0563C50.7746 6.0564 51.9573 7.51466 51.9702 7.53078L54.7054 6.00259ZM75.7819 0.441406C75.7819 0.441406 75.702 3.3438 75.702 6.00446V14.3086C75.702 19.4957 75.8359 20.1676 76.373 21.1622L76.6145 21.6189C76.6045 21.6181 75.9306 21.5648 74.2237 21.5648V21.5662C72.5043 21.5662 71.8324 21.6203 71.8324 21.6203L72.0739 21.1631C72.5842 20.2227 72.7454 19.6852 72.7454 14.3096V8.28925C72.7454 3.39809 72.5842 2.59186 72.0739 1.59736L71.8324 1.14058L75.7819 0.441406ZM11.9855 16.3492L11.9771 16.3669L14.6411 21.5031C14.5157 21.5002 14.3814 21.5003 14.2385 21.5003C12.9515 21.5003 11.5273 21.5788 11.5273 21.5788L3.93958 6.96657C3.53702 6.18763 3.24253 5.19586 3.21612 5.00872V12.1149C3.21612 19.9183 3.29791 20.0233 3.86111 21.0972L4.10305 21.5526C4.09279 21.5518 3.42094 21.5003 2.01066 21.5003C0.597152 21.5003 0.00635781 21.552 0 21.5526L0.2424 21.0972C0.72676 20.1314 0.91355 19.6493 0.913555 11.8463C0.913555 4.04286 0.805607 3.9345 0.2424 2.86353L0 2.40816C0.00624561 2.40865 0.679647 2.46094 2.49499 2.46094C4.0157 2.46094 4.74004 2.40874 4.74804 2.40816L11.9855 16.3492ZM16.039 2.84906C15.5313 3.81492 15.3973 4.05757 15.3973 12.0999L15.3739 20.6451L13.0653 16.1918V11.8319C13.0653 4.02839 12.9574 3.92002 12.3941 2.84906L12.1517 2.39368C12.1517 2.39368 12.7706 2.44645 14.218 2.44646C15.6655 2.44646 16.2814 2.39368 16.2814 2.39368L16.039 2.84906ZM63.5618 8.1716C62.04 8.1716 61.1858 8.54732 60.358 9.51341V19.2286C60.358 19.2286 61.2126 20.0066 63.108 20.0066C66.2583 20.0066 67.4864 17.7518 67.4864 13.8873C67.4864 10.962 66.5519 8.17064 63.5609 8.17064L63.5618 8.1716ZM24.6043 7.91238C21.8592 7.91238 20.7287 10.0084 20.7287 13.985C20.7287 17.6928 21.7247 20.0043 24.6855 20.0043C27.4306 20.0043 28.5612 17.9082 28.5612 13.9047C28.5611 10.1968 27.538 7.91243 24.6043 7.91238ZM48.753 7.93338C45.6067 7.93338 44.3619 10.1336 44.3479 13.9807C44.3345 16.5138 45.199 19.7236 48.2804 19.7237C49.8324 19.7236 50.6612 19.3484 51.4905 18.3561L51.5144 8.68391C51.5101 8.68037 50.6517 7.93343 48.753 7.93338ZM84.2586 7.72973C82.653 7.72978 80.806 8.4036 80.7252 12.6641L87.4433 12.1523C87.4433 10.5077 87.2295 7.73069 84.2586 7.73069V7.72973Z" fill="currentColor"/>
</g>
<defs>
<clipPath id="clip0_33744_9284">
<rect width="95.6522" height="22" fill="white"/>
</clipPath>
</defs>
</svg>
