<svg width="114" height="42" viewBox="0 0 114 42" xmlns="http://www.w3.org/2000/svg"
  fill="url(#gradient)">
  <defs>
    <linearGradient id="gradient" gradientTransform="rotate(90)">
      <stop offset="5%" stop-color="#E4E5E7" />
      <stop offset="95%" stop-color="rgba(228, 229, 231, 0.7)" />
    </linearGradient>
  </defs>
  <path fill-rule="evenodd" clip-rule="evenodd"
    d="M79.0703 9.58909L79.0913 29.9677C79.0913 33.3647 80.3897 34.5791 83.814 34.5882C84.7863 34.5882 86.5538 34.3406 87.3469 33.8545V30.0723H84.7253L84.7158 13.1347V8.89941L79.0703 9.58909ZM44.8906 22.1596H47.0604L47.0585 29.7424C47.0585 33.5246 49.2588 34.7389 52.4333 34.7389C54.5553 34.7389 56.3286 34.3225 57.9873 33.3503L57.1579 30.0487C56.2199 30.3257 55.3905 30.5348 54.5611 30.5348C53.1139 30.5348 52.542 30.0138 52.542 28.2787V22.1577H57.627L57.6383 18.4782H52.5457V13.2891L47.1062 14.0228V18.48H44.8906V22.1596ZM36.5918 17.6128C31.3524 17.6128 27.5391 20.9089 27.5391 26.6337C27.5391 31.909 30.5325 34.7191 35.9434 34.7118C39.6939 34.7118 42.6873 33.7745 44.203 32.3529L42.9809 28.9558C41.1467 29.8935 39.1052 30.3929 37.0284 30.4123C33.7833 30.4123 32.7728 28.4386 32.7728 26.0101C32.7728 22.7817 34.7213 21.7417 36.3439 21.7417C37.1008 21.7417 37.751 21.8114 38.0389 22.0187L38.9045 24.3097L42.6205 24.0658C43.0153 23.2887 43.2114 22.4322 43.1926 21.5675C43.1926 18.3061 39.6577 17.6128 36.5918 17.6128ZM59.2734 26.7378C59.2734 21.3598 62.303 17.6802 68.471 17.6802C73.882 17.6802 76.658 20.6645 76.658 25.5932C76.658 31.6298 73.3405 34.7186 67.3537 34.7186C62.8083 34.7186 59.2734 32.2204 59.2734 26.7378ZM67.8933 21.4973C65.796 21.4973 64.7206 23.0252 64.7206 26.1141C64.7206 28.8545 65.4051 31.0061 67.9295 31.0061C70.4539 31.0061 71.2127 29.2708 71.2127 26.182C71.2127 23.4067 70.3471 21.4973 67.8933 21.4973ZM90.8157 22.9208V18.1096H96.2457C96.2457 18.1096 96.2268 18.8249 96.2268 22.642V34.2144H90.8043C90.8157 33.3559 90.8157 24.5166 90.8157 22.9208ZM90.3123 12.9626C90.3123 11.1926 91.7538 10.1855 93.7443 10.1855C95.3668 10.1855 96.7015 11.0183 96.7015 12.7884C96.7015 14.6226 95.4393 15.6681 93.239 15.6681C91.4258 15.6608 90.3086 14.5603 90.3086 12.9626H90.3123ZM106.026 30.7961C104.331 30.7961 102.058 30.3119 100.47 28.9931L99.1719 32.4176C100.47 33.9089 103.357 34.7766 106.206 34.7766C110.679 34.7766 113.708 32.6653 113.708 29.0903C113.708 25.3645 110.374 24.7449 107.728 24.2533C105.989 23.93 104.547 23.662 104.547 22.6025C104.547 21.7698 105.412 21.4231 106.928 21.4231C108.118 21.4231 109.808 21.6304 111.904 22.498L112.842 19.0973C110.966 17.7436 108.369 17.5015 106.855 17.5015C102.167 17.5015 99.7858 19.8603 99.7858 22.8098C99.7858 25.7997 102.274 26.7718 104.655 27.3955C104.759 27.423 104.869 27.4518 104.985 27.4819C106.478 27.8713 108.838 28.4871 108.838 29.5819C108.838 30.4147 107.504 30.7961 106.026 30.7961ZM15.4976 21.294C16.7908 21.294 17.839 20.2855 17.839 19.0416C17.839 17.7975 16.7908 16.7891 15.4976 16.7891C14.2045 16.7891 13.1562 17.7975 13.1562 19.0416C13.1562 20.2855 14.2045 21.294 15.4976 21.294ZM14.7129 10.668C22.0686 10.668 26.0383 14.6612 26.0383 22.1577C26.0383 28.3558 23.5063 32.2095 19.1344 33.82C19.4401 34.5198 19.672 35.2474 19.8265 35.9918C19.9253 36.5774 19.9819 37.1687 19.9961 37.7618C20.0161 38.2826 19.8348 38.792 19.4873 39.1917C19.1398 39.5914 18.6507 39.8531 18.1143 39.9262C17.7996 39.9711 17.4784 39.9497 17.173 39.8637C16.8677 39.7775 16.5854 39.6287 16.3456 39.4275C16.1059 39.2263 15.9143 38.9774 15.7841 38.6981C15.654 38.4188 15.5884 38.1156 15.5918 37.8095C15.607 37.4268 15.584 37.0435 15.5232 36.6649C15.2047 35.1187 14.6938 34.7224 13.9636 34.6931H13.708C13.4411 34.6931 13.1799 34.6857 12.9187 34.6748C12.8017 35.5893 12.6143 36.4942 12.3582 37.3821C11.8015 39.5154 10.8252 42.0834 9.51349 41.821C7.97485 41.5147 6.24363 40.4362 7.08254 37.7526C7.18698 37.4014 7.29548 37.0627 7.39919 36.7389C7.92217 35.106 8.32307 33.8544 7.46386 33.3155L7.19694 33.1615C6.44764 32.692 5.67927 32.9873 4.78505 34.3079C4.58146 34.6374 4.41161 34.9851 4.27789 35.3461C4.16229 35.6313 3.98383 35.8889 3.75479 36.1014C3.52576 36.3139 3.25159 36.476 2.95117 36.5768C2.65074 36.6775 2.33119 36.7145 2.01451 36.6851C1.69782 36.6557 1.39153 36.5605 1.1167 36.4063C0.647168 36.1458 0.294579 35.7272 0.12698 35.2312C-0.0406181 34.7353 -0.0113471 34.1973 0.209148 33.721C0.452237 33.176 0.733804 32.6477 1.05188 32.1398C1.75132 31.0643 2.6572 30.1269 3.72115 29.3774C2.88986 27.677 2.44181 25.5493 2.44181 22.9575C2.44181 15.0463 7.3571 10.668 14.7129 10.668ZM8.41337 22.4385C8.41337 26.9929 9.90626 30.2505 14.2762 30.2505C18.099 30.2505 20.1029 28.009 20.1029 22.6145C20.1029 17.7097 18.0628 15.1527 14.3487 15.1527C10.6346 15.1527 8.41337 17.6693 8.41337 22.4385Z" />
</svg>