<svg width="89" height="24" viewBox="0 0 89 24" fill="none" xmlns="http://www.w3.org/2000/svg">
<path d="M27.5586 11.5389C27.5586 15.4629 30.0786 18.1989 33.5706 18.1989C37.0626 18.1989 39.5826 15.4629 39.5826 11.5389C39.5826 7.61491 37.0626 4.87891 33.5706 4.87891C30.0786 4.87891 27.5586 7.61491 27.5586 11.5389ZM37.2786 11.5389C37.2786 14.3469 35.7486 16.1649 33.5706 16.1649C31.3926 16.1649 29.8626 14.3469 29.8626 11.5389C29.8626 8.73091 31.3926 6.91291 33.5706 6.91291C35.7486 6.91291 37.2786 8.73091 37.2786 11.5389Z" fill="#94979E"/>
<path d="M46.0694 18.1991C48.7154 18.1991 50.2274 15.9671 50.2274 13.2851C50.2274 10.6031 48.7154 8.37109 46.0694 8.37109C44.8454 8.37109 43.9454 8.85709 43.3514 9.55909V8.55109H41.1914V21.2411H43.3514V17.0111C43.9454 17.7131 44.8454 18.1991 46.0694 18.1991ZM43.2974 13.0151C43.2974 11.2331 44.3054 10.2611 45.6374 10.2611C47.2034 10.2611 48.0494 11.4851 48.0494 13.2851C48.0494 15.0851 47.2034 16.3091 45.6374 16.3091C44.3054 16.3091 43.2974 15.3191 43.2974 13.5731V13.0151Z" fill="#94979E"/>
<path d="M56.0744 18.1991C57.9644 18.1991 59.4584 17.2091 60.1244 15.5531L58.2704 14.8511C57.9824 15.8231 57.1364 16.3631 56.0744 16.3631C54.6884 16.3631 53.7164 15.3731 53.5544 13.7531H60.1784V13.0331C60.1784 10.4411 58.7204 8.37109 55.9844 8.37109C53.2484 8.37109 51.4844 10.5131 51.4844 13.2851C51.4844 16.2011 53.3744 18.1991 56.0744 18.1991ZM55.9664 10.1891C57.3344 10.1891 57.9824 11.0891 58.0004 12.1331H53.6624C53.9864 10.8551 54.8504 10.1891 55.9664 10.1891Z" fill="#94979E"/>
<path d="M61.7988 18.0011H63.9588V12.4571C63.9588 11.1071 64.9488 10.3871 65.9208 10.3871C67.1088 10.3871 67.5768 11.2331 67.5768 12.4031V18.0011H69.7368V11.7731C69.7368 9.73909 68.5488 8.37109 66.5688 8.37109C65.3448 8.37109 64.4988 8.92909 63.9588 9.55909V8.55109H61.7988V18.0011Z" fill="#94979E"/>
<path d="M76.062 5.07422L71.166 17.9982H73.452L74.55 15.0462H80.13L81.246 17.9982H83.568L78.672 5.07422H76.062ZM77.322 7.63022L79.374 13.0302H75.306L77.322 7.63022Z" fill="#94979E"/>
<path d="M87.2767 5.11328H84.9727V18.0373H87.2767V5.11328Z" fill="#94979E"/>
<path d="M22.2799 9.82286C22.8244 8.18861 22.6369 6.39836 21.7662 4.91186C20.4567 2.63186 17.8242 1.45886 15.2532 2.01086C14.1094 0.722361 12.4662 -0.0103887 10.7434 0.000111317C8.11542 -0.00588868 5.78367 1.68611 4.97517 4.18661C3.28692 4.53236 1.82967 5.58911 0.976921 7.08686C-0.342329 9.36086 -0.0415786 12.2274 1.72092 14.1774C1.17642 15.8116 1.36392 17.6019 2.23467 19.0884C3.54417 21.3684 6.17667 22.5414 8.74767 21.9894C9.89067 23.2779 11.5347 24.0106 13.2574 23.9994C15.8869 24.0061 18.2194 22.3126 19.0279 19.8099C20.7162 19.4641 22.1734 18.4074 23.0262 16.9096C24.3439 14.6356 24.0424 11.7714 22.2807 9.82136L22.2799 9.82286ZM13.2589 22.4311C12.2067 22.4326 11.1874 22.0644 10.3797 21.3901C10.4164 21.3706 10.4802 21.3354 10.5214 21.3099L15.3004 18.5499C15.5449 18.4111 15.6949 18.1509 15.6934 17.8696V11.1324L17.7132 12.2986C17.7349 12.3091 17.7492 12.3301 17.7522 12.3541V17.9334C17.7492 20.4144 15.7399 22.4259 13.2589 22.4311ZM3.59592 18.3039C3.06867 17.3934 2.87892 16.3261 3.05967 15.2904C3.09492 15.3114 3.15717 15.3496 3.20142 15.3751L7.98042 18.1351C8.22267 18.2769 8.52267 18.2769 8.76567 18.1351L14.5999 14.7661V17.0986C14.6014 17.1226 14.5902 17.1459 14.5714 17.1609L9.74067 19.9501C7.58892 21.1891 4.84092 20.4526 3.59667 18.3039H3.59592ZM2.33817 7.87211C2.86317 6.96011 3.69192 6.26261 4.67892 5.90036C4.67892 5.94161 4.67667 6.01436 4.67667 6.06536V11.5861C4.67517 11.8666 4.82517 12.1269 5.06892 12.2656L10.9032 15.6339L8.88342 16.8001C8.86317 16.8136 8.83767 16.8159 8.81517 16.8061L3.98367 14.0146C1.83642 12.7711 1.09992 10.0239 2.33742 7.87286L2.33817 7.87211ZM18.9327 11.7339L13.0984 8.36486L15.1182 7.19936C15.1384 7.18586 15.1639 7.18361 15.1864 7.19336L20.0179 9.98261C22.1689 11.2254 22.9062 13.9771 21.6634 16.1281C21.1377 17.0386 20.3097 17.7361 19.3234 18.0991V12.4134C19.3257 12.1329 19.1764 11.8734 18.9334 11.7339H18.9327ZM20.9427 8.70836C20.9074 8.68661 20.8452 8.64911 20.8009 8.62361L16.0219 5.86361C15.7797 5.72186 15.4797 5.72186 15.2367 5.86361L9.40242 9.23261V6.90011C9.40092 6.87611 9.41217 6.85286 9.43092 6.83786L14.2617 4.05086C16.4134 2.80961 19.1644 3.54836 20.4049 5.70086C20.9292 6.60986 21.1189 7.67411 20.9412 8.70836H20.9427ZM8.30442 12.8656L6.28392 11.6994C6.26217 11.6889 6.24792 11.6679 6.24492 11.6439V6.06461C6.24642 3.58061 8.26167 1.56761 10.7457 1.56911C11.7964 1.56911 12.8134 1.93811 13.6212 2.61011C13.5844 2.62961 13.5214 2.66486 13.4794 2.69036L8.70042 5.45036C8.45592 5.58911 8.30592 5.84861 8.30742 6.12986L8.30442 12.8641V12.8656ZM9.40167 10.5001L12.0004 8.99936L14.5992 10.4994V13.5001L12.0004 15.0001L9.40167 13.5001V10.5001Z" fill="#94979E"/>
</svg>
