<svg xmlns="http://www.w3.org/2000/svg" width="206" height="42" fill="none" viewBox="0 0 206 42"><path fill="url(#a)" d="m189.408 8.697-2.621 5.97h-7.596v18.875h-5.971V14.701h-6.469v18.841h-6.037l-10.217-14.761v14.761h-6.038V8.73h6.038l10.217 14.264V8.73h28.694v-.033ZM130.361 8c7.265 0 13.17 5.838 13.17 13.037 0 7.198-5.905 13.036-13.17 13.036-7.264 0-13.169-5.838-13.169-13.036C117.192 13.87 123.097 8 130.361 8Zm0 20.036c3.881 0 7.066-3.151 7.066-7 0-3.847-3.151-6.999-7.066-6.999-3.881 0-7.065 3.152-7.065 7s3.184 6.999 7.065 6.999Zm-12.771 5.407h-7.066l-5.373-7.928h-3.185v7.928h-6.037V14.601H81.764v4.943h11.61l-2.587 5.97H81.93l-.166 7.929h-6.037V8.962l-2.388 5.64h-8.692v18.841H58.61V14.601h-6.17v8.028c0 7.53-4.279 11.212-11.013 11.212S30.58 30.126 30.58 22.795V8.597h6.037v14.065c0 3.649 1.858 5.54 4.876 5.54 3.02 0 4.91-1.792 4.91-5.34V8.63h60.97c3.185 0 5.673.896 7.298 2.521 1.393 1.394 2.156 3.318 2.156 5.673v.066c0 4.014-2.189 6.535-5.374 7.696l6.137 8.857Zm-6.767-16.188c0-1.924-1.294-2.92-3.384-2.92h-5.506v5.84h5.573c2.09 0 3.284-1.162 3.284-2.887v-.033h.033ZM16.349 8c7.265 0 13.17 5.838 13.17 13.037 0 7.198-5.905 13.036-13.17 13.036s-13.17-5.838-13.17-13.036C3.18 13.87 9.085 8 16.35 8Zm0 20.036c3.881 0 7.066-3.151 7.066-7 0-3.847-3.185-6.999-7.066-6.999s-7.066 3.152-7.066 7 3.152 6.999 7.066 6.999Z"/><mask id="b" width="20" height="26" x="183" y="8" maskUnits="userSpaceOnUse" style="mask-type:luminance"><path fill="white" d="M194.072 8.725 183.258 33.57h8.127l10.814-24.846h-8.127Z"/></mask><g mask="url(#b)"><path fill="url(#c)" d="M170.828 21.155 192.722-.738l21.893 21.893-21.893 21.894-21.894-21.894Z"/></g><defs><linearGradient id="a" x1="20.052" x2="20.052" y1="1.098" y2="37.907" gradientUnits="userSpaceOnUse"><stop stop-color="#E4E5E7"/><stop offset="1" stop-color="#E4E5E7" stop-opacity=".7"/></linearGradient><linearGradient id="c" x1="174.795" x2="174.795" y1="-12.329" y2="49.488" gradientUnits="userSpaceOnUse"><stop stop-color="#E4E5E7"/><stop offset="1" stop-color="#E4E5E7" stop-opacity=".7"/></linearGradient></defs></svg>