<svg xmlns="http://www.w3.org/2000/svg" width="135" height="28" viewBox="0 0 135 28" fill="none">
    <g clip-path="url(#clip0_25736_60622)">
        <path d="M125.069 5.71812L123.31 9.72453H118.212V22.3934H114.204V9.7475H109.862V22.3934H105.81L98.9517 12.4863V22.3934H94.8994V5.74H98.9517L105.81 15.3136V5.74H125.069V5.71812ZM85.4373 5.25C90.3133 5.25 94.277 9.16891 94.277 14C94.277 18.8311 90.3133 22.75 85.4373 22.75C80.5614 22.75 76.5976 18.8311 76.5976 14C76.5976 9.18969 80.5614 5.25 85.4373 5.25ZM85.4373 18.6977C88.0415 18.6977 90.1798 16.5834 90.1798 14C90.1798 11.4166 88.0645 9.30234 85.4373 9.30234C82.832 9.30234 80.6948 11.4177 80.6948 14C80.6948 16.5834 82.832 18.6977 85.4373 18.6977ZM76.8656 22.3267H72.1231L68.5159 17.0056H66.3787V22.3267H62.3264V9.68078H52.8195V12.9981H60.6114L58.8756 17.0056H52.9311L52.8195 22.3267H48.7672V5.89531L47.1637 9.68078H41.3308V22.3267H37.2784V9.68078H33.1375V15.0686C33.1375 20.1228 30.2653 22.5936 25.7448 22.5936C21.2255 22.5936 18.4648 20.0998 18.4648 15.1802V5.65031H22.5172V15.0916C22.5172 17.5405 23.764 18.8103 25.7897 18.8103C27.8153 18.8103 29.0851 17.6072 29.0851 15.225V5.67328H70.0078C72.145 5.67328 73.8151 6.27484 74.9056 7.36531C75.8408 8.30047 76.3526 9.59219 76.3526 11.1716V11.2175C76.3526 13.9114 74.8837 15.6034 72.7466 16.3822L76.8656 22.3267ZM72.3233 11.4614C72.3233 10.1708 71.4548 9.5025 70.0516 9.5025H66.3569V13.4214H70.0975C71.4997 13.4214 72.3014 12.6416 72.3014 11.4844V11.4625L72.3233 11.4614ZM8.91311 5.25C13.7891 5.25 17.7528 9.16891 17.7528 14C17.7528 18.8311 13.7891 22.75 8.91311 22.75C4.03717 22.75 0.0734253 18.8311 0.0734253 14C0.0734253 9.18969 4.03717 5.25 8.91311 5.25ZM8.91311 18.6977C11.5173 18.6977 13.6556 16.5834 13.6556 14C13.6556 11.4166 11.5184 9.30234 8.91311 9.30234C6.3078 9.30234 4.17061 11.4177 4.17061 14C4.17061 16.5834 6.28592 18.6977 8.91311 18.6977Z" fill="#94979E"/>
        <mask id="mask0_25736_60622" style="mask-type:luminance" maskUnits="userSpaceOnUse" x="120" y="5" width="14" height="18">
            <path d="M128.195 5.73675L120.937 22.4121H126.392L133.65 5.73566L128.195 5.73675Z" fill="white"/>
        </mask>
        <g mask="url(#mask0_25736_60622)">
            <path d="M112.593 14.0798L127.289 -0.614685L141.982 14.0798L127.289 28.7744L112.593 14.0798Z" fill="#94979E"/>
        </g>
    </g>
    <defs>
        <clipPath id="clip0_25736_60622">
            <rect width="135" height="28" fill="white"/>
        </clipPath>
    </defs>
</svg>
