<svg xmlns="http://www.w3.org/2000/svg" width="28" height="28" viewBox="0 0 28 28" fill="none">
    <g clip-path="url(#clip0_25736_60608)">
        <mask id="mask0_25736_60608" style="mask-type:luminance" maskUnits="userSpaceOnUse" x="0" y="0" width="28" height="28">
            <path d="M0 0H28V28H0V0Z" fill="white"/>
        </mask>
        <g mask="url(#mask0_25736_60608)">
            <path d="M27.7425 13.9992C27.7425 17.6425 26.2952 21.1366 23.719 23.7128C21.1428 26.289 17.6487 27.7363 14.0054 27.7363C10.3621 27.7363 6.86803 26.289 4.29182 23.7128C1.71561 21.1366 0.268311 17.6425 0.268311 13.9992C0.268311 10.3559 1.71561 6.8618 4.29182 4.28559C6.86803 1.70938 10.3621 0.262085 14.0054 0.262085C17.6487 0.262085 21.1428 1.70938 23.719 4.28559C26.2952 6.8618 27.7425 10.3559 27.7425 13.9992Z" fill="#94979E"/>
            <path d="M14 0C6.27044 0 0 6.27044 0 14C0 21.7296 6.27044 28 14 28C21.7288 28 28 21.7296 28 14C28 6.27044 21.728 0 14 0ZM14 0.525778C15.7694 0.525369 17.5216 0.87356 19.1565 1.55046C20.7913 2.22736 22.2768 3.21971 23.5281 4.47082C24.7793 5.72194 25.7719 7.2073 26.4489 8.84208C27.126 10.4768 27.4744 12.229 27.4742 13.9984C27.475 15.7683 27.1271 17.5209 26.4503 19.1562C25.7735 20.7916 24.781 22.2775 23.5297 23.5291C22.2784 24.7807 20.7927 25.7735 19.1576 26.4506C17.5224 27.1278 15.7698 27.4762 14 27.4758C12.2303 27.4762 10.4778 27.1279 8.8428 26.4508C7.20774 25.7737 5.72212 24.7811 4.47082 23.5296C3.21953 22.2782 2.22707 20.7925 1.55016 19.1573C0.873256 17.5222 0.525165 15.7697 0.525778 14C0.525369 12.2306 0.87356 10.4784 1.55046 8.84351C2.22736 7.20866 3.21971 5.72318 4.47082 4.47192C5.72194 3.22067 7.2073 2.22815 8.84208 1.55106C10.4768 0.873966 12.229 0.525573 13.9984 0.525778H14Z" fill="black"/>
            <path d="M20.7814 11.2669C19.1839 11.2669 18.3485 11.9436 18.3485 12.9811C18.3485 13.3117 18.5539 13.7861 18.8992 14.0094C19.5043 14.4014 20.0114 14.4597 20.706 14.6285C21.1042 14.7265 21.5374 14.8392 21.5374 15.0936C21.5374 15.3051 21.3228 15.463 20.7565 15.463C19.6342 15.463 19.4125 14.8711 19.4125 14.8711L17.976 15.3992C18.2801 16.3668 19.7688 16.6981 20.755 16.6981C21.8097 16.6981 22.4187 16.4741 22.806 16.1031C23.2338 15.6956 23.2765 15.3012 23.2765 14.9264C23.2765 14.5958 23.1467 14.1564 22.5112 13.7885C22.0477 13.5225 21.1135 13.3584 20.706 13.272C20.5528 13.2378 20.0589 13.1662 20.0589 12.8754C20.0589 12.6576 20.3669 12.5409 20.7814 12.5409C21.5997 12.5409 21.7303 13.0931 21.7303 13.0931L23.1731 12.5627C22.9475 11.55 21.7622 11.2669 20.7814 11.2669ZM25.5492 11.2926L23.8187 11.9272V16.4936H25.55L25.5492 11.2926ZM2.39709 11.3875V16.492H4.12843V15.5408C4.79062 15.3256 5.44211 15.0788 6.08065 14.8011C7.2901 14.2505 7.34143 13.5606 7.34143 12.9874C7.34143 12.2772 6.81254 11.3875 5.33632 11.3875H2.39709ZM7.83687 11.3875V16.492H12.3363V15.2351H9.56743V14.5585H11.7421V13.3031H9.56743V12.6412H12.2873V11.3859L7.83687 11.3875ZM13.0869 11.3875V16.492H14.8182V15.5408C15.4804 15.3256 16.1319 15.0788 16.7704 14.8011C17.9799 14.2505 18.0312 13.5606 18.0312 12.9874C18.0312 12.2772 17.5023 11.3875 16.0261 11.3875H13.0869ZM4.12843 12.642H4.99332C5.28421 12.642 5.52609 12.8792 5.52609 13.1795C5.52609 13.5372 5.38843 13.7278 4.86887 13.9448L4.12765 14.2388L4.12843 12.642ZM14.8182 12.642H15.6831C15.9748 12.642 16.2167 12.8792 16.2167 13.1795C16.2167 13.5372 16.0805 13.7278 15.5587 13.9448L14.8182 14.2388V12.642Z" fill="black"/>
            <path d="M13.9985 1.46149C11.5522 1.46309 9.15988 2.18027 7.11618 3.52468C5.07248 4.86909 3.46671 6.78199 2.4967 9.02771C2.54182 9.04327 4.98715 9.90971 7.45737 9.90971C11.3151 9.90971 15.9406 8.33315 20.9246 8.33315C23.4485 8.33315 25.3159 8.95771 25.5065 9.02382C24.5354 6.778 22.9283 4.86542 20.8835 3.5218C18.8386 2.17818 16.4453 1.46226 13.9985 1.46226" fill="#303236"/>
            <path d="M14.003 26.5417C16.4492 26.5404 18.8415 25.8237 20.8853 24.4797C22.9291 23.1357 24.5352 21.2232 25.5056 18.9778C25.4605 18.9599 23.0136 18.095 20.5449 18.095C16.6872 18.095 12.0617 19.6724 7.07615 19.6724C4.55382 19.6724 2.68637 19.0478 2.49426 18.9817C3.46556 21.2275 5.07276 23.14 7.11777 24.4835C9.16278 25.827 11.5562 26.5419 14.003 26.5417Z" fill="#0C0D0D"/>
        </g>
    </g>
    <defs>
        <clipPath id="clip0_25736_60608">
            <rect width="28" height="28" fill="white"/>
        </clipPath>
    </defs>
</svg>
