<svg xmlns="http://www.w3.org/2000/svg" width="125" height="28" viewBox="0 0 125 28" fill="none">
    <g clip-path="url(#clip0_25736_60619)">
        <path fill-rule="evenodd" clip-rule="evenodd" d="M1.84004 0.0164795C0.824717 0.0164795 0.000839233 0.801637 0.000839233 1.76749V7.59916C0.000839233 8.56717 0.824717 9.35017 1.84004 9.35017H12.259V18.6828H1.84004C0.824717 18.6828 0.000839233 19.4669 0.000839233 20.4338V26.2655C0.000839233 27.2324 0.824717 28.0165 1.84004 28.0165H10.4187C11.4351 28.0165 12.2579 27.2313 12.2579 26.2655V18.6871H22.6768C23.6932 18.6871 24.516 17.9019 24.516 16.9361V11.1012C24.516 10.1343 23.6932 9.35017 22.6768 9.35017H12.2622V1.76749C12.2622 0.800561 11.4383 0.0164795 10.423 0.0164795H1.84004ZM117.735 4.2004C117.735 3.91645 117.486 3.69704 117.168 3.69704H114.835C114.517 3.69704 114.269 3.93259 114.269 4.2004V7.43245H110.643C110.325 7.43245 110.077 7.66907 110.077 7.93689V9.60185C110.077 9.88687 110.325 10.1074 110.643 10.1074H114.269V15.0571C114.269 18.843 116.143 20.5951 120.177 20.5951H123.465C123.784 20.5951 124.031 20.3585 124.031 20.0907V18.4247C124.031 18.1407 123.784 17.9213 123.465 17.9213H120.706C118.512 17.9213 117.735 17.0953 117.735 15.0409V10.1256H123.871C124.189 10.1063 124.438 9.87074 124.438 9.60185V7.93689C124.438 7.65187 124.189 7.43245 123.871 7.43245H117.735V4.2004ZM106.414 7.93904C106.414 7.65509 106.167 7.4346 105.849 7.4346V7.43783H98.7209C98.4025 7.43783 98.1541 7.67445 98.1541 7.94334V9.60831C98.1541 9.89225 98.4015 10.1127 98.7209 10.1127H102.947V17.9245H98.7198C98.4025 17.9245 98.1541 18.1611 98.1541 18.429V20.0939C98.1541 20.3789 98.4015 20.5984 98.7209 20.5984H110.748C111.066 20.5984 111.314 20.3617 111.314 20.0939V18.429C111.314 18.1439 111.066 17.9234 110.748 17.9234H106.414V7.93904ZM106.555 2.85488C106.543 2.71435 106.478 2.58373 106.373 2.48976C106.268 2.39578 106.131 2.34556 105.99 2.34936H102.806C102.488 2.34936 102.24 2.58599 102.24 2.85488V4.99201C102.24 5.27703 102.488 5.49645 102.806 5.49645H105.99C106.308 5.49645 106.555 5.25982 106.555 4.99201V2.85488ZM91.8739 17.9234H95.4835C95.8018 17.9234 96.0503 18.1407 96.0503 18.4279V20.0928C96.0503 20.3617 95.8029 20.5973 95.4835 20.5973H83.7223C83.4039 20.5973 83.1565 20.38 83.1565 20.0928V18.4279C83.1565 18.159 83.4039 17.9224 83.7223 17.9224H88.4106V5.0275H84.2353C83.9169 5.0275 83.6696 4.81024 83.6696 4.52307V2.85595C83.6696 2.58706 83.9169 2.35044 84.2353 2.35044H91.3092C91.6276 2.35044 91.8761 2.56878 91.8761 2.85595L91.8739 17.9234ZM73.5346 8.03907C74.2046 7.43245 75.0726 7.18077 76.2751 7.18077C79.7965 7.18077 81.8476 9.43837 81.8626 14.0321C81.8626 18.629 79.7943 20.8834 76.3633 20.8834C75.1802 20.8834 74.3821 20.5973 73.7282 20.0262L72.8979 19.27L72.1202 19.4389L72.4214 21.4416V25.1802C72.4214 25.4491 72.174 25.6836 71.8546 25.6836H69.5195C69.2012 25.6836 68.9538 25.4663 68.9538 25.1802V7.93904C68.9538 7.67015 69.2012 7.4346 69.5195 7.4346H71.1113C71.3781 7.4346 71.59 7.60131 71.6599 7.8218L71.9427 8.79733H72.7032L73.5346 8.03907ZM72.402 15.6325C72.402 17.2663 73.3743 18.1246 75.1253 18.1246C77.2668 18.1246 78.2229 16.8447 78.2391 14.002C78.2391 11.1894 77.2668 9.90946 75.1253 9.90946C73.3571 9.90946 72.402 10.7678 72.402 12.4015V15.6325ZM52.2213 14.0159C52.2213 9.43622 54.6101 7.18077 59.0672 7.18077C63.648 7.18077 65.8594 9.4545 65.327 14.5225H55.6524C55.7933 17.2329 56.8559 18.3945 59.0834 18.3945C60.5182 18.3945 61.5776 17.9234 61.9497 16.9307C61.9963 16.8296 62.071 16.7441 62.1648 16.6842C62.2586 16.6243 62.3676 16.5927 62.4789 16.593H64.601C64.9559 16.593 65.2377 16.8963 65.1495 17.2157C64.5666 19.5217 62.3724 20.8683 58.9769 20.8683C54.5908 20.8683 52.2213 18.6129 52.2213 14.017M59.0511 9.55668C57.1399 9.55668 56.0955 10.4817 55.7599 12.4693H62.0928C62.039 10.5838 61.085 9.55668 59.0511 9.55668ZM44.5257 8.78228L45.3238 8.02293C46.0132 7.41739 47.0554 7.18185 48.3805 7.20013H50.1842C50.5026 7.20013 50.75 7.41739 50.75 7.70457V9.53839C50.75 9.80728 50.5026 10.0439 50.1842 10.0439H47.1404C45.2678 10.0439 44.3117 10.8506 44.3117 12.3994V17.9224H48.3633C48.6817 17.9224 48.9301 18.1396 48.9301 18.4257V20.0918C48.9301 20.3607 48.6827 20.5962 48.3633 20.5962H37.3464C37.028 20.5962 36.7795 20.3789 36.7795 20.0918V18.4257C36.7795 18.1579 37.0269 17.9224 37.3464 17.9224H40.8484V10.1106H37.8422C37.5238 10.1106 37.2754 9.89225 37.2754 9.60508V7.94011C37.2754 7.67123 37.5227 7.43568 37.8422 7.43568H42.936C43.2028 7.43568 43.4308 7.58626 43.4846 7.82288L43.7319 8.78228H44.5257Z" fill="#94979E"/>
    </g>
    <defs>
        <clipPath id="clip0_25736_60619">
            <rect width="125" height="28" fill="white"/>
        </clipPath>
    </defs>
</svg>
