<svg width="152" height="42" viewBox="0 0 152 42" xmlns="http://www.w3.org/2000/svg"
  fill="url(#gradient)">
  <defs>
    <linearGradient id="gradient" gradientTransform="rotate(90)">
      <stop offset="5%" stop-color="#E4E5E7" />
      <stop offset="95%" stop-color="rgba(228, 229, 231, 0.7)" />
    </linearGradient>
  </defs>
<path d="M64.1275 35.3708H58.6596L46.7115 22.7833H44.4839V35.3708H40.4336V6H54.0019C59.7126 6 63.115 9.14687 63.115 14.3917C63.115 19.6365 59.7126 22.7833 54.0019 22.7833H51.9768L64.1275 35.3708ZM59.0648 14.3917C59.0648 11.4126 57.4445 9.56646 54.0019 9.56646H44.4839V19.2169H54.0019C57.4445 19.2169 59.0648 17.3707 59.0648 14.3917Z"/>
<path d="M74.4974 36.0031C68.0171 36.0031 63.9668 31.0101 63.9668 24.4646C63.9668 17.919 68.0171 12.926 74.2954 12.926C79.3581 12.926 82.3959 15.8631 83.7323 20.2268C84.2182 21.8632 84.4208 23.6673 84.4208 25.5135V25.9331H67.8551C67.977 29.4576 70.4878 32.8562 74.4974 32.8562C77.9404 32.8562 79.52 30.8002 79.844 29.2897H84.0156C83.0438 32.8562 79.8033 36.0031 74.4974 36.0031ZM67.8551 22.7862H80.5325C80.3299 19.01 78.3857 16.0729 74.2954 16.0729C70.2045 16.0729 67.977 19.2198 67.8551 22.7862Z"/>
<path d="M84.252 17.3916V14.035H89.3147V9H93.203V14.035H98.6709V17.3916H93.203V30.6085C93.203 32.0771 93.6076 32.5805 95.0252 32.5805H98.6709V35.8533H94.2154C90.5297 35.8533 89.3147 33.9652 89.3147 30.6085V17.3916H84.252Z"/>
<path d="M110.218 12.926C116.698 12.926 120.951 17.919 120.951 24.4646C120.951 31.0101 116.698 36.0031 110.218 36.0031C103.737 36.0031 99.4844 31.0101 99.4844 24.4646C99.4844 17.919 103.737 12.926 110.218 12.926ZM110.218 16.2827C105.803 16.2827 103.373 20.0589 103.373 24.4646C103.373 28.8702 105.803 32.6464 110.218 32.6464C114.632 32.6464 117.062 28.8702 117.062 24.4646C117.062 20.0589 114.632 16.2827 110.218 16.2827Z"/>
<path d="M133.41 12.926C139.891 12.926 144.144 17.919 144.144 24.4646C144.144 31.0101 139.891 36.0031 133.41 36.0031C126.93 36.0031 122.678 31.0101 122.678 24.4646C122.678 17.919 126.93 12.926 133.41 12.926ZM133.41 16.2827C128.996 16.2827 126.565 20.0589 126.565 24.4646C126.565 28.8702 128.996 32.6464 133.41 32.6464C137.825 32.6464 140.256 28.8702 140.256 24.4646C140.256 20.0589 137.825 16.2827 133.41 16.2827Z"/>
<path d="M150.283 6V35.3708H146.395V6H150.283Z"/>
<path d="M18.0608 7.37667C18.0608 6.61636 17.4627 6 16.725 6H1.58581C0.848063 6 0.25 6.61636 0.25 7.37667V13.8011C0.25 14.5615 0.848063 15.1778 1.58581 15.1778H16.725C17.4627 15.1778 18.0608 15.7942 18.0608 16.5545V18.3901C18.0608 19.1504 17.4627 19.7667 16.725 19.7667H6.92904C6.19128 19.7667 5.59323 20.3831 5.59323 21.1434V27.5679C5.59323 28.3282 6.19128 28.9446 6.92904 28.9446H16.725C17.4627 28.9446 18.0608 29.5609 18.0608 30.3212V33.9924C18.0608 34.7527 18.6588 35.369 19.3966 35.369H25.6303C26.3681 35.369 26.9661 34.7527 26.9661 33.9924V27.5679C26.9661 26.8076 26.3681 26.1912 25.6303 26.1912H19.3966C18.6588 26.1912 18.0608 25.5749 18.0608 24.8145V22.979C18.0608 22.2186 18.6588 21.6023 19.3966 21.6023H25.6303C26.3681 21.6023 26.9661 20.9859 26.9661 20.2256V13.8011C26.9661 13.0408 26.3681 12.4245 25.6303 12.4245H19.3966C18.6588 12.4245 18.0608 11.8081 18.0608 11.0478V7.37667Z"/>
</svg>
