<svg width="151" height="42" viewBox="0 0 151 42" fill="url(#gradient)" xmlns="http://www.w3.org/2000/svg">
<g clip-path="url(#clip0_27178_3873)">
<path fill-rule="evenodd" clip-rule="evenodd" d="M0.667969 7.84326C0.667969 6.39001 1.85308 5.21191 3.31498 5.21191H13.903C15.3649 5.21191 16.55 6.39001 16.55 7.84326V10.4746C16.55 11.2012 15.9575 11.7903 15.2265 11.7903H1.99147C1.26052 11.7903 0.667969 11.2012 0.667969 10.4746V7.84326ZM16.5508 31.5254C16.5508 30.7987 17.1433 30.2097 17.8743 30.2097H31.1093C31.8403 30.2097 32.4328 30.7987 32.4328 31.5254V34.1567C32.4328 35.61 31.2478 36.7881 29.7858 36.7881H19.1978C17.7358 36.7881 16.5508 35.61 16.5508 34.1567V31.5254ZM1.99147 15.0795C1.26052 15.0795 0.667969 15.6686 0.667969 16.3952V24.2892C0.667969 25.7425 1.85307 26.9205 3.31498 26.9205H31.1086C31.8395 26.9205 32.4321 26.3315 32.4321 25.6049V17.7108C32.4321 16.2576 31.247 15.0795 29.785 15.0795H1.99147ZM50.0665 24.6062H53.1259L58.8658 34.1567H65.8222L59.463 23.9545C62.9594 22.7597 64.999 20.0806 64.999 16.2066C64.999 10.7759 61.1748 7.84326 55.0197 7.84326H43.9844V34.1567H50.0665V24.6062ZM50.0665 19.6823V12.9482H54.6919C57.5692 12.9482 59.026 14.1791 59.026 16.3152C59.026 18.4151 57.5692 19.6823 54.6919 19.6823H50.0665ZM84.9731 28.6611C83.5527 32.3179 80.0563 34.2367 76.2321 34.2367C70.4413 34.2367 66.5078 30.218 66.5078 24.2803C66.5078 18.6323 70.5869 14.3602 76.1228 14.3602C81.9501 14.3602 85.1187 18.6323 85.1187 24.027V25.5475H72.1166C72.5172 28.1543 74.0833 29.6387 76.3049 29.6387C78.1259 29.6387 79.5463 28.7698 80.0927 27.1043L84.9731 28.6611ZM79.3643 21.9994C79.3278 20.2978 78.1989 18.8496 76.05 18.8496C74.2654 18.8496 72.8814 19.8996 72.2987 21.9994H79.3643ZM88.4206 28.8941C88.4206 32.8042 90.4965 34.18 94.6485 34.18C96.0325 34.18 97.1252 34.0714 98.1449 33.9265V29.1837C97.4893 29.2561 97.1616 29.2923 96.4695 29.2923C95.0127 29.2923 94.1751 29.0027 94.1751 27.2492V19.5375H97.9264V14.7585H94.1751V9.47254H88.4206V14.7585H85.9805V19.5375H88.4206V28.8941ZM109.342 14.2802C114.987 14.2802 118.957 18.299 118.957 24.2366C118.957 30.1742 114.987 34.1568 109.342 34.1568C103.66 34.1568 99.7266 30.1742 99.7266 24.2366C99.7266 18.299 103.66 14.2802 109.342 14.2802ZM109.342 19.0231C107.011 19.0231 105.517 20.9057 105.517 24.2366C105.517 27.5675 107.011 29.4501 109.342 29.4501C111.673 29.4501 113.166 27.5675 113.166 24.2366C113.166 20.9057 111.673 19.0231 109.342 19.0231ZM139.94 24.2366C139.94 18.299 135.971 14.2802 130.326 14.2802C124.644 14.2802 120.711 18.299 120.711 24.2366C120.711 30.1742 124.644 34.1568 130.326 34.1568C135.971 34.1568 139.94 30.1742 139.94 24.2366ZM126.502 24.2366C126.502 20.9057 127.995 19.0231 130.326 19.0231C132.657 19.0231 134.15 20.9057 134.15 24.2366C134.15 27.5675 132.657 29.4501 130.326 29.4501C127.995 29.4501 126.502 27.5675 126.502 24.2366ZM142.719 7.84324H148.545V34.1567H142.719V7.84324Z" fill="url(#gradient)"/>
</g>
<defs>
<linearGradient id="gradient" x1="74.9089" y1="2.0543" x2="74.9089" y2="39.9457" gradientUnits="userSpaceOnUse">
<stop stop-color="#E4E5E7"/>
<stop offset="1" stop-color="#E4E5E7" stop-opacity="0.7"/>
</linearGradient>
<clipPath id="clip0_27178_3873">
<rect width="150" height="42" fill="white" transform="translate(0.25)"/>
</clipPath>
</defs>
</svg>
