<svg xmlns="http://www.w3.org/2000/svg" width="107" height="28" viewBox="0 0 107 28" fill="none">
    <mask id="mask0_25736_60652" style="mask-type:luminance" maskUnits="userSpaceOnUse" x="0" y="3" width="106" height="22">
        <path d="M0.710938 3.5H105.711V24.5H0.710938V3.5Z" fill="white"/>
    </mask>
    <g mask="url(#mask0_25736_60652)">
        <mask id="mask1_25736_60652" style="mask-type:luminance" maskUnits="userSpaceOnUse" x="0" y="3" width="106" height="22">
            <path d="M105.711 3.5H0.710938V24.5H105.711V3.5Z" fill="white"/>
        </mask>
        <g mask="url(#mask1_25736_60652)">
            <path d="M45.4262 24.059H41.5979L33.2347 15.2484H31.6744V24.06H28.8394V3.5H38.3387C42.3361 3.5 44.7175 5.7029 44.7175 9.3737C44.7175 13.0445 42.3361 15.2484 38.3387 15.2484H36.9212L45.4262 24.059ZM41.8814 9.3758C41.8814 7.2905 40.7474 5.99795 38.3377 5.99795H31.6754V12.7505H38.3377C40.7474 12.7505 41.8814 11.459 41.8814 9.37265M52.6838 24.501C48.1478 24.501 45.3128 21.0066 45.3128 16.4234C45.3128 11.8412 48.1478 8.3468 52.5431 8.3468C56.0869 8.3468 58.2131 10.4027 59.1487 13.4571C59.4889 14.6027 59.6306 15.8658 59.6306 17.1584V17.4524H48.0344C48.1195 19.9199 49.8772 22.2981 52.6849 22.2981C55.0946 22.2981 56.1992 20.8586 56.4271 19.8012H59.3461C58.6667 22.2981 56.3987 24.501 52.6838 24.501ZM48.0334 15.2495H56.908C56.7662 12.6066 55.4054 10.5497 52.5431 10.5497C49.6787 10.5497 48.1195 12.7526 48.0334 15.2495ZM59.512 11.4726V9.12485H63.0557V5.6H65.7784V9.12485H69.6056V11.4747H65.7773V20.7263C65.7773 21.7542 66.0608 22.107 67.0531 22.107H69.6046V24.3981H66.4861C63.9062 24.3981 63.0557 23.0762 63.0557 20.7263V11.4737L59.512 11.4726ZM77.6875 8.3468C82.2245 8.3468 85.2002 11.8422 85.2002 16.4244C85.2002 21.0066 82.2245 24.501 77.6875 24.501C73.1504 24.501 70.1747 21.0066 70.1747 16.4234C70.1747 11.8412 73.1515 8.3468 77.6875 8.3468ZM77.6875 10.6967C74.5984 10.6967 72.8963 13.3406 72.8963 16.4244C72.8963 19.5072 74.5973 22.1511 77.6875 22.1511C80.7776 22.1511 82.4786 19.5072 82.4786 16.4234C82.4786 13.3406 80.7776 10.6967 77.6875 10.6967ZM93.9236 8.3468C98.4596 8.3468 101.436 11.8422 101.436 16.4244C101.436 21.0066 98.4596 24.501 93.9236 24.501C89.3876 24.501 86.4109 21.0066 86.4109 16.4234C86.4109 11.8412 89.3866 8.3468 93.9236 8.3468ZM93.9236 10.6967C90.8335 10.6967 89.1314 13.3406 89.1314 16.4244C89.1314 19.5072 90.8324 22.1511 93.9236 22.1511C97.0127 22.1511 98.7148 19.5072 98.7148 16.4234C98.7148 13.3406 97.0138 10.6967 93.9236 10.6967ZM105.732 3.5V24.059H103.01V3.5H105.732ZM13.1786 4.4639C13.1786 3.93155 12.7597 3.5 12.2441 3.5H1.64544C1.12989 3.5 0.710938 3.9305 0.710938 4.4639V8.96C0.710938 9.49235 1.12989 9.9239 1.64544 9.9239H12.2441C12.7597 9.9239 13.1786 10.3544 13.1786 10.8878V12.1719C13.1786 12.7043 12.7597 13.1358 12.2441 13.1358H5.38659C4.86999 13.1358 4.45209 13.5663 4.45209 14.0997V18.5969C4.45209 19.1292 4.86999 19.5608 5.38659 19.5608H12.2431C12.7597 19.5608 13.1776 19.9913 13.1776 20.5247V23.094C13.1776 23.6264 13.5976 24.0579 14.1131 24.0579H18.4769C18.9935 24.0579 19.4114 23.6264 19.4114 23.094V18.5979C19.4134 18.4733 19.3908 18.3495 19.3448 18.2336C19.2989 18.1177 19.2306 18.0119 19.1439 17.9224C19.0571 17.8329 18.9535 17.7614 18.8391 17.7119C18.7247 17.6624 18.6016 17.636 18.4769 17.634H14.1131C13.8615 17.6299 13.6217 17.5261 13.4465 17.3454C13.2713 17.1647 13.175 16.9218 13.1786 16.6701V15.3849C13.1786 14.8526 13.5976 14.421 14.1131 14.421H18.4769C18.9935 14.421 19.4114 13.9906 19.4114 13.4582V8.96C19.4134 8.83534 19.3908 8.71153 19.3448 8.59562C19.2989 8.47971 19.2306 8.37398 19.1439 8.28448C19.0571 8.19497 18.9535 8.12343 18.8391 8.07395C18.7247 8.02447 18.6016 7.99802 18.4769 7.9961H14.1131C13.8615 7.99195 13.6217 7.88813 13.4465 7.70742C13.2713 7.52671 13.175 7.28387 13.1786 7.0322V4.4639Z" fill="#94979E"/>
        </g>
    </g>
</svg>
