<svg width="96" height="24" viewBox="0 0 96 24" fill="none" xmlns="http://www.w3.org/2000/svg">
<path fill-rule="evenodd" clip-rule="evenodd" d="M6.83509 1.73438H0.0078125V8.56172H6.83509V1.73438ZM0.0078125 8.5625H6.82812H6.83509H13.7175V15.4519H6.83509V22.2727H0.0078125V15.4519V15.4453V8.5625ZM20.546 1.73438H13.7188V8.56172H20.546V1.73438ZM90.2753 20.2695C89.1088 20.2695 88.0576 20.003 87.1216 19.4702C86.1999 18.923 85.4727 18.1885 84.9399 17.2669C84.407 16.3308 84.1406 15.2796 84.1406 14.1131C84.1406 12.9467 84.407 11.9026 84.9399 10.981C85.4727 10.0593 86.1999 9.33207 87.1216 8.79924C88.0576 8.26641 89.1088 8 90.2753 8C91.1105 8 91.8882 8.15121 92.6082 8.45363C93.3282 8.74164 93.9474 9.14486 94.4659 9.66329C94.9987 10.1673 95.3803 10.7721 95.6107 11.4778L93.1266 12.5578C92.9106 11.9674 92.5434 11.4922 92.025 11.1322C91.5209 10.7721 90.9377 10.5921 90.2753 10.5921C89.6561 10.5921 89.1016 10.7433 88.612 11.0458C88.1368 11.3482 87.7624 11.7658 87.4888 12.2986C87.2152 12.8315 87.0784 13.4435 87.0784 14.1347C87.0784 14.826 87.2152 15.438 87.4888 15.9708C87.7624 16.5037 88.1368 16.9213 88.612 17.2237C89.1016 17.5261 89.6561 17.6773 90.2753 17.6773C90.9521 17.6773 91.5425 17.4973 92.0466 17.1373C92.5506 16.7773 92.9106 16.2948 93.1266 15.69L95.6107 16.8133C95.3803 17.4757 95.0059 18.0733 94.4875 18.6062C93.969 19.1246 93.3498 19.535 92.6298 19.8374C91.9098 20.1254 91.1249 20.2695 90.2753 20.2695ZM79.1719 8.26371V20.0147H82.0016V8.26371H79.1719ZM79.1719 3.92188V6.94604H82.0016V3.92188H79.1719ZM71.1016 20.0213V8.27023H73.7585V9.92422C74.0224 9.34582 74.3752 8.9241 74.8169 8.65905C75.4073 8.31343 76.113 8.14062 76.9338 8.14062H77.625V10.6464H76.6098C75.8034 10.6464 75.1553 10.8984 74.6657 11.4024C74.1761 11.892 73.9313 12.5833 73.9313 13.4761V20.0213H71.1016ZM60.6391 19.7785C61.3591 20.1097 62.144 20.2753 62.9936 20.2753C64.1312 20.2753 65.1465 20.0089 66.0393 19.4761C66.9322 18.9289 67.6378 18.1872 68.1562 17.2512C68.6746 16.3151 68.9339 15.2783 68.9339 14.1406C68.9339 12.9886 68.6674 11.9517 68.1346 11.0301C67.6162 10.1084 66.9106 9.37397 66.0177 8.82674C65.1249 8.27951 64.124 8.00589 63.0152 8.00589C62.108 8.00589 61.3087 8.1859 60.6175 8.54592C60.1478 8.78078 59.7446 9.08214 59.4078 9.45V3.66406H56.5781V20.0161H59.235V18.6882C59.613 19.1417 60.081 19.5052 60.6391 19.7785ZM64.3977 17.2296C63.8936 17.532 63.3176 17.6832 62.6696 17.6832C62.0504 17.6832 61.4887 17.532 60.9847 17.2296C60.4951 16.9272 60.1063 16.5095 59.8183 15.9767C59.5447 15.4439 59.4078 14.8319 59.4078 14.1406C59.4078 13.4638 59.5447 12.859 59.8183 12.3261C60.1063 11.7789 60.4951 11.3541 60.9847 11.0517C61.4887 10.7492 62.0504 10.598 62.6696 10.598C63.3176 10.598 63.8936 10.7564 64.3977 11.0733C64.9017 11.3757 65.2905 11.7933 65.5641 12.3261C65.8521 12.8446 65.9961 13.4494 65.9961 14.1406C65.9961 14.8319 65.8521 15.4439 65.5641 15.9767C65.2905 16.5095 64.9017 16.9272 64.3977 17.2296ZM47.9673 20.2837C47.06 20.2837 46.268 20.0821 45.5912 19.6788C44.9287 19.2756 44.4175 18.714 44.0575 17.994C43.7119 17.2739 43.5391 16.4315 43.5391 15.4666V8.27344H46.3688V15.229C46.3688 15.7186 46.4624 16.1507 46.6496 16.5251C46.8512 16.8851 47.132 17.1731 47.492 17.3891C47.8664 17.5907 48.2841 17.6915 48.7449 17.6915C49.2057 17.6915 49.6161 17.5907 49.9761 17.3891C50.3362 17.1731 50.617 16.8779 50.8186 16.5035C51.0202 16.1291 51.121 15.6826 51.121 15.1642V8.27344H53.9507V20.0245H51.2722V18.6275C50.9994 19.1011 50.625 19.4732 50.1489 19.7436C49.5297 20.1037 48.8025 20.2837 47.9673 20.2837ZM29.7344 3.92188V20.0147H32.6721V14.0744H35.4392L38.7636 20.0147H42.0901L38.3963 13.556C39.2892 13.1816 39.9948 12.6055 40.5132 11.8279C41.0461 11.0503 41.3125 10.107 41.3125 8.99814C41.3125 7.91809 41.0749 7.00364 40.5996 6.2548C40.1244 5.49156 39.462 4.91553 38.6124 4.52671C37.7771 4.12349 36.8123 3.92188 35.7178 3.92188H29.7344ZM35.761 11.4823H32.6721V6.51401H35.761C36.2939 6.51401 36.7547 6.62202 37.1435 6.83803C37.5323 7.03964 37.8347 7.32766 38.0507 7.70208C38.2667 8.0621 38.3747 8.49412 38.3747 8.99814C38.3747 9.48777 38.2667 9.9198 38.0507 10.2942C37.8347 10.6686 37.5323 10.9639 37.1435 11.1799C36.7547 11.3815 36.2939 11.4823 35.761 11.4823Z" fill="#E4E5E7"/>
</svg>
