<svg width="89" height="24" viewBox="0 0 89 24" fill="none" xmlns="http://www.w3.org/2000/svg">
<path d="M8.53027 18.3535C9.00991 18.3564 9.12394 18.6638 8.7832 19.0361L7.06836 20.9062C6.72723 21.2786 6.05582 21.583 5.57617 21.583H2.87207C2.39241 21.5829 2 21.1493 2 20.6201V19.2734C2 18.7442 2.39241 18.3136 2.87207 18.3164L8.53027 18.3535ZM20.6582 8.51172C21.1073 8.511 21.4745 8.94101 21.4746 9.46777V17.3496C21.4746 17.8765 21.1074 18.3064 20.6582 18.3047L9.80371 18.2627C9.35439 18.2617 9.24796 17.9568 9.56738 17.5859V17.585L11.1729 15.7236C11.4923 15.3528 12.1211 15.0468 12.5703 15.0439L17.8799 15.0068C18.3291 15.004 18.6972 14.5699 18.6973 14.043V12.7012C18.6973 12.1748 18.6239 11.7483 18.5342 11.7529C18.4443 11.7587 18.0029 11.7637 17.5537 11.7656L12.5596 11.7881C12.1104 11.79 11.7447 11.3608 11.7461 10.834L11.75 9.49219C11.7516 8.96514 12.121 8.53319 12.5703 8.53223L20.6582 8.51172ZM44.7012 5.28125C45.3346 5.28125 45.9131 5.3764 46.4355 5.56641C46.958 5.74058 47.4176 5.99364 47.8135 6.32617C48.1617 6.61871 48.4544 6.94841 48.6924 7.31445V5.76953C48.6924 5.64436 48.7939 5.54297 48.9189 5.54297H51.4111C51.5361 5.5431 51.6377 5.64444 51.6377 5.76953V17.834C51.6374 17.9589 51.5359 18.0604 51.4111 18.0605H48.8945C48.7696 18.0603 48.6682 17.9588 48.668 17.834V16.3018C48.3941 16.6598 48.0541 16.9852 47.6465 17.2764C47.2192 17.5771 46.7364 17.8227 46.1982 18.0127C45.6758 18.2027 45.1134 18.2978 44.5117 18.2979C43.4824 18.2979 42.5483 18.0124 41.709 17.4424C40.8698 16.8724 40.197 16.0968 39.6904 15.1152C39.1836 14.1335 38.9297 13.0166 38.9297 11.7656C38.9297 10.5147 39.1836 9.39871 39.6904 8.41699C40.197 7.43522 40.8858 6.66652 41.7568 6.1123C42.6274 5.55834 43.6091 5.28133 44.7012 5.28125ZM81.249 5.24219C82.0723 5.2422 82.8404 5.4002 83.5527 5.7168C84.2651 6.03346 84.8826 6.46936 85.4053 7.02344C85.9277 7.56183 86.3245 8.2116 86.5938 8.97168C86.8785 9.71581 87.0129 10.5314 86.9971 11.418L86.9785 12.2178C86.9756 12.3408 86.8751 12.4394 86.752 12.4395H77.7412C77.8144 12.937 77.9609 13.3884 78.1846 13.793C78.5329 14.3947 79.0162 14.8618 79.6338 15.1943C80.2672 15.511 81.0035 15.6699 81.8428 15.6699C82.4286 15.6699 82.9672 15.5748 83.458 15.3848C83.894 15.216 84.3611 14.9284 84.8594 14.5225C84.9625 14.4384 85.1156 14.4565 85.1934 14.5645L86.3818 16.2197C86.4482 16.3125 86.4358 16.4408 86.3496 16.5156C85.9582 16.8551 85.5162 17.1509 85.0254 17.4033C84.4869 17.6725 83.9171 17.8866 83.3154 18.0449C82.7138 18.2033 82.12 18.2822 81.5342 18.2822C80.2197 18.2822 79.0555 18.0054 78.042 17.4512C77.0444 16.897 76.2604 16.1444 75.6904 15.1943C75.1362 14.2285 74.8594 13.1276 74.8594 11.8926C74.8594 10.9109 75.0184 10.0165 75.335 9.20898C75.6516 8.40141 76.0865 7.70405 76.6406 7.11816C77.2106 6.51648 77.8843 6.05789 78.6602 5.74121C79.4518 5.40875 80.3149 5.24219 81.249 5.24219ZM32.292 5.26172C32.9251 5.26172 33.5353 5.34071 34.1211 5.49902C34.7228 5.65737 35.2773 5.88761 35.7842 6.18848C36.2422 6.43844 36.6399 6.73663 36.9766 7.08398C37.0567 7.16698 37.0552 7.29821 36.9775 7.38379L35.6543 8.84277C35.5688 8.93693 35.4227 8.94204 35.3271 8.8584C35.0727 8.63616 34.7973 8.43521 34.501 8.25488C34.1528 8.03326 33.7967 7.8591 33.4326 7.73242C33.0685 7.58994 32.7279 7.51859 32.4111 7.51855C32.1104 7.51855 31.841 7.54997 31.6035 7.61328C31.3663 7.66078 31.168 7.73981 31.0098 7.85059C30.8515 7.96142 30.7248 8.10418 30.6299 8.27832C30.5506 8.43667 30.5107 8.62694 30.5107 8.84863C30.5266 9.03852 30.5743 9.22046 30.6533 9.39453C30.7484 9.5529 30.8749 9.68799 31.0332 9.79883C31.2074 9.90967 31.4691 10.0362 31.8174 10.1787C32.1656 10.3212 32.6168 10.4554 33.1709 10.582C33.9468 10.7879 34.5967 11.0181 35.1191 11.2715C35.6414 11.5248 36.0526 11.8179 36.3535 12.1504C36.6542 12.4354 36.8685 12.7675 36.9951 13.1475C37.1217 13.5274 37.1855 13.9471 37.1855 14.4062C37.1855 15.1504 36.9714 15.8155 36.5439 16.4014C36.1323 16.9872 35.5624 17.4468 34.834 17.7793C34.1216 18.1118 33.3138 18.2783 32.4111 18.2783C31.3028 18.2783 30.3048 18.0956 29.418 17.7314C28.6184 17.3825 27.9526 16.9001 27.4199 16.2842C27.3403 16.1922 27.3533 16.0541 27.4453 15.9746L29.0107 14.624C29.1047 14.543 29.2461 14.5532 29.332 14.6426C29.7676 15.096 30.2482 15.4291 30.7725 15.6416C31.3582 15.879 31.9758 15.998 32.625 15.998C32.894 15.998 33.1312 15.9666 33.3369 15.9033C33.5585 15.84 33.749 15.7448 33.9072 15.6182C34.0657 15.4915 34.1846 15.3487 34.2637 15.1904C34.3588 15.0163 34.4062 14.826 34.4062 14.6201C34.4062 14.2401 34.2634 13.9394 33.9785 13.7178C33.82 13.607 33.5671 13.4879 33.2188 13.3613C32.8863 13.2346 32.4506 13.1081 31.9121 12.9814C31.0573 12.7598 30.3444 12.5067 29.7744 12.2217C29.2044 11.9208 28.7609 11.5878 28.4443 11.2236C28.1751 10.9228 27.9696 10.5822 27.8271 10.2021C27.7003 9.82211 27.6367 9.41018 27.6367 8.9668C27.6368 8.41268 27.7559 7.914 27.9932 7.4707C28.2466 7.01153 28.5871 6.61571 29.0146 6.2832C29.4422 5.95072 29.9408 5.6976 30.5107 5.52344C31.0807 5.34927 31.6745 5.26175 32.292 5.26172ZM68.7266 5.33203C69.6766 5.33203 70.4691 5.5223 71.1025 5.90234C71.7357 6.28235 72.2108 6.86011 72.5273 7.63574C72.8439 8.4116 73.0029 9.36979 73.0029 10.5098V17.8369C73.0029 17.962 72.9004 18.0635 72.7754 18.0635H70.2832C70.1584 18.0633 70.0567 17.9619 70.0566 17.8369V10.7002C70.0566 10.067 69.97 9.54446 69.7959 9.13281C69.6376 8.72115 69.3844 8.41951 69.0361 8.22949C68.7038 8.02369 68.2838 7.92096 67.7773 7.9209C67.3815 7.9209 67.0011 7.9923 66.6367 8.13477C66.2884 8.26145 65.9878 8.45175 65.7344 8.70508C65.481 8.94254 65.2833 9.21954 65.1406 9.53613C64.9982 9.85277 64.9268 10.2011 64.9268 10.5811V17.8369C64.9267 17.9619 64.8253 18.0633 64.7002 18.0635H62.208C62.0828 18.0635 61.9815 17.962 61.9814 17.8369V10.6768C61.9814 10.075 61.8941 9.57558 61.7197 9.17969C61.5456 8.76822 61.2924 8.4597 60.96 8.25391C60.6275 8.03221 60.223 7.9209 59.748 7.9209C59.3523 7.92095 58.98 7.99233 58.6318 8.13477C58.2838 8.2614 57.9828 8.44333 57.7295 8.68066C57.4763 8.91819 57.2782 9.19598 57.1357 9.5127C56.9933 9.82935 56.9219 10.1776 56.9219 10.5576V17.8369C56.9218 17.962 56.8205 18.0634 56.6953 18.0635H54.2031C54.0779 18.0634 53.9766 17.962 53.9766 17.8369V5.77246C53.9766 5.64733 54.0779 5.54593 54.2031 5.5459H56.6279C56.7514 5.5459 56.8523 5.64508 56.8545 5.76855L56.8838 7.35352C56.9406 7.27206 57.0004 7.19154 57.0645 7.11328C57.3493 6.74915 57.6901 6.44082 58.0859 6.1875C58.4818 5.91829 58.9013 5.71185 59.3447 5.56934C59.788 5.41107 60.2391 5.33207 60.6982 5.33203C61.3792 5.33203 61.9814 5.44335 62.5039 5.66504C63.0421 5.87089 63.4857 6.20298 63.834 6.66211C64.0858 6.97964 64.2912 7.3582 64.4521 7.79688C64.6197 7.47594 64.8414 7.18508 65.1162 6.92383C65.4328 6.60713 65.7897 6.32932 66.1855 6.0918C66.5813 5.83853 66.9934 5.6491 67.4209 5.52246C67.8641 5.39585 68.2992 5.33207 68.7266 5.33203ZM45.3193 7.87012C44.6383 7.87012 44.0361 8.03661 43.5137 8.36914C43.0072 8.70168 42.6112 9.16127 42.3262 9.74707C42.0412 10.3328 41.8984 11.0057 41.8984 11.7656C41.8984 12.5414 42.0411 13.2304 42.3262 13.832C42.6113 14.4179 43.0071 14.8774 43.5137 15.21C44.0361 15.5425 44.6383 15.709 45.3193 15.709C46.0001 15.709 46.6017 15.5423 47.124 15.21C47.6465 14.8774 48.0508 14.4179 48.3359 13.832C48.6366 13.2303 48.7871 12.5415 48.7871 11.7656C48.7871 11.0057 48.6366 10.3329 48.3359 9.74707C48.0508 9.16117 47.6465 8.70169 47.124 8.36914C46.6016 8.03674 46.0002 7.87014 45.3193 7.87012ZM13.6719 5.31152C14.1208 5.31267 14.2265 5.61756 13.9072 5.98828V5.98926L12.3027 7.85059C11.9833 8.22143 11.3536 8.52739 10.9043 8.53027L5.59473 8.56738C5.1454 8.57026 4.77734 9.00518 4.77734 9.53223V10.873C4.77734 11.4001 4.85156 11.828 4.94141 11.8223C5.03228 11.8165 5.47248 11.8105 5.9209 11.8086L10.915 11.7861C11.3643 11.7842 11.7301 12.2142 11.7285 12.7412L11.7246 14.083C11.7228 14.6098 11.3535 15.042 10.9043 15.043L2.81738 15.0625C2.36807 15.0635 2 14.6335 2 14.1064V6.22461C2.00014 5.6977 2.36816 5.26761 2.81738 5.26953L13.6719 5.31152ZM81.249 7.83105C80.4732 7.83105 79.8159 7.9814 79.2773 8.28223C78.7549 8.58308 78.3591 9.01885 78.0898 9.58887C77.9661 9.84375 77.8725 10.1292 77.8057 10.4443H84.1465V10.3252C84.0989 9.8345 83.941 9.40709 83.6719 9.04297C83.4027 8.66307 83.0543 8.36991 82.627 8.16406C82.2153 7.94239 81.7556 7.83107 81.249 7.83105ZM20.6074 2C21.087 2 21.4793 2.43282 21.4795 2.96191V4.30957C21.4795 4.83887 21.0872 5.26948 20.6074 5.2666L14.9492 5.22852C14.4695 5.22564 14.3562 4.91931 14.6973 4.54688L16.4111 2.67676C16.7522 2.30433 17.4236 2.00002 17.9033 2H20.6074Z" fill="white"/>
</svg>
