<svg width="119" height="24" viewBox="0 0 119 24" fill="none" xmlns="http://www.w3.org/2000/svg">
<g clip-path="url(#clip0_33744_9247)">
<path d="M41.4335 19.8373L39.8935 17.1706C40.6135 15.7906 40.6135 14.1639 40.6135 12.0239C40.6135 9.35726 40.6135 7.35726 39.0735 5.73726C38.5428 5.15825 37.8919 4.70244 37.1663 4.40184C36.4407 4.10125 35.6581 3.96315 34.8735 3.99726C34.091 3.98 33.3135 4.12578 32.5904 4.42534C31.8673 4.72491 31.2145 5.17169 30.6735 5.73726C29.1335 7.28393 29.1335 9.24393 29.1335 11.9973C29.1335 14.7506 29.0535 16.6639 30.6735 18.2773C31.2103 18.8514 31.8623 19.3057 32.5868 19.6106C33.3113 19.9076 34.091 20.0462 34.8735 20.0173C35.3113 20.0108 35.7471 19.9572 36.1735 19.8573L41.4335 19.8373ZM32.8601 16.4039C32.3001 15.7373 32.1401 15.0173 32.1401 11.9973C32.1401 8.97726 32.3335 8.23726 32.8601 7.5906C33.1164 7.33485 33.4198 7.1311 33.7535 6.9906C34.0844 6.84962 34.4404 6.77706 34.8001 6.77726C35.1619 6.77779 35.52 6.85031 35.8535 6.9906C36.1851 7.13126 36.4862 7.33504 36.7401 7.5906C37.3001 8.25726 37.4601 8.97726 37.4601 11.9973C37.4601 15.0173 37.3001 15.7506 36.7401 16.4039C36.4922 16.6669 36.1926 16.8757 35.8601 17.0173C35.5229 17.1506 35.1627 17.2162 34.8001 17.2106C34.4389 17.2178 34.0802 17.1497 33.7468 17.0106C33.4131 16.8706 33.1115 16.6642 32.8601 16.4039Z" fill="currentColor"/>
<path d="M76.8906 4.16016H79.8706V19.8402H76.8906V4.16016Z" fill="currentColor"/>
<path d="M4.66 19.9981C2.33333 19.9981 0.546667 19.5115 -1 17.9581L0.94 15.9981C1.44123 16.4551 2.02805 16.8082 2.66656 17.0371C3.30506 17.266 3.9826 17.366 4.66 17.3315C6.44 17.3315 7.40667 16.6648 7.40667 15.3715C7.41586 15.1307 7.37734 14.8906 7.29333 14.6648C7.21193 14.441 7.08479 14.2367 6.92 14.0648C6.53429 13.7334 6.05352 13.5327 5.54667 13.4915L3.66667 13.2315C2.5512 13.1365 1.50079 12.6666 0.686667 11.8981C0.312267 11.4825 0.022424 10.9979 -0.166667 10.4715C-0.365686 9.93702 -0.454139 9.36775 -0.426667 8.79813C-0.44 6.03813 1.58 4.07812 5 4.07812C7.1 4.07812 8.72 4.55813 10.02 5.87146L8.06 7.75813C7.63757 7.3672 7.13861 7.06818 6.59469 6.87998C6.05076 6.69179 5.4737 6.61851 4.9 6.66479C3.28 6.66479 2.48 7.57146 2.48 8.66479C2.49283 9.08926 2.66406 9.49356 2.96 9.79813C3.37903 10.1457 3.88287 10.3758 4.42 10.4648L6.28 10.7048C7.39133 10.7349 8.45247 11.174 9.26 11.9381C9.67365 12.3868 9.99528 12.9123 10.2067 13.4848C10.4134 14.0638 10.5062 14.6772 10.48 15.2915C10.48 18.2981 7.9 20.0181 4.65333 20.0181" fill="currentColor"/>
<path d="M14.8281 19.8402V4.16016H25.0881V6.82682H17.8881V10.5268H24.0215V13.3335H17.8948V17.1802H25.0948V19.8468H14.8281" fill="currentColor"/>
<path d="M50.8728 20.0002C47.7128 20.0002 45.1328 17.8002 45.1328 14.4535V4.16016H48.2195V14.3602C48.2195 16.1602 49.2795 17.2135 50.8861 17.2135C52.4928 17.2135 53.5528 16.1402 53.5528 14.3602V4.16016H56.5328V14.4402C56.5328 17.7735 54.0528 19.9868 50.8928 19.9868" fill="currentColor"/>
<path d="M70.9073 18.2773C70.3761 18.8551 69.7248 19.3096 68.9993 19.6091C68.2737 19.9085 67.4914 20.0455 66.7073 20.0106C65.9259 20.0319 65.1487 19.8886 64.4263 19.59C63.7038 19.2914 63.0523 18.8441 62.514 18.2773C61.0006 16.7239 61.0006 14.7639 61.0006 11.9973C61.0006 9.23059 60.9206 7.33059 62.5473 5.71726C63.0734 5.14463 63.7183 4.69397 64.4369 4.39685C65.1556 4.09974 65.9304 3.96335 66.7073 3.99726C67.4883 3.98631 68.2634 4.13432 68.9854 4.4323C69.7075 4.73028 70.3613 5.172 70.9073 5.73059C72.4473 7.28393 72.4473 9.24393 72.4473 12.0106C72.4473 14.7773 72.4473 16.6639 70.9073 18.2773ZM68.6473 7.61059C68.3938 7.35481 68.0921 7.15177 67.7597 7.01321C67.4273 6.87465 67.0708 6.80331 66.7106 6.80331C66.3505 6.80331 65.994 6.87465 65.6616 7.01321C65.3291 7.15177 65.0275 7.35481 64.774 7.61059C64.2073 8.27726 64.054 8.99726 64.054 12.0173C64.054 15.0373 64.2073 15.7706 64.774 16.4173C65.0266 16.6747 65.3279 16.8791 65.6605 17.0187C65.993 17.1583 66.35 17.2302 66.7106 17.2302C67.0713 17.2302 67.4283 17.1583 67.7608 17.0187C68.0934 16.8791 68.3947 16.6747 68.6473 16.4173C69.2073 15.7506 69.3673 15.0373 69.3673 12.0173C69.3673 8.99726 69.2273 8.23726 68.6473 7.59059V7.61059Z" fill="currentColor"/>
<path d="M94.1919 19.8402L93.3052 17.0668H87.8052L86.8452 19.8402H83.6719L89.3519 4.16016H91.6719L97.3319 19.8402H94.1919ZM90.5452 8.72682L88.6052 14.4402H92.4852L90.5452 8.72682Z" fill="currentColor"/>
<path d="M115.117 4.16016H118.997V8.08016H115.117V4.16016Z" fill="currentColor"/>
<path d="M105.424 16.4668V4.16016H103.484V18.4468L105.424 16.4668Z" fill="currentColor"/>
<path d="M106.784 17.8828L104.844 19.8428H119.004V17.8828H106.784Z" fill="currentColor"/>
<path d="M109.299 12.5668V4.16016H107.359V14.5268L109.299 12.5668Z" fill="currentColor"/>
<path d="M110.665 13.9609L108.719 15.9209H119.005V13.9609H110.665Z" fill="currentColor"/>
<path d="M113.174 8.66682V4.16016H111.234V10.6068L113.174 8.66682Z" fill="currentColor"/>
<path d="M114.543 10.0391L112.609 11.9991H119.003V10.0391H114.543Z" fill="currentColor"/>
</g>
<defs>
<clipPath id="clip0_33744_9247">
<rect width="120" height="16" fill="white" transform="translate(-1 4)"/>
</clipPath>
</defs>
</svg>
