<svg width="16
0" height="42" viewBox="0 0 160 42" fill="url(#gradient)" xmlns="http://www.w3.org/2000/svg">
<path fill-rule="evenodd" clip-rule="evenodd" d="M10.9967 16.7037C10.3538 17.8187 10.0156 19.0835 10.0161 20.3707L10.0247 25.999L1.15332 20.9799V14.5958C1.15371 13.3141 1.48948 12.0547 2.12725 10.9429C2.76503 9.83101 3.68262 8.90539 4.78887 8.25795L17.1985 1.00562L26.771 6.43762L13.679 14.0175C12.5647 14.662 11.6397 15.5884 10.9967 16.7037ZM16.928 25.2651C17.5711 24.1498 17.9098 22.885 17.91 21.5974V15.9675L26.771 20.9866V27.3655C26.7726 28.6483 26.4377 29.9091 25.7998 31.0222C25.1619 32.1351 24.2433 33.0614 23.1355 33.7084L10.7259 40.9677L1.15332 35.5305L14.2454 27.9523C15.3597 27.3072 16.2847 26.3806 16.928 25.2651ZM39.6868 16.6926C39.6868 15.1333 41.0107 13.852 42.6212 13.852H45.5556C47.1677 13.852 48.4916 15.1333 48.4916 16.6943H51.484C51.484 13.5705 48.8379 11.0063 45.5556 11.0063H42.6212C39.3968 11.0063 36.749 13.5654 36.749 16.6943C36.749 19.8709 39.3985 22.435 42.6212 22.435H45.5556C47.1677 22.435 48.4916 23.718 48.4916 25.279C48.4916 26.84 47.1677 28.1212 45.5556 28.1212H42.6212C41.0107 28.1212 39.6868 26.8383 39.6868 25.279H36.7508C36.7508 28.4011 39.4001 30.9652 42.6229 30.9652H45.5589C48.8397 30.9652 51.484 28.4061 51.484 25.2807C51.484 22.1553 48.8379 19.5928 45.5556 19.5928H42.6212C42.2378 19.5957 41.8578 19.523 41.5026 19.3787C41.1475 19.2343 40.8244 19.0214 40.5518 18.752C40.2791 18.4825 40.0624 18.1619 39.914 17.8085C39.7655 17.4551 39.6884 17.0758 39.6868 16.6926ZM57.3298 19.5928H66.1364V11.0063H69.1304V30.9652H66.1364V22.435H57.3298V30.9652H54.3955V11.0063H57.3298V19.5928ZM77.8776 11.0081L72.3809 21.7134V30.9669H75.3151V25.2807H84.1252V30.9669H87.1158V21.7134L81.5609 11.0081H77.8776ZM75.3186 22.4385L79.7543 13.8537L84.1302 22.4385H75.3186ZM93.3342 11.0063V20.8757L103.408 11.0063H105.106V13.2924L98.4011 19.8709L105.106 28.9862V30.9652H103.062L96.4408 21.768L93.3342 24.7774V30.9652H90.3691V11.0063H93.3342ZM120.098 25.279C120.098 26.8383 118.774 28.1212 117.162 28.1212H114.228C112.617 28.1212 111.293 26.8383 111.293 25.279V11.0063H108.357V25.279C108.357 28.4011 111.007 30.9652 114.23 30.9652H117.166C120.446 30.9652 123.092 28.4061 123.091 25.279V11.0063H120.098V25.279ZM126.344 11.0063H135.152C138.433 11.0063 141.081 13.5705 141.081 16.6943V25.2824C141.082 28.4079 138.433 30.9669 135.152 30.9669H126.344V11.0063ZM135.154 28.1229C136.765 28.1229 138.088 26.84 138.088 25.2807V16.6943C138.088 15.1333 136.765 13.852 135.154 13.852H129.281V28.1229H135.154ZM152.421 11.0063H149.495C146.271 11.0063 143.623 13.5654 143.623 16.6943V25.279C143.623 28.4011 146.273 30.9652 149.495 30.9652H152.429C155.712 30.9652 158.358 28.4061 158.358 25.2807V16.6943C158.349 13.5705 155.704 11.0063 152.421 11.0063ZM155.357 25.2807C155.357 26.84 154.033 28.1229 152.421 28.1229H149.495C147.884 28.1229 146.562 26.84 146.562 25.2807V16.6943C146.562 15.1333 147.884 13.852 149.495 13.852H152.429C154.042 13.852 155.365 15.1333 155.365 16.6943L155.357 25.2807Z" fill="url(#gradient)"/>
<defs>
<linearGradient id="gradient" x1="80" y1="1" x2="80" y2="41" gradientUnits="userSpaceOnUse">
<stop stop-color="#E4E5E7"/>
<stop offset="1" stop-color="#E4E5E7" stop-opacity="0.7"/>
</linearGradient>
</defs>
</svg>
