<svg width="66" height="24" viewBox="0 0 66 24" fill="none" xmlns="http://www.w3.org/2000/svg">
<path d="M8.68505 8.34962C8.61676 7.71062 8.32896 7.21308 7.82167 6.85699C7.31924 6.50091 6.66561 6.32287 5.86076 6.32287C5.29493 6.32287 4.80958 6.40823 4.40472 6.57896C3.99985 6.74968 3.69011 6.98138 3.47548 7.27405C3.26086 7.56673 3.1511 7.90086 3.14623 8.27646C3.14623 8.58864 3.21696 8.85936 3.35841 9.08862C3.50475 9.31788 3.7023 9.513 3.95108 9.67396C4.19985 9.83006 4.47545 9.96176 4.77787 10.0691C5.0803 10.1764 5.38517 10.2666 5.69247 10.3398L7.0973 10.691C7.66313 10.8227 8.20702 11.0007 8.72895 11.2251C9.25576 11.4495 9.72647 11.7324 10.1411 12.0739C10.5606 12.4153 10.8923 12.8275 11.1362 13.3104C11.3801 13.7933 11.502 14.3592 11.502 15.0079C11.502 15.8859 11.2776 16.6591 10.8289 17.3273C10.3801 17.9907 9.73135 18.5102 8.8826 18.8858C8.03873 19.2565 7.01682 19.4419 5.81686 19.4419C4.65105 19.4419 3.63889 19.2614 2.78039 18.9005C1.92676 18.5395 1.25849 18.0127 0.775581 17.32C0.29755 16.6274 0.039023 15.7835 0 14.7884H2.67063C2.70966 15.3103 2.87063 15.7445 3.15354 16.0908C3.43646 16.4371 3.80474 16.6957 4.25838 16.8664C4.7169 17.0371 5.22908 17.1225 5.79491 17.1225C6.38513 17.1225 6.90219 17.0347 7.34607 16.8591C7.79484 16.6786 8.14604 16.4298 8.39969 16.1128C8.65334 15.7908 8.78261 15.4152 8.78748 14.986C8.78261 14.5957 8.66798 14.2738 8.44359 14.0201C8.21921 13.7616 7.90459 13.547 7.49973 13.3763C7.09974 13.2007 6.63146 13.0446 6.0949 12.908L4.39008 12.469C3.15598 12.1519 2.18041 11.6715 1.46336 11.0276C0.751192 10.3788 0.395108 9.51787 0.395108 8.44474C0.395108 7.56185 0.634123 6.7887 1.11215 6.12531C1.59506 5.46192 2.25114 4.94731 3.08038 4.58147C3.90961 4.21075 4.8486 4.02539 5.89735 4.02539C6.96072 4.02539 7.8924 4.21075 8.69237 4.58147C9.49721 4.94731 10.1289 5.45705 10.5874 6.11068C11.0459 6.75944 11.2825 7.50575 11.2971 8.34962H8.68505Z" fill="white"/>
<path d="M26.6937 11.7227C26.6937 13.3372 26.3913 14.7201 25.7864 15.8713C25.1864 17.0176 24.3669 17.8956 23.328 18.5053C22.2938 19.1151 21.1207 19.4199 19.8086 19.4199C18.4964 19.4199 17.3209 19.1151 16.2819 18.5053C15.2478 17.8907 14.4283 17.0103 13.8234 15.864C13.2234 14.7128 12.9235 13.3324 12.9235 11.7227C12.9235 10.1081 13.2234 8.72766 13.8234 7.58136C14.4283 6.43018 15.2478 5.54973 16.2819 4.93999C17.3209 4.33026 18.4964 4.02539 19.8086 4.02539C21.1207 4.02539 22.2938 4.33026 23.328 4.93999C24.3669 5.54973 25.1864 6.43018 25.7864 7.58136C26.3913 8.72766 26.6937 10.1081 26.6937 11.7227ZM23.9645 11.7227C23.9645 10.5861 23.7865 9.62762 23.4304 8.84717C23.0792 8.06183 22.5914 7.46917 21.967 7.06918C21.3427 6.66432 20.6232 6.46189 19.8086 6.46189C18.994 6.46189 18.2745 6.66432 17.6501 7.06918C17.0257 7.46917 16.5355 8.06183 16.1794 8.84717C15.8282 9.62762 15.6526 10.5861 15.6526 11.7227C15.6526 12.8592 15.8282 13.8202 16.1794 14.6055C16.5355 15.386 17.0257 15.9786 17.6501 16.3835C18.2745 16.7835 18.994 16.9835 19.8086 16.9835C20.6232 16.9835 21.3427 16.7835 21.967 16.3835C22.5914 15.9786 23.0792 15.386 23.4304 14.6055C23.7865 13.8202 23.9645 12.8592 23.9645 11.7227Z" fill="white"/>
<path d="M28.6419 19.2151V4.23026H31.3565V16.9396H37.9562V19.2151H28.6419Z" fill="white"/>
<path d="M42.1818 19.2151H39.2844L44.5598 4.23026H47.9109L53.1936 19.2151H50.2962L46.2939 7.30332H46.1768L42.1818 19.2151ZM42.2769 13.3397H50.1791V15.5201H42.2769V13.3397Z" fill="white"/>
<path d="M54.5492 19.2151V4.23026H60.1685C61.3197 4.23026 62.2855 4.43025 63.066 4.83024C63.8513 5.23022 64.444 5.79118 64.8439 6.5131C65.2488 7.23015 65.4512 8.06671 65.4512 9.02277C65.4512 9.98371 65.2464 10.8178 64.8366 11.5251C64.4318 12.2275 63.8342 12.7714 63.044 13.1568C62.2538 13.5372 61.2831 13.7275 60.1319 13.7275H56.1296V11.4739H59.7661C60.4392 11.4739 60.9904 11.3812 61.4197 11.1959C61.8489 11.0056 62.166 10.73 62.3709 10.3691C62.5806 10.0032 62.6855 9.55446 62.6855 9.02277C62.6855 8.49108 62.5806 8.03744 62.3709 7.66184C62.1611 7.28137 61.8416 6.99357 61.4124 6.79846C60.9831 6.59847 60.4295 6.49847 59.7514 6.49847H57.2637V19.2151H54.5492ZM62.2904 12.4251L66 19.2151H62.9708L59.3271 12.4251H62.2904Z" fill="white"/>
</svg>
