<svg xmlns="http://www.w3.org/2000/svg" width="165" height="42" fill="none" viewBox="0 0 165 42"><g clip-path="url(#a)"><path fill="url(#b)" d="m40.376 34.08-.883-3.316-6.037-25.85a3.137 3.137 0 0 0-4.265-2.18l-2.36.987a12.268 12.268 0 0 1-9.5-.012l-2.389-1.006a3.137 3.137 0 0 0-4.25 2.084l-7.03 26.428-.764 2.865c-.342 1.288.975 2.456 2.44 2.146 2.182-.462 5.37-.384 9.454 1.73 4.094 2.119 9.6 2.117 13.69 0 4.084-2.114 7.273-2.192 9.454-1.73 1.465.31 2.782-.858 2.44-2.145Z"/><path fill="black" d="M26.6 15.551c-1.47-1.385-3.149-1.847-5.123-1.847-2.435 0-3.779.756-3.779 2.057 0 1.344 1.218 2.1 3.863 2.268 3.905.252 8.86 1.133 8.86 6.634 0 3.654-2.981 6.803-8.902 6.803-3.275 0-6.55-.546-9.574-3.695l2.52-3.653c1.47 1.638 4.83 2.856 7.139 2.898 1.931.042 3.737-.966 3.737-2.478 0-1.428-1.176-2.016-4.115-2.184-3.905-.294-8.567-1.721-8.567-6.424 0-4.787 4.955-6.467 8.735-6.467 3.233 0 5.668.63 8.062 2.73L26.6 15.55Z"/><mask id="c" width="116" height="26" x="49" y="8" maskUnits="userSpaceOnUse" style="mask-type:luminance"><path fill="white" d="M164.961 8.738H49.906v24.586h115.055V8.738Z"/></mask><g mask="url(#c)"><path fill="black" fill-opacity=".1" d="M-66.896-71.166H1255.8v-1.756H-66.896v1.756Zm1323.576.878v553.171h1.75v-553.17h-1.75Zm-.88 554.049H-66.896v1.756H1255.8v-1.756Zm-1323.575-.878v-553.17h-1.756v553.17h1.756Zm.879.878a.878.878 0 0 1-.879-.878h-1.756a2.634 2.634 0 0 0 2.635 2.634v-1.756Zm1323.576-.878c0 .485-.4.878-.88.878v1.756c1.46 0 2.63-1.179 2.63-2.634h-1.75Zm-.88-554.049c.48 0 .88.393.88.878h1.75a2.627 2.627 0 0 0-2.63-2.634v1.756ZM-66.896-72.922a2.634 2.634 0 0 0-2.635 2.634h1.756c0-.485.394-.878.879-.878v-1.756Z"/><path fill="url(#d)" d="M58.44 17.588c-.803-.757-1.721-1.01-2.8-1.01-1.331 0-2.066.414-2.066 1.125 0 .734.666 1.147 2.111 1.24 2.135.137 4.843.618 4.843 3.625 0 1.996-1.63 3.717-4.865 3.717-1.79 0-3.58-.298-5.233-2.019l1.377-1.996c.803.895 2.639 1.56 3.901 1.583 1.056.022 2.042-.528 2.042-1.354 0-.78-.642-1.102-2.248-1.193-2.136-.16-4.683-.941-4.683-3.51 0-2.617 2.708-3.534 4.774-3.534 1.768 0 3.099.344 4.407 1.491l-1.56 1.835Z"/><path fill="url(#e)" d="M65.183 14.58v5.92c0 1.72.941 3.029 2.731 3.029 1.721 0 2.892-1.445 2.892-3.166V14.58h2.777v11.335h-2.501l-.184-1.537c-1.17 1.147-2.25 1.698-3.833 1.698-2.708 0-4.682-2.042-4.682-5.553V14.58h2.8Z"/><path fill="url(#f)" d="M76.055 30.621V14.582h2.616l.183 1.56c.873-1.261 2.388-1.812 3.673-1.812 3.489 0 5.807 2.593 5.807 5.92 0 3.304-2.089 5.92-5.716 5.92-1.193 0-2.96-.368-3.763-1.607v6.058h-2.8Zm9.48-10.371c0-1.767-1.195-3.212-3.214-3.212-2.02 0-3.214 1.445-3.214 3.212 0 1.767 1.31 3.212 3.214 3.212s3.213-1.445 3.213-3.212Z"/><path fill="url(#g)" d="M92.79 21.236c.183 1.4 1.4 2.41 3.373 2.41 1.033 0 2.388-.39 3.03-1.056l1.791 1.767c-1.194 1.24-3.144 1.836-4.866 1.836-3.901 0-6.22-2.41-6.22-6.035 0-3.442 2.341-5.92 6.014-5.92 3.787 0 6.151 2.34 5.716 6.999H92.79Zm6.15-2.317c-.183-1.47-1.33-2.204-2.937-2.204-1.515 0-2.754.735-3.167 2.204h6.105Z"/><path fill="url(#h)" d="m106.375 14.582.207 1.308c.873-1.4 2.042-1.607 3.19-1.607 1.171 0 2.295.459 2.915 1.078l-1.262 2.433c-.574-.482-1.102-.735-2.02-.735-1.469 0-2.823.78-2.823 2.868v5.966h-2.801V14.581h2.594Z"/><path fill="url(#i)" d="M137.657 20.249c0 3.258-2.226 5.897-5.899 5.897-3.672 0-5.875-2.639-5.875-5.897 0-3.235 2.249-5.897 5.852-5.897 3.604 0 5.922 2.662 5.922 5.897Zm-8.974 0c0 1.72 1.032 3.327 3.075 3.327 2.042 0 3.075-1.607 3.075-3.327 0-1.698-1.193-3.35-3.075-3.35-2.019 0-3.075 1.651-3.075 3.35Z"/><path fill="url(#j)" d="M150.829 20.249c0 3.258-2.226 5.897-5.899 5.897-3.672 0-5.875-2.639-5.875-5.897 0-3.235 2.248-5.897 5.852-5.897 3.603 0 5.922 2.662 5.922 5.897Zm-8.974 0c0 1.72 1.033 3.327 3.074 3.327 2.043 0 3.076-1.607 3.076-3.327 0-1.698-1.194-3.35-3.076-3.35-2.018 0-3.074 1.651-3.074 3.35Z"/><path fill="url(#k)" d="M164.506 9.854v16.039h-2.616l-.184-1.56c-.872 1.353-2.272 1.812-3.649 1.812-3.329 0-5.83-2.203-5.83-5.92 0-3.9 2.455-5.92 5.76-5.92 1.194 0 3.054.643 3.719 1.813V9.854h2.8Zm-9.479 10.371c0 1.973 1.423 3.327 3.213 3.327 1.768 0 3.282-1.284 3.282-3.327 0-1.973-1.514-3.304-3.282-3.304-1.79 0-3.213 1.262-3.213 3.304Z"/><path fill="url(#l)" d="M124.59 19.951c-.055-1.493-.67-3.02-1.67-4.028-2.406-2.428-6.72-2.25-8.73.595-.706 1-1.026 2.218-1.026 3.433 0 3.533 2.204 5.69 5.738 5.69 1.4 0 2.869.712 2.869 2.271 0 1.56-1.263 2.433-2.869 2.433-1.606 0-2.961-.964-2.961-2.433h-2.777c0 3.052 2.456 5.049 5.738 5.049 3.283 0 5.669-1.928 5.669-5.049 0-1.445-.458-2.8-2.341-3.74 1.731-.79 2.424-2.483 2.36-4.22Zm-5.687 3.142c-1.63 0-2.961-1.17-2.961-3.143 0-1.973 1.331-3.19 2.961-3.19 1.607 0 2.938 1.24 2.938 3.19s-1.331 3.143-2.938 3.143Z"/><path fill="url(#m)" d="M120.367 14.37c.145.042.553.174 1.055.441a3.493 3.493 0 0 0-1.055-.442Z"/></g></g><defs><linearGradient id="b" x1="6.249" x2="6.249" y1="-7.363" y2="44.999" gradientUnits="userSpaceOnUse"><stop stop-color="#E4E5E7"/><stop offset="1" stop-color="#E4E5E7" stop-opacity=".7"/></linearGradient><linearGradient id="d" x1="51.345" x2="51.345" y1="11.079" y2="28.053" gradientUnits="userSpaceOnUse"><stop stop-color="#E4E5E7"/><stop offset="1" stop-color="#E4E5E7" stop-opacity=".7"/></linearGradient><linearGradient id="e" x1="63.398" x2="63.398" y1="11.537" y2="27.766" gradientUnits="userSpaceOnUse"><stop stop-color="#E4E5E7"/><stop offset="1" stop-color="#E4E5E7" stop-opacity=".7"/></linearGradient><linearGradient id="f" x1="77.167" x2="77.167" y1="10.018" y2="33.017" gradientUnits="userSpaceOnUse"><stop stop-color="#E4E5E7"/><stop offset="1" stop-color="#E4E5E7" stop-opacity=".7"/></linearGradient><linearGradient id="g" x1="90.966" x2="90.966" y1="11.074" y2="27.951" gradientUnits="userSpaceOnUse"><stop stop-color="#E4E5E7"/><stop offset="1" stop-color="#E4E5E7" stop-opacity=".7"/></linearGradient><linearGradient id="h" x1="104.588" x2="104.588" y1="11.21" y2="27.601" gradientUnits="userSpaceOnUse"><stop stop-color="#E4E5E7"/><stop offset="1" stop-color="#E4E5E7" stop-opacity=".7"/></linearGradient><linearGradient id="i" x1="126.95" x2="126.95" y1="11.23" y2="27.88" gradientUnits="userSpaceOnUse"><stop stop-color="#E4E5E7"/><stop offset="1" stop-color="#E4E5E7" stop-opacity=".7"/></linearGradient><linearGradient id="j" x1="140.121" x2="140.121" y1="11.23" y2="27.88" gradientUnits="userSpaceOnUse"><stop stop-color="#E4E5E7"/><stop offset="1" stop-color="#E4E5E7" stop-opacity=".7"/></linearGradient><linearGradient id="k" x1="153.339" x2="153.339" y1="5.541" y2="28.541" gradientUnits="userSpaceOnUse"><stop stop-color="#E4E5E7"/><stop offset="1" stop-color="#E4E5E7" stop-opacity=".7"/></linearGradient><linearGradient id="l" x1="114.2" x2="114.2" y1="9.275" y2="35.715" gradientUnits="userSpaceOnUse"><stop stop-color="#E4E5E7"/><stop offset="1" stop-color="#E4E5E7" stop-opacity=".7"/></linearGradient><linearGradient id="m" x1="120.463" x2="120.463" y1="14.252" y2="14.876" gradientUnits="userSpaceOnUse"><stop stop-color="#E4E5E7"/><stop offset="1" stop-color="#E4E5E7" stop-opacity=".7"/></linearGradient><clipPath id="a"><path fill="white" d="M.64 0h164.335v42H.64z"/></clipPath></defs></svg>