<svg width="94" height="24" viewBox="0 0 94 24" fill="none" xmlns="http://www.w3.org/2000/svg">
<g clip-path="url(#clip0_449_18297)">
<path d="M90.1788 18.1733C89.319 18.1733 88.5784 17.9896 87.9572 17.6222C87.3398 17.2509 86.8625 16.7301 86.5254 16.0597C86.1921 15.3854 86.0254 14.5956 86.0254 13.6903C86.0254 12.7964 86.1921 12.0085 86.5254 11.3267C86.8625 10.6449 87.3322 10.1127 87.9345 9.73011C88.5405 9.34754 89.2489 9.15625 90.0595 9.15625C90.5519 9.15625 91.0292 9.23769 91.4913 9.40057C91.9534 9.56345 92.3682 9.81913 92.7356 10.1676C93.103 10.5161 93.3928 10.9687 93.6049 11.5256C93.8171 12.0786 93.9231 12.7509 93.9231 13.5426V14.1449H86.9856V12.8722H92.2583C92.2583 12.4252 92.1674 12.0294 91.9856 11.6847C91.8038 11.3362 91.5481 11.0616 91.2186 10.8608C90.8928 10.66 90.5102 10.5597 90.0708 10.5597C89.5936 10.5597 89.1769 10.6771 88.8208 10.9119C88.4686 11.143 88.1958 11.446 88.0027 11.821C87.8133 12.1922 87.7186 12.5956 87.7186 13.0312V14.0256C87.7186 14.6089 87.8208 15.1051 88.0254 15.5142C88.2337 15.9233 88.5235 16.2358 88.8947 16.4517C89.2659 16.6638 89.6996 16.7699 90.1958 16.7699C90.5178 16.7699 90.8114 16.7244 91.0765 16.6335C91.3417 16.5388 91.5708 16.3987 91.764 16.2131C91.9572 16.0275 92.1049 15.7983 92.2072 15.5256L93.8152 15.8153C93.6864 16.2888 93.4553 16.7036 93.122 17.0597C92.7924 17.4119 92.3777 17.6866 91.8777 17.8835C91.3815 18.0767 90.8152 18.1733 90.1788 18.1733Z" fill="#94979E"/>
<path d="M80.1497 18.1701C79.4451 18.1701 78.8163 17.9902 78.2633 17.6303C77.7141 17.2667 77.2823 16.7496 76.9679 16.0792C76.6573 15.4049 76.502 14.5962 76.502 13.6531C76.502 12.7099 76.6592 11.9031 76.9735 11.2326C77.2917 10.5621 77.7273 10.0489 78.2804 9.69283C78.8334 9.33677 79.4603 9.15874 80.161 9.15874C80.7027 9.15874 81.1383 9.24965 81.4679 9.43146C81.8012 9.60949 82.0588 9.81783 82.2406 10.0565C82.4262 10.2951 82.5701 10.5053 82.6724 10.6871H82.7747V6.36328H84.4735V17.9996H82.8145V16.6417H82.6724C82.5701 16.8273 82.4224 17.0394 82.2292 17.2781C82.0398 17.5167 81.7785 17.725 81.4451 17.9031C81.1118 18.0811 80.68 18.1701 80.1497 18.1701ZM80.5247 16.7212C81.0133 16.7212 81.4262 16.5924 81.7633 16.3349C82.1042 16.0735 82.3618 15.7118 82.536 15.2496C82.7141 14.7875 82.8031 14.2496 82.8031 13.636C82.8031 13.0299 82.716 12.4996 82.5417 12.0451C82.3675 11.5906 82.1118 11.2364 81.7747 10.9826C81.4376 10.7288 81.0209 10.6019 80.5247 10.6019C80.0133 10.6019 79.5872 10.7345 79.2463 10.9996C78.9054 11.2648 78.6478 11.6265 78.4735 12.0849C78.3031 12.5432 78.2179 13.0603 78.2179 13.636C78.2179 14.2193 78.305 14.744 78.4792 15.2099C78.6535 15.6758 78.911 16.0451 79.252 16.3178C79.5966 16.5868 80.0209 16.7212 80.5247 16.7212Z" fill="#94979E"/>
<path d="M71.3983 18.1733C70.5801 18.1733 69.8661 17.9858 69.2562 17.6108C68.6464 17.2358 68.1729 16.7112 67.8358 16.0369C67.4986 15.3627 67.3301 14.5748 67.3301 13.6733C67.3301 12.768 67.4986 11.9763 67.8358 11.2983C68.1729 10.6203 68.6464 10.0937 69.2562 9.71875C69.8661 9.34375 70.5801 9.15625 71.3983 9.15625C72.2164 9.15625 72.9305 9.34375 73.5403 9.71875C74.1502 10.0937 74.6236 10.6203 74.9608 11.2983C75.2979 11.9763 75.4664 12.768 75.4664 13.6733C75.4664 14.5748 75.2979 15.3627 74.9608 16.0369C74.6236 16.7112 74.1502 17.2358 73.5403 17.6108C72.9305 17.9858 72.2164 18.1733 71.3983 18.1733ZM71.4039 16.7472C71.9342 16.7472 72.3736 16.607 72.7221 16.3267C73.0706 16.0464 73.3282 15.6733 73.4949 15.2074C73.6653 14.7415 73.7505 14.2282 73.7505 13.6676C73.7505 13.1108 73.6653 12.5994 73.4949 12.1335C73.3282 11.6638 73.0706 11.2869 72.7221 11.0028C72.3736 10.7187 71.9342 10.5767 71.4039 10.5767C70.8699 10.5767 70.4267 10.7187 70.0744 11.0028C69.7259 11.2869 69.4664 11.6638 69.296 12.1335C69.1293 12.5994 69.046 13.1108 69.046 13.6676C69.046 14.2282 69.1293 14.7415 69.296 15.2074C69.4664 15.6733 69.7259 16.0464 70.0744 16.3267C70.4267 16.607 70.8699 16.7472 71.4039 16.7472Z" fill="#94979E"/>
<path d="M66.237 10.1463H64.4643C64.3961 9.76752 64.2692 9.43419 64.0836 9.14631C63.898 8.85843 63.6707 8.61411 63.4018 8.41335C63.1329 8.21259 62.8317 8.06108 62.4984 7.95881C62.1689 7.85653 61.8185 7.8054 61.4473 7.8054C60.7768 7.8054 60.1764 7.97396 59.6461 8.31108C59.1196 8.6482 58.7029 9.14252 58.3961 9.79403C58.0931 10.4455 57.9416 11.241 57.9416 12.1804C57.9416 13.1274 58.0931 13.9266 58.3961 14.5781C58.7029 15.2296 59.1215 15.7221 59.6518 16.0554C60.1821 16.3887 60.7787 16.5554 61.4416 16.5554C61.809 16.5554 62.1575 16.5062 62.487 16.4077C62.8204 16.3054 63.1215 16.1558 63.3904 15.9588C63.6594 15.7618 63.8867 15.5213 64.0723 15.2372C64.2617 14.9493 64.3923 14.6198 64.4643 14.2486L66.237 14.2543C66.1423 14.8262 65.9586 15.3527 65.6859 15.8338C65.417 16.3111 65.0704 16.724 64.6461 17.0724C64.2257 17.4171 63.7446 17.6842 63.2029 17.8736C62.6613 18.063 62.0704 18.1577 61.4302 18.1577C60.4226 18.1577 59.5249 17.919 58.737 17.4418C57.9492 16.9607 57.3279 16.2732 56.8734 15.3793C56.4226 14.4853 56.1973 13.419 56.1973 12.1804C56.1973 10.938 56.4245 9.87169 56.8791 8.98153C57.3336 8.08759 57.9548 7.40199 58.7427 6.92472C59.5306 6.44366 60.4264 6.20312 61.4302 6.20312C62.0476 6.20312 62.6234 6.29214 63.1575 6.47017C63.6954 6.64441 64.1783 6.90199 64.6064 7.2429C65.0344 7.58002 65.3886 7.9929 65.6689 8.48153C65.9492 8.96638 66.1386 9.52131 66.237 10.1463Z" fill="#94979E"/>
<path d="M49.3478 9.41903C49.2872 8.88116 49.0372 8.46449 48.5978 8.16903C48.1584 7.86979 47.6054 7.72017 46.9387 7.72017C46.4615 7.72017 46.0486 7.79593 45.7001 7.94744C45.3516 8.09517 45.0808 8.29972 44.8876 8.56108C44.6982 8.81866 44.6035 9.11222 44.6035 9.44176C44.6035 9.71828 44.6679 9.95691 44.7967 10.1577C44.9293 10.3584 45.1016 10.527 45.3137 10.6634C45.5297 10.7959 45.7607 10.9077 46.0069 10.9986C46.2531 11.0857 46.4899 11.1577 46.7172 11.2145L47.8535 11.5099C48.2247 11.6009 48.6054 11.724 48.9956 11.8793C49.3857 12.0346 49.7475 12.2391 50.0808 12.4929C50.4141 12.7467 50.6831 13.0611 50.8876 13.4361C51.0959 13.8111 51.2001 14.2599 51.2001 14.7827C51.2001 15.4418 51.0297 16.027 50.6887 16.5384C50.3516 17.0497 49.8611 17.4531 49.2172 17.7486C48.577 18.044 47.8024 18.1918 46.8933 18.1918C46.0221 18.1918 45.2683 18.0535 44.6319 17.777C43.9956 17.5005 43.4975 17.1084 43.1376 16.6009C42.7778 16.0895 42.5789 15.4834 42.541 14.7827H44.3024C44.3365 15.2031 44.4728 15.5535 44.7115 15.8338C44.9539 16.1103 45.2626 16.3168 45.6376 16.4531C46.0164 16.5857 46.4312 16.652 46.8819 16.652C47.3781 16.652 47.8194 16.5743 48.2058 16.419C48.5959 16.2599 48.9028 16.0402 49.1262 15.7599C49.3497 15.4759 49.4615 15.1444 49.4615 14.7656C49.4615 14.4209 49.363 14.1387 49.166 13.919C48.9728 13.6993 48.7096 13.5175 48.3762 13.3736C48.0467 13.2296 47.6736 13.1027 47.2569 12.9929L45.8819 12.6179C44.9501 12.3641 44.2115 11.991 43.666 11.4986C43.1243 11.0062 42.8535 10.3546 42.8535 9.54403C42.8535 8.87358 43.0353 8.28835 43.399 7.78835C43.7626 7.28835 44.255 6.90009 44.8762 6.62358C45.4975 6.34328 46.1982 6.20312 46.9785 6.20312C47.7664 6.20312 48.4615 6.34138 49.0637 6.6179C49.6698 6.89441 50.1471 7.27509 50.4956 7.75994C50.844 8.241 51.0259 8.79403 51.041 9.41903H49.3478Z" fill="#94979E"/>
<path d="M33.2962 6.36328L36.5348 15.8406H36.6655L39.9041 6.36328H41.8018L37.6143 17.9996H35.5859L31.3984 6.36328H33.2962Z" fill="#94979E"/>
<mask id="mask0_449_18297" style="mask-type:luminance" maskUnits="userSpaceOnUse" x="0" y="0" width="25" height="24">
<path d="M24.7639 0H0.505859V24H24.7639V0Z" fill="white"/>
</mask>
<g mask="url(#mask0_449_18297)">
<g filter="url(#filter0_d_449_18297)">
<mask id="mask1_449_18297" style="mask-type:alpha" maskUnits="userSpaceOnUse" x="0" y="0" width="25" height="24">
<path fill-rule="evenodd" clip-rule="evenodd" d="M17.7077 23.8974C18.0898 24.0454 18.5254 24.036 18.9111 23.8514L23.9053 21.4616C24.4301 21.2105 24.7639 20.6823 24.7639 20.1028V3.89741C24.7639 3.31793 24.4301 2.78972 23.9053 2.53858L18.9111 0.148576C18.405 -0.0935981 17.8127 -0.0342926 17.3685 0.286865C17.3051 0.332727 17.2446 0.383964 17.1879 0.440405L7.62684 9.11509L3.46224 5.97121C3.07457 5.67858 2.53229 5.70255 2.17224 6.02828L0.836502 7.23661C0.396067 7.63506 0.395587 8.3241 0.835415 8.7232L4.44709 12L0.835415 15.2769C0.395587 15.676 0.396067 16.365 0.836502 16.7635L2.17224 17.9718C2.53229 18.2975 3.07457 18.3216 3.46224 18.0289L7.62684 14.885L17.1879 23.5597C17.3391 23.7102 17.5167 23.8235 17.7077 23.8974ZM18.7031 6.52352L11.4485 12L18.7031 17.4766V6.52352Z" fill="white"/>
</mask>
<g mask="url(#mask1_449_18297)">
<path d="M23.9067 2.54213L18.9084 0.148814C18.3298 -0.128215 17.6384 -0.0113625 17.1844 0.44019L0.821944 15.2766C0.381836 15.6757 0.382341 16.3648 0.823028 16.7632L2.15957 17.9716C2.51986 18.2973 3.06246 18.3212 3.45034 18.0286L23.1544 3.16301C23.8154 2.66429 24.7651 3.13318 24.7651 3.95835V3.90065C24.7651 3.32141 24.4312 2.79341 23.9067 2.54213Z" fill="url(#paint0_linear_449_18297)"/>
<g filter="url(#filter1_d_449_18297)">
<path d="M23.9067 21.4566L18.9084 23.8499C18.3298 24.1269 17.6384 24.0101 17.1844 23.5584L0.821944 8.72193C0.381836 8.32288 0.382341 7.63379 0.823028 7.23537L2.15957 6.02704C2.51986 5.70131 3.06246 5.67733 3.45034 5.96999L23.1544 20.8356C23.8154 21.3344 24.7651 20.8655 24.7651 20.0403V20.0981C24.7651 20.6773 24.4312 21.2053 23.9067 21.4566Z" fill="url(#paint1_linear_449_18297)"/>
</g>
<g filter="url(#filter2_d_449_18297)">
<path d="M18.9078 23.8514C18.3291 24.1284 17.6377 24.0113 17.1836 23.5597C17.7431 24.1159 18.6997 23.722 18.6997 22.9352V1.06493C18.6997 0.278074 17.7431 -0.116009 17.1836 0.44041C17.6377 -0.0111934 18.3291 -0.128197 18.9078 0.14858L23.9051 2.53858C24.4302 2.78972 24.7642 3.31793 24.7642 3.89741V20.1028C24.7642 20.6823 24.4302 21.2103 23.9051 21.4616L18.9078 23.8514Z" fill="#94979E"/>
</g>
</g>
</g>
</g>
</g>
<defs>
<filter id="filter0_d_449_18297" x="-0.994141" y="-1" width="27.2578" height="27" filterUnits="userSpaceOnUse" color-interpolation-filters="sRGB">
<feFlood flood-opacity="0" result="BackgroundImageFix"/>
<feColorMatrix in="SourceAlpha" type="matrix" values="0 0 0 0 0 0 0 0 0 0 0 0 0 0 0 0 0 0 127 0" result="hardAlpha"/>
<feOffset dy="0.499999"/>
<feGaussianBlur stdDeviation="0.75"/>
<feColorMatrix type="matrix" values="0 0 0 0 0 0 0 0 0 0 0 0 0 0 0 0 0 0 0.15 0"/>
<feBlend mode="normal" in2="BackgroundImageFix" result="effect1_dropShadow_449_18297"/>
<feBlend mode="normal" in="SourceGraphic" in2="effect1_dropShadow_449_18297" result="shape"/>
</filter>
<filter id="filter1_d_449_18297" x="-1.50781" y="3.76562" width="28.2734" height="22.2334" filterUnits="userSpaceOnUse" color-interpolation-filters="sRGB">
<feFlood flood-opacity="0" result="BackgroundImageFix"/>
<feColorMatrix in="SourceAlpha" type="matrix" values="0 0 0 0 0 0 0 0 0 0 0 0 0 0 0 0 0 0 127 0" result="hardAlpha"/>
<feOffset/>
<feGaussianBlur stdDeviation="1"/>
<feColorMatrix type="matrix" values="0 0 0 0 0 0 0 0 0 0 0 0 0 0 0 0 0 0 0.25 0"/>
<feBlend mode="overlay" in2="BackgroundImageFix" result="effect1_dropShadow_449_18297"/>
<feBlend mode="normal" in="SourceGraphic" in2="effect1_dropShadow_449_18297" result="shape"/>
</filter>
<filter id="filter2_d_449_18297" x="15.1836" y="-2" width="11.5801" height="28" filterUnits="userSpaceOnUse" color-interpolation-filters="sRGB">
<feFlood flood-opacity="0" result="BackgroundImageFix"/>
<feColorMatrix in="SourceAlpha" type="matrix" values="0 0 0 0 0 0 0 0 0 0 0 0 0 0 0 0 0 0 127 0" result="hardAlpha"/>
<feOffset/>
<feGaussianBlur stdDeviation="1"/>
<feColorMatrix type="matrix" values="0 0 0 0 0 0 0 0 0 0 0 0 0 0 0 0 0 0 0.25 0"/>
<feBlend mode="overlay" in2="BackgroundImageFix" result="effect1_dropShadow_449_18297"/>
<feBlend mode="normal" in="SourceGraphic" in2="effect1_dropShadow_449_18297" result="shape"/>
</filter>
<linearGradient id="paint0_linear_449_18297" x1="17.1834" y1="3" x2="1.67888" y2="18.1657" gradientUnits="userSpaceOnUse">
<stop stop-color="#A3A6B3"/>
<stop offset="1" stop-color="#C2C4CC"/>
</linearGradient>
<linearGradient id="paint1_linear_449_18297" x1="-1.01012" y1="2.49805" x2="9.5191" y2="10.6067" gradientUnits="userSpaceOnUse">
<stop stop-color="#A3A6B3"/>
<stop offset="1" stop-color="#C2C4CC"/>
</linearGradient>
<clipPath id="clip0_449_18297">
<rect width="94" height="24" fill="white"/>
</clipPath>
</defs>
</svg>
