<svg width="151" height="24" viewBox="0 0 151 24" fill="none" xmlns="http://www.w3.org/2000/svg">
<path fill-rule="evenodd" clip-rule="evenodd" d="M33.6009 1.99749H33.2778C31.5771 1.99484 30.1968 3.37242 30.1968 5.07319V11.9518C30.1968 13.3254 29.0616 14.4381 27.7105 14.4381C26.9078 14.4381 26.1064 14.0341 25.6309 13.3559L18.6052 3.32208C18.0224 2.48891 17.0741 1.99219 16.0475 1.99219C14.446 1.99219 13.0049 3.35387 13.0049 5.03478V11.9531C13.0049 13.3267 11.879 14.4394 10.5186 14.4394C9.71325 14.4394 8.91319 14.0354 8.43767 13.3572L0.576198 2.12995C0.398708 1.87695 0 2.00146 0 2.31142V8.3105C0 8.61383 0.0927206 8.9079 0.266248 9.15692L8.00187 20.2053C8.45886 20.8583 9.13308 21.3432 9.91062 21.5193C11.8564 21.9618 13.6473 20.4637 13.6473 18.5549V11.6405C13.6473 10.2669 14.76 9.15427 16.1335 9.15427H16.1376C16.9654 9.15427 17.7417 9.55827 18.2172 10.2365L25.2428 20.2689C25.8269 21.1034 26.7264 21.5989 27.7993 21.5989C29.4365 21.5989 30.8391 20.2358 30.8391 18.5562V11.6392C30.8391 10.2656 31.9518 9.15294 33.3255 9.15294H33.5996C33.7718 9.15294 33.9109 9.01386 33.9109 8.84167V2.30744C33.9109 2.13524 33.7718 1.99616 33.5996 1.99616L33.6009 1.99749ZM73.9334 7.174H72.2141C72.0393 7.174 71.8976 7.31574 71.8976 7.49058V21.2796C71.8976 21.4544 72.0393 21.5962 72.2141 21.5962H73.9334C74.1083 21.5962 74.25 21.4544 74.25 21.2796V7.49058C74.25 7.31574 74.1083 7.174 73.9334 7.174ZM72.1571 1.99351H73.9891C74.1639 1.99351 74.3057 2.13525 74.3057 2.31009V4.56191C74.3057 4.73675 74.1639 4.87848 73.9891 4.87848H72.1571C71.9822 4.87848 71.8406 4.73675 71.8406 4.56191V2.31009C71.8406 2.13525 71.9822 1.99351 72.1571 1.99351ZM84.2244 6.78192C82.2919 6.78192 80.8918 7.4535 79.9951 8.43501C79.7076 8.72643 79.2108 8.52243 79.2108 8.11314V7.49058C79.2108 7.31574 79.0691 7.174 78.8942 7.174H77.204C77.0293 7.174 76.8875 7.31574 76.8875 7.49058V21.2796C76.8875 21.4544 77.0293 21.5962 77.204 21.5962H78.8956C79.0704 21.5962 79.2121 21.4544 79.2121 21.2796V12.5505C79.2121 9.52515 79.8003 8.85359 83.0218 8.85359C86.2431 8.85359 86.7743 9.38607 86.7743 12.4101V21.2782C86.7743 21.4531 86.916 21.5948 87.0908 21.5948H88.8101C88.985 21.5948 89.1268 21.4531 89.1268 21.2782V11.765C89.1268 8.31978 87.1664 6.77927 84.2258 6.77927V6.78192H84.2244ZM101.789 8.63105C102.076 8.92247 102.573 8.71847 102.573 8.30917V2.31141C102.573 2.13657 102.715 1.99484 102.889 1.99484H104.581C104.756 1.99484 104.897 2.13657 104.897 2.31141V21.2809C104.897 21.4557 104.756 21.5976 104.581 21.5976H102.889C102.715 21.5976 102.573 21.4557 102.573 21.2809V20.4624C102.59 20.0438 102.083 19.8424 101.789 20.1404C100.977 21.1484 99.4083 21.9882 97.3075 21.9882C93.6119 21.9882 91.2024 19.3563 91.2024 14.4553C91.2024 9.27481 93.8901 6.78192 97.391 6.78192C99.4917 6.78192 101.004 7.62303 101.789 8.63105ZM93.7496 14.3983C93.7496 19.1311 94.3378 19.8318 98.1751 19.8318C101.985 19.8318 102.573 19.1311 102.573 14.3983C102.573 9.66557 102.012 8.93703 98.1751 8.93703C94.3378 8.93703 93.7496 9.66557 93.7496 14.3983ZM114.729 13.5042L111.958 13.0287C109.912 12.6644 109.548 12.0485 109.548 10.9835C109.576 9.52648 110.136 8.79927 112.853 8.79927C115.397 8.79927 116.212 9.55164 116.387 11.1756C116.404 11.3359 116.539 11.4591 116.701 11.4591H118.382C118.562 11.4591 118.709 11.3081 118.698 11.1266C118.535 8.33832 115.983 6.7806 112.938 6.7806C109.52 6.7806 107.253 8.60058 107.253 11.2061C107.253 13.5864 109.102 14.6235 111.314 15.0434L114.367 15.6037C116.048 15.9123 116.608 16.4727 116.608 17.5363C116.608 19.245 116.02 19.9736 113.135 19.9736C110.25 19.9736 109.453 19.1417 109.267 17.4555C109.25 17.2951 109.115 17.1734 108.953 17.1734H107.262C107.084 17.1734 106.94 17.3204 106.944 17.4979C107.025 20.502 109.748 21.9909 112.993 21.9909C116.522 21.9909 118.958 20.171 118.958 17.425C118.958 15.0169 117.109 13.9241 114.729 13.5042ZM126.97 19.9179C130.107 19.9179 130.695 19.2463 130.695 16.221V7.49455C130.695 7.31971 130.837 7.17798 131.012 7.17798H132.731C132.906 7.17798 133.048 7.31971 133.048 7.49455V21.2836C133.048 21.4584 132.906 21.6002 132.731 21.6002H131.012C130.837 21.6002 130.695 21.4584 130.695 21.2836V20.6823C130.689 20.2543 130.245 20.0411 129.939 20.3404C129.043 21.3206 127.643 21.9922 125.766 21.9922C122.881 21.9922 120.921 20.4517 120.921 17.0065V7.49322C120.921 7.31838 121.063 7.17665 121.238 7.17665H122.957C123.132 7.17665 123.273 7.31838 123.273 7.49322V16.3614C123.273 19.3854 123.834 19.9179 126.97 19.9179ZM146.805 7.174V5.32487C146.805 4.59767 147.394 4.00822 148.122 4.00822H149.401C149.575 4.00822 149.717 3.8665 149.717 3.69164V2.30877C149.717 2.13392 149.575 1.99219 149.401 1.99219H148.514C145.993 1.99219 144.452 3.39228 144.452 5.80172V7.174H142.589C140.937 7.17665 139.64 7.40316 138.775 8.43501C138.457 8.7357 138.019 8.51052 138.019 8.0734V7.49191C138.019 7.31705 137.877 7.17533 137.702 7.17533H135.983C135.808 7.17533 135.666 7.31705 135.666 7.49191V21.2809C135.666 21.4557 135.808 21.5976 135.983 21.5976H137.702C137.877 21.5976 138.019 21.4557 138.019 21.2809V12.6366C138.019 9.77947 138.747 9.10791 141.884 9.10791H144.452V21.2822C144.452 21.4571 144.594 21.5989 144.769 21.5989H146.489C146.663 21.5989 146.805 21.4571 146.805 21.2822V9.10791H149.404C149.578 9.10791 149.72 8.96618 149.72 8.79133V7.49322C149.72 7.31838 149.578 7.17665 149.404 7.17665H146.805V7.174ZM62.3248 17.9999C62.3857 18.253 62.6123 18.4318 62.8718 18.4318H62.8731C63.1315 18.4318 63.3567 18.2556 63.4189 18.0052L67.3623 2.23327C67.3979 2.09153 67.5251 1.99219 67.6709 1.99219H69.6392C69.8499 1.99219 70.0034 2.19088 69.9505 2.39487L64.9898 21.367C64.9542 21.5008 64.8335 21.5948 64.6945 21.5948H61.1829C61.0413 21.5948 60.9181 21.4981 60.8823 21.3617L56.7615 5.49177C56.6979 5.24407 56.4741 5.07055 56.2172 5.07055H56.1813C55.9256 5.07055 55.7018 5.24407 55.637 5.49177L51.5175 21.3617C51.4817 21.4995 51.3584 21.5948 51.2167 21.5948H47.7052C47.5661 21.5948 47.4443 21.5008 47.4098 21.367L42.4493 2.39487C42.3963 2.19088 42.5499 1.99219 42.7606 1.99219H44.7289C44.8745 1.99219 45.0017 2.09153 45.0376 2.23327L48.9796 18.0052C49.0417 18.2556 49.2657 18.4318 49.5252 18.4318C49.7849 18.4318 50.0114 18.253 50.0723 17.9999L53.862 2.23592C53.8964 2.09286 54.0236 1.99219 54.1706 1.99219H58.2279C58.3748 1.99219 58.502 2.09286 58.5365 2.23592L62.3248 17.9999Z" fill="#94979E"/>
</svg>
