
<svg viewBox="0 0 112 20" fill="none" xmlns="http://www.w3.org/2000/svg">
<path d="M29.6571 5.60763C28.6683 5.04068 27.5514 4.75537 26.3063 4.75537C25.0611 4.75537 23.9405 5.04068 22.9444 5.60763C21.9484 6.17458 21.1573 6.95369 20.5751 7.93762C19.9928 8.92522 19.6998 10.0555 19.6998 11.3284C19.6998 12.6013 19.9965 13.7132 20.5861 14.7081C21.1757 15.7031 21.9703 16.4895 22.9664 17.0637C23.9625 17.638 25.0758 17.927 26.3026 17.927C27.5294 17.927 28.6207 17.6453 29.6168 17.0747C30.6129 16.5078 31.4076 15.725 31.9972 14.7337C32.5868 13.7388 32.8834 12.6049 32.8834 11.332C32.8834 10.0591 32.5904 8.92888 32.0081 7.94128C31.4259 6.95369 30.6385 6.17824 29.6498 5.61129L29.6571 5.60763ZM29.6351 13.4645C29.3018 14.0936 28.8441 14.5874 28.2691 14.9459C27.6942 15.3044 27.0387 15.4836 26.3099 15.4836C25.5812 15.4836 24.922 15.3044 24.336 14.9459C23.7538 14.5874 23.2923 14.0936 22.9591 13.4645C22.6258 12.8354 22.4574 12.1258 22.4574 11.332C22.4574 10.5383 22.6258 9.836 22.9591 9.2215C23.2923 8.60699 23.7538 8.11685 24.336 7.75474C24.9183 7.38896 25.5775 7.20607 26.3099 7.20607C27.0423 7.20607 27.6942 7.38896 28.2691 7.75474C28.8441 8.12051 29.2982 8.61065 29.6351 9.2215C29.9683 9.836 30.1368 10.5383 30.1368 11.332C30.1368 12.1258 29.9683 12.8354 29.6351 13.4645Z" fill="#c1c2c3"/>
<path d="M38.3981 5.42025C38.2406 5.51169 38.0978 5.61777 37.9623 5.73847C37.6986 5.97623 37.2775 5.80065 37.2775 5.44219C37.2775 5.21541 37.0944 5.03618 36.871 5.03618H35.1681C34.941 5.03618 34.7616 5.21907 34.7616 5.44219V17.2385C34.7616 17.4653 34.9447 17.6445 35.1681 17.6445H36.9882C37.2152 17.6445 37.3946 17.4616 37.3946 17.2385V10.3729C37.3946 9.39258 37.662 8.63176 38.2003 8.08675C38.7386 7.54175 39.4418 7.27107 40.3133 7.27107H41.0018C41.2289 7.27107 41.4083 7.08819 41.4083 6.86506V5.27759C41.4083 5.05081 41.2252 4.87158 41.0018 4.87158H40.6393C39.7677 4.87158 39.0206 5.05447 38.3981 5.42025Z" fill="#c1c2c3"/>
<path d="M52.4222 5.413C52.4222 5.79707 51.9864 6.01653 51.6788 5.78975C51.4664 5.63247 51.2357 5.48616 50.9867 5.36179C50.1993 4.95944 49.3094 4.7546 48.3133 4.7546C47.1158 4.7546 46.0392 5.04357 45.0797 5.61783C44.1239 6.1921 43.3695 6.97852 42.8165 7.97343C42.2635 8.96835 41.9889 10.0876 41.9889 11.3313C41.9889 12.5749 42.2635 13.6942 42.8165 14.6891C43.3695 15.684 44.1239 16.4741 45.0797 17.0557C46.0355 17.6372 47.1122 17.9299 48.3133 17.9299C49.2948 17.9299 50.1847 17.7287 50.9867 17.3227C51.2723 17.18 51.5323 17.0118 51.7704 16.8216C52.0816 16.5728 52.5394 16.7813 52.5394 17.18C52.5394 17.4397 52.7481 17.6482 53.0081 17.6482H54.5902C54.8502 17.6482 55.0589 17.4397 55.0589 17.18V0.467705C55.0589 0.208004 54.8502 -0.000488281 54.5902 -0.000488281H52.891C52.631 -0.000488281 52.4222 0.208004 52.4222 0.467705V5.413ZM51.9205 13.4637C51.5873 14.0929 51.1295 14.5867 50.5545 14.9451C49.9796 15.3036 49.3241 15.4828 48.5953 15.4828C47.8666 15.4828 47.1817 15.3036 46.5995 14.9451C46.0172 14.5867 45.5594 14.0929 45.2335 13.4637C44.9076 12.8346 44.7428 12.125 44.7428 11.3313C44.7428 10.5375 44.9076 9.83524 45.2335 9.22073C45.5594 8.60623 46.0209 8.11609 46.6105 7.75397C47.2001 7.38819 47.8629 7.2053 48.5953 7.2053C49.3277 7.2053 49.9796 7.38453 50.5545 7.743C51.1295 8.10146 51.5836 8.59525 51.9205 9.22439C52.2538 9.85352 52.4222 10.5558 52.4222 11.3349C52.4222 12.114 52.2538 12.8383 51.9205 13.4674V13.4637Z" fill="#c1c2c3"/>
<path d="M69.3301 11.7664L67.2281 5.47872C67.1402 5.21536 66.8912 5.03613 66.6129 5.03613H65.1407C64.8624 5.03613 64.6134 5.21536 64.5255 5.47872L62.4051 11.7701C62.2074 12.359 61.3687 12.359 61.1746 11.7664L59.1019 5.48238C59.014 5.21536 58.765 5.03613 58.4867 5.03613H57.0621C56.6153 5.03613 56.3041 5.47506 56.4505 5.89571L60.347 17.2128C60.4386 17.4725 60.6839 17.6481 60.9586 17.6481H62.4308C62.7091 17.6481 62.9581 17.4689 63.046 17.2055L65.2579 10.5447C65.4556 9.95217 66.2906 9.95217 66.4884 10.5447L68.7003 17.2055C68.7881 17.4689 69.0372 17.6481 69.3155 17.6481H70.7657C71.0403 17.6481 71.2894 17.4725 71.3773 17.2128L75.292 5.89571C75.4385 5.47506 75.1236 5.03613 74.6805 5.03613H73.2596C72.9813 5.03613 72.7322 5.21536 72.6443 5.47872L70.5569 11.7664C70.3592 12.359 69.5242 12.359 69.3265 11.7664H69.3301Z" fill="#c1c2c3"/>
<path d="M12.9162 11.7664L10.8142 5.47872C10.7263 5.21536 10.4772 5.03613 10.1989 5.03613H8.72676C8.44844 5.03613 8.19942 5.21536 8.11153 5.47872L5.99117 11.7701C5.79342 12.359 4.9548 12.359 4.76071 11.7664L2.68796 5.48238C2.60007 5.21536 2.35105 5.03613 2.07273 5.03613H0.648172C0.201396 5.03613 -0.109882 5.47506 0.0366022 5.89571L3.93308 17.2128C4.02463 17.4725 4.26999 17.6481 4.54465 17.6481H6.01681C6.29513 17.6481 6.54415 17.4689 6.63204 17.2055L8.84395 10.5447C9.0417 9.95217 9.87666 9.95217 10.0744 10.5447L12.2863 17.2055C12.3742 17.4689 12.6232 17.6481 12.9016 17.6481H14.3517C14.6264 17.6481 14.8754 17.4725 14.9633 17.2128L18.8781 5.89571C19.0246 5.47506 18.7096 5.03613 18.2665 5.03613H16.8456C16.5673 5.03613 16.3183 5.21536 16.2304 5.47872L14.143 11.7664C13.9453 12.359 13.1103 12.359 12.9125 11.7664H12.9162Z" fill="#c1c2c3"/>
<path d="M95.3087 5.42025C95.1512 5.51169 95.0084 5.61777 94.8729 5.73847C94.6092 5.97623 94.1881 5.80065 94.1881 5.44219C94.1881 5.21541 94.005 5.03618 93.7816 5.03618H92.0787C91.8517 5.03618 91.6722 5.21907 91.6722 5.44219V17.2385C91.6722 17.4653 91.8554 17.6445 92.0787 17.6445H93.8988C94.1259 17.6445 94.3053 17.4616 94.3053 17.2385V10.3729C94.3053 9.39258 94.5726 8.63176 95.111 8.08675C95.6493 7.54175 96.3524 7.27107 97.224 7.27107H97.9125C98.1395 7.27107 98.3189 7.08819 98.3189 6.86506V5.27759C98.3189 5.05081 98.1358 4.87158 97.9125 4.87158H97.5499C96.6783 4.87158 95.9313 5.05447 95.3087 5.42025Z" fill="#c1c2c3"/>
<path d="M111.394 8.53311C111.123 7.80156 110.728 7.15414 110.215 6.58718C109.702 6.02023 109.072 5.57398 108.325 5.24844C107.578 4.9229 106.721 4.7583 105.758 4.7583C104.59 4.7583 103.535 5.04361 102.594 5.61056C101.653 6.17751 100.91 6.9493 100.364 7.92958C99.8184 8.90986 99.5474 10.0365 99.5474 11.3094C99.5474 12.5823 99.8184 13.6759 100.364 14.6782C100.91 15.6804 101.664 16.4741 102.627 17.0557C103.59 17.6373 104.704 17.9299 105.963 17.9299C106.835 17.9299 107.633 17.7946 108.355 17.5202C109.08 17.2496 109.699 16.8801 110.222 16.4119C110.541 16.1266 110.808 15.8194 111.024 15.4902C111.244 15.1537 111.127 14.7038 110.768 14.5245L109.746 14.0124C109.461 13.8698 109.12 13.9539 108.922 14.2063C108.648 14.5501 108.325 14.8428 107.948 15.0842C107.421 15.4243 106.765 15.5963 105.989 15.5963C105.257 15.5963 104.601 15.417 104.015 15.0586C103.433 14.7001 102.979 14.2026 102.66 13.5662C102.561 13.3723 102.484 13.1638 102.422 12.948C102.305 12.5201 102.62 12.0958 103.063 12.0958H111.109C111.449 12.0958 111.746 11.8361 111.771 11.4959C111.771 11.4959 111.771 11.4922 111.771 11.4886C111.786 11.2728 111.793 11.0606 111.793 10.8594C111.793 10.0365 111.658 9.25735 111.383 8.52945L111.394 8.53311ZM102.656 8.99765C102.953 8.34657 103.371 7.84545 103.916 7.49431C104.462 7.14316 105.073 6.97125 105.758 6.97125C106.443 6.97125 107.073 7.14682 107.6 7.49431C108.128 7.84179 108.52 8.3173 108.769 8.91718C108.801 8.99399 108.831 9.07446 108.853 9.15493C108.985 9.57557 108.655 9.99987 108.212 9.99987H103.231C102.759 9.99987 102.429 9.51705 102.613 9.08178C102.624 9.05251 102.638 9.02325 102.649 8.99765H102.656Z" fill="#c1c2c3"/>
<path d="M86.3405 5.4831C86.3405 5.86717 85.9048 6.08664 85.5971 5.85985C85.3847 5.70257 85.154 5.55626 84.905 5.4319C84.1176 5.02954 83.2278 4.82471 82.2317 4.82471C81.0342 4.82471 79.9575 5.11367 78.998 5.68794C78.0422 6.26221 77.2878 7.04863 76.7349 8.04354C76.1819 9.03845 75.9072 10.1577 75.9072 11.4014C75.9072 12.645 76.1819 13.7643 76.7349 14.7592C77.2878 15.7541 78.0422 16.5442 78.998 17.1258C79.9538 17.7073 81.0305 18 82.2317 18C83.2131 18 84.103 17.7988 84.905 17.3928C85.1906 17.2501 85.4507 17.0819 85.6887 16.8917C86 16.6429 86.4577 16.8514 86.4577 17.2501C86.4577 17.5098 86.6665 17.7183 86.9265 17.7183H88.5085C88.7685 17.7183 88.9773 17.5098 88.9773 17.2501V5.47579C88.9773 5.21609 88.7685 5.0076 88.5085 5.0076H86.8093C86.5493 5.0076 86.3405 5.21609 86.3405 5.47579V5.4831ZM85.8388 13.5302C85.5056 14.1593 85.0478 14.6531 84.4729 15.0116C83.8979 15.37 83.2424 15.5493 82.5136 15.5493C81.7849 15.5493 81.1001 15.37 80.5178 15.0116C79.9355 14.6531 79.4778 14.1593 79.1518 13.5302C78.8259 12.901 78.6611 12.1914 78.6611 11.3977C78.6611 10.604 78.8259 9.90168 79.1518 9.28718C79.4778 8.67267 79.9392 8.18253 80.5288 7.82041C81.1184 7.45464 81.7812 7.27175 82.5136 7.27175C83.2461 7.27175 83.8979 7.45098 84.4729 7.80944C85.0478 8.1679 85.5019 8.6617 85.8388 9.29083C86.1721 9.91997 86.3405 10.6223 86.3405 11.4014C86.3405 12.1805 86.1721 12.9047 85.8388 13.5338V13.5302Z" fill="#c1c2c3"/>
</svg>
