<svg viewBox="0 0 138 32" fill="none" xmlns="http://www.w3.org/2000/svg">
<path d="M37.2375 11.8425C36.0296 11.1499 34.6651 10.8013 33.144 10.8013C31.6229 10.8013 30.2539 11.1499 29.037 11.8425C27.8202 12.5351 26.8538 13.4869 26.1425 14.6889C25.4312 15.8954 25.0732 17.2762 25.0732 18.8312C25.0732 20.3863 25.4357 21.7446 26.156 22.96C26.8763 24.1756 27.847 25.1363 29.0639 25.8377C30.2808 26.5393 31.6408 26.8924 33.1395 26.8924C34.6382 26.8924 35.9714 26.5482 37.1883 25.8512C38.4052 25.1586 39.376 24.2023 40.0963 22.9913C40.8166 21.7759 41.1789 20.3907 41.1789 18.8356C41.1789 17.2806 40.821 15.8999 40.1096 14.6934C39.3984 13.4869 38.4365 12.5396 37.2286 11.8469L37.2375 11.8425ZM37.2107 21.4408C36.8035 22.2093 36.2443 22.8126 35.5419 23.2505C34.8396 23.6885 34.0388 23.9074 33.1484 23.9074C32.2582 23.9074 31.4529 23.6885 30.737 23.2505C30.0258 22.8126 29.462 22.2093 29.055 21.4408C28.6478 20.6723 28.4421 19.8054 28.4421 18.8356C28.4421 17.866 28.6478 17.008 29.055 16.2573C29.462 15.5066 30.0258 14.9079 30.737 14.4655C31.4484 14.0186 32.2537 13.7952 33.1484 13.7952C34.0432 13.7952 34.8396 14.0186 35.5419 14.4655C36.2443 14.9123 36.7991 15.5111 37.2107 16.2573C37.6177 17.008 37.8236 17.866 37.8236 18.8356C37.8236 19.8054 37.6177 20.6723 37.2107 21.4408Z" fill="white"/>
<path d="M47.8996 11.6177C47.7071 11.7294 47.5327 11.859 47.3672 12.0065C47.045 12.2969 46.5306 12.0824 46.5306 11.6445C46.5306 11.3675 46.3069 11.1485 46.034 11.1485H43.9536C43.6762 11.1485 43.457 11.3719 43.457 11.6445V26.0554C43.457 26.3325 43.6807 26.5514 43.9536 26.5514H46.1771C46.4545 26.5514 46.6736 26.328 46.6736 26.0554V17.6681C46.6736 16.4705 47.0003 15.541 47.6579 14.8752C48.3155 14.2094 49.1746 13.8787 50.2392 13.8787H51.0803C51.3578 13.8787 51.5769 13.6553 51.5769 13.3827V11.4434C51.5769 11.1664 51.3533 10.9474 51.0803 10.9474H50.6375C49.5727 10.9474 48.66 11.1708 47.8996 11.6177Z" fill="white"/>
<path d="M65.0456 11.6134C65.0456 12.0826 64.5132 12.3507 64.1374 12.0736C63.878 11.8815 63.5961 11.7027 63.2919 11.5508C62.33 11.0593 61.2429 10.809 60.026 10.809C58.5631 10.809 57.2478 11.1621 56.0757 11.8636C54.908 12.5652 53.9864 13.5259 53.3108 14.7413C52.6353 15.9567 52.2998 17.3241 52.2998 18.8434C52.2998 20.3627 52.6353 21.7301 53.3108 22.9455C53.9864 24.1609 54.908 25.1261 56.0757 25.8366C57.2433 26.547 58.5587 26.9046 60.026 26.9046C61.225 26.9046 62.3122 26.6588 63.2919 26.1628C63.6408 25.9885 63.9585 25.783 64.2493 25.5506C64.6295 25.2467 65.1888 25.5014 65.1888 25.9885C65.1888 26.3057 65.4437 26.5605 65.7614 26.5605H67.6941C68.0118 26.5605 68.2667 26.3057 68.2667 25.9885V5.57197C68.2667 5.2547 68.0118 5 67.6941 5H65.6183C65.3007 5 65.0456 5.2547 65.0456 5.57197V11.6134ZM64.4327 21.4485C64.0257 22.2171 63.4664 22.8204 62.7639 23.2582C62.0616 23.6962 61.2608 23.9151 60.3705 23.9151C59.4803 23.9151 58.6436 23.6962 57.9323 23.2582C57.221 22.8204 56.6617 22.2171 56.2636 21.4485C55.8654 20.6799 55.6641 19.8131 55.6641 18.8434C55.6641 17.8737 55.8654 17.0158 56.2636 16.2651C56.6617 15.5144 57.2255 14.9156 57.9458 14.4732C58.666 14.0264 59.4758 13.8029 60.3705 13.8029C61.2652 13.8029 62.0616 14.0219 62.7639 14.4598C63.4664 14.8977 64.0211 15.501 64.4327 16.2695C64.8399 17.0381 65.0456 17.896 65.0456 18.8478C65.0456 19.7996 64.8399 20.6845 64.4327 21.453V21.4485Z" fill="white"/>
<path d="M85.6901 19.3671L83.1222 11.6858C83.0149 11.3641 82.7107 11.1451 82.3707 11.1451H80.5722C80.2322 11.1451 79.928 11.3641 79.8206 11.6858L77.2302 19.3716C76.9887 20.0911 75.9641 20.0911 75.727 19.3671L73.1949 11.6903C73.0875 11.3641 72.7833 11.1451 72.4433 11.1451H70.703C70.1571 11.1451 69.777 11.6813 69.9558 12.1952L74.716 26.0207C74.8279 26.338 75.1275 26.5525 75.4631 26.5525H77.2616C77.6016 26.5525 77.9058 26.3336 78.0132 26.0118L80.7153 17.8746C80.9569 17.1508 81.9769 17.1508 82.2186 17.8746L84.9207 26.0118C85.028 26.3336 85.3323 26.5525 85.6723 26.5525H87.4439C87.7794 26.5525 88.0837 26.338 88.1911 26.0207L92.9735 12.1952C93.1524 11.6813 92.7677 11.1451 92.2264 11.1451H90.4906C90.1506 11.1451 89.8463 11.3641 89.7389 11.6858L87.1888 19.3671C86.9473 20.0911 85.9273 20.0911 85.6857 19.3671H85.6901Z" fill="white"/>
<path d="M16.779 19.3671L14.2111 11.6858C14.1037 11.364 13.7994 11.1451 13.4595 11.1451H11.661C11.321 11.1451 11.0168 11.364 10.9094 11.6858L8.31909 19.3716C8.07751 20.091 7.05301 20.091 6.8159 19.3671L4.28374 11.6902C4.17637 11.364 3.87215 11.1451 3.53214 11.1451H1.79184C1.24603 11.1451 0.865763 11.6813 1.04472 12.1952L5.80483 26.0207C5.91667 26.3379 6.21642 26.5525 6.55196 26.5525H8.35041C8.69042 26.5525 8.99464 26.3335 9.10201 26.0118L11.8042 17.8746C12.0458 17.1507 13.0658 17.1507 13.3074 17.8746L16.0095 26.0118C16.1169 26.3335 16.4211 26.5525 16.7612 26.5525H18.5327C18.8683 26.5525 19.1725 26.3379 19.2799 26.0207L24.0624 12.1952C24.2413 11.6813 23.8565 11.1451 23.3152 11.1451H21.5794C21.2394 11.1451 20.9352 11.364 20.8278 11.6858L18.2777 19.3671C18.0362 20.091 17.0162 20.091 16.7745 19.3671H16.779Z" fill="white"/>
<path d="M117.438 11.6177C117.245 11.7294 117.071 11.859 116.905 12.0065C116.583 12.2969 116.069 12.0824 116.069 11.6445C116.069 11.3675 115.845 11.1485 115.572 11.1485H113.492C113.214 11.1485 112.995 11.3719 112.995 11.6445V26.0554C112.995 26.3325 113.219 26.5514 113.492 26.5514H115.715C115.993 26.5514 116.212 26.328 116.212 26.0554V17.6681C116.212 16.4705 116.538 15.541 117.196 14.8752C117.854 14.2094 118.713 13.8787 119.777 13.8787H120.619C120.896 13.8787 121.115 13.6553 121.115 13.3827V11.4434C121.115 11.1664 120.891 10.9474 120.619 10.9474H120.176C119.111 10.9474 118.198 11.1708 117.438 11.6177Z" fill="white"/>
<path d="M137.094 15.4128C136.763 14.5191 136.28 13.7282 135.653 13.0356C135.027 12.3429 134.257 11.7978 133.344 11.4001C132.432 11.0024 131.385 10.8013 130.208 10.8013C128.782 10.8013 127.493 11.1499 126.343 11.8425C125.194 12.5351 124.286 13.4779 123.619 14.6755C122.952 15.8731 122.621 17.2494 122.621 18.8044C122.621 20.3595 122.952 21.6955 123.619 22.9199C124.286 24.1443 125.207 25.1139 126.383 25.8244C127.56 26.5349 128.921 26.8924 130.459 26.8924C131.524 26.8924 132.499 26.7271 133.381 26.3918C134.267 26.0613 135.023 25.6099 135.662 25.0379C136.052 24.6894 136.378 24.3141 136.642 23.9119C136.91 23.5008 136.767 22.9512 136.329 22.7322L135.08 22.1066C134.732 21.9323 134.316 22.0351 134.074 22.3434C133.739 22.7634 133.344 23.121 132.884 23.4159C132.24 23.8314 131.439 24.0415 130.491 24.0415C129.596 24.0415 128.795 23.8225 128.079 23.3846C127.368 22.9467 126.813 22.3389 126.424 21.5615C126.303 21.3246 126.209 21.0699 126.133 20.8062C125.99 20.2835 126.375 19.7651 126.916 19.7651H136.745C137.161 19.7651 137.524 19.4479 137.554 19.0323C137.554 19.0323 137.554 19.0278 137.554 19.0234C137.573 18.7597 137.581 18.5005 137.581 18.2547C137.581 17.2494 137.416 16.2976 137.08 15.4083L137.094 15.4128ZM126.419 15.9803C126.782 15.1849 127.292 14.5727 127.958 14.1438C128.625 13.7148 129.372 13.5048 130.208 13.5048C131.045 13.5048 131.815 13.7192 132.459 14.1438C133.104 14.5682 133.583 15.1492 133.887 15.882C133.926 15.9758 133.963 16.0741 133.989 16.1724C134.151 16.6863 133.748 17.2047 133.206 17.2047H127.121C126.545 17.2047 126.142 16.6148 126.366 16.0831C126.38 16.0473 126.397 16.0116 126.41 15.9803H126.419Z" fill="white"/>
<path d="M106.48 11.7088C106.48 12.178 105.948 12.4461 105.572 12.169C105.313 11.9769 105.031 11.7981 104.726 11.6462C103.765 11.1547 102.678 10.9044 101.461 10.9044C99.9977 10.9044 98.6824 11.2575 97.5102 11.959C96.3426 12.6606 95.421 13.6213 94.7455 14.8367C94.07 16.0521 93.7344 17.4195 93.7344 18.9388C93.7344 20.4581 94.07 21.8255 94.7455 23.0409C95.421 24.2563 96.3426 25.2215 97.5102 25.932C98.6779 26.6424 99.9932 27 101.461 27C102.66 27 103.747 26.7542 104.726 26.2582C105.075 26.0839 105.393 25.8784 105.684 25.646C106.064 25.3421 106.623 25.5968 106.623 26.0839C106.623 26.4011 106.878 26.6559 107.196 26.6559H109.129C109.446 26.6559 109.701 26.4011 109.701 26.0839V11.6998C109.701 11.3826 109.446 11.1279 109.129 11.1279H107.053C106.735 11.1279 106.48 11.3826 106.48 11.6998V11.7088ZM105.867 21.5395C105.46 22.308 104.901 22.9113 104.199 23.3492C103.496 23.7871 102.695 24.0061 101.805 24.0061C100.915 24.0061 100.078 23.7871 99.3669 23.3492C98.6555 22.9113 98.0964 22.308 97.6981 21.5395C97.3 20.7708 97.0987 19.9039 97.0987 18.9343C97.0987 17.9647 97.3 17.1067 97.6981 16.356C98.0964 15.6053 98.66 15.0065 99.3803 14.5641C100.101 14.1173 100.91 13.8939 101.805 13.8939C102.7 13.8939 103.496 14.1128 104.199 14.5507C104.901 14.9886 105.456 15.5919 105.867 16.3605C106.274 17.1291 106.48 17.9871 106.48 18.9388C106.48 19.8906 106.274 20.7753 105.867 21.5439V21.5395Z" fill="white"/>
</svg>
