<svg viewBox="0 0 138 32" fill="none" xmlns="http://www.w3.org/2000/svg">
<path d="M37.2385 11.8429C36.0306 11.1503 34.6661 10.8018 33.145 10.8018C31.6238 10.8018 30.2549 11.1503 29.038 11.8429C27.8212 12.5355 26.8548 13.4873 26.1435 14.6893C25.4322 15.8958 25.0742 17.2766 25.0742 18.8317C25.0742 20.3867 25.4367 21.7451 26.157 22.9605C26.8772 24.176 27.848 25.1367 29.0648 25.8382C30.2817 26.5398 31.6418 26.8928 33.1405 26.8928C34.6392 26.8928 35.9724 26.5487 37.1893 25.8516C38.4062 25.1591 39.377 24.2028 40.0973 22.9917C40.8176 21.7763 41.1799 20.3911 41.1799 18.8361C41.1799 17.281 40.822 15.9003 40.1106 14.6938C39.3994 13.4873 38.4374 12.54 37.2296 11.8474L37.2385 11.8429ZM37.2116 21.4412C36.8045 22.2098 36.2453 22.813 35.5429 23.251C34.8405 23.6889 34.0398 23.9079 33.1494 23.9079C32.2592 23.9079 31.4539 23.6889 30.738 23.251C30.0268 22.813 29.463 22.2098 29.0559 21.4412C28.6488 20.6727 28.443 19.8058 28.443 18.8361C28.443 17.8665 28.6488 17.0085 29.0559 16.2578C29.463 15.5071 30.0268 14.9083 30.738 14.4659C31.4494 14.0191 32.2547 13.7956 33.1494 13.7956C34.0442 13.7956 34.8405 14.0191 35.5429 14.4659C36.2453 14.9128 36.8001 15.5115 37.2116 16.2578C37.6187 17.0085 37.8245 17.8665 37.8245 18.8361C37.8245 19.8058 37.6187 20.6727 37.2116 21.4412Z" fill="url(#paint0_linear_12865_71769)"/>
<path d="M47.8995 11.6175C47.7071 11.7293 47.5327 11.8588 47.3672 12.0063C47.045 12.2968 46.5306 12.0823 46.5306 11.6443C46.5306 11.3673 46.3069 11.1483 46.034 11.1483H43.9536C43.6762 11.1483 43.457 11.3718 43.457 11.6443V26.0553C43.457 26.3323 43.6807 26.5513 43.9536 26.5513H46.1772C46.4545 26.5513 46.6736 26.3278 46.6736 26.0553V17.6679C46.6736 16.4703 47.0003 15.5409 47.6579 14.8751C48.3155 14.2093 49.1746 13.8786 50.2392 13.8786H51.0803C51.3578 13.8786 51.5769 13.6552 51.5769 13.3826V11.4433C51.5769 11.1662 51.3533 10.9473 51.0803 10.9473H50.6375C49.5727 10.9473 48.66 11.1707 47.8995 11.6175Z" fill="url(#paint1_linear_12865_71769)"/>
<path d="M65.0466 11.6134C65.0466 12.0826 64.5142 12.3507 64.1384 12.0736C63.8789 11.8815 63.5971 11.7027 63.2929 11.5508C62.331 11.0593 61.2438 10.809 60.027 10.809C58.564 10.809 57.2488 11.1621 56.0766 11.8636C54.909 12.5652 53.9874 13.5259 53.3118 14.7413C52.6362 15.9567 52.3008 17.3241 52.3008 18.8434C52.3008 20.3627 52.6362 21.7301 53.3118 22.9455C53.9874 24.1609 54.909 25.1261 56.0766 25.8366C57.2443 26.547 58.5596 26.9046 60.027 26.9046C61.226 26.9046 62.3131 26.6588 63.2929 26.1628C63.6418 25.9885 63.9594 25.783 64.2503 25.5506C64.6305 25.2467 65.1898 25.5014 65.1898 25.9885C65.1898 26.3057 65.4447 26.5605 65.7623 26.5605H67.6951C68.0127 26.5605 68.2677 26.3057 68.2677 25.9885V5.57197C68.2677 5.2547 68.0127 5 67.6951 5H65.6193C65.3017 5 65.0466 5.2547 65.0466 5.57197V11.6134ZM64.4337 21.4485C64.0266 22.2171 63.4674 22.8204 62.7649 23.2582C62.0626 23.6962 61.2618 23.9151 60.3715 23.9151C59.4813 23.9151 58.6445 23.6962 57.9333 23.2582C57.2219 22.8204 56.6627 22.2171 56.2645 21.4485C55.8664 20.6799 55.6651 19.8131 55.6651 18.8434C55.6651 17.8737 55.8664 17.0158 56.2645 16.2651C56.6627 15.5144 57.2265 14.9156 57.9467 14.4732C58.667 14.0264 59.4767 13.8029 60.3715 13.8029C61.2662 13.8029 62.0626 14.0219 62.7649 14.4598C63.4674 14.8977 64.0221 15.501 64.4337 16.2695C64.8409 17.0381 65.0466 17.896 65.0466 18.8478C65.0466 19.7996 64.8409 20.6845 64.4337 21.453V21.4485Z" fill="url(#paint2_linear_12865_71769)"/>
<path d="M85.6892 19.3675L83.1213 11.6862C83.0139 11.3645 82.7097 11.1455 82.3697 11.1455H80.5712C80.2312 11.1455 79.927 11.3645 79.8196 11.6862L77.2293 19.372C76.9877 20.0915 75.9631 20.0915 75.726 19.3675L73.1939 11.6907C73.0865 11.3645 72.7823 11.1455 72.4423 11.1455H70.702C70.1562 11.1455 69.776 11.6817 69.9548 12.1956L74.715 26.0211C74.8269 26.3384 75.1266 26.5529 75.4621 26.5529H77.2606C77.6006 26.5529 77.9048 26.334 78.0122 26.0122L80.7144 17.875C80.9559 17.1512 81.976 17.1512 82.2176 17.875L84.9198 26.0122C85.027 26.334 85.3313 26.5529 85.6713 26.5529H87.443C87.7784 26.5529 88.0827 26.3384 88.1901 26.0211L92.9725 12.1956C93.1515 11.6817 92.7668 11.1455 92.2254 11.1455H90.4896C90.1496 11.1455 89.8453 11.3645 89.7379 11.6862L87.1879 19.3675C86.9464 20.0915 85.9263 20.0915 85.6848 19.3675H85.6892Z" fill="url(#paint3_linear_12865_71769)"/>
<path d="M16.779 19.3675L14.2111 11.6862C14.1037 11.3645 13.7994 11.1455 13.4594 11.1455H11.661C11.321 11.1455 11.0168 11.3645 10.9094 11.6862L8.31909 19.372C8.07751 20.0915 7.05301 20.0915 6.8159 19.3675L4.28374 11.6907C4.17637 11.3645 3.87215 11.1455 3.53214 11.1455H1.79184C1.24603 11.1455 0.865763 11.6817 1.04472 12.1956L5.80483 26.0211C5.91667 26.3384 6.21642 26.5529 6.55196 26.5529H8.35041C8.69042 26.5529 8.99464 26.334 9.10201 26.0122L11.8042 17.875C12.0458 17.1512 13.0658 17.1512 13.3074 17.875L16.0095 26.0122C16.1169 26.334 16.4211 26.5529 16.7612 26.5529H18.5327C18.8683 26.5529 19.1725 26.3384 19.2799 26.0211L24.0624 12.1956C24.2413 11.6817 23.8565 11.1455 23.3152 11.1455H21.5794C21.2394 11.1455 20.9352 11.3645 20.8278 11.6862L18.2777 19.3675C18.0362 20.0915 17.0162 20.0915 16.7745 19.3675H16.779Z" fill="url(#paint4_linear_12865_71769)"/>
<path d="M117.439 11.6175C117.246 11.7293 117.072 11.8588 116.906 12.0063C116.584 12.2968 116.07 12.0823 116.07 11.6443C116.07 11.3673 115.846 11.1483 115.573 11.1483H113.493C113.215 11.1483 112.996 11.3718 112.996 11.6443V26.0553C112.996 26.3323 113.22 26.5513 113.493 26.5513H115.716C115.994 26.5513 116.213 26.3278 116.213 26.0553V17.6679C116.213 16.4703 116.539 15.5409 117.197 14.8751C117.855 14.2093 118.714 13.8786 119.778 13.8786H120.62C120.897 13.8786 121.116 13.6552 121.116 13.3826V11.4433C121.116 11.1662 120.892 10.9473 120.62 10.9473H120.177C119.112 10.9473 118.199 11.1707 117.439 11.6175Z" fill="url(#paint5_linear_12865_71769)"/>
<path d="M137.093 15.4132C136.762 14.5195 136.28 13.7286 135.653 13.036C135.026 12.3434 134.257 11.7982 133.344 11.4005C132.432 11.0028 131.385 10.8018 130.208 10.8018C128.781 10.8018 127.493 11.1503 126.343 11.8429C125.193 12.5355 124.286 13.4784 123.619 14.6759C122.952 15.8735 122.621 17.2499 122.621 18.8049C122.621 20.3599 122.952 21.6959 123.619 22.9204C124.286 24.1447 125.207 25.1143 126.383 25.8248C127.56 26.5353 128.921 26.8928 130.459 26.8928C131.524 26.8928 132.499 26.7275 133.381 26.3923C134.267 26.0617 135.023 25.6103 135.662 25.0383C136.051 24.6898 136.378 24.3145 136.641 23.9123C136.91 23.5013 136.767 22.9516 136.329 22.7326L135.08 22.107C134.732 21.9328 134.315 22.0355 134.074 22.3439C133.739 22.7639 133.344 23.1215 132.884 23.4164C132.24 23.8318 131.438 24.042 130.49 24.042C129.596 24.042 128.795 23.8229 128.079 23.3851C127.368 22.9471 126.813 22.3394 126.424 21.5619C126.303 21.325 126.209 21.0703 126.133 20.8067C125.99 20.2839 126.375 19.7656 126.916 19.7656H136.745C137.161 19.7656 137.523 19.4483 137.554 19.0327C137.554 19.0327 137.554 19.0282 137.554 19.0238C137.572 18.7602 137.581 18.5009 137.581 18.2551C137.581 17.2499 137.416 16.298 137.08 15.4088L137.093 15.4132ZM126.419 15.9807C126.782 15.1854 127.292 14.5732 127.958 14.1442C128.625 13.7152 129.371 13.5052 130.208 13.5052C131.045 13.5052 131.815 13.7197 132.459 14.1442C133.104 14.5687 133.582 15.1496 133.887 15.8824C133.926 15.9763 133.962 16.0746 133.989 16.1729C134.15 16.6868 133.747 17.2051 133.206 17.2051H127.121C126.545 17.2051 126.141 16.6153 126.366 16.0835C126.38 16.0478 126.397 16.012 126.41 15.9807H126.419Z" fill="url(#paint6_linear_12865_71769)"/>
<path d="M106.48 11.7086C106.48 12.1778 105.948 12.4459 105.572 12.1689C105.313 11.9767 105.031 11.798 104.726 11.6461C103.765 11.1545 102.678 10.9043 101.461 10.9043C99.9977 10.9043 98.6824 11.2573 97.5102 11.9589C96.3426 12.6604 95.421 13.6211 94.7455 14.8366C94.07 16.052 93.7344 17.4193 93.7344 18.9387C93.7344 20.4579 94.07 21.8253 94.7455 23.0407C95.421 24.2561 96.3426 25.2214 97.5102 25.9319C98.6779 26.6423 99.9932 26.9998 101.461 26.9998C102.66 26.9998 103.747 26.754 104.726 26.2581C105.075 26.0837 105.393 25.8782 105.684 25.6459C106.064 25.3419 106.623 25.5967 106.623 26.0837C106.623 26.401 106.878 26.6557 107.196 26.6557H109.129C109.446 26.6557 109.701 26.401 109.701 26.0837V11.6997C109.701 11.3824 109.446 11.1277 109.129 11.1277H107.053C106.735 11.1277 106.48 11.3824 106.48 11.6997V11.7086ZM105.867 21.5393C105.46 22.3079 104.901 22.9111 104.199 23.3491C103.496 23.7869 102.695 24.006 101.805 24.006C100.915 24.006 100.078 23.7869 99.3669 23.3491C98.6555 22.9111 98.0964 22.3079 97.6981 21.5393C97.3 20.7707 97.0987 19.9038 97.0987 18.9342C97.0987 17.9645 97.3 17.1066 97.6981 16.3559C98.0964 15.6051 98.66 15.0064 99.3803 14.564C100.101 14.1171 100.91 13.8937 101.805 13.8937C102.7 13.8937 103.496 14.1127 104.199 14.5506C104.901 14.9885 105.456 15.5917 105.867 16.3603C106.274 17.1289 106.48 17.9869 106.48 18.9387C106.48 19.8905 106.274 20.7752 105.867 21.5437V21.5393Z" fill="url(#paint7_linear_12865_71769)"/>
<defs>
<linearGradient id="paint0_linear_12865_71769" x1="33.1271" y1="10.8018" x2="33.1271" y2="26.8928" gradientUnits="userSpaceOnUse">
<stop stop-color="#C9CBCF"/>
<stop offset="1" stop-color="#94979E"/>
</linearGradient>
<linearGradient id="paint1_linear_12865_71769" x1="47.517" y1="10.9473" x2="47.517" y2="26.5513" gradientUnits="userSpaceOnUse">
<stop stop-color="#C9CBCF"/>
<stop offset="1" stop-color="#94979E"/>
</linearGradient>
<linearGradient id="paint2_linear_12865_71769" x1="60.2842" y1="5" x2="60.2842" y2="26.9046" gradientUnits="userSpaceOnUse">
<stop stop-color="#C9CBCF"/>
<stop offset="1" stop-color="#94979E"/>
</linearGradient>
<linearGradient id="paint3_linear_12865_71769" x1="81.4635" y1="11.1455" x2="81.4635" y2="26.5529" gradientUnits="userSpaceOnUse">
<stop stop-color="#C9CBCF"/>
<stop offset="1" stop-color="#94979E"/>
</linearGradient>
<linearGradient id="paint4_linear_12865_71769" x1="12.5534" y1="11.1455" x2="12.5534" y2="26.5529" gradientUnits="userSpaceOnUse">
<stop stop-color="#C9CBCF"/>
<stop offset="1" stop-color="#94979E"/>
</linearGradient>
<linearGradient id="paint5_linear_12865_71769" x1="117.056" y1="10.9473" x2="117.056" y2="26.5513" gradientUnits="userSpaceOnUse">
<stop stop-color="#C9CBCF"/>
<stop offset="1" stop-color="#94979E"/>
</linearGradient>
<linearGradient id="paint6_linear_12865_71769" x1="130.101" y1="10.8018" x2="130.101" y2="26.8928" gradientUnits="userSpaceOnUse">
<stop stop-color="#C9CBCF"/>
<stop offset="1" stop-color="#94979E"/>
</linearGradient>
<linearGradient id="paint7_linear_12865_71769" x1="101.718" y1="10.9043" x2="101.718" y2="26.9998" gradientUnits="userSpaceOnUse">
<stop stop-color="#C9CBCF"/>
<stop offset="1" stop-color="#94979E"/>
</linearGradient>
</defs>
</svg>
