<svg width="104" height="24" viewBox="0 0 104 24" fill="none" xmlns="http://www.w3.org/2000/svg">
<g clip-path="url(#clip0_449_18287)">
<path fill-rule="evenodd" clip-rule="evenodd" d="M1.5 2.25C1.5 1.83578 1.83578 1.5 2.25 1.5H21.4393L18.8143 4.125H5.625C4.79657 4.125 4.125 4.79657 4.125 5.625V15H5.625V5.625H17.3143L14.6893 8.25H9.375C8.75368 8.25 8.25 8.75368 8.25 9.375V11.25H9.75V9.75H13.1893L0.859835 22.0795C0.151126 22.7882 0.653062 24 1.65533 24H21.75C22.9927 24 24 22.9927 24 21.75V5.25H22.5V21.75C22.5 22.1642 22.1642 22.5 21.75 22.5H2.56067L5.18567 19.875H18.375C19.2035 19.875 19.875 19.2035 19.875 18.375V9H18.375V18.375H6.68567L9.26378 15.7969H14.625C15.2463 15.7969 15.75 15.2932 15.75 14.6719V12.75H14.25V14.2969H10.7638L23.1402 1.9205C23.8488 1.21179 23.347 0 22.3447 0H2.25C1.00736 0 0 1.00736 0 2.25V18.75H1.5V2.25ZM38.0733 10.8111H32V9.58138L36.3827 2.65643H32V1.375H38.0733V2.53995L33.6647 9.52313H38.0733V10.8111ZM46.0063 10.8111H39.946V1.375H46.0063V2.65643H41.3895V5.41347H45.33V6.68843H41.3895V9.52313H46.0063V10.8111ZM54.557 6.50075V6.0283V5.54938C54.557 5.06183 54.5375 4.63685 54.4985 4.27442C54.4595 3.91198 54.3685 3.55603 54.2253 3.20655C54.0867 2.85707 53.8763 2.5421 53.5947 2.26165C53.0007 1.67055 52.1837 1.375 51.1432 1.375H47.814V10.8111H51.1432C52.1837 10.8111 53.0007 10.5155 53.5947 9.9244C53.8763 9.64395 54.0867 9.32035 54.2253 8.9536C54.3685 8.58687 54.4595 8.21365 54.4985 7.83397C54.5375 7.45428 54.557 7.00988 54.557 6.50075ZM53.094 4.77275C53.1113 5.06615 53.12 5.48467 53.12 6.0283C53.12 6.84377 53.0918 7.46292 53.0353 7.88573C52.979 8.30857 52.8382 8.64295 52.6128 8.88888C52.227 9.31172 51.6893 9.52313 51.0002 9.52313H49.2575V2.65643H51.0002C51.685 2.65643 52.2227 2.87002 52.6128 3.29715C52.7645 3.46543 52.8772 3.679 52.9508 3.93788C53.0288 4.19675 53.0767 4.47505 53.094 4.77275ZM33.4435 22.5473H32V13.1113H33.4435V22.5473ZM41.7342 22.5473H43.0542V13.1113H41.6172V19.7385L37.2345 13.1113H35.9145V22.5473H37.358V15.9072L41.7342 22.5473ZM52.0037 17.7647V18.237C52.0037 18.7462 51.9842 19.1905 51.9452 19.5703C51.9062 19.95 51.8152 20.3232 51.672 20.6898C51.5333 21.0567 51.3232 21.3802 51.0413 21.6607C50.4475 22.2518 49.6303 22.5473 48.5898 22.5473H45.2607V13.1113H48.5898C49.6303 13.1113 50.4475 13.4069 51.0413 13.998C51.3232 14.2784 51.5333 14.5934 51.672 14.9429C51.8152 15.2923 51.9062 15.6483 51.9452 16.0107C51.9842 16.3731 52.0037 16.7982 52.0037 17.2857V17.7647ZM50.5667 17.7647C50.5667 17.221 50.558 16.8025 50.5407 16.5091C50.5233 16.2113 50.4757 15.9331 50.3977 15.6742C50.3238 15.4153 50.2112 15.2017 50.0595 15.0335C49.6693 14.6063 49.1318 14.3927 48.4468 14.3927H46.7042V21.2595H48.4468C49.1362 21.2595 49.6737 21.048 50.0595 20.6252C50.2848 20.3792 50.4258 20.0448 50.4822 19.622C50.5385 19.1992 50.5667 18.58 50.5667 17.7647ZM60.0688 21.0653C60.3637 20.5692 60.511 20.0017 60.511 19.3632V13.1113H59.074V19.2985C59.074 19.717 58.9917 20.0793 58.827 20.3857C58.6665 20.692 58.4368 20.9293 58.1377 21.0977C57.8428 21.2617 57.4983 21.3435 57.1038 21.3435C56.7093 21.3435 56.3647 21.2617 56.0698 21.0977C55.7752 20.9293 55.5475 20.692 55.3872 20.3857C55.2267 20.075 55.1465 19.7127 55.1465 19.2985V13.1113H53.7095V19.3632C53.7095 20.0017 53.8568 20.5692 54.1517 21.0653C54.4465 21.5615 54.8518 21.9455 55.3677 22.2173C55.8835 22.4892 56.4622 22.625 57.1038 22.625C57.7497 22.625 58.3305 22.4892 58.8465 22.2173C59.3667 21.9455 59.7742 21.5615 60.0688 21.0653ZM68.4917 19.855C68.4917 20.2735 68.4093 20.6575 68.2447 21.007C68.0798 21.3522 67.8415 21.6477 67.5293 21.8937C67.2217 22.1353 66.8618 22.3187 66.45 22.4438C66.0382 22.5647 65.583 22.625 65.0845 22.625C64.3605 22.625 63.7298 22.53 63.1922 22.3402C62.659 22.146 62.1692 21.8268 61.7227 21.3823L62.685 20.4375C62.8975 20.6532 63.1293 20.8302 63.3808 20.9682C63.6365 21.1063 63.9075 21.2033 64.1937 21.2595C64.4797 21.3155 64.7853 21.3435 65.1105 21.3435C65.7217 21.3435 66.2007 21.2163 66.5475 20.9617C66.8943 20.7072 67.0677 20.3512 67.0677 19.8938C67.0677 19.4667 66.942 19.141 66.6905 18.9167C66.5778 18.8043 66.4457 18.7203 66.2938 18.6642C66.1465 18.6038 65.9342 18.5542 65.6567 18.5153L64.5382 18.36C63.7667 18.2522 63.1662 17.9997 62.737 17.6028C62.2775 17.1757 62.0478 16.5759 62.0478 15.8036C62.0478 15.2557 62.1757 14.7724 62.4315 14.3539C62.6872 13.9354 63.0535 13.6118 63.5303 13.3831C64.0072 13.1501 64.5687 13.0336 65.2145 13.0336C65.8517 13.0336 66.4023 13.1199 66.8662 13.2925C67.33 13.4608 67.7613 13.7304 68.1602 14.1015L67.2368 15.0076C67.046 14.822 66.8423 14.6775 66.6255 14.574C66.4088 14.4661 66.1833 14.3906 65.9493 14.3474C65.7152 14.3 65.4573 14.2762 65.1755 14.2762C64.8157 14.2762 64.5057 14.3388 64.2457 14.4639C63.9855 14.5891 63.7862 14.7638 63.6473 14.9882C63.513 15.2082 63.4458 15.4606 63.4458 15.7454C63.4458 16.1207 63.565 16.4141 63.8035 16.6255C63.9205 16.7248 64.0743 16.8153 64.2652 16.8973C64.4558 16.975 64.6575 17.029 64.8698 17.0592L65.9493 17.221C66.3828 17.2857 66.736 17.3742 67.0092 17.4863C67.2867 17.5942 67.5228 17.7387 67.718 17.92C68.2338 18.3687 68.4917 19.0137 68.4917 19.855ZM73.6287 14.3927H76.2362V13.1113H69.5777V14.3927H72.1917V22.5473H73.6287V14.3927ZM84.516 22.5473H82.8383L80.842 18.5737H79.0473V22.5473H77.6038V13.1113H81.2842C81.8652 13.1113 82.3788 13.2299 82.8253 13.4672C83.2762 13.7002 83.6208 14.026 83.8592 14.4445C84.102 14.8587 84.2233 15.3333 84.2233 15.8683C84.2233 16.5155 84.0478 17.057 83.6967 17.4928C83.3498 17.9242 82.8968 18.2177 82.3377 18.373L84.516 22.5473ZM82.7863 15.8813C82.7863 15.4196 82.6388 15.0572 82.3442 14.794C82.0537 14.5265 81.6635 14.3927 81.1737 14.3927H79.0473V17.3503H81.1737C81.6592 17.3503 82.0493 17.2188 82.3442 16.9557C82.6388 16.6923 82.7863 16.3343 82.7863 15.8813ZM86.3302 22.5473H87.7737V13.1113H86.3302V22.5473ZM95.75 22.5473H89.6897V13.1113H95.75V14.3927H91.1333V17.1498H95.0737V18.4247H91.1333V21.2595H95.75V22.5473ZM103.41 21.007C103.575 20.6575 103.657 20.2735 103.657 19.855C103.657 19.0137 103.399 18.3687 102.883 17.92C102.688 17.7387 102.452 17.5942 102.174 17.4863C101.901 17.3742 101.548 17.2857 101.115 17.221L100.035 17.0592C99.8227 17.029 99.6212 16.975 99.4303 16.8973C99.2397 16.8153 99.0858 16.7248 98.9687 16.6255C98.7303 16.4141 98.611 16.1207 98.611 15.7454C98.611 15.4606 98.6783 15.2082 98.8127 14.9882C98.9513 14.7638 99.1508 14.5891 99.4108 14.4639C99.671 14.3388 99.981 14.2762 100.341 14.2762C100.623 14.2762 100.881 14.3 101.115 14.3474C101.349 14.3906 101.574 14.4661 101.791 14.574C102.007 14.6775 102.211 14.822 102.402 15.0076L103.325 14.1015C102.927 13.7304 102.495 13.4608 102.031 13.2925C101.568 13.1199 101.017 13.0336 100.38 13.0336C99.7338 13.0336 99.1725 13.1501 98.6957 13.3831C98.2188 13.6118 97.8525 13.9354 97.5967 14.3539C97.341 14.7724 97.213 15.2557 97.213 15.8036C97.213 16.5759 97.4428 17.1757 97.9023 17.6028C98.3315 17.9997 98.9318 18.2522 99.7035 18.36L100.822 18.5153C101.099 18.5542 101.312 18.6038 101.459 18.6642C101.611 18.7203 101.743 18.8043 101.856 18.9167C102.107 19.141 102.233 19.4667 102.233 19.8938C102.233 20.3512 102.06 20.7072 101.713 20.9617C101.366 21.2163 100.887 21.3435 100.276 21.3435C99.9505 21.3435 99.645 21.3155 99.3588 21.2595C99.0727 21.2033 98.8018 21.1063 98.546 20.9682C98.2947 20.8302 98.0627 20.6532 97.8503 20.4375L96.888 21.3823C97.3345 21.8268 97.8243 22.146 98.3575 22.3402C98.895 22.53 99.5257 22.625 100.25 22.625C100.748 22.625 101.203 22.5647 101.615 22.4438C102.027 22.3187 102.387 22.1353 102.695 21.8937C103.007 21.6477 103.245 21.3522 103.41 21.007Z" fill="#94979E"/>
</g>
<defs>
<clipPath id="clip0_449_18287">
<rect width="104" height="24" fill="white"/>
</clipPath>
</defs>
</svg>
