<svg xmlns="http://www.w3.org/2000/svg" width="146" height="28" viewBox="0 0 146 28" fill="none">
    <g clip-path="url(#clip0_25736_60644)">
        <mask id="mask0_25736_60644" style="mask-type:luminance" maskUnits="userSpaceOnUse" x="0" y="1" width="146" height="27">
            <path d="M0 1.00031H145.9V27.3897H0V1.00031Z" fill="white"/>
        </mask>
        <g mask="url(#mask0_25736_60644)">
            <path fill-rule="evenodd" clip-rule="evenodd" d="M141.429 9.3201H138.325V8.25512H145.826V9.3201H142.722V18.9359H141.429V9.3201ZM130.795 8.26512H137.012V9.3201H132.089V12.948H136.055V14.013H132.089V17.8799H137.28V18.9449H130.795V8.26512ZM118.035 8.26512H119.835L123.131 16.5839L126.321 8.26412H128.112V18.9359H126.819V9.95309L123.284 18.9359H122.882L119.222 9.95309V18.9359H118.035V8.26512ZM105.418 13.677V13.552C105.418 10.5201 107.535 8.13013 110.667 8.13013C113.8 8.13013 115.869 10.5201 115.869 13.523V13.648C115.869 16.6609 113.8 19.0799 110.696 19.0799C107.554 19.0799 105.418 16.6609 105.418 13.677ZM114.528 13.629V13.514C114.528 11.1241 113.129 9.1761 110.667 9.1761C108.196 9.1761 106.759 10.9991 106.759 13.543V13.658C106.759 16.2479 108.474 18.0049 110.696 18.0049C113.072 18.0049 114.528 16.2099 114.528 13.629ZM101.893 8.26512H103.186V18.9449H101.893V8.26512ZM92.5428 8.26512H95.7427C97.7257 8.26512 99.1726 8.92611 99.1726 11.0281V11.0861C99.1726 12.065 98.7886 12.928 97.5627 13.341C99.1146 13.715 99.6996 14.511 99.6996 15.9029V15.9609C99.6996 17.9759 98.3296 18.9449 96.1927 18.9449H92.5428V8.26512ZM95.7427 12.928C97.3127 12.928 97.9077 12.362 97.9077 11.0481V10.9901C97.9077 9.77009 97.2077 9.2811 95.7137 9.2811H93.8077V12.928H95.7427ZM96.1647 17.9279C97.7167 17.9279 98.4246 17.2469 98.4246 15.9419V15.8839C98.4246 14.569 97.6967 13.945 95.9817 13.945H93.8077V17.9279H96.1647ZM79.2271 8.26412H82.437C84.477 8.26412 86.1629 9.10011 86.1629 11.2391V11.2971C86.1629 13.063 84.985 13.926 83.519 14.214L86.7849 18.9449H85.3389L82.159 14.3H80.5201V18.9449H79.2281V8.26512L79.2271 8.26412ZM82.522 13.264C84.046 13.264 84.86 12.612 84.86 11.2971V11.2391C84.86 9.79009 83.97 9.3101 82.522 9.3101H80.5201V13.264H82.522ZM70.7963 8.26412H77.0141V9.3301H72.0902V12.957H76.0561V14.013H72.0902V17.8799H77.2821V18.9449H70.7963V8.26412ZM58.0266 8.26412H59.8365L63.1324 16.5839L66.3224 8.26412H68.1143V18.9449H66.8114V9.95409L63.2764 18.9449H62.8745L59.2245 9.95409V18.9449H58.0286L58.0266 8.26412ZM45.2669 8.26412H47.0768L50.3727 16.5839L53.5627 8.26412H55.3536V18.9449H54.0517V9.95409L50.5167 18.9449H50.1147L46.4648 9.95409V18.9449H45.2669V8.26412ZM41.2139 8.26412H42.5169V18.9359H41.2149L41.2139 8.26412ZM31.3482 18.7339L37.383 9.3301H31.8832V8.26512H39.174V8.46512L33.3021 17.8419H39.088V18.9449H31.3472V18.7339H31.3482Z" fill="#94979E" stroke="#94979E" stroke-width="0.399991"/>
            <path fill-rule="evenodd" clip-rule="evenodd" d="M13.1457 27.3227C5.88383 27.3227 0.0119629 21.4498 0.0119629 14.166C0.0119629 6.89216 5.88383 1.01129 13.1457 1.01129C20.4155 1.01129 26.2884 6.89316 26.2884 14.167C26.2884 21.4508 20.4165 27.3227 13.1457 27.3227ZM4.24587 22.6028L13.1157 5.73118L13.0307 5.72218C8.65277 5.72218 5.04085 9.11911 4.67686 13.418V5.36719H21.6905C19.4066 3.13559 16.3388 1.88837 13.1457 1.89327C5.80583 1.89327 0.892943 6.81616 0.892943 14.167C0.892943 17.4399 2.16691 20.4049 4.24587 22.6018M4.46586 22.8218C5.60018 23.9713 6.95163 24.884 8.44168 25.5068C9.93173 26.1296 11.5307 26.4501 13.1457 26.4497C19.9185 26.4497 25.4074 20.9498 25.4074 14.166C25.4074 10.8261 24.0664 7.79414 21.9105 5.57719L13.1167 22.4758C17.3126 22.4278 20.7615 19.2899 21.3165 15.231V22.8208H4.46586V22.8218Z" fill="#94979E"/>
        </g>
    </g>
    <defs>
        <clipPath id="clip0_25736_60644">
            <rect width="145.997" height="28" fill="white"/>
        </clipPath>
    </defs>
</svg>
