<svg xmlns="http://www.w3.org/2000/svg" width="233" height="42" fill="none" viewBox="0 0 233 42"><g clip-path="url(#a)"><path fill="url(#b)" fill-rule="evenodd" d="M225.09 13.242h-4.94v-1.696h11.938v1.696h-4.939v15.303h-2.059V13.24Zm-16.924-1.68h9.895v1.68h-7.836v5.773h6.312v1.695h-6.312v6.155h8.263v1.695h-10.322V11.562Zm-20.308 0h2.866l5.245 13.24 5.077-13.24h2.851v16.983h-2.058V14.249l-5.626 14.296h-.64l-5.825-14.296v14.296h-1.89V11.562Zm-20.08 8.613v-.198c0-4.826 3.369-8.63 8.355-8.63 4.986 0 8.279 3.804 8.279 8.584v.198c0 4.796-3.293 8.645-8.233 8.645-5.001 0-8.401-3.849-8.401-8.599Zm14.5-.076v-.183c0-3.803-2.227-6.904-6.145-6.904-3.934 0-6.221 2.902-6.221 6.95v.183c0 4.123 2.73 6.918 6.267 6.918 3.781 0 6.099-2.856 6.099-6.964Zm-20.111-8.537h2.058V28.56h-2.058V11.562Zm-14.881 0h5.093c3.156 0 5.458 1.053 5.458 4.398v.092c0 1.558-.61 2.932-2.561 3.589 2.47.595 3.4 1.863 3.4 4.078v.091c0 3.207-2.181 4.75-5.581 4.75h-5.809V11.562Zm5.093 7.422c2.5 0 3.446-.901 3.446-2.993v-.092c0-1.94-1.113-2.719-3.492-2.719h-3.034v5.804h3.08Zm.671 7.957c2.47 0 3.598-1.084 3.598-3.161v-.092c0-2.092-1.159-3.085-3.888-3.085h-3.461v6.338h3.751Zm-26.956-15.38h5.107c3.248 0 5.931 1.33 5.931 4.735v.092c0 2.81-1.875 4.184-4.208 4.643l5.199 7.529h-2.302l-5.062-7.392h-2.607v7.392h-2.058V11.562Zm5.244 7.958c2.425 0 3.721-1.039 3.721-3.131v-.092c0-2.306-1.418-3.07-3.721-3.07h-3.186v6.293h3.186Zm-18.662-7.957h9.896v1.695h-7.837v5.773h6.312v1.68h-6.312v6.155h8.263v1.695h-10.322V11.562Zm-20.323 0h2.881l5.245 13.24 5.077-13.24h2.851V28.56h-2.073V14.25l-5.626 14.31h-.641l-5.808-14.31v14.31h-1.906V11.562Zm-20.309 0h2.882l5.245 13.24 5.077-13.24h2.85V28.56h-2.073V14.25L80.4 28.56h-.64l-5.81-14.31v14.31h-1.905V11.562Zm-6.45 0h2.074v16.983h-2.073V11.562ZM49.892 28.224l9.605-14.967h-8.752v-1.695h11.603v.32l-9.346 14.922h9.209v1.756H49.89v-.336Z" clip-rule="evenodd"/><path fill="url(#c)" fill-rule="evenodd" d="M20.919 41.893C9.362 41.893.016 32.547.016 20.954.016 9.378 9.362.017 20.919.017c11.572 0 20.918 9.362 20.918 20.939 0 11.592-9.346 20.938-20.918 20.938ZM6.755 34.38 20.873 7.53l-.137-.014c-6.968 0-12.716 5.406-13.295 12.248V6.95h27.078a19.419 19.419 0 0 0-13.6-5.528c-11.68 0-19.5 7.835-19.5 19.534 0 5.208 2.027 9.927 5.336 13.424Zm.35.352a19.394 19.394 0 0 0 13.814 5.773c10.78 0 19.516-8.752 19.516-19.55 0-5.314-2.135-10.14-5.566-13.669L20.873 34.181c6.678-.077 12.167-5.07 13.051-11.531v12.08H7.105Z" clip-rule="evenodd"/></g><defs><linearGradient id="b" x1="21.041" x2="21.041" y1="-11.07" y2="48.052" gradientUnits="userSpaceOnUse"><stop stop-color="#E4E5E7"/><stop offset="1" stop-color="#E4E5E7" stop-opacity=".7"/></linearGradient><linearGradient id="c" x1="21.041" x2="21.041" y1="-11.07" y2="48.052" gradientUnits="userSpaceOnUse"><stop stop-color="#E4E5E7"/><stop offset="1" stop-color="#E4E5E7" stop-opacity=".7"/></linearGradient><clipPath id="a"><path fill="white" d="M0 0h232.207v42H0z"/></clipPath></defs></svg>