<svg xmlns="http://www.w3.org/2000/svg" width="1216" height="444" fill="none" viewBox="0 0 1216 444"><path stroke="url(#a)" d="M0 222h1216"/><path stroke="url(#b)" d="M802 0v444"/><path stroke="url(#c)" d="M414 0v444"/><path fill="url(#d)" fill-rule="evenodd" d="M801.5 444V222.5h-387V444h-1V222.5H0v-1h413.5V0h1v221.5h387V0h1v221.5H1216v1H802.5V444h-1Z" clip-rule="evenodd"/><path fill="url(#e)" fill-rule="evenodd" d="M801.5 444V222.5h-387V444h-1V222.5H0v-1h413.5V0h1v221.5h387V0h1v221.5H1216v1H802.5V444h-1Z" clip-rule="evenodd"/><defs><linearGradient id="a" x1="0" x2="1216" y1="222.5" y2="222.5" gradientUnits="userSpaceOnUse"><stop stop-color="#007373" stop-opacity="0"/><stop offset=".1" stop-color="#007373"/><stop offset=".9" stop-color="#007373"/><stop offset="1" stop-color="#007373" stop-opacity="0"/></linearGradient><linearGradient id="b" x1="801.5" x2="801.5" y1="0" y2="444" gradientUnits="userSpaceOnUse"><stop stop-color="#007373" stop-opacity="0"/><stop offset=".2" stop-color="#007373"/><stop offset=".8" stop-color="#007373"/><stop offset="1" stop-color="#007373" stop-opacity="0"/></linearGradient><linearGradient id="c" x1="413.5" x2="413.5" y1="0" y2="444" gradientUnits="userSpaceOnUse"><stop stop-color="#007373" stop-opacity="0"/><stop offset=".2" stop-color="#007373"/><stop offset=".8" stop-color="#007373"/><stop offset="1" stop-color="#007373" stop-opacity="0"/></linearGradient><radialGradient id="d" cx="0" cy="0" r="1" gradientTransform="matrix(0 55.5 -114.193 0 415 222)" gradientUnits="userSpaceOnUse"><stop stop-color="#3FFDFD"/><stop offset="1" stop-color="#02FCFD" stop-opacity="0"/></radialGradient><radialGradient id="e" cx="0" cy="0" r="1" gradientTransform="matrix(0 66 -135.797 0 802 222)" gradientUnits="userSpaceOnUse"><stop stop-color="#3FFDFD"/><stop offset="1" stop-color="#02FCFD" stop-opacity="0"/></radialGradient></defs></svg>