<svg width="1240" height="871" viewBox="0 0 1240 871" fill="none" xmlns="http://www.w3.org/2000/svg">
<mask id="mask0_9701_16239" style="mask-type:alpha" maskUnits="userSpaceOnUse" x="0" y="0" width="1240" height="940">
<rect width="1240" height="939.894" fill="#D9D9D9"/>
</mask>
<g mask="url(#mask0_9701_16239)">
<g opacity="0.05">
<path d="M1061.4 180.559C1061.25 180.963 641.983 1188.41 641.803 1188.99" stroke="white" stroke-miterlimit="10"/>
<path d="M987.002 117.074L638.66 1185.04L638.387 1185.99" stroke="white" stroke-miterlimit="10"/>
<path d="M903.567 68.98L634.693 1182.99L634.557 1183.68" stroke="white" stroke-miterlimit="10"/>
<path d="M813.409 32.9787L630.457 1181.63V1182.04" stroke="white" stroke-miterlimit="10"/>
<path d="M718.341 10.7181L626.08 1180.95" stroke="white" stroke-miterlimit="10"/>
<path d="M621.568 1.65378V1180.54" stroke="white" stroke-miterlimit="10"/>
<path d="M524.523 9.15128L617.201 1180.95" stroke="white" stroke-miterlimit="10"/>
<path d="M429.654 31.9095L612.822 1181.63V1182.04" stroke="white" stroke-miterlimit="10"/>
<path d="M339.713 69.1154C339.741 69.2115 608.529 1183.5 608.586 1183.68" stroke="white" stroke-miterlimit="10"/>
<path d="M256.6 120.087L604.481 1185.04L604.754 1185.99" stroke="white" stroke-miterlimit="10"/>
<path d="M182.658 183.325C182.805 183.729 601.302 1188.41 601.482 1188.99" stroke="white" stroke-miterlimit="10"/>
<path d="M119.361 257.464L597.647 1190.9L598.467 1192.4" stroke="white" stroke-miterlimit="10"/>
<path d="M68.5137 340.191C69.6124 341.972 595.132 1194.58 596.145 1196.21" stroke="white" stroke-miterlimit="10"/>
<path d="M648.77 1217.88L651.503 1215.84L1210.57 813.245" stroke="white" stroke-miterlimit="10"/>
<path d="M31.4746 430.14L593.005 1198.53L594.372 1200.3" stroke="white" stroke-miterlimit="10"/>
<path d="M649.867 1213.52C651.445 1212.31 1228.91 723.022 1230.86 721.409" stroke="white" stroke-miterlimit="10"/>
<path d="M8.91797 524.588C10.7018 526.64 591.749 1202.79 593.413 1204.66" stroke="white" stroke-miterlimit="10"/>
<path d="M650.273 1209.16C651.264 1208.15 1236.88 626.367 1238.3 624.948" stroke="white" stroke-miterlimit="10"/>
<path d="M1.67188 621.898C3.99232 624.211 590.926 1207.08 593.002 1209.16" stroke="white" stroke-miterlimit="10"/>
<path d="M649.867 1204.66C650.686 1203.71 1230.54 528.99 1231.69 527.66" stroke="white" stroke-miterlimit="10"/>
<path d="M9.60352 718.663C13.1078 721.592 590.382 1211.07 593.415 1213.52" stroke="white" stroke-miterlimit="10"/>
<path d="M648.77 1200.3C649.395 1199.33 1210.08 432.518 1211.02 431.197" stroke="white" stroke-miterlimit="10"/>
<path d="M32.7012 813.245C36.2888 815.769 591.267 1215.83 594.369 1217.88" stroke="white" stroke-miterlimit="10"/>
<path d="M647.137 1196.22C647.66 1195.38 1173.89 341.258 1174.63 340.057" stroke="white" stroke-miterlimit="10"/>
<path d="M644.805 1192.4L645.625 1190.9L1125.05 254.761" stroke="white" stroke-miterlimit="10"/>
<path d="M431.854 1048.7C431.854 944.223 516.824 859.468 621.659 859.468C873.405 869.481 873.334 1227.95 621.658 1237.93C516.824 1237.93 431.854 1153.17 431.854 1048.7V1048.7Z" stroke="white" stroke-miterlimit="10"/>
<path d="M378.072 995.083C378.072 861.01 487.116 752.24 621.656 752.24C944.727 765.093 944.635 1225.12 621.654 1237.93C487.116 1237.93 378.072 1129.16 378.072 995.083L378.072 995.083Z" stroke="white" stroke-miterlimit="10"/>
<path d="M324.293 941.469C324.293 777.797 457.411 645.012 621.654 645.012C1016.05 660.704 1015.94 1222.29 621.652 1237.93C457.411 1237.93 324.293 1105.14 324.293 941.469V941.469Z" stroke="white" stroke-miterlimit="10"/>
<path d="M270.527 887.856C270.527 694.586 427.72 537.786 621.666 537.786C1087.39 556.317 1087.26 1219.47 621.663 1237.93C427.72 1237.93 270.527 1081.13 270.527 887.856Z" stroke="white" stroke-miterlimit="10"/>
<path d="M216.754 834.244C216.754 611.375 398.02 430.56 621.67 430.56C1158.72 451.93 1158.57 1216.64 621.667 1237.93C398.02 1237.93 216.754 1057.11 216.754 834.244H216.754Z" stroke="white" stroke-miterlimit="10"/>
<path d="M162.975 780.63C162.975 528.162 368.315 323.332 621.668 323.332C1230.04 347.541 1229.87 1213.81 621.665 1237.93C368.315 1237.93 162.975 1033.1 162.975 780.63V780.63Z" stroke="white" stroke-miterlimit="10"/>
<path d="M109.404 727.438C109.404 445.372 338.819 216.527 621.876 216.527C1301.58 243.576 1301.38 1211.4 621.872 1238.35C338.819 1238.35 109.404 1009.51 109.404 727.438V727.438Z" stroke="white" stroke-miterlimit="10"/>
<path d="M55.4219 673.401C55.4219 361.736 308.911 108.876 621.671 108.876C1372.7 138.764 1372.48 1208.15 621.666 1237.93C308.911 1237.93 55.4219 985.066 55.4219 673.401V673.401Z" stroke="white" stroke-miterlimit="10"/>
<path d="M1.64844 619.788C1.64844 278.524 279.211 1.64894 621.675 1.64894C1444.03 34.3768 1443.79 1205.32 621.67 1237.93C279.211 1237.93 1.64844 961.052 1.64844 619.788Z" stroke="white" stroke-miterlimit="10"/>
</g>
</g>
</svg>
