<svg width="18" height="18" viewBox="0 0 18 18" fill="none" xmlns="http://www.w3.org/2000/svg">
<path d="M6.61947 4.82471C8.17189 5.28085 8.81518 5.40357 9 5.40357C9.18482 5.40357 9.82811 5.28085 11.3805 4.82471C13.9932 4.05702 17 4.99033 17 4.99033C16.9736 6.86476 16.398 11.0271 14.3069 12.681C12.1683 14.3725 9.95049 12.681 9 12.5983C8.04951 12.681 5.83168 14.3725 3.69307 12.681C1.60198 11.0271 1.0264 6.86476 1 4.99033C1 4.99033 4.00677 4.05702 6.61947 4.82471Z" stroke="currentColor"/>
<path d="M3.8359 8C3.8359 8 4.44214 9.75635 5.58884 10C6.684 10.2327 7.53027 9.55228 7.53027 9C7.53027 8.44772 6.66106 8 5.58884 8C4.51661 8 3.8359 8 3.8359 8Z" stroke="currentColor"/>
<path d="M14.1641 8C14.1641 8 13.5579 9.75635 12.4112 10C11.316 10.2327 10.4697 9.55228 10.4697 9C10.4697 8.44772 11.3389 8 12.4112 8C13.4834 8 14.1641 8 14.1641 8Z" stroke="currentColor"/>
</svg>
