<svg width="18" height="18" viewBox="0 0 18 18" fill="none" xmlns="http://www.w3.org/2000/svg">
  <path d="M9 7.29425V10.7033" stroke="currentColor" stroke-linecap="round" stroke-linejoin="round" />
  <path d="M4.17053 10.7045V9H13.8296V10.7045" stroke="currentColor" stroke-linecap="round" stroke-linejoin="round" />
  <path d="M8.99992 5.59091C9.78442 5.59091 10.4204 4.95495 10.4204 4.17045C10.4204 3.38596 9.78442 2.75 8.99992 2.75C8.21543 2.75 7.57947 3.38596 7.57947 4.17045C7.57947 4.95495 8.21543 5.59091 8.99992 5.59091Z" stroke="currentColor" stroke-linecap="round" stroke-linejoin="round" />
  <path d="M4.17045 15.2498C4.95495 15.2498 5.59091 14.6138 5.59091 13.8293C5.59091 13.0448 4.95495 12.4089 4.17045 12.4089C3.38596 12.4089 2.75 13.0448 2.75 13.8293C2.75 14.6138 3.38596 15.2498 4.17045 15.2498Z" stroke="currentColor" stroke-linecap="round" stroke-linejoin="round" />
  <path d="M8.99992 15.2498C9.78442 15.2498 10.4204 14.6138 10.4204 13.8293C10.4204 13.0448 9.78442 12.4089 8.99992 12.4089C8.21543 12.4089 7.57947 13.0448 7.57947 13.8293C7.57947 14.6138 8.21543 15.2498 8.99992 15.2498Z" stroke="currentColor" stroke-linecap="round" stroke-linejoin="round" />
  <path d="M13.8293 15.2498C14.6138 15.2498 15.2497 14.6138 15.2497 13.8293C15.2497 13.0448 14.6138 12.4089 13.8293 12.4089C13.0448 12.4089 12.4088 13.0448 12.4088 13.8293C12.4088 14.6138 13.0448 15.2498 13.8293 15.2498Z" stroke="currentColor" stroke-linecap="round" stroke-linejoin="round" />
</svg>