<svg width="18" height="18" viewBox="0 0 18 18" fill="none" xmlns="http://www.w3.org/2000/svg">
<path d="M11.9095 6.45455V5.18182C11.9071 4.3387 11.5711 3.5308 10.9749 2.93462C10.3787 2.33844 9.57084 2.00243 8.72772 2C7.88459 2.00243 7.0767 2.33844 6.48052 2.93462C5.88434 3.5308 5.54833 4.3387 5.5459 5.18182V6.45455" stroke="#C9CBCF" stroke-miterlimit="10" stroke-linecap="round"/>
<path d="M13.1818 8.04541H4.27273C3.56982 8.04541 3 8.61523 3 9.31814V14.7272C3 15.4301 3.56982 16 4.27273 16H13.1818C13.8847 16 14.4545 15.4301 14.4545 14.7272V9.31814C14.4545 8.61523 13.8847 8.04541 13.1818 8.04541Z" stroke="#C9CBCF" stroke-miterlimit="10" stroke-linecap="square"/>
<path d="M8.72656 12.3978C9.27885 12.3978 9.72656 11.9501 9.72656 11.3978C9.72656 10.8455 9.27885 10.3978 8.72656 10.3978C8.17428 10.3978 7.72656 10.8455 7.72656 11.3978C7.72656 11.9501 8.17428 12.3978 8.72656 12.3978Z" stroke="#C9CBCF" stroke-width="0.785714" stroke-miterlimit="10" stroke-linecap="square"/>
<path d="M8.72754 12.3977V13.6477" stroke="#C9CBCF" stroke-width="0.785714" stroke-miterlimit="10" stroke-linecap="round"/>
</svg>
