<svg width="18" height="18" viewBox="0 0 18 18" fill="none" xmlns="http://www.w3.org/2000/svg">
<path fill-rule="evenodd" clip-rule="evenodd" d="M9.12128 2.01569C9.04166 1.99477 8.95837 1.99477 8.87875 2.01569L3.87874 3.32938C3.65615 3.38787 3.5 3.59805 3.5 3.83918V9.96977C3.5 11.5028 4.07947 12.973 5.11092 14.057C6.14237 15.1411 7.54132 15.75 9.00001 15.75C10.4587 15.75 11.8577 15.1411 12.8891 14.057C13.9205 12.973 14.5 11.5028 14.5 9.96977V3.83918C14.5 3.59805 14.3439 3.38787 14.1212 3.32938L9.12128 2.01569ZM4.5 9.96977V4.24946L9.00001 3.06713L13.5 4.24946V9.96977C13.5 10.6841 13.3462 11.3819 13.0578 12.0141C13.046 11.9907 13.0337 11.9675 13.021 11.9445C12.8324 11.603 12.561 11.3198 12.2349 11.1239L11.1268 10.4558C11.4689 9.92783 11.6762 9.28613 11.6762 8.64066V7.49658C11.6762 6.75063 11.3942 6.03524 10.8924 5.50779C10.3905 4.98033 9.70978 4.68401 9.00001 4.68401C8.29024 4.68401 7.60953 4.98033 7.10765 5.50779C6.60576 6.03524 6.32381 6.75063 6.32381 7.49658V8.64066C6.32381 9.28617 6.53113 9.92791 6.87329 10.456L5.76537 11.1239C5.43923 11.3198 5.16773 11.6031 4.97914 11.9446C4.96643 11.9676 4.95412 11.9908 4.94223 12.0142C4.65383 11.3821 4.5 10.6842 4.5 9.96977ZM7.58569 11.2355L6.2605 12.0344C6.08689 12.1386 5.94257 12.2893 5.8422 12.471C5.74183 12.6528 5.68894 12.8592 5.68889 13.0693V13.1724C5.73092 13.2204 5.77397 13.2676 5.81802 13.3139C6.66194 14.2008 7.80653 14.6991 9.00001 14.6991C10.1935 14.6991 11.3381 14.2008 12.182 13.3139C12.226 13.2676 12.2691 13.2205 12.3111 13.1724V13.0691C12.311 12.859 12.2582 12.6526 12.1579 12.471C12.0575 12.2892 11.9133 12.1386 11.7397 12.0344L10.4144 11.2355C10.0141 11.5422 9.53183 11.7392 9.00001 11.7392C8.46824 11.7392 7.98604 11.5422 7.58569 11.2355ZM7.81327 6.24937C8.12802 5.91859 8.5549 5.73276 9.00001 5.73276C9.44512 5.73276 9.87201 5.91859 10.1867 6.24937C10.5015 6.58015 10.6783 7.02879 10.6783 7.49658V8.64066C10.6783 9.13706 10.4838 9.66221 10.1599 10.0614C9.83671 10.4597 9.42184 10.6905 9.00001 10.6905C8.57818 10.6905 8.16332 10.4597 7.84015 10.0614C7.51624 9.66221 7.32172 9.13706 7.32172 8.64066V7.49658C7.32172 7.02879 7.49854 6.58015 7.81327 6.24937Z" fill="currentColor"/>
</svg>
