<svg width="18" height="18" viewBox="0 0 18 18" fill="none" xmlns="http://www.w3.org/2000/svg">
<path d="M9.00274 8.99935C9.92321 8.99935 10.6694 8.25315 10.6694 7.33268C10.6694 6.41221 9.92321 5.66602 9.00274 5.66602C8.08227 5.66602 7.33607 6.41221 7.33607 7.33268C7.33607 8.25315 8.08227 8.99935 9.00274 8.99935Z" stroke="currentColor" stroke-width="1.2" stroke-linecap="round" stroke-linejoin="round"/>
<path d="M12.8127 13.8031C12.3043 12.1792 10.7918 11 9.00014 11C7.20848 11 5.696 12.1792 5.18764 13.8031" stroke="currentColor" stroke-width="1.2" stroke-linecap="round" stroke-linejoin="round"/>
<path d="M15.0001 9.5C15.0001 14 9.00014 16 9.00014 16C9.00014 16 3.00014 14 3.00014 9.5V3.5L9.00014 2L15.0001 3.5V9.5Z" stroke="currentColor" stroke-width="1.2" stroke-linecap="round" stroke-linejoin="round"/>
</svg>
