<svg width="18" height="18" viewBox="0 0 18 18" fill="none" xmlns="http://www.w3.org/2000/svg">
  <path d="M12.8194 5.59109H13.9104C14.1997 5.59109 14.4772 5.70603 14.6817 5.91061C14.8863 6.1152 15.0013 6.39268 15.0013 6.682V11.3184C15.0013 11.6077 14.8863 11.8852 14.6817 12.0898C14.4772 12.2943 14.1997 12.4093 13.9104 12.4093H12.8194V14.5911L9.54672 12.4093H8.45581" stroke="currentColor" stroke-linecap="round" stroke-linejoin="round" />
  <path d="M11.7285 3.40927H4.09213C3.8028 3.40927 3.52533 3.52421 3.32074 3.72879C3.11616 3.93338 3.00122 4.21085 3.00122 4.50018V9.13654C3.00122 9.42587 3.11616 9.70335 3.32074 9.90793C3.52533 10.1125 3.8028 10.2275 4.09213 10.2275H5.18304V12.9547L9.00122 10.2275H11.7285C12.0178 10.2275 12.2953 10.1125 12.4999 9.90793C12.7045 9.70335 12.8194 9.42587 12.8194 9.13654V4.50018C12.8194 4.21085 12.7045 3.93338 12.4999 3.72879C12.2953 3.52421 12.0178 3.40927 11.7285 3.40927Z" stroke="currentColor" stroke-linecap="round" stroke-linejoin="round" />
</svg>