<svg width="18" height="18" viewBox="0 0 18 18" fill="none" xmlns="http://www.w3.org/2000/svg">
  <path d="M11.8008 4.59998H15.0008" stroke="currentColor" stroke-linecap="round" stroke-linejoin="round" />
  <path d="M8.60098 3H11.801V6.2H8.60098C8.17663 6.2 7.76966 6.03143 7.46961 5.73137C7.16955 5.43131 7.00098 5.02435 7.00098 4.6C7.00098 4.17565 7.16955 3.76869 7.46961 3.46863C7.76966 3.16857 8.17663 3 8.60098 3Z" stroke="currentColor" stroke-linecap="round" stroke-linejoin="round" />
  <path d="M6.20098 14.2H12.601C13.2375 14.2 13.8479 13.9471 14.298 13.497C14.7481 13.0469 15.001 12.4365 15.001 11.8C15.001 11.1635 14.7481 10.553 14.298 10.1029C13.8479 9.65283 13.2375 9.39998 12.601 9.39998H5.40098C4.76446 9.39998 4.15401 9.14712 3.70392 8.69703C3.25383 8.24695 3.00098 7.6365 3.00098 6.99998C3.00098 6.36346 3.25383 5.75301 3.70392 5.30292C4.15401 4.85283 4.76446 4.59998 5.40098 4.59998" stroke="currentColor" stroke-linecap="round" stroke-linejoin="round" />
</svg>