<svg width="18" height="18" viewBox="0 0 18 18" fill="none" xmlns="http://www.w3.org/2000/svg">
<path d="M15.5947 6.1838C15.5947 5.79084 15.3327 5.39788 15.0708 5.2014L10.9447 2.64717C10.775 2.55071 10.5832 2.5 10.388 2.5C10.1928 2.5 10.001 2.55071 9.83132 2.64717L3.08553 6.57675C2.75807 6.70774 2.49609 7.1007 2.49609 7.49366V11.8162C2.49609 12.1437 2.75807 12.6021 3.02004 12.7986L7.14611 15.3528C7.31579 15.4493 7.50762 15.5 7.7028 15.5C7.89798 15.5 8.08981 15.4493 8.25949 15.3528L15.0053 11.4232C15.3327 11.2268 15.5947 10.7683 15.5947 10.4408V6.1838Z" stroke="currentColor" stroke-width="0.873242" stroke-linecap="round" stroke-linejoin="round"/>
<path d="M7.7345 15.4842V10.3102L2.56055 7.10107" stroke="currentColor" stroke-width="0.873242" stroke-linecap="round" stroke-linejoin="round"/>
<path d="M7.73535 10.31L15.529 5.79102" stroke="currentColor" stroke-width="0.873242" stroke-linecap="round" stroke-linejoin="round"/>
<path d="M10.3555 14.1084V8.80347" stroke="currentColor" stroke-width="0.873242" stroke-linecap="round" stroke-linejoin="round"/>
<path d="M12.9756 12.6018V7.29688" stroke="currentColor" stroke-width="0.873242" stroke-linecap="round" stroke-linejoin="round"/>
</svg>
