<svg width="18" height="18" viewBox="0 0 18 18" fill="none" xmlns="http://www.w3.org/2000/svg">
  <path d="M6.04527 6.91686H11.9984M6.04527 9.41743H11.9984M6.04527 11.9169H9.02183M14.209 14.4174C14.2086 14.5274 14.1891 14.6361 14.1516 14.7372C14.1141 14.8383 14.0594 14.9297 13.9907 15.006C13.8497 15.1632 13.6611 15.251 13.4648 15.2506H4.53516C4.33892 15.251 4.15028 15.1632 4.0093 15.006C3.94063 14.9297 3.88593 14.8383 3.84844 14.7372C3.81095 14.6361 3.79142 14.5274 3.79102 14.4174V3.58314C3.79102 3.36257 3.8694 3.15114 4.0093 2.99457C4.15028 2.83734 4.33892 2.7496 4.53516 2.75H11.9994C12.1929 2.75 12.3794 2.83457 12.5193 2.98657L13.9838 4.58886C14.0541 4.66585 14.1102 4.75834 14.1489 4.86082C14.1876 4.9633 14.208 5.07368 14.209 5.18543V14.4174Z" stroke="currentColor" stroke-linecap="round" stroke-linejoin="round" />
</svg>