<svg width="18" height="18" viewBox="0 0 18 18" fill="none" xmlns="http://www.w3.org/2000/svg">
<path d="M13.3636 8.45455C13.1714 8.45455 12.9895 8.49382 12.8182 8.55464V5.18182H9.44536C9.50618 5.01055 9.54545 4.82864 9.54545 4.63636C9.54545 3.73255 8.81291 3 7.90909 3C7.00527 3 6.27273 3.73255 6.27273 4.63636C6.27273 4.82864 6.312 5.01055 6.37282 5.18182H3V8.45455C3.90382 8.45455 4.63636 9.18709 4.63636 10.0909C4.63636 10.9947 3.90382 11.7273 3 11.7273V15H6.27273C6.27273 14.0962 7.00527 13.3636 7.90909 13.3636C8.81291 13.3636 9.54545 14.0962 9.54545 15H12.8182V11.6272C12.9895 11.688 13.1714 11.7273 13.3636 11.7273C14.2675 11.7273 15 10.9947 15 10.0909C15 9.18709 14.2675 8.45455 13.3636 8.45455Z" stroke="currentColor" stroke-miterlimit="10" stroke-linecap="square"/>
</svg>
