<svg width="18" height="18" viewBox="0 0 18 18" fill="none" xmlns="http://www.w3.org/2000/svg">
  <path d="M15.5 8.45a6 6 0 0 1-6 6 6 6 0 0 1-2.7-.64L3 15l1.19-3.8A6 6 0 0 1 3.5 8.45a6 6 0 0 1 6-6 6 6 0 0 1 6 6Z" stroke="currentColor" stroke-linecap="round" stroke-linejoin="round" />
  <path d="M7.55 7.15a1.7 1.7 0 0 1 3.3.6c0 1.13-1.65 1.6-1.65 1.6" stroke="currentColor" stroke-linecap="round" stroke-linejoin="round" />
  <path d="M9.2 11.55h.01" stroke="currentColor" stroke-linecap="round" stroke-linejoin="round" />
</svg>
