<svg width="18" height="18" viewBox="0 0 18 18" fill="none" xmlns="http://www.w3.org/2000/svg">
  <path d="M6.88875 3.76813H3.86417C3.3869 3.76813 3 4.15511 3 4.63248V7.65772C3 8.13509 3.3869 8.52207 3.86417 8.52207H6.88875C7.36602 8.52207 7.75292 8.13509 7.75292 7.65772V4.63248C7.75292 4.15511 7.36602 3.76813 6.88875 3.76813Z" stroke="currentColor" stroke-linecap="round" stroke-linejoin="round" />
  <path d="M11.2839 3.57246L9.28392 5.57289C8.96821 5.88866 8.96821 6.40064 9.28393 6.71642L11.2839 8.71685C11.5996 9.03263 12.1115 9.03263 12.4272 8.71685L14.4272 6.71642C14.7429 6.40064 14.7429 5.88866 14.4272 5.57288L12.4272 3.57246C12.1115 3.25668 11.5996 3.25668 11.2839 3.57246Z" stroke="currentColor" stroke-linecap="round" stroke-linejoin="round" />
  <path d="M13.3691 10.2449H10.3445C9.86725 10.2449 9.48035 10.6319 9.48035 11.1093V14.1345C9.48035 14.6119 9.86725 14.9989 10.3445 14.9989H13.3691C13.8464 14.9989 14.2333 14.6119 14.2333 14.1345V11.1093C14.2333 10.6319 13.8464 10.2449 13.3691 10.2449Z" stroke="currentColor" stroke-linecap="round" stroke-linejoin="round" />
  <path d="M6.88875 10.2449H3.86417C3.3869 10.2449 3 10.6319 3 11.1093V14.1345C3 14.6119 3.3869 14.9989 3.86417 14.9989H6.88875C7.36602 14.9989 7.75292 14.6119 7.75292 14.1345V11.1093C7.75292 10.6319 7.36602 10.2449 6.88875 10.2449Z" stroke="currentColor" stroke-linecap="round" stroke-linejoin="round" />
</svg>