<svg width="18" height="18" viewBox="0 0 18 18" fill="none" xmlns="http://www.w3.org/2000/svg">
<g clip-path="url(#clip0_github_sidebar)">
<path fill-rule="evenodd" clip-rule="evenodd" d="M9 0.225C4.05 0.225 0 4.275 0 9.225C0 13.275 2.588 16.725 6.188 17.963C6.638 18.075 6.75 17.738 6.75 17.513C6.75 17.325 6.75 16.725 6.75 15.75C4.275 16.35 3.713 14.625 3.713 14.625C3.263 13.613 2.7 13.275 2.7 13.275C1.913 12.675 2.813 12.675 2.813 12.675C3.713 12.788 4.163 13.613 4.163 13.613C4.95 14.963 6.3 14.513 6.75 14.288C6.863 13.725 7.088 13.275 7.313 13.05C5.288 12.825 3.263 12.075 3.263 8.663C3.263 7.65 3.6 6.863 4.163 6.3C4.05 6.075 3.713 5.175 4.275 3.938C4.275 3.938 5.063 3.713 6.75 4.838C7.425 4.613 8.213 4.5 9 4.5C9.788 4.5 10.575 4.613 11.25 4.838C12.938 3.713 13.725 3.938 13.725 3.938C14.288 5.175 13.95 6.075 13.838 6.3C14.4 6.9 14.738 7.688 14.738 8.663C14.738 12.075 12.713 12.788 10.575 13.05C10.913 13.388 11.25 13.95 11.25 14.85C11.25 16.088 11.25 17.063 11.25 17.513C11.25 17.738 11.363 18.075 11.925 17.963C15.525 16.725 18.113 13.275 18.113 9.225C18 4.275 13.95 0.225 9 0.225Z" stroke="currentColor" stroke-width="0.5"/>
</g>
<defs>
<clipPath id="clip0_github_sidebar">
<rect width="18" height="18" fill="white"/>
</clipPath>
</defs>
</svg>
