<svg width="18" height="18" viewBox="0 0 18 18" fill="none" xmlns="http://www.w3.org/2000/svg">
<path fill-rule="evenodd" clip-rule="evenodd" d="M9.00922 1.77733C7.28591 1.77554 5.61831 2.40167 4.30525 3.54352C2.99219 4.68538 2.11949 6.26832 1.84357 8.00866C1.56765 9.74901 1.90653 11.533 2.79948 13.0409C3.69243 14.5489 5.08109 15.6822 6.71659 16.2378C7.07718 16.3061 7.21073 16.0738 7.21073 15.878C7.21073 15.6822 7.21073 15.2358 7.21073 14.6164C5.19411 15.0719 4.76674 13.6235 4.76674 13.6235C4.63237 13.1747 4.34689 12.789 3.96098 12.535C3.30658 12.0796 4.0144 12.0796 4.0144 12.0796C4.2438 12.1127 4.46281 12.1988 4.65486 12.3314C4.84691 12.464 5.00696 12.6395 5.12288 12.8447C5.22138 13.0274 5.35417 13.1885 5.51365 13.3186C5.67312 13.4486 5.85614 13.5452 6.05219 13.6028C6.24824 13.6603 6.45347 13.6777 6.6561 13.6539C6.85873 13.6301 7.05477 13.5656 7.23298 13.4641C7.26092 13.0895 7.4188 12.7373 7.67815 12.4712C6.06664 12.2845 4.37499 11.6469 4.37499 8.80489C4.36392 8.06843 4.63011 7.35581 5.11842 6.81458C4.9005 6.1743 4.92593 5.47359 5.18965 4.8516C5.18965 4.8516 5.79953 4.65121 7.18401 5.6122C8.37288 5.27825 9.62774 5.27825 10.8166 5.6122C12.2011 4.65121 12.8065 4.8516 12.8065 4.8516C13.073 5.47271 13.1 6.17394 12.8822 6.81458C13.3705 7.35581 13.6367 8.06843 13.6256 8.80489C13.6256 11.656 11.9295 12.28 10.3136 12.4485C10.4868 12.6267 10.6206 12.8409 10.7059 13.0767C10.7912 13.3124 10.8259 13.5641 10.8077 13.8148C10.8077 14.8077 10.8077 15.6093 10.8077 15.8507C10.8077 16.0921 10.9368 16.2788 11.3063 16.2105C12.9366 15.6496 14.3193 14.5145 15.2075 13.0076C16.0958 11.5006 16.4319 9.71987 16.156 7.9829C15.8801 6.24593 15.01 4.66572 13.7011 3.52412C12.3921 2.38252 10.7293 1.75376 9.00922 1.75V1.77733Z" fill="currentColor"/>
</svg>
