<svg width="18" height="18" viewBox="0 0 18 18" fill="none" xmlns="http://www.w3.org/2000/svg">
<path d="M15.1333 14.2662H3.86667C3.38802 14.2662 3 14.6542 3 15.1328C3 15.6115 3.38802 15.9995 3.86667 15.9995H15.1333C15.612 15.9995 16 15.6115 16 15.1328C16 14.6542 15.612 14.2662 15.1333 14.2662Z" stroke="currentColor" stroke-linecap="round" stroke-linejoin="round"/>
<path d="M7.33256 10.7985H5.1659L3.1197 14.6985" stroke="currentColor" stroke-linecap="round" stroke-linejoin="round"/>
<path d="M15.8818 14.6985L13.8321 10.7985H11.6655" stroke="currentColor" stroke-linecap="round" stroke-linejoin="round"/>
<path d="M6.46763 4.29852L9.5027 5.59246L12.5343 4.29852" stroke="currentColor" stroke-linecap="round" stroke-linejoin="round"/>
<path d="M9.5 5.59711V9.49711" stroke="currentColor" stroke-linecap="round" stroke-linejoin="round"/>
<path d="M12.5343 4.3L9.50097 3L6.46763 4.3V8.2L9.50097 9.5L12.5343 8.2V4.3Z" stroke="currentColor" stroke-linecap="round" stroke-linejoin="round"/>
</svg>
