<svg width="18" height="18" viewBox="0 0 18 18" fill="none" xmlns="http://www.w3.org/2000/svg">
  <g clip-path="url(#clip0_7393_595)">
    <path d="M6.37499 10.875V13.875H3.37499V9.375C3.36929 9.17647 3.4042 8.97887 3.47756 8.7943C3.55093 8.60974 3.66121 8.4421 3.80165 8.30166C3.94209 8.16122 4.10973 8.05094 4.29429 7.97757C4.47886 7.90421 4.67646 7.8693 4.87499 7.875C6.24599 7.875 6.52499 9.12375 8.24999 10.5M11.625 10.875V13.875H14.625V9.375C14.6308 9.17644 14.596 8.97879 14.5226 8.79418C14.4493 8.60956 14.339 8.44188 14.1986 8.30142C14.0581 8.16095 13.8904 8.05067 13.7058 7.97735C13.5212 7.90402 13.3235 7.86919 13.125 7.875C11.7555 7.875 11.475 9.123 9.74999 10.5M5.24999 6.375C5.54836 6.375 5.83451 6.25647 6.04549 6.0455C6.25646 5.83452 6.37499 5.54837 6.37499 5.25C6.37499 4.95163 6.25646 4.66548 6.04549 4.4545C5.83451 4.24353 5.54836 4.125 5.24999 4.125C4.95162 4.125 4.66547 4.24353 4.4545 4.4545C4.24352 4.66548 4.12499 4.95163 4.12499 5.25C4.12499 5.54837 4.24352 5.83452 4.4545 6.0455C4.66547 6.25647 4.95162 6.375 5.24999 6.375ZM12.75 6.375C13.0484 6.375 13.3345 6.25647 13.5455 6.0455C13.7565 5.83452 13.875 5.54837 13.875 5.25C13.875 4.95163 13.7565 4.66548 13.5455 4.4545C13.3345 4.24353 13.0484 4.125 12.75 4.125C12.4516 4.125 12.1655 4.24353 11.9545 4.4545C11.7435 4.66548 11.625 4.95163 11.625 5.25C11.625 5.54837 11.7435 5.83452 11.9545 6.0455C12.1655 6.25647 12.4516 6.375 12.75 6.375Z" stroke="currentColor" stroke-linecap="round" stroke-linejoin="round" />
  </g>
  <defs>
    <clipPath id="clip0_7393_595">
      <rect width="12" height="12" fill="white" transform="translate(3 3)" />
    </clipPath>
  </defs>
</svg>