<svg width="18" height="18" viewBox="0 0 18 18" fill="none" xmlns="http://www.w3.org/2000/svg">
  <mask id="mask0_7393_464" style="mask-type:luminance" maskUnits="userSpaceOnUse" x="2" y="2" width="14" height="14">
    <path d="M2.99939 2.99835H14.9994V14.9984H2.99939V2.99835Z" fill="white" stroke="white" />
  </mask>
  <g mask="url(#mask0_7393_464)">
    <path d="M11.0306 5.3421H15.0931M2.90564 5.3421H4.53064M4.53064 5.3421C4.53064 4.80338 4.74465 4.28672 5.12558 3.90579C5.50651 3.52486 6.02317 3.31085 6.56189 3.31085C7.10061 3.31085 7.61727 3.52486 7.9982 3.90579C8.37913 4.28672 8.59314 4.80338 8.59314 5.3421C8.59314 5.88082 8.37913 6.39748 7.9982 6.77841C7.61727 7.15935 7.10061 7.37335 6.56189 7.37335C6.02317 7.37335 5.50651 7.15935 5.12558 6.77841C4.74465 6.39748 4.53064 5.88082 4.53064 5.3421ZM6.96814 12.6546H2.90564M15.0931 12.6546H13.4681M13.4681 12.6546C13.4681 13.1933 13.2541 13.71 12.8732 14.0909C12.4923 14.4718 11.9756 14.6859 11.4369 14.6859C10.8982 14.6859 10.3815 14.4718 10.0006 14.0909C9.61965 13.71 9.40564 13.1933 9.40564 12.6546C9.40564 12.1159 9.61965 11.5992 10.0006 11.2183C10.3815 10.8374 10.8982 10.6234 11.4369 10.6234C11.9756 10.6234 12.4923 10.8374 12.8732 11.2183C13.2541 11.5992 13.4681 12.1159 13.4681 12.6546Z" stroke="currentColor" stroke-linecap="round" stroke-linejoin="round" />
  </g>
</svg>