<svg width="18" height="18" viewBox="0 0 18 18" fill="none" xmlns="http://www.w3.org/2000/svg">
    <path
        d="M13.7667 3.5H4.23333C4.03884 3.5 3.85232 3.57726 3.71479 3.71479C3.57726 3.85232 3.5 4.03884 3.5 4.23333V13.7667C3.5 13.9612 3.57726 14.1477 3.71479 14.2852C3.85232 14.4227 4.03884 14.5 4.23333 14.5H13.7667C13.9612 14.5 14.1477 14.4227 14.2852 14.2852C14.4227 14.1477 14.5 13.9612 14.5 13.7667V4.23333C14.5 4.03884 14.4227 3.85232 14.2852 3.71479C14.1477 3.57726 13.9612 3.5 13.7667 3.5Z"
        stroke="currentColor" stroke-linecap="round" stroke-linejoin="round" />
    <path
        d="M7.9 14.5V10.1H3.5M9.36667 5.69995H12.3M12.3 5.69995V8.63328M12.3 5.69995L9.36667 8.63328"
        stroke="currentColor" stroke-linecap="round" stroke-linejoin="round" />
</svg>