<svg width="18" height="18" viewBox="0 0 18 18" fill="none" xmlns="http://www.w3.org/2000/svg">
<path fill-rule="evenodd" clip-rule="evenodd" d="M13.125 3.875C12.5727 3.875 12.125 4.32272 12.125 4.875C12.125 5.42728 12.5727 5.875 13.125 5.875C13.6773 5.875 14.125 5.42728 14.125 4.875C14.125 4.32272 13.6773 3.875 13.125 3.875ZM11.125 4.875C11.125 3.77043 12.0204 2.875 13.125 2.875C14.2296 2.875 15.125 3.77043 15.125 4.875C15.125 5.97957 14.2296 6.875 13.125 6.875C12.0204 6.875 11.125 5.97957 11.125 4.875ZM4.875 12.125C4.32272 12.125 3.875 12.5727 3.875 13.125C3.875 13.6773 4.32272 14.125 4.875 14.125C5.42728 14.125 5.875 13.6773 5.875 13.125C5.875 12.5727 5.42728 12.125 4.875 12.125ZM2.875 13.125C2.875 12.0204 3.77043 11.125 4.875 11.125C5.97957 11.125 6.875 12.0204 6.875 13.125C6.875 14.2296 5.97957 15.125 4.875 15.125C3.77043 15.125 2.875 14.2296 2.875 13.125ZM5.83265 4.33265C6.12567 4.03962 6.5231 3.875 6.9375 3.875C7.3519 3.875 7.74933 4.03962 8.04235 4.33265C8.33538 4.62567 8.5 5.0231 8.5 5.4375V12.5625C8.5 13.2421 8.76998 13.8939 9.25054 14.3745C9.7311 14.855 10.3829 15.125 11.0625 15.125C11.7421 15.125 12.3939 14.855 12.8745 14.3745C13.355 13.8939 13.625 13.2421 13.625 12.5625V7.875C13.625 7.59886 13.4011 7.375 13.125 7.375C12.8489 7.375 12.625 7.59886 12.625 7.875V12.5625C12.625 12.9769 12.4604 13.3743 12.1674 13.6674C11.8743 13.9604 11.4769 14.125 11.0625 14.125C10.6481 14.125 10.2507 13.9604 9.95765 13.6674C9.66462 13.3743 9.5 12.9769 9.5 12.5625V5.4375C9.5 4.75788 9.23002 4.1061 8.74946 3.62554C8.2689 3.14498 7.61712 2.875 6.9375 2.875C6.25788 2.875 5.6061 3.14498 5.12554 3.62554C4.64498 4.1061 4.375 4.75788 4.375 5.4375V10.125C4.375 10.4011 4.59886 10.625 4.875 10.625C5.15114 10.625 5.375 10.4011 5.375 10.125V5.4375C5.375 5.0231 5.53962 4.62567 5.83265 4.33265Z" fill="currentColor"/>
</svg>
