<svg width="18" height="18" viewBox="0 0 18 18" fill="none" xmlns="http://www.w3.org/2000/svg">
<path d="M12.8354 9.90254C16.0108 6.57077 15.6224 2.68732 15.5894 2.41105C15.3123 2.37803 11.4297 1.98969 8.0979 5.16508C6.07972 7.08856 5.40034 9.23618 5.20312 9.95467L8.04577 12.7973C8.76425 12.6001 10.9119 11.9207 12.8354 9.90254Z" stroke="currentColor" stroke-width="0.86878" stroke-linecap="round" stroke-linejoin="round"/>
<path d="M11.285 8.23604C12.1247 8.23604 12.8054 7.55535 12.8054 6.71568C12.8054 5.876 12.1247 5.19531 11.285 5.19531C10.4453 5.19531 9.76465 5.876 9.76465 6.71568C9.76465 7.55535 10.4453 8.23604 11.285 8.23604Z" fill="currentColor"/>
<path d="M5.94514 14.0726C5.70622 14.6008 5.17366 14.9692 4.55596 14.9692H3.03125V13.4453C3.03125 12.8276 3.39874 12.2951 3.92783 12.0562" stroke="currentColor" stroke-width="0.86878" stroke-linecap="round" stroke-linejoin="round"/>
<path d="M12.7812 9.95996L12.995 11.1563C13.1896 12.2449 12.7378 13.3482 11.836 13.9868L9.53027 15.6209C9.53027 15.6209 10.0889 14.1605 9.77266 12.1415" stroke="currentColor" stroke-width="0.86878" stroke-linecap="round" stroke-linejoin="round"/>
<path d="M8.04085 5.21957L6.84715 5.00585C5.75683 4.81038 4.65174 5.26301 4.01145 6.16741L2.37988 8.47055C2.37988 8.47055 3.8403 7.91192 5.85935 8.22816" stroke="currentColor" stroke-width="0.86878" stroke-linecap="round" stroke-linejoin="round"/>
</svg>
