<svg width="18" height="18" viewBox="0 0 18 18" fill="none" xmlns="http://www.w3.org/2000/svg">
<path d="M2.33594 11.2214C2.91936 11.2214 3.49707 11.1065 4.03609 10.8832C4.5751 10.6599 5.06486 10.3327 5.47741 9.92016C5.88995 9.50761 6.2172 9.01785 6.44046 8.47884C6.66373 7.93982 6.77865 7.36211 6.77865 6.77869C6.77865 7.95697 7.24672 9.08699 8.07988 9.92016C8.91305 10.7533 10.0431 11.2214 11.2214 11.2214C10.0431 11.2214 8.91305 11.6895 8.07988 12.5226C7.24672 13.3558 6.77865 14.4858 6.77865 15.6641C6.77865 15.0807 6.66373 14.503 6.44046 13.964C6.2172 13.4249 5.88995 12.9352 5.47741 12.5226C5.06486 12.1101 4.5751 11.7828 4.03609 11.5596C3.49707 11.3363 2.91936 11.2214 2.33594 11.2214Z" stroke="currentColor" stroke-linecap="round" stroke-linejoin="round"/>
<path d="M10.332 5.00156C11.039 5.00156 11.717 4.72072 12.2169 4.22082C12.7168 3.72092 12.9977 3.04291 12.9977 2.33594C12.9977 3.04291 13.2785 3.72092 13.7784 4.22082C14.2783 4.72072 14.9563 5.00156 15.6633 5.00156C14.9563 5.00156 14.2783 5.2824 13.7784 5.78231C13.2785 6.28221 12.9977 6.96022 12.9977 7.66719C12.9977 6.96022 12.7168 6.28221 12.2169 5.78231C11.717 5.2824 11.039 5.00156 10.332 5.00156Z" stroke="currentColor" stroke-linecap="round" stroke-linejoin="round"/>
</svg>
