<svg width="18" height="18" viewBox="0 0 18 18" fill="none" xmlns="http://www.w3.org/2000/svg">
<path d="M7.55263 11.524C7.82877 11.524 8.05263 11.7479 8.05263 12.024V14.4977C8.05263 14.7739 7.82877 14.9977 7.55263 14.9977H3.5C3.22386 14.9977 3 14.7739 3 14.4977V12.024C3 11.7479 3.22386 11.524 3.5 11.524H7.55263Z" stroke="currentColor" stroke-miterlimit="10" stroke-linecap="square"/>
<path d="M14.5009 6.47368C14.7771 6.47368 15.001 6.24983 15.001 5.97368V3.5C15.001 3.22386 14.7771 3 14.501 3H10.4483C10.1722 3 9.94832 3.22386 9.94832 3.5V5.97368C9.94832 6.24983 10.1722 6.47368 10.4483 6.47368H14.5009Z" stroke="currentColor" stroke-miterlimit="10" stroke-linecap="square"/>
<path d="M7.55263 3C7.82877 3 8.05263 3.22386 8.05263 3.5V9.13158C8.05263 9.40772 7.82877 9.63158 7.55263 9.63158H3.5C3.22386 9.63158 3 9.40772 3 9.13158V3.5C3 3.22386 3.22386 3 3.5 3H7.55263Z" stroke="currentColor" stroke-miterlimit="10" stroke-linecap="square"/>
<path d="M14.5009 14.9969C14.7771 14.9969 15.001 14.7731 15.001 14.4969V8.86536C15.001 8.58921 14.7771 8.36536 14.501 8.36536H10.4483C10.1722 8.36536 9.94832 8.58921 9.94832 8.86536V14.4969C9.94832 14.7731 10.1722 14.9969 10.4483 14.9969H14.5009Z" stroke="currentColor" stroke-miterlimit="10" stroke-linecap="square"/>
</svg>
