<svg width="18" height="18" viewBox="0 0 18 18" fill="none" xmlns="http://www.w3.org/2000/svg">
<path d="M9.76338 3.0945L15.3212 5.9559C15.8592 6.23326 15.8592 7.00216 15.3212 7.27952L9.76338 10.1409C9.51059 10.2708 9.21128 10.2708 8.95938 10.1409L3.40158 7.27952C2.86353 7.00216 2.86353 6.23326 3.40158 5.9559L8.95938 3.0945C9.21216 2.96459 9.51147 2.96459 9.76338 3.0945Z" stroke="currentColor" stroke-width="0.877731" stroke-linecap="round" stroke-linejoin="round"/>
<path d="M15.7292 6.61841C15.5791 7.26793 15.4501 8.12986 15.4826 9.14188C15.5063 9.87391 15.609 10.5129 15.7292 11.0343" stroke="currentColor" stroke-width="0.877731" stroke-linecap="round" stroke-linejoin="round"/>
<path d="M5.19434 10.4551V13.3077C5.19434 14.2767 7.06127 15.0632 9.36356 15.0632C11.6658 15.0632 13.5328 14.2767 13.5328 13.3077V10.4551" stroke="currentColor" stroke-width="0.877731" stroke-linecap="round" stroke-linejoin="round"/>
</svg>
