<svg width="18" height="18" viewBox="0 0 18 18" fill="none" xmlns="http://www.w3.org/2000/svg">
<path d="M4.75 15.5C5.7165 15.5 6.5 14.7165 6.5 13.75C6.5 12.7835 5.7165 12 4.75 12C3.7835 12 3 12.7835 3 13.75C3 14.7165 3.7835 15.5 4.75 15.5Z" stroke="#C9CBCF" stroke-linecap="round" stroke-linejoin="round"/>
<path d="M6.5 14H11.375C12.8247 14 14 12.8247 14 11.375V11.375C14 9.92525 12.8247 8.75 11.375 8.75H8.75H5.875C4.56332 8.75 3.5 7.68668 3.5 6.375V6.375C3.5 5.06332 4.56332 4 5.875 4H12H14" stroke="#C9CBCF"/>
<path d="M12 2L14 4L12 6" stroke="#C9CBCF" stroke-linecap="round"/>
</svg>
