<svg width="16" height="16" viewBox="0 0 16 16" fill="none" xmlns="http://www.w3.org/2000/svg">
<path fill-rule="evenodd" clip-rule="evenodd" d="M7.33301 2.66649C4.75568 2.66649 2.66634 4.75583 2.66634 7.33316C2.66634 9.91049 4.75568 11.9998 7.33301 11.9998C9.91034 11.9998 11.9997 9.91049 11.9997 7.33316C11.9997 4.75583 9.91034 2.66649 7.33301 2.66649ZM1.33301 7.33316C1.33301 4.01945 4.0193 1.33316 7.33301 1.33316C10.6467 1.33316 13.333 4.01945 13.333 7.33316C13.333 10.6469 10.6467 13.3332 7.33301 13.3332C4.0193 13.3332 1.33301 10.6469 1.33301 7.33316Z" fill="currentColor"/>
<path fill-rule="evenodd" clip-rule="evenodd" d="M10.6298 10.6302C10.8902 10.3698 11.3123 10.3698 11.5726 10.6302L14.4726 13.5302C14.733 13.7905 14.733 14.2126 14.4726 14.473C14.2123 14.7333 13.7902 14.7333 13.5298 14.473L10.6298 11.573C10.3695 11.3126 10.3695 10.8905 10.6298 10.6302Z" fill="currentColor"/>
</svg>
