<svg width="52" height="52" viewBox="0 0 52 52" fill="none" xmlns="http://www.w3.org/2000/svg">
<path d="M44.0202 5.14201C40.7059 3.62126 37.1518 2.50085 33.4358 1.85914C33.3681 1.84675 33.3005 1.8777 33.2656 1.9396C32.8086 2.75257 32.3022 3.81315 31.9477 4.64676C27.9509 4.0484 23.9746 4.0484 20.0597 4.64676C19.7051 3.79462 19.1804 2.75257 18.7212 1.9396C18.6864 1.87977 18.6188 1.84882 18.5511 1.85914C14.8371 2.4988 11.283 3.61921 7.96669 5.14201C7.93798 5.15438 7.91337 5.17504 7.89704 5.20184C1.15568 15.2733 -0.691059 25.0972 0.21489 34.7993C0.218989 34.8468 0.245635 34.8922 0.282529 34.921C4.73029 38.1873 9.0387 40.1703 13.2671 41.4847C13.3348 41.5053 13.4065 41.4806 13.4495 41.4248C14.4498 40.0589 15.3414 38.6187 16.1059 37.1041C16.151 37.0154 16.1079 36.9101 16.0157 36.875C14.6015 36.3386 13.2548 35.6845 11.9594 34.9417C11.857 34.8818 11.8487 34.7353 11.943 34.6651C12.2156 34.4609 12.4883 34.2483 12.7486 34.0337C12.7957 33.9945 12.8613 33.9863 12.9167 34.011C21.4268 37.8964 30.64 37.8964 39.0497 34.011C39.1051 33.9842 39.1707 33.9925 39.2199 34.0317C39.4802 34.2463 39.7528 34.4609 40.0275 34.6651C40.1217 34.7353 40.1156 34.8818 40.0131 34.9417C38.7177 35.6989 37.3711 36.3386 35.9548 36.873C35.8626 36.9081 35.8216 37.0154 35.8667 37.1041C36.6475 38.6165 37.5392 40.0568 38.5209 41.4228C38.562 41.4806 38.6357 41.5053 38.7034 41.4847C42.9523 40.1703 47.2607 38.1873 51.7084 34.921C51.7474 34.8922 51.772 34.8488 51.7761 34.8013C52.8603 23.5847 49.9601 13.8413 44.0878 5.20389C44.0734 5.17504 44.0489 5.15438 44.0202 5.14201ZM17.3767 28.8917C14.8146 28.8917 12.7035 26.5395 12.7035 23.6507C12.7035 20.7619 14.7736 18.4097 17.3767 18.4097C20.0002 18.4097 22.0909 20.7826 22.0499 23.6507C22.0499 26.5395 19.9797 28.8917 17.3767 28.8917ZM34.6553 28.8917C32.0932 28.8917 29.9821 26.5395 29.9821 23.6507C29.9821 20.7619 32.0522 18.4097 34.6553 18.4097C37.2789 18.4097 39.3695 20.7826 39.3286 23.6507C39.3286 26.5395 37.2789 28.8917 34.6553 28.8917Z" fill="currentColor"/>
</svg>
