<svg width="144" height="784" viewBox="0 0 144 784" fill="none" xmlns="http://www.w3.org/2000/svg">
<g filter="url(#filter0_f_10508_18695)">
<path d="M74 40L74 720" stroke="url(#paint0_linear_10508_18695)" stroke-width="10"/>
</g>
<path fill-rule="evenodd" clip-rule="evenodd" d="M69 474L69 784H77L77 474H69ZM69 414H77L77 104H69L69 414Z" fill="url(#paint1_linear_10508_18695)"/>
<rect x="1" y="423" width="142" height="42" rx="21" fill="#1A1A1A" stroke="white" stroke-width="2"/>
<path d="M19.71 443.62H18.378V441.55H19.71V440.434C19.71 439.522 19.95 438.838 20.43 438.382C20.91 437.914 21.612 437.68 22.536 437.68H24.264V439.75H22.374V441.55H24.264V443.62H22.374V451H19.71V443.62ZM29.6176 451.216C28.8976 451.216 28.2556 451.102 27.6916 450.874C27.1276 450.634 26.6476 450.304 26.2516 449.884C25.8676 449.452 25.5736 448.93 25.3696 448.318C25.1776 447.706 25.0816 447.022 25.0816 446.266C25.0816 445.522 25.1776 444.85 25.3696 444.25C25.5616 443.638 25.8436 443.116 26.2156 442.684C26.5996 442.252 27.0676 441.922 27.6196 441.694C28.1716 441.454 28.8016 441.334 29.5096 441.334C30.2896 441.334 30.9556 441.466 31.5076 441.73C32.0716 441.994 32.5276 442.348 32.8756 442.792C33.2356 443.236 33.4936 443.752 33.6496 444.34C33.8176 444.916 33.9016 445.522 33.9016 446.158V446.95H27.8356V447.094C27.8356 447.718 28.0036 448.216 28.3396 448.588C28.6756 448.948 29.2036 449.128 29.9236 449.128C30.4756 449.128 30.9256 449.02 31.2736 448.804C31.6216 448.576 31.9456 448.306 32.2456 447.994L33.5776 449.65C33.1576 450.142 32.6056 450.526 31.9216 450.802C31.2496 451.078 30.4816 451.216 29.6176 451.216ZM29.5636 443.296C29.0236 443.296 28.5976 443.476 28.2856 443.836C27.9856 444.184 27.8356 444.652 27.8356 445.24V445.384H31.1476V445.222C31.1476 444.646 31.0156 444.184 30.7516 443.836C30.4996 443.476 30.1036 443.296 29.5636 443.296ZM42.767 451C42.287 451 41.885 450.85 41.561 450.55C41.249 450.25 41.051 449.848 40.967 449.344H40.859C40.715 449.956 40.397 450.424 39.905 450.748C39.413 451.06 38.807 451.216 38.087 451.216C37.139 451.216 36.413 450.964 35.909 450.46C35.405 449.956 35.153 449.29 35.153 448.462C35.153 447.466 35.513 446.728 36.233 446.248C36.965 445.756 37.955 445.51 39.203 445.51H40.697V444.916C40.697 444.46 40.577 444.1 40.337 443.836C40.097 443.56 39.695 443.422 39.131 443.422C38.603 443.422 38.183 443.536 37.871 443.764C37.559 443.992 37.301 444.25 37.097 444.538L35.513 443.134C35.897 442.57 36.377 442.132 36.953 441.82C37.541 441.496 38.333 441.334 39.329 441.334C40.673 441.334 41.681 441.628 42.353 442.216C43.025 442.804 43.361 443.662 43.361 444.79V448.93H44.243V451H42.767ZM39.077 449.362C39.521 449.362 39.899 449.266 40.211 449.074C40.535 448.882 40.697 448.57 40.697 448.138V447.022H39.401C38.357 447.022 37.835 447.376 37.835 448.084V448.354C37.835 448.702 37.943 448.96 38.159 449.128C38.375 449.284 38.681 449.362 39.077 449.362ZM49.2376 451C48.3136 451 47.6116 450.766 47.1316 450.298C46.6636 449.83 46.4296 449.146 46.4296 448.246V443.62H45.0976V441.55H45.7636C46.1236 441.55 46.3696 441.466 46.5016 441.298C46.6336 441.118 46.6996 440.866 46.6996 440.542V438.994H49.0936V441.55H50.9656V443.62H49.0936V448.93H50.8216V451H49.2376ZM58.3962 449.416H58.3062C58.2222 449.656 58.1082 449.884 57.9642 450.1C57.8322 450.316 57.6582 450.508 57.4422 450.676C57.2262 450.844 56.9682 450.976 56.6682 451.072C56.3802 451.168 56.0442 451.216 55.6602 451.216C54.6882 451.216 53.9502 450.898 53.4462 450.262C52.9542 449.614 52.7082 448.69 52.7082 447.49V441.55H55.3722V447.256C55.3722 447.832 55.4742 448.276 55.6782 448.588C55.8822 448.9 56.2302 449.056 56.7222 449.056C56.9262 449.056 57.1302 449.026 57.3342 448.966C57.5382 448.906 57.7182 448.822 57.8742 448.714C58.0302 448.594 58.1562 448.45 58.2522 448.282C58.3482 448.114 58.3962 447.916 58.3962 447.688V441.55H61.0602V451H58.3962V449.416ZM63.5389 451V441.55H66.2029V443.602H66.2929C66.3409 443.338 66.4249 443.086 66.5449 442.846C66.6649 442.594 66.8209 442.372 67.0129 442.18C67.2169 441.988 67.4569 441.838 67.7329 441.73C68.0089 441.61 68.3329 441.55 68.7049 441.55H69.1729V444.034H68.5069C67.7269 444.034 67.1449 444.136 66.7609 444.34C66.3889 444.544 66.2029 444.922 66.2029 445.474V451H63.5389ZM74.6703 451.216C73.9503 451.216 73.3083 451.102 72.7443 450.874C72.1803 450.634 71.7003 450.304 71.3043 449.884C70.9203 449.452 70.6263 448.93 70.4223 448.318C70.2303 447.706 70.1343 447.022 70.1343 446.266C70.1343 445.522 70.2303 444.85 70.4223 444.25C70.6143 443.638 70.8963 443.116 71.2683 442.684C71.6523 442.252 72.1203 441.922 72.6723 441.694C73.2243 441.454 73.8543 441.334 74.5623 441.334C75.3423 441.334 76.0083 441.466 76.5603 441.73C77.1243 441.994 77.5803 442.348 77.9283 442.792C78.2883 443.236 78.5463 443.752 78.7023 444.34C78.8703 444.916 78.9543 445.522 78.9543 446.158V446.95H72.8883V447.094C72.8883 447.718 73.0563 448.216 73.3923 448.588C73.7283 448.948 74.2563 449.128 74.9763 449.128C75.5283 449.128 75.9783 449.02 76.3263 448.804C76.6743 448.576 76.9983 448.306 77.2983 447.994L78.6303 449.65C78.2103 450.142 77.6583 450.526 76.9743 450.802C76.3023 451.078 75.5343 451.216 74.6703 451.216ZM74.6163 443.296C74.0763 443.296 73.6503 443.476 73.3383 443.836C73.0383 444.184 72.8883 444.652 72.8883 445.24V445.384H76.2003V445.222C76.2003 444.646 76.0683 444.184 75.8043 443.836C75.5523 443.476 75.1563 443.296 74.6163 443.296ZM79.6478 453.718L85.0118 437.68H87.2078L81.8438 453.718H79.6478ZM95.3783 451C94.8983 451 94.4963 450.85 94.1723 450.55C93.8603 450.25 93.6623 449.848 93.5783 449.344H93.4703C93.3263 449.956 93.0083 450.424 92.5163 450.748C92.0243 451.06 91.4183 451.216 90.6983 451.216C89.7503 451.216 89.0243 450.964 88.5203 450.46C88.0163 449.956 87.7643 449.29 87.7643 448.462C87.7643 447.466 88.1243 446.728 88.8443 446.248C89.5763 445.756 90.5663 445.51 91.8143 445.51H93.3083V444.916C93.3083 444.46 93.1883 444.1 92.9483 443.836C92.7083 443.56 92.3063 443.422 91.7423 443.422C91.2143 443.422 90.7943 443.536 90.4823 443.764C90.1703 443.992 89.9123 444.25 89.7083 444.538L88.1243 443.134C88.5083 442.57 88.9883 442.132 89.5643 441.82C90.1523 441.496 90.9443 441.334 91.9403 441.334C93.2843 441.334 94.2923 441.628 94.9643 442.216C95.6363 442.804 95.9723 443.662 95.9723 444.79V448.93H96.8543V451H95.3783ZM91.6883 449.362C92.1323 449.362 92.5103 449.266 92.8223 449.074C93.1463 448.882 93.3083 448.57 93.3083 448.138V447.022H92.0123C90.9683 447.022 90.4463 447.376 90.4463 448.084V448.354C90.4463 448.702 90.5543 448.96 90.7703 449.128C90.9863 449.284 91.2923 449.362 91.6883 449.362ZM104.222 449.416H104.132C104.048 449.656 103.934 449.884 103.79 450.1C103.658 450.316 103.484 450.508 103.268 450.676C103.052 450.844 102.794 450.976 102.494 451.072C102.206 451.168 101.87 451.216 101.486 451.216C100.514 451.216 99.7764 450.898 99.2724 450.262C98.7804 449.614 98.5344 448.69 98.5344 447.49V441.55H101.198V447.256C101.198 447.832 101.3 448.276 101.504 448.588C101.708 448.9 102.056 449.056 102.548 449.056C102.752 449.056 102.956 449.026 103.16 448.966C103.364 448.906 103.544 448.822 103.7 448.714C103.856 448.594 103.982 448.45 104.078 448.282C104.174 448.114 104.222 447.916 104.222 447.688V441.55H106.886V451H104.222V449.416ZM112.677 451C111.753 451 111.051 450.766 110.571 450.298C110.103 449.83 109.869 449.146 109.869 448.246V443.62H108.537V441.55H109.203C109.563 441.55 109.809 441.466 109.941 441.298C110.073 441.118 110.139 440.866 110.139 440.542V438.994H112.533V441.55H114.405V443.62H112.533V448.93H114.261V451H112.677ZM116.256 437.68H118.92V443.152H119.028C119.196 442.66 119.49 442.234 119.91 441.874C120.33 441.514 120.912 441.334 121.656 441.334C122.628 441.334 123.36 441.658 123.852 442.306C124.356 442.954 124.608 443.878 124.608 445.078V451H121.944V445.294C121.944 444.682 121.848 444.232 121.656 443.944C121.464 443.644 121.122 443.494 120.63 443.494C120.414 443.494 120.204 443.524 120 443.584C119.796 443.632 119.61 443.716 119.442 443.836C119.286 443.956 119.16 444.106 119.064 444.286C118.968 444.454 118.92 444.652 118.92 444.88V451H116.256V437.68Z" fill="white"/>
<defs>
<filter id="filter0_f_10508_18695" x="29" y="0" width="90" height="760" filterUnits="userSpaceOnUse" color-interpolation-filters="sRGB">
<feFlood flood-opacity="0" result="BackgroundImageFix"/>
<feBlend mode="normal" in="SourceGraphic" in2="BackgroundImageFix" result="shape"/>
<feGaussianBlur stdDeviation="20" result="effect1_foregroundBlur_10508_18695"/>
</filter>
<linearGradient id="paint0_linear_10508_18695" x1="74.5" y1="40" x2="74.5" y2="720" gradientUnits="userSpaceOnUse">
<stop offset="0.0882353" stop-color="#00E599" stop-opacity="0"/>
<stop offset="0.455882" stop-color="#00E599"/>
<stop offset="0.911765" stop-color="#00E599" stop-opacity="0"/>
</linearGradient>
<linearGradient id="paint1_linear_10508_18695" x1="73" y1="104" x2="73" y2="784" gradientUnits="userSpaceOnUse">
<stop offset="0.0882353" stop-color="#00E599" stop-opacity="0"/>
<stop offset="0.455882" stop-color="#00E599"/>
<stop offset="0.911765" stop-color="#00E599" stop-opacity="0"/>
</linearGradient>
</defs>
</svg>
