<svg width="16" height="16" viewBox="0 0 16 16" fill="none" xmlns="http://www.w3.org/2000/svg">
<g clip-path="url(#clip0_16318_9079)">
<path d="M0.5 10.5C1.15661 10.5 1.80679 10.3707 2.41342 10.1194C3.02005 9.86812 3.57124 9.49983 4.03553 9.03553C4.49983 8.57124 4.86812 8.02005 5.1194 7.41342C5.37067 6.80679 5.5 6.15661 5.5 5.5C5.5 6.82608 6.02678 8.09785 6.96447 9.03553C7.90215 9.97322 9.17392 10.5 10.5 10.5C9.17392 10.5 7.90215 11.0268 6.96447 11.9645C6.02678 12.9021 5.5 14.1739 5.5 15.5C5.5 14.8434 5.37067 14.1932 5.1194 13.5866C4.86812 12.98 4.49983 12.4288 4.03553 11.9645C3.57124 11.5002 3.02005 11.1319 2.41342 10.8806C1.80679 10.6293 1.15661 10.5 0.5 10.5Z" stroke="currentColor" stroke-linecap="round" stroke-linejoin="round"/>
<path d="M9.5 3.5C10.2956 3.5 11.0587 3.18393 11.6213 2.62132C12.1839 2.05871 12.5 1.29565 12.5 0.5C12.5 1.29565 12.8161 2.05871 13.3787 2.62132C13.9413 3.18393 14.7044 3.5 15.5 3.5C14.7044 3.5 13.9413 3.81607 13.3787 4.37868C12.8161 4.94129 12.5 5.70435 12.5 6.5C12.5 5.70435 12.1839 4.94129 11.6213 4.37868C11.0587 3.81607 10.2956 3.5 9.5 3.5Z" stroke="currentColor" stroke-linecap="round" stroke-linejoin="round"/>
</g>
<defs>
<clipPath id="clip0_16318_9079">
<rect width="16" height="16" fill="white"/>
</clipPath>
</defs>
</svg>
